<svg xmlns="http://www.w3.org/2000/svg" viewBox="0 0 512 512">
  <path d="M 36.40889 36.40889 Q 11.377778 62.577778 5.688889 111.50222 L 5.688889 111.50222 L 5.688889 111.50222 Q 0 160.42667 1.1377778 245.76 L 1.1377778 266.24 L 1.1377778 266.24 Q 0 351.57333 5.688889 400.49777 Q 11.377778 449.4222 36.40889 475.59113 Q 62.577778 500.62222 111.50222 506.3111 Q 160.42667 512 245.76 510.8622 L 266.24 510.8622 L 266.24 510.8622 Q 351.57333 512 400.49777 506.3111 Q 449.4222 500.62222 475.59113 475.59113 Q 500.62222 449.4222 506.3111 400.49777 Q 512 351.57333 510.8622 266.24 L 510.8622 245.76 L 510.8622 245.76 Q 512 160.42667 506.3111 111.50222 Q 500.62222 62.577778 475.59113 36.40889 Q 449.4222 11.377778 400.49777 5.688889 Q 351.57333 0 266.24 1.1377778 L 245.76 1.1377778 L 245.76 1.1377778 Q 160.42667 0 111.50222 5.688889 Q 62.577778 11.377778 36.40889 36.40889 L 36.40889 36.40889 Z M 87.60889 155.87555 L 145.63556 155.87555 L 87.60889 155.87555 L 145.63556 155.87555 Q 147.91112 228.69333 172.94221 262.82666 Q 196.83556 296.96 224.14223 302.6489 L 224.14223 155.87555 L 224.14223 155.87555 L 278.75555 155.87555 L 278.75555 155.87555 L 278.75555 240.0711 L 278.75555 240.0711 Q 304.92444 236.65778 327.68 212.76445 Q 350.43555 188.87111 359.53778 155.87555 L 414.15112 155.87555 L 414.15112 155.87555 Q 407.32443 188.87111 387.9822 217.31555 Q 368.64 244.62222 340.19556 261.6889 Q 372.05334 277.61777 394.8089 306.06223 Q 417.56445 333.3689 426.66666 368.64 L 366.36444 368.64 L 366.36444 368.64 Q 358.4 337.92 334.50665 317.44 Q 310.61334 296.96 278.75555 292.40887 L 278.75555 368.64 L 278.75555 368.64 L 271.9289 368.64 L 271.9289 368.64 Q 184.32 367.50223 137.67111 311.7511 Q 89.884445 256 87.60889 155.87555 L 87.60889 155.87555 Z" />
</svg>