<svg xmlns="http://www.w3.org/2000/svg" viewBox="0 0 512 512">
  <path d="M 257.0281 0 Q 145.99197 2.0562248 75.05221 69.911644 L 75.05221 69.911644 L 75.05221 69.911644 Q 3.0843372 138.79518 1.0281124 247.7751 Q 1.0281124 303.29318 22.618473 349.55823 Q 43.18072 396.8514 81.22089 430.7791 Q 86.36144 433.86346 87.38956 441.06024 Q 88.41767 448.25702 89.445786 467.79117 Q 89.445786 477.0442 89.445786 490.40964 Q 90.47389 500.69077 98.69879 506.85944 Q 107.951805 512 118.23293 507.88754 Q 133.65462 501.71887 143.93575 496.5783 Q 164.49799 487.3253 171.69478 485.26907 Q 177.86345 483.21286 183.00401 485.26907 Q 263.19678 505.83133 338.249 482.18475 Q 412.2731 459.56625 460.5944 398.90762 Q 508.91565 338.249 510.9719 247.7751 Q 508.91565 138.79518 437.9759 69.911644 Q 367.03613 2.0562248 257.0281 0 L 257.0281 0 Z M 410.21686 190.2008 L 335.16467 309.46185 L 410.21686 190.2008 L 335.16467 309.46185 Q 325.91165 322.8273 309.46185 325.91165 Q 293.01205 328.99597 279.64658 319.74298 L 220.01607 274.506 L 220.01607 274.506 Q 210.76305 268.33734 201.51004 274.506 L 120.289154 336.19278 L 120.289154 336.19278 Q 112.064255 341.33334 104.86747 335.16467 Q 98.69879 328.99597 102.81125 319.74298 L 177.86345 200.48193 L 177.86345 200.48193 Q 187.11647 187.11647 203.56627 184.03214 Q 220.01607 180.94778 233.38153 190.2008 L 293.01205 235.43774 L 293.01205 235.43774 Q 302.26505 241.60643 311.51807 235.43774 L 392.73895 174.77911 L 392.73895 174.77911 Q 400.96387 168.61044 408.16064 174.77911 Q 414.3293 180.94778 410.21686 190.2008 L 410.21686 190.2008 Z" />
</svg>