<svg xmlns="http://www.w3.org/2000/svg" viewBox="0 0 512 512">
  <path d="M 183.87616099071207 360.61919504643964 Q 183.87616099071207 359.0340557275542 182.29102167182663 358.24148606811144 Q 181.4984520123839 357.4489164086687 180.7058823529412 357.4489164086687 L 62.61300309597523 357.4489164086687 L 62.61300309597523 357.4489164086687 Q 54.68730650154799 357.4489164086687 49.93188854489164 351.10835913312695 Q 45.1764705882353 344.76780185758514 48.34674922600619 336.8421052631579 L 69.74613003095975 256 L 69.74613003095975 256 Q 75.29411764705883 236.97832817337462 95.10835913312694 235.39318885448915 L 213.20123839009287 235.39318885448915 L 213.20123839009287 235.39318885448915 Q 216.37151702786377 234.60061919504645 217.9566563467492 230.6377708978328 L 226.6749226006192 198.14241486068113 L 226.6749226006192 198.14241486068113 Q 227.46749226006193 195.76470588235293 224.29721362229103 194.1795665634675 Q 224.29721362229103 194.1795665634675 223.5046439628483 194.1795665634675 Q 223.5046439628483 194.1795665634675 223.5046439628483 194.1795665634675 L 105.41176470588235 194.1795665634675 L 105.41176470588235 194.1795665634675 Q 78.46439628482972 195.76470588235293 57.857585139318886 212.40866873065016 Q 36.45820433436533 229.05263157894737 28.53250773993808 255.20743034055727 L 7.13312693498452 337.6346749226006 L 7.13312693498452 337.6346749226006 Q 0 359.8266253869969 12.681114551083592 378.8482972136223 Q 26.94736842105263 397.86996904024767 49.93188854489164 398.6625386996904 Q 51.51702786377709 398.6625386996904 52.309597523219814 398.6625386996904 L 170.40247678018576 398.6625386996904 L 170.40247678018576 398.6625386996904 Q 174.36532507739938 397.86996904024767 175.1578947368421 394.6996904024768 L 183.87616099071207 362.20433436532505 L 183.87616099071207 362.20433436532505 Q 183.87616099071207 361.4117647058824 183.87616099071207 360.61919504643964 L 183.87616099071207 360.61919504643964 Z M 248.07430340557275 117.30030959752322 Q 248.07430340557275 117.30030959752322 248.07430340557275 116.50773993808049 Q 248.07430340557275 114.92260061919505 247.28173374613004 114.13003095975232 Q 246.4891640866873 113.3374613003096 244.90402476780187 113.3374613003096 Q 244.90402476780187 113.3374613003096 244.90402476780187 113.3374613003096 Q 244.90402476780187 113.3374613003096 244.90402476780187 113.3374613003096 L 212.40866873065016 113.3374613003096 L 212.40866873065016 113.3374613003096 Q 208.44582043343652 114.13003095975232 207.65325077399382 117.30030959752322 L 190.21671826625388 181.4984520123839 L 190.21671826625388 181.4984520123839 L 230.6377708978328 181.4984520123839 L 248.07430340557275 117.30030959752322 Z M 147.41795665634675 344.76780185758514 L 188.6315789473684 344.76780185758514 L 147.41795665634675 344.76780185758514 L 188.6315789473684 344.76780185758514 L 213.20123839009287 248.07430340557275 L 213.20123839009287 248.07430340557275 L 172.78018575851394 248.07430340557275 L 147.41795665634675 344.76780185758514 Z M 410.5510835913313 116.50773993808049 Q 409.75851393188856 113.3374613003096 407.38080495356036 113.3374613003096 Q 407.38080495356036 113.3374613003096 407.38080495356036 113.3374613003096 L 374.8854489164087 113.3374613003096 L 374.8854489164087 113.3374613003096 Q 370.92260061919507 113.3374613003096 369.3374613003096 117.30030959752322 L 297.2136222910217 394.6996904024768 L 297.2136222910217 394.6996904024768 Q 297.2136222910217 394.6996904024768 297.2136222910217 395.4922600619195 Q 297.2136222910217 397.86996904024767 300.38390092879257 398.6625386996904 Q 300.38390092879257 398.6625386996904 300.38390092879257 398.6625386996904 L 332.87925696594425 398.6625386996904 L 332.87925696594425 398.6625386996904 Q 336.8421052631579 397.86996904024767 337.6346749226006 394.6996904024768 L 410.5510835913313 117.30030959752322 L 410.5510835913313 117.30030959752322 Q 410.5510835913313 116.50773993808049 410.5510835913313 116.50773993808049 L 410.5510835913313 116.50773993808049 Z M 262.3405572755418 357.4489164086687 L 229.8452012383901 357.4489164086687 L 262.3405572755418 357.4489164086687 L 229.8452012383901 357.4489164086687 Q 225.88235294117646 358.24148606811144 224.29721362229103 362.20433436532505 L 216.37151702786377 394.6996904024768 L 216.37151702786377 394.6996904024768 Q 215.57894736842104 394.6996904024768 215.57894736842104 395.4922600619195 Q 215.57894736842104 397.07739938080493 216.37151702786377 397.86996904024767 Q 217.1640866873065 398.6625386996904 218.74922600619195 398.6625386996904 Q 218.74922600619195 398.6625386996904 218.74922600619195 398.6625386996904 L 251.24458204334366 398.6625386996904 L 251.24458204334366 398.6625386996904 Q 255.20743034055727 397.86996904024767 256.79256965944273 394.6996904024768 L 264.71826625386996 362.20433436532505 L 264.71826625386996 362.20433436532505 Q 265.5108359133127 360.61919504643964 264.71826625386996 359.0340557275542 Q 263.9256965944272 358.24148606811144 262.3405572755418 357.4489164086687 Q 262.3405572755418 357.4489164086687 262.3405572755418 357.4489164086687 L 262.3405572755418 357.4489164086687 Z M 508.8297213622291 113.3374613003096 L 476.3343653250774 113.3374613003096 L 508.8297213622291 113.3374613003096 L 476.3343653250774 113.3374613003096 Q 472.3715170278638 114.13003095975232 471.57894736842104 117.30030959752322 L 398.6625386996904 394.6996904024768 L 398.6625386996904 394.6996904024768 Q 398.6625386996904 394.6996904024768 398.6625386996904 395.4922600619195 Q 398.6625386996904 397.86996904024767 401.8328173374613 398.6625386996904 Q 401.8328173374613 398.6625386996904 401.8328173374613 398.6625386996904 Q 401.8328173374613 398.6625386996904 401.8328173374613 398.6625386996904 L 434.328173374613 398.6625386996904 L 434.328173374613 398.6625386996904 Q 438.2910216718266 397.86996904024767 439.08359133126936 394.6996904024768 L 512 117.30030959752322 L 512 117.30030959752322 Q 512 116.50773993808049 512 116.50773993808049 Q 511.20743034055727 113.3374613003096 508.8297213622291 113.3374613003096 Q 508.8297213622291 113.3374613003096 508.8297213622291 113.3374613003096 L 508.8297213622291 113.3374613003096 Z M 299.59133126934984 231.43034055727554 L 307.5170278637771 198.93498452012383 L 299.59133126934984 231.43034055727554 L 307.5170278637771 198.93498452012383 Q 308.3095975232198 198.14241486068113 308.3095975232198 198.14241486068113 Q 307.5170278637771 194.97213622291022 305.1393188854489 194.97213622291022 Q 305.1393188854489 194.97213622291022 305.1393188854489 194.97213622291022 L 271.8513931888545 194.97213622291022 L 271.8513931888545 194.97213622291022 Q 268.68111455108357 195.76470588235293 267.09597523219816 198.93498452012383 L 258.3777089783282 231.43034055727554 L 258.3777089783282 231.43034055727554 Q 258.3777089783282 232.22291021671828 258.3777089783282 233.01547987616098 Q 258.3777089783282 233.01547987616098 258.3777089783282 233.01547987616098 Q 258.3777089783282 233.01547987616098 258.3777089783282 233.01547987616098 Q 258.3777089783282 235.39318885448915 261.5479876160991 235.39318885448915 Q 261.5479876160991 235.39318885448915 261.5479876160991 235.39318885448915 L 294.04334365325076 235.39318885448915 L 294.04334365325076 235.39318885448915 Q 298.00619195046437 235.39318885448915 299.59133126934984 231.43034055727554 L 299.59133126934984 231.43034055727554 Z" />
</svg>