<svg xmlns="http://www.w3.org/2000/svg" viewBox="0 0 438 512">
    <path d="M 8 229 Q 8 229 8 229 L 8 229 Q 8 229 8 229 Q 8 229 8 229 L 8 229 L 8 229 Z M 219 97 Q 208 97 198 98 L 201 166 L 179 102 Q 158 107 139 118 L 169 180 L 124 129 Q 106 142 93 160 L 144 205 L 83 175 Q 72 194 66 215 L 130 238 L 62 234 Q 61 245 61 256 Q 61 267 62 278 L 130 274 L 66 296 Q 72 318 83 337 L 144 307 L 93 352 Q 106 370 124 383 L 169 332 L 139 393 Q 158 405 179 410 L 201 346 L 197 414 Q 208 415 219 415 Q 230 415 241 414 L 237 345 L 259 410 Q 281 404 299 393 L 270 332 L 315 383 Q 332 370 345 352 L 295 307 L 356 336 Q 367 318 373 296 L 309 274 L 376 278 Q 377 267 377 256 Q 377 245 376 234 L 308 238 L 372 216 Q 367 194 356 175 L 295 205 L 345 160 Q 332 142 315 129 L 270 180 L 299 119 Q 281 107 259 102 L 237 166 L 241 98 Q 230 97 219 97 L 219 97 Z M 438 128 L 438 384 L 219 512 L 0 384 L 0 128 L 219 0 L 438 128 L 438 128 Z M 421 138 L 219 21 L 17 138 L 17 373 L 219 491 L 421 373 L 421 138 L 421 138 Z M 219 37 L 407 147 L 407 365 L 219 475 L 31 365 L 31 147 L 219 37 L 219 37 Z M 219 88 Q 148 90 101 137 L 101 137 Q 54 185 52 256 Q 54 327 101 375 Q 148 422 219 424 Q 290 422 337 375 Q 384 327 386 256 Q 384 185 337 137 Q 290 90 219 88 L 219 88 Z"/>
</svg>
