<svg xmlns="http://www.w3.org/2000/svg" viewBox="0 0 512 512">
  <path d="M 155.75221238938053 311.50442477876106 Q 150.08849557522123 316.0353982300885 135.36283185840708 316.0353982300885 L 135.36283185840708 316.0353982300885 L 135.36283185840708 316.0353982300885 Q 120.63716814159292 316.0353982300885 119.50442477876106 289.98230088495575 L 119.50442477876106 172.1769911504425 L 119.50442477876106 172.1769911504425 L 82.12389380530973 172.1769911504425 L 82.12389380530973 172.1769911504425 L 82.12389380530973 288.8495575221239 L 82.12389380530973 288.8495575221239 Q 83.2566371681416 329.62831858407077 105.91150442477876 340.95575221238937 Q 128.56637168141592 351.1504424778761 155.75221238938053 346.6194690265487 Q 181.8053097345133 340.95575221238937 193.13274336283186 333.0265486725664 L 193.13274336283186 172.1769911504425 L 193.13274336283186 172.1769911504425 L 155.75221238938053 172.1769911504425 L 155.75221238938053 311.50442477876106 Z M 43.610619469026545 53.23893805309734 L 43.610619469026545 303.57522123893807 L 43.610619469026545 53.23893805309734 L 43.610619469026545 303.57522123893807 Q 44.743362831858406 387.39823008849555 101.38053097345133 430.4424778761062 Q 156.8849557522124 472.353982300885 253.16814159292036 509.7345132743363 Q 254.30088495575222 510.86725663716817 256.56637168141594 512 Q 258.83185840707966 510.86725663716817 261.0973451327434 509.7345132743363 Q 356.24778761061947 472.353982300885 411.75221238938053 429.30973451327435 Q 467.2566371681416 387.39823008849555 468.3893805309734 303.57522123893807 L 468.3893805309734 53.23893805309734 L 468.3893805309734 53.23893805309734 Q 401.5575221238938 18.123893805309734 323.39823008849555 9.061946902654867 Q 245.23893805309734 0 171.61061946902655 12.460176991150442 Q 97.98230088495575 24.920353982300885 43.610619469026545 53.23893805309734 L 43.610619469026545 53.23893805309734 Z M 449.13274336283183 303.57522123893807 Q 449.13274336283183 373.8053097345133 402.69026548672565 411.1858407079646 L 402.69026548672565 411.1858407079646 L 402.69026548672565 411.1858407079646 Q 355.11504424778764 449.6991150442478 256.56637168141594 490.4778761061947 Q 156.8849557522124 449.6991150442478 109.30973451327434 411.1858407079646 Q 62.86725663716814 373.8053097345133 62.86725663716814 303.57522123893807 L 62.86725663716814 159.71681415929203 L 62.86725663716814 159.71681415929203 Q 151.2212389380531 82.69026548672566 253.16814159292036 64.56637168141593 Q 355.11504424778764 47.575221238938056 449.13274336283183 58.902654867256636 L 449.13274336283183 303.57522123893807 Z M 212.38938053097345 181.23893805309734 L 212.38938053097345 422.5132743362832 L 212.38938053097345 181.23893805309734 L 212.38938053097345 422.5132743362832 L 248.63716814159292 422.5132743362832 L 248.63716814159292 422.5132743362832 L 248.63716814159292 344.353982300885 L 248.63716814159292 344.353982300885 Q 272.42477876106193 352.283185840708 299.6106194690266 335.2920353982301 Q 327.929203539823 318.3008849557522 330.1946902654867 256 Q 329.0619469026549 201.6283185840708 305.27433628318585 183.50442477876106 Q 282.6194690265487 165.38053097345133 254.30088495575222 168.7787610619469 Q 227.1150442477876 172.1769911504425 212.38938053097345 181.23893805309734 L 212.38938053097345 181.23893805309734 Z M 248.63716814159292 314.9026548672566 L 248.63716814159292 200.49557522123894 L 248.63716814159292 314.9026548672566 L 248.63716814159292 200.49557522123894 Q 257.6991150442478 194.83185840707964 274.69026548672565 200.49557522123894 Q 290.5486725663717 206.15929203539824 292.8141592920354 257.13274336283183 Q 291.6814159292035 293.3805309734513 281.4867256637168 305.8407079646018 Q 272.42477876106193 317.16814159292034 262.2300884955752 317.16814159292034 Q 252.0353982300885 316.0353982300885 248.63716814159292 314.9026548672566 Q 248.63716814159292 314.9026548672566 248.63716814159292 314.9026548672566 L 248.63716814159292 314.9026548672566 Z M 338.12389380530976 216.35398230088495 Q 339.2566371681416 239.00884955752213 349.4513274336283 250.3362831858407 L 349.4513274336283 250.3362831858407 L 349.4513274336283 250.3362831858407 Q 360.7787610619469 261.6637168141593 373.23893805309734 268.46017699115043 L 373.23893805309734 268.46017699115043 L 373.23893805309734 268.46017699115043 Q 394.76106194690266 277.5221238938053 398.1592920353982 296.7787610619469 Q 397.0265486725664 316.0353982300885 377.7699115044248 317.16814159292034 Q 358.5132743362832 317.16814159292034 340.3893805309734 302.4424778761062 L 340.3893805309734 336.42477876106193 L 340.3893805309734 336.42477876106193 Q 373.23893805309734 354.5486725663717 401.5575221238938 344.353982300885 Q 431.0088495575221 334.1592920353982 434.4070796460177 297.91150442477874 Q 434.4070796460177 272.9911504424779 423.07964601769913 260.53097345132744 Q 410.6194690265487 248.07079646017698 397.0265486725664 241.27433628318585 Q 375.50442477876106 232.21238938053096 374.37168141592923 215.2212389380531 Q 375.50442477876106 198.23008849557522 393.62831858407077 197.09734513274336 Q 411.75221238938053 197.09734513274336 428.7433628318584 212.95575221238937 L 428.7433628318584 180.10619469026548 L 428.7433628318584 180.10619469026548 Q 401.5575221238938 161.98230088495575 370.9734513274336 172.1769911504425 Q 340.3893805309734 181.23893805309734 338.12389380530976 216.35398230088495 L 338.12389380530976 216.35398230088495 Z" />
</svg>