<svg xmlns="http://www.w3.org/2000/svg" viewBox="0 0 512 512">
  <path d="M 172.17699 18.123894 Q 164.24779 31.716814 167.64601 45.309734 L 167.64601 45.309734 L 167.64601 45.309734 Q 169.9115 60.035397 182.37169 69.09734 Q 207.29204 83.823006 240.14159 131.39822 Q 271.8584 180.1062 275.25662 256 Q 271.8584 331.8938 240.14159 380.60178 Q 207.29204 428.177 182.37169 442.90265 Q 169.9115 451.9646 167.64601 466.69028 Q 164.24779 480.28317 172.17699 493.8761 Q 181.23894 506.33627 195.9646 508.60178 Q 209.55753 512 223.15044 504.0708 Q 245.80531 489.34512 274.1239 455.36282 Q 303.57523 422.51328 325.09735 371.53983 Q 346.61948 321.69913 347.7522 256 Q 346.61948 190.30089 325.09735 140.46017 Q 303.57523 89.486725 274.1239 56.63717 Q 245.80531 22.654867 223.15044 7.9292035 Q 209.55753 0 195.9646 3.39823 Q 181.23894 5.663717 172.17699 18.123894 L 172.17699 18.123894 Z" />
</svg>