<svg xmlns="http://www.w3.org/2000/svg" viewBox="0 0 512 512">
  <path d="M 256 0 Q 184.7741935483871 1.032258064516129 126.96774193548387 35.096774193548384 L 126.96774193548387 35.096774193548384 L 126.96774193548387 35.096774193548384 Q 69.16129032258064 69.16129032258064 35.096774193548384 126.96774193548387 L 35.096774193548384 126.96774193548387 L 35.096774193548384 126.96774193548387 Q 1.032258064516129 183.74193548387098 0 256 Q 1.032258064516129 327.2258064516129 35.096774193548384 385.03225806451616 Q 69.16129032258064 442.83870967741933 126.96774193548387 476.9032258064516 Q 184.7741935483871 510.96774193548384 256 512 Q 327.2258064516129 510.96774193548384 385.03225806451616 476.9032258064516 Q 442.83870967741933 442.83870967741933 476.9032258064516 385.03225806451616 Q 510.96774193548384 328.258064516129 512 256 Q 510.96774193548384 184.7741935483871 476.9032258064516 126.96774193548387 Q 442.83870967741933 69.16129032258064 385.03225806451616 35.096774193548384 Q 328.258064516129 1.032258064516129 256 0 L 256 0 Z M 405.6774193548387 274.5806451612903 Q 404.64516129032256 316.9032258064516 391.2258064516129 341.6774193548387 Q 377.80645161290323 366.4516129032258 346.83870967741933 377.80645161290323 Q 314.83870967741933 389.16129032258067 258.06451612903226 388.1290322580645 L 253.93548387096774 388.1290322580645 L 253.93548387096774 388.1290322580645 Q 197.16129032258064 389.16129032258067 165.16129032258064 377.80645161290323 Q 134.19354838709677 366.4516129032258 120.7741935483871 341.6774193548387 Q 107.35483870967742 316.9032258064516 106.3225806451613 274.5806451612903 Q 105.29032258064517 259.0967741935484 106.3225806451613 242.58064516129033 Q 106.3225806451613 219.8709677419355 109.41935483870968 197.16129032258064 Q 112.51612903225806 177.5483870967742 115.61290322580645 164.1290322580645 Q 115.61290322580645 163.09677419354838 115.61290322580645 162.06451612903226 Q 116.64516129032258 157.93548387096774 117.6774193548387 155.8709677419355 Q 118.70967741935483 151.74193548387098 122.83870967741936 151.74193548387098 L 122.83870967741936 151.74193548387098 L 122.83870967741936 151.74193548387098 L 155.8709677419355 156.90322580645162 L 155.8709677419355 156.90322580645162 Q 160 157.93548387096774 160 162.06451612903226 Q 160 162.06451612903226 160 163.09677419354838 L 158.96774193548387 172.38709677419354 L 158.96774193548387 172.38709677419354 Q 155.8709677419355 185.80645161290323 153.80645161290323 206.4516129032258 Q 150.70967741935485 228.1290322580645 150.70967741935485 249.80645161290323 Q 150.70967741935485 292.1290322580645 158.96774193548387 311.741935483871 Q 169.29032258064515 332.38709677419354 192 337.5483870967742 Q 220.90322580645162 343.741935483871 250.83870967741936 343.741935483871 L 261.16129032258067 343.741935483871 L 261.16129032258067 343.741935483871 Q 291.0967741935484 343.741935483871 321.03225806451616 337.5483870967742 Q 342.7096774193548 332.38709677419354 353.03225806451616 311.741935483871 Q 361.2903225806452 292.1290322580645 361.2903225806452 249.80645161290323 Q 361.2903225806452 228.1290322580645 358.19354838709677 206.4516129032258 Q 356.1290322580645 185.80645161290323 353.03225806451616 172.38709677419354 L 352 163.09677419354838 L 352 163.09677419354838 Q 352 162.06451612903226 352 162.06451612903226 Q 352 157.93548387096774 356.1290322580645 156.90322580645162 L 389.16129032258067 151.74193548387098 L 389.16129032258067 151.74193548387098 L 390.19354838709677 151.74193548387098 L 390.19354838709677 151.74193548387098 Q 393.2903225806452 151.74193548387098 395.35483870967744 155.8709677419355 Q 395.35483870967744 157.93548387096774 396.38709677419354 161.03225806451613 Q 396.38709677419354 162.06451612903226 396.38709677419354 164.1290322580645 Q 399.48387096774195 178.58064516129033 402.5806451612903 197.16129032258064 Q 405.6774193548387 219.8709677419355 405.6774193548387 242.58064516129033 Q 406.7096774193548 259.0967741935484 405.6774193548387 274.5806451612903 L 405.6774193548387 274.5806451612903 Z" />
</svg>