<svg xmlns="http://www.w3.org/2000/svg" viewBox="0 0 512 512">
  <path d="M 82 172 L 0 172 L 82 172 L 0 172 L 0 347 L 0 347 L 133 347 L 133 347 L 133 96 L 133 96 L 82 96 L 82 96 L 82 172 L 82 172 Z M 82 306 L 51 306 L 82 306 L 51 306 L 51 213 L 51 213 L 82 213 L 82 213 L 82 306 L 82 306 Z M 379 172 L 379 347 L 379 172 L 379 347 L 461 347 L 461 347 L 461 375 L 461 375 L 379 375 L 379 375 L 379 416 L 379 416 L 512 416 L 512 416 L 512 172 L 512 172 L 379 172 L 379 172 Z M 461 306 L 430 306 L 461 306 L 430 306 L 430 213 L 430 213 L 461 213 L 461 213 L 461 306 L 461 306 Z M 225 347 L 307 347 L 225 347 L 307 347 L 307 375 L 307 375 L 225 375 L 225 375 L 225 416 L 225 416 L 358 416 L 358 416 L 358 172 L 358 172 L 225 172 L 225 172 L 225 347 L 225 347 Z M 276 213 L 307 213 L 276 213 L 307 213 L 307 306 L 307 306 L 276 306 L 276 306 L 276 213 L 276 213 Z M 153 96 L 205 96 L 153 96 L 205 96 L 205 147 L 205 147 L 153 147 L 153 147 L 153 96 L 153 96 Z M 153 172 L 205 172 L 153 172 L 205 172 L 205 347 L 205 347 L 153 347 L 153 347 L 153 172 L 153 172 Z" />
</svg>