<svg xmlns="http://www.w3.org/2000/svg" viewBox="0 0 512 512">
  <path d="M 424.705 242.2682 Q 443.341 212.84291 438.43677 203.03448 L 438.43677 203.03448 L 438.43677 203.03448 Q 433.53256 193.22606 413.9157 194.2069 L 387.43295 194.2069 L 387.43295 194.2069 Q 387.43295 194.2069 387.43295 194.2069 Q 388.4138 191.26437 376.64368 202.05363 Q 364.87357 205.977 351.14175 207.93869 Q 340.35248 208.91954 339.37164 210.88123 Q 339.37164 211.86208 351.14175 211.86208 Q 361.93103 211.86208 377.6245 210.88123 Q 392.33716 209.90039 405.08813 209.90039 Q 418.81992 209.90039 425.68582 210.88123 Q 430.59003 211.86208 429.6092 217.74713 Q 427.64752 223.63219 424.705 231.47893 Q 422.7433 237.36398 421.76245 242.2682 Q 421.76245 247.17241 424.705 242.2682 L 424.705 242.2682 Z M 314.8506 263.84674 Q 382.52875 243.24904 404.10727 241.28735 L 404.10727 241.28735 L 404.10727 241.28735 Q 412.93488 239.32567 414.89655 238.34483 Q 421.76245 232.45976 389.39462 232.45976 Q 349.18008 236.38315 298.17624 254.03831 Q 248.15326 271.69348 219.70882 285.4253 L 190.28352 194.2069 L 190.28352 194.2069 L 382.52875 194.2069 L 382.52875 194.2069 Q 378.60538 177.53256 308.9655 173.60919 Q 239.32567 170.66667 129.47127 171.6475 Q 92.199234 171.6475 51.00383 171.6475 L 0 412.93488 L 0 412.93488 Q 47.08046 389.39462 84.35249 370.7586 Q 178.51341 323.67816 228.53639 300.13794 Q 279.54022 276.5977 314.8506 263.84674 L 314.8506 263.84674 Z M 66.69732 99.06513 Q 131.43295 112.796936 180.4751 122.60536 L 180.4751 122.60536 L 180.4751 122.60536 Q 297.1954 147.12643 345.2567 158.89655 L 345.2567 158.89655 L 345.2567 158.89655 Q 392.33716 171.6475 392.33716 182.43678 Q 417.83908 182.43678 428.62836 183.41762 Q 439.41763 184.39847 443.341 189.30269 Q 453.1494 199.11111 449.22604 214.8046 Q 445.30267 230.49808 437.45593 242.2682 Q 429.6092 255.01915 429.6092 255.01915 Q 429.6092 255.01915 429.6092 256 Q 426.66666 256.98083 386.45212 272.67432 Q 346.23755 289.34866 287.38696 311.90805 Q 228.53639 335.44827 169.68582 358.00766 Q 110.83525 381.54788 71.60153 396.26053 Q 32.367817 411.954 30.40613 412.93488 L 445.30267 412.93488 L 445.30267 412.93488 L 512 99.06513 L 66.69732 99.06513 Z" />
</svg>