<svg xmlns="http://www.w3.org/2000/svg" viewBox="0 0 448 448">
    <path d="M 162 164 Q 165 160 171 160 L 171 160 Q 177 159 199 159 Q 218 159 224 159 Q 229 160 231 161 Q 239 165 239 175 Q 239 183 232 188 Q 230 189 225 190 Q 220 190 200 190 Q 174 190 169 189 Q 161 187 159 178 Q 157 170 162 164 L 162 164 Z M 224 259 Q 185 258 175 259 L 175 259 Q 165 260 164 263 Q 158 269 158 277 Q 160 285 168 289 Q 169 289 181 290 Q 193 290 224 290 L 272 289 L 281 288 Q 295 277 284 263 Q 284 263 284 263 Q 282 260 273 259 Q 263 258 224 259 L 224 259 Z M 447 389 Q 440 433 396 446 Q 394 447 384 447 Q 375 448 339 448 Q 303 448 223 448 Q 146 448 110 448 Q 74 448 63 447 Q 53 447 51 446 Q 39 443 29 436 Q 19 428 12 420 Q 5 410 2 398 Q 1 396 1 386 Q 0 377 0 341 Q 0 305 0 224 Q 0 144 0 108 Q 0 72 1 63 Q 1 53 2 51 Q 13 12 53 1 Q 58 1 108 0 Q 158 0 223 0 Q 288 0 338 0 Q 388 1 393 1 Q 425 8 441 38 Q 442 39 442 41 Q 445 44 446 54 Q 447 64 448 100 Q 448 136 448 218 Q 448 304 448 345 Q 448 385 447 389 L 447 389 Z M 362 203 Q 360 195 354 192 Q 351 191 339 190 Q 330 190 327 189 Q 323 189 321 187 Q 312 183 313 169 Q 313 138 288 112 Q 270 94 247 87 Q 245 86 236 86 Q 228 86 208 85 Q 177 85 164 86 Q 150 87 141 92 Q 99 109 87 154 Q 86 157 86 169 Q 85 182 85 218 Q 85 264 86 279 Q 86 295 89 303 Q 97 326 115 342 Q 133 357 154 361 Q 160 362 190 362 Q 220 363 250 363 Q 280 362 288 362 Q 317 358 338 336 Q 354 320 360 297 Q 362 291 362 269 Q 363 248 363 228 Q 362 207 362 203 L 362 203 Z"/>
</svg>
