<svg xmlns="http://www.w3.org/2000/svg" viewBox="0 0 512 512">
  <path d="M 254.50584 122.5214 Q 254.50584 123.51751 255.50195 123.51751 L 255.50195 123.51751 L 255.50195 123.51751 Q 256.49805 124.51362 257.49417 124.51362 Q 259.4864 124.51362 260.48248 123.51751 Q 259.4864 121.52529 257.49417 120.52918 Q 257.49417 120.52918 257.49417 120.52918 Q 254.50584 118.536964 251.51752 120.52918 Q 250.52141 120.52918 250.52141 121.52529 Q 251.51752 122.5214 252.51363 122.5214 Q 253.50974 122.5214 254.50584 122.5214 L 254.50584 122.5214 Z M 232.59145 124.51362 Q 233.58755 124.51362 234.58366 123.51751 L 234.58366 123.51751 L 234.58366 123.51751 Q 234.58366 123.51751 235.57977 122.5214 Q 236.57588 122.5214 236.57588 122.5214 Q 238.5681 122.5214 238.5681 121.52529 Q 239.56421 120.52918 238.5681 120.52918 Q 235.57977 118.536964 232.59145 120.52918 Q 232.59145 120.52918 232.59145 120.52918 Q 229.60312 121.52529 229.60312 123.51751 Q 230.59923 124.51362 232.59145 124.51362 L 232.59145 124.51362 Z M 452.7315 402.428 Q 447.75098 395.45526 445.75876 383.50195 L 445.75876 383.50195 L 445.75876 383.50195 Q 445.75876 382.50583 445.75876 382.50583 Q 443.76654 369.55643 434.80154 360.59143 Q 432.80933 358.5992 430.8171 357.60312 Q 428.8249 356.607 426.83267 355.6109 Q 438.78598 313.77432 422.84824 276.91827 Q 414.87936 254.00778 401.92996 235.08171 Q 388.98053 216.15564 377.02725 202.21011 Q 377.02725 202.21011 376.03113 201.214 Q 363.08173 186.27237 353.12064 169.33852 Q 344.15564 152.40466 344.15564 130.49026 Q 344.15564 128.49805 344.15564 125.50973 Q 345.15176 100.607 342.16342 71.71984 Q 338.179 42.832684 322.24124 21.914396 Q 306.3035 0.99610895 268.45135 0 Q 225.61868 0.99610895 208.68483 20.918287 Q 191.75098 40.840466 189.75876 66.739296 Q 187.76654 93.63424 189.75876 115.54864 Q 190.75487 127.501945 190.75487 134.4747 Q 189.75876 167.3463 167.84436 199.22179 Q 153.89883 216.15564 136.96498 241.05836 Q 120.03113 266.95718 110.07004 295.84436 Q 101.10506 322.7393 104.09338 348.63812 Q 99.11284 353.61868 94.13229 360.59143 Q 91.14397 365.572 88.15564 368.5603 Q 82.178986 373.54086 73.214005 375.53308 Q 72.217896 376.52917 71.22179 376.52917 Q 60.26459 379.51752 52.29572 391.47083 Q 49.307392 397.44748 49.307392 403.42413 Q 49.307392 409.4008 50.3035 415.37744 Q 51.29961 416.37354 51.29961 417.36966 Q 53.29183 428.32684 51.29961 436.29572 Q 43.330738 457.21402 49.307392 468.1712 Q 55.284046 478.1323 69.22957 480.1245 Q 77.19844 481.12064 87.15953 482.11673 Q 109.07393 484.10895 128 492.07782 Q 158.87938 508.01556 183.7821 503.03503 Q 201.71207 499.0506 209.68094 483.11285 Q 218.64592 482.11673 228.60701 480.1245 Q 240.56032 477.1362 257.49417 476.14008 Q 268.45135 476.14008 281.4008 478.1323 Q 295.3463 480.1245 313.27628 480.1245 Q 313.27628 484.10895 315.2685 487.0973 L 315.2685 487.0973 L 315.2685 487.0973 Q 329.21402 512 355.11285 510.00778 Q 381.0117 508.01556 403.92218 482.11673 Q 418.8638 466.179 439.7821 458.2101 Q 447.75098 454.22568 454.72372 450.24124 Q 466.67703 443.2685 467.67316 431.3152 Q 468.66925 420.35797 452.7315 402.428 L 452.7315 402.428 Z M 257.49417 86.661476 Q 265.46304 70.72373 279.40857 70.72373 L 279.40857 70.72373 L 279.40857 70.72373 Q 292.35797 70.72373 301.32297 86.661476 Q 309.29184 110.56809 296.3424 126.50584 Q 294.3502 125.50973 284.3891 121.52529 Q 284.3891 121.52529 285.38522 120.52918 Q 287.37744 119.53307 288.37354 117.540855 Q 291.36188 107.579765 288.37354 99.61089 Q 285.38522 90.64591 279.40857 90.64591 Q 273.43192 89.6498 269.44748 96.62257 Q 265.46304 103.59533 267.45526 113.55642 Q 260.48248 109.57198 254.50584 108.575874 Q 252.51363 97.618675 257.49417 86.661476 L 257.49417 86.661476 Z M 216.6537 75.70428 Q 224.62257 75.70428 230.59923 84.66926 L 230.59923 84.66926 L 230.59923 84.66926 Q 236.57588 94.63035 235.57977 108.575874 Q 230.59923 110.56809 225.61868 113.55642 Q 226.61479 106.58366 223.62646 100.607 Q 220.63814 93.63424 215.6576 93.63424 Q 209.68094 95.62646 208.68483 105.58755 Q 208.68483 115.54864 214.66148 121.52529 Q 214.66148 122.5214 214.66148 122.5214 Q 216.6537 121.52529 208.68483 127.501945 Q 196.73152 114.55253 199.71985 95.62646 Q 202.70818 77.696495 216.6537 75.70428 L 216.6537 75.70428 Z M 202.70818 136.46692 Q 205.6965 133.47859 208.68483 131.48637 L 208.68483 131.48637 L 208.68483 131.48637 Q 215.6576 126.50584 217.64981 125.50973 Q 217.64981 124.51362 218.64592 124.51362 Q 225.61868 114.55253 244.54475 111.5642 Q 255.50195 110.56809 270.44357 120.52918 Q 275.42413 123.51751 281.4008 125.50973 Q 286.38132 126.50584 293.3541 129.49416 Q 307.29962 134.4747 303.3152 147.42412 Q 299.33075 159.37743 281.4008 165.35408 Q 275.42413 167.3463 270.44357 171.33073 Q 260.48248 180.29572 243.54865 180.29572 Q 237.57199 180.29572 233.58755 178.3035 Q 227.6109 175.31517 222.63036 170.33463 Q 218.64592 166.35019 213.66537 163.36186 Q 200.71596 156.3891 198.72374 148.42023 Q 196.73152 140.45135 202.70818 135.47081 L 202.70818 136.46692 Z M 206.69261 469.16733 Q 202.70818 494.07004 179.79767 497.05838 L 179.79767 497.05838 L 179.79767 497.05838 Q 155.89105 499.0506 130.98833 487.0973 Q 109.07393 476.14008 87.15953 476.14008 Q 62.25681 475.14398 55.284046 465.1829 Q 51.29961 458.2101 57.276264 438.28793 L 57.276264 438.28793 L 57.276264 438.28793 Q 60.26459 428.32684 57.276264 417.36966 Q 57.276264 415.37744 57.276264 414.38132 Q 54.287937 402.428 58.272373 394.45914 Q 63.25292 385.49417 73.214005 383.50195 Q 75.20622 382.50583 77.19844 381.50974 Q 85.16731 379.51752 92.140076 373.54086 Q 96.12451 368.5603 100.10895 363.57977 Q 103.097275 359.59534 107.08171 355.6109 Q 113.058365 346.6459 124.015564 348.63812 Q 135.96887 350.63034 145.92996 364.57587 L 165.85214 400.4358 L 165.85214 400.4358 Q 171.8288 411.393 182.786 424.3424 Q 192.74709 436.29572 199.71985 447.25293 Q 206.69261 459.20624 206.69261 469.16733 L 206.69261 469.16733 Z M 204.7004 443.2685 Q 198.72374 432.31128 190.75487 423.3463 Q 202.70818 424.3424 207.68872 414.38132 Q 210.67705 404.42023 199.71985 389.4786 Q 188.76265 375.53308 175.81323 366.56808 Q 162.86382 357.60312 161.8677 357.60312 Q 161.8677 357.60312 161.8677 357.60312 Q 141.94553 344.6537 136.96498 327.71985 Q 132.98055 310.78598 136.96498 292.85602 Q 140.94942 274.92606 148.91829 259.98444 Q 156.88716 244.04669 163.85992 233.0895 Q 168.84047 229.10506 155.89105 254.00778 Q 147.92218 266.95718 142.94164 290.8638 Q 137.96109 313.77432 152.90273 336.6848 Q 153.89883 304.80933 166.84825 274.92606 Q 169.83658 267.9533 173.82101 258.9883 Q 183.7821 238.07004 193.7432 212.1712 Q 203.70428 186.27237 205.6965 162.36575 Q 208.68483 164.35797 211.67316 167.3463 Q 215.6576 169.33852 219.64203 173.32295 Q 221.63425 175.31517 224.62257 177.30739 Q 244.54475 191.25291 266.45914 178.3035 Q 269.44748 176.31128 272.4358 174.31906 Q 278.41245 171.33073 282.39688 169.33852 Q 297.33853 164.35797 304.31128 154.39688 Q 311.28406 178.3035 322.24124 205.19844 Q 332.20233 233.0895 342.16342 250.02335 Q 347.14398 257.99222 354.11673 274.92606 Q 361.0895 291.85992 365.07394 313.77432 Q 370.05447 313.77432 376.03113 315.76654 Q 384.9961 287.8755 374.0389 263.96887 Q 363.08173 240.06226 353.12064 231.09727 Q 346.14786 224.12451 350.1323 224.12451 Q 360.09338 233.0895 370.05447 249.02724 Q 380.01556 263.96887 384.9961 282.89493 Q 389.97665 300.8249 385.99222 318.75485 Q 398.94162 323.7354 408.9027 332.70038 Q 419.85992 340.66925 416.87158 353.61868 Q 413.88327 353.61868 412.88715 353.61868 Q 412.88715 353.61868 411.89105 353.61868 Q 416.87158 339.67316 389.97665 327.71985 Q 374.0389 320.74707 364.07782 322.7393 Q 353.12064 324.7315 351.12842 339.67316 Q 334.19455 347.64203 330.2101 367.5642 Q 326.22568 383.50195 325.22958 406.41245 Q 324.23346 418.36575 319.25293 434.3035 Q 319.25293 435.29962 319.25293 435.29962 Q 294.3502 453.22958 264.46692 457.21402 Q 233.58755 461.19846 204.7004 443.2685 L 204.7004 443.2685 Z M 461.6965 431.3152 Q 458.70816 443.2685 437.7899 451.23737 L 437.7899 451.23737 L 437.7899 451.23737 Q 416.87158 459.20624 398.94162 478.1323 Q 377.02725 501.04282 355.11285 503.03503 Q 333.19846 505.02725 321.24515 484.10895 Q 316.2646 467.1751 322.24124 448.24902 Q 324.23346 441.27628 326.22568 435.29962 Q 331.20624 420.35797 332.20233 407.40857 Q 333.19846 384.49805 336.18677 368.5603 Q 340.1712 353.61868 350.1323 347.64203 Q 351.12842 347.64203 351.12842 347.64203 Q 352.1245 369.55643 370.05447 376.52917 Q 380.01556 378.5214 390.97275 372.54474 Q 401.92996 367.5642 407.90662 360.59143 Q 408.9027 360.59143 409.89883 360.59143 Q 421.85214 358.5992 430.8171 365.572 Q 437.7899 372.54474 439.7821 385.49417 Q 440.7782 397.44748 447.75098 407.40857 Q 462.6926 424.3424 461.6965 431.3152 L 461.6965 431.3152 Z M 206.69261 148.42023 Q 206.69261 148.42023 207.68872 148.42023 L 207.68872 148.42023 L 207.68872 148.42023 Q 210.67705 151.40855 214.66148 155.39299 Q 224.62257 164.35797 242.55254 165.35408 Q 259.4864 164.35797 273.43192 155.39299 Q 273.43192 155.39299 273.43192 155.39299 Q 282.39688 150.41245 288.37354 144.43579 Q 295.3463 139.45525 291.36188 138.45914 Q 289.36966 138.45914 288.37354 140.45135 Q 287.37744 141.44746 285.38522 143.43968 Q 284.3891 144.43579 282.39688 145.4319 Q 276.42023 150.41245 271.4397 153.40077 Q 259.4864 161.36964 242.55254 163.36186 Q 226.61479 162.36575 217.64981 153.40077 Q 212.66927 149.41634 209.68094 146.42801 Q 209.68094 146.42801 209.68094 146.42801 Q 208.68483 145.4319 208.68483 144.43579 Q 207.68872 142.44357 205.6965 141.44746 Q 202.70818 142.44357 206.69261 148.42023 L 206.69261 148.42023 Z" />
</svg>