<svg xmlns="http://www.w3.org/2000/svg" viewBox="0 0 512 512">
  <path d="M 88.8 256 L 93.6 308 L 88.8 256 L 93.6 308 L 88.8 363.2 L 88.8 363.2 Q 88.8 366.4 85.6 366.4 Q 82.4 366.4 82.4 363.2 L 77.6 308 L 77.6 308 L 82.4 256 L 82.4 256 Q 82.4 253.6 85.6 252.8 Q 88.8 253.6 88.8 256 L 88.8 256 Z M 106.4 220 Q 102.4 220 102.4 224 L 98.4 308 L 98.4 308 L 102.4 363.2 L 102.4 363.2 Q 102.4 366.4 106.4 367.2 Q 109.6 366.4 110.4 363.2 L 114.4 308 L 114.4 308 L 110.4 224 L 110.4 224 Q 109.6 220 106.4 220 L 106.4 220 Z M 126.4 200.8 Q 122.4 200.8 122.4 204.8 L 118.4 308.8 L 118.4 308.8 L 122.4 363.2 L 122.4 363.2 Q 122.4 367.2 126.4 367.2 Q 130.4 367.2 131.2 363.2 L 135.2 308.8 L 135.2 308.8 L 131.2 204.8 L 131.2 204.8 Q 130.4 200.8 126.4 200.8 L 126.4 200.8 Z M 5.6 277.6 Q 4 277.6 4 280 L 0 308 L 0 308 L 4 336 L 4 336 Q 4 338.4 5.6 338.4 Q 7.2 338.4 8 336 L 12 308 L 12 308 L 8 280 L 8 280 Q 7.2 277.6 5.6 277.6 L 5.6 277.6 Z M 24.8 260 Q 23.2 260.8 22.4 262.4 L 17.6 308 L 17.6 308 L 22.4 352.8 L 22.4 352.8 Q 23.2 355.2 24.8 355.2 Q 26.4 355.2 27.2 353.6 L 32.8 308 L 32.8 308 L 27.2 262.4 L 27.2 262.4 Q 26.4 260.8 24.8 260 L 24.8 260 Z M 44.8 251.2 Q 42.4 251.2 42.4 253.6 L 37.6 308 L 37.6 308 L 42.4 360.8 L 42.4 360.8 Q 42.4 363.2 44.8 363.2 Q 47.2 363.2 47.2 360.8 L 52.8 308 L 52.8 308 L 47.2 253.6 L 47.2 253.6 Q 47.2 251.2 44.8 251.2 L 44.8 251.2 Z M 64.8 249.6 Q 62.4 249.6 62.4 252 L 57.6 308 L 57.6 308 L 62.4 362.4 L 62.4 362.4 Q 62.4 365.6 64.8 365.6 Q 68 365.6 68 362.4 L 73.6 308 L 73.6 308 L 68 252 L 68 252 Q 68 249.6 64.8 249.6 L 64.8 249.6 Z M 258.4 160.8 Q 256.8 160 255.2 159.2 Q 252 160 250.4 160.8 Q 248 163.2 248 166.4 L 248 167.2 L 248 167.2 L 244.8 308.8 L 244.8 308.8 L 246.4 334.4 L 246.4 334.4 L 248 360 L 248 360 Q 248.8 366.4 255.2 366.4 Q 261.6 366.4 261.6 360 L 264.8 308.8 L 264.8 308.8 L 261.6 166.4 L 261.6 166.4 Q 261.6 162.4 258.4 160.8 L 258.4 160.8 Z M 236.8 172.8 Q 235.2 172 233.6 172 Q 231.2 172 229.6 172.8 Q 227.2 174.4 227.2 178.4 L 226.4 180 L 226.4 180 L 224.8 308 L 224.8 308 Q 224.8 306.4 224.8 315.2 Q 224.8 323.2 227.2 360.8 L 227.2 360.8 L 227.2 360.8 Q 227.2 363.2 228 364.8 Q 230.4 367.2 233.6 367.2 Q 236 367.2 237.6 365.6 Q 240 363.2 240 360.8 L 240 355.2 L 240 355.2 L 242.4 308.8 L 242.4 308.8 L 240 178.4 L 240 178.4 Q 239.2 174.4 236.8 172.8 L 236.8 172.8 Z M 148 191.2 Q 143.2 191.2 143.2 196 L 139.2 308 L 139.2 308 L 143.2 362.4 L 143.2 362.4 Q 144 366.4 148 366.4 Q 152 366.4 152.8 362.4 L 156.8 308 L 156.8 308 L 152.8 196 L 152.8 196 Q 152 191.2 148 191.2 L 148 191.2 Z M 448.8 240.8 Q 436 241.6 424.8 246.4 Q 420 202.4 388.8 174.4 Q 358.4 145.6 314.4 144.8 Q 292 144.8 273.6 152.8 Q 267.2 154.4 267.2 160 L 267.2 359.2 L 267.2 359.2 Q 268 365.6 274.4 367.2 L 448.8 367.2 L 448.8 367.2 Q 476 366.4 493.6 348.8 Q 511.2 331.2 512 304 Q 511.2 277.6 493.6 260 Q 476 241.6 448.8 240.8 L 448.8 240.8 Z M 212 192.8 Q 206.4 193.6 205.6 199.2 L 203.2 308.8 L 203.2 308.8 L 205.6 360.8 L 205.6 360.8 Q 206.4 366.4 212 367.2 Q 217.6 366.4 217.6 360.8 L 220.8 308.8 L 220.8 308.8 L 217.6 199.2 L 217.6 199.2 Q 216.8 193.6 212 192.8 L 212 192.8 Z M 168.8 186.4 Q 164 187.2 164 192 L 160.8 308 L 160.8 308 L 164 361.6 L 164 361.6 Q 164.8 366.4 168.8 367.2 Q 173.6 366.4 174.4 361.6 L 177.6 308 L 177.6 308 L 174.4 192 L 174.4 192 Q 173.6 187.2 168.8 186.4 L 168.8 186.4 Z M 190.4 189.6 Q 184.8 189.6 184.8 195.2 L 181.6 308 L 181.6 308 L 184.8 361.6 L 184.8 361.6 Q 185.6 366.4 190.4 367.2 Q 195.2 366.4 196 361.6 L 199.2 308 L 199.2 308 L 196 195.2 L 196 195.2 Q 195.2 189.6 190.4 189.6 L 190.4 189.6 Z" />
</svg>