<svg xmlns="http://www.w3.org/2000/svg" viewBox="0 0 464 464">
    <path d="M 221 98 L 153 127 L 153 11 L 99 202 L 153 177 L 153 308 L 221 98 L 221 98 Z M 137 2 L 136 6 L 121 59 Q 90 71 71 98 Q 53 125 52 160 Q 53 200 75 228 Q 98 257 135 265 L 135 319 Q 76 309 38 265 Q 1 222 0 160 Q 1 98 40 54 Q 78 11 137 2 L 137 2 Z M 449 449 Q 430 464 420 459 Q 415 457 393 440 Q 379 429 360 415 Q 339 400 332 389 Q 325 379 321 367 Q 319 363 317 358 Q 310 342 295 328 Q 280 314 259 306 L 250 291 Q 212 317 168 320 L 170 313 L 186 264 Q 222 254 244 226 Q 267 198 267 160 Q 267 118 241 87 Q 215 57 171 52 L 171 0 Q 235 6 277 50 Q 319 94 320 160 Q 319 211 291 250 L 306 260 Q 313 280 328 295 Q 342 310 358 317 Q 363 319 367 321 Q 378 325 389 332 Q 400 340 415 360 Q 429 379 440 393 Q 457 415 459 420 Q 464 430 449 449 L 449 449 Z M 439 431 Q 438 424 431 423 Q 424 424 423 431 Q 424 438 431 439 Q 438 438 439 431 L 439 431 Z"/>
</svg>
