<svg xmlns="http://www.w3.org/2000/svg" viewBox="0 0 512 512">
  <path d="M 512 17.066668 L 443.73334 409.6 L 512 17.066668 L 443.73334 409.6 L 205.86667 494.93332 L 205.86667 494.93332 L 0 409.6 L 0 409.6 L 21.333334 308.26666 L 21.333334 308.26666 L 108.8 308.26666 L 108.8 308.26666 L 100.26667 352 L 100.26667 352 L 224 398.93332 L 224 398.93332 L 366.93332 352 L 366.93332 352 L 387.2 248.53334 L 387.2 248.53334 L 32 248.53334 L 32 248.53334 L 49.066666 161.06667 L 49.066666 161.06667 L 404.26666 161.06667 L 404.26666 161.06667 L 416 104.53333 L 416 104.53333 L 59.733334 104.53333 L 59.733334 104.53333 L 77.86667 17.066668 L 77.86667 17.066668 L 512 17.066668 L 512 17.066668 Z" />
</svg>