<svg xmlns="http://www.w3.org/2000/svg" viewBox="0 0 576 448">
    <path d="M 240 48 Q 165 50 115 99 L 115 99 Q 66 149 64 224 Q 66 298 115 348 Q 165 398 240 400 Q 314 398 364 348 Q 414 298 416 224 Q 414 149 364 99 Q 314 50 240 48 L 240 48 Z M 200 328 Q 168 315 148 287 L 148 287 Q 129 260 128 224 Q 129 188 148 160 Q 168 132 200 120 L 200 328 L 200 328 Z M 280 328 L 280 120 Q 311 132 331 160 Q 350 188 351 224 Q 350 260 331 287 Q 311 315 280 328 L 280 328 Z M 528 0 L 48 0 Q 28 1 14 14 Q 1 28 0 48 L 0 400 Q 1 420 14 434 Q 28 447 48 448 L 528 448 Q 548 447 562 434 Q 575 420 576 400 L 576 48 Q 575 28 562 14 Q 548 1 528 0 L 528 0 Z M 330 416 L 239 416 Q 158 414 103 360 Q 48 306 46 226 Q 48 138 103 86 Q 158 33 239 32 L 330 32 Q 411 33 469 86 Q 528 138 530 226 Q 530 279 502 322 Q 474 365 428 390 Q 383 415 330 416 L 330 416 Z"/>
</svg>
