<svg xmlns="http://www.w3.org/2000/svg" viewBox="0 0 512 513">
    <path d="M 120 38 Q 183 0 255 1 Q 339 2 396 37 Q 454 71 483 121 Q 512 171 512 221 Q 511 271 476 308 Q 440 343 389 345 Q 334 344 315 332 Q 297 321 298 313 Q 298 308 303 303 L 304 302 L 304 301 Q 320 283 320 259 Q 318 198 266 158 Q 214 118 136 116 Q 79 116 28 143 Q 51 100 81 72 Q 111 45 120 39 Q 120 39 120 39 Q 121 38 120 38 Q 120 38 120 38 L 120 38 L 120 38 Z M 136 357 Q 134 402 152 444 Q 173 484 209 513 Q 118 494 59 424 Q 1 352 0 259 Q 2 219 40 193 Q 79 166 136 165 Q 192 164 238 197 L 234 198 Q 194 214 166 259 Q 137 304 136 357 L 136 357 L 136 357 Z M 470 401 L 469 401 Q 451 429 427 451 Q 380 493 318 501 Q 290 501 264 489 Q 225 472 203 436 Q 181 399 184 357 Q 184 326 199 298 Q 220 349 266 379 Q 313 409 368 408 Q 415 408 458 387 L 460 386 Q 466 382 471 386 Q 476 393 470 400 Q 470 400 470 400 Q 470 401 470 401 Q 470 401 470 401 L 470 401 L 470 401 Z"/>
</svg>
