<svg xmlns="http://www.w3.org/2000/svg" viewBox="0 0 512 512">
  <path d="M 391 103 L 353 103 L 391 103 L 353 103 L 353 213 L 353 213 L 391 213 L 391 103 Z M 285 103 L 246 103 L 285 103 L 246 103 L 246 213 L 246 213 L 285 213 L 285 103 Z M 121 0 L 24 91 L 121 0 L 24 91 L 24 421 L 24 421 L 140 421 L 140 421 L 140 512 L 140 512 L 237 421 L 237 421 L 314 421 L 314 421 L 488 256 L 488 256 L 488 0 L 121 0 Z M 449 238 L 372 311 L 449 238 L 372 311 L 295 311 L 295 311 L 227 375 L 227 375 L 227 311 L 227 311 L 140 311 L 140 311 L 140 37 L 140 37 L 449 37 L 449 238 Z" />
</svg>