<svg xmlns="http://www.w3.org/2000/svg" viewBox="0 0 512 512">
  <path d="M 369.14285714285717 318.85714285714283 L 145.14285714285714 272 L 369.14285714285717 318.85714285714283 L 145.14285714285714 272 L 136 316.57142857142856 L 136 316.57142857142856 L 360 363.42857142857144 L 369.14285714285717 318.85714285714283 Z M 427.42857142857144 219.42857142857142 L 251.42857142857142 73.14285714285714 L 427.42857142857144 219.42857142857142 L 251.42857142857142 73.14285714285714 L 222.85714285714286 108.57142857142857 L 222.85714285714286 108.57142857142857 L 397.7142857142857 254.85714285714286 L 427.42857142857144 219.42857142857142 Z M 392 265.14285714285717 L 184 168 L 392 265.14285714285717 L 184 168 L 165.71428571428572 210.28571428571428 L 165.71428571428572 210.28571428571428 L 372.57142857142856 306.2857142857143 L 392 265.14285714285717 Z M 336 0 L 299.42857142857144 27.428571428571427 L 336 0 L 299.42857142857144 27.428571428571427 L 435.42857142857144 210.28571428571428 L 435.42857142857144 210.28571428571428 L 472 182.85714285714286 L 336 0 Z M 360 374.85714285714283 L 131.42857142857142 374.85714285714283 L 360 374.85714285714283 L 131.42857142857142 374.85714285714283 L 131.42857142857142 420.57142857142856 L 131.42857142857142 420.57142857142856 L 360 420.57142857142856 L 360 374.85714285714283 Z M 404.57142857142856 466.2857142857143 L 85.71428571428571 466.2857142857143 L 404.57142857142856 466.2857142857143 L 85.71428571428571 466.2857142857143 L 85.71428571428571 329.14285714285717 L 85.71428571428571 329.14285714285717 L 40 329.14285714285717 L 40 329.14285714285717 L 40 512 L 40 512 L 450.2857142857143 512 L 450.2857142857143 512 L 450.2857142857143 329.14285714285717 L 450.2857142857143 329.14285714285717 L 404.57142857142856 329.14285714285717 L 404.57142857142856 466.2857142857143 Z" />
</svg>