<svg xmlns="http://www.w3.org/2000/svg" viewBox="0 0 512 512">
  <path d="M 35.09034267912772 226.49221183800623 Q 47.850467289719624 226.49221183800623 53.43302180685358 228.8847352024922 L 53.43302180685358 228.8847352024922 L 53.43302180685358 228.8847352024922 Q 59.81308411214953 231.2772585669782 62.205607476635514 238.45482866043614 L 62.205607476635514 238.45482866043614 L 62.205607476635514 238.45482866043614 L 62.205607476635514 220.11214953271028 L 62.205607476635514 220.11214953271028 Q 63.00311526479751 207.35202492211837 48.64797507788162 207.35202492211837 Q 35.88785046728972 206.55451713395638 35.88785046728972 217.7196261682243 L 5.582554517133956 217.7196261682243 L 5.582554517133956 217.7196261682243 Q 5.582554517133956 203.3644859813084 10.367601246105918 198.57943925233644 Q 16.747663551401867 188.21183800623052 47.05295950155763 189.00934579439252 Q 83.73831775700934 188.21183800623052 90.11838006230529 204.1619937694704 Q 92.51090342679127 211.33956386292834 93.30841121495327 223.30218068535825 L 93.30841121495327 283.91277258566976 L 93.30841121495327 283.91277258566976 L 62.205607476635514 283.91277258566976 L 62.205607476635514 283.91277258566976 L 63.8006230529595 268.7601246105919 L 63.8006230529595 268.7601246105919 L 63.00311526479751 268.7601246105919 L 63.00311526479751 268.7601246105919 Q 58.218068535825545 286.30529595015577 34.29283489096573 284.7102803738318 Q 0 286.30529595015577 1.5950155763239875 255.202492211838 Q 0.7975077881619937 225.69470404984423 35.09034267912772 226.49221183800623 L 35.09034267912772 226.49221183800623 Z M 48.64797507788162 264.7725856697819 Q 63.00311526479751 265.5700934579439 62.205607476635514 254.404984423676 Q 63.8006230529595 244.0373831775701 47.05295950155763 244.8348909657321 Q 31.90031152647975 244.0373831775701 32.69781931464174 254.404984423676 Q 30.305295950155763 266.3676012461059 48.64797507788162 264.7725856697819 L 48.64797507788162 264.7725856697819 Z M 110.85358255451713 189.00934579439252 L 141.15887850467288 189.00934579439252 L 110.85358255451713 189.00934579439252 L 141.15887850467288 189.00934579439252 L 140.3613707165109 205.7570093457944 L 140.3613707165109 205.7570093457944 L 141.15887850467288 205.7570093457944 L 141.15887850467288 205.7570093457944 Q 145.94392523364485 195.38940809968847 152.3239875389408 192.1993769470405 Q 157.90654205607476 189.00934579439252 170.66666666666666 189.00934579439252 Q 188.21183800623052 189.00934579439252 196.18691588785046 196.18691588785046 Q 201.76947040498442 200.97196261682242 204.1619937694704 209.74454828660436 Q 206.55451713395638 218.5171339563863 205.7570093457944 234.46728971962617 Q 205.7570093457944 252.01246105919003 204.1619937694704 261.58255451713393 Q 201.76947040498442 271.15264797507785 196.18691588785046 276.73520249221184 Q 189.00934579439252 285.50778816199374 169.86915887850466 284.7102803738318 Q 146.74143302180684 285.50778816199374 142.75389408099687 267.9626168224299 L 141.95638629283488 267.9626168224299 L 141.95638629283488 267.9626168224299 L 141.95638629283488 323.78816199376945 L 141.95638629283488 323.78816199376945 L 110.85358255451713 323.78816199376945 L 110.85358255451713 323.78816199376945 L 110.85358255451713 189.00934579439252 L 110.85358255451713 189.00934579439252 Z M 175.45171339563862 237.65732087227414 Q 175.45171339563862 221.70716510903426 172.26168224299064 216.1246105919003 L 172.26168224299064 216.1246105919003 L 172.26168224299064 216.1246105919003 Q 169.07165109034267 211.33956386292834 158.70404984423675 212.13707165109034 Q 149.13395638629282 211.33956386292834 145.94392523364485 216.1246105919003 Q 141.95638629283488 220.90965732087227 142.75389408099687 234.46728971962617 Q 141.95638629283488 251.21495327102804 145.14641744548285 256 Q 149.13395638629282 261.58255451713393 159.50155763239874 261.58255451713393 Q 169.07165109034267 261.58255451713393 172.26168224299064 256.79750778816197 Q 175.45171339563862 252.01246105919003 175.45171339563862 237.65732087227414 L 175.45171339563862 237.65732087227414 Z M 221.70716510903426 189.00934579439252 L 252.01246105919003 189.00934579439252 L 221.70716510903426 189.00934579439252 L 252.01246105919003 189.00934579439252 L 251.21495327102804 205.7570093457944 L 251.21495327102804 205.7570093457944 L 251.21495327102804 205.7570093457944 L 251.21495327102804 205.7570093457944 Q 256.79750778816197 195.38940809968847 262.38006230529595 192.1993769470405 Q 268.7601246105919 189.00934579439252 281.5202492211838 189.00934579439252 Q 298.26791277258565 189.00934579439252 306.2429906542056 196.18691588785046 Q 312.62305295950154 200.97196261682242 314.2180685358255 209.74454828660436 Q 316.61059190031153 218.5171339563863 316.61059190031153 234.46728971962617 Q 316.61059190031153 252.01246105919003 315.01557632398755 261.58255451713393 Q 312.62305295950154 271.15264797507785 307.0404984423676 276.73520249221184 Q 299.86292834890963 285.50778816199374 280.7227414330218 284.7102803738318 Q 257.595015576324 285.50778816199374 253.60747663551402 267.9626168224299 L 252.80996884735202 267.9626168224299 L 252.80996884735202 267.9626168224299 L 252.80996884735202 323.78816199376945 L 252.80996884735202 323.78816199376945 L 221.70716510903426 323.78816199376945 L 221.70716510903426 323.78816199376945 L 221.70716510903426 189.00934579439252 L 221.70716510903426 189.00934579439252 Z M 286.30529595015577 237.65732087227414 Q 286.30529595015577 221.70716510903426 283.1152647975078 216.1246105919003 L 283.1152647975078 216.1246105919003 L 283.1152647975078 216.1246105919003 Q 279.9252336448598 211.33956386292834 269.55763239875387 212.13707165109034 Q 259.98753894080994 211.33956386292834 256 216.1246105919003 Q 252.80996884735202 220.90965732087227 252.80996884735202 234.46728971962617 Q 252.80996884735202 251.21495327102804 256 256 Q 259.98753894080994 261.58255451713393 269.55763239875387 261.58255451713393 Q 279.9252336448598 261.58255451713393 283.1152647975078 256.79750778816197 Q 286.30529595015577 252.01246105919003 286.30529595015577 237.65732087227414 L 286.30529595015577 237.65732087227414 Z M 328.5732087227414 234.46728971962617 Q 328.5732087227414 205.7570093457944 338.94080996884736 197.78193146417445 Q 348.5109034267913 189.00934579439252 374.82866043613706 189.00934579439252 Q 399.5514018691589 189.00934579439252 409.9190031152648 198.57943925233644 Q 419.4890965732087 208.14953271028037 419.4890965732087 233.66978193146417 L 419.4890965732087 242.4423676012461 L 419.4890965732087 242.4423676012461 L 358.8785046728972 242.4423676012461 L 358.8785046728972 242.4423676012461 Q 358.8785046728972 244.8348909657321 358.8785046728972 246.42990654205607 Q 358.8785046728972 246.42990654205607 358.8785046728972 246.42990654205607 Q 357.2834890965732 264.7725856697819 374.82866043613706 263.97507788161994 Q 389.98130841121497 264.7725856697819 389.18380062305295 252.80996884735202 L 419.4890965732087 252.80996884735202 L 419.4890965732087 252.80996884735202 L 419.4890965732087 254.404984423676 L 419.4890965732087 254.404984423676 Q 418.69158878504675 266.3676012461059 413.9065420560748 274.34267912772583 Q 406.7289719626168 285.50778816199374 378.01869158878503 284.7102803738318 Q 346.9158878504673 285.50778816199374 338.14330218068534 275.14018691588785 Q 328.5732087227414 267.1651090342679 329.37071651090343 234.46728971962617 L 328.5732087227414 234.46728971962617 Z M 389.98130841121497 225.69470404984423 Q 389.98130841121497 223.30218068535825 389.98130841121497 222.50467289719626 Q 391.57632398753896 208.94704049844236 374.0311526479751 210.54205607476635 Q 358.8785046728972 209.74454828660436 359.6760124610592 222.50467289719626 L 359.6760124610592 225.69470404984423 L 359.6760124610592 225.69470404984423 L 389.98130841121497 225.69470404984423 L 389.98130841121497 225.69470404984423 Z M 433.8442367601246 189.00934579439252 L 464.9470404984424 189.00934579439252 L 433.8442367601246 189.00934579439252 L 464.9470404984424 189.00934579439252 L 463.3520249221184 204.9595015576324 L 463.3520249221184 204.9595015576324 L 464.14953271028037 204.9595015576324 L 464.14953271028037 204.9595015576324 Q 470.5295950155763 188.21183800623052 487.2772585669782 189.00934579439252 Q 500.8348909657321 189.00934579439252 506.41744548286607 196.18691588785046 Q 512 202.5669781931464 512 223.30218068535825 Q 512 225.69470404984423 512 231.2772585669782 L 484.08722741433024 231.2772585669782 L 484.08722741433024 231.2772585669782 Q 484.08722741433024 228.8847352024922 484.08722741433024 228.08722741433021 Q 484.08722741433024 228.08722741433021 484.08722741433024 228.08722741433021 Q 484.8847352024922 210.54205607476635 476.1121495327103 212.13707165109034 Q 468.13707165109037 212.13707165109034 465.74454828660436 220.11214953271028 Q 464.14953271028037 221.70716510903426 464.9470404984424 229.6822429906542 L 464.9470404984424 283.91277258566976 L 464.9470404984424 283.91277258566976 L 433.8442367601246 283.91277258566976 L 433.8442367601246 283.91277258566976 L 433.8442367601246 189.00934579439252 L 433.8442367601246 189.00934579439252 Z" />
</svg>