<svg xmlns="http://www.w3.org/2000/svg" viewBox="0 0 512 512">
  <path d="M 96.19875776397515 178.48447204968943 Q 86.6583850931677 189.61490683229815 70.75776397515529 189.61490683229815 Q 70.75776397515529 174.50931677018633 80.29813664596273 164.17391304347825 Q 90.63354037267081 152.24844720496895 104.94409937888199 151.45341614906832 Q 105.73913043478261 166.55900621118013 96.19875776397515 177.68944099378882 L 96.19875776397515 178.48447204968943 Z M 104.94409937888199 192 Q 92.22360248447205 192 82.6832298136646 196.77018633540374 L 82.6832298136646 196.77018633540374 L 82.6832298136646 196.77018633540374 Q 76.32298136645963 199.1552795031056 72.34782608695652 199.9503105590062 Q 68.37267080745342 199.1552795031056 62.01242236024845 196.77018633540374 Q 54.06211180124224 192.7950310559006 45.316770186335404 192 Q 22.26086956521739 193.59006211180125 10.335403726708075 213.46583850931677 Q 0 233.3416149068323 4.770186335403727 257.1925465838509 Q 9.540372670807454 281.04347826086956 20.67080745341615 297.7391304347826 Q 26.236024844720497 306.48447204968943 32.59627329192546 312.8447204968944 Q 38.95652173913044 319.2049689440994 47.701863354037265 319.2049689440994 Q 54.857142857142854 318.4099378881988 59.62732919254658 316.0248447204969 Q 65.19254658385093 312.8447204968944 74.73291925465838 312.0496894409938 Q 84.27329192546584 312.8447204968944 89.83850931677019 316.0248447204969 Q 94.6086956521739 319.2049689440994 102.55900621118012 319.2049689440994 Q 111.30434782608695 318.4099378881988 116.8695652173913 312.8447204968944 Q 123.22981366459628 306.48447204968943 128.7950310559006 298.53416149068323 Q 134.36024844720498 288.99378881987576 136.74534161490683 282.6335403726708 Q 139.92546583850933 275.4782608695652 139.92546583850933 274.6832298136646 Q 139.92546583850933 274.6832298136646 139.92546583850933 274.6832298136646 Q 136.74534161490683 273.888198757764 127.20496894409938 265.9378881987578 Q 118.45962732919254 257.9875776397516 117.66459627329192 240.49689440993788 Q 118.45962732919254 225.3913043478261 125.61490683229813 218.2360248447205 Q 131.9751552795031 210.28571428571428 135.1552795031056 208.69565217391303 Q 135.1552795031056 208.69565217391303 135.9503105590062 208.69565217391303 Q 128 197.56521739130434 118.45962732919254 194.38509316770185 Q 109.71428571428571 192 104.94409937888199 192 L 104.94409937888199 192 Z M 184.4472049689441 162.583850931677 L 184.4472049689441 317.6149068322981 L 184.4472049689441 162.583850931677 L 184.4472049689441 317.6149068322981 L 208.29813664596273 317.6149068322981 L 208.29813664596273 317.6149068322981 L 208.29813664596273 265.14285714285717 L 208.29813664596273 265.14285714285717 L 241.68944099378882 265.14285714285717 L 241.68944099378882 265.14285714285717 Q 265.54037267080747 264.3478260869565 279.055900621118 250.83229813664596 Q 293.3664596273292 236.52173913043478 293.3664596273292 213.46583850931677 Q 293.3664596273292 191.2049689440994 279.85093167701865 176.8944099378882 Q 265.54037267080747 163.37888198757764 242.48447204968943 162.583850931677 L 184.4472049689441 162.583850931677 L 184.4472049689441 162.583850931677 Z M 208.29813664596273 183.25465838509317 L 236.12422360248448 183.25465838509317 L 208.29813664596273 183.25465838509317 L 236.12422360248448 183.25465838509317 Q 268.72049689440996 184.0496894409938 269.51552795031057 214.2608695652174 Q 268.72049689440996 243.67701863354037 236.12422360248448 244.472049689441 L 208.29813664596273 244.472049689441 L 208.29813664596273 244.472049689441 L 208.29813664596273 183.25465838509317 L 208.29813664596273 183.25465838509317 Z M 337.888198757764 319.2049689440994 Q 361.7391304347826 318.4099378881988 372.8695652173913 299.32919254658384 L 373.6645962732919 299.32919254658384 L 373.6645962732919 299.32919254658384 L 373.6645962732919 317.6149068322981 L 373.6645962732919 317.6149068322981 L 395.9254658385093 317.6149068322981 L 395.9254658385093 317.6149068322981 L 395.9254658385093 240.49689440993788 L 395.9254658385093 240.49689440993788 Q 395.9254658385093 223.80124223602485 383.2049689440994 214.2608695652174 Q 371.27950310559004 203.92546583850933 350.60869565217394 203.92546583850933 Q 330.7329192546584 203.92546583850933 318.8074534161491 213.46583850931677 Q 306.0869565217391 223.0062111801242 305.2919254658385 238.90683229813664 L 326.7577639751553 238.90683229813664 L 326.7577639751553 238.90683229813664 Q 330.7329192546584 223.80124223602485 349.81366459627327 223.0062111801242 Q 372.0745341614907 223.0062111801242 372.8695652173913 242.08695652173913 L 372.8695652173913 250.83229813664596 L 372.8695652173913 250.83229813664596 L 342.6583850931677 252.4223602484472 L 342.6583850931677 252.4223602484472 Q 300.5217391304348 255.6024844720497 299.72670807453414 285.81366459627327 Q 299.72670807453414 300.9192546583851 310.0621118012422 309.6645962732919 Q 320.3975155279503 319.2049689440994 337.888198757764 319.2049689440994 L 337.888198757764 319.2049689440994 Z M 344.24844720496895 300.9192546583851 Q 324.3726708074534 300.12422360248445 322.7826086956522 285.01863354037266 Q 323.5776397515528 270.7080745341615 345.83850931677017 269.11801242236027 L 372.8695652173913 267.527950310559 L 372.8695652173913 267.527950310559 L 372.8695652173913 276.27329192546586 L 372.8695652173913 276.27329192546586 Q 372.8695652173913 286.60869565217394 364.9192546583851 293.7639751552795 Q 356.96894409937886 300.9192546583851 344.24844720496895 300.9192546583851 L 344.24844720496895 300.9192546583851 Z M 425.3416149068323 359.75155279503105 Q 442.832298136646 360.54658385093165 453.167701863354 351.80124223602485 L 453.167701863354 351.80124223602485 L 453.167701863354 351.80124223602485 Q 462.7080745341615 343.85093167701865 469.8633540372671 323.9751552795031 L 512 205.51552795031057 L 512 205.51552795031057 L 487.35403726708074 205.51552795031057 L 487.35403726708074 205.51552795031057 L 459.527950310559 296.944099378882 L 459.527950310559 296.944099378882 L 458.7329192546584 296.944099378882 L 458.7329192546584 296.944099378882 L 430.111801242236 205.51552795031057 L 430.111801242236 205.51552795031057 L 405.46583850931677 205.51552795031057 L 405.46583850931677 205.51552795031057 L 446.0124223602484 318.4099378881988 L 446.0124223602484 318.4099378881988 L 443.6273291925466 325.5652173913044 L 443.6273291925466 325.5652173913044 Q 438.85714285714283 342.2608695652174 423.75155279503105 341.46583850931677 Q 419.77639751552795 341.46583850931677 416.59627329192546 340.67080745341616 L 416.59627329192546 359.75155279503105 L 416.59627329192546 359.75155279503105 Q 420.57142857142856 359.75155279503105 425.3416149068323 359.75155279503105 L 425.3416149068323 359.75155279503105 Z" />
</svg>