<svg xmlns="http://www.w3.org/2000/svg" viewBox="0 0 512 512">
  <path d="M 487.5920177383592 397.3392461197339 L 263.94678492239467 507.4589800443459 L 487.5920177383592 397.3392461197339 L 263.94678492239467 507.4589800443459 Q 256 512 248.05321507760533 507.4589800443459 L 24.407982261640797 397.3392461197339 L 24.407982261640797 397.3392461197339 Q 17.596452328159646 392.79822616407984 24.407982261640797 388.2572062084257 L 77.7649667405765 362.1463414634146 L 77.7649667405765 362.1463414634146 Q 86.8470066518847 358.74057649667407 94.79379157427938 362.1463414634146 L 248.05321507760533 438.2084257206208 L 248.05321507760533 438.2084257206208 Q 256 441.61419068736143 263.94678492239467 438.2084257206208 L 417.2062084257206 362.1463414634146 L 417.2062084257206 362.1463414634146 Q 425.1529933481153 358.74057649667407 434.2350332594235 362.1463414634146 L 487.5920177383592 388.2572062084257 L 487.5920177383592 388.2572062084257 Q 494.40354767184033 392.79822616407984 487.5920177383592 397.3392461197339 L 487.5920177383592 397.3392461197339 Z M 487.5920177383592 241.80931263858093 L 434.2350332594235 215.69844789356983 L 487.5920177383592 241.80931263858093 L 434.2350332594235 215.69844789356983 Q 425.1529933481153 212.29268292682926 417.2062084257206 215.69844789356983 L 263.94678492239467 291.76053215077604 L 263.94678492239467 291.76053215077604 Q 256 295.16629711751665 248.05321507760533 291.76053215077604 L 94.79379157427938 215.69844789356983 L 94.79379157427938 215.69844789356983 Q 86.8470066518847 212.29268292682926 77.7649667405765 215.69844789356983 L 24.407982261640797 241.80931263858093 L 24.407982261640797 241.80931263858093 Q 17.596452328159646 246.35033259423503 24.407982261640797 249.7560975609756 L 248.05321507760533 361.0110864745011 L 248.05321507760533 361.0110864745011 Q 256 364.4168514412417 263.94678492239467 361.0110864745011 L 487.5920177383592 249.7560975609756 L 487.5920177383592 249.7560975609756 Q 494.40354767184033 246.35033259423503 487.5920177383592 241.80931263858093 L 487.5920177383592 241.80931263858093 Z M 24.407982261640797 112.39024390243902 L 248.05321507760533 215.69844789356983 L 24.407982261640797 112.39024390243902 L 248.05321507760533 215.69844789356983 Q 256 217.9689578713969 263.94678492239467 215.69844789356983 L 487.5920177383592 112.39024390243902 L 487.5920177383592 112.39024390243902 Q 494.40354767184033 108.98447893569845 487.5920177383592 105.57871396895787 L 263.94678492239467 2.270509977827051 L 263.94678492239467 2.270509977827051 Q 256 0 248.05321507760533 2.270509977827051 L 24.407982261640797 105.57871396895787 L 24.407982261640797 105.57871396895787 Q 17.596452328159646 108.98447893569845 24.407982261640797 112.39024390243902 L 24.407982261640797 112.39024390243902 Z" />
</svg>