<svg xmlns="http://www.w3.org/2000/svg" viewBox="0 0 512 512">
  <path d="M 407 463 Q 342 511 256 512 Q 171 511 107 464 Q 43 418 15 342 Q 19 345 23 347 Q 49 355 86 318 Q 96 308 109 301 Q 136 283 167 273 Q 168 274 181 296 Q 194 317 210 348 Q 222 378 206 390 Q 190 403 183 402 Q 182 402 181 402 Q 175 401 159 403 Q 143 405 131 416 Q 119 427 125 453 Q 134 481 159 487 Q 184 493 213 485 Q 243 477 265 462 Q 285 447 292 419 Q 298 391 298 368 Q 297 345 297 344 Q 327 341 340 363 Q 352 384 355 403 Q 356 410 356 419 Q 356 419 356 419 Q 356 436 362 450 Q 367 464 391 465 Q 399 465 407 463 L 407 463 Z M 311 439 Q 308 438 308 434 Q 310 431 313 431 Q 317 433 316 436 Q 315 440 311 439 L 311 439 Z M 104 344 Q 107 343 108 347 Q 108 350 105 351 Q 103 351 101 348 Q 101 345 104 344 L 104 344 Z M 452 421 Q 510 352 512 256 Q 512 205 494 161 Q 476 116 443 81 Q 443 118 426 151 Q 416 167 395 190 Q 373 213 357 229 Q 356 230 355 230 Q 355 231 355 231 Q 355 231 355 231 Q 355 231 355 231 Q 347 244 358 253 Q 375 265 394 285 Q 413 305 417 326 Q 421 353 433 377 Q 445 402 451 412 Q 451 412 451 412 L 451 412 L 451 412 Q 451 412 451 412 Q 452 414 453 414 Q 453 418 452 421 Q 452 421 452 421 L 452 421 Z M 391 251 Q 390 256 395 257 Q 400 258 401 253 Q 402 248 397 247 Q 392 246 391 251 L 391 251 Z M 452 190 L 441 196 L 452 190 L 441 196 L 438 208 L 438 208 L 432 197 L 432 197 L 419 194 L 419 194 L 431 189 L 431 189 L 434 176 L 434 176 L 439 187 L 439 187 L 452 190 L 452 190 Z M 396 41 Q 384 48 378 64 L 378 64 L 378 64 Q 371 81 367 102 L 367 102 L 367 102 Q 367 103 367 103 L 367 103 L 367 103 Q 366 104 366 105 Q 366 106 366 107 Q 358 134 345 140 Q 333 146 324 144 Q 324 144 324 144 Q 323 144 322 144 Q 322 144 321 144 Q 315 145 312 127 Q 309 110 294 63 Q 275 16 239 17 Q 202 18 166 41 Q 127 68 130 110 Q 133 153 146 191 Q 147 194 148 197 Q 141 203 123 209 Q 122 209 122 209 Q 103 215 82 226 Q 55 240 33 259 Q 10 277 2 289 Q 0 272 0 256 Q 1 184 35 127 Q 69 69 127 35 Q 184 1 256 0 Q 334 1 396 41 L 396 41 Z M 59 190 Q 56 186 53 188 Q 49 191 51 195 Q 54 198 57 196 Q 61 193 59 190 L 59 190 Z M 327 65 Q 331 63 334 66 Q 336 71 332 73 Q 329 75 326 71 Q 324 68 327 65 L 327 65 Z M 95 105 Q 95 108 97 108 Q 100 109 100 106 Q 101 103 98 103 Q 95 103 95 105 L 95 105 Z M 180 105 Q 180 73 197 61 L 197 61 L 197 61 Q 214 50 217 51 Q 249 40 263 52 Q 276 64 283 88 Q 292 111 283 123 Q 275 136 245 147 Q 214 159 198 146 Q 182 134 180 104 L 180 105 Z M 269 119 L 270 119 L 269 119 L 270 119 Q 275 119 275 114 Q 278 104 273 94 Q 271 90 267 91 Q 262 93 264 98 Q 267 105 265 113 Q 265 118 270 119 L 269 119 Z M 260 78 Q 256 78 255 75 Q 254 73 253 72 Q 252 71 252 70 Q 249 66 252 62 Q 255 59 259 62 Q 261 66 263 69 Q 264 69 264 70 Q 266 74 261 77 Q 261 77 260 77 Q 260 77 260 78 Q 260 78 260 78 Q 260 78 260 78 L 260 78 Z" />
</svg>