<svg xmlns="http://www.w3.org/2000/svg" viewBox="0 0 448 448">
    <path d="M 101 302 Q 112 303 121 304 L 121 304 Q 144 305 152 306 L 152 306 Q 160 308 160 314 Q 158 324 143 328 Q 127 331 111 328 Q 95 325 94 316 Q 95 308 101 302 L 101 302 Z M 129 186 Q 104 188 104 208 L 104 208 Q 103 227 128 230 Q 152 227 152 208 Q 152 188 129 186 L 129 186 Z M 448 48 L 448 400 Q 448 420 434 434 Q 420 448 400 448 L 48 448 Q 28 448 14 434 Q 0 420 0 400 L 0 48 Q 0 28 14 14 Q 28 0 48 0 L 400 0 Q 420 0 434 14 Q 448 28 448 48 L 448 48 Z M 221 117 Q 222 140 244 140 Q 266 140 267 117 Q 266 95 244 95 Q 222 95 221 117 L 221 117 Z M 199 163 L 150 163 Q 128 157 99 165 Q 71 172 68 210 Q 70 238 90 248 Q 90 248 90 248 Q 67 267 67 279 Q 66 289 78 295 Q 64 306 64 321 Q 61 352 128 353 Q 196 352 197 307 Q 198 283 178 276 Q 159 270 117 269 Q 110 268 103 268 L 111 254 Q 120 257 138 256 Q 155 255 170 246 Q 184 236 185 212 Q 184 195 176 186 L 199 185 L 199 163 Z M 284 273 L 271 271 Q 266 271 266 266 L 266 161 L 214 161 L 211 181 Q 215 183 218 183 Q 230 186 228 191 L 228 266 Q 230 272 218 272 Q 215 272 211 273 L 211 293 L 283 293 L 284 273 Z M 384 283 L 377 261 Q 349 270 344 261 Q 338 251 339 245 Q 339 244 339 244 L 339 183 L 377 183 L 377 158 L 341 158 Q 341 158 341 158 Q 339 159 339 153 Q 339 147 339 119 L 315 119 Q 313 159 281 161 L 281 183 Q 287 183 291 183 Q 304 182 301 186 L 301 252 Q 299 294 343 293 Q 366 292 384 283 L 384 283 Z"/>
</svg>
