<svg xmlns="http://www.w3.org/2000/svg" viewBox="0 0 476 512">
    <path d="M 471 288 L 444 288 Q 440 288 439 293 L 439 325 L 403 325 L 403 146 Q 402 142 398 142 L 371 142 Q 366 142 366 146 L 366 178 L 329 178 L 329 146 Q 329 142 325 142 L 297 142 Q 293 142 293 146 L 293 178 L 256 178 L 256 146 Q 254 140 246 142 Q 245 142 244 142 L 244 104 Q 257 100 270 100 Q 278 100 286 102 Q 294 104 302 104 Q 306 105 317 103 Q 328 102 329 96 L 329 36 Q 329 32 325 32 Q 321 32 316 34 Q 309 36 301 36 Q 294 36 286 34 Q 277 32 268 32 Q 256 32 244 35 L 244 30 Q 253 25 253 16 Q 252 0 238 0 Q 224 0 222 16 Q 223 25 231 30 L 231 142 Q 230 142 229 142 Q 221 140 219 146 L 219 178 L 183 178 L 183 146 Q 183 142 178 142 L 151 142 Q 147 142 146 146 L 146 178 L 110 178 L 110 146 Q 110 142 105 142 L 78 142 Q 74 142 73 146 L 73 325 L 37 325 L 37 293 Q 36 288 32 288 L 5 288 Q 1 288 0 293 L 0 512 L 183 512 L 183 416 Q 185 380 212 368 Q 238 356 264 368 Q 291 380 293 416 L 293 512 L 476 512 L 476 293 Q 475 288 471 288 L 471 288 Z M 183 283 Q 183 288 179 288 L 151 288 Q 147 288 147 283 L 147 219 Q 147 215 151 215 L 179 215 Q 183 215 183 219 L 183 283 L 183 283 Z M 330 283 Q 329 288 325 288 L 298 288 Q 293 288 293 283 L 293 219 Q 293 215 298 215 L 325 215 Q 329 215 330 219 L 330 283 L 330 283 Z"/>
</svg>
