<svg xmlns="http://www.w3.org/2000/svg" viewBox="0 0 512 512">
  <path d="M 490.4 226.4 Q 490.4 214.4 491.2 205.6 L 491.2 205.6 L 491.2 205.6 Q 492.8 196 492.8 182.4 Q 493.6 144 460 146.4 L 444 146.4 L 444 146.4 L 444 165.6 L 444 165.6 L 448.8 165.6 L 448.8 165.6 Q 464.8 164 463.2 184 Q 462.4 192.8 462.4 202.4 Q 461.6 212.8 461.6 224.8 Q 461.6 252 480.8 254.4 L 480.8 256 L 480.8 256 Q 461.6 258.4 461.6 285.6 Q 461.6 297.6 462.4 307.2 Q 462.4 316.8 463.2 327.2 Q 464 346.4 448.8 344.8 L 448.8 345.6 L 448.8 345.6 L 444 345.6 L 444 345.6 L 444 365.6 L 444 365.6 L 460 365.6 L 460 365.6 Q 493.6 368 492.8 329.6 Q 492.8 316 491.2 306.4 Q 490.4 297.6 490.4 285.6 Q 489.6 279.2 495.2 273.6 Q 500 268 512 267.2 L 512 244.8 L 512 244.8 Q 500 244 495.2 239.2 Q 489.6 233.6 490.4 226.4 L 490.4 226.4 Z M 405.6 252 Q 403.2 251.2 400 249.6 L 400 249.6 L 400 249.6 Q 383.2 244.8 381.6 236 Q 381.6 225.6 396 225.6 Q 408.8 225.6 422.4 236 L 439.2 213.6 L 439.2 213.6 Q 424 199.2 395.2 197.6 Q 373.6 197.6 360.8 208.8 Q 347.2 219.2 347.2 236.8 Q 348 252 358.4 260.8 Q 368.8 269.6 380 273.6 Q 381.6 274.4 383.2 275.2 Q 392 278.4 399.2 281.6 Q 405.6 285.6 406.4 291.2 Q 406.4 301.6 389.6 302.4 Q 374.4 302.4 357.6 288.8 L 340.8 313.6 L 340.8 313.6 Q 350.4 321.6 363.2 326.4 Q 376 331.2 388 331.2 Q 413.6 330.4 427.2 319.2 Q 440 308 440 290.4 Q 439.2 272.8 428.8 264.8 Q 418.4 256 405.6 252 L 405.6 252 Z M 118.4 299.2 Q 112.8 300 112 288.8 L 112 146.4 L 112 146.4 L 52 146.4 L 52 146.4 Q 18.4 144 19.2 182.4 Q 19.2 196 20.8 206.4 Q 21.6 215.2 21.6 226.4 Q 22.4 232.8 16.8 238.4 Q 12 244 0 245.6 L 0 267.2 L 0 267.2 Q 12 268 16.8 272.8 Q 22.4 278.4 21.6 285.6 Q 21.6 296 20.8 305.6 Q 19.2 315.2 19.2 328.8 Q 19.2 367.2 52 364.8 L 68 364.8 L 68 364.8 L 68 345.6 L 68 345.6 L 63.2 345.6 L 63.2 345.6 Q 48 346.4 49.6 327.2 Q 49.6 316.8 49.6 308 Q 50.4 297.6 50.4 285.6 Q 50.4 258.4 32 256 L 32 255.2 L 32 255.2 Q 50.4 252 50.4 224.8 Q 50.4 213.6 49.6 203.2 Q 49.6 193.6 49.6 184 Q 48 164.8 63.2 166.4 L 74.4 166.4 L 74.4 166.4 L 74.4 286.4 L 74.4 286.4 Q 74.4 306.4 82.4 317.6 Q 89.6 328.8 108.8 329.6 Q 120.8 328.8 128 326.4 L 123.2 299.2 L 123.2 299.2 Q 120 300 118.4 299.2 Q 118.4 299.2 118.4 299.2 L 118.4 299.2 Z M 304 252 Q 300.8 251.2 298.4 249.6 L 298.4 249.6 L 298.4 249.6 Q 280.8 245.6 279.2 236 Q 279.2 225.6 293.6 225.6 Q 307.2 225.6 320 236 L 336.8 213.6 L 336.8 213.6 Q 321.6 199.2 292.8 197.6 Q 271.2 197.6 258.4 208.8 Q 245.6 219.2 244.8 236.8 Q 245.6 252 256 260.8 Q 266.4 269.6 278.4 273.6 Q 279.2 274.4 280.8 275.2 Q 290.4 278.4 296.8 281.6 Q 304 285.6 304 291.2 Q 304 301.6 287.2 302.4 Q 272 302.4 255.2 288.8 L 238.4 313.6 L 238.4 313.6 Q 248.8 321.6 261.6 326.4 Q 274.4 331.2 286.4 331.2 Q 312 330.4 324.8 319.2 Q 338.4 308 338.4 290.4 Q 337.6 272.8 327.2 264.8 Q 316.8 256 304 252 L 304 252 Z M 180 196.8 Q 156 197.6 138.4 215.2 L 138.4 215.2 L 138.4 215.2 Q 120.8 232 120.8 263.2 Q 121.6 294.4 139.2 311.2 Q 156.8 328.8 184 328.8 Q 208 328.8 228.8 314.4 L 216.8 292.8 L 216.8 292.8 Q 202.4 300.8 188.8 300.8 Q 162.4 301.6 156 272.8 L 232 272.8 L 232 272.8 Q 232 272.8 232 272 Q 232.8 267.2 233.6 257.6 Q 233.6 231.2 220 214.4 Q 206.4 197.6 180 196.8 L 180 196.8 Z M 156 249.6 Q 161.6 224.8 180 224.8 Q 202.4 226.4 201.6 249.6 L 156 249.6 L 156 249.6 Z" />
</svg>