<svg xmlns="http://www.w3.org/2000/svg" viewBox="0 0 512 512">
  <path d="M 243.61290322580646 0 Q 248.7741935483871 0 254.96774193548387 0 L 254.96774193548387 0 L 254.96774193548387 0 Q 261.16129032258067 0 266.3225806451613 0 Q 272.51612903225805 0 277.6774193548387 1.032258064516129 Q 283.8709677419355 1.032258064516129 289.03225806451616 2.064516129032258 Q 291.0967741935484 2.064516129032258 293.16129032258067 2.064516129032258 Q 295.2258064516129 3.096774193548387 298.3225806451613 3.096774193548387 Q 300.38709677419354 4.129032258064516 301.4193548387097 4.129032258064516 Q 313.80645161290323 6.193548387096774 326.19354838709677 9.290322580645162 Q 344.7741935483871 15.483870967741936 363.35483870967744 23.741935483870968 Q 404.64516129032256 42.32258064516129 436.64516129032256 74.3225806451613 Q 468.64516129032256 106.3225806451613 487.2258064516129 146.58064516129033 Q 488.258064516129 147.61290322580646 489.2903225806452 149.67741935483872 Q 490.3225806451613 151.74193548387098 491.35483870967744 153.80645161290323 Q 495.48387096774195 164.1290322580645 498.5806451612903 174.4516129032258 Q 504.7741935483871 194.06451612903226 508.9032258064516 213.67741935483872 Q 508.9032258064516 218.83870967741936 509.93548387096774 222.96774193548387 Q 510.96774193548384 229.16129032258064 510.96774193548384 235.3548387096774 Q 512 247.74193548387098 512 261.16129032258067 Q 512 268.38709677419354 510.96774193548384 276.64516129032256 Q 510.96774193548384 281.80645161290323 509.93548387096774 286.96774193548384 Q 509.93548387096774 289.03225806451616 509.93548387096774 290.06451612903226 Q 509.93548387096774 293.16129032258067 508.9032258064516 295.2258064516129 Q 508.9032258064516 297.2903225806452 508.9032258064516 298.3225806451613 Q 507.8709677419355 305.5483870967742 505.80645161290323 311.741935483871 Q 499.61290322580646 339.61290322580646 487.2258064516129 366.4516129032258 Q 462.4516129032258 418.06451612903226 418.06451612903226 454.19354838709677 Q 391.2258064516129 476.9032258064516 359.2258064516129 490.3225806451613 Q 348.9032258064516 494.4516129032258 339.61290322580646 498.5806451612903 Q 338.5806451612903 498.5806451612903 337.5483870967742 498.5806451612903 Q 332.38709677419354 500.64516129032256 328.258064516129 501.6774193548387 Q 317.93548387096774 504.7741935483871 307.61290322580646 506.83870967741933 Q 300.38709677419354 507.8709677419355 293.16129032258067 508.9032258064516 Q 292.1290322580645 509.93548387096774 290.06451612903226 509.93548387096774 Q 283.8709677419355 510.96774193548384 276.64516129032256 510.96774193548384 Q 266.3225806451613 512 256 512 Q 245.67741935483872 512 235.3548387096774 510.96774193548384 Q 230.19354838709677 510.96774193548384 225.03225806451613 509.93548387096774 Q 222.96774193548387 509.93548387096774 221.93548387096774 509.93548387096774 Q 218.83870967741936 509.93548387096774 216.7741935483871 508.9032258064516 Q 214.70967741935485 508.9032258064516 213.67741935483872 508.9032258064516 Q 208.51612903225808 507.8709677419355 203.3548387096774 506.83870967741933 Q 197.16129032258064 505.80645161290323 190.96774193548387 503.741935483871 Q 177.5483870967742 500.64516129032256 164.1290322580645 495.48387096774195 Q 148.6451612903226 489.2903225806452 133.16129032258064 481.03225806451616 Q 133.16129032258064 480 132.1290322580645 480 Q 129.03225806451613 478.96774193548384 125.93548387096774 476.9032258064516 Q 109.41935483870968 466.5806451612903 92.90322580645162 454.19354838709677 Q 39.225806451612904 408.7741935483871 14.451612903225806 341.6774193548387 Q 9.290322580645162 328.258064516129 6.193548387096774 313.80645161290323 Q 4.129032258064516 304.51612903225805 3.096774193548387 295.2258064516129 Q 3.096774193548387 295.2258064516129 3.096774193548387 295.2258064516129 Q 2.064516129032258 292.1290322580645 2.064516129032258 290.06451612903226 Q 2.064516129032258 289.03225806451616 2.064516129032258 286.96774193548384 Q 1.032258064516129 283.8709677419355 1.032258064516129 279.741935483871 Q 1.032258064516129 277.6774193548387 1.032258064516129 275.61290322580646 Q 0 260.1290322580645 0 245.67741935483872 Q 0 240.51612903225808 1.032258064516129 235.3548387096774 Q 1.032258064516129 233.29032258064515 1.032258064516129 231.2258064516129 Q 1.032258064516129 228.1290322580645 2.064516129032258 225.03225806451613 Q 2.064516129032258 222.96774193548387 2.064516129032258 221.93548387096774 Q 2.064516129032258 218.83870967741936 3.096774193548387 216.7741935483871 Q 3.096774193548387 214.70967741935485 4.129032258064516 212.6451612903226 Q 4.129032258064516 208.51612903225808 5.161290322580645 204.38709677419354 Q 10.32258064516129 178.58064516129033 20.64516129032258 154.83870967741936 Q 21.677419354838708 151.74193548387098 23.741935483870968 148.6451612903226 Q 23.741935483870968 147.61290322580646 24.774193548387096 145.5483870967742 Q 37.16129032258065 119.74193548387096 55.74193548387097 97.03225806451613 Q 86.70967741935483 57.806451612903224 131.09677419354838 32 Q 142.4516129032258 25.806451612903224 154.83870967741936 20.64516129032258 Q 179.61290322580646 10.32258064516129 205.41935483870967 5.161290322580645 Q 209.5483870967742 4.129032258064516 213.67741935483872 3.096774193548387 Q 214.70967741935485 3.096774193548387 216.7741935483871 3.096774193548387 Q 218.83870967741936 2.064516129032258 221.93548387096774 2.064516129032258 Q 222.96774193548387 2.064516129032258 225.03225806451613 2.064516129032258 Q 228.1290322580645 1.032258064516129 232.25806451612902 1.032258064516129 Q 234.32258064516128 1.032258064516129 235.3548387096774 1.032258064516129 Q 238.4516129032258 0 241.5483870967742 0 Q 242.58064516129033 0 243.61290322580646 0 L 243.61290322580646 0 Z M 251.8709677419355 25.806451612903224 Q 238.4516129032258 25.806451612903224 224 27.870967741935484 Q 212.6451612903226 29.93548387096774 201.29032258064515 32 Q 179.61290322580646 37.16129032258065 160 47.483870967741936 Q 143.48387096774192 54.70967741935484 128 65.03225806451613 Q 128 65.03225806451613 126.96774193548387 66.06451612903226 Q 120.7741935483871 70.19354838709677 115.61290322580645 74.3225806451613 Q 108.38709677419355 80.51612903225806 100.12903225806451 86.70967741935483 Q 98.06451612903226 89.80645161290323 96 91.87096774193549 Q 93.93548387096774 92.90322580645162 92.90322580645162 93.93548387096774 Q 48.516129032258064 140.38709677419354 34.064516129032256 202.32258064516128 Q 30.967741935483872 215.74193548387098 28.903225806451612 229.16129032258064 Q 27.870967741935484 242.58064516129033 27.870967741935484 257.03225806451616 Q 27.870967741935484 267.35483870967744 28.903225806451612 278.7096774193548 Q 29.93548387096774 290.06451612903226 32 300.38709677419354 Q 33.03225806451613 302.4516129032258 33.03225806451613 304.51612903225805 Q 34.064516129032256 309.6774193548387 36.12903225806452 314.83870967741933 Q 45.41935483870968 350.96774193548384 67.09677419354838 382.96774193548384 Q 80.51612903225806 402.5806451612903 98.06451612903226 420.1290322580645 Q 122.83870967741936 443.8709677419355 154.83870967741936 460.38709677419354 Q 166.19354838709677 465.5483870967742 177.5483870967742 469.6774193548387 Q 178.58064516129033 470.7096774193548 179.61290322580646 470.7096774193548 Q 186.83870967741936 472.7741935483871 194.06451612903226 474.83870967741933 Q 210.58064516129033 480 229.16129032258064 483.0967741935484 Q 231.2258064516129 483.0967741935484 233.29032258064515 483.0967741935484 Q 235.3548387096774 483.0967741935484 238.4516129032258 483.0967741935484 Q 259.0967741935484 485.16129032258067 280.7741935483871 483.0967741935484 Q 282.83870967741933 483.0967741935484 285.93548387096774 482.06451612903226 Q 290.06451612903226 482.06451612903226 295.2258064516129 481.03225806451616 Q 296.258064516129 481.03225806451616 297.2903225806452 481.03225806451616 Q 301.4193548387097 480 305.5483870967742 478.96774193548384 Q 307.61290322580646 478.96774193548384 308.64516129032256 478.96774193548384 Q 313.80645161290323 476.9032258064516 318.96774193548384 475.8709677419355 Q 360.258064516129 464.51612903225805 394.3225806451613 438.7096774193548 Q 419.0967741935484 420.1290322580645 437.6774193548387 396.38709677419354 Q 442.83870967741933 390.19354838709677 445.93548387096774 385.03225806451616 Q 446.96774193548384 384 448 382.96774193548384 Q 453.16129032258067 374.7096774193548 457.2903225806452 366.4516129032258 Q 461.4193548387097 360.258064516129 464.51612903225805 353.03225806451616 Q 473.80645161290323 334.4516129032258 478.96774193548384 314.83870967741933 Q 483.0967741935484 298.3225806451613 485.16129032258067 282.83870967741933 Q 487.2258064516129 262.19354838709677 486.19354838709677 240.51612903225808 Q 486.19354838709677 237.41935483870967 485.16129032258067 233.29032258064515 Q 485.16129032258067 231.2258064516129 485.16129032258067 229.16129032258064 Q 482.06451612903226 199.2258064516129 470.7096774193548 171.3548387096774 Q 461.4193548387097 147.61290322580646 448 126.96774193548387 Q 427.35483870967744 97.03225806451613 400.51612903225805 75.35483870967742 Q 360.258064516129 44.38709677419355 311.741935483871 32 Q 299.35483870967744 28.903225806451612 286.96774193548384 26.838709677419356 Q 283.8709677419355 26.838709677419356 279.741935483871 26.838709677419356 Q 277.6774193548387 25.806451612903224 275.61290322580646 25.806451612903224 Q 264.258064516129 24.774193548387096 251.8709677419355 25.806451612903224 L 251.8709677419355 25.806451612903224 Z M 143.48387096774192 76.38709677419355 Q 164.1290322580645 61.935483870967744 188.90322580645162 54.70967741935484 Q 186.83870967741936 55.74193548387097 184.7741935483871 56.774193548387096 Q 181.67741935483872 58.83870967741935 178.58064516129033 60.903225806451616 Q 161.03225806451613 71.2258064516129 147.61290322580646 85.6774193548387 Q 136.25806451612902 97.03225806451613 130.06451612903226 111.48387096774194 Q 124.90322580645162 121.80645161290323 122.83870967741936 134.19354838709677 Q 120.7741935483871 141.41935483870967 121.80645161290323 148.6451612903226 Q 121.80645161290323 170.32258064516128 133.16129032258064 188.90322580645162 Q 142.4516129032258 205.41935483870967 155.8709677419355 217.80645161290323 Q 160 219.8709677419355 163.09677419354838 222.96774193548387 Q 167.2258064516129 226.06451612903226 171.3548387096774 230.19354838709677 Q 175.48387096774192 233.29032258064515 178.58064516129033 237.41935483870967 Q 182.70967741935485 242.58064516129033 184.7741935483871 248.7741935483871 Q 185.80645161290323 252.90322580645162 184.7741935483871 257.03225806451616 Q 184.7741935483871 258.06451612903226 184.7741935483871 258.06451612903226 Q 184.7741935483871 261.16129032258067 184.7741935483871 263.2258064516129 Q 184.7741935483871 267.35483870967744 184.7741935483871 271.48387096774195 Q 184.7741935483871 273.5483870967742 184.7741935483871 276.64516129032256 Q 184.7741935483871 279.741935483871 184.7741935483871 281.80645161290323 Q 185.80645161290323 284.9032258064516 185.80645161290323 286.96774193548384 Q 184.7741935483871 288 185.80645161290323 290.06451612903226 Q 185.80645161290323 295.2258064516129 185.80645161290323 300.38709677419354 Q 185.80645161290323 303.48387096774195 185.80645161290323 307.61290322580646 Q 185.80645161290323 309.6774193548387 185.80645161290323 311.741935483871 Q 185.80645161290323 313.80645161290323 185.80645161290323 316.9032258064516 Q 185.80645161290323 316.9032258064516 185.80645161290323 317.93548387096774 Q 185.80645161290323 320 185.80645161290323 322.06451612903226 Q 183.74193548387098 322.06451612903226 182.70967741935485 322.06451612903226 Q 165.16129032258064 321.03225806451616 149.67741935483872 314.83870967741933 Q 140.38709677419354 310.7096774193548 132.1290322580645 304.51612903225805 Q 122.83870967741936 298.3225806451613 115.61290322580645 290.06451612903226 Q 105.29032258064517 278.7096774193548 99.09677419354838 265.2903225806452 Q 98.06451612903226 264.258064516129 98.06451612903226 263.2258064516129 Q 96 261.16129032258067 94.96774193548387 259.0967741935484 Q 94.96774193548387 257.03225806451616 93.93548387096774 254.96774193548387 Q 92.90322580645162 252.90322580645162 91.87096774193549 250.83870967741936 Q 85.6774193548387 235.3548387096774 83.61290322580645 218.83870967741936 Q 83.61290322580645 217.80645161290323 82.58064516129032 216.7741935483871 Q 82.58064516129032 211.61290322580646 81.54838709677419 205.41935483870967 Q 80.51612903225806 180.6451612903226 86.70967741935483 156.90322580645162 Q 89.80645161290323 144.51612903225808 94.96774193548387 132.1290322580645 Q 105.29032258064517 110.45161290322581 122.83870967741936 92.90322580645162 Q 132.1290322580645 83.61290322580645 143.48387096774192 76.38709677419355 L 143.48387096774192 76.38709677419355 Z M 325.16129032258067 54.70967741935484 Q 328.258064516129 55.74193548387097 331.35483870967744 57.806451612903224 L 331.35483870967744 57.806451612903224 L 331.35483870967744 57.806451612903224 Q 332.38709677419354 57.806451612903224 333.4193548387097 57.806451612903224 Q 342.7096774193548 60.903225806451616 352 66.06451612903226 Q 372.64516129032256 76.38709677419355 389.16129032258067 91.87096774193549 Q 405.6774193548387 107.35483870967742 414.96774193548384 126.96774193548387 Q 416 129.03225806451613 417.03225806451616 130.06451612903226 Q 418.06451612903226 133.16129032258064 419.0967741935484 136.25806451612902 Q 429.4193548387097 158.96774193548387 430.4516129032258 184.7741935483871 Q 431.48387096774195 192 431.48387096774195 199.2258064516129 Q 431.48387096774195 216.7741935483871 427.35483870967744 234.32258064516128 Q 424.258064516129 245.67741935483872 419.0967741935484 257.03225806451616 Q 413.93548387096774 267.35483870967744 407.741935483871 276.64516129032256 Q 396.38709677419354 293.16129032258067 380.9032258064516 304.51612903225805 Q 364.38709677419354 316.9032258064516 344.7741935483871 320 Q 338.5806451612903 321.03225806451616 333.4193548387097 322.06451612903226 Q 333.4193548387097 322.06451612903226 332.38709677419354 322.06451612903226 Q 330.3225806451613 322.06451612903226 327.2258064516129 321.03225806451616 Q 327.2258064516129 318.96774193548384 327.2258064516129 316.9032258064516 Q 327.2258064516129 315.8709677419355 327.2258064516129 314.83870967741933 Q 327.2258064516129 311.741935483871 327.2258064516129 309.6774193548387 Q 328.258064516129 306.5806451612903 328.258064516129 303.48387096774195 Q 328.258064516129 298.3225806451613 328.258064516129 292.1290322580645 Q 328.258064516129 286.96774193548384 328.258064516129 281.80645161290323 Q 328.258064516129 279.741935483871 328.258064516129 277.6774193548387 Q 328.258064516129 275.61290322580646 328.258064516129 274.5806451612903 Q 328.258064516129 270.4516129032258 328.258064516129 266.3225806451613 Q 328.258064516129 262.19354838709677 328.258064516129 258.06451612903226 Q 328.258064516129 257.03225806451616 328.258064516129 256 Q 328.258064516129 252.90322580645162 328.258064516129 248.7741935483871 Q 329.2903225806452 245.67741935483872 332.38709677419354 241.5483870967742 Q 339.61290322580646 231.2258064516129 349.93548387096774 222.96774193548387 Q 358.19354838709677 216.7741935483871 365.4193548387097 208.51612903225808 Q 377.80645161290323 196.1290322580645 385.03225806451616 179.61290322580646 Q 389.16129032258067 170.32258064516128 391.2258064516129 161.03225806451613 Q 392.258064516129 153.80645161290323 392.258064516129 146.58064516129033 Q 391.2258064516129 134.19354838709677 388.1290322580645 122.83870967741936 Q 385.03225806451616 114.58064516129032 380.9032258064516 106.3225806451613 Q 374.7096774193548 94.96774193548387 366.4516129032258 85.6774193548387 Q 350.96774193548384 69.16129032258064 330.3225806451613 57.806451612903224 Q 329.2903225806452 57.806451612903224 328.258064516129 56.774193548387096 Q 326.19354838709677 55.74193548387097 325.16129032258067 54.70967741935484 L 325.16129032258067 54.70967741935484 Z M 220.90322580645162 115.61290322580645 Q 221.93548387096774 113.54838709677419 224 111.48387096774194 Q 222.96774193548387 113.54838709677419 221.93548387096774 114.58064516129032 Q 216.7741935483871 120.7741935483871 214.70967741935485 128 Q 212.6451612903226 133.16129032258064 212.6451612903226 138.32258064516128 Q 212.6451612903226 142.4516129032258 213.67741935483872 146.58064516129033 Q 214.70967741935485 157.93548387096774 221.93548387096774 168.25806451612902 Q 225.03225806451613 172.38709677419354 229.16129032258064 175.48387096774192 Q 231.2258064516129 177.5483870967742 233.29032258064515 178.58064516129033 Q 234.32258064516128 178.58064516129033 235.3548387096774 178.58064516129033 Q 235.3548387096774 179.61290322580646 236.38709677419354 179.61290322580646 Q 240.51612903225808 181.67741935483872 244.6451612903226 184.7741935483871 Q 248.7741935483871 187.8709677419355 248.7741935483871 194.06451612903226 Q 248.7741935483871 250.83870967741936 248.7741935483871 307.61290322580646 Q 248.7741935483871 364.38709677419354 248.7741935483871 422.19354838709677 Q 248.7741935483871 422.19354838709677 248.7741935483871 423.2258064516129 Q 248.7741935483871 424.258064516129 248.7741935483871 426.3225806451613 Q 248.7741935483871 428.38709677419354 249.80645161290323 430.4516129032258 Q 250.83870967741936 430.4516129032258 250.83870967741936 430.4516129032258 Q 251.8709677419355 432.51612903225805 253.93548387096774 434.5806451612903 Q 254.96774193548387 436.64516129032256 257.03225806451616 436.64516129032256 Q 259.0967741935484 435.61290322580646 260.1290322580645 433.5483870967742 Q 262.19354838709677 431.48387096774195 263.2258064516129 428.38709677419354 Q 263.2258064516129 426.3225806451613 263.2258064516129 423.2258064516129 Q 263.2258064516129 423.2258064516129 263.2258064516129 422.19354838709677 Q 263.2258064516129 419.0967741935484 263.2258064516129 416 Q 263.2258064516129 412.9032258064516 263.2258064516129 408.7741935483871 Q 263.2258064516129 404.64516129032256 263.2258064516129 400.51612903225805 Q 263.2258064516129 395.35483870967744 263.2258064516129 391.2258064516129 Q 263.2258064516129 388.1290322580645 263.2258064516129 385.03225806451616 Q 263.2258064516129 381.93548387096774 263.2258064516129 379.8709677419355 Q 264.258064516129 376.7741935483871 264.258064516129 373.6774193548387 Q 264.258064516129 370.5806451612903 264.258064516129 367.48387096774195 Q 264.258064516129 363.35483870967744 264.258064516129 360.258064516129 Q 264.258064516129 354.06451612903226 264.258064516129 348.9032258064516 Q 264.258064516129 345.80645161290323 264.258064516129 342.7096774193548 Q 264.258064516129 339.61290322580646 264.258064516129 337.5483870967742 Q 264.258064516129 334.4516129032258 264.258064516129 331.35483870967744 Q 264.258064516129 328.258064516129 264.258064516129 325.16129032258067 Q 264.258064516129 321.03225806451616 264.258064516129 316.9032258064516 Q 264.258064516129 311.741935483871 264.258064516129 306.5806451612903 Q 264.258064516129 304.51612903225805 264.258064516129 301.4193548387097 Q 264.258064516129 298.3225806451613 264.258064516129 294.19354838709677 Q 264.258064516129 296.258064516129 264.258064516129 297.2903225806452 Q 264.258064516129 298.3225806451613 264.258064516129 299.35483870967744 Q 265.2903225806452 304.51612903225805 265.2903225806452 310.7096774193548 Q 265.2903225806452 312.7741935483871 265.2903225806452 314.83870967741933 Q 266.3225806451613 317.93548387096774 266.3225806451613 321.03225806451616 Q 266.3225806451613 323.0967741935484 266.3225806451613 325.16129032258067 Q 267.35483870967744 328.258064516129 267.35483870967744 330.3225806451613 Q 267.35483870967744 333.4193548387097 268.38709677419354 336.51612903225805 Q 268.38709677419354 339.61290322580646 269.4193548387097 343.741935483871 Q 269.4193548387097 344.7741935483871 269.4193548387097 345.80645161290323 Q 271.48387096774195 358.19354838709677 274.5806451612903 371.61290322580646 Q 275.61290322580646 378.83870967741933 278.7096774193548 386.06451612903226 Q 281.80645161290323 398.4516129032258 289.03225806451616 409.80645161290323 Q 292.1290322580645 412.9032258064516 295.2258064516129 417.03225806451616 Q 295.2258064516129 417.03225806451616 295.2258064516129 417.03225806451616 Q 295.2258064516129 417.03225806451616 296.258064516129 417.03225806451616 Q 297.2903225806452 418.06451612903226 298.3225806451613 417.03225806451616 Q 298.3225806451613 416 299.35483870967744 414.96774193548384 Q 299.35483870967744 413.93548387096774 299.35483870967744 413.93548387096774 Q 305.5483870967742 401.5483870967742 312.7741935483871 390.19354838709677 Q 313.80645161290323 388.1290322580645 314.83870967741933 386.06451612903226 Q 317.93548387096774 384 321.03225806451616 381.93548387096774 Q 325.16129032258067 379.8709677419355 330.3225806451613 379.8709677419355 Q 339.61290322580646 379.8709677419355 348.9032258064516 380.9032258064516 Q 349.93548387096774 381.93548387096774 350.96774193548384 381.93548387096774 Q 350.96774193548384 381.93548387096774 350.96774193548384 381.93548387096774 Q 356.1290322580645 382.96774193548384 362.3225806451613 382.96774193548384 Q 368.51612903225805 382.96774193548384 373.6774193548387 382.96774193548384 Q 387.0967741935484 381.93548387096774 399.48387096774195 376.7741935483871 Q 407.741935483871 372.64516129032256 414.96774193548384 368.51612903225805 Q 433.5483870967742 357.16129032258067 445.93548387096774 340.64516129032256 Q 446.96774193548384 339.61290322580646 448 338.5806451612903 Q 449.03225806451616 337.5483870967742 450.06451612903226 335.48387096774195 Q 448 340.64516129032256 445.93548387096774 345.80645161290323 Q 443.8709677419355 348.9032258064516 442.83870967741933 352 Q 441.80645161290323 353.03225806451616 440.7741935483871 354.06451612903226 Q 433.5483870967742 369.5483870967742 423.2258064516129 382.96774193548384 Q 417.03225806451616 391.2258064516129 408.7741935483871 397.4193548387097 Q 398.4516129032258 407.741935483871 386.06451612903226 412.9032258064516 Q 372.64516129032256 418.06451612903226 359.2258064516129 417.03225806451616 Q 353.03225806451616 416 347.8709677419355 413.93548387096774 Q 344.7741935483871 411.8709677419355 341.6774193548387 410.83870967741933 Q 340.64516129032256 409.80645161290323 339.61290322580646 409.80645161290323 Q 334.4516129032258 406.7096774193548 330.3225806451613 403.61290322580646 Q 334.4516129032258 407.741935483871 338.5806451612903 411.8709677419355 Q 345.80645161290323 418.06451612903226 353.03225806451616 423.2258064516129 Q 359.2258064516129 426.3225806451613 366.4516129032258 428.38709677419354 Q 368.51612903225805 429.4193548387097 370.5806451612903 429.4193548387097 Q 370.5806451612903 429.4193548387097 370.5806451612903 429.4193548387097 Q 368.51612903225805 430.4516129032258 367.48387096774195 432.51612903225805 Q 366.4516129032258 432.51612903225805 366.4516129032258 432.51612903225805 Q 352 442.83870967741933 335.48387096774195 449.03225806451616 Q 302.4516129032258 462.4516129032258 267.35483870967744 465.5483870967742 Q 260.1290322580645 465.5483870967742 252.90322580645162 465.5483870967742 Q 251.8709677419355 465.5483870967742 250.83870967741936 465.5483870967742 Q 243.61290322580646 465.5483870967742 237.41935483870967 464.51612903225805 Q 219.8709677419355 463.48387096774195 203.3548387096774 459.35483870967744 Q 186.83870967741936 455.2258064516129 172.38709677419354 448 Q 157.93548387096774 442.83870967741933 146.58064516129033 434.5806451612903 Q 145.5483870967742 433.5483870967742 144.51612903225808 433.5483870967742 Q 142.4516129032258 431.48387096774195 140.38709677419354 429.4193548387097 Q 150.70967741935485 428.38709677419354 160 423.2258064516129 Q 169.29032258064515 419.0967741935484 176.51612903225808 411.8709677419355 Q 179.61290322580646 408.7741935483871 182.70967741935485 404.64516129032256 Q 177.5483870967742 407.741935483871 171.3548387096774 410.83870967741933 Q 165.16129032258064 413.93548387096774 157.93548387096774 416 Q 148.6451612903226 418.06451612903226 139.3548387096774 417.03225806451616 Q 126.96774193548387 414.96774193548384 115.61290322580645 407.741935483871 Q 109.41935483870968 402.5806451612903 103.2258064516129 397.4193548387097 Q 88.7741935483871 380.9032258064516 77.41935483870968 362.3225806451613 Q 71.2258064516129 352 66.06451612903226 342.7096774193548 Q 66.06451612903226 342.7096774193548 66.06451612903226 342.7096774193548 Q 65.03225806451613 340.64516129032256 64 339.61290322580646 Q 62.96774193548387 337.5483870967742 61.935483870967744 336.51612903225805 Q 64 337.5483870967742 65.03225806451613 339.61290322580646 Q 68.12903225806451 342.7096774193548 71.2258064516129 344.7741935483871 Q 84.64516129032258 359.2258064516129 101.16129032258064 370.5806451612903 Q 112.51612903225806 378.83870967741933 126.96774193548387 381.93548387096774 Q 130.06451612903226 381.93548387096774 133.16129032258064 382.96774193548384 Q 134.19354838709677 382.96774193548384 136.25806451612902 382.96774193548384 Q 139.3548387096774 382.96774193548384 142.4516129032258 382.96774193548384 Q 143.48387096774192 382.96774193548384 144.51612903225808 382.96774193548384 Q 152.7741935483871 382.96774193548384 161.03225806451613 382.96774193548384 Q 165.16129032258064 382.96774193548384 170.32258064516128 381.93548387096774 Q 171.3548387096774 381.93548387096774 171.3548387096774 381.93548387096774 Q 175.48387096774192 380.9032258064516 178.58064516129033 380.9032258064516 Q 184.7741935483871 378.83870967741933 189.93548387096774 380.9032258064516 Q 198.19354838709677 384 202.32258064516128 391.2258064516129 Q 205.41935483870967 395.35483870967744 208.51612903225808 400.51612903225805 Q 208.51612903225808 402.5806451612903 209.5483870967742 403.61290322580646 Q 210.58064516129033 406.7096774193548 211.61290322580646 408.7741935483871 Q 213.67741935483872 411.8709677419355 214.70967741935485 414.96774193548384 Q 214.70967741935485 414.96774193548384 214.70967741935485 414.96774193548384 Q 215.74193548387098 417.03225806451616 217.80645161290323 418.06451612903226 Q 219.8709677419355 417.03225806451616 219.8709677419355 414.96774193548384 Q 222.96774193548387 409.80645161290323 225.03225806451613 403.61290322580646 Q 225.03225806451613 402.5806451612903 225.03225806451613 401.5483870967742 Q 228.1290322580645 391.2258064516129 230.19354838709677 380.9032258064516 Q 233.29032258064515 368.51612903225805 234.32258064516128 357.16129032258067 Q 235.3548387096774 354.06451612903226 235.3548387096774 352 Q 235.3548387096774 347.8709677419355 236.38709677419354 344.7741935483871 Q 236.38709677419354 341.6774193548387 236.38709677419354 339.61290322580646 Q 237.41935483870967 336.51612903225805 237.41935483870967 333.4193548387097 Q 238.4516129032258 320 239.48387096774192 306.5806451612903 Q 239.48387096774192 305.5483870967742 239.48387096774192 304.51612903225805 Q 239.48387096774192 302.4516129032258 239.48387096774192 300.38709677419354 Q 239.48387096774192 297.2903225806452 239.48387096774192 294.19354838709677 Q 239.48387096774192 291.0967741935484 239.48387096774192 286.96774193548384 Q 239.48387096774192 282.83870967741933 239.48387096774192 279.741935483871 Q 239.48387096774192 275.61290322580646 239.48387096774192 270.4516129032258 Q 239.48387096774192 267.35483870967744 239.48387096774192 264.258064516129 Q 238.4516129032258 253.93548387096774 238.4516129032258 243.61290322580646 Q 237.41935483870967 234.32258064516128 234.32258064516128 225.03225806451613 Q 231.2258064516129 213.67741935483872 225.03225806451613 203.3548387096774 Q 219.8709677419355 195.09677419354838 212.6451612903226 188.90322580645162 Q 207.48387096774192 181.67741935483872 199.2258064516129 179.61290322580646 Q 197.16129032258064 179.61290322580646 195.09677419354838 179.61290322580646 Q 195.09677419354838 179.61290322580646 194.06451612903226 178.58064516129033 Q 194.06451612903226 174.4516129032258 195.09677419354838 171.3548387096774 Q 195.09677419354838 170.32258064516128 195.09677419354838 170.32258064516128 Q 198.19354838709677 157.93548387096774 202.32258064516128 146.58064516129033 Q 204.38709677419354 140.38709677419354 207.48387096774192 134.19354838709677 Q 213.67741935483872 123.87096774193549 220.90322580645162 115.61290322580645 L 220.90322580645162 115.61290322580645 Z M 252.90322580645162 117.6774193548387 Q 252.90322580645162 117.6774193548387 252.90322580645162 117.6774193548387 L 252.90322580645162 117.6774193548387 L 252.90322580645162 117.6774193548387 Q 253.93548387096774 116.64516129032258 253.93548387096774 116.64516129032258 Q 253.93548387096774 118.70967741935483 253.93548387096774 119.74193548387096 Q 253.93548387096774 120.7741935483871 253.93548387096774 122.83870967741936 L 253.93548387096774 162.06451612903226 L 253.93548387096774 162.06451612903226 Q 253.93548387096774 163.09677419354838 253.93548387096774 163.09677419354838 Q 253.93548387096774 165.16129032258064 253.93548387096774 167.2258064516129 Q 253.93548387096774 167.2258064516129 252.90322580645162 167.2258064516129 Q 251.8709677419355 164.1290322580645 251.8709677419355 160 Q 250.83870967741936 157.93548387096774 249.80645161290323 155.8709677419355 Q 249.80645161290323 154.83870967741936 249.80645161290323 153.80645161290323 Q 249.80645161290323 152.7741935483871 248.7741935483871 150.70967741935485 Q 246.70967741935485 150.70967741935485 244.6451612903226 150.70967741935485 Q 244.6451612903226 150.70967741935485 243.61290322580646 150.70967741935485 Q 239.48387096774192 150.70967741935485 235.3548387096774 150.70967741935485 Q 232.25806451612902 150.70967741935485 228.1290322580645 150.70967741935485 Q 227.09677419354838 150.70967741935485 226.06451612903226 150.70967741935485 Q 225.03225806451613 150.70967741935485 222.96774193548387 150.70967741935485 Q 222.96774193548387 150.70967741935485 222.96774193548387 150.70967741935485 Q 222.96774193548387 149.67741935483872 222.96774193548387 149.67741935483872 Q 224 148.6451612903226 226.06451612903226 148.6451612903226 Q 227.09677419354838 148.6451612903226 227.09677419354838 147.61290322580646 Q 230.19354838709677 147.61290322580646 232.25806451612902 146.58064516129033 Q 235.3548387096774 145.5483870967742 238.4516129032258 144.51612903225808 Q 238.4516129032258 144.51612903225808 239.48387096774192 144.51612903225808 Q 240.51612903225808 143.48387096774192 242.58064516129033 143.48387096774192 Q 242.58064516129033 142.4516129032258 242.58064516129033 141.41935483870967 Q 240.51612903225808 140.38709677419354 239.48387096774192 140.38709677419354 Q 238.4516129032258 140.38709677419354 238.4516129032258 140.38709677419354 Q 236.38709677419354 139.3548387096774 234.32258064516128 138.32258064516128 Q 231.2258064516129 137.29032258064515 228.1290322580645 137.29032258064515 Q 227.09677419354838 136.25806451612902 226.06451612903226 136.25806451612902 Q 225.03225806451613 135.2258064516129 222.96774193548387 135.2258064516129 Q 222.96774193548387 134.19354838709677 222.96774193548387 134.19354838709677 Q 227.09677419354838 134.19354838709677 231.2258064516129 134.19354838709677 Q 234.32258064516128 134.19354838709677 238.4516129032258 134.19354838709677 Q 241.5483870967742 133.16129032258064 243.61290322580646 134.19354838709677 Q 246.70967741935485 134.19354838709677 248.7741935483871 133.16129032258064 Q 248.7741935483871 133.16129032258064 248.7741935483871 133.16129032258064 Q 249.80645161290323 133.16129032258064 249.80645161290323 132.1290322580645 Q 249.80645161290323 129.03225806451613 250.83870967741936 124.90322580645162 Q 251.8709677419355 120.7741935483871 252.90322580645162 117.6774193548387 L 252.90322580645162 117.6774193548387 Z M 259.0967741935484 116.64516129032258 Q 260.1290322580645 116.64516129032258 260.1290322580645 117.6774193548387 Q 261.16129032258067 120.7741935483871 262.19354838709677 123.87096774193549 Q 262.19354838709677 125.93548387096774 263.2258064516129 129.03225806451613 Q 263.2258064516129 130.06451612903226 263.2258064516129 131.09677419354838 Q 263.2258064516129 132.1290322580645 264.258064516129 133.16129032258064 Q 266.3225806451613 134.19354838709677 268.38709677419354 133.16129032258064 Q 270.4516129032258 133.16129032258064 272.51612903225805 133.16129032258064 Q 279.741935483871 134.19354838709677 288 134.19354838709677 Q 289.03225806451616 134.19354838709677 290.06451612903226 134.19354838709677 Q 290.06451612903226 134.19354838709677 290.06451612903226 135.2258064516129 Q 290.06451612903226 135.2258064516129 290.06451612903226 135.2258064516129 Q 288 135.2258064516129 285.93548387096774 136.25806451612902 Q 284.9032258064516 136.25806451612902 283.8709677419355 137.29032258064515 Q 279.741935483871 138.32258064516128 275.61290322580646 139.3548387096774 Q 274.5806451612903 140.38709677419354 272.51612903225805 140.38709677419354 Q 272.51612903225805 140.38709677419354 271.48387096774195 141.41935483870967 Q 271.48387096774195 141.41935483870967 271.48387096774195 141.41935483870967 Q 270.4516129032258 142.4516129032258 270.4516129032258 143.48387096774192 Q 272.51612903225805 143.48387096774192 273.5483870967742 144.51612903225808 Q 276.64516129032256 144.51612903225808 279.741935483871 145.5483870967742 Q 283.8709677419355 147.61290322580646 289.03225806451616 148.6451612903226 Q 289.03225806451616 148.6451612903226 290.06451612903226 149.67741935483872 Q 290.06451612903226 149.67741935483872 290.06451612903226 150.70967741935485 Q 290.06451612903226 150.70967741935485 290.06451612903226 150.70967741935485 Q 288 150.70967741935485 286.96774193548384 150.70967741935485 Q 285.93548387096774 150.70967741935485 284.9032258064516 150.70967741935485 Q 281.80645161290323 150.70967741935485 278.7096774193548 150.70967741935485 Q 273.5483870967742 150.70967741935485 269.4193548387097 150.70967741935485 Q 268.38709677419354 150.70967741935485 268.38709677419354 150.70967741935485 Q 266.3225806451613 150.70967741935485 264.258064516129 150.70967741935485 Q 263.2258064516129 152.7741935483871 263.2258064516129 153.80645161290323 Q 263.2258064516129 154.83870967741936 263.2258064516129 155.8709677419355 Q 262.19354838709677 158.96774193548387 262.19354838709677 161.03225806451613 Q 261.16129032258067 164.1290322580645 260.1290322580645 167.2258064516129 Q 260.1290322580645 167.2258064516129 259.0967741935484 167.2258064516129 Q 259.0967741935484 165.16129032258064 259.0967741935484 163.09677419354838 Q 259.0967741935484 163.09677419354838 259.0967741935484 162.06451612903226 L 259.0967741935484 122.83870967741936 L 259.0967741935484 122.83870967741936 Q 259.0967741935484 121.80645161290323 259.0967741935484 120.7741935483871 Q 259.0967741935484 118.70967741935483 259.0967741935484 116.64516129032258 L 259.0967741935484 116.64516129032258 Z M 67.09677419354838 163.09677419354838 Q 68.12903225806451 162.06451612903226 68.12903225806451 161.03225806451613 L 68.12903225806451 161.03225806451613 L 68.12903225806451 161.03225806451613 Q 69.16129032258064 158.96774193548387 70.19354838709677 156.90322580645162 Q 68.12903225806451 168.25806451612902 67.09677419354838 180.6451612903226 Q 66.06451612903226 192 66.06451612903226 204.38709677419354 Q 68.12903225806451 235.3548387096774 80.51612903225806 264.258064516129 Q 85.6774193548387 273.5483870967742 91.87096774193549 281.80645161290323 Q 101.16129032258064 293.16129032258067 112.51612903225806 303.48387096774195 Q 119.74193548387096 309.6774193548387 128 314.83870967741933 Q 129.03225806451613 314.83870967741933 130.06451612903226 315.8709677419355 Q 134.19354838709677 317.93548387096774 138.32258064516128 320 Q 146.58064516129033 323.0967741935484 154.83870967741936 325.16129032258067 Q 156.90322580645162 325.16129032258067 158.96774193548387 326.19354838709677 Q 163.09677419354838 326.19354838709677 166.19354838709677 327.2258064516129 Q 174.4516129032258 330.3225806451613 179.61290322580646 336.51612903225805 Q 186.83870967741936 344.7741935483871 189.93548387096774 355.0967741935484 Q 192 360.258064516129 193.03225806451613 364.38709677419354 Q 193.03225806451613 365.4193548387097 193.03225806451613 367.48387096774195 Q 182.70967741935485 371.61290322580646 172.38709677419354 373.6774193548387 Q 165.16129032258064 374.7096774193548 158.96774193548387 374.7096774193548 Q 143.48387096774192 374.7096774193548 128 369.5483870967742 Q 121.80645161290323 367.48387096774195 116.64516129032258 364.38709677419354 Q 104.25806451612904 358.19354838709677 92.90322580645162 349.93548387096774 Q 88.7741935483871 345.80645161290323 84.64516129032258 341.6774193548387 Q 70.19354838709677 326.19354838709677 61.935483870967744 306.5806451612903 Q 58.83870967741935 298.3225806451613 55.74193548387097 289.03225806451616 Q 55.74193548387097 289.03225806451616 55.74193548387097 288 Q 53.67741935483871 282.83870967741933 52.645161290322584 276.64516129032256 Q 51.61290322580645 273.5483870967742 50.58064516129032 271.48387096774195 Q 50.58064516129032 269.4193548387097 50.58064516129032 267.35483870967744 Q 49.54838709677419 265.2903225806452 49.54838709677419 263.2258064516129 Q 49.54838709677419 262.19354838709677 49.54838709677419 261.16129032258067 Q 47.483870967741936 251.8709677419355 47.483870967741936 243.61290322580646 Q 47.483870967741936 234.32258064516128 48.516129032258064 225.03225806451613 Q 49.54838709677419 222.96774193548387 49.54838709677419 220.90322580645162 Q 49.54838709677419 218.83870967741936 50.58064516129032 215.74193548387098 Q 51.61290322580645 207.48387096774192 53.67741935483871 198.19354838709677 Q 58.83870967741935 180.6451612903226 67.09677419354838 163.09677419354838 L 67.09677419354838 163.09677419354838 Z M 442.83870967741933 156.90322580645162 Q 443.8709677419355 158.96774193548387 444.9032258064516 161.03225806451613 L 444.9032258064516 161.03225806451613 L 444.9032258064516 161.03225806451613 Q 444.9032258064516 162.06451612903226 445.93548387096774 162.06451612903226 Q 445.93548387096774 163.09677419354838 445.93548387096774 163.09677419354838 Q 449.03225806451616 169.29032258064515 452.1290322580645 176.51612903225808 Q 463.48387096774195 205.41935483870967 465.5483870967742 237.41935483870967 Q 465.5483870967742 239.48387096774192 465.5483870967742 241.5483870967742 Q 465.5483870967742 241.5483870967742 465.5483870967742 242.58064516129033 Q 465.5483870967742 257.03225806451616 462.4516129032258 271.48387096774195 Q 460.38709677419354 277.6774193548387 459.35483870967744 282.83870967741933 Q 453.16129032258067 305.5483870967742 440.7741935483871 326.19354838709677 Q 427.35483870967744 345.80645161290323 407.741935483871 358.19354838709677 Q 398.4516129032258 364.38709677419354 389.16129032258067 368.51612903225805 Q 379.8709677419355 371.61290322580646 370.5806451612903 373.6774193548387 Q 360.258064516129 374.7096774193548 349.93548387096774 374.7096774193548 Q 337.5483870967742 373.6774193548387 326.19354838709677 369.5483870967742 Q 325.16129032258067 369.5483870967742 324.1290322580645 368.51612903225805 Q 322.06451612903226 367.48387096774195 320 367.48387096774195 Q 320 365.4193548387097 321.03225806451616 363.35483870967744 Q 321.03225806451616 363.35483870967744 321.03225806451616 362.3225806451613 Q 323.0967741935484 354.06451612903226 327.2258064516129 345.80645161290323 Q 330.3225806451613 338.5806451612903 336.51612903225805 333.4193548387097 Q 340.64516129032256 330.3225806451613 344.7741935483871 328.258064516129 Q 348.9032258064516 326.19354838709677 353.03225806451616 326.19354838709677 Q 355.0967741935484 325.16129032258067 357.16129032258067 325.16129032258067 Q 367.48387096774195 323.0967741935484 378.83870967741933 317.93548387096774 Q 394.3225806451613 310.7096774193548 406.7096774193548 298.3225806451613 Q 407.741935483871 297.2903225806452 408.7741935483871 296.258064516129 Q 409.80645161290323 295.2258064516129 411.8709677419355 293.16129032258067 Q 417.03225806451616 286.96774193548384 422.19354838709677 280.7741935483871 Q 433.5483870967742 265.2903225806452 439.741935483871 246.70967741935485 Q 439.741935483871 245.67741935483872 439.741935483871 245.67741935483872 Q 441.80645161290323 237.41935483870967 443.8709677419355 230.19354838709677 Q 444.9032258064516 226.06451612903226 444.9032258064516 222.96774193548387 Q 444.9032258064516 221.93548387096774 444.9032258064516 220.90322580645162 Q 446.96774193548384 211.61290322580646 446.96774193548384 202.32258064516128 Q 446.96774193548384 192 445.93548387096774 181.67741935483872 Q 444.9032258064516 169.29032258064515 442.83870967741933 156.90322580645162 L 442.83870967741933 156.90322580645162 Z" />
</svg>