<svg xmlns="http://www.w3.org/2000/svg" viewBox="0 0 448 448">
    <path d="M 392 0 L 56 0 Q 32 1 16 16 Q 1 32 0 56 L 0 392 Q 1 416 16 432 Q 32 447 56 448 L 392 448 Q 416 447 432 432 Q 447 416 448 392 L 448 56 Q 447 32 432 16 Q 416 1 392 0 L 392 0 Z M 284 82 Q 286 67 299 67 L 299 67 Q 312 67 314 82 L 314 282 Q 312 296 299 296 Q 286 296 284 282 L 284 82 L 284 82 Z M 209 75 Q 211 60 224 60 L 224 60 Q 237 60 239 75 L 239 291 Q 237 306 224 306 Q 211 306 209 291 L 209 75 L 209 75 Z M 134 82 Q 136 67 149 67 L 149 67 Q 162 67 164 82 L 164 282 Q 162 296 149 296 Q 136 296 134 282 L 134 82 L 134 82 Z M 60 112 Q 62 97 75 97 L 75 97 Q 88 97 90 112 L 90 246 Q 88 261 75 261 Q 62 261 60 246 L 60 112 L 60 112 Z M 383 340 Q 345 371 285 382 L 285 382 Q 226 393 165 383 L 165 383 Q 105 372 65 340 Q 55 329 63 319 Q 72 309 84 317 Q 119 345 172 354 Q 225 363 278 353 Q 331 344 364 317 Q 376 309 385 319 Q 393 329 383 340 L 383 340 Z M 388 246 Q 386 261 373 261 L 373 261 Q 360 261 358 246 L 358 112 Q 360 97 373 97 Q 386 97 388 112 L 388 246 L 388 246 Z"/>
</svg>
