<svg xmlns="http://www.w3.org/2000/svg" viewBox="0 0 512 512">
  <path d="M 512 73.14285714285714 Q 510.85714285714283 42.285714285714285 490.2857142857143 21.714285714285715 L 490.2857142857143 21.714285714285715 L 490.2857142857143 21.714285714285715 Q 469.7142857142857 1.1428571428571428 438.85714285714283 0 L 73.14285714285714 0 L 73.14285714285714 0 Q 42.285714285714285 1.1428571428571428 21.714285714285715 21.714285714285715 Q 1.1428571428571428 42.285714285714285 0 73.14285714285714 L 0 438.85714285714283 L 0 438.85714285714283 Q 1.1428571428571428 469.7142857142857 21.714285714285715 490.2857142857143 Q 42.285714285714285 510.85714285714283 73.14285714285714 512 L 438.85714285714283 512 L 438.85714285714283 512 Q 469.7142857142857 510.85714285714283 490.2857142857143 490.2857142857143 Q 510.85714285714283 469.7142857142857 512 438.85714285714283 L 512 73.14285714285714 L 512 73.14285714285714 Z M 304 429.7142857142857 Q 304 426.2857142857143 304 416 Q 304 394.2857142857143 304 365.7142857142857 Q 302.85714285714283 339.42857142857144 291.42857142857144 331.42857142857144 Q 324.57142857142856 329.14285714285717 350.85714285714283 315.42857142857144 Q 376 300.57142857142856 378.2857142857143 248 Q 377.14285714285717 219.42857142857142 358.85714285714283 203.42857142857142 Q 360 198.85714285714286 362.2857142857143 185.14285714285714 Q 363.42857142857144 171.42857142857142 356.57142857142856 152 Q 342.85714285714283 149.71428571428572 324.57142857142856 160 Q 306.2857142857143 170.28571428571428 304 171.42857142857142 Q 304 171.42857142857142 304 171.42857142857142 Q 281.14285714285717 165.71428571428572 257.14285714285717 165.71428571428572 Q 232 165.71428571428572 209.14285714285714 171.42857142857142 Q 206.85714285714286 170.28571428571428 188.57142857142858 160 Q 170.28571428571428 149.71428571428572 156.57142857142858 152 Q 149.71428571428572 171.42857142857142 150.85714285714286 185.14285714285714 Q 153.14285714285714 198.85714285714286 155.42857142857142 203.42857142857142 Q 137.14285714285714 219.42857142857142 137.14285714285714 248 Q 138.28571428571428 300.57142857142856 163.42857142857142 314.2857142857143 Q 188.57142857142858 329.14285714285717 221.71428571428572 331.42857142857144 Q 213.71428571428572 338.2857142857143 210.28571428571428 356.57142857142856 Q 201.14285714285714 361.14285714285717 184 361.14285714285717 Q 168 361.14285714285717 154.28571428571428 340.57142857142856 Q 146.28571428571428 328 136 324.57142857142856 Q 126.85714285714286 321.14285714285717 125.71428571428571 321.14285714285717 Q 113.14285714285714 322.2857142857143 117.71428571428571 326.85714285714283 Q 122.28571428571429 332.57142857142856 124.57142857142857 332.57142857142856 Q 133.71428571428572 338.2857142857143 139.42857142857142 348.57142857142856 Q 145.14285714285714 358.85714285714283 145.14285714285714 360 Q 156.57142857142858 384 181.71428571428572 384 Q 206.85714285714286 385.14285714285717 209.14285714285714 382.85714285714283 Q 209.14285714285714 390.85714285714283 209.14285714285714 400 Q 209.14285714285714 410.2857142857143 209.14285714285714 418.2857142857143 Q 209.14285714285714 422.85714285714283 209.14285714285714 426.2857142857143 Q 209.14285714285714 428.57142857142856 210.28571428571428 429.7142857142857 Q 210.28571428571428 438.85714285714283 196.57142857142858 438.85714285714283 Q 139.42857142857142 418.2857142857143 104 370.2857142857143 Q 69.71428571428571 321.14285714285717 68.57142857142857 257.14285714285717 Q 69.71428571428571 177.14285714285714 121.14285714285714 125.71428571428571 Q 172.57142857142858 74.28571428571429 253.71428571428572 73.14285714285714 Q 333.7142857142857 74.28571428571429 387.42857142857144 125.71428571428571 Q 441.14285714285717 177.14285714285714 443.42857142857144 257.14285714285717 Q 442.2857142857143 321.14285714285717 408 370.2857142857143 Q 374.85714285714283 418.2857142857143 316.57142857142856 438.85714285714283 Q 302.85714285714283 438.85714285714283 304 429.7142857142857 L 304 429.7142857142857 Z M 200 366.85714285714283 Q 200 363.42857142857144 203.42857142857142 363.42857142857144 Q 208 363.42857142857144 208 365.7142857142857 Q 208 368 204.57142857142858 369.14285714285717 Q 201.14285714285714 369.14285714285717 200 366.85714285714283 L 200 366.85714285714283 Z M 189.71428571428572 370.2857142857143 Q 186.28571428571428 370.2857142857143 185.14285714285714 368 Q 186.28571428571428 365.7142857142857 189.71428571428572 364.57142857142856 Q 193.14285714285714 364.57142857142856 194.28571428571428 368 Q 193.14285714285714 370.2857142857143 189.71428571428572 370.2857142857143 L 189.71428571428572 370.2857142857143 Z M 173.71428571428572 368 Q 170.28571428571428 366.85714285714283 170.28571428571428 364.57142857142856 Q 171.42857142857142 362.2857142857143 174.85714285714286 362.2857142857143 Q 178.28571428571428 363.42857142857144 178.28571428571428 366.85714285714283 Q 177.14285714285714 369.14285714285717 173.71428571428572 368 L 173.71428571428572 368 Z M 158.85714285714286 360 Q 156.57142857142858 356.57142857142856 157.71428571428572 355.42857142857144 Q 160 353.14285714285717 163.42857142857142 355.42857142857144 Q 165.71428571428572 358.85714285714283 164.57142857142858 360 Q 162.28571428571428 362.2857142857143 158.85714285714286 360 L 158.85714285714286 360 Z M 149.71428571428572 348.57142857142856 Q 147.42857142857142 345.14285714285717 149.71428571428572 344 Q 152 342.85714285714283 154.28571428571428 345.14285714285717 Q 155.42857142857142 348.57142857142856 154.28571428571428 349.7142857142857 Q 152 350.85714285714283 149.71428571428572 348.57142857142856 L 149.71428571428572 348.57142857142856 Z M 142.85714285714286 338.2857142857143 Q 140.57142857142858 336 141.71428571428572 333.7142857142857 Q 144 332.57142857142856 146.28571428571428 334.85714285714283 Q 147.42857142857142 337.14285714285717 146.28571428571428 338.2857142857143 Q 144 340.57142857142856 142.85714285714286 338.2857142857143 L 142.85714285714286 338.2857142857143 Z M 136 330.2857142857143 Q 133.71428571428572 329.14285714285717 133.71428571428572 328 Q 134.85714285714286 326.85714285714283 137.14285714285714 326.85714285714283 Q 139.42857142857142 329.14285714285717 138.28571428571428 330.2857142857143 Q 138.28571428571428 331.42857142857144 136 330.2857142857143 L 136 330.2857142857143 Z" />
</svg>