<svg xmlns="http://www.w3.org/2000/svg" viewBox="0 0 512 512">
  <path d="M 417.73643410852713 291.72093023255815 L 419.72093023255815 293.70542635658916 L 417.73643410852713 291.72093023255815 L 419.72093023255815 293.70542635658916 L 251.03875968992247 128 L 251.03875968992247 128 Q 245.08527131782947 123.03875968992249 238.13953488372093 127.0077519379845 L 180.5891472868217 170.66666666666666 L 180.5891472868217 170.66666666666666 Q 174.63565891472868 176.6201550387597 179.5968992248062 182.57364341085272 L 247.06976744186048 247.06976744186048 L 247.06976744186048 247.06976744186048 Q 254.015503875969 252.03100775193798 260.9612403100775 247.06976744186048 L 260.9612403100775 247.06976744186048 L 260.9612403100775 247.06976744186048 Q 268.8992248062016 242.10852713178295 274.85271317829455 247.06976744186048 L 358.2015503875969 328.4341085271318 L 358.2015503875969 328.4341085271318 Q 364.15503875968994 334.38759689922483 358.2015503875969 340.3410852713178 L 264.93023255813955 413.7674418604651 L 264.93023255813955 413.7674418604651 Q 257.984496124031 418.72868217054264 251.03875968992247 413.7674418604651 L 100.21705426356588 266.91472868217056 L 100.21705426356588 266.91472868217056 Q 94.26356589147287 261.95348837209303 86.32558139534883 266.91472868217056 L 41.674418604651166 300.6511627906977 L 41.674418604651166 300.6511627906977 Q 34.72868217054263 306.6046511627907 39.689922480620154 313.5503875968992 L 247.06976744186048 508.031007751938 L 247.06976744186048 508.031007751938 Q 247.06976744186048 508.031007751938 252.03100775193798 510.015503875969 Q 256.9922480620155 512 263.93798449612405 507.0387596899225 L 460.4031007751938 344.31007751937983 L 460.4031007751938 344.31007751937983 Q 466.3565891472868 338.3565891472868 461.3953488372093 332.4031007751938 L 417.73643410852713 291.72093023255815 Z M 471.3178294573643 208.37209302325581 L 262.94573643410854 3.9689922480620154 L 471.3178294573643 208.37209302325581 L 262.94573643410854 3.9689922480620154 Q 260.9612403100775 1.9844961240310077 256.9922480620155 0.9922480620155039 Q 253.02325581395348 0 246.07751937984497 4.961240310077519 L 41.674418604651166 165.70542635658916 L 41.674418604651166 165.70542635658916 Q 34.72868217054263 171.65891472868216 39.689922480620154 177.6124031007752 L 82.35658914728683 219.28682170542635 L 82.35658914728683 219.28682170542635 L 252.03100775193798 383.0077519379845 L 252.03100775193798 383.0077519379845 Q 258.9767441860465 387.968992248062 266.91472868217056 383.0077519379845 L 316.52713178294573 344.31007751937983 L 316.52713178294573 344.31007751937983 L 316.52713178294573 344.31007751937983 L 316.52713178294573 344.31007751937983 L 323.47286821705427 338.3565891472868 L 323.47286821705427 338.3565891472868 Q 330.4186046511628 332.4031007751938 324.4651162790698 326.4496124031008 L 267.90697674418607 271.8759689922481 L 267.90697674418607 271.8759689922481 Q 260.9612403100775 266.91472868217056 254.015503875969 271.8759689922481 L 254.015503875969 271.8759689922481 L 254.015503875969 271.8759689922481 Q 246.07751937984497 276.83720930232556 240.12403100775194 271.8759689922481 L 145.86046511627907 180.5891472868217 L 145.86046511627907 180.5891472868217 Q 140.89922480620154 174.63565891472868 146.85271317829458 168.68217054263565 L 238.13953488372093 97.24031007751938 L 238.13953488372093 97.24031007751938 Q 246.07751937984497 92.27906976744185 252.03100775193798 98.23255813953489 L 411.7829457364341 256 L 411.7829457364341 256 Q 417.73643410852713 260.9612403100775 425.6744186046512 256 L 470.3255813953488 220.27906976744185 L 470.3255813953488 220.27906976744185 Q 477.27131782945736 214.32558139534885 471.3178294573643 208.37209302325581 L 471.3178294573643 208.37209302325581 Z" />
</svg>