<svg xmlns="http://www.w3.org/2000/svg" viewBox="0 0 512 512">
  <path d="M 190.96774 302.4516 Q 190.96774 275.6129 206.45161 250.83871 L 206.45161 250.83871 L 206.45161 250.83871 Q 221.93549 226.06451 242.58064 202.32259 L 242.58064 202.32259 L 242.58064 202.32259 Q 264.25806 178.58064 281.80646 151.74193 L 281.80646 151.74193 L 281.80646 151.74193 Q 298.32257 124.90323 299.35483 92.90323 Q 297.2903 55.741936 280.7742 28.903225 Q 264.25806 3.096774 259.09677 0 Q 259.09677 5.16129 259.09677 10.32258 Q 258.0645 43.35484 237.41936 73.29032 Q 217.80646 103.22581 189.93549 133.16129 Q 157.93549 166.19354 133.16129 203.35484 Q 108.3871 241.54839 107.354836 288 Q 108.3871 325.1613 128 352 Q 148.64516 377.80646 176.51613 399.48386 Q 225.03226 435.6129 241.54839 456.25806 Q 258.0645 476.90323 257.03226 489.2903 Q 256 497.5484 253.93549 503.74194 Q 251.87097 507.87097 251.87097 512 Q 270.4516 486.19354 269.41934 463.48386 Q 269.41934 442.8387 257.03226 422.19354 Q 245.67741 402.58066 229.16129 380.90323 Q 226.06451 377.80646 224 374.7097 Q 221.93549 371.6129 219.87097 368.51614 Q 208.51613 353.03226 199.2258 337.5484 Q 190.96774 322.0645 190.96774 302.4516 L 190.96774 302.4516 Z M 402.58066 262.19354 Q 395.35483 228.12903 375.74194 198.19354 L 375.74194 198.19354 L 375.74194 198.19354 Q 355.09677 169.29033 334.4516 149.67741 L 334.4516 149.67741 L 334.4516 149.67741 Q 313.80646 131.09677 304.51614 128 L 308.64517 135.2258 L 308.64517 135.2258 Q 312.7742 142.45161 311.74194 152.7742 Q 310.7097 182.70967 291.09677 214.70967 Q 272.51614 247.74193 260.12903 264.25806 Q 254.96774 271.48386 253.93549 273.5484 Q 250.83871 280.7742 250.83871 289.03226 Q 251.87097 305.5484 259.09677 318.96774 Q 266.32257 332.3871 269.41934 332.3871 Q 271.48386 332.3871 284.90323 316.90323 Q 299.35483 301.41934 313.80646 280.7742 Q 327.2258 260.12903 329.2903 242.58064 Q 338.58066 260.12903 338.58066 276.64517 Q 337.5484 298.32257 327.2258 321.03226 Q 316.90323 344.7742 306.58066 360.25806 Q 296.25806 375.74194 295.2258 376.7742 Q 295.2258 376.7742 295.2258 376.7742 Q 297.2903 388.12903 311.74194 408.7742 Q 327.2258 429.41934 331.35483 431.48386 Q 333.41934 431.48386 334.4516 429.41934 Q 334.4516 429.41934 335.48386 429.41934 Q 365.41934 398.4516 385.03226 363.35483 Q 403.6129 328.25806 404.64517 288 Q 404.64517 275.6129 402.58066 262.19354 L 402.58066 262.19354 Z" />
</svg>