<svg xmlns="http://www.w3.org/2000/svg" viewBox="0 0 320 512">
    <path d="M 118 238 Q 119 234 121 229 L 121 229 Q 123 220 125 213 L 125 213 Q 128 205 132 205 Q 138 208 142 222 Q 145 232 150 241 Q 152 228 154 207 Q 156 187 158 172 Q 160 156 164 155 Q 170 157 176 181 Q 182 206 185 224 Q 186 230 186 232 Q 196 235 214 237 Q 233 239 235 239 Q 235 244 222 245 Q 208 247 195 247 Q 195 247 195 247 Q 193 253 192 259 Q 189 273 184 275 Q 180 273 176 256 Q 173 241 166 225 L 157 291 Q 154 297 149 286 Q 143 275 138 260 Q 136 255 135 251 Q 135 251 134 251 Q 130 251 116 250 Q 102 250 92 248 Q 81 246 87 243 L 118 238 L 118 238 Z M 228 448 Q 244 446 244 432 L 244 432 Q 244 418 228 416 L 92 416 Q 76 418 76 432 Q 76 446 92 448 L 228 448 L 228 448 Z M 204 512 Q 220 510 220 496 L 220 496 Q 220 482 204 480 L 116 480 Q 100 482 100 496 Q 100 510 116 512 L 204 512 L 204 512 Z M 238 371 Q 239 366 240 362 L 240 362 Q 242 338 250 322 Q 262 300 274 281 Q 274 280 274 280 Q 293 251 306 221 Q 319 192 320 155 Q 318 89 273 46 Q 228 2 160 0 Q 92 2 47 46 Q 2 89 0 155 Q 1 192 14 222 Q 27 251 46 281 Q 46 281 46 281 Q 58 300 70 322 Q 78 338 80 363 Q 81 367 82 371 Q 86 386 101 384 Q 115 381 114 366 Q 114 361 113 357 Q 110 330 99 307 Q 86 284 74 264 Q 57 237 45 211 Q 33 186 33 155 Q 34 103 70 68 Q 106 33 160 32 Q 214 33 250 68 Q 286 103 287 155 Q 287 186 275 211 Q 263 237 246 264 Q 234 284 221 307 Q 210 330 207 356 Q 206 361 206 365 Q 205 381 219 384 Q 233 386 238 371 L 238 371 Z"/>
</svg>
