<svg xmlns="http://www.w3.org/2000/svg" viewBox="0 0 512 512">
  <path d="M 234.28572 163.42857 Q 234.28572 181.71428 224 194.28572 L 224 194.28572 L 224 194.28572 Q 213.71428 205.71428 198.85715 206.85715 Q 186.28572 206.85715 178.28572 202.28572 L 178.28572 124.57143 L 178.28572 124.57143 Q 186.28572 120 198.85715 120 Q 213.71428 120 224 132.57143 Q 234.28572 145.14285 234.28572 163.42857 L 234.28572 163.42857 Z M 294.85715 240 Q 282.2857 240 275.42856 244.57143 L 275.42856 322.2857 L 275.42856 322.2857 Q 282.2857 326.85715 294.85715 326.85715 Q 309.7143 325.7143 320 313.14285 Q 330.2857 301.7143 331.42856 283.42856 Q 330.2857 264 320 252.57143 Q 309.7143 240 294.85715 240 L 294.85715 240 Z M 512 54.857143 L 512 457.14285 L 512 54.857143 L 512 457.14285 Q 510.85715 480 496 496 Q 480 510.85715 457.14285 512 L 54.857143 512 L 54.857143 512 Q 32 510.85715 16 496 Q 1.1428572 480 0 457.14285 L 0 54.857143 L 0 54.857143 Q 1.1428572 32 16 16 Q 32 1.1428572 54.857143 0 L 457.14285 0 L 457.14285 0 Q 480 1.1428572 496 16 Q 510.85715 32 512 54.857143 L 512 54.857143 Z M 211.42857 254.85715 Q 248 253.71428 270.85715 228.57143 L 270.85715 228.57143 L 270.85715 228.57143 Q 294.85715 202.28572 296 164.57143 Q 294.85715 125.71429 270.85715 99.42857 Q 248 74.28571 211.42857 73.14286 Q 190.85715 73.14286 171.42857 83.42857 L 120 83.42857 L 120 83.42857 L 120 318.85715 L 120 318.85715 L 179.42857 307.42856 L 179.42857 307.42856 L 179.42857 249.14285 L 179.42857 249.14285 Q 193.14285 254.85715 211.42857 254.85715 L 211.42857 254.85715 Z M 392 283.42856 Q 392 245.71428 368 219.42857 L 368 219.42857 L 368 219.42857 Q 344 194.28572 308.57144 193.14285 Q 302.85715 193.14285 297.14285 193.14285 Q 290.2857 214.85715 275.42856 232 Q 250.28572 258.2857 216 260.57144 L 216 438.85715 L 216 438.85715 L 275.42856 427.42856 L 275.42856 427.42856 L 275.42856 369.14285 L 275.42856 369.14285 Q 290.2857 374.85715 307.42856 374.85715 Q 344 373.7143 368 348.57144 Q 392 322.2857 392 283.42856 L 392 283.42856 Z" />
</svg>