<svg xmlns="http://www.w3.org/2000/svg" viewBox="0 0 448 448">
    <path d="M 0 224 Q 1 161 31 111 L 31 111 Q 61 60 111 31 L 111 31 Q 161 1 224 0 Q 287 1 337 31 Q 388 60 417 111 Q 447 161 448 224 Q 447 287 417 337 Q 388 388 337 417 Q 287 447 224 448 L 51 448 Q 29 447 15 433 Q 1 419 0 397 L 0 397 L 0 224 L 0 224 L 0 224 Z M 343 161 Q 342 130 320 112 L 320 112 Q 299 93 269 92 Q 243 93 223 110 Q 203 126 199 152 Q 199 154 199 155 Q 199 157 199 161 Q 199 166 199 172 Q 199 198 198 225 Q 200 265 198 302 Q 198 322 185 335 Q 173 347 153 347 Q 134 347 121 334 Q 108 321 108 302 Q 109 281 122 268 Q 136 256 156 256 L 156 256 L 183 255 L 183 218 L 156 218 Q 120 219 96 242 Q 72 266 70 302 Q 71 337 95 360 Q 118 384 153 385 Q 186 384 209 362 Q 232 341 236 309 L 236 255 L 269 255 Q 288 253 288 236 Q 288 220 269 218 L 236 218 Q 236 213 236 208 Q 236 204 236 199 Q 236 180 236 161 Q 237 148 246 139 Q 256 130 269 130 Q 283 129 294 137 Q 305 144 305 161 Q 305 165 305 167 Q 304 185 321 189 Q 338 190 342 172 Q 343 166 343 161 L 343 161 L 343 161 Z"/>
</svg>
