<svg xmlns="http://www.w3.org/2000/svg" viewBox="0 0 512 512">
  <path d="M 280 228.57143 Q 280 236.57143 274.2857 244.57143 L 274.2857 244.57143 L 274.2857 244.57143 Q 269.7143 251.42857 254.85715 252.57143 L 233.14285 252.57143 L 233.14285 252.57143 L 233.14285 204.57143 L 233.14285 204.57143 L 254.85715 204.57143 L 254.85715 204.57143 Q 269.7143 205.71428 274.2857 213.71428 Q 280 220.57143 280 228.57143 L 280 228.57143 Z M 512 0 L 512 512 L 512 0 L 512 512 L 0 512 L 0 512 L 0 0 L 512 0 Z M 172.57143 292.57144 Q 176 257.14285 120 241.14285 Q 86.85714 230.85715 90.28571 219.42857 Q 90.28571 204.57143 113.14286 203.42857 Q 137.14285 204.57143 137.14285 224 L 171.42857 224 L 172.57143 224 Q 172.57143 205.71428 158.85715 190.85715 Q 144 177.14285 114.28571 176 Q 92.57143 176 74.28571 186.28572 Q 54.857143 196.57143 53.714287 219.42857 Q 52.57143 235.42857 65.14286 248 Q 76.57143 259.42856 112 270.85715 Q 139.42857 278.85715 137.14285 292.57144 Q 136 305.14285 125.71429 307.42856 Q 116.57143 309.7143 114.28571 308.57144 Q 114.28571 308.57144 114.28571 308.57144 Q 82.28571 307.42856 85.71429 283.42856 L 50.285713 283.42856 L 50.285713 283.42856 L 50.285713 284.57144 L 50.285713 284.57144 Q 50.285713 310.85715 69.71429 323.42856 Q 89.14286 336 114.28571 336 Q 169.14285 336 172.57143 292.57144 L 172.57143 292.57144 Z M 316.57144 228.57143 Q 316.57144 206.85715 300.57144 192 L 300.57144 192 L 300.57144 192 Q 285.7143 177.14285 254.85715 177.14285 L 195.42857 177.14285 L 195.42857 177.14285 L 195.42857 334.85715 L 195.42857 334.85715 L 233.14285 334.85715 L 233.14285 334.85715 L 233.14285 281.14285 L 233.14285 281.14285 L 254.85715 281.14285 L 254.85715 281.14285 Q 281.14285 280 298.2857 267.42856 Q 315.42856 253.71428 316.57144 228.57143 L 316.57144 228.57143 Z M 340.57144 334.85715 L 396.57144 177.14285 L 340.57144 334.85715 L 396.57144 177.14285 L 361.14285 177.14285 L 361.14285 177.14285 L 306.2857 334.85715 L 340.57144 334.85715 Z M 461.7143 177.14285 L 426.2857 177.14285 L 461.7143 177.14285 L 426.2857 177.14285 L 371.42856 334.85715 L 371.42856 334.85715 L 405.7143 334.85715 L 461.7143 177.14285 Z" />
</svg>