<svg xmlns="http://www.w3.org/2000/svg" viewBox="0 0 512 512">
  <path d="M 475.42856 361.14285 Q 474.2857 369.14285 470.85715 400 L 470.85715 400 L 470.85715 400 Q 466.2857 430.85715 462.85715 464 L 462.85715 464 L 462.85715 464 Q 459.42856 497.14285 458.2857 512 Q 358.85715 508.57144 260.57144 508.57144 Q 162.28572 507.42856 36.57143 512 L 36.57143 483.42856 L 36.57143 483.42856 Q 45.714287 481.14285 53.714287 480 Q 82.28571 475.42856 94.85714 468.57144 Q 106.28571 461.7143 106.28571 442.2857 Q 107.42857 398.85715 108.57143 330.2857 Q 108.57143 261.7143 108.57143 190.85715 Q 108.57143 121.14286 106.28571 74.28571 Q 106.28571 53.714287 94.85714 48 Q 84.57143 41.142857 53.714287 36.57143 Q 45.714287 35.42857 36.57143 33.142857 L 36.57143 4.571429 L 36.57143 4.571429 Q 38.857143 4.571429 42.285713 4.571429 Q 88 5.714286 161.14285 8 Q 234.28572 9.142858 312 8 Q 389.7143 6.857143 451.42856 0 Q 449.14285 22.857143 446.85715 57.142857 Q 445.7143 90.28571 444.57144 116.57143 Q 442.2857 142.85715 442.2857 144 Q 442.2857 144 442.2857 145.14285 L 416 145.14285 L 416 145.14285 Q 413.7143 137.14285 412.57144 129.14285 Q 404.57144 94.85714 392 68.57143 Q 380.57144 42.285713 353.14285 41.142857 L 196.57143 41.142857 L 196.57143 41.142857 Q 181.71428 41.142857 185.14285 52.57143 L 185.14285 240 L 185.14285 240 Q 284.57144 238.85715 285.7143 236.57143 Q 307.42856 236.57143 314.2857 226.28572 Q 321.14285 216 328 182.85715 Q 329.14285 173.71428 332.57144 162.28572 L 362.2857 162.28572 L 362.2857 162.28572 Q 360 190.85715 360 208 Q 358.85715 235.42857 357.7143 249.14285 Q 357.7143 261.7143 357.7143 281.14285 Q 358.85715 299.42856 360 345.14285 L 330.2857 345.14285 L 330.2857 345.14285 Q 328 336 326.85715 328 Q 322.2857 301.7143 314.2857 289.14285 Q 307.42856 275.42856 284.57144 274.2857 Q 285.7143 274.2857 262.85715 273.14285 Q 241.14285 273.14285 184 272 L 184 430.85715 L 184 430.85715 Q 184 475.42856 235.42857 475.42856 L 337.14285 475.42856 L 337.14285 475.42856 Q 384 475.42856 402.2857 456 Q 420.57144 435.42856 438.85715 386.2857 Q 444.57144 374.85715 450.2857 361.14285 L 475.42856 361.14285 L 475.42856 361.14285 Z" />
</svg>