<svg xmlns="http://www.w3.org/2000/svg" viewBox="0 0 512 512">
  <path d="M 346.2982 174.08 Q 355.60727 174.08 363.98544 175.01091 Q 350.95273 119.156364 299.75272 83.781815 Q 249.48364 48.407272 181.52727 47.476364 Q 104.26182 49.33818 53.061817 92.16 Q 1.8618182 134.98181 0 201.07637 Q 1.8618182 276.48 72.61091 323.95636 L 54.923637 378.88 L 54.923637 378.88 L 118.22546 347.2291 L 118.22546 347.2291 Q 122.88 348.16 128.46545 349.0909 Q 154.53091 354.67636 181.52727 355.60727 Q 189.90546 355.60727 198.28363 354.67636 Q 192.69818 336.9891 192.69818 317.44 Q 194.56 256 237.38182 215.9709 Q 280.20364 175.01091 346.2982 174.08 L 346.2982 174.08 Z M 249.48364 124.74182 Q 270.89453 125.67273 271.82544 147.08363 Q 270.89453 168.49455 249.48364 169.42546 Q 238.31273 169.42546 230.86545 163.84 Q 222.48727 157.32364 221.55637 147.08363 Q 222.48727 136.84364 230.86545 130.32727 Q 238.31273 124.74182 249.48364 124.74182 L 249.48364 124.74182 Z M 121.94909 169.42546 Q 111.70909 169.42546 103.33091 163.84 L 103.33091 163.84 L 103.33091 163.84 Q 94.95273 157.32364 94.95273 147.08363 Q 94.95273 136.84364 103.33091 130.32727 Q 111.70909 124.74182 121.94909 124.74182 Q 144.29091 125.67273 145.22182 147.08363 Q 144.29091 168.49455 121.94909 169.42546 L 121.94909 169.42546 Z M 512 314.64728 Q 510.13818 258.79272 465.45456 222.48727 L 465.45456 222.48727 L 465.45456 222.48727 Q 420.7709 185.25092 358.4 183.38908 Q 291.37454 185.25092 248.55273 222.48727 Q 205.73091 258.79272 203.8691 314.64728 Q 205.73091 370.50183 248.55273 407.7382 Q 291.37454 444.97455 358.4 446.83636 Q 383.53455 445.90546 409.6 438.4582 Q 410.5309 437.52728 412.39273 437.52728 L 462.6618 464.52365 L 462.6618 464.52365 L 448.69818 419.84 L 448.69818 419.84 Q 476.62546 398.42908 494.3127 372.36365 Q 511.0691 345.36728 512 314.64728 L 512 314.64728 Z M 308.13092 292.30545 Q 300.68362 292.30545 296.02908 286.72 L 296.02908 286.72 L 296.02908 286.72 Q 290.44363 281.13455 290.44363 273.6873 Q 290.44363 267.1709 296.02908 261.58545 Q 300.68362 256 308.13092 256 Q 329.5418 257.86182 330.47272 273.6873 Q 329.5418 290.44363 308.13092 292.30545 L 308.13092 292.30545 Z M 407.7382 292.30545 Q 400.29092 292.30545 395.63635 286.72 L 395.63635 286.72 L 395.63635 286.72 Q 390.0509 281.13455 390.0509 273.6873 Q 390.0509 267.1709 395.63635 261.58545 Q 400.29092 256 407.7382 256 Q 429.14908 257.86182 430.08 273.6873 Q 429.14908 290.44363 407.7382 292.30545 L 407.7382 292.30545 Z" />
</svg>