<svg xmlns="http://www.w3.org/2000/svg" viewBox="0 0 512 512">
  <path d="M 318.35247524752475 38.01980198019802 Q 231.16039603960397 41.06138613861386 179.45346534653464 101.8930693069307 L 179.45346534653464 101.8930693069307 L 179.45346534653464 101.8930693069307 Q 126.73267326732673 162.72475247524753 121.66336633663366 244.84752475247524 L 121.66336633663366 244.84752475247524 L 121.66336633663366 244.84752475247524 Q 116.5940594059406 327.9841584158416 168.3009900990099 397.94059405940595 Q 196.6891089108911 432.4118811881188 235.21584158415843 453.7029702970297 Q 272.72871287128714 473.980198019802 318.35247524752475 473.980198019802 Q 374.1148514851485 473.980198019802 418.7247524752475 443.56435643564356 Q 349.7821782178218 505.409900990099 251.43762376237623 507.43762376237623 Q 245.35445544554455 507.43762376237623 239.27128712871288 507.43762376237623 Q 172.35643564356437 503.3821782178218 117.60792079207921 468.91089108910893 Q 63.87326732673267 435.45346534653464 32.443564356435644 379.6910891089109 Q 1.0138613861386139 323.92871287128713 0 256 Q 1.0138613861386139 186.04356435643564 34.47128712871287 129.26732673267327 Q 67.92871287128713 72.49108910891088 124.7049504950495 39.03366336633663 Q 181.48118811881187 5.576237623762376 251.43762376237623 4.562376237623762 L 252.45148514851485 4.562376237623762 L 252.45148514851485 4.562376237623762 Q 350.7960396039604 7.603960396039604 418.7247524752475 68.43564356435644 Q 374.1148514851485 38.01980198019802 318.35247524752475 38.01980198019802 L 318.35247524752475 38.01980198019802 Z M 421.76633663366334 440.5227722772277 Q 389.3227722772277 459.7861386138614 354.8514851485148 458.7722772277228 L 354.8514851485148 458.7722772277228 L 354.8514851485148 458.7722772277228 Q 319.36633663366337 457.75841584158417 287.93663366336636 435.45346534653464 Q 331.53267326732674 418.2178217821782 358.9069306930693 369.55247524752474 Q 386.2811881188119 321.9009900990099 386.2811881188119 256 Q 386.2811881188119 190.0990099009901 358.9069306930693 142.44752475247526 Q 331.53267326732674 93.78217821782178 287.93663366336636 76.54653465346534 Q 320.380198019802 55.255445544554455 354.8514851485148 53.227722772277225 Q 390.33663366336634 52.21386138613861 422.78019801980196 71.47722772277228 Q 476.51485148514854 123.18415841584158 493.75049504950493 190.0990099009901 Q 512 257.0138613861386 493.75049504950493 322.9148514851485 Q 475.5009900990099 389.82970297029703 421.76633663366334 440.5227722772277 L 421.76633663366334 440.5227722772277 Z" />
</svg>