<svg xmlns="http://www.w3.org/2000/svg" viewBox="0 0 496 496">
    <path d="M 248 0 Q 179 1 123 34 L 123 34 Q 67 67 34 123 L 34 123 Q 1 179 0 248 Q 1 317 34 373 Q 67 429 123 462 Q 179 495 248 496 Q 317 495 373 462 Q 429 429 462 373 Q 495 317 496 248 Q 495 179 462 123 Q 429 67 373 34 Q 317 1 248 0 L 248 0 Z M 248 483 Q 182 482 129 451 L 129 451 Q 77 419 45 366 L 45 366 Q 14 313 13 248 Q 14 182 45 129 Q 77 76 129 45 Q 182 14 248 13 Q 314 14 367 45 Q 419 76 451 129 Q 482 182 483 248 Q 482 313 451 366 Q 419 419 367 451 Q 314 482 248 483 L 248 483 Z M 403 154 L 403 107 L 209 107 L 209 189 L 54 189 L 91 235 L 209 235 L 209 432 L 257 432 L 257 236 L 341 236 L 341 189 L 257 189 L 257 154 L 403 154 L 403 154 Z M 330 199 L 330 223 L 247 223 L 247 420 L 220 420 L 220 223 L 96 223 L 76 199 L 220 199 L 220 119 L 392 119 L 392 143 L 247 143 L 247 199 L 330 199 Z M 168 130 L 156 109 L 158 133 L 135 139 L 158 144 L 156 168 L 168 148 L 190 157 L 175 139 L 191 121 L 168 130 Z M 139 110 L 148 99 L 135 105 L 127 92 L 129 106 L 115 110 L 129 113 L 128 128 L 135 115 L 148 121 L 139 110 Z M 304 256 L 291 261 L 284 249 L 285 263 L 271 267 L 285 270 L 284 284 L 291 272 L 304 277 L 295 267 L 304 256 Z M 411 178 L 390 188 L 378 168 L 381 191 L 358 196 L 380 201 L 379 224 L 390 204 L 411 213 L 396 196 L 411 178 Z M 248 21 Q 185 22 133 52 L 133 52 Q 82 82 52 133 L 52 133 Q 22 184 21 248 Q 22 311 52 362 Q 82 413 133 444 Q 185 474 248 475 Q 311 474 363 444 Q 414 413 444 362 Q 474 311 475 248 Q 474 184 444 133 Q 414 82 363 52 Q 311 22 248 21 L 248 21 Z M 343 187 L 343 238 L 259 238 L 259 434 L 207 434 L 207 237 L 90 237 L 50 187 L 207 187 L 207 105 L 405 105 L 405 156 L 259 156 L 259 187 L 343 187 Z M 248 34 Q 294 35 333 52 L 333 52 Q 372 69 402 99 L 203 99 L 203 181 L 45 181 Q 67 116 122 76 Q 176 35 248 34 L 248 34 Z M 248 461 Q 157 459 97 399 L 97 399 Q 37 339 34 248 Q 34 216 43 187 L 87 243 L 202 243 L 202 440 L 266 440 L 266 244 L 350 244 L 350 181 L 267 181 L 267 162 L 412 162 L 412 111 Q 460 168 461 248 Q 459 339 399 399 Q 339 459 248 461 L 248 461 Z M 179 266 L 168 245 L 170 269 L 146 273 L 170 279 L 166 303 L 179 282 L 200 293 L 185 274 L 202 257 L 179 266 Z"/>
</svg>
