<svg xmlns="http://www.w3.org/2000/svg" viewBox="0 0 421 516">
    <path d="M 379 236 L 375 229 Q 375 195 362 177 Q 348 159 329 149 Q 329 149 330 149 Q 342 148 346 136 Q 364 131 364 120 Q 364 120 364 120 Q 368 118 373 113 Q 377 108 377 101 Q 387 94 385 83 Q 395 71 391 63 Q 400 49 392 42 Q 392 42 392 42 Q 397 33 393 27 Q 388 20 376 21 Q 370 15 363 14 Q 356 13 352 13 Q 352 13 351 13 Q 349 7 335 9 Q 324 1 313 6 Q 302 0 294 5 Q 292 6 290 7 Q 278 4 274 9 Q 273 10 271 11 Q 256 9 250 18 Q 249 19 249 20 L 242 19 Q 228 28 220 41 Q 213 54 211 64 Q 208 54 201 41 Q 193 28 179 19 L 173 20 Q 172 19 171 18 Q 165 9 151 11 Q 148 10 147 9 Q 142 4 131 7 Q 129 6 127 5 Q 122 3 117 3 Q 113 3 109 6 Q 97 1 86 9 Q 72 7 70 13 Q 69 13 69 13 Q 65 13 58 14 Q 51 15 45 21 Q 33 20 28 27 Q 24 33 29 42 Q 29 42 29 42 Q 21 49 30 63 Q 26 71 36 83 Q 34 94 44 101 Q 44 108 48 113 Q 53 118 57 120 Q 57 120 58 120 Q 57 130 75 136 Q 79 148 91 149 Q 92 149 92 149 Q 73 159 60 177 Q 46 195 46 229 L 42 236 Q 19 250 9 284 Q 0 318 28 353 Q 31 369 36 381 Q 38 385 39 389 Q 45 422 65 439 Q 84 456 93 457 Q 115 475 146 487 Q 177 516 210 515 L 211 515 Q 245 516 275 487 Q 306 475 327 457 Q 337 456 356 439 Q 376 422 382 389 Q 383 385 385 381 Q 390 369 393 353 Q 421 318 412 284 Q 403 250 379 235 L 379 236 Z M 357 228 Q 354 235 331 219 L 331 219 Q 308 203 288 183 L 288 183 Q 268 163 275 160 Q 310 154 333 172 Q 357 191 357 228 L 357 228 Z M 314 321 Q 295 332 272 326 L 272 326 Q 250 319 235 298 Q 221 276 224 253 Q 226 231 245 218 Q 264 206 286 213 Q 309 219 324 241 Q 338 263 335 285 Q 332 308 314 321 L 314 321 Z M 246 32 Q 247 39 249 40 Q 251 38 253 35 Q 258 29 266 23 Q 266 24 265 25 Q 264 29 268 32 Q 274 24 284 19 Q 281 25 284 27 Q 284 28 285 28 Q 285 28 285 28 Q 292 21 304 16 Q 304 17 303 17 Q 298 21 302 26 Q 308 21 325 17 Q 324 18 323 19 Q 317 23 320 26 Q 330 22 342 21 Q 335 26 338 30 Q 349 25 364 27 L 358 33 Q 360 34 373 34 Q 378 34 382 34 Q 382 34 382 35 Q 376 41 373 52 Q 375 53 382 52 Q 383 52 383 52 Q 379 61 373 64 Q 370 66 369 69 Q 373 72 380 69 Q 376 76 369 82 Q 366 84 364 86 Q 365 88 374 87 Q 366 95 355 102 Q 357 104 364 104 Q 364 104 365 104 Q 357 111 347 115 Q 344 116 341 118 Q 346 121 350 120 Q 351 120 351 120 Q 344 125 332 129 Q 329 129 327 130 Q 329 134 334 134 Q 325 138 316 138 Q 310 138 307 140 Q 309 144 314 146 Q 300 147 278 142 Q 256 136 248 113 Q 270 88 342 51 Q 284 69 240 104 Q 216 91 224 68 Q 231 46 246 32 L 246 32 Z M 212 147 Q 231 147 248 158 L 248 158 Q 264 168 266 182 Q 263 206 212 208 Q 187 208 173 199 Q 158 190 158 179 Q 159 169 175 158 Q 190 147 212 147 L 212 147 Z M 89 134 Q 94 133 96 130 Q 94 129 92 129 Q 79 126 71 120 Q 72 120 73 120 Q 76 121 81 118 Q 79 116 76 115 Q 66 111 58 104 Q 58 104 59 104 Q 65 104 68 102 Q 57 95 49 87 Q 57 88 59 86 Q 56 84 54 82 Q 47 76 43 69 Q 49 72 54 69 Q 53 66 49 64 Q 44 61 39 52 Q 40 52 41 52 Q 48 53 50 52 Q 46 41 41 35 Q 41 34 40 34 Q 43 34 46 34 Q 62 34 64 33 L 58 27 Q 73 25 85 30 Q 88 26 81 21 Q 93 23 103 26 Q 105 23 100 19 Q 99 18 98 17 Q 115 21 121 26 Q 124 21 119 17 Q 119 17 118 16 Q 131 21 137 28 Q 137 28 138 28 Q 138 28 139 27 Q 142 25 139 19 Q 149 24 154 32 Q 158 29 157 25 Q 157 24 157 23 Q 164 29 169 35 Q 172 38 174 40 Q 175 39 177 32 Q 191 46 199 68 Q 206 91 183 104 Q 139 69 81 51 Q 153 88 174 113 Q 167 136 144 142 Q 122 147 109 146 Q 114 144 116 140 Q 113 138 106 138 Q 97 138 88 134 L 89 134 Z M 149 158 Q 155 161 135 181 L 135 181 Q 115 201 92 217 L 92 217 Q 69 234 67 226 Q 66 189 90 171 Q 113 153 149 158 L 149 158 Z M 45 345 Q 26 329 26 298 L 26 298 Q 26 267 58 247 Q 71 245 71 271 Q 72 297 64 322 Q 56 347 45 345 L 45 345 Z M 136 443 Q 125 450 105 444 L 105 444 Q 86 439 67 415 Q 56 394 56 376 Q 56 359 65 352 Q 77 345 94 353 Q 111 360 126 378 Q 139 394 143 414 Q 146 434 136 443 L 136 443 Z M 110 324 Q 91 311 89 288 L 89 288 Q 86 266 100 244 Q 115 222 137 216 Q 159 209 179 221 Q 197 233 200 256 Q 203 279 189 301 Q 173 322 151 329 Q 129 335 110 324 L 110 324 Z M 212 499 Q 189 499 172 487 L 172 487 Q 155 474 154 467 Q 155 457 175 451 Q 194 444 214 445 Q 233 444 250 450 Q 268 455 269 464 Q 269 473 251 486 Q 234 498 212 499 L 212 499 Z M 271 374 Q 270 397 254 412 L 254 412 Q 237 427 212 428 Q 187 428 170 413 Q 153 397 153 375 L 153 374 Q 153 351 170 336 Q 186 321 211 320 Q 237 321 253 336 Q 270 351 271 374 L 271 374 L 271 374 Z M 353 417 Q 333 442 312 447 L 312 447 Q 291 451 281 443 Q 271 432 277 410 Q 282 388 296 371 Q 312 353 327 345 Q 343 336 355 345 Q 363 354 365 376 Q 366 398 353 417 L 353 417 Z M 376 344 Q 365 346 357 321 L 357 321 Q 350 295 350 270 L 350 270 Q 351 244 363 245 Q 395 266 395 297 Q 395 328 376 344 L 376 344 Z"/>
</svg>
