<svg xmlns="http://www.w3.org/2000/svg" viewBox="0 0 512 512">
  <path d="M 417.73642 291.72092 L 419.72092 293.7054 L 417.73642 291.72092 L 419.72092 293.7054 L 251.03876 128 L 251.03876 128 Q 245.08527 123.03876 238.13954 127.00775 L 180.58914 170.66667 L 180.58914 170.66667 Q 174.63567 176.62015 179.5969 182.57364 L 247.06976 247.06976 L 247.06976 247.06976 Q 254.0155 252.031 260.96124 247.06976 L 260.96124 247.06976 L 260.96124 247.06976 Q 268.89923 242.10852 274.85272 247.06976 L 358.20154 328.4341 L 358.20154 328.4341 Q 364.15503 334.3876 358.20154 340.3411 L 264.93024 413.76746 L 264.93024 413.76746 Q 257.9845 418.72867 251.03876 413.76746 L 100.21706 266.91473 L 100.21706 266.91473 Q 94.263565 261.9535 86.325584 266.91473 L 41.67442 300.65115 L 41.67442 300.65115 Q 34.728683 306.60464 39.689922 313.55038 L 247.06976 508.031 L 247.06976 508.031 Q 247.06976 508.031 252.031 510.0155 Q 256.99225 512 263.938 507.03876 L 460.4031 344.3101 L 460.4031 344.3101 Q 466.3566 338.3566 461.39536 332.4031 L 417.73642 291.72092 Z M 471.31784 208.37209 L 262.94574 3.9689922 L 471.31784 208.37209 L 262.94574 3.9689922 Q 260.96124 1.9844961 256.99225 0.99224806 Q 253.02325 0 246.07751 4.9612403 L 41.67442 165.70543 L 41.67442 165.70543 Q 34.728683 171.65892 39.689922 177.6124 L 82.35659 219.28682 L 82.35659 219.28682 L 252.031 383.00775 L 252.031 383.00775 Q 258.97675 387.969 266.91473 383.00775 L 316.52713 344.3101 L 316.52713 344.3101 L 316.52713 344.3101 L 316.52713 344.3101 L 323.47287 338.3566 L 323.47287 338.3566 Q 330.4186 332.4031 324.46512 326.44962 L 267.90698 271.87598 L 267.90698 271.87598 Q 260.96124 266.91473 254.0155 271.87598 L 254.0155 271.87598 L 254.0155 271.87598 Q 246.07751 276.83722 240.12402 271.87598 L 145.86046 180.58914 L 145.86046 180.58914 Q 140.89923 174.63567 146.8527 168.68217 L 238.13954 97.24031 L 238.13954 97.24031 Q 246.07751 92.27907 252.031 98.23256 L 411.78296 256 L 411.78296 256 Q 417.73642 260.96124 425.6744 256 L 470.3256 220.27907 L 470.3256 220.27907 Q 477.27133 214.32558 471.31784 208.37209 L 471.31784 208.37209 Z" />
</svg>