<svg xmlns="http://www.w3.org/2000/svg" viewBox="0 0 512 512">
  <path d="M 108.57587548638132 240.06225680933852 L 208.18677042801556 288.8715953307393 L 108.57587548638132 240.06225680933852 L 208.18677042801556 288.8715953307393 Q 222.13229571984436 296.84046692607006 220.1400778210117 311.78210116731515 Q 219.14396887159532 325.72762645914395 203.20622568093384 331.70428015564204 L 96.62256809338521 357.6031128404669 L 96.62256809338521 357.6031128404669 Q 85.66536964980544 360.591439688716 77.6964980544747 354.6147859922179 Q 69.72762645914396 348.63813229571986 67.73540856031128 338.6770428015564 Q 62.75486381322957 294.84824902723733 76.70038910505836 254.00778210116732 Q 80.68482490272373 244.0466926070039 89.64980544747081 240.06225680933852 Q 99.61089494163424 236.07782101167317 108.57587548638132 240.06225680933852 L 108.57587548638132 240.06225680933852 Z M 152.4046692607004 479.1284046692607 Q 188.26459143968873 503.0350194552529 231.09727626459144 511.00389105058366 Q 241.05836575875486 512 250.02334630350194 506.02334630350197 Q 256.99610894941634 499.05058365758754 257.9922178988327 489.08949416342415 L 261.97665369649803 378.52140077821014 L 261.97665369649803 378.52140077821014 Q 260.9805447470817 362.58365758754866 248.03112840466926 356.60700389105057 Q 234.08560311284046 351.6264591439689 222.13229571984436 362.58365758754866 L 148.42023346303503 444.26459143968873 L 148.42023346303503 444.26459143968873 Q 141.44747081712063 452.23346303501944 142.44357976653697 462.1945525291829 Q 144.43579766536965 473.15175097276267 152.4046692607004 479.1284046692607 L 152.4046692607004 479.1284046692607 Z M 296.84046692607006 369.55642023346303 L 355.6108949416342 463.1906614785992 L 296.84046692607006 369.55642023346303 L 355.6108949416342 463.1906614785992 Q 361.5875486381323 471.15953307392994 371.5486381322957 473.15175097276267 Q 381.50972762645915 475.14396887159535 389.47859922178986 468.1712062256809 Q 423.3463035019455 440.2801556420234 442.27237354085605 401.431906614786 Q 446.2568093385214 391.47081712062254 442.27237354085605 382.5058365758755 Q 438.28793774319064 372.54474708171205 428.32684824902725 369.55642023346303 L 323.73540856031127 335.6887159533074 L 323.73540856031127 335.6887159533074 Q 307.7976653696498 331.70428015564204 298.83268482490274 342.66147859922177 Q 289.86770428015564 354.6147859922179 296.84046692607006 369.55642023346303 L 296.84046692607006 369.55642023346303 Z M 445.26070038910507 237.0739299610895 Q 427.3307392996109 197.2295719844358 394.4591439688716 168.34241245136187 Q 386.49027237354085 161.36964980544747 376.52918287937746 163.36186770428014 Q 366.568093385214 164.3579766536965 360.591439688716 173.3229571984436 L 298.83268482490274 263.9688715953307 L 298.83268482490274 263.9688715953307 Q 290.863813229572 278.91050583657585 299.8287937743191 290.863813229572 Q 307.7976653696498 302.8171206225681 323.73540856031127 298.83268482490274 L 430.3190661478599 268.94941634241246 L 430.3190661478599 268.94941634241246 Q 440.2801556420234 265.96108949416345 444.26459143968873 256 Q 449.2451361867704 247.03501945525292 445.26070038910507 237.0739299610895 L 445.26070038910507 237.0739299610895 Z M 127.50194552529183 30.879377431906615 Q 118.53696498054475 35.85992217898833 115.54863813229572 44.824902723735406 Q 112.56031128404669 54.78599221789883 117.5408560311284 62.75486381322957 L 221.13618677042803 243.05058365758754 L 221.13618677042803 243.05058365758754 Q 232.09338521400778 256.99610894941634 247.03501945525292 253.01167315175098 Q 261.97665369649803 249.0272373540856 263.9688715953307 231.09727626459144 L 263.9688715953307 23.90661478599222 L 263.9688715953307 23.90661478599222 Q 263.9688715953307 13.945525291828794 256.99610894941634 6.972762645914397 Q 249.0272373540856 0 239.06614785992218 0.9961089494163424 Q 181.29182879377433 5.976653696498055 127.50194552529183 30.879377431906615 L 127.50194552529183 30.879377431906615 Z" />
</svg>