<svg xmlns="http://www.w3.org/2000/svg" viewBox="0 0 512 512">
  <path d="M 491.9652 192.55652 Q 485.28696 165.84348 471.93042 149.14783 L 471.93042 149.14783 L 471.93042 149.14783 Q 457.46088 132.45218 431.86087 131.33913 L 387.33914 131.33913 L 387.33914 131.33913 L 387.33914 184.76521 L 387.33914 184.76521 Q 386.22607 215.93044 365.07825 237.07826 Q 343.93042 259.33914 313.87827 260.45218 L 194.78261 260.45218 L 194.78261 260.45218 Q 169.1826 260.45218 152.48695 278.26086 Q 135.7913 294.9565 134.67827 320.55652 L 134.67827 434.08694 L 134.67827 434.08694 Q 135.7913 457.46088 152.48695 473.0435 Q 170.29565 487.51303 194.78261 494.1913 Q 248.2087 512 313.87827 494.1913 Q 336.13913 487.51303 353.9478 473.0435 Q 371.75653 458.5739 372.86957 434.08694 L 372.86957 388.45218 L 372.86957 388.45218 L 253.77391 388.45218 L 253.77391 388.45218 L 253.77391 372.86957 L 253.77391 372.86957 L 431.86087 372.86957 L 431.86087 372.86957 Q 457.46088 372.86957 470.81738 356.17392 Q 483.06088 340.5913 491.9652 312.76523 Q 509.77393 260.45218 491.9652 191.44348 L 491.9652 192.55652 Z M 320.55652 418.50433 Q 341.70435 420.73044 342.81738 440.76523 Q 341.70435 461.91306 320.55652 464.13913 Q 300.52173 461.91306 298.29565 440.76523 Q 300.52173 420.73044 320.55652 418.50433 L 320.55652 418.50433 Z M 189.21739 244.86957 L 308.31305 244.86957 L 189.21739 244.86957 L 308.31305 244.86957 Q 332.8 244.86957 349.49567 227.06087 Q 366.1913 210.36522 367.30435 184.76521 L 367.30435 71.23478 L 367.30435 71.23478 Q 366.1913 46.747826 349.49567 30.052174 Q 332.8 13.356522 308.31305 8.904347 Q 244.86957 0 189.21739 8.904347 Q 152.48695 15.582608 140.24348 31.165216 Q 128 45.63478 129.11304 71.23478 L 129.11304 116.86957 L 129.11304 116.86957 L 248.2087 116.86957 L 248.2087 116.86957 L 248.2087 131.33913 L 248.2087 131.33913 L 84.5913 131.33913 L 84.5913 131.33913 Q 58.991302 131.33913 37.84348 146.92174 Q 17.808695 162.50435 11.130435 192.55652 Q 2.2260869 224.83478 2.2260869 251.54782 Q 2.2260869 278.26086 11.130435 312.76523 Q 16.695652 339.47827 32.27826 356.17392 Q 47.86087 372.86957 73.46087 372.86957 L 114.64348 372.86957 L 114.64348 372.86957 L 114.64348 319.44348 L 114.64348 319.44348 Q 115.75652 288.27826 136.90434 267.13043 Q 158.05217 245.9826 189.21739 244.86957 L 189.21739 244.86957 Z M 181.42609 86.81739 Q 161.39131 84.5913 159.16522 63.443478 Q 161.39131 43.408695 181.42609 41.18261 Q 201.46088 43.408695 203.68695 63.443478 Q 201.46088 84.5913 181.42609 86.81739 L 181.42609 86.81739 Z" />
</svg>