<svg xmlns="http://www.w3.org/2000/svg" viewBox="0 0 512 512">
  <path d="M 456.62042 315.55917 Q 434.67755 367.80408 402.2857 384.52246 L 402.2857 384.52246 L 402.2857 384.52246 Q 369.8939 401.2408 337.50204 397.06122 L 337.50204 397.06122 L 337.50204 397.06122 Q 305.1102 392.88162 283.16736 382.43265 L 283.16736 382.43265 L 283.16736 382.43265 Q 262.26938 373.02856 261.2245 371.98367 Q 228.83266 436.76733 178.67755 474.38367 Q 129.56735 510.9551 67.918365 512 Q 55.379593 510.9551 55.379593 499.4612 Q 55.379593 489.01224 67.918365 486.92245 Q 119.11837 485.87756 160.91429 455.5755 Q 203.7551 425.27347 231.96735 371.98367 Q 210.02449 381.38776 179.72244 382.43265 Q 148.3755 383.47754 118.07347 362.5796 Q 86.72653 342.72653 63.738777 286.30203 Q 120.16327 263.3143 157.77959 269.58368 Q 195.39592 274.80817 218.38367 294.66122 Q 240.32654 314.51428 249.7306 333.32245 Q 265.40408 295.70612 272.71835 250.77551 Q 269.58368 251.8204 234.05714 251.8204 Q 198.53061 250.77551 160.91429 229.87755 Q 124.34286 208.9796 115.98367 147.33061 Q 177.63266 125.38776 213.15918 146.28572 Q 247.64082 167.18367 262.26938 196.44081 Q 275.85306 224.65306 275.85306 227.78775 Q 276.89795 213.15918 277.94287 193.30612 Q 278.98776 174.49796 278.98776 172.40816 Q 276.89795 171.36327 252.86531 148.3755 Q 229.87755 125.38776 218.38367 86.72653 Q 206.8898 48.065308 239.28163 0 Q 301.97552 24.032654 313.4694 63.738777 Q 326.00815 103.4449 315.55917 134.79184 Q 306.1551 167.18367 304.0653 169.27347 Q 304.0653 171.36327 304.0653 183.90204 Q 304.0653 195.39592 304.0653 203.7551 Q 303.02042 201.66531 319.73877 180.76735 Q 335.41223 159.86938 366.7592 145.24081 Q 398.1061 129.56735 446.17142 144.19592 Q 440.94693 212.11429 405.4204 235.10204 Q 369.8939 258.08978 335.41223 257.0449 Q 300.9306 257.0449 297.79593 254.95511 Q 290.48163 297.79593 276.89795 336.45715 Q 277.94287 333.32245 303.02042 314.51428 Q 328.09796 294.66122 368.84897 287.34692 Q 409.6 280.03265 456.62042 315.55917 L 456.62042 315.55917 Z" />
</svg>