<svg xmlns="http://www.w3.org/2000/svg" viewBox="0 0 498 513">
    <path d="M 497 117 Q 497 116 497 116 Q 497 116 497 115 Q 496 115 496 114 Q 496 114 495 113 Q 495 113 495 113 Q 495 113 495 113 Q 494 112 494 112 L 397 57 Q 393 54 389 57 L 293 112 L 293 112 Q 293 112 292 113 Q 292 113 291 113 Q 291 114 291 114 Q 291 114 291 114 Q 290 115 290 115 Q 290 116 290 116 Q 290 116 290 116 Q 289 117 289 117 Q 289 118 289 119 L 289 224 L 209 270 L 209 64 Q 209 63 209 62 Q 209 62 208 62 Q 208 62 208 62 Q 208 61 208 60 Q 208 60 208 60 Q 207 60 207 60 Q 207 59 207 59 Q 206 58 206 58 Q 205 58 205 57 L 205 57 L 109 2 Q 105 0 101 2 L 4 57 L 4 57 Q 4 58 3 58 Q 3 58 3 59 Q 2 59 2 60 Q 2 60 2 60 Q 2 60 1 60 Q 1 61 1 62 Q 1 62 1 62 Q 0 63 0 64 L 0 394 Q 0 399 4 401 L 197 512 Q 197 512 198 512 Q 198 513 198 513 Q 199 513 199 513 Q 201 513 203 513 Q 203 513 203 513 Q 203 513 203 513 Q 204 512 205 512 L 397 401 Q 401 399 401 394 L 401 289 L 494 236 Q 498 233 498 229 L 498 119 Q 498 118 497 117 L 497 117 Z M 105 18 L 105 18 L 185 64 L 105 111 L 24 64 L 105 18 Z M 193 78 L 193 280 L 146 306 L 113 326 L 113 125 L 159 98 L 193 78 Z M 193 491 L 16 390 L 16 78 L 50 98 L 97 125 L 97 340 Q 97 340 97 341 Q 97 341 97 342 L 97 342 Q 97 342 97 343 Q 97 343 98 344 L 98 344 Q 98 344 98 344 Q 99 345 99 345 L 99 345 Q 99 345 99 346 Q 100 346 100 346 Q 100 346 101 347 L 101 347 L 101 347 L 193 399 L 193 491 Z M 201 385 L 121 340 L 205 291 L 297 238 L 377 284 L 318 318 L 201 385 Z M 385 389 L 209 491 L 209 399 L 340 324 L 385 298 L 385 389 Z M 385 270 L 352 251 L 305 224 L 305 133 L 339 152 L 385 179 L 385 270 Z M 393 165 L 313 119 L 393 73 L 474 119 L 393 165 Z M 401 270 L 401 179 L 448 152 L 482 133 L 482 224 L 482 224 L 401 270 Z"/>
</svg>
