<svg xmlns="http://www.w3.org/2000/svg" viewBox="0 0 512 512">
  <path d="M 73.14285714285714 0 Q 42.285714285714285 1.1428571428571428 21.714285714285715 21.714285714285715 L 21.714285714285715 21.714285714285715 L 21.714285714285715 21.714285714285715 Q 1.1428571428571428 42.285714285714285 0 73.14285714285714 L 0 438.85714285714283 L 0 438.85714285714283 Q 1.1428571428571428 469.7142857142857 21.714285714285715 490.2857142857143 Q 42.285714285714285 510.85714285714283 73.14285714285714 512 L 438.85714285714283 512 L 438.85714285714283 512 Q 469.7142857142857 510.85714285714283 490.2857142857143 490.2857142857143 Q 510.85714285714283 469.7142857142857 512 438.85714285714283 L 512 73.14285714285714 L 512 73.14285714285714 Q 510.85714285714283 42.285714285714285 490.2857142857143 21.714285714285715 Q 469.7142857142857 1.1428571428571428 438.85714285714283 0 L 73.14285714285714 0 L 73.14285714285714 0 Z M 401.14285714285717 190.85714285714286 L 401.14285714285717 190.85714285714286 L 401.14285714285717 190.85714285714286 L 401.14285714285717 190.85714285714286 Q 401.14285714285717 242.28571428571428 377.14285714285717 290.2857142857143 Q 352 339.42857142857144 305.14285714285717 371.42857142857144 Q 257.14285714285717 403.42857142857144 188.57142857142858 404.57142857142856 Q 123.42857142857143 403.42857142857144 73.14285714285714 371.42857142857144 Q 82.28571428571429 371.42857142857144 91.42857142857143 371.42857142857144 Q 145.14285714285714 371.42857142857144 184 339.42857142857144 Q 158.85714285714286 339.42857142857144 140.57142857142858 324.57142857142856 Q 121.14285714285714 310.85714285714283 114.28571428571429 288 Q 130.28571428571428 290.2857142857143 147.42857142857142 286.85714285714283 Q 122.28571428571429 281.14285714285717 105.14285714285714 260.57142857142856 Q 88 241.14285714285714 88 212.57142857142858 L 88 211.42857142857142 L 88 211.42857142857142 Q 102.85714285714286 220.57142857142858 122.28571428571429 221.71428571428572 Q 106.28571428571429 211.42857142857142 97.14285714285714 194.28571428571428 Q 88 178.28571428571428 88 158.85714285714286 Q 89.14285714285714 138.28571428571428 98.28571428571429 121.14285714285714 Q 126.85714285714286 155.42857142857142 166.85714285714286 176 Q 205.71428571428572 196.57142857142858 252.57142857142858 200 Q 246.85714285714286 160 268.57142857142856 134.85714285714286 Q 290.2857142857143 108.57142857142857 326.85714285714283 107.42857142857143 Q 360 108.57142857142857 380.57142857142856 131.42857142857142 Q 406.85714285714283 125.71428571428571 428.57142857142856 113.14285714285714 Q 419.42857142857144 139.42857142857142 395.42857142857144 154.28571428571428 Q 418.2857142857143 152 438.85714285714283 142.85714285714286 Q 422.85714285714283 165.71428571428572 401.14285714285717 181.71428571428572 Q 401.14285714285717 186.28571428571428 401.14285714285717 190.85714285714286 Q 401.14285714285717 190.85714285714286 401.14285714285717 190.85714285714286 L 401.14285714285717 190.85714285714286 Z" />
</svg>