<svg xmlns="http://www.w3.org/2000/svg" viewBox="0 0 532 518">
    <path d="M 61 101 Q 58 75 73 53 Q 73 64 77 74 Q 86 33 120 9 Q 116 18 117 27 Q 118 26 119 25 Q 129 12 161 4 Q 184 0 203 5 Q 260 19 273 77 Q 279 112 265 144 Q 257 162 244 179 Q 242 177 241 176 Q 240 174 238 173 Q 229 164 223 158 Q 207 143 206 143 Q 206 142 201 136 Q 199 134 201 132 Q 213 112 211 88 Q 209 73 199 62 Q 188 50 172 51 Q 157 51 146 62 Q 129 81 135 106 Q 135 108 135 110 Q 130 130 132 152 Q 133 152 133 153 Q 133 153 133 153 Q 132 153 132 154 Q 132 154 132 154 Q 100 138 89 102 Q 76 128 83 156 Q 60 133 61 101 L 61 101 Z M 530 224 Q 513 207 490 198 Q 471 189 450 190 Q 435 192 421 197 Q 417 198 413 199 Q 405 199 409 192 Q 411 188 419 184 Q 421 182 424 180 Q 425 180 426 179 L 423 179 Q 423 179 422 179 Q 422 179 421 179 Q 400 184 382 201 Q 378 205 373 209 Q 357 218 361 208 Q 362 204 365 200 Q 365 199 366 198 Q 367 196 368 194 Q 369 194 369 193 Q 369 193 369 193 Q 369 193 368 192 Q 328 220 311 266 Q 311 266 311 266 Q 312 266 312 267 Q 312 266 312 266 Q 312 266 313 265 Q 328 247 349 235 Q 376 219 408 215 Q 413 215 417 215 Q 419 215 421 215 Q 418 216 416 216 Q 388 220 364 234 Q 320 262 289 305 Q 289 305 289 306 Q 289 306 288 306 Q 302 312 313 322 Q 318 327 325 332 Q 325 332 325 331 L 326 329 Q 344 288 373 254 Q 398 226 435 234 Q 442 236 447 239 Q 450 240 453 241 Q 453 241 454 240 Q 457 238 461 236 Q 473 230 487 227 Q 509 222 532 226 L 532 225 Q 532 225 531 225 Q 531 225 530 224 L 530 224 Z M 295 400 Q 271 380 268 377 L 268 377 Q 265 374 262 372 L 262 372 Q 260 370 252 364 Q 252 364 252 364 Q 252 364 250 367 Q 234 396 206 415 Q 191 426 172 426 Q 140 426 123 399 Q 106 369 114 336 Q 121 313 132 297 Q 143 282 151 274 Q 152 273 153 272 Q 126 265 107 286 Q 107 265 118 248 Q 82 264 54 292 Q 54 286 56 268 Q 59 250 59 248 Q 60 243 56 240 Q 19 276 0 325 Q 11 316 24 309 Q 17 325 12 349 Q 8 374 16 410 Q 22 438 40 462 Q 43 466 47 469 Q 48 471 50 472 Q 50 472 50 472 Q 50 472 50 472 Q 48 461 49 450 Q 50 451 51 453 Q 53 456 55 458 Q 74 482 102 494 Q 139 510 180 503 Q 221 495 249 468 Q 277 442 296 404 Q 297 401 295 400 L 295 400 Z M 467 353 Q 450 348 438 350 Q 451 355 457 362 Q 466 374 465 386 Q 463 399 451 408 Q 434 420 413 417 Q 411 417 410 416 Q 411 415 412 413 Q 415 409 418 406 Q 425 392 422 377 Q 420 361 409 350 Q 407 347 404 345 Q 403 345 402 344 Q 402 345 402 346 Q 405 359 397 369 Q 390 378 377 378 Q 366 377 358 370 Q 348 362 339 354 Q 319 338 299 321 Q 290 314 279 313 Q 274 312 270 312 Q 267 312 265 312 Q 257 312 255 303 Q 254 300 253 296 Q 253 294 253 293 Q 250 281 238 279 Q 234 278 229 278 Q 227 278 225 278 Q 206 276 202 257 Q 196 275 210 287 Q 213 290 216 292 Q 220 295 223 298 Q 230 304 231 313 Q 231 313 231 313 Q 232 320 233 327 Q 237 343 250 352 Q 259 359 267 367 Q 283 380 300 393 Q 311 403 313 415 Q 314 426 313 440 Q 313 445 313 449 Q 313 486 346 501 Q 347 501 348 501 Q 349 501 350 502 Q 338 487 340 472 Q 342 456 350 449 Q 351 450 351 451 Q 351 454 351 456 Q 359 489 382 504 Q 406 518 436 513 Q 461 509 479 493 Q 481 491 483 489 Q 484 488 485 486 Q 456 493 434 476 Q 435 475 436 476 Q 436 476 436 476 Q 468 479 493 458 Q 508 445 513 428 Q 517 410 511 392 Q 498 363 467 353 L 467 353 Z M 77 181 Q 69 168 55 160 Q 76 159 95 164 Q 85 146 90 125 Q 98 142 114 152 Q 125 159 135 165 Q 150 173 160 182 Q 164 185 167 189 Q 168 191 170 193 Q 169 192 169 190 Q 168 189 168 187 Q 160 171 145 162 Q 142 160 142 157 Q 137 139 141 120 Q 142 112 145 105 Q 145 104 145 104 Q 147 100 149 97 Q 149 98 150 99 Q 149 105 153 117 Q 156 129 169 143 Q 183 157 197 170 Q 200 173 203 176 Q 205 177 206 179 Q 219 190 228 202 Q 229 203 229 203 Q 230 205 232 207 Q 224 188 208 173 Q 194 159 179 146 Q 174 141 174 135 Q 172 119 178 105 Q 179 103 180 102 Q 180 104 180 106 Q 181 109 181 113 Q 185 129 195 141 Q 206 154 225 171 Q 228 174 231 177 Q 246 190 256 208 Q 264 222 262 238 Q 262 239 263 240 Q 273 243 273 254 Q 284 250 289 240 Q 292 256 284 273 Q 276 291 262 298 Q 262 298 262 297 Q 263 291 261 283 Q 259 274 245 271 Q 239 269 231 269 Q 227 269 223 269 Q 227 261 228 255 Q 230 248 223 246 Q 204 243 187 246 Q 170 248 165 251 Q 178 251 189 254 Q 188 257 187 260 Q 185 267 183 273 Q 182 278 184 282 Q 187 286 192 283 Q 193 282 194 281 Q 195 280 196 280 Q 194 286 194 289 Q 192 298 193 298 Q 195 309 206 306 Q 207 305 208 305 Q 205 315 191 323 Q 176 332 163 331 Q 174 324 179 313 Q 169 314 160 316 L 159 315 Q 166 310 170 302 Q 176 286 168 275 Q 161 264 145 262 Q 131 260 119 267 Q 128 244 151 233 Q 147 232 145 231 Q 140 230 138 229 Q 136 229 127 226 Q 149 213 173 212 Q 167 209 144 212 Q 121 215 103 233 Q 112 234 120 236 Q 123 236 126 237 Q 91 248 64 273 Q 64 270 65 268 Q 66 263 67 258 Q 68 251 67 245 Q 64 230 48 228 Q 36 227 24 230 Q 24 230 24 230 Q 23 230 21 230 Q 36 217 53 209 Q 64 203 74 196 Q 83 190 77 181 L 77 181 Z M 206 208 Q 212 233 230 232 Q 223 215 206 208 L 206 208 Z"/>
</svg>
