<svg xmlns="http://www.w3.org/2000/svg" viewBox="0 0 496 496">
    <path d="M 248 35 Q 158 38 98 98 L 98 98 Q 38 158 35 248 Q 38 338 98 398 Q 158 458 248 461 Q 338 458 398 398 Q 458 338 461 248 Q 458 158 398 98 Q 338 38 248 35 L 248 35 Z M 151 168 Q 152 127 179 99 L 179 99 Q 207 72 248 71 Q 289 72 317 99 Q 344 127 345 168 L 345 195 Q 345 203 337 204 L 319 204 Q 311 203 310 195 L 310 168 Q 308 127 278 114 Q 248 100 218 114 Q 188 127 186 168 L 186 195 Q 185 203 177 204 L 159 204 Q 151 203 150 195 L 150 168 L 151 168 Z M 390 372 Q 388 388 372 390 L 124 390 Q 108 388 106 372 L 106 230 Q 108 214 124 213 L 372 213 Q 388 214 390 230 L 390 372 L 390 372 Z M 142 235 L 142 368 Q 141 372 137 372 L 128 372 Q 124 372 124 368 L 124 235 Q 124 231 128 230 L 137 230 Q 141 231 142 235 L 142 235 Z M 283 283 Q 282 304 266 314 L 266 345 Q 265 354 257 354 L 239 354 Q 231 354 230 345 L 230 314 Q 213 304 213 283 Q 213 268 223 258 Q 233 248 248 248 Q 263 248 273 258 Q 283 268 283 283 L 283 283 Z M 248 0 Q 179 1 123 34 L 123 34 Q 67 67 34 123 L 34 123 Q 1 179 0 248 Q 1 317 34 373 Q 67 429 123 462 Q 179 495 248 496 Q 317 495 373 462 Q 429 429 462 373 Q 495 317 496 248 Q 495 179 462 123 Q 429 67 373 34 Q 317 1 248 0 L 248 0 Z M 248 478 Q 184 478 132 447 L 132 447 Q 80 416 49 364 L 49 364 Q 18 312 18 248 Q 18 184 49 132 Q 80 80 132 49 Q 184 18 248 18 Q 312 18 364 49 Q 416 80 447 132 Q 478 184 478 248 Q 478 312 447 364 Q 416 416 364 447 Q 312 478 248 478 L 248 478 Z"/>
</svg>
