<svg xmlns="http://www.w3.org/2000/svg" viewBox="0 0 512 512">
  <path d="M 256 0 Q 184.7741935483871 1.032258064516129 126.96774193548387 35.096774193548384 L 126.96774193548387 35.096774193548384 L 126.96774193548387 35.096774193548384 Q 69.16129032258064 69.16129032258064 35.096774193548384 126.96774193548387 L 35.096774193548384 126.96774193548387 L 35.096774193548384 126.96774193548387 Q 1.032258064516129 184.7741935483871 0 256 Q 1.032258064516129 327.2258064516129 35.096774193548384 385.03225806451616 Q 69.16129032258064 442.83870967741933 126.96774193548387 476.9032258064516 Q 184.7741935483871 510.96774193548384 256 512 Q 327.2258064516129 510.96774193548384 385.03225806451616 476.9032258064516 Q 442.83870967741933 442.83870967741933 476.9032258064516 385.03225806451616 Q 510.96774193548384 327.2258064516129 512 256 Q 510.96774193548384 184.7741935483871 476.9032258064516 126.96774193548387 Q 442.83870967741933 69.16129032258064 385.03225806451616 35.096774193548384 Q 327.2258064516129 1.032258064516129 256 0 L 256 0 Z M 374.7096774193548 233.29032258064515 L 258.06451612903226 391.2258064516129 L 374.7096774193548 233.29032258064515 L 258.06451612903226 391.2258064516129 L 141.41935483870967 233.29032258064515 L 141.41935483870967 233.29032258064515 Q 133.16129032258064 222.96774193548387 132.1290322580645 200.25806451612902 Q 131.09677419354838 177.5483870967742 155.8709677419355 158.96774193548387 Q 177.5483870967742 146.58064516129033 196.1290322580645 152.7741935483871 Q 214.70967741935485 157.93548387096774 226.06451612903226 171.3548387096774 Q 239.48387096774192 185.80645161290323 258.06451612903226 184.7741935483871 Q 276.64516129032256 184.7741935483871 290.06451612903226 171.3548387096774 Q 300.38709677419354 157.93548387096774 320 152.7741935483871 Q 338.5806451612903 146.58064516129033 360.258064516129 158.96774193548387 Q 384 177.5483870967742 382.96774193548384 200.25806451612902 Q 382.96774193548384 222.96774193548387 374.7096774193548 233.29032258064515 L 374.7096774193548 233.29032258064515 Z" />
</svg>