<svg xmlns="http://www.w3.org/2000/svg" viewBox="0 0 512 512">
  <path d="M 388.64516129032256 307.61290322580646 Q 374.19354838709677 332.38709677419354 347.35483870967744 347.8709677419355 L 347.35483870967744 347.8709677419355 L 347.35483870967744 347.8709677419355 Q 320.51612903225805 363.35483870967744 289.5483870967742 363.35483870967744 Q 244.1290322580645 362.3225806451613 214.19354838709677 331.35483870967744 Q 183.2258064516129 301.4193548387097 182.19354838709677 256 Q 183.2258064516129 210.58064516129033 214.19354838709677 180.6451612903226 Q 244.1290322580645 149.67741935483872 289.5483870967742 148.6451612903226 Q 320.51612903225805 148.6451612903226 347.35483870967744 164.1290322580645 Q 374.19354838709677 179.61290322580646 388.64516129032256 205.41935483870967 Q 409.2903225806452 123.87096774193549 478.4516129032258 83.61290322580645 Q 443.35483870967744 44.38709677419355 394.83870967741933 22.70967741935484 Q 346.3225806451613 0 289.5483870967742 0 Q 218.32258064516128 1.032258064516129 160.51612903225808 35.096774193548384 Q 102.70967741935483 69.16129032258064 68.64516129032258 126.96774193548387 Q 34.58064516129032 184.7741935483871 33.54838709677419 256 Q 34.58064516129032 327.2258064516129 68.64516129032258 385.03225806451616 Q 102.70967741935483 442.83870967741933 160.51612903225808 476.9032258064516 Q 218.32258064516128 510.96774193548384 289.5483870967742 512 Q 346.3225806451613 512 394.83870967741933 489.2903225806452 Q 443.35483870967744 467.61290322580646 478.4516129032258 428.38709677419354 Q 409.2903225806452 388.1290322580645 388.64516129032256 307.61290322580646 L 388.64516129032256 307.61290322580646 Z" />
</svg>