<svg xmlns="http://www.w3.org/2000/svg" viewBox="0 0 512 512">
  <path d="M 424.7049808429119 242.26819923371647 Q 443.34099616858236 212.84291187739464 438.4367816091954 203.0344827586207 L 438.4367816091954 203.0344827586207 L 438.4367816091954 203.0344827586207 Q 433.53256704980845 193.22605363984675 413.91570881226056 194.20689655172413 L 387.43295019157085 194.20689655172413 L 387.43295019157085 194.20689655172413 Q 387.43295019157085 194.20689655172413 387.43295019157085 194.20689655172413 Q 388.41379310344826 191.26436781609195 376.64367816091954 202.0536398467433 Q 364.8735632183908 205.97701149425288 351.1417624521073 207.93869731800766 Q 340.3524904214559 208.91954022988506 339.37164750957857 210.88122605363984 Q 339.37164750957857 211.86206896551724 351.1417624521073 211.86206896551724 Q 361.9310344827586 211.86206896551724 377.62452107279694 210.88122605363984 Q 392.33716475095787 209.90038314176246 405.088122605364 209.90038314176246 Q 418.8199233716475 209.90038314176246 425.6858237547893 210.88122605363984 Q 430.59003831417624 211.86206896551724 429.60919540229884 217.7471264367816 Q 427.6475095785441 223.632183908046 424.7049808429119 231.47892720306513 Q 422.7432950191571 237.36398467432952 421.76245210727967 242.26819923371647 Q 421.76245210727967 247.17241379310346 424.7049808429119 242.26819923371647 L 424.7049808429119 242.26819923371647 Z M 314.85057471264366 263.84674329501917 Q 382.5287356321839 243.24904214559388 404.1072796934866 241.28735632183907 L 404.1072796934866 241.28735632183907 L 404.1072796934866 241.28735632183907 Q 412.93486590038316 239.3256704980843 414.8965517241379 238.3448275862069 Q 421.76245210727967 232.45977011494253 389.39463601532566 232.45977011494253 Q 349.1800766283525 236.3831417624521 298.176245210728 254.03831417624522 Q 248.15325670498083 271.69348659003833 219.7088122605364 285.42528735632186 L 190.28352490421457 194.20689655172413 L 190.28352490421457 194.20689655172413 L 382.5287356321839 194.20689655172413 L 382.5287356321839 194.20689655172413 Q 378.60536398467434 177.53256704980842 308.9655172413793 173.60919540229884 Q 239.3256704980843 170.66666666666666 129.4712643678161 171.64750957854406 Q 92.19923371647509 171.64750957854406 51.00383141762452 171.64750957854406 L 0 412.93486590038316 L 0 412.93486590038316 Q 47.08045977011494 389.39463601532566 84.35249042145594 370.7586206896552 Q 178.51340996168582 323.67816091954023 228.53639846743295 300.13793103448273 Q 279.5402298850575 276.5977011494253 314.85057471264366 263.84674329501917 L 314.85057471264366 263.84674329501917 Z M 66.69731800766283 99.06513409961686 Q 131.43295019157088 112.79693486590038 180.4750957854406 122.60536398467433 L 180.4750957854406 122.60536398467433 L 180.4750957854406 122.60536398467433 Q 297.1954022988506 147.1264367816092 345.2567049808429 158.89655172413794 L 345.2567049808429 158.89655172413794 L 345.2567049808429 158.89655172413794 Q 392.33716475095787 171.64750957854406 392.33716475095787 182.4367816091954 Q 417.8390804597701 182.4367816091954 428.62835249042143 183.4176245210728 Q 439.4176245210728 184.39846743295018 443.34099616858236 189.30268199233717 Q 453.14942528735634 199.11111111111111 449.2260536398467 214.80459770114942 Q 445.30268199233717 230.49808429118775 437.455938697318 242.26819923371647 Q 429.60919540229884 255.0191570881226 429.60919540229884 255.0191570881226 Q 429.60919540229884 255.0191570881226 429.60919540229884 256 Q 426.6666666666667 256.9808429118774 386.4521072796935 272.67432950191574 Q 346.23754789272033 289.3486590038314 287.3869731800766 311.9080459770115 Q 228.53639846743295 335.44827586206895 169.68582375478928 358.00766283524905 Q 110.83524904214559 381.5478927203065 71.6015325670498 396.2605363984674 Q 32.367816091954026 411.95402298850576 30.406130268199234 412.93486590038316 L 445.30268199233717 412.93486590038316 L 445.30268199233717 412.93486590038316 L 512 99.06513409961686 L 66.69731800766283 99.06513409961686 Z" />
</svg>