<svg xmlns="http://www.w3.org/2000/svg" viewBox="0 0 388 512">
    <path d="M 274 108 Q 246 82 224 55 L 224 55 Q 202 29 194 0 Q 186 28 164 55 Q 142 81 114 108 Q 114 108 114 108 Q 114 108 114 108 Q 72 148 37 197 Q 2 246 0 313 Q 0 396 54 452 Q 107 508 190 512 Q 272 512 328 458 Q 384 404 388 322 Q 388 318 388 313 Q 386 246 351 197 Q 316 148 274 108 Q 274 108 274 108 L 274 108 Z M 100 331 Q 91 342 84 355 Q 83 357 81 358 L 79 358 Q 76 358 73 354 Q 70 350 70 350 Q 70 350 70 350 L 70 350 Q 68 347 67 343 L 66 341 Q 58 321 61 301 Q 63 281 64 279 L 64 279 Q 72 252 87 229 Q 97 215 109 202 L 118 211 L 161 255 Q 164 259 161 262 L 116 312 L 116 312 L 100 331 Z M 196 458 Q 154 456 135 419 Q 120 379 146 347 Q 157 334 170 321 Q 182 308 197 291 Q 228 325 248 349 Q 250 351 251 354 Q 263 371 263 392 Q 263 419 244 439 Q 224 458 196 458 L 196 458 Z M 322 352 L 322 352 Q 321 356 316 357 L 315 357 Q 311 356 309 352 L 309 352 Q 291 326 269 303 L 251 284 L 192 223 Q 174 206 157 187 Q 156 186 156 185 Q 153 181 151 176 L 151 175 Q 149 158 160 147 Q 178 130 194 112 Q 211 131 229 148 Q 231 149 232 151 L 232 151 Q 270 187 301 230 Q 328 267 328 313 Q 328 333 322 352 L 322 352 Z"/>
</svg>
