<svg xmlns="http://www.w3.org/2000/svg" viewBox="0 0 576 325">
    <path d="M 421 243 Q 399 241 397 219 Q 399 197 421 195 Q 442 197 445 219 Q 442 241 421 243 L 421 243 Z M 155 243 Q 134 241 131 219 Q 134 197 155 195 Q 177 197 179 219 Q 177 241 155 243 L 155 243 Z M 429 98 L 477 15 Q 480 10 478 5 Q 475 0 469 0 Q 463 0 460 5 L 460 5 L 411 90 Q 352 63 288 63 Q 224 63 165 90 L 116 5 Q 113 0 107 0 Q 101 0 98 5 Q 96 10 99 15 L 99 15 L 147 98 Q 84 133 46 192 Q 7 250 0 325 L 576 325 Q 569 250 530 192 Q 492 133 429 98 L 429 98 Z"/>
</svg>
