<svg xmlns="http://www.w3.org/2000/svg" viewBox="0 0 448 504">
    <path d="M 100 406 L 131 420 L 135 410 L 104 396 L 100 406 Z M 139 424 L 170 437 L 174 427 L 144 414 L 139 424 Z M 312 410 L 316 420 L 347 406 L 342 396 L 312 410 Z M 179 441 L 209 455 L 214 445 L 184 431 L 179 441 Z M 60 389 L 91 402 L 95 393 L 65 379 L 60 389 Z M 272 427 L 276 437 L 307 424 L 302 414 L 272 427 Z M 232 445 L 237 455 L 267 441 L 263 431 L 232 445 Z M 351 393 L 355 402 L 386 389 L 382 379 L 351 393 Z M 170 43 L 137 43 L 137 53 L 170 53 L 170 43 Z M 123 43 L 89 43 L 89 53 L 123 53 L 123 43 Z M 76 43 L 42 43 L 42 53 L 76 53 L 76 43 Z M 217 43 L 184 43 L 184 53 L 217 53 L 217 43 Z M 312 43 L 278 43 L 278 53 L 312 53 L 312 43 Z M 359 43 L 325 43 L 325 53 L 359 53 L 359 43 Z M 264 43 L 231 43 L 231 53 L 264 53 L 264 43 Z M 406 43 L 372 43 L 372 53 L 406 53 L 406 43 Z M 53 347 L 42 347 L 42 381 L 53 381 L 53 347 Z M 123 131 L 89 131 L 89 142 L 123 142 L 123 131 Z M 53 142 L 76 142 L 76 131 L 42 131 L 42 165 L 53 165 L 53 142 Z M 222 370 Q 261 369 286 344 L 286 344 Q 312 318 313 279 Q 312 240 286 215 Q 261 189 222 188 Q 183 189 157 215 Q 131 240 130 279 Q 131 318 157 344 Q 183 369 222 370 L 222 370 Z M 174 259 Q 175 241 191 234 L 191 234 Q 207 227 223 228 Q 245 229 263 238 Q 265 239 267 240 L 259 256 L 258 256 Q 252 249 242 246 Q 231 243 222 243 Q 214 243 204 246 Q 193 249 192 258 Q 193 264 201 266 Q 208 267 220 267 Q 238 266 254 271 Q 270 275 271 296 Q 269 315 253 321 Q 236 328 220 327 Q 194 328 173 315 L 182 297 L 182 297 Q 188 306 198 309 Q 209 312 218 312 Q 226 312 238 309 Q 250 307 251 297 Q 251 289 242 287 Q 233 285 220 285 Q 203 286 189 282 Q 174 277 174 259 L 174 259 Z M 53 174 L 42 174 L 42 208 L 53 208 L 53 174 Z M 395 381 L 406 381 L 406 347 L 395 347 L 395 381 Z M 53 304 L 42 304 L 42 337 L 53 337 L 53 304 Z M 0 0 L 0 406 L 222 504 L 448 406 L 448 0 L 0 0 Z M 419 387 L 222 473 L 29 387 L 29 117 L 419 117 L 419 387 L 419 387 Z M 419 88 L 29 88 L 29 29 L 419 29 L 419 88 L 419 88 Z M 53 218 L 42 218 L 42 251 L 53 251 L 53 218 Z M 53 261 L 42 261 L 42 294 L 53 294 L 53 261 Z M 170 131 L 137 131 L 137 142 L 170 142 L 170 131 Z M 395 294 L 406 294 L 406 261 L 395 261 L 395 294 Z M 395 251 L 406 251 L 406 218 L 395 218 L 395 251 Z M 217 131 L 184 131 L 184 142 L 217 142 L 217 131 Z M 395 208 L 406 208 L 406 175 L 395 175 L 395 208 Z M 395 338 L 406 338 L 406 304 L 395 304 L 395 338 Z M 264 131 L 231 131 L 231 142 L 264 142 L 264 131 Z M 312 131 L 278 131 L 278 142 L 312 142 L 312 131 Z M 395 165 L 406 165 L 406 131 L 373 131 L 373 142 L 395 142 L 395 165 Z M 359 131 L 325 131 L 325 142 L 359 142 L 359 131 Z"/>
</svg>
