<svg xmlns="http://www.w3.org/2000/svg" viewBox="0 0 512 512">
  <path d="M 499.23987 307.838 Q 483.28973 292.68536 460.162 294.28036 Q 434.64175 293.48288 429.0592 273.54517 Q 422.67914 253.60748 430.6542 215.3271 Q 443.41434 178.64174 424.27414 145.94392 Q 404.33646 113.24611 360.4735 110.853584 Q 335.7508 112.4486 320.59814 123.61371 Q 306.24298 135.57632 295.8754 149.13396 Q 287.1028 160.29907 278.33023 168.27414 Q 268.76013 176.24922 256 176.24922 Q 244.03738 176.24922 234.46729 168.27414 Q 225.6947 160.29907 217.71962 149.93146 Q 206.55452 135.57632 192.19937 123.61371 Q 177.04672 112.4486 151.52647 110.853584 Q 107.66355 113.24611 88.52336 145.94392 Q 69.38318 178.64174 82.1433 215.3271 Q 90.11838 253.60748 83.73832 273.54517 Q 78.15576 293.48288 52.635513 294.28036 Q 27.912773 292.68536 10.367601 312.62305 Q 1.5950155 320.59814 0.79750776 338.9408 Q 0 357.28348 9.570093 373.23364 Q 19.937695 389.98132 43.862926 393.96884 Q 73.37072 396.36136 88.52336 374.03116 Q 103.67601 352.49844 92.5109 323.78815 Q 80.54829 292.68536 99.68848 277.5327 Q 118.82866 261.58255 149.13396 260.78503 Q 178.64174 259.98755 199.37695 273.54517 Q 220.11215 287.9003 209.74455 317.4081 Q 209.74455 317.4081 209.74455 317.4081 Q 209.74455 317.4081 209.74455 317.4081 Q 194.5919 345.32086 208.94704 369.2461 Q 224.09969 393.17133 256 393.96884 Q 288.6978 393.17133 303.05295 369.2461 Q 318.2056 345.32086 303.05295 317.4081 Q 303.05295 317.4081 303.05295 317.4081 Q 303.05295 317.4081 303.05295 317.4081 Q 292.68536 287.9003 313.42056 273.54517 Q 333.35825 259.98755 363.66354 260.78503 Q 393.96884 261.58255 413.10904 277.5327 Q 432.2492 292.68536 419.4891 323.78815 Q 413.90656 336.54828 415.50156 350.10593 Q 420.2866 382.80374 447.40186 392.37384 Q 475.31464 401.14642 499.23987 378.01868 Q 509.60748 367.6511 511.20248 345.32086 Q 512 322.99066 499.23987 307.838 L 499.23987 307.838 Z M 256.79752 292.68536 L 256 292.68536 L 256.79752 292.68536 L 256 292.68536 Q 230.47975 291.88785 217.71962 275.1402 Q 205.757 259.19003 205.757 242.44237 Q 206.55452 221.70717 220.90965 207.35202 Q 234.46729 192.99689 256 192.99689 L 256.79752 192.99689 L 256.79752 192.99689 Q 277.5327 192.99689 291.88785 207.35202 Q 306.24298 221.70717 306.24298 242.44237 Q 307.0405 259.19003 294.28036 275.1402 Q 282.31775 291.88785 256.79752 292.68536 L 256.79752 292.68536 Z" />
</svg>