<svg xmlns="http://www.w3.org/2000/svg" viewBox="0 0 435 448">
    <path d="M 152 95 Q 207 184 236 257 Q 224 308 205 356 Q 195 316 183 279 Q 170 242 149 207 Q 154 170 152 131 Q 152 113 152 95 L 152 95 Z M 104 168 L 11 168 Q 0 170 5 181 Q 67 263 96 368 L 200 368 Q 188 316 169 268 Q 150 219 117 175 Q 112 168 104 168 L 104 168 Z M 152 80 Q 205 161 244 254 L 244 254 Q 283 348 290 448 L 404 448 Q 394 344 356 251 Q 318 158 261 80 L 152 80 L 152 80 Z M 404 12 Q 400 1 389 0 L 300 0 Q 292 1 293 10 Q 313 80 319 156 Q 392 287 410 427 Q 422 381 428 329 Q 435 277 435 224 Q 434 113 404 11 L 404 12 Z"/>
</svg>
