<svg xmlns="http://www.w3.org/2000/svg" viewBox="0 0 512 512">
  <path d="M 233.472 22.528 Q 234.496 2.048 256 0 Q 277.504 2.048 279.552 22.528 Q 277.504 44.032 256 46.08 Q 234.496 44.032 233.472 22.528 L 233.472 22.528 Z M 314.368 265.216 Q 314.368 289.792 297.984 307.2 L 297.984 307.2 L 297.984 307.2 Q 280.576 323.584 256 323.584 Q 231.424 323.584 214.016 307.2 Q 197.632 289.792 197.632 265.216 Q 197.632 240.64 214.016 223.232 Q 231.424 206.848 256 206.848 Q 280.576 206.848 297.984 223.232 Q 314.368 240.64 314.368 265.216 L 314.368 265.216 Z M 338.944 358.4 Q 373.76 326.656 379.904 279.552 L 502.784 279.552 L 502.784 279.552 Q 499.712 326.656 479.232 369.664 Q 459.776 411.648 424.96 444.416 Q 390.144 477.184 347.136 494.592 Q 304.128 512 256 512 Q 207.872 512 164.864 494.592 Q 120.832 477.184 87.04 444.416 Q 52.224 411.648 32.768 369.664 Q 12.288 326.656 9.216 279.552 L 132.096 279.552 L 132.096 279.552 Q 138.24 326.656 173.056 358.4 Q 208.896 389.12 256 390.144 Q 303.104 389.12 338.944 358.4 L 338.944 358.4 Z M 68.608 143.36 Q 67.584 164.864 46.08 167.936 Q 25.6 165.888 22.528 145.408 Q 23.552 123.904 45.056 121.856 Q 66.56 122.88 68.608 143.36 L 68.608 143.36 Z M 443.392 144.384 Q 445.44 122.88 465.92 121.856 Q 487.424 122.88 489.472 144.384 Q 487.424 165.888 465.92 167.936 Q 445.44 165.888 443.392 144.384 L 443.392 144.384 Z M 319.488 97.28 Q 291.84 119.808 256 120.832 Q 220.16 119.808 192.512 97.28 Q 165.888 73.728 159.744 38.912 Q 182.272 28.672 207.872 23.552 Q 207.872 44.032 222.208 58.368 Q 235.52 71.68 256 72.704 Q 276.48 71.68 290.816 58.368 Q 304.128 44.032 304.128 23.552 Q 329.728 28.672 352.256 38.912 Q 346.112 73.728 319.488 97.28 L 319.488 97.28 L 319.488 97.28 Z M 78.848 236.544 Q 45.056 247.808 11.264 235.52 Q 14.336 210.944 22.528 187.392 Q 30.72 191.488 39.936 193.536 Q 50.176 194.56 59.392 191.488 Q 68.608 189.44 75.776 183.296 Q 83.968 177.152 88.064 168.96 Q 93.184 160.768 94.208 151.552 Q 96.256 141.312 93.184 132.096 Q 91.136 122.88 84.992 115.712 Q 78.848 107.52 70.656 102.4 Q 87.04 83.968 107.52 68.608 Q 135.168 92.16 142.336 126.976 Q 148.48 161.792 131.072 193.536 Q 112.64 224.256 78.848 236.544 L 78.848 236.544 L 78.848 236.544 Z M 433.152 236.544 Q 399.36 224.256 381.952 193.536 Q 363.52 161.792 369.664 126.976 Q 376.832 92.16 404.48 68.608 Q 424.96 83.968 441.344 103.424 Q 423.936 113.664 418.816 132.096 Q 413.696 151.552 423.936 168.96 Q 434.176 186.368 453.632 191.488 Q 472.064 196.608 489.472 187.392 Q 497.664 210.944 500.736 235.52 Q 466.944 248.832 433.152 236.544 L 433.152 236.544 L 433.152 236.544 Z" />
</svg>