<svg xmlns="http://www.w3.org/2000/svg" viewBox="0 0 512 512">
  <path d="M 164.57142857142858 146.28571428571428 Q 165.71428571428572 115.42857142857143 186.28571428571428 94.85714285714286 L 186.28571428571428 94.85714285714286 L 186.28571428571428 94.85714285714286 Q 206.85714285714286 74.28571428571429 237.71428571428572 73.14285714285714 L 274.2857142857143 73.14285714285714 L 274.2857142857143 73.14285714285714 Q 305.14285714285717 74.28571428571429 325.7142857142857 94.85714285714286 Q 346.2857142857143 115.42857142857143 347.42857142857144 146.28571428571428 L 347.42857142857144 150.85714285714286 L 347.42857142857144 150.85714285714286 Q 346.2857142857143 189.71428571428572 314.2857142857143 211.42857142857142 L 265.14285714285717 243.42857142857142 L 265.14285714285717 243.42857142857142 Q 220.57142857142858 273.14285714285717 219.42857142857142 328 L 219.42857142857142 329.14285714285717 L 219.42857142857142 329.14285714285717 Q 219.42857142857142 345.14285714285717 229.71428571428572 355.42857142857144 Q 240 365.7142857142857 256 365.7142857142857 Q 272 365.7142857142857 282.2857142857143 355.42857142857144 Q 292.57142857142856 345.14285714285717 292.57142857142856 329.14285714285717 L 292.57142857142856 328 L 292.57142857142856 328 Q 292.57142857142856 313.14285714285717 305.14285714285717 304 L 353.14285714285717 273.14285714285717 L 353.14285714285717 273.14285714285717 Q 385.14285714285717 252.57142857142858 402.2857142857143 220.57142857142858 Q 420.57142857142856 188.57142857142858 420.57142857142856 150.85714285714286 L 420.57142857142856 146.28571428571428 L 420.57142857142856 146.28571428571428 Q 419.42857142857144 84.57142857142857 378.2857142857143 42.285714285714285 Q 336 1.1428571428571428 274.2857142857143 0 L 237.71428571428572 0 L 237.71428571428572 0 Q 176 1.1428571428571428 133.71428571428572 42.285714285714285 Q 92.57142857142857 84.57142857142857 91.42857142857143 146.28571428571428 Q 91.42857142857143 162.28571428571428 101.71428571428571 172.57142857142858 Q 112 182.85714285714286 128 182.85714285714286 Q 144 182.85714285714286 154.28571428571428 172.57142857142858 Q 164.57142857142858 162.28571428571428 164.57142857142858 146.28571428571428 L 164.57142857142858 146.28571428571428 Z M 256 512 Q 282.2857142857143 510.85714285714283 296 489.14285714285717 Q 307.42857142857144 466.2857142857143 296 443.42857142857144 Q 282.2857142857143 421.7142857142857 256 420.57142857142856 Q 229.71428571428572 421.7142857142857 216 443.42857142857144 Q 204.57142857142858 466.2857142857143 216 489.14285714285717 Q 229.71428571428572 510.85714285714283 256 512 L 256 512 Z" />
</svg>