<svg xmlns="http://www.w3.org/2000/svg" viewBox="0 0 472 496">
    <path d="M 423 195 Q 438 196 444 209 L 444 209 Q 449 221 444 234 L 444 234 Q 439 247 422 248 L 411 248 L 411 292 L 385 292 L 385 195 L 423 195 L 423 195 Z M 472 345 Q 440 414 383 455 L 383 455 Q 325 495 248 496 Q 179 495 123 462 Q 67 429 34 373 Q 1 317 0 248 Q 1 179 34 123 Q 67 67 123 34 Q 179 1 248 0 Q 321 1 377 37 Q 432 74 466 138 L 280 247 L 472 345 L 472 345 Z M 434 357 L 373 326 Q 331 395 251 398 Q 187 396 145 354 Q 103 312 102 249 Q 103 185 145 143 Q 187 101 251 100 Q 325 101 368 163 L 427 129 Q 396 81 350 55 Q 304 29 248 29 Q 187 29 137 58 Q 88 88 58 137 Q 29 187 29 248 Q 29 309 58 359 Q 88 408 137 438 Q 187 467 248 468 Q 308 467 356 438 Q 404 409 434 357 L 434 357 Z"/>
</svg>
