<svg xmlns="http://www.w3.org/2000/svg" viewBox="0 0 512 512">
  <path d="M 92.01843 223.75423 L 92.01843 256 L 92.01843 223.75423 L 92.01843 256 L 136.84793 256 L 136.84793 256 Q 133.702 272.51614 120.331795 281.95392 Q 108.53456 289.81873 92.01843 289.81873 Q 75.502304 289.81873 62.918587 280.38095 Q 50.33487 270.15668 44.829494 255.21352 Q 40.1106 238.69739 44.829494 222.96774 L 44.829494 222.96774 L 44.829494 222.96774 Q 50.33487 207.2381 62.918587 197.80031 Q 75.502304 188.36252 92.01843 188.36252 Q 110.10753 187.57603 123.47773 200.94624 L 147.07219 176.56528 L 147.07219 176.56528 Q 124.264206 154.54378 92.01843 154.54378 Q 67.63748 155.33026 47.97542 167.1275 Q 28.313364 179.71121 17.302612 200.94624 Q 0 238.69739 17.302612 276.44855 L 17.302612 277.23502 L 17.302612 277.23502 Q 28.313364 298.47003 47.97542 311.05377 Q 67.63748 322.851 92.01843 323.63748 Q 125.83717 322.851 147.07219 303.18893 Q 170.66667 280.38095 171.45316 241.05684 Q 171.45316 232.40553 169.88019 223.75423 L 92.01843 223.75423 Z M 397.96005 220.60829 Q 386.1628 209.59755 365.7143 209.59755 Q 338.97388 209.59755 325.6037 229.2596 L 342.1198 239.48387 L 342.1198 239.48387 Q 351.55762 226.11368 366.50076 226.11368 Q 376.72504 226.11368 384.58987 233.19202 Q 392.45468 239.48387 392.45468 249.70815 L 392.45468 254.42703 L 392.45468 254.42703 Q 381.44394 248.13518 364.9278 248.13518 Q 345.26575 248.13518 334.255 257.57297 Q 322.45776 266.22427 322.45776 281.95392 Q 322.45776 296.8971 333.4685 306.33487 Q 344.47925 316.55914 360.9954 316.55914 Q 379.87097 316.55914 391.6682 299.25653 L 392.45468 299.25653 L 392.45468 299.25653 L 392.45468 313.4132 L 392.45468 313.4132 L 409.7573 313.4132 L 409.7573 313.4132 L 409.7573 251.28111 L 409.7573 251.28111 Q 409.7573 231.61905 397.96005 220.60829 L 397.96005 220.60829 Z M 383.0169 290.60522 Q 374.3656 299.25653 361.78186 299.25653 Q 353.91705 300.043 347.62518 294.53763 Q 341.33334 289.81873 341.33334 282.7404 Q 341.33334 274.08908 349.19815 268.5837 Q 356.2765 263.07834 368.07373 263.07834 Q 383.80338 263.07834 392.45468 270.15668 Q 392.45468 281.95392 383.0169 290.60522 L 383.0169 290.60522 Z M 309.08755 178.92473 Q 295.71735 166.34102 277.62827 166.34102 L 228.07988 166.34102 L 228.07988 166.34102 L 228.07988 313.4132 L 228.07988 313.4132 L 246.95546 313.4132 L 246.95546 313.4132 L 246.95546 253.64055 L 246.95546 253.64055 L 277.62827 253.64055 L 277.62827 253.64055 Q 296.50385 253.64055 309.08755 241.05684 Q 309.87405 241.05684 309.87405 240.27036 Q 310.66052 239.48387 311.447 238.69739 Q 323.24423 226.11368 322.45776 208.81107 Q 321.67126 191.50845 309.08755 178.92473 L 309.08755 178.92473 Z M 296.50385 228.47311 Q 288.639 235.55145 277.62827 235.55145 L 246.95546 235.55145 L 246.95546 235.55145 L 246.95546 184.43011 L 246.95546 184.43011 L 277.62827 184.43011 L 277.62827 184.43011 Q 287.85254 184.43011 295.71735 191.50845 Q 302.7957 199.37328 303.58218 209.59755 Q 303.58218 219.82181 296.50385 227.68663 L 296.50385 228.47311 Z M 491.55145 212.74347 L 463.2381 285.09985 L 491.55145 212.74347 L 463.2381 285.09985 L 462.4516 285.09985 L 462.4516 285.09985 L 433.35178 212.74347 L 433.35178 212.74347 L 412.90323 212.74347 L 412.90323 212.74347 L 453.8003 307.12134 L 453.8003 307.12134 L 430.9923 357.4562 L 430.9923 357.4562 L 449.8679 357.4562 L 449.8679 357.4562 L 512 212.74347 L 491.55145 212.74347 Z" />
</svg>