<svg xmlns="http://www.w3.org/2000/svg" viewBox="0 0 512 512">
  <path d="M 45 229 Q 45 229 45 229 L 45 229 L 45 229 Q 45 229 45 229 Q 45 229 45 229 L 45 229 L 45 229 Z M 256 97 Q 245 97 235 98 L 238 166 L 238 166 L 216 102 L 216 102 Q 195 107 176 118 L 206 180 L 206 180 L 161 129 L 161 129 Q 143 142 130 160 L 181 205 L 181 205 L 120 175 L 120 175 Q 109 194 103 215 L 167 238 L 167 238 L 99 234 L 99 234 Q 98 245 98 256 Q 98 267 99 278 L 167 274 L 167 274 L 103 296 L 103 296 Q 109 318 120 337 L 181 307 L 181 307 L 130 352 L 130 352 Q 143 370 161 383 L 206 332 L 206 332 L 176 393 L 176 393 Q 195 405 216 410 L 238 346 L 238 346 L 234 414 L 234 414 Q 245 415 256 415 Q 267 415 278 414 L 274 345 L 274 345 L 296 410 L 296 410 Q 318 404 336 393 L 307 332 L 307 332 L 352 383 L 352 383 Q 369 370 382 352 L 332 307 L 332 307 L 393 336 L 393 336 Q 404 318 410 296 L 346 274 L 346 274 L 413 278 L 413 278 Q 414 267 414 256 Q 414 245 413 234 L 345 238 L 345 238 L 409 216 L 409 216 Q 404 194 393 175 L 332 205 L 332 205 L 382 160 L 382 160 Q 369 142 352 129 L 307 180 L 307 180 L 336 119 L 336 119 Q 318 107 296 102 L 274 166 L 274 166 L 278 98 L 278 98 Q 267 97 256 97 L 256 97 Z M 475 128 L 475 384 L 475 128 L 475 384 L 256 512 L 256 512 L 37 384 L 37 384 L 37 128 L 37 128 L 256 0 L 256 0 L 475 128 L 475 128 Z M 458 138 L 256 21 L 458 138 L 256 21 L 54 138 L 54 138 L 54 373 L 54 373 L 256 491 L 256 491 L 458 373 L 458 373 L 458 138 L 458 138 Z M 256 37 L 444 147 L 256 37 L 444 147 L 444 365 L 444 365 L 256 475 L 256 475 L 68 365 L 68 365 L 68 147 L 68 147 L 256 37 L 256 37 Z M 256 88 Q 185 90 138 137 L 138 137 L 138 137 Q 91 185 89 256 Q 91 327 138 375 Q 185 422 256 424 Q 327 422 374 375 Q 421 327 423 256 Q 421 185 374 137 Q 327 90 256 88 L 256 88 Z" />
</svg>