<svg xmlns="http://www.w3.org/2000/svg" viewBox="0 0 512 512">
  <path d="M 460.44446 307.1111 Q 512 252.88889 512 204 Q 512 159.55556 473.77777 127.55556 Q 434.66666 95.55556 361.77777 84 Q 273.77777 71.55556 176.88889 92 Q 80.888885 112.44444 0 157.77777 Q 70.22222 120.44444 152 105.333336 Q 201.77777 92 252.44444 88.44444 Q 302.22223 85.77778 348.44446 92.888885 Q 450.66666 110.666664 475.55554 168.44444 Q 500.44446 227.11111 436.44446 298.22223 Q 422.22223 312.44446 405.33334 325.77777 L 271.1111 124 L 271.1111 124 L 102.22222 378.22223 L 102.22222 378.22223 Q 57.77778 357.77777 52.444443 321.33334 Q 47.11111 284.8889 85.333336 244 Q 113.77778 213.77777 155.55556 192.44444 Q 181.33333 175.55556 210.66667 164.88889 Q 121.77778 193.33333 67.55556 247.55556 Q 30.222221 285.77777 30.222221 321.33334 Q 30.222221 369.33334 90.666664 395.1111 L 60.444443 440.44446 L 60.444443 440.44446 L 150.22223 440.44446 L 150.22223 440.44446 L 169.77777 410.22223 L 169.77777 410.22223 Q 200 411.1111 231.11111 407.55554 L 210.66667 440.44446 L 210.66667 440.44446 L 331.55554 440.44446 L 331.55554 440.44446 L 302.22223 393.33334 L 302.22223 393.33334 Q 327.1111 386.22223 351.1111 377.33334 L 391.1111 440.44446 L 391.1111 440.44446 L 481.77777 440.44446 L 481.77777 440.44446 L 416.8889 342.66666 L 416.8889 342.66666 Q 441.77777 326.66666 460.44446 307.1111 L 460.44446 307.1111 Z M 293.33334 379.1111 L 271.1111 342.66666 L 293.33334 379.1111 L 271.1111 342.66666 L 241.77777 389.77777 L 241.77777 389.77777 Q 210.66667 395.1111 180.44444 394.22223 L 271.1111 252 L 271.1111 252 L 341.33334 362.22223 L 341.33334 362.22223 Q 318.22223 372 293.33334 379.1111 L 293.33334 379.1111 Z" />
</svg>