<svg xmlns="http://www.w3.org/2000/svg" viewBox="0 0 427 514">
    <path d="M 212 123 Q 212 124 213 124 L 213 124 Q 214 125 215 125 Q 217 125 218 124 Q 217 122 215 121 Q 215 121 215 121 Q 212 119 209 121 Q 208 121 208 122 Q 209 123 210 123 Q 211 123 212 123 L 212 123 Z M 190 125 Q 191 125 192 124 L 192 124 Q 192 124 193 123 Q 194 123 194 123 Q 196 123 196 122 Q 197 121 196 121 Q 193 119 190 121 Q 190 121 190 121 Q 187 122 187 124 Q 188 125 190 125 L 190 125 Z M 411 404 Q 406 397 404 385 L 404 385 Q 404 384 404 384 Q 402 371 393 362 Q 391 360 389 359 Q 387 358 385 357 Q 397 315 381 278 Q 373 255 360 236 Q 347 217 335 203 Q 335 203 334 202 Q 321 187 311 170 Q 302 153 302 131 Q 302 129 302 126 Q 303 101 300 72 Q 296 43 280 22 Q 264 1 226 0 Q 183 1 166 21 Q 149 41 147 67 Q 145 94 147 116 Q 148 128 148 135 Q 147 168 125 200 Q 111 217 94 242 Q 77 268 67 297 Q 58 324 61 350 Q 56 355 51 362 Q 48 367 45 370 Q 39 375 30 377 Q 29 378 28 378 Q 17 381 9 393 Q 6 399 6 405 Q 6 411 7 417 Q 8 418 8 419 Q 10 430 8 438 Q 0 459 6 470 Q 12 480 26 482 Q 34 483 44 484 Q 66 486 85 494 Q 116 510 141 505 Q 159 501 167 485 Q 176 484 186 482 Q 198 479 215 478 Q 226 478 239 480 Q 253 482 271 482 Q 271 486 273 489 L 273 489 Q 287 514 313 512 Q 339 510 362 484 Q 377 468 398 460 Q 406 456 413 452 Q 425 445 426 433 Q 427 422 411 404 L 411 404 Z M 215 87 Q 223 71 237 71 L 237 71 Q 250 71 259 87 Q 267 111 254 127 Q 252 126 242 122 Q 242 122 243 121 Q 245 120 246 118 Q 249 108 246 100 Q 243 91 237 91 Q 231 90 227 97 Q 223 104 225 114 Q 218 110 212 109 Q 210 98 215 87 L 215 87 Z M 174 76 Q 182 76 188 85 L 188 85 Q 194 95 193 109 Q 188 111 183 114 Q 184 107 181 101 Q 178 94 173 94 Q 167 96 166 106 Q 166 116 172 122 Q 172 123 172 123 Q 174 122 166 128 Q 154 115 157 96 Q 160 78 174 76 L 174 76 Z M 160 137 Q 163 134 166 132 L 166 132 Q 173 127 175 126 Q 175 125 176 125 Q 183 115 202 112 Q 213 111 228 121 Q 233 124 239 126 Q 244 127 251 130 Q 265 135 261 148 Q 257 160 239 166 Q 233 168 228 172 Q 218 181 201 181 Q 195 181 191 179 Q 185 176 180 171 Q 176 167 171 164 Q 158 157 156 149 Q 154 141 160 136 L 160 137 Z M 164 471 Q 160 496 137 499 L 137 499 Q 113 501 88 489 Q 66 478 44 478 Q 19 477 12 467 Q 8 460 14 440 L 14 440 Q 17 430 14 419 Q 14 417 14 416 Q 11 404 15 396 Q 20 387 30 385 Q 32 384 34 383 Q 42 381 49 375 Q 53 370 57 365 Q 60 361 64 357 Q 70 348 81 350 Q 93 352 103 366 L 123 402 Q 129 413 140 426 Q 150 438 157 449 Q 164 461 164 471 L 164 471 Z M 162 445 Q 156 434 148 425 Q 160 426 165 416 Q 168 406 157 391 Q 146 377 133 368 Q 120 359 119 359 Q 119 359 119 359 Q 99 346 94 329 Q 90 312 94 294 Q 98 276 106 261 Q 114 245 121 234 Q 126 230 113 255 Q 105 268 100 292 Q 95 315 110 338 Q 111 306 124 276 Q 127 269 131 260 Q 141 239 151 213 Q 161 187 163 163 Q 166 165 169 168 Q 173 170 177 174 Q 179 176 182 178 Q 202 192 224 179 Q 227 177 230 175 Q 236 172 240 170 Q 255 165 262 155 Q 269 179 280 206 Q 290 234 300 251 Q 305 259 312 276 Q 319 293 323 315 Q 328 315 334 317 Q 343 289 332 265 Q 321 241 311 232 Q 304 225 308 225 Q 318 234 328 250 Q 338 265 343 284 Q 348 302 344 320 Q 357 325 367 334 Q 378 342 375 355 Q 372 355 371 355 Q 371 355 370 355 Q 375 341 348 329 Q 332 322 322 324 Q 311 326 309 341 Q 292 349 288 369 Q 284 385 283 408 Q 282 420 277 436 Q 277 437 277 437 Q 252 455 222 459 Q 191 463 162 445 L 162 445 Z M 420 433 Q 417 445 396 453 L 396 453 Q 375 461 357 480 Q 335 503 313 505 Q 291 507 279 486 Q 274 469 280 450 Q 282 443 284 437 Q 289 422 290 409 Q 291 386 294 370 Q 298 355 308 349 Q 309 349 309 349 Q 310 371 328 378 Q 338 380 349 374 Q 360 369 366 362 Q 367 362 368 362 Q 380 360 389 367 Q 396 374 398 387 Q 399 399 406 409 Q 421 426 420 433 L 420 433 Z M 164 149 Q 164 149 165 149 L 165 149 Q 168 152 172 156 Q 182 165 200 166 Q 217 165 231 156 Q 231 156 231 156 Q 240 151 246 145 Q 253 140 249 139 Q 247 139 246 141 Q 245 142 243 144 Q 242 145 240 146 Q 234 151 229 154 Q 217 162 200 164 Q 184 163 175 154 Q 170 150 167 147 Q 167 147 167 147 Q 166 146 166 145 Q 165 143 163 142 Q 160 143 164 149 L 164 149 Z"/>
</svg>
