<svg xmlns="http://www.w3.org/2000/svg" viewBox="0 0 512 512">
  <path d="M 32 224 Q 34 142 88 88 L 88 88 L 88 88 Q 142 34 224 32 L 240 32 L 240 32 Q 290 33 332 59 Q 373 86 394 129 Q 398 138 403 148 Q 403 149 404 151 L 404 151 L 404 151 L 404 151 L 404 151 Q 404 151 404 151 Q 413 172 423 193 Q 439 225 467 252 L 471 255 L 471 255 Q 480 263 480 276 Q 480 288 472 296 Q 464 304 452 304 L 432 304 L 432 304 Q 417 306 416 320 L 416 384 L 416 384 Q 416 398 407 407 Q 398 416 384 416 L 304 416 L 304 416 Q 289 418 288 432 L 288 496 L 288 496 Q 289 511 304 512 Q 319 511 320 496 L 320 448 L 320 448 L 384 448 L 384 448 Q 411 447 429 429 Q 447 411 448 384 L 448 336 L 448 336 L 452 336 L 452 336 Q 477 335 494 318 Q 511 301 512 276 Q 512 249 492 231 L 489 228 L 489 228 Q 467 208 452 178 Q 443 161 435 143 Q 434 141 433 139 L 433 139 L 433 139 Q 433 137 432 135 Q 427 125 423 115 Q 398 63 349 32 Q 300 1 240 0 L 224 0 L 224 0 Q 161 1 111 31 Q 60 60 31 111 Q 1 161 0 224 Q 2 305 49 364 Q 64 382 64 401 L 64 496 L 64 496 Q 65 511 80 512 Q 95 511 96 496 L 96 401 L 96 401 Q 94 368 74 344 Q 33 293 32 224 L 32 224 Z M 176 128 L 176 129 L 176 128 L 176 129 Q 176 131 172 134 Q 167 136 165 135 L 165 135 L 165 135 Q 153 128 141 131 Q 128 135 121 146 L 105 174 L 105 174 Q 99 186 102 198 Q 105 211 117 218 L 117 218 L 117 218 Q 119 219 120 224 Q 119 229 117 230 L 117 230 L 117 230 Q 105 237 102 250 Q 99 262 105 274 L 121 302 L 121 302 Q 128 313 141 317 Q 153 320 165 314 L 165 313 L 165 313 Q 167 312 172 314 Q 176 317 176 319 L 176 320 L 176 320 Q 176 334 185 343 Q 194 352 208 352 L 240 352 L 240 352 Q 254 352 263 343 Q 272 334 272 320 L 272 319 L 272 319 Q 272 317 276 314 Q 281 312 283 313 L 283 314 L 283 314 Q 295 320 307 317 Q 320 313 327 302 L 343 274 L 343 274 Q 349 262 346 250 Q 343 237 331 230 L 331 230 L 331 230 Q 329 229 328 224 Q 329 219 331 218 L 331 218 L 331 218 Q 343 211 346 198 Q 349 186 343 174 L 327 146 L 327 146 Q 320 135 307 131 Q 295 128 283 135 L 283 135 L 283 135 Q 281 136 276 134 Q 272 131 272 129 L 272 128 L 272 128 Q 272 114 263 105 Q 254 96 240 96 L 208 96 L 208 96 Q 194 96 185 105 Q 176 114 176 128 L 176 128 Z M 240 128 L 240 129 L 240 128 L 240 129 Q 242 152 260 162 Q 278 172 299 163 L 299 162 L 299 162 L 315 190 L 315 190 L 315 190 L 315 190 Q 296 203 296 224 Q 296 245 315 258 L 315 258 L 315 258 L 299 286 L 299 286 L 299 286 L 299 286 Q 278 276 260 286 Q 242 296 240 319 L 240 320 L 240 320 L 208 320 L 208 320 L 208 319 L 208 319 Q 206 296 188 286 Q 170 276 150 286 L 149 286 L 149 286 L 133 258 L 133 258 L 134 258 L 134 258 Q 153 245 152 224 Q 153 203 134 190 L 133 190 L 133 190 L 149 162 L 149 162 L 150 162 L 150 162 Q 170 172 188 162 Q 206 152 208 129 L 208 128 L 208 128 L 240 128 L 240 128 Z M 248 224 Q 246 202 224 200 Q 202 202 200 224 Q 202 246 224 248 Q 246 246 248 224 L 248 224 Z" />
</svg>