<svg xmlns="http://www.w3.org/2000/svg" viewBox="0 0 584 516">
    <path d="M 145 167 L 157 155 Q 148 163 147 165 Q 145 167 145 167 L 145 167 L 145 167 L 145 167 L 146 167 L 146 168 Q 146 168 147 168 Q 147 169 148 169 Q 150 171 155 174 Q 163 181 181 188 Q 216 206 292 208 Q 368 206 403 188 Q 420 181 429 174 Q 434 171 436 169 Q 437 168 438 168 L 438 167 L 439 167 L 439 167 L 439 167 L 439 167 Q 439 167 437 165 Q 436 164 427 155 L 439 167 Q 443 163 443 157 Q 444 145 444 133 Q 489 145 517 163 Q 550 185 548 202 Q 549 214 532 230 Q 514 246 479 259 Q 405 287 292 288 Q 179 287 105 259 Q 70 246 52 230 Q 35 214 36 202 Q 34 185 67 163 Q 95 145 140 133 Q 139 145 140 157 Q 141 163 145 167 L 145 167 Z M 148 98 Q 88 112 50 135 Q 30 148 17 164 Q 4 181 4 202 Q 6 232 31 253 Q 55 274 94 289 Q 174 319 292 320 Q 410 319 490 289 Q 529 274 553 253 Q 578 232 580 202 Q 580 181 567 164 Q 554 148 534 135 Q 496 112 436 98 Q 420 54 381 27 Q 342 1 292 0 Q 242 1 203 27 Q 164 54 148 98 L 148 98 Z M 292 32 Q 344 33 378 65 L 378 65 Q 412 98 412 147 L 411 148 Q 405 152 390 159 Q 362 174 292 176 Q 222 174 194 159 Q 179 152 173 148 L 172 147 Q 172 98 206 65 Q 240 33 292 32 L 292 32 Z M 108 338 Q 94 332 86 344 L 6 488 Q 0 502 12 510 Q 26 516 34 504 L 114 360 Q 120 346 108 338 L 108 338 Z M 476 338 Q 464 346 470 360 L 550 504 Q 558 516 572 510 Q 584 502 578 488 L 498 344 Q 490 332 476 338 L 476 338 Z M 292 272 Q 314 270 316 248 Q 314 226 292 224 Q 270 226 268 248 Q 270 270 292 272 L 292 272 Z M 124 200 Q 122 178 100 176 Q 78 178 76 200 Q 78 222 100 224 Q 122 222 124 200 L 124 200 Z M 484 224 Q 506 222 508 200 Q 506 178 484 176 Q 462 178 460 200 Q 462 222 484 224 L 484 224 Z"/>
</svg>
