<svg xmlns="http://www.w3.org/2000/svg" viewBox="0 0 512 512">
  <path d="M 263.1111 57.28395 L 503.30865 208.98766 L 263.1111 57.28395 L 503.30865 208.98766 Q 512 215.30864 507.25925 226.37038 Q 500.14816 235.06172 489.08643 230.32098 L 256 82.5679 L 256 82.5679 L 22.91358 230.32098 L 22.91358 230.32098 Q 11.851851 235.06172 4.740741 226.37038 Q 0 215.30864 8.691358 208.19753 L 248.88889 56.493828 L 248.88889 56.493828 Q 256 52.54321 263.1111 56.493828 L 263.1111 57.28395 Z M 268.64197 206.61728 Q 267.85184 194.76543 256 193.97531 Q 244.14815 194.76543 243.35803 206.61728 Q 244.14815 218.46913 256 219.25926 Q 267.85184 218.46913 268.64197 206.61728 L 268.64197 206.61728 Z M 218.07408 206.61728 Q 218.8642 185.28395 237.03703 173.4321 Q 256 163.95062 274.96295 173.4321 Q 293.1358 185.28395 293.92593 206.61728 Q 293.1358 227.95062 274.96295 239.80247 Q 256 249.28395 237.03703 239.80247 Q 218.8642 227.95062 218.07408 206.61728 L 218.07408 206.61728 Z M 237.03703 370.96295 L 274.96295 370.96295 L 237.03703 370.96295 L 274.96295 370.96295 L 274.96295 284.04938 L 274.96295 284.04938 Q 270.22223 282.46915 265.48148 282.46915 L 246.51852 282.46915 L 246.51852 282.46915 Q 241.77777 282.46915 237.03703 284.04938 L 237.03703 370.96295 L 237.03703 370.96295 Z M 333.4321 358.32098 L 300.24692 304.5926 L 333.4321 358.32098 L 300.24692 304.5926 L 300.24692 370.96295 L 300.24692 370.96295 Q 300.24692 382.0247 293.1358 389.1358 Q 286.0247 396.24692 274.96295 396.24692 L 237.03703 396.24692 L 237.03703 396.24692 Q 225.97531 396.24692 218.8642 389.1358 Q 211.75308 382.0247 211.75308 370.96295 L 211.75308 304.5926 L 211.75308 304.5926 L 178.5679 358.32098 L 178.5679 358.32098 Q 177.77777 359.1111 177.77777 359.1111 Q 177.77777 359.1111 177.77777 359.1111 Q 179.35803 361.48148 180.14815 363.06174 L 216.49382 421.53085 L 216.49382 421.53085 Q 221.23457 431.80246 212.54321 438.91357 Q 201.48148 443.65433 195.16049 434.17285 L 161.18518 380.44446 L 161.18518 380.44446 L 161.18518 434.17285 L 161.18518 434.17285 Q 161.18518 445.23456 154.07408 452.34567 Q 146.96297 459.4568 135.90123 459.4568 L 97.97531 459.4568 L 97.97531 459.4568 Q 86.91358 459.4568 79.80247 452.34567 Q 72.69136 445.23456 72.69136 434.17285 L 72.69136 380.44446 L 72.69136 380.44446 L 39.506172 434.17285 L 39.506172 434.17285 Q 32.39506 443.65433 22.123457 438.91357 Q 12.641975 431.80246 17.382715 421.53085 L 53.728394 363.06174 L 53.728394 363.06174 Q 72.69136 333.82715 107.45679 333.03705 L 126.419754 333.03705 L 126.419754 333.03705 Q 144.59259 333.03705 158.81482 341.7284 L 192.79013 287.20987 L 192.79013 287.20987 Q 211.75308 257.9753 246.51852 257.18518 L 265.48148 257.18518 L 265.48148 257.18518 Q 300.24692 257.9753 319.20987 287.20987 L 353.18518 341.7284 L 353.18518 341.7284 Q 368.19754 333.03705 385.58026 333.03705 L 404.5432 333.03705 L 404.5432 333.03705 Q 439.30865 333.82715 458.2716 363.06174 L 494.61728 421.53085 L 494.61728 421.53085 Q 499.35803 431.80246 489.87656 438.91357 Q 479.60495 443.65433 472.49384 434.17285 L 439.30865 380.44446 L 439.30865 380.44446 L 439.30865 434.17285 L 439.30865 434.17285 Q 439.30865 445.23456 432.19754 452.34567 Q 425.08643 459.4568 414.0247 459.4568 L 376.09875 459.4568 L 376.09875 459.4568 Q 365.03705 459.4568 357.92593 452.34567 Q 350.81482 445.23456 350.81482 434.17285 L 350.81482 380.44446 L 350.81482 380.44446 L 317.62964 434.17285 L 317.62964 434.17285 Q 310.51852 443.65433 300.24692 438.91357 Q 290.76544 431.80246 295.50616 421.53085 L 331.85184 363.06174 L 331.85184 363.06174 Q 332.64197 361.48148 334.22223 359.1111 Q 334.22223 359.1111 334.22223 359.1111 Q 334.22223 359.1111 333.4321 358.32098 L 333.4321 358.32098 Z M 116.93827 295.1111 Q 128.79013 294.32098 129.58025 282.46915 Q 128.79013 270.61728 116.93827 269.82715 Q 105.08642 270.61728 104.296295 282.46915 Q 105.08642 294.32098 116.93827 295.1111 L 116.93827 295.1111 Z M 116.93827 244.54321 Q 138.2716 245.33333 150.12346 263.50616 Q 159.60493 282.46915 150.12346 301.4321 Q 138.2716 319.60495 116.93827 320.39505 Q 95.604935 319.60495 83.75309 301.4321 Q 74.27161 282.46915 83.75309 263.50616 Q 95.604935 245.33333 116.93827 244.54321 L 116.93827 244.54321 Z M 97.97531 359.90125 L 97.97531 434.17285 L 97.97531 359.90125 L 97.97531 434.17285 L 135.90123 434.17285 L 135.90123 434.17285 L 135.90123 359.90125 L 135.90123 359.90125 Q 131.16049 358.32098 126.419754 358.32098 L 107.45679 358.32098 L 107.45679 358.32098 Q 102.71605 358.32098 97.97531 359.90125 L 97.97531 359.90125 Z M 407.7037 282.46915 Q 406.91357 270.61728 395.06174 269.82715 Q 383.20987 270.61728 382.41974 282.46915 Q 383.20987 294.32098 395.06174 295.1111 Q 406.91357 294.32098 407.7037 282.46915 L 407.7037 282.46915 Z M 357.1358 282.46915 Q 357.92593 261.1358 376.09875 249.28395 Q 395.06174 239.80247 414.0247 249.28395 Q 432.19754 261.1358 432.98764 282.46915 Q 432.19754 303.80246 414.0247 315.65433 Q 395.06174 325.1358 376.09875 315.65433 Q 357.92593 303.80246 357.1358 282.46915 L 357.1358 282.46915 Z M 376.09875 434.17285 L 414.0247 434.17285 L 376.09875 434.17285 L 414.0247 434.17285 L 414.0247 359.90125 L 414.0247 359.90125 Q 409.28394 358.32098 404.5432 358.32098 L 385.58026 358.32098 L 385.58026 358.32098 Q 380.8395 358.32098 376.09875 359.90125 L 376.09875 434.17285 L 376.09875 434.17285 Z" />
</svg>