<svg xmlns="http://www.w3.org/2000/svg" viewBox="0 0 512 512">
  <path d="M 483.55555555555554 440.8888888888889 L 483.55555555555554 71.11111111111111 L 483.55555555555554 440.8888888888889 L 483.55555555555554 71.11111111111111 Q 482.6666666666667 57.77777777777778 469.3333333333333 56.888888888888886 Q 456 57.77777777777778 455.1111111111111 71.11111111111111 L 455.1111111111111 440.8888888888889 L 455.1111111111111 440.8888888888889 Q 456 454.22222222222223 469.3333333333333 455.1111111111111 Q 482.6666666666667 454.22222222222223 483.55555555555554 440.8888888888889 L 483.55555555555554 440.8888888888889 Z M 426.6666666666667 71.11111111111111 Q 427.55555555555554 53.333333333333336 439.1111111111111 40.888888888888886 L 439.1111111111111 40.888888888888886 L 439.1111111111111 40.888888888888886 Q 451.55555555555554 29.333333333333332 469.3333333333333 28.444444444444443 Q 487.1111111111111 29.333333333333332 499.55555555555554 40.888888888888886 Q 511.1111111111111 53.333333333333336 512 71.11111111111111 L 512 440.8888888888889 L 512 440.8888888888889 Q 511.1111111111111 458.6666666666667 499.55555555555554 471.1111111111111 Q 487.1111111111111 482.6666666666667 469.3333333333333 483.55555555555554 Q 451.55555555555554 482.6666666666667 439.1111111111111 471.1111111111111 Q 427.55555555555554 458.6666666666667 426.6666666666667 440.8888888888889 L 426.6666666666667 71.11111111111111 L 426.6666666666667 71.11111111111111 Z M 341.3333333333333 184.88888888888889 Q 340.44444444444446 171.55555555555554 327.1111111111111 170.66666666666666 Q 313.77777777777777 171.55555555555554 312.8888888888889 184.88888888888889 L 312.8888888888889 440.8888888888889 L 312.8888888888889 440.8888888888889 Q 313.77777777777777 454.22222222222223 327.1111111111111 455.1111111111111 Q 340.44444444444446 454.22222222222223 341.3333333333333 440.8888888888889 L 341.3333333333333 184.88888888888889 L 341.3333333333333 184.88888888888889 Z M 284.44444444444446 184.88888888888889 Q 285.3333333333333 167.11111111111111 296.8888888888889 154.66666666666666 L 296.8888888888889 154.66666666666666 L 296.8888888888889 154.66666666666666 Q 309.3333333333333 143.11111111111111 327.1111111111111 142.22222222222223 Q 344.8888888888889 143.11111111111111 357.3333333333333 154.66666666666666 Q 368.8888888888889 167.11111111111111 369.77777777777777 184.88888888888889 L 369.77777777777777 440.8888888888889 L 369.77777777777777 440.8888888888889 Q 368.8888888888889 458.6666666666667 357.3333333333333 471.1111111111111 Q 344.8888888888889 482.6666666666667 327.1111111111111 483.55555555555554 Q 309.3333333333333 482.6666666666667 296.8888888888889 471.1111111111111 Q 285.3333333333333 458.6666666666667 284.44444444444446 440.8888888888889 L 284.44444444444446 184.88888888888889 L 284.44444444444446 184.88888888888889 Z M 199.11111111111111 440.8888888888889 L 199.11111111111111 298.6666666666667 L 199.11111111111111 440.8888888888889 L 199.11111111111111 298.6666666666667 Q 198.22222222222223 285.3333333333333 184.88888888888889 284.44444444444446 Q 171.55555555555554 285.3333333333333 170.66666666666666 298.6666666666667 L 170.66666666666666 440.8888888888889 L 170.66666666666666 440.8888888888889 Q 171.55555555555554 454.22222222222223 184.88888888888889 455.1111111111111 Q 198.22222222222223 454.22222222222223 199.11111111111111 440.8888888888889 L 199.11111111111111 440.8888888888889 Z M 184.88888888888889 256 Q 202.66666666666666 256.8888888888889 215.11111111111111 268.44444444444446 L 215.11111111111111 268.44444444444446 L 215.11111111111111 268.44444444444446 Q 226.66666666666666 280.8888888888889 227.55555555555554 298.6666666666667 L 227.55555555555554 440.8888888888889 L 227.55555555555554 440.8888888888889 Q 226.66666666666666 458.6666666666667 215.11111111111111 471.1111111111111 Q 202.66666666666666 482.6666666666667 184.88888888888889 483.55555555555554 Q 167.11111111111111 482.6666666666667 154.66666666666666 471.1111111111111 Q 143.11111111111111 458.6666666666667 142.22222222222223 440.8888888888889 L 142.22222222222223 298.6666666666667 L 142.22222222222223 298.6666666666667 Q 143.11111111111111 280.8888888888889 154.66666666666666 268.44444444444446 Q 167.11111111111111 256.8888888888889 184.88888888888889 256 L 184.88888888888889 256 Z M 56.888888888888886 412.44444444444446 Q 56 399.1111111111111 42.666666666666664 398.22222222222223 Q 29.333333333333332 399.1111111111111 28.444444444444443 412.44444444444446 L 28.444444444444443 440.8888888888889 L 28.444444444444443 440.8888888888889 Q 29.333333333333332 454.22222222222223 42.666666666666664 455.1111111111111 Q 56 454.22222222222223 56.888888888888886 440.8888888888889 L 56.888888888888886 412.44444444444446 L 56.888888888888886 412.44444444444446 Z M 0 412.44444444444446 Q 0.8888888888888888 394.6666666666667 12.444444444444445 382.22222222222223 L 12.444444444444445 382.22222222222223 L 12.444444444444445 382.22222222222223 Q 24.88888888888889 370.6666666666667 42.666666666666664 369.77777777777777 Q 60.44444444444444 370.6666666666667 72.88888888888889 382.22222222222223 Q 84.44444444444444 394.6666666666667 85.33333333333333 412.44444444444446 L 85.33333333333333 440.8888888888889 L 85.33333333333333 440.8888888888889 Q 84.44444444444444 458.6666666666667 72.88888888888889 471.1111111111111 Q 60.44444444444444 482.6666666666667 42.666666666666664 483.55555555555554 Q 24.88888888888889 482.6666666666667 12.444444444444445 471.1111111111111 Q 0.8888888888888888 458.6666666666667 0 440.8888888888889 L 0 412.44444444444446 L 0 412.44444444444446 Z" />
</svg>