<svg xmlns="http://www.w3.org/2000/svg" viewBox="0 0 642 384">
    <path d="M 306 0 Q 291 1 290 16 Q 291 31 306 32 L 345 32 Q 353 32 358 39 L 442 163 L 389 234 Q 378 248 360 248 Q 356 248 352 247 L 22 168 Q 7 166 2 180 Q 0 195 14 200 L 46 207 Q 4 235 2 288 Q 3 329 30 356 Q 57 383 98 384 Q 125 384 147 371 Q 147 371 146 371 Q 146 371 146 371 Q 167 384 194 384 Q 235 383 262 356 Q 289 329 290 288 Q 290 276 287 265 L 344 278 Q 352 280 360 280 Q 394 279 414 253 L 461 191 L 480 218 Q 451 246 450 288 Q 451 329 478 356 Q 505 383 546 384 Q 587 383 614 356 Q 641 329 642 288 Q 641 247 614 220 Q 587 193 546 192 Q 525 192 506 201 L 385 21 Q 370 1 345 0 L 306 0 L 306 0 Z M 482 288 Q 483 263 498 246 L 533 297 Q 542 308 555 301 Q 566 292 559 279 L 525 228 Q 535 224 546 224 Q 573 225 591 243 Q 609 261 610 288 Q 609 315 591 333 Q 573 351 546 352 Q 519 351 501 333 Q 483 315 482 288 L 482 288 Z M 249 256 Q 258 270 258 288 Q 257 315 239 333 Q 221 351 194 352 Q 183 352 173 348 Q 193 323 194 288 Q 194 261 181 239 L 249 256 L 249 256 Z M 65 42 Q 58 29 44 33 Q 31 40 35 54 L 59 112 Q 71 141 100 150 L 190 176 Q 204 179 209 165 Q 212 151 199 146 L 109 119 Q 94 115 88 101 L 65 42 L 65 42 Z M 96 352 Q 70 351 52 333 L 52 333 Q 35 315 34 288 Q 35 261 53 243 Q 71 225 98 224 Q 125 225 143 243 Q 161 261 162 288 Q 161 315 143 333 Q 125 351 98 352 Q 98 352 98 352 Q 98 352 98 352 L 96 352 Z"/>
</svg>
