<svg xmlns="http://www.w3.org/2000/svg" viewBox="0 0 512 512">
  <path d="M 292.2912 9.808429 Q 282.48276 20.597702 292.2912 31.386972 L 480.61304 219.70882 L 480.61304 219.70882 Q 491.4023 229.51724 502.19156 219.70882 Q 512 208.91954 502.19156 198.13026 L 313.86972 9.808429 L 313.86972 9.808429 Q 303.08047 0 292.2912 9.808429 L 292.2912 9.808429 Z M 198.13026 166.7433 L 163.80077 200.09195 L 198.13026 166.7433 L 163.80077 200.09195 Q 147.12643 216.76628 143.20306 240.30652 L 118.68199 359.96936 L 118.68199 359.96936 Q 115.73946 373.70114 105.93104 383.50958 L 9.808429 480.61304 L 9.808429 480.61304 Q 0 491.4023 9.808429 502.19156 Q 20.597702 512 31.386972 502.19156 L 128.49042 406.06897 L 128.49042 406.06897 Q 138.29884 396.26053 152.03065 393.318 L 271.69348 369.77777 L 271.69348 369.77777 Q 295.2337 364.87357 311.90805 348.19922 L 345.2567 313.86972 L 345.2567 313.86972 L 437.45593 221.6705 L 437.45593 221.6705 L 415.87738 200.09195 L 415.87738 200.09195 L 334.46744 280.5211 L 334.46744 280.5211 L 231.47893 177.53256 L 231.47893 177.53256 L 311.90805 96.122604 L 311.90805 96.122604 L 290.3295 74.54406 L 290.3295 74.54406 L 198.13026 166.7433 L 198.13026 166.7433 Q 198.13026 166.7433 198.13026 166.7433 Q 198.13026 166.7433 198.13026 166.7433 L 198.13026 166.7433 Z M 208.91954 200.09195 L 311.90805 303.08047 L 208.91954 200.09195 L 311.90805 303.08047 L 289.34866 325.63983 L 289.34866 325.63983 Q 279.54022 335.44827 265.80844 338.3908 L 150.06897 361.93103 L 150.06897 361.93103 L 173.60919 246.19157 L 173.60919 246.19157 Q 176.55173 232.45976 186.36015 222.65134 L 208.91954 200.09195 L 208.91954 200.09195 Z" />
</svg>