<svg xmlns="http://www.w3.org/2000/svg" viewBox="0 0 512 512">
  <path d="M 325.8181818181818 112.78321678321679 Q 326.7132867132867 88.61538461538461 342.8251748251748 72.5034965034965 L 342.8251748251748 72.5034965034965 L 342.8251748251748 72.5034965034965 Q 358.93706293706293 56.39160839160839 383.1048951048951 55.49650349650349 Q 407.27272727272725 56.39160839160839 423.38461538461536 72.5034965034965 Q 439.4965034965035 88.61538461538461 440.3916083916084 112.78321678321679 L 440.3916083916084 253.3146853146853 L 440.3916083916084 253.3146853146853 Q 441.2867132867133 273.006993006993 454.7132867132867 286.43356643356645 Q 482.46153846153845 314.1818181818182 483.35664335664336 356.25174825174827 Q 482.46153846153845 399.2167832167832 453.8181818181818 426.965034965035 Q 426.0699300699301 455.6083916083916 383.1048951048951 456.5034965034965 Q 340.13986013986016 455.6083916083916 312.3916083916084 426.965034965035 Q 283.74825174825173 399.2167832167832 282.8531468531468 356.25174825174827 Q 283.74825174825173 314.1818181818182 311.4965034965035 286.43356643356645 Q 324.9230769230769 273.006993006993 325.8181818181818 253.3146853146853 L 325.8181818181818 112.78321678321679 L 325.8181818181818 112.78321678321679 Z M 383.1048951048951 26.853146853146853 Q 346.4055944055944 27.748251748251747 322.23776223776224 51.91608391608391 L 322.23776223776224 51.91608391608391 L 322.23776223776224 51.91608391608391 Q 298.0699300699301 76.08391608391608 297.1748251748252 112.78321678321679 L 297.1748251748252 253.3146853146853 L 297.1748251748252 253.3146853146853 Q 297.1748251748252 259.5804195804196 290.90909090909093 265.84615384615387 Q 255.1048951048951 302.54545454545456 254.2097902097902 356.25174825174827 Q 256 410.8531468531468 291.8041958041958 447.5524475524476 Q 328.5034965034965 483.35664335664336 383.1048951048951 485.1468531468532 Q 437.7062937062937 483.35664335664336 474.4055944055944 447.5524475524476 Q 510.2097902097902 410.8531468531468 512 356.25174825174827 Q 511.1048951048951 302.54545454545456 475.3006993006993 265.84615384615387 Q 469.034965034965 259.5804195804196 469.034965034965 253.3146853146853 L 469.034965034965 112.78321678321679 L 469.034965034965 112.78321678321679 Q 468.13986013986016 76.08391608391608 443.97202797202794 51.91608391608391 Q 419.8041958041958 27.748251748251747 383.1048951048951 26.853146853146853 L 383.1048951048951 26.853146853146853 Z M 354.46153846153845 356.25174825174827 Q 354.46153846153845 343.72027972027973 362.5174825174825 335.6643356643357 L 362.5174825174825 335.6643356643357 L 362.5174825174825 335.6643356643357 Q 370.57342657342656 327.6083916083916 383.1048951048951 327.6083916083916 Q 395.6363636363636 327.6083916083916 403.6923076923077 335.6643356643357 Q 411.74825174825173 343.72027972027973 411.74825174825173 356.25174825174827 Q 411.74825174825173 368.7832167832168 403.6923076923077 376.83916083916085 Q 395.6363636363636 384.8951048951049 383.1048951048951 384.8951048951049 Q 370.57342657342656 384.8951048951049 362.5174825174825 376.83916083916085 Q 354.46153846153845 368.7832167832168 354.46153846153845 356.25174825174827 L 354.46153846153845 356.25174825174827 Z M 440.3916083916084 356.25174825174827 Q 440.3916083916084 335.6643356643357 427.86013986013984 320.4475524475524 L 427.86013986013984 320.4475524475524 L 427.86013986013984 320.4475524475524 Q 416.2237762237762 306.12587412587413 397.42657342657344 300.75524475524475 L 397.42657342657344 270.32167832167835 L 397.42657342657344 270.32167832167835 Q 396.53146853146853 256.8951048951049 383.1048951048951 256 Q 369.67832167832165 256.8951048951049 368.7832167832168 270.32167832167835 L 368.7832167832168 300.75524475524475 L 368.7832167832168 300.75524475524475 Q 349.986013986014 306.12587412587413 338.34965034965035 320.4475524475524 Q 325.8181818181818 335.6643356643357 325.8181818181818 356.25174825174827 Q 326.7132867132867 380.4195804195804 342.8251748251748 396.53146853146853 Q 358.93706293706293 412.64335664335664 383.1048951048951 413.53846153846155 Q 407.27272727272725 412.64335664335664 423.38461538461536 396.53146853146853 Q 439.4965034965035 380.4195804195804 440.3916083916084 356.25174825174827 L 440.3916083916084 356.25174825174827 Z M 251.52447552447552 154.85314685314685 L 257.7902097902098 129.7902097902098 L 251.52447552447552 154.85314685314685 L 257.7902097902098 129.7902097902098 Q 260.4755244755245 116.36363636363636 247.94405594405595 111.8881118881119 Q 234.5174825174825 109.2027972027972 230.04195804195805 121.73426573426573 L 215.72027972027973 174.54545454545453 L 215.72027972027973 174.54545454545453 L 168.27972027972027 202.2937062937063 L 168.27972027972027 202.2937062937063 L 168.27972027972027 147.69230769230768 L 168.27972027972027 147.69230769230768 L 206.76923076923077 108.3076923076923 L 206.76923076923077 108.3076923076923 Q 215.72027972027973 98.46153846153847 206.76923076923077 88.61538461538461 Q 196.92307692307693 79.66433566433567 187.07692307692307 88.61538461538461 L 168.27972027972027 106.51748251748252 L 168.27972027972027 106.51748251748252 L 168.27972027972027 69.81818181818181 L 168.27972027972027 69.81818181818181 Q 167.3846153846154 56.39160839160839 153.95804195804195 55.49650349650349 Q 140.53146853146853 56.39160839160839 139.63636363636363 69.81818181818181 L 139.63636363636363 106.51748251748252 L 139.63636363636363 106.51748251748252 L 120.83916083916084 88.61538461538461 L 120.83916083916084 88.61538461538461 Q 110.99300699300699 79.66433566433567 101.14685314685315 88.61538461538461 Q 92.1958041958042 98.46153846153847 101.14685314685315 108.3076923076923 L 139.63636363636363 147.69230769230768 L 139.63636363636363 147.69230769230768 L 139.63636363636363 202.2937062937063 L 139.63636363636363 202.2937062937063 L 92.1958041958042 175.44055944055944 L 92.1958041958042 175.44055944055944 L 77.87412587412588 121.73426573426573 L 77.87412587412588 121.73426573426573 Q 73.3986013986014 110.0979020979021 59.97202797202797 111.8881118881119 Q 47.44055944055944 116.36363636363636 50.12587412587413 129.7902097902098 L 57.28671328671329 154.85314685314685 L 57.28671328671329 154.85314685314685 L 25.062937062937063 136.05594405594405 L 25.062937062937063 136.05594405594405 Q 12.531468531468532 130.6853146853147 5.370629370629371 141.4265734265734 Q 0 153.06293706293707 10.741258741258742 161.11888111888112 L 42.06993006993007 179.91608391608392 L 42.06993006993007 179.91608391608392 L 17.006993006993007 186.1818181818182 L 17.006993006993007 186.1818181818182 Q 4.475524475524476 190.65734265734267 7.160839160839161 204.08391608391608 Q 11.636363636363637 216.6153846153846 24.167832167832167 213.93006993006992 L 77.87412587412588 199.6083916083916 L 77.87412587412588 199.6083916083916 L 125.31468531468532 227.35664335664336 L 125.31468531468532 227.35664335664336 L 77.87412587412588 255.1048951048951 L 77.87412587412588 255.1048951048951 L 24.167832167832167 240.78321678321677 L 24.167832167832167 240.78321678321677 Q 11.636363636363637 238.993006993007 7.160839160839161 250.62937062937064 Q 4.475524475524476 264.05594405594405 17.006993006993007 268.53146853146853 L 42.06993006993007 275.6923076923077 L 42.06993006993007 275.6923076923077 L 10.741258741258742 293.5944055944056 L 10.741258741258742 293.5944055944056 Q 0 301.65034965034965 5.370629370629371 313.2867132867133 Q 12.531468531468532 324.02797202797206 25.062937062937063 318.65734265734267 L 56.39160839160839 299.86013986013984 L 56.39160839160839 299.86013986013984 L 50.12587412587413 324.9230769230769 L 50.12587412587413 324.9230769230769 Q 47.44055944055944 338.34965034965035 59.97202797202797 342.8251748251748 Q 73.3986013986014 345.5104895104895 77.87412587412588 332.97902097902096 L 92.1958041958042 280.16783216783216 L 92.1958041958042 280.16783216783216 L 139.63636363636363 252.41958041958043 L 139.63636363636363 252.41958041958043 L 139.63636363636363 307.02097902097904 L 139.63636363636363 307.02097902097904 L 101.14685314685315 346.4055944055944 L 101.14685314685315 346.4055944055944 Q 92.1958041958042 356.25174825174827 101.14685314685315 366.0979020979021 Q 110.99300699300699 375.04895104895104 120.83916083916084 366.0979020979021 L 139.63636363636363 348.1958041958042 L 139.63636363636363 348.1958041958042 L 139.63636363636363 384.8951048951049 L 139.63636363636363 384.8951048951049 Q 140.53146853146853 398.32167832167835 153.95804195804195 399.2167832167832 Q 167.3846153846154 398.32167832167835 168.27972027972027 384.8951048951049 L 168.27972027972027 348.1958041958042 L 168.27972027972027 348.1958041958042 L 187.07692307692307 366.0979020979021 L 187.07692307692307 366.0979020979021 Q 196.92307692307693 375.04895104895104 206.76923076923077 366.0979020979021 Q 215.72027972027973 356.25174825174827 206.76923076923077 346.4055944055944 L 168.27972027972027 307.02097902097904 L 168.27972027972027 307.02097902097904 L 168.27972027972027 252.41958041958043 L 168.27972027972027 252.41958041958043 L 215.72027972027973 280.16783216783216 L 215.72027972027973 280.16783216783216 L 228.25174825174824 325.8181818181818 L 228.25174825174824 325.8181818181818 Q 238.0979020979021 281.06293706293707 268.53146853146853 247.94405594405595 L 268.53146853146853 244.36363636363637 L 268.53146853146853 244.36363636363637 L 230.04195804195805 255.1048951048951 L 230.04195804195805 255.1048951048951 L 182.6013986013986 227.35664335664336 L 182.6013986013986 227.35664335664336 L 230.04195804195805 199.6083916083916 L 230.04195804195805 199.6083916083916 L 268.53146853146853 210.34965034965035 L 268.53146853146853 210.34965034965035 L 268.53146853146853 180.8111888111888 L 268.53146853146853 180.8111888111888 L 265.84615384615387 179.91608391608392 L 265.84615384615387 179.91608391608392 L 268.53146853146853 178.12587412587413 L 268.53146853146853 178.12587412587413 L 268.53146853146853 145.006993006993 L 268.53146853146853 145.006993006993 L 251.52447552447552 154.85314685314685 L 251.52447552447552 154.85314685314685 Z" />
</svg>