<svg xmlns="http://www.w3.org/2000/svg" viewBox="0 0 512 512">
  <path d="M 73.14286 36.57143 Q 57.142857 36.57143 46.857143 46.857143 L 46.857143 46.857143 L 46.857143 46.857143 Q 36.57143 57.142857 36.57143 73.14286 L 36.57143 438.85715 L 36.57143 438.85715 Q 36.57143 454.85715 46.857143 465.14285 Q 57.142857 475.42856 73.14286 475.42856 L 438.85715 475.42856 L 438.85715 475.42856 Q 454.85715 475.42856 465.14285 465.14285 Q 475.42856 454.85715 475.42856 438.85715 L 475.42856 73.14286 L 475.42856 73.14286 Q 475.42856 57.142857 465.14285 46.857143 Q 454.85715 36.57143 438.85715 36.57143 L 73.14286 36.57143 L 73.14286 36.57143 Z M 0 73.14286 Q 1.1428572 42.285713 21.714285 21.714285 L 21.714285 21.714285 L 21.714285 21.714285 Q 42.285713 1.1428572 73.14286 0 L 438.85715 0 L 438.85715 0 Q 469.7143 1.1428572 490.2857 21.714285 Q 510.85715 42.285713 512 73.14286 L 512 438.85715 L 512 438.85715 Q 510.85715 469.7143 490.2857 490.2857 Q 469.7143 510.85715 438.85715 512 L 73.14286 512 L 73.14286 512 Q 42.285713 510.85715 21.714285 490.2857 Q 1.1428572 469.7143 0 438.85715 L 0 73.14286 L 0 73.14286 Z M 256 109.71429 Q 267.42856 109.71429 272 120 L 400 376 L 400 376 Q 406.85715 390.85715 392 400 Q 376 406.85715 368 392 L 336 329.14285 L 336 329.14285 L 176 329.14285 L 176 329.14285 L 144 392 L 144 392 Q 134.85715 406.85715 120 400 Q 105.14286 392 112 376 L 240 120 L 240 120 Q 244.57143 109.71429 256 109.71429 L 256 109.71429 Z M 256 169.14285 L 194.28572 292.57144 L 256 169.14285 L 194.28572 292.57144 L 317.7143 292.57144 L 317.7143 292.57144 L 256 169.14285 L 256 169.14285 Z" />
</svg>