<svg xmlns="http://www.w3.org/2000/svg" viewBox="0 0 512 512">
  <path d="M 51.2 128 Q 40 128 32.8 135.2 L 32.8 135.2 L 32.8 135.2 Q 25.6 142.4 25.6 153.6 L 25.6 358.4 L 25.6 358.4 Q 25.6 369.6 32.8 376.8 Q 40 384 51.2 384 L 460.8 384 L 460.8 384 Q 472 384 479.2 376.8 Q 486.4 369.6 486.4 358.4 L 486.4 318.4 L 486.4 318.4 Q 464 313.6 449.6 296.8 Q 436 280 435.2 256 Q 436 232 449.6 215.2 Q 464 198.4 486.4 193.6 L 486.4 153.6 L 486.4 153.6 Q 486.4 142.4 479.2 135.2 Q 472 128 460.8 128 L 51.2 128 L 51.2 128 Z M 0 153.6 Q 0.8 132 15.2 117.6 L 15.2 117.6 L 15.2 117.6 Q 29.6 103.2 51.2 102.4 L 460.8 102.4 L 460.8 102.4 Q 482.4 103.2 496.8 117.6 Q 511.2 132 512 153.6 L 512 206.4 L 512 206.4 Q 510.4 216.8 499.2 217.6 Q 483.2 218.4 472 228.8 Q 461.6 240 460.8 256 Q 461.6 272 472 283.2 Q 483.2 293.6 499.2 294.4 Q 510.4 295.2 512 305.6 L 512 358.4 L 512 358.4 Q 511.2 380 496.8 394.4 Q 482.4 408.8 460.8 409.6 L 51.2 409.6 L 51.2 409.6 Q 29.6 408.8 15.2 394.4 Q 0.8 380 0 358.4 L 0 153.6 L 0 153.6 Z M 371.2 166.4 Q 383.2 167.2 384 179.2 Q 383.2 191.2 371.2 192 Q 359.2 191.2 358.4 179.2 Q 359.2 167.2 371.2 166.4 L 371.2 166.4 Z M 371.2 217.6 Q 383.2 218.4 384 230.4 Q 383.2 242.4 371.2 243.2 Q 359.2 242.4 358.4 230.4 Q 359.2 218.4 371.2 217.6 L 371.2 217.6 Z M 358.4 281.6 Q 359.2 269.6 371.2 268.8 Q 383.2 269.6 384 281.6 Q 383.2 293.6 371.2 294.4 Q 359.2 293.6 358.4 281.6 L 358.4 281.6 Z M 371.2 320 Q 383.2 320.8 384 332.8 Q 383.2 344.8 371.2 345.6 Q 359.2 344.8 358.4 332.8 Q 359.2 320.8 371.2 320 L 371.2 320 Z M 174.4 226.4 Q 176 232.8 172.8 237.6 Q 168.8 243.2 162.4 243.2 L 128 243.2 L 128 243.2 Q 121.6 243.2 117.6 238.4 L 102.4 217.6 L 102.4 217.6 L 100 217.6 L 100 217.6 L 108 249.6 L 108 249.6 Q 109.6 256 108 262.4 L 100 294.4 L 100 294.4 L 102.4 294.4 L 102.4 294.4 L 117.6 273.6 L 117.6 273.6 Q 121.6 268.8 128 268.8 L 162.4 268.8 L 162.4 268.8 Q 168.8 268.8 172.8 274.4 Q 176 279.2 174.4 285.6 L 158.4 332.8 L 158.4 332.8 L 174.4 332.8 L 174.4 332.8 Q 178.4 332.8 180 329.6 L 212 275.2 L 212 275.2 Q 216 268.8 223.2 268.8 L 255.2 268.8 L 255.2 268.8 Q 269.6 268.8 280 258.4 Q 282.4 256 280 253.6 Q 269.6 243.2 255.2 243.2 L 223.2 243.2 L 223.2 243.2 Q 216 243.2 212 236.8 L 180 182.4 L 180 182.4 Q 178.4 179.2 174.4 179.2 L 158.4 179.2 L 158.4 179.2 L 174.4 226.4 L 174.4 226.4 Z M 149.6 153.6 L 174.4 153.6 L 149.6 153.6 L 174.4 153.6 Q 192.8 154.4 202.4 169.6 L 230.4 217.6 L 230.4 217.6 L 255.2 217.6 L 255.2 217.6 Q 280.8 217.6 298.4 235.2 Q 307.2 244.8 307.2 256 Q 307.2 267.2 298.4 276.8 Q 280 294.4 255.2 294.4 L 230.4 294.4 L 230.4 294.4 L 202.4 342.4 L 202.4 342.4 Q 192.8 357.6 174.4 358.4 L 149.6 358.4 L 149.6 358.4 Q 139.2 357.6 134.4 350.4 Q 128.8 343.2 131.2 332.8 L 144.8 294.4 L 144.8 294.4 L 134.4 294.4 L 134.4 294.4 L 123.2 309.6 L 123.2 309.6 Q 115.2 320 102.4 320 L 91.2 320 L 91.2 320 Q 81.6 320 76 312.8 Q 70.4 305.6 72.8 296 L 83.2 256 L 83.2 256 L 72.8 216 L 72.8 216 Q 70.4 206.4 76 199.2 Q 81.6 192 91.2 192 L 102.4 192 L 102.4 192 Q 115.2 192 123.2 202.4 L 134.4 217.6 L 134.4 217.6 L 144.8 217.6 L 144.8 217.6 L 131.2 179.2 L 131.2 179.2 Q 128.8 168.8 134.4 161.6 Q 140 154.4 149.6 153.6 L 149.6 153.6 Z" />
</svg>