<svg xmlns="http://www.w3.org/2000/svg" viewBox="0 0 512 512">
  <path d="M 159.32177263969172 26.63583815028902 Q 165.24084778420038 13.811175337186897 152.41618497109826 5.91907514450867 Q 138.60500963391138 0 131.69942196531792 12.824662813102119 L 86.31984585741812 103.58381502890174 L 86.31984585741812 103.58381502890174 Q 73.495183044316 133.17919075144508 93.22543352601156 156.85549132947978 L 164.2543352601156 232.8169556840077 L 164.2543352601156 232.8169556840077 L 63.630057803468205 206.1811175337187 L 63.630057803468205 206.1811175337187 Q 55.737957610789984 203.22157996146436 52.77842003853564 196.3159922928709 L 34.03468208092485 141.07129094412332 L 34.03468208092485 141.07129094412332 Q 28.115606936416185 127.26011560693641 14.304431599229288 131.20616570327553 Q 1.4797687861271676 137.1252408477842 4.4393063583815024 150.9364161849711 L 22.196531791907514 206.1811175337187 L 22.196531791907514 206.1811175337187 Q 31.07514450867052 229.85741811175336 55.737957610789984 236.76300578034682 L 130.71290944123314 256.4932562620424 L 130.71290944123314 256.4932562620424 L 55.737957610789984 276.22350674373797 L 55.737957610789984 276.22350674373797 Q 31.07514450867052 283.1290944123314 22.196531791907514 306.8053949903661 L 4.4393063583815024 362.0500963391137 L 4.4393063583815024 362.0500963391137 Q 0.4932562620423892 375.8612716763006 14.304431599229288 381.78034682080926 Q 28.115606936416185 384.73988439306356 34.03468208092485 371.91522157996144 L 52.77842003853564 316.67052023121386 L 52.77842003853564 316.67052023121386 Q 55.737957610789984 308.77842003853567 63.630057803468205 306.8053949903661 L 146.4971098265896 285.10211946050094 L 146.4971098265896 285.10211946050094 L 87.30635838150289 367.96917148362235 L 87.30635838150289 367.96917148362235 Q 73.495183044316 388.6859344894027 81.38728323699422 412.3622350674374 L 114.92870905587668 499.1753371868979 L 114.92870905587668 499.1753371868979 Q 121.83429672447014 512 135.64547206165705 508.0539499036609 Q 148.47013487475914 501.14836223506745 144.52408477842005 487.33718689788054 L 110.98265895953757 400.52408477842005 L 110.98265895953757 400.52408477842005 Q 108.02312138728324 392.6319845857418 112.95568400770713 385.72639691714835 L 145.5105973025048 340.3468208092485 L 145.5105973025048 340.3468208092485 Q 148.47013487475914 385.72639691714835 179.0520231213873 415.3217726396917 Q 210.6204238921002 444.9171483622351 256 445.90366088631987 Q 301.3795761078998 444.9171483622351 332.94797687861274 415.3217726396917 Q 363.52986512524086 385.72639691714835 366.48940269749517 340.3468208092485 L 399.04431599229287 385.72639691714835 L 399.04431599229287 385.72639691714835 Q 403.97687861271675 392.6319845857418 401.01734104046244 400.52408477842005 L 367.47591522157995 487.33718689788054 L 367.47591522157995 487.33718689788054 Q 363.52986512524086 501.14836223506745 376.354527938343 508.0539499036609 Q 390.1657032755299 512 397.0712909441233 499.1753371868979 L 430.6127167630058 412.3622350674374 L 430.6127167630058 412.3622350674374 Q 438.504816955684 388.6859344894027 424.6936416184971 367.96917148362235 L 365.5028901734104 285.10211946050094 L 365.5028901734104 285.10211946050094 L 448.3699421965318 306.8053949903661 L 448.3699421965318 306.8053949903661 Q 456.26204238921 309.7649325626204 459.22157996146433 317.65703275529864 L 477.9653179190751 371.91522157996144 L 477.9653179190751 371.91522157996144 Q 483.88439306358384 385.72639691714835 497.6955684007707 381.78034682080926 Q 510.5202312138728 375.8612716763006 507.5606936416185 362.0500963391137 L 489.8034682080925 306.8053949903661 L 489.8034682080925 306.8053949903661 Q 480.9248554913295 283.1290944123314 456.26204238921 276.22350674373797 L 381.28709055876686 256.4932562620424 L 381.28709055876686 256.4932562620424 L 456.26204238921 236.76300578034682 L 456.26204238921 236.76300578034682 Q 480.9248554913295 229.85741811175336 489.8034682080925 206.1811175337187 L 507.5606936416185 150.9364161849711 L 507.5606936416185 150.9364161849711 Q 511.5067437379576 137.1252408477842 497.6955684007707 131.20616570327553 Q 483.88439306358384 128.2466281310212 477.9653179190751 141.07129094412332 L 459.22157996146433 196.3159922928709 L 459.22157996146433 196.3159922928709 Q 456.26204238921 204.20809248554914 448.3699421965318 206.1811175337187 L 348.73217726396916 232.8169556840077 L 348.73217726396916 232.8169556840077 L 418.77456647398844 156.85549132947978 L 418.77456647398844 156.85549132947978 Q 438.504816955684 133.17919075144508 426.6666666666667 103.58381502890174 L 380.3005780346821 12.824662813102119 L 380.3005780346821 12.824662813102119 Q 372.40847784200383 0 359.5838150289017 5.91907514450867 Q 346.7591522157996 12.824662813102119 352.6782273603083 26.63583815028902 L 398.0578034682081 117.39499036608863 L 398.0578034682081 117.39499036608863 Q 402.0038535645472 127.26011560693641 395.0982658959538 135.15221579961465 L 334.92100192678225 200.26204238921002 L 334.92100192678225 200.26204238921002 L 334.92100192678225 153.89595375722544 L 334.92100192678225 153.89595375722544 Q 334.92100192678225 130.21965317919074 322.09633911368013 110.48940269749518 Q 310.2581888246628 91.74566473988439 289.5414258188825 81.88053949903662 Q 276.71676300578036 77.9344894026975 268.8246628131021 88.78612716763006 L 256 112.46242774566474 L 256 112.46242774566474 L 243.17533718689788 88.78612716763006 L 243.17533718689788 88.78612716763006 Q 235.28323699421966 77.9344894026975 222.45857418111754 81.88053949903662 Q 201.74181117533718 91.74566473988439 189.90366088631984 110.48940269749518 Q 177.07899807321772 130.21965317919074 177.07899807321772 153.89595375722544 L 177.07899807321772 200.26204238921002 L 177.07899807321772 200.26204238921002 L 116.90173410404624 135.15221579961465 L 116.90173410404624 135.15221579961465 Q 109.9961464354528 127.26011560693641 113.94219653179191 117.39499036608863 L 159.32177263969172 26.63583815028902 L 159.32177263969172 26.63583815028902 Z M 288.5549132947977 119.3680154142582 Q 302.3660886319846 133.17919075144508 303.35260115606934 153.89595375722544 L 303.35260115606934 256.4932562620424 L 303.35260115606934 256.4932562620424 L 303.35260115606934 256.4932562620424 L 303.35260115606934 256.4932562620424 L 303.35260115606934 256.4932562620424 L 303.35260115606934 256.4932562620424 Q 303.35260115606934 264.38535645472064 308.2851637764933 268.33140655105973 Q 333.9344894026975 291.0211946050096 334.92100192678225 327.52215799614646 L 334.92100192678225 335.41425818882465 L 334.92100192678225 335.41425818882465 Q 333.9344894026975 368.95568400770713 312.23121387283237 391.645472061657 Q 289.5414258188825 413.34874759152217 256 414.33526011560696 Q 222.45857418111754 413.34874759152217 199.76878612716763 391.645472061657 Q 178.0655105973025 368.95568400770713 177.07899807321772 335.41425818882465 L 177.07899807321772 327.52215799614646 L 177.07899807321772 327.52215799614646 Q 178.0655105973025 291.0211946050096 203.71483622350675 268.33140655105973 Q 208.64739884393063 264.38535645472064 208.64739884393063 256.4932562620424 L 208.64739884393063 256.4932562620424 L 208.64739884393063 256.4932562620424 L 208.64739884393063 256.4932562620424 L 208.64739884393063 256.4932562620424 L 208.64739884393063 153.89595375722544 L 208.64739884393063 153.89595375722544 Q 209.63391136801542 133.17919075144508 223.4450867052023 119.3680154142582 L 242.1888246628131 153.89595375722544 L 242.1888246628131 153.89595375722544 Q 247.121387283237 161.78805394990366 256 161.78805394990366 Q 264.87861271676303 161.78805394990366 269.8111753371869 153.89595375722544 L 288.5549132947977 119.3680154142582 L 288.5549132947977 119.3680154142582 Z" />
</svg>