<svg xmlns="http://www.w3.org/2000/svg" viewBox="0 0 512 512">
  <path d="M 411.52904238618527 100.87284144427002 L 51.44113029827316 100.87284144427002 L 411.52904238618527 100.87284144427002 L 51.44113029827316 100.87284144427002 Q 40.1883830455259 100.87284144427002 32.95447409733124 108.10675039246468 Q 25.72056514913658 115.34065934065934 25.72056514913658 126.5934065934066 L 25.72056514913658 332.3579277864992 L 25.72056514913658 332.3579277864992 Q 25.72056514913658 343.6106750392465 32.95447409733124 350.8445839874411 Q 40.1883830455259 358.0784929356358 51.44113029827316 358.0784929356358 L 271.6734693877551 358.0784929356358 L 271.6734693877551 358.0784929356358 L 265.24332810047093 383.79905808477235 L 265.24332810047093 383.79905808477235 L 51.44113029827316 383.79905808477235 L 51.44113029827316 383.79905808477235 Q 29.739403453689167 382.99529042386183 15.271585557299844 368.5274725274725 Q 0.8037676609105181 354.0596546310832 0 332.3579277864992 L 0 126.5934065934066 L 0 126.5934065934066 Q 0.8037676609105181 104.89167974882261 15.271585557299844 90.42386185243328 Q 29.739403453689167 75.95604395604396 51.44113029827316 75.15227629513343 L 411.52904238618527 75.15227629513343 L 411.52904238618527 75.15227629513343 Q 433.2307692307692 75.95604395604396 447.69858712715853 90.42386185243328 Q 462.1664050235479 104.89167974882261 462.9701726844584 126.5934065934066 L 462.9701726844584 178.03453689167975 L 462.9701726844584 178.03453689167975 Q 449.3061224489796 178.03453689167975 437.24960753532184 182.85714285714286 L 437.24960753532184 126.5934065934066 L 437.24960753532184 126.5934065934066 Q 437.24960753532184 115.34065934065934 430.01569858712713 108.10675039246468 Q 422.7817896389325 100.87284144427002 411.52904238618527 100.87284144427002 L 411.52904238618527 100.87284144427002 Z M 205.76452119309263 268.0565149136578 Q 206.56828885400313 256 218.62480376766092 255.19623233908948 L 295.78649921507065 255.19623233908948 L 295.78649921507065 255.19623233908948 Q 307.84301412872844 256 308.6467817896389 268.0565149136578 Q 307.84301412872844 280.11302982731553 295.78649921507065 280.91679748822605 L 218.62480376766092 280.91679748822605 L 218.62480376766092 280.91679748822605 Q 206.56828885400313 280.11302982731553 205.76452119309263 268.0565149136578 L 205.76452119309263 268.0565149136578 Z M 218.62480376766092 178.03453689167975 L 372.9481946624804 178.03453689167975 L 218.62480376766092 178.03453689167975 L 372.9481946624804 178.03453689167975 Q 385.00470957613817 178.83830455259027 385.8084772370487 190.89481946624804 Q 385.00470957613817 202.9513343799058 372.9481946624804 203.75510204081633 L 218.62480376766092 203.75510204081633 L 218.62480376766092 203.75510204081633 Q 206.56828885400313 202.9513343799058 205.76452119309263 190.89481946624804 Q 206.56828885400313 178.83830455259027 218.62480376766092 178.03453689167975 L 218.62480376766092 178.03453689167975 Z M 115.7425431711146 133.02354788069073 Q 127.79905808477237 133.82731554160125 128.60282574568288 145.88383045525902 L 128.60282574568288 159.54788069073783 L 128.60282574568288 159.54788069073783 Q 139.05180533751962 161.15541601255887 147.89324960753532 163.56671899529042 Q 159.14599686028257 167.585557299843 156.73469387755102 179.6420722135008 Q 152.71585557299844 190.89481946624804 141.46310832025117 188.4835164835165 Q 127.79905808477237 184.46467817896388 115.7425431711146 184.46467817896388 Q 104.48979591836735 184.46467817896388 96.45211930926217 189.287284144427 Q 90.02197802197803 192.50235478806908 90.02197802197803 198.9324960753532 Q 89.2182103610675 202.9513343799058 95.64835164835165 206.9701726844584 Q 104.48979591836735 211.7927786499215 119.76138147566719 215.8116169544741 L 119.76138147566719 215.8116169544741 L 119.76138147566719 215.8116169544741 L 119.76138147566719 215.8116169544741 L 119.76138147566719 215.8116169544741 L 119.76138147566719 215.8116169544741 L 119.76138147566719 215.8116169544741 Q 119.76138147566719 215.8116169544741 119.76138147566719 215.8116169544741 Q 134.2291993720565 219.83045525902668 148.69701726844585 227.86813186813185 Q 165.57613814756672 236.70957613814755 167.18367346938774 258.41130298273157 Q 166.37990580847725 281.7205651491366 148.69701726844585 292.1695447409733 Q 139.05180533751962 297.7959183673469 128.60282574568288 299.403453689168 L 128.60282574568288 313.06750392464676 L 128.60282574568288 313.06750392464676 Q 127.79905808477237 325.12401883830455 115.7425431711146 325.9277864992151 Q 103.68602825745683 325.12401883830455 102.88226059654632 313.06750392464676 L 102.88226059654632 298.59968602825745 L 102.88226059654632 298.59968602825745 Q 89.2182103610675 296.1883830455259 77.96546310832025 291.3657770800628 L 77.96546310832025 291.3657770800628 L 77.96546310832025 291.3657770800628 Q 75.5541601255887 290.5620094191523 73.14285714285714 289.75824175824175 Q 61.89010989010989 284.93563579277867 65.10518053375196 273.6828885400314 Q 69.92778649921507 263.23390894819465 81.18053375196233 265.6452119309262 Q 84.3956043956044 266.44897959183675 86.80690737833595 267.25274725274727 Q 86.80690737833595 267.25274725274727 86.80690737833595 267.25274725274727 L 86.80690737833595 267.25274725274727 L 86.80690737833595 267.25274725274727 L 86.80690737833595 267.25274725274727 L 86.80690737833595 267.25274725274727 L 86.80690737833595 267.25274725274727 L 86.80690737833595 267.25274725274727 Q 87.61067503924647 267.25274725274727 87.61067503924647 268.0565149136578 Q 102.88226059654632 273.6828885400314 115.7425431711146 274.4866562009419 Q 127.79905808477237 274.4866562009419 135.03296703296704 270.4678178963893 Q 141.46310832025117 266.44897959183675 141.46310832025117 259.2150706436421 Q 141.46310832025117 253.58869701726846 135.03296703296704 249.56985871271584 Q 126.99529042386185 244.74725274725276 111.72370486656202 240.72841444270017 L 110.9199372056515 239.92464678178965 L 110.9199372056515 239.92464678178965 L 110.9199372056515 239.92464678178965 L 110.9199372056515 239.92464678178965 L 110.9199372056515 239.92464678178965 L 110.9199372056515 239.92464678178965 Q 96.45211930926217 236.70957613814755 82.78806907378336 229.4756671899529 Q 66.712715855573 220.6342229199372 64.30141287284144 198.9324960753532 Q 65.90894819466249 175.6232339089482 83.59183673469387 166.7817896389325 Q 92.43328100470957 161.15541601255887 102.88226059654632 159.54788069073783 L 102.88226059654632 145.88383045525902 L 102.88226059654632 145.88383045525902 Q 103.68602825745683 133.82731554160125 115.7425431711146 133.02354788069073 L 115.7425431711146 133.02354788069073 Z M 468.596546310832 235.90580847723706 Q 459.7551020408163 228.67189952904238 450.1098901098901 235.90580847723706 L 430.01569858712713 256 L 430.01569858712713 256 L 462.1664050235479 288.1507064364207 L 462.1664050235479 288.1507064364207 L 482.2605965463108 268.0565149136578 L 482.2605965463108 268.0565149136578 Q 490.29827315541604 259.2150706436421 482.2605965463108 249.56985871271584 L 468.596546310832 235.90580847723706 L 468.596546310832 235.90580847723706 Z M 327.13343799058083 359.6860282574568 Q 323.9183673469388 362.0973312401884 323.11459968602827 365.31240188383043 L 313.46938775510205 404.69701726844585 L 313.46938775510205 404.69701726844585 L 352.8540031397174 395.0518053375196 L 352.8540031397174 395.0518053375196 Q 356.0690737833595 394.2480376766091 358.48037676609107 391.83673469387753 L 444.4835164835165 305.8335949764521 L 444.4835164835165 305.8335949764521 L 412.33281004709573 273.6828885400314 L 412.33281004709573 273.6828885400314 L 327.13343799058083 359.6860282574568 L 327.13343799058083 359.6860282574568 Z M 432.4270015698587 217.41915227629514 Q 443.679748822606 206.16640502354787 458.9513343799058 206.16640502354787 L 458.9513343799058 206.16640502354787 L 458.9513343799058 206.16640502354787 Q 475.02668759811615 206.16640502354787 486.2794348508634 217.41915227629514 L 500.74725274725273 231.88697017268447 L 500.74725274725273 231.88697017268447 Q 512 243.94348508634224 512 259.2150706436421 Q 512 274.4866562009419 500.74725274725273 286.54317111459966 L 376.967032967033 409.51962323390893 L 376.967032967033 409.51962323390893 Q 369.7331240188383 417.5572998430141 359.2841444270016 419.9686028257457 L 299.00156985871274 435.2401883830455 L 299.00156985871274 435.2401883830455 Q 291.76766091051803 436.84772370486655 286.94505494505495 431.22135007849295 Q 282.1224489795918 426.3987441130298 283.72998430141286 419.16483516483515 L 298.1978021978022 358.8822605965463 L 298.1978021978022 358.8822605965463 Q 301.41287284144425 349.2370486656201 308.6467817896389 341.1993720565149 L 432.4270015698587 217.41915227629514 L 432.4270015698587 217.41915227629514 Z" />
</svg>