<svg xmlns="http://www.w3.org/2000/svg" viewBox="0 0 512 448">
    <path d="M 132 206 Q 168 192 208 192 L 304 192 Q 319 193 320 208 Q 319 223 304 224 L 208 224 Q 164 224 128 243 Q 131 303 171 343 Q 212 383 272 384 L 272 384 L 273 384 Q 328 383 375 350 Q 422 316 451 258 Q 479 200 480 125 Q 480 90 473 58 Q 433 95 376 96 L 272 96 Q 220 97 182 127 Q 144 158 132 206 L 132 206 Z M 97 224 Q 104 155 153 110 L 153 110 Q 201 66 272 64 L 376 64 Q 431 62 463 22 L 464 22 Q 467 17 470 13 Q 473 9 475 5 Q 478 0 483 0 Q 489 0 491 5 Q 493 10 495 16 Q 496 21 498 26 L 499 28 Q 512 73 512 125 Q 511 206 479 271 Q 448 337 394 376 Q 340 415 273 416 L 272 416 Q 203 415 155 372 Q 107 329 98 263 Q 67 288 50 323 Q 32 358 32 400 L 32 432 Q 31 447 16 448 Q 1 447 0 432 L 0 400 Q 1 344 27 298 Q 53 253 97 224 L 97 224 Z"/>
</svg>
