<svg xmlns="http://www.w3.org/2000/svg" viewBox="0 0 512 512">
  <path d="M 56.88889 85.333336 Q 44.444443 85.333336 36.444443 93.333336 L 36.444443 93.333336 L 36.444443 93.333336 Q 28.444445 101.333336 28.444445 113.77778 L 28.444445 398.22223 L 28.444445 398.22223 Q 28.444445 410.66666 36.444443 418.66666 Q 44.444443 426.66666 56.88889 426.66666 L 455.1111 426.66666 L 455.1111 426.66666 Q 467.55554 426.66666 475.55554 418.66666 Q 483.55554 410.66666 483.55554 398.22223 L 483.55554 113.77778 L 483.55554 113.77778 Q 483.55554 101.333336 475.55554 93.333336 Q 467.55554 85.333336 455.1111 85.333336 L 56.88889 85.333336 L 56.88889 85.333336 Z M 0 113.77778 Q 0.8888889 89.77778 16.88889 73.77778 L 16.88889 73.77778 L 16.88889 73.77778 Q 32.88889 57.77778 56.88889 56.88889 L 455.1111 56.88889 L 455.1111 56.88889 Q 479.1111 57.77778 495.1111 73.77778 Q 511.1111 89.77778 512 113.77778 L 512 398.22223 L 512 398.22223 Q 511.1111 422.22223 495.1111 438.22223 Q 479.1111 454.22223 455.1111 455.1111 L 56.88889 455.1111 L 56.88889 455.1111 Q 32.88889 454.22223 16.88889 438.22223 Q 0.8888889 422.22223 0 398.22223 L 0 113.77778 L 0 113.77778 Z M 191.11111 178.66667 L 255.11111 320.8889 L 191.11111 178.66667 L 255.11111 320.8889 Q 258.66666 333.33334 248 340.44446 Q 235.55556 344 228.44444 333.33334 L 219.55556 312.8889 L 219.55556 312.8889 L 136 312.8889 L 136 312.8889 L 127.111115 333.33334 L 127.111115 333.33334 Q 120 344 107.55556 340.44446 Q 96 333.33334 100.44444 320.8889 L 164.44444 178.66667 L 164.44444 178.66667 Q 168.88889 170.66667 177.77777 170.66667 Q 186.66667 170.66667 191.11111 178.66667 L 191.11111 178.66667 Z M 177.77777 219.55556 L 148.44444 284.44446 L 177.77777 219.55556 L 148.44444 284.44446 L 207.11111 284.44446 L 207.11111 284.44446 L 177.77777 219.55556 L 177.77777 219.55556 Z M 334.22223 241.77777 Q 313.77777 242.66667 303.1111 259.55554 Q 294.22223 277.33334 303.1111 295.1111 Q 313.77777 312 334.22223 312.8889 Q 354.66666 312 365.33334 295.1111 Q 374.22223 277.33334 365.33334 259.55554 Q 354.66666 242.66667 334.22223 241.77777 L 334.22223 241.77777 Z M 369.77777 224 L 369.77777 184.88889 L 369.77777 224 L 369.77777 184.88889 Q 370.66666 171.55556 384 170.66667 Q 397.33334 171.55556 398.22223 184.88889 L 398.22223 277.33334 L 398.22223 277.33334 L 398.22223 327.1111 L 398.22223 327.1111 Q 397.33334 340.44446 384 341.33334 Q 373.33334 340.44446 369.77777 330.66666 Q 354.66666 341.33334 334.22223 341.33334 Q 306.66666 340.44446 288.8889 322.66666 Q 271.1111 304.8889 270.22223 277.33334 Q 271.1111 249.77777 288.8889 232 Q 306.66666 214.22223 334.22223 213.33333 Q 354.66666 213.33333 369.77777 224 L 369.77777 224 Z" />
</svg>