<svg xmlns="http://www.w3.org/2000/svg" viewBox="0 0 512 512">
  <path d="M 270.68527 116.29147 Q 269.89148 137.72403 251.63411 149.63101 Q 232.58295 159.15659 213.53178 149.63101 Q 195.27441 137.72403 194.48062 116.29147 Q 195.27441 94.85892 213.53178 82.951935 Q 232.58295 73.42635 251.63411 82.951935 Q 269.89148 94.85892 270.68527 116.29147 L 270.68527 116.29147 Z M 232.58295 52.787598 Q 205.5938 53.581394 187.33644 71.04496 L 187.33644 71.04496 L 187.33644 71.04496 Q 169.87286 89.30232 169.07907 116.29147 Q 169.87286 140.10542 183.36745 156.77519 Q 197.6558 173.44496 219.88217 178.20775 Q 219.88217 179.00156 219.88217 179.79535 L 219.88217 205.1969 L 219.88217 205.1969 L 169.07907 205.1969 L 169.07907 205.1969 Q 157.17209 205.99069 156.3783 217.89767 Q 157.17209 229.80466 169.07907 230.59845 L 219.88217 230.59845 L 219.88217 230.59845 L 219.88217 433.81085 L 219.88217 433.81085 L 194.48062 433.81085 L 194.48062 433.81085 Q 146.05891 432.22327 113.513176 400.4713 Q 81.76124 367.92557 80.173645 319.50388 L 80.173645 299.6589 L 80.173645 299.6589 L 109.54419 328.23566 L 109.54419 328.23566 Q 118.27597 336.17365 127.00775 328.23566 Q 134.94574 319.50388 127.00775 310.7721 L 76.20465 259.969 L 76.20465 259.969 Q 67.47287 252.031 58.741085 259.969 L 7.9379845 310.7721 L 7.9379845 310.7721 Q 0 319.50388 7.9379845 328.23566 Q 16.669767 336.17365 25.40155 328.23566 L 54.772095 299.6589 L 54.772095 299.6589 L 54.772095 319.50388 L 54.772095 319.50388 Q 56.35969 379.03876 96.049614 417.93488 Q 134.94574 457.62482 194.48062 459.2124 L 232.58295 459.2124 L 270.68527 459.2124 Q 291.32404 459.2124 310.37518 453.65582 Q 298.46823 444.13022 288.94263 432.22327 Q 280.21085 433.81085 270.68527 433.81085 L 245.28372 433.81085 L 245.28372 433.81085 L 245.28372 230.59845 L 245.28372 230.59845 L 296.08682 230.59845 L 296.08682 230.59845 Q 307.9938 229.80466 308.7876 217.89767 Q 307.9938 205.99069 296.08682 205.1969 L 245.28372 205.1969 L 245.28372 205.1969 L 245.28372 179.79535 L 245.28372 179.79535 Q 245.28372 179.00156 245.28372 178.20775 Q 267.51007 173.44496 281.79846 156.77519 Q 295.29303 140.10542 296.08682 116.29147 Q 295.29303 89.30232 277.82947 71.04496 Q 259.57208 53.581394 232.58295 52.787598 L 232.58295 52.787598 Z M 308.7876 344.90543 Q 308.7876 321.09146 320.69458 300.45273 L 320.69458 300.45273 L 320.69458 300.45273 Q 332.60156 279.81396 353.2403 267.90698 Q 373.87906 256 397.69302 256 Q 421.507 256 442.14572 267.90698 Q 462.7845 279.81396 474.69147 300.45273 Q 486.59845 321.09146 486.59845 344.90543 Q 486.59845 368.7194 474.69147 389.35815 Q 462.7845 409.9969 442.14572 421.90387 Q 421.507 433.81085 397.69302 433.81085 Q 373.87906 433.81085 353.2403 421.90387 Q 332.60156 409.9969 320.69458 389.35815 Q 308.7876 368.7194 308.7876 344.90543 L 308.7876 344.90543 Z M 512 344.90543 Q 512 313.9473 496.91782 287.75195 L 496.91782 287.75195 L 496.91782 287.75195 Q 481.83566 261.55658 454.8465 245.68062 Q 427.85736 230.59845 397.69302 230.59845 Q 367.5287 230.59845 340.53952 245.68062 Q 313.55038 261.55658 298.46823 287.75195 Q 283.38605 313.9473 283.38605 344.90543 Q 283.38605 375.86356 298.46823 402.05893 Q 313.55038 428.25427 340.53952 444.13022 Q 367.5287 459.2124 397.69302 459.2124 Q 427.85736 459.2124 454.8465 444.13022 Q 481.83566 428.25427 496.91782 402.05893 Q 512 375.86356 512 344.90543 L 512 344.90543 Z M 444.52713 315.53488 Q 452.46512 306.8031 444.52713 298.07132 Q 435.79535 290.13333 427.06357 298.07132 L 397.69302 326.64807 L 397.69302 326.64807 L 368.32248 298.07132 L 368.32248 298.07132 Q 359.5907 290.13333 350.85892 298.07132 Q 342.92093 306.8031 350.85892 315.53488 L 379.43567 344.90543 L 379.43567 344.90543 L 350.85892 374.27597 L 350.85892 374.27597 Q 342.92093 383.00775 350.85892 391.73953 Q 359.5907 399.67752 368.32248 391.73953 L 397.69302 363.16278 L 397.69302 363.16278 L 427.06357 391.73953 L 427.06357 391.73953 Q 435.79535 399.67752 444.52713 391.73953 Q 452.46512 383.00775 444.52713 374.27597 L 415.95038 344.90543 L 415.95038 344.90543 L 444.52713 315.53488 L 444.52713 315.53488 Z" />
</svg>