<svg xmlns="http://www.w3.org/2000/svg" viewBox="0 0 512 512">
  <path d="M 478.8705882352941 223.87450980392157 L 510.99607843137255 223.87450980392157 L 478.8705882352941 223.87450980392157 L 510.99607843137255 223.87450980392157 Q 498.9490196078431 137.53725490196078 440.721568627451 77.30196078431372 Q 382.49411764705883 17.066666666666666 296.15686274509807 2.007843137254902 L 296.15686274509807 35.13725490196079 L 296.15686274509807 35.13725490196079 Q 368.4392156862745 49.1921568627451 417.6313725490196 99.38823529411765 Q 466.8235294117647 150.58823529411765 478.8705882352941 223.87450980392157 L 478.8705882352941 223.87450980392157 Z M 510.99607843137255 288.12549019607843 L 478.8705882352941 288.12549019607843 L 510.99607843137255 288.12549019607843 L 478.8705882352941 288.12549019607843 Q 466.8235294117647 361.4117647058824 417.6313725490196 412.61176470588236 Q 368.4392156862745 462.8078431372549 296.15686274509807 476.8627450980392 L 296.15686274509807 509.9921568627451 L 296.15686274509807 509.9921568627451 Q 382.49411764705883 494.93333333333334 440.721568627451 434.69803921568626 Q 498.9490196078431 374.4627450980392 510.99607843137255 288.12549019607843 L 510.99607843137255 288.12549019607843 Z M 1.003921568627451 288.12549019607843 Q 14.054901960784314 379.4823529411765 77.30196078431372 440.721568627451 L 77.30196078431372 440.721568627451 L 77.30196078431372 440.721568627451 Q 140.54901960784315 501.96078431372547 231.90588235294118 512 L 231.90588235294118 479.87450980392157 L 231.90588235294118 479.87450980392157 Q 153.6 469.83529411764704 99.38823529411765 417.6313725490196 Q 46.180392156862744 365.42745098039217 33.129411764705885 288.12549019607843 L 1.003921568627451 288.12549019607843 L 1.003921568627451 288.12549019607843 Z M 1.003921568627451 223.87450980392157 L 33.129411764705885 223.87450980392157 L 1.003921568627451 223.87450980392157 L 33.129411764705885 223.87450980392157 Q 46.180392156862744 146.57254901960783 99.38823529411765 94.3686274509804 Q 153.6 42.16470588235294 231.90588235294118 32.12549019607843 L 231.90588235294118 0 L 231.90588235294118 0 Q 140.54901960784315 10.03921568627451 77.30196078431372 71.27843137254902 Q 14.054901960784314 132.51764705882354 1.003921568627451 223.87450980392157 L 1.003921568627451 223.87450980392157 Z M 183.71764705882353 143.5607843137255 Q 182.71372549019608 128.50196078431372 167.65490196078431 127.49803921568628 Q 152.59607843137255 128.50196078431372 151.5921568627451 143.5607843137255 L 151.5921568627451 368.4392156862745 L 151.5921568627451 368.4392156862745 Q 152.59607843137255 383.4980392156863 167.65490196078431 384.5019607843137 Q 182.71372549019608 383.4980392156863 183.71764705882353 368.4392156862745 L 183.71764705882353 272.0627450980392 L 183.71764705882353 272.0627450980392 L 344.3450980392157 272.0627450980392 L 344.3450980392157 272.0627450980392 L 344.3450980392157 368.4392156862745 L 344.3450980392157 368.4392156862745 Q 345.34901960784316 383.4980392156863 360.40784313725493 384.5019607843137 Q 375.46666666666664 383.4980392156863 376.47058823529414 368.4392156862745 L 376.47058823529414 143.5607843137255 L 376.47058823529414 143.5607843137255 Q 375.46666666666664 128.50196078431372 360.40784313725493 127.49803921568628 Q 345.34901960784316 128.50196078431372 344.3450980392157 143.5607843137255 L 344.3450980392157 239.93725490196078 L 344.3450980392157 239.93725490196078 L 183.71764705882353 239.93725490196078 L 183.71764705882353 239.93725490196078 L 183.71764705882353 143.5607843137255 L 183.71764705882353 143.5607843137255 Z" />
</svg>