<svg xmlns="http://www.w3.org/2000/svg" viewBox="0 0 645 516">
    <path d="M 248 0 Q 263 1 264 16 L 264 27 Q 264 69 244 104 Q 224 139 189 161 L 256 263 L 316 257 Q 337 256 347 275 L 390 361 Q 396 374 383 382 Q 370 388 362 375 L 319 289 L 254 295 L 197 340 L 293 487 Q 300 500 289 509 Q 276 516 267 505 L 88 233 Q 72 260 72 293 L 72 368 Q 71 383 56 384 Q 41 383 40 368 L 40 293 Q 41 242 70 202 Q 98 162 147 145 Q 152 143 156 141 Q 156 141 156 141 Q 157 141 157 141 Q 159 139 162 139 Q 194 123 213 93 Q 232 63 232 27 L 232 16 Q 233 1 248 0 L 248 0 Z M 179 313 L 227 276 L 160 174 Q 159 175 158 175 Q 158 175 157 175 Q 129 185 108 206 Q 108 206 108 206 Q 109 207 110 207 L 179 313 L 179 313 Z M 64 112 Q 86 110 88 88 Q 86 66 64 64 Q 42 66 40 88 Q 42 110 64 112 L 64 112 Z M 64 32 Q 96 33 112 60 Q 128 88 112 116 Q 96 143 64 144 Q 32 143 16 116 Q 0 88 16 60 Q 32 33 64 32 L 64 32 Z M 472 292 L 415 339 L 387 284 L 388 251 L 367 247 Q 345 223 313 225 L 302 226 Q 301 225 301 223 Q 299 213 306 207 L 367 160 L 333 91 Q 328 82 334 74 Q 341 67 351 69 L 425 87 L 457 17 Q 462 8 472 8 Q 482 8 487 17 L 519 87 L 593 69 Q 603 67 610 74 Q 615 82 611 92 L 577 160 L 638 207 Q 645 213 643 223 Q 641 233 631 235 L 556 251 L 557 328 Q 557 338 548 343 Q 539 346 531 340 L 472 291 L 472 292 Z M 472 62 L 449 113 Q 443 124 431 121 L 377 108 L 402 158 Q 407 169 397 177 L 353 211 L 408 222 Q 420 226 420 238 L 419 294 L 462 258 Q 472 251 482 258 L 525 294 L 524 238 Q 524 226 537 222 L 591 211 L 547 177 Q 537 169 542 157 L 567 108 L 514 121 Q 501 124 495 112 L 472 62 L 472 62 Z"/>
</svg>
