<svg xmlns="http://www.w3.org/2000/svg" viewBox="0 0 512 512">
  <path d="M 272.30292 56.83993 Q 259.08435 57.72117 258.2031 70.93976 Q 259.08435 84.15835 272.30292 85.03959 L 300.5026 85.03959 L 300.5026 85.03959 Q 372.7642 86.80206 422.99484 131.74527 Q 473.22546 176.68846 482.9191 246.30637 Q 460.0069 226.9191 427.40103 226.03787 L 383.33908 226.03787 L 383.33908 226.03787 L 341.03958 148.48882 L 341.03958 148.48882 Q 337.51462 142.32014 329.58347 141.4389 Q 321.6523 141.4389 317.24612 147.60757 L 277.59036 201.36317 L 277.59036 201.36317 L 241.45955 147.60757 L 241.45955 147.60757 Q 237.05336 141.4389 230.00345 141.4389 Q 222.95352 141.4389 218.54733 146.72633 L 159.5043 226.03787 L 159.5043 226.03787 L 94.2926 226.03787 L 94.2926 226.03787 Q 67.85542 226.9191 51.111877 244.54388 Q 33.48709 261.28745 32.60585 287.7246 Q 34.368332 326.49915 68.736664 344.12393 L 70.49914 345.00516 L 70.49914 345.00516 L 7.049914 428.7229 L 7.049914 428.7229 Q 0 440.17902 9.693632 448.9914 Q 21.149742 455.16006 29.962133 446.3477 L 96.93632 356.46127 L 96.93632 356.46127 L 141.87952 377.61102 L 141.87952 377.61102 Q 148.04819 380.25473 154.21687 382.89844 L 119.84853 428.7229 L 119.84853 428.7229 Q 113.67986 440.17902 123.3735 448.9914 Q 133.94836 455.16006 142.76076 445.46643 L 183.29776 390.8296 L 183.29776 390.8296 Q 203.56627 395.2358 223.83476 395.2358 L 252.03442 395.2358 L 252.03442 395.2358 L 231.76591 430.48538 L 231.76591 430.48538 Q 226.47849 441.94147 237.05336 449.87262 Q 248.50946 455.16006 256.4406 444.5852 L 284.6403 395.2358 L 284.6403 395.2358 L 404.4888 395.2358 L 404.4888 395.2358 L 429.1635 443.70395 L 429.1635 443.70395 Q 436.21344 455.16006 447.66953 449.87262 Q 459.12564 443.70395 453.8382 431.3666 L 436.21344 395.2358 L 436.21344 395.2358 Q 468.81927 390.8296 489.96902 367.9174 Q 511.11877 344.12393 512 310.63684 L 512 310.63684 L 512 310.63684 L 512 268.33734 L 512 268.33734 Q 511.11877 209.29433 482.9191 161.7074 Q 454.71945 114.12048 407.13254 85.92083 Q 359.54562 57.72117 300.5026 56.83993 L 272.30292 56.83993 L 272.30292 56.83993 Z M 427.40103 254.23752 Q 451.1945 255.11876 467.0568 270.98108 L 467.0568 270.98108 L 467.0568 270.98108 Q 482.9191 286.84338 483.80035 310.63684 L 483.80035 310.63684 L 483.80035 310.63684 L 483.80035 310.63684 L 483.80035 310.63684 Q 482.9191 334.4303 467.0568 350.2926 Q 451.1945 366.1549 427.40103 367.03613 L 413.3012 367.03613 L 413.3012 367.03613 Q 413.3012 367.03613 413.3012 367.03613 Q 413.3012 367.03613 413.3012 367.03613 Q 413.3012 367.03613 413.3012 367.03613 Q 413.3012 367.03613 413.3012 367.03613 L 223.83476 367.03613 L 223.83476 367.03613 Q 186.82272 367.03613 153.33563 352.05508 L 113.67986 333.54904 L 113.67986 333.54904 L 173.60413 254.23752 L 173.60413 254.23752 L 286.40274 254.23752 L 286.40274 254.23752 L 286.40274 254.23752 L 286.40274 254.23752 L 427.40103 254.23752 L 427.40103 254.23752 Z M 138.35457 254.23752 L 88.123924 322.09296 L 138.35457 254.23752 L 88.123924 322.09296 L 80.19277 318.568 L 80.19277 318.568 Q 61.68675 308.87436 60.805508 287.7246 Q 60.805508 273.6248 70.49914 263.93115 Q 80.19277 254.23752 94.2926 254.23752 L 138.35457 254.23752 L 138.35457 254.23752 Z M 259.08435 226.03787 L 194.75388 226.03787 L 259.08435 226.03787 L 194.75388 226.03787 L 229.12221 180.21342 L 229.12221 180.21342 L 259.96558 225.15663 L 259.96558 225.15663 L 259.08435 226.03787 L 259.08435 226.03787 Z M 350.73322 226.03787 L 294.3339 226.03787 L 350.73322 226.03787 L 294.3339 226.03787 L 326.93976 181.9759 L 326.93976 181.9759 L 350.73322 226.03787 L 350.73322 226.03787 Z M 420.3511 331.78656 Q 439.73837 330.0241 441.50085 310.63684 Q 439.73837 291.24957 420.3511 289.4871 Q 400.96387 291.24957 399.2014 310.63684 Q 400.96387 330.0241 420.3511 331.78656 L 420.3511 331.78656 Z" />
</svg>