<svg xmlns="http://www.w3.org/2000/svg" viewBox="0 0 640 448">
    <path d="M 128 32 L 512 32 Q 526 32 535 41 Q 544 50 544 64 L 544 320 L 576 320 L 576 64 Q 575 37 557 19 Q 539 1 512 0 L 128 0 Q 101 1 83 19 Q 65 37 64 64 L 64 320 L 96 320 L 96 64 Q 96 50 105 41 Q 114 32 128 32 L 128 32 Z M 34 384 L 606 384 Q 596 414 563 416 L 77 416 Q 44 414 34 384 L 34 384 Z M 19 352 Q 2 354 0 371 Q 1 404 23 426 Q 44 447 77 448 L 563 448 Q 596 447 618 426 Q 639 404 640 371 Q 638 354 621 352 L 19 352 L 19 352 Z M 200 96 Q 183 96 172 108 L 172 108 Q 160 119 160 136 L 160 168 Q 160 185 172 196 Q 183 208 200 208 L 216 208 Q 233 208 244 196 Q 256 185 256 168 L 256 136 Q 256 119 244 108 Q 233 96 216 96 L 200 96 L 200 96 Z M 192 136 Q 193 129 200 128 L 216 128 Q 223 129 224 136 L 224 168 Q 223 175 216 176 L 200 176 Q 193 175 192 168 L 192 136 L 192 136 Z M 304 96 Q 289 97 288 112 Q 289 127 304 128 L 304 192 Q 305 207 320 208 Q 335 207 336 192 L 336 112 Q 335 97 320 96 L 304 96 L 304 96 Z M 384 136 L 384 168 Q 384 185 396 196 Q 407 208 424 208 L 440 208 Q 457 208 468 196 Q 480 185 480 168 L 480 136 Q 480 119 468 108 Q 457 96 440 96 L 424 96 Q 407 96 396 108 Q 384 119 384 136 L 384 136 Z M 424 128 L 440 128 Q 447 129 448 136 L 448 168 Q 447 175 440 176 L 424 176 Q 417 175 416 168 L 416 136 Q 417 129 424 128 L 424 128 Z M 192 240 Q 177 241 176 256 Q 177 271 192 272 L 192 320 L 224 320 L 224 256 Q 223 241 208 240 L 192 240 L 192 240 Z M 448 256 Q 447 241 432 240 L 416 240 Q 401 241 400 256 Q 401 271 416 272 L 416 320 L 448 320 L 448 256 L 448 256 Z M 368 280 Q 368 263 356 252 L 356 252 Q 345 240 328 240 L 312 240 Q 295 240 284 252 Q 272 263 272 280 L 272 320 L 304 320 L 304 280 Q 305 273 312 272 L 328 272 Q 335 273 336 280 L 336 320 L 368 320 L 368 280 L 368 280 Z"/>
</svg>
