<svg xmlns="http://www.w3.org/2000/svg" viewBox="0 0 512 512">
  <path d="M 109.71428571428571 0 Q 126.85714285714286 1.1428571428571428 128 18.285714285714285 L 128 493.7142857142857 L 128 493.7142857142857 Q 126.85714285714286 510.85714285714283 109.71428571428571 512 Q 92.57142857142857 510.85714285714283 91.42857142857143 493.7142857142857 L 91.42857142857143 18.285714285714285 L 91.42857142857143 18.285714285714285 Q 92.57142857142857 1.1428571428571428 109.71428571428571 0 L 109.71428571428571 0 Z M 256 0 Q 273.14285714285717 1.1428571428571428 274.2857142857143 18.285714285714285 L 274.2857142857143 493.7142857142857 L 274.2857142857143 493.7142857142857 Q 273.14285714285717 510.85714285714283 256 512 Q 238.85714285714286 510.85714285714283 237.71428571428572 493.7142857142857 L 237.71428571428572 18.285714285714285 L 237.71428571428572 18.285714285714285 Q 238.85714285714286 1.1428571428571428 256 0 L 256 0 Z M 420.57142857142856 18.285714285714285 L 420.57142857142856 493.7142857142857 L 420.57142857142856 18.285714285714285 L 420.57142857142856 493.7142857142857 Q 419.42857142857144 510.85714285714283 402.2857142857143 512 Q 385.14285714285717 510.85714285714283 384 493.7142857142857 L 384 18.285714285714285 L 384 18.285714285714285 Q 385.14285714285717 1.1428571428571428 402.2857142857143 0 Q 419.42857142857144 1.1428571428571428 420.57142857142856 18.285714285714285 L 420.57142857142856 18.285714285714285 Z" />
</svg>