<svg xmlns="http://www.w3.org/2000/svg" viewBox="0 0 512 512">
  <path d="M 257.20566 152.31396 Q 257.20566 131.41602 246.75667 113.73312 L 246.75667 113.73312 L 246.75667 113.73312 Q 236.3077 96.05023 218.6248 85.60126 Q 200.13815 75.152275 180.04396 75.152275 Q 159.94977 75.152275 141.4631 85.60126 Q 123.78022 96.05023 113.33124 113.73312 Q 102.88226 131.41602 102.88226 152.31396 Q 102.88226 173.21193 113.33124 190.89482 Q 123.78022 208.57771 141.4631 219.02669 Q 159.94977 229.47566 180.04396 229.47566 Q 200.13815 229.47566 218.6248 219.02669 Q 236.3077 208.57771 246.75667 190.89482 Q 257.20566 173.21193 257.20566 152.31396 L 257.20566 152.31396 Z M 77.1617 152.31396 Q 77.1617 124.182106 90.825745 100.87284 L 90.825745 100.87284 L 90.825745 100.87284 Q 104.4898 77.563576 128.60283 63.09576 Q 152.71585 49.43171 180.04396 49.43171 Q 207.37206 49.43171 231.48509 63.09576 Q 255.59811 77.563576 269.26218 100.87284 Q 282.9262 124.182106 282.9262 152.31396 Q 282.9262 180.44585 269.26218 203.7551 Q 255.59811 227.06436 231.48509 241.53218 Q 207.37206 255.19623 180.04396 255.19623 Q 152.71585 255.19623 128.60283 241.53218 Q 104.4898 227.06436 90.825745 203.7551 Q 77.1617 180.44585 77.1617 152.31396 L 77.1617 152.31396 Z M 25.720566 435.24017 L 258.8132 435.24017 L 25.720566 435.24017 L 258.8132 435.24017 L 258.00943 438.45526 L 258.00943 438.45526 Q 255.59811 449.708 259.61694 460.96075 L 24.11303 460.96075 L 24.11303 460.96075 Q 13.66405 460.96075 7.233909 453.72684 Q 0 447.2967 0 436.84772 Q 1.6075354 376.56516 41.795918 335.573 Q 82.78807 295.3846 143.07065 293.77707 L 217.01727 293.77707 L 217.01727 293.77707 Q 270.8697 294.58084 310.2543 328.33908 L 291.76767 346.02197 L 291.76767 346.02197 Q 260.42072 320.30142 217.01727 319.49765 L 143.07065 319.49765 L 143.07065 319.49765 Q 94.04082 321.1052 61.08634 353.2559 Q 27.3281 386.21036 25.720566 435.24017 L 25.720566 435.24017 Z M 468.59656 261.62637 Q 459.7551 254.39247 450.1099 261.62637 L 430.0157 281.72055 L 430.0157 281.72055 L 462.1664 313.87128 L 462.1664 313.87128 L 482.2606 293.77707 L 482.2606 293.77707 Q 490.29828 284.93564 482.2606 275.29044 L 468.59656 261.62637 L 468.59656 261.62637 Z M 327.13342 385.4066 Q 323.91837 387.8179 323.1146 391.03296 L 313.4694 430.41757 L 313.4694 430.41757 L 352.854 420.77237 L 352.854 420.77237 Q 356.06906 419.9686 358.48038 417.5573 L 444.48352 331.55417 L 444.48352 331.55417 L 412.33282 299.40344 L 412.33282 299.40344 L 327.13342 385.4066 L 327.13342 385.4066 Z M 432.427 243.13972 Q 443.67975 231.88696 458.95132 231.88696 L 458.95132 231.88696 L 458.95132 231.88696 Q 475.02667 231.88696 486.27945 243.13972 L 500.74725 257.60754 L 500.74725 257.60754 Q 512 269.66406 512 284.93564 Q 512 300.2072 500.74725 312.26373 L 376.96704 435.24017 L 376.96704 435.24017 Q 369.73312 443.27786 359.28415 445.68918 L 299.00156 460.96075 L 299.00156 460.96075 Q 291.76767 462.5683 286.94507 456.94193 Q 282.12244 452.11932 283.72998 444.8854 L 298.1978 384.6028 L 298.1978 384.6028 Q 301.41287 374.9576 308.6468 366.91995 L 432.427 243.13972 L 432.427 243.13972 Z" />
</svg>