<svg xmlns="http://www.w3.org/2000/svg" viewBox="0 0 448 512">
    <path d="M 416 224 Q 415 278 389 322 L 389 322 Q 363 365 320 391 Q 317 408 315 425 L 314 429 Q 374 402 411 348 Q 447 294 448 224 Q 447 161 417 111 Q 388 60 337 31 Q 287 1 224 0 Q 161 1 111 31 Q 60 60 31 111 Q 1 161 0 224 Q 1 294 37 348 Q 74 402 134 429 L 134 426 Q 131 408 128 391 Q 85 365 59 322 Q 33 278 32 224 Q 34 142 88 88 Q 142 34 224 32 Q 306 34 360 88 Q 414 142 416 224 L 416 224 Z M 368 224 Q 366 163 326 122 L 326 122 Q 285 82 224 80 Q 163 82 122 122 Q 82 163 80 224 Q 82 289 128 331 Q 130 320 136 311 Q 139 305 143 301 Q 113 270 112 224 Q 113 176 145 145 Q 176 113 224 112 Q 272 113 303 145 Q 335 176 336 224 Q 335 270 305 301 Q 309 305 312 311 Q 318 320 321 331 Q 366 289 368 224 L 368 224 Z M 224 192 Q 238 192 247 201 L 247 201 Q 256 210 256 224 Q 256 238 247 247 Q 238 256 224 256 Q 210 256 201 247 Q 192 238 192 224 Q 192 210 201 201 Q 210 192 224 192 L 224 192 Z M 224 288 Q 260 287 279 256 Q 297 224 279 192 Q 260 161 224 160 Q 188 161 169 192 Q 151 224 169 256 Q 188 287 224 288 L 224 288 Z M 210 478 Q 204 455 197 415 Q 190 373 190 350 Q 190 343 191 343 Q 191 343 191 343 Q 191 343 193 341 Q 201 336 224 336 Q 247 336 255 341 Q 257 343 258 343 Q 258 343 258 343 Q 258 343 259 350 Q 258 373 251 415 Q 245 455 239 478 Q 237 479 234 479 Q 230 480 224 480 Q 218 480 214 479 Q 211 479 209 478 L 210 478 Z M 179 488 Q 183 502 196 507 L 196 507 Q 209 512 224 512 Q 239 512 252 507 Q 265 502 269 488 Q 276 463 283 420 Q 290 378 291 350 Q 290 323 270 313 Q 251 303 224 304 Q 197 303 178 313 Q 158 323 157 350 Q 158 378 165 420 Q 172 463 179 488 L 179 488 Z"/>
</svg>
