<svg xmlns="http://www.w3.org/2000/svg" viewBox="0 0 640 512">
    <path d="M 64 32 Q 50 32 41 41 L 41 41 Q 32 50 32 64 L 32 448 Q 32 462 41 471 Q 50 480 64 480 L 128 480 L 128 416 Q 129 389 147 371 Q 165 353 192 352 Q 219 353 237 371 Q 255 389 256 416 L 256 480 L 320 480 Q 334 480 343 471 Q 352 462 352 448 L 352 64 Q 352 50 343 41 Q 334 32 320 32 L 64 32 L 64 32 Z M 224 416 Q 224 402 215 393 L 215 393 Q 206 384 192 384 Q 178 384 169 393 Q 160 402 160 416 L 160 480 L 224 480 L 224 416 L 224 416 Z M 128 512 L 64 512 Q 37 511 19 493 Q 1 475 0 448 L 0 64 Q 1 37 19 19 Q 37 1 64 0 L 320 0 Q 347 1 365 19 Q 383 37 384 64 L 384 448 Q 383 475 365 493 Q 347 511 320 512 L 256 512 L 224 512 L 160 512 L 128 512 L 128 512 Z M 64 120 Q 66 98 88 96 L 136 96 Q 158 98 160 120 L 160 168 Q 158 190 136 192 L 88 192 Q 66 190 64 168 L 64 120 L 64 120 Z M 96 128 L 96 160 L 128 160 L 128 128 L 96 128 L 96 128 Z M 248 96 L 296 96 Q 318 98 320 120 L 320 168 Q 318 190 296 192 L 248 192 Q 226 190 224 168 L 224 120 Q 226 98 248 96 L 248 96 Z M 256 160 L 288 160 L 288 128 L 256 128 L 256 160 L 256 160 Z M 64 248 Q 66 226 88 224 L 136 224 Q 158 226 160 248 L 160 296 Q 158 318 136 320 L 88 320 Q 66 318 64 296 L 64 248 L 64 248 Z M 96 256 L 96 288 L 128 288 L 128 256 L 96 256 L 96 256 Z M 248 224 L 296 224 Q 318 226 320 248 L 320 296 Q 318 318 296 320 L 248 320 Q 226 318 224 296 L 224 248 Q 226 226 248 224 L 248 224 Z M 256 288 L 288 288 L 288 256 L 256 256 L 256 288 L 256 288 Z M 432 0 Q 447 1 448 16 L 448 32 L 608 32 Q 622 32 631 41 Q 640 50 640 64 L 640 192 Q 640 206 631 215 Q 622 224 608 224 L 448 224 L 448 496 Q 447 511 432 512 Q 417 511 416 496 L 416 224 L 416 192 L 416 64 L 416 32 L 416 16 Q 417 1 432 0 L 432 0 Z M 448 192 L 608 192 L 608 64 L 448 64 L 448 192 L 448 192 Z"/>
</svg>
