<svg xmlns="http://www.w3.org/2000/svg" viewBox="0 0 448 448">
    <path d="M 56 33 L 224 201 L 392 33 Q 388 32 384 32 L 64 32 Q 60 32 56 33 L 56 33 Z M 33 56 Q 32 60 32 64 L 32 384 Q 32 388 33 392 L 201 224 L 33 56 L 33 56 Z M 56 415 Q 60 416 64 416 L 384 416 Q 388 416 392 415 L 224 247 L 56 415 L 56 415 Z M 415 392 Q 416 388 416 384 L 416 64 Q 416 60 415 56 L 247 224 L 415 392 L 415 392 Z M 0 64 Q 1 37 19 19 L 19 19 Q 37 1 64 0 L 384 0 Q 411 1 429 19 Q 447 37 448 64 L 448 384 Q 447 411 429 429 Q 411 447 384 448 L 64 448 Q 37 447 19 429 Q 1 411 0 384 L 0 64 L 0 64 Z"/>
</svg>
