<svg xmlns="http://www.w3.org/2000/svg" viewBox="0 0 512 512">
  <path d="M 32 256 Q 33 193 63 143 L 63 143 L 63 143 Q 92 92 143 63 L 143 63 L 143 63 Q 193 33 256 32 Q 271 31 272 16 Q 271 1 256 0 Q 184 1 127 35 Q 69 69 35 127 Q 1 184 0 256 Q 1 328 35 385 Q 69 443 127 477 Q 184 511 256 512 Q 271 511 272 496 Q 271 481 256 480 Q 193 479 143 449 Q 92 420 63 369 Q 33 319 32 256 L 32 256 Z M 309 116 L 165 244 L 309 116 L 165 244 Q 160 249 160 256 Q 160 263 165 268 L 309 396 L 309 396 Q 321 405 332 395 Q 341 383 331 372 L 218 272 L 218 272 L 496 272 L 496 272 Q 511 271 512 256 Q 511 241 496 240 L 218 240 L 218 240 L 331 140 L 331 140 Q 341 129 332 117 Q 321 107 309 116 L 309 116 Z" />
</svg>