<svg xmlns="http://www.w3.org/2000/svg" viewBox="0 0 576 448">
    <path d="M 64 56 Q 66 34 88 32 L 488 32 Q 510 34 512 56 L 512 384 L 544 384 L 544 56 Q 543 32 528 16 Q 512 1 488 0 L 88 0 Q 64 1 48 16 Q 33 32 32 56 L 32 384 L 64 384 L 64 56 L 64 56 Z M 224 368 L 224 416 L 16 416 Q 1 417 0 432 Q 1 447 16 448 L 560 448 Q 575 447 576 432 Q 575 417 560 416 L 416 416 L 416 368 Q 415 348 402 334 Q 388 321 368 320 L 272 320 Q 252 321 238 334 Q 225 348 224 368 L 224 368 Z M 272 352 L 368 352 Q 383 353 384 368 L 384 408 L 256 408 L 256 368 Q 257 353 272 352 L 272 352 Z"/>
</svg>
