<svg xmlns="http://www.w3.org/2000/svg" viewBox="0 0 512 512">
  <path d="M 131.24366471734893 279.4541910331384 L 115.27485380116958 294.42495126705654 L 131.24366471734893 279.4541910331384 L 115.27485380116958 294.42495126705654 L 103.29824561403508 281.4502923976608 L 103.29824561403508 281.4502923976608 Q 93.317738791423 272.46783625730995 80.34307992202729 272.46783625730995 Q 67.36842105263158 272.46783625730995 57.38791423001949 281.4502923976608 L 41.419103313840154 297.41910331384014 L 41.419103313840154 297.41910331384014 Q 27.446393762183234 313.3879142300195 35.4307992202729 333.34892787524365 L 58.3859649122807 385.2475633528265 L 58.3859649122807 385.2475633528265 L 9.481481481481481 433.1539961013645 L 9.481481481481481 433.1539961013645 Q 0.49902534113060426 443.1345029239766 0.49902534113060426 456.1091617933723 Q 0.49902534113060426 469.083820662768 9.481481481481481 479.0643274853801 L 33.434697855750485 503.0175438596491 L 33.434697855750485 503.0175438596491 Q 43.41520467836257 512 56.38986354775828 512 Q 69.36452241715399 512 79.34502923976608 503.0175438596491 L 127.25146198830409 454.1130604288499 L 127.25146198830409 454.1130604288499 L 179.15009746588694 477.0682261208577 L 179.15009746588694 477.0682261208577 Q 199.11111111111111 485.05263157894734 215.07992202729045 471.0799220272904 L 231.0487329434698 455.1111111111111 L 231.0487329434698 455.1111111111111 Q 240.03118908382066 445.130604288499 240.03118908382066 432.1559454191033 Q 240.03118908382066 419.1812865497076 231.0487329434698 409.2007797270955 L 218.07407407407408 397.224171539961 L 218.07407407407408 397.224171539961 L 233.0448343079922 381.25536062378166 L 233.0448343079922 381.25536062378166 L 211.08771929824562 359.29824561403507 L 211.08771929824562 359.29824561403507 L 195.11890838206628 374.2690058479532 L 195.11890838206628 374.2690058479532 L 138.2300194931774 317.3801169590643 L 138.2300194931774 317.3801169590643 L 153.20077972709552 301.411306042885 L 153.20077972709552 301.411306042885 L 131.24366471734893 279.4541910331384 L 131.24366471734893 279.4541910331384 Z M 358.7992202729045 211.5867446393762 L 380.7563352826511 233.5438596491228 L 358.7992202729045 211.5867446393762 L 380.7563352826511 233.5438596491228 L 490.54191033138403 124.75633528265107 L 490.54191033138403 124.75633528265107 Q 502.51851851851853 111.78167641325535 504.51461988304095 94.81481481481481 L 511.5009746588694 17.964912280701753 L 511.5009746588694 17.964912280701753 Q 511.5009746588694 10.978557504873294 506.51072124756337 5.988304093567251 Q 501.5204678362573 0 494.53411306042887 0.9980506822612085 L 417.6842105263158 7.984405458089668 L 417.6842105263158 7.984405458089668 Q 400.71734892787526 9.980506822612085 388.74074074074076 21.957115009746587 L 278.9551656920078 131.74269005847952 L 278.9551656920078 131.74269005847952 L 300.9122807017544 153.6998050682261 L 300.9122807017544 153.6998050682261 L 410.69785575048735 44.91228070175438 L 410.69785575048735 44.91228070175438 Q 414.6900584795322 39.92202729044834 420.67836257309943 39.92202729044834 L 477.5672514619883 34.9317738791423 L 477.5672514619883 34.9317738791423 L 472.5769980506823 91.82066276803118 L 472.5769980506823 91.82066276803118 Q 472.5769980506823 97.80896686159844 468.58479532163744 101.80116959064327 L 358.7992202729045 211.5867446393762 L 358.7992202729045 211.5867446393762 Z M 64.37426900584795 320.37426900584796 L 80.34307992202729 304.4054580896686 L 64.37426900584795 320.37426900584796 L 80.34307992202729 304.4054580896686 L 208.093567251462 432.1559454191033 L 208.093567251462 432.1559454191033 L 192.12475633528265 448.12475633528265 L 192.12475633528265 448.12475633528265 L 130.24561403508773 421.17738791423 L 130.24561403508773 421.17738791423 Q 120.26510721247563 417.18518518518516 112.28070175438596 424.17153996101365 L 56.38986354775828 480.0623781676413 L 56.38986354775828 480.0623781676413 L 32.43664717348928 456.1091617933723 L 32.43664717348928 456.1091617933723 L 88.32748538011695 400.21832358674465 L 88.32748538011695 400.21832358674465 Q 95.31384015594541 392.233918128655 92.31968810916179 382.2534113060429 L 64.37426900584795 320.37426900584796 L 64.37426900584795 320.37426900584796 Z M 39.42300194931774 91.82066276803118 L 34.432748538011694 34.9317738791423 L 39.42300194931774 91.82066276803118 L 34.432748538011694 34.9317738791423 L 91.32163742690058 39.92202729044834 L 91.32163742690058 39.92202729044834 Q 97.30994152046783 39.92202729044834 101.30214424951266 44.91228070175438 L 354.8070175438597 297.41910331384014 L 354.8070175438597 297.41910331384014 L 376.76413255360626 275.46198830409355 L 376.76413255360626 275.46198830409355 L 124.25730994152046 21.957115009746587 L 124.25730994152046 21.957115009746587 Q 111.28265107212475 9.980506822612085 94.3157894736842 7.984405458089668 L 17.46588693957115 0.9980506822612085 L 17.46588693957115 0.9980506822612085 Q 10.47953216374269 0 5.489278752436647 5.988304093567251 Q 0.49902534113060426 10.978557504873294 0.49902534113060426 17.964912280701753 L 7.485380116959064 94.81481481481481 L 7.485380116959064 94.81481481481481 Q 9.481481481481481 111.78167641325535 21.458089668615983 124.75633528265107 L 274.962962962963 377.2631578947368 L 274.962962962963 377.2631578947368 L 296.9200779727096 355.30604288499023 L 296.9200779727096 355.30604288499023 L 44.41325536062378 101.80116959064327 L 44.41325536062378 101.80116959064327 Q 39.42300194931774 97.80896686159844 39.42300194931774 91.82066276803118 L 39.42300194931774 91.82066276803118 Z M 408.70175438596493 281.4502923976608 L 280.95126705653024 409.2007797270955 L 408.70175438596493 281.4502923976608 L 280.95126705653024 409.2007797270955 Q 271.96881091617934 419.1812865497076 271.96881091617934 432.1559454191033 Q 271.96881091617934 445.130604288499 280.95126705653024 455.1111111111111 L 296.9200779727096 471.0799220272904 L 296.9200779727096 471.0799220272904 Q 312.8888888888889 485.05263157894734 332.8499025341131 477.0682261208577 L 384.7485380116959 454.1130604288499 L 384.7485380116959 454.1130604288499 L 432.65497076023394 503.0175438596491 L 432.65497076023394 503.0175438596491 Q 442.635477582846 512 455.6101364522417 512 Q 468.58479532163744 512 478.56530214424953 503.0175438596491 L 502.51851851851853 479.0643274853801 L 502.51851851851853 479.0643274853801 Q 511.5009746588694 469.083820662768 511.5009746588694 456.1091617933723 Q 511.5009746588694 443.1345029239766 502.51851851851853 433.1539961013645 L 453.6140350877193 385.2475633528265 L 453.6140350877193 385.2475633528265 L 476.5692007797271 333.34892787524365 L 476.5692007797271 333.34892787524365 Q 484.5536062378168 313.3879142300195 470.58089668615986 297.41910331384014 L 454.6120857699805 281.4502923976608 L 454.6120857699805 281.4502923976608 Q 444.63157894736844 272.46783625730995 431.6569200779727 272.46783625730995 Q 418.682261208577 272.46783625730995 408.70175438596493 281.4502923976608 L 408.70175438596493 281.4502923976608 Z M 431.6569200779727 304.4054580896686 L 447.62573099415204 320.37426900584796 L 431.6569200779727 304.4054580896686 L 447.62573099415204 320.37426900584796 L 420.67836257309943 382.2534113060429 L 420.67836257309943 382.2534113060429 Q 416.6861598440546 392.233918128655 423.67251461988303 400.21832358674465 L 479.5633528265107 456.1091617933723 L 479.5633528265107 456.1091617933723 L 455.6101364522417 480.0623781676413 L 455.6101364522417 480.0623781676413 L 399.719298245614 424.17153996101365 L 399.719298245614 424.17153996101365 Q 391.73489278752436 417.18518518518516 381.7543859649123 421.17738791423 L 319.87524366471735 448.12475633528265 L 319.87524366471735 448.12475633528265 L 303.906432748538 432.1559454191033 L 303.906432748538 432.1559454191033 L 431.6569200779727 304.4054580896686 L 431.6569200779727 304.4054580896686 Z" />
</svg>