<svg xmlns="http://www.w3.org/2000/svg" viewBox="0 0 512 512">
  <path d="M 76.8 102.4 Q 65.6 102.4 58.4 109.6 L 58.4 109.6 L 58.4 109.6 Q 51.2 116.8 51.2 128 L 51.2 153.6 L 51.2 153.6 L 51.2 281.6 L 51.2 281.6 L 51.2 332.8 L 51.2 332.8 L 56 332.8 L 56 332.8 Q 64 310.4 83.2 296 Q 102.4 282.4 128 281.6 Q 153.6 282.4 172.8 296 Q 192 310.4 200.8 332.8 L 281.6 332.8 L 281.6 332.8 L 281.6 230.4 L 281.6 230.4 L 281.6 204.8 L 281.6 204.8 L 281.6 128 L 281.6 128 Q 281.6 116.8 274.4 109.6 Q 267.2 102.4 256 102.4 L 76.8 102.4 L 76.8 102.4 Z M 0 179.2 Q 0 168 7.2 160.8 L 7.2 160.8 L 7.2 160.8 Q 14.4 153.6 25.6 153.6 L 25.6 128 L 25.6 128 Q 26.4 106.4 40.8 92 Q 55.2 77.6 76.8 76.8 L 256 76.8 L 256 76.8 Q 276 77.6 290.4 89.6 Q 304 102.4 307.2 121.6 L 349.6 121.6 L 349.6 121.6 Q 372 122.4 383.2 141.6 L 417.6 204.8 L 417.6 204.8 L 435.2 204.8 L 435.2 204.8 Q 456.8 205.6 471.2 220 Q 485.6 234.4 486.4 256 L 486.4 332.8 L 486.4 332.8 L 499.2 332.8 L 499.2 332.8 Q 511.2 333.6 512 345.6 Q 511.2 357.6 499.2 358.4 L 486.4 358.4 L 460.8 358.4 Q 460 391.2 438.4 412.8 Q 416.8 434.4 384 435.2 Q 351.2 434.4 329.6 412.8 Q 308 391.2 307.2 358.4 L 281.6 358.4 L 204.8 358.4 Q 204 391.2 182.4 412.8 Q 160.8 434.4 128 435.2 Q 95.2 434.4 73.6 412.8 Q 52 391.2 51.2 358.4 L 25.6 358.4 L 12.8 358.4 Q 0.8 357.6 0 345.6 Q 0.8 333.6 12.8 332.8 L 25.6 332.8 L 25.6 332.8 L 25.6 281.6 L 25.6 281.6 Q 14.4 281.6 7.2 274.4 Q 0 267.2 0 256 L 0 179.2 L 0 179.2 Z M 307.2 147.2 L 307.2 204.8 L 307.2 147.2 L 307.2 204.8 L 388 204.8 L 388 204.8 L 360.8 153.6 L 360.8 153.6 Q 356.8 147.2 349.6 147.2 L 307.2 147.2 L 307.2 147.2 Z M 307.2 332.8 L 312 332.8 L 307.2 332.8 L 312 332.8 Q 320 310.4 339.2 296 Q 358.4 282.4 384 281.6 Q 409.6 282.4 428.8 296 Q 448 310.4 456.8 332.8 L 460.8 332.8 L 460.8 332.8 L 460.8 256 L 460.8 256 Q 460.8 244.8 453.6 237.6 Q 446.4 230.4 435.2 230.4 L 409.6 230.4 L 409.6 230.4 Q 409.6 230.4 409.6 230.4 Q 409.6 230.4 409.6 230.4 L 307.2 230.4 L 307.2 230.4 L 307.2 332.8 L 307.2 332.8 Z M 202.4 159.2 L 230.4 200.8 L 202.4 159.2 L 230.4 200.8 L 230.4 166.4 L 230.4 166.4 Q 231.2 154.4 243.2 153.6 Q 255.2 154.4 256 166.4 L 256 243.2 L 256 243.2 Q 255.2 252 247.2 255.2 Q 237.6 257.6 232.8 250.4 L 204.8 208.8 L 204.8 208.8 L 204.8 243.2 L 204.8 243.2 Q 204 255.2 192 256 Q 180 255.2 179.2 243.2 L 179.2 166.4 L 179.2 166.4 Q 180 157.6 188 154.4 Q 197.6 152 202.4 159.2 L 202.4 159.2 Z M 102.4 166.4 L 102.4 217.6 L 102.4 166.4 L 102.4 217.6 Q 103.2 229.6 115.2 230.4 Q 127.2 229.6 128 217.6 L 128 166.4 L 128 166.4 Q 128.8 154.4 140.8 153.6 Q 152.8 154.4 153.6 166.4 L 153.6 217.6 L 153.6 217.6 Q 152.8 233.6 142.4 244.8 Q 131.2 255.2 115.2 256 Q 99.2 255.2 88 244.8 Q 77.6 233.6 76.8 217.6 L 76.8 166.4 L 76.8 166.4 Q 77.6 154.4 89.6 153.6 Q 101.6 154.4 102.4 166.4 L 102.4 166.4 Z M 179.2 358.4 Q 178.4 329.6 153.6 314.4 Q 128 300 102.4 314.4 Q 77.6 329.6 76.8 358.4 Q 77.6 387.2 102.4 402.4 Q 128 416.8 153.6 402.4 Q 178.4 387.2 179.2 358.4 L 179.2 358.4 Z M 384 409.6 Q 412.8 408.8 428 384 Q 442.4 358.4 428 332.8 Q 412.8 308 384 307.2 Q 355.2 308 340 332.8 Q 325.6 358.4 340 384 Q 355.2 408.8 384 409.6 L 384 409.6 Z" />
</svg>