<svg xmlns="http://www.w3.org/2000/svg" viewBox="0 0 512 512">
  <path d="M 384 480 L 128 480 L 384 480 L 128 480 Q 114 480 105 471 Q 96 462 96 448 L 96 64 L 96 64 Q 96 50 105 41 Q 114 32 128 32 L 256 32 L 256 32 L 256 144 L 256 144 Q 257 164 270 178 Q 284 191 304 192 L 416 192 L 416 192 L 416 448 L 416 448 Q 416 462 407 471 Q 398 480 384 480 L 384 480 Z M 304 160 Q 289 159 288 144 L 288 33 L 288 33 Q 292 34 295 37 L 411 153 L 411 153 Q 414 156 416 160 L 304 160 L 304 160 Z M 128 0 Q 101 1 83 19 L 83 19 L 83 19 Q 65 37 64 64 L 64 448 L 64 448 Q 65 475 83 493 Q 101 511 128 512 L 384 512 L 384 512 Q 411 511 429 493 Q 447 475 448 448 L 448 164 L 448 164 Q 448 144 434 130 L 318 14 L 318 14 Q 304 0 284 0 L 128 0 L 128 0 Z M 240 224 L 240 320 L 240 224 L 240 320 Q 241 335 256 336 L 352 336 L 352 336 Q 367 335 368 320 Q 367 272 335 241 Q 304 209 256 208 Q 241 209 240 224 L 240 224 Z M 272 242 Q 296 247 313 263 L 313 263 L 313 263 Q 329 280 334 304 L 272 304 L 272 304 L 272 242 L 272 242 Z M 216 221 Q 181 232 159 260 L 159 260 L 159 260 Q 137 289 136 328 Q 137 376 169 407 Q 200 439 248 440 Q 287 439 316 417 Q 344 395 355 360 L 321 360 L 321 360 Q 312 382 292 395 Q 273 408 248 408 Q 214 407 192 385 Q 169 362 168 328 Q 168 303 181 284 Q 195 264 216 255 L 216 221 L 216 221 Z" />
</svg>