<svg xmlns="http://www.w3.org/2000/svg" viewBox="0 0 512 512">
  <path d="M 263.1111111111111 56.888888888888886 Q 256 52.93827160493827 248.88888888888889 56.888888888888886 L 8.691358024691358 208.59259259259258 L 8.691358024691358 208.59259259259258 Q 0 214.91358024691357 4.7407407407407405 225.97530864197532 Q 11.851851851851851 234.66666666666666 22.123456790123456 229.92592592592592 L 256 82.17283950617283 L 256 82.17283950617283 L 489.87654320987656 229.92592592592592 L 489.87654320987656 229.92592592592592 Q 500.14814814814815 234.66666666666666 507.25925925925924 225.97530864197532 Q 512 214.91358024691357 503.30864197530866 207.80246913580248 L 263.1111111111111 56.098765432098766 L 263.1111111111111 56.888888888888886 Z M 202.2716049382716 218.8641975308642 L 309.7283950617284 218.8641975308642 L 202.2716049382716 218.8641975308642 L 309.7283950617284 218.8641975308642 Q 327.9012345679012 219.65432098765433 334.22222222222223 237.03703703703704 L 346.8641975308642 282.0740740740741 L 346.8641975308642 282.0740740740741 Q 346.0740740740741 282.0740740740741 345.28395061728395 282.0740740740741 Q 345.28395061728395 282.0740740740741 344.4938271604938 282.0740740740741 L 167.50617283950618 282.0740740740741 L 167.50617283950618 282.0740740740741 Q 166.71604938271605 282.0740740740741 166.71604938271605 282.0740740740741 Q 165.92592592592592 282.0740740740741 165.1358024691358 282.0740740740741 L 177.77777777777777 237.03703703703704 L 177.77777777777777 237.03703703703704 Q 184.09876543209876 219.65432098765433 202.2716049382716 218.8641975308642 L 202.2716049382716 218.8641975308642 Z M 154.07407407407408 229.92592592592592 L 136.69135802469137 289.9753086419753 L 154.07407407407408 229.92592592592592 L 136.69135802469137 289.9753086419753 Q 105.87654320987654 308.14814814814815 104.29629629629629 345.28395061728395 L 104.29629629629629 383.2098765432099 L 104.29629629629629 383.2098765432099 L 104.29629629629629 395.85185185185185 L 104.29629629629629 395.85185185185185 L 104.29629629629629 421.1358024691358 L 104.29629629629629 421.1358024691358 L 104.29629629629629 446.41975308641975 L 104.29629629629629 446.41975308641975 Q 105.08641975308642 458.2716049382716 116.93827160493827 459.0617283950617 Q 128.79012345679013 458.2716049382716 129.58024691358025 446.41975308641975 L 129.58024691358025 421.1358024691358 L 129.58024691358025 421.1358024691358 L 382.41975308641975 421.1358024691358 L 382.41975308641975 421.1358024691358 L 382.41975308641975 446.41975308641975 L 382.41975308641975 446.41975308641975 Q 383.2098765432099 458.2716049382716 395.0617283950617 459.0617283950617 Q 406.91358024691357 458.2716049382716 407.7037037037037 446.41975308641975 L 407.7037037037037 421.1358024691358 L 407.7037037037037 421.1358024691358 L 407.7037037037037 395.85185185185185 L 407.7037037037037 395.85185185185185 L 407.7037037037037 383.2098765432099 L 407.7037037037037 383.2098765432099 L 407.7037037037037 345.28395061728395 L 407.7037037037037 345.28395061728395 Q 406.12345679012344 308.14814814814815 375.30864197530866 289.9753086419753 L 357.9259259259259 229.92592592592592 L 357.9259259259259 229.92592592592592 Q 353.18518518518516 213.33333333333334 339.75308641975306 203.85185185185185 Q 327.1111111111111 193.58024691358025 309.7283950617284 193.58024691358025 L 202.2716049382716 193.58024691358025 L 202.2716049382716 193.58024691358025 Q 184.88888888888889 193.58024691358025 172.2469135802469 203.85185185185185 Q 158.8148148148148 213.33333333333334 154.07407407407408 229.92592592592592 L 154.07407407407408 229.92592592592592 Z M 382.41975308641975 383.2098765432099 L 382.41975308641975 395.85185185185185 L 382.41975308641975 383.2098765432099 L 382.41975308641975 395.85185185185185 L 129.58024691358025 395.85185185185185 L 129.58024691358025 395.85185185185185 L 129.58024691358025 383.2098765432099 L 129.58024691358025 383.2098765432099 L 129.58024691358025 345.28395061728395 L 129.58024691358025 345.28395061728395 Q 130.37037037037038 329.48148148148147 140.64197530864197 318.41975308641975 Q 151.7037037037037 308.14814814814815 167.50617283950618 307.358024691358 L 344.4938271604938 307.358024691358 L 344.4938271604938 307.358024691358 Q 360.2962962962963 308.14814814814815 371.358024691358 318.41975308641975 Q 381.6296296296296 329.48148148148147 382.41975308641975 345.28395061728395 L 382.41975308641975 383.2098765432099 L 382.41975308641975 383.2098765432099 Z M 167.50617283950618 370.5679012345679 Q 184.88888888888889 368.98765432098764 186.46913580246914 351.60493827160496 Q 184.88888888888889 334.22222222222223 167.50617283950618 332.641975308642 Q 150.12345679012347 334.22222222222223 148.54320987654322 351.60493827160496 Q 150.12345679012347 368.98765432098764 167.50617283950618 370.5679012345679 L 167.50617283950618 370.5679012345679 Z M 363.4567901234568 351.60493827160496 Q 361.87654320987656 334.22222222222223 344.4938271604938 332.641975308642 Q 327.1111111111111 334.22222222222223 325.5308641975309 351.60493827160496 Q 327.1111111111111 368.98765432098764 344.4938271604938 370.5679012345679 Q 361.87654320987656 368.98765432098764 363.4567901234568 351.60493827160496 L 363.4567901234568 351.60493827160496 Z" />
</svg>