<svg xmlns="http://www.w3.org/2000/svg" viewBox="0 0 384 512">
    <path d="M 146 68 Q 150 52 162 42 L 162 42 Q 175 32 192 32 Q 209 32 222 42 Q 234 52 239 68 Q 242 79 254 80 L 272 80 Q 287 81 288 96 L 288 128 L 192 128 L 96 128 L 96 96 Q 97 81 112 80 L 130 80 Q 142 79 146 68 L 146 68 Z M 192 0 Q 167 0 148 13 L 148 13 Q 128 26 119 48 L 112 48 Q 79 50 67 80 L 64 80 Q 37 81 19 99 Q 1 117 0 144 L 0 448 Q 1 475 19 493 Q 37 511 64 512 L 320 512 Q 347 511 365 493 Q 383 475 384 448 L 384 144 Q 383 117 365 99 Q 347 81 320 80 L 317 80 Q 305 50 272 48 L 265 48 Q 256 26 236 13 Q 217 0 192 0 L 192 0 Z M 320 112 Q 334 112 343 121 L 343 121 Q 352 130 352 144 L 352 448 Q 352 462 343 471 Q 334 480 320 480 L 64 480 Q 50 480 41 471 Q 32 462 32 448 L 32 144 Q 32 130 41 121 Q 50 112 64 112 L 64 128 Q 64 142 73 151 Q 82 160 96 160 L 192 160 L 288 160 Q 302 160 311 151 Q 320 142 320 128 L 320 112 L 320 112 Z M 208 80 Q 207 65 192 64 Q 177 65 176 80 Q 177 95 192 96 Q 207 95 208 80 L 208 80 Z M 112 208 Q 97 209 96 224 L 96 304 L 96 368 Q 97 383 112 384 Q 127 383 128 368 L 128 320 L 169 320 L 217 368 L 181 405 Q 171 416 181 427 Q 192 437 203 427 L 240 391 L 277 427 Q 288 437 299 427 Q 309 416 299 405 L 263 368 L 299 331 Q 309 320 299 309 Q 288 299 277 309 L 240 345 L 209 314 Q 238 299 240 264 Q 239 240 224 224 Q 208 209 184 208 L 112 208 L 112 208 Z M 184 288 L 176 288 L 128 288 L 128 240 L 184 240 Q 206 242 208 264 Q 206 286 184 288 L 184 288 Z"/>
</svg>
