<svg xmlns="http://www.w3.org/2000/svg" viewBox="0 0 512 512">
  <path d="M 480 256 Q 479 195 450 144 L 450 144 L 450 144 Q 420 93 368 62 Q 315 32 256 32 Q 197 32 144 62 Q 92 93 62 144 Q 33 195 32 256 Q 33 317 62 368 Q 92 419 144 450 Q 197 480 256 480 Q 315 480 368 450 Q 420 419 450 368 Q 479 317 480 256 L 480 256 Z M 0 256 Q 1 186 34 128 L 34 128 L 34 128 Q 68 70 128 34 Q 189 0 256 0 Q 323 0 384 34 Q 444 70 478 128 Q 511 186 512 256 Q 511 326 478 384 Q 444 442 384 478 Q 323 512 256 512 Q 189 512 128 478 Q 68 442 34 384 Q 1 326 0 256 L 0 256 Z M 309 430 Q 284 421 256 420 Q 228 421 203 430 Q 185 436 171 425 Q 164 420 161 410 Q 158 400 163 391 Q 177 366 201 351 Q 226 336 256 336 Q 286 336 311 351 Q 335 366 349 391 Q 353 400 351 410 Q 348 420 341 425 Q 327 436 309 430 L 309 430 Z M 256 368 Q 217 370 196 398 Q 224 389 256 388 Q 288 389 316 398 Q 295 369 256 368 L 256 368 Z M 152 272 Q 154 250 176 248 Q 198 250 200 272 Q 198 294 176 296 Q 154 294 152 272 L 152 272 Z M 336 248 Q 358 250 360 272 Q 358 294 336 296 Q 314 294 312 272 Q 314 250 336 248 L 336 248 Z M 192 160 Q 185 160 179 161 Q 147 166 123 188 Q 111 197 100 187 Q 91 175 101 164 Q 132 135 175 129 Q 183 128 192 128 Q 207 129 208 144 Q 207 159 192 160 L 192 160 Z M 333 161 Q 327 160 320 160 Q 305 159 304 144 Q 305 129 320 128 Q 329 128 337 129 Q 380 135 411 164 Q 421 175 412 187 Q 401 197 389 188 Q 365 166 333 161 L 333 161 Z" />
</svg>