<svg xmlns="http://www.w3.org/2000/svg" viewBox="0 0 512 512">
  <path d="M 268.8 117.6 Q 268 105.6 256 104.8 Q 244 105.6 243.2 117.6 Q 244 129.6 256 130.4 Q 268 129.6 268.8 117.6 L 268.8 117.6 Z M 217.6 117.6 Q 218.4 96 236.8 84 Q 256 74.4 275.2 84 Q 293.6 96 294.4 117.6 Q 293.6 139.2 275.2 151.2 Q 256 160.8 236.8 151.2 Q 218.4 139.2 217.6 117.6 L 217.6 117.6 Z M 236.8 284 L 275.2 284 L 236.8 284 L 275.2 284 L 275.2 196 L 275.2 196 Q 270.4 194.4 265.6 194.4 L 246.4 194.4 L 246.4 194.4 Q 241.6 194.4 236.8 196 L 236.8 284 L 236.8 284 Z M 334.4 271.2 L 300.8 216.8 L 334.4 271.2 L 300.8 216.8 L 300.8 284 L 300.8 284 Q 300.8 295.2 293.6 302.4 Q 286.4 309.6 275.2 309.6 L 236.8 309.6 L 236.8 309.6 Q 225.6 309.6 218.4 302.4 Q 211.2 295.2 211.2 284 L 211.2 216.8 L 211.2 216.8 L 177.6 271.2 L 177.6 271.2 Q 176.8 272 176.8 272 Q 176.8 272 176.8 272 Q 178.4 274.4 179.2 276 L 216 335.2 L 216 335.2 Q 220.8 345.6 212 352.8 Q 200.8 357.6 194.4 348 L 160 293.6 L 160 293.6 L 160 348 L 160 348 Q 160 359.2 152.8 366.4 Q 145.6 373.6 134.4 373.6 L 96 373.6 L 96 373.6 Q 84.8 373.6 77.6 366.4 Q 70.4 359.2 70.4 348 L 70.4 293.6 L 70.4 293.6 L 36.8 348 L 36.8 348 Q 29.6 357.6 19.2 352.8 Q 9.6 345.6 14.4 335.2 L 51.2 276 L 51.2 276 Q 70.4 246.4 105.6 245.6 L 124.8 245.6 L 124.8 245.6 Q 143.2 245.6 157.6 254.4 L 192 199.2 L 192 199.2 Q 211.2 169.6 246.4 168.8 L 265.6 168.8 L 265.6 168.8 Q 300.8 169.6 320 199.2 L 354.4 254.4 L 354.4 254.4 Q 369.6 245.6 387.2 245.6 L 406.4 245.6 L 406.4 245.6 Q 441.6 246.4 460.8 276 L 497.6 335.2 L 497.6 335.2 Q 502.4 345.6 492.8 352.8 Q 482.4 357.6 475.2 348 L 441.6 293.6 L 441.6 293.6 L 441.6 348 L 441.6 348 Q 441.6 359.2 434.4 366.4 Q 427.2 373.6 416 373.6 L 377.6 373.6 L 377.6 373.6 Q 366.4 373.6 359.2 366.4 Q 352 359.2 352 348 L 352 293.6 L 352 293.6 L 318.4 348 L 318.4 348 Q 311.2 357.6 300.8 352.8 Q 291.2 345.6 296 335.2 L 332.8 276 L 332.8 276 Q 333.6 274.4 335.2 272 Q 335.2 272 335.2 272 Q 335.2 272 334.4 271.2 L 334.4 271.2 Z M 12.8 412 L 499.2 412 L 12.8 412 L 499.2 412 Q 511.2 412.8 512 424.8 Q 511.2 436.8 499.2 437.6 L 12.8 437.6 L 12.8 437.6 Q 0.8 436.8 0 424.8 Q 0.8 412.8 12.8 412 L 12.8 412 Z M 115.2 207.2 Q 127.2 206.4 128 194.4 Q 127.2 182.4 115.2 181.6 Q 103.2 182.4 102.4 194.4 Q 103.2 206.4 115.2 207.2 L 115.2 207.2 Z M 115.2 156 Q 136.8 156.8 148.8 175.2 Q 158.4 194.4 148.8 213.6 Q 136.8 232 115.2 232.8 Q 93.6 232 81.6 213.6 Q 72 194.4 81.6 175.2 Q 93.6 156.8 115.2 156 L 115.2 156 Z M 96 272.8 L 96 348 L 96 272.8 L 96 348 L 134.4 348 L 134.4 348 L 134.4 272.8 L 134.4 272.8 Q 129.6 271.2 124.8 271.2 L 105.6 271.2 L 105.6 271.2 Q 100.8 271.2 96 272.8 L 96 272.8 Z M 409.6 194.4 Q 408.8 182.4 396.8 181.6 Q 384.8 182.4 384 194.4 Q 384.8 206.4 396.8 207.2 Q 408.8 206.4 409.6 194.4 L 409.6 194.4 Z M 358.4 194.4 Q 359.2 172.8 377.6 160.8 Q 396.8 151.2 416 160.8 Q 434.4 172.8 435.2 194.4 Q 434.4 216 416 228 Q 396.8 237.6 377.6 228 Q 359.2 216 358.4 194.4 L 358.4 194.4 Z M 377.6 348 L 416 348 L 377.6 348 L 416 348 L 416 272.8 L 416 272.8 Q 411.2 271.2 406.4 271.2 L 387.2 271.2 L 387.2 271.2 Q 382.4 271.2 377.6 272.8 L 377.6 348 L 377.6 348 Z" />
</svg>