<svg xmlns="http://www.w3.org/2000/svg" viewBox="0 0 512 512">
  <path d="M 456 128 Q 478 130 480 152 Q 478 174 456 176 L 312 176 L 272 176 L 272 144 L 272 144 Q 272 136 270 128 L 456 128 L 456 128 Z M 240 176 L 240 176 L 240 176 L 240 176 L 240 208 L 240 208 L 240 208 L 240 208 L 240 232 L 240 232 Q 238 254 216 256 L 216 256 L 216 256 Q 194 254 192 232 L 192 176 L 192 176 Q 191 161 176 160 Q 161 161 160 176 L 160 232 L 160 232 Q 161 256 177 272 Q 161 288 160 312 Q 160 333 173 348 Q 153 364 152 392 Q 152 405 157 416 Q 104 414 69 378 Q 33 342 32 288 L 32 224 L 32 224 Q 33 170 69 133 Q 106 97 160 96 L 192 96 L 192 96 Q 212 97 226 110 Q 239 124 240 144 L 240 176 L 240 176 Z M 272 208 L 312 208 L 272 208 L 312 208 Q 334 210 336 232 Q 334 254 312 256 L 280 256 L 280 256 Q 280 256 280 256 Q 280 256 280 256 L 267 256 L 267 256 Q 272 245 272 232 L 272 208 L 272 208 Z M 363 208 L 456 208 L 363 208 L 456 208 Q 480 207 496 192 Q 511 176 512 152 Q 511 128 496 112 Q 480 97 456 96 L 256 96 L 256 96 Q 233 65 192 64 L 160 64 L 160 64 Q 92 66 47 111 Q 2 156 0 224 L 0 288 L 0 288 Q 2 356 47 401 Q 92 446 160 448 L 208 448 L 264 448 Q 288 447 304 432 Q 319 416 320 392 Q 320 374 310 360 Q 335 343 336 312 Q 336 297 329 285 Q 346 280 357 265 Q 368 251 368 232 Q 368 219 363 208 L 363 208 Z M 240 288 L 280 288 L 240 288 L 280 288 Q 302 290 304 312 Q 302 334 280 336 L 264 336 L 216 336 Q 194 334 192 312 Q 194 290 216 288 L 216 288 L 216 288 L 240 288 L 240 288 Z M 240 416 L 208 416 L 240 416 L 208 416 Q 186 414 184 392 Q 186 370 208 368 L 216 368 L 264 368 Q 286 370 288 392 Q 286 414 264 416 L 240 416 L 240 416 Z" />
</svg>