<svg xmlns="http://www.w3.org/2000/svg" viewBox="0 0 512 512">
  <path d="M 35.94383775351014 422.53978159126365 L 267.5819032761311 85.46645865834634 L 35.94383775351014 422.53978159126365 L 267.5819032761311 85.46645865834634 Q 273.97191887675507 76.6801872074883 285.1544461778471 76.6801872074883 Q 294.73946957878314 76.6801872074883 301.1294851794072 83.07020280811233 Q 307.5195007800312 89.46021840873635 307.5195007800312 99.84399375975039 Q 307.5195007800312 107.83151326053041 302.72698907956317 114.22152886115444 L 35.94383775351014 422.53978159126365 L 35.94383775351014 422.53978159126365 Z M 285.1544461778471 51.1201248049922 Q 261.191887675507 51.9188767550702 246.81435257410297 69.49141965678628 L 246.81435257410297 70.29017160686428 L 246.81435257410297 70.29017160686428 L 246.81435257410297 70.29017160686428 L 246.81435257410297 70.29017160686428 L 5.591263650546022 420.14352574102963 L 5.591263650546022 420.14352574102963 Q 0 428.9297971918877 0.7987519500780031 438.5148205928237 Q 2.3962558502340094 448.09984399375975 10.383775351014041 454.4898595943838 Q 18.371294851794072 460.8798751950078 27.95631825273011 460.0811232449298 Q 37.541341653666144 458.4836193447738 44.730109204368176 451.29485179407175 L 322.69578783151326 130.19656786271452 L 322.69578783151326 130.19656786271452 L 322.69578783151326 130.19656786271452 L 322.69578783151326 130.19656786271452 L 322.69578783151326 130.19656786271452 L 322.69578783151326 130.19656786271452 Q 333.0795631825273 117.41653666146645 333.0795631825273 99.84399375975039 Q 332.2808112324493 79.07644305772232 318.7020280811232 65.49765990639625 Q 305.1232449297972 51.9188767550702 285.1544461778471 51.1201248049922 L 285.1544461778471 51.1201248049922 Z M 140.58034321372855 424.93603744149766 L 448.09984399375975 133.39157566302652 L 140.58034321372855 424.93603744149766 L 448.09984399375975 133.39157566302652 Q 454.4898595943838 127.8003120124805 463.2761310452418 127.8003120124805 Q 472.86115444617786 127.8003120124805 480.0499219968799 134.19032761310453 Q 486.4399375975039 141.37909516380654 486.4399375975039 150.9641185647426 Q 486.4399375975039 161.34789391575663 478.4524180967239 167.73790951638065 L 140.58034321372855 424.93603744149766 L 140.58034321372855 424.93603744149766 Z M 463.2761310452418 102.2402496099844 Q 444.90483619344775 103.0390015600624 431.32605304212166 114.22152886115444 L 431.32605304212166 114.22152886115444 L 431.32605304212166 114.22152886115444 L 431.32605304212166 114.22152886115444 L 431.32605304212166 114.22152886115444 L 111.82527301092044 416.94851794071764 L 111.82527301092044 416.94851794071764 Q 103.8377535101404 424.1372854914197 103.0390015600624 433.72230889235567 Q 102.2402496099844 443.3073322932917 109.42901716068643 451.29485179407175 Q 115.81903276131045 459.28237129485177 125.40405616224649 460.0811232449298 Q 135.78783151326053 460.8798751950078 143.77535101404055 454.4898595943838 L 494.4274570982839 187.70670826833074 L 494.4274570982839 187.70670826833074 L 494.4274570982839 187.70670826833074 L 494.4274570982839 187.70670826833074 L 495.2262090483619 187.70670826833074 L 495.2262090483619 187.70670826833074 Q 511.201248049922 173.32917316692667 512 150.9641185647426 Q 511.201248049922 130.19656786271452 497.6224648985959 116.61778471138845 Q 484.0436817472699 103.0390015600624 463.2761310452418 102.2402496099844 L 463.2761310452418 102.2402496099844 Z" />
</svg>