<svg xmlns="http://www.w3.org/2000/svg" viewBox="0 0 512 512">
  <path d="M 263.96887 3.9844358 Q 256 0 248.03113 3.9844358 L 16.933851 135.47081 L 16.933851 135.47081 Q 1.9922179 144.43579 0.99610895 162.36575 Q 0.99610895 175.31517 9.961089 184.28015 Q 18.92607 193.24513 31.875486 193.24513 L 256 193.24513 L 480.1245 193.24513 Q 493.07394 193.24513 502.0389 184.28015 Q 511.0039 175.31517 511.0039 162.36575 Q 510.00778 144.43579 495.06616 135.47081 L 263.96887 3.9844358 L 263.96887 3.9844358 Z M 306.80154 161.36964 Q 311.7821 150.41245 311.7821 137.46303 Q 310.78598 113.55642 295.84436 97.618675 Q 279.90662 82.67704 256 81.68093 Q 232.09338 82.67704 216.15564 97.618675 Q 201.214 113.55642 200.2179 137.46303 Q 200.2179 150.41245 205.19844 161.36964 L 34.86381 161.36964 L 34.86381 161.36964 L 256 35.85992 L 256 35.85992 L 477.1362 161.36964 L 477.1362 161.36964 L 306.80154 161.36964 L 306.80154 161.36964 Z M 256 113.55642 Q 277.9144 115.54864 279.90662 137.46303 Q 277.9144 159.37743 256 161.36964 Q 234.0856 159.37743 232.09338 137.46303 Q 234.0856 115.54864 256 113.55642 L 256 113.55642 Z M 64.74708 352.62256 Q 49.805447 353.61868 48.809338 368.5603 Q 49.805447 383.50195 64.74708 384.49805 L 447.25293 384.49805 L 447.25293 384.49805 Q 462.19455 383.50195 463.19067 368.5603 Q 462.19455 353.61868 447.25293 352.62256 L 447.25293 225.12062 L 447.25293 225.12062 L 415.37744 225.12062 L 415.37744 225.12062 L 415.37744 352.62256 L 415.37744 352.62256 L 335.68872 352.62256 L 335.68872 352.62256 L 335.68872 225.12062 L 335.68872 225.12062 L 303.81323 225.12062 L 303.81323 225.12062 L 303.81323 352.62256 L 303.81323 352.62256 L 208.18677 352.62256 L 208.18677 352.62256 L 208.18677 225.12062 L 208.18677 225.12062 L 176.31128 225.12062 L 176.31128 225.12062 L 176.31128 352.62256 L 176.31128 352.62256 L 96.62257 352.62256 L 96.62257 352.62256 L 96.62257 225.12062 L 96.62257 225.12062 L 64.74708 225.12062 L 64.74708 225.12062 L 64.74708 352.62256 L 64.74708 352.62256 Z M 40.840466 416.37354 Q 25.898832 417.36966 24.902723 432.31128 Q 25.898832 447.25293 40.840466 448.24902 L 471.15955 448.24902 L 471.15955 448.24902 Q 486.10117 447.25293 487.0973 432.31128 Q 486.10117 417.36966 471.15955 416.37354 L 40.840466 416.37354 L 40.840466 416.37354 Z M 16.933851 480.1245 Q 1.9922179 481.12064 0.99610895 496.06226 Q 1.9922179 511.0039 16.933851 512 L 495.06616 512 L 495.06616 512 Q 510.00778 511.0039 511.0039 496.06226 Q 510.00778 481.12064 495.06616 480.1245 L 16.933851 480.1245 L 16.933851 480.1245 Z" />
</svg>