<svg xmlns="http://www.w3.org/2000/svg" viewBox="0 0 512 512">
  <path d="M 390.23782 68.36647 L 443.1345 33.434696 L 390.23782 68.36647 L 443.1345 33.434696 L 472.07797 55.39181 L 472.07797 55.39181 Q 484.0546 66.37037 474.07407 78.34698 Q 463.09552 88.327484 452.11697 78.34698 L 442.13644 69.364525 L 442.13644 69.364525 Q 431.1579 59.384014 420.17935 69.364525 L 383.25146 105.29435 L 383.25146 105.29435 L 383.25146 81.34113 L 383.25146 81.34113 Q 383.25146 73.35673 390.23782 68.36647 L 390.23782 68.36647 Z M 351.31384 136.23392 Q 351.31384 137.23196 351.31384 137.23196 L 283.44638 206.09747 L 283.44638 206.09747 Q 270.47174 189.1306 271.4698 178.15205 Q 274.46393 165.17738 281.4503 153.20078 Q 288.43665 141.22417 290.43274 128.24951 Q 292.42886 115.27486 277.4581 100.30409 Q 265.48148 88.327484 249.51266 88.327484 Q 232.5458 88.327484 220.5692 100.30409 L 190.62769 130.24562 L 190.62769 130.24562 Q 177.65302 145.21637 169.66861 163.18129 L 169.66861 163.18129 L 169.66861 163.18129 Q 169.66861 163.18129 169.66861 163.18129 Q 162.68227 181.1462 149.7076 195.11891 Q 123.758286 218.07408 89.82456 226.05849 Q 55.89084 234.0429 29.94152 257.9961 Q 0 288.93567 0 328.8577 Q 0 369.77777 29.94152 400.71735 L 108.78752 481.55945 L 108.78752 481.55945 Q 139.7271 511.50098 180.64717 511.50098 Q 220.5692 511.50098 251.50877 481.55945 Q 274.46393 454.6121 282.44833 420.67838 Q 282.44833 420.67838 282.44833 420.67838 Q 290.43274 386.74463 313.3879 359.79727 Q 326.36258 347.82065 343.32944 340.83432 Q 343.32944 340.83432 344.32748 340.83432 Q 360.2963 334.846 374.269 321.87134 L 395.22806 300.9123 L 395.22806 300.9123 Q 407.20468 287.93762 407.20468 271.9688 Q 407.20468 256 395.22806 243.02534 Q 383.25146 231.04874 373.27097 231.04874 Q 362.2924 231.04874 351.31384 235.04094 Q 351.31384 235.04094 351.31384 235.04094 Q 341.33334 240.03119 328.35867 240.03119 Q 319.37622 239.03314 306.40155 228.05458 L 431.1579 103.29825 L 431.1579 103.29825 Q 446.12866 115.27486 464.09357 115.27486 Q 482.05847 115.27486 497.02924 101.30215 Q 512 85.333336 510.0039 64.37427 Q 509.00586 43.415203 492.039 29.442495 L 460.10138 6.4873295 L 460.10138 6.4873295 Q 452.11697 0.49902534 443.1345 0.49902534 Q 434.15204 0.49902534 427.16568 5.489279 L 372.27292 41.4191 L 372.27292 41.4191 Q 352.3119 56.389862 351.31384 81.34113 L 351.31384 136.23392 L 351.31384 136.23392 Z M 238.53412 172.16374 Q 236.53801 185.1384 239.53217 196.11696 L 239.53217 196.11696 L 239.53217 196.11696 Q 243.52437 207.09552 247.51657 213.08382 Q 256.49902 228.05458 268.47565 240.03119 Q 280.45224 252.0078 293.4269 260.99026 Q 300.41327 264.98245 307.3996 268.97467 Q 315.384 272.96686 327.36063 273.9649 Q 345.32553 272.96686 355.30603 269.97272 Q 359.29825 267.9766 362.2924 266.97855 L 362.2924 266.97855 L 362.2924 266.97855 L 362.2924 266.97855 L 362.2924 266.97855 L 364.2885 266.97855 L 364.2885 266.97855 Q 367.28265 265.9805 369.27875 264.98245 L 369.27875 264.98245 L 369.27875 264.98245 Q 370.2768 265.9805 371.27484 266.97855 Q 375.26706 271.9688 371.27484 276.95908 L 350.3158 298.91617 L 350.3158 298.91617 Q 345.32553 303.90643 329.35672 310.8928 L 327.36063 311.89084 L 327.36063 311.89084 Q 327.36063 311.89084 327.36063 311.89084 Q 310.39377 317.87915 289.4347 336.8421 Q 272.46783 353.80896 264.48343 372.77194 Q 255.50098 392.73294 251.50877 408.70175 L 250.51073 410.69785 L 250.51073 410.69785 Q 241.52826 443.6335 227.55556 458.60428 Q 207.59454 477.56726 180.64717 477.56726 Q 153.6998 477.56726 132.74074 458.60428 L 52.896687 377.76218 L 52.896687 377.76218 Q 33.933723 356.80313 33.933723 328.8577 Q 33.933723 301.91034 52.896687 280.95126 Q 66.86939 267.9766 99.80507 257.9961 L 102.79922 256.99805 L 102.79922 256.99805 Q 102.79922 256.99805 102.79922 256.99805 Q 117.76998 253.00584 137.73099 244.02339 Q 156.69395 236.03899 173.66081 219.07213 Q 192.62378 197.115 199.61014 179.1501 L 200.60818 177.15399 L 200.60818 177.15399 Q 208.59259 160.18713 214.5809 154.19884 L 244.52242 124.25731 L 244.52242 124.25731 Q 249.51266 119.26706 253.50487 124.25731 Q 255.50098 126.25341 256.49902 127.251465 Q 256.49902 127.251465 256.49902 127.251465 Q 256.49902 127.251465 256.49902 127.251465 Q 255.50098 130.24562 253.50487 133.23976 Q 252.50682 134.23782 252.50682 136.23392 L 252.50682 136.23392 L 252.50682 136.23392 L 252.50682 136.23392 L 252.50682 136.23392 Q 251.50877 136.23392 251.50877 137.23196 Q 250.51073 139.22807 248.51462 143.22028 Q 242.52632 153.20078 238.53412 172.16374 L 238.53412 172.16374 L 238.53412 172.16374 Z M 369.27875 263.9844 Q 368.2807 263.9844 368.2807 264.98245 Q 368.2807 264.98245 369.27875 264.98245 Q 369.27875 264.98245 369.27875 264.98245 Q 369.27875 263.9844 369.27875 263.9844 L 369.27875 263.9844 Z M 257.49707 128.24951 Q 257.49707 128.24951 257.49707 128.24951 Q 257.49707 128.24951 257.49707 128.24951 Q 257.49707 128.24951 257.49707 128.24951 Q 257.49707 128.24951 257.49707 128.24951 L 257.49707 128.24951 Z M 148.70955 276.95908 Q 138.72905 287.93762 148.70955 298.91617 L 212.5848 362.7914 L 212.5848 362.7914 Q 223.56335 372.77194 234.54192 362.7914 Q 244.52242 351.81287 234.54192 340.83432 L 170.66667 276.95908 L 170.66667 276.95908 Q 159.68811 266.97855 148.70955 276.95908 L 148.70955 276.95908 Z M 100.803116 324.8655 Q 90.82261 335.84406 100.803116 346.8226 L 164.67836 410.69785 L 164.67836 410.69785 Q 175.65692 420.67838 186.63548 410.69785 Q 196.61598 399.7193 186.63548 388.74075 L 122.76023 324.8655 L 122.76023 324.8655 Q 111.78168 314.88498 100.803116 324.8655 L 100.803116 324.8655 Z" />
</svg>