<svg xmlns="http://www.w3.org/2000/svg" viewBox="0 0 512 512">
  <path d="M 157.7967213114754 54.557377049180324 Q 140.17049180327868 54.557377049180324 126.74098360655738 64.62950819672132 L 126.74098360655738 64.62950819672132 L 126.74098360655738 64.62950819672132 Q 113.31147540983606 73.86229508196722 107.43606557377049 89.80983606557378 L 9.232786885245902 358.4 L 9.232786885245902 358.4 Q 0 386.0983606557377 15.108196721311476 407.9213114754098 Q 30.21639344262295 429.74426229508197 59.59344262295082 430.58360655737704 L 297.127868852459 430.58360655737704 L 297.127868852459 430.58360655737704 L 297.127868852459 403.7245901639344 L 297.127868852459 403.7245901639344 L 256.83934426229507 403.7245901639344 L 256.83934426229507 403.7245901639344 L 256.83934426229507 363.4360655737705 L 256.83934426229507 363.4360655737705 Q 256 350.8459016393443 243.40983606557376 350.0065573770492 Q 230.81967213114754 350.8459016393443 229.98032786885247 363.4360655737705 L 229.98032786885247 403.7245901639344 L 229.98032786885247 403.7245901639344 L 59.59344262295082 403.7245901639344 L 59.59344262295082 403.7245901639344 Q 44.485245901639345 402.88524590163934 36.93114754098361 391.9737704918033 Q 29.37704918032787 381.0622950819672 34.41311475409836 367.6327868852459 L 132.61639344262295 99.04262295081968 L 132.61639344262295 99.04262295081968 Q 139.3311475409836 82.25573770491803 157.7967213114754 81.41639344262295 L 229.98032786885247 81.41639344262295 L 229.98032786885247 81.41639344262295 L 229.98032786885247 121.70491803278688 L 229.98032786885247 121.70491803278688 Q 230.81967213114754 134.29508196721312 243.40983606557376 135.1344262295082 Q 256 134.29508196721312 256.83934426229507 121.70491803278688 L 256.83934426229507 81.41639344262295 L 256.83934426229507 81.41639344262295 L 329.02295081967213 81.41639344262295 L 329.02295081967213 81.41639344262295 Q 347.48852459016393 82.25573770491803 355.0426229508197 99.04262295081968 L 380.2229508196721 169.54754098360655 L 380.2229508196721 169.54754098360655 Q 392.81311475409836 164.51147540983607 406.2426229508197 162.8327868852459 L 380.2229508196721 89.80983606557378 L 380.2229508196721 89.80983606557378 Q 373.5081967213115 73.86229508196722 360.0786885245902 64.62950819672132 Q 346.64918032786886 54.557377049180324 329.02295081967213 54.557377049180324 L 157.7967213114754 54.557377049180324 L 157.7967213114754 54.557377049180324 Z M 256.83934426229507 202.28196721311474 Q 256 189.69180327868852 243.40983606557376 188.85245901639345 Q 230.81967213114754 189.69180327868852 229.98032786885247 202.28196721311474 L 229.98032786885247 282.85901639344263 L 229.98032786885247 282.85901639344263 Q 230.81967213114754 295.4491803278689 243.40983606557376 296.28852459016395 Q 256 295.4491803278689 256.83934426229507 282.85901639344263 L 256.83934426229507 202.28196721311474 L 256.83934426229507 202.28196721311474 Z M 417.9934426229508 215.71147540983605 Q 434.78032786885245 216.55081967213115 446.5311475409836 227.46229508196723 L 446.5311475409836 227.46229508196723 L 446.5311475409836 227.46229508196723 Q 457.44262295081967 239.21311475409837 458.28196721311474 256 L 458.28196721311474 296.28852459016395 L 458.28196721311474 296.28852459016395 L 377.7049180327869 296.28852459016395 L 377.7049180327869 296.28852459016395 L 377.7049180327869 256 L 377.7049180327869 256 Q 378.544262295082 239.21311475409837 389.455737704918 227.46229508196723 Q 401.2065573770492 216.55081967213115 417.9934426229508 215.71147540983605 L 417.9934426229508 215.71147540983605 Z M 350.8459016393443 256 L 350.8459016393443 296.28852459016395 L 350.8459016393443 256 L 350.8459016393443 296.28852459016395 Q 339.0950819672131 296.28852459016395 331.5409836065574 303.84262295081965 Q 323.98688524590165 311.3967213114754 323.98688524590165 323.1475409836066 L 323.98688524590165 430.58360655737704 L 323.98688524590165 430.58360655737704 Q 323.98688524590165 442.3344262295082 331.5409836065574 449.8885245901639 Q 339.0950819672131 457.44262295081967 350.8459016393443 457.44262295081967 L 485.14098360655737 457.44262295081967 L 485.14098360655737 457.44262295081967 Q 496.89180327868854 457.44262295081967 504.44590163934424 449.8885245901639 Q 512 442.3344262295082 512 430.58360655737704 L 512 323.1475409836066 L 512 323.1475409836066 Q 512 311.3967213114754 504.44590163934424 303.84262295081965 Q 496.89180327868854 296.28852459016395 485.14098360655737 296.28852459016395 L 485.14098360655737 256 L 485.14098360655737 256 Q 484.3016393442623 227.46229508196723 465.8360655737705 208.15737704918033 Q 446.5311475409836 189.69180327868852 417.9934426229508 188.85245901639345 Q 389.455737704918 189.69180327868852 370.15081967213115 208.15737704918033 Q 351.68524590163935 227.46229508196723 350.8459016393443 256 L 350.8459016393443 256 Z M 350.8459016393443 323.1475409836066 L 485.14098360655737 323.1475409836066 L 350.8459016393443 323.1475409836066 L 485.14098360655737 323.1475409836066 L 485.14098360655737 430.58360655737704 L 485.14098360655737 430.58360655737704 L 350.8459016393443 430.58360655737704 L 350.8459016393443 430.58360655737704 L 350.8459016393443 323.1475409836066 L 350.8459016393443 323.1475409836066 Z" />
</svg>