<svg xmlns="http://www.w3.org/2000/svg" viewBox="0 0 485 512">
    <path d="M 80 96 Q 81 69 99 51 L 99 51 Q 117 33 144 32 Q 171 33 189 51 Q 207 69 208 96 L 208 253 Q 209 275 224 290 Q 255 321 256 368 Q 255 416 223 447 Q 192 479 144 480 Q 96 479 65 447 Q 33 416 32 368 Q 33 321 64 290 Q 79 275 80 253 L 80 96 L 80 96 Z M 144 0 Q 103 1 76 28 L 76 28 Q 49 55 48 96 L 48 253 Q 48 260 41 267 Q 1 308 0 368 Q 2 429 42 470 Q 83 510 144 512 Q 205 510 246 470 Q 286 429 288 368 Q 287 308 247 267 Q 240 260 240 253 L 240 96 Q 239 55 212 28 Q 185 1 144 0 L 144 0 Z M 112 368 Q 112 354 121 345 L 121 345 Q 130 336 144 336 Q 158 336 167 345 Q 176 354 176 368 Q 176 382 167 391 Q 158 400 144 400 Q 130 400 121 391 Q 112 382 112 368 L 112 368 Z M 208 368 Q 208 345 194 328 L 194 328 Q 181 312 160 306 L 160 272 Q 159 257 144 256 Q 129 257 128 272 L 128 306 Q 107 312 94 328 Q 80 345 80 368 Q 81 395 99 413 Q 117 431 144 432 Q 171 431 189 413 Q 207 395 208 368 L 208 368 Z M 325 411 L 389 475 Q 400 485 411 475 L 475 411 Q 485 400 475 389 Q 464 379 453 389 L 416 425 L 416 48 Q 415 33 400 32 Q 385 33 384 48 L 384 425 L 347 389 Q 336 379 325 389 Q 315 400 325 411 L 325 411 Z"/>
</svg>
