<svg xmlns="http://www.w3.org/2000/svg" viewBox="0 0 512 480">
    <path d="M 32 428 Q 34 446 52 448 L 132 448 L 380 448 L 460 448 Q 478 446 480 428 Q 480 424 478 419 L 460 384 Q 452 366 460 349 Q 480 306 480 256 Q 479 193 449 143 Q 420 92 369 63 Q 319 33 256 32 Q 193 33 143 63 Q 92 92 63 143 Q 33 193 32 256 Q 32 306 52 349 Q 60 366 52 384 L 34 419 L 6 405 L 34 419 Q 32 424 32 428 L 32 428 Z M 512 256 Q 512 314 489 363 Q 487 366 489 370 L 507 405 Q 512 416 512 428 Q 512 450 497 465 Q 482 479 460 480 L 380 480 L 132 480 L 52 480 Q 30 479 15 465 Q 1 450 0 428 Q 0 416 6 405 L 23 370 Q 25 366 23 363 Q 0 314 0 256 Q 1 184 35 127 Q 69 69 127 35 Q 184 1 256 0 Q 328 1 385 35 Q 443 69 477 127 Q 511 184 512 256 L 512 256 Z M 384 256 Q 382 199 344 163 L 306 215 Q 320 232 320 256 Q 320 258 320 260 L 382 280 Q 384 268 384 256 L 384 256 Z M 310 290 Q 296 311 272 318 L 272 383 Q 305 379 332 359 Q 358 340 372 311 L 310 291 L 310 290 Z M 240 318 Q 216 311 202 290 L 140 311 Q 154 340 180 359 Q 206 378 240 383 L 240 318 L 240 318 Z M 128 256 Q 128 268 130 280 L 192 260 Q 192 258 192 256 Q 193 232 207 215 L 196 202 L 168 163 Q 130 199 128 256 L 128 256 Z M 256 192 Q 269 192 280 197 L 318 144 Q 290 128 256 128 Q 222 128 194 144 L 222 183 L 232 197 Q 243 192 256 192 L 256 192 Z M 96 256 Q 96 213 117 176 L 117 176 Q 139 139 176 117 Q 214 96 256 96 Q 298 96 336 117 Q 373 139 395 176 Q 416 213 416 256 Q 416 299 395 336 Q 373 373 336 395 Q 298 416 256 416 Q 214 416 176 395 Q 139 373 117 336 Q 96 299 96 256 L 96 256 Z M 288 256 Q 288 242 279 233 L 279 233 Q 270 224 256 224 Q 242 224 233 233 Q 224 242 224 256 Q 224 270 233 279 Q 242 288 256 288 Q 270 288 279 279 Q 288 270 288 256 L 288 256 Z"/>
</svg>
