<svg xmlns="http://www.w3.org/2000/svg" viewBox="0 0 512 512">
  <path d="M 311.581616481775 178.10459587955626 Q 312.3930269413629 142.4025356576862 332.6782884310618 115.62599049128367 L 332.6782884310618 115.62599049128367 L 332.6782884310618 115.62599049128367 Q 352.15213946117274 88.84944532488115 384.60855784469095 79.11251980982567 Q 357.83201267828844 110.75752773375595 357.0206022187005 155.3851030110935 Q 357.83201267828844 200.82408874801902 385.41996830427894 232.46909667194927 Q 412.19651347068145 264.9255150554675 454.38985736925514 273.851030110935 Q 436.5388272583201 281.9651347068146 415.4421553090333 281.9651347068146 Q 391.09984152139464 281.9651347068146 370.00316957210777 271.4167987321712 Q 373.2488114104596 279.5309033280507 374.8716323296355 288.4564183835182 Q 391.91125198098257 295.75911251980983 405.7052297939778 307.93026941362916 Q 410.57369255150553 307.93026941362916 415.4421553090333 307.93026941362916 Q 468.9952456418383 306.30744849445324 505.50871632329637 271.4167987321712 Q 512 264.11410459587955 507.9429477020602 256 Q 503.0744849445325 247.88589540412045 494.148969889065 249.50871632329637 Q 486.0348652931854 250.3201267828843 477.92076069730587 250.3201267828843 Q 437.3502377179081 249.50871632329637 411.3851030110935 222.73217115689383 Q 384.60855784469095 195.95562599049128 382.985736925515 155.3851030110935 Q 383.797147385103 128.60855784469098 396.7797147385103 107.51188589540412 Q 409.7622820919176 85.60380348652932 431.6703645007924 72.62123613312203 Q 438.97305863708397 67.7527733755943 437.3502377179081 58.82725832012678 Q 434.9160063391442 49.901743264659274 425.9904912836767 49.09033280507131 Q 423.55625990491285 48.27892234548336 420.310618066561 48.27892234548336 Q 417.87638668779715 48.27892234548336 415.4421553090333 48.27892234548336 Q 360.2662440570523 49.901743264659274 323.7527733755943 86.41521394611728 Q 287.2393026941363 122.92868462757528 285.6164817749604 178.10459587955626 Q 285.6164817749604 191.8985736925515 288.8621236133122 204.8811410459588 Q 304.27892234548335 207.31537242472265 318.0729001584786 214.61806656101427 Q 311.581616481775 197.5784469096672 311.581616481775 178.10459587955626 L 311.581616481775 178.10459587955626 Z M 272.6339144215531 256 Q 294.5419968304279 256.81141045958793 309.1473851030111 271.4167987321712 L 309.1473851030111 271.4167987321712 L 309.1473851030111 271.4167987321712 Q 323.7527733755943 286.02218700475436 324.56418383518223 307.93026941362916 Q 324.56418383518223 313.61014263074486 323.7527733755943 318.47860538827257 Q 322.1299524564184 324.15847860538827 326.18700475435816 329.02694136291603 Q 330.24405705229793 333.89540412044374 336.73534072900156 333.89540412044374 Q 336.73534072900156 333.89540412044374 336.73534072900156 333.89540412044374 Q 337.54675118858955 333.89540412044374 337.54675118858955 333.89540412044374 Q 359.45483359746436 334.7068145800317 374.06022187004754 349.3122028526149 Q 388.6656101426307 363.9175911251981 389.4770206022187 385.8256735340729 Q 388.6656101426307 407.7337559429477 374.06022187004754 422.3391442155309 Q 359.45483359746436 436.9445324881141 337.54675118858955 437.75594294770207 Q 336.73534072900156 437.75594294770207 335.92393026941363 437.75594294770207 Q 335.1125198098257 437.75594294770207 335.1125198098257 437.75594294770207 Q 335.1125198098257 437.75594294770207 335.1125198098257 437.75594294770207 L 118.46592709984152 437.75594294770207 L 118.46592709984152 437.75594294770207 L 118.46592709984152 437.75594294770207 L 118.46592709984152 437.75594294770207 L 118.46592709984152 437.75594294770207 L 118.46592709984152 437.75594294770207 Q 117.65451664025356 437.75594294770207 116.84310618066561 437.75594294770207 Q 100.6148969889065 436.9445324881141 89.25515055467513 426.39619651347067 Q 78.70681458003169 415.03645007923933 77.89540412044374 398.80824088748017 Q 78.70681458003169 382.58003169572106 89.25515055467513 371.2202852614897 Q 100.6148969889065 360.67194928684626 116.84310618066561 359.8605388272583 L 116.84310618066561 359.8605388272583 L 116.84310618066561 359.8605388272583 L 116.84310618066561 359.8605388272583 L 116.84310618066561 359.8605388272583 L 124.1458003169572 359.8605388272583 L 124.1458003169572 359.8605388272583 Q 131.4484944532488 359.8605388272583 134.69413629160064 353.3692551505547 Q 138.75118858954042 346.877971473851 134.69413629160064 340.3866877971474 Q 129.8256735340729 331.4611727416799 129.8256735340729 320.9128367670364 Q 130.63708399366087 304.6846275752773 141.18541996830427 293.324881141046 Q 152.54516640253567 282.7765451664025 168.77337559429478 281.9651347068146 Q 188.2472266244057 282.7765451664025 199.6069730586371 297.38193343898575 Q 204.4754358161648 303.8732171156894 212.58954041204439 302.25039619651346 Q 220.70364500792394 300.62757527733754 223.1378763866878 293.324881141046 Q 228.00633914421553 277.0966719492869 240.98890649762282 266.5483359746434 Q 254.78288431061807 256 272.6339144215531 256 L 272.6339144215531 256 Z M 350.5293185419968 307.93026941362916 Q 349.7179080824089 274.66244057052296 327.8098256735341 252.75435816164818 L 327.8098256735341 252.75435816164818 L 327.8098256735341 252.75435816164818 Q 305.9017432646593 230.84627575277338 272.6339144215531 230.03486529318542 Q 250.7258320126783 230.03486529318542 233.68621236133123 240.58320126782885 Q 216.64659270998416 250.3201267828843 206.09825673534073 267.3597464342314 Q 189.87004754358162 256 168.77337559429478 256 Q 141.18541996830427 256.81141045958793 122.5229793977813 274.66244057052296 Q 104.67194928684627 293.324881141046 103.86053882725832 320.9128367670364 Q 103.86053882725832 328.21553090332804 105.48335974643423 334.7068145800317 Q 81.95245641838352 339.57527733755944 67.34706814580032 356.6148969889065 Q 52.741679873217116 374.4659270998415 51.93026941362916 398.80824088748017 Q 52.741679873217116 426.39619651347067 70.59270998415214 445.0586370839937 Q 89.25515055467513 462.90966719492866 116.84310618066561 463.72107765451665 Q 117.65451664025356 463.72107765451665 117.65451664025356 463.72107765451665 Q 118.46592709984152 463.72107765451665 119.27733755942948 463.72107765451665 L 335.1125198098257 463.72107765451665 L 335.1125198098257 463.72107765451665 Q 335.92393026941363 463.72107765451665 335.92393026941363 463.72107765451665 Q 336.73534072900156 463.72107765451665 337.54675118858955 463.72107765451665 Q 370.8145800316957 462.90966719492866 392.7226624405705 441.0015847860539 Q 414.6307448494453 419.0935023771791 415.4421553090333 385.8256735340729 Q 414.6307448494453 356.6148969889065 396.7797147385103 335.51822503961967 Q 378.92868462757525 314.4215530903328 350.5293185419968 308.7416798732171 L 350.5293185419968 307.93026941362916 L 350.5293185419968 307.93026941362916 Z M 259.6513470681458 204.06973058637084 L 259.6513470681458 204.06973058637084 L 259.6513470681458 204.06973058637084 L 259.6513470681458 204.06973058637084 Q 258.8399366085578 182.16164817749603 244.23454833597464 167.55625990491285 Q 229.62916006339145 152.95087163232964 207.72107765451665 152.13946117274168 Q 198.79556259904913 152.13946117274168 190.68145800316958 155.3851030110935 Q 183.37876386687796 136.72266244057053 167.15055467511885 125.36291600633915 Q 150.92234548335975 114.00316957210777 129.8256735340729 113.1917591125198 Q 105.48335974643423 114.00316957210777 88.44374009508716 128.60855784469098 Q 70.59270998415214 143.21394611727416 66.53565768621236 165.93343898573693 Q 62.478605388272584 165.12202852614897 58.42155309033281 165.12202852614897 Q 33.26782884310618 165.93343898573693 17.039619651347067 182.16164817749603 Q 0.8114104595879557 198.38985736925514 0 223.5435816164818 Q 0.8114104595879557 248.6973058637084 17.039619651347067 264.9255150554675 Q 33.26782884310618 281.15372424722665 58.42155309033281 281.9651347068146 L 58.42155309033281 281.9651347068146 L 58.42155309033281 281.9651347068146 L 86.82091917591126 281.9651347068146 L 86.82091917591126 281.9651347068146 Q 93.3122028526149 267.3597464342314 105.48335974643423 256 L 60.044374009508715 256 L 60.044374009508715 256 Q 59.23296354992076 256 58.42155309033281 256 Q 44.62757527733756 256 35.70206022187005 246.26307448494453 Q 26.776545166402535 237.337559429477 25.96513470681458 223.5435816164818 Q 26.776545166402535 209.74960380348654 35.70206022187005 200.82408874801902 Q 44.62757527733756 191.8985736925515 58.42155309033281 191.08716323296355 Q 60.85578446909667 191.08716323296355 62.478605388272584 191.08716323296355 Q 73.026941362916 192.70998415213947 81.14104595879556 187.03011093502377 Q 89.25515055467513 181.35023771790807 91.68938193343898 170.80190174326466 Q 94.93502377179081 157.0079239302694 104.67194928684627 148.0824088748019 Q 115.22028526148969 139.15689381933439 129.8256735340729 139.15689381933439 Q 156.60221870047545 140.7797147385103 166.3391442155309 164.310618066561 Q 170.39619651347067 174.04754358161648 179.32171156893818 178.91600633914422 Q 189.05863708399366 182.973058637084 199.6069730586371 179.72741679873218 Q 202.8526148969889 178.10459587955626 207.72107765451665 178.10459587955626 Q 219.08082408874802 178.10459587955626 226.3835182250396 185.40729001584785 Q 233.68621236133123 192.70998415213947 233.68621236133123 204.06973058637084 Q 233.68621236133123 204.06973058637084 233.68621236133123 204.8811410459588 Q 233.68621236133123 208.12678288431061 232.87480190174327 212.1838351822504 Q 245.85736925515056 206.50396196513472 259.6513470681458 204.8811410459588 L 259.6513470681458 204.06973058637084 L 259.6513470681458 204.06973058637084 Z" />
</svg>