<svg xmlns="http://www.w3.org/2000/svg" viewBox="0 0 640 512">
    <path d="M 338 51 L 273 344 L 457 160 L 341 44 Q 339 47 338 51 L 338 51 Z M 259 408 L 254 409 L 165 497 Q 151 512 130 512 Q 109 511 95 497 Q 81 483 80 462 L 80 316 L 24 350 Q 16 354 8 350 Q 0 345 0 336 L 0 240 Q 0 231 8 226 Q 16 222 24 226 L 80 260 L 80 208 Q 79 188 66 174 Q 52 161 32 160 L 16 160 Q 1 159 0 144 Q 1 129 16 128 L 32 128 Q 66 129 89 151 Q 111 174 112 208 L 112 260 L 168 226 Q 176 222 184 226 Q 192 231 192 240 L 192 336 Q 192 345 184 350 Q 176 354 168 350 L 112 316 L 112 462 Q 114 478 130 480 Q 137 480 143 475 L 231 387 L 232 381 L 307 44 Q 312 24 327 12 Q 342 0 362 0 L 584 0 Q 608 1 624 16 Q 639 32 640 56 L 640 278 Q 640 298 628 313 Q 616 328 596 333 L 259 408 L 259 408 Z M 480 183 L 296 367 L 589 302 Q 593 301 596 299 L 480 183 L 480 183 Z M 608 56 Q 608 56 608 55 L 608 55 Q 608 55 608 55 L 503 160 L 608 265 L 608 56 L 608 56 Z M 584 32 L 375 32 L 480 137 L 585 32 Q 585 32 585 32 Q 584 32 584 32 L 584 32 Z M 32 268 L 32 308 L 65 288 L 32 268 L 32 268 Z M 160 308 L 160 268 L 127 288 L 160 308 L 160 308 Z"/>
</svg>
