<svg xmlns="http://www.w3.org/2000/svg" viewBox="0 0 512 512">
  <path d="M 352 280 L 352 337 L 352 280 L 352 337 Q 353 343 359 344 Q 362 344 364 342 L 476 216 L 476 216 L 364 90 L 364 90 Q 362 88 359 88 Q 353 89 352 95 L 352 152 L 352 152 Q 352 166 343 175 Q 334 184 320 184 L 144 184 L 144 184 Q 96 185 65 217 Q 33 248 32 296 L 32 408 L 32 408 Q 33 423 48 424 L 80 424 L 80 424 Q 95 423 96 408 L 96 296 L 96 296 Q 97 276 110 262 Q 124 249 144 248 L 320 248 L 320 248 Q 334 248 343 257 Q 352 266 352 280 L 352 280 Z M 507 202 Q 512 208 512 216 Q 512 224 507 230 L 388 363 L 388 363 Q 376 376 359 376 Q 342 376 331 365 Q 320 354 320 337 L 320 312 L 320 312 L 320 280 L 320 280 L 288 280 L 144 280 Q 129 281 128 296 L 128 408 L 128 408 Q 127 428 114 442 Q 100 455 80 456 L 48 456 L 48 456 Q 28 455 14 442 Q 1 428 0 408 L 0 296 L 0 296 Q 2 235 42 194 Q 83 154 144 152 L 288 152 L 320 152 L 320 120 L 320 120 L 320 95 L 320 95 Q 320 78 331 67 Q 342 56 359 56 Q 376 56 388 69 L 507 202 L 507 202 Z" />
</svg>