<svg xmlns="http://www.w3.org/2000/svg" viewBox="0 0 452 516">
    <path d="M 234 4 Q 226 0 218 4 L 197 17 Q 172 31 145 32 Q 117 34 92 21 Q 78 14 64 18 Q 50 21 41 33 L 17 65 Q 0 89 14 114 Q 34 150 34 192 L 34 205 Q 34 239 21 270 L 10 299 Q 2 319 2 341 Q 2 374 20 401 Q 37 428 67 442 L 219 513 Q 226 516 233 513 L 385 442 Q 415 428 432 401 Q 450 374 450 341 Q 450 319 442 299 L 431 270 Q 418 239 418 205 L 418 192 Q 418 150 439 114 Q 452 89 436 65 L 411 33 Q 402 21 388 18 Q 374 14 360 21 Q 335 34 307 32 Q 280 31 255 17 L 234 4 L 234 4 Z M 213 44 L 226 37 L 239 44 Q 271 63 306 64 Q 342 66 375 50 Q 381 47 386 52 L 410 85 Q 414 91 411 98 Q 394 128 388 162 L 64 162 Q 58 128 41 98 Q 37 91 42 85 L 66 52 Q 71 47 78 50 Q 110 66 146 65 Q 181 63 213 45 L 213 44 Z M 66 194 L 386 194 L 386 205 Q 386 245 401 282 L 412 311 Q 418 325 418 341 Q 418 364 405 384 Q 393 403 372 413 L 226 480 L 81 413 Q 59 403 47 384 Q 34 364 34 341 Q 34 325 40 311 L 51 282 Q 66 245 66 205 L 66 194 L 66 194 Z"/>
</svg>
