<svg xmlns="http://www.w3.org/2000/svg" viewBox="0 0 627 512">
    <path d="M 288 197 L 288 32 L 160 32 L 160 197 Q 160 224 146 247 L 101 320 L 305 320 Q 309 341 326 352 L 81 352 L 38 423 Q 32 432 32 443 Q 32 459 43 469 Q 53 480 69 480 L 351 480 Q 377 499 404 485 L 404 486 Q 404 496 408 505 Q 395 512 379 512 L 69 512 Q 40 511 20 492 Q 1 472 0 443 Q 0 423 10 406 L 119 230 Q 128 215 128 197 L 128 32 L 112 32 Q 97 31 96 16 Q 97 1 112 0 L 160 0 L 288 0 L 336 0 Q 351 1 352 16 Q 351 31 336 32 L 320 32 L 320 197 Q 320 215 330 230 L 336 241 Q 329 251 322 261 Q 320 266 317 271 L 302 247 Q 288 224 288 197 L 288 197 Z M 463 240 Q 457 265 437 277 Q 416 289 391 280 L 373 311 Q 392 329 392 353 Q 392 377 373 396 L 391 426 Q 416 418 437 430 Q 457 441 463 466 L 497 466 Q 503 441 524 430 Q 544 418 569 426 L 587 396 Q 568 377 568 353 Q 568 330 587 311 L 569 280 Q 544 289 524 277 Q 503 265 497 240 L 463 240 L 463 240 Z M 507 208 Q 526 210 528 229 L 528 231 Q 529 243 539 249 Q 550 255 560 249 L 562 248 Q 581 239 593 256 L 619 303 Q 627 321 611 332 Q 600 340 600 353 Q 600 367 611 374 Q 627 385 619 403 L 593 450 Q 581 467 562 458 L 560 457 Q 550 452 539 458 Q 529 464 528 476 L 528 477 Q 526 497 507 498 L 453 498 Q 434 497 432 477 L 432 476 Q 431 464 421 458 Q 410 452 400 457 L 398 458 Q 379 467 368 450 L 341 403 Q 333 385 349 374 Q 360 367 360 353 Q 360 339 349 332 Q 333 321 341 303 L 367 256 Q 379 239 398 248 L 400 249 Q 410 255 421 249 Q 431 242 432 231 L 432 229 Q 434 210 453 208 L 507 208 L 507 208 Z M 424 353 Q 425 321 452 305 Q 480 290 508 305 Q 535 321 536 353 Q 535 385 508 402 Q 480 417 452 402 Q 425 385 424 353 L 424 353 Z M 480 377 Q 502 375 504 353 Q 502 331 480 329 Q 458 331 456 353 Q 458 375 480 377 L 480 377 Z"/>
</svg>
