<svg xmlns="http://www.w3.org/2000/svg" viewBox="0 0 448 448">
    <path d="M 64 32 Q 50 32 41 41 L 41 41 Q 32 50 32 64 L 32 384 Q 32 398 41 407 Q 50 416 64 416 L 384 416 Q 398 416 407 407 Q 416 398 416 384 L 416 64 Q 416 50 407 41 Q 398 32 384 32 L 64 32 L 64 32 Z M 0 64 Q 1 37 19 19 L 19 19 Q 37 1 64 0 L 384 0 Q 411 1 429 19 Q 447 37 448 64 L 448 384 Q 447 411 429 429 Q 411 447 384 448 L 64 448 Q 37 447 19 429 Q 1 411 0 384 L 0 64 L 0 64 Z M 161 158 Q 159 170 162 176 Q 165 182 174 189 Q 194 200 228 209 L 230 209 Q 263 217 292 233 Q 306 242 315 258 Q 323 275 319 296 Q 310 332 276 344 Q 243 356 202 350 L 201 350 L 201 350 Q 188 348 170 343 Q 152 338 140 334 Q 127 328 130 314 Q 135 300 150 303 Q 162 307 178 312 Q 195 316 206 318 Q 242 323 264 314 Q 285 306 287 290 Q 289 277 286 272 Q 283 265 274 259 Q 254 248 220 239 L 218 239 L 218 239 Q 185 231 156 215 Q 142 206 133 190 Q 125 173 129 152 Q 138 116 172 104 Q 205 92 246 98 Q 253 99 264 101 Q 274 103 281 105 Q 294 110 292 125 Q 287 138 273 136 Q 266 135 257 133 Q 248 131 242 130 Q 206 125 184 134 Q 163 142 161 158 L 161 158 Z"/>
</svg>
