<svg xmlns="http://www.w3.org/2000/svg" viewBox="0 0 576 320">
    <path d="M 160 288 Q 125 288 96 271 L 96 271 Q 67 254 49 224 Q 32 194 32 160 Q 32 126 49 96 Q 67 66 96 49 Q 125 32 160 32 Q 195 32 224 49 Q 253 66 271 96 Q 288 126 288 160 Q 288 194 271 224 Q 253 254 224 271 Q 195 288 160 288 L 160 288 Z M 160 320 L 416 320 Q 484 318 529 273 Q 574 228 576 160 Q 574 92 529 47 Q 484 2 416 0 L 160 0 Q 92 2 47 47 Q 2 92 0 160 Q 2 228 47 273 Q 92 318 160 320 L 160 320 Z M 256 288 Q 286 266 303 233 L 303 233 Q 320 200 320 160 Q 320 120 303 87 Q 286 54 256 32 L 416 32 Q 470 33 507 69 Q 543 106 544 160 Q 543 214 507 251 Q 470 287 416 288 L 256 288 L 256 288 Z"/>
</svg>
