<svg xmlns="http://www.w3.org/2000/svg" viewBox="0 0 512 512">
  <path d="M 37.714285714285715 258.2857142857143 Q 36.57142857142857 257.14285714285717 36.57142857142857 256 Q 36.57142857142857 254.85714285714286 37.714285714285715 253.71428571428572 L 188.57142857142858 112 L 188.57142857142858 112 Q 190.85714285714286 109.71428571428571 193.14285714285714 109.71428571428571 Q 200 110.85714285714286 201.14285714285714 117.71428571428571 L 201.14285714285714 182.85714285714286 L 201.14285714285714 182.85714285714286 Q 202.28571428571428 200 219.42857142857142 201.14285714285714 L 356.57142857142856 201.14285714285714 L 356.57142857142856 201.14285714285714 Q 364.57142857142856 202.28571428571428 365.7142857142857 210.28571428571428 L 365.7142857142857 301.7142857142857 L 365.7142857142857 301.7142857142857 Q 364.57142857142856 309.7142857142857 356.57142857142856 310.85714285714283 L 219.42857142857142 310.85714285714283 L 219.42857142857142 310.85714285714283 Q 202.28571428571428 312 201.14285714285714 329.14285714285717 L 201.14285714285714 394.2857142857143 L 201.14285714285714 394.2857142857143 Q 200 401.14285714285717 193.14285714285714 402.2857142857143 Q 190.85714285714286 402.2857142857143 188.57142857142858 400 L 37.714285714285715 258.2857142857143 L 37.714285714285715 258.2857142857143 Z M 0 256 Q 0 273.14285714285717 12.571428571428571 284.57142857142856 L 163.42857142857142 427.42857142857144 L 163.42857142857142 427.42857142857144 Q 176 438.85714285714283 193.14285714285714 438.85714285714283 Q 212.57142857142858 438.85714285714283 225.14285714285714 426.2857142857143 Q 237.71428571428572 413.7142857142857 237.71428571428572 394.2857142857143 L 237.71428571428572 347.42857142857144 L 237.71428571428572 347.42857142857144 L 356.57142857142856 347.42857142857144 L 356.57142857142856 347.42857142857144 Q 376 347.42857142857144 388.57142857142856 333.7142857142857 Q 402.2857142857143 321.14285714285717 402.2857142857143 301.7142857142857 L 402.2857142857143 210.28571428571428 L 402.2857142857143 210.28571428571428 Q 402.2857142857143 190.85714285714286 388.57142857142856 178.28571428571428 Q 376 164.57142857142858 356.57142857142856 164.57142857142858 L 237.71428571428572 164.57142857142858 L 237.71428571428572 164.57142857142858 L 237.71428571428572 117.71428571428571 L 237.71428571428572 117.71428571428571 Q 237.71428571428572 98.28571428571429 225.14285714285714 85.71428571428571 Q 212.57142857142858 73.14285714285714 193.14285714285714 73.14285714285714 Q 176 73.14285714285714 163.42857142857142 85.71428571428571 L 12.571428571428571 227.42857142857142 L 12.571428571428571 227.42857142857142 Q 0 238.85714285714286 0 256 L 0 256 Z M 512 457.14285714285717 L 512 54.857142857142854 L 512 457.14285714285717 L 512 54.857142857142854 Q 510.85714285714283 37.714285714285715 493.7142857142857 36.57142857142857 Q 476.57142857142856 37.714285714285715 475.42857142857144 54.857142857142854 L 475.42857142857144 457.14285714285717 L 475.42857142857144 457.14285714285717 Q 476.57142857142856 474.2857142857143 493.7142857142857 475.42857142857144 Q 510.85714285714283 474.2857142857143 512 457.14285714285717 L 512 457.14285714285717 Z" />
</svg>