<svg xmlns="http://www.w3.org/2000/svg" viewBox="0 0 574 516">
    <path d="M 358 110 Q 376 58 427 39 Q 400 73 400 119 Q 401 168 429 203 Q 458 238 503 250 Q 487 255 469 256 Q 476 271 479 288 Q 531 282 566 247 Q 574 239 570 229 Q 564 219 553 220 Q 544 222 535 222 Q 491 220 462 192 Q 433 163 431 119 Q 432 90 446 67 Q 460 44 484 30 Q 494 24 492 13 Q 489 2 477 0 Q 471 0 465 0 Q 416 1 380 28 Q 343 55 327 99 Q 343 102 357 110 L 358 110 Z M 89 419 Q 75 412 67 424 L 27 488 Q 20 501 32 510 Q 45 516 54 505 L 94 441 Q 100 427 89 419 L 89 419 Z M 185 419 Q 171 412 163 424 L 123 488 Q 116 501 128 510 Q 141 516 150 505 L 190 441 Q 196 427 185 419 L 185 419 Z M 281 419 Q 267 412 259 424 L 219 488 Q 212 501 224 510 Q 237 516 246 505 L 286 441 Q 292 427 281 419 L 281 419 Z M 377 419 Q 363 412 355 424 L 315 488 Q 308 501 320 510 Q 333 516 342 505 L 382 441 Q 388 427 377 419 L 377 419 Z M 112 192 Q 113 165 131 147 L 131 147 Q 149 129 176 128 Q 198 128 215 141 Q 231 154 237 174 Q 240 183 250 185 Q 259 187 266 179 Q 280 161 304 160 Q 324 161 338 174 Q 351 188 352 208 Q 352 221 346 232 Q 341 240 346 248 Q 350 256 360 256 L 368 256 L 368 256 L 368 256 Q 388 257 402 270 Q 415 284 416 304 Q 415 324 402 338 Q 388 351 368 352 Q 368 352 367 352 Q 367 352 366 352 L 366 352 L 366 352 L 99 352 Q 99 352 99 352 Q 99 352 99 352 Q 98 352 98 352 Q 98 352 98 352 Q 98 352 97 352 Q 97 352 96 352 Q 69 351 51 333 Q 33 315 32 288 Q 33 261 51 243 Q 69 225 96 224 Q 96 224 97 224 Q 97 224 97 224 Q 105 224 110 218 Q 115 212 113 205 Q 112 199 112 192 L 112 192 Z M 176 96 Q 135 97 108 124 L 108 124 Q 81 151 80 192 L 80 193 Q 45 200 23 226 Q 1 252 0 288 Q 1 329 28 356 Q 55 383 96 384 Q 98 384 99 384 L 365 384 Q 367 384 368 384 Q 402 383 425 360 Q 447 338 448 304 Q 447 274 429 252 Q 411 231 382 225 Q 384 217 384 208 Q 383 174 361 151 Q 338 129 304 128 Q 278 128 258 142 Q 245 121 224 109 Q 202 96 176 96 L 176 96 Z"/>
</svg>
