<svg xmlns="http://www.w3.org/2000/svg" viewBox="0 0 448 440">
    <path d="M 448 424 Q 447 439 432 440 L 16 440 Q 1 439 0 424 Q 1 409 16 408 L 432 408 Q 447 409 448 424 L 448 424 Z M 392 312 Q 394 290 416 288 Q 438 290 440 312 Q 438 334 416 336 Q 394 334 392 312 L 392 312 Z M 56 312 Q 54 334 32 336 Q 10 334 8 312 Q 10 290 32 288 Q 54 290 56 312 L 56 312 Z M 200 312 Q 202 290 224 288 Q 246 290 248 312 Q 246 334 224 336 Q 202 334 200 312 L 200 312 Z M 440 120 Q 438 142 416 144 Q 394 142 392 120 Q 394 98 416 96 Q 438 98 440 120 L 440 120 Z M 8 120 Q 10 98 32 96 Q 54 98 56 120 Q 54 142 32 144 Q 10 142 8 120 L 8 120 Z M 248 120 Q 246 142 224 144 Q 202 142 200 120 Q 202 98 224 96 Q 246 98 248 120 L 248 120 Z M 392 216 Q 394 194 416 192 Q 438 194 440 216 Q 438 238 416 240 Q 394 238 392 216 L 392 216 Z M 56 216 Q 54 238 32 240 Q 10 238 8 216 Q 10 194 32 192 Q 54 194 56 216 L 56 216 Z M 200 216 Q 202 194 224 192 Q 246 194 248 216 Q 246 238 224 240 Q 202 238 200 216 L 200 216 Z M 440 24 Q 438 46 416 48 Q 394 46 392 24 Q 394 2 416 0 Q 438 2 440 24 L 440 24 Z M 8 24 Q 10 2 32 0 Q 54 2 56 24 Q 54 46 32 48 Q 10 46 8 24 L 8 24 Z M 248 24 Q 246 46 224 48 Q 202 46 200 24 Q 202 2 224 0 Q 246 2 248 24 L 248 24 Z M 296 216 Q 298 194 320 192 Q 342 194 344 216 Q 342 238 320 240 Q 298 238 296 216 L 296 216 Z M 344 24 Q 342 46 320 48 Q 298 46 296 24 Q 298 2 320 0 Q 342 2 344 24 L 344 24 Z M 104 24 Q 106 2 128 0 Q 150 2 152 24 Q 150 46 128 48 Q 106 46 104 24 L 104 24 Z M 152 216 Q 150 238 128 240 Q 106 238 104 216 Q 106 194 128 192 Q 150 194 152 216 L 152 216 Z"/>
</svg>
