<svg xmlns="http://www.w3.org/2000/svg" viewBox="0 0 512 512">
  <path d="M 171 160 L 342 160 L 171 160 L 342 160 L 349 214 L 349 214 Q 353 257 327 288 Q 300 319 256 320 Q 212 319 185 288 Q 159 257 163 214 L 171 160 L 171 160 Z M 175 128 L 188 32 L 175 128 L 188 32 L 324 32 L 324 32 L 337 128 L 337 128 L 175 128 L 175 128 Z M 156 28 L 132 209 L 156 28 L 132 209 Q 126 263 157 303 Q 188 343 240 351 L 240 480 L 240 480 L 176 480 L 176 480 Q 161 481 160 496 Q 161 511 176 512 L 256 512 L 336 512 Q 351 511 352 496 Q 351 481 336 480 L 272 480 L 272 480 L 272 351 L 272 351 Q 324 343 355 303 Q 386 263 381 209 L 356 28 L 356 28 Q 350 2 324 0 L 188 0 L 188 0 Q 162 2 156 28 L 156 28 Z" />
</svg>