<svg xmlns="http://www.w3.org/2000/svg" viewBox="0 0 512 512">
  <path d="M 256 480 Q 193 479 143 449 L 143 449 L 143 449 Q 92 420 63 369 L 63 369 L 63 369 Q 33 319 32 256 Q 32 238 35 221 L 38 228 L 38 228 Q 53 261 87 272 L 150 292 L 150 292 Q 175 301 176 327 L 176 342 L 176 342 Q 177 369 201 382 Q 208 386 208 394 L 208 417 L 208 417 Q 209 437 222 450 Q 235 464 255 464 Q 272 464 285 454 Q 297 444 301 428 L 306 411 L 306 411 Q 310 395 324 386 L 336 380 L 336 380 Q 367 361 368 324 L 368 316 L 368 316 Q 368 290 349 271 L 345 267 L 345 267 Q 326 248 300 248 L 251 248 L 251 248 Q 244 248 237 245 L 191 222 L 191 222 Q 188 220 186 217 L 186 216 L 186 216 Q 183 208 190 203 Q 193 201 197 203 L 221 211 L 221 211 Q 246 217 261 197 Q 274 175 259 155 L 241 133 L 241 133 Q 238 128 241 123 L 262 100 L 262 100 Q 282 74 267 45 L 260 32 L 260 32 Q 318 34 366 61 Q 414 88 444 135 L 406 150 L 406 150 Q 388 158 380 174 Q 373 191 378 210 L 395 260 L 395 260 Q 404 285 429 292 L 475 303 L 475 303 Q 457 381 398 430 Q 338 478 256 480 L 256 480 Z M 48 173 Q 71 117 117 80 L 117 80 L 117 80 Q 163 44 224 34 L 239 60 L 239 60 Q 244 70 237 79 L 217 102 L 217 102 Q 208 114 207 128 Q 207 142 217 154 L 235 175 L 235 175 Q 236 177 235 179 Q 233 181 231 180 L 207 172 L 207 172 Q 191 167 176 174 Q 160 183 155 198 Q 150 214 157 230 L 158 231 L 158 231 Q 164 244 177 250 L 223 273 L 223 273 Q 236 280 251 280 L 300 280 L 300 280 Q 313 280 323 289 L 327 293 L 327 293 Q 336 303 336 316 L 336 324 L 336 324 Q 335 342 320 352 L 308 359 L 308 359 Q 283 374 275 403 L 270 420 L 270 420 Q 267 431 255 432 Q 241 431 240 417 L 240 394 L 240 394 Q 239 367 215 354 Q 208 350 208 342 L 208 327 L 208 327 Q 208 304 195 286 Q 182 268 159 261 L 96 241 L 96 241 Q 76 235 67 215 L 48 173 L 48 173 Z M 480 256 Q 480 264 480 271 L 437 261 L 437 261 Q 429 258 426 250 L 409 200 L 409 200 Q 405 186 418 180 L 460 163 L 460 163 Q 480 206 480 256 L 480 256 Z M 256 512 Q 326 511 384 478 L 384 478 L 384 478 Q 442 444 478 384 Q 512 323 512 256 Q 512 189 478 128 Q 442 68 384 34 Q 326 1 256 0 Q 186 1 128 34 Q 70 68 34 128 Q 0 189 0 256 Q 0 323 34 384 Q 70 444 128 478 Q 186 511 256 512 L 256 512 Z" />
</svg>