<svg xmlns="http://www.w3.org/2000/svg" viewBox="0 0 512 512">
  <path d="M 412 417 Q 401 374 367 347 L 367 347 L 367 347 Q 334 321 288 320 L 224 320 L 224 320 Q 178 321 145 347 Q 111 374 100 417 Q 68 386 50 345 Q 32 304 32 256 Q 33 193 63 143 Q 92 92 143 63 Q 193 33 256 32 Q 319 33 369 63 Q 420 92 449 143 Q 479 193 480 256 Q 480 304 462 345 Q 444 386 412 417 L 412 417 Z M 384 440 Q 328 479 256 480 Q 184 479 128 440 Q 132 402 159 378 Q 185 353 224 352 L 288 352 L 288 352 Q 327 353 353 378 Q 380 402 384 440 L 384 440 Z M 256 512 Q 326 511 384 478 L 384 478 L 384 478 Q 442 444 478 384 Q 512 323 512 256 Q 512 189 478 128 Q 442 68 384 34 Q 326 1 256 0 Q 186 1 128 34 Q 70 68 34 128 Q 0 189 0 256 Q 0 323 34 384 Q 70 444 128 478 Q 186 511 256 512 L 256 512 Z M 256 256 Q 229 255 214 232 Q 202 208 214 184 Q 229 161 256 160 Q 283 161 298 184 Q 310 208 298 232 Q 283 255 256 256 L 256 256 Z M 176 208 Q 177 253 216 277 Q 256 299 296 277 Q 335 253 336 208 Q 335 163 296 139 Q 256 117 216 139 Q 177 163 176 208 L 176 208 Z" />
</svg>