<svg xmlns="http://www.w3.org/2000/svg" viewBox="0 0 512 512">
  <path d="M 160.91429 293.48572 L 160.91429 249.6 L 160.91429 293.48572 L 160.91429 249.6 Q 160.91429 241.37143 167.31429 237.71428 L 192 219.42857 L 192 219.42857 L 314.51428 341.94287 L 314.51428 341.94287 L 296.22858 366.62857 L 296.22858 366.62857 Q 291.65714 373.02856 284.34286 373.02856 L 240.45714 373.02856 L 240.45714 373.02856 Q 228.57143 373.02856 220.34285 382.17142 L 180.11429 421.48572 L 180.11429 421.48572 Q 174.62857 426.05713 170.05714 421.48572 L 112.457146 363.8857 L 112.457146 363.8857 Q 107.88571 359.3143 112.457146 353.82858 L 152.68571 313.6 L 152.68571 313.6 Q 160.91429 305.37143 160.91429 293.48572 L 160.91429 293.48572 Z M 479.08572 113.37143 L 331.8857 318.17142 L 479.08572 113.37143 L 331.8857 318.17142 L 215.77142 202.05714 L 215.77142 202.05714 L 421.48572 54.857143 L 421.48572 54.857143 Q 426.05713 51.2 433.37143 51.2 Q 441.6 51.2 447.08572 57.6 L 477.25714 86.85714 L 477.25714 86.85714 Q 482.74286 92.34286 482.74286 101.48572 Q 482.74286 107.88571 479.08572 113.37143 L 479.08572 113.37143 Z M 240.45714 402.2857 L 284.34286 402.2857 L 240.45714 402.2857 L 284.34286 402.2857 Q 307.2 401.37143 320 384 L 502.85715 129.82857 L 502.85715 129.82857 Q 512 117.02857 512 101.48572 Q 512 80.457146 497.37143 65.828575 L 468.1143 36.57143 L 468.1143 36.57143 Q 453.48572 21.942858 433.37143 21.942858 Q 416.91428 21.942858 404.1143 31.085714 L 149.94286 213.94286 L 149.94286 213.94286 Q 132.57143 226.74286 131.65715 249.6 L 131.65715 293.48572 L 131.65715 293.48572 L 91.42857 332.8 L 91.42857 332.8 Q 75.88571 350.17142 83.2 371.2 L 6.4 448 L 6.4 448 Q 0 454.4 0 463.54285 L 0 468.1143 L 0 468.1143 Q 1.8285714 488.22858 21.942858 490.05713 L 114.28571 490.05713 L 114.28571 490.05713 Q 123.42857 490.05713 129.82857 483.65714 L 162.74286 450.74286 L 162.74286 450.74286 Q 183.77142 458.05713 201.14285 442.51428 L 240.45714 402.2857 L 240.45714 402.2857 Z M 138.97144 432.45715 L 110.62857 460.8 L 138.97144 432.45715 L 110.62857 460.8 L 35.657143 460.8 L 35.657143 460.8 L 101.48572 394.97144 L 101.48572 394.97144 L 138.97144 432.45715 L 138.97144 432.45715 Z" />
</svg>