<svg xmlns="http://www.w3.org/2000/svg" viewBox="0 0 650 521">
    <path d="M 515 100 L 533 100 Q 548 99 549 84 Q 548 69 533 68 L 517 68 L 485 68 L 438 68 L 412 27 Q 397 5 371 4 L 279 4 Q 253 5 238 27 L 212 68 L 185 68 L 226 100 L 483 100 L 469 292 L 499 316 L 515 100 L 515 100 Z M 458 447 L 457 454 Q 456 467 447 475 Q 438 484 425 484 L 225 484 Q 212 484 203 475 Q 194 467 193 454 L 176 224 L 142 197 L 161 457 Q 163 482 181 499 Q 199 515 225 516 L 425 516 Q 448 516 464 503 Q 481 490 487 469 L 458 446 L 458 447 Z M 279 36 L 371 36 Q 380 36 385 44 L 400 68 L 250 68 L 265 44 Q 270 36 279 36 L 279 36 Z M 31 7 Q 19 0 8 10 Q 0 22 11 33 L 619 513 Q 631 521 642 510 Q 650 498 639 488 L 31 7 L 31 7 Z"/>
</svg>
