<svg xmlns="http://www.w3.org/2000/svg" viewBox="0 0 512 512">
  <path d="M 56.88889 113.77778 Q 44.444443 113.77778 36.444443 121.77778 L 36.444443 121.77778 L 36.444443 121.77778 Q 28.444445 129.77777 28.444445 142.22223 L 28.444445 369.77777 L 28.444445 369.77777 Q 28.444445 382.22223 36.444443 390.22223 Q 44.444443 398.22223 56.88889 398.22223 L 455.1111 398.22223 L 455.1111 398.22223 Q 467.55554 398.22223 475.55554 390.22223 Q 483.55554 382.22223 483.55554 369.77777 L 483.55554 142.22223 L 483.55554 142.22223 Q 483.55554 129.77777 475.55554 121.77778 Q 467.55554 113.77778 455.1111 113.77778 L 56.88889 113.77778 L 56.88889 113.77778 Z M 0 142.22223 Q 0.8888889 118.22222 16.88889 102.22222 L 16.88889 102.22222 L 16.88889 102.22222 Q 32.88889 86.22222 56.88889 85.333336 L 455.1111 85.333336 L 455.1111 85.333336 Q 479.1111 86.22222 495.1111 102.22222 Q 511.1111 118.22222 512 142.22223 L 512 369.77777 L 512 369.77777 Q 511.1111 393.77777 495.1111 409.77777 Q 479.1111 425.77777 455.1111 426.66666 L 56.88889 426.66666 L 56.88889 426.66666 Q 32.88889 425.77777 16.88889 409.77777 Q 0.8888889 393.77777 0 369.77777 L 0 142.22223 L 0 142.22223 Z M 241.77777 284.44446 L 412.44446 284.44446 L 241.77777 284.44446 L 412.44446 284.44446 Q 425.77777 285.33334 426.66666 298.66666 Q 425.77777 312 412.44446 312.8889 L 241.77777 312.8889 L 241.77777 312.8889 Q 228.44444 312 227.55556 298.66666 Q 228.44444 285.33334 241.77777 284.44446 L 241.77777 284.44446 Z M 227.55556 213.33333 Q 228.44444 200 241.77777 199.11111 L 412.44446 199.11111 L 412.44446 199.11111 Q 425.77777 200 426.66666 213.33333 Q 425.77777 226.66667 412.44446 227.55556 L 241.77777 227.55556 L 241.77777 227.55556 Q 228.44444 226.66667 227.55556 213.33333 L 227.55556 213.33333 Z M 142.22223 163.55556 L 142.22223 178.66667 L 142.22223 163.55556 L 142.22223 178.66667 Q 153.77777 180.44444 163.55556 183.11111 Q 176 187.55556 173.33333 200.88889 Q 168.88889 213.33333 156.44444 210.66667 Q 141.33333 206.22223 128 206.22223 Q 115.55556 206.22223 106.666664 211.55556 Q 99.55556 215.11111 99.55556 222.22223 Q 98.666664 226.66667 105.77778 231.11111 Q 115.55556 236.44444 132.44444 240.88889 L 132.44444 240.88889 L 132.44444 240.88889 L 132.44444 240.88889 L 132.44444 240.88889 L 132.44444 240.88889 L 132.44444 240.88889 Q 132.44444 240.88889 132.44444 240.88889 Q 148.44444 245.33333 164.44444 254.22223 Q 183.11111 264 184.88889 288 Q 184 313.77777 164.44444 325.33334 Q 153.77777 331.55554 142.22223 333.33334 L 142.22223 348.44446 L 142.22223 348.44446 Q 141.33333 361.77777 128 362.66666 Q 114.666664 361.77777 113.77778 348.44446 L 113.77778 332.44446 L 113.77778 332.44446 Q 98.666664 329.77777 86.22222 324.44446 L 86.22222 324.44446 L 86.22222 324.44446 Q 83.55556 323.55554 80.888885 322.66666 Q 68.44444 317.33334 72 304.8889 Q 77.333336 293.33334 89.77778 296 Q 93.333336 296.8889 96 297.77777 Q 96 297.77777 96 297.77777 L 96 297.77777 L 96 297.77777 L 96 297.77777 L 96 297.77777 L 96 297.77777 L 96 297.77777 Q 96.888885 297.77777 96.888885 298.66666 Q 113.77778 304.8889 128 305.77777 Q 141.33333 305.77777 149.33333 301.33334 Q 156.44444 296.8889 156.44444 288.8889 Q 156.44444 282.66666 149.33333 278.22223 Q 140.44444 272.8889 123.55556 268.44446 L 122.666664 267.55554 L 122.666664 267.55554 L 122.666664 267.55554 L 122.666664 267.55554 L 122.666664 267.55554 L 122.666664 267.55554 Q 106.666664 264 91.55556 256 Q 73.77778 246.22223 71.111115 222.22223 Q 72.888885 196.44444 92.44444 186.66667 Q 102.22222 180.44444 113.77778 178.66667 L 113.77778 163.55556 L 113.77778 163.55556 Q 114.666664 150.22223 128 149.33333 Q 141.33333 150.22223 142.22223 163.55556 L 142.22223 163.55556 Z" />
</svg>