<svg xmlns="http://www.w3.org/2000/svg" viewBox="0 0 512 512">
  <path d="M 223.85116279069769 57.55038759689923 Q 232.5829457364341 51.2 241.31472868217054 57.55038759689923 L 411.1875968992248 207.5782945736434 L 411.1875968992248 207.5782945736434 Q 404.0434108527132 206.784496124031 397.69302325581396 206.784496124031 Q 385.7860465116279 206.784496124031 373.8790697674419 209.16589147286822 L 232.5829457364341 83.74573643410852 L 232.5829457364341 83.74573643410852 L 80.17364341085272 218.69147286821706 L 80.17364341085272 218.69147286821706 L 80.17364341085272 397.29612403100776 L 80.17364341085272 397.29612403100776 Q 80.96744186046512 413.1720930232558 91.28682170542636 424.2852713178295 Q 102.4 434.6046511627907 118.27596899224807 435.3984496124031 L 169.07906976744187 435.3984496124031 L 169.07906976744187 435.3984496124031 L 169.07906976744187 308.3906976744186 L 169.07906976744187 308.3906976744186 Q 169.07906976744187 297.277519379845 176.2232558139535 290.1333333333333 Q 183.3674418604651 282.9891472868217 194.48062015503876 282.9891472868217 L 270.68527131782946 282.9891472868217 L 270.68527131782946 282.9891472868217 Q 272.2728682170543 282.9891472868217 273.06666666666666 282.9891472868217 Q 266.71627906976744 294.89612403100773 263.54108527131785 308.3906976744186 L 194.48062015503876 308.3906976744186 L 194.48062015503876 308.3906976744186 L 194.48062015503876 435.3984496124031 L 194.48062015503876 435.3984496124031 L 207.1813953488372 435.3984496124031 L 289.73643410852713 435.3984496124031 Q 301.6434108527132 449.6868217054264 317.51937984496124 460.8 L 118.27596899224807 460.8 L 118.27596899224807 460.8 Q 91.28682170542636 460.0062015503876 73.02945736434108 442.5426356589147 Q 55.565891472868216 424.2852713178295 54.77209302325581 397.29612403100776 L 54.77209302325581 240.91782945736435 L 54.77209302325581 240.91782945736435 L 25.4015503875969 267.11317829457363 L 25.4015503875969 267.11317829457363 Q 15.875968992248062 274.2573643410853 7.144186046511628 266.31937984496125 Q 0 256.7937984496124 7.937984496124031 248.06201550387595 L 223.85116279069769 57.55038759689923 L 223.85116279069769 57.55038759689923 Z M 397.69302325581396 435.3984496124031 Q 421.50697674418603 435.3984496124031 442.1457364341085 423.49147286821704 L 442.1457364341085 423.49147286821704 L 442.1457364341085 423.49147286821704 Q 462.784496124031 411.58449612403103 474.69147286821703 390.94573643410854 Q 486.5984496124031 370.30697674418604 486.5984496124031 346.49302325581397 Q 486.5984496124031 322.6790697674419 474.69147286821703 302.0403100775194 Q 462.784496124031 281.4015503875969 442.1457364341085 269.49457364341083 Q 421.50697674418603 257.5875968992248 397.69302325581396 257.5875968992248 Q 373.8790697674419 257.5875968992248 353.2403100775194 269.49457364341083 Q 332.6015503875969 281.4015503875969 320.6945736434109 302.0403100775194 Q 308.7875968992248 322.6790697674419 308.7875968992248 346.49302325581397 Q 308.7875968992248 370.30697674418604 320.6945736434109 390.94573643410854 Q 332.6015503875969 411.58449612403103 353.2403100775194 423.49147286821704 Q 373.8790697674419 435.3984496124031 397.69302325581396 435.3984496124031 L 397.69302325581396 435.3984496124031 Z M 397.69302325581396 232.1860465116279 Q 428.6511627906977 232.1860465116279 454.846511627907 247.26821705426357 L 454.846511627907 247.26821705426357 L 454.846511627907 247.26821705426357 Q 481.04186046511626 262.3503875968992 496.91782945736435 289.33953488372094 Q 512 316.32868217054266 512 346.49302325581397 Q 512 376.65736434108527 496.91782945736435 403.646511627907 Q 481.04186046511626 430.6356589147287 454.846511627907 445.71782945736436 Q 428.6511627906977 460.8 397.69302325581396 460.8 Q 366.7348837209302 460.8 340.53953488372093 445.71782945736436 Q 314.34418604651165 430.6356589147287 298.46821705426356 403.646511627907 Q 283.3860465116279 376.65736434108527 283.3860465116279 346.49302325581397 Q 283.3860465116279 316.32868217054266 298.46821705426356 289.33953488372094 Q 314.34418604651165 262.3503875968992 340.53953488372093 247.26821705426357 Q 366.7348837209302 232.1860465116279 397.69302325581396 232.1860465116279 L 397.69302325581396 232.1860465116279 Z M 450.87751937984495 312.35968992248064 Q 458.815503875969 321.09147286821707 450.87751937984495 329.8232558139535 L 393.72403100775193 386.9767441860465 L 393.72403100775193 386.9767441860465 Q 384.9922480620155 394.91472868217056 376.2604651162791 386.9767441860465 L 344.50852713178296 355.2248062015504 L 344.50852713178296 355.2248062015504 Q 336.5705426356589 346.49302325581397 344.50852713178296 337.76124031007754 Q 353.2403100775194 329.8232558139535 361.9720930232558 337.76124031007754 L 384.9922480620155 359.9875968992248 L 384.9922480620155 359.9875968992248 L 433.4139534883721 312.35968992248064 L 433.4139534883721 312.35968992248064 Q 442.1457364341085 304.4217054263566 450.87751937984495 312.35968992248064 L 450.87751937984495 312.35968992248064 Z" />
</svg>