<svg xmlns="http://www.w3.org/2000/svg" viewBox="0 0 512 512">
  <path d="M 45.36708860759494 100.45569620253164 L 369.4177215189873 100.45569620253164 L 45.36708860759494 100.45569620253164 L 369.4177215189873 100.45569620253164 Q 387.24050632911394 102.07594936708861 388.8607594936709 119.89873417721519 L 388.8607594936709 333.7721518987342 L 388.8607594936709 333.7721518987342 L 229.26582278481013 333.7721518987342 L 229.26582278481013 333.7721518987342 Q 220.35443037974684 311.0886075949367 200.91139240506328 296.50632911392404 Q 181.46835443037975 282.73417721518985 155.54430379746836 281.9240506329114 Q 129.62025316455697 282.73417721518985 110.17721518987342 296.50632911392404 Q 90.73417721518987 311.0886075949367 82.63291139240506 333.7721518987342 L 45.36708860759494 333.7721518987342 L 45.36708860759494 333.7721518987342 Q 27.544303797468356 332.1518987341772 25.924050632911392 314.32911392405066 L 25.924050632911392 119.89873417721519 L 25.924050632911392 119.89873417721519 Q 27.544303797468356 102.07594936708861 45.36708860759494 100.45569620253164 L 45.36708860759494 100.45569620253164 Z M 233.31645569620252 359.69620253164555 L 499.0379746835443 359.69620253164555 L 233.31645569620252 359.69620253164555 L 499.0379746835443 359.69620253164555 Q 511.1898734177215 358.88607594936707 512 346.73417721518985 Q 511.1898734177215 334.5822784810127 499.0379746835443 333.7721518987342 L 414.7848101265823 333.7721518987342 L 414.7848101265823 333.7721518987342 L 414.7848101265823 119.89873417721519 L 414.7848101265823 119.89873417721519 Q 413.9746835443038 100.45569620253164 401.82278481012656 87.49367088607595 Q 388.8607594936709 75.34177215189874 369.4177215189873 74.53164556962025 L 45.36708860759494 74.53164556962025 L 45.36708860759494 74.53164556962025 Q 25.924050632911392 75.34177215189874 12.962025316455696 87.49367088607595 Q 0.810126582278481 100.45569620253164 0 119.89873417721519 L 0 314.32911392405066 L 0 314.32911392405066 Q 0.810126582278481 333.7721518987342 12.962025316455696 346.73417721518985 Q 25.924050632911392 358.88607594936707 45.36708860759494 359.69620253164555 L 77.77215189873418 359.69620253164555 L 77.77215189873418 359.69620253164555 Q 78.58227848101266 392.9113924050633 100.45569620253164 414.7848101265823 Q 122.32911392405063 436.65822784810126 155.54430379746836 437.46835443037975 Q 188.7594936708861 436.65822784810126 210.63291139240508 414.7848101265823 Q 232.50632911392404 392.9113924050633 233.31645569620252 359.69620253164555 L 233.31645569620252 359.69620253164555 Z M 207.39240506329114 359.69620253164555 Q 206.58227848101265 388.8607594936709 181.46835443037975 404.253164556962 Q 155.54430379746836 418.8354430379747 129.62025316455697 404.253164556962 Q 104.50632911392405 388.8607594936709 103.69620253164557 359.69620253164555 Q 104.50632911392405 330.53164556962025 129.62025316455697 315.1392405063291 Q 155.54430379746836 300.55696202531647 181.46835443037975 315.1392405063291 Q 206.58227848101265 330.53164556962025 207.39240506329114 359.69620253164555 L 207.39240506329114 359.69620253164555 Z M 90.73417721518987 126.37974683544304 Q 78.58227848101266 127.18987341772151 77.77215189873418 139.34177215189874 L 77.77215189873418 243.0379746835443 L 77.77215189873418 243.0379746835443 Q 78.58227848101266 255.18987341772151 90.73417721518987 256 Q 102.88607594936708 255.18987341772151 103.69620253164557 243.0379746835443 L 103.69620253164557 139.34177215189874 L 103.69620253164557 139.34177215189874 Q 102.88607594936708 127.18987341772151 90.73417721518987 126.37974683544304 L 90.73417721518987 126.37974683544304 Z M 168.50632911392404 126.37974683544304 Q 156.35443037974684 127.18987341772151 155.54430379746836 139.34177215189874 L 155.54430379746836 243.0379746835443 L 155.54430379746836 243.0379746835443 Q 156.35443037974684 255.18987341772151 168.50632911392404 256 Q 180.65822784810126 255.18987341772151 181.46835443037975 243.0379746835443 L 181.46835443037975 139.34177215189874 L 181.46835443037975 139.34177215189874 Q 180.65822784810126 127.18987341772151 168.50632911392404 126.37974683544304 L 168.50632911392404 126.37974683544304 Z M 246.27848101265823 126.37974683544304 Q 234.126582278481 127.18987341772151 233.31645569620252 139.34177215189874 L 233.31645569620252 268.9620253164557 L 233.31645569620252 268.9620253164557 Q 234.126582278481 281.11392405063293 246.27848101265823 281.9240506329114 Q 258.43037974683546 281.11392405063293 259.24050632911394 268.9620253164557 L 259.24050632911394 139.34177215189874 L 259.24050632911394 139.34177215189874 Q 258.43037974683546 127.18987341772151 246.27848101265823 126.37974683544304 L 246.27848101265823 126.37974683544304 Z M 324.0506329113924 126.37974683544304 Q 311.8987341772152 127.18987341772151 311.0886075949367 139.34177215189874 L 311.0886075949367 268.9620253164557 L 311.0886075949367 268.9620253164557 Q 311.8987341772152 281.11392405063293 324.0506329113924 281.9240506329114 Q 336.2025316455696 281.11392405063293 337.0126582278481 268.9620253164557 L 337.0126582278481 139.34177215189874 L 337.0126582278481 139.34177215189874 Q 336.2025316455696 127.18987341772151 324.0506329113924 126.37974683544304 L 324.0506329113924 126.37974683544304 Z" />
</svg>