<svg xmlns="http://www.w3.org/2000/svg" viewBox="0 0 512 512">
  <path d="M 320 64 Q 361 65 388 92 L 388 92 L 388 92 Q 415 119 416 160 L 416 198 L 416 198 Q 431 192 448 192 L 448 160 L 448 160 Q 447 106 411 69 Q 374 33 320 32 L 192 32 L 192 32 Q 138 33 101 69 Q 65 106 64 160 L 64 192 L 64 192 Q 81 192 96 198 L 96 160 L 96 160 Q 97 119 124 92 Q 151 65 192 64 L 320 64 L 320 64 Z M 96 320 L 96 416 L 96 320 L 96 416 L 96 432 L 96 432 Q 95 447 80 448 L 48 448 L 48 448 Q 33 447 32 432 L 32 288 L 32 288 Q 32 274 41 265 Q 50 256 64 256 Q 78 256 87 265 Q 96 274 96 288 L 96 320 L 96 320 Z M 80 480 Q 113 478 125 448 L 387 448 L 387 448 Q 399 478 432 480 L 464 480 L 464 480 Q 484 479 498 466 Q 511 452 512 432 L 512 288 L 512 288 Q 511 261 493 243 Q 475 225 448 224 Q 421 225 403 243 Q 385 261 384 288 L 128 288 L 128 288 Q 127 261 109 243 Q 91 225 64 224 Q 37 225 19 243 Q 1 261 0 288 L 0 432 L 0 432 Q 1 452 14 466 Q 28 479 48 480 L 80 480 L 80 480 Z M 128 416 L 128 320 L 128 416 L 128 320 L 384 320 L 384 320 L 384 416 L 384 416 L 128 416 L 128 416 Z M 416 432 L 416 416 L 416 432 L 416 416 L 416 320 L 416 320 L 416 288 L 416 288 Q 416 274 425 265 Q 434 256 448 256 Q 462 256 471 265 Q 480 274 480 288 L 480 432 L 480 432 Q 479 447 464 448 L 432 448 L 432 448 Q 417 447 416 432 L 416 432 Z" />
</svg>