<svg xmlns="http://www.w3.org/2000/svg" viewBox="0 0 416 512">
    <path d="M 144 32 L 272 32 L 272 158 Q 273 186 296 200 Q 336 223 360 263 Q 383 303 384 352 Q 382 425 335 474 Q 330 479 318 480 L 98 480 Q 86 479 81 474 Q 34 425 32 352 Q 33 303 56 263 Q 80 223 120 200 Q 143 186 144 158 L 144 32 L 144 32 Z M 304 158 L 304 32 L 320 32 Q 335 31 336 16 Q 335 1 320 0 L 288 0 L 128 0 L 96 0 Q 81 1 80 16 Q 81 31 96 32 L 112 32 L 112 158 Q 112 167 104 172 Q 56 200 29 247 Q 1 294 0 352 Q 2 438 58 496 Q 75 512 98 512 L 318 512 Q 341 512 358 496 Q 414 438 416 352 Q 415 294 387 247 Q 360 200 313 172 Q 304 167 304 158 L 304 158 Z M 112 312 Q 113 284 139 262 L 139 262 Q 165 241 208 240 Q 251 241 277 262 Q 303 284 304 312 Q 303 344 271 366 Q 257 375 256 394 L 256 416 L 160 416 L 160 394 Q 159 375 145 366 Q 113 344 112 312 L 112 312 Z M 208 208 Q 156 209 119 237 L 119 237 Q 82 266 80 312 Q 83 364 127 393 Q 128 393 128 394 Q 128 394 128 394 Q 128 394 128 394 L 128 416 Q 128 430 137 439 Q 146 448 160 448 L 256 448 Q 270 448 279 439 Q 288 430 288 416 L 288 394 Q 288 394 288 394 Q 288 393 289 393 Q 333 364 336 312 Q 334 266 297 237 Q 260 209 208 208 L 208 208 Z M 272 312 Q 270 290 248 288 Q 226 290 224 312 Q 226 334 248 336 Q 270 334 272 312 L 272 312 Z M 168 336 Q 190 334 192 312 Q 190 290 168 288 Q 146 290 144 312 Q 146 334 168 336 L 168 336 Z"/>
</svg>
