<svg xmlns="http://www.w3.org/2000/svg" viewBox="0 0 448 448">
    <path d="M 64 32 Q 50 32 41 41 L 41 41 Q 32 50 32 64 L 32 384 Q 32 398 41 407 Q 50 416 64 416 L 384 416 Q 398 416 407 407 Q 416 398 416 384 L 416 64 Q 416 50 407 41 Q 398 32 384 32 L 64 32 L 64 32 Z M 0 64 Q 1 37 19 19 L 19 19 Q 37 1 64 0 L 384 0 Q 411 1 429 19 Q 447 37 448 64 L 448 384 Q 447 411 429 429 Q 411 447 384 448 L 64 448 Q 37 447 19 429 Q 1 411 0 384 L 0 64 L 0 64 Z M 128 224 Q 129 265 156 292 L 156 292 Q 183 319 224 320 Q 260 319 286 297 Q 312 275 319 240 L 256 240 Q 241 239 240 224 Q 241 209 256 208 L 336 208 Q 351 209 352 224 Q 351 278 315 315 Q 278 351 224 352 Q 170 351 133 315 Q 97 278 96 224 Q 97 170 133 133 Q 170 97 224 96 Q 274 97 309 129 Q 319 139 311 151 Q 300 161 288 153 Q 262 129 224 128 Q 183 129 156 156 Q 129 183 128 224 L 128 224 Z"/>
</svg>
