<svg xmlns="http://www.w3.org/2000/svg" viewBox="0 0 640 512">
    <path d="M 160 0 Q 150 0 145 8 L 118 59 L 62 43 Q 53 40 47 47 Q 40 54 43 63 L 59 118 L 8 146 Q 0 150 0 160 Q 0 169 8 174 L 59 201 L 43 257 Q 40 266 47 273 Q 53 279 62 277 L 118 260 L 145 311 Q 150 319 160 319 Q 169 319 174 311 L 201 260 L 257 277 Q 266 279 273 273 Q 279 266 277 257 L 260 201 L 311 174 Q 319 169 319 160 Q 319 150 311 146 L 260 118 L 277 63 Q 279 54 273 47 Q 266 40 257 43 L 201 59 L 174 8 Q 169 0 160 0 L 160 0 Z M 160 50 L 179 86 Q 186 97 198 94 L 237 82 L 226 121 Q 223 134 233 140 L 270 160 L 233 179 Q 223 186 226 198 L 237 238 L 198 226 Q 186 223 179 233 L 159 270 L 140 233 Q 133 223 121 226 L 82 237 L 94 198 Q 96 186 86 179 L 49 160 L 86 140 Q 96 134 93 121 L 82 82 L 121 94 Q 133 96 140 86 L 160 50 L 160 50 Z M 192 161 Q 192 142 177 132 Q 160 123 144 132 Q 128 142 128 161 Q 128 180 144 190 Q 160 199 177 190 Q 192 180 192 161 L 192 161 Z M 496 161 Q 496 147 505 138 L 505 138 Q 514 129 528 129 Q 541 129 550 138 Q 559 147 560 161 L 560 211 Q 542 214 530 227 Q 512 245 512 275 Q 513 297 528 320 Q 543 343 565 364 Q 576 373 587 364 Q 609 343 623 320 Q 638 297 640 275 Q 640 245 622 227 Q 609 214 592 210 L 592 161 Q 591 134 573 116 Q 555 98 528 97 Q 501 98 483 116 Q 465 134 464 161 L 464 205 Q 447 193 424 193 Q 394 193 373 214 Q 353 234 352 265 L 352 274 Q 335 278 322 290 Q 304 309 304 338 Q 306 361 321 384 Q 336 407 357 428 Q 368 437 379 428 Q 401 407 416 384 Q 431 361 432 338 Q 432 309 414 290 Q 402 278 384 274 L 384 265 Q 385 248 396 236 Q 407 225 424 225 Q 441 225 453 236 Q 464 248 464 265 L 464 280 L 464 480 L 16 480 Q 2 482 0 496 Q 2 511 16 512 L 480 512 L 624 512 Q 638 511 640 496 Q 638 482 624 480 L 496 480 L 496 281 L 496 265 L 496 161 L 496 161 Z M 368 305 Q 384 305 391 313 Q 399 320 400 339 Q 400 346 388 367 Q 380 380 368 394 Q 356 380 348 367 Q 336 347 336 339 Q 337 320 345 313 Q 352 305 368 305 L 368 305 Z M 596 303 Q 588 316 576 330 Q 564 316 555 303 Q 543 283 544 275 Q 544 256 553 249 Q 560 241 576 241 Q 592 241 599 249 Q 607 256 608 275 Q 608 282 596 303 L 596 303 Z"/>
</svg>
