<svg xmlns="http://www.w3.org/2000/svg" viewBox="0 0 512 512">
  <path d="M 153 56 Q 155 34 177 32 Q 199 34 201 56 L 201 64 L 201 64 L 153 64 L 153 64 L 153 56 L 153 56 Z M 121 64 L 57 64 L 121 64 L 57 64 Q 47 64 43 73 Q 39 82 45 90 L 69 120 L 69 120 L 45 150 L 45 150 Q 39 158 43 167 Q 47 176 57 176 L 121 176 L 121 176 L 121 256 L 121 256 Q 90 279 89 320 L 89 352 L 89 352 Q 91 420 136 465 Q 181 510 249 512 L 313 512 L 313 512 Q 381 510 426 465 Q 471 420 473 352 L 473 304 L 473 304 L 473 272 L 473 272 L 473 248 L 473 248 Q 472 224 457 208 Q 441 193 417 192 Q 399 192 385 202 Q 368 177 337 176 Q 322 176 310 183 Q 305 166 290 155 Q 276 144 257 144 Q 244 144 233 149 L 233 80 L 233 80 L 233 56 L 233 56 Q 232 32 217 16 Q 201 1 177 0 Q 153 1 137 16 Q 122 32 121 56 L 121 64 L 121 64 Z M 201 96 L 201 144 L 201 96 L 201 144 L 90 144 L 90 144 L 102 130 L 102 130 Q 109 120 102 110 L 90 96 L 90 96 L 201 96 L 201 96 Z M 201 176 L 201 200 L 201 176 L 201 200 L 201 240 L 201 240 L 169 240 L 169 240 Q 161 240 153 242 L 153 176 L 153 176 L 201 176 L 201 176 Z M 201 272 L 201 272 L 201 272 L 201 272 L 233 272 L 233 272 L 233 272 L 233 272 L 257 272 L 257 272 Q 279 274 281 296 L 281 296 L 281 296 Q 279 318 257 320 L 201 320 L 201 320 Q 186 321 185 336 Q 186 351 201 352 L 257 352 L 257 352 Q 281 351 297 335 Q 313 351 337 352 Q 358 352 373 339 Q 389 359 417 360 Q 430 360 441 355 Q 439 408 403 443 Q 367 479 313 480 L 249 480 L 249 480 Q 195 479 158 443 Q 122 406 121 352 L 121 320 L 121 320 Q 122 300 135 286 Q 149 273 169 272 L 201 272 L 201 272 Z M 233 240 L 233 200 L 233 240 L 233 200 Q 235 178 257 176 Q 279 178 281 200 L 281 232 L 281 232 L 281 232 L 281 232 L 281 245 L 281 245 Q 270 240 257 240 L 233 240 L 233 240 Z M 313 272 L 313 232 L 313 272 L 313 232 Q 315 210 337 208 Q 359 210 361 232 L 361 248 L 361 248 L 361 296 L 361 296 Q 359 318 337 320 Q 315 318 313 296 L 313 296 L 313 296 L 313 272 L 313 272 Z M 441 272 L 441 304 L 441 272 L 441 304 Q 439 326 417 328 Q 395 326 393 304 L 393 296 L 393 296 L 393 248 L 393 248 Q 395 226 417 224 Q 439 226 441 248 L 441 272 L 441 272 Z" />
</svg>