<svg xmlns="http://www.w3.org/2000/svg" viewBox="0 0 512 512">
  <path d="M 103.82662 53.10217 Q 111.75232 53.10217 115.71517 60.235294 L 120.47059 70.5387 L 120.47059 70.5387 Q 140.28484 109.37461 176.74303 131.56656 Q 212.40868 153.75851 256 154.55109 Q 299.59134 153.75851 335.25696 131.56656 Q 371.71518 109.37461 391.52942 70.5387 L 397.0774 60.235294 L 397.0774 60.235294 Q 400.24768 53.10217 408.17337 53.10217 Q 417.6842 53.894737 420.06192 61.820435 Q 429.57275 87.975235 452.55728 110.959755 Q 474.74924 133.94427 501.6966 145.04025 Q 512 150.58824 508.8297 161.6842 Q 503.28174 171.98761 492.18576 168.81734 Q 450.97214 152.17337 420.8545 114.13003 L 420.8545 256 L 420.8545 256 L 496.94116 256 L 496.94116 256 Q 508.8297 256.79257 509.62228 268.68112 Q 508.8297 280.56967 496.94116 281.36224 L 15.058824 281.36224 L 15.058824 281.36224 Q 3.1702785 280.56967 2.377709 268.68112 Q 3.1702785 256.79257 15.058824 256 L 91.14551 256 L 91.14551 256 L 91.14551 114.13003 L 91.14551 114.13003 Q 61.027863 151.3808 19.814241 168.81734 Q 8.7182665 171.98761 3.1702785 161.6842 Q 0 150.58824 10.303406 145.04025 Q 37.250774 133.94427 59.442726 110.959755 Q 82.427246 87.975235 91.93808 61.820435 Q 94.31579 53.894737 103.82662 53.10217 L 103.82662 53.10217 Z M 116.50774 256 L 167.2322 256 L 116.50774 256 L 167.2322 256 L 167.2322 156.13623 L 167.2322 156.13623 Q 137.90712 138.69969 116.50774 111.75232 L 116.50774 256 L 116.50774 256 Z M 192.59442 256 L 243.31888 256 L 192.59442 256 L 243.31888 256 L 243.31888 179.12074 L 243.31888 179.12074 Q 217.1641 177.5356 192.59442 168.02477 L 192.59442 256 L 192.59442 256 Z M 268.68112 256 L 319.40558 256 L 268.68112 256 L 319.40558 256 L 319.40558 168.02477 L 319.40558 168.02477 Q 294.8359 177.5356 268.68112 179.91331 L 268.68112 256 L 268.68112 256 Z M 344.7678 256 L 395.49225 256 L 344.7678 256 L 395.49225 256 L 395.49225 111.75232 L 395.49225 111.75232 Q 374.09286 138.69969 344.7678 156.13623 L 344.7678 256 L 344.7678 256 Z M 15.058824 306.72446 L 27.739939 306.72446 L 15.058824 306.72446 L 27.739939 306.72446 Q 60.235294 307.51703 81.634674 328.9164 Q 103.03406 350.3158 103.82662 382.81116 L 103.82662 420.8545 L 103.82662 420.8545 Q 104.619194 432.74304 116.50774 433.5356 L 141.86996 433.5356 L 141.86996 433.5356 Q 153.75851 432.74304 154.55109 420.8545 L 154.55109 408.17337 L 154.55109 408.17337 Q 155.34366 365.3746 183.87616 336.04953 Q 213.20123 307.51703 256 306.72446 Q 298.79877 307.51703 328.12384 336.04953 Q 356.65634 365.3746 357.4489 408.17337 L 357.4489 420.8545 L 357.4489 420.8545 Q 358.2415 432.74304 370.13004 433.5356 L 395.49225 433.5356 L 395.49225 433.5356 Q 407.3808 432.74304 408.17337 420.8545 L 408.17337 382.81116 L 408.17337 382.81116 Q 408.96594 350.3158 430.36533 328.9164 Q 451.7647 307.51703 484.26007 306.72446 L 496.94116 306.72446 L 496.94116 306.72446 Q 508.8297 307.51703 509.62228 319.40558 Q 508.8297 331.29413 496.94116 332.0867 L 484.26007 332.0867 L 484.26007 332.0867 Q 462.8607 332.87924 448.59442 347.1455 Q 434.3282 361.41177 433.5356 382.81116 L 433.5356 420.8545 L 433.5356 420.8545 Q 432.74304 436.70587 422.43964 447.80185 Q 411.34366 458.10526 395.49225 458.89783 L 370.13004 458.89783 L 370.13004 458.89783 Q 354.27863 458.10526 343.18265 447.80185 Q 332.87924 436.70587 332.0867 420.8545 L 332.0867 408.17337 L 332.0867 408.17337 Q 331.29413 375.678 309.89474 354.27863 Q 288.49536 332.87924 256 332.0867 Q 223.50464 332.87924 202.10527 354.27863 Q 180.70589 375.678 179.91331 408.17337 L 179.91331 420.8545 L 179.91331 420.8545 Q 179.12074 436.70587 168.81734 447.80185 Q 157.72136 458.10526 141.86996 458.89783 L 116.50774 458.89783 L 116.50774 458.89783 Q 100.65635 458.10526 89.56037 447.80185 Q 79.256966 436.70587 78.46439 420.8545 L 78.46439 382.81116 L 78.46439 382.81116 Q 77.67183 361.41177 63.40557 347.1455 Q 49.13932 332.87924 27.739939 332.0867 L 15.058824 332.0867 L 15.058824 332.0867 Q 3.1702785 331.29413 2.377709 319.40558 Q 3.1702785 307.51703 15.058824 306.72446 L 15.058824 306.72446 Z" />
</svg>