<svg xmlns="http://www.w3.org/2000/svg" viewBox="0 0 514 514">
    <path d="M 500 34 Q 514 28 511 14 Q 506 0 492 3 L 59 118 Q 36 125 20 142 Q 4 160 1 184 Q 0 189 0 194 L 0 195 L 0 242 L 0 450 Q 1 477 19 495 Q 37 513 64 514 L 448 514 Q 475 513 493 495 Q 511 477 512 450 L 512 194 Q 511 167 493 149 Q 475 131 448 130 L 138 130 L 500 34 L 500 34 Z M 32 195 Q 32 192 32 189 Q 38 164 64 162 L 448 162 Q 462 162 471 171 Q 480 180 480 194 L 480 450 Q 480 464 471 473 Q 462 482 448 482 L 64 482 Q 50 482 41 473 Q 32 464 32 450 L 32 242 L 32 195 L 32 195 Z M 96 242 Q 81 243 80 258 Q 81 273 96 274 L 192 274 Q 207 273 208 258 Q 207 243 192 242 L 96 242 L 96 242 Z M 80 306 Q 65 307 64 322 Q 65 337 80 338 L 208 338 Q 223 337 224 322 Q 223 307 208 306 L 80 306 L 80 306 Z M 96 370 Q 81 371 80 386 Q 81 401 96 402 L 192 402 Q 207 401 208 386 Q 207 371 192 370 L 96 370 L 96 370 Z M 352 386 Q 316 385 297 354 Q 279 322 297 290 Q 316 259 352 258 Q 388 259 407 290 Q 425 322 407 354 Q 388 385 352 386 L 352 386 Z M 256 322 Q 256 348 269 370 L 269 370 Q 282 392 304 405 Q 327 418 352 418 Q 377 418 400 405 Q 422 392 435 370 Q 448 348 448 322 Q 448 296 435 274 Q 422 252 400 239 Q 377 226 352 226 Q 327 226 304 239 Q 282 252 269 274 Q 256 296 256 322 L 256 322 Z"/>
</svg>
