<svg xmlns="http://www.w3.org/2000/svg" viewBox="0 0 640 448">
    <path d="M 128 32 L 512 32 Q 526 32 535 41 Q 544 50 544 64 L 544 320 L 576 320 L 576 64 Q 575 37 557 19 Q 539 1 512 0 L 128 0 Q 101 1 83 19 Q 65 37 64 64 L 64 320 L 96 320 L 96 64 Q 96 50 105 41 Q 114 32 128 32 L 128 32 Z M 34 384 L 606 384 Q 596 414 563 416 L 77 416 Q 44 414 34 384 L 34 384 Z M 19 352 Q 2 354 0 371 Q 1 404 23 426 Q 44 447 77 448 L 563 448 Q 596 447 618 426 Q 639 404 640 371 Q 638 354 621 352 L 19 352 L 19 352 Z M 283 139 Q 293 128 283 117 Q 272 107 261 117 L 197 181 Q 187 192 197 203 L 261 267 Q 272 277 283 267 Q 293 256 283 245 L 231 192 L 283 139 L 283 139 Z M 379 117 Q 368 107 357 117 Q 347 128 357 139 L 409 192 L 357 245 Q 347 256 357 267 Q 368 277 379 267 L 443 203 Q 453 192 443 181 L 379 117 L 379 117 Z"/>
</svg>
