<svg xmlns="http://www.w3.org/2000/svg" viewBox="0 0 512 512">
  <path d="M 24.41846153846154 56.32 Q 14.966153846153846 50.80615384615385 6.3015384615384615 58.683076923076925 Q 0 68.13538461538461 8.664615384615384 76.8 L 487.58153846153846 454.89230769230767 L 487.58153846153846 454.89230769230767 Q 497.0338461538461 461.19384615384615 505.6984615384615 452.52923076923076 Q 512 443.0769230769231 503.3353846153846 435.2 L 24.41846153846154 56.32 L 24.41846153846154 56.32 Z M 380.4553846153846 236.70153846153846 L 439.5323076923077 177.6246153846154 L 380.4553846153846 236.70153846153846 L 439.5323076923077 177.6246153846154 Q 454.4984615384615 161.87076923076924 454.4984615384615 142.17846153846153 Q 454.4984615384615 121.69846153846154 439.5323076923077 106.73230769230769 L 404.87384615384616 72.07384615384615 L 404.87384615384616 72.07384615384615 Q 389.9076923076923 57.10769230769231 369.4276923076923 57.10769230769231 Q 349.7353846153846 57.10769230769231 333.98153846153843 72.07384615384615 L 274.9046153846154 131.15076923076924 L 274.9046153846154 131.15076923076924 L 211.10153846153847 148.48 L 211.10153846153847 148.48 L 236.30769230769232 167.3846153846154 L 236.30769230769232 167.3846153846154 L 277.2676923076923 156.35692307692307 L 277.2676923076923 156.35692307692307 L 355.2492307692308 234.33846153846153 L 355.2492307692308 234.33846153846153 L 348.9476923076923 257.1815384615385 L 348.9476923076923 257.1815384615385 L 371.00307692307695 273.7230769230769 L 371.00307692307695 273.7230769230769 L 380.4553846153846 236.70153846153846 L 380.4553846153846 236.70153846153846 Z M 302.4738461538462 364.3076923076923 Q 301.68615384615384 365.0953846153846 300.89846153846156 365.0953846153846 L 105.55076923076923 423.38461538461536 L 105.55076923076923 423.38461538461536 L 192.98461538461538 336.73846153846154 L 192.98461538461538 336.73846153846154 Q 204.0123076923077 343.8276923076923 218.19076923076923 343.8276923076923 Q 241.03384615384616 343.04 255.2123076923077 327.28615384615387 L 235.52 311.5323076923077 L 235.52 311.5323076923077 Q 228.43076923076924 318.6215384615385 218.19076923076923 318.6215384615385 Q 207.16307692307691 318.6215384615385 200.07384615384615 311.5323076923077 Q 192.98461538461538 304.44307692307694 192.98461538461538 293.4153846153846 Q 192.98461538461538 286.32615384615383 196.13538461538462 280.8123076923077 L 176.44307692307692 265.05846153846153 L 176.44307692307692 265.05846153846153 Q 167.77846153846153 277.66153846153844 167.77846153846153 293.4153846153846 Q 167.77846153846153 307.59384615384613 174.8676923076923 319.40923076923076 L 88.22153846153846 406.05538461538464 L 88.22153846153846 406.05538461538464 L 139.42153846153846 235.91384615384615 L 139.42153846153846 235.91384615384615 L 118.15384615384616 218.58461538461538 L 118.15384615384616 218.58461538461538 L 57.50153846153846 420.2338461538462 L 57.50153846153846 420.2338461538462 Q 53.56307692307692 435.2 64.59076923076923 447.0153846153846 Q 76.40615384615384 458.0430769230769 91.37230769230769 454.1046153846154 L 308.7753846153846 389.51384615384615 L 308.7753846153846 389.51384615384615 Q 316.6523076923077 386.3630769230769 324.52923076923076 381.6369230769231 L 302.4738461538462 364.3076923076923 L 302.4738461538462 364.3076923076923 Z M 351.3107692307692 89.40307692307692 Q 359.1876923076923 82.31384615384616 369.4276923076923 82.31384615384616 L 369.4276923076923 82.31384615384616 L 369.4276923076923 82.31384615384616 Q 379.66769230769233 82.31384615384616 387.5446153846154 89.40307692307692 L 422.20307692307694 124.06153846153846 L 422.20307692307694 124.06153846153846 Q 429.2923076923077 131.93846153846152 429.2923076923077 142.17846153846153 Q 429.2923076923077 152.41846153846154 422.20307692307694 160.29538461538462 L 369.4276923076923 212.28307692307692 L 369.4276923076923 212.28307692307692 L 299.32307692307694 142.17846153846153 L 299.32307692307694 142.17846153846153 L 351.3107692307692 89.40307692307692 L 351.3107692307692 89.40307692307692 Z" />
</svg>