<svg xmlns="http://www.w3.org/2000/svg" viewBox="0 0 512 512">
  <path d="M 374.5369649805447 275.92217898832683 Q 347.6420233463035 265.96108949416345 327.7198443579766 287.87548638132296 L 294.84824902723733 327.7198443579766 L 294.84824902723733 327.7198443579766 Q 225.12062256809338 286.8793774319066 184.28015564202335 217.15175097276264 L 224.12451361867704 184.28015564202335 L 224.12451361867704 184.28015564202335 Q 246.03891050583658 164.3579766536965 236.07782101167317 137.46303501945525 L 188.26459143968873 25.898832684824903 L 188.26459143968873 25.898832684824903 Q 182.28793774319067 12.949416342412452 169.3385214007782 6.972762645914397 Q 157.3852140077821 0 143.4396887159533 2.9883268482490273 L 31.875486381322958 26.894941634241246 L 31.875486381322958 26.894941634241246 Q 1.9922178988326849 34.86381322957198 0 65.7431906614786 L 0 65.7431906614786 L 0 65.7431906614786 Q 0.9961089494163424 185.27626459143968 55.782101167315176 281.8988326848249 Q 110.56809338521401 379.5175097276265 204.2023346303502 440.2801556420234 Q 297.8365758754864 501.0428015564202 414.38132295719845 511.00389105058366 Q 421.3540856031128 511.00389105058366 428.32684824902725 512 Q 428.32684824902725 512 428.32684824902725 512 Q 428.32684824902725 512 428.32684824902725 512 Q 428.32684824902725 512 428.32684824902725 512 Q 428.32684824902725 512 428.32684824902725 512 Q 437.2918287937743 512 446.2568093385214 512 L 446.2568093385214 512 L 446.2568093385214 512 Q 477.136186770428 510.0077821011673 485.10505836575874 480.12451361867704 L 509.011673151751 368.5603112840467 L 509.011673151751 368.5603112840467 Q 512 354.6147859922179 506.02334630350197 342.66147859922177 Q 499.05058365758754 329.71206225680936 486.1011673151751 323.73540856031127 L 374.5369649805447 275.92217898832683 L 374.5369649805447 275.92217898832683 Z M 446.2568093385214 480.12451361867704 Q 330.7081712062257 479.1284046692607 237.0739299610895 423.3463035019455 L 237.0739299610895 423.3463035019455 L 237.0739299610895 423.3463035019455 Q 143.4396887159533 368.5603112840467 88.65369649805447 274.9260700389105 L 88.65369649805447 274.9260700389105 L 88.65369649805447 274.9260700389105 Q 32.8715953307393 181.29182879377433 31.875486381322958 65.7431906614786 L 31.875486381322958 65.7431906614786 L 31.875486381322958 65.7431906614786 L 31.875486381322958 65.7431906614786 L 31.875486381322958 65.7431906614786 L 31.875486381322958 65.7431906614786 L 31.875486381322958 65.7431906614786 L 31.875486381322958 65.7431906614786 L 31.875486381322958 65.7431906614786 L 31.875486381322958 65.7431906614786 L 31.875486381322958 65.7431906614786 L 31.875486381322958 65.7431906614786 L 31.875486381322958 65.7431906614786 L 31.875486381322958 65.7431906614786 L 31.875486381322958 65.7431906614786 L 31.875486381322958 65.7431906614786 L 31.875486381322958 65.7431906614786 L 31.875486381322958 65.7431906614786 L 31.875486381322958 65.7431906614786 L 31.875486381322958 65.7431906614786 L 31.875486381322958 65.7431906614786 L 31.875486381322958 65.7431906614786 L 31.875486381322958 65.7431906614786 L 31.875486381322958 65.7431906614786 L 31.875486381322958 65.7431906614786 L 31.875486381322958 65.7431906614786 L 31.875486381322958 65.7431906614786 L 31.875486381322958 65.7431906614786 L 31.875486381322958 65.7431906614786 L 31.875486381322958 65.7431906614786 L 31.875486381322958 65.7431906614786 L 31.875486381322958 65.7431906614786 L 31.875486381322958 65.7431906614786 L 31.875486381322958 65.7431906614786 L 31.875486381322958 65.7431906614786 L 31.875486381322958 65.7431906614786 L 31.875486381322958 65.7431906614786 L 31.875486381322958 65.7431906614786 L 31.875486381322958 65.7431906614786 L 31.875486381322958 65.7431906614786 L 31.875486381322958 65.7431906614786 L 31.875486381322958 65.7431906614786 L 31.875486381322958 65.7431906614786 L 31.875486381322958 65.7431906614786 L 31.875486381322958 65.7431906614786 L 31.875486381322958 65.7431906614786 L 31.875486381322958 65.7431906614786 L 31.875486381322958 65.7431906614786 L 31.875486381322958 65.7431906614786 Q 31.875486381322958 59.766536964980546 37.85214007782101 57.77431906614786 L 149.41634241245137 33.86770428015564 L 149.41634241245137 33.86770428015564 Q 155.3929961089494 32.8715953307393 158.38132295719845 38.84824902723735 L 206.1945525291829 150.4124513618677 L 206.1945525291829 150.4124513618677 Q 208.18677042801556 155.3929961089494 204.2023346303502 159.3774319066148 L 163.36186770428014 192.24902723735408 L 163.36186770428014 192.24902723735408 Q 145.431906614786 210.17898832684824 156.38910505836577 233.08949416342412 Q 201.21400778210116 310.7859922178988 278.91050583657585 355.6108949416342 Q 301.82101167315176 366.568093385214 319.7509727626459 348.63813229571986 L 352.6225680933852 307.7976653696498 L 352.6225680933852 307.7976653696498 Q 356.60700389105057 303.81322957198444 361.5875486381323 305.8054474708171 L 473.15175097276267 353.61867704280155 L 473.15175097276267 353.61867704280155 Q 479.1284046692607 355.6108949416342 478.13229571984436 362.58365758754866 L 454.2256809338521 474.147859922179 L 454.2256809338521 474.147859922179 Q 452.23346303501944 480.12451361867704 446.2568093385214 480.12451361867704 Q 446.2568093385214 480.12451361867704 446.2568093385214 480.12451361867704 L 446.2568093385214 480.12451361867704 Z" />
</svg>