<svg xmlns="http://www.w3.org/2000/svg" viewBox="0 0 512 512">
  <path d="M 272.302925989673 56.83993115318417 Q 259.0843373493976 57.721170395869194 258.20309810671256 70.93975903614458 Q 259.0843373493976 84.15834767641996 272.302925989673 85.03958691910499 L 300.5025817555938 85.03958691910499 L 300.5025817555938 85.03958691910499 Q 372.76419965576594 86.80206540447504 422.9948364888124 131.74526678141137 Q 473.2254733218589 176.6884681583477 482.91910499139414 246.30636833046472 Q 460.0068846815835 226.91910499139414 427.4010327022375 226.03786574870912 L 383.33907056798625 226.03786574870912 L 383.33907056798625 226.03786574870912 L 341.039586919105 148.48881239242684 L 341.039586919105 148.48881239242684 Q 337.51462994836487 142.32013769363166 329.58347676419965 141.43889845094665 Q 321.6523235800344 141.43889845094665 317.2461273666093 147.60757314974182 L 277.5903614457831 201.3631669535284 L 277.5903614457831 201.3631669535284 L 241.45955249569707 147.60757314974182 L 241.45955249569707 147.60757314974182 Q 237.05335628227195 141.43889845094665 230.00344234079174 141.43889845094665 Q 222.95352839931152 141.43889845094665 218.5473321858864 146.7263339070568 L 159.50430292598966 226.03786574870912 L 159.50430292598966 226.03786574870912 L 94.29259896729776 226.03786574870912 L 94.29259896729776 226.03786574870912 Q 67.855421686747 226.91910499139414 51.111876075731494 244.54388984509467 Q 33.48709122203098 261.28743545611013 32.60585197934596 287.7246127366609 Q 34.36833046471601 326.4991394148021 68.73666092943202 344.1239242685026 L 70.49913941480206 345.0051635111876 L 70.49913941480206 345.0051635111876 L 7.049913941480207 428.72289156626505 L 7.049913941480207 428.72289156626505 Q 0 440.1790017211704 9.693631669535284 448.9913941480207 Q 21.14974182444062 455.1600688468158 29.962134251290877 446.3476764199656 L 96.93631669535284 356.46127366609295 L 96.93631669535284 356.46127366609295 L 141.87951807228916 377.6110154905336 L 141.87951807228916 377.6110154905336 Q 148.04819277108433 380.2547332185886 154.21686746987953 382.8984509466437 L 119.84853700516351 428.72289156626505 L 119.84853700516351 428.72289156626505 Q 113.67986230636834 440.1790017211704 123.37349397590361 448.9913941480207 Q 133.94836488812393 455.1600688468158 142.76075731497417 445.46643717728057 L 183.29776247848537 390.82960413080895 L 183.29776247848537 390.82960413080895 Q 203.56626506024097 395.23580034423406 223.83476764199656 395.23580034423406 L 252.0344234079174 395.23580034423406 L 252.0344234079174 395.23580034423406 L 231.7659208261618 430.48537005163513 L 231.7659208261618 430.48537005163513 Q 226.47848537005163 441.94148020654046 237.05335628227195 449.8726333907057 Q 248.50946643717728 455.1600688468158 256.44061962134253 444.5851979345955 L 284.64027538726333 395.23580034423406 L 284.64027538726333 395.23580034423406 L 404.48881239242684 395.23580034423406 L 404.48881239242684 395.23580034423406 L 429.1635111876076 443.7039586919105 L 429.1635111876076 443.7039586919105 Q 436.2134251290878 455.1600688468158 447.6695352839931 449.8726333907057 Q 459.12564543889846 443.7039586919105 453.83820998278827 431.36660929432014 L 436.2134251290878 395.23580034423406 L 436.2134251290878 395.23580034423406 Q 468.8192771084337 390.82960413080895 489.96901893287435 367.9173838209983 Q 511.118760757315 344.1239242685026 512 310.6368330464716 L 512 310.6368330464716 L 512 310.6368330464716 L 512 268.33734939759034 L 512 268.33734939759034 Q 511.118760757315 209.29432013769363 482.91910499139414 161.70740103270225 Q 454.71944922547334 114.12048192771084 407.13253012048193 85.92082616179002 Q 359.5456110154905 57.721170395869194 300.5025817555938 56.83993115318417 L 272.302925989673 56.83993115318417 L 272.302925989673 56.83993115318417 Z M 427.4010327022375 254.23752151462995 Q 451.19449225473323 255.118760757315 467.0567986230637 270.98106712564544 L 467.0567986230637 270.98106712564544 L 467.0567986230637 270.98106712564544 Q 482.91910499139414 286.8433734939759 483.80034423407915 310.6368330464716 L 483.80034423407915 310.6368330464716 L 483.80034423407915 310.6368330464716 L 483.80034423407915 310.6368330464716 L 483.80034423407915 310.6368330464716 Q 482.91910499139414 334.4302925989673 467.0567986230637 350.29259896729775 Q 451.19449225473323 366.1549053356282 427.4010327022375 367.03614457831327 L 413.30120481927713 367.03614457831327 L 413.30120481927713 367.03614457831327 Q 413.30120481927713 367.03614457831327 413.30120481927713 367.03614457831327 Q 413.30120481927713 367.03614457831327 413.30120481927713 367.03614457831327 Q 413.30120481927713 367.03614457831327 413.30120481927713 367.03614457831327 Q 413.30120481927713 367.03614457831327 413.30120481927713 367.03614457831327 L 223.83476764199656 367.03614457831327 L 223.83476764199656 367.03614457831327 Q 186.82271944922547 367.03614457831327 153.3356282271945 352.05507745266783 L 113.67986230636834 333.5490533562823 L 113.67986230636834 333.5490533562823 L 173.6041308089501 254.23752151462995 L 173.6041308089501 254.23752151462995 L 286.4027538726334 254.23752151462995 L 286.4027538726334 254.23752151462995 L 286.4027538726334 254.23752151462995 L 286.4027538726334 254.23752151462995 L 427.4010327022375 254.23752151462995 L 427.4010327022375 254.23752151462995 Z M 138.35456110154905 254.23752151462995 L 88.12392426850258 322.09294320137695 L 138.35456110154905 254.23752151462995 L 88.12392426850258 322.09294320137695 L 80.19277108433735 318.56798623063685 L 80.19277108433735 318.56798623063685 Q 61.68674698795181 308.87435456110154 60.80550774526678 287.7246127366609 Q 60.80550774526678 273.62478485370053 70.49913941480206 263.9311531841652 Q 80.19277108433735 254.23752151462995 94.29259896729776 254.23752151462995 L 138.35456110154905 254.23752151462995 L 138.35456110154905 254.23752151462995 Z M 259.0843373493976 226.03786574870912 L 194.7538726333907 226.03786574870912 L 259.0843373493976 226.03786574870912 L 194.7538726333907 226.03786574870912 L 229.12220309810672 180.21342512908777 L 229.12220309810672 180.21342512908777 L 259.96557659208264 225.15662650602408 L 259.96557659208264 225.15662650602408 L 259.0843373493976 226.03786574870912 L 259.0843373493976 226.03786574870912 Z M 350.7332185886403 226.03786574870912 L 294.33390705679864 226.03786574870912 L 350.7332185886403 226.03786574870912 L 294.33390705679864 226.03786574870912 L 326.93975903614455 181.97590361445782 L 326.93975903614455 181.97590361445782 L 350.7332185886403 226.03786574870912 L 350.7332185886403 226.03786574870912 Z M 420.3511187607573 331.7865748709122 Q 439.7383820998279 330.0240963855422 441.5008605851979 310.6368330464716 Q 439.7383820998279 291.249569707401 420.3511187607573 289.487091222031 Q 400.96385542168673 291.249569707401 399.2013769363167 310.6368330464716 Q 400.96385542168673 330.0240963855422 420.3511187607573 331.7865748709122 L 420.3511187607573 331.7865748709122 Z" />
</svg>