<svg xmlns="http://www.w3.org/2000/svg" viewBox="0 0 448 512">
    <path d="M 174 7 Q 179 0 187 0 Q 242 1 284 32 Q 327 64 335 120 Q 357 130 370 150 Q 384 170 384 196 Q 384 201 383 206 Q 412 218 430 243 Q 447 267 448 300 Q 447 342 419 371 Q 390 399 348 400 L 339 400 L 351 389 Q 361 379 366 366 Q 388 359 402 342 Q 416 324 416 300 Q 416 275 400 257 Q 385 238 361 233 Q 354 232 351 226 Q 347 219 349 213 Q 352 205 352 196 Q 352 178 342 165 Q 332 151 315 146 Q 305 143 304 132 Q 302 93 275 67 Q 249 41 210 34 Q 210 36 211 38 Q 215 51 216 64 Q 216 89 205 106 Q 195 122 181 130 Q 167 138 158 141 Q 153 142 150 143 Q 148 144 145 144 Q 124 146 110 160 Q 96 175 96 196 Q 96 205 99 213 Q 101 219 97 226 Q 94 232 87 233 Q 63 238 48 257 Q 32 275 32 300 Q 32 324 47 342 Q 61 360 84 366 Q 80 376 80 386 Q 80 393 81 398 Q 46 391 23 364 Q 1 337 0 300 Q 1 267 18 243 Q 36 218 65 206 Q 64 201 64 196 Q 65 162 86 139 Q 107 116 140 112 Q 140 112 141 112 Q 141 112 142 112 L 142 112 Q 142 112 143 112 Q 143 112 143 112 Q 144 112 147 111 Q 147 111 148 111 Q 155 109 163 104 Q 182 95 184 64 Q 184 60 180 47 Q 177 38 174 29 Q 174 28 173 26 L 173 26 L 173 26 L 173 26 Q 172 23 172 21 Q 172 21 172 21 Q 169 14 174 7 L 174 7 Z M 160 376 L 208 376 Q 217 376 222 383 Q 226 391 223 399 L 203 441 L 288 360 L 240 360 Q 231 360 227 353 Q 222 345 226 337 L 245 295 L 160 376 L 160 376 Z M 282 224 Q 293 225 299 233 L 299 233 Q 304 242 300 253 L 265 328 L 314 328 Q 334 330 336 350 Q 336 359 329 365 L 180 507 Q 174 512 166 512 Q 155 511 149 503 Q 144 494 148 484 L 183 408 L 134 408 Q 114 406 112 386 Q 112 377 119 371 L 268 230 Q 274 224 282 224 L 282 224 Z"/>
</svg>
