<svg xmlns="http://www.w3.org/2000/svg" viewBox="0 0 512 448">
    <path d="M 32 296 L 32 384 Q 32 398 41 407 Q 50 416 64 416 L 448 416 Q 462 416 471 407 Q 480 398 480 384 L 480 296 Q 480 292 479 288 L 479 288 L 378 288 L 355 334 Q 345 351 326 352 L 186 352 Q 167 351 157 334 L 134 288 L 33 288 L 33 288 Q 32 292 32 296 L 32 296 Z M 421 56 Q 414 33 390 32 L 122 32 Q 98 33 91 56 L 41 256 L 134 256 Q 153 257 163 274 L 186 320 L 326 320 L 349 274 Q 359 257 378 256 L 471 256 L 421 56 L 421 56 Z M 0 384 L 0 296 Q 0 288 2 280 L 60 49 Q 66 27 83 14 Q 99 0 122 0 L 390 0 Q 413 0 429 14 Q 446 27 452 49 L 510 280 Q 512 288 512 296 L 512 384 Q 511 411 493 429 Q 475 447 448 448 L 64 448 Q 37 447 19 429 Q 1 411 0 384 L 0 384 Z M 176 112 L 336 112 Q 351 113 352 128 Q 351 143 336 144 L 176 144 Q 161 143 160 128 Q 161 113 176 112 L 176 112 Z M 144 192 L 368 192 Q 383 193 384 208 Q 383 223 368 224 L 144 224 Q 129 223 128 208 Q 129 193 144 192 L 144 192 Z"/>
</svg>
