<svg xmlns="http://www.w3.org/2000/svg" viewBox="0 0 512 512">
  <path d="M 190.984126984127 48.76190476190476 Q 213.33333333333334 46.73015873015873 215.36507936507937 24.38095238095238 Q 213.33333333333334 2.0317460317460316 190.984126984127 0 Q 168.63492063492063 2.0317460317460316 166.6031746031746 24.38095238095238 Q 168.63492063492063 46.73015873015873 190.984126984127 48.76190476190476 L 190.984126984127 48.76190476190476 Z M 288.5079365079365 73.14285714285714 Q 289.5238095238095 57.904761904761905 304.76190476190476 56.888888888888886 Q 320 57.904761904761905 321.015873015873 73.14285714285714 Q 320 88.38095238095238 304.76190476190476 89.39682539682539 Q 289.5238095238095 88.38095238095238 288.5079365079365 73.14285714285714 L 288.5079365079365 73.14285714285714 Z M 353.5238095238095 73.14285714285714 Q 352.5079365079365 45.714285714285715 329.14285714285717 30.476190476190474 Q 304.76190476190476 18.285714285714285 280.3809523809524 30.476190476190474 Q 257.015873015873 45.714285714285715 256 73.14285714285714 Q 257.015873015873 100.57142857142857 280.3809523809524 115.80952380952381 Q 304.76190476190476 128 329.14285714285717 115.80952380952381 Q 352.5079365079365 100.57142857142857 353.5238095238095 73.14285714285714 L 353.5238095238095 73.14285714285714 Z M 89.39682539682539 240.76190476190476 Q 108.6984126984127 206.22222222222223 124.95238095238095 186.9206349206349 L 256 186.9206349206349 L 387.04761904761904 186.9206349206349 Q 403.3015873015873 206.22222222222223 422.6031746031746 240.76190476190476 Q 449.015873015873 288.5079365079365 451.04761904761904 331.1746031746032 Q 449.015873015873 400.25396825396825 394.1587301587302 438.85714285714283 Q 337.26984126984127 478.4761904761905 256 479.4920634920635 Q 174.73015873015873 478.4761904761905 117.84126984126983 438.85714285714283 Q 62.98412698412698 400.25396825396825 60.95238095238095 331.1746031746032 Q 62.98412698412698 288.5079365079365 89.39682539682539 240.76190476190476 L 89.39682539682539 240.76190476190476 Z M 84.31746031746032 186.9206349206349 Q 64 215.36507936507937 46.73015873015873 253.96825396825398 L 46.73015873015873 253.96825396825398 L 46.73015873015873 253.96825396825398 Q 29.46031746031746 292.57142857142856 28.444444444444443 331.1746031746032 Q 29.46031746031746 389.07936507936506 60.95238095238095 428.6984126984127 L 60.95238095238095 495.74603174603175 L 60.95238095238095 495.74603174603175 Q 61.96825396825397 510.984126984127 77.2063492063492 512 Q 92.44444444444444 510.984126984127 93.46031746031746 495.74603174603175 L 93.46031746031746 461.2063492063492 L 93.46031746031746 461.2063492063492 Q 125.96825396825396 485.58730158730157 168.63492063492063 498.7936507936508 Q 210.28571428571428 512 256 512 Q 301.7142857142857 512 343.36507936507934 498.7936507936508 Q 386.031746031746 485.58730158730157 418.53968253968253 461.2063492063492 L 418.53968253968253 495.74603174603175 L 418.53968253968253 495.74603174603175 Q 419.55555555555554 510.984126984127 434.7936507936508 512 Q 450.031746031746 510.984126984127 451.04761904761904 495.74603174603175 L 451.04761904761904 428.6984126984127 L 451.04761904761904 428.6984126984127 Q 482.53968253968253 389.07936507936506 483.55555555555554 331.1746031746032 Q 482.53968253968253 292.57142857142856 465.26984126984127 253.96825396825398 Q 448 215.36507936507937 427.6825396825397 186.9206349206349 L 467.3015873015873 186.9206349206349 L 467.3015873015873 186.9206349206349 Q 482.53968253968253 185.9047619047619 483.55555555555554 170.66666666666666 Q 482.53968253968253 155.42857142857142 467.3015873015873 154.4126984126984 L 402.2857142857143 154.4126984126984 L 44.698412698412696 154.4126984126984 Q 29.46031746031746 155.42857142857142 28.444444444444443 170.66666666666666 Q 29.46031746031746 185.9047619047619 44.698412698412696 186.9206349206349 L 84.31746031746032 186.9206349206349 L 84.31746031746032 186.9206349206349 Z" />
</svg>