<svg xmlns="http://www.w3.org/2000/svg" viewBox="0 0 512 512">
  <path d="M 24.41846 56.32 Q 14.966154 50.806152 6.3015385 58.68308 Q 0 68.13538 8.664616 76.8 L 487.58154 454.8923 L 487.58154 454.8923 Q 497.03384 461.19385 505.69846 452.52924 Q 512 443.07693 503.3354 435.2 L 24.41846 56.32 L 24.41846 56.32 Z M 444.25845 163.44615 Q 456.86154 150.05539 456.86154 131.93846 L 456.86154 131.93846 L 456.86154 131.93846 Q 456.86154 114.60923 444.25845 101.21846 L 410.3877 67.347694 L 410.3877 67.347694 Q 396.99692 54.744614 379.6677 54.744614 Q 361.55078 54.744614 348.16 67.347694 L 238.67078 177.62462 L 238.67078 177.62462 L 258.36307 193.37846 L 258.36307 193.37846 L 304.8369 146.11693 L 304.8369 146.11693 L 365.48923 206.76923 L 365.48923 206.76923 L 325.31693 246.15384 L 325.31693 246.15384 L 345.79694 261.90768 L 345.79694 261.90768 L 444.25845 163.44615 L 444.25845 163.44615 Z M 253.63692 317.83383 L 180.38155 391.87692 L 253.63692 317.83383 L 180.38155 391.87692 Q 170.92923 401.32922 158.32616 404.48 L 85.85846 425.74768 L 85.85846 425.74768 L 107.12615 353.28 L 107.12615 353.28 Q 111.06461 340.6769 119.72923 331.2246 L 186.68307 265.05847 L 186.68307 265.05847 L 166.20308 249.30461 L 166.20308 249.30461 L 101.612305 313.8954 L 101.612305 313.8954 Q 88.221535 327.28616 82.707695 345.40308 L 55.138462 440.71384 L 55.138462 440.71384 Q 52.775383 448.59076 58.28923 453.31693 Q 63.015385 458.83078 70.104614 456.46768 L 165.41539 428.89847 L 165.41539 428.89847 Q 184.32 423.3846 197.71077 409.20615 L 273.32922 333.5877 L 273.32922 333.5877 L 253.63692 317.83383 L 253.63692 317.83383 Z M 366.27692 85.464615 Q 379.6677 74.43692 393.05847 85.464615 L 426.14154 118.54769 L 426.14154 118.54769 Q 437.16922 131.93846 426.14154 145.32922 L 383.60614 188.65231 L 383.60614 188.65231 L 322.95386 128 L 322.95386 128 L 366.27692 85.464615 L 366.27692 85.464615 Z" />
</svg>