<svg xmlns="http://www.w3.org/2000/svg" viewBox="0 0 640 512">
    <path d="M 400 32 Q 415 33 416 48 L 416 144 Q 415 159 400 160 L 336 160 L 304 160 L 240 160 Q 225 159 224 144 L 224 48 Q 225 33 240 32 L 400 32 L 400 32 Z M 336 192 L 400 192 Q 420 191 434 178 Q 447 164 448 144 L 448 48 Q 447 28 434 14 Q 420 1 400 0 L 240 0 Q 220 1 206 14 Q 193 28 192 48 L 192 144 Q 193 164 206 178 Q 220 191 240 192 L 304 192 L 304 240 L 16 240 Q 1 241 0 256 Q 1 271 16 272 L 144 272 L 144 320 L 80 320 Q 60 321 46 334 Q 33 348 32 368 L 32 464 Q 33 484 46 498 Q 60 511 80 512 L 240 512 Q 260 511 274 498 Q 287 484 288 464 L 288 368 Q 287 348 274 334 Q 260 321 240 320 L 176 320 L 176 272 L 464 272 L 464 320 L 400 320 Q 380 321 366 334 Q 353 348 352 368 L 352 464 Q 353 484 366 498 Q 380 511 400 512 L 560 512 Q 580 511 594 498 Q 607 484 608 464 L 608 368 Q 607 348 594 334 Q 580 321 560 320 L 496 320 L 496 272 L 624 272 Q 639 271 640 256 Q 639 241 624 240 L 336 240 L 336 192 L 336 192 Z M 496 352 L 560 352 Q 575 353 576 368 L 576 464 Q 575 479 560 480 L 400 480 Q 385 479 384 464 L 384 368 Q 385 353 400 352 L 464 352 L 496 352 L 496 352 Z M 176 352 L 240 352 Q 255 353 256 368 L 256 464 Q 255 479 240 480 L 80 480 Q 65 479 64 464 L 64 368 Q 65 353 80 352 L 144 352 L 176 352 L 176 352 Z"/>
</svg>
