<svg xmlns="http://www.w3.org/2000/svg" viewBox="0 0 576 448">
    <path d="M 309 74 Q 327 62 328 40 Q 328 23 316 12 Q 305 0 288 0 Q 271 0 260 12 Q 248 23 248 40 Q 249 63 267 74 L 210 189 Q 202 202 188 206 Q 174 209 161 199 L 72 128 Q 80 118 80 104 Q 80 87 68 76 Q 57 64 40 64 Q 23 64 12 76 Q 0 87 0 104 Q 0 121 12 132 Q 23 144 40 144 L 41 144 L 86 395 Q 91 419 108 433 Q 126 448 149 448 L 427 448 Q 450 448 468 433 Q 485 419 490 395 L 535 144 Q 535 144 536 144 Q 536 144 536 144 Q 553 144 564 132 Q 576 121 576 104 Q 576 87 564 76 Q 553 64 536 64 Q 519 64 508 76 Q 496 87 496 104 Q 496 118 504 128 L 415 199 Q 402 209 388 206 Q 374 202 366 189 L 309 74 L 309 74 Z M 118 390 L 79 174 L 141 224 Q 166 243 195 237 Q 223 231 238 203 L 288 104 L 338 203 Q 353 231 381 237 Q 410 243 435 224 L 497 175 L 458 390 Q 452 414 427 416 L 149 416 Q 124 414 118 390 L 118 390 Z"/>
</svg>
