<svg xmlns="http://www.w3.org/2000/svg" viewBox="0 0 512 512">
  <path d="M 51.2 89.6 L 307.2 89.6 L 51.2 89.6 L 307.2 89.6 Q 318.4 89.6 325.6 96.8 Q 332.8 104 332.8 115.2 L 332.8 146.4 L 332.8 146.4 Q 344.8 140.8 358.4 140.8 L 358.4 115.2 L 358.4 115.2 Q 357.6 93.6 343.2 79.2 Q 328.8 64.8 307.2 64 L 51.2 64 L 51.2 64 Q 29.6 64.8 15.2 79.2 Q 0.8 93.6 0 115.2 L 0 371.2 L 0 371.2 Q 0.8 392.8 15.2 407.2 Q 29.6 421.6 51.2 422.4 L 180 422.4 L 180 422.4 Q 179.2 417.6 179.2 412.8 Q 179.2 404.8 181.6 396.8 L 51.2 396.8 L 51.2 396.8 Q 40 396.8 32.8 389.6 Q 25.6 382.4 25.6 371.2 L 25.6 115.2 L 25.6 115.2 Q 25.6 104 32.8 96.8 Q 40 89.6 51.2 89.6 L 51.2 89.6 Z M 102.4 153.6 Q 101.6 141.6 89.6 140.8 Q 77.6 141.6 76.8 153.6 L 76.8 256 L 76.8 256 Q 77.6 268 89.6 268.8 Q 101.6 268 102.4 256 L 102.4 153.6 L 102.4 153.6 Z M 153.6 153.6 Q 152.8 141.6 140.8 140.8 Q 128.8 141.6 128 153.6 L 128 256 L 128 256 Q 128.8 268 140.8 268.8 Q 152.8 268 153.6 256 L 153.6 153.6 L 153.6 153.6 Z M 387.2 183.2 Q 377.6 167.2 358.4 166.4 Q 339.2 167.2 329.6 183.2 L 209.6 395.2 L 209.6 395.2 Q 204.8 403.2 204.8 412.8 Q 204.8 428 215.2 437.6 Q 224.8 448 240 448 L 476.8 448 L 476.8 448 Q 492 448 501.6 437.6 Q 512 428 512 412.8 Q 512 403.2 507.2 395.2 L 387.2 183.2 L 387.2 183.2 Z M 352 196 Q 354.4 192 358.4 192 Q 362.4 192 364.8 196 L 484.8 408 L 484.8 408 Q 486.4 410.4 486.4 412.8 Q 485.6 421.6 476.8 422.4 L 240 422.4 L 240 422.4 Q 231.2 421.6 230.4 412.8 Q 230.4 410.4 232 408 L 352 196 L 352 196 Z M 371.2 281.6 Q 370.4 269.6 358.4 268.8 Q 346.4 269.6 345.6 281.6 L 345.6 332.8 L 345.6 332.8 Q 346.4 344.8 358.4 345.6 Q 370.4 344.8 371.2 332.8 L 371.2 281.6 L 371.2 281.6 Z M 358.4 396.8 Q 376 395.2 377.6 377.6 Q 376 360 358.4 358.4 Q 340.8 360 339.2 377.6 Q 340.8 395.2 358.4 396.8 L 358.4 396.8 Z" />
</svg>