<svg xmlns="http://www.w3.org/2000/svg" viewBox="0 0 512 512">
  <path d="M 287.88927335640136 339.2664359861592 Q 299.4048442906574 347.2387543252595 299.4048442906574 361.4117647058824 L 299.4048442906574 433.16262975778545 L 299.4048442906574 433.16262975778545 Q 301.1764705882353 452.65051903114187 320.6643598615917 454.42214532871975 L 334.83737024221455 454.42214532871975 L 334.83737024221455 454.42214532871975 Q 354.3252595155709 452.65051903114187 356.0968858131488 433.16262975778545 L 356.0968858131488 261.3148788927336 L 356.0968858131488 261.3148788927336 L 356.0968858131488 261.3148788927336 L 356.0968858131488 261.3148788927336 L 274.6020761245675 213.4809688581315 L 274.6020761245675 213.4809688581315 Q 273.71626297577853 213.4809688581315 273.71626297577853 213.4809688581315 Q 273.71626297577853 213.4809688581315 273.71626297577853 213.4809688581315 L 143.50173010380624 213.4809688581315 L 86.80968858131487 213.4809688581315 L 86.80968858131487 433.16262975778545 L 86.80968858131487 433.16262975778545 Q 88.58131487889273 452.65051903114187 108.06920415224913 454.42214532871975 L 122.24221453287197 454.42214532871975 L 122.24221453287197 454.42214532871975 Q 141.73010380622839 452.65051903114187 143.50173010380624 433.16262975778545 L 143.50173010380624 361.4117647058824 L 143.50173010380624 361.4117647058824 Q 143.50173010380624 347.2387543252595 155.01730103806227 339.2664359861592 Q 166.53287197231833 330.4083044982699 180.7058823529412 334.83737024221455 Q 200.19377162629758 341.038062283737 221.45328719723184 341.038062283737 Q 242.71280276816609 341.038062283737 262.2006920415225 334.83737024221455 Q 276.37370242214536 330.4083044982699 287.88927335640136 339.2664359861592 L 287.88927335640136 339.2664359861592 Z M 361.4117647058824 223.2249134948097 Q 366.7266435986159 201.07958477508652 388.8719723183391 199.30795847750866 L 426.961937716263 199.30795847750866 L 426.961937716263 199.30795847750866 Q 450.878892733564 198.42214532871972 466.8235294117647 182.47750865051904 Q 482.7681660899654 166.53287197231833 483.65397923875435 142.6159169550173 L 483.65397923875435 128.44290657439447 L 483.65397923875435 128.44290657439447 Q 482.7681660899654 115.15570934256056 469.48096885813146 114.26989619377163 L 441.1349480968858 114.26989619377163 L 441.1349480968858 114.26989619377163 Q 429.61937716262975 114.26989619377163 420.7612456747405 106.29757785467127 L 404.8166089965398 90.3529411764706 L 404.8166089965398 90.3529411764706 Q 401.2733564013841 85.92387543252595 395.0726643598616 85.92387543252595 L 356.0968858131488 85.92387543252595 L 356.0968858131488 85.92387543252595 Q 341.92387543252596 85.92387543252595 333.06574394463667 74.4083044982699 L 323.3217993079585 60.23529411764706 L 323.3217993079585 60.23529411764706 L 301.1764705882353 189.56401384083046 L 301.1764705882353 189.56401384083046 Q 301.1764705882353 193.10726643598616 299.4048442906574 195.76470588235293 L 359.6401384083045 230.3114186851211 L 359.6401384083045 230.3114186851211 L 361.4117647058824 223.2249134948097 L 361.4117647058824 223.2249134948097 Z M 42.51903114186851 170.07612456747404 Q 54.9204152249135 184.2491349480969 74.4083044982699 185.1349480968858 L 86.80968858131487 185.1349480968858 L 273.71626297577853 185.1349480968858 L 295.8615916955017 51.377162629757784 L 295.8615916955017 51.377162629757784 Q 300.29065743944636 31.003460207612456 321.5501730103806 29.231833910034602 Q 334.83737024221455 29.231833910034602 342.8096885813149 39.86159169550173 L 356.0968858131488 57.57785467128028 L 356.0968858131488 57.57785467128028 L 395.0726643598616 57.57785467128028 L 395.0726643598616 57.57785467128028 Q 412.78892733564015 57.57785467128028 425.1903114186851 69.97923875432527 L 441.1349480968858 85.92387543252595 L 441.1349480968858 85.92387543252595 L 469.48096885813146 85.92387543252595 L 469.48096885813146 85.92387543252595 Q 487.19723183391005 86.80968858131487 499.598615916955 98.32525951557093 Q 511.11418685121106 110.72664359861592 512 128.44290657439447 L 512 142.6159169550173 L 512 142.6159169550173 Q 511.11418685121106 178.93425605536333 487.19723183391005 202.85121107266437 Q 463.280276816609 226.7681660899654 426.961937716263 227.65397923875432 L 388.8719723183391 227.65397923875432 L 388.8719723183391 227.65397923875432 L 384.44290657439444 256 L 384.44290657439444 256 L 384.44290657439444 433.16262975778545 L 384.44290657439444 433.16262975778545 Q 383.55709342560556 454.42214532871975 370.2698961937716 468.5951557093426 Q 356.0968858131488 481.88235294117646 334.83737024221455 482.7681660899654 L 320.6643598615917 482.7681660899654 L 320.6643598615917 482.7681660899654 Q 299.4048442906574 481.88235294117646 285.2318339100346 468.5951557093426 Q 271.9446366782007 454.42214532871975 271.05882352941177 433.16262975778545 L 271.05882352941177 391.52941176470586 L 271.05882352941177 391.52941176470586 L 271.05882352941177 361.4117647058824 L 271.05882352941177 361.4117647058824 Q 257.7716262975779 365.84083044982697 242.71280276816609 367.61245674740485 Q 232.08304498269896 369.3840830449827 221.45328719723184 369.3840830449827 Q 210.8235294117647 369.3840830449827 200.19377162629758 367.61245674740485 Q 185.1349480968858 365.84083044982697 171.8477508650519 361.4117647058824 L 171.8477508650519 391.52941176470586 L 171.8477508650519 391.52941176470586 L 171.8477508650519 433.16262975778545 L 171.8477508650519 433.16262975778545 Q 170.96193771626298 454.42214532871975 157.67474048442907 468.5951557093426 Q 143.50173010380624 481.88235294117646 122.24221453287197 482.7681660899654 L 108.06920415224913 482.7681660899654 L 108.06920415224913 482.7681660899654 Q 86.80968858131487 481.88235294117646 72.63667820069205 468.5951557093426 Q 59.34948096885813 454.42214532871975 58.463667820069205 433.16262975778545 L 58.463667820069205 213.4809688581315 L 58.463667820069205 213.4809688581315 Q 58.463667820069205 212.59515570934255 58.463667820069205 211.70934256055364 Q 58.463667820069205 211.70934256055364 57.57785467128028 211.70934256055364 Q 57.57785467128028 211.70934256055364 56.69204152249135 211.70934256055364 Q 17.716262975778548 200.19377162629758 5.314878892733564 159.44636678200692 L 2.657439446366782 146.159169550173 L 2.657439446366782 146.159169550173 Q 0 132.8719723183391 12.401384083044983 128.44290657439447 Q 25.688581314878892 126.6712802768166 30.11764705882353 139.0726643598616 L 32.77508650519031 153.24567474048442 L 32.77508650519031 153.24567474048442 Q 33.660899653979236 154.13148788927336 33.660899653979236 155.01730103806227 Q 33.660899653979236 155.9031141868512 34.54671280276817 156.78892733564012 Q 37.20415224913495 163.87543252595157 42.51903114186851 170.07612456747404 L 42.51903114186851 170.07612456747404 Z M 384.44290657439444 114.26989619377163 Q 397.7301038062284 115.15570934256056 398.6159169550173 128.44290657439447 Q 397.7301038062284 141.73010380622839 384.44290657439444 142.6159169550173 Q 371.15570934256056 141.73010380622839 370.2698961937716 128.44290657439447 Q 371.15570934256056 115.15570934256056 384.44290657439444 114.26989619377163 L 384.44290657439444 114.26989619377163 Z" />
</svg>