<svg xmlns="http://www.w3.org/2000/svg" viewBox="0 0 512 512">
  <path d="M 159.6235294117647 144.56470588235294 L 159.6235294117647 77.30196078431372 L 159.6235294117647 144.56470588235294 L 159.6235294117647 77.30196078431372 L 256 35.13725490196079 L 256 35.13725490196079 L 352.3764705882353 77.30196078431372 L 352.3764705882353 77.30196078431372 L 352.3764705882353 144.56470588235294 L 352.3764705882353 144.56470588235294 L 159.6235294117647 144.56470588235294 L 159.6235294117647 144.56470588235294 Z M 127.49803921568628 77.30196078431372 L 127.49803921568628 144.56470588235294 L 127.49803921568628 77.30196078431372 L 127.49803921568628 144.56470588235294 L 127.49803921568628 160.62745098039215 L 127.49803921568628 160.62745098039215 L 127.49803921568628 176.69019607843137 L 127.49803921568628 176.69019607843137 L 127.49803921568628 176.69019607843137 L 127.49803921568628 176.69019607843137 Q 128.50196078431372 230.90196078431373 164.64313725490197 268.0470588235294 Q 201.78823529411764 304.18823529411765 256 305.1921568627451 Q 310.21176470588233 304.18823529411765 347.35686274509806 268.0470588235294 Q 383.4980392156863 230.90196078431373 384.5019607843137 176.69019607843137 L 384.5019607843137 176.69019607843137 L 384.5019607843137 176.69019607843137 L 384.5019607843137 160.62745098039215 L 384.5019607843137 160.62745098039215 L 384.5019607843137 144.56470588235294 L 384.5019607843137 144.56470588235294 L 384.5019607843137 77.30196078431372 L 384.5019607843137 77.30196078431372 Q 383.4980392156863 57.22352941176471 365.42745098039217 48.188235294117646 L 269.0509803921569 6.023529411764706 L 269.0509803921569 6.023529411764706 Q 256 0 242.94901960784313 6.023529411764706 L 146.57254901960783 48.188235294117646 L 146.57254901960783 48.188235294117646 Q 128.50196078431372 57.22352941176471 127.49803921568628 77.30196078431372 L 127.49803921568628 77.30196078431372 Z M 352.3764705882353 176.69019607843137 L 352.3764705882353 176.69019607843137 L 352.3764705882353 176.69019607843137 L 352.3764705882353 176.69019607843137 Q 351.37254901960785 217.85098039215686 324.26666666666665 244.95686274509805 Q 297.1607843137255 272.0627450980392 256 273.06666666666666 Q 228.89411764705883 273.06666666666666 206.8078431372549 260.0156862745098 Q 185.72549019607843 246.96470588235294 172.67450980392158 224.87843137254902 L 193.75686274509803 224.87843137254902 L 193.75686274509803 224.87843137254902 Q 220.86274509803923 224.87843137254902 243.95294117647057 211.82745098039214 Q 267.043137254902 198.7764705882353 281.0980392156863 176.69019607843137 L 352.3764705882353 176.69019607843137 L 352.3764705882353 176.69019607843137 Z M 238.93333333333334 176.69019607843137 Q 219.85882352941175 192.75294117647059 193.75686274509803 192.75294117647059 L 160.62745098039215 192.75294117647059 L 160.62745098039215 192.75294117647059 Q 159.6235294117647 184.72156862745098 159.6235294117647 176.69019607843137 L 159.6235294117647 176.69019607843137 L 159.6235294117647 176.69019607843137 L 238.93333333333334 176.69019607843137 L 238.93333333333334 176.69019607843137 Z M 152.59607843137255 357.39607843137253 L 221.86666666666667 426.6666666666667 L 152.59607843137255 357.39607843137253 L 221.86666666666667 426.6666666666667 Q 236.92549019607844 440.721568627451 256 440.721568627451 Q 275.07450980392156 440.721568627451 290.1333333333333 426.6666666666667 L 359.4039215686274 357.39607843137253 L 359.4039215686274 357.39607843137253 Q 398.55686274509804 371.45098039215685 423.6549019607843 403.5764705882353 Q 447.74901960784314 436.70588235294116 448.7529411764706 479.87450980392157 L 63.247058823529414 479.87450980392157 L 63.247058823529414 479.87450980392157 Q 64.25098039215686 436.70588235294116 88.34509803921569 403.5764705882353 Q 113.44313725490196 371.45098039215685 152.59607843137255 357.39607843137253 L 152.59607843137255 357.39607843137253 Z M 174.68235294117648 334.3058823529412 Q 162.63529411764705 322.25882352941176 145.5686274509804 326.27450980392155 Q 95.37254901960785 342.33725490196076 63.247058823529414 383.4980392156863 Q 32.12549019607843 425.66274509803924 31.12156862745098 480.878431372549 Q 31.12156862745098 493.9294117647059 40.15686274509804 502.9647058823529 Q 49.1921568627451 512 62.24313725490196 512 L 449.75686274509803 512 L 449.75686274509803 512 Q 462.8078431372549 512 471.84313725490193 502.9647058823529 Q 480.878431372549 493.9294117647059 480.878431372549 480.878431372549 Q 479.87450980392157 425.66274509803924 448.7529411764706 383.4980392156863 Q 416.62745098039215 342.33725490196076 366.4313725490196 326.27450980392155 Q 349.36470588235295 322.25882352941176 337.3176470588235 334.3058823529412 L 267.043137254902 404.58039215686273 L 267.043137254902 404.58039215686273 Q 256 413.6156862745098 244.95686274509805 404.58039215686273 L 174.68235294117648 334.3058823529412 L 174.68235294117648 334.3058823529412 Z M 239.93725490196078 56.219607843137254 L 239.93725490196078 72.28235294117647 L 239.93725490196078 56.219607843137254 L 239.93725490196078 72.28235294117647 L 223.87450980392157 72.28235294117647 L 223.87450980392157 72.28235294117647 Q 216.8470588235294 73.28627450980392 215.84313725490196 80.31372549019608 L 215.84313725490196 96.37647058823529 L 215.84313725490196 96.37647058823529 Q 216.8470588235294 103.40392156862745 223.87450980392157 104.4078431372549 L 239.93725490196078 104.4078431372549 L 239.93725490196078 104.4078431372549 L 239.93725490196078 120.47058823529412 L 239.93725490196078 120.47058823529412 Q 240.94117647058823 127.49803921568628 247.9686274509804 128.50196078431372 L 264.03137254901964 128.50196078431372 L 264.03137254901964 128.50196078431372 Q 271.05882352941177 127.49803921568628 272.0627450980392 120.47058823529412 L 272.0627450980392 104.4078431372549 L 272.0627450980392 104.4078431372549 L 288.12549019607843 104.4078431372549 L 288.12549019607843 104.4078431372549 Q 295.15294117647056 103.40392156862745 296.15686274509807 96.37647058823529 L 296.15686274509807 80.31372549019608 L 296.15686274509807 80.31372549019608 Q 295.15294117647056 73.28627450980392 288.12549019607843 72.28235294117647 L 272.0627450980392 72.28235294117647 L 272.0627450980392 72.28235294117647 L 272.0627450980392 56.219607843137254 L 272.0627450980392 56.219607843137254 Q 271.05882352941177 49.1921568627451 264.03137254901964 48.188235294117646 L 247.9686274509804 48.188235294117646 L 247.9686274509804 48.188235294117646 Q 240.94117647058823 49.1921568627451 239.93725490196078 56.219607843137254 L 239.93725490196078 56.219607843137254 Z" />
</svg>