<svg xmlns="http://www.w3.org/2000/svg" viewBox="0 0 512 512">
  <path d="M 319.38104 36.642166 Q 318.39072 16.83559 301.5551 7.922631 L 301.5551 7.922631 L 301.5551 7.922631 Q 285.70987 0 268.87427 10.893617 L 82.69246 150.52998 L 82.69246 150.52998 Q 44.069633 180.23984 23.272728 221.83365 Q 2.475822 263.42746 2.475822 311.95358 Q 4.4564795 396.13153 60.905224 453.5706 Q 117.353966 510.01935 201.53192 512 Q 250.05803 512 292.64218 490.21277 Q 334.23596 468.42554 363.94583 429.8027 L 496.6499 245.60155 L 496.6499 245.60155 Q 506.5532 228.76596 498.63055 211.93037 Q 490.70792 196.08511 470.90137 195.09477 L 445.1528 195.09477 L 445.1528 195.09477 L 506.5532 54.468086 L 506.5532 54.468086 Q 509.52417 47.53578 509.52417 40.60348 Q 509.52417 25.748549 499.62088 14.854932 Q 488.72726 4.951644 473.87234 4.951644 Q 466.94003 4.951644 460.00775 7.922631 L 319.38104 69.32302 L 319.38104 69.32302 L 319.38104 36.642166 L 319.38104 36.642166 Z M 472.88202 36.642166 Q 472.88202 36.642166 473.87234 36.642166 Q 477.83365 36.642166 477.83365 40.60348 Q 477.83365 41.59381 477.83365 41.59381 L 405.53964 204.99806 L 405.53964 204.99806 Q 402.56866 212.9207 407.52032 219.853 Q 411.48163 226.7853 420.3946 226.7853 L 470.90137 226.7853 L 470.90137 226.7853 L 338.1973 410.98645 L 338.1973 410.98645 Q 313.43906 443.6673 277.78723 461.49323 Q 243.12573 480.30948 201.53192 480.30948 Q 130.22824 478.32883 83.682785 430.79303 Q 36.147003 383.25726 34.166344 311.95358 Q 34.166344 271.3501 51.992264 235.69826 Q 69.818184 200.04642 101.508705 176.27853 L 287.69052 36.642166 L 287.69052 36.642166 L 287.69052 94.08124 L 287.69052 94.08124 Q 287.69052 102.00387 294.62283 106.95551 Q 302.54544 111.90716 310.46808 108.93617 L 472.88202 36.642166 L 472.88202 36.642166 Z M 169.8414 286.20502 Q 185.68666 283.23404 193.60928 268.37912 L 208.46422 238.66925 L 208.46422 238.66925 L 223.31915 268.37912 L 223.31915 268.37912 Q 231.24178 283.23404 247.08704 286.20502 L 279.76788 291.15668 L 279.76788 291.15668 L 256 313.93423 L 256 313.93423 Q 245.10638 325.81818 247.08704 341.66345 L 253.029 374.3443 L 253.029 374.3443 L 223.31915 359.48935 L 223.31915 359.48935 Q 208.46422 351.56674 193.60928 359.48935 L 163.89941 374.3443 L 163.89941 374.3443 L 169.8414 341.66345 L 169.8414 341.66345 Q 171.82205 325.81818 160.92844 313.93423 L 137.16054 291.15668 L 137.16054 291.15668 L 169.8414 286.20502 L 169.8414 286.20502 Z M 222.32883 196.08511 Q 218.36751 187.17215 208.46422 187.17215 Q 198.56093 187.17215 194.59961 196.08511 L 165.88008 254.51451 L 165.88008 254.51451 L 100.51837 264.4178 L 100.51837 264.4178 Q 91.605415 265.4081 87.644104 275.3114 Q 85.663445 284.22437 91.605415 291.15668 L 139.1412 336.7118 L 139.1412 336.7118 L 127.257256 401.08316 L 127.257256 401.08316 Q 126.26692 410.98645 134.18956 416.92844 Q 142.11218 421.88007 151.02515 417.91876 L 208.46422 387.21857 L 208.46422 387.21857 L 265.9033 417.91876 L 265.9033 417.91876 Q 274.81625 421.88007 282.7389 416.92844 Q 290.6615 410.98645 289.67117 401.08316 L 277.78723 336.7118 L 277.78723 336.7118 L 325.32303 291.15668 L 325.32303 291.15668 Q 331.26498 284.22437 329.28433 275.3114 Q 325.32303 265.4081 316.41006 264.4178 L 251.04836 254.51451 L 251.04836 254.51451 L 222.32883 196.08511 L 222.32883 196.08511 Z" />
</svg>