<svg xmlns="http://www.w3.org/2000/svg" viewBox="0 0 448 448">
    <path d="M 160 416 Q 106 415 69 379 L 69 379 Q 33 342 32 288 Q 33 224 58 177 Q 84 129 124 97 Q 164 64 206 48 Q 249 32 280 32 Q 309 34 339 55 Q 353 64 362 72 Q 366 75 368 77 Q 369 78 369 78 Q 369 78 369 78 L 369 79 L 370 79 Q 370 79 370 79 Q 371 80 371 80 Q 373 82 377 87 Q 384 95 393 109 Q 414 139 416 168 Q 416 199 400 242 Q 384 284 351 324 Q 319 364 271 390 Q 224 415 160 416 L 160 416 Z M 0 288 Q 2 356 47 401 L 47 401 Q 92 446 160 448 Q 256 446 320 397 Q 384 349 416 284 Q 448 220 448 168 Q 447 139 433 114 Q 420 89 407 73 Q 393 57 392 56 Q 391 55 375 41 Q 359 28 334 15 Q 309 1 280 0 Q 228 0 164 32 Q 99 64 51 128 Q 2 192 0 288 L 0 288 Z M 260 100 Q 265 94 285 97 Q 305 102 326 122 Q 346 143 351 163 Q 354 182 348 187 Q 342 194 323 190 Q 303 186 282 166 Q 262 145 257 125 Q 254 105 260 100 L 260 100 Z M 348 100 Q 322 74 292 66 Q 262 58 238 78 Q 218 102 226 132 Q 234 162 260 188 Q 286 214 316 222 Q 346 230 370 210 Q 390 186 382 156 Q 374 126 348 100 L 348 100 Z"/>
</svg>
