<svg xmlns="http://www.w3.org/2000/svg" viewBox="0 0 516 516">
    <path d="M 373 15 Q 371 7 364 3 Q 356 0 348 5 L 258 67 L 168 5 Q 160 0 153 3 Q 145 7 143 15 L 123 123 L 15 143 Q 7 145 3 152 Q 0 160 5 168 L 67 258 L 5 348 Q 0 356 3 364 Q 7 371 15 373 L 123 393 L 143 501 Q 145 509 152 513 Q 160 516 168 511 L 258 449 L 348 511 Q 356 516 364 513 Q 371 509 373 501 L 393 393 L 501 373 Q 509 371 513 364 Q 516 356 511 348 L 449 258 L 511 168 Q 516 160 513 153 Q 509 145 501 143 L 393 123 L 373 15 L 373 15 Z M 267 100 L 346 45 L 364 140 Q 366 150 376 153 L 471 170 L 416 249 Q 411 258 416 267 L 471 346 L 376 364 Q 366 366 364 377 L 346 471 L 267 417 Q 258 411 249 417 L 170 471 L 152 377 Q 150 366 140 364 L 45 346 L 100 267 Q 105 258 100 249 L 45 170 L 140 152 Q 150 150 153 140 L 170 45 L 249 100 Q 258 105 267 100 L 267 100 Z M 258 386 Q 293 386 322 369 L 322 369 Q 351 352 369 322 Q 386 292 386 258 Q 386 224 369 194 Q 351 164 322 147 Q 293 130 258 130 Q 223 130 194 147 Q 165 164 147 194 Q 130 224 130 258 Q 130 292 147 322 Q 165 352 194 369 Q 223 386 258 386 L 258 386 Z M 162 258 Q 162 232 175 210 L 175 210 Q 188 188 210 175 Q 233 162 258 162 Q 283 162 306 175 Q 328 188 341 210 Q 354 232 354 258 Q 354 284 341 306 Q 328 328 306 341 Q 283 354 258 354 Q 233 354 210 341 Q 188 328 175 306 Q 162 284 162 258 L 162 258 Z"/>
</svg>
