<svg xmlns="http://www.w3.org/2000/svg" viewBox="0 0 517 517">
    <path d="M 451 33 Q 452 32 453 32 Q 454 32 455 33 L 484 62 Q 485 63 485 64 Q 485 65 484 66 L 445 105 L 402 115 L 412 72 L 451 33 L 451 33 Z M 381 61 L 366 128 L 331 164 Q 291 131 247 128 Q 203 125 173 154 Q 155 172 149 197 Q 146 211 135 221 Q 124 230 110 232 Q 67 234 36 263 Q 0 302 6 357 Q 12 413 57 460 Q 104 506 160 511 Q 215 517 254 481 Q 283 450 285 407 Q 286 393 296 382 Q 306 371 320 368 Q 345 362 363 344 Q 392 314 389 270 Q 386 226 354 186 L 389 151 L 457 136 Q 461 135 464 131 L 507 89 Q 517 79 517 64 Q 517 49 507 39 L 478 10 Q 468 0 453 0 Q 438 0 428 10 L 386 53 Q 382 56 381 61 L 381 61 Z M 308 186 L 234 261 Q 224 256 213 256 Q 193 256 179 270 Q 166 284 165 304 Q 166 324 179 338 Q 193 351 213 352 Q 233 351 247 338 Q 260 324 261 304 Q 261 293 256 283 L 331 209 Q 356 242 357 273 Q 357 304 340 322 Q 329 333 313 337 Q 289 342 272 361 Q 255 379 253 406 Q 252 438 232 458 Q 206 483 163 479 Q 120 476 79 438 Q 41 397 38 354 Q 34 311 59 285 Q 79 265 111 264 Q 138 262 156 245 Q 175 228 180 204 Q 184 188 195 177 Q 213 159 244 160 Q 275 161 308 186 L 308 186 Z M 213 288 Q 228 289 229 304 Q 228 319 213 320 Q 198 319 197 304 Q 198 289 213 288 L 213 288 Z"/>
</svg>
