<svg xmlns="http://www.w3.org/2000/svg" viewBox="0 0 512 512">
  <path d="M 346.1183800623053 51.0404984423676 Q 319.0031152647975 51.838006230529594 300.66043613707166 69.38317757009345 L 300.66043613707166 69.38317757009345 L 300.66043613707166 69.38317757009345 Q 283.1152647975078 87.72585669781931 282.31775700934577 114.8411214953271 L 282.31775700934577 357.2834890965732 L 282.31775700934577 357.2834890965732 Q 282.31775700934577 358.8785046728972 282.31775700934577 360.47352024922117 Q 282.31775700934577 360.47352024922117 282.31775700934577 360.47352024922117 L 11.165109034267912 434.6417445482866 L 11.165109034267912 434.6417445482866 Q 0 438.62928348909657 2.392523364485981 449.7943925233645 Q 6.38006230529595 460.9595015576324 17.54517133956386 458.56697819314644 L 333.3582554517134 373.23364485981307 L 333.3582554517134 373.23364485981307 Q 335.7507788161994 409.9190031152648 360.47352024922117 433.8442367601246 Q 385.196261682243 458.56697819314644 422.6791277258567 459.3644859813084 Q 460.9595015576324 458.56697819314644 485.68224299065423 433.04672897196264 Q 511.20249221183803 408.3239875389408 512 370.0436137071651 Q 511.20249221183803 331.7632398753894 485.68224299065423 307.0404984423676 Q 460.9595015576324 281.5202492211838 422.6791277258567 280.7227414330218 Q 391.57632398753896 281.5202492211838 368.4485981308411 299.06542056074767 Q 345.3208722741433 316.61059190031153 336.54828660436135 345.3208722741433 L 336.54828660436135 345.3208722741433 L 336.54828660436135 345.3208722741433 L 307.8380062305296 353.29595015576325 L 307.8380062305296 353.29595015576325 L 307.8380062305296 114.8411214953271 L 307.8380062305296 114.8411214953271 Q 308.6355140186916 98.89096573208722 319.0031152647975 87.72585669781931 Q 330.1682242990654 77.35825545171339 346.1183800623053 76.5607476635514 L 499.2398753894081 76.5607476635514 L 499.2398753894081 76.5607476635514 Q 511.20249221183803 75.7632398753894 512 63.8006230529595 Q 511.20249221183803 51.838006230529594 499.2398753894081 51.0404984423676 L 346.1183800623053 51.0404984423676 L 346.1183800623053 51.0404984423676 Z M 422.6791277258567 306.2429906542056 Q 458.56697819314644 307.0404984423676 477.7071651090343 338.14330218068534 Q 495.25233644859816 370.0436137071651 477.7071651090343 401.94392523364485 Q 458.56697819314644 433.04672897196264 422.6791277258567 433.8442367601246 Q 386.791277258567 433.04672897196264 367.65109034267914 401.94392523364485 Q 350.1059190031153 370.0436137071651 367.65109034267914 338.14330218068534 Q 386.791277258567 307.0404984423676 422.6791277258567 306.2429906542056 L 422.6791277258567 306.2429906542056 Z" />
</svg>