<svg xmlns="http://www.w3.org/2000/svg" viewBox="0 0 448 320">
    <path d="M 408 288 Q 415 287 416 280 L 416 232 Q 415 225 408 224 L 360 224 Q 353 225 352 232 L 352 280 Q 353 287 360 288 L 408 288 L 408 288 Z M 448 280 Q 448 297 436 308 L 436 308 Q 425 320 408 320 L 360 320 Q 343 320 332 308 Q 320 297 320 280 L 320 232 Q 320 215 332 204 Q 343 192 360 192 L 408 192 Q 425 192 436 204 Q 448 215 448 232 L 448 280 L 448 280 Z M 408 96 Q 415 95 416 88 L 416 40 Q 415 33 408 32 L 360 32 Q 353 33 352 40 L 352 88 Q 353 95 360 96 L 408 96 L 408 96 Z M 448 88 Q 448 105 436 116 L 436 116 Q 425 128 408 128 L 360 128 Q 343 128 332 116 Q 320 105 320 88 L 320 40 Q 320 23 332 12 Q 343 0 360 0 L 408 0 Q 425 0 436 12 Q 448 23 448 40 L 448 88 L 448 88 Z M 200 288 L 248 288 Q 255 287 256 280 L 256 232 Q 255 225 248 224 L 200 224 Q 193 225 192 232 L 192 280 Q 193 287 200 288 L 200 288 Z M 248 320 L 200 320 Q 183 320 172 308 Q 160 297 160 280 L 160 232 Q 160 215 172 204 Q 183 192 200 192 L 248 192 Q 265 192 276 204 Q 288 215 288 232 L 288 280 Q 288 297 276 308 Q 265 320 248 320 L 248 320 Z M 248 96 Q 255 95 256 88 L 256 40 Q 255 33 248 32 L 200 32 Q 193 33 192 40 L 192 88 Q 193 95 200 96 L 248 96 L 248 96 Z M 288 88 Q 288 105 276 116 L 276 116 Q 265 128 248 128 L 200 128 Q 183 128 172 116 Q 160 105 160 88 L 160 40 Q 160 23 172 12 Q 183 0 200 0 L 248 0 Q 265 0 276 12 Q 288 23 288 40 L 288 88 L 288 88 Z M 40 288 L 88 288 Q 95 287 96 280 L 96 232 Q 95 225 88 224 L 40 224 Q 33 225 32 232 L 32 280 Q 33 287 40 288 L 40 288 Z M 88 320 L 40 320 Q 23 320 12 308 Q 0 297 0 280 L 0 232 Q 0 215 12 204 Q 23 192 40 192 L 88 192 Q 105 192 116 204 Q 128 215 128 232 L 128 280 Q 128 297 116 308 Q 105 320 88 320 L 88 320 Z M 88 96 Q 95 95 96 88 L 96 40 Q 95 33 88 32 L 40 32 Q 33 33 32 40 L 32 88 Q 33 95 40 96 L 88 96 L 88 96 Z M 128 88 Q 128 105 116 116 L 116 116 Q 105 128 88 128 L 40 128 Q 23 128 12 116 Q 0 105 0 88 L 0 40 Q 0 23 12 12 Q 23 0 40 0 L 88 0 Q 105 0 116 12 Q 128 23 128 40 L 128 88 L 128 88 Z"/>
</svg>
