<svg xmlns="http://www.w3.org/2000/svg" viewBox="0 0 576 320">
    <path d="M 416 32 Q 470 33 507 69 L 507 69 Q 543 106 544 160 Q 543 214 507 251 Q 470 287 416 288 L 160 288 Q 106 287 69 251 Q 33 214 32 160 Q 33 106 69 69 Q 106 33 160 32 L 416 32 L 416 32 Z M 576 160 Q 574 92 529 47 L 529 47 Q 484 2 416 0 L 160 0 Q 92 2 47 47 Q 2 92 0 160 Q 2 228 47 273 Q 92 318 160 320 L 416 320 Q 484 318 529 273 Q 574 228 576 160 L 576 160 Z M 224 160 Q 223 196 192 215 Q 160 233 128 215 Q 97 196 96 160 Q 97 124 128 105 Q 160 87 192 105 Q 223 124 224 160 L 224 160 Z M 64 160 Q 64 186 77 208 L 77 208 Q 90 230 112 243 Q 135 256 160 256 Q 185 256 208 243 Q 230 230 243 208 Q 256 186 256 160 Q 256 134 243 112 Q 230 90 208 77 Q 185 64 160 64 Q 135 64 112 77 Q 90 90 77 112 Q 64 134 64 160 L 64 160 Z"/>
</svg>
