<svg xmlns="http://www.w3.org/2000/svg" viewBox="0 0 512 384">
    <path d="M 28 0 Q 16 0 8 8 L 8 8 Q 0 16 0 28 Q 0 38 7 46 L 112 166 L 112 296 Q 112 312 125 322 L 201 379 Q 207 384 216 384 Q 238 382 240 360 L 240 166 L 345 46 Q 352 38 352 28 Q 352 16 344 8 Q 336 0 324 0 L 28 0 L 28 0 Z M 140 150 L 37 32 L 315 32 L 212 150 Q 208 154 208 160 L 208 344 L 144 296 L 144 160 Q 144 154 140 150 L 140 150 Z M 336 336 Q 321 337 320 352 Q 321 367 336 368 L 496 368 Q 511 367 512 352 Q 511 337 496 336 L 336 336 L 336 336 Z M 320 192 Q 321 207 336 208 L 496 208 Q 511 207 512 192 Q 511 177 496 176 L 336 176 Q 321 177 320 192 L 320 192 Z M 400 16 Q 385 17 384 32 Q 385 47 400 48 L 496 48 Q 511 47 512 32 Q 511 17 496 16 L 400 16 L 400 16 Z"/>
</svg>
