<svg xmlns="http://www.w3.org/2000/svg" viewBox="0 0 512 512">
  <path d="M 271.84528 59.419727 L 356.02322 142.60735 L 271.84528 59.419727 L 356.02322 142.60735 Q 366.91684 152.51064 377.81046 142.60735 Q 387.71375 131.71373 377.81046 120.820114 L 266.89362 9.903288 L 266.89362 9.903288 Q 256 0 245.10638 9.903288 L 134.18956 120.820114 L 134.18956 120.820114 Q 124.28627 131.71373 134.18956 142.60735 Q 145.08318 152.51064 155.97679 142.60735 L 240.15474 59.419727 L 240.15474 59.419727 L 240.15474 306.0116 L 240.15474 306.0116 Q 241.14507 320.86655 256 321.85687 Q 270.85492 320.86655 271.84528 306.0116 L 271.84528 59.419727 L 271.84528 59.419727 Z M 50.011604 353.5474 L 115.37331 353.5474 L 50.011604 353.5474 L 115.37331 353.5474 Q 125.276596 353.5474 130.22824 362.46036 L 144.09285 391.17987 L 144.09285 391.17987 Q 157.95744 415.9381 186.67699 416.92844 L 325.32303 416.92844 L 325.32303 416.92844 Q 354.04254 415.9381 367.90717 391.17987 L 339.18762 376.32495 L 339.18762 376.32495 L 367.90717 391.17987 L 367.90717 391.17987 L 381.77176 362.46036 L 381.77176 362.46036 Q 386.72342 353.5474 396.62668 353.5474 L 461.9884 353.5474 L 461.9884 353.5474 Q 476.84332 355.52805 477.83365 369.39264 L 477.83365 464.4642 L 477.83365 464.4642 Q 476.84332 479.31915 461.9884 480.30948 L 50.011604 480.30948 L 50.011604 480.30948 Q 35.156673 479.31915 34.166344 464.4642 L 34.166344 369.39264 L 34.166344 369.39264 Q 35.156673 354.53772 50.011604 353.5474 L 50.011604 353.5474 Z M 354.04254 348.59573 L 339.18762 376.32495 L 354.04254 348.59573 L 339.18762 376.32495 Q 335.22632 385.2379 325.32303 385.2379 L 186.67699 385.2379 L 186.67699 385.2379 Q 176.7737 385.2379 172.81238 376.32495 L 157.95744 348.59573 L 157.95744 348.59573 Q 144.09285 322.8472 115.37331 321.85687 L 50.011604 321.85687 L 50.011604 321.85687 Q 30.205029 322.8472 16.340425 335.72147 Q 3.4661508 349.58606 2.475822 369.39264 L 2.475822 464.4642 L 2.475822 464.4642 Q 3.4661508 484.27078 16.340425 498.1354 Q 30.205029 511.00967 50.011604 512 L 461.9884 512 L 461.9884 512 Q 481.79498 511.00967 495.65958 498.1354 Q 508.53384 484.27078 509.52417 464.4642 L 509.52417 369.39264 L 509.52417 369.39264 Q 508.53384 349.58606 495.65958 335.72147 Q 481.79498 322.8472 461.9884 321.85687 L 396.62668 321.85687 L 396.62668 321.85687 Q 367.90717 322.8472 354.04254 348.59573 L 354.04254 348.59573 Z" />
</svg>