<svg xmlns="http://www.w3.org/2000/svg" viewBox="0 0 512 512">
  <path d="M 160 232 L 160 175 L 160 232 L 160 175 Q 159 169 153 168 Q 150 168 148 170 L 36 296 L 36 296 L 148 422 L 148 422 Q 150 424 153 424 Q 159 423 160 417 L 160 360 L 160 360 Q 160 346 169 337 Q 178 328 192 328 L 368 328 L 368 328 Q 416 327 447 295 Q 479 264 480 216 L 480 104 L 480 104 Q 479 89 464 88 L 432 88 L 432 88 Q 417 89 416 104 L 416 216 L 416 216 Q 415 236 402 250 Q 388 263 368 264 L 192 264 L 192 264 Q 178 264 169 255 Q 160 246 160 232 L 160 232 Z M 5 310 Q 0 304 0 296 Q 0 288 5 282 L 125 149 L 125 149 Q 136 136 153 136 Q 170 136 181 147 Q 192 158 192 175 L 192 200 L 192 200 L 192 232 L 192 232 L 224 232 L 368 232 Q 383 231 384 216 L 384 104 L 384 104 Q 385 84 398 70 Q 412 57 432 56 L 464 56 L 464 56 Q 484 57 498 70 Q 511 84 512 104 L 512 216 L 512 216 Q 510 277 470 318 Q 429 358 368 360 L 224 360 L 192 360 L 192 392 L 192 392 L 192 417 L 192 417 Q 192 434 181 445 Q 170 456 153 456 Q 136 456 125 443 L 5 310 L 5 310 Z" />
</svg>