<svg xmlns="http://www.w3.org/2000/svg" viewBox="0 0 482 517">
    <path d="M 229 39 Q 241 34 254 39 L 430 114 Q 448 123 449 142 Q 449 190 433 254 Q 416 317 373 377 Q 331 438 254 476 Q 241 482 228 476 Q 151 437 108 377 Q 66 317 49 254 Q 33 190 33 142 Q 34 123 52 114 L 229 39 L 229 39 Z M 266 10 Q 241 0 216 10 L 39 85 Q 22 92 12 107 Q 1 122 1 142 Q 0 193 18 262 Q 36 331 83 396 Q 129 462 215 505 Q 241 517 267 505 Q 353 462 399 396 Q 446 331 464 262 Q 482 193 481 142 Q 481 122 470 107 Q 460 92 443 85 L 266 10 L 266 10 Z M 147 216 Q 148 201 158 191 L 158 191 Q 168 181 183 181 Q 198 181 208 191 L 230 213 Q 234 218 241 218 Q 248 218 252 213 L 274 191 Q 284 181 299 181 Q 314 181 324 191 Q 334 201 335 216 L 335 218 Q 335 233 324 244 L 241 329 L 158 244 Q 147 233 147 218 L 147 216 L 147 216 Z M 183 149 Q 154 149 135 168 L 135 168 Q 116 188 115 216 L 115 218 Q 116 246 135 266 L 230 363 Q 234 367 241 367 Q 248 367 252 363 L 347 266 Q 366 246 367 218 L 367 216 Q 366 188 347 168 Q 328 149 299 149 Q 271 149 251 169 L 241 179 L 231 169 Q 211 149 183 149 L 183 149 Z"/>
</svg>
