<svg xmlns="http://www.w3.org/2000/svg" viewBox="0 0 512 512">
  <path d="M 252.04633204633205 38.54826254826255 L 82.03861003861005 137.3899613899614 L 252.04633204633205 38.54826254826255 L 82.03861003861005 137.3899613899614 L 256 237.22007722007723 L 256 237.22007722007723 L 429.96138996138995 134.4247104247104 L 429.96138996138995 134.4247104247104 L 259.95366795366795 38.54826254826255 L 259.95366795366795 38.54826254826255 L 271.81467181467184 17.79150579150579 L 271.81467181467184 17.79150579150579 L 259.95366795366795 38.54826254826255 L 259.95366795366795 38.54826254826255 Q 256 35.58301158301158 252.04633204633205 38.54826254826255 L 252.04633204633205 38.54826254826255 Z M 66.22393822393822 165.06563706563708 L 66.22393822393822 365.7142857142857 L 66.22393822393822 165.06563706563708 L 66.22393822393822 365.7142857142857 Q 66.22393822393822 369.66795366795367 70.17760617760618 372.6332046332046 L 240.1853281853282 467.5212355212355 L 240.1853281853282 467.5212355212355 L 240.1853281853282 264.8957528957529 L 240.1853281853282 264.8957528957529 L 66.22393822393822 165.06563706563708 L 66.22393822393822 165.06563706563708 Z M 271.81467181467184 467.5212355212355 L 441.82239382239385 372.6332046332046 L 271.81467181467184 467.5212355212355 L 441.82239382239385 372.6332046332046 Q 445.7760617760618 369.66795366795367 445.7760617760618 365.7142857142857 L 445.7760617760618 162.1003861003861 L 445.7760617760618 162.1003861003861 L 271.81467181467184 264.8957528957529 L 271.81467181467184 264.8957528957529 L 271.81467181467184 467.5212355212355 L 271.81467181467184 467.5212355212355 Z M 236.23166023166024 10.872586872586872 Q 256 0 275.7683397683398 10.872586872586872 L 457.63706563706563 113.66795366795367 L 457.63706563706563 113.66795366795367 Q 476.41698841698843 125.52895752895753 477.4054054054054 148.26254826254825 L 477.4054054054054 365.7142857142857 L 477.4054054054054 365.7142857142857 Q 476.41698841698843 388.44787644787647 457.63706563706563 400.3088803088803 L 275.7683397683398 502.11583011583014 L 275.7683397683398 502.11583011583014 Q 256 512 236.23166023166024 502.11583011583014 L 54.36293436293436 400.3088803088803 L 54.36293436293436 400.3088803088803 Q 35.58301158301158 388.44787644787647 34.5945945945946 365.7142857142857 L 34.5945945945946 151.22779922779924 L 34.5945945945946 151.22779922779924 Q 35.58301158301158 129.48262548262548 54.36293436293436 117.62162162162163 L 236.23166023166024 10.872586872586872 L 236.23166023166024 10.872586872586872 Z" />
</svg>