<svg xmlns="http://www.w3.org/2000/svg" viewBox="0 0 512 512">
  <path d="M 192.24902 414.38132 Q 192.24902 400.4358 183.28404 391.47083 L 183.28404 391.47083 L 183.28404 391.47083 Q 174.31906 382.50583 160.37354 382.50583 L 64.74708 382.50583 L 64.74708 382.50583 Q 50.801556 382.50583 41.836575 373.54086 Q 32.871593 364.57587 32.871593 350.63034 L 32.871593 63.750973 L 32.871593 63.750973 Q 32.871593 49.805447 41.836575 40.840466 Q 50.801556 31.875486 64.74708 31.875486 L 447.25293 31.875486 L 447.25293 31.875486 Q 461.19846 31.875486 470.16342 40.840466 Q 479.12842 49.805447 479.12842 63.750973 L 479.12842 350.63034 L 479.12842 350.63034 Q 479.12842 364.57587 470.16342 373.54086 Q 461.19846 382.50583 447.25293 382.50583 L 308.79376 382.50583 L 308.79376 382.50583 Q 298.83267 382.50583 289.8677 388.48248 L 192.24902 462.19455 L 192.24902 462.19455 L 192.24902 414.38132 L 192.24902 414.38132 Z M 64.74708 0 Q 37.85214 0.99610895 19.922178 18.92607 L 19.922178 18.92607 L 19.922178 18.92607 Q 1.9922179 36.85603 0.99610895 63.750973 L 0.99610895 350.63034 L 0.99610895 350.63034 Q 1.9922179 377.5253 19.922178 395.45526 Q 37.85214 413.38522 64.74708 414.38132 L 128.49805 414.38132 L 160.37354 414.38132 L 160.37354 446.2568 L 160.37354 446.2568 L 160.37354 494.07004 L 160.37354 494.07004 Q 160.37354 504.03113 169.33852 508.01556 Q 178.3035 512 186.27237 507.01947 L 308.79376 414.38132 L 308.79376 414.38132 L 447.25293 414.38132 L 447.25293 414.38132 Q 474.14786 413.38522 492.07782 395.45526 Q 510.00778 377.5253 511.0039 350.63034 L 511.0039 63.750973 L 511.0039 63.750973 Q 510.00778 36.85603 492.07782 18.92607 Q 474.14786 0.99610895 447.25293 0 L 64.74708 0 L 64.74708 0 Z M 80.68482 223.1284 Q 65.74319 224.12451 64.74708 239.06615 Q 65.74319 254.00778 80.68482 255.00389 L 303.81323 255.00389 L 303.81323 255.00389 Q 318.75485 254.00778 319.75098 239.06615 Q 318.75485 224.12451 303.81323 223.1284 L 80.68482 223.1284 L 80.68482 223.1284 Z M 367.5642 223.1284 Q 352.62256 224.12451 351.62646 239.06615 Q 352.62256 254.00778 367.5642 255.00389 L 431.3152 255.00389 L 431.3152 255.00389 Q 446.2568 254.00778 447.25293 239.06615 Q 446.2568 224.12451 431.3152 223.1284 L 367.5642 223.1284 L 367.5642 223.1284 Z M 80.68482 286.87936 Q 65.74319 287.8755 64.74708 302.8171 Q 65.74319 317.75876 80.68482 318.75485 L 176.31128 318.75485 L 176.31128 318.75485 Q 191.25291 317.75876 192.24902 302.8171 Q 191.25291 287.8755 176.31128 286.87936 L 80.68482 286.87936 L 80.68482 286.87936 Z M 240.06226 286.87936 Q 225.12062 287.8755 224.12451 302.8171 Q 225.12062 317.75876 240.06226 318.75485 L 431.3152 318.75485 L 431.3152 318.75485 Q 446.2568 317.75876 447.25293 302.8171 Q 446.2568 287.8755 431.3152 286.87936 L 240.06226 286.87936 L 240.06226 286.87936 Z" />
</svg>