<svg xmlns="http://www.w3.org/2000/svg" viewBox="0 0 448 448">
    <path d="M 64 32 Q 50 32 41 41 L 41 41 Q 32 50 32 64 L 32 384 Q 32 398 41 407 Q 50 416 64 416 L 384 416 Q 398 416 407 407 Q 416 398 416 384 L 416 64 Q 416 50 407 41 Q 398 32 384 32 L 64 32 L 64 32 Z M 0 64 Q 1 37 19 19 L 19 19 Q 37 1 64 0 L 384 0 Q 411 1 429 19 Q 447 37 448 64 L 448 384 Q 447 411 429 429 Q 411 447 384 448 L 64 448 Q 37 447 19 429 Q 1 411 0 384 L 0 64 L 0 64 Z M 208 320 L 208 240 L 128 240 Q 113 239 112 224 Q 113 209 128 208 L 208 208 L 208 128 Q 209 113 224 112 Q 239 113 240 128 L 240 208 L 320 208 Q 335 209 336 224 Q 335 239 320 240 L 240 240 L 240 320 Q 239 335 224 336 Q 209 335 208 320 L 208 320 Z"/>
</svg>
