<svg xmlns="http://www.w3.org/2000/svg" viewBox="0 0 512 514">
    <path d="M 264 4 Q 256 0 248 4 L 16 136 Q 1 145 0 163 Q 0 176 9 185 Q 18 194 31 194 L 256 194 L 481 194 Q 494 194 503 185 Q 512 176 512 163 Q 511 145 496 136 L 264 4 L 264 4 Z M 307 162 Q 312 151 312 138 Q 311 114 296 98 Q 280 83 256 82 Q 232 83 216 98 Q 201 114 200 138 Q 200 151 205 162 L 34 162 L 256 36 L 478 162 L 307 162 L 307 162 Z M 256 114 Q 278 116 280 138 Q 278 160 256 162 Q 234 160 232 138 Q 234 116 256 114 L 256 114 Z M 64 354 Q 49 355 48 370 Q 49 385 64 386 L 448 386 Q 463 385 464 370 Q 463 355 448 354 L 448 226 L 416 226 L 416 354 L 336 354 L 336 226 L 304 226 L 304 354 L 208 354 L 208 226 L 176 226 L 176 354 L 96 354 L 96 226 L 64 226 L 64 354 L 64 354 Z M 40 418 Q 25 419 24 434 Q 25 449 40 450 L 472 450 Q 487 449 488 434 Q 487 419 472 418 L 40 418 L 40 418 Z M 16 482 Q 1 483 0 498 Q 1 513 16 514 L 496 514 Q 511 513 512 498 Q 511 483 496 482 L 16 482 L 16 482 Z"/>
</svg>
