<svg xmlns="http://www.w3.org/2000/svg" viewBox="0 0 512 512">
  <path d="M 126.60653 110.68118 Q 140.93935 105.10731 155.27216 109.88492 L 298.6003 162.43857 L 298.6003 162.43857 Q 304.1742 164.0311 308.95178 161.6423 L 379.02332 125.810265 L 379.02332 125.810265 Q 398.13376 116.25505 419.63297 116.25505 L 468.2053 116.25505 L 468.2053 116.25505 Q 476.16797 116.25505 479.35303 122.62519 Q 483.33438 128.19907 480.94556 136.16174 Q 461.03888 176.77138 421.2255 197.47433 L 203.84448 305.76672 L 203.84448 305.76672 Q 200.65941 307.35925 197.47433 307.35925 L 86.79316 307.35925 L 86.79316 307.35925 Q 82.01555 307.35925 78.03422 303.37793 L 27.073095 253.21306 L 27.073095 253.21306 L 46.183514 242.06532 L 46.183514 242.06532 Q 51.75739 238.88025 57.33126 241.26906 L 102.718506 261.97202 L 102.718506 261.97202 Q 108.29238 264.3608 113.86625 261.17575 L 205.43701 214.19595 L 205.43701 214.19595 Q 211.80716 211.01088 212.60342 203.84448 Q 212.60342 196.67807 206.23328 191.90047 L 97.14464 124.21773 L 97.14464 124.21773 L 91.57076 113.069984 L 91.57076 113.069984 L 97.14464 124.21773 L 97.14464 124.21773 L 126.60653 110.68118 L 126.60653 110.68118 Z M 164.0311 85.99689 Q 139.34682 77.237946 116.25505 87.589424 L 86.79316 101.12597 L 86.79316 101.12597 Q 72.46034 108.29238 71.66408 122.62519 Q 70.867805 136.95801 83.608086 145.71695 L 174.38258 202.25194 L 174.38258 202.25194 L 108.29238 235.69518 L 108.29238 235.69518 L 67.68274 218.17729 L 67.68274 218.17729 L 62.905132 229.32504 L 62.905132 229.32504 L 67.68274 218.17729 L 67.68274 218.17729 Q 50.164852 211.01088 33.443233 219.76984 L 14.332815 230.91757 L 14.332815 230.91757 Q 3.18507 237.28772 1.592535 249.23172 Q 0 261.17575 8.758943 270.73096 L 59.720062 321.69208 L 59.720062 321.69208 Q 70.867805 332.8398 86.79316 332.8398 L 197.47433 332.8398 L 197.47433 332.8398 Q 207.02956 332.8398 214.99222 328.8585 L 432.37326 219.76984 L 432.37326 219.76984 Q 480.94556 195.08554 504.03732 146.51321 Q 512 125.810265 500.85226 109.088646 Q 490.50076 91.57076 468.2053 90.7745 L 419.63297 90.7745 L 419.63297 90.7745 Q 391.7636 90.7745 367.0793 103.51478 L 302.58163 136.95801 L 302.58163 136.95801 L 164.0311 85.99689 L 164.0311 85.99689 Z M 12.74028 409.2815 Q 0.7962675 410.07776 0 422.02176 Q 0.7962675 433.9658 12.74028 434.76205 L 496.8709 434.76205 L 496.8709 434.76205 Q 508.81494 433.9658 509.6112 422.02176 Q 508.81494 410.07776 496.8709 409.2815 L 12.74028 409.2815 L 12.74028 409.2815 Z" />
</svg>