<svg xmlns="http://www.w3.org/2000/svg" viewBox="0 0 640 512">
    <path d="M 328 0 Q 309 0 295 11 L 295 11 Q 280 22 275 39 Q 263 32 248 32 Q 224 33 208 48 Q 193 64 192 88 L 192 289 L 160 256 Q 142 240 120 240 Q 98 240 80 256 Q 64 274 64 296 Q 64 318 80 336 L 184 439 Q 220 474 265 493 Q 310 512 360 512 L 368 512 Q 425 511 468 481 Q 454 472 446 457 Q 412 479 368 480 L 360 480 Q 316 480 277 464 Q 238 447 207 417 L 103 313 Q 89 296 103 279 Q 120 265 137 279 L 197 339 Q 204 346 214 342 Q 223 338 224 328 L 224 88 Q 226 66 248 64 Q 270 66 272 88 L 272 88 L 272 240 Q 273 255 288 256 Q 302 255 304 240 L 304 80 L 304 80 L 304 56 Q 306 34 328 32 Q 350 34 352 56 L 352 88 L 352 88 L 352 240 Q 353 255 368 256 Q 382 255 384 240 L 384 88 Q 386 66 408 64 Q 430 66 432 88 L 432 152 L 432 152 L 432 240 Q 433 255 448 256 Q 463 255 464 240 L 464 152 Q 466 130 488 128 Q 510 130 512 152 L 512 336 Q 512 337 512 338 Q 512 338 512 339 Q 523 321 544 314 L 544 152 Q 543 128 528 112 Q 512 97 488 96 Q 475 96 464 101 L 464 88 Q 463 64 448 48 Q 432 33 408 32 Q 393 32 381 39 Q 376 22 361 11 Q 347 0 328 0 L 328 0 Z M 96 80 Q 95 65 80 64 Q 65 65 64 80 L 64 128 L 16 128 Q 1 129 0 144 Q 1 159 16 160 L 64 160 L 64 192 Q 65 207 80 208 Q 95 207 96 192 L 96 160 L 144 160 Q 159 159 160 144 Q 159 129 144 128 L 96 128 L 96 80 L 96 80 Z M 336 304 Q 335 289 320 288 Q 305 289 304 304 L 304 336 L 272 336 Q 257 337 256 352 Q 257 367 272 368 L 304 368 L 304 400 Q 305 415 320 416 Q 335 415 336 400 L 336 368 L 368 368 Q 383 367 384 352 Q 383 337 368 336 L 336 336 L 336 304 L 336 304 Z M 576 368 Q 575 353 560 352 Q 545 353 544 368 L 544 416 L 496 416 Q 481 417 480 432 Q 481 447 496 448 L 544 448 L 544 496 Q 545 511 560 512 Q 575 511 576 496 L 576 448 L 624 448 Q 639 447 640 432 Q 639 417 624 416 L 576 416 L 576 368 L 576 368 Z"/>
</svg>
