<svg xmlns="http://www.w3.org/2000/svg" viewBox="0 0 512 512">
  <path d="M 152.88335925349924 77.63608087091757 Q 185.5303265940902 78.43234836702955 207.02954898911352 99.93157076205287 L 207.02954898911352 99.93157076205287 L 207.02954898911352 99.93157076205287 Q 228.52877138413686 121.43079315707621 229.32503888024883 154.07776049766719 L 229.32503888024883 217.7791601866252 L 229.32503888024883 217.7791601866252 L 229.32503888024883 230.5194401244168 L 229.32503888024883 230.5194401244168 L 254.80559875583205 230.5194401244168 L 254.80559875583205 230.5194401244168 L 254.80559875583205 217.7791601866252 L 254.80559875583205 217.7791601866252 L 254.80559875583205 154.07776049766719 L 254.80559875583205 154.07776049766719 Q 254.00933125972006 111.07931570762052 225.34370139968897 81.61741835147745 Q 195.88180404354588 52.951788491446344 152.88335925349924 52.15552099533437 Q 109.88491446345256 52.951788491446344 80.42301710730949 81.61741835147745 Q 51.75738724727838 111.07931570762052 50.96111975116641 154.07776049766719 L 50.96111975116641 217.7791601866252 L 50.96111975116641 217.7791601866252 L 50.96111975116641 230.5194401244168 L 50.96111975116641 230.5194401244168 L 76.44167962674962 230.5194401244168 L 76.44167962674962 230.5194401244168 L 76.44167962674962 217.7791601866252 L 76.44167962674962 217.7791601866252 L 76.44167962674962 154.07776049766719 L 76.44167962674962 154.07776049766719 Q 77.23794712286158 121.43079315707621 98.73716951788491 99.93157076205287 Q 120.23639191290825 78.43234836702955 152.88335925349924 77.63608087091757 L 152.88335925349924 77.63608087091757 Z M 204.6407465007776 434.36391912908243 L 59.72006220839813 434.36391912908243 L 204.6407465007776 434.36391912908243 L 59.72006220839813 434.36391912908243 Q 48.57231726283048 433.56765163297047 46.979782270606535 429.5863141524106 Q 39.01710730948678 418.43856920684294 32.64696734059098 400.1244167962675 Q 26.27682737169518 382.606531881804 25.480559875583204 357.92223950233284 Q 27.86936236391913 319.701399688958 49.368584758942454 281.4805598755832 L 248.43545878693624 281.4805598755832 L 248.43545878693624 281.4805598755832 Q 254.80559875583205 267.9440124416796 264.3608087091757 256 L 41.40590979782271 256 L 41.40590979782271 256 Q 33.443234836702956 256 30.258164852255053 263.16640746500775 Q 19.110419906687405 283.86936236391915 9.555209953343702 307.75738724727836 Q 0.7962674961119751 331.6454121306376 0 357.92223950233284 Q 0.7962674961119751 387.38413685847587 8.758942457231726 408.88335925349924 Q 16.721617418351478 430.38258164852255 25.480559875583204 443.1228615863142 Q 37.42457231726283 459.84447900466563 59.72006220839813 459.84447900466563 L 207.82581648522552 459.84447900466563 L 207.82581648522552 459.84447900466563 Q 202.25194401244167 447.104199066874 204.6407465007776 434.36391912908243 L 204.6407465007776 434.36391912908243 Z M 117.84758942457232 157.26283048211508 Q 138.55054432348368 150.0964230171073 152.88335925349924 134.96734059097977 Q 167.21617418351477 150.8926905132193 187.91912908242614 157.26283048211508 Q 184.73405909797822 163.6329704510109 179.95645412130636 168.41057542768274 Q 168.01244167962676 179.55832037325038 152.88335925349924 179.55832037325038 Q 137.75427682737168 179.55832037325038 125.81026438569207 168.41057542768274 Q 121.03265940902021 163.6329704510109 117.84758942457232 157.26283048211508 L 117.84758942457232 157.26283048211508 Z M 169.6049766718507 115.06065318818041 Q 162.4385692068429 107.09797822706065 152.88335925349924 107.09797822706065 Q 143.32814930015553 107.09797822706065 136.16174183514775 115.06065318818041 Q 124.21772939346812 129.39346811819595 105.90357698289269 134.1710730948678 Q 99.53343701399689 134.96734059097977 93.95956454121307 141.3374805598756 Q 89.18195956454122 147.70762052877137 90.77449455676516 156.4665629860031 Q 94.75583203732504 173.1881804043546 107.49611197511665 186.72472783825816 Q 127.40279937791603 205.03888024883358 152.88335925349924 205.03888024883358 Q 178.36391912908243 205.03888024883358 198.2706065318818 186.72472783825816 Q 211.0108864696734 173.1881804043546 214.9922239502333 156.4665629860031 Q 216.58475894245723 147.70762052877137 211.80715396578537 141.3374805598756 Q 207.02954898911352 134.96734059097977 199.86314152410574 134.1710730948678 Q 181.54898911353033 129.39346811819595 169.6049766718507 115.06065318818041 L 169.6049766718507 115.06065318818041 Z M 369.46811819595644 326.0715396578538 Q 383.800933125972 341.9968895800933 404.50388802488334 348.36702954898914 Q 401.3188180404355 354.7371695178849 396.5412130637636 359.5147744945568 Q 384.59720062208396 370.6625194401244 369.46811819595644 370.6625194401244 Q 354.3390357698289 370.6625194401244 342.3950233281493 359.5147744945568 Q 337.61741835147745 354.7371695178849 334.43234836702953 348.36702954898914 Q 355.1353032659409 341.9968895800933 369.46811819595644 326.0715396578538 L 369.46811819595644 326.0715396578538 Z M 369.46811819595644 298.20217729393465 Q 359.91290824261273 298.20217729393465 352.746500777605 306.1648522550544 Q 340.8024883359254 320.49766718507 322.48833592534993 325.27527216174184 Q 316.11819595645414 326.0715396578538 310.54432348367027 332.4416796267496 Q 305.7667185069985 338.81181959564543 307.3592534992224 347.5707620528771 Q 311.3405909797823 364.2923794712286 324.8771384136858 377.8289269051322 Q 343.98755832037324 396.1430793157076 369.46811819595644 396.1430793157076 Q 394.94867807153963 396.1430793157076 414.855365474339 377.8289269051322 Q 427.59564541213064 364.2923794712286 431.5769828926905 347.5707620528771 Q 433.16951788491446 338.81181959564543 428.3919129082426 332.4416796267496 Q 423.61430793157075 326.0715396578538 416.447900466563 325.27527216174184 Q 398.13374805598755 320.49766718507 386.18973561430795 306.1648522550544 Q 379.02332814930014 298.20217729393465 369.46811819595644 298.20217729393465 L 369.46811819595644 298.20217729393465 Z M 469.0015552099533 414.45723172628306 Q 472.9828926905132 424.8087091757387 478.55676516329703 434.36391912908243 L 260.37947122861584 434.36391912908243 L 260.37947122861584 434.36391912908243 Q 265.9533437013997 424.8087091757387 269.93468118195955 414.45723172628306 Q 286.65629860031106 378.6251944012442 286.65629860031106 338.81181959564543 Q 287.452566096423 303.77604976671853 310.54432348367027 279.88802488335926 Q 334.43234836702953 256.79626749611197 369.46811819595644 256 Q 404.50388802488334 256.79626749611197 428.3919129082426 279.88802488335926 Q 451.4836702954899 303.77604976671853 452.27993779160187 338.81181959564543 Q 452.27993779160187 378.6251944012442 469.0015552099533 414.45723172628306 L 469.0015552099533 414.45723172628306 Z M 506.4261275272162 429.5863141524106 Q 497.66718506998444 417.642301710731 492.0933125972006 404.1057542768274 Q 477.76049766718506 373.05132192846037 477.76049766718506 338.81181959564543 Q 476.9642301710731 292.62830482115083 445.9097978227061 262.3701399688958 Q 415.65163297045103 231.31570762052877 369.46811819595644 230.5194401244168 Q 323.2846034214619 231.31570762052877 293.02643856920685 262.3701399688958 Q 261.97200622083983 292.62830482115083 261.17573872472786 338.81181959564543 Q 261.17573872472786 373.05132192846037 246.84292379471228 404.1057542768274 Q 241.26905132192846 417.642301710731 233.3063763608087 429.5863141524106 L 233.3063763608087 429.5863141524106 L 233.3063763608087 429.5863141524106 Q 226.9362363919129 439.1415241057543 231.71384136858475 449.49300155520996 Q 237.28771384136857 459.84447900466563 248.43545878693624 459.84447900466563 L 490.5007776049767 459.84447900466563 L 490.5007776049767 459.84447900466563 Q 501.6485225505443 459.84447900466563 507.22239502332815 449.49300155520996 Q 512 439.1415241057543 506.4261275272162 429.5863141524106 L 506.4261275272162 429.5863141524106 Z" />
</svg>