<svg xmlns="http://www.w3.org/2000/svg" viewBox="0 0 512 512">
  <path d="M 384 21.333334 Q 385.33334 1.3333334 405.33334 0 Q 425.33334 1.3333334 426.66666 21.333334 L 426.66666 237.33333 L 426.66666 237.33333 L 426.66666 274.66666 L 426.66666 274.66666 L 426.66666 490.66666 L 426.66666 490.66666 Q 425.33334 510.66666 405.33334 512 Q 385.33334 510.66666 384 490.66666 L 384 309.33334 L 384 309.33334 L 145.33333 504 L 145.33333 504 Q 136 512 122.666664 512 Q 106.666664 512 96 501.33334 Q 85.333336 490.66666 85.333336 474.66666 L 85.333336 37.333332 L 85.333336 37.333332 Q 85.333336 21.333334 96 10.666667 Q 106.666664 0 122.666664 0 Q 136 0 145.33333 8 L 384 202.66667 L 384 202.66667 L 384 21.333334 L 384 21.333334 Z M 128 49.333332 L 128 462.66666 L 128 49.333332 L 128 462.66666 L 382.66666 256 L 382.66666 256 L 128 49.333332 L 128 49.333332 Z" />
</svg>