<svg xmlns="http://www.w3.org/2000/svg" viewBox="0 0 453 485">
    <path d="M 32 224 Q 34 306 88 360 L 88 360 Q 142 414 224 416 Q 289 415 338 379 L 228 250 Q 219 238 230 228 Q 242 219 252 230 L 362 358 Q 414 304 416 224 Q 414 142 360 88 Q 306 34 224 32 Q 142 34 88 88 Q 34 142 32 224 L 32 224 Z M 359 403 Q 301 447 224 448 Q 161 447 111 417 Q 60 388 31 337 Q 1 287 0 224 Q 1 161 31 111 Q 60 60 111 31 Q 161 1 224 0 Q 287 1 337 31 Q 388 60 417 111 Q 447 161 448 224 Q 448 271 431 311 Q 413 351 383 382 L 444 454 Q 453 466 442 476 Q 431 485 420 475 L 359 403 L 359 403 Z"/>
</svg>
