<svg xmlns="http://www.w3.org/2000/svg" viewBox="0 0 480 448">
    <path d="M 429 190 Q 415 121 364 77 L 364 77 Q 312 33 240 32 Q 168 33 116 77 Q 65 121 51 190 L 51 190 Q 51 190 51 190 Q 52 192 56 192 L 424 192 Q 428 192 429 190 Q 429 190 429 190 Q 429 190 429 190 L 429 190 L 429 190 Z M 56 224 Q 39 224 28 212 L 28 212 Q 17 201 20 184 Q 35 104 96 53 Q 156 2 240 0 Q 324 2 384 53 Q 445 104 461 184 Q 463 201 452 212 Q 441 224 424 224 L 400 224 L 208 224 L 56 224 L 56 224 Z M 415 320 L 432 320 Q 446 320 455 329 Q 464 338 464 352 Q 463 393 436 420 Q 409 447 368 448 L 112 448 Q 71 447 44 420 Q 17 393 16 352 Q 16 338 25 329 Q 34 320 48 320 L 194 320 L 242 352 L 48 352 Q 49 379 67 397 Q 85 415 112 416 L 368 416 Q 395 415 413 397 Q 431 379 432 352 L 367 352 L 415 320 L 415 320 Z M 144 96 Q 159 97 160 112 Q 159 127 144 128 Q 129 127 128 112 Q 129 97 144 96 L 144 96 Z M 224 80 Q 225 65 240 64 Q 255 65 256 80 Q 255 95 240 96 Q 225 95 224 80 L 224 80 Z M 336 96 Q 351 97 352 112 Q 351 127 336 128 Q 321 127 320 112 Q 321 97 336 96 L 336 96 Z M 16 256 L 208 256 Q 213 256 217 259 L 304 317 L 391 259 Q 395 256 400 256 L 464 256 Q 479 257 480 272 Q 479 287 464 288 L 405 288 L 313 349 Q 304 355 295 349 L 203 288 L 16 288 Q 1 287 0 272 Q 1 257 16 256 L 16 256 Z"/>
</svg>
