<svg xmlns="http://www.w3.org/2000/svg" viewBox="0 0 448 514">
    <path d="M 256 497 Q 224 514 192 497 L 32 404 Q 1 385 0 349 L 0 164 Q 1 128 32 109 L 192 17 Q 224 0 256 17 L 416 109 Q 446 128 448 164 L 448 349 Q 446 385 416 404 L 256 497 L 256 497 Z M 208 469 Q 224 477 240 469 L 400 377 Q 415 367 416 349 L 416 164 Q 415 146 400 137 L 240 44 Q 224 36 208 44 L 48 137 Q 33 146 32 164 L 32 349 Q 33 367 48 377 L 208 469 L 208 469 Z M 95 171 L 128 254 L 128 177 Q 129 162 144 161 Q 158 162 160 177 L 160 337 Q 159 349 147 352 Q 134 354 129 343 L 96 260 L 96 337 Q 94 351 80 353 Q 65 351 64 337 L 64 177 Q 65 164 77 161 Q 89 159 95 171 L 95 171 Z M 192 177 Q 193 162 208 161 L 256 161 Q 270 162 272 177 Q 270 191 256 193 L 224 193 L 224 241 L 256 241 Q 270 242 272 257 Q 270 271 256 273 L 224 273 L 224 337 Q 222 351 208 353 Q 193 351 192 337 L 192 257 L 192 177 L 192 177 Z M 304 161 L 368 161 Q 382 162 384 177 Q 382 191 368 193 L 352 193 L 352 337 Q 350 351 336 353 Q 321 351 320 337 L 320 193 L 304 193 Q 289 191 288 177 Q 289 162 304 161 L 304 161 Z"/>
</svg>
