<svg xmlns="http://www.w3.org/2000/svg" viewBox="0 0 512 512">
  <path d="M 128 64 Q 129 86 149 94 Q 159 98 160 109 L 160 144 L 160 144 L 352 144 L 352 144 L 352 109 L 352 109 Q 353 98 363 94 Q 383 86 384 64 Q 384 50 375 41 Q 366 32 352 32 Q 338 32 329 41 Q 320 50 320 64 Q 319 79 304 80 Q 289 79 288 64 Q 288 50 279 41 Q 270 32 256 32 Q 242 32 233 41 Q 224 50 224 64 Q 223 79 208 80 Q 193 79 192 64 Q 192 50 183 41 Q 174 32 160 32 Q 146 32 137 41 Q 128 50 128 64 L 128 64 Z M 160 0 Q 190 1 208 22 Q 226 1 256 0 Q 286 1 304 22 Q 322 1 352 0 Q 379 1 397 19 Q 415 37 416 64 Q 414 101 384 119 L 384 160 L 384 160 L 384 176 L 384 176 Q 383 230 347 267 Q 310 303 256 304 Q 202 303 165 267 Q 129 230 128 176 L 128 160 L 128 160 L 128 119 L 128 119 Q 98 101 96 64 Q 97 37 115 19 Q 133 1 160 0 L 160 0 Z M 256 272 Q 297 271 324 244 L 324 244 L 324 244 Q 351 217 352 176 L 160 176 L 160 176 Q 161 217 188 244 Q 215 271 256 272 L 256 272 Z M 144 373 Q 143 384 133 388 Q 102 397 83 422 Q 65 447 64 480 L 160 480 L 160 480 L 160 437 L 160 437 Q 161 407 188 393 L 221 378 L 221 378 L 144 341 L 144 341 L 144 373 L 144 373 Z M 192 480 L 448 480 L 192 480 L 448 480 Q 447 447 429 422 Q 410 397 379 388 Q 369 384 368 373 L 368 345 L 368 345 L 201 422 L 201 422 Q 192 426 192 436 L 192 480 L 192 480 Z M 369 309 L 368 306 L 369 309 L 368 306 Q 372 304 377 304 Q 398 306 400 327 L 400 361 L 400 361 Q 436 376 457 408 Q 479 439 480 480 Q 480 494 471 503 Q 462 512 448 512 L 64 512 L 64 512 Q 50 512 41 503 Q 32 494 32 480 Q 33 439 54 408 Q 76 376 112 361 L 112 327 L 112 327 Q 114 306 135 304 Q 139 304 144 306 L 256 358 L 256 358 L 368 306 L 368 306 L 369 309 L 369 309 Z M 272 416 Q 287 417 288 432 Q 287 447 272 448 Q 257 447 256 432 Q 257 417 272 416 L 272 416 Z M 320 432 Q 321 417 336 416 Q 351 417 352 432 Q 351 447 336 448 Q 321 447 320 432 L 320 432 Z" />
</svg>