<svg xmlns="http://www.w3.org/2000/svg" viewBox="0 0 512 512">
  <path d="M 160.37354085603113 33.36964980544747 Q 159.3774319066148 18.428015564202333 144.43579766536965 17.43190661478599 Q 129.4941634241245 18.428015564202333 128.49805447470817 33.36964980544747 L 128.49805447470817 74.21011673151752 L 128.49805447470817 74.21011673151752 L 128.49805447470817 107.08171206225681 L 128.49805447470817 107.08171206225681 L 128.49805447470817 153.8988326848249 L 128.49805447470817 153.8988326848249 L 128.49805447470817 185.77431906614785 L 128.49805447470817 185.77431906614785 L 128.49805447470817 224.6225680933852 L 128.49805447470817 224.6225680933852 L 128.49805447470817 224.6225680933852 L 128.49805447470817 224.6225680933852 L 96.62256809338521 224.6225680933852 L 96.62256809338521 224.6225680933852 L 96.62256809338521 224.6225680933852 L 96.62256809338521 224.6225680933852 L 96.62256809338521 187.76653696498053 L 96.62256809338521 187.76653696498053 L 96.62256809338521 155.89105058365757 L 96.62256809338521 155.89105058365757 L 96.62256809338521 113.05836575875486 L 96.62256809338521 113.05836575875486 L 96.62256809338521 81.1828793774319 L 96.62256809338521 81.1828793774319 L 96.62256809338521 49.30739299610895 L 96.62256809338521 49.30739299610895 Q 95.62645914396887 34.36575875486381 80.68482490272373 33.36964980544747 Q 65.7431906614786 34.36575875486381 64.74708171206225 49.30739299610895 L 64.74708171206225 87.15953307392996 L 64.74708171206225 87.15953307392996 L 13.945525291828794 97.12062256809338 L 13.945525291828794 97.12062256809338 Q 0 102.1011673151751 0.9961089494163424 116.04669260700389 Q 5.976653696498055 129.99221789883268 19.92217898832685 128.99610894941634 L 64.74708171206225 120.03112840466926 L 64.74708171206225 120.03112840466926 L 64.74708171206225 157.88326848249028 L 64.74708171206225 157.88326848249028 L 15.937743190661479 160.8715953307393 L 15.937743190661479 160.8715953307393 Q 0.9961089494163424 162.86381322957197 0.9961089494163424 177.8054474708171 Q 2.9883268482490273 192.74708171206225 17.929961089494164 192.74708171206225 L 64.74708171206225 189.75875486381324 L 64.74708171206225 189.75875486381324 L 64.74708171206225 224.6225680933852 L 64.74708171206225 224.6225680933852 L 51.797665369649806 224.6225680933852 L 51.797665369649806 224.6225680933852 Q 30.879377431906615 225.61867704280155 16.93385214007782 239.56420233463035 Q 2.9883268482490273 254.5058365758755 3.9844357976653697 275.42412451361866 L 4.980544747081712 285.3852140077821 L 4.980544747081712 285.3852140077821 Q 8.964980544747082 349.136186770428 42.83268482490272 397.9455252918288 Q 77.6964980544747 447.7509727626459 131.4863813229572 473.64980544747084 Q 137.46303501945525 490.58365758754866 151.40856031128405 500.54474708171205 Q 165.35408560311285 511.50194552529183 184.28015564202335 511.50194552529183 L 327.7198443579766 511.50194552529183 L 327.7198443579766 511.50194552529183 Q 346.6459143968872 511.50194552529183 360.591439688716 500.54474708171205 Q 374.5369649805447 490.58365758754866 380.5136186770428 473.64980544747084 Q 434.3035019455253 447.7509727626459 469.16731517509726 397.9455252918288 Q 503.0350194552529 349.136186770428 507.0194552529183 285.3852140077821 L 508.01556420233464 275.42412451361866 L 508.01556420233464 275.42412451361866 Q 509.011673151751 254.5058365758755 495.0661478599222 239.56420233463035 Q 481.1206225680934 225.61867704280155 460.2023346303502 224.6225680933852 L 160.37354085603113 224.6225680933852 L 160.37354085603113 224.6225680933852 L 160.37354085603113 224.6225680933852 L 160.37354085603113 224.6225680933852 L 160.37354085603113 182.78599221789884 L 160.37354085603113 182.78599221789884 L 160.37354085603113 150.91050583657588 L 160.37354085603113 150.91050583657588 L 160.37354085603113 101.10505836575875 L 160.37354085603113 101.10505836575875 L 160.37354085603113 68.23346303501945 L 160.37354085603113 68.23346303501945 L 160.37354085603113 33.36964980544747 L 160.37354085603113 33.36964980544747 Z M 192.24902723735408 62.2568093385214 L 192.24902723735408 94.13229571984436 L 192.24902723735408 62.2568093385214 L 192.24902723735408 94.13229571984436 L 498.0544747081712 33.36964980544747 L 498.0544747081712 33.36964980544747 Q 512 28.389105058365757 511.00389105058366 14.443579766536965 Q 506.02334630350197 0.4980544747081712 492.07782101167317 1.4941634241245136 L 192.24902723735408 62.2568093385214 L 192.24902723735408 62.2568093385214 Z M 192.24902723735408 148.9182879377432 L 192.24902723735408 180.79377431906616 L 192.24902723735408 148.9182879377432 L 192.24902723735408 180.79377431906616 L 496.0622568093385 160.8715953307393 L 496.0622568093385 160.8715953307393 Q 511.00389105058366 158.87937743190662 511.00389105058366 143.93774319066148 Q 509.011673151751 128.99610894941634 494.07003891050584 128.99610894941634 L 192.24902723735408 148.9182879377432 L 192.24902723735408 148.9182879377432 Z M 161.36964980544747 463.6887159533074 Q 157.3852140077821 450.73929961089493 145.431906614786 445.75875486381324 Q 98.6147859922179 422.84824902723733 69.72762645914396 380.01556420233464 Q 39.8443579766537 338.17898832684824 36.856031128404666 283.39299610894943 L 35.85992217898833 273.431906614786 L 35.85992217898833 273.431906614786 Q 36.856031128404666 258.49027237354085 51.797665369649806 256.49805447470817 L 460.2023346303502 256.49805447470817 L 460.2023346303502 256.49805447470817 Q 475.14396887159535 258.49027237354085 476.1400778210117 273.431906614786 L 476.1400778210117 283.39299610894943 L 476.1400778210117 283.39299610894943 Q 472.15564202334633 338.17898832684824 442.27237354085605 380.01556420233464 Q 413.3852140077821 422.84824902723733 366.568093385214 445.75875486381324 Q 354.6147859922179 450.73929961089493 350.63035019455253 463.6887159533074 Q 344.6536964980545 478.63035019455253 327.7198443579766 479.6264591439689 L 184.28015564202335 479.6264591439689 L 184.28015564202335 479.6264591439689 Q 167.34630350194553 478.63035019455253 161.36964980544747 463.6887159533074 L 161.36964980544747 463.6887159533074 Z" />
</svg>