<svg xmlns="http://www.w3.org/2000/svg" viewBox="0 0 560 496">
    <path d="M 280 48 Q 302 46 304 24 Q 302 2 280 0 Q 258 2 256 24 Q 258 46 280 48 L 280 48 Z M 264 280 L 264 407 Q 216 400 184 365 Q 153 330 152 280 Q 153 226 189 189 Q 226 153 280 152 Q 334 153 371 189 Q 407 226 408 280 Q 407 330 376 365 Q 344 400 296 407 L 296 280 Q 295 265 280 264 Q 265 265 264 280 L 264 280 Z M 280 440 Q 323 440 360 419 L 360 419 Q 397 397 419 360 Q 440 322 440 280 Q 440 238 419 200 Q 397 163 360 141 Q 323 120 280 120 Q 237 120 200 141 Q 163 163 141 200 Q 120 238 120 280 Q 120 322 141 360 Q 163 397 200 419 Q 237 440 280 440 L 280 440 Z M 560 280 Q 558 258 536 256 Q 514 258 512 280 Q 514 302 536 304 Q 558 302 560 280 L 560 280 Z M 24 304 Q 46 302 48 280 Q 46 258 24 256 Q 2 258 0 280 Q 2 302 24 304 L 24 304 Z M 112 88 Q 110 66 88 64 Q 66 66 64 88 Q 66 110 88 112 Q 110 110 112 88 L 112 88 Z M 472 112 Q 494 110 496 88 Q 494 66 472 64 Q 450 66 448 88 Q 450 110 472 112 L 472 112 Z M 112 472 Q 110 450 88 448 Q 66 450 64 472 Q 66 494 88 496 Q 110 494 112 472 L 112 472 Z M 472 496 Q 494 494 496 472 Q 494 450 472 448 Q 450 450 448 472 Q 450 494 472 496 L 472 496 Z"/>
</svg>
