<svg xmlns="http://www.w3.org/2000/svg" viewBox="0 0 512 512">
  <path d="M 18.285715 0 Q 1.1428572 1.1428572 0 18.285715 Q 1.1428572 35.42857 18.285715 36.57143 L 493.7143 36.57143 L 493.7143 36.57143 Q 510.85715 35.42857 512 18.285715 Q 510.85715 1.1428572 493.7143 0 L 18.285715 0 L 18.285715 0 Z M 256 109.71429 Q 178.28572 112 126.85714 163.42857 L 126.85714 163.42857 L 126.85714 163.42857 Q 75.42857 214.85715 73.14286 292.57144 L 73.14286 329.14285 L 73.14286 329.14285 Q 75.42857 406.85715 126.85714 458.2857 Q 178.28572 509.7143 256 512 Q 333.7143 509.7143 385.14285 458.2857 Q 436.57144 406.85715 438.85715 329.14285 L 438.85715 292.57144 L 438.85715 292.57144 Q 436.57144 214.85715 385.14285 163.42857 Q 333.7143 112 256 109.71429 L 256 109.71429 Z M 109.71429 292.57144 Q 110.85714 230.85715 152 188.57143 L 152 188.57143 L 152 188.57143 Q 194.28572 147.42857 256 146.28572 Q 317.7143 147.42857 360 188.57143 Q 401.14285 230.85715 402.2857 292.57144 L 402.2857 329.14285 L 402.2857 329.14285 Q 401.14285 390.85715 360 433.14285 Q 317.7143 474.2857 256 475.42856 Q 194.28572 474.2857 152 433.14285 Q 110.85714 390.85715 109.71429 329.14285 L 109.71429 292.57144 L 109.71429 292.57144 Z" />
</svg>