<svg xmlns="http://www.w3.org/2000/svg" viewBox="0 0 516 516">
    <path d="M 365 96 Q 380 96 393 104 Q 392 103 391 103 Q 391 103 391 103 L 437 56 Q 438 57 438 57 Q 438 57 439 57 Q 407 33 365 32 Q 348 32 332 37 L 352 98 Q 343 100 336 104 L 323 112 L 302 50 Q 302 50 302 50 Q 302 50 302 50 L 275 67 Q 264 74 261 87 Q 258 99 265 111 Q 272 122 285 125 Q 297 128 309 121 L 336 104 L 352 130 L 336 104 Q 349 96 365 96 L 365 96 Z M 414 125 Q 420 137 420 151 L 420 157 Q 420 159 420 162 Q 420 162 420 162 L 482 182 Q 478 198 471 212 L 409 192 Q 402 201 392 208 L 334 244 L 394 282 L 364 301 L 304 263 L 227 311 L 287 349 L 257 368 L 197 330 L 124 376 L 184 413 L 154 432 L 93 395 L 51 421 Q 40 428 37 441 Q 34 453 41 465 Q 48 476 61 479 Q 73 482 85 475 L 425 262 Q 453 245 468 217 Q 484 189 484 157 L 484 151 Q 482 94 442 60 Q 452 68 460 79 L 414 125 L 414 125 Z M 365 128 Q 358 128 353 132 L 326 148 Q 303 162 278 156 Q 253 151 238 128 Q 224 104 230 80 Q 235 55 258 40 L 285 23 Q 322 0 365 0 Q 429 2 472 44 Q 514 87 516 151 L 516 157 Q 516 198 496 233 Q 477 267 442 289 L 102 502 Q 78 516 54 510 Q 29 505 14 482 Q 0 458 6 434 Q 11 409 34 394 L 375 181 Q 388 172 388 157 L 388 151 Q 386 130 365 128 L 365 128 Z"/>
</svg>
