<svg xmlns="http://www.w3.org/2000/svg" viewBox="0 0 496 512">
    <path d="M 120 32 Q 134 32 143 41 L 143 41 Q 152 50 152 64 Q 152 78 143 87 Q 134 96 120 96 Q 106 96 97 87 Q 88 78 88 64 Q 88 50 97 41 Q 106 32 120 32 L 120 32 Z M 120 128 Q 156 127 175 96 Q 193 64 175 32 Q 156 1 120 0 Q 84 1 65 32 Q 47 64 65 96 Q 84 127 120 128 L 120 128 Z M 104 192 L 136 192 Q 154 193 163 208 Q 160 196 160 184 Q 160 175 162 166 Q 150 160 136 160 L 104 160 Q 82 160 66 173 Q 49 185 43 206 L 4 343 Q 0 359 9 371 Q 18 383 34 384 L 56 384 L 56 496 Q 57 511 72 512 Q 87 511 88 496 L 88 384 L 138 384 Q 136 376 136 368 L 136 352 L 34 352 L 74 215 Q 81 193 104 192 L 104 192 Z M 358 384 L 408 384 L 408 496 Q 409 511 424 512 Q 439 511 440 496 L 440 384 L 462 384 Q 478 383 487 371 Q 496 359 492 343 L 453 206 Q 447 185 430 173 Q 414 160 392 160 L 360 160 Q 346 160 334 166 Q 336 174 336 184 Q 336 196 333 208 Q 342 193 360 192 L 392 192 Q 415 193 422 215 L 462 352 L 360 352 L 360 368 Q 360 376 358 384 L 358 384 Z M 376 32 Q 390 32 399 41 L 399 41 Q 408 50 408 64 Q 408 78 399 87 Q 390 96 376 96 Q 362 96 353 87 Q 344 78 344 64 Q 344 50 353 41 Q 362 32 376 32 L 376 32 Z M 376 128 Q 412 127 431 96 Q 449 64 431 32 Q 412 1 376 0 Q 340 1 321 32 Q 303 64 321 96 Q 340 127 376 128 L 376 128 Z M 248 160 Q 270 162 272 184 Q 270 206 248 208 Q 226 206 224 184 Q 226 162 248 160 L 248 160 Z M 248 240 Q 280 239 296 212 Q 312 184 296 156 Q 280 129 248 128 Q 216 129 200 156 Q 184 184 200 212 Q 216 239 248 240 L 248 240 Z M 248 288 Q 268 289 282 302 L 282 302 Q 295 316 296 336 L 296 368 Q 295 383 280 384 L 216 384 Q 201 383 200 368 L 200 336 Q 201 316 214 302 Q 228 289 248 288 L 248 288 Z M 200 413 L 200 496 Q 201 511 216 512 Q 231 511 232 496 L 232 416 L 264 416 L 264 496 Q 265 511 280 512 Q 295 511 296 496 L 296 413 Q 326 401 328 368 L 328 336 Q 327 302 305 279 Q 282 257 248 256 Q 214 257 191 279 Q 169 302 168 336 L 168 368 Q 170 401 200 413 L 200 413 Z"/>
</svg>
