<svg xmlns="http://www.w3.org/2000/svg" viewBox="0 0 512 512">
  <path d="M 16.54153846153846 79.55692307692307 L 495.45846153846156 79.55692307692307 L 16.54153846153846 79.55692307692307 L 495.45846153846156 79.55692307692307 Q 507.27384615384614 80.34461538461538 508.0615384615385 92.16 Q 507.27384615384614 103.97538461538461 495.45846153846156 104.76307692307692 L 16.54153846153846 104.76307692307692 L 16.54153846153846 104.76307692307692 Q 4.726153846153847 103.97538461538461 3.9384615384615387 92.16 Q 4.726153846153847 80.34461538461538 16.54153846153846 79.55692307692307 L 16.54153846153846 79.55692307692307 Z M 16.54153846153846 407.23692307692306 L 495.45846153846156 407.23692307692306 L 16.54153846153846 407.23692307692306 L 495.45846153846156 407.23692307692306 Q 507.27384615384614 408.0246153846154 508.0615384615385 419.84 Q 507.27384615384614 431.6553846153846 495.45846153846156 432.44307692307694 L 16.54153846153846 432.44307692307694 L 16.54153846153846 432.44307692307694 Q 4.726153846153847 431.6553846153846 3.9384615384615387 419.84 Q 4.726153846153847 408.0246153846154 16.54153846153846 407.23692307692306 L 16.54153846153846 407.23692307692306 Z M 184.32 184.32 Q 192.98461538461538 176.44307692307692 201.64923076923077 184.32 L 256 237.8830769230769 L 256 237.8830769230769 L 310.35076923076923 184.32 L 310.35076923076923 184.32 Q 319.0153846153846 176.44307692307692 327.68 184.32 Q 335.55692307692306 192.98461538461538 327.68 201.64923076923077 L 274.11692307692306 256 L 274.11692307692306 256 L 327.68 310.35076923076923 L 327.68 310.35076923076923 Q 335.55692307692306 319.0153846153846 327.68 327.68 Q 319.0153846153846 335.55692307692306 310.35076923076923 327.68 L 256 274.11692307692306 L 256 274.11692307692306 L 201.64923076923077 327.68 L 201.64923076923077 327.68 Q 192.98461538461538 335.55692307692306 184.32 327.68 Q 176.44307692307692 319.0153846153846 184.32 310.35076923076923 L 237.8830769230769 256 L 237.8830769230769 256 L 184.32 201.64923076923077 L 184.32 201.64923076923077 Q 176.44307692307692 192.98461538461538 184.32 184.32 L 184.32 184.32 Z M 97.67384615384616 256 L 151.2369230769231 310.35076923076923 L 97.67384615384616 256 L 151.2369230769231 310.35076923076923 Q 159.11384615384614 319.0153846153846 151.2369230769231 327.68 Q 142.5723076923077 335.55692307692306 133.90769230769232 327.68 L 79.55692307692307 274.11692307692306 L 79.55692307692307 274.11692307692306 L 25.206153846153846 327.68 L 25.206153846153846 327.68 Q 16.54153846153846 335.55692307692306 7.876923076923077 327.68 Q 0 319.0153846153846 7.876923076923077 310.35076923076923 L 61.44 256 L 61.44 256 L 7.876923076923077 201.64923076923077 L 7.876923076923077 201.64923076923077 Q 0 192.98461538461538 7.876923076923077 184.32 Q 16.54153846153846 176.44307692307692 25.206153846153846 184.32 L 79.55692307692307 237.8830769230769 L 79.55692307692307 237.8830769230769 L 133.90769230769232 184.32 L 133.90769230769232 184.32 Q 142.5723076923077 176.44307692307692 151.2369230769231 184.32 Q 159.11384615384614 192.98461538461538 151.2369230769231 201.64923076923077 L 97.67384615384616 256 L 97.67384615384616 256 Z M 360.76307692307694 184.32 Q 369.4276923076923 176.44307692307692 378.0923076923077 184.32 L 432.44307692307694 237.8830769230769 L 432.44307692307694 237.8830769230769 L 486.7938461538462 184.32 L 486.7938461538462 184.32 Q 495.45846153846156 176.44307692307692 504.12307692307695 184.32 Q 512 192.98461538461538 504.12307692307695 201.64923076923077 L 450.56 256 L 450.56 256 L 504.12307692307695 310.35076923076923 L 504.12307692307695 310.35076923076923 Q 512 319.0153846153846 504.12307692307695 327.68 Q 495.45846153846156 335.55692307692306 486.7938461538462 327.68 L 432.44307692307694 274.11692307692306 L 432.44307692307694 274.11692307692306 L 378.0923076923077 327.68 L 378.0923076923077 327.68 Q 369.4276923076923 335.55692307692306 360.76307692307694 327.68 Q 352.88615384615383 319.0153846153846 360.76307692307694 310.35076923076923 L 414.32615384615383 256 L 414.32615384615383 256 L 360.76307692307694 201.64923076923077 L 360.76307692307694 201.64923076923077 Q 352.88615384615383 192.98461538461538 360.76307692307694 184.32 L 360.76307692307694 184.32 Z" />
</svg>