<svg xmlns="http://www.w3.org/2000/svg" viewBox="0 0 512 512">
  <path d="M 339 6 Q 346 0 355 0 Q 369 1 376 11 Q 383 21 379 33 L 311 224 L 311 224 L 421 224 L 421 224 Q 432 224 440 232 Q 448 240 448 251 Q 448 263 439 271 L 173 506 L 173 506 Q 166 512 157 512 Q 143 511 136 501 Q 129 491 133 479 L 201 288 L 201 288 L 90 288 L 90 288 Q 66 286 64 262 Q 64 251 73 243 L 339 6 L 339 6 Z M 339 49 L 106 256 L 339 49 L 106 256 L 224 256 L 224 256 Q 232 256 237 263 Q 242 270 239 277 L 173 464 L 173 464 L 408 256 L 408 256 L 288 256 L 288 256 Q 280 256 275 249 Q 270 242 273 235 L 339 49 L 339 49 Z" />
</svg>