<svg xmlns="http://www.w3.org/2000/svg" viewBox="0 0 510 510">
    <path d="M 490 20 Q 510 41 510 69 L 510 69 Q 510 96 490 118 L 394 213 Q 383 224 368 224 Q 353 224 342 213 L 331 202 L 229 304 L 304 380 Q 313 390 310 402 Q 308 414 295 419 L 34 506 Q 19 510 10 500 Q 0 491 4 476 L 91 215 Q 96 202 108 199 Q 120 197 130 206 L 206 281 L 308 179 L 297 168 Q 286 157 286 142 Q 286 127 297 116 L 392 20 Q 414 0 441 0 Q 469 0 490 20 L 490 20 Z M 320 138 Q 316 142 320 146 L 364 190 Q 368 194 372 190 L 467 95 Q 478 84 478 69 Q 478 54 467 43 Q 456 32 441 32 Q 426 32 415 43 L 320 138 L 320 138 Z M 39 471 L 272 393 L 117 238 L 39 471 L 39 471 Z"/>
</svg>
