<svg xmlns="http://www.w3.org/2000/svg" viewBox="0 0 512 448">
    <path d="M 114 66 L 85 161 Q 91 160 96 160 L 416 160 Q 421 160 427 161 L 398 66 Q 387 34 352 32 L 160 32 Q 125 34 114 66 L 114 66 Z M 74 196 Q 55 203 44 219 L 44 219 Q 32 235 32 256 L 32 352 L 480 352 L 480 256 Q 480 235 468 219 Q 457 203 438 196 L 437 196 L 437 196 Q 427 192 416 192 L 96 192 Q 85 192 75 196 L 75 196 L 74 196 L 74 196 Z M 48 173 L 49 171 L 83 57 Q 91 31 112 16 Q 133 0 160 0 L 352 0 Q 379 0 400 16 Q 421 31 429 57 L 463 171 L 464 173 Q 486 185 499 207 Q 512 229 512 256 L 512 352 L 512 368 L 512 384 L 512 432 Q 511 447 496 448 Q 481 447 480 432 L 480 384 L 32 384 L 32 432 Q 31 447 16 448 Q 1 447 0 432 L 0 384 L 0 368 L 0 352 L 0 256 Q 0 229 13 207 Q 26 185 48 173 L 48 173 Z M 104 240 Q 126 242 128 264 Q 126 286 104 288 Q 82 286 80 264 Q 82 242 104 240 L 104 240 Z M 384 264 Q 386 242 408 240 Q 430 242 432 264 Q 430 286 408 288 Q 386 286 384 264 L 384 264 Z"/>
</svg>
