<svg xmlns="http://www.w3.org/2000/svg" viewBox="0 0 640 512">
    <path d="M 349 94 Q 334 93 324 82 Q 305 59 284 38 Q 244 77 220 116 Q 192 163 192 192 Q 193 246 229 282 Q 265 319 320 320 Q 375 319 411 282 Q 447 246 448 192 Q 448 170 427 128 Q 411 95 386 67 Q 380 74 374 81 Q 364 93 349 93 L 349 94 Z M 328 37 Q 339 49 349 62 Q 359 49 370 37 Q 373 34 375 32 Q 385 24 395 32 Q 433 68 456 113 Q 467 135 473 156 Q 480 177 480 192 Q 478 260 433 305 Q 388 350 320 352 Q 251 350 206 305 Q 162 260 160 192 Q 161 150 192 100 Q 223 50 274 4 Q 278 0 284 0 Q 289 0 294 4 Q 311 20 328 37 L 328 37 Z M 285 96 Q 293 96 298 102 Q 301 106 315 124 Q 322 133 330 144 L 348 166 L 371 139 Q 376 133 384 133 Q 391 133 396 139 Q 401 147 404 153 Q 404 153 404 154 L 404 154 L 404 154 Q 420 184 414 217 Q 407 249 379 270 L 379 270 L 379 270 Q 353 288 321 288 Q 281 288 253 263 Q 225 238 224 194 Q 224 171 237 150 Q 250 129 273 102 Q 277 96 285 96 L 285 96 Z M 380 177 L 359 201 Q 354 207 347 207 Q 339 207 335 201 L 347 191 L 334 201 L 334 201 L 334 201 L 334 201 L 334 201 L 334 200 L 332 198 L 325 189 L 305 163 L 285 138 Q 272 154 265 166 Q 256 182 256 194 Q 257 224 275 240 Q 292 256 321 256 Q 343 256 361 244 Q 376 233 381 214 Q 386 196 380 177 L 380 177 Z M 32 272 Q 33 257 48 256 L 112 256 Q 127 257 128 272 Q 127 287 112 288 L 64 288 L 64 384 L 576 384 L 576 288 L 528 288 Q 513 287 512 272 Q 513 257 528 256 L 592 256 Q 607 257 608 272 L 608 387 Q 638 399 640 432 L 640 464 Q 639 484 626 498 Q 612 511 592 512 L 48 512 Q 28 511 14 498 Q 1 484 0 464 L 0 432 Q 2 399 32 387 L 32 272 L 32 272 Z M 32 432 L 32 464 Q 33 479 48 480 L 592 480 Q 607 479 608 464 L 608 432 Q 607 417 592 416 L 48 416 Q 33 417 32 432 L 32 432 Z M 192 424 Q 214 426 216 448 Q 214 470 192 472 Q 170 470 168 448 Q 170 426 192 424 L 192 424 Z M 296 448 Q 298 426 320 424 Q 342 426 344 448 Q 342 470 320 472 Q 298 470 296 448 L 296 448 Z M 448 424 Q 470 426 472 448 Q 470 470 448 472 Q 426 470 424 448 Q 426 426 448 424 L 448 424 Z"/>
</svg>
