<svg xmlns="http://www.w3.org/2000/svg" viewBox="0 0 512 512">
  <path d="M 502.0967 266.89362 Q 512 256 502.0967 245.10638 L 375.33463 118.34429 L 375.33463 118.34429 Q 364.441 108.44101 353.5474 118.34429 Q 343.6441 129.23792 353.5474 140.13153 L 452.58026 240.15474 L 452.58026 240.15474 L 174.29787 240.15474 L 174.29787 240.15474 Q 159.44295 241.14507 158.4526 256 Q 159.44295 270.85492 174.29787 271.84528 L 452.58026 271.84528 L 452.58026 271.84528 L 353.5474 371.86847 L 353.5474 371.86847 Q 343.6441 382.7621 353.5474 393.6557 Q 364.441 403.559 375.33463 393.6557 L 502.0967 266.89362 L 502.0967 266.89362 Z M 174.29787 65.856865 Q 189.1528 64.86654 190.14313 50.011604 Q 189.1528 35.156673 174.29787 34.166344 L 79.2263 34.166344 L 79.2263 34.166344 Q 45.555126 35.156673 22.777563 56.94391 Q 0.99032885 79.72147 0 113.39265 L 0 398.60736 L 0 398.60736 Q 0.99032885 432.27853 22.777563 455.0561 Q 45.555126 476.84332 79.2263 477.83365 L 174.29787 477.83365 L 174.29787 477.83365 Q 189.1528 476.84332 190.14313 461.9884 Q 189.1528 447.13345 174.29787 446.14313 L 79.2263 446.14313 L 79.2263 446.14313 Q 59.419727 445.1528 45.555126 432.27853 Q 32.68085 418.41394 31.690523 398.60736 L 31.690523 113.39265 L 31.690523 113.39265 Q 32.68085 93.586075 45.555126 79.72147 Q 59.419727 66.8472 79.2263 65.856865 L 174.29787 65.856865 L 174.29787 65.856865 Z" />
</svg>