<svg xmlns="http://www.w3.org/2000/svg" viewBox="0 0 608 480">
    <path d="M 16 0 L 96 0 L 224 0 L 352 0 L 480 0 L 560 0 Q 575 1 576 16 Q 575 31 560 32 L 496 32 L 496 96 L 560 96 Q 575 97 576 112 Q 575 127 560 128 L 480 128 L 352 128 L 224 128 L 96 128 L 16 128 Q 1 127 0 112 Q 1 97 16 96 L 80 96 L 80 32 L 16 32 Q 1 31 0 16 Q 1 1 16 0 L 16 0 Z M 464 32 L 368 32 L 368 96 L 464 96 L 464 32 L 464 32 Z M 336 32 L 240 32 L 240 96 L 336 96 L 336 32 L 336 32 Z M 208 32 L 112 32 L 112 96 L 208 96 L 208 32 L 208 32 Z M 16 208 L 32 208 Q 73 209 100 236 Q 127 263 128 304 L 128 400 Q 129 415 144 416 L 176 416 Q 191 415 192 400 L 192 304 Q 193 263 220 236 Q 247 209 288 208 Q 312 208 333 219 Q 322 231 313 245 Q 302 240 288 240 Q 261 241 243 259 Q 225 277 224 304 L 224 400 Q 224 420 210 434 Q 196 447 176 448 L 144 448 Q 124 447 110 434 Q 97 420 96 400 L 96 304 Q 95 277 77 259 Q 59 241 32 240 L 16 240 Q 1 239 0 224 Q 1 209 16 208 L 16 208 Z M 576 336 Q 576 306 561 280 L 561 280 Q 546 254 520 239 Q 494 224 464 224 Q 434 224 408 239 Q 382 254 367 280 Q 352 306 352 336 Q 352 366 367 392 Q 382 418 408 433 Q 434 448 464 448 Q 494 448 520 433 Q 546 418 561 392 Q 576 366 576 336 L 576 336 Z M 320 336 Q 320 297 339 264 L 339 264 Q 358 231 392 211 Q 426 192 464 192 Q 502 192 536 211 Q 570 231 589 264 Q 608 297 608 336 Q 608 375 589 408 Q 570 441 536 461 Q 502 480 464 480 Q 426 480 392 461 Q 358 441 339 408 Q 320 375 320 336 L 320 336 Z M 464 368 Q 486 370 488 392 Q 486 414 464 416 Q 442 414 440 392 Q 442 370 464 368 L 464 368 Z M 464 256 Q 479 257 480 272 L 480 336 Q 479 351 464 352 Q 449 351 448 336 L 448 272 Q 449 257 464 256 L 464 256 Z"/>
</svg>
