<svg xmlns="http://www.w3.org/2000/svg" viewBox="0 0 512 512">
  <path d="M 70.17760617760618 40.52509652509652 L 164.0772200772201 112.67953667953668 L 70.17760617760618 40.52509652509652 L 164.0772200772201 112.67953667953668 L 164.0772200772201 164.0772200772201 L 164.0772200772201 164.0772200772201 L 112.67953667953668 164.0772200772201 L 112.67953667953668 164.0772200772201 L 40.52509652509652 70.17760617760618 L 40.52509652509652 70.17760617760618 L 70.17760617760618 40.52509652509652 L 70.17760617760618 40.52509652509652 Z M 195.7065637065637 172.97297297297297 Q 195.7065637065637 172.97297297297297 195.7065637065637 172.97297297297297 L 195.7065637065637 172.97297297297297 L 195.7065637065637 172.97297297297297 Q 195.7065637065637 171.98455598455598 195.7065637065637 171.98455598455598 L 195.7065637065637 108.72586872586872 L 195.7065637065637 108.72586872586872 Q 195.7065637065637 96.86486486486487 186.8108108108108 89.94594594594595 L 84.01544401544402 10.872586872586872 L 84.01544401544402 10.872586872586872 Q 67.2123552123552 0 52.38610038610039 12.849420849420849 L 12.849420849420849 52.38610038610039 L 12.849420849420849 52.38610038610039 Q 0 67.2123552123552 10.872586872586872 84.01544401544402 L 89.94594594594595 186.8108108108108 L 89.94594594594595 186.8108108108108 Q 96.86486486486487 195.7065637065637 108.72586872586872 195.7065637065637 L 171.98455598455598 195.7065637065637 L 171.98455598455598 195.7065637065637 Q 171.98455598455598 195.7065637065637 172.97297297297297 195.7065637065637 Q 172.97297297297297 195.7065637065637 172.97297297297297 195.7065637065637 L 273.7915057915058 296.5250965250965 L 273.7915057915058 296.5250965250965 Q 259.95366795366795 319.25868725868725 261.9305019305019 345.94594594594594 Q 264.8957528957529 371.64478764478764 283.6756756756757 392.4015444015444 L 394.3783783783784 503.1042471042471 L 394.3783783783784 503.1042471042471 Q 404.26254826254825 512 417.11196911196913 512 Q 429.96138996138995 512 439.8455598455598 503.1042471042471 L 503.1042471042471 439.8455598455598 L 503.1042471042471 439.8455598455598 Q 512 429.96138996138995 512 417.11196911196913 Q 512 404.26254826254825 503.1042471042471 394.3783783783784 L 392.4015444015444 283.6756756756757 L 392.4015444015444 283.6756756756757 Q 371.64478764478764 264.8957528957529 345.94594594594594 261.9305019305019 Q 319.25868725868725 259.95366795366795 296.5250965250965 273.7915057915058 L 195.7065637065637 172.97297297297297 L 195.7065637065637 172.97297297297297 Z M 306.4092664092664 306.4092664092664 Q 320.24710424710423 293.55984555984554 338.03861003861005 293.55984555984554 L 338.03861003861005 293.55984555984554 L 338.03861003861005 293.55984555984554 Q 355.83011583011586 293.55984555984554 369.66795366795367 306.4092664092664 L 480.3706563706564 417.11196911196913 L 480.3706563706564 417.11196911196913 L 417.11196911196913 480.3706563706564 L 417.11196911196913 480.3706563706564 L 306.4092664092664 369.66795366795367 L 306.4092664092664 369.66795366795367 Q 293.55984555984554 355.83011583011586 293.55984555984554 338.03861003861005 Q 293.55984555984554 320.24710424710423 306.4092664092664 306.4092664092664 L 306.4092664092664 306.4092664092664 Z M 108.72586872586872 425.019305019305 Q 107.73745173745174 410.19305019305017 92.91119691119691 409.2046332046332 Q 78.08494208494209 410.19305019305017 77.0965250965251 425.019305019305 Q 78.08494208494209 439.8455598455598 92.91119691119691 440.8339768339768 Q 107.73745173745174 439.8455598455598 108.72586872586872 425.019305019305 L 108.72586872586872 425.019305019305 Z M 28.664092664092664 378.56370656370655 Q 5.93050193050193 401.2972972972973 5.93050193050193 433.9150579150579 Q 6.918918918918919 466.5328185328185 28.664092664092664 489.26640926640925 Q 51.397683397683394 511.011583011583 84.01544401544402 512 Q 116.63320463320463 512 139.36679536679537 489.26640926640925 L 242.16216216216216 387.4594594594595 L 242.16216216216216 387.4594594594595 Q 233.26640926640925 370.65637065637065 231.28957528957528 351.87644787644786 L 116.63320463320463 466.5328185328185 L 116.63320463320463 466.5328185328185 Q 102.79536679536679 479.3822393822394 84.01544401544402 479.3822393822394 Q 64.24710424710425 479.3822393822394 51.397683397683394 466.5328185328185 Q 38.54826254826255 453.6833976833977 38.54826254826255 433.9150579150579 Q 38.54826254826255 415.13513513513516 51.397683397683394 401.2972972972973 L 192.74131274131275 259.95366795366795 L 192.74131274131275 259.95366795366795 L 170.007722007722 237.22007722007723 L 170.007722007722 237.22007722007723 L 28.664092664092664 378.56370656370655 L 28.664092664092664 378.56370656370655 Z M 479.3822393822394 164.0772200772201 Q 479.3822393822394 197.6833976833977 463.56756756756755 225.35907335907336 L 463.56756756756755 225.35907335907336 L 463.56756756756755 225.35907335907336 Q 448.74131274131275 252.04633204633205 422.05405405405406 269.8378378378378 L 445.7760617760618 292.57142857142856 L 445.7760617760618 292.57142857142856 Q 476.41698841698843 270.82625482625485 494.2084942084942 237.22007722007723 Q 512 204.6023166023166 512 164.0772200772201 Q 512 126.51737451737452 496.18532818532816 95.87644787644787 Q 487.2895752895753 82.03861003861005 473.4517374517375 91.92277992277992 L 406.2393822393822 159.13513513513513 L 406.2393822393822 159.13513513513513 Q 401.2972972972973 164.0772200772201 394.3783783783784 164.0772200772201 L 369.66795366795367 164.0772200772201 L 369.66795366795367 164.0772200772201 Q 354.8416988416988 163.08880308880308 353.8532818532818 148.26254826254825 L 353.8532818532818 123.55212355212355 L 353.8532818532818 123.55212355212355 Q 353.8532818532818 116.63320463320463 358.7953667953668 111.6911196911197 L 426.007722007722 44.47876447876448 L 426.007722007722 44.47876447876448 Q 435.8918918918919 30.64092664092664 422.05405405405406 21.745173745173744 Q 390.42471042471044 5.93050193050193 353.8532818532818 5.93050193050193 Q 312.33976833976834 5.93050193050193 277.74517374517376 25.698841698841697 Q 243.15057915057915 44.47876447876448 221.40540540540542 77.0965250965251 L 247.1042471042471 96.86486486486487 L 247.1042471042471 96.86486486486487 Q 264.8957528957529 70.17760617760618 292.57142857142856 54.36293436293436 Q 320.24710424710423 38.54826254826255 353.8532818532818 38.54826254826255 Q 368.6795366795367 38.54826254826255 383.5057915057915 41.513513513513516 L 336.0617760617761 88.95752895752896 L 336.0617760617761 88.95752895752896 Q 322.2239382239382 103.78378378378379 321.2355212355212 123.55212355212355 L 321.2355212355212 148.26254826254825 L 321.2355212355212 148.26254826254825 Q 322.2239382239382 169.01930501930502 336.0617760617761 181.86872586872587 Q 348.9111969111969 195.7065637065637 369.66795366795367 196.6949806949807 L 394.3783783783784 196.6949806949807 L 394.3783783783784 196.6949806949807 Q 414.1467181467182 195.7065637065637 428.97297297297297 181.86872586872587 L 476.41698841698843 134.4247104247104 L 476.41698841698843 134.4247104247104 Q 479.3822393822394 149.25096525096524 479.3822393822394 164.0772200772201 L 479.3822393822394 164.0772200772201 Z" />
</svg>