<svg xmlns="http://www.w3.org/2000/svg" viewBox="0 0 512 512">
  <path d="M 64 16 Q 63 1 48 0 Q 33 1 32 16 L 32 64 L 32 64 L 32 367 L 32 367 L 32 400 L 32 400 L 32 496 L 32 496 Q 33 511 48 512 Q 63 511 64 496 L 64 392 L 64 392 L 160 368 L 160 368 Q 224 353 283 381 Q 352 415 425 389 L 459 376 L 459 376 Q 479 367 480 346 L 480 66 L 480 66 Q 479 48 465 40 Q 452 31 435 38 L 426 43 L 426 43 Q 390 61 352 61 Q 314 61 279 43 Q 224 17 165 31 L 64 56 L 64 56 L 64 16 L 64 16 Z M 64 89 L 173 62 L 64 89 L 173 62 Q 220 50 264 72 Q 306 93 352 93 Q 398 93 440 72 L 448 68 L 448 68 L 448 346 L 448 346 L 413 359 L 413 359 Q 354 380 297 353 Q 228 319 153 337 L 64 359 L 64 359 L 64 89 L 64 89 Z" />
</svg>