<svg xmlns="http://www.w3.org/2000/svg" viewBox="0 0 448 448">
    <path d="M 64 32 Q 50 32 41 41 L 41 41 Q 32 50 32 64 L 32 384 Q 32 398 41 407 Q 50 416 64 416 L 384 416 Q 398 416 407 407 Q 416 398 416 384 L 416 64 Q 416 50 407 41 Q 398 32 384 32 L 64 32 L 64 32 Z M 0 64 Q 1 37 19 19 L 19 19 Q 37 1 64 0 L 384 0 Q 411 1 429 19 Q 447 37 448 64 L 448 384 Q 447 411 429 429 Q 411 447 384 448 L 64 448 Q 37 447 19 429 Q 1 411 0 384 L 0 64 L 0 64 Z M 103 123 L 159 285 L 209 131 Q 213 121 224 120 Q 235 121 239 131 L 289 285 L 345 123 Q 351 109 365 113 Q 379 119 375 133 L 303 341 Q 299 352 288 352 Q 277 351 273 341 L 224 189 L 175 341 Q 171 351 160 352 Q 149 352 145 341 L 73 133 Q 69 119 83 113 Q 97 109 103 123 L 103 123 Z"/>
</svg>
