<svg xmlns="http://www.w3.org/2000/svg" viewBox="0 0 512 512">
  <path d="M 128 56.888888888888886 Q 97.77777777777777 57.77777777777778 77.33333333333333 77.33333333333333 L 77.33333333333333 77.33333333333333 L 77.33333333333333 77.33333333333333 Q 57.77777777777778 97.77777777777777 56.888888888888886 128 L 56.888888888888886 176 L 56.888888888888886 176 Q 56.888888888888886 192.88888888888889 44.44444444444444 205.33333333333334 L 4.444444444444445 246.22222222222223 L 4.444444444444445 246.22222222222223 Q 0 249.77777777777777 0 256 Q 0 262.22222222222223 4.444444444444445 265.77777777777777 L 44.44444444444444 306.6666666666667 L 44.44444444444444 306.6666666666667 Q 56.888888888888886 319.1111111111111 56.888888888888886 336 L 56.888888888888886 384 L 56.888888888888886 384 Q 57.77777777777778 414.22222222222223 78.22222222222223 434.6666666666667 Q 97.77777777777777 454.22222222222223 128 455.1111111111111 L 184.88888888888889 455.1111111111111 L 184.88888888888889 455.1111111111111 Q 198.22222222222223 454.22222222222223 199.11111111111111 440.8888888888889 Q 198.22222222222223 427.55555555555554 184.88888888888889 426.6666666666667 L 128 426.6666666666667 L 128 426.6666666666667 Q 110.22222222222223 425.77777777777777 97.77777777777777 414.22222222222223 Q 86.22222222222223 401.77777777777777 85.33333333333333 384 L 85.33333333333333 336.8888888888889 L 85.33333333333333 336.8888888888889 Q 85.33333333333333 307.55555555555554 64.88888888888889 286.22222222222223 L 34.666666666666664 256 L 34.666666666666664 256 L 64.88888888888889 225.77777777777777 L 64.88888888888889 225.77777777777777 Q 84.44444444444444 204.44444444444446 85.33333333333333 176 L 85.33333333333333 128 L 85.33333333333333 128 Q 85.33333333333333 110.22222222222223 97.77777777777777 97.77777777777777 Q 110.22222222222223 86.22222222222223 128 85.33333333333333 L 184.88888888888889 85.33333333333333 L 184.88888888888889 85.33333333333333 Q 198.22222222222223 84.44444444444444 199.11111111111111 71.11111111111111 Q 198.22222222222223 57.77777777777778 184.88888888888889 56.888888888888886 L 128 56.888888888888886 L 128 56.888888888888886 Z M 384 56.888888888888886 L 327.1111111111111 56.888888888888886 L 384 56.888888888888886 L 327.1111111111111 56.888888888888886 Q 313.77777777777777 57.77777777777778 312.8888888888889 71.11111111111111 Q 313.77777777777777 84.44444444444444 327.1111111111111 85.33333333333333 L 384 85.33333333333333 L 384 85.33333333333333 Q 401.77777777777777 86.22222222222223 414.22222222222223 97.77777777777777 Q 425.77777777777777 110.22222222222223 426.6666666666667 128 L 426.6666666666667 176 L 426.6666666666667 176 Q 426.6666666666667 204.44444444444446 447.1111111111111 225.77777777777777 L 477.3333333333333 256 L 477.3333333333333 256 L 448 286.22222222222223 L 448 286.22222222222223 Q 427.55555555555554 307.55555555555554 426.6666666666667 336.8888888888889 L 426.6666666666667 384 L 426.6666666666667 384 Q 426.6666666666667 401.77777777777777 414.22222222222223 414.22222222222223 Q 401.77777777777777 425.77777777777777 384 426.6666666666667 L 327.1111111111111 426.6666666666667 L 327.1111111111111 426.6666666666667 Q 313.77777777777777 427.55555555555554 312.8888888888889 440.8888888888889 Q 313.77777777777777 454.22222222222223 327.1111111111111 455.1111111111111 L 384 455.1111111111111 L 384 455.1111111111111 Q 414.22222222222223 454.22222222222223 434.6666666666667 434.6666666666667 Q 454.22222222222223 414.22222222222223 455.1111111111111 384 L 455.1111111111111 336.8888888888889 L 455.1111111111111 336.8888888888889 Q 455.1111111111111 319.1111111111111 467.55555555555554 306.6666666666667 L 507.55555555555554 265.77777777777777 L 507.55555555555554 265.77777777777777 Q 512 262.22222222222223 512 256 Q 512 249.77777777777777 507.55555555555554 246.22222222222223 L 467.55555555555554 205.33333333333334 L 467.55555555555554 205.33333333333334 Q 455.1111111111111 192.88888888888889 455.1111111111111 176 L 455.1111111111111 128 L 455.1111111111111 128 Q 454.22222222222223 97.77777777777777 434.6666666666667 77.33333333333333 Q 414.22222222222223 57.77777777777778 384 56.888888888888886 L 384 56.888888888888886 Z" />
</svg>