<svg xmlns="http://www.w3.org/2000/svg" viewBox="0 0 512 512">
  <path d="M 216.4227 42.08219 L 278.54404 105.20548 L 216.4227 42.08219 L 278.54404 105.20548 L 178.34834 205.40117 L 178.34834 205.40117 L 115.22505 143.27985 L 115.22505 143.27985 L 216.4227 42.08219 L 216.4227 42.08219 Z M 301.58905 82.16047 L 233.45596 14.027397 L 301.58905 82.16047 L 233.45596 14.027397 Q 216.4227 0 199.38943 14.027397 L 87.17026 126.246574 L 87.17026 126.246574 Q 73.14286 143.27985 87.17026 160.31311 L 135.26419 208.40704 L 135.26419 208.40704 Q 64.125244 202.39531 6.0117416 250.48924 Q 0 255.49902 0 263.51468 L 0 263.51468 L 0 263.51468 Q 0 271.53033 5.0097847 276.54013 L 109.21331 380.74365 L 109.21331 380.74365 L 93.182 396.77496 L 93.182 396.77496 Q 83.16243 391.76517 72.1409 391.76517 Q 52.10176 392.76712 38.074364 405.79257 Q 25.048923 419.81995 24.046967 439.8591 Q 25.048923 459.89822 38.074364 473.92563 Q 52.10176 486.95108 72.1409 487.95303 Q 92.18004 486.95108 106.207436 473.92563 Q 119.23288 459.89822 120.23483 439.8591 Q 120.23483 428.8376 115.22505 418.818 L 131.25636 402.78668 L 131.25636 402.78668 L 235.45988 506.9902 L 235.45988 506.9902 Q 240.46967 512 248.48532 512 L 248.48532 512 L 248.48532 512 Q 256.50098 512 261.51077 505.98825 Q 309.6047 447.87476 303.59296 376.7358 L 351.6869 424.82974 L 351.6869 424.82974 Q 368.72015 438.85715 385.75342 424.82974 L 497.9726 312.61057 L 497.9726 312.61057 Q 512 295.5773 497.9726 278.54404 L 429.83954 210.41096 L 429.83954 210.41096 L 455.8904 184.36008 L 455.8904 184.36008 Q 472.92368 167.32681 472.92368 143.27985 Q 472.92368 119.23288 455.8904 102.19961 L 409.80038 56.10959 L 409.80038 56.10959 Q 392.76712 39.07632 368.72015 39.07632 Q 344.6732 39.07632 327.63992 56.10959 L 301.58905 82.16047 L 301.58905 82.16047 Z M 406.79453 233.45596 L 469.91782 295.5773 L 406.79453 233.45596 L 469.91782 295.5773 L 368.72015 396.77496 L 368.72015 396.77496 L 306.59882 333.65167 L 306.59882 333.65167 L 406.79453 233.45596 L 406.79453 233.45596 Z M 432.8454 161.31506 L 284.5558 310.60666 L 432.8454 161.31506 L 284.5558 310.60666 Q 272.5323 287.56165 253.4951 268.52448 L 243.47554 258.50488 L 243.47554 258.50488 Q 224.43835 239.46771 201.39334 227.44423 L 350.68494 79.1546 L 350.68494 79.1546 Q 357.69864 71.13895 368.72015 71.13895 Q 379.74167 71.13895 386.75537 79.1546 L 432.8454 125.24462 L 432.8454 125.24462 Q 440.86105 132.25832 440.86105 143.27985 Q 440.86105 154.30138 432.8454 161.31506 L 432.8454 161.31506 Z M 231.45206 291.56946 Q 268.52448 329.64383 272.5323 379.74167 L 272.5323 379.74167 L 272.5323 379.74167 Q 276.54013 429.83954 246.48141 472.92368 L 39.07632 265.5186 L 39.07632 265.5186 Q 82.16047 235.45988 132.25832 239.46771 Q 182.35617 243.47554 220.43053 280.54794 L 231.45206 291.56946 L 231.45206 291.56946 Z M 72.1409 423.8278 Q 87.17026 424.82974 88.17221 439.8591 Q 87.17026 454.88846 72.1409 455.8904 Q 57.111546 454.88846 56.10959 439.8591 Q 57.111546 424.82974 72.1409 423.8278 L 72.1409 423.8278 Z" />
</svg>