<svg xmlns="http://www.w3.org/2000/svg" viewBox="0 0 512 512">
  <path d="M 310.19623 425.19794 Q 310.19623 437.53528 302.26505 445.46643 L 302.26505 445.46643 L 302.26505 445.46643 Q 294.3339 453.39758 281.99655 453.39758 L 56.39931 453.39758 L 56.39931 453.39758 Q 44.061962 453.39758 36.13081 445.46643 Q 28.199656 437.53528 28.199656 425.19794 L 28.199656 86.80206 L 28.199656 86.80206 Q 28.199656 74.464714 36.13081 66.53356 Q 44.061962 58.60241 56.39931 58.60241 L 169.19794 58.60241 L 169.19794 58.60241 L 169.19794 157.30121 L 169.19794 157.30121 Q 170.07918 174.926 181.53528 187.26334 Q 193.87263 198.71945 211.49742 199.6007 L 310.19623 199.6007 L 310.19623 199.6007 L 310.19623 256 L 310.19623 256 L 338.39587 256 L 338.39587 256 L 338.39587 174.926 L 338.39587 174.926 Q 338.39587 157.30121 326.05853 144.96385 L 223.83476 42.740105 L 223.83476 42.740105 Q 211.49742 30.402754 193.87263 30.402754 L 56.39931 30.402754 L 56.39931 30.402754 Q 32.60585 31.283993 16.743546 47.1463 Q 0.88123924 63.008606 0 86.80206 L 0 425.19794 L 0 425.19794 Q 0.88123924 448.9914 16.743546 464.8537 Q 32.60585 480.716 56.39931 481.59726 L 281.99655 481.59726 L 281.99655 481.59726 Q 305.79 480.716 321.6523 464.8537 Q 337.51462 448.9914 338.39587 425.19794 L 338.39587 354.6988 L 338.39587 354.6988 L 310.19623 354.6988 L 310.19623 354.6988 L 310.19623 425.19794 L 310.19623 425.19794 Z M 310.19623 171.40103 L 211.49742 171.40103 L 310.19623 171.40103 L 211.49742 171.40103 Q 198.27882 170.51979 197.39758 157.30121 L 197.39758 59.48365 L 197.39758 59.48365 Q 200.92255 60.364887 203.56627 63.008606 L 305.79 165.23236 L 305.79 165.23236 Q 308.43375 167.87607 310.19623 171.40103 L 310.19623 171.40103 Z M 418.58865 218.10672 Q 408.89502 209.29433 399.2014 218.10672 Q 390.38898 227.80034 399.2014 237.49397 L 459.12564 298.29947 L 459.12564 298.29947 L 183.29776 298.29947 L 183.29776 298.29947 Q 170.07918 299.18073 169.19794 312.39932 Q 170.07918 325.6179 183.29776 326.49915 L 459.12564 326.49915 L 459.12564 326.49915 L 399.2014 387.30466 L 399.2014 387.30466 Q 390.38898 396.9983 399.2014 406.69193 Q 408.89502 415.5043 418.58865 406.69193 L 503.18762 322.09296 L 503.18762 322.09296 Q 512 312.39932 503.18762 302.7057 L 418.58865 218.10672 L 418.58865 218.10672 Z" />
</svg>