<svg xmlns="http://www.w3.org/2000/svg" viewBox="0 0 640 512">
    <path d="M 478 9 L 506 64 L 624 64 Q 639 65 640 80 Q 639 95 624 96 L 496 96 Q 486 96 482 87 L 466 55 L 415 182 Q 411 191 401 192 Q 391 192 386 183 L 342 96 L 208 96 Q 193 95 192 80 Q 193 65 208 64 L 352 64 Q 362 64 366 73 L 398 137 L 449 10 Q 453 1 463 0 Q 473 0 478 9 L 478 9 Z M 304 160 L 338 160 L 354 192 L 304 192 Q 289 193 288 208 L 288 352 L 608 352 L 608 272 Q 607 238 585 215 Q 562 193 528 192 L 445 192 L 458 160 L 528 160 Q 576 161 607 193 Q 639 224 640 272 L 640 368 L 640 432 L 640 496 Q 639 511 624 512 Q 609 511 608 496 L 608 448 L 32 448 L 32 496 Q 31 511 16 512 Q 1 511 0 496 L 0 432 L 0 368 L 0 80 Q 1 65 16 64 Q 31 65 32 80 L 32 352 L 256 352 L 256 208 Q 257 188 270 174 Q 284 161 304 160 L 304 160 Z M 608 416 L 608 384 L 272 384 L 32 384 L 32 416 L 608 416 L 608 416 Z M 192 240 Q 191 213 168 198 Q 144 186 120 198 Q 97 213 96 240 Q 97 267 120 282 Q 144 294 168 282 Q 191 267 192 240 L 192 240 Z M 64 240 Q 65 195 104 171 Q 144 149 184 171 Q 223 195 224 240 Q 223 285 184 309 Q 144 331 104 309 Q 65 285 64 240 L 64 240 Z"/>
</svg>
