<svg xmlns="http://www.w3.org/2000/svg" viewBox="0 0 512 512">
  <path d="M 160 80 Q 159 53 136 38 Q 112 26 88 38 Q 65 53 64 80 Q 65 107 88 122 Q 112 134 136 122 Q 159 107 160 80 L 160 80 Z M 192 80 Q 191 110 174 131 L 174 131 L 174 131 Q 156 152 128 158 L 128 354 L 128 354 Q 156 360 174 381 Q 191 402 192 432 Q 191 466 169 489 Q 146 511 112 512 Q 78 511 55 489 Q 33 466 32 432 Q 33 402 50 381 Q 68 360 96 354 L 96 158 L 96 158 Q 68 152 50 131 Q 33 110 32 80 Q 33 46 55 23 Q 78 1 112 0 Q 146 1 169 23 Q 191 46 192 80 L 192 80 Z M 64 432 Q 65 459 88 474 Q 112 486 136 474 Q 159 459 160 432 Q 159 405 136 390 Q 112 378 88 390 Q 65 405 64 432 L 64 432 Z M 400 480 Q 427 479 442 456 Q 454 432 442 408 Q 427 385 400 384 Q 373 385 358 408 Q 346 432 358 456 Q 373 479 400 480 L 400 480 Z M 384 354 L 384 208 L 384 354 L 384 208 Q 385 193 400 192 Q 415 193 416 208 L 416 354 L 416 354 Q 444 360 462 381 Q 479 402 480 432 Q 479 466 457 489 Q 434 511 400 512 Q 366 511 343 489 Q 321 466 320 432 Q 321 402 338 381 Q 356 360 384 354 L 384 354 Z M 333 13 Q 344 3 355 13 L 400 57 L 400 57 L 445 13 L 445 13 Q 456 3 467 13 Q 477 24 467 35 L 423 80 L 423 80 L 467 125 L 467 125 Q 477 136 467 147 Q 456 157 445 147 L 400 103 L 400 103 L 355 147 L 355 147 Q 344 157 333 147 Q 323 136 333 125 L 377 80 L 377 80 L 333 35 L 333 35 Q 323 24 333 13 L 333 13 Z" />
</svg>