<svg xmlns="http://www.w3.org/2000/svg" viewBox="0 0 576 420">
    <path d="M 366 140 Q 380 146 395 140 L 466 106 Q 472 104 475 108 Q 543 188 544 293 L 544 300 L 508 282 Q 490 274 473 279 Q 455 284 445 300 L 426 332 L 404 310 Q 387 295 367 296 Q 346 298 332 315 L 288 372 L 245 315 Q 230 298 210 296 Q 189 295 173 310 L 150 332 L 131 300 Q 121 284 103 279 Q 86 274 68 282 L 32 300 L 32 293 Q 33 188 101 108 Q 104 104 110 106 L 181 140 Q 196 147 210 140 Q 223 132 227 117 L 240 44 L 256 54 Q 270 64 288 64 Q 306 64 320 54 L 336 44 L 349 117 Q 353 132 366 140 L 366 140 Z M 358 29 L 358 29 L 348 14 L 358 29 Q 358 29 358 29 Q 358 29 358 29 L 358 29 Z M 375 79 L 362 12 Q 359 1 348 0 Q 344 0 341 2 L 303 28 Q 296 32 288 32 Q 280 32 273 28 L 236 2 Q 232 0 228 0 Q 217 1 214 12 L 201 79 L 195 111 L 165 97 L 123 77 Q 96 66 76 87 Q 39 130 20 183 Q 0 236 0 293 L 0 331 Q 0 338 6 342 Q 12 346 19 343 L 83 311 Q 96 305 104 317 L 133 366 Q 144 380 158 370 L 195 333 Q 208 323 219 335 L 275 408 Q 288 420 301 408 L 357 335 Q 368 323 381 333 L 417 370 Q 431 380 442 366 L 472 317 Q 480 305 493 311 L 557 343 Q 564 346 570 342 Q 575 338 576 331 L 576 293 Q 576 236 556 183 Q 537 130 500 87 Q 479 66 452 77 L 411 97 L 381 111 L 375 79 L 375 79 Z"/>
</svg>
