<svg xmlns="http://www.w3.org/2000/svg" viewBox="0 0 512 512">
  <path d="M 170.66667 128 Q 171.55556 110.22222 183.11111 97.77778 L 183.11111 97.77778 L 183.11111 97.77778 Q 195.55556 86.22222 213.33333 85.333336 L 355.55554 85.333336 L 355.55554 85.333336 Q 368.8889 84.44444 369.77777 71.111115 Q 368.8889 57.77778 355.55554 56.88889 L 213.33333 56.88889 L 213.33333 56.88889 Q 183.11111 57.77778 162.66667 77.333336 Q 143.11111 97.77778 142.22223 128 L 142.22223 170.66667 L 142.22223 170.66667 Q 118.22222 171.55556 102.22222 187.55556 Q 86.22222 203.55556 85.333336 227.55556 L 85.333336 228.44444 L 85.333336 228.44444 Q 48 234.66667 24.88889 261.33334 Q 0.8888889 288.8889 0 327.1111 L 0 355.55554 L 0 355.55554 Q 0.8888889 398.22223 29.333334 425.77777 Q 56.88889 454.22223 99.55556 455.1111 L 412.44446 455.1111 L 412.44446 455.1111 Q 455.1111 454.22223 482.66666 425.77777 Q 511.1111 398.22223 512 355.55554 L 512 327.1111 L 512 327.1111 Q 511.1111 288.8889 487.1111 261.33334 Q 464 234.66667 426.66666 228.44444 L 426.66666 227.55556 L 426.66666 227.55556 Q 425.77777 203.55556 409.77777 187.55556 Q 393.77777 171.55556 369.77777 170.66667 L 170.66667 170.66667 L 170.66667 170.66667 L 170.66667 128 L 170.66667 128 Z M 398.22223 227.55556 L 113.77778 227.55556 L 398.22223 227.55556 L 113.77778 227.55556 Q 113.77778 215.11111 121.77778 207.11111 Q 129.77777 199.11111 142.22223 199.11111 L 156.44444 199.11111 L 369.77777 199.11111 Q 382.22223 199.11111 390.22223 207.11111 Q 398.22223 215.11111 398.22223 227.55556 L 398.22223 227.55556 Z M 99.55556 426.66666 Q 69.333336 425.77777 48.88889 406.22223 L 48.88889 406.22223 L 48.88889 406.22223 Q 29.333334 385.77777 28.444445 355.55554 L 483.55554 355.55554 L 483.55554 355.55554 Q 482.66666 385.77777 463.1111 406.22223 Q 442.66666 425.77777 412.44446 426.66666 L 99.55556 426.66666 L 99.55556 426.66666 Z M 28.444445 327.1111 Q 29.333334 296.8889 48.88889 276.44446 L 48.88889 276.44446 L 48.88889 276.44446 Q 69.333336 256.8889 99.55556 256 L 412.44446 256 L 412.44446 256 Q 442.66666 256.8889 463.1111 276.44446 Q 482.66666 296.8889 483.55554 327.1111 L 28.444445 327.1111 L 28.444445 327.1111 Z" />
</svg>