<svg xmlns="http://www.w3.org/2000/svg" viewBox="0 0 512 512">
  <path d="M 284.44444444444446 85.33333333333333 Q 297.77777777777777 86.22222222222223 298.6666666666667 99.55555555555556 L 298.6666666666667 156.44444444444446 L 298.6666666666667 156.44444444444446 Q 297.77777777777777 169.77777777777777 284.44444444444446 170.66666666666666 L 270.22222222222223 170.66666666666666 L 227.55555555555554 170.66666666666666 Q 214.22222222222223 169.77777777777777 213.33333333333334 156.44444444444446 L 213.33333333333334 99.55555555555556 L 213.33333333333334 99.55555555555556 Q 214.22222222222223 86.22222222222223 227.55555555555554 85.33333333333333 L 284.44444444444446 85.33333333333333 L 284.44444444444446 85.33333333333333 Z M 227.55555555555554 199.11111111111111 L 241.77777777777777 199.11111111111111 L 227.55555555555554 199.11111111111111 L 241.77777777777777 199.11111111111111 L 241.77777777777777 241.77777777777777 L 241.77777777777777 241.77777777777777 L 99.55555555555556 241.77777777777777 L 99.55555555555556 241.77777777777777 Q 81.77777777777777 242.66666666666666 69.33333333333333 254.22222222222223 Q 57.77777777777778 266.6666666666667 56.888888888888886 284.44444444444446 L 56.888888888888886 312.8888888888889 L 56.888888888888886 312.8888888888889 L 42.666666666666664 312.8888888888889 L 42.666666666666664 312.8888888888889 Q 24.88888888888889 313.77777777777777 12.444444444444445 325.3333333333333 Q 0.8888888888888888 337.77777777777777 0 355.55555555555554 L 0 412.44444444444446 L 0 412.44444444444446 Q 0.8888888888888888 430.22222222222223 12.444444444444445 442.6666666666667 Q 24.88888888888889 454.22222222222223 42.666666666666664 455.1111111111111 L 99.55555555555556 455.1111111111111 L 99.55555555555556 455.1111111111111 Q 117.33333333333333 454.22222222222223 129.77777777777777 442.6666666666667 Q 141.33333333333334 430.22222222222223 142.22222222222223 412.44444444444446 L 142.22222222222223 355.55555555555554 L 142.22222222222223 355.55555555555554 Q 141.33333333333334 337.77777777777777 129.77777777777777 325.3333333333333 Q 117.33333333333333 313.77777777777777 99.55555555555556 312.8888888888889 L 85.33333333333333 312.8888888888889 L 85.33333333333333 312.8888888888889 L 85.33333333333333 284.44444444444446 L 85.33333333333333 284.44444444444446 Q 86.22222222222223 271.1111111111111 99.55555555555556 270.22222222222223 L 241.77777777777777 270.22222222222223 L 241.77777777777777 270.22222222222223 L 241.77777777777777 312.8888888888889 L 241.77777777777777 312.8888888888889 L 227.55555555555554 312.8888888888889 L 227.55555555555554 312.8888888888889 Q 209.77777777777777 313.77777777777777 197.33333333333334 325.3333333333333 Q 185.77777777777777 337.77777777777777 184.88888888888889 355.55555555555554 L 184.88888888888889 412.44444444444446 L 184.88888888888889 412.44444444444446 Q 185.77777777777777 430.22222222222223 197.33333333333334 442.6666666666667 Q 209.77777777777777 454.22222222222223 227.55555555555554 455.1111111111111 L 284.44444444444446 455.1111111111111 L 284.44444444444446 455.1111111111111 Q 302.22222222222223 454.22222222222223 314.6666666666667 442.6666666666667 Q 326.22222222222223 430.22222222222223 327.1111111111111 412.44444444444446 L 327.1111111111111 355.55555555555554 L 327.1111111111111 355.55555555555554 Q 326.22222222222223 337.77777777777777 314.6666666666667 325.3333333333333 Q 302.22222222222223 313.77777777777777 284.44444444444446 312.8888888888889 L 270.22222222222223 312.8888888888889 L 270.22222222222223 312.8888888888889 L 270.22222222222223 270.22222222222223 L 270.22222222222223 270.22222222222223 L 412.44444444444446 270.22222222222223 L 412.44444444444446 270.22222222222223 Q 425.77777777777777 271.1111111111111 426.6666666666667 284.44444444444446 L 426.6666666666667 312.8888888888889 L 426.6666666666667 312.8888888888889 L 412.44444444444446 312.8888888888889 L 412.44444444444446 312.8888888888889 Q 394.6666666666667 313.77777777777777 382.22222222222223 325.3333333333333 Q 370.6666666666667 337.77777777777777 369.77777777777777 355.55555555555554 L 369.77777777777777 412.44444444444446 L 369.77777777777777 412.44444444444446 Q 370.6666666666667 430.22222222222223 382.22222222222223 442.6666666666667 Q 394.6666666666667 454.22222222222223 412.44444444444446 455.1111111111111 L 469.3333333333333 455.1111111111111 L 469.3333333333333 455.1111111111111 Q 487.1111111111111 454.22222222222223 499.55555555555554 442.6666666666667 Q 511.1111111111111 430.22222222222223 512 412.44444444444446 L 512 355.55555555555554 L 512 355.55555555555554 Q 511.1111111111111 337.77777777777777 499.55555555555554 325.3333333333333 Q 487.1111111111111 313.77777777777777 469.3333333333333 312.8888888888889 L 455.1111111111111 312.8888888888889 L 455.1111111111111 312.8888888888889 L 455.1111111111111 284.44444444444446 L 455.1111111111111 284.44444444444446 Q 454.22222222222223 266.6666666666667 442.6666666666667 254.22222222222223 Q 430.22222222222223 242.66666666666666 412.44444444444446 241.77777777777777 L 270.22222222222223 241.77777777777777 L 270.22222222222223 241.77777777777777 L 270.22222222222223 199.11111111111111 L 270.22222222222223 199.11111111111111 L 284.44444444444446 199.11111111111111 L 284.44444444444446 199.11111111111111 Q 302.22222222222223 198.22222222222223 314.6666666666667 186.66666666666666 Q 326.22222222222223 174.22222222222223 327.1111111111111 156.44444444444446 L 327.1111111111111 99.55555555555556 L 327.1111111111111 99.55555555555556 Q 326.22222222222223 81.77777777777777 314.6666666666667 69.33333333333333 Q 302.22222222222223 57.77777777777778 284.44444444444446 56.888888888888886 L 227.55555555555554 56.888888888888886 L 227.55555555555554 56.888888888888886 Q 209.77777777777777 57.77777777777778 197.33333333333334 69.33333333333333 Q 185.77777777777777 81.77777777777777 184.88888888888889 99.55555555555556 L 184.88888888888889 156.44444444444446 L 184.88888888888889 156.44444444444446 Q 185.77777777777777 174.22222222222223 197.33333333333334 186.66666666666666 Q 209.77777777777777 198.22222222222223 227.55555555555554 199.11111111111111 L 227.55555555555554 199.11111111111111 Z M 42.666666666666664 341.3333333333333 L 99.55555555555556 341.3333333333333 L 42.666666666666664 341.3333333333333 L 99.55555555555556 341.3333333333333 Q 112.88888888888889 342.22222222222223 113.77777777777777 355.55555555555554 L 113.77777777777777 412.44444444444446 L 113.77777777777777 412.44444444444446 Q 112.88888888888889 425.77777777777777 99.55555555555556 426.6666666666667 L 42.666666666666664 426.6666666666667 L 42.666666666666664 426.6666666666667 Q 29.333333333333332 425.77777777777777 28.444444444444443 412.44444444444446 L 28.444444444444443 355.55555555555554 L 28.444444444444443 355.55555555555554 Q 29.333333333333332 342.22222222222223 42.666666666666664 341.3333333333333 L 42.666666666666664 341.3333333333333 Z M 227.55555555555554 341.3333333333333 L 284.44444444444446 341.3333333333333 L 227.55555555555554 341.3333333333333 L 284.44444444444446 341.3333333333333 Q 297.77777777777777 342.22222222222223 298.6666666666667 355.55555555555554 L 298.6666666666667 412.44444444444446 L 298.6666666666667 412.44444444444446 Q 297.77777777777777 425.77777777777777 284.44444444444446 426.6666666666667 L 227.55555555555554 426.6666666666667 L 227.55555555555554 426.6666666666667 Q 214.22222222222223 425.77777777777777 213.33333333333334 412.44444444444446 L 213.33333333333334 355.55555555555554 L 213.33333333333334 355.55555555555554 Q 214.22222222222223 342.22222222222223 227.55555555555554 341.3333333333333 L 227.55555555555554 341.3333333333333 Z M 412.44444444444446 341.3333333333333 L 469.3333333333333 341.3333333333333 L 412.44444444444446 341.3333333333333 L 469.3333333333333 341.3333333333333 Q 482.6666666666667 342.22222222222223 483.55555555555554 355.55555555555554 L 483.55555555555554 412.44444444444446 L 483.55555555555554 412.44444444444446 Q 482.6666666666667 425.77777777777777 469.3333333333333 426.6666666666667 L 412.44444444444446 426.6666666666667 L 412.44444444444446 426.6666666666667 Q 399.1111111111111 425.77777777777777 398.22222222222223 412.44444444444446 L 398.22222222222223 355.55555555555554 L 398.22222222222223 355.55555555555554 Q 399.1111111111111 342.22222222222223 412.44444444444446 341.3333333333333 L 412.44444444444446 341.3333333333333 Z" />
</svg>