<svg xmlns="http://www.w3.org/2000/svg" viewBox="0 0 512 512">
  <path d="M 56.888888888888886 85.33333333333333 Q 44.44444444444444 85.33333333333333 36.44444444444444 93.33333333333333 L 36.44444444444444 93.33333333333333 L 36.44444444444444 93.33333333333333 Q 28.444444444444443 101.33333333333333 28.444444444444443 113.77777777777777 L 28.444444444444443 398.22222222222223 L 28.444444444444443 398.22222222222223 Q 28.444444444444443 410.6666666666667 36.44444444444444 418.6666666666667 Q 44.44444444444444 426.6666666666667 56.888888888888886 426.6666666666667 L 341.3333333333333 426.6666666666667 L 341.3333333333333 426.6666666666667 Q 353.77777777777777 426.6666666666667 361.77777777777777 418.6666666666667 Q 369.77777777777777 410.6666666666667 369.77777777777777 398.22222222222223 L 369.77777777777777 270.22222222222223 L 369.77777777777777 270.22222222222223 L 369.77777777777777 113.77777777777777 L 369.77777777777777 113.77777777777777 Q 369.77777777777777 101.33333333333333 361.77777777777777 93.33333333333333 Q 353.77777777777777 85.33333333333333 341.3333333333333 85.33333333333333 L 56.888888888888886 85.33333333333333 L 56.888888888888886 85.33333333333333 Z M 398.22222222222223 113.77777777777777 L 398.22222222222223 256 L 398.22222222222223 113.77777777777777 L 398.22222222222223 256 L 426.6666666666667 256 L 426.6666666666667 256 L 426.6666666666667 213.33333333333334 L 426.6666666666667 213.33333333333334 L 426.6666666666667 170.66666666666666 L 426.6666666666667 170.66666666666666 Q 426.6666666666667 158.22222222222223 434.6666666666667 150.22222222222223 Q 442.6666666666667 142.22222222222223 455.1111111111111 142.22222222222223 L 483.55555555555554 142.22222222222223 L 483.55555555555554 142.22222222222223 Q 496 142.22222222222223 504 150.22222222222223 Q 512 158.22222222222223 512 170.66666666666666 L 512 199.11111111111111 L 512 199.11111111111111 Q 512 211.55555555555554 504 219.55555555555554 Q 496 227.55555555555554 483.55555555555554 227.55555555555554 L 455.1111111111111 227.55555555555554 L 455.1111111111111 227.55555555555554 L 455.1111111111111 270.22222222222223 L 455.1111111111111 270.22222222222223 Q 454.22222222222223 283.55555555555554 440.8888888888889 284.44444444444446 L 398.22222222222223 284.44444444444446 L 398.22222222222223 284.44444444444446 L 398.22222222222223 398.22222222222223 L 398.22222222222223 398.22222222222223 Q 397.3333333333333 422.22222222222223 381.3333333333333 438.22222222222223 Q 365.3333333333333 454.22222222222223 341.3333333333333 455.1111111111111 L 56.888888888888886 455.1111111111111 L 56.888888888888886 455.1111111111111 Q 32.888888888888886 454.22222222222223 16.88888888888889 438.22222222222223 Q 0.8888888888888888 422.22222222222223 0 398.22222222222223 L 0 113.77777777777777 L 0 113.77777777777777 Q 0.8888888888888888 89.77777777777777 16.88888888888889 73.77777777777777 Q 32.888888888888886 57.77777777777778 56.888888888888886 56.888888888888886 L 341.3333333333333 56.888888888888886 L 341.3333333333333 56.888888888888886 Q 365.3333333333333 57.77777777777778 381.3333333333333 73.77777777777777 Q 397.3333333333333 89.77777777777777 398.22222222222223 113.77777777777777 L 398.22222222222223 113.77777777777777 Z M 85.33333333333333 142.22222222222223 L 85.33333333333333 256 L 85.33333333333333 142.22222222222223 L 85.33333333333333 256 L 312.8888888888889 256 L 312.8888888888889 256 L 312.8888888888889 142.22222222222223 L 312.8888888888889 142.22222222222223 L 85.33333333333333 142.22222222222223 L 85.33333333333333 142.22222222222223 Z M 56.888888888888886 142.22222222222223 Q 56.888888888888886 129.77777777777777 64.88888888888889 121.77777777777777 L 64.88888888888889 121.77777777777777 L 64.88888888888889 121.77777777777777 Q 72.88888888888889 113.77777777777777 85.33333333333333 113.77777777777777 L 312.8888888888889 113.77777777777777 L 312.8888888888889 113.77777777777777 Q 325.3333333333333 113.77777777777777 333.3333333333333 121.77777777777777 Q 341.3333333333333 129.77777777777777 341.3333333333333 142.22222222222223 L 341.3333333333333 256 L 341.3333333333333 256 Q 341.3333333333333 268.44444444444446 333.3333333333333 276.44444444444446 Q 325.3333333333333 284.44444444444446 312.8888888888889 284.44444444444446 L 85.33333333333333 284.44444444444446 L 85.33333333333333 284.44444444444446 Q 72.88888888888889 284.44444444444446 64.88888888888889 276.44444444444446 Q 56.888888888888886 268.44444444444446 56.888888888888886 256 L 56.888888888888886 142.22222222222223 L 56.888888888888886 142.22222222222223 Z M 455.1111111111111 199.11111111111111 L 483.55555555555554 199.11111111111111 L 455.1111111111111 199.11111111111111 L 483.55555555555554 199.11111111111111 L 483.55555555555554 170.66666666666666 L 483.55555555555554 170.66666666666666 L 455.1111111111111 170.66666666666666 L 455.1111111111111 170.66666666666666 L 455.1111111111111 199.11111111111111 L 455.1111111111111 199.11111111111111 Z M 113.77777777777777 327.1111111111111 L 113.77777777777777 341.3333333333333 L 113.77777777777777 327.1111111111111 L 113.77777777777777 341.3333333333333 L 128 341.3333333333333 L 128 341.3333333333333 Q 141.33333333333334 342.22222222222223 142.22222222222223 355.55555555555554 Q 141.33333333333334 368.8888888888889 128 369.77777777777777 L 113.77777777777777 369.77777777777777 L 113.77777777777777 369.77777777777777 L 113.77777777777777 384 L 113.77777777777777 384 Q 112.88888888888889 397.3333333333333 99.55555555555556 398.22222222222223 Q 86.22222222222223 397.3333333333333 85.33333333333333 384 L 85.33333333333333 369.77777777777777 L 85.33333333333333 369.77777777777777 L 71.11111111111111 369.77777777777777 L 71.11111111111111 369.77777777777777 Q 57.77777777777778 368.8888888888889 56.888888888888886 355.55555555555554 Q 57.77777777777778 342.22222222222223 71.11111111111111 341.3333333333333 L 85.33333333333333 341.3333333333333 L 85.33333333333333 341.3333333333333 L 85.33333333333333 327.1111111111111 L 85.33333333333333 327.1111111111111 Q 86.22222222222223 313.77777777777777 99.55555555555556 312.8888888888889 Q 112.88888888888889 313.77777777777777 113.77777777777777 327.1111111111111 L 113.77777777777777 327.1111111111111 Z M 199.11111111111111 348.44444444444446 Q 200.88888888888889 328.8888888888889 220.44444444444446 327.1111111111111 Q 240 328.8888888888889 241.77777777777777 348.44444444444446 Q 240 368 220.44444444444446 369.77777777777777 Q 200.88888888888889 368 199.11111111111111 348.44444444444446 L 199.11111111111111 348.44444444444446 Z M 291.55555555555554 327.1111111111111 Q 311.1111111111111 328.8888888888889 312.8888888888889 348.44444444444446 Q 311.1111111111111 368 291.55555555555554 369.77777777777777 Q 272 368 270.22222222222223 348.44444444444446 Q 272 328.8888888888889 291.55555555555554 327.1111111111111 L 291.55555555555554 327.1111111111111 Z" />
</svg>