<svg xmlns="http://www.w3.org/2000/svg" viewBox="0 0 512 512">
  <path d="M 153.6 122.4 Q 160.8 90.4 184.8 71.2 L 184.8 71.2 L 184.8 71.2 Q 208.8 52 241.6 51.2 L 422.4 51.2 L 422.4 51.2 Q 460.8 52 485.6 77.6 Q 511.2 102.4 512 140.8 Q 512 168 497.6 189.6 Q 484 211.2 460.8 221.6 Q 485.6 259.2 486.4 307.2 L 486.4 409.6 L 486.4 409.6 Q 485.6 431.2 471.2 445.6 Q 456.8 460 435.2 460.8 L 375.2 460.8 L 375.2 460.8 Q 387.2 449.6 396 435.2 L 435.2 435.2 L 435.2 435.2 Q 446.4 435.2 453.6 428 Q 460.8 420.8 460.8 409.6 L 460.8 307.2 L 460.8 307.2 Q 459.2 252.8 423.2 216.8 Q 387.2 180.8 332.8 179.2 Q 321.6 179.2 314.4 186.4 Q 307.2 193.6 307.2 204.8 L 307.2 281.6 L 307.2 281.6 Q 293.6 281.6 281.6 284.8 L 281.6 204.8 L 281.6 204.8 Q 282.4 183.2 296.8 168.8 Q 311.2 154.4 332.8 153.6 Q 400 155.2 444 200.8 Q 462.4 194.4 474.4 178.4 Q 486.4 162.4 486.4 140.8 Q 485.6 113.6 468 95.2 Q 449.6 77.6 422.4 76.8 L 241.6 76.8 L 241.6 76.8 Q 218.4 77.6 201.6 91.2 Q 184 104.8 179.2 128 L 157.6 230.4 L 157.6 230.4 L 131.2 230.4 L 131.2 230.4 L 153.6 122.4 L 153.6 122.4 Z M 126.4 256 L 152 256 L 126.4 256 L 152 256 L 131.2 358.4 L 131.2 358.4 Q 152 360 164.8 374.4 Q 178.4 388.8 179.2 409.6 Q 178.4 431.2 164 445.6 Q 149.6 460 128 460.8 L 19.2 460.8 L 19.2 460.8 Q 1.6 459.2 0 441.6 Q 0 435.2 2.4 429.6 L 8 411.2 L 8 411.2 Q 16.8 387.2 36 372.8 Q 56 358.4 80.8 358.4 L 104.8 358.4 L 104.8 358.4 L 126.4 256 L 126.4 256 Z M 115.2 384 Q 115.2 384 115.2 384 L 115.2 384 L 115.2 384 Q 115.2 384 115.2 384 L 80.8 384 L 80.8 384 Q 64 384 51.2 393.6 Q 37.6 403.2 32 419.2 L 27.2 435.2 L 27.2 435.2 L 128 435.2 L 128 435.2 Q 139.2 435.2 146.4 428 Q 153.6 420.8 153.6 409.6 Q 153.6 398.4 146.4 391.2 Q 139.2 384 128 384 L 115.2 384 L 115.2 384 Z M 358.4 384 Q 357.6 355.2 332.8 340 Q 307.2 325.6 281.6 340 Q 256.8 355.2 256 384 Q 256.8 412.8 281.6 428 Q 307.2 442.4 332.8 428 Q 357.6 412.8 358.4 384 L 358.4 384 Z M 230.4 384 Q 230.4 363.2 240.8 345.6 L 240.8 345.6 L 240.8 345.6 Q 251.2 328 268.8 317.6 Q 287.2 307.2 307.2 307.2 Q 327.2 307.2 345.6 317.6 Q 363.2 328 373.6 345.6 Q 384 363.2 384 384 Q 384 404.8 373.6 422.4 Q 363.2 440 345.6 450.4 Q 327.2 460.8 307.2 460.8 Q 287.2 460.8 268.8 450.4 Q 251.2 440 240.8 422.4 Q 230.4 404.8 230.4 384 L 230.4 384 Z M 307.2 364.8 Q 324.8 366.4 326.4 384 Q 324.8 401.6 307.2 403.2 Q 289.6 401.6 288 384 Q 289.6 366.4 307.2 364.8 L 307.2 364.8 Z" />
</svg>