<svg xmlns="http://www.w3.org/2000/svg" viewBox="0 0 512 512">
  <path d="M 94.16092 8.827586 Q 86.31418 2.9425287 76.505745 5.8850574 Q 67.67816 10.789272 67.67816 20.597702 L 67.67816 491.4023 L 67.67816 491.4023 Q 67.67816 501.21072 76.505745 506.11493 Q 86.31418 509.05746 94.16092 503.17242 L 145.16475 458.05365 L 145.16475 458.05365 L 190.28352 502.19156 L 190.28352 502.19156 Q 201.0728 512 211.86208 502.19156 L 256 459.0345 L 256 459.0345 L 300.13794 502.19156 L 300.13794 502.19156 Q 310.92722 512 321.71646 502.19156 L 366.83524 458.05365 L 366.83524 458.05365 L 418.81992 503.17242 L 418.81992 503.17242 Q 425.68582 509.05746 435.49426 506.11493 Q 444.32184 501.21072 444.32184 491.4023 L 444.32184 20.597702 L 444.32184 20.597702 Q 444.32184 10.789272 435.49426 5.8850574 Q 425.68582 2.9425287 418.81992 8.827586 L 366.83524 53.94636 L 366.83524 53.94636 L 321.71646 9.808429 L 321.71646 9.808429 Q 310.92722 0 300.13794 9.808429 L 256 52.96552 L 256 52.96552 L 211.86208 9.808429 L 211.86208 9.808429 Q 201.0728 0 190.28352 9.808429 L 145.16475 53.94636 L 145.16475 53.94636 L 94.16092 8.827586 L 94.16092 8.827586 Z M 99.06513 457.07278 L 99.06513 54.927204 L 99.06513 457.07278 L 99.06513 54.927204 L 136.33716 87.29502 L 136.33716 87.29502 Q 147.12643 95.14176 156.93486 86.31418 L 201.0728 43.15709 L 201.0728 43.15709 L 245.21072 86.31418 L 245.21072 86.31418 Q 256 96.122604 266.78928 86.31418 L 310.92722 43.15709 L 310.92722 43.15709 L 355.06512 86.31418 L 355.06512 86.31418 Q 364.87357 95.14176 376.64368 87.29502 L 412.93488 54.927204 L 412.93488 54.927204 L 412.93488 457.07278 L 412.93488 457.07278 L 376.64368 424.705 L 376.64368 424.705 Q 364.87357 416.85825 355.06512 425.68582 L 310.92722 468.84293 L 310.92722 468.84293 L 266.78928 425.68582 L 266.78928 425.68582 Q 256 415.87738 245.21072 425.68582 L 201.0728 468.84293 L 201.0728 468.84293 L 156.93486 425.68582 L 156.93486 425.68582 Q 147.12643 416.85825 136.33716 424.705 L 99.06513 457.07278 L 99.06513 457.07278 Z M 161.83908 146.1456 Q 147.12643 147.12643 146.1456 161.83908 Q 147.12643 176.55173 161.83908 177.53256 L 350.16092 177.53256 L 350.16092 177.53256 Q 364.87357 176.55173 365.8544 161.83908 Q 364.87357 147.12643 350.16092 146.1456 L 161.83908 146.1456 L 161.83908 146.1456 Z M 146.1456 350.16092 Q 147.12643 364.87357 161.83908 365.8544 L 350.16092 365.8544 L 350.16092 365.8544 Q 364.87357 364.87357 365.8544 350.16092 Q 364.87357 335.44827 350.16092 334.46744 L 161.83908 334.46744 L 161.83908 334.46744 Q 147.12643 335.44827 146.1456 350.16092 L 146.1456 350.16092 Z M 161.83908 240.30652 Q 147.12643 241.28735 146.1456 256 Q 147.12643 270.71265 161.83908 271.69348 L 350.16092 271.69348 L 350.16092 271.69348 Q 364.87357 270.71265 365.8544 256 Q 364.87357 241.28735 350.16092 240.30652 L 161.83908 240.30652 L 161.83908 240.30652 Z" />
</svg>