<svg xmlns="http://www.w3.org/2000/svg" viewBox="0 0 512 512">
  <path d="M 192 32 Q 212 33 226 46 L 226 46 L 226 46 Q 239 60 240 80 L 240 128 L 240 128 L 213 128 L 213 128 Q 202 105 176 104 Q 159 104 148 116 Q 136 127 136 144 Q 136 161 148 172 Q 159 184 176 184 Q 202 183 213 160 L 240 160 L 240 160 L 240 272 L 240 272 L 192 272 L 192 272 Q 173 272 160 285 Q 146 297 144 315 Q 121 326 120 352 Q 120 369 132 380 Q 143 392 160 392 Q 177 392 188 380 Q 200 369 200 352 Q 199 326 177 316 Q 180 305 192 304 L 240 304 L 240 304 L 240 432 L 240 432 Q 239 452 226 466 Q 212 479 192 480 Q 159 478 147 449 Q 142 438 130 439 Q 125 440 120 440 Q 96 439 81 424 Q 65 408 64 384 Q 64 372 68 362 Q 73 350 62 342 Q 33 324 32 288 Q 33 258 54 240 Q 61 233 58 223 Q 56 216 56 208 Q 58 175 87 163 Q 98 158 97 145 Q 96 141 96 136 Q 96 119 106 106 Q 116 94 132 89 Q 143 86 144 75 Q 146 57 160 45 Q 173 32 192 32 L 192 32 Z M 272 160 L 320 160 L 272 160 L 320 160 Q 335 161 336 176 L 336 187 L 336 187 Q 313 198 312 224 Q 312 241 324 252 Q 335 264 352 264 Q 369 264 380 252 Q 392 241 392 224 Q 391 198 368 187 L 368 176 L 368 176 Q 367 156 354 142 Q 340 129 320 128 L 272 128 L 272 128 L 272 80 L 272 80 Q 273 60 286 46 Q 300 33 320 32 Q 339 32 352 45 Q 366 57 368 75 Q 369 86 380 89 Q 396 94 406 106 Q 416 119 416 136 Q 416 141 415 145 Q 414 158 425 163 Q 454 175 456 208 Q 456 216 454 223 Q 451 233 458 240 Q 479 258 480 288 Q 479 324 450 342 Q 439 350 444 362 Q 448 372 448 384 Q 447 408 431 423 Q 416 439 392 440 Q 387 440 382 439 Q 370 438 365 449 Q 353 478 320 480 Q 300 479 286 466 Q 273 452 272 432 L 272 384 L 272 384 L 331 384 L 331 384 Q 342 407 368 408 Q 385 408 396 396 Q 408 385 408 368 Q 408 351 396 340 Q 385 328 368 328 Q 342 329 331 352 L 272 352 L 272 352 L 272 160 L 272 160 Z M 192 512 Q 233 511 256 480 Q 279 511 320 512 Q 367 510 389 472 Q 390 472 391 472 Q 391 472 392 472 Q 429 471 454 446 Q 479 421 480 384 Q 480 373 477 362 Q 511 334 512 288 Q 511 249 487 223 Q 488 216 488 208 Q 486 161 448 139 Q 448 138 448 137 Q 448 137 448 136 Q 448 110 434 91 Q 420 71 398 62 Q 391 35 370 18 Q 349 1 320 0 Q 279 1 256 32 Q 233 1 192 0 Q 163 1 142 18 Q 121 35 114 62 Q 92 71 78 91 Q 64 110 64 136 Q 64 137 64 137 Q 64 138 64 139 Q 26 161 24 208 Q 24 216 25 223 Q 1 249 0 288 Q 2 334 35 362 Q 32 373 32 384 Q 33 421 58 446 Q 83 471 120 472 Q 121 472 121 472 Q 122 472 123 472 Q 146 510 192 512 L 192 512 Z M 176 128 Q 191 129 192 144 Q 191 159 176 160 Q 161 159 160 144 Q 161 129 176 128 L 176 128 Z M 160 336 Q 175 337 176 352 Q 175 367 160 368 Q 145 367 144 352 Q 145 337 160 336 L 160 336 Z M 336 224 Q 337 209 352 208 Q 367 209 368 224 Q 367 239 352 240 Q 337 239 336 224 L 336 224 Z M 368 352 Q 383 353 384 368 Q 383 383 368 384 Q 353 383 352 368 Q 353 353 368 352 L 368 352 Z" />
</svg>