<svg xmlns="http://www.w3.org/2000/svg" viewBox="0 0 512 512">
  <path d="M 51.2 76.8 L 409.6 76.8 L 51.2 76.8 L 409.6 76.8 Q 420.8 76.8 428 84 Q 435.2 91.2 435.2 102.4 L 435.2 210.4 L 435.2 210.4 Q 448.8 213.6 460.8 220 L 460.8 102.4 L 460.8 102.4 Q 460 80.8 445.6 66.4 Q 431.2 52 409.6 51.2 L 51.2 51.2 L 51.2 51.2 Q 29.6 52 15.2 66.4 Q 0.8 80.8 0 102.4 L 0 332.8 L 0 332.8 Q 0.8 354.4 15.2 368.8 Q 29.6 383.2 51.2 384 L 170.4 384 L 170.4 384 L 161.6 435.2 L 161.6 435.2 L 115.2 435.2 L 115.2 435.2 Q 103.2 436 102.4 448 Q 103.2 460 115.2 460.8 L 172.8 460.8 L 316 460.8 Q 300 449.6 288 435.2 L 272.8 435.2 L 188 435.2 L 196.8 384 L 196.8 384 L 230.4 384 L 261.6 384 Q 257.6 372 256.8 358.4 L 185.6 358.4 L 185.6 358.4 Q 185.6 358.4 185.6 358.4 Q 185.6 358.4 185.6 358.4 L 51.2 358.4 L 51.2 358.4 Q 40 358.4 32.8 351.2 Q 25.6 344 25.6 332.8 L 25.6 102.4 L 25.6 102.4 Q 25.6 91.2 32.8 84 Q 40 76.8 51.2 76.8 L 51.2 76.8 Z M 384 205.6 L 384 140.8 L 384 205.6 L 384 140.8 Q 383.2 128.8 371.2 128 L 294.4 128 L 294.4 128 Q 282.4 128.8 281.6 140.8 Q 282.4 152.8 294.4 153.6 L 340 153.6 L 340 153.6 L 243.2 250.4 L 243.2 250.4 L 188 196 L 188 196 Q 179.2 188 170.4 196 L 80.8 285.6 L 80.8 285.6 Q 72.8 294.4 80.8 303.2 Q 89.6 311.2 98.4 303.2 L 179.2 223.2 L 179.2 223.2 L 234.4 277.6 L 234.4 277.6 Q 237.6 281.6 243.2 281.6 Q 248.8 281.6 252 277.6 L 358.4 172 L 358.4 172 L 358.4 210.4 L 358.4 210.4 Q 370.4 206.4 384 205.6 L 384 205.6 Z M 396.8 256 Q 420.8 256 441.6 268 L 441.6 268 L 441.6 268 Q 462.4 280 474.4 300.8 Q 486.4 321.6 486.4 345.6 Q 486.4 369.6 474.4 390.4 Q 462.4 411.2 441.6 423.2 Q 420.8 435.2 396.8 435.2 Q 372.8 435.2 352 423.2 Q 331.2 411.2 319.2 390.4 Q 307.2 369.6 307.2 345.6 Q 307.2 321.6 319.2 300.8 Q 331.2 280 352 268 Q 372.8 256 396.8 256 L 396.8 256 Z M 396.8 460.8 Q 428 460.8 454.4 445.6 L 454.4 445.6 L 454.4 445.6 Q 480.8 430.4 496.8 403.2 Q 512 376 512 345.6 Q 512 315.2 496.8 288 Q 480.8 260.8 454.4 245.6 Q 428 230.4 396.8 230.4 Q 365.6 230.4 339.2 245.6 Q 312.8 260.8 296.8 288 Q 281.6 315.2 281.6 345.6 Q 281.6 376 296.8 403.2 Q 312.8 430.4 339.2 445.6 Q 365.6 460.8 396.8 460.8 L 396.8 460.8 Z M 376.8 325.6 Q 388 312.8 404.8 316.8 Q 420.8 321.6 425.6 337.6 Q 429.6 354.4 416.8 365.6 Q 405.6 378.4 388.8 374.4 Q 372.8 369.6 368 353.6 Q 364 336.8 376.8 325.6 L 376.8 325.6 Z M 424.8 392 L 432.8 399.2 L 424.8 392 L 432.8 399.2 Q 441.6 407.2 450.4 399.2 Q 458.4 390.4 450.4 381.6 L 443.2 373.6 L 443.2 373.6 Q 459.2 345.6 443.2 317.6 L 450.4 309.6 L 450.4 309.6 Q 458.4 300.8 450.4 292 Q 441.6 284.8 432.8 292 L 424.8 299.2 L 424.8 299.2 Q 396.8 283.2 368.8 299.2 L 360.8 292 L 360.8 292 Q 352 284.8 343.2 292 Q 335.2 300.8 343.2 309.6 L 350.4 317.6 L 350.4 317.6 Q 334.4 345.6 350.4 373.6 L 343.2 381.6 L 343.2 381.6 Q 335.2 390.4 343.2 399.2 Q 352 407.2 360.8 399.2 L 368.8 392 L 368.8 392 Q 396.8 408 424.8 392 L 424.8 392 Z" />
</svg>