<svg xmlns="http://www.w3.org/2000/svg" viewBox="0 0 512 512">
  <path d="M 146.78498293515358 300.5597269624573 Q 161.63822525597269 318.0341296928328 180.86006825938566 334.6348122866894 Q 204.4505119453925 354.73037542662115 234.1569965870307 367.83617747440275 Q 263.86348122866895 380.9419795221843 298.8122866894198 381.81569965870307 Q 333.76109215017067 380.9419795221843 363.4675767918089 367.83617747440275 Q 393.1740614334471 354.73037542662115 416.76450511945393 334.6348122866894 Q 439.481228668942 314.5392491467577 456.08191126279866 293.56996587030716 Q 472.6825938566553 272.6006825938567 480.5460750853242 256 Q 472.6825938566553 239.39931740614335 456.08191126279866 218.43003412969284 Q 439.481228668942 197.46075085324233 416.76450511945393 177.36518771331058 Q 393.1740614334471 157.26962457337885 363.4675767918089 144.16382252559728 Q 333.76109215017067 131.0580204778157 298.8122866894198 130.18430034129693 Q 263.86348122866895 131.0580204778157 234.1569965870307 144.16382252559728 Q 204.4505119453925 157.26962457337885 180.86006825938566 177.36518771331058 Q 161.63822525597269 193.96587030716722 146.78498293515358 211.44027303754265 L 131.93174061433447 229.78839590443687 L 131.93174061433447 229.78839590443687 L 111.83617747440273 217.55631399317406 L 111.83617747440273 217.55631399317406 L 33.20136518771331 172.12286689419795 L 33.20136518771331 172.12286689419795 L 73.39249146757679 242.02047781569965 L 73.39249146757679 242.02047781569965 L 81.25597269624573 256 L 81.25597269624573 256 L 73.39249146757679 269.9795221843003 L 73.39249146757679 269.9795221843003 L 33.20136518771331 339.87713310580205 L 33.20136518771331 339.87713310580205 L 111.83617747440273 294.44368600682594 L 111.83617747440273 294.44368600682594 L 131.93174061433447 282.21160409556313 L 131.93174061433447 282.21160409556313 L 146.78498293515358 300.5597269624573 L 146.78498293515358 300.5597269624573 Z M 8.737201365187714 325.8976109215017 L 48.9283276450512 256 L 8.737201365187714 325.8976109215017 L 48.9283276450512 256 L 8.737201365187714 186.1023890784983 L 8.737201365187714 186.1023890784983 Q 0 167.7542662116041 13.979522184300341 152.0273037542662 Q 28.832764505119453 138.92150170648463 47.18088737201365 147.65870307167236 L 125.81569965870307 193.96587030716722 L 125.81569965870307 193.96587030716722 Q 141.54266211604096 173.8703071672355 163.38566552901023 156.39590443686006 Q 188.7235494880546 133.679180887372 222.79863481228668 117.95221843003414 Q 256.8737201365188 103.09897610921502 298.8122866894198 102.22525597269625 Q 340.75085324232083 103.09897610921502 374.8259385665529 117.95221843003414 Q 408.901023890785 133.679180887372 435.1126279863481 156.39590443686006 Q 460.45051194539246 178.23890784982936 477.9249146757679 201.82935153583617 Q 496.2730375426621 224.54607508532422 505.8839590443686 242.89419795221843 Q 512 256 505.8839590443686 269.1058020477816 Q 496.2730375426621 287.4539249146758 477.9249146757679 310.17064846416383 Q 460.45051194539246 333.76109215017067 435.1126279863481 355.60409556313994 Q 408.901023890785 378.320819112628 374.8259385665529 394.0477815699659 Q 340.75085324232083 408.901023890785 298.8122866894198 409.77474402730377 Q 256.8737201365188 408.901023890785 222.79863481228668 394.0477815699659 Q 188.7235494880546 378.320819112628 163.38566552901023 356.4778156996587 Q 141.54266211604096 338.12969283276453 125.81569965870307 318.0341296928328 L 47.18088737201365 364.34129692832767 L 47.18088737201365 364.34129692832767 Q 28.832764505119453 373.07849829351534 13.10580204778157 359.9726962457338 Q 0 344.2457337883959 8.737201365187714 325.8976109215017 L 8.737201365187714 325.8976109215017 Z M 368.70989761092153 235.0307167235495 Q 387.93174061433444 236.77815699658703 389.679180887372 256 Q 387.93174061433444 275.22184300341297 368.70989761092153 276.96928327645054 Q 349.48805460750856 275.22184300341297 347.740614334471 256 Q 349.48805460750856 236.77815699658703 368.70989761092153 235.0307167235495 L 368.70989761092153 235.0307167235495 Z" />
</svg>