<svg xmlns="http://www.w3.org/2000/svg" viewBox="0 0 512 512">
  <path d="M 247.9157894736842 30.09122807017544 Q 256 24.70175438596491 264.0842105263158 30.09122807017544 L 461.6982456140351 166.62456140350878 L 461.6982456140351 166.62456140350878 Q 477.8666666666667 177.40350877192984 480.56140350877195 196.26666666666668 L 510.2035087719298 438.79298245614035 L 510.2035087719298 438.79298245614035 Q 512 458.5543859649123 500.3228070175439 472.9263157894737 Q 487.7473684210526 486.4 467.9859649122807 487.29824561403507 L 44.0140350877193 487.29824561403507 L 44.0140350877193 487.29824561403507 Q 24.25263157894737 486.4 11.677192982456141 472.9263157894737 Q 0 458.5543859649123 1.7964912280701755 438.79298245614035 L 31.43859649122807 196.26666666666668 L 31.43859649122807 196.26666666666668 Q 34.13333333333333 177.40350877192984 50.30175438596491 166.62456140350878 L 247.9157894736842 30.09122807017544 L 247.9157894736842 30.09122807017544 Z M 66.47017543859648 189.97894736842105 Q 61.08070175438596 193.5719298245614 60.18245614035088 199.859649122807 L 29.642105263157895 442.3859649122807 L 29.642105263157895 442.3859649122807 Q 29.642105263157895 456.7578947368421 44.0140350877193 458.5543859649123 L 241.6280701754386 458.5543859649123 L 241.6280701754386 458.5543859649123 L 241.6280701754386 69.6140350877193 L 241.6280701754386 69.6140350877193 L 66.47017543859648 189.97894736842105 L 66.47017543859648 189.97894736842105 Z M 361.09473684210525 458.5543859649123 L 270.3719298245614 286.0912280701754 L 361.09473684210525 458.5543859649123 L 270.3719298245614 286.0912280701754 L 270.3719298245614 458.5543859649123 L 270.3719298245614 458.5543859649123 L 361.09473684210525 458.5543859649123 L 361.09473684210525 458.5543859649123 Z M 394.3298245614035 458.5543859649123 L 467.9859649122807 458.5543859649123 L 394.3298245614035 458.5543859649123 L 467.9859649122807 458.5543859649123 Q 482.3578947368421 456.7578947368421 482.3578947368421 442.3859649122807 L 451.8175438596491 199.859649122807 L 451.8175438596491 199.859649122807 Q 450.919298245614 193.5719298245614 445.52982456140353 189.97894736842105 L 270.3719298245614 69.6140350877193 L 270.3719298245614 69.6140350877193 L 270.3719298245614 225.01052631578946 L 270.3719298245614 225.01052631578946 L 394.3298245614035 458.5543859649123 L 394.3298245614035 458.5543859649123 Z" />
</svg>