<svg xmlns="http://www.w3.org/2000/svg" viewBox="0 0 643 512">
    <path d="M 93 0 Q 79 0 72 13 Q 68 20 62 31 Q 57 42 56 56 Q 57 80 71 96 L 20 156 Q 0 178 0 208 L 0 213 Q 1 245 22 266 Q 43 287 75 288 Q 102 288 123 271 L 136 259 L 160 331 L 160 336 L 160 464 Q 161 484 174 498 Q 188 511 208 512 L 256 512 Q 276 511 290 498 Q 303 484 304 464 L 304 416 L 432 416 L 432 464 Q 433 484 446 498 Q 460 511 480 512 L 528 512 Q 548 511 562 498 Q 575 484 576 464 L 576 336 L 576 328 L 576 208 Q 576 201 575 194 Q 579 198 583 202 Q 596 219 603 232 Q 606 239 608 242 Q 608 244 609 245 L 609 245 L 609 246 L 609 246 L 609 246 L 609 246 L 609 246 Q 615 259 629 255 Q 643 249 639 235 L 624 240 Q 635 236 637 235 Q 639 234 639 235 L 639 235 L 639 235 L 639 234 L 639 234 L 639 233 Q 638 232 637 230 Q 635 225 631 218 Q 624 202 607 182 Q 591 161 563 145 Q 536 129 496 128 Q 496 128 496 128 Q 496 128 496 128 L 278 128 Q 271 128 266 123 L 226 82 Q 232 70 232 56 Q 231 42 226 31 Q 220 20 216 13 Q 209 0 195 0 Q 186 0 179 6 L 144 36 L 109 6 Q 102 0 93 0 L 93 0 Z M 496 160 Q 496 160 496 160 L 496 160 Q 496 160 496 160 Q 496 160 496 160 Q 496 160 496 160 Q 517 161 530 174 Q 543 188 544 208 L 544 320 L 190 320 L 159 227 Q 156 219 148 217 Q 140 215 134 220 L 102 246 Q 90 256 75 256 Q 57 256 44 244 Q 32 231 32 213 L 32 208 Q 32 190 44 177 L 104 107 Q 112 95 103 85 Q 89 71 88 56 L 88 56 Q 88 56 88 56 Q 88 56 88 56 Q 88 56 88 55 Q 88 55 88 55 Q 88 54 89 53 Q 89 52 89 52 Q 90 48 92 44 Q 93 40 95 37 Q 95 37 95 36 L 133 68 Q 139 72 146 71 Q 146 71 147 71 Q 147 71 148 71 Q 152 70 156 67 L 193 36 Q 194 40 196 44 Q 198 48 199 52 Q 199 52 199 53 Q 200 54 200 55 Q 200 55 200 56 Q 200 56 200 56 Q 200 56 200 56 Q 200 56 200 56 L 200 56 Q 200 65 193 75 Q 186 86 194 96 L 243 146 Q 257 160 277 160 L 496 160 L 496 160 Z M 192 464 L 192 352 L 544 352 L 544 464 Q 543 479 528 480 L 480 480 Q 465 479 464 464 L 464 400 Q 463 385 448 384 L 288 384 Q 273 385 272 400 L 272 464 Q 271 479 256 480 L 208 480 Q 193 479 192 464 L 192 464 Z M 272 208 Q 271 193 256 192 Q 241 193 240 208 L 240 224 L 224 224 Q 209 225 208 240 Q 209 255 224 256 L 240 256 L 240 272 Q 241 287 256 288 Q 271 287 272 272 L 272 256 L 288 256 Q 303 255 304 240 Q 303 225 288 224 L 272 224 L 272 208 L 272 208 Z M 384 208 Q 383 193 368 192 Q 353 193 352 208 L 352 224 L 336 224 Q 321 225 320 240 Q 321 255 336 256 L 352 256 L 352 272 Q 353 287 368 288 Q 383 287 384 272 L 384 256 L 400 256 Q 415 255 416 240 Q 415 225 400 224 L 384 224 L 384 208 L 384 208 Z M 480 192 Q 465 193 464 208 L 464 224 L 448 224 Q 433 225 432 240 Q 433 255 448 256 L 464 256 L 464 272 Q 465 287 480 288 Q 495 287 496 272 L 496 256 L 512 256 Q 527 255 528 240 Q 527 225 512 224 L 496 224 L 496 208 Q 495 193 480 192 L 480 192 Z"/>
</svg>
