<svg xmlns="http://www.w3.org/2000/svg" viewBox="0 0 576 448">
    <path d="M 144 32 Q 129 33 128 48 L 128 352 L 448 352 L 448 48 Q 447 33 432 32 L 144 32 L 144 32 Z M 480 48 L 480 352 L 496 352 Q 511 353 512 368 Q 511 383 496 384 L 480 384 L 448 384 L 128 384 L 96 384 L 80 384 Q 65 383 64 368 Q 65 353 80 352 L 96 352 L 96 48 Q 97 28 110 14 Q 124 1 144 0 L 432 0 Q 452 1 466 14 Q 479 28 480 48 L 480 48 Z M 48 288 L 64 288 L 64 320 L 48 320 Q 33 321 32 336 L 32 400 Q 33 415 48 416 L 528 416 Q 543 415 544 400 L 544 336 Q 543 321 528 320 L 512 320 L 512 288 L 528 288 Q 548 289 562 302 Q 575 316 576 336 L 576 400 Q 575 420 562 434 Q 548 447 528 448 L 48 448 Q 28 447 14 434 Q 1 420 0 400 L 0 336 Q 1 316 14 302 Q 28 289 48 288 L 48 288 Z M 379 142 L 273 249 Q 261 258 250 249 L 197 195 Q 187 184 197 173 Q 208 163 219 173 L 261 215 L 357 119 Q 368 110 379 119 Q 389 131 379 142 L 379 142 Z"/>
</svg>
