<svg xmlns="http://www.w3.org/2000/svg" viewBox="0 0 512 512">
  <path d="M 455.1111 56.88889 Q 467.55554 56.88889 475.55554 64.888885 L 475.55554 64.888885 L 475.55554 64.888885 Q 483.55554 72.888885 483.55554 85.333336 L 483.55554 341.33334 L 483.55554 341.33334 Q 483.55554 353.77777 475.55554 361.77777 Q 467.55554 369.77777 455.1111 369.77777 L 305.77777 369.77777 L 305.77777 369.77777 Q 305.77777 369.77777 305.77777 369.77777 Q 305.77777 369.77777 305.77777 369.77777 L 206.22223 369.77777 L 206.22223 369.77777 Q 206.22223 369.77777 206.22223 369.77777 Q 206.22223 369.77777 206.22223 369.77777 L 56.88889 369.77777 L 56.88889 369.77777 Q 44.444443 369.77777 36.444443 361.77777 Q 28.444445 353.77777 28.444445 341.33334 L 28.444445 85.333336 L 28.444445 85.333336 Q 28.444445 72.888885 36.444443 64.888885 Q 44.444443 56.88889 56.88889 56.88889 L 455.1111 56.88889 L 455.1111 56.88889 Z M 56.88889 398.22223 L 189.33333 398.22223 L 56.88889 398.22223 L 189.33333 398.22223 L 179.55556 455.1111 L 179.55556 455.1111 L 128 455.1111 L 128 455.1111 Q 114.666664 456 113.77778 469.33334 Q 114.666664 482.66666 128 483.55554 L 192 483.55554 L 384 483.55554 Q 397.33334 482.66666 398.22223 469.33334 Q 397.33334 456 384 455.1111 L 332.44446 455.1111 L 332.44446 455.1111 L 322.66666 398.22223 L 322.66666 398.22223 L 455.1111 398.22223 L 455.1111 398.22223 Q 479.1111 397.33334 495.1111 381.33334 Q 511.1111 365.33334 512 341.33334 L 512 85.333336 L 512 85.333336 Q 511.1111 61.333332 495.1111 45.333332 Q 479.1111 29.333334 455.1111 28.444445 L 56.88889 28.444445 L 56.88889 28.444445 Q 32.88889 29.333334 16.88889 45.333332 Q 0.8888889 61.333332 0 85.333336 L 0 341.33334 L 0 341.33334 Q 0.8888889 365.33334 16.88889 381.33334 Q 32.88889 397.33334 56.88889 398.22223 L 56.88889 398.22223 Z M 208.88889 455.1111 L 218.66667 398.22223 L 208.88889 455.1111 L 218.66667 398.22223 L 294.22223 398.22223 L 294.22223 398.22223 L 303.1111 455.1111 L 303.1111 455.1111 L 208.88889 455.1111 L 208.88889 455.1111 Z M 327.1111 113.77778 Q 313.77777 114.666664 312.8889 128 Q 313.77777 141.33333 327.1111 142.22223 L 377.77777 142.22223 L 377.77777 142.22223 L 270.22223 249.77777 L 270.22223 249.77777 L 208.88889 189.33333 L 208.88889 189.33333 Q 199.11111 180.44444 189.33333 189.33333 L 89.77778 288.8889 L 89.77778 288.8889 Q 80.888885 298.66666 89.77778 308.44446 Q 99.55556 317.33334 109.333336 308.44446 L 199.11111 219.55556 L 199.11111 219.55556 L 260.44446 280 L 260.44446 280 Q 264 284.44446 270.22223 284.44446 Q 276.44446 284.44446 280 280 L 398.22223 162.66667 L 398.22223 162.66667 L 398.22223 213.33333 L 398.22223 213.33333 Q 399.1111 226.66667 412.44446 227.55556 Q 425.77777 226.66667 426.66666 213.33333 L 426.66666 128 L 426.66666 128 Q 425.77777 114.666664 412.44446 113.77778 L 327.1111 113.77778 L 327.1111 113.77778 Z" />
</svg>