<svg xmlns="http://www.w3.org/2000/svg" viewBox="0 0 512 512">
  <path d="M 480 244 L 480 256 L 480 244 L 480 256 L 413 256 L 413 256 Q 401 226 368 224 Q 335 226 323 256 L 32 256 L 32 256 Q 32 241 44 233 L 193 134 L 193 134 Q 192 139 192 144 Q 193 164 206 178 Q 220 191 240 192 Q 260 191 274 178 Q 287 164 288 144 Q 288 126 277 113 Q 266 100 249 97 L 296 65 L 296 65 Q 298 64 300 64 Q 377 66 427 117 Q 478 168 480 244 L 480 244 Z M 323 288 Q 335 318 368 320 Q 401 318 413 288 L 480 288 L 480 288 L 480 416 L 480 416 Q 480 430 471 439 Q 462 448 448 448 L 64 448 L 64 448 Q 50 448 41 439 Q 32 430 32 416 L 32 288 L 32 288 L 323 288 L 323 288 Z M 512 256 L 512 244 L 512 256 L 512 244 Q 510 154 450 94 Q 390 34 300 32 Q 288 32 278 39 L 27 206 L 27 206 Q 1 224 0 256 L 0 416 L 0 416 Q 1 443 19 461 Q 37 479 64 480 L 448 480 L 448 480 Q 475 479 493 461 Q 511 443 512 416 L 512 256 L 512 256 Z M 160 368 Q 161 353 176 352 Q 191 353 192 368 Q 191 383 176 384 Q 161 383 160 368 L 160 368 Z M 224 368 Q 223 341 200 326 Q 176 314 152 326 Q 129 341 128 368 Q 129 395 152 410 Q 176 422 200 410 Q 223 395 224 368 L 224 368 Z M 240 128 Q 255 129 256 144 Q 255 159 240 160 Q 225 159 224 144 Q 225 129 240 128 L 240 128 Z M 352 272 Q 353 257 368 256 Q 383 257 384 272 Q 383 287 368 288 Q 353 287 352 272 L 352 272 Z" />
</svg>