<svg xmlns="http://www.w3.org/2000/svg" viewBox="0 0 480 512">
    <path d="M 207 38 Q 208 36 210 34 Q 225 32 240 32 Q 255 32 270 34 Q 272 36 273 38 L 286 86 Q 293 104 309 112 Q 320 117 331 124 Q 345 134 365 131 L 413 119 Q 415 118 417 119 Q 425 129 432 141 L 436 148 Q 443 159 448 171 Q 447 174 445 175 L 411 211 Q 398 225 400 244 Q 400 250 400 256 Q 400 262 400 269 Q 398 287 411 301 L 445 337 Q 447 338 447 341 Q 442 353 436 364 L 432 371 Q 425 383 417 393 Q 415 394 413 393 L 364 381 Q 346 378 331 388 Q 320 395 309 400 Q 292 408 286 427 L 273 474 Q 272 476 270 478 Q 255 480 240 480 Q 225 480 210 478 Q 208 476 207 474 L 194 427 Q 187 408 171 400 Q 160 395 149 388 Q 135 378 115 381 L 67 393 Q 65 394 63 393 Q 55 383 48 371 L 44 364 Q 37 353 32 341 Q 33 338 35 337 L 69 301 Q 82 287 81 269 Q 80 262 80 256 Q 80 250 81 244 Q 82 225 69 211 L 35 175 Q 33 173 33 171 Q 38 159 44 148 L 48 141 Q 55 129 63 119 Q 65 118 67 119 L 116 131 Q 135 134 150 124 Q 160 117 171 112 Q 188 104 194 85 L 207 38 L 207 38 Z M 240 0 Q 220 0 202 3 Q 199 3 197 5 Q 182 12 177 29 L 163 77 Q 162 80 157 83 Q 144 89 131 98 Q 127 100 123 100 L 75 88 Q 58 84 44 93 Q 42 94 40 96 Q 29 109 21 124 L 20 124 L 16 132 L 16 132 Q 8 147 2 163 Q 1 165 0 168 Q 0 185 12 198 L 46 233 Q 49 236 49 241 Q 48 245 48 249 Q 48 252 48 256 Q 48 264 49 271 Q 49 276 46 279 L 12 315 Q 0 328 1 344 Q 1 347 2 349 Q 8 365 16 380 L 16 380 L 20 388 L 21 388 Q 29 403 40 416 Q 42 418 44 420 Q 58 428 75 425 L 123 413 Q 127 412 131 414 Q 144 423 157 429 Q 162 432 163 435 L 177 483 Q 182 500 197 508 Q 199 509 202 509 Q 220 512 240 512 Q 260 512 278 509 Q 281 509 283 508 Q 298 500 303 483 L 317 435 Q 318 432 323 429 Q 336 423 349 414 Q 353 412 357 413 L 405 425 Q 422 428 436 419 Q 438 418 440 416 Q 451 403 459 388 L 460 388 L 464 380 L 464 380 Q 472 365 478 349 Q 479 347 480 344 Q 480 327 468 315 L 434 279 Q 431 276 431 271 Q 432 264 432 256 Q 432 248 431 241 Q 431 236 434 233 L 468 198 Q 480 185 480 168 Q 479 165 478 163 Q 472 147 464 132 L 464 132 L 460 124 L 460 124 Q 451 109 440 96 Q 438 94 436 93 Q 422 84 405 88 L 357 100 Q 353 100 349 98 Q 336 89 323 83 Q 318 80 317 77 L 303 29 Q 298 12 283 5 Q 281 3 278 3 Q 260 0 240 0 L 240 0 Z M 184 256 Q 185 224 212 208 Q 240 192 268 208 Q 295 224 296 256 Q 295 288 268 304 Q 240 320 212 304 Q 185 288 184 256 L 184 256 Z M 328 256 Q 326 206 284 180 Q 240 156 196 180 Q 154 206 152 256 Q 154 306 196 332 Q 240 356 284 332 Q 326 306 328 256 L 328 256 Z"/>
</svg>
