<svg xmlns="http://www.w3.org/2000/svg" viewBox="0 0 512 512">
  <path d="M 195.16427432216906 88.19138755980862 Q 185.3652312599681 78.39234449760765 172.29984051036683 78.39234449760765 L 172.29984051036683 78.39234449760765 L 172.29984051036683 78.39234449760765 Q 159.23444976076556 78.39234449760765 149.4354066985646 88.19138755980862 L 35.92982456140351 201.6969696969697 L 35.92982456140351 201.6969696969697 Q 26.130781499202552 211.49601275917067 26.130781499202552 224.56140350877192 Q 26.130781499202552 237.6267942583732 35.92982456140351 247.42583732057417 L 149.4354066985646 360.9314194577353 L 149.4354066985646 360.9314194577353 Q 159.23444976076556 370.7304625199362 172.29984051036683 370.7304625199362 Q 185.3652312599681 370.7304625199362 195.16427432216906 360.9314194577353 L 308.66985645933016 247.42583732057417 L 308.66985645933016 247.42583732057417 Q 318.4688995215311 237.6267942583732 318.4688995215311 224.56140350877192 Q 318.4688995215311 211.49601275917067 308.66985645933016 201.6969696969697 L 195.16427432216906 88.19138755980862 L 195.16427432216906 88.19138755980862 Z M 130.65390749601275 69.40988835725678 Q 148.6188197767145 52.261562998405104 172.29984051036683 52.261562998405104 L 172.29984051036683 52.261562998405104 L 172.29984051036683 52.261562998405104 Q 195.98086124401914 52.261562998405104 213.9457735247209 69.40988835725678 L 327.45135566188196 182.91547049441786 L 327.45135566188196 182.91547049441786 Q 344.59968102073367 200.8803827751196 344.59968102073367 224.56140350877192 Q 344.59968102073367 248.24242424242425 327.45135566188196 266.207336523126 L 213.9457735247209 379.7129186602871 L 213.9457735247209 379.7129186602871 Q 195.98086124401914 396.8612440191388 172.29984051036683 396.8612440191388 Q 148.6188197767145 396.8612440191388 130.65390749601275 379.7129186602871 L 17.148325358851675 266.207336523126 L 17.148325358851675 266.207336523126 Q 0 248.24242424242425 0 224.56140350877192 Q 0 200.8803827751196 17.148325358851675 182.91547049441786 L 130.65390749601275 69.40988835725678 L 130.65390749601275 69.40988835725678 Z M 250.69218500797447 407.4768740031898 L 250.69218500797447 379.7129186602871 L 250.69218500797447 407.4768740031898 L 250.69218500797447 379.7129186602871 L 276.82296650717706 353.5821371610845 L 276.82296650717706 353.5821371610845 L 276.82296650717706 407.4768740031898 L 276.82296650717706 407.4768740031898 Q 276.82296650717706 418.90909090909093 284.17224880382776 426.25837320574163 Q 291.52153110047846 433.60765550239233 302.9537480063796 433.60765550239233 L 459.7384370015949 433.60765550239233 L 459.7384370015949 433.60765550239233 Q 471.170653907496 433.60765550239233 478.51993620414675 426.25837320574163 Q 485.86921850079744 418.90909090909093 485.86921850079744 407.4768740031898 L 485.86921850079744 250.69218500797447 L 485.86921850079744 250.69218500797447 Q 485.86921850079744 239.25996810207337 478.51993620414675 231.91068580542264 Q 471.170653907496 224.56140350877192 459.7384370015949 224.56140350877192 L 370.7304625199362 224.56140350877192 L 370.7304625199362 224.56140350877192 Q 370.7304625199362 211.49601275917067 366.6475279106858 198.4306220095694 L 459.7384370015949 198.4306220095694 L 459.7384370015949 198.4306220095694 Q 481.78628389154704 199.24720893141946 496.4848484848485 213.9457735247209 Q 511.1834130781499 228.64433811802232 512 250.69218500797447 L 512 407.4768740031898 L 512 407.4768740031898 Q 511.1834130781499 429.52472089314193 496.4848484848485 444.2232854864434 Q 481.78628389154704 458.92185007974484 459.7384370015949 459.7384370015949 L 302.9537480063796 459.7384370015949 L 302.9537480063796 459.7384370015949 Q 280.90590111642746 458.92185007974484 266.207336523126 444.2232854864434 Q 251.50877192982455 429.52472089314193 250.69218500797447 407.4768740031898 L 250.69218500797447 407.4768740031898 Z M 381.3460925039872 309.4864433811802 Q 399.311004784689 311.11961722488036 400.9441786283892 329.0845295055821 Q 399.311004784689 347.04944178628386 381.3460925039872 348.68261562998407 Q 363.38118022328547 347.04944178628386 361.7480063795853 329.0845295055821 Q 363.38118022328547 311.11961722488036 381.3460925039872 309.4864433811802 L 381.3460925039872 309.4864433811802 Z M 172.29984051036683 159.23444976076556 Q 154.33492822966508 157.60127591706538 152.7017543859649 139.63636363636363 Q 154.33492822966508 121.67145135566189 172.29984051036683 120.03827751196172 Q 190.2647527910686 121.67145135566189 191.89792663476874 139.63636363636363 Q 190.2647527910686 157.60127591706538 172.29984051036683 159.23444976076556 L 172.29984051036683 159.23444976076556 Z M 87.37480063795853 204.96331738437001 Q 105.33971291866028 206.59649122807016 106.97288676236045 224.56140350877192 Q 105.33971291866028 242.52631578947367 87.37480063795853 244.15948963317385 Q 69.40988835725678 242.52631578947367 67.77671451355661 224.56140350877192 Q 69.40988835725678 206.59649122807016 87.37480063795853 204.96331738437001 L 87.37480063795853 204.96331738437001 Z M 172.29984051036683 204.96331738437001 Q 190.2647527910686 206.59649122807016 191.89792663476874 224.56140350877192 Q 190.2647527910686 242.52631578947367 172.29984051036683 244.15948963317385 Q 154.33492822966508 242.52631578947367 152.7017543859649 224.56140350877192 Q 154.33492822966508 206.59649122807016 172.29984051036683 204.96331738437001 L 172.29984051036683 204.96331738437001 Z M 172.29984051036683 329.0845295055821 Q 154.33492822966508 327.45135566188196 152.7017543859649 309.4864433811802 Q 154.33492822966508 291.52153110047846 172.29984051036683 289.8883572567783 Q 190.2647527910686 291.52153110047846 191.89792663476874 309.4864433811802 Q 190.2647527910686 327.45135566188196 172.29984051036683 329.0845295055821 L 172.29984051036683 329.0845295055821 Z M 257.2248803827751 204.96331738437001 Q 275.18979266347685 206.59649122807016 276.82296650717706 224.56140350877192 Q 275.18979266347685 242.52631578947367 257.2248803827751 244.15948963317385 Q 239.25996810207337 242.52631578947367 237.6267942583732 224.56140350877192 Q 239.25996810207337 206.59649122807016 257.2248803827751 204.96331738437001 L 257.2248803827751 204.96331738437001 Z" />
</svg>