<svg xmlns="http://www.w3.org/2000/svg" viewBox="0 0 640 512">
    <path d="M 0 186 Q 0 176 5 168 L 82 25 Q 97 1 125 0 L 516 0 Q 543 1 558 25 L 635 167 Q 640 176 640 186 Q 639 205 625 216 Q 617 202 605 191 Q 608 189 608 186 Q 608 184 607 183 L 530 40 Q 525 32 516 32 L 125 32 Q 115 32 111 40 L 33 183 Q 32 184 32 186 Q 33 191 38 192 L 80 192 L 450 192 Q 435 206 427 224 L 96 224 L 96 352 L 352 352 L 352 272 Q 353 257 368 256 Q 383 257 384 272 L 384 352 L 384 352 L 384 464 Q 383 485 370 498 Q 356 511 336 512 L 112 512 Q 92 511 78 498 Q 65 484 64 464 L 64 224 L 38 224 Q 22 224 11 213 Q 0 202 0 186 L 0 186 Z M 96 464 Q 97 479 112 480 L 336 480 Q 351 479 352 464 L 352 384 L 96 384 L 96 464 L 96 464 Z M 528 224 Q 508 225 494 238 L 494 238 Q 481 252 480 272 L 480 320 L 576 320 L 576 272 Q 575 252 562 238 Q 548 225 528 224 L 528 224 Z M 448 272 Q 449 238 471 215 L 471 215 Q 494 193 528 192 Q 562 193 585 215 Q 607 238 608 272 L 608 320 Q 622 320 631 329 Q 640 338 640 352 L 640 480 Q 640 494 631 503 Q 622 512 608 512 L 448 512 Q 434 512 425 503 Q 416 494 416 480 L 416 352 Q 416 338 425 329 Q 434 320 448 320 L 448 272 L 448 272 Z M 448 352 L 448 480 L 608 480 L 608 352 L 448 352 L 448 352 Z"/>
</svg>
