<svg xmlns="http://www.w3.org/2000/svg" viewBox="0 0 512 512">
  <path d="M 438.85714285714283 475.42857142857144 Q 454.85714285714283 475.42857142857144 465.14285714285717 465.14285714285717 L 465.14285714285717 465.14285714285717 L 465.14285714285717 465.14285714285717 Q 475.42857142857144 454.85714285714283 475.42857142857144 438.85714285714283 L 475.42857142857144 73.14285714285714 L 475.42857142857144 73.14285714285714 Q 475.42857142857144 57.142857142857146 465.14285714285717 46.857142857142854 Q 454.85714285714283 36.57142857142857 438.85714285714283 36.57142857142857 L 73.14285714285714 36.57142857142857 L 73.14285714285714 36.57142857142857 Q 57.142857142857146 36.57142857142857 46.857142857142854 46.857142857142854 Q 36.57142857142857 57.142857142857146 36.57142857142857 73.14285714285714 L 36.57142857142857 438.85714285714283 L 36.57142857142857 438.85714285714283 Q 36.57142857142857 454.85714285714283 46.857142857142854 465.14285714285717 Q 57.142857142857146 475.42857142857144 73.14285714285714 475.42857142857144 L 438.85714285714283 475.42857142857144 L 438.85714285714283 475.42857142857144 Z M 512 438.85714285714283 Q 510.85714285714283 469.7142857142857 490.2857142857143 490.2857142857143 L 490.2857142857143 490.2857142857143 L 490.2857142857143 490.2857142857143 Q 469.7142857142857 510.85714285714283 438.85714285714283 512 L 73.14285714285714 512 L 73.14285714285714 512 Q 42.285714285714285 510.85714285714283 21.714285714285715 490.2857142857143 Q 1.1428571428571428 469.7142857142857 0 438.85714285714283 L 0 73.14285714285714 L 0 73.14285714285714 Q 1.1428571428571428 42.285714285714285 21.714285714285715 21.714285714285715 Q 42.285714285714285 1.1428571428571428 73.14285714285714 0 L 438.85714285714283 0 L 438.85714285714283 0 Q 469.7142857142857 1.1428571428571428 490.2857142857143 21.714285714285715 Q 510.85714285714283 42.285714285714285 512 73.14285714285714 L 512 438.85714285714283 L 512 438.85714285714283 Z M 347.42857142857144 338.2857142857143 L 347.42857142857144 209.14285714285714 L 347.42857142857144 338.2857142857143 L 347.42857142857144 209.14285714285714 Q 346.2857142857143 202.28571428571428 339.42857142857144 201.14285714285714 Q 337.14285714285717 201.14285714285714 334.85714285714283 203.42857142857142 L 305.14285714285717 232 L 305.14285714285717 232 Q 292.57142857142856 243.42857142857142 280 232 L 212.57142857142858 164.57142857142858 L 212.57142857142858 164.57142857142858 Q 205.71428571428572 158.85714285714286 196.57142857142858 161.14285714285714 Q 193.14285714285714 162.28571428571428 189.71428571428572 164.57142857142858 L 164.57142857142858 189.71428571428572 L 164.57142857142858 189.71428571428572 Q 162.28571428571428 193.14285714285714 161.14285714285714 196.57142857142858 Q 158.85714285714286 205.71428571428572 164.57142857142858 211.42857142857142 L 232 280 L 232 280 Q 243.42857142857142 292.57142857142856 232 305.14285714285717 L 203.42857142857142 334.85714285714283 L 203.42857142857142 334.85714285714283 Q 201.14285714285714 337.14285714285717 201.14285714285714 339.42857142857144 Q 202.28571428571428 346.2857142857143 209.14285714285714 347.42857142857144 L 338.2857142857143 347.42857142857144 L 338.2857142857143 347.42857142857144 Q 346.2857142857143 346.2857142857143 347.42857142857144 338.2857142857143 L 347.42857142857144 338.2857142857143 Z M 338.2857142857143 384 L 209.14285714285714 384 L 338.2857142857143 384 L 209.14285714285714 384 Q 189.71428571428572 384 177.14285714285714 371.42857142857144 Q 164.57142857142858 358.85714285714283 164.57142857142858 339.42857142857144 Q 164.57142857142858 322.2857142857143 177.14285714285714 308.57142857142856 L 193.14285714285714 292.57142857142856 L 193.14285714285714 292.57142857142856 L 139.42857142857142 237.71428571428572 L 139.42857142857142 237.71428571428572 Q 117.71428571428571 214.85714285714286 126.85714285714286 185.14285714285714 Q 130.28571428571428 172.57142857142858 139.42857142857142 164.57142857142858 L 164.57142857142858 139.42857142857142 L 164.57142857142858 139.42857142857142 Q 172.57142857142858 130.28571428571428 185.14285714285714 126.85714285714286 Q 214.85714285714286 117.71428571428571 237.71428571428572 139.42857142857142 L 292.57142857142856 193.14285714285714 L 292.57142857142856 193.14285714285714 L 308.57142857142856 177.14285714285714 L 308.57142857142856 177.14285714285714 Q 322.2857142857143 164.57142857142858 339.42857142857144 164.57142857142858 Q 358.85714285714283 164.57142857142858 371.42857142857144 177.14285714285714 Q 384 189.71428571428572 384 209.14285714285714 L 384 338.2857142857143 L 384 338.2857142857143 Q 384 357.7142857142857 370.2857142857143 370.2857142857143 Q 357.7142857142857 384 338.2857142857143 384 L 338.2857142857143 384 Z" />
</svg>