<svg xmlns="http://www.w3.org/2000/svg" viewBox="0 0 640 512">
    <path d="M 256 0 Q 236 1 221 13 Q 207 25 197 42 Q 177 76 176 110 L 176 162 L 24 249 Q 1 263 0 291 L 0 347 Q 1 363 13 372 Q 25 381 41 378 L 176 339 L 176 376 L 125 414 Q 112 424 112 440 L 112 482 Q 112 495 121 503 Q 129 512 142 512 Q 146 512 150 511 L 150 511 L 256 481 L 362 511 L 362 511 Q 366 512 370 512 Q 380 512 387 507 Q 370 493 357 476 L 260 449 Q 256 447 252 449 L 144 479 L 144 440 L 202 397 Q 208 392 208 384 L 208 318 Q 208 310 202 305 Q 195 300 188 302 L 32 347 L 32 291 Q 32 282 40 277 L 200 185 Q 208 181 208 171 L 208 110 Q 209 87 225 58 Q 233 45 241 38 Q 250 32 256 32 Q 271 32 288 58 Q 304 87 304 110 L 304 171 Q 304 180 312 185 L 388 229 Q 403 218 419 210 L 336 162 L 336 110 Q 335 76 315 42 Q 306 26 291 13 Q 276 1 256 0 L 256 0 Z M 384 368 Q 384 338 399 312 L 399 312 Q 414 286 440 271 Q 466 256 496 256 Q 526 256 552 271 Q 578 286 593 312 Q 608 338 608 368 Q 608 398 593 424 Q 578 450 552 465 Q 526 480 496 480 Q 466 480 440 465 Q 414 450 399 424 Q 384 398 384 368 L 384 368 Z M 640 368 Q 640 329 621 296 L 621 296 Q 602 263 568 243 Q 534 224 496 224 Q 458 224 424 243 Q 390 263 371 296 Q 352 329 352 368 Q 352 407 371 440 Q 390 473 424 493 Q 458 512 496 512 Q 534 512 568 493 Q 602 473 621 440 Q 640 407 640 368 L 640 368 Z M 555 331 Q 565 320 555 309 Q 544 299 533 309 L 496 345 L 459 309 Q 448 299 437 309 Q 427 320 437 331 L 473 368 L 437 405 Q 427 416 437 427 Q 448 437 459 427 L 496 391 L 533 427 Q 544 437 555 427 Q 565 416 555 405 L 519 368 L 555 331 L 555 331 Z"/>
</svg>
