<svg xmlns="http://www.w3.org/2000/svg" viewBox="0 0 512 512">
  <path d="M 130.81038 477.25348 L 228.91817 379.14572 L 130.81038 477.25348 L 228.91817 379.14572 Q 239.13773 367.9042 228.91817 356.6627 Q 217.67665 346.4431 206.43513 356.6627 L 135.92017 426.1557 L 135.92017 426.1557 L 135.92017 40.878242 L 135.92017 40.878242 Q 134.89821 25.548903 119.56886 24.526947 Q 104.23952 25.548903 103.21757 40.878242 L 103.21757 426.1557 L 103.21757 426.1557 L 32.702595 356.6627 L 32.702595 356.6627 Q 21.461079 346.4431 10.219561 356.6627 Q 0 367.9042 10.219561 379.14572 L 108.32735 477.25348 L 108.32735 477.25348 Q 119.56886 487.47305 130.81038 477.25348 L 130.81038 477.25348 Z M 315.78442 433.3094 L 315.78442 367.9042 L 315.78442 433.3094 L 315.78442 367.9042 Q 316.8064 352.57486 332.13574 351.5529 L 397.54092 351.5529 L 397.54092 351.5529 Q 412.87027 352.57486 413.8922 367.9042 L 413.8922 433.3094 L 413.8922 433.3094 Q 412.87027 448.63873 397.54092 449.66068 L 332.13574 449.66068 L 332.13574 449.66068 Q 316.8064 448.63873 315.78442 433.3094 L 315.78442 433.3094 Z M 283.08185 433.3094 Q 284.1038 453.7485 297.38922 468.05588 L 297.38922 468.05588 L 297.38922 468.05588 Q 311.6966 481.3413 332.13574 482.36328 L 397.54092 482.36328 L 397.54092 482.36328 Q 417.98004 481.3413 432.2874 468.05588 Q 445.57285 453.7485 446.59482 433.3094 L 446.59482 367.9042 L 446.59482 367.9042 Q 445.57285 347.46506 432.2874 333.15768 Q 417.98004 319.87225 397.54092 318.8503 L 332.13574 318.8503 L 332.13574 318.8503 Q 311.6966 319.87225 297.38922 333.15768 Q 284.1038 347.46506 283.08185 367.9042 L 283.08185 433.3094 L 283.08185 433.3094 Z M 315.78442 73.58084 Q 316.8064 58.251495 332.13574 57.22954 L 462.9461 57.22954 L 462.9461 57.22954 Q 478.27545 58.251495 479.2974 73.58084 L 479.2974 204.39122 L 479.2974 204.39122 Q 478.27545 219.72057 462.9461 220.74251 L 332.13574 220.74251 L 332.13574 220.74251 Q 316.8064 219.72057 315.78442 204.39122 L 315.78442 73.58084 L 315.78442 73.58084 Z M 283.08185 73.58084 L 283.08185 204.39122 L 283.08185 73.58084 L 283.08185 204.39122 Q 284.1038 224.83034 297.38922 239.13773 Q 311.6966 252.42316 332.13574 253.44511 L 462.9461 253.44511 L 462.9461 253.44511 Q 483.38522 252.42316 497.69263 239.13773 Q 510.97806 224.83034 512 204.39122 L 512 73.58084 L 512 73.58084 Q 510.97806 53.141716 497.69263 38.83433 Q 483.38522 25.548903 462.9461 24.526947 L 332.13574 24.526947 L 332.13574 24.526947 Q 311.6966 25.548903 297.38922 38.83433 Q 284.1038 53.141716 283.08185 73.58084 L 283.08185 73.58084 Z" />
</svg>