<svg xmlns="http://www.w3.org/2000/svg" viewBox="0 0 576 373">
    <path d="M 134 32 Q 160 51 192 53 Q 224 51 250 32 Q 265 22 276 10 Q 288 0 300 10 Q 311 22 326 32 Q 352 51 384 53 Q 416 51 442 32 Q 457 22 468 10 Q 480 0 492 10 Q 503 22 518 32 Q 537 46 562 52 Q 575 55 576 67 Q 574 84 558 84 Q 523 76 500 58 Q 488 50 480 43 Q 472 50 460 58 Q 446 68 426 76 Q 407 85 384 85 Q 361 85 342 76 Q 322 68 308 58 Q 296 50 288 43 Q 280 50 268 58 Q 254 68 234 76 Q 215 85 192 85 Q 169 85 150 76 Q 130 68 116 58 Q 104 50 96 43 Q 88 50 76 58 Q 53 75 18 83 Q 2 84 0 67 Q 1 55 14 52 Q 39 46 58 32 Q 72 22 84 10 Q 96 0 108 10 Q 119 22 134 32 L 134 32 Z M 134 320 Q 160 339 192 341 Q 224 339 250 320 Q 265 310 276 298 Q 288 288 300 298 Q 311 310 326 320 Q 352 339 384 341 Q 416 339 442 320 Q 457 310 468 298 Q 480 288 492 298 Q 503 310 518 320 Q 537 334 562 340 Q 575 343 576 355 Q 574 372 558 372 Q 523 364 500 346 Q 488 338 480 331 Q 472 338 460 346 Q 446 356 426 364 Q 407 373 384 373 Q 361 373 342 364 Q 322 356 308 346 Q 296 338 288 331 Q 280 338 268 346 Q 254 356 234 364 Q 215 373 192 373 Q 169 373 150 364 Q 130 356 116 346 Q 104 338 96 331 Q 88 338 76 346 Q 53 363 18 371 Q 2 372 0 355 Q 1 343 14 340 Q 39 334 58 320 Q 72 310 84 298 Q 96 288 108 298 Q 119 310 134 320 L 134 320 Z M 192 197 Q 224 195 250 176 Q 265 166 276 154 Q 288 144 300 154 Q 311 166 326 176 Q 352 195 384 197 Q 416 195 442 176 Q 457 166 468 154 Q 480 144 492 154 Q 503 166 518 176 Q 537 190 562 196 Q 575 199 576 211 Q 574 228 558 228 Q 523 220 500 202 Q 488 194 480 187 Q 472 194 460 202 Q 446 212 426 220 Q 407 229 384 229 Q 361 229 342 220 Q 322 212 308 202 Q 296 194 288 187 Q 280 194 268 202 Q 254 212 234 220 Q 215 229 192 229 Q 169 229 150 220 Q 130 212 116 202 Q 104 194 96 187 Q 88 194 76 202 Q 53 219 18 227 Q 2 228 0 211 Q 1 199 14 196 Q 39 190 58 176 Q 72 166 84 154 Q 96 144 108 154 Q 119 166 134 176 Q 160 195 192 197 L 192 197 Z"/>
</svg>
