<svg xmlns="http://www.w3.org/2000/svg" viewBox="0 0 512 512">
  <path d="M 422.22736 79.41426 Q 443.93063 77.44123 445.90366 55.737957 Q 443.93063 34.034683 422.22736 32.061657 Q 400.52408 34.034683 398.55106 55.737957 Q 400.52408 77.44123 422.22736 79.41426 L 422.22736 79.41426 Z M 422.22736 0.49325627 Q 453.79575 1.4797688 469.57996 28.115606 Q 485.36417 55.737957 469.57996 83.360306 Q 453.79575 109.99615 422.22736 110.98266 Q 390.65897 109.99615 374.87476 83.360306 Q 359.09055 55.737957 374.87476 28.115606 Q 390.65897 1.4797688 422.22736 0.49325627 L 422.22736 0.49325627 Z M 5.919075 277.70328 Q 13.811175 264.8786 26.635838 270.7977 L 236.763 376.35452 L 236.763 376.35452 L 305.81888 293.4875 L 305.81888 293.4875 L 212.10019 199.76878 L 212.10019 199.76878 Q 200.26204 187.93063 199.27553 172.14644 L 257.47977 199.76878 L 257.47977 199.76878 L 328.50867 270.7977 L 328.50867 270.7977 Q 337.38727 280.6628 337.38727 292.50098 Q 338.3738 304.3391 330.4817 314.20425 L 266.35837 391.15222 L 266.35837 391.15222 L 417.2948 467.11368 L 417.2948 467.11368 Q 438.99808 476.9788 461.68787 469.0867 L 487.3372 459.2216 L 487.3372 459.2216 Q 502.1349 455.27554 508.05396 468.1002 Q 512 482.8979 499.17532 488.81696 L 472.5395 498.68207 L 472.5395 498.68207 Q 437.02505 511.50674 403.4836 494.73602 L 12.824663 298.42004 L 12.824663 298.42004 Q 0 290.52792 5.919075 277.70328 L 5.919075 277.70328 Z M 121.34104 65.60308 L 139.09827 73.495186 L 121.34104 65.60308 L 139.09827 73.495186 L 147.97688 56.72447 L 147.97688 56.72447 Q 155.86897 43.899807 168.69363 49.818882 Q 181.51831 56.72447 175.59923 70.535645 L 167.70712 87.30636 L 167.70712 87.30636 L 233.80347 118.874756 L 233.80347 118.874756 L 299.8998 84.34682 L 299.8998 84.34682 Q 321.6031 74.4817 341.33334 83.360306 Q 362.0501 92.23892 367.96918 114.92871 L 386.71292 191.87668 L 386.71292 191.87668 L 452.80923 223.44508 L 452.80923 223.44508 L 452.80923 223.44508 L 452.80923 223.44508 Q 459.71484 226.40462 461.68787 234.29672 Q 461.68787 239.2293 459.71484 244.16185 Q 459.71484 244.16185 459.71484 244.16185 Q 459.71484 244.16185 459.71484 244.16185 Q 452.80923 256.9865 438.99808 252.05396 L 438.99808 251.06744 L 438.99808 251.06744 L 153.89595 115.91522 L 153.89595 115.91522 L 144.03082 133.67244 L 144.03082 133.67244 Q 136.13873 146.49712 123.314064 140.57803 Q 110.4894 133.67244 116.40848 119.861275 L 125.287094 102.10405 L 125.287094 102.10405 L 107.52986 93.22543 L 107.52986 93.22543 Q 94.7052 86.31985 99.637764 72.50867 Q 107.52986 60.67052 121.34104 65.60308 L 121.34104 65.60308 Z M 270.30444 135.64548 L 350.21194 174.11946 L 270.30444 135.64548 L 350.21194 174.11946 L 337.38727 122.82081 L 337.38727 122.82081 Q 331.4682 106.050095 314.6975 111.96917 L 270.30444 135.64548 L 270.30444 135.64548 Z" />
</svg>