<svg xmlns="http://www.w3.org/2000/svg" viewBox="0 0 456 456">
    <path d="M 152 40 Q 174 42 176 64 Q 174 86 152 88 Q 130 86 128 64 Q 130 42 152 40 L 152 40 Z M 152 120 Q 184 119 200 92 Q 216 64 200 36 Q 184 9 152 8 Q 120 9 104 36 Q 88 64 104 92 Q 120 119 152 120 L 152 120 Z M 183 193 Q 196 169 224 168 Q 252 169 265 193 L 299 261 Q 313 285 335 291 Q 357 297 370 315 Q 384 332 384 356 Q 383 385 364 404 Q 345 423 316 424 Q 294 424 277 412 Q 251 396 224 397 Q 197 396 171 412 Q 154 424 132 424 Q 103 423 84 404 Q 65 385 64 356 Q 64 332 78 315 Q 91 297 113 291 Q 135 285 149 261 L 183 193 L 183 193 Z M 121 246 Q 115 257 104 260 Q 72 270 52 296 Q 33 321 32 356 Q 33 398 61 427 Q 90 455 132 456 Q 164 456 189 438 Q 203 429 224 429 Q 245 429 259 438 Q 284 455 316 456 Q 358 455 387 427 Q 415 398 416 356 Q 415 321 396 296 Q 376 270 345 260 Q 333 257 327 246 L 294 179 Q 271 138 224 136 Q 177 138 155 179 L 121 246 L 121 246 Z M 272 64 Q 274 42 296 40 Q 318 42 320 64 Q 318 86 296 88 Q 274 86 272 64 L 272 64 Z M 352 64 Q 351 32 324 16 Q 296 0 268 16 Q 241 32 240 64 Q 241 96 268 112 Q 296 128 324 112 Q 351 96 352 64 L 352 64 Z M 392 152 Q 414 154 416 176 Q 414 198 392 200 Q 370 198 368 176 Q 370 154 392 152 L 392 152 Z M 392 232 Q 424 231 440 204 Q 456 176 440 148 Q 424 121 392 120 Q 360 121 344 148 Q 328 176 344 204 Q 360 231 392 232 L 392 232 Z M 32 176 Q 34 154 56 152 Q 78 154 80 176 Q 78 198 56 200 Q 34 198 32 176 L 32 176 Z M 112 176 Q 111 144 84 128 Q 56 112 28 128 Q 1 144 0 176 Q 1 208 28 224 Q 56 240 84 224 Q 111 208 112 176 L 112 176 Z"/>
</svg>
