<svg xmlns="http://www.w3.org/2000/svg" viewBox="0 0 512 512">
  <path d="M 32 64 Q 33 37 51 19 L 51 19 L 51 19 Q 69 1 96 0 L 208 0 L 432 0 Q 452 1 466 14 Q 479 28 480 48 L 480 368 L 480 368 Q 478 401 448 413 L 448 480 L 448 480 L 464 480 L 464 480 Q 479 481 480 496 Q 479 511 464 512 L 96 512 L 96 512 Q 69 511 51 493 Q 33 475 32 448 L 32 448 L 32 448 L 32 64 L 32 64 Z M 352 32 L 224 32 L 352 32 L 224 32 L 224 207 L 224 207 L 278 164 L 278 164 Q 288 156 298 164 L 352 207 L 352 207 L 352 32 L 352 32 Z M 192 32 L 96 32 L 192 32 L 96 32 Q 82 32 73 41 Q 64 50 64 64 L 64 393 L 64 393 Q 78 384 96 384 L 432 384 L 432 384 Q 447 383 448 368 L 448 48 L 448 48 Q 447 33 432 32 L 384 32 L 384 32 L 384 240 L 384 240 Q 384 250 375 254 Q 366 258 358 253 L 288 197 L 288 197 L 218 253 L 218 253 Q 210 258 201 254 Q 192 250 192 240 L 192 32 L 192 32 Z M 96 416 Q 82 416 73 425 L 73 425 L 73 425 Q 64 434 64 448 Q 64 462 73 471 Q 82 480 96 480 L 416 480 L 416 480 L 416 416 L 416 416 L 96 416 L 96 416 Z" />
</svg>