<svg xmlns="http://www.w3.org/2000/svg" viewBox="0 0 448 448">
    <path d="M 352 288 L 352 160 Q 351 106 315 69 Q 278 33 224 32 Q 170 33 133 69 Q 97 106 96 160 L 96 288 L 64 288 L 64 160 Q 66 92 111 47 Q 156 2 224 0 Q 292 2 337 47 Q 382 92 384 160 L 384 288 L 352 288 L 352 288 Z M 48 352 Q 33 353 32 368 L 32 400 Q 33 415 48 416 L 400 416 Q 415 415 416 400 L 416 368 Q 415 353 400 352 L 48 352 L 48 352 Z M 48 320 L 400 320 Q 420 321 434 334 Q 447 348 448 368 L 448 400 Q 447 420 434 434 Q 420 447 400 448 L 48 448 Q 28 447 14 434 Q 1 420 0 400 L 0 368 Q 1 348 14 334 Q 28 321 48 320 L 48 320 Z M 160 160 Q 159 175 144 176 Q 129 175 128 160 Q 129 119 156 92 Q 183 65 224 64 Q 239 65 240 80 Q 239 95 224 96 Q 197 97 179 115 Q 161 133 160 160 L 160 160 Z"/>
</svg>
