<svg xmlns="http://www.w3.org/2000/svg" viewBox="0 0 564 514">
    <path d="M 78 3 Q 64 0 59 14 L 6 199 Q 0 222 13 240 Q 26 257 50 258 Q 65 257 66 242 Q 65 227 50 226 Q 34 224 36 208 L 89 22 Q 92 8 78 3 L 78 3 Z M 290 4 Q 282 0 274 4 L 282 18 L 290 4 L 290 4 Z M 506 406 L 506 406 L 506 406 L 506 406 L 505 406 L 505 405 Q 505 404 505 403 Q 504 402 504 401 Q 503 396 501 386 Q 496 367 490 337 Q 483 306 479 273 Q 474 239 474 210 Q 472 166 443 130 Q 415 94 380 66 Q 345 38 318 21 Q 305 13 298 8 Q 294 6 292 5 L 290 4 L 290 4 L 290 4 L 290 4 L 290 4 Q 290 3 289 6 Q 288 8 282 18 Q 277 8 275 6 Q 274 3 274 4 L 274 4 L 274 4 L 274 4 L 274 4 L 272 5 Q 270 6 266 8 Q 259 13 246 21 Q 219 38 184 66 Q 149 94 121 130 Q 92 167 90 210 Q 90 239 85 273 Q 81 306 74 337 Q 68 367 63 386 Q 61 396 60 401 Q 59 402 59 403 Q 59 404 59 405 L 59 406 L 58 406 L 58 406 L 58 406 L 58 406 L 58 406 Q 56 418 66 424 L 233 512 Q 237 514 242 514 Q 264 514 266 492 L 266 287 Q 264 262 240 256 L 194 247 Q 186 244 186 236 Q 187 227 196 226 L 368 226 Q 377 227 378 236 Q 377 244 370 247 L 324 256 Q 300 262 298 287 L 298 492 Q 300 514 322 514 Q 327 514 331 512 L 498 424 Q 508 418 506 406 L 506 406 L 506 406 Z M 471 402 L 330 476 L 330 287 L 376 278 Q 391 275 400 263 Q 410 252 410 236 Q 410 218 398 206 Q 386 194 368 194 L 196 194 Q 178 194 166 206 Q 154 218 154 236 Q 154 252 164 263 Q 173 275 188 278 L 234 287 L 234 476 L 93 402 Q 93 399 94 395 Q 94 394 95 394 Q 99 374 106 343 Q 112 312 117 277 Q 122 242 122 210 Q 122 181 146 149 Q 171 117 204 91 Q 237 64 263 48 Q 275 41 282 37 Q 289 41 301 48 Q 326 64 360 91 Q 393 118 418 149 Q 441 181 442 210 Q 442 242 447 277 Q 452 312 458 343 Q 465 374 469 394 Q 470 395 470 396 Q 471 399 471 402 L 471 402 Z M 505 14 Q 500 0 486 3 Q 472 8 475 22 L 528 208 Q 530 224 514 226 Q 499 227 498 242 Q 499 257 514 258 Q 538 257 551 240 Q 564 222 558 199 L 505 14 L 505 14 Z"/>
</svg>
