<svg xmlns="http://www.w3.org/2000/svg" viewBox="0 0 512 512">
  <path d="M 192 48 L 192 128 L 192 48 L 192 128 L 320 128 L 320 128 L 320 48 L 320 48 Q 319 33 304 32 L 208 32 L 208 32 Q 193 33 192 48 L 192 48 Z M 160 128 L 160 48 L 160 128 L 160 48 Q 161 28 174 14 Q 188 1 208 0 L 304 0 L 304 0 Q 324 1 338 14 Q 351 28 352 48 L 352 128 L 352 128 L 384 128 L 384 128 Q 411 129 429 147 Q 447 165 448 192 L 448 416 L 448 416 Q 447 443 429 461 Q 411 479 384 480 L 384 496 L 384 496 Q 383 511 368 512 Q 353 511 352 496 L 352 480 L 352 480 L 160 480 L 160 480 L 160 496 L 160 496 Q 159 511 144 512 Q 129 511 128 496 L 128 480 L 128 480 Q 101 479 83 461 Q 65 443 64 416 L 64 192 L 64 192 Q 65 165 83 147 Q 101 129 128 128 L 160 128 L 160 128 Z M 144 448 L 368 448 L 144 448 L 384 448 Q 398 448 407 439 Q 416 430 416 416 L 416 192 L 416 192 Q 416 178 407 169 Q 398 160 384 160 L 336 160 L 128 160 Q 114 160 105 169 Q 96 178 96 192 L 96 416 L 96 416 Q 96 430 105 439 Q 114 448 128 448 L 144 448 L 144 448 Z M 160 256 Q 161 241 176 240 L 336 240 L 336 240 Q 351 241 352 256 Q 351 271 336 272 L 176 272 L 176 272 Q 161 271 160 256 L 160 256 Z M 160 352 Q 161 337 176 336 L 336 336 L 336 336 Q 351 337 352 352 Q 351 367 336 368 L 176 368 L 176 368 Q 161 367 160 352 L 160 352 Z" />
</svg>