<svg xmlns="http://www.w3.org/2000/svg" viewBox="0 0 512 512">
  <path d="M 320 33 Q 320 19 330 10 L 330 10 L 330 10 Q 339 0 353 0 L 480 0 L 480 0 Q 494 0 503 9 Q 512 18 512 32 L 512 159 L 512 159 Q 512 173 502 182 Q 493 192 479 192 Q 465 192 456 182 L 404 131 L 404 131 L 235 299 L 235 299 Q 224 309 213 299 Q 203 288 213 277 L 381 108 L 381 108 L 330 56 L 330 56 Q 320 47 320 33 L 320 33 Z M 353 32 Q 352 32 352 33 Q 352 33 352 34 L 478 160 L 478 160 Q 479 160 479 160 Q 480 160 480 159 L 480 32 L 480 32 L 353 32 L 353 32 Z M 0 96 Q 1 69 19 51 L 19 51 L 19 51 Q 37 33 64 32 L 208 32 L 208 32 Q 223 33 224 48 Q 223 63 208 64 L 64 64 L 64 64 Q 50 64 41 73 Q 32 82 32 96 L 32 448 L 32 448 Q 32 462 41 471 Q 50 480 64 480 L 416 480 L 416 480 Q 430 480 439 471 Q 448 462 448 448 L 448 304 L 448 304 Q 449 289 464 288 Q 479 289 480 304 L 480 448 L 480 448 Q 479 475 461 493 Q 443 511 416 512 L 64 512 L 64 512 Q 37 511 19 493 Q 1 475 0 448 L 0 96 L 0 96 Z" />
</svg>