<svg xmlns="http://www.w3.org/2000/svg" viewBox="0 0 512 512">
  <path d="M 176 38 L 176 101 L 176 38 L 176 101 Q 191 96 208 96 Q 225 96 240 101 L 240 32 L 240 32 L 224 32 L 224 32 Q 199 32 176 38 L 176 38 Z M 144 49 Q 94 73 63 119 L 63 119 L 63 119 Q 33 165 32 224 Q 33 293 74 344 Q 94 368 96 401 L 96 496 L 96 496 Q 95 511 80 512 Q 65 511 64 496 L 64 401 L 64 401 Q 64 382 49 364 Q 2 305 0 224 Q 1 161 31 111 Q 60 60 111 31 Q 161 1 224 0 L 240 0 L 240 0 Q 300 1 349 32 Q 398 63 423 115 Q 427 125 432 135 Q 433 137 434 139 L 434 139 L 434 139 L 434 139 L 434 139 L 434 139 L 434 139 Q 434 140 434 140 Q 442 159 452 178 Q 466 208 489 228 L 492 231 L 492 231 Q 512 249 512 276 Q 511 301 494 318 Q 477 335 452 336 L 448 336 L 448 336 L 448 384 L 448 384 Q 447 411 429 429 Q 411 447 384 448 L 320 448 L 320 448 L 320 496 L 320 496 Q 319 511 304 512 Q 289 511 288 496 L 288 432 L 288 432 Q 289 417 304 416 L 384 416 L 384 416 Q 398 416 407 407 Q 416 398 416 384 L 416 320 L 416 320 Q 417 305 432 304 L 452 304 L 452 304 Q 464 304 472 296 Q 480 288 480 276 Q 480 263 471 255 L 467 252 L 467 252 Q 439 225 423 192 Q 413 172 404 152 Q 404 151 404 150 L 404 150 L 404 150 L 404 150 L 404 150 L 404 150 L 404 150 Q 402 147 401 144 Q 397 136 394 129 Q 376 93 344 68 Q 312 43 272 35 L 272 116 L 272 116 Q 318 149 320 208 Q 319 256 287 287 Q 256 319 208 320 Q 160 319 129 287 Q 97 256 96 208 Q 98 149 144 116 L 144 49 L 144 49 Z M 288 208 Q 287 163 248 139 Q 208 117 168 139 Q 129 163 128 208 Q 129 253 168 277 Q 208 299 248 277 Q 287 253 288 208 L 288 208 Z M 208 224 Q 223 223 224 208 Q 223 193 208 192 Q 193 193 192 208 Q 193 223 208 224 L 208 224 Z M 208 160 Q 235 161 250 184 Q 262 208 250 232 Q 235 255 208 256 Q 181 255 166 232 Q 154 208 166 184 Q 181 161 208 160 L 208 160 Z" />
</svg>