<svg xmlns="http://www.w3.org/2000/svg" viewBox="0 0 512 512">
  <path d="M 384 480 L 128 480 L 384 480 L 128 480 Q 114 480 105 471 Q 96 462 96 448 L 96 64 L 96 64 Q 96 50 105 41 Q 114 32 128 32 L 256 32 L 256 32 L 256 144 L 256 144 Q 257 164 270 178 Q 284 191 304 192 L 416 192 L 416 192 L 416 448 L 416 448 Q 416 462 407 471 Q 398 480 384 480 L 384 480 Z M 304 160 Q 289 159 288 144 L 288 33 L 288 33 Q 292 34 295 37 L 411 153 L 411 153 Q 414 156 416 160 L 304 160 L 304 160 Z M 128 0 Q 101 1 83 19 L 83 19 L 83 19 Q 65 37 64 64 L 64 448 L 64 448 Q 65 475 83 493 Q 101 511 128 512 L 384 512 L 384 512 Q 411 511 429 493 Q 447 475 448 448 L 448 164 L 448 164 Q 448 144 434 130 L 318 14 L 318 14 Q 304 0 284 0 L 128 0 L 128 0 Z M 128 80 Q 129 95 144 96 L 208 96 L 208 96 Q 223 95 224 80 Q 223 65 208 64 L 144 64 L 144 64 Q 129 65 128 80 L 128 80 Z M 128 144 Q 129 159 144 160 L 208 160 L 208 160 Q 223 159 224 144 Q 223 129 208 128 L 144 128 L 144 128 Q 129 129 128 144 L 128 144 Z M 288 432 Q 289 447 304 448 L 368 448 L 368 448 Q 383 447 384 432 Q 383 417 368 416 L 304 416 L 304 416 Q 289 417 288 432 L 288 432 Z M 352 336 L 160 336 L 352 336 L 160 336 L 160 272 L 160 272 L 352 272 L 352 272 L 352 336 L 352 336 Z M 160 240 Q 146 240 137 249 L 137 249 L 137 249 Q 128 258 128 272 L 128 336 L 128 336 Q 128 350 137 359 Q 146 368 160 368 L 352 368 L 352 368 Q 366 368 375 359 Q 384 350 384 336 L 384 272 L 384 272 Q 384 258 375 249 Q 366 240 352 240 L 160 240 L 160 240 Z" />
</svg>