<svg xmlns="http://www.w3.org/2000/svg" viewBox="0 0 512 512">
  <path d="M 159.44294003868472 78.23597678916828 Q 168.3558994197292 66.35203094777563 157.4622823984526 56.44874274661509 Q 145.57833655705997 47.5357833655706 135.6750483558994 58.42940038684719 L 67.34235976789168 139.63636363636363 L 67.34235976789168 139.63636363636363 L 31.690522243713733 104.97485493230174 L 31.690522243713733 104.97485493230174 Q 20.796905222437136 95.0715667311412 9.903288201160542 104.97485493230174 Q 0 115.86847195357834 9.903288201160542 126.76208897485493 L 57.439071566731144 174.29787234042553 L 57.439071566731144 174.29787234042553 Q 62.39071566731141 179.2495164410058 69.32301740812379 179.2495164410058 Q 76.25531914893617 179.2495164410058 80.21663442940039 173.30754352030948 L 159.44294003868472 78.23597678916828 L 159.44294003868472 78.23597678916828 Z M 159.44294003868472 236.68858800773694 Q 168.3558994197292 224.80464216634428 157.4622823984526 214.90135396518374 Q 145.57833655705997 205.98839458413926 135.6750483558994 216.88201160541587 L 67.34235976789168 298.0889748549323 L 67.34235976789168 298.0889748549323 L 31.690522243713733 263.42746615087043 L 31.690522243713733 263.42746615087043 Q 20.796905222437136 253.52417794970987 9.903288201160542 263.42746615087043 Q 0 274.321083172147 9.903288201160542 285.2147001934236 L 57.439071566731144 332.7504835589942 L 57.439071566731144 332.7504835589942 Q 62.39071566731141 337.70212765957444 69.32301740812379 337.70212765957444 Q 76.25531914893617 337.70212765957444 80.21663442940039 331.76015473887816 L 159.44294003868472 236.68858800773694 L 159.44294003868472 236.68858800773694 Z M 195.09477756286267 115.86847195357834 Q 196.08510638297872 130.72340425531914 210.94003868471953 131.71373307543521 L 496.1547388781431 131.71373307543521 L 496.1547388781431 131.71373307543521 Q 511.0096711798839 130.72340425531914 512 115.86847195357834 Q 511.0096711798839 101.01353965183752 496.1547388781431 100.02321083172147 L 210.94003868471953 100.02321083172147 L 210.94003868471953 100.02321083172147 Q 196.08510638297872 101.01353965183752 195.09477756286267 115.86847195357834 L 195.09477756286267 115.86847195357834 Z M 195.09477756286267 274.321083172147 Q 196.08510638297872 289.1760154738878 210.94003868471953 290.16634429400386 L 496.1547388781431 290.16634429400386 L 496.1547388781431 290.16634429400386 Q 511.0096711798839 289.1760154738878 512 274.321083172147 Q 511.0096711798839 259.4661508704062 496.1547388781431 258.47582205029016 L 210.94003868471953 258.47582205029016 L 210.94003868471953 258.47582205029016 Q 196.08510638297872 259.4661508704062 195.09477756286267 274.321083172147 L 195.09477756286267 274.321083172147 Z M 163.40425531914894 432.77369439071566 Q 164.394584139265 447.62862669245646 179.2495164410058 448.61895551257254 L 496.1547388781431 448.61895551257254 L 496.1547388781431 448.61895551257254 Q 511.0096711798839 447.62862669245646 512 432.77369439071566 Q 511.0096711798839 417.91876208897486 496.1547388781431 416.9284332688588 L 179.2495164410058 416.9284332688588 L 179.2495164410058 416.9284332688588 Q 164.394584139265 417.91876208897486 163.40425531914894 432.77369439071566 L 163.40425531914894 432.77369439071566 Z M 100.02321083172147 432.77369439071566 Q 100.02321083172147 418.90909090909093 91.11025145067698 409.9961315280464 L 91.11025145067698 409.9961315280464 L 91.11025145067698 409.9961315280464 Q 82.1972920696325 401.08317214700196 68.33268858800774 401.08317214700196 Q 54.46808510638298 401.08317214700196 45.55512572533849 409.9961315280464 Q 36.642166344294004 418.90909090909093 36.642166344294004 432.77369439071566 Q 36.642166344294004 446.63829787234044 45.55512572533849 455.5512572533849 Q 54.46808510638298 464.4642166344294 68.33268858800774 464.4642166344294 Q 82.1972920696325 464.4642166344294 91.11025145067698 455.5512572533849 Q 100.02321083172147 446.63829787234044 100.02321083172147 432.77369439071566 L 100.02321083172147 432.77369439071566 Z" />
</svg>