<svg xmlns="http://www.w3.org/2000/svg" viewBox="0 0 640 512">
    <path d="M 16 0 Q 31 1 32 16 L 32 160 L 608 160 L 608 16 Q 609 1 624 0 Q 639 1 640 16 L 640 176 L 640 432 L 640 496 Q 639 511 624 512 Q 609 511 608 496 L 608 448 L 32 448 L 32 496 Q 31 511 16 512 Q 1 511 0 496 L 0 432 L 0 176 L 0 16 Q 1 1 16 0 L 16 0 Z M 32 416 L 608 416 L 608 192 L 32 192 L 32 416 L 32 416 Z M 448 32 L 384 32 L 384 96 L 448 96 L 448 32 L 448 32 Z M 384 0 L 448 0 Q 462 0 471 9 Q 480 18 480 32 L 480 96 Q 480 110 471 119 Q 462 128 448 128 L 384 128 Q 370 128 361 119 Q 352 110 352 96 L 352 32 Q 352 18 361 9 Q 370 0 384 0 L 384 0 Z M 128 288 L 128 352 L 192 352 L 192 288 L 128 288 L 128 288 Z M 96 288 Q 96 274 105 265 L 105 265 Q 114 256 128 256 L 192 256 Q 206 256 215 265 Q 224 274 224 288 L 224 352 Q 224 366 215 375 Q 206 384 192 384 L 128 384 Q 114 384 105 375 Q 96 366 96 352 L 96 288 L 96 288 Z M 288 288 L 288 352 L 352 352 L 352 288 L 288 288 L 288 288 Z M 256 288 Q 256 274 265 265 L 265 265 Q 274 256 288 256 L 352 256 Q 366 256 375 265 Q 384 274 384 288 L 384 352 Q 384 366 375 375 Q 366 384 352 384 L 288 384 Q 274 384 265 375 Q 256 366 256 352 L 256 288 L 256 288 Z"/>
</svg>
