<svg xmlns="http://www.w3.org/2000/svg" viewBox="0 0 288 512">
    <path d="M 144 32 Q 117 33 99 51 L 99 51 Q 81 69 80 96 L 80 253 Q 79 275 64 290 Q 33 321 32 368 Q 33 416 65 447 Q 96 479 144 480 Q 192 479 223 447 Q 255 416 256 368 Q 255 321 224 290 Q 209 275 208 253 L 208 96 Q 207 69 189 51 Q 171 33 144 32 L 144 32 Z M 48 96 Q 49 55 76 28 L 76 28 Q 103 1 144 0 Q 185 1 212 28 Q 239 55 240 96 L 240 253 Q 240 260 247 267 Q 287 308 288 368 Q 286 429 246 470 Q 205 510 144 512 Q 83 510 42 470 Q 2 429 0 368 Q 1 308 41 267 Q 48 260 48 253 L 48 96 L 48 96 Z M 144 400 Q 158 400 167 391 L 167 391 Q 176 382 176 368 Q 176 354 167 345 Q 158 336 144 336 Q 130 336 121 345 Q 112 354 112 368 Q 112 382 121 391 Q 130 400 144 400 L 144 400 Z M 144 432 Q 117 431 99 413 L 99 413 Q 81 395 80 368 Q 80 345 94 328 Q 107 312 128 306 L 128 272 Q 129 257 144 256 Q 159 257 160 272 L 160 306 Q 181 312 194 328 Q 208 345 208 368 Q 207 395 189 413 Q 171 431 144 432 L 144 432 Z"/>
</svg>
