<svg xmlns="http://www.w3.org/2000/svg" viewBox="0 0 650 521">
    <path d="M 549 228 Q 548 165 518 115 L 518 115 Q 489 64 438 35 L 438 35 Q 388 5 325 4 Q 237 6 176 61 L 202 81 Q 253 37 325 36 Q 407 38 461 92 Q 515 146 517 228 Q 517 275 497 314 L 522 334 Q 548 286 549 228 L 549 228 Z M 432 426 L 440 436 L 445 436 L 432 426 L 432 426 Z M 403 403 Q 367 420 325 420 Q 243 418 189 364 Q 135 310 133 228 Q 133 210 136 193 L 109 171 Q 101 198 101 228 Q 102 284 126 330 Q 150 377 192 408 L 138 477 Q 130 489 136 503 Q 142 515 157 516 L 493 516 Q 508 515 515 503 Q 517 498 517 493 L 505 484 L 421 484 L 173 484 L 219 425 Q 267 451 325 452 Q 383 451 431 425 L 403 403 L 403 403 Z M 181 228 Q 183 289 223 330 L 223 330 Q 264 370 325 372 Q 342 372 359 368 L 323 340 Q 284 339 255 316 Q 226 292 217 256 L 181 228 L 181 228 L 181 228 Z M 437 228 Q 437 246 432 263 L 458 283 Q 469 258 469 228 Q 467 167 427 126 Q 386 86 325 84 Q 277 85 240 112 L 267 132 Q 293 116 325 116 Q 373 117 404 149 Q 436 180 437 228 L 437 228 Z M 31 7 Q 19 0 8 10 Q 0 22 11 33 L 619 513 Q 631 521 642 510 Q 650 498 639 488 L 31 7 L 31 7 Z"/>
</svg>
