<svg xmlns="http://www.w3.org/2000/svg" viewBox="0 0 512 480">
    <path d="M 384 32 L 64 32 Q 50 32 41 41 Q 32 50 32 64 L 32 384 Q 32 398 41 407 Q 50 416 64 416 L 227 416 Q 225 432 224 448 L 64 448 Q 37 447 19 429 Q 1 411 0 384 L 0 64 Q 1 37 19 19 Q 37 1 64 0 L 384 0 Q 411 1 429 19 Q 447 37 448 64 L 448 195 Q 432 198 416 202 L 416 64 Q 416 50 407 41 Q 398 32 384 32 L 384 32 Z M 384 96 L 384 213 Q 367 220 352 230 L 352 96 L 240 96 L 240 179 Q 270 191 272 224 Q 271 244 258 258 Q 244 271 224 272 Q 204 271 190 258 Q 177 244 176 224 Q 178 191 208 179 L 208 96 Q 208 82 217 73 Q 226 64 240 64 L 352 64 Q 366 64 375 73 Q 384 82 384 96 L 384 96 Z M 234 384 L 96 384 Q 82 384 73 375 Q 64 366 64 352 L 64 96 Q 64 82 73 73 Q 82 64 96 64 L 144 64 Q 159 65 160 80 Q 159 95 144 96 L 96 96 L 96 352 L 245 352 Q 239 367 234 384 L 234 384 Z M 224 208 Q 209 209 208 224 Q 209 239 224 240 Q 239 239 240 224 Q 239 209 224 208 L 224 208 Z M 496 224 Q 511 225 512 240 Q 511 255 496 256 Q 408 258 349 317 Q 290 376 288 464 Q 287 479 272 480 Q 257 479 256 464 Q 257 397 289 343 Q 321 289 375 257 Q 429 225 496 224 L 496 224 Z M 480 416 Q 494 416 503 425 L 503 425 Q 512 434 512 448 Q 512 462 503 471 Q 494 480 480 480 Q 466 480 457 471 Q 448 462 448 448 Q 448 434 457 425 Q 466 416 480 416 L 480 416 Z M 512 336 Q 511 351 496 352 Q 448 353 417 385 Q 385 416 384 464 Q 383 479 368 480 Q 353 479 352 464 Q 354 403 394 362 Q 435 322 496 320 Q 511 321 512 336 L 512 336 Z"/>
</svg>
