<svg xmlns="http://www.w3.org/2000/svg" viewBox="0 0 512 512">
  <path d="M 254 193 Q 255 192 256 192 Q 257 192 258 193 L 382 325 L 382 325 Q 384 327 384 329 Q 383 335 377 336 L 320 336 L 320 336 Q 305 337 304 352 L 304 472 L 304 472 Q 303 479 296 480 L 216 480 L 216 480 Q 209 479 208 472 L 208 352 L 208 352 Q 207 337 192 336 L 135 336 L 135 336 Q 129 335 128 329 Q 128 327 130 325 L 254 193 L 254 193 Z M 256 160 Q 241 160 231 171 L 107 303 L 107 303 Q 96 314 96 329 Q 96 346 107 357 Q 118 368 135 368 L 176 368 L 176 368 L 176 472 L 176 472 Q 176 489 188 500 Q 199 512 216 512 L 296 512 L 296 512 Q 313 512 324 500 Q 336 489 336 472 L 336 368 L 336 368 L 377 368 L 377 368 Q 394 368 405 357 Q 416 346 416 329 Q 416 314 406 303 L 281 171 L 281 171 Q 271 160 256 160 L 256 160 Z M 64 176 L 64 80 L 64 176 L 64 80 Q 65 60 78 46 Q 92 33 112 32 L 400 32 L 400 32 Q 420 33 434 46 Q 447 60 448 80 L 448 176 L 448 176 Q 449 191 464 192 Q 479 191 480 176 L 480 80 L 480 80 Q 479 46 457 23 Q 434 1 400 0 L 112 0 L 112 0 Q 78 1 55 23 Q 33 46 32 80 L 32 176 L 32 176 Q 33 191 48 192 Q 63 191 64 176 L 64 176 Z" />
</svg>