<svg xmlns="http://www.w3.org/2000/svg" viewBox="0 0 512 512">
  <path d="M 186.54263 57.55039 Q 194.48062 51.2 202.41861 57.55039 L 380.22946 209.95969 L 380.22946 209.95969 Q 388.96124 218.69147 381.81705 228.21706 Q 377.84805 232.18605 372.29147 232.18605 L 372.29147 232.18605 L 372.29147 232.18605 Q 367.5287 232.18605 364.3535 229.01085 L 334.18915 203.6093 L 334.18915 203.6093 L 334.18915 232.18605 L 334.18915 232.18605 L 308.7876 232.18605 L 308.7876 232.18605 L 308.7876 182.17674 L 308.7876 182.17674 L 194.48062 83.745735 L 194.48062 83.745735 L 80.173645 182.17674 L 80.173645 182.17674 L 80.173645 333.79224 L 80.173645 333.79224 Q 80.173645 344.90543 87.31783 352.04962 Q 94.46201 359.1938 105.575195 359.1938 L 219.88217 359.1938 L 219.88217 359.1938 L 219.88217 384.59534 L 219.88217 384.59534 L 105.575195 384.59534 L 105.575195 384.59534 Q 84.14264 383.80154 69.85426 369.51318 Q 55.56589 355.2248 54.772095 333.79224 L 54.772095 203.6093 L 54.772095 203.6093 L 24.607752 229.01085 L 24.607752 229.01085 Q 15.0821705 236.15504 7.144186 227.42325 Q 0 217.89767 7.9379845 209.95969 L 186.54263 57.55039 L 186.54263 57.55039 Z M 283.38605 257.5876 L 435.79535 257.5876 L 283.38605 257.5876 L 435.79535 257.5876 Q 451.67133 258.3814 462.7845 268.70078 Q 473.10388 279.81396 473.89767 295.6899 L 473.89767 397.2961 L 473.89767 397.2961 Q 473.10388 409.2031 461.1969 409.9969 Q 449.28992 409.2031 448.49612 397.2961 L 448.49612 295.6899 L 448.49612 295.6899 Q 447.70233 283.78296 435.79535 282.98914 L 283.38605 282.98914 L 283.38605 282.98914 Q 271.47906 283.78296 270.68527 295.6899 L 270.68527 397.2961 L 270.68527 397.2961 Q 269.89148 409.2031 257.9845 409.9969 Q 246.07751 409.2031 245.28372 397.2961 L 245.28372 295.6899 L 245.28372 295.6899 Q 246.07751 279.81396 256.3969 268.70078 Q 267.51007 258.3814 283.38605 257.5876 L 283.38605 257.5876 Z M 219.88217 435.39844 L 499.29922 435.39844 L 219.88217 435.39844 L 499.29922 435.39844 Q 511.2062 436.19226 512 448.0992 Q 511.2062 460.0062 499.29922 460.8 L 219.88217 460.8 L 219.88217 460.8 Q 207.97519 460.0062 207.1814 448.0992 Q 207.97519 436.19226 219.88217 435.39844 L 219.88217 435.39844 Z M 169.07907 194.08372 L 219.88217 194.08372 L 169.07907 194.08372 L 219.88217 194.08372 Q 230.99535 194.08372 238.13954 201.2279 Q 245.28372 208.37209 245.28372 219.48528 L 245.28372 232.18605 L 245.28372 232.18605 Q 244.48993 244.09302 232.58295 244.88683 Q 220.67596 244.09302 219.88217 232.18605 L 219.88217 219.48528 L 219.88217 219.48528 L 169.07907 219.48528 L 169.07907 219.48528 L 169.07907 270.28836 L 169.07907 270.28836 L 207.1814 270.28836 L 207.1814 270.28836 Q 219.08838 271.08218 219.88217 282.98914 Q 219.08838 294.89612 207.1814 295.6899 L 169.07907 295.6899 L 169.07907 295.6899 Q 157.9659 295.6899 150.8217 288.54575 Q 143.67752 281.40155 143.67752 270.28836 L 143.67752 219.48528 L 143.67752 219.48528 Q 143.67752 208.37209 150.8217 201.2279 Q 157.9659 194.08372 169.07907 194.08372 L 169.07907 194.08372 Z" />
</svg>