<svg xmlns="http://www.w3.org/2000/svg" viewBox="0 0 640 448">
    <path d="M 430 104 Q 445 96 464 96 Q 498 97 521 119 Q 543 142 544 176 Q 544 188 541 198 Q 536 222 557 235 Q 580 248 594 270 Q 608 292 608 320 Q 607 361 580 388 Q 553 415 512 416 L 144 416 Q 96 415 65 383 Q 33 352 32 304 Q 33 267 53 239 Q 74 210 107 198 Q 126 191 128 170 Q 132 111 172 72 Q 213 33 272 32 Q 309 32 339 49 Q 370 65 390 93 Q 406 113 430 104 L 430 104 Z M 416 75 Q 392 40 354 20 L 354 20 Q 317 0 272 0 Q 199 2 150 49 Q 101 96 96 168 Q 53 184 27 220 Q 1 256 0 304 Q 2 365 42 406 Q 83 446 144 448 L 512 448 Q 566 447 603 411 Q 639 374 640 320 Q 640 283 621 253 Q 603 223 572 207 Q 576 192 576 176 Q 575 128 543 97 Q 512 65 464 64 Q 438 64 416 75 L 416 75 Z M 512 336 Q 511 321 496 320 L 304 320 Q 289 321 288 336 Q 289 351 304 352 L 496 352 Q 511 351 512 336 L 512 336 Z M 240 320 L 144 320 Q 129 321 128 336 Q 129 351 144 352 L 240 352 Q 255 351 256 336 Q 255 321 240 320 L 240 320 Z M 128 272 Q 129 287 144 288 L 336 288 Q 351 287 352 272 Q 351 257 336 256 L 144 256 Q 129 257 128 272 L 128 272 Z M 400 256 Q 385 257 384 272 Q 385 287 400 288 L 496 288 Q 511 287 512 272 Q 511 257 496 256 L 400 256 L 400 256 Z"/>
</svg>
