<svg xmlns="http://www.w3.org/2000/svg" viewBox="0 0 512 512">
  <path d="M 238.34483 211.86208 L 238.34483 370.7586 L 238.34483 211.86208 L 238.34483 370.7586 Q 239.44827 387.31033 256 388.4138 Q 272.55173 387.31033 273.65518 370.7586 L 273.65518 211.86208 L 273.65518 211.86208 L 432.55173 211.86208 L 432.55173 211.86208 Q 449.10345 210.75862 450.2069 194.2069 Q 449.10345 177.65517 432.55173 176.55173 L 273.65518 176.55173 L 273.65518 176.55173 L 273.65518 17.655172 L 273.65518 17.655172 Q 272.55173 1.1034483 256 0 Q 239.44827 1.1034483 238.34483 17.655172 L 238.34483 176.55173 L 238.34483 176.55173 L 79.44827 176.55173 L 79.44827 176.55173 Q 62.896553 177.65517 61.793102 194.2069 Q 62.896553 210.75862 79.44827 211.86208 L 238.34483 211.86208 L 238.34483 211.86208 Z M 61.793102 494.34482 Q 62.896553 510.89655 79.44827 512 L 432.55173 512 L 432.55173 512 Q 449.10345 510.89655 450.2069 494.34482 Q 449.10345 477.7931 432.55173 476.68967 L 79.44827 476.68967 L 79.44827 476.68967 Q 62.896553 477.7931 61.793102 494.34482 L 61.793102 494.34482 Z" />
</svg>