<svg xmlns="http://www.w3.org/2000/svg" viewBox="0 0 512 512">
  <path d="M 256 244 Q 269.3333333333333 243.11111111111111 270.22222222222223 229.77777777777777 L 270.22222222222223 79.55555555555556 L 270.22222222222223 79.55555555555556 L 317.3333333333333 125.77777777777777 L 317.3333333333333 125.77777777777777 Q 327.1111111111111 134.66666666666666 336.8888888888889 125.77777777777777 Q 345.77777777777777 116 336.8888888888889 106.22222222222223 L 265.77777777777777 35.111111111111114 L 265.77777777777777 35.111111111111114 Q 256 26.22222222222222 246.22222222222223 35.111111111111114 L 175.11111111111111 106.22222222222223 L 175.11111111111111 106.22222222222223 Q 166.22222222222223 116 175.11111111111111 125.77777777777777 Q 184.88888888888889 134.66666666666666 194.66666666666666 125.77777777777777 L 241.77777777777777 79.55555555555556 L 241.77777777777777 79.55555555555556 L 241.77777777777777 229.77777777777777 L 241.77777777777777 229.77777777777777 Q 242.66666666666666 243.11111111111111 256 244 L 256 244 Z M 119.11111111111111 438.6666666666667 Q 106.66666666666667 429.77777777777777 96 419.1111111111111 Q 85.33333333333333 410.22222222222223 74.66666666666667 419.1111111111111 Q 64.88888888888889 429.77777777777777 51.55555555555556 438.6666666666667 Q 34.666666666666664 451.1111111111111 12.444444444444445 456.44444444444446 Q 0.8888888888888888 459.1111111111111 0 469.77777777777777 Q 1.7777777777777777 484.8888888888889 16 484 Q 47.111111111111114 476.8888888888889 67.55555555555556 461.77777777777777 Q 78.22222222222223 454.6666666666667 85.33333333333333 448.44444444444446 Q 92.44444444444444 454.6666666666667 103.11111111111111 461.77777777777777 Q 115.55555555555556 470.6666666666667 133.33333333333334 477.77777777777777 Q 150.22222222222223 485.77777777777777 170.66666666666666 485.77777777777777 Q 191.11111111111111 485.77777777777777 208 477.77777777777777 Q 225.77777777777777 470.6666666666667 238.22222222222223 461.77777777777777 Q 248.88888888888889 454.6666666666667 256 448.44444444444446 Q 263.1111111111111 454.6666666666667 273.77777777777777 461.77777777777777 Q 286.22222222222223 470.6666666666667 304 477.77777777777777 Q 320.8888888888889 485.77777777777777 341.3333333333333 485.77777777777777 Q 361.77777777777777 485.77777777777777 378.6666666666667 477.77777777777777 Q 396.44444444444446 470.6666666666667 408.8888888888889 461.77777777777777 Q 419.55555555555554 454.6666666666667 426.6666666666667 448.44444444444446 Q 433.77777777777777 454.6666666666667 444.44444444444446 461.77777777777777 Q 464.8888888888889 476.8888888888889 496 484 Q 510.22222222222223 484.8888888888889 512 469.77777777777777 Q 511.1111111111111 459.1111111111111 499.55555555555554 456.44444444444446 Q 477.3333333333333 451.1111111111111 460.44444444444446 438.6666666666667 Q 447.1111111111111 429.77777777777777 437.3333333333333 419.1111111111111 Q 426.6666666666667 410.22222222222223 416 419.1111111111111 Q 406.22222222222223 429.77777777777777 392.8888888888889 438.6666666666667 Q 369.77777777777777 455.55555555555554 341.3333333333333 457.3333333333333 Q 312.8888888888889 455.55555555555554 289.77777777777777 438.6666666666667 Q 276.44444444444446 429.77777777777777 266.6666666666667 419.1111111111111 Q 256 410.22222222222223 245.33333333333334 419.1111111111111 Q 235.55555555555554 429.77777777777777 222.22222222222223 438.6666666666667 Q 199.11111111111111 455.55555555555554 170.66666666666666 457.3333333333333 Q 142.22222222222223 455.55555555555554 119.11111111111111 438.6666666666667 L 119.11111111111111 438.6666666666667 Z M 170.66666666666666 343.55555555555554 Q 142.22222222222223 341.77777777777777 119.11111111111111 324.8888888888889 Q 106.66666666666667 316 96 305.3333333333333 Q 85.33333333333333 296.44444444444446 74.66666666666667 305.3333333333333 Q 64.88888888888889 316 51.55555555555556 324.8888888888889 Q 34.666666666666664 337.3333333333333 12.444444444444445 342.6666666666667 Q 0.8888888888888888 345.3333333333333 0 356 Q 1.7777777777777777 371.1111111111111 16 370.22222222222223 Q 47.111111111111114 363.1111111111111 67.55555555555556 348 Q 78.22222222222223 340.8888888888889 85.33333333333333 334.6666666666667 Q 92.44444444444444 340.8888888888889 103.11111111111111 348 Q 115.55555555555556 356.8888888888889 133.33333333333334 364 Q 150.22222222222223 372 170.66666666666666 372 Q 191.11111111111111 372 208 364 Q 225.77777777777777 356.8888888888889 238.22222222222223 348 Q 248.88888888888889 340.8888888888889 256 334.6666666666667 Q 263.1111111111111 340.8888888888889 273.77777777777777 348 Q 286.22222222222223 356.8888888888889 304 364 Q 320.8888888888889 372 341.3333333333333 372 Q 361.77777777777777 372 378.6666666666667 364 Q 396.44444444444446 356.8888888888889 408.8888888888889 348 Q 419.55555555555554 340.8888888888889 426.6666666666667 334.6666666666667 Q 433.77777777777777 340.8888888888889 444.44444444444446 348 Q 464.8888888888889 363.1111111111111 496 370.22222222222223 Q 510.22222222222223 371.1111111111111 512 356 Q 511.1111111111111 345.3333333333333 499.55555555555554 342.6666666666667 Q 477.3333333333333 337.3333333333333 460.44444444444446 324.8888888888889 Q 447.1111111111111 316 437.3333333333333 305.3333333333333 Q 426.6666666666667 296.44444444444446 416 305.3333333333333 Q 406.22222222222223 316 392.8888888888889 324.8888888888889 Q 369.77777777777777 341.77777777777777 341.3333333333333 343.55555555555554 Q 312.8888888888889 341.77777777777777 289.77777777777777 324.8888888888889 Q 276.44444444444446 316 266.6666666666667 305.3333333333333 Q 256 296.44444444444446 245.33333333333334 305.3333333333333 Q 235.55555555555554 316 222.22222222222223 324.8888888888889 Q 199.11111111111111 341.77777777777777 170.66666666666666 343.55555555555554 L 170.66666666666666 343.55555555555554 Z" />
</svg>