<svg xmlns="http://www.w3.org/2000/svg" viewBox="0 0 512 512">
  <path d="M 62.39071566731141 0 Q 49.516441005802704 0 40.60348162475822 8.912959381044487 L 40.60348162475822 8.912959381044487 L 40.60348162475822 8.912959381044487 Q 31.690522243713733 17.825918762088975 31.690522243713733 30.70019342359768 L 31.690522243713733 205.98839458413926 L 31.690522243713733 205.98839458413926 L 31.690522243713733 301.0599613152805 L 31.690522243713733 301.0599613152805 Q 32.680851063829785 315.9148936170213 47.5357833655706 316.90522243713735 Q 62.39071566731141 315.9148936170213 63.38104448742747 301.0599613152805 L 63.38104448742747 221.83365570599614 L 63.38104448742747 221.83365570599614 L 167.36557059961316 221.83365570599614 L 167.36557059961316 221.83365570599614 L 294.1276595744681 348.59574468085106 L 294.1276595744681 348.59574468085106 L 163.40425531914894 480.30947775628624 L 163.40425531914894 480.30947775628624 Q 153.50096711798838 491.20309477756285 163.40425531914894 502.09671179883946 Q 174.29787234042553 512 185.19148936170214 502.09671179883946 L 316.90522243713735 371.3733075435203 L 316.90522243713735 371.3733075435203 L 448.61895551257254 502.09671179883946 L 448.61895551257254 502.09671179883946 Q 459.51257253384915 512 470.4061895551257 502.09671179883946 Q 480.30947775628624 491.20309477756285 470.4061895551257 480.30947775628624 L 339.6827852998066 348.59574468085106 L 339.6827852998066 348.59574468085106 L 470.4061895551257 216.88201160541587 L 470.4061895551257 216.88201160541587 Q 480.30947775628624 205.98839458413926 470.4061895551257 195.09477756286267 Q 459.51257253384915 185.19148936170214 448.61895551257254 195.09477756286267 L 316.90522243713735 325.8181818181818 L 316.90522243713735 325.8181818181818 L 211.9303675048356 221.83365570599614 L 211.9303675048356 221.83365570599614 Q 257.4854932301741 217.87234042553192 286.2050290135397 187.17214700193423 Q 315.9148936170213 156.47195357833655 316.90522243713735 110.91682785299807 Q 315.9148936170213 63.38104448742747 284.2243713733075 32.680851063829785 Q 253.52417794970987 0.9903288201160542 205.98839458413926 0 L 62.39071566731141 0 L 62.39071566731141 0 Z M 174.29787234042553 190.1431334622824 Q 174.29787234042553 190.1431334622824 174.29787234042553 190.1431334622824 L 174.29787234042553 190.1431334622824 L 174.29787234042553 190.1431334622824 Q 174.29787234042553 190.1431334622824 174.29787234042553 190.1431334622824 L 63.38104448742747 190.1431334622824 L 63.38104448742747 190.1431334622824 L 63.38104448742747 31.690522243713733 L 63.38104448742747 31.690522243713733 L 205.98839458413926 31.690522243713733 L 205.98839458413926 31.690522243713733 Q 239.6595744680851 32.680851063829785 262.43713733075435 54.46808510638298 Q 284.2243713733075 77.24564796905223 285.2147001934236 110.91682785299807 Q 284.2243713733075 144.5880077369439 262.43713733075435 167.36557059961316 Q 239.6595744680851 189.15280464216633 205.98839458413926 190.1431334622824 L 174.29787234042553 190.1431334622824 L 174.29787234042553 190.1431334622824 Z" />
</svg>