<svg xmlns="http://www.w3.org/2000/svg" viewBox="0 0 512 512">
  <path d="M 268.6562 500.4944 Q 256 512 243.34383 500.4944 L 96.07191 353.22247 L 96.07191 353.22247 Q 84.56629 340.56628 96.07191 327.91013 Q 108.72809 316.40448 121.38427 327.91013 L 237.59102 442.96628 L 237.59102 442.96628 L 237.59102 322.15732 L 237.59102 322.15732 L 237.59102 156.47641 L 237.59102 156.47641 Q 238.74158 139.21797 256 138.06741 Q 273.25842 139.21797 274.409 156.47641 L 274.409 322.15732 L 274.409 322.15732 L 274.409 442.96628 L 274.409 442.96628 L 390.61572 327.91013 L 390.61572 327.91013 Q 403.2719 316.40448 415.9281 327.91013 Q 427.43372 340.56628 415.9281 353.22247 L 268.6562 500.4944 L 268.6562 500.4944 Z M 35.092136 55.226967 Q 9.779776 52.925842 7.4786515 27.613483 Q 9.779776 2.3011236 35.092136 0 Q 60.404495 2.3011236 62.70562 27.613483 Q 60.404495 52.925842 35.092136 55.226967 L 35.092136 55.226967 Z M 476.90787 55.226967 Q 451.59552 52.925842 449.29437 27.613483 Q 451.59552 2.3011236 476.90787 0 Q 502.2202 2.3011236 504.52136 27.613483 Q 502.2202 52.925842 476.90787 55.226967 L 476.90787 55.226967 Z M 117.93259 27.613483 Q 120.23371 2.3011236 145.54607 0 Q 170.85843 2.3011236 173.15955 27.613483 Q 170.85843 52.925842 145.54607 55.226967 Q 120.23371 52.925842 117.93259 27.613483 L 117.93259 27.613483 Z M 256 55.226967 Q 230.68764 52.925842 228.38652 27.613483 Q 230.68764 2.3011236 256 0 Q 281.31235 2.3011236 283.6135 27.613483 Q 281.31235 52.925842 256 55.226967 L 256 55.226967 Z M 338.84045 27.613483 Q 341.14157 2.3011236 366.45392 0 Q 391.7663 2.3011236 394.0674 27.613483 Q 391.7663 52.925842 366.45392 55.226967 Q 341.14157 52.925842 338.84045 27.613483 L 338.84045 27.613483 Z" />
</svg>