<svg xmlns="http://www.w3.org/2000/svg" viewBox="0 0 512 512">
  <path d="M 64 64 Q 50 64 41 73 L 41 73 L 41 73 Q 32 82 32 96 L 32 416 L 32 416 Q 32 430 41 439 Q 50 448 64 448 L 288 448 L 288 448 L 288 64 L 288 64 L 64 64 L 64 64 Z M 448 64 L 320 64 L 448 64 L 320 64 L 320 448 L 320 448 L 448 448 L 448 448 Q 462 448 471 439 Q 480 430 480 416 L 480 96 L 480 96 Q 480 82 471 73 Q 462 64 448 64 L 448 64 Z M 448 32 Q 475 33 493 51 L 493 51 L 493 51 Q 511 69 512 96 L 512 416 L 512 416 Q 511 443 493 461 Q 475 479 448 480 L 64 480 L 64 480 Q 37 479 19 461 Q 1 443 0 416 L 0 96 L 0 96 Q 1 69 19 51 Q 37 33 64 32 L 448 32 L 448 32 Z M 432 96 Q 447 97 448 112 Q 447 127 432 128 L 368 128 L 368 128 Q 353 127 352 112 Q 353 97 368 96 L 432 96 L 432 96 Z M 448 176 Q 447 191 432 192 L 368 192 L 368 192 Q 353 191 352 176 Q 353 161 368 160 L 432 160 L 432 160 Q 447 161 448 176 L 448 176 Z M 432 224 Q 447 225 448 240 Q 447 255 432 256 L 368 256 L 368 256 Q 353 255 352 240 Q 353 225 368 224 L 432 224 L 432 224 Z" />
</svg>