<svg xmlns="http://www.w3.org/2000/svg" viewBox="0 0 512 512">
  <path d="M 416.9284332688588 113.3926499032882 Q 379.29593810444874 112.40232108317214 353.5473887814313 89.6247582205029 L 353.5473887814313 132.20889748549322 L 353.5473887814313 132.20889748549322 L 353.5473887814313 163.89941972920695 L 353.5473887814313 163.89941972920695 L 353.5473887814313 176.77369439071566 L 353.5473887814313 176.77369439071566 Q 352.5570599613153 191.6286266924565 337.70212765957444 192.61895551257254 Q 322.84719535783364 191.6286266924565 321.8568665377176 176.77369439071566 L 321.8568665377176 160.9284332688588 L 321.8568665377176 160.9284332688588 Q 258.47582205029016 160.9284332688588 208.95938104448743 203.51257253384912 L 207.96905222437138 205.49323017408125 L 207.96905222437138 205.49323017408125 L 206.9787234042553 206.4835589941973 L 206.9787234042553 206.4835589941973 Q 178.25918762088975 227.28046421663444 160.43326885880077 250.05802707930368 Q 143.59767891682785 272.8355899419729 129.7330754352031 297.5938104448743 L 126.76208897485493 301.5551257253385 L 126.76208897485493 301.5551257253385 Q 112.89748549323018 325.3230174081238 95.0715667311412 349.09090909090907 Q 77.24564796905223 372.8588007736944 47.5357833655706 393.65570599613153 Q 40.60348162475822 399.5976789168279 37.63249516441006 406.52998065764024 Q 34.661508704061895 415.4429400386847 39.61315280464217 425.3462282398453 Q 44.56479690522244 435.2495164410058 57.439071566731144 439.21083172147 L 59.41972920696325 440.2011605415861 L 59.41972920696325 440.2011605415861 L 60.4100580270793 440.2011605415861 L 60.4100580270793 440.2011605415861 L 60.4100580270793 440.2011605415861 L 60.4100580270793 440.2011605415861 L 60.4100580270793 440.2011605415861 L 60.4100580270793 440.2011605415861 L 60.4100580270793 440.2011605415861 L 60.4100580270793 440.2011605415861 L 60.4100580270793 440.2011605415861 L 60.4100580270793 440.2011605415861 L 60.4100580270793 440.2011605415861 L 60.4100580270793 440.2011605415861 L 60.4100580270793 441.1914893617021 L 60.4100580270793 441.1914893617021 Q 61.40038684719536 441.1914893617021 62.39071566731141 441.1914893617021 Q 63.38104448742747 441.1914893617021 63.38104448742747 442.1818181818182 Q 67.34235976789168 443.17214700193426 76.25531914893617 446.1431334622824 Q 92.10058027079303 451.09477756286265 122.80077369439071 459.0174081237911 Q 186.1818181818182 475.85299806576404 290.16634429400386 477.83365570599614 Q 344.63442940038686 476.84332688588006 380.2862669245648 459.0174081237911 Q 416.9284332688588 440.2011605415861 438.715667311412 413.4622823984526 Q 460.50290135396517 384.742746615087 470.4061895551257 356.0232108317215 Q 480.30947775628624 326.3133462282398 480.30947775628624 304.52611218568666 Q 480.30947775628624 248.07736943907156 434.75435203094776 203.51257253384912 Q 412.9671179883946 183.70599613152805 385.2379110251451 172.81237911025144 L 385.2379110251451 141.1218568665377 L 385.2379110251451 141.1218568665377 Q 391.17988394584137 143.10251450676984 397.1218568665377 144.09284332688588 Q 429.8027079303675 155.97678916827854 456.541586073501 180.73500967117988 Q 512 235.20309477756285 512 304.52611218568666 Q 512 341.1682785299807 491.20309477756285 388.70406189555126 Q 469.4158607350097 436.23984526112184 420.88974854932303 471.8916827852998 Q 372.3636363636364 507.54352030947774 290.16634429400386 509.52417794970984 Q 181.23017408123792 507.54352030947774 115.86847195357834 489.71760154738877 Q 50.50676982591876 472.88201160541587 48.52611218568666 469.9110251450677 Q 22.777562862669246 461.98839458413926 11.88394584139265 441.1914893617021 Q 0 419.40425531914894 7.922630560928433 395.6363636363636 Q 14.854932301740812 378.8007736943907 29.709864603481623 367.9071566731141 Q 54.46808510638298 350.08123791102514 70.31334622823985 329.284332688588 Q 86.15860735009672 308.48742746615085 100.02321083172147 284.7195357833656 Q 100.02321083172147 284.7195357833656 100.02321083172147 284.7195357833656 Q 100.02321083172147 284.7195357833656 100.02321083172147 283.7292069632495 Q 114.87814313346229 258.9709864603482 134.68471953578336 232.2321083172147 Q 154.49129593810446 206.4835589941973 187.17214700193423 180.73500967117988 Q 245.60154738878143 129.23791102514508 321.8568665377176 129.23791102514508 L 321.8568665377176 18.321083172147002 L 321.8568665377176 18.321083172147002 Q 322.84719535783364 3.4661508704061896 337.70212765957444 2.4758220502901356 L 361.47001934235976 2.4758220502901356 L 421.88007736943905 2.4758220502901356 Q 459.51257253384915 3.4661508704061896 485.2611218568665 29.214700193423596 Q 511.0096711798839 54.963249516441 512 92.59574468085107 Q 510.0193423597679 111.41199226305609 491.20309477756285 113.3926499032882 L 472.38684719535786 113.3926499032882 L 416.9284332688588 113.3926499032882 Z M 432.77369439071566 319.38104448742746 Q 431.7833655705996 366.91682785299804 400.0928433268859 397.6170212765957 L 400.0928433268859 397.6170212765957 L 400.0928433268859 397.6170212765957 Q 369.3926499032882 429.3075435203095 321.8568665377176 430.29787234042556 Q 307.00193423597676 429.3075435203095 306.01160541586074 414.4526112185687 Q 307.00193423597676 399.5976789168279 321.8568665377176 398.6073500967118 Q 355.5280464216634 397.6170212765957 378.30560928433266 375.82978723404256 Q 400.0928433268859 353.0522243713733 401.08317214700196 319.38104448742746 Q 402.073500967118 304.52611218568666 416.9284332688588 303.5357833655706 Q 431.7833655705996 304.52611218568666 432.77369439071566 319.38104448742746 L 432.77369439071566 319.38104448742746 Z M 355.5280464216634 34.16634429400387 Q 361.47001934235976 54.963249516441 377.31528046421664 67.8375241779497 L 377.31528046421664 67.8375241779497 L 377.31528046421664 67.8375241779497 Q 394.15087040618954 81.70212765957447 416.9284332688588 81.70212765957447 L 472.38684719535786 81.70212765957447 L 479.3191489361702 81.70212765957447 Q 474.36750483558995 60.90522243713733 459.51257253384915 48.030947775628626 Q 443.6673114119923 34.16634429400387 421.88007736943905 34.16634429400387 L 361.47001934235976 34.16634429400387 L 355.5280464216634 34.16634429400387 Z" />
</svg>