<svg xmlns="http://www.w3.org/2000/svg" viewBox="0 0 512 512">
  <path d="M 271 10 Q 266 0 256 0 Q 246 0 241 10 L 182 144 L 182 144 Q 176 157 176 170 L 176 210 L 176 210 L 176 211 L 176 211 L 32 299 L 32 299 L 32 272 L 32 272 Q 31 257 16 256 Q 1 257 0 272 L 0 328 L 0 328 L 0 368 L 0 368 L 0 400 L 0 400 Q 1 415 16 416 Q 31 415 32 400 L 32 384 L 32 384 L 176 384 L 176 384 L 176 387 L 176 387 L 134 454 L 134 454 Q 128 463 128 474 Q 128 490 139 501 Q 150 512 166 512 L 346 512 L 346 512 Q 362 512 373 501 Q 384 490 384 474 Q 384 463 378 454 L 336 387 L 336 387 L 336 384 L 336 384 L 480 384 L 480 384 L 480 400 L 480 400 Q 481 415 496 416 Q 511 415 512 400 L 512 368 L 512 368 L 512 328 L 512 328 L 512 272 L 512 272 Q 511 257 496 256 Q 481 257 480 272 L 480 299 L 480 299 L 336 210 L 336 210 L 336 210 L 336 210 L 336 170 L 336 170 Q 336 157 331 144 L 271 10 L 271 10 Z M 480 352 L 336 352 L 480 352 L 336 352 L 336 248 L 336 248 L 480 337 L 480 337 L 480 352 L 480 352 Z M 176 352 L 32 352 L 176 352 L 32 352 L 32 337 L 32 337 L 176 248 L 176 248 L 176 352 L 176 352 Z M 211 157 L 256 55 L 211 157 L 256 55 L 301 157 L 301 157 Q 304 163 304 170 L 304 392 L 304 392 Q 304 397 307 401 L 351 471 L 351 471 Q 352 473 352 474 Q 351 480 346 480 L 272 480 L 272 480 L 272 416 L 272 416 Q 271 401 256 400 Q 241 401 240 416 L 240 480 L 240 480 L 166 480 L 166 480 Q 160 479 160 474 Q 160 473 161 471 L 206 401 L 206 401 Q 208 397 208 392 L 208 170 L 208 170 Q 208 163 211 157 L 211 157 Z" />
</svg>