<svg xmlns="http://www.w3.org/2000/svg" viewBox="0 0 512 512">
  <path d="M 369.77777777777777 142.22222222222223 Q 417.77777777777777 143.11111111111111 450.6666666666667 175.11111111111111 L 450.6666666666667 175.11111111111111 L 450.6666666666667 175.11111111111111 Q 482.6666666666667 208 483.55555555555554 256 Q 482.6666666666667 304 450.6666666666667 336.8888888888889 Q 417.77777777777777 368.8888888888889 369.77777777777777 369.77777777777777 L 142.22222222222223 369.77777777777777 L 142.22222222222223 369.77777777777777 Q 94.22222222222223 368.8888888888889 61.333333333333336 336.8888888888889 Q 29.333333333333332 304 28.444444444444443 256 Q 29.333333333333332 208 61.333333333333336 175.11111111111111 Q 94.22222222222223 143.11111111111111 142.22222222222223 142.22222222222223 L 369.77777777777777 142.22222222222223 L 369.77777777777777 142.22222222222223 Z M 512 256 Q 510.22222222222223 195.55555555555554 470.22222222222223 155.55555555555554 L 470.22222222222223 155.55555555555554 L 470.22222222222223 155.55555555555554 Q 430.22222222222223 115.55555555555556 369.77777777777777 113.77777777777777 L 142.22222222222223 113.77777777777777 L 142.22222222222223 113.77777777777777 Q 81.77777777777777 115.55555555555556 41.77777777777778 155.55555555555554 Q 1.7777777777777777 195.55555555555554 0 256 Q 1.7777777777777777 316.44444444444446 41.77777777777778 356.44444444444446 Q 81.77777777777777 396.44444444444446 142.22222222222223 398.22222222222223 L 369.77777777777777 398.22222222222223 L 369.77777777777777 398.22222222222223 Q 430.22222222222223 396.44444444444446 470.22222222222223 356.44444444444446 Q 510.22222222222223 316.44444444444446 512 256 L 512 256 Z M 199.11111111111111 256 Q 198.22222222222223 288 170.66666666666666 304.8888888888889 Q 142.22222222222223 320.8888888888889 113.77777777777777 304.8888888888889 Q 86.22222222222223 288 85.33333333333333 256 Q 86.22222222222223 224 113.77777777777777 207.11111111111111 Q 142.22222222222223 191.11111111111111 170.66666666666666 207.11111111111111 Q 198.22222222222223 224 199.11111111111111 256 L 199.11111111111111 256 Z M 56.888888888888886 256 Q 56.888888888888886 279.1111111111111 68.44444444444444 298.6666666666667 L 68.44444444444444 298.6666666666667 L 68.44444444444444 298.6666666666667 Q 80 318.22222222222223 99.55555555555556 329.77777777777777 Q 120 341.3333333333333 142.22222222222223 341.3333333333333 Q 164.44444444444446 341.3333333333333 184.88888888888889 329.77777777777777 Q 204.44444444444446 318.22222222222223 216 298.6666666666667 Q 227.55555555555554 279.1111111111111 227.55555555555554 256 Q 227.55555555555554 232.88888888888889 216 213.33333333333334 Q 204.44444444444446 193.77777777777777 184.88888888888889 182.22222222222223 Q 164.44444444444446 170.66666666666666 142.22222222222223 170.66666666666666 Q 120 170.66666666666666 99.55555555555556 182.22222222222223 Q 80 193.77777777777777 68.44444444444444 213.33333333333334 Q 56.888888888888886 232.88888888888889 56.888888888888886 256 L 56.888888888888886 256 Z" />
</svg>