<svg xmlns="http://www.w3.org/2000/svg" viewBox="0 0 512 512">
  <path d="M 73.14285714285714 36.57142857142857 Q 57.142857142857146 36.57142857142857 46.857142857142854 46.857142857142854 L 46.857142857142854 46.857142857142854 L 46.857142857142854 46.857142857142854 Q 36.57142857142857 57.142857142857146 36.57142857142857 73.14285714285714 L 36.57142857142857 438.85714285714283 L 36.57142857142857 438.85714285714283 Q 36.57142857142857 454.85714285714283 46.857142857142854 465.14285714285717 Q 57.142857142857146 475.42857142857144 73.14285714285714 475.42857142857144 L 438.85714285714283 475.42857142857144 L 438.85714285714283 475.42857142857144 Q 454.85714285714283 475.42857142857144 465.14285714285717 465.14285714285717 Q 475.42857142857144 454.85714285714283 475.42857142857144 438.85714285714283 L 475.42857142857144 73.14285714285714 L 475.42857142857144 73.14285714285714 Q 475.42857142857144 57.142857142857146 465.14285714285717 46.857142857142854 Q 454.85714285714283 36.57142857142857 438.85714285714283 36.57142857142857 L 73.14285714285714 36.57142857142857 L 73.14285714285714 36.57142857142857 Z M 0 73.14285714285714 Q 1.1428571428571428 42.285714285714285 21.714285714285715 21.714285714285715 L 21.714285714285715 21.714285714285715 L 21.714285714285715 21.714285714285715 Q 42.285714285714285 1.1428571428571428 73.14285714285714 0 L 438.85714285714283 0 L 438.85714285714283 0 Q 469.7142857142857 1.1428571428571428 490.2857142857143 21.714285714285715 Q 510.85714285714283 42.285714285714285 512 73.14285714285714 L 512 438.85714285714283 L 512 438.85714285714283 Q 510.85714285714283 469.7142857142857 490.2857142857143 490.2857142857143 Q 469.7142857142857 510.85714285714283 438.85714285714283 512 L 73.14285714285714 512 L 73.14285714285714 512 Q 42.285714285714285 510.85714285714283 21.714285714285715 490.2857142857143 Q 1.1428571428571428 469.7142857142857 0 438.85714285714283 L 0 73.14285714285714 L 0 73.14285714285714 Z M 164.57142857142858 91.42857142857143 L 164.57142857142858 128 L 164.57142857142858 91.42857142857143 L 164.57142857142858 128 L 237.71428571428572 128 L 237.71428571428572 128 L 237.71428571428572 91.42857142857143 L 237.71428571428572 91.42857142857143 Q 238.85714285714286 74.28571428571429 256 73.14285714285714 Q 273.14285714285717 74.28571428571429 274.2857142857143 91.42857142857143 L 274.2857142857143 128 L 274.2857142857143 128 L 347.42857142857144 128 L 347.42857142857144 128 L 347.42857142857144 91.42857142857143 L 347.42857142857144 91.42857142857143 Q 348.57142857142856 74.28571428571429 365.7142857142857 73.14285714285714 Q 382.85714285714283 74.28571428571429 384 91.42857142857143 L 384 128 L 384 128 L 420.57142857142856 128 L 420.57142857142856 128 Q 437.7142857142857 129.14285714285714 438.85714285714283 146.28571428571428 Q 437.7142857142857 163.42857142857142 420.57142857142856 164.57142857142858 L 384 164.57142857142858 L 384 164.57142857142858 L 384 237.71428571428572 L 384 237.71428571428572 L 420.57142857142856 237.71428571428572 L 420.57142857142856 237.71428571428572 Q 437.7142857142857 238.85714285714286 438.85714285714283 256 Q 437.7142857142857 273.14285714285717 420.57142857142856 274.2857142857143 L 384 274.2857142857143 L 384 274.2857142857143 L 384 347.42857142857144 L 384 347.42857142857144 L 420.57142857142856 347.42857142857144 L 420.57142857142856 347.42857142857144 Q 437.7142857142857 348.57142857142856 438.85714285714283 365.7142857142857 Q 437.7142857142857 382.85714285714283 420.57142857142856 384 L 384 384 L 384 384 L 384 420.57142857142856 L 384 420.57142857142856 Q 382.85714285714283 437.7142857142857 365.7142857142857 438.85714285714283 Q 348.57142857142856 437.7142857142857 347.42857142857144 420.57142857142856 L 347.42857142857144 384 L 347.42857142857144 384 L 274.2857142857143 384 L 274.2857142857143 384 L 274.2857142857143 420.57142857142856 L 274.2857142857143 420.57142857142856 Q 273.14285714285717 437.7142857142857 256 438.85714285714283 Q 238.85714285714286 437.7142857142857 237.71428571428572 420.57142857142856 L 237.71428571428572 384 L 237.71428571428572 384 L 164.57142857142858 384 L 164.57142857142858 384 L 164.57142857142858 420.57142857142856 L 164.57142857142858 420.57142857142856 Q 163.42857142857142 437.7142857142857 146.28571428571428 438.85714285714283 Q 129.14285714285714 437.7142857142857 128 420.57142857142856 L 128 384 L 128 384 L 91.42857142857143 384 L 91.42857142857143 384 Q 74.28571428571429 382.85714285714283 73.14285714285714 365.7142857142857 Q 74.28571428571429 348.57142857142856 91.42857142857143 347.42857142857144 L 128 347.42857142857144 L 128 347.42857142857144 L 128 274.2857142857143 L 128 274.2857142857143 L 91.42857142857143 274.2857142857143 L 91.42857142857143 274.2857142857143 Q 74.28571428571429 273.14285714285717 73.14285714285714 256 Q 74.28571428571429 238.85714285714286 91.42857142857143 237.71428571428572 L 128 237.71428571428572 L 128 237.71428571428572 L 128 164.57142857142858 L 128 164.57142857142858 L 91.42857142857143 164.57142857142858 L 91.42857142857143 164.57142857142858 Q 74.28571428571429 163.42857142857142 73.14285714285714 146.28571428571428 Q 74.28571428571429 129.14285714285714 91.42857142857143 128 L 128 128 L 128 128 L 128 91.42857142857143 L 128 91.42857142857143 Q 129.14285714285714 74.28571428571429 146.28571428571428 73.14285714285714 Q 163.42857142857142 74.28571428571429 164.57142857142858 91.42857142857143 L 164.57142857142858 91.42857142857143 Z M 164.57142857142858 237.71428571428572 L 237.71428571428572 237.71428571428572 L 164.57142857142858 237.71428571428572 L 237.71428571428572 237.71428571428572 L 237.71428571428572 164.57142857142858 L 237.71428571428572 164.57142857142858 L 164.57142857142858 164.57142857142858 L 164.57142857142858 164.57142857142858 L 164.57142857142858 237.71428571428572 L 164.57142857142858 237.71428571428572 Z M 274.2857142857143 237.71428571428572 L 347.42857142857144 237.71428571428572 L 274.2857142857143 237.71428571428572 L 347.42857142857144 237.71428571428572 L 347.42857142857144 164.57142857142858 L 347.42857142857144 164.57142857142858 L 274.2857142857143 164.57142857142858 L 274.2857142857143 164.57142857142858 L 274.2857142857143 237.71428571428572 L 274.2857142857143 237.71428571428572 Z M 274.2857142857143 274.2857142857143 L 274.2857142857143 347.42857142857144 L 274.2857142857143 274.2857142857143 L 274.2857142857143 347.42857142857144 L 347.42857142857144 347.42857142857144 L 347.42857142857144 347.42857142857144 L 347.42857142857144 274.2857142857143 L 347.42857142857144 274.2857142857143 L 274.2857142857143 274.2857142857143 L 274.2857142857143 274.2857142857143 Z M 237.71428571428572 274.2857142857143 L 164.57142857142858 274.2857142857143 L 237.71428571428572 274.2857142857143 L 164.57142857142858 274.2857142857143 L 164.57142857142858 347.42857142857144 L 164.57142857142858 347.42857142857144 L 237.71428571428572 347.42857142857144 L 237.71428571428572 347.42857142857144 L 237.71428571428572 274.2857142857143 L 237.71428571428572 274.2857142857143 Z" />
</svg>