<svg xmlns="http://www.w3.org/2000/svg" viewBox="0 0 512 512">
  <path d="M 278.0554 336.73846 L 226.85538 425.74768 L 278.0554 336.73846 L 226.85538 425.74768 Q 223.70462 432.04922 215.8277 432.04922 L 171.71692 432.04922 L 171.71692 432.04922 L 207.16307 309.16922 L 207.16307 309.16922 Q 208.73846 303.6554 204.8 298.14154 Q 200.86154 293.41537 194.56 293.41537 L 129.96924 293.41537 L 129.96924 293.41537 Q 123.667694 293.41537 119.72923 298.14154 L 85.85846 343.8277 L 85.85846 343.8277 L 55.138462 343.8277 L 55.138462 343.8277 L 78.76923 258.75693 L 78.76923 258.75693 Q 80.34461 255.60616 78.76923 252.45538 L 55.138462 167.38461 L 55.138462 167.38461 L 63.015385 167.38461 L 63.015385 167.38461 L 37.80923 147.6923 L 37.80923 147.6923 Q 29.144615 154.78154 29.144615 165.80923 Q 29.144615 168.96 29.932308 172.11076 L 53.563076 255.60616 L 53.563076 255.60616 L 29.932308 339.10153 L 29.932308 339.10153 Q 29.144615 342.25232 29.144615 345.40308 Q 29.144615 355.64307 36.233845 361.9446 Q 42.535385 369.03384 52.775383 369.03384 L 85.85846 369.03384 L 85.85846 369.03384 Q 98.46154 369.03384 106.33846 358.79385 L 136.27077 318.62155 L 136.27077 318.62155 L 178.01846 318.62155 L 178.01846 318.62155 L 147.29846 424.96 L 147.29846 424.96 Q 144.93538 437.56308 152.02461 447.01538 Q 159.11385 456.46768 171.71692 457.25537 L 215.8277 457.25537 L 215.8277 457.25537 Q 237.88307 456.46768 248.91077 438.35077 L 297.74768 352.4923 L 297.74768 352.4923 L 278.0554 336.73846 L 278.0554 336.73846 Z M 147.29846 86.252304 L 155.17538 111.45846 L 147.29846 86.252304 L 155.17538 111.45846 L 189.04616 138.24 L 189.04616 138.24 L 171.71692 79.16308 L 171.71692 79.16308 L 215.8277 79.16308 L 215.8277 79.16308 Q 222.91692 79.16308 226.85538 85.464615 L 237.88307 79.16308 L 237.88307 79.16308 L 226.85538 85.464615 L 226.85538 85.464615 L 299.3231 211.49539 L 299.3231 211.49539 Q 303.26154 217.79692 310.35077 217.79692 L 396.20923 217.79692 L 396.20923 217.79692 Q 414.32614 218.58461 437.16922 231.1877 Q 447.40924 237.48923 452.92307 243.79077 Q 457.64923 250.88 457.64923 255.60616 Q 457.64923 267.42154 437.16922 280.81232 Q 414.32614 293.41537 396.20923 293.41537 L 385.18155 293.41537 L 385.18155 293.41537 L 414.32614 317.04614 L 414.32614 317.04614 Q 433.23077 312.32 449.7723 302.8677 Q 462.3754 294.99078 472.6154 283.17538 Q 482.0677 271.36 482.85538 255.60616 Q 482.0677 239.85231 472.6154 228.03693 Q 463.1631 217.00923 449.7723 209.13231 Q 422.99078 193.37846 396.20923 192.59077 L 317.44 192.59077 L 317.44 192.59077 L 248.91077 72.86154 L 248.91077 72.86154 Q 237.88307 54.744614 215.8277 53.956924 L 171.71692 53.956924 L 171.71692 53.956924 Q 159.11385 54.744614 152.02461 64.19692 Q 144.93538 73.64923 147.29846 86.252304 L 147.29846 86.252304 Z M 24.41846 56.32 Q 14.966154 50.806152 6.3015385 58.68308 Q 0 68.13538 8.664616 76.8 L 487.58154 454.8923 L 487.58154 454.8923 Q 497.03384 461.19385 505.69846 452.52924 Q 512 443.07693 503.3354 435.2 L 24.41846 56.32 L 24.41846 56.32 Z" />
</svg>