<svg xmlns="http://www.w3.org/2000/svg" viewBox="0 0 512 512">
  <path d="M 156.8 70.4 Q 174.4 53.6 196.8 52.8 L 196.8 52.8 L 196.8 52.8 Q 219.2 51.2 237.6 66.4 Q 244 72 249.6 78.4 Q 250.4 79.2 251.2 79.2 Q 251.2 80 252 80.8 Q 254.4 82.4 256 84.8 Q 257.6 83.2 258.4 81.6 Q 260 80.8 260.8 79.2 Q 267.2 72.8 274.4 66.4 Q 292.8 51.2 315.2 52.8 Q 337.6 53.6 355.2 70.4 Q 372.8 88.8 372.8 113.6 Q 372.8 137.6 355.2 156.8 L 274.4 239.2 L 274.4 239.2 Q 266.4 247.2 256 247.2 Q 245.6 247.2 238.4 239.2 L 156.8 156.8 L 156.8 156.8 Q 139.2 137.6 139.2 113.6 Q 139.2 88.8 156.8 70.4 L 156.8 70.4 Z M 224 88 Q 212.8 78.4 199.2 78.4 L 199.2 78.4 L 199.2 78.4 Q 185.6 78.4 175.2 88 Q 164.8 99.2 164.8 113.6 Q 164.8 128 175.2 139.2 L 256 220.8 L 256 220.8 L 336.8 138.4 L 336.8 138.4 Q 347.2 128 347.2 113.6 Q 347.2 99.2 336.8 88 Q 326.4 77.6 312.8 77.6 Q 299.2 77.6 288.8 88 L 264.8 112 L 264.8 112 Q 256 120 247.2 112 L 224 88 L 224 88 Z M 51.2 98.4 Q 72.8 99.2 87.2 113.6 L 87.2 113.6 L 87.2 113.6 Q 101.6 128 102.4 149.6 L 102.4 248.8 L 102.4 248.8 Q 102.4 254.4 103.2 260 Q 105.6 256 109.6 252.8 Q 123.2 239.2 140.8 239.2 Q 158.4 239.2 172 252.8 L 245.6 325.6 L 245.6 325.6 Q 251.2 332 256 339.2 Q 260.8 332 266.4 325.6 L 340 252.8 L 340 252.8 Q 353.6 239.2 371.2 239.2 Q 388.8 239.2 402.4 252.8 Q 406.4 256 408.8 260 Q 409.6 254.4 409.6 248.8 L 409.6 149.6 L 409.6 149.6 Q 410.4 128 424.8 113.6 Q 439.2 99.2 460.8 98.4 Q 482.4 99.2 496.8 113.6 Q 511.2 128 512 149.6 L 512 322.4 L 512 322.4 Q 511.2 359.2 485.6 385.6 L 418.4 452.8 L 418.4 452.8 Q 409.6 460.8 400.8 452.8 Q 392.8 444 400.8 435.2 L 468 368 L 468 368 Q 486.4 348.8 486.4 322.4 L 486.4 149.6 L 486.4 149.6 Q 486.4 138.4 479.2 131.2 Q 472 124 460.8 124 Q 449.6 124 442.4 131.2 Q 435.2 138.4 435.2 149.6 L 435.2 248.8 L 435.2 248.8 Q 434.4 282.4 411.2 307.2 L 402.4 315.2 L 402.4 315.2 L 367.2 350.4 L 367.2 350.4 L 354.4 363.2 L 354.4 363.2 Q 345.6 371.2 336.8 363.2 Q 328.8 354.4 336.8 345.6 L 349.6 332.8 L 349.6 332.8 L 349.6 332.8 L 349.6 332.8 L 384.8 297.6 L 384.8 297.6 L 384.8 297.6 L 384.8 297.6 Q 396 284 384.8 270.4 Q 371.2 260 357.6 270.4 L 284.8 344 L 284.8 344 Q 268.8 360 268.8 382.4 L 268.8 444 L 268.8 444 Q 268 456 256 456.8 Q 244 456 243.2 444 L 243.2 382.4 L 243.2 382.4 Q 243.2 360 227.2 344 L 154.4 270.4 L 154.4 270.4 Q 140.8 259.2 127.2 270.4 Q 116.8 284 127.2 297.6 L 162.4 332.8 L 162.4 332.8 L 175.2 345.6 L 175.2 345.6 Q 183.2 354.4 175.2 363.2 Q 166.4 371.2 157.6 363.2 L 144.8 350.4 L 144.8 350.4 L 144.8 350.4 L 144.8 350.4 L 109.6 315.2 L 109.6 315.2 L 109.6 315.2 L 109.6 315.2 L 100.8 307.2 L 100.8 307.2 Q 77.6 282.4 76.8 248.8 L 76.8 149.6 L 76.8 149.6 Q 76.8 138.4 69.6 131.2 Q 62.4 124 51.2 124 Q 40 124 32.8 131.2 Q 25.6 138.4 25.6 149.6 L 25.6 322.4 L 25.6 322.4 Q 25.6 348.8 44 368 L 111.2 435.2 L 111.2 435.2 Q 119.2 444 111.2 452.8 Q 102.4 460.8 93.6 452.8 L 26.4 385.6 L 26.4 385.6 Q 0.8 359.2 0 322.4 L 0 149.6 L 0 149.6 Q 0.8 128 15.2 113.6 Q 29.6 99.2 51.2 98.4 L 51.2 98.4 Z" />
</svg>