<svg xmlns="http://www.w3.org/2000/svg" viewBox="0 0 512 512">
  <path d="M 99.2248062015504 111.13178294573643 Q 100.21705426356588 77.3953488372093 122.04651162790698 54.57364341085271 L 122.04651162790698 54.57364341085271 L 122.04651162790698 54.57364341085271 Q 144.86821705426357 32.74418604651163 178.6046511627907 31.751937984496124 Q 202.41860465116278 31.751937984496124 222.26356589147287 44.651162790697676 Q 241.11627906976744 57.55038759689923 251.03875968992247 77.3953488372093 Q 254.015503875969 85.33333333333333 261.95348837209303 86.32558139534883 Q 270.8837209302326 88.31007751937985 276.83720930232556 82.35658914728683 Q 294.69767441860466 64.49612403100775 321.48837209302326 63.50387596899225 Q 348.27906976744185 64.49612403100775 366.13953488372096 82.35658914728683 Q 384 100.21705426356588 384.9922480620155 127.0077519379845 L 384.9922480620155 127.0077519379845 L 384.9922480620155 127.0077519379845 Q 384.9922480620155 133.95348837209303 389.95348837209303 138.91472868217053 Q 394.91472868217056 143.87596899224806 401.86046511627904 142.88372093023256 Q 405.82945736434107 142.88372093023256 408.8062015503876 142.88372093023256 Q 439.5658914728682 143.87596899224806 459.4108527131783 163.72093023255815 Q 479.25581395348837 183.56589147286823 480.2480620155039 214.32558139534885 Q 479.25581395348837 244.09302325581396 459.4108527131783 264.93023255813955 Q 439.5658914728682 284.7751937984496 408.8062015503876 285.7674418604651 L 107.16279069767442 285.7674418604651 L 107.16279069767442 285.7674418604651 Q 76.40310077519379 284.7751937984496 56.55813953488372 264.93023255813955 Q 36.713178294573645 244.09302325581396 35.72093023255814 214.32558139534885 Q 35.72093023255814 188.52713178294573 50.604651162790695 169.67441860465115 Q 65.48837209302326 151.8139534883721 89.30232558139535 144.86821705426357 Q 102.2015503875969 139.90697674418604 101.20930232558139 126.01550387596899 Q 99.2248062015504 119.06976744186046 99.2248062015504 111.13178294573643 L 99.2248062015504 111.13178294573643 Z M 512 214.32558139534885 Q 511.0077519379845 172.65116279069767 484.2170542635659 143.87596899224806 L 484.2170542635659 143.87596899224806 L 484.2170542635659 143.87596899224806 Q 456.4341085271318 115.10077519379846 415.7519379844961 111.13178294573643 Q 408.8062015503876 76.40310077519379 383.0077519379845 54.57364341085271 Q 357.2093023255814 32.74418604651163 321.48837209302326 31.751937984496124 Q 292.71317829457365 31.751937984496124 269.8914728682171 47.627906976744185 Q 237.14728682170542 1.9844961240310077 178.6046511627907 0 Q 130.97674418604652 0.9922480620155039 100.21705426356588 32.74418604651163 Q 68.46511627906976 63.50387596899225 67.47286821705427 111.13178294573643 Q 67.47286821705427 115.10077519379846 67.47286821705427 119.06976744186046 Q 39.689922480620154 130.97674418604652 21.829457364341085 156.7751937984496 Q 3.9689922480620154 181.58139534883722 3.9689922480620154 214.32558139534885 Q 4.961240310077519 257.984496124031 33.736434108527135 287.7519379844961 Q 63.50387596899225 316.52713178294573 107.16279069767442 317.51937984496124 L 408.8062015503876 317.51937984496124 L 408.8062015503876 317.51937984496124 Q 452.4651162790698 316.52713178294573 482.2325581395349 287.7519379844961 Q 511.0077519379845 257.984496124031 512 214.32558139534885 L 512 214.32558139534885 Z M 97.24031007751938 372.09302325581393 Q 103.1937984496124 359.1937984496124 90.29457364341086 351.25581395348837 Q 76.40310077519379 345.30232558139534 69.45736434108527 358.2015503875969 L 5.953488372093023 485.2093023255814 L 5.953488372093023 485.2093023255814 Q 0 499.1007751937984 12.89922480620155 506.04651162790697 Q 25.7984496124031 512 33.736434108527135 499.1007751937984 L 97.24031007751938 372.09302325581393 L 97.24031007751938 372.09302325581393 Z M 351.25581395348837 372.09302325581393 Q 357.2093023255814 359.1937984496124 344.31007751937983 351.25581395348837 Q 330.4186046511628 345.30232558139534 323.47286821705427 358.2015503875969 L 259.968992248062 485.2093023255814 L 259.968992248062 485.2093023255814 Q 254.015503875969 499.1007751937984 266.91472868217056 506.04651162790697 Q 279.8139534883721 512 287.7519379844961 499.1007751937984 L 351.25581395348837 372.09302325581393 L 351.25581395348837 372.09302325581393 Z M 194.48062015503876 365.14728682170545 Q 193.48837209302326 350.26356589147287 178.6046511627907 349.27131782945736 Q 163.72093023255815 350.26356589147287 162.72868217054264 365.14728682170545 L 162.72868217054264 396.8992248062016 L 162.72868217054264 396.8992248062016 L 130.97674418604652 396.8992248062016 L 130.97674418604652 396.8992248062016 Q 116.09302325581395 397.8914728682171 115.10077519379846 412.7751937984496 Q 116.09302325581395 427.6589147286822 130.97674418604652 428.6511627906977 L 162.72868217054264 428.6511627906977 L 162.72868217054264 428.6511627906977 L 162.72868217054264 460.4031007751938 L 162.72868217054264 460.4031007751938 Q 163.72093023255815 475.28682170542635 178.6046511627907 476.27906976744185 Q 193.48837209302326 475.28682170542635 194.48062015503876 460.4031007751938 L 194.48062015503876 428.6511627906977 L 194.48062015503876 428.6511627906977 L 226.2325581395349 428.6511627906977 L 226.2325581395349 428.6511627906977 Q 241.11627906976744 427.6589147286822 242.10852713178295 412.7751937984496 Q 241.11627906976744 397.8914728682171 226.2325581395349 396.8992248062016 L 194.48062015503876 396.8992248062016 L 194.48062015503876 396.8992248062016 L 194.48062015503876 365.14728682170545 L 194.48062015503876 365.14728682170545 Z M 432.62015503875966 349.27131782945736 Q 417.73643410852713 350.26356589147287 416.74418604651163 365.14728682170545 L 416.74418604651163 396.8992248062016 L 416.74418604651163 396.8992248062016 L 384.9922480620155 396.8992248062016 L 384.9922480620155 396.8992248062016 Q 370.1085271317829 397.8914728682171 369.1162790697674 412.7751937984496 Q 370.1085271317829 427.6589147286822 384.9922480620155 428.6511627906977 L 416.74418604651163 428.6511627906977 L 416.74418604651163 428.6511627906977 L 416.74418604651163 460.4031007751938 L 416.74418604651163 460.4031007751938 Q 417.73643410852713 475.28682170542635 432.62015503875966 476.27906976744185 Q 447.50387596899225 475.28682170542635 448.49612403100775 460.4031007751938 L 448.49612403100775 428.6511627906977 L 448.49612403100775 428.6511627906977 L 480.2480620155039 428.6511627906977 L 480.2480620155039 428.6511627906977 Q 495.13178294573646 427.6589147286822 496.1240310077519 412.7751937984496 Q 495.13178294573646 397.8914728682171 480.2480620155039 396.8992248062016 L 448.49612403100775 396.8992248062016 L 448.49612403100775 396.8992248062016 L 448.49612403100775 365.14728682170545 L 448.49612403100775 365.14728682170545 Q 447.50387596899225 350.26356589147287 432.62015503875966 349.27131782945736 L 432.62015503875966 349.27131782945736 Z" />
</svg>