<svg xmlns="http://www.w3.org/2000/svg" viewBox="0 0 512 512">
  <path d="M 127.12328767123287 176.21917808219177 L 137.64383561643837 165.6986301369863 L 127.12328767123287 176.21917808219177 L 137.64383561643837 165.6986301369863 Q 129.75342465753425 172.7123287671233 128.87671232876713 174.46575342465752 Q 127.12328767123287 176.21917808219177 127.12328767123287 176.21917808219177 L 127.12328767123287 176.21917808219177 L 127.12328767123287 176.21917808219177 L 127.12328767123287 176.21917808219177 L 127.12328767123287 176.21917808219177 L 127.12328767123287 176.21917808219177 L 127.12328767123287 176.21917808219177 L 128 176.21917808219177 L 128 176.21917808219177 L 128 177.0958904109589 L 128 177.0958904109589 Q 128 177.0958904109589 128.87671232876713 177.0958904109589 Q 128.87671232876713 177.97260273972603 129.75342465753425 177.97260273972603 Q 131.5068493150685 179.72602739726028 135.8904109589041 182.35616438356163 Q 142.9041095890411 188.4931506849315 158.68493150684932 194.63013698630138 Q 189.36986301369862 210.41095890410958 256 212.16438356164383 Q 322.63013698630135 210.41095890410958 353.3150684931507 194.63013698630138 Q 368.2191780821918 188.4931506849315 376.1095890410959 182.35616438356163 Q 380.4931506849315 179.72602739726028 382.24657534246575 177.97260273972603 Q 383.1232876712329 177.0958904109589 384 177.0958904109589 L 384 176.21917808219177 L 384 176.21917808219177 L 384.8767123287671 176.21917808219177 L 384.8767123287671 176.21917808219177 L 384.8767123287671 176.21917808219177 L 384.8767123287671 176.21917808219177 L 384.8767123287671 176.21917808219177 L 384.8767123287671 176.21917808219177 L 384.8767123287671 176.21917808219177 L 384.8767123287671 176.21917808219177 Q 384.8767123287671 176.21917808219177 383.1232876712329 174.46575342465752 Q 382.24657534246575 173.58904109589042 374.35616438356163 165.6986301369863 L 384.8767123287671 176.21917808219177 L 384.8767123287671 176.21917808219177 Q 388.3835616438356 172.7123287671233 388.3835616438356 167.45205479452054 Q 389.26027397260276 156.93150684931507 389.26027397260276 146.41095890410958 Q 428.71232876712327 156.93150684931507 453.26027397260276 172.7123287671233 Q 482.1917808219178 192 480.43835616438355 206.9041095890411 Q 481.3150684931507 217.42465753424656 466.4109589041096 231.45205479452054 Q 450.63013698630135 245.4794520547945 419.94520547945206 256.8767123287671 Q 355.06849315068496 281.4246575342466 256 282.3013698630137 Q 156.93150684931507 281.4246575342466 92.05479452054794 256.8767123287671 Q 61.36986301369863 245.4794520547945 45.58904109589041 231.45205479452054 Q 30.684931506849313 217.42465753424656 31.561643835616437 206.9041095890411 Q 29.80821917808219 192 58.73972602739726 172.7123287671233 Q 83.28767123287672 156.93150684931507 122.73972602739725 146.41095890410958 Q 121.86301369863014 156.93150684931507 122.73972602739725 167.45205479452054 Q 123.61643835616438 172.7123287671233 127.12328767123287 176.21917808219177 L 127.12328767123287 176.21917808219177 Z M 129.75342465753425 115.72602739726027 Q 77.15068493150685 128 43.83561643835616 148.16438356164383 Q 26.301369863013697 159.56164383561645 14.904109589041095 173.58904109589042 Q 3.506849315068493 188.4931506849315 3.506849315068493 206.9041095890411 Q 5.260273972602739 233.2054794520548 27.17808219178082 251.6164383561644 Q 48.21917808219178 270.027397260274 82.41095890410959 283.17808219178085 Q 152.54794520547946 309.47945205479454 256 310.35616438356163 Q 359.45205479452056 309.47945205479454 429.5890410958904 283.17808219178085 Q 463.7808219178082 270.027397260274 484.82191780821915 251.6164383561644 Q 506.73972602739724 233.2054794520548 508.4931506849315 206.9041095890411 Q 508.4931506849315 188.4931506849315 497.09589041095893 173.58904109589042 Q 485.6986301369863 159.56164383561645 468.16438356164383 148.16438356164383 Q 434.8493150684931 128 382.24657534246575 115.72602739726027 Q 368.2191780821918 77.15068493150685 334.027397260274 53.47945205479452 Q 299.83561643835617 30.684931506849313 256 29.80821917808219 Q 212.16438356164383 30.684931506849313 177.97260273972603 53.47945205479452 Q 143.78082191780823 77.15068493150685 129.75342465753425 115.72602739726027 L 129.75342465753425 115.72602739726027 Z M 256 57.863013698630134 Q 301.5890410958904 58.73972602739726 331.3972602739726 86.79452054794521 L 331.3972602739726 86.79452054794521 L 331.3972602739726 86.79452054794521 Q 361.2054794520548 115.72602739726027 361.2054794520548 158.68493150684932 L 360.32876712328766 159.56164383561645 L 360.32876712328766 159.56164383561645 Q 355.06849315068496 163.06849315068493 341.9178082191781 169.2054794520548 Q 317.36986301369865 182.35616438356163 256 184.1095890410959 Q 194.63013698630138 182.35616438356163 170.08219178082192 169.2054794520548 Q 156.93150684931507 163.06849315068493 151.67123287671234 159.56164383561645 L 150.7945205479452 158.68493150684932 L 150.7945205479452 158.68493150684932 Q 150.7945205479452 115.72602739726027 180.6027397260274 86.79452054794521 Q 210.41095890410958 58.73972602739726 256 57.863013698630134 L 256 57.863013698630134 Z M 94.68493150684931 326.13698630136986 Q 82.41095890410959 320.8767123287671 75.3972602739726 331.3972602739726 L 5.260273972602739 457.64383561643837 L 5.260273972602739 457.64383561643837 Q 0 469.9178082191781 10.520547945205479 476.93150684931504 Q 22.794520547945204 482.1917808219178 29.80821917808219 471.67123287671234 L 99.94520547945206 345.4246575342466 L 99.94520547945206 345.4246575342466 Q 105.20547945205479 333.1506849315069 94.68493150684931 326.13698630136986 L 94.68493150684931 326.13698630136986 Z M 417.3150684931507 326.13698630136986 Q 406.7945205479452 333.1506849315069 412.05479452054794 345.4246575342466 L 482.1917808219178 471.67123287671234 L 482.1917808219178 471.67123287671234 Q 489.2054794520548 482.1917808219178 501.47945205479454 476.93150684931504 Q 512 469.9178082191781 506.73972602739724 457.64383561643837 L 436.6027397260274 331.3972602739726 L 436.6027397260274 331.3972602739726 Q 429.5890410958904 320.8767123287671 417.3150684931507 326.13698630136986 L 417.3150684931507 326.13698630136986 Z M 256 268.2739726027397 Q 275.28767123287673 266.52054794520546 277.041095890411 247.23287671232876 Q 275.28767123287673 227.94520547945206 256 226.1917808219178 Q 236.7123287671233 227.94520547945206 234.95890410958904 247.23287671232876 Q 236.7123287671233 266.52054794520546 256 268.2739726027397 L 256 268.2739726027397 Z M 108.71232876712328 205.15068493150685 Q 106.95890410958904 185.86301369863014 87.67123287671232 184.1095890410959 Q 68.38356164383562 185.86301369863014 66.63013698630137 205.15068493150685 Q 68.38356164383562 224.43835616438355 87.67123287671232 226.1917808219178 Q 106.95890410958904 224.43835616438355 108.71232876712328 205.15068493150685 L 108.71232876712328 205.15068493150685 Z M 424.32876712328766 226.1917808219178 Q 443.6164383561644 224.43835616438355 445.36986301369865 205.15068493150685 Q 443.6164383561644 185.86301369863014 424.32876712328766 184.1095890410959 Q 405.041095890411 185.86301369863014 403.28767123287673 205.15068493150685 Q 405.041095890411 224.43835616438355 424.32876712328766 226.1917808219178 L 424.32876712328766 226.1917808219178 Z" />
</svg>