<svg xmlns="http://www.w3.org/2000/svg" viewBox="0 0 512 522">
    <path d="M 323 489 Q 333 500 324 512 Q 313 522 301 513 L 213 433 Q 208 428 208 421 Q 208 414 213 409 L 301 329 Q 313 320 324 330 Q 333 342 323 353 L 265 405 L 336 405 Q 370 404 393 382 Q 415 359 416 325 L 416 163 Q 388 157 370 136 Q 353 115 352 85 Q 353 51 375 28 Q 398 6 432 5 Q 466 6 489 28 Q 511 51 512 85 Q 511 115 494 136 Q 476 157 448 163 L 448 325 Q 447 373 415 404 Q 384 436 336 437 L 265 437 L 323 489 L 323 489 Z M 384 85 Q 385 112 408 127 Q 432 139 456 127 Q 479 112 480 85 Q 479 58 456 43 Q 432 31 408 43 Q 385 58 384 85 L 384 85 Z M 189 33 Q 179 22 188 10 Q 199 0 211 9 L 299 89 Q 304 94 304 101 Q 304 108 299 113 L 211 193 Q 199 202 188 192 Q 179 180 189 169 L 247 117 L 176 117 Q 142 118 119 140 Q 97 163 96 197 L 96 359 Q 124 365 142 386 Q 159 407 160 437 Q 159 471 137 494 Q 114 516 80 517 Q 46 516 23 494 Q 1 471 0 437 Q 1 407 18 386 Q 36 365 64 359 L 64 197 Q 65 149 97 118 Q 128 86 176 85 L 247 85 L 189 33 L 189 33 Z M 128 437 Q 127 410 104 395 Q 80 383 56 395 Q 33 410 32 437 Q 33 464 56 479 Q 80 491 104 479 Q 127 464 128 437 L 128 437 Z"/>
</svg>
