<svg xmlns="http://www.w3.org/2000/svg" viewBox="0 0 512 512">
  <path d="M 197.37404 11.236641 Q 207.14503 0.48854962 218.87022 9.282443 L 209.09924 21.007633 L 209.09924 21.007633 Q 215.93893 12.21374 217.89313 10.2595415 Q 219.84734 8.305344 218.87022 9.282443 L 218.87022 9.282443 L 218.87022 9.282443 L 218.87022 9.282443 L 218.87022 9.282443 L 218.87022 9.282443 L 218.87022 9.282443 L 219.84734 9.282443 L 219.84734 9.282443 L 219.84734 10.2595415 L 219.84734 10.2595415 Q 220.82443 10.2595415 220.82443 10.2595415 Q 221.80153 11.236641 221.80153 11.236641 Q 224.73282 13.19084 227.66412 18.076336 Q 235.48091 25.89313 246.229 40.549618 Q 262.8397 65.9542 270.6565 107.96947 Q 299.96945 94.29008 333.19083 102.10687 Q 348.82443 106.01527 361.5267 113.83206 Q 394.74808 93.31298 434.80917 102.10687 Q 473.89313 112.854965 492.458 145.09924 Q 512 177.3435 503.20612 215.45038 L 448.48856 434.32062 L 448.48856 434.32062 Q 437.74045 473.40457 405.4962 491.96945 Q 373.25192 511.51144 335.14505 502.71756 Q 319.51144 498.80917 306.80917 490.99237 Q 298.01526 495.87787 289.22137 499.78625 Q 273.5878 505.64886 256 505.64886 Q 238.41222 505.64886 222.77863 499.78625 Q 213.98473 495.87787 205.19084 490.99237 Q 192.48856 498.80917 176.85497 502.71756 Q 137.771 511.51144 106.503815 491.96945 Q 74.259544 473.40457 63.51145 434.32062 L 8.793893 215.45038 L 8.793893 215.45038 Q 0 176.36641 19.541985 145.09924 Q 38.10687 112.854965 77.19084 102.10687 Q 117.25191 93.31298 150.47328 113.83206 Q 161.22137 106.99236 174.90076 103.08397 Q 174.90076 103.08397 175.87787 103.08397 Q 176.85497 102.10687 176.85497 102.10687 Q 177.83206 102.10687 177.83206 102.10687 Q 177.83206 102.10687 178.80916 102.10687 Q 210.07634 94.29008 238.41222 106.99236 Q 232.54962 75.72519 219.84734 58.137405 Q 211.05344 45.435116 205.19084 38.59542 Q 202.25954 35.664124 200.30534 34.687023 Q 200.30534 34.687023 200.30534 34.687023 Q 200.30534 33.709923 200.30534 33.709923 Q 199.32825 33.709923 199.32825 32.732826 L 199.32825 32.732826 L 199.32825 32.732826 Q 188.58015 22.961832 197.37404 11.236641 L 197.37404 11.236641 Z M 126.0458 136.30534 Q 106.503815 127.51145 85.00764 132.39694 Q 58.625954 139.23665 45.923664 160.73282 Q 33.221375 182.229 39.08397 208.61069 L 93.80153 427.48093 L 93.80153 427.48093 Q 100.64122 452.8855 122.137405 465.5878 Q 143.63359 478.29007 170.01527 472.4275 Q 184.67175 468.51907 195.41985 459.7252 Q 205.19084 451.9084 214.96184 459.7252 Q 223.75572 466.56488 234.50381 470.4733 L 234.50381 470.4733 L 234.50381 470.4733 Q 244.27481 474.38168 256 474.38168 L 256 474.38168 L 256 474.38168 Q 267.7252 474.38168 277.4962 470.4733 L 277.4962 470.4733 L 277.4962 470.4733 Q 288.24426 466.56488 297.03818 459.7252 Q 306.80917 451.9084 316.58014 459.7252 Q 327.32825 468.51907 341.98474 472.4275 Q 368.36642 478.29007 389.8626 465.5878 Q 411.35876 452.8855 418.1985 427.48093 L 472.91602 208.61069 L 472.91602 208.61069 Q 478.77863 182.229 466.07632 160.73282 Q 453.37405 139.23665 426.99237 132.39694 Q 395.7252 125.55725 371.2977 145.09924 Q 361.5267 152.91603 351.75574 145.09924 Q 340.03055 136.30534 325.37405 132.39694 Q 291.17557 125.55725 266.74808 148.03053 Q 256 156.82443 245.2519 148.03053 Q 220.82443 125.55725 185.64885 132.39694 L 185.64885 132.39694 L 185.64885 132.39694 Q 160.24428 139.23665 147.54199 160.73282 Q 134.83969 182.229 140.70229 208.61069 L 177.83206 355.17557 L 177.83206 355.17557 Q 179.78625 369.83206 166.10687 373.74045 Q 151.45038 376.67175 147.54199 362.99237 L 110.41222 215.45038 L 110.41222 215.45038 Q 100.64122 171.48091 126.0458 136.30534 L 126.0458 136.30534 Z M 256 505.64886 L 256 505.64886 L 256 505.64886 L 256 505.64886 L 256 490.01526 L 256 490.01526 L 256 505.64886 L 256 505.64886 L 256 505.64886 L 256 505.64886 Z" />
</svg>