<svg xmlns="http://www.w3.org/2000/svg" viewBox="0 0 576 448">
    <path d="M 512 32 Q 526 32 535 41 L 535 41 Q 544 50 544 64 L 544 384 Q 544 398 535 407 Q 526 416 512 416 L 64 416 Q 50 416 41 407 Q 32 398 32 384 L 32 64 Q 32 50 41 41 Q 50 32 64 32 L 512 32 L 512 32 Z M 64 0 Q 37 1 19 19 L 19 19 Q 1 37 0 64 L 0 384 Q 1 411 19 429 Q 37 447 64 448 L 512 448 Q 539 447 557 429 Q 575 411 576 384 L 576 64 Q 575 37 557 19 Q 539 1 512 0 L 64 0 L 64 0 Z M 304 128 Q 289 129 288 144 L 288 304 Q 289 319 304 320 Q 319 319 320 304 L 320 144 Q 319 129 304 128 L 304 128 Z M 352 144 L 352 224 L 352 304 Q 353 319 368 320 Q 383 319 384 304 L 384 240 L 448 240 Q 463 239 464 224 Q 463 209 448 208 L 384 208 L 384 160 L 464 160 Q 479 159 480 144 Q 479 129 464 128 L 368 128 Q 353 129 352 144 L 352 144 Z M 128 224 Q 129 197 147 179 L 147 179 Q 165 161 192 160 Q 214 160 230 173 Q 243 180 253 170 Q 260 157 250 147 Q 225 129 192 128 Q 151 129 124 156 Q 97 183 96 224 Q 97 265 124 292 Q 151 319 192 320 Q 225 319 250 301 Q 256 296 256 288 L 256 232 Q 255 217 240 216 L 184 216 Q 169 217 168 232 Q 169 247 184 248 L 224 248 L 224 279 Q 210 288 192 288 Q 165 287 147 269 Q 129 251 128 224 L 128 224 Z"/>
</svg>
