<svg xmlns="http://www.w3.org/2000/svg" viewBox="0 0 512 512">
  <path d="M 168.84046692607004 32.8715953307393 Q 157.88326848249028 32.8715953307393 153.8988326848249 43.82879377431907 L 143.93774319066148 81.68093385214007 L 143.93774319066148 81.68093385214007 Q 220.63813229571986 88.65369649805447 282.3968871595331 128.49805447470817 Q 344.15564202334633 167.34630350194553 383.00389105058366 229.10505836575877 Q 422.84824902723733 290.863813229572 430.8171206225681 367.56420233463035 L 467.67315175097275 357.6031128404669 L 467.67315175097275 357.6031128404669 Q 478.63035019455253 353.61867704280155 478.63035019455253 343.6575875486381 Q 472.6536964980545 258.988326848249 429.82101167315176 191.25291828793775 Q 387.98443579766536 123.51750972762646 320.2490272373541 81.68093385214007 Q 252.5136186770428 38.84824902723735 168.84046692607004 32.8715953307393 L 168.84046692607004 32.8715953307393 Z M 40.34241245136187 471.15953307392994 L 398.94163424124514 375.53307392996106 L 40.34241245136187 471.15953307392994 L 398.94163424124514 375.53307392996106 Q 388.9805447470817 267.9533073929961 316.26459143968873 195.2373540856031 Q 243.5486381322957 122.52140077821012 135.96887159533074 112.56031128404669 L 40.34241245136187 471.15953307392994 L 40.34241245136187 471.15953307392994 Z M 6.474708171206226 505.0272373540856 Q 0.4980544747081712 499.05058365758754 2.490272373540856 490.0856031128405 L 123.01945525291829 35.85992217898833 L 123.01945525291829 35.85992217898833 Q 128 19.92217898832685 139.9533073929961 9.961089494163424 Q 152.90272373540856 0 170.8326848249027 0.9961089494163424 Q 262.4747081712062 7.968871595330739 337.1828793774319 53.78988326848249 Q 410.89494163424126 100.60700389105058 457.71206225680936 174.31906614785993 Q 503.53307392996106 249.0272373540856 510.5058365758755 340.6692607003891 Q 511.50194552529183 358.59922178988325 501.5408560311284 370.55252918287937 Q 491.579766536965 383.50194552529183 475.6420233463035 388.4824902723735 L 21.41634241245136 510.0077821011673 L 21.41634241245136 510.0077821011673 Q 12.45136186770428 512 6.474708171206226 505.0272373540856 L 6.474708171206226 505.0272373540856 Z M 176.80933852140078 215.15953307392996 Q 198.72373540856032 217.15175097276264 200.715953307393 239.06614785992218 Q 198.72373540856032 260.9805447470817 176.80933852140078 262.9727626459144 Q 154.89494163424123 260.9805447470817 152.90272373540856 239.06614785992218 Q 154.89494163424123 217.15175097276264 176.80933852140078 215.15953307392996 L 176.80933852140078 215.15953307392996 Z M 248.52918287937743 334.69260700389106 Q 250.5214007782101 312.77821011673154 272.43579766536965 310.7859922178988 Q 294.35019455252916 312.77821011673154 296.3424124513619 334.69260700389106 Q 294.35019455252916 356.60700389105057 272.43579766536965 358.59922178988325 Q 250.5214007782101 356.60700389105057 248.52918287937743 334.69260700389106 L 248.52918287937743 334.69260700389106 Z M 144.93385214007782 342.66147859922177 Q 166.84824902723736 344.6536964980545 168.84046692607004 366.568093385214 Q 166.84824902723736 388.4824902723735 144.93385214007782 390.4747081712062 Q 123.01945525291829 388.4824902723735 121.0272373540856 366.568093385214 Q 123.01945525291829 344.6536964980545 144.93385214007782 342.66147859922177 L 144.93385214007782 342.66147859922177 Z" />
</svg>