<svg xmlns="http://www.w3.org/2000/svg" viewBox="0 0 448 448">
    <path d="M 385 328 Q 391 320 400 320 Q 410 320 414 328 Q 418 335 414 343 Q 383 391 334 419 Q 285 447 224 448 Q 161 447 111 417 Q 60 388 31 337 Q 1 287 0 224 Q 1 161 31 111 Q 60 60 111 31 Q 161 1 224 0 Q 310 2 371 55 L 401 24 Q 409 16 421 16 Q 432 16 440 24 Q 448 32 448 43 L 448 144 Q 447 159 432 160 L 331 160 Q 320 160 312 152 Q 304 144 304 133 Q 304 121 312 113 L 348 77 Q 296 33 224 32 Q 142 34 88 88 Q 34 142 32 224 Q 34 306 88 360 Q 142 414 224 416 Q 275 415 317 392 Q 359 368 385 328 L 385 328 Z M 416 55 L 343 128 L 416 128 L 416 55 L 416 55 Z"/>
</svg>
