<svg xmlns="http://www.w3.org/2000/svg" viewBox="0 0 512 512">
  <path d="M 480.30948 71.30367 Q 481.2998 56.448742 496.15472 55.458412 Q 511.00967 56.448742 512 71.30367 L 512 245.60155 L 512 245.60155 Q 511.00967 279.27274 489.22244 302.0503 Q 466.4449 323.83752 432.77368 324.82785 L 59.419727 324.82785 L 59.419727 324.82785 L 158.4526 424.85107 L 158.4526 424.85107 Q 168.3559 435.7447 158.4526 446.6383 Q 147.55899 456.5416 136.66537 446.6383 L 9.903288 319.87622 L 9.903288 319.87622 Q 0 308.9826 9.903288 298.089 L 136.66537 171.32689 L 136.66537 171.32689 Q 147.55899 161.4236 158.4526 171.32689 Q 168.3559 182.2205 158.4526 193.11412 L 59.419727 293.13733 L 59.419727 293.13733 L 432.77368 293.13733 L 432.77368 293.13733 Q 452.58026 292.147 466.4449 279.27274 Q 479.31915 265.4081 480.30948 245.60155 L 480.30948 71.30367 L 480.30948 71.30367 Z" />
</svg>