<svg xmlns="http://www.w3.org/2000/svg" viewBox="0 0 576 384">
    <path d="M 320 32 Q 334 32 343 41 L 343 41 Q 352 50 352 64 L 352 320 Q 352 334 343 343 Q 334 352 320 352 L 64 352 Q 50 352 41 343 Q 32 334 32 320 L 32 64 Q 32 50 41 41 Q 50 32 64 32 L 320 32 L 320 32 Z M 64 0 Q 37 1 19 19 L 19 19 Q 1 37 0 64 L 0 320 Q 1 347 19 365 Q 37 383 64 384 L 320 384 Q 347 383 365 365 Q 383 347 384 320 L 384 273 L 384 111 L 384 64 Q 383 37 365 19 Q 347 1 320 0 L 64 0 L 64 0 Z M 416 290 L 519 347 Q 528 352 538 352 Q 554 352 565 341 Q 576 330 576 314 L 576 70 Q 576 54 565 43 Q 554 32 538 32 Q 528 32 519 37 L 416 94 L 416 130 L 535 65 Q 536 64 538 64 Q 543 64 544 70 L 544 314 Q 543 319 538 320 Q 536 320 535 319 L 416 254 L 416 290 L 416 290 Z M 208 112 Q 207 97 192 96 Q 177 97 176 112 L 176 176 L 112 176 Q 97 177 96 192 Q 97 207 112 208 L 176 208 L 176 272 Q 177 287 192 288 Q 207 287 208 272 L 208 208 L 272 208 Q 287 207 288 192 Q 287 177 272 176 L 208 176 L 208 112 L 208 112 Z"/>
</svg>
