<svg xmlns="http://www.w3.org/2000/svg" viewBox="0 0 448 452">
    <path d="M 208 22 Q 210 7 196 2 Q 181 0 176 14 L 153 114 L 48 114 Q 33 115 32 130 Q 33 145 48 146 L 146 146 L 109 306 L 16 306 Q 1 307 0 322 Q 1 337 16 338 L 102 338 L 80 430 Q 78 445 92 450 Q 107 452 112 438 L 135 338 L 262 338 L 240 430 Q 238 445 252 450 Q 267 452 272 438 L 295 338 L 400 338 Q 415 337 416 322 Q 415 307 400 306 L 302 306 L 339 146 L 432 146 Q 447 145 448 130 Q 447 115 432 114 L 346 114 L 368 22 Q 370 7 356 2 Q 341 0 336 14 L 313 114 L 186 114 L 208 22 L 208 22 Z M 179 146 L 306 146 L 269 306 L 142 306 L 179 146 L 179 146 Z"/>
</svg>
