<svg xmlns="http://www.w3.org/2000/svg" viewBox="0 0 512 512">
  <path d="M 480 256 Q 479 195 450 144 L 450 144 L 450 144 Q 420 93 368 62 Q 315 32 256 32 Q 197 32 144 62 Q 92 93 62 144 Q 33 195 32 256 Q 33 317 62 368 Q 92 419 144 450 Q 197 480 256 480 Q 315 480 368 450 Q 420 419 450 368 Q 479 317 480 256 L 480 256 Z M 0 256 Q 1 186 34 128 L 34 128 L 34 128 Q 68 70 128 34 Q 189 0 256 0 Q 323 0 384 34 Q 444 70 478 128 Q 511 186 512 256 Q 511 326 478 384 Q 444 442 384 478 Q 323 512 256 512 Q 189 512 128 478 Q 68 442 34 384 Q 1 326 0 256 L 0 256 Z M 260 144 Q 244 144 234 155 L 234 155 L 234 155 Q 224 165 223 181 L 224 224 L 224 224 L 272 224 L 272 224 Q 287 225 288 240 Q 287 255 272 256 L 224 256 L 224 256 Q 222 290 206 320 L 328 320 L 328 320 Q 343 321 344 336 Q 343 351 328 352 L 176 352 L 176 352 Q 167 352 162 344 Q 158 335 163 327 L 172 314 L 172 314 Q 190 287 192 256 L 176 256 L 176 256 Q 161 255 160 240 Q 161 225 176 224 L 192 224 L 192 224 L 191 181 L 191 181 Q 192 152 211 132 Q 230 113 260 112 Q 276 112 290 119 L 311 130 L 311 130 Q 324 138 318 151 Q 311 164 297 158 L 276 148 L 276 148 Q 268 144 260 144 L 260 144 Z" />
</svg>