<svg xmlns="http://www.w3.org/2000/svg" viewBox="0 0 512 512">
  <path d="M 0 16 Q 1 1 16 0 Q 31 1 32 16 L 32 496 L 32 496 Q 31 511 16 512 Q 1 511 0 496 L 0 16 L 0 16 Z M 160 176 Q 161 191 176 192 L 464 192 L 464 192 Q 479 191 480 176 L 480 112 L 480 112 Q 479 97 464 96 L 176 96 L 176 96 Q 161 97 160 112 L 160 176 L 160 176 Z M 128 112 Q 129 92 142 78 L 142 78 L 142 78 Q 156 65 176 64 L 464 64 L 464 64 Q 484 65 498 78 Q 511 92 512 112 L 512 176 L 512 176 Q 511 196 498 210 Q 484 223 464 224 L 176 224 L 176 224 Q 156 223 142 210 Q 129 196 128 176 L 128 112 L 128 112 Z M 160 400 Q 161 415 176 416 L 336 416 L 336 416 Q 351 415 352 400 L 352 336 L 352 336 Q 351 321 336 320 L 176 320 L 176 320 Q 161 321 160 336 L 160 400 L 160 400 Z M 128 336 Q 129 316 142 302 L 142 302 L 142 302 Q 156 289 176 288 L 336 288 L 336 288 Q 356 289 370 302 Q 383 316 384 336 L 384 400 L 384 400 Q 383 420 370 434 Q 356 447 336 448 L 176 448 L 176 448 Q 156 447 142 434 Q 129 420 128 400 L 128 336 L 128 336 Z" />
</svg>