<svg xmlns="http://www.w3.org/2000/svg" viewBox="0 0 512 512">
  <path d="M 384 128 L 384 281.6 L 384 128 L 384 281.6 L 358.4 281.6 L 358.4 281.6 L 358.4 128 L 358.4 128 L 102.4 128 L 102.4 128 Q 91.2 128 84 135.2 Q 76.8 142.4 76.8 153.6 L 76.8 281.6 L 76.8 281.6 L 51.2 281.6 L 51.2 281.6 L 51.2 153.6 L 51.2 153.6 Q 52 132 66.4 117.6 Q 80.8 103.2 102.4 102.4 L 358.4 102.4 L 409.6 102.4 Q 431.2 103.2 445.6 117.6 Q 460 132 460.8 153.6 L 460.8 281.6 L 460.8 281.6 L 435.2 281.6 L 435.2 281.6 L 435.2 153.6 L 435.2 153.6 Q 435.2 142.4 428 135.2 Q 420.8 128 409.6 128 L 384 128 L 384 128 Z M 0 320 Q 0.8 308 12.8 307.2 L 25.6 307.2 L 499.2 307.2 Q 511.2 308 512 320 Q 511.2 332 499.2 332.8 L 486.4 332.8 L 486.4 332.8 L 486.4 371.2 L 486.4 371.2 Q 485.6 387.2 475.2 398.4 Q 464 408.8 448 409.6 L 64 409.6 L 64 409.6 Q 48 408.8 36.8 398.4 Q 26.4 387.2 25.6 371.2 L 25.6 332.8 L 25.6 332.8 L 12.8 332.8 L 12.8 332.8 Q 0.8 332 0 320 L 0 320 Z M 51.2 332.8 L 51.2 371.2 L 51.2 332.8 L 51.2 371.2 Q 52 383.2 64 384 L 448 384 L 448 384 Q 460 383.2 460.8 371.2 L 460.8 332.8 L 460.8 332.8 L 51.2 332.8 L 51.2 332.8 Z" />
</svg>