<svg xmlns="http://www.w3.org/2000/svg" viewBox="0 0 512 512">
  <path d="M 464.8869179600887 36.328159645232816 Q 472.83370288248335 37.46341463414634 473.9689578713969 45.41019955654102 L 473.9689578713969 72.65631929046563 L 473.9689578713969 72.65631929046563 Q 471.69844789356983 165.74722838137473 410.39467849223945 227.0509977827051 Q 349.09090909090907 288.3547671840355 256 290.6252771618625 Q 162.9090909090909 288.3547671840355 101.60532150776054 227.0509977827051 Q 40.30155210643016 165.74722838137473 38.031042128603104 72.65631929046563 L 38.031042128603104 45.41019955654102 L 38.031042128603104 45.41019955654102 Q 39.16629711751663 37.46341463414634 47.113082039911305 36.328159645232816 L 464.8869179600887 36.328159645232816 L 464.8869179600887 36.328159645232816 Z M 47.113082039911305 0 Q 27.813747228381374 0 15.325942350332594 13.623059866962306 L 15.325942350332594 13.623059866962306 L 15.325942350332594 13.623059866962306 Q 1.7028824833702882 26.110864745011085 1.7028824833702882 45.41019955654102 L 1.7028824833702882 72.65631929046563 L 1.7028824833702882 72.65631929046563 Q 2.838137472283814 152.12416851441242 44.84257206208426 214.56319290465632 Q 86.8470066518847 275.8669623059867 156.09756097560975 306.51884700665187 L 128.85144124168514 365.5521064301552 L 128.85144124168514 365.5521064301552 Q 119.76940133037694 363.2815964523282 110.68736141906874 363.2815964523282 Q 80.03547671840354 364.4168514412417 59.60088691796009 384.85144124168517 Q 39.16629711751663 405.2860310421286 38.031042128603104 435.9379157427938 Q 39.16629711751663 466.58980044345896 59.60088691796009 487.0243902439024 Q 80.03547671840354 507.4589800443459 110.68736141906874 508.59423503325945 Q 141.33924611973393 507.4589800443459 161.7738359201774 487.0243902439024 Q 182.20842572062085 466.58980044345896 183.34368070953437 435.9379157427938 L 375.20177383592016 435.9379157427938 L 375.20177383592016 435.9379157427938 L 402.4478935698448 498.3769401330377 L 402.4478935698448 498.3769401330377 Q 411.52993348115297 512 427.42350332594236 507.4589800443459 Q 441.04656319290467 498.3769401330377 436.50554323725055 482.48337028824835 L 355.9024390243902 306.51884700665187 L 355.9024390243902 306.51884700665187 Q 425.1529933481153 275.8669623059867 467.15742793791577 214.56319290465632 Q 509.1618625277162 152.12416851441242 510.2971175166297 72.65631929046563 L 510.2971175166297 45.41019955654102 L 510.2971175166297 45.41019955654102 Q 510.2971175166297 26.110864745011085 496.6740576496674 13.623059866962306 Q 484.1862527716186 0 464.8869179600887 0 L 47.113082039911305 0 L 47.113082039911305 0 Z M 160.63858093126385 383.7161862527716 L 191.29046563192904 319.00665188470066 L 160.63858093126385 383.7161862527716 L 191.29046563192904 319.00665188470066 Q 221.94235033259423 326.95343680709533 256 326.95343680709533 Q 290.05764966740577 326.95343680709533 321.8447893569845 319.00665188470066 L 358.1729490022173 399.609756097561 L 358.1729490022173 399.609756097561 L 173.12638580931264 399.609756097561 L 173.12638580931264 399.609756097561 Q 168.58536585365854 390.52771618625275 160.63858093126385 383.7161862527716 L 160.63858093126385 383.7161862527716 Z M 110.68736141906874 472.2660753880266 Q 94.79379157427938 472.2660753880266 84.57649667405765 462.0487804878049 L 84.57649667405765 462.0487804878049 L 84.57649667405765 462.0487804878049 Q 74.35920177383592 451.83148558758313 74.35920177383592 435.9379157427938 Q 74.35920177383592 420.04434589800445 84.57649667405765 409.8270509977827 Q 94.79379157427938 399.609756097561 110.68736141906874 399.609756097561 Q 126.58093126385809 399.609756097561 136.79822616407984 409.8270509977827 Q 147.01552106430154 420.04434589800445 147.01552106430154 435.9379157427938 Q 147.01552106430154 451.83148558758313 136.79822616407984 462.0487804878049 Q 126.58093126385809 472.2660753880266 110.68736141906874 472.2660753880266 L 110.68736141906874 472.2660753880266 Z" />
</svg>