<svg xmlns="http://www.w3.org/2000/svg" viewBox="0 0 645 512">
    <path d="M 341 80 Q 340 107 317 122 Q 293 134 269 122 Q 246 107 245 80 Q 246 53 269 38 Q 293 26 317 38 Q 340 53 341 80 L 341 80 Z M 293 0 Q 259 1 236 23 L 236 23 Q 214 46 213 80 Q 214 110 231 131 Q 249 152 277 158 Q 277 159 277 160 L 277 192 L 213 192 Q 198 193 197 208 Q 198 223 213 224 L 277 224 L 277 480 L 245 480 Q 184 478 143 438 Q 103 397 101 336 L 101 311 L 138 347 Q 149 357 160 347 Q 170 336 160 325 L 96 261 Q 85 251 74 261 L 10 325 Q 0 336 10 347 Q 21 357 32 347 L 69 311 L 69 336 Q 71 411 121 460 Q 170 510 245 512 L 293 512 L 341 512 Q 367 512 391 505 Q 376 493 364 478 Q 353 480 341 480 L 309 480 L 309 224 L 373 224 Q 388 223 389 208 Q 388 193 373 192 L 309 192 L 309 160 Q 309 159 309 158 Q 337 152 355 131 Q 372 110 373 80 Q 372 46 350 23 Q 327 1 293 0 L 293 0 Z M 389 368 Q 389 338 404 312 L 404 312 Q 419 286 445 271 Q 471 256 501 256 Q 531 256 557 271 Q 583 286 598 312 Q 613 338 613 368 Q 613 398 598 424 Q 583 450 557 465 Q 531 480 501 480 Q 471 480 445 465 Q 419 450 404 424 Q 389 398 389 368 L 389 368 Z M 645 368 Q 645 329 626 296 L 626 296 Q 607 263 573 243 Q 539 224 501 224 Q 463 224 429 243 Q 395 263 376 296 Q 357 329 357 368 Q 357 407 376 440 Q 395 473 429 493 Q 463 512 501 512 Q 539 512 573 493 Q 607 473 626 440 Q 645 407 645 368 L 645 368 Z M 501 448 Q 523 446 525 424 Q 523 402 501 400 Q 479 402 477 424 Q 479 446 501 448 L 501 448 Z M 501 288 Q 486 289 485 304 L 485 368 Q 486 383 501 384 Q 516 383 517 368 L 517 304 Q 516 289 501 288 L 501 288 Z"/>
</svg>
