<svg xmlns="http://www.w3.org/2000/svg" viewBox="0 0 512 512">
  <path d="M 422.0272 135.20776 L 432.9631 143.16116 L 422.0272 135.20776 L 432.9631 143.16116 L 442.90485 153.1029 L 442.90485 153.1029 Q 477.70096 188.8932 478.69516 241.58447 Q 478.69516 245.56117 478.69516 250.53204 Q 461.7942 226.67184 431.96893 225.67767 L 367.34756 225.67767 L 367.34756 225.67767 L 367.34756 154.09709 L 367.34756 154.09709 Q 366.3534 130.2369 350.4466 114.33009 L 351.44077 114.33009 L 351.44077 114.33009 Q 391.20776 115.32427 422.0272 135.20776 L 422.0272 135.20776 Z M 510.50873 241.58447 Q 508.5204 174.97476 465.77087 131.23106 L 464.7767 130.2369 L 464.7767 130.2369 Q 467.75922 125.26602 469.74756 120.29514 Q 483.66602 81.52233 471.73593 40.761166 Q 470.74176 34.796116 467.75922 28.831068 L 461.7942 12.924272 L 461.7942 12.924272 L 461.7942 12.924272 L 461.7942 12.924272 L 461.7942 12.924272 L 461.7942 12.924272 Q 454.83496 0 440.9165 3.976699 Q 427.99222 10.935923 431.96893 24.854368 L 431.96893 24.854368 L 431.96893 24.854368 L 438.92816 40.761166 L 438.92816 40.761166 Q 441.91068 50.70291 443.89902 60.64466 Q 444.89322 67.60388 445.8874 75.55728 Q 445.8874 93.45243 439.92233 109.35922 Q 426.00388 100.41165 411.09125 94.4466 Q 383.25436 82.5165 351.44077 82.5165 Q 314.6563 82.5165 283.83688 97.42912 Q 269.91846 105.38252 273.89514 117.31262 Q 277.87186 129.24272 294.77283 130.2369 L 311.6738 130.2369 L 311.6738 130.2369 Q 333.54562 132.22525 335.53397 154.09709 L 335.53397 233.63107 L 335.53397 233.63107 Q 337.52234 255.50291 359.39417 257.49127 L 431.96893 257.49127 L 431.96893 257.49127 Q 446.88156 258.48544 453.8408 270.41553 L 464.7767 294.27573 L 464.7767 294.27573 Q 472.7301 306.2058 484.6602 306.2058 Q 496.5903 307.2 501.56116 294.27573 Q 510.50873 269.42136 510.50873 241.58447 L 510.50873 241.58447 Z M 261.96506 162.05049 L 172.48932 307.2 L 261.96506 162.05049 L 172.48932 307.2 Q 144.65242 351.93787 91.96117 364.86212 L 57.165047 372.81552 L 57.165047 372.81552 Q 32.31068 378.78058 17.398058 397.6699 Q 1.4912621 415.56506 1.4912621 441.4136 Q 2.485437 471.23883 22.368933 491.12234 Q 42.252426 511.00583 72.07767 512 L 103.891266 512 L 103.891266 512 Q 210.26796 511.00583 300.73785 464.2796 Q 390.2136 418.54758 450.85825 337.02524 L 434.95145 304.21747 L 434.95145 304.21747 Q 379.27768 385.7398 292.78445 432.46603 Q 207.28543 479.19223 103.891266 480.1864 L 72.07767 480.1864 L 72.07767 480.1864 Q 55.1767 480.1864 44.240776 469.2505 Q 33.304855 458.31458 33.304855 441.4136 Q 35.293205 411.58835 64.124275 403.63495 L 98.92039 395.68155 L 98.92039 395.68155 Q 163.54175 379.77475 200.32622 323.10678 L 298.7495 162.05049 L 298.7495 162.05049 L 261.96506 162.05049 L 261.96506 162.05049 Z" />
</svg>