<svg xmlns="http://www.w3.org/2000/svg" viewBox="0 0 512 512">
  <path d="M 444.52713178294573 368.1240310077519 L 444.52713178294573 222.26356589147287 L 444.52713178294573 368.1240310077519 L 444.52713178294573 222.26356589147287 Q 443.5348837209302 207.3798449612403 428.6511627906977 206.3875968992248 Q 427.6589147286822 206.3875968992248 425.6744186046512 206.3875968992248 Q 425.6744186046512 206.3875968992248 425.6744186046512 206.3875968992248 Q 417.73643410852713 171.65891472868216 389.95348837209303 149.8294573643411 Q 363.16279069767444 128 325.4573643410853 127.0077519379845 Q 281.7984496124031 128 252.03100775193798 156.7751937984496 Q 223.25581395348837 186.54263565891472 222.26356589147287 230.2015503875969 Q 223.25581395348837 273.86046511627904 252.03100775193798 303.6279069767442 Q 281.7984496124031 332.4031007751938 325.4573643410853 333.3953488372093 Q 353.2403100775194 333.3953488372093 376.06201550387595 320.49612403100775 Q 398.8837209302326 307.5968992248062 412.7751937984496 285.7674418604651 L 412.7751937984496 390.94573643410854 L 412.7751937984496 390.94573643410854 Q 412.7751937984496 399.8759689922481 413.7674418604651 408.8062015503876 Q 383.0077519379845 439.5658914728682 342.3255813953488 458.4186046511628 Q 301.6434108527132 476.27906976744185 254.015503875969 476.27906976744185 Q 191.50387596899225 475.28682170542635 141.89147286821705 445.51937984496124 Q 91.28682170542636 416.74418604651163 62.51162790697674 366.13953488372096 Q 32.74418604651163 316.52713178294573 31.751937984496124 254.015503875969 Q 32.74418604651163 191.50387596899225 62.51162790697674 141.89147286821705 Q 91.28682170542636 91.28682170542636 141.89147286821705 62.51162790697674 Q 191.50387596899225 32.74418604651163 254.015503875969 31.751937984496124 Q 316.52713178294573 32.74418604651163 366.13953488372096 62.51162790697674 Q 416.74418604651163 91.28682170542636 445.51937984496124 141.89147286821705 Q 475.28682170542635 191.50387596899225 476.27906976744185 254.015503875969 Q 475.28682170542635 317.51937984496124 444.52713178294573 368.1240310077519 L 444.52713178294573 368.1240310077519 Z M 448.49612403100775 417.73643410852713 Q 506.04651162790697 349.27131782945736 508.031007751938 254.015503875969 Q 507.0387596899225 182.57364341085272 473.30232558139534 126.01550387596899 Q 439.5658914728682 68.46511627906976 382.015503875969 34.72868217054263 Q 325.4573643410853 0.9922480620155039 254.015503875969 0 Q 182.57364341085272 0.9922480620155039 126.01550387596899 34.72868217054263 Q 68.46511627906976 68.46511627906976 34.72868217054263 126.01550387596899 Q 0.9922480620155039 182.57364341085272 0 254.015503875969 Q 0.9922480620155039 325.4573643410853 34.72868217054263 382.015503875969 Q 68.46511627906976 439.5658914728682 126.01550387596899 473.30232558139534 Q 182.57364341085272 507.0387596899225 254.015503875969 508.031007751938 Q 354.2325581395349 506.04651162790697 423.68992248062017 442.5426356589147 Q 439.5658914728682 477.27131782945736 472.31007751937983 498.1085271317829 L 484.2170542635659 506.04651162790697 L 484.2170542635659 506.04651162790697 Q 497.1162790697674 512 506.04651162790697 500.09302325581393 Q 512 487.1937984496124 500.09302325581393 478.26356589147287 L 489.1782945736434 471.3178294573643 L 489.1782945736434 471.3178294573643 Q 458.4186046511628 451.47286821705427 448.49612403100775 417.73643410852713 L 448.49612403100775 417.73643410852713 Z M 174.63565891472868 182.57364341085272 Q 172.65116279069767 160.74418604651163 150.8217054263566 158.75968992248062 Q 128.9922480620155 160.74418604651163 127.0077519379845 182.57364341085272 Q 128.9922480620155 204.4031007751938 150.8217054263566 206.3875968992248 Q 172.65116279069767 204.4031007751938 174.63565891472868 182.57364341085272 L 174.63565891472868 182.57364341085272 Z M 309.5813953488372 238.13953488372093 Q 331.4108527131783 236.15503875968992 333.3953488372093 214.32558139534885 Q 331.4108527131783 192.49612403100775 309.5813953488372 190.51162790697674 Q 287.7519379844961 192.49612403100775 285.7674418604651 214.32558139534885 Q 287.7519379844961 236.15503875968992 309.5813953488372 238.13953488372093 L 309.5813953488372 238.13953488372093 Z M 325.4573643410853 158.75968992248062 Q 366.13953488372096 159.75193798449612 386.9767441860465 194.48062015503876 Q 406.8217054263566 230.2015503875969 386.9767441860465 265.92248062015506 Q 366.13953488372096 300.6511627906977 325.4573643410853 301.6434108527132 Q 284.7751937984496 300.6511627906977 263.93798449612405 265.92248062015506 Q 244.09302325581396 230.2015503875969 263.93798449612405 194.48062015503876 Q 284.7751937984496 159.75193798449612 325.4573643410853 158.75968992248062 L 325.4573643410853 158.75968992248062 Z M 158.75968992248062 349.27131782945736 Q 159.75193798449612 364.15503875968994 174.63565891472868 365.14728682170545 Q 198.4496124031008 364.15503875968994 235.1627906976744 377.05426356589146 Q 269.8914728682171 388.9612403100775 287.7519379844961 419.72093023255815 Q 295.68992248062017 432.62015503875966 308.5891472868217 426.6666666666667 Q 321.48837209302326 419.72093023255815 315.5348837209302 405.82945736434107 Q 303.6279069767442 383.0077519379845 285.7674418604651 369.1162790697674 Q 266.91472868217056 354.2325581395349 246.07751937984497 347.28682170542635 Q 203.4108527131783 332.4031007751938 174.63565891472868 333.3953488372093 Q 159.75193798449612 334.38759689922483 158.75968992248062 349.27131782945736 L 158.75968992248062 349.27131782945736 Z M 302.6356589147287 105.17829457364341 Q 315.5348837209302 95.25581395348837 330.4186046511628 95.25581395348837 Q 344.31007751937983 95.25581395348837 356.2170542635659 103.1937984496124 L 364.15503875968994 108.15503875968992 L 364.15503875968994 108.15503875968992 Q 377.05426356589146 115.10077519379846 385.984496124031 104.18604651162791 Q 392.93023255813955 91.28682170542636 382.015503875969 82.35658914728683 L 373.08527131782944 76.40310077519379 L 373.08527131782944 76.40310077519379 Q 354.2325581395349 63.50387596899225 331.4108527131783 63.50387596899225 Q 304.62015503875966 63.50387596899225 282.7906976744186 80.37209302325581 L 259.968992248062 99.2248062015504 L 259.968992248062 99.2248062015504 Q 249.05426356589146 109.14728682170542 257.984496124031 121.05426356589147 Q 267.90697674418607 131.96899224806202 279.8139534883721 124.03100775193798 L 302.6356589147287 105.17829457364341 L 302.6356589147287 105.17829457364341 Z" />
</svg>