<svg xmlns="http://www.w3.org/2000/svg" viewBox="0 0 512 512">
  <path d="M 153.99612 9.903288 Q 143.10251 0 132.2089 9.903288 Q 122.30561 20.796906 131.21857 31.690523 Q 153.99612 54.468086 183.706 68.33269 Q 137.16054 90.11992 110.42166 131.71373 Q 82.69246 173.30754 81.702126 226.7853 Q 83.682785 296.1083 127.257256 344.63443 Q 171.82205 393.16055 240.15474 400.09283 L 240.15474 432.77368 L 240.15474 432.77368 L 192.61896 432.77368 L 192.61896 432.77368 Q 177.76402 433.76404 176.7737 448.61896 Q 177.76402 463.47388 192.61896 464.4642 L 240.15474 464.4642 L 240.15474 464.4642 L 240.15474 496.15472 L 240.15474 496.15472 Q 241.14507 511.00967 256 512 Q 270.85492 511.00967 271.84528 496.15472 L 271.84528 464.4642 L 271.84528 464.4642 L 319.38104 464.4642 L 319.38104 464.4642 Q 334.23596 463.47388 335.22632 448.61896 Q 334.23596 433.76404 319.38104 432.77368 L 271.84528 432.77368 L 271.84528 432.77368 L 271.84528 400.09283 L 271.84528 400.09283 Q 340.17795 393.16055 384.74274 344.63443 Q 428.3172 296.1083 430.29788 226.7853 Q 429.30756 173.30754 401.57834 131.71373 Q 374.83945 90.11992 328.294 68.33269 Q 358.00388 54.468086 380.78143 31.690523 Q 389.6944 20.796906 379.7911 9.903288 Q 368.8975 0 358.00388 9.903288 Q 317.4004 50.50677 256 52.487427 Q 194.59961 50.50677 153.99612 9.903288 L 153.99612 9.903288 Z M 256 84.17795 Q 294.62283 84.17795 327.30368 102.994194 L 327.30368 102.994194 L 327.30368 102.994194 Q 359.98453 121.81045 379.7911 155.48163 Q 398.60736 189.1528 398.60736 226.7853 Q 398.60736 264.4178 379.7911 298.089 Q 359.98453 331.76016 327.30368 350.57642 Q 294.62283 369.39264 256 369.39264 Q 217.37718 369.39264 184.69632 350.57642 Q 152.01547 331.76016 132.2089 298.089 Q 113.39265 264.4178 113.39265 226.7853 Q 113.39265 189.1528 132.2089 155.48163 Q 152.01547 121.81045 184.69632 102.994194 Q 217.37718 84.17795 256 84.17795 L 256 84.17795 Z" />
</svg>