<svg xmlns="http://www.w3.org/2000/svg" viewBox="0 0 384 512">
    <path d="M 320 480 L 64 480 Q 50 480 41 471 Q 32 462 32 448 L 32 64 Q 32 50 41 41 Q 50 32 64 32 L 192 32 L 192 144 Q 193 164 206 178 Q 220 191 240 192 L 352 192 L 352 448 Q 352 462 343 471 Q 334 480 320 480 L 320 480 Z M 240 160 Q 225 159 224 144 L 224 33 Q 228 34 231 37 L 347 153 Q 350 156 352 160 L 240 160 L 240 160 Z M 64 0 Q 37 1 19 19 L 19 19 Q 1 37 0 64 L 0 448 Q 1 475 19 493 Q 37 511 64 512 L 320 512 Q 347 511 365 493 Q 383 475 384 448 L 384 164 Q 384 144 370 130 L 254 14 Q 240 0 220 0 L 64 0 L 64 0 Z M 208 240 Q 207 225 192 224 Q 177 225 176 240 L 176 432 Q 177 447 192 448 Q 207 447 208 432 L 208 240 L 208 240 Z M 304 304 Q 303 289 288 288 Q 273 289 272 304 L 272 432 Q 273 447 288 448 Q 303 447 304 432 L 304 304 L 304 304 Z M 112 368 Q 111 353 96 352 Q 81 353 80 368 L 80 432 Q 81 447 96 448 Q 111 447 112 432 L 112 368 L 112 368 Z"/>
</svg>
