<svg xmlns="http://www.w3.org/2000/svg" viewBox="0 0 640 512">
    <path d="M 320 47 Q 344 41 369 37 L 369 37 Q 395 32 416 32 Q 449 32 484 40 Q 520 48 550 63 Q 610 95 608 128 Q 609 157 562 176 Q 537 185 511 189 Q 484 192 464 192 Q 435 192 415 184 Q 396 176 376 164 L 375 164 Q 375 164 375 164 Q 358 154 337 144 Q 316 135 288 130 L 288 56 Q 301 52 320 47 L 320 47 Z M 256 160 Q 291 161 316 170 L 316 170 Q 340 180 360 192 Q 380 205 405 214 Q 429 224 464 224 Q 494 224 535 217 Q 576 209 607 188 Q 638 168 640 128 Q 639 88 603 59 Q 568 31 517 15 Q 465 0 416 0 Q 383 1 346 8 Q 309 16 283 24 Q 257 31 256 32 L 256 128 L 256 160 L 256 160 L 256 160 Z M 192 128 Q 178 128 169 119 L 169 119 Q 160 110 160 96 Q 160 82 169 73 Q 178 64 192 64 L 224 64 L 224 32 L 192 32 Q 165 33 147 51 Q 129 69 128 96 Q 129 123 147 141 Q 165 159 192 160 L 224 160 L 224 128 L 192 128 L 192 128 Z M 192 465 Q 174 460 160 456 L 160 382 Q 188 377 209 368 Q 230 358 247 348 L 248 348 Q 268 336 287 328 Q 307 320 336 320 Q 356 320 383 323 Q 409 327 434 336 Q 482 355 480 384 Q 482 417 422 449 Q 392 464 356 472 Q 321 480 288 480 Q 267 480 241 475 Q 216 471 192 465 L 192 465 Z M 128 352 L 128 352 L 128 384 L 128 480 Q 129 481 155 488 Q 181 496 218 504 Q 255 511 288 512 Q 337 512 389 497 Q 440 481 475 453 Q 511 424 512 384 Q 510 344 479 324 Q 448 303 407 295 Q 366 288 336 288 Q 301 289 277 298 Q 252 308 232 320 Q 212 333 188 342 Q 163 352 128 352 L 128 352 Z M 64 384 L 96 384 L 96 352 L 64 352 Q 37 353 19 371 Q 1 389 0 416 Q 1 443 19 461 Q 37 479 64 480 L 96 480 L 96 448 L 64 448 Q 50 448 41 439 Q 32 430 32 416 Q 32 402 41 393 Q 50 384 64 384 L 64 384 Z"/>
</svg>
