<svg xmlns="http://www.w3.org/2000/svg" viewBox="0 0 512 512">
  <path d="M 56.888888888888886 426.6666666666667 L 455.1111111111111 426.6666666666667 L 56.888888888888886 426.6666666666667 L 455.1111111111111 426.6666666666667 Q 467.55555555555554 426.6666666666667 475.55555555555554 418.6666666666667 Q 483.55555555555554 410.6666666666667 483.55555555555554 398.22222222222223 L 483.55555555555554 358.22222222222223 L 483.55555555555554 358.22222222222223 Q 483.55555555555554 350.22222222222223 479.1111111111111 343.1111111111111 L 478.22222222222223 341.3333333333333 L 478.22222222222223 341.3333333333333 L 34.666666666666664 341.3333333333333 L 34.666666666666664 341.3333333333333 L 32.888888888888886 343.1111111111111 L 32.888888888888886 343.1111111111111 Q 28.444444444444443 350.22222222222223 28.444444444444443 358.22222222222223 L 28.444444444444443 398.22222222222223 L 28.444444444444443 398.22222222222223 Q 28.444444444444443 410.6666666666667 36.44444444444444 418.6666666666667 Q 44.44444444444444 426.6666666666667 56.888888888888886 426.6666666666667 L 56.888888888888886 426.6666666666667 Z M 458.6666666666667 312.8888888888889 L 433.77777777777777 275.55555555555554 L 458.6666666666667 312.8888888888889 L 433.77777777777777 275.55555555555554 Q 426.6666666666667 264.8888888888889 426.6666666666667 251.55555555555554 L 426.6666666666667 113.77777777777777 L 426.6666666666667 113.77777777777777 Q 426.6666666666667 101.33333333333333 418.6666666666667 93.33333333333333 Q 410.6666666666667 85.33333333333333 398.22222222222223 85.33333333333333 L 113.77777777777777 85.33333333333333 L 113.77777777777777 85.33333333333333 Q 101.33333333333333 85.33333333333333 93.33333333333333 93.33333333333333 Q 85.33333333333333 101.33333333333333 85.33333333333333 113.77777777777777 L 85.33333333333333 251.55555555555554 L 85.33333333333333 251.55555555555554 Q 85.33333333333333 264.8888888888889 78.22222222222223 275.55555555555554 L 53.333333333333336 312.8888888888889 L 53.333333333333336 312.8888888888889 L 458.6666666666667 312.8888888888889 L 458.6666666666667 312.8888888888889 Z M 455.1111111111111 455.1111111111111 L 56.888888888888886 455.1111111111111 L 455.1111111111111 455.1111111111111 L 56.888888888888886 455.1111111111111 Q 32.888888888888886 454.22222222222223 16.88888888888889 438.22222222222223 Q 0.8888888888888888 422.22222222222223 0 398.22222222222223 L 0 358.22222222222223 L 0 358.22222222222223 Q 0 341.3333333333333 9.777777777777779 327.1111111111111 L 54.22222222222222 259.55555555555554 L 54.22222222222222 259.55555555555554 Q 56.888888888888886 256 56.888888888888886 251.55555555555554 L 56.888888888888886 113.77777777777777 L 56.888888888888886 113.77777777777777 Q 57.77777777777778 89.77777777777777 73.77777777777777 73.77777777777777 Q 89.77777777777777 57.77777777777778 113.77777777777777 56.888888888888886 L 398.22222222222223 56.888888888888886 L 398.22222222222223 56.888888888888886 Q 422.22222222222223 57.77777777777778 438.22222222222223 73.77777777777777 Q 454.22222222222223 89.77777777777777 455.1111111111111 113.77777777777777 L 455.1111111111111 251.55555555555554 L 455.1111111111111 251.55555555555554 Q 455.1111111111111 256 457.77777777777777 259.55555555555554 L 502.22222222222223 327.1111111111111 L 502.22222222222223 327.1111111111111 Q 512 341.3333333333333 512 358.22222222222223 L 512 398.22222222222223 L 512 398.22222222222223 Q 511.1111111111111 422.22222222222223 495.1111111111111 438.22222222222223 Q 479.1111111111111 454.22222222222223 455.1111111111111 455.1111111111111 L 455.1111111111111 455.1111111111111 Z M 369.77777777777777 163.55555555555554 Q 350.22222222222223 161.77777777777777 348.44444444444446 142.22222222222223 Q 350.22222222222223 122.66666666666667 369.77777777777777 120.88888888888889 Q 389.3333333333333 122.66666666666667 391.1111111111111 142.22222222222223 Q 389.3333333333333 161.77777777777777 369.77777777777777 163.55555555555554 L 369.77777777777777 163.55555555555554 Z M 256 156.44444444444446 Q 232 157.33333333333334 218.66666666666666 177.77777777777777 Q 208 199.11111111111111 218.66666666666666 220.44444444444446 Q 232 240.88888888888889 256 241.77777777777777 Q 280 240.88888888888889 293.3333333333333 220.44444444444446 Q 304 199.11111111111111 293.3333333333333 177.77777777777777 Q 280 157.33333333333334 256 156.44444444444446 L 256 156.44444444444446 Z M 327.1111111111111 199.11111111111111 Q 326.22222222222223 239.11111111111111 291.55555555555554 260.44444444444446 Q 256 280 220.44444444444446 260.44444444444446 Q 185.77777777777777 239.11111111111111 184.88888888888889 199.11111111111111 Q 185.77777777777777 159.11111111111111 220.44444444444446 137.77777777777777 Q 256 118.22222222222223 291.55555555555554 137.77777777777777 Q 326.22222222222223 159.11111111111111 327.1111111111111 199.11111111111111 L 327.1111111111111 199.11111111111111 Z M 99.55555555555556 369.77777777777777 L 412.44444444444446 369.77777777777777 L 99.55555555555556 369.77777777777777 L 412.44444444444446 369.77777777777777 Q 425.77777777777777 370.6666666666667 426.6666666666667 384 Q 425.77777777777777 397.3333333333333 412.44444444444446 398.22222222222223 L 99.55555555555556 398.22222222222223 L 99.55555555555556 398.22222222222223 Q 86.22222222222223 397.3333333333333 85.33333333333333 384 Q 86.22222222222223 370.6666666666667 99.55555555555556 369.77777777777777 L 99.55555555555556 369.77777777777777 Z" />
</svg>