<svg xmlns="http://www.w3.org/2000/svg" viewBox="0 0 512 512">
  <path d="M 153.6 156.8 L 153.6 153.6 L 153.6 156.8 L 153.6 153.6 Q 153.6 131.2 139.2 116.8 Q 124.8 102.4 102.4 102.4 Q 80 102.4 65.6 116.8 Q 51.2 131.2 51.2 153.6 L 51.2 156.8 L 51.2 156.8 Q 51.2 161.6 52.8 166.4 L 92.8 401.6 L 92.8 401.6 Q 94.4 409.6 102.4 409.6 Q 110.4 409.6 112 401.6 L 153.6 166.4 L 153.6 166.4 L 201.6 176 L 201.6 176 L 153.6 166.4 L 153.6 166.4 Q 153.6 161.6 153.6 156.8 L 153.6 156.8 Z M 0 156.8 L 0 153.6 L 0 156.8 L 0 153.6 Q 1.6 110.4 30.4 81.6 Q 59.2 52.8 102.4 51.2 Q 145.6 52.8 174.4 81.6 Q 203.2 110.4 204.8 153.6 L 204.8 156.8 L 204.8 156.8 Q 204.8 166.4 203.2 176 L 163.2 411.2 L 163.2 411.2 Q 158.4 432 140.8 446.4 Q 124.8 460.8 102.4 460.8 Q 80 460.8 64 446.4 Q 46.4 432 43.2 411.2 L 1.6 176 L 1.6 176 Q 0 166.4 0 156.8 L 0 156.8 Z M 460.8 156.8 L 460.8 153.6 L 460.8 156.8 L 460.8 153.6 Q 460.8 131.2 446.4 116.8 Q 432 102.4 409.6 102.4 Q 387.2 102.4 372.8 116.8 Q 358.4 131.2 358.4 153.6 L 358.4 156.8 L 358.4 156.8 Q 358.4 161.6 360 166.4 L 400 401.6 L 400 401.6 Q 401.6 409.6 409.6 409.6 Q 417.6 409.6 419.2 401.6 L 460.8 166.4 L 460.8 166.4 L 508.8 176 L 508.8 176 L 460.8 166.4 L 460.8 166.4 Q 460.8 161.6 460.8 156.8 L 460.8 156.8 Z M 307.2 156.8 L 307.2 153.6 L 307.2 156.8 L 307.2 153.6 Q 308.8 110.4 337.6 81.6 Q 366.4 52.8 409.6 51.2 Q 452.8 52.8 481.6 81.6 Q 510.4 110.4 512 153.6 L 512 156.8 L 512 156.8 Q 512 166.4 510.4 176 L 470.4 411.2 L 470.4 411.2 Q 465.6 432 448 446.4 Q 432 460.8 409.6 460.8 Q 387.2 460.8 371.2 446.4 Q 353.6 432 350.4 411.2 L 308.8 176 L 308.8 176 Q 307.2 166.4 307.2 156.8 L 307.2 156.8 Z" />
</svg>