<svg xmlns="http://www.w3.org/2000/svg" viewBox="0 0 512 512">
  <path d="M 156.57142857142858 0 Q 136 0 123.42857142857143 13.714285714285714 L 123.42857142857143 13.714285714285714 L 123.42857142857143 13.714285714285714 Q 109.71428571428571 26.285714285714285 109.71428571428571 46.857142857142854 L 109.71428571428571 292.57142857142856 L 109.71428571428571 292.57142857142856 L 54.857142857142854 292.57142857142856 L 54.857142857142854 292.57142857142856 Q 37.714285714285715 293.7142857142857 36.57142857142857 310.85714285714283 Q 37.714285714285715 328 54.857142857142854 329.14285714285717 L 109.71428571428571 329.14285714285717 L 109.71428571428571 329.14285714285717 L 109.71428571428571 402.2857142857143 L 109.71428571428571 402.2857142857143 L 54.857142857142854 402.2857142857143 L 54.857142857142854 402.2857142857143 Q 37.714285714285715 403.42857142857144 36.57142857142857 420.57142857142856 Q 37.714285714285715 437.7142857142857 54.857142857142854 438.85714285714283 L 109.71428571428571 438.85714285714283 L 109.71428571428571 438.85714285714283 L 109.71428571428571 493.7142857142857 L 109.71428571428571 493.7142857142857 Q 110.85714285714286 510.85714285714283 128 512 Q 145.14285714285714 510.85714285714283 146.28571428571428 493.7142857142857 L 146.28571428571428 438.85714285714283 L 146.28571428571428 438.85714285714283 L 384 438.85714285714283 L 384 438.85714285714283 Q 401.14285714285717 437.7142857142857 402.2857142857143 420.57142857142856 Q 401.14285714285717 403.42857142857144 384 402.2857142857143 L 146.28571428571428 402.2857142857143 L 146.28571428571428 402.2857142857143 L 146.28571428571428 329.14285714285717 L 146.28571428571428 329.14285714285717 L 310.85714285714283 329.14285714285717 L 310.85714285714283 329.14285714285717 Q 380.57142857142856 326.85714285714283 427.42857142857144 281.14285714285717 Q 473.14285714285717 234.28571428571428 475.42857142857144 164.57142857142858 Q 473.14285714285717 94.85714285714286 427.42857142857144 48 Q 380.57142857142856 2.2857142857142856 310.85714285714283 0 L 156.57142857142858 0 L 156.57142857142858 0 Z M 146.28571428571428 292.57142857142856 L 146.28571428571428 46.857142857142854 L 146.28571428571428 292.57142857142856 L 146.28571428571428 46.857142857142854 Q 147.42857142857142 37.714285714285715 156.57142857142858 36.57142857142857 L 310.85714285714283 36.57142857142857 L 310.85714285714283 36.57142857142857 Q 365.7142857142857 37.714285714285715 401.14285714285717 74.28571428571429 Q 437.7142857142857 109.71428571428571 438.85714285714283 164.57142857142858 Q 437.7142857142857 219.42857142857142 401.14285714285717 254.85714285714286 Q 365.7142857142857 291.42857142857144 310.85714285714283 292.57142857142856 L 146.28571428571428 292.57142857142856 L 146.28571428571428 292.57142857142856 Z" />
</svg>