<svg xmlns="http://www.w3.org/2000/svg" viewBox="0 0 508 508">
    <path d="M 455 41 L 467 53 Q 476 63 476 76 Q 476 89 467 99 L 440 125 L 383 68 L 409 41 Q 419 32 432 32 Q 445 32 455 41 L 455 41 Z M 189 262 L 360 91 L 417 148 L 246 319 Q 240 325 231 328 L 165 343 L 181 277 Q 183 268 189 262 L 189 262 Z M 387 19 L 166 239 Q 153 252 149 270 L 128 361 Q 127 369 133 375 Q 139 381 148 380 L 238 359 Q 256 355 269 342 L 489 121 Q 508 102 508 76 Q 508 51 489 31 L 477 19 Q 458 0 432 0 Q 407 0 387 19 L 387 19 Z M 80 60 Q 46 61 23 83 L 23 83 Q 1 106 0 140 L 0 428 Q 1 462 23 485 Q 46 507 80 508 L 368 508 Q 402 507 425 485 Q 447 462 448 428 L 448 300 Q 447 285 432 284 Q 417 285 416 300 L 416 428 Q 415 448 402 462 Q 388 475 368 476 L 80 476 Q 60 475 46 462 Q 33 448 32 428 L 32 140 Q 33 120 46 106 Q 60 93 80 92 L 208 92 Q 223 91 224 76 Q 223 61 208 60 L 80 60 L 80 60 Z"/>
</svg>
