<svg xmlns="http://www.w3.org/2000/svg" viewBox="0 0 512 512">
  <path d="M 256 32 Q 270 32 279 41 L 279 41 L 279 41 Q 288 50 288 64 Q 288 78 279 87 Q 270 96 256 96 Q 242 96 233 87 Q 224 78 224 64 Q 224 50 233 41 Q 242 32 256 32 L 256 32 Z M 256 128 Q 292 127 311 96 Q 329 64 311 32 Q 292 1 256 0 Q 220 1 201 32 Q 183 64 201 96 Q 220 127 256 128 L 256 128 Z M 192 280 L 192 280 L 192 280 L 192 280 L 192 224 L 192 224 Q 192 210 201 201 Q 210 192 224 192 L 288 192 L 288 192 Q 302 192 311 201 Q 320 210 320 224 L 320 280 L 320 280 L 320 280 L 320 280 Q 297 285 293 308 L 284 393 L 284 393 Q 283 399 276 400 L 236 400 L 236 400 Q 229 399 228 393 L 219 308 L 219 308 Q 215 285 192 280 L 192 280 Z M 160 224 L 160 280 L 160 224 L 160 280 Q 162 306 187 312 L 196 396 L 196 396 Q 198 412 209 422 Q 220 432 236 432 L 276 432 L 276 432 Q 292 432 303 422 Q 314 412 316 396 L 325 312 L 325 312 Q 350 306 352 280 L 352 224 L 352 224 Q 351 197 333 179 Q 315 161 288 160 L 224 160 L 224 160 Q 197 161 179 179 Q 161 197 160 224 L 160 224 Z M 127 384 Q 141 380 139 365 Q 135 351 121 352 Q 70 362 38 379 Q 22 387 12 398 Q 1 409 0 426 Q 3 453 26 467 Q 48 481 82 491 Q 152 511 256 512 Q 360 511 430 491 Q 464 481 486 467 Q 509 453 512 426 Q 511 410 500 398 Q 490 387 474 379 Q 442 362 391 352 Q 377 351 373 365 Q 371 380 385 384 Q 433 393 459 407 Q 471 414 476 419 Q 480 425 480 426 Q 482 429 468 440 Q 453 451 421 460 Q 356 479 256 480 Q 156 479 91 460 Q 59 451 44 440 Q 30 429 32 426 Q 32 425 36 419 Q 41 414 53 407 Q 79 393 127 384 L 127 384 Z" />
</svg>