<svg xmlns="http://www.w3.org/2000/svg" viewBox="0 0 512 512">
  <path d="M 102.4 153.6 Q 102.4 132.8 112.8 115.2 L 112.8 115.2 L 112.8 115.2 Q 123.2 97.6 140.8 87.2 Q 159.2 76.8 179.2 76.8 Q 199.2 76.8 217.6 87.2 Q 235.2 97.6 245.6 115.2 Q 256 132.8 256 153.6 Q 256 174.4 245.6 192 Q 235.2 209.6 217.6 220 Q 199.2 230.4 179.2 230.4 Q 159.2 230.4 140.8 220 Q 123.2 209.6 112.8 192 Q 102.4 174.4 102.4 153.6 L 102.4 153.6 Z M 281.6 153.6 Q 281.6 125.6 268 102.4 L 268 102.4 L 268 102.4 Q 254.4 79.2 230.4 64.8 Q 206.4 51.2 179.2 51.2 Q 152 51.2 128 64.8 Q 104 79.2 90.4 102.4 Q 76.8 125.6 76.8 153.6 Q 76.8 181.6 90.4 204.8 Q 104 228 128 242.4 Q 152 256 179.2 256 Q 206.4 256 230.4 242.4 Q 254.4 228 268 204.8 Q 281.6 181.6 281.6 153.6 L 281.6 153.6 Z M 25.6 435.2 Q 27.2 386.4 60.8 353.6 L 60.8 353.6 L 60.8 353.6 Q 93.6 321.6 142.4 320 L 216 320 L 216 320 Q 237.6 320 256.8 327.2 Q 259.2 314.4 262.4 302.4 Q 240.8 294.4 216 294.4 L 142.4 294.4 L 142.4 294.4 Q 82.4 296 41.6 336 Q 1.6 376.8 0 436.8 Q 0 447.2 7.2 453.6 Q 13.6 460.8 24 460.8 L 316 460.8 L 316 460.8 Q 300 449.6 288 435.2 L 25.6 435.2 L 25.6 435.2 Z M 396.8 256 Q 420.8 256 441.6 268 L 441.6 268 L 441.6 268 Q 462.4 280 474.4 300.8 Q 486.4 321.6 486.4 345.6 Q 486.4 369.6 474.4 390.4 Q 462.4 411.2 441.6 423.2 Q 420.8 435.2 396.8 435.2 Q 372.8 435.2 352 423.2 Q 331.2 411.2 319.2 390.4 Q 307.2 369.6 307.2 345.6 Q 307.2 321.6 319.2 300.8 Q 331.2 280 352 268 Q 372.8 256 396.8 256 L 396.8 256 Z M 396.8 460.8 Q 428 460.8 454.4 445.6 L 454.4 445.6 L 454.4 445.6 Q 480.8 430.4 496.8 403.2 Q 512 376 512 345.6 Q 512 315.2 496.8 288 Q 480.8 260.8 454.4 245.6 Q 428 230.4 396.8 230.4 Q 365.6 230.4 339.2 245.6 Q 312.8 260.8 296.8 288 Q 281.6 315.2 281.6 345.6 Q 281.6 376 296.8 403.2 Q 312.8 430.4 339.2 445.6 Q 365.6 460.8 396.8 460.8 L 396.8 460.8 Z M 396.8 281.6 Q 384.8 282.4 384 294.4 L 384 345.6 L 384 345.6 Q 384.8 357.6 396.8 358.4 L 435.2 358.4 L 435.2 358.4 Q 447.2 357.6 448 345.6 Q 447.2 333.6 435.2 332.8 L 409.6 332.8 L 409.6 332.8 L 409.6 294.4 L 409.6 294.4 Q 408.8 282.4 396.8 281.6 L 396.8 281.6 Z" />
</svg>