<svg xmlns="http://www.w3.org/2000/svg" viewBox="0 0 512 512">
  <path d="M 0 201.14285714285714 Q 1.1428571428571428 146.28571428571428 37.714285714285715 110.85714285714286 L 37.714285714285715 110.85714285714286 L 37.714285714285715 110.85714285714286 Q 73.14285714285714 74.28571428571429 128 73.14285714285714 L 164.57142857142858 73.14285714285714 L 164.57142857142858 73.14285714285714 Q 181.71428571428572 74.28571428571429 182.85714285714286 91.42857142857143 Q 181.71428571428572 108.57142857142857 164.57142857142858 109.71428571428571 L 128 109.71428571428571 L 128 109.71428571428571 Q 89.14285714285714 110.85714285714286 62.857142857142854 136 Q 37.714285714285715 162.28571428571428 36.57142857142857 201.14285714285714 L 36.57142857142857 229.71428571428572 L 36.57142857142857 229.71428571428572 Q 52.57142857142857 219.42857142857142 73.14285714285714 219.42857142857142 L 146.28571428571428 219.42857142857142 L 146.28571428571428 219.42857142857142 Q 177.14285714285714 220.57142857142858 197.71428571428572 241.14285714285714 Q 218.28571428571428 261.7142857142857 219.42857142857142 292.57142857142856 L 219.42857142857142 365.7142857142857 L 219.42857142857142 365.7142857142857 Q 218.28571428571428 396.57142857142856 197.71428571428572 417.14285714285717 Q 177.14285714285714 437.7142857142857 146.28571428571428 438.85714285714283 L 73.14285714285714 438.85714285714283 L 73.14285714285714 438.85714285714283 Q 42.285714285714285 437.7142857142857 21.714285714285715 417.14285714285717 Q 1.1428571428571428 396.57142857142856 0 365.7142857142857 L 0 329.14285714285717 L 0 329.14285714285717 L 0 292.57142857142856 L 0 292.57142857142856 L 0 201.14285714285714 L 0 201.14285714285714 Z M 36.57142857142857 292.57142857142856 L 36.57142857142857 329.14285714285717 L 36.57142857142857 292.57142857142856 L 36.57142857142857 329.14285714285717 L 36.57142857142857 365.7142857142857 L 36.57142857142857 365.7142857142857 Q 36.57142857142857 381.7142857142857 46.857142857142854 392 Q 57.142857142857146 402.2857142857143 73.14285714285714 402.2857142857143 L 146.28571428571428 402.2857142857143 L 146.28571428571428 402.2857142857143 Q 162.28571428571428 402.2857142857143 172.57142857142858 392 Q 182.85714285714286 381.7142857142857 182.85714285714286 365.7142857142857 L 182.85714285714286 292.57142857142856 L 182.85714285714286 292.57142857142856 Q 182.85714285714286 276.57142857142856 172.57142857142858 266.2857142857143 Q 162.28571428571428 256 146.28571428571428 256 L 73.14285714285714 256 L 73.14285714285714 256 Q 57.142857142857146 256 46.857142857142854 266.2857142857143 Q 36.57142857142857 276.57142857142856 36.57142857142857 292.57142857142856 L 36.57142857142857 292.57142857142856 Z M 438.85714285714283 256 L 365.7142857142857 256 L 438.85714285714283 256 L 365.7142857142857 256 Q 349.7142857142857 256 339.42857142857144 266.2857142857143 Q 329.14285714285717 276.57142857142856 329.14285714285717 292.57142857142856 L 329.14285714285717 329.14285714285717 L 329.14285714285717 329.14285714285717 L 329.14285714285717 365.7142857142857 L 329.14285714285717 365.7142857142857 Q 329.14285714285717 381.7142857142857 339.42857142857144 392 Q 349.7142857142857 402.2857142857143 365.7142857142857 402.2857142857143 L 438.85714285714283 402.2857142857143 L 438.85714285714283 402.2857142857143 Q 454.85714285714283 402.2857142857143 465.14285714285717 392 Q 475.42857142857144 381.7142857142857 475.42857142857144 365.7142857142857 L 475.42857142857144 292.57142857142856 L 475.42857142857144 292.57142857142856 Q 475.42857142857144 276.57142857142856 465.14285714285717 266.2857142857143 Q 454.85714285714283 256 438.85714285714283 256 L 438.85714285714283 256 Z M 292.57142857142856 329.14285714285717 L 292.57142857142856 292.57142857142856 L 292.57142857142856 329.14285714285717 L 292.57142857142856 292.57142857142856 L 292.57142857142856 201.14285714285714 L 292.57142857142856 201.14285714285714 Q 293.7142857142857 146.28571428571428 330.2857142857143 110.85714285714286 Q 365.7142857142857 74.28571428571429 420.57142857142856 73.14285714285714 L 457.14285714285717 73.14285714285714 L 457.14285714285717 73.14285714285714 Q 474.2857142857143 74.28571428571429 475.42857142857144 91.42857142857143 Q 474.2857142857143 108.57142857142857 457.14285714285717 109.71428571428571 L 420.57142857142856 109.71428571428571 L 420.57142857142856 109.71428571428571 Q 381.7142857142857 110.85714285714286 355.42857142857144 136 Q 330.2857142857143 162.28571428571428 329.14285714285717 201.14285714285714 L 329.14285714285717 229.71428571428572 L 329.14285714285717 229.71428571428572 Q 345.14285714285717 219.42857142857142 365.7142857142857 219.42857142857142 L 438.85714285714283 219.42857142857142 L 438.85714285714283 219.42857142857142 Q 469.7142857142857 220.57142857142858 490.2857142857143 241.14285714285714 Q 510.85714285714283 261.7142857142857 512 292.57142857142856 L 512 365.7142857142857 L 512 365.7142857142857 Q 510.85714285714283 396.57142857142856 490.2857142857143 417.14285714285717 Q 469.7142857142857 437.7142857142857 438.85714285714283 438.85714285714283 L 365.7142857142857 438.85714285714283 L 365.7142857142857 438.85714285714283 Q 334.85714285714283 437.7142857142857 314.2857142857143 417.14285714285717 Q 293.7142857142857 396.57142857142856 292.57142857142856 365.7142857142857 L 292.57142857142856 329.14285714285717 L 292.57142857142856 329.14285714285717 Z" />
</svg>