<svg xmlns="http://www.w3.org/2000/svg" viewBox="0 0 647 516">
    <path d="M 487 1 Q 555 0 620 19 Q 646 29 647 57 Q 646 90 631 141 Q 617 194 597 251 Q 576 309 555 353 Q 545 374 529 395 Q 513 416 487 417 Q 461 416 445 395 Q 429 374 419 353 Q 398 309 377 251 Q 357 194 343 141 Q 328 90 327 57 Q 329 29 355 19 Q 420 0 487 1 L 487 1 Z M 610 49 Q 552 32 487 33 Q 423 32 365 49 Q 359 52 359 57 Q 359 78 370 120 Q 371 120 373 120 Q 373 120 374 120 Q 384 119 401 117 Q 435 114 487 113 Q 539 113 573 117 Q 590 119 600 120 Q 600 120 601 120 Q 602 120 604 120 Q 615 78 615 57 Q 615 51 610 49 L 610 49 Z M 379 152 Q 391 195 408 241 L 409 244 Q 441 241 487 241 Q 533 241 565 244 L 567 241 Q 583 195 595 152 Q 586 150 570 149 Q 537 146 487 145 Q 437 146 404 149 Q 388 151 379 152 L 379 152 Z M 448 339 Q 458 360 469 374 Q 480 386 487 385 Q 494 386 505 374 Q 516 360 526 339 Q 540 312 554 276 Q 525 273 487 273 Q 449 273 420 276 Q 434 312 448 339 L 448 339 Z M 92 204 Q 139 155 199 123 Q 224 112 245 131 Q 256 142 268 161 Q 281 179 293 201 Q 320 248 347 304 Q 373 359 389 405 Q 397 427 401 453 Q 404 479 386 498 Q 367 516 341 513 Q 315 510 293 501 Q 247 485 192 459 Q 136 432 89 405 Q 67 393 48 380 Q 30 368 19 357 Q 0 336 11 311 Q 44 251 92 204 L 92 204 Z M 213 152 Q 160 180 115 227 Q 69 272 40 325 Q 38 331 41 334 Q 57 349 94 371 Q 95 370 97 368 Q 103 360 113 347 Q 135 321 171 284 Q 209 247 235 225 Q 248 215 256 209 Q 257 208 258 207 Q 259 207 259 206 Q 237 169 222 153 Q 218 150 213 152 L 213 152 Z M 122 387 Q 161 409 205 430 L 209 432 Q 230 407 262 374 Q 294 342 319 321 L 318 318 Q 297 274 275 234 Q 268 240 256 250 Q 230 271 194 306 Q 159 342 138 368 Q 128 380 122 387 L 122 387 Z M 303 471 Q 325 479 343 481 Q 360 482 364 476 Q 369 472 369 455 Q 367 437 359 415 Q 349 387 333 351 Q 311 370 284 397 Q 258 423 239 445 Q 274 461 303 471 L 303 471 Z"/>
</svg>
