<svg xmlns="http://www.w3.org/2000/svg" viewBox="0 0 640 512">
    <path d="M 480 256 Q 480 265 479 273 L 512 242 Q 507 174 473 120 Q 438 65 382 33 Q 325 1 256 0 Q 184 1 127 35 Q 69 69 35 127 Q 1 184 0 256 Q 1 328 35 385 Q 69 443 127 477 Q 184 511 256 512 Q 308 512 354 493 Q 399 474 434 440 Q 415 438 402 426 Q 341 478 256 480 Q 193 479 143 449 Q 92 420 63 369 Q 33 319 32 256 Q 33 193 63 143 Q 92 92 143 63 Q 193 33 256 32 Q 319 33 369 63 Q 420 92 449 143 Q 479 193 480 256 L 480 256 Z M 176 144 Q 175 129 160 128 Q 145 129 144 144 L 144 208 Q 145 223 160 224 Q 175 223 176 208 L 176 144 L 176 144 Z M 272 144 Q 271 129 256 128 Q 241 129 240 144 L 240 208 Q 241 223 256 224 Q 271 223 272 208 L 272 144 L 272 144 Z M 368 144 Q 367 129 352 128 Q 337 129 336 144 L 336 208 Q 337 223 352 224 Q 367 223 368 208 L 368 144 L 368 144 Z M 464 376 L 549 295 L 529 337 Q 526 345 530 353 Q 535 360 544 360 L 592 360 L 507 441 L 526 399 Q 530 391 525 383 Q 521 376 512 376 L 464 376 L 464 376 Z M 586 224 Q 578 224 572 230 L 423 371 Q 416 377 416 386 Q 418 406 438 408 L 487 408 L 452 484 Q 448 494 454 503 Q 459 511 470 512 Q 478 512 484 507 L 633 365 Q 640 359 640 350 Q 638 330 618 328 L 569 328 L 604 252 Q 608 242 602 233 Q 597 225 586 224 L 586 224 Z"/>
</svg>
