<svg xmlns="http://www.w3.org/2000/svg" viewBox="0 0 512 512">
  <path d="M 196 40 L 181 64 L 196 40 L 181 64 L 331 64 L 331 64 L 316 40 L 316 40 Q 311 32 302 32 L 210 32 L 210 32 Q 201 32 196 40 L 196 40 Z M 343 23 L 369 64 L 343 23 L 369 64 L 416 64 L 464 64 Q 479 65 480 80 Q 479 95 464 96 L 446 96 L 446 96 L 420 453 L 420 453 Q 418 478 400 495 Q 382 511 356 512 L 156 512 L 156 512 Q 130 511 112 495 Q 94 478 92 453 L 66 96 L 66 96 L 48 96 L 48 96 Q 33 95 32 80 Q 33 65 48 64 L 64 64 L 143 64 L 169 23 L 169 23 Q 184 1 210 0 L 302 0 L 302 0 Q 328 1 343 23 L 343 23 Z M 98 96 L 124 450 L 98 96 L 124 450 Q 125 463 134 471 Q 143 480 156 480 L 356 480 L 356 480 Q 369 480 378 471 Q 387 463 388 450 L 414 96 L 414 96 L 98 96 L 98 96 Z M 181 213 Q 192 203 203 213 L 256 265 L 256 265 L 309 213 L 309 213 Q 320 203 331 213 Q 341 224 331 235 L 279 288 L 279 288 L 331 341 L 331 341 Q 341 352 331 363 Q 320 373 309 363 L 256 311 L 256 311 L 203 363 L 203 363 Q 192 373 181 363 Q 171 352 181 341 L 233 288 L 233 288 L 181 235 L 181 235 Q 171 224 181 213 L 181 213 Z" />
</svg>