<svg xmlns="http://www.w3.org/2000/svg" viewBox="0 0 576 480">
    <path d="M 377 340 L 316 253 Q 320 239 320 224 Q 319 183 292 156 Q 265 129 224 128 Q 183 129 156 156 Q 129 183 128 224 Q 129 265 156 292 Q 183 319 224 320 Q 224 320 225 320 Q 225 320 226 320 L 286 406 Q 257 416 224 416 Q 142 414 88 360 Q 34 306 32 224 Q 34 142 88 88 Q 142 34 224 32 Q 304 34 358 87 Q 412 139 416 219 Q 416 220 416 221 Q 416 223 416 224 Q 416 227 416 229 Q 413 293 377 340 L 377 340 Z M 405 368 L 397 368 L 396 367 Q 431 326 443 272 L 448 272 L 544 272 L 544 314 L 405 368 L 405 368 Z M 460 381 L 556 344 Q 575 335 576 314 L 576 272 Q 576 258 567 249 Q 558 240 544 240 L 480 240 L 447 240 Q 448 232 448 224 Q 448 216 447 208 L 447 208 L 480 208 L 544 208 Q 558 208 567 199 Q 576 190 576 176 L 576 134 Q 575 113 556 104 L 348 23 Q 288 0 224 0 Q 161 1 111 31 Q 60 60 31 111 Q 1 161 0 224 Q 1 287 31 337 Q 60 388 111 417 Q 161 447 224 448 Q 267 448 309 437 L 322 456 Q 339 479 368 480 L 424 480 Q 448 479 464 464 Q 479 448 480 424 Q 479 397 460 381 L 460 381 Z M 447 176 L 443 176 Q 429 117 391 74 L 544 134 L 544 176 L 447 176 L 447 176 Z M 80 240 Q 95 239 96 224 Q 95 209 80 208 Q 65 209 64 224 Q 65 239 80 240 L 80 240 Z M 128 128 Q 127 113 112 112 Q 97 113 96 128 Q 97 143 112 144 Q 127 143 128 128 L 128 128 Z M 112 336 Q 127 335 128 320 Q 127 305 112 304 Q 97 305 96 320 Q 97 335 112 336 L 112 336 Z M 160 224 Q 161 188 192 169 Q 224 151 256 169 Q 287 188 288 224 Q 287 260 256 279 Q 224 297 192 279 Q 161 260 160 224 L 160 224 Z M 348 438 L 262 312 Q 285 302 300 283 L 381 400 L 424 400 Q 446 402 448 424 Q 446 446 424 448 L 368 448 Q 356 448 348 438 L 348 438 Z"/>
</svg>
