<svg xmlns="http://www.w3.org/2000/svg" viewBox="0 0 512 512">
  <path d="M 119.111115 118.666664 Q 142.22223 135.55556 170.66667 137.33333 Q 199.11111 135.55556 222.22223 118.666664 Q 235.55556 109.77778 245.33333 99.111115 Q 256 90.22222 266.66666 99.111115 Q 276.44446 109.77778 289.77777 118.666664 Q 312.8889 135.55556 341.33334 137.33333 Q 369.77777 135.55556 392.8889 118.666664 Q 406.22223 109.77778 416 99.111115 Q 426.66666 90.22222 437.33334 99.111115 Q 447.1111 109.77778 460.44446 118.666664 Q 477.33334 131.11111 499.55554 136.44444 Q 511.1111 139.11111 512 149.77777 Q 510.22223 164.88889 496 164.88889 Q 464.8889 157.77777 444.44446 141.77777 Q 433.77777 134.66667 426.66666 128.44444 Q 419.55554 134.66667 408.8889 141.77777 Q 396.44446 150.66667 378.66666 157.77777 Q 361.77777 165.77777 341.33334 165.77777 Q 320.8889 165.77777 304 157.77777 Q 286.22223 150.66667 273.77777 141.77777 Q 263.1111 134.66667 256 128.44444 Q 248.88889 134.66667 238.22223 141.77777 Q 225.77777 150.66667 208 157.77777 Q 191.11111 165.77777 170.66667 165.77777 Q 150.22223 165.77777 133.33333 157.77777 Q 115.55556 150.66667 103.111115 141.77777 Q 92.44444 134.66667 85.333336 128.44444 Q 78.22222 134.66667 67.55556 141.77777 Q 47.11111 156.88889 16 164 Q 1.7777778 164.88889 0 149.77777 Q 0.8888889 139.11111 12.444445 136.44444 Q 34.666668 131.11111 51.555557 118.666664 Q 64 109.77778 74.666664 99.111115 Q 85.333336 90.22222 96 99.111115 Q 105.77778 109.77778 119.111115 118.666664 L 119.111115 118.666664 Z M 119.111115 374.66666 Q 142.22223 391.55554 170.66667 393.33334 Q 199.11111 391.55554 222.22223 374.66666 Q 235.55556 365.77777 245.33333 355.1111 Q 256 346.22223 266.66666 355.1111 Q 276.44446 365.77777 289.77777 374.66666 Q 312.8889 391.55554 341.33334 393.33334 Q 369.77777 391.55554 392.8889 374.66666 Q 406.22223 365.77777 416 355.1111 Q 426.66666 346.22223 437.33334 355.1111 Q 447.1111 365.77777 460.44446 374.66666 Q 477.33334 387.1111 499.55554 392.44446 Q 511.1111 395.1111 512 405.77777 Q 510.22223 420.8889 496 420.8889 Q 464.8889 413.77777 444.44446 397.77777 Q 433.77777 390.66666 426.66666 384.44446 Q 419.55554 390.66666 408.8889 397.77777 Q 396.44446 406.66666 378.66666 413.77777 Q 361.77777 421.77777 341.33334 421.77777 Q 320.8889 421.77777 304 413.77777 Q 286.22223 406.66666 273.77777 397.77777 Q 263.1111 390.66666 256 384.44446 Q 248.88889 390.66666 238.22223 397.77777 Q 225.77777 406.66666 208 413.77777 Q 191.11111 421.77777 170.66667 421.77777 Q 150.22223 421.77777 133.33333 413.77777 Q 115.55556 406.66666 103.111115 397.77777 Q 92.44444 390.66666 85.333336 384.44446 Q 78.22222 390.66666 67.55556 397.77777 Q 47.11111 412.8889 16 420 Q 1.7777778 420.8889 0 405.77777 Q 0.8888889 395.1111 12.444445 392.44446 Q 34.666668 387.1111 51.555557 374.66666 Q 64 365.77777 74.666664 355.1111 Q 85.333336 346.22223 96 355.1111 Q 105.77778 365.77777 119.111115 374.66666 L 119.111115 374.66666 Z M 170.66667 265.33334 Q 199.11111 263.55554 222.22223 246.66667 Q 235.55556 237.77777 245.33333 227.11111 Q 256 218.22223 266.66666 227.11111 Q 276.44446 237.77777 289.77777 246.66667 Q 312.8889 263.55554 341.33334 265.33334 Q 369.77777 263.55554 392.8889 246.66667 Q 406.22223 237.77777 416 227.11111 Q 426.66666 218.22223 437.33334 227.11111 Q 447.1111 237.77777 460.44446 246.66667 Q 477.33334 259.1111 499.55554 264.44446 Q 511.1111 267.1111 512 277.77777 Q 510.22223 292.8889 496 292.8889 Q 464.8889 285.77777 444.44446 269.77777 Q 433.77777 262.66666 426.66666 256.44446 Q 419.55554 262.66666 408.8889 269.77777 Q 396.44446 278.66666 378.66666 285.77777 Q 361.77777 293.77777 341.33334 293.77777 Q 320.8889 293.77777 304 285.77777 Q 286.22223 278.66666 273.77777 269.77777 Q 263.1111 262.66666 256 256.44446 Q 248.88889 262.66666 238.22223 269.77777 Q 225.77777 278.66666 208 285.77777 Q 191.11111 293.77777 170.66667 293.77777 Q 150.22223 293.77777 133.33333 285.77777 Q 115.55556 278.66666 103.111115 269.77777 Q 92.44444 262.66666 85.333336 256.44446 Q 78.22222 262.66666 67.55556 269.77777 Q 47.11111 284.8889 16 292 Q 1.7777778 292.8889 0 277.77777 Q 0.8888889 267.1111 12.444445 264.44446 Q 34.666668 259.1111 51.555557 246.66667 Q 64 237.77777 74.666664 227.11111 Q 85.333336 218.22223 96 227.11111 Q 105.77778 237.77777 119.111115 246.66667 Q 142.22223 263.55554 170.66667 265.33334 L 170.66667 265.33334 Z" />
</svg>