<svg xmlns="http://www.w3.org/2000/svg" viewBox="0 0 512 512">
  <path d="M 266.4918 8.393442 Q 256 0 245.5082 8.393442 L 77.63934 142.68852 L 77.63934 142.68852 Q 66.09836 153.18033 75.540985 165.7705 Q 86.03278 177.31148 98.62295 168.91803 L 256 43.01639 L 256 43.01639 L 413.37704 168.91803 L 413.37704 168.91803 Q 425.96722 177.31148 437.5082 165.7705 Q 445.90164 153.18033 434.36066 142.68852 L 266.4918 8.393442 L 266.4918 8.393442 Z M 434.36066 370.36066 Q 445.90164 358.81967 437.5082 346.22952 Q 425.96722 334.68854 413.37704 344.13113 L 256 470.03278 L 256 470.03278 L 98.62295 344.13113 L 98.62295 344.13113 Q 86.03278 334.68854 75.540985 346.22952 Q 66.09836 358.81967 77.63934 370.36066 L 245.5082 504.65573 L 245.5082 504.65573 Q 256 512 266.4918 504.65573 L 434.36066 370.36066 L 434.36066 370.36066 Z" />
</svg>