<svg xmlns="http://www.w3.org/2000/svg" viewBox="0 0 512 448">
    <path d="M 128 320 L 128 416 L 384 416 L 384 320 L 384 224 L 384 128 L 384 32 L 128 32 L 128 128 L 128 224 L 128 320 L 128 320 Z M 96 336 L 32 336 L 32 384 Q 32 398 41 407 Q 50 416 64 416 L 96 416 L 96 336 L 96 336 Z M 96 304 L 96 240 L 32 240 L 32 304 L 96 304 L 96 304 Z M 96 208 L 96 144 L 32 144 L 32 208 L 96 208 L 96 208 Z M 96 112 L 96 32 L 64 32 Q 50 32 41 41 Q 32 50 32 64 L 32 112 L 96 112 L 96 112 Z M 416 240 L 416 304 L 480 304 L 480 240 L 416 240 L 416 240 Z M 416 336 L 416 416 L 448 416 Q 462 416 471 407 Q 480 398 480 384 L 480 336 L 416 336 L 416 336 Z M 416 208 L 480 208 L 480 144 L 416 144 L 416 208 L 416 208 Z M 416 112 L 480 112 L 480 64 Q 480 50 471 41 Q 462 32 448 32 L 416 32 L 416 112 L 416 112 Z M 64 0 L 448 0 Q 475 1 493 19 Q 511 37 512 64 L 512 384 Q 511 411 493 429 Q 475 447 448 448 L 64 448 Q 37 447 19 429 Q 1 411 0 384 L 0 64 Q 1 37 19 19 Q 37 1 64 0 L 64 0 Z"/>
</svg>
