<svg xmlns="http://www.w3.org/2000/svg" viewBox="0 0 512 512">
  <path d="M 176 48 L 336 48 L 176 48 L 336 48 Q 351 49 352 64 L 352 112 L 352 112 L 160 112 L 160 112 L 160 64 L 160 64 Q 161 49 176 48 L 176 48 Z M 128 64 L 128 112 L 128 64 L 128 112 L 64 112 L 64 112 Q 37 113 19 131 Q 1 149 0 176 L 0 432 L 0 432 Q 1 459 19 477 Q 37 495 64 496 L 448 496 L 448 496 Q 475 495 493 477 Q 511 459 512 432 L 512 176 L 512 176 Q 511 149 493 131 Q 475 113 448 112 L 384 112 L 384 112 L 384 64 L 384 64 Q 383 44 370 30 Q 356 17 336 16 L 176 16 L 176 16 Q 156 17 142 30 Q 129 44 128 64 L 128 64 Z M 384 144 L 384 464 L 384 144 L 384 464 L 128 464 L 128 464 L 128 144 L 128 144 L 144 144 L 384 144 Z M 96 144 L 96 464 L 96 144 L 96 464 L 64 464 L 64 464 Q 50 464 41 455 Q 32 446 32 432 L 32 176 L 32 176 Q 32 162 41 153 Q 50 144 64 144 L 96 144 L 96 144 Z M 416 464 L 416 144 L 416 464 L 416 144 L 448 144 L 448 144 Q 462 144 471 153 Q 480 162 480 176 L 480 432 L 480 432 Q 480 446 471 455 Q 462 464 448 464 L 416 464 L 416 464 Z M 240 192 Q 226 192 217 201 L 217 201 L 217 201 Q 208 210 208 224 L 208 256 L 208 256 L 176 256 L 176 256 Q 162 256 153 265 Q 144 274 144 288 L 144 320 L 144 320 Q 144 334 153 343 Q 162 352 176 352 L 208 352 L 208 352 L 208 384 L 208 384 Q 208 398 217 407 Q 226 416 240 416 L 272 416 L 272 416 Q 286 416 295 407 Q 304 398 304 384 L 304 352 L 304 352 L 336 352 L 336 352 Q 350 352 359 343 Q 368 334 368 320 L 368 288 L 368 288 Q 368 274 359 265 Q 350 256 336 256 L 304 256 L 304 256 L 304 224 L 304 224 Q 304 210 295 201 Q 286 192 272 192 L 240 192 L 240 192 Z M 240 224 L 272 224 L 240 224 L 272 224 L 272 272 L 272 272 Q 273 287 288 288 L 336 288 L 336 288 L 336 320 L 336 320 L 288 320 L 288 320 Q 273 321 272 336 L 272 384 L 272 384 L 240 384 L 240 384 L 240 336 L 240 336 Q 239 321 224 320 L 176 320 L 176 320 L 176 288 L 176 288 L 224 288 L 224 288 Q 231 288 235 283 Q 240 279 240 272 L 240 224 L 240 224 Z" />
</svg>