<svg xmlns="http://www.w3.org/2000/svg" viewBox="0 0 512 512">
  <path d="M 169 17 Q 192 0 224 0 Q 256 0 279 17 Q 302 34 304 64 Q 302 94 279 111 Q 271 117 272 121 Q 273 127 279 128 L 336 128 L 336 128 Q 356 129 370 142 Q 383 156 384 176 L 384 233 L 384 233 Q 385 239 391 240 Q 395 240 401 233 Q 418 210 448 208 Q 478 210 495 233 Q 512 256 512 288 Q 512 320 495 343 Q 478 366 448 368 Q 418 366 401 343 Q 395 335 391 336 Q 385 337 384 343 L 384 464 L 384 464 Q 383 484 370 498 Q 356 511 336 512 L 279 512 L 279 512 Q 263 512 252 501 Q 240 489 240 473 Q 243 448 260 437 Q 272 427 272 416 Q 272 405 260 395 Q 246 385 224 384 Q 202 385 188 395 Q 176 405 176 416 Q 176 427 188 437 Q 205 448 208 473 Q 208 489 197 501 Q 185 512 169 512 L 48 512 L 48 512 Q 28 511 14 498 Q 1 484 0 464 L 0 343 L 0 343 Q 0 327 11 315 Q 23 304 39 304 Q 64 307 75 324 Q 85 336 96 336 Q 107 336 117 324 Q 127 310 128 288 Q 127 266 117 252 Q 107 240 96 240 Q 85 240 75 252 Q 64 269 39 272 Q 23 272 11 261 Q 0 249 0 233 L 0 176 L 0 176 Q 1 156 14 142 Q 28 129 48 128 L 169 128 L 169 128 Q 175 127 176 121 Q 176 117 169 111 Q 146 94 144 64 Q 146 34 169 17 L 169 17 Z M 188 43 Q 176 53 176 64 Q 176 75 188 85 Q 205 96 208 121 Q 208 137 197 149 Q 185 160 169 160 L 48 160 L 48 160 Q 33 161 32 176 L 32 233 L 32 233 Q 33 239 39 240 Q 43 240 49 233 Q 66 210 96 208 Q 126 210 143 233 Q 160 256 160 288 Q 160 320 143 343 Q 126 366 96 368 Q 66 366 49 343 Q 43 335 39 336 Q 33 337 32 343 L 32 464 L 32 464 Q 33 479 48 480 L 169 480 L 169 480 Q 175 479 176 473 Q 176 469 169 463 Q 146 446 144 416 Q 146 386 169 369 Q 192 352 224 352 Q 256 352 279 369 Q 302 386 304 416 Q 302 446 279 463 Q 271 469 272 473 Q 273 479 279 480 L 336 480 L 336 480 Q 351 479 352 464 L 352 343 L 352 343 Q 352 327 363 315 Q 375 304 391 304 Q 416 307 427 324 Q 437 336 448 336 Q 459 336 469 324 Q 479 310 480 288 Q 479 266 469 252 Q 459 240 448 240 Q 437 240 427 252 Q 416 269 391 272 Q 375 272 363 261 Q 352 249 352 233 L 352 176 L 352 176 Q 351 161 336 160 L 279 160 L 279 160 Q 263 160 252 149 Q 240 137 240 121 Q 243 96 260 85 Q 272 75 272 64 Q 272 53 260 43 Q 246 33 224 32 Q 202 33 188 43 L 188 43 Z" />
</svg>