<svg xmlns="http://www.w3.org/2000/svg" viewBox="0 0 512 512">
  <path d="M 109.71429 466.2857 L 109.71429 411.42856 L 109.71429 466.2857 L 109.71429 411.42856 Q 110.85714 403.42856 118.85714 402.2857 L 173.71428 402.2857 L 173.71428 402.2857 Q 181.71428 403.42856 182.85715 411.42856 L 182.85715 466.2857 L 182.85715 466.2857 Q 181.71428 474.2857 173.71428 475.42856 L 118.85714 475.42856 L 118.85714 475.42856 Q 110.85714 474.2857 109.71429 466.2857 L 109.71429 466.2857 Z M 118.85714 512 L 173.71428 512 L 118.85714 512 L 173.71428 512 Q 193.14285 512 205.71428 498.2857 Q 219.42857 485.7143 219.42857 466.2857 L 219.42857 411.42856 L 219.42857 411.42856 Q 219.42857 392 205.71428 379.42856 Q 193.14285 365.7143 173.71428 365.7143 L 118.85714 365.7143 L 118.85714 365.7143 Q 99.42857 365.7143 86.85714 379.42856 Q 73.14286 392 73.14286 411.42856 L 73.14286 466.2857 L 73.14286 466.2857 Q 73.14286 485.7143 86.85714 498.2857 Q 99.42857 512 118.85714 512 L 118.85714 512 Z M 329.14285 466.2857 L 329.14285 411.42856 L 329.14285 466.2857 L 329.14285 411.42856 Q 330.2857 403.42856 338.2857 402.2857 L 393.14285 402.2857 L 393.14285 402.2857 Q 401.14285 403.42856 402.2857 411.42856 L 402.2857 466.2857 L 402.2857 466.2857 Q 401.14285 474.2857 393.14285 475.42856 L 338.2857 475.42856 L 338.2857 475.42856 Q 330.2857 474.2857 329.14285 466.2857 L 329.14285 466.2857 Z M 338.2857 512 L 393.14285 512 L 338.2857 512 L 393.14285 512 Q 412.57144 512 425.14285 498.2857 Q 438.85715 485.7143 438.85715 466.2857 L 438.85715 411.42856 L 438.85715 411.42856 Q 438.85715 392 425.14285 379.42856 Q 412.57144 365.7143 393.14285 365.7143 L 338.2857 365.7143 L 338.2857 365.7143 Q 318.85715 365.7143 306.2857 379.42856 Q 292.57144 392 292.57144 411.42856 L 292.57144 466.2857 L 292.57144 466.2857 Q 292.57144 485.7143 306.2857 498.2857 Q 318.85715 512 338.2857 512 L 338.2857 512 Z M 109.71429 228.57143 Q 110.85714 220.57143 118.85714 219.42857 L 173.71428 219.42857 L 173.71428 219.42857 Q 181.71428 220.57143 182.85715 228.57143 L 182.85715 283.42856 L 182.85715 283.42856 Q 181.71428 291.42856 173.71428 292.57144 L 118.85714 292.57144 L 118.85714 292.57144 Q 110.85714 291.42856 109.71429 283.42856 L 109.71429 228.57143 L 109.71429 228.57143 Z M 73.14286 283.42856 Q 73.14286 302.85715 86.85714 315.42856 L 86.85714 315.42856 L 86.85714 315.42856 Q 99.42857 329.14285 118.85714 329.14285 L 173.71428 329.14285 L 173.71428 329.14285 Q 193.14285 329.14285 205.71428 315.42856 Q 219.42857 302.85715 219.42857 283.42856 L 219.42857 228.57143 L 219.42857 228.57143 Q 219.42857 209.14285 205.71428 196.57143 Q 193.14285 182.85715 173.71428 182.85715 L 118.85714 182.85715 L 118.85714 182.85715 Q 99.42857 182.85715 86.85714 196.57143 Q 73.14286 209.14285 73.14286 228.57143 L 73.14286 283.42856 L 73.14286 283.42856 Z M 329.14285 283.42856 L 329.14285 228.57143 L 329.14285 283.42856 L 329.14285 228.57143 Q 330.2857 220.57143 338.2857 219.42857 L 393.14285 219.42857 L 393.14285 219.42857 Q 401.14285 220.57143 402.2857 228.57143 L 402.2857 283.42856 L 402.2857 283.42856 Q 401.14285 291.42856 393.14285 292.57144 L 338.2857 292.57144 L 338.2857 292.57144 Q 330.2857 291.42856 329.14285 283.42856 L 329.14285 283.42856 Z M 338.2857 329.14285 L 393.14285 329.14285 L 338.2857 329.14285 L 393.14285 329.14285 Q 412.57144 329.14285 425.14285 315.42856 Q 438.85715 302.85715 438.85715 283.42856 L 438.85715 228.57143 L 438.85715 228.57143 Q 438.85715 209.14285 425.14285 196.57143 Q 412.57144 182.85715 393.14285 182.85715 L 338.2857 182.85715 L 338.2857 182.85715 Q 318.85715 182.85715 306.2857 196.57143 Q 292.57144 209.14285 292.57144 228.57143 L 292.57144 283.42856 L 292.57144 283.42856 Q 292.57144 302.85715 306.2857 315.42856 Q 318.85715 329.14285 338.2857 329.14285 L 338.2857 329.14285 Z M 109.71429 45.714287 Q 110.85714 37.714287 118.85714 36.57143 L 173.71428 36.57143 L 173.71428 36.57143 Q 181.71428 37.714287 182.85715 45.714287 L 182.85715 100.57143 L 182.85715 100.57143 Q 181.71428 108.57143 173.71428 109.71429 L 118.85714 109.71429 L 118.85714 109.71429 Q 110.85714 108.57143 109.71429 100.57143 L 109.71429 45.714287 L 109.71429 45.714287 Z M 73.14286 100.57143 Q 73.14286 120 86.85714 132.57143 L 86.85714 132.57143 L 86.85714 132.57143 Q 99.42857 146.28572 118.85714 146.28572 L 173.71428 146.28572 L 173.71428 146.28572 Q 193.14285 146.28572 205.71428 132.57143 Q 219.42857 120 219.42857 100.57143 L 219.42857 45.714287 L 219.42857 45.714287 Q 219.42857 26.285715 205.71428 13.714286 Q 193.14285 0 173.71428 0 L 118.85714 0 L 118.85714 0 Q 99.42857 0 86.85714 13.714286 Q 73.14286 26.285715 73.14286 45.714287 L 73.14286 100.57143 L 73.14286 100.57143 Z M 329.14285 100.57143 L 329.14285 45.714287 L 329.14285 100.57143 L 329.14285 45.714287 Q 330.2857 37.714287 338.2857 36.57143 L 393.14285 36.57143 L 393.14285 36.57143 Q 401.14285 37.714287 402.2857 45.714287 L 402.2857 100.57143 L 402.2857 100.57143 Q 401.14285 108.57143 393.14285 109.71429 L 338.2857 109.71429 L 338.2857 109.71429 Q 330.2857 108.57143 329.14285 100.57143 L 329.14285 100.57143 Z M 338.2857 146.28572 L 393.14285 146.28572 L 338.2857 146.28572 L 393.14285 146.28572 Q 412.57144 146.28572 425.14285 132.57143 Q 438.85715 120 438.85715 100.57143 L 438.85715 45.714287 L 438.85715 45.714287 Q 438.85715 26.285715 425.14285 13.714286 Q 412.57144 0 393.14285 0 L 338.2857 0 L 338.2857 0 Q 318.85715 0 306.2857 13.714286 Q 292.57144 26.285715 292.57144 45.714287 L 292.57144 100.57143 L 292.57144 100.57143 Q 292.57144 120 306.2857 132.57143 Q 318.85715 146.28572 338.2857 146.28572 L 338.2857 146.28572 Z" />
</svg>