<svg xmlns="http://www.w3.org/2000/svg" viewBox="0 0 576 512">
    <path d="M 128 16 Q 127 1 112 0 Q 97 1 96 16 L 96 112 L 128 112 L 128 16 L 128 16 Z M 288 16 Q 287 1 272 0 Q 257 1 256 16 L 256 112 L 288 112 L 288 16 L 288 16 Z M 16 144 Q 1 145 0 160 Q 1 175 16 176 L 32 176 L 32 240 Q 33 304 74 348 Q 114 392 176 399 L 176 496 Q 177 511 192 512 Q 207 511 208 496 L 208 399 Q 234 396 257 386 Q 256 377 256 368 Q 256 359 257 350 Q 228 368 192 368 Q 138 367 101 331 Q 65 294 64 240 L 64 176 L 320 176 L 320 232 Q 335 220 352 211 L 352 176 L 368 176 Q 383 175 384 160 Q 383 145 368 144 L 352 144 L 320 144 L 64 144 L 32 144 L 16 144 L 16 144 Z M 320 368 Q 320 338 335 312 L 335 312 Q 350 286 376 271 Q 402 256 432 256 Q 462 256 488 271 Q 514 286 529 312 Q 544 338 544 368 Q 544 398 529 424 Q 514 450 488 465 Q 462 480 432 480 Q 402 480 376 465 Q 350 450 335 424 Q 320 398 320 368 L 320 368 Z M 576 368 Q 576 329 557 296 L 557 296 Q 538 263 504 243 Q 470 224 432 224 Q 394 224 360 243 Q 326 263 307 296 Q 288 329 288 368 Q 288 407 307 440 Q 326 473 360 493 Q 394 512 432 512 Q 470 512 504 493 Q 538 473 557 440 Q 576 407 576 368 L 576 368 Z M 491 331 Q 501 320 491 309 Q 480 299 469 309 L 432 345 L 395 309 Q 384 299 373 309 Q 363 320 373 331 L 409 368 L 373 405 Q 363 416 373 427 Q 384 437 395 427 L 432 391 L 469 427 Q 480 437 491 427 Q 501 416 491 405 L 455 368 L 491 331 L 491 331 Z"/>
</svg>
