<svg xmlns="http://www.w3.org/2000/svg" viewBox="0 0 512 512">
  <path d="M 241 32 Q 269 32 291 47 L 291 47 L 291 47 Q 313 62 323 87 Q 329 97 340 97 Q 346 96 352 96 Q 363 96 373 98 Q 386 96 400 96 Q 423 96 444 103 Q 407 65 352 64 Q 350 64 348 64 Q 332 35 304 18 Q 276 0 241 0 Q 206 0 178 18 Q 150 35 134 64 Q 131 64 128 64 Q 128 64 128 64 Q 74 65 37 101 Q 1 138 0 192 Q 0 227 17 256 L 56 256 L 56 256 Q 33 230 32 192 Q 33 151 60 124 Q 87 97 128 96 Q 135 96 142 97 Q 153 98 159 87 Q 169 63 191 47 Q 213 32 241 32 L 241 32 Z M 400 160 Q 434 161 457 183 L 457 183 L 457 183 Q 479 206 480 240 Q 480 248 478 256 L 511 256 L 511 256 Q 512 248 512 240 Q 511 192 479 161 Q 448 129 400 128 Q 352 129 321 161 Q 289 192 288 240 Q 288 248 289 256 L 322 256 L 322 256 Q 320 248 320 240 Q 321 206 343 183 Q 366 161 400 160 L 400 160 Z M 129 457 Q 125 443 112 437 Q 77 421 55 391 Q 34 360 32 320 L 480 320 L 480 320 Q 478 360 457 391 Q 435 421 401 437 Q 387 443 383 457 Q 375 479 352 480 L 160 480 L 160 480 Q 137 479 129 457 L 129 457 Z M 27 288 Q 16 288 8 296 L 8 296 L 8 296 Q 0 304 0 315 Q 1 367 28 407 Q 54 446 99 466 Q 105 486 121 499 Q 138 512 160 512 L 352 512 L 352 512 Q 374 512 391 499 Q 407 486 413 466 Q 458 447 484 407 Q 511 367 512 316 Q 512 304 504 296 Q 496 288 485 288 L 27 288 L 27 288 Z M 256 112 Q 255 97 240 96 Q 225 97 224 112 L 224 240 L 224 240 Q 225 255 240 256 Q 255 255 256 240 L 256 112 L 256 112 Z M 107 149 Q 96 139 85 149 Q 75 160 85 171 L 165 251 L 165 251 Q 176 261 187 251 Q 197 240 187 229 L 107 149 L 107 149 Z" />
</svg>