<svg xmlns="http://www.w3.org/2000/svg" viewBox="0 0 512 512">
  <path d="M 455.1111 56.88889 Q 467.55554 56.88889 475.55554 64.888885 L 475.55554 64.888885 L 475.55554 64.888885 Q 483.55554 72.888885 483.55554 85.333336 L 483.55554 284.44446 L 483.55554 284.44446 Q 483.55554 296.8889 475.55554 304.8889 Q 467.55554 312.8889 455.1111 312.8889 L 56.88889 312.8889 L 56.88889 312.8889 Q 44.444443 312.8889 36.444443 304.8889 Q 28.444445 296.8889 28.444445 284.44446 L 28.444445 85.333336 L 28.444445 85.333336 Q 28.444445 72.888885 36.444443 64.888885 Q 44.444443 56.88889 56.88889 56.88889 L 455.1111 56.88889 L 455.1111 56.88889 Z M 56.88889 28.444445 Q 32.88889 29.333334 16.88889 45.333332 L 16.88889 45.333332 L 16.88889 45.333332 Q 0.8888889 61.333332 0 85.333336 L 0 284.44446 L 0 284.44446 Q 0.8888889 308.44446 16.88889 324.44446 Q 32.88889 340.44446 56.88889 341.33334 L 455.1111 341.33334 L 455.1111 341.33334 Q 479.1111 340.44446 495.1111 324.44446 Q 511.1111 308.44446 512 284.44446 L 512 85.333336 L 512 85.333336 Q 511.1111 61.333332 495.1111 45.333332 Q 479.1111 29.333334 455.1111 28.444445 L 56.88889 28.444445 L 56.88889 28.444445 Z M 56.88889 426.66666 L 56.88889 455.1111 L 56.88889 426.66666 L 56.88889 455.1111 L 28.444445 455.1111 L 28.444445 455.1111 L 28.444445 426.66666 L 28.444445 426.66666 L 56.88889 426.66666 L 56.88889 426.66666 Z M 28.444445 398.22223 Q 16 398.22223 8 406.22223 L 8 406.22223 L 8 406.22223 Q 0 414.22223 0 426.66666 L 0 455.1111 L 0 455.1111 Q 0 467.55554 8 475.55554 Q 16 483.55554 28.444445 483.55554 L 56.88889 483.55554 L 56.88889 483.55554 Q 69.333336 483.55554 77.333336 475.55554 Q 85.333336 467.55554 85.333336 455.1111 L 85.333336 426.66666 L 85.333336 426.66666 Q 85.333336 414.22223 77.333336 406.22223 Q 69.333336 398.22223 56.88889 398.22223 L 28.444445 398.22223 L 28.444445 398.22223 Z M 170.66667 426.66666 L 199.11111 426.66666 L 170.66667 426.66666 L 199.11111 426.66666 L 199.11111 455.1111 L 199.11111 455.1111 L 170.66667 455.1111 L 170.66667 455.1111 L 170.66667 426.66666 L 170.66667 426.66666 Z M 142.22223 426.66666 L 142.22223 455.1111 L 142.22223 426.66666 L 142.22223 455.1111 Q 142.22223 467.55554 150.22223 475.55554 Q 158.22223 483.55554 170.66667 483.55554 L 199.11111 483.55554 L 199.11111 483.55554 Q 211.55556 483.55554 219.55556 475.55554 Q 227.55556 467.55554 227.55556 455.1111 L 227.55556 426.66666 L 227.55556 426.66666 Q 227.55556 414.22223 219.55556 406.22223 Q 211.55556 398.22223 199.11111 398.22223 L 170.66667 398.22223 L 170.66667 398.22223 Q 158.22223 398.22223 150.22223 406.22223 Q 142.22223 414.22223 142.22223 426.66666 L 142.22223 426.66666 Z M 341.33334 426.66666 L 341.33334 455.1111 L 341.33334 426.66666 L 341.33334 455.1111 L 312.8889 455.1111 L 312.8889 455.1111 L 312.8889 426.66666 L 312.8889 426.66666 L 341.33334 426.66666 L 341.33334 426.66666 Z M 312.8889 398.22223 Q 300.44446 398.22223 292.44446 406.22223 L 292.44446 406.22223 L 292.44446 406.22223 Q 284.44446 414.22223 284.44446 426.66666 L 284.44446 455.1111 L 284.44446 455.1111 Q 284.44446 467.55554 292.44446 475.55554 Q 300.44446 483.55554 312.8889 483.55554 L 341.33334 483.55554 L 341.33334 483.55554 Q 353.77777 483.55554 361.77777 475.55554 Q 369.77777 467.55554 369.77777 455.1111 L 369.77777 426.66666 L 369.77777 426.66666 Q 369.77777 414.22223 361.77777 406.22223 Q 353.77777 398.22223 341.33334 398.22223 L 312.8889 398.22223 L 312.8889 398.22223 Z M 455.1111 426.66666 L 483.55554 426.66666 L 455.1111 426.66666 L 483.55554 426.66666 L 483.55554 455.1111 L 483.55554 455.1111 L 455.1111 455.1111 L 455.1111 455.1111 L 455.1111 426.66666 L 455.1111 426.66666 Z M 426.66666 426.66666 L 426.66666 455.1111 L 426.66666 426.66666 L 426.66666 455.1111 Q 426.66666 467.55554 434.66666 475.55554 Q 442.66666 483.55554 455.1111 483.55554 L 483.55554 483.55554 L 483.55554 483.55554 Q 496 483.55554 504 475.55554 Q 512 467.55554 512 455.1111 L 512 426.66666 L 512 426.66666 Q 512 414.22223 504 406.22223 Q 496 398.22223 483.55554 398.22223 L 455.1111 398.22223 L 455.1111 398.22223 Q 442.66666 398.22223 434.66666 406.22223 Q 426.66666 414.22223 426.66666 426.66666 L 426.66666 426.66666 Z" />
</svg>