<svg xmlns="http://www.w3.org/2000/svg" viewBox="0 0 576 320">
    <path d="M 160 32 Q 106 33 69 69 L 69 69 Q 33 106 32 160 Q 33 214 69 251 Q 106 287 160 288 L 416 288 Q 470 287 507 251 Q 543 214 544 160 Q 543 106 507 69 Q 470 33 416 32 L 160 32 L 160 32 Z M 0 160 Q 2 92 47 47 L 47 47 Q 92 2 160 0 L 416 0 Q 484 2 529 47 Q 574 92 576 160 Q 574 228 529 273 Q 484 318 416 320 L 160 320 Q 92 318 47 273 Q 2 228 0 160 L 0 160 Z M 480 160 Q 479 124 448 105 Q 416 87 384 105 Q 353 124 352 160 Q 353 196 384 215 Q 416 233 448 215 Q 479 196 480 160 L 480 160 Z M 320 160 Q 320 134 333 112 L 333 112 Q 346 90 368 77 Q 391 64 416 64 Q 441 64 464 77 Q 486 90 499 112 Q 512 134 512 160 Q 512 186 499 208 Q 486 230 464 243 Q 441 256 416 256 Q 391 256 368 243 Q 346 230 333 208 Q 320 186 320 160 L 320 160 Z"/>
</svg>
