<svg xmlns="http://www.w3.org/2000/svg" viewBox="0 0 512 512">
  <path d="M 191 32 Q 158 34 146 65 L 135 96 L 135 96 L 64 96 L 64 96 Q 37 97 19 115 Q 1 133 0 160 L 0 416 L 0 416 Q 1 443 19 461 Q 37 479 64 480 L 448 480 L 448 480 Q 475 479 493 461 Q 511 443 512 416 L 512 160 L 512 160 Q 511 133 493 115 Q 475 97 448 96 L 377 96 L 377 96 L 367 65 L 367 65 Q 354 34 321 32 L 191 32 L 191 32 Z M 176 75 Q 180 65 191 64 L 321 64 L 321 64 Q 332 65 336 75 L 350 117 L 350 117 Q 354 127 365 128 L 448 128 L 448 128 Q 462 128 471 137 Q 480 146 480 160 L 480 416 L 480 416 Q 480 430 471 439 Q 462 448 448 448 L 64 448 L 64 448 Q 50 448 41 439 Q 32 430 32 416 L 32 160 L 32 160 Q 32 146 41 137 Q 50 128 64 128 L 147 128 L 147 128 Q 158 127 162 117 L 176 75 L 176 75 Z M 352 272 Q 367 271 368 256 L 368 192 L 368 192 Q 367 177 352 176 Q 337 177 336 192 L 336 217 L 336 217 L 322 203 L 322 203 Q 294 177 256 176 Q 226 176 202 190 Q 178 203 163 226 Q 156 239 167 248 Q 180 255 189 244 Q 213 210 256 208 Q 281 208 299 226 L 313 240 L 313 240 L 288 240 L 288 240 Q 273 241 272 256 Q 273 271 288 272 L 352 272 L 352 272 Z M 160 304 Q 145 305 144 320 L 144 384 L 144 384 Q 145 399 160 400 Q 175 399 176 384 L 176 359 L 176 359 L 190 373 L 190 373 Q 218 399 256 400 Q 286 400 310 386 Q 334 373 349 350 Q 356 337 345 328 Q 332 321 323 332 Q 299 366 256 368 Q 231 368 213 350 L 199 336 L 199 336 L 224 336 L 224 336 Q 239 335 240 320 Q 239 305 224 304 L 160 304 L 160 304 Z" />
</svg>