<svg xmlns="http://www.w3.org/2000/svg" viewBox="0 0 640 512">
    <path d="M 16 0 Q 1 1 0 16 Q 1 31 16 32 L 67 32 L 144 372 Q 148 383 160 384 L 321 384 Q 320 376 320 368 Q 320 360 321 352 L 173 352 L 158 288 L 339 288 Q 348 271 360 256 L 151 256 L 107 64 L 542 64 L 506 192 Q 522 193 538 197 L 573 73 Q 576 57 567 45 Q 558 33 542 32 L 100 32 L 96 13 Q 92 1 80 0 L 16 0 L 16 0 Z M 184 432 Q 206 434 208 456 Q 206 478 184 480 Q 162 478 160 456 Q 162 434 184 432 L 184 432 Z M 184 512 Q 216 511 232 484 Q 248 456 232 428 Q 216 401 184 400 Q 152 401 136 428 Q 120 456 136 484 Q 152 511 184 512 L 184 512 Z M 496 256 Q 526 256 552 271 L 552 271 Q 578 286 593 312 Q 608 338 608 368 Q 608 398 593 424 Q 578 450 552 465 Q 526 480 496 480 Q 466 480 440 465 Q 414 450 399 424 Q 384 398 384 368 Q 384 338 399 312 Q 414 286 440 271 Q 466 256 496 256 L 496 256 Z M 496 512 Q 535 512 568 493 L 568 493 Q 601 474 621 440 Q 640 406 640 368 Q 640 330 621 296 Q 601 262 568 243 Q 535 224 496 224 Q 457 224 424 243 Q 391 262 371 296 Q 352 330 352 368 Q 352 406 371 440 Q 391 474 424 493 Q 457 512 496 512 L 496 512 Z M 563 325 Q 552 315 541 325 L 480 385 L 451 357 Q 440 347 429 357 Q 419 368 429 379 L 469 419 Q 480 429 491 419 L 563 347 Q 573 336 563 325 L 563 325 Z"/>
</svg>
