<svg xmlns="http://www.w3.org/2000/svg" viewBox="0 0 512 512">
  <path d="M 80 320 Q 53 321 38 344 Q 26 368 38 392 Q 53 415 80 416 Q 107 415 122 392 Q 134 368 122 344 Q 107 321 80 320 L 80 320 Z M 158 352 L 496 352 L 158 352 L 496 352 Q 511 353 512 368 Q 511 383 496 384 L 158 384 L 158 384 Q 152 412 131 430 Q 110 447 80 448 Q 46 447 23 425 Q 1 402 0 368 Q 1 334 23 311 Q 46 289 80 288 Q 110 289 131 306 Q 152 324 158 352 L 158 352 Z M 384 144 Q 385 171 408 186 Q 432 198 456 186 Q 479 171 480 144 Q 479 117 456 102 Q 432 90 408 102 Q 385 117 384 144 L 384 144 Z M 354 128 Q 360 100 381 82 L 381 82 L 381 82 Q 402 65 432 64 Q 466 65 489 87 Q 511 110 512 144 Q 511 178 489 201 Q 466 223 432 224 Q 402 223 381 206 Q 360 188 354 160 L 16 160 L 16 160 Q 1 159 0 144 Q 1 129 16 128 L 354 128 L 354 128 Z" />
</svg>