<svg xmlns="http://www.w3.org/2000/svg" viewBox="0 0 512 512">
  <path d="M 26.511328 61.30744 Q 17.398058 53.022655 8.28479 61.30744 Q 0 70.420715 8.28479 79.53398 L 77.87702 149.9547 L 77.87702 149.9547 L 30.65372 149.9547 L 30.65372 149.9547 Q 18.226538 150.78317 17.398058 163.21036 Q 18.226538 175.63754 30.65372 176.46602 L 110.187706 176.46602 L 110.187706 176.46602 Q 122.61488 175.63754 123.44337 163.21036 L 123.44337 83.67638 L 123.44337 83.67638 Q 122.61488 71.24919 110.187706 70.420715 Q 97.76052 71.24919 96.93204 83.67638 L 96.93204 130.89967 L 96.93204 130.89967 L 26.511328 61.30744 L 26.511328 61.30744 Z M 485.48868 61.30744 L 415.06796 130.89967 L 485.48868 61.30744 L 415.06796 130.89967 L 415.06796 83.67638 L 415.06796 83.67638 Q 414.23947 71.24919 401.8123 70.420715 Q 389.3851 71.24919 388.55664 83.67638 L 388.55664 163.21036 L 388.55664 163.21036 Q 389.3851 175.63754 401.8123 176.46602 L 481.34628 176.46602 L 481.34628 176.46602 Q 493.77347 175.63754 494.60193 163.21036 Q 493.77347 150.78317 481.34628 149.9547 L 434.123 149.9547 L 434.123 149.9547 L 503.7152 79.53398 L 503.7152 79.53398 Q 512 70.420715 503.7152 61.30744 Q 494.60193 53.022655 485.48868 61.30744 L 485.48868 61.30744 Z M 256 348.78964 Q 207.94823 346.3042 174.80907 317.30743 L 174.80907 317.30743 L 174.80907 317.30743 Q 141.6699 287.4822 125.9288 256 Q 141.6699 224.51779 174.80907 194.69255 Q 207.94823 165.69579 256 163.21036 Q 304.0518 165.69579 337.19095 194.69255 Q 370.3301 224.51779 386.0712 256 Q 370.3301 287.4822 337.19095 317.30743 Q 304.0518 346.3042 256 348.78964 L 256 348.78964 Z M 256 136.69904 Q 215.40453 137.52751 184.75081 155.75404 L 184.75081 155.75404 L 184.75081 155.75404 Q 154.09709 173.98058 132.55664 198.83495 L 132.55664 198.83495 L 132.55664 198.83495 Q 111.84466 224.51779 101.902916 246.05826 Q 96.93204 256 101.902916 265.94174 Q 111.84466 287.4822 132.55664 313.16504 Q 154.09709 338.0194 184.75081 356.24594 Q 215.40453 374.4725 256 375.30096 Q 296.59546 374.4725 327.24918 356.24594 Q 357.90292 338.0194 379.44336 313.16504 Q 400.15533 287.4822 410.92557 265.94174 Q 415.06796 256 410.92557 246.05826 Q 400.15533 224.51779 379.44336 198.83495 Q 357.90292 173.98058 327.24918 155.75404 Q 296.59546 137.52751 256 136.69904 L 256 136.69904 Z M 485.48868 450.69257 Q 494.60193 458.97736 503.7152 450.69257 Q 512 441.57928 503.7152 432.46603 L 434.123 362.04532 L 434.123 362.04532 L 481.34628 362.04532 L 481.34628 362.04532 Q 493.77347 361.21683 494.60193 348.78964 Q 493.77347 336.36246 481.34628 335.53397 L 401.8123 335.53397 L 401.8123 335.53397 Q 389.3851 336.36246 388.55664 348.78964 L 388.55664 428.32364 L 388.55664 428.32364 Q 389.3851 440.75082 401.8123 441.57928 Q 414.23947 440.75082 415.06796 428.32364 L 415.06796 381.1003 L 415.06796 381.1003 L 485.48868 450.69257 L 485.48868 450.69257 Z M 8.28479 432.46603 Q 0 441.57928 8.28479 450.69257 Q 17.398058 458.97736 26.511328 450.69257 L 96.93204 381.1003 L 96.93204 381.1003 L 96.93204 428.32364 L 96.93204 428.32364 Q 97.76052 440.75082 110.187706 441.57928 Q 122.61488 440.75082 123.44337 428.32364 L 123.44337 348.78964 L 123.44337 348.78964 Q 122.61488 336.36246 110.187706 335.53397 L 30.65372 335.53397 L 30.65372 335.53397 Q 18.226538 336.36246 17.398058 348.78964 Q 18.226538 361.21683 30.65372 362.04532 L 77.87702 362.04532 L 77.87702 362.04532 L 8.28479 432.46603 L 8.28479 432.46603 Z M 216.23302 256 Q 217.0615 233.63107 236.1165 221.20389 Q 256 211.26213 275.88348 221.20389 Q 294.9385 233.63107 295.767 256 Q 294.9385 278.36893 275.88348 290.7961 Q 256 300.73785 236.1165 290.7961 Q 217.0615 278.36893 216.23302 256 L 216.23302 256 Z M 322.27832 256 Q 321.44983 218.71844 289.13916 198.83495 Q 256 180.60841 222.86084 198.83495 Q 190.55016 218.71844 189.72168 256 Q 190.55016 293.28156 222.86084 313.16504 Q 256 331.39157 289.13916 313.16504 Q 321.44983 293.28156 322.27832 256 L 322.27832 256 Z" />
</svg>