<svg xmlns="http://www.w3.org/2000/svg" viewBox="0 0 512 512">
  <path d="M 50.8031007751938 52.78759689922481 Q 29.370542635658914 53.58139534883721 15.082170542635659 67.86976744186046 L 15.082170542635659 67.86976744186046 L 15.082170542635659 67.86976744186046 Q 0.7937984496124031 82.15813953488372 0 103.5906976744186 L 0 408.4093023255814 L 0 408.4093023255814 L 0 408.4093023255814 L 0 408.4093023255814 Q 0.7937984496124031 429.84186046511627 15.082170542635659 444.13023255813954 Q 29.370542635658914 458.4186046511628 50.8031007751938 459.2124031007752 L 342.92093023255813 459.2124031007752 L 342.92093023255813 459.2124031007752 Q 354.8279069767442 458.4186046511628 355.6217054263566 446.51162790697674 Q 354.8279069767442 434.6046511627907 342.92093023255813 433.8108527131783 L 330.2201550387597 433.8108527131783 L 330.2201550387597 433.8108527131783 L 330.2201550387597 380.6263565891473 L 330.2201550387597 380.6263565891473 Q 354.03410852713176 371.1007751937984 355.6217054263566 344.90542635658915 L 355.6217054263566 268.70077519379845 L 355.6217054263566 268.70077519379845 L 330.2201550387597 268.70077519379845 L 330.2201550387597 268.70077519379845 L 330.2201550387597 344.90542635658915 L 330.2201550387597 344.90542635658915 Q 329.4263565891473 356.8124031007752 317.51937984496124 357.6062015503876 L 50.8031007751938 357.6062015503876 L 50.8031007751938 357.6062015503876 Q 36.51472868217054 357.6062015503876 25.4015503875969 364.7503875968992 L 25.4015503875969 103.5906976744186 L 25.4015503875969 103.5906976744186 Q 25.4015503875969 92.47751937984496 32.54573643410853 85.33333333333333 Q 39.689922480620154 78.18914728682171 50.8031007751938 78.18914728682171 L 317.51937984496124 78.18914728682171 L 317.51937984496124 78.18914728682171 Q 329.4263565891473 78.9829457364341 330.2201550387597 90.88992248062016 L 330.2201550387597 167.09457364341085 L 330.2201550387597 167.09457364341085 L 355.6217054263566 167.09457364341085 L 355.6217054263566 167.09457364341085 L 355.6217054263566 90.88992248062016 L 355.6217054263566 90.88992248062016 Q 354.8279069767442 75.0139534883721 344.50852713178296 63.90077519379845 Q 333.3953488372093 53.58139534883721 317.51937984496124 52.78759689922481 L 50.8031007751938 52.78759689922481 L 50.8031007751938 52.78759689922481 Z M 304.8186046511628 383.0077519379845 L 304.8186046511628 433.8108527131783 L 304.8186046511628 383.0077519379845 L 304.8186046511628 433.8108527131783 L 50.8031007751938 433.8108527131783 L 50.8031007751938 433.8108527131783 Q 39.689922480620154 433.8108527131783 32.54573643410853 426.6666666666667 Q 25.4015503875969 419.522480620155 25.4015503875969 408.4093023255814 Q 25.4015503875969 397.29612403100776 32.54573643410853 390.1519379844961 Q 39.689922480620154 383.0077519379845 50.8031007751938 383.0077519379845 L 304.8186046511628 383.0077519379845 L 304.8186046511628 383.0077519379845 Z M 427.85736434108526 132.96124031007753 Q 419.12558139534883 125.02325581395348 410.3937984496124 132.96124031007753 Q 402.45581395348836 141.69302325581396 410.3937984496124 150.42480620155038 L 464.3720930232558 205.1968992248062 L 464.3720930232558 205.1968992248062 L 215.91317829457364 205.1968992248062 L 215.91317829457364 205.1968992248062 Q 204.0062015503876 205.9906976744186 203.2124031007752 217.89767441860465 Q 204.0062015503876 229.8046511627907 215.91317829457364 230.5984496124031 L 464.3720930232558 230.5984496124031 L 464.3720930232558 230.5984496124031 L 410.3937984496124 285.3705426356589 L 410.3937984496124 285.3705426356589 Q 402.45581395348836 294.10232558139535 410.3937984496124 302.8341085271318 Q 419.12558139534883 310.7720930232558 427.85736434108526 302.8341085271318 L 504.06201550387595 226.62945736434108 L 504.06201550387595 226.62945736434108 Q 512 217.89767441860465 504.06201550387595 209.16589147286822 L 427.85736434108526 132.96124031007753 L 427.85736434108526 132.96124031007753 Z" />
</svg>