<svg xmlns="http://www.w3.org/2000/svg" viewBox="0 0 512 512">
  <path d="M 234 5 Q 245 0 256 0 Q 267 0 278 5 L 495 102 L 495 102 Q 511 110 512 128 Q 511 146 495 154 L 278 251 L 278 251 Q 267 256 256 256 Q 245 256 234 251 L 17 154 L 17 154 Q 1 146 0 128 Q 1 110 17 102 L 234 5 L 234 5 Z M 256 32 Q 251 32 247 34 L 37 128 L 37 128 L 247 222 L 247 222 Q 251 224 256 224 Q 261 224 265 222 L 475 128 L 475 128 L 265 34 L 265 34 Q 261 32 256 32 L 256 32 Z M 17 358 L 63 338 L 17 358 L 63 338 L 102 355 L 102 355 L 37 384 L 37 384 L 247 478 L 247 478 Q 251 480 256 480 Q 261 480 265 478 L 475 384 L 475 384 L 410 355 L 410 355 L 449 338 L 449 338 L 495 358 L 495 358 Q 511 366 512 384 Q 511 402 495 410 L 278 507 L 278 507 Q 267 512 256 512 Q 245 512 234 507 L 17 410 L 17 410 Q 1 402 0 384 Q 1 366 17 358 L 17 358 Z M 63 210 L 102 227 L 63 210 L 102 227 L 37 256 L 37 256 L 247 350 L 247 350 Q 251 352 256 352 Q 261 352 265 350 L 475 256 L 475 256 L 410 227 L 410 227 L 449 210 L 449 210 L 495 230 L 495 230 Q 511 238 512 256 Q 511 274 495 282 L 278 379 L 278 379 Q 267 384 256 384 Q 245 384 234 379 L 17 282 L 17 282 Q 1 274 0 256 Q 1 238 17 230 L 63 210 L 63 210 Z" />
</svg>