<svg xmlns="http://www.w3.org/2000/svg" viewBox="0 0 512 512">
  <path d="M 56.888888888888886 113.77777777777777 Q 44.44444444444444 113.77777777777777 36.44444444444444 121.77777777777777 L 36.44444444444444 121.77777777777777 L 36.44444444444444 121.77777777777777 Q 28.444444444444443 129.77777777777777 28.444444444444443 142.22222222222223 L 28.444444444444443 369.77777777777777 L 28.444444444444443 369.77777777777777 Q 28.444444444444443 382.22222222222223 36.44444444444444 390.22222222222223 Q 44.44444444444444 398.22222222222223 56.888888888888886 398.22222222222223 L 284.44444444444446 398.22222222222223 L 284.44444444444446 398.22222222222223 Q 296.8888888888889 398.22222222222223 304.8888888888889 390.22222222222223 Q 312.8888888888889 382.22222222222223 312.8888888888889 369.77777777777777 L 312.8888888888889 142.22222222222223 L 312.8888888888889 142.22222222222223 Q 312.8888888888889 129.77777777777777 304.8888888888889 121.77777777777777 Q 296.8888888888889 113.77777777777777 284.44444444444446 113.77777777777777 L 56.888888888888886 113.77777777777777 L 56.888888888888886 113.77777777777777 Z M 0 142.22222222222223 Q 0.8888888888888888 118.22222222222223 16.88888888888889 102.22222222222223 L 16.88888888888889 102.22222222222223 L 16.88888888888889 102.22222222222223 Q 32.888888888888886 86.22222222222223 56.888888888888886 85.33333333333333 L 284.44444444444446 85.33333333333333 L 284.44444444444446 85.33333333333333 Q 308.44444444444446 86.22222222222223 324.44444444444446 102.22222222222223 Q 340.44444444444446 118.22222222222223 341.3333333333333 142.22222222222223 L 341.3333333333333 184 L 341.3333333333333 184 L 341.3333333333333 328 L 341.3333333333333 328 L 341.3333333333333 369.77777777777777 L 341.3333333333333 369.77777777777777 Q 340.44444444444446 393.77777777777777 324.44444444444446 409.77777777777777 Q 308.44444444444446 425.77777777777777 284.44444444444446 426.6666666666667 L 56.888888888888886 426.6666666666667 L 56.888888888888886 426.6666666666667 Q 32.888888888888886 425.77777777777777 16.88888888888889 409.77777777777777 Q 0.8888888888888888 393.77777777777777 0 369.77777777777777 L 0 142.22222222222223 L 0 142.22222222222223 Z M 461.3333333333333 393.77777777777777 L 369.77777777777777 343.1111111111111 L 461.3333333333333 393.77777777777777 L 369.77777777777777 343.1111111111111 L 369.77777777777777 311.1111111111111 L 369.77777777777777 311.1111111111111 L 475.55555555555554 368.8888888888889 L 475.55555555555554 368.8888888888889 Q 476.44444444444446 369.77777777777777 478.22222222222223 369.77777777777777 Q 482.6666666666667 369.77777777777777 483.55555555555554 364.44444444444446 L 483.55555555555554 147.55555555555554 L 483.55555555555554 147.55555555555554 Q 482.6666666666667 143.11111111111111 478.22222222222223 142.22222222222223 Q 476.44444444444446 142.22222222222223 475.55555555555554 143.11111111111111 L 369.77777777777777 200.88888888888889 L 369.77777777777777 200.88888888888889 L 369.77777777777777 168.88888888888889 L 369.77777777777777 168.88888888888889 L 461.3333333333333 118.22222222222223 L 461.3333333333333 118.22222222222223 Q 469.3333333333333 113.77777777777777 478.22222222222223 113.77777777777777 Q 492.44444444444446 113.77777777777777 502.22222222222223 123.55555555555556 Q 512 133.33333333333334 512 147.55555555555554 L 512 364.44444444444446 L 512 364.44444444444446 Q 512 378.6666666666667 502.22222222222223 388.44444444444446 Q 492.44444444444446 398.22222222222223 478.22222222222223 398.22222222222223 Q 469.3333333333333 398.22222222222223 461.3333333333333 393.77777777777777 L 461.3333333333333 393.77777777777777 Z" />
</svg>