<svg xmlns="http://www.w3.org/2000/svg" viewBox="0 0 512 512">
  <path d="M 248.8 54.8 Q 256 50 263.2 54.8 L 375.2 129.2 L 375.2 129.2 L 460.8 129.2 L 460.8 129.2 Q 482.4 130 496.8 144.4 Q 511.2 158.8 512 180.4 L 512 266 L 512 266 Q 500.8 250 486.4 238 L 486.4 180.4 L 486.4 180.4 Q 486.4 169.2 479.2 162 Q 472 154.8 460.8 154.8 L 371.2 154.8 L 371.2 154.8 Q 367.2 154.8 364 152.4 L 256 80.4 L 256 80.4 L 148 152.4 L 148 152.4 Q 144.8 154.8 140.8 154.8 L 51.2 154.8 L 51.2 154.8 Q 40 154.8 32.8 162 Q 25.6 169.2 25.6 180.4 L 25.6 410.8 L 25.6 410.8 Q 25.6 422 32.8 429.2 Q 40 436.4 51.2 436.4 L 204.8 436.4 L 204.8 436.4 L 204.8 359.6 L 204.8 359.6 Q 205.6 338 220 323.6 Q 234.4 309.2 256 308.4 Q 258.4 308.4 261.6 308.4 Q 257.6 321.2 256.8 334 L 256 334 L 256 334 Q 244.8 334 237.6 341.2 Q 230.4 348.4 230.4 359.6 L 230.4 436.4 L 230.4 436.4 L 256 436.4 L 288 436.4 Q 300 450.8 316 462 L 307.2 462 L 51.2 462 Q 29.6 461.2 15.2 446.8 Q 0.8 432.4 0 410.8 L 0 180.4 L 0 180.4 Q 0.8 158.8 15.2 144.4 Q 29.6 130 51.2 129.2 L 136.8 129.2 L 136.8 129.2 L 248.8 54.8 L 248.8 54.8 Z M 332.8 206 Q 332.8 214.8 331.2 222 Q 292.8 242.8 272 281.2 Q 264.8 282.8 256 282.8 Q 223.2 282 201.6 260.4 Q 180 238.8 179.2 206 Q 180 173.2 201.6 151.6 Q 223.2 130 256 129.2 Q 288.8 130 310.4 151.6 Q 332 173.2 332.8 206 L 332.8 206 Z M 102.4 180.4 L 128 180.4 L 102.4 180.4 L 128 180.4 Q 139.2 180.4 146.4 187.6 Q 153.6 194.8 153.6 206 L 153.6 257.2 L 153.6 257.2 Q 153.6 268.4 146.4 275.6 Q 139.2 282.8 128 282.8 L 102.4 282.8 L 102.4 282.8 Q 91.2 282.8 84 275.6 Q 76.8 268.4 76.8 257.2 L 76.8 206 L 76.8 206 Q 76.8 194.8 84 187.6 Q 91.2 180.4 102.4 180.4 L 102.4 180.4 Z M 102.4 206 L 102.4 257.2 L 102.4 206 L 102.4 257.2 L 128 257.2 L 128 257.2 L 128 206 L 128 206 L 102.4 206 L 102.4 206 Z M 76.8 334 Q 76.8 322.8 84 315.6 L 84 315.6 L 84 315.6 Q 91.2 308.4 102.4 308.4 L 128 308.4 L 128 308.4 Q 139.2 308.4 146.4 315.6 Q 153.6 322.8 153.6 334 L 153.6 385.2 L 153.6 385.2 Q 153.6 396.4 146.4 403.6 Q 139.2 410.8 128 410.8 L 102.4 410.8 L 102.4 410.8 Q 91.2 410.8 84 403.6 Q 76.8 396.4 76.8 385.2 L 76.8 334 L 76.8 334 Z M 128 334 L 102.4 334 L 128 334 L 102.4 334 L 102.4 385.2 L 102.4 385.2 L 128 385.2 L 128 385.2 L 128 334 L 128 334 Z M 256 257.2 Q 284.8 256.4 300 231.6 Q 314.4 206 300 180.4 Q 284.8 155.6 256 154.8 Q 227.2 155.6 212 180.4 Q 197.6 206 212 231.6 Q 227.2 256.4 256 257.2 L 256 257.2 Z M 268.8 180.4 L 268.8 193.2 L 268.8 180.4 L 268.8 193.2 L 275.2 193.2 L 275.2 193.2 Q 287.2 194 288 206 Q 287.2 218 275.2 218.8 L 256 218.8 L 256 218.8 Q 244 218 243.2 206 L 243.2 180.4 L 243.2 180.4 Q 244 168.4 256 167.6 Q 268 168.4 268.8 180.4 L 268.8 180.4 Z M 396.8 436.4 Q 420.8 436.4 441.6 424.4 L 441.6 424.4 L 441.6 424.4 Q 462.4 412.4 474.4 391.6 Q 486.4 370.8 486.4 346.8 Q 486.4 322.8 474.4 302 Q 462.4 281.2 441.6 269.2 Q 420.8 257.2 396.8 257.2 Q 372.8 257.2 352 269.2 Q 331.2 281.2 319.2 302 Q 307.2 322.8 307.2 346.8 Q 307.2 370.8 319.2 391.6 Q 331.2 412.4 352 424.4 Q 372.8 436.4 396.8 436.4 L 396.8 436.4 Z M 396.8 231.6 Q 428 231.6 454.4 246.8 L 454.4 246.8 L 454.4 246.8 Q 480.8 262 496.8 289.2 Q 512 316.4 512 346.8 Q 512 377.2 496.8 404.4 Q 480.8 431.6 454.4 446.8 Q 428 462 396.8 462 Q 365.6 462 339.2 446.8 Q 312.8 431.6 296.8 404.4 Q 281.6 377.2 281.6 346.8 Q 281.6 316.4 296.8 289.2 Q 312.8 262 339.2 246.8 Q 365.6 231.6 396.8 231.6 L 396.8 231.6 Z M 450.4 312.4 Q 458.4 321.2 450.4 330 L 392.8 387.6 L 392.8 387.6 Q 384 395.6 375.2 387.6 L 343.2 355.6 L 343.2 355.6 Q 335.2 346.8 343.2 338 Q 352 330 360.8 338 L 384 360.4 L 384 360.4 L 432.8 312.4 L 432.8 312.4 Q 441.6 304.4 450.4 312.4 L 450.4 312.4 Z" />
</svg>