<svg xmlns="http://www.w3.org/2000/svg" viewBox="0 0 512 514">
    <path d="M 192 416 Q 192 402 183 393 L 183 393 Q 174 384 160 384 L 64 384 Q 50 384 41 375 Q 32 366 32 352 L 32 64 Q 32 50 41 41 Q 50 32 64 32 L 448 32 Q 462 32 471 41 Q 480 50 480 64 L 480 352 Q 480 366 471 375 Q 462 384 448 384 L 309 384 Q 299 384 290 390 L 192 464 L 192 416 L 192 416 Z M 64 0 Q 37 1 19 19 L 19 19 Q 1 37 0 64 L 0 352 Q 1 379 19 397 Q 37 415 64 416 L 128 416 L 160 416 L 160 448 L 160 496 Q 160 506 169 510 Q 178 514 186 509 L 309 416 L 448 416 Q 475 415 493 397 Q 511 379 512 352 L 512 64 Q 511 37 493 19 Q 475 1 448 0 L 64 0 L 64 0 Z M 345 83 Q 338 78 330 81 L 202 129 Q 193 133 192 144 L 192 235 Q 184 232 176 232 Q 156 232 142 245 Q 129 257 128 276 Q 129 295 142 307 Q 156 320 176 320 Q 196 320 210 307 Q 223 295 224 276 Q 224 275 224 274 Q 224 273 224 273 Q 224 272 224 272 L 224 155 L 320 119 L 320 203 Q 312 200 304 200 Q 284 200 270 213 Q 257 225 256 244 Q 257 263 270 275 Q 284 288 304 288 Q 324 288 338 275 Q 351 263 352 244 Q 352 243 352 242 Q 352 241 352 241 Q 352 240 352 240 L 352 96 Q 352 88 345 83 L 345 83 Z M 320 244 Q 321 253 304 256 Q 287 253 288 244 Q 287 235 304 232 Q 321 235 320 244 L 320 244 Z M 192 276 Q 193 285 176 288 Q 159 285 160 276 Q 159 267 176 264 Q 193 267 192 276 L 192 276 Z"/>
</svg>
