<svg xmlns="http://www.w3.org/2000/svg" viewBox="0 0 448 448">
    <path d="M 48 32 Q 33 33 32 48 L 32 208 Q 33 223 48 224 L 144 224 Q 159 223 160 208 L 160 48 Q 159 33 144 32 L 48 32 L 48 32 Z M 0 48 Q 1 28 14 14 L 14 14 Q 28 1 48 0 L 144 0 Q 164 1 178 14 Q 191 28 192 48 L 192 208 Q 191 228 178 242 Q 164 255 144 256 L 48 256 Q 28 255 14 242 Q 1 228 0 208 L 0 48 L 0 48 Z M 304 224 Q 289 225 288 240 L 288 400 Q 289 415 304 416 L 400 416 Q 415 415 416 400 L 416 240 Q 415 225 400 224 L 304 224 L 304 224 Z M 256 240 Q 257 220 270 206 L 270 206 Q 284 193 304 192 L 400 192 Q 420 193 434 206 Q 447 220 448 240 L 448 400 Q 447 420 434 434 Q 420 447 400 448 L 304 448 Q 284 447 270 434 Q 257 420 256 400 L 256 240 L 256 240 Z M 144 320 L 48 320 Q 33 321 32 336 L 32 400 Q 33 415 48 416 L 144 416 Q 159 415 160 400 L 160 336 Q 159 321 144 320 L 144 320 Z M 48 288 L 144 288 Q 164 289 178 302 Q 191 316 192 336 L 192 400 Q 191 420 178 434 Q 164 447 144 448 L 48 448 Q 28 447 14 434 Q 1 420 0 400 L 0 336 Q 1 316 14 302 Q 28 289 48 288 L 48 288 Z M 304 32 Q 289 33 288 48 L 288 112 Q 289 127 304 128 L 400 128 Q 415 127 416 112 L 416 48 Q 415 33 400 32 L 304 32 L 304 32 Z M 256 48 Q 257 28 270 14 L 270 14 Q 284 1 304 0 L 400 0 Q 420 1 434 14 Q 447 28 448 48 L 448 112 Q 447 132 434 146 Q 420 159 400 160 L 304 160 Q 284 159 270 146 Q 257 132 256 112 L 256 48 L 256 48 Z"/>
</svg>
