<svg xmlns="http://www.w3.org/2000/svg" viewBox="0 0 512 512">
  <path d="M 16.30888 0 L 206.08495 0 L 16.30888 0 L 206.08495 0 Q 220.9112 0.98841697 221.89961 15.8146715 Q 220.9112 30.640926 206.08495 31.629343 L 16.30888 31.629343 L 16.30888 31.629343 Q 1.4826255 30.640926 0.49420848 15.8146715 Q 1.4826255 0.98841697 16.30888 0 L 16.30888 0 Z M 16.30888 63.258686 L 206.08495 63.258686 L 16.30888 63.258686 L 206.08495 63.258686 Q 220.9112 64.2471 221.89961 79.07336 Q 220.9112 93.89961 206.08495 94.88803 L 127.01158 94.88803 L 127.01158 94.88803 L 127.01158 205.59073 L 127.01158 205.59073 Q 126.02316 220.41699 111.196915 221.40541 Q 96.37066 220.41699 95.38224 205.59073 L 95.38224 94.88803 L 95.38224 94.88803 L 16.30888 94.88803 L 16.30888 94.88803 Q 1.4826255 93.89961 0.49420848 79.07336 Q 1.4826255 64.2471 16.30888 63.258686 L 16.30888 63.258686 Z M 469.00388 3.9536679 Q 483.8301 1.9768339 494.7027 10.872587 L 494.7027 10.872587 L 494.7027 10.872587 Q 505.5753 19.76834 506.56372 35.58301 L 506.56372 166.05405 L 506.56372 166.05405 L 506.56372 166.05405 L 506.56372 166.05405 Q 506.56372 168.03088 506.56372 170.00772 Q 505.5753 191.7529 487.78378 206.57915 Q 469.99228 220.41699 443.30502 221.40541 Q 416.61777 220.41699 398.82626 206.57915 Q 381.03476 191.7529 380.04633 170.00772 Q 381.03476 148.26254 398.82626 133.4363 Q 416.61777 119.59846 443.30502 118.61004 Q 461.09653 118.61004 474.93436 125.52896 L 474.93436 35.58301 L 474.93436 35.58301 L 348.417 60.293438 L 348.417 60.293438 L 348.417 197.6834 L 348.417 197.6834 L 348.417 197.6834 L 348.417 197.6834 Q 348.417 199.66023 348.417 201.63707 Q 347.42856 223.38223 329.63705 238.2085 Q 311.84555 252.04633 285.1583 253.03474 Q 258.47104 252.04633 240.67953 238.2085 Q 222.88803 223.38223 221.89961 201.63707 Q 222.88803 179.89189 240.67953 165.06564 Q 258.47104 151.2278 285.1583 150.23938 Q 302.9498 150.23938 316.78766 157.1583 L 316.78766 60.293438 L 316.78766 60.293438 Q 318.76447 35.58301 342.48648 29.65251 L 469.00388 3.9536679 L 469.00388 3.9536679 Z M 474.93436 170.00772 Q 475.9228 165.06564 468.01544 158.14671 Q 460.1081 151.2278 443.30502 150.23938 Q 427.49036 151.2278 418.5946 158.14671 Q 410.68726 165.06564 411.6757 170.00772 Q 410.68726 174.94981 418.5946 181.86873 Q 426.50192 188.78764 443.30502 189.77606 Q 459.1197 188.78764 468.01544 181.86873 Q 475.9228 174.94981 474.93436 170.00772 L 474.93436 170.00772 Z M 316.78766 201.63707 Q 317.77606 196.69498 309.8687 189.77606 Q 301.9614 182.85715 285.1583 181.86873 Q 269.34363 182.85715 260.44788 189.77606 Q 252.54054 196.69498 253.52896 201.63707 Q 252.54054 206.57915 260.44788 213.49806 Q 268.35522 220.41699 285.1583 221.40541 Q 300.97296 220.41699 309.8687 213.49806 Q 317.77606 206.57915 316.78766 201.63707 L 316.78766 201.63707 Z M 332.60233 347.9228 Q 347.42856 346.93436 348.417 332.1081 Q 347.42856 317.28186 332.60233 316.29343 Q 317.77606 317.28186 316.78766 332.1081 Q 317.77606 346.93436 332.60233 347.9228 L 332.60233 347.9228 Z M 332.60233 284.6641 Q 359.28958 285.6525 374.11584 308.3861 Q 385.97684 332.1081 374.11584 355.8301 Q 359.28958 378.56372 332.60233 379.55212 Q 305.91507 378.56372 291.0888 355.8301 Q 279.2278 332.1081 291.0888 308.3861 Q 305.91507 285.6525 332.60233 284.6641 L 332.60233 284.6641 Z M 501.6216 289.60617 Q 511.5058 300.47876 501.6216 311.35135 L 311.84555 501.1274 L 311.84555 501.1274 Q 300.97296 511.0116 290.10037 501.1274 Q 280.21622 490.25482 290.10037 479.38223 L 479.87643 289.60617 L 479.87643 289.60617 Q 490.74902 279.72202 501.6216 289.60617 L 501.6216 289.60617 Z M 474.93436 458.6255 Q 473.94595 443.79922 459.1197 442.81082 Q 444.29343 443.79922 443.30502 458.6255 Q 444.29343 473.45175 459.1197 474.44016 Q 473.94595 473.45175 474.93436 458.6255 L 474.93436 458.6255 Z M 411.6757 458.6255 Q 412.6641 431.93823 435.39767 417.11197 Q 459.1197 405.25098 482.8417 417.11197 Q 505.5753 431.93823 506.56372 458.6255 Q 505.5753 485.31274 482.8417 500.139 Q 459.1197 512 435.39767 500.139 Q 412.6641 485.31274 411.6757 458.6255 L 411.6757 458.6255 Z M 75.6139 253.03474 L 84.50965 253.03474 L 75.6139 253.03474 L 84.50965 253.03474 Q 109.22008 254.02316 126.02316 269.83783 Q 141.83784 286.64093 142.82625 311.35135 Q 142.82625 339.02704 121.08108 357.80695 L 100.324326 372.6332 L 100.324326 372.6332 L 149.74518 418.10037 L 149.74518 418.10037 L 196.20078 382.51736 L 196.20078 382.51736 Q 209.05019 374.61005 218.93436 385.48264 Q 225.85329 398.33203 215.96912 408.21622 L 173.46718 438.85715 L 173.46718 438.85715 L 216.95753 478.39383 L 216.95753 478.39383 Q 226.8417 489.26642 217.94595 501.1274 Q 207.07336 511.0116 195.21236 502.11584 L 147.76834 458.6255 L 147.76834 458.6255 L 101.312744 493.22006 L 101.312744 493.22006 Q 84.50965 506.0695 63.752895 506.0695 Q 37.065636 505.0811 19.274132 487.28958 Q 1.4826255 469.49808 0.49420848 442.81082 Q 1.4826255 412.1699 25.204634 392.40155 L 51.89189 371.64478 L 51.89189 371.64478 L 36.07722 356.81854 L 36.07722 356.81854 Q 16.30888 339.02704 16.30888 312.33978 Q 17.297297 287.62933 34.100388 270.82626 Q 50.903477 254.02316 75.6139 253.03474 L 75.6139 253.03474 Z M 101.312744 332.1081 Q 111.196915 324.20078 111.196915 311.35135 Q 111.196915 300.47876 103.28957 292.57144 Q 95.38224 284.6641 84.50965 284.6641 L 75.6139 284.6641 L 75.6139 284.6641 Q 63.752895 284.6641 55.84556 292.57144 Q 47.938225 300.47876 47.938225 312.33978 Q 47.938225 325.18918 56.833977 333.09653 L 76.60232 351.87643 L 76.60232 351.87643 L 101.312744 332.1081 L 101.312744 332.1081 Z M 43.984554 417.11197 Q 32.12355 426.99612 32.12355 442.81082 Q 32.12355 455.66022 41.019306 465.5444 Q 50.903477 474.44016 63.752895 474.44016 Q 74.62548 474.44016 82.53282 468.50964 L 124.04633 436.8803 L 124.04633 436.8803 L 75.6139 392.40155 L 75.6139 392.40155 L 43.984554 417.11197 L 43.984554 417.11197 Z" />
</svg>