<svg xmlns="http://www.w3.org/2000/svg" viewBox="0 0 512 512">
  <path d="M 16.933851 287.8755 Q 0 256 16.933851 224.12451 L 108.575874 64.74708 L 108.575874 64.74708 Q 127.501945 33.867702 164.35797 32.871593 L 347.64203 32.871593 L 347.64203 32.871593 Q 384.49805 33.867702 403.42413 64.74708 L 495.06616 224.12451 L 495.06616 224.12451 Q 512 256 495.06616 287.8755 L 403.42413 447.25293 L 403.42413 447.25293 Q 384.49805 478.1323 347.64203 479.12842 L 164.35797 479.12842 L 164.35797 479.12842 Q 127.501945 478.1323 108.575874 447.25293 L 16.933851 287.8755 L 16.933851 287.8755 Z M 44.8249 240.06226 Q 35.85992 256 44.8249 271.93774 L 73.71206 322.7393 L 73.71206 322.7393 L 116.54475 280.9027 L 116.54475 280.9027 Q 128.49805 268.9494 144.43579 268.9494 Q 160.37354 268.9494 172.32684 279.90662 L 227.11284 333.6965 L 227.11284 333.6965 L 322.7393 232.09338 L 322.7393 232.09338 Q 334.6926 219.14397 351.62646 219.14397 Q 368.5603 219.14397 380.5136 232.09338 L 449.24515 304.80933 L 449.24515 304.80933 L 467.1751 271.93774 L 467.1751 271.93774 Q 476.14008 256 467.1751 240.06226 L 375.53308 80.68482 L 375.53308 80.68482 Q 365.572 65.74319 347.64203 64.74708 L 164.35797 64.74708 L 164.35797 64.74708 Q 146.42801 65.74319 136.46692 80.68482 L 44.8249 240.06226 L 44.8249 240.06226 Z M 136.46692 430.31906 L 206.19455 356.607 L 136.46692 430.31906 L 206.19455 356.607 L 150.41245 302.8171 L 150.41245 302.8171 Q 144.43579 298.83267 139.45525 302.8171 L 90.64591 351.62646 L 90.64591 351.62646 L 136.46692 430.31906 L 136.46692 430.31906 Z M 432.31128 333.6965 L 357.60312 254.00778 L 432.31128 333.6965 L 357.60312 254.00778 Q 351.62646 248.03113 345.6498 254.00778 L 164.35797 447.25293 L 164.35797 447.25293 L 347.64203 447.25293 L 347.64203 447.25293 Q 365.572 446.2568 375.53308 431.3152 L 432.31128 333.6965 L 432.31128 333.6965 Z M 208.18677 160.37354 Q 207.19066 145.4319 192.24902 144.43579 Q 177.30739 145.4319 176.31128 160.37354 Q 177.30739 175.31517 192.24902 176.31128 Q 207.19066 175.31517 208.18677 160.37354 L 208.18677 160.37354 Z M 144.43579 160.37354 Q 145.4319 133.47859 168.3424 118.536964 Q 192.24902 106.58366 216.15564 118.536964 Q 239.06615 133.47859 240.06226 160.37354 Q 239.06615 187.26848 216.15564 202.21011 Q 192.24902 214.16342 168.3424 202.21011 Q 145.4319 187.26848 144.43579 160.37354 L 144.43579 160.37354 Z" />
</svg>