<svg xmlns="http://www.w3.org/2000/svg" viewBox="0 0 512 512">
  <path d="M 502.09671179883946 9.903288201160542 Q 512 20.796905222437136 502.09671179883946 31.690522243713733 L 448.61895551257254 86.15860735009672 L 448.61895551257254 86.15860735009672 Q 474.36750483558995 118.8394584139265 475.357833655706 163.40425531914894 Q 474.36750483558995 209.94970986460348 446.63829787234044 243.62088974854933 Q 423.8607350096712 271.3500967117988 404.0541586073501 303.04061895551257 Q 383.257253384913 335.72147001934235 374.34429400386847 369.3926499032882 Q 361.47001934235976 417.91876208897486 324.82785299806574 456.541586073501 Q 266.39845261121854 512 190.1431334622824 512 Q 113.88781431334623 512 55.458413926499034 456.541586073501 Q 0 398.1121856866538 0 321.8568665377176 Q 0 245.60154738878143 55.458413926499034 187.17214700193423 Q 94.08123791102514 150.52998065764024 141.61702127659575 137.65570599613153 Q 176.27852998065765 128.74274661508704 208.95938104448743 107.9458413926499 Q 240.64990328820116 88.13926499032883 268.3791102514507 65.36170212765957 Q 302.0502901353965 37.63249516441006 348.59574468085106 36.642166344294004 Q 393.1605415860735 37.63249516441006 425.8413926499033 63.38104448742747 L 480.30947775628624 9.903288201160542 L 480.30947775628624 9.903288201160542 Q 491.20309477756285 0 502.09671179883946 9.903288201160542 L 502.09671179883946 9.903288201160542 Z M 385.2379110251451 104.97485493230174 L 404.0541586073501 86.15860735009672 L 385.2379110251451 104.97485493230174 L 404.0541586073501 86.15860735009672 Q 380.2862669245648 69.32301740812379 348.59574468085106 68.33268858800774 Q 313.9342359767892 69.32301740812379 288.18568665377177 90.11992263056092 Q 260.45647969052226 112.89748549323018 224.80464216634428 135.6750483558994 Q 190.1431334622824 157.4622823984526 150.52998065764024 168.3558994197292 Q 109.926499032882 178.25918762088975 78.23597678916828 209.94970986460348 Q 31.690522243713733 258.47582205029016 31.690522243713733 321.8568665377176 Q 31.690522243713733 385.2379110251451 78.23597678916828 433.76402321083174 Q 126.76208897485493 480.30947775628624 190.1431334622824 480.30947775628624 Q 253.52417794970987 480.30947775628624 302.0502901353965 433.76402321083174 Q 332.7504835589942 402.073500967118 343.6441005802708 361.47001934235976 Q 354.5377176015474 321.8568665377176 376.32495164410057 287.1953578336557 Q 399.1025145067698 251.54352030947774 421.88007736943905 223.81431334622823 Q 442.6769825918762 198.06576402321082 443.6673114119923 163.40425531914894 Q 442.6769825918762 131.71373307543521 425.8413926499033 107.9458413926499 L 407.02514506769825 126.76208897485493 L 407.02514506769825 126.76208897485493 Q 396.13152804642164 136.66537717601548 385.2379110251451 126.76208897485493 Q 376.32495164410057 115.86847195357834 385.2379110251451 104.97485493230174 L 385.2379110251451 104.97485493230174 Z M 301.0599613152805 337.70212765957444 Q 300.0696324951644 378.30560928433266 273.33075435203097 405.04448742746615 L 273.33075435203097 405.04448742746615 L 273.33075435203097 405.04448742746615 Q 246.59187620889747 431.7833655705996 205.98839458413926 432.77369439071566 Q 191.13346228239845 431.7833655705996 190.1431334622824 416.9284332688588 Q 191.13346228239845 402.073500967118 205.98839458413926 401.08317214700196 Q 232.72727272727272 400.0928433268859 250.5531914893617 382.2669245647969 Q 268.3791102514507 364.44100580270793 269.3694390715667 337.70212765957444 Q 270.3597678916828 322.84719535783364 285.2147001934236 321.8568665377176 Q 300.0696324951644 322.84719535783364 301.0599613152805 337.70212765957444 L 301.0599613152805 337.70212765957444 Z" />
</svg>