<svg xmlns="http://www.w3.org/2000/svg" viewBox="0 0 576 516">
    <path d="M 160 180 Q 143 153 162 126 Q 165 122 164 116 Q 160 101 167 87 Q 173 73 188 66 Q 193 64 194 58 Q 197 43 209 33 Q 221 23 237 24 Q 242 24 246 19 Q 255 7 270 3 Q 285 0 299 7 Q 304 9 309 7 Q 323 0 338 3 Q 353 7 362 19 Q 366 24 371 24 Q 387 23 399 33 Q 411 43 414 58 Q 415 64 420 66 Q 434 73 441 87 Q 447 101 444 116 Q 442 122 446 126 Q 456 139 456 154 Q 456 169 446 182 Q 442 186 444 192 Q 444 192 444 193 Q 444 194 444 195 Q 438 196 432 198 Q 422 194 412 194 Q 410 176 421 161 Q 426 154 421 147 Q 408 130 413 108 Q 414 99 407 95 Q 387 86 382 64 Q 380 56 372 55 Q 350 56 337 38 Q 331 32 324 35 Q 304 45 284 35 Q 277 32 271 38 Q 258 56 236 56 Q 228 56 225 65 Q 221 86 201 95 Q 194 99 195 108 Q 200 130 187 147 Q 181 154 187 161 Q 194 170 196 181 Q 178 176 160 180 L 160 180 Z M 240 130 Q 255 131 256 146 Q 255 161 240 162 Q 225 161 224 146 Q 225 131 240 130 L 240 130 Z M 267 312 Q 266 306 261 303 Q 241 294 236 273 Q 234 264 225 264 Q 203 264 189 247 Q 183 240 175 243 Q 155 253 135 243 Q 127 240 121 247 Q 108 264 86 264 Q 77 264 74 273 Q 69 294 50 303 Q 42 308 43 316 Q 48 338 35 355 Q 29 362 35 369 Q 48 386 43 408 Q 42 416 50 421 Q 69 430 74 452 Q 77 460 86 461 Q 108 460 121 478 Q 127 484 135 481 Q 155 471 175 481 Q 183 484 189 478 Q 203 460 225 461 Q 234 460 236 452 Q 241 430 261 421 Q 265 419 266 415 Q 266 434 274 450 L 274 450 Q 269 452 267 458 Q 264 474 252 483 Q 240 493 224 493 Q 218 493 215 497 Q 205 510 190 513 Q 175 516 160 509 Q 155 507 150 509 Q 136 516 121 513 Q 106 510 96 497 Q 92 492 87 493 Q 70 493 58 483 Q 46 474 43 458 Q 42 452 37 450 Q 22 443 15 429 Q 9 416 12 400 Q 14 394 10 390 Q 0 377 0 362 Q 0 347 10 334 Q 14 330 12 324 Q 9 309 15 295 Q 22 281 37 274 Q 42 272 43 266 Q 46 251 58 241 Q 70 232 87 232 Q 92 232 96 227 Q 106 215 121 211 Q 136 208 150 215 Q 155 217 160 215 Q 175 208 190 211 Q 205 215 215 227 Q 218 232 224 232 Q 240 232 252 241 Q 264 251 267 266 Q 269 272 274 274 Q 278 276 282 279 Q 270 294 267 312 L 267 312 Z M 64 370 Q 65 355 80 354 Q 95 355 96 370 Q 95 385 80 386 Q 65 385 64 370 L 64 370 Z M 112 418 Q 127 419 128 434 Q 127 449 112 450 Q 97 449 96 434 Q 97 419 112 418 L 112 418 Z M 128 370 Q 129 355 144 354 Q 159 355 160 370 Q 159 385 144 386 Q 129 385 128 370 L 128 370 Z M 352 370 Q 353 355 368 354 Q 383 355 384 370 Q 383 385 368 386 Q 353 385 352 370 L 352 370 Z M 400 418 Q 415 419 416 434 Q 415 449 400 450 Q 385 449 384 434 Q 385 419 400 418 L 400 418 Z M 413 259 Q 407 256 402 262 Q 389 278 368 278 Q 361 278 359 286 Q 355 306 336 316 Q 329 319 331 327 Q 335 347 322 364 Q 318 370 322 376 Q 335 393 331 413 Q 329 421 336 424 Q 355 434 359 454 Q 361 462 368 462 Q 389 462 402 478 Q 407 484 413 481 Q 432 472 451 481 Q 457 484 462 478 Q 475 462 496 462 Q 503 462 505 454 Q 509 434 528 424 Q 535 421 533 413 Q 530 398 536 384 Q 496 376 461 341 Q 423 303 417 261 Q 415 260 413 259 L 413 259 Z M 428 231 Q 430 232 432 232 Q 439 232 444 237 Q 448 241 448 248 Q 447 278 484 318 Q 504 338 524 347 Q 544 355 558 354 Q 565 353 570 357 Q 576 362 576 369 Q 576 384 566 397 Q 563 400 564 405 Q 568 420 562 433 Q 556 447 542 453 Q 538 455 536 460 Q 533 475 522 484 Q 511 494 495 494 Q 491 493 488 497 Q 478 510 464 513 Q 450 516 436 509 Q 432 507 428 509 Q 414 516 400 513 Q 386 510 376 497 Q 373 494 369 494 Q 353 494 342 484 Q 331 475 328 460 Q 326 455 322 453 Q 308 447 302 433 Q 296 420 300 405 Q 301 400 298 397 Q 288 385 288 370 Q 288 355 298 343 Q 301 340 300 335 Q 296 320 302 306 Q 308 293 322 286 Q 326 285 328 280 Q 331 265 342 255 Q 353 246 369 246 Q 373 246 376 243 Q 386 230 400 227 Q 414 224 428 231 L 428 231 Z"/>
</svg>
