<svg xmlns="http://www.w3.org/2000/svg" viewBox="0 0 512 512">
  <path d="M 110.85714 146.28572 Q 78.85714 147.42857 58.285713 168 L 58.285713 168 L 58.285713 168 Q 37.714287 188.57143 36.57143 219.42857 L 36.57143 329.14285 L 36.57143 329.14285 Q 35.42857 346.2857 18.285715 347.42856 Q 1.1428572 346.2857 0 329.14285 L 0 219.42857 L 0 219.42857 Q 1.1428572 172.57143 33.142857 141.71428 Q 64 110.85714 110.85714 109.71429 Q 163.42857 110.85714 197.71428 152 L 344 338.2857 L 344 338.2857 Q 365.7143 364.57144 401.14285 365.7143 Q 433.14285 364.57144 453.7143 344 Q 474.2857 323.42856 475.42856 292.57144 L 475.42856 182.85715 L 475.42856 182.85715 Q 477.7143 165.71428 493.7143 164.57143 Q 510.85715 165.71428 512 182.85715 L 512 292.57144 L 512 292.57144 Q 510.85715 339.42856 480 370.2857 Q 448 401.14285 401.14285 402.2857 Q 348.57144 401.14285 315.42856 360 L 169.14285 173.71428 L 169.14285 173.71428 Q 146.28572 147.42857 110.85714 146.28572 L 110.85714 146.28572 Z" />
</svg>