<svg xmlns="http://www.w3.org/2000/svg" viewBox="0 0 512 512">
  <path d="M 200 0 Q 163 1 138 26 L 138 26 L 138 26 Q 113 51 112 88 Q 113 121 132 144 Q 113 167 112 200 Q 113 237 138 262 Q 163 287 200 288 Q 222 288 240 278 L 240 397 L 240 397 Q 210 347 160 318 Q 110 289 48 288 L 28 288 L 28 288 Q 16 288 8 296 Q 0 304 0 316 Q 2 399 57 455 Q 113 510 196 512 L 240 512 L 316 512 Q 399 510 455 455 Q 510 399 512 316 Q 512 304 504 296 Q 496 288 484 288 L 464 288 L 464 288 Q 402 289 352 318 Q 302 347 272 397 L 272 278 L 272 278 Q 290 288 312 288 Q 349 287 374 262 Q 399 237 400 200 Q 399 167 380 144 Q 399 121 400 88 Q 399 51 374 26 Q 349 1 312 0 Q 279 1 256 20 Q 233 1 200 0 L 200 0 Z M 144 88 Q 145 64 160 48 L 160 48 L 160 48 Q 176 33 200 32 Q 227 33 244 53 Q 248 59 256 59 Q 264 59 268 53 Q 285 33 312 32 Q 336 33 352 48 Q 367 64 368 88 Q 367 115 347 132 Q 341 136 341 144 Q 341 152 347 156 Q 367 173 368 200 Q 367 224 352 240 Q 336 255 312 256 Q 285 255 268 235 Q 264 229 256 229 Q 248 229 244 235 Q 227 255 200 256 Q 176 255 160 240 Q 145 224 144 200 Q 145 173 165 156 Q 171 152 171 144 Q 171 136 165 132 Q 145 115 144 88 L 144 88 Z M 32 320 L 48 320 L 32 320 L 48 320 Q 121 321 173 366 Q 224 410 237 480 L 196 480 L 196 480 Q 127 478 81 433 Q 35 388 32 320 L 32 320 Z M 480 320 Q 477 388 431 433 L 431 433 L 431 433 Q 385 478 316 480 L 275 480 L 275 480 Q 288 410 339 366 Q 391 321 464 320 L 480 320 L 480 320 Z M 288 144 Q 288 130 279 121 L 279 121 L 279 121 Q 270 112 256 112 Q 242 112 233 121 Q 224 130 224 144 Q 224 158 233 167 Q 242 176 256 176 Q 270 176 279 167 Q 288 158 288 144 L 288 144 Z" />
</svg>