<svg xmlns="http://www.w3.org/2000/svg" viewBox="0 0 448 448">
    <path d="M 64 32 Q 50 32 41 41 L 41 41 Q 32 50 32 64 L 32 384 Q 32 398 41 407 Q 50 416 64 416 L 384 416 Q 398 416 407 407 Q 416 398 416 384 L 416 64 Q 416 50 407 41 Q 398 32 384 32 L 64 32 L 64 32 Z M 0 64 Q 1 37 19 19 L 19 19 Q 37 1 64 0 L 384 0 Q 411 1 429 19 Q 447 37 448 64 L 448 384 Q 447 411 429 429 Q 411 447 384 448 L 64 448 Q 37 447 19 429 Q 1 411 0 384 L 0 64 L 0 64 Z M 128 112 L 128 240 Q 127 255 112 256 Q 97 255 96 240 L 96 112 Q 97 97 112 96 Q 127 97 128 112 L 128 112 Z M 192 112 L 192 240 Q 191 255 176 256 Q 161 255 160 240 L 160 112 Q 161 97 176 96 Q 191 97 192 112 L 192 112 Z"/>
</svg>
