<svg xmlns="http://www.w3.org/2000/svg" viewBox="0 0 512 512">
  <path d="M 384 256 Q 410.6666666666667 256 433.77777777777777 269.3333333333333 L 433.77777777777777 269.3333333333333 L 433.77777777777777 269.3333333333333 Q 456.8888888888889 282.6666666666667 470.22222222222223 305.77777777777777 Q 483.55555555555554 328.8888888888889 483.55555555555554 355.55555555555554 Q 483.55555555555554 382.22222222222223 470.22222222222223 405.3333333333333 Q 456.8888888888889 428.44444444444446 433.77777777777777 441.77777777777777 Q 410.6666666666667 455.1111111111111 384 455.1111111111111 Q 357.3333333333333 455.1111111111111 334.22222222222223 441.77777777777777 Q 311.1111111111111 428.44444444444446 297.77777777777777 405.3333333333333 Q 284.44444444444446 382.22222222222223 284.44444444444446 355.55555555555554 Q 284.44444444444446 328.8888888888889 297.77777777777777 305.77777777777777 Q 311.1111111111111 282.6666666666667 334.22222222222223 269.3333333333333 Q 357.3333333333333 256 384 256 L 384 256 Z M 384 483.55555555555554 Q 418.6666666666667 483.55555555555554 448 466.6666666666667 L 448 466.6666666666667 L 448 466.6666666666667 Q 477.3333333333333 449.77777777777777 495.1111111111111 419.55555555555554 Q 512 389.3333333333333 512 355.55555555555554 Q 512 321.77777777777777 495.1111111111111 291.55555555555554 Q 477.3333333333333 261.3333333333333 448 244.44444444444446 Q 418.6666666666667 227.55555555555554 384 227.55555555555554 Q 349.3333333333333 227.55555555555554 320 244.44444444444446 Q 290.6666666666667 261.3333333333333 272.8888888888889 291.55555555555554 Q 256 321.77777777777777 256 355.55555555555554 Q 256 389.3333333333333 272.8888888888889 419.55555555555554 Q 290.6666666666667 449.77777777777777 320 466.6666666666667 Q 349.3333333333333 483.55555555555554 384 483.55555555555554 L 384 483.55555555555554 Z M 384 284.44444444444446 Q 370.6666666666667 285.3333333333333 369.77777777777777 298.6666666666667 L 369.77777777777777 341.3333333333333 L 369.77777777777777 341.3333333333333 L 327.1111111111111 341.3333333333333 L 327.1111111111111 341.3333333333333 Q 313.77777777777777 342.22222222222223 312.8888888888889 355.55555555555554 Q 313.77777777777777 368.8888888888889 327.1111111111111 369.77777777777777 L 369.77777777777777 369.77777777777777 L 369.77777777777777 369.77777777777777 L 369.77777777777777 412.44444444444446 L 369.77777777777777 412.44444444444446 Q 370.6666666666667 425.77777777777777 384 426.6666666666667 Q 397.3333333333333 425.77777777777777 398.22222222222223 412.44444444444446 L 398.22222222222223 369.77777777777777 L 398.22222222222223 369.77777777777777 L 440.8888888888889 369.77777777777777 L 440.8888888888889 369.77777777777777 Q 454.22222222222223 368.8888888888889 455.1111111111111 355.55555555555554 Q 454.22222222222223 342.22222222222223 440.8888888888889 341.3333333333333 L 398.22222222222223 341.3333333333333 L 398.22222222222223 341.3333333333333 L 398.22222222222223 298.6666666666667 L 398.22222222222223 298.6666666666667 Q 397.3333333333333 285.3333333333333 384 284.44444444444446 L 384 284.44444444444446 Z M 99.55555555555556 28.444444444444443 Q 112.88888888888889 29.333333333333332 113.77777777777777 42.666666666666664 L 113.77777777777777 128 L 113.77777777777777 128 L 85.33333333333333 128 L 85.33333333333333 128 L 85.33333333333333 42.666666666666664 L 85.33333333333333 42.666666666666664 Q 86.22222222222223 29.333333333333332 99.55555555555556 28.444444444444443 L 99.55555555555556 28.444444444444443 Z M 241.77777777777777 28.444444444444443 Q 255.11111111111111 29.333333333333332 256 42.666666666666664 L 256 128 L 256 128 L 227.55555555555554 128 L 227.55555555555554 128 L 227.55555555555554 42.666666666666664 L 227.55555555555554 42.666666666666664 Q 228.44444444444446 29.333333333333332 241.77777777777777 28.444444444444443 L 241.77777777777777 28.444444444444443 Z M 0 170.66666666666666 Q 0.8888888888888888 157.33333333333334 14.222222222222221 156.44444444444446 L 28.444444444444443 156.44444444444446 L 327.1111111111111 156.44444444444446 Q 340.44444444444446 157.33333333333334 341.3333333333333 170.66666666666666 Q 340.44444444444446 184 327.1111111111111 184.88888888888889 L 312.8888888888889 184.88888888888889 L 312.8888888888889 184.88888888888889 L 312.8888888888889 216 L 312.8888888888889 216 Q 297.77777777777777 224 284.44444444444446 234.66666666666666 L 284.44444444444446 184.88888888888889 L 284.44444444444446 184.88888888888889 L 56.888888888888886 184.88888888888889 L 56.888888888888886 184.88888888888889 L 56.888888888888886 241.77777777777777 L 56.888888888888886 241.77777777777777 Q 57.77777777777778 289.77777777777777 89.77777777777777 322.6666666666667 Q 122.66666666666667 354.6666666666667 170.66666666666666 355.55555555555554 Q 202.66666666666666 355.55555555555554 228.44444444444446 339.55555555555554 Q 227.55555555555554 347.55555555555554 227.55555555555554 355.55555555555554 Q 227.55555555555554 363.55555555555554 228.44444444444446 371.55555555555554 Q 208 381.3333333333333 184.88888888888889 383.1111111111111 L 184.88888888888889 469.3333333333333 L 184.88888888888889 469.3333333333333 Q 184 482.6666666666667 170.66666666666666 483.55555555555554 Q 157.33333333333334 482.6666666666667 156.44444444444446 469.3333333333333 L 156.44444444444446 383.1111111111111 L 156.44444444444446 383.1111111111111 Q 101.33333333333333 376.8888888888889 65.77777777777777 337.77777777777777 Q 29.333333333333332 298.6666666666667 28.444444444444443 241.77777777777777 L 28.444444444444443 184.88888888888889 L 28.444444444444443 184.88888888888889 L 14.222222222222221 184.88888888888889 L 14.222222222222221 184.88888888888889 Q 0.8888888888888888 184 0 170.66666666666666 L 0 170.66666666666666 Z" />
</svg>