<svg xmlns="http://www.w3.org/2000/svg" viewBox="0 0 512 512">
  <path d="M 153.99613152804642 9.903288201160542 Q 143.10251450676984 0 132.20889748549322 9.903288201160542 Q 122.30560928433269 20.796905222437136 131.21856866537718 31.690522243713733 Q 153.99613152804642 54.46808510638298 183.70599613152805 68.33268858800774 Q 137.1605415860735 90.11992263056092 110.42166344294004 131.71373307543521 Q 82.69245647969052 173.30754352030948 81.70212765957447 226.7852998065764 Q 83.68278529980658 296.1083172147002 127.25725338491296 344.63442940038686 Q 171.8220502901354 393.1605415860735 240.15473887814312 400.0928433268859 L 240.15473887814312 432.77369439071566 L 240.15473887814312 432.77369439071566 L 192.61895551257254 432.77369439071566 L 192.61895551257254 432.77369439071566 Q 177.7640232108317 433.76402321083174 176.77369439071566 448.61895551257254 Q 177.7640232108317 463.47388781431334 192.61895551257254 464.4642166344294 L 240.15473887814312 464.4642166344294 L 240.15473887814312 464.4642166344294 L 240.15473887814312 496.1547388781431 L 240.15473887814312 496.1547388781431 Q 241.1450676982592 511.0096711798839 256 512 Q 270.8549323017408 511.0096711798839 271.8452611218569 496.1547388781431 L 271.8452611218569 464.4642166344294 L 271.8452611218569 464.4642166344294 L 319.38104448742746 464.4642166344294 L 319.38104448742746 464.4642166344294 Q 334.23597678916826 463.47388781431334 335.22630560928434 448.61895551257254 Q 334.23597678916826 433.76402321083174 319.38104448742746 432.77369439071566 L 271.8452611218569 432.77369439071566 L 271.8452611218569 432.77369439071566 L 271.8452611218569 400.0928433268859 L 271.8452611218569 400.0928433268859 Q 340.1779497098646 393.1605415860735 384.742746615087 344.63442940038686 Q 428.3172147001934 296.1083172147002 430.29787234042556 226.7852998065764 Q 429.3075435203095 173.30754352030948 401.57833655705997 131.71373307543521 Q 374.8394584139265 90.11992263056092 328.294003868472 68.33268858800774 Q 358.0038684719536 54.46808510638298 380.7814313346228 31.690522243713733 Q 389.69439071566734 20.796905222437136 379.79110251450675 9.903288201160542 Q 368.8974854932302 0 358.0038684719536 9.903288201160542 Q 317.40038684719536 50.50676982591876 256 52.48742746615087 Q 194.59961315280464 50.50676982591876 153.99613152804642 9.903288201160542 L 153.99613152804642 9.903288201160542 Z M 256 84.1779497098646 Q 294.6228239845261 84.1779497098646 327.3036750483559 102.99419729206963 L 327.3036750483559 102.99419729206963 L 327.3036750483559 102.99419729206963 Q 359.9845261121857 121.81044487427467 379.79110251450675 155.4816247582205 Q 398.6073500967118 189.15280464216633 398.6073500967118 226.7852998065764 Q 398.6073500967118 264.41779497098645 379.79110251450675 298.0889748549323 Q 359.9845261121857 331.76015473887816 327.3036750483559 350.57640232108315 Q 294.6228239845261 369.3926499032882 256 369.3926499032882 Q 217.37717601547388 369.3926499032882 184.6963249516441 350.57640232108315 Q 152.01547388781432 331.76015473887816 132.20889748549322 298.0889748549323 Q 113.3926499032882 264.41779497098645 113.3926499032882 226.7852998065764 Q 113.3926499032882 189.15280464216633 132.20889748549322 155.4816247582205 Q 152.01547388781432 121.81044487427467 184.6963249516441 102.99419729206963 Q 217.37717601547388 84.1779497098646 256 84.1779497098646 L 256 84.1779497098646 Z" />
</svg>