<svg xmlns="http://www.w3.org/2000/svg" viewBox="0 0 512 512">
  <path d="M 51.2 89.6 L 307.2 89.6 L 51.2 89.6 L 307.2 89.6 Q 318.4 89.6 325.6 96.8 Q 332.8 104 332.8 115.2 L 332.8 198.4 L 332.8 198.4 L 335.2 192.8 L 335.2 192.8 Q 341.6 175.2 358.4 168.8 L 358.4 115.2 L 358.4 115.2 Q 357.6 93.6 343.2 79.2 Q 328.8 64.8 307.2 64 L 51.2 64 L 51.2 64 Q 29.6 64.8 15.2 79.2 Q 0.8 93.6 0 115.2 L 0 371.2 L 0 371.2 Q 0.8 392.8 15.2 407.2 Q 29.6 421.6 51.2 422.4 L 305.6 422.4 L 305.6 422.4 L 303.2 396.8 L 303.2 396.8 L 51.2 396.8 L 51.2 396.8 Q 40 396.8 32.8 389.6 Q 25.6 382.4 25.6 371.2 L 25.6 115.2 L 25.6 115.2 Q 25.6 104 32.8 96.8 Q 40 89.6 51.2 89.6 L 51.2 89.6 Z M 307.2 204.8 L 307.2 140.8 L 307.2 204.8 L 307.2 140.8 Q 307.2 129.6 300 122.4 Q 292.8 115.2 281.6 115.2 L 192 115.2 L 192 115.2 Q 180.8 115.2 173.6 122.4 Q 166.4 129.6 166.4 140.8 L 166.4 207.2 L 166.4 207.2 Q 142.4 216.8 140.8 243.2 Q 141.6 259.2 152 270.4 Q 163.2 280.8 179.2 281.6 Q 195.2 280.8 206.4 270.4 Q 216.8 259.2 217.6 243.2 Q 216 216.8 192 207.2 L 192 140.8 L 192 140.8 L 281.6 140.8 L 281.6 140.8 L 281.6 204.8 L 281.6 204.8 L 307.2 204.8 L 307.2 204.8 Z M 281.6 345.6 L 76.8 345.6 L 281.6 345.6 L 76.8 345.6 L 76.8 140.8 L 76.8 140.8 L 115.2 140.8 L 115.2 140.8 Q 127.2 140 128 128 Q 127.2 116 115.2 115.2 L 76.8 115.2 L 76.8 115.2 Q 65.6 115.2 58.4 122.4 Q 51.2 129.6 51.2 140.8 L 51.2 345.6 L 51.2 345.6 Q 51.2 356.8 58.4 364 Q 65.6 371.2 76.8 371.2 L 281.6 371.2 L 281.6 371.2 Q 293.6 371.2 300.8 362.4 L 295.2 281.6 L 295.2 281.6 L 281.6 281.6 L 281.6 281.6 L 281.6 345.6 L 281.6 345.6 Z M 192 243.2 Q 191.2 255.2 179.2 256 Q 167.2 255.2 166.4 243.2 Q 167.2 231.2 179.2 230.4 Q 191.2 231.2 192 243.2 L 192 243.2 Z M 359.2 200.8 L 349.6 230.4 L 359.2 200.8 L 349.6 230.4 L 320 230.4 L 320 230.4 Q 308 231.2 307.2 243.2 Q 308 255.2 320 256 L 358.4 256 L 499.2 256 Q 511.2 255.2 512 243.2 Q 511.2 231.2 499.2 230.4 L 470.4 230.4 L 470.4 230.4 L 460 200.8 L 460 200.8 Q 456.8 192.8 448 192 L 371.2 192 L 371.2 192 Q 362.4 192.8 359.2 200.8 L 359.2 200.8 Z M 376 230.4 L 380.8 217.6 L 376 230.4 L 380.8 217.6 L 438.4 217.6 L 438.4 217.6 L 443.2 230.4 L 443.2 230.4 L 376 230.4 L 376 230.4 Z M 320.8 281.6 L 331.2 424 L 320.8 281.6 L 331.2 424 Q 332 434.4 339.2 440.8 Q 346.4 448 356.8 448 L 462.4 448 L 462.4 448 Q 472.8 448 480 440.8 Q 487.2 434.4 488 424 L 498.4 281.6 L 498.4 281.6 L 472.8 281.6 L 472.8 281.6 L 462.4 422.4 L 462.4 422.4 L 356.8 422.4 L 356.8 422.4 L 346.4 281.6 L 346.4 281.6 L 320.8 281.6 L 320.8 281.6 Z" />
</svg>