<svg xmlns="http://www.w3.org/2000/svg" viewBox="0 0 512 512">
  <path d="M 328.70224 126.89845 Q 329.58347 113.67986 342.80206 112.79862 L 497.90018 112.79862 L 497.90018 112.79862 Q 511.11877 113.67986 512 126.89845 L 512 281.99655 L 512 281.99655 Q 511.11877 295.21515 497.90018 296.09637 Q 484.68158 295.21515 483.80035 281.99655 L 483.80035 161.26678 L 483.80035 161.26678 L 296.09637 348.0895 L 296.09637 348.0895 Q 286.40274 356.9019 276.70914 348.0895 L 173.60413 245.86575 L 173.60413 245.86575 L 28.199656 390.38898 L 28.199656 390.38898 Q 18.506023 399.2014 8.812392 390.38898 Q 0 380.69534 8.812392 371.0017 L 163.91049 215.90361 L 163.91049 215.90361 Q 173.60413 207.09122 183.29776 215.90361 L 286.40274 318.12738 L 286.40274 318.12738 L 463.53183 140.99828 L 463.53183 140.99828 L 342.80206 140.99828 L 342.80206 140.99828 Q 329.58347 140.11703 328.70224 126.89845 L 328.70224 126.89845 Z" />
</svg>