<svg xmlns="http://www.w3.org/2000/svg" viewBox="0 0 448 448">
    <path d="M 0 16 Q 1 1 16 0 L 144 0 Q 159 1 160 16 Q 159 31 144 32 L 96 32 L 96 192 Q 97 246 133 283 Q 170 319 224 320 Q 278 319 315 283 Q 351 246 352 192 L 352 32 L 304 32 Q 289 31 288 16 Q 289 1 304 0 L 432 0 Q 447 1 448 16 Q 447 31 432 32 L 384 32 L 384 192 Q 382 260 337 305 Q 292 350 224 352 Q 156 350 111 305 Q 66 260 64 192 L 64 32 L 16 32 Q 1 31 0 16 L 0 16 Z M 0 432 Q 1 417 16 416 L 432 416 Q 447 417 448 432 Q 447 447 432 448 L 16 448 Q 1 447 0 432 L 0 432 Z"/>
</svg>
