<svg xmlns="http://www.w3.org/2000/svg" viewBox="0 0 512 512">
  <path d="M 438.85715 36.57143 Q 454.85715 36.57143 465.14285 46.857143 L 465.14285 46.857143 L 465.14285 46.857143 Q 475.42856 57.142857 475.42856 73.14286 L 475.42856 438.85715 L 475.42856 438.85715 Q 475.42856 454.85715 465.14285 465.14285 Q 454.85715 475.42856 438.85715 475.42856 L 73.14286 475.42856 L 73.14286 475.42856 Q 57.142857 475.42856 46.857143 465.14285 Q 36.57143 454.85715 36.57143 438.85715 L 36.57143 73.14286 L 36.57143 73.14286 Q 36.57143 57.142857 46.857143 46.857143 Q 57.142857 36.57143 73.14286 36.57143 L 438.85715 36.57143 L 438.85715 36.57143 Z M 73.14286 0 Q 42.285713 1.1428572 21.714285 21.714285 L 21.714285 21.714285 L 21.714285 21.714285 Q 1.1428572 42.285713 0 73.14286 L 0 438.85715 L 0 438.85715 Q 1.1428572 469.7143 21.714285 490.2857 Q 42.285713 510.85715 73.14286 512 L 438.85715 512 L 438.85715 512 Q 469.7143 510.85715 490.2857 490.2857 Q 510.85715 469.7143 512 438.85715 L 512 73.14286 L 512 73.14286 Q 510.85715 42.285713 490.2857 21.714285 Q 469.7143 1.1428572 438.85715 0 L 73.14286 0 L 73.14286 0 Z M 237.71428 290.2857 L 237.71428 228.57143 L 237.71428 290.2857 L 237.71428 228.57143 L 237.71428 210.28572 L 237.71428 210.28572 L 237.71428 192 L 237.71428 192 Q 237.71428 172.57143 224 160 Q 211.42857 146.28572 192 146.28572 L 155.42857 146.28572 L 155.42857 146.28572 Q 136 146.28572 123.42857 160 Q 109.71429 172.57143 109.71429 192 L 109.71429 228.57143 L 109.71429 228.57143 Q 109.71429 248 123.42857 260.57144 Q 136 274.2857 155.42857 274.2857 L 192 274.2857 L 192 274.2857 Q 196.57143 274.2857 201.14285 273.14285 L 201.14285 290.2857 L 201.14285 290.2857 Q 198.85715 320 170.28572 326.85715 L 153.14285 329.14285 L 153.14285 329.14285 Q 136 333.7143 137.14285 349.7143 Q 141.71428 366.85715 157.71428 365.7143 L 174.85715 363.42856 L 174.85715 363.42856 Q 202.28572 358.85715 219.42857 338.2857 Q 236.57143 318.85715 237.71428 290.2857 L 237.71428 290.2857 Z M 201.14285 228.57143 Q 200 236.57143 192 237.71428 L 155.42857 237.71428 L 155.42857 237.71428 Q 147.42857 236.57143 146.28572 228.57143 L 146.28572 192 L 146.28572 192 Q 147.42857 184 155.42857 182.85715 L 192 182.85715 L 192 182.85715 Q 200 184 201.14285 192 L 201.14285 210.28572 L 201.14285 210.28572 L 201.14285 228.57143 L 201.14285 228.57143 Z M 402.2857 228.57143 L 402.2857 210.28572 L 402.2857 228.57143 L 402.2857 210.28572 L 402.2857 192 L 402.2857 192 Q 402.2857 172.57143 388.57144 160 Q 376 146.28572 356.57144 146.28572 L 320 146.28572 L 320 146.28572 Q 300.57144 146.28572 288 160 Q 274.2857 172.57143 274.2857 192 L 274.2857 228.57143 L 274.2857 228.57143 Q 274.2857 248 288 260.57144 Q 300.57144 274.2857 320 274.2857 L 356.57144 274.2857 L 356.57144 274.2857 Q 361.14285 274.2857 365.7143 273.14285 L 365.7143 290.2857 L 365.7143 290.2857 Q 363.42856 320 334.85715 326.85715 L 317.7143 329.14285 L 317.7143 329.14285 Q 300.57144 333.7143 301.7143 349.7143 Q 306.2857 366.85715 322.2857 365.7143 L 339.42856 363.42856 L 339.42856 363.42856 Q 366.85715 358.85715 384 338.2857 Q 401.14285 318.85715 402.2857 290.2857 L 402.2857 228.57143 L 402.2857 228.57143 Z M 365.7143 210.28572 L 365.7143 228.57143 L 365.7143 210.28572 L 365.7143 228.57143 Q 364.57144 236.57143 356.57144 237.71428 L 320 237.71428 L 320 237.71428 Q 312 236.57143 310.85715 228.57143 L 310.85715 192 L 310.85715 192 Q 312 184 320 182.85715 L 356.57144 182.85715 L 356.57144 182.85715 Q 364.57144 184 365.7143 192 L 365.7143 210.28572 L 365.7143 210.28572 Z" />
</svg>