<svg xmlns="http://www.w3.org/2000/svg" viewBox="0 0 512 512">
  <path d="M 257.79022 55.496502 Q 261.37064 55.496502 264.05594 55.496502 Q 224.67133 68.92308 187.97203 86.82517 Q 165.5944 88.61539 142.32169 92.1958 Q 192.44756 56.39161 257.79022 55.496502 L 257.79022 55.496502 Z M 329.3986 38.48951 Q 295.3846 26.853148 257.79022 26.853148 Q 207.66434 26.853148 164.6993 46.545456 Q 120.83916 66.23776 89.51049 100.25175 Q 72.503494 103.83217 56.39161 108.30769 Q 44.755245 110.993004 38.48951 120.83916 Q 17.006992 155.74825 7.160839 196.02797 Q 3.5804195 210.34966 13.426574 221.98601 Q 9.846154 225.56644 7.160839 229.14685 Q 0.8951049 237.2028 0 247.04895 Q 0 248.83916 0 251.52448 Q 0 253.31468 0 256 Q 0 298.06992 12.531468 336.55945 Q 18.797203 352.67133 35.804195 356.25174 Q 53.706295 358.04196 63.55245 343.72028 Q 106.51748 281.06293 165.5944 235.41258 Q 164.6993 238.0979 164.6993 241.67831 Q 166.48952 261.37064 186.18182 263.16083 Q 205.87413 261.37064 207.66434 241.67831 Q 205.87413 222.88112 187.07692 220.1958 Q 203.18881 209.45454 220.1958 199.6084 Q 238.99301 198.71329 257.79022 198.71329 Q 369.6783 199.6084 472.6154 230.04196 Q 487.83215 234.51749 500.36365 223.77623 Q 512 212.13986 508.4196 196.02797 Q 498.57343 155.74825 477.0909 120.83916 Q 472.6154 113.67832 465.45456 110.0979 Q 464.55945 102.04196 459.1888 94.88112 Q 430.54544 59.076923 391.16083 34.909092 Q 382.20978 30.433567 372.36365 31.32867 Q 350.88113 34.013985 329.3986 38.48951 L 329.3986 38.48951 Z M 452.92307 136.05594 Q 462.76923 152.16783 469.93008 170.06993 Q 476.1958 185.28671 480.67133 202.2937 Q 464.55945 197.81818 448.44754 193.34265 Q 368.7832 173.65034 282.85315 170.06993 Q 282.85315 170.06993 282.85315 170.06993 Q 282.85315 170.06993 281.95804 170.06993 Q 270.3217 170.06993 257.79022 170.06993 Q 234.51749 170.06993 212.13986 171.86014 Q 147.6923 175.44057 85.93007 189.76224 Q 77.87412 191.55244 69.818184 193.34265 Q 68.92308 193.34265 67.132866 194.23776 Q 51.02098 197.81818 34.909092 203.18881 Q 34.909092 201.3986 35.804195 200.5035 Q 35.804195 198.71329 35.804195 197.81818 Q 40.27972 183.4965 45.65035 170.06993 Q 52.811188 152.16783 62.65734 136.05594 Q 93.986015 128 126.20979 123.524475 Q 126.20979 123.524475 126.20979 123.524475 Q 126.20979 123.524475 126.20979 123.524475 Q 126.20979 123.524475 127.1049 123.524475 Q 127.1049 122.62937 128 122.62937 Q 162.01399 117.25874 196.02797 115.46853 Q 196.02797 115.46853 196.02797 115.46853 Q 196.02797 115.46853 196.02797 115.46853 Q 196.02797 115.46853 196.02797 115.46853 Q 196.02797 115.46853 196.02797 115.46853 Q 226.46153 112.78322 257.79022 112.78322 Q 311.4965 112.78322 363.4126 119.04895 Q 366.0979 119.94405 369.6783 119.94405 Q 411.74826 126.20979 452.92307 136.05594 Q 452.92307 136.05594 452.92307 136.05594 Q 452.92307 136.05594 452.92307 136.05594 L 452.92307 136.05594 Z M 158.43356 204.97902 Q 103.83217 245.25874 61.762238 298.06992 Q 50.125874 312.3916 40.27972 327.6084 Q 34.013985 309.7063 31.32867 290.9091 Q 28.643356 273.9021 28.643356 256 Q 28.643356 251.52448 28.643356 247.94406 Q 36.6993 238.0979 44.755245 229.14685 Q 100.25175 213.03496 158.43356 204.97902 L 158.43356 204.97902 Z M 269.42657 84.13986 Q 320.44754 67.132866 375.94406 59.972027 Q 394.74127 70.71329 410.85315 85.034966 Q 418.9091 92.1958 426.06992 100.25175 Q 349.98602 85.034966 269.42657 84.13986 L 269.42657 84.13986 Z M 486.04196 271.2168 Q 486.04196 257.79022 473.5105 256 Q 460.08392 256.8951 458.2937 269.42657 Q 451.13287 349.98602 394.74127 401.9021 Q 339.24475 454.7133 257.79022 456.5035 Q 208.55943 456.5035 166.48952 435.02097 Q 125.31468 413.53845 97.56644 375.94406 Q 88.61539 366.993 76.97902 373.25873 Q 68.02797 382.20978 74.29371 393.84616 Q 106.51748 435.91608 153.95804 460.08392 Q 201.3986 484.25174 257.79022 485.14685 Q 319.55246 484.25174 369.6783 456.5035 Q 419.8042 427.86014 450.23776 379.52448 Q 481.56644 332.08392 486.04196 271.2168 L 486.04196 271.2168 Z M 333.8741 383.1049 Q 344.6154 390.26575 354.46155 381.3147 Q 362.5175 371.46854 353.56644 361.62238 Q 339.24475 348.1958 316.86713 338.34964 Q 294.4895 328.5035 264.95105 327.6084 Q 242.57343 327.6084 224.67133 333.8741 Q 213.03496 338.34964 215.72028 351.7762 Q 220.1958 363.4126 233.62238 360.72726 Q 247.04895 356.25174 264.95105 356.25174 Q 288.2238 357.14685 305.23077 364.30768 Q 323.13287 372.36365 333.8741 383.1049 L 333.8741 383.1049 Z M 350.88113 241.67831 Q 349.0909 221.98601 329.3986 220.1958 Q 309.7063 221.98601 307.91608 241.67831 Q 309.7063 261.37064 329.3986 263.16083 Q 349.0909 261.37064 350.88113 241.67831 L 350.88113 241.67831 Z" />
</svg>