<svg xmlns="http://www.w3.org/2000/svg" viewBox="0 0 608 480">
    <path d="M 136 32 L 136 96 L 208 96 L 240 96 L 312 96 L 312 32 L 136 32 L 136 32 Z M 104 32 L 64 32 Q 50 32 41 41 Q 32 50 32 64 L 32 96 L 104 96 L 104 32 L 104 32 Z M 32 128 L 32 208 L 104 208 L 136 208 L 208 208 L 208 128 L 32 128 L 32 128 Z M 32 320 L 104 320 L 104 240 L 32 240 L 32 320 L 32 320 Z M 32 352 L 32 384 Q 32 398 41 407 Q 50 416 64 416 L 208 416 L 208 352 L 136 352 L 104 352 L 32 352 L 32 352 Z M 136 320 L 256 320 Q 256 336 259 352 L 240 352 L 240 416 L 282 416 Q 292 433 306 448 L 64 448 Q 37 447 19 429 Q 1 411 0 384 L 0 64 Q 1 37 19 19 Q 37 1 64 0 L 384 0 Q 411 1 429 19 Q 447 37 448 64 L 448 113 Q 446 110 443 108 Q 431 98 416 96 L 416 64 Q 416 50 407 41 Q 398 32 384 32 L 344 32 L 344 96 L 344 128 L 240 128 L 240 208 L 295 208 Q 294 209 294 209 Q 294 210 293 211 Q 284 225 277 240 L 136 240 L 136 320 L 136 320 Z M 477 222 Q 462 221 452 210 Q 433 187 412 166 Q 372 205 348 244 Q 320 291 320 320 Q 321 374 357 410 Q 393 447 448 448 Q 503 447 539 410 Q 575 374 576 320 Q 576 298 555 256 Q 539 223 514 195 Q 508 202 502 209 Q 492 221 477 222 L 477 222 Z M 456 165 Q 467 177 477 190 Q 487 177 498 165 Q 501 162 504 160 Q 514 152 524 160 Q 561 196 584 241 Q 595 263 601 284 Q 608 305 608 320 Q 606 388 561 433 Q 516 478 448 480 Q 379 478 334 433 Q 290 388 288 320 Q 289 278 320 228 Q 351 178 402 132 Q 406 128 412 128 Q 417 128 422 132 Q 439 148 456 165 L 456 165 Z M 413 224 Q 421 224 426 230 Q 429 234 443 252 Q 450 261 458 272 L 476 294 L 499 267 Q 504 261 512 261 Q 519 261 524 267 Q 529 275 532 281 Q 532 281 532 281 L 532 282 Q 548 312 542 345 Q 535 377 507 398 L 507 398 L 507 398 Q 481 416 449 416 Q 409 416 381 391 Q 353 366 352 322 Q 352 299 365 278 Q 378 257 401 230 Q 405 224 413 224 L 413 224 Z M 508 305 L 487 329 Q 482 335 475 335 Q 467 335 463 329 L 475 319 L 462 329 L 462 329 L 462 329 L 462 329 L 462 329 L 462 328 L 460 326 L 453 317 L 433 291 L 413 266 Q 400 282 393 294 Q 384 310 384 322 Q 385 352 403 368 Q 420 383 449 384 Q 471 384 489 372 Q 504 361 509 342 Q 514 324 508 305 L 508 305 Z"/>
</svg>
