<svg xmlns="http://www.w3.org/2000/svg" viewBox="0 0 512 512">
  <path d="M 155.17538461538462 114.21538461538462 L 178.80615384615385 133.12 L 155.17538461538462 114.21538461538462 L 178.80615384615385 133.12 Q 180.38153846153847 126.81846153846153 180.38153846153847 119.72923076923077 Q 179.59384615384616 92.94769230769231 162.26461538461538 74.83076923076923 Q 144.1476923076923 57.50153846153846 117.36615384615385 56.713846153846156 Q 102.4 56.713846153846156 89.79692307692308 63.01538461538462 L 114.21538461538462 81.92 L 114.21538461538462 81.92 Q 115.79076923076923 81.92 117.36615384615385 81.92 Q 132.3323076923077 81.92 142.5723076923077 91.37230769230769 Q 152.81230769230768 100.03692307692307 155.17538461538462 114.21538461538462 L 155.17538461538462 114.21538461538462 Z M 111.06461538461538 207.95076923076923 L 92.16 207.95076923076923 L 111.06461538461538 207.95076923076923 L 92.16 207.95076923076923 Q 54.35076923076923 208.73846153846154 29.932307692307692 233.9446153846154 Q 4.726153846153847 258.3630769230769 3.9384615384615387 296.1723076923077 Q 4.726153846153847 307.9876923076923 16.54153846153846 308.7753846153846 Q 28.356923076923078 307.9876923076923 29.144615384615385 296.1723076923077 Q 29.932307692307692 269.39076923076925 47.261538461538464 251.27384615384616 Q 65.37846153846154 233.9446153846154 92.16 233.15692307692308 L 142.5723076923077 233.15692307692308 L 142.5723076923077 233.15692307692308 L 111.06461538461538 207.95076923076923 L 111.06461538461538 207.95076923076923 Z M 329.2553846153846 252.06153846153848 Q 331.61846153846153 242.60923076923078 331.61846153846153 233.15692307692308 Q 330.83076923076925 200.86153846153846 309.56307692307695 179.59384615384616 Q 288.2953846153846 158.32615384615386 256 157.53846153846155 Q 236.30769230769232 157.53846153846155 220.55384615384617 166.20307692307694 L 243.3969230769231 184.32 L 243.3969230769231 184.32 Q 249.69846153846154 182.74461538461537 256 182.74461538461537 Q 277.2676923076923 183.53230769230768 291.44615384615383 197.71076923076924 Q 305.62461538461537 211.88923076923078 306.4123076923077 233.15692307692308 L 306.4123076923077 233.9446153846154 L 306.4123076923077 233.9446153846154 L 329.2553846153846 252.06153846153848 L 329.2553846153846 252.06153846153848 Z M 270.17846153846153 333.98153846153843 L 256 333.98153846153843 L 270.17846153846153 333.98153846153843 L 209.52615384615385 333.98153846153843 Q 165.41538461538462 334.7692307692308 135.48307692307694 364.70153846153846 Q 105.55076923076923 394.63384615384615 104.76307692307692 438.7446153846154 Q 106.33846153846154 458.43692307692305 126.03076923076924 460.0123076923077 L 385.96923076923076 460.0123076923077 L 385.96923076923076 460.0123076923077 Q 403.29846153846154 458.43692307692305 407.23692307692306 441.8953846153846 L 379.66769230769233 420.6276923076923 L 379.66769230769233 420.6276923076923 Q 381.2430769230769 427.7169230769231 382.03076923076924 434.80615384615385 L 129.96923076923076 434.80615384615385 L 129.96923076923076 434.80615384615385 Q 132.3323076923077 402.51076923076926 154.3876923076923 381.2430769230769 Q 177.23076923076923 359.9753846153846 209.52615384615385 359.1876923076923 L 302.4738461538462 359.1876923076923 L 302.4738461538462 359.1876923076923 L 302.4738461538462 359.1876923076923 L 302.4738461538462 359.1876923076923 L 270.17846153846153 333.98153846153843 L 270.17846153846153 333.98153846153843 Z M 369.4276923076923 119.72923076923077 Q 370.2153846153846 98.46153846153847 388.33230769230767 86.64615384615385 Q 407.23692307692306 77.19384615384615 426.14153846153846 86.64615384615385 Q 444.2584615384615 98.46153846153847 445.04615384615386 119.72923076923077 Q 444.2584615384615 140.99692307692308 426.14153846153846 152.81230769230768 Q 407.23692307692306 162.26461538461538 388.33230769230767 152.81230769230768 Q 370.2153846153846 140.99692307692308 369.4276923076923 119.72923076923077 L 369.4276923076923 119.72923076923077 Z M 470.2523076923077 119.72923076923077 Q 469.4646153846154 84.28307692307692 438.7446153846154 65.37846153846154 Q 407.23692307692306 48.04923076923077 375.72923076923075 65.37846153846154 Q 345.0092307692308 84.28307692307692 344.22153846153844 119.72923076923077 Q 345.0092307692308 155.17538461538462 375.72923076923075 174.08 Q 407.23692307692306 191.40923076923076 438.7446153846154 174.08 Q 469.4646153846154 155.17538461538462 470.2523076923077 119.72923076923077 L 470.2523076923077 119.72923076923077 Z M 356.8246153846154 233.15692307692308 L 419.84 233.15692307692308 L 356.8246153846154 233.15692307692308 L 419.84 233.15692307692308 Q 446.6215384615385 233.9446153846154 464.73846153846154 251.27384615384616 Q 482.0676923076923 269.39076923076925 482.8553846153846 296.1723076923077 Q 483.64307692307693 307.9876923076923 495.45846153846156 308.7753846153846 Q 507.27384615384614 307.9876923076923 508.0615384615385 296.1723076923077 Q 507.27384615384614 258.3630769230769 482.0676923076923 233.9446153846154 Q 457.64923076923077 208.73846153846154 419.84 207.95076923076923 L 353.67384615384617 207.95076923076923 L 353.67384615384617 207.95076923076923 Q 356.8246153846154 219.76615384615386 356.8246153846154 233.15692307692308 L 356.8246153846154 233.15692307692308 Z M 24.41846153846154 59.07692307692308 Q 14.966153846153846 53.56307692307692 6.3015384615384615 61.44 Q 0 70.8923076923077 8.664615384615384 79.55692307692307 L 487.58153846153846 457.64923076923077 L 487.58153846153846 457.64923076923077 Q 497.0338461538461 463.95076923076925 505.6984615384615 455.28615384615387 Q 512 445.83384615384614 503.3353846153846 437.9569230769231 L 24.41846153846154 59.07692307692308 L 24.41846153846154 59.07692307692308 Z" />
</svg>