<svg xmlns="http://www.w3.org/2000/svg" viewBox="0 0 613 515">
    <path d="M 310 89 Q 305 74 297 60 L 375 6 Q 384 0 393 6 L 601 150 Q 613 159 605 172 Q 596 183 583 176 L 560 160 L 560 280 Q 556 277 553 275 Q 542 265 528 262 L 528 138 L 384 39 L 310 90 L 310 89 Z M 224 371 Q 256 369 282 350 Q 297 340 308 328 Q 320 318 332 328 Q 343 340 358 350 Q 384 369 416 371 Q 448 369 474 350 Q 489 340 500 328 Q 512 318 524 328 Q 535 340 550 350 Q 569 364 594 370 Q 607 373 608 385 Q 606 402 590 402 Q 555 394 532 376 Q 520 368 512 361 Q 504 368 492 376 Q 478 386 458 394 Q 439 403 416 403 Q 393 403 374 394 Q 354 386 340 376 Q 328 368 320 361 Q 312 368 300 376 Q 286 386 266 394 Q 247 403 224 403 Q 201 403 182 394 Q 162 386 148 376 Q 136 368 128 361 Q 120 368 108 376 Q 85 393 50 401 Q 34 402 32 385 Q 33 373 46 370 Q 70 364 90 350 Q 104 340 116 328 Q 128 318 140 328 Q 151 340 166 350 Q 192 369 224 371 L 224 371 Z M 166 462 Q 192 481 224 483 Q 256 481 282 462 Q 297 452 308 440 Q 320 430 332 440 Q 343 452 358 462 Q 384 481 416 483 Q 448 481 474 462 Q 489 452 500 440 Q 512 430 524 440 Q 535 452 550 462 Q 569 476 594 482 Q 607 485 608 497 Q 606 514 590 514 Q 555 506 532 488 Q 520 480 512 473 Q 504 480 492 488 Q 478 498 458 506 Q 439 515 416 515 Q 393 515 374 506 Q 354 498 340 488 Q 328 480 320 473 Q 312 480 300 488 Q 286 498 266 506 Q 247 515 224 515 Q 201 515 182 506 Q 162 498 148 488 Q 136 480 128 473 Q 120 480 108 488 Q 85 505 50 513 Q 34 514 32 497 Q 33 485 46 482 Q 70 476 90 462 Q 104 452 116 440 Q 128 430 140 440 Q 151 452 166 462 L 166 462 Z M 144 259 Q 174 259 200 244 L 200 244 Q 226 229 241 203 Q 256 177 256 147 Q 256 117 241 91 Q 226 65 200 50 Q 174 35 144 35 Q 114 35 88 50 Q 62 65 47 91 Q 32 117 32 147 Q 32 177 47 203 Q 62 229 88 244 Q 114 259 144 259 L 144 259 Z M 144 3 Q 183 3 216 22 L 216 22 Q 249 41 269 75 Q 288 109 288 147 Q 288 185 269 219 Q 249 253 216 272 Q 183 291 144 291 Q 105 291 72 272 Q 39 253 19 219 Q 0 185 0 147 Q 0 109 19 75 Q 39 41 72 22 Q 105 3 144 3 L 144 3 Z M 141 80 Q 152 70 163 80 L 219 136 Q 229 147 219 158 L 163 214 Q 152 224 141 214 Q 131 203 141 192 L 169 163 L 80 163 Q 65 162 64 147 Q 65 132 80 131 L 169 131 L 141 102 Q 131 91 141 80 L 141 80 Z"/>
</svg>
