<svg xmlns="http://www.w3.org/2000/svg" viewBox="0 0 512 512">
  <path d="M 469.7143 204.57143 Q 450.2857 130.28572 393.14285 84.57143 L 393.14285 84.57143 L 393.14285 84.57143 Q 334.85715 37.714287 256 36.57143 Q 194.28572 37.714287 145.14285 66.28571 Q 94.85714 96 66.28571 146.28572 L 128 146.28572 L 128 146.28572 Q 145.14285 147.42857 146.28572 164.57143 Q 145.14285 181.71428 128 182.85715 L 35.42857 182.85715 L 18.285715 182.85715 Q 1.1428572 181.71428 0 164.57143 L 0 54.857143 L 0 54.857143 Q 1.1428572 37.714287 18.285715 36.57143 Q 35.42857 37.714287 36.57143 54.857143 L 36.57143 124.57143 L 36.57143 124.57143 Q 70.85714 67.42857 128 34.285713 Q 185.14285 1.1428572 256 0 Q 348.57144 2.2857144 417.14285 57.142857 Q 484.57144 112 505.14285 198.85715 Q 507.42856 217.14285 488 219.42857 Q 473.14285 218.28572 469.7143 204.57143 L 469.7143 204.57143 Z M 42.285713 307.42856 Q 61.714287 381.7143 118.85714 427.42856 L 118.85714 427.42856 L 118.85714 427.42856 Q 177.14285 474.2857 256 475.42856 Q 317.7143 474.2857 366.85715 445.7143 Q 417.14285 416 445.7143 365.7143 L 384 365.7143 L 384 365.7143 Q 366.85715 364.57144 365.7143 347.42856 Q 366.85715 330.2857 384 329.14285 L 476.57144 329.14285 L 493.7143 329.14285 Q 509.7143 330.2857 512 347.42856 L 512 457.14285 L 512 457.14285 Q 509.7143 474.2857 493.7143 475.42856 Q 476.57144 474.2857 475.42856 457.14285 L 475.42856 388.57144 L 475.42856 388.57144 Q 441.14285 444.57144 384 477.7143 Q 326.85715 510.85715 256 512 Q 163.42857 509.7143 96 454.85715 Q 27.428572 400 6.857143 313.14285 Q 4.571429 294.85715 24 292.57144 Q 38.857143 293.7143 43.42857 307.42856 L 42.285713 307.42856 Z" />
</svg>