<svg xmlns="http://www.w3.org/2000/svg" viewBox="0 0 501 453">
    <path d="M 106 10 Q 117 0 128 10 L 224 106 Q 234 117 224 128 Q 213 138 202 128 L 133 60 L 133 437 Q 132 452 117 453 Q 102 452 101 437 L 101 60 L 32 128 Q 21 138 10 128 Q 0 117 10 106 L 106 10 L 106 10 Z M 309 53 L 309 117 Q 310 132 325 133 L 389 133 Q 404 132 405 117 L 405 53 Q 404 38 389 37 L 325 37 Q 310 38 309 53 L 309 53 Z M 277 53 Q 278 33 291 19 L 291 19 Q 305 6 325 5 L 389 5 Q 409 6 423 19 Q 436 33 437 53 L 437 117 Q 436 137 423 151 Q 409 164 389 165 L 325 165 Q 305 164 291 151 Q 278 137 277 117 L 277 53 L 277 53 Z M 309 405 Q 310 420 325 421 L 453 421 Q 468 420 469 405 L 469 277 Q 468 262 453 261 L 325 261 Q 310 262 309 277 L 309 405 L 309 405 Z M 277 405 L 277 277 Q 278 257 291 243 Q 305 230 325 229 L 453 229 Q 473 230 487 243 Q 500 257 501 277 L 501 405 Q 500 425 487 439 Q 473 452 453 453 L 325 453 Q 305 452 291 439 Q 278 425 277 405 L 277 405 Z"/>
</svg>
