<svg xmlns="http://www.w3.org/2000/svg" viewBox="0 0 640 448">
    <path d="M 16 0 Q 1 1 0 16 Q 1 31 16 32 L 32 32 L 32 416 L 16 416 Q 1 417 0 432 Q 1 447 16 448 L 48 448 L 592 448 L 624 448 Q 639 447 640 432 Q 639 417 624 416 L 608 416 L 608 32 L 624 32 Q 639 31 640 16 Q 639 1 624 0 L 592 0 L 48 0 L 16 0 L 16 0 Z M 64 416 L 64 32 L 576 32 L 576 416 L 64 416 L 64 416 Z M 192 112 Q 191 97 176 96 Q 161 97 160 112 L 160 336 Q 161 351 176 352 Q 191 351 192 336 L 192 112 L 192 112 Z M 288 112 Q 287 97 272 96 Q 257 97 256 112 L 256 336 Q 257 351 272 352 Q 287 351 288 336 L 288 112 L 288 112 Z M 384 112 Q 383 97 368 96 Q 353 97 352 112 L 352 336 Q 353 351 368 352 Q 383 351 384 336 L 384 112 L 384 112 Z M 480 112 Q 479 97 464 96 Q 449 97 448 112 L 448 336 Q 449 351 464 352 Q 479 351 480 336 L 480 112 L 480 112 Z"/>
</svg>
