<svg xmlns="http://www.w3.org/2000/svg" viewBox="0 0 640 512">
    <path d="M 224 224 Q 250 224 272 211 L 272 211 Q 294 198 307 176 Q 320 153 320 128 Q 320 103 307 80 Q 294 58 272 45 Q 250 32 224 32 Q 198 32 176 45 Q 154 58 141 80 Q 128 103 128 128 Q 128 153 141 176 Q 154 198 176 211 Q 198 224 224 224 L 224 224 Z M 32 480 L 384 480 Q 384 498 393 512 L 30 512 Q 17 512 9 503 Q 0 495 0 482 Q 2 407 52 356 Q 103 306 178 304 L 270 304 Q 336 305 384 346 Q 384 349 384 352 L 384 391 Q 364 366 334 351 Q 305 336 270 336 L 178 336 Q 117 338 76 378 Q 34 419 32 480 L 32 480 Z M 96 128 Q 96 93 113 64 L 113 64 Q 130 35 160 17 Q 190 0 224 0 Q 258 0 288 17 Q 318 35 335 64 Q 352 93 352 128 Q 352 163 335 192 Q 318 221 288 239 Q 258 256 224 256 Q 190 256 160 239 Q 130 221 113 192 Q 96 163 96 128 L 96 128 Z M 528 224 Q 508 225 494 238 L 494 238 Q 481 252 480 272 L 480 320 L 576 320 L 576 272 Q 575 252 562 238 Q 548 225 528 224 L 528 224 Z M 448 272 Q 449 238 471 215 L 471 215 Q 494 193 528 192 Q 562 193 585 215 Q 607 238 608 272 L 608 320 Q 622 320 631 329 Q 640 338 640 352 L 640 480 Q 640 494 631 503 Q 622 512 608 512 L 448 512 Q 434 512 425 503 Q 416 494 416 480 L 416 352 Q 416 338 425 329 Q 434 320 448 320 L 448 272 L 448 272 Z M 448 352 L 448 480 L 608 480 L 608 352 L 448 352 L 448 352 Z"/>
</svg>
