<svg xmlns="http://www.w3.org/2000/svg" viewBox="0 0 512 512">
  <path d="M 32 64 Q 33 37 51 19 L 51 19 L 51 19 Q 69 1 96 0 L 432 0 L 432 0 Q 452 1 466 14 Q 479 28 480 48 L 480 368 L 480 368 Q 478 401 448 413 L 448 480 L 448 480 L 464 480 L 464 480 Q 479 481 480 496 Q 479 511 464 512 L 96 512 L 96 512 Q 69 511 51 493 Q 33 475 32 448 L 32 448 L 32 448 L 32 64 L 32 64 Z M 96 416 Q 82 416 73 425 L 73 425 L 73 425 Q 64 434 64 448 Q 64 462 73 471 Q 82 480 96 480 L 416 480 L 416 480 L 416 416 L 416 416 L 96 416 L 96 416 Z M 64 393 Q 78 384 96 384 L 432 384 L 432 384 Q 447 383 448 368 L 448 48 L 448 48 Q 447 33 432 32 L 96 32 L 96 32 Q 82 32 73 41 Q 64 50 64 64 L 64 393 L 64 393 Z M 257 254 Q 239 251 218 238 L 218 238 L 218 238 Q 197 226 201 195 Q 204 179 217 170 Q 197 157 201 128 Q 206 105 228 95 Q 249 85 283 89 Q 294 91 311 96 Q 324 101 321 115 Q 316 127 302 125 Q 288 120 279 119 Q 237 114 230 134 Q 228 140 234 146 Q 240 151 264 158 L 271 160 L 271 160 L 271 160 L 271 160 Q 271 160 271 160 Q 294 164 316 177 Q 338 189 334 220 Q 331 236 318 246 Q 338 259 334 288 Q 325 327 271 328 Q 262 328 252 326 Q 233 323 216 317 L 211 315 L 211 315 Q 198 310 201 296 Q 206 284 220 287 L 225 288 L 225 288 Q 241 294 256 297 Q 298 301 305 282 Q 307 273 298 268 Q 290 263 264 256 L 257 254 L 257 254 Z M 254 186 Q 247 187 240 190 L 240 190 L 240 190 Q 232 193 230 201 Q 228 207 234 213 Q 240 219 264 225 Q 265 225 271 227 Q 278 229 281 230 Q 288 229 295 226 Q 303 222 305 215 Q 307 206 298 200 Q 290 195 264 189 Q 263 188 259 187 Q 255 186 254 186 L 254 186 Z" />
</svg>