<svg xmlns="http://www.w3.org/2000/svg" viewBox="0 0 512 512">
  <path d="M 24.41846153846154 56.32 Q 14.966153846153846 50.80615384615385 6.3015384615384615 58.683076923076925 Q 0 68.13538461538461 8.664615384615384 76.8 L 487.58153846153846 454.89230769230767 L 487.58153846153846 454.89230769230767 Q 497.0338461538461 461.19384615384615 505.6984615384615 452.52923076923076 Q 512 443.0769230769231 503.3353846153846 435.2 L 24.41846153846154 56.32 L 24.41846153846154 56.32 Z M 508.0615384615385 331.2246153846154 Q 508.0615384615385 302.08 493.0953846153846 278.4492307692308 L 493.0953846153846 278.4492307692308 L 493.0953846153846 278.4492307692308 Q 478.91692307692307 254.81846153846155 454.4984615384615 242.2153846153846 Q 457.64923076923077 230.4 457.64923076923077 217.79692307692306 Q 456.8615384615385 179.9876923076923 431.6553846153846 155.56923076923076 Q 407.23692307692306 130.36307692307693 369.4276923076923 129.57538461538462 Q 348.9476923076923 129.57538461538462 331.61846153846153 138.24 Q 312.71384615384613 110.67076923076922 282.78153846153845 94.91692307692308 Q 253.63692307692307 79.16307692307693 218.19076923076923 79.16307692307693 Q 175.6553846153846 79.95076923076923 142.5723076923077 102.00615384615385 L 163.84 118.5476923076923 L 163.84 118.5476923076923 Q 188.25846153846155 104.36923076923077 218.19076923076923 104.36923076923077 Q 247.3353846153846 104.36923076923077 270.9661538461539 117.76 Q 295.38461538461536 130.36307692307693 311.1384615384615 152.41846153846154 Q 323.7415384615385 168.1723076923077 342.6461538461538 161.08307692307693 Q 354.46153846153845 154.78153846153847 369.4276923076923 154.78153846153847 Q 396.20923076923077 155.56923076923076 414.32615384615383 172.89846153846153 Q 431.6553846153846 191.01538461538462 432.44307692307694 217.79692307692306 Q 432.44307692307694 227.24923076923076 430.08 235.12615384615384 Q 426.14153846153846 254.03076923076924 442.6830769230769 264.27076923076925 Q 460.8 274.51076923076926 471.8276923076923 291.84 Q 482.8553846153846 309.16923076923075 482.8553846153846 331.2246153846154 Q 482.8553846153846 349.34153846153845 474.97846153846154 364.3076923076923 L 495.45846153846156 380.0615384615385 L 495.45846153846156 380.0615384615385 Q 508.0615384615385 358.00615384615384 508.0615384615385 331.2246153846154 L 508.0615384615385 331.2246153846154 Z M 83.49538461538461 183.92615384615385 Q 80.34461538461538 197.31692307692308 79.55692307692307 211.4953846153846 Q 45.68615384615384 224.09846153846155 25.206153846153846 252.45538461538462 Q 4.726153846153847 280.8123076923077 3.9384615384615387 318.6215384615385 Q 5.513846153846154 366.6707692307692 37.02153846153846 398.9661538461539 Q 69.31692307692308 430.4738461538462 117.36615384615385 432.04923076923075 L 397.7846153846154 432.04923076923075 L 397.7846153846154 432.04923076923075 L 366.2769230769231 406.8430769230769 L 366.2769230769231 406.8430769230769 L 117.36615384615385 406.8430769230769 L 117.36615384615385 406.8430769230769 Q 79.55692307692307 406.05538461538464 55.13846153846154 380.84923076923076 Q 29.932307692307692 356.4307692307692 29.144615384615385 318.6215384615385 Q 29.932307692307692 289.4769230769231 45.68615384615384 267.4215384615385 Q 62.22769230769231 244.57846153846154 88.22153846153846 235.12615384615384 Q 103.1876923076923 229.6123076923077 104.76307692307692 213.07076923076923 Q 104.76307692307692 206.76923076923077 106.33846153846154 201.25538461538463 L 83.49538461538461 183.92615384615385 L 83.49538461538461 183.92615384615385 Z" />
</svg>