<svg xmlns="http://www.w3.org/2000/svg" viewBox="0 0 512 512">
  <path d="M 296.60689655172416 157.13103448275862 Q 296.60689655172416 211.86206896551724 275.4206896551724 259.5310344827586 Q 264.82758620689657 248.93793103448274 251.58620689655172 241.87586206896552 Q 268.3586206896552 203.0344827586207 268.3586206896552 157.13103448275862 Q 268.3586206896552 115.64137931034483 254.2344827586207 78.56551724137931 Q 248.05517241379312 60.91034482758621 258.64827586206894 45.90344827586207 Q 268.3586206896552 30.896551724137932 287.7793103448276 30.013793103448275 Q 301.0206896551724 30.013793103448275 311.6137931034483 38.84137931034483 Q 350.4551724137931 74.15172413793104 372.5241379310345 122.70344827586207 Q 395.4758620689655 171.2551724137931 395.4758620689655 227.75172413793103 Q 395.4758620689655 241.87586206896552 393.7103448275862 256.88275862068963 Q 378.70344827586206 257.7655172413793 364.5793103448276 263.06206896551726 Q 367.22758620689655 245.40689655172415 367.22758620689655 227.75172413793103 Q 367.22758620689655 177.4344827586207 346.92413793103447 134.1793103448276 Q 327.50344827586207 91.80689655172414 293.07586206896553 60.02758620689655 Q 290.42758620689654 58.262068965517244 287.7793103448276 58.262068965517244 Q 283.36551724137934 58.262068965517244 281.6 61.793103448275865 Q 279.8344827586207 65.32413793103449 280.71724137931034 68.8551724137931 Q 296.60689655172416 110.34482758620689 296.60689655172416 157.13103448275862 L 296.60689655172416 157.13103448275862 Z M 224.2206896551724 291.3103448275862 Q 210.97931034482758 284.24827586206897 195.97241379310344 284.24827586206897 Q 180.08275862068965 284.24827586206897 166.84137931034482 292.19310344827585 L 134.1793103448276 310.7310344827586 L 134.1793103448276 310.7310344827586 Q 122.70344827586207 316.02758620689656 114.75862068965517 305.4344827586207 Q 109.46206896551725 293.07586206896553 120.0551724137931 286.0137931034483 L 152.71724137931034 267.4758620689655 L 152.71724137931034 267.4758620689655 Q 173.02068965517242 256 195.97241379310344 256 Q 232.16551724137932 256.88275862068963 257.7655172413793 281.6 L 300.13793103448273 323.97241379310344 L 300.13793103448273 323.97241379310344 L 368.11034482758623 292.19310344827585 L 368.11034482758623 292.19310344827585 Q 385.7655172413793 284.24827586206897 404.3034482758621 284.24827586206897 Q 427.2551724137931 284.24827586206897 446.6758620689655 295.7241379310345 Q 466.09655172413795 306.31724137931036 477.57241379310346 326.62068965517244 L 506.70344827586206 376.0551724137931 L 506.70344827586206 376.0551724137931 Q 512 387.5310344827586 501.4068965517241 395.4758620689655 Q 489.9310344827586 400.77241379310345 481.9862068965517 390.17931034482757 L 453.73793103448276 340.7448275862069 L 453.73793103448276 340.7448275862069 Q 436.0827586206897 313.37931034482756 404.3034482758621 312.49655172413793 Q 391.9448275862069 312.49655172413793 380.4689655172414 317.7931034482759 L 378.70344827586206 317.7931034482759 L 378.70344827586206 317.7931034482759 Q 350.4551724137931 391.06206896551726 286.8965517241379 436.0827586206897 Q 224.2206896551724 481.1034482758621 141.24137931034483 481.9862068965517 L 42.37241379310345 481.9862068965517 L 42.37241379310345 481.9862068965517 Q 24.717241379310344 481.1034482758621 12.358620689655172 469.6275862068965 Q 0.8827586206896552 457.2689655172414 0 439.6137931034483 L 0 425.4896551724138 L 0 425.4896551724138 Q 0.8827586206896552 407.8344827586207 12.358620689655172 395.4758620689655 Q 24.717241379310344 384 42.37241379310345 383.11724137931037 Q 98.86896551724138 382.2344827586207 145.6551724137931 358.4 Q 192.44137931034481 333.68275862068964 224.2206896551724 291.3103448275862 L 224.2206896551724 291.3103448275862 Z M 339.86206896551727 336.33103448275864 L 302.78620689655173 353.9862068965517 L 339.86206896551727 336.33103448275864 L 302.78620689655173 353.9862068965517 Q 293.95862068965516 357.51724137931035 286.8965517241379 350.4551724137931 L 245.40689655172415 309.848275862069 L 245.40689655172415 309.848275862069 Q 210.09655172413792 356.63448275862066 158.01379310344828 384 Q 105.04827586206896 410.48275862068965 42.37241379310345 411.36551724137934 Q 29.131034482758622 412.24827586206897 28.248275862068965 425.4896551724138 L 28.248275862068965 439.6137931034483 L 28.248275862068965 439.6137931034483 Q 29.131034482758622 452.8551724137931 42.37241379310345 453.73793103448276 L 141.24137931034483 453.73793103448276 L 141.24137931034483 453.73793103448276 Q 205.68275862068967 452.8551724137931 257.7655172413793 421.07586206896553 Q 309.848275862069 390.17931034482757 338.9793103448276 336.33103448275864 L 339.86206896551727 336.33103448275864 Z" />
</svg>