<svg xmlns="http://www.w3.org/2000/svg" viewBox="0 0 512 512">
  <path d="M 12.8 48 Q 0.8 48.8 0 60.8 Q 0.8 72.8 12.8 73.6 L 43.2 73.6 L 43.2 73.6 Q 52.8 74.4 56 84 L 103.2 314.4 L 103.2 314.4 Q 107.2 332.8 120.8 344 Q 134.4 355.2 152.8 355.2 L 256.8 355.2 L 256.8 355.2 Q 256 348.8 256 342.4 Q 256 336 256.8 329.6 L 152.8 329.6 L 152.8 329.6 Q 132.8 328 128 308.8 L 121.6 278.4 L 121.6 278.4 L 271.2 278.4 L 271.2 278.4 Q 278.4 264.8 288 252.8 L 116 252.8 L 116 252.8 L 84.8 99.2 L 84.8 99.2 L 432 99.2 L 432 99.2 L 405.6 201.6 L 405.6 201.6 Q 419.2 202.4 431.2 205.6 L 456.8 105.6 L 456.8 105.6 Q 459.2 92.8 452 83.2 Q 444.8 74.4 432 73.6 L 79.2 73.6 L 79.2 73.6 Q 69.6 49.6 43.2 48 L 12.8 48 L 12.8 48 Z M 134.4 412.8 Q 136 395.2 153.6 393.6 Q 171.2 395.2 172.8 412.8 Q 171.2 430.4 153.6 432 Q 136 430.4 134.4 412.8 L 134.4 412.8 Z M 198.4 412.8 Q 197.6 387.2 176 374.4 Q 153.6 361.6 131.2 374.4 Q 109.6 387.2 108.8 412.8 Q 109.6 438.4 131.2 451.2 Q 153.6 464 176 451.2 Q 197.6 438.4 198.4 412.8 L 198.4 412.8 Z M 396.8 252.8 Q 420.8 252.8 441.6 264.8 L 441.6 264.8 L 441.6 264.8 Q 462.4 276.8 474.4 297.6 Q 486.4 318.4 486.4 342.4 Q 486.4 366.4 474.4 387.2 Q 462.4 408 441.6 420 Q 420.8 432 396.8 432 Q 372.8 432 352 420 Q 331.2 408 319.2 387.2 Q 307.2 366.4 307.2 342.4 Q 307.2 318.4 319.2 297.6 Q 331.2 276.8 352 264.8 Q 372.8 252.8 396.8 252.8 L 396.8 252.8 Z M 396.8 457.6 Q 428 457.6 454.4 442.4 L 454.4 442.4 L 454.4 442.4 Q 480.8 427.2 496.8 400 Q 512 372.8 512 342.4 Q 512 312 496.8 284.8 Q 480.8 257.6 454.4 242.4 Q 428 227.2 396.8 227.2 Q 365.6 227.2 339.2 242.4 Q 312.8 257.6 296.8 284.8 Q 281.6 312 281.6 342.4 Q 281.6 372.8 296.8 400 Q 312.8 427.2 339.2 442.4 Q 365.6 457.6 396.8 457.6 L 396.8 457.6 Z M 450.4 308 Q 441.6 300 432.8 308 L 384 356 L 384 356 L 360.8 333.6 L 360.8 333.6 Q 352 325.6 343.2 333.6 Q 335.2 342.4 343.2 351.2 L 375.2 383.2 L 375.2 383.2 Q 384 391.2 392.8 383.2 L 450.4 325.6 L 450.4 325.6 Q 458.4 316.8 450.4 308 L 450.4 308 Z" />
</svg>