<svg xmlns="http://www.w3.org/2000/svg" viewBox="0 0 512 512">
  <path d="M 50.8031 52.787598 Q 29.370543 53.581394 15.0821705 67.86977 L 15.0821705 67.86977 L 15.0821705 67.86977 Q 0.79379845 82.15814 0 103.5907 L 0 408.4093 L 0 408.4093 L 0 408.4093 L 0 408.4093 Q 0.79379845 429.84186 15.0821705 444.13022 Q 29.370543 458.4186 50.8031 459.2124 L 342.92093 459.2124 L 342.92093 459.2124 Q 354.8279 458.4186 355.6217 446.51163 Q 354.8279 434.60464 342.92093 433.81085 L 330.22015 433.81085 L 330.22015 433.81085 L 330.22015 380.62634 L 330.22015 380.62634 Q 354.03412 371.10077 355.6217 344.90543 L 355.6217 268.70078 L 355.6217 268.70078 L 330.22015 268.70078 L 330.22015 268.70078 L 330.22015 344.90543 L 330.22015 344.90543 Q 329.42636 356.8124 317.51938 357.6062 L 50.8031 357.6062 L 50.8031 357.6062 Q 36.51473 357.6062 25.40155 364.7504 L 25.40155 103.5907 L 25.40155 103.5907 Q 25.40155 92.477516 32.54574 85.333336 Q 39.689922 78.18915 50.8031 78.18915 L 317.51938 78.18915 L 317.51938 78.18915 Q 329.42636 78.98295 330.22015 90.88992 L 330.22015 167.09457 L 330.22015 167.09457 L 355.6217 167.09457 L 355.6217 167.09457 L 355.6217 90.88992 L 355.6217 90.88992 Q 354.8279 75.013954 344.5085 63.900776 Q 333.39536 53.581394 317.51938 52.787598 L 50.8031 52.787598 L 50.8031 52.787598 Z M 304.8186 383.00775 L 304.8186 433.81085 L 304.8186 383.00775 L 304.8186 433.81085 L 50.8031 433.81085 L 50.8031 433.81085 Q 39.689922 433.81085 32.54574 426.66666 Q 25.40155 419.5225 25.40155 408.4093 Q 25.40155 397.2961 32.54574 390.15195 Q 39.689922 383.00775 50.8031 383.00775 L 304.8186 383.00775 L 304.8186 383.00775 Z M 427.85736 132.96124 Q 419.12558 125.023254 410.3938 132.96124 Q 402.4558 141.69302 410.3938 150.4248 L 464.3721 205.1969 L 464.3721 205.1969 L 215.91318 205.1969 L 215.91318 205.1969 Q 204.0062 205.99069 203.2124 217.89767 Q 204.0062 229.80466 215.91318 230.59845 L 464.3721 230.59845 L 464.3721 230.59845 L 410.3938 285.37054 L 410.3938 285.37054 Q 402.4558 294.10233 410.3938 302.8341 Q 419.12558 310.7721 427.85736 302.8341 L 504.062 226.62946 L 504.062 226.62946 Q 512 217.89767 504.062 209.1659 L 427.85736 132.96124 L 427.85736 132.96124 Z" />
</svg>