<svg xmlns="http://www.w3.org/2000/svg" viewBox="0 0 512 512">
  <path d="M 268 331 L 364 227 L 268 331 L 364 227 Q 373 215 363 204 Q 351 195 340 205 L 272 279 L 272 279 L 272 16 L 272 16 Q 271 1 256 0 Q 241 1 240 16 L 240 279 L 240 279 L 172 205 L 172 205 Q 161 195 149 204 Q 139 215 148 227 L 244 331 L 244 331 Q 249 336 256 336 Q 263 336 268 331 L 268 331 Z M 64 32 Q 37 33 19 51 L 19 51 L 19 51 Q 1 69 0 96 L 0 448 L 0 448 Q 1 475 19 493 Q 37 511 64 512 L 448 512 L 448 512 Q 475 511 493 493 Q 511 475 512 448 L 512 96 L 512 96 Q 511 69 493 51 Q 475 33 448 32 L 400 32 L 400 32 Q 385 33 384 48 Q 385 63 400 64 L 448 64 L 448 64 Q 462 64 471 73 Q 480 82 480 96 L 480 448 L 480 448 Q 480 462 471 471 Q 462 480 448 480 L 64 480 L 64 480 Q 50 480 41 471 Q 32 462 32 448 L 32 96 L 32 96 Q 32 82 41 73 Q 50 64 64 64 L 112 64 L 112 64 Q 127 63 128 48 Q 127 33 112 32 L 64 32 L 64 32 Z" />
</svg>