<svg xmlns="http://www.w3.org/2000/svg" viewBox="0 0 512 512">
  <path d="M 32 32 Q 18 32 9 41 L 9 41 L 9 41 Q 0 50 0 64 L 0 96 L 0 96 Q 0 110 9 119 Q 18 128 32 128 L 480 128 L 480 128 Q 494 128 503 119 Q 512 110 512 96 L 512 64 L 512 64 Q 512 50 503 41 Q 494 32 480 32 L 32 32 L 32 32 Z M 32 64 L 480 64 L 32 64 L 480 64 L 480 96 L 480 96 L 32 96 L 32 96 L 32 64 L 32 64 Z M 1 453 Q 0 456 0 459 Q 2 478 21 480 L 491 480 L 491 480 Q 510 478 512 459 Q 512 456 511 453 L 490 384 L 490 384 L 456 384 L 456 384 L 476 448 L 476 448 L 36 448 L 36 448 L 56 384 L 56 384 L 22 384 L 22 384 L 1 453 L 1 453 Z M 22 256 L 1 325 L 22 256 L 1 325 Q 0 328 0 331 Q 2 350 21 352 L 491 352 L 491 352 Q 510 350 512 331 Q 512 328 511 325 L 490 256 L 490 256 L 456 256 L 456 256 L 476 320 L 476 320 L 36 320 L 36 320 L 56 256 L 56 256 L 22 256 L 22 256 Z M 476 192 L 36 192 L 476 192 L 36 192 L 46 160 L 46 160 L 12 160 L 12 160 L 1 197 L 1 197 Q 0 200 0 203 Q 2 222 21 224 L 491 224 L 491 224 Q 510 222 512 203 Q 512 200 511 197 L 500 160 L 500 160 L 466 160 L 466 160 L 476 192 L 476 192 Z" />
</svg>