<svg xmlns="http://www.w3.org/2000/svg" viewBox="0 0 512 512">
  <path d="M 113.77778 71.111115 Q 112.888885 57.77778 99.55556 56.88889 Q 86.22222 57.77778 85.333336 71.111115 L 85.333336 85.333336 L 85.333336 85.333336 Q 48.88889 86.22222 24.88889 110.22222 Q 0.8888889 134.22223 0 170.66667 Q 0.8888889 202.66667 20.444445 225.77777 Q 40 248.88889 70.22222 255.11111 L 29.333334 419.55554 L 29.333334 419.55554 Q 26.666666 432.8889 34.666668 444.44446 Q 42.666668 455.1111 56.88889 455.1111 L 149.33333 455.1111 L 149.33333 455.1111 Q 170.66667 454.22223 176.88889 433.77777 L 200 341.33334 L 200 341.33334 L 256 341.33334 L 256 341.33334 L 256 355.55554 L 256 355.55554 Q 256.8889 368.8889 270.22223 369.77777 Q 283.55554 368.8889 284.44446 355.55554 L 284.44446 327.1111 L 284.44446 327.1111 L 284.44446 298.66666 L 284.44446 298.66666 Q 283.55554 285.33334 270.22223 284.44446 Q 256.8889 285.33334 256 298.66666 L 256 312.8889 L 256 312.8889 L 207.11111 312.8889 L 207.11111 312.8889 L 221.33333 256 L 221.33333 256 L 398.22223 256 L 398.22223 256 Q 422.22223 256 441.77777 244.44444 Q 460.44446 232.88889 472 213.33333 L 476.44446 213.33333 L 476.44446 213.33333 Q 491.55554 213.33333 501.33334 202.66667 Q 512 192.88889 512 177.77777 L 512 163.55556 L 512 163.55556 Q 512 148.44444 501.33334 138.66667 Q 491.55554 128 476.44446 128 L 472 128 L 472 128 Q 460.44446 108.44444 441.77777 96.888885 Q 422.22223 85.333336 398.22223 85.333336 L 113.77778 85.333336 L 113.77778 85.333336 L 113.77778 71.111115 L 113.77778 71.111115 Z M 99.55556 113.77778 L 398.22223 113.77778 L 99.55556 113.77778 L 398.22223 113.77778 Q 435.55554 115.55556 450.66666 147.55556 Q 454.22223 156.44444 463.1111 156.44444 L 476.44446 156.44444 L 476.44446 156.44444 Q 482.66666 157.33333 483.55554 163.55556 L 483.55554 177.77777 L 483.55554 177.77777 Q 482.66666 184 476.44446 184.88889 L 463.1111 184.88889 L 463.1111 184.88889 Q 454.22223 184.88889 450.66666 193.77777 Q 435.55554 225.77777 398.22223 227.55556 L 228.44444 227.55556 L 85.333336 227.55556 Q 61.333332 226.66667 45.333332 210.66667 Q 29.333334 194.66667 28.444445 170.66667 Q 29.333334 146.66667 45.333332 130.66667 Q 61.333332 114.666664 85.333336 113.77778 L 99.55556 113.77778 L 99.55556 113.77778 Z M 85.333336 156.44444 Q 72 157.33333 71.111115 170.66667 Q 72 184 85.333336 184.88889 L 398.22223 184.88889 L 398.22223 184.88889 Q 411.55554 184 412.44446 170.66667 Q 411.55554 157.33333 398.22223 156.44444 L 85.333336 156.44444 L 85.333336 156.44444 Z M 56.88889 426.66666 L 99.55556 256 L 56.88889 426.66666 L 99.55556 256 L 192 256 L 192 256 L 149.33333 426.66666 L 149.33333 426.66666 L 56.88889 426.66666 L 56.88889 426.66666 Z" />
</svg>