<svg xmlns="http://www.w3.org/2000/svg" viewBox="0 0 512 512">
  <path d="M 256 128 Q 267.2 128 274.4 120.8 L 274.4 120.8 L 274.4 120.8 Q 281.6 113.6 281.6 102.4 Q 281.6 91.2 274.4 84 Q 267.2 76.8 256 76.8 Q 244.8 76.8 237.6 84 Q 230.4 91.2 230.4 102.4 Q 230.4 113.6 237.6 120.8 Q 244.8 128 256 128 L 256 128 Z M 256 51.2 Q 284.8 52 300 76.8 Q 314.4 102.4 300 128 Q 284.8 152.8 256 153.6 Q 227.2 152.8 212 128 Q 197.6 102.4 212 76.8 Q 227.2 52 256 51.2 L 256 51.2 Z M 238.4 204.8 Q 222.4 204.8 212 215.2 L 212 215.2 L 212 215.2 Q 201.6 224.8 200 240 L 196.8 279.2 L 196.8 279.2 Q 196 291.2 203.2 299.2 Q 210.4 307.2 222.4 307.2 L 290.4 307.2 L 290.4 307.2 Q 301.6 307.2 308.8 299.2 Q 316 291.2 315.2 279.2 L 312 240 L 312 240 Q 310.4 224.8 300 215.2 Q 289.6 204.8 273.6 204.8 L 238.4 204.8 L 238.4 204.8 Z M 238.4 179.2 L 273.6 179.2 L 238.4 179.2 L 273.6 179.2 Q 299.2 180 317.6 196 Q 335.2 212.8 337.6 237.6 L 340.8 277.6 L 340.8 277.6 Q 342.4 295.2 332.8 309.6 Q 323.2 324 307.2 329.6 L 307.2 448 L 307.2 448 Q 306.4 460 294.4 460.8 Q 282.4 460 281.6 448 L 281.6 332.8 L 281.6 332.8 L 230.4 332.8 L 230.4 332.8 L 230.4 448 L 230.4 448 Q 229.6 460 217.6 460.8 Q 205.6 460 204.8 448 L 204.8 329.6 L 204.8 329.6 Q 188.8 324 179.2 309.6 Q 169.6 295.2 171.2 277.6 L 174.4 237.6 L 174.4 237.6 Q 176.8 212.8 194.4 196 Q 212.8 180 238.4 179.2 L 238.4 179.2 Z M 25.6 76.8 Q 80 77.6 125.6 99.2 L 125.6 99.2 L 125.6 99.2 Q 171.2 121.6 203.2 160.8 Q 191.2 165.6 181.6 174.4 Q 152.8 140.8 112.8 121.6 Q 72.8 102.4 25.6 102.4 L 25.6 140.8 L 25.6 140.8 Q 25.6 187.2 45.6 225.6 Q 64.8 264.8 99.2 292 L 108.8 299.2 L 108.8 299.2 Q 116.8 307.2 111.2 316.8 L 104 327.2 L 104 327.2 Q 77.6 362.4 76.8 409.6 L 89.6 409.6 L 89.6 409.6 Q 141.6 408.8 179.2 377.6 L 179.2 408.8 L 179.2 408.8 Q 140 434.4 89.6 435.2 L 76.8 435.2 L 76.8 435.2 Q 65.6 435.2 58.4 428 Q 51.2 420.8 51.2 409.6 Q 52 353.6 83.2 312 Q 44.8 281.6 22.4 237.6 Q 0.8 193.6 0 140.8 L 0 102.4 L 0 102.4 Q 0 91.2 7.2 84 Q 14.4 76.8 25.6 76.8 L 25.6 76.8 Z M 331.2 174.4 Q 320.8 165.6 308.8 160.8 Q 340.8 121.6 386.4 99.2 Q 432 77.6 486.4 76.8 Q 497.6 76.8 504.8 84 Q 512 91.2 512 102.4 L 512 140.8 L 512 140.8 Q 511.2 193.6 489.6 237.6 Q 467.2 281.6 428.8 312 Q 460 353.6 460.8 409.6 Q 460.8 420.8 453.6 428 Q 446.4 435.2 435.2 435.2 L 422.4 435.2 L 422.4 435.2 Q 372 434.4 332.8 408.8 L 332.8 377.6 L 332.8 377.6 Q 370.4 408.8 422.4 409.6 L 435.2 409.6 L 435.2 409.6 Q 434.4 362.4 408 327.2 L 400.8 316.8 L 400.8 316.8 Q 395.2 307.2 403.2 299.2 L 412.8 292 L 412.8 292 Q 447.2 264.8 466.4 225.6 Q 486.4 187.2 486.4 140.8 L 486.4 102.4 L 486.4 102.4 Q 439.2 102.4 399.2 121.6 Q 359.2 140.8 331.2 174.4 L 331.2 174.4 Z" />
</svg>