<svg xmlns="http://www.w3.org/2000/svg" viewBox="0 0 512 512">
  <path d="M 358.4 76.8 L 102.4 76.8 L 358.4 76.8 L 102.4 76.8 Q 91.2 76.8 84 84 Q 76.8 91.2 76.8 102.4 L 76.8 281.6 L 76.8 281.6 L 256 281.6 L 256 281.6 L 256 307.2 L 256 307.2 L 76.8 307.2 L 27.2 307.2 Q 35.2 331.2 61.6 332.8 L 256 332.8 L 256 332.8 L 256 358.4 L 256 358.4 L 61.6 358.4 L 61.6 358.4 Q 35.2 357.6 18.4 340.8 Q 0.8 323.2 0 296.8 Q 1.6 283.2 15.2 281.6 L 51.2 281.6 L 51.2 281.6 L 51.2 102.4 L 51.2 102.4 Q 52 80.8 66.4 66.4 Q 80.8 52 102.4 51.2 L 358.4 51.2 L 358.4 51.2 Q 380 52 394.4 66.4 Q 408.8 80.8 409.6 102.4 L 409.6 128 L 409.6 128 L 384 128 L 384 128 L 384 102.4 L 384 102.4 Q 384 91.2 376.8 84 Q 369.6 76.8 358.4 76.8 L 358.4 76.8 Z M 307.2 422.4 Q 308 434.4 320 435.2 L 473.6 435.2 L 473.6 435.2 Q 485.6 434.4 486.4 422.4 L 486.4 281.6 L 486.4 281.6 L 422.4 281.6 L 422.4 281.6 Q 406.4 280.8 395.2 270.4 Q 384.8 259.2 384 243.2 L 384 179.2 L 384 179.2 L 320 179.2 L 320 179.2 Q 308 180 307.2 192 L 307.2 422.4 L 307.2 422.4 Z M 409.6 180 L 409.6 243.2 L 409.6 180 L 409.6 243.2 Q 410.4 255.2 422.4 256 L 486.4 256 L 486.4 256 Q 484.8 252.8 482.4 250.4 L 415.2 183.2 L 415.2 183.2 Q 412.8 180.8 409.6 180 L 409.6 180 Z M 433.6 164.8 L 500.8 232 L 433.6 164.8 L 500.8 232 Q 512 243.2 512 259.2 L 512 422.4 L 512 422.4 Q 512 438.4 500.8 449.6 Q 489.6 460 473.6 460.8 L 320 460.8 L 320 460.8 Q 304 460 292.8 449.6 Q 282.4 438.4 281.6 422.4 L 281.6 192 L 281.6 192 Q 282.4 176 292.8 164.8 Q 304 154.4 320 153.6 L 406.4 153.6 L 406.4 153.6 Q 422.4 153.6 433.6 164.8 L 433.6 164.8 Z" />
</svg>