<svg xmlns="http://www.w3.org/2000/svg" viewBox="0 0 512 512">
  <path d="M 73.14285714285714 36.57142857142857 Q 57.142857142857146 36.57142857142857 46.857142857142854 46.857142857142854 L 46.857142857142854 46.857142857142854 L 46.857142857142854 46.857142857142854 Q 36.57142857142857 57.142857142857146 36.57142857142857 73.14285714285714 L 36.57142857142857 438.85714285714283 L 36.57142857142857 438.85714285714283 Q 36.57142857142857 454.85714285714283 46.857142857142854 465.14285714285717 Q 57.142857142857146 475.42857142857144 73.14285714285714 475.42857142857144 L 438.85714285714283 475.42857142857144 L 438.85714285714283 475.42857142857144 Q 454.85714285714283 475.42857142857144 465.14285714285717 465.14285714285717 Q 475.42857142857144 454.85714285714283 475.42857142857144 438.85714285714283 L 475.42857142857144 73.14285714285714 L 475.42857142857144 73.14285714285714 Q 475.42857142857144 57.142857142857146 465.14285714285717 46.857142857142854 Q 454.85714285714283 36.57142857142857 438.85714285714283 36.57142857142857 L 73.14285714285714 36.57142857142857 L 73.14285714285714 36.57142857142857 Z M 0 73.14285714285714 Q 1.1428571428571428 42.285714285714285 21.714285714285715 21.714285714285715 L 21.714285714285715 21.714285714285715 L 21.714285714285715 21.714285714285715 Q 42.285714285714285 1.1428571428571428 73.14285714285714 0 L 438.85714285714283 0 L 438.85714285714283 0 Q 469.7142857142857 1.1428571428571428 490.2857142857143 21.714285714285715 Q 510.85714285714283 42.285714285714285 512 73.14285714285714 L 512 438.85714285714283 L 512 438.85714285714283 Q 510.85714285714283 469.7142857142857 490.2857142857143 490.2857142857143 Q 469.7142857142857 510.85714285714283 438.85714285714283 512 L 73.14285714285714 512 L 73.14285714285714 512 Q 42.285714285714285 510.85714285714283 21.714285714285715 490.2857142857143 Q 1.1428571428571428 469.7142857142857 0 438.85714285714283 L 0 73.14285714285714 L 0 73.14285714285714 Z M 179.42857142857142 117.71428571428571 L 329.14285714285717 326.85714285714283 L 179.42857142857142 117.71428571428571 L 329.14285714285717 326.85714285714283 L 329.14285714285717 128 L 329.14285714285717 128 Q 330.2857142857143 110.85714285714286 347.42857142857144 109.71428571428571 Q 364.57142857142856 110.85714285714286 365.7142857142857 128 L 365.7142857142857 384 L 365.7142857142857 384 Q 364.57142857142856 396.57142857142856 353.14285714285717 401.14285714285717 Q 340.57142857142856 404.57142857142856 332.57142857142856 394.2857142857143 L 182.85714285714286 185.14285714285714 L 182.85714285714286 185.14285714285714 L 182.85714285714286 384 L 182.85714285714286 384 Q 181.71428571428572 401.14285714285717 164.57142857142858 402.2857142857143 Q 147.42857142857142 401.14285714285717 146.28571428571428 384 L 146.28571428571428 128 L 146.28571428571428 128 Q 147.42857142857142 115.42857142857143 158.85714285714286 110.85714285714286 Q 171.42857142857142 107.42857142857143 179.42857142857142 117.71428571428571 L 179.42857142857142 117.71428571428571 Z" />
</svg>