<svg xmlns="http://www.w3.org/2000/svg" viewBox="0 0 512 512">
  <path d="M 160 64 Q 146 64 137 73 L 137 73 L 137 73 Q 128 82 128 96 L 128 416 L 128 416 Q 128 434 119 448 L 432 448 L 432 448 Q 452 447 466 434 Q 479 420 480 400 L 480 96 L 480 96 Q 480 82 471 73 Q 462 64 448 64 L 160 64 L 160 64 Z M 64 480 Q 37 479 19 461 L 19 461 L 19 461 Q 1 443 0 416 L 0 160 L 0 160 Q 1 133 19 115 Q 37 97 64 96 L 64 128 L 64 128 Q 50 128 41 137 Q 32 146 32 160 L 32 416 L 32 416 Q 32 430 41 439 Q 50 448 64 448 Q 78 448 87 439 Q 96 430 96 416 L 96 96 L 96 96 Q 97 69 115 51 Q 133 33 160 32 L 448 32 L 448 32 Q 475 33 493 51 Q 511 69 512 96 L 512 400 L 512 400 Q 511 434 489 457 Q 466 479 432 480 L 64 480 L 64 480 Z M 384 112 Q 385 97 400 96 L 432 96 L 432 96 Q 447 97 448 112 Q 447 127 432 128 L 400 128 L 400 128 Q 385 127 384 112 L 384 112 Z M 384 176 Q 385 161 400 160 L 432 160 L 432 160 Q 447 161 448 176 Q 447 191 432 192 L 400 192 L 400 192 Q 385 191 384 176 L 384 176 Z M 384 240 Q 385 225 400 224 L 432 224 L 432 224 Q 447 225 448 240 Q 447 255 432 256 L 400 256 L 400 256 Q 385 255 384 240 L 384 240 Z M 160 304 Q 161 289 176 288 L 432 288 L 432 288 Q 447 289 448 304 Q 447 319 432 320 L 176 320 L 176 320 Q 161 319 160 304 L 160 304 Z M 160 368 Q 161 353 176 352 L 432 352 L 432 352 Q 447 353 448 368 Q 447 383 432 384 L 176 384 L 176 384 Q 161 383 160 368 L 160 368 Z M 192 224 L 320 224 L 192 224 L 320 224 L 320 128 L 320 128 L 192 128 L 192 128 L 192 224 L 192 224 Z M 160 120 Q 162 98 184 96 L 328 96 L 328 96 Q 350 98 352 120 L 352 232 L 352 232 Q 350 254 328 256 L 184 256 L 184 256 Q 162 254 160 232 L 160 120 L 160 120 Z" />
</svg>