<svg xmlns="http://www.w3.org/2000/svg" viewBox="0 0 448 512">
    <path d="M 112 0 Q 127 1 128 16 L 128 64 L 320 64 L 320 16 Q 321 1 336 0 Q 351 1 352 16 L 352 64 L 384 64 Q 411 65 429 83 Q 447 101 448 128 L 448 160 L 448 192 L 448 448 Q 447 475 429 493 Q 411 511 384 512 L 64 512 Q 37 511 19 493 Q 1 475 0 448 L 0 192 L 0 160 L 0 128 Q 1 101 19 83 Q 37 65 64 64 L 96 64 L 96 16 Q 97 1 112 0 L 112 0 Z M 416 192 L 32 192 L 32 448 Q 32 462 41 471 Q 50 480 64 480 L 384 480 Q 398 480 407 471 Q 416 462 416 448 L 416 192 L 416 192 Z M 384 96 L 64 96 Q 50 96 41 105 Q 32 114 32 128 L 32 160 L 416 160 L 416 128 Q 416 114 407 105 Q 398 96 384 96 L 384 96 Z M 384 272 Q 383 287 368 288 L 208 288 Q 193 287 192 272 Q 193 257 208 256 L 368 256 Q 383 257 384 272 L 384 272 Z M 240 416 L 80 416 Q 65 415 64 400 Q 65 385 80 384 L 240 384 Q 255 385 256 400 Q 255 415 240 416 L 240 416 Z M 96 272 Q 97 287 112 288 Q 127 287 128 272 Q 127 257 112 256 Q 97 257 96 272 L 96 272 Z M 112 320 Q 85 319 70 296 Q 58 272 70 248 Q 85 225 112 224 Q 139 225 154 248 Q 166 272 154 296 Q 139 319 112 320 L 112 320 Z M 336 416 Q 351 415 352 400 Q 351 385 336 384 Q 321 385 320 400 Q 321 415 336 416 L 336 416 Z M 384 400 Q 383 427 360 442 Q 336 454 312 442 Q 289 427 288 400 Q 289 373 312 358 Q 336 346 360 358 Q 383 373 384 400 L 384 400 Z"/>
</svg>
