<svg xmlns="http://www.w3.org/2000/svg" viewBox="0 0 512 512">
  <path d="M 0 37 Q 0 21 11 11 L 11 11 L 11 11 Q 21 0 37 0 L 474 0 L 474 0 Q 490 0 501 11 Q 512 22 512 38 Q 512 42 511 45 L 424 499 L 424 499 Q 420 511 408 512 Q 395 511 392 499 L 334 187 L 334 187 L 304 308 L 304 308 Q 300 319 288 320 Q 276 319 273 308 L 251 229 L 251 229 L 216 403 L 216 403 Q 212 415 200 416 Q 188 415 184 403 L 148 222 L 148 222 L 119 309 L 119 309 Q 115 319 104 320 Q 93 319 89 309 L 2 48 L 2 48 Q 0 43 0 37 L 0 37 Z M 37 32 Q 32 32 32 37 Q 32 37 32 37 Q 32 38 32 38 L 104 253 L 104 253 L 137 155 L 137 155 Q 141 144 153 144 Q 165 145 168 157 L 200 318 L 200 318 L 232 157 L 232 157 Q 235 145 247 144 Q 259 144 263 156 L 287 241 L 287 241 L 321 108 L 321 108 Q 324 96 337 96 Q 349 97 352 109 L 408 410 L 408 410 L 480 39 L 480 39 Q 480 38 480 38 Q 480 32 474 32 L 37 32 L 37 32 Z" />
</svg>