<svg xmlns="http://www.w3.org/2000/svg" viewBox="0 0 514 448">
    <path d="M 34 208 Q 36 137 97 86 L 97 86 Q 159 34 258 32 Q 357 34 419 86 Q 480 137 482 208 Q 480 279 419 330 Q 357 382 258 384 Q 210 384 165 368 Q 149 363 135 372 Q 112 388 87 399 L 93 414 L 87 399 Q 71 406 54 411 Q 55 410 55 409 Q 55 409 56 408 Q 77 373 81 332 Q 82 318 74 308 Q 36 264 34 208 L 34 208 Z M 258 0 Q 186 1 129 28 L 129 28 Q 71 56 37 103 L 37 103 Q 3 150 2 208 Q 5 278 49 329 Q 49 329 49 329 Q 49 329 50 329 Q 46 363 28 392 Q 19 408 7 421 Q 0 429 3 438 Q 8 448 18 448 Q 62 446 100 429 Q 128 416 153 398 Q 154 398 154 398 Q 204 415 258 416 Q 330 415 387 388 Q 445 360 479 313 Q 513 266 514 208 Q 513 150 479 103 Q 445 56 387 28 Q 330 1 258 0 L 258 0 Z M 194 184 Q 216 182 218 160 Q 216 138 194 136 Q 172 138 170 160 Q 172 182 194 184 L 194 184 Z M 322 184 Q 344 182 346 160 Q 344 138 322 136 Q 300 138 298 160 Q 300 182 322 184 L 322 184 Z M 158 252 Q 148 263 157 275 Q 196 318 258 320 Q 320 318 359 275 Q 368 263 358 252 Q 346 243 336 253 Q 306 287 258 288 Q 210 287 181 253 Q 170 243 158 252 L 158 252 Z"/>
</svg>
