<svg xmlns="http://www.w3.org/2000/svg" viewBox="0 0 512 512">
  <path d="M 327.52942 63.058823 Q 308.70587 45.17647 284.2353 45.17647 L 284.2353 45.17647 L 284.2353 45.17647 Q 260.70587 45.17647 241.88235 63.058823 L 117.64706 186.35294 L 117.64706 186.35294 L 252.23529 320 L 252.23529 320 Q 245.64706 336 242.82353 353.88235 L 96 208 L 96 208 L 93.17647 210.82353 L 93.17647 210.82353 Q 73.411766 232.47058 83.76471 259.7647 L 107.29412 316.2353 L 107.29412 316.2353 Q 113.882355 333.17648 110.117645 351.05884 Q 107.29412 368.94116 94.117645 382.11765 L 34.82353 441.41177 L 34.82353 441.41177 Q 25.411764 451.7647 34.82353 462.11765 Q 45.17647 471.52942 55.52941 462.11765 L 115.76471 402.82352 L 115.76471 402.82352 Q 144 376.47058 180.70589 389.64706 L 236.23529 412.2353 L 236.23529 412.2353 Q 240.94118 414.11765 245.64706 415.05884 Q 250.35294 431.05884 257.88235 446.11765 Q 240.94118 447.05884 224.94118 440.47058 L 169.41176 417.88235 L 169.41176 417.88235 Q 151.52942 411.29413 136.47058 424.47058 L 77.17647 483.7647 L 77.17647 483.7647 Q 63.058823 496.94116 45.17647 496.94116 Q 27.294117 496.94116 13.176471 483.7647 Q 0 469.64706 0 451.7647 Q 0 433.88235 13.176471 419.7647 L 72.47059 360.47058 L 72.47059 360.47058 Q 85.64706 346.35294 79.05882 328.47058 L 55.52941 272 L 55.52941 272 Q 47.058823 250.35294 50.82353 227.76471 Q 55.52941 206.11765 71.52941 190.11765 L 220.23529 41.411766 L 220.23529 41.411766 Q 248.47058 15.058824 284.2353 15.058824 Q 320.94116 15.058824 348.2353 41.411766 L 455.52942 147.76471 L 455.52942 147.76471 Q 476.2353 169.41176 480.94116 196.70589 Q 484.70587 224 473.41177 250.35294 Q 460.2353 241.88235 446.11765 236.23529 Q 453.64706 219.29411 450.82352 201.41176 Q 448 183.52942 433.88235 169.41176 L 327.52942 63.058823 L 327.52942 63.058823 Z M 391.52942 466.82352 Q 416 466.82352 436.70587 454.58823 L 436.70587 454.58823 L 436.70587 454.58823 Q 457.41177 443.29413 469.64706 421.64706 Q 481.88235 400 481.88235 376.47058 Q 481.88235 352.94116 469.64706 331.29413 Q 457.41177 310.58823 436.70587 298.35294 Q 416 286.11765 391.52942 286.11765 Q 367.05884 286.11765 346.35294 298.35294 Q 325.64706 310.58823 313.41177 331.29413 Q 301.17648 352.94116 301.17648 376.47058 Q 301.17648 400 313.41177 421.64706 Q 325.64706 443.29413 346.35294 454.58823 Q 367.05884 466.82352 391.52942 466.82352 L 391.52942 466.82352 Z M 391.52942 256 Q 424.47058 256 451.7647 272 L 451.7647 272 L 451.7647 272 Q 479.05884 288 496 316.2353 Q 512 344.47058 512 376.47058 Q 512 408.47058 496 436.70587 Q 479.05884 464.94116 451.7647 480.94116 Q 424.47058 496.94116 391.52942 496.94116 Q 358.58823 496.94116 331.29413 480.94116 Q 304 464.94116 287.05884 436.70587 Q 271.05884 408.47058 271.05884 376.47058 Q 271.05884 344.47058 287.05884 316.2353 Q 304 288 331.29413 272 Q 358.58823 256 391.52942 256 L 391.52942 256 Z M 331.29413 376.47058 Q 317.17648 375.52942 316.2353 361.41177 Q 317.17648 347.29413 331.29413 346.35294 Q 345.41177 347.29413 346.35294 361.41177 Q 345.41177 375.52942 331.29413 376.47058 L 331.29413 376.47058 Z M 391.52942 436.70587 Q 390.58823 450.82352 376.47058 451.7647 Q 362.35294 450.82352 361.41177 436.70587 Q 362.35294 422.58823 376.47058 421.64706 Q 390.58823 422.58823 391.52942 436.70587 L 391.52942 436.70587 Z M 391.52942 391.52942 Q 377.41177 390.58823 376.47058 376.47058 Q 377.41177 362.35294 391.52942 361.41177 Q 405.64706 362.35294 406.58823 376.47058 Q 405.64706 390.58823 391.52942 391.52942 L 391.52942 391.52942 Z M 466.82352 391.52942 Q 465.88235 405.64706 451.7647 406.58823 Q 437.64706 405.64706 436.70587 391.52942 Q 437.64706 377.41177 451.7647 376.47058 Q 465.88235 377.41177 466.82352 391.52942 L 466.82352 391.52942 Z M 406.58823 331.29413 Q 392.47058 330.35294 391.52942 316.2353 Q 392.47058 302.11765 406.58823 301.17648 Q 420.70587 302.11765 421.64706 316.2353 Q 420.70587 330.35294 406.58823 331.29413 L 406.58823 331.29413 Z" />
</svg>