<svg xmlns="http://www.w3.org/2000/svg" viewBox="0 0 512 512">
  <path d="M 42.666668 85.333336 Q 29.333334 86.22222 28.444445 99.55556 L 28.444445 355.55554 L 28.444445 355.55554 Q 29.333334 368.8889 42.666668 369.77777 L 469.33334 369.77777 L 469.33334 369.77777 Q 482.66666 368.8889 483.55554 355.55554 L 483.55554 99.55556 L 483.55554 99.55556 Q 482.66666 86.22222 469.33334 85.333336 L 455.1111 85.333336 L 42.666668 85.333336 Z M 455.1111 56.88889 L 469.33334 56.88889 L 455.1111 56.88889 L 469.33334 56.88889 Q 487.1111 57.77778 499.55554 69.333336 Q 511.1111 81.77778 512 99.55556 L 512 355.55554 L 512 355.55554 Q 511.1111 373.33334 499.55554 385.77777 Q 487.1111 397.33334 469.33334 398.22223 L 455.1111 398.22223 L 455.1111 398.22223 L 455.1111 469.33334 L 455.1111 469.33334 Q 454.22223 482.66666 440.8889 483.55554 Q 427.55554 482.66666 426.66666 469.33334 L 426.66666 398.22223 L 426.66666 398.22223 L 85.333336 398.22223 L 85.333336 398.22223 L 85.333336 469.33334 L 85.333336 469.33334 Q 84.44444 482.66666 71.111115 483.55554 Q 57.77778 482.66666 56.88889 469.33334 L 56.88889 398.22223 L 56.88889 398.22223 L 42.666668 398.22223 L 42.666668 398.22223 Q 24.88889 397.33334 12.444445 385.77777 Q 0.8888889 373.33334 0 355.55554 L 0 99.55556 L 0 99.55556 Q 0.8888889 81.77778 12.444445 69.333336 Q 24.88889 57.77778 42.666668 56.88889 L 56.88889 56.88889 L 56.88889 56.88889 L 56.88889 42.666668 L 56.88889 42.666668 Q 57.77778 29.333334 71.111115 28.444445 Q 84.44444 29.333334 85.333336 42.666668 L 85.333336 56.88889 L 85.333336 56.88889 L 426.66666 56.88889 L 426.66666 56.88889 L 426.66666 42.666668 L 426.66666 42.666668 Q 427.55554 29.333334 440.8889 28.444445 Q 454.22223 29.333334 455.1111 42.666668 L 455.1111 56.88889 L 455.1111 56.88889 Z" />
</svg>