<svg xmlns="http://www.w3.org/2000/svg" viewBox="0 0 576 448">
    <path d="M 32 80 Q 33 60 46 46 L 46 46 Q 60 33 80 32 Q 100 33 114 46 Q 127 60 128 80 L 128 368 Q 129 402 151 425 Q 174 447 208 448 L 504 448 Q 535 447 555 427 Q 575 407 576 376 L 576 320 Q 576 303 564 292 Q 553 280 536 280 L 535 280 L 535 280 L 534 280 L 534 280 L 533 280 L 533 280 L 532 280 L 532 280 L 531 280 L 531 280 L 530 280 L 530 280 L 529 280 L 529 280 L 528 280 L 528 280 L 527 280 L 527 280 L 526 280 L 526 280 L 525 280 L 524 280 L 524 280 L 523 280 L 523 280 L 522 280 L 522 280 L 521 280 L 521 280 L 520 280 L 520 280 L 519 280 L 519 280 L 518 280 L 518 280 L 517 280 L 517 280 L 516 280 L 516 280 L 515 280 L 515 280 L 514 280 L 513 280 L 513 280 L 512 280 L 512 280 L 511 280 L 511 280 L 510 280 L 510 280 L 509 280 L 509 280 L 508 280 L 508 280 L 507 280 L 507 280 L 506 280 L 506 280 L 505 280 L 505 280 L 504 280 L 504 280 L 503 280 L 503 280 L 502 280 L 502 280 L 501 280 L 501 280 L 500 280 L 500 280 L 499 280 L 499 280 L 498 280 L 498 280 L 497 280 L 497 280 L 496 280 L 496 280 L 495 280 L 495 280 L 494 280 L 494 280 L 493 280 L 493 280 L 492 280 L 492 280 L 491 280 L 491 280 L 490 280 L 490 280 L 489 280 L 489 280 L 488 280 L 488 280 L 487 280 L 487 280 L 486 280 L 486 280 L 485 280 L 485 280 L 485 280 L 484 280 L 484 280 L 483 280 L 483 280 L 482 280 L 482 280 L 481 280 L 481 280 L 480 280 L 480 280 L 479 280 L 479 280 L 478 280 L 478 280 L 477 280 L 477 280 L 477 280 L 476 280 L 476 280 L 475 280 L 475 280 L 474 280 L 474 280 L 473 280 L 473 280 L 472 280 L 472 280 L 471 280 L 471 280 L 471 280 L 470 280 L 470 280 L 469 280 L 469 280 L 468 280 L 468 280 L 467 280 L 467 280 L 466 280 L 466 280 L 466 280 L 465 280 L 465 280 L 464 280 L 464 280 L 463 280 L 463 280 L 462 280 L 462 280 L 462 280 L 461 280 L 461 280 L 460 280 L 460 280 L 460 280 L 459 280 L 459 280 L 458 280 L 458 280 L 458 280 L 457 280 L 457 280 L 456 280 L 456 280 L 456 280 L 455 280 L 454 280 L 454 280 L 453 280 L 453 280 L 452 280 L 452 280 L 452 280 L 451 280 L 451 280 L 450 280 L 450 280 L 449 280 L 449 280 L 448 280 L 448 280 L 448 280 L 447 280 L 447 280 L 446 280 L 446 280 L 446 280 L 445 280 L 445 280 L 444 280 L 444 280 L 443 280 L 443 280 L 442 280 L 442 280 L 441 280 L 441 280 L 441 280 L 440 280 L 440 280 L 439 280 L 439 280 L 438 280 L 438 280 L 438 280 L 437 280 L 437 280 L 436 280 L 436 280 L 435 280 L 435 280 L 435 280 L 434 280 L 434 280 L 433 280 L 433 280 L 432 280 L 432 280 L 432 280 L 431 280 L 431 280 L 430 280 L 430 280 L 429 280 L 429 280 L 429 280 L 428 280 L 428 280 L 427 280 L 427 280 L 426 280 L 426 280 L 426 280 L 425 280 L 425 280 L 424 280 L 424 280 L 423 280 L 423 280 L 423 280 L 422 280 L 422 280 L 421 280 L 421 280 L 420 280 L 420 280 L 420 280 L 419 280 L 419 280 L 418 280 L 418 280 L 417 280 L 417 280 L 417 280 L 416 280 L 416 280 L 415 280 L 415 280 L 414 280 L 414 280 L 414 280 L 413 280 L 413 280 L 412 280 L 412 280 L 411 280 L 411 280 L 411 280 L 410 280 L 410 280 L 409 280 L 409 280 L 408 280 L 408 280 L 408 280 L 407 280 L 407 280 L 406 280 L 406 280 L 405 280 L 405 280 L 405 280 L 404 280 L 404 280 L 403 280 L 403 280 L 402 280 L 402 280 L 402 280 L 401 280 L 401 280 L 400 280 L 400 280 L 399 280 L 399 280 L 399 280 L 398 280 L 398 280 L 397 280 L 397 280 L 396 280 L 396 280 L 396 280 L 395 280 L 395 280 L 394 280 L 394 280 L 393 280 L 393 280 L 393 280 L 392 280 L 392 280 L 391 280 L 391 280 L 390 280 L 390 280 L 390 280 L 389 280 L 389 280 L 388 280 L 388 280 L 387 280 L 387 280 L 387 280 L 386 280 L 386 280 L 385 280 L 385 280 L 385 280 L 384 280 L 384 280 L 383 280 L 383 280 L 382 280 L 382 280 L 381 280 L 381 280 L 380 280 L 380 280 L 380 280 L 379 280 L 379 280 L 378 280 L 378 280 L 377 280 L 377 280 L 376 280 L 376 280 L 376 280 L 375 280 L 375 280 L 374 280 L 374 280 L 374 280 L 373 280 L 373 280 L 372 280 L 372 280 L 372 280 L 371 280 L 370 280 L 370 280 L 369 280 L 369 280 L 368 280 L 368 280 L 367 280 L 367 280 L 366 280 L 366 280 L 366 280 L 365 280 L 365 280 L 364 280 L 364 280 L 363 280 L 363 280 L 362 280 L 362 280 L 361 280 L 361 280 L 361 280 L 360 280 L 360 280 L 359 280 L 359 280 L 358 280 L 358 280 L 357 280 L 357 280 L 356 280 L 356 280 L 355 280 L 355 280 L 355 280 L 354 280 L 354 280 L 353 280 L 353 280 L 352 280 L 352 280 L 351 280 L 351 280 L 350 280 L 350 280 L 349 280 L 349 280 L 348 280 L 348 280 L 348 280 L 347 280 L 347 280 L 346 280 L 346 280 L 345 280 L 345 280 L 344 280 L 344 280 L 343 280 L 343 280 L 342 280 L 342 280 L 341 280 L 341 280 L 340 280 L 340 280 L 339 280 L 339 280 L 338 280 L 338 280 L 337 280 L 337 280 L 337 280 L 336 280 L 336 280 L 335 280 L 335 280 L 334 280 L 334 280 L 333 280 L 333 280 L 332 280 L 332 280 L 331 280 L 331 280 L 330 280 L 330 280 L 329 280 L 329 280 L 328 280 L 328 280 L 327 280 L 327 280 L 326 280 L 326 280 L 325 280 L 325 280 L 324 280 L 324 280 L 323 280 L 323 280 L 322 280 L 322 280 L 321 280 L 321 280 L 320 280 L 320 280 L 319 280 L 319 280 L 318 280 L 318 280 L 317 280 L 317 280 L 316 280 L 316 280 L 315 280 L 315 280 L 314 280 L 314 280 L 313 280 L 313 280 L 312 280 L 312 280 L 311 280 L 311 280 L 310 280 L 309 280 L 309 280 L 308 280 L 308 280 L 307 280 L 307 280 L 306 280 L 306 280 L 305 280 L 305 280 L 304 280 L 304 280 L 303 280 L 303 280 L 302 280 L 301 280 L 301 280 L 300 280 L 300 280 L 299 280 L 299 280 L 298 280 L 297 280 L 297 280 L 296 280 Q 279 280 268 292 Q 256 303 256 320 L 256 368 Q 255 388 242 402 Q 228 415 208 416 Q 188 415 174 402 Q 161 388 160 368 L 160 80 Q 160 53 144 32 L 400 32 Q 420 33 434 46 Q 447 60 448 80 L 448 256 L 480 256 L 480 80 Q 479 46 457 23 Q 434 1 400 0 L 80 0 Q 46 1 23 23 Q 1 46 0 80 L 0 152 Q 0 169 12 180 Q 23 192 40 192 L 96 192 L 96 160 L 40 160 Q 33 159 32 152 L 32 80 L 32 80 Z M 504 416 L 272 416 Q 288 395 288 368 L 288 320 Q 289 313 296 312 L 297 312 L 297 312 L 298 312 L 298 312 L 299 312 L 299 312 L 300 312 L 300 312 L 301 312 L 301 312 L 302 312 L 302 312 L 303 312 L 303 312 L 304 312 L 304 312 L 305 312 L 305 312 L 306 312 L 306 312 L 307 312 L 307 312 L 308 312 L 308 312 L 309 312 L 309 312 L 310 312 L 310 312 L 311 312 L 311 312 L 312 312 L 312 312 L 313 312 L 313 312 L 314 312 L 314 312 L 315 312 L 315 312 L 316 312 L 316 312 L 317 312 L 317 312 L 318 312 L 318 312 L 319 312 L 319 312 L 320 312 L 320 312 L 321 312 L 321 312 L 322 312 L 322 312 L 323 312 L 323 312 L 324 312 L 324 312 L 325 312 L 325 312 L 326 312 L 326 312 L 327 312 L 327 312 L 328 312 L 328 312 L 329 312 L 329 312 L 330 312 L 330 312 L 331 312 L 331 312 L 332 312 L 332 312 L 333 312 L 333 312 L 334 312 L 334 312 L 335 312 L 335 312 L 336 312 L 336 312 L 337 312 L 337 312 L 338 312 L 338 312 L 339 312 L 339 312 L 340 312 L 340 312 L 341 312 L 341 312 L 342 312 L 342 312 L 343 312 L 343 312 L 344 312 L 344 312 L 345 312 L 345 312 L 346 312 L 346 312 L 347 312 L 347 312 L 348 312 L 348 312 L 349 312 L 349 312 L 350 312 L 350 312 L 351 312 L 351 312 L 352 312 L 352 312 L 353 312 L 353 312 L 354 312 L 354 312 L 355 312 L 355 312 L 356 312 L 356 312 L 357 312 L 357 312 L 358 312 L 358 312 L 359 312 L 359 312 L 360 312 L 360 312 L 361 312 L 361 312 L 362 312 L 362 312 L 363 312 L 363 312 L 364 312 L 364 312 L 365 312 L 365 312 L 366 312 L 366 312 L 367 312 L 367 312 L 368 312 L 368 312 L 369 312 L 369 312 L 370 312 L 370 312 L 371 312 L 371 312 L 371 312 L 372 312 L 372 312 L 372 312 L 373 312 L 373 312 L 374 312 L 374 312 L 374 312 L 375 312 L 375 312 L 376 312 L 376 312 L 376 312 L 377 312 L 377 312 L 378 312 L 378 312 L 378 312 L 379 312 L 379 312 L 380 312 L 380 312 L 380 312 L 381 312 L 381 312 L 382 312 L 382 312 L 382 312 L 383 312 L 383 312 L 384 312 L 384 312 L 384 312 L 385 312 L 385 312 L 386 312 L 386 312 L 386 312 L 387 312 L 387 312 L 388 312 L 388 312 L 388 312 L 389 312 L 389 312 L 390 312 L 390 312 L 390 312 L 391 312 L 391 312 L 392 312 L 392 312 L 392 312 L 393 312 L 393 312 L 394 312 L 394 312 L 394 312 L 395 312 L 395 312 L 396 312 L 396 312 L 396 312 L 397 312 L 397 312 L 398 312 L 398 312 L 398 312 L 399 312 L 399 312 L 400 312 L 400 312 L 400 312 L 401 312 L 401 312 L 402 312 L 402 312 L 402 312 L 403 312 L 403 312 L 404 312 L 404 312 L 404 312 L 405 312 L 405 312 L 406 312 L 406 312 L 406 312 L 407 312 L 407 312 L 408 312 L 408 312 L 408 312 L 409 312 L 409 312 L 410 312 L 410 312 L 410 312 L 411 312 L 411 312 L 412 312 L 412 312 L 412 312 L 413 312 L 413 312 L 414 312 L 414 312 L 414 312 L 415 312 L 415 312 L 416 312 L 416 312 L 416 312 L 417 312 L 417 312 L 418 312 L 418 312 L 418 312 L 419 312 L 419 312 L 420 312 L 420 312 L 420 312 L 421 312 L 421 312 L 422 312 L 422 312 L 422 312 L 423 312 L 423 312 L 424 312 L 424 312 L 424 312 L 425 312 L 425 312 L 426 312 L 426 312 L 426 312 L 427 312 L 427 312 L 428 312 L 428 312 L 428 312 L 429 312 L 429 312 L 430 312 L 430 312 L 430 312 L 431 312 L 431 312 L 432 312 L 432 312 L 432 312 L 433 312 L 433 312 L 434 312 L 434 312 L 434 312 L 435 312 L 435 312 L 436 312 L 436 312 L 436 312 L 437 312 L 437 312 L 438 312 L 438 312 L 438 312 L 439 312 L 439 312 L 440 312 L 440 312 L 440 312 L 441 312 L 441 312 L 442 312 L 442 312 L 442 312 L 443 312 L 443 312 L 444 312 L 444 312 L 444 312 L 445 312 L 445 312 L 446 312 L 446 312 L 446 312 L 447 312 L 447 312 L 448 312 L 448 312 L 448 312 L 449 312 L 449 312 L 450 312 L 450 312 L 450 312 L 451 312 L 451 312 L 452 312 L 452 312 L 452 312 L 453 312 L 453 312 L 454 312 L 454 312 L 454 312 L 455 312 L 455 312 L 456 312 L 456 312 L 456 312 L 457 312 L 457 312 L 458 312 L 458 312 L 459 312 L 459 312 L 460 312 L 460 312 L 461 312 L 461 312 L 462 312 L 462 312 L 463 312 L 463 312 L 464 312 L 464 312 L 465 312 L 465 312 L 466 312 L 466 312 L 467 312 L 467 312 L 468 312 L 468 312 L 469 312 L 469 312 L 470 312 L 470 312 L 471 312 L 471 312 L 472 312 L 472 312 L 473 312 L 473 312 L 474 312 L 474 312 L 475 312 L 475 312 L 476 312 L 476 312 L 477 312 L 477 312 L 478 312 L 478 312 L 479 312 L 479 312 L 480 312 L 480 312 L 481 312 L 481 312 L 482 312 L 482 312 L 483 312 L 483 312 L 484 312 L 484 312 L 485 312 L 485 312 L 486 312 L 486 312 L 487 312 L 487 312 L 488 312 L 488 312 L 489 312 L 489 312 L 490 312 L 490 312 L 491 312 L 491 312 L 492 312 L 492 312 L 493 312 L 493 312 L 494 312 L 494 312 L 495 312 L 495 312 L 496 312 L 496 312 L 497 312 L 497 312 L 498 312 L 498 312 L 499 312 L 499 312 L 500 312 L 500 312 L 501 312 L 501 312 L 502 312 L 502 312 L 503 312 L 503 312 L 504 312 L 504 312 L 505 312 L 505 312 L 506 312 L 506 312 L 507 312 L 507 312 L 508 312 L 508 312 L 509 312 L 509 312 L 510 312 L 510 312 L 511 312 L 511 312 L 512 312 L 512 312 L 513 312 L 513 312 L 514 312 L 514 312 L 515 312 L 515 312 L 516 312 L 516 312 L 517 312 L 517 312 L 518 312 L 518 312 L 519 312 L 519 312 L 520 312 L 520 312 L 521 312 L 521 312 L 522 312 L 522 312 L 523 312 L 523 312 L 524 312 L 524 312 L 525 312 L 525 312 L 526 312 L 526 312 L 527 312 L 527 312 L 528 312 L 528 312 L 529 312 L 530 312 L 530 312 L 531 312 Q 538 313 539 320 L 539 376 Q 538 393 527 404 Q 516 416 499 416 L 504 416 Z"/>
</svg>
