<svg xmlns="http://www.w3.org/2000/svg" viewBox="0 0 512 512">
  <path d="M 512 184.88889 Q 511.1111 228.44444 477.33334 264 L 477.33334 264 L 477.33334 264 Q 442.66666 299.55554 384.8889 320 L 384.8889 320 L 384.8889 320 Q 327.1111 340.44446 256 341.33334 Q 225.77777 341.33334 196.44444 336.8889 Q 213.33333 360.8889 213.33333 390.22223 Q 212.44444 430.22223 185.77777 456 Q 160 482.66666 120 483.55554 L 42.666668 483.55554 L 42.666668 483.55554 Q 29.333334 482.66666 28.444445 469.33334 Q 29.333334 456 42.666668 455.1111 L 120 455.1111 L 120 455.1111 Q 147.55556 454.22223 166.22223 436.44446 Q 184 417.77777 184.88889 390.22223 Q 183.11111 351.1111 149.33333 332.44446 L 118.22222 316.44446 L 118.22222 316.44446 Q 64 295.1111 32 261.33334 Q 0.8888889 226.66667 0 184.88889 Q 0.8888889 141.33333 34.666668 105.77778 Q 69.333336 71.111115 127.111115 49.77778 Q 184.88889 29.333334 256 28.444445 Q 327.1111 29.333334 384.8889 49.77778 Q 442.66666 71.111115 477.33334 105.77778 Q 511.1111 141.33333 512 184.88889 L 512 184.88889 Z M 256 312.8889 Q 352.8889 311.1111 416.8889 275.55554 L 416.8889 275.55554 L 416.8889 275.55554 Q 480.8889 239.11111 483.55554 184.88889 Q 480.8889 130.66667 416.8889 94.22222 Q 352.8889 58.666668 256 56.88889 Q 159.11111 58.666668 95.111115 94.22222 Q 31.11111 130.66667 28.444445 184.88889 Q 31.11111 239.11111 95.111115 275.55554 Q 159.11111 311.1111 256 312.8889 L 256 312.8889 Z" />
</svg>