<svg xmlns="http://www.w3.org/2000/svg" viewBox="0 0 517 517">
    <path d="M 384 208 Q 384 160 360 120 L 360 120 Q 337 80 296 56 Q 254 32 208 32 Q 162 32 120 56 Q 79 80 56 120 Q 32 160 32 208 Q 32 256 56 296 Q 79 336 120 360 Q 162 384 208 384 Q 254 384 296 360 Q 337 336 360 296 Q 384 256 384 208 L 384 208 Z M 343 366 Q 287 414 208 416 Q 120 414 61 355 Q 2 296 0 208 Q 2 120 61 61 Q 120 2 208 0 Q 296 2 355 61 Q 414 120 416 208 Q 414 287 366 343 L 507 485 Q 517 496 507 507 Q 496 517 485 507 L 343 366 L 343 366 Z"/>
</svg>
