<svg xmlns="http://www.w3.org/2000/svg" viewBox="0 0 512 512">
  <path d="M 115.24399 61.580757 L 30.790379 209.37457 L 115.24399 61.580757 L 30.790379 209.37457 L 284.1512 314.9416 L 284.1512 314.9416 L 453.0584 202.33678 L 453.0584 202.33678 L 115.24399 61.580757 L 115.24399 61.580757 Z M 90.61169 47.505154 Q 103.80756 28.151203 125.80069 35.189003 L 463.6151 175.94502 L 463.6151 175.94502 Q 478.57043 182.98282 481.20963 199.6976 Q 482.08936 216.41237 468.89346 226.08934 L 299.98627 338.69415 L 299.98627 338.69415 Q 286.79037 346.6117 273.5945 340.4536 L 197.93814 309.66324 L 197.93814 309.66324 L 156.59106 418.74915 L 156.59106 418.74915 Q 153.07216 427.5464 143.39519 427.5464 L 30.790379 427.5464 L 30.790379 427.5464 L 30.790379 469.7732 L 30.790379 469.7732 Q 29.910652 482.9691 16.714777 483.8488 Q 3.5189004 482.9691 2.6391752 469.7732 L 2.6391752 413.4708 L 2.6391752 413.4708 L 2.6391752 357.1684 L 2.6391752 357.1684 Q 3.5189004 343.9725 16.714777 343.09277 Q 29.910652 343.9725 30.790379 357.1684 L 30.790379 399.3952 L 30.790379 399.3952 L 133.71822 399.3952 L 133.71822 399.3952 L 172.42612 299.10654 L 172.42612 299.10654 L 20.233677 235.76633 L 20.233677 235.76633 Q 8.797251 230.48798 4.3986254 218.17181 Q 0 206.7354 6.158076 195.29897 L 90.61169 47.505154 L 90.61169 47.505154 Z M 351.89005 337.81442 L 379.1615 319.3402 L 351.89005 337.81442 L 379.1615 319.3402 L 453.0584 352.76974 L 453.0584 352.76974 L 476.811 293.8282 L 476.811 293.8282 L 440.74228 277.99313 L 440.74228 277.99313 L 468.89346 259.5189 L 468.89346 259.5189 L 500.56357 273.5945 L 500.56357 273.5945 Q 512 279.75256 508.4811 292.06873 L 473.29208 376.52234 L 473.29208 376.52234 Q 466.2543 387.95877 453.93814 384.43985 L 351.89005 337.81442 L 351.89005 337.81442 Z" />
</svg>