<svg xmlns="http://www.w3.org/2000/svg" viewBox="0 0 448 448">
    <path d="M 16 0 Q 1 1 0 16 Q 1 31 16 32 L 432 32 Q 447 31 448 16 Q 447 1 432 0 L 16 0 L 16 0 Z M 224 96 Q 156 98 111 143 L 111 143 Q 66 188 64 256 L 64 288 Q 66 356 111 401 Q 156 446 224 448 Q 292 446 337 401 Q 382 356 384 288 L 384 256 Q 382 188 337 143 Q 292 98 224 96 L 224 96 Z M 96 256 Q 97 202 133 165 L 133 165 Q 170 129 224 128 Q 278 129 315 165 Q 351 202 352 256 L 352 288 Q 351 342 315 379 Q 278 415 224 416 Q 170 415 133 379 Q 97 342 96 288 L 96 256 L 96 256 Z"/>
</svg>
