<svg xmlns="http://www.w3.org/2000/svg" viewBox="0 0 512 512">
  <path d="M 244.11606 38.622826 Q 256 33.67118 268.87427 38.622826 L 443.17215 112.897484 L 443.17215 112.897484 Q 460.99808 121.81045 461.9884 140.6267 Q 461.9884 188.16248 446.14313 251.54352 Q 429.30756 313.93423 386.72342 373.35397 Q 345.1296 433.76404 268.87427 471.3965 Q 256 477.3385 243.12573 471.3965 Q 166.8704 432.77368 124.28627 373.35397 Q 82.69246 313.93423 65.856865 251.54352 Q 50.011604 188.16248 50.011604 140.6267 Q 51.001934 121.81045 68.82785 112.897484 L 244.11606 38.622826 L 244.11606 38.622826 Z M 280.7582 9.903288 Q 256 0 231.24178 9.903288 L 55.95358 84.17795 L 55.95358 84.17795 Q 39.11799 91.11025 29.2147 105.96519 Q 18.321083 120.820114 18.321083 140.6267 Q 17.330755 191.13347 35.156673 259.46616 Q 52.982594 327.79883 99.528046 392.17023 Q 145.08318 457.53192 230.25145 500.11606 Q 256 512 281.74854 500.11606 Q 366.91684 457.53192 412.47195 392.17023 Q 459.0174 327.79883 476.84332 259.46616 Q 494.66925 191.13347 493.67892 140.6267 Q 493.67892 120.820114 482.7853 105.96519 Q 472.88202 91.11025 456.04642 84.17795 L 280.7582 9.903288 L 280.7582 9.903288 Z M 171.82205 133.6944 Q 164.88976 126.76209 154.98647 129.73308 Q 146.0735 134.68472 145.08318 144.58801 L 145.08318 271.3501 L 145.08318 271.3501 Q 146.0735 318.8859 177.76402 349.58606 Q 208.46422 381.27658 256 382.26694 Q 303.5358 381.27658 334.23596 349.58606 Q 365.9265 318.8859 366.91684 271.3501 L 366.91684 144.58801 L 366.91684 144.58801 Q 366.91684 134.68472 357.01355 129.73308 Q 347.11026 126.76209 340.17795 133.6944 L 280.7582 192.1238 L 280.7582 192.1238 L 231.24178 192.1238 L 231.24178 192.1238 L 171.82205 133.6944 L 171.82205 133.6944 Z M 176.7737 271.3501 L 176.7737 183.21083 L 176.7737 271.3501 L 176.7737 183.21083 L 213.41586 218.86267 L 213.41586 218.86267 Q 217.37718 223.81432 224.30948 223.81432 L 287.69052 223.81432 L 287.69052 223.81432 Q 294.62283 223.81432 298.58414 218.86267 L 335.22632 183.21083 L 335.22632 183.21083 L 335.22632 271.3501 L 335.22632 271.3501 Q 334.23596 305.02127 312.44873 327.79883 Q 289.67117 349.58606 256 350.57642 Q 222.32883 349.58606 199.55125 327.79883 Q 177.76402 305.02127 176.7737 271.3501 L 176.7737 271.3501 Z M 232.2321 271.3501 Q 231.24178 256.49518 216.38684 255.50484 Q 201.53192 256.49518 200.54158 271.3501 Q 201.53192 286.20502 216.38684 287.19534 Q 231.24178 286.20502 232.2321 271.3501 L 232.2321 271.3501 Z M 295.61316 287.19534 Q 310.46808 286.20502 311.4584 271.3501 Q 310.46808 256.49518 295.61316 255.50484 Q 280.7582 256.49518 279.76788 271.3501 Q 280.7582 286.20502 295.61316 287.19534 L 295.61316 287.19534 Z" />
</svg>