<svg xmlns="http://www.w3.org/2000/svg" viewBox="0 0 448 513">
    <path d="M 217 2 L 73 34 Q 55 38 49 56 Q 45 74 57 88 L 80 110 L 80 112 Q 80 137 103 152 Q 120 161 149 169 Q 178 177 224 177 Q 270 177 299 169 Q 328 161 345 152 Q 368 138 368 112 L 368 110 L 391 88 L 384 82 L 391 88 Q 403 74 399 56 Q 393 38 375 34 L 231 2 Q 224 0 217 2 L 217 2 Z M 224 33 L 368 65 L 341 92 Q 336 97 336 104 L 336 112 Q 335 121 330 124 Q 313 134 271 142 Q 289 110 288 84 Q 288 74 278 69 L 230 50 Q 224 48 218 50 L 170 69 Q 161 74 160 84 Q 159 110 177 142 Q 135 134 118 124 Q 112 121 112 112 L 112 104 Q 112 97 107 92 L 80 65 L 224 33 L 224 33 Z M 96 193 Q 97 247 133 284 L 133 284 Q 170 320 224 321 Q 278 320 315 284 Q 351 247 352 193 Q 352 189 352 184 Q 338 191 320 196 Q 318 236 291 262 Q 264 288 224 289 Q 184 288 157 262 Q 130 236 128 196 Q 110 191 96 184 Q 96 189 96 193 L 96 193 Z M 224 143 Q 195 123 193 95 L 224 82 L 255 95 Q 253 124 224 143 L 224 143 Z M 191 431 Q 206 443 224 443 L 224 443 Q 242 443 257 431 L 306 385 L 314 385 Q 355 386 384 413 Q 412 440 416 481 L 336 481 L 336 465 L 352 465 Q 367 464 368 449 Q 367 434 352 433 L 336 433 L 336 417 Q 335 402 320 401 Q 305 402 304 417 L 304 433 L 288 433 Q 273 434 272 449 Q 273 464 288 465 L 304 465 L 304 481 L 32 481 Q 36 440 64 413 Q 93 386 134 385 L 142 385 L 192 431 L 191 431 Z M 320 513 L 422 513 Q 446 511 448 487 Q 447 430 409 392 Q 371 354 314 353 L 306 353 Q 293 353 284 362 L 235 407 Q 224 416 213 407 L 164 362 Q 155 353 142 353 L 134 353 Q 77 354 39 392 Q 1 430 0 487 Q 2 511 26 513 L 320 513 Q 320 513 320 513 Q 320 513 320 513 Q 320 513 320 513 Q 320 513 320 513 L 320 513 Z"/>
</svg>
