<svg xmlns="http://www.w3.org/2000/svg" viewBox="0 0 512 512">
  <path d="M 480 256 Q 479 195 450 144 L 450 144 L 450 144 Q 420 93 368 62 Q 315 32 256 32 Q 197 32 144 62 Q 92 93 62 144 Q 33 195 32 256 Q 33 317 62 368 Q 92 419 144 450 Q 197 480 256 480 Q 315 480 368 450 Q 420 419 450 368 Q 479 317 480 256 L 480 256 Z M 0 256 Q 1 186 34 128 L 34 128 L 34 128 Q 68 70 128 34 Q 189 0 256 0 Q 323 0 384 34 Q 444 70 478 128 Q 511 186 512 256 Q 511 326 478 384 Q 444 442 384 478 Q 323 512 256 512 Q 189 512 128 478 Q 68 442 34 384 Q 1 326 0 256 L 0 256 Z M 256 384 Q 291 384 320 367 L 320 367 L 320 367 Q 349 350 367 320 Q 384 290 384 256 Q 384 222 367 192 Q 349 162 320 145 Q 291 128 256 128 Q 221 128 192 145 Q 163 162 145 192 Q 128 222 128 256 Q 128 290 145 320 Q 163 350 192 367 Q 221 384 256 384 L 256 384 Z M 256 96 Q 299 96 336 117 L 336 117 L 336 117 Q 373 139 395 176 Q 416 214 416 256 Q 416 298 395 336 Q 373 373 336 395 Q 299 416 256 416 Q 213 416 176 395 Q 139 373 117 336 Q 96 298 96 256 Q 96 214 117 176 Q 139 139 176 117 Q 213 96 256 96 L 256 96 Z M 256 288 Q 270 288 279 279 L 279 279 L 279 279 Q 288 270 288 256 Q 288 242 279 233 Q 270 224 256 224 Q 242 224 233 233 Q 224 242 224 256 Q 224 270 233 279 Q 242 288 256 288 L 256 288 Z M 256 192 Q 292 193 311 224 Q 329 256 311 288 Q 292 319 256 320 Q 220 319 201 288 Q 183 256 201 224 Q 220 193 256 192 L 256 192 Z" />
</svg>