<svg xmlns="http://www.w3.org/2000/svg" viewBox="0 0 448 512">
    <path d="M 64 0 Q 37 1 19 19 L 19 19 Q 1 37 0 64 L 0 448 L 0 448 Q 1 475 19 493 Q 37 511 64 512 L 432 512 Q 447 511 448 496 Q 447 481 432 480 L 416 480 L 416 413 Q 446 401 448 368 L 448 48 Q 447 28 434 14 Q 420 1 400 0 L 64 0 L 64 0 Z M 384 416 L 384 480 L 64 480 Q 50 480 41 471 Q 32 462 32 448 Q 32 434 41 425 Q 50 416 64 416 L 384 416 L 384 416 Z M 64 384 Q 46 384 32 393 L 32 64 Q 32 50 41 41 Q 50 32 64 32 L 400 32 Q 415 33 416 48 L 416 368 Q 415 383 400 384 L 64 384 L 64 384 Z M 266 171 L 249 210 L 211 226 Q 196 233 196 248 Q 196 263 211 270 L 249 287 L 266 325 Q 273 340 288 340 Q 303 340 310 325 L 327 287 L 365 270 Q 380 263 380 248 Q 380 233 365 226 L 327 210 L 310 171 Q 303 156 288 156 Q 273 156 266 171 L 266 171 Z M 288 201 L 300 228 Q 302 234 308 236 L 335 248 L 308 260 Q 302 262 300 268 L 288 295 L 276 268 Q 274 262 268 260 L 241 248 L 268 236 Q 274 234 276 228 L 288 201 L 288 201 Z M 153 122 L 160 108 L 167 122 Q 169 127 174 129 L 188 136 L 174 143 Q 169 145 167 150 L 160 164 L 153 150 Q 151 145 146 143 L 132 136 L 146 129 Q 151 127 153 122 L 153 122 Z M 182 79 Q 174 66 160 66 L 160 66 Q 146 66 139 79 L 127 103 L 103 115 Q 90 122 90 136 Q 90 150 103 157 L 127 169 L 139 193 Q 146 206 160 206 Q 174 206 182 193 L 193 169 L 217 157 Q 230 150 230 136 Q 230 122 217 115 L 193 103 L 182 79 L 182 79 Z"/>
</svg>
