<svg xmlns="http://www.w3.org/2000/svg" viewBox="0 0 642 516">
    <path d="M 373 15 Q 371 7 364 3 Q 356 0 348 5 L 258 67 L 168 5 Q 160 0 153 3 Q 145 7 143 15 L 123 123 L 15 143 Q 7 145 3 153 Q 0 160 5 168 L 67 258 L 5 348 Q 0 356 3 364 Q 7 371 15 373 L 123 393 L 143 501 Q 145 509 152 513 Q 160 516 168 511 L 258 449 L 348 511 Q 356 516 364 513 Q 371 509 373 501 L 383 450 Q 366 449 351 444 L 346 471 L 267 416 Q 258 411 249 416 L 170 471 L 152 376 Q 150 366 140 364 L 45 346 L 100 267 Q 105 258 100 249 L 45 170 L 140 153 Q 150 150 153 140 L 170 45 L 249 100 Q 258 105 267 100 L 346 45 L 364 140 Q 366 150 377 153 L 471 170 L 454 195 Q 460 194 466 194 Q 479 194 491 197 L 511 168 Q 516 160 513 152 Q 509 145 501 143 L 393 123 L 373 15 L 373 15 Z M 258 130 Q 204 131 167 167 L 167 167 Q 131 204 130 258 Q 131 312 167 349 Q 204 385 258 386 Q 277 386 294 381 Q 290 368 290 354 Q 290 351 290 349 Q 275 354 258 354 Q 217 353 190 326 Q 163 299 162 258 Q 163 217 190 190 Q 217 163 258 162 Q 299 163 326 190 Q 353 217 354 258 Q 354 261 354 263 Q 354 263 354 264 Q 359 262 364 261 Q 371 244 383 231 Q 373 187 339 159 Q 305 131 258 130 L 258 130 Z M 466 226 Q 436 227 415 244 L 415 244 Q 394 262 388 290 Q 387 290 387 290 Q 386 290 386 290 Q 359 291 341 309 Q 323 327 322 354 Q 323 381 341 399 Q 359 417 386 418 L 570 418 Q 601 417 621 397 Q 641 377 642 346 Q 641 315 621 295 Q 601 275 570 274 Q 555 274 542 280 Q 533 256 513 241 Q 493 226 466 226 L 466 226 Z M 466 258 Q 486 259 500 272 L 500 272 Q 513 286 514 306 L 514 307 Q 514 317 524 322 Q 534 325 541 318 Q 553 307 570 306 Q 587 307 598 318 Q 610 329 610 346 Q 610 363 598 374 Q 587 386 570 386 L 386 386 Q 372 386 363 377 Q 354 368 354 354 Q 354 340 363 331 Q 372 322 386 322 Q 392 322 397 324 Q 405 327 412 322 Q 418 317 418 308 Q 418 307 418 306 Q 419 286 432 272 Q 446 259 466 258 L 466 258 Z"/>
</svg>
