<svg xmlns="http://www.w3.org/2000/svg" viewBox="0 0 572 512">
    <path d="M 288 32 Q 292 32 295 32 Q 251 47 210 67 Q 185 69 159 73 Q 215 33 288 32 L 288 32 Z M 368 13 Q 330 0 288 0 Q 232 0 184 22 Q 135 44 100 82 Q 81 86 63 91 Q 50 94 43 105 Q 19 144 8 189 Q 4 205 15 218 Q 11 222 8 226 Q 1 235 0 246 Q 0 248 0 251 Q 0 253 0 256 Q 0 303 14 346 Q 21 364 40 368 Q 60 370 71 354 Q 119 284 185 233 Q 184 236 184 240 Q 186 262 208 264 Q 230 262 232 240 Q 230 219 209 216 Q 227 204 246 193 Q 267 192 288 192 Q 413 193 528 227 Q 545 232 559 220 Q 572 207 568 189 Q 557 144 533 105 Q 528 97 520 93 Q 519 84 513 76 Q 481 36 437 9 Q 427 4 416 5 Q 392 8 368 13 L 368 13 Z M 506 122 Q 517 140 525 160 Q 532 177 537 196 Q 519 191 501 186 Q 412 164 316 160 Q 316 160 316 160 Q 316 160 315 160 Q 302 160 288 160 Q 262 160 237 162 Q 165 166 96 182 Q 87 184 78 186 Q 77 186 75 187 Q 57 191 39 197 Q 39 195 40 194 Q 40 192 40 191 Q 45 175 51 160 Q 59 140 70 122 Q 105 113 141 108 Q 141 108 141 108 Q 141 108 141 108 Q 141 108 142 108 Q 142 107 143 107 Q 181 101 219 99 Q 219 99 219 99 Q 219 99 219 99 Q 219 99 219 99 Q 219 99 219 99 Q 253 96 288 96 Q 348 96 406 103 Q 409 104 413 104 Q 460 111 506 122 Q 506 122 506 122 Q 506 122 506 122 L 506 122 Z M 177 199 Q 116 244 69 303 Q 56 319 45 336 Q 38 316 35 295 Q 32 276 32 256 Q 32 251 32 247 Q 41 236 50 226 Q 112 208 177 199 L 177 199 Z M 301 64 Q 358 45 420 37 Q 441 49 459 65 Q 468 73 476 82 Q 391 65 301 64 L 301 64 Z M 543 273 Q 543 258 529 256 Q 514 257 512 271 Q 504 361 441 419 Q 379 478 288 480 Q 233 480 186 456 Q 140 432 109 390 Q 99 380 86 387 Q 76 397 83 410 Q 119 457 172 484 Q 225 511 288 512 Q 357 511 413 480 Q 469 448 503 394 Q 538 341 543 273 L 543 273 Z M 373 398 Q 385 406 396 396 Q 405 385 395 374 Q 379 359 354 348 Q 329 337 296 336 Q 271 336 251 343 Q 238 348 241 363 Q 246 376 261 373 Q 276 368 296 368 Q 322 369 341 377 Q 361 386 373 398 L 373 398 Z M 392 240 Q 390 218 368 216 Q 346 218 344 240 Q 346 262 368 264 Q 390 262 392 240 L 392 240 Z"/>
</svg>
