<svg xmlns="http://www.w3.org/2000/svg" viewBox="0 0 512 512">
  <path d="M 28.444445 142.22223 Q 28.444445 129.77777 36.444443 121.77778 L 36.444443 121.77778 L 36.444443 121.77778 Q 44.444443 113.77778 56.88889 113.77778 L 455.1111 113.77778 L 455.1111 113.77778 Q 467.55554 113.77778 475.55554 121.77778 Q 483.55554 129.77777 483.55554 142.22223 Q 456 162.66667 455.1111 199.11111 Q 456 235.55556 483.55554 256 L 483.55554 284.44446 L 483.55554 284.44446 L 28.444445 284.44446 L 28.444445 284.44446 L 28.444445 256 L 28.444445 256 Q 56 235.55556 56.88889 199.11111 Q 56 162.66667 28.444445 142.22223 L 28.444445 142.22223 Z M 0 249.77777 L 0 298.66666 L 0 249.77777 L 0 298.66666 L 0 398.22223 L 0 398.22223 Q 0 410.66666 8 418.66666 Q 16 426.66666 28.444445 426.66666 L 483.55554 426.66666 L 483.55554 426.66666 Q 496 426.66666 504 418.66666 Q 512 410.66666 512 398.22223 L 512 298.66666 L 512 298.66666 L 512 249.77777 L 512 249.77777 Q 511.1111 240 503.1111 234.66667 Q 484.44446 222.22223 483.55554 199.11111 Q 484.44446 176 503.1111 163.55556 Q 511.1111 158.22223 512 148.44444 L 512 142.22223 L 512 142.22223 Q 511.1111 118.22222 495.1111 102.22222 Q 479.1111 86.22222 455.1111 85.333336 L 56.88889 85.333336 L 56.88889 85.333336 Q 32.88889 86.22222 16.88889 102.22222 Q 0.8888889 118.22222 0 142.22223 L 0 148.44444 L 0 148.44444 Q 0.8888889 158.22223 8.888889 163.55556 Q 27.555555 176 28.444445 199.11111 Q 27.555555 222.22223 8.888889 234.66667 Q 0.8888889 240 0 249.77777 L 0 249.77777 Z M 483.55554 398.22223 L 426.66666 398.22223 L 483.55554 398.22223 L 426.66666 398.22223 L 426.66666 384 L 426.66666 384 Q 425.77777 370.66666 412.44446 369.77777 Q 399.1111 370.66666 398.22223 384 L 398.22223 398.22223 L 398.22223 398.22223 L 348.44446 398.22223 L 348.44446 398.22223 L 348.44446 384 L 348.44446 384 Q 347.55554 370.66666 334.22223 369.77777 Q 320.8889 370.66666 320 384 L 320 398.22223 L 320 398.22223 L 270.22223 398.22223 L 270.22223 398.22223 L 270.22223 384 L 270.22223 384 Q 269.33334 370.66666 256 369.77777 Q 242.66667 370.66666 241.77777 384 L 241.77777 398.22223 L 241.77777 398.22223 L 192 398.22223 L 192 398.22223 L 192 384 L 192 384 Q 191.11111 370.66666 177.77777 369.77777 Q 164.44444 370.66666 163.55556 384 L 163.55556 398.22223 L 163.55556 398.22223 L 113.77778 398.22223 L 113.77778 398.22223 L 113.77778 384 L 113.77778 384 Q 112.888885 370.66666 99.55556 369.77777 Q 86.22222 370.66666 85.333336 384 L 85.333336 398.22223 L 85.333336 398.22223 L 28.444445 398.22223 L 28.444445 398.22223 L 28.444445 312.8889 L 28.444445 312.8889 L 483.55554 312.8889 L 483.55554 312.8889 L 483.55554 398.22223 L 483.55554 398.22223 Z M 156.44444 156.44444 Q 155.55556 143.11111 142.22223 142.22223 Q 128.88889 143.11111 128 156.44444 L 128 241.77777 L 128 241.77777 Q 128.88889 255.11111 142.22223 256 Q 155.55556 255.11111 156.44444 241.77777 L 156.44444 156.44444 L 156.44444 156.44444 Z M 270.22223 156.44444 Q 269.33334 143.11111 256 142.22223 Q 242.66667 143.11111 241.77777 156.44444 L 241.77777 241.77777 L 241.77777 241.77777 Q 242.66667 255.11111 256 256 Q 269.33334 255.11111 270.22223 241.77777 L 270.22223 156.44444 L 270.22223 156.44444 Z M 384 156.44444 Q 383.1111 143.11111 369.77777 142.22223 Q 356.44446 143.11111 355.55554 156.44444 L 355.55554 241.77777 L 355.55554 241.77777 Q 356.44446 255.11111 369.77777 256 Q 383.1111 255.11111 384 241.77777 L 384 156.44444 L 384 156.44444 Z" />
</svg>