<svg xmlns="http://www.w3.org/2000/svg" viewBox="0 0 512 512">
  <path d="M 73.14285714285714 36.57142857142857 Q 57.142857142857146 36.57142857142857 46.857142857142854 46.857142857142854 L 46.857142857142854 46.857142857142854 L 46.857142857142854 46.857142857142854 Q 36.57142857142857 57.142857142857146 36.57142857142857 73.14285714285714 L 36.57142857142857 438.85714285714283 L 36.57142857142857 438.85714285714283 Q 36.57142857142857 454.85714285714283 46.857142857142854 465.14285714285717 Q 57.142857142857146 475.42857142857144 73.14285714285714 475.42857142857144 L 438.85714285714283 475.42857142857144 L 438.85714285714283 475.42857142857144 Q 454.85714285714283 475.42857142857144 465.14285714285717 465.14285714285717 Q 475.42857142857144 454.85714285714283 475.42857142857144 438.85714285714283 L 475.42857142857144 73.14285714285714 L 475.42857142857144 73.14285714285714 Q 475.42857142857144 57.142857142857146 465.14285714285717 46.857142857142854 Q 454.85714285714283 36.57142857142857 438.85714285714283 36.57142857142857 L 73.14285714285714 36.57142857142857 L 73.14285714285714 36.57142857142857 Z M 0 73.14285714285714 Q 1.1428571428571428 42.285714285714285 21.714285714285715 21.714285714285715 L 21.714285714285715 21.714285714285715 L 21.714285714285715 21.714285714285715 Q 42.285714285714285 1.1428571428571428 73.14285714285714 0 L 438.85714285714283 0 L 438.85714285714283 0 Q 469.7142857142857 1.1428571428571428 490.2857142857143 21.714285714285715 Q 510.85714285714283 42.285714285714285 512 73.14285714285714 L 512 438.85714285714283 L 512 438.85714285714283 Q 510.85714285714283 469.7142857142857 490.2857142857143 490.2857142857143 Q 469.7142857142857 510.85714285714283 438.85714285714283 512 L 73.14285714285714 512 L 73.14285714285714 512 Q 42.285714285714285 510.85714285714283 21.714285714285715 490.2857142857143 Q 1.1428571428571428 469.7142857142857 0 438.85714285714283 L 0 73.14285714285714 L 0 73.14285714285714 Z M 211.42857142857142 162.28571428571428 L 195.42857142857142 178.28571428571428 L 211.42857142857142 162.28571428571428 L 195.42857142857142 178.28571428571428 Q 181.71428571428572 188.57142857142858 169.14285714285714 177.14285714285714 Q 158.85714285714286 163.42857142857142 170.28571428571428 150.85714285714286 L 186.28571428571428 136 L 186.28571428571428 136 Q 214.85714285714286 109.71428571428571 253.71428571428572 110.85714285714286 Q 293.7142857142857 112 320 138.28571428571428 Q 346.2857142857143 165.71428571428572 347.42857142857144 205.71428571428572 Q 347.42857142857144 244.57142857142858 320 273.14285714285717 L 227.42857142857142 365.7142857142857 L 227.42857142857142 365.7142857142857 L 347.42857142857144 365.7142857142857 L 347.42857142857144 365.7142857142857 Q 364.57142857142856 366.85714285714283 365.7142857142857 384 Q 364.57142857142856 401.14285714285717 347.42857142857144 402.2857142857143 L 182.85714285714286 402.2857142857143 L 182.85714285714286 402.2857142857143 Q 171.42857142857142 402.2857142857143 165.71428571428572 390.85714285714283 Q 162.28571428571428 379.42857142857144 170.28571428571428 371.42857142857144 L 293.7142857142857 248 L 293.7142857142857 248 Q 310.85714285714283 229.71428571428572 310.85714285714283 205.71428571428572 Q 309.7142857142857 180.57142857142858 293.7142857142857 164.57142857142858 Q 277.7142857142857 147.42857142857142 252.57142857142858 146.28571428571428 Q 228.57142857142858 146.28571428571428 211.42857142857142 162.28571428571428 L 211.42857142857142 162.28571428571428 Z" />
</svg>