<svg xmlns="http://www.w3.org/2000/svg" viewBox="0 0 512 512">
  <path d="M 7.876923076923077 58.28923076923077 Q 0 66.95384615384616 7.876923076923077 75.61846153846155 L 58.28923076923077 126.03076923076924 L 58.28923076923077 126.03076923076924 Q 66.95384615384616 133.90769230769232 75.61846153846155 126.03076923076924 Q 83.49538461538461 117.36615384615385 75.61846153846155 108.70153846153846 L 25.206153846153846 58.28923076923077 L 25.206153846153846 58.28923076923077 Q 16.54153846153846 50.41230769230769 7.876923076923077 58.28923076923077 L 7.876923076923077 58.28923076923077 Z M 504.12307692307695 58.28923076923077 Q 495.45846153846156 50.41230769230769 486.7938461538462 58.28923076923077 L 436.38153846153847 108.70153846153846 L 436.38153846153847 108.70153846153846 Q 428.50461538461536 117.36615384615385 436.38153846153847 126.03076923076924 Q 445.04615384615386 133.90769230769232 453.71076923076924 126.03076923076924 L 504.12307692307695 75.61846153846155 L 504.12307692307695 75.61846153846155 Q 512 66.95384615384616 504.12307692307695 58.28923076923077 L 504.12307692307695 58.28923076923077 Z M 25.206153846153846 453.71076923076924 L 75.61846153846155 403.29846153846154 L 25.206153846153846 453.71076923076924 L 75.61846153846155 403.29846153846154 Q 83.49538461538461 394.63384615384615 75.61846153846155 385.96923076923076 Q 66.95384615384616 378.0923076923077 58.28923076923077 385.96923076923076 L 7.876923076923077 436.38153846153847 L 7.876923076923077 436.38153846153847 Q 0 445.04615384615386 7.876923076923077 453.71076923076924 Q 16.54153846153846 461.5876923076923 25.206153846153846 453.71076923076924 L 25.206153846153846 453.71076923076924 Z M 504.12307692307695 453.71076923076924 Q 512 445.04615384615386 504.12307692307695 436.38153846153847 L 453.71076923076924 385.96923076923076 L 453.71076923076924 385.96923076923076 Q 445.04615384615386 378.0923076923077 436.38153846153847 385.96923076923076 Q 428.50461538461536 394.63384615384615 436.38153846153847 403.29846153846154 L 486.7938461538462 453.71076923076924 L 486.7938461538462 453.71076923076924 Q 495.45846153846156 461.5876923076923 504.12307692307695 453.71076923076924 L 504.12307692307695 453.71076923076924 Z M 230.79384615384615 205.5876923076923 Q 230.79384615384615 194.56 237.8830769230769 187.47076923076924 L 237.8830769230769 187.47076923076924 L 237.8830769230769 187.47076923076924 Q 244.97230769230768 180.38153846153847 256 180.38153846153847 Q 267.0276923076923 180.38153846153847 274.11692307692306 187.47076923076924 Q 281.2061538461538 194.56 281.2061538461538 205.5876923076923 Q 281.2061538461538 216.6153846153846 274.11692307692306 223.70461538461538 Q 267.0276923076923 230.79384615384615 256 230.79384615384615 Q 244.97230769230768 230.79384615384615 237.8830769230769 223.70461538461538 Q 230.79384615384615 216.6153846153846 230.79384615384615 205.5876923076923 L 230.79384615384615 205.5876923076923 Z M 306.4123076923077 205.5876923076923 Q 305.62461538461537 177.23076923076923 281.2061538461538 162.26461538461538 Q 256 148.08615384615385 230.79384615384615 162.26461538461538 Q 206.3753846153846 177.23076923076923 205.5876923076923 205.5876923076923 Q 206.3753846153846 233.9446153846154 230.79384615384615 248.91076923076923 Q 256 263.08923076923077 281.2061538461538 248.91076923076923 Q 305.62461538461537 233.9446153846154 306.4123076923077 205.5876923076923 L 306.4123076923077 205.5876923076923 Z M 287.5076923076923 306.4123076923077 Q 311.92615384615385 307.9876923076923 318.2276923076923 331.61846153846153 L 193.7723076923077 331.61846153846153 L 193.7723076923077 331.61846153846153 Q 200.07384615384615 307.9876923076923 224.4923076923077 306.4123076923077 L 287.5076923076923 306.4123076923077 L 287.5076923076923 306.4123076923077 Z M 224.4923076923077 281.2061538461538 Q 200.07384615384615 281.99384615384616 184.32 297.7476923076923 L 184.32 297.7476923076923 L 184.32 297.7476923076923 Q 168.56615384615384 313.5015384615385 167.77846153846153 337.92 Q 169.35384615384615 355.2492307692308 186.68307692307692 356.8246153846154 L 325.3169230769231 356.8246153846154 L 325.3169230769231 356.8246153846154 Q 342.6461538461538 355.2492307692308 344.22153846153844 337.92 Q 343.43384615384616 313.5015384615385 327.68 297.7476923076923 Q 311.92615384615385 281.99384615384616 287.5076923076923 281.2061538461538 L 256 281.2061538461538 L 224.4923076923077 281.2061538461538 Z M 129.96923076923076 192.98461538461538 Q 130.75692307692307 181.16923076923078 142.5723076923077 180.38153846153847 Q 153.6 181.16923076923078 155.17538461538462 192.98461538461538 Q 153.6 204.8 142.5723076923077 205.5876923076923 Q 130.75692307692307 204.8 129.96923076923076 192.98461538461538 L 129.96923076923076 192.98461538461538 Z M 180.38153846153847 192.98461538461538 Q 179.59384615384616 171.71692307692308 161.47692307692307 159.90153846153845 Q 142.5723076923077 150.44923076923078 123.6676923076923 159.90153846153845 Q 105.55076923076923 171.71692307692308 104.76307692307692 192.98461538461538 Q 105.55076923076923 214.25230769230768 123.6676923076923 226.0676923076923 Q 142.5723076923077 235.52 161.47692307692307 226.0676923076923 Q 179.59384615384616 214.25230769230768 180.38153846153847 192.98461538461538 L 180.38153846153847 192.98461538461538 Z M 104.76307692307692 300.1107692307692 Q 106.33846153846154 282.78153846153845 123.6676923076923 281.2061538461538 L 167.77846153846153 281.2061538461538 L 167.77846153846153 281.2061538461538 Q 179.59384615384616 280.41846153846154 180.38153846153847 268.6030769230769 Q 179.59384615384616 256.7876923076923 167.77846153846153 256 L 123.6676923076923 256 L 123.6676923076923 256 Q 104.76307692307692 256.7876923076923 92.16 268.6030769230769 Q 80.34461538461538 281.2061538461538 79.55692307692307 300.1107692307692 L 79.55692307692307 306.4123076923077 L 79.55692307692307 306.4123076923077 Q 80.34461538461538 318.2276923076923 92.16 319.0153846153846 Q 103.97538461538461 318.2276923076923 104.76307692307692 306.4123076923077 L 104.76307692307692 300.1107692307692 L 104.76307692307692 300.1107692307692 Z M 369.4276923076923 180.38153846153847 Q 381.2430769230769 181.16923076923078 382.03076923076924 192.98461538461538 Q 381.2430769230769 204.8 369.4276923076923 205.5876923076923 Q 358.4 204.8 356.8246153846154 192.98461538461538 Q 358.4 181.16923076923078 369.4276923076923 180.38153846153847 L 369.4276923076923 180.38153846153847 Z M 369.4276923076923 230.79384615384615 Q 390.6953846153846 230.00615384615384 402.51076923076926 211.88923076923078 Q 412.7507692307692 192.98461538461538 402.51076923076926 174.08 Q 390.6953846153846 155.96307692307693 369.4276923076923 155.17538461538462 Q 348.16 155.96307692307693 337.1323076923077 174.08 Q 326.89230769230767 192.98461538461538 337.1323076923077 211.88923076923078 Q 348.16 230.00615384615384 369.4276923076923 230.79384615384615 L 369.4276923076923 230.79384615384615 Z M 388.33230769230767 281.2061538461538 Q 405.66153846153844 282.78153846153845 407.23692307692306 300.1107692307692 L 407.23692307692306 306.4123076923077 L 407.23692307692306 306.4123076923077 Q 408.0246153846154 318.2276923076923 419.84 319.0153846153846 Q 431.6553846153846 318.2276923076923 432.44307692307694 306.4123076923077 L 432.44307692307694 300.1107692307692 L 432.44307692307694 300.1107692307692 Q 431.6553846153846 281.2061538461538 419.84 268.6030769230769 Q 407.23692307692306 256.7876923076923 388.33230769230767 256 L 344.22153846153844 256 L 344.22153846153844 256 Q 332.40615384615387 256.7876923076923 331.61846153846153 268.6030769230769 Q 332.40615384615387 280.41846153846154 344.22153846153844 281.2061538461538 L 388.33230769230767 281.2061538461538 L 388.33230769230767 281.2061538461538 Z" />
</svg>