<svg xmlns="http://www.w3.org/2000/svg" viewBox="0 0 512 512">
  <path d="M 96 112 Q 97 78 119 55 L 119 55 L 119 55 Q 142 33 176 32 Q 200 32 220 45 Q 239 58 249 78 Q 252 86 260 87 Q 269 89 275 83 Q 293 65 320 64 Q 347 65 365 83 Q 383 101 384 128 L 384 128 L 384 128 Q 384 135 389 140 Q 394 145 401 144 Q 405 144 408 144 Q 439 145 459 165 Q 479 185 480 216 Q 479 246 459 267 Q 439 287 408 288 L 104 288 L 104 288 Q 73 287 53 267 Q 33 246 32 216 Q 32 190 47 171 Q 62 153 86 146 Q 99 141 98 127 Q 96 120 96 112 L 96 112 Z M 512 216 Q 511 174 484 145 L 484 145 L 484 145 Q 456 116 415 112 Q 408 77 382 55 Q 356 33 320 32 Q 291 32 268 48 Q 235 2 176 0 Q 128 1 97 33 Q 65 64 64 112 Q 64 116 64 120 Q 36 132 18 158 Q 0 183 0 216 Q 1 260 30 290 Q 60 319 104 320 L 408 320 L 408 320 Q 452 319 482 290 Q 511 260 512 216 L 512 216 Z M 64 376 Q 63 361 48 360 Q 33 361 32 376 L 32 416 L 32 416 Q 33 431 48 432 Q 63 431 64 416 L 64 376 L 64 376 Z M 256 376 Q 255 361 240 360 Q 225 361 224 376 L 224 416 L 224 416 Q 225 431 240 432 Q 255 431 256 416 L 256 376 L 256 376 Z M 448 376 Q 447 361 432 360 Q 417 361 416 376 L 416 416 L 416 416 Q 417 431 432 432 Q 447 431 448 416 L 448 376 L 448 376 Z M 160 448 Q 159 433 144 432 Q 129 433 128 448 L 128 496 L 128 496 Q 129 511 144 512 Q 159 511 160 496 L 160 448 L 160 448 Z M 352 448 Q 351 433 336 432 Q 321 433 320 448 L 320 496 L 320 496 Q 321 511 336 512 Q 351 511 352 496 L 352 448 L 352 448 Z" />
</svg>