<svg xmlns="http://www.w3.org/2000/svg" viewBox="0 0 512 512">
  <path d="M 319 258 Q 320 257 320 256 Q 320 255 319 254 L 187 130 L 187 130 Q 185 128 183 128 Q 177 129 176 135 L 176 192 L 176 192 Q 175 207 160 208 L 40 208 L 40 208 Q 33 209 32 216 L 32 296 L 32 296 Q 33 303 40 304 L 160 304 L 160 304 Q 175 305 176 320 L 176 377 L 176 377 Q 177 383 183 384 Q 185 384 187 382 L 319 258 L 319 258 Z M 352 256 Q 352 271 341 281 L 209 406 L 209 406 Q 198 416 183 416 Q 166 416 155 405 Q 144 394 144 377 L 144 336 L 144 336 L 40 336 L 40 336 Q 23 336 12 324 Q 0 313 0 296 L 0 216 L 0 216 Q 0 199 12 188 Q 23 176 40 176 L 144 176 L 144 176 L 144 135 L 144 135 Q 144 118 155 107 Q 166 96 183 96 Q 198 96 209 107 L 341 231 L 341 231 Q 352 241 352 256 L 352 256 Z M 336 448 L 432 448 L 336 448 L 432 448 Q 452 447 466 434 Q 479 420 480 400 L 480 112 L 480 112 Q 479 92 466 78 Q 452 65 432 64 L 336 64 L 336 64 Q 321 63 320 48 Q 321 33 336 32 L 432 32 L 432 32 Q 466 33 489 55 Q 511 78 512 112 L 512 400 L 512 400 Q 511 434 489 457 Q 466 479 432 480 L 336 480 L 336 480 Q 321 479 320 464 Q 321 449 336 448 L 336 448 Z" />
</svg>