<svg xmlns="http://www.w3.org/2000/svg" viewBox="0 0 512 512">
  <path d="M 272 32 Q 287 33 288 48 L 288 80 L 288 80 Q 287 95 272 96 L 80 96 L 80 96 Q 65 95 64 80 L 64 48 L 64 48 Q 65 33 80 32 L 272 32 L 272 32 Z M 80 0 Q 60 1 46 14 L 46 14 L 46 14 Q 33 28 32 48 L 32 80 L 32 80 Q 33 100 46 114 Q 60 127 80 128 L 160 128 L 160 128 L 160 160 L 160 160 L 88 160 L 88 160 Q 63 160 46 176 Q 28 191 24 215 L 1 380 L 1 380 Q 0 382 0 384 Q 0 386 0 389 L 0 448 L 0 448 Q 1 475 19 493 Q 37 511 64 512 L 448 512 L 448 512 Q 475 511 493 493 Q 511 475 512 448 L 512 389 L 512 389 Q 512 384 511 380 L 488 215 L 488 215 Q 484 191 466 176 Q 449 160 424 160 L 192 160 L 192 160 L 192 128 L 192 128 L 272 128 L 272 128 Q 292 127 306 114 Q 319 100 320 80 L 320 48 L 320 48 Q 319 28 306 14 Q 292 1 272 0 L 80 0 L 80 0 Z M 32 448 L 32 416 L 32 448 L 32 416 L 480 416 L 480 416 L 480 448 L 480 448 Q 480 462 471 471 Q 462 480 448 480 L 64 480 L 64 480 Q 50 480 41 471 Q 32 462 32 448 L 32 448 Z M 456 220 L 480 384 L 456 220 L 480 384 L 32 384 L 32 384 L 56 220 L 56 220 Q 61 194 88 192 L 425 192 L 425 192 Q 451 194 456 220 L 456 220 Z M 112 232 Q 90 234 88 256 Q 90 278 112 280 Q 134 278 136 256 Q 134 234 112 232 L 112 232 Z M 184 256 Q 186 278 208 280 Q 230 278 232 256 Q 230 234 208 232 Q 186 234 184 256 L 184 256 Z M 160 312 Q 138 314 136 336 Q 138 358 160 360 Q 182 358 184 336 Q 182 314 160 312 L 160 312 Z M 280 256 Q 282 278 304 280 Q 326 278 328 256 Q 326 234 304 232 Q 282 234 280 256 L 280 256 Z M 256 312 Q 234 314 232 336 Q 234 358 256 360 Q 278 358 280 336 Q 278 314 256 312 L 256 312 Z M 376 256 Q 378 278 400 280 Q 422 278 424 256 Q 422 234 400 232 Q 378 234 376 256 L 376 256 Z M 352 312 Q 330 314 328 336 Q 330 358 352 360 Q 374 358 376 336 Q 374 314 352 312 L 352 312 Z" />
</svg>