<svg xmlns="http://www.w3.org/2000/svg" viewBox="0 0 585 509">
    <path d="M 105 84 L 277 38 Q 311 31 331 59 L 379 137 Q 372 138 365 140 L 80 216 Q 73 218 67 221 L 69 129 Q 72 95 105 84 L 105 84 Z M 34 239 L 34 244 Q 0 282 12 334 L 34 416 L 38 432 L 38 432 L 54 491 Q 59 504 73 502 Q 86 497 84 483 L 72 439 L 73 438 L 482 329 L 483 329 L 495 373 Q 500 386 514 383 Q 527 379 524 365 L 513 321 L 513 321 L 504 290 L 482 208 Q 466 157 419 141 L 416 137 L 358 42 Q 343 19 319 10 Q 295 0 269 7 L 96 53 Q 70 61 54 81 Q 38 101 37 128 L 34 239 L 34 239 Z M 88 247 L 373 171 Q 399 164 422 177 Q 444 190 451 216 L 473 298 L 65 408 L 43 325 Q 37 299 49 277 Q 62 255 88 247 L 88 247 Z M 130 305 Q 123 285 102 289 Q 83 296 86 317 Q 94 336 114 333 Q 134 326 130 305 L 130 305 Z M 393 258 Q 413 251 410 230 Q 402 210 382 214 Q 362 221 365 242 Q 373 262 393 258 L 393 258 Z M 437 494 Q 440 472 456 458 L 456 458 Q 472 444 495 444 Q 518 444 534 458 Q 549 472 553 494 Q 557 508 571 508 Q 585 504 585 490 Q 579 456 555 434 Q 530 413 495 412 Q 460 413 435 434 Q 411 456 405 490 Q 404 504 419 508 Q 433 509 437 494 L 437 494 Z"/>
</svg>
