<svg xmlns="http://www.w3.org/2000/svg" viewBox="0 0 512 512">
  <path d="M 96 112 Q 97 78 119 55 L 119 55 L 119 55 Q 142 33 176 32 Q 200 32 220 45 Q 239 58 249 78 Q 252 86 260 87 Q 269 89 275 83 Q 293 65 320 64 Q 347 65 365 83 Q 383 101 384 128 L 384 128 L 384 128 Q 384 135 389 140 Q 394 145 401 144 Q 405 144 408 144 Q 439 145 459 165 Q 479 185 480 216 Q 479 246 459 267 Q 439 287 408 288 L 104 288 L 104 288 Q 73 287 53 267 Q 33 246 32 216 Q 32 190 47 171 Q 62 153 86 146 Q 99 141 98 127 Q 96 120 96 112 L 96 112 Z M 512 216 Q 511 174 484 145 L 484 145 L 484 145 Q 456 116 415 112 Q 408 77 382 55 Q 356 33 320 32 Q 291 32 268 48 Q 235 2 176 0 Q 128 1 97 33 Q 65 64 64 112 Q 64 116 64 120 Q 36 132 18 158 Q 0 183 0 216 Q 1 260 30 290 Q 60 319 104 320 L 408 320 L 408 320 Q 452 319 482 290 Q 511 260 512 216 L 512 216 Z M 64 352 Q 49 353 48 368 L 48 400 L 48 400 L 16 400 L 16 400 Q 1 401 0 416 Q 1 431 16 432 L 48 432 L 48 432 L 48 464 L 48 464 Q 49 479 64 480 Q 79 479 80 464 L 80 432 L 80 432 L 112 432 L 112 432 Q 127 431 128 416 Q 127 401 112 400 L 80 400 L 80 400 L 80 368 L 80 368 Q 79 353 64 352 L 64 352 Z M 448 352 Q 433 353 432 368 L 432 400 L 432 400 L 400 400 L 400 400 Q 385 401 384 416 Q 385 431 400 432 L 432 432 L 432 432 L 432 464 L 432 464 Q 433 479 448 480 Q 463 479 464 464 L 464 432 L 464 432 L 496 432 L 496 432 Q 511 431 512 416 Q 511 401 496 400 L 464 400 L 464 400 L 464 368 L 464 368 Q 463 353 448 352 L 448 352 Z M 272 400 Q 271 385 256 384 Q 241 385 240 400 L 240 432 L 240 432 L 208 432 L 208 432 Q 193 433 192 448 Q 193 463 208 464 L 240 464 L 240 464 L 240 496 L 240 496 Q 241 511 256 512 Q 271 511 272 496 L 272 464 L 272 464 L 304 464 L 304 464 Q 319 463 320 448 Q 319 433 304 432 L 272 432 L 272 432 L 272 400 L 272 400 Z" />
</svg>