<svg xmlns="http://www.w3.org/2000/svg" viewBox="0 0 325 512">
    <path d="M 176 0 Q 191 1 192 16 L 192 64 Q 193 64 194 64 Q 195 64 196 64 Q 263 65 314 102 Q 325 112 317 125 Q 307 136 295 128 Q 252 97 196 96 Q 195 96 194 96 Q 193 96 192 96 L 192 416 Q 193 416 194 416 Q 195 416 196 416 Q 252 415 295 384 Q 307 376 317 387 Q 325 400 314 410 Q 263 447 196 448 Q 195 448 194 448 Q 193 448 192 448 L 192 496 Q 191 511 176 512 Q 161 511 160 496 L 160 445 Q 90 431 46 380 Q 1 328 0 256 Q 1 184 46 132 Q 90 81 160 67 L 160 16 Q 161 1 176 0 L 176 0 Z M 32 256 Q 33 314 68 357 L 68 357 Q 104 399 160 412 L 160 100 Q 104 113 68 155 Q 33 198 32 256 L 32 256 Z"/>
</svg>
