<svg xmlns="http://www.w3.org/2000/svg" viewBox="0 0 512 512">
  <path d="M 202.16309012875536 15.381974248927039 Q 205.45922746781116 30.763948497854077 191.17596566523605 37.35622317596567 Q 167.00429184549355 43.94849785407725 146.12875536480686 56.0343347639485 Q 150.5236051502146 67.02145922746782 150.5236051502146 80.20600858369099 Q 149.42489270386267 109.87124463519314 129.6480686695279 129.6480686695279 Q 109.87124463519314 149.42489270386267 80.20600858369099 150.5236051502146 Q 67.02145922746782 150.5236051502146 54.93562231759657 146.12875536480686 Q 43.94849785407725 167.00429184549355 36.257510729613735 191.17596566523605 Q 30.763948497854077 205.45922746781116 15.381974248927039 202.16309012875536 Q 0 196.6695278969957 3.296137339055794 181.28755364806867 Q 12.085836909871245 151.62231759656652 26.369098712446352 126.3519313304721 Q 10.987124463519313 106.57510729613733 9.888412017167383 80.20600858369099 Q 10.987124463519313 50.54077253218884 30.763948497854077 30.763948497854077 Q 50.54077253218884 10.987124463519313 80.20600858369099 9.888412017167383 Q 106.57510729613733 9.888412017167383 126.3519313304721 26.369098712446352 Q 151.62231759656652 12.085836909871245 181.28755364806867 3.296137339055794 Q 196.6695278969957 0 202.16309012875536 15.381974248927039 L 202.16309012875536 15.381974248927039 Z M 309.83690987124464 15.381974248927039 Q 315.3304721030043 0 331.81115879828326 3.296137339055794 Q 360.3776824034335 12.085836909871245 386.74678111587986 26.369098712446352 Q 405.42489270386267 9.888412017167383 431.79399141630904 9.888412017167383 Q 461.45922746781116 10.987124463519313 481.2360515021459 30.763948497854077 Q 501.0128755364807 50.54077253218884 502.11158798283265 80.20600858369099 Q 502.11158798283265 106.57510729613733 485.6309012875536 126.3519313304721 Q 499.91416309012874 151.62231759656652 508.7038626609442 181.28755364806867 Q 512 196.6695278969957 496.61802575107293 202.16309012875536 Q 481.2360515021459 205.45922746781116 474.6437768240343 191.17596566523605 Q 468.05150214592277 167.00429184549355 455.9656652360515 146.12875536480686 Q 444.9785407725322 150.5236051502146 431.79399141630904 150.5236051502146 Q 402.12875536480686 149.42489270386267 382.3519313304721 129.6480686695279 Q 362.57510729613733 109.87124463519314 361.47639484978544 80.20600858369099 Q 361.47639484978544 67.02145922746782 365.87124463519314 56.0343347639485 Q 344.9957081545064 43.94849785407725 320.82403433476395 37.35622317596567 Q 306.54077253218884 30.763948497854077 309.83690987124464 15.381974248927039 L 309.83690987124464 15.381974248927039 Z M 15.381974248927039 309.83690987124464 Q 30.763948497854077 306.54077253218884 37.35622317596567 321.9227467811159 Q 43.94849785407725 344.9957081545064 56.0343347639485 365.87124463519314 Q 67.02145922746782 361.47639484978544 80.20600858369099 361.47639484978544 Q 109.87124463519314 362.57510729613733 129.6480686695279 382.3519313304721 Q 149.42489270386267 402.12875536480686 150.5236051502146 431.79399141630904 Q 150.5236051502146 444.9785407725322 146.12875536480686 457.06437768240346 Q 167.00429184549355 468.05150214592277 191.17596566523605 475.7424892703863 Q 205.45922746781116 481.2360515021459 202.16309012875536 496.61802575107293 Q 196.6695278969957 512 180.18884120171674 508.7038626609442 Q 151.62231759656652 499.91416309012874 125.25321888412017 485.6309012875536 Q 106.57510729613733 501.0128755364807 80.20600858369099 502.11158798283265 Q 50.54077253218884 501.0128755364807 30.763948497854077 481.2360515021459 Q 10.987124463519313 461.45922746781116 9.888412017167383 431.79399141630904 Q 9.888412017167383 405.42489270386267 26.369098712446352 386.74678111587986 Q 12.085836909871245 360.3776824034335 3.296137339055794 331.81115879828326 Q 0 315.3304721030043 15.381974248927039 309.83690987124464 L 15.381974248927039 309.83690987124464 Z M 496.61802575107293 309.83690987124464 Q 512 315.3304721030043 508.7038626609442 331.81115879828326 Q 499.91416309012874 360.3776824034335 485.6309012875536 386.74678111587986 Q 501.0128755364807 405.42489270386267 502.11158798283265 431.79399141630904 Q 501.0128755364807 461.45922746781116 481.2360515021459 481.2360515021459 Q 461.45922746781116 501.0128755364807 431.79399141630904 502.11158798283265 Q 405.42489270386267 502.11158798283265 386.74678111587986 485.6309012875536 Q 360.3776824034335 499.91416309012874 331.81115879828326 508.7038626609442 Q 315.3304721030043 512 309.83690987124464 496.61802575107293 Q 306.54077253218884 481.2360515021459 320.82403433476395 474.6437768240343 Q 344.9957081545064 468.05150214592277 365.87124463519314 455.9656652360515 Q 361.47639484978544 444.9785407725322 361.47639484978544 431.79399141630904 Q 362.57510729613733 402.12875536480686 382.3519313304721 382.3519313304721 Q 402.12875536480686 362.57510729613733 431.79399141630904 361.47639484978544 Q 444.9785407725322 361.47639484978544 455.9656652360515 365.87124463519314 Q 468.05150214592277 344.9957081545064 474.6437768240343 320.82403433476395 Q 481.2360515021459 306.54077253218884 496.61802575107293 309.83690987124464 L 496.61802575107293 309.83690987124464 Z M 80.20600858369099 115.36480686695279 Q 95.58798283261802 115.36480686695279 105.47639484978541 105.47639484978541 L 105.47639484978541 105.47639484978541 L 105.47639484978541 105.47639484978541 Q 115.36480686695279 95.58798283261802 115.36480686695279 80.20600858369099 Q 115.36480686695279 64.82403433476395 105.47639484978541 54.93562231759657 Q 95.58798283261802 45.047210300429185 80.20600858369099 45.047210300429185 Q 64.82403433476395 45.047210300429185 54.93562231759657 54.93562231759657 Q 45.047210300429185 64.82403433476395 45.047210300429185 80.20600858369099 Q 45.047210300429185 95.58798283261802 54.93562231759657 105.47639484978541 Q 64.82403433476395 115.36480686695279 80.20600858369099 115.36480686695279 L 80.20600858369099 115.36480686695279 Z M 115.36480686695279 431.79399141630904 Q 115.36480686695279 416.412017167382 105.47639484978541 406.52360515021456 L 105.47639484978541 406.52360515021456 L 105.47639484978541 406.52360515021456 Q 95.58798283261802 396.6351931330472 80.20600858369099 396.6351931330472 Q 64.82403433476395 396.6351931330472 54.93562231759657 406.52360515021456 Q 45.047210300429185 416.412017167382 45.047210300429185 431.79399141630904 Q 45.047210300429185 447.17596566523605 54.93562231759657 457.06437768240346 Q 64.82403433476395 466.9527896995708 80.20600858369099 466.9527896995708 Q 95.58798283261802 466.9527896995708 105.47639484978541 457.06437768240346 Q 115.36480686695279 447.17596566523605 115.36480686695279 431.79399141630904 L 115.36480686695279 431.79399141630904 Z M 431.79399141630904 115.36480686695279 Q 447.17596566523605 115.36480686695279 457.06437768240346 105.47639484978541 L 457.06437768240346 105.47639484978541 L 457.06437768240346 105.47639484978541 Q 466.9527896995708 95.58798283261802 466.9527896995708 80.20600858369099 Q 466.9527896995708 64.82403433476395 457.06437768240346 54.93562231759657 Q 447.17596566523605 45.047210300429185 431.79399141630904 45.047210300429185 Q 416.412017167382 45.047210300429185 406.52360515021456 54.93562231759657 Q 396.6351931330472 64.82403433476395 396.6351931330472 80.20600858369099 Q 396.6351931330472 95.58798283261802 406.52360515021456 105.47639484978541 Q 416.412017167382 115.36480686695279 431.79399141630904 115.36480686695279 L 431.79399141630904 115.36480686695279 Z M 466.9527896995708 431.79399141630904 Q 466.9527896995708 416.412017167382 457.06437768240346 406.52360515021456 L 457.06437768240346 406.52360515021456 L 457.06437768240346 406.52360515021456 Q 447.17596566523605 396.6351931330472 431.79399141630904 396.6351931330472 Q 416.412017167382 396.6351931330472 406.52360515021456 406.52360515021456 Q 396.6351931330472 416.412017167382 396.6351931330472 431.79399141630904 Q 396.6351931330472 447.17596566523605 406.52360515021456 457.06437768240346 Q 416.412017167382 466.9527896995708 431.79399141630904 466.9527896995708 Q 447.17596566523605 466.9527896995708 457.06437768240346 457.06437768240346 Q 466.9527896995708 447.17596566523605 466.9527896995708 431.79399141630904 L 466.9527896995708 431.79399141630904 Z M 134.04291845493563 160.41201716738198 Q 135.14163090128756 143.931330472103 151.62231759656652 142.83261802575106 L 201.06437768240343 142.83261802575106 L 201.06437768240343 142.83261802575106 Q 228.53218884120173 145.03004291845494 230.72961373390558 171.39914163090128 L 230.72961373390558 221.93991416309012 L 230.72961373390558 221.93991416309012 Q 228.53218884120173 237.32188841201716 213.15021459227466 239.51931330472104 Q 196.6695278969957 237.32188841201716 195.57081545064378 221.93991416309012 L 195.57081545064378 207.656652360515 L 195.57081545064378 207.656652360515 Q 177.99141630901286 228.53218884120173 177.99141630901286 257.09871244635195 Q 180.18884120171674 305.4420600858369 220.8412017167382 327.41630901287556 Q 235.1244635193133 336.20600858369096 228.53218884120173 351.587982832618 Q 219.74248927038627 364.7725321888412 205.45922746781116 359.27896995708153 Q 176.89270386266094 343.8969957081545 160.41201716738198 317.52789699570815 Q 142.83261802575106 291.15879828326183 142.83261802575106 257.09871244635195 Q 143.931330472103 209.8540772532189 173.59656652360516 177.99141630901286 Q 173.59656652360516 177.99141630901286 173.59656652360516 177.99141630901286 Q 174.6952789699571 177.99141630901286 174.6952789699571 177.99141630901286 L 151.62231759656652 177.99141630901286 L 151.62231759656652 177.99141630901286 Q 135.14163090128756 175.793991416309 134.04291845493563 160.41201716738198 L 134.04291845493563 160.41201716738198 Z M 362.57510729613733 371.3648068669528 L 312.0343347639485 371.3648068669528 L 362.57510729613733 371.3648068669528 L 312.0343347639485 371.3648068669528 Q 285.6652360515021 369.16738197424894 283.46781115879827 341.69957081545067 L 283.46781115879827 292.2575107296137 L 283.46781115879827 292.2575107296137 Q 284.5665236051502 275.77682403433477 301.0472103004292 274.6781115879828 Q 316.42918454935625 275.77682403433477 318.6266094420601 292.2575107296137 L 318.6266094420601 305.4420600858369 L 318.6266094420601 305.4420600858369 Q 335.10729613733906 283.46781115879827 336.20600858369096 254.90128755364807 Q 334.0085836909871 206.5579399141631 293.3562231759657 184.58369098712447 Q 279.07296137339057 175.793991416309 285.6652360515021 161.5107296137339 Q 293.3562231759657 147.2274678111588 308.7381974248927 153.8197424892704 Q 337.3047210300429 168.10300429184548 353.7854077253219 194.47210300429185 Q 370.26609442060084 220.8412017167382 371.3648068669528 254.90128755364807 Q 370.26609442060084 302.14592274678114 339.50214592274676 334.0085836909871 Q 338.40343347639487 335.10729613733906 337.3047210300429 336.20600858369096 L 362.57510729613733 336.20600858369096 L 362.57510729613733 336.20600858369096 Q 377.9570815450644 337.3047210300429 380.15450643776825 353.7854077253219 Q 377.9570815450644 369.16738197424894 362.57510729613733 371.3648068669528 L 362.57510729613733 371.3648068669528 Z" />
</svg>