<svg xmlns="http://www.w3.org/2000/svg" viewBox="0 0 512 512">
  <path d="M 246.38907849829351 37.569965870307165 Q 256 30.580204778156997 265.61092150170646 37.569965870307165 L 339.87713310580205 103.09897610921502 L 339.87713310580205 103.09897610921502 L 339.87713310580205 83.00341296928327 L 339.87713310580205 83.00341296928327 Q 341.6245733788396 63.781569965870304 360.8464163822526 62.034129692832764 L 430.74402730375425 62.034129692832764 L 430.74402730375425 62.034129692832764 Q 449.9658703071672 63.781569965870304 451.7133105802048 83.00341296928327 L 451.7133105802048 201.82935153583617 L 451.7133105802048 201.82935153583617 L 503.26279863481227 247.2627986348123 L 503.26279863481227 247.2627986348123 Q 512 256.8737201365188 504.13651877133105 267.358361774744 Q 494.5255972696246 276.09556313993176 484.0409556313993 268.2320819112628 L 451.7133105802048 239.39931740614335 L 451.7133105802048 239.39931740614335 L 451.7133105802048 411.5221843003413 L 451.7133105802048 411.5221843003413 Q 450.839590443686 441.22866894197955 431.61774744027304 461.32423208191125 Q 411.5221843003413 480.5460750853242 381.81569965870307 481.419795221843 L 130.18430034129693 481.419795221843 L 130.18430034129693 481.419795221843 Q 100.4778156996587 480.5460750853242 80.38225255972696 461.32423208191125 Q 61.160409556313994 441.22866894197955 60.28668941979522 411.5221843003413 L 60.28668941979522 239.39931740614335 L 60.28668941979522 239.39931740614335 L 27.959044368600683 268.2320819112628 L 27.959044368600683 268.2320819112628 Q 17.474402730375427 276.09556313993176 7.863481228668942 267.358361774744 Q 0 256.8737201365188 8.737201365187714 247.2627986348123 L 246.38907849829351 37.569965870307165 L 246.38907849829351 37.569965870307165 Z M 423.7542662116041 177.36518771331058 L 423.7542662116041 89.99317406143345 L 423.7542662116041 177.36518771331058 L 423.7542662116041 89.99317406143345 L 367.83617747440275 89.99317406143345 L 367.83617747440275 89.99317406143345 L 367.83617747440275 128.4368600682594 L 367.83617747440275 128.4368600682594 L 423.7542662116041 177.36518771331058 L 423.7542662116041 177.36518771331058 Z M 88.24573378839591 214.93515358361773 L 88.24573378839591 411.5221843003413 L 88.24573378839591 214.93515358361773 L 88.24573378839591 411.5221843003413 Q 89.11945392491468 428.99658703071674 100.4778156996587 441.22866894197955 Q 112.7098976109215 452.5870307167236 130.18430034129693 453.4607508532423 L 381.81569965870307 453.4607508532423 L 381.81569965870307 453.4607508532423 Q 399.29010238907847 452.5870307167236 411.5221843003413 441.22866894197955 Q 422.8805460750853 428.99658703071674 423.7542662116041 411.5221843003413 L 423.7542662116041 214.93515358361773 L 423.7542662116041 214.93515358361773 L 256 66.40273037542661 L 256 66.40273037542661 L 88.24573378839591 214.93515358361773 L 88.24573378839591 214.93515358361773 Z M 211.44027303754265 257.74744027303757 Q 200.9556313993174 257.74744027303757 193.96587030716722 265.61092150170646 L 193.96587030716722 265.61092150170646 L 193.96587030716722 265.61092150170646 Q 186.1023890784983 272.6006825938567 186.1023890784983 283.0853242320819 Q 186.1023890784983 293.56996587030716 193.96587030716722 301.4334470989761 L 256 363.4675767918089 L 256 363.4675767918089 L 318.0341296928328 301.4334470989761 L 318.0341296928328 301.4334470989761 Q 325.8976109215017 293.56996587030716 325.8976109215017 283.0853242320819 Q 325.8976109215017 272.6006825938567 318.0341296928328 265.61092150170646 Q 311.0443686006826 257.74744027303757 300.5597269624573 257.74744027303757 Q 290.0750853242321 257.74744027303757 282.21160409556313 265.61092150170646 L 265.61092150170646 281.33788395904435 L 265.61092150170646 281.33788395904435 Q 256 290.0750853242321 246.38907849829351 281.33788395904435 L 229.78839590443687 265.61092150170646 L 229.78839590443687 265.61092150170646 Q 221.92491467576792 257.74744027303757 211.44027303754265 257.74744027303757 L 211.44027303754265 257.74744027303757 Z M 158.1433447098976 283.0853242320819 Q 159.0170648464164 260.36860068259386 173.8703071672355 245.51535836177473 L 173.8703071672355 245.51535836177473 L 173.8703071672355 245.51535836177473 Q 188.7235494880546 230.66211604095562 211.44027303754265 229.78839590443687 Q 233.28327645051195 229.78839590443687 249.8839590443686 245.51535836177473 L 256 251.63139931740614 L 256 251.63139931740614 L 262.1160409556314 245.51535836177473 L 262.1160409556314 245.51535836177473 Q 278.71672354948805 229.78839590443687 300.5597269624573 229.78839590443687 Q 323.27645051194537 230.66211604095562 338.12969283276453 245.51535836177473 Q 352.98293515358364 260.36860068259386 353.85665529010237 283.0853242320819 Q 353.85665529010237 304.9283276450512 338.12969283276453 321.52901023890786 L 265.61092150170646 393.1740614334471 L 265.61092150170646 393.1740614334471 Q 256 401.9112627986348 246.38907849829351 393.1740614334471 L 173.8703071672355 321.52901023890786 L 173.8703071672355 321.52901023890786 Q 159.0170648464164 304.9283276450512 158.1433447098976 283.0853242320819 L 158.1433447098976 283.0853242320819 Z" />
</svg>