<svg xmlns="http://www.w3.org/2000/svg" viewBox="0 0 512 512">
  <path d="M 455.1111 85.333336 Q 467.55554 85.333336 475.55554 93.333336 L 475.55554 93.333336 L 475.55554 93.333336 Q 483.55554 101.333336 483.55554 113.77778 L 483.55554 398.22223 L 483.55554 398.22223 Q 483.55554 410.66666 475.55554 418.66666 Q 467.55554 426.66666 455.1111 426.66666 L 424.8889 426.66666 L 424.8889 426.66666 L 404.44446 369.77777 L 404.44446 369.77777 Q 392.8889 343.1111 364.44446 341.33334 L 147.55556 341.33334 L 147.55556 341.33334 Q 119.111115 343.1111 107.55556 369.77777 L 87.111115 426.66666 L 87.111115 426.66666 L 56.88889 426.66666 L 56.88889 426.66666 Q 44.444443 426.66666 36.444443 418.66666 Q 28.444445 410.66666 28.444445 398.22223 L 28.444445 113.77778 L 28.444445 113.77778 Q 28.444445 101.333336 36.444443 93.333336 Q 44.444443 85.333336 56.88889 85.333336 L 455.1111 85.333336 L 455.1111 85.333336 Z M 394.66666 426.66666 L 117.333336 426.66666 L 394.66666 426.66666 L 117.333336 426.66666 L 134.22223 379.55554 L 134.22223 379.55554 Q 138.66667 370.66666 147.55556 369.77777 L 364.44446 369.77777 L 364.44446 369.77777 Q 373.33334 370.66666 377.77777 379.55554 L 394.66666 426.66666 L 394.66666 426.66666 Z M 56.88889 56.88889 Q 32.88889 57.77778 16.88889 73.77778 L 16.88889 73.77778 L 16.88889 73.77778 Q 0.8888889 89.77778 0 113.77778 L 0 398.22223 L 0 398.22223 Q 0.8888889 422.22223 16.88889 438.22223 Q 32.88889 454.22223 56.88889 455.1111 L 455.1111 455.1111 L 455.1111 455.1111 Q 479.1111 454.22223 495.1111 438.22223 Q 511.1111 422.22223 512 398.22223 L 512 113.77778 L 512 113.77778 Q 511.1111 89.77778 495.1111 73.77778 Q 479.1111 57.77778 455.1111 56.88889 L 56.88889 56.88889 L 56.88889 56.88889 Z M 142.22223 199.11111 Q 154.66667 199.11111 162.66667 207.11111 L 162.66667 207.11111 L 162.66667 207.11111 Q 170.66667 215.11111 170.66667 227.55556 Q 170.66667 240 162.66667 248 Q 154.66667 256 142.22223 256 Q 129.77777 256 121.77778 248 Q 113.77778 240 113.77778 227.55556 Q 113.77778 215.11111 121.77778 207.11111 Q 129.77777 199.11111 142.22223 199.11111 L 142.22223 199.11111 Z M 191.11111 256 Q 199.11111 243.55556 199.11111 227.55556 Q 199.11111 211.55556 191.11111 199.11111 L 320.8889 199.11111 L 320.8889 199.11111 Q 312.8889 211.55556 312.8889 227.55556 Q 312.8889 243.55556 320.8889 256 L 191.11111 256 L 191.11111 256 Z M 142.22223 284.44446 L 369.77777 284.44446 L 142.22223 284.44446 L 369.77777 284.44446 Q 393.77777 283.55554 409.77777 267.55554 Q 425.77777 251.55556 426.66666 227.55556 Q 425.77777 203.55556 409.77777 187.55556 Q 393.77777 171.55556 369.77777 170.66667 L 142.22223 170.66667 L 142.22223 170.66667 Q 118.22222 171.55556 102.22222 187.55556 Q 86.22222 203.55556 85.333336 227.55556 Q 86.22222 251.55556 102.22222 267.55554 Q 118.22222 283.55554 142.22223 284.44446 L 142.22223 284.44446 Z M 369.77777 199.11111 Q 382.22223 199.11111 390.22223 207.11111 L 390.22223 207.11111 L 390.22223 207.11111 Q 398.22223 215.11111 398.22223 227.55556 Q 398.22223 240 390.22223 248 Q 382.22223 256 369.77777 256 Q 357.33334 256 349.33334 248 Q 341.33334 240 341.33334 227.55556 Q 341.33334 215.11111 349.33334 207.11111 Q 357.33334 199.11111 369.77777 199.11111 L 369.77777 199.11111 Z" />
</svg>