<svg xmlns="http://www.w3.org/2000/svg" viewBox="0 0 586 513">
    <path d="M 37 481 L 37 481 L 38 480 L 38 480 L 38 480 Q 74 440 88 388 Q 102 336 101 289 Q 102 194 129 141 Q 155 88 191 65 Q 227 42 256 37 Q 286 32 293 33 L 418 33 Q 417 33 416 34 Q 415 35 413 37 Q 413 37 413 37 Q 406 43 400 48 Q 389 58 389 72 Q 389 86 400 96 Q 434 125 459 173 Q 484 220 485 289 Q 484 336 498 388 Q 512 440 548 480 L 548 480 L 548 480 Q 549 481 549 481 Q 549 481 549 481 L 421 481 L 421 321 Q 420 267 384 230 Q 347 194 293 193 Q 239 194 202 230 Q 166 267 165 321 L 165 481 L 37 481 L 37 481 Z M 197 481 L 197 321 Q 198 280 225 253 Q 252 226 293 225 Q 334 226 361 253 Q 388 280 389 321 L 389 481 L 197 481 L 197 481 Z M 579 493 Q 586 474 572 459 L 572 459 L 572 458 Q 541 425 529 379 Q 517 333 517 289 Q 516 224 495 176 Q 475 127 444 94 Q 433 82 421 72 Q 426 68 430 64 Q 431 63 432 62 L 432 62 Q 433 62 434 61 Q 440 56 446 51 Q 452 45 456 39 Q 464 29 459 16 Q 453 2 437 1 L 293 1 Q 284 0 250 6 Q 215 12 173 39 Q 129 67 100 127 Q 70 188 69 289 Q 69 333 57 379 Q 45 425 14 458 L 14 459 Q 0 474 7 493 Q 16 512 37 513 L 549 513 Q 570 512 579 493 L 579 493 Z"/>
</svg>
