<svg xmlns="http://www.w3.org/2000/svg" viewBox="0 0 454 515">
    <path d="M 303 198 Q 291 208 291 223 L 291 240 Q 290 255 275 256 L 179 256 Q 164 255 163 240 L 163 223 Q 163 208 151 198 Q 116 170 115 128 Q 116 89 146 61 Q 177 33 227 32 Q 277 33 308 61 Q 338 89 339 128 Q 338 170 303 198 L 303 198 Z M 323 240 L 323 223 Q 369 187 371 128 Q 369 74 329 37 Q 288 1 227 0 Q 166 1 125 37 Q 85 74 83 128 Q 85 187 131 223 L 131 240 Q 132 260 145 274 Q 159 287 179 288 L 275 288 Q 295 287 309 274 Q 322 260 323 240 L 323 240 Z M 450 297 Q 442 285 428 290 L 227 382 L 26 290 Q 12 285 5 297 Q 0 311 12 319 L 189 400 L 12 482 Q 0 489 5 503 Q 12 515 26 511 L 227 418 L 428 511 Q 442 515 450 503 Q 454 489 442 482 L 265 400 L 442 319 Q 454 311 450 297 L 450 297 Z M 211 136 Q 209 114 187 112 Q 165 114 163 136 Q 165 158 187 160 Q 209 158 211 136 L 211 136 Z M 267 160 Q 289 158 291 136 Q 289 114 267 112 Q 245 114 243 136 Q 245 158 267 160 L 267 160 Z"/>
</svg>
