<svg xmlns="http://www.w3.org/2000/svg" viewBox="0 0 512 512">
  <path d="M 287.8755 495.06616 Q 256 512 224.12451 495.06616 L 64.74708 402.428 L 64.74708 402.428 Q 33.867702 383.50195 32.871593 347.64203 L 32.871593 163.36186 L 32.871593 163.36186 Q 33.867702 127.501945 64.74708 108.575874 L 224.12451 16.933851 L 224.12451 16.933851 Q 256 0 287.8755 16.933851 L 447.25293 108.575874 L 447.25293 108.575874 Q 477.1362 127.501945 479.12842 163.36186 L 479.12842 347.64203 L 479.12842 347.64203 Q 477.1362 383.50195 447.25293 402.428 L 287.8755 495.06616 L 287.8755 495.06616 Z M 240.06226 467.1751 Q 256 475.14398 271.93774 467.1751 L 431.3152 375.53308 L 431.3152 375.53308 Q 446.2568 365.572 447.25293 347.64203 L 447.25293 163.36186 L 447.25293 163.36186 Q 446.2568 145.4319 431.3152 136.46692 L 271.93774 43.828793 L 271.93774 43.828793 Q 256 35.85992 240.06226 43.828793 L 80.68482 136.46692 L 80.68482 136.46692 Q 65.74319 145.4319 64.74708 163.36186 L 64.74708 347.64203 L 64.74708 347.64203 Q 65.74319 365.572 80.68482 375.53308 L 240.06226 467.1751 L 240.06226 467.1751 Z M 127.501945 170.33463 L 160.37354 253.01167 L 127.501945 170.33463 L 160.37354 253.01167 L 160.37354 176.31128 L 160.37354 176.31128 Q 161.36964 161.36964 176.31128 160.37354 Q 190.2568 161.36964 192.24902 176.31128 L 192.24902 335.68872 L 192.24902 335.68872 Q 191.25291 347.64203 179.2996 350.63034 Q 166.35019 352.62256 161.36964 341.66537 L 128.49805 258.9883 L 128.49805 258.9883 L 128.49805 335.68872 L 128.49805 335.68872 Q 126.50584 349.63425 112.56031 351.62646 Q 97.618675 349.63425 96.62257 335.68872 L 96.62257 176.31128 L 96.62257 176.31128 Q 97.618675 163.36186 109.57198 160.37354 Q 121.52529 158.38132 127.501945 170.33463 L 127.501945 170.33463 Z M 224.12451 176.31128 Q 225.12062 161.36964 240.06226 160.37354 L 287.8755 160.37354 L 287.8755 160.37354 Q 301.821 161.36964 303.81323 176.31128 Q 301.821 190.2568 287.8755 192.24902 L 256 192.24902 L 256 192.24902 L 256 240.06226 L 256 240.06226 L 287.8755 240.06226 L 287.8755 240.06226 Q 301.821 241.05836 303.81323 256 Q 301.821 269.94553 287.8755 271.93774 L 256 271.93774 L 256 271.93774 L 256 335.68872 L 256 335.68872 Q 254.00778 349.63425 240.06226 351.62646 Q 225.12062 349.63425 224.12451 335.68872 L 224.12451 256 L 224.12451 256 L 224.12451 176.31128 L 224.12451 176.31128 Z M 335.68872 160.37354 L 399.4397 160.37354 L 335.68872 160.37354 L 399.4397 160.37354 Q 413.38522 161.36964 415.37744 176.31128 Q 413.38522 190.2568 399.4397 192.24902 L 383.50195 192.24902 L 383.50195 192.24902 L 383.50195 335.68872 L 383.50195 335.68872 Q 381.50974 349.63425 367.5642 351.62646 Q 352.62256 349.63425 351.62646 335.68872 L 351.62646 192.24902 L 351.62646 192.24902 L 335.68872 192.24902 L 335.68872 192.24902 Q 320.74707 190.2568 319.75098 176.31128 Q 320.74707 161.36964 335.68872 160.37354 L 335.68872 160.37354 Z" />
</svg>