<svg xmlns="http://www.w3.org/2000/svg" viewBox="0 0 512 512">
  <path d="M 443.06075533661743 271.97372742200326 Q 443.90147783251234 263.5665024630542 443.90147783251234 256 Q 443.06075533661743 203.0344827586207 417.8390804597701 160.9983579638752 Q 393.4581280788177 118.12151067323481 350.58128078817737 93.74055829228243 Q 308.5451559934319 68.51888341543514 255.57963875205255 67.67816091954023 Q 202.61412151067324 68.51888341543514 160.57799671592775 93.74055829228243 Q 117.70114942528735 118.12151067323481 93.32019704433498 160.9983579638752 Q 68.09852216748769 203.0344827586207 67.25779967159278 256 Q 67.25779967159278 263.5665024630542 68.09852216748769 271.97372742200326 Q 54.64696223316913 268.61083743842363 41.195402298850574 270.29228243021345 Q 40.354679802955665 262.72577996715927 40.354679802955665 256 Q 41.195402298850574 195.4679802955665 69.7799671592775 147.54679802955664 Q 98.36453201970443 98.78489326765188 147.1264367816092 70.20032840722496 Q 195.04761904761904 41.61576354679803 255.57963875205255 40.77504105090312 Q 316.11165845648605 41.61576354679803 364.0328407224959 70.20032840722496 Q 412.79474548440066 98.78489326765188 441.37931034482756 147.54679802955664 Q 469.9638752052545 195.4679802955665 470.8045977011494 256 Q 470.8045977011494 262.72577996715927 470.8045977011494 270.29228243021345 Q 456.51231527093597 268.61083743842363 443.06075533661743 271.97372742200326 L 443.06075533661743 271.97372742200326 Z M 329.5632183908046 429.1888341543514 Q 325.35960591133005 445.1625615763547 323.67816091954023 460.29556650246303 Q 291.73070607553365 471.2249589490969 255.57963875205255 471.2249589490969 Q 219.42857142857142 471.2249589490969 187.48111658456486 460.29556650246303 Q 185.79967159277504 445.1625615763547 182.4367816091954 429.1888341543514 Q 216.06568144499178 444.32183908045977 255.57963875205255 444.32183908045977 Q 295.0935960591133 444.32183908045977 329.5632183908046 429.1888341543514 L 329.5632183908046 429.1888341543514 Z M 174.87027914614123 178.65353037766832 Q 158.05582922824303 186.2200328407225 144.60426929392446 206.39737274220033 Q 132.83415435139574 227.41543513957308 134.51559934318556 245.0706075533662 Q 137.03776683087028 261.04433497536945 147.1264367816092 266.9293924466338 Q 157.21510673234812 272.8144499178982 174.87027914614123 266.0886699507389 Q 191.6847290640394 258.5221674876847 205.13628899835797 238.3448275862069 Q 216.9064039408867 217.32676518883414 215.22495894909687 199.67159277504106 Q 212.70279146141215 183.69786535303777 202.61412151067324 177.8128078817734 Q 191.6847290640394 171.92775041050902 174.87027914614123 178.65353037766832 L 174.87027914614123 178.65353037766832 Z M 163.9408866995074 154.27257799671594 Q 190.00328407224958 142.5024630541872 215.22495894909687 154.27257799671594 Q 239.60591133004925 169.4055829228243 242.12807881773398 197.1494252873563 Q 243.8095238095238 224.89326765188835 227.83579638752053 251.79638752052546 Q 211.02134646962233 278.69950738916253 185.79967159277504 290.4696223316913 Q 159.73727422003284 302.23973727422003 134.51559934318556 290.4696223316913 Q 110.13464696223316 275.3366174055829 107.61247947454844 247.5927750410509 Q 105.93103448275862 219.84893267651887 121.9047619047619 192.94581280788177 Q 138.7192118226601 166.04269293924466 163.9408866995074 154.27257799671594 L 163.9408866995074 154.27257799671594 Z M 336.28899835796386 178.65353037766832 Q 318.6338259441708 171.92775041050902 308.5451559934319 177.8128078817734 Q 298.4564860426929 183.69786535303777 295.9343185550082 199.67159277504106 Q 294.2528735632184 217.32676518883414 306.02298850574715 238.3448275862069 Q 319.4745484400657 258.5221674876847 336.28899835796386 266.0886699507389 Q 353.944170771757 272.8144499178982 364.0328407224959 266.9293924466338 Q 374.1215106732348 261.04433497536945 376.64367816091954 245.0706075533662 Q 378.32512315270935 227.41543513957308 366.55500821018063 206.39737274220033 Q 353.1034482758621 186.2200328407225 336.28899835796386 178.65353037766832 L 336.28899835796386 178.65353037766832 Z M 347.2183908045977 154.27257799671594 Q 372.440065681445 166.04269293924466 389.25451559934316 192.94581280788177 Q 405.2282430213465 219.84893267651887 403.54679802955667 247.5927750410509 Q 401.02463054187194 275.3366174055829 376.64367816091954 290.4696223316913 Q 351.4220032840723 302.23973727422003 325.35960591133005 290.4696223316913 Q 300.13793103448273 278.69950738916253 283.32348111658456 251.79638752052546 Q 267.3497536945813 224.89326765188835 269.0311986863711 197.1494252873563 Q 271.55336617405584 169.4055829228243 295.9343185550082 154.27257799671594 Q 321.1559934318555 142.5024630541872 347.2183908045977 154.27257799671594 L 347.2183908045977 154.27257799671594 Z M 282.48275862068965 336.70935960591135 Q 282.48275862068965 324.93924466338257 274.9162561576355 317.3727422003284 L 274.9162561576355 317.3727422003284 L 274.9162561576355 317.3727422003284 Q 267.3497536945813 309.8062397372742 255.57963875205255 309.8062397372742 Q 243.8095238095238 309.8062397372742 236.24302134646962 317.3727422003284 Q 228.67651888341544 324.93924466338257 228.67651888341544 336.70935960591135 L 228.67651888341544 363.6124794745484 L 228.67651888341544 363.6124794745484 Q 228.67651888341544 375.3825944170772 236.24302134646962 382.9490968801314 Q 243.8095238095238 390.51559934318556 255.57963875205255 390.51559934318556 Q 267.3497536945813 390.51559934318556 274.9162561576355 382.9490968801314 Q 282.48275862068965 375.3825944170772 282.48275862068965 363.6124794745484 L 282.48275862068965 336.70935960591135 L 282.48275862068965 336.70935960591135 Z M 201.77339901477833 336.70935960591135 Q 202.61412151067324 314.00985221674875 217.7471264367816 298.8768472906404 L 217.7471264367816 298.8768472906404 L 217.7471264367816 298.8768472906404 Q 232.88013136288998 283.74384236453204 255.57963875205255 282.90311986863713 Q 278.2791461412151 283.74384236453204 293.41215106732346 298.8768472906404 Q 308.5451559934319 314.00985221674875 309.3858784893268 336.70935960591135 L 309.3858784893268 363.6124794745484 L 309.3858784893268 363.6124794745484 Q 308.5451559934319 386.311986863711 293.41215106732346 401.44499178981937 Q 278.2791461412151 416.5779967159277 255.57963875205255 417.41871921182263 Q 232.88013136288998 416.5779967159277 217.7471264367816 401.44499178981937 Q 202.61412151067324 386.311986863711 201.77339901477833 363.6124794745484 L 201.77339901477833 336.70935960591135 L 201.77339901477833 336.70935960591135 Z M 82.39080459770115 308.1247947454844 L 82.39080459770115 308.1247947454844 L 82.39080459770115 308.1247947454844 L 82.39080459770115 308.1247947454844 Q 119.38259441707717 340.9129720853859 140.40065681444992 390.51559934318556 Q 158.05582922824303 431.71100164203614 160.57799671592775 471.2249589490969 L 133.67487684729065 471.2249589490969 L 133.67487684729065 471.2249589490969 Q 131.15270935960592 437.5960591133005 115.17898193760263 400.60426929392446 Q 95.8423645320197 356.04597701149424 64.73563218390805 328.30213464696226 Q 52.1247947454844 319.0541871921182 36.991789819376024 326.62068965517244 L 36.991789819376024 326.62068965517244 L 36.991789819376024 326.62068965517244 Q 26.90311986863711 334.1871921182266 26.90311986863711 345.95730706075534 Q 26.90311986863711 351.8423645320197 30.266009852216747 357.72742200328406 L 30.266009852216747 357.72742200328406 L 30.266009852216747 357.72742200328406 Q 63.894909688013136 408.17077175697864 68.9392446633826 471.2249589490969 L 42.03612479474548 471.2249589490969 L 42.03612479474548 471.2249589490969 Q 36.991789819376024 416.5779967159277 8.407224958949097 372.8604269293925 Q 0 360.2495894909688 0 345.95730706075534 Q 0 319.8949096880131 22.699507389162562 304.76190476190476 L 22.699507389162562 304.76190476190476 L 22.699507389162562 304.76190476190476 Q 36.991789819376024 295.51395730706076 52.96551724137931 296.3546798029557 Q 69.7799671592775 298.0361247947455 82.39080459770115 308.1247947454844 L 82.39080459770115 308.1247947454844 Z M 502.752052545156 372.8604269293925 Q 474.16748768472905 416.5779967159277 469.1231527093596 471.2249589490969 L 442.2200328407225 471.2249589490969 L 442.2200328407225 471.2249589490969 Q 447.264367816092 408.17077175697864 480.8932676518883 357.72742200328406 L 480.8932676518883 357.72742200328406 L 480.8932676518883 357.72742200328406 Q 484.25615763546796 352.6830870279146 484.25615763546796 346.79802955665025 Q 484.25615763546796 334.1871921182266 474.16748768472905 326.62068965517244 L 474.16748768472905 326.62068965517244 L 474.16748768472905 326.62068965517244 Q 459.0344827586207 319.0541871921182 446.42364532019707 328.30213464696226 Q 415.3169129720854 356.04597701149424 395.9802955665025 400.60426929392446 Q 380.00656814449917 437.5960591133005 377.48440065681444 471.2249589490969 L 350.58128078817737 471.2249589490969 L 350.58128078817737 471.2249589490969 Q 353.1034482758621 431.71100164203614 370.7586206896552 390.51559934318556 Q 391.7766830870279 340.9129720853859 428.76847290640393 308.1247947454844 L 428.76847290640393 308.1247947454844 L 428.76847290640393 308.1247947454844 Q 442.2200328407225 298.0361247947455 458.1937602627258 296.3546798029557 Q 474.16748768472905 295.51395730706076 488.4597701149425 304.76190476190476 L 488.4597701149425 304.76190476190476 L 488.4597701149425 304.76190476190476 Q 512 320.735632183908 511.1592775041051 348.47947454844007 Q 510.3185550082102 361.0903119868637 502.752052545156 372.8604269293925 L 502.752052545156 372.8604269293925 Z" />
</svg>