<svg xmlns="http://www.w3.org/2000/svg" viewBox="0 0 512 512">
  <path d="M 33.867702 240.06226 Q 35.85992 169.33852 96.62257 118.536964 L 96.62257 118.536964 L 96.62257 118.536964 Q 158.38132 66.739296 256.9961 64.74708 Q 355.6109 66.739296 417.36966 118.536964 Q 478.1323 169.33852 480.1245 240.06226 Q 478.1323 310.78598 417.36966 361.58755 Q 355.6109 413.38522 256.9961 415.37744 Q 209.18288 415.37744 164.35797 399.4397 Q 148.42023 394.45914 134.4747 403.42413 Q 111.5642 419.36188 86.661476 430.31906 L 92.63813 445.2607 L 92.63813 445.2607 L 86.661476 430.31906 L 86.661476 430.31906 Q 70.72373 437.29184 53.789883 442.27237 Q 54.78599 441.27628 54.78599 440.28015 Q 54.78599 440.28015 55.7821 439.28406 Q 76.700386 404.42023 80.68482 363.57977 Q 81.68093 349.63425 73.71206 339.67316 Q 35.85992 295.84436 33.867702 240.06226 L 33.867702 240.06226 Z M 256.9961 32.871593 Q 185.27626 33.867702 128.49805 60.762646 L 128.49805 60.762646 L 128.49805 60.762646 Q 70.72373 88.653694 36.85603 135.47081 L 36.85603 135.47081 L 36.85603 135.47081 Q 2.9883268 182.28793 1.9922179 240.06226 Q 4.9805446 309.7899 48.809338 360.59143 Q 48.809338 360.59143 48.809338 360.59143 Q 48.809338 360.59143 49.805447 360.59143 Q 45.82101 394.45914 27.89105 423.3463 Q 18.92607 439.28406 6.9727626 452.23346 Q 0 460.20233 2.9883268 469.16733 Q 7.9688716 479.12842 17.92996 479.12842 Q 61.758755 477.1362 99.61089 460.20233 Q 127.501945 447.25293 152.40466 429.32297 Q 153.40077 429.32297 153.40077 429.32297 Q 203.20622 446.2568 256.9961 447.25293 Q 328.71594 446.2568 385.49417 419.36188 Q 443.2685 391.47083 477.1362 344.6537 Q 511.0039 297.83658 512 240.06226 Q 511.0039 182.28793 477.1362 135.47081 Q 443.2685 88.653694 385.49417 60.762646 Q 328.71594 33.867702 256.9961 32.871593 L 256.9961 32.871593 Z M 182.28793 165.35408 Q 172.32684 176.31128 182.28793 187.26848 L 234.0856 240.06226 L 234.0856 240.06226 L 182.28793 292.85602 L 182.28793 292.85602 Q 172.32684 303.81323 182.28793 314.77042 Q 193.24513 324.7315 204.20233 314.77042 L 256.9961 262.97275 L 256.9961 262.97275 L 309.7899 314.77042 L 309.7899 314.77042 Q 320.74707 324.7315 331.70428 314.77042 Q 341.66537 303.81323 331.70428 292.85602 L 279.90662 240.06226 L 279.90662 240.06226 L 331.70428 187.26848 L 331.70428 187.26848 Q 341.66537 176.31128 331.70428 165.35408 Q 320.74707 155.39299 309.7899 165.35408 L 256.9961 217.15175 L 256.9961 217.15175 L 204.20233 165.35408 L 204.20233 165.35408 Q 193.24513 155.39299 182.28793 165.35408 L 182.28793 165.35408 Z" />
</svg>