<svg xmlns="http://www.w3.org/2000/svg" viewBox="0 0 512 512">
  <path d="M 33.86770428015564 240.06225680933852 Q 35.85992217898833 169.3385214007782 96.62256809338521 118.53696498054475 L 96.62256809338521 118.53696498054475 L 96.62256809338521 118.53696498054475 Q 158.38132295719845 66.73929961089495 256.99610894941634 64.74708171206225 Q 355.6108949416342 66.73929961089495 417.36964980544747 118.53696498054475 Q 478.13229571984436 169.3385214007782 480.12451361867704 240.06225680933852 Q 478.13229571984436 310.7859922178988 417.36964980544747 361.5875486381323 Q 355.6108949416342 413.3852140077821 256.99610894941634 415.3774319066148 Q 209.1828793774319 415.3774319066148 164.3579766536965 399.4396887159533 Q 148.42023346303503 394.4591439688716 134.47470817120623 403.42412451361866 Q 111.56420233463035 419.36186770428014 86.6614785992218 430.3190661478599 L 92.63813229571984 445.26070038910507 L 92.63813229571984 445.26070038910507 L 86.6614785992218 430.3190661478599 L 86.6614785992218 430.3190661478599 Q 70.72373540856032 437.2918287937743 53.78988326848249 442.27237354085605 Q 54.78599221789883 441.2762645914397 54.78599221789883 440.2801556420234 Q 54.78599221789883 440.2801556420234 55.782101167315176 439.284046692607 Q 76.70038910505836 404.420233463035 80.68482490272373 363.579766536965 Q 81.68093385214007 349.6342412451362 73.71206225680933 339.67315175097275 Q 35.85992217898833 295.84435797665367 33.86770428015564 240.06225680933852 L 33.86770428015564 240.06225680933852 Z M 256.99610894941634 32.8715953307393 Q 185.27626459143968 33.86770428015564 128.49805447470817 60.762645914396884 L 128.49805447470817 60.762645914396884 L 128.49805447470817 60.762645914396884 Q 70.72373540856032 88.65369649805447 36.856031128404666 135.47081712062257 L 36.856031128404666 135.47081712062257 L 36.856031128404666 135.47081712062257 Q 2.9883268482490273 182.28793774319067 1.9922178988326849 240.06225680933852 Q 4.980544747081712 309.78988326848247 48.809338521400775 360.591439688716 Q 48.809338521400775 360.591439688716 48.809338521400775 360.591439688716 Q 48.809338521400775 360.591439688716 49.80544747081712 360.591439688716 Q 45.82101167315175 394.4591439688716 27.891050583657588 423.3463035019455 Q 18.926070038910506 439.284046692607 6.972762645914397 452.23346303501944 Q 0 460.2023346303502 2.9883268482490273 469.16731517509726 Q 7.968871595330739 479.1284046692607 17.929961089494164 479.1284046692607 Q 61.75875486381323 477.136186770428 99.61089494163424 460.2023346303502 Q 127.50194552529183 447.25291828793775 152.4046692607004 429.3229571984436 Q 153.40077821011673 429.3229571984436 153.40077821011673 429.3229571984436 Q 203.20622568093384 446.2568093385214 256.99610894941634 447.25291828793775 Q 328.715953307393 446.2568093385214 385.4941634241245 419.36186770428014 Q 443.2684824902724 391.47081712062254 477.136186770428 344.6536964980545 Q 511.00389105058366 297.8365758754864 512 240.06225680933852 Q 511.00389105058366 182.28793774319067 477.136186770428 135.47081712062257 Q 443.2684824902724 88.65369649805447 385.4941634241245 60.762645914396884 Q 328.715953307393 33.86770428015564 256.99610894941634 32.8715953307393 L 256.99610894941634 32.8715953307393 Z M 177.30739299610894 221.13618677042803 Q 177.30739299610894 209.1828793774319 186.27237354085602 201.21400778210116 L 186.27237354085602 201.21400778210116 L 186.27237354085602 201.21400778210116 Q 194.24124513618676 192.24902723735408 206.1945525291829 192.24902723735408 Q 218.14785992217898 192.24902723735408 227.11284046692606 201.21400778210116 L 246.03891050583658 219.14396887159532 L 246.03891050583658 219.14396887159532 Q 256.99610894941634 229.10505836575877 267.9533073929961 219.14396887159532 L 286.8793774319066 201.21400778210116 L 286.8793774319066 201.21400778210116 Q 295.84435797665367 192.24902723735408 307.7976653696498 192.24902723735408 Q 319.7509727626459 192.24902723735408 327.7198443579766 201.21400778210116 Q 336.68482490272373 209.1828793774319 336.68482490272373 221.13618677042803 Q 336.68482490272373 233.08949416342412 327.7198443579766 242.0544747081712 L 256.99610894941634 312.77821011673154 L 256.99610894941634 312.77821011673154 L 186.27237354085602 242.0544747081712 L 186.27237354085602 242.0544747081712 Q 177.30739299610894 233.08949416342412 177.30739299610894 221.13618677042803 L 177.30739299610894 221.13618677042803 Z M 206.1945525291829 160.37354085603113 Q 180.295719844358 161.36964980544747 163.36186770428014 178.30350194552528 L 163.36186770428014 178.30350194552528 L 163.36186770428014 178.30350194552528 Q 146.42801556420233 195.2373540856031 145.431906614786 221.13618677042803 Q 145.431906614786 246.03891050583658 163.36186770428014 264.9649805447471 L 246.03891050583658 346.6459143968872 L 246.03891050583658 346.6459143968872 Q 256.99610894941634 356.60700389105057 267.9533073929961 346.6459143968872 L 350.63035019455253 264.9649805447471 L 350.63035019455253 264.9649805447471 Q 367.56420233463035 246.03891050583658 368.5603112840467 221.13618677042803 Q 367.56420233463035 195.2373540856031 350.63035019455253 178.30350194552528 Q 333.6964980544747 161.36964980544747 306.80155642023345 160.37354085603113 Q 281.8988326848249 160.37354085603113 263.9688715953307 178.30350194552528 L 256.99610894941634 185.27626459143968 L 256.99610894941634 185.27626459143968 L 249.0272373540856 178.30350194552528 L 249.0272373540856 178.30350194552528 Q 231.09727626459144 160.37354085603113 206.1945525291829 160.37354085603113 L 206.1945525291829 160.37354085603113 Z" />
</svg>