<svg xmlns="http://www.w3.org/2000/svg" viewBox="0 0 512 512">
  <path d="M 28.444444444444443 128.88888888888889 L 28.444444444444443 128 L 28.444444444444443 128.88888888888889 L 28.444444444444443 128 Q 28.444444444444443 128 28.444444444444443 128 Q 28.444444444444443 128 28.444444444444443 128 L 28.444444444444443 128 L 28.444444444444443 128 L 28.444444444444443 128 L 28.444444444444443 128 L 28.444444444444443 128 L 28.444444444444443 128 Q 28.444444444444443 128 28.444444444444443 128 Q 28.444444444444443 128 29.333333333333332 127.11111111111111 Q 32.888888888888886 125.33333333333333 35.55555555555556 126.22222222222223 Q 60.44444444444444 133.33333333333334 85.33333333333333 135.11111111111111 L 85.33333333333333 135.11111111111111 L 85.33333333333333 135.11111111111111 Q 84.44444444444444 159.11111111111111 68.44444444444444 175.11111111111111 Q 52.44444444444444 191.11111111111111 28.444444444444443 192 L 28.444444444444443 128.88888888888889 L 28.444444444444443 128.88888888888889 Z M 28.444444444444443 403.55555555555554 L 28.444444444444443 362.6666666666667 L 28.444444444444443 403.55555555555554 L 28.444444444444443 362.6666666666667 Q 52.44444444444444 363.55555555555554 68.44444444444444 379.55555555555554 Q 84.44444444444444 395.55555555555554 85.33333333333333 419.55555555555554 L 85.33333333333333 425.77777777777777 L 85.33333333333333 425.77777777777777 Q 59.55555555555556 423.1111111111111 33.77777777777778 414.22222222222223 Q 29.333333333333332 412.44444444444446 28.444444444444443 403.55555555555554 L 28.444444444444443 403.55555555555554 Z M 113.77777777777777 419.55555555555554 Q 112.88888888888889 383.1111111111111 88.88888888888889 359.1111111111111 L 88.88888888888889 359.1111111111111 L 88.88888888888889 359.1111111111111 Q 64.88888888888889 335.1111111111111 28.444444444444443 334.22222222222223 L 28.444444444444443 220.44444444444446 L 28.444444444444443 220.44444444444446 Q 64.88888888888889 219.55555555555554 88.88888888888889 195.55555555555554 Q 112.88888888888889 171.55555555555554 113.77777777777777 135.11111111111111 Q 152 134.22222222222223 189.33333333333334 127.11111111111111 Q 226.66666666666666 119.11111111111111 261.3333333333333 110.22222222222223 Q 266.6666666666667 108.44444444444444 272.8888888888889 107.55555555555556 Q 338.6666666666667 88 398.22222222222223 85.33333333333333 L 398.22222222222223 92.44444444444444 L 398.22222222222223 92.44444444444444 Q 399.1111111111111 128.88888888888889 423.1111111111111 152.88888888888889 Q 447.1111111111111 176.88888888888889 483.55555555555554 177.77777777777777 L 483.55555555555554 291.55555555555554 L 483.55555555555554 291.55555555555554 Q 447.1111111111111 292.44444444444446 423.1111111111111 316.44444444444446 Q 399.1111111111111 340.44444444444446 398.22222222222223 376.8888888888889 Q 360 377.77777777777777 322.6666666666667 384.8888888888889 Q 285.3333333333333 392.8888888888889 250.66666666666666 401.77777777777777 Q 245.33333333333334 403.55555555555554 239.11111111111111 404.44444444444446 Q 239.11111111111111 404.44444444444446 239.11111111111111 405.3333333333333 Q 173.33333333333334 424 113.77777777777777 426.6666666666667 L 113.77777777777777 419.55555555555554 L 113.77777777777777 419.55555555555554 Z M 426.6666666666667 377.77777777777777 L 426.6666666666667 376.8888888888889 L 426.6666666666667 377.77777777777777 L 426.6666666666667 376.8888888888889 Q 427.55555555555554 352.8888888888889 443.55555555555554 336.8888888888889 Q 459.55555555555554 320.8888888888889 483.55555555555554 320 L 483.55555555555554 384 L 483.55555555555554 384 Q 483.55555555555554 384 483.55555555555554 384 Q 483.55555555555554 384 483.55555555555554 384 Q 483.55555555555554 384 483.55555555555554 384 Q 483.55555555555554 384 483.55555555555554 384 Q 483.55555555555554 384 483.55555555555554 384 Q 483.55555555555554 384 482.6666666666667 384.8888888888889 Q 479.1111111111111 386.6666666666667 476.44444444444446 385.77777777777777 Q 451.55555555555554 378.6666666666667 426.6666666666667 377.77777777777777 L 426.6666666666667 377.77777777777777 Z M 426.6666666666667 86.22222222222223 Q 452.44444444444446 88.88888888888889 478.22222222222223 97.77777777777777 Q 482.6666666666667 99.55555555555556 483.55555555555554 108.44444444444444 L 483.55555555555554 149.33333333333334 L 483.55555555555554 149.33333333333334 Q 459.55555555555554 148.44444444444446 443.55555555555554 132.44444444444446 Q 427.55555555555554 116.44444444444444 426.6666666666667 92.44444444444444 L 426.6666666666667 86.22222222222223 L 426.6666666666667 86.22222222222223 Z M 0 128.88888888888889 L 0 403.55555555555554 L 0 128.88888888888889 L 0 403.55555555555554 Q 0.8888888888888888 430.22222222222223 24 440.8888888888889 Q 81.77777777777777 460.44444444444446 140.44444444444446 453.3333333333333 Q 198.22222222222223 446.22222222222223 256 430.22222222222223 Q 309.3333333333333 415.1111111111111 362.6666666666667 407.1111111111111 Q 416 400 468.44444444444446 413.3333333333333 Q 484.44444444444446 416.8888888888889 497.77777777777777 408 Q 511.1111111111111 400 512 383.1111111111111 L 512 108.44444444444444 L 512 108.44444444444444 Q 511.1111111111111 81.77777777777777 488 71.11111111111111 Q 430.22222222222223 51.55555555555556 372.44444444444446 58.666666666666664 Q 313.77777777777777 65.77777777777777 256 81.77777777777777 Q 202.66666666666666 96.88888888888889 149.33333333333334 104 Q 96 112 43.55555555555556 98.66666666666667 Q 26.666666666666668 95.11111111111111 14.222222222222221 103.11111111111111 Q 0.8888888888888888 112 0 128.88888888888889 L 0 128.88888888888889 Z M 355.55555555555554 256 Q 354.6666666666667 210.66666666666666 328 177.77777777777777 L 328 177.77777777777777 L 328 177.77777777777777 Q 301.3333333333333 144 256 142.22222222222223 Q 210.66666666666666 144 184 177.77777777777777 Q 157.33333333333334 210.66666666666666 156.44444444444446 256 Q 157.33333333333334 301.3333333333333 184 334.22222222222223 Q 210.66666666666666 368 256 369.77777777777777 Q 301.3333333333333 368 328 334.22222222222223 Q 354.6666666666667 301.3333333333333 355.55555555555554 256 L 355.55555555555554 256 Z M 256 341.3333333333333 Q 225.77777777777777 340.44444444444446 205.33333333333334 316.44444444444446 L 205.33333333333334 316.44444444444446 L 205.33333333333334 316.44444444444446 Q 185.77777777777777 292.44444444444446 184.88888888888889 256 Q 185.77777777777777 219.55555555555554 205.33333333333334 195.55555555555554 Q 225.77777777777777 171.55555555555554 256 170.66666666666666 Q 286.22222222222223 171.55555555555554 306.6666666666667 195.55555555555554 Q 326.22222222222223 219.55555555555554 327.1111111111111 256 Q 326.22222222222223 292.44444444444446 306.6666666666667 316.44444444444446 Q 286.22222222222223 340.44444444444446 256 341.3333333333333 L 256 341.3333333333333 Z M 241.77777777777777 199.11111111111111 Q 228.44444444444446 200 227.55555555555554 213.33333333333334 Q 228.44444444444446 226.66666666666666 241.77777777777777 227.55555555555554 L 241.77777777777777 284.44444444444446 L 241.77777777777777 284.44444444444446 L 234.66666666666666 284.44444444444446 L 234.66666666666666 284.44444444444446 Q 221.33333333333334 285.3333333333333 220.44444444444446 298.6666666666667 Q 221.33333333333334 312 234.66666666666666 312.8888888888889 L 256 312.8888888888889 L 277.3333333333333 312.8888888888889 Q 290.6666666666667 312 291.55555555555554 298.6666666666667 Q 290.6666666666667 285.3333333333333 277.3333333333333 284.44444444444446 L 270.22222222222223 284.44444444444446 L 270.22222222222223 284.44444444444446 L 270.22222222222223 213.33333333333334 L 270.22222222222223 213.33333333333334 Q 269.3333333333333 200 256 199.11111111111111 L 241.77777777777777 199.11111111111111 L 241.77777777777777 199.11111111111111 Z" />
</svg>