<svg xmlns="http://www.w3.org/2000/svg" viewBox="0 0 512 512">
  <path d="M 266.89362 9.903288 Q 256 0 245.10638 9.903288 L 181.72534 73.28433 L 181.72534 73.28433 Q 171.82205 84.17795 181.72534 95.07156 Q 192.61896 104.97485 203.51257 95.07156 L 240.15474 59.419727 L 240.15474 59.419727 L 240.15474 131.71373 L 240.15474 131.71373 L 192.61896 131.71373 L 192.61896 131.71373 Q 177.76402 132.70406 176.7737 147.55899 Q 177.76402 162.41393 192.61896 163.40425 L 240.15474 163.40425 L 240.15474 163.40425 L 240.15474 196.08511 L 240.15474 196.08511 Q 178.75435 203.01741 139.1412 246.59187 Q 98.53772 290.16635 97.547386 353.5474 Q 99.528046 420.88974 144.09285 465.45456 Q 188.65764 510.01935 256 512 Q 323.34235 510.01935 367.90717 465.45456 Q 412.47195 420.88974 414.4526 353.5474 Q 413.46228 290.16635 372.8588 246.59187 Q 333.24564 203.01741 271.84528 196.08511 L 271.84528 163.40425 L 271.84528 163.40425 L 319.38104 163.40425 L 319.38104 163.40425 Q 334.23596 162.41393 335.22632 147.55899 Q 334.23596 132.70406 319.38104 131.71373 L 271.84528 131.71373 L 271.84528 131.71373 L 271.84528 59.419727 L 271.84528 59.419727 L 308.48743 95.07156 L 308.48743 95.07156 Q 319.38104 104.97485 330.27466 95.07156 Q 340.17795 84.17795 330.27466 73.28433 L 266.89362 9.903288 L 266.89362 9.903288 Z M 256 480.30948 Q 221.33849 480.30948 192.61896 463.47388 L 192.61896 463.47388 L 192.61896 463.47388 Q 163.89941 446.6383 146.0735 416.92844 Q 129.23792 387.21857 129.23792 353.5474 Q 129.23792 319.87622 146.0735 290.16635 Q 163.89941 260.45648 192.61896 243.6209 Q 221.33849 226.7853 256 226.7853 Q 290.6615 226.7853 319.38104 243.6209 Q 348.1006 260.45648 365.9265 290.16635 Q 382.7621 319.87622 382.7621 353.5474 Q 382.7621 387.21857 365.9265 416.92844 Q 348.1006 446.6383 319.38104 463.47388 Q 290.6615 480.30948 256 480.30948 L 256 480.30948 Z" />
</svg>