<svg xmlns="http://www.w3.org/2000/svg" viewBox="0 0 650 521">
    <path d="M 357 367 L 357 484 L 133 484 L 133 190 L 101 165 L 101 484 L 85 484 Q 70 485 69 500 Q 70 515 85 516 L 101 516 L 133 516 L 357 516 L 389 516 L 405 516 Q 420 515 421 500 Q 420 485 405 484 L 389 484 L 389 392 L 357 367 L 357 367 Z M 150 40 Q 157 36 165 36 L 325 36 Q 339 36 348 45 Q 357 54 357 68 L 357 204 L 389 229 L 389 68 Q 388 41 370 23 Q 352 5 325 4 L 165 4 Q 141 5 123 19 L 150 40 L 150 40 Z M 581 161 Q 581 133 560 114 L 480 40 Q 468 31 457 41 Q 448 53 458 64 L 485 88 L 485 164 Q 486 191 504 209 Q 522 227 549 228 L 549 355 L 581 381 L 581 161 L 581 161 Z M 517 118 L 539 138 Q 549 147 549 161 L 549 196 Q 535 196 526 187 Q 517 178 517 164 L 517 118 L 517 118 Z M 31 7 Q 19 0 8 10 Q 0 22 11 33 L 619 513 Q 631 521 642 510 Q 650 498 639 488 L 31 7 L 31 7 Z"/>
</svg>
