<svg xmlns="http://www.w3.org/2000/svg" viewBox="0 0 512 512">
  <path d="M 202.16309 15.381974 Q 205.45923 30.763948 191.17596 37.356224 Q 167.00429 43.948498 146.12875 56.034336 Q 150.5236 67.02146 150.5236 80.20601 Q 149.4249 109.87125 129.64807 129.64807 Q 109.87125 149.4249 80.20601 150.5236 Q 67.02146 150.5236 54.935623 146.12875 Q 43.948498 167.00429 36.25751 191.17596 Q 30.763948 205.45923 15.381974 202.16309 Q 0 196.66953 3.2961373 181.28755 Q 12.085837 151.62231 26.369099 126.35193 Q 10.987124 106.5751 9.888412 80.20601 Q 10.987124 50.54077 30.763948 30.763948 Q 50.54077 10.987124 80.20601 9.888412 Q 106.5751 9.888412 126.35193 26.369099 Q 151.62231 12.085837 181.28755 3.2961373 Q 196.66953 0 202.16309 15.381974 L 202.16309 15.381974 Z M 309.8369 15.381974 Q 315.33047 0 331.81116 3.2961373 Q 360.3777 12.085837 386.7468 26.369099 Q 405.4249 9.888412 431.794 9.888412 Q 461.45923 10.987124 481.23605 30.763948 Q 501.01288 50.54077 502.1116 80.20601 Q 502.1116 106.5751 485.6309 126.35193 Q 499.91415 151.62231 508.70386 181.28755 Q 512 196.66953 496.618 202.16309 Q 481.23605 205.45923 474.64377 191.17596 Q 468.0515 167.00429 455.96567 146.12875 Q 444.97855 150.5236 431.794 150.5236 Q 402.12875 149.4249 382.35193 129.64807 Q 362.5751 109.87125 361.4764 80.20601 Q 361.4764 67.02146 365.87125 56.034336 Q 344.9957 43.948498 320.82404 37.356224 Q 306.54077 30.763948 309.8369 15.381974 L 309.8369 15.381974 Z M 15.381974 309.8369 Q 30.763948 306.54077 37.356224 321.92276 Q 43.948498 344.9957 56.034336 365.87125 Q 67.02146 361.4764 80.20601 361.4764 Q 109.87125 362.5751 129.64807 382.35193 Q 149.4249 402.12875 150.5236 431.794 Q 150.5236 444.97855 146.12875 457.0644 Q 167.00429 468.0515 191.17596 475.7425 Q 205.45923 481.23605 202.16309 496.618 Q 196.66953 512 180.18884 508.70386 Q 151.62231 499.91415 125.25322 485.6309 Q 106.5751 501.01288 80.20601 502.1116 Q 50.54077 501.01288 30.763948 481.23605 Q 10.987124 461.45923 9.888412 431.794 Q 9.888412 405.4249 26.369099 386.7468 Q 12.085837 360.3777 3.2961373 331.81116 Q 0 315.33047 15.381974 309.8369 L 15.381974 309.8369 Z M 496.618 309.8369 Q 512 315.33047 508.70386 331.81116 Q 499.91415 360.3777 485.6309 386.7468 Q 501.01288 405.4249 502.1116 431.794 Q 501.01288 461.45923 481.23605 481.23605 Q 461.45923 501.01288 431.794 502.1116 Q 405.4249 502.1116 386.7468 485.6309 Q 360.3777 499.91415 331.81116 508.70386 Q 315.33047 512 309.8369 496.618 Q 306.54077 481.23605 320.82404 474.64377 Q 344.9957 468.0515 365.87125 455.96567 Q 361.4764 444.97855 361.4764 431.794 Q 362.5751 402.12875 382.35193 382.35193 Q 402.12875 362.5751 431.794 361.4764 Q 444.97855 361.4764 455.96567 365.87125 Q 468.0515 344.9957 474.64377 320.82404 Q 481.23605 306.54077 496.618 309.8369 L 496.618 309.8369 Z M 80.20601 115.36481 Q 95.58798 115.36481 105.476395 105.476395 L 105.476395 105.476395 L 105.476395 105.476395 Q 115.36481 95.58798 115.36481 80.20601 Q 115.36481 64.824036 105.476395 54.935623 Q 95.58798 45.04721 80.20601 45.04721 Q 64.824036 45.04721 54.935623 54.935623 Q 45.04721 64.824036 45.04721 80.20601 Q 45.04721 95.58798 54.935623 105.476395 Q 64.824036 115.36481 80.20601 115.36481 L 80.20601 115.36481 Z M 115.36481 431.794 Q 115.36481 416.41202 105.476395 406.5236 L 105.476395 406.5236 L 105.476395 406.5236 Q 95.58798 396.6352 80.20601 396.6352 Q 64.824036 396.6352 54.935623 406.5236 Q 45.04721 416.41202 45.04721 431.794 Q 45.04721 447.17596 54.935623 457.0644 Q 64.824036 466.9528 80.20601 466.9528 Q 95.58798 466.9528 105.476395 457.0644 Q 115.36481 447.17596 115.36481 431.794 L 115.36481 431.794 Z M 431.794 115.36481 Q 447.17596 115.36481 457.0644 105.476395 L 457.0644 105.476395 L 457.0644 105.476395 Q 466.9528 95.58798 466.9528 80.20601 Q 466.9528 64.824036 457.0644 54.935623 Q 447.17596 45.04721 431.794 45.04721 Q 416.41202 45.04721 406.5236 54.935623 Q 396.6352 64.824036 396.6352 80.20601 Q 396.6352 95.58798 406.5236 105.476395 Q 416.41202 115.36481 431.794 115.36481 L 431.794 115.36481 Z M 466.9528 431.794 Q 466.9528 416.41202 457.0644 406.5236 L 457.0644 406.5236 L 457.0644 406.5236 Q 447.17596 396.6352 431.794 396.6352 Q 416.41202 396.6352 406.5236 406.5236 Q 396.6352 416.41202 396.6352 431.794 Q 396.6352 447.17596 406.5236 457.0644 Q 416.41202 466.9528 431.794 466.9528 Q 447.17596 466.9528 457.0644 457.0644 Q 466.9528 447.17596 466.9528 431.794 L 466.9528 431.794 Z M 134.04292 160.41202 Q 135.14163 143.93134 151.62231 142.83261 L 201.06438 142.83261 L 201.06438 142.83261 Q 228.5322 145.03004 230.72961 171.39914 L 230.72961 221.93991 L 230.72961 221.93991 Q 228.5322 237.32188 213.1502 239.51932 Q 196.66953 237.32188 195.57082 221.93991 L 195.57082 207.65665 L 195.57082 207.65665 Q 177.99141 228.5322 177.99141 257.09872 Q 180.18884 305.44205 220.8412 327.41632 Q 235.12447 336.206 228.5322 351.58798 Q 219.7425 364.77252 205.45923 359.27896 Q 176.8927 343.897 160.41202 317.5279 Q 142.83261 291.1588 142.83261 257.09872 Q 143.93134 209.85408 173.59657 177.99141 Q 173.59657 177.99141 173.59657 177.99141 Q 174.69528 177.99141 174.69528 177.99141 L 151.62231 177.99141 L 151.62231 177.99141 Q 135.14163 175.79399 134.04292 160.41202 L 134.04292 160.41202 Z M 362.5751 371.3648 L 312.03433 371.3648 L 362.5751 371.3648 L 312.03433 371.3648 Q 285.66522 369.1674 283.4678 341.6996 L 283.4678 292.2575 L 283.4678 292.2575 Q 284.56653 275.77682 301.0472 274.6781 Q 316.4292 275.77682 318.62662 292.2575 L 318.62662 305.44205 L 318.62662 305.44205 Q 335.1073 283.4678 336.206 254.90129 Q 334.00858 206.55794 293.35623 184.5837 Q 279.07297 175.79399 285.66522 161.51073 Q 293.35623 147.22746 308.7382 153.81975 Q 337.30472 168.103 353.7854 194.4721 Q 370.26608 220.8412 371.3648 254.90129 Q 370.26608 302.14594 339.50214 334.00858 Q 338.40344 335.1073 337.30472 336.206 L 362.5751 336.206 L 362.5751 336.206 Q 377.9571 337.30472 380.1545 353.7854 Q 377.9571 369.1674 362.5751 371.3648 L 362.5751 371.3648 Z" />
</svg>