<svg xmlns="http://www.w3.org/2000/svg" viewBox="0 0 576 448">
    <path d="M 64 32 Q 50 32 41 41 L 41 41 Q 32 50 32 64 L 544 64 Q 544 50 535 41 Q 526 32 512 32 L 64 32 L 64 32 Z M 0 80 L 0 64 Q 1 37 19 19 Q 37 1 64 0 L 512 0 Q 539 1 557 19 Q 575 37 576 64 L 576 80 L 576 384 Q 575 411 557 429 Q 539 447 512 448 L 64 448 Q 37 447 19 429 Q 1 411 0 384 L 0 80 L 0 80 Z M 544 96 L 32 96 L 32 384 Q 32 398 41 407 Q 50 416 64 416 L 512 416 Q 526 416 535 407 Q 544 398 544 384 L 544 96 L 544 96 Z M 192 224 Q 206 224 215 215 L 215 215 Q 224 206 224 192 Q 224 178 215 169 Q 206 160 192 160 Q 178 160 169 169 Q 160 178 160 192 Q 160 206 169 215 Q 178 224 192 224 L 192 224 Z M 192 128 Q 228 129 247 160 Q 265 192 247 224 Q 228 255 192 256 Q 156 255 137 224 Q 119 192 137 160 Q 156 129 192 128 L 192 128 Z M 160 320 Q 140 321 126 334 L 126 334 Q 113 348 112 368 Q 111 383 96 384 Q 81 383 80 368 Q 81 334 103 311 Q 126 289 160 288 L 224 288 Q 258 289 281 311 Q 303 334 304 368 Q 303 383 288 384 Q 273 383 272 368 Q 271 348 258 334 Q 244 321 224 320 L 160 320 L 160 320 Z M 336 176 Q 337 161 352 160 L 480 160 Q 495 161 496 176 Q 495 191 480 192 L 352 192 Q 337 191 336 176 L 336 176 Z M 336 240 Q 337 225 352 224 L 480 224 Q 495 225 496 240 Q 495 255 480 256 L 352 256 Q 337 255 336 240 L 336 240 Z M 336 304 Q 337 289 352 288 L 480 288 Q 495 289 496 304 Q 495 319 480 320 L 352 320 Q 337 319 336 304 L 336 304 Z"/>
</svg>
