<svg xmlns="http://www.w3.org/2000/svg" viewBox="0 0 512 512">
  <path d="M 38.460093896713616 499.981220657277 L 269.2206572769953 269.2206572769953 L 38.460093896713616 499.981220657277 L 269.2206572769953 269.2206572769953 Q 281.23943661971833 256 269.2206572769953 242.7793427230047 L 38.460093896713616 12.018779342723004 L 38.460093896713616 12.018779342723004 Q 25.239436619718308 0 12.018779342723004 12.018779342723004 Q 0 25.239436619718308 12.018779342723004 38.460093896713616 L 228.3568075117371 256 L 228.3568075117371 256 L 12.018779342723004 473.5399061032864 L 12.018779342723004 473.5399061032864 Q 0 486.76056338028167 12.018779342723004 499.981220657277 Q 25.239436619718308 512 38.460093896713616 499.981220657277 L 38.460093896713616 499.981220657277 Z M 269.2206572769953 499.981220657277 L 499.981220657277 269.2206572769953 L 269.2206572769953 499.981220657277 L 499.981220657277 269.2206572769953 Q 512 256 499.981220657277 242.7793427230047 L 269.2206572769953 12.018779342723004 L 269.2206572769953 12.018779342723004 Q 256 0 242.7793427230047 12.018779342723004 Q 230.7605633802817 25.239436619718308 242.7793427230047 38.460093896713616 L 459.11737089201876 256 L 459.11737089201876 256 L 242.7793427230047 473.5399061032864 L 242.7793427230047 473.5399061032864 Q 230.7605633802817 486.76056338028167 242.7793427230047 499.981220657277 Q 256 512 269.2206572769953 499.981220657277 L 269.2206572769953 499.981220657277 Z" />
</svg>