<svg xmlns="http://www.w3.org/2000/svg" viewBox="0 0 512 256">
    <path d="M 502 103 Q 512 114 512 128 Q 512 142 502 153 L 418 244 Q 407 256 390 256 Q 374 256 363 245 Q 352 234 352 218 L 352 192 L 160 192 L 160 218 Q 159 234 149 245 Q 138 256 122 256 Q 105 256 93 244 L 9 153 Q 0 142 0 128 Q 0 114 10 103 L 94 12 Q 105 0 122 0 Q 138 0 149 11 Q 160 22 160 38 L 160 64 L 352 64 L 352 38 Q 353 22 363 11 Q 374 0 390 0 Q 407 0 418 12 L 502 103 L 502 103 Z M 480 128 Q 480 126 479 125 L 395 34 Q 393 32 390 32 Q 384 33 384 38 L 384 80 Q 382 95 368 96 L 144 96 L 144 96 L 144 96 L 144 96 L 144 96 L 144 96 L 144 96 L 144 96 L 144 96 L 144 96 L 144 96 L 144 96 L 144 96 L 144 96 L 144 96 L 144 96 L 144 96 L 144 96 L 144 96 L 144 96 L 144 96 L 144 96 L 144 96 L 144 96 L 144 96 L 144 96 L 144 96 L 144 96 L 144 96 L 144 96 L 144 96 L 144 96 L 144 96 Q 129 95 128 80 L 128 38 Q 127 33 122 32 Q 119 32 117 34 L 33 125 Q 32 126 32 128 Q 32 130 33 131 L 117 222 Q 119 224 122 224 Q 127 223 128 218 L 128 176 Q 129 161 144 160 L 144 160 L 144 160 L 144 160 L 144 160 L 144 160 L 144 160 L 144 160 L 144 160 L 144 160 L 144 160 L 144 160 L 144 160 L 144 160 L 144 160 L 144 160 L 144 160 L 144 160 L 144 160 L 144 160 L 144 160 L 144 160 L 144 160 L 144 160 L 144 160 L 144 160 L 144 160 L 144 160 L 144 160 L 144 160 L 144 160 L 144 160 L 144 160 L 368 160 Q 382 161 384 176 L 384 218 Q 384 223 390 224 Q 393 224 395 222 L 479 131 Q 480 130 480 128 L 480 128 Z"/>
</svg>
