<svg xmlns="http://www.w3.org/2000/svg" viewBox="0 0 512 512">
  <path d="M 232.5101 60.914463 Q 235.69518 52.95179 244.45412 52.15552 L 346.37637 52.15552 L 387.78226 52.15552 Q 428.3919 52.95179 455.465 83.20995 L 500.056 135.76361 L 500.056 135.76361 Q 512 149.30016 512 167.6143 Q 511.20374 189.11353 497.66718 203.44635 Q 483.33438 216.9829 461.83514 217.77916 L 444.31726 217.77916 L 444.31726 217.77916 Q 418.04044 217.77916 398.93002 199.46501 L 391.7636 192.2986 L 391.7636 192.2986 L 384.5972 192.2986 L 384.5972 192.2986 L 384.5972 201.8538 L 384.5972 201.8538 Q 385.39346 224.1493 402.11508 237.68585 L 474.57544 291.83203 L 474.57544 291.83203 Q 511.20374 320.49768 512 366.68118 Q 511.20374 404.10574 486.51944 430.38257 Q 462.6314 455.86313 425.20685 459.84448 Q 424.41058 459.84448 422.81805 459.84448 L 418.8367 459.84448 L 40.609642 459.84448 Q 25.48056 459.84448 15.129083 450.28928 Q 3.9813375 440.73407 2.3888025 424.80872 Q 1.592535 408.88336 11.147745 396.93936 Q 20.702955 385.7916 37.424572 383.4028 L 338.4137 355.53345 L 338.4137 355.53345 L 315.32193 327.66406 L 315.32193 327.66406 Q 283.47122 288.64697 282.67496 238.48212 L 282.67496 201.8538 L 282.67496 201.8538 L 282.67496 201.8538 L 282.67496 201.8538 L 282.67496 201.8538 L 282.67496 201.8538 L 282.67496 201.8538 L 282.67496 201.8538 L 282.67496 174.78072 L 282.67496 174.78072 L 238.88025 152.48523 L 238.88025 152.48523 Q 232.5101 149.30016 231.71384 142.13374 Q 230.91757 135.76361 236.49144 130.98601 L 273.91602 103.11664 L 273.91602 103.11664 L 236.49144 75.24728 L 236.49144 75.24728 Q 230.1213 69.67341 232.5101 60.914463 L 232.5101 60.914463 Z M 421.2255 434.36392 Q 421.2255 434.36392 422.02176 434.36392 Q 449.89114 431.97513 467.40903 413.66095 Q 485.72318 394.55054 486.51944 366.68118 Q 485.72318 332.44168 459.44635 311.73874 L 386.986 257.59253 L 386.986 257.59253 Q 359.9129 236.88959 359.11664 201.8538 L 359.11664 179.55832 L 359.11664 179.55832 Q 359.9129 167.6143 371.85693 166.81804 L 397.3375 166.81804 L 397.3375 166.81804 Q 402.91135 166.81804 406.09644 170.79938 L 417.24417 181.15085 L 417.24417 181.15085 Q 428.3919 192.2986 444.31726 192.2986 L 461.83514 192.2986 L 461.83514 192.2986 Q 472.1866 192.2986 479.35303 185.13219 Q 486.51944 177.96579 486.51944 167.6143 Q 486.51944 158.85536 480.94556 151.68896 L 436.35458 99.93157 L 436.35458 99.93157 Q 416.4479 78.43235 387.78226 77.63608 L 359.11664 77.63608 L 282.67496 77.63608 L 303.37793 92.76516 L 303.37793 92.76516 Q 308.15552 96.7465 308.15552 103.11664 Q 308.15552 109.48678 303.37793 113.46812 L 268.34213 138.94868 L 268.34213 138.94868 L 300.9891 155.67029 L 300.9891 155.67029 Q 308.15552 158.85536 308.15552 166.81804 L 308.15552 201.8538 L 308.15552 201.8538 L 308.15552 201.8538 L 308.15552 201.8538 L 308.15552 201.8538 L 308.15552 201.8538 L 308.15552 201.8538 L 308.15552 201.8538 L 308.15552 238.48212 L 308.15552 238.48212 Q 308.15552 279.88803 334.43234 311.73874 L 367.87558 351.5521 L 367.87558 351.5521 Q 371.85693 356.3297 371.85693 362.69986 Q 371.06064 377.03265 355.93158 379.42145 L 39.813374 408.88336 L 39.813374 408.88336 Q 27.869362 411.27216 27.869362 423.2162 Q 29.461897 433.56766 40.609642 434.36392 L 40.609642 434.36392 L 40.609642 434.36392 L 40.609642 434.36392 L 40.609642 434.36392 L 352.7465 434.36392 L 421.2255 434.36392 Z M 257.1944 210.61275 L 257.1944 238.48212 L 257.1944 210.61275 L 257.1944 238.48212 Q 257.1944 239.27838 257.1944 240.07465 Q 257.1944 240.87091 257.1944 241.66719 L 139.34682 162.8367 L 139.34682 162.8367 Q 130.58788 158.0591 123.42146 163.63297 L 52.553654 227.33437 L 52.553654 227.33437 L 154.47589 217.77916 L 154.47589 217.77916 Q 162.43857 217.77916 167.21617 224.94557 Q 170.40125 232.90825 164.0311 239.27838 L 122.62519 281.48056 L 122.62519 281.48056 L 262.76828 281.48056 L 262.76828 281.48056 Q 266.7496 295.01712 272.3235 306.96112 L 91.57076 306.96112 L 91.57076 306.96112 Q 83.608086 306.96112 79.62675 298.99844 Q 77.237946 291.03577 82.81182 285.46188 L 121.828926 246.4448 L 121.828926 246.4448 L 16.721617 256 L 16.721617 256 Q 7.1664076 256 3.18507 248.03732 Q 0 240.07465 6.37014 233.70451 L 106.699844 145.31882 L 106.699844 145.31882 Q 117.05132 136.55988 128.99533 134.96735 Q 141.73561 134.17107 152.88336 141.33748 L 257.1944 210.61275 L 257.1944 210.61275 Z M 396.5412 98.339035 L 422.02176 111.079315 L 396.5412 98.339035 L 422.02176 111.079315 Q 432.37326 117.449455 427.59564 127.800934 Q 422.02176 138.1524 410.87402 133.3748 L 385.39346 120.63453 L 385.39346 120.63453 Q 375.042 115.06065 379.8196 103.91291 Q 385.39346 93.56143 396.5412 98.339035 L 396.5412 98.339035 Z" />
</svg>