<svg xmlns="http://www.w3.org/2000/svg" viewBox="0 0 652 518">
    <path d="M 326 0 Q 311 1 310 16 L 310 112 Q 311 127 326 128 Q 341 127 342 112 L 342 16 Q 341 1 326 0 L 326 0 Z M 171 69 Q 161 80 171 91 L 235 155 Q 246 165 257 155 Q 267 144 257 133 L 193 69 Q 182 59 171 69 L 171 69 Z M 481 69 Q 470 59 459 69 L 395 133 Q 385 144 395 155 Q 406 165 417 155 L 481 91 Q 491 80 481 69 L 481 69 Z M 277 244 Q 272 231 257 233 L 184 253 Q 177 254 174 248 Q 160 219 132 205 Q 104 192 71 200 Q 35 211 18 241 Q 0 271 9 308 Q 20 346 53 363 Q 61 368 57 377 Q 37 408 46 447 Q 57 483 87 500 Q 118 518 154 509 Q 186 500 204 474 Q 221 449 219 416 Q 219 410 225 407 L 299 388 Q 312 382 310 368 Q 305 354 290 357 L 217 376 Q 201 381 194 393 Q 186 405 187 419 Q 189 440 177 456 Q 166 472 146 478 Q 123 484 103 473 Q 84 462 77 439 Q 71 414 84 394 Q 94 378 89 361 Q 85 344 68 335 Q 47 324 40 300 Q 34 276 46 257 Q 57 238 80 231 Q 100 226 118 234 Q 136 243 145 261 Q 151 274 164 281 Q 176 287 192 284 L 266 264 Q 279 259 277 244 L 277 244 Z M 395 233 Q 380 231 375 244 Q 373 259 387 264 L 460 284 Q 476 287 488 281 Q 501 274 507 261 Q 516 243 534 234 Q 552 226 573 231 Q 595 238 607 257 Q 618 276 612 300 Q 605 324 584 335 Q 568 344 563 361 Q 558 378 568 394 Q 581 414 575 439 Q 568 461 549 473 Q 529 484 506 478 Q 486 472 475 456 Q 464 440 465 419 Q 466 405 458 393 Q 451 381 435 376 L 362 357 Q 347 354 342 368 Q 340 382 354 388 L 427 407 Q 433 410 433 416 Q 431 448 448 474 Q 466 500 498 509 Q 534 518 565 500 Q 595 483 606 447 Q 615 408 595 377 Q 591 368 599 363 Q 632 346 643 308 Q 652 271 634 241 Q 617 210 581 200 Q 549 192 521 205 Q 492 219 478 248 Q 475 254 468 253 L 395 233 L 395 233 Z"/>
</svg>
