<svg xmlns="http://www.w3.org/2000/svg" viewBox="0 0 576 517">
    <path d="M 277 10 Q 288 0 299 10 L 395 106 Q 405 117 395 128 Q 384 138 373 128 L 304 60 L 304 213 Q 303 228 288 229 Q 273 228 272 213 L 272 60 L 203 128 Q 192 138 181 128 Q 171 117 181 106 L 277 10 L 277 10 Z M 394 230 Q 401 234 403 242 L 423 350 L 531 370 Q 539 372 543 379 Q 546 387 541 395 L 501 453 L 462 453 L 501 397 L 406 379 Q 396 377 394 367 L 376 272 L 297 327 Q 288 332 279 327 L 200 272 L 182 367 Q 180 377 170 379 L 75 397 L 114 453 L 75 453 L 35 395 Q 30 387 33 380 Q 37 372 45 370 L 153 350 L 173 242 Q 175 234 182 230 Q 190 227 198 232 L 288 294 L 378 232 Q 386 227 394 230 L 394 230 Z M 412 453 L 379 453 Q 368 425 344 407 Q 320 390 288 389 Q 256 390 232 407 Q 208 425 198 453 L 164 453 Q 175 411 209 384 Q 242 358 288 357 Q 334 358 367 384 Q 401 411 412 453 L 412 453 Z M 16 485 L 560 485 Q 575 486 576 501 Q 575 516 560 517 L 16 517 Q 1 516 0 501 Q 1 486 16 485 L 16 485 Z"/>
</svg>
