<svg xmlns="http://www.w3.org/2000/svg" viewBox="0 0 512 512">
  <path d="M 73.14286 36.57143 Q 57.142857 36.57143 46.857143 46.857143 L 46.857143 46.857143 L 46.857143 46.857143 Q 36.57143 57.142857 36.57143 73.14286 L 36.57143 438.85715 L 36.57143 438.85715 Q 36.57143 454.85715 46.857143 465.14285 Q 57.142857 475.42856 73.14286 475.42856 L 438.85715 475.42856 L 438.85715 475.42856 Q 454.85715 475.42856 465.14285 465.14285 Q 475.42856 454.85715 475.42856 438.85715 L 475.42856 73.14286 L 475.42856 73.14286 Q 475.42856 57.142857 465.14285 46.857143 Q 454.85715 36.57143 438.85715 36.57143 L 73.14286 36.57143 L 73.14286 36.57143 Z M 0 73.14286 Q 1.1428572 42.285713 21.714285 21.714285 L 21.714285 21.714285 L 21.714285 21.714285 Q 42.285713 1.1428572 73.14286 0 L 438.85715 0 L 438.85715 0 Q 469.7143 1.1428572 490.2857 21.714285 Q 510.85715 42.285713 512 73.14286 L 512 438.85715 L 512 438.85715 Q 510.85715 469.7143 490.2857 490.2857 Q 469.7143 510.85715 438.85715 512 L 73.14286 512 L 73.14286 512 Q 42.285713 510.85715 21.714285 490.2857 Q 1.1428572 469.7143 0 438.85715 L 0 73.14286 L 0 73.14286 Z M 146.28572 256 Q 147.42857 302.85715 178.28572 333.7143 L 178.28572 333.7143 L 178.28572 333.7143 Q 209.14285 364.57144 256 365.7143 Q 297.14285 364.57144 326.85715 339.42856 Q 356.57144 314.2857 364.57144 274.2857 L 292.57144 274.2857 L 292.57144 274.2857 Q 275.42856 273.14285 274.2857 256 Q 275.42856 238.85715 292.57144 237.71428 L 384 237.71428 L 384 237.71428 Q 401.14285 238.85715 402.2857 256 Q 401.14285 317.7143 360 360 Q 317.7143 401.14285 256 402.2857 Q 194.28572 401.14285 152 360 Q 110.85714 317.7143 109.71429 256 Q 110.85714 194.28572 152 152 Q 194.28572 110.85714 256 109.71429 Q 313.14285 110.85714 353.14285 147.42857 Q 364.57144 158.85715 355.42856 172.57143 Q 342.85715 184 329.14285 174.85715 Q 299.42856 147.42857 256 146.28572 Q 209.14285 147.42857 178.28572 178.28572 Q 147.42857 209.14285 146.28572 256 L 146.28572 256 Z" />
</svg>