<svg xmlns="http://www.w3.org/2000/svg" viewBox="0 0 512 512">
  <path d="M 128 32 Q 111 32 100 44 L 100 44 L 100 44 Q 88 55 88 72 L 88 76 L 88 76 Q 88 86 90 95 L 100 133 L 100 133 Q 103 146 104 160 L 152 160 L 152 160 Q 153 146 156 133 L 166 95 L 166 95 Q 168 86 168 76 L 168 72 L 168 72 Q 168 55 156 44 Q 145 32 128 32 L 128 32 Z M 92 231 L 61 301 L 92 231 L 61 301 Q 48 331 48 364 Q 48 404 67 439 L 90 480 L 90 480 L 167 480 L 167 480 L 189 439 L 189 439 Q 208 404 208 364 Q 208 331 195 301 L 164 231 L 164 231 Q 156 212 153 192 L 103 192 L 103 192 Q 100 212 92 231 L 92 231 Z M 56 72 Q 57 41 77 21 L 77 21 L 77 21 Q 97 1 128 0 Q 159 1 179 21 Q 199 41 200 72 L 200 76 L 200 76 Q 200 90 197 103 L 187 141 L 187 141 Q 184 154 184 168 L 184 173 L 184 173 Q 184 197 193 218 L 224 289 L 224 289 Q 240 325 240 364 Q 240 412 217 454 L 192 500 L 192 500 Q 185 512 171 512 L 85 512 L 85 512 Q 71 512 64 500 L 39 454 L 39 454 Q 16 412 16 364 Q 16 325 32 289 L 63 218 L 63 218 Q 72 197 72 173 L 72 168 L 72 168 Q 72 154 69 141 L 59 103 L 59 103 Q 56 90 56 76 L 56 72 L 56 72 Z M 384 32 Q 367 32 356 44 L 356 44 L 356 44 Q 344 55 344 72 L 344 76 L 344 76 Q 344 86 346 95 L 356 133 L 356 133 Q 359 146 360 160 L 408 160 L 408 160 Q 409 146 412 133 L 422 95 L 422 95 Q 424 86 424 76 L 424 72 L 424 72 Q 424 55 412 44 Q 401 32 384 32 L 384 32 Z M 348 231 L 317 301 L 348 231 L 317 301 Q 304 331 304 364 Q 304 404 323 439 L 346 480 L 346 480 L 423 480 L 423 480 L 445 439 L 445 439 Q 464 404 464 364 Q 464 331 451 301 L 420 231 L 420 231 Q 412 212 409 192 L 359 192 L 359 192 Q 356 212 348 231 L 348 231 Z M 312 72 Q 313 41 333 21 L 333 21 L 333 21 Q 353 1 384 0 Q 415 1 435 21 Q 455 41 456 72 L 456 76 L 456 76 Q 456 90 453 103 L 443 141 L 443 141 Q 440 154 440 168 L 440 173 L 440 173 Q 440 197 449 218 L 480 289 L 480 289 Q 496 325 496 364 Q 496 412 473 454 L 448 500 L 448 500 Q 441 512 427 512 L 341 512 L 341 512 Q 327 512 320 500 L 295 454 L 295 454 Q 272 412 272 364 Q 272 325 288 289 L 319 218 L 319 218 Q 328 197 328 173 L 328 168 L 328 168 Q 328 154 325 141 L 315 103 L 315 103 Q 312 90 312 76 L 312 72 L 312 72 Z" />
</svg>