<svg xmlns="http://www.w3.org/2000/svg" viewBox="0 0 576 477">
    <path d="M 244 96 L 232 82 L 228 77 Q 208 55 181 46 Q 153 37 124 42 Q 83 50 58 80 Q 33 110 32 152 L 32 155 Q 33 206 69 241 L 253 412 Q 254 413 256 413 Q 258 413 259 412 L 270 402 Q 276 417 286 431 L 281 435 Q 279 436 278 437 Q 268 445 256 445 Q 242 445 231 435 L 47 264 Q 42 259 37 253 Q 1 211 0 155 L 0 152 Q 1 99 33 60 Q 66 21 118 10 Q 182 0 233 39 Q 243 46 252 56 L 256 61 L 260 56 Q 266 49 273 43 Q 275 42 276 41 Q 277 40 279 39 Q 330 0 394 10 Q 446 21 479 60 Q 511 99 512 152 L 512 155 Q 512 166 511 176 Q 496 168 480 164 Q 480 159 480 155 L 480 152 Q 479 110 454 80 Q 429 50 388 42 Q 359 37 331 46 Q 304 55 284 77 L 280 82 L 268 96 Q 263 101 256 101 Q 249 101 244 96 L 244 96 Z M 432 445 Q 462 445 488 430 L 488 430 Q 514 415 529 389 Q 544 363 544 333 Q 544 303 529 277 Q 514 251 488 236 Q 462 221 432 221 Q 402 221 376 236 Q 350 251 335 277 Q 320 303 320 333 Q 320 363 335 389 Q 350 415 376 430 Q 402 445 432 445 L 432 445 Z M 432 189 Q 471 189 504 208 L 504 208 Q 537 227 557 261 Q 576 295 576 333 Q 576 371 557 405 Q 537 439 504 458 Q 471 477 432 477 Q 393 477 360 458 Q 327 439 307 405 Q 288 371 288 333 Q 288 295 307 261 Q 327 227 360 208 Q 393 189 432 189 L 432 189 Z M 499 290 Q 509 301 499 312 L 427 384 Q 416 394 405 384 L 365 344 Q 355 333 365 322 Q 376 312 387 322 L 416 350 L 477 290 Q 488 280 499 290 L 499 290 Z"/>
</svg>
