<svg xmlns="http://www.w3.org/2000/svg" viewBox="0 0 512 512">
  <path d="M 265.61093 37.569965 Q 256 30.580204 246.38908 37.569965 L 8.737202 247.2628 L 8.737202 247.2628 Q 0 256.87372 7.863481 267.35837 Q 17.474403 276.09555 27.959044 268.2321 L 60.28669 239.39932 L 60.28669 239.39932 L 60.28669 411.5222 L 60.28669 411.5222 Q 61.160408 441.22867 80.382256 461.32422 Q 100.47781 480.54608 130.1843 481.4198 L 381.8157 481.4198 L 381.8157 481.4198 Q 411.5222 480.54608 431.61774 461.32422 Q 450.8396 441.22867 451.71332 411.5222 L 451.71332 239.39932 L 451.71332 239.39932 L 484.04095 268.2321 L 484.04095 268.2321 Q 494.5256 276.09555 504.1365 267.35837 Q 512 256.87372 503.2628 247.2628 L 451.71332 201.82935 L 451.71332 201.82935 L 451.71332 83.00341 L 451.71332 83.00341 Q 449.96588 63.78157 430.74402 62.03413 L 360.8464 62.03413 L 360.8464 62.03413 Q 341.62457 63.78157 339.87714 83.00341 L 339.87714 103.098976 L 339.87714 103.098976 L 265.61093 37.569965 L 265.61093 37.569965 Z M 367.83618 128.43686 L 367.83618 89.99317 L 367.83618 128.43686 L 367.83618 89.99317 L 423.75427 89.99317 L 423.75427 89.99317 L 423.75427 177.36519 L 423.75427 177.36519 L 367.83618 128.43686 L 367.83618 128.43686 Z M 88.245735 411.5222 L 88.245735 214.93515 L 88.245735 411.5222 L 88.245735 214.93515 L 256 66.40273 L 256 66.40273 L 423.75427 214.93515 L 423.75427 214.93515 L 423.75427 411.5222 L 423.75427 411.5222 Q 422.88055 428.99658 411.5222 441.22867 Q 399.2901 452.58704 381.8157 453.46075 L 130.1843 453.46075 L 130.1843 453.46075 Q 112.7099 452.58704 100.47781 441.22867 Q 89.11945 428.99658 88.245735 411.5222 L 88.245735 411.5222 Z M 228.04095 229.78839 Q 228.04095 217.55632 235.90443 209.69283 L 235.90443 209.69283 L 235.90443 209.69283 Q 243.76791 201.82935 256 201.82935 Q 268.2321 201.82935 276.09555 209.69283 Q 283.95905 217.55632 283.95905 229.78839 Q 283.95905 242.02048 276.09555 249.88396 Q 268.2321 257.74744 256 257.74744 Q 243.76791 257.74744 235.90443 249.88396 Q 228.04095 242.02048 228.04095 229.78839 L 228.04095 229.78839 Z M 311.9181 229.78839 Q 311.04437 198.33447 283.95905 181.7338 Q 256 166.00682 228.04095 181.7338 Q 200.95563 198.33447 200.08191 229.78839 Q 200.95563 261.2423 228.04095 277.84302 Q 256 293.56998 283.95905 277.84302 Q 311.04437 261.2423 311.9181 229.78839 L 311.9181 229.78839 Z M 221.0512 341.62457 L 290.9488 341.62457 L 221.0512 341.62457 L 290.9488 341.62457 Q 305.80206 341.62457 315.41296 352.10922 Q 325.8976 361.72012 325.8976 376.57336 L 325.8976 383.56314 L 325.8976 383.56314 Q 326.77133 396.66895 339.87714 397.54266 Q 352.98294 396.66895 353.85666 383.56314 L 353.85666 376.57336 L 353.85666 376.57336 Q 352.98294 349.48807 335.50854 332.01364 Q 318.03412 314.53925 290.9488 313.66553 L 221.0512 313.66553 L 221.0512 313.66553 Q 193.96587 314.53925 176.49147 332.01364 Q 159.01706 349.48807 158.14334 376.57336 L 158.14334 383.56314 L 158.14334 383.56314 Q 159.01706 396.66895 172.12286 397.54266 Q 185.22867 396.66895 186.10239 383.56314 L 186.10239 376.57336 L 186.10239 376.57336 Q 186.10239 361.72012 196.58704 352.10922 Q 206.19795 341.62457 221.0512 341.62457 L 221.0512 341.62457 Z" />
</svg>