<svg xmlns="http://www.w3.org/2000/svg" viewBox="0 0 516 516">
    <path d="M 100 112 Q 101 78 123 55 L 123 55 Q 146 33 180 32 Q 204 32 224 45 Q 243 58 253 78 Q 256 86 264 87 Q 273 89 279 83 Q 297 65 324 64 Q 351 65 369 83 Q 387 101 388 128 L 388 128 Q 388 135 393 140 Q 398 145 405 144 Q 409 144 412 144 Q 443 145 463 165 Q 483 185 484 216 Q 483 246 463 267 Q 443 287 412 288 L 108 288 Q 77 287 57 267 Q 37 246 36 216 Q 36 190 51 171 Q 66 153 90 146 Q 103 141 102 127 Q 100 120 100 112 L 100 112 Z M 516 216 Q 515 174 488 145 L 488 145 Q 460 116 419 112 Q 412 77 386 55 Q 360 33 324 32 Q 295 32 272 48 Q 239 2 180 0 Q 132 1 101 33 Q 69 64 68 112 Q 68 116 68 120 Q 40 132 22 158 Q 4 183 4 216 Q 5 260 34 290 Q 64 319 108 320 L 412 320 Q 456 319 486 290 Q 515 260 516 216 L 516 216 Z M 98 375 Q 104 362 91 354 Q 77 348 70 361 L 6 489 Q 0 503 13 510 Q 26 516 34 503 L 98 375 L 98 375 Z M 218 375 Q 224 362 211 354 Q 197 348 190 361 L 126 489 Q 120 503 133 510 Q 146 516 154 503 L 218 375 L 218 375 Z M 330 375 Q 336 362 323 354 Q 309 348 302 361 L 238 489 Q 232 503 245 510 Q 258 516 266 503 L 330 375 L 330 375 Z M 450 375 Q 456 362 443 354 Q 429 348 422 361 L 358 489 Q 352 503 365 510 Q 378 516 386 503 L 450 375 L 450 375 Z"/>
</svg>
