<svg xmlns="http://www.w3.org/2000/svg" viewBox="0 0 512 512">
  <path d="M 128 448 L 128 352 L 128 448 L 128 352 L 128 272 L 128 272 L 384 272 L 384 272 L 384 352 L 384 352 L 384 448 L 384 448 L 128 448 L 128 448 Z M 384 240 L 128 240 L 384 240 L 128 240 L 128 160 L 128 160 L 128 64 L 128 64 L 384 64 L 384 64 L 384 160 L 384 160 L 384 240 L 384 240 Z M 96 448 L 64 448 L 96 448 L 64 448 Q 50 448 41 439 Q 32 430 32 416 L 32 368 L 32 368 L 96 368 L 96 368 L 96 448 L 96 448 Z M 32 272 L 96 272 L 32 272 L 96 272 L 96 336 L 96 336 L 32 336 L 32 336 L 32 272 L 32 272 Z M 96 176 L 96 240 L 96 176 L 96 240 L 32 240 L 32 240 L 32 176 L 32 176 L 96 176 L 96 176 Z M 96 64 L 96 144 L 96 64 L 96 144 L 32 144 L 32 144 L 32 96 L 32 96 Q 32 82 41 73 Q 50 64 64 64 L 96 64 L 96 64 Z M 416 336 L 416 272 L 416 336 L 416 272 L 480 272 L 480 272 L 480 336 L 480 336 L 416 336 L 416 336 Z M 416 448 L 416 368 L 416 448 L 416 368 L 480 368 L 480 368 L 480 416 L 480 416 Q 480 430 471 439 Q 462 448 448 448 L 416 448 L 416 448 Z M 416 176 L 480 176 L 416 176 L 480 176 L 480 240 L 480 240 L 416 240 L 416 240 L 416 176 L 416 176 Z M 480 96 L 480 144 L 480 96 L 480 144 L 416 144 L 416 144 L 416 64 L 416 64 L 448 64 L 448 64 Q 462 64 471 73 Q 480 82 480 96 L 480 96 Z M 448 32 L 64 32 L 448 32 L 64 32 Q 37 33 19 51 Q 1 69 0 96 L 0 416 L 0 416 Q 1 443 19 461 Q 37 479 64 480 L 448 480 L 448 480 Q 475 479 493 461 Q 511 443 512 416 L 512 96 L 512 96 Q 511 69 493 51 Q 475 33 448 32 L 448 32 Z" />
</svg>