<svg xmlns="http://www.w3.org/2000/svg" viewBox="0 0 512 512">
  <path d="M 478 288 L 439 288 L 478 288 L 439 288 Q 430 288 422 282 L 406 269 L 406 269 Q 399 262 405 253 Q 415 239 408 224 Q 401 209 383 208 L 379 208 L 379 208 Q 369 207 368 197 L 368 187 L 368 187 Q 367 173 355 168 Q 344 163 333 173 L 301 205 L 301 205 Q 296 209 291 205 L 289 202 L 289 202 Q 279 192 265 192 Q 248 193 238 205 L 227 220 L 227 220 Q 224 224 219 224 Q 209 223 208 213 L 208 212 L 208 212 Q 208 207 212 203 L 230 184 L 230 184 Q 240 175 240 161 Q 240 154 246 151 L 306 121 L 306 121 Q 321 113 325 97 Q 329 82 320 67 Q 304 46 280 52 L 284 34 L 284 34 Q 369 46 423 107 Q 478 168 480 256 Q 480 272 478 288 L 478 288 Z M 471 320 Q 466 337 458 352 L 439 352 L 439 352 Q 423 352 411 341 L 407 337 L 407 337 Q 391 320 367 320 Q 358 320 351 314 L 324 291 L 324 291 Q 302 272 272 272 L 251 272 L 251 272 Q 227 272 207 285 L 180 304 L 180 304 Q 145 328 144 370 L 144 373 L 144 373 Q 144 406 167 430 L 183 446 L 183 446 Q 202 464 227 464 Q 245 465 253 480 Q 191 478 141 448 Q 91 418 62 368 Q 33 318 32 256 Q 34 162 96 99 Q 158 36 252 32 L 245 60 L 245 60 Q 242 75 253 84 Q 264 93 278 87 L 286 83 L 286 83 Q 290 81 293 85 Q 296 90 291 93 L 232 122 L 232 122 Q 209 135 208 161 Q 208 161 208 162 L 189 180 L 189 180 Q 176 193 176 212 L 176 213 L 176 213 Q 176 231 189 244 Q 201 256 219 256 Q 240 256 253 239 L 264 225 L 264 225 Q 264 224 265 224 Q 265 224 266 224 L 269 227 L 269 227 Q 281 239 296 239 Q 311 239 323 227 L 339 212 L 339 212 Q 349 236 376 240 Q 369 253 371 268 Q 374 283 386 293 L 402 306 L 402 306 Q 418 320 439 320 L 471 320 L 471 320 Z M 440 384 Q 413 422 374 447 L 374 447 L 374 447 Q 334 471 286 478 Q 281 458 264 445 Q 248 432 227 432 Q 215 432 206 423 L 190 407 L 190 407 Q 176 393 176 374 L 176 370 L 176 370 Q 177 345 197 330 L 225 312 L 225 312 Q 237 304 251 304 L 272 304 L 272 304 Q 290 304 303 316 L 330 338 L 330 338 Q 346 352 367 352 Q 377 352 385 359 L 389 363 L 389 363 Q 409 384 438 384 L 440 384 L 440 384 Z M 256 512 Q 326 511 384 478 L 384 478 L 384 478 Q 442 444 478 384 Q 512 323 512 256 Q 512 189 478 128 Q 442 68 384 34 Q 326 1 256 0 Q 186 1 128 34 Q 70 68 34 128 Q 0 189 0 256 Q 0 323 34 384 Q 70 444 128 478 Q 186 511 256 512 L 256 512 Z M 187 101 Q 176 91 165 101 L 133 133 L 133 133 Q 123 144 133 155 Q 144 165 155 155 L 187 123 L 187 123 Q 197 112 187 101 L 187 101 Z" />
</svg>