<svg xmlns="http://www.w3.org/2000/svg" viewBox="0 0 512 512">
  <path d="M 151.57894736842104 98.10526315789474 Q 151.57894736842104 86.3157894736842 144 78.73684210526316 L 144 78.73684210526316 L 144 78.73684210526316 Q 136.42105263157896 71.15789473684211 124.63157894736842 71.15789473684211 Q 112.84210526315789 71.15789473684211 105.26315789473684 78.73684210526316 Q 97.6842105263158 86.3157894736842 97.6842105263158 98.10526315789474 Q 97.6842105263158 109.89473684210526 105.26315789473684 117.47368421052632 Q 112.84210526315789 125.05263157894737 124.63157894736842 125.05263157894737 Q 136.42105263157896 125.05263157894737 144 117.47368421052632 Q 151.57894736842104 109.89473684210526 151.57894736842104 98.10526315789474 L 151.57894736842104 98.10526315789474 Z M 70.73684210526316 98.10526315789474 Q 71.57894736842105 67.78947368421052 97.6842105263158 51.78947368421053 Q 124.63157894736842 36.63157894736842 151.57894736842104 51.78947368421053 Q 177.68421052631578 67.78947368421052 178.52631578947367 98.10526315789474 Q 177.68421052631578 128.42105263157896 151.57894736842104 144.42105263157896 Q 124.63157894736842 159.57894736842104 97.6842105263158 144.42105263157896 Q 71.57894736842105 128.42105263157896 70.73684210526316 98.10526315789474 L 70.73684210526316 98.10526315789474 Z M 421.05263157894734 98.10526315789474 Q 421.05263157894734 86.3157894736842 413.4736842105263 78.73684210526316 L 413.4736842105263 78.73684210526316 L 413.4736842105263 78.73684210526316 Q 405.89473684210526 71.15789473684211 394.10526315789474 71.15789473684211 Q 382.3157894736842 71.15789473684211 374.7368421052632 78.73684210526316 Q 367.1578947368421 86.3157894736842 367.1578947368421 98.10526315789474 Q 367.1578947368421 109.89473684210526 374.7368421052632 117.47368421052632 Q 382.3157894736842 125.05263157894737 394.10526315789474 125.05263157894737 Q 405.89473684210526 125.05263157894737 413.4736842105263 117.47368421052632 Q 421.05263157894734 109.89473684210526 421.05263157894734 98.10526315789474 L 421.05263157894734 98.10526315789474 Z M 340.2105263157895 98.10526315789474 Q 341.05263157894734 67.78947368421052 367.1578947368421 51.78947368421053 Q 394.10526315789474 36.63157894736842 421.05263157894734 51.78947368421053 Q 447.1578947368421 67.78947368421052 448 98.10526315789474 Q 447.1578947368421 128.42105263157896 421.05263157894734 144.42105263157896 Q 394.10526315789474 159.57894736842104 367.1578947368421 144.42105263157896 Q 341.05263157894734 128.42105263157896 340.2105263157895 98.10526315789474 L 340.2105263157895 98.10526315789474 Z M 394.10526315789474 205.89473684210526 Q 378.94736842105266 205.89473684210526 367.1578947368421 214.31578947368422 L 367.1578947368421 340.63157894736844 L 367.1578947368421 340.63157894736844 L 421.05263157894734 340.63157894736844 L 421.05263157894734 340.63157894736844 L 421.05263157894734 214.31578947368422 L 421.05263157894734 214.31578947368422 Q 409.2631578947368 205.89473684210526 394.10526315789474 205.89473684210526 L 394.10526315789474 205.89473684210526 Z M 367.1578947368421 461.89473684210526 Q 366.3157894736842 474.5263157894737 353.6842105263158 475.36842105263156 Q 341.05263157894734 474.5263157894737 340.2105263157895 461.89473684210526 L 340.2105263157895 248.8421052631579 L 340.2105263157895 248.8421052631579 L 304.8421052631579 306.94736842105266 L 304.8421052631579 306.94736842105266 Q 297.2631578947368 317.05263157894734 286.3157894736842 312 Q 276.2105263157895 304.42105263157896 281.2631578947368 293.4736842105263 L 329.2631578947368 215.1578947368421 L 329.2631578947368 215.1578947368421 Q 352 179.78947368421052 394.10526315789474 178.94736842105263 Q 436.2105263157895 179.78947368421052 458.94736842105266 215.1578947368421 L 506.94736842105266 293.4736842105263 L 506.94736842105266 293.4736842105263 Q 512 304.42105263157896 501.89473684210526 312 Q 490.94736842105266 317.05263157894734 483.36842105263156 306.94736842105266 L 448 248.8421052631579 L 448 248.8421052631579 L 448 461.89473684210526 L 448 461.89473684210526 Q 447.1578947368421 474.5263157894737 434.5263157894737 475.36842105263156 Q 421.89473684210526 474.5263157894737 421.05263157894734 461.89473684210526 L 421.05263157894734 367.57894736842104 L 421.05263157894734 367.57894736842104 L 367.1578947368421 367.57894736842104 L 367.1578947368421 367.57894736842104 L 367.1578947368421 461.89473684210526 L 367.1578947368421 461.89473684210526 Z M 70.73684210526316 381.05263157894734 L 50.526315789473685 381.05263157894734 L 70.73684210526316 381.05263157894734 L 50.526315789473685 381.05263157894734 Q 43.78947368421053 381.05263157894734 39.578947368421055 376 Q 36.21052631578947 370.10526315789474 37.89473684210526 364.2105263157895 L 69.89473684210526 245.47368421052633 L 69.89473684210526 245.47368421052633 L 27.789473684210527 307.7894736842105 L 27.789473684210527 307.7894736842105 Q 20.210526315789473 317.05263157894734 9.263157894736842 311.1578947368421 Q 0 303.57894736842104 5.894736842105263 292.63157894736844 L 57.26315789473684 215.1578947368421 L 57.26315789473684 215.1578947368421 Q 80 182.31578947368422 119.57894736842105 178.94736842105263 Q 121.26315789473684 178.94736842105263 123.78947368421052 178.94736842105263 L 124.63157894736842 178.94736842105263 L 125.47368421052632 178.94736842105263 Q 127.15789473684211 178.94736842105263 128.8421052631579 178.94736842105263 Q 129.68421052631578 178.94736842105263 129.68421052631578 178.94736842105263 Q 169.26315789473685 182.31578947368422 192 215.1578947368421 L 243.3684210526316 292.63157894736844 L 243.3684210526316 292.63157894736844 Q 249.26315789473685 303.57894736842104 240 311.1578947368421 Q 229.05263157894737 317.05263157894734 221.47368421052633 307.7894736842105 L 179.3684210526316 245.47368421052633 L 179.3684210526316 245.47368421052633 L 211.3684210526316 364.2105263157895 L 211.3684210526316 364.2105263157895 Q 213.05263157894737 370.10526315789474 209.68421052631578 376 Q 205.47368421052633 381.05263157894734 198.73684210526315 381.05263157894734 L 178.52631578947367 381.05263157894734 L 178.52631578947367 381.05263157894734 L 178.52631578947367 461.89473684210526 L 178.52631578947367 461.89473684210526 Q 177.68421052631578 474.5263157894737 165.05263157894737 475.36842105263156 Q 152.42105263157896 474.5263157894737 151.57894736842104 461.89473684210526 L 151.57894736842104 381.05263157894734 L 151.57894736842104 381.05263157894734 L 97.6842105263158 381.05263157894734 L 97.6842105263158 381.05263157894734 L 97.6842105263158 461.89473684210526 L 97.6842105263158 461.89473684210526 Q 96.84210526315789 474.5263157894737 84.21052631578948 475.36842105263156 Q 71.57894736842105 474.5263157894737 70.73684210526316 461.89473684210526 L 70.73684210526316 381.05263157894734 L 70.73684210526316 381.05263157894734 Z M 122.10526315789474 205.89473684210526 Q 107.78947368421052 207.57894736842104 103.57894736842105 221.05263157894737 L 68.21052631578948 354.10526315789474 L 68.21052631578948 354.10526315789474 L 181.05263157894737 354.10526315789474 L 181.05263157894737 354.10526315789474 L 145.68421052631578 221.05263157894737 L 145.68421052631578 221.05263157894737 Q 141.47368421052633 207.57894736842104 127.15789473684211 205.89473684210526 Q 126.3157894736842 205.89473684210526 124.63157894736842 205.89473684210526 Q 122.94736842105263 205.89473684210526 121.26315789473684 205.89473684210526 L 122.10526315789474 205.89473684210526 Z" />
</svg>