<svg xmlns="http://www.w3.org/2000/svg" viewBox="0 0 512 512">
  <path d="M 257.95047 33.158096 Q 296.96 61.44 301.83618 111.17714 L 301.83618 111.17714 L 301.83618 111.17714 Q 305.73715 161.88953 279.4057 211.62666 L 278.43048 212.6019 L 278.43048 212.6019 L 278.43048 213.57715 L 278.43048 213.57715 Q 277.45523 214.55238 278.43048 215.52762 Q 278.43048 215.52762 278.43048 215.52762 Q 278.43048 215.52762 278.43048 215.52762 Q 278.43048 215.52762 279.4057 215.52762 Q 279.4057 215.52762 279.4057 215.52762 Q 279.4057 215.52762 279.4057 215.52762 Q 279.4057 215.52762 279.4057 215.52762 Q 279.4057 215.52762 279.4057 215.52762 L 280.38095 214.55238 L 280.38095 214.55238 L 280.38095 214.55238 L 280.38095 214.55238 Q 317.44 170.66667 364.25143 157.01334 Q 412.0381 144.33524 452.02286 170.66667 Q 498.8343 206.75047 505.66095 264.28952 Q 511.5124 321.82858 477.37906 375.46667 L 477.37906 375.46667 L 477.37906 375.46667 Q 435.44382 435.93143 371.0781 472.01523 Q 307.68762 508.09906 237.47047 510.04953 Q 167.25333 512 105.81333 469.08954 L 114.59048 456.41144 L 114.59048 456.41144 L 105.81333 469.08954 L 105.81333 469.08954 Q 105.81333 469.08954 105.81333 469.08954 Q 105.81333 469.08954 105.81333 469.08954 Q 46.32381 425.2038 22.918095 357.91238 Q 0.48761904 289.64572 10.24 216.50285 Q 20.967619 143.36 61.92762 81.92 Q 61.92762 81.92 61.92762 81.92 Q 61.92762 81.92 61.92762 81.92 L 74.60571 90.69714 L 74.60571 90.69714 L 61.92762 81.92 L 61.92762 81.92 Q 61.92762 81.92 61.92762 81.92 Q 61.92762 81.92 61.92762 81.92 Q 98.01143 30.232382 153.6 15.603809 Q 209.18857 0 257.95047 33.158096 L 257.95047 33.158096 Z M 240.3962 58.514286 Q 204.31238 34.133335 161.4019 44.860954 L 161.4019 44.860954 L 161.4019 44.860954 Q 118.49143 55.58857 88.25905 99.47429 L 88.25905 99.47429 L 88.25905 99.47429 Q 50.224762 156.0381 41.44762 221.37904 Q 32.670475 287.69525 53.150475 347.18475 Q 73.63048 406.6743 124.34286 443.73334 L 124.34286 443.73334 L 124.34286 443.73334 Q 176.03047 479.81714 237.47047 478.84192 Q 298.91046 477.86667 356.44952 445.6838 Q 413.01334 413.50095 452.02286 357.91238 Q 480.30475 313.05142 474.45334 268.1905 Q 469.57715 222.35428 434.46857 196.02286 L 434.46857 196.02286 L 434.46857 196.02286 Q 409.11237 178.46857 373.02856 187.24571 Q 336.94476 196.02286 305.73715 234.05714 Q 296.96 244.78476 284.2819 246.73524 Q 271.60382 248.68571 260.8762 240.8838 Q 249.17334 233.08191 247.22285 220.40381 Q 245.27238 207.72571 252.09904 196.02286 Q 275.50476 152.13715 270.62857 114.10286 Q 265.75238 77.04381 240.3962 58.514286 L 240.3962 58.514286 L 240.3962 58.514286 L 240.3962 58.514286 L 240.3962 58.514286 Z" />
</svg>