<svg xmlns="http://www.w3.org/2000/svg" viewBox="0 0 512 512">
  <path d="M 420.2985 162.66098 Q 388.63965 161.56929 371.1727 134.27719 Q 355.88913 105.89339 371.1727 77.5096 Q 388.63965 50.217484 420.2985 49.1258 Q 451.95737 50.217484 469.42432 77.5096 Q 484.7079 105.89339 469.42432 134.27719 Q 451.95737 161.56929 420.2985 162.66098 L 420.2985 162.66098 Z M 328.59702 105.89339 Q 329.6887 145.19403 355.88913 170.30276 L 355.88913 170.30276 L 355.88913 170.30276 Q 380.99786 196.5032 420.2985 197.59488 Q 420.2985 197.59488 421.3902 197.59488 Q 421.3902 197.59488 421.3902 197.59488 L 394.09808 230.34541 L 394.09808 230.34541 Q 384.27292 243.44563 396.28146 254.36247 Q 409.38165 264.18762 420.2985 253.27078 L 489.07462 173.57782 L 489.07462 173.57782 Q 512 146.28572 512 110.260124 L 512 110.260124 L 512 110.260124 Q 512 108.07676 512 105.89339 Q 510.90833 66.59275 484.7079 41.48401 Q 459.59915 15.283582 420.2985 14.191897 Q 380.99786 15.283582 355.88913 41.48401 Q 329.6887 66.59275 328.59702 105.89339 L 328.59702 105.89339 Z M 139.73561 19.65032 Q 127.72708 8.733476 115.71855 19.65032 L 10.916844 124.45203 L 10.916844 124.45203 Q 0 136.46056 10.916844 148.46909 Q 22.925373 159.38593 34.933903 148.46909 L 110.260124 74.23454 L 110.260124 74.23454 L 110.260124 485.79956 L 110.260124 485.79956 Q 111.351814 502.17484 127.72708 503.2665 Q 144.10234 502.17484 145.19403 485.79956 L 145.19403 74.23454 L 145.19403 74.23454 L 220.52025 148.46909 L 220.52025 148.46909 Q 232.52878 159.38593 244.53731 148.46909 Q 255.45416 136.46056 244.53731 124.45203 L 139.73561 19.65032 L 139.73561 19.65032 Z M 442.1322 311.13007 Q 442.1322 302.39658 434.49042 296.93817 Q 427.9403 291.47974 419.20682 294.7548 L 366.80597 312.22174 L 366.80597 312.22174 Q 352.61407 318.77185 355.88913 334.05545 Q 362.43924 348.24734 377.7228 344.9723 L 407.1983 335.14713 L 407.1983 335.14713 L 407.1983 468.3326 L 407.1983 468.3326 L 372.2644 468.3326 L 372.2644 468.3326 Q 355.88913 469.42432 354.79745 485.79956 Q 355.88913 502.17484 372.2644 503.2665 L 424.66525 503.2665 L 477.0661 503.2665 Q 493.44138 502.17484 494.53305 485.79956 Q 493.44138 469.42432 477.0661 468.3326 L 442.1322 468.3326 L 442.1322 468.3326 L 442.1322 311.13007 L 442.1322 311.13007 Z" />
</svg>