<svg xmlns="http://www.w3.org/2000/svg" viewBox="0 0 388 512">
    <path d="M 122 35 L 110 191 Q 108 207 96 215 Q 54 244 40 295 L 34 320 L 178 320 L 178 224 Q 179 209 194 208 Q 209 209 210 224 L 210 320 L 354 320 L 348 295 Q 334 244 292 215 Q 280 207 278 191 L 266 35 Q 266 33 266 32 L 122 32 Q 122 33 122 35 L 122 35 Z M 178 352 L 34 352 Q 18 352 9 340 Q 0 327 3 312 L 9 287 Q 26 224 78 189 L 88 64 L 90 32 L 66 32 Q 62 32 58 30 Q 50 25 50 16 Q 51 1 66 0 L 90 0 L 298 0 L 322 0 Q 337 1 338 16 Q 338 25 330 30 Q 326 32 322 32 L 298 32 L 301 64 L 310 189 Q 362 224 379 287 L 385 312 Q 388 327 379 340 Q 369 352 354 352 L 210 352 L 210 496 Q 209 511 194 512 Q 179 511 178 496 L 178 352 L 178 352 Z"/>
</svg>
