<svg xmlns="http://www.w3.org/2000/svg" viewBox="0 0 512 512">
  <path d="M 438.85715 36.57143 Q 454.85715 36.57143 465.14285 46.857143 L 465.14285 46.857143 L 465.14285 46.857143 Q 475.42856 57.142857 475.42856 73.14286 L 475.42856 438.85715 L 475.42856 438.85715 Q 475.42856 454.85715 465.14285 465.14285 Q 454.85715 475.42856 438.85715 475.42856 L 73.14286 475.42856 L 73.14286 475.42856 Q 57.142857 475.42856 46.857143 465.14285 Q 36.57143 454.85715 36.57143 438.85715 L 36.57143 73.14286 L 36.57143 73.14286 Q 36.57143 57.142857 46.857143 46.857143 Q 57.142857 36.57143 73.14286 36.57143 L 438.85715 36.57143 L 438.85715 36.57143 Z M 73.14286 0 Q 42.285713 1.1428572 21.714285 21.714285 L 21.714285 21.714285 L 21.714285 21.714285 Q 1.1428572 42.285713 0 73.14286 L 0 438.85715 L 0 438.85715 Q 1.1428572 469.7143 21.714285 490.2857 Q 42.285713 510.85715 73.14286 512 L 438.85715 512 L 438.85715 512 Q 469.7143 510.85715 490.2857 490.2857 Q 510.85715 469.7143 512 438.85715 L 512 73.14286 L 512 73.14286 Q 510.85715 42.285713 490.2857 21.714285 Q 469.7143 1.1428572 438.85715 0 L 73.14286 0 L 73.14286 0 Z M 256 292.57144 Q 214.85715 291.42856 193.14285 256 Q 172.57143 219.42857 193.14285 182.85715 Q 214.85715 147.42857 256 146.28572 Q 297.14285 147.42857 318.85715 182.85715 Q 339.42856 219.42857 318.85715 256 Q 297.14285 291.42856 256 292.57144 L 256 292.57144 Z M 251.42857 329.14285 L 206.85715 370.2857 L 251.42857 329.14285 L 206.85715 370.2857 Q 195.42857 382.85715 205.71428 396.57144 Q 218.28572 408 232 397.7143 L 326.85715 309.7143 L 326.85715 309.7143 Q 364.57144 272 365.7143 219.42857 Q 364.57144 172.57143 333.7143 141.71428 Q 302.85715 110.85714 256 109.71429 Q 209.14285 110.85714 178.28572 141.71428 Q 147.42857 172.57143 146.28572 219.42857 Q 147.42857 265.14285 177.14285 296 Q 206.85715 325.7143 251.42857 329.14285 L 251.42857 329.14285 Z" />
</svg>