<svg xmlns="http://www.w3.org/2000/svg" viewBox="0 0 512 512">
  <path d="M 236.47010309278352 383.2082474226804 L 135.1257731958763 484.5525773195876 L 236.47010309278352 383.2082474226804 L 135.1257731958763 484.5525773195876 Q 123.51340206185567 495.10927835051547 111.90103092783505 484.5525773195876 L 10.556701030927835 383.2082474226804 L 10.556701030927835 383.2082474226804 Q 0 371.5958762886598 10.556701030927835 359.98350515463915 Q 22.169072164948453 349.42680412371135 33.78144329896907 359.98350515463915 L 106.62268041237114 431.76907216494845 L 106.62268041237114 431.76907216494845 L 106.62268041237114 33.78144329896907 L 106.62268041237114 33.78144329896907 Q 107.67835051546392 17.94639175257732 123.51340206185567 16.890721649484536 Q 139.3484536082474 17.94639175257732 140.40412371134022 33.78144329896907 L 140.40412371134022 431.76907216494845 L 140.40412371134022 431.76907216494845 L 213.24536082474228 359.98350515463915 L 213.24536082474228 359.98350515463915 Q 224.85773195876288 349.42680412371135 236.47010309278352 359.98350515463915 Q 247.02680412371134 371.5958762886598 236.47010309278352 383.2082474226804 L 236.47010309278352 383.2082474226804 Z M 326.2020618556701 168.90721649484536 Q 327.25773195876286 184.7422680412371 343.0927835051546 185.7979381443299 L 444.43711340206187 185.7979381443299 L 444.43711340206187 185.7979381443299 Q 460.2721649484536 184.7422680412371 461.3278350515464 168.90721649484536 L 461.3278350515464 67.56288659793815 L 461.3278350515464 67.56288659793815 Q 460.2721649484536 51.72783505154639 444.43711340206187 50.672164948453606 L 343.0927835051546 50.672164948453606 L 343.0927835051546 50.672164948453606 Q 327.25773195876286 51.72783505154639 326.2020618556701 67.56288659793815 L 326.2020618556701 168.90721649484536 L 326.2020618556701 168.90721649484536 Z M 393.76494845360827 325.1463917525773 L 314.5896907216495 456.0494845360825 L 393.76494845360827 325.1463917525773 L 314.5896907216495 456.0494845360825 L 472.94020618556704 456.0494845360825 L 472.94020618556704 456.0494845360825 L 393.76494845360827 325.1463917525773 L 393.76494845360827 325.1463917525773 Z M 292.420618556701 168.90721649484536 L 292.420618556701 67.56288659793815 L 292.420618556701 168.90721649484536 L 292.420618556701 67.56288659793815 Q 293.4762886597938 46.44948453608247 307.2 31.670103092783506 Q 321.97938144329896 17.94639175257732 343.0927835051546 16.890721649484536 L 444.43711340206187 16.890721649484536 L 444.43711340206187 16.890721649484536 Q 465.5505154639175 17.94639175257732 480.3298969072165 31.670103092783506 Q 494.0536082474227 46.44948453608247 495.10927835051547 67.56288659793815 L 495.10927835051547 168.90721649484536 L 495.10927835051547 168.90721649484536 Q 494.0536082474227 190.02061855670104 480.3298969072165 204.8 Q 465.5505154639175 218.52371134020618 444.43711340206187 219.57938144329896 L 343.0927835051546 219.57938144329896 L 343.0927835051546 219.57938144329896 Q 321.97938144329896 218.52371134020618 307.2 204.8 Q 293.4762886597938 190.02061855670104 292.420618556701 168.90721649484536 L 292.420618556701 168.90721649484536 Z M 279.7525773195876 449.71546391752577 L 368.42886597938144 301.9216494845361 L 279.7525773195876 449.71546391752577 L 368.42886597938144 301.9216494845361 Q 376.87422680412374 287.1422680412371 393.76494845360827 287.1422680412371 Q 410.6556701030928 287.1422680412371 419.10103092783504 301.9216494845361 L 507.7773195876289 449.71546391752577 L 507.7773195876289 449.71546391752577 Q 512 456.0494845360825 512 463.43917525773196 Q 509.88865979381444 487.71958762886595 485.6082474226804 489.83092783505157 L 301.9216494845361 489.83092783505157 L 301.9216494845361 489.83092783505157 Q 277.64123711340204 487.71958762886595 275.5298969072165 463.43917525773196 Q 275.5298969072165 456.0494845360825 279.7525773195876 449.71546391752577 L 279.7525773195876 449.71546391752577 Z" />
</svg>