<svg xmlns="http://www.w3.org/2000/svg" viewBox="0 0 512 512">
  <path d="M 51.2 153.6 Q 40 153.6 32.8 160.8 L 32.8 160.8 L 32.8 160.8 Q 25.6 168 25.6 179.2 L 25.6 332.8 L 25.6 332.8 Q 25.6 344 32.8 351.2 Q 40 358.4 51.2 358.4 L 332.8 358.4 L 332.8 358.4 L 332.8 153.6 L 332.8 153.6 L 51.2 153.6 L 51.2 153.6 Z M 0 179.2 Q 0.8 157.6 15.2 143.2 L 15.2 143.2 L 15.2 143.2 Q 29.6 128.8 51.2 128 L 332.8 128 L 332.8 128 Q 344 128 351.2 135.2 Q 358.4 142.4 358.4 153.6 L 358.4 358.4 L 358.4 358.4 Q 358.4 369.6 351.2 376.8 Q 344 384 332.8 384 L 51.2 384 L 51.2 384 Q 29.6 383.2 15.2 368.8 Q 0.8 354.4 0 332.8 L 0 179.2 L 0 179.2 Z M 384 358.4 L 384 332.8 L 384 358.4 L 384 332.8 L 486.4 332.8 L 486.4 332.8 L 486.4 179.2 L 486.4 179.2 L 384 179.2 L 384 179.2 L 384 153.6 L 384 153.6 L 486.4 153.6 L 486.4 153.6 Q 497.6 153.6 504.8 160.8 Q 512 168 512 179.2 L 512 332.8 L 512 332.8 Q 512 344 504.8 351.2 Q 497.6 358.4 486.4 358.4 L 384 358.4 L 384 358.4 Z M 460.8 217.6 Q 460 229.6 448 230.4 Q 436 229.6 435.2 217.6 Q 436 205.6 448 204.8 Q 460 205.6 460.8 217.6 L 460.8 217.6 Z M 448 307.2 Q 436 306.4 435.2 294.4 Q 436 282.4 448 281.6 Q 460 282.4 460.8 294.4 Q 460 306.4 448 307.2 L 448 307.2 Z" />
</svg>