<svg xmlns="http://www.w3.org/2000/svg" viewBox="0 0 512 512">
  <path d="M 200 32 Q 196 32 192 34 L 129 71 L 129 71 L 256 111 L 256 111 L 383 71 L 383 71 L 320 34 L 320 34 Q 316 32 312 32 L 200 32 L 200 32 Z M 92 93 Q 91 94 90 96 L 34 192 L 34 192 Q 35 193 36 194 L 132 300 L 132 300 L 240 246 L 240 246 L 240 140 L 240 140 L 92 93 L 92 93 Z M 32 237 L 32 312 L 32 237 L 32 312 Q 32 316 34 320 L 90 416 L 90 416 Q 92 420 96 422 L 158 458 L 158 458 L 114 328 L 114 328 L 32 237 L 32 237 Z M 200 480 Q 200 480 200 480 L 200 480 L 200 480 Q 200 480 200 480 L 312 480 L 312 480 Q 313 480 314 480 L 364 328 L 364 328 L 256 274 L 256 274 L 148 328 L 148 328 L 200 480 L 200 480 Z M 355 458 L 416 422 L 355 458 L 416 422 Q 420 420 422 416 L 478 320 L 478 320 Q 480 316 480 312 L 480 237 L 480 237 L 398 328 L 398 328 L 355 458 L 355 458 Z M 478 192 L 422 96 L 478 192 L 422 96 Q 421 94 420 93 L 272 140 L 272 140 L 272 246 L 272 246 L 380 300 L 380 300 L 476 194 L 476 194 Q 477 193 478 192 Q 478 192 478 192 L 478 192 Z M 176 6 Q 187 0 200 0 L 312 0 L 312 0 Q 325 0 336 6 L 432 62 L 432 62 Q 443 69 450 80 L 506 176 L 506 176 Q 512 187 512 200 L 512 312 L 512 312 Q 512 325 506 336 L 450 432 L 450 432 Q 443 443 432 450 L 336 506 L 336 506 Q 325 512 312 512 L 200 512 L 200 512 Q 187 512 176 506 L 80 450 L 80 450 Q 69 443 62 432 L 6 336 L 6 336 Q 0 325 0 312 L 0 200 L 0 200 Q 0 187 6 176 L 62 80 L 62 80 Q 69 69 80 62 L 176 6 L 176 6 Z" />
</svg>