<svg xmlns="http://www.w3.org/2000/svg" viewBox="0 0 512 512">
  <path d="M 341.3333333333333 56.888888888888886 Q 353.77777777777777 56.888888888888886 361.77777777777777 64.88888888888889 L 361.77777777777777 64.88888888888889 L 361.77777777777777 64.88888888888889 Q 369.77777777777777 72.88888888888889 369.77777777777777 85.33333333333333 L 369.77777777777777 199.11111111111111 L 369.77777777777777 199.11111111111111 L 398.22222222222223 199.11111111111111 L 398.22222222222223 199.11111111111111 L 398.22222222222223 85.33333333333333 L 398.22222222222223 85.33333333333333 Q 397.3333333333333 61.333333333333336 381.3333333333333 45.333333333333336 Q 365.3333333333333 29.333333333333332 341.3333333333333 28.444444444444443 L 284.44444444444446 28.444444444444443 L 170.66666666666666 28.444444444444443 Q 146.66666666666666 29.333333333333332 130.66666666666666 45.333333333333336 Q 114.66666666666667 61.333333333333336 113.77777777777777 85.33333333333333 L 113.77777777777777 199.11111111111111 L 113.77777777777777 199.11111111111111 L 142.22222222222223 199.11111111111111 L 142.22222222222223 199.11111111111111 L 142.22222222222223 85.33333333333333 L 142.22222222222223 85.33333333333333 Q 142.22222222222223 72.88888888888889 150.22222222222223 64.88888888888889 Q 158.22222222222223 56.888888888888886 170.66666666666666 56.888888888888886 L 199.11111111111111 56.888888888888886 L 199.11111111111111 56.888888888888886 L 199.11111111111111 106.66666666666667 L 199.11111111111111 106.66666666666667 Q 199.11111111111111 121.77777777777777 209.77777777777777 131.55555555555554 Q 219.55555555555554 142.22222222222223 234.66666666666666 142.22222222222223 L 277.3333333333333 142.22222222222223 L 277.3333333333333 142.22222222222223 Q 292.44444444444446 142.22222222222223 302.22222222222223 131.55555555555554 Q 312.8888888888889 121.77777777777777 312.8888888888889 106.66666666666667 L 312.8888888888889 56.888888888888886 L 312.8888888888889 56.888888888888886 L 341.3333333333333 56.888888888888886 L 341.3333333333333 56.888888888888886 Z M 227.55555555555554 56.888888888888886 L 284.44444444444446 56.888888888888886 L 227.55555555555554 56.888888888888886 L 284.44444444444446 56.888888888888886 L 284.44444444444446 106.66666666666667 L 284.44444444444446 106.66666666666667 Q 283.55555555555554 112.88888888888889 277.3333333333333 113.77777777777777 L 234.66666666666666 113.77777777777777 L 234.66666666666666 113.77777777777777 Q 228.44444444444446 112.88888888888889 227.55555555555554 106.66666666666667 L 227.55555555555554 56.888888888888886 L 227.55555555555554 56.888888888888886 Z M 291.55555555555554 483.55555555555554 L 455.1111111111111 483.55555555555554 L 291.55555555555554 483.55555555555554 L 455.1111111111111 483.55555555555554 Q 479.1111111111111 482.6666666666667 495.1111111111111 466.6666666666667 Q 511.1111111111111 450.6666666666667 512 426.6666666666667 L 512 284.44444444444446 L 512 284.44444444444446 Q 511.1111111111111 260.44444444444446 495.1111111111111 244.44444444444446 Q 479.1111111111111 228.44444444444446 455.1111111111111 227.55555555555554 L 398.22222222222223 227.55555555555554 L 291.55555555555554 227.55555555555554 Q 302.22222222222223 240 308.44444444444446 256 L 312.8888888888889 256 L 312.8888888888889 256 L 312.8888888888889 284.44444444444446 L 312.8888888888889 284.44444444444446 L 312.8888888888889 284.44444444444446 L 312.8888888888889 284.44444444444446 L 312.8888888888889 305.77777777777777 L 312.8888888888889 305.77777777777777 Q 312.8888888888889 320.8888888888889 323.55555555555554 330.6666666666667 Q 333.3333333333333 341.3333333333333 348.44444444444446 341.3333333333333 L 391.1111111111111 341.3333333333333 L 391.1111111111111 341.3333333333333 Q 406.22222222222223 341.3333333333333 416 330.6666666666667 Q 426.6666666666667 320.8888888888889 426.6666666666667 305.77777777777777 L 426.6666666666667 256 L 426.6666666666667 256 L 455.1111111111111 256 L 455.1111111111111 256 Q 467.55555555555554 256 475.55555555555554 264 Q 483.55555555555554 272 483.55555555555554 284.44444444444446 L 483.55555555555554 426.6666666666667 L 483.55555555555554 426.6666666666667 Q 483.55555555555554 439.1111111111111 475.55555555555554 447.1111111111111 Q 467.55555555555554 455.1111111111111 455.1111111111111 455.1111111111111 L 308.44444444444446 455.1111111111111 L 308.44444444444446 455.1111111111111 Q 302.22222222222223 471.1111111111111 291.55555555555554 483.55555555555554 L 291.55555555555554 483.55555555555554 Z M 341.3333333333333 256 L 398.22222222222223 256 L 341.3333333333333 256 L 398.22222222222223 256 L 398.22222222222223 305.77777777777777 L 398.22222222222223 305.77777777777777 Q 397.3333333333333 312 391.1111111111111 312.8888888888889 L 348.44444444444446 312.8888888888889 L 348.44444444444446 312.8888888888889 Q 342.22222222222223 312 341.3333333333333 305.77777777777777 L 341.3333333333333 256 L 341.3333333333333 256 Z M 227.55555555555554 256 Q 240 256 248 264 L 248 264 L 248 264 Q 256 272 256 284.44444444444446 L 256 426.6666666666667 L 256 426.6666666666667 Q 256 439.1111111111111 248 447.1111111111111 Q 240 455.1111111111111 227.55555555555554 455.1111111111111 L 56.888888888888886 455.1111111111111 L 56.888888888888886 455.1111111111111 Q 44.44444444444444 455.1111111111111 36.44444444444444 447.1111111111111 Q 28.444444444444443 439.1111111111111 28.444444444444443 426.6666666666667 L 28.444444444444443 284.44444444444446 L 28.444444444444443 284.44444444444446 Q 28.444444444444443 272 36.44444444444444 264 Q 44.44444444444444 256 56.888888888888886 256 L 85.33333333333333 256 L 85.33333333333333 256 L 85.33333333333333 305.77777777777777 L 85.33333333333333 305.77777777777777 Q 85.33333333333333 320.8888888888889 96 330.6666666666667 Q 105.77777777777777 341.3333333333333 120.88888888888889 341.3333333333333 L 163.55555555555554 341.3333333333333 L 163.55555555555554 341.3333333333333 Q 178.66666666666666 341.3333333333333 188.44444444444446 330.6666666666667 Q 199.11111111111111 320.8888888888889 199.11111111111111 305.77777777777777 L 199.11111111111111 256 L 199.11111111111111 256 L 227.55555555555554 256 L 227.55555555555554 256 Z M 113.77777777777777 305.77777777777777 L 113.77777777777777 256 L 113.77777777777777 305.77777777777777 L 113.77777777777777 256 L 170.66666666666666 256 L 170.66666666666666 256 L 170.66666666666666 305.77777777777777 L 170.66666666666666 305.77777777777777 Q 169.77777777777777 312 163.55555555555554 312.8888888888889 L 120.88888888888889 312.8888888888889 L 120.88888888888889 312.8888888888889 Q 114.66666666666667 312 113.77777777777777 305.77777777777777 L 113.77777777777777 305.77777777777777 Z M 227.55555555555554 227.55555555555554 L 199.11111111111111 227.55555555555554 L 227.55555555555554 227.55555555555554 L 56.888888888888886 227.55555555555554 Q 32.888888888888886 228.44444444444446 16.88888888888889 244.44444444444446 Q 0.8888888888888888 260.44444444444446 0 284.44444444444446 L 0 426.6666666666667 L 0 426.6666666666667 Q 0.8888888888888888 450.6666666666667 16.88888888888889 466.6666666666667 Q 32.888888888888886 482.6666666666667 56.888888888888886 483.55555555555554 L 227.55555555555554 483.55555555555554 L 227.55555555555554 483.55555555555554 Q 251.55555555555554 482.6666666666667 267.55555555555554 466.6666666666667 Q 283.55555555555554 450.6666666666667 284.44444444444446 426.6666666666667 L 284.44444444444446 284.44444444444446 L 284.44444444444446 284.44444444444446 Q 283.55555555555554 260.44444444444446 267.55555555555554 244.44444444444446 Q 251.55555555555554 228.44444444444446 227.55555555555554 227.55555555555554 L 227.55555555555554 227.55555555555554 Z" />
</svg>