<svg xmlns="http://www.w3.org/2000/svg" viewBox="0 0 512 512">
  <path d="M 24.41846153846154 56.32 Q 14.966153846153846 50.80615384615385 6.3015384615384615 58.683076923076925 Q 0 68.13538461538461 8.664615384615384 76.8 L 487.58153846153846 454.89230769230767 L 487.58153846153846 454.89230769230767 Q 497.0338461538461 461.19384615384615 505.6984615384615 452.52923076923076 Q 512 443.0769230769231 503.3353846153846 435.2 L 24.41846153846154 56.32 L 24.41846153846154 56.32 Z M 366.2769230769231 406.8430769230769 L 79.55692307692307 406.8430769230769 L 366.2769230769231 406.8430769230769 L 79.55692307692307 406.8430769230769 Q 68.52923076923076 406.8430769230769 61.44 399.75384615384615 Q 54.35076923076923 392.6646153846154 54.35076923076923 381.6369230769231 L 54.35076923076923 160.29538461538462 L 54.35076923076923 160.29538461538462 L 29.144615384615385 140.6030769230769 L 29.144615384615385 140.6030769230769 L 29.144615384615385 381.6369230769231 L 29.144615384615385 381.6369230769231 Q 29.932307692307692 402.9046153846154 44.11076923076923 417.08307692307693 Q 58.28923076923077 431.26153846153846 79.55692307692307 432.04923076923075 L 397.7846153846154 432.04923076923075 L 397.7846153846154 432.04923076923075 L 366.2769230769231 406.8430769230769 L 366.2769230769231 406.8430769230769 Z M 432.44307692307694 79.16307692307693 L 114.21538461538462 79.16307692307693 L 432.44307692307694 79.16307692307693 L 114.21538461538462 79.16307692307693 L 145.72307692307692 104.36923076923077 L 145.72307692307692 104.36923076923077 L 432.44307692307694 104.36923076923077 L 432.44307692307694 104.36923076923077 Q 443.47076923076924 104.36923076923077 450.56 111.45846153846153 Q 457.64923076923077 118.5476923076923 457.64923076923077 129.57538461538462 L 457.64923076923077 350.91692307692307 L 457.64923076923077 350.91692307692307 L 482.8553846153846 370.60923076923075 L 482.8553846153846 370.60923076923075 L 482.8553846153846 129.57538461538462 L 482.8553846153846 129.57538461538462 Q 482.0676923076923 108.3076923076923 467.8892307692308 94.12923076923077 Q 453.71076923076924 79.95076923076923 432.44307692307694 79.16307692307693 L 432.44307692307694 79.16307692307693 Z M 337.1323076923077 255.60615384615386 L 369.4276923076923 280.8123076923077 L 337.1323076923077 255.60615384615386 L 369.4276923076923 280.8123076923077 L 394.63384615384615 280.8123076923077 L 394.63384615384615 280.8123076923077 Q 406.4492307692308 280.0246153846154 407.23692307692306 268.20923076923077 Q 406.4492307692308 256.39384615384614 394.63384615384615 255.60615384615386 L 337.1323076923077 255.60615384615386 L 337.1323076923077 255.60615384615386 Z M 117.36615384615385 255.60615384615386 Q 105.55076923076923 256.39384615384614 104.76307692307692 268.20923076923077 Q 105.55076923076923 280.0246153846154 117.36615384615385 280.8123076923077 L 206.3753846153846 280.8123076923077 L 206.3753846153846 280.8123076923077 L 174.8676923076923 255.60615384615386 L 174.8676923076923 255.60615384615386 L 117.36615384615385 255.60615384615386 L 117.36615384615385 255.60615384615386 Z M 243.3969230769231 331.2246153846154 Q 231.58153846153846 332.0123076923077 230.79384615384615 343.8276923076923 Q 231.58153846153846 355.64307692307693 243.3969230769231 356.4307692307692 L 302.4738461538462 356.4307692307692 L 302.4738461538462 356.4307692307692 L 270.17846153846153 331.2246153846154 L 270.17846153846153 331.2246153846154 L 243.3969230769231 331.2246153846154 L 243.3969230769231 331.2246153846154 Z M 117.36615384615385 331.2246153846154 Q 105.55076923076923 332.0123076923077 104.76307692307692 343.8276923076923 Q 105.55076923076923 355.64307692307693 117.36615384615385 356.4307692307692 L 192.98461538461538 356.4307692307692 L 192.98461538461538 356.4307692307692 Q 204.8 355.64307692307693 205.5876923076923 343.8276923076923 Q 204.8 332.0123076923077 192.98461538461538 331.2246153846154 L 117.36615384615385 331.2246153846154 L 117.36615384615385 331.2246153846154 Z" />
</svg>