<svg xmlns="http://www.w3.org/2000/svg" viewBox="0 0 512 512">
  <path d="M 233.31645569620252 350.7848101265823 L 243.0379746835443 311.8987341772152 L 233.31645569620252 350.7848101265823 L 243.0379746835443 311.8987341772152 Q 255.18987341772151 317.56962025316454 268.9620253164557 315.9493670886076 L 264.9113924050633 329.72151898734177 L 264.9113924050633 329.72151898734177 L 322.43037974683546 300.55696202531647 L 322.43037974683546 300.55696202531647 Q 332.1518987341772 296.50632911392404 338.63291139240505 304.60759493670884 L 378.32911392405066 355.6455696202532 L 378.32911392405066 355.6455696202532 L 391.2911392405063 292.45569620253167 L 391.2911392405063 292.45569620253167 Q 394.53164556962025 282.73417721518985 404.253164556962 281.9240506329114 L 469.0632911392405 283.54430379746833 L 469.0632911392405 283.54430379746833 L 427.746835443038 233.31645569620252 L 427.746835443038 233.31645569620252 Q 422.0759493670886 225.21518987341773 427.746835443038 217.1139240506329 L 469.0632911392405 166.8860759493671 L 469.0632911392405 166.8860759493671 L 404.253164556962 168.50632911392404 L 404.253164556962 168.50632911392404 Q 394.53164556962025 167.69620253164558 391.2911392405063 157.9746835443038 L 378.32911392405066 94.78481012658227 L 378.32911392405066 94.78481012658227 L 354.0253164556962 126.37974683544304 L 354.0253164556962 126.37974683544304 Q 346.73417721518985 119.0886075949367 337.82278481012656 114.22784810126582 L 332.9620253164557 111.79746835443038 L 332.9620253164557 111.79746835443038 L 375.0886075949367 56.70886075949367 L 375.0886075949367 56.70886075949367 Q 379.9493670886076 50.22784810126582 388.0506329113924 51.848101265822784 Q 396.1518987341772 54.278481012658226 397.7721518987342 61.56962025316456 L 414.7848101265823 142.58227848101265 L 414.7848101265823 142.58227848101265 L 496.60759493670884 140.9620253164557 L 496.60759493670884 140.9620253164557 Q 504.7088607594937 140.9620253164557 508.75949367088606 148.25316455696202 Q 512 155.54430379746836 507.1392405063291 162.0253164556962 L 454.4810126582278 225.21518987341773 L 454.4810126582278 225.21518987341773 L 507.1392405063291 288.40506329113924 L 507.1392405063291 288.40506329113924 Q 512 294.88607594936707 508.75949367088606 302.17721518987344 Q 504.7088607594937 309.46835443037975 496.60759493670884 309.46835443037975 L 414.7848101265823 308.65822784810126 L 414.7848101265823 308.65822784810126 L 397.7721518987342 388.8607594936709 L 397.7721518987342 388.8607594936709 Q 396.1518987341772 396.1518987341772 388.0506329113924 398.5822784810127 Q 379.9493670886076 400.2025316455696 375.0886075949367 393.72151898734177 L 324.8607594936709 328.9113924050633 L 324.8607594936709 328.9113924050633 L 251.13924050632912 366.17721518987344 L 251.13924050632912 366.17721518987344 Q 243.84810126582278 369.4177215189873 237.36708860759492 364.55696202531647 Q 231.69620253164558 358.88607594936707 233.31645569620252 350.7848101265823 L 233.31645569620252 350.7848101265823 Z M 61.56962025316456 82.63291139240506 L 29.164556962025316 147.44303797468353 L 61.56962025316456 82.63291139240506 L 29.164556962025316 147.44303797468353 L 262.4810126582278 264.1012658227848 L 262.4810126582278 264.1012658227848 L 314.32911392405066 160.40506329113924 L 314.32911392405066 160.40506329113924 L 158.78481012658227 82.63291139240506 L 158.78481012658227 82.63291139240506 L 61.56962025316456 82.63291139240506 L 61.56962025316456 82.63291139240506 Z M 38.075949367088604 71.29113924050633 Q 46.177215189873415 57.51898734177215 61.56962025316456 56.70886075949367 L 158.78481012658227 56.70886075949367 L 158.78481012658227 56.70886075949367 Q 165.26582278481013 56.70886075949367 170.126582278481 59.139240506329116 L 325.67088607594934 136.91139240506328 L 325.67088607594934 136.91139240506328 Q 335.39240506329116 142.58227848101265 338.63291139240505 152.30379746835442 Q 341.873417721519 162.0253164556962 337.82278481012656 171.74683544303798 L 285.9746835443038 275.44303797468353 L 285.9746835443038 275.44303797468353 Q 280.30379746835445 285.1645569620253 270.5822784810127 288.40506329113924 Q 260.8607594936709 291.6455696202532 251.13924050632912 287.59493670886076 L 171.74683544303798 247.8987341772152 L 171.74683544303798 247.8987341772152 L 171.74683544303798 247.8987341772152 L 171.74683544303798 247.8987341772152 L 148.25316455696202 235.74683544303798 L 148.25316455696202 235.74683544303798 L 148.25316455696202 235.74683544303798 L 148.25316455696202 235.74683544303798 L 125.56962025316456 224.40506329113924 L 125.56962025316456 224.40506329113924 L 125.56962025316456 224.40506329113924 L 125.56962025316456 224.40506329113924 L 102.07594936708861 213.0632911392405 L 102.07594936708861 213.0632911392405 L 102.07594936708861 213.0632911392405 L 102.07594936708861 213.0632911392405 L 17.82278481012658 170.9367088607595 L 17.82278481012658 170.9367088607595 Q 8.10126582278481 165.26582278481013 4.860759493670886 155.54430379746836 Q 1.620253164556962 145.8227848101266 5.670886075949367 136.1012658227848 L 38.075949367088604 71.29113924050633 L 38.075949367088604 71.29113924050633 Z M 7.291139240506329 402.63291139240505 L 90.73417721518987 235.74683544303798 L 7.291139240506329 402.63291139240505 L 90.73417721518987 235.74683544303798 L 113.41772151898734 247.8987341772152 L 113.41772151898734 247.8987341772152 L 30.78481012658228 413.9746835443038 L 30.78481012658228 413.9746835443038 Q 25.924050632911392 425.3164556962025 36.45569620253165 430.9873417721519 Q 47.79746835443038 435.8481012658228 53.46835443037975 425.3164556962025 L 136.91139240506328 259.24050632911394 L 136.91139240506328 259.24050632911394 L 160.40506329113924 270.5822784810127 L 160.40506329113924 270.5822784810127 L 76.9620253164557 437.46835443037975 L 76.9620253164557 437.46835443037975 Q 68.86075949367088 452.0506329113924 54.278481012658226 456.9113924050633 Q 39.69620253164557 461.7721518987342 25.11392405063291 454.4810126582278 Q 9.721518987341772 446.37974683544303 4.860759493670886 431.7974683544304 Q 0 417.2151898734177 7.291139240506329 402.63291139240505 L 7.291139240506329 402.63291139240505 Z" />
</svg>