<svg xmlns="http://www.w3.org/2000/svg" viewBox="0 0 512 512">
  <path d="M 256 480 Q 317 479 368 450 L 368 450 L 368 450 Q 419 420 450 368 Q 480 315 480 256 Q 480 197 450 144 Q 419 92 368 62 Q 317 33 256 32 Q 195 33 144 62 Q 93 92 62 144 Q 32 197 32 256 Q 32 315 62 368 Q 93 420 144 450 Q 195 479 256 480 L 256 480 Z M 256 0 Q 326 1 384 34 L 384 34 L 384 34 Q 442 68 478 128 Q 512 189 512 256 Q 512 323 478 384 Q 442 444 384 478 Q 326 511 256 512 Q 186 511 128 478 Q 70 444 34 384 Q 0 323 0 256 Q 0 189 34 128 Q 70 68 128 34 Q 186 1 256 0 L 256 0 Z M 160 300 Q 152 311 144 322 Q 127 348 128 357 Q 128 367 136 375 Q 145 383 160 384 Q 175 383 184 375 Q 192 367 192 357 Q 193 348 176 322 Q 168 311 160 300 L 160 300 Z M 151 260 Q 160 252 169 260 Q 171 263 174 266 Q 174 266 174 266 Q 189 284 206 309 Q 223 334 224 357 Q 223 382 205 399 Q 187 415 160 416 Q 133 415 115 399 Q 97 382 96 357 Q 97 335 114 310 Q 130 286 145 268 Q 145 267 146 267 L 146 267 L 146 267 L 146 267 L 146 267 Q 147 266 148 265 Q 150 262 151 260 L 151 260 Z M 256 320 Q 325 322 372 373 Q 381 385 371 396 Q 359 405 348 395 Q 309 353 256 352 Q 241 351 240 336 Q 241 321 256 320 L 256 320 Z M 360 208 Q 358 230 336 232 Q 314 230 312 208 Q 314 186 336 184 Q 358 186 360 208 L 360 208 Z M 176 184 Q 198 186 200 208 Q 198 230 176 232 Q 154 230 152 208 Q 154 186 176 184 L 176 184 Z" />
</svg>