<svg xmlns="http://www.w3.org/2000/svg" viewBox="0 0 640 514">
    <path d="M 224 384 Q 238 384 247 393 L 247 393 Q 256 402 256 416 L 256 464 L 354 390 Q 363 384 373 384 L 480 384 Q 494 384 503 375 Q 512 366 512 352 L 512 192 L 512 64 Q 512 50 503 41 Q 494 32 480 32 L 160 32 Q 146 32 137 41 Q 128 50 128 64 L 128 192 L 128 352 Q 128 366 137 375 Q 146 384 160 384 L 224 384 L 224 384 Z M 544 64 L 544 176 L 580 176 Q 589 161 608 160 Q 622 160 631 169 Q 640 178 640 192 Q 640 206 631 215 Q 622 224 608 224 Q 589 223 580 208 L 544 208 L 544 352 Q 543 379 525 397 Q 507 415 480 416 L 373 416 L 250 509 Q 242 514 233 510 Q 224 506 224 496 L 224 448 L 224 416 L 192 416 L 160 416 Q 133 415 115 397 Q 97 379 96 352 L 96 208 L 60 208 Q 51 223 32 224 Q 18 224 9 215 Q 0 206 0 192 Q 0 178 9 169 Q 18 160 32 160 Q 51 161 60 176 L 96 176 L 96 64 Q 97 37 115 19 Q 133 1 160 0 L 480 0 Q 507 1 525 19 Q 543 37 544 64 L 544 64 Z M 208 128 Q 193 129 192 144 L 192 240 Q 193 255 208 256 L 432 256 Q 447 255 448 240 L 448 144 Q 447 129 432 128 L 208 128 L 208 128 Z M 160 144 Q 161 124 174 110 L 174 110 Q 188 97 208 96 L 432 96 Q 452 97 466 110 Q 479 124 480 144 L 480 240 Q 479 260 466 274 Q 452 287 432 288 L 208 288 Q 188 287 174 274 Q 161 260 160 240 L 160 144 L 160 144 Z M 216 192 Q 216 178 225 169 L 225 169 Q 234 160 248 160 Q 262 160 271 169 Q 280 178 280 192 Q 280 206 271 215 Q 262 224 248 224 Q 234 224 225 215 Q 216 206 216 192 L 216 192 Z M 392 160 Q 406 160 415 169 L 415 169 Q 424 178 424 192 Q 424 206 415 215 Q 406 224 392 224 Q 378 224 369 215 Q 360 206 360 192 Q 360 178 369 169 Q 378 160 392 160 L 392 160 Z"/>
</svg>
