<svg xmlns="http://www.w3.org/2000/svg" viewBox="0 0 512 512">
  <path d="M 268.43268 11.302428 Q 256 0 243.56732 11.302428 L 98.89625 155.97351 L 98.89625 155.97351 Q 87.59382 168.40617 98.89625 180.83885 Q 111.32892 192.14128 123.76159 180.83885 L 237.9161 67.81457 L 237.9161 67.81457 L 237.9161 186.49007 L 237.9161 186.49007 L 237.9161 385.4128 L 237.9161 385.4128 Q 239.04636 402.36646 256 403.49667 Q 272.95364 402.36646 274.0839 385.4128 L 274.0839 186.49007 L 274.0839 186.49007 L 274.0839 67.81457 L 274.0839 67.81457 L 388.2384 180.83885 L 388.2384 180.83885 Q 400.67108 192.14128 413.10376 180.83885 Q 424.4062 168.40617 413.10376 155.97351 L 268.43268 11.302428 L 268.43268 11.302428 Z M 57.077263 475.8322 Q 40.12362 476.96246 38.993378 493.9161 Q 40.12362 510.86975 57.077263 512 L 454.92273 512 L 454.92273 512 Q 471.87637 510.86975 473.00662 493.9161 Q 471.87637 476.96246 454.92273 475.8322 L 57.077263 475.8322 L 57.077263 475.8322 Z" />
</svg>