<svg xmlns="http://www.w3.org/2000/svg" viewBox="0 0 512 512">
  <path d="M 181.21793 142.04637 Q 182.00928 115.14065 199.41885 96.93972 L 199.41885 96.93972 L 199.41885 96.93972 Q 217.61978 79.530136 244.5255 78.73879 Q 269.84854 79.530136 287.25812 95.35703 Q 304.6677 111.18393 307.04172 136.50696 L 307.83307 142.8377 L 307.83307 142.8377 Q 310.20712 154.70789 321.28595 154.70789 Q 333.1561 152.33385 333.1561 141.25502 L 332.36475 134.13292 L 332.36475 134.13292 Q 331.57343 119.097374 325.24265 105.644516 Q 361.6445 112.76662 385.38486 139.67233 Q 408.33386 167.3694 409.12518 205.35394 L 409.12518 293.98456 L 409.12518 293.98456 Q 409.91653 305.8547 421.7867 306.64606 Q 433.6569 305.8547 434.4482 293.98456 L 434.4482 205.35394 L 434.4482 205.35394 Q 432.86554 151.54251 397.25504 115.93199 Q 361.6445 80.32149 307.83307 78.73879 L 306.2504 78.73879 L 306.2504 78.73879 Q 281.7187 54.20711 244.5255 53.415764 Q 207.3323 54.20711 182.00928 78.73879 Q 117.11901 82.69552 73.595055 127.01082 Q 30.862442 171.32613 29.279753 237.00772 L 29.279753 262.33075 L 29.279753 262.33075 L 29.279753 262.33075 L 29.279753 262.33075 L 29.279753 277.3663 L 29.279753 277.3663 Q 29.279753 308.22876 10.28748 332.76044 L 7.122102 336.71716 L 7.122102 336.71716 Q 0 346.2133 8.704791 354.9181 Q 18.200928 361.24884 26.905718 352.54404 L 29.279753 348.58734 L 29.279753 348.58734 Q 54.602783 317.72488 54.602783 277.3663 L 54.602783 262.33075 L 54.602783 262.33075 L 54.602783 262.33075 L 54.602783 262.33075 L 54.602783 237.00772 L 54.602783 237.00772 Q 55.394127 187.15302 85.465225 151.54251 Q 116.32767 115.93199 163.017 106.43586 Q 155.8949 123.05409 155.8949 142.04637 Q 156.68625 177.65688 179.63524 202.18857 Q 201.7929 226.72025 237.4034 229.88562 L 243.73416 230.67697 L 243.73416 230.67697 Q 254.81299 230.67697 257.187 218.8068 Q 257.187 207.72798 245.31685 205.35394 L 238.98608 204.56259 L 238.98608 204.56259 Q 213.66306 202.18857 197.83617 184.77898 Q 182.00928 167.3694 181.21793 142.04637 L 181.21793 142.04637 Z M 330.78207 286.86246 Q 327.6167 281.32303 320.4946 281.32303 Q 308.62442 282.11438 307.83307 293.98456 L 307.83307 420.5997 L 307.83307 420.5997 Q 307.04172 432.46985 295.17157 433.2612 L 269.84854 433.2612 L 269.84854 433.2612 Q 257.97836 432.46985 257.187 420.5997 L 257.187 357.2921 L 257.187 357.2921 Q 257.187 356.50076 257.187 355.70944 Q 257.97836 350.96136 254.81299 347.00464 Q 247.69089 338.29984 237.4034 343.83926 Q 218.41113 357.2921 193.87944 357.2921 Q 169.34776 357.2921 150.35548 343.83926 Q 140.06801 338.29984 132.9459 347.00464 Q 129.78053 350.96136 130.57187 355.70944 Q 130.57187 356.50076 130.57187 357.2921 Q 130.57187 357.2921 130.57187 357.2921 L 130.57187 420.5997 L 130.57187 420.5997 Q 129.78053 432.46985 117.910355 433.2612 L 92.587326 433.2612 L 92.587326 433.2612 Q 80.717155 432.46985 79.92581 420.5997 L 79.92581 331.9691 L 79.92581 331.9691 Q 79.13447 320.0989 67.2643 319.3076 Q 55.394127 320.0989 54.602783 331.9691 L 54.602783 420.5997 L 54.602783 420.5997 Q 55.394127 436.42657 65.68161 447.5054 Q 76.76043 457.79288 92.587326 458.58423 L 117.910355 458.58423 L 117.910355 458.58423 Q 133.73724 457.79288 144.81607 447.5054 Q 155.10356 436.42657 155.8949 420.5997 L 155.8949 375.49304 L 155.8949 375.49304 Q 173.30449 382.61514 193.87944 382.61514 Q 214.4544 382.61514 231.86398 375.49304 L 231.86398 420.5997 L 231.86398 420.5997 Q 232.65533 436.42657 242.94281 447.5054 Q 254.02164 457.79288 269.84854 458.58423 L 295.17157 458.58423 L 295.17157 458.58423 Q 310.99844 457.79288 322.07727 447.5054 Q 332.36475 436.42657 333.1561 420.5997 L 333.1561 330.3864 L 333.1561 330.3864 Q 341.8609 338.29984 351.35703 344.6306 Q 354.5224 346.2133 358.47913 348.58734 L 358.47913 356.50076 L 358.47913 356.50076 Q 359.27048 388.9459 380.63678 411.10355 Q 402.79443 432.46985 435.23956 433.2612 Q 462.1453 432.46985 482.72025 417.43433 Q 502.50388 401.60742 509.62598 375.49304 L 510.4173 373.11902 L 510.4173 373.11902 Q 512 361.24884 500.92117 358.08347 Q 489.84235 355.70944 485.88562 366.78824 L 485.09427 369.1623 L 485.09427 369.1623 Q 480.34622 386.57187 466.89334 396.85934 Q 453.4405 407.93817 435.23956 407.93817 Q 413.0819 407.14682 398.8377 392.90262 Q 384.5935 378.65842 383.80215 356.50076 L 383.80215 355.70944 L 383.80215 355.70944 Q 392.50696 357.2921 402.79443 357.2921 Q 448.6924 358.08347 481.13754 328.01236 Q 489.051 319.3076 481.13754 310.60278 Q 472.43277 302.68933 463.72797 310.60278 Q 440.779 331.9691 402.79443 331.9691 Q 379.0541 331.9691 364.01855 322.47296 Q 348.983 313.76816 330.78207 286.86246 L 330.78207 286.86246 Z M 383.80215 218.01546 Q 383.01083 206.14528 371.14066 205.35394 Q 359.27048 206.14528 358.47913 218.01546 Q 359.27048 229.88562 371.14066 230.67697 Q 383.01083 229.88562 383.80215 218.01546 L 383.80215 218.01546 Z" />
</svg>