<svg xmlns="http://www.w3.org/2000/svg" viewBox="0 0 512 512">
  <path d="M 256 32 Q 317 33 368 62 L 368 62 L 368 62 Q 419 92 450 144 Q 480 197 480 256 Q 480 315 450 368 Q 419 420 368 450 Q 317 479 256 480 Q 195 479 144 450 Q 93 420 62 368 Q 32 315 32 256 Q 32 197 62 144 Q 93 92 144 62 Q 195 33 256 32 L 256 32 Z M 256 512 Q 326 511 384 478 L 384 478 L 384 478 Q 442 444 478 384 Q 512 323 512 256 Q 512 189 478 128 Q 442 68 384 34 Q 326 1 256 0 Q 186 1 128 34 Q 70 68 34 128 Q 0 189 0 256 Q 0 323 34 384 Q 70 444 128 478 Q 186 511 256 512 L 256 512 Z M 270 113 Q 266 104 256 104 Q 246 104 242 113 L 205 186 L 205 186 L 124 198 L 124 198 Q 115 200 112 209 Q 109 218 116 225 L 174 283 L 174 283 L 160 363 L 160 363 Q 159 373 167 379 Q 175 384 184 380 L 256 342 L 256 342 L 329 380 L 329 380 Q 337 384 345 379 Q 353 373 352 363 L 338 283 L 338 283 L 397 226 L 397 226 Q 403 218 401 209 Q 397 200 388 198 L 307 186 L 307 186 L 270 113 L 270 113 Z M 230 208 L 256 156 L 230 208 L 256 156 L 282 208 L 282 208 Q 285 215 294 217 L 351 225 L 351 225 L 309 266 L 309 266 Q 304 272 305 280 L 315 337 L 315 337 L 263 310 L 263 310 Q 256 306 248 310 L 197 337 L 197 337 L 207 280 L 207 280 Q 208 272 202 266 L 161 225 L 161 225 L 218 217 L 218 217 Q 226 215 230 208 L 230 208 Z" />
</svg>