<svg xmlns="http://www.w3.org/2000/svg" viewBox="0 0 512 512">
  <path d="M 430.63565 72.434105 Q 422.69766 85.333336 417.73642 95.25581 Q 414.7597 103.1938 414.7597 104.18604 Q 414.7597 104.18604 414.7597 104.18604 Q 414.7597 105.17829 414.7597 104.18604 Q 414.7597 114.10853 422.69766 122.04651 Q 431.6279 130.97675 446.51163 130.97675 Q 461.39536 130.97675 470.3256 122.04651 Q 478.26358 114.10853 478.26358 104.18604 Q 478.26358 105.17829 478.26358 104.18604 Q 478.26358 104.18604 478.26358 104.18604 Q 478.26358 102.20155 475.28683 95.25581 Q 470.3256 85.333336 462.3876 72.434105 Q 454.44962 60.52713 446.51163 49.612404 Q 438.57364 60.52713 430.63565 72.434105 L 430.63565 72.434105 Z M 438.57364 7.9379845 Q 446.51163 0 455.44186 7.9379845 Q 469.33334 25.79845 489.17828 54.573643 Q 508.031 84.34109 510.0155 104.18604 Q 509.02325 128.99225 491.16278 145.86046 Q 473.30234 161.73643 446.51163 162.72868 Q 419.72092 161.73643 401.86047 145.86046 Q 384 128.99225 383.00775 104.18604 Q 384.99225 84.34109 403.84497 54.573643 Q 422.69766 25.79845 438.57364 7.9379845 L 438.57364 7.9379845 Z M 256 35.720932 Q 193.48837 36.713177 143.87598 66.48062 L 143.87598 66.48062 L 143.87598 66.48062 Q 93.27132 95.25581 64.496124 145.86046 L 64.496124 145.86046 L 64.496124 145.86046 Q 34.728683 195.47287 33.736435 257.9845 Q 34.728683 320.49612 64.496124 370.10852 Q 93.27132 420.71317 143.87598 449.48837 Q 193.48837 479.25583 256 480.24805 Q 318.51163 479.25583 368.12402 449.48837 Q 418.72867 420.71317 447.50388 370.10852 Q 477.27133 320.49612 478.26358 257.9845 Q 478.26358 227.22481 470.3256 198.44962 Q 467.34885 184.55814 481.2403 179.5969 Q 496.12402 176.62015 501.08527 190.51163 Q 510.0155 222.26357 510.0155 257.9845 Q 509.02325 329.42636 475.28683 385.9845 Q 441.55038 443.53488 384 477.27133 Q 327.44186 511.00775 256 512 Q 184.55814 511.00775 128 477.27133 Q 70.449615 443.53488 36.713177 385.9845 Q 2.9767442 329.42636 1.9844961 257.9845 Q 2.9767442 186.54263 36.713177 129.9845 Q 70.449615 72.434105 128 38.697674 Q 184.55814 4.9612403 256 3.9689922 Q 320.49612 4.9612403 375.06976 33.736435 Q 386.97675 41.67442 381.02325 54.573643 Q 373.08527 66.48062 360.18604 61.51938 Q 312.55814 36.713177 256 35.720932 L 256 35.720932 Z M 345.30234 347.28683 Q 302.63565 355.2248 256 355.2248 Q 209.36433 355.2248 166.69768 347.28683 Q 202.41861 384 256 384.99225 Q 310.57364 384 345.30234 347.28683 L 345.30234 347.28683 Z M 379.03876 306.60464 Q 388.96124 303.6279 394.91473 309.5814 L 394.91473 309.5814 L 394.91473 309.5814 Q 400.86823 315.53488 397.89148 324.46512 Q 379.03876 366.13953 341.33334 390.94574 Q 304.62015 415.75195 256 416.74417 Q 208.37209 415.75195 170.66667 390.94574 Q 132.96124 366.13953 114.10853 324.46512 Q 111.13178 315.53488 117.08527 309.5814 Q 124.031006 303.6279 132.96124 306.60464 Q 189.51938 323.47287 256 323.47287 Q 322.48062 323.47287 379.03876 306.60464 L 379.03876 306.60464 Z M 144.86821 222.26357 Q 139.90698 236.15504 125.023254 234.17055 Q 111.13178 229.2093 114.10853 214.32558 Q 118.07752 194.48062 132.96124 176.62015 Q 148.8372 156.77519 176.62015 154.7907 Q 204.4031 156.77519 220.27907 176.62015 Q 235.1628 194.48062 240.12402 214.32558 Q 242.10852 229.2093 228.21706 234.17055 Q 213.33333 236.15504 209.36433 222.26357 Q 205.39536 208.37209 196.46512 197.45737 Q 186.54263 186.54263 176.62015 186.54263 Q 166.69768 186.54263 157.76744 197.45737 Q 147.84496 208.37209 144.86821 222.26357 L 144.86821 222.26357 Z M 315.53488 197.45737 Q 306.60464 208.37209 303.6279 222.26357 Q 298.66666 236.15504 283.78296 234.17055 Q 269.89148 229.2093 272.86823 214.32558 Q 276.83722 194.48062 291.72092 176.62015 Q 307.5969 156.77519 335.37985 154.7907 Q 363.16278 156.77519 379.03876 176.62015 Q 393.9225 194.48062 398.88373 214.32558 Q 400.86823 229.2093 386.97675 234.17055 Q 373.08527 236.15504 368.12402 222.26357 Q 364.15503 208.37209 355.2248 197.45737 Q 345.30234 186.54263 335.37985 186.54263 Q 325.45737 186.54263 316.52713 197.45737 L 315.53488 197.45737 Z" />
</svg>