<svg xmlns="http://www.w3.org/2000/svg" viewBox="0 0 642 384">
    <path d="M 352 16 Q 351 31 336 32 L 272 32 L 272 96 L 369 96 Q 384 96 398 103 L 448 128 L 615 92 Q 629 90 636 101 Q 642 112 633 124 L 451 330 Q 432 351 403 352 L 144 352 Q 124 351 110 338 Q 97 324 96 304 L 96 276 L 31 252 Q 2 239 0 207 L 0 144 Q 1 124 14 110 Q 28 97 48 96 L 96 96 L 128 96 L 240 96 L 240 32 L 176 32 Q 161 31 160 16 Q 161 1 176 0 L 336 0 Q 351 1 352 16 L 352 16 Z M 455 159 Q 444 162 434 157 L 383 131 Q 377 128 369 128 L 128 128 L 128 254 L 128 288 L 128 304 Q 129 319 144 320 L 403 320 Q 417 320 427 309 L 584 132 L 455 159 L 455 159 Z M 96 128 L 48 128 Q 33 129 32 144 L 32 207 Q 32 217 42 222 L 96 242 L 96 128 L 96 128 Z M 608 336 L 608 336 L 608 336 Q 608 336 608 335 Q 608 335 608 335 Q 608 334 608 333 Q 607 330 606 326 Q 603 317 599 306 Q 596 299 592 292 Q 589 298 587 303 Q 586 305 586 306 Q 576 331 576 336 Q 578 350 592 352 Q 602 351 604 348 Q 607 348 608 336 L 608 336 Z M 640 336 Q 639 360 626 372 L 626 372 Q 612 384 592 384 Q 572 383 558 370 Q 545 356 544 336 Q 545 319 556 294 Q 567 268 579 247 Q 584 239 592 239 Q 600 239 605 247 Q 617 268 628 294 Q 639 319 640 336 L 640 336 Z"/>
</svg>
