<svg xmlns="http://www.w3.org/2000/svg" viewBox="0 0 544 512">
    <path d="M 544 16 Q 543 1 528 0 Q 513 1 512 16 L 512 496 Q 513 511 528 512 Q 543 511 544 496 L 544 16 L 544 16 Z M 400 96 Q 385 97 384 112 L 384 496 Q 385 511 400 512 Q 415 511 416 496 L 416 112 Q 415 97 400 96 L 400 96 Z M 288 208 Q 287 193 272 192 Q 257 193 256 208 L 256 496 Q 257 511 272 512 Q 287 511 288 496 L 288 208 L 288 208 Z M 144 288 Q 129 289 128 304 L 128 496 Q 129 511 144 512 Q 159 511 160 496 L 160 304 Q 159 289 144 288 L 144 288 Z M 16 384 Q 1 385 0 400 L 0 496 Q 1 511 16 512 Q 31 511 32 496 L 32 400 Q 31 385 16 384 L 16 384 Z"/>
</svg>
