<svg xmlns="http://www.w3.org/2000/svg" viewBox="0 0 512 512">
  <path d="M 28.444444444444443 42.666666666666664 Q 27.555555555555557 29.333333333333332 14.222222222222221 28.444444444444443 Q 0.8888888888888888 29.333333333333332 0 42.666666666666664 L 0 128 L 0 128 L 0 355.55555555555554 L 0 355.55555555555554 Q 0.8888888888888888 373.3333333333333 12.444444444444445 385.77777777777777 Q 24.88888888888889 397.3333333333333 42.666666666666664 398.22222222222223 L 227.55555555555554 398.22222222222223 L 227.55555555555554 398.22222222222223 L 227.55555555555554 369.77777777777777 L 227.55555555555554 369.77777777777777 L 42.666666666666664 369.77777777777777 L 42.666666666666664 369.77777777777777 Q 29.333333333333332 368.8888888888889 28.444444444444443 355.55555555555554 L 28.444444444444443 142.22222222222223 L 28.444444444444443 142.22222222222223 L 227.55555555555554 142.22222222222223 L 227.55555555555554 142.22222222222223 L 227.55555555555554 113.77777777777777 L 227.55555555555554 113.77777777777777 L 28.444444444444443 113.77777777777777 L 28.444444444444443 113.77777777777777 L 28.444444444444443 42.666666666666664 L 28.444444444444443 42.666666666666664 Z M 351.1111111111111 56.888888888888886 L 369.77777777777777 76.44444444444444 L 351.1111111111111 56.888888888888886 L 369.77777777777777 76.44444444444444 Q 379.55555555555554 85.33333333333333 392 85.33333333333333 L 483.55555555555554 85.33333333333333 L 483.55555555555554 85.33333333333333 L 483.55555555555554 199.11111111111111 L 483.55555555555554 199.11111111111111 L 284.44444444444446 199.11111111111111 L 284.44444444444446 199.11111111111111 L 284.44444444444446 56.888888888888886 L 284.44444444444446 56.888888888888886 L 351.1111111111111 56.888888888888886 L 351.1111111111111 56.888888888888886 Z M 256 56.888888888888886 L 256 199.11111111111111 L 256 56.888888888888886 L 256 199.11111111111111 Q 256 211.55555555555554 264 219.55555555555554 Q 272 227.55555555555554 284.44444444444446 227.55555555555554 L 483.55555555555554 227.55555555555554 L 483.55555555555554 227.55555555555554 Q 496 227.55555555555554 504 219.55555555555554 Q 512 211.55555555555554 512 199.11111111111111 L 512 85.33333333333333 L 512 85.33333333333333 Q 512 72.88888888888889 504 64.88888888888889 Q 496 56.888888888888886 483.55555555555554 56.888888888888886 L 392 56.888888888888886 L 392 56.888888888888886 Q 391.1111111111111 56.888888888888886 390.22222222222223 56 L 370.6666666666667 36.44444444444444 L 370.6666666666667 36.44444444444444 Q 362.6666666666667 28.444444444444443 351.1111111111111 28.444444444444443 L 284.44444444444446 28.444444444444443 L 284.44444444444446 28.444444444444443 Q 272 28.444444444444443 264 36.44444444444444 Q 256 44.44444444444444 256 56.888888888888886 L 256 56.888888888888886 Z M 284.44444444444446 312.8888888888889 L 351.1111111111111 312.8888888888889 L 284.44444444444446 312.8888888888889 L 351.1111111111111 312.8888888888889 L 369.77777777777777 332.44444444444446 L 369.77777777777777 332.44444444444446 Q 379.55555555555554 341.3333333333333 392 341.3333333333333 L 483.55555555555554 341.3333333333333 L 483.55555555555554 341.3333333333333 L 483.55555555555554 455.1111111111111 L 483.55555555555554 455.1111111111111 L 284.44444444444446 455.1111111111111 L 284.44444444444446 455.1111111111111 L 284.44444444444446 312.8888888888889 L 284.44444444444446 312.8888888888889 Z M 256 312.8888888888889 L 256 455.1111111111111 L 256 312.8888888888889 L 256 455.1111111111111 Q 256 467.55555555555554 264 475.55555555555554 Q 272 483.55555555555554 284.44444444444446 483.55555555555554 L 483.55555555555554 483.55555555555554 L 483.55555555555554 483.55555555555554 Q 496 483.55555555555554 504 475.55555555555554 Q 512 467.55555555555554 512 455.1111111111111 L 512 341.3333333333333 L 512 341.3333333333333 Q 512 328.8888888888889 504 320.8888888888889 Q 496 312.8888888888889 483.55555555555554 312.8888888888889 L 392 312.8888888888889 L 392 312.8888888888889 Q 391.1111111111111 312.8888888888889 390.22222222222223 312 L 370.6666666666667 292.44444444444446 L 370.6666666666667 292.44444444444446 Q 362.6666666666667 284.44444444444446 351.1111111111111 284.44444444444446 L 284.44444444444446 284.44444444444446 L 284.44444444444446 284.44444444444446 Q 272 284.44444444444446 264 292.44444444444446 Q 256 300.44444444444446 256 312.8888888888889 L 256 312.8888888888889 Z" />
</svg>