<svg xmlns="http://www.w3.org/2000/svg" viewBox="0 0 512 512">
  <path d="M 241.31472868217054 57.55038759689923 Q 232.5829457364341 51.2 223.85116279069769 57.55038759689923 L 7.937984496124031 248.06201550387595 L 7.937984496124031 248.06201550387595 Q 0 256.7937984496124 7.144186046511628 266.31937984496125 Q 15.875968992248062 274.2573643410853 25.4015503875969 267.11317829457363 L 54.77209302325581 240.91782945736435 L 54.77209302325581 240.91782945736435 L 54.77209302325581 397.29612403100776 L 54.77209302325581 397.29612403100776 Q 55.565891472868216 424.2852713178295 73.02945736434108 442.5426356589147 Q 91.28682170542636 460.0062015503876 118.27596899224807 460.8 L 317.51937984496124 460.8 L 317.51937984496124 460.8 Q 301.6434108527132 449.6868217054264 289.73643410852713 435.3984496124031 L 118.27596899224807 435.3984496124031 L 118.27596899224807 435.3984496124031 Q 102.4 434.6046511627907 91.28682170542636 424.2852713178295 Q 80.96744186046512 413.1720930232558 80.17364341085272 397.29612403100776 L 80.17364341085272 218.69147286821706 L 80.17364341085272 218.69147286821706 L 232.5829457364341 83.74573643410852 L 232.5829457364341 83.74573643410852 L 373.8790697674419 209.16589147286822 L 373.8790697674419 209.16589147286822 Q 385.7860465116279 206.784496124031 397.69302325581396 206.784496124031 Q 404.0434108527132 206.784496124031 411.1875968992248 207.5782945736434 L 241.31472868217054 57.55038759689923 L 241.31472868217054 57.55038759689923 Z M 296.08682170542636 244.88682170542634 L 270.68527131782946 244.88682170542634 L 296.08682170542636 244.88682170542634 L 270.68527131782946 244.88682170542634 L 270.68527131782946 219.48527131782944 L 270.68527131782946 219.48527131782944 Q 270.68527131782946 208.37209302325581 263.54108527131785 201.22790697674418 Q 256.3968992248062 194.08372093023254 245.28372093023256 194.08372093023254 L 219.88217054263566 194.08372093023254 L 219.88217054263566 194.08372093023254 Q 208.768992248062 194.08372093023254 201.6248062015504 201.22790697674418 Q 194.48062015503876 208.37209302325581 194.48062015503876 219.48527131782944 L 194.48062015503876 244.88682170542634 L 194.48062015503876 244.88682170542634 L 169.07906976744187 244.88682170542634 L 169.07906976744187 244.88682170542634 Q 157.9658914728682 244.88682170542634 150.8217054263566 252.03100775193798 Q 143.67751937984497 259.17519379844964 143.67751937984497 270.28837209302327 L 143.67751937984497 295.68992248062017 L 143.67751937984497 295.68992248062017 Q 143.67751937984497 306.8031007751938 150.8217054263566 313.9472868217054 Q 157.9658914728682 321.09147286821707 169.07906976744187 321.09147286821707 L 194.48062015503876 321.09147286821707 L 194.48062015503876 321.09147286821707 L 194.48062015503876 346.49302325581397 L 194.48062015503876 346.49302325581397 Q 194.48062015503876 357.6062015503876 201.6248062015504 364.7503875968992 Q 208.768992248062 371.89457364341087 219.88217054263566 371.89457364341087 L 245.28372093023256 371.89457364341087 L 245.28372093023256 371.89457364341087 Q 253.22170542635658 371.89457364341087 259.57209302325583 367.92558139534884 Q 257.984496124031 357.6062015503876 257.984496124031 346.49302325581397 Q 257.984496124031 319.50387596899225 267.5100775193798 295.68992248062017 L 257.984496124031 295.68992248062017 L 257.984496124031 295.68992248062017 Q 246.07751937984497 296.48372093023255 245.28372093023256 308.3906976744186 L 245.28372093023256 346.49302325581397 L 245.28372093023256 346.49302325581397 L 219.88217054263566 346.49302325581397 L 219.88217054263566 346.49302325581397 L 219.88217054263566 308.3906976744186 L 219.88217054263566 308.3906976744186 Q 219.08837209302325 296.48372093023255 207.1813953488372 295.68992248062017 L 169.07906976744187 295.68992248062017 L 169.07906976744187 295.68992248062017 L 169.07906976744187 270.28837209302327 L 169.07906976744187 270.28837209302327 L 207.1813953488372 270.28837209302327 L 207.1813953488372 270.28837209302327 Q 212.73798449612403 270.28837209302327 215.91317829457364 266.31937984496125 Q 219.88217054263566 263.1441860465116 219.88217054263566 257.5875968992248 L 219.88217054263566 219.48527131782944 L 219.88217054263566 219.48527131782944 L 245.28372093023256 219.48527131782944 L 245.28372093023256 219.48527131782944 L 245.28372093023256 257.5875968992248 L 245.28372093023256 257.5875968992248 Q 246.07751937984497 269.49457364341083 257.984496124031 270.28837209302327 L 281.0046511627907 270.28837209302327 L 281.0046511627907 270.28837209302327 Q 289.73643410852713 256.7937984496124 301.6434108527132 245.68062015503875 Q 298.46821705426356 244.88682170542634 296.08682170542636 244.88682170542634 L 296.08682170542636 244.88682170542634 Z M 308.7875968992248 346.49302325581397 Q 308.7875968992248 322.6790697674419 320.6945736434109 302.0403100775194 L 320.6945736434109 302.0403100775194 L 320.6945736434109 302.0403100775194 Q 332.6015503875969 281.4015503875969 353.2403100775194 269.49457364341083 Q 373.8790697674419 257.5875968992248 397.69302325581396 257.5875968992248 Q 421.50697674418603 257.5875968992248 442.1457364341085 269.49457364341083 Q 462.784496124031 281.4015503875969 474.69147286821703 302.0403100775194 Q 486.5984496124031 322.6790697674419 486.5984496124031 346.49302325581397 Q 486.5984496124031 370.30697674418604 474.69147286821703 390.94573643410854 Q 462.784496124031 411.58449612403103 442.1457364341085 423.49147286821704 Q 421.50697674418603 435.3984496124031 397.69302325581396 435.3984496124031 Q 373.8790697674419 435.3984496124031 353.2403100775194 423.49147286821704 Q 332.6015503875969 411.58449612403103 320.6945736434109 390.94573643410854 Q 308.7875968992248 370.30697674418604 308.7875968992248 346.49302325581397 L 308.7875968992248 346.49302325581397 Z M 512 346.49302325581397 Q 512 315.5348837209302 496.91782945736435 289.33953488372094 L 496.91782945736435 289.33953488372094 L 496.91782945736435 289.33953488372094 Q 481.8356589147287 263.1441860465116 454.846511627907 247.26821705426357 Q 427.85736434108526 232.1860465116279 397.69302325581396 232.1860465116279 Q 367.52868217054265 232.1860465116279 340.53953488372093 247.26821705426357 Q 313.5503875968992 263.1441860465116 298.46821705426356 289.33953488372094 Q 283.3860465116279 315.5348837209302 283.3860465116279 346.49302325581397 Q 283.3860465116279 377.45116279069765 298.46821705426356 403.646511627907 Q 313.5503875968992 429.84186046511627 340.53953488372093 445.71782945736436 Q 367.52868217054265 460.8 397.69302325581396 460.8 Q 427.85736434108526 460.8 454.846511627907 445.71782945736436 Q 481.8356589147287 429.84186046511627 496.91782945736435 403.646511627907 Q 512 377.45116279069765 512 346.49302325581397 L 512 346.49302325581397 Z M 397.69302325581396 409.9968992248062 Q 415.1565891472868 408.4093023255814 416.74418604651163 390.94573643410854 Q 415.1565891472868 373.4821705426357 397.69302325581396 371.89457364341087 Q 380.2294573643411 373.4821705426357 378.6418604651163 390.94573643410854 Q 380.2294573643411 408.4093023255814 397.69302325581396 409.9968992248062 L 397.69302325581396 409.9968992248062 Z M 397.69302325581396 282.9891472868217 Q 385.7860465116279 283.7829457364341 384.9922480620155 295.68992248062017 L 384.9922480620155 346.49302325581397 L 384.9922480620155 346.49302325581397 Q 385.7860465116279 358.4 397.69302325581396 359.1937984496124 Q 409.6 358.4 410.3937984496124 346.49302325581397 L 410.3937984496124 295.68992248062017 L 410.3937984496124 295.68992248062017 Q 409.6 283.7829457364341 397.69302325581396 282.9891472868217 L 397.69302325581396 282.9891472868217 Z" />
</svg>