<svg xmlns="http://www.w3.org/2000/svg" viewBox="0 0 512 512">
  <path d="M 24.41846153846154 56.32 Q 14.966153846153846 50.80615384615385 6.3015384615384615 58.683076923076925 Q 0 68.13538461538461 8.664615384615384 76.8 L 487.58153846153846 454.89230769230767 L 487.58153846153846 454.89230769230767 Q 497.0338461538461 461.19384615384615 505.6984615384615 452.52923076923076 Q 512 443.0769230769231 503.3353846153846 435.2 L 24.41846153846154 56.32 L 24.41846153846154 56.32 Z M 210.31384615384616 283.1753846153846 L 181.16923076923078 312.32 L 210.31384615384616 283.1753846153846 L 181.16923076923078 312.32 Q 182.74461538461537 274.51076923076926 158.32615384615386 243.00307692307692 L 122.0923076923077 213.85846153846154 L 122.0923076923077 213.85846153846154 Q 118.15384615384616 214.64615384615385 115.79076923076923 217.00923076923078 L 89.00923076923077 243.79076923076923 L 89.00923076923077 243.79076923076923 Q 66.95384615384616 267.4215384615385 66.95384615384616 297.3538461538462 Q 66.95384615384616 327.28615384615387 89.00923076923077 350.91692307692307 L 115.79076923076923 377.6984615384615 L 115.79076923076923 377.6984615384615 L 115.79076923076923 377.6984615384615 L 115.79076923076923 377.6984615384615 L 58.28923076923077 435.9876923076923 L 58.28923076923077 435.9876923076923 Q 50.41230769230769 444.6523076923077 58.28923076923077 453.3169230769231 Q 66.95384615384616 460.40615384615387 75.61846153846155 453.3169230769231 L 133.90769230769232 395.81538461538463 L 133.90769230769232 395.81538461538463 L 133.90769230769232 395.81538461538463 L 133.90769230769232 395.81538461538463 L 160.68923076923076 422.5969230769231 L 160.68923076923076 422.5969230769231 Q 183.53230769230768 444.6523076923077 214.25230769230768 444.6523076923077 Q 244.1846153846154 444.6523076923077 267.81538461538463 422.5969230769231 L 293.8092307692308 395.81538461538463 L 293.8092307692308 395.81538461538463 Q 301.68615384615384 386.3630769230769 293.8092307692308 377.6984615384615 L 276.48 359.58153846153846 L 276.48 359.58153846153846 Q 242.60923076923078 328.07384615384615 198.49846153846153 330.43692307692305 L 230.00615384615384 298.92923076923074 L 230.00615384615384 298.92923076923074 L 210.31384615384616 283.1753846153846 L 210.31384615384616 283.1753846153846 Z M 231.58153846153846 101.21846153846154 Q 209.52615384615385 124.84923076923077 209.52615384615385 154.78153846153847 L 241.82153846153847 179.9876923076923 L 241.82153846153847 179.9876923076923 Q 233.15692307692308 165.02153846153846 235.52 148.48 Q 237.0953846153846 131.93846153846152 249.69846153846154 119.33538461538461 L 267.81538461538463 101.21846153846154 L 267.81538461538463 101.21846153846154 L 276.48 110.67076923076922 L 276.48 110.67076923076922 Q 296.96 131.93846153846152 298.5353846153846 160.29538461538462 Q 299.32307692307694 188.6523076923077 281.2061538461538 211.4953846153846 L 302.4738461538462 228.03692307692307 L 302.4738461538462 228.03692307692307 Q 325.3169230769231 211.4953846153846 352.88615384615383 213.07076923076923 Q 379.66769230769233 214.64615384615385 400.93538461538463 235.12615384615384 L 410.3876923076923 243.79076923076923 L 410.3876923076923 243.79076923076923 L 392.27076923076925 261.9076923076923 L 392.27076923076925 261.9076923076923 Q 379.66769230769233 273.7230769230769 363.12615384615384 276.0861538461538 L 387.5446153846154 294.9907692307692 L 387.5446153846154 294.9907692307692 Q 400.1476923076923 289.4769230769231 409.6 280.0246153846154 L 436.38153846153847 253.24307692307693 L 436.38153846153847 253.24307692307693 Q 444.2584615384615 244.57846153846154 436.38153846153847 235.12615384615384 L 419.0523076923077 217.79692307692306 L 419.0523076923077 217.79692307692306 Q 411.9630769230769 210.7076923076923 404.0861538461538 205.19384615384615 L 441.10769230769233 168.1723076923077 L 441.10769230769233 168.1723076923077 Q 448.1969230769231 159.5076923076923 441.10769230769233 150.84307692307692 Q 432.44307692307694 142.96615384615384 422.9907692307692 150.84307692307692 L 380.4553846153846 193.37846153846155 L 380.4553846153846 193.37846153846155 Q 361.5507692307692 187.07692307692307 341.07076923076926 187.86461538461538 L 441.10769230769233 87.8276923076923 L 441.10769230769233 87.8276923076923 Q 448.1969230769231 79.16307692307693 441.10769230769233 70.49846153846154 Q 432.44307692307694 62.621538461538464 422.9907692307692 70.49846153846154 L 323.7415384615385 170.53538461538463 L 323.7415384615385 170.53538461538463 Q 324.52923076923076 150.0553846153846 318.2276923076923 131.15076923076924 L 360.76307692307694 87.8276923076923 L 360.76307692307694 87.8276923076923 Q 368.64 79.16307692307693 360.76307692307694 70.49846153846154 Q 352.09846153846155 62.621538461538464 343.43384615384616 70.49846153846154 L 306.4123076923077 107.52 L 306.4123076923077 107.52 Q 300.89846153846156 99.64307692307692 293.8092307692308 92.55384615384615 L 276.48 74.43692307692308 L 276.48 74.43692307692308 Q 267.0276923076923 67.34769230769231 258.3630769230769 74.43692307692308 L 231.58153846153846 101.21846153846154 L 231.58153846153846 101.21846153846154 Z M 107.12615384615384 261.9076923076923 L 125.24307692307693 243.79076923076923 L 107.12615384615384 261.9076923076923 L 125.24307692307693 243.79076923076923 L 133.90769230769232 253.24307692307693 L 133.90769230769232 253.24307692307693 Q 155.96307692307693 276.0861538461538 155.96307692307693 306.01846153846157 Q 155.96307692307693 336.73846153846154 133.90769230769232 359.58153846153846 L 107.12615384615384 332.8 L 107.12615384615384 332.8 Q 92.16 317.83384615384614 92.16 297.3538461538462 Q 92.16 277.66153846153844 107.12615384615384 261.9076923076923 L 107.12615384615384 261.9076923076923 Z M 249.69846153846154 404.48 Q 233.9446153846154 419.44615384615383 214.25230769230768 419.44615384615383 L 214.25230769230768 419.44615384615383 L 214.25230769230768 419.44615384615383 Q 193.7723076923077 419.44615384615383 178.01846153846154 404.48 L 152.02461538461537 377.6984615384615 L 152.02461538461537 377.6984615384615 Q 174.8676923076923 355.64307692307693 204.8 355.64307692307693 Q 235.52 355.64307692307693 258.3630769230769 377.6984615384615 L 267.81538461538463 386.3630769230769 L 267.81538461538463 386.3630769230769 L 249.69846153846154 404.48 L 249.69846153846154 404.48 Z" />
</svg>