<svg xmlns="http://www.w3.org/2000/svg" viewBox="0 0 576 448">
    <path d="M 16 0 Q 31 1 32 16 L 32 165 L 148 146 Q 169 109 206 87 Q 243 65 288 64 Q 333 65 370 87 Q 407 109 428 146 L 544 165 L 544 16 Q 545 1 560 0 Q 575 1 576 16 L 576 170 L 576 184 L 576 264 L 576 278 L 576 432 Q 575 447 560 448 Q 545 447 544 432 L 544 283 L 428 302 Q 407 339 370 361 Q 333 383 288 384 Q 243 383 206 361 Q 169 339 148 302 L 32 283 L 32 432 Q 31 447 16 448 Q 1 447 0 432 L 0 278 L 0 264 L 0 184 L 0 170 L 0 16 Q 1 1 16 0 L 16 0 Z M 448 224 Q 448 247 442 267 L 544 250 L 544 198 L 442 181 Q 448 201 448 224 L 448 224 Z M 32 250 L 134 267 Q 128 247 128 224 Q 128 201 134 181 L 32 198 L 32 251 L 32 250 Z M 416 224 Q 416 189 399 160 L 399 160 Q 382 131 352 113 Q 322 96 288 96 Q 254 96 224 113 Q 194 131 177 160 Q 160 189 160 224 Q 160 259 177 288 Q 194 317 224 335 Q 254 352 288 352 Q 322 352 352 335 Q 382 317 399 288 Q 416 259 416 224 L 416 224 Z M 226 240 L 192 240 Q 177 239 176 224 Q 177 209 192 208 L 226 208 Q 228 199 233 192 L 209 167 Q 199 156 209 145 Q 220 136 231 145 L 255 169 Q 263 164 272 162 L 272 128 Q 273 113 288 112 Q 303 113 304 128 L 304 162 Q 313 164 320 169 L 345 145 Q 356 135 367 145 Q 376 156 367 167 L 343 191 Q 348 199 350 208 L 384 208 Q 398 209 400 224 Q 398 239 384 240 L 350 240 Q 348 249 343 256 L 367 281 Q 377 292 367 303 Q 356 312 345 303 L 321 279 Q 313 284 304 286 L 304 320 Q 303 334 288 336 Q 274 334 272 320 L 272 286 Q 263 284 256 279 L 232 303 Q 220 313 209 303 Q 200 292 209 281 L 233 257 Q 228 249 226 240 L 226 240 Z M 288 256 Q 302 256 311 247 L 311 247 Q 320 238 320 224 Q 320 210 311 201 Q 302 192 288 192 Q 274 192 265 201 Q 256 210 256 224 Q 256 238 265 247 Q 274 256 288 256 L 288 256 Z"/>
</svg>
