<svg xmlns="http://www.w3.org/2000/svg" viewBox="0 0 640 509">
    <path d="M 544 374 L 544 34 L 336 62 L 336 415 L 544 374 L 544 374 Z M 304 415 L 304 62 L 96 34 L 96 374 L 304 415 L 304 415 Z M 540 2 Q 555 0 565 9 L 565 9 Q 576 19 576 34 L 576 374 Q 574 399 550 405 L 333 449 Q 320 451 308 449 L 90 405 Q 66 399 64 374 L 64 34 Q 64 19 75 9 Q 85 0 100 2 L 320 32 L 540 2 L 540 2 Z M 0 66 Q 0 52 9 43 L 9 43 Q 19 34 32 34 L 32 66 L 32 160 L 32 419 L 314 475 Q 320 476 326 475 L 608 419 L 608 160 L 608 66 L 608 34 Q 621 34 631 43 Q 640 52 640 66 L 640 419 Q 638 444 614 450 L 333 506 Q 320 509 308 506 L 26 450 Q 2 443 0 419 L 0 66 L 0 66 Z"/>
</svg>
