<svg xmlns="http://www.w3.org/2000/svg" viewBox="0 0 521 522">
    <path d="M 407 34 Q 418 24 410 12 Q 400 0 388 8 L 273 92 Q 267 97 261 103 L 259 104 Q 230 135 229 177 Q 229 216 255 245 L 10 490 Q 0 501 10 512 Q 21 522 32 512 L 277 268 Q 306 293 345 293 Q 387 292 418 263 L 419 261 Q 425 255 430 249 L 514 134 Q 521 122 511 112 Q 498 104 488 115 L 404 230 Q 401 235 397 239 L 395 240 Q 374 261 345 261 Q 316 261 295 240 L 282 227 Q 261 206 261 177 Q 261 148 282 127 L 283 125 Q 288 121 292 118 L 407 34 L 407 34 Z M 448 65 Q 458 54 449 42 Q 438 32 426 41 L 298 153 Q 288 164 297 176 Q 308 186 320 177 L 448 65 L 448 65 Z M 481 96 Q 490 84 480 73 Q 468 64 457 74 L 345 202 Q 336 214 346 225 Q 358 234 369 224 L 481 96 L 481 96 Z"/>
</svg>
