<svg xmlns="http://www.w3.org/2000/svg" viewBox="0 0 586 516">
    <path d="M 304 8 Q 293 0 282 8 L 10 248 Q 0 259 9 271 Q 20 281 32 272 L 69 239 L 69 436 Q 70 470 92 493 Q 115 515 149 516 L 437 516 Q 471 515 494 493 Q 516 470 517 436 L 517 239 L 554 272 Q 566 281 577 271 Q 586 259 576 248 L 304 8 L 304 8 Z M 101 436 L 101 211 L 293 41 L 485 211 L 485 436 Q 484 456 471 470 Q 457 483 437 484 L 373 484 L 373 324 Q 373 310 364 301 Q 355 292 341 292 L 245 292 Q 231 292 222 301 Q 213 310 213 324 L 213 484 L 149 484 Q 129 483 115 470 Q 102 456 101 436 L 101 436 Z M 245 484 L 245 324 L 341 324 L 341 484 L 245 484 L 245 484 Z"/>
</svg>
