<svg xmlns="http://www.w3.org/2000/svg" viewBox="0 0 512 512">
  <path d="M 157.5 16 Q 158.5 1 173.5 0 L 333.5 0 L 333.5 0 Q 348.5 1 349.5 16 Q 348.5 31 333.5 32 L 269.5 32 L 269.5 32 L 269.5 97 L 269.5 97 Q 345.5 104 397.5 154 L 434.5 117 L 434.5 117 Q 445.5 107 456.5 117 Q 466.5 128 456.5 139 L 418.5 177 L 418.5 177 Q 460.5 231 461.5 304 Q 459.5 392 400.5 451 Q 341.5 510 253.5 512 Q 165.5 510 106.5 451 Q 47.5 392 45.5 304 Q 47.5 220 101.5 162 Q 155.5 105 237.5 97 L 237.5 32 L 237.5 32 L 173.5 32 L 173.5 32 Q 158.5 31 157.5 16 L 157.5 16 Z M 77.5 304 Q 77.5 352 101.5 392 L 101.5 392 L 101.5 392 Q 124.5 432 165.5 456 Q 207.5 480 253.5 480 Q 299.5 480 341.5 456 Q 382.5 432 405.5 392 Q 429.5 352 429.5 304 Q 429.5 256 405.5 216 Q 382.5 176 341.5 152 Q 299.5 128 253.5 128 Q 207.5 128 165.5 152 Q 124.5 176 101.5 216 Q 77.5 256 77.5 304 L 77.5 304 Z M 269.5 208 L 269.5 320 L 269.5 208 L 269.5 320 Q 268.5 335 253.5 336 Q 238.5 335 237.5 320 L 237.5 208 L 237.5 208 Q 238.5 193 253.5 192 Q 268.5 193 269.5 208 L 269.5 208 Z" />
</svg>