<svg xmlns="http://www.w3.org/2000/svg" viewBox="0 0 512 512">
  <path d="M 241.31472868217054 57.55038759689923 Q 232.5829457364341 51.2 223.85116279069769 57.55038759689923 L 7.937984496124031 248.06201550387595 L 7.937984496124031 248.06201550387595 Q 0 256.7937984496124 7.144186046511628 266.31937984496125 Q 15.875968992248062 274.2573643410853 25.4015503875969 267.11317829457363 L 54.77209302325581 240.91782945736435 L 54.77209302325581 240.91782945736435 L 54.77209302325581 397.29612403100776 L 54.77209302325581 397.29612403100776 Q 55.565891472868216 424.2852713178295 73.02945736434108 442.5426356589147 Q 91.28682170542636 460.0062015503876 118.27596899224807 460.8 L 300.84961240310076 460.8 L 300.84961240310076 460.8 Q 284.1798449612403 449.6868217054264 270.68527131782946 433.8108527131783 L 270.68527131782946 435.3984496124031 L 270.68527131782946 435.3984496124031 L 194.48062015503876 435.3984496124031 L 194.48062015503876 435.3984496124031 L 194.48062015503876 308.3906976744186 L 194.48062015503876 308.3906976744186 L 235.75813953488372 308.3906976744186 L 235.75813953488372 308.3906976744186 Q 238.13953488372093 295.68992248062017 243.69612403100774 282.9891472868217 L 194.48062015503876 282.9891472868217 L 194.48062015503876 282.9891472868217 Q 183.3674418604651 282.9891472868217 176.2232558139535 290.1333333333333 Q 169.07906976744187 297.277519379845 169.07906976744187 308.3906976744186 L 169.07906976744187 435.3984496124031 L 169.07906976744187 435.3984496124031 L 118.27596899224807 435.3984496124031 L 118.27596899224807 435.3984496124031 Q 102.4 434.6046511627907 91.28682170542636 424.2852713178295 Q 80.96744186046512 413.1720930232558 80.17364341085272 397.29612403100776 L 80.17364341085272 218.69147286821706 L 80.17364341085272 218.69147286821706 L 232.5829457364341 83.74573643410852 L 232.5829457364341 83.74573643410852 L 327.8387596899225 168.68217054263565 L 327.8387596899225 168.68217054263565 Q 328.63255813953486 167.88837209302326 329.4263565891473 167.09457364341085 Q 330.2201550387597 166.30077519379844 331.8077519379845 165.50697674418603 Q 340.53953488372093 157.56899224806202 352.446511627907 155.9813953488372 L 241.31472868217054 57.55038759689923 L 241.31472868217054 57.55038759689923 Z M 358.7968992248062 207.5782945736434 L 396.8992248062016 247.26821705426357 L 358.7968992248062 207.5782945736434 L 396.8992248062016 247.26821705426357 Q 400.07441860465116 251.23720930232557 405.631007751938 251.23720930232557 Q 411.1875968992248 251.23720930232557 415.1565891472868 247.26821705426357 L 431.8263565891473 228.2170542635659 L 431.8263565891473 228.2170542635659 Q 452.4651162790698 248.06201550387595 469.13488372093025 276.6387596899225 Q 485.8046511627907 306.0093023255814 486.5984496124031 333.7922480620155 Q 485.8046511627907 375.06976744186045 459.6093023255814 402.85271317829455 Q 461.1968992248062 396.5023255813953 461.1968992248062 390.1519379844961 Q 460.4031007751938 367.13178294573646 447.70232558139537 346.49302325581397 Q 434.2077519379845 325.8542635658915 418.33178294573645 310.7720930232558 Q 401.662015503876 294.89612403100773 392.1364341085271 287.7519379844961 Q 384.9922480620155 282.9891472868217 377.8480620155039 287.7519379844961 Q 368.32248062015503 294.89612403100773 351.65271317829456 310.7720930232558 Q 335.7767441860465 325.8542635658915 322.28217054263564 346.49302325581397 Q 309.5813953488372 367.13178294573646 308.7875968992248 390.1519379844961 Q 308.7875968992248 396.5023255813953 310.37519379844963 402.85271317829455 Q 284.1798449612403 375.06976744186045 283.3860465116279 333.7922480620155 Q 284.1798449612403 299.6589147286822 307.9937984496124 265.52558139534887 Q 331.8077519379845 231.3922480620155 358.7968992248062 207.5782945736434 L 358.7968992248062 207.5782945736434 Z M 384.9922480620155 435.3984496124031 Q 381.81705426356586 435.3984496124031 379.43565891472866 435.3984496124031 Q 358.7968992248062 433.0170542635659 346.88992248062016 419.522480620155 Q 334.1891472868217 406.8217054263566 334.1891472868217 390.1519379844961 Q 334.9829457364341 368.7193798449612 355.6217054263566 343.3178294573643 Q 371.4976744186047 325.8542635658915 384.9922480620155 314.74108527131784 Q 398.48682170542634 325.8542635658915 414.3627906976744 343.3178294573643 Q 435.0015503875969 368.7193798449612 435.7953488372093 390.1519379844961 Q 435.7953488372093 406.8217054263566 423.09457364341085 419.522480620155 Q 411.1875968992248 433.0170542635659 390.54883720930235 435.3984496124031 Q 390.54883720930235 435.3984496124031 390.54883720930235 435.3984496124031 Q 387.3736434108527 435.3984496124031 384.9922480620155 435.3984496124031 L 384.9922480620155 435.3984496124031 Z M 257.984496124031 333.7922480620155 Q 258.7782945736434 386.18294573643414 292.9116279069767 421.11007751937984 L 292.9116279069767 421.11007751937984 L 292.9116279069767 421.11007751937984 Q 326.25116279069766 456.831007751938 377.8480620155039 460.8 Q 381.0232558139535 460.8 384.9922480620155 460.8 Q 388.9612403100775 460.8 392.1364341085271 460.8 Q 443.73333333333335 456.831007751938 477.07286821705424 421.11007751937984 Q 510.4124031007752 386.18294573643414 512 333.7922480620155 Q 510.4124031007752 297.277519379845 491.3612403100775 263.93798449612405 Q 472.31007751937983 230.5984496124031 447.70232558139537 208.37209302325581 Q 431.8263565891473 195.67131782945737 415.95038759689925 207.5782945736434 Q 415.95038759689925 208.37209302325581 415.95038759689925 208.37209302325581 Q 415.1565891472868 208.37209302325581 415.1565891472868 209.16589147286822 L 405.631007751938 219.48527131782944 L 405.631007751938 219.48527131782944 L 375.46666666666664 188.52713178294573 L 375.46666666666664 188.52713178294573 Q 374.67286821705426 187.73333333333332 374.67286821705426 187.73333333333332 Q 374.67286821705426 187.73333333333332 374.67286821705426 187.73333333333332 Q 358.7968992248062 175.82635658914728 343.7147286821705 187.73333333333332 Q 313.5503875968992 213.13488372093022 287.35503875968993 251.23720930232557 Q 260.3658914728682 288.5457364341085 257.984496124031 333.7922480620155 L 257.984496124031 333.7922480620155 Z" />
</svg>