<svg xmlns="http://www.w3.org/2000/svg" viewBox="0 0 512 512">
  <path d="M 0 73.14286 Q 1.1428572 56 18.285715 54.857143 L 493.7143 54.857143 L 493.7143 54.857143 Q 510.85715 56 512 73.14286 Q 510.85715 90.28571 493.7143 91.42857 L 18.285715 91.42857 L 18.285715 91.42857 Q 1.1428572 90.28571 0 73.14286 L 0 73.14286 Z M 0 256 Q 1.1428572 238.85715 18.285715 237.71428 L 493.7143 237.71428 L 493.7143 237.71428 Q 510.85715 238.85715 512 256 Q 510.85715 273.14285 493.7143 274.2857 L 18.285715 274.2857 L 18.285715 274.2857 Q 1.1428572 273.14285 0 256 L 0 256 Z M 512 438.85715 Q 510.85715 456 493.7143 457.14285 L 18.285715 457.14285 L 18.285715 457.14285 Q 1.1428572 456 0 438.85715 Q 1.1428572 421.7143 18.285715 420.57144 L 493.7143 420.57144 L 493.7143 420.57144 Q 510.85715 421.7143 512 438.85715 L 512 438.85715 Z" />
</svg>