<svg xmlns="http://www.w3.org/2000/svg" viewBox="0 0 512 512">
  <path d="M 135.12578 27.447422 Q 123.513405 16.890722 111.90103 27.447422 L 10.556701 128.79175 L 10.556701 128.79175 Q 0 140.40413 10.556701 152.0165 Q 22.169073 162.5732 33.781445 152.0165 L 106.62268 80.23093 L 106.62268 80.23093 L 106.62268 478.21857 L 106.62268 478.21857 Q 107.67835 494.05362 123.513405 495.10928 Q 139.34845 494.05362 140.40413 478.21857 L 140.40413 80.23093 L 140.40413 80.23093 L 213.24536 152.0165 L 213.24536 152.0165 Q 224.85773 162.5732 236.47011 152.0165 Q 247.02681 140.40413 236.47011 128.79175 L 135.12578 27.447422 L 135.12578 27.447422 Z M 326.20206 444.4371 L 326.20206 343.09277 L 326.20206 444.4371 L 326.20206 343.09277 Q 327.25772 327.25772 343.09277 326.20206 L 444.4371 326.20206 L 444.4371 326.20206 Q 460.27216 327.25772 461.32782 343.09277 L 461.32782 444.4371 L 461.32782 444.4371 Q 460.27216 460.27216 444.4371 461.32782 L 343.09277 461.32782 L 343.09277 461.32782 Q 327.25772 460.27216 326.20206 444.4371 L 326.20206 444.4371 Z M 393.76495 60.173195 L 472.94022 191.0763 L 393.76495 60.173195 L 472.94022 191.0763 L 314.5897 191.0763 L 314.5897 191.0763 L 393.76495 60.173195 L 393.76495 60.173195 Z M 279.75256 184.74226 Q 275.5299 191.0763 275.5299 198.46597 Q 277.64124 222.7464 301.92166 224.85773 L 485.60825 224.85773 L 485.60825 224.85773 Q 509.88867 222.7464 512 198.46597 Q 512 191.0763 507.7773 184.74226 L 419.10104 36.948452 L 419.10104 36.948452 Q 410.65567 22.169073 393.76495 22.169073 Q 376.87424 22.169073 368.42886 36.948452 L 279.75256 184.74226 L 279.75256 184.74226 Z M 292.42062 444.4371 Q 293.4763 465.5505 307.2 480.3299 L 307.2 480.3299 L 307.2 480.3299 Q 321.97937 494.05362 343.09277 495.10928 L 444.4371 495.10928 L 444.4371 495.10928 Q 465.5505 494.05362 480.3299 480.3299 Q 494.05362 465.5505 495.10928 444.4371 L 495.10928 343.09277 L 495.10928 343.09277 Q 494.05362 321.97937 480.3299 307.2 Q 465.5505 293.4763 444.4371 292.42062 L 343.09277 292.42062 L 343.09277 292.42062 Q 321.97937 293.4763 307.2 307.2 Q 293.4763 321.97937 292.42062 343.09277 L 292.42062 444.4371 L 292.42062 444.4371 Z" />
</svg>