<svg xmlns="http://www.w3.org/2000/svg" viewBox="0 0 512 512">
  <path d="M 352 146.28572 Q 352 116.57143 331.42856 93.71429 L 331.42856 93.71429 L 331.42856 93.71429 Q 308.57144 73.14286 278.85715 73.14286 Q 217.14285 77.71429 205.71428 137.14285 L 164.57143 425.14285 L 164.57143 425.14285 Q 164.57143 436.57144 176 438.85715 Q 185.14285 438.85715 187.42857 432 L 338.2857 201.14285 L 338.2857 201.14285 Q 352 180.57143 352 155.42857 L 352 146.28572 L 352 146.28572 Z M 425.14285 146.28572 L 425.14285 155.42857 L 425.14285 146.28572 L 425.14285 155.42857 Q 425.14285 201.14285 400 240 L 249.14285 473.14285 L 249.14285 473.14285 Q 224 509.7143 178.28572 512 Q 137.14285 509.7143 112 482.2857 Q 86.85714 454.85715 91.42857 413.7143 L 132.57143 125.71429 L 132.57143 125.71429 Q 141.71428 70.85714 182.85715 36.57143 Q 221.71428 0 278.85715 0 Q 340.57144 2.2857144 381.7143 43.42857 Q 422.85715 84.57143 425.14285 146.28572 L 425.14285 146.28572 Z" />
</svg>