<svg xmlns="http://www.w3.org/2000/svg" viewBox="0 0 512 512">
  <path d="M 284.44446 113.77778 Q 296.8889 113.77778 304.8889 121.77778 L 304.8889 121.77778 L 304.8889 121.77778 Q 312.8889 129.77777 312.8889 142.22223 L 312.8889 369.77777 L 312.8889 369.77777 Q 312.8889 382.22223 304.8889 390.22223 Q 296.8889 398.22223 284.44446 398.22223 L 56.88889 398.22223 L 56.88889 398.22223 Q 44.444443 398.22223 36.444443 390.22223 Q 28.444445 382.22223 28.444445 369.77777 L 28.444445 142.22223 L 28.444445 142.22223 Q 28.444445 129.77777 36.444443 121.77778 Q 44.444443 113.77778 56.88889 113.77778 L 284.44446 113.77778 L 284.44446 113.77778 Z M 56.88889 85.333336 Q 32.88889 86.22222 16.88889 102.22222 L 16.88889 102.22222 L 16.88889 102.22222 Q 0.8888889 118.22222 0 142.22223 L 0 369.77777 L 0 369.77777 Q 0.8888889 393.77777 16.88889 409.77777 Q 32.88889 425.77777 56.88889 426.66666 L 284.44446 426.66666 L 284.44446 426.66666 Q 308.44446 425.77777 324.44446 409.77777 Q 340.44446 393.77777 341.33334 369.77777 L 341.33334 328 L 341.33334 328 L 341.33334 184 L 341.33334 184 L 341.33334 142.22223 L 341.33334 142.22223 Q 340.44446 118.22222 324.44446 102.22222 Q 308.44446 86.22222 284.44446 85.333336 L 56.88889 85.333336 L 56.88889 85.333336 Z M 369.77777 343.1111 L 461.33334 393.77777 L 369.77777 343.1111 L 461.33334 393.77777 Q 469.33334 398.22223 478.22223 398.22223 Q 492.44446 398.22223 502.22223 388.44446 Q 512 378.66666 512 364.44446 L 512 147.55556 L 512 147.55556 Q 512 133.33333 502.22223 123.55556 Q 492.44446 113.77778 478.22223 113.77778 Q 469.33334 113.77778 461.33334 118.22222 L 369.77777 168.88889 L 369.77777 168.88889 L 369.77777 200.88889 L 369.77777 200.88889 L 475.55554 143.11111 L 475.55554 143.11111 Q 476.44446 142.22223 478.22223 142.22223 Q 482.66666 142.22223 483.55554 147.55556 L 483.55554 364.44446 L 483.55554 364.44446 Q 482.66666 368.8889 478.22223 369.77777 Q 476.44446 369.77777 475.55554 368.8889 L 369.77777 311.1111 L 369.77777 311.1111 L 369.77777 343.1111 L 369.77777 343.1111 Z M 142.22223 170.66667 Q 128.88889 171.55556 128 184.88889 Q 128.88889 198.22223 142.22223 199.11111 L 207.11111 199.11111 L 207.11111 199.11111 L 89.77778 317.33334 L 89.77778 317.33334 Q 80.888885 327.1111 89.77778 336.8889 Q 99.55556 345.77777 109.333336 336.8889 L 227.55556 219.55556 L 227.55556 219.55556 L 227.55556 284.44446 L 227.55556 284.44446 Q 228.44444 297.77777 241.77777 298.66666 Q 255.11111 297.77777 256 284.44446 L 256 184.88889 L 256 184.88889 Q 255.11111 171.55556 241.77777 170.66667 L 142.22223 170.66667 L 142.22223 170.66667 Z" />
</svg>