<svg xmlns="http://www.w3.org/2000/svg" viewBox="0 0 512 448">
    <path d="M 32 64 Q 32 50 41 41 L 41 41 Q 50 32 64 32 L 128 32 L 128 208 L 128 240 L 128 416 L 64 416 Q 50 416 41 407 Q 32 398 32 384 L 32 64 L 32 64 Z M 160 240 L 480 240 L 480 384 Q 480 398 471 407 Q 462 416 448 416 L 160 416 L 160 240 L 160 240 Z M 480 208 L 160 208 L 160 32 L 448 32 Q 462 32 471 41 Q 480 50 480 64 L 480 208 L 480 208 Z M 0 384 Q 1 411 19 429 L 19 429 Q 37 447 64 448 L 448 448 Q 475 447 493 429 Q 511 411 512 384 L 512 64 Q 511 37 493 19 Q 475 1 448 0 L 64 0 Q 37 1 19 19 Q 1 37 0 64 L 0 384 L 0 384 Z"/>
</svg>
