<svg xmlns="http://www.w3.org/2000/svg" viewBox="0 0 512 512">
  <path d="M 256 244 Q 269.33334 243.11111 270.22223 229.77777 L 270.22223 79.55556 L 270.22223 79.55556 L 317.33334 125.77778 L 317.33334 125.77778 Q 327.1111 134.66667 336.8889 125.77778 Q 345.77777 116 336.8889 106.22222 L 265.77777 35.11111 L 265.77777 35.11111 Q 256 26.222221 246.22223 35.11111 L 175.11111 106.22222 L 175.11111 106.22222 Q 166.22223 116 175.11111 125.77778 Q 184.88889 134.66667 194.66667 125.77778 L 241.77777 79.55556 L 241.77777 79.55556 L 241.77777 229.77777 L 241.77777 229.77777 Q 242.66667 243.11111 256 244 L 256 244 Z M 119.111115 438.66666 Q 106.666664 429.77777 96 419.1111 Q 85.333336 410.22223 74.666664 419.1111 Q 64.888885 429.77777 51.555557 438.66666 Q 34.666668 451.1111 12.444445 456.44446 Q 0.8888889 459.1111 0 469.77777 Q 1.7777778 484.8889 16 484 Q 47.11111 476.8889 67.55556 461.77777 Q 78.22222 454.66666 85.333336 448.44446 Q 92.44444 454.66666 103.111115 461.77777 Q 115.55556 470.66666 133.33333 477.77777 Q 150.22223 485.77777 170.66667 485.77777 Q 191.11111 485.77777 208 477.77777 Q 225.77777 470.66666 238.22223 461.77777 Q 248.88889 454.66666 256 448.44446 Q 263.1111 454.66666 273.77777 461.77777 Q 286.22223 470.66666 304 477.77777 Q 320.8889 485.77777 341.33334 485.77777 Q 361.77777 485.77777 378.66666 477.77777 Q 396.44446 470.66666 408.8889 461.77777 Q 419.55554 454.66666 426.66666 448.44446 Q 433.77777 454.66666 444.44446 461.77777 Q 464.8889 476.8889 496 484 Q 510.22223 484.8889 512 469.77777 Q 511.1111 459.1111 499.55554 456.44446 Q 477.33334 451.1111 460.44446 438.66666 Q 447.1111 429.77777 437.33334 419.1111 Q 426.66666 410.22223 416 419.1111 Q 406.22223 429.77777 392.8889 438.66666 Q 369.77777 455.55554 341.33334 457.33334 Q 312.8889 455.55554 289.77777 438.66666 Q 276.44446 429.77777 266.66666 419.1111 Q 256 410.22223 245.33333 419.1111 Q 235.55556 429.77777 222.22223 438.66666 Q 199.11111 455.55554 170.66667 457.33334 Q 142.22223 455.55554 119.111115 438.66666 L 119.111115 438.66666 Z M 170.66667 343.55554 Q 142.22223 341.77777 119.111115 324.8889 Q 106.666664 316 96 305.33334 Q 85.333336 296.44446 74.666664 305.33334 Q 64.888885 316 51.555557 324.8889 Q 34.666668 337.33334 12.444445 342.66666 Q 0.8888889 345.33334 0 356 Q 1.7777778 371.1111 16 370.22223 Q 47.11111 363.1111 67.55556 348 Q 78.22222 340.8889 85.333336 334.66666 Q 92.44444 340.8889 103.111115 348 Q 115.55556 356.8889 133.33333 364 Q 150.22223 372 170.66667 372 Q 191.11111 372 208 364 Q 225.77777 356.8889 238.22223 348 Q 248.88889 340.8889 256 334.66666 Q 263.1111 340.8889 273.77777 348 Q 286.22223 356.8889 304 364 Q 320.8889 372 341.33334 372 Q 361.77777 372 378.66666 364 Q 396.44446 356.8889 408.8889 348 Q 419.55554 340.8889 426.66666 334.66666 Q 433.77777 340.8889 444.44446 348 Q 464.8889 363.1111 496 370.22223 Q 510.22223 371.1111 512 356 Q 511.1111 345.33334 499.55554 342.66666 Q 477.33334 337.33334 460.44446 324.8889 Q 447.1111 316 437.33334 305.33334 Q 426.66666 296.44446 416 305.33334 Q 406.22223 316 392.8889 324.8889 Q 369.77777 341.77777 341.33334 343.55554 Q 312.8889 341.77777 289.77777 324.8889 Q 276.44446 316 266.66666 305.33334 Q 256 296.44446 245.33333 305.33334 Q 235.55556 316 222.22223 324.8889 Q 199.11111 341.77777 170.66667 343.55554 L 170.66667 343.55554 Z" />
</svg>