<svg xmlns="http://www.w3.org/2000/svg" viewBox="0 0 512 512">
  <path d="M 105.411766 105.411766 L 30.117647 105.411766 L 105.411766 105.411766 L 30.117647 105.411766 L 30.117647 346.35294 L 30.117647 346.35294 Q 31.058823 371.7647 48 388.70587 Q 64.94118 405.64706 90.35294 406.58823 L 271.05884 406.58823 L 271.05884 406.58823 Q 296.47058 405.64706 313.41177 388.70587 Q 330.35294 371.7647 331.29413 346.35294 L 331.29413 271.05884 L 331.29413 271.05884 L 331.29413 105.411766 L 331.29413 105.411766 L 301.17648 105.411766 L 135.52942 105.411766 L 135.52942 144 L 135.52942 144 L 170.35294 172.23529 L 170.35294 172.23529 Q 180.70589 181.64706 180.70589 195.76471 L 180.70589 256 L 180.70589 256 Q 180.70589 269.17648 172.23529 277.64706 Q 163.76471 286.11765 150.58824 286.11765 L 90.35294 286.11765 L 90.35294 286.11765 Q 77.17647 286.11765 68.70588 277.64706 Q 60.235294 269.17648 60.235294 256 L 60.235294 195.76471 L 60.235294 195.76471 Q 60.235294 181.64706 71.52941 172.23529 L 105.411766 144 L 105.411766 144 L 105.411766 105.411766 L 105.411766 105.411766 Z M 120.47059 75.29412 L 301.17648 75.29412 L 120.47059 75.29412 L 406.58823 75.29412 Q 451.7647 76.23529 480.94116 106.35294 Q 511.05884 135.52942 512 180.70589 Q 511.05884 225.88235 480.94116 255.05882 Q 451.7647 285.17648 406.58823 286.11765 L 361.41177 286.11765 L 361.41177 286.11765 L 361.41177 346.35294 L 361.41177 346.35294 Q 360.47058 384.94116 335.05884 410.35294 Q 309.64706 435.7647 271.05884 436.70587 L 90.35294 436.70587 L 90.35294 436.70587 Q 51.764706 435.7647 26.352942 410.35294 Q 0.9411765 384.94116 0 346.35294 L 0 105.411766 L 0 105.411766 Q 0 92.23529 8.470589 83.76471 Q 16.941177 75.29412 30.117647 75.29412 L 120.47059 75.29412 L 120.47059 75.29412 Z M 406.58823 105.411766 L 361.41177 105.411766 L 406.58823 105.411766 L 361.41177 105.411766 L 361.41177 256 L 361.41177 256 L 406.58823 256 L 406.58823 256 Q 438.58823 255.05882 460.2353 234.35294 Q 480.94116 212.70589 481.88235 180.70589 Q 480.94116 148.70589 460.2353 127.05882 Q 438.58823 106.35294 406.58823 105.411766 L 406.58823 105.411766 Z M 90.35294 256 L 150.58824 256 L 90.35294 256 L 150.58824 256 L 150.58824 195.76471 L 150.58824 195.76471 L 120.47059 170.35294 L 120.47059 170.35294 L 90.35294 195.76471 L 90.35294 195.76471 L 90.35294 256 L 90.35294 256 Z" />
</svg>