<svg xmlns="http://www.w3.org/2000/svg" viewBox="0 0 512 512">
  <path d="M 435.2 256 Q 435.2 281.6 428 305.6 Q 420.8 334.4 436 357.6 Q 436 357.6 436 357.6 Q 436.8 358.4 437.6 359.2 Q 420 363.2 408 376.8 Q 396.8 390.4 396.8 409.6 Q 396.8 424 404 435.2 L 256 435.2 L 80.8 435.2 Q 89.6 423.2 94.4 412 Q 101.6 395.2 103.2 374.4 Q 104 354.4 95.2 336 Q 76.8 299.2 76.8 256 Q 77.6 205.6 101.6 165.6 Q 124.8 124.8 165.6 101.6 Q 205.6 77.6 256 76.8 Q 306.4 77.6 346.4 101.6 Q 387.2 124.8 410.4 165.6 Q 434.4 205.6 435.2 256 L 435.2 256 Z M 12.8 460.8 L 32.8 460.8 L 12.8 460.8 L 448 460.8 Q 460 460 460.8 448 Q 460 436 448 435.2 Q 436.8 435.2 429.6 428 Q 422.4 420.8 422.4 409.6 Q 422.4 398.4 429.6 391.2 Q 436.8 384 448 384 L 483.2 384 L 499.2 384 Q 511.2 383.2 512 371.2 Q 511.2 359.2 499.2 358.4 L 483.2 358.4 L 483.2 358.4 Q 466.4 357.6 457.6 343.2 Q 448.8 329.6 452.8 312.8 Q 460.8 285.6 460.8 256 Q 460 198.4 432.8 152.8 Q 405.6 106.4 359.2 79.2 Q 313.6 52 256 51.2 Q 198.4 52 152.8 79.2 Q 106.4 106.4 79.2 152.8 Q 52 198.4 51.2 256 Q 52 305.6 72.8 347.2 Q 80 363.2 76 383.2 Q 72.8 403.2 61.6 419.2 Q 49.6 434.4 32.8 435.2 L 12.8 435.2 L 12.8 435.2 Q 0.8 436 0 448 Q 0.8 460 12.8 460.8 L 12.8 460.8 Z M 199.2 220.8 Q 216.8 224 223.2 207.2 Q 225.6 189.6 209.6 184 Q 192 180.8 185.6 197.6 Q 183.2 215.2 199.2 220.8 L 199.2 220.8 Z M 346.4 240.8 Q 349.6 223.2 332.8 216.8 Q 315.2 214.4 309.6 230.4 Q 306.4 248 323.2 254.4 Q 340.8 256.8 346.4 240.8 L 346.4 240.8 Z M 170.4 277.6 Q 164.8 268 153.6 272 Q 143.2 278.4 147.2 288.8 Q 156 308 175.2 326.4 Q 194.4 344.8 226.4 354.4 Q 258.4 362.4 284 356 Q 309.6 349.6 327.2 336.8 Q 336 329.6 330.4 319.2 Q 323.2 310.4 312.8 316 Q 299.2 325.6 278.4 330.4 Q 258.4 336 232.8 329.6 Q 208 322.4 192.8 308 Q 177.6 292.8 170.4 277.6 L 170.4 277.6 Z" />
</svg>