<svg xmlns="http://www.w3.org/2000/svg" viewBox="0 0 512 512">
  <path d="M 128 102.4 Q 116.8 102.4 109.6 109.6 L 109.6 109.6 L 109.6 109.6 Q 102.4 116.8 102.4 128 L 102.4 166.4 L 102.4 166.4 Q 132.8 181.6 134.4 217.6 Q 132.8 253.6 102.4 269.6 L 102.4 307.2 L 102.4 307.2 Q 102.4 318.4 109.6 325.6 Q 116.8 332.8 128 332.8 L 460.8 332.8 L 460.8 332.8 Q 472 332.8 479.2 325.6 Q 486.4 318.4 486.4 307.2 L 486.4 269.6 L 486.4 269.6 Q 456 253.6 454.4 217.6 Q 456 181.6 486.4 166.4 L 486.4 128 L 486.4 128 Q 486.4 116.8 479.2 109.6 Q 472 102.4 460.8 102.4 L 128 102.4 L 128 102.4 Z M 489.6 164.8 L 489.6 164.8 L 489.6 164.8 L 489.6 164.8 L 489.6 164.8 L 489.6 164.8 Q 489.6 164.8 489.6 164.8 Q 489.6 164.8 489.6 164.8 L 489.6 164.8 Z M 489.6 270.4 L 489.6 270.4 L 489.6 270.4 L 489.6 270.4 Q 489.6 270.4 489.6 270.4 L 489.6 270.4 Z M 99.2 270.4 L 99.2 270.4 L 99.2 270.4 L 99.2 270.4 L 99.2 270.4 L 99.2 270.4 Z M 99.2 164.8 L 99.2 164.8 L 99.2 164.8 L 99.2 164.8 L 99.2 164.8 L 99.2 164.8 Z M 128 76.8 L 460.8 76.8 L 128 76.8 L 460.8 76.8 Q 482.4 77.6 496.8 92 Q 511.2 106.4 512 128 L 512 172.8 L 512 172.8 Q 510.4 184 499.2 188 Q 480.8 196.8 480 217.6 Q 480.8 238.4 499.2 247.2 Q 510.4 251.2 512 262.4 L 512 307.2 L 512 307.2 Q 511.2 328.8 496.8 343.2 Q 482.4 357.6 460.8 358.4 L 128 358.4 L 128 358.4 Q 106.4 357.6 92 343.2 Q 77.6 328.8 76.8 307.2 L 76.8 262.4 L 76.8 262.4 Q 78.4 251.2 89.6 247.2 Q 108 238.4 108.8 217.6 Q 108 196.8 89.6 188 Q 78.4 184 76.8 172.8 L 76.8 128 L 76.8 128 Q 77.6 106.4 92 92 Q 106.4 77.6 128 76.8 L 128 76.8 Z M 12.8 128 Q 24.8 128.8 25.6 140.8 L 25.6 345.6 L 25.6 345.6 Q 26.4 372.8 44 391.2 Q 62.4 408.8 89.6 409.6 L 422.4 409.6 L 422.4 409.6 Q 434.4 410.4 435.2 422.4 Q 434.4 434.4 422.4 435.2 L 89.6 435.2 L 89.6 435.2 Q 51.2 434.4 26.4 408.8 Q 0.8 384 0 345.6 L 0 140.8 L 0 140.8 Q 0.8 128.8 12.8 128 L 12.8 128 Z M 204.8 179.2 L 204.8 256 L 204.8 179.2 L 204.8 256 L 384 256 L 384 256 L 384 179.2 L 384 179.2 L 204.8 179.2 L 204.8 179.2 Z M 179.2 179.2 Q 179.2 168 186.4 160.8 L 186.4 160.8 L 186.4 160.8 Q 193.6 153.6 204.8 153.6 L 384 153.6 L 384 153.6 Q 395.2 153.6 402.4 160.8 Q 409.6 168 409.6 179.2 L 409.6 256 L 409.6 256 Q 409.6 267.2 402.4 274.4 Q 395.2 281.6 384 281.6 L 204.8 281.6 L 204.8 281.6 Q 193.6 281.6 186.4 274.4 Q 179.2 267.2 179.2 256 L 179.2 179.2 L 179.2 179.2 Z" />
</svg>