<svg xmlns="http://www.w3.org/2000/svg" viewBox="0 0 640 512">
    <path d="M 576 32 L 224 32 Q 210 32 201 41 Q 192 50 192 64 L 192 100 Q 177 96 160 96 L 160 64 Q 161 37 179 19 Q 197 1 224 0 L 576 0 Q 603 1 621 19 Q 639 37 640 64 L 640 352 Q 639 379 621 397 Q 603 415 576 416 L 560 416 L 400 416 L 384 416 L 337 416 Q 329 399 317 384 L 384 384 L 384 336 Q 385 316 398 302 Q 412 289 432 288 L 528 288 Q 548 289 562 302 Q 575 316 576 336 L 576 384 Q 590 384 599 375 Q 608 366 608 352 L 608 64 Q 608 50 599 41 Q 590 32 576 32 L 576 32 Z M 544 384 L 544 336 Q 543 321 528 320 L 432 320 Q 417 321 416 336 L 416 384 L 544 384 L 544 384 Z M 224 224 Q 223 188 192 169 Q 160 151 128 169 Q 97 188 96 224 Q 97 260 128 279 Q 160 297 192 279 Q 223 260 224 224 L 224 224 Z M 64 224 Q 64 198 77 176 L 77 176 Q 90 154 112 141 Q 135 128 160 128 Q 185 128 208 141 Q 230 154 243 176 Q 256 198 256 224 Q 256 250 243 272 Q 230 294 208 307 Q 185 320 160 320 Q 135 320 112 307 Q 90 294 77 272 Q 64 250 64 224 L 64 224 Z M 32 480 L 288 480 Q 285 439 257 412 Q 228 385 187 384 L 133 384 Q 92 385 63 412 Q 35 439 32 480 L 32 480 Z M 0 485 Q 1 429 39 391 L 39 391 Q 77 353 133 352 L 187 352 Q 243 353 281 391 Q 319 429 320 485 Q 318 510 293 512 L 27 512 Q 2 510 0 485 L 0 485 Z"/>
</svg>
