<svg xmlns="http://www.w3.org/2000/svg" viewBox="0 0 576 448">
    <path d="M 96 80 Q 97 60 110 46 L 110 46 Q 124 33 144 32 L 304 32 Q 319 31 320 16 Q 319 1 304 0 L 144 0 Q 110 1 87 23 Q 65 46 64 80 L 64 128 Q 37 129 19 147 Q 1 165 0 192 L 0 384 Q 1 411 19 429 Q 37 447 64 448 L 320 448 Q 347 447 365 429 Q 383 411 384 384 L 384 367 L 384 209 L 384 192 Q 383 165 365 147 Q 347 129 320 128 L 96 128 L 96 80 L 96 80 Z M 80 160 L 320 160 Q 334 160 343 169 Q 352 178 352 192 L 352 384 Q 352 398 343 407 Q 334 416 320 416 L 64 416 Q 50 416 41 407 Q 32 398 32 384 L 32 192 Q 32 178 41 169 Q 50 160 64 160 L 80 160 L 80 160 Z M 520 429 Q 528 432 537 432 Q 553 432 564 420 Q 576 409 576 393 L 576 184 Q 576 167 564 156 Q 553 144 537 144 Q 528 144 520 148 L 416 194 L 416 230 L 533 177 Q 535 176 537 176 Q 543 177 544 184 L 544 393 Q 543 399 537 400 Q 535 400 533 399 L 416 347 L 416 382 L 520 429 L 520 429 Z M 64 208 Q 65 223 80 224 L 304 224 Q 319 223 320 208 Q 319 193 304 192 L 80 192 Q 65 193 64 208 L 64 208 Z"/>
</svg>
