<svg xmlns="http://www.w3.org/2000/svg" viewBox="0 0 512 512">
  <path d="M 415.0822 0 Q 392.56598 0 376.9025 15.66348 L 229.0784 163.48756 L 229.0784 163.48756 Q 215.37285 178.17209 203.62524 194.81453 L 130.20268 304.4589 L 130.20268 304.4589 Q 121.39197 319.1434 108.66539 330.89102 L 39.1587 400.3977 L 39.1587 400.3977 L 34.263863 396.48184 L 34.263863 396.48184 Q 23.49522 386.69217 12.726578 396.48184 Q 2.9369025 407.2505 12.726578 418.01913 L 16.642447 422.91397 L 16.642447 422.91397 L 28.390057 433.6826 L 28.390057 433.6826 L 75.3805 480.67303 L 75.3805 480.67303 L 86.14914 492.42065 L 86.14914 492.42065 L 91.043976 496.33652 L 91.043976 496.33652 Q 101.81262 506.1262 112.58126 496.33652 Q 122.37093 485.56787 112.58126 474.79922 L 108.66539 469.9044 L 108.66539 469.9044 L 178.17209 400.3977 L 178.17209 400.3977 Q 189.9197 387.67114 204.6042 378.8604 L 314.24857 305.43787 L 314.24857 305.43787 Q 330.89102 293.69025 345.57553 279.9847 L 493.39963 132.16061 L 493.39963 132.16061 Q 509.0631 116.49713 509.0631 93.98088 Q 509.0631 71.46463 493.39963 55.801147 L 453.26196 15.66348 L 453.26196 15.66348 Q 437.59848 0 415.0822 0 L 415.0822 0 Z M 86.14914 447.38815 L 61.674953 422.91397 L 86.14914 447.38815 L 61.674953 422.91397 L 131.18164 353.40726 L 131.18164 353.40726 Q 131.18164 352.42828 131.18164 352.42828 Q 132.16061 351.44934 133.13957 351.44934 L 157.61377 375.92352 L 157.61377 375.92352 Q 157.61377 376.9025 156.6348 376.9025 Q 156.6348 377.88144 155.65584 377.88144 L 86.14914 447.38815 L 86.14914 447.38815 Z M 182.08795 356.34418 L 153.69789 326.97513 L 182.08795 356.34418 L 153.69789 326.97513 Q 153.69789 325.9962 153.69789 325.0172 Q 155.65584 324.03824 156.6348 322.0803 L 230.05736 212.43594 L 230.05736 212.43594 Q 238.86807 197.75143 251.59465 186.00383 L 399.41873 38.179733 L 399.41873 38.179733 Q 406.2715 31.32696 415.0822 31.32696 Q 423.8929 31.32696 430.7457 38.179733 L 470.88336 78.3174 L 470.88336 78.3174 Q 477.73615 85.17017 477.73615 93.98088 Q 477.73615 102.79159 470.88336 109.644356 L 323.05927 257.46844 L 323.05927 257.46844 Q 311.31168 270.19504 296.62714 279.00574 L 186.98279 352.42828 L 186.98279 352.42828 Q 186.00383 353.40726 185.02486 354.38623 Q 183.06693 355.3652 182.08795 355.3652 L 182.08795 356.34418 Z M 383.75525 422.91397 Q 384.73422 396.48184 407.2505 381.79733 Q 430.7457 370.0497 454.2409 381.79733 Q 476.75717 396.48184 477.73615 422.91397 Q 476.75717 449.34607 454.2409 464.03058 Q 430.7457 475.7782 407.2505 464.03058 Q 384.73422 449.34607 383.75525 422.91397 L 383.75525 422.91397 Z M 509.0631 422.91397 Q 508.08414 378.8604 469.9044 355.3652 Q 430.7457 333.8279 391.587 355.3652 Q 353.40726 378.8604 352.42828 422.91397 Q 353.40726 466.9675 391.587 490.4627 Q 430.7457 512 469.9044 490.4627 Q 508.08414 466.9675 509.0631 422.91397 L 509.0631 422.91397 Z" />
</svg>