<svg xmlns="http://www.w3.org/2000/svg" viewBox="0 0 448 512">
    <path d="M 320 128 Q 320 120 319 112 L 289 112 Q 266 112 249 96 L 243 89 Q 212 127 162 128 L 128 128 L 128 144 Q 129 185 156 212 Q 183 239 224 240 Q 265 239 292 212 Q 319 185 320 144 L 320 128 L 320 128 Z M 229 53 Q 240 43 251 53 L 272 73 Q 279 80 289 80 L 307 80 Q 294 58 273 45 Q 251 32 224 32 Q 192 33 168 50 Q 144 68 134 96 L 162 96 Q 205 94 226 57 Q 227 55 229 53 L 229 53 Z M 96 128 Q 97 74 133 37 L 133 37 Q 170 1 224 0 Q 278 1 315 37 Q 351 74 352 128 L 352 144 Q 351 198 315 235 Q 278 271 224 272 Q 170 271 133 235 Q 97 198 96 144 L 96 128 L 96 128 Z M 176 336 L 176 371 Q 206 383 208 416 Q 207 436 194 450 Q 180 463 160 464 Q 140 463 126 450 Q 113 436 112 416 Q 114 383 144 371 L 144 340 Q 95 352 64 390 Q 33 428 32 480 L 416 480 Q 415 432 389 396 Q 362 360 320 345 L 320 370 Q 338 376 349 390 Q 360 405 360 424 L 360 448 Q 359 463 344 464 L 328 464 Q 313 463 312 448 Q 313 433 328 432 L 328 424 Q 326 402 304 400 Q 282 402 280 424 L 280 432 Q 295 433 296 448 Q 295 463 280 464 L 264 464 Q 249 463 248 448 L 248 424 Q 248 405 259 390 Q 270 376 288 370 L 288 337 Q 280 336 271 336 L 177 336 L 176 336 L 176 336 Z M 144 416 Q 145 431 160 432 Q 175 431 176 416 Q 175 401 160 400 Q 145 401 144 416 L 144 416 Z M 0 481 Q 2 406 52 356 L 52 356 Q 102 306 177 304 L 271 304 Q 346 306 396 356 Q 446 406 448 481 Q 448 494 439 503 Q 430 512 417 512 L 31 512 Q 18 512 9 503 Q 0 494 0 481 L 0 481 Z"/>
</svg>
