<svg xmlns="http://www.w3.org/2000/svg" viewBox="0 0 512 512">
  <path d="M 272 16 L 272 112 L 272 16 L 272 112 Q 271 127 256 128 Q 241 127 240 112 L 240 16 L 240 16 Q 241 1 256 0 Q 271 1 272 16 L 272 16 Z M 272 400 L 272 496 L 272 400 L 272 496 Q 271 511 256 512 Q 241 511 240 496 L 240 400 L 240 400 Q 241 385 256 384 Q 271 385 272 400 L 272 400 Z M 0 256 Q 1 241 16 240 L 112 240 L 112 240 Q 127 241 128 256 Q 127 271 112 272 L 16 272 L 16 272 Q 1 271 0 256 L 0 256 Z M 400 240 L 496 240 L 400 240 L 496 240 Q 511 241 512 256 Q 511 271 496 272 L 400 272 L 400 272 Q 385 271 384 256 Q 385 241 400 240 L 400 240 Z M 437 75 Q 446 86 437 98 L 369 166 L 369 166 Q 358 175 347 166 Q 337 154 347 143 L 414 75 L 414 75 Q 426 66 437 75 L 437 75 Z M 166 369 L 98 437 L 166 369 L 98 437 Q 86 446 75 437 Q 66 426 75 414 L 143 347 L 143 347 Q 154 337 166 347 Q 175 358 166 369 L 166 369 Z M 75 75 Q 86 66 98 75 L 166 143 L 166 143 Q 175 154 166 166 Q 154 175 143 166 L 75 98 L 75 98 Q 66 86 75 75 L 75 75 Z M 369 347 L 437 414 L 369 347 L 437 414 Q 446 426 437 437 Q 426 446 414 437 L 347 369 L 347 369 Q 337 358 347 347 Q 358 337 369 347 L 369 347 Z" />
</svg>