<svg xmlns="http://www.w3.org/2000/svg" viewBox="0 0 469 453">
    <path d="M 385 141 Q 356 140 340 115 Q 326 89 340 63 Q 356 38 385 37 Q 414 38 430 63 Q 444 89 430 115 Q 414 140 385 141 L 385 141 Z M 301 89 Q 302 125 326 148 L 326 148 Q 349 172 385 173 Q 385 173 386 173 Q 386 173 386 173 L 361 203 Q 352 215 363 225 Q 375 234 385 224 L 448 151 Q 469 126 469 93 L 469 93 Q 469 91 469 89 Q 468 53 444 30 Q 421 6 385 5 Q 349 6 326 30 Q 302 53 301 89 L 301 89 Z M 128 10 Q 117 0 106 10 L 10 106 Q 0 117 10 128 Q 21 138 32 128 L 101 60 L 101 437 Q 102 452 117 453 Q 132 452 133 437 L 133 60 L 202 128 Q 213 138 224 128 Q 234 117 224 106 L 128 10 L 128 10 Z M 405 277 Q 405 269 398 264 Q 392 259 384 262 L 336 278 Q 323 284 326 298 Q 332 311 346 308 L 373 299 L 373 421 L 341 421 Q 326 422 325 437 Q 326 452 341 453 L 389 453 L 437 453 Q 452 452 453 437 Q 452 422 437 421 L 405 421 L 405 277 L 405 277 Z"/>
</svg>
