<svg xmlns="http://www.w3.org/2000/svg" viewBox="0 0 512 512">
  <path d="M 160 280 L 160 337 L 160 280 L 160 337 Q 159 343 153 344 Q 150 344 148 342 L 36 216 L 36 216 L 148 90 L 148 90 Q 150 88 153 88 Q 159 89 160 95 L 160 152 L 160 152 Q 160 166 169 175 Q 178 184 192 184 L 368 184 L 368 184 Q 416 185 447 217 Q 479 248 480 296 L 480 408 L 480 408 Q 479 423 464 424 L 432 424 L 432 424 Q 417 423 416 408 L 416 296 L 416 296 Q 415 276 402 262 Q 388 249 368 248 L 192 248 L 192 248 Q 178 248 169 257 Q 160 266 160 280 L 160 280 Z M 5 202 Q 0 208 0 216 Q 0 224 5 230 L 125 363 L 125 363 Q 136 376 153 376 Q 170 376 181 365 Q 192 354 192 337 L 192 312 L 192 312 L 192 280 L 192 280 L 224 280 L 368 280 Q 383 281 384 296 L 384 408 L 384 408 Q 385 428 398 442 Q 412 455 432 456 L 464 456 L 464 456 Q 484 455 498 442 Q 511 428 512 408 L 512 296 L 512 296 Q 510 235 470 194 Q 429 154 368 152 L 224 152 L 192 152 L 192 120 L 192 120 L 192 95 L 192 95 Q 192 78 181 67 Q 170 56 153 56 Q 136 56 125 69 L 5 202 L 5 202 Z" />
</svg>