<svg xmlns="http://www.w3.org/2000/svg" viewBox="0 0 512 512">
  <path d="M 253.71428 36.57143 L 258.2857 36.57143 L 253.71428 36.57143 L 258.2857 36.57143 Q 266.2857 36.57143 272 42.285713 L 435.42856 213.71428 L 435.42856 213.71428 Q 438.85715 217.14285 438.85715 224 Q 437.7143 236.57143 424 237.71428 L 329.14285 237.71428 L 329.14285 237.71428 Q 312 238.85715 310.85715 256 L 310.85715 457.14285 L 310.85715 457.14285 Q 309.7143 474.2857 292.57144 475.42856 L 219.42857 475.42856 L 219.42857 475.42856 Q 202.28572 474.2857 201.14285 457.14285 L 201.14285 256 L 201.14285 256 Q 200 238.85715 182.85715 237.71428 L 88 237.71428 L 88 237.71428 Q 74.28571 236.57143 73.14286 222.85715 Q 73.14286 217.14285 77.71429 213.71428 L 240 42.285713 L 240 42.285713 Q 245.71428 36.57143 253.71428 36.57143 L 253.71428 36.57143 Z M 475.42856 222.85715 Q 475.42856 203.42857 461.7143 188.57143 L 298.2857 17.142857 L 298.2857 17.142857 Q 282.2857 0 258.2857 0 L 253.71428 0 L 253.71428 0 Q 229.71428 0 213.71428 17.142857 L 50.285713 188.57143 L 50.285713 188.57143 Q 36.57143 203.42857 36.57143 222.85715 Q 36.57143 244.57143 51.42857 259.42856 Q 66.28571 274.2857 88 274.2857 L 164.57143 274.2857 L 164.57143 274.2857 L 164.57143 457.14285 L 164.57143 457.14285 Q 165.71428 480 180.57143 496 Q 196.57143 510.85715 219.42857 512 L 292.57144 512 L 292.57144 512 Q 315.42856 510.85715 331.42856 496 Q 346.2857 480 347.42856 457.14285 L 347.42856 274.2857 L 347.42856 274.2857 L 424 274.2857 L 424 274.2857 Q 445.7143 274.2857 460.57144 259.42856 Q 475.42856 244.57143 475.42856 222.85715 L 475.42856 222.85715 Z" />
</svg>