<svg xmlns="http://www.w3.org/2000/svg" viewBox="0 0 512 512">
  <path d="M 375.33462282398455 340.6731141199226 Q 364.44100580270793 350.57640232108315 353.5473887814313 340.6731141199226 Q 343.6441005802708 329.77949709864606 353.5473887814313 318.88588007736945 L 452.58027079303673 218.86266924564796 L 452.58027079303673 218.86266924564796 L 79.22630560928434 218.86266924564796 L 79.22630560928434 218.86266924564796 Q 59.41972920696325 219.852998065764 45.55512572533849 232.72727272727272 Q 32.680851063829785 246.59187620889747 31.690522243713733 266.39845261121854 L 31.690522243713733 440.6963249516441 L 31.690522243713733 440.6963249516441 Q 30.70019342359768 455.5512572533849 15.845261121856867 456.541586073501 Q 0.9903288201160542 455.5512572533849 0 440.6963249516441 L 0 266.39845261121854 L 0 266.39845261121854 Q 0.9903288201160542 232.72727272727272 22.777562862669246 209.94970986460348 Q 45.55512572533849 188.16247582205028 79.22630560928434 187.17214700193423 L 452.58027079303673 187.17214700193423 L 452.58027079303673 187.17214700193423 L 353.5473887814313 87.14893617021276 L 353.5473887814313 87.14893617021276 Q 343.6441005802708 76.25531914893617 353.5473887814313 65.36170212765957 Q 364.44100580270793 55.458413926499034 375.33462282398455 65.36170212765957 L 502.09671179883946 192.1237911025145 L 502.09671179883946 192.1237911025145 Q 512 203.0174081237911 502.09671179883946 213.9110251450677 L 375.33462282398455 340.6731141199226 L 375.33462282398455 340.6731141199226 Z" />
</svg>