<svg xmlns="http://www.w3.org/2000/svg" viewBox="0 0 512 512">
  <path d="M 246.38908 37.569965 Q 256 30.580204 265.61093 37.569965 L 339.87714 103.098976 L 339.87714 103.098976 L 339.87714 83.00341 L 339.87714 83.00341 Q 341.62457 63.78157 360.8464 62.03413 L 430.74402 62.03413 L 430.74402 62.03413 Q 449.96588 63.78157 451.71332 83.00341 L 451.71332 201.82935 L 451.71332 201.82935 L 503.2628 247.2628 L 503.2628 247.2628 Q 512 256.87372 504.1365 267.35837 Q 494.5256 276.09555 484.04095 268.2321 L 451.71332 239.39932 L 451.71332 239.39932 L 451.71332 411.5222 L 451.71332 411.5222 Q 450.8396 441.22867 431.61774 461.32422 Q 411.5222 480.54608 381.8157 481.4198 L 130.1843 481.4198 L 130.1843 481.4198 Q 100.47781 480.54608 80.382256 461.32422 Q 61.160408 441.22867 60.28669 411.5222 L 60.28669 239.39932 L 60.28669 239.39932 L 27.959044 268.2321 L 27.959044 268.2321 Q 17.474403 276.09555 7.863481 267.35837 Q 0 256.87372 8.737202 247.2628 L 246.38908 37.569965 L 246.38908 37.569965 Z M 423.75427 177.36519 L 423.75427 89.99317 L 423.75427 177.36519 L 423.75427 89.99317 L 367.83618 89.99317 L 367.83618 89.99317 L 367.83618 128.43686 L 367.83618 128.43686 L 423.75427 177.36519 L 423.75427 177.36519 Z M 88.245735 214.93515 L 88.245735 411.5222 L 88.245735 214.93515 L 88.245735 411.5222 Q 89.11945 428.99658 100.47781 441.22867 Q 112.7099 452.58704 130.1843 453.46075 L 381.8157 453.46075 L 381.8157 453.46075 Q 399.2901 452.58704 411.5222 441.22867 Q 422.88055 428.99658 423.75427 411.5222 L 423.75427 214.93515 L 423.75427 214.93515 L 256 66.40273 L 256 66.40273 L 88.245735 214.93515 L 88.245735 214.93515 Z M 211.44028 257.74744 Q 200.95563 257.74744 193.96587 265.61093 L 193.96587 265.61093 L 193.96587 265.61093 Q 186.10239 272.60068 186.10239 283.08533 Q 186.10239 293.56998 193.96587 301.43344 L 256 363.4676 L 256 363.4676 L 318.03412 301.43344 L 318.03412 301.43344 Q 325.8976 293.56998 325.8976 283.08533 Q 325.8976 272.60068 318.03412 265.61093 Q 311.04437 257.74744 300.55972 257.74744 Q 290.07507 257.74744 282.2116 265.61093 L 265.61093 281.3379 L 265.61093 281.3379 Q 256 290.07507 246.38908 281.3379 L 229.78839 265.61093 L 229.78839 265.61093 Q 221.92491 257.74744 211.44028 257.74744 L 211.44028 257.74744 Z M 158.14334 283.08533 Q 159.01706 260.3686 173.8703 245.51537 L 173.8703 245.51537 L 173.8703 245.51537 Q 188.72356 230.66211 211.44028 229.78839 Q 233.28328 229.78839 249.88396 245.51537 L 256 251.6314 L 256 251.6314 L 262.11603 245.51537 L 262.11603 245.51537 Q 278.71674 229.78839 300.55972 229.78839 Q 323.27646 230.66211 338.1297 245.51537 Q 352.98294 260.3686 353.85666 283.08533 Q 353.85666 304.9283 338.1297 321.52902 L 265.61093 393.17407 L 265.61093 393.17407 Q 256 401.91125 246.38908 393.17407 L 173.8703 321.52902 L 173.8703 321.52902 Q 159.01706 304.9283 158.14334 283.08533 L 158.14334 283.08533 Z" />
</svg>