<svg xmlns="http://www.w3.org/2000/svg" viewBox="0 0 512 512">
  <path d="M 439.96536 105.28139 Q 374.58008 43.22078 290.35498 43.22078 L 290.35498 43.22078 L 290.35498 43.22078 Q 206.12987 43.22078 141.85281 105.28139 Q 79.792206 170.66667 79.792206 256 Q 79.792206 341.33334 141.85281 406.71863 Q 206.12987 468.77924 290.35498 468.77924 Q 374.58008 468.77924 439.96536 406.71863 Q 452.15585 395.63635 464.3463 406.71863 Q 475.42856 418.9091 464.3463 431.09958 Q 415.5844 479.86148 353.5238 496.48486 Q 290.35498 512 228.29437 496.48486 Q 165.12553 479.86148 116.36364 431.09958 Q 68.70995 382.33768 52.08658 319.16882 Q 36.57143 256 52.08658 192.83116 Q 68.70995 129.66234 116.36364 80.90044 Q 165.12553 32.138527 228.29437 15.515152 Q 290.35498 0 353.5238 15.515152 Q 415.5844 32.138527 464.3463 80.90044 Q 475.42856 93.09091 464.3463 105.28139 Q 452.15585 116.36364 439.96536 105.28139 L 439.96536 105.28139 Z" />
</svg>