<svg xmlns="http://www.w3.org/2000/svg" viewBox="0 0 562 512">
    <path d="M 514 121 L 514 121 Q 527 144 517 166 Q 507 187 484 192 Q 481 192 476 192 Q 451 191 435 174 Q 425 163 411 163 Q 397 163 388 174 Q 372 191 346 192 Q 321 191 305 174 Q 295 163 281 163 Q 267 163 257 174 Q 241 191 216 192 Q 190 191 174 174 Q 165 163 151 163 Q 137 163 127 174 Q 111 191 85 192 Q 82 192 78 192 Q 55 187 45 166 Q 35 144 48 121 L 48 121 L 105 32 L 457 32 L 514 121 L 514 121 Z M 476 224 Q 483 224 489 223 Q 531 215 547 178 Q 562 141 541 104 L 483 13 Q 475 0 459 0 L 103 0 Q 87 0 79 13 L 21 104 Q 0 141 15 178 Q 31 215 73 223 Q 79 224 85 224 Q 115 223 137 207 Q 144 202 150 195 Q 157 202 164 207 Q 186 223 216 224 Q 246 223 268 207 Q 275 202 281 195 Q 287 202 294 207 Q 316 223 346 224 Q 376 223 398 207 Q 405 201 411 195 Q 417 201 424 207 Q 446 223 477 224 L 476 224 Z M 73 256 Q 58 257 57 272 L 57 352 L 57 368 L 57 384 L 57 448 Q 58 475 76 493 Q 94 511 121 512 L 441 512 Q 468 511 486 493 Q 504 475 505 448 L 505 384 L 505 368 L 505 352 L 505 272 Q 504 257 489 256 Q 474 257 473 272 L 473 352 L 89 352 L 89 272 Q 88 257 73 256 L 73 256 Z M 89 384 L 473 384 L 473 448 Q 473 462 464 471 Q 455 480 441 480 L 121 480 Q 107 480 98 471 Q 89 462 89 448 L 89 384 L 89 384 Z"/>
</svg>
