<svg xmlns="http://www.w3.org/2000/svg" viewBox="0 0 512 514">
    <path d="M 237 12 Q 256 0 275 12 L 352 69 L 352 58 Q 354 36 376 34 L 456 34 Q 478 36 480 58 L 480 162 L 479 162 L 492 172 Q 511 186 512 210 Q 510 244 479 256 Q 480 261 480 266 L 480 282 Q 480 296 472 306 Q 480 316 480 330 L 480 346 Q 480 360 472 370 Q 480 380 480 394 L 480 410 Q 480 424 472 434 Q 480 444 480 458 L 480 474 Q 480 491 468 502 Q 457 514 440 514 L 360 514 Q 343 514 332 502 Q 320 491 320 474 L 320 458 Q 320 444 328 434 Q 320 424 320 410 L 320 394 Q 320 380 328 370 Q 320 360 320 346 L 320 330 Q 320 316 328 306 Q 320 296 320 282 L 320 266 Q 320 262 321 258 L 191 258 Q 192 262 192 266 L 192 282 Q 192 296 184 306 Q 192 316 192 330 L 192 346 Q 192 360 184 370 Q 192 380 192 394 L 192 410 Q 192 424 184 434 Q 192 444 192 458 L 192 474 Q 192 491 180 502 Q 169 514 152 514 L 72 514 Q 55 514 44 502 Q 32 491 32 474 L 32 458 Q 32 444 40 434 Q 32 424 32 410 L 32 394 Q 32 380 40 370 Q 32 360 32 346 L 32 330 Q 32 316 40 306 Q 32 296 32 282 L 32 266 Q 32 261 33 256 Q 2 244 0 210 Q 1 186 20 172 L 237 12 L 237 12 Z M 360 418 L 440 418 Q 447 417 448 410 L 448 394 Q 447 387 440 386 L 360 386 Q 353 387 352 394 L 352 410 Q 353 417 360 418 L 360 418 Z M 440 450 L 360 450 Q 353 451 352 458 L 352 474 Q 353 481 360 482 L 440 482 Q 447 481 448 474 L 448 458 Q 447 451 440 450 L 440 450 Z M 448 346 L 448 330 Q 447 323 440 322 L 360 322 Q 353 323 352 330 L 352 346 Q 353 353 360 354 L 440 354 Q 447 353 448 346 L 448 346 Z M 360 226 L 440 226 L 464 226 Q 479 225 480 210 Q 480 202 474 197 L 256 38 L 39 197 Q 32 202 32 210 Q 33 225 48 226 L 72 226 L 152 226 L 360 226 L 360 226 Z M 360 258 Q 353 259 352 266 L 352 282 Q 353 289 360 290 L 440 290 Q 447 289 448 282 L 448 266 Q 447 259 440 258 L 360 258 L 360 258 Z M 72 418 L 152 418 Q 159 417 160 410 L 160 394 Q 159 387 152 386 L 72 386 Q 65 387 64 394 L 64 410 Q 65 417 72 418 L 72 418 Z M 152 450 L 72 450 Q 65 451 64 458 L 64 474 Q 65 481 72 482 L 152 482 Q 159 481 160 474 L 160 458 Q 159 451 152 450 L 152 450 Z M 160 346 L 160 330 Q 159 323 152 322 L 72 322 Q 65 323 64 330 L 64 346 Q 65 353 72 354 L 152 354 Q 159 353 160 346 L 160 346 Z M 72 258 Q 65 259 64 266 L 64 282 Q 65 289 72 290 L 152 290 Q 159 289 160 282 L 160 266 Q 159 259 152 258 L 72 258 L 72 258 Z M 448 139 L 448 66 L 384 66 L 384 92 L 448 139 L 448 139 Z M 256 130 Q 241 131 240 146 Q 241 161 256 162 Q 271 161 272 146 Q 271 131 256 130 L 256 130 Z M 304 146 Q 303 173 280 188 Q 256 200 232 188 Q 209 173 208 146 Q 209 119 232 104 Q 256 92 280 104 Q 303 119 304 146 L 304 146 Z"/>
</svg>
