<svg xmlns="http://www.w3.org/2000/svg" viewBox="0 0 512 512">
  <path d="M 450.2857 307.42856 Q 432 373.7143 379.42856 414.85715 L 379.42856 414.85715 L 379.42856 414.85715 Q 326.85715 456 256 457.14285 Q 165.71428 454.85715 108.57143 393.14285 L 155.42857 346.2857 L 155.42857 346.2857 Q 164.57143 337.14285 164.57143 323.42856 Q 164.57143 310.85715 155.42857 301.7143 Q 146.28572 292.57144 133.71428 292.57144 L 18.285715 292.57144 L 18.285715 292.57144 Q 1.1428572 294.85715 0 310.85715 L 0 426.2857 L 0 426.2857 Q 0 438.85715 9.142858 448 Q 18.285715 457.14285 30.857143 457.14285 Q 44.57143 457.14285 53.714287 448 L 82.28571 418.2857 L 82.28571 418.2857 Q 115.42857 453.7143 160 473.14285 Q 204.57143 493.7143 256 493.7143 Q 340.57144 492.57144 403.42856 442.2857 Q 465.14285 393.14285 486.85715 314.2857 Q 488 294.85715 469.7143 292.57144 Q 454.85715 293.7143 450.2857 307.42856 L 450.2857 307.42856 Z M 403.42856 118.85714 L 356.57144 165.71428 L 403.42856 118.85714 L 356.57144 165.71428 Q 347.42856 174.85715 347.42856 188.57143 Q 347.42856 201.14285 356.57144 210.28572 Q 365.7143 219.42857 378.2857 219.42857 L 493.7143 219.42857 L 493.7143 219.42857 Q 510.85715 218.28572 512 201.14285 L 512 85.71429 L 512 85.71429 Q 512 73.14286 502.85715 64 Q 493.7143 54.857143 481.14285 54.857143 Q 467.42856 54.857143 458.2857 64 L 429.7143 93.71429 L 429.7143 93.71429 Q 396.57144 58.285713 352 38.857143 Q 307.42856 18.285715 256 18.285715 Q 171.42857 19.428572 108.57143 69.71429 Q 46.857143 118.85714 25.142857 197.71428 Q 22.857143 217.14285 42.285713 219.42857 Q 57.142857 218.28572 61.714287 204.57143 Q 80 138.28572 132.57143 97.14286 Q 185.14285 56 256 54.857143 Q 346.2857 57.142857 403.42856 118.85714 L 403.42856 118.85714 Z M 475.42856 182.85715 L 392 182.85715 L 475.42856 182.85715 L 392 182.85715 L 475.42856 99.42857 L 475.42856 99.42857 L 475.42856 182.85715 L 475.42856 182.85715 Z M 36.57143 329.14285 L 120 329.14285 L 36.57143 329.14285 L 120 329.14285 L 36.57143 412.57144 L 36.57143 412.57144 L 36.57143 329.14285 L 36.57143 329.14285 Z" />
</svg>