<svg xmlns="http://www.w3.org/2000/svg" viewBox="0 0 654 526">
    <path d="M 190 14 L 14 190 Q 0 207 14 224 Q 31 238 48 224 L 63 209 L 209 355 Q 212 358 215 360 L 218 357 Q 220 355 220 353 L 230 308 L 97 175 L 175 97 L 271 193 Q 274 189 277 186 L 304 158 L 209 63 L 224 48 Q 238 31 224 14 Q 207 0 190 14 L 190 14 Z M 409 410 L 382 416 L 478 512 Q 495 526 512 512 Q 526 495 512 478 L 435 401 Q 422 407 409 410 L 409 410 Z M 430 14 Q 416 31 430 48 L 606 224 Q 623 238 640 224 Q 654 207 640 190 L 464 14 Q 447 0 430 14 L 430 14 Z M 422 86 L 299 209 Q 281 227 276 252 L 252 360 Q 249 371 241 379 L 142 478 Q 128 495 142 512 Q 159 526 176 512 L 275 413 Q 283 405 294 402 L 402 379 Q 427 373 445 355 L 568 232 L 535 198 L 463 269 L 385 191 L 456 120 L 422 86 L 422 86 Z M 333 243 L 351 225 L 429 303 L 411 321 Q 403 329 392 332 L 303 351 L 323 262 Q 325 251 333 243 L 333 243 Z"/>
</svg>
