<svg xmlns="http://www.w3.org/2000/svg" viewBox="0 0 512 512">
  <path d="M 384 176 Q 383 217 361 249 Q 357 254 353 261 Q 351 264 349 267 L 349 267 L 349 267 L 349 267 L 349 267 L 349 267 L 349 267 L 349 267 L 349 267 Q 328 294 309 326 Q 294 355 290 384 L 339 384 L 339 384 Q 342 366 351 349 Q 366 323 385 298 L 385 298 L 385 298 L 385 298 L 385 298 L 385 298 L 385 298 Q 393 287 401 276 Q 431 233 432 176 Q 430 101 380 52 Q 331 2 256 0 Q 181 2 132 52 Q 82 101 80 176 Q 81 233 111 276 Q 119 287 127 297 Q 127 298 127 298 L 127 298 L 127 298 L 127 298 L 127 298 Q 146 323 161 349 Q 170 366 173 384 L 222 384 L 222 384 Q 218 355 203 326 Q 185 294 164 267 L 164 267 L 164 267 Q 157 257 151 249 Q 151 249 151 249 Q 129 217 128 176 Q 129 122 165 85 Q 202 49 256 48 Q 310 49 347 85 Q 383 122 384 176 L 384 176 Z M 256 512 Q 290 511 313 489 L 313 489 L 313 489 Q 335 466 336 432 L 336 416 L 336 416 L 176 416 L 176 416 L 176 432 L 176 432 Q 177 466 199 489 Q 222 511 256 512 L 256 512 Z M 272 112 Q 271 97 256 96 Q 241 97 240 112 L 240 122 L 240 122 Q 231 123 222 128 Q 201 137 200 165 Q 204 188 222 196 Q 236 202 250 206 L 252 207 L 252 207 Q 268 211 275 215 Q 281 219 280 220 Q 280 224 279 225 Q 278 226 275 228 Q 267 232 257 232 Q 243 231 227 225 Q 224 224 221 223 Q 207 220 201 234 Q 198 248 211 254 Q 212 254 213 254 Q 214 255 216 255 L 216 255 L 216 255 L 216 255 L 216 255 Q 216 255 217 255 Q 227 259 240 262 L 240 273 L 240 273 Q 241 288 256 289 Q 271 288 272 273 L 272 263 L 272 263 Q 282 261 290 257 Q 311 247 312 220 Q 309 196 292 187 Q 276 179 261 176 L 261 176 L 261 176 Q 245 172 237 168 Q 231 164 232 163 L 232 163 L 232 163 Q 232 160 233 159 Q 234 158 237 156 Q 246 152 256 152 Q 268 152 282 156 Q 297 158 302 144 Q 304 130 290 125 Q 282 123 272 121 L 272 112 L 272 112 Z" />
</svg>