<svg xmlns="http://www.w3.org/2000/svg" viewBox="0 0 640 515">
    <path d="M 72 48 Q 50 50 48 72 L 48 248 Q 50 270 72 272 L 120 272 Q 142 274 144 296 L 144 315 L 203 276 Q 209 272 216 272 L 344 272 Q 366 270 368 248 L 368 72 Q 366 50 344 48 L 72 48 L 72 48 Z M 0 72 Q 1 41 21 21 L 21 21 Q 41 1 72 0 L 344 0 Q 375 1 395 21 Q 415 41 416 72 L 416 248 Q 415 279 395 299 Q 375 319 344 320 L 223 320 L 133 380 Q 121 387 109 381 Q 97 374 96 360 L 96 320 L 72 320 Q 41 319 21 299 Q 1 279 0 248 L 0 72 L 0 72 Z M 256 352 L 304 352 L 304 376 Q 306 398 328 400 L 424 400 Q 431 400 437 404 L 496 443 L 496 424 Q 498 402 520 400 L 568 400 Q 590 398 592 376 L 592 200 Q 590 178 568 176 L 448 176 L 448 128 L 568 128 Q 599 129 619 149 Q 639 169 640 200 L 640 376 Q 639 407 619 427 Q 599 447 568 448 L 544 448 L 544 488 Q 543 502 531 509 Q 519 515 507 508 L 417 448 L 328 448 Q 297 447 277 427 Q 257 407 256 376 L 256 352 L 256 352 Z M 148 96 Q 158 72 184 70 L 226 70 Q 244 71 257 83 Q 269 96 269 114 Q 269 139 247 152 L 224 165 L 224 166 Q 223 180 208 182 Q 193 180 192 166 L 192 156 Q 192 147 200 142 L 231 124 Q 237 121 237 114 Q 236 103 226 102 L 184 102 Q 180 103 178 107 L 178 108 Q 171 121 157 117 Q 144 111 148 97 L 148 96 L 148 96 Z M 185 228 Q 185 215 196 207 Q 208 200 220 207 Q 231 215 231 228 Q 231 241 220 249 Q 208 256 196 249 Q 185 241 185 228 L 185 228 Z"/>
</svg>
