<svg xmlns="http://www.w3.org/2000/svg" viewBox="0 0 520 520">
    <path d="M 352 14 Q 346 3 333 1 Q 319 0 311 11 L 257 83 L 255 67 Q 253 56 244 50 Q 235 44 224 47 L 189 57 L 154 17 Q 147 9 136 9 Q 125 9 118 17 L 81 60 L 34 54 Q 21 52 13 62 Q 5 71 8 83 L 48 239 L 18 260 Q 7 267 7 280 Q 8 294 19 300 L 126 360 L 14 472 Q 0 489 14 506 Q 31 520 48 506 L 160 394 L 220 501 Q 226 512 240 513 Q 253 513 261 502 L 281 472 L 437 512 Q 449 515 459 507 Q 468 498 467 486 L 461 443 Q 461 439 464 436 L 503 402 Q 511 395 512 384 Q 511 373 503 366 L 463 331 L 473 296 Q 476 285 470 276 Q 464 267 453 265 L 437 263 L 509 209 Q 520 201 519 187 Q 517 174 506 168 L 470 150 Q 464 147 465 141 L 488 61 Q 491 48 482 38 Q 472 28 458 32 L 379 55 Q 373 56 370 50 L 352 14 L 352 14 Z M 196 359 L 321 233 Q 335 216 321 199 Q 304 185 287 199 L 162 325 L 77 278 L 80 276 Q 102 259 96 232 L 63 106 L 88 109 Q 101 110 109 101 L 136 69 L 163 101 Q 173 112 188 108 L 211 101 L 217 148 Q 219 163 235 168 Q 250 171 260 159 L 326 71 L 327 72 Q 337 90 354 98 Q 372 106 392 101 L 430 90 L 419 128 Q 414 148 422 166 Q 430 183 448 193 L 450 194 L 361 260 Q 349 270 352 286 Q 357 301 372 303 L 419 309 L 412 333 Q 408 347 420 358 L 451 384 L 433 400 Q 410 420 413 449 L 414 457 L 288 424 Q 261 418 244 440 L 242 443 L 196 359 L 196 359 Z"/>
</svg>
