<svg xmlns="http://www.w3.org/2000/svg" viewBox="0 0 512 512">
  <path d="M 0 92.44444444444444 Q 0.8888888888888888 71.11111111111111 14.222222222222221 56.888888888888886 L 14.222222222222221 56.888888888888886 L 14.222222222222221 56.888888888888886 Q 28.444444444444443 43.55555555555556 49.77777777777778 42.666666666666664 L 113.77777777777777 42.666666666666664 L 348.44444444444446 42.666666666666664 Q 369.77777777777777 43.55555555555556 384 56.888888888888886 Q 397.3333333333333 71.11111111111111 398.22222222222223 92.44444444444444 L 398.22222222222223 158.22222222222223 L 398.22222222222223 158.22222222222223 Q 376.8888888888889 164.44444444444446 366.22222222222223 184 L 355.55555555555554 204.44444444444446 L 355.55555555555554 204.44444444444446 L 355.55555555555554 92.44444444444444 L 355.55555555555554 92.44444444444444 Q 354.6666666666667 86.22222222222223 348.44444444444446 85.33333333333333 L 305.77777777777777 85.33333333333333 L 305.77777777777777 85.33333333333333 L 305.77777777777777 220.44444444444446 L 305.77777777777777 220.44444444444446 L 346.6666666666667 220.44444444444446 L 346.6666666666667 220.44444444444446 L 299.55555555555554 309.3333333333333 L 299.55555555555554 309.3333333333333 Q 284.44444444444446 337.77777777777777 284.44444444444446 369.77777777777777 Q 285.3333333333333 409.77777777777777 305.77777777777777 440.8888888888889 L 284.44444444444446 440.8888888888889 L 49.77777777777778 440.8888888888889 Q 28.444444444444443 440 14.222222222222221 426.6666666666667 Q 0.8888888888888888 412.44444444444446 0 391.1111111111111 L 0 241.77777777777777 L 0 241.77777777777777 L 0 92.44444444444444 L 0 92.44444444444444 Z M 49.77777777777778 85.33333333333333 Q 43.55555555555556 86.22222222222223 42.666666666666664 92.44444444444444 L 42.666666666666664 220.44444444444446 L 42.666666666666664 220.44444444444446 L 92.44444444444444 220.44444444444446 L 92.44444444444444 220.44444444444446 L 92.44444444444444 85.33333333333333 L 92.44444444444444 85.33333333333333 L 49.77777777777778 85.33333333333333 L 49.77777777777778 85.33333333333333 Z M 42.666666666666664 391.1111111111111 Q 43.55555555555556 397.3333333333333 49.77777777777778 398.22222222222223 L 92.44444444444444 398.22222222222223 L 92.44444444444444 398.22222222222223 L 92.44444444444444 263.1111111111111 L 92.44444444444444 263.1111111111111 L 42.666666666666664 263.1111111111111 L 42.666666666666664 263.1111111111111 L 42.666666666666664 391.1111111111111 L 42.666666666666664 391.1111111111111 Z M 177.77777777777777 398.22222222222223 L 177.77777777777777 263.1111111111111 L 177.77777777777777 398.22222222222223 L 177.77777777777777 263.1111111111111 L 135.11111111111111 263.1111111111111 L 135.11111111111111 263.1111111111111 L 135.11111111111111 398.22222222222223 L 135.11111111111111 398.22222222222223 L 177.77777777777777 398.22222222222223 L 177.77777777777777 398.22222222222223 Z M 263.1111111111111 398.22222222222223 L 263.1111111111111 263.1111111111111 L 263.1111111111111 398.22222222222223 L 263.1111111111111 263.1111111111111 L 220.44444444444446 263.1111111111111 L 220.44444444444446 263.1111111111111 L 220.44444444444446 398.22222222222223 L 220.44444444444446 398.22222222222223 L 263.1111111111111 398.22222222222223 L 263.1111111111111 398.22222222222223 Z M 220.44444444444446 85.33333333333333 L 220.44444444444446 220.44444444444446 L 220.44444444444446 85.33333333333333 L 220.44444444444446 220.44444444444446 L 263.1111111111111 220.44444444444446 L 263.1111111111111 220.44444444444446 L 263.1111111111111 85.33333333333333 L 263.1111111111111 85.33333333333333 L 220.44444444444446 85.33333333333333 L 220.44444444444446 85.33333333333333 Z M 177.77777777777777 220.44444444444446 L 177.77777777777777 85.33333333333333 L 177.77777777777777 220.44444444444446 L 177.77777777777777 85.33333333333333 L 135.11111111111111 85.33333333333333 L 135.11111111111111 85.33333333333333 L 135.11111111111111 220.44444444444446 L 135.11111111111111 220.44444444444446 L 177.77777777777777 220.44444444444446 L 177.77777777777777 220.44444444444446 Z M 392 197.33333333333334 Q 398.22222222222223 185.77777777777777 412.44444444444446 184.88888888888889 Q 426.6666666666667 185.77777777777777 433.77777777777777 197.33333333333334 L 500.44444444444446 322.6666666666667 L 500.44444444444446 322.6666666666667 Q 512 344.8888888888889 512 369.77777777777777 Q 511.1111111111111 412.44444444444446 482.6666666666667 440 Q 455.1111111111111 468.44444444444446 412.44444444444446 469.3333333333333 Q 369.77777777777777 468.44444444444446 342.22222222222223 440 Q 313.77777777777777 412.44444444444446 312.8888888888889 369.77777777777777 Q 312.8888888888889 344.8888888888889 324.44444444444446 322.6666666666667 L 392 197.33333333333334 L 392 197.33333333333334 Z" />
</svg>