<svg xmlns="http://www.w3.org/2000/svg" viewBox="0 0 512 512">
  <path d="M 0 40 Q 2 18 24 16 L 32 16 L 232 16 Q 254 18 256 40 Q 254 62 232 64 L 224 64 L 224 64 L 224 251 L 224 251 Q 193 295 192 352 Q 192 390 207 423 Q 179 462 128 464 Q 87 463 60 436 Q 33 409 32 368 L 32 64 L 32 64 L 24 64 L 24 64 Q 2 62 0 40 L 0 40 Z M 80 64 L 80 176 L 80 64 L 80 176 L 176 176 L 176 176 L 176 64 L 176 64 L 80 64 L 80 64 Z M 80 224 L 80 368 L 80 224 L 80 368 Q 81 388 94 402 Q 108 415 128 416 Q 148 415 162 402 Q 175 388 176 368 L 176 224 L 176 224 L 80 224 L 80 224 Z M 224 352 Q 224 313 243 280 L 243 280 L 243 280 Q 262 247 296 227 Q 330 208 368 208 Q 406 208 440 227 Q 474 247 493 280 Q 512 313 512 352 Q 512 391 493 424 Q 474 457 440 477 Q 406 496 368 496 Q 330 496 296 477 Q 262 457 243 424 Q 224 391 224 352 L 224 352 Z M 435 309 Q 424 299 413 309 L 352 369 L 352 369 L 323 341 L 323 341 Q 312 331 301 341 Q 291 352 301 363 L 341 403 L 341 403 Q 352 413 363 403 L 435 331 L 435 331 Q 445 320 435 309 L 435 309 Z" />
</svg>