<svg xmlns="http://www.w3.org/2000/svg" viewBox="0 0 512 512">
  <path d="M 242.98305084745763 41.65423728813559 Q 256 31.240677966101696 269.8847457627119 41.65423728813559 L 408.7322033898305 159.67457627118645 L 408.7322033898305 159.67457627118645 L 408.7322033898305 85.04406779661016 L 408.7322033898305 85.04406779661016 Q 410.4677966101695 65.95254237288135 429.5593220338983 64.21694915254237 Q 448.6508474576271 65.95254237288135 450.3864406779661 85.04406779661016 L 450.3864406779661 195.25423728813558 L 450.3864406779661 195.25423728813558 L 498.9830508474576 236.0406779661017 L 498.9830508474576 236.0406779661017 Q 512 249.05762711864406 500.7186440677966 265.5457627118644 Q 487.7016949152542 278.56271186440677 472.0813559322034 267.2813559322034 L 450.3864406779661 249.92542372881357 L 450.3864406779661 249.92542372881357 L 450.3864406779661 411.335593220339 L 450.3864406779661 411.335593220339 Q 449.51864406779663 440.8406779661017 430.4271186440678 460.8 Q 410.4677966101695 479.8915254237288 380.9627118644068 480.7593220338983 L 131.03728813559323 480.7593220338983 L 131.03728813559323 480.7593220338983 Q 101.53220338983051 479.8915254237288 81.5728813559322 460.8 Q 62.48135593220339 440.8406779661017 61.6135593220339 411.335593220339 L 61.6135593220339 249.92542372881357 L 61.6135593220339 249.92542372881357 L 40.7864406779661 267.2813559322034 L 40.7864406779661 267.2813559322034 Q 24.298305084745763 278.56271186440677 11.28135593220339 265.5457627118644 Q 0 249.05762711864406 13.884745762711864 236.0406779661017 L 242.98305084745763 41.65423728813559 L 242.98305084745763 41.65423728813559 Z M 256 85.04406779661016 L 103.2677966101695 214.3457627118644 L 256 85.04406779661016 L 103.2677966101695 214.3457627118644 L 103.2677966101695 411.335593220339 L 103.2677966101695 411.335593220339 Q 103.2677966101695 423.48474576271184 111.07796610169491 431.2949152542373 Q 118.88813559322034 439.1050847457627 131.03728813559323 439.1050847457627 L 380.9627118644068 439.1050847457627 L 380.9627118644068 439.1050847457627 Q 393.11186440677966 439.1050847457627 400.9220338983051 431.2949152542373 Q 408.7322033898305 423.48474576271184 408.7322033898305 411.335593220339 L 408.7322033898305 214.3457627118644 L 408.7322033898305 214.3457627118644 L 256 85.04406779661016 L 256 85.04406779661016 Z M 256 175.29491525423728 Q 287.2406779661017 176.1627118644068 303.728813559322 203.06440677966103 Q 319.3491525423729 230.83389830508474 303.728813559322 258.6033898305085 Q 287.2406779661017 285.5050847457627 256 286.3728813559322 Q 224.75932203389831 285.5050847457627 208.27118644067798 258.6033898305085 Q 192.65084745762712 230.83389830508474 208.27118644067798 203.06440677966103 Q 224.75932203389831 176.1627118644068 256 175.29491525423728 L 256 175.29491525423728 Z M 158.80677966101695 383.56610169491523 Q 159.67457627118645 354.06101694915253 178.76610169491525 334.10169491525426 L 178.76610169491525 334.10169491525426 L 178.76610169491525 334.10169491525426 Q 198.72542372881355 315.0101694915254 228.23050847457628 314.1423728813559 L 283.76949152542375 314.1423728813559 L 283.76949152542375 314.1423728813559 Q 313.27457627118645 315.0101694915254 333.2338983050847 334.10169491525426 Q 352.3254237288136 354.06101694915253 353.19322033898305 383.56610169491523 Q 352.3254237288136 396.5830508474576 339.3084745762712 397.4508474576271 L 172.69152542372882 397.4508474576271 L 172.69152542372882 397.4508474576271 Q 159.67457627118645 396.5830508474576 158.80677966101695 383.56610169491523 L 158.80677966101695 383.56610169491523 Z" />
</svg>