<svg xmlns="http://www.w3.org/2000/svg" viewBox="0 0 512 512">
  <path d="M 89.766235 44.883118 L 182.85715 44.883118 L 89.766235 44.883118 L 182.85715 44.883118 Q 201.14285 46.545456 202.80519 64.83117 Q 201.14285 83.11688 182.85715 84.77922 L 137.97403 84.77922 L 137.97403 84.77922 L 183.68831 130.4935 L 183.68831 130.4935 Q 211.11688 157.09091 249.35065 157.92207 Q 287.5844 157.09091 315.013 130.4935 L 394.8052 50.701298 L 394.8052 50.701298 Q 408.93506 39.064934 423.06494 50.701298 Q 434.7013 64.83117 423.06494 78.96104 L 343.27274 158.75325 L 343.27274 158.75325 Q 304.2078 196.98701 249.35065 197.81818 Q 194.4935 196.98701 155.42857 158.75325 L 109.71429 113.03896 L 109.71429 113.03896 L 109.71429 157.92207 L 109.71429 157.92207 Q 108.05195 176.2078 89.766235 177.87013 Q 71.48052 176.2078 69.818184 157.92207 L 69.818184 64.83117 L 69.818184 64.83117 Q 71.48052 46.545456 89.766235 44.883118 L 89.766235 44.883118 Z M 362.38962 370.7013 L 362.38962 411.42856 L 362.38962 370.7013 L 362.38962 411.42856 Q 362.38962 417.24677 368.2078 418.0779 L 438.85715 431.37662 L 438.85715 431.37662 Q 444.67532 432.2078 446.33768 427.22076 L 467.11688 378.18182 L 467.11688 378.18182 Q 473.76624 355.74026 463.7922 347.42856 Q 432.2078 320 379.013 295.89612 Q 326.64935 272.62338 256 270.96103 Q 185.35065 272.62338 132.98701 295.89612 Q 79.792206 320 49.03896 347.42856 Q 38.233765 355.74026 44.883118 378.18182 L 65.66234 427.22076 L 65.66234 427.22076 Q 68.155846 431.37662 73.14286 431.37662 L 143.7922 418.0779 L 143.7922 418.0779 Q 149.61038 417.24677 149.61038 411.42856 L 149.61038 370.7013 L 149.61038 370.7013 Q 150.44156 344.10388 174.54546 333.2987 Q 214.44156 318.33768 256 318.33768 Q 297.55844 318.33768 337.45456 333.2987 Q 361.55844 344.10388 362.38962 370.7013 L 362.38962 370.7013 Z M 322.4935 411.42856 L 322.4935 370.7013 L 322.4935 411.42856 L 322.4935 370.7013 Q 256 344.93506 189.5065 370.7013 L 189.5065 411.42856 L 189.5065 411.42856 Q 189.5065 428.88312 178.7013 441.35065 Q 167.8961 453.81818 151.27272 457.14285 L 79.792206 470.44156 L 79.792206 470.44156 Q 63.16883 472.93506 49.87013 465.45456 Q 35.74026 457.97403 29.09091 443.013 L 8.311688 393.97403 L 8.311688 393.97403 Q 0 373.1948 3.3246753 352.4156 Q 6.6493506 331.63635 22.441559 317.5065 Q 57.35065 285.9221 117.19481 259.32468 Q 176.2078 232.72728 256 231.06494 Q 335.7922 232.72728 394.8052 259.32468 Q 454.64935 285.9221 489.55844 317.5065 Q 505.35065 331.63635 508.67532 352.4156 Q 512 373.1948 503.68832 393.97403 L 482.9091 443.013 L 482.9091 443.013 Q 476.25974 457.97403 462.12988 465.45456 Q 448.83118 472.93506 432.2078 470.44156 L 360.72726 457.14285 L 360.72726 457.14285 Q 344.10388 453.81818 333.2987 441.35065 Q 322.4935 428.88312 322.4935 411.42856 L 322.4935 411.42856 Z" />
</svg>