<svg xmlns="http://www.w3.org/2000/svg" viewBox="0 0 512 512">
  <path d="M 344.28976 55.634647 Q 333.0016 47.571655 321.71338 55.634647 L 188.67401 152.39055 L 188.67401 152.39055 Q 186.25511 153.19685 184.64252 155.61575 Q 198.34961 157.22835 209.6378 165.29134 L 222.53859 175.77322 L 222.53859 175.77322 L 333.0016 95.14331 L 333.0016 95.14331 L 454.75275 183.02992 L 454.75275 183.02992 Q 457.17166 184.64252 457.17166 187.86772 L 470.87875 289.46143 L 470.87875 289.46143 Q 470.87875 295.9118 464.42834 296.7181 L 363.64093 296.7181 L 363.64093 296.7181 Q 364.44724 299.137 364.44724 302.3622 L 370.09134 335.42047 L 370.09134 335.42047 L 464.42834 335.42047 L 464.42834 335.42047 Q 485.39212 334.61417 498.2929 320.1008 Q 512 304.7811 509.58112 283.81732 L 495.87402 182.22362 L 495.87402 182.22362 Q 492.6488 163.67874 477.32913 152.39055 L 344.28976 55.634647 L 344.28976 55.634647 Z M 190.28662 184.64252 Q 178.19212 176.57953 166.09764 184.64252 L 33.05827 287.84882 L 33.05827 287.84882 Q 18.544882 299.137 15.319685 317.6819 L 2.4188976 412.8252 L 2.4188976 412.8252 Q 0 433.78897 12.900787 449.10867 Q 25.801575 463.62204 46.765354 464.42834 L 309.6189 464.42834 L 309.6189 464.42834 Q 330.58267 463.62204 343.48346 449.10867 Q 356.38425 433.78897 354.77167 412.8252 L 341.06458 317.6819 L 341.06458 317.6819 Q 337.83936 299.137 323.326 287.84882 L 190.28662 184.64252 L 190.28662 184.64252 Z M 56.440945 318.4882 L 158.84094 239.47087 L 56.440945 318.4882 L 158.84094 239.47087 L 158.84094 425.72598 L 158.84094 425.72598 L 46.765354 425.72598 L 46.765354 425.72598 Q 40.31496 424.91968 40.31496 418.4693 L 54.02205 322.51968 L 54.02205 322.51968 Q 54.02205 320.1008 56.440945 318.4882 L 56.440945 318.4882 Z M 197.5433 341.87088 L 197.5433 239.47087 L 197.5433 341.87088 L 197.5433 239.47087 L 299.9433 318.4882 L 299.9433 318.4882 Q 301.5559 320.1008 302.3622 322.51968 L 316.0693 418.4693 L 316.0693 418.4693 Q 316.0693 424.91968 309.6189 425.72598 L 247.53386 425.72598 L 247.53386 425.72598 L 197.5433 341.87088 L 197.5433 341.87088 Z" />
</svg>