<svg xmlns="http://www.w3.org/2000/svg" viewBox="0 0 512 512">
  <path d="M 174.64992 91.00179 Q 187.51884 76.29443 174.64992 60.667862 Q 159.94255 46.87971 144.31598 59.748653 L 13.788151 182.9228 L 13.788151 182.9228 Q 0 196.71095 0 215.09515 Q 0 233.47935 13.788151 247.2675 L 144.31598 370.44165 L 144.31598 370.44165 Q 159.94255 383.31058 174.64992 370.44165 Q 187.51884 353.89587 174.64992 339.1885 L 44.12208 215.09515 L 44.12208 215.09515 L 174.64992 91.00179 L 174.64992 91.00179 Z M 306.09695 244.50987 L 306.09695 244.50987 L 306.09695 244.50987 L 306.09695 244.50987 L 284.03592 244.50987 L 284.03592 244.50987 Q 263.8133 246.3483 261.97485 266.57092 L 261.97485 288.63196 L 261.97485 288.63196 L 261.97485 314.36984 L 261.97485 314.36984 L 151.66966 215.09515 L 151.66966 215.09515 L 261.97485 115.820465 L 261.97485 115.820465 L 261.97485 141.55835 L 261.97485 141.55835 L 261.97485 163.61938 L 261.97485 163.61938 Q 263.8133 183.84201 284.03592 185.68044 L 306.09695 185.68044 L 350.21902 185.68044 Q 399.85638 186.59964 433.86716 219.69121 Q 466.9587 253.70198 467.87793 303.33932 Q 467.87793 324.48114 463.28186 341.94614 Q 450.41293 298.74326 416.40216 272.08618 Q 382.3914 245.42908 335.51166 244.50987 L 306.09695 244.50987 L 306.09695 244.50987 Z M 306.09695 332.75403 L 306.09695 288.63196 L 306.09695 332.75403 L 306.09695 288.63196 L 335.51166 288.63196 L 335.51166 288.63196 Q 342.86536 288.63196 350.21902 289.55118 Q 382.3914 295.98563 402.614 319.8851 Q 422.83664 343.78455 423.75583 376.87613 Q 422.83664 400.77557 415.48294 413.64453 Q 412.7253 418.24057 410.8869 420.9982 Q 407.21005 425.59427 403.5332 429.2711 Q 403.5332 429.2711 402.614 429.2711 Q 402.614 430.1903 401.6948 430.1903 Q 395.2603 437.54398 394.34113 446.73608 Q 396.17953 463.28186 412.7253 465.1203 Q 416.40216 465.1203 420.07898 463.28186 Q 423.75583 461.44345 430.1903 457.7666 Q 430.1903 456.84738 430.1903 456.84738 Q 433.86716 455.00897 438.4632 451.33212 Q 443.05923 447.6553 448.5745 443.05923 Q 470.63556 425.59427 490.85815 391.5835 Q 511.08078 356.6535 512 303.33932 Q 510.1616 234.39856 464.20108 189.35727 Q 419.1598 143.39677 350.21902 141.55835 L 306.09695 141.55835 L 306.09695 141.55835 L 306.09695 97.436264 L 306.09695 97.436264 L 306.09695 82.728905 L 306.09695 82.728905 Q 305.17773 64.3447 288.63196 56.07181 Q 271.16696 48.718132 257.3788 60.667862 L 110.30521 193.03412 L 110.30521 193.03412 Q 100.19389 202.22621 100.19389 215.09515 Q 100.19389 227.9641 110.30521 237.15619 L 257.3788 369.52243 L 257.3788 369.52243 Q 271.16696 381.47217 288.63196 374.1185 Q 305.17773 365.8456 306.09695 347.4614 L 306.09695 332.75403 L 306.09695 332.75403 Z" />
</svg>