<svg xmlns="http://www.w3.org/2000/svg" viewBox="0 0 512 512">
  <path d="M 217.6 179.2 Q 216.8 140.8 191.2 116 L 191.2 116 L 191.2 116 Q 166.4 90.4 128 89.6 Q 89.6 90.4 64.8 116 Q 39.2 140.8 38.4 179.2 Q 40 217.6 68.8 256.8 Q 83.2 275.2 96.8 288.8 Q 110.4 302.4 119.2 309.6 Q 124 313.6 128 319.2 Q 132 313.6 136.8 309.6 Q 145.6 302.4 159.2 288.8 Q 172.8 275.2 187.2 256.8 Q 216 217.6 217.6 179.2 L 217.6 179.2 Z M 89.6 371.2 L 97.6 355.2 L 89.6 371.2 L 97.6 355.2 Q 101.6 345.6 94.4 339.2 Q 80.8 328 59.2 304.8 Q 36.8 281.6 19.2 248.8 Q 0.8 216.8 0 179.2 Q 1.6 124.8 37.6 88.8 Q 73.6 52.8 128 51.2 Q 182.4 52.8 218.4 88.8 Q 254.4 124.8 256 179.2 Q 255.2 216.8 236.8 248.8 Q 219.2 281.6 196.8 304.8 Q 175.2 328 161.6 339.2 Q 154.4 345.6 158.4 355.2 L 166.4 371.2 L 166.4 371.2 L 166.4 371.2 L 166.4 371.2 L 168.8 376 L 168.8 376 L 178.4 394.4 L 178.4 394.4 Q 179.2 396.8 179.2 399.2 Q 178.4 408.8 168.8 409.6 L 148 409.6 L 113.6 409.6 L 113.6 409.6 L 113.6 409.6 L 108 409.6 L 108 409.6 L 108 409.6 L 108 409.6 L 87.2 409.6 L 87.2 409.6 Q 77.6 408.8 76.8 399.2 Q 76.8 396.8 77.6 394.4 L 87.2 376 L 87.2 376 L 89.6 371.2 L 89.6 371.2 L 89.6 371.2 L 89.6 371.2 Z M 128 160 Q 110.4 161.6 108.8 179.2 Q 107.2 196.8 89.6 198.4 Q 72 196.8 70.4 179.2 Q 71.2 154.4 87.2 138.4 Q 103.2 122.4 128 121.6 Q 145.6 123.2 147.2 140.8 Q 145.6 158.4 128 160 L 128 160 Z M 350.4 390.4 Q 332 376 302.4 341.6 L 302.4 341.6 L 302.4 341.6 Q 272.8 307.2 260 260.8 Q 280 224 281.6 179.2 Q 281.6 167.2 280 156 Q 297.6 131.2 324.8 116.8 Q 351.2 102.4 384 102.4 Q 438.4 104 474.4 140 Q 510.4 176 512 230.4 Q 511.2 268 492.8 300 Q 475.2 332.8 452.8 356 Q 431.2 379.2 417.6 390.4 Q 410.4 396.8 414.4 406.4 L 422.4 422.4 L 422.4 422.4 L 422.4 422.4 L 422.4 422.4 L 424.8 427.2 L 424.8 427.2 L 434.4 445.6 L 434.4 445.6 Q 435.2 448 435.2 450.4 Q 434.4 460 424.8 460.8 L 404 460.8 L 369.6 460.8 L 369.6 460.8 L 369.6 460.8 L 364 460.8 L 343.2 460.8 Q 333.6 460 332.8 450.4 Q 332.8 448 333.6 445.6 L 343.2 427.2 L 343.2 427.2 L 345.6 422.4 L 345.6 422.4 L 345.6 422.4 L 345.6 422.4 L 353.6 406.4 L 353.6 406.4 Q 357.6 396.8 350.4 390.4 L 350.4 390.4 Z M 384 140.8 Q 345.6 141.6 320.8 167.2 L 320.8 167.2 L 320.8 167.2 Q 295.2 192 294.4 230.4 Q 296 268.8 324.8 308 Q 339.2 326.4 352.8 340 Q 366.4 353.6 375.2 360.8 Q 380 364.8 384 370.4 Q 388 364.8 392.8 360.8 Q 401.6 353.6 415.2 340 Q 428.8 326.4 443.2 308 Q 472 268.8 473.6 230.4 Q 472.8 192 447.2 167.2 Q 422.4 141.6 384 140.8 L 384 140.8 Z M 364.8 230.4 Q 363.2 248 345.6 249.6 Q 328 248 326.4 230.4 Q 327.2 205.6 343.2 189.6 Q 359.2 173.6 384 172.8 Q 401.6 174.4 403.2 192 Q 401.6 209.6 384 211.2 Q 366.4 212.8 364.8 230.4 L 364.8 230.4 Z" />
</svg>