<svg xmlns="http://www.w3.org/2000/svg" viewBox="0 0 512 512">
  <path d="M 287.7519379844961 65.48837209302326 Q 301.6434108527132 65.48837209302326 310.5736434108527 56.55813953488372 L 310.5736434108527 56.55813953488372 L 310.5736434108527 56.55813953488372 Q 319.50387596899225 47.627906976744185 319.50387596899225 33.736434108527135 Q 319.50387596899225 19.844961240310077 310.5736434108527 10.914728682170542 Q 301.6434108527132 1.9844961240310077 287.7519379844961 1.9844961240310077 Q 273.86046511627904 1.9844961240310077 264.93023255813955 10.914728682170542 Q 256 19.844961240310077 256 33.736434108527135 Q 256 47.627906976744185 264.93023255813955 56.55813953488372 Q 273.86046511627904 65.48837209302326 287.7519379844961 65.48837209302326 L 287.7519379844961 65.48837209302326 Z M 224.24806201550388 57.55038759689923 Q 224.24806201550388 43.65891472868217 215.31782945736435 34.72868217054263 L 215.31782945736435 34.72868217054263 L 215.31782945736435 34.72868217054263 Q 206.3875968992248 25.7984496124031 192.49612403100775 25.7984496124031 Q 178.6046511627907 25.7984496124031 169.67441860465115 34.72868217054263 Q 160.74418604651163 43.65891472868217 160.74418604651163 57.55038759689923 Q 160.74418604651163 71.44186046511628 169.67441860465115 80.37209302325581 Q 178.6046511627907 89.30232558139535 192.49612403100775 89.30232558139535 Q 206.3875968992248 89.30232558139535 215.31782945736435 80.37209302325581 Q 224.24806201550388 71.44186046511628 224.24806201550388 57.55038759689923 L 224.24806201550388 57.55038759689923 Z M 430.6356589147287 287.7519379844961 L 430.6356589147287 351.25581395348837 L 430.6356589147287 287.7519379844961 L 430.6356589147287 351.25581395348837 L 351.25581395348837 351.25581395348837 L 351.25581395348837 351.25581395348837 L 351.25581395348837 271.8759689922481 L 351.25581395348837 271.8759689922481 L 414.7596899224806 271.8759689922481 L 414.7596899224806 271.8759689922481 Q 429.6434108527132 272.86821705426354 430.6356589147287 287.7519379844961 L 430.6356589147287 287.7519379844961 Z M 430.6356589147287 398.8837209302326 L 430.6356589147287 446.51162790697674 L 430.6356589147287 398.8837209302326 L 430.6356589147287 446.51162790697674 Q 429.6434108527132 461.3953488372093 414.7596899224806 462.38759689922483 L 97.24031007751938 462.38759689922483 L 97.24031007751938 462.38759689922483 Q 82.35658914728683 461.3953488372093 81.36434108527132 446.51162790697674 L 81.36434108527132 398.8837209302326 L 81.36434108527132 398.8837209302326 L 184.5581395348837 398.8837209302326 L 430.6356589147287 398.8837209302326 Z M 81.36434108527132 351.25581395348837 L 81.36434108527132 287.7519379844961 L 81.36434108527132 351.25581395348837 L 81.36434108527132 287.7519379844961 Q 82.35658914728683 272.86821705426354 97.24031007751938 271.8759689922481 L 160.74418604651163 271.8759689922481 L 160.74418604651163 271.8759689922481 L 160.74418604651163 351.25581395348837 L 160.74418604651163 351.25581395348837 L 81.36434108527132 351.25581395348837 L 81.36434108527132 351.25581395348837 Z M 208.37209302325581 271.8759689922481 L 303.6279069767442 271.8759689922481 L 208.37209302325581 271.8759689922481 L 303.6279069767442 271.8759689922481 L 303.6279069767442 351.25581395348837 L 303.6279069767442 351.25581395348837 L 208.37209302325581 351.25581395348837 L 208.37209302325581 351.25581395348837 L 208.37209302325581 271.8759689922481 L 208.37209302325581 271.8759689922481 Z M 97.24031007751938 224.24806201550388 Q 70.44961240310077 225.24031007751938 52.58914728682171 243.10077519379846 L 52.58914728682171 243.10077519379846 L 52.58914728682171 243.10077519379846 Q 34.72868217054263 260.9612403100775 33.736434108527135 287.7519379844961 L 33.736434108527135 446.51162790697674 L 33.736434108527135 446.51162790697674 Q 34.72868217054263 473.30232558139534 52.58914728682171 491.16279069767444 Q 70.44961240310077 509.0232558139535 97.24031007751938 510.015503875969 L 414.7596899224806 510.015503875969 L 414.7596899224806 510.015503875969 Q 441.5503875968992 509.0232558139535 459.4108527131783 491.16279069767444 Q 477.27131782945736 473.30232558139534 478.26356589147287 446.51162790697674 L 478.26356589147287 287.7519379844961 L 478.26356589147287 287.7519379844961 Q 477.27131782945736 260.9612403100775 459.4108527131783 243.10077519379846 Q 441.5503875968992 225.24031007751938 414.7596899224806 224.24806201550388 L 279.8139534883721 224.24806201550388 L 279.8139534883721 224.24806201550388 L 279.8139534883721 148.8372093023256 L 279.8139534883721 148.8372093023256 L 491.16279069767444 105.17829457364341 L 491.16279069767444 105.17829457364341 Q 512 98.23255813953489 510.015503875969 76.40310077519379 Q 503.06976744186045 55.565891472868216 481.2403100775194 58.542635658914726 L 251.03875968992247 106.17054263565892 L 251.03875968992247 106.17054263565892 L 20.837209302325583 153.7984496124031 L 20.837209302325583 153.7984496124031 Q 0 159.75193798449612 2.9767441860465116 181.58139534883722 Q 8.930232558139535 202.41860465116278 30.75968992248062 200.43410852713177 L 232.1860465116279 158.75968992248062 L 232.1860465116279 158.75968992248062 L 232.1860465116279 224.24806201550388 L 232.1860465116279 224.24806201550388 L 97.24031007751938 224.24806201550388 L 97.24031007751938 224.24806201550388 Z" />
</svg>