<svg xmlns="http://www.w3.org/2000/svg" viewBox="0 0 576 384">
    <path d="M 320 48 Q 335 49 336 64 L 336 320 Q 335 335 320 336 L 64 336 Q 49 335 48 320 L 48 64 Q 49 49 64 48 L 320 48 L 320 48 Z M 64 0 Q 37 1 19 19 L 19 19 Q 1 37 0 64 L 0 320 Q 1 347 19 365 Q 37 383 64 384 L 320 384 Q 347 383 365 365 Q 383 347 384 320 L 384 287 L 384 97 L 384 64 Q 383 37 365 19 Q 347 1 320 0 L 64 0 L 64 0 Z M 528 85 L 528 299 L 416 249 L 416 302 L 520 349 Q 528 352 537 352 Q 553 352 564 340 Q 576 329 576 313 L 576 72 Q 576 55 564 44 Q 553 32 537 32 Q 528 32 520 36 L 416 82 L 416 135 L 528 85 L 528 85 Z M 152 96 Q 130 98 128 120 Q 130 142 152 144 L 206 144 L 103 247 Q 89 264 103 281 Q 120 295 137 281 L 240 178 L 240 232 Q 242 254 264 256 Q 286 254 288 232 L 288 120 Q 286 98 264 96 L 152 96 L 152 96 Z"/>
</svg>
