<svg xmlns="http://www.w3.org/2000/svg" viewBox="0 0 512 512">
  <path d="M 151.11111 322.66666 L 117.333336 356.44446 L 151.11111 322.66666 L 117.333336 356.44446 L 162.66667 401.77777 L 162.66667 401.77777 L 196.44444 368 L 196.44444 368 Q 209.77777 355.55554 226.66667 355.55554 L 269.33334 355.55554 L 269.33334 355.55554 L 284.44446 336 L 284.44446 336 L 184 235.55556 L 184 235.55556 L 163.55556 249.77777 L 163.55556 249.77777 L 163.55556 292.44446 L 163.55556 292.44446 Q 163.55556 309.33334 151.11111 322.66666 L 151.11111 322.66666 Z M 309.33334 300.44446 L 447.1111 108.44444 L 309.33334 300.44446 L 447.1111 108.44444 Q 448 107.55556 448 105.77778 Q 448 103.111115 446.22223 101.333336 L 417.77777 72.888885 L 417.77777 72.888885 Q 416 71.111115 414.22223 71.111115 Q 412.44446 71.111115 410.66666 72 L 218.66667 209.77777 L 218.66667 209.77777 L 309.33334 300.44446 L 309.33334 300.44446 Z M 269.33334 398.22223 L 226.66667 398.22223 L 269.33334 398.22223 L 226.66667 398.22223 L 188.44444 437.33334 L 188.44444 437.33334 Q 172.44444 451.55554 152.88889 446.22223 L 123.55556 475.55554 L 123.55556 475.55554 Q 115.55556 483.55554 104 483.55554 L 28.444445 483.55554 L 28.444445 483.55554 Q 16 483.55554 8 475.55554 Q 0 467.55554 0 455.1111 L 0 450.66666 L 0 450.66666 Q 0 439.1111 8 431.1111 L 72.888885 366.22223 L 72.888885 366.22223 Q 67.55556 346.66666 81.77778 330.66666 L 120.888885 292.44446 L 120.888885 292.44446 L 120.888885 249.77777 L 120.888885 249.77777 Q 121.77778 227.55556 138.66667 215.11111 L 385.77777 37.333332 L 385.77777 37.333332 Q 398.22223 28.444445 414.22223 28.444445 Q 433.77777 28.444445 448 42.666668 L 476.44446 71.111115 L 476.44446 71.111115 Q 490.66666 85.333336 490.66666 105.77778 Q 490.66666 120.888885 481.77777 133.33333 L 304 380.44446 L 304 380.44446 Q 291.55554 397.33334 269.33334 398.22223 L 269.33334 398.22223 Z M 100.44444 399.1111 L 58.666668 440.8889 L 100.44444 399.1111 L 58.666668 440.8889 L 97.77778 440.8889 L 97.77778 440.8889 L 120 418.66666 L 120 418.66666 L 100.44444 399.1111 L 100.44444 399.1111 Z M 220.44444 440.8889 L 490.66666 440.8889 L 220.44444 440.8889 L 490.66666 440.8889 Q 510.22223 442.66666 512 462.22223 Q 510.22223 481.77777 490.66666 483.55554 L 220.44444 483.55554 L 220.44444 483.55554 Q 200.88889 481.77777 199.11111 462.22223 Q 200.88889 442.66666 220.44444 440.8889 L 220.44444 440.8889 Z" />
</svg>