<svg xmlns="http://www.w3.org/2000/svg" viewBox="0 0 512 512">
  <path d="M 237.7495183044316 13.811175337186897 Q 220.97880539499036 0 204.20809248554914 13.811175337186897 L 93.71868978805395 124.30057803468208 L 93.71868978805395 124.30057803468208 Q 79.90751445086705 141.07129094412332 93.71868978805395 157.84200385356453 L 150.9364161849711 215.0597302504817 L 150.9364161849711 215.0597302504817 Q 112.46242774566474 208.15414258188824 74.97495183044316 217.03275529865124 Q 37.48747591522158 226.89788053949903 5.91907514450867 254.52023121387282 Q 0 259.4527938342967 0 267.34489402697494 L 0 267.34489402697494 L 0 267.34489402697494 Q 0 275.2369942196532 4.932562620423892 280.16955684007706 L 101.61078998073218 376.8477842003854 L 101.61078998073218 376.8477842003854 L 54.25818882466281 424.2003853564547 L 54.25818882466281 424.2003853564547 Q 40.447013487475914 440.97109826589593 54.25818882466281 457.7418111753372 Q 71.02890173410404 471.55298651252406 87.79961464354528 457.7418111753372 L 135.15221579961465 410.3892100192678 L 135.15221579961465 410.3892100192678 L 231.83044315992294 507.0674373795761 L 231.83044315992294 507.0674373795761 Q 236.76300578034682 512 244.65510597302506 512 L 244.65510597302506 512 L 244.65510597302506 512 Q 252.54720616570327 512 257.4797687861272 506.08092485549133 Q 284.11560693641616 474.5125240847784 293.980732177264 437.02504816955684 Q 303.84585741811173 398.5510597302505 296.9402697495183 361.0635838150289 L 354.15799614643544 418.28131021194605 L 354.15799614643544 418.28131021194605 Q 370.9287090558767 432.09248554913296 387.6994219653179 418.28131021194605 L 498.1888246628131 307.7919075144509 L 498.1888246628131 307.7919075144509 Q 512 291.0211946050096 498.1888246628131 274.2504816955684 L 431.1059730250482 207.16763005780348 L 431.1059730250482 207.16763005780348 L 456.7552986512524 181.51830443159923 L 456.7552986512524 181.51830443159923 Q 473.52601156069363 164.747591522158 473.52601156069363 141.07129094412332 Q 473.52601156069363 117.39499036608863 456.7552986512524 100.6242774566474 L 411.3757225433526 55.24470134874759 L 411.3757225433526 55.24470134874759 Q 394.6050096339114 38.47398843930636 370.9287090558767 38.47398843930636 Q 347.252408477842 38.47398843930636 330.48169556840077 55.24470134874759 L 304.8323699421965 80.89402697495183 L 304.8323699421965 80.89402697495183 L 237.7495183044316 13.811175337186897 L 237.7495183044316 13.811175337186897 Z M 272.2774566473988 299.89980732177264 Q 262.41233140655106 285.10211946050094 249.58766859344894 272.2774566473988 L 239.72254335260115 262.41233140655106 L 239.72254335260115 262.41233140655106 Q 226.89788053949903 249.58766859344894 212.10019267822736 239.72254335260115 L 364.02312138728325 88.78612716763006 L 364.02312138728325 88.78612716763006 Q 366.98265895953756 85.82658959537572 370.9287090558767 85.82658959537572 Q 374.8747591522158 85.82658959537572 377.8342967244701 88.78612716763006 L 423.21387283236993 134.16570327552986 L 423.21387283236993 134.16570327552986 Q 426.1734104046243 137.1252408477842 426.1734104046243 141.07129094412332 Q 426.1734104046243 145.01734104046244 423.21387283236993 147.97687861271677 L 272.2774566473988 299.89980732177264 L 272.2774566473988 299.89980732177264 Z M 271.2909441233141 114.4354527938343 L 194.34296724470136 191.38342967244702 L 271.2909441233141 114.4354527938343 L 194.34296724470136 191.38342967244702 L 144.03082851637765 141.07129094412332 L 144.03082851637765 141.07129094412332 L 220.97880539499036 64.1233140655106 L 220.97880539499036 64.1233140655106 L 271.2909441233141 114.4354527938343 L 271.2909441233141 114.4354527938343 Z M 370.9287090558767 367.96917148362235 L 320.616570327553 317.65703275529864 L 370.9287090558767 367.96917148362235 L 320.616570327553 317.65703275529864 L 397.5645472061657 240.70905587668594 L 397.5645472061657 240.70905587668594 L 447.8766859344894 291.0211946050096 L 447.8766859344894 291.0211946050096 L 370.9287090558767 367.96917148362235 L 370.9287090558767 367.96917148362235 Z M 216.04624277456648 305.8188824662813 Q 245.64161849710982 335.41425818882465 251.56069364161849 373.888246628131 L 251.56069364161849 373.888246628131 L 251.56069364161849 373.888246628131 Q 257.4797687861272 412.3622350674374 239.72254335260115 447.8766859344894 L 64.1233140655106 272.2774566473988 L 64.1233140655106 272.2774566473988 Q 99.63776493256262 254.52023121387282 138.11175337186899 260.4393063583815 Q 176.58574181117532 267.34489402697494 206.1811175337187 295.95375722543355 L 216.04624277456648 305.8188824662813 L 216.04624277456648 305.8188824662813 Z" />
</svg>