<svg xmlns="http://www.w3.org/2000/svg" viewBox="0 0 645 448">
    <path d="M 32 352 L 24 352 Q 2 350 0 328 L 0 296 L 0 152 L 0 120 Q 2 98 24 96 L 32 96 L 32 48 Q 33 28 46 14 Q 60 1 80 0 L 130 0 Q 192 0 245 32 L 405 128 L 456 128 Q 509 128 555 147 Q 601 166 635 210 Q 645 224 635 238 Q 601 282 555 301 Q 509 320 456 320 L 405 320 L 245 416 Q 192 448 130 448 L 80 448 Q 60 447 46 434 Q 33 420 32 400 L 32 352 L 32 352 Z M 312 320 L 168 320 Q 153 340 128 348 L 128 400 L 130 400 Q 179 400 221 375 L 312 320 L 312 320 Z M 312 128 L 221 73 Q 179 48 130 48 L 128 48 L 128 100 Q 153 108 168 128 L 312 128 L 312 128 Z M 48 152 L 48 296 L 48 304 L 104 304 Q 124 303 133 286 Q 140 273 155 272 L 456 272 Q 505 272 544 254 L 544 195 Q 505 176 456 176 L 155 176 Q 140 175 133 162 Q 124 145 104 144 L 48 144 L 48 152 L 48 152 Z M 464 192 Q 479 193 480 208 L 480 240 Q 479 255 464 256 Q 449 255 448 240 L 448 208 Q 449 193 464 192 L 464 192 Z"/>
</svg>
