<svg xmlns="http://www.w3.org/2000/svg" viewBox="0 0 512 512">
  <path d="M 379.0541 53.415764 Q 361.6445 54.998455 360.06183 72.408035 L 360.06183 78.73879 L 360.06183 78.73879 L 360.06183 205.35394 L 360.06183 205.35394 L 360.06183 458.58423 L 360.06183 458.58423 L 398.04636 458.58423 L 398.04636 458.58423 L 398.04636 205.35394 L 398.04636 205.35394 L 499.33847 205.35394 L 499.33847 205.35394 Q 511.20865 204.56259 512 192.69243 L 512 91.40031 L 512 91.40031 Q 511.20865 79.530136 499.33847 78.73879 L 398.04636 78.73879 L 398.04636 78.73879 L 398.04636 72.408035 L 398.04636 72.408035 Q 396.46368 54.998455 379.0541 53.415764 L 379.0541 53.415764 Z M 334.7388 158.66461 L 231.86398 82.69552 L 334.7388 158.66461 L 231.86398 82.69552 Q 220.78516 74.782074 209.70633 82.69552 L 13.452859 228.30293 L 13.452859 228.30293 Q 0 239.38176 9.496136 254.41731 Q 20.57496 267.87018 35.61051 258.37402 L 56.18547 243.33849 L 56.18547 243.33849 L 56.18547 395.27667 L 56.18547 395.27667 Q 56.976814 422.18237 74.3864 440.3833 Q 92.587326 457.79288 119.49304 458.58423 L 322.07727 458.58423 L 322.07727 458.58423 Q 328.40805 458.58423 334.7388 457.00156 L 334.7388 417.43433 L 334.7388 417.43433 Q 329.19937 420.5997 322.07727 420.5997 L 284.09274 420.5997 L 284.09274 420.5997 L 284.09274 325.63834 L 284.09274 325.63834 Q 284.09274 312.1855 274.5966 303.48068 Q 265.8918 293.98456 252.43895 293.98456 L 189.13138 293.98456 L 189.13138 293.98456 Q 175.67851 293.98456 166.97372 303.48068 Q 157.47758 312.1855 157.47758 325.63834 L 157.47758 420.5997 L 157.47758 420.5997 L 119.49304 420.5997 L 119.49304 420.5997 Q 108.41422 420.5997 101.292114 413.4776 Q 94.17001 406.3555 94.17001 395.27667 L 94.17001 215.64142 L 94.17001 215.64142 L 220.78516 121.471405 L 220.78516 121.471405 L 334.7388 206.14528 L 334.7388 206.14528 L 334.7388 158.66461 L 334.7388 158.66461 Z M 246.10818 331.9691 L 246.10818 420.5997 L 246.10818 331.9691 L 246.10818 420.5997 L 195.46213 420.5997 L 195.46213 420.5997 L 195.46213 331.9691 L 195.46213 331.9691 L 246.10818 331.9691 L 246.10818 331.9691 Z" />
</svg>