<svg xmlns="http://www.w3.org/2000/svg" viewBox="0 0 654 526">
    <path d="M 46 12 Q 27 0 12 16 Q 0 35 16 50 L 608 514 Q 627 526 642 510 Q 654 491 638 476 L 550 407 Q 554 395 546 384 L 531 365 Q 488 310 487 240 L 487 207 Q 486 149 450 108 Q 415 67 359 57 L 359 39 Q 359 25 350 16 Q 341 7 327 7 Q 313 7 304 16 Q 295 25 295 39 L 295 57 Q 227 69 191 126 L 46 12 L 46 12 Z M 229 155 Q 242 132 266 117 L 266 117 Q 290 103 319 103 L 327 103 L 335 103 Q 379 104 409 133 Q 438 163 439 207 L 439 240 Q 439 290 458 335 L 229 155 L 229 155 Z M 413 423 L 352 375 L 175 375 Q 207 325 214 266 L 167 229 L 167 241 Q 166 310 123 365 L 108 384 Q 100 396 105 409 Q 112 422 127 423 L 413 423 L 413 423 Z M 391 455 L 327 455 L 263 455 Q 263 481 282 500 Q 301 519 327 519 Q 353 519 372 500 Q 391 481 391 455 L 391 455 Z"/>
</svg>
