<svg xmlns="http://www.w3.org/2000/svg" viewBox="0 0 512 512">
  <path d="M 272.54752851711027 13.627376425855513 Q 256 0 239.45247148288973 13.627376425855513 L 169.36882129277566 83.71102661596959 L 169.36882129277566 83.71102661596959 Q 155.74144486692015 100.25855513307985 169.36882129277566 116.80608365019012 Q 185.91634980988593 130.43346007604563 202.4638783269962 116.80608365019012 L 232.63878326996198 86.63117870722434 L 232.63878326996198 86.63117870722434 L 232.63878326996198 170.34220532319392 L 232.63878326996198 170.34220532319392 Q 234.58555133079847 191.75665399239543 256 193.70342205323195 Q 277.41444866920153 191.75665399239543 279.361216730038 170.34220532319392 L 279.361216730038 86.63117870722434 L 279.361216730038 86.63117870722434 L 309.5361216730038 116.80608365019012 L 309.5361216730038 116.80608365019012 Q 326.08365019011404 130.43346007604563 342.6311787072243 116.80608365019012 Q 356.2585551330798 100.25855513307985 342.6311787072243 83.71102661596959 L 272.54752851711027 13.627376425855513 L 272.54752851711027 13.627376425855513 Z M 279.361216730038 341.6577946768061 Q 277.41444866920153 320.24334600760454 256 318.2965779467681 Q 234.58555133079847 320.24334600760454 232.63878326996198 341.6577946768061 L 232.63878326996198 425.3688212927757 L 232.63878326996198 425.3688212927757 L 202.4638783269962 395.1939163498099 L 202.4638783269962 395.1939163498099 Q 185.91634980988593 381.5665399239544 169.36882129277566 395.1939163498099 Q 155.74144486692015 411.7414448669202 169.36882129277566 428.28897338403044 L 239.45247148288973 498.3726235741445 L 239.45247148288973 498.3726235741445 Q 256 512 272.54752851711027 498.3726235741445 L 342.6311787072243 428.28897338403044 L 342.6311787072243 428.28897338403044 Q 356.2585551330798 411.7414448669202 342.6311787072243 395.1939163498099 Q 326.08365019011404 381.5665399239544 309.5361216730038 395.1939163498099 L 279.361216730038 425.3688212927757 L 279.361216730038 425.3688212927757 L 279.361216730038 341.6577946768061 L 279.361216730038 341.6577946768061 Z M 69.11026615969581 224.85171102661596 Q 55.4828897338403 224.85171102661596 46.72243346007605 233.61216730038024 L 46.72243346007605 233.61216730038024 L 46.72243346007605 233.61216730038024 Q 37.961977186311785 242.37262357414448 37.961977186311785 256 Q 37.961977186311785 269.6273764258555 46.72243346007605 278.38783269961976 Q 55.4828897338403 287.148288973384 69.11026615969581 287.148288973384 Q 82.73764258555133 287.148288973384 91.49809885931559 278.38783269961976 Q 100.25855513307985 269.6273764258555 100.25855513307985 256 Q 100.25855513307985 242.37262357414448 91.49809885931559 233.61216730038024 Q 82.73764258555133 224.85171102661596 69.11026615969581 224.85171102661596 L 69.11026615969581 224.85171102661596 Z M 162.5551330798479 224.85171102661596 Q 148.9277566539924 224.85171102661596 140.16730038022814 233.61216730038024 L 140.16730038022814 233.61216730038024 L 140.16730038022814 233.61216730038024 Q 131.40684410646386 242.37262357414448 131.40684410646386 256 Q 131.40684410646386 269.6273764258555 140.16730038022814 278.38783269961976 Q 148.9277566539924 287.148288973384 162.5551330798479 287.148288973384 Q 176.18250950570342 287.148288973384 184.94296577946767 278.38783269961976 Q 193.70342205323195 269.6273764258555 193.70342205323195 256 Q 193.70342205323195 242.37262357414448 184.94296577946767 233.61216730038024 Q 176.18250950570342 224.85171102661596 162.5551330798479 224.85171102661596 L 162.5551330798479 224.85171102661596 Z M 224.85171102661596 256 Q 224.85171102661596 269.6273764258555 233.61216730038024 278.38783269961976 L 233.61216730038024 278.38783269961976 L 233.61216730038024 278.38783269961976 Q 242.37262357414448 287.148288973384 256 287.148288973384 Q 269.6273764258555 287.148288973384 278.38783269961976 278.38783269961976 Q 287.148288973384 269.6273764258555 287.148288973384 256 Q 287.148288973384 242.37262357414448 278.38783269961976 233.61216730038024 Q 269.6273764258555 224.85171102661596 256 224.85171102661596 Q 242.37262357414448 224.85171102661596 233.61216730038024 233.61216730038024 Q 224.85171102661596 242.37262357414448 224.85171102661596 256 L 224.85171102661596 256 Z M 349.4448669201521 224.85171102661596 Q 335.8174904942966 224.85171102661596 327.05703422053233 233.61216730038024 L 327.05703422053233 233.61216730038024 L 327.05703422053233 233.61216730038024 Q 318.2965779467681 242.37262357414448 318.2965779467681 256 Q 318.2965779467681 269.6273764258555 327.05703422053233 278.38783269961976 Q 335.8174904942966 287.148288973384 349.4448669201521 287.148288973384 Q 363.0722433460076 287.148288973384 371.83269961977186 278.38783269961976 Q 380.5931558935361 269.6273764258555 380.5931558935361 256 Q 380.5931558935361 242.37262357414448 371.83269961977186 233.61216730038024 Q 363.0722433460076 224.85171102661596 349.4448669201521 224.85171102661596 L 349.4448669201521 224.85171102661596 Z M 411.7414448669202 256 Q 411.7414448669202 269.6273764258555 420.5019011406844 278.38783269961976 L 420.5019011406844 278.38783269961976 L 420.5019011406844 278.38783269961976 Q 429.2623574144487 287.148288973384 442.8897338403042 287.148288973384 Q 456.5171102661597 287.148288973384 465.27756653992395 278.38783269961976 Q 474.0380228136882 269.6273764258555 474.0380228136882 256 Q 474.0380228136882 242.37262357414448 465.27756653992395 233.61216730038024 Q 456.5171102661597 224.85171102661596 442.8897338403042 224.85171102661596 Q 429.2623574144487 224.85171102661596 420.5019011406844 233.61216730038024 Q 411.7414448669202 242.37262357414448 411.7414448669202 256 L 411.7414448669202 256 Z" />
</svg>