<svg xmlns="http://www.w3.org/2000/svg" viewBox="0 0 512 512">
  <path d="M 247.2 371.2 L 159.2 194.4 L 247.2 371.2 L 159.2 194.4 Q 141.6 221.6 140.8 256 Q 141.6 302.4 172 334.4 Q 201.6 366.4 247.2 371.2 L 247.2 371.2 Z M 186.4 164 L 288 366.4 L 186.4 164 L 288 366.4 Q 308.8 360.8 325.6 348 L 224 145.6 L 224 145.6 Q 203.2 151.2 186.4 164 L 186.4 164 Z M 264.8 140.8 L 353.6 317.6 L 264.8 140.8 L 353.6 317.6 Q 370.4 290.4 371.2 256 Q 370.4 209.6 340 177.6 Q 310.4 145.6 264.8 140.8 L 264.8 140.8 Z M 256 102.4 Q 309.6 103.2 349.6 134.4 L 349.6 134.4 L 349.6 134.4 Q 389.6 164.8 404 214.4 L 477.6 175.2 L 477.6 175.2 Q 492 168.8 501.6 180.8 Q 510.4 193.6 500 205.6 L 476 229.6 L 476 229.6 L 500 238.4 L 500 238.4 Q 511.2 243.2 512 256 Q 511.2 268.8 499.2 274.4 L 476 282.4 L 476 282.4 L 500 306.4 L 500 306.4 Q 510.4 318.4 501.6 331.2 Q 492 343.2 477.6 336.8 L 404 297.6 L 404 297.6 Q 389.6 347.2 349.6 377.6 Q 309.6 408.8 256 409.6 Q 202.4 408.8 162.4 377.6 Q 122.4 347.2 108 297.6 L 34.4 336.8 L 34.4 336.8 Q 20 343.2 10.4 331.2 Q 1.6 318.4 12 306.4 L 36 282.4 L 36 282.4 L 12.8 274.4 L 12.8 274.4 Q 0.8 268.8 0 256 Q 0.8 243.2 12.8 238.4 L 36 229.6 L 36 229.6 L 12 205.6 L 12 205.6 Q 1.6 193.6 10.4 180.8 Q 20 168.8 34.4 175.2 L 108 214.4 L 108 214.4 Q 122.4 164.8 162.4 134.4 Q 202.4 103.2 256 102.4 L 256 102.4 Z" />
</svg>