<svg xmlns="http://www.w3.org/2000/svg" viewBox="0 0 504 504">
    <path d="M 206 94 Q 192 108 173 108 L 108 108 L 108 173 Q 108 192 94 206 L 48 252 L 94 298 Q 108 312 108 332 L 108 396 L 173 396 Q 192 396 207 410 L 252 456 L 298 410 Q 312 396 332 396 L 396 396 L 396 332 Q 396 312 410 298 L 456 252 L 410 206 Q 396 192 396 173 L 396 108 L 332 108 Q 312 108 298 94 L 252 48 L 206 94 L 206 94 Z M 218 14 Q 233 0 252 0 L 252 0 Q 271 0 286 14 L 332 60 L 396 60 Q 416 61 430 74 Q 443 88 444 108 L 444 173 L 490 218 Q 504 233 504 252 Q 504 271 490 286 L 444 332 L 444 396 Q 443 416 430 430 Q 416 443 396 444 L 332 444 L 286 490 Q 271 504 252 504 Q 233 504 218 490 L 173 444 L 108 444 Q 88 443 74 430 Q 61 416 60 396 L 60 332 L 14 286 Q 0 271 0 252 Q 0 233 14 218 L 60 173 L 60 108 Q 61 88 74 74 Q 88 61 108 60 L 173 60 L 218 14 L 218 14 Z"/>
</svg>
