<svg xmlns="http://www.w3.org/2000/svg" viewBox="0 0 272 512">
    <path d="M 72 24 Q 74 2 96 0 L 176 0 Q 198 2 200 24 L 200 78 Q 216 84 230 94 L 236 99 Q 271 127 272 172 Q 272 191 265 207 Q 272 222 272 240 Q 272 257 265 272 Q 272 287 272 304 Q 272 321 265 336 Q 272 351 272 368 Q 272 385 265 400 Q 272 415 272 432 Q 271 466 249 489 Q 226 511 192 512 L 80 512 Q 46 511 23 489 Q 1 466 0 432 Q 0 415 7 400 Q 0 385 0 368 Q 0 351 7 336 Q 0 321 0 304 Q 0 287 7 272 Q 0 257 0 240 Q 0 222 7 207 Q 0 191 0 172 Q 1 127 36 99 L 42 94 Q 56 84 72 78 L 72 24 L 72 24 Z M 214 208 Q 214 201 217 195 Q 224 185 224 172 Q 224 150 207 137 L 201 132 Q 185 120 165 120 L 107 120 Q 87 120 71 132 L 65 137 Q 48 150 48 172 Q 48 185 54 195 Q 58 201 58 208 L 214 208 L 214 208 Z M 58 336 Q 58 343 54 350 Q 48 358 48 368 Q 48 378 54 386 Q 62 400 54 414 Q 48 422 48 432 Q 48 446 57 455 Q 66 464 80 464 L 192 464 Q 206 464 215 455 Q 224 446 224 432 Q 224 422 218 414 Q 210 400 218 386 Q 224 378 224 368 Q 224 357 218 350 Q 214 343 214 336 L 58 336 L 58 336 Z"/>
</svg>
