<svg xmlns="http://www.w3.org/2000/svg" viewBox="0 0 448 448">
    <path d="M 64 48 Q 49 49 48 64 L 48 384 Q 49 399 64 400 L 384 400 Q 399 399 400 384 L 400 64 Q 399 49 384 48 L 64 48 L 64 48 Z M 0 64 Q 1 37 19 19 L 19 19 Q 37 1 64 0 L 384 0 Q 411 1 429 19 Q 447 37 448 64 L 448 384 Q 447 411 429 429 Q 411 447 384 448 L 64 448 Q 37 447 19 429 Q 1 411 0 384 L 0 64 L 0 64 Z M 292 168 Q 317 169 334 186 L 334 186 Q 351 203 352 228 L 352 316 Q 351 340 336 357 Q 320 374 296 376 L 296 376 Q 295 376 295 376 Q 294 376 294 376 Q 293 376 293 376 Q 292 376 292 376 Q 283 376 276 374 Q 246 367 225 343 L 180 290 L 141 363 Q 129 382 109 373 Q 90 361 99 341 L 155 237 Q 161 226 173 224 Q 186 223 194 233 L 232 277 L 232 228 Q 233 203 250 186 Q 267 169 292 168 L 292 168 Z M 288 327 Q 291 328 293 328 Q 303 326 304 316 L 304 228 Q 303 217 292 216 Q 281 217 280 228 L 280 316 Q 280 324 288 327 L 288 327 Z M 208 80 Q 235 81 250 104 Q 262 128 250 152 Q 235 175 208 176 Q 181 175 166 152 Q 154 128 166 104 Q 181 81 208 80 L 208 80 Z"/>
</svg>
