<svg xmlns="http://www.w3.org/2000/svg" viewBox="0 0 512 512">
  <path d="M 380.2675814751286 211.21097770154373 Q 367.0943396226415 198.91595197255575 349.5300171526587 198.91595197255575 Q 334.6003430531732 198.91595197255575 322.30531732418524 187.4991423670669 L 288.9331046312178 154.12692967409947 L 288.9331046312178 154.12692967409947 Q 281.02915951972557 146.2229845626072 281.02915951972557 134.80617495711834 L 281.02915951972557 124.26758147512865 L 281.02915951972557 124.26758147512865 Q 280.1509433962264 99.67753001715266 259.073756432247 86.50428816466552 L 239.75300171526587 76.84391080617496 L 239.75300171526587 76.84391080617496 Q 251.16981132075472 73.33104631217839 262.58662092624354 73.33104631217839 L 278.39451114922815 73.33104631217839 L 278.39451114922815 73.33104631217839 Q 311.7667238421955 73.33104631217839 336.35677530017153 96.16466552315609 L 375.87650085763295 133.04974271012006 L 375.87650085763295 133.04974271012006 Q 388.1715265866209 146.2229845626072 387.29331046312177 162.9090909090909 Q 386.41509433962267 182.22984562607203 399.58833619210975 195.40308747855917 L 432.0823327615781 227.89708404802744 L 432.0823327615781 227.89708404802744 L 414.5180102915952 245.46140651801028 L 414.5180102915952 245.46140651801028 L 380.2675814751286 211.21097770154373 L 380.2675814751286 211.21097770154373 Z M 190.5728987993139 97.04288164665523 L 190.5728987993139 97.92109777015438 L 190.5728987993139 97.04288164665523 L 190.5728987993139 97.92109777015438 L 238.87478559176674 124.26758147512865 L 238.87478559176674 124.26758147512865 L 238.87478559176674 134.80617495711834 L 238.87478559176674 134.80617495711834 Q 238.87478559176674 162.9090909090909 259.073756432247 183.98627787307032 L 292.4459691252144 217.35849056603774 L 292.4459691252144 217.35849056603774 Q 317.91423670668956 241.07032590051458 350.40823327615783 241.07032590051458 L 384.65866209262435 275.3207547169811 L 384.65866209262435 275.3207547169811 L 385.5368782161235 276.1989708404803 L 385.5368782161235 276.1989708404803 L 371.4854202401372 290.2504288164665 L 371.4854202401372 290.2504288164665 Q 359.19039451114924 305.180102915952 371.4854202401372 320.1097770154374 Q 386.41509433962267 332.4048027444254 401.34476843910807 320.1097770154374 L 499.704974271012 221.74957118353345 L 499.704974271012 221.74957118353345 Q 512 206.81989708404802 499.704974271012 191.8902229845626 Q 484.77530017152657 179.59519725557462 469.84562607204117 191.8902229845626 L 462.819897084048 198.91595197255575 L 462.819897084048 198.91595197255575 L 461.94168096054887 198.03773584905662 L 461.94168096054887 198.03773584905662 L 429.4476843910806 165.54373927958832 L 429.4476843910806 165.54373927958832 Q 431.2041166380789 129.5368782161235 404.85763293310464 102.31217838765009 L 365.3379073756432 65.42710120068611 L 365.3379073756432 65.42710120068611 Q 328.45283018867923 32.054888507718694 278.39451114922815 31.176672384219554 L 262.58662092624354 31.176672384219554 L 262.58662092624354 31.176672384219554 Q 236.2401372212693 31.176672384219554 211.6500857632933 41.715265866209265 L 192.32933104631218 50.497427101200685 L 192.32933104631218 50.497427101200685 L 192.32933104631218 50.497427101200685 L 192.32933104631218 50.497427101200685 L 187.06003430531732 53.132075471698116 L 187.06003430531732 53.132075471698116 L 170.37392795883363 60.15780445969125 L 170.37392795883363 60.15780445969125 Q 162.46998284734133 64.54888507718697 161.5917667238422 72.45283018867924 Q 161.5917667238422 81.23499142367066 168.61749571183535 85.62607204116638 L 185.30360205831903 94.4082332761578 L 185.30360205831903 94.4082332761578 L 190.5728987993139 97.04288164665523 L 190.5728987993139 97.04288164665523 Z M 229.21440823327615 191.8902229845626 L 23.711835334476845 362.2641509433962 L 229.21440823327615 191.8902229845626 L 23.711835334476845 362.2641509433962 Q 0.8782161234991424 382.4631217838765 0 414.07890222984565 Q 0.8782161234991424 442.1818181818182 19.32075471698113 461.5025728987993 Q 38.64150943396226 479.9451114922813 66.74442538593482 480.82332761578044 Q 98.36020583190394 479.9451114922813 118.55917667238423 457.1114922813036 L 289.811320754717 250.73070325900514 L 289.811320754717 250.73070325900514 Q 281.02915951972557 245.46140651801028 273.12521440823326 237.557461406518 L 239.75300171526587 204.1852487135506 L 239.75300171526587 204.1852487135506 Q 233.60548885077188 198.03773584905662 229.21440823327615 191.8902229845626 L 229.21440823327615 191.8902229845626 Z" />
</svg>