<svg xmlns="http://www.w3.org/2000/svg" viewBox="0 0 482 515">
    <path d="M 241 49 L 58 127 Q 49 132 49 140 Q 49 187 65 248 Q 81 308 121 366 Q 162 423 235 460 Q 241 462 247 460 Q 320 423 361 366 Q 401 308 417 248 Q 433 187 433 140 Q 433 132 424 127 L 241 49 L 241 49 Z M 254 3 L 443 83 Q 460 90 470 105 Q 481 120 481 140 Q 482 191 464 260 Q 446 329 399 394 Q 353 460 267 503 Q 241 515 215 503 Q 129 460 83 394 Q 36 329 18 260 Q 0 191 1 140 Q 1 120 12 105 Q 22 90 39 83 L 228 3 Q 234 0 241 0 Q 248 0 254 3 L 254 3 Z"/>
</svg>
