<svg xmlns="http://www.w3.org/2000/svg" viewBox="0 0 512 512">
  <path d="M 136.6319845857418 13.811175337186897 Q 153.40269749518305 0 170.17341040462426 13.811175337186897 L 256 99.63776493256262 L 256 99.63776493256262 L 341.8265895953757 13.811175337186897 L 341.8265895953757 13.811175337186897 Q 358.597302504817 0 375.3680154142582 13.811175337186897 Q 389.1791907514451 30.581888246628132 375.3680154142582 47.35260115606936 L 321.1098265895954 101.61078998073218 L 321.1098265895954 101.61078998073218 L 429.626204238921 101.61078998073218 L 429.626204238921 101.61078998073218 Q 463.1676300578035 102.59730250481695 485.85741811175336 124.30057803468208 Q 507.5606936416185 146.990366088632 508.5472061657033 180.53179190751445 L 508.5472061657033 433.07899807321775 L 508.5472061657033 433.07899807321775 Q 507.5606936416185 466.6204238921002 485.85741811175336 489.3102119460501 Q 463.1676300578035 511.0134874759152 429.626204238921 512 L 82.373795761079 512 L 82.373795761079 512 Q 48.83236994219653 511.0134874759152 26.142581888246628 489.3102119460501 Q 4.4393063583815024 466.6204238921002 3.4527938342967244 433.07899807321775 L 3.4527938342967244 180.53179190751445 L 3.4527938342967244 180.53179190751445 Q 4.4393063583815024 146.990366088632 26.142581888246628 124.30057803468208 Q 48.83236994219653 102.59730250481695 82.373795761079 101.61078998073218 L 190.89017341040463 101.61078998073218 L 190.89017341040463 101.61078998073218 L 136.6319845857418 47.35260115606936 L 136.6319845857418 47.35260115606936 Q 122.82080924855491 30.581888246628132 136.6319845857418 13.811175337186897 L 136.6319845857418 13.811175337186897 Z M 82.373795761079 148.96339113680153 Q 68.5626204238921 148.96339113680153 59.6840077071291 157.84200385356453 L 59.6840077071291 157.84200385356453 L 59.6840077071291 157.84200385356453 Q 50.80539499036609 166.72061657032756 50.80539499036609 180.53179190751445 L 50.80539499036609 433.07899807321775 L 50.80539499036609 433.07899807321775 Q 50.80539499036609 446.8901734104046 59.6840077071291 455.76878612716763 Q 68.5626204238921 464.64739884393066 82.373795761079 464.64739884393066 L 429.626204238921 464.64739884393066 L 429.626204238921 464.64739884393066 Q 443.4373795761079 464.64739884393066 452.31599229287093 455.76878612716763 Q 461.1946050096339 446.8901734104046 461.1946050096339 433.07899807321775 L 461.1946050096339 180.53179190751445 L 461.1946050096339 180.53179190751445 Q 461.1946050096339 166.72061657032756 452.31599229287093 157.84200385356453 Q 443.4373795761079 148.96339113680153 429.626204238921 148.96339113680153 L 82.373795761079 148.96339113680153 L 82.373795761079 148.96339113680153 Z M 413.84200385356456 204.20809248554914 Q 435.54527938342966 206.1811175337187 437.51830443159923 227.88439306358381 Q 435.54527938342966 249.58766859344894 413.84200385356456 251.56069364161849 Q 392.1387283236994 249.58766859344894 390.1657032755299 227.88439306358381 Q 392.1387283236994 206.1811175337187 413.84200385356456 204.20809248554914 L 413.84200385356456 204.20809248554914 Z M 390.1657032755299 306.8053949903661 Q 392.1387283236994 285.10211946050094 413.84200385356456 283.1290944123314 Q 435.54527938342966 285.10211946050094 437.51830443159923 306.8053949903661 Q 435.54527938342966 328.5086705202312 413.84200385356456 330.48169556840077 Q 392.1387283236994 328.5086705202312 390.1657032755299 306.8053949903661 L 390.1657032755299 306.8053949903661 Z M 145.5105973025048 196.3159922928709 L 303.35260115606934 196.3159922928709 L 145.5105973025048 196.3159922928709 L 303.35260115606934 196.3159922928709 Q 323.0828516377649 197.3025048169557 336.8940269749518 210.1271676300578 Q 349.71868978805395 223.9383429672447 350.70520231213874 243.66859344894027 L 350.70520231213874 369.9421965317919 L 350.70520231213874 369.9421965317919 Q 349.71868978805395 389.6724470134875 336.8940269749518 403.48362235067435 Q 323.0828516377649 416.3082851637765 303.35260115606934 417.29479768786126 L 145.5105973025048 417.29479768786126 L 145.5105973025048 417.29479768786126 Q 125.78034682080924 416.3082851637765 111.96917148362235 403.48362235067435 Q 99.14450867052022 389.6724470134875 98.15799614643545 369.9421965317919 L 98.15799614643545 243.66859344894027 L 98.15799614643545 243.66859344894027 Q 99.14450867052022 223.9383429672447 111.96917148362235 210.1271676300578 Q 125.78034682080924 197.3025048169557 145.5105973025048 196.3159922928709 L 145.5105973025048 196.3159922928709 Z" />
</svg>