<svg xmlns="http://www.w3.org/2000/svg" viewBox="0 0 512 512">
  <path d="M 102.4 51.2 L 102.4 170.66667 L 102.4 51.2 L 102.4 170.66667 Q 102.4 174.93333 105.6 177.06667 L 160 218.66667 L 160 218.66667 Q 171.73334 227.2 170.66667 242.13333 L 160 341.33334 L 160 341.33334 L 107.73333 341.33334 L 107.73333 341.33334 L 118.4 250.66667 L 118.4 250.66667 L 74.666664 218.66667 L 74.666664 218.66667 Q 52.266666 200.53334 51.2 170.66667 L 51.2 42.666668 L 51.2 42.666668 Q 51.2 24.533333 64 12.8 Q 75.73333 0 93.86667 0 L 418.13333 0 L 418.13333 0 Q 436.26666 0 448 12.8 Q 460.8 24.533333 460.8 42.666668 L 460.8 170.66667 L 460.8 170.66667 Q 459.73334 200.53334 437.33334 218.66667 L 393.6 250.66667 L 393.6 250.66667 L 404.26666 341.33334 L 404.26666 341.33334 L 353.06668 341.33334 L 353.06668 341.33334 L 341.33334 242.13333 L 341.33334 242.13333 Q 340.26666 227.2 352 218.66667 L 406.4 177.06667 L 406.4 177.06667 Q 409.6 174.93333 409.6 170.66667 L 409.6 51.2 L 409.6 51.2 L 341.33334 51.2 L 341.33334 51.2 L 341.33334 76.8 L 341.33334 76.8 Q 339.2 100.26667 315.73334 102.4 Q 292.26666 100.26667 290.13333 76.8 L 290.13333 51.2 L 290.13333 51.2 L 221.86667 51.2 L 221.86667 51.2 L 221.86667 76.8 L 221.86667 76.8 Q 219.73334 100.26667 196.26666 102.4 Q 172.8 100.26667 170.66667 76.8 L 170.66667 51.2 L 170.66667 51.2 L 102.4 51.2 L 102.4 51.2 Z M 107.73333 460.8 L 404.26666 460.8 L 107.73333 460.8 L 404.26666 460.8 L 387.2 426.66666 L 387.2 426.66666 L 124.8 426.66666 L 124.8 426.66666 L 107.73333 460.8 L 107.73333 460.8 Z M 397.86667 375.46667 Q 418.13333 376.53333 427.73334 393.6 L 455.46667 449.06668 L 455.46667 449.06668 Q 460.8 457.6 460.8 468.26666 Q 460.8 487.46667 448 499.2 Q 436.26666 512 417.06668 512 L 94.933334 512 L 94.933334 512 Q 75.73333 512 64 499.2 Q 51.2 487.46667 51.2 468.26666 Q 51.2 457.6 56.533333 449.06668 L 84.26667 393.6 L 84.26667 393.6 Q 93.86667 376.53333 115.2 375.46667 L 397.86667 375.46667 L 397.86667 375.46667 Z M 238.93333 273.06668 Q 222.93333 272 221.86667 256 L 221.86667 204.8 L 221.86667 204.8 Q 221.86667 189.86667 231.46666 180.26666 Q 241.06667 170.66667 256 170.66667 Q 270.93332 170.66667 280.53333 180.26666 Q 290.13333 189.86667 290.13333 204.8 L 290.13333 256 L 290.13333 256 Q 289.06668 272 273.06668 273.06668 L 238.93333 273.06668 L 238.93333 273.06668 Z" />
</svg>