<svg xmlns="http://www.w3.org/2000/svg" viewBox="0 0 512 512">
  <path d="M 384 48 Q 404 49 418 62 L 418 62 L 418 62 Q 431 76 432 96 L 432 160 L 432 160 L 80 160 L 80 160 L 80 96 L 80 96 Q 81 76 94 62 Q 108 49 128 48 L 384 48 L 384 48 Z M 432 208 L 432 448 L 432 208 L 432 448 Q 431 463 416 464 L 96 464 L 96 464 Q 81 463 80 448 L 80 208 L 80 208 L 432 208 L 432 208 Z M 128 0 Q 87 1 60 28 L 60 28 L 60 28 Q 33 55 32 96 L 32 448 L 32 448 Q 33 475 51 493 Q 69 511 96 512 L 416 512 L 416 512 Q 443 511 461 493 Q 479 475 480 448 L 480 96 L 480 96 Q 479 55 452 28 Q 425 1 384 0 L 128 0 L 128 0 Z M 160 104 Q 158 82 136 80 Q 114 82 112 104 Q 114 126 136 128 Q 158 126 160 104 L 160 104 Z M 216 128 Q 238 126 240 104 Q 238 82 216 80 Q 194 82 192 104 Q 194 126 216 128 L 216 128 Z M 320 104 Q 318 82 296 80 Q 274 82 272 104 Q 274 126 296 128 Q 318 126 320 104 L 320 104 Z M 376 128 Q 398 126 400 104 Q 398 82 376 80 Q 354 82 352 104 Q 354 126 376 128 L 376 128 Z M 144 240 Q 130 240 121 249 L 121 249 L 121 249 Q 112 258 112 272 L 112 400 L 112 400 Q 112 414 121 423 Q 130 432 144 432 L 368 432 L 368 432 Q 382 432 391 423 Q 400 414 400 400 L 400 272 L 400 272 Q 400 258 391 249 Q 382 240 368 240 L 144 240 L 144 240 Z M 176 288 L 336 288 L 176 288 L 336 288 Q 351 289 352 304 Q 351 319 336 320 L 176 320 L 176 320 Q 161 319 160 304 Q 161 289 176 288 L 176 288 Z" />
</svg>