<svg xmlns="http://www.w3.org/2000/svg" viewBox="0 0 512 512">
  <path d="M 73.14285714285714 54.857142857142854 Q 56 56 54.857142857142854 73.14285714285714 L 54.857142857142854 438.85714285714283 L 54.857142857142854 438.85714285714283 Q 56 456 73.14285714285714 457.14285714285717 L 438.85714285714283 457.14285714285717 L 438.85714285714283 457.14285714285717 Q 456 456 457.14285714285717 438.85714285714283 L 457.14285714285717 73.14285714285714 L 457.14285714285717 73.14285714285714 Q 456 56 438.85714285714283 54.857142857142854 L 73.14285714285714 54.857142857142854 L 73.14285714285714 54.857142857142854 Z M 0 73.14285714285714 Q 1.1428571428571428 42.285714285714285 21.714285714285715 21.714285714285715 L 21.714285714285715 21.714285714285715 L 21.714285714285715 21.714285714285715 Q 42.285714285714285 1.1428571428571428 73.14285714285714 0 L 438.85714285714283 0 L 438.85714285714283 0 Q 469.7142857142857 1.1428571428571428 490.2857142857143 21.714285714285715 Q 510.85714285714283 42.285714285714285 512 73.14285714285714 L 512 438.85714285714283 L 512 438.85714285714283 Q 510.85714285714283 469.7142857142857 490.2857142857143 490.2857142857143 Q 469.7142857142857 510.85714285714283 438.85714285714283 512 L 73.14285714285714 512 L 73.14285714285714 512 Q 42.285714285714285 510.85714285714283 21.714285714285715 490.2857142857143 Q 1.1428571428571428 469.7142857142857 0 438.85714285714283 L 0 73.14285714285714 L 0 73.14285714285714 Z M 384 267.42857142857144 L 278.85714285714283 373.7142857142857 L 384 267.42857142857144 L 278.85714285714283 373.7142857142857 Q 268.57142857142856 382.85714285714283 256 382.85714285714283 Q 243.42857142857142 382.85714285714283 233.14285714285714 373.7142857142857 L 128 267.42857142857144 L 128 267.42857142857144 Q 106.28571428571429 242.28571428571428 106.28571428571429 211.42857142857142 Q 106.28571428571429 180.57142857142858 128 155.42857142857142 Q 152 132.57142857142858 182.85714285714286 132.57142857142858 Q 213.71428571428572 132.57142857142858 237.71428571428572 155.42857142857142 L 256 174.85714285714286 L 256 174.85714285714286 L 274.2857142857143 155.42857142857142 L 274.2857142857143 155.42857142857142 Q 298.2857142857143 132.57142857142858 329.14285714285717 132.57142857142858 Q 360 132.57142857142858 384 155.42857142857142 Q 406.85714285714283 180.57142857142858 406.85714285714283 211.42857142857142 Q 406.85714285714283 242.28571428571428 384 267.42857142857144 L 384 267.42857142857144 Z" />
</svg>