<svg xmlns="http://www.w3.org/2000/svg" viewBox="0 0 512 512">
  <path d="M 54.857142857142854 54.857142857142854 L 54.857142857142854 109.71428571428571 L 54.857142857142854 54.857142857142854 L 54.857142857142854 109.71428571428571 Q 52.57142857142857 134.85714285714286 27.428571428571427 137.14285714285714 Q 2.2857142857142856 134.85714285714286 0 109.71428571428571 L 0 45.714285714285715 L 0 45.714285714285715 Q 0 26.285714285714285 13.714285714285714 13.714285714285714 Q 26.285714285714285 0 45.714285714285715 0 L 466.2857142857143 0 L 466.2857142857143 0 Q 485.7142857142857 0 498.2857142857143 13.714285714285714 Q 512 26.285714285714285 512 45.714285714285715 L 512 109.71428571428571 L 512 109.71428571428571 Q 509.7142857142857 134.85714285714286 484.57142857142856 137.14285714285714 Q 459.42857142857144 134.85714285714286 457.14285714285717 109.71428571428571 L 457.14285714285717 54.857142857142854 L 457.14285714285717 54.857142857142854 L 283.42857142857144 54.857142857142854 L 283.42857142857144 54.857142857142854 L 283.42857142857144 457.14285714285717 L 283.42857142857144 457.14285714285717 L 338.2857142857143 457.14285714285717 L 338.2857142857143 457.14285714285717 Q 363.42857142857144 459.42857142857144 365.7142857142857 484.57142857142856 Q 363.42857142857144 509.7142857142857 338.2857142857143 512 L 173.71428571428572 512 L 173.71428571428572 512 Q 148.57142857142858 509.7142857142857 146.28571428571428 484.57142857142856 Q 148.57142857142858 459.42857142857144 173.71428571428572 457.14285714285717 L 228.57142857142858 457.14285714285717 L 228.57142857142858 457.14285714285717 L 228.57142857142858 54.857142857142854 L 228.57142857142858 54.857142857142854 L 54.857142857142854 54.857142857142854 L 54.857142857142854 54.857142857142854 Z" />
</svg>