<svg xmlns="http://www.w3.org/2000/svg" viewBox="0 0 647 512">
    <path d="M 327 80 Q 327 94 318 103 L 318 103 Q 309 112 295 112 Q 281 112 272 103 Q 263 94 263 80 Q 263 66 272 57 Q 281 48 295 48 Q 309 48 318 57 Q 327 66 327 80 L 327 80 Z M 295 0 Q 261 1 238 23 L 238 23 Q 216 46 215 80 Q 215 107 231 128 Q 246 148 271 156 Q 271 158 271 160 L 271 192 L 223 192 Q 201 194 199 216 Q 201 238 223 240 L 271 240 L 271 464 L 247 464 Q 190 463 152 426 Q 114 388 111 332 L 127 346 Q 145 359 161 344 Q 174 326 159 310 L 103 262 Q 87 250 71 262 L 15 310 Q 0 326 13 344 Q 29 359 47 346 L 63 332 Q 67 409 118 459 Q 170 510 247 512 L 295 512 L 343 512 Q 369 512 393 505 Q 371 487 355 464 Q 349 464 343 464 L 319 464 L 319 240 L 367 240 Q 389 238 391 216 Q 389 194 367 192 L 319 192 L 319 160 Q 319 158 319 156 Q 344 148 359 128 Q 375 107 375 80 Q 374 46 352 23 Q 329 1 295 0 L 295 0 Z M 503 512 Q 542 512 575 493 L 575 493 Q 608 474 628 440 Q 647 406 647 368 Q 647 330 628 296 Q 608 262 575 243 Q 542 224 503 224 Q 464 224 431 243 Q 398 262 378 296 Q 359 330 359 368 Q 359 406 378 440 Q 398 474 431 493 Q 464 512 503 512 L 503 512 Z M 503 416 Q 525 418 527 440 Q 525 462 503 464 Q 481 462 479 440 Q 481 418 503 416 L 503 416 Z M 503 272 Q 518 273 519 288 L 519 368 Q 518 383 503 384 Q 488 383 487 368 L 487 288 Q 488 273 503 272 L 503 272 Z"/>
</svg>
