<svg xmlns="http://www.w3.org/2000/svg" viewBox="0 0 636 512">
    <path d="M 478 96 Q 505 95 520 72 Q 532 48 520 24 Q 505 1 478 0 Q 451 1 436 24 Q 424 48 436 72 Q 451 95 478 96 L 478 96 Z M 464 176 L 492 176 Q 493 176 494 176 L 494 304 L 462 304 L 462 176 Q 463 176 463 176 Q 464 176 464 176 L 464 176 Z M 462 488 L 462 352 L 494 352 L 494 488 Q 496 510 518 512 Q 540 510 542 488 L 542 224 L 585 300 Q 598 318 618 309 Q 636 296 627 276 L 568 173 Q 556 152 536 140 Q 516 128 492 128 L 464 128 Q 440 128 420 140 Q 400 152 388 173 L 329 276 Q 320 296 338 309 Q 358 318 371 300 L 414 224 L 414 488 Q 416 510 438 512 Q 460 510 462 488 L 462 488 Z M 189 18 Q 185 8 174 8 Q 163 8 159 18 L 130 92 L 54 69 Q 43 66 36 74 Q 30 83 35 92 L 75 161 L 9 206 Q 0 213 2 223 Q 5 233 16 235 L 94 247 L 89 327 Q 88 338 98 343 Q 107 347 115 340 L 174 286 L 233 340 Q 241 347 250 343 Q 260 338 259 327 L 254 248 L 304 240 L 327 198 L 274 161 L 313 92 Q 318 83 312 74 Q 305 66 294 69 L 218 92 L 189 18 L 189 18 Z"/>
</svg>
