<svg xmlns="http://www.w3.org/2000/svg" viewBox="0 0 512 512">
  <path d="M 73.14286 54.857143 Q 56 56 54.857143 73.14286 L 54.857143 438.85715 L 54.857143 438.85715 Q 56 456 73.14286 457.14285 L 438.85715 457.14285 L 438.85715 457.14285 Q 456 456 457.14285 438.85715 L 457.14285 73.14286 L 457.14285 73.14286 Q 456 56 438.85715 54.857143 L 73.14286 54.857143 L 73.14286 54.857143 Z M 0 73.14286 Q 1.1428572 42.285713 21.714285 21.714285 L 21.714285 21.714285 L 21.714285 21.714285 Q 42.285713 1.1428572 73.14286 0 L 438.85715 0 L 438.85715 0 Q 469.7143 1.1428572 490.2857 21.714285 Q 510.85715 42.285713 512 73.14286 L 512 438.85715 L 512 438.85715 Q 510.85715 469.7143 490.2857 490.2857 Q 469.7143 510.85715 438.85715 512 L 73.14286 512 L 73.14286 512 Q 42.285713 510.85715 21.714285 490.2857 Q 1.1428572 469.7143 0 438.85715 L 0 73.14286 L 0 73.14286 Z M 357.7143 156.57143 L 274.2857 241.14285 L 357.7143 156.57143 L 274.2857 241.14285 L 360 358.85715 L 360 358.85715 Q 373.7143 380.57144 354.2857 396.57144 Q 332.57144 410.2857 316.57144 390.85715 L 235.42857 281.14285 L 235.42857 281.14285 L 201.14285 315.42856 L 201.14285 315.42856 L 201.14285 374.85715 L 201.14285 374.85715 Q 198.85715 400 173.71428 402.2857 Q 148.57143 400 146.28572 374.85715 L 146.28572 305.14285 L 146.28572 305.14285 L 146.28572 137.14285 L 146.28572 137.14285 Q 148.57143 112 173.71428 109.71429 Q 198.85715 112 201.14285 137.14285 L 201.14285 237.71428 L 201.14285 237.71428 L 318.85715 117.71429 L 318.85715 117.71429 Q 338.2857 101.71429 357.7143 117.71429 Q 373.7143 137.14285 357.7143 156.57143 L 357.7143 156.57143 Z" />
</svg>