<svg xmlns="http://www.w3.org/2000/svg" viewBox="0 0 576 448">
    <path d="M 0 24 Q 2 2 24 0 L 32 0 L 80 0 L 496 0 L 544 0 L 552 0 Q 574 2 576 24 Q 574 46 552 48 L 541 48 L 516 389 Q 514 414 496 431 Q 478 447 452 448 L 124 448 Q 98 447 80 431 Q 62 414 60 389 L 35 48 L 24 48 Q 2 46 0 24 L 0 24 Z M 84 48 L 108 385 Q 110 399 124 400 L 452 400 Q 466 399 468 385 L 492 48 L 84 48 L 84 48 Z M 288 144 Q 285 144 283 147 L 262 177 Q 248 193 229 183 Q 211 169 223 149 L 243 119 Q 260 97 288 96 Q 316 97 333 119 L 354 149 Q 365 169 347 183 Q 328 193 314 177 L 294 147 Q 291 144 288 144 L 288 144 Z M 200 221 Q 218 235 207 255 L 185 286 Q 184 288 184 290 Q 184 295 190 296 L 240 296 Q 262 298 264 320 Q 262 342 240 344 L 190 344 Q 167 343 152 328 Q 137 313 136 290 Q 136 272 146 258 L 167 228 Q 181 211 200 221 L 200 221 Z M 312 320 Q 314 298 336 296 L 386 296 Q 391 295 392 290 Q 392 288 391 286 L 369 255 Q 358 235 376 221 Q 395 211 409 228 L 430 258 Q 440 272 440 290 Q 439 313 424 328 Q 409 343 385 344 L 336 344 Q 314 342 312 320 L 312 320 Z"/>
</svg>
