<svg xmlns="http://www.w3.org/2000/svg" viewBox="0 0 512 512">
  <path d="M 256 89.6 Q 268 90.4 268.8 102.4 L 268.8 409.6 L 268.8 409.6 Q 268 421.6 256 422.4 L 192 422.4 L 192 422.4 L 192 371.2 L 192 371.2 Q 191.2 355.2 180.8 344 Q 169.6 333.6 153.6 332.8 Q 137.6 333.6 126.4 344 Q 116 355.2 115.2 371.2 L 115.2 422.4 L 115.2 422.4 L 51.2 422.4 L 51.2 422.4 Q 39.2 421.6 38.4 409.6 L 38.4 102.4 L 38.4 102.4 Q 39.2 90.4 51.2 89.6 L 256 89.6 L 256 89.6 Z M 51.2 51.2 Q 29.6 52 15.2 66.4 L 15.2 66.4 L 15.2 66.4 Q 0.8 80.8 0 102.4 L 0 409.6 L 0 409.6 Q 0.8 431.2 15.2 445.6 Q 29.6 460 51.2 460.8 L 256 460.8 L 256 460.8 Q 277.6 460 292 445.6 Q 306.4 431.2 307.2 409.6 L 307.2 102.4 L 307.2 102.4 Q 306.4 80.8 292 66.4 Q 277.6 52 256 51.2 L 51.2 51.2 L 51.2 51.2 Z M 83.2 121.6 Q 71.2 122.4 70.4 134.4 L 70.4 172.8 L 70.4 172.8 Q 71.2 184.8 83.2 185.6 L 121.6 185.6 L 121.6 185.6 Q 133.6 184.8 134.4 172.8 L 134.4 134.4 L 134.4 134.4 Q 133.6 122.4 121.6 121.6 L 83.2 121.6 L 83.2 121.6 Z M 172.8 134.4 L 172.8 172.8 L 172.8 134.4 L 172.8 172.8 Q 173.6 184.8 185.6 185.6 L 224 185.6 L 224 185.6 Q 236 184.8 236.8 172.8 L 236.8 134.4 L 236.8 134.4 Q 236 122.4 224 121.6 L 185.6 121.6 L 185.6 121.6 Q 173.6 122.4 172.8 134.4 L 172.8 134.4 Z M 83.2 224 Q 71.2 224.8 70.4 236.8 L 70.4 275.2 L 70.4 275.2 Q 71.2 287.2 83.2 288 L 121.6 288 L 121.6 288 Q 133.6 287.2 134.4 275.2 L 134.4 236.8 L 134.4 236.8 Q 133.6 224.8 121.6 224 L 83.2 224 L 83.2 224 Z M 172.8 236.8 L 172.8 275.2 L 172.8 236.8 L 172.8 275.2 Q 173.6 287.2 185.6 288 L 224 288 L 224 288 Q 236 287.2 236.8 275.2 L 236.8 236.8 L 236.8 236.8 Q 236 224.8 224 224 L 185.6 224 L 185.6 224 Q 173.6 224.8 172.8 236.8 L 172.8 236.8 Z M 512 204.8 L 499.2 204.8 L 512 204.8 L 499.2 204.8 Q 472 205.6 453.6 223.2 Q 436 241.6 435.2 268.8 L 435.2 281.6 L 435.2 281.6 L 448 281.6 L 448 281.6 Q 475.2 280.8 493.6 263.2 Q 511.2 244.8 512 217.6 L 512 204.8 L 512 204.8 Z M 512 307.2 L 512 294.4 L 512 307.2 L 512 294.4 L 499.2 294.4 L 499.2 294.4 Q 472 295.2 453.6 312.8 Q 436 331.2 435.2 358.4 L 435.2 371.2 L 435.2 371.2 L 448 371.2 L 448 371.2 Q 475.2 370.4 493.6 352.8 Q 511.2 334.4 512 307.2 L 512 307.2 Z M 512 396.8 L 512 384 L 512 396.8 L 512 384 L 499.2 384 L 499.2 384 Q 472 384.8 453.6 402.4 Q 436 420.8 435.2 448 L 435.2 460.8 L 435.2 460.8 L 448 460.8 L 448 460.8 Q 475.2 460 493.6 442.4 Q 511.2 424 512 396.8 L 512 396.8 Z M 409.6 448 Q 408.8 420.8 391.2 402.4 L 391.2 402.4 L 391.2 402.4 Q 372.8 384.8 345.6 384 L 332.8 384 L 332.8 384 L 332.8 396.8 L 332.8 396.8 Q 333.6 424 351.2 442.4 Q 369.6 460 396.8 460.8 L 409.6 460.8 L 409.6 460.8 L 409.6 448 L 409.6 448 Z M 409.6 371.2 L 409.6 358.4 L 409.6 371.2 L 409.6 358.4 Q 408.8 331.2 391.2 312.8 Q 372.8 295.2 345.6 294.4 L 332.8 294.4 L 332.8 294.4 L 332.8 307.2 L 332.8 307.2 Q 333.6 334.4 351.2 352.8 Q 369.6 370.4 396.8 371.2 L 409.6 371.2 L 409.6 371.2 Z M 409.6 268.8 Q 408.8 241.6 391.2 223.2 L 391.2 223.2 L 391.2 223.2 Q 372.8 205.6 345.6 204.8 L 332.8 204.8 L 332.8 204.8 L 332.8 217.6 L 332.8 217.6 Q 333.6 244.8 351.2 263.2 Q 369.6 280.8 396.8 281.6 L 409.6 281.6 L 409.6 281.6 L 409.6 268.8 L 409.6 268.8 Z M 422.4 76.8 Q 404.8 78.4 403.2 96 L 403.2 179.2 L 403.2 179.2 Q 404.8 196.8 422.4 198.4 Q 440 196.8 441.6 179.2 L 441.6 96 L 441.6 96 Q 440 78.4 422.4 76.8 L 422.4 76.8 Z M 499.2 128 Q 497.6 110.4 480 108.8 Q 462.4 110.4 460.8 128 L 460.8 153.6 L 460.8 153.6 Q 462.4 171.2 480 172.8 Q 497.6 171.2 499.2 153.6 L 499.2 128 L 499.2 128 Z M 364.8 108.8 Q 347.2 110.4 345.6 128 L 345.6 153.6 L 345.6 153.6 Q 347.2 171.2 364.8 172.8 Q 382.4 171.2 384 153.6 L 384 128 L 384 128 Q 382.4 110.4 364.8 108.8 L 364.8 108.8 Z" />
</svg>