<svg xmlns="http://www.w3.org/2000/svg" viewBox="0 0 455 512">
    <path d="M 187 0 Q 165 2 163 24 Q 165 46 187 48 L 246 48 L 169 136 Q 159 148 165 162 Q 172 175 187 176 L 299 176 Q 321 174 323 152 Q 321 130 299 128 L 240 128 L 317 40 Q 327 28 321 14 Q 314 1 299 0 L 187 0 L 187 0 Z M 315 224 Q 293 226 291 248 Q 293 270 315 272 L 378 272 L 296 377 Q 288 389 294 403 Q 300 416 315 416 L 427 416 Q 449 414 451 392 Q 449 370 427 368 L 364 368 L 446 263 Q 455 251 449 237 Q 442 225 427 224 L 315 224 L 315 224 Z M 27 224 Q 5 226 3 248 Q 5 270 27 272 L 156 272 L 8 474 Q 0 486 6 499 Q 13 511 27 512 L 203 512 Q 225 510 227 488 Q 225 466 203 464 L 74 464 L 222 262 Q 230 250 225 237 Q 218 225 203 224 L 27 224 L 27 224 Z"/>
</svg>
