<svg xmlns="http://www.w3.org/2000/svg" viewBox="0 0 576 448">
    <path d="M 144 48 L 144 328 L 432 328 L 432 48 L 144 48 L 144 48 Z M 96 328 L 96 48 Q 97 28 110 14 Q 124 1 144 0 L 432 0 Q 452 1 466 14 Q 479 28 480 48 L 480 328 Q 502 330 504 352 Q 502 374 480 376 L 432 376 L 144 376 L 96 376 Q 74 374 72 352 Q 74 330 96 328 L 96 328 Z M 64 256 L 64 304 L 48 304 L 48 400 L 528 400 L 528 304 L 512 304 L 512 256 L 528 256 Q 548 257 562 270 Q 575 284 576 304 L 576 400 Q 575 420 562 434 Q 548 447 528 448 L 48 448 Q 28 447 14 434 Q 1 420 0 400 L 0 304 Q 1 284 14 270 Q 28 257 48 256 L 64 256 L 64 256 Z M 385 148 L 278 254 Q 271 261 261 261 Q 251 261 244 254 L 191 201 Q 177 184 191 167 Q 208 153 225 167 L 261 204 L 351 114 Q 368 100 385 114 Q 399 131 385 148 L 385 148 Z"/>
</svg>
