<svg xmlns="http://www.w3.org/2000/svg" viewBox="0 0 512 512">
  <path d="M 36.01223241590214 59.49847094801223 Q 21.137614678899084 50.103975535168196 9.394495412844037 62.62996941896024 Q 0 77.5045871559633 12.525993883792049 89.24770642201835 L 475.98776758409787 452.50152905198775 L 475.98776758409787 452.50152905198775 Q 490.86238532110093 461.8960244648318 502.60550458715596 449.37003058103977 Q 512 434.4954128440367 499.47400611620793 422.7522935779817 L 374.99694189602445 325.67584097859327 L 374.99694189602445 325.67584097859327 Q 393.00305810397555 294.3608562691131 393.7859327217125 256 L 393.7859327217125 224.68501529051989 L 393.7859327217125 224.68501529051989 Q 392.2201834862385 207.4617737003058 374.99694189602445 205.8960244648318 Q 357.7737003058104 207.4617737003058 356.2079510703364 224.68501529051989 L 356.2079510703364 256 L 356.2079510703364 256 Q 356.2079510703364 281.0519877675841 345.2477064220183 302.1896024464832 L 324.8929663608563 286.5321100917431 L 324.8929663608563 286.5321100917431 Q 331.1559633027523 272.4403669724771 331.1559633027523 256 L 331.1559633027523 130.7400611620795 L 331.1559633027523 130.7400611620795 Q 330.3730886850153 98.64220183486239 309.2354740061162 77.5045871559633 Q 288.0978593272171 56.36697247706422 256 55.584097859327215 Q 223.90214067278288 56.36697247706422 202.76452599388378 77.5045871559633 Q 181.6269113149847 98.64220183486239 180.8440366972477 130.7400611620795 L 180.8440366972477 173.01529051987768 L 180.8440366972477 173.01529051987768 L 36.01223241590214 59.49847094801223 L 36.01223241590214 59.49847094801223 Z M 218.42201834862385 202.76452599388378 L 218.42201834862385 130.7400611620795 L 218.42201834862385 202.76452599388378 L 218.42201834862385 130.7400611620795 Q 219.20489296636086 115.08256880733946 229.3822629969419 104.1223241590214 Q 240.34250764525993 93.94495412844037 256 93.16207951070336 Q 271.65749235474004 93.94495412844037 282.6177370030581 104.1223241590214 Q 292.79510703363917 115.08256880733946 293.57798165137615 130.7400611620795 L 293.57798165137615 256 L 293.57798165137615 256 Q 293.57798165137615 258.348623853211 293.57798165137615 261.480122324159 L 218.42201834862385 202.76452599388378 L 218.42201834862385 202.76452599388378 Z M 285.7492354740061 351.5107033639144 Q 271.65749235474004 356.2079510703364 256 356.2079510703364 Q 213.72477064220183 355.4250764525994 184.7584097859327 327.2415902140673 Q 156.5749235474006 298.27522935779814 155.79204892966362 256 L 155.79204892966362 248.954128440367 L 155.79204892966362 248.954128440367 L 118.99694189602447 219.98776758409787 L 118.99694189602447 219.98776758409787 Q 118.21406727828746 222.33639143730886 118.21406727828746 224.68501529051989 L 118.21406727828746 256 L 118.21406727828746 256 Q 118.99694189602447 309.2354740061162 152.6605504587156 346.81345565749234 Q 185.54128440366972 384.3914373088685 237.21100917431193 392.2201834862385 L 237.21100917431193 418.83792048929666 L 237.21100917431193 418.83792048929666 L 199.63302752293578 418.83792048929666 L 199.63302752293578 418.83792048929666 Q 182.40978593272172 420.4036697247706 180.8440366972477 437.6269113149847 Q 182.40978593272172 454.8501529051988 199.63302752293578 456.41590214067276 L 256 456.41590214067276 L 312.3669724770642 456.41590214067276 Q 329.5902140672783 454.8501529051988 331.1559633027523 437.6269113149847 Q 329.5902140672783 420.4036697247706 312.3669724770642 418.83792048929666 L 274.7889908256881 418.83792048929666 L 274.7889908256881 418.83792048929666 L 274.7889908256881 392.2201834862385 L 274.7889908256881 392.2201834862385 Q 299.0581039755352 389.08868501529054 319.41284403669727 378.1284403669725 L 285.7492354740061 351.5107033639144 L 285.7492354740061 351.5107033639144 Z" />
</svg>