<svg xmlns="http://www.w3.org/2000/svg" viewBox="0 0 515 515">
    <path d="M 379 23 Q 376 10 364 5 Q 352 0 342 7 L 259 64 L 177 7 Q 166 0 154 5 Q 142 10 139 23 L 121 121 L 23 139 Q 10 142 5 154 Q 0 166 7 177 L 64 259 L 7 342 Q 0 352 5 364 Q 10 376 23 379 L 121 397 L 121 397 L 159 359 Q 154 354 146 353 L 68 338 L 113 273 Q 122 259 113 245 L 68 180 L 146 165 Q 162 162 165 146 L 180 68 L 245 113 Q 259 122 273 113 L 338 68 L 353 146 Q 354 154 359 159 L 397 121 L 397 121 L 379 23 L 379 23 Z M 259 147 Q 211 148 180 180 L 180 180 Q 148 211 147 259 Q 148 307 180 338 L 214 304 Q 196 286 195 259 Q 196 232 214 214 Q 232 196 259 195 Q 286 196 304 214 L 338 180 Q 307 148 259 147 L 259 147 Z M 515 163 Q 515 149 506 140 L 506 140 Q 497 131 483 131 Q 469 131 460 140 Q 451 149 451 163 Q 451 177 460 186 Q 469 195 483 195 Q 497 195 506 186 Q 515 177 515 163 L 515 163 Z M 435 243 Q 435 229 426 220 L 426 220 Q 417 211 403 211 Q 389 211 380 220 Q 371 229 371 243 Q 371 257 380 266 Q 389 275 403 275 Q 417 275 426 266 Q 435 257 435 243 L 435 243 Z M 483 355 Q 497 355 506 346 L 506 346 Q 515 337 515 323 Q 515 309 506 300 Q 497 291 483 291 Q 469 291 460 300 Q 451 309 451 323 Q 451 337 460 346 Q 469 355 483 355 L 483 355 Z M 243 435 Q 257 435 266 426 L 266 426 Q 275 417 275 403 Q 275 389 266 380 Q 257 371 243 371 Q 229 371 220 380 Q 211 389 211 403 Q 211 417 220 426 Q 229 435 243 435 L 243 435 Z M 163 515 Q 177 515 186 506 L 186 506 Q 195 497 195 483 Q 195 469 186 460 Q 177 451 163 451 Q 149 451 140 460 Q 131 469 131 483 Q 131 497 140 506 Q 149 515 163 515 L 163 515 Z M 355 483 Q 355 469 346 460 L 346 460 Q 337 451 323 451 Q 309 451 300 460 Q 291 469 291 483 Q 291 497 300 506 Q 309 515 323 515 Q 337 515 346 506 Q 355 497 355 483 L 355 483 Z M 483 515 Q 497 515 506 506 L 506 506 Q 515 497 515 483 Q 515 469 506 460 Q 497 451 483 451 Q 469 451 460 460 Q 451 469 451 483 Q 451 497 460 506 Q 469 515 483 515 L 483 515 Z M 435 403 Q 435 389 426 380 L 426 380 Q 417 371 403 371 Q 389 371 380 380 Q 371 389 371 403 Q 371 417 380 426 Q 389 435 403 435 Q 417 435 426 426 Q 435 417 435 403 L 435 403 Z M 323 355 Q 337 355 346 346 L 346 346 Q 355 337 355 323 Q 355 309 346 300 Q 337 291 323 291 Q 309 291 300 300 Q 291 309 291 323 Q 291 337 300 346 Q 309 355 323 355 L 323 355 Z"/>
</svg>
