<svg xmlns="http://www.w3.org/2000/svg" viewBox="0 0 512 512">
  <path d="M 216 0 Q 194 2 192 24 L 192 83 L 192 83 Q 181 86 170 92 L 164 96 L 164 96 Q 122 121 120 171 Q 120 195 132 214 Q 120 233 120 256 Q 121 283 136 304 Q 121 325 120 352 Q 120 374 131 392 Q 120 410 120 432 Q 121 466 143 489 Q 166 511 200 512 L 312 512 L 312 512 Q 346 511 369 489 Q 391 466 392 432 Q 392 410 381 392 Q 392 374 392 352 Q 392 325 376 304 Q 392 283 392 256 Q 392 233 380 214 Q 392 195 392 171 Q 390 121 348 96 L 342 92 L 342 92 Q 331 87 320 83 L 320 24 L 320 24 Q 318 2 296 0 L 216 0 L 216 0 Z M 173 239 Q 187 214 173 190 Q 168 181 168 170 Q 169 149 187 138 L 194 134 L 194 134 Q 205 128 218 128 L 295 128 L 295 128 Q 307 128 319 134 L 325 138 L 325 138 Q 343 149 344 170 Q 344 181 339 190 Q 325 214 339 239 Q 344 246 344 256 Q 344 267 338 275 Q 319 304 338 333 Q 344 341 344 352 Q 344 361 340 368 Q 327 392 340 416 Q 344 423 344 432 Q 344 446 335 455 Q 326 464 312 464 L 200 464 L 200 464 Q 186 464 177 455 Q 168 446 168 432 Q 168 423 172 416 Q 185 392 172 368 Q 168 361 168 352 Q 168 341 175 333 Q 194 304 175 275 Q 168 267 168 256 Q 168 247 173 239 L 173 239 Z M 232 208 Q 210 210 208 232 Q 210 254 232 256 L 280 256 L 280 256 Q 302 254 304 232 Q 302 210 280 208 L 232 208 L 232 208 Z M 208 360 Q 210 382 232 384 L 280 384 L 280 384 Q 302 382 304 360 Q 302 338 280 336 L 232 336 L 232 336 Q 210 338 208 360 L 208 360 Z" />
</svg>