<svg xmlns="http://www.w3.org/2000/svg" viewBox="0 0 512 512">
  <path d="M 192 24 Q 194 46 216 48 Q 285 49 341 82 Q 397 115 430 171 Q 463 227 464 296 Q 466 318 488 320 Q 510 318 512 296 Q 511 213 472 147 Q 432 80 365 40 Q 299 1 216 0 Q 194 2 192 24 L 192 24 Z M 216 104 Q 194 106 192 128 Q 194 150 216 152 Q 277 154 318 194 Q 358 235 360 296 Q 362 318 384 320 Q 406 318 408 296 Q 406 214 352 160 Q 298 106 216 104 L 216 104 Z M 209 337 L 249 297 L 209 337 L 249 297 Q 263 280 249 263 Q 232 249 215 263 L 175 303 L 175 303 L 71 199 L 71 199 Q 60 189 47 190 Q 33 191 26 203 Q 1 249 0 304 Q 2 392 61 451 Q 120 510 208 512 Q 263 511 309 486 Q 321 479 322 465 Q 323 452 313 441 L 209 337 L 209 337 Z M 48 304 Q 48 277 57 252 L 260 456 L 260 456 Q 235 464 208 464 Q 140 462 95 417 Q 50 372 48 304 L 48 304 Z" />
</svg>