<svg xmlns="http://www.w3.org/2000/svg" viewBox="0 0 448 448">
    <path d="M 384 48 Q 399 49 400 64 L 400 384 Q 399 399 384 400 L 64 400 Q 49 399 48 384 L 48 64 Q 49 49 64 48 L 384 48 L 384 48 Z M 64 0 Q 37 1 19 19 L 19 19 Q 1 37 0 64 L 0 384 Q 1 411 19 429 Q 37 447 64 448 L 384 448 Q 411 447 429 429 Q 447 411 448 384 L 448 64 Q 447 37 429 19 Q 411 1 384 0 L 64 0 L 64 0 Z M 272 224 Q 271 196 248 182 L 248 128 L 320 128 L 320 320 L 128 320 L 128 128 L 136 128 Q 158 126 160 104 Q 158 82 136 80 L 120 80 Q 103 80 92 92 Q 80 103 80 120 L 80 328 Q 80 345 92 356 Q 103 368 120 368 L 328 368 Q 345 368 356 356 Q 368 345 368 328 L 368 120 Q 368 103 356 92 Q 345 80 328 80 L 240 80 Q 223 80 212 92 Q 200 103 200 120 L 200 182 Q 177 196 176 224 Q 177 244 190 258 Q 204 271 224 272 Q 244 271 258 258 Q 271 244 272 224 L 272 224 Z"/>
</svg>
