<svg xmlns="http://www.w3.org/2000/svg" viewBox="0 0 512 512">
  <path d="M 132.19267 53.271675 Q 131.20616 26.635838 108.51638 11.83815 Q 84.84008 0 61.163776 11.83815 Q 38.473988 26.635838 37.487476 53.271675 Q 38.473988 79.90752 61.163776 94.7052 Q 84.84008 106.54335 108.51638 94.7052 Q 131.20616 79.90752 132.19267 53.271675 L 132.19267 53.271675 Z M 5.919075 341.33334 L 5.919075 487.3372 L 5.919075 341.33334 L 5.919075 487.3372 Q 7.8921003 509.04047 29.595375 511.0135 Q 51.298653 509.04047 53.271675 487.3372 L 53.271675 378.8208 L 53.271675 378.8208 L 7.8921003 343.30637 L 7.8921003 343.30637 Q 6.9055877 342.31985 6.9055877 342.31985 Q 5.919075 342.31985 5.919075 341.33334 L 5.919075 341.33334 Z M 53.271675 190.39691 Q 54.25819 180.5318 64.123314 179.54527 Q 71.0289 179.54527 76.947975 182.50482 L 76.947975 296.94028 L 76.947975 296.94028 L 56.231213 281.15607 L 56.231213 281.15607 Q 53.271675 278.19653 53.271675 274.2505 L 53.271675 190.39691 L 53.271675 190.39691 Z M 124.300575 334.42773 L 124.300575 248.60115 L 124.300575 334.42773 L 124.300575 248.60115 L 139.09827 272.27747 L 139.09827 272.27747 Q 150.93642 289.04816 172.6397 290.03467 L 225.91136 290.03467 L 225.91136 290.03467 L 252.54721 396.57803 L 252.54721 396.57803 Q 227.8844 415.32178 226.89787 447.87668 Q 227.8844 474.5125 245.64162 492.26974 Q 263.39883 510.02698 290.03467 511.0135 Q 314.6975 511.0135 331.4682 495.22928 Q 349.22543 480.4316 352.18497 456.7553 L 485.36417 423.21387 L 485.36417 423.21387 Q 506.08093 416.3083 502.1349 394.605 Q 495.22928 373.88824 473.526 377.8343 L 341.33334 410.38922 L 341.33334 410.38922 Q 325.54913 389.67245 298.9133 385.7264 L 249.58766 189.4104 L 249.58766 189.4104 Q 242.68208 168.69363 220.9788 172.6397 Q 200.26204 179.54527 204.2081 201.24855 L 214.07321 242.68208 L 214.07321 242.68208 L 176.58574 242.68208 L 176.58574 242.68208 L 128.24663 166.72061 L 128.24663 166.72061 Q 105.55684 133.17918 64.123314 132.19267 Q 39.460503 133.17918 22.689789 148.9634 Q 6.9055877 165.7341 5.919075 190.39691 L 5.919075 275.237 L 5.919075 275.237 Q 6.9055877 300.88632 26.635838 318.64355 L 118.3815 389.67245 L 118.3815 389.67245 L 132.19267 490.29672 L 132.19267 490.29672 Q 137.12524 512 158.82852 511.0135 Q 180.5318 506.08093 179.54527 484.37766 L 164.74759 379.8073 L 164.74759 379.8073 Q 161.78806 364.02313 149.9499 354.158 L 124.300575 334.42773 L 124.300575 334.42773 Z M 290.03467 432.0925 Q 304.83237 433.079 305.81888 447.87668 Q 304.83237 462.67438 290.03467 463.6609 Q 275.237 462.67438 274.2505 447.87668 Q 275.237 433.079 290.03467 432.0925 L 290.03467 432.0925 Z M 358.10403 376.84778 L 448.8632 354.158 L 358.10403 376.84778 L 448.8632 354.158 Q 461.68787 351.19846 468.59344 340.34683 Q 474.5125 329.49518 471.55298 316.67053 L 448.8632 225.91136 L 448.8632 225.91136 Q 445.90366 213.0867 435.05203 206.18112 Q 424.20038 200.26204 411.37573 203.22157 L 320.61658 225.91136 L 320.61658 225.91136 Q 307.7919 228.87091 300.88632 239.72255 Q 294.96725 250.57419 297.9268 263.39883 L 320.61658 354.158 L 320.61658 354.158 Q 323.5761 366.98267 334.42773 373.88824 Q 345.2794 379.8073 358.10403 376.84778 L 358.10403 376.84778 Z" />
</svg>