<svg xmlns="http://www.w3.org/2000/svg" viewBox="0 0 512 512">
  <path d="M 275.2 70.4 Q 273.6 52.8 256 51.2 Q 238.4 52.8 236.8 70.4 L 236.8 184.8 L 236.8 184.8 Q 236 207.2 218.4 220.8 L 204.8 230.4 L 204.8 230.4 L 204.8 199.2 L 204.8 199.2 L 204.8 192 L 204.8 192 L 204.8 183.2 L 204.8 183.2 Q 204 160 188.8 144 Q 172.8 128.8 149.6 128 Q 121.6 128 104.8 151.2 Q 95.2 164.8 80 188.8 Q 64 213.6 48 244.8 Q 31.2 275.2 18.4 310.4 Q 4.8 345.6 0 380.8 Q 0 382.4 0 384 Q 0 384 0 384 L 0 389.6 L 0 389.6 Q 0.8 420 20.8 440 Q 40.8 460 71.2 460.8 Q 80 460.8 88.8 458.4 L 146.4 444 L 146.4 444 Q 172.8 436.8 188.8 416.8 Q 204 396.8 204.8 369.6 L 204.8 309.6 L 204.8 309.6 L 166.4 336.8 L 166.4 336.8 L 166.4 369.6 L 166.4 369.6 Q 166.4 383.2 158.4 393.6 Q 150.4 403.2 137.6 407.2 L 79.2 421.6 L 79.2 421.6 Q 75.2 422.4 71.2 422.4 Q 57.6 422.4 48 412.8 Q 38.4 403.2 38.4 389.6 L 38.4 384.8 L 38.4 384.8 Q 42.4 355.2 54.4 323.2 Q 66.4 292 81.6 262.4 Q 97.6 232.8 112 209.6 Q 127.2 186.4 136 172.8 Q 140.8 166.4 149.6 166.4 Q 164.8 168 166.4 183.2 L 166.4 192 L 166.4 192 L 166.4 226.4 L 166.4 226.4 L 166.4 258.4 L 166.4 258.4 L 110.4 298.4 L 110.4 298.4 Q 96.8 309.6 105.6 324.8 Q 117.6 338.4 132.8 329.6 L 166.4 305.6 L 166.4 305.6 L 204.8 277.6 L 204.8 277.6 L 240 252.8 L 240 252.8 Q 248.8 246.4 256 237.6 Q 262.4 246.4 272 252.8 L 307.2 277.6 L 307.2 277.6 L 345.6 305.6 L 345.6 305.6 L 379.2 329.6 L 379.2 329.6 Q 394.4 338.4 406.4 324.8 Q 415.2 309.6 401.6 297.6 L 345.6 257.6 L 345.6 257.6 L 345.6 226.4 L 345.6 226.4 L 345.6 192 L 345.6 192 L 345.6 183.2 L 345.6 183.2 Q 347.2 168 362.4 166.4 Q 371.2 166.4 376 172.8 Q 384.8 186.4 400 209.6 Q 414.4 232.8 430.4 262.4 Q 445.6 292 457.6 323.2 Q 469.6 355.2 473.6 384.8 L 473.6 389.6 L 473.6 389.6 Q 473.6 403.2 464 412.8 Q 454.4 422.4 440.8 422.4 Q 436.8 422.4 432.8 421.6 L 374.4 407.2 L 374.4 407.2 Q 361.6 403.2 353.6 393.6 Q 345.6 383.2 345.6 369.6 L 345.6 336.8 L 345.6 336.8 L 307.2 309.6 L 307.2 309.6 L 307.2 369.6 L 307.2 369.6 Q 308 396.8 323.2 416.8 Q 339.2 436.8 365.6 444 L 423.2 458.4 L 423.2 458.4 Q 432 460.8 440.8 460.8 Q 471.2 460 491.2 440 Q 511.2 420 512 389.6 L 512 384 L 512 384 Q 512 382.4 512 380.8 Q 507.2 345.6 493.6 310.4 Q 480.8 275.2 464 244.8 Q 448 213.6 432 188.8 Q 416.8 164.8 407.2 151.2 Q 390.4 128 362.4 128 Q 339.2 128.8 323.2 144 Q 308 160 307.2 183.2 L 307.2 192 L 307.2 192 L 307.2 199.2 L 307.2 199.2 L 307.2 230.4 L 307.2 230.4 L 293.6 220.8 L 293.6 220.8 Q 276 207.2 275.2 184.8 L 275.2 70.4 L 275.2 70.4 Z" />
</svg>