<svg xmlns="http://www.w3.org/2000/svg" viewBox="0 0 635 517">
    <path d="M 427 10 Q 413 0 399 10 L 234 130 Q 231 131 229 134 Q 246 136 260 146 L 276 159 L 413 59 L 564 168 Q 567 170 567 174 L 584 300 Q 584 308 576 309 L 451 309 Q 452 312 452 316 L 459 357 L 576 357 Q 602 356 618 338 Q 635 319 632 293 L 615 167 Q 611 144 592 130 L 427 10 L 427 10 Z M 236 170 Q 221 160 206 170 L 41 298 Q 23 312 19 335 L 3 453 Q 0 479 16 498 Q 32 516 58 517 L 384 517 Q 410 516 426 498 Q 442 479 440 453 L 423 335 Q 419 312 401 298 L 236 170 L 236 170 Z M 70 336 L 197 238 L 197 469 L 58 469 Q 50 468 50 460 L 67 341 Q 67 338 70 336 L 70 336 Z M 245 365 L 245 238 L 372 336 Q 374 338 375 341 L 392 460 Q 392 468 384 469 L 307 469 L 245 365 L 245 365 Z"/>
</svg>
