<svg xmlns="http://www.w3.org/2000/svg" viewBox="0 0 512 512">
  <path d="M 409.24871355060037 231.8490566037736 L 462.819897084048 200.23327615780445 L 409.24871355060037 231.8490566037736 L 462.819897084048 200.23327615780445 L 392.56260720411666 79.03945111492281 L 392.56260720411666 79.03945111492281 L 338.99142367066895 109.77701543739279 L 338.99142367066895 109.77701543739279 L 409.24871355060037 231.8490566037736 L 409.24871355060037 231.8490566037736 Z M 293.32418524871355 115.9245283018868 Q 286.2984562607204 93.96912521440824 305.6192109777015 80.7958833619211 L 383.7804459691252 35.128644939965696 L 383.7804459691252 35.128644939965696 Q 394.3190394511149 29.859348198970842 404.85763293310464 32.493996569468266 Q 416.27444253859346 35.128644939965696 422.42195540308745 45.6672384219554 L 506.73070325900517 191.45111492281305 L 506.73070325900517 191.45111492281305 Q 512 201.98970840480274 509.3653516295026 212.52830188679246 Q 506.73070325900517 223.9451114922813 496.19210977701545 230.0926243567753 L 418.0308747855918 274.8816466552316 L 418.0308747855918 274.8816466552316 Q 407.49228130360206 281.02915951972557 396.95368782161233 277.516295025729 Q 385.5368782161235 274.8816466552316 379.3893653516295 265.221269296741 L 379.3893653516295 264.34305317324186 L 379.3893653516295 264.34305317324186 L 341.62607204116637 284.54202401372214 L 341.62607204116637 284.54202401372214 Q 342.5042881646655 289.811320754717 342.5042881646655 295.08061749571186 Q 341.62607204116637 322.30531732418524 324.93996569468266 341.62607204116637 L 368.8507718696398 448.7684391080617 L 368.8507718696398 448.7684391080617 Q 374.9982847341338 467.21097770154375 357.4339622641509 475.99313893653516 Q 338.99142367066895 482.14065180102915 330.20926243567754 464.57632933104634 L 288.9331046312178 363.58147512864497 L 288.9331046312178 363.58147512864497 Q 281.02915951972557 365.3379073756432 272.24699828473416 365.3379073756432 Q 263.4648370497427 365.3379073756432 255.56089193825042 363.58147512864497 L 214.28473413379075 464.57632933104634 L 214.28473413379075 464.57632933104634 Q 205.50257289879931 482.14065180102915 187.06003430531732 475.99313893653516 Q 169.49571183533448 467.21097770154375 175.64322469982847 448.7684391080617 L 214.28473413379075 353.04288164665525 L 214.28473413379075 353.04288164665525 L 137.0017152658662 395.1972555746141 L 137.0017152658662 395.1972555746141 Q 126.4631217838765 400.4665523156089 115.9245283018868 397.8319039451115 Q 104.50771869639794 394.3190394511149 99.23842195540308 384.65866209262435 L 98.36020583190394 383.7804459691252 L 98.36020583190394 383.7804459691252 L 59.718696397941684 405.7358490566038 L 59.718696397941684 405.7358490566038 Q 42.15437392795884 413.63979416809605 30.737564322469982 397.8319039451115 L 7.903945111492281 358.3121783876501 L 7.903945111492281 358.3121783876501 Q 0 340.74785591766727 15.807890222984563 330.20926243567754 L 54.449399656946824 307.37564322469984 L 54.449399656946824 307.37564322469984 L 50.93653516295026 301.22813036020585 L 50.93653516295026 301.22813036020585 Q 45.6672384219554 291.5677530017153 48.301886792452834 281.02915951972557 Q 50.93653516295026 270.49056603773585 60.59691252144082 263.4648370497427 L 293.32418524871355 115.9245283018868 L 293.32418524871355 115.9245283018868 Z M 358.3121783876501 227.4579759862779 L 314.401372212693 151.93138936535163 L 358.3121783876501 227.4579759862779 L 314.401372212693 151.93138936535163 L 93.96912521440824 292.4459691252144 L 93.96912521440824 292.4459691252144 L 128.21955403087478 351.28644939965693 L 128.21955403087478 351.28644939965693 L 203.74614065180103 310.8885077186964 L 203.74614065180103 310.8885077186964 Q 201.98970840480274 302.9845626072041 201.98970840480274 295.08061749571186 Q 202.8679245283019 265.221269296741 222.18867924528303 245.02229845626073 Q 242.38765008576328 225.7015437392796 272.24699828473416 224.82332761578044 Q 302.9845626072041 225.7015437392796 323.1835334476844 246.77873070325901 L 358.3121783876501 227.4579759862779 L 358.3121783876501 227.4579759862779 Z M 272.24699828473416 323.1835334476844 Q 284.54202401372214 323.1835334476844 292.4459691252144 315.2795883361921 L 292.4459691252144 315.2795883361921 L 292.4459691252144 315.2795883361921 Q 300.3499142367067 307.37564322469984 300.3499142367067 295.08061749571186 Q 300.3499142367067 282.7855917667238 292.4459691252144 274.8816466552316 Q 284.54202401372214 266.9777015437393 272.24699828473416 266.9777015437393 Q 259.9519725557461 266.9777015437393 252.04802744425385 274.8816466552316 Q 244.14408233276157 282.7855917667238 244.14408233276157 295.08061749571186 Q 244.14408233276157 307.37564322469984 252.04802744425385 315.2795883361921 Q 259.9519725557461 323.1835334476844 272.24699828473416 323.1835334476844 L 272.24699828473416 323.1835334476844 Z" />
</svg>