<svg xmlns="http://www.w3.org/2000/svg" viewBox="0 0 512 512">
  <path d="M 99.55555555555556 128 Q 98.66666666666667 152 82.66666666666667 168 L 82.66666666666667 168 L 82.66666666666667 168 Q 66.66666666666667 184 42.666666666666664 184.88888888888889 L 42.666666666666664 327.1111111111111 L 42.666666666666664 327.1111111111111 Q 66.66666666666667 328 82.66666666666667 344 Q 98.66666666666667 360 99.55555555555556 384 L 412.44444444444446 384 L 412.44444444444446 384 Q 413.3333333333333 360 429.3333333333333 344 Q 445.3333333333333 328 469.3333333333333 327.1111111111111 L 469.3333333333333 184.88888888888889 L 469.3333333333333 184.88888888888889 Q 445.3333333333333 184 429.3333333333333 168 Q 413.3333333333333 152 412.44444444444446 128 L 99.55555555555556 128 L 99.55555555555556 128 Z M 0 142.22222222222223 Q 0.8888888888888888 118.22222222222223 16.88888888888889 102.22222222222223 L 16.88888888888889 102.22222222222223 L 16.88888888888889 102.22222222222223 Q 32.888888888888886 86.22222222222223 56.888888888888886 85.33333333333333 L 455.1111111111111 85.33333333333333 L 455.1111111111111 85.33333333333333 Q 479.1111111111111 86.22222222222223 495.1111111111111 102.22222222222223 Q 511.1111111111111 118.22222222222223 512 142.22222222222223 L 512 369.77777777777777 L 512 369.77777777777777 Q 511.1111111111111 393.77777777777777 495.1111111111111 409.77777777777777 Q 479.1111111111111 425.77777777777777 455.1111111111111 426.6666666666667 L 56.888888888888886 426.6666666666667 L 56.888888888888886 426.6666666666667 Q 32.888888888888886 425.77777777777777 16.88888888888889 409.77777777777777 Q 0.8888888888888888 393.77777777777777 0 369.77777777777777 L 0 142.22222222222223 L 0 142.22222222222223 Z M 156.44444444444446 256 Q 156.44444444444446 229.33333333333334 169.77777777777777 206.22222222222223 L 169.77777777777777 206.22222222222223 L 169.77777777777777 206.22222222222223 Q 183.11111111111111 183.11111111111111 206.22222222222223 169.77777777777777 Q 229.33333333333334 156.44444444444446 256 156.44444444444446 Q 282.6666666666667 156.44444444444446 305.77777777777777 169.77777777777777 Q 328.8888888888889 183.11111111111111 342.22222222222223 206.22222222222223 Q 355.55555555555554 229.33333333333334 355.55555555555554 256 Q 355.55555555555554 282.6666666666667 342.22222222222223 305.77777777777777 Q 328.8888888888889 328.8888888888889 305.77777777777777 342.22222222222223 Q 282.6666666666667 355.55555555555554 256 355.55555555555554 Q 229.33333333333334 355.55555555555554 206.22222222222223 342.22222222222223 Q 183.11111111111111 328.8888888888889 169.77777777777777 305.77777777777777 Q 156.44444444444446 282.6666666666667 156.44444444444446 256 L 156.44444444444446 256 Z M 227.55555555555554 213.33333333333334 Q 228.44444444444446 226.66666666666666 241.77777777777777 227.55555555555554 L 241.77777777777777 284.44444444444446 L 241.77777777777777 284.44444444444446 L 234.66666666666666 284.44444444444446 L 234.66666666666666 284.44444444444446 Q 221.33333333333334 285.3333333333333 220.44444444444446 298.6666666666667 Q 221.33333333333334 312 234.66666666666666 312.8888888888889 L 256 312.8888888888889 L 277.3333333333333 312.8888888888889 Q 290.6666666666667 312 291.55555555555554 298.6666666666667 Q 290.6666666666667 285.3333333333333 277.3333333333333 284.44444444444446 L 270.22222222222223 284.44444444444446 L 270.22222222222223 284.44444444444446 L 270.22222222222223 213.33333333333334 L 270.22222222222223 213.33333333333334 Q 269.3333333333333 200 256 199.11111111111111 L 241.77777777777777 199.11111111111111 L 241.77777777777777 199.11111111111111 Q 228.44444444444446 200 227.55555555555554 213.33333333333334 L 227.55555555555554 213.33333333333334 Z" />
</svg>