<svg xmlns="http://www.w3.org/2000/svg" viewBox="0 0 512 512">
  <path d="M 237.47047 18.529524 Q 225.76762 0 206.26286 8.777143 Q 187.73334 20.48 196.51048 39.98476 Q 252.09904 145.31047 309.6381 218.45334 Q 366.2019 291.5962 403.26096 327.68 Q 426.66666 352.06094 427.6419 385.21906 Q 426.66666 416.42667 406.18668 436.90668 Q 385.70667 457.38666 354.49905 458.3619 L 343.77142 458.3619 L 343.77142 458.3619 L 327.19238 441.78287 L 327.19238 441.78287 L 297.93524 412.52573 L 297.93524 412.52573 Q 265.75238 381.31808 219.91618 380.34286 Q 195.53523 381.31808 178.95619 396.9219 Q 163.35239 413.50095 162.37714 437.8819 L 162.37714 442.7581 L 162.37714 442.7581 Q 163.35239 469.08954 180.90666 486.6438 Q 198.46095 504.1981 224.79237 505.17334 L 354.49905 505.17334 L 354.49905 505.17334 Q 405.21143 504.1981 439.34476 470.06476 Q 473.4781 435.93143 474.45334 385.21906 Q 472.50287 331.58096 436.41904 294.5219 Q 401.3105 260.38858 346.69714 190.17143 Q 292.0838 118.97905 237.47047 18.529524 L 237.47047 18.529524 Z M 264.77713 445.6838 L 277.45523 458.3619 L 264.77713 445.6838 L 277.45523 458.3619 L 224.79237 458.3619 L 224.79237 458.3619 Q 210.1638 457.38666 209.18857 442.7581 L 209.18857 437.8819 L 209.18857 437.8819 Q 210.1638 428.12952 219.91618 427.1543 Q 246.24762 427.1543 264.77713 445.6838 L 264.77713 445.6838 Z M 175.05524 302.32382 Q 195.53523 295.49713 192.60953 274.0419 Q 186.7581 253.5619 165.30286 256.4876 L 142.87238 261.3638 L 142.87238 261.3638 Q 96.06095 272.09143 66.80381 307.2 Q 38.521904 343.2838 37.546665 391.07047 Q 38.521904 453.48572 85.333336 493.4705 L 93.13524 500.29715 L 93.13524 500.29715 Q 110.68952 512 125.31809 496.39618 Q 137.99619 478.84192 122.39238 464.21335 L 115.56571 457.38666 L 115.56571 457.38666 Q 85.333336 431.05524 84.35809 391.07047 Q 85.333336 359.86285 103.862854 336.45715 Q 122.39238 314.02667 152.62476 306.22476 L 175.05524 302.32382 L 175.05524 302.32382 Z" />
</svg>