<svg xmlns="http://www.w3.org/2000/svg" viewBox="0 0 448 448">
    <path d="M 64 48 Q 49 49 48 64 L 48 384 Q 49 399 64 400 L 384 400 Q 399 399 400 384 L 400 64 Q 399 49 384 48 L 64 48 L 64 48 Z M 0 64 Q 1 37 19 19 L 19 19 Q 37 1 64 0 L 384 0 Q 411 1 429 19 Q 447 37 448 64 L 448 384 Q 447 411 429 429 Q 411 447 384 448 L 64 448 Q 37 447 19 429 Q 1 411 0 384 L 0 64 L 0 64 Z M 241 135 L 345 239 Q 359 256 345 273 Q 328 287 311 273 L 224 186 L 137 273 Q 120 287 103 273 Q 89 256 103 239 L 207 135 Q 224 121 241 135 L 241 135 Z"/>
</svg>
