<svg xmlns="http://www.w3.org/2000/svg" viewBox="0 0 512 512">
  <path d="M 464 256 Q 464 199 436 152 L 436 152 L 436 152 Q 409 105 360 76 Q 311 48 256 48 Q 201 48 152 76 Q 103 105 76 152 Q 48 199 48 256 Q 48 313 76 360 Q 103 407 152 436 Q 201 464 256 464 Q 311 464 360 436 Q 409 407 436 360 Q 464 313 464 256 L 464 256 Z M 0 256 Q 1 186 34 128 L 34 128 L 34 128 Q 68 70 128 34 Q 189 0 256 0 Q 323 0 384 34 Q 444 70 478 128 Q 511 186 512 256 Q 511 326 478 384 Q 444 442 384 478 Q 323 512 256 512 Q 189 512 128 478 Q 68 442 34 384 Q 1 326 0 256 L 0 256 Z M 231 333 L 256 353 L 231 333 L 256 353 L 281 333 L 281 333 Q 295 323 309 332 L 341 353 L 341 353 L 351 343 L 351 343 Q 368 329 385 343 Q 399 360 385 377 L 361 401 L 361 401 Q 347 413 331 404 L 297 382 L 297 382 L 271 403 L 271 403 Q 256 413 241 403 L 215 382 L 215 382 L 181 404 L 181 404 Q 165 413 151 401 L 127 377 L 127 377 Q 113 360 127 343 Q 144 329 161 343 L 171 353 L 171 353 L 203 332 L 203 332 Q 217 323 231 333 L 231 333 Z M 134 179 L 223 227 L 134 179 L 223 227 Q 231 231 231 240 Q 231 249 223 253 L 134 301 L 134 301 Q 127 304 122 301 Q 116 298 116 291 Q 116 286 119 283 L 155 240 L 155 240 L 119 197 L 119 197 Q 116 194 116 189 Q 116 182 122 179 Q 127 176 134 179 L 134 179 Z M 396 189 Q 396 193 393 197 L 357 240 L 357 240 L 393 283 L 393 283 Q 396 286 396 291 Q 396 298 390 301 Q 385 304 379 301 L 289 253 L 289 253 Q 281 248 281 240 Q 281 231 289 227 L 379 179 L 379 179 Q 385 176 390 179 Q 396 182 396 189 L 396 189 Z" />
</svg>