<svg xmlns="http://www.w3.org/2000/svg" viewBox="0 0 512 512">
  <path d="M 352 70.4 Q 350.4 52.8 332.8 51.2 Q 315.2 52.8 313.6 70.4 L 313.6 76.8 L 313.6 76.8 L 198.4 76.8 L 198.4 76.8 L 198.4 70.4 L 198.4 70.4 Q 196.8 52.8 179.2 51.2 Q 161.6 52.8 160 70.4 L 160 76.8 L 160 76.8 L 64 76.8 L 64 76.8 Q 48 77.6 36.8 88 Q 26.4 99.2 25.6 115.2 L 25.6 332.8 L 25.6 332.8 L 19.2 332.8 L 19.2 332.8 Q 1.6 334.4 0 352 Q 1.6 369.6 19.2 371.2 L 64 371.2 L 236.8 371.2 L 236.8 441.6 L 236.8 441.6 Q 238.4 459.2 256 460.8 Q 273.6 459.2 275.2 441.6 L 275.2 371.2 L 275.2 371.2 L 448 371.2 L 492.8 371.2 Q 510.4 369.6 512 352 Q 510.4 334.4 492.8 332.8 L 486.4 332.8 L 486.4 332.8 L 486.4 115.2 L 486.4 115.2 Q 485.6 99.2 475.2 88 Q 464 77.6 448 76.8 L 352 76.8 L 352 76.8 L 352 70.4 L 352 70.4 Z M 256 332.8 L 64 332.8 L 256 332.8 L 64 332.8 L 64 115.2 L 64 115.2 L 160 115.2 L 160 115.2 L 160 153.6 L 160 153.6 L 153.6 153.6 L 153.6 153.6 Q 136 155.2 134.4 172.8 Q 136 190.4 153.6 192 L 179.2 192 L 204.8 192 Q 222.4 190.4 224 172.8 Q 222.4 155.2 204.8 153.6 L 198.4 153.6 L 198.4 153.6 L 198.4 115.2 L 198.4 115.2 L 313.6 115.2 L 313.6 115.2 L 313.6 153.6 L 313.6 153.6 L 307.2 153.6 L 307.2 153.6 Q 289.6 155.2 288 172.8 Q 289.6 190.4 307.2 192 L 332.8 192 L 358.4 192 Q 376 190.4 377.6 172.8 Q 376 155.2 358.4 153.6 L 352 153.6 L 352 153.6 L 352 115.2 L 352 115.2 L 448 115.2 L 448 115.2 L 448 332.8 L 448 332.8 L 256 332.8 L 256 332.8 Z" />
</svg>