<svg xmlns="http://www.w3.org/2000/svg" viewBox="0 0 512 512">
  <path d="M 256 91.31464174454828 Q 301.4579439252336 91.31464174454828 338.94080996884736 113.64485981308411 L 338.94080996884736 113.64485981308411 L 338.94080996884736 113.64485981308411 Q 376.42367601246104 135.17757009345794 399.5514018691589 174.25545171339564 Q 421.8816199376947 213.33333333333334 421.8816199376947 257.196261682243 Q 421.8816199376947 301.05919003115264 399.5514018691589 340.13707165109037 Q 376.42367601246104 379.21495327102804 338.94080996884736 400.74766355140184 Q 301.4579439252336 423.07788161993767 256 423.07788161993767 Q 210.54205607476635 423.07788161993767 173.05919003115264 400.74766355140184 Q 135.57632398753893 379.21495327102804 112.44859813084112 340.13707165109037 Q 90.11838006230529 301.05919003115264 90.11838006230529 257.196261682243 Q 90.11838006230529 213.33333333333334 112.44859813084112 174.25545171339564 Q 135.57632398753893 135.17757009345794 173.05919003115264 113.64485981308411 Q 210.54205607476635 91.31464174454828 256 91.31464174454828 L 256 91.31464174454828 Z M 256 461.3582554517134 Q 313.42056074766356 460.5607476635514 358.8785046728972 433.4454828660436 L 358.8785046728972 433.4454828660436 L 358.8785046728972 433.4454828660436 Q 405.1339563862928 406.3302180685358 432.2492211838006 360.0747663551402 L 432.2492211838006 360.0747663551402 L 432.2492211838006 360.0747663551402 Q 459.3644859813084 314.61682242990656 460.1619937694704 257.196261682243 Q 460.1619937694704 227.68847352024923 452.1869158878505 200.57320872274144 Q 478.50467289719626 163.88785046728972 492.85981308411215 125.60747663551402 Q 507.21495327102804 88.1246105919003 511.20249221183803 68.18691588785046 Q 512 60.21183800623053 505.61993769470405 55.426791277258566 Q 498.44236760124613 50.6417445482866 491.26479750778816 55.426791277258566 Q 466.5420560747664 70.57943925233644 429.05919003115264 81.74454828660436 Q 399.5514018691589 89.7196261682243 378.81619937694705 93.70716510903426 Q 326.18068535825546 54.62928348909657 256 53.034267912772584 Q 185.81931464174454 54.62928348909657 133.18380062305295 93.70716510903426 Q 111.65109034267913 89.7196261682243 82.94080996884735 81.74454828660436 Q 45.45794392523364 70.57943925233644 20.735202492211837 55.426791277258566 Q 13.557632398753894 50.6417445482866 6.38006230529595 55.426791277258566 Q 0 60.21183800623053 0.7975077881619937 68.18691588785046 Q 4.785046728971962 88.1246105919003 19.14018691588785 125.60747663551402 Q 33.495327102803735 163.88785046728972 59.81308411214953 200.57320872274144 Q 51.838006230529594 227.68847352024923 51.838006230529594 257.196261682243 Q 52.63551401869159 314.61682242990656 79.75077881619937 360.0747663551402 Q 106.86604361370716 406.3302180685358 153.1214953271028 433.4454828660436 Q 198.57943925233644 460.5607476635514 256 461.3582554517134 L 256 461.3582554517134 Z M 313.42056074766356 380.01246105919006 Q 325.38317757009344 366.45482866043614 315.01557632398755 352.89719626168227 Q 306.2429906542056 343.32710280373834 291.09034267912773 335.3520249221184 Q 276.73520249221184 328.17445482866043 256 327.37694704049846 Q 235.26479750778816 328.17445482866043 220.90965732087227 335.3520249221184 Q 205.7570093457944 343.32710280373834 197.78193146417445 352.89719626168227 Q 186.61682242990653 366.45482866043614 198.57943925233644 380.01246105919006 Q 212.13707165109034 390.38006230529595 225.69470404984423 378.41744548286607 Q 234.46728971962617 367.25233644859816 256 365.65732087227417 Q 278.3302180685358 367.25233644859816 287.10280373831773 378.41744548286607 Q 299.86292834890963 390.38006230529595 314.2180685358255 380.01246105919006 L 313.42056074766356 380.01246105919006 Z M 192.1993769470405 282.7165109034268 Q 203.3644859813084 282.7165109034268 210.54205607476635 275.53894080996884 L 210.54205607476635 275.53894080996884 L 210.54205607476635 275.53894080996884 Q 217.7196261682243 268.3613707165109 217.7196261682243 257.196261682243 Q 217.7196261682243 255.60124610591902 217.7196261682243 254.00623052959503 L 226.49221183800623 256.398753894081 L 226.49221183800623 256.398753894081 Q 237.65732087227414 259.58878504672896 242.4423676012461 248.42367601246107 Q 245.63239875389408 237.25856697819316 234.46728971962617 232.4735202492212 L 157.90654205607476 206.9532710280374 L 157.90654205607476 206.9532710280374 Q 146.74143302180684 204.5607476635514 141.95638629283488 214.92834890965733 Q 139.5638629283489 226.09345794392524 149.93146417445482 230.8785046728972 L 174.65420560747663 238.85358255451715 L 174.65420560747663 238.85358255451715 Q 167.47663551401868 246.0311526479751 166.6791277258567 257.196261682243 Q 167.47663551401868 268.3613707165109 174.65420560747663 275.53894080996884 Q 181.83177570093457 282.7165109034268 192.1993769470405 282.7165109034268 L 192.1993769470405 282.7165109034268 Z M 345.3208722741433 257.196261682243 Q 345.3208722741433 246.0311526479751 338.14330218068534 238.85358255451715 L 362.06853582554515 230.8785046728972 L 362.06853582554515 230.8785046728972 Q 373.23364485981307 226.09345794392524 370.0436137071651 214.92834890965733 Q 365.25856697819313 204.5607476635514 354.0934579439252 206.9532710280374 L 277.5327102803738 232.4735202492212 L 277.5327102803738 232.4735202492212 Q 267.1651090342679 237.25856697819316 269.55763239875387 248.42367601246107 Q 274.34267912772583 258.791277258567 285.50778816199374 256.398753894081 L 295.07788161993767 253.20872274143304 L 295.07788161993767 253.20872274143304 Q 295.07788161993767 254.80373831775702 295.07788161993767 257.196261682243 Q 295.07788161993767 268.3613707165109 302.25545171339564 275.53894080996884 Q 309.43302180685356 282.7165109034268 320.5981308411215 282.7165109034268 Q 330.9657320872274 282.7165109034268 338.14330218068534 275.53894080996884 Q 345.3208722741433 268.3613707165109 346.1183800623053 257.196261682243 L 345.3208722741433 257.196261682243 Z" />
</svg>