<svg xmlns="http://www.w3.org/2000/svg" viewBox="0 0 512 512">
  <path d="M 51.2 89.6 L 256 89.6 L 51.2 89.6 L 256 89.6 Q 268 90.4 268.8 102.4 L 268.8 287.2 L 268.8 287.2 Q 282.4 257.6 307.2 236.8 L 307.2 102.4 L 307.2 102.4 Q 306.4 80.8 292 66.4 Q 277.6 52 256 51.2 L 51.2 51.2 L 51.2 51.2 Q 29.6 52 15.2 66.4 Q 0.8 80.8 0 102.4 L 0 409.6 L 0 409.6 Q 0.8 431.2 15.2 445.6 Q 29.6 460 51.2 460.8 L 256 460.8 L 256 460.8 Q 280 460 295.2 443.2 Q 278.4 425.6 268.8 404 L 268.8 409.6 L 268.8 409.6 Q 268 421.6 256 422.4 L 192 422.4 L 192 422.4 L 192 371.2 L 192 371.2 Q 191.2 355.2 180.8 344 Q 169.6 333.6 153.6 332.8 Q 137.6 333.6 126.4 344 Q 116 355.2 115.2 371.2 L 115.2 422.4 L 115.2 422.4 L 51.2 422.4 L 51.2 422.4 Q 39.2 421.6 38.4 409.6 L 38.4 102.4 L 38.4 102.4 Q 39.2 90.4 51.2 89.6 L 51.2 89.6 Z M 70.4 134.4 L 70.4 172.8 L 70.4 134.4 L 70.4 172.8 Q 71.2 184.8 83.2 185.6 L 121.6 185.6 L 121.6 185.6 Q 133.6 184.8 134.4 172.8 L 134.4 134.4 L 134.4 134.4 Q 133.6 122.4 121.6 121.6 L 83.2 121.6 L 83.2 121.6 Q 71.2 122.4 70.4 134.4 L 70.4 134.4 Z M 185.6 121.6 Q 173.6 122.4 172.8 134.4 L 172.8 172.8 L 172.8 172.8 Q 173.6 184.8 185.6 185.6 L 224 185.6 L 224 185.6 Q 236 184.8 236.8 172.8 L 236.8 134.4 L 236.8 134.4 Q 236 122.4 224 121.6 L 185.6 121.6 L 185.6 121.6 Z M 70.4 236.8 L 70.4 275.2 L 70.4 236.8 L 70.4 275.2 Q 71.2 287.2 83.2 288 L 121.6 288 L 121.6 288 Q 133.6 287.2 134.4 275.2 L 134.4 236.8 L 134.4 236.8 Q 133.6 224.8 121.6 224 L 83.2 224 L 83.2 224 Q 71.2 224.8 70.4 236.8 L 70.4 236.8 Z M 185.6 224 Q 173.6 224.8 172.8 236.8 L 172.8 275.2 L 172.8 275.2 Q 173.6 287.2 185.6 288 L 224 288 L 224 288 Q 236 287.2 236.8 275.2 L 236.8 236.8 L 236.8 236.8 Q 236 224.8 224 224 L 185.6 224 L 185.6 224 Z M 396.8 460.8 Q 428 460.8 454.4 445.6 L 454.4 445.6 L 454.4 445.6 Q 480.8 430.4 496.8 403.2 Q 512 376 512 345.6 Q 512 315.2 496.8 288 Q 480.8 260.8 454.4 245.6 Q 428 230.4 396.8 230.4 Q 365.6 230.4 339.2 245.6 Q 312.8 260.8 296.8 288 Q 281.6 315.2 281.6 345.6 Q 281.6 376 296.8 403.2 Q 312.8 430.4 339.2 445.6 Q 365.6 460.8 396.8 460.8 L 396.8 460.8 Z M 444 316 L 415.2 345.6 L 444 316 L 415.2 345.6 L 444 375.2 L 444 375.2 Q 452 384 444 392.8 Q 435.2 400.8 426.4 392.8 L 396.8 364 L 396.8 364 L 367.2 392.8 L 367.2 392.8 Q 358.4 400.8 349.6 392.8 Q 341.6 384 349.6 375.2 L 378.4 345.6 L 378.4 345.6 L 349.6 316 L 349.6 316 Q 341.6 307.2 349.6 298.4 Q 358.4 290.4 367.2 298.4 L 396.8 327.2 L 396.8 327.2 L 426.4 298.4 L 426.4 298.4 Q 435.2 290.4 444 298.4 Q 452 307.2 444 316 L 444 316 Z" />
</svg>