<svg xmlns="http://www.w3.org/2000/svg" viewBox="0 0 512 512">
  <path d="M 448 256 Q 447.2 292 428.8 320 L 460.8 320 L 460.8 320 Q 472.8 319.2 473.6 307.2 L 473.6 204.8 L 473.6 204.8 Q 472.8 192.8 460.8 192 L 428.8 192 L 428.8 192 Q 447.2 220 448 256 L 448 256 Z M 460.8 358.4 L 385.6 358.4 L 460.8 358.4 L 385.6 358.4 Q 361.6 371.2 332.8 371.2 Q 304 371.2 280 358.4 L 193.6 358.4 L 193.6 358.4 Q 179.2 358.4 165.6 354.4 Q 148.8 349.6 121.6 342.4 Q 94.4 334.4 66.4 326.4 Q 38.4 318.4 18.4 312.8 Q 0.8 306.4 0 288 L 0 224 L 0 224 Q 0.8 205.6 18.4 199.2 Q 38.4 193.6 66.4 185.6 Q 94.4 177.6 121.6 169.6 Q 148.8 162.4 165.6 157.6 Q 179.2 153.6 193.6 153.6 L 280 153.6 L 280 153.6 Q 304 140.8 332.8 140.8 Q 361.6 140.8 385.6 153.6 L 460.8 153.6 L 460.8 153.6 Q 482.4 154.4 496.8 168.8 Q 511.2 183.2 512 204.8 L 512 307.2 L 512 307.2 Q 511.2 328.8 496.8 343.2 Q 482.4 357.6 460.8 358.4 L 460.8 358.4 Z M 193.6 320 L 236.8 320 L 193.6 320 L 236.8 320 Q 218.4 292 217.6 256 Q 218.4 220 236.8 192 L 193.6 192 L 193.6 192 Q 184.8 192 176 194.4 Q 170.4 196 164 197.6 Q 137.6 205.6 101.6 215.2 Q 66.4 225.6 38.4 233.6 L 38.4 278.4 L 38.4 278.4 Q 65.6 286.4 101.6 296.8 Q 136.8 306.4 163.2 313.6 Q 170.4 316 176 317.6 Q 184.8 320 193.6 320 L 193.6 320 Z M 332.8 332.8 Q 353.6 332.8 371.2 322.4 L 371.2 322.4 L 371.2 322.4 Q 388.8 312 399.2 294.4 Q 409.6 276 409.6 256 Q 409.6 236 399.2 217.6 Q 388.8 200 371.2 189.6 Q 353.6 179.2 332.8 179.2 Q 312 179.2 294.4 189.6 Q 276.8 200 266.4 217.6 Q 256 236 256 256 Q 256 276 266.4 294.4 Q 276.8 312 294.4 322.4 Q 312 332.8 332.8 332.8 L 332.8 332.8 Z M 318.4 219.2 L 332.8 233.6 L 318.4 219.2 L 332.8 233.6 L 347.2 219.2 L 347.2 219.2 Q 358.4 209.6 369.6 219.2 Q 379.2 230.4 369.6 241.6 L 355.2 256 L 355.2 256 L 369.6 270.4 L 369.6 270.4 Q 379.2 281.6 369.6 292.8 Q 358.4 302.4 347.2 292.8 L 332.8 278.4 L 332.8 278.4 L 318.4 292.8 L 318.4 292.8 Q 307.2 302.4 296 292.8 Q 286.4 281.6 296 270.4 L 310.4 256 L 310.4 256 L 296 241.6 L 296 241.6 Q 286.4 230.4 296 219.2 Q 307.2 209.6 318.4 219.2 L 318.4 219.2 Z" />
</svg>