<svg xmlns="http://www.w3.org/2000/svg" viewBox="0 0 512 512">
  <path d="M 256 464 Q 344 462 403 403 L 403 403 L 403 403 Q 462 344 464 256 Q 462 168 403 109 Q 344 50 256 48 Q 168 50 109 109 Q 50 168 48 256 Q 48 264 49 272 L 2 286 L 2 286 Q 0 271 0 256 Q 1 184 35 127 Q 69 69 127 35 Q 184 1 256 0 Q 328 1 385 35 Q 443 69 477 127 Q 511 184 512 256 Q 511 328 477 385 Q 443 443 385 477 Q 328 511 256 512 Q 241 512 226 510 L 240 463 L 240 463 Q 248 464 256 464 L 256 464 Z M 254 416 L 268 367 L 254 416 L 268 367 Q 311 362 339 331 Q 367 300 368 256 Q 367 208 335 177 Q 304 145 256 144 Q 212 145 181 173 Q 150 201 145 244 L 96 258 L 96 258 Q 96 258 96 257 Q 96 257 96 256 Q 98 188 143 143 Q 188 98 256 96 Q 324 98 369 143 Q 414 188 416 256 Q 414 324 369 369 Q 324 414 256 416 Q 255 416 255 416 Q 254 416 254 416 L 254 416 Z M 39 309 L 244 248 L 39 309 L 244 248 Q 253 246 260 252 Q 266 259 264 268 L 204 473 L 204 473 Q 200 484 190 484 Q 180 485 174 476 L 145 418 L 145 418 Q 144 416 143 415 L 55 503 L 55 503 Q 45 512 32 512 Q 19 512 9 503 Q 0 493 0 480 Q 0 467 9 457 L 97 369 L 97 369 Q 96 368 94 367 L 36 338 L 36 338 Q 27 332 28 322 Q 28 312 39 309 L 39 309 Z" />
</svg>