<svg xmlns="http://www.w3.org/2000/svg" viewBox="0 0 438 437">
    <path d="M 198 0 Q 224 0 243 19 L 419 195 Q 438 214 438 240 Q 438 265 419 285 L 285 419 Q 266 437 240 437 Q 215 437 195 419 L 19 243 Q 0 224 0 198 L 0 48 Q 1 28 14 14 Q 28 1 48 0 L 198 0 L 198 0 Z M 48 198 Q 48 204 53 209 L 229 385 Q 240 394 251 385 L 385 251 Q 394 240 385 229 L 209 53 Q 204 48 197 48 L 48 48 L 48 198 L 48 198 Z M 112 80 Q 126 80 135 89 L 135 89 Q 144 98 144 112 Q 144 126 135 135 Q 126 144 112 144 Q 98 144 89 135 Q 80 126 80 112 Q 80 98 89 89 Q 98 80 112 80 L 112 80 Z"/>
</svg>
