<svg xmlns="http://www.w3.org/2000/svg" viewBox="0 0 512 512">
  <path d="M 200 72 Q 183 72 172 84 L 172 84 L 172 84 Q 160 95 160 112 L 160 144 L 160 144 L 456 144 L 456 144 Q 478 146 480 168 Q 478 190 456 192 L 56 192 L 56 192 Q 34 190 32 168 Q 34 146 56 144 L 112 144 L 112 144 L 112 112 L 112 112 Q 113 75 138 50 Q 163 25 200 24 L 214 24 L 214 24 Q 228 1 256 0 L 320 0 L 320 0 Q 340 1 354 14 Q 367 28 368 48 Q 367 68 354 82 Q 340 95 320 96 L 256 96 L 256 96 Q 228 95 214 72 L 200 72 L 200 72 Z M 106 455 L 79 224 L 106 455 L 79 224 L 128 224 L 128 224 L 153 450 L 153 450 Q 156 463 169 464 L 343 464 L 343 464 Q 356 463 359 450 L 384 224 L 384 224 L 433 224 L 433 224 L 407 455 L 407 455 Q 403 480 386 496 Q 368 511 343 512 L 169 512 L 169 512 Q 144 511 126 496 Q 109 480 106 455 L 106 455 Z" />
</svg>