<svg xmlns="http://www.w3.org/2000/svg" viewBox="0 0 640 323">
    <path d="M 331 13 Q 321 0 305 4 Q 289 10 288 27 L 288 299 Q 290 321 312 323 Q 334 321 336 299 L 336 101 L 445 249 Q 452 259 464 259 Q 476 259 483 249 L 592 101 L 592 299 Q 594 321 616 323 Q 638 321 640 299 L 640 27 Q 639 10 623 4 Q 607 0 597 13 L 464 194 L 331 13 L 331 13 Z M 0 27 Q 2 49 24 51 L 104 51 L 104 299 Q 106 321 128 323 Q 150 321 152 299 L 152 51 L 232 51 Q 254 49 256 27 Q 254 5 232 3 L 24 3 Q 2 5 0 27 L 0 27 Z"/>
</svg>
