<svg xmlns="http://www.w3.org/2000/svg" viewBox="0 0 647 512">
    <path d="M 479 0 Q 457 2 455 24 L 455 32 L 455 192 L 455 512 L 503 512 L 503 192 L 631 192 Q 646 191 647 176 L 647 48 Q 646 33 631 32 L 503 32 L 503 24 Q 501 2 479 0 L 479 0 Z M 423 133 L 293 37 Q 279 27 265 37 L 17 221 Q 0 235 12 254 Q 26 271 45 259 L 71 240 L 71 432 Q 72 466 94 489 Q 117 511 151 512 L 407 512 Q 415 512 423 510 L 423 460 Q 416 464 407 464 L 359 464 L 359 344 Q 359 327 347 316 Q 336 304 319 304 L 239 304 Q 222 304 211 316 Q 199 327 199 344 L 199 464 L 151 464 Q 137 464 128 455 Q 119 446 119 432 L 119 205 L 279 86 L 423 193 L 423 133 L 423 133 Z M 311 352 L 311 464 L 247 464 L 247 352 L 311 352 L 311 352 Z"/>
</svg>
