<svg xmlns="http://www.w3.org/2000/svg" viewBox="0 0 512 512">
  <path d="M 211.52124 53.374516 Q 212.50966 26.687258 235.24324 11.861004 Q 258.96524 0 282.68726 11.861004 Q 305.42084 26.687258 306.40927 53.374516 Q 305.42084 80.061775 282.68726 94.88803 Q 258.96524 106.74903 235.24324 94.88803 Q 212.50966 80.061775 211.52124 53.374516 L 211.52124 53.374516 Z M 164.07722 213.49806 L 113.66795 302.4556 L 164.07722 213.49806 L 113.66795 302.4556 Q 100.818535 320.2471 81.05019 311.35135 Q 63.258686 298.50192 72.15444 278.73358 L 130.47104 176.92664 L 130.47104 176.92664 Q 142.33205 156.16989 162.10039 144.30888 Q 181.86873 132.44788 205.59073 132.44788 L 240.18533 132.44788 L 240.18533 132.44788 Q 280.71042 133.4363 307.39767 163.0888 L 387.45947 259.95367 L 387.45947 259.95367 Q 400.30887 277.74518 384.4942 292.57144 Q 366.7027 305.42084 351.87643 289.60617 L 290.5946 217.45174 L 290.5946 217.45174 L 290.5946 488.27798 L 290.5946 488.27798 Q 288.61777 510.02316 266.8726 512 Q 245.12741 510.02316 243.15057 488.27798 L 243.15057 353.85327 L 243.15057 353.85327 L 211.52124 353.85327 L 211.52124 353.85327 L 211.52124 488.27798 L 211.52124 488.27798 Q 209.5444 510.02316 187.79922 512 Q 166.05405 510.02316 164.07722 488.27798 L 164.07722 213.49806 L 164.07722 213.49806 Z M 243.15057 179.89189 Q 242.16216 179.89189 240.18533 179.89189 L 211.52124 179.89189 L 211.52124 179.89189 L 211.52124 306.40927 L 211.52124 306.40927 L 243.15057 306.40927 L 243.15057 306.40927 L 243.15057 179.89189 L 243.15057 179.89189 Z M 385.48264 377.5753 L 385.48264 385.48264 L 385.48264 377.5753 L 385.48264 385.48264 Q 383.5058 407.2278 361.76062 409.20462 Q 340.01544 407.2278 338.0386 385.48264 L 338.0386 377.5753 L 338.0386 377.5753 Q 339.02704 353.85327 353.85327 338.0386 Q 369.66797 323.21234 393.38995 322.22394 Q 417.11197 323.21234 432.92664 338.0386 Q 447.7529 353.85327 448.7413 377.5753 L 448.7413 488.27798 L 448.7413 488.27798 Q 446.76447 510.02316 425.01932 512 Q 403.27414 510.02316 401.2973 488.27798 L 401.2973 377.5753 L 401.2973 377.5753 Q 400.30887 370.65637 393.38995 369.66797 Q 386.47104 370.65637 385.48264 377.5753 L 385.48264 377.5753 Z" />
</svg>