<svg xmlns="http://www.w3.org/2000/svg" viewBox="0 0 512 512">
  <path d="M 250.0117 1.9961014 Q 256 0 261.9883 1.9961014 L 413.69202 41.91813 L 413.69202 41.91813 Q 427.6647 45.91033 430.65887 59.88304 Q 433.653 73.85575 423.67252 82.8382 L 399.7193 103.79727 L 399.7193 103.79727 L 399.7193 111.78168 L 399.7193 111.78168 Q 399.7193 128.74854 384.74854 136.73294 Q 366.78363 145.7154 333.84796 152.70175 Q 300.9123 160.68616 256 160.68616 Q 211.08772 160.68616 178.15205 152.70175 Q 145.21637 145.7154 127.251465 136.73294 Q 112.2807 128.74854 112.2807 111.78168 L 112.2807 103.79727 L 112.2807 103.79727 L 88.327484 82.8382 L 88.327484 82.8382 Q 78.34698 73.85575 81.34113 59.88304 Q 84.33528 45.91033 98.30799 41.91813 L 250.0117 1.9961014 L 250.0117 1.9961014 Z M 215.07993 66.86939 Q 202.10527 60.881092 194.12086 73.85575 Q 188.13255 87.82846 201.10721 94.81481 L 249.01364 118.76803 L 249.01364 118.76803 Q 256 122.76023 262.98636 118.76803 L 310.8928 94.81481 L 310.8928 94.81481 Q 323.86743 87.82846 317.87915 73.85575 Q 310.8928 60.881092 296.92007 66.86939 L 256 86.83041 L 256 86.83041 L 215.07993 66.86939 L 215.07993 66.86939 Z M 130.24562 169.66861 Q 151.20468 177.65302 173.16179 182.64328 Q 173.16179 187.63353 173.16179 192.62378 Q 174.15985 227.55556 197.115 251.50877 Q 221.06822 274.46393 256 275.46198 Q 290.93176 274.46393 314.88498 251.50877 Q 337.84015 227.55556 338.8382 192.62378 Q 338.8382 187.63353 338.8382 182.64328 Q 360.79532 177.65302 381.7544 169.66861 Q 383.7505 180.64717 383.7505 192.62378 Q 382.75244 246.51852 346.8226 283.44638 Q 309.89474 319.37622 256 320.37427 Q 202.10527 319.37622 165.17738 283.44638 Q 129.24756 246.51852 128.24951 192.62378 Q 128.24951 180.64717 130.24562 169.66861 L 130.24562 169.66861 Z M 83.337234 464.09357 L 221.06822 464.09357 L 83.337234 464.09357 L 221.06822 464.09357 Q 217.07602 462.09747 214.08188 459.1033 L 149.20857 402.21442 L 149.20857 402.21442 Q 124.25731 407.20468 107.29045 424.17154 Q 90.323586 440.14035 83.337234 464.09357 L 83.337234 464.09357 Z M 428.66278 464.09357 Q 421.67642 440.14035 404.70956 424.17154 L 404.70956 424.17154 L 404.70956 424.17154 Q 387.74268 407.20468 362.7914 402.21442 L 297.91812 459.1033 L 297.91812 459.1033 Q 294.92398 462.09747 290.93176 464.09357 L 428.66278 464.09357 L 428.66278 464.09357 Z M 159.18909 352.3119 Q 165.17738 352.3119 169.16959 356.3041 L 246.0195 423.1735 L 246.0195 423.1735 Q 256 431.1579 266.97855 423.1735 L 342.8304 356.3041 L 342.8304 356.3041 Q 347.82065 352.3119 353.80896 352.3119 Q 407.7037 357.30215 442.63547 394.23 Q 478.5653 431.1579 479.56335 486.0507 Q 477.56726 510.0039 453.61404 512 L 58.385963 512 L 58.385963 512 Q 34.432747 510.0039 32.436646 486.0507 Q 33.434696 431.1579 69.364525 394.23 Q 104.296295 357.30215 159.18909 352.3119 L 159.18909 352.3119 Z" />
</svg>