<svg xmlns="http://www.w3.org/2000/svg" viewBox="0 0 576 448">
    <path d="M 336 208 L 336 176 Q 335 122 299 85 Q 262 49 208 48 Q 154 49 117 85 Q 81 122 80 176 L 80 208 L 336 208 L 336 208 Z M 384 176 L 384 217 Q 384 234 373 245 Q 362 256 345 256 L 71 256 Q 54 256 43 245 Q 32 234 32 217 L 32 176 Q 34 101 84 52 Q 133 2 208 0 Q 283 2 332 52 Q 382 101 384 176 L 384 176 Z M 480 256 Q 467 256 456 252 Q 444 285 416 308 Q 389 330 352 335 L 352 336 L 352 408 Q 352 425 340 436 Q 329 448 312 448 L 264 448 Q 247 448 236 436 Q 224 425 224 408 L 224 336 L 192 336 L 192 408 Q 192 425 180 436 Q 169 448 152 448 L 104 448 Q 87 448 76 436 Q 64 425 64 408 L 64 336 L 24 336 Q 2 334 0 312 Q 2 290 24 288 L 64 288 L 112 288 L 144 288 L 192 288 L 224 288 L 272 288 L 304 288 L 336 288 Q 370 287 393 265 Q 415 242 416 208 L 416 192 L 416 160 L 416 144 Q 417 117 435 99 Q 453 81 480 80 Q 521 81 548 108 Q 575 135 576 176 L 576 192 Q 575 219 557 237 Q 539 255 512 256 L 480 256 L 480 256 Z M 272 336 L 272 400 L 304 400 L 304 336 L 272 336 L 272 336 Z M 112 336 L 112 400 L 144 400 L 144 336 L 112 336 L 112 336 Z M 496 192 Q 511 191 512 176 Q 511 161 496 160 Q 481 161 480 176 Q 481 191 496 192 L 496 192 Z"/>
</svg>
