<svg xmlns="http://www.w3.org/2000/svg" viewBox="0 0 512 512">
  <path d="M 23.67630057803468 0 Q 1.9730250481695568 1.9730250481695568 0 23.67630057803468 Q 1.9730250481695568 45.37957610789981 23.67630057803468 47.35260115606936 L 197.3025048169557 47.35260115606936 L 197.3025048169557 47.35260115606936 Q 219.0057803468208 45.37957610789981 220.97880539499036 23.67630057803468 Q 219.0057803468208 1.9730250481695568 197.3025048169557 0 L 23.67630057803468 0 L 23.67630057803468 0 Z M 23.67630057803468 78.92100192678227 Q 1.9730250481695568 80.89402697495183 0 102.59730250481695 Q 1.9730250481695568 124.30057803468208 23.67630057803468 126.27360308285164 L 86.8131021194605 126.27360308285164 L 86.8131021194605 126.27360308285164 L 86.8131021194605 197.3025048169557 L 86.8131021194605 197.3025048169557 Q 88.78612716763006 219.0057803468208 110.48940269749518 220.97880539499036 Q 132.19267822736032 219.0057803468208 134.16570327552986 197.3025048169557 L 134.16570327552986 126.27360308285164 L 134.16570327552986 126.27360308285164 L 197.3025048169557 126.27360308285164 L 197.3025048169557 126.27360308285164 Q 219.0057803468208 124.30057803468208 220.97880539499036 102.59730250481695 Q 219.0057803468208 80.89402697495183 197.3025048169557 78.92100192678227 L 23.67630057803468 78.92100192678227 L 23.67630057803468 78.92100192678227 Z M 457.7418111753372 52.285163776493256 L 457.7418111753372 128.2466281310212 L 457.7418111753372 52.285163776493256 L 457.7418111753372 128.2466281310212 Q 449.84971098265896 126.27360308285164 441.9576107899807 126.27360308285164 Q 415.3217726396917 127.26011560693641 397.5645472061657 140.08477842003853 Q 379.8073217726397 153.89595375722544 378.8208092485549 173.626204238921 Q 379.8073217726397 193.35645472061657 397.5645472061657 207.16763005780348 Q 415.3217726396917 219.9922928709056 441.9576107899807 220.97880539499036 Q 468.59344894026975 219.9922928709056 486.35067437379575 207.16763005780348 Q 504.10789980732176 193.35645472061657 505.09441233140655 173.626204238921 L 505.09441233140655 43.40655105973025 L 505.09441233140655 43.40655105973025 Q 504.10789980732176 23.67630057803468 490.29672447013485 12.824662813102119 Q 476.485549132948 0.9865125240847784 457.7418111753372 3.9460500963391136 L 331.46820809248555 29.595375722543352 L 331.46820809248555 29.595375722543352 Q 317.65703275529864 32.554913294797686 308.77842003853567 43.40655105973025 Q 299.89980732177264 53.27167630057804 299.89980732177264 68.0693641618497 L 299.89980732177264 159.8150289017341 L 299.89980732177264 159.8150289017341 Q 292.0077071290944 157.84200385356453 284.11560693641616 157.84200385356453 Q 257.4797687861272 158.82851637764932 239.72254335260115 171.65317919075144 Q 221.96531791907515 185.46435452793835 220.97880539499036 205.1946050096339 Q 221.96531791907515 224.92485549132948 239.72254335260115 238.7360308285164 Q 257.4797687861272 251.56069364161849 284.11560693641616 252.54720616570327 Q 310.7514450867052 251.56069364161849 328.5086705202312 238.7360308285164 Q 346.26589595375725 224.92485549132948 347.252408477842 205.1946050096339 L 347.252408477842 74.97495183044316 L 347.252408477842 74.97495183044316 L 457.7418111753372 52.285163776493256 L 457.7418111753372 52.285163776493256 Z M 498.1888246628131 291.0211946050096 Q 481.4181117533719 277.21001926782276 464.64739884393066 291.0211946050096 L 291.0211946050096 464.64739884393066 L 291.0211946050096 464.64739884393066 Q 277.21001926782276 481.4181117533719 291.0211946050096 498.1888246628131 Q 307.7919075144509 512 324.5626204238921 498.1888246628131 L 498.1888246628131 324.5626204238921 L 498.1888246628131 324.5626204238921 Q 512 307.7919075144509 498.1888246628131 291.0211946050096 L 498.1888246628131 291.0211946050096 Z M 347.252408477842 315.68400770712907 Q 347.252408477842 301.8728323699422 338.373795761079 292.9942196531792 L 338.373795761079 292.9942196531792 L 338.373795761079 292.9942196531792 Q 329.495183044316 284.11560693641616 315.68400770712907 284.11560693641616 Q 301.8728323699422 284.11560693641616 292.9942196531792 292.9942196531792 Q 284.11560693641616 301.8728323699422 284.11560693641616 315.68400770712907 Q 284.11560693641616 329.495183044316 292.9942196531792 338.373795761079 Q 301.8728323699422 347.252408477842 315.68400770712907 347.252408477842 Q 329.495183044316 347.252408477842 338.373795761079 338.373795761079 Q 347.252408477842 329.495183044316 347.252408477842 315.68400770712907 L 347.252408477842 315.68400770712907 Z M 473.52601156069363 505.09441233140655 Q 487.33718689788054 505.09441233140655 496.2157996146436 496.2157996146436 L 496.2157996146436 496.2157996146436 L 496.2157996146436 496.2157996146436 Q 505.09441233140655 487.33718689788054 505.09441233140655 473.52601156069363 Q 505.09441233140655 459.7148362235067 496.2157996146436 450.83622350674375 Q 487.33718689788054 441.9576107899807 473.52601156069363 441.9576107899807 Q 459.7148362235067 441.9576107899807 450.83622350674375 450.83622350674375 Q 441.9576107899807 459.7148362235067 441.9576107899807 473.52601156069363 Q 441.9576107899807 487.33718689788054 450.83622350674375 496.2157996146436 Q 459.7148362235067 505.09441233140655 473.52601156069363 505.09441233140655 L 473.52601156069363 505.09441233140655 Z M 82.86705202312139 252.54720616570327 Q 54.25818882466281 253.53371868978806 35.51445086705202 272.2774566473988 L 35.51445086705202 272.2774566473988 L 35.51445086705202 272.2774566473988 Q 16.770712909441233 291.0211946050096 15.784200385356455 319.6300578034682 Q 16.770712909441233 349.22543352601156 38.47398843930636 369.9421965317919 L 42.420038535645475 373.888246628131 L 42.420038535645475 373.888246628131 L 25.649325626204238 386.71290944123314 L 25.649325626204238 386.71290944123314 Q 0.9865125240847784 407.4296724470135 0 438.9980732177264 L 0 440.97109826589593 L 0 440.97109826589593 Q 0.9865125240847784 467.60693641618496 18.74373795761079 486.35067437379575 Q 37.48747591522158 504.10789980732176 65.10982658959537 505.09441233140655 Q 86.8131021194605 505.09441233140655 104.57032755298651 491.28323699421964 L 141.07129094412332 462.6743737957611 L 141.07129094412332 462.6743737957611 L 181.51830443159923 499.1753371868979 L 181.51830443159923 499.1753371868979 Q 199.27552986512524 512 215.0597302504817 497.2023121387283 Q 227.88439306358381 479.4450867052023 213.08670520231215 463.6608863198459 L 178.5587668593449 432.09248554913296 L 178.5587668593449 432.09248554913296 L 212.10019267822736 405.4566473988439 L 212.10019267822736 405.4566473988439 Q 227.88439306358381 389.6724470134875 216.04624277456648 371.91522157996144 Q 200.26204238921002 356.131021194605 182.50481695568402 367.96917148362235 L 142.05780346820808 400.52408477842005 L 142.05780346820808 400.52408477842005 L 116.40847784200385 376.8477842003854 L 116.40847784200385 376.8477842003854 L 124.30057803468208 370.9287090558767 L 124.30057803468208 370.9287090558767 Q 148.96339113680153 350.21194605009634 149.94990366088632 318.64354527938343 Q 148.96339113680153 291.0211946050096 130.21965317919074 272.2774566473988 Q 112.46242774566474 253.53371868978806 83.85356454720616 252.54720616570327 L 82.86705202312139 252.54720616570327 L 82.86705202312139 252.54720616570327 Z M 95.69171483622351 333.44123314065513 L 80.89402697495183 344.2928709055877 L 95.69171483622351 333.44123314065513 L 80.89402697495183 344.2928709055877 L 70.04238921001927 334.42774566473986 L 70.04238921001927 334.42774566473986 Q 63.13680154142582 328.5086705202312 63.13680154142582 319.6300578034682 Q 65.10982658959537 301.8728323699422 82.86705202312139 299.89980732177264 L 83.85356454720616 299.89980732177264 L 83.85356454720616 299.89980732177264 Q 100.6242774566474 301.8728323699422 102.59730250481695 318.64354527938343 Q 102.59730250481695 327.52215799614646 95.69171483622351 333.44123314065513 L 95.69171483622351 333.44123314065513 Z M 54.25818882466281 424.2003853564547 L 77.9344894026975 406.4431599229287 L 54.25818882466281 424.2003853564547 L 77.9344894026975 406.4431599229287 L 105.55684007707129 430.1194605009634 L 105.55684007707129 430.1194605009634 L 74.97495183044316 453.79576107899805 L 74.97495183044316 453.79576107899805 Q 71.02890173410404 457.7418111753372 65.10982658959537 457.7418111753372 Q 49.32562620423892 456.7552986512524 47.35260115606936 440.97109826589593 L 47.35260115606936 438.9980732177264 L 47.35260115606936 438.9980732177264 Q 47.35260115606936 430.1194605009634 54.25818882466281 424.2003853564547 L 54.25818882466281 424.2003853564547 Z" />
</svg>