<svg xmlns="http://www.w3.org/2000/svg" viewBox="0 0 512 512">
  <path d="M 250.01169590643275 1.996101364522417 Q 256 0 261.98830409356725 1.996101364522417 L 413.69200779727095 41.91812865497076 L 413.69200779727095 41.91812865497076 Q 427.66471734892787 45.91033138401559 430.6588693957115 59.88304093567251 Q 433.6530214424951 73.85575048732943 423.67251461988303 82.83820662768031 L 399.719298245614 103.79727095516569 L 399.719298245614 103.79727095516569 L 399.719298245614 111.78167641325535 L 399.719298245614 111.78167641325535 Q 399.719298245614 128.7485380116959 384.7485380116959 136.73294346978557 Q 366.7836257309942 145.71539961013644 333.84795321637426 152.7017543859649 Q 300.9122807017544 160.68615984405457 256 160.68615984405457 Q 211.08771929824562 160.68615984405457 178.15204678362574 152.7017543859649 Q 145.21637426900585 145.71539961013644 127.25146198830409 136.73294346978557 Q 112.28070175438596 128.7485380116959 112.28070175438596 111.78167641325535 L 112.28070175438596 103.79727095516569 L 112.28070175438596 103.79727095516569 L 88.32748538011695 82.83820662768031 L 88.32748538011695 82.83820662768031 Q 78.34697855750487 73.85575048732943 81.3411306042885 59.88304093567251 Q 84.33528265107212 45.91033138401559 98.30799220272904 41.91812865497076 L 250.01169590643275 1.996101364522417 L 250.01169590643275 1.996101364522417 Z M 215.07992202729045 66.86939571150097 Q 202.10526315789474 60.88109161793372 194.12085769980507 73.85575048732943 Q 188.13255360623782 87.82846003898635 201.10721247563353 94.81481481481481 L 249.01364522417154 118.76803118908381 L 249.01364522417154 118.76803118908381 Q 256 122.76023391812865 262.9863547758285 118.76803118908381 L 310.8927875243665 94.81481481481481 L 310.8927875243665 94.81481481481481 Q 323.8674463937622 87.82846003898635 317.8791423001949 73.85575048732943 Q 310.8927875243665 60.88109161793372 296.9200779727096 66.86939571150097 L 256 86.83040935672514 L 256 86.83040935672514 L 215.07992202729045 66.86939571150097 L 215.07992202729045 66.86939571150097 Z M 130.24561403508773 169.66861598440545 Q 151.2046783625731 177.65302144249512 173.1617933723197 182.64327485380116 Q 173.1617933723197 187.6335282651072 173.1617933723197 192.62378167641324 Q 174.1598440545809 227.55555555555554 197.1150097465887 251.50877192982455 Q 221.0682261208577 274.4639376218324 256 275.46198830409355 Q 290.9317738791423 274.4639376218324 314.88499025341133 251.50877192982455 Q 337.8401559454191 227.55555555555554 338.83820662768034 192.62378167641324 Q 338.83820662768034 187.6335282651072 338.83820662768034 182.64327485380116 Q 360.7953216374269 177.65302144249512 381.7543859649123 169.66861598440545 Q 383.7504873294347 180.64717348927874 383.7504873294347 192.62378167641324 Q 382.7524366471735 246.5185185185185 346.82261208577 283.4463937621832 Q 309.89473684210526 319.3762183235867 256 320.37426900584796 Q 202.10526315789474 319.3762183235867 165.17738791423002 283.4463937621832 Q 129.24756335282652 246.5185185185185 128.2495126705653 192.62378167641324 Q 128.2495126705653 180.64717348927874 130.24561403508773 169.66861598440545 L 130.24561403508773 169.66861598440545 Z M 83.33723196881091 464.093567251462 L 221.0682261208577 464.093567251462 L 83.33723196881091 464.093567251462 L 221.0682261208577 464.093567251462 Q 217.07602339181287 462.0974658869396 214.08187134502924 459.1033138401559 L 149.2085769980507 402.21442495126706 L 149.2085769980507 402.21442495126706 Q 124.25730994152046 407.2046783625731 107.29044834307992 424.17153996101365 Q 90.32358674463937 440.140350877193 83.33723196881091 464.093567251462 L 83.33723196881091 464.093567251462 Z M 428.6627680311891 464.093567251462 Q 421.6764132553606 440.140350877193 404.7095516569201 424.17153996101365 L 404.7095516569201 424.17153996101365 L 404.7095516569201 424.17153996101365 Q 387.7426900584795 407.2046783625731 362.79142300194934 402.21442495126706 L 297.91812865497076 459.1033138401559 L 297.91812865497076 459.1033138401559 Q 294.92397660818716 462.0974658869396 290.9317738791423 464.093567251462 L 428.6627680311891 464.093567251462 L 428.6627680311891 464.093567251462 Z M 159.18908382066277 352.31189083820664 Q 165.17738791423002 352.31189083820664 169.16959064327486 356.30409356725147 L 246.01949317738791 423.1734892787524 L 246.01949317738791 423.1734892787524 Q 256 431.1578947368421 266.9785575048733 423.1734892787524 L 342.83040935672517 356.30409356725147 L 342.83040935672517 356.30409356725147 Q 347.8206627680312 352.31189083820664 353.80896686159844 352.31189083820664 Q 407.7037037037037 357.30214424951265 442.635477582846 394.2300194931774 Q 478.56530214424953 431.1578947368421 479.5633528265107 486.0506822612086 Q 477.5672514619883 510.0038986354776 453.6140350877193 512 L 58.3859649122807 512 L 58.3859649122807 512 Q 34.432748538011694 510.0038986354776 32.43664717348928 486.0506822612086 Q 33.434697855750485 431.1578947368421 69.36452241715399 394.2300194931774 Q 104.29629629629629 357.30214424951265 159.18908382066277 352.31189083820664 L 159.18908382066277 352.31189083820664 Z" />
</svg>