<svg xmlns="http://www.w3.org/2000/svg" viewBox="0 0 448 448">
    <path d="M 88 0 L 104 0 Q 126 2 128 24 Q 126 46 104 48 L 88 48 Q 71 48 60 60 Q 48 71 48 88 L 48 104 Q 46 126 24 128 Q 2 126 0 104 L 0 88 Q 1 51 26 26 Q 51 1 88 0 L 88 0 Z M 24 160 Q 46 162 48 184 L 48 264 Q 46 286 24 288 Q 2 286 0 264 L 0 184 Q 2 162 24 160 L 24 160 Z M 424 160 Q 446 162 448 184 L 448 264 Q 446 286 424 288 Q 402 286 400 264 L 400 184 Q 402 162 424 160 L 424 160 Z M 424 128 Q 402 126 400 104 L 400 88 Q 400 71 388 60 Q 377 48 360 48 L 344 48 Q 322 46 320 24 Q 322 2 344 0 L 360 0 Q 397 1 422 26 Q 447 51 448 88 L 448 104 Q 446 126 424 128 L 424 128 Z M 448 344 L 448 360 Q 447 397 422 422 Q 397 447 360 448 L 344 448 Q 322 446 320 424 Q 322 402 344 400 L 360 400 Q 377 400 388 388 Q 400 377 400 360 L 400 344 Q 402 322 424 320 Q 446 322 448 344 L 448 344 Z M 48 344 L 48 360 Q 48 377 60 388 Q 71 400 88 400 L 104 400 Q 126 402 128 424 Q 126 446 104 448 L 88 448 Q 51 447 26 422 Q 1 397 0 360 L 0 344 Q 2 322 24 320 Q 46 322 48 344 L 48 344 Z M 184 448 Q 162 446 160 424 Q 162 402 184 400 L 264 400 Q 286 402 288 424 Q 286 446 264 448 L 184 448 L 184 448 Z M 160 24 Q 162 2 184 0 L 264 0 Q 286 2 288 24 Q 286 46 264 48 L 184 48 Q 162 46 160 24 L 160 24 Z"/>
</svg>
