<svg xmlns="http://www.w3.org/2000/svg" viewBox="0 0 512 512">
  <path d="M 56.888888888888886 99.55555555555556 Q 43.55555555555556 100.44444444444444 42.666666666666664 113.77777777777777 L 42.666666666666664 398.22222222222223 L 42.666666666666664 398.22222222222223 Q 43.55555555555556 411.55555555555554 56.888888888888886 412.44444444444446 L 455.1111111111111 412.44444444444446 L 455.1111111111111 412.44444444444446 Q 468.44444444444446 411.55555555555554 469.3333333333333 398.22222222222223 L 469.3333333333333 113.77777777777777 L 469.3333333333333 113.77777777777777 Q 468.44444444444446 100.44444444444444 455.1111111111111 99.55555555555556 L 56.888888888888886 99.55555555555556 L 56.888888888888886 99.55555555555556 Z M 0 113.77777777777777 Q 0.8888888888888888 89.77777777777777 16.88888888888889 73.77777777777777 L 16.88888888888889 73.77777777777777 L 16.88888888888889 73.77777777777777 Q 32.888888888888886 57.77777777777778 56.888888888888886 56.888888888888886 L 455.1111111111111 56.888888888888886 L 455.1111111111111 56.888888888888886 Q 479.1111111111111 57.77777777777778 495.1111111111111 73.77777777777777 Q 511.1111111111111 89.77777777777777 512 113.77777777777777 L 512 398.22222222222223 L 512 398.22222222222223 Q 511.1111111111111 422.22222222222223 495.1111111111111 438.22222222222223 Q 479.1111111111111 454.22222222222223 455.1111111111111 455.1111111111111 L 56.888888888888886 455.1111111111111 L 56.888888888888886 455.1111111111111 Q 32.888888888888886 454.22222222222223 16.88888888888889 438.22222222222223 Q 0.8888888888888888 422.22222222222223 0 398.22222222222223 L 0 113.77777777777777 L 0 113.77777777777777 Z M 85.33333333333333 170.66666666666666 Q 85.33333333333333 158.22222222222223 93.33333333333333 150.22222222222223 L 93.33333333333333 150.22222222222223 L 93.33333333333333 150.22222222222223 Q 101.33333333333333 142.22222222222223 113.77777777777777 142.22222222222223 Q 126.22222222222223 142.22222222222223 134.22222222222223 150.22222222222223 Q 142.22222222222223 158.22222222222223 142.22222222222223 170.66666666666666 Q 142.22222222222223 183.11111111111111 134.22222222222223 191.11111111111111 Q 126.22222222222223 199.11111111111111 113.77777777777777 199.11111111111111 Q 101.33333333333333 199.11111111111111 93.33333333333333 191.11111111111111 Q 85.33333333333333 183.11111111111111 85.33333333333333 170.66666666666666 L 85.33333333333333 170.66666666666666 Z M 177.77777777777777 170.66666666666666 Q 179.55555555555554 151.11111111111111 199.11111111111111 149.33333333333334 L 398.22222222222223 149.33333333333334 L 398.22222222222223 149.33333333333334 Q 417.77777777777777 151.11111111111111 419.55555555555554 170.66666666666666 Q 417.77777777777777 190.22222222222223 398.22222222222223 192 L 199.11111111111111 192 L 199.11111111111111 192 Q 179.55555555555554 190.22222222222223 177.77777777777777 170.66666666666666 L 177.77777777777777 170.66666666666666 Z M 177.77777777777777 256 Q 179.55555555555554 236.44444444444446 199.11111111111111 234.66666666666666 L 398.22222222222223 234.66666666666666 L 398.22222222222223 234.66666666666666 Q 417.77777777777777 236.44444444444446 419.55555555555554 256 Q 417.77777777777777 275.55555555555554 398.22222222222223 277.3333333333333 L 199.11111111111111 277.3333333333333 L 199.11111111111111 277.3333333333333 Q 179.55555555555554 275.55555555555554 177.77777777777777 256 L 177.77777777777777 256 Z M 177.77777777777777 341.3333333333333 Q 179.55555555555554 321.77777777777777 199.11111111111111 320 L 398.22222222222223 320 L 398.22222222222223 320 Q 417.77777777777777 321.77777777777777 419.55555555555554 341.3333333333333 Q 417.77777777777777 360.8888888888889 398.22222222222223 362.6666666666667 L 199.11111111111111 362.6666666666667 L 199.11111111111111 362.6666666666667 Q 179.55555555555554 360.8888888888889 177.77777777777777 341.3333333333333 L 177.77777777777777 341.3333333333333 Z M 113.77777777777777 284.44444444444446 Q 101.33333333333333 284.44444444444446 93.33333333333333 276.44444444444446 L 93.33333333333333 276.44444444444446 L 93.33333333333333 276.44444444444446 Q 85.33333333333333 268.44444444444446 85.33333333333333 256 Q 85.33333333333333 243.55555555555554 93.33333333333333 235.55555555555554 Q 101.33333333333333 227.55555555555554 113.77777777777777 227.55555555555554 Q 126.22222222222223 227.55555555555554 134.22222222222223 235.55555555555554 Q 142.22222222222223 243.55555555555554 142.22222222222223 256 Q 142.22222222222223 268.44444444444446 134.22222222222223 276.44444444444446 Q 126.22222222222223 284.44444444444446 113.77777777777777 284.44444444444446 L 113.77777777777777 284.44444444444446 Z M 85.33333333333333 341.3333333333333 Q 85.33333333333333 328.8888888888889 93.33333333333333 320.8888888888889 L 93.33333333333333 320.8888888888889 L 93.33333333333333 320.8888888888889 Q 101.33333333333333 312.8888888888889 113.77777777777777 312.8888888888889 Q 126.22222222222223 312.8888888888889 134.22222222222223 320.8888888888889 Q 142.22222222222223 328.8888888888889 142.22222222222223 341.3333333333333 Q 142.22222222222223 353.77777777777777 134.22222222222223 361.77777777777777 Q 126.22222222222223 369.77777777777777 113.77777777777777 369.77777777777777 Q 101.33333333333333 369.77777777777777 93.33333333333333 361.77777777777777 Q 85.33333333333333 353.77777777777777 85.33333333333333 341.3333333333333 L 85.33333333333333 341.3333333333333 Z" />
</svg>