<svg xmlns="http://www.w3.org/2000/svg" viewBox="0 0 519 519">
    <path d="M 465 14 Q 448 0 431 14 L 383 62 Q 379 66 378 71 L 355 130 L 294 191 L 293 192 Q 259 167 216 161 L 216 159 Q 214 137 192 135 Q 170 137 168 159 L 168 161 Q 125 167 91 192 L 90 191 Q 73 177 56 191 Q 42 208 56 225 L 57 226 Q 32 260 26 303 L 24 303 Q 2 305 0 327 Q 2 349 24 351 L 26 351 Q 32 394 57 428 L 56 429 Q 42 446 56 463 Q 73 477 90 463 L 91 462 Q 125 487 168 493 L 168 495 Q 170 517 192 519 Q 214 517 216 495 L 216 493 Q 259 487 293 462 L 294 463 Q 311 477 328 463 Q 342 446 328 429 L 326 428 Q 352 394 358 351 L 360 351 Q 382 349 384 327 Q 382 305 360 303 L 358 303 Q 352 260 327 226 L 328 225 L 328 225 L 389 164 L 448 142 Q 453 140 457 136 L 505 88 Q 519 71 505 54 L 465 14 L 465 14 Z M 192 199 Q 227 199 256 216 L 256 216 Q 285 233 303 263 Q 320 293 320 327 Q 320 361 303 391 Q 285 421 256 438 Q 227 455 192 455 Q 157 455 128 438 Q 99 421 81 391 Q 64 361 64 327 Q 64 293 81 263 Q 99 233 128 216 Q 157 199 192 199 L 192 199 Z M 153 318 Q 136 304 119 318 Q 105 335 119 352 L 167 400 Q 184 414 201 400 Q 215 383 201 366 L 153 318 L 153 318 Z"/>
</svg>
