<svg xmlns="http://www.w3.org/2000/svg" viewBox="0 0 519 519">
    <path d="M 508 37 L 482 11 Q 471 0 455 0 Q 439 0 428 11 L 397 43 Q 390 40 383 40 Q 367 40 356 51 L 324 83 L 295 54 Q 277 37 255 37 Q 233 37 215 54 L 110 159 Q 96 176 110 193 Q 127 207 144 193 L 249 88 Q 255 83 261 88 L 290 117 L 80 327 Q 71 336 68 348 L 40 445 L 14 471 Q 0 488 14 505 Q 31 519 48 505 L 74 479 L 171 451 Q 183 448 192 439 L 468 163 Q 479 152 479 136 Q 479 129 477 123 L 508 91 Q 519 80 519 64 Q 519 48 508 37 L 508 37 Z M 383 92 L 427 136 L 190 373 L 146 329 L 383 92 L 383 92 Z M 96 423 L 113 364 L 155 406 L 96 423 L 96 423 Z"/>
</svg>
