<svg xmlns="http://www.w3.org/2000/svg" viewBox="0 0 512 512">
  <path d="M 0 200 Q 0 192 4 185.6 L 65.6 71.2 L 65.6 71.2 Q 77.6 52 100 51.2 L 412.8 51.2 L 412.8 51.2 Q 434.4 52 446.4 71.2 L 508 184.8 L 508 184.8 Q 512 192 512 200 Q 511.2 215.2 500 224 Q 488 204 468 192 L 412.8 89.6 L 412.8 89.6 L 100 89.6 L 100 89.6 L 44 192 L 44 192 L 376 192 L 376 192 Q 353.6 205.6 341.6 230.4 L 307.2 230.4 L 307.2 230.4 L 307.2 428.8 L 307.2 428.8 Q 307.2 442.4 297.6 451.2 Q 288.8 460.8 275.2 460.8 L 83.2 460.8 L 83.2 460.8 Q 69.6 460.8 60.8 451.2 Q 51.2 442.4 51.2 428.8 L 51.2 230.4 L 51.2 230.4 L 30.4 230.4 L 30.4 230.4 Q 17.6 230.4 8.8 221.6 Q 0 212.8 0 200 L 0 200 Z M 89.6 230.4 L 89.6 307.2 L 89.6 230.4 L 89.6 307.2 L 268.8 307.2 L 268.8 307.2 L 268.8 230.4 L 268.8 230.4 L 89.6 230.4 L 89.6 230.4 Z M 89.6 422.4 L 268.8 422.4 L 89.6 422.4 L 268.8 422.4 L 268.8 345.6 L 268.8 345.6 L 89.6 345.6 L 89.6 345.6 L 89.6 422.4 L 89.6 422.4 Z M 422.4 243.2 Q 411.2 243.2 404 250.4 L 404 250.4 L 404 250.4 Q 396.8 257.6 396.8 268.8 L 396.8 307.2 L 396.8 307.2 L 448 307.2 L 448 307.2 L 448 268.8 L 448 268.8 Q 448 257.6 440.8 250.4 Q 433.6 243.2 422.4 243.2 L 422.4 243.2 Z M 358.4 268.8 Q 359.2 241.6 376.8 223.2 L 376.8 223.2 L 376.8 223.2 Q 395.2 205.6 422.4 204.8 Q 449.6 205.6 468 223.2 Q 485.6 241.6 486.4 268.8 L 486.4 307.2 L 486.4 307.2 Q 497.6 307.2 504.8 314.4 Q 512 321.6 512 332.8 L 512 435.2 L 512 435.2 Q 512 446.4 504.8 453.6 Q 497.6 460.8 486.4 460.8 L 358.4 460.8 L 358.4 460.8 Q 347.2 460.8 340 453.6 Q 332.8 446.4 332.8 435.2 L 332.8 332.8 L 332.8 332.8 Q 332.8 321.6 340 314.4 Q 347.2 307.2 358.4 307.2 L 358.4 268.8 L 358.4 268.8 Z" />
</svg>