<svg xmlns="http://www.w3.org/2000/svg" viewBox="0 0 512 512">
  <path d="M 64 115.2 Q 52 116 51.2 128 L 51.2 153.6 L 51.2 153.6 L 51.2 281.6 L 51.2 281.6 L 51.2 320 L 51.2 320 L 61.6 320 L 61.6 320 Q 72 302.4 88.8 292 Q 106.4 281.6 128 281.6 Q 149.6 281.6 167.2 292 Q 184 302.4 194.4 320 L 281.6 320 L 281.6 320 L 281.6 307.2 L 281.6 307.2 L 281.6 230.4 L 281.6 230.4 L 281.6 134.4 L 281.6 134.4 L 281.6 128 L 281.6 128 Q 280.8 116 268.8 115.2 L 64 115.2 L 64 115.2 Z M 12.8 320 L 12.8 278.4 L 12.8 320 L 12.8 278.4 Q 0.8 271.2 0 256 L 0 179.2 L 0 179.2 Q 0.8 164 12.8 156.8 L 12.8 128 L 12.8 128 Q 13.6 106.4 28 92 Q 42.4 77.6 64 76.8 L 268.8 76.8 L 268.8 76.8 Q 287.2 76.8 300.8 88 Q 313.6 98.4 318.4 115.2 L 348.8 115.2 L 348.8 115.2 Q 376 116 388.8 140.8 L 431.2 229.6 L 431.2 229.6 L 431.2 230.4 L 431.2 230.4 L 435.2 230.4 L 435.2 230.4 Q 456.8 231.2 471.2 245.6 Q 485.6 260 486.4 281.6 L 486.4 320 L 486.4 320 L 492.8 320 L 492.8 320 Q 510.4 321.6 512 339.2 Q 510.4 356.8 492.8 358.4 L 486.4 358.4 L 460.8 358.4 Q 460 391.2 438.4 412.8 Q 416.8 434.4 384 435.2 Q 351.2 434.4 329.6 412.8 Q 308 391.2 307.2 358.4 L 281.6 358.4 L 204.8 358.4 Q 204 391.2 182.4 412.8 Q 160.8 434.4 128 435.2 Q 95.2 434.4 73.6 412.8 Q 52 391.2 51.2 358.4 L 19.2 358.4 L 12.8 358.4 L 12.8 357.6 L 12.8 357.6 Q 0.8 352.8 0 339.2 Q 0.8 325.6 12.8 320.8 L 12.8 320 L 12.8 320 Z M 89.6 358.4 Q 90.4 380 108.8 392 Q 128 401.6 147.2 392 Q 165.6 380 166.4 358.4 Q 165.6 336.8 147.2 324.8 Q 128 315.2 108.8 324.8 Q 90.4 336.8 89.6 358.4 L 89.6 358.4 Z M 320 230.4 L 388.8 230.4 L 320 230.4 L 388.8 230.4 L 354.4 157.6 L 354.4 157.6 Q 352.8 153.6 348.8 153.6 L 320 153.6 L 320 153.6 L 320 230.4 L 320 230.4 Z M 384 396.8 Q 405.6 396 417.6 377.6 Q 427.2 358.4 417.6 339.2 Q 405.6 320.8 384 320 Q 362.4 320.8 350.4 339.2 Q 340.8 358.4 350.4 377.6 Q 362.4 396 384 396.8 L 384 396.8 Z M 202.4 159.2 L 230.4 200.8 L 202.4 159.2 L 230.4 200.8 L 230.4 166.4 L 230.4 166.4 Q 231.2 154.4 243.2 153.6 Q 255.2 154.4 256 166.4 L 256 243.2 L 256 243.2 Q 255.2 252 247.2 255.2 Q 237.6 257.6 232.8 250.4 L 204.8 208.8 L 204.8 208.8 L 204.8 243.2 L 204.8 243.2 Q 204 255.2 192 256 Q 180 255.2 179.2 243.2 L 179.2 166.4 L 179.2 166.4 Q 180 157.6 188 154.4 Q 197.6 152 202.4 159.2 L 202.4 159.2 Z M 102.4 166.4 L 102.4 217.6 L 102.4 166.4 L 102.4 217.6 Q 103.2 229.6 115.2 230.4 Q 127.2 229.6 128 217.6 L 128 166.4 L 128 166.4 Q 128.8 154.4 140.8 153.6 Q 152.8 154.4 153.6 166.4 L 153.6 217.6 L 153.6 217.6 Q 152.8 233.6 142.4 244.8 Q 131.2 255.2 115.2 256 Q 99.2 255.2 88 244.8 Q 77.6 233.6 76.8 217.6 L 76.8 166.4 L 76.8 166.4 Q 77.6 154.4 89.6 153.6 Q 101.6 154.4 102.4 166.4 L 102.4 166.4 Z" />
</svg>