<svg xmlns="http://www.w3.org/2000/svg" viewBox="0 0 512 512">
  <path d="M 241 10 Q 241 10 241 10 L 241 10 L 241 10 Q 247 15 256 16 Q 265 15 272 10 Q 272 10 272 10 Q 279 2 304 0 Q 331 2 348 36 Q 366 70 376 112 Q 387 109 396 105 Q 444 84 451 70 Q 460 61 471 66 Q 482 73 479 85 Q 472 106 454 130 Q 435 154 407 175 Q 396 183 383 190 Q 384 199 384 208 Q 383 262 347 299 Q 310 335 256 336 Q 202 335 166 299 Q 129 262 128 208 Q 128 199 129 190 Q 117 183 106 175 Q 77 154 59 130 Q 40 106 33 85 Q 30 73 41 66 Q 52 61 61 70 Q 68 84 116 105 Q 125 109 136 112 Q 146 70 164 36 Q 181 2 208 0 Q 233 2 240 10 Q 240 10 241 10 L 241 10 Z M 256 224 Q 212 224 176 211 Q 178 244 201 266 Q 223 287 256 288 Q 289 287 311 266 Q 334 244 336 211 Q 300 224 256 224 L 256 224 Z M 86 459 L 86 464 L 86 459 L 86 464 L 426 464 L 426 464 L 426 459 L 426 459 Q 423 440 410 428 Q 397 416 378 416 L 134 416 L 134 416 Q 115 416 102 428 Q 89 440 86 459 L 86 459 Z M 39 453 Q 43 416 70 392 L 70 392 L 70 392 Q 96 369 134 368 L 378 368 L 378 368 Q 416 369 442 392 Q 469 416 474 453 L 476 477 L 476 477 Q 477 491 468 501 Q 459 512 444 512 L 68 512 L 68 512 Q 53 512 44 501 Q 35 491 36 477 L 39 453 L 39 453 Z" />
</svg>