<svg xmlns="http://www.w3.org/2000/svg" viewBox="0 0 512 512">
  <path d="M 460.8 89.6 L 179.2 89.6 L 460.8 89.6 L 179.2 89.6 Q 167.2 90.4 166.4 102.4 L 166.4 135.2 L 166.4 135.2 Q 148.8 128 128 128 L 128 102.4 L 128 102.4 Q 128.8 80.8 143.2 66.4 Q 157.6 52 179.2 51.2 L 460.8 51.2 L 460.8 51.2 Q 482.4 52 496.8 66.4 Q 511.2 80.8 512 102.4 L 512 332.8 L 512 332.8 Q 511.2 354.4 496.8 368.8 Q 482.4 383.2 460.8 384 L 269.6 384 L 269.6 384 Q 259.2 362.4 242.4 345.6 L 460.8 345.6 L 460.8 345.6 Q 472.8 344.8 473.6 332.8 L 473.6 102.4 L 473.6 102.4 Q 472.8 90.4 460.8 89.6 L 460.8 89.6 Z M 330.4 162.4 Q 324.8 156.8 327.2 148.8 Q 331.2 141.6 339.2 140.8 L 409.6 140.8 L 409.6 140.8 Q 421.6 141.6 422.4 153.6 L 422.4 224 L 422.4 224 Q 422.4 232 414.4 236 Q 406.4 238.4 400.8 232.8 L 379.2 211.2 L 379.2 211.2 L 320.8 269.6 L 320.8 269.6 Q 307.2 280.8 293.6 269.6 L 242.4 218.4 L 242.4 218.4 Q 231.2 204.8 242.4 191.2 Q 256 180 269.6 191.2 L 307.2 228.8 L 307.2 228.8 L 352 184 L 352 184 L 330.4 162.4 L 330.4 162.4 Z M 128 268.8 Q 149.6 268 161.6 249.6 Q 171.2 230.4 161.6 211.2 Q 149.6 192.8 128 192 Q 106.4 192.8 94.4 211.2 Q 84.8 230.4 94.4 249.6 Q 106.4 268 128 268.8 L 128 268.8 Z M 128 153.6 Q 148.8 153.6 166.4 164 L 166.4 164 L 166.4 164 Q 184 174.4 194.4 192 Q 204.8 210.4 204.8 230.4 Q 204.8 250.4 194.4 268.8 Q 184 286.4 166.4 296.8 Q 148.8 307.2 128 307.2 Q 107.2 307.2 89.6 296.8 Q 72 286.4 61.6 268.8 Q 51.2 250.4 51.2 230.4 Q 51.2 210.4 61.6 192 Q 72 174.4 89.6 164 Q 107.2 153.6 128 153.6 L 128 153.6 Z M 106.4 371.2 Q 82.4 372 64.8 385.6 L 64.8 385.6 L 64.8 385.6 Q 46.4 400 40.8 422.4 L 215.2 422.4 L 215.2 422.4 Q 209.6 400 191.2 385.6 Q 173.6 372 149.6 371.2 L 106.4 371.2 L 106.4 371.2 Z M 106.4 332.8 L 149.6 332.8 L 106.4 332.8 L 149.6 332.8 Q 194.4 333.6 224.8 364 Q 255.2 394.4 256 439.2 Q 254.4 459.2 234.4 460.8 L 21.6 460.8 L 21.6 460.8 Q 1.6 459.2 0 439.2 Q 0.8 394.4 31.2 364 Q 61.6 333.6 106.4 332.8 L 106.4 332.8 Z" />
</svg>