<svg xmlns="http://www.w3.org/2000/svg" viewBox="0 0 512 512">
  <path d="M 234.81379310344826 51.2 Q 236.57931034482758 31.779310344827586 256 30.013793103448275 L 319.5586206896552 30.013793103448275 L 319.5586206896552 30.013793103448275 Q 338.9793103448276 31.779310344827586 340.7448275862069 51.2 Q 338.9793103448276 70.62068965517241 319.5586206896552 72.38620689655173 L 277.1862068965517 72.38620689655173 L 277.1862068965517 72.38620689655173 L 277.1862068965517 114.75862068965517 L 277.1862068965517 114.75862068965517 L 319.5586206896552 114.75862068965517 L 319.5586206896552 114.75862068965517 Q 338.9793103448276 116.52413793103449 340.7448275862069 135.94482758620688 Q 338.9793103448276 155.3655172413793 319.5586206896552 157.13103448275862 L 277.1862068965517 157.13103448275862 L 277.1862068965517 157.13103448275862 L 277.1862068965517 231.28275862068966 L 277.1862068965517 231.28275862068966 Q 299.2551724137931 238.3448275862069 312.49655172413793 256 Q 326.62068965517244 274.53793103448277 326.62068965517244 298.3724137931035 Q 325.73793103448276 328.3862068965517 306.31724137931036 348.6896551724138 Q 286.0137931034483 368.11034482758623 256 368.99310344827586 Q 225.98620689655172 368.11034482758623 205.68275862068967 348.6896551724138 Q 186.26206896551724 328.3862068965517 185.3793103448276 298.3724137931035 Q 185.3793103448276 274.53793103448277 199.50344827586207 256 Q 212.7448275862069 238.3448275862069 234.81379310344826 231.28275862068966 L 234.81379310344826 135.94482758620688 L 234.81379310344826 135.94482758620688 L 234.81379310344826 51.2 L 234.81379310344826 51.2 Z M 256 326.62068965517244 Q 268.3586206896552 326.62068965517244 276.3034482758621 318.6758620689655 L 276.3034482758621 318.6758620689655 L 276.3034482758621 318.6758620689655 Q 284.24827586206897 310.7310344827586 284.24827586206897 298.3724137931035 Q 284.24827586206897 286.0137931034483 276.3034482758621 278.0689655172414 Q 268.3586206896552 270.1241379310345 256 270.1241379310345 Q 243.64137931034483 270.1241379310345 235.69655172413792 278.0689655172414 Q 227.75172413793103 286.0137931034483 227.75172413793103 298.3724137931035 Q 227.75172413793103 310.7310344827586 235.69655172413792 318.6758620689655 Q 243.64137931034483 326.62068965517244 256 326.62068965517244 L 256 326.62068965517244 Z M 100.63448275862069 282.48275862068965 Q 125.35172413793103 304.55172413793105 158.01379310344828 311.6137931034483 Q 161.5448275862069 335.44827586206895 174.78620689655173 354.8689655172414 Q 173.90344827586208 354.8689655172414 173.02068965517242 354.8689655172414 Q 172.13793103448276 354.8689655172414 171.2551724137931 354.8689655172414 Q 124.46896551724137 353.1034482758621 86.51034482758621 324.8551724137931 Q 66.20689655172414 340.7448275862069 27.36551724137931 352.2206896551724 Q 7.944827586206896 354.8689655172414 1.7655172413793103 336.33103448275864 Q 0 316.9103448275862 18.53793103448276 310.7310344827586 Q 48.55172413793103 302.78620689655173 72.38620689655173 282.48275862068965 Q 86.51034482758621 271.88965517241377 100.63448275862069 282.48275862068965 L 100.63448275862069 282.48275862068965 Z M 340.7448275862069 354.8689655172414 Q 338.9793103448276 354.8689655172414 337.21379310344827 354.8689655172414 Q 350.4551724137931 335.44827586206895 353.9862068965517 311.6137931034483 Q 386.64827586206894 304.55172413793105 411.36551724137934 282.48275862068965 Q 425.4896551724138 271.88965517241377 439.6137931034483 282.48275862068965 Q 463.44827586206895 302.78620689655173 493.46206896551723 310.7310344827586 Q 512 316.9103448275862 510.2344827586207 336.33103448275864 Q 504.0551724137931 354.8689655172414 484.63448275862066 352.2206896551724 Q 445.7931034482759 340.7448275862069 425.4896551724138 324.8551724137931 Q 387.5310344827586 353.1034482758621 340.7448275862069 354.8689655172414 L 340.7448275862069 354.8689655172414 Z M 100.63448275862069 409.6 Q 114.75862068965517 421.95862068965516 133.29655172413794 430.78620689655173 L 133.29655172413794 430.78620689655173 L 133.29655172413794 430.78620689655173 Q 151.83448275862068 439.6137931034483 171.2551724137931 439.6137931034483 Q 190.67586206896553 439.6137931034483 209.21379310344827 430.78620689655173 Q 227.75172413793103 421.95862068965516 241.87586206896552 409.6 Q 256 399.00689655172414 270.1241379310345 409.6 Q 284.24827586206897 421.95862068965516 302.78620689655173 430.78620689655173 Q 321.3241379310345 439.6137931034483 340.7448275862069 439.6137931034483 Q 360.1655172413793 439.6137931034483 378.70344827586206 430.78620689655173 Q 396.3586206896552 421.95862068965516 411.36551724137934 409.6 Q 425.4896551724138 399.00689655172414 439.6137931034483 409.6 Q 463.44827586206895 430.78620689655173 493.46206896551723 437.848275862069 Q 512 444.02758620689656 509.35172413793106 463.44827586206895 Q 504.0551724137931 481.9862068965517 484.63448275862066 479.3379310344828 Q 445.7931034482759 467.86206896551727 425.4896551724138 451.97241379310344 Q 387.5310344827586 480.2206896551724 340.7448275862069 481.9862068965517 Q 293.95862068965516 480.2206896551724 256 451.97241379310344 Q 218.04137931034484 480.2206896551724 171.2551724137931 481.9862068965517 Q 124.46896551724137 480.2206896551724 86.51034482758621 451.97241379310344 Q 66.20689655172414 467.86206896551727 27.36551724137931 479.3379310344828 Q 7.944827586206896 481.9862068965517 1.7655172413793103 463.44827586206895 Q 0 444.02758620689656 18.53793103448276 437.848275862069 Q 48.55172413793103 429.90344827586205 72.38620689655173 409.6 Q 86.51034482758621 399.00689655172414 100.63448275862069 409.6 L 100.63448275862069 409.6 Z" />
</svg>