<svg xmlns="http://www.w3.org/2000/svg" viewBox="0 0 512 512">
  <path d="M 284 148.8 Q 303.2 168 328.8 158.4 Q 339.2 153.6 352 153.6 Q 376.8 154.4 392.8 170.4 Q 408.8 186.4 409.6 211.2 Q 409.6 216 408.8 220.8 Q 407.2 233.6 412.8 244.8 Q 419.2 256 431.2 261.6 Q 450.4 270.4 461.6 287.2 Q 473.6 304.8 473.6 326.4 Q 472.8 355.2 454.4 374.4 Q 436 394.4 407.2 396.8 Q 406.4 396.8 405.6 396.8 L 403.2 396.8 L 115.2 396.8 Q 82.4 396 60.8 374.4 Q 39.2 352.8 38.4 320 Q 38.4 294.4 52.8 275.2 Q 66.4 256 89.6 248 Q 113.6 237.6 115.2 211.2 L 115.2 211.2 L 115.2 211.2 L 115.2 211.2 L 115.2 211.2 L 115.2 211.2 L 115.2 211.2 Q 116 170.4 143.2 143.2 Q 170.4 116 211.2 115.2 Q 256 116.8 284 148.8 L 284 148.8 Z M 409.6 435.2 L 409.6 435.2 L 409.6 435.2 L 409.6 435.2 Q 453.6 431.2 482.4 401.6 Q 511.2 371.2 512 326.4 Q 511.2 292.8 493.6 266.4 Q 476 240 447.2 226.4 Q 448 219.2 448 211.2 Q 447.2 170.4 420 143.2 Q 392.8 116 352 115.2 Q 331.2 115.2 312.8 123.2 Q 294.4 101.6 268 89.6 Q 241.6 76.8 211.2 76.8 Q 154.4 78.4 116 116 Q 78.4 154.4 76.8 211.2 L 76.8 211.2 L 76.8 211.2 Q 42.4 224 21.6 252.8 Q 0.8 281.6 0 320 Q 1.6 368.8 33.6 401.6 Q 66.4 433.6 115.2 435.2 L 371.2 435.2 L 409.6 435.2 Z M 191.2 216.8 Q 180 230.4 191.2 244 L 228.8 281.6 L 228.8 281.6 L 191.2 319.2 L 191.2 319.2 Q 180 332.8 191.2 346.4 Q 204.8 357.6 218.4 346.4 L 256 308.8 L 256 308.8 L 293.6 346.4 L 293.6 346.4 Q 307.2 357.6 320.8 346.4 Q 332 332.8 320.8 319.2 L 283.2 281.6 L 283.2 281.6 L 320.8 244 L 320.8 244 Q 332 230.4 320.8 216.8 Q 307.2 205.6 293.6 216.8 L 256 254.4 L 256 254.4 L 218.4 216.8 L 218.4 216.8 Q 204.8 205.6 191.2 216.8 L 191.2 216.8 Z" />
</svg>