<svg xmlns="http://www.w3.org/2000/svg" viewBox="0 0 576 480">
    <path d="M 64 48 L 384 48 Q 399 49 400 64 L 400 148 Q 421 133 448 129 L 448 64 Q 447 37 429 19 Q 411 1 384 0 L 64 0 Q 37 1 19 19 Q 1 37 0 64 L 0 384 Q 1 411 19 429 Q 37 447 64 448 L 320 448 L 320 400 L 64 400 Q 49 399 48 384 L 48 64 Q 49 49 64 48 L 64 48 Z M 246 110 Q 239 97 224 96 Q 209 97 202 110 L 106 318 Q 99 339 118 350 Q 139 357 150 338 L 162 312 L 286 312 L 298 338 Q 305 352 320 352 L 320 320 Q 320 303 328 289 L 246 110 L 246 110 Z M 224 177 L 264 264 L 184 264 L 224 177 L 224 177 Z M 464 208 Q 478 208 487 217 L 487 217 Q 496 226 496 240 L 496 288 L 432 288 L 432 240 Q 432 226 441 217 Q 450 208 464 208 L 464 208 Z M 384 240 L 384 288 Q 370 288 361 297 Q 352 306 352 320 L 352 448 Q 352 462 361 471 Q 370 480 384 480 L 544 480 Q 558 480 567 471 Q 576 462 576 448 L 576 320 Q 576 306 567 297 Q 558 288 544 288 L 544 240 Q 543 206 521 183 Q 498 161 464 160 Q 430 161 407 183 Q 385 206 384 240 L 384 240 Z"/>
</svg>
