<svg xmlns="http://www.w3.org/2000/svg" viewBox="0 0 384 512">
    <path d="M 192 0 Q 178 1 171 13 Q 165 25 172 37 L 183 54 Q 184 55 184 57 Q 183 63 177 64 L 140 64 Q 108 65 86 86 Q 65 108 64 140 Q 64 148 66 156 Q 37 165 19 189 Q 1 212 0 244 Q 0 270 13 292 Q 26 313 48 325 L 48 352 Q 48 366 57 375 Q 66 384 80 384 L 82 384 L 93 484 Q 98 510 125 512 L 259 512 Q 286 510 291 484 L 302 384 L 304 384 Q 318 384 327 375 Q 336 366 336 352 L 336 325 Q 358 313 371 292 Q 384 270 384 244 Q 383 212 365 188 Q 347 164 318 156 Q 320 146 320 136 L 320 128 Q 319 74 283 37 Q 246 1 192 0 L 192 0 Z M 292 288 L 92 288 Q 73 288 61 275 Q 48 263 48 244 Q 48 225 61 213 Q 73 200 92 200 L 96 200 L 103 200 L 112 200 Q 134 198 136 176 Q 134 156 115 152 Q 112 147 112 140 Q 112 128 120 120 Q 128 112 140 112 L 177 112 Q 200 111 215 96 Q 231 81 232 59 Q 270 82 272 128 L 272 136 Q 272 145 268 152 L 216 152 Q 194 154 192 176 Q 194 198 216 200 L 279 200 L 288 200 L 292 200 Q 311 200 323 213 Q 336 225 336 244 Q 336 263 323 275 Q 311 288 292 288 L 292 288 Z"/>
</svg>
