<svg xmlns="http://www.w3.org/2000/svg" viewBox="0 0 523 458">
    <path d="M 406 0 Q 433 1 448 24 Q 460 48 448 72 Q 433 95 406 96 Q 379 95 364 72 Q 352 48 364 24 Q 379 1 406 0 L 406 0 Z M 134 120 Q 136 98 158 96 L 327 96 Q 355 98 364 121 Q 374 143 356 164 L 288 232 L 350 232 Q 367 232 378 244 Q 390 255 390 272 L 390 352 Q 390 364 381 371 L 425 394 Q 446 404 468 394 L 483 386 Q 504 379 516 397 Q 523 418 505 429 L 490 437 Q 446 458 402 436 L 19 237 Q 0 225 9 205 Q 21 186 41 195 L 165 259 Q 158 240 174 224 L 265 144 L 158 144 Q 136 142 134 120 L 134 120 Z M 342 280 L 205 280 L 342 351 L 342 280 L 342 280 Z"/>
</svg>
