<svg xmlns="http://www.w3.org/2000/svg" viewBox="0 0 512 512">
  <path d="M 256 13.811175 Q 240.2158 0 224.4316 13.811175 L 97.171486 133.17918 L 97.171486 133.17918 Q 82.373795 146.99037 82.373795 166.72061 Q 82.373795 185.46436 96.184975 198.28902 Q 109.009636 212.10019 127.75337 212.10019 L 169.1869 212.10019 L 169.1869 212.10019 L 169.1869 354.158 L 169.1869 354.158 Q 171.15993 421.24084 215.553 465.6339 Q 259.94604 510.02698 327.0289 512 L 374.3815 512 L 374.3815 512 Q 398.0578 511.0135 413.842 496.2158 Q 428.63968 480.4316 429.6262 456.7553 L 429.6262 425.1869 L 429.6262 425.1869 Q 428.63968 401.5106 413.842 385.7264 Q 398.0578 370.9287 374.3815 369.9422 L 319.1368 369.9422 L 319.1368 369.9422 Q 312.2312 368.9557 311.2447 362.0501 L 311.2447 212.10019 L 311.2447 212.10019 L 352.67822 212.10019 L 352.67822 212.10019 Q 371.42197 212.10019 384.24664 198.28902 Q 398.0578 185.46436 398.0578 166.72061 Q 398.0578 146.99037 383.2601 133.17918 L 256 13.811175 L 256 13.811175 Z M 347.74567 164.74759 L 287.5684 164.74759 L 347.74567 164.74759 L 287.5684 164.74759 Q 265.8651 166.72061 263.8921 188.42389 L 263.8921 362.0501 L 263.8921 362.0501 Q 264.8786 385.7264 279.6763 401.5106 Q 295.4605 416.3083 319.1368 417.2948 L 374.3815 417.2948 L 374.3815 417.2948 Q 381.28708 418.2813 382.2736 425.1869 L 382.2736 456.7553 L 382.2736 456.7553 Q 381.28708 463.6609 374.3815 464.6474 L 327.0289 464.6474 L 327.0289 464.6474 Q 279.6763 463.6609 249.0944 432.0925 Q 217.52602 401.5106 216.5395 354.158 L 216.5395 188.42389 L 216.5395 188.42389 Q 214.56647 166.72061 192.8632 164.74759 L 132.68593 164.74759 L 132.68593 164.74759 L 240.2158 63.136803 L 240.2158 63.136803 L 348.73218 164.74759 L 347.74567 164.74759 Z" />
</svg>