<svg xmlns="http://www.w3.org/2000/svg" viewBox="0 0 512 512">
  <path d="M 110.21526418786692 469.9178082191781 L 14.027397260273972 373.72994129158513 L 110.21526418786692 469.9178082191781 L 14.027397260273972 373.72994129158513 Q 0 356.69667318982385 14.027397260273972 339.66340508806263 Q 31.060665362035223 325.63600782778866 48.093933463796475 339.66340508806263 L 103.20156555772994 394.77103718199606 L 103.20156555772994 394.77103718199606 L 103.20156555772994 52.10176125244618 L 103.20156555772994 52.10176125244618 Q 105.20547945205479 30.058708414872797 127.24853228962817 28.054794520547944 Q 149.29158512720156 30.058708414872797 151.2954990215264 52.10176125244618 L 151.2954990215264 394.77103718199606 L 151.2954990215264 394.77103718199606 L 206.40313111545987 339.66340508806263 L 206.40313111545987 339.66340508806263 Q 223.43639921722112 325.63600782778866 240.46966731898237 339.66340508806263 Q 254.49706457925635 356.69667318982385 240.46966731898237 373.72994129158513 L 144.28180039138942 469.9178082191781 L 144.28180039138942 469.9178082191781 Q 127.24853228962817 483.94520547945206 110.21526418786692 469.9178082191781 L 110.21526418786692 469.9178082191781 Z M 335.6555772994129 364.71232876712327 L 335.6555772994129 428.83757338551857 L 335.6555772994129 364.71232876712327 L 335.6555772994129 428.83757338551857 L 399.7808219178082 428.83757338551857 L 399.7808219178082 428.83757338551857 L 399.7808219178082 364.71232876712327 L 399.7808219178082 364.71232876712327 L 335.6555772994129 364.71232876712327 L 335.6555772994129 364.71232876712327 Z M 287.56164383561645 364.71232876712327 Q 288.56360078277885 344.67318982387474 301.5890410958904 330.64579256360076 L 301.5890410958904 330.64579256360076 L 301.5890410958904 330.64579256360076 Q 315.6164383561644 317.62035225048925 335.6555772994129 316.6183953033268 L 399.7808219178082 316.6183953033268 L 399.7808219178082 316.6183953033268 Q 419.81996086105676 317.62035225048925 433.8473581213307 330.64579256360076 Q 446.87279843444225 344.67318982387474 447.8747553816047 364.71232876712327 L 447.8747553816047 428.83757338551857 L 447.8747553816047 428.83757338551857 Q 446.87279843444225 448.8767123287671 433.8473581213307 462.90410958904107 Q 419.81996086105676 475.92954990215264 399.7808219178082 476.93150684931504 L 335.6555772994129 476.93150684931504 L 335.6555772994129 476.93150684931504 Q 315.6164383561644 475.92954990215264 301.5890410958904 462.90410958904107 Q 288.56360078277885 448.8767123287671 287.56164383561645 428.83757338551857 L 287.56164383561645 364.71232876712327 L 287.56164383561645 364.71232876712327 Z M 335.6555772994129 204.39921722113502 L 463.9060665362035 204.39921722113502 L 335.6555772994129 204.39921722113502 L 463.9060665362035 204.39921722113502 L 463.9060665362035 76.14872798434442 L 463.9060665362035 76.14872798434442 L 335.6555772994129 76.14872798434442 L 335.6555772994129 76.14872798434442 L 335.6555772994129 204.39921722113502 L 335.6555772994129 204.39921722113502 Z M 287.56164383561645 204.39921722113502 L 287.56164383561645 76.14872798434442 L 287.56164383561645 204.39921722113502 L 287.56164383561645 76.14872798434442 Q 288.56360078277885 56.10958904109589 301.5890410958904 42.082191780821915 Q 315.6164383561644 29.05675146771037 335.6555772994129 28.054794520547944 L 463.9060665362035 28.054794520547944 L 463.9060665362035 28.054794520547944 Q 483.94520547945206 29.05675146771037 497.972602739726 42.082191780821915 Q 510.99804305283755 56.10958904109589 512 76.14872798434442 L 512 204.39921722113502 L 512 204.39921722113502 Q 510.99804305283755 224.43835616438355 497.972602739726 238.46575342465752 Q 483.94520547945206 251.49119373776907 463.9060665362035 252.4931506849315 L 335.6555772994129 252.4931506849315 L 335.6555772994129 252.4931506849315 Q 315.6164383561644 251.49119373776907 301.5890410958904 238.46575342465752 Q 288.56360078277885 224.43835616438355 287.56164383561645 204.39921722113502 L 287.56164383561645 204.39921722113502 Z" />
</svg>