<svg xmlns="http://www.w3.org/2000/svg" viewBox="0 0 580 519">
    <path d="M 290 359 Q 312 357 314 335 L 314 89 L 353 128 Q 370 142 387 128 Q 401 111 387 94 L 307 14 Q 290 0 273 14 L 193 94 Q 179 111 193 128 Q 210 142 227 128 L 266 89 L 266 335 Q 268 357 290 359 L 290 359 Z M 82 437 Q 55 460 21 469 Q 0 476 3 498 Q 9 519 31 516 Q 75 503 98 485 Q 141 517 194 519 Q 247 517 290 485 Q 333 517 386 519 Q 439 517 482 485 Q 505 503 549 516 Q 571 518 577 497 Q 580 475 559 469 Q 525 460 498 437 Q 482 425 466 437 Q 450 451 429 461 Q 408 470 386 471 Q 364 470 343 461 Q 322 451 306 437 Q 290 425 274 437 Q 258 451 237 461 Q 216 470 194 471 Q 172 470 151 461 Q 131 451 114 437 Q 98 425 82 437 L 82 437 Z M 194 199 L 66 199 Q 39 200 21 218 Q 3 236 2 263 L 2 432 Q 10 427 20 425 Q 36 421 50 412 L 50 263 Q 51 248 66 247 L 194 247 L 194 199 L 194 199 Z M 578 263 Q 577 236 559 218 L 559 218 Q 541 200 514 199 L 386 199 L 386 247 L 514 247 Q 529 248 530 263 L 530 412 Q 544 421 561 425 Q 570 427 578 432 L 578 263 L 578 263 Z"/>
</svg>
