<svg xmlns="http://www.w3.org/2000/svg" viewBox="0 0 512 512">
  <path d="M 256 32 Q 188 34 143 79 L 143 79 L 143 79 Q 98 124 96 192 L 96 208 L 96 208 Q 95 223 80 224 Q 65 223 64 208 L 64 192 L 64 192 Q 66 110 120 56 Q 174 2 256 0 Q 338 2 392 56 Q 446 110 448 192 L 448 208 L 448 208 Q 447 256 415 287 Q 384 319 336 320 L 272 320 L 240 320 Q 226 320 217 311 Q 208 302 208 288 Q 208 274 217 265 Q 226 256 240 256 L 272 256 L 272 256 Q 286 256 295 265 Q 304 274 304 288 L 336 288 L 336 288 Q 370 287 393 265 Q 415 242 416 208 L 416 192 L 416 192 Q 414 124 369 79 Q 324 34 256 32 L 256 32 Z M 256 64 Q 310 65 347 101 L 347 101 L 347 101 Q 383 138 384 192 Q 384 213 378 232 Q 364 255 336 256 L 327 256 L 327 256 Q 323 249 318 243 Q 335 222 336 192 Q 335 158 313 135 Q 290 113 256 112 Q 222 113 199 135 Q 177 158 176 192 Q 177 222 194 243 Q 177 261 176 288 Q 176 290 176 292 Q 130 255 128 192 Q 129 138 165 101 Q 202 65 256 64 L 256 64 Z M 240 352 L 256 352 L 240 352 L 346 352 Q 403 353 441 391 Q 479 429 480 486 Q 478 510 454 512 L 58 512 L 58 512 Q 34 510 32 486 Q 33 429 71 391 Q 109 353 166 352 L 183 352 L 240 352 Z M 346 400 L 166 400 L 346 400 L 166 400 Q 136 401 113 418 Q 91 436 83 464 L 429 464 L 429 464 Q 421 436 399 418 Q 376 401 346 400 L 346 400 Z" />
</svg>