<svg xmlns="http://www.w3.org/2000/svg" viewBox="0 0 512 448">
    <path d="M 272 112 L 376 112 Q 424 111 462 87 Q 464 105 464 125 Q 463 197 436 251 Q 409 306 366 336 Q 322 367 273 368 L 273 368 L 272 368 L 272 368 Q 218 367 181 331 Q 145 294 144 240 Q 145 186 181 149 Q 218 113 272 112 L 272 112 Z M 451 36 Q 420 63 376 64 L 272 64 Q 200 66 152 112 Q 103 158 96 228 Q 52 258 26 304 Q 1 351 0 408 L 0 424 Q 2 446 24 448 Q 46 446 48 424 L 48 408 Q 50 333 102 285 Q 118 343 164 379 Q 210 415 272 416 L 273 416 Q 340 415 394 376 Q 448 337 479 271 Q 511 206 512 125 Q 512 85 504 48 Q 503 47 503 45 Q 503 44 502 43 Q 499 29 495 16 Q 493 10 491 5 Q 489 0 483 0 Q 478 0 475 5 Q 473 9 470 13 Q 463 24 453 34 Q 452 35 451 35 Q 451 35 451 36 L 451 36 Z M 190 211 Q 190 233 206 249 L 277 318 Q 288 327 299 318 L 370 249 Q 386 233 386 211 Q 386 188 371 173 Q 355 158 333 157 L 331 157 Q 309 158 293 173 L 288 178 L 283 173 Q 267 158 245 157 L 243 157 Q 220 158 205 173 Q 190 188 190 211 L 190 211 Z"/>
</svg>
