<svg xmlns="http://www.w3.org/2000/svg" viewBox="0 0 590 518">
    <path d="M 280 12 Q 295 0 311 12 L 575 236 Q 590 251 577 270 Q 562 285 544 272 L 519 252 L 519 438 Q 518 472 496 495 Q 473 517 439 518 L 151 518 Q 117 517 94 495 Q 72 472 71 438 L 71 252 L 47 272 Q 28 285 13 270 Q 0 251 16 236 L 280 12 L 280 12 Z M 119 211 L 119 438 Q 119 452 128 461 Q 137 470 151 470 L 439 470 Q 453 470 462 461 Q 471 452 471 438 L 471 211 L 295 62 L 119 211 L 119 211 Z M 231 230 Q 232 194 263 175 Q 295 157 327 175 Q 358 194 359 230 Q 358 266 327 285 Q 295 303 263 285 Q 232 266 231 230 L 231 230 Z M 263 326 L 327 326 Q 361 327 384 349 Q 406 372 407 406 Q 406 421 391 422 L 199 422 Q 184 421 183 406 Q 184 372 206 349 Q 229 327 263 326 L 263 326 Z"/>
</svg>
