<svg xmlns="http://www.w3.org/2000/svg" viewBox="0 0 496 384">
    <path d="M 0 360 Q 2 382 24 384 Q 46 382 48 360 L 48 224 L 223 377 Q 231 384 242 384 Q 255 384 263 375 Q 272 367 272 354 L 272 224 L 447 377 Q 455 384 466 384 Q 479 384 487 375 Q 496 367 496 354 L 496 30 Q 496 17 487 9 Q 479 0 466 0 Q 455 0 447 7 L 272 160 L 272 30 Q 272 17 263 9 Q 255 0 242 0 Q 231 0 223 7 L 48 160 L 48 24 Q 46 2 24 0 Q 2 2 0 24 L 0 360 L 0 360 Z M 448 70 L 448 314 L 308 192 L 448 70 L 448 70 Z M 224 314 L 84 192 L 224 70 L 224 314 L 224 314 Z"/>
</svg>
