<svg xmlns="http://www.w3.org/2000/svg" viewBox="0 0 512 512">
  <path d="M 240 304 Q 226 304 217 295 L 217 295 L 217 295 Q 208 286 208 272 L 208 176 L 208 176 Q 209 122 245 85 Q 282 49 336 48 Q 390 49 427 85 Q 463 122 464 176 Q 463 230 427 267 Q 390 303 336 304 L 240 304 L 240 304 Z M 203 382 Q 210 371 220 362 L 220 362 L 220 362 Q 231 353 244 352 L 336 352 L 336 352 Q 411 350 460 300 Q 510 251 512 176 Q 510 101 460 52 Q 411 2 336 0 Q 261 2 212 52 Q 162 101 160 176 L 160 268 L 160 268 Q 159 281 150 292 Q 141 302 130 310 Q 126 312 123 315 Q 114 324 101 325 Q 88 326 75 322 Q 68 320 60 320 Q 34 321 17 338 Q 1 355 0 380 Q 1 405 17 422 Q 34 439 60 440 Q 71 441 72 452 Q 73 477 89 494 Q 106 511 132 512 Q 157 511 174 494 Q 191 477 192 452 Q 192 444 190 437 Q 186 424 187 411 Q 188 398 197 389 Q 200 385 202 382 L 203 382 Z" />
</svg>