<svg xmlns="http://www.w3.org/2000/svg" viewBox="0 0 384 513">
    <path d="M 80 0 Q 107 1 122 24 Q 134 48 122 72 Q 107 95 80 96 Q 53 95 38 72 Q 26 48 38 24 Q 53 1 80 0 L 80 0 Z M 0 488 L 0 340 Q 0 341 1 341 Q 1 341 2 342 L 48 378 L 48 488 Q 46 510 24 512 Q 2 510 0 488 L 0 488 Z M 59 176 Q 49 177 48 187 L 48 273 Q 48 276 51 279 L 72 295 L 72 179 Q 66 176 59 176 L 59 176 Z M 120 246 L 120 333 L 146 353 Q 158 363 161 379 L 176 485 Q 177 507 155 512 Q 133 513 128 491 L 114 389 L 21 317 Q 1 299 0 272 L 0 187 Q 1 162 17 145 Q 34 129 59 128 Q 100 129 124 163 L 173 240 L 192 240 L 192 128 Q 192 114 201 105 Q 210 96 224 96 L 352 96 Q 366 96 375 105 Q 384 114 384 128 L 384 256 Q 384 270 375 279 Q 366 288 352 288 L 232 288 L 224 288 L 169 288 Q 147 287 135 270 L 120 246 L 120 246 Z M 240 240 L 336 240 L 336 144 L 240 144 L 240 240 L 240 240 Z"/>
</svg>
