<svg xmlns="http://www.w3.org/2000/svg" viewBox="0 0 512 512">
  <path d="M 455.1111111111111 99.55555555555556 Q 468.44444444444446 100.44444444444444 469.3333333333333 113.77777777777777 L 469.3333333333333 398.22222222222223 L 469.3333333333333 398.22222222222223 Q 468.44444444444446 411.55555555555554 455.1111111111111 412.44444444444446 L 419.55555555555554 412.44444444444446 L 419.55555555555554 412.44444444444446 L 396.44444444444446 358.22222222222223 L 396.44444444444446 358.22222222222223 Q 383.1111111111111 328.8888888888889 351.1111111111111 327.1111111111111 L 160.88888888888889 327.1111111111111 L 160.88888888888889 327.1111111111111 Q 128.88888888888889 328.8888888888889 115.55555555555556 358.22222222222223 L 92.44444444444444 412.44444444444446 L 92.44444444444444 412.44444444444446 L 56.888888888888886 412.44444444444446 L 56.888888888888886 412.44444444444446 Q 43.55555555555556 411.55555555555554 42.666666666666664 398.22222222222223 L 42.666666666666664 113.77777777777777 L 42.666666666666664 113.77777777777777 Q 43.55555555555556 100.44444444444444 56.888888888888886 99.55555555555556 L 455.1111111111111 99.55555555555556 L 455.1111111111111 99.55555555555556 Z M 373.3333333333333 412.44444444444446 L 138.66666666666666 412.44444444444446 L 373.3333333333333 412.44444444444446 L 138.66666666666666 412.44444444444446 L 154.66666666666666 374.22222222222223 L 154.66666666666666 374.22222222222223 Q 156.44444444444446 369.77777777777777 160.88888888888889 369.77777777777777 L 351.1111111111111 369.77777777777777 L 351.1111111111111 369.77777777777777 Q 355.55555555555554 369.77777777777777 357.3333333333333 374.22222222222223 L 373.3333333333333 412.44444444444446 L 373.3333333333333 412.44444444444446 Z M 56.888888888888886 56.888888888888886 Q 32.888888888888886 57.77777777777778 16.88888888888889 73.77777777777777 L 16.88888888888889 73.77777777777777 L 16.88888888888889 73.77777777777777 Q 0.8888888888888888 89.77777777777777 0 113.77777777777777 L 0 398.22222222222223 L 0 398.22222222222223 Q 0.8888888888888888 422.22222222222223 16.88888888888889 438.22222222222223 Q 32.888888888888886 454.22222222222223 56.888888888888886 455.1111111111111 L 455.1111111111111 455.1111111111111 L 455.1111111111111 455.1111111111111 Q 479.1111111111111 454.22222222222223 495.1111111111111 438.22222222222223 Q 511.1111111111111 422.22222222222223 512 398.22222222222223 L 512 113.77777777777777 L 512 113.77777777777777 Q 511.1111111111111 89.77777777777777 495.1111111111111 73.77777777777777 Q 479.1111111111111 57.77777777777778 455.1111111111111 56.888888888888886 L 56.888888888888886 56.888888888888886 L 56.888888888888886 56.888888888888886 Z M 156.44444444444446 213.33333333333334 Q 169.77777777777777 214.22222222222223 170.66666666666666 227.55555555555554 Q 169.77777777777777 240.88888888888889 156.44444444444446 241.77777777777777 Q 143.11111111111111 240.88888888888889 142.22222222222223 227.55555555555554 Q 143.11111111111111 214.22222222222223 156.44444444444446 213.33333333333334 L 156.44444444444446 213.33333333333334 Z M 213.33333333333334 227.55555555555554 Q 213.33333333333334 220.44444444444446 211.55555555555554 213.33333333333334 L 300.44444444444446 213.33333333333334 L 300.44444444444446 213.33333333333334 Q 298.6666666666667 220.44444444444446 298.6666666666667 227.55555555555554 Q 298.6666666666667 234.66666666666666 300.44444444444446 241.77777777777777 L 211.55555555555554 241.77777777777777 L 211.55555555555554 241.77777777777777 Q 213.33333333333334 234.66666666666666 213.33333333333334 227.55555555555554 L 213.33333333333334 227.55555555555554 Z M 412.44444444444446 227.55555555555554 Q 411.55555555555554 203.55555555555554 395.55555555555554 187.55555555555554 L 395.55555555555554 187.55555555555554 L 395.55555555555554 187.55555555555554 Q 379.55555555555554 171.55555555555554 355.55555555555554 170.66666666666666 L 156.44444444444446 170.66666666666666 L 156.44444444444446 170.66666666666666 Q 132.44444444444446 171.55555555555554 116.44444444444444 187.55555555555554 Q 100.44444444444444 203.55555555555554 99.55555555555556 227.55555555555554 Q 100.44444444444444 251.55555555555554 116.44444444444444 267.55555555555554 Q 132.44444444444446 283.55555555555554 156.44444444444446 284.44444444444446 L 355.55555555555554 284.44444444444446 L 355.55555555555554 284.44444444444446 Q 379.55555555555554 283.55555555555554 395.55555555555554 267.55555555555554 Q 411.55555555555554 251.55555555555554 412.44444444444446 227.55555555555554 L 412.44444444444446 227.55555555555554 Z M 341.3333333333333 227.55555555555554 Q 342.22222222222223 214.22222222222223 355.55555555555554 213.33333333333334 Q 368.8888888888889 214.22222222222223 369.77777777777777 227.55555555555554 Q 368.8888888888889 240.88888888888889 355.55555555555554 241.77777777777777 Q 342.22222222222223 240.88888888888889 341.3333333333333 227.55555555555554 L 341.3333333333333 227.55555555555554 Z" />
</svg>