<svg xmlns="http://www.w3.org/2000/svg" viewBox="0 0 512 512">
  <path d="M 54.857143 128 L 54.857143 278.85715 L 54.857143 128 L 54.857143 278.85715 Q 86.85714 257.14285 128 256 L 434.2857 256 L 434.2857 256 Q 446.85715 256 457.14285 259.42856 L 457.14285 128 L 457.14285 128 Q 456 97.14286 435.42856 76.57143 Q 414.85715 56 384 54.857143 L 128 54.857143 L 128 54.857143 Q 97.14286 56 76.57143 76.57143 Q 56 97.14286 54.857143 128 L 54.857143 128 Z M 0 384 L 0 128 L 0 384 L 0 128 Q 1.1428572 73.14286 37.714287 37.714287 Q 73.14286 1.1428572 128 0 L 384 0 L 384 0 Q 438.85715 1.1428572 474.2857 37.714287 Q 510.85715 73.14286 512 128 L 512 329.14285 L 512 329.14285 L 512 329.14285 L 512 329.14285 Q 512 331.42856 512 333.7143 Q 510.85715 366.85715 489.14285 388.57144 Q 467.42856 410.2857 434.2857 411.42856 L 137.14285 411.42856 L 137.14285 411.42856 Q 112 409.14285 109.71429 384 Q 112 358.85715 137.14285 356.57144 L 434.2857 356.57144 L 434.2857 356.57144 Q 454.85715 354.2857 457.14285 333.7143 Q 454.85715 313.14285 434.2857 310.85715 L 128 310.85715 L 128 310.85715 Q 97.14286 312 76.57143 332.57144 Q 56 353.14285 54.857143 384 Q 56 414.85715 76.57143 435.42856 Q 97.14286 456 128 457.14285 L 484.57144 457.14285 L 484.57144 457.14285 Q 509.7143 459.42856 512 484.57144 Q 509.7143 509.7143 484.57144 512 L 128 512 L 128 512 Q 73.14286 510.85715 37.714287 474.2857 Q 1.1428572 438.85715 0 384 L 0 384 Z" />
</svg>