<svg xmlns="http://www.w3.org/2000/svg" viewBox="0 0 579 525">
    <path d="M 296 191 L 296 89 L 273 112 Q 256 126 239 112 Q 225 95 239 78 L 303 14 Q 320 0 337 14 L 401 78 Q 415 95 401 112 Q 384 126 367 112 L 344 89 L 344 191 Q 342 213 320 215 Q 298 213 296 191 L 296 191 Z M 0 31 Q 2 9 24 7 L 70 7 Q 90 7 105 20 Q 120 32 125 53 L 162 247 L 459 247 Q 477 246 482 229 L 529 57 Q 536 36 558 40 Q 579 48 575 69 L 529 242 Q 522 266 503 280 Q 484 295 459 295 L 171 295 L 176 324 Q 181 342 200 343 L 488 343 Q 510 345 512 367 Q 510 389 488 391 L 200 391 Q 173 391 154 374 Q 134 358 129 333 L 77 62 Q 76 55 70 55 L 24 55 Q 2 53 0 31 L 0 31 Z M 128 471 Q 129 444 152 429 Q 176 417 200 429 Q 223 444 224 471 Q 223 498 200 513 Q 176 525 152 513 Q 129 498 128 471 L 128 471 Z M 464 423 Q 491 424 506 447 Q 518 471 506 495 Q 491 518 464 519 Q 437 518 422 495 Q 410 471 422 447 Q 437 424 464 423 L 464 423 Z"/>
</svg>
