<svg xmlns="http://www.w3.org/2000/svg" viewBox="0 0 512 512">
  <path d="M 482.66666 56.88889 Q 486.22223 40 470.22223 32 Q 454.22223 26.666666 443.55554 40.88889 L 306.66666 273.77777 L 306.66666 273.77777 L 276.44446 160 L 276.44446 160 Q 272 144.88889 256 144 Q 240 144.88889 235.55556 160 L 201.77777 287.1111 L 201.77777 287.1111 L 128.88889 214.22223 L 128.88889 214.22223 Q 117.333336 203.55556 103.111115 210.66667 Q 89.77778 219.55556 93.333336 234.66667 L 114.666664 320 L 114.666664 320 L 51.555557 314.66666 L 51.555557 314.66666 Q 38.22222 314.66666 31.11111 325.33334 Q 24.88889 336.8889 32 348.44446 L 78.22222 414.22223 L 78.22222 414.22223 L 129.77777 414.22223 L 129.77777 414.22223 L 92.44444 360.8889 L 92.44444 360.8889 L 140.44444 364.44446 L 140.44444 364.44446 Q 151.11111 364.44446 158.22223 357.33334 Q 165.33333 348.44446 162.66667 337.77777 L 152.88889 298.66666 L 152.88889 298.66666 L 198.22223 344 L 198.22223 344 Q 207.11111 352 218.66667 349.33334 Q 230.22223 345.77777 233.77777 334.22223 L 256 249.77777 L 256 249.77777 L 278.22223 334.22223 L 278.22223 334.22223 Q 281.77777 347.55554 296 350.22223 Q 309.33334 351.1111 317.33334 339.55554 L 400.8889 197.33333 L 400.8889 197.33333 L 363.55554 337.77777 L 363.55554 337.77777 Q 360.8889 348.44446 368 357.33334 Q 375.1111 365.33334 385.77777 364.44446 L 418.66666 361.77777 L 418.66666 361.77777 L 382.22223 414.22223 L 382.22223 414.22223 L 433.77777 414.22223 L 433.77777 414.22223 L 480 348.44446 L 480 348.44446 Q 487.1111 336.8889 480.8889 325.33334 Q 473.77777 313.77777 460.44446 314.66666 L 412.44446 319.1111 L 412.44446 319.1111 L 482.66666 56.88889 L 482.66666 56.88889 Z M 414.22223 442.66666 L 382.22223 442.66666 L 414.22223 442.66666 L 382.22223 442.66666 L 382.22223 442.66666 L 382.22223 442.66666 L 345.77777 442.66666 L 345.77777 442.66666 Q 337.77777 411.55554 313.77777 392 Q 289.77777 372.44446 256 371.55554 Q 222.22223 372.44446 198.22223 392 Q 174.22223 411.55554 166.22223 442.66666 L 129.77777 442.66666 L 129.77777 442.66666 L 129.77777 442.66666 L 129.77777 442.66666 L 97.77778 442.66666 L 97.77778 442.66666 L 97.77778 442.66666 L 97.77778 442.66666 L 21.333334 442.66666 L 21.333334 442.66666 Q 1.7777778 444.44446 0 464 Q 1.7777778 483.55554 21.333334 485.33334 L 490.66666 485.33334 L 490.66666 485.33334 Q 510.22223 483.55554 512 464 Q 510.22223 444.44446 490.66666 442.66666 L 414.22223 442.66666 L 414.22223 442.66666 L 414.22223 442.66666 L 414.22223 442.66666 Z M 210.66667 442.66666 Q 224.88889 416 256 414.22223 Q 287.1111 416 301.33334 442.66666 L 210.66667 442.66666 L 210.66667 442.66666 Z M 277.33334 51.555557 Q 275.55554 32 256 30.222221 Q 236.44444 32 234.66667 51.555557 L 234.66667 94.22222 L 234.66667 94.22222 Q 236.44444 113.77778 256 115.55556 Q 275.55554 113.77778 277.33334 94.22222 L 277.33334 51.555557 L 277.33334 51.555557 Z" />
</svg>