<svg xmlns="http://www.w3.org/2000/svg" viewBox="0 0 512 512">
  <path d="M 470.48648 12.849421 L 477.4054 37.559845 L 470.48648 12.849421 L 477.4054 37.559845 L 502.11584 44.478764 L 502.11584 44.478764 Q 509.03476 46.455597 509.03476 53.374516 Q 509.03476 60.293438 502.11584 62.27027 L 477.4054 69.189186 L 477.4054 69.189186 L 470.48648 93.89961 L 470.48648 93.89961 Q 468.50964 100.818535 461.59073 100.818535 Q 454.6718 100.818535 452.69498 93.89961 L 445.77606 69.189186 L 445.77606 69.189186 L 421.06564 62.27027 L 421.06564 62.27027 Q 414.14673 60.293438 414.14673 53.374516 Q 414.14673 46.455597 421.06564 44.478764 L 445.77606 37.559845 L 445.77606 37.559845 L 452.69498 12.849421 L 452.69498 12.849421 Q 454.6718 5.930502 461.59073 5.930502 Q 468.50964 5.930502 470.48648 12.849421 L 470.48648 12.849421 Z M 59.30502 76.10811 L 66.22394 100.818535 L 59.30502 76.10811 L 66.22394 100.818535 L 90.934364 107.73745 L 90.934364 107.73745 Q 97.85328 109.71429 97.85328 116.6332 Q 97.85328 123.552124 90.934364 125.52896 L 66.22394 132.44788 L 66.22394 132.44788 L 59.30502 157.1583 L 59.30502 157.1583 Q 57.328186 164.07722 50.409267 164.07722 Q 43.49035 164.07722 41.51351 157.1583 L 34.594593 132.44788 L 34.594593 132.44788 L 9.88417 125.52896 L 9.88417 125.52896 Q 2.965251 123.552124 2.965251 116.6332 Q 2.965251 109.71429 9.88417 107.73745 L 34.594593 100.818535 L 34.594593 100.818535 L 41.51351 76.10811 L 41.51351 76.10811 Q 43.49035 69.189186 50.409267 69.189186 Q 57.328186 69.189186 59.30502 76.10811 L 59.30502 76.10811 Z M 97.85328 488.27798 Q 99.83012 466.5328 121.57529 464.556 L 390.4247 464.556 L 390.4247 464.556 Q 412.1699 466.5328 414.14673 488.27798 Q 412.1699 510.02316 390.4247 512 L 121.57529 512 L 121.57529 512 Q 99.83012 510.02316 97.85328 488.27798 L 97.85328 488.27798 Z M 208.55598 53.374516 Q 209.5444 26.687258 232.278 11.861004 Q 256 0 279.72202 11.861004 Q 302.4556 26.687258 303.444 53.374516 Q 302.4556 80.061775 279.72202 94.88803 Q 256 106.74903 232.278 94.88803 Q 209.5444 80.061775 208.55598 53.374516 L 208.55598 53.374516 Z M 240.18533 322.22394 L 240.18533 432.92664 L 240.18533 322.22394 L 240.18533 432.92664 L 192.74132 432.92664 L 192.74132 432.92664 L 192.74132 212.50966 L 192.74132 212.50966 L 140.35521 281.69885 L 140.35521 281.69885 Q 125.52896 297.51352 107.73745 285.6525 Q 90.934364 270.82626 102.795364 253.03474 L 168.03088 167.04247 L 168.03088 167.04247 Q 193.72974 133.4363 237.22008 132.44788 L 274.77994 132.44788 L 274.77994 132.44788 Q 318.27026 133.4363 343.96912 167.04247 L 409.20462 253.03474 L 409.20462 253.03474 Q 421.06564 270.82626 405.25098 285.6525 Q 386.47104 297.51352 371.64478 281.69885 L 319.2587 212.50966 L 319.2587 212.50966 L 319.2587 432.92664 L 319.2587 432.92664 L 271.81467 432.92664 L 271.81467 432.92664 L 271.81467 322.22394 L 271.81467 322.22394 L 240.18533 322.22394 L 240.18533 322.22394 Z M 240.18533 274.77994 L 271.81467 274.77994 L 240.18533 274.77994 L 271.81467 274.77994 L 271.81467 179.89189 L 271.81467 179.89189 L 240.18533 179.89189 L 240.18533 179.89189 L 240.18533 274.77994 L 240.18533 274.77994 Z" />
</svg>