<svg xmlns="http://www.w3.org/2000/svg" viewBox="0 0 582 512">
    <path d="M 414 0 Q 392 2 390 24 Q 392 46 414 48 L 467 48 L 326 168 L 214 70 Q 200 59 185 68 L 17 180 Q 0 194 10 213 Q 24 230 43 220 L 196 118 L 310 218 Q 326 230 342 218 L 502 81 L 502 136 Q 504 158 526 160 Q 548 158 550 136 L 550 24 Q 548 2 526 0 L 414 0 L 414 0 Z M 206 432 Q 205 439 198 440 Q 191 439 190 432 L 190 272 Q 191 265 198 264 Q 205 265 206 272 L 206 432 L 206 432 Z M 198 224 Q 178 225 164 238 L 164 238 Q 151 252 150 272 L 150 432 Q 151 452 164 466 Q 178 479 198 480 Q 218 479 232 466 Q 245 452 246 432 L 246 272 Q 245 252 232 238 Q 218 225 198 224 L 198 224 Z M 78 432 Q 77 439 70 440 Q 63 439 62 432 L 62 368 Q 63 361 70 360 Q 77 361 78 368 L 78 432 L 78 432 Z M 70 320 Q 50 321 36 334 L 36 334 Q 23 348 22 368 L 22 432 Q 23 452 36 466 Q 50 479 70 480 Q 90 479 104 466 Q 117 452 118 432 L 118 368 Q 117 348 104 334 Q 90 321 70 320 L 70 320 Z M 438 512 Q 477 512 510 493 L 510 493 Q 543 474 563 440 Q 582 406 582 368 Q 582 330 563 296 Q 543 262 510 243 Q 477 224 438 224 Q 399 224 366 243 Q 333 262 313 296 Q 294 330 294 368 Q 294 406 313 440 Q 333 474 366 493 Q 399 512 438 512 L 438 512 Z M 414 339 L 414 339 Q 413 340 419 344 Q 427 348 441 351 Q 442 352 443 352 L 443 352 Q 458 355 474 363 Q 491 372 494 396 Q 493 423 472 433 Q 463 437 454 439 L 454 450 Q 453 464 438 466 Q 423 464 422 450 L 422 438 Q 409 435 398 432 L 398 432 L 398 432 Q 396 431 394 430 Q 394 430 393 430 Q 380 424 383 410 Q 389 396 403 399 Q 406 400 409 401 Q 409 401 409 401 Q 409 401 409 401 Q 425 407 438 408 Q 449 408 457 404 Q 460 403 461 401 Q 462 400 462 397 Q 463 395 457 391 Q 449 387 434 383 L 432 382 Q 418 379 404 372 Q 386 365 382 341 Q 383 313 404 304 Q 413 299 422 298 L 422 288 Q 423 273 438 272 Q 452 273 454 288 L 454 297 Q 463 299 472 301 Q 486 306 483 321 Q 479 334 464 332 Q 450 329 438 328 Q 428 328 419 332 Q 416 334 415 336 Q 414 336 414 339 L 414 339 Z"/>
</svg>
