<svg xmlns="http://www.w3.org/2000/svg" viewBox="0 0 512 512">
  <path d="M 341.3333333333333 85.33333333333333 Q 341.3333333333333 85.33333333333333 341.3333333333333 85.33333333333333 L 341.3333333333333 85.33333333333333 L 341.3333333333333 85.33333333333333 Q 341.3333333333333 85.33333333333333 341.3333333333333 85.33333333333333 Q 341.3333333333333 85.33333333333333 341.3333333333333 85.33333333333333 Q 341.3333333333333 86.22222222222223 341.3333333333333 86.22222222222223 Q 340.44444444444446 87.11111111111111 339.55555555555554 88.88888888888889 Q 336.8888888888889 91.55555555555556 333.3333333333333 94.22222222222223 Q 342.22222222222223 104.88888888888889 348.44444444444446 119.11111111111111 Q 368.8888888888889 104 369.77777777777777 85.33333333333333 Q 368.8888888888889 61.333333333333336 336.8888888888889 45.333333333333336 Q 304 29.333333333333332 256 28.444444444444443 Q 208 29.333333333333332 175.11111111111111 45.333333333333336 Q 143.11111111111111 61.333333333333336 142.22222222222223 85.33333333333333 Q 143.11111111111111 104 163.55555555555554 119.11111111111111 Q 168.88888888888889 104.88888888888889 178.66666666666666 94.22222222222223 Q 175.11111111111111 91.55555555555556 172.44444444444446 88.88888888888889 Q 170.66666666666666 87.11111111111111 170.66666666666666 86.22222222222223 Q 170.66666666666666 86.22222222222223 170.66666666666666 85.33333333333333 Q 170.66666666666666 85.33333333333333 170.66666666666666 85.33333333333333 Q 170.66666666666666 85.33333333333333 170.66666666666666 85.33333333333333 Q 170.66666666666666 85.33333333333333 170.66666666666666 85.33333333333333 Q 170.66666666666666 85.33333333333333 170.66666666666666 85.33333333333333 Q 170.66666666666666 85.33333333333333 170.66666666666666 84.44444444444444 Q 170.66666666666666 84.44444444444444 170.66666666666666 84.44444444444444 Q 170.66666666666666 83.55555555555556 172.44444444444446 81.77777777777777 Q 176.88888888888889 76.44444444444444 188.44444444444446 70.22222222222223 Q 213.33333333333334 57.77777777777778 256 56.888888888888886 Q 298.6666666666667 57.77777777777778 323.55555555555554 70.22222222222223 Q 335.1111111111111 76.44444444444444 339.55555555555554 81.77777777777777 Q 340.44444444444446 83.55555555555556 341.3333333333333 84.44444444444444 Q 341.3333333333333 84.44444444444444 341.3333333333333 85.33333333333333 Q 341.3333333333333 85.33333333333333 341.3333333333333 85.33333333333333 Q 341.3333333333333 85.33333333333333 341.3333333333333 85.33333333333333 Q 341.3333333333333 85.33333333333333 341.3333333333333 85.33333333333333 L 341.3333333333333 85.33333333333333 Z M 227.55555555555554 156.44444444444446 Q 227.55555555555554 144 235.55555555555554 136 L 235.55555555555554 136 L 235.55555555555554 136 Q 243.55555555555554 128 256 128 Q 268.44444444444446 128 276.44444444444446 136 Q 284.44444444444446 144 284.44444444444446 156.44444444444446 Q 284.44444444444446 168.88888888888889 276.44444444444446 176.88888888888889 Q 268.44444444444446 184.88888888888889 256 184.88888888888889 Q 243.55555555555554 184.88888888888889 235.55555555555554 176.88888888888889 Q 227.55555555555554 168.88888888888889 227.55555555555554 156.44444444444446 L 227.55555555555554 156.44444444444446 Z M 327.1111111111111 156.44444444444446 Q 326.22222222222223 116.44444444444444 291.55555555555554 95.11111111111111 Q 256 75.55555555555556 220.44444444444446 95.11111111111111 Q 185.77777777777777 116.44444444444444 184.88888888888889 156.44444444444446 Q 185.77777777777777 196.44444444444446 220.44444444444446 217.77777777777777 Q 256 237.33333333333334 291.55555555555554 217.77777777777777 Q 326.22222222222223 196.44444444444446 327.1111111111111 156.44444444444446 L 327.1111111111111 156.44444444444446 Z M 78.22222222222223 373.3333333333333 Q 85.33333333333333 358.22222222222223 85.33333333333333 341.3333333333333 L 85.33333333333333 341.3333333333333 L 85.33333333333333 341.3333333333333 Q 85.33333333333333 324.44444444444446 78.22222222222223 309.3333333333333 L 61.333333333333336 276.44444444444446 L 61.333333333333336 276.44444444444446 Q 56.888888888888886 267.55555555555554 56.888888888888886 256.8888888888889 Q 57.77777777777778 238.22222222222223 69.33333333333333 225.77777777777777 Q 81.77777777777777 214.22222222222223 99.55555555555556 213.33333333333334 Q 117.33333333333333 213.33333333333334 129.77777777777777 225.77777777777777 L 189.33333333333334 285.3333333333333 L 189.33333333333334 285.3333333333333 Q 179.55555555555554 294.22222222222223 173.33333333333334 306.6666666666667 L 106.66666666666667 440.8888888888889 L 106.66666666666667 440.8888888888889 L 44.44444444444444 440.8888888888889 L 44.44444444444444 440.8888888888889 L 78.22222222222223 373.3333333333333 L 78.22222222222223 373.3333333333333 Z M 225.77777777777777 261.3333333333333 L 160 195.55555555555554 L 225.77777777777777 261.3333333333333 L 160 195.55555555555554 Q 135.11111111111111 171.55555555555554 99.55555555555556 170.66666666666666 Q 63.111111111111114 171.55555555555554 39.111111111111114 196.44444444444446 Q 15.11111111111111 220.44444444444446 14.222222222222221 256.8888888888889 Q 14.222222222222221 277.3333333333333 23.11111111111111 296 L 40 328 L 40 328 Q 42.666666666666664 334.22222222222223 42.666666666666664 341.3333333333333 L 42.666666666666664 341.3333333333333 L 42.666666666666664 341.3333333333333 Q 42.666666666666664 348.44444444444446 40 354.6666666666667 L 4.444444444444445 424.8888888888889 L 4.444444444444445 424.8888888888889 Q 0 433.77777777777777 0 443.55555555555554 Q 0 460.44444444444446 11.555555555555555 472 Q 23.11111111111111 483.55555555555554 40 483.55555555555554 L 85.33333333333333 483.55555555555554 L 472 483.55555555555554 Q 488.8888888888889 483.55555555555554 500.44444444444446 472 Q 512 460.44444444444446 512 443.55555555555554 Q 512 433.77777777777777 507.55555555555554 424.8888888888889 L 472 354.6666666666667 L 472 354.6666666666667 Q 469.3333333333333 348.44444444444446 469.3333333333333 341.3333333333333 L 469.3333333333333 341.3333333333333 L 469.3333333333333 341.3333333333333 Q 469.3333333333333 334.22222222222223 472 328 L 488.8888888888889 296 L 488.8888888888889 296 Q 497.77777777777777 277.3333333333333 497.77777777777777 256.8888888888889 Q 496.8888888888889 220.44444444444446 472.8888888888889 196.44444444444446 Q 448.8888888888889 171.55555555555554 412.44444444444446 170.66666666666666 Q 376.8888888888889 171.55555555555554 352 195.55555555555554 L 286.22222222222223 261.3333333333333 L 286.22222222222223 261.3333333333333 Q 272 256 256 256 Q 240 256 225.77777777777777 261.3333333333333 L 225.77777777777777 261.3333333333333 Z M 322.6666666666667 285.3333333333333 L 382.22222222222223 225.77777777777777 L 322.6666666666667 285.3333333333333 L 382.22222222222223 225.77777777777777 Q 394.6666666666667 213.33333333333334 412.44444444444446 213.33333333333334 Q 430.22222222222223 214.22222222222223 442.6666666666667 225.77777777777777 Q 455.1111111111111 238.22222222222223 455.1111111111111 256.8888888888889 Q 455.1111111111111 267.55555555555554 450.6666666666667 276.44444444444446 L 433.77777777777777 309.3333333333333 L 433.77777777777777 309.3333333333333 Q 426.6666666666667 324.44444444444446 426.6666666666667 341.3333333333333 L 426.6666666666667 341.3333333333333 L 426.6666666666667 341.3333333333333 Q 426.6666666666667 358.22222222222223 433.77777777777777 373.3333333333333 L 467.55555555555554 440.8888888888889 L 467.55555555555554 440.8888888888889 L 405.3333333333333 440.8888888888889 L 405.3333333333333 440.8888888888889 L 338.6666666666667 306.6666666666667 L 338.6666666666667 306.6666666666667 Q 332.44444444444446 294.22222222222223 322.6666666666667 285.3333333333333 L 322.6666666666667 285.3333333333333 Z M 300.44444444444446 326.22222222222223 L 357.3333333333333 440.8888888888889 L 300.44444444444446 326.22222222222223 L 357.3333333333333 440.8888888888889 L 154.66666666666666 440.8888888888889 L 154.66666666666666 440.8888888888889 L 211.55555555555554 326.22222222222223 L 211.55555555555554 326.22222222222223 Q 225.77777777777777 299.55555555555554 256 298.6666666666667 Q 286.22222222222223 299.55555555555554 300.44444444444446 326.22222222222223 L 300.44444444444446 326.22222222222223 Z" />
</svg>