<svg xmlns="http://www.w3.org/2000/svg" viewBox="0 0 448 512">
    <path d="M 24 0 Q 46 2 48 24 L 48 52 L 133 31 Q 192 17 247 43 Q 282 61 320 61 Q 358 61 394 43 L 403 39 Q 420 31 433 40 Q 447 48 448 66 L 448 346 Q 447 367 427 376 L 393 389 Q 320 415 251 381 Q 192 353 128 368 L 48 388 L 48 488 Q 46 510 24 512 Q 2 510 0 488 L 0 400 L 0 351 L 0 64 L 0 24 Q 2 2 24 0 L 24 0 Z M 48 151 L 128 133 L 128 82 L 48 102 L 48 151 L 48 151 Z M 48 200 L 48 247 L 128 229 L 128 183 L 48 200 L 48 200 Z M 48 296 L 48 339 L 117 321 Q 122 320 128 319 L 128 279 L 48 296 L 48 296 Z M 176 315 Q 226 316 272 338 L 272 289 L 217 272 Q 197 266 176 269 L 176 315 L 176 315 Z M 320 352 Q 348 354 376 344 L 400 335 L 400 288 L 374 294 Q 347 300 320 298 L 320 352 L 320 352 Z M 400 239 L 400 192 L 374 198 Q 347 204 320 202 L 320 250 Q 342 252 364 247 L 400 239 L 400 239 Z M 400 143 L 400 93 Q 361 109 320 109 L 320 154 Q 342 156 364 151 L 400 143 L 400 143 Z M 272 103 Q 248 98 225 86 Q 202 75 176 74 L 176 124 Q 204 123 230 130 L 272 143 L 272 103 L 272 103 Z M 272 193 L 217 176 Q 197 170 176 173 L 176 221 Q 204 219 230 226 L 272 239 L 272 193 L 272 193 Z"/>
</svg>
