<svg xmlns="http://www.w3.org/2000/svg" viewBox="0 0 512 512">
  <path d="M 36.01223241590214 59.49847094801223 Q 21.137614678899084 50.103975535168196 9.394495412844037 62.62996941896024 Q 0 77.5045871559633 12.525993883792049 89.24770642201835 L 475.98776758409787 452.50152905198775 L 475.98776758409787 452.50152905198775 Q 490.86238532110093 461.8960244648318 502.60550458715596 449.37003058103977 Q 512 434.4954128440367 499.47400611620793 422.7522935779817 L 374.2140672782875 324.8929663608563 L 374.2140672782875 324.8929663608563 L 412.5749235474006 324.8929663608563 L 412.5749235474006 324.8929663608563 Q 429.79816513761466 323.3272171253823 431.3639143730887 306.1039755351682 Q 429.79816513761466 288.8807339449541 412.5749235474006 287.31498470948014 L 326.45871559633025 287.31498470948014 L 326.45871559633025 287.31498470948014 L 246.60550458715596 224.68501529051989 L 246.60550458715596 224.68501529051989 L 412.5749235474006 224.68501529051989 L 412.5749235474006 224.68501529051989 Q 429.79816513761466 223.11926605504587 431.3639143730887 205.8960244648318 Q 429.79816513761466 188.67278287461772 412.5749235474006 187.10703363914374 L 198.85015290519877 187.10703363914374 L 198.85015290519877 187.10703363914374 L 118.99694189602447 124.4770642201835 L 118.99694189602447 124.4770642201835 L 412.5749235474006 124.4770642201835 L 412.5749235474006 124.4770642201835 Q 429.79816513761466 122.91131498470948 431.3639143730887 105.68807339449542 Q 429.79816513761466 88.46483180428135 412.5749235474006 86.89908256880734 L 99.42507645259938 86.89908256880734 L 99.42507645259938 86.89908256880734 Q 88.46483180428135 87.68195718654434 82.98470948012232 96.29357798165138 L 36.01223241590214 59.49847094801223 L 36.01223241590214 59.49847094801223 Z M 378.91131498470946 425.10091743119267 L 331.1559633027523 387.5229357798165 L 378.91131498470946 425.10091743119267 L 331.1559633027523 387.5229357798165 L 99.42507645259938 387.5229357798165 L 99.42507645259938 387.5229357798165 Q 82.20183486238533 389.08868501529054 80.63608562691131 406.3119266055046 Q 82.20183486238533 423.53516819571865 99.42507645259938 425.10091743119267 L 378.91131498470946 425.10091743119267 L 378.91131498470946 425.10091743119267 Z M 252.085626911315 324.8929663608563 L 204.3302752293578 287.31498470948014 L 252.085626911315 324.8929663608563 L 204.3302752293578 287.31498470948014 L 99.42507645259938 287.31498470948014 L 99.42507645259938 287.31498470948014 Q 82.20183486238533 288.8807339449541 80.63608562691131 306.1039755351682 Q 82.20183486238533 323.3272171253823 99.42507645259938 324.8929663608563 L 252.085626911315 324.8929663608563 L 252.085626911315 324.8929663608563 Z M 124.4770642201835 224.68501529051989 L 85.33333333333333 193.37003058103974 L 124.4770642201835 224.68501529051989 L 85.33333333333333 193.37003058103974 Q 80.63608562691131 198.85015290519877 80.63608562691131 205.8960244648318 Q 82.20183486238533 223.11926605504587 99.42507645259938 224.68501529051989 L 124.4770642201835 224.68501529051989 L 124.4770642201835 224.68501529051989 Z" />
</svg>