<svg xmlns="http://www.w3.org/2000/svg" viewBox="0 0 512 512">
  <path d="M 305.2307692307692 59.07692307692308 Q 304 30.76923076923077 280.61538461538464 16 Q 256 3.6923076923076925 231.3846153846154 16 Q 208 30.76923076923077 206.76923076923077 59.07692307692308 Q 208 87.38461538461539 231.3846153846154 102.15384615384616 Q 256 114.46153846153847 280.61538461538464 102.15384615384616 Q 304 87.38461538461539 305.2307692307692 59.07692307692308 L 305.2307692307692 59.07692307692308 Z M 305.2307692307692 452.9230769230769 Q 304 424.61538461538464 280.61538461538464 409.84615384615387 Q 256 397.53846153846155 231.3846153846154 409.84615384615387 Q 208 424.61538461538464 206.76923076923077 452.9230769230769 Q 208 481.2307692307692 231.3846153846154 496 Q 256 508.3076923076923 280.61538461538464 496 Q 304 481.2307692307692 305.2307692307692 452.9230769230769 L 305.2307692307692 452.9230769230769 Z M 482.46153846153845 285.53846153846155 Q 509.53846153846155 283.0769230769231 512 256 Q 509.53846153846155 228.92307692307693 482.46153846153845 226.46153846153845 L 29.53846153846154 226.46153846153845 L 29.53846153846154 226.46153846153845 Q 2.4615384615384617 228.92307692307693 0 256 Q 2.4615384615384617 283.0769230769231 29.53846153846154 285.53846153846155 L 482.46153846153845 285.53846153846155 L 482.46153846153845 285.53846153846155 Z" />
</svg>