<svg xmlns="http://www.w3.org/2000/svg" viewBox="0 0 512 512">
  <path d="M 161.73123 42.44328 Q 144.75392 26.35951 121.52181 26.35951 L 121.52181 26.35951 L 121.52181 26.35951 Q 99.18324 26.35951 81.31239 42.44328 L 45.570683 78.18499 L 45.570683 78.18499 Q 41.99651 81.75916 38.42234 87.12042 Q 27.699825 104.09773 29.486912 123.75567 Q 31.273996 143.41362 45.570683 158.60384 L 125.095985 238.12915 L 125.095985 238.12915 Q 143.86038 232.76788 164.41187 232.76788 L 166.19896 232.76788 L 166.19896 232.76788 L 173.34729 225.61955 L 173.34729 225.61955 L 143.86038 196.13263 L 143.86038 196.13263 L 199.26004 140.73299 L 199.26004 140.73299 L 228.74695 170.2199 L 228.74695 170.2199 L 259.1274 139.83945 L 259.1274 139.83945 L 161.73123 42.44328 L 161.73123 42.44328 Z M 369.9267 311.39966 L 403.88132 344.46072 L 369.9267 311.39966 L 403.88132 344.46072 Q 403.88132 345.35428 404.77487 346.24783 Q 410.13614 352.50262 412.81674 359.65097 L 419.07156 381.09598 L 419.07156 381.09598 L 433.36823 430.24084 L 433.36823 430.24084 L 384.2234 415.0506 L 384.2234 415.0506 L 362.77835 409.68936 L 362.77835 409.68936 Q 354.73648 407.00873 347.58813 399.86038 L 314.52704 366.79932 L 314.52704 366.79932 L 307.37872 373.94763 L 307.37872 373.94763 L 307.37872 375.73474 L 307.37872 375.73474 Q 307.37872 396.28622 302.01746 415.0506 L 318.10123 431.13437 L 318.10123 431.13437 Q 318.99475 432.02792 321.67538 433.815 Q 334.185 445.43106 351.1623 450.79233 L 420.85864 471.3438 L 420.85864 471.3438 L 458.38742 482.0663 L 458.38742 482.0663 Q 470.89703 485.6405 479.83246 476.70505 Q 487.87436 467.76962 485.19373 455.26004 L 474.4712 417.73123 L 474.4712 417.73123 L 453.9197 348.0349 L 453.9197 348.0349 Q 447.66492 328.37695 433.36823 314.97382 L 400.30716 281.0192 L 400.30716 281.0192 L 369.9267 311.39966 L 369.9267 311.39966 Z M 463.7487 76.3979 Q 474.4712 89.80105 463.7487 103.204185 L 300.23038 266.7225 L 300.23038 266.7225 L 273.42407 239.91623 L 273.42407 239.91623 L 436.9424 76.3979 L 436.9424 76.3979 Q 450.34555 65.67539 463.7487 76.3979 L 463.7487 76.3979 Z M 164.41187 311.39966 Q 176.92146 311.39966 188.53752 315.86737 L 224.27924 352.50262 L 224.27924 352.50262 Q 228.74695 363.22513 228.74695 375.73474 Q 227.85341 403.43454 209.98254 421.30542 Q 192.1117 439.17627 164.41187 440.0698 L 87.56719 440.0698 L 87.56719 440.0698 L 88.46073 439.17627 L 88.46073 439.17627 Q 104.5445 415.0506 100.97033 385.5637 Q 100.07679 381.09598 100.07679 375.73474 Q 100.97033 348.0349 118.84119 330.16406 Q 136.71204 312.29318 164.41187 311.39966 L 164.41187 311.39966 Z M 406.56195 46.017452 L 182.28273 270.2967 L 406.56195 46.017452 L 182.28273 270.2967 Q 173.34729 268.5096 164.41187 268.5096 Q 118.84119 269.40314 88.46073 299.7836 Q 58.08028 330.16406 57.186737 375.73474 Q 57.186737 383.7766 58.08028 391.8185 Q 59.867363 404.3281 52.71902 415.0506 Q 46.464222 424.87958 33.954624 425.77313 L 28.593369 425.77313 L 28.593369 425.77313 Q 16.083769 425.77313 8.041884 433.815 Q 0 441.8569 0 454.3665 Q 0 466.8761 8.041884 474.91797 Q 16.083769 482.95987 28.593369 482.95987 L 164.41187 482.95987 L 164.41187 482.95987 Q 209.98254 482.0663 240.363 451.68585 Q 270.74347 421.30542 271.637 375.73474 Q 271.637 366.79932 269.8499 357.86386 L 494.12915 133.58464 L 494.12915 133.58464 Q 512 114.820244 512 89.80105 Q 512 64.78185 494.12915 46.017452 Q 475.36475 28.146597 450.34555 28.146597 Q 425.32635 28.146597 406.56195 46.017452 L 406.56195 46.017452 Z" />
</svg>