<svg xmlns="http://www.w3.org/2000/svg" viewBox="0 0 521 529">
    <path d="M 7 398 Q 0 405 0 415 Q 0 425 7 432 Q 66 490 141 509 Q 216 529 291 509 Q 366 490 425 432 Q 483 373 502 298 Q 521 223 502 148 Q 483 73 425 14 Q 408 0 391 14 L 319 86 Q 309 96 313 110 L 313 110 L 313 110 Q 313 111 314 113 Q 314 116 315 123 Q 318 137 316 161 Q 314 184 303 213 Q 291 241 263 270 Q 231 301 202 313 Q 173 325 151 326 Q 129 327 116 324 Q 110 322 107 321 Q 107 321 107 321 Q 106 321 105 321 L 105 321 Q 90 316 79 326 L 7 398 L 7 398 Z M 313 110 L 313 110 L 313 110 L 313 110 Q 313 110 313 110 Q 313 110 313 110 L 313 110 Z M 365 145 Q 384 180 384 223 Q 382 294 335 342 Q 287 389 216 391 Q 176 391 143 374 Q 148 374 154 374 Q 154 374 155 374 Q 185 373 222 357 Q 258 342 297 304 Q 332 268 347 232 Q 361 196 364 165 Q 365 155 365 145 L 365 145 Z M 81 392 Q 138 438 216 439 Q 308 437 369 376 Q 430 315 432 223 Q 431 145 385 88 L 407 66 Q 468 142 464 234 Q 460 327 391 398 Q 320 467 227 471 Q 135 475 59 414 L 81 392 L 81 392 Z"/>
</svg>
