<svg xmlns="http://www.w3.org/2000/svg" viewBox="0 0 512 512">
  <path d="M 498.1888 272.77072 Q 512 256 498.1888 239.2293 L 371.91522 112.95568 L 371.91522 112.95568 Q 355.1445 99.14451 338.3738 112.95568 Q 324.56262 129.7264 338.3738 146.49712 L 424.20038 232.3237 L 424.20038 232.3237 L 181.51831 232.3237 L 181.51831 232.3237 Q 159.81503 234.29672 157.84201 256 Q 159.81503 277.70328 181.51831 279.6763 L 424.20038 279.6763 L 424.20038 279.6763 L 338.3738 365.5029 L 338.3738 365.5029 Q 324.56262 382.2736 338.3738 399.0443 Q 355.1445 412.8555 371.91522 399.0443 L 498.1888 272.77072 L 498.1888 272.77072 Z M 165.7341 82.373795 Q 187.43738 80.40077 189.4104 58.697495 Q 187.43738 36.99422 165.7341 35.021194 L 86.8131 35.021194 L 86.8131 35.021194 Q 50.312138 36.007706 25.649326 60.67052 Q 0.98651254 85.333336 0 121.8343 L 0 390.1657 L 0 390.1657 Q 0.98651254 426.66666 25.649326 451.32947 Q 50.312138 475.99228 86.8131 476.9788 L 165.7341 476.9788 L 165.7341 476.9788 Q 187.43738 475.00577 189.4104 453.3025 Q 187.43738 431.59924 165.7341 429.6262 L 86.8131 429.6262 L 86.8131 429.6262 Q 70.04239 429.6262 59.19075 417.78806 Q 47.3526 406.9364 47.3526 390.1657 L 47.3526 121.8343 L 47.3526 121.8343 Q 47.3526 105.06358 59.19075 94.211945 Q 70.04239 82.373795 86.8131 82.373795 L 165.7341 82.373795 L 165.7341 82.373795 Z" />
</svg>