<svg xmlns="http://www.w3.org/2000/svg" viewBox="0 0 512 512">
  <path d="M 217.6 344.8 L 179.2 344.8 L 217.6 344.8 L 128 344.8 Q 116 344 115.2 332 L 115.2 204 L 115.2 204 L 115.2 101.6 L 115.2 101.6 Q 116 89.6 128 88.8 L 384 88.8 L 384 88.8 Q 396 89.6 396.8 101.6 L 396.8 204 L 396.8 204 L 396.8 332 L 396.8 332 Q 396 344 384 344.8 L 298.4 344.8 L 285.6 344.8 L 276 352.8 L 276 352.8 L 217.6 396 L 217.6 396 L 217.6 383.2 L 217.6 383.2 L 217.6 344.8 L 217.6 344.8 Z M 76.8 216.8 L 76.8 332 L 76.8 216.8 L 76.8 332 Q 77.6 353.6 92 368 Q 106.4 382.4 128 383.2 L 140.8 383.2 L 179.2 383.2 L 179.2 421.6 L 179.2 421.6 L 179.2 424.8 L 179.2 424.8 L 179.2 424.8 L 179.2 424.8 L 179.2 430.4 L 179.2 430.4 L 179.2 447.2 L 179.2 447.2 Q 179.2 455.2 186.4 458.4 Q 193.6 461.6 200 457.6 L 213.6 447.2 L 213.6 447.2 L 217.6 444 L 217.6 444 L 217.6 444 L 217.6 444 L 298.4 383.2 L 298.4 383.2 L 384 383.2 L 384 383.2 Q 405.6 382.4 420 368 Q 434.4 353.6 435.2 332 L 435.2 216.8 L 435.2 216.8 L 464 216.8 L 464 216.8 Q 471.2 228.8 486.4 229.6 Q 497.6 229.6 504.8 222.4 Q 512 215.2 512 204 Q 512 192.8 504.8 185.6 Q 497.6 178.4 486.4 178.4 Q 471.2 179.2 464 191.2 L 435.2 191.2 L 435.2 191.2 L 435.2 101.6 L 435.2 101.6 Q 434.4 80 420 65.6 Q 405.6 51.2 384 50.4 L 128 50.4 L 128 50.4 Q 106.4 51.2 92 65.6 Q 77.6 80 76.8 101.6 L 76.8 191.2 L 76.8 191.2 L 48 191.2 L 48 191.2 Q 40.8 179.2 25.6 178.4 Q 14.4 178.4 7.2 185.6 Q 0 192.8 0 204 Q 0 215.2 7.2 222.4 Q 14.4 229.6 25.6 229.6 Q 40.8 228.8 48 216.8 L 76.8 216.8 L 76.8 216.8 Z M 140.8 152.8 L 140.8 255.2 L 140.8 152.8 L 140.8 255.2 Q 140.8 266.4 148 273.6 Q 155.2 280.8 166.4 280.8 L 345.6 280.8 L 345.6 280.8 Q 356.8 280.8 364 273.6 Q 371.2 266.4 371.2 255.2 L 371.2 152.8 L 371.2 152.8 Q 371.2 141.6 364 134.4 Q 356.8 127.2 345.6 127.2 L 166.4 127.2 L 166.4 127.2 Q 155.2 127.2 148 134.4 Q 140.8 141.6 140.8 152.8 L 140.8 152.8 Z M 166.4 204 Q 166.4 192.8 173.6 185.6 L 173.6 185.6 L 173.6 185.6 Q 180.8 178.4 192 178.4 Q 203.2 178.4 210.4 185.6 Q 217.6 192.8 217.6 204 Q 217.6 215.2 210.4 222.4 Q 203.2 229.6 192 229.6 Q 180.8 229.6 173.6 222.4 Q 166.4 215.2 166.4 204 L 166.4 204 Z M 320 178.4 Q 331.2 178.4 338.4 185.6 L 338.4 185.6 L 338.4 185.6 Q 345.6 192.8 345.6 204 Q 345.6 215.2 338.4 222.4 Q 331.2 229.6 320 229.6 Q 308.8 229.6 301.6 222.4 Q 294.4 215.2 294.4 204 Q 294.4 192.8 301.6 185.6 Q 308.8 178.4 320 178.4 L 320 178.4 Z" />
</svg>