<svg xmlns="http://www.w3.org/2000/svg" viewBox="0 0 512 512">
  <path d="M 115.86847 118.839455 Q 116.8588 88.13927 136.66537 68.33269 L 136.66537 68.33269 L 136.66537 68.33269 Q 156.47195 48.52611 187.17215 47.53578 Q 226.7853 49.51644 247.5822 81.20696 Q 253.52419 90.11992 264.4178 92.10058 Q 276.30173 93.09091 284.22437 86.15861 Q 299.0793 71.30367 321.85687 71.30367 Q 343.6441 71.30367 359.48935 85.16828 Q 374.3443 100.02321 377.31528 120.820114 Q 380.28625 140.6267 401.08316 142.60735 L 401.08316 142.60735 L 401.08316 142.60735 L 401.08316 142.60735 L 401.08316 142.60735 Q 427.82205 143.59767 445.64798 161.4236 Q 463.47388 179.24951 464.4642 205.98839 Q 463.47388 232.72728 445.64798 250.55319 Q 427.82205 268.37912 401.08316 269.36945 L 111.90716 269.36945 L 109.9265 269.36945 Q 109.9265 269.36945 109.9265 269.36945 Q 108.93617 269.36945 108.93617 269.36945 Q 85.16828 267.3888 69.32302 250.55319 Q 53.477757 234.70793 52.487427 209.9497 Q 52.487427 188.16248 65.3617 173.30754 Q 78.23598 157.46228 98.04256 152.51064 Q 116.8588 146.56866 115.86847 126.76209 Q 115.86847 122.80077 115.86847 118.839455 L 115.86847 118.839455 Z M 187.17215 0 Q 138.64604 0.99032885 104.97485 32.68085 L 104.97485 32.68085 L 104.97485 32.68085 Q 72.29401 64.371376 68.33269 111.90716 Q 39.61315 124.78143 22.777563 150.52998 Q 4.951644 176.27853 4.951644 209.9497 Q 5.9419727 253.52419 33.67118 283.23404 Q 61.400387 312.9439 104.97485 316.9052 Q 105.96519 316.9052 107.94584 316.9052 L 111.90716 316.9052 L 401.08316 316.9052 Q 448.61896 315.9149 479.31915 284.22437 Q 511.00967 253.52419 512 205.98839 Q 511.00967 164.39458 485.2611 134.68472 Q 460.5029 103.98453 420.88974 97.05222 Q 409.99612 64.371376 383.25726 44.564796 Q 357.5087 24.75822 321.85687 23.76789 Q 295.11798 23.76789 272.34042 36.642166 Q 238.66925 0.99032885 187.17215 0 L 187.17215 0 Z M 86.15861 350.57642 Q 65.3617 343.6441 54.468086 363.45068 L 6.9323015 474.3675 L 6.9323015 474.3675 Q 0 495.1644 19.806576 505.0677 Q 40.60348 512 50.50677 492.19342 L 98.04256 381.27658 L 98.04256 381.27658 Q 104.97485 360.47968 86.15861 350.57642 L 86.15861 350.57642 Z M 355.52805 350.57642 Q 334.73114 343.6441 323.83752 363.45068 L 276.30173 474.3675 L 276.30173 474.3675 Q 269.36945 495.1644 289.17603 505.0677 Q 309.97293 512 319.87622 492.19342 L 367.412 381.27658 L 367.412 381.27658 Q 374.3443 360.47968 355.52805 350.57642 L 355.52805 350.57642 Z M 218.86267 372.36365 Q 216.88202 350.57642 195.09477 348.59573 Q 173.30754 350.57642 171.32689 372.36365 L 171.32689 388.2089 L 171.32689 388.2089 L 155.48163 388.2089 L 155.48163 388.2089 Q 133.6944 390.18954 131.71373 411.97678 Q 133.6944 433.76404 155.48163 435.7447 L 171.32689 435.7447 L 171.32689 435.7447 L 171.32689 451.58994 L 171.32689 451.58994 Q 173.30754 473.37717 195.09477 475.35782 Q 216.88202 473.37717 218.86267 451.58994 L 218.86267 435.7447 L 218.86267 435.7447 L 234.70793 435.7447 L 234.70793 435.7447 Q 256.49518 433.76404 258.47583 411.97678 Q 256.49518 390.18954 234.70793 388.2089 L 218.86267 388.2089 L 218.86267 388.2089 L 218.86267 372.36365 L 218.86267 372.36365 Z M 472.38684 372.36365 Q 470.4062 350.57642 448.61896 348.59573 Q 426.83173 350.57642 424.85107 372.36365 L 424.85107 388.2089 L 424.85107 388.2089 L 409.0058 388.2089 L 409.0058 388.2089 Q 387.21857 390.18954 385.2379 411.97678 Q 387.21857 433.76404 409.0058 435.7447 L 424.85107 435.7447 L 424.85107 435.7447 L 424.85107 451.58994 L 424.85107 451.58994 Q 426.83173 473.37717 448.61896 475.35782 Q 470.4062 473.37717 472.38684 451.58994 L 472.38684 435.7447 L 472.38684 435.7447 L 488.23212 435.7447 L 488.23212 435.7447 Q 510.01935 433.76404 512 411.97678 Q 510.01935 390.18954 488.23212 388.2089 L 472.38684 388.2089 L 472.38684 388.2089 L 472.38684 372.36365 L 472.38684 372.36365 Z" />
</svg>