<svg xmlns="http://www.w3.org/2000/svg" viewBox="0 0 512 512">
  <path d="M 36.012234 59.49847 Q 21.137615 50.103977 9.394495 62.62997 Q 0 77.504585 12.525994 89.2477 L 475.98776 452.50153 L 475.98776 452.50153 Q 490.8624 461.89603 502.6055 449.37003 Q 512 434.49542 499.474 422.7523 L 356.9908 310.8012 L 356.9908 310.8012 L 378.12845 231.73088 L 378.12845 231.73088 L 386.74005 223.90215 L 386.74005 223.90215 L 442.32416 168.31804 L 442.32416 168.31804 Q 454.85016 154.2263 454.85016 137.00305 Q 454.85016 119.779816 442.32416 105.68807 L 406.31192 69.67584 L 406.31192 69.67584 Q 392.22018 57.14985 374.99695 57.14985 Q 357.7737 57.14985 343.68195 69.67584 L 288.09787 125.25994 L 288.09787 125.25994 L 280.2691 133.87157 L 280.2691 133.87157 L 169.10092 164.40367 L 169.10092 164.40367 L 36.012234 59.49847 L 36.012234 59.49847 Z M 205.89603 192.58716 L 288.09787 170.66667 L 205.89603 192.58716 L 288.09787 170.66667 L 341.33334 223.90215 L 341.33334 223.90215 L 324.89297 285.74924 L 324.89297 285.74924 L 205.89603 192.58716 L 205.89603 192.58716 Z M 319.41284 378.12845 L 284.18347 350.7278 L 319.41284 378.12845 L 284.18347 350.7278 L 122.12844 407.8777 L 122.12844 407.8777 L 201.98166 327.24158 L 201.98166 327.24158 Q 209.8104 331.15598 218.42201 331.15598 Q 234.86238 330.37308 245.03975 319.41284 L 186.32416 273.22324 L 186.32416 273.22324 Q 180.84404 282.61774 180.84404 293.57797 Q 180.84404 302.1896 184.7584 310.01834 L 104.9052 389.87155 L 104.9052 389.87155 L 154.2263 248.17125 L 154.2263 248.17125 L 122.911316 223.11926 L 122.911316 223.11926 L 61.06422 400.04892 L 61.06422 400.04892 Q 54.01835 423.53516 70.45872 441.5413 Q 88.46483 457.98166 111.95107 450.9358 L 318.62997 378.12845 L 318.62997 378.12845 L 319.41284 378.12845 L 319.41284 378.12845 Z" />
</svg>