<svg xmlns="http://www.w3.org/2000/svg" viewBox="0 0 640 514">
    <path d="M 329 289 Q 349 267 376 277 L 488 325 Q 501 331 508 344 Q 514 356 511 370 L 487 482 Q 479 512 448 514 L 448 514 Q 439 514 430 514 L 430 514 L 430 514 Q 415 513 400 511 Q 286 498 196 437 Q 106 375 54 279 Q 1 183 0 66 L 0 66 Q 2 35 32 27 L 144 3 Q 158 0 170 6 Q 183 13 189 26 L 237 138 Q 247 165 225 185 L 185 218 Q 226 288 296 329 L 329 289 L 329 289 Z M 463 367 L 362 324 L 333 360 Q 321 373 304 376 Q 288 379 272 371 Q 191 323 143 242 Q 134 226 137 209 Q 141 193 154 181 L 190 152 L 147 51 L 48 73 Q 51 182 104 270 Q 156 358 244 410 Q 332 463 442 466 L 463 367 L 463 367 Z M 304 66 L 336 66 Q 351 67 352 82 L 352 114 Q 351 129 336 130 L 304 130 Q 289 129 288 114 L 288 82 Q 289 67 304 66 L 304 66 Z M 288 178 Q 289 163 304 162 L 336 162 Q 351 163 352 178 L 352 210 Q 351 225 336 226 L 304 226 Q 289 225 288 210 L 288 178 L 288 178 Z M 400 66 L 432 66 Q 447 67 448 82 L 448 114 Q 447 129 432 130 L 400 130 Q 385 129 384 114 L 384 82 Q 385 67 400 66 L 400 66 Z M 480 82 Q 481 67 496 66 L 528 66 Q 543 67 544 82 L 544 114 Q 543 129 528 130 L 496 130 Q 481 129 480 114 L 480 82 L 480 82 Z M 592 66 L 624 66 Q 639 67 640 82 L 640 114 Q 639 129 624 130 L 592 130 Q 577 129 576 114 L 576 82 Q 577 67 592 66 L 592 66 Z M 576 178 Q 577 163 592 162 L 624 162 Q 639 163 640 178 L 640 210 Q 639 225 624 226 L 592 226 Q 577 225 576 210 L 576 178 L 576 178 Z M 400 162 L 528 162 Q 543 163 544 178 L 544 210 Q 543 225 528 226 L 400 226 Q 385 225 384 210 L 384 178 Q 385 163 400 162 L 400 162 Z"/>
</svg>
