<svg xmlns="http://www.w3.org/2000/svg" viewBox="0 0 448 448">
    <path d="M 88 40 L 88 88 L 40 88 L 40 40 L 88 40 L 88 40 Z M 40 0 Q 23 0 12 12 L 12 12 Q 0 23 0 40 L 0 88 Q 0 105 12 116 Q 23 128 40 128 L 88 128 Q 105 128 116 116 Q 128 105 128 88 L 128 40 Q 128 23 116 12 Q 105 0 88 0 L 40 0 L 40 0 Z M 88 200 L 88 248 L 40 248 L 40 200 L 88 200 L 88 200 Z M 40 160 Q 23 160 12 172 L 12 172 Q 0 183 0 200 L 0 248 Q 0 265 12 276 Q 23 288 40 288 L 88 288 Q 105 288 116 276 Q 128 265 128 248 L 128 200 Q 128 183 116 172 Q 105 160 88 160 L 40 160 L 40 160 Z M 40 360 L 88 360 L 88 408 L 40 408 L 40 360 L 40 360 Z M 0 360 L 0 408 Q 0 425 12 436 Q 23 448 40 448 L 88 448 Q 105 448 116 436 Q 128 425 128 408 L 128 360 Q 128 343 116 332 Q 105 320 88 320 L 40 320 Q 23 320 12 332 Q 0 343 0 360 L 0 360 Z M 248 40 L 248 88 L 200 88 L 200 40 L 248 40 L 248 40 Z M 200 0 Q 183 0 172 12 L 172 12 Q 160 23 160 40 L 160 88 Q 160 105 172 116 Q 183 128 200 128 L 248 128 Q 265 128 276 116 Q 288 105 288 88 L 288 40 Q 288 23 276 12 Q 265 0 248 0 L 200 0 L 200 0 Z M 200 200 L 248 200 L 248 248 L 200 248 L 200 200 L 200 200 Z M 160 200 L 160 248 Q 160 265 172 276 Q 183 288 200 288 L 248 288 Q 265 288 276 276 Q 288 265 288 248 L 288 200 Q 288 183 276 172 Q 265 160 248 160 L 200 160 Q 183 160 172 172 Q 160 183 160 200 L 160 200 Z M 248 360 L 248 408 L 200 408 L 200 360 L 248 360 L 248 360 Z M 200 320 Q 183 320 172 332 L 172 332 Q 160 343 160 360 L 160 408 Q 160 425 172 436 Q 183 448 200 448 L 248 448 Q 265 448 276 436 Q 288 425 288 408 L 288 360 Q 288 343 276 332 Q 265 320 248 320 L 200 320 L 200 320 Z M 360 40 L 408 40 L 408 88 L 360 88 L 360 40 L 360 40 Z M 320 40 L 320 88 Q 320 105 332 116 Q 343 128 360 128 L 408 128 Q 425 128 436 116 Q 448 105 448 88 L 448 40 Q 448 23 436 12 Q 425 0 408 0 L 360 0 Q 343 0 332 12 Q 320 23 320 40 L 320 40 Z M 408 200 L 408 248 L 360 248 L 360 200 L 408 200 L 408 200 Z M 360 160 Q 343 160 332 172 L 332 172 Q 320 183 320 200 L 320 248 Q 320 265 332 276 Q 343 288 360 288 L 408 288 Q 425 288 436 276 Q 448 265 448 248 L 448 200 Q 448 183 436 172 Q 425 160 408 160 L 360 160 L 360 160 Z M 360 360 L 408 360 L 408 408 L 360 408 L 360 360 L 360 360 Z M 320 360 L 320 408 Q 320 425 332 436 Q 343 448 360 448 L 408 448 Q 425 448 436 436 Q 448 425 448 408 L 448 360 Q 448 343 436 332 Q 425 320 408 320 L 360 320 Q 343 320 332 332 Q 320 343 320 360 L 320 360 Z"/>
</svg>
