<svg xmlns="http://www.w3.org/2000/svg" viewBox="0 0 512 512">
  <path d="M 273.12521440823326 56.20583190394511 Q 253.80445969125213 57.9622641509434 252.04802744425385 77.28301886792453 Q 253.80445969125213 96.60377358490567 273.12521440823326 98.36020583190394 L 294.2024013722127 98.36020583190394 L 294.2024013722127 98.36020583190394 Q 357.4339622641509 99.23842195540308 403.9794168096055 137.0017152658662 Q 450.52487135506004 173.88679245283018 465.45454545454544 233.60548885077188 Q 447.8902229845626 224.82332761578044 427.69125214408234 224.82332761578044 L 388.1715265866209 224.82332761578044 L 388.1715265866209 224.82332761578044 L 347.77358490566036 151.93138936535163 L 347.77358490566036 151.93138936535163 Q 342.5042881646655 141.3927958833619 331.08747855917665 140.51457975986278 Q 319.6706689536878 139.63636363636363 312.6449399656947 149.2967409948542 L 281.9073756432247 190.5728987993139 L 281.9073756432247 190.5728987993139 L 255.56089193825042 150.17495711835335 L 255.56089193825042 150.17495711835335 Q 249.41337907375643 141.3927958833619 238.87478559176674 140.51457975986278 Q 228.33619210977702 140.51457975986278 221.31046312178387 148.41852487135506 L 161.5917667238422 224.82332761578044 L 161.5917667238422 224.82332761578044 L 95.72555746140652 224.82332761578044 L 95.72555746140652 224.82332761578044 Q 69.37907375643225 225.7015437392796 52.692967409948544 243.26586620926244 Q 35.128644939965696 259.9519725557461 34.25042881646655 286.2984562607204 Q 36.00686106346484 324.06174957118355 68.5008576329331 341.62607204116637 L 10.53859348198971 415.39622641509436 L 10.53859348198971 415.39622641509436 Q 0 432.0823327615781 14.051457975986278 445.25557461406515 Q 30.737564322469982 455.7941680960549 43.910806174957116 441.74271012006864 L 108.02058319039452 360.0686106346484 L 108.02058319039452 360.0686106346484 L 144.9056603773585 376.75471698113205 L 144.9056603773585 376.75471698113205 L 115.9245283018868 416.27444253859346 L 115.9245283018868 416.27444253859346 Q 105.38593481989709 432.9605488850772 120.3156089193825 445.25557461406515 Q 137.0017152658662 455.7941680960549 149.2967409948542 440.8644939965695 L 187.06003430531732 390.80617495711834 L 187.06003430531732 390.80617495711834 Q 202.8679245283019 393.44082332761576 218.67581475128645 393.44082332761576 L 247.65694682675814 393.44082332761576 L 247.65694682675814 393.44082332761576 L 233.60548885077188 418.0308747855918 L 233.60548885077188 418.0308747855918 Q 225.7015437392796 435.5951972555746 241.50943396226415 447.01200686106347 Q 259.073756432247 454.9159519725558 270.49056603773585 439.10806174957116 L 296.8370497427101 393.44082332761576 L 296.8370497427101 393.44082332761576 L 393.44082332761576 393.44082332761576 L 393.44082332761576 393.44082332761576 L 416.27444253859346 438.22984562607206 L 416.27444253859346 438.22984562607206 Q 425.934819897084 454.0377358490566 444.37735849056605 447.01200686106347 Q 461.06346483704976 437.3516295025729 454.0377358490566 418.90909090909093 L 439.9862778730703 392.56260720411666 L 439.9862778730703 392.56260720411666 Q 471.60205831903943 387.29331046312177 490.92281303602056 364.45969125214407 Q 511.12178387650084 341.62607204116637 512 309.1320754716981 L 512 309.1320754716981 L 512 309.1320754716981 L 512 274.0034305317324 L 512 274.0034305317324 Q 511.12178387650084 213.4065180102916 482.14065180102915 164.22641509433961 Q 453.15951972555746 115.04631217838765 403.9794168096055 86.06518010291595 Q 354.7993138936535 57.084048027444254 294.2024013722127 56.20583190394511 L 273.12521440823326 56.20583190394511 L 273.12521440823326 56.20583190394511 Z M 326.69639794168097 201.1114922813036 L 339.8696397941681 224.82332761578044 L 326.69639794168097 201.1114922813036 L 339.8696397941681 224.82332761578044 L 309.1320754716981 224.82332761578044 L 309.1320754716981 224.82332761578044 L 326.69639794168097 201.1114922813036 L 326.69639794168097 201.1114922813036 Z M 236.2401372212693 197.59862778730704 L 252.926243567753 224.82332761578044 L 236.2401372212693 197.59862778730704 L 252.926243567753 224.82332761578044 L 215.16295025728988 224.82332761578044 L 215.16295025728988 224.82332761578044 L 236.2401372212693 197.59862778730704 L 236.2401372212693 197.59862778730704 Z M 95.72555746140652 266.9777015437393 L 128.21955403087478 266.9777015437393 L 95.72555746140652 266.9777015437393 L 128.21955403087478 266.9777015437393 L 95.72555746140652 307.37564322469984 L 95.72555746140652 307.37564322469984 L 87.82161234991423 303.86277873070327 L 87.82161234991423 303.86277873070327 Q 77.28301886792453 298.5934819897084 76.40480274442538 286.2984562607204 Q 78.16123499142367 268.7341337907376 95.72555746140652 266.9777015437393 L 95.72555746140652 266.9777015437393 Z M 181.79073756432248 266.9777015437393 L 427.69125214408234 266.9777015437393 L 181.79073756432248 266.9777015437393 L 427.69125214408234 266.9777015437393 Q 445.25557461406515 267.85591766723843 457.5506003430532 279.27272727272725 Q 468.967409948542 291.5677530017153 469.84562607204117 309.1320754716981 Q 468.967409948542 326.69639794168097 457.5506003430532 338.99142367066895 Q 445.25557461406515 350.40823327615783 427.69125214408234 351.28644939965693 L 407.49228130360206 351.28644939965693 L 407.49228130360206 351.28644939965693 Q 406.6140651801029 351.28644939965693 406.6140651801029 351.28644939965693 Q 406.6140651801029 351.28644939965693 406.6140651801029 351.28644939965693 Q 406.6140651801029 351.28644939965693 406.6140651801029 351.28644939965693 Q 406.6140651801029 351.28644939965693 406.6140651801029 351.28644939965693 L 218.67581475128645 351.28644939965693 L 218.67581475128645 351.28644939965693 Q 190.5728987993139 351.28644939965693 165.9828473413379 339.8696397941681 L 135.24528301886792 325.8181818181818 L 135.24528301886792 325.8181818181818 L 181.79073756432248 266.9777015437393 L 181.79073756432248 266.9777015437393 Z M 420.6655231560892 330.20926243567754 Q 439.9862778730703 328.45283018867923 441.74271012006864 309.1320754716981 Q 439.9862778730703 289.811320754717 420.6655231560892 288.0548885077187 Q 401.34476843910807 289.811320754717 399.58833619210975 309.1320754716981 Q 401.34476843910807 328.45283018867923 420.6655231560892 330.20926243567754 L 420.6655231560892 330.20926243567754 Z" />
</svg>