<svg xmlns="http://www.w3.org/2000/svg" viewBox="0 0 512 512">
  <path d="M 443.39869281045753 39.3202614379085 Q 417.4640522875817 40.15686274509804 403.24183006535947 61.908496732026144 L 393.202614379085 79.47712418300654 L 393.202614379085 79.47712418300654 Q 356.3921568627451 81.15032679738562 332.9673202614379 105.41176470588235 Q 308.70588235294116 129.67320261437908 307.8692810457516 166.48366013071896 Q 307.8692810457516 185.72549019607843 316.2352941176471 202.45751633986927 Q 305.359477124183 199.94771241830065 294.48366013071893 199.94771241830065 Q 262.6928104575163 200.7843137254902 240.94117647058823 220.0261437908497 Q 230.0653594771242 189.90849673202615 204.13071895424838 172.33986928104576 Q 178.19607843137254 153.9346405228758 144.73202614379085 153.09803921568627 L 131.34640522875816 153.09803921568627 L 131.34640522875816 153.09803921568627 Q 75.29411764705883 154.77124183006535 38.48366013071895 191.58169934640523 Q 1.673202614379085 228.3921568627451 0 284.44444444444446 Q 0.8366013071895425 317.0718954248366 22.58823529411765 337.98692810457516 Q 43.50326797385621 359.73856209150324 76.13071895424837 360.57516339869284 L 100.3921568627451 360.57516339869284 L 100.3921568627451 360.57516339869284 L 56.052287581699346 437.5424836601307 L 56.052287581699346 437.5424836601307 Q 48.52287581699346 454.27450980392155 63.58169934640523 465.1503267973856 Q 80.31372549019608 472.67973856209153 91.18954248366013 457.62091503267976 L 144.73202614379085 363.921568627451 L 144.73202614379085 363.921568627451 Q 145.5686274509804 362.2483660130719 146.40522875816993 360.57516339869284 L 153.9346405228758 360.57516339869284 L 153.9346405228758 360.57516339869284 Q 160.62745098039215 360.57516339869284 168.15686274509804 359.73856209150324 L 122.98039215686275 437.5424836601307 L 122.98039215686275 437.5424836601307 Q 115.45098039215686 454.27450980392155 130.50980392156862 465.1503267973856 Q 147.24183006535947 472.67973856209153 158.11764705882354 457.62091503267976 L 230.90196078431373 329.62091503267976 L 230.90196078431373 329.62091503267976 Q 236.75816993464053 337.1503267973856 244.28758169934642 343.0065359477124 L 243.45098039215685 343.84313725490193 L 243.45098039215685 343.84313725490193 L 243.45098039215685 343.84313725490193 L 243.45098039215685 343.84313725490193 L 189.90849673202615 437.5424836601307 L 189.90849673202615 437.5424836601307 Q 182.37908496732027 454.27450980392155 197.43790849673204 465.1503267973856 Q 214.16993464052288 472.67973856209153 225.04575163398692 457.62091503267976 L 278.5882352941176 363.921568627451 L 278.5882352941176 363.921568627451 L 281.0980392156863 359.73856209150324 L 281.0980392156863 359.73856209150324 Q 287.7908496732026 360.57516339869284 294.48366013071893 360.57516339869284 Q 311.2156862745098 360.57516339869284 326.27450980392155 353.88235294117646 L 359.73856209150324 387.34640522875816 L 359.73856209150324 387.34640522875816 Q 363.921568627451 391.52941176470586 367.26797385620915 398.22222222222223 L 389.8562091503268 455.1111111111111 L 389.8562091503268 455.1111111111111 Q 398.22222222222223 471.0065359477124 415.7908496732026 465.98692810457516 Q 432.52287581699346 457.62091503267976 426.6666666666667 440.0522875816994 L 404.078431372549 383.16339869281046 L 404.078431372549 383.16339869281046 Q 398.22222222222223 368.94117647058823 388.1830065359477 358.9019607843137 L 358.06535947712416 328.7843137254902 L 358.06535947712416 328.7843137254902 Q 361.4117647058824 325.437908496732 363.08496732026146 321.2549019607843 L 435.8692810457516 373.12418300653593 L 435.8692810457516 373.12418300653593 Q 445.0718954248366 379.8169934640523 448.41830065359477 389.8562091503268 L 469.3333333333333 454.27450980392155 L 469.3333333333333 454.27450980392155 Q 476.8627450980392 471.0065359477124 495.26797385620915 466.8235294117647 Q 512 459.29411764705884 507.8169934640523 440.8888888888889 L 486.9019607843137 377.3071895424837 L 486.9019607843137 377.3071895424837 Q 478.5359477124183 354.718954248366 459.29411764705884 340.4967320261438 L 379.8169934640523 283.6078431372549 L 379.8169934640523 283.6078431372549 L 374.797385620915 280.26143790849676 L 374.797385620915 280.26143790849676 L 374.797385620915 280.26143790849676 L 374.797385620915 280.26143790849676 Q 374.797385620915 263.52941176470586 368.94117647058823 249.30718954248366 Q 381.4901960784314 253.49019607843138 394.87581699346407 253.49019607843138 L 444.2352941176471 253.49019607843138 L 444.2352941176471 253.49019607843138 Q 471.84313725490193 252.65359477124184 490.2483660130719 234.2483660130719 Q 507.8169934640523 216.6797385620915 508.65359477124184 189.0718954248366 Q 508.65359477124184 152.26143790849673 488.57516339869284 125.49019607843137 Q 468.4967320261438 97.88235294117646 435.8692810457516 85.33333333333333 L 438.37908496732024 82.82352941176471 L 438.37908496732024 82.82352941176471 Q 440.0522875816994 79.47712418300654 443.39869281045753 79.47712418300654 L 488.57516339869284 79.47712418300654 L 488.57516339869284 79.47712418300654 Q 506.98039215686276 77.80392156862744 508.65359477124184 59.39869281045752 Q 506.98039215686276 40.99346405228758 488.57516339869284 39.3202614379085 L 443.39869281045753 39.3202614379085 L 443.39869281045753 39.3202614379085 Z M 348.0261437908497 166.48366013071896 Q 348.8627450980392 146.40522875816993 361.4117647058824 133.01960784313727 L 361.4117647058824 133.01960784313727 L 361.4117647058824 133.01960784313727 Q 374.797385620915 120.47058823529412 394.87581699346407 119.63398692810458 L 399.05882352941177 119.63398692810458 L 399.05882352941177 119.63398692810458 Q 428.33986928104576 120.47058823529412 448.41830065359477 139.71241830065358 Q 467.66013071895424 159.79084967320262 468.4967320261438 189.0718954248366 Q 468.4967320261438 199.11111111111111 460.9673202614379 205.80392156862746 Q 454.27450980392155 213.33333333333334 444.2352941176471 213.33333333333334 L 394.87581699346407 213.33333333333334 L 394.87581699346407 213.33333333333334 Q 374.797385620915 212.4967320261438 361.4117647058824 199.94771241830065 Q 348.8627450980392 186.56209150326796 348.0261437908497 166.48366013071896 L 348.0261437908497 166.48366013071896 Z M 334.640522875817 280.26143790849676 Q 333.80392156862746 302.8496732026144 314.562091503268 315.39869281045753 Q 294.48366013071893 325.437908496732 274.4052287581699 315.39869281045753 Q 255.16339869281046 302.8496732026144 254.32679738562092 280.26143790849676 Q 255.16339869281046 257.6732026143791 274.4052287581699 245.12418300653596 Q 294.48366013071893 235.08496732026143 314.562091503268 245.12418300653596 Q 333.80392156862746 257.6732026143791 334.640522875817 280.26143790849676 L 334.640522875817 280.26143790849676 Z M 131.34640522875816 193.2549019607843 L 144.73202614379085 193.2549019607843 L 131.34640522875816 193.2549019607843 L 144.73202614379085 193.2549019607843 Q 171.5032679738562 194.09150326797385 189.0718954248366 211.66013071895424 Q 206.640522875817 229.22875816993465 207.47712418300654 256 L 207.47712418300654 266.87581699346407 L 207.47712418300654 266.87581699346407 Q 206.640522875817 289.4640522875817 191.58169934640523 304.52287581699346 Q 176.52287581699346 319.58169934640523 153.9346405228758 320.41830065359477 L 76.13071895424837 320.41830065359477 L 76.13071895424837 320.41830065359477 Q 61.071895424836605 320.41830065359477 51.032679738562095 310.37908496732024 Q 40.15686274509804 299.5032679738562 40.15686274509804 284.44444444444446 Q 40.99346405228758 245.9607843137255 66.9281045751634 220.0261437908497 Q 92.86274509803921 194.09150326797385 131.34640522875816 193.2549019607843 L 131.34640522875816 193.2549019607843 Z M 435.0326797385621 159.79084967320262 Q 433.359477124183 141.3856209150327 414.9542483660131 139.71241830065358 Q 396.54901960784315 141.3856209150327 394.87581699346407 159.79084967320262 Q 396.54901960784315 178.19607843137254 414.9542483660131 179.86928104575162 Q 433.359477124183 178.19607843137254 435.0326797385621 159.79084967320262 L 435.0326797385621 159.79084967320262 Z" />
</svg>