<svg xmlns="http://www.w3.org/2000/svg" viewBox="0 0 512 512">
  <path d="M 376 247.6 Q 384 226 384 202 Q 384.8 182.8 372 153.2 Q 359.2 123.6 324.8 88.4 Q 316.8 81.2 307.2 81.2 Q 298.4 82 290.4 89.2 L 281.6 98 L 281.6 98 L 244.8 61.2 L 244.8 61.2 Q 236.8 54 227.2 54 Q 220 54 213.6 58.8 Q 184.8 79.6 157.6 118 Q 130.4 155.6 128 202 Q 128 226 136 247.6 Q 148 251.6 157.6 257.2 Q 179.2 234.8 208 223.6 Q 214.4 206 227.2 191.6 Q 239.2 177.2 248.8 170 Q 256 164.4 263.2 170 Q 272.8 177.2 284.8 191.6 Q 297.6 206 304 223.6 Q 333.6 234.8 354.4 257.2 Q 364.8 250.8 376 247.6 L 376 247.6 Z M 186.4 337.2 Q 191.2 311.6 210.4 295.6 L 210.4 295.6 L 210.4 295.6 Q 229.6 279.6 256 278.8 Q 282.4 279.6 301.6 295.6 Q 320.8 311.6 325.6 337.2 Q 328.8 350.8 342.4 353.2 Q 356.8 354 362.4 341.2 Q 368.8 324.4 383.2 314.8 Q 397.6 304.4 416 304.4 Q 440.8 305.2 456.8 321.2 Q 472.8 337.2 473.6 362 Q 472.8 385.2 458.4 401.2 Q 443.2 417.2 420.8 419.6 Q 420 419.6 420 419.6 Q 420 419.6 419.2 419.6 L 416 419.6 L 92.8 419.6 Q 92.8 419.6 92.8 419.6 Q 92 419.6 91.2 419.6 Q 68.8 417.2 53.6 401.2 Q 39.2 385.2 38.4 362 Q 39.2 337.2 55.2 321.2 Q 71.2 305.2 96 304.4 Q 114.4 304.4 128.8 314.8 Q 143.2 324.4 149.6 341.2 Q 156 354 169.6 353.2 Q 183.2 350.8 186.4 337.2 L 186.4 337.2 Z M 256 240.4 Q 226.4 240.4 201.6 254.8 L 201.6 254.8 L 201.6 254.8 Q 177.6 269.2 163.2 293.2 Q 136 266.8 96 266 Q 55.2 266.8 28 294 Q 0.8 321.2 0 362 Q 0.8 399.6 24 426 Q 48 452.4 84.8 457.2 Q 87.2 458 89.6 458 L 96 458 L 422.4 458 Q 424.8 458 427.2 457.2 Q 464 452.4 488 426 Q 511.2 399.6 512 362 Q 511.2 321.2 484 294 Q 456.8 266.8 416 266 Q 376 266.8 349.6 293.2 Q 334.4 269.2 310.4 254.8 Q 285.6 240.4 256 240.4 L 256 240.4 Z" />
</svg>