<svg xmlns="http://www.w3.org/2000/svg" viewBox="0 0 512 512">
  <path d="M 438.21835 121.85153 Q 415.86026 171.0393 384.55896 205.69432 Q 355.49344 234.75983 326.42795 251.52838 Q 298.48035 269.41486 271.65067 281.7118 L 270.53275 281.7118 L 270.53275 281.7118 Q 243.70306 295.12665 219.10918 309.6594 Q 193.39738 325.31006 169.9214 348.78604 Q 156.50655 363.3188 141.9738 385.67685 Q 127.44105 409.15283 115.144104 434.86462 Q 154.27074 458.3406 212.40175 450.5153 Q 292.89084 439.33624 367.7904 367.7904 Q 439.33624 292.89084 450.5153 212.40175 Q 457.22272 158.74236 438.21835 121.85153 L 438.21835 121.85153 Z M 400.2096 78.25327 Q 359.96506 52.541485 298.48035 60.366814 Q 219.10918 71.54585 143.0917 143.0917 Q 71.54585 219.10918 61.484715 298.48035 Q 53.65939 355.49344 74.89957 394.6201 Q 100.61135 345.4323 131.91266 310.77728 Q 160.97816 281.7118 190.04367 264.94324 Q 217.99127 247.05676 245.93886 234.75983 L 245.93886 234.75983 L 245.93886 234.75983 Q 272.76855 221.34497 297.36246 206.81223 Q 323.07425 191.16158 346.55023 167.6856 Q 361.08298 153.15283 374.4978 129.67685 Q 387.91266 105.08297 400.2096 78.25327 L 400.2096 78.25327 Z M 456.1048 55.895195 Q 497.46725 98.37555 504.17468 158.74236 L 504.17468 158.74236 L 504.17468 158.74236 Q 512 219.10918 486.2882 283.9476 L 486.2882 283.9476 L 486.2882 283.9476 Q 461.69434 349.90393 405.79913 405.79913 Q 349.90393 461.69434 283.9476 486.2882 Q 219.10918 512 158.74236 504.17468 Q 98.37555 497.46725 55.895195 456.1048 Q 14.532751 413.62445 6.7074237 353.25763 Q 0 291.77292 24.593887 226.9345 Q 50.305676 162.09607 105.08297 105.08297 Q 162.09607 50.305676 226.9345 24.593887 Q 292.89084 0 353.25763 6.7074237 Q 413.62445 14.532751 456.1048 54.777294 L 456.1048 55.895195 Z" />
</svg>