<svg xmlns="http://www.w3.org/2000/svg" viewBox="0 0 618 447">
    <path d="M 6 93 Q 0 107 6 120 L 6 120 Q 11 133 26 138 L 189 184 Q 212 189 226 170 L 309 31 L 64 0 Q 53 0 48 9 L 6 93 L 6 93 Z M 309 31 L 392 170 Q 406 189 429 184 L 592 138 Q 607 133 612 120 Q 618 107 612 93 L 570 9 Q 565 0 554 0 L 309 31 L 309 31 Z M 308 95 L 310 95 L 310 95 L 308 95 L 308 95 L 308 95 Z M 517 192 L 517 346 L 333 392 L 333 151 Q 331 129 309 127 Q 287 129 285 151 L 285 392 L 101 346 L 101 192 L 53 179 L 53 346 Q 53 362 63 375 Q 73 388 89 392 L 294 443 Q 309 447 325 443 L 529 392 Q 545 388 555 375 Q 565 363 565 346 L 565 179 L 517 192 L 517 192 Z"/>
</svg>
