<svg xmlns="http://www.w3.org/2000/svg" viewBox="0 0 654 526">
    <path d="M 46 12 Q 27 0 12 16 Q 0 35 16 50 L 608 514 Q 627 526 642 510 Q 654 491 638 476 L 356 255 L 403 87 L 528 87 L 520 121 Q 516 143 537 150 Q 559 154 566 133 L 577 89 Q 581 69 570 54 Q 559 40 539 39 L 204 39 Q 174 41 165 69 L 157 99 L 46 12 L 46 12 Z M 199 132 L 210 87 L 354 87 L 315 223 L 199 132 L 199 132 Z M 256 433 L 254 439 L 199 439 Q 177 441 175 463 Q 177 485 199 487 L 359 487 Q 381 485 383 463 Q 381 441 359 439 L 304 439 L 328 356 L 287 323 L 256 433 L 256 433 Z"/>
</svg>
