<svg xmlns="http://www.w3.org/2000/svg" viewBox="0 0 512 512">
  <path d="M 179.2 89.6 Q 215.2 90.4 234.4 121.6 Q 252 153.6 234.4 185.6 Q 215.2 216.8 179.2 217.6 Q 143.2 216.8 124 185.6 Q 106.4 153.6 124 121.6 Q 143.2 90.4 179.2 89.6 L 179.2 89.6 Z M 179.2 256 Q 207.2 256 230.4 242.4 L 230.4 242.4 L 230.4 242.4 Q 253.6 228.8 268 204.8 Q 281.6 180.8 281.6 153.6 Q 281.6 126.4 268 102.4 Q 253.6 78.4 230.4 64.8 Q 207.2 51.2 179.2 51.2 Q 151.2 51.2 128 64.8 Q 104.8 78.4 90.4 102.4 Q 76.8 126.4 76.8 153.6 Q 76.8 180.8 90.4 204.8 Q 104.8 228.8 128 242.4 Q 151.2 256 179.2 256 L 179.2 256 Z M 142.4 332.8 L 216 332.8 L 142.4 332.8 L 216 332.8 Q 256 333.6 284.8 358.4 Q 312.8 383.2 319.2 422.4 L 39.2 422.4 L 39.2 422.4 Q 45.6 383.2 73.6 358.4 Q 102.4 333.6 142.4 332.8 L 142.4 332.8 Z M 142.4 294.4 Q 82.4 296 41.6 336 L 41.6 336 L 41.6 336 Q 1.6 376.8 0 436.8 Q 0 447.2 7.2 453.6 Q 13.6 460.8 24 460.8 L 334.4 460.8 L 334.4 460.8 Q 344.8 460.8 351.2 453.6 Q 358.4 447.2 358.4 436.8 Q 356.8 376.8 316.8 336 Q 276 296 216 294.4 L 142.4 294.4 L 142.4 294.4 Z M 487.2 460.8 Q 497.6 460.8 504.8 453.6 L 504.8 453.6 L 504.8 453.6 Q 512 446.4 512 436 Q 510.4 381.6 474.4 344.8 Q 437.6 308.8 383.2 307.2 L 333.6 307.2 L 333.6 307.2 Q 328.8 307.2 323.2 308 Q 351.2 331.2 367.2 364 Q 384 397.6 384 436.8 Q 384 450.4 377.6 460.8 L 487.2 460.8 L 487.2 460.8 Z M 345.6 256 Q 384 255.2 408.8 229.6 L 408.8 229.6 L 408.8 229.6 Q 434.4 204.8 435.2 166.4 Q 434.4 128 408.8 103.2 Q 384 77.6 345.6 76.8 Q 315.2 77.6 292.8 94.4 Q 307.2 120.8 307.2 153.6 Q 306.4 196.8 282.4 229.6 Q 307.2 255.2 345.6 256 L 345.6 256 Z" />
</svg>