<svg xmlns="http://www.w3.org/2000/svg" viewBox="0 0 512 512">
  <path d="M 256 52.66285714285714 Q 256.97523809523807 26.33142857142857 279.4057142857143 11.702857142857143 Q 302.81142857142856 0 326.21714285714285 11.702857142857143 Q 348.64761904761906 26.33142857142857 349.62285714285713 52.66285714285714 Q 348.64761904761906 78.99428571428571 326.21714285714285 93.62285714285714 Q 302.81142857142856 105.32571428571428 279.4057142857143 93.62285714285714 Q 256.97523809523807 78.99428571428571 256 52.66285714285714 L 256 52.66285714285714 Z M 267.70285714285717 178.46857142857144 L 238.44571428571427 266.24 L 267.70285714285717 178.46857142857144 L 238.44571428571427 266.24 Q 236.4952380952381 271.11619047619047 240.39619047619047 274.0419047619048 L 256.97523809523807 287.6952380952381 L 256.97523809523807 287.6952380952381 L 288.18285714285713 186.2704761904762 L 288.18285714285713 186.2704761904762 Q 288.18285714285713 186.2704761904762 288.18285714285713 185.2952380952381 Q 288.18285714285713 185.2952380952381 288.18285714285713 185.2952380952381 Q 278.4304761904762 180.41904761904763 267.70285714285717 178.46857142857144 L 267.70285714285717 178.46857142857144 Z M 323.2914285714286 230.1561904761905 L 295.9847619047619 318.90285714285716 L 323.2914285714286 230.1561904761905 L 295.9847619047619 318.90285714285716 L 344.74666666666667 358.88761904761907 L 344.74666666666667 358.88761904761907 Q 354.49904761904764 367.6647619047619 358.4 380.34285714285716 L 379.8552380952381 476.89142857142855 L 379.8552380952381 476.89142857142855 Q 382.7809523809524 497.37142857142857 362.30095238095237 504.1980952380952 Q 341.8209523809524 507.12380952380954 334.9942857142857 486.6438095238095 L 313.5390476190476 393.0209523809524 L 313.5390476190476 393.0209523809524 L 211.13904761904763 311.1009523809524 L 211.13904761904763 311.1009523809524 Q 183.83238095238096 286.72 193.5847619047619 250.63619047619048 L 216.0152380952381 184.32 L 216.0152380952381 184.32 Q 178.95619047619047 199.92380952380952 161.40190476190477 236.00761904761904 L 152.6247619047619 257.46285714285716 L 152.6247619047619 257.46285714285716 Q 141.89714285714285 275.9923809523809 121.41714285714286 269.1657142857143 Q 102.88761904761905 258.43809523809523 109.71428571428571 237.95809523809524 L 119.46666666666667 217.47809523809525 L 119.46666666666667 217.47809523809525 Q 145.79809523809524 158.96380952380952 206.26285714285714 138.48380952380953 Q 228.69333333333333 130.68190476190478 252.0990476190476 130.68190476190478 L 256.97523809523807 130.68190476190478 L 256.97523809523807 130.68190476190478 Q 295.9847619047619 131.65714285714284 326.21714285714285 154.08761904761906 Q 356.4495238095238 176.51809523809524 368.15238095238095 213.57714285714286 L 377.9047619047619 251.61142857142858 L 377.9047619047619 251.61142857142858 L 405.2114285714286 277.9428571428571 L 405.2114285714286 277.9428571428571 Q 418.8647619047619 294.52190476190475 405.2114285714286 311.1009523809524 Q 388.63238095238097 324.7542857142857 372.05333333333334 311.1009523809524 L 343.77142857142854 282.81904761904764 L 343.77142857142854 282.81904761904764 Q 336.9447619047619 275.9923809523809 334.0190476190476 266.24 L 323.2914285714286 230.1561904761905 L 323.2914285714286 230.1561904761905 Z M 174.08 398.872380952381 L 197.4857142857143 339.3828571428571 L 174.08 398.872380952381 L 197.4857142857143 339.3828571428571 L 235.52 370.5904761904762 L 235.52 370.5904761904762 L 216.0152380952381 417.40190476190475 L 216.0152380952381 417.40190476190475 Q 213.0895238095238 424.22857142857146 208.21333333333334 430.08 L 139.94666666666666 498.3466666666667 L 139.94666666666666 498.3466666666667 Q 123.36761904761904 512 106.78857142857143 498.3466666666667 Q 93.1352380952381 481.76761904761906 106.78857142857143 465.18857142857144 L 174.08 398.872380952381 L 174.08 398.872380952381 Z" />
</svg>