<svg xmlns="http://www.w3.org/2000/svg" viewBox="0 0 512 512">
  <path d="M 284.44446 128 Q 297.77777 128.88889 298.66666 142.22223 L 298.66666 369.77777 L 298.66666 369.77777 Q 297.77777 383.1111 284.44446 384 L 56.88889 384 L 56.88889 384 Q 43.555557 383.1111 42.666668 369.77777 L 42.666668 142.22223 L 42.666668 142.22223 Q 43.555557 128.88889 56.88889 128 L 284.44446 128 L 284.44446 128 Z M 56.88889 85.333336 Q 32.88889 86.22222 16.88889 102.22222 L 16.88889 102.22222 L 16.88889 102.22222 Q 0.8888889 118.22222 0 142.22223 L 0 369.77777 L 0 369.77777 Q 0.8888889 393.77777 16.88889 409.77777 Q 32.88889 425.77777 56.88889 426.66666 L 284.44446 426.66666 L 284.44446 426.66666 Q 308.44446 425.77777 324.44446 409.77777 Q 340.44446 393.77777 341.33334 369.77777 L 341.33334 340.44446 L 341.33334 340.44446 L 341.33334 171.55556 L 341.33334 171.55556 L 341.33334 142.22223 L 341.33334 142.22223 Q 340.44446 118.22222 324.44446 102.22222 Q 308.44446 86.22222 284.44446 85.333336 L 56.88889 85.333336 L 56.88889 85.333336 Z M 469.33334 160.88889 L 469.33334 351.1111 L 469.33334 160.88889 L 469.33334 351.1111 L 369.77777 306.66666 L 369.77777 306.66666 L 369.77777 353.77777 L 369.77777 353.77777 L 462.22223 395.55554 L 462.22223 395.55554 Q 469.33334 398.22223 477.33334 398.22223 Q 491.55554 398.22223 501.33334 387.55554 Q 512 377.77777 512 363.55554 L 512 149.33333 L 512 149.33333 Q 512 134.22223 501.33334 124.44444 Q 491.55554 113.77778 477.33334 113.77778 Q 469.33334 113.77778 462.22223 117.333336 L 369.77777 158.22223 L 369.77777 158.22223 L 369.77777 205.33333 L 369.77777 205.33333 L 469.33334 160.88889 L 469.33334 160.88889 Z M 206.22223 341.33334 Q 225.77777 339.55554 227.55556 320 Q 225.77777 300.44446 206.22223 298.66666 L 158.22223 298.66666 L 158.22223 298.66666 L 249.77777 207.11111 L 249.77777 207.11111 Q 262.22223 192 249.77777 176.88889 Q 234.66667 164.44444 219.55556 176.88889 L 128 268.44446 L 128 268.44446 L 128 220.44444 L 128 220.44444 Q 126.22222 200.88889 106.666664 199.11111 Q 87.111115 200.88889 85.333336 220.44444 L 85.333336 320 L 85.333336 320 Q 87.111115 339.55554 106.666664 341.33334 L 206.22223 341.33334 L 206.22223 341.33334 Z" />
</svg>