<svg xmlns="http://www.w3.org/2000/svg" viewBox="0 0 511 512">
    <path d="M 40 256 Q 41 329 82 384 L 82 384 Q 123 439 189 461 Q 139 427 110 374 Q 81 321 80 256 Q 81 191 110 138 Q 139 85 189 51 Q 123 73 82 128 Q 41 183 40 256 L 40 256 Z M 256 0 Q 289 0 320 8 Q 324 9 328 10 Q 330 11 332 12 Q 339 14 345 16 Q 346 16 347 17 Q 348 17 350 18 Q 361 23 359 36 Q 356 48 343 48 Q 340 48 338 48 Q 333 48 328 48 Q 327 48 327 48 Q 326 48 326 48 Q 322 48 319 48 Q 317 48 316 48 Q 232 55 177 113 Q 122 171 120 256 Q 122 341 177 399 Q 232 457 316 464 Q 320 464 325 464 Q 327 464 328 464 Q 333 464 338 464 Q 340 464 343 463 Q 356 463 359 476 Q 361 489 350 494 Q 348 495 347 495 Q 346 496 345 496 Q 339 498 332 500 Q 330 501 328 502 Q 324 503 320 504 Q 289 512 256 512 Q 184 511 127 477 Q 69 443 35 385 Q 1 328 0 256 Q 1 184 35 127 Q 69 69 127 35 Q 184 1 256 0 L 256 0 Z M 357 174 L 359 171 L 370 149 L 375 137 Q 378 132 384 132 Q 389 132 393 137 L 398 149 L 409 171 L 411 174 L 424 201 Q 426 206 431 207 L 461 211 L 465 211 L 489 215 L 502 217 Q 508 218 509 223 Q 511 229 507 233 L 498 242 L 480 259 L 477 262 L 456 283 Q 452 286 453 291 L 458 321 L 459 325 L 463 349 L 465 361 Q 466 367 461 371 Q 457 374 451 371 L 440 366 L 418 354 L 415 352 L 388 338 Q 384 336 379 338 L 353 352 L 349 354 L 328 366 L 316 371 Q 311 374 306 371 Q 302 367 303 361 L 305 349 L 309 325 L 309 321 L 315 291 Q 315 286 312 283 L 290 262 L 287 259 L 270 242 L 261 233 Q 257 229 258 223 Q 260 218 266 217 L 278 215 L 303 211 L 307 211 L 336 207 Q 341 206 344 201 L 357 174 L 357 174 Z M 350 253 Q 343 273 356 289 Q 371 305 392 301 Q 412 295 419 275 Q 425 255 412 239 Q 397 223 376 227 Q 356 233 350 253 L 350 253 Z"/>
</svg>
