<svg xmlns="http://www.w3.org/2000/svg" viewBox="0 0 647 519">
    <path d="M 299 48 Q 304 48 306 53 L 372 208 L 220 208 L 163 137 L 160 134 L 160 48 L 299 48 L 299 48 Z M 429 220 Q 428 219 428 217 L 428 217 Q 428 217 428 217 L 350 34 Q 335 2 299 0 L 152 0 Q 135 0 124 12 Q 112 23 112 40 L 112 128 L 96 128 Q 76 129 62 142 Q 49 156 48 176 L 48 308 Q 2 341 0 400 Q 1 448 33 479 Q 64 511 112 512 L 368 512 Q 416 511 447 479 Q 479 448 480 400 Q 480 369 465 344 L 512 344 L 512 400 Q 512 409 518 416 L 598 504 Q 614 519 632 506 Q 647 489 634 472 L 560 391 L 560 249 L 634 168 Q 647 151 632 134 Q 615 121 598 136 L 518 224 Q 512 231 512 240 L 512 296 L 432 296 L 432 239 L 432 232 Q 432 226 429 220 L 429 220 Z M 384 289 Q 376 288 368 288 L 112 288 Q 104 288 96 289 L 96 176 L 133 176 L 189 247 Q 197 256 208 256 L 384 256 L 384 289 L 384 289 Z M 112 336 L 368 336 Q 395 337 413 355 Q 431 373 432 400 Q 431 427 413 445 Q 395 463 368 464 L 112 464 Q 85 463 67 445 Q 49 427 48 400 Q 49 373 67 355 Q 85 337 112 336 L 112 336 Z M 144 400 Q 142 378 120 376 Q 98 378 96 400 Q 98 422 120 424 Q 142 422 144 400 L 144 400 Z M 200 424 Q 222 422 224 400 Q 222 378 200 376 Q 178 378 176 400 Q 178 422 200 424 L 200 424 Z M 304 400 Q 302 378 280 376 Q 258 378 256 400 Q 258 422 280 424 Q 302 422 304 400 L 304 400 Z M 360 424 Q 382 422 384 400 Q 382 378 360 376 Q 338 378 336 400 Q 338 422 360 424 L 360 424 Z"/>
</svg>
