<svg xmlns="http://www.w3.org/2000/svg" viewBox="0 0 576 512">
    <path d="M 144 352 L 144 128 L 528 128 L 528 352 Q 527 367 512 368 L 160 368 Q 145 367 144 352 L 144 352 Z M 160 0 Q 133 1 115 19 L 115 19 Q 97 37 96 64 L 96 352 Q 97 379 115 397 Q 133 415 160 416 L 512 416 Q 539 415 557 397 Q 575 379 576 352 L 576 64 Q 575 37 557 19 Q 539 1 512 0 L 160 0 L 160 0 Z M 48 120 Q 46 98 24 96 Q 2 98 0 120 L 0 376 Q 1 434 40 472 Q 78 511 136 512 L 456 512 Q 478 510 480 488 Q 478 466 456 464 L 136 464 Q 99 463 74 438 Q 49 413 48 376 L 48 120 L 48 120 Z"/>
</svg>
