<svg xmlns="http://www.w3.org/2000/svg" viewBox="0 0 512 512">
  <path d="M 56.09562 315.15536 Q 41.816734 332.49402 56.09562 349.83267 L 129.52988 423.26694 L 129.52988 423.26694 Q 136.66933 430.40637 146.86853 430.40637 L 257.01993 430.40637 L 257.01993 430.40637 Q 267.21912 430.40637 274.35855 423.26694 L 340.65338 356.9721 L 340.65338 356.9721 L 177.46614 193.78487 L 177.46614 193.78487 L 56.09562 315.15536 L 56.09562 315.15536 Z M 247.84064 54.05578 Q 270.27887 32.63745 299.85657 32.63745 L 299.85657 32.63745 L 299.85657 32.63745 Q 329.43427 32.63745 351.8725 54.05578 L 480.38248 182.56573 L 480.38248 182.56573 Q 501.8008 205.00398 501.8008 234.58168 Q 501.8008 264.15936 480.38248 286.5976 L 336.5737 430.40637 L 336.5737 430.40637 L 487.5219 430.40637 L 487.5219 430.40637 Q 509.96017 432.44623 512 454.88446 Q 509.96017 477.32272 487.5219 479.36255 L 259.05975 479.36255 L 259.05975 479.36255 L 259.05975 479.36255 L 259.05975 479.36255 Q 259.05975 479.36255 258.03983 479.36255 Q 258.03983 479.36255 257.01993 479.36255 L 146.86853 479.36255 L 146.86853 479.36255 Q 116.27092 479.36255 94.85259 457.9442 L 21.418327 384.50995 L 21.418327 384.50995 Q 0 362.07172 0 332.49402 Q 0 302.91632 21.418327 280.4781 L 247.84064 54.05578 L 247.84064 54.05578 Z" />
</svg>