<svg xmlns="http://www.w3.org/2000/svg" viewBox="0 0 512 512">
  <path d="M 140 48 L 372 48 L 140 48 L 372 48 Q 377 48 379 52 L 393 80 L 393 80 L 120 80 L 120 80 L 133 53 L 133 53 Q 135 48 140 48 L 140 48 Z M 447 80 L 422 31 L 447 80 L 422 31 Q 406 1 372 0 L 140 0 L 140 0 Q 106 1 90 32 L 67 80 L 67 80 L 56 80 L 56 80 Q 34 82 32 104 Q 34 126 56 128 L 82 128 L 456 128 Q 478 126 480 104 Q 478 82 456 80 L 447 80 L 447 80 Z M 79 160 L 107 454 L 79 160 L 107 454 Q 109 479 127 495 Q 145 511 170 512 L 342 512 L 342 512 Q 367 511 385 495 Q 403 479 405 454 L 433 160 L 433 160 L 384 160 L 384 160 L 379 224 L 379 224 L 134 224 L 134 224 L 128 160 L 128 160 L 79 160 L 79 160 Z M 148 384 L 364 384 L 148 384 L 364 384 L 358 450 L 358 450 Q 355 463 342 464 L 170 464 L 170 464 Q 157 463 154 450 L 148 384 L 148 384 Z" />
</svg>