<svg xmlns="http://www.w3.org/2000/svg" viewBox="0 0 647 518">
    <path d="M 311 12 Q 295 0 279 12 L 15 236 Q 0 251 13 270 Q 28 285 46 272 L 71 252 L 71 438 Q 72 472 94 495 Q 117 517 151 518 L 402 518 Q 374 498 356 470 L 343 470 L 343 470 L 247 470 L 247 326 L 334 326 Q 341 300 355 278 Q 353 278 351 278 Q 351 278 351 278 L 239 278 Q 222 278 211 290 Q 199 301 199 318 L 199 470 L 151 470 Q 137 470 128 461 Q 119 452 119 438 L 119 211 L 295 62 L 462 203 Q 482 198 503 198 Q 518 198 533 201 L 311 12 L 311 12 Z M 647 374 Q 647 335 628 302 L 628 302 Q 609 269 575 249 Q 541 230 503 230 Q 465 230 431 249 Q 397 269 378 302 Q 359 335 359 374 Q 359 413 378 446 Q 397 479 431 499 Q 465 518 503 518 Q 541 518 575 499 Q 609 479 628 446 Q 647 413 647 374 L 647 374 Z M 570 331 Q 580 342 570 353 L 498 425 Q 487 435 476 425 L 436 385 Q 426 374 436 363 Q 447 353 458 363 L 487 391 L 548 331 Q 559 321 570 331 L 570 331 Z"/>
</svg>
