<svg xmlns="http://www.w3.org/2000/svg" viewBox="0 0 512 512">
  <path d="M 54.857142857142854 438.85714285714283 Q 56 456 73.14285714285714 457.14285714285717 L 438.85714285714283 457.14285714285717 L 438.85714285714283 457.14285714285717 Q 456 456 457.14285714285717 438.85714285714283 L 457.14285714285717 73.14285714285714 L 457.14285714285717 73.14285714285714 Q 456 56 438.85714285714283 54.857142857142854 L 73.14285714285714 54.857142857142854 L 73.14285714285714 54.857142857142854 Q 56 56 54.857142857142854 73.14285714285714 L 54.857142857142854 438.85714285714283 L 54.857142857142854 438.85714285714283 Z M 73.14285714285714 512 Q 42.285714285714285 510.85714285714283 21.714285714285715 490.2857142857143 L 21.714285714285715 490.2857142857143 L 21.714285714285715 490.2857142857143 Q 1.1428571428571428 469.7142857142857 0 438.85714285714283 L 0 73.14285714285714 L 0 73.14285714285714 Q 1.1428571428571428 42.285714285714285 21.714285714285715 21.714285714285715 Q 42.285714285714285 1.1428571428571428 73.14285714285714 0 L 438.85714285714283 0 L 438.85714285714283 0 Q 469.7142857142857 1.1428571428571428 490.2857142857143 21.714285714285715 Q 510.85714285714283 42.285714285714285 512 73.14285714285714 L 512 438.85714285714283 L 512 438.85714285714283 Q 510.85714285714283 469.7142857142857 490.2857142857143 490.2857142857143 Q 469.7142857142857 510.85714285714283 438.85714285714283 512 L 73.14285714285714 512 L 73.14285714285714 512 Z M 211.42857142857142 376 L 115.42857142857143 272 L 211.42857142857142 376 L 115.42857142857143 272 Q 109.71428571428571 265.14285714285717 109.71428571428571 256 Q 109.71428571428571 246.85714285714286 115.42857142857143 240 L 211.42857142857142 136 L 211.42857142857142 136 Q 219.42857142857142 128 230.85714285714286 128 Q 253.71428571428572 130.28571428571428 256 153.14285714285714 L 256 201.14285714285714 L 256 201.14285714285714 L 365.7142857142857 201.14285714285714 L 365.7142857142857 201.14285714285714 Q 381.7142857142857 201.14285714285714 392 211.42857142857142 Q 402.2857142857143 221.71428571428572 402.2857142857143 237.71428571428572 L 402.2857142857143 274.2857142857143 L 402.2857142857143 274.2857142857143 Q 402.2857142857143 290.2857142857143 392 300.57142857142856 Q 381.7142857142857 310.85714285714283 365.7142857142857 310.85714285714283 L 256 310.85714285714283 L 256 310.85714285714283 L 256 358.85714285714283 L 256 358.85714285714283 Q 253.71428571428572 381.7142857142857 230.85714285714286 384 Q 219.42857142857142 384 211.42857142857142 376 L 211.42857142857142 376 Z" />
</svg>