<svg xmlns="http://www.w3.org/2000/svg" viewBox="0 0 512 512">
  <path d="M 71 84 Q 94 46 112 48 L 325 48 L 325 48 Q 320 55 317 62 Q 289 116 288 192 Q 289 268 317 322 Q 320 329 325 336 L 112 336 L 112 336 Q 94 338 71 300 Q 49 259 48 192 Q 49 125 71 84 L 71 84 Z M 400 48 Q 418 46 441 84 Q 463 125 464 192 Q 463 259 441 300 Q 418 338 400 336 Q 382 338 359 300 Q 337 259 336 192 Q 337 125 359 84 Q 382 46 400 48 L 400 48 Z M 464 351 L 464 456 L 464 351 L 464 456 Q 463 463 456 464 L 216 464 L 216 464 Q 209 463 208 456 L 208 416 L 208 416 L 160 416 L 160 416 L 160 456 L 160 456 Q 161 480 176 496 Q 192 511 216 512 L 456 512 L 456 512 Q 480 511 496 496 Q 511 480 512 456 L 512 192 L 512 192 Q 511 116 484 62 Q 470 36 449 19 Q 428 1 400 0 L 112 0 L 112 0 Q 84 1 63 19 Q 42 36 29 62 Q 1 116 0 192 Q 1 268 29 322 Q 42 348 63 365 Q 84 383 112 384 L 400 384 L 400 384 Q 439 382 464 351 L 464 351 Z M 424 192 Q 424 172 417 158 L 417 158 L 417 158 Q 410 145 400 144 Q 390 145 383 158 Q 376 172 376 192 Q 376 212 383 226 Q 390 239 400 240 Q 410 239 417 226 Q 424 212 424 192 L 424 192 Z" />
</svg>