<svg xmlns="http://www.w3.org/2000/svg" viewBox="0 0 512 512">
  <path d="M 490.5389 73.58084 Q 512 47.520958 490.5389 21.461079 Q 464.47903 0 438.41916 21.461079 L 256 203.88023 L 256 203.88023 L 73.58084 21.461079 L 73.58084 21.461079 Q 47.520958 0 21.461079 21.461079 Q 0 47.520958 21.461079 73.58084 L 203.88023 256 L 203.88023 256 L 21.461079 438.41916 L 21.461079 438.41916 Q 0 464.47903 21.461079 490.5389 Q 47.520958 512 73.58084 490.5389 L 256 308.11975 L 256 308.11975 L 438.41916 490.5389 L 438.41916 490.5389 Q 464.47903 512 490.5389 490.5389 Q 512 464.47903 490.5389 438.41916 L 308.11975 256 L 308.11975 256 L 490.5389 73.58084 L 490.5389 73.58084 Z" />
</svg>