<svg xmlns="http://www.w3.org/2000/svg" viewBox="0 0 512 512">
  <path d="M 512 27.428572 Q 509.7143 2.2857144 484.57144 0 Q 459.42856 2.2857144 457.14285 27.428572 L 457.14285 429.7143 L 457.14285 429.7143 Q 454.85715 454.85715 429.7143 457.14285 L 27.428572 457.14285 L 27.428572 457.14285 Q 2.2857144 459.42856 0 484.57144 Q 2.2857144 509.7143 27.428572 512 L 429.7143 512 L 429.7143 512 Q 465.14285 510.85715 488 488 Q 510.85715 465.14285 512 429.7143 L 512 27.428572 L 512 27.428572 Z M 365.7143 73.14286 Q 381.7143 73.14286 392 62.857143 L 392 62.857143 L 392 62.857143 Q 402.2857 52.57143 402.2857 36.57143 Q 402.2857 20.571428 392 10.285714 Q 381.7143 0 365.7143 0 Q 349.7143 0 339.42856 10.285714 Q 329.14285 20.571428 329.14285 36.57143 Q 329.14285 52.57143 339.42856 62.857143 Q 349.7143 73.14286 365.7143 73.14286 L 365.7143 73.14286 Z M 146.28572 73.14286 Q 162.28572 73.14286 172.57143 62.857143 L 172.57143 62.857143 L 172.57143 62.857143 Q 182.85715 52.57143 182.85715 36.57143 Q 182.85715 20.571428 172.57143 10.285714 Q 162.28572 0 146.28572 0 Q 130.28572 0 120 10.285714 Q 109.71429 20.571428 109.71429 36.57143 Q 109.71429 52.57143 120 62.857143 Q 130.28572 73.14286 146.28572 73.14286 L 146.28572 73.14286 Z M 256 0 Q 240 0 229.71428 10.285714 L 229.71428 10.285714 L 229.71428 10.285714 Q 219.42857 20.571428 219.42857 36.57143 Q 219.42857 52.57143 229.71428 62.857143 Q 240 73.14286 256 73.14286 Q 272 73.14286 282.2857 62.857143 Q 292.57144 52.57143 292.57144 36.57143 Q 292.57144 20.571428 282.2857 10.285714 Q 272 0 256 0 L 256 0 Z M 36.57143 73.14286 Q 52.57143 73.14286 62.857143 62.857143 L 62.857143 62.857143 L 62.857143 62.857143 Q 73.14286 52.57143 73.14286 36.57143 Q 73.14286 20.571428 62.857143 10.285714 Q 52.57143 0 36.57143 0 Q 20.571428 0 10.285714 10.285714 Q 0 20.571428 0 36.57143 Q 0 52.57143 10.285714 62.857143 Q 20.571428 73.14286 36.57143 73.14286 L 36.57143 73.14286 Z M 36.57143 219.42857 Q 20.571428 219.42857 10.285714 229.71428 L 10.285714 229.71428 L 10.285714 229.71428 Q 0 240 0 256 Q 0 272 10.285714 282.2857 Q 20.571428 292.57144 36.57143 292.57144 Q 52.57143 292.57144 62.857143 282.2857 Q 73.14286 272 73.14286 256 Q 73.14286 240 62.857143 229.71428 Q 52.57143 219.42857 36.57143 219.42857 L 36.57143 219.42857 Z M 36.57143 182.85715 Q 52.57143 182.85715 62.857143 172.57143 L 62.857143 172.57143 L 62.857143 172.57143 Q 73.14286 162.28572 73.14286 146.28572 Q 73.14286 130.28572 62.857143 120 Q 52.57143 109.71429 36.57143 109.71429 Q 20.571428 109.71429 10.285714 120 Q 0 130.28572 0 146.28572 Q 0 162.28572 10.285714 172.57143 Q 20.571428 182.85715 36.57143 182.85715 L 36.57143 182.85715 Z M 36.57143 329.14285 Q 20.571428 329.14285 10.285714 339.42856 L 10.285714 339.42856 L 10.285714 339.42856 Q 0 349.7143 0 365.7143 Q 0 381.7143 10.285714 392 Q 20.571428 402.2857 36.57143 402.2857 Q 52.57143 402.2857 62.857143 392 Q 73.14286 381.7143 73.14286 365.7143 Q 73.14286 349.7143 62.857143 339.42856 Q 52.57143 329.14285 36.57143 329.14285 L 36.57143 329.14285 Z" />
</svg>