<svg xmlns="http://www.w3.org/2000/svg" viewBox="0 0 512 512">
  <path d="M 493.2356 64.335075 Q 512 41.54974 493.2356 18.764399 Q 470.45026 0 447.66492 18.764399 L 18.764399 447.66492 L 18.764399 447.66492 Q 0 470.45026 18.764399 493.2356 Q 41.54974 512 64.335075 493.2356 L 493.2356 64.335075 L 493.2356 64.335075 Z M 148.77487 84.43979 Q 147.43456 48.25131 116.60733 28.146597 Q 84.43979 12.062827 52.27225 28.146597 Q 21.445026 48.25131 20.104712 84.43979 Q 21.445026 120.62827 52.27225 140.73299 Q 84.43979 156.81676 116.60733 140.73299 Q 147.43456 120.62827 148.77487 84.43979 L 148.77487 84.43979 Z M 491.8953 427.5602 Q 490.55496 391.37173 459.72775 371.26703 Q 427.5602 355.18326 395.39267 371.26703 Q 364.56546 391.37173 363.22513 427.5602 Q 364.56546 463.7487 395.39267 483.8534 Q 427.5602 499.93716 459.72775 483.8534 Q 490.55496 463.7487 491.8953 427.5602 L 491.8953 427.5602 Z" />
</svg>