<svg xmlns="http://www.w3.org/2000/svg" viewBox="0 0 512 512">
  <path d="M 464 112 L 464 176 L 464 112 L 464 176 L 320 176 L 320 176 L 320 112 L 320 112 L 464 112 L 464 112 Z M 48 64 Q 28 65 14 78 L 14 78 L 14 78 Q 1 92 0 112 L 0 176 L 0 176 Q 1 196 14 210 Q 28 223 48 224 L 464 224 L 464 224 Q 484 223 498 210 Q 511 196 512 176 L 512 112 L 512 112 Q 511 92 498 78 Q 484 65 464 64 L 48 64 L 48 64 Z M 464 336 L 464 400 L 464 336 L 464 400 L 192 400 L 192 400 L 192 336 L 192 336 L 464 336 L 464 336 Z M 48 288 Q 28 289 14 302 L 14 302 L 14 302 Q 1 316 0 336 L 0 400 L 0 400 Q 1 420 14 434 Q 28 447 48 448 L 464 448 L 464 448 Q 484 447 498 434 Q 511 420 512 400 L 512 336 L 512 336 Q 511 316 498 302 Q 484 289 464 288 L 48 288 L 48 288 Z" />
</svg>