<svg xmlns="http://www.w3.org/2000/svg" viewBox="0 0 512 512">
  <path d="M 384 48 L 128 48 L 384 48 L 128 48 Q 113 49 112 64 L 112 432 L 112 432 L 64 432 L 64 432 L 64 64 L 64 64 Q 65 37 83 19 Q 101 1 128 0 L 384 0 L 384 0 Q 411 1 429 19 Q 447 37 448 64 L 448 432 L 448 432 L 400 432 L 400 432 L 400 64 L 400 64 Q 399 49 384 48 L 384 48 Z M 56 464 L 456 464 L 56 464 L 456 464 Q 478 466 480 488 Q 478 510 456 512 L 56 512 L 56 512 Q 34 510 32 488 Q 34 466 56 464 L 56 464 Z M 152 112 Q 154 90 176 88 Q 198 90 200 112 Q 198 134 176 136 Q 154 134 152 112 L 152 112 Z M 336 88 Q 358 90 360 112 Q 358 134 336 136 Q 314 134 312 112 Q 314 90 336 88 L 336 88 Z" />
</svg>