<svg xmlns="http://www.w3.org/2000/svg" viewBox="0 0 640 384">
    <path d="M 48 24 Q 46 2 24 0 Q 2 2 0 24 L 0 184 L 0 360 Q 2 382 24 384 Q 46 382 48 360 L 48 208 L 272 208 L 272 360 Q 274 382 296 384 Q 318 382 320 360 L 320 184 L 320 24 Q 318 2 296 0 Q 274 2 272 24 L 272 160 L 48 160 L 48 24 L 48 24 Z M 400 0 Q 378 2 376 24 Q 378 46 400 48 L 542 48 L 423 167 Q 412 179 418 193 Q 424 207 440 208 L 528 208 Q 555 209 573 227 Q 591 245 592 272 Q 591 299 573 317 Q 555 335 528 336 L 455 336 Q 430 334 424 309 L 424 308 Q 418 287 396 288 Q 375 294 376 316 L 376 317 Q 382 347 404 365 Q 425 383 455 384 L 528 384 Q 576 383 607 351 Q 639 320 640 272 Q 639 224 607 193 Q 576 161 528 160 L 498 160 L 617 41 Q 628 29 622 15 Q 616 1 600 0 L 400 0 L 400 0 Z"/>
</svg>
