<svg xmlns="http://www.w3.org/2000/svg" viewBox="0 0 512 512">
  <path d="M 216.35399 3.39823 Q 240.14159 10.194691 237.8761 35.115044 L 220.88495 120.07079 L 220.88495 120.07079 L 346.61948 120.07079 L 346.61948 120.07079 L 364.74338 23.787611 L 364.74338 23.787611 Q 372.67258 0 397.59293 3.39823 Q 421.38052 10.194691 417.9823 35.115044 L 402.1239 120.07079 L 402.1239 120.07079 L 482.54868 120.07079 L 482.54868 120.07079 Q 507.46902 122.33628 509.73453 147.25664 Q 507.46902 172.17699 482.54868 174.44247 L 390.79645 174.44247 L 390.79645 174.44247 L 357.9469 337.55753 L 357.9469 337.55753 L 446.30087 337.55753 L 446.30087 337.55753 Q 471.22125 339.823 473.48672 364.74338 Q 471.22125 389.66373 446.30087 391.9292 L 347.7522 391.9292 L 347.7522 391.9292 L 328.49557 488.2124 L 328.49557 488.2124 Q 320.56638 512 295.64603 509.73453 Q 271.8584 501.8053 275.25662 476.88495 L 292.2478 391.9292 L 292.2478 391.9292 L 166.51328 391.9292 L 166.51328 391.9292 L 147.25664 488.2124 L 147.25664 488.2124 Q 139.32744 512 114.40708 509.73453 Q 90.61947 501.8053 94.0177 476.88495 L 111.00885 391.9292 L 111.00885 391.9292 L 29.451328 391.9292 L 29.451328 391.9292 Q 4.5309734 389.66373 2.2654867 364.74338 Q 4.5309734 339.823 29.451328 337.55753 L 121.20354 337.55753 L 121.20354 337.55753 L 154.0531 174.44247 L 154.0531 174.44247 L 65.69911 174.44247 L 65.69911 174.44247 Q 40.778763 172.17699 38.513275 147.25664 Q 40.778763 122.33628 65.69911 120.07079 L 165.38052 120.07079 L 165.38052 120.07079 L 183.50443 23.787611 L 183.50443 23.787611 Q 191.43362 0 216.35399 3.39823 L 216.35399 3.39823 Z M 209.55753 174.44247 L 176.70796 337.55753 L 209.55753 174.44247 L 176.70796 337.55753 L 302.44247 337.55753 L 302.44247 337.55753 L 335.29202 174.44247 L 335.29202 174.44247 L 209.55753 174.44247 L 209.55753 174.44247 Z" />
</svg>