<svg xmlns="http://www.w3.org/2000/svg" viewBox="0 0 512 512">
  <path d="M 213 62 Q 216 49 229 48 L 283 48 L 283 48 Q 296 49 299 62 Q 301 77 315 82 Q 327 86 338 91 Q 351 97 363 89 Q 374 81 384 90 L 422 128 L 422 128 Q 431 138 423 149 Q 415 161 421 175 Q 426 185 430 197 Q 435 211 450 213 Q 463 216 464 229 L 464 283 L 464 283 Q 463 296 450 299 Q 436 301 430 315 Q 426 327 421 337 Q 415 351 423 363 Q 431 374 422 384 L 384 422 L 384 422 Q 374 431 363 423 Q 351 415 338 421 Q 327 426 315 430 Q 301 435 299 450 Q 296 463 283 464 L 229 464 L 229 464 Q 216 463 213 450 Q 211 435 197 430 Q 185 426 175 421 Q 161 415 149 423 Q 138 431 128 422 L 90 384 L 90 384 Q 81 374 89 363 Q 97 351 91 338 Q 86 327 82 315 Q 76 301 62 299 Q 49 296 48 283 L 48 229 L 48 229 Q 49 216 62 213 Q 76 211 82 197 Q 86 185 91 175 Q 97 161 89 149 Q 81 138 90 128 L 128 90 L 128 90 Q 138 81 149 88 Q 161 97 175 91 Q 185 86 197 82 Q 211 76 213 62 L 213 62 Z M 229 0 Q 208 0 193 11 L 193 11 L 193 11 Q 177 22 169 41 Q 168 41 167 42 Q 166 42 165 43 Q 147 35 128 38 Q 109 42 94 56 L 56 94 L 56 94 Q 42 109 38 128 Q 35 147 42 165 Q 41 167 41 169 Q 22 177 11 193 Q 0 208 0 229 L 0 283 L 0 283 Q 0 304 11 319 Q 22 335 41 343 Q 41 344 42 345 Q 42 346 43 347 Q 35 365 38 384 Q 42 403 56 418 L 94 456 L 94 456 Q 109 470 128 474 Q 147 477 165 470 Q 167 470 169 471 Q 177 490 193 501 Q 209 512 229 512 L 283 512 L 283 512 Q 304 512 319 501 Q 335 490 343 471 Q 344 471 345 470 Q 346 470 347 470 Q 365 477 384 474 Q 403 470 418 456 L 456 418 L 456 418 Q 470 403 474 384 Q 477 365 470 347 Q 471 345 471 343 Q 490 335 501 319 Q 512 303 512 283 L 512 229 L 512 229 Q 512 208 501 193 Q 490 177 471 169 Q 471 168 470 167 Q 470 166 470 165 Q 477 147 474 128 Q 471 109 456 94 L 418 56 L 418 56 Q 403 42 384 38 Q 365 35 347 42 Q 345 41 343 41 Q 335 22 320 11 Q 304 0 283 0 L 229 0 L 229 0 Z M 384 256 Q 384 221 367 192 L 367 192 L 367 192 Q 350 163 320 145 Q 290 128 256 128 Q 222 128 192 145 Q 162 163 145 192 Q 128 221 128 256 Q 128 291 145 320 Q 162 349 192 367 Q 222 384 256 384 Q 290 384 320 367 Q 350 349 367 320 Q 384 291 384 256 L 384 256 Z M 232 184 Q 234 162 256 160 Q 278 162 280 184 Q 278 206 256 208 Q 234 206 232 184 L 232 184 Z M 165 226 Q 173 206 195 211 Q 215 220 210 241 Q 202 261 180 257 Q 160 248 165 226 L 165 226 Z M 317 211 Q 339 206 347 226 Q 352 248 332 257 Q 310 261 302 241 Q 297 220 317 211 L 317 211 Z M 312 334 Q 301 342 288 337 Q 276 331 274 317 Q 273 303 284 295 Q 296 287 309 292 Q 321 298 323 311 Q 324 325 312 334 L 312 334 Z M 233 328 Q 225 340 211 339 Q 197 337 191 324 Q 186 311 194 300 Q 203 289 217 290 Q 230 291 236 304 Q 241 317 233 328 L 233 328 Z" />
</svg>