<svg xmlns="http://www.w3.org/2000/svg" viewBox="0 0 512 512">
  <path d="M 51.2 115.2 Q 39.2 116 38.4 128 L 38.4 384 L 38.4 384 Q 39.2 396 51.2 396.8 L 460.8 396.8 L 460.8 396.8 Q 472.8 396 473.6 384 L 473.6 128 L 473.6 128 Q 472.8 116 460.8 115.2 L 51.2 115.2 L 51.2 115.2 Z M 0 128 Q 0.8 106.4 15.2 92 L 15.2 92 L 15.2 92 Q 29.6 77.6 51.2 76.8 L 460.8 76.8 L 460.8 76.8 Q 482.4 77.6 496.8 92 Q 511.2 106.4 512 128 L 512 384 L 512 384 Q 511.2 405.6 496.8 420 Q 482.4 434.4 460.8 435.2 L 51.2 435.2 L 51.2 435.2 Q 29.6 434.4 15.2 420 Q 0.8 405.6 0 384 L 0 128 L 0 128 Z M 83.2 179.2 L 128 179.2 L 83.2 179.2 L 128 179.2 Q 149.6 180 164 194.4 Q 178.4 208.8 179.2 230.4 Q 178.4 252 164 266.4 Q 149.6 280.8 128 281.6 L 102.4 281.6 L 102.4 281.6 L 102.4 313.6 L 102.4 313.6 Q 100.8 331.2 83.2 332.8 Q 65.6 331.2 64 313.6 L 64 262.4 L 64 262.4 L 64 198.4 L 64 198.4 Q 65.6 180.8 83.2 179.2 L 83.2 179.2 Z M 128 243.2 Q 140 242.4 140.8 230.4 Q 140 218.4 128 217.6 L 102.4 217.6 L 102.4 217.6 L 102.4 243.2 L 102.4 243.2 L 128 243.2 L 128 243.2 Z M 192 198.4 Q 193.6 180.8 211.2 179.2 L 256 179.2 L 256 179.2 Q 277.6 180 292 194.4 Q 306.4 208.8 307.2 230.4 Q 306.4 257.6 284.8 272.8 L 304 303.2 L 304 303.2 Q 312 319.2 298.4 329.6 Q 282.4 337.6 272 324 L 245.6 281.6 L 245.6 281.6 L 230.4 281.6 L 230.4 281.6 L 230.4 313.6 L 230.4 313.6 Q 228.8 331.2 211.2 332.8 Q 193.6 331.2 192 313.6 L 192 262.4 L 192 262.4 L 192 198.4 L 192 198.4 Z M 230.4 243.2 L 256 243.2 L 230.4 243.2 L 256 243.2 Q 268 242.4 268.8 230.4 Q 268 218.4 256 217.6 L 230.4 217.6 L 230.4 217.6 L 230.4 243.2 L 230.4 243.2 Z M 390.4 179.2 Q 420 180 440 200 L 440 200 L 440 200 Q 460 220 460.8 249.6 L 460.8 262.4 L 460.8 262.4 Q 460 292 440 312 Q 420 332 390.4 332.8 Q 360.8 332 340.8 312 Q 320.8 292 320 262.4 L 320 249.6 L 320 249.6 Q 320.8 220 340.8 200 Q 360.8 180 390.4 179.2 L 390.4 179.2 Z M 358.4 249.6 L 358.4 262.4 L 358.4 249.6 L 358.4 262.4 Q 358.4 276 368 284.8 Q 376.8 294.4 390.4 294.4 Q 404 294.4 412.8 284.8 Q 422.4 276 422.4 262.4 L 422.4 249.6 L 422.4 249.6 Q 422.4 236 412.8 227.2 Q 404 217.6 390.4 217.6 Q 376.8 217.6 368 227.2 Q 358.4 236 358.4 249.6 L 358.4 249.6 Z" />
</svg>