<svg xmlns="http://www.w3.org/2000/svg" viewBox="0 0 512 512">
  <path d="M 226 466.5 L 223 464.5 L 226 466.5 L 223 464.5 L 48 301.5 L 48 301.5 Q 1 256.5 0 191.5 L 0 188.5 L 0 188.5 Q 1 134.5 34 94.5 Q 66 55.5 119 44.5 Q 181 33.5 231 68.5 Q 245 77.5 256 90.5 Q 262 83.5 270 77.5 Q 275 72.5 281 68.5 Q 281 68.5 281 68.5 Q 281 68.5 281 68.5 Q 331 33.5 393 43.5 Q 446 54.5 478 94.5 Q 511 134.5 512 188.5 L 512 191.5 L 512 191.5 Q 511 256.5 464 301.5 L 289 464.5 L 289 464.5 L 286 466.5 L 286 466.5 Q 273 478.5 256 478.5 Q 239 478.5 226 466.5 L 226 466.5 Z M 239 143.5 Q 239 143.5 238 142.5 L 238 142.5 L 238 142.5 Q 238 142.5 238 142.5 L 220 122.5 L 220 122.5 Q 220 122.5 220 122.5 Q 220 122.5 220 122.5 Q 202 102.5 178 94.5 Q 154 86.5 128 91.5 Q 93 98.5 71 125.5 Q 49 151.5 48 188.5 L 48 191.5 L 48 191.5 Q 49 235.5 81 266.5 L 256 429.5 L 256 429.5 L 431 266.5 L 431 266.5 Q 463 235.5 464 191.5 L 464 188.5 L 464 188.5 Q 463 151.5 441 125.5 Q 419 98.5 384 91.5 Q 358 86.5 334 94.5 Q 310 102.5 292 122.5 Q 292 122.5 292 122.5 Q 292 122.5 292 122.5 L 274 142.5 L 274 142.5 Q 274 142.5 273 143.5 Q 273 143.5 273 143.5 Q 266 150.5 256 150.5 Q 246 150.5 239 143.5 L 239 143.5 Z" />
</svg>