<svg xmlns="http://www.w3.org/2000/svg" viewBox="0 0 512 512">
  <path d="M 74.06602 126.26019 L 256 48.71456 L 74.06602 126.26019 L 256 48.71456 L 437.934 126.26019 L 437.934 126.26019 Q 446.88156 131.23106 446.88156 139.18446 Q 446.88156 185.91068 430.97476 246.55534 Q 415.06796 306.2058 375.30096 363.86795 Q 334.5398 420.53592 261.96506 457.32037 Q 256 459.30875 250.03496 457.32037 Q 177.46019 420.53592 136.69904 363.86795 Q 96.93204 306.2058 81.025246 246.55534 Q 65.11845 185.91068 65.11845 139.18446 Q 65.11845 131.23106 74.06602 126.26019 L 74.06602 126.26019 Z M 456.8233 82.5165 L 268.9243 2.9825242 L 456.8233 82.5165 L 268.9243 2.9825242 Q 262.95923 0 256 0 Q 249.04077 0 243.07573 2.9825242 L 55.1767 82.5165 L 55.1767 82.5165 Q 38.275726 89.47573 28.33398 104.38835 Q 17.398058 119.30097 17.398058 139.18446 Q 16.403883 189.88737 34.29903 258.48544 Q 52.194176 327.0835 98.92039 391.70486 Q 144.65242 457.32037 230.15146 500.06992 Q 256 512 281.84854 500.06992 Q 367.34756 457.32037 413.07962 391.70486 Q 459.80582 327.0835 477.70096 258.48544 Q 495.59613 189.88737 494.60193 139.18446 Q 494.60193 119.30097 483.66602 104.38835 Q 473.72427 89.47573 456.8233 82.5165 L 456.8233 82.5165 Z M 279.8602 119.30097 Q 277.87186 97.42912 256 95.44077 Q 234.12816 97.42912 232.1398 119.30097 L 232.1398 167.02136 L 232.1398 167.02136 L 136.69904 167.02136 L 136.69904 167.02136 Q 114.82719 169.0097 112.83884 190.88155 Q 114.82719 212.7534 136.69904 214.74174 L 232.1398 214.74174 L 232.1398 214.74174 L 232.1398 389.7165 L 232.1398 389.7165 Q 234.12816 411.58835 256 413.5767 Q 277.87186 411.58835 279.8602 389.7165 L 279.8602 214.74174 L 279.8602 214.74174 L 375.30096 214.74174 L 375.30096 214.74174 Q 397.17282 212.7534 399.16116 190.88155 Q 397.17282 169.0097 375.30096 167.02136 L 279.8602 167.02136 L 279.8602 167.02136 L 279.8602 119.30097 L 279.8602 119.30097 Z" />
</svg>