<svg xmlns="http://www.w3.org/2000/svg" viewBox="0 0 512 512">
  <path d="M 131.95876 73.01718 Q 132.83849 49.264606 153.07216 36.06873 Q 174.18556 25.512028 195.29897 36.06873 Q 215.53264 49.264606 216.41237 73.01718 Q 215.53264 96.76976 195.29897 109.96564 Q 174.18556 120.52234 153.07216 109.96564 Q 132.83849 96.76976 131.95876 73.01718 L 131.95876 73.01718 Z M 89.73196 215.53264 L 44.86598 294.70792 L 89.73196 215.53264 L 44.86598 294.70792 Q 33.429554 310.54297 15.835052 302.62543 Q 0 291.189 7.917526 273.5945 L 59.821304 182.98282 L 59.821304 182.98282 Q 70.378006 164.50859 87.97251 153.95189 Q 105.56701 143.39519 126.68041 143.39519 L 157.4708 143.39519 L 157.4708 143.39519 Q 193.53952 144.27492 217.2921 170.66667 L 288.54984 256.87973 L 288.54984 256.87973 Q 299.98627 272.71478 285.91064 285.91064 Q 270.0756 297.34708 256.87973 283.27148 L 202.33678 219.05154 L 202.33678 219.05154 L 202.33678 460.09622 L 202.33678 460.09622 Q 200.57732 479.45016 181.22337 481.20963 Q 161.86942 479.45016 160.10997 460.09622 L 160.10997 340.4536 L 160.10997 340.4536 L 131.95876 340.4536 L 131.95876 340.4536 L 131.95876 460.09622 L 131.95876 460.09622 Q 130.19931 479.45016 110.84536 481.20963 Q 91.49141 479.45016 89.73196 460.09622 L 89.73196 215.53264 L 89.73196 215.53264 Z M 160.10997 185.622 Q 159.23024 185.622 157.4708 185.622 L 131.95876 185.622 L 131.95876 185.622 L 131.95876 298.2268 L 131.95876 298.2268 L 160.10997 298.2268 L 160.10997 298.2268 L 160.10997 185.622 L 160.10997 185.622 Z M 272.71478 58.94158 L 321.97937 58.94158 L 272.71478 58.94158 L 321.97937 58.94158 Q 335.17526 59.821304 336.055 73.01718 Q 335.17526 86.21306 321.97937 87.09278 L 272.71478 87.09278 L 272.71478 87.09278 Q 259.5189 86.21306 258.63916 73.01718 Q 259.5189 59.821304 272.71478 58.94158 L 272.71478 58.94158 Z M 357.1684 241.9244 Q 358.0481 218.17181 378.2818 204.97595 Q 399.3952 194.41925 420.5086 204.97595 Q 440.74228 218.17181 441.62198 241.9244 Q 440.74228 265.67697 420.5086 278.87286 Q 399.3952 289.42957 378.2818 278.87286 Q 358.0481 265.67697 357.1684 241.9244 L 357.1684 241.9244 Z M 459.2165 291.189 Q 481.20963 292.06873 496.16495 307.02405 L 496.16495 307.02405 L 496.16495 307.02405 Q 511.12027 321.97937 512 343.9725 L 512 428.42612 L 512 428.42612 Q 511.12027 449.53952 497.9244 464.49484 Q 483.8488 479.45016 462.73538 481.20963 L 462.73538 481.20963 L 462.73538 481.20963 Q 461.85568 481.20963 461.85568 481.20963 Q 460.97595 481.20963 460.97595 481.20963 Q 460.09622 481.20963 460.09622 481.20963 Q 459.2165 481.20963 459.2165 481.20963 Q 451.29898 481.20963 445.1409 479.45016 Q 418.74915 473.29208 400.2749 452.17868 L 360.6873 405.55325 L 360.6873 405.55325 L 326.37802 469.7732 L 326.37802 469.7732 Q 315.82132 486.48798 298.2268 478.57043 Q 281.51202 468.01373 289.42957 450.41925 L 338.69415 358.92783 L 338.69415 358.92783 Q 343.9725 349.25085 354.5292 347.4914 Q 365.96564 346.6117 373.00345 355.40894 L 406.43298 394.11685 L 406.43298 394.11685 L 406.43298 343.9725 L 406.43298 343.9725 Q 407.3127 321.97937 422.26804 307.02405 Q 437.22336 292.06873 459.2165 291.189 L 459.2165 291.189 Z M 460.09622 438.98282 Q 468.89346 437.22336 469.7732 428.42612 L 469.7732 343.9725 L 469.7732 343.9725 Q 468.89346 334.29553 459.2165 333.4158 Q 449.53952 334.29553 448.6598 343.9725 L 448.6598 428.42612 L 448.6598 428.42612 Q 449.53952 435.46393 455.6976 438.1031 Q 458.33676 438.98282 460.09622 438.98282 L 460.09622 438.98282 Z M 239.28522 123.161514 Q 246.32303 111.72508 257.75946 117.00343 L 299.98627 138.11684 L 299.98627 138.11684 Q 311.42267 144.27492 306.14432 156.59106 Q 299.98627 168.0275 287.6701 162.74915 L 245.4433 141.63574 L 245.4433 141.63574 Q 234.00687 134.59793 239.28522 123.161514 L 239.28522 123.161514 Z" />
</svg>