<svg xmlns="http://www.w3.org/2000/svg" viewBox="0 0 450 515">
    <path d="M 188 48 L 322 48 Q 339 48 350 60 Q 362 71 362 88 L 362 176 L 126 176 L 150 79 Q 158 50 188 48 L 188 48 Z M 362 224 L 362 389 Q 344 396 333 412 Q 322 428 322 448 Q 323 475 341 493 Q 359 511 386 512 Q 413 511 431 493 Q 449 475 450 448 Q 450 428 439 412 Q 428 396 410 389 L 410 88 Q 409 51 384 26 Q 359 1 322 0 L 188 0 Q 157 1 134 19 Q 111 37 103 67 L 3 482 Q 0 504 20 511 Q 42 515 49 494 L 114 224 L 362 224 L 362 224 Z M 386 432 Q 401 433 402 448 Q 401 463 386 464 Q 371 463 370 448 Q 371 433 386 432 L 386 432 Z"/>
</svg>
