<svg xmlns="http://www.w3.org/2000/svg" viewBox="0 0 448 320">
    <path d="M 448 200 Q 447 251 413 285 L 413 285 Q 379 319 328 320 L 312 320 Q 290 318 288 296 Q 290 274 312 272 L 328 272 Q 359 271 379 251 Q 399 231 400 200 L 400 190 Q 392 192 384 192 L 320 192 Q 293 191 275 173 Q 257 155 256 128 L 256 64 Q 257 37 275 19 Q 293 1 320 0 L 384 0 Q 411 1 429 19 Q 447 37 448 64 L 448 96 L 448 128 L 448 200 L 448 200 Z M 400 128 L 400 96 L 400 64 Q 399 49 384 48 L 320 48 Q 305 49 304 64 L 304 128 Q 305 143 320 144 L 384 144 Q 399 143 400 128 L 400 128 Z M 64 144 L 128 144 Q 143 143 144 128 L 144 96 L 144 64 Q 143 49 128 48 L 64 48 Q 49 49 48 64 L 48 128 Q 49 143 64 144 L 64 144 Z M 192 96 L 192 128 L 192 200 Q 191 251 157 285 Q 123 319 72 320 L 56 320 Q 34 318 32 296 Q 34 274 56 272 L 72 272 Q 103 271 123 251 Q 143 231 144 200 L 144 190 Q 136 192 128 192 L 64 192 Q 37 191 19 173 Q 1 155 0 128 L 0 64 Q 1 37 19 19 Q 37 1 64 0 L 128 0 Q 155 1 173 19 Q 191 37 192 64 L 192 96 L 192 96 Z"/>
</svg>
