<svg xmlns="http://www.w3.org/2000/svg" viewBox="0 0 512 512">
  <path d="M 402.69028 163.11505 Q 433.27432 161.9823 450.26547 135.9292 Q 463.8584 108.74336 450.26547 81.557526 Q 433.27432 55.504425 402.69028 54.37168 Q 372.1062 55.504425 355.11505 81.557526 Q 341.52213 108.74336 355.11505 135.9292 Q 372.1062 161.9823 402.69028 163.11505 L 402.69028 163.11505 Z M 402.69028 0 Q 432.1416 0 457.06195 14.725664 L 457.06195 14.725664 L 457.06195 14.725664 Q 481.9823 29.451328 496.70798 54.37168 Q 511.43362 80.42478 511.43362 108.74336 Q 511.43362 137.06195 496.70798 163.11505 Q 481.9823 188.0354 457.06195 202.76106 Q 432.1416 217.48672 402.69028 217.48672 Q 373.23895 217.48672 348.31857 202.76106 Q 323.39822 188.0354 308.67258 163.11505 Q 293.9469 137.06195 293.9469 108.74336 Q 293.9469 80.42478 308.67258 54.37168 Q 323.39822 29.451328 348.31857 14.725664 Q 373.23895 0 402.69028 0 L 402.69028 0 Z M 357.38052 425.9115 L 147.82301 248.0708 L 357.38052 425.9115 L 147.82301 248.0708 Q 129.69911 234.47787 108.176994 235.61063 Q 86.65487 237.8761 70.79646 254.86726 Q 56.070797 272.99115 58.336285 294.51328 Q 60.60177 316.0354 77.59292 331.8938 Q 85.522125 338.69028 95.71681 342.0885 L 95.71681 342.0885 L 95.71681 342.0885 L 357.38052 425.9115 L 357.38052 425.9115 Z M 78.72566 393.06195 Q 58.336285 386.26547 42.477875 373.8053 Q 8.495575 343.22125 3.9646018 299.04425 Q 0.5663717 256 28.884956 219.75221 Q 59.469025 185.76991 103.64602 181.23894 Q 146.69026 177.84071 182.93805 206.15929 L 461.59293 442.90265 L 461.59293 442.90265 Q 483.11505 462.1593 470.65488 488.2124 Q 455.9292 512 427.61063 505.20355 L 78.72566 393.06195 L 78.72566 393.06195 Z M 112.70796 262.79645 Q 137.62831 265.06195 139.8938 289.9823 Q 137.62831 314.90265 112.70796 317.16815 Q 87.78761 314.90265 85.522125 289.9823 Q 87.78761 265.06195 112.70796 262.79645 L 112.70796 262.79645 Z" />
</svg>