<svg xmlns="http://www.w3.org/2000/svg" viewBox="0 0 512 512">
  <path d="M 9.394495 62.62997 Q 21.137615 50.103977 36.012234 59.49847 L 94.72783 105.68807 L 94.72783 105.68807 L 281.052 105.68807 L 281.052 105.68807 Q 302.1896 106.47095 316.28134 120.56269 Q 330.37308 134.65443 331.15598 155.79205 L 331.15598 181.6269 L 331.15598 181.6269 L 331.15598 281.052 L 331.15598 281.052 L 331.15598 291.22937 L 331.15598 291.22937 L 443.88992 379.69418 L 443.88992 379.69418 L 443.88992 339.76758 L 443.88992 339.76758 L 443.88992 331.15598 L 443.88992 331.15598 L 443.88992 281.052 L 443.88992 281.052 L 443.88992 172.23242 L 443.88992 172.23242 L 356.20795 211.37614 L 356.20795 211.37614 L 356.20795 169.88379 L 356.20795 169.88379 L 437.62692 133.87157 L 437.62692 133.87157 Q 443.88992 130.74007 450.9358 130.74007 Q 463.46176 130.74007 472.0734 140.13455 Q 481.4679 148.74617 481.4679 162.05504 L 481.4679 331.15598 L 481.4679 331.15598 L 481.4679 350.7278 L 481.4679 350.7278 L 481.4679 408.66055 L 481.4679 408.66055 L 499.474 422.7523 L 499.474 422.7523 Q 512 434.49542 502.6055 449.37003 Q 490.8624 461.89603 475.98776 452.50153 L 12.525994 89.2477 L 12.525994 89.2477 Q 0 77.504585 9.394495 62.62997 L 9.394495 62.62997 Z M 293.57797 261.48013 L 293.57797 155.79205 L 293.57797 261.48013 L 293.57797 155.79205 Q 292.7951 144.04893 281.052 143.26605 L 142.48318 143.26605 L 142.48318 143.26605 L 293.57797 261.48013 L 293.57797 261.48013 Z M 30.53211 155.79205 Q 30.53211 153.44342 30.53211 151.0948 L 68.11009 180.06116 L 68.11009 180.06116 L 68.11009 356.20795 L 68.11009 356.20795 Q 68.89297 367.95108 80.636086 368.73395 L 281.052 368.73395 L 281.052 368.73395 Q 291.22937 367.95108 293.57797 357.7737 L 324.11008 382.04282 L 324.11008 382.04282 Q 310.01834 404.7462 281.052 406.31192 L 80.636086 406.31192 L 80.636086 406.31192 Q 59.49847 405.52905 45.406727 391.43732 Q 31.314985 377.34555 30.53211 356.20795 L 30.53211 155.79205 L 30.53211 155.79205 Z" />
</svg>