<svg xmlns="http://www.w3.org/2000/svg" viewBox="0 0 512 512">
  <path d="M 258.76970633693975 116.72333848531684 Q 258.76970633693975 127.80216383307574 251.64760432766616 134.9242658423493 L 251.64760432766616 134.9242658423493 L 251.64760432766616 134.9242658423493 Q 244.52550231839257 142.04636785162288 233.4466769706337 142.04636785162288 Q 222.3678516228748 142.04636785162288 215.24574961360125 134.9242658423493 Q 208.12364760432766 127.80216383307574 208.12364760432766 116.72333848531684 Q 208.12364760432766 105.64451313755796 215.24574961360125 98.52241112828439 Q 222.3678516228748 91.40030911901081 233.4466769706337 91.40030911901081 Q 244.52550231839257 91.40030911901081 251.64760432766616 98.52241112828439 Q 258.76970633693975 105.64451313755796 258.76970633693975 116.72333848531684 L 258.76970633693975 116.72333848531684 Z M 233.4466769706337 53.415765069551775 Q 206.54095826893354 54.20710973724884 188.3400309119011 71.61669242658424 L 188.3400309119011 71.61669242658424 L 188.3400309119011 71.61669242658424 Q 170.9304482225657 89.81761978361669 170.13910355486863 116.72333848531684 Q 170.13910355486863 138.08964451313756 182.80061823802163 154.70788253477588 Q 194.67078825347758 170.53477588871715 214.45440494590417 176.86553323029366 Q 214.45440494590417 178.4482225656878 214.45440494590417 180.0309119010819 L 214.45440494590417 205.35394126738794 L 214.45440494590417 205.35394126738794 L 176.46986089644514 205.35394126738794 L 176.46986089644514 205.35394126738794 Q 159.06027820710975 206.93663060278206 157.4775888717156 224.34621329211745 Q 159.06027820710975 241.75579598145285 176.46986089644514 243.338485316847 L 214.45440494590417 243.338485316847 L 214.45440494590417 243.338485316847 L 214.45440494590417 420.59969088098916 L 214.45440494590417 420.59969088098916 L 195.46213292117466 420.59969088098916 L 195.46213292117466 420.59969088098916 Q 150.35548686244204 419.8083462132921 120.28438948995363 390.52859350850076 Q 90.21329211746523 360.45749613601237 87.83925811437403 316.1421947449768 L 100.50077279752705 327.2210200927357 L 100.50077279752705 327.2210200927357 Q 114.74497681607419 337.5085007727975 127.4064914992272 325.6383307573416 Q 137.69397217928903 311.39412673879445 125.82380216383308 298.7326120556414 L 81.50850077279753 260.7480680061824 L 81.50850077279753 260.7480680061824 Q 68.84698608964452 251.2519319938176 56.1854714064915 260.7480680061824 L 11.870170015455951 298.7326120556414 L 11.870170015455951 298.7326120556414 Q 0 311.39412673879445 10.287480680061824 325.6383307573416 Q 22.948995363214838 337.5085007727975 37.19319938176198 327.2210200927357 L 49.854714064914994 316.1421947449768 L 49.854714064914994 316.1421947449768 Q 53.020092735703244 377.0757341576507 93.37867078825347 416.64296754250387 Q 134.52859350850076 457.0015455950541 195.46213292117466 458.58423493044825 L 233.4466769706337 458.58423493044825 L 271.4312210200927 458.58423493044825 Q 292.0061823802164 458.58423493044825 310.9984544049459 453.0448222565688 Q 293.58887171561054 438.8006182380216 280.9273570324575 420.59969088098916 Q 276.1792890262751 420.59969088098916 271.4312210200927 420.59969088098916 L 252.4389489953632 420.59969088098916 L 252.4389489953632 420.59969088098916 L 252.4389489953632 243.338485316847 L 252.4389489953632 243.338485316847 L 290.42349304482224 243.338485316847 L 290.42349304482224 243.338485316847 Q 307.83307573415766 241.75579598145285 309.41576506955175 224.34621329211745 Q 307.83307573415766 206.93663060278206 290.42349304482224 205.35394126738794 L 252.4389489953632 205.35394126738794 L 252.4389489953632 205.35394126738794 L 252.4389489953632 180.0309119010819 L 252.4389489953632 180.0309119010819 Q 252.4389489953632 178.4482225656878 252.4389489953632 176.86553323029366 Q 272.2225656877898 170.53477588871715 284.09273570324575 154.70788253477588 Q 296.7542503863988 138.08964451313756 296.7542503863988 116.72333848531684 Q 295.9629057187017 89.81761978361669 278.5533230293663 71.61669242658424 Q 260.35239567233384 54.20710973724884 233.4466769706337 53.415765069551775 L 233.4466769706337 53.415765069551775 Z M 398.04636785162285 458.58423493044825 Q 428.90880989180835 458.58423493044825 455.02318392581145 443.548686244204 L 455.02318392581145 443.548686244204 L 455.02318392581145 443.548686244204 Q 481.1375579598145 428.5131375579598 496.9644513137558 401.60741885625964 Q 512 374.7017001545595 512 344.6306027820711 Q 512 314.5595054095827 496.9644513137558 287.65378670788255 Q 481.1375579598145 260.7480680061824 455.02318392581145 245.71251931993817 Q 428.90880989180835 230.67697063369397 398.04636785162285 230.67697063369397 Q 367.1839258114374 230.67697063369397 341.0695517774343 245.71251931993817 Q 314.9551777434312 260.7480680061824 299.12828438949 287.65378670788255 Q 284.09273570324575 314.5595054095827 284.09273570324575 344.6306027820711 Q 284.09273570324575 374.7017001545595 299.12828438949 401.60741885625964 Q 314.9551777434312 428.5131375579598 341.0695517774343 443.548686244204 Q 367.1839258114374 458.58423493044825 398.04636785162285 458.58423493044825 L 398.04636785162285 458.58423493044825 Z M 398.04636785162285 382.6151468315301 Q 415.45595054095827 384.1978361669243 417.0386398763524 401.60741885625964 Q 415.45595054095827 419.01700154559506 398.04636785162285 420.59969088098916 Q 380.6367851622875 419.01700154559506 379.05409582689333 401.60741885625964 Q 380.6367851622875 384.1978361669243 398.04636785162285 382.6151468315301 L 398.04636785162285 382.6151468315301 Z M 398.04636785162285 268.66151468315303 Q 409.91653786707883 269.4528593508501 410.7078825347759 281.323029366306 L 410.7078825347759 344.6306027820711 L 410.7078825347759 344.6306027820711 Q 409.91653786707883 356.500772797527 398.04636785162285 357.2921174652241 Q 386.1761978361669 356.500772797527 385.3848531684699 344.6306027820711 L 385.3848531684699 281.323029366306 L 385.3848531684699 281.323029366306 Q 386.1761978361669 269.4528593508501 398.04636785162285 268.66151468315303 L 398.04636785162285 268.66151468315303 Z" />
</svg>