<svg xmlns="http://www.w3.org/2000/svg" viewBox="0 0 512 512">
  <path d="M 36.012234 59.49847 Q 21.137615 50.103977 9.394495 62.62997 Q 0 77.504585 12.525994 89.2477 L 475.98776 452.50153 L 475.98776 452.50153 Q 490.8624 461.89603 502.6055 449.37003 Q 512 434.49542 499.474 422.7523 L 326.4587 287.31497 L 326.4587 287.31497 L 441.5413 172.23242 L 441.5413 172.23242 Q 455.63303 157.3578 455.63303 137.00305 Q 455.63303 117.43119 441.5413 101.7737 L 410.2263 70.45872 L 410.2263 70.45872 Q 395.35168 56.366974 374.99695 56.366974 Q 355.42508 56.366974 339.76758 70.45872 L 306.10397 104.12232 L 306.10397 104.12232 L 295.9266 93.944954 L 295.9266 93.944954 Q 278.70337 77.504585 256 77.504585 Q 233.29663 77.504585 216.0734 93.944954 L 155.79205 154.2263 L 155.79205 154.2263 L 36.012234 59.49847 L 36.012234 59.49847 Z M 186.32416 176.92966 L 242.69113 120.56269 L 186.32416 176.92966 L 242.69113 120.56269 Q 256 109.60245 269.30887 120.56269 L 279.48624 130.74007 L 279.48624 130.74007 L 212.15903 198.06728 L 212.15903 198.06728 L 186.32416 176.92966 L 186.32416 176.92966 Z M 241.90826 221.55351 L 306.10397 157.3578 L 241.90826 221.55351 L 306.10397 157.3578 L 354.6422 205.89603 L 354.6422 205.89603 L 296.70947 263.82874 L 296.70947 263.82874 L 241.90826 221.55351 L 241.90826 221.55351 Z M 272.44037 341.33334 L 242.69113 317.8471 L 272.44037 341.33334 L 242.69113 317.8471 L 208.24464 352.29358 L 208.24464 352.29358 Q 162.05504 397.70032 98.642204 413.3578 Q 114.2997 349.94495 159.70642 302.97247 L 188.67278 274.789 L 188.67278 274.789 L 158.92355 251.30275 L 158.92355 251.30275 L 133.08868 277.1376 L 133.08868 277.1376 Q 75.938835 334.28748 59.49847 414.1407 L 55.5841 433.71252 L 55.5841 433.71252 Q 54.01835 443.88992 61.06422 450.9358 Q 68.11009 457.98166 78.28746 456.4159 L 97.85933 452.50153 L 97.85933 452.50153 Q 176.92966 436.06116 234.86238 378.91132 L 272.44037 341.33334 L 272.44037 341.33334 Z" />
</svg>