<svg xmlns="http://www.w3.org/2000/svg" viewBox="0 0 512 512">
  <path d="M 208.18677 414.38132 Q 207.19066 394.45914 194.24124 380.5136 L 194.24124 380.5136 L 194.24124 380.5136 Q 180.29572 367.5642 160.37354 366.56808 L 64.74708 366.56808 L 64.74708 366.56808 Q 49.805447 365.572 48.809338 350.63034 L 48.809338 63.750973 L 48.809338 63.750973 Q 49.805447 48.809338 64.74708 47.81323 L 447.25293 47.81323 L 447.25293 47.81323 Q 462.19455 48.809338 463.19067 63.750973 L 463.19067 350.63034 L 463.19067 350.63034 Q 462.19455 365.572 447.25293 366.56808 L 308.79376 366.56808 L 308.79376 366.56808 Q 292.85602 366.56808 280.9027 376.52917 L 208.18677 430.31906 L 208.18677 430.31906 L 208.18677 414.38132 L 208.18677 414.38132 Z M 208.18677 490.0856 L 208.18677 490.0856 L 208.18677 490.0856 L 208.18677 490.0856 L 308.79376 414.38132 L 308.79376 414.38132 L 447.25293 414.38132 L 447.25293 414.38132 Q 474.14786 413.38522 492.07782 395.45526 Q 510.00778 377.5253 511.0039 350.63034 L 511.0039 63.750973 L 511.0039 63.750973 Q 510.00778 36.85603 492.07782 18.92607 Q 474.14786 0.99610895 447.25293 0 L 64.74708 0 L 64.74708 0 Q 37.85214 0.99610895 19.922178 18.92607 Q 1.9922179 36.85603 0.99610895 63.750973 L 0.99610895 350.63034 L 0.99610895 350.63034 Q 1.9922179 377.5253 19.922178 395.45526 Q 37.85214 413.38522 64.74708 414.38132 L 112.56031 414.38132 L 160.37354 414.38132 L 160.37354 462.19455 L 160.37354 462.19455 L 160.37354 466.179 L 160.37354 466.179 L 160.37354 466.179 L 160.37354 466.179 L 160.37354 473.15176 L 160.37354 473.15176 L 160.37354 494.07004 L 160.37354 494.07004 Q 160.37354 504.03113 169.33852 508.01556 Q 178.3035 512 186.27237 507.01947 L 203.20622 494.07004 L 203.20622 494.07004 L 208.18677 490.0856 L 208.18677 490.0856 Z M 279.90662 119.53307 Q 277.9144 97.618675 256 95.62646 Q 234.0856 97.618675 232.09338 119.53307 L 232.09338 237.07393 L 232.09338 237.07393 L 201.214 206.19455 L 201.214 206.19455 Q 184.28015 192.24902 167.3463 206.19455 Q 153.40077 223.1284 167.3463 240.06226 L 239.06615 311.7821 L 239.06615 311.7821 Q 256 325.72763 272.93384 311.7821 L 344.6537 240.06226 L 344.6537 240.06226 Q 358.5992 223.1284 344.6537 206.19455 Q 327.71985 192.24902 310.78598 206.19455 L 279.90662 237.07393 L 279.90662 237.07393 L 279.90662 119.53307 L 279.90662 119.53307 Z" />
</svg>