<svg xmlns="http://www.w3.org/2000/svg" viewBox="0 0 512 512">
  <path d="M 57.6 198.4 Q 58.4 169.6 80 152.8 Q 76.8 162.4 76.8 172.8 L 76.8 371.2 L 76.8 371.2 Q 77.6 387.2 88 398.4 Q 99.2 408.8 115.2 409.6 L 140.8 409.6 L 140.8 409.6 Q 156.8 408.8 168 398.4 Q 178.4 387.2 179.2 371.2 L 179.2 354.4 L 179.2 354.4 Q 182.4 355.2 185.6 355.2 L 185.6 364.8 L 185.6 364.8 Q 186.4 376.8 198.4 377.6 Q 210.4 376.8 211.2 364.8 L 211.2 358.4 L 211.2 358.4 Q 214.4 358.4 217.6 358.4 Q 220.8 358.4 224 358.4 L 224 364.8 L 224 364.8 Q 224.8 376.8 236.8 377.6 Q 248.8 376.8 249.6 364.8 L 249.6 355.2 L 249.6 355.2 Q 252.8 355.2 256 354.4 L 256 371.2 L 256 371.2 Q 256.8 387.2 267.2 398.4 Q 278.4 408.8 294.4 409.6 L 320 409.6 L 320 409.6 Q 336 408.8 347.2 398.4 Q 357.6 387.2 358.4 371.2 L 358.4 268 L 358.4 268 L 371.2 282.4 L 371.2 282.4 L 371.2 320 L 371.2 320 Q 371.2 325.6 374.4 330.4 L 408 383.2 L 408 383.2 Q 424.8 408.8 456 409.6 Q 479.2 408.8 495.2 392.8 Q 511.2 376.8 512 353.6 L 512 271.2 L 512 271.2 Q 512 256 502.4 244 L 499.2 239.2 L 499.2 239.2 L 499.2 185.6 L 499.2 185.6 Q 497.6 168 480 166.4 Q 462.4 168 460.8 185.6 L 460.8 189.6 L 460.8 189.6 L 422.4 140 L 422.4 140 Q 392.8 103.2 346.4 102.4 L 204.8 102.4 L 115.2 102.4 Q 74.4 103.2 47.2 130.4 Q 20 157.6 19.2 198.4 L 19.2 241.6 L 19.2 241.6 Q 0.8 256.8 0 281.6 L 0 296 L 0 296 Q 0.8 306.4 11.2 307.2 Q 31.2 306.4 44 293.6 Q 56.8 280.8 57.6 260.8 L 57.6 256 L 57.6 256 L 57.6 230.4 L 57.6 230.4 L 57.6 198.4 L 57.6 198.4 Z M 130.4 145.6 Q 135.2 160.8 146.4 172 L 152 177.6 L 152 177.6 Q 179.2 204 217.6 204.8 Q 256 204 283.2 177.6 L 288.8 172 L 288.8 172 Q 302.4 158.4 305.6 140.8 L 346.4 140.8 L 346.4 140.8 Q 374.4 141.6 392 163.2 L 472 267.2 L 472 267.2 Q 473.6 268.8 473.6 271.2 L 473.6 353.6 L 473.6 353.6 Q 472 369.6 456 371.2 Q 445.6 371.2 440.8 363.2 L 409.6 314.4 L 409.6 314.4 L 409.6 275.2 L 409.6 275.2 Q 409.6 268 404.8 262.4 L 353.6 204.8 L 353.6 204.8 Q 344.8 196 332 200 Q 320.8 204.8 320 217.6 L 320 371.2 L 320 371.2 L 294.4 371.2 L 294.4 371.2 L 294.4 332.8 L 294.4 332.8 L 294.4 326.4 L 294.4 326.4 L 294.4 320 L 294.4 320 Q 293.6 287.2 272 265.6 Q 250.4 244 217.6 243.2 Q 184.8 244 163.2 265.6 Q 141.6 287.2 140.8 320 L 140.8 326.4 L 140.8 326.4 L 140.8 332.8 L 140.8 332.8 L 140.8 371.2 L 140.8 371.2 L 115.2 371.2 L 115.2 371.2 L 115.2 172.8 L 115.2 172.8 Q 116 154.4 130.4 145.6 L 130.4 145.6 Z M 180.8 314.4 L 180 314.4 L 180.8 314.4 L 180 314.4 Q 182.4 300 192.8 291.2 Q 203.2 281.6 217.6 281.6 Q 232 281.6 242.4 291.2 Q 252.8 300 256 314.4 L 254.4 314.4 L 254.4 314.4 Q 243.2 319.2 217.6 320 Q 192 319.2 180.8 314.4 L 180.8 314.4 Z M 460.8 307.2 Q 460 295.2 448 294.4 Q 436 295.2 435.2 307.2 Q 436 319.2 448 320 Q 460 319.2 460.8 307.2 L 460.8 307.2 Z" />
</svg>