<svg xmlns="http://www.w3.org/2000/svg" viewBox="0 0 512 512">
  <path d="M 320 384 L 89.6 384 L 320 384 L 89.6 384 L 89.6 409.6 L 89.6 409.6 Q 90.4 421.6 102.4 422.4 L 307.2 422.4 L 307.2 422.4 Q 319.2 421.6 320 409.6 L 320 384 L 320 384 Z M 358.4 409.6 Q 358.4 416 356.8 422.4 L 422.4 422.4 L 422.4 422.4 Q 436 422.4 444.8 412.8 Q 454.4 404 454.4 390.4 L 454.4 225.6 L 454.4 225.6 Q 436 214.4 435.2 192 Q 436 176 446.4 164.8 Q 457.6 154.4 473.6 153.6 Q 489.6 154.4 500.8 164.8 Q 511.2 176 512 192 Q 511.2 214.4 492.8 225.6 L 492.8 390.4 L 492.8 390.4 Q 492 420 472 440 Q 452 460 422.4 460.8 L 307.2 460.8 L 102.4 460.8 Q 80.8 460 66.4 445.6 Q 52 431.2 51.2 409.6 L 51.2 384 L 51.2 384 Q 29.6 383.2 15.2 368.8 Q 0.8 354.4 0 332.8 L 0 179.2 L 0 179.2 Q 0.8 157.6 15.2 143.2 Q 29.6 128.8 51.2 128 L 51.2 102.4 L 51.2 102.4 Q 52 80.8 66.4 66.4 Q 80.8 52 102.4 51.2 L 307.2 51.2 L 307.2 51.2 Q 328.8 52 343.2 66.4 Q 357.6 80.8 358.4 102.4 L 358.4 128 L 358.4 128 Q 380 128.8 394.4 143.2 Q 408.8 157.6 409.6 179.2 L 409.6 332.8 L 409.6 332.8 Q 408.8 354.4 394.4 368.8 Q 380 383.2 358.4 384 L 358.4 409.6 L 358.4 409.6 Z M 320 128 L 320 102.4 L 320 128 L 320 102.4 Q 319.2 90.4 307.2 89.6 L 102.4 89.6 L 102.4 89.6 Q 90.4 90.4 89.6 102.4 L 89.6 128 L 89.6 128 L 320 128 L 320 128 Z M 358.4 166.4 L 51.2 166.4 L 358.4 166.4 L 51.2 166.4 Q 39.2 167.2 38.4 179.2 L 38.4 332.8 L 38.4 332.8 Q 39.2 344.8 51.2 345.6 L 358.4 345.6 L 358.4 345.6 Q 370.4 344.8 371.2 332.8 L 371.2 179.2 L 371.2 179.2 Q 370.4 167.2 358.4 166.4 L 358.4 166.4 Z M 89.6 192 L 134.4 192 L 89.6 192 L 134.4 192 Q 144 192 150.4 200 Q 155.2 208 152.8 217.6 L 120.8 307.2 L 120.8 307.2 Q 112.8 323.2 96 319.2 Q 80 311.2 84 294.4 L 107.2 230.4 L 107.2 230.4 L 89.6 230.4 L 89.6 230.4 Q 72 228.8 70.4 211.2 Q 72 193.6 89.6 192 L 89.6 192 Z M 166.4 211.2 Q 168 193.6 185.6 192 L 230.4 192 L 230.4 192 Q 240 192 246.4 200 Q 251.2 208 248.8 217.6 L 216.8 307.2 L 216.8 307.2 Q 208.8 323.2 192 319.2 Q 176 311.2 180 294.4 L 203.2 230.4 L 203.2 230.4 L 185.6 230.4 L 185.6 230.4 Q 168 228.8 166.4 211.2 L 166.4 211.2 Z M 281.6 192 L 326.4 192 L 281.6 192 L 326.4 192 Q 336 192 342.4 200 Q 347.2 208 344.8 217.6 L 312.8 307.2 L 312.8 307.2 Q 304.8 323.2 288 319.2 Q 272 311.2 276 294.4 L 299.2 230.4 L 299.2 230.4 L 281.6 230.4 L 281.6 230.4 Q 264 228.8 262.4 211.2 Q 264 193.6 281.6 192 L 281.6 192 Z" />
</svg>