<svg xmlns="http://www.w3.org/2000/svg" viewBox="0 0 384 512">
    <path d="M 0 24 Q 2 2 24 0 L 360 0 Q 382 2 384 24 Q 382 46 360 48 L 352 48 L 352 67 Q 351 130 308 175 L 226 256 L 307 338 Q 351 382 352 445 L 352 464 L 360 464 Q 382 466 384 488 Q 382 510 360 512 L 24 512 Q 2 510 0 488 Q 2 466 24 464 L 32 464 L 32 445 Q 33 382 77 338 L 158 256 L 77 175 Q 33 130 32 67 L 32 48 L 24 48 Q 2 46 0 24 L 0 24 Z M 274 141 Q 303 110 304 67 L 304 48 L 80 48 L 80 67 Q 81 110 111 141 L 192 222 L 274 141 L 274 141 Z"/>
</svg>
