<svg xmlns="http://www.w3.org/2000/svg" viewBox="0 0 512 512">
  <path d="M 241.77777777777777 72.88888888888889 L 241.77777777777777 440.8888888888889 L 241.77777777777777 72.88888888888889 L 241.77777777777777 440.8888888888889 L 99.55555555555556 440.8888888888889 L 99.55555555555556 440.8888888888889 L 99.55555555555556 111.11111111111111 L 99.55555555555556 111.11111111111111 L 241.77777777777777 72.88888888888889 L 241.77777777777777 72.88888888888889 Z M 284.44444444444446 440.8888888888889 L 284.44444444444446 65.77777777777777 L 284.44444444444446 440.8888888888889 L 284.44444444444446 65.77777777777777 Q 284.44444444444446 49.77777777777778 273.77777777777777 39.111111111111114 Q 263.1111111111111 28.444444444444443 247.11111111111111 28.444444444444443 Q 241.77777777777777 28.444444444444443 237.33333333333334 30.22222222222222 L 88.88888888888889 69.33333333333333 L 88.88888888888889 69.33333333333333 Q 74.66666666666667 73.77777777777777 65.77777777777777 85.33333333333333 Q 56.888888888888886 96 56.888888888888886 111.11111111111111 L 56.888888888888886 440.8888888888889 L 56.888888888888886 440.8888888888889 L 21.333333333333332 440.8888888888889 L 21.333333333333332 440.8888888888889 Q 1.7777777777777777 442.6666666666667 0 462.22222222222223 Q 1.7777777777777777 481.77777777777777 21.333333333333332 483.55555555555554 L 56.888888888888886 483.55555555555554 L 284.44444444444446 483.55555555555554 L 284.44444444444446 440.8888888888889 L 284.44444444444446 440.8888888888889 Z M 199.11111111111111 284.44444444444446 Q 208 284.44444444444446 214.22222222222223 276.44444444444446 L 214.22222222222223 276.44444444444446 L 214.22222222222223 276.44444444444446 Q 220.44444444444446 268.44444444444446 220.44444444444446 256 Q 220.44444444444446 243.55555555555554 214.22222222222223 235.55555555555554 Q 208 227.55555555555554 199.11111111111111 227.55555555555554 Q 190.22222222222223 227.55555555555554 184 235.55555555555554 Q 177.77777777777777 243.55555555555554 177.77777777777777 256 Q 177.77777777777777 268.44444444444446 184 276.44444444444446 Q 190.22222222222223 284.44444444444446 199.11111111111111 284.44444444444446 L 199.11111111111111 284.44444444444446 Z M 312.8888888888889 128 L 405.3333333333333 128 L 312.8888888888889 128 L 405.3333333333333 128 Q 411.55555555555554 128.88888888888889 412.44444444444446 135.11111111111111 L 412.44444444444446 462.22222222222223 L 412.44444444444446 462.22222222222223 Q 414.22222222222223 481.77777777777777 433.77777777777777 483.55555555555554 L 490.6666666666667 483.55555555555554 L 490.6666666666667 483.55555555555554 Q 510.22222222222223 481.77777777777777 512 462.22222222222223 Q 510.22222222222223 442.6666666666667 490.6666666666667 440.8888888888889 L 455.1111111111111 440.8888888888889 L 455.1111111111111 440.8888888888889 L 455.1111111111111 135.11111111111111 L 455.1111111111111 135.11111111111111 Q 454.22222222222223 113.77777777777777 440.8888888888889 99.55555555555556 Q 426.6666666666667 86.22222222222223 405.3333333333333 85.33333333333333 L 312.8888888888889 85.33333333333333 L 312.8888888888889 85.33333333333333 L 312.8888888888889 128 L 312.8888888888889 128 Z" />
</svg>