<svg xmlns="http://www.w3.org/2000/svg" viewBox="0 0 576 453">
    <path d="M 67 8 Q 46 0 34 18 Q 27 39 45 50 L 466 261 L 64 261 Q 37 262 19 280 Q 1 298 0 325 L 0 389 Q 1 416 19 434 Q 37 452 64 453 L 512 453 Q 539 452 557 434 Q 575 416 576 389 L 576 357 L 576 325 L 576 317 Q 576 291 563 270 Q 550 249 527 238 L 67 8 L 67 8 Z M 528 325 L 528 357 L 528 389 Q 527 404 512 405 L 64 405 Q 49 404 48 389 L 48 325 Q 49 310 64 309 L 512 309 Q 527 310 528 325 L 528 325 Z M 120 357 Q 118 335 96 333 Q 74 335 72 357 Q 74 379 96 381 Q 118 379 120 357 L 120 357 Z M 176 381 Q 198 379 200 357 Q 198 335 176 333 Q 154 335 152 357 Q 154 379 176 381 L 176 381 Z"/>
</svg>
