<svg xmlns="http://www.w3.org/2000/svg" viewBox="0 0 512 512">
  <path d="M 208.55598 53.374516 Q 209.5444 26.687258 232.278 11.861004 Q 256 0 279.72202 11.861004 Q 302.4556 26.687258 303.444 53.374516 Q 302.4556 80.061775 279.72202 94.88803 Q 256 106.74903 232.278 94.88803 Q 209.5444 80.061775 208.55598 53.374516 L 208.55598 53.374516 Z M 240.18533 179.89189 L 240.18533 306.40927 L 240.18533 179.89189 L 240.18533 306.40927 L 271.81467 306.40927 L 271.81467 306.40927 L 271.81467 179.89189 L 271.81467 179.89189 Q 270.82626 179.89189 270.82626 179.89189 Q 269.83783 179.89189 269.83783 179.89189 L 242.16216 179.89189 L 242.16216 179.89189 Q 241.17375 179.89189 240.18533 179.89189 L 240.18533 179.89189 Z M 240.18533 353.85327 L 240.18533 488.27798 L 240.18533 353.85327 L 240.18533 488.27798 Q 238.2085 510.02316 216.46332 512 Q 194.71814 510.02316 192.74132 488.27798 L 192.74132 227.3359 L 192.74132 227.3359 L 150.23938 302.4556 L 150.23938 302.4556 Q 137.38997 320.2471 117.62162 311.35135 Q 99.83012 298.50192 108.72587 278.73358 L 167.04247 176.92664 L 167.04247 176.92664 Q 178.90347 156.16989 198.67181 144.30888 Q 218.44016 132.44788 242.16216 132.44788 L 269.83783 132.44788 L 269.83783 132.44788 Q 293.55984 132.44788 313.3282 144.30888 Q 333.09653 156.16989 344.95752 176.92664 L 403.27414 278.73358 L 403.27414 278.73358 Q 412.1699 298.50192 394.3784 311.35135 Q 374.61005 320.2471 361.76062 302.4556 L 319.2587 227.3359 L 319.2587 227.3359 L 319.2587 488.27798 L 319.2587 488.27798 Q 317.28186 510.02316 295.53668 512 Q 273.7915 510.02316 271.81467 488.27798 L 271.81467 353.85327 L 271.81467 353.85327 L 240.18533 353.85327 L 240.18533 353.85327 Z" />
</svg>