<svg xmlns="http://www.w3.org/2000/svg" viewBox="0 0 448 448">
    <path d="M 424 0 Q 446 2 448 24 L 448 424 Q 446 446 424 448 Q 402 446 400 424 L 400 24 Q 402 2 424 0 L 424 0 Z M 320 64 Q 306 64 297 55 L 297 55 Q 288 46 288 32 Q 288 18 297 9 Q 306 0 320 0 Q 334 0 343 9 Q 352 18 352 32 Q 352 46 343 55 Q 334 64 320 64 L 320 64 Z M 320 384 Q 334 384 343 393 L 343 393 Q 352 402 352 416 Q 352 430 343 439 Q 334 448 320 448 Q 306 448 297 439 Q 288 430 288 416 Q 288 402 297 393 Q 306 384 320 384 L 320 384 Z M 320 256 Q 306 256 297 247 L 297 247 Q 288 238 288 224 Q 288 210 297 201 Q 306 192 320 192 Q 334 192 343 201 Q 352 210 352 224 Q 352 238 343 247 Q 334 256 320 256 L 320 256 Z M 128 0 Q 142 0 151 9 L 151 9 Q 160 18 160 32 Q 160 46 151 55 Q 142 64 128 64 Q 114 64 105 55 Q 96 46 96 32 Q 96 18 105 9 Q 114 0 128 0 L 128 0 Z M 128 448 Q 114 448 105 439 L 105 439 Q 96 430 96 416 Q 96 402 105 393 Q 114 384 128 384 Q 142 384 151 393 Q 160 402 160 416 Q 160 430 151 439 Q 142 448 128 448 L 128 448 Z M 128 192 Q 142 192 151 201 L 151 201 Q 160 210 160 224 Q 160 238 151 247 Q 142 256 128 256 Q 114 256 105 247 Q 96 238 96 224 Q 96 210 105 201 Q 114 192 128 192 L 128 192 Z M 224 64 Q 210 64 201 55 L 201 55 Q 192 46 192 32 Q 192 18 201 9 Q 210 0 224 0 Q 238 0 247 9 Q 256 18 256 32 Q 256 46 247 55 Q 238 64 224 64 L 224 64 Z M 224 384 Q 238 384 247 393 L 247 393 Q 256 402 256 416 Q 256 430 247 439 Q 238 448 224 448 Q 210 448 201 439 Q 192 430 192 416 Q 192 402 201 393 Q 210 384 224 384 L 224 384 Z M 224 256 Q 210 256 201 247 L 201 247 Q 192 238 192 224 Q 192 210 201 201 Q 210 192 224 192 Q 238 192 247 201 Q 256 210 256 224 Q 256 238 247 247 Q 238 256 224 256 L 224 256 Z M 32 0 Q 46 0 55 9 L 55 9 Q 64 18 64 32 Q 64 46 55 55 Q 46 64 32 64 Q 18 64 9 55 Q 0 46 0 32 Q 0 18 9 9 Q 18 0 32 0 L 32 0 Z M 32 448 Q 18 448 9 439 L 9 439 Q 0 430 0 416 Q 0 402 9 393 Q 18 384 32 384 Q 46 384 55 393 Q 64 402 64 416 Q 64 430 55 439 Q 46 448 32 448 L 32 448 Z M 32 192 Q 46 192 55 201 L 55 201 Q 64 210 64 224 Q 64 238 55 247 Q 46 256 32 256 Q 18 256 9 247 Q 0 238 0 224 Q 0 210 9 201 Q 18 192 32 192 L 32 192 Z M 224 160 Q 210 160 201 151 L 201 151 Q 192 142 192 128 Q 192 114 201 105 Q 210 96 224 96 Q 238 96 247 105 Q 256 114 256 128 Q 256 142 247 151 Q 238 160 224 160 L 224 160 Z M 32 96 Q 46 96 55 105 L 55 105 Q 64 114 64 128 Q 64 142 55 151 Q 46 160 32 160 Q 18 160 9 151 Q 0 142 0 128 Q 0 114 9 105 Q 18 96 32 96 L 32 96 Z M 32 352 Q 18 352 9 343 L 9 343 Q 0 334 0 320 Q 0 306 9 297 Q 18 288 32 288 Q 46 288 55 297 Q 64 306 64 320 Q 64 334 55 343 Q 46 352 32 352 L 32 352 Z M 224 288 Q 238 288 247 297 L 247 297 Q 256 306 256 320 Q 256 334 247 343 Q 238 352 224 352 Q 210 352 201 343 Q 192 334 192 320 Q 192 306 201 297 Q 210 288 224 288 L 224 288 Z"/>
</svg>
