<svg xmlns="http://www.w3.org/2000/svg" viewBox="0 0 512 512">
  <path d="M 435.2 51.2 Q 452.8 52.8 454.4 70.4 L 454.4 108.8 L 454.4 108.8 L 492.8 108.8 L 492.8 108.8 Q 510.4 110.4 512 128 Q 510.4 145.6 492.8 147.2 L 454.4 147.2 L 454.4 147.2 L 454.4 185.6 L 454.4 185.6 Q 452.8 203.2 435.2 204.8 Q 417.6 203.2 416 185.6 L 416 147.2 L 416 147.2 L 377.6 147.2 L 377.6 147.2 Q 360 145.6 358.4 128 Q 360 110.4 377.6 108.8 L 416 108.8 L 416 108.8 L 416 70.4 L 416 70.4 Q 417.6 52.8 435.2 51.2 L 435.2 51.2 Z M 320 281.6 Q 320 243.2 300.8 211.2 L 300.8 211.2 L 300.8 211.2 Q 282.4 179.2 249.6 160 Q 216 140.8 179.2 140.8 Q 142.4 140.8 108.8 160 Q 76 179.2 57.6 211.2 Q 38.4 243.2 38.4 281.6 Q 38.4 320 57.6 352 Q 76 384 108.8 403.2 Q 142.4 422.4 179.2 422.4 Q 216 422.4 249.6 403.2 Q 282.4 384 300.8 352 Q 320 320 320 281.6 L 320 281.6 Z M 0 281.6 Q 0.8 232.8 24 192 L 24 192 L 24 192 Q 48 151.2 89.6 126.4 Q 132 102.4 179.2 102.4 Q 226.4 102.4 268.8 126.4 Q 310.4 151.2 334.4 192 Q 357.6 232.8 358.4 281.6 Q 357.6 330.4 334.4 371.2 Q 310.4 412 268.8 436.8 Q 226.4 460.8 179.2 460.8 Q 132 460.8 89.6 436.8 Q 48 412 24 371.2 Q 0.8 330.4 0 281.6 L 0 281.6 Z M 115.2 217.6 Q 126.4 217.6 133.6 224.8 L 133.6 224.8 L 133.6 224.8 Q 140.8 232 140.8 243.2 Q 140.8 254.4 133.6 261.6 Q 126.4 268.8 115.2 268.8 Q 104.8 268.8 97.6 261.6 Q 90.4 254.4 89.6 243.2 Q 90.4 232 97.6 224.8 Q 104.8 217.6 115.2 217.6 L 115.2 217.6 Z M 217.6 243.2 Q 218.4 232 225.6 224.8 L 225.6 224.8 L 225.6 224.8 Q 232.8 217.6 243.2 217.6 Q 254.4 217.6 261.6 224.8 Q 268.8 232 268.8 243.2 Q 268.8 254.4 261.6 261.6 Q 254.4 268.8 243.2 268.8 Q 232.8 268.8 225.6 261.6 Q 218.4 254.4 217.6 243.2 L 217.6 243.2 Z M 116.8 317.6 Q 140.8 344.8 179.2 345.6 Q 217.6 344.8 241.6 317.6 Q 254.4 305.6 268.8 316 Q 280.8 328.8 270.4 343.2 Q 235.2 382.4 179.2 384 Q 123.2 382.4 88 343.2 Q 77.6 328.8 89.6 316 Q 104 305.6 116.8 317.6 L 116.8 317.6 Z" />
</svg>