<svg xmlns="http://www.w3.org/2000/svg" viewBox="0 0 512 512">
  <path d="M 141.71428571428572 54.857142857142854 L 54.857142857142854 54.857142857142854 L 141.71428571428572 54.857142857142854 L 54.857142857142854 54.857142857142854 L 54.857142857142854 141.71428571428572 L 54.857142857142854 141.71428571428572 L 141.71428571428572 54.857142857142854 L 141.71428571428572 54.857142857142854 Z M 0 182.85714285714286 L 0 36.57142857142857 L 0 182.85714285714286 L 0 36.57142857142857 Q 0 20.571428571428573 10.285714285714286 10.285714285714286 Q 20.571428571428573 0 36.57142857142857 0 L 182.85714285714286 0 L 182.85714285714286 0 Q 198.85714285714286 0 209.14285714285714 10.285714285714286 Q 219.42857142857142 20.571428571428573 219.42857142857142 36.57142857142857 L 219.42857142857142 40 L 219.42857142857142 40 Q 219.42857142857142 54.857142857142854 209.14285714285714 65.14285714285714 L 156.57142857142858 117.71428571428571 L 156.57142857142858 117.71428571428571 L 256 217.14285714285714 L 256 217.14285714285714 L 355.42857142857144 117.71428571428571 L 355.42857142857144 117.71428571428571 L 302.85714285714283 65.14285714285714 L 302.85714285714283 65.14285714285714 Q 292.57142857142856 54.857142857142854 292.57142857142856 40 L 292.57142857142856 36.57142857142857 L 292.57142857142856 36.57142857142857 Q 292.57142857142856 20.571428571428573 302.85714285714283 10.285714285714286 Q 313.14285714285717 0 329.14285714285717 0 L 475.42857142857144 0 L 475.42857142857144 0 Q 491.42857142857144 0 501.7142857142857 10.285714285714286 Q 512 20.571428571428573 512 36.57142857142857 L 512 182.85714285714286 L 512 182.85714285714286 Q 512 198.85714285714286 501.7142857142857 209.14285714285714 Q 491.42857142857144 219.42857142857142 475.42857142857144 219.42857142857142 L 472 219.42857142857142 L 472 219.42857142857142 Q 457.14285714285717 219.42857142857142 446.85714285714283 209.14285714285714 L 394.2857142857143 156.57142857142858 L 394.2857142857143 156.57142857142858 L 294.85714285714283 256 L 294.85714285714283 256 L 394.2857142857143 355.42857142857144 L 394.2857142857143 355.42857142857144 L 446.85714285714283 302.85714285714283 L 446.85714285714283 302.85714285714283 Q 457.14285714285717 292.57142857142856 472 292.57142857142856 L 475.42857142857144 292.57142857142856 L 475.42857142857144 292.57142857142856 Q 491.42857142857144 292.57142857142856 501.7142857142857 302.85714285714283 Q 512 313.14285714285717 512 329.14285714285717 L 512 475.42857142857144 L 512 475.42857142857144 Q 512 491.42857142857144 501.7142857142857 501.7142857142857 Q 491.42857142857144 512 475.42857142857144 512 L 329.14285714285717 512 L 329.14285714285717 512 Q 313.14285714285717 512 302.85714285714283 501.7142857142857 Q 292.57142857142856 491.42857142857144 292.57142857142856 475.42857142857144 L 292.57142857142856 472 L 292.57142857142856 472 Q 292.57142857142856 457.14285714285717 302.85714285714283 446.85714285714283 L 355.42857142857144 394.2857142857143 L 355.42857142857144 394.2857142857143 L 256 294.85714285714283 L 256 294.85714285714283 L 156.57142857142858 394.2857142857143 L 156.57142857142858 394.2857142857143 L 209.14285714285714 446.85714285714283 L 209.14285714285714 446.85714285714283 Q 219.42857142857142 457.14285714285717 219.42857142857142 472 L 219.42857142857142 475.42857142857144 L 219.42857142857142 475.42857142857144 Q 219.42857142857142 491.42857142857144 209.14285714285714 501.7142857142857 Q 198.85714285714286 512 182.85714285714286 512 L 36.57142857142857 512 L 36.57142857142857 512 Q 20.571428571428573 512 10.285714285714286 501.7142857142857 Q 0 491.42857142857144 0 475.42857142857144 L 0 329.14285714285717 L 0 329.14285714285717 Q 0 313.14285714285717 10.285714285714286 302.85714285714283 Q 20.571428571428573 292.57142857142856 36.57142857142857 292.57142857142856 L 40 292.57142857142856 L 40 292.57142857142856 Q 54.857142857142854 292.57142857142856 65.14285714285714 302.85714285714283 L 117.71428571428571 355.42857142857144 L 117.71428571428571 355.42857142857144 L 217.14285714285714 256 L 217.14285714285714 256 L 117.71428571428571 156.57142857142858 L 117.71428571428571 156.57142857142858 L 65.14285714285714 209.14285714285714 L 65.14285714285714 209.14285714285714 Q 54.857142857142854 219.42857142857142 40 219.42857142857142 L 36.57142857142857 219.42857142857142 L 36.57142857142857 219.42857142857142 Q 20.571428571428573 219.42857142857142 10.285714285714286 209.14285714285714 Q 0 198.85714285714286 0 182.85714285714286 L 0 182.85714285714286 Z M 370.2857142857143 457.14285714285717 L 457.14285714285717 457.14285714285717 L 370.2857142857143 457.14285714285717 L 457.14285714285717 457.14285714285717 L 457.14285714285717 370.2857142857143 L 457.14285714285717 370.2857142857143 L 370.2857142857143 457.14285714285717 L 370.2857142857143 457.14285714285717 Z M 54.857142857142854 370.2857142857143 L 54.857142857142854 457.14285714285717 L 54.857142857142854 370.2857142857143 L 54.857142857142854 457.14285714285717 L 141.71428571428572 457.14285714285717 L 141.71428571428572 457.14285714285717 L 54.857142857142854 370.2857142857143 L 54.857142857142854 370.2857142857143 Z M 370.2857142857143 54.857142857142854 L 457.14285714285717 141.71428571428572 L 370.2857142857143 54.857142857142854 L 457.14285714285717 141.71428571428572 L 457.14285714285717 54.857142857142854 L 457.14285714285717 54.857142857142854 L 370.2857142857143 54.857142857142854 L 370.2857142857143 54.857142857142854 Z" />
</svg>