<svg xmlns="http://www.w3.org/2000/svg" viewBox="0 0 512 512">
  <path d="M 116.44444 111.55556 L 143.11111 78.666664 L 116.44444 111.55556 L 143.11111 78.666664 L 148.44444 84 L 148.44444 84 Q 193.77777 127.55556 256 128.44444 Q 318.22223 127.55556 363.55554 84 L 368.8889 78.666664 L 368.8889 78.666664 L 395.55554 112.44444 L 395.55554 112.44444 Q 416.8889 139.11111 444.44446 159.55556 L 469.33334 178.22223 L 469.33334 178.22223 L 469.33334 199.55556 L 469.33334 199.55556 L 277.33334 199.55556 L 42.666668 199.55556 L 42.666668 178.22223 L 42.666668 178.22223 L 67.55556 159.55556 L 67.55556 159.55556 Q 95.111115 139.11111 116.44444 111.55556 L 116.44444 111.55556 Z M 234.66667 242.22223 L 234.66667 441.33334 L 234.66667 242.22223 L 234.66667 441.33334 L 42.666668 441.33334 L 42.666668 441.33334 L 42.666668 242.22223 L 42.666668 242.22223 L 234.66667 242.22223 L 234.66667 242.22223 Z M 277.33334 242.22223 L 469.33334 242.22223 L 277.33334 242.22223 L 469.33334 242.22223 L 469.33334 441.33334 L 469.33334 441.33334 L 369.77777 441.33334 L 369.77777 441.33334 L 277.33334 242.22223 L 277.33334 242.22223 Z M 349.33334 36.88889 L 333.33334 53.77778 L 349.33334 36.88889 L 333.33334 53.77778 Q 301.33334 84.888885 256 85.77778 Q 211.55556 84.888885 178.66667 53.77778 L 162.66667 36.88889 L 162.66667 36.88889 Q 152.88889 28 140.44444 28.88889 Q 128 29.777779 120 39.555557 L 83.55556 85.77778 L 83.55556 85.77778 Q 65.77778 108 42.666668 124.888885 L 11.555555 148 L 11.555555 148 Q 0 156.88889 0 171.11111 L 0 455.55554 L 0 455.55554 Q 0 468 8 476 Q 16 484 28.444445 484 L 483.55554 484 L 483.55554 484 Q 496 484 504 476 Q 512 468 512 455.55554 L 512 171.11111 L 512 171.11111 Q 512 156.88889 500.44446 148 L 470.22223 124.888885 L 470.22223 124.888885 Q 447.1111 108 428.44446 84.888885 L 392 39.555557 L 392 39.555557 Q 384 29.777779 371.55554 28.88889 Q 359.1111 28 349.33334 36.88889 L 349.33334 36.88889 Z" />
</svg>