<svg xmlns="http://www.w3.org/2000/svg" viewBox="0 0 512 512">
  <path d="M 152 54.857143 L 243.42857 54.857143 L 152 54.857143 L 243.42857 54.857143 Q 302.85715 56 342.85715 96 Q 382.85715 136 384 195.42857 Q 384 214.85715 378.2857 234.28572 L 352 329.14285 L 352 329.14285 L 409.14285 329.14285 L 409.14285 329.14285 L 432 249.14285 L 432 249.14285 Q 438.85715 222.85715 438.85715 195.42857 Q 436.57144 113.14286 381.7143 57.142857 Q 325.7143 2.2857144 243.42857 0 L 120 0 L 120 0 Q 100.57143 0 86.85714 13.714286 Q 74.28571 26.285715 73.14286 46.857143 Q 74.28571 67.42857 89.14286 81.14286 Q 73.14286 105.14286 73.14286 133.71428 L 73.14286 192 L 73.14286 192 Q 73.14286 229.71428 98.28571 257.14285 L 100.57143 259.42856 L 100.57143 259.42856 Q 112 272 125.71429 278.85715 Q 112 301.7143 110.85714 329.14285 L 165.71428 329.14285 L 165.71428 329.14285 Q 168 308.57144 184 296 L 212.57143 278.85715 L 212.57143 278.85715 Q 217.14285 275.42856 221.71428 273.14285 L 270.85715 242.28572 L 270.85715 242.28572 Q 290.2857 227.42857 278.85715 204.57143 Q 264 185.14285 241.14285 196.57143 L 193.14285 226.28572 L 193.14285 226.28572 L 193.14285 226.28572 L 193.14285 226.28572 Q 192 226.28572 190.85715 227.42857 L 185.14285 230.85715 L 185.14285 230.85715 Q 161.14285 241.14285 140.57143 222.85715 L 138.28572 220.57143 L 138.28572 220.57143 Q 128 208 128 192 L 128 133.71428 L 128 133.71428 Q 128 115.42857 141.71428 101.71429 L 150.85715 92.57143 L 150.85715 92.57143 Q 160 82.28571 158.85715 68.57143 Q 156.57143 60.57143 152 54.857143 L 152 54.857143 Z M 182.85715 146.28572 Q 200 145.14285 201.14285 128 Q 200 110.85714 182.85715 109.71429 Q 165.71428 110.85714 164.57143 128 Q 165.71428 145.14285 182.85715 146.28572 L 182.85715 146.28572 Z M 133.71428 457.14285 L 152 420.57144 L 133.71428 457.14285 L 152 420.57144 L 360 420.57144 L 360 420.57144 L 378.2857 457.14285 L 378.2857 457.14285 L 133.71428 457.14285 L 133.71428 457.14285 Z M 371.42856 365.7143 L 141.71428 365.7143 L 371.42856 365.7143 L 141.71428 365.7143 Q 118.85714 366.85715 108.57143 385.14285 L 78.85714 444.57144 L 78.85714 444.57144 Q 73.14286 453.7143 73.14286 465.14285 Q 73.14286 485.7143 86.85714 498.2857 Q 99.42857 512 120 512 L 392 512 L 392 512 Q 412.57144 512 425.14285 498.2857 Q 438.85715 485.7143 438.85715 465.14285 Q 438.85715 453.7143 433.14285 444.57144 L 403.42856 385.14285 L 403.42856 385.14285 Q 392 366.85715 371.42856 365.7143 L 371.42856 365.7143 Z" />
</svg>