<svg xmlns="http://www.w3.org/2000/svg" viewBox="0 0 423 512">
    <path d="M 152 0 Q 130 2 128 24 Q 130 46 152 48 L 184 48 L 184 97 Q 105 108 53 165 Q 2 222 0 304 Q 2 392 61 451 Q 120 510 208 512 Q 296 510 355 451 Q 414 392 416 304 Q 415 236 378 184 L 409 153 Q 423 136 409 119 Q 392 105 375 119 L 346 148 Q 298 106 232 97 L 232 48 L 264 48 Q 286 46 288 24 Q 286 2 264 0 L 152 0 L 152 0 Z M 48 304 Q 48 261 69 224 L 69 224 Q 91 187 128 165 Q 166 144 208 144 Q 250 144 288 165 Q 325 187 347 224 Q 368 261 368 304 Q 368 347 347 384 Q 325 421 288 443 Q 250 464 208 464 Q 166 464 128 443 Q 91 421 69 384 Q 48 347 48 304 L 48 304 Z M 220 256 L 220 352 Q 221 374 235 389 Q 250 403 272 404 Q 294 403 309 389 Q 323 374 324 352 L 324 256 Q 323 234 309 219 Q 294 205 272 204 Q 250 205 235 219 Q 221 234 220 256 L 220 256 Z M 272 244 Q 283 245 284 256 L 284 352 Q 283 363 272 364 Q 261 363 260 352 L 260 256 Q 261 245 272 244 L 272 244 Z M 140 253 Q 143 244 152 244 Q 163 245 164 257 L 164 259 Q 164 264 160 269 L 121 312 Q 100 336 100 368 L 100 384 Q 102 402 120 404 L 184 404 Q 202 402 204 384 Q 202 366 184 364 L 140 364 Q 142 350 151 339 L 190 295 Q 204 280 204 259 L 204 257 Q 203 234 189 219 Q 174 205 151 204 Q 115 206 102 240 L 101 242 Q 97 260 114 267 Q 131 271 139 254 L 140 253 L 140 253 Z"/>
</svg>
