<svg xmlns="http://www.w3.org/2000/svg" viewBox="0 0 512 448">
    <path d="M 252 96 L 252 96 Q 268 112 291 112 L 448 112 Q 463 113 464 128 L 464 384 Q 463 399 448 400 L 64 400 Q 49 399 48 384 L 48 64 Q 49 49 64 48 L 198 48 Q 204 48 209 53 L 243 19 L 209 53 L 252 96 L 252 96 Z M 286 62 L 243 19 Q 224 0 197 0 L 64 0 Q 37 1 19 19 Q 1 37 0 64 L 0 384 Q 1 411 19 429 Q 37 447 64 448 L 448 448 Q 475 447 493 429 Q 511 411 512 384 L 512 128 Q 511 101 493 83 Q 475 65 448 64 L 291 64 Q 288 64 286 62 L 286 62 Z M 232 344 Q 234 366 256 368 Q 278 366 280 344 L 280 280 L 344 280 Q 366 278 368 256 Q 366 234 344 232 L 280 232 L 280 168 Q 278 146 256 144 Q 234 146 232 168 L 232 232 L 168 232 Q 146 234 144 256 Q 146 278 168 280 L 232 280 L 232 344 L 232 344 Z"/>
</svg>
