<svg xmlns="http://www.w3.org/2000/svg" viewBox="0 0 448 448">
    <path d="M 400 336 L 400 384 Q 399 399 384 400 L 64 400 Q 49 399 48 384 L 48 336 L 400 336 L 400 336 Z M 75 288 L 48 288 L 48 64 Q 49 49 64 48 L 384 48 Q 399 49 400 64 L 400 288 L 376 288 L 284 147 Q 277 136 264 136 Q 251 136 244 147 L 188 233 L 171 210 Q 164 200 152 200 Q 140 200 133 210 L 75 288 L 75 288 Z M 448 288 L 448 64 Q 447 37 429 19 Q 411 1 384 0 L 64 0 Q 37 1 19 19 Q 1 37 0 64 L 0 288 L 0 312 L 0 336 L 0 384 Q 1 411 19 429 Q 37 447 64 448 L 384 448 Q 411 447 429 429 Q 447 411 448 384 L 448 336 L 448 312 L 448 288 L 448 288 Z M 144 112 Q 144 98 135 89 L 135 89 Q 126 80 112 80 Q 98 80 89 89 Q 80 98 80 112 Q 80 126 89 135 Q 98 144 112 144 Q 126 144 135 135 Q 144 126 144 112 L 144 112 Z"/>
</svg>
