<svg xmlns="http://www.w3.org/2000/svg" viewBox="0 0 512 512">
  <path d="M 88 0 Q 78 0 70 8 Q 63 16 64 26 L 100 446 L 100 446 Q 103 475 123 493 Q 143 511 172 512 L 340 512 L 340 512 Q 369 511 389 493 Q 409 475 412 446 L 448 26 L 448 26 Q 449 16 442 8 Q 435 0 424 0 L 88 0 L 88 0 Z M 121 128 L 114 48 L 121 128 L 114 48 L 398 48 L 398 48 L 391 128 L 391 128 L 121 128 L 121 128 Z M 125 176 L 387 176 L 125 176 L 387 176 L 364 442 L 364 442 Q 360 462 340 464 L 172 464 L 172 464 Q 151 462 148 442 L 125 176 L 125 176 Z" />
</svg>