<svg xmlns="http://www.w3.org/2000/svg" viewBox="0 0 448 512">
    <path d="M 171 52 L 152 80 L 297 80 L 278 52 Q 275 48 271 48 L 177 48 Q 173 48 170 52 L 171 52 Z M 318 25 L 354 80 L 368 80 L 416 80 L 424 80 Q 446 82 448 104 Q 446 126 424 128 L 416 128 L 416 432 Q 415 466 393 489 Q 370 511 336 512 L 112 512 Q 78 511 55 489 Q 33 466 32 432 L 32 128 L 24 128 Q 2 126 0 104 Q 2 82 24 80 L 32 80 L 80 80 L 94 80 L 131 25 Q 148 1 177 0 L 271 0 Q 300 1 317 25 L 318 25 Z M 80 128 L 80 432 Q 80 446 89 455 Q 98 464 112 464 L 336 464 Q 350 464 359 455 Q 368 446 368 432 L 368 128 L 80 128 L 80 128 Z M 200 376 L 200 312 L 136 312 Q 114 310 112 288 Q 114 266 136 264 L 200 264 L 200 200 Q 202 178 224 176 Q 246 178 248 200 L 248 264 L 312 264 Q 334 266 336 288 Q 334 310 312 312 L 248 312 L 248 376 Q 246 398 224 400 Q 202 398 200 376 L 200 376 Z"/>
</svg>
