<svg xmlns="http://www.w3.org/2000/svg" viewBox="0 0 512 512">
  <path d="M 232 24 Q 234 2 256 0 Q 278 2 280 24 L 280 32 L 280 32 L 440 32 L 440 32 Q 448 32 453 38 L 504 102 L 504 102 Q 511 112 504 122 L 453 186 L 453 186 Q 448 192 440 192 L 280 192 L 280 192 L 280 224 L 280 224 L 448 224 L 448 224 Q 462 224 471 233 Q 480 242 480 256 L 480 352 L 480 352 Q 480 366 471 375 Q 462 384 448 384 L 280 384 L 280 384 L 280 488 L 280 488 Q 278 510 256 512 Q 234 510 232 488 L 232 384 L 232 384 L 72 384 L 72 384 Q 64 384 59 378 L 8 314 L 8 314 Q 1 304 8 294 L 59 230 L 59 230 Q 64 224 72 224 L 232 224 L 232 224 L 232 192 L 232 192 L 64 192 L 64 192 Q 50 192 41 183 Q 32 174 32 160 L 32 64 L 32 64 Q 32 50 41 41 Q 50 32 64 32 L 232 32 L 232 32 L 232 24 L 232 24 Z M 80 80 L 80 144 L 80 80 L 80 144 L 425 144 L 425 144 L 451 112 L 451 112 L 425 80 L 425 80 L 80 80 L 80 80 Z M 432 336 L 432 272 L 432 336 L 432 272 L 87 272 L 87 272 L 62 304 L 62 304 L 87 336 L 87 336 L 432 336 L 432 336 Z" />
</svg>