<svg xmlns="http://www.w3.org/2000/svg" viewBox="0 0 512 512">
  <path d="M 201 57 Q 191 66 192 72 Q 191 79 202 88 Q 215 96 216 113 Q 216 126 207 135 Q 198 144 185 144 L 56 144 L 56 144 Q 49 145 48 152 L 48 204 L 48 204 Q 59 200 72 200 Q 105 201 124 225 Q 144 248 144 280 Q 144 312 124 335 Q 105 359 72 360 Q 59 360 48 355 L 48 456 L 48 456 Q 49 463 56 464 L 157 464 L 157 464 Q 152 453 152 440 Q 153 407 177 388 Q 200 368 232 368 Q 264 368 287 388 Q 311 407 312 440 Q 312 453 308 464 L 360 464 L 360 464 Q 367 463 368 456 L 368 327 L 368 327 Q 368 314 377 305 Q 386 296 399 296 Q 416 297 424 310 Q 433 321 440 320 Q 446 321 455 311 Q 463 300 464 280 Q 463 260 455 249 Q 446 239 440 240 Q 433 239 424 250 Q 416 263 399 264 Q 386 264 377 255 Q 368 246 368 233 L 368 152 L 368 152 Q 367 145 360 144 L 279 144 L 279 144 Q 266 144 257 135 Q 248 126 248 113 Q 249 96 262 88 Q 273 79 272 72 Q 273 66 263 57 Q 252 49 232 48 Q 212 49 201 57 L 201 57 Z M 172 19 Q 198 0 232 0 Q 266 0 292 19 Q 318 38 320 72 Q 320 85 315 96 L 360 96 L 360 96 Q 384 97 400 112 Q 415 128 416 152 L 416 197 L 416 197 Q 427 192 440 192 Q 474 194 493 220 Q 512 245 512 280 Q 512 314 493 340 Q 474 366 440 368 Q 427 368 416 363 L 416 456 L 416 456 Q 415 480 400 496 Q 384 511 360 512 L 282 512 L 282 512 Q 268 512 258 502 Q 248 492 248 478 Q 249 463 258 454 Q 264 447 264 440 Q 264 432 256 424 Q 248 417 232 416 Q 216 417 208 424 Q 200 432 200 440 Q 200 447 206 454 Q 215 463 216 478 Q 216 492 206 502 Q 196 512 182 512 L 56 512 L 56 512 Q 32 511 16 496 Q 1 480 0 456 L 0 330 L 0 330 Q 0 316 10 306 Q 20 296 34 296 Q 49 297 58 306 Q 65 312 72 312 Q 80 312 88 304 Q 95 296 96 280 Q 95 264 88 256 Q 80 248 72 248 Q 65 248 58 254 Q 49 263 34 264 Q 20 264 10 254 Q 0 244 0 230 L 0 152 L 0 152 Q 1 128 16 112 Q 32 97 56 96 L 149 96 L 149 96 Q 144 85 144 72 Q 146 38 172 19 L 172 19 Z" />
</svg>