<svg xmlns="http://www.w3.org/2000/svg" viewBox="0 0 384 512">
    <path d="M 48 448 L 48 64 Q 49 49 64 48 L 224 48 L 224 128 Q 224 142 233 151 Q 242 160 256 160 L 336 160 L 336 448 Q 335 463 320 464 L 64 464 Q 49 463 48 448 L 48 448 Z M 64 0 Q 37 1 19 19 L 19 19 Q 1 37 0 64 L 0 448 Q 1 475 19 493 Q 37 511 64 512 L 320 512 Q 347 511 365 493 Q 383 475 384 448 L 384 155 Q 384 128 365 109 L 275 19 Q 256 0 230 0 L 64 0 L 64 0 Z M 216 280 Q 214 258 192 256 Q 170 258 168 280 L 168 408 Q 170 430 192 432 Q 214 430 216 408 L 216 280 L 216 280 Z M 304 312 Q 302 290 280 288 Q 258 290 256 312 L 256 408 Q 258 430 280 432 Q 302 430 304 408 L 304 312 L 304 312 Z M 128 344 Q 126 322 104 320 Q 82 322 80 344 L 80 408 Q 82 430 104 432 Q 126 430 128 408 L 128 344 L 128 344 Z"/>
</svg>
