<svg xmlns="http://www.w3.org/2000/svg" viewBox="0 0 512 512">
  <path d="M 464 256 Q 464 199 436 152 L 436 152 L 436 152 Q 409 105 360 76 Q 311 48 256 48 Q 201 48 152 76 Q 103 105 76 152 Q 48 199 48 256 Q 48 313 76 360 Q 103 407 152 436 Q 201 464 256 464 Q 311 464 360 436 Q 409 407 436 360 Q 464 313 464 256 L 464 256 Z M 0 256 Q 1 186 34 128 L 34 128 L 34 128 Q 68 70 128 34 Q 189 0 256 0 Q 323 0 384 34 Q 444 70 478 128 Q 511 186 512 256 Q 511 326 478 384 Q 444 442 384 478 Q 323 512 256 512 Q 189 512 128 478 Q 68 442 34 384 Q 1 326 0 256 L 0 256 Z M 98 211 L 120 233 L 98 211 L 120 233 L 166 188 L 166 188 L 143 165 L 143 165 Q 134 154 143 143 Q 154 134 166 143 L 188 165 L 188 165 L 233 120 L 233 120 L 211 98 L 211 98 Q 201 86 211 75 Q 222 66 233 75 L 256 98 L 256 98 L 279 75 L 279 75 Q 290 66 301 75 Q 311 86 301 98 L 279 120 L 279 120 L 324 166 L 324 166 L 347 143 L 347 143 Q 358 134 369 143 Q 378 154 369 166 L 347 188 L 347 188 L 392 233 L 392 233 L 414 211 L 414 211 Q 426 202 437 211 Q 446 222 437 233 L 414 256 L 414 256 L 437 279 L 437 279 Q 446 290 437 301 Q 426 311 414 301 L 392 279 L 392 279 L 347 324 L 347 324 L 369 347 L 369 347 Q 378 358 369 369 Q 358 378 347 369 L 324 347 L 324 347 L 279 392 L 279 392 L 301 414 L 301 414 Q 311 426 301 437 Q 290 446 279 437 L 256 414 L 256 414 L 233 437 L 233 437 Q 222 446 211 437 Q 202 426 211 414 L 233 392 L 233 392 L 188 347 L 188 347 L 165 369 L 165 369 Q 154 378 143 369 Q 134 358 143 347 L 165 324 L 165 324 L 120 279 L 120 279 L 98 301 L 98 301 Q 86 311 75 301 Q 66 290 75 279 L 98 256 L 98 256 L 75 233 L 75 233 Q 66 222 75 211 Q 86 202 98 211 L 98 211 Z M 188 211 L 143 256 L 188 211 L 143 256 L 188 301 L 188 301 L 233 256 L 233 256 L 188 211 L 188 211 Z M 256 233 L 301 188 L 256 233 L 301 188 L 256 143 L 256 143 L 211 188 L 211 188 L 256 233 L 256 233 Z M 279 256 L 324 301 L 279 256 L 324 301 L 369 256 L 369 256 L 324 211 L 324 211 L 279 256 L 279 256 Z M 256 279 L 211 324 L 256 279 L 211 324 L 256 369 L 256 369 L 301 324 L 301 324 L 256 279 L 256 279 Z" />
</svg>