<svg xmlns="http://www.w3.org/2000/svg" viewBox="0 0 512 512">
  <path d="M 139 16 L 256 185 L 139 16 L 256 185 L 400 185 L 400 185 L 400 145 L 400 145 Q 401 121 416 105 Q 432 90 456 89 L 488 89 L 488 89 Q 510 91 512 113 Q 510 135 488 137 L 456 137 L 456 137 Q 449 138 448 145 L 448 185 L 448 185 L 448 217 L 448 217 Q 448 259 430 298 Q 413 337 381 366 Q 349 394 308 410 Q 268 425 224 425 Q 180 425 140 410 Q 99 394 67 366 Q 35 337 18 298 Q 0 259 0 217 L 0 185 L 0 185 L 0 185 L 0 185 Q 3 129 29 83 Q 55 37 99 7 Q 109 1 121 3 Q 132 6 139 16 L 139 16 Z M 80 409 Q 107 410 122 433 Q 134 457 122 481 Q 107 504 80 505 Q 53 504 38 481 Q 26 457 38 433 Q 53 410 80 409 L 80 409 Z M 320 457 Q 321 430 344 415 Q 368 403 392 415 Q 415 430 416 457 Q 415 484 392 499 Q 368 511 344 499 Q 321 484 320 457 L 320 457 Z M 56 265 Q 58 272 61 278 Q 75 308 100 330 Q 124 353 157 365 Q 189 377 224 377 Q 259 377 292 365 Q 324 353 349 330 Q 373 308 387 278 Q 390 272 392 265 Q 398 249 399 233 L 49 233 L 49 233 Q 51 249 56 265 L 56 265 Z" />
</svg>