<svg xmlns="http://www.w3.org/2000/svg" viewBox="0 0 512 512">
  <path d="M 256.79752 422.67914 Q 292.68536 422.67914 322.99066 409.1215 L 322.99066 409.1215 L 322.99066 409.1215 Q 353.29596 395.56387 376.42368 371.63864 L 425.86917 371.63864 L 425.86917 371.63864 Q 397.15887 412.31152 354.09344 436.23676 Q 310.23053 460.162 256.79752 460.9595 Q 199.37695 460.162 153.919 433.04672 Q 107.66355 405.93146 80.54829 359.67603 Q 53.43302 314.21808 52.635513 256.79752 Q 53.43302 199.37695 80.54829 153.919 Q 107.66355 107.66355 153.919 80.54829 Q 199.37695 53.43302 256.79752 52.635513 Q 325.38318 53.43302 378.01868 92.5109 Q 429.8567 130.79128 450.5919 192.99689 L 448.19937 192.99689 L 448.19937 192.99689 Q 429.0592 192.99689 413.90656 203.36449 Q 396.36136 153.12149 354.09344 122.8162 Q 312.62305 91.713394 256.79752 90.915886 Q 186.61682 92.5109 139.56386 139.56386 Q 92.5109 186.61682 90.915886 256.79752 Q 92.5109 326.97818 139.56386 374.03116 Q 186.61682 421.0841 256.79752 422.67914 L 256.79752 422.67914 Z M 165.0841 239.25233 Q 157.10904 248.02492 146.74144 241.64487 Q 137.96884 233.66978 144.3489 223.30219 Q 164.2866 199.37695 192.99689 199.37695 Q 221.70717 199.37695 241.64487 223.30219 Q 248.02492 233.66978 239.25233 241.64487 Q 228.88474 247.22742 220.90965 239.25233 Q 209.74455 224.8972 192.99689 224.8972 Q 176.24922 224.8972 165.0841 239.25233 L 165.0841 239.25233 Z M 292.68536 239.25233 Q 284.71027 248.02492 274.34268 241.64487 Q 266.3676 233.66978 271.95016 223.30219 Q 291.88785 199.37695 320.59814 199.37695 Q 349.3084 199.37695 369.2461 223.30219 Q 374.82867 233.66978 366.85358 241.64487 Q 356.486 247.22742 348.5109 239.25233 Q 337.3458 224.8972 320.59814 224.8972 Q 303.85046 224.8972 292.68536 239.25233 L 292.68536 239.25233 Z M 333.35825 304.64798 Q 333.35825 313.42056 327.7757 319.0031 Q 326.97818 319.80063 326.97818 319.80063 Q 326.97818 320.59814 326.1807 320.59814 L 473.71964 320.59814 L 473.71964 320.59814 Q 485.68225 319.80063 486.47974 307.838 L 486.47974 256.79752 L 486.47974 256.79752 Q 485.68225 244.83488 473.71964 244.03738 L 448.19937 244.03738 L 448.19937 244.03738 Q 436.23676 244.83488 435.43924 256.79752 Q 436.23676 268.76013 448.19937 269.55762 L 460.9595 269.55762 L 460.9595 269.55762 Q 472.92212 270.35513 473.71964 282.31775 Q 472.92212 294.28036 460.9595 295.07788 L 448.19937 295.07788 L 448.19937 295.07788 Q 432.2492 294.28036 421.0841 283.91278 Q 410.71652 272.74765 409.919 256.79752 Q 410.71652 240.84735 421.0841 229.68224 Q 432.2492 219.31464 448.19937 218.51714 L 473.71964 218.51714 L 473.71964 218.51714 Q 489.66977 219.31464 500.8349 229.68224 Q 511.20248 240.84735 512 256.79752 L 512 307.838 L 512 307.838 Q 511.20248 323.78815 500.8349 334.95328 Q 489.66977 345.32086 473.71964 346.11838 L 326.1807 346.11838 L 326.1807 346.11838 Q 326.97818 346.11838 326.97818 346.9159 Q 326.97818 346.9159 327.7757 347.7134 Q 333.35825 354.09344 333.35825 362.06854 Q 333.35825 370.84113 327.7757 376.42368 Q 322.19315 382.80374 314.21808 387.58878 Q 297.4704 396.36136 275.93768 397.15887 Q 271.15265 397.15887 269.55762 392.37384 Q 268.76013 387.58878 272.74765 385.19626 L 272.74765 385.19626 L 272.74765 385.19626 L 272.74765 385.19626 L 272.74765 385.19626 L 272.74765 385.19626 L 272.74765 385.19626 L 272.74765 385.19626 L 272.74765 385.19626 L 272.74765 385.19626 L 272.74765 385.19626 Q 272.74765 385.19626 273.54517 385.19626 Q 273.54517 385.19626 273.54517 384.39874 Q 274.34268 384.39874 274.34268 384.39874 Q 275.1402 383.60126 276.7352 382.80374 Q 279.92523 380.41122 284.71027 377.2212 Q 289.49533 373.23364 291.88785 369.2461 Q 295.07788 364.46106 295.07788 362.06854 Q 295.07788 359.67603 291.88785 354.89096 Q 289.49533 350.9034 284.71027 346.9159 Q 279.92523 343.72586 276.7352 341.33334 Q 275.1402 340.53583 274.34268 339.7383 Q 274.34268 339.7383 273.54517 339.7383 Q 273.54517 338.9408 273.54517 338.9408 Q 272.74765 338.9408 272.74765 338.9408 L 272.74765 338.9408 L 272.74765 338.9408 L 272.74765 338.9408 L 272.74765 338.9408 L 272.74765 338.9408 L 272.74765 338.9408 L 272.74765 338.9408 L 272.74765 338.9408 Q 269.55762 337.3458 269.55762 333.35825 Q 269.55762 329.37073 272.74765 327.7757 L 272.74765 327.7757 L 272.74765 327.7757 L 272.74765 327.7757 L 272.74765 327.7757 L 272.74765 327.7757 L 272.74765 327.7757 L 272.74765 327.7757 L 272.74765 327.7757 L 272.74765 327.7757 L 272.74765 327.7757 L 272.74765 327.7757 L 272.74765 327.7757 Q 272.74765 327.7757 273.54517 327.7757 Q 273.54517 327.7757 273.54517 326.97818 Q 274.34268 326.97818 274.34268 326.97818 Q 275.1402 326.1807 276.7352 325.38318 Q 279.92523 322.99066 284.71027 319.80063 Q 289.49533 315.81308 291.88785 311.82553 Q 295.07788 307.0405 295.07788 304.64798 Q 295.07788 302.25546 291.88785 297.4704 Q 289.49533 293.48288 284.71027 289.49533 Q 279.92523 286.3053 276.7352 283.91278 Q 275.1402 283.11526 274.34268 282.31775 Q 274.34268 282.31775 273.54517 282.31775 Q 273.54517 281.52026 273.54517 281.52026 Q 272.74765 281.52026 272.74765 281.52026 L 272.74765 281.52026 L 272.74765 281.52026 L 272.74765 281.52026 L 272.74765 281.52026 L 272.74765 281.52026 L 272.74765 281.52026 L 272.74765 281.52026 L 272.74765 281.52026 Q 268.76013 279.12772 269.55762 274.34268 Q 271.15265 269.55762 275.93768 269.55762 Q 297.4704 270.35513 314.21808 279.12772 Q 322.19315 283.91278 327.7757 290.29285 Q 332.56076 295.8754 333.35825 304.64798 L 333.35825 304.64798 Z M 42.267914 173.8567 L 26.317757 132.38629 L 42.267914 173.8567 L 26.317757 132.38629 Q 44.660435 98.09346 72.57321 70.978195 L 106.86604 82.94081 L 106.86604 82.94081 Q 63.800625 120.423676 42.267914 173.8567 L 42.267914 173.8567 Z M 45.457943 62.20561 Q 28.71028 80.54829 15.152648 102.08099 L 2.3925233 70.18069 L 2.3925233 70.18069 Q 0 62.20561 4.7850466 56.623055 Q 10.367601 51.040497 18.34268 53.43302 L 45.457943 62.20561 L 45.457943 62.20561 Z" />
</svg>