<svg xmlns="http://www.w3.org/2000/svg" viewBox="0 0 384 512">
    <path d="M 136 24 Q 134 2 112 0 Q 90 2 88 24 L 88 32 L 64 32 Q 49 33 48 48 Q 49 63 64 64 L 112 64 L 160 64 Q 175 63 176 48 Q 175 33 160 32 L 136 32 L 136 24 L 136 24 Z M 296 24 Q 294 2 272 0 Q 250 2 248 24 L 248 32 L 224 32 Q 209 33 208 48 Q 209 63 224 64 L 272 64 L 320 64 Q 335 63 336 48 Q 335 33 320 32 L 296 32 L 296 24 L 296 24 Z M 48 112 Q 49 127 64 128 L 160 128 Q 175 127 176 112 Q 175 97 160 96 L 64 96 Q 49 97 48 112 L 48 112 Z M 208 112 Q 209 127 224 128 L 320 128 Q 335 127 336 112 Q 335 97 320 96 L 224 96 Q 209 97 208 112 L 208 112 Z M 24 160 Q 2 162 0 184 Q 2 206 24 208 L 32 208 L 32 464 L 24 464 Q 2 466 0 488 Q 2 510 24 512 L 56 512 L 328 512 L 360 512 Q 382 510 384 488 Q 382 466 360 464 L 352 464 L 352 208 L 360 208 Q 382 206 384 184 Q 382 162 360 160 L 328 160 L 56 160 L 24 160 L 24 160 Z M 80 464 L 80 208 L 304 208 L 304 464 L 80 464 L 80 464 Z M 233 243 Q 223 237 214 244 L 118 324 Q 110 331 113 342 Q 117 352 128 352 L 168 352 L 145 410 Q 141 422 151 429 Q 161 436 170 428 L 266 348 Q 274 341 271 331 Q 267 321 256 320 L 216 320 L 239 262 Q 243 251 233 243 L 233 243 Z"/>
</svg>
