<svg xmlns="http://www.w3.org/2000/svg" viewBox="0 0 512 512">
  <path d="M 281.90738 37.763294 Q 295.08063 28.981133 308.25385 37.763294 L 497.94855 192.32933 L 497.94855 192.32933 Q 512 206.38078 501.4614 222.18867 Q 487.40994 236.24014 471.60205 225.70154 L 449.64667 207.259 L 449.64667 207.259 L 449.64667 349.53003 L 449.64667 349.53003 Q 448.76843 370.6072 435.59518 384.65866 Q 421.54373 397.8319 400.46655 398.7101 L 244.14409 398.7101 L 244.14409 398.7101 Q 237.99657 376.75473 227.45798 356.55576 L 400.46655 356.55576 L 400.46655 356.55576 Q 406.61407 355.67752 407.49228 349.53003 L 407.49228 173.00858 L 407.49228 173.00858 L 295.08063 81.6741 L 295.08063 81.6741 L 182.66896 173.00858 L 182.66896 173.00858 L 182.66896 295.95883 L 182.66896 295.95883 Q 163.3482 277.5163 140.51457 263.46484 L 140.51457 207.259 L 140.51457 207.259 L 118.55917 225.70154 L 118.55917 225.70154 Q 102.75129 236.24014 88.69983 222.18867 Q 78.16123 206.38078 92.21269 192.32933 L 281.90738 37.763294 L 281.90738 37.763294 Z M 274.00342 201.98972 L 316.1578 201.98972 L 274.00342 201.98972 L 316.1578 201.98972 Q 335.47855 203.74614 337.235 223.0669 L 337.235 265.22128 L 337.235 265.22128 Q 335.47855 284.54202 316.1578 286.29846 L 274.00342 286.29846 L 274.00342 286.29846 Q 254.68268 284.54202 252.92624 265.22128 L 252.92624 223.0669 L 252.92624 223.0669 Q 254.68268 203.74614 274.00342 201.98972 L 274.00342 201.98972 Z M 21.077187 258.19553 Q 78.16123 259.07376 123.828476 286.29846 L 123.828476 286.29846 L 123.828476 286.29846 Q 169.49571 313.52316 196.72041 359.1904 L 196.72041 359.1904 L 196.72041 359.1904 Q 223.94511 404.85764 224.82333 461.94168 Q 223.0669 481.26242 203.74614 483.01886 Q 184.42538 481.26242 182.66896 461.94168 Q 180.91252 393.44083 135.24529 347.7736 Q 89.57804 302.10635 21.077187 300.3499 Q 1.7564323 298.59348 0 279.27274 Q 1.7564323 259.95197 21.077187 258.19553 L 21.077187 258.19553 Z M 28.102917 426.81305 Q 40.39794 426.81305 48.301888 434.71698 L 48.301888 434.71698 L 48.301888 434.71698 Q 56.205833 442.62094 56.205833 454.91595 Q 56.205833 467.21097 48.301888 475.11493 Q 40.39794 483.01886 28.102917 483.01886 Q 15.80789 483.01886 7.903945 475.11493 Q 0 467.21097 0 454.91595 Q 0 442.62094 7.903945 434.71698 Q 15.80789 426.81305 28.102917 426.81305 L 28.102917 426.81305 Z M 0 363.58148 Q 1.7564323 344.2607 21.077187 342.5043 Q 72.013725 343.3825 105.38593 377.63293 Q 139.63637 411.00516 140.51457 461.94168 Q 138.75815 481.26242 119.43739 483.01886 Q 100.11664 481.26242 98.36021 461.94168 Q 97.48199 429.4477 75.52659 407.49228 Q 53.571182 385.53687 21.077187 384.65866 Q 1.7564323 382.90222 0 363.58148 L 0 363.58148 Z" />
</svg>