<svg xmlns="http://www.w3.org/2000/svg" viewBox="0 0 576 512">
    <path d="M 116 0 Q 101 0 90 10 L 90 10 Q 80 21 80 36 Q 82 95 121 135 Q 161 175 220 176 L 264 176 L 264 256 Q 266 278 288 280 Q 310 278 312 256 L 312 152 Q 310 87 267 45 Q 225 2 160 0 L 116 0 L 116 0 Z M 160 48 Q 198 49 225 71 L 225 71 Q 252 93 261 128 L 220 128 Q 185 127 159 105 Q 134 83 129 48 L 160 48 L 160 48 Z M 165 359 Q 175 352 187 352 L 344 352 Q 359 353 360 368 Q 359 383 344 384 L 320 384 L 256 384 Q 234 386 232 408 Q 234 430 256 432 L 320 432 L 344 432 L 392 432 Q 399 432 405 428 L 498 371 Q 503 368 508 368 L 516 368 Q 527 369 528 380 Q 528 387 523 391 L 427 452 Q 409 464 388 464 L 24 464 Q 2 466 0 488 Q 2 510 24 512 L 388 512 Q 423 512 453 493 L 549 431 Q 575 412 576 380 Q 575 355 558 338 Q 541 321 516 320 L 508 320 Q 489 320 473 330 L 408 370 Q 408 369 408 369 Q 408 369 408 368 Q 407 341 389 323 Q 371 305 344 304 L 187 304 Q 161 304 139 319 L 65 368 L 24 368 Q 2 370 0 392 Q 2 414 24 416 L 72 416 Q 79 416 85 412 L 165 359 L 165 359 Z M 356 176 Q 415 175 455 135 L 455 135 Q 495 95 496 36 Q 496 21 486 10 Q 475 0 460 0 L 416 0 Q 352 2 309 44 Q 324 65 333 89 Q 363 50 416 48 L 447 48 Q 442 83 417 105 Q 392 127 356 128 L 342 128 Q 344 140 344 152 L 344 176 L 356 176 L 356 176 Z"/>
</svg>
