<svg xmlns="http://www.w3.org/2000/svg" viewBox="0 0 324 514">
    <path d="M 322 70 L 298 209 L 298 209 L 250 209 L 273 71 Q 263 64 247 59 L 231 209 L 199 209 L 216 52 Q 197 50 178 49 L 178 209 L 162 209 L 146 209 L 146 49 Q 127 50 108 52 L 125 209 L 93 209 L 77 59 Q 61 64 51 71 L 74 209 L 26 209 L 26 209 L 2 70 Q 0 54 11 42 Q 40 16 83 8 Q 125 0 162 1 Q 199 0 241 8 Q 284 16 313 42 Q 324 54 322 70 L 322 70 Z M 298 305 L 298 305 L 322 444 Q 324 460 313 472 Q 284 498 241 506 Q 199 514 162 513 Q 125 514 83 506 Q 40 498 11 472 Q 0 460 2 444 L 26 305 L 26 305 L 69 305 Q 63 321 69 337 L 51 443 Q 61 450 77 455 L 87 361 Q 102 370 118 369 L 108 462 Q 127 464 146 465 L 146 357 Q 149 354 152 350 L 162 337 L 172 350 Q 174 354 178 357 L 178 465 Q 197 464 216 462 L 206 369 Q 222 370 237 361 L 247 455 Q 263 450 273 443 L 255 337 Q 261 321 255 305 L 298 305 L 298 305 Z M 26 241 L 162 241 L 298 241 Q 313 242 314 257 Q 313 272 298 273 L 194 273 L 223 311 Q 230 324 220 334 Q 207 341 197 331 L 162 284 L 127 331 Q 117 342 104 334 Q 94 324 101 311 L 130 273 L 26 273 Q 11 272 10 257 Q 11 242 26 241 L 26 241 Z"/>
</svg>
