<svg xmlns="http://www.w3.org/2000/svg" viewBox="0 0 647 512">
    <path d="M 174 8 Q 169 0 160 0 Q 151 0 146 8 L 118 60 L 63 43 Q 54 40 47 47 Q 40 54 43 63 L 60 118 L 8 146 Q 0 151 0 160 Q 0 169 8 174 L 60 202 L 43 257 Q 40 266 47 273 Q 54 280 63 277 L 118 261 L 125 272 L 149 252 L 163 241 Q 162 241 162 241 Q 161 241 160 241 Q 126 240 103 217 Q 81 195 80 161 Q 81 127 103 104 Q 126 82 160 81 Q 194 82 217 104 Q 239 127 240 161 Q 240 171 238 180 L 292 135 L 261 118 L 277 63 Q 280 54 273 47 Q 266 40 257 43 L 202 60 L 174 8 L 174 8 Z M 208 160 Q 207 133 184 118 Q 160 106 136 118 Q 113 133 112 160 Q 113 187 136 202 Q 160 214 184 202 Q 207 187 208 160 L 208 160 Z M 415 101 Q 400 91 385 101 L 169 277 Q 153 293 166 311 Q 181 327 199 315 L 224 294 L 224 456 Q 225 480 240 496 Q 256 511 280 512 L 520 512 Q 544 511 560 496 Q 575 480 576 456 L 576 294 L 601 315 Q 619 327 635 311 Q 647 293 631 277 L 415 101 L 415 101 Z M 528 255 L 528 456 Q 527 463 520 464 L 280 464 Q 273 463 272 456 L 272 255 L 400 151 L 528 255 L 528 255 Z M 352 312 L 352 360 Q 354 382 376 384 L 424 384 Q 446 382 448 360 L 448 312 Q 446 290 424 288 L 376 288 Q 354 290 352 312 L 352 312 Z"/>
</svg>
