<svg xmlns="http://www.w3.org/2000/svg" viewBox="0 0 512 512">
  <path d="M 416 464 L 160 464 L 416 464 L 160 464 Q 145 463 144 448 L 144 352 L 144 352 L 96 352 L 96 352 L 96 448 L 96 448 Q 97 475 115 493 Q 133 511 160 512 L 416 512 L 416 512 Q 443 511 461 493 Q 479 475 480 448 L 480 155 L 480 155 Q 480 128 461 109 L 371 19 L 371 19 Q 352 0 326 0 L 160 0 L 160 0 Q 133 1 115 19 Q 97 37 96 64 L 96 240 L 96 240 L 144 240 L 144 240 L 144 64 L 144 64 Q 145 49 160 48 L 320 48 L 320 48 L 320 128 L 320 128 Q 320 142 329 151 Q 338 160 352 160 L 432 160 L 432 160 L 432 448 L 432 448 Q 431 463 416 464 L 416 464 Z M 309 228 Q 301 216 287 216 Q 273 217 266 229 L 221 320 L 221 320 L 196 283 L 196 283 Q 189 272 176 272 L 56 272 L 56 272 Q 34 274 32 296 Q 34 318 56 320 L 163 320 L 163 320 L 204 381 L 204 381 Q 212 392 226 392 Q 239 391 246 379 L 289 291 L 289 291 L 299 308 L 299 308 Q 306 320 320 320 L 360 320 L 360 320 Q 382 318 384 296 Q 382 274 360 272 L 334 272 L 334 272 L 309 228 L 309 228 Z" />
</svg>