<svg xmlns="http://www.w3.org/2000/svg" viewBox="0 0 512 512">
  <path d="M 36.012234 59.49847 Q 21.137615 50.103977 9.394495 62.62997 Q 0 77.504585 12.525994 89.2477 L 475.98776 452.50153 L 475.98776 452.50153 Q 490.8624 461.89603 502.6055 449.37003 Q 512 434.49542 499.474 422.7523 L 406.31192 349.94495 L 406.31192 349.94495 L 406.31192 337.41895 L 406.31192 337.41895 Q 405.52905 313.14984 389.87155 297.49234 Q 374.21408 281.83487 349.94495 281.052 L 318.62997 281.052 L 318.62997 281.052 L 236.42813 216.85626 L 236.42813 216.85626 Q 255.21713 200.41591 256 174.58104 L 256 111.95107 L 256 111.95107 Q 255.21713 87.68195 239.55963 72.02447 Q 223.90215 56.366974 199.63303 55.5841 L 162.05504 55.5841 L 162.05504 55.5841 Q 137.78593 56.366974 122.12844 72.02447 Q 106.47095 87.68195 105.68807 111.95107 L 105.68807 114.2997 L 105.68807 114.2997 L 36.012234 59.49847 L 36.012234 59.49847 Z M 143.26605 144.04893 L 143.26605 111.95107 L 143.26605 144.04893 L 143.26605 111.95107 Q 144.8318 94.72783 162.05504 93.16208 L 199.63303 93.16208 L 199.63303 93.16208 Q 216.85626 94.72783 218.42201 111.95107 L 218.42201 174.58104 L 218.42201 174.58104 Q 217.63914 187.88991 205.11314 192.58716 L 143.26605 144.04893 L 143.26605 144.04893 Z M 362.47095 74.373085 Q 362.47095 64.97859 354.6422 59.49847 Q 346.81345 54.01835 337.41895 56.366974 L 299.84097 68.89297 L 299.84097 68.89297 Q 284.18347 75.938835 288.09787 93.16208 Q 295.14374 108.81957 312.36697 104.9052 L 324.89297 100.207954 L 324.89297 100.207954 L 324.89297 193.37003 L 324.89297 193.37003 L 299.84097 193.37003 L 299.84097 193.37003 Q 282.61774 194.93578 281.052 212.15903 Q 282.61774 229.38226 299.84097 230.94801 L 343.68195 230.94801 L 387.52295 230.94801 Q 404.7462 229.38226 406.31192 212.15903 Q 404.7462 194.93578 387.52295 193.37003 L 362.47095 193.37003 L 362.47095 193.37003 L 362.47095 74.373085 L 362.47095 74.373085 Z M 187.10704 299.84097 Q 187.10704 290.44647 179.27829 284.96637 Q 171.44954 279.48624 162.05504 281.83487 L 124.477066 294.36087 L 124.477066 294.36087 Q 108.81957 301.40674 112.73395 318.62997 Q 119.779816 334.28748 137.00305 330.37308 L 149.52905 325.67584 L 149.52905 325.67584 L 149.52905 418.83792 L 149.52905 418.83792 L 124.477066 418.83792 L 124.477066 418.83792 Q 107.25382 420.40366 105.68807 437.62692 Q 107.25382 454.85016 124.477066 456.4159 L 168.31804 456.4159 L 212.15903 456.4159 Q 229.38226 454.85016 230.94801 437.62692 Q 229.38226 420.40366 212.15903 418.83792 L 187.10704 418.83792 L 187.10704 418.83792 L 187.10704 299.84097 L 187.10704 299.84097 Z M 256 337.41895 L 256 400.04892 L 256 337.41895 L 256 400.04892 Q 256.78287 424.31805 272.44037 439.97552 Q 288.09787 455.63303 312.36697 456.4159 L 349.94495 456.4159 L 349.94495 456.4159 Q 376.56268 455.63303 393.00305 436.06116 L 363.2538 413.3578 L 363.2538 413.3578 Q 358.55658 418.83792 349.94495 418.83792 L 312.36697 418.83792 L 312.36697 418.83792 Q 295.14374 417.2722 293.57797 400.04892 L 293.57797 357.7737 L 293.57797 357.7737 L 256.78287 328.80734 L 256.78287 328.80734 Q 256 332.7217 256 337.41895 L 256 337.41895 Z" />
</svg>