<svg xmlns="http://www.w3.org/2000/svg" viewBox="0 0 512 512">
  <path d="M 168 44.444443 Q 186.66667 49.77778 184.88889 69.333336 L 171.55556 136 L 171.55556 136 L 270.22223 136 L 270.22223 136 L 284.44446 60.444443 L 284.44446 60.444443 Q 290.66666 41.77778 310.22223 44.444443 Q 328.8889 49.77778 326.22223 69.333336 L 313.77777 136 L 313.77777 136 L 376.8889 136 L 376.8889 136 Q 396.44446 137.77777 398.22223 157.33333 Q 398.22223 157.33333 398.22223 158.22223 Q 398.22223 158.22223 398.22223 158.22223 Q 371.55554 162.66667 351.1111 178.66667 L 304.8889 178.66667 L 304.8889 178.66667 L 256 424.8889 L 256 424.8889 Q 249.77777 443.55554 230.22223 441.77777 Q 211.55556 435.55554 213.33333 416 L 227.55556 349.33334 L 227.55556 349.33334 L 128.88889 349.33334 L 128.88889 349.33334 L 113.77778 424.8889 L 113.77778 424.8889 Q 107.55556 443.55554 88 441.77777 Q 69.333336 435.55554 72 416 L 85.333336 349.33334 L 85.333336 349.33334 L 21.333334 349.33334 L 21.333334 349.33334 Q 1.7777778 347.55554 0 328 Q 1.7777778 308.44446 21.333334 306.66666 L 93.333336 306.66666 L 93.333336 306.66666 L 119.111115 178.66667 L 119.111115 178.66667 L 49.77778 178.66667 L 49.77778 178.66667 Q 30.222221 176.88889 28.444445 157.33333 Q 30.222221 137.77777 49.77778 136 L 128 136 L 128 136 L 142.22223 60.444443 L 142.22223 60.444443 Q 148.44444 41.77778 168 44.444443 L 168 44.444443 Z M 162.66667 178.66667 L 136.88889 306.66666 L 162.66667 178.66667 L 136.88889 306.66666 L 235.55556 306.66666 L 235.55556 306.66666 L 261.33334 178.66667 L 261.33334 178.66667 L 162.66667 178.66667 L 162.66667 178.66667 Z M 412.44446 228.44444 Q 400 228.44444 392 236.44444 L 392 236.44444 L 392 236.44444 Q 384 244.44444 384 256.8889 L 384 299.55554 L 384 299.55554 L 440.8889 299.55554 L 440.8889 299.55554 L 440.8889 256.8889 L 440.8889 256.8889 Q 440.8889 244.44444 432.8889 236.44444 Q 424.8889 228.44444 412.44446 228.44444 L 412.44446 228.44444 Z M 341.33334 256.8889 Q 342.22223 226.66667 361.77777 206.22223 L 361.77777 206.22223 L 361.77777 206.22223 Q 382.22223 186.66667 412.44446 185.77777 Q 442.66666 186.66667 463.1111 206.22223 Q 482.66666 226.66667 483.55554 256.8889 L 483.55554 299.55554 L 483.55554 299.55554 Q 496 299.55554 504 307.55554 Q 512 315.55554 512 328 L 512 441.77777 L 512 441.77777 Q 512 454.22223 504 462.22223 Q 496 470.22223 483.55554 470.22223 L 341.33334 470.22223 L 341.33334 470.22223 Q 328.8889 470.22223 320.8889 462.22223 Q 312.8889 454.22223 312.8889 441.77777 L 312.8889 328 L 312.8889 328 Q 312.8889 315.55554 320.8889 307.55554 Q 328.8889 299.55554 341.33334 299.55554 L 341.33334 256.8889 L 341.33334 256.8889 Z" />
</svg>