<svg xmlns="http://www.w3.org/2000/svg" viewBox="0 0 448 448">
    <path d="M 64 32 Q 64 46 55 55 L 55 55 Q 46 64 32 64 Q 18 64 9 55 Q 0 46 0 32 Q 0 18 9 9 Q 18 0 32 0 Q 46 0 55 9 Q 64 18 64 32 L 64 32 Z M 64 128 Q 64 142 55 151 L 55 151 Q 46 160 32 160 Q 18 160 9 151 Q 0 142 0 128 Q 0 114 9 105 Q 18 96 32 96 Q 46 96 55 105 Q 64 114 64 128 L 64 128 Z M 32 256 Q 18 256 9 247 L 9 247 Q 0 238 0 224 Q 0 210 9 201 Q 18 192 32 192 Q 46 192 55 201 Q 64 210 64 224 Q 64 238 55 247 Q 46 256 32 256 L 32 256 Z M 64 320 Q 64 334 55 343 L 55 343 Q 46 352 32 352 Q 18 352 9 343 Q 0 334 0 320 Q 0 306 9 297 Q 18 288 32 288 Q 46 288 55 297 Q 64 306 64 320 L 64 320 Z M 32 448 Q 18 448 9 439 L 9 439 Q 0 430 0 416 Q 0 402 9 393 Q 18 384 32 384 Q 46 384 55 393 Q 64 402 64 416 Q 64 430 55 439 Q 46 448 32 448 L 32 448 Z M 160 32 Q 160 46 151 55 L 151 55 Q 142 64 128 64 Q 114 64 105 55 Q 96 46 96 32 Q 96 18 105 9 Q 114 0 128 0 Q 142 0 151 9 Q 160 18 160 32 L 160 32 Z M 128 160 Q 114 160 105 151 L 105 151 Q 96 142 96 128 Q 96 114 105 105 Q 114 96 128 96 Q 142 96 151 105 Q 160 114 160 128 Q 160 142 151 151 Q 142 160 128 160 L 128 160 Z M 160 224 Q 160 238 151 247 L 151 247 Q 142 256 128 256 Q 114 256 105 247 Q 96 238 96 224 Q 96 210 105 201 Q 114 192 128 192 Q 142 192 151 201 Q 160 210 160 224 L 160 224 Z M 128 352 Q 114 352 105 343 L 105 343 Q 96 334 96 320 Q 96 306 105 297 Q 114 288 128 288 Q 142 288 151 297 Q 160 306 160 320 Q 160 334 151 343 Q 142 352 128 352 L 128 352 Z M 160 416 Q 160 430 151 439 L 151 439 Q 142 448 128 448 Q 114 448 105 439 Q 96 430 96 416 Q 96 402 105 393 Q 114 384 128 384 Q 142 384 151 393 Q 160 402 160 416 L 160 416 Z M 224 64 Q 210 64 201 55 L 201 55 Q 192 46 192 32 Q 192 18 201 9 Q 210 0 224 0 Q 238 0 247 9 Q 256 18 256 32 Q 256 46 247 55 Q 238 64 224 64 L 224 64 Z M 256 128 Q 256 142 247 151 L 247 151 Q 238 160 224 160 Q 210 160 201 151 Q 192 142 192 128 Q 192 114 201 105 Q 210 96 224 96 Q 238 96 247 105 Q 256 114 256 128 L 256 128 Z M 224 256 Q 210 256 201 247 L 201 247 Q 192 238 192 224 Q 192 210 201 201 Q 210 192 224 192 Q 238 192 247 201 Q 256 210 256 224 Q 256 238 247 247 Q 238 256 224 256 L 224 256 Z M 256 320 Q 256 334 247 343 L 247 343 Q 238 352 224 352 Q 210 352 201 343 Q 192 334 192 320 Q 192 306 201 297 Q 210 288 224 288 Q 238 288 247 297 Q 256 306 256 320 L 256 320 Z M 224 448 Q 210 448 201 439 L 201 439 Q 192 430 192 416 Q 192 402 201 393 Q 210 384 224 384 Q 238 384 247 393 Q 256 402 256 416 Q 256 430 247 439 Q 238 448 224 448 L 224 448 Z M 352 32 Q 352 46 343 55 L 343 55 Q 334 64 320 64 Q 306 64 297 55 Q 288 46 288 32 Q 288 18 297 9 Q 306 0 320 0 Q 334 0 343 9 Q 352 18 352 32 L 352 32 Z M 320 160 Q 306 160 297 151 L 297 151 Q 288 142 288 128 Q 288 114 297 105 Q 306 96 320 96 Q 334 96 343 105 Q 352 114 352 128 Q 352 142 343 151 Q 334 160 320 160 L 320 160 Z M 352 224 Q 352 238 343 247 L 343 247 Q 334 256 320 256 Q 306 256 297 247 Q 288 238 288 224 Q 288 210 297 201 Q 306 192 320 192 Q 334 192 343 201 Q 352 210 352 224 L 352 224 Z M 320 352 Q 306 352 297 343 L 297 343 Q 288 334 288 320 Q 288 306 297 297 Q 306 288 320 288 Q 334 288 343 297 Q 352 306 352 320 Q 352 334 343 343 Q 334 352 320 352 L 320 352 Z M 352 416 Q 352 430 343 439 L 343 439 Q 334 448 320 448 Q 306 448 297 439 Q 288 430 288 416 Q 288 402 297 393 Q 306 384 320 384 Q 334 384 343 393 Q 352 402 352 416 L 352 416 Z M 416 64 Q 402 64 393 55 L 393 55 Q 384 46 384 32 Q 384 18 393 9 Q 402 0 416 0 Q 430 0 439 9 Q 448 18 448 32 Q 448 46 439 55 Q 430 64 416 64 L 416 64 Z M 448 128 Q 448 142 439 151 L 439 151 Q 430 160 416 160 Q 402 160 393 151 Q 384 142 384 128 Q 384 114 393 105 Q 402 96 416 96 Q 430 96 439 105 Q 448 114 448 128 L 448 128 Z M 416 256 Q 402 256 393 247 L 393 247 Q 384 238 384 224 Q 384 210 393 201 Q 402 192 416 192 Q 430 192 439 201 Q 448 210 448 224 Q 448 238 439 247 Q 430 256 416 256 L 416 256 Z M 448 320 Q 448 334 439 343 L 439 343 Q 430 352 416 352 Q 402 352 393 343 Q 384 334 384 320 Q 384 306 393 297 Q 402 288 416 288 Q 430 288 439 297 Q 448 306 448 320 L 448 320 Z M 416 448 Q 402 448 393 439 L 393 439 Q 384 430 384 416 Q 384 402 393 393 Q 402 384 416 384 Q 430 384 439 393 Q 448 402 448 416 Q 448 430 439 439 Q 430 448 416 448 L 416 448 Z"/>
</svg>
