<svg xmlns="http://www.w3.org/2000/svg" viewBox="0 0 512 512">
  <path d="M 224.88889 62.22222 Q 232.88889 44.444443 216 33.77778 Q 198.22223 25.777779 187.55556 42.666668 L 104.888885 201.77777 L 104.888885 201.77777 L 72.888885 201.77777 L 21.333334 201.77777 Q 1.7777778 203.55556 0 223.11111 Q 1.7777778 242.66667 21.333334 244.44444 L 39.11111 244.44444 L 39.11111 244.44444 L 88.888885 443.55554 L 88.888885 443.55554 Q 94.22222 462.22223 109.333336 473.77777 Q 123.55556 486.22223 144 486.22223 L 368 486.22223 L 368 486.22223 Q 388.44446 486.22223 402.66666 473.77777 Q 417.77777 462.22223 423.1111 443.55554 L 472.8889 244.44444 L 472.8889 244.44444 L 490.66666 244.44444 L 490.66666 244.44444 Q 510.22223 242.66667 512 223.11111 Q 510.22223 203.55556 490.66666 201.77777 L 483.55554 201.77777 L 407.1111 201.77777 L 324.44446 42.666668 L 324.44446 42.666668 Q 313.77777 25.777779 296 33.77778 Q 279.1111 44.444443 287.1111 62.22222 L 359.1111 201.77777 L 359.1111 201.77777 L 152.88889 201.77777 L 152.88889 201.77777 L 224.88889 62.22222 L 224.88889 62.22222 Z M 83.55556 244.44444 L 429.33334 244.44444 L 83.55556 244.44444 L 429.33334 244.44444 L 382.22223 432.8889 L 382.22223 432.8889 Q 378.66666 442.66666 368 443.55554 L 144 443.55554 L 144 443.55554 Q 133.33333 442.66666 130.66667 432.8889 L 83.55556 244.44444 L 83.55556 244.44444 Z M 199.11111 322.66666 Q 179.55556 324.44446 177.77777 344 Q 179.55556 363.55554 199.11111 365.33334 L 312.8889 365.33334 L 312.8889 365.33334 Q 332.44446 363.55554 334.22223 344 Q 332.44446 324.44446 312.8889 322.66666 L 199.11111 322.66666 L 199.11111 322.66666 Z" />
</svg>