<svg xmlns="http://www.w3.org/2000/svg" viewBox="0 0 512 512">
  <path d="M 438.98282 256 Q 438.98282 276.23367 434.5842 294.70792 Q 455.6976 282.39175 479.45016 285.0309 Q 481.20963 270.95532 481.20963 256 Q 480.3299 193.53952 450.41925 142.51546 Q 420.5086 91.49141 369.48453 61.580757 Q 319.3402 31.670103 256 30.790379 Q 192.65979 31.670103 142.51546 61.580757 Q 91.49141 91.49141 61.580757 142.51546 Q 31.670103 192.65979 30.790379 256 Q 30.790379 270.95532 32.549828 285.0309 Q 56.302406 282.39175 77.41581 294.70792 Q 73.01718 276.23367 73.01718 256 Q 74.776634 178.5842 126.68041 126.68041 Q 178.5842 74.776634 256 73.01718 Q 333.4158 74.776634 385.31958 126.68041 Q 437.22336 178.5842 438.98282 256 L 438.98282 256 Z M 256 438.98282 Q 200.57732 438.1031 156.59106 409.9519 Q 165.38832 436.34363 169.78694 464.49484 Q 210.2543 481.20963 256 481.20963 Q 302.62543 481.20963 342.21304 464.49484 Q 346.6117 436.34363 355.40894 409.9519 Q 311.42267 438.1031 256 438.98282 L 256 438.98282 Z M 446.90033 321.09967 Q 410.8316 351.89005 392.3574 393.23712 L 392.3574 393.23712 L 392.3574 393.23712 Q 373.00345 435.46393 368.6048 481.20963 L 465.37457 481.20963 L 465.37457 481.20963 Q 465.37457 448.6598 475.05154 422.26804 Q 485.60825 396.756 503.20276 370.36426 Q 512 357.1684 508.4811 342.21304 Q 505.84192 327.25772 492.64606 318.46048 Q 468.01373 305.26462 446.90033 321.09967 L 446.90033 321.09967 Z M 135.47766 279.75256 Q 154.83162 288.54984 176.82474 278.87286 L 176.82474 278.87286 L 176.82474 278.87286 Q 199.6976 269.19586 214.65292 244.56357 Q 229.60825 219.05154 227.8488 196.1787 Q 225.20963 172.42612 207.61513 161.86942 Q 188.26117 152.19244 166.26804 162.74915 Q 143.39519 172.42612 128.43987 197.05843 Q 113.484535 222.57045 115.24399 245.4433 Q 117.88316 269.19586 135.47766 279.75256 L 135.47766 279.75256 Z M 256 298.2268 Q 238.4055 299.10654 226.08934 310.54297 L 226.08934 310.54297 L 226.08934 310.54297 Q 214.65292 322.8591 213.7732 340.4536 L 213.7732 368.6048 L 213.7732 368.6048 Q 214.65292 386.1993 226.08934 398.51547 Q 238.4055 409.9519 256 410.8316 Q 273.5945 409.9519 285.91064 398.51547 Q 297.34708 386.1993 298.2268 368.6048 L 298.2268 340.4536 L 298.2268 340.4536 Q 297.34708 322.8591 285.91064 310.54297 Q 273.5945 299.10654 256 298.2268 L 256 298.2268 Z M 297.34708 244.56357 Q 312.3024 269.19586 335.17526 278.87286 L 335.17526 278.87286 L 335.17526 278.87286 Q 357.1684 289.42957 376.52234 279.75256 Q 394.11685 269.19586 396.756 245.4433 Q 398.51547 222.57045 383.56015 197.05843 Q 368.6048 172.42612 345.73196 162.74915 Q 323.73883 153.07216 304.3849 161.86942 Q 286.79037 172.42612 284.1512 196.1787 Q 282.39175 219.05154 297.34708 244.56357 L 297.34708 244.56357 Z M 65.099655 321.09967 Q 43.986256 305.26462 20.233677 318.46048 Q 6.158076 327.25772 3.5189004 342.21304 Q 0 357.1684 8.797251 370.36426 Q 26.391752 396.756 36.948452 422.26804 Q 46.62543 448.6598 46.62543 481.20963 L 143.39519 481.20963 L 143.39519 481.20963 Q 138.99657 435.46393 119.64261 393.23712 Q 101.16839 351.89005 65.099655 321.09967 L 65.099655 321.09967 Z" />
</svg>