<svg xmlns="http://www.w3.org/2000/svg" viewBox="0 0 512 384">
    <path d="M 224 30 Q 224 17 233 9 L 233 9 Q 241 0 254 0 Q 264 0 272 6 L 502 173 Q 512 180 512 192 Q 512 204 502 211 L 272 378 Q 264 384 254 384 Q 241 384 233 375 Q 224 367 224 354 L 224 255 L 47 379 Q 39 384 30 384 Q 17 384 9 375 Q 0 367 0 354 L 0 30 Q 0 17 9 9 Q 17 0 30 0 Q 40 0 47 5 L 224 129 L 224 30 L 224 30 Z M 224 188 L 48 65 L 48 320 L 224 196 L 224 188 L 224 188 Z M 447 192 L 272 65 L 272 319 L 447 192 L 447 192 Z"/>
</svg>
