<svg xmlns="http://www.w3.org/2000/svg" viewBox="0 0 512 512">
  <path d="M 464 256 Q 462 344 403 403 L 403 403 L 403 403 Q 344 462 256 464 Q 217 463 191 437 Q 165 411 164 372 Q 165 333 191 307 Q 217 281 256 280 Q 315 278 355 239 Q 394 199 396 140 Q 396 117 389 96 Q 424 125 444 166 Q 464 207 464 256 L 464 256 Z M 256 48 Q 295 49 321 75 L 321 75 L 321 75 Q 347 101 348 140 Q 347 179 321 205 Q 295 231 256 232 Q 197 233 157 273 Q 117 312 116 372 Q 116 395 123 416 Q 88 387 68 346 Q 48 305 48 256 Q 50 168 109 109 Q 168 50 256 48 L 256 48 Z M 256 512 Q 326 511 384 478 L 384 478 L 384 478 Q 442 444 478 384 Q 512 323 512 256 Q 512 189 478 128 Q 442 68 384 34 Q 326 1 256 0 Q 186 1 128 34 Q 70 68 34 128 Q 0 189 0 256 Q 0 323 34 384 Q 70 444 128 478 Q 186 511 256 512 L 256 512 Z M 288 144 Q 288 130 279 121 L 279 121 L 279 121 Q 270 112 256 112 Q 242 112 233 121 Q 224 130 224 144 Q 224 158 233 167 Q 242 176 256 176 Q 270 176 279 167 Q 288 158 288 144 L 288 144 Z M 256 400 Q 270 400 279 391 L 279 391 L 279 391 Q 288 382 288 368 Q 288 354 279 345 Q 270 336 256 336 Q 242 336 233 345 Q 224 354 224 368 Q 224 382 233 391 Q 242 400 256 400 L 256 400 Z" />
</svg>