<svg xmlns="http://www.w3.org/2000/svg" viewBox="0 0 640 512">
    <path d="M 384 48 L 464 48 L 464 208 L 176 208 L 176 48 L 256 48 L 256 128 Q 256 137 265 142 Q 273 146 281 141 L 320 115 L 359 141 Q 367 146 376 142 Q 384 137 384 128 L 384 48 L 384 48 Z M 128 48 L 128 208 Q 129 228 142 242 Q 156 255 176 256 L 464 256 Q 484 255 498 242 Q 511 228 512 208 L 512 48 Q 511 28 498 14 Q 484 1 464 0 L 176 0 Q 156 1 142 14 Q 129 28 128 48 L 128 48 Z M 592 400 Q 591 427 573 445 L 573 445 Q 555 463 528 464 L 112 464 Q 85 463 67 445 Q 49 427 48 400 Q 49 373 67 355 Q 85 337 112 336 L 528 336 Q 555 337 573 355 Q 591 373 592 400 L 592 400 Z M 112 288 Q 64 289 33 321 L 33 321 Q 1 352 0 400 Q 1 448 33 479 Q 64 511 112 512 L 528 512 Q 576 511 607 479 Q 639 448 640 400 Q 639 352 607 321 Q 576 289 528 288 L 112 288 L 112 288 Z M 160 400 Q 160 386 151 377 L 151 377 Q 142 368 128 368 Q 114 368 105 377 Q 96 386 96 400 Q 96 414 105 423 Q 114 432 128 432 Q 142 432 151 423 Q 160 414 160 400 L 160 400 Z M 320 432 Q 334 432 343 423 L 343 423 Q 352 414 352 400 Q 352 386 343 377 Q 334 368 320 368 Q 306 368 297 377 Q 288 386 288 400 Q 288 414 297 423 Q 306 432 320 432 L 320 432 Z M 544 400 Q 544 386 535 377 L 535 377 Q 526 368 512 368 Q 498 368 489 377 Q 480 386 480 400 Q 480 414 489 423 Q 498 432 512 432 Q 526 432 535 423 Q 544 414 544 400 L 544 400 Z"/>
</svg>
