<svg xmlns="http://www.w3.org/2000/svg" viewBox="0 0 512 512">
  <path d="M 47.3526 220.9788 Q 49.325626 146.99037 98.65125 98.65125 L 98.65125 98.65125 L 98.65125 98.65125 Q 146.99037 49.325626 220.9788 47.3526 Q 262.41232 47.3526 297.9268 65.109825 Q 298.9133 65.109825 298.9133 67.082855 Q 299.8998 68.06937 299.8998 70.04239 Q 299.8998 72.01541 297.9268 73.98844 L 73.98844 297.9268 L 73.98844 297.9268 Q 72.01541 299.8998 70.04239 299.8998 Q 68.06937 299.8998 67.082855 298.9133 Q 65.109825 298.9133 65.109825 296.94028 Q 47.3526 262.41232 47.3526 220.9788 L 47.3526 220.9788 Z M 220.9788 0 Q 158.82852 0.98651254 109.50289 30.581888 L 109.50289 30.581888 L 109.50289 30.581888 Q 59.19075 59.19075 30.581888 109.50289 L 30.581888 109.50289 L 30.581888 109.50289 Q 0.98651254 158.82852 0 220.9788 Q 0 273.26398 22.689789 318.64355 Q 39.460503 347.2524 70.04239 347.2524 Q 91.74567 347.2524 107.52986 331.4682 L 331.4682 107.52986 L 331.4682 107.52986 Q 347.2524 91.74567 347.2524 70.04239 Q 347.2524 39.460503 318.64355 22.689789 Q 273.26398 0 220.9788 0 L 220.9788 0 Z M 473.526 94.7052 Q 487.3372 94.7052 496.2158 85.82659 L 496.2158 85.82659 L 496.2158 85.82659 Q 505.09442 76.947975 505.09442 63.136803 Q 505.09442 49.325626 496.2158 40.447014 Q 487.3372 31.568401 473.526 31.568401 Q 459.71484 31.568401 450.8362 40.447014 Q 441.9576 49.325626 441.9576 63.136803 Q 441.9576 76.947975 450.8362 85.82659 Q 459.71484 94.7052 473.526 94.7052 L 473.526 94.7052 Z M 347.2524 505.09442 Q 361.0636 505.09442 369.9422 496.2158 L 369.9422 496.2158 L 369.9422 496.2158 Q 378.8208 487.3372 378.8208 473.526 Q 378.8208 459.71484 369.9422 450.8362 Q 361.0636 441.9576 347.2524 441.9576 Q 333.44122 441.9576 324.56262 450.8362 Q 315.68402 459.71484 315.68402 473.526 Q 315.68402 487.3372 324.56262 496.2158 Q 333.44122 505.09442 347.2524 505.09442 L 347.2524 505.09442 Z M 31.568401 473.526 Q 31.568401 487.3372 40.447014 496.2158 L 40.447014 496.2158 L 40.447014 496.2158 Q 49.325626 505.09442 63.136803 505.09442 Q 76.947975 505.09442 85.82659 496.2158 Q 94.7052 487.3372 94.7052 473.526 Q 94.7052 459.71484 85.82659 450.8362 Q 76.947975 441.9576 63.136803 441.9576 Q 49.325626 441.9576 40.447014 450.8362 Q 31.568401 459.71484 31.568401 473.526 L 31.568401 473.526 Z M 354.158 164.74759 Q 340.34683 181.51831 354.158 198.28902 L 362.0501 206.18112 L 362.0501 206.18112 Q 399.53757 242.68208 451.82272 249.58766 L 478.4586 252.54721 L 478.4586 252.54721 Q 500.16183 252.54721 505.09442 231.83044 Q 505.09442 210.12717 484.37766 205.19461 L 456.7553 202.23506 L 456.7553 202.23506 Q 421.24084 198.28902 395.59152 172.6397 L 387.69943 164.74759 L 387.69943 164.74759 Q 370.9287 150.93642 354.158 164.74759 L 354.158 164.74759 Z M 198.28902 354.158 Q 181.51831 340.34683 164.74759 354.158 Q 150.93642 370.9287 164.74759 387.69943 L 172.6397 395.59152 L 172.6397 395.59152 Q 198.28902 421.24084 202.23506 456.7553 L 205.19461 484.37766 L 205.19461 484.37766 Q 210.12717 505.09442 231.83044 505.09442 Q 252.54721 500.16183 252.54721 478.4586 L 249.58766 451.82272 L 249.58766 451.82272 Q 243.6686 399.53757 206.18112 362.0501 L 198.28902 354.158 L 198.28902 354.158 Z M 497.2023 499.17532 Q 512 484.37766 499.17532 466.62042 L 491.28323 456.7553 L 491.28323 456.7553 Q 483.39114 446.89017 484.37766 436.03854 Q 484.37766 403.4836 463.6609 380.79382 Q 442.94412 359.09055 410.38922 356.131 L 380.79382 354.158 L 380.79382 354.158 Q 368.9557 353.17148 360.07706 344.29288 Q 352.18497 335.41425 352.18497 323.5761 Q 353.17148 293.98074 334.42773 271.29095 L 325.54913 261.4258 L 325.54913 261.4258 Q 309.76492 245.64162 292.00772 258.46628 Q 277.21002 274.2505 290.03467 292.00772 L 297.9268 301.87283 L 297.9268 301.87283 Q 305.81888 310.75143 304.83237 321.6031 Q 304.83237 354.158 325.54913 376.84778 Q 346.2659 398.55106 378.8208 401.5106 L 408.4162 403.4836 L 408.4162 403.4836 Q 420.25433 404.47012 428.14642 413.34875 Q 437.02505 422.22736 437.02505 435.05203 Q 436.03854 463.6609 454.7823 487.3372 L 463.6609 497.2023 L 463.6609 497.2023 Q 478.4586 512 496.2158 499.17532 L 497.2023 499.17532 Z" />
</svg>