<svg xmlns="http://www.w3.org/2000/svg" viewBox="0 0 512 512">
  <path d="M 36.012234 59.49847 Q 21.137615 50.103977 9.394495 62.62997 Q 0 77.504585 12.525994 89.2477 L 475.98776 452.50153 L 475.98776 452.50153 Q 490.8624 461.89603 502.6055 449.37003 Q 512 434.49542 499.474 422.7523 L 430.58105 368.73395 L 430.58105 368.73395 L 431.36392 368.73395 L 431.36392 368.73395 Q 442.32416 368.73395 449.37003 361.68808 Q 456.4159 354.6422 456.4159 343.68195 L 456.4159 256 L 456.4159 256 Q 455.63303 234.86238 441.5413 220.77065 Q 427.44955 206.6789 406.31192 205.89603 L 222.3364 205.89603 L 222.3364 205.89603 L 143.26605 144.04893 L 143.26605 144.04893 L 143.26605 105.68807 L 143.26605 105.68807 Q 144.04893 93.944954 155.79205 93.16208 L 335.8532 93.16208 L 335.8532 93.16208 Q 340.55045 93.16208 344.46484 97.076454 L 364.81958 117.43119 L 364.81958 117.43119 Q 368.73395 121.345566 368.73395 126.82569 L 368.73395 180.84404 L 368.73395 180.84404 L 406.31192 180.84404 L 406.31192 180.84404 L 406.31192 126.82569 L 406.31192 126.82569 Q 406.31192 105.68807 391.43732 90.81345 L 371.08258 70.45872 L 371.08258 70.45872 Q 356.20795 55.5841 335.8532 55.5841 L 155.79205 55.5841 L 155.79205 55.5841 Q 134.65443 56.366974 120.56269 70.45872 Q 106.47095 84.55046 105.68807 105.68807 L 105.68807 114.2997 L 105.68807 114.2997 L 36.012234 59.49847 L 36.012234 59.49847 Z M 270.8746 243.474 L 406.31192 243.474 L 270.8746 243.474 L 406.31192 243.474 Q 418.05505 244.25688 418.83792 256 L 418.83792 331.15598 L 418.83792 331.15598 L 406.31192 331.15598 L 382.04282 331.15598 L 270.8746 243.474 L 270.8746 243.474 Z M 148.74617 243.474 L 100.99083 205.89603 L 148.74617 243.474 L 100.99083 205.89603 Q 81.41896 208.24464 68.89297 222.3364 Q 56.366974 235.64526 55.5841 256 L 55.5841 343.68195 L 55.5841 343.68195 Q 55.5841 354.6422 62.62997 361.68808 Q 69.67584 368.73395 80.636086 368.73395 L 118.214066 368.73395 L 118.214066 368.73395 L 118.214066 431.36392 L 118.214066 431.36392 Q 118.214066 442.32416 125.25994 449.37003 Q 132.30582 456.4159 143.26605 456.4159 L 368.73395 456.4159 L 368.73395 456.4159 Q 388.30582 454.85016 393.00305 436.06116 L 356.20795 407.0948 L 356.20795 407.0948 L 356.20795 418.83792 L 356.20795 418.83792 L 155.79205 418.83792 L 155.79205 418.83792 L 155.79205 343.68195 L 155.79205 343.68195 L 275.57187 343.68195 L 275.57187 343.68195 L 227.81651 306.10397 L 227.81651 306.10397 L 143.26605 306.10397 L 143.26605 306.10397 Q 132.30582 306.10397 125.25994 313.14984 Q 118.214066 320.1957 118.214066 331.15598 L 93.16208 331.15598 L 93.16208 331.15598 L 93.16208 256 L 93.16208 256 Q 93.944954 244.25688 105.68807 243.474 L 148.74617 243.474 L 148.74617 243.474 Z" />
</svg>