<svg xmlns="http://www.w3.org/2000/svg" viewBox="0 0 512 512">
  <path d="M 0 27.428571428571427 Q 2.2857142857142856 2.2857142857142856 27.428571428571427 0 L 484.57142857142856 0 L 484.57142857142856 0 Q 509.7142857142857 2.2857142857142856 512 27.428571428571427 Q 509.7142857142857 52.57142857142857 484.57142857142856 54.857142857142854 L 27.428571428571427 54.857142857142854 L 27.428571428571427 54.857142857142854 Q 2.2857142857142856 52.57142857142857 0 27.428571428571427 L 0 27.428571428571427 Z M 73.14285714285714 146.28571428571428 Q 73.14285714285714 162.28571428571428 62.857142857142854 172.57142857142858 L 62.857142857142854 172.57142857142858 L 62.857142857142854 172.57142857142858 Q 52.57142857142857 182.85714285714286 36.57142857142857 182.85714285714286 Q 20.571428571428573 182.85714285714286 10.285714285714286 172.57142857142858 Q 0 162.28571428571428 0 146.28571428571428 Q 0 130.28571428571428 10.285714285714286 120 Q 20.571428571428573 109.71428571428571 36.57142857142857 109.71428571428571 Q 52.57142857142857 109.71428571428571 62.857142857142854 120 Q 73.14285714285714 130.28571428571428 73.14285714285714 146.28571428571428 L 73.14285714285714 146.28571428571428 Z M 438.85714285714283 146.28571428571428 Q 438.85714285714283 130.28571428571428 449.14285714285717 120 L 449.14285714285717 120 L 449.14285714285717 120 Q 459.42857142857144 109.71428571428571 475.42857142857144 109.71428571428571 Q 491.42857142857144 109.71428571428571 501.7142857142857 120 Q 512 130.28571428571428 512 146.28571428571428 Q 512 162.28571428571428 501.7142857142857 172.57142857142858 Q 491.42857142857144 182.85714285714286 475.42857142857144 182.85714285714286 Q 459.42857142857144 182.85714285714286 449.14285714285717 172.57142857142858 Q 438.85714285714283 162.28571428571428 438.85714285714283 146.28571428571428 L 438.85714285714283 146.28571428571428 Z M 292.57142857142856 146.28571428571428 Q 292.57142857142856 162.28571428571428 282.2857142857143 172.57142857142858 L 282.2857142857143 172.57142857142858 L 282.2857142857143 172.57142857142858 Q 272 182.85714285714286 256 182.85714285714286 Q 240 182.85714285714286 229.71428571428572 172.57142857142858 Q 219.42857142857142 162.28571428571428 219.42857142857142 146.28571428571428 Q 219.42857142857142 130.28571428571428 229.71428571428572 120 Q 240 109.71428571428571 256 109.71428571428571 Q 272 109.71428571428571 282.2857142857143 120 Q 292.57142857142856 130.28571428571428 292.57142857142856 146.28571428571428 L 292.57142857142856 146.28571428571428 Z M 0 365.7142857142857 Q 0 349.7142857142857 10.285714285714286 339.42857142857144 L 10.285714285714286 339.42857142857144 L 10.285714285714286 339.42857142857144 Q 20.571428571428573 329.14285714285717 36.57142857142857 329.14285714285717 Q 52.57142857142857 329.14285714285717 62.857142857142854 339.42857142857144 Q 73.14285714285714 349.7142857142857 73.14285714285714 365.7142857142857 Q 73.14285714285714 381.7142857142857 62.857142857142854 392 Q 52.57142857142857 402.2857142857143 36.57142857142857 402.2857142857143 Q 20.571428571428573 402.2857142857143 10.285714285714286 392 Q 0 381.7142857142857 0 365.7142857142857 L 0 365.7142857142857 Z M 512 365.7142857142857 Q 512 381.7142857142857 501.7142857142857 392 L 501.7142857142857 392 L 501.7142857142857 392 Q 491.42857142857144 402.2857142857143 475.42857142857144 402.2857142857143 Q 459.42857142857144 402.2857142857143 449.14285714285717 392 Q 438.85714285714283 381.7142857142857 438.85714285714283 365.7142857142857 Q 438.85714285714283 349.7142857142857 449.14285714285717 339.42857142857144 Q 459.42857142857144 329.14285714285717 475.42857142857144 329.14285714285717 Q 491.42857142857144 329.14285714285717 501.7142857142857 339.42857142857144 Q 512 349.7142857142857 512 365.7142857142857 L 512 365.7142857142857 Z M 219.42857142857142 365.7142857142857 Q 219.42857142857142 349.7142857142857 229.71428571428572 339.42857142857144 L 229.71428571428572 339.42857142857144 L 229.71428571428572 339.42857142857144 Q 240 329.14285714285717 256 329.14285714285717 Q 272 329.14285714285717 282.2857142857143 339.42857142857144 Q 292.57142857142856 349.7142857142857 292.57142857142856 365.7142857142857 Q 292.57142857142856 381.7142857142857 282.2857142857143 392 Q 272 402.2857142857143 256 402.2857142857143 Q 240 402.2857142857143 229.71428571428572 392 Q 219.42857142857142 381.7142857142857 219.42857142857142 365.7142857142857 L 219.42857142857142 365.7142857142857 Z M 73.14285714285714 256 Q 73.14285714285714 272 62.857142857142854 282.2857142857143 L 62.857142857142854 282.2857142857143 L 62.857142857142854 282.2857142857143 Q 52.57142857142857 292.57142857142856 36.57142857142857 292.57142857142856 Q 20.571428571428573 292.57142857142856 10.285714285714286 282.2857142857143 Q 0 272 0 256 Q 0 240 10.285714285714286 229.71428571428572 Q 20.571428571428573 219.42857142857142 36.57142857142857 219.42857142857142 Q 52.57142857142857 219.42857142857142 62.857142857142854 229.71428571428572 Q 73.14285714285714 240 73.14285714285714 256 L 73.14285714285714 256 Z M 438.85714285714283 256 Q 438.85714285714283 240 449.14285714285717 229.71428571428572 L 449.14285714285717 229.71428571428572 L 449.14285714285717 229.71428571428572 Q 459.42857142857144 219.42857142857142 475.42857142857144 219.42857142857142 Q 491.42857142857144 219.42857142857142 501.7142857142857 229.71428571428572 Q 512 240 512 256 Q 512 272 501.7142857142857 282.2857142857143 Q 491.42857142857144 292.57142857142856 475.42857142857144 292.57142857142856 Q 459.42857142857144 292.57142857142856 449.14285714285717 282.2857142857143 Q 438.85714285714283 272 438.85714285714283 256 L 438.85714285714283 256 Z M 292.57142857142856 256 Q 292.57142857142856 272 282.2857142857143 282.2857142857143 L 282.2857142857143 282.2857142857143 L 282.2857142857143 282.2857142857143 Q 272 292.57142857142856 256 292.57142857142856 Q 240 292.57142857142856 229.71428571428572 282.2857142857143 Q 219.42857142857142 272 219.42857142857142 256 Q 219.42857142857142 240 229.71428571428572 229.71428571428572 Q 240 219.42857142857142 256 219.42857142857142 Q 272 219.42857142857142 282.2857142857143 229.71428571428572 Q 292.57142857142856 240 292.57142857142856 256 L 292.57142857142856 256 Z M 0 475.42857142857144 Q 0 459.42857142857144 10.285714285714286 449.14285714285717 L 10.285714285714286 449.14285714285717 L 10.285714285714286 449.14285714285717 Q 20.571428571428573 438.85714285714283 36.57142857142857 438.85714285714283 Q 52.57142857142857 438.85714285714283 62.857142857142854 449.14285714285717 Q 73.14285714285714 459.42857142857144 73.14285714285714 475.42857142857144 Q 73.14285714285714 491.42857142857144 62.857142857142854 501.7142857142857 Q 52.57142857142857 512 36.57142857142857 512 Q 20.571428571428573 512 10.285714285714286 501.7142857142857 Q 0 491.42857142857144 0 475.42857142857144 L 0 475.42857142857144 Z M 512 475.42857142857144 Q 512 491.42857142857144 501.7142857142857 501.7142857142857 L 501.7142857142857 501.7142857142857 L 501.7142857142857 501.7142857142857 Q 491.42857142857144 512 475.42857142857144 512 Q 459.42857142857144 512 449.14285714285717 501.7142857142857 Q 438.85714285714283 491.42857142857144 438.85714285714283 475.42857142857144 Q 438.85714285714283 459.42857142857144 449.14285714285717 449.14285714285717 Q 459.42857142857144 438.85714285714283 475.42857142857144 438.85714285714283 Q 491.42857142857144 438.85714285714283 501.7142857142857 449.14285714285717 Q 512 459.42857142857144 512 475.42857142857144 L 512 475.42857142857144 Z M 219.42857142857142 475.42857142857144 Q 219.42857142857142 459.42857142857144 229.71428571428572 449.14285714285717 L 229.71428571428572 449.14285714285717 L 229.71428571428572 449.14285714285717 Q 240 438.85714285714283 256 438.85714285714283 Q 272 438.85714285714283 282.2857142857143 449.14285714285717 Q 292.57142857142856 459.42857142857144 292.57142857142856 475.42857142857144 Q 292.57142857142856 491.42857142857144 282.2857142857143 501.7142857142857 Q 272 512 256 512 Q 240 512 229.71428571428572 501.7142857142857 Q 219.42857142857142 491.42857142857144 219.42857142857142 475.42857142857144 L 219.42857142857142 475.42857142857144 Z M 182.85714285714286 256 Q 182.85714285714286 272 172.57142857142858 282.2857142857143 L 172.57142857142858 282.2857142857143 L 172.57142857142858 282.2857142857143 Q 162.28571428571428 292.57142857142856 146.28571428571428 292.57142857142856 Q 130.28571428571428 292.57142857142856 120 282.2857142857143 Q 109.71428571428571 272 109.71428571428571 256 Q 109.71428571428571 240 120 229.71428571428572 Q 130.28571428571428 219.42857142857142 146.28571428571428 219.42857142857142 Q 162.28571428571428 219.42857142857142 172.57142857142858 229.71428571428572 Q 182.85714285714286 240 182.85714285714286 256 L 182.85714285714286 256 Z M 109.71428571428571 475.42857142857144 Q 109.71428571428571 459.42857142857144 120 449.14285714285717 L 120 449.14285714285717 L 120 449.14285714285717 Q 130.28571428571428 438.85714285714283 146.28571428571428 438.85714285714283 Q 162.28571428571428 438.85714285714283 172.57142857142858 449.14285714285717 Q 182.85714285714286 459.42857142857144 182.85714285714286 475.42857142857144 Q 182.85714285714286 491.42857142857144 172.57142857142858 501.7142857142857 Q 162.28571428571428 512 146.28571428571428 512 Q 130.28571428571428 512 120 501.7142857142857 Q 109.71428571428571 491.42857142857144 109.71428571428571 475.42857142857144 L 109.71428571428571 475.42857142857144 Z M 402.2857142857143 475.42857142857144 Q 402.2857142857143 491.42857142857144 392 501.7142857142857 L 392 501.7142857142857 L 392 501.7142857142857 Q 381.7142857142857 512 365.7142857142857 512 Q 349.7142857142857 512 339.42857142857144 501.7142857142857 Q 329.14285714285717 491.42857142857144 329.14285714285717 475.42857142857144 Q 329.14285714285717 459.42857142857144 339.42857142857144 449.14285714285717 Q 349.7142857142857 438.85714285714283 365.7142857142857 438.85714285714283 Q 381.7142857142857 438.85714285714283 392 449.14285714285717 Q 402.2857142857143 459.42857142857144 402.2857142857143 475.42857142857144 L 402.2857142857143 475.42857142857144 Z M 329.14285714285717 256 Q 329.14285714285717 240 339.42857142857144 229.71428571428572 L 339.42857142857144 229.71428571428572 L 339.42857142857144 229.71428571428572 Q 349.7142857142857 219.42857142857142 365.7142857142857 219.42857142857142 Q 381.7142857142857 219.42857142857142 392 229.71428571428572 Q 402.2857142857143 240 402.2857142857143 256 Q 402.2857142857143 272 392 282.2857142857143 Q 381.7142857142857 292.57142857142856 365.7142857142857 292.57142857142856 Q 349.7142857142857 292.57142857142856 339.42857142857144 282.2857142857143 Q 329.14285714285717 272 329.14285714285717 256 L 329.14285714285717 256 Z" />
</svg>