<svg xmlns="http://www.w3.org/2000/svg" viewBox="0 0 512 512">
  <path d="M 217.6 101.6 L 176.8 142.4 L 217.6 101.6 L 176.8 142.4 Q 158.4 147.2 144 160 L 122.4 179.2 L 122.4 179.2 Q 109.6 190.4 92.8 190.4 L 76.8 190.4 L 76.8 190.4 L 76.8 292.8 L 76.8 292.8 Q 102.4 293.6 120 311.2 L 148.8 340 L 148.8 340 L 154.4 345.6 L 154.4 345.6 L 154.4 345.6 L 154.4 345.6 L 176 367.2 L 176 367.2 Q 184.8 374.4 194.4 367.2 Q 196 364.8 196.8 362.4 Q 200.8 352.8 211.2 350.4 Q 220.8 348 228.8 355.2 L 237.6 364 L 237.6 364 Q 244.8 371.2 253.6 371.2 Q 263.2 371.2 270.4 364 Q 277.6 357.6 277.6 348.8 Q 278.4 337.6 288.8 332 Q 298.4 328 308 333.6 Q 320.8 341.6 332.8 332 Q 344 318.4 332.8 304.8 L 272 244 L 272 244 L 243.2 270.4 L 243.2 270.4 Q 226.4 285.6 204.8 285.6 Q 183.2 285.6 165.6 271.2 Q 147.2 252.8 146.4 228.8 Q 146.4 204.8 164.8 185.6 L 220.8 132.8 L 220.8 132.8 Q 255.2 101.6 301.6 100.8 Q 346.4 101.6 380 130.4 L 404 152 L 404 152 L 435.2 152 L 499.2 152 Q 511.2 152.8 512 164.8 L 512 331.2 L 512 331.2 Q 512 342.4 504.8 349.6 Q 497.6 356.8 486.4 356.8 L 460.8 356.8 L 460.8 356.8 Q 445.6 356 438.4 344 L 370.4 344 L 370.4 344 Q 366.4 352 360 359.2 Q 337.6 379.2 309.6 375.2 Q 304.8 384 297.6 391.2 Q 280.8 407.2 258.4 409.6 Q 236.8 411.2 217.6 397.6 Q 201.6 410.4 182.4 409.6 Q 163.2 408.8 148.8 394.4 L 127.2 372.8 L 127.2 372.8 L 121.6 367.2 L 121.6 367.2 L 92.8 338.4 L 92.8 338.4 Q 86.4 332 76.8 331.2 Q 76.8 342.4 69.6 349.6 Q 62.4 356.8 51.2 356.8 L 25.6 356.8 L 25.6 356.8 Q 14.4 356.8 7.2 349.6 Q 0 342.4 0 331.2 L 0 164.8 L 0 164.8 Q 0.8 152.8 12.8 152 L 44.8 152 L 92.8 152 Q 95.2 152 96.8 150.4 L 118.4 131.2 L 118.4 131.2 Q 152.8 101.6 199.2 100.8 L 207.2 100.8 L 207.2 100.8 Q 212.8 100.8 217.6 101.6 L 217.6 101.6 Z M 435.2 305.6 L 435.2 190.4 L 435.2 305.6 L 435.2 190.4 L 396.8 190.4 L 396.8 190.4 Q 389.6 190.4 384 185.6 L 354.4 159.2 L 354.4 159.2 Q 332 139.2 301.6 139.2 Q 270.4 140 247.2 160.8 L 191.2 213.6 L 191.2 213.6 Q 184.8 220 184.8 228 Q 184.8 236.8 191.2 242.4 Q 204.8 252 217.6 242.4 L 275.2 188.8 L 275.2 188.8 Q 288.8 178.4 301.6 190.4 Q 312.8 204 300.8 217.6 L 300 217.6 L 300 217.6 L 360 277.6 L 360 277.6 Q 372 289.6 375.2 305.6 L 435.2 305.6 L 435.2 305.6 Z M 51.2 318.4 Q 50.4 306.4 38.4 305.6 Q 26.4 306.4 25.6 318.4 Q 26.4 330.4 38.4 331.2 Q 50.4 330.4 51.2 318.4 L 51.2 318.4 Z M 473.6 331.2 Q 485.6 330.4 486.4 318.4 Q 485.6 306.4 473.6 305.6 Q 461.6 306.4 460.8 318.4 Q 461.6 330.4 473.6 331.2 L 473.6 331.2 Z" />
</svg>