<svg xmlns="http://www.w3.org/2000/svg" viewBox="0 0 512 512">
  <path d="M 0 48.19343696027634 Q 1.768566493955095 28.739205526770295 21.22279792746114 26.9706390328152 L 61.89982728842833 26.9706390328152 L 61.89982728842833 26.9706390328152 Q 79.58549222797927 26.9706390328152 92.84974093264249 38.46632124352332 Q 106.11398963730569 49.07772020725388 110.53540587219344 67.64766839378238 L 143.2538860103627 239.19861830742659 L 143.2538860103627 239.19861830742659 L 405.8860103626943 239.19861830742659 L 405.8860103626943 239.19861830742659 Q 421.8031088082902 238.31433506044905 426.2245250431779 223.28151986183073 L 467.7858376511226 71.18480138169258 L 467.7858376511226 71.18480138169258 Q 473.97582037996546 52.61485319516407 493.4300518134715 56.151986183074264 Q 512 63.226252158894646 508.4628670120898 81.79620034542314 L 467.7858376511226 234.77720207253887 L 467.7858376511226 234.77720207253887 Q 461.5958549222798 256 444.7944732297064 268.37996545768567 Q 427.993091537133 281.6442141623489 405.8860103626943 281.6442141623489 L 151.21243523316062 281.6442141623489 L 151.21243523316062 281.6442141623489 L 155.63385146804836 307.28842832469775 L 155.63385146804836 307.28842832469775 Q 160.0552677029361 323.2055267702936 176.8566493955095 324.08981001727113 L 431.5302245250432 324.08981001727113 L 431.5302245250432 324.08981001727113 Q 450.98445595854923 325.85837651122625 452.7530224525043 345.3126079447323 Q 450.98445595854923 364.76683937823833 431.5302245250432 366.53540587219345 L 176.8566493955095 366.53540587219345 L 176.8566493955095 366.53540587219345 Q 152.9810017271157 366.53540587219345 136.17962003454232 351.5025906735751 Q 118.49395509499136 337.3540587219344 114.07253886010362 315.2469775474957 L 68.08981001727116 75.60621761658031 L 68.08981001727116 75.60621761658031 Q 67.20552677029362 69.41623488773747 61.89982728842833 69.41623488773747 L 21.22279792746114 69.41623488773747 L 21.22279792746114 69.41623488773747 Q 1.768566493955095 67.64766839378238 0 48.19343696027634 L 0 48.19343696027634 Z M 113.18825561312607 437.27806563039724 Q 114.07253886010362 413.4024179620034 134.41105354058723 400.1381692573402 Q 155.63385146804836 389.5267702936097 176.8566493955095 400.1381692573402 Q 197.1951640759931 413.4024179620034 198.07944732297065 437.27806563039724 Q 197.1951640759931 461.15371329879105 176.8566493955095 474.41796200345425 Q 155.63385146804836 485.0293609671848 134.41105354058723 474.41796200345425 Q 114.07253886010362 461.15371329879105 113.18825561312607 437.27806563039724 L 113.18825561312607 437.27806563039724 Z M 410.30742659758204 394.832469775475 Q 434.18307426597585 395.7167530224525 447.44732297063905 416.0552677029361 Q 458.0587219343696 437.27806563039724 447.44732297063905 458.5008635578584 Q 434.18307426597585 478.83937823834196 410.30742659758204 479.7236614853195 Q 386.4317789291883 478.83937823834196 373.167530224525 458.5008635578584 Q 362.5561312607945 437.27806563039724 373.167530224525 416.0552677029361 Q 386.4317789291883 395.7167530224525 410.30742659758204 394.832469775475 L 410.30742659758204 394.832469775475 Z M 304.19343696027636 69.41623488773747 L 304.19343696027636 104.78756476683938 L 304.19343696027636 69.41623488773747 L 304.19343696027636 104.78756476683938 L 339.56476683937825 104.78756476683938 L 339.56476683937825 104.78756476683938 Q 359.0189982728843 106.55613126079447 360.78756476683935 126.01036269430051 Q 359.0189982728843 145.46459412780655 339.56476683937825 147.23316062176167 L 304.19343696027636 147.23316062176167 L 304.19343696027636 147.23316062176167 L 304.19343696027636 182.60449050086356 L 304.19343696027636 182.60449050086356 Q 302.42487046632124 202.0587219343696 282.9706390328152 203.8272884283247 Q 263.51640759930916 202.0587219343696 261.74784110535404 182.60449050086356 L 261.74784110535404 147.23316062176167 L 261.74784110535404 147.23316062176167 L 226.37651122625215 147.23316062176167 L 226.37651122625215 147.23316062176167 Q 206.9222797927461 145.46459412780655 205.15371329879102 126.01036269430051 Q 206.9222797927461 106.55613126079447 226.37651122625215 104.78756476683938 L 261.74784110535404 104.78756476683938 L 261.74784110535404 104.78756476683938 L 261.74784110535404 69.41623488773747 L 261.74784110535404 69.41623488773747 Q 263.51640759930916 49.962003454231436 282.9706390328152 48.19343696027634 Q 302.42487046632124 49.962003454231436 304.19343696027636 69.41623488773747 L 304.19343696027636 69.41623488773747 Z" />
</svg>