<svg xmlns="http://www.w3.org/2000/svg" viewBox="0 0 448 448">
    <path d="M 64 400 Q 49 399 48 384 L 48 64 Q 49 49 64 48 L 384 48 Q 399 49 400 64 L 400 384 Q 399 399 384 400 L 64 400 L 64 400 Z M 0 384 Q 1 411 19 429 L 19 429 Q 37 447 64 448 L 384 448 Q 411 447 429 429 Q 447 411 448 384 L 448 64 Q 447 37 429 19 Q 411 1 384 0 L 64 0 Q 37 1 19 19 Q 1 37 0 64 L 0 384 L 0 384 Z M 128 256 Q 150 254 152 232 L 152 120 Q 150 98 128 96 Q 106 98 104 120 L 104 232 Q 106 254 128 256 L 128 256 Z M 296 296 Q 298 318 320 320 Q 342 318 344 296 L 344 120 Q 342 98 320 96 Q 298 98 296 120 L 296 296 L 296 296 Z M 224 224 Q 246 222 248 200 L 248 120 Q 246 98 224 96 Q 202 98 200 120 L 200 200 Q 202 222 224 224 L 224 224 Z"/>
</svg>
