<svg xmlns="http://www.w3.org/2000/svg" viewBox="0 0 512 512">
  <path d="M 243.2 87.2 L 243.2 101.6 L 243.2 87.2 L 243.2 101.6 Q 243.2 130.4 227.2 152 Q 212 174.4 185.6 184.8 Q 147.2 198.4 125.6 230.4 Q 103.2 262.4 102.4 303.2 L 102.4 368.8 L 102.4 368.8 L 38.4 368.8 L 38.4 368.8 L 38.4 87.2 L 38.4 87.2 L 243.2 87.2 L 243.2 87.2 Z M 281.6 87.2 L 473.6 87.2 L 281.6 87.2 L 473.6 87.2 L 473.6 368.8 L 473.6 368.8 L 408 368.8 L 408 368.8 L 399.2 356.8 L 399.2 356.8 L 339.2 279.2 L 339.2 279.2 Q 329.6 266.4 313.6 266.4 L 266.4 266.4 L 266.4 266.4 L 227.2 205.6 L 227.2 205.6 Q 252.8 188 267.2 160.8 Q 281.6 133.6 281.6 101.6 L 281.6 87.2 L 281.6 87.2 Z M 360 368.8 L 292.8 368.8 L 360 368.8 L 292.8 368.8 L 318.4 407.2 L 318.4 407.2 L 473.6 407.2 L 473.6 407.2 Q 489.6 406.4 500.8 396 Q 511.2 384.8 512 368.8 L 512 87.2 L 512 87.2 Q 511.2 71.2 500.8 60 Q 489.6 49.6 473.6 48.8 L 38.4 48.8 L 38.4 48.8 Q 22.4 49.6 11.2 60 Q 0.8 71.2 0 87.2 L 0 368.8 L 0 368.8 Q 0.8 384.8 11.2 396 Q 22.4 406.4 38.4 407.2 L 243.2 407.2 L 243.2 407.2 L 272 450.4 L 272 450.4 Q 283.2 463.2 298.4 455.2 Q 312 444 304 428.8 L 237.6 331.2 L 237.6 331.2 L 275.2 304.8 L 275.2 304.8 L 310.4 304.8 L 310.4 304.8 L 360 368.8 L 360 368.8 Z M 216.8 368.8 L 140.8 368.8 L 216.8 368.8 L 140.8 368.8 L 140.8 303.2 L 140.8 303.2 Q 140.8 284 148 267.2 L 216.8 368.8 L 216.8 368.8 Z M 216 299.2 L 172.8 235.2 L 216 299.2 L 172.8 235.2 Q 181.6 228 192 223.2 L 233.6 286.4 L 233.6 286.4 L 216 299.2 L 216 299.2 Z M 153.6 151.2 Q 152.8 129.6 134.4 117.6 Q 115.2 108 96 117.6 Q 77.6 129.6 76.8 151.2 Q 77.6 172.8 96 184.8 Q 115.2 194.4 134.4 184.8 Q 152.8 172.8 153.6 151.2 L 153.6 151.2 Z" />
</svg>