<svg xmlns="http://www.w3.org/2000/svg" viewBox="0 0 512 512">
  <path d="M 88 80 Q 71 80 60 92 L 60 92 L 60 92 Q 48 103 48 120 L 48 200 L 48 200 Q 46 222 24 224 Q 2 222 0 200 L 0 120 L 0 120 Q 1 83 26 58 Q 51 33 88 32 L 122 32 L 454 32 Q 478 34 480 58 Q 480 64 478 69 L 429 178 L 429 178 Q 467 205 489 246 Q 512 286 512 336 L 512 344 L 512 344 Q 511 386 492 417 Q 474 449 456 465 Q 440 480 418 480 L 158 480 L 158 480 Q 136 480 120 465 Q 102 449 84 417 Q 65 386 64 344 L 64 336 L 64 336 Q 64 286 87 246 Q 109 205 147 178 L 103 80 L 103 80 L 88 80 L 88 80 Z M 385 160 L 420 80 L 385 160 L 420 80 L 192 80 L 156 80 L 191 160 L 191 160 L 385 160 L 385 160 Z M 386 208 L 190 208 L 386 208 L 190 208 Q 158 225 138 254 Q 117 283 113 320 L 463 320 L 463 320 Q 459 283 438 254 Q 418 225 386 208 L 386 208 Z M 418 432 L 158 432 L 418 432 L 158 432 Q 158 432 158 432 Q 158 432 158 432 L 418 432 L 418 432 Q 418 432 418 432 Q 418 432 418 432 L 418 432 Z" />
</svg>