<svg xmlns="http://www.w3.org/2000/svg" viewBox="0 0 512 512">
  <path d="M 186.18182 97.17384 Q 172.29984 85.74163 158.41786 97.17384 L 44.91228 210.67943 L 44.91228 210.67943 Q 33.480064 224.5614 44.91228 238.44337 L 158.41786 351.94897 L 158.41786 351.94897 Q 172.29984 363.3812 186.18182 351.94897 L 299.6874 238.44337 L 299.6874 238.44337 Q 311.11963 224.5614 299.6874 210.67943 L 186.18182 97.17384 L 186.18182 97.17384 Z M 130.6539 69.40989 Q 148.61882 52.261562 172.29984 52.261562 L 172.29984 52.261562 L 172.29984 52.261562 Q 195.98087 52.261562 213.94577 69.40989 L 327.45135 182.91547 L 327.45135 182.91547 Q 344.59967 200.88039 344.59967 224.5614 Q 344.59967 248.24243 327.45135 266.20734 L 213.94577 379.71292 L 213.94577 379.71292 Q 195.98087 396.86124 172.29984 396.86124 Q 148.61882 396.86124 130.6539 379.71292 L 17.148325 266.20734 L 17.148325 266.20734 Q 0 248.24243 0 224.5614 Q 0 200.88039 17.148325 182.91547 L 130.6539 69.40989 L 130.6539 69.40989 Z M 250.69218 379.71292 L 345.41626 284.98883 L 250.69218 379.71292 L 345.41626 284.98883 Q 363.3812 267.02393 368.2807 243.3429 Q 373.18024 220.47847 366.64752 198.43062 L 459.73843 198.43062 L 459.73843 198.43062 Q 481.7863 199.24721 496.48486 213.94577 Q 511.1834 228.64433 512 250.69218 L 512 407.47687 L 512 407.47687 Q 511.1834 429.52472 496.48486 444.2233 Q 481.7863 458.92184 459.73843 459.73843 L 302.95374 459.73843 L 302.95374 459.73843 Q 280.9059 458.92184 266.20734 444.2233 Q 251.50877 429.52472 250.69218 407.47687 L 250.69218 379.71292 L 250.69218 379.71292 Z M 400.94418 329.08453 Q 399.311 311.11963 381.3461 309.48645 Q 363.3812 311.11963 361.74802 329.08453 Q 363.3812 347.04944 381.3461 348.68262 Q 399.311 347.04944 400.94418 329.08453 L 400.94418 329.08453 Z M 87.3748 204.96332 Q 105.339714 206.5965 106.972885 224.5614 Q 105.339714 242.52632 87.3748 244.15948 Q 69.40989 242.52632 67.77672 224.5614 Q 69.40989 206.5965 87.3748 204.96332 L 87.3748 204.96332 Z M 172.29984 159.23445 Q 154.33493 157.60127 152.70175 139.63637 Q 154.33493 121.67145 172.29984 120.03828 Q 190.26476 121.67145 191.89793 139.63637 Q 190.26476 157.60127 172.29984 159.23445 L 172.29984 159.23445 Z M 172.29984 329.08453 Q 154.33493 327.45135 152.70175 309.48645 Q 154.33493 291.52155 172.29984 289.88837 Q 190.26476 291.52155 191.89793 309.48645 Q 190.26476 327.45135 172.29984 329.08453 L 172.29984 329.08453 Z M 257.22488 204.96332 Q 275.1898 206.5965 276.82297 224.5614 Q 275.1898 242.52632 257.22488 244.15948 Q 239.25996 242.52632 237.6268 224.5614 Q 239.25996 206.5965 257.22488 204.96332 L 257.22488 204.96332 Z M 172.29984 204.96332 Q 190.26476 206.5965 191.89793 224.5614 Q 190.26476 242.52632 172.29984 244.15948 Q 154.33493 242.52632 152.70175 224.5614 Q 154.33493 206.5965 172.29984 204.96332 L 172.29984 204.96332 Z" />
</svg>