<svg xmlns="http://www.w3.org/2000/svg" viewBox="0 0 512 448">
    <path d="M 64 48 Q 49 49 48 64 L 48 384 Q 49 399 64 400 L 448 400 Q 463 399 464 384 L 464 64 Q 463 49 448 48 L 64 48 L 64 48 Z M 0 64 Q 1 37 19 19 L 19 19 Q 37 1 64 0 L 448 0 Q 475 1 493 19 Q 511 37 512 64 L 512 384 Q 511 411 493 429 Q 475 447 448 448 L 64 448 Q 37 447 19 429 Q 1 411 0 384 L 0 64 L 0 64 Z M 192 160 Q 193 124 224 105 Q 256 87 288 105 Q 319 124 320 160 Q 319 196 288 215 Q 256 233 224 215 Q 193 196 192 160 L 192 160 Z M 144 325 Q 145 295 164 276 L 164 276 Q 183 257 213 256 L 300 256 Q 329 257 348 276 Q 367 295 368 325 Q 368 336 360 344 Q 352 352 341 352 L 171 352 Q 160 352 152 344 Q 144 336 144 325 L 144 325 Z"/>
</svg>
