<svg xmlns="http://www.w3.org/2000/svg" viewBox="0 0 512 512">
  <path d="M 464 256 Q 464 199 436 152 L 436 152 L 436 152 Q 409 105 360 76 Q 311 48 256 48 Q 201 48 152 76 Q 103 105 76 152 Q 48 199 48 256 Q 48 313 76 360 Q 103 407 152 436 Q 201 464 256 464 Q 311 464 360 436 Q 409 407 436 360 Q 464 313 464 256 L 464 256 Z M 0 256 Q 1 186 34 128 L 34 128 L 34 128 Q 68 70 128 34 Q 189 0 256 0 Q 323 0 384 34 Q 444 70 478 128 Q 511 186 512 256 Q 511 326 478 384 Q 444 442 384 478 Q 323 512 256 512 Q 189 512 128 478 Q 68 442 34 384 Q 1 326 0 256 L 0 256 Z M 307 325 L 162 381 L 307 325 L 162 381 Q 147 385 137 375 Q 127 365 131 350 L 187 205 L 187 205 Q 192 192 205 187 L 350 131 L 350 131 Q 365 127 375 137 Q 385 147 381 162 L 325 307 L 325 307 Q 320 320 307 325 L 307 325 Z M 288 256 Q 288 242 279 233 L 279 233 L 279 233 Q 270 224 256 224 Q 242 224 233 233 Q 224 242 224 256 Q 224 270 233 279 Q 242 288 256 288 Q 270 288 279 279 Q 288 270 288 256 L 288 256 Z" />
</svg>