<svg xmlns="http://www.w3.org/2000/svg" viewBox="0 0 576 460">
    <path d="M 266 382 Q 269 381 272 380 L 272 380 Q 276 379 279 379 L 279 379 Q 335 363 398 353 Q 461 344 528 358 L 528 66 Q 479 49 426 55 Q 372 61 310 78 Q 307 79 304 80 Q 300 81 297 82 L 297 82 Q 296 82 296 82 Q 240 97 177 107 Q 114 116 48 102 L 48 394 Q 97 411 150 405 Q 204 399 266 382 L 266 382 Z M 0 396 L 0 87 Q 1 68 16 59 Q 30 49 48 53 Q 108 68 168 60 Q 227 51 287 35 Q 288 34 288 34 Q 353 16 418 8 Q 484 0 549 22 Q 575 34 576 65 L 576 373 Q 575 392 560 401 Q 546 411 528 407 Q 468 392 408 400 Q 348 409 289 426 Q 288 426 288 426 Q 223 444 158 452 Q 92 460 27 438 Q 1 426 0 396 L 0 396 Z M 288 326 Q 254 325 231 298 L 231 298 Q 209 271 208 230 Q 209 189 231 162 Q 254 135 288 134 Q 322 135 345 162 Q 367 189 368 230 Q 367 271 345 298 Q 322 325 288 326 L 288 326 Z"/>
</svg>
