<svg xmlns="http://www.w3.org/2000/svg" viewBox="0 0 512 512">
  <path d="M 271.1111111111111 221.33333333333334 Q 256 233.77777777777777 240.88888888888889 221.33333333333334 L 169.77777777777777 150.22222222222223 L 169.77777777777777 150.22222222222223 Q 157.33333333333334 135.11111111111111 169.77777777777777 120 Q 184.88888888888889 107.55555555555556 200 120 L 234.66666666666666 154.66666666666666 L 234.66666666666666 154.66666666666666 L 234.66666666666666 49.77777777777778 L 234.66666666666666 49.77777777777778 Q 236.44444444444446 30.22222222222222 256 28.444444444444443 Q 275.55555555555554 30.22222222222222 277.3333333333333 49.77777777777778 L 277.3333333333333 154.66666666666666 L 277.3333333333333 154.66666666666666 L 312 120 L 312 120 Q 327.1111111111111 107.55555555555556 342.22222222222223 120 Q 354.6666666666667 135.11111111111111 342.22222222222223 150.22222222222223 L 271.1111111111111 221.33333333333334 L 271.1111111111111 221.33333333333334 Z M 349.3333333333333 229.33333333333334 Q 360 233.77777777777777 362.6666666666667 245.33333333333334 L 378.6666666666667 332.44444444444446 L 378.6666666666667 332.44444444444446 L 465.77777777777777 348.44444444444446 L 465.77777777777777 348.44444444444446 Q 477.3333333333333 351.1111111111111 481.77777777777777 361.77777777777777 Q 486.22222222222223 372.44444444444446 480 381.3333333333333 L 439.1111111111111 440.8888888888889 L 439.1111111111111 440.8888888888889 L 490.6666666666667 440.8888888888889 L 490.6666666666667 440.8888888888889 Q 510.22222222222223 442.6666666666667 512 462.22222222222223 Q 510.22222222222223 481.77777777777777 490.6666666666667 483.55555555555554 L 21.333333333333332 483.55555555555554 L 21.333333333333332 483.55555555555554 Q 1.7777777777777777 481.77777777777777 0 462.22222222222223 Q 1.7777777777777777 442.6666666666667 21.333333333333332 440.8888888888889 L 72.88888888888889 440.8888888888889 L 72.88888888888889 440.8888888888889 L 32 382.22222222222223 L 32 382.22222222222223 Q 25.77777777777778 372.44444444444446 30.22222222222222 361.77777777777777 Q 34.666666666666664 351.1111111111111 46.22222222222222 348.44444444444446 L 133.33333333333334 332.44444444444446 L 133.33333333333334 332.44444444444446 L 149.33333333333334 245.33333333333334 L 149.33333333333334 245.33333333333334 Q 152 233.77777777777777 162.66666666666666 229.33333333333334 Q 173.33333333333334 224.88888888888889 182.22222222222223 231.11111111111111 L 256 281.77777777777777 L 256 281.77777777777777 L 329.77777777777777 231.11111111111111 L 329.77777777777777 231.11111111111111 Q 338.6666666666667 224.88888888888889 349.3333333333333 229.33333333333334 L 349.3333333333333 229.33333333333334 Z M 124.44444444444444 440.8888888888889 L 157.33333333333334 440.8888888888889 L 124.44444444444444 440.8888888888889 L 157.33333333333334 440.8888888888889 Q 163.55555555555554 403.55555555555554 190.22222222222223 380.44444444444446 Q 217.77777777777777 356.44444444444446 256 355.55555555555554 Q 294.22222222222223 356.44444444444446 321.77777777777777 380.44444444444446 Q 348.44444444444446 403.55555555555554 354.6666666666667 440.8888888888889 L 387.55555555555554 440.8888888888889 L 387.55555555555554 440.8888888888889 L 425.77777777777777 384.8888888888889 L 425.77777777777777 384.8888888888889 L 356.44444444444446 371.55555555555554 L 356.44444444444446 371.55555555555554 Q 342.22222222222223 368.8888888888889 339.55555555555554 354.6666666666667 L 326.22222222222223 285.3333333333333 L 326.22222222222223 285.3333333333333 L 268.44444444444446 325.3333333333333 L 268.44444444444446 325.3333333333333 Q 256 333.3333333333333 243.55555555555554 325.3333333333333 L 185.77777777777777 285.3333333333333 L 185.77777777777777 285.3333333333333 L 172.44444444444446 354.6666666666667 L 172.44444444444446 354.6666666666667 Q 169.77777777777777 368.8888888888889 155.55555555555554 371.55555555555554 L 86.22222222222223 384.8888888888889 L 86.22222222222223 384.8888888888889 L 124.44444444444444 440.8888888888889 L 124.44444444444444 440.8888888888889 Z M 311.1111111111111 440.8888888888889 Q 305.77777777777777 422.22222222222223 291.55555555555554 410.6666666666667 L 291.55555555555554 410.6666666666667 L 291.55555555555554 410.6666666666667 Q 276.44444444444446 398.22222222222223 256 398.22222222222223 Q 235.55555555555554 398.22222222222223 220.44444444444446 410.6666666666667 Q 206.22222222222223 422.22222222222223 200.88888888888889 440.8888888888889 L 311.1111111111111 440.8888888888889 L 311.1111111111111 440.8888888888889 Z" />
</svg>