<svg xmlns="http://www.w3.org/2000/svg" viewBox="0 0 512 512">
  <path d="M 88 0 Q 66 2 64 24 Q 66 46 88 48 L 96 48 L 96 48 L 96 67 L 96 67 Q 97 130 141 175 L 222 256 L 222 256 L 141 338 L 141 338 Q 97 382 96 445 L 96 464 L 96 464 L 88 464 L 88 464 Q 66 466 64 488 Q 66 510 88 512 L 424 512 L 424 512 Q 446 510 448 488 Q 446 466 424 464 L 416 464 L 416 464 L 416 445 L 416 445 Q 415 382 372 338 L 290 256 L 290 256 L 371 175 L 371 175 Q 415 130 416 67 L 416 48 L 416 48 L 424 48 L 424 48 Q 446 46 448 24 Q 446 2 424 0 L 88 0 L 88 0 Z M 256 290 L 338 371 L 256 290 L 338 371 Q 367 402 368 445 L 368 464 L 368 464 L 144 464 L 144 464 L 144 445 L 144 445 Q 145 402 175 372 L 256 290 L 256 290 Z M 256 222 L 175 141 L 256 222 L 175 141 Q 145 110 144 67 L 144 48 L 144 48 L 368 48 L 368 48 L 368 67 L 368 67 Q 367 110 338 141 L 256 222 L 256 222 Z" />
</svg>