<svg xmlns="http://www.w3.org/2000/svg" viewBox="0 0 448 448">
    <path d="M 384 48 Q 399 49 400 64 L 400 384 Q 399 399 384 400 L 64 400 Q 49 399 48 384 L 48 64 Q 49 49 64 48 L 384 48 L 384 48 Z M 64 0 Q 37 1 19 19 L 19 19 Q 1 37 0 64 L 0 384 Q 1 411 19 429 Q 37 447 64 448 L 384 448 Q 411 447 429 429 Q 447 411 448 384 L 448 64 Q 447 37 429 19 Q 411 1 384 0 L 64 0 L 64 0 Z M 102 120 Q 89 137 104 154 L 181 224 L 104 294 Q 89 311 102 328 Q 119 343 136 330 L 232 242 Q 240 235 240 224 Q 240 214 232 206 L 136 118 Q 119 105 102 120 L 102 120 Z M 216 304 Q 194 306 192 328 Q 194 350 216 352 L 328 352 Q 350 350 352 328 Q 350 306 328 304 L 216 304 L 216 304 Z"/>
</svg>
