<svg xmlns="http://www.w3.org/2000/svg" viewBox="0 0 512 512">
  <path d="M 201.14285714285714 109.71428571428571 Q 232 108.57142857142857 249.14285714285714 82.28571428571429 Q 262.85714285714283 54.857142857142854 249.14285714285714 27.428571428571427 Q 232 1.1428571428571428 201.14285714285714 0 Q 170.28571428571428 1.1428571428571428 153.14285714285714 27.428571428571427 Q 139.42857142857142 54.857142857142854 153.14285714285714 82.28571428571429 Q 170.28571428571428 108.57142857142857 201.14285714285714 109.71428571428571 L 201.14285714285714 109.71428571428571 Z M 192 214.85714285714286 Q 193.14285714285714 202.28571428571428 205.71428571428572 201.14285714285714 Q 218.28571428571428 202.28571428571428 219.42857142857142 214.85714285714286 L 219.42857142857142 320 L 219.42857142857142 320 L 201.14285714285714 320 L 201.14285714285714 320 Q 193.14285714285714 318.85714285714283 192 310.85714285714283 L 192 214.85714285714286 L 192 214.85714285714286 Z M 274.2857142857143 320 L 274.2857142857143 256 L 274.2857142857143 320 L 274.2857142857143 256 L 338.2857142857143 256 L 338.2857142857143 256 Q 363.42857142857144 253.71428571428572 365.7142857142857 228.57142857142858 Q 363.42857142857144 203.42857142857142 338.2857142857143 201.14285714285714 L 273.14285714285717 201.14285714285714 L 273.14285714285717 201.14285714285714 Q 267.42857142857144 177.14285714285714 249.14285714285714 162.28571428571428 Q 230.85714285714286 146.28571428571428 205.71428571428572 146.28571428571428 Q 177.14285714285714 147.42857142857142 157.71428571428572 166.85714285714286 Q 138.28571428571428 186.28571428571428 137.14285714285714 214.85714285714286 L 137.14285714285714 310.85714285714283 L 137.14285714285714 310.85714285714283 Q 138.28571428571428 338.2857142857143 155.42857142857142 356.57142857142856 Q 173.71428571428572 373.7142857142857 201.14285714285714 374.85714285714283 L 246.85714285714286 374.85714285714283 L 308.57142857142856 374.85714285714283 Q 331.42857142857144 376 336 398.85714285714283 L 347.42857142857144 488 L 347.42857142857144 488 Q 352 510.85714285714283 374.85714285714283 512 L 448 512 L 448 512 Q 473.14285714285717 509.7142857142857 475.42857142857144 484.57142857142856 Q 473.14285714285717 459.42857142857144 448 457.14285714285717 L 398.85714285714283 457.14285714285717 L 398.85714285714283 457.14285714285717 L 389.7142857142857 392 L 389.7142857142857 392 Q 385.14285714285717 360 362.2857142857143 340.57142857142856 Q 340.57142857142856 321.14285714285717 308.57142857142856 320 L 274.2857142857143 320 L 274.2857142857143 320 Z M 91.42857142857143 137.14285714285714 Q 89.14285714285714 112 64 109.71428571428571 Q 38.857142857142854 112 36.57142857142857 137.14285714285714 L 36.57142857142857 338.2857142857143 L 36.57142857142857 338.2857142857143 Q 37.714285714285715 396.57142857142856 76.57142857142857 435.42857142857144 Q 115.42857142857143 474.2857142857143 173.71428571428572 475.42857142857144 L 265.14285714285717 475.42857142857144 L 265.14285714285717 475.42857142857144 Q 290.2857142857143 473.14285714285717 292.57142857142856 448 Q 290.2857142857143 422.85714285714283 265.14285714285717 420.57142857142856 L 173.71428571428572 420.57142857142856 L 173.71428571428572 420.57142857142856 Q 138.28571428571428 419.42857142857144 115.42857142857143 396.57142857142856 Q 92.57142857142857 373.7142857142857 91.42857142857143 338.2857142857143 L 91.42857142857143 137.14285714285714 L 91.42857142857143 137.14285714285714 Z" />
</svg>