<svg xmlns="http://www.w3.org/2000/svg" viewBox="0 0 448 512">
    <path d="M 400 224 Q 399 278 371 320 L 371 320 Q 344 362 297 384 L 381 384 Q 412 353 430 312 Q 448 271 448 224 Q 447 161 417 111 Q 388 60 337 31 Q 287 1 224 0 Q 161 1 111 31 Q 60 60 31 111 Q 1 161 0 224 Q 0 271 18 312 Q 36 353 67 384 L 151 384 Q 104 362 77 320 Q 49 278 48 224 Q 50 149 100 100 Q 149 50 224 48 Q 299 50 348 100 Q 398 149 400 224 L 400 224 Z M 168 100 Q 165 95 160 95 L 160 95 Q 155 95 153 100 L 143 127 L 116 137 Q 111 139 111 144 Q 111 149 116 152 L 143 161 L 153 188 Q 155 193 160 193 Q 165 193 168 188 L 177 161 L 204 152 Q 209 149 209 144 Q 209 139 204 137 L 177 127 L 168 100 L 168 100 Z M 281 148 L 262 198 L 212 217 Q 207 219 207 224 Q 207 229 212 232 L 262 250 L 281 300 Q 283 305 288 305 Q 293 305 296 300 L 314 250 L 364 231 Q 369 229 369 224 Q 369 219 364 216 L 314 198 L 296 148 Q 293 143 288 143 Q 283 143 281 148 L 281 148 Z M 20 474 Q 13 486 19 499 Q 26 511 40 512 L 408 512 Q 422 511 429 499 Q 435 486 428 474 L 387 416 L 61 416 L 20 474 L 20 474 Z"/>
</svg>
