<svg xmlns="http://www.w3.org/2000/svg" viewBox="0 0 512 448">
    <path d="M 48 48 L 48 96 L 464 96 L 464 48 L 48 48 L 48 48 Z M 32 0 L 480 0 Q 494 0 503 9 Q 512 18 512 32 L 512 112 Q 512 126 503 135 Q 494 144 480 144 L 32 144 Q 18 144 9 135 Q 0 126 0 112 L 0 32 Q 0 18 9 9 Q 18 0 32 0 L 32 0 Z M 160 216 Q 162 194 184 192 L 328 192 Q 350 194 352 216 Q 350 238 328 240 L 184 240 Q 162 238 160 216 L 160 216 Z M 32 384 L 32 176 L 80 176 L 80 384 Q 81 399 96 400 L 416 400 Q 431 399 432 384 L 432 176 L 480 176 L 480 384 Q 479 411 461 429 Q 443 447 416 448 L 96 448 Q 69 447 51 429 Q 33 411 32 384 L 32 384 Z"/>
</svg>
