<svg xmlns="http://www.w3.org/2000/svg" viewBox="0 0 512 512">
  <path d="M 256 345.6 Q 280 345.6 300.8 333.6 L 300.8 333.6 L 300.8 333.6 Q 321.6 321.6 333.6 300.8 Q 345.6 280 345.6 256 Q 345.6 232 333.6 211.2 Q 321.6 190.4 300.8 178.4 Q 280 166.4 256 166.4 Q 232 166.4 211.2 178.4 Q 190.4 190.4 178.4 211.2 Q 166.4 232 166.4 256 Q 166.4 280 178.4 300.8 Q 190.4 321.6 211.2 333.6 Q 232 345.6 256 345.6 L 256 345.6 Z M 382.4 275.2 Q 374.4 322.4 340 352.8 L 340 352.8 L 340 352.8 Q 304.8 383.2 256 384 Q 207.2 383.2 172 352.8 Q 137.6 322.4 129.6 275.2 L 19.2 275.2 L 19.2 275.2 Q 1.6 273.6 0 256 Q 1.6 238.4 19.2 236.8 L 129.6 236.8 L 129.6 236.8 Q 137.6 189.6 172 159.2 Q 207.2 128.8 256 128 Q 304.8 128.8 340 159.2 Q 374.4 189.6 382.4 236.8 L 492.8 236.8 L 492.8 236.8 Q 510.4 238.4 512 256 Q 510.4 273.6 492.8 275.2 L 382.4 275.2 L 382.4 275.2 Z" />
</svg>