<svg xmlns="http://www.w3.org/2000/svg" viewBox="0 0 320 448">
    <path d="M 304 124 Q 303 71 268 36 L 268 36 Q 233 1 180 0 L 140 0 Q 87 1 52 36 Q 17 71 16 124 Q 18 182 59 218 Q 32 235 16 262 Q 0 290 0 324 Q 1 377 36 412 Q 71 447 124 448 L 196 448 Q 249 447 284 412 Q 319 377 320 324 Q 320 290 304 262 Q 288 235 261 218 Q 302 182 304 124 L 304 124 Z M 180 248 L 196 248 Q 228 249 250 270 Q 271 292 272 324 Q 271 356 250 378 Q 228 399 196 400 L 124 400 Q 92 399 70 378 Q 49 356 48 324 Q 49 292 70 270 Q 92 249 124 248 L 140 248 Q 140 248 140 248 Q 140 248 140 248 L 180 248 Q 180 248 180 248 Q 180 248 180 248 L 180 248 Z M 180 200 Q 180 200 180 200 L 180 200 Q 180 200 180 200 L 140 200 Q 140 200 140 200 Q 140 200 140 200 Q 108 199 86 178 Q 65 156 64 124 Q 65 92 86 70 Q 108 49 140 48 L 180 48 Q 212 49 234 70 Q 255 92 256 124 Q 255 156 234 178 Q 212 199 180 200 L 180 200 Z"/>
</svg>
