<svg xmlns="http://www.w3.org/2000/svg" viewBox="0 0 642 458">
    <path d="M 232 224 Q 212 166 230 111 L 230 111 Q 249 57 298 24 Q 291 21 284 18 Q 230 0 182 22 Q 135 45 114 97 L 99 137 Q 77 196 24 232 L 16 237 Q 0 248 2 268 Q 5 287 22 294 L 253 378 L 254 374 Q 268 324 251 275 L 232 223 L 232 224 Z M 307 196 Q 295 160 310 128 L 310 128 Q 325 95 360 82 Q 396 69 429 84 Q 461 100 475 135 L 494 186 Q 519 252 574 295 L 335 382 Q 350 313 326 247 L 307 196 L 307 196 Z M 285 383 L 280 398 Q 276 417 289 431 Q 304 443 322 437 L 620 329 Q 637 322 640 303 Q 642 284 626 273 L 613 263 Q 561 228 539 170 L 520 118 Q 499 64 449 41 Q 399 18 344 36 Q 289 58 266 107 Q 243 157 262 213 L 281 264 Q 302 323 285 383 L 285 383 Z M 482 458 Q 509 457 527 439 L 527 439 Q 546 421 546 394 Q 546 392 546 390 L 430 432 Q 449 457 482 458 L 482 458 Z M 95 354 Q 95 358 95 362 Q 96 389 114 407 Q 132 425 159 426 Q 194 425 213 398 L 95 354 L 95 354 Z"/>
</svg>
