<svg xmlns="http://www.w3.org/2000/svg" viewBox="0 0 384 512">
    <path d="M 195 43 L 175 128 L 80 128 L 32 128 L 24 128 Q 2 130 0 152 Q 2 174 24 176 L 36 176 L 84 176 L 174 176 L 210 176 L 300 176 L 348 176 L 360 176 Q 382 174 384 152 Q 382 130 360 128 L 352 128 L 304 128 L 224 128 L 242 54 Q 243 48 249 48 L 280 48 Q 302 46 304 24 Q 302 2 280 0 L 249 0 Q 229 0 215 12 Q 200 24 195 43 L 195 43 Z M 39 208 L 60 468 Q 62 487 76 499 Q 89 512 108 512 L 276 512 Q 295 512 308 499 Q 322 487 324 468 L 345 208 L 297 208 L 276 464 L 108 464 L 87 208 L 39 208 L 39 208 Z"/>
</svg>
