<svg xmlns="http://www.w3.org/2000/svg" viewBox="0 0 512 512">
  <path d="M 309.8432 46.99044 L 262.85278 93.98088 L 309.8432 46.99044 L 262.85278 93.98088 Q 246.21033 107.686424 229.56787 93.98088 Q 215.86234 77.33843 229.56787 60.695984 L 276.55832 13.705544 L 276.55832 13.705544 Q 293.20078 0 309.8432 13.705544 Q 323.54877 30.347992 309.8432 46.99044 L 309.8432 46.99044 Z M 130.69215 387.67114 L 120.90249 441.51434 L 130.69215 387.67114 L 120.90249 441.51434 L 169.85086 416.0612 L 169.85086 416.0612 Q 191.38814 405.29254 212.92543 416.0612 L 261.8738 441.51434 L 261.8738 441.51434 L 252.08414 387.67114 L 252.08414 387.67114 Q 249.14723 363.19693 265.78967 345.57553 L 304.94836 307.39578 L 304.94836 307.39578 L 251.10516 299.56406 L 251.10516 299.56406 Q 226.63098 295.6482 215.86234 274.1109 L 191.38814 224.18356 L 191.38814 224.18356 L 166.91396 274.1109 L 166.91396 274.1109 Q 155.16635 295.6482 131.67113 299.56406 L 77.82792 307.39578 L 77.82792 307.39578 L 116.98662 345.57553 L 116.98662 345.57553 Q 133.62906 363.19693 130.69215 387.67114 L 130.69215 387.67114 Z M 124.81836 252.57361 L 169.85086 160.55067 L 124.81836 252.57361 L 169.85086 160.55067 Q 177.6826 147.8241 191.38814 147.8241 Q 205.09369 147.8241 212.92543 160.55067 L 257.95795 252.57361 L 257.95795 252.57361 L 358.7916 268.2371 L 358.7916 268.2371 Q 373.4761 271.174 378.37094 283.90057 Q 382.2868 296.62714 372.49713 307.39578 L 299.0746 379.8394 L 299.0746 379.8394 L 315.717 480.67303 L 315.717 480.67303 Q 317.67496 495.35754 306.9063 503.1893 Q 296.13766 512 282.43213 505.14722 L 191.38814 457.17783 L 191.38814 457.17783 L 100.34417 505.14722 L 100.34417 505.14722 Q 86.638626 512 75.86998 503.1893 Q 65.10134 495.35754 67.05927 480.67303 L 83.70172 379.8394 L 83.70172 379.8394 L 10.279159 307.39578 L 10.279159 307.39578 Q 0.48948374 296.62714 4.4053535 283.90057 Q 8.321223 271.174 23.984703 268.2371 L 124.81836 252.57361 L 124.81836 252.57361 Z M 497.80496 201.6673 Q 511.51053 218.30975 497.80496 234.9522 L 450.81454 281.94263 L 450.81454 281.94263 Q 434.1721 295.6482 417.52963 281.94263 Q 403.8241 265.3002 417.52963 248.65775 L 464.52008 201.6673 L 464.52008 201.6673 Q 481.16254 187.96176 497.80496 201.6673 L 497.80496 201.6673 Z M 497.80496 46.99044 L 356.83365 187.96176 L 497.80496 46.99044 L 356.83365 187.96176 Q 340.1912 201.6673 323.54877 187.96176 Q 309.8432 171.3193 323.54877 154.67686 L 464.52008 13.705544 L 464.52008 13.705544 Q 481.16254 0 497.80496 13.705544 Q 511.51053 30.347992 497.80496 46.99044 L 497.80496 46.99044 Z" />
</svg>