<svg xmlns="http://www.w3.org/2000/svg" viewBox="0 0 578 512">
    <path d="M 443 48 Q 433 48 426 56 L 271 240 L 335 240 L 460 92 L 496 123 L 371 271 Q 357 288 335 288 L 230 288 L 230 288 L 221 288 L 202 288 Q 192 288 188 279 Q 184 269 190 262 L 202 247 L 208 241 L 208 240 L 389 25 Q 411 1 443 0 Q 473 1 493 21 Q 513 41 514 71 L 514 75 Q 514 102 496 123 L 460 92 Q 466 84 466 75 L 466 71 Q 464 50 443 48 L 443 48 Z M 171 320 L 178 320 L 274 320 L 290 320 L 290 336 Q 288 392 250 426 Q 212 461 164 479 Q 116 497 75 505 Q 33 512 18 512 Q 8 512 3 502 Q 0 492 7 485 L 167 325 L 171 320 L 171 320 Z M 250 464 L 298 464 Q 320 466 322 488 Q 320 510 298 512 L 250 512 Q 228 510 226 488 Q 228 466 250 464 L 250 464 Z M 378 464 L 426 464 Q 448 466 450 488 Q 448 510 426 512 L 378 512 Q 356 510 354 488 Q 356 466 378 464 L 378 464 Z M 554 464 Q 576 466 578 488 Q 576 510 554 512 L 506 512 Q 484 510 482 488 Q 484 466 506 464 L 554 464 L 554 464 Z"/>
</svg>
