<svg xmlns="http://www.w3.org/2000/svg" viewBox="0 0 512 512">
  <path d="M 232.1398 59.650486 L 232.1398 447.37863 L 232.1398 59.650486 L 232.1398 447.37863 Q 166.52428 409.6 130.73398 353.9262 Q 93.94952 298.25244 79.036896 241.58447 Q 65.11845 183.92233 65.11845 139.18446 Q 65.11845 131.23106 74.06602 126.26019 L 232.1398 59.650486 L 232.1398 59.650486 Z M 279.8602 447.37863 L 279.8602 59.650486 L 279.8602 447.37863 L 279.8602 59.650486 L 437.934 126.26019 L 437.934 126.26019 Q 446.88156 131.23106 446.88156 139.18446 Q 446.88156 183.92233 432.9631 241.58447 Q 418.05048 298.25244 381.26602 353.9262 Q 345.47574 409.6 279.8602 447.37863 L 279.8602 447.37863 Z M 456.8233 82.5165 L 268.9243 2.9825242 L 456.8233 82.5165 L 268.9243 2.9825242 Q 262.95923 0 256 0 Q 249.04077 0 243.07573 2.9825242 L 55.1767 82.5165 L 55.1767 82.5165 Q 38.275726 89.47573 28.33398 104.38835 Q 17.398058 119.30097 17.398058 139.18446 Q 16.403883 189.88737 34.29903 258.48544 Q 52.194176 327.0835 98.92039 391.70486 Q 144.65242 457.32037 230.15146 500.06992 Q 256 512 281.84854 500.06992 Q 367.34756 457.32037 413.07962 391.70486 Q 459.80582 327.0835 477.70096 258.48544 Q 495.59613 189.88737 494.60193 139.18446 Q 494.60193 119.30097 483.66602 104.38835 Q 473.72427 89.47573 456.8233 82.5165 L 456.8233 82.5165 Z" />
</svg>