<svg xmlns="http://www.w3.org/2000/svg" viewBox="0 0 512 512">
  <path d="M 384 434 Q 379 439 362 447 Q 323 463 256 464 Q 189 463 150 447 Q 133 439 128 434 L 128 289 L 128 289 Q 149 299 178 305 Q 184 332 205 350 Q 227 367 256 368 Q 285 367 307 350 Q 328 332 334 305 Q 363 299 384 289 L 384 434 L 384 434 Z M 432 440 L 432 240 L 432 440 L 432 240 L 432 72 L 432 72 Q 430 41 380 21 Q 331 1 256 0 Q 181 1 132 21 Q 82 41 80 72 L 80 240 L 80 240 L 80 440 L 80 440 Q 82 471 132 491 Q 181 511 256 512 Q 331 511 380 491 Q 430 471 432 440 L 432 440 Z M 368 72 Q 367 82 335 89 L 335 89 L 335 89 Q 304 96 256 96 Q 208 96 177 89 Q 145 82 144 72 Q 145 62 177 55 Q 208 48 256 48 Q 304 48 335 55 Q 367 62 368 72 L 368 72 Z M 256 256 Q 270 256 279 265 L 279 265 L 279 265 Q 288 274 288 288 Q 288 302 279 311 Q 270 320 256 320 Q 242 320 233 311 Q 224 302 224 288 Q 224 274 233 265 Q 242 256 256 256 L 256 256 Z" />
</svg>