<svg xmlns="http://www.w3.org/2000/svg" viewBox="0 0 512 512">
  <path d="M 71.73896353166987 4.422264875239923 Q 107.11708253358925 5.404990403071017 125.78886756238003 35.869481765834934 Q 143.47792706333973 67.31669865642995 125.78886756238003 98.76391554702495 Q 107.11708253358925 129.22840690978887 71.73896353166987 130.21113243761997 Q 36.36084452975048 129.22840690978887 17.689059500959694 98.76391554702495 Q 0 67.31669865642995 17.689059500959694 35.869481765834934 Q 36.36084452975048 5.404990403071017 71.73896353166987 4.422264875239923 L 71.73896353166987 4.422264875239923 Z M 56.01535508637236 334.61804222648755 L 56.01535508637236 444.68330134357007 L 56.01535508637236 334.61804222648755 L 56.01535508637236 444.68330134357007 Q 56.99808061420345 459.4241842610365 71.73896353166987 460.40690978886755 L 118.90978886756238 460.40690978886755 L 118.90978886756238 460.40690978886755 L 118.90978886756238 303.1708253358925 L 118.90978886756238 303.1708253358925 L 56.01535508637236 303.1708253358925 L 56.01535508637236 303.1708253358925 L 56.01535508637236 318.89443378119 L 56.01535508637236 318.89443378119 L 56.01535508637236 334.61804222648755 L 56.01535508637236 334.61804222648755 Z M 166.0806142034549 460.40690978886755 L 236.83685220729367 460.40690978886755 L 166.0806142034549 460.40690978886755 L 236.83685220729367 460.40690978886755 L 236.83685220729367 303.1708253358925 L 236.83685220729367 303.1708253358925 L 166.0806142034549 303.1708253358925 L 166.0806142034549 303.1708253358925 L 166.0806142034549 460.40690978886755 L 166.0806142034549 460.40690978886755 Z M 284.00767754318616 460.40690978886755 L 354.76391554702496 460.40690978886755 L 284.00767754318616 460.40690978886755 L 354.76391554702496 460.40690978886755 L 354.76391554702496 303.1708253358925 L 354.76391554702496 303.1708253358925 L 284.00767754318616 303.1708253358925 L 284.00767754318616 303.1708253358925 L 284.00767754318616 460.40690978886755 L 284.00767754318616 460.40690978886755 Z M 281.0595009596929 256 L 378.3493282149712 256 L 281.0595009596929 256 L 449.10556621881 256 Q 475.63915547024953 256.9827255278311 493.3282149712092 274.6717850287908 Q 511.0172744721689 292.36084452975047 512 318.89443378119 L 512 444.68330134357007 L 512 444.68330134357007 Q 511.0172744721689 471.2168905950096 493.3282149712092 488.9059500959693 Q 475.63915547024953 506.595009596929 449.10556621881 507.57773512476007 L 71.73896353166987 507.57773512476007 L 71.73896353166987 507.57773512476007 Q 45.20537428023032 506.595009596929 27.516314779270633 488.9059500959693 Q 9.82725527831094 471.2168905950096 8.844529750479847 444.68330134357007 L 8.844529750479847 334.61804222648755 L 8.844529750479847 334.61804222648755 L 8.844529750479847 318.89443378119 L 8.844529750479847 318.89443378119 L 8.844529750479847 279.58541266794623 L 8.844529750479847 279.58541266794623 L 8.844529750479847 256 L 8.844529750479847 256 Q 9.82725527831094 215.70825335892513 36.36084452975048 189.1746641074856 Q 62.89443378119002 162.64107485604606 103.18618042226487 161.65834932821497 Q 134.6333973128599 161.65834932821497 160.18426103646834 180.33013435700576 L 243.71593090211132 243.22456813819576 L 243.71593090211132 243.22456813819576 Q 260.42226487523993 256 281.0595009596929 256 L 281.0595009596929 256 Z M 56.01535508637236 256 L 142.49520153550864 256 L 56.01535508637236 256 L 181.8042226487524 256 L 131.6852207293666 218.6564299424184 L 131.6852207293666 218.6564299424184 Q 118.90978886756238 208.82917466410748 103.18618042226487 208.82917466410748 Q 83.531669865643 209.81190019193858 69.77351247600768 222.5873320537428 Q 56.99808061420345 236.3454894433781 56.01535508637236 256 L 56.01535508637236 256 Z M 401.9347408829175 303.1708253358925 L 401.9347408829175 460.40690978886755 L 401.9347408829175 303.1708253358925 L 401.9347408829175 460.40690978886755 L 449.10556621881 460.40690978886755 L 449.10556621881 460.40690978886755 Q 463.8464491362764 459.4241842610365 464.8291746641075 444.68330134357007 L 464.8291746641075 318.89443378119 L 464.8291746641075 318.89443378119 Q 463.8464491362764 304.1535508637236 449.10556621881 303.1708253358925 L 401.9347408829175 303.1708253358925 L 401.9347408829175 303.1708253358925 Z M 276.1458733205374 28.00767754318618 L 276.1458733205374 32.92130518234165 L 276.1458733205374 28.00767754318618 L 276.1458733205374 32.92130518234165 Q 277.12859884836854 64.36852207293666 299.7312859884837 85.98848368522073 L 315.4548944337812 100.72936660268714 L 315.4548944337812 100.72936660268714 Q 353.78119001919384 136.10748560460652 354.76391554702496 188.1919385796545 L 354.76391554702496 200.96737044145874 L 354.76391554702496 200.96737044145874 Q 352.7984644913628 222.5873320537428 331.1785028790787 224.552783109405 Q 309.55854126679463 222.5873320537428 307.59309021113245 200.96737044145874 L 307.59309021113245 188.1919385796545 L 307.59309021113245 188.1919385796545 Q 306.6103646833013 156.7447216890595 284.00767754318616 135.12476007677543 L 268.2840690978887 121.36660268714012 L 268.2840690978887 121.36660268714012 Q 229.957773512476 85.00575815738964 228.9750479846449 32.92130518234165 L 228.9750479846449 28.00767754318618 L 228.9750479846449 28.00767754318618 Q 230.9404990403071 6.387715930902111 252.56046065259116 4.422264875239923 Q 274.18042226487523 6.387715930902111 276.1458733205374 28.00767754318618 L 276.1458733205374 28.00767754318618 Z M 386.21113243761994 28.00767754318618 L 386.21113243761994 32.92130518234165 L 386.21113243761994 28.00767754318618 L 386.21113243761994 32.92130518234165 Q 387.19385796545106 64.36852207293666 409.7965451055662 85.98848368522073 L 425.5201535508637 100.72936660268714 L 425.5201535508637 100.72936660268714 Q 463.8464491362764 136.10748560460652 464.8291746641075 188.1919385796545 L 464.8291746641075 200.96737044145874 L 464.8291746641075 200.96737044145874 Q 462.8637236084453 222.5873320537428 441.24376199616125 224.552783109405 Q 419.62380038387715 222.5873320537428 417.65834932821497 200.96737044145874 L 417.65834932821497 188.1919385796545 L 417.65834932821497 188.1919385796545 Q 416.6756238003839 156.7447216890595 394.07293666026874 135.12476007677543 L 378.3493282149712 121.36660268714012 L 378.3493282149712 121.36660268714012 Q 340.02303262955854 85.00575815738964 339.0403071017274 32.92130518234165 L 339.0403071017274 28.00767754318618 L 339.0403071017274 28.00767754318618 Q 341.0057581573896 6.387715930902111 362.6257197696737 4.422264875239923 Q 384.24568138195775 6.387715930902111 386.21113243761994 28.00767754318618 L 386.21113243761994 28.00767754318618 Z" />
</svg>