<svg xmlns="http://www.w3.org/2000/svg" viewBox="0 0 512 512">
    <path d="M 448 384 L 256 384 Q 229 383 211 365 Q 193 347 192 320 L 192 64 Q 193 37 211 19 Q 229 1 256 0 L 396 0 Q 416 0 430 14 L 498 82 Q 512 96 512 116 L 512 320 Q 511 347 493 365 Q 475 383 448 384 L 448 384 Z M 64 128 L 160 128 L 160 176 L 64 176 Q 49 177 48 192 L 48 448 Q 49 463 64 464 L 256 464 Q 271 463 272 448 L 272 416 L 320 416 L 320 448 Q 319 475 301 493 Q 283 511 256 512 L 64 512 Q 37 511 19 493 Q 1 475 0 448 L 0 192 Q 1 165 19 147 Q 37 129 64 128 L 64 128 Z"/>
</svg>
