<svg xmlns="http://www.w3.org/2000/svg" viewBox="0 0 512 512">
  <path d="M 54.857142857142854 54.857142857142854 L 54.857142857142854 237.71428571428572 L 54.857142857142854 54.857142857142854 L 54.857142857142854 237.71428571428572 L 164.57142857142858 237.71428571428572 L 164.57142857142858 237.71428571428572 L 164.57142857142858 54.857142857142854 L 164.57142857142858 54.857142857142854 L 54.857142857142854 54.857142857142854 L 54.857142857142854 54.857142857142854 Z M 0 54.857142857142854 Q 1.1428571428571428 32 16 16 L 16 16 L 16 16 Q 32 1.1428571428571428 54.857142857142854 0 L 164.57142857142858 0 L 164.57142857142858 0 Q 187.42857142857142 1.1428571428571428 203.42857142857142 16 Q 218.28571428571428 32 219.42857142857142 54.857142857142854 L 219.42857142857142 237.71428571428572 L 219.42857142857142 237.71428571428572 Q 218.28571428571428 260.57142857142856 203.42857142857142 276.57142857142856 Q 187.42857142857142 291.42857142857144 164.57142857142858 292.57142857142856 L 54.857142857142854 292.57142857142856 L 54.857142857142854 292.57142857142856 Q 32 291.42857142857144 16 276.57142857142856 Q 1.1428571428571428 260.57142857142856 0 237.71428571428572 L 0 54.857142857142854 L 0 54.857142857142854 Z M 347.42857142857144 274.2857142857143 L 347.42857142857144 457.14285714285717 L 347.42857142857144 274.2857142857143 L 347.42857142857144 457.14285714285717 L 457.14285714285717 457.14285714285717 L 457.14285714285717 457.14285714285717 L 457.14285714285717 274.2857142857143 L 457.14285714285717 274.2857142857143 L 347.42857142857144 274.2857142857143 L 347.42857142857144 274.2857142857143 Z M 292.57142857142856 274.2857142857143 Q 293.7142857142857 251.42857142857142 308.57142857142856 235.42857142857142 L 308.57142857142856 235.42857142857142 L 308.57142857142856 235.42857142857142 Q 324.57142857142856 220.57142857142858 347.42857142857144 219.42857142857142 L 457.14285714285717 219.42857142857142 L 457.14285714285717 219.42857142857142 Q 480 220.57142857142858 496 235.42857142857142 Q 510.85714285714283 251.42857142857142 512 274.2857142857143 L 512 457.14285714285717 L 512 457.14285714285717 Q 510.85714285714283 480 496 496 Q 480 510.85714285714283 457.14285714285717 512 L 347.42857142857144 512 L 347.42857142857144 512 Q 324.57142857142856 510.85714285714283 308.57142857142856 496 Q 293.7142857142857 480 292.57142857142856 457.14285714285717 L 292.57142857142856 274.2857142857143 L 292.57142857142856 274.2857142857143 Z M 164.57142857142858 384 L 54.857142857142854 384 L 164.57142857142858 384 L 54.857142857142854 384 L 54.857142857142854 457.14285714285717 L 54.857142857142854 457.14285714285717 L 164.57142857142858 457.14285714285717 L 164.57142857142858 457.14285714285717 L 164.57142857142858 384 L 164.57142857142858 384 Z M 54.857142857142854 329.14285714285717 L 164.57142857142858 329.14285714285717 L 54.857142857142854 329.14285714285717 L 164.57142857142858 329.14285714285717 Q 187.42857142857142 330.2857142857143 203.42857142857142 345.14285714285717 Q 218.28571428571428 361.14285714285717 219.42857142857142 384 L 219.42857142857142 457.14285714285717 L 219.42857142857142 457.14285714285717 Q 218.28571428571428 480 203.42857142857142 496 Q 187.42857142857142 510.85714285714283 164.57142857142858 512 L 54.857142857142854 512 L 54.857142857142854 512 Q 32 510.85714285714283 16 496 Q 1.1428571428571428 480 0 457.14285714285717 L 0 384 L 0 384 Q 1.1428571428571428 361.14285714285717 16 345.14285714285717 Q 32 330.2857142857143 54.857142857142854 329.14285714285717 L 54.857142857142854 329.14285714285717 Z M 347.42857142857144 54.857142857142854 L 347.42857142857144 128 L 347.42857142857144 54.857142857142854 L 347.42857142857144 128 L 457.14285714285717 128 L 457.14285714285717 128 L 457.14285714285717 54.857142857142854 L 457.14285714285717 54.857142857142854 L 347.42857142857144 54.857142857142854 L 347.42857142857144 54.857142857142854 Z M 292.57142857142856 54.857142857142854 Q 293.7142857142857 32 308.57142857142856 16 L 308.57142857142856 16 L 308.57142857142856 16 Q 324.57142857142856 1.1428571428571428 347.42857142857144 0 L 457.14285714285717 0 L 457.14285714285717 0 Q 480 1.1428571428571428 496 16 Q 510.85714285714283 32 512 54.857142857142854 L 512 128 L 512 128 Q 510.85714285714283 150.85714285714286 496 166.85714285714286 Q 480 181.71428571428572 457.14285714285717 182.85714285714286 L 347.42857142857144 182.85714285714286 L 347.42857142857144 182.85714285714286 Q 324.57142857142856 181.71428571428572 308.57142857142856 166.85714285714286 Q 293.7142857142857 150.85714285714286 292.57142857142856 128 L 292.57142857142856 54.857142857142854 L 292.57142857142856 54.857142857142854 Z" />
</svg>