<svg xmlns="http://www.w3.org/2000/svg" viewBox="0 0 512 512">
  <path d="M 20.210526 53.894737 Q 1.6842105 55.57895 0 74.10526 Q 1.6842105 92.63158 20.210526 94.31579 L 60.63158 94.31579 L 60.63158 94.31579 L 60.63158 148.21053 L 60.63158 148.21053 L 20.210526 148.21053 L 20.210526 148.21053 Q 1.6842105 149.89473 0 168.42105 Q 1.6842105 186.94737 20.210526 188.63158 L 80.8421 188.63158 L 352 188.63158 Q 378.10526 162.52632 417.6842 161.6842 Q 453.05264 162.52632 478.3158 183.57895 Q 485.05264 177.6842 485.05264 168.42105 Q 483.3684 149.89473 464.8421 148.21053 L 424.42105 148.21053 L 424.42105 148.21053 L 424.42105 94.31579 L 424.42105 94.31579 L 458.10526 94.31579 L 458.10526 94.31579 Q 476.6316 92.63158 478.3158 74.10526 Q 476.6316 55.57895 458.10526 53.894737 L 20.210526 53.894737 L 20.210526 53.894737 Z M 256 229.05263 L 229.05263 229.05263 L 256 229.05263 L 229.05263 229.05263 Q 192 229.89473 166.73685 254.3158 Q 142.3158 279.57895 141.47368 316.6316 L 141.47368 390.73685 L 141.47368 390.73685 L 101.052635 390.73685 L 101.052635 390.73685 L 101.052635 309.89474 L 101.052635 309.89474 Q 100.210526 275.3684 77.47369 252.63158 Q 54.736843 229.89473 20.210526 229.05263 Q 1.6842105 230.73685 0 249.26315 Q 1.6842105 267.78946 20.210526 269.4737 Q 37.05263 270.3158 48.842106 281.26315 Q 59.789474 293.05264 60.63158 309.89474 L 60.63158 397.4737 L 60.63158 397.4737 Q 60.63158 411.78946 70.73684 421.05264 Q 80 431.1579 94.31579 431.1579 L 148.21053 431.1579 L 148.21053 431.1579 Q 162.52632 431.1579 171.78947 421.05264 Q 181.89473 411.78946 181.89473 397.4737 L 181.89473 316.6316 L 181.89473 316.6316 Q 182.73685 296.42105 195.36842 282.94736 Q 208.8421 270.3158 229.05263 269.4737 L 256 269.4737 L 256 269.4737 Q 272 269.4737 283.78946 278.73685 Q 295.57895 287.1579 300.6316 302.3158 Q 308.21054 285.4737 323.3684 277.05264 L 323.3684 261.05264 L 323.3684 261.05264 Q 298.10526 230.73685 256 229.05263 L 256 229.05263 Z M 384 94.31579 L 384 148.21053 L 384 94.31579 L 384 148.21053 L 316.6316 148.21053 L 316.6316 148.21053 L 316.6316 94.31579 L 316.6316 94.31579 L 384 94.31579 L 384 94.31579 Z M 276.21054 94.31579 L 276.21054 148.21053 L 276.21054 94.31579 L 276.21054 148.21053 L 208.8421 148.21053 L 208.8421 148.21053 L 208.8421 94.31579 L 208.8421 94.31579 L 276.21054 94.31579 L 276.21054 94.31579 Z M 168.42105 94.31579 L 168.42105 148.21053 L 168.42105 94.31579 L 168.42105 148.21053 L 101.052635 148.21053 L 101.052635 148.21053 L 101.052635 94.31579 L 101.052635 94.31579 L 168.42105 94.31579 L 168.42105 94.31579 Z M 417.6842 229.05263 Q 429.4737 229.05263 437.05264 236.63158 L 437.05264 236.63158 L 437.05264 236.63158 Q 444.6316 244.21053 444.6316 256 L 444.6316 296.42105 L 444.6316 296.42105 L 390.73685 296.42105 L 390.73685 296.42105 L 390.73685 256 L 390.73685 256 Q 390.73685 244.21053 398.3158 236.63158 Q 405.89474 229.05263 417.6842 229.05263 L 417.6842 229.05263 Z M 350.3158 256 L 350.3158 296.42105 L 350.3158 256 L 350.3158 296.42105 Q 338.5263 296.42105 330.94736 304 Q 323.3684 311.57895 323.3684 323.3684 L 323.3684 431.1579 L 323.3684 431.1579 Q 323.3684 442.94736 330.94736 450.5263 Q 338.5263 458.10526 350.3158 458.10526 L 485.05264 458.10526 L 485.05264 458.10526 Q 496.8421 458.10526 504.42105 450.5263 Q 512 442.94736 512 431.1579 L 512 323.3684 L 512 323.3684 Q 512 311.57895 504.42105 304 Q 496.8421 296.42105 485.05264 296.42105 L 485.05264 256 L 485.05264 256 Q 484.21054 227.36842 465.6842 208 Q 446.3158 189.47368 417.6842 188.63158 Q 389.05264 189.47368 369.6842 208 Q 351.1579 227.36842 350.3158 256 L 350.3158 256 Z" />
</svg>