<svg xmlns="http://www.w3.org/2000/svg" viewBox="0 0 496 512">
    <path d="M 120 0 Q 156 1 175 32 Q 193 64 175 96 Q 156 127 120 128 Q 84 127 65 96 Q 47 64 65 32 Q 84 1 120 0 L 120 0 Z M 89 220 L 56 336 L 184 336 L 151 220 Q 147 209 136 208 L 104 208 Q 93 209 89 220 L 89 220 Z M 43 206 Q 49 185 66 173 L 66 173 Q 82 160 104 160 L 136 160 Q 157 160 174 173 Q 191 185 197 206 L 236 343 Q 240 359 231 371 Q 222 383 205 384 L 184 384 L 184 488 Q 182 510 160 512 Q 138 510 136 488 L 136 384 L 104 384 L 104 488 Q 102 510 80 512 Q 58 510 56 488 L 56 384 L 34 384 Q 18 383 9 371 Q 0 359 4 343 L 43 206 L 43 206 Z M 376 0 Q 412 1 431 32 Q 449 64 431 96 Q 412 127 376 128 Q 340 127 321 96 Q 303 64 321 32 Q 340 1 376 0 L 376 0 Z M 345 220 L 312 336 L 440 336 L 407 220 Q 403 209 392 208 L 360 208 Q 349 209 345 220 L 345 220 Z M 299 206 Q 305 185 322 173 L 322 173 Q 338 160 360 160 L 392 160 Q 413 160 430 173 Q 447 185 453 206 L 492 343 Q 496 359 487 371 Q 478 383 461 384 L 440 384 L 440 488 Q 438 510 416 512 Q 394 510 392 488 L 392 384 L 360 384 L 360 488 Q 358 510 336 512 Q 314 510 312 488 L 312 384 L 290 384 Q 274 383 265 371 Q 256 359 260 343 L 299 206 L 299 206 Z"/>
</svg>
