<svg xmlns="http://www.w3.org/2000/svg" viewBox="0 0 512 512">
  <path d="M 146.66667 212.44444 Q 155.55556 206.22223 166.22223 206.22223 L 305.77777 206.22223 L 305.77777 206.22223 Q 319.1111 207.11111 320 220.44444 Q 319.1111 233.77777 305.77777 234.66667 L 284.44446 234.66667 L 227.55556 234.66667 Q 208 236.44444 206.22223 256 Q 208 275.55554 227.55556 277.33334 L 284.44446 277.33334 L 348.44446 277.33334 Q 354.66666 277.33334 360 273.77777 L 442.66666 223.11111 L 442.66666 223.11111 Q 447.1111 220.44444 451.55554 220.44444 L 458.66666 220.44444 L 458.66666 220.44444 Q 468.44446 221.33333 469.33334 231.11111 Q 469.33334 237.33333 464.8889 240.88889 L 379.55554 295.1111 L 379.55554 295.1111 Q 363.55554 305.77777 344.8889 305.77777 L 21.333334 305.77777 L 21.333334 305.77777 Q 1.7777778 307.55554 0 327.1111 Q 1.7777778 346.66666 21.333334 348.44446 L 344.8889 348.44446 L 344.8889 348.44446 Q 376 348.44446 402.66666 331.55554 L 488 276.44446 L 488 276.44446 Q 511.1111 259.55554 512 231.11111 Q 511.1111 208.88889 496 193.77777 Q 480.8889 178.66667 458.66666 177.77777 L 451.55554 177.77777 L 451.55554 177.77777 Q 434.66666 177.77777 420.44446 186.66667 L 362.66666 222.22223 L 362.66666 222.22223 Q 362.66666 221.33333 362.66666 221.33333 Q 362.66666 221.33333 362.66666 220.44444 Q 361.77777 196.44444 345.77777 180.44444 Q 329.77777 164.44444 305.77777 163.55556 L 166.22223 163.55556 L 166.22223 163.55556 Q 143.11111 163.55556 123.55556 176.88889 L 57.77778 220.44444 L 57.77778 220.44444 L 21.333334 220.44444 L 21.333334 220.44444 Q 1.7777778 222.22223 0 241.77777 Q 1.7777778 261.33334 21.333334 263.1111 L 64 263.1111 L 64 263.1111 Q 70.22222 263.1111 75.55556 259.55554 L 146.66667 212.44444 L 146.66667 212.44444 Z" />
</svg>