<svg xmlns="http://www.w3.org/2000/svg" viewBox="0 0 512 512">
  <path d="M 73.14285714285714 54.857142857142854 Q 56 56 54.857142857142854 73.14285714285714 L 54.857142857142854 438.85714285714283 L 54.857142857142854 438.85714285714283 Q 56 456 73.14285714285714 457.14285714285717 L 438.85714285714283 457.14285714285717 L 438.85714285714283 457.14285714285717 Q 456 456 457.14285714285717 438.85714285714283 L 457.14285714285717 73.14285714285714 L 457.14285714285717 73.14285714285714 Q 456 56 438.85714285714283 54.857142857142854 L 73.14285714285714 54.857142857142854 L 73.14285714285714 54.857142857142854 Z M 0 73.14285714285714 Q 1.1428571428571428 42.285714285714285 21.714285714285715 21.714285714285715 L 21.714285714285715 21.714285714285715 L 21.714285714285715 21.714285714285715 Q 42.285714285714285 1.1428571428571428 73.14285714285714 0 L 438.85714285714283 0 L 438.85714285714283 0 Q 469.7142857142857 1.1428571428571428 490.2857142857143 21.714285714285715 Q 510.85714285714283 42.285714285714285 512 73.14285714285714 L 512 438.85714285714283 L 512 438.85714285714283 Q 510.85714285714283 469.7142857142857 490.2857142857143 490.2857142857143 Q 469.7142857142857 510.85714285714283 438.85714285714283 512 L 73.14285714285714 512 L 73.14285714285714 512 Q 42.285714285714285 510.85714285714283 21.714285714285715 490.2857142857143 Q 1.1428571428571428 469.7142857142857 0 438.85714285714283 L 0 73.14285714285714 L 0 73.14285714285714 Z M 164.57142857142858 256 Q 165.71428571428572 294.85714285714283 190.85714285714286 321.14285714285717 L 190.85714285714286 321.14285714285717 L 190.85714285714286 321.14285714285717 Q 217.14285714285714 346.2857142857143 256 347.42857142857144 Q 278.85714285714283 347.42857142857144 298.2857142857143 337.14285714285717 L 264 302.85714285714283 L 264 302.85714285714283 Q 248 283.42857142857144 264 264 Q 283.42857142857144 248 302.85714285714283 264 L 337.14285714285717 298.2857142857143 L 337.14285714285717 298.2857142857143 Q 347.42857142857144 278.85714285714283 347.42857142857144 256 Q 346.2857142857143 217.14285714285714 321.14285714285717 190.85714285714286 Q 294.85714285714283 165.71428571428572 256 164.57142857142858 Q 217.14285714285714 165.71428571428572 190.85714285714286 190.85714285714286 Q 165.71428571428572 217.14285714285714 164.57142857142858 256 L 164.57142857142858 256 Z M 402.2857142857143 256 Q 401.14285714285717 302.85714285714283 377.14285714285717 338.2857142857143 L 394.2857142857143 355.42857142857144 L 394.2857142857143 355.42857142857144 Q 410.2857142857143 374.85714285714283 394.2857142857143 394.2857142857143 Q 374.85714285714283 410.2857142857143 355.42857142857144 394.2857142857143 L 338.2857142857143 377.14285714285717 L 338.2857142857143 377.14285714285717 Q 302.85714285714283 401.14285714285717 256 402.2857142857143 Q 194.28571428571428 401.14285714285717 153.14285714285714 358.85714285714283 Q 110.85714285714286 317.7142857142857 109.71428571428571 256 Q 110.85714285714286 194.28571428571428 153.14285714285714 152 Q 194.28571428571428 110.85714285714286 256 109.71428571428571 Q 317.7142857142857 110.85714285714286 360 152 Q 401.14285714285717 194.28571428571428 402.2857142857143 256 L 402.2857142857143 256 Z" />
</svg>