<svg xmlns="http://www.w3.org/2000/svg" viewBox="0 0 512 512">
  <path d="M 70.72373 439.28406 Q 47.81323 414.38132 47.81323 382.50583 L 47.81323 382.50583 L 47.81323 382.50583 Q 47.81323 350.63034 70.72373 326.72372 L 325.72763 71.71984 L 325.72763 71.71984 Q 350.63034 47.81323 382.50583 47.81323 Q 414.38132 47.81323 439.28406 71.71984 Q 462.19455 95.62646 462.19455 127.501945 Q 462.19455 159.37743 439.28406 184.28015 L 376.52917 247.03502 L 376.52917 247.03502 Q 369.55643 239.06615 358.5992 239.06615 Q 336.6848 241.05836 334.6926 262.97275 Q 334.6926 273.92996 342.66147 280.9027 L 184.28015 439.28406 L 184.28015 439.28406 Q 159.37743 462.19455 127.501945 462.19455 Q 95.62646 462.19455 71.71984 439.28406 L 70.72373 439.28406 Z M 37.85214 473.15176 Q 74.70817 508.01556 123.51751 510.00778 L 123.51751 510.00778 L 123.51751 510.00778 Q 171.33073 512 211.1751 479.12842 Q 233.0895 494.07004 254.00778 477.1362 Q 270.94162 456.2179 256 434.3035 L 434.3035 256 L 434.3035 256 Q 456.2179 270.94162 477.1362 254.00778 Q 494.07004 233.0895 479.12842 211.1751 Q 512 171.33073 510.00778 123.51751 Q 508.01556 74.70817 473.15176 36.85603 Q 433.3074 0 382.50583 0 Q 331.70428 0 292.85602 36.85603 L 171.33073 158.38132 L 171.33073 158.38132 Q 149.41634 143.43968 128.49805 160.37354 Q 111.5642 181.29182 126.50584 203.20622 L 37.85214 292.85602 L 37.85214 292.85602 Q 0 331.70428 0 382.50583 Q 0 433.3074 37.85214 473.15176 L 37.85214 473.15176 Z M 350.63034 151.40855 Q 372.54474 149.41634 374.53696 127.501945 Q 372.54474 105.58755 350.63034 103.59533 Q 328.71594 105.58755 326.72372 127.501945 Q 328.71594 149.41634 350.63034 151.40855 L 350.63034 151.40855 Z M 183.28404 318.75485 Q 181.29182 296.84045 159.37743 294.84824 Q 137.46303 296.84045 135.47081 318.75485 Q 137.46303 340.66925 159.37743 342.66147 Q 181.29182 340.66925 183.28404 318.75485 L 183.28404 318.75485 Z" />
</svg>