<svg xmlns="http://www.w3.org/2000/svg" viewBox="0 0 512 512">
  <path d="M 56.88889 128 Q 43.555557 128.88889 42.666668 142.22223 L 42.666668 369.77777 L 42.666668 369.77777 Q 43.555557 383.1111 56.88889 384 L 455.1111 384 L 455.1111 384 Q 468.44446 383.1111 469.33334 369.77777 L 469.33334 142.22223 L 469.33334 142.22223 Q 468.44446 128.88889 455.1111 128 L 56.88889 128 L 56.88889 128 Z M 0 142.22223 Q 0.8888889 118.22222 16.88889 102.22222 L 16.88889 102.22222 L 16.88889 102.22222 Q 32.88889 86.22222 56.88889 85.333336 L 455.1111 85.333336 L 455.1111 85.333336 Q 479.1111 86.22222 495.1111 102.22222 Q 511.1111 118.22222 512 142.22223 L 512 369.77777 L 512 369.77777 Q 511.1111 393.77777 495.1111 409.77777 Q 479.1111 425.77777 455.1111 426.66666 L 56.88889 426.66666 L 56.88889 426.66666 Q 32.88889 425.77777 16.88889 409.77777 Q 0.8888889 393.77777 0 369.77777 L 0 142.22223 L 0 142.22223 Z M 248.88889 270.22223 L 405.33334 270.22223 L 248.88889 270.22223 L 405.33334 270.22223 Q 424.8889 272 426.66666 291.55554 Q 424.8889 311.1111 405.33334 312.8889 L 248.88889 312.8889 L 248.88889 312.8889 Q 229.33333 311.1111 227.55556 291.55554 Q 229.33333 272 248.88889 270.22223 L 248.88889 270.22223 Z M 227.55556 206.22223 Q 229.33333 186.66667 248.88889 184.88889 L 405.33334 184.88889 L 405.33334 184.88889 Q 424.8889 186.66667 426.66666 206.22223 Q 424.8889 225.77777 405.33334 227.55556 L 248.88889 227.55556 L 248.88889 227.55556 Q 229.33333 225.77777 227.55556 206.22223 L 227.55556 206.22223 Z M 160 163.55556 L 160 176 L 160 163.55556 L 160 176 Q 169.77777 177.77777 178.66667 180.44444 Q 193.77777 185.77777 191.11111 201.77777 Q 185.77777 216.88889 169.77777 214.22223 Q 154.66667 210.66667 142.22223 209.77777 Q 130.66667 209.77777 122.666664 214.22223 Q 116.44444 217.77777 117.333336 222.22223 Q 116.44444 224.88889 121.77778 228.44444 Q 129.77777 232.88889 147.55556 238.22223 L 147.55556 238.22223 L 147.55556 238.22223 Q 148.44444 238.22223 148.44444 238.22223 Q 164.44444 242.66667 180.44444 251.55556 Q 200 261.33334 202.66667 288 Q 200.88889 316.44446 180.44444 328 Q 170.66667 334.22223 160 336 L 160 348.44446 L 160 348.44446 Q 158.22223 364.44446 142.22223 366.22223 Q 126.22222 364.44446 124.44444 348.44446 L 124.44444 335.1111 L 124.44444 335.1111 Q 110.22222 332.44446 99.55556 328 L 99.55556 328 L 99.55556 328 L 99.55556 328 L 99.55556 328 Q 96.888885 327.1111 94.22222 326.22223 Q 79.111115 320 82.666664 304 Q 88.888885 288.8889 104.888885 292.44446 Q 106.666664 293.33334 108.44444 293.33334 Q 110.22222 294.22223 112 294.22223 Q 128.88889 301.33334 143.11111 302.22223 Q 154.66667 302.22223 161.77777 297.77777 Q 167.11111 295.1111 167.11111 288.8889 Q 168 285.33334 161.77777 280.8889 Q 153.77777 276.44446 136.88889 272 L 135.11111 271.1111 L 135.11111 271.1111 Q 135.11111 271.1111 135.11111 271.1111 Q 119.111115 267.55554 104 258.66666 Q 84.44444 248.88889 81.77778 223.11111 Q 83.55556 194.66667 104.888885 184 Q 113.77778 178.66667 124.44444 176 L 124.44444 163.55556 L 124.44444 163.55556 Q 126.22222 147.55556 142.22223 145.77777 Q 158.22223 147.55556 160 163.55556 L 160 163.55556 Z" />
</svg>