<svg xmlns="http://www.w3.org/2000/svg" viewBox="0 0 640 448">
    <path d="M 355 90 Q 379 114 411 102 Q 424 96 440 96 Q 471 97 491 117 Q 511 137 512 168 Q 512 174 511 180 Q 509 196 516 210 Q 524 224 539 231 Q 563 242 577 263 Q 592 285 592 312 Q 591 348 568 372 Q 545 397 509 400 Q 508 400 507 400 L 504 400 L 144 400 Q 103 399 76 372 Q 49 345 48 304 Q 48 272 66 248 Q 83 224 112 214 Q 142 201 144 168 L 144 168 L 144 168 L 144 168 Q 145 117 179 83 Q 213 49 264 48 Q 320 50 355 90 L 355 90 Z M 512 448 L 512 448 Q 567 443 603 406 Q 639 368 640 312 Q 639 270 617 237 Q 595 204 559 187 Q 560 178 560 168 Q 559 117 525 83 Q 491 49 440 48 Q 414 48 391 58 Q 368 31 335 16 Q 302 0 264 0 Q 193 2 145 49 Q 98 97 96 168 L 96 168 Q 53 184 27 220 Q 1 256 0 304 Q 2 365 42 406 Q 83 446 144 448 L 464 448 L 504 448 L 512 448 L 512 448 Z M 234 165 L 233 167 Q 228 188 248 197 Q 269 202 279 183 L 279 181 Q 281 176 287 176 L 345 176 Q 359 177 360 191 Q 360 200 352 204 L 308 230 Q 296 237 296 250 L 296 264 Q 298 286 320 288 Q 342 286 344 264 L 376 246 Q 407 227 408 191 Q 407 164 389 146 Q 372 129 345 128 L 287 128 Q 248 130 234 165 L 234 165 Z M 352 352 Q 352 338 343 329 L 343 329 Q 334 320 320 320 Q 306 320 297 329 Q 288 338 288 352 Q 288 366 297 375 Q 306 384 320 384 Q 334 384 343 375 Q 352 366 352 352 L 352 352 Z"/>
</svg>
