<svg xmlns="http://www.w3.org/2000/svg" viewBox="0 0 512 512">
  <path d="M 73.495183044316 12.824662813102119 L 182.9980732177264 0 L 73.495183044316 12.824662813102119 L 182.9980732177264 0 Q 198.78227360308284 0 200.75529865125242 15.784200385356455 L 200.75529865125242 29.595375722543352 L 200.75529865125242 29.595375722543352 Q 199.76878612716763 44.39306358381503 184.97109826589596 45.37957610789981 L 75.46820809248555 45.37957610789981 L 75.46820809248555 45.37957610789981 Q 59.6840077071291 44.39306358381503 58.69749518304432 28.608863198458575 Q 59.6840077071291 14.797687861271676 73.495183044316 11.83815028901734 L 73.495183044316 12.824662813102119 Z M 382.27360308285165 31.56840077071291 Q 417.78805394990366 32.554913294797686 436.53179190751445 63.13680154142582 Q 454.28901734104045 94.70520231213872 436.53179190751445 126.27360308285164 Q 417.78805394990366 156.85549132947978 382.27360308285165 157.84200385356453 Q 346.7591522157996 156.85549132947978 328.0154142581888 126.27360308285164 Q 310.2581888246628 94.70520231213872 328.0154142581888 63.13680154142582 Q 346.7591522157996 32.554913294797686 382.27360308285165 31.56840077071291 L 382.27360308285165 31.56840077071291 Z M 334.92100192678225 252.54720616570327 L 334.92100192678225 268.33140655105973 L 334.92100192678225 252.54720616570327 L 334.92100192678225 268.33140655105973 L 429.626204238921 268.33140655105973 L 429.626204238921 268.33140655105973 L 429.626204238921 252.54720616570327 L 429.626204238921 252.54720616570327 Q 428.6396917148362 237.7495183044316 413.84200385356456 236.76300578034682 L 350.70520231213874 236.76300578034682 L 350.70520231213874 236.76300578034682 Q 335.90751445086704 237.7495183044316 334.92100192678225 252.54720616570327 L 334.92100192678225 252.54720616570327 Z M 287.5684007707129 252.54720616570327 Q 288.5549132947977 225.91136801541427 306.3121387283237 208.15414258188824 L 306.3121387283237 208.15414258188824 L 306.3121387283237 208.15414258188824 Q 324.0693641618497 190.39691714836223 350.70520231213874 189.41040462427745 L 413.84200385356456 189.41040462427745 L 413.84200385356456 189.41040462427745 Q 440.47784200385354 190.39691714836223 458.2350674373796 208.15414258188824 Q 475.9922928709056 225.91136801541427 476.9788053949904 252.54720616570327 L 476.9788053949904 284.11560693641616 L 476.9788053949904 284.11560693641616 Q 476.9788053949904 297.92678227360307 468.10019267822736 306.8053949903661 Q 459.22157996146433 315.68400770712907 445.4104046242775 315.68400770712907 L 319.1368015414258 315.68400770712907 L 319.1368015414258 315.68400770712907 Q 305.3256262042389 315.68400770712907 296.44701348747594 306.8053949903661 Q 287.5684007707129 297.92678227360307 287.5684007707129 284.11560693641616 L 287.5684007707129 252.54720616570327 L 287.5684007707129 252.54720616570327 Z M 68.5626204238921 78.92100192678227 L 190.89017341040463 78.92100192678227 L 68.5626204238921 78.92100192678227 L 190.89017341040463 78.92100192678227 Q 192.86319845857417 86.8131021194605 192.86319845857417 94.70520231213872 Q 191.87668593448942 121.34104046242774 174.11946050096338 139.09826589595374 Q 156.36223506743738 156.85549132947978 129.72639691714835 157.84200385356453 Q 103.09055876685935 156.85549132947978 85.33333333333333 139.09826589595374 Q 67.57610789980733 121.34104046242774 66.58959537572254 94.70520231213872 Q 66.58959537572254 86.8131021194605 68.5626204238921 78.92100192678227 L 68.5626204238921 78.92100192678227 Z M 224.4315992292871 426.1734104046243 Q 224.4315992292871 437.02504816955684 216.53949903660887 443.9306358381503 L 153.40269749518305 499.1753371868979 L 153.40269749518305 499.1753371868979 Q 135.64547206165705 512 119.86127167630057 497.2023121387283 Q 107.03660886319845 479.4450867052023 121.83429672447014 463.6608863198459 L 137.6184971098266 449.84971098265896 L 137.6184971098266 449.84971098265896 L 27.129094412331405 449.84971098265896 L 27.129094412331405 449.84971098265896 Q 5.425818882466281 447.8766859344894 3.4527938342967244 426.1734104046243 Q 5.425818882466281 404.47013487475914 27.129094412331405 402.4971098265896 L 137.6184971098266 402.4971098265896 L 137.6184971098266 402.4971098265896 L 121.83429672447014 388.6859344894027 L 121.83429672447014 388.6859344894027 Q 107.03660886319845 372.9017341040462 119.86127167630057 355.1445086705202 Q 135.64547206165705 340.3468208092485 153.40269749518305 353.17148362235065 L 216.53949903660887 408.4161849710983 L 216.53949903660887 408.4161849710983 Q 224.4315992292871 415.3217726396917 224.4315992292871 426.1734104046243 L 224.4315992292871 426.1734104046243 Z M 295.46050096339115 443.9306358381503 Q 287.5684007707129 437.02504816955684 287.5684007707129 426.1734104046243 Q 287.5684007707129 415.3217726396917 295.46050096339115 408.4161849710983 L 358.597302504817 353.17148362235065 L 358.597302504817 353.17148362235065 Q 376.354527938343 340.3468208092485 392.1387283236994 355.1445086705202 Q 404.96339113680153 372.9017341040462 390.1657032755299 388.6859344894027 L 374.3815028901734 402.4971098265896 L 374.3815028901734 402.4971098265896 L 484.8709055876686 402.4971098265896 L 484.8709055876686 402.4971098265896 Q 506.5741811175337 404.47013487475914 508.5472061657033 426.1734104046243 Q 506.5741811175337 447.8766859344894 484.8709055876686 449.84971098265896 L 374.3815028901734 449.84971098265896 L 374.3815028901734 449.84971098265896 L 390.1657032755299 463.6608863198459 L 390.1657032755299 463.6608863198459 Q 404.96339113680153 479.4450867052023 392.1387283236994 497.2023121387283 Q 376.354527938343 512 358.597302504817 499.1753371868979 L 295.46050096339115 443.9306358381503 L 295.46050096339115 443.9306358381503 Z M 35.02119460500963 252.54720616570327 Q 36.00770712909441 223.9383429672447 55.737957610789984 206.1811175337187 L 197.79576107899808 315.68400770712907 L 197.79576107899808 315.68400770712907 Q 195.8227360308285 315.68400770712907 192.86319845857417 315.68400770712907 L 66.58959537572254 315.68400770712907 L 66.58959537572254 315.68400770712907 Q 52.77842003853564 315.68400770712907 43.89980732177264 306.8053949903661 Q 35.02119460500963 297.92678227360307 35.02119460500963 284.11560693641616 L 35.02119460500963 252.54720616570327 L 35.02119460500963 252.54720616570327 Z M 224.4315992292871 284.11560693641616 Q 224.4315992292871 290.0346820809249 222.45857418111754 294.96724470134876 L 87.30635838150289 190.39691714836223 L 87.30635838150289 190.39691714836223 Q 92.23892100192678 189.41040462427745 98.15799614643545 189.41040462427745 L 161.29479768786126 189.41040462427745 L 161.29479768786126 189.41040462427745 Q 187.9306358381503 190.39691714836223 205.6878612716763 208.15414258188824 Q 223.4450867052023 225.91136801541427 224.4315992292871 252.54720616570327 L 224.4315992292871 284.11560693641616 L 224.4315992292871 284.11560693641616 Z" />
</svg>