<svg xmlns="http://www.w3.org/2000/svg" viewBox="0 0 512 512">
  <path d="M 269.88474 41.654236 Q 256 31.240679 242.11525 41.654236 L 13.016949 236.04068 L 13.016949 236.04068 Q 0 249.05763 11.281356 265.54578 Q 24.298306 278.5627 39.918644 267.28134 L 61.61356 249.92543 L 61.61356 249.92543 L 61.61356 411.3356 L 61.61356 411.3356 Q 62.481358 440.84067 81.57288 460.8 Q 101.5322 479.89154 131.0373 480.7593 L 380.9627 480.7593 L 380.9627 480.7593 Q 410.4678 479.89154 430.42712 460.8 Q 449.51865 440.84067 450.38644 411.3356 L 450.38644 249.92543 L 450.38644 249.92543 L 472.08136 267.28134 L 472.08136 267.28134 Q 487.7017 278.5627 500.71866 265.54578 Q 512 249.05763 498.98306 236.04068 L 450.38644 195.25424 L 450.38644 195.25424 L 450.38644 85.04407 L 450.38644 85.04407 Q 448.65085 65.952545 429.55933 64.21695 Q 410.4678 65.952545 408.7322 85.04407 L 408.7322 159.67458 L 408.7322 159.67458 L 269.88474 41.654236 L 269.88474 41.654236 Z M 408.7322 214.34576 L 408.7322 411.3356 L 408.7322 214.34576 L 408.7322 411.3356 Q 408.7322 423.48474 400.92203 431.29492 Q 393.11188 439.10507 380.9627 439.10507 L 131.0373 439.10507 L 131.0373 439.10507 Q 118.88814 439.10507 111.077965 431.29492 Q 103.2678 423.48474 103.2678 411.3356 L 103.2678 214.34576 L 103.2678 214.34576 L 256 85.04407 L 256 85.04407 L 408.7322 214.34576 L 408.7322 214.34576 Z M 228.23051 286.3729 L 228.23051 230.8339 L 228.23051 286.3729 L 228.23051 230.8339 L 283.7695 230.8339 L 283.7695 230.8339 L 283.7695 286.3729 L 283.7695 286.3729 L 228.23051 286.3729 L 228.23051 286.3729 Z M 186.57628 223.89153 L 186.57628 293.31525 L 186.57628 223.89153 L 186.57628 293.31525 Q 186.57628 308.0678 196.98984 317.61356 Q 206.5356 328.02713 221.28813 328.02713 L 290.71185 328.02713 L 290.71185 328.02713 Q 305.46442 328.02713 315.01016 317.61356 Q 325.42374 308.0678 325.42374 293.31525 L 325.42374 223.89153 L 325.42374 223.89153 Q 325.42374 209.13898 315.01016 199.59322 Q 305.46442 189.17966 290.71185 189.17966 L 221.28813 189.17966 L 221.28813 189.17966 Q 206.5356 189.17966 196.98984 199.59322 Q 186.57628 209.13898 186.57628 223.89153 L 186.57628 223.89153 Z" />
</svg>