<svg xmlns="http://www.w3.org/2000/svg" viewBox="0 0 512 512">
  <path d="M 237.33333 184.88889 L 281.77777 184.88889 L 237.33333 184.88889 L 281.77777 184.88889 L 265.77777 71.111115 L 265.77777 71.111115 L 253.33333 71.111115 L 253.33333 71.111115 L 237.33333 184.88889 L 237.33333 184.88889 Z M 306.66666 53.333332 L 311.1111 85.333336 L 306.66666 53.333332 L 311.1111 85.333336 Q 312 85.333336 312.8889 85.333336 Q 312.8889 85.333336 312.8889 85.333336 L 327.1111 85.333336 L 327.1111 85.333336 L 327.1111 71.111115 L 327.1111 71.111115 Q 328 57.77778 341.33334 56.88889 Q 354.66666 57.77778 355.55554 71.111115 L 355.55554 99.55556 L 355.55554 99.55556 Q 368.8889 100.44444 369.77777 113.77778 Q 368.8889 127.111115 355.55554 128 L 355.55554 156.44444 L 355.55554 156.44444 Q 354.66666 169.77777 341.33334 170.66667 Q 328 169.77777 327.1111 156.44444 L 327.1111 142.22223 L 327.1111 142.22223 L 319.1111 142.22223 L 319.1111 142.22223 L 324.44446 184.88889 L 324.44446 184.88889 L 407.1111 184.88889 L 407.1111 184.88889 Q 437.33334 184.88889 470.22223 200 Q 484.44446 207.11111 497.77777 221.33333 Q 511.1111 234.66667 512 256 Q 511.1111 277.33334 497.77777 291.55554 Q 484.44446 304.8889 470.22223 312 Q 437.33334 327.1111 407.1111 327.1111 L 324.44446 327.1111 L 324.44446 327.1111 L 319.1111 369.77777 L 319.1111 369.77777 L 327.1111 369.77777 L 327.1111 369.77777 L 327.1111 355.55554 L 327.1111 355.55554 Q 328 342.22223 341.33334 341.33334 Q 354.66666 342.22223 355.55554 355.55554 L 355.55554 384 L 355.55554 384 Q 368.8889 384.8889 369.77777 398.22223 Q 368.8889 411.55554 355.55554 412.44446 L 355.55554 440.8889 L 355.55554 440.8889 Q 354.66666 454.22223 341.33334 455.1111 Q 328 454.22223 327.1111 440.8889 L 327.1111 426.66666 L 327.1111 426.66666 L 312.8889 426.66666 L 312.8889 426.66666 Q 312 426.66666 311.1111 426.66666 L 306.66666 458.66666 L 306.66666 458.66666 Q 301.33334 481.77777 278.22223 483.55554 L 240.88889 483.55554 L 240.88889 483.55554 Q 217.77777 481.77777 212.44444 458.66666 L 208 426.66666 L 208 426.66666 L 199.11111 426.66666 L 199.11111 426.66666 Q 186.66667 426.66666 178.66667 418.66666 Q 170.66667 410.66666 170.66667 398.22223 Q 170.66667 385.77777 178.66667 377.77777 Q 186.66667 369.77777 199.11111 369.77777 L 200 369.77777 L 200 369.77777 L 193.77777 323.55554 L 193.77777 323.55554 L 127.111115 315.55554 L 127.111115 315.55554 L 121.77778 345.77777 L 121.77778 345.77777 Q 116.44444 368 93.333336 369.77777 L 63.11111 369.77777 L 63.11111 369.77777 Q 40 368 34.666668 345.77777 L 25.777779 284.44446 L 25.777779 284.44446 Q 14.222222 282.66666 7.111111 274.66666 Q 0 267.55554 0 256 Q 0 244.44444 7.111111 237.33333 Q 14.222222 229.33333 25.777779 227.55556 L 34.666668 167.11111 L 34.666668 167.11111 Q 40 144 63.11111 142.22223 L 93.333336 142.22223 L 93.333336 142.22223 Q 116.44444 144 121.77778 166.22223 L 126.22222 197.33333 L 126.22222 197.33333 L 193.77777 188.44444 L 193.77777 188.44444 L 200 142.22223 L 200 142.22223 L 199.11111 142.22223 L 199.11111 142.22223 Q 186.66667 142.22223 178.66667 134.22223 Q 170.66667 126.22222 170.66667 113.77778 Q 170.66667 101.333336 178.66667 93.333336 Q 186.66667 85.333336 199.11111 85.333336 L 208 85.333336 L 208 85.333336 L 212.44444 53.333332 L 212.44444 53.333332 Q 217.77777 30.222221 240.88889 28.444445 L 278.22223 28.444445 L 278.22223 28.444445 Q 301.33334 30.222221 306.66666 53.333332 L 306.66666 53.333332 Z M 237.33333 327.1111 L 253.33333 440.8889 L 237.33333 327.1111 L 253.33333 440.8889 L 265.77777 440.8889 L 265.77777 440.8889 L 281.77777 327.1111 L 281.77777 327.1111 L 237.33333 327.1111 L 237.33333 327.1111 Z M 407.1111 284.44446 Q 427.55554 284.44446 450.66666 273.77777 Q 472 261.33334 469.33334 256 Q 472 251.55556 450.66666 238.22223 Q 427.55554 227.55556 407.1111 227.55556 L 228.44444 227.55556 L 228.44444 227.55556 L 112 241.77777 L 112 241.77777 Q 92.44444 241.77777 88 224 L 81.77778 184.88889 L 81.77778 184.88889 L 75.55556 184.88889 L 75.55556 184.88889 L 64 256 L 64 256 L 75.55556 327.1111 L 75.55556 327.1111 L 81.77778 327.1111 L 81.77778 327.1111 L 88 288 L 88 288 Q 92.44444 270.22223 112 270.22223 L 228.44444 284.44446 L 228.44444 284.44446 L 407.1111 284.44446 L 407.1111 284.44446 Z" />
</svg>