<svg xmlns="http://www.w3.org/2000/svg" viewBox="0 0 384 512">
    <path d="M 140 464 L 244 464 L 336 146 L 250 48 L 134 48 L 48 146 L 140 464 L 140 464 Z M 12 115 L 103 11 Q 112 0 127 0 L 258 0 Q 272 0 282 11 L 373 115 Q 384 128 384 146 Q 384 152 382 158 L 287 489 Q 279 511 256 512 L 128 512 Q 105 511 97 489 L 2 158 Q 0 152 0 145 Q 0 128 12 115 L 12 115 Z M 216 120 L 216 160 L 264 160 Q 286 162 288 184 Q 286 206 264 208 L 216 208 L 216 328 Q 214 350 192 352 Q 170 350 168 328 L 168 208 L 120 208 Q 98 206 96 184 Q 98 162 120 160 L 168 160 L 168 120 Q 170 98 192 96 Q 214 98 216 120 L 216 120 Z"/>
</svg>
