<svg xmlns="http://www.w3.org/2000/svg" viewBox="0 0 574 505">
    <path d="M 211 54 Q 212 27 235 12 Q 259 0 283 12 Q 306 27 307 54 Q 306 81 283 96 Q 259 108 235 96 Q 212 81 211 54 L 211 54 Z M 444 278 Q 457 279 464 290 L 568 466 Q 574 478 568 490 Q 561 502 547 502 L 291 502 Q 279 502 272 492 Q 265 482 268 470 L 284 422 Q 290 407 307 406 L 342 406 L 363 377 L 26 236 Q 6 226 13 205 Q 23 185 44 192 L 64 200 L 84 164 Q 96 142 116 130 Q 136 118 161 118 L 165 118 Q 205 119 236 141 Q 267 164 279 202 L 312 303 L 391 336 L 423 288 Q 431 278 444 278 L 444 278 Z M 253 279 L 233 216 Q 226 193 207 180 Q 189 166 165 166 L 161 166 Q 138 167 126 187 L 109 219 L 253 279 L 253 279 Z M 442 347 L 375 444 L 368 454 L 505 454 L 442 347 L 442 347 Z M 84 291 L 212 346 Q 226 352 227 368 L 227 478 Q 225 500 203 502 Q 181 500 179 478 L 179 384 L 91 346 L 50 485 Q 42 505 20 501 Q 0 493 4 471 L 52 307 L 60 281 L 85 291 L 84 291 Z"/>
</svg>
