<svg xmlns="http://www.w3.org/2000/svg" viewBox="0 0 512 512">
  <path d="M 115.2 128 Q 116 116 128 115.2 L 460.8 115.2 L 460.8 115.2 Q 472.8 116 473.6 128 L 473.6 158.4 L 473.6 158.4 Q 443.2 179.2 441.6 217.6 Q 443.2 256 473.6 276.8 L 473.6 307.2 L 473.6 307.2 Q 472.8 319.2 460.8 320 L 128 320 L 128 320 Q 116 319.2 115.2 307.2 L 115.2 276.8 L 115.2 276.8 Q 145.6 256 147.2 217.6 Q 145.6 179.2 115.2 158.4 L 115.2 128 L 115.2 128 Z M 76.8 128 L 76.8 172.8 L 76.8 128 L 76.8 172.8 Q 78.4 184 89.6 188 Q 108 196.8 108.8 217.6 Q 108 238.4 89.6 247.2 Q 78.4 251.2 76.8 262.4 L 76.8 307.2 L 76.8 307.2 Q 77.6 328.8 92 343.2 Q 106.4 357.6 128 358.4 L 460.8 358.4 L 460.8 358.4 Q 482.4 357.6 496.8 343.2 Q 511.2 328.8 512 307.2 L 512 262.4 L 512 262.4 Q 510.4 251.2 499.2 247.2 Q 480.8 238.4 480 217.6 Q 480.8 196.8 499.2 188 Q 510.4 184 512 172.8 L 512 128 L 512 128 Q 511.2 106.4 496.8 92 Q 482.4 77.6 460.8 76.8 L 128 76.8 L 128 76.8 Q 106.4 77.6 92 92 Q 77.6 106.4 76.8 128 L 76.8 128 Z M 38.4 147.2 Q 36.8 129.6 19.2 128 Q 1.6 129.6 0 147.2 L 0 339.2 L 0 339.2 Q 0.8 380 28 407.2 Q 55.2 434.4 96 435.2 L 416 435.2 L 416 435.2 Q 433.6 433.6 435.2 416 Q 433.6 398.4 416 396.8 L 96 396.8 L 96 396.8 Q 71.2 396 55.2 380 Q 39.2 364 38.4 339.2 L 38.4 147.2 L 38.4 147.2 Z" />
</svg>