<svg xmlns="http://www.w3.org/2000/svg" viewBox="0 0 640 512">
    <path d="M 592 128 Q 591 83 552 59 Q 512 37 472 59 Q 433 83 432 128 Q 433 173 472 197 Q 512 219 552 197 Q 591 173 592 128 L 592 128 Z M 640 128 Q 639 182 603 219 L 603 219 Q 566 255 512 256 Q 464 255 430 226 Q 396 197 386 152 L 304 152 L 304 200 Q 302 222 280 224 Q 258 222 256 200 L 256 152 L 208 152 L 208 200 Q 206 222 184 224 Q 162 222 160 200 L 160 128 Q 162 106 184 104 L 386 104 Q 396 59 430 30 Q 464 1 512 0 Q 566 1 603 37 Q 639 74 640 128 L 640 128 Z M 48 384 Q 49 429 88 453 Q 128 475 168 453 Q 207 429 208 384 Q 207 339 168 315 Q 128 293 88 315 Q 49 339 48 384 L 48 384 Z M 0 384 Q 1 330 37 293 L 37 293 Q 74 257 128 256 Q 176 257 210 286 Q 244 315 254 360 L 336 360 L 336 312 Q 338 290 360 288 Q 382 290 384 312 L 384 360 L 432 360 L 432 312 Q 434 290 456 288 Q 478 290 480 312 L 480 384 Q 478 406 456 408 L 254 408 Q 244 453 210 482 Q 176 511 128 512 Q 74 511 37 475 Q 1 438 0 384 L 0 384 Z"/>
</svg>
