<svg xmlns="http://www.w3.org/2000/svg" viewBox="0 0 512 512">
  <path d="M 232.09338 3.9844358 Q 239.06615 0 247.03502 3.9844358 L 278.9105 19.922178 L 278.9105 19.922178 Q 287.8755 23.906614 287.8755 33.867702 L 287.8755 270.94162 L 287.8755 270.94162 Q 273.92996 272.93384 256 272.93384 Q 238.07004 272.93384 224.12451 270.94162 L 224.12451 208.18677 L 224.12451 208.18677 L 224.12451 208.18677 L 224.12451 208.18677 L 224.12451 17.92996 L 224.12451 17.92996 Q 224.12451 8.96498 232.09338 3.9844358 L 232.09338 3.9844358 Z M 192.24902 261.97665 Q 185.27626 258.9883 180.29572 255.00389 Q 163.36186 242.05447 162.36575 231.09727 Q 161.36964 230.10117 161.36964 229.10506 Q 161.36964 229.10506 160.37354 228.10895 L 128.49805 36.85603 L 128.49805 36.85603 Q 127.501945 24.902723 137.46303 19.922178 L 169.33852 3.9844358 L 169.33852 3.9844358 Q 176.31128 0 183.28404 3.9844358 Q 190.2568 7.9688716 192.24902 14.941634 L 192.24902 16.933851 L 192.24902 16.933851 L 192.24902 261.97665 L 192.24902 261.97665 Z M 122.5214 194.24124 Q 117.540855 193.24513 112.56031 193.24513 L 85.66537 193.24513 L 85.66537 193.24513 Q 83.67315 193.24513 81.68093 193.24513 L 64.74708 100.607 L 64.74708 100.607 Q 63.750973 91.64202 69.72762 85.66537 Q 76.700386 80.68482 84.66926 82.67704 L 104.59144 87.657585 L 104.59144 87.657585 L 122.5214 194.24124 L 122.5214 194.24124 Z M 430.31906 193.24513 Q 430.31906 193.24513 430.31906 193.24513 L 430.31906 193.24513 L 430.31906 193.24513 Q 428.32684 193.24513 426.33463 193.24513 L 399.4397 193.24513 L 399.4397 193.24513 Q 394.45914 193.24513 390.4747 194.24124 L 409.4008 86.661476 L 409.4008 86.661476 L 427.33075 82.67704 L 427.33075 82.67704 Q 435.29962 80.68482 442.27237 85.66537 Q 448.24902 91.64202 447.25293 100.607 L 430.31906 193.24513 L 430.31906 193.24513 Z M 352.62256 224.12451 Q 351.62646 228.10895 350.63034 231.09727 Q 348.63812 242.05447 331.70428 255.00389 Q 326.72372 258.9883 319.75098 261.97665 L 319.75098 56.77821 L 319.75098 56.77821 L 319.75098 54.78599 L 319.75098 54.78599 Q 321.7432 44.8249 331.70428 42.832684 L 363.57977 34.86381 L 363.57977 34.86381 Q 371.54865 32.871593 378.5214 37.85214 Q 384.49805 43.828793 383.50195 52.793774 L 352.62256 224.12451 L 352.62256 224.12451 Z M 112.56031 225.12062 Q 126.50584 226.11673 131.48637 241.05836 Q 135.47081 259.98444 162.36575 281.89883 Q 189.2607 302.8171 256 304.80933 Q 322.7393 302.8171 349.63425 281.89883 Q 376.52917 259.98444 380.5136 241.05836 Q 385.49417 227.11284 399.4397 225.12062 L 426.33463 225.12062 L 426.33463 225.12062 Q 445.2607 227.11284 447.25293 246.03891 Q 447.25293 249.02724 446.2568 252.01556 L 389.4786 488.09338 L 389.4786 488.09338 Q 382.50583 511.0039 358.5992 512 L 153.40077 512 L 153.40077 512 Q 129.49416 511.0039 122.5214 488.09338 L 65.74319 252.01556 L 65.74319 252.01556 Q 64.74708 249.02724 64.74708 246.03891 Q 66.739296 227.11284 85.66537 225.12062 L 112.56031 225.12062 L 112.56031 225.12062 Z M 381.50974 317.75876 Q 379.51752 318.75485 377.5253 320.74707 Q 334.6926 351.62646 256 352.62256 Q 177.30739 351.62646 134.4747 320.74707 Q 133.47859 319.75098 132.48248 318.75485 Q 131.48637 317.75876 130.49026 317.75876 L 166.35019 464.18677 L 166.35019 464.18677 L 345.6498 464.18677 L 345.6498 464.18677 L 381.50974 317.75876 L 381.50974 317.75876 Z" />
</svg>