<svg xmlns="http://www.w3.org/2000/svg" viewBox="0 0 512 512">
  <path d="M 170.66666666666666 106.66666666666667 Q 171.55555555555554 73.77777777777777 193.77777777777777 51.55555555555556 L 193.77777777777777 51.55555555555556 L 193.77777777777777 51.55555555555556 Q 216 29.333333333333332 248.88888888888889 28.444444444444443 L 469.3333333333333 28.444444444444443 L 469.3333333333333 28.444444444444443 Q 487.1111111111111 29.333333333333332 499.55555555555554 40.888888888888886 Q 511.1111111111111 53.333333333333336 512 71.11111111111111 L 512 170.66666666666666 L 512 170.66666666666666 L 512 256 L 512 256 Q 510.22222222222223 285.3333333333333 483.55555555555554 296 L 483.55555555555554 355.55555555555554 L 483.55555555555554 355.55555555555554 L 490.6666666666667 355.55555555555554 L 490.6666666666667 355.55555555555554 Q 510.22222222222223 357.3333333333333 512 376.8888888888889 Q 510.22222222222223 396.44444444444446 490.6666666666667 398.22222222222223 L 462.22222222222223 398.22222222222223 L 241.77777777777777 398.22222222222223 Q 211.55555555555554 397.3333333333333 191.11111111111111 377.77777777777777 Q 171.55555555555554 357.3333333333333 170.66666666666666 327.1111111111111 L 170.66666666666666 106.66666666666667 L 170.66666666666666 106.66666666666667 Z M 469.3333333333333 71.11111111111111 L 248.88888888888889 71.11111111111111 L 469.3333333333333 71.11111111111111 L 248.88888888888889 71.11111111111111 Q 233.77777777777777 71.11111111111111 224 81.77777777777777 Q 213.33333333333334 91.55555555555556 213.33333333333334 106.66666666666667 L 213.33333333333334 262.22222222222223 L 213.33333333333334 262.22222222222223 Q 226.66666666666666 256 241.77777777777777 256 L 462.22222222222223 256 L 469.3333333333333 256 L 469.3333333333333 170.66666666666666 L 469.3333333333333 170.66666666666666 L 469.3333333333333 71.11111111111111 L 469.3333333333333 71.11111111111111 Z M 241.77777777777777 298.6666666666667 Q 229.33333333333334 298.6666666666667 221.33333333333334 306.6666666666667 L 221.33333333333334 306.6666666666667 L 221.33333333333334 306.6666666666667 Q 213.33333333333334 314.6666666666667 213.33333333333334 327.1111111111111 Q 213.33333333333334 339.55555555555554 221.33333333333334 347.55555555555554 Q 229.33333333333334 355.55555555555554 241.77777777777777 355.55555555555554 L 440.8888888888889 355.55555555555554 L 440.8888888888889 355.55555555555554 L 440.8888888888889 298.6666666666667 L 440.8888888888889 298.6666666666667 L 241.77777777777777 298.6666666666667 L 241.77777777777777 298.6666666666667 Z M 142.22222222222223 113.77777777777777 L 142.22222222222223 156.44444444444446 L 142.22222222222223 113.77777777777777 L 142.22222222222223 156.44444444444446 L 78.22222222222223 156.44444444444446 L 78.22222222222223 156.44444444444446 Q 63.111111111111114 156.44444444444446 53.333333333333336 167.11111111111111 Q 42.666666666666664 176.88888888888889 42.666666666666664 192 L 42.666666666666664 347.55555555555554 L 42.666666666666664 347.55555555555554 Q 56 341.3333333333333 71.11111111111111 341.3333333333333 L 143.11111111111111 341.3333333333333 L 143.11111111111111 341.3333333333333 Q 146.66666666666666 365.3333333333333 160 384 L 71.11111111111111 384 L 71.11111111111111 384 Q 58.666666666666664 384 50.666666666666664 392 Q 42.666666666666664 400 42.666666666666664 412.44444444444446 Q 42.666666666666664 424.8888888888889 50.666666666666664 432.8888888888889 Q 58.666666666666664 440.8888888888889 71.11111111111111 440.8888888888889 L 270.22222222222223 440.8888888888889 L 270.22222222222223 440.8888888888889 L 270.22222222222223 426.6666666666667 L 270.22222222222223 426.6666666666667 L 312.8888888888889 426.6666666666667 L 312.8888888888889 426.6666666666667 L 312.8888888888889 440.8888888888889 L 312.8888888888889 440.8888888888889 L 320 440.8888888888889 L 320 440.8888888888889 Q 339.55555555555554 442.6666666666667 341.3333333333333 462.22222222222223 Q 339.55555555555554 481.77777777777777 320 483.55555555555554 L 291.55555555555554 483.55555555555554 L 71.11111111111111 483.55555555555554 Q 40.888888888888886 482.6666666666667 20.444444444444443 463.1111111111111 Q 0.8888888888888888 442.6666666666667 0 412.44444444444446 L 0 192 L 0 192 Q 0.8888888888888888 159.11111111111111 23.11111111111111 136.88888888888889 Q 45.333333333333336 114.66666666666667 78.22222222222223 113.77777777777777 L 142.22222222222223 113.77777777777777 L 142.22222222222223 113.77777777777777 Z" />
</svg>