<svg xmlns="http://www.w3.org/2000/svg" viewBox="0 0 512 512">
  <path d="M 186.4 140.8 Q 145.6 141.6 116.8 169.6 Q 98.4 187.2 75.2 188 Q 52 188 32.8 172 L 32 171.2 L 32 171.2 Q 28.8 168 24.8 167.2 Q 23.2 167.2 21.6 166.4 Q 20 166.4 18.4 166.4 Q 14.4 166.4 10.4 168 Q 8 169.6 5.6 172 Q 0 176.8 0 185.6 L 0 212.8 L 0 212.8 Q 1.6 280 46.4 324.8 Q 91.2 369.6 158.4 371.2 Q 211.2 370.4 253.6 339.2 L 256 337.6 L 256 337.6 L 258.4 339.2 L 258.4 339.2 Q 300.8 370.4 353.6 371.2 Q 420.8 369.6 465.6 324.8 Q 510.4 280 512 212.8 L 512 185.6 L 512 185.6 Q 512 176.8 506.4 172 Q 500.8 166.4 492.8 166.4 Q 492.8 166.4 492.8 166.4 Q 492 166.4 492 166.4 Q 488.8 166.4 486.4 167.2 Q 483.2 168.8 480 171.2 L 479.2 172 L 479.2 172 Q 460 188 436.8 187.2 Q 413.6 187.2 395.2 169.6 Q 366.4 141.6 325.6 140.8 L 324 140.8 L 324 140.8 Q 288 140.8 259.2 164.8 L 256 167.2 L 256 167.2 L 252.8 164.8 L 252.8 164.8 Q 224.8 141.6 188 140.8 L 187.2 140.8 L 186.4 140.8 Z M 473.6 220 Q 469.6 268 436 300 L 436 300 L 436 300 Q 402.4 332 353.6 332.8 Q 313.6 332.8 281.6 308.8 L 267.2 298.4 L 267.2 298.4 Q 256 290.4 244.8 298.4 L 230.4 308.8 L 230.4 308.8 Q 198.4 332.8 158.4 332.8 Q 109.6 332 76 300 Q 42.4 268 38.4 220 Q 65.6 229.6 93.6 224 Q 121.6 218.4 144 196.8 Q 161.6 179.2 186.4 179.2 L 188 179.2 L 188 179.2 Q 210.4 179.2 228 193.6 L 243.2 206.4 L 243.2 206.4 Q 256 216 268 206.4 L 283.2 193.6 L 283.2 193.6 Q 301.6 179.2 324 179.2 L 324.8 179.2 L 324.8 179.2 Q 350.4 179.2 368 196.8 Q 389.6 218.4 417.6 224 Q 446.4 229.6 473.6 220 L 473.6 220 Z" />
</svg>