<svg xmlns="http://www.w3.org/2000/svg" viewBox="0 0 512 512">
  <path d="M 80 448 Q 81 463 96 464 L 416 464 L 416 464 Q 431 463 432 448 L 432 368 L 432 368 L 80 368 L 80 368 L 80 448 L 80 448 Z M 80 320 L 432 320 L 80 320 L 432 320 L 432 64 L 432 64 Q 431 49 416 48 L 96 48 L 96 48 Q 81 49 80 64 L 80 320 L 80 320 Z M 32 64 Q 33 37 51 19 L 51 19 L 51 19 Q 69 1 96 0 L 416 0 L 416 0 Q 443 1 461 19 Q 479 37 480 64 L 480 448 L 480 448 Q 479 475 461 493 Q 443 511 416 512 L 96 512 L 96 512 Q 69 511 51 493 Q 33 475 32 448 L 32 64 L 32 64 Z M 224 400 L 288 400 L 224 400 L 288 400 Q 303 401 304 416 Q 303 431 288 432 L 224 432 L 224 432 Q 209 431 208 416 Q 209 401 224 400 L 224 400 Z" />
</svg>