<svg xmlns="http://www.w3.org/2000/svg" viewBox="0 0 512 448">
    <path d="M 88 0 Q 51 1 26 26 L 26 26 Q 1 51 0 88 L 0 360 Q 1 397 26 422 Q 51 447 88 448 L 424 448 Q 461 447 486 422 Q 511 397 512 360 L 512 184 Q 511 147 486 122 Q 461 97 424 96 L 120 96 Q 98 98 96 120 Q 98 142 120 144 L 424 144 Q 441 144 452 156 Q 464 167 464 184 L 464 360 Q 464 377 452 388 Q 441 400 424 400 L 88 400 Q 71 400 60 388 Q 48 377 48 360 L 48 88 Q 48 71 60 60 Q 71 48 88 48 L 456 48 Q 478 46 480 24 Q 478 2 456 0 L 88 0 L 88 0 Z M 384 304 Q 398 304 407 295 L 407 295 Q 416 286 416 272 Q 416 258 407 249 Q 398 240 384 240 Q 370 240 361 249 Q 352 258 352 272 Q 352 286 361 295 Q 370 304 384 304 L 384 304 Z"/>
</svg>
