<svg xmlns="http://www.w3.org/2000/svg" viewBox="0 0 512 512">
  <path d="M 51 249 L 249 51 L 51 249 L 249 51 Q 252 48 256 48 Q 260 48 263 51 L 461 249 L 461 249 Q 464 252 464 256 Q 464 260 461 263 L 263 461 L 263 461 Q 260 464 256 464 Q 252 464 249 461 L 51 263 L 51 263 Q 48 260 48 256 Q 48 252 51 249 L 51 249 Z M 215 17 L 17 215 L 215 17 L 17 215 Q 0 232 0 256 Q 0 280 17 297 L 215 495 L 215 495 Q 232 512 256 512 Q 280 512 297 495 L 495 297 L 495 297 Q 512 280 512 256 Q 512 232 495 215 L 297 17 L 297 17 Q 280 0 256 0 Q 232 0 215 17 L 215 17 Z M 315 149 Q 308 142 298 145 Q 289 150 288 160 L 288 200 L 288 200 L 240 200 L 240 200 Q 213 201 195 219 Q 177 237 176 264 L 176 312 L 176 312 Q 178 334 200 336 Q 222 334 224 312 L 224 264 L 224 264 Q 225 249 240 248 L 288 248 L 288 248 L 288 288 L 288 288 Q 288 298 298 303 Q 308 306 315 299 L 379 235 L 379 235 Q 389 224 379 213 L 315 149 L 315 149 Z" />
</svg>