<svg xmlns="http://www.w3.org/2000/svg" viewBox="0 0 512 512">
  <path d="M 73.14285714285714 54.857142857142854 Q 56 56 54.857142857142854 73.14285714285714 L 54.857142857142854 438.85714285714283 L 54.857142857142854 438.85714285714283 Q 56 456 73.14285714285714 457.14285714285717 L 438.85714285714283 457.14285714285717 L 438.85714285714283 457.14285714285717 Q 456 456 457.14285714285717 438.85714285714283 L 457.14285714285717 73.14285714285714 L 457.14285714285717 73.14285714285714 Q 456 56 438.85714285714283 54.857142857142854 L 73.14285714285714 54.857142857142854 L 73.14285714285714 54.857142857142854 Z M 0 73.14285714285714 Q 1.1428571428571428 42.285714285714285 21.714285714285715 21.714285714285715 L 21.714285714285715 21.714285714285715 L 21.714285714285715 21.714285714285715 Q 42.285714285714285 1.1428571428571428 73.14285714285714 0 L 438.85714285714283 0 L 438.85714285714283 0 Q 469.7142857142857 1.1428571428571428 490.2857142857143 21.714285714285715 Q 510.85714285714283 42.285714285714285 512 73.14285714285714 L 512 438.85714285714283 L 512 438.85714285714283 Q 510.85714285714283 469.7142857142857 490.2857142857143 490.2857142857143 Q 469.7142857142857 510.85714285714283 438.85714285714283 512 L 73.14285714285714 512 L 73.14285714285714 512 Q 42.285714285714285 510.85714285714283 21.714285714285715 490.2857142857143 Q 1.1428571428571428 469.7142857142857 0 438.85714285714283 L 0 73.14285714285714 L 0 73.14285714285714 Z M 109.71428571428571 146.28571428571428 Q 109.71428571428571 130.28571428571428 120 120 L 120 120 L 120 120 Q 130.28571428571428 109.71428571428571 146.28571428571428 109.71428571428571 Q 162.28571428571428 109.71428571428571 172.57142857142858 120 Q 182.85714285714286 130.28571428571428 182.85714285714286 146.28571428571428 Q 182.85714285714286 162.28571428571428 172.57142857142858 172.57142857142858 Q 162.28571428571428 182.85714285714286 146.28571428571428 182.85714285714286 Q 130.28571428571428 182.85714285714286 120 172.57142857142858 Q 109.71428571428571 162.28571428571428 109.71428571428571 146.28571428571428 L 109.71428571428571 146.28571428571428 Z M 109.71428571428571 256 Q 109.71428571428571 240 120 229.71428571428572 L 120 229.71428571428572 L 120 229.71428571428572 Q 130.28571428571428 219.42857142857142 146.28571428571428 219.42857142857142 Q 162.28571428571428 219.42857142857142 172.57142857142858 229.71428571428572 Q 182.85714285714286 240 182.85714285714286 256 Q 182.85714285714286 272 172.57142857142858 282.2857142857143 Q 162.28571428571428 292.57142857142856 146.28571428571428 292.57142857142856 Q 130.28571428571428 292.57142857142856 120 282.2857142857143 Q 109.71428571428571 272 109.71428571428571 256 L 109.71428571428571 256 Z M 146.28571428571428 329.14285714285717 Q 162.28571428571428 329.14285714285717 172.57142857142858 339.42857142857144 L 172.57142857142858 339.42857142857144 L 172.57142857142858 339.42857142857144 Q 182.85714285714286 349.7142857142857 182.85714285714286 365.7142857142857 Q 182.85714285714286 381.7142857142857 172.57142857142858 392 Q 162.28571428571428 402.2857142857143 146.28571428571428 402.2857142857143 Q 130.28571428571428 402.2857142857143 120 392 Q 109.71428571428571 381.7142857142857 109.71428571428571 365.7142857142857 Q 109.71428571428571 349.7142857142857 120 339.42857142857144 Q 130.28571428571428 329.14285714285717 146.28571428571428 329.14285714285717 L 146.28571428571428 329.14285714285717 Z M 329.14285714285717 146.28571428571428 Q 329.14285714285717 130.28571428571428 339.42857142857144 120 L 339.42857142857144 120 L 339.42857142857144 120 Q 349.7142857142857 109.71428571428571 365.7142857142857 109.71428571428571 Q 381.7142857142857 109.71428571428571 392 120 Q 402.2857142857143 130.28571428571428 402.2857142857143 146.28571428571428 Q 402.2857142857143 162.28571428571428 392 172.57142857142858 Q 381.7142857142857 182.85714285714286 365.7142857142857 182.85714285714286 Q 349.7142857142857 182.85714285714286 339.42857142857144 172.57142857142858 Q 329.14285714285717 162.28571428571428 329.14285714285717 146.28571428571428 L 329.14285714285717 146.28571428571428 Z M 365.7142857142857 219.42857142857142 Q 381.7142857142857 219.42857142857142 392 229.71428571428572 L 392 229.71428571428572 L 392 229.71428571428572 Q 402.2857142857143 240 402.2857142857143 256 Q 402.2857142857143 272 392 282.2857142857143 Q 381.7142857142857 292.57142857142856 365.7142857142857 292.57142857142856 Q 349.7142857142857 292.57142857142856 339.42857142857144 282.2857142857143 Q 329.14285714285717 272 329.14285714285717 256 Q 329.14285714285717 240 339.42857142857144 229.71428571428572 Q 349.7142857142857 219.42857142857142 365.7142857142857 219.42857142857142 L 365.7142857142857 219.42857142857142 Z M 329.14285714285717 365.7142857142857 Q 329.14285714285717 349.7142857142857 339.42857142857144 339.42857142857144 L 339.42857142857144 339.42857142857144 L 339.42857142857144 339.42857142857144 Q 349.7142857142857 329.14285714285717 365.7142857142857 329.14285714285717 Q 381.7142857142857 329.14285714285717 392 339.42857142857144 Q 402.2857142857143 349.7142857142857 402.2857142857143 365.7142857142857 Q 402.2857142857143 381.7142857142857 392 392 Q 381.7142857142857 402.2857142857143 365.7142857142857 402.2857142857143 Q 349.7142857142857 402.2857142857143 339.42857142857144 392 Q 329.14285714285717 381.7142857142857 329.14285714285717 365.7142857142857 L 329.14285714285717 365.7142857142857 Z" />
</svg>