<svg xmlns="http://www.w3.org/2000/svg" viewBox="0 0 512 512">
  <path d="M 184 512 Q 157 511 139 493 L 139 493 L 139 493 Q 121 475 120 448 L 120 259 L 120 259 Q 112 254 105 247 L 85 229 L 85 229 Q 57 202 56 164 L 56 154 L 56 154 Q 56 112 76 78 Q 96 43 131 22 L 134 21 L 134 21 Q 170 0 211 0 L 336 0 L 336 0 Q 387 1 421 35 Q 455 69 456 120 L 456 128 L 456 128 L 456 224 L 456 224 Q 455 251 437 269 Q 419 287 392 288 Q 388 288 384 288 Q 366 318 328 320 Q 320 320 313 318 Q 295 350 256 352 Q 252 352 248 352 L 248 448 L 248 448 Q 247 475 229 493 Q 211 511 184 512 L 184 512 Z M 168 448 Q 169 463 184 464 Q 199 463 200 448 L 200 312 L 200 312 Q 201 295 216 289 Q 232 285 243 298 Q 248 304 256 304 Q 271 302 272 288 L 272 280 L 272 280 Q 273 263 288 257 Q 305 253 315 265 Q 320 272 328 272 Q 343 270 344 256 Q 345 241 357 234 Q 371 228 382 237 Q 387 240 392 240 Q 407 238 408 224 L 408 128 L 408 128 L 408 120 L 408 120 Q 407 89 387 69 Q 367 49 336 48 L 211 48 L 211 48 Q 183 48 158 62 L 147 42 L 147 42 L 158 62 L 158 62 L 156 64 L 156 64 Q 131 78 118 102 Q 104 125 104 154 L 104 164 L 104 164 Q 104 181 117 193 L 136 211 L 136 211 L 136 168 L 136 168 Q 137 153 152 152 Q 167 153 168 168 L 168 246 L 168 246 L 168 248 L 168 248 L 168 448 L 168 448 Z" />
</svg>