<svg xmlns="http://www.w3.org/2000/svg" viewBox="0 0 512 512">
  <path d="M 246.10819165378672 60.53786707882535 Q 233.4466769706337 51.041731066460585 220.7851622874807 60.53786707882535 L 11.870170015455951 237.79907264296753 L 11.870170015455951 237.79907264296753 Q 0 249.66924265842349 10.287480680061824 264.7047913446677 Q 22.157650695517773 276.57496136012367 36.40185471406492 266.28748068006183 L 56.1854714064915 250.46058732612056 L 56.1854714064915 250.46058732612056 L 56.1854714064915 397.65069551777435 L 56.1854714064915 397.65069551777435 Q 56.97681607418856 424.5564142194745 74.38639876352396 442.757341576507 Q 92.58732612055641 460.16692426584234 119.49304482225656 460.9582689335394 L 318.1205564142195 460.9582689335394 L 318.1205564142195 460.9582689335394 Q 295.9629057187017 445.13137557959817 281.71870170015455 422.97372488408035 L 271.4312210200927 422.97372488408035 L 271.4312210200927 422.97372488408035 L 271.4312210200927 422.97372488408035 L 271.4312210200927 422.97372488408035 L 195.46213292117466 422.97372488408035 L 195.46213292117466 422.97372488408035 L 195.46213292117466 309.02009273570326 L 195.46213292117466 309.02009273570326 L 264.3091190108192 309.02009273570326 L 264.3091190108192 309.02009273570326 Q 269.8485316846986 288.4451313755796 280.9273570324575 271.0355486862442 Q 279.34466769706336 271.0355486862442 277.76197836166926 271.0355486862442 Q 277.76197836166926 271.0355486862442 277.76197836166926 271.0355486862442 L 189.13137557959814 271.0355486862442 L 189.13137557959814 271.0355486862442 Q 175.67851622874807 271.0355486862442 166.97372488408038 280.53168469860896 Q 157.4775888717156 289.23647604327664 157.4775888717156 302.6893353941267 L 157.4775888717156 422.97372488408035 L 157.4775888717156 422.97372488408035 L 119.49304482225656 422.97372488408035 L 119.49304482225656 422.97372488408035 Q 108.41421947449768 422.97372488408035 101.29211746522411 415.8516228748068 Q 94.17001545595055 408.72952086553323 94.17001545595055 397.65069551777435 L 94.17001545595055 218.01545595054097 L 94.17001545595055 218.01545595054097 L 233.4466769706337 100.10510046367851 L 233.4466769706337 100.10510046367851 L 365.60123647604325 211.68469860896445 L 365.60123647604325 211.68469860896445 Q 381.4281298299845 207.72797527047913 398.04636785162285 207.72797527047913 Q 409.91653786707883 207.72797527047913 421.78670788253476 210.10200927357033 L 246.10819165378672 60.53786707882535 L 246.10819165378672 60.53786707882535 Z M 398.04636785162285 460.9582689335394 Q 428.90880989180835 460.9582689335394 455.02318392581145 445.9227202472952 L 455.02318392581145 445.9227202472952 L 455.02318392581145 445.9227202472952 Q 481.1375579598145 430.887171561051 496.9644513137558 403.98145285935084 Q 512 377.0757341576507 512 347.0046367851623 Q 512 316.9335394126739 496.9644513137558 290.02782071097374 Q 481.1375579598145 263.1221020092736 455.02318392581145 248.08655332302936 Q 428.90880989180835 233.05100463678517 398.04636785162285 233.05100463678517 Q 367.1839258114374 233.05100463678517 341.0695517774343 248.08655332302936 Q 314.9551777434312 263.1221020092736 299.12828438949 290.02782071097374 Q 284.09273570324575 316.9335394126739 284.09273570324575 347.0046367851623 Q 284.09273570324575 377.0757341576507 299.12828438949 403.98145285935084 Q 314.9551777434312 430.887171561051 341.0695517774343 445.9227202472952 Q 367.1839258114374 460.9582689335394 398.04636785162285 460.9582689335394 L 398.04636785162285 460.9582689335394 Z M 416.2472952086553 347.0046367851623 L 444.7357032457496 376.28438948995364 L 416.2472952086553 347.0046367851623 L 444.7357032457496 376.28438948995364 Q 452.64914992272026 384.9891808346213 444.7357032457496 393.693972179289 Q 436.03091190108194 401.60741885625964 427.3261205564142 393.693972179289 L 398.04636785162285 365.20556414219476 L 398.04636785162285 365.20556414219476 L 368.76661514683155 393.693972179289 L 368.76661514683155 393.693972179289 Q 360.0618238021638 401.60741885625964 351.35703245749613 393.693972179289 Q 343.4435857805255 384.9891808346213 351.35703245749613 376.28438948995364 L 379.84544049459043 347.0046367851623 L 379.84544049459043 347.0046367851623 L 351.35703245749613 317.72488408037094 L 351.35703245749613 317.72488408037094 Q 343.4435857805255 309.02009273570326 351.35703245749613 300.3153013910356 Q 360.0618238021638 292.40185471406494 368.76661514683155 300.3153013910356 L 398.04636785162285 328.8037094281298 L 398.04636785162285 328.8037094281298 L 427.3261205564142 300.3153013910356 L 427.3261205564142 300.3153013910356 Q 436.03091190108194 292.40185471406494 444.7357032457496 300.3153013910356 Q 452.64914992272026 309.02009273570326 444.7357032457496 317.72488408037094 L 416.2472952086553 347.0046367851623 L 416.2472952086553 347.0046367851623 Z" />
</svg>