<svg xmlns="http://www.w3.org/2000/svg" viewBox="0 0 644 522">
    <path d="M 378 38 Q 317 40 284 55 Q 250 51 190 60 Q 122 72 90 89 Q 59 106 51 117 L 79 278 Q 87 322 115 345 Q 146 371 186 391 Q 201 399 214 402 Q 217 407 220 412 Q 232 431 249 454 Q 204 456 160 432 Q 116 409 84 382 Q 40 344 31 286 L 3 122 Q 0 107 8 94 Q 17 77 57 53 Q 96 28 182 13 Q 268 0 313 11 Q 359 21 374 34 Q 376 36 378 38 L 378 38 Z M 196 288 Q 173 297 154 313 Q 148 316 143 314 Q 138 312 138 306 Q 143 279 160 259 Q 178 239 205 232 L 197 281 Q 196 285 196 288 L 196 288 Z M 179 160 Q 187 155 191 163 Q 191 163 191 164 Q 191 164 191 164 Q 194 181 184 194 Q 175 207 158 210 Q 141 213 127 203 Q 114 194 111 178 Q 111 177 111 176 Q 112 167 121 169 Q 135 173 151 171 Q 167 168 179 160 L 179 160 Z M 387 517 Q 342 507 306 470 L 306 470 Q 270 432 247 395 Q 218 344 229 287 L 257 123 Q 259 108 270 98 Q 285 85 331 75 Q 376 64 462 77 Q 548 93 587 117 Q 627 141 637 158 Q 644 171 641 186 L 613 350 Q 604 408 560 446 Q 526 475 480 498 Q 433 522 387 517 L 387 517 Z M 340 436 Q 372 466 395 470 Q 419 474 458 455 Q 498 435 529 409 Q 557 386 565 342 L 593 181 Q 585 170 554 153 Q 522 136 454 124 Q 386 114 350 120 Q 315 126 304 133 L 277 295 Q 269 339 289 370 Q 310 405 340 436 L 340 436 Z M 397 243 Q 385 234 370 231 Q 354 229 340 233 Q 330 235 330 226 Q 330 225 330 225 Q 333 208 346 199 Q 359 190 377 192 Q 394 195 403 208 Q 412 221 410 238 Q 410 238 410 239 Q 410 239 410 239 Q 406 247 398 242 L 397 243 Z M 538 260 Q 534 268 526 264 Q 514 255 498 252 Q 483 250 468 254 Q 459 256 458 247 Q 458 246 458 246 Q 461 229 474 220 Q 488 211 505 213 Q 522 216 531 229 Q 541 242 538 259 Q 538 259 538 260 Q 538 260 538 260 L 538 260 Z M 518 317 Q 524 315 528 319 L 528 319 Q 533 322 530 328 Q 514 362 481 379 Q 448 397 408 391 Q 369 384 344 357 Q 318 330 314 293 Q 314 286 319 284 Q 325 282 330 286 Q 367 319 419 328 Q 472 336 517 317 L 518 317 Z"/>
</svg>
