<svg xmlns="http://www.w3.org/2000/svg" viewBox="0 0 384 511">
    <path d="M 336 192 Q 334 131 294 90 L 294 90 Q 253 50 192 48 Q 131 50 90 90 Q 50 131 48 192 Q 48 211 63 249 Q 80 287 106 329 Q 128 364 150 396 Q 173 428 192 452 Q 211 428 234 396 Q 257 364 278 329 Q 304 287 321 249 Q 336 211 336 192 L 336 192 Z M 384 192 Q 382 237 352 296 L 352 296 Q 321 355 282 410 L 282 410 Q 243 466 216 499 Q 206 511 192 511 Q 178 511 168 499 Q 141 466 102 410 Q 63 355 32 296 Q 2 237 0 192 Q 2 110 56 56 Q 110 2 192 0 Q 274 2 328 56 Q 382 110 384 192 L 384 192 Z M 136 128 Q 158 130 160 152 Q 158 174 136 176 Q 114 174 112 152 Q 114 130 136 128 L 136 128 Z M 224 152 Q 226 130 248 128 Q 270 130 272 152 Q 270 174 248 176 Q 226 174 224 152 L 224 152 Z M 145 229 Q 148 235 160 243 L 160 243 Q 173 251 192 252 Q 211 251 224 243 Q 236 235 239 229 Q 251 215 267 223 Q 281 235 273 251 Q 265 263 245 277 Q 224 291 192 292 Q 160 291 139 277 Q 119 263 111 251 Q 103 235 117 223 Q 133 215 145 229 L 145 229 Z"/>
</svg>
