<svg xmlns="http://www.w3.org/2000/svg" viewBox="0 0 576 512">
    <path d="M 56 48 Q 49 49 48 56 L 48 136 Q 46 158 24 160 Q 2 158 0 136 L 0 56 Q 1 32 16 16 Q 32 1 56 0 L 136 0 Q 158 2 160 24 Q 158 46 136 48 L 56 48 L 56 48 Z M 120 128 Q 142 130 144 152 L 144 360 Q 142 382 120 384 Q 98 382 96 360 L 96 152 Q 98 130 120 128 L 120 128 Z M 176 144 Q 177 129 192 128 Q 207 129 208 144 L 208 368 Q 207 383 192 384 Q 177 383 176 368 L 176 144 L 176 144 Z M 448 144 Q 449 129 464 128 Q 479 129 480 144 L 480 368 Q 479 383 464 384 Q 449 383 448 368 L 448 144 L 448 144 Z M 240 152 Q 242 130 264 128 Q 286 130 288 152 L 288 360 Q 286 382 264 384 Q 242 382 240 360 L 240 152 L 240 152 Z M 392 128 Q 414 130 416 152 L 416 360 Q 414 382 392 384 Q 370 382 368 360 L 368 152 Q 370 130 392 128 L 392 128 Z M 528 56 Q 527 49 520 48 L 440 48 Q 418 46 416 24 Q 418 2 440 0 L 520 0 Q 544 1 560 16 Q 575 32 576 56 L 576 136 Q 574 158 552 160 Q 530 158 528 136 L 528 56 L 528 56 Z M 56 464 L 136 464 Q 158 466 160 488 Q 158 510 136 512 L 56 512 Q 32 511 16 496 Q 1 480 0 456 L 0 376 Q 2 354 24 352 Q 46 354 48 376 L 48 456 Q 49 463 56 464 L 56 464 Z M 528 456 L 528 376 Q 530 354 552 352 Q 574 354 576 376 L 576 456 Q 575 480 560 496 Q 544 511 520 512 L 440 512 Q 418 510 416 488 Q 418 466 440 464 L 520 464 Q 527 463 528 456 L 528 456 Z"/>
</svg>
