<svg xmlns="http://www.w3.org/2000/svg" viewBox="0 0 512 512">
  <path d="M 112 448 L 112 64 L 112 448 L 112 64 Q 113 49 128 48 L 288 48 L 288 48 L 288 128 L 288 128 Q 288 142 297 151 Q 306 160 320 160 L 400 160 L 400 160 L 400 448 L 400 448 Q 399 463 384 464 L 128 464 L 128 464 Q 113 463 112 448 L 112 448 Z M 128 0 Q 101 1 83 19 L 83 19 L 83 19 Q 65 37 64 64 L 64 448 L 64 448 Q 65 475 83 493 Q 101 511 128 512 L 384 512 L 384 512 Q 411 511 429 493 Q 447 475 448 448 L 448 155 L 448 155 Q 448 128 429 109 L 339 19 L 339 19 Q 320 0 294 0 L 128 0 L 128 0 Z M 219 233 Q 204 217 185 229 Q 169 244 181 263 L 226 320 L 226 320 L 181 377 L 181 377 Q 169 396 185 411 Q 204 423 219 407 L 256 359 L 256 359 L 293 407 L 293 407 Q 308 423 327 411 Q 343 396 331 377 L 286 320 L 286 320 L 331 263 L 331 263 Q 343 244 327 229 Q 308 217 293 233 L 256 281 L 256 281 L 219 233 L 219 233 Z" />
</svg>