<svg xmlns="http://www.w3.org/2000/svg" viewBox="0 0 512 512">
  <path d="M 0 96 Q 1 69 19 51 L 19 51 L 19 51 Q 37 33 64 32 L 448 32 L 448 32 Q 475 33 493 51 Q 511 69 512 96 L 512 160 L 512 160 Q 511 187 493 205 Q 475 223 448 224 L 152 224 L 152 224 L 152 320 L 152 320 Q 152 337 164 348 Q 175 360 192 360 L 224 360 L 224 360 L 224 352 L 224 352 Q 225 325 243 307 Q 261 289 288 288 L 448 288 L 448 288 Q 475 289 493 307 Q 511 325 512 352 L 512 416 L 512 416 Q 511 443 493 461 Q 475 479 448 480 L 288 480 L 288 480 Q 261 479 243 461 Q 225 443 224 416 L 224 408 L 224 408 L 192 408 L 192 408 Q 155 407 130 382 Q 105 357 104 320 L 104 224 L 104 224 L 64 224 L 64 224 Q 37 223 19 205 Q 1 187 0 160 L 0 96 L 0 96 Z M 448 336 L 288 336 L 448 336 L 288 336 Q 273 337 272 352 L 272 416 L 272 416 Q 273 431 288 432 L 448 432 L 448 432 Q 463 431 464 416 L 464 352 L 464 352 Q 463 337 448 336 L 448 336 Z" />
</svg>