<svg xmlns="http://www.w3.org/2000/svg" viewBox="0 0 512 512">
  <path d="M 221.23456790123456 60.839506172839506 Q 233.08641975308643 51.358024691358025 245.7283950617284 60.839506172839506 L 359.5061728395062 157.23456790123456 L 359.5061728395062 157.23456790123456 Q 343.7037037037037 156.44444444444446 331.85185185185185 166.71604938271605 Q 327.9012345679012 169.87654320987653 323.95061728395063 173.03703703703704 Q 323.1604938271605 174.6172839506173 322.3703703703704 175.40740740740742 L 233.08641975308643 100.34567901234568 L 233.08641975308643 100.34567901234568 L 94.0246913580247 218.07407407407408 L 94.0246913580247 218.07407407407408 L 94.0246913580247 397.4320987654321 L 94.0246913580247 397.4320987654321 Q 94.0246913580247 408.4938271604938 101.1358024691358 415.60493827160496 Q 108.24691358024691 422.71604938271605 119.30864197530865 422.71604938271605 L 157.23456790123456 422.71604938271605 L 157.23456790123456 422.71604938271605 L 157.23456790123456 302.61728395061726 L 157.23456790123456 302.61728395061726 Q 157.23456790123456 289.18518518518516 166.71604938271605 280.4938271604938 Q 175.40740740740742 271.01234567901236 188.8395061728395 271.01234567901236 L 249.679012345679 271.01234567901236 L 249.679012345679 271.01234567901236 Q 240.19753086419752 289.9753086419753 236.2469135802469 308.9382716049383 L 195.1604938271605 308.9382716049383 L 195.1604938271605 308.9382716049383 L 195.1604938271605 422.71604938271605 L 195.1604938271605 422.71604938271605 L 262.320987654321 422.71604938271605 L 262.320987654321 422.71604938271605 Q 278.12345679012344 444.8395061728395 301.037037037037 460.641975308642 L 119.30864197530865 460.641975308642 L 119.30864197530865 460.641975308642 Q 92.44444444444444 459.85185185185185 74.27160493827161 442.4691358024691 Q 56.888888888888886 424.2962962962963 56.098765432098766 397.4320987654321 L 56.098765432098766 250.46913580246914 L 56.098765432098766 250.46913580246914 L 37.135802469135804 266.2716049382716 L 37.135802469135804 266.2716049382716 Q 22.123456790123456 276.5432098765432 10.271604938271604 264.69135802469134 Q 0 249.679012345679 12.641975308641975 237.82716049382717 L 221.23456790123456 60.839506172839506 L 221.23456790123456 60.839506172839506 Z M 384.7901234567901 460.641975308642 Q 331.0617283950617 459.0617283950617 295.5061728395062 423.5061728395062 L 295.5061728395062 423.5061728395062 L 295.5061728395062 423.5061728395062 Q 259.95061728395063 387.95061728395063 258.3703703703704 334.22222222222223 Q 260.74074074074076 288.39506172839504 287.60493827160496 251.25925925925927 Q 314.4691358024691 213.33333333333334 342.91358024691357 192.79012345679013 Q 349.2345679012346 188.0493827160494 356.34567901234567 188.0493827160494 Q 365.82716049382714 188.0493827160494 373.7283950617284 195.1604938271605 L 410.0740740740741 231.50617283950618 L 410.0740740740741 231.50617283950618 L 418.7654320987654 222.8148148148148 L 418.7654320987654 222.8148148148148 Q 426.6666666666667 215.7037037037037 435.358024691358 214.91358024691357 Q 444.8395061728395 214.91358024691357 452.74074074074076 222.02469135802468 Q 486.71604938271605 256.7901234567901 499.358024691358 286.0246913580247 Q 512 315.25925925925924 511.2098765432099 334.22222222222223 Q 509.6296296296296 387.95061728395063 474.0740740740741 423.5061728395062 Q 438.51851851851853 459.0617283950617 384.7901234567901 460.641975308642 L 384.7901234567901 460.641975308642 Z M 435.358024691358 372.14814814814815 Q 433.77777777777777 350.0246913580247 418.7654320987654 331.0617283950617 L 418.7654320987654 331.0617283950617 L 418.7654320987654 331.0617283950617 Q 403.75308641975306 312.0987654320988 391.9012345679012 302.61728395061726 Q 384.7901234567901 297.08641975308643 377.679012345679 302.61728395061726 Q 365.82716049382714 312.0987654320988 350.81481481481484 331.0617283950617 Q 335.8024691358025 350.0246913580247 334.22222222222223 372.14814814814815 Q 335.01234567901236 393.48148148148147 349.2345679012346 407.7037037037037 Q 363.4567901234568 422.71604938271605 384.7901234567901 422.71604938271605 Q 406.12345679012344 422.71604938271605 420.34567901234567 407.7037037037037 Q 434.5679012345679 393.48148148148147 435.358024691358 372.14814814814815 L 435.358024691358 372.14814814814815 Z" />
</svg>