<svg xmlns="http://www.w3.org/2000/svg" viewBox="0 0 512 512">
  <path d="M 169.33852 384.49805 Q 145.4319 376.52917 125.50973 390.4747 Q 112.56031 400.4358 85.66537 413.38522 Q 94.63035 391.47083 97.618675 364.57587 Q 98.614784 344.6537 85.66537 328.71594 Q 49.805447 288.87158 49.805447 240.06226 Q 50.801556 178.3035 106.58366 130.49026 Q 162.36575 83.67315 256.9961 80.68482 Q 351.62646 83.67315 407.40857 130.49026 Q 463.19067 178.3035 464.18677 240.06226 Q 463.19067 301.821 407.40857 349.63425 Q 351.62646 396.45135 256.9961 399.4397 Q 209.18288 399.4397 169.33852 384.49805 L 169.33852 384.49805 Z M 27.89105 423.3463 Q 25.898832 427.33075 22.910505 431.3152 L 22.910505 431.3152 L 22.910505 431.3152 Q 21.914396 433.3074 20.918287 435.29962 Q 18.92607 437.29184 17.92996 438.28793 Q 12.949416 445.2607 6.9727626 452.23346 Q 0 459.20624 2.9883268 469.16733 Q 7.9688716 479.12842 17.92996 479.12842 Q 21.914396 479.12842 25.898832 479.12842 Q 29.883268 479.12842 33.867702 478.1323 L 33.867702 478.1323 L 33.867702 478.1323 Q 40.840466 477.1362 46.81712 476.14008 Q 48.809338 476.14008 49.805447 476.14008 Q 49.805447 476.14008 49.805447 476.14008 Q 76.700386 470.16342 99.61089 460.20233 Q 134.4747 443.2685 153.40077 429.32297 Q 201.214 447.25293 256.9961 447.25293 Q 328.71594 446.2568 386.49026 419.36188 Q 443.2685 391.47083 477.1362 344.6537 Q 511.0039 297.83658 512 240.06226 Q 511.0039 182.28793 477.1362 135.47081 Q 443.2685 88.653694 385.49417 60.762646 Q 328.71594 33.867702 256.9961 32.871593 Q 185.27626 33.867702 128.49805 60.762646 Q 70.72373 88.653694 36.85603 135.47081 Q 2.9883268 182.28793 1.9922179 240.06226 Q 2.9883268 308.79376 49.805447 360.59143 Q 44.8249 397.44748 27.89105 423.3463 L 27.89105 423.3463 Z M 341.66537 155.39299 Q 329.71207 144.43579 314.77042 144.43579 L 314.77042 144.43579 L 314.77042 144.43579 Q 299.8288 144.43579 288.87158 155.39299 L 273.92996 170.33463 L 273.92996 170.33463 L 326.72372 223.1284 L 326.72372 223.1284 L 341.66537 208.18677 L 341.66537 208.18677 Q 352.62256 197.22957 352.62256 182.28793 Q 352.62256 167.3463 341.66537 155.39299 L 341.66537 155.39299 Z M 179.2996 264.96497 Q 173.32295 270.94162 171.33073 278.9105 L 162.36575 315.76654 L 162.36575 315.76654 Q 160.37354 324.7315 166.35019 330.70816 Q 172.32684 336.6848 181.29182 334.6926 L 218.14786 325.72763 L 218.14786 325.72763 Q 226.11673 323.7354 232.09338 317.75876 L 303.81323 246.03891 L 303.81323 246.03891 L 251.01945 193.24513 L 251.01945 193.24513 L 179.2996 264.96497 L 179.2996 264.96497 Z" />
</svg>