<svg xmlns="http://www.w3.org/2000/svg" viewBox="0 0 512 512">
  <path d="M 48.92664092664093 414.1467181467182 L 48.92664092664093 461.5907335907336 L 48.92664092664093 414.1467181467182 L 48.92664092664093 461.5907335907336 L 112.18532818532819 461.5907335907336 L 112.18532818532819 461.5907335907336 L 112.18532818532819 414.1467181467182 L 112.18532818532819 414.1467181467182 L 48.92664092664093 414.1467181467182 L 48.92664092664093 414.1467181467182 Z M 135.90733590733592 503.1042471042471 Q 125.03474903474904 509.03474903474904 112.18532818532819 509.03474903474904 L 48.92664092664093 509.03474903474904 L 48.92664092664093 509.03474903474904 Q 29.158301158301157 508.04633204633205 15.32046332046332 495.1969111969112 Q 2.471042471042471 481.35907335907336 1.4826254826254825 461.5907335907336 L 1.4826254826254825 414.1467181467182 L 1.4826254826254825 414.1467181467182 L 1.4826254826254825 390.42471042471044 L 1.4826254826254825 390.42471042471044 L 1.4826254826254825 366.7027027027027 L 1.4826254826254825 366.7027027027027 L 1.4826254826254825 145.2972972972973 L 1.4826254826254825 145.2972972972973 L 1.4826254826254825 121.57528957528957 L 1.4826254826254825 121.57528957528957 L 1.4826254826254825 97.85328185328186 L 1.4826254826254825 97.85328185328186 L 1.4826254826254825 50.40926640926641 L 1.4826254826254825 50.40926640926641 Q 2.471042471042471 30.64092664092664 15.32046332046332 16.8030888030888 Q 29.158301158301157 3.9536679536679538 48.92664092664093 2.965250965250965 L 112.18532818532819 2.965250965250965 L 112.18532818532819 2.965250965250965 Q 125.03474903474904 2.965250965250965 135.90733590733592 8.895752895752896 Q 146.77992277992277 2.965250965250965 159.62934362934362 2.965250965250965 L 222.8880308880309 2.965250965250965 L 222.8880308880309 2.965250965250965 Q 255.5057915057915 4.942084942084942 267.3667953667954 33.6061776061776 Q 276.26254826254825 24.71042471042471 288.12355212355214 20.756756756756758 L 347.42857142857144 4.942084942084942 L 347.42857142857144 4.942084942084942 Q 366.2084942084942 0 382.023166023166 8.895752895752896 Q 397.8378378378378 18.77992277992278 403.7683397683398 37.55984555984556 L 421.55984555984554 106.74903474903475 L 421.55984555984554 106.74903474903475 L 427.4903474903475 129.48262548262548 L 427.4903474903475 129.48262548262548 L 487.7837837837838 364.72586872586874 L 487.7837837837838 364.72586872586874 L 493.7142857142857 387.4594594594595 L 493.7142857142857 387.4594594594595 L 505.57528957528956 432.9266409266409 L 505.57528957528956 432.9266409266409 Q 510.5173745173745 452.6949806949807 501.6216216216216 469.4980694980695 Q 491.73745173745175 485.3127413127413 473.94594594594594 491.2432432432432 L 414.64092664092664 507.05791505791507 L 414.64092664092664 507.05791505791507 Q 395.86100386100384 512 380.04633204633205 503.1042471042471 Q 364.2316602316602 493.2200772200772 358.3011583011583 474.44015444015446 L 340.5096525096525 405.25096525096524 L 340.5096525096525 405.25096525096524 L 334.57915057915056 382.5173745173745 L 334.57915057915056 382.5173745173745 L 274.2857142857143 147.27413127413126 L 274.2857142857143 147.27413127413126 L 270.33204633204633 133.43629343629343 L 270.33204633204633 133.43629343629343 L 270.33204633204633 145.2972972972973 L 270.33204633204633 145.2972972972973 L 270.33204633204633 366.7027027027027 L 270.33204633204633 366.7027027027027 L 270.33204633204633 390.42471042471044 L 270.33204633204633 390.42471042471044 L 270.33204633204633 414.1467181467182 L 270.33204633204633 414.1467181467182 L 270.33204633204633 461.5907335907336 L 270.33204633204633 461.5907335907336 Q 269.34362934362935 481.35907335907336 256.4942084942085 495.1969111969112 Q 242.65637065637065 508.04633204633205 222.8880308880309 509.03474903474904 L 159.62934362934362 509.03474903474904 L 159.62934362934362 509.03474903474904 Q 146.77992277992277 509.03474903474904 135.90733590733592 503.1042471042471 L 135.90733590733592 503.1042471042471 Z M 159.62934362934362 461.5907335907336 L 222.8880308880309 461.5907335907336 L 159.62934362934362 461.5907335907336 L 222.8880308880309 461.5907335907336 L 222.8880308880309 414.1467181467182 L 222.8880308880309 414.1467181467182 L 159.62934362934362 414.1467181467182 L 159.62934362934362 414.1467181467182 L 159.62934362934362 461.5907335907336 L 159.62934362934362 461.5907335907336 Z M 112.18532818532819 50.40926640926641 L 48.92664092664093 50.40926640926641 L 112.18532818532819 50.40926640926641 L 48.92664092664093 50.40926640926641 L 48.92664092664093 97.85328185328186 L 48.92664092664093 97.85328185328186 L 112.18532818532819 97.85328185328186 L 112.18532818532819 97.85328185328186 L 112.18532818532819 50.40926640926641 L 112.18532818532819 50.40926640926641 Z M 112.18532818532819 145.2972972972973 L 48.92664092664093 145.2972972972973 L 112.18532818532819 145.2972972972973 L 48.92664092664093 145.2972972972973 L 48.92664092664093 366.7027027027027 L 48.92664092664093 366.7027027027027 L 112.18532818532819 366.7027027027027 L 112.18532818532819 366.7027027027027 L 112.18532818532819 145.2972972972973 L 112.18532818532819 145.2972972972973 Z M 159.62934362934362 97.85328185328186 L 222.8880308880309 97.85328185328186 L 159.62934362934362 97.85328185328186 L 222.8880308880309 97.85328185328186 L 222.8880308880309 50.40926640926641 L 222.8880308880309 50.40926640926641 L 159.62934362934362 50.40926640926641 L 159.62934362934362 50.40926640926641 L 159.62934362934362 97.85328185328186 L 159.62934362934362 97.85328185328186 Z M 222.8880308880309 366.7027027027027 L 222.8880308880309 145.2972972972973 L 222.8880308880309 366.7027027027027 L 222.8880308880309 145.2972972972973 L 159.62934362934362 145.2972972972973 L 159.62934362934362 145.2972972972973 L 159.62934362934362 366.7027027027027 L 159.62934362934362 366.7027027027027 L 222.8880308880309 366.7027027027027 L 222.8880308880309 366.7027027027027 Z M 436.3861003861004 354.8416988416988 L 381.03474903474904 142.33204633204633 L 436.3861003861004 354.8416988416988 L 381.03474903474904 142.33204633204633 L 325.6833976833977 157.15830115830116 L 325.6833976833977 157.15830115830116 L 381.03474903474904 369.66795366795367 L 381.03474903474904 369.66795366795367 L 436.3861003861004 354.8416988416988 L 436.3861003861004 354.8416988416988 Z M 392.8957528957529 416.12355212355214 L 404.7567567567568 461.5907335907336 L 392.8957528957529 416.12355212355214 L 404.7567567567568 461.5907335907336 L 460.1081081081081 445.7760617760618 L 460.1081081081081 445.7760617760618 Q 460.1081081081081 445.7760617760618 460.1081081081081 445.7760617760618 Q 460.1081081081081 445.7760617760618 460.1081081081081 445.7760617760618 L 460.1081081081081 445.7760617760618 L 460.1081081081081 445.7760617760618 L 448.24710424710423 400.3088803088803 L 448.24710424710423 400.3088803088803 L 392.8957528957529 416.12355212355214 L 392.8957528957529 416.12355212355214 Z M 313.82239382239385 111.6911196911197 L 369.17374517374515 95.87644787644787 L 313.82239382239385 111.6911196911197 L 369.17374517374515 95.87644787644787 L 357.3127413127413 51.397683397683394 L 357.3127413127413 51.397683397683394 L 301.96138996138995 66.22393822393822 L 301.96138996138995 66.22393822393822 Q 301.96138996138995 66.22393822393822 301.96138996138995 66.22393822393822 Q 301.96138996138995 66.22393822393822 301.96138996138995 67.2123552123552 L 313.82239382239385 111.6911196911197 L 313.82239382239385 111.6911196911197 Z" />
</svg>