<svg xmlns="http://www.w3.org/2000/svg" viewBox="0 0 448 448">
    <path d="M 64 48 Q 49 49 48 64 L 48 384 Q 49 399 64 400 L 384 400 Q 399 399 400 384 L 400 64 Q 399 49 384 48 L 64 48 L 64 48 Z M 0 64 Q 1 37 19 19 L 19 19 Q 37 1 64 0 L 384 0 Q 411 1 429 19 Q 447 37 448 64 L 448 384 Q 447 411 429 429 Q 411 447 384 448 L 64 448 Q 37 447 19 429 Q 1 411 0 384 L 0 64 L 0 64 Z M 184 160 Q 184 166 189 171 L 203 185 L 227 168 Q 232 164 232 157 Q 231 145 219 144 L 200 144 Q 185 145 184 160 L 184 160 Z M 255 207 L 237 219 L 266 248 L 292 210 Q 306 193 326 204 Q 343 218 332 238 L 301 283 L 329 311 Q 343 328 329 345 Q 312 359 295 345 L 273 323 Q 249 351 211 352 L 179 352 Q 150 351 131 332 Q 113 314 112 285 Q 113 252 139 232 L 164 214 L 155 204 Q 136 186 136 159 Q 137 132 155 115 Q 173 97 200 96 L 219 96 Q 245 97 262 114 Q 279 131 280 157 Q 279 188 255 206 L 255 207 Z M 168 271 Q 160 276 160 286 Q 162 302 179 304 L 211 304 Q 227 304 237 290 L 238 288 L 198 248 L 168 271 L 168 271 Z"/>
</svg>
