<svg xmlns="http://www.w3.org/2000/svg" viewBox="0 0 384 512">
    <path d="M 192 464 Q 131 462 90 422 L 90 422 Q 50 381 48 320 Q 48 300 65 259 Q 83 218 111 174 Q 133 139 154 108 Q 176 78 192 57 Q 208 78 230 108 Q 251 139 274 174 Q 301 218 319 259 Q 336 300 336 320 Q 334 381 294 422 Q 253 462 192 464 L 192 464 Z M 0 320 Q 2 402 56 456 L 56 456 Q 110 510 192 512 Q 274 510 328 456 Q 382 402 384 320 Q 382 273 349 210 Q 316 147 277 92 Q 238 37 217 12 Q 208 0 193 0 L 191 0 Q 176 0 167 12 Q 146 37 107 92 Q 68 147 35 210 Q 2 273 0 320 L 0 320 Z M 144 312 Q 142 290 120 288 Q 98 290 96 312 Q 97 356 126 386 Q 156 415 200 416 Q 222 414 224 392 Q 222 370 200 368 Q 176 367 160 352 Q 145 336 144 312 L 144 312 Z"/>
</svg>
