<svg xmlns="http://www.w3.org/2000/svg" viewBox="0 0 512 512">
  <path d="M 122.244965 113.91008 Q 119.06977 121.84806 111.13178 125.817055 Q 90.49303 136.13643 88.905426 160.74419 Q 88.111626 171.85736 78.586044 177.41396 Q 57.94729 187.73334 57.15349 211.54729 Q 57.15349 220.27907 60.328682 227.42325 Q 65.09148 240.12402 55.56589 249.64961 Q 38.896126 263.938 38.102325 287.75195 Q 38.896126 312.35968 57.15349 327.44186 Q 65.09148 334.58606 64.297676 344.90543 Q 63.503876 348.08063 63.503876 351.25583 Q 63.503876 367.13177 74.61706 378.24496 Q 84.93643 388.56433 100.8124 389.35815 Q 111.92558 390.15195 117.48217 400.4713 Q 127.00775 420.31628 149.23412 421.11008 Q 164.31628 421.11008 173.84186 410.7907 Q 184.16124 401.2651 184.16124 386.18295 L 184.16124 122.64186 L 184.16124 122.64186 Q 184.16124 109.147285 174.63567 100.415504 Q 165.90387 90.88992 152.4093 90.88992 Q 129.38914 92.477516 122.244965 113.91008 L 122.244965 113.91008 Z M 203.2124 435.39844 Q 182.57364 458.4186 149.23412 459.2124 Q 109.54419 457.62482 88.111626 426.66666 Q 61.122482 421.11008 43.658916 400.4713 Q 26.195349 379.83255 25.40155 351.25583 Q 25.40155 351.25583 25.40155 350.462 Q 25.40155 350.462 25.40155 349.6682 Q 0.79379845 325.06046 0 287.75195 Q 0.79379845 253.6186 21.432558 229.80466 Q 19.051163 221.07286 19.051163 211.54729 Q 20.63876 171.06357 51.5969 148.8372 Q 57.94729 113.11628 88.111626 94.85892 Q 96.843414 75.807755 113.513176 64.69457 Q 130.18295 52.787598 152.4093 52.787598 Q 183.36745 53.581394 203.2124 75.013954 Q 223.05736 53.581394 254.0155 52.787598 Q 276.24185 52.787598 292.91162 64.69457 Q 309.5814 75.807755 318.31317 94.85892 Q 348.4775 113.11628 354.8279 148.8372 Q 385.78604 171.06357 387.37366 211.54729 Q 387.37366 221.07286 384.99225 229.80466 Q 386.57983 232.18605 388.16745 233.77364 Q 381.02325 243.29922 381.02325 256 L 381.02325 268.70078 L 381.02325 268.70078 L 364.3535 268.70078 L 364.3535 268.70078 Q 360.3845 257.5876 350.85892 249.64961 Q 341.33334 240.12402 346.09613 227.42325 Q 349.27133 220.27907 349.27133 211.54729 Q 348.4775 187.73334 327.83875 177.41396 Q 318.31317 171.85736 317.51938 160.74419 Q 315.9318 136.13643 295.29303 125.817055 Q 287.35504 122.64186 284.97363 113.91008 Q 277.03564 92.477516 254.0155 90.88992 Q 240.52094 90.88992 231.78915 100.415504 Q 222.26357 109.147285 222.26357 122.64186 L 222.26357 386.18295 L 222.26357 386.18295 Q 223.85117 411.5845 246.87132 419.5225 Q 255.6031 444.13022 267.51007 458.4186 Q 262.74728 459.2124 257.1907 459.2124 Q 223.85117 458.4186 203.2124 435.39844 L 203.2124 435.39844 Z M 427.85736 247.26822 L 504.062 323.47287 L 427.85736 247.26822 L 504.062 323.47287 Q 512 332.20465 504.062 340.93643 L 427.85736 417.14108 L 427.85736 417.14108 Q 422.30078 422.69766 414.3628 420.31628 Q 407.2186 416.3473 406.4248 408.4093 L 406.4248 370.30698 L 406.4248 370.30698 L 368.32248 370.30698 L 368.32248 370.30698 Q 346.88992 371.10077 332.60156 385.38916 Q 318.31317 399.67752 317.51938 421.11008 L 317.51938 449.68683 L 317.51938 449.68683 Q 316.7256 458.4186 307.9938 459.2124 Q 304.8186 459.2124 302.4372 457.62482 Q 294.49924 452.86203 281.79846 433.81085 Q 268.30386 415.5535 266.71628 383.00775 Q 267.51007 344.90543 292.91162 320.29767 Q 317.51938 294.89612 355.6217 294.10233 L 406.4248 294.10233 L 406.4248 294.10233 L 406.4248 256 L 406.4248 256 Q 406.4248 248.06201 414.3628 244.09302 Q 422.30078 241.71162 427.85736 247.26822 L 427.85736 247.26822 Z" />
</svg>