<svg xmlns="http://www.w3.org/2000/svg" viewBox="0 0 512 512">
  <path d="M 256 172.88888888888889 Q 232 172 216 156.88888888888889 L 216 156.88888888888889 L 216 156.88888888888889 Q 200 141.77777777777777 199.11111111111111 119.55555555555556 Q 200.88888888888889 102.66666666666667 216 77.77777777777777 Q 232 52.888888888888886 245.33333333333334 36.888888888888886 Q 256 26.22222222222222 266.6666666666667 36.888888888888886 Q 280 52.888888888888886 296 77.77777777777777 Q 311.1111111111111 102.66666666666667 312.8888888888889 119.55555555555556 Q 312 141.77777777777777 296 156.88888888888889 Q 280 172 256 172.88888888888889 L 256 172.88888888888889 Z M 56.888888888888886 144.44444444444446 L 176 144.44444444444446 L 56.888888888888886 144.44444444444446 L 176 144.44444444444446 Q 185.77777777777777 171.11111111111111 208.88888888888889 187.11111111111111 L 56.888888888888886 187.11111111111111 L 56.888888888888886 187.11111111111111 Q 43.55555555555556 188 42.666666666666664 201.33333333333334 L 42.666666666666664 428.8888888888889 L 42.666666666666664 428.8888888888889 Q 43.55555555555556 442.22222222222223 56.888888888888886 443.1111111111111 L 369.77777777777777 443.1111111111111 L 369.77777777777777 443.1111111111111 L 369.77777777777777 372 L 369.77777777777777 372 Q 369.77777777777777 359.55555555555554 377.77777777777777 351.55555555555554 Q 385.77777777777777 343.55555555555554 398.22222222222223 343.55555555555554 L 469.3333333333333 343.55555555555554 L 469.3333333333333 343.55555555555554 L 469.3333333333333 201.33333333333334 L 469.3333333333333 201.33333333333334 Q 468.44444444444446 188 455.1111111111111 187.11111111111111 L 303.1111111111111 187.11111111111111 L 303.1111111111111 187.11111111111111 Q 327.1111111111111 171.11111111111111 336.8888888888889 144.44444444444446 L 455.1111111111111 144.44444444444446 L 455.1111111111111 144.44444444444446 Q 479.1111111111111 145.33333333333334 495.1111111111111 161.33333333333334 Q 511.1111111111111 177.33333333333334 512 201.33333333333334 L 512 354.22222222222223 L 512 354.22222222222223 Q 512 372 499.55555555555554 384.44444444444446 L 410.6666666666667 473.3333333333333 L 410.6666666666667 473.3333333333333 Q 398.22222222222223 485.77777777777777 380.44444444444446 485.77777777777777 L 56.888888888888886 485.77777777777777 L 56.888888888888886 485.77777777777777 Q 32.888888888888886 484.8888888888889 16.88888888888889 468.8888888888889 Q 0.8888888888888888 452.8888888888889 0 428.8888888888889 L 0 201.33333333333334 L 0 201.33333333333334 Q 0.8888888888888888 177.33333333333334 16.88888888888889 161.33333333333334 Q 32.888888888888886 145.33333333333334 56.888888888888886 144.44444444444446 L 56.888888888888886 144.44444444444446 Z M 99.55555555555556 215.55555555555554 Q 112 215.55555555555554 120 223.55555555555554 L 120 223.55555555555554 L 120 223.55555555555554 Q 128 231.55555555555554 128 244 Q 128 256.44444444444446 120 264.44444444444446 Q 112 272.44444444444446 99.55555555555556 272.44444444444446 Q 87.11111111111111 272.44444444444446 79.11111111111111 264.44444444444446 Q 71.11111111111111 256.44444444444446 71.11111111111111 244 Q 71.11111111111111 231.55555555555554 79.11111111111111 223.55555555555554 Q 87.11111111111111 215.55555555555554 99.55555555555556 215.55555555555554 L 99.55555555555556 215.55555555555554 Z" />
</svg>