<svg xmlns="http://www.w3.org/2000/svg" viewBox="0 0 480 502">
    <path d="M 272 24 Q 270 2 248 0 Q 226 2 224 24 L 224 264 Q 226 286 248 288 Q 270 286 272 264 L 272 24 L 272 24 Z M 126 107 Q 143 93 131 74 Q 117 57 98 69 Q 53 102 27 152 Q 1 202 0 262 Q 1 329 33 383 Q 65 437 119 469 Q 173 501 240 502 Q 307 501 361 469 Q 415 437 447 383 Q 479 329 480 262 Q 479 202 453 152 Q 427 102 382 69 Q 363 57 349 74 Q 337 93 354 107 Q 390 134 411 174 Q 431 214 432 262 Q 430 344 376 398 Q 321 452 240 454 Q 158 452 104 398 Q 50 344 48 262 Q 48 214 69 174 Q 90 134 126 107 L 126 107 Z"/>
</svg>
