<svg xmlns="http://www.w3.org/2000/svg" viewBox="0 0 512 512">
  <path d="M 464 240 L 464 256 L 464 240 L 464 256 L 48 256 L 48 256 Q 48 250 53 246 L 302 81 L 302 81 Q 303 80 304 80 Q 372 82 417 127 Q 462 172 464 240 L 464 240 Z M 48 304 L 464 304 L 48 304 L 464 304 L 464 416 L 464 416 Q 463 431 448 432 L 64 432 L 64 432 Q 49 431 48 416 L 48 304 L 48 304 Z M 512 256 L 512 240 L 512 256 L 512 240 Q 510 152 451 93 Q 392 34 304 32 Q 288 32 275 41 L 27 206 L 27 206 Q 1 224 0 256 L 0 416 L 0 416 Q 1 443 19 461 Q 37 479 64 480 L 448 480 L 448 480 Q 475 479 493 461 Q 511 443 512 416 L 512 256 L 512 256 Z" />
</svg>