<svg xmlns="http://www.w3.org/2000/svg" viewBox="0 0 512 512">
  <path d="M 277.3333333333333 49.77777777777778 L 277.3333333333333 59.55555555555556 L 277.3333333333333 49.77777777777778 L 277.3333333333333 59.55555555555556 Q 286.22222222222223 60.44444444444444 293.3333333333333 63.111111111111114 Q 312 69.33333333333333 308.44444444444446 88.88888888888889 Q 302.22222222222223 107.55555555555556 282.6666666666667 104 Q 267.55555555555554 99.55555555555556 256 99.55555555555556 Q 245.33333333333334 99.55555555555556 238.22222222222223 104 Q 235.55555555555554 105.77777777777777 235.55555555555554 106.66666666666667 Q 234.66666666666666 106.66666666666667 234.66666666666666 108.44444444444444 Q 234.66666666666666 109.33333333333333 234.66666666666666 109.33333333333333 Q 234.66666666666666 109.33333333333333 234.66666666666666 109.33333333333333 Q 234.66666666666666 109.33333333333333 234.66666666666666 109.33333333333333 Q 234.66666666666666 110.22222222222223 237.33333333333334 112 Q 245.33333333333334 115.55555555555556 262.22222222222223 120.88888888888889 L 263.1111111111111 120.88888888888889 L 263.1111111111111 120.88888888888889 Q 279.1111111111111 124.44444444444444 296 134.22222222222223 Q 317.3333333333333 145.77777777777777 320 174.22222222222223 Q 318.22222222222223 204.44444444444446 296 217.77777777777777 Q 287.1111111111111 223.11111111111111 277.3333333333333 224.88888888888889 L 277.3333333333333 234.66666666666666 L 277.3333333333333 234.66666666666666 Q 275.55555555555554 254.22222222222223 256 256 Q 236.44444444444446 254.22222222222223 234.66666666666666 234.66666666666666 L 234.66666666666666 224.88888888888889 L 234.66666666666666 224.88888888888889 Q 222.22222222222223 221.33333333333334 213.33333333333334 217.77777777777777 Q 212.44444444444446 217.77777777777777 211.55555555555554 217.77777777777777 Q 210.66666666666666 216.88888888888889 209.77777777777777 216.88888888888889 Q 208 216 206.22222222222223 216 Q 188.44444444444446 208 192.88888888888889 188.44444444444446 Q 200.88888888888889 170.66666666666666 219.55555555555554 175.11111111111111 Q 221.33333333333334 176 223.11111111111111 176 Q 224.88888888888889 176.88888888888889 226.66666666666666 177.77777777777777 Q 243.55555555555554 184 256.8888888888889 184.88888888888889 Q 267.55555555555554 184.88888888888889 273.77777777777777 181.33333333333334 Q 276.44444444444446 179.55555555555554 276.44444444444446 178.66666666666666 Q 277.3333333333333 177.77777777777777 277.3333333333333 175.11111111111111 L 277.3333333333333 175.11111111111111 L 277.3333333333333 175.11111111111111 Q 278.22222222222223 174.22222222222223 273.77777777777777 170.66666666666666 Q 266.6666666666667 166.22222222222223 249.77777777777777 161.77777777777777 L 248 160.88888888888889 L 248 160.88888888888889 Q 232 157.33333333333334 215.11111111111111 148.44444444444446 Q 194.66666666666666 137.77777777777777 192 109.33333333333333 Q 194.66666666666666 78.22222222222223 216.88888888888889 66.66666666666667 Q 224.88888888888889 62.22222222222222 234.66666666666666 59.55555555555556 L 234.66666666666666 49.77777777777778 L 234.66666666666666 49.77777777777778 Q 236.44444444444446 30.22222222222222 256 28.444444444444443 Q 275.55555555555554 30.22222222222222 277.3333333333333 49.77777777777778 L 277.3333333333333 49.77777777777778 Z M 166.22222222222223 341.3333333333333 Q 155.55555555555554 341.3333333333333 146.66666666666666 347.55555555555554 L 75.55555555555556 394.6666666666667 L 75.55555555555556 394.6666666666667 Q 70.22222222222223 398.22222222222223 64 398.22222222222223 L 21.333333333333332 398.22222222222223 L 21.333333333333332 398.22222222222223 Q 1.7777777777777777 396.44444444444446 0 376.8888888888889 Q 1.7777777777777777 357.3333333333333 21.333333333333332 355.55555555555554 L 57.77777777777778 355.55555555555554 L 57.77777777777778 355.55555555555554 L 123.55555555555556 312 L 123.55555555555556 312 Q 143.11111111111111 298.6666666666667 166.22222222222223 298.6666666666667 L 305.77777777777777 298.6666666666667 L 305.77777777777777 298.6666666666667 Q 329.77777777777777 299.55555555555554 345.77777777777777 315.55555555555554 Q 361.77777777777777 331.55555555555554 362.6666666666667 355.55555555555554 Q 362.6666666666667 356.44444444444446 362.6666666666667 356.44444444444446 Q 362.6666666666667 356.44444444444446 362.6666666666667 357.3333333333333 L 420.44444444444446 321.77777777777777 L 420.44444444444446 321.77777777777777 Q 434.6666666666667 312.8888888888889 451.55555555555554 312.8888888888889 L 458.6666666666667 312.8888888888889 L 458.6666666666667 312.8888888888889 Q 480.8888888888889 313.77777777777777 496 328.8888888888889 Q 511.1111111111111 344 512 366.22222222222223 Q 511.1111111111111 395.55555555555554 488 411.55555555555554 L 402.6666666666667 466.6666666666667 L 402.6666666666667 466.6666666666667 Q 376 483.55555555555554 344.8888888888889 483.55555555555554 L 21.333333333333332 483.55555555555554 L 21.333333333333332 483.55555555555554 Q 1.7777777777777777 481.77777777777777 0 462.22222222222223 Q 1.7777777777777777 442.6666666666667 21.333333333333332 440.8888888888889 L 344.8888888888889 440.8888888888889 L 344.8888888888889 440.8888888888889 Q 363.55555555555554 440.8888888888889 379.55555555555554 430.22222222222223 L 464 376 L 464 376 Q 469.3333333333333 372.44444444444446 469.3333333333333 366.22222222222223 Q 468.44444444444446 356.44444444444446 458.6666666666667 355.55555555555554 L 451.55555555555554 355.55555555555554 L 451.55555555555554 355.55555555555554 Q 447.1111111111111 355.55555555555554 442.6666666666667 358.22222222222223 L 360 408.8888888888889 L 360 408.8888888888889 Q 354.6666666666667 412.44444444444446 348.44444444444446 412.44444444444446 L 305.77777777777777 412.44444444444446 L 227.55555555555554 412.44444444444446 Q 208 410.6666666666667 206.22222222222223 391.1111111111111 Q 208 371.55555555555554 227.55555555555554 369.77777777777777 L 284.44444444444446 369.77777777777777 L 305.77777777777777 369.77777777777777 Q 319.1111111111111 368.8888888888889 320 355.55555555555554 Q 319.1111111111111 342.22222222222223 305.77777777777777 341.3333333333333 L 166.22222222222223 341.3333333333333 L 166.22222222222223 341.3333333333333 Z" />
</svg>