<svg xmlns="http://www.w3.org/2000/svg" viewBox="0 0 521 457">
    <path d="M 73 0 Q 37 1 18 32 Q 0 64 18 96 Q 37 127 73 128 Q 109 127 128 96 Q 146 64 128 32 Q 109 1 73 0 L 73 0 Z M 193 40 Q 171 42 169 64 Q 171 86 193 88 L 497 88 Q 519 86 521 64 Q 519 42 497 40 L 193 40 L 193 40 Z M 193 200 Q 171 202 169 224 Q 171 246 193 248 L 497 248 Q 519 246 521 224 Q 519 202 497 200 L 193 200 L 193 200 Z M 193 360 Q 171 362 169 384 Q 171 406 193 408 L 497 408 Q 519 406 521 384 Q 519 362 497 360 L 193 360 L 193 360 Z M 73 248 Q 51 246 49 224 Q 51 202 73 200 Q 95 202 97 224 Q 95 246 73 248 L 73 248 Z M 73 160 Q 37 161 18 192 Q 0 224 18 256 Q 37 287 73 288 Q 109 287 128 256 Q 146 224 128 192 Q 109 161 73 160 L 73 160 Z M 49 384 Q 51 362 73 360 Q 95 362 97 384 Q 95 406 73 408 Q 51 406 49 384 L 49 384 Z M 137 384 Q 136 348 105 329 Q 73 311 41 329 Q 10 348 9 384 Q 10 420 41 439 Q 73 457 105 439 Q 136 420 137 384 L 137 384 Z"/>
</svg>
