<svg xmlns="http://www.w3.org/2000/svg" viewBox="0 0 512 512">
  <path d="M 272.7707129094412 498.1888246628131 Q 256 512 239.22928709055876 498.1888246628131 L 112.95568400770713 371.91522157996144 L 112.95568400770713 371.91522157996144 Q 99.14450867052022 355.1445086705202 112.95568400770713 338.373795761079 Q 129.72639691714835 324.5626204238921 146.4971098265896 338.373795761079 L 232.32369942196533 424.2003853564547 L 232.32369942196533 424.2003853564547 L 232.32369942196533 181.51830443159923 L 232.32369942196533 181.51830443159923 Q 234.29672447013488 159.8150289017341 256 157.84200385356453 Q 277.70327552986515 159.8150289017341 279.67630057803467 181.51830443159923 L 279.67630057803467 424.2003853564547 L 279.67630057803467 424.2003853564547 L 365.5028901734104 338.373795761079 L 365.5028901734104 338.373795761079 Q 382.27360308285165 324.5626204238921 399.04431599229287 338.373795761079 Q 412.8554913294798 355.1445086705202 399.04431599229287 371.91522157996144 L 272.7707129094412 498.1888246628131 L 272.7707129094412 498.1888246628131 Z M 82.373795761079 165.73410404624278 Q 80.40077071290943 187.4373795761079 58.69749518304432 189.41040462427745 Q 36.994219653179194 187.4373795761079 35.02119460500963 165.73410404624278 L 35.02119460500963 86.8131021194605 L 35.02119460500963 86.8131021194605 Q 36.00770712909441 50.3121387283237 60.67052023121387 25.649325626204238 Q 85.33333333333333 0.9865125240847784 121.83429672447014 0 L 390.1657032755299 0 L 390.1657032755299 0 Q 426.6666666666667 0.9865125240847784 451.32947976878614 25.649325626204238 Q 475.9922928709056 50.3121387283237 476.9788053949904 86.8131021194605 L 476.9788053949904 165.73410404624278 L 476.9788053949904 165.73410404624278 Q 475.0057803468208 187.4373795761079 453.30250481695566 189.41040462427745 Q 431.59922928709057 187.4373795761079 429.626204238921 165.73410404624278 L 429.626204238921 86.8131021194605 L 429.626204238921 86.8131021194605 Q 429.626204238921 70.04238921001927 417.78805394990366 59.190751445086704 Q 406.9364161849711 47.35260115606936 390.1657032755299 47.35260115606936 L 121.83429672447014 47.35260115606936 L 121.83429672447014 47.35260115606936 Q 105.0635838150289 47.35260115606936 94.21194605009634 59.190751445086704 Q 82.373795761079 70.04238921001927 82.373795761079 86.8131021194605 L 82.373795761079 165.73410404624278 L 82.373795761079 165.73410404624278 Z" />
</svg>