<svg xmlns="http://www.w3.org/2000/svg" viewBox="0 0 294 512">
    <path d="M 171 464 L 171 350 Q 205 344 231 325 Q 257 305 273 276 Q 294 239 290 193 L 275 15 Q 272 1 259 0 L 251 0 L 43 0 L 35 0 Q 22 1 19 15 L 4 193 Q 0 239 21 276 Q 37 305 63 325 Q 89 344 123 350 L 123 464 L 59 464 Q 57 464 56 464 Q 37 468 35 488 Q 37 508 56 512 Q 57 512 59 512 L 59 512 L 147 512 L 235 512 Q 237 512 238 512 Q 257 508 259 488 Q 257 468 238 464 Q 237 464 235 464 L 235 464 L 171 464 L 171 464 Z M 65 48 L 229 48 L 235 128 L 59 128 L 65 48 L 65 48 Z M 55 176 L 239 176 L 241 202 Q 243 245 216 274 Q 189 303 147 304 Q 105 303 78 274 Q 51 245 53 202 L 55 176 L 55 176 Z"/>
</svg>
