<svg xmlns="http://www.w3.org/2000/svg" viewBox="0 0 512 512">
  <path d="M 184 0 L 24 0 L 184 0 L 24 0 Q 2 2 0 24 L 0 184 L 0 184 Q 2 206 24 208 Q 46 206 48 184 L 48 82 L 48 82 L 295 329 L 295 329 Q 312 343 329 329 Q 343 312 329 295 L 82 48 L 82 48 L 184 48 L 184 48 Q 206 46 208 24 Q 206 2 184 0 L 184 0 Z M 288 64 Q 266 66 264 88 Q 266 110 288 112 Q 363 114 412 164 Q 462 213 464 288 Q 462 363 412 412 Q 363 462 288 464 Q 213 462 164 412 Q 114 363 112 288 Q 110 266 88 264 Q 66 266 64 288 Q 65 351 95 401 Q 124 452 175 481 Q 225 511 288 512 Q 351 511 401 481 Q 452 452 481 401 Q 511 351 512 288 Q 511 225 481 175 Q 452 124 401 95 Q 351 65 288 64 L 288 64 Z" />
</svg>