<svg xmlns="http://www.w3.org/2000/svg" viewBox="0 0 640 512">
    <path d="M 175 389 L 224 310 L 224 48 L 232 48 Q 254 46 256 24 Q 254 2 232 0 L 224 0 L 176 0 L 80 0 L 32 0 L 24 0 Q 2 2 0 24 Q 2 46 24 48 L 32 48 L 32 352 Q 33 393 60 420 Q 87 447 128 448 Q 145 448 160 443 Q 160 414 175 389 L 175 389 Z M 80 48 L 176 48 L 176 160 L 80 160 L 80 48 L 80 48 Z M 80 208 L 176 208 L 176 352 Q 175 372 162 386 Q 148 399 128 400 Q 108 399 94 386 Q 81 372 80 352 L 80 208 L 80 208 Z M 312 0 Q 290 2 288 24 Q 290 46 312 48 L 320 48 L 320 217 L 202 409 Q 192 425 192 444 Q 193 473 212 492 Q 231 511 260 512 L 572 512 Q 601 511 620 492 Q 639 473 640 444 Q 640 425 630 409 L 512 217 L 512 48 L 520 48 Q 542 46 544 24 Q 542 2 520 0 L 312 0 L 312 0 Z M 464 48 L 464 224 Q 464 231 468 237 L 519 320 L 313 320 L 364 237 Q 368 231 368 224 L 368 48 L 464 48 L 464 48 Z M 243 434 L 284 368 L 548 368 L 589 434 Q 592 439 592 444 Q 590 462 572 464 L 260 464 Q 242 462 240 444 Q 240 439 243 434 L 243 434 Z"/>
</svg>
