<svg xmlns="http://www.w3.org/2000/svg" viewBox="0 0 512 512">
  <path d="M 128 48 Q 113 49 112 64 L 112 448 L 112 448 Q 113 463 128 464 L 384 464 L 384 464 Q 399 463 400 448 L 400 64 L 400 64 Q 399 49 384 48 L 128 48 L 128 48 Z M 64 64 Q 65 37 83 19 L 83 19 L 83 19 Q 101 1 128 0 L 384 0 L 384 0 Q 411 1 429 19 Q 447 37 448 64 L 448 448 L 448 448 Q 447 475 429 493 Q 411 511 384 512 L 128 512 L 128 512 Q 101 511 83 493 Q 65 475 64 448 L 64 64 L 64 64 Z M 239 141 Q 256 127 273 141 L 296 164 L 296 164 L 355 224 L 355 224 Q 372 241 372 263 Q 372 285 355 303 Q 338 319 316 319 Q 293 319 276 303 L 273 300 L 273 300 Q 272 299 272 299 L 272 336 L 272 336 L 288 336 L 288 336 Q 302 337 304 352 Q 302 367 288 368 L 224 368 L 224 368 Q 209 367 208 352 Q 209 337 224 336 L 240 336 L 240 336 L 240 299 L 240 299 Q 240 299 240 299 Q 239 299 239 300 L 236 303 L 236 303 Q 219 319 196 319 Q 174 319 157 303 Q 140 285 140 263 Q 140 241 157 224 L 216 164 L 216 164 L 239 141 L 239 141 Z" />
</svg>