<svg xmlns="http://www.w3.org/2000/svg" viewBox="0 0 512 512">
  <path d="M 161.29479768786126 24.66281310211946 Q 135.64547206165705 0.9865125240847784 97.17148362235068 0 Q 57.71098265895954 0.9865125240847784 31.07514450867052 27.622350674373795 Q 4.4393063583815024 54.25818882466281 3.4527938342967244 93.71868978805395 Q 3.4527938342967244 122.32755298651253 18.2504816955684 144.03082851637765 L 161.29479768786126 24.66281310211946 L 161.29479768786126 24.66281310211946 Z M 256 110.48940269749518 Q 303.35260115606934 110.48940269749518 342.8131021194605 134.16570327552986 L 342.8131021194605 134.16570327552986 L 342.8131021194605 134.16570327552986 Q 382.27360308285165 156.85549132947978 405.9499036608863 197.3025048169557 Q 429.626204238921 238.7360308285164 429.626204238921 284.11560693641616 Q 429.626204238921 329.495183044316 405.9499036608863 370.9287090558767 Q 382.27360308285165 411.3757225433526 342.8131021194605 434.0655105973025 Q 303.35260115606934 457.7418111753372 256 457.7418111753372 Q 208.64739884393063 457.7418111753372 169.1868978805395 434.0655105973025 Q 129.72639691714835 411.3757225433526 106.05009633911368 370.9287090558767 Q 82.373795761079 329.495183044316 82.373795761079 284.11560693641616 Q 82.373795761079 238.7360308285164 106.05009633911368 197.3025048169557 Q 129.72639691714835 156.85549132947978 169.1868978805395 134.16570327552986 Q 208.64739884393063 110.48940269749518 256 110.48940269749518 L 256 110.48940269749518 Z M 256 505.09441233140655 Q 335.90751445086704 503.12138728323697 395.0982658959538 456.7552986512524 L 436.53179190751445 498.1888246628131 L 436.53179190751445 498.1888246628131 Q 453.30250481695566 512 470.07321772639693 498.1888246628131 Q 483.88439306358384 481.4181117533719 470.07321772639693 464.64739884393066 L 427.6531791907515 423.21387283236993 L 427.6531791907515 423.21387283236993 Q 475.0057803468208 364.02312138728325 476.9788053949904 284.11560693641616 Q 475.9922928709056 221.96531791907515 446.39691714836226 172.63969171483623 Q 417.78805394990366 122.32755298651253 367.47591522157995 93.71868978805395 Q 318.15028901734104 64.1233140655106 256 63.13680154142582 Q 193.84971098265896 64.1233140655106 144.52408477842005 93.71868978805395 Q 94.21194605009634 122.32755298651253 65.60308285163777 172.63969171483623 Q 36.00770712909441 221.96531791907515 35.02119460500963 284.11560693641616 Q 36.994219653179194 364.02312138728325 84.34682080924856 423.21387283236993 L 41.92678227360308 464.64739884393066 L 41.92678227360308 464.64739884393066 Q 28.115606936416185 481.4181117533719 41.92678227360308 498.1888246628131 Q 58.69749518304432 512 75.46820809248555 498.1888246628131 L 116.90173410404624 455.76878612716763 L 116.90173410404624 455.76878612716763 Q 176.09248554913296 503.12138728323697 256 505.09441233140655 L 256 505.09441233140655 Z M 493.7495183044316 144.03082851637765 Q 508.5472061657033 122.32755298651253 508.5472061657033 93.71868978805395 Q 507.5606936416185 54.25818882466281 480.9248554913295 27.622350674373795 Q 454.28901734104045 0.9865125240847784 414.82851637764935 0 Q 376.354527938343 0.9865125240847784 350.70520231213874 24.66281310211946 L 493.7495183044316 144.03082851637765 L 493.7495183044316 144.03082851637765 Z M 279.67630057803467 181.51830443159923 Q 277.70327552986515 159.8150289017341 256 157.84200385356453 Q 234.29672447013488 159.8150289017341 232.32369942196533 181.51830443159923 L 232.32369942196533 284.11560693641616 L 232.32369942196533 284.11560693641616 Q 232.32369942196533 293.980732177264 239.22928709055876 300.88631984585743 L 286.5818882466281 348.23892100192677 L 286.5818882466281 348.23892100192677 Q 303.35260115606934 362.0500963391137 320.1233140655106 348.23892100192677 Q 333.9344894026975 331.46820809248555 320.1233140655106 314.69749518304434 L 279.67630057803467 274.2504816955684 L 279.67630057803467 274.2504816955684 L 279.67630057803467 181.51830443159923 L 279.67630057803467 181.51830443159923 Z" />
</svg>