<svg xmlns="http://www.w3.org/2000/svg" viewBox="0 0 512 512">
  <path d="M 36.01223241590214 59.49847094801223 Q 21.137614678899084 50.103975535168196 9.394495412844037 62.62996941896024 Q 0 77.5045871559633 12.525993883792049 89.24770642201835 L 475.98776758409787 452.50152905198775 L 475.98776758409787 452.50152905198775 Q 490.86238532110093 461.8960244648318 502.60550458715596 449.37003058103977 Q 512 434.4954128440367 499.47400611620793 422.7522935779817 L 406.3119266055046 349.9449541284404 L 406.3119266055046 349.9449541284404 L 406.3119266055046 155.79204892966362 L 406.3119266055046 155.79204892966362 L 412.5749235474006 155.79204892966362 L 412.5749235474006 155.79204892966362 Q 429.79816513761466 154.2262996941896 431.3639143730887 137.00305810397555 Q 429.79816513761466 119.77981651376147 412.5749235474006 118.21406727828746 L 406.3119266055046 118.21406727828746 L 357.7737003058104 118.21406727828746 L 329.5902140672783 75.1559633027523 L 329.5902140672783 75.1559633027523 Q 315.49847094801225 56.36697247706422 292.79510703363917 55.584097859327215 L 219.20489296636086 55.584097859327215 L 219.20489296636086 55.584097859327215 Q 196.50152905198777 56.36697247706422 183.19266055045873 75.1559633027523 L 154.2262996941896 118.21406727828746 L 154.2262996941896 118.21406727828746 L 143.26605504587155 118.21406727828746 L 110.38532110091744 118.21406727828746 L 36.01223241590214 59.49847094801223 L 36.01223241590214 59.49847094801223 Z M 158.92354740061162 155.79204892966362 L 368.73394495412845 155.79204892966362 L 158.92354740061162 155.79204892966362 L 368.73394495412845 155.79204892966362 L 368.73394495412845 320.19571865443424 L 368.73394495412845 320.19571865443424 L 331.1559633027523 291.22935779816515 L 331.1559633027523 291.22935779816515 L 331.1559633027523 205.8960244648318 L 331.1559633027523 205.8960244648318 Q 330.3730886850153 194.15290519877675 318.62996941896023 193.37003058103974 Q 306.8868501529052 194.15290519877675 306.1039755351682 205.8960244648318 L 306.1039755351682 271.65749235474004 L 306.1039755351682 271.65749235474004 L 268.52599388379207 241.90825688073394 L 268.52599388379207 241.90825688073394 L 268.52599388379207 205.8960244648318 L 268.52599388379207 205.8960244648318 Q 267.74311926605503 194.15290519877675 256 193.37003058103974 Q 244.25688073394497 194.15290519877675 243.47400611620796 205.8960244648318 L 243.47400611620796 222.33639143730886 L 243.47400611620796 222.33639143730886 L 158.92354740061162 155.79204892966362 L 158.92354740061162 155.79204892966362 Z M 361.6880733944954 411.0091743119266 Q 354.64220183486236 418.83792048929666 343.68195718654437 418.83792048929666 L 168.31804281345566 418.83792048929666 L 168.31804281345566 418.83792048929666 Q 157.3577981651376 418.83792048929666 150.3119266055046 411.7920489296636 Q 143.26605504587155 404.7461773700306 143.26605504587155 393.7859327217125 L 143.26605504587155 239.55963302752295 L 143.26605504587155 239.55963302752295 L 105.68807339449542 209.81039755351682 L 105.68807339449542 209.81039755351682 L 105.68807339449542 393.7859327217125 L 105.68807339449542 393.7859327217125 Q 106.47094801223241 420.4036697247706 123.69418960244649 438.4097859327217 Q 141.70030581039757 455.6330275229358 168.31804281345566 456.41590214067276 L 343.68195718654437 456.41590214067276 L 343.68195718654437 456.41590214067276 Q 373.43119266055044 455.6330275229358 391.43730886850153 434.4954128440367 L 361.6880733944954 411.0091743119266 L 361.6880733944954 411.0091743119266 Z M 268.52599388379207 338.20183486238534 L 243.47400611620796 318.62996941896023 L 268.52599388379207 338.20183486238534 L 243.47400611620796 318.62996941896023 L 243.47400611620796 368.73394495412845 L 243.47400611620796 368.73394495412845 Q 244.25688073394497 380.4770642201835 256 381.2599388379205 Q 267.74311926605503 380.4770642201835 268.52599388379207 368.73394495412845 L 268.52599388379207 338.20183486238534 L 268.52599388379207 338.20183486238534 Z M 180.8440366972477 269.30886850152905 L 180.8440366972477 368.73394495412845 L 180.8440366972477 269.30886850152905 L 180.8440366972477 368.73394495412845 Q 181.6269113149847 380.4770642201835 193.37003058103974 381.2599388379205 Q 205.1131498470948 380.4770642201835 205.8960244648318 368.73394495412845 L 205.8960244648318 288.8807339449541 L 205.8960244648318 288.8807339449541 L 180.8440366972477 269.30886850152905 L 180.8440366972477 269.30886850152905 Z M 219.20489296636086 93.16207951070336 L 292.79510703363917 93.16207951070336 L 219.20489296636086 93.16207951070336 L 292.79510703363917 93.16207951070336 Q 295.92660550458714 93.16207951070336 298.27522935779814 96.29357798165138 L 313.1498470948012 118.21406727828746 L 313.1498470948012 118.21406727828746 L 199.63302752293578 118.21406727828746 L 199.63302752293578 118.21406727828746 L 214.50764525993884 96.29357798165138 L 214.50764525993884 96.29357798165138 Q 216.07339449541286 93.16207951070336 219.20489296636086 93.16207951070336 L 219.20489296636086 93.16207951070336 Z" />
</svg>