<svg xmlns="http://www.w3.org/2000/svg" viewBox="0 0 640 514">
    <path d="M 318 7 Q 328 14 328 26 L 328 178 L 360 178 Q 382 180 384 202 Q 382 224 360 226 L 304 226 L 248 226 Q 226 224 224 202 Q 226 180 248 178 L 280 178 L 280 59 L 264 65 Q 242 70 233 50 Q 228 28 248 19 L 296 3 Q 308 0 318 7 L 318 7 Z M 94 295 Q 104 302 104 314 L 104 466 L 136 466 Q 158 468 160 490 Q 158 512 136 514 L 80 514 L 24 514 Q 2 512 0 490 Q 2 468 24 466 L 56 466 L 56 347 L 40 353 Q 18 358 9 338 Q 4 316 24 307 L 72 291 Q 84 288 94 295 L 94 295 Z M 72 2 L 120 2 Q 151 3 171 23 Q 191 43 192 74 L 192 154 Q 191 185 171 205 Q 151 225 120 226 L 72 226 Q 41 225 21 205 Q 1 185 0 154 L 0 74 Q 1 43 21 23 Q 41 3 72 2 L 72 2 Z M 48 74 L 48 154 Q 50 176 72 178 L 120 178 Q 142 176 144 154 L 144 74 Q 142 52 120 50 L 72 50 Q 50 52 48 74 L 48 74 Z M 192 362 Q 193 331 213 311 L 213 311 Q 233 291 264 290 L 312 290 Q 325 290 337 295 Q 327 316 323 340 Q 318 338 312 338 L 264 338 Q 242 340 240 362 L 240 442 Q 242 464 264 466 L 312 466 L 312 466 L 349 466 Q 357 478 367 489 Q 346 513 312 514 L 264 514 Q 233 513 213 493 Q 193 473 192 442 L 192 362 L 192 362 Z M 352 370 Q 352 331 371 298 L 371 298 Q 390 265 424 245 Q 458 226 496 226 Q 534 226 568 245 Q 602 265 621 298 Q 640 331 640 370 Q 640 409 621 442 Q 602 475 568 495 Q 534 514 496 514 Q 458 514 424 495 Q 390 475 371 442 Q 352 409 352 370 L 352 370 Z M 563 327 Q 552 317 541 327 L 480 387 L 451 359 Q 440 349 429 359 Q 419 370 429 381 L 469 421 Q 480 431 491 421 L 563 349 Q 573 338 563 327 L 563 327 Z"/>
</svg>
