<svg xmlns="http://www.w3.org/2000/svg" viewBox="0 0 512 512">
  <path d="M 286.6519 30.651884 Q 286.6519 14.758315 273.02884 6.81153 Q 258.2705 0 244.64745 7.946785 L 126.58093 80.6031 L 126.58093 80.6031 Q 107.28159 95.36142 117.49889 118.06652 Q 133.39246 137.36586 154.96231 126.013306 L 232.15965 79.46785 L 232.15965 79.46785 L 232.15965 457.50775 L 232.15965 457.50775 L 141.33925 457.50775 L 141.33925 457.50775 Q 116.36364 459.77826 114.093124 484.75388 Q 116.36364 509.7295 141.33925 512 L 259.40576 512 L 377.4723 512 Q 402.4479 509.7295 404.7184 484.75388 Q 402.4479 459.77826 377.4723 457.50775 L 286.6519 457.50775 L 286.6519 457.50775 L 286.6519 30.651884 L 286.6519 30.651884 Z" />
</svg>