<svg xmlns="http://www.w3.org/2000/svg" viewBox="0 0 512 512">
  <path d="M 164.24779 0.5663717 Q 194.83186 1.699115 211.82301 27.752213 Q 225.41592 54.938053 211.82301 82.12389 Q 194.83186 108.176994 164.24779 109.30974 Q 133.66371 108.176994 116.67257 82.12389 Q 103.07964 54.938053 116.67257 27.752213 Q 133.66371 1.699115 164.24779 0.5663717 L 164.24779 0.5663717 Z M 183.50443 215.78761 L 202.76106 301.8761 L 183.50443 215.78761 L 202.76106 301.8761 Q 205.02655 308.67258 211.82301 308.67258 L 229.9469 308.67258 L 229.9469 308.67258 L 208.42477 210.1239 L 208.42477 210.1239 Q 205.02655 201.06195 195.9646 199.9292 Q 182.37169 202.19469 183.50443 215.78761 L 183.50443 215.78761 Z M 261.66373 197.66371 L 261.66373 199.9292 L 261.66373 197.66371 L 261.66373 199.9292 L 336.42477 199.9292 L 336.42477 199.9292 Q 361.34512 202.19469 363.61063 227.11505 Q 361.34512 252.0354 336.42477 254.30089 L 274.1239 254.30089 L 274.1239 254.30089 L 285.45132 308.67258 L 285.45132 308.67258 L 326.2301 308.67258 L 326.2301 308.67258 Q 352.28317 308.67258 372.67258 323.39822 Q 393.06195 336.99115 402.1239 361.9115 L 434.97345 448 L 434.97345 448 L 473.48672 436.67258 L 473.48672 436.67258 Q 498.40707 432.1416 507.46902 455.9292 Q 512 479.71683 489.34512 488.77875 L 425.9115 506.90265 L 425.9115 506.90265 Q 402.1239 511.43362 393.06195 491.04425 L 351.15045 381.16815 L 351.15045 381.16815 Q 344.35397 364.177 326.2301 363.04425 L 265.06195 363.04425 L 265.06195 363.04425 Q 263.9292 363.04425 263.9292 363.04425 Q 263.9292 363.04425 263.9292 363.04425 L 211.82301 363.04425 L 211.82301 363.04425 Q 189.16814 363.04425 172.17699 349.45132 Q 155.18584 335.8584 149.52213 313.20355 L 130.26549 227.11505 L 130.26549 227.11505 Q 124.60177 194.26549 143.85841 170.47787 Q 163.11505 146.69026 195.9646 145.55753 Q 219.75221 145.55753 237.8761 160.28319 Q 256 175.00885 261.66373 197.66371 L 261.66373 197.66371 Z M 55.504425 131.9646 L 94.0177 350.58408 L 55.504425 131.9646 L 94.0177 350.58408 Q 99.68142 380.0354 121.20354 398.1593 Q 143.85841 417.41592 174.44247 417.41592 L 282.0531 417.41592 L 282.0531 417.41592 Q 306.97345 419.68143 309.23895 444.60178 Q 306.97345 469.52213 282.0531 471.7876 L 174.44247 471.7876 L 174.44247 471.7876 Q 123.469025 470.65488 86.08849 440.0708 Q 49.84071 409.48672 39.64602 359.64603 L 1.1327434 141.02655 L 1.1327434 141.02655 Q 0 116.10619 23.787611 109.30974 Q 48.707966 108.176994 55.504425 131.9646 L 55.504425 131.9646 Z" />
</svg>