<svg xmlns="http://www.w3.org/2000/svg" viewBox="0 0 384 512">
    <path d="M 64 48 Q 65 28 78 14 L 78 14 Q 92 1 112 0 L 272 0 Q 292 1 306 14 Q 319 28 320 48 L 320 66 Q 348 72 366 93 Q 383 114 384 144 L 384 368 Q 383 398 366 419 Q 348 440 320 446 L 320 464 Q 319 484 306 498 Q 292 511 272 512 L 112 512 Q 92 511 78 498 Q 65 484 64 464 L 64 446 Q 36 440 18 419 Q 1 398 0 368 L 0 144 Q 1 114 18 93 Q 36 72 64 66 L 64 48 L 64 48 Z M 80 112 Q 66 112 57 121 L 57 121 Q 48 130 48 144 L 48 368 Q 48 382 57 391 Q 66 400 80 400 L 304 400 Q 318 400 327 391 Q 336 382 336 368 L 336 144 Q 336 130 327 121 Q 318 112 304 112 L 80 112 L 80 112 Z M 216 184 L 216 245 L 255 278 Q 271 293 259 311 Q 243 327 225 315 L 177 275 Q 168 267 168 256 L 168 184 Q 170 162 192 160 Q 214 162 216 184 L 216 184 Z"/>
</svg>
