<svg xmlns="http://www.w3.org/2000/svg" viewBox="0 0 512 512">
  <path d="M 73.14285714285714 54.857142857142854 Q 56 56 54.857142857142854 73.14285714285714 L 54.857142857142854 438.85714285714283 L 54.857142857142854 438.85714285714283 Q 56 456 73.14285714285714 457.14285714285717 L 438.85714285714283 457.14285714285717 L 438.85714285714283 457.14285714285717 Q 456 456 457.14285714285717 438.85714285714283 L 457.14285714285717 73.14285714285714 L 457.14285714285717 73.14285714285714 Q 456 56 438.85714285714283 54.857142857142854 L 73.14285714285714 54.857142857142854 L 73.14285714285714 54.857142857142854 Z M 0 73.14285714285714 Q 1.1428571428571428 42.285714285714285 21.714285714285715 21.714285714285715 L 21.714285714285715 21.714285714285715 L 21.714285714285715 21.714285714285715 Q 42.285714285714285 1.1428571428571428 73.14285714285714 0 L 438.85714285714283 0 L 438.85714285714283 0 Q 469.7142857142857 1.1428571428571428 490.2857142857143 21.714285714285715 Q 510.85714285714283 42.285714285714285 512 73.14285714285714 L 512 438.85714285714283 L 512 438.85714285714283 Q 510.85714285714283 469.7142857142857 490.2857142857143 490.2857142857143 Q 469.7142857142857 510.85714285714283 438.85714285714283 512 L 73.14285714285714 512 L 73.14285714285714 512 Q 42.285714285714285 510.85714285714283 21.714285714285715 490.2857142857143 Q 1.1428571428571428 469.7142857142857 0 438.85714285714283 L 0 73.14285714285714 L 0 73.14285714285714 Z M 146.28571428571428 116.57142857142857 Q 148.57142857142858 93.71428571428571 171.42857142857142 91.42857142857143 L 201.14285714285714 91.42857142857143 L 201.14285714285714 91.42857142857143 L 237.71428571428572 164.57142857142858 L 237.71428571428572 164.57142857142858 L 201.14285714285714 201.14285714285714 L 201.14285714285714 201.14285714285714 L 292.57142857142856 274.2857142857143 L 292.57142857142856 274.2857142857143 L 256 201.14285714285714 L 256 201.14285714285714 L 310.85714285714283 164.57142857142858 L 310.85714285714283 164.57142857142858 L 274.2857142857143 91.42857142857143 L 274.2857142857143 91.42857142857143 L 340.57142857142856 91.42857142857143 L 340.57142857142856 91.42857142857143 Q 363.42857142857144 93.71428571428571 365.7142857142857 116.57142857142857 L 365.7142857142857 219.42857142857142 L 365.7142857142857 219.42857142857142 Q 364.57142857142856 260.57142857142856 339.42857142857144 290.2857142857143 Q 314.2857142857143 320 274.2857142857143 328 L 274.2857142857143 384 L 274.2857142857143 384 L 310.85714285714283 384 L 310.85714285714283 384 Q 328 385.14285714285717 329.14285714285717 402.2857142857143 Q 328 419.42857142857144 310.85714285714283 420.57142857142856 L 201.14285714285714 420.57142857142856 L 201.14285714285714 420.57142857142856 Q 184 419.42857142857144 182.85714285714286 402.2857142857143 Q 184 385.14285714285717 201.14285714285714 384 L 237.71428571428572 384 L 237.71428571428572 384 L 237.71428571428572 328 L 237.71428571428572 328 Q 197.71428571428572 320 172.57142857142858 290.2857142857143 Q 147.42857142857142 260.57142857142856 146.28571428571428 219.42857142857142 L 146.28571428571428 116.57142857142857 L 146.28571428571428 116.57142857142857 Z" />
</svg>