<svg xmlns="http://www.w3.org/2000/svg" viewBox="0 0 589 518">
    <path d="M 135 24 Q 137 46 159 48 L 245 48 L 14 279 Q 0 296 14 313 Q 31 327 48 313 L 279 82 L 279 168 Q 281 190 303 192 Q 325 190 327 168 L 327 24 Q 325 2 303 0 L 159 0 Q 137 2 135 24 L 135 24 Z M 583 80 Q 582 53 559 38 Q 535 26 511 38 Q 488 53 487 80 Q 488 107 511 122 Q 535 134 559 122 Q 582 107 583 80 L 583 80 Z M 455 208 Q 454 181 431 166 Q 407 154 383 166 Q 360 181 359 208 Q 360 235 383 250 Q 407 262 431 250 Q 454 235 455 208 L 455 208 Z M 407 384 Q 434 383 449 360 Q 461 336 449 312 Q 434 289 407 288 Q 380 289 365 312 Q 353 336 365 360 Q 380 383 407 384 L 407 384 Z M 455 464 Q 454 437 431 422 Q 407 410 383 422 Q 360 437 359 464 Q 360 491 383 506 Q 407 518 431 506 Q 454 491 455 464 L 455 464 Z M 583 464 Q 582 437 559 422 Q 535 410 511 422 Q 488 437 487 464 Q 488 491 511 506 Q 535 518 559 506 Q 582 491 583 464 L 583 464 Z M 279 384 Q 306 383 321 360 Q 333 336 321 312 Q 306 289 279 288 Q 252 289 237 312 Q 225 336 237 360 Q 252 383 279 384 L 279 384 Z M 327 464 Q 326 437 303 422 Q 279 410 255 422 Q 232 437 231 464 Q 232 491 255 506 Q 279 518 303 506 Q 326 491 327 464 L 327 464 Z M 151 512 Q 178 511 193 488 Q 205 464 193 440 Q 178 417 151 416 Q 124 417 109 440 Q 97 464 109 488 Q 124 511 151 512 L 151 512 Z M 583 336 Q 582 309 559 294 Q 535 282 511 294 Q 488 309 487 336 Q 488 363 511 378 Q 535 390 559 378 Q 582 363 583 336 L 583 336 Z M 535 256 Q 562 255 577 232 Q 589 208 577 184 Q 562 161 535 160 Q 508 161 493 184 Q 481 208 493 232 Q 508 255 535 256 L 535 256 Z"/>
</svg>
