<svg xmlns="http://www.w3.org/2000/svg" viewBox="0 0 512 512">
  <path d="M 64 32 Q 37 33 19 51 L 19 51 L 19 51 Q 1 69 0 96 L 0 416 L 0 416 Q 1 443 19 461 Q 37 479 64 480 L 448 480 L 448 480 Q 475 479 493 461 Q 511 443 512 416 L 512 160 L 512 160 Q 511 133 493 115 Q 475 97 448 96 L 290 96 L 290 96 L 247 53 L 247 53 Q 226 32 196 32 L 64 32 L 64 32 Z M 48 96 Q 49 81 64 80 L 196 80 L 196 80 Q 206 80 213 87 L 256 130 L 256 130 L 256 304 L 256 304 Q 256 314 265 318 Q 274 322 282 317 L 336 276 L 336 276 L 390 317 L 390 317 Q 398 322 407 318 Q 416 314 416 304 L 416 144 L 416 144 L 448 144 L 448 144 Q 463 145 464 160 L 464 416 L 464 416 Q 463 431 448 432 L 64 432 L 64 432 Q 49 431 48 416 L 48 96 L 48 96 Z" />
</svg>