<svg xmlns="http://www.w3.org/2000/svg" viewBox="0 0 512 512">
  <path d="M 97.94782 65.89217 Q 113.08522 53.426086 128.22261 65.89217 L 213.70435 151.37392 L 213.70435 151.37392 Q 226.17044 166.5113 213.70435 181.6487 Q 198.56696 194.11478 183.42957 181.6487 L 134.45566 132.67479 L 134.45566 132.67479 L 134.45566 437.2035 L 134.45566 437.2035 Q 132.67479 456.79303 113.08522 458.5739 Q 93.49565 456.79303 91.71478 437.2035 L 91.71478 132.67479 L 91.71478 132.67479 L 42.74087 181.6487 L 42.74087 181.6487 Q 27.603477 194.11478 12.466087 181.6487 Q 0 166.5113 12.466087 151.37392 L 97.94782 65.89217 L 97.94782 65.89217 Z M 276.92523 458.5739 Q 257.33566 456.79303 255.55478 437.2035 Q 257.33566 417.61392 276.92523 415.83304 L 319.66608 415.83304 L 319.66608 415.83304 Q 339.25565 417.61392 341.03653 437.2035 Q 339.25565 456.79303 319.66608 458.5739 L 276.92523 458.5739 L 276.92523 458.5739 Z M 276.92523 344.59827 Q 257.33566 342.81738 255.55478 323.2278 Q 257.33566 303.63828 276.92523 301.8574 L 376.6539 301.8574 L 376.6539 301.8574 Q 396.24347 303.63828 398.02435 323.2278 Q 396.24347 342.81738 376.6539 344.59827 L 276.92523 344.59827 L 276.92523 344.59827 Z M 276.92523 230.6226 Q 257.33566 228.84174 255.55478 209.25217 Q 257.33566 189.66261 276.92523 187.88174 L 433.64175 187.88174 L 433.64175 187.88174 Q 453.2313 189.66261 455.01218 209.25217 Q 453.2313 228.84174 433.64175 230.6226 L 276.92523 230.6226 L 276.92523 230.6226 Z M 276.92523 116.64696 Q 257.33566 114.86609 255.55478 95.27652 Q 257.33566 75.68696 276.92523 73.90609 L 490.62958 73.90609 L 490.62958 73.90609 Q 510.21912 75.68696 512 95.27652 Q 510.21912 114.86609 490.62958 116.64696 L 276.92523 116.64696 L 276.92523 116.64696 Z" />
</svg>