<svg xmlns="http://www.w3.org/2000/svg" viewBox="0 0 384 512">
    <path d="M 48 288 L 48 64 Q 49 49 64 48 L 96 48 L 96 144 Q 97 159 112 160 Q 127 159 128 144 L 128 48 L 192 48 L 192 112 Q 193 127 208 128 Q 223 127 224 112 L 224 48 L 320 48 Q 335 49 336 64 L 336 288 L 48 288 L 48 288 Z M 0 320 Q 1 347 19 365 L 19 365 Q 37 383 64 384 L 128 384 L 128 448 Q 129 475 147 493 Q 165 511 192 512 Q 219 511 237 493 Q 255 475 256 448 L 256 384 L 320 384 Q 347 383 365 365 Q 383 347 384 320 L 384 64 Q 383 37 365 19 Q 347 1 320 0 L 64 0 Q 37 1 19 19 Q 1 37 0 64 L 0 320 L 0 320 Z M 192 432 Q 207 433 208 448 Q 207 463 192 464 Q 177 463 176 448 Q 177 433 192 432 L 192 432 Z"/>
</svg>
