<svg xmlns="http://www.w3.org/2000/svg" viewBox="0 0 512 512">
  <path d="M 76.8 156.8 Q 76.8 160 76.8 163.2 L 115.2 390.4 L 115.2 390.4 L 153.6 163.2 L 153.6 163.2 L 153.6 163.2 L 153.6 163.2 Q 153.6 160 153.6 156.8 L 153.6 153.6 L 153.6 153.6 Q 150.4 118.4 115.2 115.2 Q 80 118.4 76.8 153.6 L 76.8 156.8 L 76.8 156.8 Z M 230.4 156.8 Q 230.4 166.4 228.8 176 L 190.4 411.2 L 190.4 411.2 Q 184 438.4 164.8 456 Q 144 473.6 115.2 473.6 Q 86.4 473.6 65.6 456 Q 46.4 438.4 40 411.2 L 1.6 176 L 1.6 176 Q 0 166.4 0 156.8 L 0 153.6 L 0 153.6 Q 1.6 104 33.6 72 Q 65.6 40 115.2 38.4 Q 164.8 40 196.8 72 Q 228.8 104 230.4 153.6 L 230.4 156.8 L 230.4 156.8 Z M 358.4 156.8 Q 358.4 160 358.4 163.2 L 396.8 390.4 L 396.8 390.4 L 435.2 163.2 L 435.2 163.2 Q 435.2 160 435.2 156.8 L 435.2 153.6 L 435.2 153.6 Q 432 118.4 396.8 115.2 Q 361.6 118.4 358.4 153.6 L 358.4 156.8 L 358.4 156.8 Z M 512 156.8 Q 512 166.4 510.4 176 L 472 411.2 L 472 411.2 Q 465.6 438.4 446.4 456 Q 425.6 473.6 396.8 473.6 Q 368 473.6 347.2 456 Q 328 438.4 321.6 411.2 L 283.2 176 L 283.2 176 Q 281.6 166.4 281.6 156.8 L 281.6 153.6 L 281.6 153.6 Q 283.2 104 315.2 72 Q 347.2 40 396.8 38.4 Q 446.4 40 478.4 72 Q 510.4 104 512 153.6 L 512 156.8 L 512 156.8 Z" />
</svg>