<svg xmlns="http://www.w3.org/2000/svg" viewBox="0 0 512 512">
  <path d="M 382.54877 508.517 Q 386.03174 512 391.83673 512 Q 403.44672 510.839 404.6077 499.22903 L 404.6077 484.13605 L 404.6077 484.13605 L 404.6077 458.59412 L 404.6077 458.59412 L 404.6077 452.78912 L 404.6077 452.78912 L 404.6077 66.17687 L 404.6077 66.17687 L 390.67575 52.2449 L 390.67575 52.2449 Q 361.6508 23.219955 324.49887 11.609978 Q 286.18594 0 245.55103 5.804989 Q 185.17914 17.414967 146.86621 62.69388 Q 108.55329 106.81179 107.39229 169.50568 L 107.39229 176.47165 L 107.39229 176.47165 Q 108.55329 251.93651 163.12018 303.02042 L 348.87982 477.17007 L 348.87982 477.17007 L 352.36282 480.65308 L 352.36282 480.65308 L 372.09976 499.22903 L 372.09976 499.22903 L 382.54877 508.517 L 382.54877 508.517 Z M 348.87982 401.7052 L 200.27211 262.3855 L 348.87982 401.7052 L 200.27211 262.3855 Q 164.28117 227.55556 163.12018 176.47165 L 163.12018 169.50568 L 163.12018 169.50568 Q 164.28117 128.87074 189.82314 98.68481 Q 214.20409 68.49886 254.839 60.371883 Q 308.2449 53.405895 348.87982 89.39683 L 348.87982 401.7052 L 348.87982 401.7052 Z" />
</svg>