<svg xmlns="http://www.w3.org/2000/svg" viewBox="0 0 512 512">
  <path d="M 229.33333333333334 152 Q 199.11111111111111 128 177.77777777777777 128 Q 163.55555555555554 128 140.44444444444446 140.44444444444446 Q 118.22222222222223 153.77777777777777 96 171.55555555555554 Q 72 190.22222222222223 56 207.11111111111111 Q 48 216 44.44444444444444 222.22222222222223 Q 42.666666666666664 227.55555555555554 42.666666666666664 227.55555555555554 Q 42.666666666666664 228.44444444444446 43.55555555555556 231.11111111111111 Q 43.55555555555556 234.66666666666666 45.333333333333336 238.22222222222223 Q 59.55555555555556 278.22222222222223 90.66666666666667 314.6666666666667 Q 114.66666666666667 343.1111111111111 149.33333333333334 363.55555555555554 Q 184 383.1111111111111 227.55555555555554 384 L 284.44444444444446 384 L 284.44444444444446 384 Q 328 383.1111111111111 362.6666666666667 363.55555555555554 Q 397.3333333333333 343.1111111111111 421.3333333333333 314.6666666666667 Q 445.3333333333333 285.3333333333333 457.77777777777777 259.55555555555554 Q 469.3333333333333 236.44444444444446 469.3333333333333 227.55555555555554 Q 469.3333333333333 227.55555555555554 467.55555555555554 222.22222222222223 Q 464 216 456 207.11111111111111 Q 440 190.22222222222223 416 171.55555555555554 Q 393.77777777777777 153.77777777777777 371.55555555555554 140.44444444444446 Q 348.44444444444446 128 334.22222222222223 128 Q 312.8888888888889 128 282.6666666666667 152 Q 270.22222222222223 160.88888888888889 256 160.88888888888889 Q 241.77777777777777 160.88888888888889 229.33333333333334 152 L 229.33333333333334 152 Z M 442.6666666666667 137.77777777777777 Q 468.44444444444446 158.22222222222223 487.1111111111111 178.66666666666666 Q 496.8888888888889 188.44444444444446 504 200.88888888888889 Q 512 213.33333333333334 512 227.55555555555554 Q 509.3333333333333 255.11111111111111 496 279.1111111111111 Q 481.77777777777777 308.44444444444446 453.3333333333333 342.22222222222223 Q 425.77777777777777 375.1111111111111 383.1111111111111 400 Q 341.3333333333333 425.77777777777777 284.44444444444446 426.6666666666667 L 227.55555555555554 426.6666666666667 L 227.55555555555554 426.6666666666667 Q 170.66666666666666 425.77777777777777 128.88888888888889 400 Q 86.22222222222223 375.1111111111111 58.666666666666664 342.22222222222223 Q 23.11111111111111 302.22222222222223 4.444444444444445 252.44444444444446 Q 0.8888888888888888 240 0 227.55555555555554 Q 0 213.33333333333334 8 200.88888888888889 Q 15.11111111111111 189.33333333333334 24.88888888888889 178.66666666666666 Q 43.55555555555556 158.22222222222223 69.33333333333333 137.77777777777777 Q 92.44444444444444 119.11111111111111 120 103.11111111111111 Q 148.44444444444446 86.22222222222223 177.77777777777777 85.33333333333333 Q 200 85.33333333333333 219.55555555555554 95.11111111111111 Q 239.11111111111111 104.88888888888889 256 118.22222222222223 Q 272.8888888888889 104.88888888888889 292.44444444444446 95.11111111111111 Q 312 85.33333333333333 334.22222222222223 85.33333333333333 Q 363.55555555555554 86.22222222222223 392 103.11111111111111 Q 419.55555555555554 119.11111111111111 442.6666666666667 137.77777777777777 L 442.6666666666667 137.77777777777777 Z M 85.33333333333333 238.22222222222223 Q 85.33333333333333 232.88888888888889 112 224 L 112 224 L 112 224 Q 137.77777777777777 215.11111111111111 190.22222222222223 213.33333333333334 Q 194.66666666666666 213.33333333333334 199.11111111111111 215.11111111111111 Q 208 217.77777777777777 224.88888888888889 221.33333333333334 Q 240.88888888888889 225.77777777777777 256 225.77777777777777 Q 271.1111111111111 225.77777777777777 287.1111111111111 221.33333333333334 Q 304 217.77777777777777 312.8888888888889 215.11111111111111 Q 317.3333333333333 213.33333333333334 321.77777777777777 213.33333333333334 Q 374.22222222222223 215.11111111111111 400 224 Q 426.6666666666667 232.88888888888889 426.6666666666667 238.22222222222223 Q 426.6666666666667 242.66666666666666 407.1111111111111 260.44444444444446 Q 386.6666666666667 278.22222222222223 349.3333333333333 295.1111111111111 Q 311.1111111111111 312 256 312.8888888888889 Q 200.88888888888889 312 162.66666666666666 295.1111111111111 Q 125.33333333333333 278.22222222222223 104.88888888888889 260.44444444444446 Q 85.33333333333333 242.66666666666666 85.33333333333333 238.22222222222223 L 85.33333333333333 238.22222222222223 Z" />
</svg>