<svg xmlns="http://www.w3.org/2000/svg" viewBox="0 0 448 453">
    <path d="M 246 15 Q 240 1 224 0 Q 208 1 202 15 L 127 192 L 24 192 Q 2 194 0 216 Q 2 238 24 240 L 107 240 L 87 288 L 24 288 Q 2 290 0 312 Q 2 334 24 336 L 67 336 L 34 415 Q 27 436 47 446 Q 68 453 78 433 L 119 336 L 329 336 L 370 433 Q 380 453 401 446 Q 421 436 414 415 L 381 336 L 424 336 Q 446 334 448 312 Q 446 290 424 288 L 361 288 L 341 240 L 424 240 Q 446 238 448 216 Q 446 194 424 192 L 321 192 L 246 15 L 246 15 Z M 269 192 L 180 192 L 224 86 L 269 192 L 269 192 Z M 159 240 L 289 240 L 309 288 L 139 288 L 159 240 L 159 240 Z"/>
</svg>
