<svg xmlns="http://www.w3.org/2000/svg" viewBox="0 0 642 481">
    <path d="M 156 57 Q 170 51 184 56 L 370 122 Q 380 125 389 120 L 472 77 Q 495 65 521 65 L 571 65 Q 580 65 584 72 Q 589 79 585 87 Q 558 143 503 173 L 253 304 Q 251 305 249 305 L 128 305 Q 124 305 122 302 L 55 225 L 78 213 Q 82 212 85 213 L 143 239 Q 154 243 164 238 L 252 192 Q 264 185 265 172 Q 265 158 254 150 L 125 69 L 156 57 L 156 57 Z M 200 11 Q 168 0 137 12 L 92 31 Q 70 42 68 65 Q 66 87 86 102 L 193 169 L 152 190 L 105 169 Q 80 159 57 170 L 67 191 L 57 170 L 25 186 Q 7 196 3 214 Q 0 232 12 248 L 85 334 L 103 318 L 85 333 Q 102 352 128 353 L 249 353 Q 263 353 275 347 L 526 215 Q 595 178 629 107 Q 642 74 625 46 Q 607 19 571 17 L 521 17 Q 483 17 450 34 L 376 73 L 200 11 L 200 11 Z M 25 433 Q 3 435 1 457 Q 3 479 25 481 L 617 481 Q 639 479 641 457 Q 639 435 617 433 L 25 433 L 25 433 Z"/>
</svg>
