<svg xmlns="http://www.w3.org/2000/svg" viewBox="0 0 576 517">
    <path d="M 288 165 Q 261 164 243 147 L 243 147 Q 225 130 224 105 Q 226 86 243 58 Q 261 30 276 12 Q 288 0 300 12 Q 315 30 333 58 Q 350 86 352 105 Q 351 130 333 147 Q 315 164 288 165 L 288 165 Z M 64 133 L 198 133 Q 209 163 235 181 L 64 181 Q 49 182 48 197 L 48 453 Q 49 468 64 469 L 416 469 L 416 389 Q 416 375 425 366 Q 434 357 448 357 L 528 357 L 528 197 Q 527 182 512 181 L 341 181 Q 368 163 379 133 L 512 133 Q 539 134 557 152 Q 575 170 576 197 L 576 369 Q 576 389 562 403 L 462 503 Q 448 517 428 517 L 64 517 Q 37 516 19 498 Q 1 480 0 453 L 0 197 Q 1 170 19 152 Q 37 134 64 133 L 64 133 Z M 112 213 Q 126 213 135 222 L 135 222 Q 144 231 144 245 Q 144 259 135 268 Q 126 277 112 277 Q 98 277 89 268 Q 80 259 80 245 Q 80 231 89 222 Q 98 213 112 213 L 112 213 Z"/>
</svg>
