<svg xmlns="http://www.w3.org/2000/svg" viewBox="0 0 512 512">
  <path d="M 341.3333333333333 0 L 375.46666666666664 0 L 341.3333333333333 0 L 375.46666666666664 0 Q 433.06666666666666 1.0666666666666667 472.53333333333336 39.46666666666667 Q 510.93333333333334 78.93333333333334 512 136.53333333333333 L 512 170.66666666666666 L 512 170.66666666666666 Q 510.93333333333334 265.6 465.06666666666666 342.4 Q 420.26666666666665 420.26666666666665 342.4 465.06666666666666 Q 265.6 510.93333333333334 170.66666666666666 512 L 136.53333333333333 512 L 136.53333333333333 512 Q 78.93333333333334 510.93333333333334 39.46666666666667 472.53333333333336 Q 1.0666666666666667 433.06666666666666 0 375.46666666666664 L 0 341.3333333333333 L 0 341.3333333333333 Q 1.0666666666666667 246.4 46.93333333333333 169.6 Q 91.73333333333333 91.73333333333333 169.6 46.93333333333333 Q 246.4 1.0666666666666667 341.3333333333333 0 L 341.3333333333333 0 Z M 312.53333333333336 52.266666666666666 Q 220.8 62.93333333333333 153.6 120.53333333333333 Q 135.46666666666667 135.46666666666667 119.46666666666667 154.66666666666666 Q 61.86666666666667 221.86666666666667 52.266666666666666 314.6666666666667 Q 90.66666666666667 241.06666666666666 166.4 164.26666666666668 Q 240 90.66666666666667 311.46666666666664 52.266666666666666 L 312.53333333333336 52.266666666666666 Z M 197.33333333333334 459.73333333333335 Q 290.1333333333333 450.1333333333333 357.3333333333333 392.53333333333336 Q 376.53333333333336 376.53333333333336 391.46666666666664 358.4 Q 449.06666666666666 291.2 459.73333333333335 199.46666666666667 Q 421.3333333333333 270.93333333333334 347.73333333333335 345.6 Q 270.93333333333334 421.3333333333333 196.26666666666668 459.73333333333335 L 197.33333333333334 459.73333333333335 Z M 78.93333333333334 432 Q 82.13333333333334 438.4 103.46666666666667 437.3333333333333 Q 124.8 436.26666666666665 158.93333333333334 421.3333333333333 Q 229.33333333333334 389.3333333333333 311.46666666666664 309.3333333333333 Q 391.46666666666664 227.2 423.46666666666664 156.8 Q 438.4 122.66666666666667 440.53333333333336 101.33333333333333 Q 440.53333333333336 80 435.2 76.8 Q 430.93333333333334 71.46666666666667 410.6666666666667 71.46666666666667 Q 389.3333333333333 72.53333333333333 355.2 88.53333333333333 Q 284.8 120.53333333333333 202.66666666666666 200.53333333333333 Q 122.66666666666667 281.6 90.66666666666667 353.06666666666666 Q 75.73333333333333 387.2 73.6 408.53333333333336 Q 73.6 428.8 78.93333333333334 432 L 78.93333333333334 432 Z" />
</svg>