<svg xmlns="http://www.w3.org/2000/svg" viewBox="0 0 518 518">
    <path d="M 85 11 Q 68 0 53 13 L 13 53 Q 0 68 11 85 L 91 189 Q 98 198 110 198 L 164 198 L 273 307 Q 262 329 266 354 Q 269 378 287 397 L 399 509 Q 409 518 422 518 Q 435 518 445 509 L 509 445 Q 518 435 518 422 Q 518 409 509 399 L 397 287 Q 378 269 354 266 Q 329 262 307 273 L 198 164 L 198 110 Q 198 98 189 91 L 85 11 L 85 11 Z M 29 383 Q 6 406 6 439 Q 7 472 29 495 Q 52 517 85 518 Q 118 518 141 495 L 245 392 Q 231 365 233 335 L 107 461 Q 98 470 85 470 Q 72 470 63 461 Q 54 452 54 439 Q 54 426 63 417 L 200 280 L 166 246 L 29 383 L 29 383 Z M 470 170 Q 469 199 454 223 L 454 223 Q 440 247 416 262 Q 418 263 419 265 L 451 296 Q 482 274 500 241 Q 518 207 518 166 Q 518 129 502 97 Q 493 83 479 93 L 411 161 Q 406 166 399 166 L 374 166 Q 359 165 358 150 L 358 125 Q 358 118 363 113 L 431 45 Q 441 31 427 22 Q 395 6 358 6 Q 315 6 279 27 Q 244 47 222 81 Q 230 95 230 110 L 230 151 L 246 167 L 246 166 Q 247 119 278 88 Q 308 57 354 54 L 329 79 L 329 79 Q 310 98 310 125 L 310 150 Q 311 177 329 195 Q 347 213 374 214 L 399 214 Q 426 214 445 195 L 470 170 L 470 170 Z"/>
</svg>
