<svg xmlns="http://www.w3.org/2000/svg" viewBox="0 0 512 512">
  <path d="M 268.97467 1.9961014 Q 242.0273 0 222.06628 15.968811 L 222.06628 15.968811 L 222.06628 15.968811 Q 202.10527 31.937622 199.11111 58.88499 L 192.12476 119.76608 L 192.12476 119.76608 L 175.1579 70.861595 L 175.1579 70.861595 Q 165.17738 44.91228 142.22223 33.933723 Q 119.26706 22.955166 93.31774 31.937622 Q 68.36647 40.92008 57.387913 63.875244 Q 46.409355 86.83041 54.39376 112.779724 L 107.29045 262.48734 L 107.29045 262.48734 Q 83.337234 285.4425 82.33918 320.37427 L 82.33918 320.37427 L 82.33918 320.37427 L 82.33918 344.32748 L 82.33918 344.32748 Q 84.33528 415.1891 131.24367 463.09552 Q 179.1501 510.0039 250.0117 512 L 297.91812 512 L 297.91812 512 Q 368.77972 510.0039 416.68616 463.09552 Q 463.59454 415.1891 465.59064 344.32748 L 465.59064 272.46783 L 465.59064 272.46783 L 465.59064 256.49902 L 465.59064 256.49902 L 465.59064 224.5614 L 465.59064 224.5614 Q 464.5926 197.61403 446.6277 179.64912 Q 428.66278 161.6842 401.7154 160.68616 Q 389.7388 160.68616 379.75827 164.67836 Q 361.79337 130.74464 321.87134 128.74854 Q 320.8733 128.74854 320.8733 128.74854 Q 319.87524 128.74854 319.87524 128.74854 L 325.86356 72.8577 L 325.86356 72.8577 Q 327.85965 45.91033 311.89084 25.949318 Q 295.92203 5.988304 268.97467 1.9961014 L 268.97467 1.9961014 Z M 268.97467 157.692 Q 257.9961 172.66277 257.9961 192.62378 L 257.9961 240.53021 L 257.9961 240.53021 Q 257.9961 241.52826 257.9961 241.52826 Q 257.9961 242.52632 257.9961 242.52632 Q 250.0117 240.53021 242.0273 240.53021 L 235.04094 240.53021 L 235.04094 240.53021 L 229.05263 225.55945 L 229.05263 225.55945 L 246.0195 63.875244 L 246.0195 63.875244 Q 249.01364 49.902534 263.9844 49.902534 Q 277.95712 52.896687 277.95712 67.86745 L 268.97467 157.692 L 268.97467 157.692 Z M 129.24756 86.83041 L 184.14035 240.53021 L 129.24756 86.83041 L 184.14035 240.53021 L 162.18324 240.53021 L 162.18324 240.53021 Q 156.19493 240.53021 150.20663 241.52826 L 99.306046 96.81091 L 99.306046 96.81091 Q 96.31189 82.8382 109.28655 76.8499 Q 123.25926 72.8577 129.24756 86.83041 L 129.24756 86.83041 Z M 305.90253 192.62378 Q 306.90057 177.65302 321.87134 176.65497 Q 336.8421 177.65302 337.84015 192.62378 L 337.84015 224.5614 L 337.84015 224.5614 L 337.84015 240.53021 L 337.84015 240.53021 Q 336.8421 255.50098 321.87134 256.49902 Q 306.90057 255.50098 305.90253 240.53021 L 305.90253 192.62378 L 305.90253 192.62378 Z M 343.82846 300.41327 Q 361.79337 334.347 401.7154 336.34308 Q 409.6998 336.34308 417.6842 334.347 L 417.6842 344.32748 L 417.6842 344.32748 Q 416.68616 395.22806 382.75244 429.1618 Q 348.81873 463.09552 297.91812 464.09357 L 250.0117 464.09357 L 250.0117 464.09357 Q 199.11111 463.09552 165.17738 429.1618 Q 131.24367 395.22806 130.24562 344.32748 L 130.24562 320.37427 L 130.24562 320.37427 L 130.24562 320.37427 L 130.24562 320.37427 Q 130.24562 306.40155 139.22807 297.4191 Q 148.21053 288.43665 162.18324 288.43665 L 242.0273 288.43665 L 242.0273 288.43665 Q 256.99805 289.4347 257.9961 304.40546 Q 256.99805 319.37622 242.0273 320.37427 L 202.10527 320.37427 L 202.10527 320.37427 Q 180.14815 322.37036 178.15205 344.32748 Q 180.14815 366.2846 202.10527 368.2807 L 242.0273 368.2807 L 242.0273 368.2807 Q 268.97467 367.28265 286.93958 349.31775 Q 304.90448 331.3528 305.90253 304.40546 Q 305.90253 303.4074 305.90253 303.4074 Q 305.90253 302.40936 305.90253 302.40936 Q 313.88693 304.40546 321.87134 304.40546 Q 333.84796 304.40546 343.82846 300.41327 L 343.82846 300.41327 Z M 417.6842 272.46783 Q 416.68616 287.4386 401.7154 288.43665 Q 386.74463 287.4386 385.74658 272.46783 L 385.74658 240.53021 L 385.74658 240.53021 L 385.74658 224.5614 L 385.74658 224.5614 Q 386.74463 209.59064 401.7154 208.59259 Q 416.68616 209.59064 417.6842 224.5614 L 417.6842 256.49902 L 417.6842 256.49902 L 417.6842 272.46783 L 417.6842 272.46783 Z" />
</svg>