<svg xmlns="http://www.w3.org/2000/svg" viewBox="0 0 512 512">
  <path d="M 494.17407 7.922631 Q 512 18.816248 504.07736 39.61315 L 288.1857 472.38684 L 288.1857 472.38684 Q 267.3888 510.01935 223.81432 512 L 55.458412 512 L 55.458412 512 Q 31.690523 511.00967 15.845262 496.15472 Q 0.99032885 480.30948 0 456.5416 L 0 348.59573 L 0 348.59573 Q 0.99032885 319.87622 22.777563 304.03094 Q 43.574467 288.1857 71.30367 296.1083 L 290.16635 361.47003 L 290.16635 361.47003 L 462.48355 17.825918 L 462.48355 17.825918 Q 473.37717 0 494.17407 7.922631 L 494.17407 7.922631 Z M 268.37912 405.0445 L 57.43907 341.66345 L 268.37912 405.0445 L 57.43907 341.66345 Q 48.52611 339.6828 47.53578 348.59573 L 47.53578 369.39264 L 47.53578 369.39264 L 79.2263 369.39264 L 79.2263 369.39264 Q 94.08124 370.38297 95.07156 385.2379 Q 94.08124 400.09283 79.2263 401.08316 L 47.53578 401.08316 L 47.53578 401.08316 L 47.53578 416.92844 L 47.53578 416.92844 L 79.2263 416.92844 L 79.2263 416.92844 Q 94.08124 417.91876 95.07156 432.77368 Q 94.08124 447.62863 79.2263 448.61896 L 47.53578 448.61896 L 47.53578 448.61896 L 47.53578 456.5416 L 47.53578 456.5416 Q 48.52611 463.47388 55.458412 464.4642 L 223.81432 464.4642 L 223.81432 464.4642 Q 238.66925 464.4642 245.60155 451.58994 L 268.37912 405.0445 L 268.37912 405.0445 Z" />
</svg>