<svg xmlns="http://www.w3.org/2000/svg" viewBox="0 0 576 384">
    <path d="M 64 48 Q 49 49 48 64 L 48 320 Q 49 335 64 336 L 512 336 Q 527 335 528 320 L 528 64 Q 527 49 512 48 L 64 48 L 64 48 Z M 0 64 Q 1 37 19 19 L 19 19 Q 37 1 64 0 L 512 0 Q 539 1 557 19 Q 575 37 576 64 L 576 320 Q 575 347 557 365 Q 539 383 512 384 L 64 384 Q 37 383 19 365 Q 1 347 0 320 L 0 64 L 0 64 Z M 288 96 Q 314 96 336 109 L 336 109 Q 358 122 371 144 Q 384 167 384 192 Q 384 217 371 240 Q 358 262 336 275 Q 314 288 288 288 Q 262 288 240 275 Q 218 262 205 240 Q 192 217 192 192 Q 192 167 205 144 Q 218 122 240 109 Q 262 96 288 96 L 288 96 Z"/>
</svg>
