<svg xmlns="http://www.w3.org/2000/svg" viewBox="0 0 512 512">
  <path d="M 257.9845 159.25581 Q 259.969 137.42636 267.90698 117.5814 Q 245.08527 78.88372 243.10077 29.271318 Q 241.11627 11.410852 224.24806 5.4573646 Q 212.34108 2.4806201 203.41086 10.418605 Q 185.55038 30.263565 163.72093 76.89922 Q 184.55814 119.565895 226.23256 143.37985 Q 242.10852 152.31007 257.9845 159.25581 L 257.9845 159.25581 Z M 400.86823 160.24806 Q 399.87598 145.36433 384.99225 144.37209 Q 370.10852 145.36433 369.11627 160.24806 Q 370.10852 175.13179 384.99225 176.12402 Q 399.87598 175.13179 400.86823 160.24806 L 400.86823 160.24806 Z M 179.5969 207.87598 Q 214.32558 229.70543 249.05426 240.62015 L 249.05426 240.62015 L 249.05426 240.62015 Q 283.78296 251.53488 310.57364 254.51163 Q 321.48837 255.50388 329.42636 248.55814 Q 337.36435 241.6124 337.36435 230.69768 L 337.36435 168.18605 L 337.36435 168.18605 Q 338.3566 144.37209 353.2403 128.49612 Q 369.11627 113.612404 392.93024 112.620155 L 454.44962 112.620155 L 454.44962 112.620155 L 436.58914 139.41086 L 436.58914 139.41086 Q 432.62015 145.36433 432.62015 152.31007 L 432.62015 295.1938 L 432.62015 295.1938 Q 431.6279 338.85272 402.85272 368.62015 Q 373.08527 397.39536 329.42636 398.3876 L 271.87598 398.3876 L 271.87598 398.3876 Q 262.94574 398.3876 256.99225 403.34885 L 183.56589 461.89148 L 183.56589 461.89148 Q 136.93024 459.90698 105.17829 444.031 Q 73.42635 427.16278 57.55039 410.2946 L 156.77519 383.50388 L 156.77519 383.50388 Q 170.66667 379.53488 173.64342 364.65115 Q 175.62791 350.7597 164.71318 341.82947 Q 135.93799 321.9845 110.139534 284.27908 Q 85.333336 245.58139 83.34884 184.06201 Q 84.34109 137.42636 92.27907 111.62791 Q 125.023254 175.13179 179.5969 207.87598 L 179.5969 207.87598 Z M 94.263565 33.24031 Q 78.387596 33.24031 69.45737 47.131783 Q 58.542637 62.015503 47.627907 93.76744 Q 36.713177 126.51163 35.720932 184.06201 Q 36.713177 241.6124 55.56589 282.2946 Q 74.4186 322.97675 101.209305 349.76746 L 33.736435 367.6279 L 33.736435 367.6279 Q 12.899225 373.5814 5.9534883 393.42636 Q 0 413.27133 11.906977 430.13953 Q 28.775194 453.9535 73.42635 480.74417 Q 118.07752 507.53488 186.54263 509.51938 Q 200.43411 509.51938 211.34883 500.58914 L 279.81396 446.0155 L 279.81396 446.0155 L 329.42636 446.0155 L 329.42636 446.0155 Q 393.9225 444.031 435.5969 401.36435 Q 478.26358 359.6899 480.24805 295.1938 L 480.24805 159.25581 L 480.24805 159.25581 L 506.0465 120.558136 L 506.0465 120.558136 Q 512 111.62791 512 100.71318 Q 512 85.82946 501.08527 75.906975 Q 491.16278 64.99225 476.27908 64.99225 L 392.93024 64.99225 L 392.93024 64.99225 Q 349.27133 65.9845 319.50388 94.75969 Q 290.72867 124.52713 289.73642 168.18605 L 289.73642 202.91473 L 289.73642 202.91473 Q 249.05426 193.9845 205.39536 167.1938 Q 176.62015 149.33333 154.7907 122.54263 Q 132.96124 94.75969 124.031006 56.062016 Q 117.08527 35.224808 94.263565 33.24031 L 94.263565 33.24031 Z" />
</svg>