<svg xmlns="http://www.w3.org/2000/svg" viewBox="0 0 512 512">
  <path d="M 284 148.8 Q 303.2 168 328.8 158.4 Q 339.2 153.6 352 153.6 Q 376.8 154.4 392.8 170.4 Q 408.8 186.4 409.6 211.2 Q 409.6 216 408.8 220.8 Q 407.2 233.6 412.8 244.8 Q 419.2 256 431.2 261.6 Q 450.4 270.4 461.6 287.2 Q 473.6 304.8 473.6 326.4 Q 472.8 355.2 454.4 374.4 Q 436 394.4 407.2 396.8 Q 406.4 396.8 405.6 396.8 L 403.2 396.8 L 115.2 396.8 Q 82.4 396 60.8 374.4 Q 39.2 352.8 38.4 320 Q 38.4 294.4 52.8 275.2 Q 66.4 256 89.6 248 Q 113.6 237.6 115.2 211.2 L 115.2 211.2 L 115.2 211.2 L 115.2 211.2 L 115.2 211.2 L 115.2 211.2 L 115.2 211.2 Q 116 170.4 143.2 143.2 Q 170.4 116 211.2 115.2 Q 256 116.8 284 148.8 L 284 148.8 Z M 409.6 435.2 L 409.6 435.2 L 409.6 435.2 L 409.6 435.2 Q 453.6 431.2 482.4 401.6 Q 511.2 371.2 512 326.4 Q 511.2 292.8 493.6 266.4 Q 476 240 447.2 226.4 Q 448 219.2 448 211.2 Q 447.2 170.4 420 143.2 Q 392.8 116 352 115.2 Q 331.2 115.2 312.8 123.2 Q 294.4 101.6 268 89.6 Q 241.6 76.8 211.2 76.8 Q 154.4 78.4 116 116 Q 78.4 154.4 76.8 211.2 L 76.8 211.2 L 76.8 211.2 Q 42.4 224 21.6 252.8 Q 0.8 281.6 0 320 Q 1.6 368.8 33.6 401.6 Q 66.4 433.6 115.2 435.2 L 371.2 435.2 L 409.6 435.2 Z M 140.8 224 L 140.8 236.8 L 140.8 224 L 140.8 236.8 Q 140.8 250.4 150.4 259.2 Q 159.2 268.8 172.8 268.8 L 185.6 268.8 L 185.6 268.8 Q 199.2 268.8 208 259.2 Q 217.6 250.4 217.6 236.8 L 217.6 224 L 217.6 224 Q 217.6 210.4 208 201.6 Q 199.2 192 185.6 192 L 172.8 192 L 172.8 192 Q 159.2 192 150.4 201.6 Q 140.8 210.4 140.8 224 L 140.8 224 Z M 172.8 217.6 L 185.6 217.6 L 172.8 217.6 L 185.6 217.6 Q 191.2 218.4 192 224 L 192 236.8 L 192 236.8 Q 191.2 242.4 185.6 243.2 L 172.8 243.2 L 172.8 243.2 Q 167.2 242.4 166.4 236.8 L 166.4 224 L 166.4 224 Q 167.2 218.4 172.8 217.6 L 172.8 217.6 Z M 230.4 204.8 Q 231.2 216.8 243.2 217.6 L 243.2 256 L 243.2 256 Q 244 268 256 268.8 Q 268 268 268.8 256 L 268.8 204.8 L 268.8 204.8 Q 268 192.8 256 192 L 243.2 192 L 243.2 192 Q 231.2 192.8 230.4 204.8 L 230.4 204.8 Z M 326.4 192 Q 312.8 192 304 201.6 L 304 201.6 L 304 201.6 Q 294.4 210.4 294.4 224 L 294.4 236.8 L 294.4 236.8 Q 294.4 250.4 304 259.2 Q 312.8 268.8 326.4 268.8 L 339.2 268.8 L 339.2 268.8 Q 352.8 268.8 361.6 259.2 Q 371.2 250.4 371.2 236.8 L 371.2 224 L 371.2 224 Q 371.2 210.4 361.6 201.6 Q 352.8 192 339.2 192 L 326.4 192 L 326.4 192 Z M 320 224 Q 320.8 218.4 326.4 217.6 L 339.2 217.6 L 339.2 217.6 Q 344.8 218.4 345.6 224 L 345.6 236.8 L 345.6 236.8 Q 344.8 242.4 339.2 243.2 L 326.4 243.2 L 326.4 243.2 Q 320.8 242.4 320 236.8 L 320 224 L 320 224 Z M 153.6 307.2 Q 154.4 319.2 166.4 320 L 166.4 358.4 L 166.4 358.4 Q 167.2 370.4 179.2 371.2 Q 191.2 370.4 192 358.4 L 192 307.2 L 192 307.2 Q 191.2 295.2 179.2 294.4 L 166.4 294.4 L 166.4 294.4 Q 154.4 295.2 153.6 307.2 L 153.6 307.2 Z M 217.6 326.4 L 217.6 339.2 L 217.6 326.4 L 217.6 339.2 Q 217.6 352.8 227.2 361.6 Q 236 371.2 249.6 371.2 L 262.4 371.2 L 262.4 371.2 Q 276 371.2 284.8 361.6 Q 294.4 352.8 294.4 339.2 L 294.4 326.4 L 294.4 326.4 Q 294.4 312.8 284.8 304 Q 276 294.4 262.4 294.4 L 249.6 294.4 L 249.6 294.4 Q 236 294.4 227.2 304 Q 217.6 312.8 217.6 326.4 L 217.6 326.4 Z M 249.6 320 L 262.4 320 L 249.6 320 L 262.4 320 Q 268 320.8 268.8 326.4 L 268.8 339.2 L 268.8 339.2 Q 268 344.8 262.4 345.6 L 249.6 345.6 L 249.6 345.6 Q 244 344.8 243.2 339.2 L 243.2 326.4 L 243.2 326.4 Q 244 320.8 249.6 320 L 249.6 320 Z M 320 294.4 Q 308 295.2 307.2 307.2 Q 308 319.2 320 320 L 320 358.4 L 320 358.4 Q 320.8 370.4 332.8 371.2 Q 344.8 370.4 345.6 358.4 L 345.6 307.2 L 345.6 307.2 Q 344.8 295.2 332.8 294.4 L 320 294.4 L 320 294.4 Z" />
</svg>