<svg xmlns="http://www.w3.org/2000/svg" viewBox="0 0 512 512">
  <path d="M 247 48 L 204 137 L 247 48 L 204 137 L 280 97 L 280 97 L 280 48 L 280 48 L 247 48 L 247 48 Z M 169 210 L 130 290 L 169 210 L 130 290 L 159 319 L 159 319 L 235 243 L 235 243 L 261 162 L 261 162 L 169 210 L 169 210 Z M 328 40 L 328 80 L 328 40 L 328 80 L 400 80 L 400 80 Q 414 80 423 89 Q 432 98 432 112 L 432 184 L 432 184 L 472 184 L 472 184 Q 489 184 500 196 Q 512 207 512 224 L 512 270 L 512 270 Q 511 294 490 306 L 248 424 L 248 424 Q 246 426 245 427 L 193 479 L 193 479 Q 160 511 113 512 Q 65 511 33 479 Q 1 447 0 399 Q 1 352 33 319 L 85 267 L 85 267 Q 86 266 88 265 L 206 23 L 206 23 Q 218 1 242 0 L 288 0 L 288 0 Q 305 0 316 12 Q 328 23 328 40 L 328 40 Z M 222 382 L 302 343 L 222 382 L 302 343 L 350 251 L 350 251 L 269 277 L 269 277 L 193 353 L 193 353 L 222 382 L 222 382 Z M 293 219 L 384 190 L 293 219 L 384 190 L 384 128 L 384 128 L 322 128 L 322 128 L 293 219 L 293 219 Z M 188 416 L 96 324 L 188 416 L 96 324 L 73 347 L 73 347 L 165 439 L 165 439 L 188 416 L 188 416 Z M 140 458 L 54 372 L 140 458 L 54 372 Q 48 385 48 399 Q 49 427 67 445 Q 85 463 113 464 Q 127 464 140 458 L 140 458 Z M 375 308 L 464 265 L 375 308 L 464 265 L 464 232 L 464 232 L 415 232 L 415 232 L 375 308 L 375 308 Z" />
</svg>