<svg xmlns="http://www.w3.org/2000/svg" viewBox="0 0 654 526">
    <path d="M 46 12 Q 27 0 12 16 Q 0 35 16 50 L 608 514 Q 627 526 642 510 Q 654 491 638 476 L 519 383 L 519 55 Q 518 35 505 21 Q 491 8 471 7 L 183 7 Q 163 8 149 21 Q 136 35 135 55 L 135 82 L 46 12 L 46 12 Z M 183 120 L 183 55 L 471 55 L 471 345 L 183 120 L 183 120 Z M 517 505 L 322 352 Q 317 352 313 356 L 183 448 L 183 242 L 135 204 L 135 495 Q 136 509 148 516 Q 161 522 173 515 L 327 405 L 481 515 Q 493 522 506 516 Q 514 512 517 505 L 517 505 Z"/>
</svg>
