<svg xmlns="http://www.w3.org/2000/svg" viewBox="0 0 512 512">
  <path d="M 339.2 89.6 Q 320 90.4 307.2 102.4 L 307.2 102.4 L 307.2 102.4 Q 295.2 115.2 294.4 134.4 Q 294.4 141.6 289.6 146.4 L 257.6 184.8 L 257.6 184.8 Q 252 192 243.2 192 L 209.6 192 L 209.6 192 Q 176.8 192.8 154.4 214.4 Q 131.2 235.2 128.8 268 Q 128 282.4 118.4 291.2 Q 108.8 300.8 94.4 300.8 L 91.2 300.8 L 91.2 300.8 Q 64 299.2 54.4 273.6 L 46.4 247.2 L 46.4 247.2 L 45.6 248.8 L 45.6 248.8 Q 38.4 266.4 38.4 284.8 L 38.4 288 L 38.4 288 Q 39.2 323.2 62.4 347.2 Q 86.4 370.4 121.6 371.2 L 153.6 371.2 L 153.6 371.2 L 153.6 352 L 153.6 352 Q 155.2 334.4 172.8 332.8 Q 190.4 334.4 192 352 L 192 376 L 192 376 L 238.4 422.4 L 238.4 422.4 L 307.2 422.4 L 307.2 422.4 L 307.2 409.6 L 307.2 409.6 Q 306.4 397.6 294.4 396.8 L 275.2 396.8 L 275.2 396.8 Q 264.8 396.8 259.2 388 L 246.4 368.8 L 246.4 368.8 Q 239.2 357.6 247.2 346.4 L 261.6 328.8 L 261.6 328.8 Q 268.8 320 268.8 308.8 L 268.8 307.2 L 268.8 307.2 Q 268 291.2 257.6 280 Q 246.4 269.6 230.4 268.8 Q 212.8 267.2 211.2 249.6 Q 212.8 232 230.4 230.4 Q 263.2 231.2 284.8 252.8 Q 306.4 274.4 307.2 307.2 L 307.2 308.8 L 307.2 308.8 Q 307.2 332.8 292 352.8 L 287.2 358.4 L 287.2 358.4 L 294.4 358.4 L 294.4 358.4 Q 316 359.2 330.4 373.6 Q 344.8 388 345.6 409.6 L 345.6 441.6 L 345.6 441.6 Q 344 459.2 326.4 460.8 L 230.4 460.8 L 230.4 460.8 Q 222.4 460.8 216.8 455.2 L 171.2 409.6 L 171.2 409.6 L 121.6 409.6 L 121.6 409.6 Q 69.6 408 36 373.6 Q 1.6 340 0 288 L 0 284.8 L 0 284.8 Q 0 258.4 9.6 234.4 L 25.6 194.4 L 25.6 194.4 Q 32 180 48 179.2 Q 64.8 180 70.4 196 L 90.4 261.6 L 90.4 261.6 Q 96 215.2 128.8 184.8 Q 162.4 154.4 209.6 153.6 L 234.4 153.6 L 234.4 153.6 L 256 127.2 L 256 127.2 Q 260 94.4 282.4 73.6 Q 305.6 52 339.2 51.2 Q 349.6 51.2 359.2 53.6 Q 368 51.2 377.6 51.2 Q 411.2 52 432 76.8 Q 466.4 79.2 488.8 102.4 Q 511.2 125.6 512 160 L 512 179.2 L 512 179.2 Q 512 198.4 500 212 Q 488.8 225.6 471.2 229.6 L 466.4 235.2 L 466.4 235.2 L 451.2 224 L 451.2 224 L 466.4 235.2 L 466.4 235.2 Q 451.2 255.2 425.6 256 L 368 256 L 368 256 L 356 272.8 L 356 272.8 L 393.6 293.6 L 393.6 293.6 Q 408.8 302.4 409.6 321.6 L 409.6 339.2 L 409.6 339.2 Q 408 356.8 390.4 358.4 Q 372.8 356.8 371.2 339.2 L 371.2 324.8 L 371.2 324.8 L 332.8 303.2 L 332.8 303.2 Q 332 277.6 320 256 L 343.2 225.6 L 343.2 225.6 Q 348.8 217.6 358.4 217.6 L 425.6 217.6 L 425.6 217.6 Q 426.4 217.6 427.2 217.6 Q 427.2 217.6 427.2 217.6 Q 416 216 408 208 L 393.6 193.6 L 393.6 193.6 Q 392 192 388.8 192 L 371.2 192 L 371.2 192 Q 359.2 191.2 358.4 179.2 Q 359.2 168 371.2 166.4 L 388.8 166.4 L 388.8 166.4 Q 402.4 166.4 411.2 176 L 425.6 190.4 L 425.6 190.4 Q 428 192 430.4 192 L 460.8 192 L 460.8 192 Q 472.8 191.2 473.6 179.2 L 473.6 160 L 473.6 160 Q 472.8 140.8 460.8 128 Q 448 116 428.8 115.2 L 422.4 115.2 L 422.4 115.2 Q 411.2 115.2 405.6 105.6 Q 396 90.4 377.6 89.6 Q 371.2 89.6 366.4 92 Q 360 93.6 353.6 92 Q 346.4 89.6 339.2 89.6 L 339.2 89.6 Z M 364.8 121.6 Q 365.6 109.6 377.6 108.8 Q 389.6 109.6 390.4 121.6 Q 389.6 133.6 377.6 134.4 Q 365.6 133.6 364.8 121.6 L 364.8 121.6 Z" />
</svg>