<svg xmlns="http://www.w3.org/2000/svg" viewBox="0 0 512 512">
  <path d="M 9.394495 62.62997 Q 21.137615 50.103977 36.012234 59.49847 L 75.938835 90.81345 L 75.938835 90.81345 Q 88.46483 80.636086 105.68807 80.636086 L 406.31192 80.636086 L 406.31192 80.636086 Q 427.44955 81.41896 441.5413 95.510704 Q 455.63303 109.60245 456.4159 130.74007 L 456.4159 381.25995 L 456.4159 381.25995 Q 456.4159 385.17432 455.63303 389.08868 L 499.474 422.7523 L 499.474 422.7523 Q 512 434.49542 502.6055 449.37003 Q 490.8624 461.89603 475.98776 452.50153 L 12.525994 89.2477 L 12.525994 89.2477 Q 0 77.504585 9.394495 62.62997 L 9.394495 62.62997 Z M 143.26605 144.04893 L 143.26605 118.214066 L 143.26605 144.04893 L 143.26605 118.214066 L 110.38532 118.214066 L 110.38532 118.214066 L 143.26605 144.04893 L 143.26605 144.04893 Z M 262.263 237.21101 L 331.15598 237.21101 L 262.263 237.21101 L 331.15598 237.21101 L 331.15598 205.89603 L 331.15598 205.89603 L 331.15598 118.214066 L 331.15598 118.214066 L 180.84404 118.214066 L 180.84404 118.214066 L 180.84404 173.01529 L 180.84404 173.01529 L 262.263 237.21101 L 262.263 237.21101 Z M 418.83792 360.1223 L 418.83792 324.89297 L 418.83792 360.1223 L 418.83792 324.89297 L 374.21408 324.89297 L 374.21408 324.89297 L 418.83792 360.1223 L 418.83792 360.1223 Z M 331.15598 387.52295 L 386.74005 431.36392 L 331.15598 387.52295 L 386.74005 431.36392 L 105.68807 431.36392 L 105.68807 431.36392 Q 84.55046 430.58105 70.45872 416.4893 Q 56.366974 402.39755 55.5841 381.25995 L 55.5841 169.88379 L 55.5841 169.88379 L 124.477066 224.68501 L 124.477066 224.68501 L 93.16208 224.68501 L 93.16208 224.68501 L 93.16208 287.31497 L 93.16208 287.31497 L 143.26605 287.31497 L 143.26605 287.31497 L 143.26605 239.55963 L 143.26605 239.55963 L 188.67278 274.789 L 188.67278 274.789 L 180.84404 274.789 L 180.84404 274.789 L 180.84404 306.10397 L 180.84404 306.10397 L 180.84404 393.78592 L 180.84404 393.78592 L 331.15598 393.78592 L 331.15598 393.78592 L 331.15598 387.52295 L 331.15598 387.52295 Z M 143.26605 324.89297 L 93.16208 324.89297 L 143.26605 324.89297 L 93.16208 324.89297 L 93.16208 381.25995 L 93.16208 381.25995 Q 93.944954 393.00305 105.68807 393.78592 L 143.26605 393.78592 L 143.26605 393.78592 L 143.26605 324.89297 L 143.26605 324.89297 Z M 368.73395 118.214066 L 368.73395 187.10704 L 368.73395 118.214066 L 368.73395 187.10704 L 418.83792 187.10704 L 418.83792 187.10704 L 418.83792 130.74007 L 418.83792 130.74007 Q 418.05505 118.99694 406.31192 118.214066 L 368.73395 118.214066 L 368.73395 118.214066 Z M 418.83792 224.68501 L 368.73395 224.68501 L 418.83792 224.68501 L 368.73395 224.68501 L 368.73395 287.31497 L 368.73395 287.31497 L 418.83792 287.31497 L 418.83792 287.31497 L 418.83792 224.68501 L 418.83792 224.68501 Z" />
</svg>