<svg xmlns="http://www.w3.org/2000/svg" viewBox="0 0 512 512">
  <path d="M 505.6298600311042 384.199066874028 Q 502.4447900466563 386.5878693623639 499.2597200622084 389.7729393468118 Q 494.4821150855365 394.5505443234837 488.11197511664074 398.53188180404356 Q 486.5194401244168 400.1244167962675 485.72317262830484 400.92068429237946 Q 484.92690513219287 401.71695178849143 484.13063763608085 401.71695178849143 Q 439.53965785381024 433.56765163297047 382.20839813374806 434.36391912908243 Q 345.5800933125972 434.36391912908243 313.7293934681182 420.82737169517884 Q 281.8786936236392 407.29082426127525 257.194401244168 383.40279937791604 Q 271.52721617418354 369.0699844479005 277.10108864696736 349.1632970451011 Q 296.21150855365477 370.6625194401244 323.2846034214619 383.40279937791604 Q 350.357698289269 396.1430793157076 382.20839813374806 396.1430793157076 Q 397.3374805598756 396.1430793157076 412.4665629860031 392.95800933125975 Q 359.11664074650076 373.84758942457233 326.4696734059098 328.46034214618976 Q 293.8227060653188 283.86936236391915 293.02643856920685 224.149300155521 Q 293.02643856920685 172.3919129082426 319.303265940902 130.98600311041992 Q 284.2674961119751 148.50388802488337 263.56454121306376 181.15085536547434 Q 242.86158631415242 214.59409020217728 242.06531881804042 256 L 242.06531881804042 256 L 242.06531881804042 256 Q 225.34370139968897 245.64852255054433 204.6407465007776 243.2597200622084 Q 210.21461897356144 175.57698289269052 255.60186625194402 130.18973561430792 Q 300.9891135303266 84.00622083981338 368.67185069984447 78.43234836702955 Q 371.0606531881804 77.63608087091757 374.2457231726283 77.63608087091757 Q 374.2457231726283 77.63608087091757 374.2457231726283 77.63608087091757 Q 378.2270606531882 77.63608087091757 381.4121306376361 77.63608087091757 Q 385.393468118196 77.63608087091757 388.57853810264385 77.63608087091757 Q 392.55987558320373 77.63608087091757 396.5412130637636 78.43234836702955 Q 406.0964230171073 79.22861586314153 408.4852255054432 87.98755832037325 Q 410.07776049766716 96.74650077760498 402.11508553654744 101.52410575427683 Q 398.13374805598755 103.91290824261276 394.15241057542767 106.30171073094868 Q 394.15241057542767 106.30171073094868 394.15241057542767 106.30171073094868 Q 389.3748055987558 110.28304821150856 384.59720062208396 113.46811819595645 Q 383.800933125972 114.26438569206843 383.00466562986 115.06065318818041 Q 382.20839813374806 115.06065318818041 382.20839813374806 115.85692068429238 Q 358.3203732503888 134.96734059097977 344.7838258164852 162.83670295489893 Q 331.24727838258167 190.70606531881805 331.24727838258167 224.149300155521 Q 332.04354587869364 283.86936236391915 371.8569206842924 322.8864696734059 Q 410.8740279937792 362.69984447900464 470.5940902021773 364.2923794712286 L 470.5940902021773 364.2923794712286 L 470.5940902021773 364.2923794712286 Q 472.18662519440124 364.2923794712286 473.7791601866252 364.2923794712286 Q 480.149300155521 364.2923794712286 485.72317262830484 363.49611197511666 Q 490.5007776049767 362.69984447900464 494.4821150855365 361.9035769828927 Q 503.24105754276826 361.1073094867807 508.0186625194401 369.0699844479005 Q 512 377.0326594090202 505.6298600311042 384.199066874028 L 505.6298600311042 384.199066874028 Z M 50.96111975116641 383.40279937791604 Q 29.46189735614308 382.606531881804 15.129082426127527 368.2737169517885 L 15.129082426127527 368.2737169517885 L 15.129082426127527 368.2737169517885 Q 0.7962674961119751 353.94090202177296 0 332.4416796267496 Q 0.7962674961119751 310.9424572317263 15.129082426127527 296.6096423017107 Q 29.46189735614308 282.27682737169516 50.96111975116641 281.4805598755832 Q 50.96111975116641 281.4805598755832 51.75738724727838 281.4805598755832 Q 51.75738724727838 281.4805598755832 52.55365474339036 281.4805598755832 Q 57.33125972006221 259.1850699844479 74.05287713841369 244.85225505443236 Q 90.77449455676516 231.31570762052877 114.66251944012441 230.5194401244168 Q 136.16174183514775 230.5194401244168 152.08709175738724 242.46345256609644 Q 168.01244167962676 254.40746500777604 175.1788491446345 273.5178849144635 Q 185.5303265940902 268.7402799377916 197.47433903576982 268.7402799377916 Q 222.15863141524105 269.5365474339036 238.08398133748057 285.4618973561431 Q 254.00933125972006 301.3872472783826 254.80559875583205 326.0715396578538 Q 254.00933125972006 350.75583203732504 238.08398133748057 366.6811819595645 Q 222.15863141524105 382.606531881804 197.47433903576982 383.40279937791604 L 50.96111975116641 383.40279937791604 L 50.96111975116641 383.40279937791604 Z" />
</svg>