<svg xmlns="http://www.w3.org/2000/svg" viewBox="0 0 512 512">
  <path d="M 36.01223241590214 59.49847094801223 Q 21.137614678899084 50.103975535168196 9.394495412844037 62.62996941896024 Q 0 77.5045871559633 12.525993883792049 89.24770642201835 L 475.98776758409787 452.50152905198775 L 475.98776758409787 452.50152905198775 Q 490.86238532110093 461.8960244648318 502.60550458715596 449.37003058103977 Q 512 434.4954128440367 499.47400611620793 422.7522935779817 L 475.98776758409787 404.7461773700306 L 475.98776758409787 404.7461773700306 Q 481.4678899082569 393.7859327217125 481.4678899082569 381.2599388379205 L 481.4678899082569 130.7400611620795 L 481.4678899082569 130.7400611620795 Q 480.68501529051986 109.60244648318043 466.59327217125383 95.51070336391437 Q 452.50152905198775 81.41896024464832 431.3639143730887 80.63608562691131 L 80.63608562691131 80.63608562691131 L 80.63608562691131 80.63608562691131 Q 72.80733944954129 80.63608562691131 65.76146788990826 82.98470948012232 L 36.01223241590214 59.49847094801223 L 36.01223241590214 59.49847094801223 Z M 110.38532110091744 118.21406727828746 L 431.3639143730887 118.21406727828746 L 110.38532110091744 118.21406727828746 L 431.3639143730887 118.21406727828746 Q 443.1070336391437 118.99694189602447 443.88990825688074 130.7400611620795 L 443.88990825688074 379.6941896024465 L 443.88990825688074 379.6941896024465 L 369.5168195718654 320.9785932721713 L 369.5168195718654 320.9785932721713 Q 385.9571865443425 310.8012232415902 396.1345565749235 293.57798165137615 Q 406.3119266055046 277.13761467889907 406.3119266055046 256 Q 405.52905198776756 223.90214067278288 384.3914373088685 202.76452599388378 Q 363.2538226299694 181.6269113149847 331.1559633027523 180.8440366972477 L 287.31498470948014 180.8440366972477 L 287.31498470948014 180.8440366972477 Q 270.091743119266 182.40978593272172 268.52599388379207 199.63302752293578 L 268.52599388379207 241.90825688073394 L 268.52599388379207 241.90825688073394 L 110.38532110091744 118.21406727828746 L 110.38532110091744 118.21406727828746 Z M 334.28746177370033 293.57798165137615 L 306.1039755351682 271.65749235474004 L 334.28746177370033 293.57798165137615 L 306.1039755351682 271.65749235474004 L 306.1039755351682 218.42201834862385 L 306.1039755351682 218.42201834862385 L 331.1559633027523 218.42201834862385 L 331.1559633027523 218.42201834862385 Q 346.81345565749234 219.20489296636086 357.7737003058104 229.3822629969419 Q 367.9510703363914 240.34250764525993 368.73394495412845 256 Q 368.73394495412845 270.87461773700306 358.5565749235474 281.8348623853211 Q 349.16207951070334 292.01223241590213 334.28746177370033 293.57798165137615 L 334.28746177370033 293.57798165137615 Z M 386.7400611620795 431.3639143730887 L 339.76758409785936 393.7859327217125 L 386.7400611620795 431.3639143730887 L 339.76758409785936 393.7859327217125 L 80.63608562691131 393.7859327217125 L 80.63608562691131 393.7859327217125 Q 68.89296636085626 393.00305810397555 68.11009174311927 381.2599388379205 L 68.11009174311927 180.0611620795107 L 68.11009174311927 180.0611620795107 L 30.53211009174312 150.3119266055046 L 30.53211009174312 150.3119266055046 L 30.53211009174312 381.2599388379205 L 30.53211009174312 381.2599388379205 Q 31.31498470948012 402.3975535168196 45.40672782874618 416.4892966360856 Q 59.49847094801223 430.5810397553517 80.63608562691131 431.3639143730887 L 386.7400611620795 431.3639143730887 L 386.7400611620795 431.3639143730887 Z M 108.03669724770643 303.75535168195717 Q 101.7737003058104 320.19571865443424 115.86544342507645 329.5902140672783 Q 132.30581039755353 335.0703363914373 140.91743119266056 320.9785932721713 L 148.74617737003058 306.1039755351682 L 148.74617737003058 306.1039755351682 L 212.94189602446482 306.1039755351682 L 212.94189602446482 306.1039755351682 L 219.98776758409787 320.9785932721713 L 219.98776758409787 320.9785932721713 Q 229.3822629969419 335.8532110091743 245.82262996941895 329.5902140672783 Q 248.954128440367 327.2415902140673 251.30275229357798 324.8929663608563 L 187.88990825688074 274.7889908256881 L 187.88990825688074 274.7889908256881 L 164.40366972477065 274.7889908256881 L 164.40366972477065 274.7889908256881 L 171.44954128440367 261.480122324159 L 171.44954128440367 261.480122324159 L 140.91743119266056 237.21100917431193 L 140.91743119266056 237.21100917431193 L 108.03669724770643 303.75535168195717 L 108.03669724770643 303.75535168195717 Z" />
</svg>