<svg xmlns="http://www.w3.org/2000/svg" viewBox="0 0 512 512">
  <path d="M 36.01223241590214 59.49847094801223 Q 21.137614678899084 50.103975535168196 9.394495412844037 62.62996941896024 Q 0 77.5045871559633 12.525993883792049 89.24770642201835 L 475.98776758409787 452.50152905198775 L 475.98776758409787 452.50152905198775 Q 490.86238532110093 461.8960244648318 502.60550458715596 449.37003058103977 Q 512 434.4954128440367 499.47400611620793 422.7522935779817 L 366.38532110091745 318.62996941896023 L 366.38532110091745 318.62996941896023 L 381.2599388379205 318.62996941896023 L 381.2599388379205 318.62996941896023 Q 393.7859327217125 318.62996941896023 409.4434250764526 315.49847094801225 Q 425.10091743119267 312.3669724770642 439.1926605504587 306.1039755351682 Q 454.8501529051988 299.84097859327215 466.59327217125383 288.0978593272171 Q 479.9021406727829 276.3547400611621 481.4678899082569 256 Q 479.9021406727829 235.6452599388379 466.59327217125383 223.90214067278288 Q 454.8501529051988 212.94189602446482 439.97553516819573 206.67889908256882 Q 425.10091743119267 200.41590214067278 409.4434250764526 196.50152905198777 Q 393.7859327217125 193.37003058103974 381.2599388379205 193.37003058103974 L 329.5902140672783 193.37003058103974 L 329.5902140672783 193.37003058103974 L 254.43425076452598 75.93883792048929 L 254.43425076452598 75.93883792048929 Q 241.12538226299694 56.36697247706422 217.63914373088684 55.584097859327215 L 185.54128440366972 55.584097859327215 L 185.54128440366972 55.584097859327215 Q 169.10091743119267 56.36697247706422 160.48929663608564 68.11009174311927 Q 151.0948012232416 80.63608562691131 155.79204892966362 96.29357798165138 L 180.0611620795107 172.23241590214067 L 180.0611620795107 172.23241590214067 L 36.01223241590214 59.49847094801223 L 36.01223241590214 59.49847094801223 Z M 230.9480122324159 212.94189602446482 Q 230.9480122324159 209.81039755351682 230.1651376146789 206.67889908256882 L 194.15290519877675 93.16207951070336 L 194.15290519877675 93.16207951070336 L 217.63914373088684 93.16207951070336 L 217.63914373088684 93.16207951070336 Q 220.77064220183487 93.16207951070336 222.33639143730886 96.29357798165138 L 237.99388379204893 86.11620795107034 L 237.99388379204893 86.11620795107034 L 222.33639143730886 96.29357798165138 L 222.33639143730886 96.29357798165138 L 302.9724770642202 222.33639143730886 L 302.9724770642202 222.33639143730886 Q 309.2354740061162 230.9480122324159 319.41284403669727 230.9480122324159 L 381.2599388379205 230.9480122324159 L 381.2599388379205 230.9480122324159 Q 389.08868501529054 230.9480122324159 400.83180428134557 233.29663608562691 Q 412.5749235474006 235.6452599388379 424.31804281345563 241.12538226299694 Q 435.2782874617737 245.82262996941895 440.7584097859327 251.30275229357798 Q 444.6727828746177 256 443.88990825688074 256 L 443.88990825688074 256 L 443.88990825688074 256 Q 444.6727828746177 256.782874617737 440.7584097859327 261.480122324159 Q 435.2782874617737 266.177370030581 424.31804281345563 271.65749235474004 Q 400.0489296636086 281.0519877675841 381.2599388379205 281.0519877675841 L 319.41284403669727 281.0519877675841 L 319.41284403669727 281.0519877675841 Q 318.62996941896023 281.0519877675841 318.62996941896023 281.0519877675841 Q 318.62996941896023 281.0519877675841 318.62996941896023 281.0519877675841 L 230.9480122324159 212.94189602446482 L 230.9480122324159 212.94189602446482 Z M 300.6238532110092 363.2538226299694 L 270.87461773700306 339.76758409785936 L 300.6238532110092 363.2538226299694 L 270.87461773700306 339.76758409785936 L 222.33639143730886 415.70642201834863 L 222.33639143730886 415.70642201834863 Q 220.77064220183487 418.83792048929666 216.85626911314984 418.83792048929666 L 194.15290519877675 418.83792048929666 L 194.15290519877675 418.83792048929666 L 229.3822629969419 307.6697247706422 L 229.3822629969419 307.6697247706422 L 196.50152905198777 281.0519877675841 L 196.50152905198777 281.0519877675841 L 137.00305810397555 281.0519877675841 L 137.00305810397555 281.0519877675841 Q 127.6085626911315 281.0519877675841 122.12844036697248 288.8807339449541 L 90.03058103975535 331.1559633027523 L 90.03058103975535 331.1559633027523 L 71.24159021406727 331.1559633027523 L 71.24159021406727 331.1559633027523 L 92.37920489296636 261.480122324159 L 92.37920489296636 261.480122324159 Q 93.94495412844037 256 92.37920489296636 250.51987767584097 L 71.24159021406727 182.40978593272172 L 71.24159021406727 182.40978593272172 L 36.79510703363914 155.0091743119266 L 36.79510703363914 155.0091743119266 Q 30.53211009174312 162.83792048929664 30.53211009174312 173.01529051987768 Q 30.53211009174312 177.7125382262997 32.09785932721712 181.6269113149847 L 32.09785932721712 181.6269113149847 L 32.09785932721712 181.6269113149847 L 54.801223241590215 256 L 54.801223241590215 256 L 32.09785932721712 330.3730886850153 L 32.09785932721712 330.3730886850153 L 32.09785932721712 330.3730886850153 L 32.09785932721712 330.3730886850153 Q 30.53211009174312 334.28746177370033 30.53211009174312 338.9847094801223 Q 30.53211009174312 351.5107033639144 39.14373088685015 360.1223241590214 Q 47.75535168195719 368.73394495412845 60.281345565749234 368.73394495412845 L 93.16207951070336 368.73394495412845 L 93.16207951070336 368.73394495412845 Q 108.81957186544342 368.73394495412845 118.21406727828746 356.2079510703364 L 103.33944954128441 345.2477064220183 L 103.33944954128441 345.2477064220183 L 118.21406727828746 356.2079510703364 L 118.21406727828746 356.2079510703364 L 146.39755351681958 318.62996941896023 L 146.39755351681958 318.62996941896023 L 186.32415902140673 318.62996941896023 L 186.32415902140673 318.62996941896023 L 155.79204892966362 415.70642201834863 L 155.79204892966362 415.70642201834863 Q 151.0948012232416 431.3639143730887 160.48929663608564 443.88990825688074 Q 169.10091743119267 455.6330275229358 185.54128440366972 456.41590214067276 L 217.63914373088684 456.41590214067276 L 217.63914373088684 456.41590214067276 Q 241.12538226299694 455.6330275229358 254.43425076452598 436.0611620795107 L 300.6238532110092 363.2538226299694 L 300.6238532110092 363.2538226299694 Z" />
</svg>