<svg xmlns="http://www.w3.org/2000/svg" viewBox="0 0 640 480">
    <path d="M 128 75 L 103 144 L 409 144 L 384 75 Q 374 49 347 48 L 165 48 Q 138 49 128 75 L 128 75 Z M 48 157 L 82 59 Q 92 32 114 16 Q 137 0 165 0 L 347 0 Q 375 0 398 16 Q 420 32 430 59 L 464 157 Q 468 159 472 162 Q 429 168 395 192 L 96 192 Q 76 193 62 206 Q 49 220 48 240 L 48 320 L 321 320 Q 320 328 320 336 Q 320 352 323 368 L 48 368 L 48 424 Q 46 446 24 448 Q 2 446 0 424 L 0 368 L 0 320 L 0 240 Q 0 213 13 191 Q 26 170 48 157 L 48 157 Z M 112 224 Q 126 224 135 233 L 135 233 Q 144 242 144 256 Q 144 270 135 279 Q 126 288 112 288 Q 98 288 89 279 Q 80 270 80 256 Q 80 242 89 233 Q 98 224 112 224 L 112 224 Z M 496 192 Q 535 192 568 211 L 568 211 Q 601 230 621 264 Q 640 298 640 336 Q 640 374 621 408 Q 601 442 568 461 Q 535 480 496 480 Q 457 480 424 461 Q 391 442 371 408 Q 352 374 352 336 Q 352 298 371 264 Q 391 230 424 211 Q 457 192 496 192 L 496 192 Z M 544 255 Q 537 249 529 254 L 433 326 Q 426 332 429 340 Q 432 348 440 348 L 476 348 L 446 402 Q 441 411 448 417 Q 456 423 463 418 L 559 346 Q 566 340 563 332 Q 560 325 552 324 L 516 324 L 547 270 Q 551 262 544 255 L 544 255 Z"/>
</svg>
