<svg xmlns="http://www.w3.org/2000/svg" viewBox="0 0 512 512">
  <path d="M 107.5942 379.3623 Q 67.710144 332.05798 63.072464 267.13043 L 109.44927 292.17392 L 109.44927 292.17392 Q 107.5942 299.5942 107.5942 307.94202 L 107.5942 379.3623 L 107.5942 379.3623 Z M 22.26087 212.40579 Q 12.057971 209.62318 5.5652175 219.82608 Q 0 231.88406 12.057971 239.30435 L 18.550724 243.0145 L 18.550724 243.0145 Q 18.550724 249.50725 18.550724 256 Q 19.47826 322.78262 51.014492 375.65216 Q 82.55073 429.44928 136.34782 460.9855 Q 189.21739 492.52173 256 493.44928 Q 322.78262 492.52173 375.65216 460.9855 Q 429.44928 429.44928 460.9855 375.65216 Q 492.52173 322.78262 493.44928 256 Q 493.44928 249.50725 493.44928 243.0145 L 500.86957 239.30435 L 500.86957 239.30435 Q 512 231.88406 506.43478 219.82608 Q 499.94202 209.62318 489.73914 212.40579 Q 472.11594 128 408.11594 74.202896 Q 345.0435 20.405798 256 18.550724 Q 166.95653 20.405798 103.884056 74.202896 Q 39.884056 128 22.26087 212.40579 L 22.26087 212.40579 Z M 64 233.73914 Q 74.202896 160.46378 127.072464 112.23189 L 127.072464 112.23189 L 127.072464 112.23189 Q 179.94203 64.927536 256 63.072464 Q 332.05798 64.927536 384.92755 112.23189 Q 437.7971 160.46378 448 233.73914 L 387.71014 266.2029 L 387.71014 266.2029 Q 370.08694 249.50725 345.0435 248.57971 L 166.95653 248.57971 L 166.95653 248.57971 Q 141.91304 249.50725 125.21739 266.2029 L 64 233.73914 L 64 233.73914 Z M 448.92755 267.13043 Q 444.28986 332.05798 404.4058 379.3623 L 404.4058 307.94202 L 404.4058 307.94202 Q 404.4058 299.5942 402.55072 292.17392 L 448.92755 267.13043 L 448.92755 267.13043 Z M 146.55072 210.55072 Q 150.26086 205.91304 165.10146 198.49275 L 165.10146 198.49275 L 165.10146 198.49275 Q 179.94203 190.14493 204.05797 189.21739 Q 224.46378 187.36232 226.31885 166.95653 Q 224.46378 146.55072 204.05797 144.69565 Q 168.8116 145.62318 145.62318 157.68115 Q 122.434784 170.66667 113.159424 182.72464 Q 101.10145 199.42029 115.94203 213.33333 Q 132.63768 225.39131 147.47826 210.55072 L 146.55072 210.55072 Z M 152.11594 307.94202 Q 153.04347 294.029 166.95653 293.10144 L 345.0435 293.10144 L 345.0435 293.10144 Q 358.9565 294.029 359.88406 307.94202 L 359.88406 315.3623 L 359.88406 315.3623 L 152.11594 315.3623 L 152.11594 315.3623 L 152.11594 307.94202 L 152.11594 307.94202 Z M 152.11594 345.0435 L 359.88406 345.0435 L 152.11594 345.0435 L 359.88406 345.0435 L 359.88406 374.72464 L 359.88406 374.72464 L 152.11594 374.72464 L 152.11594 374.72464 L 152.11594 345.0435 L 152.11594 345.0435 Z M 152.11594 404.4058 L 359.88406 404.4058 L 152.11594 404.4058 L 359.88406 404.4058 Q 358.029 424.81158 337.6232 426.66666 L 256 426.66666 L 174.37682 426.66666 Q 153.97101 424.81158 152.11594 404.4058 L 152.11594 404.4058 Z M 307.94202 189.21739 Q 332.9855 190.14493 348.75363 196.63768 L 348.75363 196.63768 L 348.75363 196.63768 Q 363.5942 204.05797 366.3768 207.76811 Q 382.14493 220.75362 397.91306 207.76811 Q 410.89856 192 397.91306 176.23189 Q 388.6377 166.02899 365.44928 155.82608 Q 342.26086 145.62318 307.94202 144.69565 Q 287.53622 146.55072 285.68115 166.95653 Q 287.53622 187.36232 307.94202 189.21739 L 307.94202 189.21739 Z" />
</svg>