<svg xmlns="http://www.w3.org/2000/svg" viewBox="0 0 512 512">
  <path d="M 418.83792 54.801224 Q 439.97552 55.5841 451.71866 73.59022 Q 461.11316 92.3792 451.71866 111.1682 Q 439.97552 129.17432 418.83792 129.95718 Q 397.70032 129.17432 385.95718 111.1682 Q 376.56268 92.3792 385.95718 73.59022 Q 397.70032 55.5841 418.83792 54.801224 L 418.83792 54.801224 Z M 367.16818 263.82874 Q 365.60245 267.74313 368.73395 270.09174 L 382.04282 281.052 L 382.04282 281.052 L 407.0948 199.63303 L 407.0948 199.63303 Q 407.0948 199.63303 407.0948 198.85016 Q 407.0948 198.85016 407.0948 198.85016 Q 399.26605 194.93578 390.65445 193.37003 L 367.16818 263.82874 L 367.16818 263.82874 Z M 413.3578 306.10397 L 452.50153 338.20184 L 413.3578 306.10397 L 452.50153 338.20184 Q 460.33026 345.2477 463.46176 355.42508 L 480.68503 432.92966 L 480.68503 432.92966 Q 483.03363 449.37003 466.59326 454.85016 Q 450.1529 457.1988 444.6728 440.75842 L 427.44955 365.60245 L 427.44955 365.60245 L 345.2477 299.84097 L 345.2477 299.84097 Q 323.3272 280.2691 331.15598 251.30275 L 349.16208 198.06728 L 349.16208 198.06728 Q 319.41284 210.59328 305.3211 239.55963 L 298.27524 256.78287 L 298.27524 256.78287 Q 289.6636 271.6575 273.22324 266.17737 Q 258.34863 257.56573 263.82874 241.12538 L 270.8746 224.68501 L 270.8746 224.68501 Q 292.7951 177.71254 341.33334 161.27217 Q 359.33945 155.00917 378.12845 155.00917 L 382.04282 155.00917 L 382.04282 155.00917 Q 413.3578 155.00917 437.62692 173.79817 Q 461.89603 191.80428 470.50766 221.55351 L 479.11926 251.30275 L 479.11926 251.30275 L 501.03976 273.22324 L 501.03976 273.22324 Q 512 286.5321 501.03976 299.84097 Q 487.7309 310.8012 474.42203 299.84097 L 451.71866 277.1376 L 451.71866 277.1376 Q 446.23853 271.6575 443.88992 263.82874 L 435.2783 234.86238 L 435.2783 234.86238 L 413.3578 306.10397 L 413.3578 306.10397 Z M 334.28748 322.54434 L 364.81958 347.59634 L 334.28748 322.54434 L 364.81958 347.59634 L 349.16208 385.17432 L 349.16208 385.17432 Q 346.81345 391.43732 342.89908 395.35168 L 288.09787 450.1529 L 288.09787 450.1529 Q 274.789 461.11316 261.48013 450.1529 Q 250.51988 436.84402 261.48013 423.53516 L 315.49847 370.29968 L 315.49847 370.29968 L 334.28748 322.54434 L 334.28748 322.54434 Z M 205.11314 58.715595 L 312.36697 146.39755 L 205.11314 58.715595 L 312.36697 146.39755 Q 295.14374 155.79205 280.2691 169.10092 L 193.37003 97.85933 L 193.37003 97.85933 L 93.16208 179.27829 L 93.16208 179.27829 L 93.16208 336.63608 L 93.16208 336.63608 Q 93.944954 342.1162 99.42508 342.89908 L 256 342.89908 L 299.0581 342.89908 L 293.57797 356.20795 L 293.57797 356.20795 L 269.30887 380.47705 L 269.30887 380.47705 L 99.42508 380.47705 L 99.42508 380.47705 Q 80.636086 379.69418 68.11009 367.95108 Q 56.366974 355.42508 55.5841 336.63608 L 55.5841 209.8104 L 55.5841 209.8104 L 36.012234 226.25076 L 36.012234 226.25076 Q 21.920488 235.64526 9.394495 223.11926 Q 0 209.02753 12.525994 196.50153 L 181.6269 58.715595 L 181.6269 58.715595 Q 193.37003 50.88685 205.11314 58.715595 L 205.11314 58.715595 Z M 130.74007 217.63914 Q 131.52293 205.89603 143.26605 205.11314 L 193.37003 205.11314 L 193.37003 205.11314 Q 205.11314 205.89603 205.89603 217.63914 L 205.89603 267.74313 L 205.89603 267.74313 Q 205.11314 279.48624 193.37003 280.2691 L 143.26605 280.2691 L 143.26605 280.2691 Q 131.52293 279.48624 130.74007 267.74313 L 130.74007 217.63914 L 130.74007 217.63914 Z" />
</svg>