<svg xmlns="http://www.w3.org/2000/svg" viewBox="0 0 512 512">
  <path d="M 36.012234 59.49847 Q 21.137615 50.103977 9.394495 62.62997 Q 0 77.504585 12.525994 89.2477 L 475.98776 452.50153 L 475.98776 452.50153 Q 490.8624 461.89603 502.6055 449.37003 Q 512 434.49542 499.474 422.7523 L 324.89297 286.5321 L 324.89297 286.5321 L 449.37003 133.87157 L 449.37003 133.87157 Q 456.4159 125.25994 456.4159 113.51682 Q 456.4159 99.42508 447.0214 90.03058 Q 437.62692 80.636086 423.53516 80.636086 L 87.68195 80.636086 L 87.68195 80.636086 Q 77.504585 80.636086 69.67584 86.11621 L 36.012234 59.49847 L 36.012234 59.49847 Z M 110.38532 118.214066 L 413.3578 118.214066 L 110.38532 118.214066 L 413.3578 118.214066 L 295.14374 263.04587 L 295.14374 263.04587 L 110.38532 118.214066 L 110.38532 118.214066 Z M 230.94801 340.55045 L 230.94801 308.4526 L 230.94801 340.55045 L 230.94801 308.4526 L 193.37003 278.70337 L 193.37003 278.70337 L 193.37003 343.68195 L 193.37003 343.68195 Q 193.37003 358.55658 205.11314 368.73395 L 277.9205 425.8838 L 277.9205 425.8838 Q 284.18347 431.36392 293.57797 431.36392 Q 303.75534 431.36392 311.5841 424.31805 Q 318.62997 416.4893 318.62997 406.31192 L 318.62997 377.34555 L 318.62997 377.34555 L 281.052 347.59634 L 281.052 347.59634 L 281.052 380.47705 L 281.052 380.47705 L 230.94801 341.33334 L 230.94801 340.55045 Z" />
</svg>