<svg xmlns="http://www.w3.org/2000/svg" viewBox="0 0 512 512">
  <path d="M 176 80 L 176 192 L 176 80 L 176 192 L 48 192 L 48 192 L 48 80 L 48 80 L 176 80 L 176 80 Z M 48 32 Q 28 33 14 46 L 14 46 L 14 46 Q 1 60 0 80 L 0 192 L 0 192 Q 1 212 14 226 Q 28 239 48 240 L 176 240 L 176 240 Q 196 239 210 226 Q 223 212 224 192 L 224 80 L 224 80 Q 223 60 210 46 Q 196 33 176 32 L 48 32 L 48 32 Z M 176 320 L 176 432 L 176 320 L 176 432 L 48 432 L 48 432 L 48 320 L 48 320 L 176 320 L 176 320 Z M 48 272 Q 28 273 14 286 L 14 286 L 14 286 Q 1 300 0 320 L 0 432 L 0 432 Q 1 452 14 466 Q 28 479 48 480 L 176 480 L 176 480 Q 196 479 210 466 Q 223 452 224 432 L 224 320 L 224 320 Q 223 300 210 286 Q 196 273 176 272 L 48 272 L 48 272 Z M 304 80 L 464 80 L 304 80 L 464 80 L 464 112 L 464 112 L 304 112 L 304 112 L 304 80 L 304 80 Z M 256 80 L 256 112 L 256 80 L 256 112 Q 257 132 270 146 Q 284 159 304 160 L 464 160 L 464 160 Q 484 159 498 146 Q 511 132 512 112 L 512 80 L 512 80 Q 511 60 498 46 Q 484 33 464 32 L 304 32 L 304 32 Q 284 33 270 46 Q 257 60 256 80 L 256 80 Z M 464 240 L 464 272 L 464 240 L 464 272 L 304 272 L 304 272 L 304 240 L 304 240 L 464 240 L 464 240 Z M 304 192 Q 284 193 270 206 L 270 206 L 270 206 Q 257 220 256 240 L 256 272 L 256 272 Q 257 292 270 306 Q 284 319 304 320 L 464 320 L 464 320 Q 484 319 498 306 Q 511 292 512 272 L 512 240 L 512 240 Q 511 220 498 206 Q 484 193 464 192 L 304 192 L 304 192 Z M 304 400 L 464 400 L 304 400 L 464 400 L 464 432 L 464 432 L 304 432 L 304 432 L 304 400 L 304 400 Z M 256 400 L 256 432 L 256 400 L 256 432 Q 257 452 270 466 Q 284 479 304 480 L 464 480 L 464 480 Q 484 479 498 466 Q 511 452 512 432 L 512 400 L 512 400 Q 511 380 498 366 Q 484 353 464 352 L 304 352 L 304 352 Q 284 353 270 366 Q 257 380 256 400 L 256 400 Z" />
</svg>