<svg xmlns="http://www.w3.org/2000/svg" viewBox="0 0 512 512">
  <path d="M 73.14285714285714 54.857142857142854 Q 56 56 54.857142857142854 73.14285714285714 L 54.857142857142854 438.85714285714283 L 54.857142857142854 438.85714285714283 Q 56 456 73.14285714285714 457.14285714285717 L 438.85714285714283 457.14285714285717 L 438.85714285714283 457.14285714285717 Q 456 456 457.14285714285717 438.85714285714283 L 457.14285714285717 73.14285714285714 L 457.14285714285717 73.14285714285714 Q 456 56 438.85714285714283 54.857142857142854 L 73.14285714285714 54.857142857142854 L 73.14285714285714 54.857142857142854 Z M 0 73.14285714285714 Q 1.1428571428571428 42.285714285714285 21.714285714285715 21.714285714285715 L 21.714285714285715 21.714285714285715 L 21.714285714285715 21.714285714285715 Q 42.285714285714285 1.1428571428571428 73.14285714285714 0 L 438.85714285714283 0 L 438.85714285714283 0 Q 469.7142857142857 1.1428571428571428 490.2857142857143 21.714285714285715 Q 510.85714285714283 42.285714285714285 512 73.14285714285714 L 512 438.85714285714283 L 512 438.85714285714283 Q 510.85714285714283 469.7142857142857 490.2857142857143 490.2857142857143 Q 469.7142857142857 510.85714285714283 438.85714285714283 512 L 73.14285714285714 512 L 73.14285714285714 512 Q 42.285714285714285 510.85714285714283 21.714285714285715 490.2857142857143 Q 1.1428571428571428 469.7142857142857 0 438.85714285714283 L 0 73.14285714285714 L 0 73.14285714285714 Z M 137.14285714285714 365.7142857142857 L 374.85714285714283 365.7142857142857 L 137.14285714285714 365.7142857142857 L 374.85714285714283 365.7142857142857 Q 400 368 402.2857142857143 393.14285714285717 Q 400 418.2857142857143 374.85714285714283 420.57142857142856 L 137.14285714285714 420.57142857142856 L 137.14285714285714 420.57142857142856 Q 112 418.2857142857143 109.71428571428571 393.14285714285717 Q 112 368 137.14285714285714 365.7142857142857 L 137.14285714285714 365.7142857142857 Z M 374.85714285714283 182.85714285714286 L 374.85714285714283 301.7142857142857 L 374.85714285714283 182.85714285714286 L 374.85714285714283 301.7142857142857 Q 372.57142857142856 326.85714285714283 347.42857142857144 329.14285714285717 Q 322.2857142857143 326.85714285714283 320 301.7142857142857 L 320 182.85714285714286 L 320 182.85714285714286 L 291.42857142857144 182.85714285714286 L 291.42857142857144 182.85714285714286 Q 275.42857142857144 181.71428571428572 274.2857142857143 166.85714285714286 Q 274.2857142857143 160 278.85714285714283 155.42857142857142 L 326.85714285714283 100.57142857142857 L 326.85714285714283 100.57142857142857 Q 334.85714285714283 91.42857142857143 347.42857142857144 91.42857142857143 Q 360 91.42857142857143 368 100.57142857142857 L 416 155.42857142857142 L 416 155.42857142857142 Q 420.57142857142856 160 420.57142857142856 166.85714285714286 Q 419.42857142857144 181.71428571428572 404.57142857142856 182.85714285714286 L 374.85714285714283 182.85714285714286 L 374.85714285714283 182.85714285714286 Z M 91.42857142857143 166.85714285714286 Q 91.42857142857143 160 96 155.42857142857142 L 144 100.57142857142857 L 144 100.57142857142857 Q 152 91.42857142857143 164.57142857142858 91.42857142857143 Q 177.14285714285714 91.42857142857143 185.14285714285714 100.57142857142857 L 233.14285714285714 155.42857142857142 L 233.14285714285714 155.42857142857142 Q 237.71428571428572 160 237.71428571428572 166.85714285714286 Q 236.57142857142858 181.71428571428572 221.71428571428572 182.85714285714286 L 192 182.85714285714286 L 192 182.85714285714286 L 192 301.7142857142857 L 192 301.7142857142857 Q 189.71428571428572 326.85714285714283 164.57142857142858 329.14285714285717 Q 139.42857142857142 326.85714285714283 137.14285714285714 301.7142857142857 L 137.14285714285714 182.85714285714286 L 137.14285714285714 182.85714285714286 L 108.57142857142857 182.85714285714286 L 108.57142857142857 182.85714285714286 Q 92.57142857142857 181.71428571428572 91.42857142857143 166.85714285714286 L 91.42857142857143 166.85714285714286 Z" />
</svg>