<svg xmlns="http://www.w3.org/2000/svg" viewBox="0 0 512 512">
  <path d="M 256 13.811175 Q 271.7842 0 288.5549 13.811175 L 415.81503 133.17918 L 415.81503 133.17918 Q 429.6262 146.99037 429.6262 166.72061 Q 429.6262 185.46436 416.80154 198.28902 Q 402.99036 211.11368 384.24664 212.10019 L 342.8131 212.10019 L 342.8131 212.10019 L 342.8131 354.158 L 342.8131 354.158 Q 340.8401 421.24084 296.44702 465.6339 Q 252.05396 510.02698 184.9711 512 L 137.6185 512 L 137.6185 512 Q 113.9422 511.0135 98.158 496.2158 Q 83.360306 480.4316 82.373795 456.7553 L 82.373795 425.1869 L 82.373795 425.1869 Q 83.360306 401.5106 98.158 385.7264 Q 113.9422 370.9287 137.6185 369.9422 L 192.8632 369.9422 L 192.8632 369.9422 Q 199.76878 368.9557 200.7553 362.0501 L 200.7553 212.10019 L 200.7553 212.10019 L 159.32178 212.10019 L 159.32178 212.10019 Q 140.57803 212.10019 127.75337 198.28902 Q 113.9422 185.46436 113.9422 166.72061 Q 113.9422 146.99037 128.73988 133.17918 L 256 13.811175 L 256 13.811175 Z M 164.25433 164.74759 L 224.4316 164.74759 L 164.25433 164.74759 L 224.4316 164.74759 Q 246.13487 166.72061 248.1079 188.42389 L 248.1079 362.0501 L 248.1079 362.0501 Q 247.12138 385.7264 232.3237 401.5106 Q 216.5395 416.3083 192.8632 417.2948 L 137.6185 417.2948 L 137.6185 417.2948 Q 130.7129 418.2813 129.7264 425.1869 L 129.7264 456.7553 L 129.7264 456.7553 Q 130.7129 463.6609 137.6185 464.6474 L 184.9711 464.6474 L 184.9711 464.6474 Q 232.3237 463.6609 262.90558 432.0925 Q 294.474 401.5106 295.4605 354.158 L 295.4605 188.42389 L 295.4605 188.42389 Q 297.43353 166.72061 319.1368 164.74759 L 380.30057 164.74759 L 380.30057 164.74759 L 271.7842 63.136803 L 271.7842 63.136803 L 164.25433 164.74759 L 164.25433 164.74759 Z" />
</svg>