<svg xmlns="http://www.w3.org/2000/svg" viewBox="0 0 512 512">
  <path d="M 256 51.2 Q 264.8 51.2 270.4 57.6 L 324.8 117.6 L 324.8 117.6 Q 332.8 127.2 332.8 139.2 L 332.8 200 L 332.8 200 L 363.2 219.2 L 363.2 219.2 Q 383.2 232.8 384 256.8 L 384 422.4 L 384 422.4 L 454.4 422.4 L 454.4 422.4 Q 472 420.8 473.6 403.2 L 473.6 347.2 L 473.6 347.2 Q 473.6 336.8 464.8 331.2 L 409.6 295.2 L 409.6 295.2 L 409.6 249.6 L 409.6 249.6 L 485.6 299.2 L 485.6 299.2 Q 511.2 316 512 347.2 L 512 403.2 L 512 403.2 Q 511.2 428 495.2 444 Q 479.2 460 454.4 460.8 L 307.2 460.8 L 307.2 460.8 L 307.2 460.8 L 307.2 460.8 L 179.2 460.8 L 179.2 460.8 L 179.2 460.8 L 179.2 460.8 L 57.6 460.8 L 57.6 460.8 Q 32.8 460 16.8 444 Q 0.8 428 0 403.2 L 0 347.2 L 0 347.2 Q 0.8 316 26.4 299.2 L 102.4 249.6 L 102.4 249.6 L 102.4 295.2 L 102.4 295.2 L 47.2 331.2 L 47.2 331.2 Q 38.4 336.8 38.4 347.2 L 38.4 403.2 L 38.4 403.2 Q 40 420.8 57.6 422.4 L 128 422.4 L 128 422.4 L 128 256.8 L 128 256.8 Q 128.8 232.8 148.8 219.2 L 179.2 200 L 179.2 200 L 179.2 139.2 L 179.2 139.2 Q 179.2 127.2 187.2 117.6 L 241.6 57.6 L 241.6 57.6 Q 247.2 51.2 256 51.2 L 256 51.2 Z M 217.6 141.6 L 217.6 210.4 L 217.6 141.6 L 217.6 210.4 Q 217.6 220 208.8 226.4 L 169.6 252 L 169.6 252 Q 166.4 253.6 166.4 256.8 L 166.4 422.4 L 166.4 422.4 L 217.6 422.4 L 217.6 422.4 L 217.6 345.6 L 217.6 345.6 Q 217.6 329.6 228.8 318.4 Q 240 308 256 307.2 Q 272 308 283.2 318.4 Q 293.6 329.6 294.4 345.6 L 294.4 422.4 L 294.4 422.4 L 345.6 422.4 L 345.6 422.4 L 345.6 256.8 L 345.6 256.8 Q 345.6 253.6 342.4 252 L 303.2 226.4 L 303.2 226.4 Q 294.4 220 294.4 210.4 L 294.4 141.6 L 294.4 141.6 L 256 99.2 L 256 99.2 L 217.6 141.6 L 217.6 141.6 Z" />
</svg>