<svg xmlns="http://www.w3.org/2000/svg" viewBox="0 0 512 512">
  <path d="M 56.888888888888886 99.55555555555556 Q 43.55555555555556 100.44444444444444 42.666666666666664 113.77777777777777 L 42.666666666666664 398.22222222222223 L 42.666666666666664 398.22222222222223 Q 43.55555555555556 411.55555555555554 56.888888888888886 412.44444444444446 L 455.1111111111111 412.44444444444446 L 455.1111111111111 412.44444444444446 Q 468.44444444444446 411.55555555555554 469.3333333333333 398.22222222222223 L 469.3333333333333 113.77777777777777 L 469.3333333333333 113.77777777777777 Q 468.44444444444446 100.44444444444444 455.1111111111111 99.55555555555556 L 56.888888888888886 99.55555555555556 L 56.888888888888886 99.55555555555556 Z M 0 113.77777777777777 Q 0.8888888888888888 89.77777777777777 16.88888888888889 73.77777777777777 L 16.88888888888889 73.77777777777777 L 16.88888888888889 73.77777777777777 Q 32.888888888888886 57.77777777777778 56.888888888888886 56.888888888888886 L 455.1111111111111 56.888888888888886 L 455.1111111111111 56.888888888888886 Q 479.1111111111111 57.77777777777778 495.1111111111111 73.77777777777777 Q 511.1111111111111 89.77777777777777 512 113.77777777777777 L 512 398.22222222222223 L 512 398.22222222222223 Q 511.1111111111111 422.22222222222223 495.1111111111111 438.22222222222223 Q 479.1111111111111 454.22222222222223 455.1111111111111 455.1111111111111 L 56.888888888888886 455.1111111111111 L 56.888888888888886 455.1111111111111 Q 32.888888888888886 454.22222222222223 16.88888888888889 438.22222222222223 Q 0.8888888888888888 422.22222222222223 0 398.22222222222223 L 0 113.77777777777777 L 0 113.77777777777777 Z M 204.44444444444446 182.22222222222223 L 268.44444444444446 310.22222222222223 L 204.44444444444446 182.22222222222223 L 268.44444444444446 310.22222222222223 Q 274.6666666666667 328.8888888888889 258.6666666666667 339.55555555555554 Q 240 345.77777777777777 230.22222222222223 329.77777777777777 L 224.88888888888889 320 L 224.88888888888889 320 L 144.88888888888889 320 L 144.88888888888889 320 L 139.55555555555554 329.77777777777777 L 139.55555555555554 329.77777777777777 Q 129.77777777777777 345.77777777777777 111.11111111111111 338.6666666666667 Q 94.22222222222223 328.8888888888889 102.22222222222223 310.22222222222223 L 166.22222222222223 182.22222222222223 L 166.22222222222223 182.22222222222223 Q 172.44444444444446 170.66666666666666 184.88888888888889 170.66666666666666 Q 198.22222222222223 170.66666666666666 204.44444444444446 182.22222222222223 L 204.44444444444446 182.22222222222223 Z M 184.88888888888889 240 L 166.22222222222223 277.3333333333333 L 184.88888888888889 240 L 166.22222222222223 277.3333333333333 L 203.55555555555554 277.3333333333333 L 203.55555555555554 277.3333333333333 L 184.88888888888889 240 L 184.88888888888889 240 Z M 348.44444444444446 256 Q 328.8888888888889 257.77777777777777 327.1111111111111 277.3333333333333 Q 328.8888888888889 296.8888888888889 348.44444444444446 298.6666666666667 Q 368 296.8888888888889 369.77777777777777 277.3333333333333 Q 368 257.77777777777777 348.44444444444446 256 L 348.44444444444446 256 Z M 369.77777777777777 216.88888888888889 L 369.77777777777777 192 L 369.77777777777777 216.88888888888889 L 369.77777777777777 192 Q 371.55555555555554 172.44444444444446 391.1111111111111 170.66666666666666 Q 410.6666666666667 172.44444444444446 412.44444444444446 192 L 412.44444444444446 277.3333333333333 L 412.44444444444446 277.3333333333333 L 412.44444444444446 320 L 412.44444444444446 320 Q 410.6666666666667 339.55555555555554 391.1111111111111 341.3333333333333 Q 382.22222222222223 341.3333333333333 376 335.1111111111111 Q 363.55555555555554 341.3333333333333 348.44444444444446 341.3333333333333 Q 320.8888888888889 340.44444444444446 303.1111111111111 322.6666666666667 Q 285.3333333333333 304.8888888888889 284.44444444444446 277.3333333333333 Q 285.3333333333333 249.77777777777777 303.1111111111111 232 Q 320.8888888888889 214.22222222222223 348.44444444444446 213.33333333333334 Q 360 213.33333333333334 369.77777777777777 216.88888888888889 L 369.77777777777777 216.88888888888889 Z" />
</svg>