<svg xmlns="http://www.w3.org/2000/svg" viewBox="0 0 512 512">
  <path d="M 42.666668 440.8889 L 42.666668 184.88889 L 42.666668 440.8889 L 42.666668 184.88889 L 144.88889 184.88889 L 144.88889 184.88889 L 166.22223 140.44444 L 166.22223 140.44444 Q 176 119.111115 197.33333 109.333336 Q 190.22223 73.77778 163.55556 51.555557 Q 136.88889 29.333334 99.55556 28.444445 Q 56.88889 29.333334 29.333334 57.77778 Q 0.8888889 85.333336 0 128 L 0 440.8889 L 0 440.8889 Q 0.8888889 458.66666 12.444445 471.1111 Q 24.88889 482.66666 42.666668 483.55554 L 131.55556 483.55554 L 131.55556 483.55554 Q 116.44444 465.77777 113.77778 440.8889 L 42.666668 440.8889 L 42.666668 440.8889 Z M 156.44444 142.22223 L 42.666668 142.22223 L 156.44444 142.22223 L 42.666668 142.22223 L 42.666668 128 L 42.666668 128 Q 43.555557 104 59.555557 88 Q 75.55556 72 99.55556 71.111115 Q 123.55556 72 139.55556 88 Q 155.55556 104 156.44444 128 L 156.44444 142.22223 L 156.44444 142.22223 Z M 229.33333 172.44444 L 327.1111 129.77777 L 229.33333 172.44444 L 327.1111 129.77777 L 424.8889 172.44444 L 424.8889 172.44444 L 469.33334 267.55554 L 469.33334 267.55554 L 469.33334 433.77777 L 469.33334 433.77777 Q 468.44446 440 462.22223 440.8889 L 384 440.8889 L 384 440.8889 L 384 391.1111 L 384 391.1111 Q 384 376 373.33334 366.22223 Q 363.55554 355.55554 348.44446 355.55554 L 305.77777 355.55554 L 305.77777 355.55554 Q 290.66666 355.55554 280.8889 366.22223 Q 270.22223 376 270.22223 391.1111 L 270.22223 440.8889 L 270.22223 440.8889 L 192 440.8889 L 192 440.8889 Q 185.77777 440 184.88889 433.77777 L 184.88889 267.55554 L 184.88889 267.55554 L 229.33333 172.44444 L 229.33333 172.44444 Z M 341.33334 89.77778 Q 327.1111 83.55556 312.8889 89.77778 L 209.77777 135.11111 L 209.77777 135.11111 Q 197.33333 140.44444 192 152 L 145.77777 251.55556 L 145.77777 251.55556 Q 142.22223 258.66666 142.22223 266.66666 L 142.22223 433.77777 L 142.22223 433.77777 Q 143.11111 455.1111 156.44444 469.33334 Q 170.66667 482.66666 192 483.55554 L 462.22223 483.55554 L 462.22223 483.55554 Q 483.55554 482.66666 497.77777 469.33334 Q 511.1111 455.1111 512 433.77777 L 512 266.66666 L 512 266.66666 Q 512 258.66666 508.44446 251.55556 L 462.22223 152 L 462.22223 152 Q 456.8889 140.44444 444.44446 135.11111 L 341.33334 89.77778 L 341.33334 89.77778 Z M 284.44446 248.88889 L 284.44446 291.55554 L 284.44446 248.88889 L 284.44446 291.55554 Q 286.22223 311.1111 305.77777 312.8889 L 348.44446 312.8889 L 348.44446 312.8889 Q 368 311.1111 369.77777 291.55554 L 369.77777 248.88889 L 369.77777 248.88889 Q 368 229.33333 348.44446 227.55556 L 305.77777 227.55556 L 305.77777 227.55556 Q 286.22223 229.33333 284.44446 248.88889 L 284.44446 248.88889 Z" />
</svg>