<svg xmlns="http://www.w3.org/2000/svg" viewBox="0 0 512 512">
  <path d="M 184 24 Q 182 2 160 0 Q 138 2 136 24 L 136 64 L 136 64 L 96 64 L 96 64 Q 69 65 51 83 Q 33 101 32 128 L 32 144 L 32 144 L 32 192 L 32 192 L 32 448 L 32 448 Q 33 475 51 493 Q 69 511 96 512 L 416 512 L 416 512 Q 443 511 461 493 Q 479 475 480 448 L 480 192 L 480 192 L 480 144 L 480 144 L 480 128 L 480 128 Q 479 101 461 83 Q 443 65 416 64 L 376 64 L 376 64 L 376 24 L 376 24 Q 374 2 352 0 Q 330 2 328 24 L 328 64 L 328 64 L 184 64 L 184 64 L 184 24 L 184 24 Z M 80 192 L 432 192 L 80 192 L 432 192 L 432 448 L 432 448 Q 431 463 416 464 L 96 464 L 96 464 Q 81 463 80 448 L 80 192 L 80 192 Z M 179 329 L 132 390 L 179 329 L 132 390 Q 126 399 130 407 Q 134 415 145 416 L 371 416 L 371 416 Q 381 415 385 408 Q 389 400 384 391 L 301 260 L 301 260 Q 296 253 288 253 Q 280 253 274 260 L 216 344 L 216 344 L 205 329 L 205 329 Q 192 316 179 329 L 179 329 Z M 160 288 Q 174 288 183 279 L 183 279 L 183 279 Q 192 270 192 256 Q 192 242 183 233 Q 174 224 160 224 Q 146 224 137 233 Q 128 242 128 256 Q 128 270 137 279 Q 146 288 160 288 L 160 288 Z" />
</svg>