<svg xmlns="http://www.w3.org/2000/svg" viewBox="0 0 516 450">
    <path d="M 19 261 Q 0 225 19 189 L 107 36 Q 129 1 170 0 L 346 0 Q 387 1 409 36 L 497 189 Q 516 225 497 261 L 409 414 Q 387 449 346 450 L 170 450 Q 129 449 107 414 L 19 261 L 19 261 Z M 61 213 Q 54 225 61 237 L 149 390 Q 156 401 170 402 L 346 402 Q 360 401 367 390 L 455 237 Q 462 225 455 213 L 367 60 Q 360 49 346 48 L 170 48 Q 156 49 149 60 L 61 213 L 61 213 Z M 258 97 Q 272 97 281 106 L 281 106 Q 290 115 290 129 Q 290 143 281 152 Q 272 161 258 161 Q 244 161 235 152 Q 226 143 226 129 Q 226 115 235 106 Q 244 97 258 97 L 258 97 Z M 170 201 L 346 201 Q 368 203 370 225 Q 368 247 346 249 L 170 249 Q 148 247 146 225 Q 148 203 170 201 L 170 201 Z M 226 321 Q 226 307 235 298 L 235 298 Q 244 289 258 289 Q 272 289 281 298 Q 290 307 290 321 Q 290 335 281 344 Q 272 353 258 353 Q 244 353 235 344 Q 226 335 226 321 L 226 321 Z"/>
</svg>
