<svg xmlns="http://www.w3.org/2000/svg" viewBox="0 0 512 512">
  <path d="M 135.94482758620688 58.262068965517244 Q 155.3655172413793 60.02758620689655 157.13103448275862 79.44827586206897 L 157.13103448275862 112.1103448275862 L 157.13103448275862 112.1103448275862 Q 158.01379310344828 150.95172413793102 180.08275862068965 180.9655172413793 Q 202.15172413793104 210.97931034482758 239.22758620689655 223.33793103448275 Q 299.2551724137931 240.99310344827586 359.28275862068966 225.10344827586206 L 455.50344827586207 200.38620689655173 L 455.50344827586207 200.38620689655173 Q 474.92413793103447 196.8551724137931 481.1034482758621 215.39310344827587 Q 484.63448275862066 234.81379310344826 466.09655172413795 240.99310344827586 L 369.8758620689655 266.5931034482759 L 369.8758620689655 266.5931034482759 Q 350.4551724137931 271.00689655172414 331.0344827586207 273.6551724137931 L 316.02758620689656 365.46206896551723 L 316.02758620689656 365.46206896551723 Q 301.90344827586205 360.1655172413793 288.6620689655172 351.3379310344828 Q 282.48275862068965 346.92413793103447 276.3034482758621 345.15862068965515 L 287.7793103448276 274.53793103448277 L 287.7793103448276 274.53793103448277 Q 256.88275862068963 272.77241379310345 226.86896551724138 263.9448275862069 Q 220.68965517241378 262.17931034482757 215.39310344827587 259.5310344827586 L 196.8551724137931 365.46206896551723 L 196.8551724137931 365.46206896551723 Q 184.49655172413793 368.99310344827586 171.2551724137931 369.8758620689655 Q 162.42758620689656 369.8758620689655 152.71724137931034 367.22758620689655 L 176.55172413793105 237.46206896551723 L 176.55172413793105 237.46206896551723 Q 147.42068965517242 214.5103448275862 131.53103448275863 182.73103448275862 Q 114.75862068965517 150.06896551724137 114.75862068965517 112.1103448275862 L 114.75862068965517 79.44827586206897 L 114.75862068965517 79.44827586206897 Q 116.52413793103449 60.02758620689655 135.94482758620688 58.262068965517244 L 135.94482758620688 58.262068965517244 Z M 234.81379310344826 143.00689655172414 Q 235.69655172413792 114.75862068965517 259.5310344827586 100.63448275862069 Q 284.24827586206897 86.51034482758621 308.9655172413793 100.63448275862069 Q 332.8 114.75862068965517 333.68275862068964 143.00689655172414 Q 332.8 171.2551724137931 308.9655172413793 185.3793103448276 Q 284.24827586206897 199.50344827586207 259.5310344827586 185.3793103448276 Q 235.69655172413792 171.2551724137931 234.81379310344826 143.00689655172414 L 234.81379310344826 143.00689655172414 Z M 100.63448275862069 381.35172413793106 Q 114.75862068965517 393.7103448275862 133.29655172413794 402.53793103448277 L 133.29655172413794 402.53793103448277 L 133.29655172413794 402.53793103448277 Q 151.83448275862068 411.36551724137934 171.2551724137931 411.36551724137934 Q 190.67586206896553 411.36551724137934 209.21379310344827 402.53793103448277 Q 226.86896551724138 393.7103448275862 241.87586206896552 381.35172413793106 Q 256 370.7586206896552 270.1241379310345 381.35172413793106 Q 284.24827586206897 393.7103448275862 302.78620689655173 402.53793103448277 Q 321.3241379310345 411.36551724137934 340.7448275862069 411.36551724137934 Q 360.1655172413793 411.36551724137934 378.70344827586206 402.53793103448277 Q 396.3586206896552 393.7103448275862 411.36551724137934 381.35172413793106 Q 425.4896551724138 370.7586206896552 439.6137931034483 381.35172413793106 Q 463.44827586206895 402.53793103448277 493.46206896551723 409.6 Q 512 415.7793103448276 509.35172413793106 435.2 Q 503.17241379310343 453.73793103448276 484.63448275862066 451.0896551724138 Q 444.9103448275862 439.6137931034483 425.4896551724138 423.7241379310345 Q 387.5310344827586 451.97241379310344 340.7448275862069 453.73793103448276 Q 293.95862068965516 451.97241379310344 256 423.7241379310345 Q 218.04137931034484 451.97241379310344 171.2551724137931 453.73793103448276 Q 124.46896551724137 451.97241379310344 86.51034482758621 423.7241379310345 Q 66.20689655172414 439.6137931034483 27.36551724137931 451.0896551724138 Q 7.944827586206896 453.73793103448276 1.7655172413793103 435.2 Q 0 415.7793103448276 18.53793103448276 409.6 Q 48.55172413793103 401.6551724137931 72.38620689655173 381.35172413793106 Q 86.51034482758621 370.7586206896552 100.63448275862069 381.35172413793106 L 100.63448275862069 381.35172413793106 Z" />
</svg>