<svg xmlns="http://www.w3.org/2000/svg" viewBox="0 0 512 512">
  <path d="M 30.72 57.895386 L 118.941536 95.70461 L 30.72 57.895386 L 118.941536 95.70461 Q 133.9077 103.581535 128.39384 120.12308 Q 120.51692 135.87692 103.97539 130.36308 L 15.753846 92.55385 L 15.753846 92.55385 Q 0 84.676926 5.513846 68.13538 Q 13.390769 52.38154 30.72 57.895386 L 30.72 57.895386 Z M 118.941536 218.58461 L 30.72 256.39386 L 118.941536 218.58461 L 30.72 256.39386 Q 14.178461 261.90768 5.513846 246.15384 Q 0 229.6123 15.753846 221.73538 L 103.97539 183.92615 L 103.97539 183.92615 Q 120.51692 178.41231 128.39384 194.16615 Q 133.9077 210.70769 118.941536 218.58461 L 118.941536 218.58461 Z M 247.33539 58.68308 Q 256 53.956924 264.6646 58.68308 L 346.58463 102.793846 L 346.58463 102.793846 Q 361.55078 112.246155 354.46155 128 Q 346.58463 141.39076 331.61847 137.4523 L 331.61847 157.14462 L 331.61847 157.14462 L 293.80923 157.14462 L 293.80923 157.14462 L 293.80923 116.972305 L 293.80923 116.972305 L 256 96.49231 L 256 96.49231 L 218.19077 116.972305 L 218.19077 116.972305 L 218.19077 157.14462 L 218.19077 157.14462 L 180.38155 157.14462 L 180.38155 157.14462 L 180.38155 137.4523 L 180.38155 137.4523 Q 165.41539 141.39076 157.53847 128 Q 150.44923 112.246155 165.41539 102.793846 L 247.33539 58.68308 L 247.33539 58.68308 Z M 211.10153 220.16 L 170.92923 421.80923 L 211.10153 220.16 L 170.92923 421.80923 L 230.79385 421.80923 L 230.79385 421.80923 L 230.79385 384 L 230.79385 384 Q 230.79385 372.97232 237.88307 365.8831 Q 244.9723 358.79385 256 358.79385 Q 267.02768 358.79385 274.1169 365.8831 Q 281.20615 372.97232 281.20615 384 L 281.20615 421.80923 L 281.20615 421.80923 L 341.07077 421.80923 L 341.07077 421.80923 L 300.89847 220.16 L 300.89847 220.16 L 211.10153 220.16 L 211.10153 220.16 Z M 281.20615 459.61847 L 230.79385 459.61847 L 281.20615 459.61847 L 123.667694 459.61847 Q 106.33846 458.0431 104.76308 440.71384 Q 106.33846 423.3846 123.667694 421.80923 L 132.3323 421.80923 L 132.3323 421.80923 L 172.50461 220.16 L 172.50461 220.16 Q 156.75076 217.79692 155.17538 201.25539 Q 156.75076 183.92615 174.08 182.35077 L 180.38155 182.35077 L 337.92 182.35077 Q 355.24924 183.92615 356.82462 201.25539 Q 355.24924 217.79692 339.4954 220.16 L 379.6677 421.80923 L 379.6677 421.80923 L 388.3323 421.80923 L 388.3323 421.80923 Q 405.66153 423.3846 407.2369 440.71384 Q 405.66153 458.0431 388.3323 459.61847 L 359.18768 459.61847 L 281.20615 459.61847 Z M 506.48615 68.13538 Q 512 84.676926 497.03384 92.55385 L 408.81232 130.36308 L 408.81232 130.36308 Q 392.27078 135.87692 383.60614 120.91077 Q 378.09232 104.36923 393.84616 95.70461 L 482.0677 57.895386 L 482.0677 57.895386 Q 498.60922 52.38154 506.48615 68.13538 L 506.48615 68.13538 Z M 383.60614 194.16615 Q 392.27078 178.41231 408.81232 183.92615 L 497.03384 221.73538 L 497.03384 221.73538 Q 512 230.4 506.48615 246.94154 Q 498.60922 261.90768 482.0677 256.39386 L 393.84616 218.58461 L 393.84616 218.58461 Q 378.09232 210.70769 383.60614 194.16615 L 383.60614 194.16615 Z" />
</svg>