<svg xmlns="http://www.w3.org/2000/svg" viewBox="0 0 512 512">
  <path d="M 412 76.8 Q 382.4 77.6 361.6 97.6 L 358.4 100.8 L 358.4 100.8 L 352.8 95.2 L 352.8 95.2 Q 339.2 84 325.6 95.2 Q 314.4 108.8 325.6 122.4 L 331.2 128 L 331.2 128 L 320 139.2 L 320 139.2 L 314.4 133.6 L 314.4 133.6 Q 300.8 122.4 287.2 133.6 Q 276 147.2 287.2 160.8 L 292.8 166.4 L 292.8 166.4 L 281.6 177.6 L 281.6 177.6 L 276 172 L 276 172 Q 262.4 160.8 248.8 172 Q 237.6 185.6 248.8 199.2 L 254.4 204.8 L 254.4 204.8 L 182.4 277.6 L 182.4 277.6 L 212 192 L 212 192 Q 228.8 189.6 230.4 172.8 Q 228.8 155.2 211.2 153.6 L 198.4 153.6 L 19.2 153.6 Q 1.6 155.2 0 172.8 Q 1.6 190.4 19.2 192 L 20.8 192 L 20.8 192 L 3.2 271.2 L 3.2 271.2 Q 0 285.6 0 300.8 Q 1.6 357.6 39.2 396 Q 77.6 433.6 134.4 435.2 L 141.6 435.2 L 141.6 435.2 Q 173.6 435.2 201.6 422.4 Q 229.6 409.6 249.6 385.6 L 429.6 175.2 L 429.6 175.2 Q 431.2 172.8 434.4 172.8 L 474.4 172.8 L 474.4 172.8 Q 490.4 172 500.8 161.6 Q 512 151.2 512 135.2 Q 512 120 500.8 108.8 L 489.6 97.6 L 489.6 97.6 Q 468.8 77.6 440 76.8 L 412 76.8 L 412 76.8 Z M 60 192 L 171.2 192 L 60 192 L 171.2 192 L 143.2 272.8 L 143.2 272.8 Q 140.8 278.4 140.8 284.8 Q 140.8 299.2 151.2 309.6 Q 161.6 319.2 176 320 L 178.4 320 L 178.4 320 Q 193.6 320 204.8 308.8 L 294.4 219.2 L 294.4 219.2 Q 294.4 219.2 294.4 219.2 Q 295.2 218.4 295.2 218.4 Q 296 218.4 296 217.6 L 332.8 180.8 L 332.8 180.8 Q 332.8 180.8 332.8 180.8 Q 333.6 180 333.6 180 Q 333.6 179.2 334.4 179.2 L 371.2 142.4 L 371.2 142.4 Q 371.2 142.4 372 141.6 Q 372 141.6 372 141.6 Q 372 141.6 372 141.6 Q 372.8 140.8 372.8 140.8 L 388.8 124.8 L 388.8 124.8 Q 398.4 115.2 412 115.2 L 440 115.2 L 440 115.2 Q 452.8 115.2 462.4 124.8 L 472 134.4 L 472 134.4 L 434.4 134.4 L 434.4 134.4 Q 413.6 134.4 400 150.4 L 220.8 360.8 L 220.8 360.8 Q 188.8 396 141.6 396.8 L 134.4 396.8 L 134.4 396.8 Q 93.6 396 66.4 368.8 Q 39.2 341.6 38.4 300.8 Q 38.4 290.4 40.8 280 L 60 192 L 60 192 Z M 108.8 294.4 Q 107.2 276.8 89.6 275.2 Q 72 276.8 70.4 294.4 Q 72 312 89.6 313.6 Q 107.2 312 108.8 294.4 L 108.8 294.4 Z M 102.4 249.6 Q 120 248 121.6 230.4 Q 120 212.8 102.4 211.2 Q 84.8 212.8 83.2 230.4 Q 84.8 248 102.4 249.6 L 102.4 249.6 Z" />
</svg>