<svg xmlns="http://www.w3.org/2000/svg" viewBox="0 0 512 512">
  <path d="M 42.666666666666664 99.55555555555556 L 42.666666666666664 384 L 42.666666666666664 99.55555555555556 L 42.666666666666664 384 Q 43.55555555555556 397.3333333333333 56.888888888888886 398.22222222222223 L 238.22222222222223 398.22222222222223 L 238.22222222222223 398.22222222222223 Q 247.11111111111111 421.3333333333333 263.1111111111111 440.8888888888889 L 56.888888888888886 440.8888888888889 L 56.888888888888886 440.8888888888889 Q 32.888888888888886 440 16.88888888888889 424 Q 0.8888888888888888 408 0 384 L 0 99.55555555555556 L 0 99.55555555555556 Q 0.8888888888888888 75.55555555555556 16.88888888888889 59.55555555555556 Q 32.888888888888886 43.55555555555556 56.888888888888886 42.666666666666664 L 275.55555555555554 42.666666666666664 L 275.55555555555554 42.666666666666664 Q 298.6666666666667 42.666666666666664 315.55555555555554 59.55555555555556 L 381.3333333333333 125.33333333333333 L 381.3333333333333 125.33333333333333 L 351.1111111111111 155.55555555555554 L 351.1111111111111 155.55555555555554 L 285.3333333333333 89.77777777777777 L 285.3333333333333 89.77777777777777 Q 284.44444444444446 88.88888888888889 284.44444444444446 88.88888888888889 L 284.44444444444446 177.77777777777777 L 284.44444444444446 177.77777777777777 Q 282.6666666666667 197.33333333333334 263.1111111111111 199.11111111111111 L 92.44444444444444 199.11111111111111 L 92.44444444444444 199.11111111111111 Q 72.88888888888889 197.33333333333334 71.11111111111111 177.77777777777777 L 71.11111111111111 85.33333333333333 L 71.11111111111111 85.33333333333333 L 56.888888888888886 85.33333333333333 L 56.888888888888886 85.33333333333333 Q 43.55555555555556 86.22222222222223 42.666666666666664 99.55555555555556 L 42.666666666666664 99.55555555555556 Z M 381.3333333333333 125.33333333333333 Q 398.22222222222223 142.22222222222223 398.22222222222223 166.22222222222223 L 398.22222222222223 185.77777777777777 L 398.22222222222223 185.77777777777777 Q 391.1111111111111 184.88888888888889 384 184.88888888888889 Q 369.77777777777777 184.88888888888889 355.55555555555554 187.55555555555554 L 355.55555555555554 166.22222222222223 L 355.55555555555554 166.22222222222223 Q 355.55555555555554 160 351.1111111111111 155.55555555555554 L 381.3333333333333 125.33333333333333 L 381.3333333333333 125.33333333333333 Z M 227.55555555555554 341.3333333333333 Q 227.55555555555554 344.8888888888889 227.55555555555554 347.55555555555554 L 227.55555555555554 347.55555555555554 L 227.55555555555554 347.55555555555554 Q 227.55555555555554 347.55555555555554 227.55555555555554 347.55555555555554 Q 215.11111111111111 355.55555555555554 199.11111111111111 355.55555555555554 Q 175.11111111111111 354.6666666666667 159.11111111111111 338.6666666666667 Q 143.11111111111111 322.6666666666667 142.22222222222223 298.6666666666667 Q 143.11111111111111 274.6666666666667 159.11111111111111 258.6666666666667 Q 175.11111111111111 242.66666666666666 199.11111111111111 241.77777777777777 Q 230.22222222222223 242.66666666666666 246.22222222222223 266.6666666666667 Q 228.44444444444446 300.44444444444446 227.55555555555554 341.3333333333333 L 227.55555555555554 341.3333333333333 Z M 113.77777777777777 85.33333333333333 L 113.77777777777777 156.44444444444446 L 113.77777777777777 85.33333333333333 L 113.77777777777777 156.44444444444446 L 241.77777777777777 156.44444444444446 L 241.77777777777777 156.44444444444446 L 241.77777777777777 85.33333333333333 L 241.77777777777777 85.33333333333333 L 113.77777777777777 85.33333333333333 L 113.77777777777777 85.33333333333333 Z M 256 341.3333333333333 Q 256 306.6666666666667 272.8888888888889 277.3333333333333 L 272.8888888888889 277.3333333333333 L 272.8888888888889 277.3333333333333 Q 289.77777777777777 248 320 230.22222222222223 Q 350.22222222222223 213.33333333333334 384 213.33333333333334 Q 417.77777777777777 213.33333333333334 448 230.22222222222223 Q 478.22222222222223 248 495.1111111111111 277.3333333333333 Q 512 306.6666666666667 512 341.3333333333333 Q 512 376 495.1111111111111 405.3333333333333 Q 478.22222222222223 434.6666666666667 448 452.44444444444446 Q 417.77777777777777 469.3333333333333 384 469.3333333333333 Q 350.22222222222223 469.3333333333333 320 452.44444444444446 Q 289.77777777777777 434.6666666666667 272.8888888888889 405.3333333333333 Q 256 376 256 341.3333333333333 L 256 341.3333333333333 Z M 381.3333333333333 281.77777777777777 Q 372.44444444444446 291.55555555555554 381.3333333333333 301.3333333333333 L 406.22222222222223 327.1111111111111 L 406.22222222222223 327.1111111111111 L 327.1111111111111 327.1111111111111 L 327.1111111111111 327.1111111111111 Q 313.77777777777777 328 312.8888888888889 341.3333333333333 Q 313.77777777777777 354.6666666666667 327.1111111111111 355.55555555555554 L 406.22222222222223 355.55555555555554 L 406.22222222222223 355.55555555555554 L 381.3333333333333 381.3333333333333 L 381.3333333333333 381.3333333333333 Q 372.44444444444446 391.1111111111111 381.3333333333333 400.8888888888889 Q 391.1111111111111 409.77777777777777 400.8888888888889 400.8888888888889 L 450.6666666666667 351.1111111111111 L 450.6666666666667 351.1111111111111 Q 459.55555555555554 341.3333333333333 450.6666666666667 331.55555555555554 L 400.8888888888889 281.77777777777777 L 400.8888888888889 281.77777777777777 Q 391.1111111111111 272.8888888888889 381.3333333333333 281.77777777777777 L 381.3333333333333 281.77777777777777 Z" />
</svg>