<svg xmlns="http://www.w3.org/2000/svg" viewBox="0 0 512 512">
  <path d="M 0 255 Q 1 276 23 280 Q 45 279 48 258 L 49 250 L 49 250 Q 52 207 81 180 Q 110 153 152 152 L 366 152 L 366 152 L 311 207 L 311 207 Q 297 224 311 241 Q 328 255 345 241 L 441 145 L 441 145 Q 455 128 441 111 L 345 15 L 345 15 Q 328 1 311 15 Q 297 32 311 49 L 366 104 L 366 104 L 152 104 L 152 104 Q 91 105 48 145 Q 6 185 1 247 L 0 255 L 0 255 Z M 512 258 Q 511 236 489 232 Q 467 233 464 255 L 464 263 L 464 263 Q 460 305 431 332 Q 402 359 360 360 L 146 360 L 146 360 L 201 305 L 201 305 Q 215 288 201 271 Q 184 257 167 271 L 71 367 L 71 367 Q 57 384 71 401 L 167 497 L 167 497 Q 184 511 201 497 Q 215 480 201 463 L 146 408 L 146 408 L 360 408 L 360 408 Q 422 407 464 367 Q 506 327 512 266 L 512 258 L 512 258 Z" />
</svg>