<svg xmlns="http://www.w3.org/2000/svg" viewBox="0 0 512 512">
  <path d="M 36.57143 27.428572 Q 38.857143 2.2857144 64 0 L 448 0 L 448 0 Q 465.14285 1.1428572 473.14285 16 Q 480 32 468.57144 45.714287 L 123.42857 457.14285 L 123.42857 457.14285 L 448 457.14285 L 448 457.14285 Q 473.14285 459.42856 475.42856 484.57144 Q 473.14285 509.7143 448 512 L 64 512 L 64 512 Q 46.857143 510.85715 38.857143 496 Q 32 480 43.42857 467.42856 L 389.7143 54.857143 L 389.7143 54.857143 L 64 54.857143 L 64 54.857143 Q 38.857143 52.57143 36.57143 27.428572 L 36.57143 27.428572 Z" />
</svg>