<svg xmlns="http://www.w3.org/2000/svg" viewBox="0 0 512 512">
  <path d="M 272.54752 13.627377 Q 256 0 239.45247 13.627377 L 146.0076 107.07224 L 146.0076 107.07224 Q 132.38023 123.619774 146.0076 140.1673 Q 162.55513 153.79468 179.10266 140.1673 L 232.63878 86.63118 L 232.63878 86.63118 L 232.63878 425.36884 L 232.63878 425.36884 L 179.10266 371.8327 L 179.10266 371.8327 Q 162.55513 358.20532 146.0076 371.8327 Q 132.38023 388.38022 146.0076 404.92776 L 239.45247 498.37262 L 239.45247 498.37262 Q 256 512 272.54752 498.37262 L 365.9924 404.92776 L 365.9924 404.92776 Q 379.61978 388.38022 365.9924 371.8327 Q 349.44485 358.20532 332.89734 371.8327 L 279.3612 425.36884 L 279.3612 425.36884 L 279.3612 86.63118 L 279.3612 86.63118 L 332.89734 140.1673 L 332.89734 140.1673 Q 349.44485 153.79468 365.9924 140.1673 Q 379.61978 123.619774 365.9924 107.07224 L 272.54752 13.627377 L 272.54752 13.627377 Z" />
</svg>