<svg xmlns="http://www.w3.org/2000/svg" viewBox="0 0 640 480">
    <path d="M 416 48 Q 464 49 495 81 L 495 81 Q 527 112 528 160 L 528 336 L 480 336 L 480 136 Q 480 119 468 108 Q 457 96 440 96 L 360 96 Q 343 96 332 108 Q 320 119 320 136 L 320 336 L 275 336 Q 262 314 241 301 Q 219 288 192 288 Q 165 288 143 301 Q 122 314 109 336 L 80 336 Q 66 336 57 327 Q 48 318 48 304 L 48 80 Q 48 66 57 57 Q 66 48 80 48 L 416 48 L 416 48 Z M 80 384 L 96 384 Q 97 425 124 452 Q 151 479 192 480 Q 233 479 260 452 Q 287 425 288 384 L 352 384 L 448 384 L 528 384 L 576 384 L 616 384 Q 638 382 640 360 Q 638 338 616 336 L 576 336 L 576 160 Q 574 92 529 47 Q 484 2 416 0 L 80 0 Q 46 1 23 23 Q 1 46 0 80 L 0 304 Q 1 338 23 361 Q 46 383 80 384 L 80 384 Z M 432 192 L 416 192 Q 394 194 392 216 Q 394 238 416 240 L 432 240 L 432 336 L 368 336 L 368 144 L 432 144 L 432 192 L 432 192 Z M 128 96 Q 114 96 105 105 L 105 105 Q 96 114 96 128 L 96 192 Q 96 206 105 215 Q 114 224 128 224 L 256 224 Q 270 224 279 215 Q 288 206 288 192 L 288 128 Q 288 114 279 105 Q 270 96 256 96 L 128 96 L 128 96 Z M 192 336 Q 219 337 234 360 Q 246 384 234 408 Q 219 431 192 432 Q 165 431 150 408 Q 138 384 150 360 Q 165 337 192 336 L 192 336 Z"/>
</svg>
