<svg xmlns="http://www.w3.org/2000/svg" viewBox="0 0 448 448">
    <path d="M 384 48 Q 399 49 400 64 L 400 384 Q 399 399 384 400 L 64 400 Q 49 399 48 384 L 48 64 Q 49 49 64 48 L 384 48 L 384 48 Z M 64 0 Q 37 1 19 19 L 19 19 Q 1 37 0 64 L 0 384 Q 1 411 19 429 Q 37 447 64 448 L 384 448 Q 411 447 429 429 Q 447 411 448 384 L 448 64 Q 447 37 429 19 Q 411 1 384 0 L 64 0 L 64 0 Z M 236 99 Q 224 93 212 99 L 156 131 Q 138 144 147 164 Q 160 182 180 173 L 200 161 L 200 304 L 160 304 Q 138 306 136 328 Q 138 350 160 352 L 224 352 L 288 352 Q 310 350 312 328 Q 310 306 288 304 L 248 304 L 248 120 Q 248 106 236 99 L 236 99 Z"/>
</svg>
