<svg xmlns="http://www.w3.org/2000/svg" viewBox="0 0 512 512">
  <path d="M 74.06601941747573 126.26019417475729 L 256 48.71456310679611 L 74.06601941747573 126.26019417475729 L 256 48.71456310679611 L 437.93398058252427 126.26019417475729 L 437.93398058252427 126.26019417475729 Q 446.88155339805826 131.23106796116505 446.88155339805826 139.18446601941747 Q 446.88155339805826 185.9106796116505 430.9747572815534 246.55533980582524 Q 415.06796116504853 306.20582524271845 375.3009708737864 363.86796116504854 Q 334.5398058252427 420.5359223300971 261.9650485436893 457.3203883495146 Q 256 459.30873786407767 250.0349514563107 457.3203883495146 Q 177.46019417475728 420.5359223300971 136.6990291262136 363.86796116504854 Q 96.93203883495146 306.20582524271845 81.0252427184466 246.55533980582524 Q 65.11844660194174 185.9106796116505 65.11844660194174 139.18446601941747 Q 65.11844660194174 131.23106796116505 74.06601941747573 126.26019417475729 L 74.06601941747573 126.26019417475729 Z M 456.8233009708738 82.51650485436893 L 268.9242718446602 2.9825242718446603 L 456.8233009708738 82.51650485436893 L 268.9242718446602 2.9825242718446603 Q 262.95922330097085 0 256 0 Q 249.04077669902912 0 243.07572815533982 2.9825242718446603 L 55.17669902912621 82.51650485436893 L 55.17669902912621 82.51650485436893 Q 38.275728155339806 89.47572815533981 28.333980582524273 104.3883495145631 Q 17.398058252427184 119.30097087378641 17.398058252427184 139.18446601941747 Q 16.40388349514563 189.8873786407767 34.29902912621359 258.4854368932039 Q 52.19417475728155 327.08349514563105 98.92038834951457 391.70485436893205 Q 144.652427184466 457.3203883495146 230.1514563106796 500.0699029126214 Q 256 512 281.84854368932037 500.0699029126214 Q 367.34757281553397 457.3203883495146 413.07961165048545 391.70485436893205 Q 459.80582524271847 327.08349514563105 477.7009708737864 258.4854368932039 Q 495.59611650485436 189.8873786407767 494.6019417475728 139.18446601941747 Q 494.6019417475728 119.30097087378641 483.66601941747575 104.3883495145631 Q 473.7242718446602 89.47572815533981 456.8233009708738 82.51650485436893 L 456.8233009708738 82.51650485436893 Z M 232.13980582524272 341.99611650485434 Q 234.12815533980583 363.86796116504854 256 365.8563106796116 Q 277.8718446601942 363.86796116504854 279.8601941747573 341.99611650485434 L 279.8601941747573 278.36893203883494 L 279.8601941747573 278.36893203883494 L 343.4873786407767 278.36893203883494 L 343.4873786407767 278.36893203883494 Q 365.3592233009709 276.38058252427186 367.34757281553397 254.50873786407766 Q 365.3592233009709 232.6368932038835 343.4873786407767 230.64854368932038 L 279.8601941747573 230.64854368932038 L 279.8601941747573 230.64854368932038 L 279.8601941747573 167.02135922330098 L 279.8601941747573 167.02135922330098 Q 277.8718446601942 145.1495145631068 256 143.1611650485437 Q 234.12815533980583 145.1495145631068 232.13980582524272 167.02135922330098 L 232.13980582524272 230.64854368932038 L 232.13980582524272 230.64854368932038 L 168.5126213592233 230.64854368932038 L 168.5126213592233 230.64854368932038 Q 146.64077669902912 232.6368932038835 144.652427184466 254.50873786407766 Q 146.64077669902912 276.38058252427186 168.5126213592233 278.36893203883494 L 232.13980582524272 278.36893203883494 L 232.13980582524272 278.36893203883494 L 232.13980582524272 341.99611650485434 L 232.13980582524272 341.99611650485434 Z" />
</svg>