<svg xmlns="http://www.w3.org/2000/svg" viewBox="0 0 512 512">
  <path d="M 464 416 L 464 352 L 464 416 L 464 352 Q 463 337 448 336 L 64 336 L 64 336 Q 49 337 48 352 L 48 416 L 48 416 Q 49 431 64 432 L 448 432 L 448 432 Q 463 431 464 416 L 464 416 Z M 448 480 L 64 480 L 448 480 L 64 480 Q 37 479 19 461 Q 1 443 0 416 L 0 352 L 0 352 Q 1 325 19 307 Q 37 289 64 288 L 448 288 L 448 288 Q 475 289 493 307 Q 511 325 512 352 L 512 416 L 512 416 Q 511 443 493 461 Q 475 479 448 480 L 448 480 Z M 288 160 Q 287 187 269 205 L 269 205 L 269 205 Q 251 223 224 224 L 64 224 L 64 224 Q 37 223 19 205 Q 1 187 0 160 L 0 96 L 0 96 Q 1 69 19 51 Q 37 33 64 32 L 208 32 L 368 32 Q 399 33 419 53 Q 439 73 440 104 L 440 142 L 440 142 L 463 119 L 463 119 Q 480 105 497 119 Q 511 136 497 153 L 433 217 L 433 217 Q 416 231 399 217 L 335 153 L 335 153 Q 321 136 335 119 Q 352 105 369 119 L 392 142 L 392 142 L 392 104 L 392 104 Q 390 82 368 80 L 286 80 L 286 80 Q 288 88 288 96 L 288 160 L 288 160 Z" />
</svg>