<svg xmlns="http://www.w3.org/2000/svg" viewBox="0 0 512 512">
  <path d="M 256 114.4 L 241.6 98.4 L 256 114.4 L 241.6 98.4 Q 222.4 76.8 192.8 76 L 192 76 L 192 76 Q 164.8 76.8 146.4 94.4 Q 128.8 112.8 128 140 Q 128 153.6 133.6 165.6 L 76.8 165.6 L 76.8 165.6 Q 37.6 168 19.2 200 Q 0 232 0 268 Q 0 303.2 15.2 335.2 Q 31.2 366.4 64.8 380.8 Q 77.6 384.8 91.2 382.4 L 204.8 356.8 L 204.8 356.8 L 204.8 421.6 L 204.8 421.6 Q 204.8 429.6 212 433.6 Q 219.2 436 225.6 431.2 L 256 406.4 L 256 406.4 L 286.4 431.2 L 286.4 431.2 Q 292.8 436 300 433.6 Q 307.2 429.6 307.2 421.6 L 307.2 356.8 L 307.2 356.8 L 420.8 382.4 L 420.8 382.4 Q 434.4 384.8 447.2 380.8 Q 480.8 366.4 496.8 335.2 Q 512 303.2 512 268 Q 512 232 492.8 200 Q 474.4 168 435.2 165.6 L 378.4 165.6 L 378.4 165.6 Q 384 153.6 384 140 Q 383.2 112.8 365.6 94.4 Q 347.2 76.8 320 76 L 319.2 76 L 319.2 76 Q 290.4 76.8 270.4 98.4 L 256 114.4 L 256 114.4 Z M 320 165.6 L 313.6 165.6 L 320 165.6 L 276.8 165.6 Q 267.2 163.2 272 155.2 L 299.2 123.2 L 299.2 123.2 Q 306.4 116 316 114.4 Q 316.8 114.4 316.8 114.4 Q 317.6 114.4 319.2 114.4 L 320 114.4 L 320 114.4 Q 331.2 114.4 338.4 121.6 Q 345.6 128.8 345.6 140 Q 345.6 151.2 338.4 158.4 Q 331.2 165.6 320 165.6 L 320 165.6 Z M 235.2 165.6 L 192 165.6 L 235.2 165.6 L 192 165.6 Q 180.8 165.6 173.6 158.4 Q 166.4 151.2 166.4 140 Q 166.4 128.8 173.6 121.6 Q 180.8 114.4 192 114.4 L 192.8 114.4 L 192.8 114.4 Q 204.8 114.4 212.8 123.2 L 240 155.2 L 240 155.2 Q 244.8 163.2 235.2 165.6 L 235.2 165.6 Z M 192 204 L 204.8 204 L 192 204 L 204.8 204 L 204.8 317.6 L 204.8 317.6 L 83.2 344.8 L 83.2 344.8 Q 81.6 344.8 80 344.8 Q 78.4 344.8 78.4 344.8 Q 78.4 344.8 78.4 344.8 L 78.4 344.8 L 78.4 344.8 Q 60 337.6 49.6 317.6 Q 38.4 296.8 38.4 268 Q 38.4 241.6 51.2 220.8 Q 62.4 203.2 76.8 204 L 192 204 L 192 204 Z M 307.2 204 L 320 204 L 307.2 204 L 435.2 204 Q 449.6 203.2 460.8 220.8 Q 473.6 241.6 473.6 268 Q 473.6 296.8 462.4 317.6 Q 452 337.6 433.6 344.8 L 433.6 344.8 L 433.6 344.8 Q 433.6 344.8 433.6 344.8 Q 433.6 344.8 432 344.8 Q 430.4 344.8 428.8 344.8 L 307.2 317.6 L 307.2 317.6 L 307.2 204 L 307.2 204 Z" />
</svg>