<svg xmlns="http://www.w3.org/2000/svg" viewBox="0 0 647 512">
    <path d="M 240 0 Q 267 1 282 24 Q 294 48 282 72 Q 267 95 240 96 Q 213 95 198 72 Q 186 48 198 24 Q 213 1 240 0 L 240 0 Z M 340 75 Q 360 66 373 84 L 419 162 L 558 231 Q 575 240 576 260 L 576 319 Q 576 336 562 345 L 492 392 L 546 464 L 566 464 L 599 431 Q 616 417 633 431 Q 647 448 633 465 L 593 505 Q 586 512 576 512 L 440 512 Q 418 510 416 488 Q 418 466 440 464 L 486 464 L 438 400 L 313 400 Q 320 415 320 432 Q 319 466 297 488 Q 274 511 240 512 L 80 512 Q 46 511 23 488 Q 1 466 0 432 Q 1 391 32 368 L 40 352 L 71 290 Q 80 273 100 272 L 288 272 L 312 240 L 280 240 Q 268 240 261 230 L 227 186 Q 220 176 208 176 Q 192 177 185 191 L 166 234 Q 155 253 134 246 Q 115 235 122 214 L 141 171 Q 150 151 168 140 Q 186 128 208 128 Q 243 129 266 157 L 292 192 L 348 192 L 367 167 L 331 108 Q 322 88 340 75 L 340 75 Z M 80 400 Q 66 400 57 409 L 57 409 Q 48 418 48 432 Q 48 446 57 455 Q 66 464 80 464 L 240 464 Q 254 464 263 455 Q 272 446 272 432 Q 272 418 263 409 Q 254 400 240 400 L 80 400 L 80 400 Z M 240 352 L 466 352 L 528 310 L 528 270 L 398 205 L 326 301 L 312 320 L 288 320 L 110 320 L 94 352 L 240 352 L 240 352 Z"/>
</svg>
