<svg xmlns="http://www.w3.org/2000/svg" viewBox="0 0 493 517">
    <path d="M 71 14 Q 54 0 37 14 Q 23 31 37 48 L 126 137 L 29 235 Q 0 265 0 303 Q 0 341 29 371 L 146 488 Q 176 517 214 517 Q 252 517 282 488 L 472 298 Q 493 276 493 247 Q 493 218 472 196 L 321 45 Q 299 24 270 24 Q 241 24 219 45 L 160 103 L 71 14 L 71 14 Z M 160 171 L 229 240 Q 246 254 263 240 Q 277 223 263 206 L 194 137 L 253 79 Q 270 64 287 79 L 438 230 Q 452 247 438 264 L 407 295 L 49 295 Q 52 280 63 269 L 160 171 L 160 171 Z"/>
</svg>
