<svg xmlns="http://www.w3.org/2000/svg" viewBox="0 0 512 512">
  <path d="M 426.961937716263 96.11072664359861 Q 423.4186851211073 84.59515570934256 413.6747404844291 78.39446366782006 L 413.6747404844291 78.39446366782006 L 413.6747404844291 78.39446366782006 Q 403.93079584775086 73.0795847750865 392.4152249134948 75.73702422145328 L 443.7923875432526 267.9584775086505 L 443.7923875432526 267.9584775086505 Q 455.30795847750863 264.4152249134948 460.6228373702422 254.67128027681662 Q 466.8235294117647 244.9273356401384 463.280276816609 232.52595155709344 L 426.961937716263 96.11072664359861 L 426.961937716263 96.11072664359861 Z M 380.89965397923874 34.98961937716263 Q 410.13148788927333 27.903114186851212 434.93425605536333 42.07612456747405 L 434.93425605536333 42.07612456747405 L 434.93425605536333 42.07612456747405 Q 459.7370242214533 56.24913494809689 467.70934256055364 84.59515570934256 L 504.9134948096886 221.8961937716263 L 504.9134948096886 221.8961937716263 Q 512 251.1280276816609 497.8269896193772 275.93079584775086 Q 483.65397923875435 299.8477508650519 454.42214532871975 308.70588235294116 L 441.1349480968858 312.24913494809687 L 441.1349480968858 312.24913494809687 Q 428.7335640138408 314.9065743944637 418.9896193771626 309.5916955017301 Q 409.24567474048445 303.3910034602076 406.5882352941176 291.87543252595157 L 381.7854671280277 202.4083044982699 L 381.7854671280277 202.4083044982699 L 85.03806228373702 279.47404844290656 L 85.03806228373702 279.47404844290656 L 85.03806228373702 441.57785467128025 L 85.03806228373702 441.57785467128025 L 124.01384083044982 441.57785467128025 L 124.01384083044982 441.57785467128025 L 175.3910034602076 290.9896193771626 L 175.3910034602076 290.9896193771626 L 224.99653979238755 278.5882352941176 L 224.99653979238755 278.5882352941176 L 202.85121107266437 342.3667820069204 L 202.85121107266437 342.3667820069204 L 279.0311418685121 342.3667820069204 L 279.0311418685121 342.3667820069204 L 254.22837370242215 270.6159169550173 L 254.22837370242215 270.6159169550173 L 295.8615916955017 259.98615916955015 L 295.8615916955017 259.98615916955015 L 357.86851211072667 441.57785467128025 L 357.86851211072667 441.57785467128025 L 488.9688581314879 441.57785467128025 L 488.9688581314879 441.57785467128025 Q 508.4567474048443 443.34948096885813 510.2283737024221 462.83737024221455 Q 508.4567474048443 482.3252595155709 488.9688581314879 484.0968858131488 L 21.259515570934255 484.0968858131488 L 21.259515570934255 484.0968858131488 Q 1.7716262975778547 482.3252595155709 0 462.83737024221455 Q 1.7716262975778547 443.34948096885813 21.259515570934255 441.57785467128025 L 42.51903114186851 441.57785467128025 L 42.51903114186851 441.57785467128025 L 42.51903114186851 193.55017301038063 L 42.51903114186851 193.55017301038063 Q 44.29065743944636 174.06228373702422 63.778546712802765 172.29065743944636 Q 83.26643598615917 174.06228373702422 85.03806228373702 193.55017301038063 L 85.03806228373702 235.1833910034602 L 85.03806228373702 235.1833910034602 L 205.50865051903114 204.17993079584775 L 205.50865051903114 204.17993079584775 L 220.5674740484429 158.11764705882354 L 220.5674740484429 158.11764705882354 Q 225.88235294117646 144.83044982698962 240.94117647058823 143.94463667820068 Q 256 144.83044982698962 261.3148788927336 158.11764705882354 L 271.05882352941177 187.34948096885813 L 271.05882352941177 187.34948096885813 L 371.15570934256056 160.7750865051903 L 371.15570934256056 160.7750865051903 L 347.2387543252595 73.0795847750865 L 347.2387543252595 73.0795847750865 Q 344.5813148788927 61.56401384083045 349.8961937716263 51.82006920415225 Q 356.0968858131488 42.07612456747405 367.61245674740485 38.53287197231834 L 380.89965397923874 34.98961937716263 L 380.89965397923874 34.98961937716263 Z M 312.69204152249137 441.57785467128025 L 293.20415224913495 384.88581314878894 L 312.69204152249137 441.57785467128025 L 293.20415224913495 384.88581314878894 L 188.67820069204151 384.88581314878894 L 188.67820069204151 384.88581314878894 L 169.19031141868513 441.57785467128025 L 169.19031141868513 441.57785467128025 L 312.69204152249137 441.57785467128025 L 312.69204152249137 441.57785467128025 Z" />
</svg>