<svg xmlns="http://www.w3.org/2000/svg" viewBox="0 0 512 512">
  <path d="M 80.34307992202729 239.53216374269005 Q 80.34307992202729 151.7037037037037 121.26315789473684 101.80116959064327 Q 140.2261208576998 77.84795321637426 173.1617933723197 62.87719298245614 Q 205.09941520467837 47.90643274853801 256 47.90643274853801 Q 306.90058479532166 47.90643274853801 338.83820662768034 62.87719298245614 Q 371.7738791423002 77.84795321637426 390.7368421052632 101.80116959064327 Q 431.6569200779727 151.7037037037037 431.6569200779727 239.53216374269005 Q 431.6569200779727 310.3937621832359 422.67446393762185 353.3099415204678 Q 413.69200779727095 396.2261208576998 395.7270955165692 418.1832358674464 Q 380.7563352826511 438.14424951267057 348.8187134502924 450.1208576998051 Q 316.88109161793375 463.09551656920075 256 463.09551656920075 Q 195.11890838206628 463.09551656920075 163.1812865497076 450.1208576998051 Q 131.24366471734893 438.14424951267057 116.27290448343079 418.1832358674464 Q 98.30799220272904 396.2261208576998 89.32553606237816 353.3099415204678 Q 80.34307992202729 310.3937621832359 80.34307992202729 239.53216374269005 L 80.34307992202729 239.53216374269005 Z M 256 0 Q 137.2319688109162 2.9941520467836256 84.33528265107212 71.85964912280701 L 84.33528265107212 71.85964912280701 L 84.33528265107212 71.85964912280701 Q 31.43859649122807 139.7270955165692 32.43664717348928 239.53216374269005 Q 29.44249512670565 382.2534113060429 78.34697855750487 447.1267056530214 Q 127.25146198830409 512 256 511.00194931773876 Q 385.7465886939571 512 433.6530214424951 447.1267056530214 Q 482.55750487329436 382.2534113060429 479.5633528265107 239.53216374269005 Q 480.56140350877195 139.7270955165692 427.66471734892787 71.85964912280701 Q 374.76803118908384 2.9941520467836256 256 0 L 256 0 Z M 232.046783625731 207.59454191033137 Q 232.046783625731 193.62183235867445 223.06432748538012 184.63937621832358 L 223.06432748538012 184.63937621832358 L 223.06432748538012 184.63937621832358 Q 214.08187134502924 175.6569200779727 200.10916179337232 175.6569200779727 L 136.23391812865498 175.6569200779727 L 136.23391812865498 175.6569200779727 Q 122.26120857699804 175.6569200779727 113.27875243664717 184.63937621832358 Q 104.29629629629629 193.62183235867445 104.29629629629629 207.59454191033137 Q 105.2943469785575 234.541910331384 123.25925925925925 252.50682261208576 Q 141.22417153996102 270.47173489278754 168.17153996101365 271.4697855750487 Q 195.11890838206628 270.47173489278754 213.08382066276803 252.50682261208576 Q 231.0487329434698 234.541910331384 232.046783625731 207.59454191033137 L 232.046783625731 207.59454191033137 Z M 343.82846003898635 271.4697855750487 Q 370.775828460039 270.47173489278754 388.74074074074076 252.50682261208576 L 388.74074074074076 252.50682261208576 L 388.74074074074076 252.50682261208576 Q 406.7056530214425 234.541910331384 407.7037037037037 207.59454191033137 Q 407.7037037037037 193.62183235867445 398.72124756335285 184.63937621832358 Q 389.73879142300194 175.6569200779727 375.766081871345 175.6569200779727 L 311.8908382066277 175.6569200779727 L 311.8908382066277 175.6569200779727 Q 297.91812865497076 175.6569200779727 288.9356725146199 184.63937621832358 Q 279.953216374269 193.62183235867445 279.953216374269 207.59454191033137 Q 280.95126705653024 234.541910331384 298.916179337232 252.50682261208576 Q 316.88109161793375 270.47173489278754 343.82846003898635 271.4697855750487 L 343.82846003898635 271.4697855750487 Z M 208.093567251462 111.78167641325535 Q 223.06432748538012 110.78362573099415 224.06237816764133 95.81286549707602 Q 223.06432748538012 80.84210526315789 208.093567251462 79.84405458089668 Q 193.12280701754386 80.84210526315789 192.12475633528265 95.81286549707602 Q 193.12280701754386 110.78362573099415 208.093567251462 111.78167641325535 L 208.093567251462 111.78167641325535 Z M 271.96881091617934 143.71929824561403 Q 270.97076023391816 128.7485380116959 256 127.75048732943469 Q 241.02923976608187 128.7485380116959 240.03118908382066 143.71929824561403 Q 241.02923976608187 158.69005847953215 256 159.68810916179336 Q 270.97076023391816 158.69005847953215 271.96881091617934 143.71929824561403 L 271.96881091617934 143.71929824561403 Z M 240.03118908382066 303.4074074074074 Q 239.03313840155946 288.4366471734893 224.06237816764133 287.43859649122805 Q 209.0916179337232 288.4366471734893 208.093567251462 303.4074074074074 Q 209.0916179337232 318.37816764132555 224.06237816764133 319.3762183235867 Q 239.03313840155946 318.37816764132555 240.03118908382066 303.4074074074074 L 240.03118908382066 303.4074074074074 Z M 240.03118908382066 367.28265107212474 Q 239.03313840155946 352.31189083820664 224.06237816764133 351.3138401559454 Q 209.0916179337232 352.31189083820664 208.093567251462 367.28265107212474 Q 209.0916179337232 382.2534113060429 224.06237816764133 383.2514619883041 Q 239.03313840155946 382.2534113060429 240.03118908382066 367.28265107212474 L 240.03118908382066 367.28265107212474 Z M 224.06237816764133 447.1267056530214 Q 239.03313840155946 446.12865497076024 240.03118908382066 431.1578947368421 Q 239.03313840155946 416.187134502924 224.06237816764133 415.18908382066274 Q 209.0916179337232 416.187134502924 208.093567251462 431.1578947368421 Q 209.0916179337232 446.12865497076024 224.06237816764133 447.1267056530214 L 224.06237816764133 447.1267056530214 Z M 287.9376218323587 447.1267056530214 Q 302.90838206627683 446.12865497076024 303.906432748538 431.1578947368421 Q 302.90838206627683 416.187134502924 287.9376218323587 415.18908382066274 Q 272.9668615984406 416.187134502924 271.96881091617934 431.1578947368421 Q 272.9668615984406 446.12865497076024 287.9376218323587 447.1267056530214 L 287.9376218323587 447.1267056530214 Z M 287.9376218323587 383.2514619883041 Q 302.90838206627683 382.2534113060429 303.906432748538 367.28265107212474 Q 302.90838206627683 352.31189083820664 287.9376218323587 351.3138401559454 Q 272.9668615984406 352.31189083820664 271.96881091617934 367.28265107212474 Q 272.9668615984406 382.2534113060429 287.9376218323587 383.2514619883041 L 287.9376218323587 383.2514619883041 Z M 287.9376218323587 319.3762183235867 Q 302.90838206627683 318.37816764132555 303.906432748538 303.4074074074074 Q 302.90838206627683 288.4366471734893 287.9376218323587 287.43859649122805 Q 272.9668615984406 288.4366471734893 271.96881091617934 303.4074074074074 Q 272.9668615984406 318.37816764132555 287.9376218323587 319.3762183235867 L 287.9376218323587 319.3762183235867 Z M 319.87524366471735 95.81286549707602 Q 318.87719298245617 80.84210526315789 303.906432748538 79.84405458089668 Q 288.9356725146199 80.84210526315789 287.9376218323587 95.81286549707602 Q 288.9356725146199 110.78362573099415 303.906432748538 111.78167641325535 Q 318.87719298245617 110.78362573099415 319.87524366471735 95.81286549707602 L 319.87524366471735 95.81286549707602 Z" />
</svg>