<svg xmlns="http://www.w3.org/2000/svg" viewBox="0 0 512 512">
  <path d="M 448 31 Q 448 18 439 9 L 439 9 L 439 9 Q 430 0 417 0 Q 413 0 409 1 L 258 41 L 258 41 Q 241 46 240 64 L 240 366 L 240 366 Q 212 352 176 352 Q 128 353 97 375 Q 65 398 64 432 Q 65 466 97 489 Q 128 511 176 512 Q 224 511 255 489 Q 287 466 288 432 L 288 195 L 288 195 L 430 159 L 430 159 Q 447 154 448 136 L 448 31 L 448 31 Z M 240 432 Q 242 437 227 450 Q 210 463 176 464 Q 142 463 125 450 Q 110 437 112 432 Q 110 427 125 415 Q 142 401 176 400 Q 210 401 227 415 Q 242 427 240 432 L 240 432 Z M 400 117 L 288 146 L 400 117 L 288 146 L 288 83 L 288 83 L 400 53 L 400 53 L 400 117 L 400 117 Z" />
</svg>