<svg xmlns="http://www.w3.org/2000/svg" viewBox="0 0 576 384">
    <path d="M 192 48 Q 131 50 90 90 L 90 90 Q 50 131 48 192 Q 50 253 90 294 Q 131 334 192 336 L 384 336 Q 445 334 486 294 Q 526 253 528 192 Q 526 131 486 90 Q 445 50 384 48 L 192 48 L 192 48 Z M 0 192 Q 2 110 56 56 L 56 56 Q 110 2 192 0 L 384 0 Q 466 2 520 56 Q 574 110 576 192 Q 574 274 520 328 Q 466 382 384 384 L 192 384 Q 110 382 56 328 Q 2 274 0 192 L 0 192 Z M 384 96 Q 410 96 432 109 L 432 109 Q 454 122 467 144 Q 480 167 480 192 Q 480 217 467 240 Q 454 262 432 275 Q 410 288 384 288 Q 358 288 336 275 Q 314 262 301 240 Q 288 217 288 192 Q 288 167 301 144 Q 314 122 336 109 Q 358 96 384 96 L 384 96 Z"/>
</svg>
