<svg xmlns="http://www.w3.org/2000/svg" viewBox="0 0 588 518">
    <path d="M 159 163 L 142 180 Q 135 174 135 165 Q 134 155 134 145 Q 101 155 80 168 Q 64 178 59 186 Q 54 194 54 198 Q 53 204 67 218 Q 82 232 116 245 Q 185 271 294 272 Q 403 271 472 245 Q 506 232 521 218 Q 535 204 534 198 Q 534 194 529 186 Q 524 178 508 168 Q 487 155 454 145 Q 454 155 453 166 Q 453 174 446 180 L 429 163 Q 430 163 430 163 Q 442 176 444 178 Q 447 181 446 181 L 446 181 L 446 181 L 446 181 L 446 181 Q 446 181 445 182 Q 444 182 443 184 Q 440 186 436 189 Q 426 196 408 204 Q 372 222 294 224 Q 216 222 180 204 Q 162 196 152 189 Q 148 186 145 183 Q 144 182 143 182 Q 142 181 142 181 L 142 181 L 142 180 L 142 180 L 142 180 Q 141 181 144 178 Q 146 176 159 163 L 159 163 Z M 55 127 Q 92 105 147 92 Q 166 50 206 25 Q 245 1 294 0 Q 343 1 382 25 Q 422 50 441 92 Q 496 105 533 127 Q 553 139 567 157 Q 581 174 582 198 Q 580 232 553 254 Q 528 276 489 290 Q 410 319 294 320 Q 179 319 99 290 Q 60 276 35 254 Q 8 232 6 198 Q 7 175 21 157 Q 35 139 55 127 L 55 127 Z M 406 151 Q 404 107 373 78 L 373 78 Q 341 49 294 48 Q 247 49 215 78 Q 184 107 182 151 Q 188 155 199 160 Q 225 174 294 176 Q 363 174 389 160 Q 400 155 406 151 L 406 151 Z M 123 363 L 51 499 Q 39 518 19 509 Q 0 497 9 477 L 81 341 Q 93 322 113 331 Q 132 343 123 363 L 123 363 Z M 507 341 L 579 477 Q 588 497 569 509 Q 549 518 537 499 L 465 363 Q 456 343 475 331 Q 495 322 507 341 L 507 341 Z"/>
</svg>
