<svg xmlns="http://www.w3.org/2000/svg" viewBox="0 0 512 512">
  <path d="M 204.8 422.4 Q 240 422.4 271.2 408.8 Q 280 426.4 292.8 440.8 Q 252.8 460.8 204.8 460.8 Q 147.2 460 101.6 432.8 Q 55.2 405.6 28 359.2 Q 0.8 313.6 0 256 Q 0.8 198.4 28 152.8 Q 55.2 106.4 101.6 79.2 Q 147.2 52 204.8 51.2 Q 277.6 52.8 331.2 95.2 Q 384.8 137.6 403.2 204.8 Q 400 204.8 396.8 204.8 Q 380 204.8 364 208.8 Q 348 156 305.6 123.2 Q 262.4 90.4 204.8 89.6 Q 134.4 91.2 87.2 138.4 Q 40 185.6 38.4 256 Q 40 326.4 87.2 373.6 Q 134.4 420.8 204.8 422.4 L 204.8 422.4 Z M 204.8 377.6 Q 185.6 376.8 172.8 364.8 L 172.8 364.8 L 172.8 364.8 Q 160.8 352 160 332.8 Q 161.6 304.8 185.6 292 L 185.6 147.2 L 185.6 147.2 Q 187.2 129.6 204.8 128 Q 222.4 129.6 224 147.2 L 224 292 L 224 292 Q 248 304.8 249.6 332.8 Q 248.8 352 236.8 364.8 Q 224 376.8 204.8 377.6 L 204.8 377.6 Z M 102.4 179.2 Q 102.4 168 109.6 160.8 L 109.6 160.8 L 109.6 160.8 Q 116.8 153.6 128 153.6 Q 139.2 153.6 146.4 160.8 Q 153.6 168 153.6 179.2 Q 153.6 190.4 146.4 197.6 Q 139.2 204.8 128 204.8 Q 116.8 204.8 109.6 197.6 Q 102.4 190.4 102.4 179.2 L 102.4 179.2 Z M 89.6 230.4 Q 100.8 230.4 108 237.6 L 108 237.6 L 108 237.6 Q 115.2 244.8 115.2 256 Q 115.2 267.2 108 274.4 Q 100.8 281.6 89.6 281.6 Q 78.4 281.6 71.2 274.4 Q 64 267.2 64 256 Q 64 244.8 71.2 237.6 Q 78.4 230.4 89.6 230.4 L 89.6 230.4 Z M 256 179.2 Q 256 168 263.2 160.8 L 263.2 160.8 L 263.2 160.8 Q 270.4 153.6 281.6 153.6 Q 292.8 153.6 300 160.8 Q 307.2 168 307.2 179.2 Q 307.2 190.4 300 197.6 Q 292.8 204.8 281.6 204.8 Q 270.4 204.8 263.2 197.6 Q 256 190.4 256 179.2 L 256 179.2 Z M 281.6 345.6 Q 281.6 314.4 296.8 288 L 296.8 288 L 296.8 288 Q 312 261.6 339.2 245.6 Q 366.4 230.4 396.8 230.4 Q 427.2 230.4 454.4 245.6 Q 481.6 261.6 496.8 288 Q 512 314.4 512 345.6 Q 512 376.8 496.8 403.2 Q 481.6 429.6 454.4 445.6 Q 427.2 460.8 396.8 460.8 Q 366.4 460.8 339.2 445.6 Q 312 429.6 296.8 403.2 Q 281.6 376.8 281.6 345.6 L 281.6 345.6 Z M 460.8 345.6 Q 460 333.6 448 332.8 L 345.6 332.8 L 345.6 332.8 Q 333.6 333.6 332.8 345.6 Q 333.6 357.6 345.6 358.4 L 448 358.4 L 448 358.4 Q 460 357.6 460.8 345.6 L 460.8 345.6 Z" />
</svg>