<svg xmlns="http://www.w3.org/2000/svg" viewBox="0 0 512 512">
  <path d="M 64 89.6 Q 52.8 89.6 45.6 96.8 L 45.6 96.8 L 45.6 96.8 Q 38.4 104 38.4 115.2 L 38.4 396.8 L 38.4 396.8 Q 38.4 408 45.6 415.2 Q 52.8 422.4 64 422.4 Q 75.2 422.4 82.4 415.2 Q 89.6 408 89.6 396.8 L 89.6 384 L 89.6 384 L 89.6 128 L 89.6 128 L 89.6 115.2 L 89.6 115.2 Q 89.6 104 82.4 96.8 Q 75.2 89.6 64 89.6 L 64 89.6 Z M 122.4 422.4 Q 115.2 440 99.2 450.4 L 99.2 450.4 L 99.2 450.4 Q 84 460.8 64 460.8 Q 36.8 460 18.4 442.4 Q 0.8 424 0 396.8 L 0 115.2 L 0 115.2 Q 0.8 88 18.4 69.6 Q 36.8 52 64 51.2 Q 84 51.2 99.2 61.6 Q 115.2 72 122.4 89.6 L 128 89.6 L 389.6 89.6 Q 396.8 72 412.8 61.6 Q 428 51.2 448 51.2 Q 475.2 52 493.6 69.6 Q 511.2 88 512 115.2 L 512 396.8 L 512 396.8 Q 511.2 424 493.6 442.4 Q 475.2 460 448 460.8 Q 428 460.8 412.8 450.4 Q 396.8 440 389.6 422.4 L 384 422.4 L 122.4 422.4 Z M 128 384 L 384 384 L 128 384 L 384 384 L 384 128 L 384 128 L 128 128 L 128 128 L 128 384 L 128 384 Z M 422.4 396.8 Q 422.4 408 429.6 415.2 L 429.6 415.2 L 429.6 415.2 Q 436.8 422.4 448 422.4 Q 459.2 422.4 466.4 415.2 Q 473.6 408 473.6 396.8 L 473.6 115.2 L 473.6 115.2 Q 473.6 104 466.4 96.8 Q 459.2 89.6 448 89.6 Q 436.8 89.6 429.6 96.8 Q 422.4 104 422.4 115.2 L 422.4 128 L 422.4 128 L 422.4 384 L 422.4 384 L 422.4 396.8 L 422.4 396.8 Z M 156.8 302.4 Q 156.8 298.4 159.2 295.2 L 181.6 256 L 181.6 256 L 158.4 217.6 L 158.4 217.6 Q 156.8 213.6 156.8 209.6 Q 157.6 196.8 171.2 195.2 L 216.8 195.2 L 216.8 195.2 L 241.6 152 L 241.6 152 Q 246.4 144 256 144 Q 265.6 144 270.4 152 L 295.2 195.2 L 295.2 195.2 L 340.8 195.2 L 340.8 195.2 Q 353.6 196.8 355.2 209.6 Q 355.2 213.6 353.6 217.6 L 330.4 256 L 330.4 256 L 353.6 295.2 L 353.6 295.2 Q 355.2 298.4 355.2 302.4 Q 354.4 315.2 340.8 316.8 L 295.2 316.8 L 295.2 316.8 L 270.4 360 L 270.4 360 Q 265.6 368 256 368 Q 246.4 368 241.6 360 L 216.8 316.8 L 216.8 316.8 L 171.2 316.8 L 171.2 316.8 Q 158.4 315.2 156.8 302.4 L 156.8 302.4 Z M 256 345.6 L 272.8 316.8 L 256 345.6 L 272.8 316.8 L 239.2 316.8 L 239.2 316.8 L 256 345.6 L 256 345.6 Z M 204 256 L 228 297.6 L 204 256 L 228 297.6 L 284 297.6 L 284 297.6 L 308 256 L 308 256 L 284 214.4 L 284 214.4 L 228 214.4 L 228 214.4 L 203.2 256 L 204 256 Z M 319.2 275.2 L 306.4 297.6 L 319.2 275.2 L 306.4 297.6 L 332.8 297.6 L 332.8 297.6 L 319.2 275.2 L 319.2 275.2 Z M 332.8 214.4 L 306.4 214.4 L 332.8 214.4 L 306.4 214.4 L 319.2 236.8 L 319.2 236.8 L 332.8 214.4 L 332.8 214.4 Z M 256 166.4 L 239.2 195.2 L 256 166.4 L 239.2 195.2 L 272.8 195.2 L 272.8 195.2 L 256 166.4 L 256 166.4 Z M 179.2 214.4 L 192.8 236.8 L 179.2 214.4 L 192.8 236.8 L 205.6 214.4 L 205.6 214.4 L 179.2 214.4 L 179.2 214.4 Z M 205.6 297.6 L 192.8 275.2 L 205.6 297.6 L 192.8 275.2 L 179.2 297.6 L 179.2 297.6 L 205.6 297.6 L 205.6 297.6 Z" />
</svg>