<svg xmlns="http://www.w3.org/2000/svg" viewBox="0 0 576 512">
    <path d="M 384 48 Q 399 49 400 64 L 400 192 L 448 192 L 448 64 Q 447 37 429 19 Q 411 1 384 0 L 192 0 Q 165 1 147 19 Q 129 37 128 64 L 128 192 L 176 192 L 176 64 Q 177 49 192 48 L 248 48 L 248 112 Q 249 127 264 128 L 312 128 Q 327 127 328 112 L 328 48 L 384 48 L 384 48 Z M 328 512 L 512 512 Q 539 511 557 493 Q 575 475 576 448 L 576 288 Q 575 261 557 243 Q 539 225 512 224 L 328 224 Q 346 244 351 272 L 376 272 L 376 336 Q 377 351 392 352 L 440 352 Q 455 351 456 336 L 456 272 L 512 272 Q 527 273 528 288 L 528 448 Q 527 463 512 464 L 351 464 Q 346 492 328 512 L 328 512 Z M 256 272 Q 271 273 272 288 L 272 448 Q 271 463 256 464 L 64 464 Q 49 463 48 448 L 48 288 Q 49 273 64 272 L 120 272 L 120 336 Q 121 351 136 352 L 184 352 Q 199 351 200 336 L 200 272 L 256 272 L 256 272 Z M 64 224 Q 37 225 19 243 L 19 243 Q 1 261 0 288 L 0 448 Q 1 475 19 493 Q 37 511 64 512 L 256 512 Q 283 511 301 493 Q 319 475 320 448 L 320 288 Q 319 261 301 243 Q 283 225 256 224 L 64 224 L 64 224 Z"/>
</svg>
