<svg xmlns="http://www.w3.org/2000/svg" viewBox="0 0 512 512">
  <path d="M 437.02504816955684 36.994219653179194 Q 442.9441233140655 16.277456647398843 423.21387283236993 6.4123314065510595 Q 401.51059730250483 1.4797687861271676 392.6319845857418 21.210019267822737 L 387.6994219653179 34.03468208092485 L 387.6994219653179 34.03468208092485 L 329.495183044316 12.33140655105973 L 329.495183044316 12.33140655105973 Q 307.7919075144509 6.4123314065510595 298.91329479768785 26.142581888246628 L 261.4258188824663 129.72639691714835 L 261.4258188824663 129.72639691714835 Q 255.5067437379576 151.42967244701347 275.2369942196532 160.3082851637765 L 334.42774566473986 182.01156069364163 L 334.42774566473986 182.01156069364163 L 317.65703275529864 228.3776493256262 L 317.65703275529864 228.3776493256262 L 297.92678227360307 221.47206165703275 L 297.92678227360307 221.47206165703275 Q 280.16955684007706 214.5664739884393 267.34489402697494 198.78227360308284 L 239.72254335260115 164.2543352601156 L 239.72254335260115 164.2543352601156 Q 213.08670520231215 132.68593448940268 171.65317919075144 131.69942196531792 L 133.17919075144508 131.69942196531792 L 133.17919075144508 131.69942196531792 Q 106.54335260115607 131.69942196531792 85.82658959537572 145.5105973025048 Q 64.1233140655106 159.32177263969172 53.27167630057804 182.9980732177264 L 6.905587668593449 287.5684007707129 L 6.905587668593449 287.5684007707129 Q 0 308.2851637764933 18.74373795761079 319.1368015414258 Q 39.460500963391134 326.0423892100193 50.3121387283237 307.2986512524085 L 83.85356454720616 231.33718689788054 L 83.85356454720616 231.33718689788054 L 83.85356454720616 486.84393063583815 L 83.85356454720616 486.84393063583815 Q 85.82658959537572 508.5472061657033 107.52986512524085 510.5202312138728 Q 129.23314065510598 508.5472061657033 131.20616570327553 486.84393063583815 L 131.20616570327553 352.6782273603083 L 131.20616570327553 352.6782273603083 L 182.50481695568402 352.6782273603083 L 182.50481695568402 352.6782273603083 L 209.14065510597302 411.868978805395 L 209.14065510597302 411.868978805395 Q 210.1271676300578 412.8554913294798 210.1271676300578 414.82851637764935 L 210.1271676300578 486.84393063583815 L 210.1271676300578 486.84393063583815 Q 212.10019267822736 508.5472061657033 233.80346820809248 510.5202312138728 Q 255.5067437379576 508.5472061657033 257.4797687861272 486.84393063583815 L 257.4797687861272 414.82851637764935 L 257.4797687861272 414.82851637764935 Q 257.4797687861272 402.99036608863196 252.54720616570327 392.1387283236994 L 218.01926782273603 316.17726396917146 L 218.01926782273603 316.17726396917146 L 218.01926782273603 212.59344894026975 L 218.01926782273603 212.59344894026975 L 230.84393063583815 228.3776493256262 L 230.84393063583815 228.3776493256262 Q 250.57418111753373 254.02697495183045 281.15606936416185 265.86512524084776 L 300.88631984585743 272.7707129094412 L 300.88631984585743 272.7707129094412 L 290.0346820809249 302.3660886319846 L 290.0346820809249 302.3660886319846 Q 284.11560693641616 324.0693641618497 303.84585741811173 332.94797687861274 Q 325.5491329479769 338.8670520231214 334.42774566473986 319.1368015414258 L 378.8208092485549 197.79576107899808 L 378.8208092485549 197.79576107899808 L 438.0115606936416 219.4990366088632 L 438.0115606936416 219.4990366088632 Q 459.7148362235067 225.41811175337187 468.59344894026975 205.6878612716763 L 506.08092485549133 102.10404624277457 L 506.08092485549133 102.10404624277457 Q 512 80.40077071290943 492.2697495183044 71.52215799614643 L 433.07899807321775 49.81888246628131 L 433.07899807321775 49.81888246628131 L 437.02504816955684 36.994219653179194 L 437.02504816955684 36.994219653179194 Z M 335.41425818882465 64.61657032755299 L 453.79576107899805 108.02312138728324 L 335.41425818882465 64.61657032755299 L 453.79576107899805 108.02312138728324 L 432.09248554913296 167.21387283236993 L 432.09248554913296 167.21387283236993 L 313.71098265895955 123.8073217726397 L 313.71098265895955 123.8073217726397 L 335.41425818882465 64.61657032755299 L 335.41425818882465 64.61657032755299 Z M 146.990366088632 100.13102119460501 Q 173.626204238921 99.14450867052022 188.4238921001927 76.45472061657033 Q 200.26204238921002 52.77842003853564 188.4238921001927 29.102119460500962 Q 173.626204238921 6.4123314065510595 146.990366088632 5.425818882466281 Q 120.35452793834297 6.4123314065510595 105.55684007707129 29.102119460500962 Q 93.71868978805395 52.77842003853564 105.55684007707129 76.45472061657033 Q 120.35452793834297 99.14450867052022 146.990366088632 100.13102119460501 L 146.990366088632 100.13102119460501 Z M 133.17919075144508 179.0520231213873 L 170.66666666666666 179.0520231213873 L 133.17919075144508 179.0520231213873 L 170.66666666666666 179.0520231213873 L 170.66666666666666 305.3256262042389 L 170.66666666666666 305.3256262042389 L 131.20616570327553 305.3256262042389 L 131.20616570327553 305.3256262042389 L 131.20616570327553 179.0520231213873 L 131.20616570327553 179.0520231213873 Q 131.20616570327553 179.0520231213873 132.19267822736032 179.0520231213873 Q 132.19267822736032 179.0520231213873 133.17919075144508 179.0520231213873 L 133.17919075144508 179.0520231213873 Z" />
</svg>