<svg xmlns="http://www.w3.org/2000/svg" viewBox="0 0 512 448">
    <path d="M 352 114 L 462 224 L 352 334 L 352 280 Q 350 258 328 256 L 208 256 L 208 192 L 328 192 Q 350 190 352 168 L 352 114 L 352 114 Z M 512 224 Q 512 206 499 193 L 383 78 Q 370 64 350 64 Q 331 65 318 78 Q 305 91 304 110 L 304 144 L 208 144 Q 188 145 174 158 Q 161 172 160 192 L 160 256 Q 161 276 174 290 Q 188 303 208 304 L 304 304 L 304 338 Q 305 357 318 370 Q 331 384 350 384 Q 370 384 383 370 L 499 255 Q 512 242 512 224 L 512 224 Z M 168 48 Q 190 46 192 24 Q 190 2 168 0 L 88 0 Q 51 1 26 26 Q 1 51 0 88 L 0 360 Q 1 397 26 422 Q 51 447 88 448 L 168 448 Q 190 446 192 424 Q 190 402 168 400 L 88 400 Q 71 400 60 388 Q 48 377 48 360 L 48 88 Q 48 71 60 60 Q 71 48 88 48 L 168 48 L 168 48 Z"/>
</svg>
