<svg xmlns="http://www.w3.org/2000/svg" viewBox="0 0 512 448">
    <path d="M 56 48 Q 49 49 48 56 L 48 272 L 48 320 L 48 376 Q 50 398 72 400 L 440 400 Q 462 398 464 376 L 464 288 L 464 272 L 464 124 L 325 213 Q 313 220 300 214 Q 288 207 288 193 L 288 122 L 148 203 Q 136 210 124 204 Q 113 196 112 183 L 112 56 Q 111 49 104 48 L 56 48 L 56 48 Z M 0 56 Q 1 32 16 16 L 16 16 Q 32 1 56 0 L 104 0 Q 128 1 144 16 Q 159 32 160 56 L 160 141 L 264 80 Q 289 67 312 80 Q 334 93 336 122 L 336 149 L 438 83 Q 464 69 487 82 Q 510 95 512 124 L 512 272 L 512 288 L 512 376 Q 511 407 491 427 Q 471 447 440 448 L 72 448 Q 41 447 21 427 Q 1 407 0 376 L 0 320 L 0 272 L 0 56 L 0 56 Z"/>
</svg>
