<svg xmlns="http://www.w3.org/2000/svg" viewBox="0 0 512 512">
  <path d="M 73.14286 54.857143 Q 56 56 54.857143 73.14286 L 54.857143 438.85715 L 54.857143 438.85715 Q 56 456 73.14286 457.14285 L 438.85715 457.14285 L 438.85715 457.14285 Q 456 456 457.14285 438.85715 L 457.14285 73.14286 L 457.14285 73.14286 Q 456 56 438.85715 54.857143 L 73.14286 54.857143 L 73.14286 54.857143 Z M 0 73.14286 Q 1.1428572 42.285713 21.714285 21.714285 L 21.714285 21.714285 L 21.714285 21.714285 Q 42.285713 1.1428572 73.14286 0 L 438.85715 0 L 438.85715 0 Q 469.7143 1.1428572 490.2857 21.714285 Q 510.85715 42.285713 512 73.14286 L 512 438.85715 L 512 438.85715 Q 510.85715 469.7143 490.2857 490.2857 Q 469.7143 510.85715 438.85715 512 L 73.14286 512 L 73.14286 512 Q 42.285713 510.85715 21.714285 490.2857 Q 1.1428572 469.7143 0 438.85715 L 0 73.14286 L 0 73.14286 Z M 136 147.42857 L 182.85715 293.7143 L 136 147.42857 L 182.85715 293.7143 L 229.71428 147.42857 L 229.71428 147.42857 Q 236.57143 129.14285 256 128 Q 275.42856 129.14285 282.2857 147.42857 L 329.14285 293.7143 L 329.14285 293.7143 L 376 147.42857 L 376 147.42857 Q 386.2857 123.42857 410.2857 129.14285 Q 434.2857 139.42857 428.57144 163.42857 L 355.42856 392 L 355.42856 392 Q 348.57144 410.2857 329.14285 411.42856 Q 309.7143 410.2857 302.85715 392 L 256 245.71428 L 256 245.71428 L 209.14285 392 L 209.14285 392 Q 202.28572 410.2857 182.85715 411.42856 Q 163.42857 410.2857 156.57143 392 L 83.42857 163.42857 L 83.42857 163.42857 Q 77.71429 139.42857 101.71429 129.14285 Q 125.71429 123.42857 136 147.42857 L 136 147.42857 Z" />
</svg>