<svg xmlns="http://www.w3.org/2000/svg" viewBox="0 0 512 512">
  <path d="M 0 200 Q 0 192 4 185.6 L 65.6 71.2 L 65.6 71.2 Q 77.6 52 100 51.2 L 412.8 51.2 L 412.8 51.2 Q 434.4 52 446.4 71.2 L 508 184.8 L 508 184.8 Q 512 192 512 200 Q 512 212.8 503.2 221.6 Q 494.4 229.6 481.6 230.4 L 460.8 230.4 L 460.8 230.4 L 460.8 441.6 L 460.8 441.6 Q 459.2 459.2 441.6 460.8 Q 424 459.2 422.4 441.6 L 422.4 230.4 L 422.4 230.4 L 307.2 230.4 L 307.2 230.4 L 307.2 428.8 L 307.2 428.8 Q 307.2 442.4 297.6 451.2 Q 288.8 460.8 275.2 460.8 L 83.2 460.8 L 83.2 460.8 Q 69.6 460.8 60.8 451.2 Q 51.2 442.4 51.2 428.8 L 51.2 230.4 L 51.2 230.4 L 30.4 230.4 L 30.4 230.4 Q 17.6 230.4 8.8 221.6 Q 0 212.8 0 200 L 0 200 Z M 89.6 230.4 L 89.6 307.2 L 89.6 230.4 L 89.6 307.2 L 268.8 307.2 L 268.8 307.2 L 268.8 230.4 L 268.8 230.4 L 89.6 230.4 L 89.6 230.4 Z M 412.8 89.6 L 100 89.6 L 412.8 89.6 L 100 89.6 L 44 192 L 44 192 L 468 192 L 468 192 L 412.8 89.6 L 412.8 89.6 Z M 89.6 422.4 L 268.8 422.4 L 89.6 422.4 L 268.8 422.4 L 268.8 345.6 L 268.8 345.6 L 89.6 345.6 L 89.6 345.6 L 89.6 422.4 L 89.6 422.4 Z" />
</svg>