<svg xmlns="http://www.w3.org/2000/svg" viewBox="0 0 640 256">
    <path d="M 48 192 Q 49 207 64 208 L 576 208 Q 591 207 592 192 L 592 64 Q 591 49 576 48 L 528 48 L 528 96 Q 527 111 512 112 Q 497 111 496 96 L 496 48 L 432 48 L 432 96 Q 431 111 416 112 Q 401 111 400 96 L 400 48 L 336 48 L 336 96 Q 335 111 320 112 Q 305 111 304 96 L 304 48 L 240 48 L 240 96 Q 239 111 224 112 Q 209 111 208 96 L 208 48 L 144 48 L 144 96 Q 143 111 128 112 Q 113 111 112 96 L 112 48 L 64 48 Q 49 49 48 64 L 48 192 L 48 192 Z M 64 256 Q 37 255 19 237 L 19 237 Q 1 219 0 192 L 0 64 Q 1 37 19 19 Q 37 1 64 0 L 576 0 Q 603 1 621 19 Q 639 37 640 64 L 640 192 Q 639 219 621 237 Q 603 255 576 256 L 64 256 L 64 256 Z"/>
</svg>
