<svg xmlns="http://www.w3.org/2000/svg" viewBox="0 0 517 517">
    <path d="M 167 221 Q 174 199 161 179 L 122 122 L 179 161 Q 199 174 221 167 Q 244 159 252 136 L 261 107 L 273 143 Q 279 162 297 171 Q 316 180 335 173 L 357 165 L 349 187 Q 342 207 351 225 Q 360 243 379 250 L 415 261 L 382 272 Q 361 279 353 300 Q 345 320 355 340 L 372 372 L 339 355 Q 320 345 299 353 Q 279 362 271 383 L 261 415 L 250 383 Q 243 362 223 353 Q 202 345 182 355 L 150 372 L 167 340 Q 177 320 169 299 Q 160 279 139 272 L 107 261 L 136 252 Q 158 244 167 221 L 167 221 Z M 165 93 L 43 9 Q 26 0 12 12 Q 0 26 9 43 L 93 165 L 121 206 L 74 221 L 22 238 Q 6 244 5 261 Q 6 278 22 284 L 78 302 L 125 317 L 102 360 L 72 418 Q 65 433 76 446 Q 89 457 104 450 L 162 420 L 205 397 L 220 444 L 238 500 Q 244 516 261 517 Q 278 516 284 500 L 302 444 L 317 397 L 360 420 L 418 450 Q 433 457 446 446 Q 457 433 450 418 L 420 360 L 397 317 L 444 302 L 500 284 Q 516 278 517 261 Q 516 244 500 238 L 440 218 L 394 204 L 410 159 L 419 133 Q 424 119 414 108 Q 403 98 389 102 L 363 112 L 318 128 L 304 82 L 284 22 Q 278 6 261 5 Q 244 6 238 22 L 221 74 L 206 121 L 165 93 L 165 93 Z"/>
</svg>
