<svg xmlns="http://www.w3.org/2000/svg" viewBox="0 0 512 512">
  <path d="M 223 464.5 L 226 466.5 L 223 464.5 L 226 466.5 Q 239 478.5 256 478.5 Q 273 478.5 286 466.5 L 289 464.5 L 289 464.5 L 464 301.5 L 464 301.5 Q 511 256.5 512 191.5 L 512 188.5 L 512 188.5 Q 511 134.5 478 94.5 Q 446 55.5 393 44.5 Q 331 33.5 281 68.5 L 281 68.5 L 281 68.5 Q 275 72.5 270 77.5 Q 262 83.5 256 90.5 Q 245 77.5 231 68.5 Q 181 33.5 119 43.5 Q 66 54.5 34 94.5 Q 1 134.5 0 188.5 L 0 191.5 L 0 191.5 Q 1 256.5 48 301.5 L 223 464.5 L 223 464.5 Z M 230 133.5 L 162 200.5 L 230 133.5 L 162 200.5 Q 160 203.5 160 206.5 Q 160 210.5 163 212.5 L 275 316.5 L 275 316.5 Q 280 320.5 285 316.5 Q 290 312.5 287 306.5 L 227 209.5 L 227 209.5 L 316 157.5 L 316 157.5 Q 322 153.5 319 147.5 L 303 111.5 L 303 111.5 Q 338 83.5 384 91.5 Q 419 98.5 441 125.5 Q 463 151.5 464 188.5 L 464 191.5 L 464 191.5 Q 463 235.5 431 266.5 L 256 429.5 L 256 429.5 L 81 266.5 L 81 266.5 Q 49 235.5 48 191.5 L 48 188.5 L 48 188.5 Q 49 151.5 71 125.5 Q 93 98.5 128 91.5 Q 154 86.5 178 94.5 Q 202 102.5 220 122.5 L 220 122.5 L 220 122.5 L 220 122.5 L 220 122.5 L 230 133.5 L 230 133.5 Z" />
</svg>