<svg xmlns="http://www.w3.org/2000/svg" viewBox="0 0 512 512">
  <path d="M 438.85715 54.857143 Q 456 56 457.14285 73.14286 L 457.14285 438.85715 L 457.14285 438.85715 Q 456 456 438.85715 457.14285 L 437.7143 457.14285 L 437.7143 457.14285 Q 429.7143 402.2857 389.7143 365.7143 Q 349.7143 330.2857 292.57144 329.14285 L 219.42857 329.14285 L 219.42857 329.14285 Q 162.28572 330.2857 122.28571 365.7143 Q 82.28571 402.2857 74.28571 457.14285 L 73.14286 457.14285 L 73.14286 457.14285 Q 56 456 54.857143 438.85715 L 54.857143 73.14286 L 54.857143 73.14286 Q 56 56 73.14286 54.857143 L 438.85715 54.857143 L 438.85715 54.857143 Z M 381.7143 457.14285 L 130.28572 457.14285 L 381.7143 457.14285 L 130.28572 457.14285 Q 137.14285 425.14285 161.14285 404.57144 Q 185.14285 385.14285 219.42857 384 L 292.57144 384 L 292.57144 384 Q 326.85715 385.14285 350.85715 404.57144 Q 374.85715 425.14285 381.7143 457.14285 L 381.7143 457.14285 Z M 73.14286 0 Q 42.285713 1.1428572 21.714285 21.714285 L 21.714285 21.714285 L 21.714285 21.714285 Q 1.1428572 42.285713 0 73.14286 L 0 438.85715 L 0 438.85715 Q 1.1428572 469.7143 21.714285 490.2857 Q 42.285713 510.85715 73.14286 512 L 438.85715 512 L 438.85715 512 Q 469.7143 510.85715 490.2857 490.2857 Q 510.85715 469.7143 512 438.85715 L 512 73.14286 L 512 73.14286 Q 510.85715 42.285713 490.2857 21.714285 Q 469.7143 1.1428572 438.85715 0 L 73.14286 0 L 73.14286 0 Z M 256 237.71428 Q 229.71428 236.57143 216 214.85715 Q 204.57143 192 216 169.14285 Q 229.71428 147.42857 256 146.28572 Q 282.2857 147.42857 296 169.14285 Q 307.42856 192 296 214.85715 Q 282.2857 236.57143 256 237.71428 L 256 237.71428 Z M 155.42857 192 Q 157.71428 249.14285 205.71428 278.85715 Q 256 306.2857 306.2857 278.85715 Q 354.2857 249.14285 356.57144 192 Q 354.2857 134.85715 306.2857 105.14286 Q 256 77.71429 205.71428 105.14286 Q 157.71428 134.85715 155.42857 192 L 155.42857 192 Z" />
</svg>