<svg xmlns="http://www.w3.org/2000/svg" viewBox="0 0 512 512">
  <path d="M 256 48 Q 313 48 360 76 L 360 76 L 360 76 Q 407 103 436 152 Q 464 201 464 256 Q 464 311 436 360 Q 407 409 360 436 Q 313 464 256 464 Q 199 464 152 436 Q 105 409 76 360 Q 48 311 48 256 Q 48 201 76 152 Q 105 103 152 76 Q 199 48 256 48 L 256 48 Z M 256 512 Q 326 511 384 478 L 384 478 L 384 478 Q 442 444 478 384 Q 512 323 512 256 Q 512 189 478 128 Q 442 68 384 34 Q 326 1 256 0 Q 186 1 128 34 Q 70 68 34 128 Q 0 189 0 256 Q 0 323 34 384 Q 70 444 128 478 Q 186 511 256 512 L 256 512 Z M 256 112 Q 242 113 235 125 L 131 333 L 131 333 Q 123 354 141 366 Q 162 373 173 355 L 191 320 L 191 320 L 321 320 L 321 320 L 339 355 L 339 355 Q 350 373 371 365 Q 390 354 382 333 L 278 125 L 278 125 Q 271 112 256 112 L 256 112 Z M 256 190 L 297 272 L 256 190 L 297 272 L 215 272 L 215 272 L 256 190 L 256 190 Z" />
</svg>