<svg xmlns="http://www.w3.org/2000/svg" viewBox="0 0 512 512">
  <path d="M 187.41433021806853 78.15576323987538 L 168.27414330218068 82.14330218068535 L 187.41433021806853 78.15576323987538 L 168.27414330218068 82.14330218068535 L 168.27414330218068 82.14330218068535 L 168.27414330218068 82.14330218068535 L 187.41433021806853 78.15576323987538 L 187.41433021806853 78.15576323987538 Z M 324.5856697819315 78.15576323987538 L 306.2429906542056 74.16822429906541 L 324.5856697819315 78.15576323987538 L 306.2429906542056 74.16822429906541 L 306.2429906542056 74.16822429906541 L 306.2429906542056 74.16822429906541 L 324.5856697819315 78.15576323987538 L 324.5856697819315 78.15576323987538 Z M 382.00623052959503 88.5233644859813 L 394.76635514018693 74.16822429906541 L 382.00623052959503 88.5233644859813 L 394.76635514018693 74.16822429906541 L 394.76635514018693 74.16822429906541 L 394.76635514018693 74.16822429906541 L 382.00623052959503 88.5233644859813 L 382.00623052959503 88.5233644859813 Z M 483.2897196261682 172.26168224299064 L 495.25233644859816 157.90654205607476 L 483.2897196261682 172.26168224299064 L 495.25233644859816 157.90654205607476 L 495.25233644859816 157.90654205607476 L 495.25233644859816 157.90654205607476 L 482.49221183800626 172.26168224299064 L 483.2897196261682 172.26168224299064 Z M 485.68224299065423 208.94704049844236 L 471.32710280373834 196.18691588785046 L 485.68224299065423 208.94704049844236 L 471.32710280373834 196.18691588785046 L 471.32710280373834 196.18691588785046 L 471.32710280373834 196.18691588785046 L 485.68224299065423 208.94704049844236 L 485.68224299065423 208.94704049844236 Z M 441.0218068535826 259.98753894080994 L 455.37694704049846 272.74766355140184 L 441.0218068535826 259.98753894080994 L 455.37694704049846 272.74766355140184 L 441.0218068535826 259.98753894080994 L 441.0218068535826 259.98753894080994 Z M 405.1339563862928 263.1775700934579 L 393.17133956386294 277.5327102803738 L 405.1339563862928 263.1775700934579 L 393.17133956386294 277.5327102803738 L 393.17133956386294 277.5327102803738 L 393.17133956386294 277.5327102803738 L 405.93146417445485 263.1775700934579 L 405.1339563862928 263.1775700934579 Z M 364.46105919003116 228.8847352024922 L 376.42367601246104 213.73208722741433 L 364.46105919003116 228.8847352024922 L 376.42367601246104 213.73208722741433 Q 367.65109034267914 206.55451713395638 356.4859813084112 211.33956386292834 Q 346.1183800623053 216.9221183800623 345.3208722741433 228.8847352024922 L 364.46105919003116 228.8847352024922 L 364.46105919003116 228.8847352024922 Z M 147.53894080996884 228.8847352024922 L 166.6791277258567 228.8847352024922 L 147.53894080996884 228.8847352024922 L 166.6791277258567 228.8847352024922 Q 165.8816199376947 216.9221183800623 155.51401869158877 211.33956386292834 Q 144.34890965732086 206.55451713395638 135.57632398753893 213.73208722741433 L 147.53894080996884 228.8847352024922 L 147.53894080996884 228.8847352024922 Z M 106.86604361370716 263.1775700934579 L 118.82866043613707 277.5327102803738 L 106.86604361370716 263.1775700934579 L 118.82866043613707 277.5327102803738 L 118.82866043613707 277.5327102803738 L 118.82866043613707 277.5327102803738 L 106.86604361370716 263.1775700934579 L 106.86604361370716 263.1775700934579 Z M 70.97819314641744 259.98753894080994 L 56.62305295950156 272.74766355140184 L 70.97819314641744 259.98753894080994 L 56.62305295950156 272.74766355140184 L 70.97819314641744 259.98753894080994 L 70.97819314641744 259.98753894080994 Z M 26.317757009345794 208.94704049844236 L 40.67289719626168 196.18691588785046 L 26.317757009345794 208.94704049844236 L 40.67289719626168 196.18691588785046 L 40.67289719626168 196.18691588785046 L 40.67289719626168 196.18691588785046 L 26.317757009345794 208.94704049844236 L 26.317757009345794 208.94704049844236 Z M 19.937694704049843 190.6043613707165 L 0.7975077881619937 189.00934579439252 L 19.937694704049843 190.6043613707165 L 0.7975077881619937 189.00934579439252 L 19.937694704049843 190.6043613707165 L 19.937694704049843 190.6043613707165 Z M 29.50778816199377 172.26168224299064 L 16.747663551401867 157.90654205607476 L 29.50778816199377 172.26168224299064 L 16.747663551401867 157.90654205607476 L 16.747663551401867 157.90654205607476 L 16.747663551401867 157.90654205607476 L 29.50778816199377 172.26168224299064 L 29.50778816199377 172.26168224299064 Z M 129.99376947040497 88.5233644859813 L 141.95638629283488 103.67601246105919 L 129.99376947040497 88.5233644859813 L 141.95638629283488 103.67601246105919 L 129.99376947040497 88.5233644859813 L 129.99376947040497 88.5233644859813 Z M 205.7570093457944 74.96573208722741 Q 204.1619937694704 65.39563862928348 196.98442367601245 59.01557632398754 L 196.98442367601245 59.01557632398754 L 196.98442367601245 59.01557632398754 Q 189.8068535825545 51.838006230529594 178.6417445482866 51.838006230529594 L 178.6417445482866 90.11838006230529 L 178.6417445482866 90.11838006230529 Q 169.07165109034267 88.5233644859813 168.27414330218068 82.14330218068535 L 205.7570093457944 74.16822429906541 L 205.7570093457944 74.96573208722741 Z M 256 115.6386292834891 Q 236.85981308411215 115.6386292834891 223.30218068535825 103.67601246105919 L 223.30218068535825 103.67601246105919 L 223.30218068535825 103.67601246105919 Q 209.74454828660436 92.51090342679127 205.7570093457944 74.96573208722741 L 168.27414330218068 82.14330218068535 L 168.27414330218068 82.14330218068535 Q 174.65420560747663 113.24610591900311 198.57943925233644 133.18380062305295 Q 222.50467289719626 153.1214953271028 256 153.9190031152648 L 256 115.6386292834891 L 256 115.6386292834891 Z M 306.2429906542056 74.96573208722741 Q 302.25545171339564 92.51090342679127 288.6978193146417 103.67601246105919 L 288.6978193146417 103.67601246105919 L 288.6978193146417 103.67601246105919 Q 275.14018691588785 115.6386292834891 256 115.6386292834891 L 256 153.9190031152648 L 256 153.9190031152648 Q 289.49532710280374 153.1214953271028 313.42056074766356 133.18380062305295 Q 337.3457943925234 113.24610591900311 343.7258566978193 82.14330218068535 L 306.2429906542056 74.16822429906541 L 306.2429906542056 74.96573208722741 Z M 333.3582554517134 51.838006230529594 Q 322.19314641744546 51.838006230529594 315.01557632398755 59.01557632398754 L 315.01557632398755 59.01557632398754 L 315.01557632398755 59.01557632398754 Q 307.8380062305296 65.39563862928348 306.2429906542056 74.96573208722741 L 343.7258566978193 82.14330218068535 L 343.7258566978193 82.14330218068535 Q 342.9283489096573 88.5233644859813 333.3582554517134 90.11838006230529 L 333.3582554517134 51.838006230529594 L 333.3582554517134 51.838006230529594 Z M 394.76635514018693 74.16822429906541 Q 367.65109034267914 51.838006230529594 333.3582554517134 51.838006230529594 L 333.3582554517134 90.11838006230529 L 333.3582554517134 90.11838006230529 Q 354.0934579439252 90.11838006230529 370.0436137071651 103.67601246105919 L 394.76635514018693 74.16822429906541 L 394.76635514018693 74.16822429906541 Z M 495.25233644859816 157.90654205607476 L 394.76635514018693 74.16822429906541 L 495.25233644859816 157.90654205607476 L 394.76635514018693 74.16822429906541 L 370.0436137071651 103.67601246105919 L 370.0436137071651 103.67601246105919 L 470.5295950155763 187.41433021806853 L 470.5295950155763 187.41433021806853 L 495.25233644859816 157.90654205607476 L 495.25233644859816 157.90654205607476 Z M 511.20249221183803 189.00934579439252 Q 509.60747663551405 169.86915887850466 495.25233644859816 157.90654205607476 L 470.5295950155763 187.41433021806853 L 470.5295950155763 187.41433021806853 Q 472.92211838006233 189.00934579439252 472.92211838006233 191.4018691588785 L 511.20249221183803 189.00934579439252 L 511.20249221183803 189.00934579439252 Z M 500.0373831775701 221.70716510903426 Q 512 207.35202492211837 511.20249221183803 189.00934579439252 L 472.92211838006233 191.4018691588785 L 472.92211838006233 191.4018691588785 Q 472.92211838006233 194.59190031152647 471.32710280373834 196.18691588785046 L 500.0373831775701 221.70716510903426 L 500.0373831775701 221.70716510903426 Z M 455.37694704049846 272.74766355140184 L 500.0373831775701 221.70716510903426 L 455.37694704049846 272.74766355140184 L 500.0373831775701 221.70716510903426 L 471.32710280373834 196.18691588785046 L 471.32710280373834 196.18691588785046 L 426.6666666666667 247.22741433021807 L 426.6666666666667 247.22741433021807 L 455.37694704049846 272.74766355140184 L 455.37694704049846 272.74766355140184 Z M 393.17133956386294 277.5327102803738 Q 407.52647975077883 289.49532710280374 425.0716510903427 287.90031152647975 L 425.0716510903427 287.90031152647975 L 425.0716510903427 287.90031152647975 Q 442.61682242990656 286.30529595015577 455.37694704049846 272.74766355140184 L 426.6666666666667 247.22741433021807 L 426.6666666666667 247.22741433021807 Q 422.6791277258567 251.21495327102804 417.8940809968847 248.02492211838006 L 393.17133956386294 277.5327102803738 L 393.17133956386294 277.5327102803738 Z M 352.4984423676012 243.2398753894081 L 393.17133956386294 277.5327102803738 L 352.4984423676012 243.2398753894081 L 393.17133956386294 277.5327102803738 L 417.8940809968847 248.02492211838006 L 417.8940809968847 248.02492211838006 L 376.42367601246104 213.73208722741433 L 376.42367601246104 213.73208722741433 L 352.4984423676012 243.2398753894081 L 352.4984423676012 243.2398753894081 Z M 345.3208722741433 228.8847352024922 L 345.3208722741433 409.1214953271028 L 345.3208722741433 228.8847352024922 L 345.3208722741433 409.1214953271028 L 383.601246105919 409.1214953271028 L 383.601246105919 409.1214953271028 L 383.601246105919 228.8847352024922 L 383.601246105919 228.8847352024922 L 345.3208722741433 228.8847352024922 L 345.3208722741433 228.8847352024922 Z M 345.3208722741433 409.1214953271028 Q 344.5233644859813 421.0841121495327 332.5607476635514 421.8816199376947 L 332.5607476635514 460.1619937694704 L 332.5607476635514 460.1619937694704 Q 354.0934579439252 459.3644859813084 368.4485981308411 445.0093457943925 Q 382.803738317757 430.6542056074766 383.601246105919 409.1214953271028 L 345.3208722741433 409.1214953271028 L 345.3208722741433 409.1214953271028 Z M 332.5607476635514 421.8816199376947 L 179.4392523364486 421.8816199376947 L 332.5607476635514 421.8816199376947 L 179.4392523364486 421.8816199376947 L 179.4392523364486 460.1619937694704 L 179.4392523364486 460.1619937694704 L 332.5607476635514 460.1619937694704 L 332.5607476635514 460.1619937694704 L 332.5607476635514 421.8816199376947 L 332.5607476635514 421.8816199376947 Z M 179.4392523364486 421.8816199376947 Q 167.47663551401868 421.0841121495327 166.6791277258567 409.1214953271028 L 128.39875389408098 409.1214953271028 L 128.39875389408098 409.1214953271028 Q 129.19626168224298 430.6542056074766 143.55140186915887 445.0093457943925 Q 157.90654205607476 459.3644859813084 179.4392523364486 460.1619937694704 L 179.4392523364486 421.8816199376947 L 179.4392523364486 421.8816199376947 Z M 166.6791277258567 409.1214953271028 L 166.6791277258567 228.8847352024922 L 166.6791277258567 409.1214953271028 L 166.6791277258567 228.8847352024922 L 128.39875389408098 228.8847352024922 L 128.39875389408098 228.8847352024922 L 128.39875389408098 409.1214953271028 L 128.39875389408098 409.1214953271028 L 166.6791277258567 409.1214953271028 L 166.6791277258567 409.1214953271028 Z M 118.82866043613707 277.5327102803738 L 159.50155763239874 243.2398753894081 L 118.82866043613707 277.5327102803738 L 159.50155763239874 243.2398753894081 L 135.57632398753893 213.73208722741433 L 135.57632398753893 213.73208722741433 L 94.10591900311526 248.02492211838006 L 94.10591900311526 248.02492211838006 L 118.82866043613707 277.5327102803738 L 118.82866043613707 277.5327102803738 Z M 56.62305295950156 272.74766355140184 Q 69.38317757009345 286.30529595015577 86.92834890965732 287.90031152647975 L 86.92834890965732 287.90031152647975 L 86.92834890965732 287.90031152647975 Q 104.47352024922118 289.49532710280374 118.82866043613707 277.5327102803738 L 94.10591900311526 248.02492211838006 L 94.10591900311526 248.02492211838006 Q 89.3208722741433 251.21495327102804 85.33333333333333 247.22741433021807 L 56.62305295950156 272.74766355140184 L 56.62305295950156 272.74766355140184 Z M 11.962616822429906 221.70716510903426 L 56.62305295950156 272.74766355140184 L 11.962616822429906 221.70716510903426 L 56.62305295950156 272.74766355140184 L 85.33333333333333 247.22741433021807 L 85.33333333333333 247.22741433021807 L 40.67289719626168 196.18691588785046 L 40.67289719626168 196.18691588785046 L 11.962616822429906 221.70716510903426 L 11.962616822429906 221.70716510903426 Z M 0.7975077881619937 189.00934579439252 Q 0 207.35202492211837 11.962616822429906 221.70716510903426 L 40.67289719626168 196.18691588785046 L 40.67289719626168 196.18691588785046 Q 39.07788161993769 194.59190031152647 39.07788161993769 191.4018691588785 L 0.7975077881619937 189.00934579439252 L 0.7975077881619937 189.00934579439252 Z M 16.747663551401867 157.90654205607476 Q 2.392523364485981 169.86915887850466 0.7975077881619937 189.00934579439252 L 39.07788161993769 191.4018691588785 L 39.07788161993769 191.4018691588785 Q 39.07788161993769 189.00934579439252 41.47040498442367 187.41433021806853 L 16.747663551401867 157.90654205607476 L 16.747663551401867 157.90654205607476 Z M 117.23364485981308 74.16822429906541 L 16.747663551401867 157.90654205607476 L 117.23364485981308 74.16822429906541 L 16.747663551401867 157.90654205607476 L 41.47040498442367 187.41433021806853 L 41.47040498442367 187.41433021806853 L 141.95638629283488 103.67601246105919 L 141.95638629283488 103.67601246105919 L 117.23364485981308 74.16822429906541 L 117.23364485981308 74.16822429906541 Z M 178.6417445482866 51.838006230529594 Q 144.34890965732086 51.838006230529594 117.23364485981308 74.16822429906541 L 141.95638629283488 103.67601246105919 L 141.95638629283488 103.67601246105919 Q 157.90654205607476 90.11838006230529 178.6417445482866 90.11838006230529 L 178.6417445482866 51.838006230529594 L 178.6417445482866 51.838006230529594 Z" />
</svg>