<svg xmlns="http://www.w3.org/2000/svg" viewBox="0 0 512 512">
  <path d="M 179.2 89.6 Q 119.2 91.2 80 131.2 L 80 131.2 L 80 131.2 Q 40 170.4 38.4 230.4 Q 39.2 281.6 70.4 319.2 Q 88 340 89.6 370.4 L 89.6 441.6 L 89.6 441.6 Q 88 459.2 70.4 460.8 Q 52.8 459.2 51.2 441.6 L 51.2 370.4 L 51.2 370.4 Q 51.2 356.8 40 344 Q 1.6 296 0 230.4 Q 0.8 180 24.8 140 Q 48 99.2 88.8 76 Q 128.8 52 179.2 51.2 L 198.4 51.2 L 198.4 51.2 Q 246.4 52 285.6 76.8 Q 324.8 102.4 344.8 144 Q 349.6 155.2 354.4 166.4 L 356 168.8 L 356 168.8 Q 360.8 180.8 366.4 192 Q 376.8 214.4 391.2 229.6 L 395.2 233.6 L 395.2 233.6 Q 409.6 248 409.6 269.6 Q 408.8 291.2 394.4 304.8 Q 380.8 319.2 358.4 320 L 358.4 320 L 358.4 320 L 358.4 320 L 358.4 320 L 358.4 339.2 L 358.4 339.2 L 358.4 390.4 L 358.4 390.4 L 358.4 396.8 L 358.4 396.8 Q 357.6 418.4 343.2 432.8 Q 328.8 447.2 307.2 448 L 255.2 448 L 255.2 448 Q 250.4 460 236.8 460.8 Q 219.2 459.2 217.6 441.6 L 217.6 428.8 L 217.6 428.8 Q 219.2 411.2 236.8 409.6 L 307.2 409.6 L 307.2 409.6 Q 319.2 408.8 320 396.8 L 320 390.4 L 320 390.4 L 320 383.2 L 320 383.2 L 273.6 379.2 L 273.6 379.2 Q 257.6 376 256 360 Q 256.8 346.4 270.4 342.4 L 320 329.6 L 320 329.6 L 320 320 L 320 320 L 320 313.6 L 320 313.6 L 320 300.8 L 320 300.8 Q 321.6 283.2 339.2 281.6 L 358.4 281.6 L 358.4 281.6 Q 370.4 280.8 371.2 268.8 Q 371.2 264 367.2 260 L 364 256.8 L 364 256.8 Q 343.2 234.4 331.2 208.8 Q 325.6 196 320.8 184 L 319.2 180.8 L 319.2 180.8 Q 314.4 170.4 310.4 160 Q 295.2 128.8 264.8 109.6 Q 235.2 90.4 198.4 89.6 L 179.2 89.6 L 179.2 89.6 Z M 243.2 204.8 Q 243.2 193.6 250.4 186.4 L 250.4 186.4 L 250.4 186.4 Q 257.6 179.2 268.8 179.2 Q 280 179.2 287.2 186.4 Q 294.4 193.6 294.4 204.8 Q 294.4 216 287.2 223.2 Q 280 230.4 268.8 230.4 Q 257.6 230.4 250.4 223.2 Q 243.2 216 243.2 204.8 L 243.2 204.8 Z M 390.4 339.2 Q 408 340.8 409.6 358.4 Q 408 376 390.4 377.6 Q 372.8 376 371.2 358.4 Q 372.8 340.8 390.4 339.2 L 390.4 339.2 Z M 473.6 358.4 Q 475.2 340.8 492.8 339.2 Q 510.4 340.8 512 358.4 Q 510.4 376 492.8 377.6 Q 475.2 376 473.6 358.4 L 473.6 358.4 Z M 492.8 416 Q 510.4 417.6 512 435.2 Q 510.4 452.8 492.8 454.4 Q 475.2 452.8 473.6 435.2 Q 475.2 417.6 492.8 416 L 492.8 416 Z M 422.4 320 Q 424 302.4 441.6 300.8 Q 459.2 302.4 460.8 320 Q 459.2 337.6 441.6 339.2 Q 424 337.6 422.4 320 L 422.4 320 Z M 492.8 262.4 Q 510.4 264 512 281.6 Q 510.4 299.2 492.8 300.8 Q 475.2 299.2 473.6 281.6 Q 475.2 264 492.8 262.4 L 492.8 262.4 Z M 422.4 396.8 Q 424 379.2 441.6 377.6 Q 459.2 379.2 460.8 396.8 Q 459.2 414.4 441.6 416 Q 424 414.4 422.4 396.8 L 422.4 396.8 Z" />
</svg>