<svg xmlns="http://www.w3.org/2000/svg" viewBox="0 0 512 512">
  <path d="M 369.77777777777777 71.11111111111111 Q 383.1111111111111 72 384 85.33333333333333 L 384 440.8888888888889 L 384 440.8888888888889 L 128 440.8888888888889 L 128 440.8888888888889 L 128 85.33333333333333 L 128 85.33333333333333 Q 128.88888888888889 72 142.22222222222223 71.11111111111111 L 369.77777777777777 71.11111111111111 L 369.77777777777777 71.11111111111111 Z M 426.6666666666667 440.8888888888889 L 426.6666666666667 85.33333333333333 L 426.6666666666667 440.8888888888889 L 426.6666666666667 85.33333333333333 Q 425.77777777777777 61.333333333333336 409.77777777777777 45.333333333333336 Q 393.77777777777777 29.333333333333332 369.77777777777777 28.444444444444443 L 142.22222222222223 28.444444444444443 L 142.22222222222223 28.444444444444443 Q 118.22222222222223 29.333333333333332 102.22222222222223 45.333333333333336 Q 86.22222222222223 61.333333333333336 85.33333333333333 85.33333333333333 L 85.33333333333333 440.8888888888889 L 85.33333333333333 440.8888888888889 L 21.333333333333332 440.8888888888889 L 21.333333333333332 440.8888888888889 Q 1.7777777777777777 442.6666666666667 0 462.22222222222223 Q 1.7777777777777777 481.77777777777777 21.333333333333332 483.55555555555554 L 85.33333333333333 483.55555555555554 L 490.6666666666667 483.55555555555554 Q 510.22222222222223 481.77777777777777 512 462.22222222222223 Q 510.22222222222223 442.6666666666667 490.6666666666667 440.8888888888889 L 426.6666666666667 440.8888888888889 L 426.6666666666667 440.8888888888889 Z M 327.1111111111111 227.55555555555554 Q 314.6666666666667 227.55555555555554 306.6666666666667 235.55555555555554 L 306.6666666666667 235.55555555555554 L 306.6666666666667 235.55555555555554 Q 298.6666666666667 243.55555555555554 298.6666666666667 256 Q 298.6666666666667 268.44444444444446 306.6666666666667 276.44444444444446 Q 314.6666666666667 284.44444444444446 327.1111111111111 284.44444444444446 Q 339.55555555555554 284.44444444444446 347.55555555555554 276.44444444444446 Q 355.55555555555554 268.44444444444446 355.55555555555554 256 Q 355.55555555555554 243.55555555555554 347.55555555555554 235.55555555555554 Q 339.55555555555554 227.55555555555554 327.1111111111111 227.55555555555554 L 327.1111111111111 227.55555555555554 Z" />
</svg>