<svg xmlns="http://www.w3.org/2000/svg" viewBox="0 0 512 512">
  <path d="M 74.06602 126.26019 L 256 48.71456 L 74.06602 126.26019 L 256 48.71456 L 437.934 126.26019 L 437.934 126.26019 Q 446.88156 131.23106 446.88156 139.18446 Q 446.88156 185.91068 430.97476 246.55534 Q 415.06796 306.2058 375.30096 363.86795 Q 334.5398 420.53592 261.96506 457.32037 Q 256 459.30875 250.03496 457.32037 Q 177.46019 420.53592 136.69904 363.86795 Q 96.93204 306.2058 81.025246 246.55534 Q 65.11845 185.91068 65.11845 139.18446 Q 65.11845 131.23106 74.06602 126.26019 L 74.06602 126.26019 Z M 456.8233 82.5165 L 268.9243 2.9825242 L 456.8233 82.5165 L 268.9243 2.9825242 Q 262.95923 0 256 0 Q 249.04077 0 243.07573 2.9825242 L 55.1767 82.5165 L 55.1767 82.5165 Q 38.275726 89.47573 28.33398 104.38835 Q 17.398058 119.30097 17.398058 139.18446 Q 16.403883 189.88737 34.29903 258.48544 Q 52.194176 327.0835 98.92039 391.70486 Q 144.65242 457.32037 230.15146 500.06992 Q 256 512 281.84854 500.06992 Q 367.34756 457.32037 413.07962 391.70486 Q 459.80582 327.0835 477.70096 258.48544 Q 495.59613 189.88737 494.60193 139.18446 Q 494.60193 119.30097 483.66602 104.38835 Q 473.72427 89.47573 456.8233 82.5165 L 456.8233 82.5165 Z M 160.55922 153.1029 L 160.55922 270.41553 L 160.55922 153.1029 L 160.55922 270.41553 Q 161.55339 311.1767 188.39612 338.0194 Q 215.23883 364.86212 256 365.85632 Q 296.76117 364.86212 323.60388 338.0194 Q 350.4466 311.1767 351.44077 270.41553 L 351.44077 153.1029 L 351.44077 153.1029 Q 350.4466 144.15533 341.49902 143.16116 L 340.50485 143.16116 L 340.50485 143.16116 Q 335.53397 143.16116 332.55145 147.13786 L 292.78445 200.8233 L 292.78445 200.8233 Q 287.8136 206.78835 279.8602 206.78835 L 232.1398 206.78835 L 232.1398 206.78835 Q 224.1864 206.78835 219.21553 200.8233 L 179.44855 147.13786 L 179.44855 147.13786 Q 176.46602 143.16116 171.49515 143.16116 L 171.49515 143.16116 L 171.49515 143.16116 Q 161.55339 144.15533 160.55922 153.1029 L 160.55922 153.1029 Z M 216.23302 254.50874 Q 231.14563 255.50291 232.1398 270.41553 Q 231.14563 285.32816 216.23302 286.32233 Q 201.32039 285.32816 200.32622 270.41553 Q 201.32039 255.50291 216.23302 254.50874 L 216.23302 254.50874 Z M 279.8602 270.41553 Q 280.85437 255.50291 295.767 254.50874 Q 310.67963 255.50291 311.6738 270.41553 Q 310.67963 285.32816 295.767 286.32233 Q 280.85437 285.32816 279.8602 270.41553 L 279.8602 270.41553 Z" />
</svg>