<svg xmlns="http://www.w3.org/2000/svg" viewBox="0 0 512 512">
  <path d="M 256 0 Q 186 1 128 34 L 128 34 L 128 34 Q 70 68 34 128 Q 0 189 0 256 Q 0 323 34 384 Q 70 444 128 478 Q 186 511 256 512 Q 326 511 384 478 Q 442 444 478 384 Q 512 323 512 256 Q 512 189 478 128 Q 442 68 384 34 Q 326 1 256 0 L 256 0 Z M 232 392 L 232 335 L 232 392 L 232 335 L 212 365 L 212 365 L 199 385 L 199 385 L 159 359 L 159 359 L 172 339 L 172 339 L 236 243 L 236 243 L 280 256 L 280 256 L 280 392 L 280 392 L 280 416 L 280 416 L 232 416 L 232 416 L 232 392 L 232 392 Z" />
</svg>