<svg xmlns="http://www.w3.org/2000/svg" viewBox="0 0 512 512">
  <path d="M 19.2 179.2 L 0 179.2 L 19.2 179.2 L 0 179.2 L 0 217.6 L 0 217.6 L 19.2 217.6 L 51.2 217.6 L 51.2 294.4 L 51.2 294.4 L 19.2 294.4 L 0 294.4 L 0 332.8 L 0 332.8 L 19.2 332.8 L 512 332.8 L 512 294.4 L 512 294.4 L 492.8 294.4 L 460.8 294.4 L 460.8 217.6 L 460.8 217.6 L 492.8 217.6 L 512 217.6 L 512 179.2 L 512 179.2 L 492.8 179.2 L 19.2 179.2 Z M 89.6 217.6 L 236.8 217.6 L 89.6 217.6 L 236.8 217.6 L 236.8 294.4 L 236.8 294.4 L 89.6 294.4 L 89.6 294.4 L 89.6 217.6 L 89.6 217.6 Z M 275.2 217.6 L 422.4 217.6 L 275.2 217.6 L 422.4 217.6 L 422.4 294.4 L 422.4 294.4 L 275.2 294.4 L 275.2 294.4 L 275.2 217.6 L 275.2 217.6 Z" />
</svg>