<svg viewBox="0 0 640 512">
  <path
    d="M 243 0 L 256 0 L 384 0 L 397 0 L 404 11 L 450 80 L 464 80 L 512 80 L 544 80 L 544 128 L 512 128 L 512 375 L 621 459 L 640 474 L 611 512 L 592 497 L 19 53 L 0 38 L 29 0 L 48 15 L 132 80 L 176 80 L 190 80 L 236 11 L 243 0 L 243 0 Z M 194 128 L 304 213 L 304 192 L 304 176 L 336 176 L 336 192 L 336 238 L 384 275 L 384 192 L 384 176 L 416 176 L 416 192 L 416 300 L 464 338 L 464 128 L 194 128 L 194 128 Z M 128 197 L 176 235 L 176 464 L 464 464 L 464 462 L 512 499 L 512 512 L 464 512 L 176 512 L 128 512 L 128 464 L 128 197 L 128 197 Z M 224 273 L 256 298 L 256 400 L 256 416 L 224 416 L 224 400 L 224 273 L 224 273 Z M 304 336 L 336 361 L 336 400 L 336 416 L 304 416 L 304 400 L 304 336 L 304 336 Z M 248 80 L 393 80 L 371 48 L 269 48 L 248 80 L 248 80 Z"
  />
</svg>