<svg xmlns="http://www.w3.org/2000/svg" viewBox="0 0 512 512">
  <path d="M 457.14285714285717 54.857142857142854 L 457.14285714285717 457.14285714285717 L 457.14285714285717 54.857142857142854 L 457.14285714285717 457.14285714285717 L 426.2857142857143 457.14285714285717 L 426.2857142857143 457.14285714285717 L 384 329.14285714285717 L 384 329.14285714285717 L 128 329.14285714285717 L 128 329.14285714285717 L 85.71428571428571 457.14285714285717 L 85.71428571428571 457.14285714285717 L 54.857142857142854 457.14285714285717 L 54.857142857142854 457.14285714285717 L 54.857142857142854 54.857142857142854 L 54.857142857142854 54.857142857142854 L 457.14285714285717 54.857142857142854 L 457.14285714285717 54.857142857142854 Z M 369.14285714285717 457.14285714285717 L 142.85714285714286 457.14285714285717 L 369.14285714285717 457.14285714285717 L 142.85714285714286 457.14285714285717 L 168 384 L 168 384 L 344 384 L 344 384 L 369.14285714285717 457.14285714285717 L 369.14285714285717 457.14285714285717 Z M 54.857142857142854 0 L 0 0 L 54.857142857142854 0 L 0 0 L 0 54.857142857142854 L 0 54.857142857142854 L 0 457.14285714285717 L 0 457.14285714285717 L 0 512 L 0 512 L 54.857142857142854 512 L 512 512 L 512 457.14285714285717 L 512 457.14285714285717 L 512 54.857142857142854 L 512 54.857142857142854 L 512 0 L 512 0 L 457.14285714285717 0 L 54.857142857142854 0 Z M 256 237.71428571428572 Q 229.71428571428572 236.57142857142858 216 214.85714285714286 Q 204.57142857142858 192 216 169.14285714285714 Q 229.71428571428572 147.42857142857142 256 146.28571428571428 Q 282.2857142857143 147.42857142857142 296 169.14285714285714 Q 307.42857142857144 192 296 214.85714285714286 Q 282.2857142857143 236.57142857142858 256 237.71428571428572 L 256 237.71428571428572 Z M 155.42857142857142 192 Q 157.71428571428572 249.14285714285714 205.71428571428572 278.85714285714283 Q 256 306.2857142857143 306.2857142857143 278.85714285714283 Q 354.2857142857143 249.14285714285714 356.57142857142856 192 Q 354.2857142857143 134.85714285714286 306.2857142857143 105.14285714285714 Q 256 77.71428571428571 205.71428571428572 105.14285714285714 Q 157.71428571428572 134.85714285714286 155.42857142857142 192 L 155.42857142857142 192 Z" />
</svg>