<svg xmlns="http://www.w3.org/2000/svg" viewBox="0 0 512 512">
  <path d="M 38.4 89.6 L 38.4 345.6 L 38.4 89.6 L 38.4 345.6 L 61.6 345.6 L 61.6 345.6 Q 72 328 88.8 317.6 Q 106.4 307.2 128 307.2 Q 149.6 307.2 167.2 317.6 Q 184 328 194.4 345.6 L 256 345.6 L 294.4 345.6 L 294.4 89.6 L 294.4 89.6 L 38.4 89.6 L 38.4 89.6 Z M 384 460.8 Q 351.2 460 329.6 438.4 L 329.6 438.4 L 329.6 438.4 Q 308 416.8 307.2 384 L 300.8 384 L 204.8 384 Q 204 416.8 182.4 438.4 Q 160.8 460 128 460.8 Q 95.2 460 73.6 438.4 Q 52 416.8 51.2 384 L 38.4 384 L 0 384 L 0 345.6 L 0 345.6 L 0 89.6 L 0 89.6 L 0 51.2 L 0 51.2 L 38.4 51.2 L 332.8 51.2 L 332.8 89.6 L 332.8 89.6 L 332.8 128 L 332.8 128 L 377.6 128 L 385.6 128 L 391.2 133.6 L 391.2 133.6 L 480.8 223.2 L 480.8 223.2 L 486.4 228.8 L 486.4 228.8 L 486.4 236.8 L 486.4 236.8 L 486.4 345.6 L 486.4 345.6 L 492.8 345.6 L 512 345.6 L 512 384 L 512 384 L 492.8 384 L 460.8 384 Q 460 416.8 438.4 438.4 Q 416.8 460 384 460.8 L 384 460.8 Z M 446.4 243.2 L 369.6 166.4 L 446.4 243.2 L 369.6 166.4 L 332.8 166.4 L 332.8 166.4 L 332.8 243.2 L 332.8 243.2 L 446.4 243.2 L 446.4 243.2 Z M 128 422.4 Q 149.6 421.6 161.6 403.2 Q 171.2 384 161.6 364.8 Q 149.6 346.4 128 345.6 Q 106.4 346.4 94.4 364.8 Q 84.8 384 94.4 403.2 Q 106.4 421.6 128 422.4 L 128 422.4 Z M 422.4 384 Q 421.6 362.4 403.2 350.4 Q 384 340.8 364.8 350.4 Q 346.4 362.4 345.6 384 Q 346.4 405.6 364.8 417.6 Q 384 427.2 403.2 417.6 Q 421.6 405.6 422.4 384 L 422.4 384 Z M 166.4 268.8 Q 141.6 268 125.6 253.6 L 125.6 253.6 L 125.6 253.6 Q 109.6 238.4 108.8 216 Q 109.6 200 124 176.8 Q 137.6 153.6 151.2 135.2 Q 165.6 116 166.4 115.2 Q 167.2 116 181.6 135.2 Q 195.2 153.6 208.8 176.8 Q 223.2 200 224 216 Q 223.2 238.4 207.2 253.6 Q 191.2 268 166.4 268.8 L 166.4 268.8 Z" />
</svg>