<svg xmlns="http://www.w3.org/2000/svg" viewBox="0 0 384 512">
    <path d="M 88 0 L 64 0 L 64 24 L 64 124 L 10 165 L 0 172 L 0 184 L 0 234 Q 0 273 16 308 Q 33 342 63 368 Q 78 380 96 389 L 96 488 L 96 512 L 144 512 L 144 488 L 144 374 L 144 357 L 129 352 Q 110 344 94 331 Q 49 292 48 234 L 48 196 L 80 172 L 80 208 L 80 224 L 112 224 L 112 208 L 112 148 L 112 136 L 112 128 L 112 112 L 112 48 L 144 48 L 144 56 L 144 80 L 168 80 L 208 80 L 208 88 L 208 112 L 232 112 L 272 112 L 272 120 L 272 144 L 296 144 L 336 144 L 336 264 Q 336 265 336 266 L 335 268 L 335 269 Q 327 320 284 346 L 272 353 L 272 367 L 272 488 L 272 512 L 320 512 L 320 488 L 320 380 Q 372 342 383 276 Q 384 270 384 264 L 384 120 L 384 96 L 360 96 L 320 96 L 320 88 L 320 64 L 296 64 L 256 64 L 256 56 L 256 32 L 232 32 L 192 32 L 192 24 L 192 0 L 168 0 L 88 0 L 88 0 Z"/>
</svg>
