<svg xmlns="http://www.w3.org/2000/svg" viewBox="0 0 512 512">
  <path d="M 351.38223 53.374516 Q 352.37067 26.687258 375.10425 11.861004 Q 398.82626 0 422.54825 11.861004 Q 445.28186 26.687258 446.27026 53.374516 Q 445.28186 80.061775 422.54825 94.88803 Q 398.82626 106.74903 375.10425 94.88803 Q 352.37067 80.061775 351.38223 53.374516 L 351.38223 53.374516 Z M 221.89961 57.328186 L 234.74904 63.258686 L 221.89961 57.328186 L 234.74904 63.258686 L 384.9884 134.42471 L 384.9884 134.42471 L 415.62933 149.25096 L 415.62933 149.25096 L 391.90735 172.97298 L 391.90735 172.97298 L 321.72974 243.15057 L 321.72974 243.15057 L 446.27026 243.15057 L 476.9112 243.15057 L 469.00388 272.8031 L 469.00388 272.8031 L 429.4672 430.9498 L 429.4672 430.9498 L 423.53668 453.6834 L 423.53668 453.6834 L 378.0695 441.8224 L 378.0695 441.8224 L 384 419.0888 L 384 419.0888 L 415.62933 290.5946 L 415.62933 290.5946 L 338.5328 290.5946 L 338.5328 290.5946 Q 351.38223 320.2471 351.38223 353.85327 Q 349.4054 421.06564 304.92664 465.5444 Q 260.44788 510.02316 193.23552 512 Q 126.02316 510.02316 81.5444 465.5444 Q 37.065636 421.06564 35.088802 353.85327 Q 37.065636 286.64093 81.5444 242.16216 Q 126.02316 197.6834 193.23552 195.70656 Q 194.22394 195.70656 195.21236 195.70656 Q 196.20078 195.70656 197.1892 195.70656 L 263.41312 129.48262 L 263.41312 129.48262 L 227.83011 112.679535 L 227.83011 112.679535 L 168.5251 159.13513 L 168.5251 159.13513 L 149.74518 173.9614 L 149.74518 173.9614 L 120.09267 136.40155 L 120.09267 136.40155 L 138.87259 121.57529 L 138.87259 121.57529 L 210.0386 66.22394 L 210.0386 66.22394 L 221.89961 57.328186 L 221.89961 57.328186 Z M 334.57916 163.0888 L 300.97296 147.27412 L 334.57916 163.0888 L 300.97296 147.27412 L 244.63321 204.60231 L 244.63321 204.60231 Q 262.4247 210.53282 277.25098 220.41699 L 334.57916 163.0888 L 334.57916 163.0888 Z M 193.23552 464.556 Q 222.88803 464.556 248.58687 449.72974 L 248.58687 449.72974 L 248.58687 449.72974 Q 274.2857 434.90347 289.11197 409.20462 Q 303.93823 383.5058 303.93823 353.85327 Q 303.93823 324.20078 289.11197 298.50192 Q 274.2857 272.8031 248.58687 257.97684 Q 222.88803 243.15057 193.23552 243.15057 Q 163.58301 243.15057 137.88417 257.97684 Q 112.185326 272.8031 97.35907 298.50192 Q 82.53282 324.20078 82.53282 353.85327 Q 82.53282 383.5058 97.35907 409.20462 Q 112.185326 434.90347 137.88417 449.72974 Q 163.58301 464.556 193.23552 464.556 L 193.23552 464.556 Z" />
</svg>