<svg viewBox="0 0 512 508">
  <path
    d="M 512 124 L 512 156 L 512 229 Q 512 268 495 303 Q 478 337 448 362 Q 447 300 418 248 Q 388 196 337 163 L 290 134 L 256 112 L 217 45 L 205 24 L 246 0 L 258 21 L 342 166 L 363 154 L 300 45 L 288 24 L 329 0 L 341 21 L 405 130 L 405 130 L 448 205 L 448 156 L 448 124 L 512 124 L 512 124 Z M 228 112 L 199 158 L 170 108 L 158 88 L 200 64 L 212 84 L 228 112 L 228 112 Z M 185 181 L 168 208 L 145 208 L 124 172 L 112 151 L 154 127 L 166 148 L 185 181 L 185 181 Z M 246 144 L 273 161 L 333 199 Q 372 223 394 263 Q 416 302 416 348 L 416 356 Q 414 421 371 463 Q 329 506 264 508 L 88 508 L 64 508 L 64 460 L 88 460 L 192 460 L 192 436 L 56 436 L 32 436 L 32 388 L 56 388 L 192 388 L 192 364 L 24 364 L 0 364 L 0 316 L 24 316 L 192 316 L 192 292 L 56 292 L 32 292 L 32 244 L 56 244 L 192 244 L 192 244 L 285 244 L 239 215 L 212 198 L 246 144 L 246 144 Z"
  />
</svg>