<svg xmlns="http://www.w3.org/2000/svg" viewBox="0 0 512 512">
  <path d="M 38.4 396.8 L 38.4 389.6 L 38.4 396.8 L 38.4 389.6 L 204.8 144.8 L 204.8 144.8 L 371.2 389.6 L 371.2 389.6 L 371.2 396.8 L 371.2 396.8 L 38.4 396.8 L 38.4 396.8 Z M 204.8 76.8 L 181.6 111.2 L 204.8 76.8 L 181.6 111.2 L 0 377.6 L 0 377.6 L 0 396.8 L 0 396.8 L 0 435.2 L 0 435.2 L 38.4 435.2 L 512 435.2 L 512 372.8 L 512 372.8 L 384 179.2 L 384 179.2 L 330.4 260.8 L 330.4 260.8 L 228 111.2 L 228 111.2 L 204.8 76.8 L 204.8 76.8 Z" />
</svg>