<svg viewBox="0 0 512 448">
  <path
    d="M 224 0 L 272 64 L 464 64 L 512 64 L 512 112 L 512 400 L 512 448 L 464 448 L 48 448 L 0 448 L 0 400 L 0 48 L 0 0 L 48 0 L 224 0 L 224 0 Z M 272 112 L 248 112 L 234 93 L 200 48 L 48 48 L 48 400 L 464 400 L 464 112 L 272 112 L 272 112 Z M 354 192 L 337 209 L 290 256 L 337 303 L 354 320 L 320 354 L 303 337 L 256 290 L 209 337 L 192 354 L 158 320 L 175 303 L 222 256 L 175 209 L 158 192 L 192 158 L 209 175 L 256 222 L 303 175 L 320 158 L 354 192 L 354 192 Z"
  />
</svg>