<svg xmlns="http://www.w3.org/2000/svg" viewBox="0 0 512 512">
  <path d="M 82 212 Q 103 229 145 242 L 145 242 L 145 242 Q 188 255 256 256 Q 324 255 367 242 Q 409 229 430 212 Q 452 196 460 185 L 460 184 L 460 184 L 460 183 L 460 183 Q 452 172 430 156 Q 409 139 367 126 Q 324 113 256 112 Q 188 113 145 126 Q 103 139 82 156 Q 60 172 52 183 L 52 184 L 52 184 L 53 185 L 53 185 Q 60 196 82 212 L 82 212 Z M 510 175 Q 511 175 507 176 L 507 176 L 507 176 Q 504 177 488 184 L 510 175 L 510 175 Q 512 179 512 184 L 512 328 L 512 328 L 512 333 L 512 333 L 510 337 L 510 337 L 488 328 L 488 328 Q 504 335 507 336 Q 511 337 510 337 L 510 337 L 510 337 L 510 337 L 510 337 L 510 338 L 510 338 L 510 338 L 510 338 Q 510 338 510 338 Q 509 339 509 339 Q 508 341 507 344 Q 504 349 498 357 Q 486 374 458 396 Q 429 417 380 432 Q 331 447 256 448 Q 181 447 132 432 Q 83 417 54 396 Q 26 374 14 357 Q 8 349 5 344 Q 4 342 3 341 Q 3 340 3 340 Q 2 339 2 338 Q 2 338 2 338 L 2 338 L 2 338 L 2 337 L 2 337 L 2 337 L 2 337 L 2 337 L 2 337 Q 1 338 5 336 Q 8 335 24 328 L 2 337 L 2 337 L 0 333 L 0 333 L 0 328 L 0 328 L 0 184 L 0 184 Q 0 179 2 175 L 24 184 L 24 184 Q 8 177 5 176 Q 1 175 2 175 L 2 175 L 2 175 L 2 175 L 2 175 L 2 175 L 2 175 L 2 174 L 2 174 Q 2 174 2 174 Q 3 173 3 173 Q 4 171 5 168 Q 8 163 14 155 Q 26 138 54 117 Q 83 95 132 80 Q 181 65 256 64 Q 331 65 380 80 Q 429 95 458 116 Q 486 138 498 155 Q 504 163 507 168 Q 508 170 509 171 Q 509 172 509 173 Q 510 173 510 174 L 510 174 L 510 174 L 510 175 L 510 175 L 510 175 L 510 175 L 510 175 L 510 175 Z M 48 247 L 48 322 L 48 247 L 48 322 Q 50 325 52 329 Q 60 340 82 356 Q 103 373 145 386 Q 188 399 256 400 Q 324 399 367 386 Q 409 373 430 356 Q 452 340 460 329 Q 462 325 464 323 Q 464 322 464 322 L 464 247 L 464 247 Q 463 248 461 249 Q 459 250 458 252 Q 429 273 380 288 Q 331 303 256 304 Q 181 303 132 288 Q 83 273 54 252 Q 53 250 51 249 Q 49 248 48 247 L 48 247 Z" />
</svg>