<svg xmlns="http://www.w3.org/2000/svg" viewBox="0 0 512 512">
  <path d="M 0 160 L 0 352 L 0 160 L 0 352 L 160 512 L 160 512 L 352 512 L 352 512 L 512 352 L 512 352 L 512 160 L 512 160 L 352 0 L 352 0 L 160 0 L 160 0 L 0 160 L 0 160 Z M 288 128 L 288 192 L 288 128 L 288 192 L 224 192 L 224 192 L 224 128 L 224 128 L 288 128 L 288 128 Z M 168 232 L 344 232 L 168 232 L 368 232 L 368 280 L 368 280 L 344 280 L 144 280 L 144 232 L 144 232 L 168 232 L 168 232 Z M 224 320 L 288 320 L 224 320 L 288 320 L 288 384 L 288 384 L 224 384 L 224 384 L 224 320 L 224 320 Z" />
</svg>