<svg xmlns="http://www.w3.org/2000/svg" viewBox="0 0 512 512">
  <path d="M 480 256 Q 479 195 450 144 L 450 144 L 450 144 Q 420 93 368 62 Q 315 32 256 32 Q 197 32 144 62 Q 92 93 62 144 Q 33 195 32 256 Q 33 317 62 368 Q 92 419 144 450 Q 197 480 256 480 Q 315 480 368 450 Q 420 419 450 368 Q 479 317 480 256 L 480 256 Z M 0 256 Q 1 186 34 128 L 34 128 L 34 128 Q 68 70 128 34 Q 189 0 256 0 Q 323 0 384 34 Q 444 70 478 128 Q 511 186 512 256 Q 511 326 478 384 Q 444 442 384 478 Q 323 512 256 512 Q 189 512 128 478 Q 68 442 34 384 Q 1 326 0 256 L 0 256 Z M 376 339 L 376 340 L 376 339 L 376 340 Q 371 366 351 383 Q 332 399 305 400 L 192 400 L 176 400 L 176 368 L 176 368 L 192 368 L 305 368 Q 320 368 330 359 Q 341 349 344 335 L 344 333 L 344 333 L 347 318 L 347 318 L 379 323 L 379 323 L 376 339 L 376 339 Z M 112 192 L 176 192 L 112 192 L 176 192 Q 190 192 199 201 Q 208 210 208 224 Q 208 238 199 247 Q 190 256 176 256 Q 162 256 153 247 Q 144 238 144 224 L 112 224 L 96 224 L 96 192 L 96 192 L 112 192 L 112 192 Z M 288 192 L 304 192 L 288 192 L 368 192 Q 382 192 391 201 Q 400 210 400 224 Q 400 238 391 247 Q 382 256 368 256 Q 354 256 345 247 Q 336 238 336 224 L 304 224 L 288 224 L 288 192 L 288 192 Z" />
</svg>