<svg xmlns="http://www.w3.org/2000/svg" viewBox="0 0 512 384">
    <path d="M 64 0 L 192 0 L 192 32 L 64 32 L 64 0 L 64 0 Z M 320 0 L 448 0 L 448 32 L 320 32 L 320 0 L 320 0 Z M 32 96 L 32 352 L 480 352 L 480 96 L 32 96 L 32 96 Z M 0 64 L 32 64 L 480 64 L 512 64 L 512 96 L 512 352 L 512 384 L 480 384 L 32 384 L 0 384 L 0 352 L 0 96 L 0 64 L 0 64 Z M 384 144 L 384 160 L 384 192 L 416 192 L 432 192 L 432 224 L 416 224 L 384 224 L 384 256 L 384 272 L 352 272 L 352 256 L 352 224 L 320 224 L 304 224 L 304 192 L 320 192 L 352 192 L 352 160 L 352 144 L 384 144 L 384 144 Z M 96 192 L 192 192 L 208 192 L 208 224 L 192 224 L 96 224 L 80 224 L 80 192 L 96 192 L 96 192 Z"/>
</svg>
