<svg xmlns="http://www.w3.org/2000/svg" viewBox="0 0 512 512">
  <path d="M 256.8858 57.577854 L 278.14532 57.577854 L 256.8858 57.577854 L 320.66437 57.577854 Q 400.38754 59.34948 453.53635 111.61246 Q 507.57092 162.98962 512 241.827 L 512 241.827 L 512 241.827 L 512 248.02768 L 512 248.02768 L 512 248.9135 L 512 248.9135 L 512 312.69205 L 512 312.69205 L 512 312.69205 L 512 312.69205 Q 511.1142 342.8097 490.74048 363.18338 Q 471.2526 382.6713 441.13495 383.5571 L 430.5052 383.5571 L 430.5052 383.5571 L 470.3668 454.42215 L 470.3668 454.42215 L 421.64706 454.42215 L 421.64706 454.42215 L 380.89966 383.5571 L 380.89966 383.5571 L 310.0346 383.5571 L 310.0346 383.5571 L 261.31488 454.42215 L 261.31488 454.42215 L 209.05191 454.42215 L 209.05191 454.42215 L 258.65744 383.5571 L 258.65744 383.5571 L 211.70934 383.5571 L 211.70934 383.5571 L 158.56055 454.42215 L 158.56055 454.42215 L 105.411766 454.42215 L 105.411766 454.42215 L 162.98962 377.3564 L 162.98962 377.3564 L 126.67128 363.18338 L 126.67128 363.18338 L 54.920414 454.42215 L 54.920414 454.42215 L 0 454.42215 L 0 454.42215 L 240.05536 150.58824 L 240.05536 150.58824 L 262.20068 122.24222 L 262.20068 122.24222 L 276.3737 155.9031 L 276.3737 155.9031 L 295.8616 200.19377 L 295.8616 200.19377 L 332.17993 151.47404 L 332.17993 151.47404 L 354.32526 121.3564 L 354.32526 121.3564 L 368.49826 155.9031 L 368.49826 155.9031 L 405.70242 241.827 L 405.70242 241.827 L 469.48096 241.827 L 469.48096 241.827 Q 465.0519 181.59169 423.41867 141.7301 Q 381.78546 101.868515 320.66437 100.096886 L 278.14532 100.096886 L 256.8858 100.096886 L 256.8858 57.577854 L 256.8858 57.577854 Z M 359.64014 241.827 L 343.6955 206.39447 L 359.64014 241.827 L 343.6955 206.39447 L 317.1211 241.827 L 317.1211 241.827 L 359.64014 241.827 L 359.64014 241.827 Z M 263.97232 241.827 L 265.74396 239.16956 L 263.97232 241.827 L 265.74396 239.16956 L 251.57094 205.50865 L 251.57094 205.50865 L 222.3391 241.827 L 222.3391 241.827 L 263.97232 241.827 L 263.97232 241.827 Z M 30.117647 241.827 L 135.52942 241.827 L 30.117647 241.827 L 135.52942 241.827 L 58.46367 337.4948 L 58.46367 337.4948 L 30.117647 326.86505 L 30.117647 326.86505 L 30.117647 241.827 L 30.117647 241.827 Z M 441.13495 312.69205 Q 454.42215 311.8062 455.30795 298.51904 Q 454.42215 285.23184 441.13495 284.346 Q 427.84775 285.23184 426.96194 298.51904 Q 427.84775 311.8062 441.13495 312.69205 L 441.13495 312.69205 Z" />
</svg>