<svg xmlns="http://www.w3.org/2000/svg" viewBox="0 0 512 512">
  <path d="M 183.12408759124088 143.8832116788321 L 151.35766423357666 112.11678832116789 L 183.12408759124088 143.8832116788321 L 151.35766423357666 112.11678832116789 L 135.47445255474452 128 L 135.47445255474452 128 L 113.98540145985402 149.4890510948905 L 113.98540145985402 149.4890510948905 L 113.98540145985402 39.24087591240876 L 113.98540145985402 39.24087591240876 L 113.98540145985402 16.817518248175183 L 113.98540145985402 16.817518248175183 L 69.13868613138686 16.817518248175183 L 69.13868613138686 16.817518248175183 L 69.13868613138686 39.24087591240876 L 69.13868613138686 39.24087591240876 L 69.13868613138686 149.4890510948905 L 69.13868613138686 149.4890510948905 L 47.64963503649635 128 L 47.64963503649635 128 L 31.766423357664234 112.11678832116789 L 31.766423357664234 112.11678832116789 L 0 143.8832116788321 L 0 143.8832116788321 L 15.883211678832117 159.76642335766422 L 15.883211678832117 159.76642335766422 L 75.67883211678833 219.56204379562044 L 75.67883211678833 219.56204379562044 L 91.56204379562044 235.44525547445255 L 91.56204379562044 235.44525547445255 L 107.44525547445255 219.56204379562044 L 107.44525547445255 219.56204379562044 L 167.24087591240877 159.76642335766422 L 167.24087591240877 159.76642335766422 L 183.12408759124088 143.8832116788321 L 183.12408759124088 143.8832116788321 Z M 76.61313868613139 285.8978102189781 L 46.715328467153284 495.1824817518248 L 76.61313868613139 285.8978102189781 L 46.715328467153284 495.1824817518248 L 256 495.1824817518248 L 256 495.1824817518248 L 256 345.6934306569343 L 256 345.6934306569343 L 345.6934306569343 495.1824817518248 L 345.6934306569343 495.1824817518248 L 465.2846715328467 495.1824817518248 L 465.2846715328467 495.1824817518248 L 435.3868613138686 285.8978102189781 L 435.3868613138686 285.8978102189781 L 256 166.3065693430657 L 256 166.3065693430657 L 76.61313868613139 285.8978102189781 L 76.61313868613139 285.8978102189781 Z M 496.11678832116786 159.76642335766422 L 512 143.8832116788321 L 496.11678832116786 159.76642335766422 L 512 143.8832116788321 L 480.2335766423358 112.11678832116789 L 480.2335766423358 112.11678832116789 L 464.35036496350364 128 L 464.35036496350364 128 L 442.86131386861314 149.4890510948905 L 442.86131386861314 149.4890510948905 L 442.86131386861314 39.24087591240876 L 442.86131386861314 39.24087591240876 L 442.86131386861314 16.817518248175183 L 442.86131386861314 16.817518248175183 L 398.014598540146 16.817518248175183 L 398.014598540146 16.817518248175183 L 398.014598540146 39.24087591240876 L 398.014598540146 39.24087591240876 L 398.014598540146 149.4890510948905 L 398.014598540146 149.4890510948905 L 376.5255474452555 128 L 376.5255474452555 128 L 360.64233576642334 112.11678832116789 L 360.64233576642334 112.11678832116789 L 328.8759124087591 143.8832116788321 L 328.8759124087591 143.8832116788321 L 344.75912408759126 159.76642335766422 L 344.75912408759126 159.76642335766422 L 404.55474452554745 219.56204379562044 L 404.55474452554745 219.56204379562044 L 420.4379562043796 235.44525547445255 L 420.4379562043796 235.44525547445255 L 436.3211678832117 219.56204379562044 L 436.3211678832117 219.56204379562044 L 496.11678832116786 159.76642335766422 L 496.11678832116786 159.76642335766422 Z" />
</svg>