<svg xmlns="http://www.w3.org/2000/svg" viewBox="0 0 318 515">
    <path d="M 153 3 Q 181 0 198 22 Q 214 44 204 70 Q 192 95 165 99 Q 137 102 120 80 Q 103 58 114 32 Q 126 7 153 3 L 153 3 Z M 175 131 L 210 131 L 224 131 L 231 143 L 306 279 L 318 300 L 276 324 L 264 303 L 223 228 L 223 491 L 223 515 L 175 515 L 175 491 L 175 355 L 175 355 L 175 307 L 175 307 L 175 179 L 175 179 L 175 131 L 175 131 Z M 94 131 L 108 131 L 127 131 L 143 131 L 143 241 L 112 339 L 143 339 L 143 387 L 143 387 L 143 491 L 143 515 L 95 515 L 95 491 L 95 387 L 47 387 L 62 339 L 99 221 L 54 303 L 42 324 L 0 300 L 12 279 L 87 143 L 94 131 L 94 131 Z"/>
</svg>
