<svg xmlns="http://www.w3.org/2000/svg" viewBox="0 0 512 512">
  <path d="M 28.444444444444443 206.22222222222223 Q 30.22222222222222 143.11111111111111 74.66666666666667 101.33333333333333 L 74.66666666666667 101.33333333333333 L 74.66666666666667 101.33333333333333 Q 119.11111111111111 58.666666666666664 186.66666666666666 56.888888888888886 Q 214.22222222222223 56.888888888888886 239.11111111111111 64.88888888888889 L 248 38.22222222222222 L 248 38.22222222222222 Q 218.66666666666666 28.444444444444443 186.66666666666666 28.444444444444443 Q 107.55555555555556 30.22222222222222 55.111111111111114 80 Q 1.7777777777777777 130.66666666666666 0 206.22222222222223 Q 0.8888888888888888 280.8888888888889 46.22222222222222 331.55555555555554 Q 90.66666666666667 382.22222222222223 169.77777777777777 384 L 169.77777777777777 384 L 169.77777777777777 384 Q 169.77777777777777 384 170.66666666666666 384 Q 170.66666666666666 384 170.66666666666666 384 L 170.66666666666666 384 L 170.66666666666666 384 L 170.66666666666666 384 L 170.66666666666666 384 L 171.55555555555554 384 L 171.55555555555554 384 L 171.55555555555554 384 L 171.55555555555554 384 Q 191.11111111111111 383.1111111111111 208.88888888888889 376 Q 225.77777777777777 368.8888888888889 238.22222222222223 360 Q 248.88888888888889 352.8888888888889 256 346.6666666666667 Q 263.1111111111111 352.8888888888889 273.77777777777777 360 Q 286.22222222222223 368.8888888888889 304 376 Q 320.8888888888889 384 341.3333333333333 384 Q 361.77777777777777 384 378.6666666666667 376 Q 396.44444444444446 368.8888888888889 408.8888888888889 360 Q 419.55555555555554 352.8888888888889 426.6666666666667 346.6666666666667 Q 433.77777777777777 352.8888888888889 444.44444444444446 360 Q 456.8888888888889 368.8888888888889 474.6666666666667 376 Q 491.55555555555554 384 512 384 L 512 355.55555555555554 L 512 355.55555555555554 Q 483.55555555555554 353.77777777777777 460.44444444444446 336.8888888888889 Q 441.77777777777777 323.55555555555554 426.6666666666667 306.6666666666667 Q 411.55555555555554 323.55555555555554 392.8888888888889 336.8888888888889 Q 369.77777777777777 353.77777777777777 341.3333333333333 355.55555555555554 Q 312.8888888888889 353.77777777777777 289.77777777777777 336.8888888888889 Q 271.1111111111111 323.55555555555554 256 306.6666666666667 Q 240.88888888888889 323.55555555555554 222.22222222222223 336.8888888888889 Q 199.11111111111111 353.77777777777777 170.66666666666666 355.55555555555554 Q 125.33333333333333 354.6666666666667 95.11111111111111 324.44444444444446 Q 64.88888888888889 294.22222222222223 64 248.88888888888889 Q 64.88888888888889 203.55555555555554 95.11111111111111 173.33333333333334 Q 125.33333333333333 143.11111111111111 171.55555555555554 142.22222222222223 Q 195.55555555555554 142.22222222222223 216.88888888888889 152 L 228.44444444444446 126.22222222222223 L 228.44444444444446 126.22222222222223 Q 201.77777777777777 113.77777777777777 171.55555555555554 113.77777777777777 Q 113.77777777777777 115.55555555555556 75.55555555555556 153.77777777777777 Q 37.333333333333336 191.11111111111111 35.55555555555556 248.88888888888889 Q 35.55555555555556 253.33333333333334 35.55555555555556 256.8888888888889 Q 28.444444444444443 232.88888888888889 28.444444444444443 206.22222222222223 L 28.444444444444443 206.22222222222223 Z M 312.8888888888889 277.3333333333333 L 312.8888888888889 156.44444444444446 L 312.8888888888889 277.3333333333333 L 312.8888888888889 156.44444444444446 L 398.22222222222223 92.44444444444444 L 398.22222222222223 92.44444444444444 L 483.55555555555554 156.44444444444446 L 483.55555555555554 156.44444444444446 L 483.55555555555554 277.3333333333333 L 483.55555555555554 277.3333333333333 Q 497.77777777777777 283.55555555555554 512 283.55555555555554 L 512 142.22222222222223 L 512 142.22222222222223 L 398.22222222222223 56.888888888888886 L 398.22222222222223 56.888888888888886 L 284.44444444444446 142.22222222222223 L 284.44444444444446 142.22222222222223 L 284.44444444444446 262.22222222222223 L 284.44444444444446 262.22222222222223 Q 295.1111111111111 269.3333333333333 304.8888888888889 274.6666666666667 Q 309.3333333333333 276.44444444444446 312.8888888888889 277.3333333333333 L 312.8888888888889 277.3333333333333 Z M 170.66666666666666 455.1111111111111 Q 142.22222222222223 453.3333333333333 119.11111111111111 436.44444444444446 Q 100.44444444444444 423.1111111111111 85.33333333333333 406.22222222222223 Q 70.22222222222223 423.1111111111111 51.55555555555556 436.44444444444446 Q 28.444444444444443 453.3333333333333 0 455.1111111111111 L 0 483.55555555555554 L 0 483.55555555555554 Q 20.444444444444443 483.55555555555554 37.333333333333336 475.55555555555554 Q 55.111111111111114 468.44444444444446 67.55555555555556 459.55555555555554 Q 78.22222222222223 452.44444444444446 85.33333333333333 446.22222222222223 Q 92.44444444444444 452.44444444444446 103.11111111111111 459.55555555555554 Q 115.55555555555556 468.44444444444446 133.33333333333334 475.55555555555554 Q 150.22222222222223 483.55555555555554 170.66666666666666 483.55555555555554 Q 191.11111111111111 483.55555555555554 208 475.55555555555554 Q 225.77777777777777 468.44444444444446 238.22222222222223 459.55555555555554 Q 248.88888888888889 452.44444444444446 256 446.22222222222223 Q 263.1111111111111 452.44444444444446 273.77777777777777 459.55555555555554 Q 286.22222222222223 468.44444444444446 304 475.55555555555554 Q 320.8888888888889 483.55555555555554 341.3333333333333 483.55555555555554 Q 361.77777777777777 483.55555555555554 378.6666666666667 475.55555555555554 Q 396.44444444444446 468.44444444444446 408.8888888888889 459.55555555555554 Q 419.55555555555554 452.44444444444446 426.6666666666667 446.22222222222223 Q 433.77777777777777 452.44444444444446 444.44444444444446 459.55555555555554 Q 456.8888888888889 468.44444444444446 474.6666666666667 475.55555555555554 Q 491.55555555555554 483.55555555555554 512 483.55555555555554 L 512 455.1111111111111 L 512 455.1111111111111 Q 483.55555555555554 453.3333333333333 460.44444444444446 436.44444444444446 Q 441.77777777777777 423.1111111111111 426.6666666666667 406.22222222222223 Q 411.55555555555554 423.1111111111111 392.8888888888889 436.44444444444446 Q 369.77777777777777 453.3333333333333 341.3333333333333 455.1111111111111 Q 312.8888888888889 453.3333333333333 289.77777777777777 436.44444444444446 Q 271.1111111111111 423.1111111111111 256 406.22222222222223 Q 240.88888888888889 423.1111111111111 222.22222222222223 436.44444444444446 Q 199.11111111111111 453.3333333333333 170.66666666666666 455.1111111111111 L 170.66666666666666 455.1111111111111 Z" />
</svg>