<svg xmlns="http://www.w3.org/2000/svg" viewBox="0 0 640 512">
    <path d="M 192 288 Q 192 340 213 384 Q 149 378 107 334 Q 66 289 64 224 Q 66 156 111 111 Q 156 66 224 64 Q 273 65 311 90 Q 257 119 225 171 Q 193 223 192 288 L 192 288 Z M 224 448 Q 241 448 257 446 Q 288 477 328 494 Q 369 512 416 512 Q 479 511 529 481 Q 580 452 609 401 Q 639 351 640 288 Q 639 225 609 175 Q 580 124 529 95 Q 479 65 416 64 Q 399 64 383 66 Q 352 35 312 18 Q 271 0 224 0 Q 161 1 111 31 Q 60 60 31 111 Q 1 161 0 224 Q 1 287 31 337 Q 60 388 111 417 Q 161 447 224 448 L 224 448 Z M 416 448 Q 367 447 329 422 Q 383 393 415 341 Q 447 289 448 224 Q 448 172 427 128 Q 491 134 533 178 Q 574 223 576 288 Q 574 356 529 401 Q 484 446 416 448 L 416 448 Z"/>
</svg>
