<svg xmlns="http://www.w3.org/2000/svg" viewBox="0 0 512 512">
  <path d="M 163.73861386138614 29.401980198019803 L 150.55841584158415 0 L 163.73861386138614 29.401980198019803 L 150.55841584158415 0 L 91.75445544554455 27.374257425742574 L 91.75445544554455 27.374257425742574 L 104.93465346534653 56.77623762376238 L 104.93465346534653 56.77623762376238 L 137.3782178217822 125.71881188118812 L 137.3782178217822 125.71881188118812 L 172.86336633663367 49.67920792079208 L 172.86336633663367 49.67920792079208 L 163.73861386138614 29.401980198019803 L 163.73861386138614 29.401980198019803 Z M 229.63960396039604 236.22970297029704 L 256 236.22970297029704 L 229.63960396039604 236.22970297029704 L 256 236.22970297029704 L 256 227.1049504950495 L 256 227.1049504950495 L 244.84752475247524 202.77227722772278 L 244.84752475247524 202.77227722772278 L 229.63960396039604 236.22970297029704 L 229.63960396039604 236.22970297029704 Z M 353.3306930693069 317.33861386138614 L 288.4435643564356 317.33861386138614 L 353.3306930693069 317.33861386138614 L 288.4435643564356 317.33861386138614 L 288.4435643564356 366.0039603960396 L 288.4435643564356 366.0039603960396 L 288.4435643564356 382.2257425742574 L 288.4435643564356 382.2257425742574 L 272.22178217821784 382.2257425742574 L 142.44752475247526 382.2257425742574 L 142.44752475247526 349.7821782178218 L 142.44752475247526 349.7821782178218 L 158.66930693069307 349.7821782178218 L 256 349.7821782178218 L 256 317.33861386138614 L 256 317.33861386138614 L 256 268.6732673267327 L 256 268.6732673267327 L 214.43168316831682 268.6732673267327 L 61.338613861386136 268.6732673267327 L 61.338613861386136 360.9346534653465 L 61.338613861386136 360.9346534653465 Q 62.35247524752475 414.6693069306931 99.86534653465347 453.1960396039604 L 111.01782178217822 464.34851485148516 L 111.01782178217822 464.34851485148516 Q 158.66930693069307 510.9861386138614 225.58415841584159 512 L 288.4435643564356 512 L 288.4435643564356 512 Q 357.38613861386136 509.97227722772277 403.009900990099 464.34851485148516 Q 448.63366336633663 418.7247524752475 450.66138613861386 349.7821782178218 L 353.3306930693069 349.7821782178218 L 353.3306930693069 349.7821782178218 L 353.3306930693069 317.33861386138614 L 353.3306930693069 317.33861386138614 Z M 277.2910891089109 56.77623762376238 L 290.47128712871285 27.374257425742574 L 277.2910891089109 56.77623762376238 L 290.47128712871285 27.374257425742574 L 231.66732673267327 0 L 231.66732673267327 0 L 218.48712871287128 29.401980198019803 L 218.48712871287128 29.401980198019803 L 122.17029702970297 236.22970297029704 L 122.17029702970297 236.22970297029704 L 193.14059405940594 236.22970297029704 L 193.14059405940594 236.22970297029704 L 277.2910891089109 56.77623762376238 L 277.2910891089109 56.77623762376238 Z M 288.4435643564356 155.12079207920792 L 288.4435643564356 284.8950495049505 L 288.4435643564356 155.12079207920792 L 288.4435643564356 284.8950495049505 L 353.3306930693069 284.8950495049505 L 353.3306930693069 284.8950495049505 L 353.3306930693069 155.12079207920792 L 353.3306930693069 155.12079207920792 L 288.4435643564356 155.12079207920792 L 288.4435643564356 155.12079207920792 Z M 385.7742574257426 187.56435643564356 L 385.7742574257426 317.33861386138614 L 385.7742574257426 187.56435643564356 L 385.7742574257426 317.33861386138614 L 450.66138613861386 317.33861386138614 L 450.66138613861386 317.33861386138614 L 450.66138613861386 187.56435643564356 L 450.66138613861386 187.56435643564356 L 385.7742574257426 187.56435643564356 L 385.7742574257426 187.56435643564356 Z" />
</svg>