<svg xmlns="http://www.w3.org/2000/svg" viewBox="0 0 512 512">
  <path d="M 92 150 Q 80 198 80 247 L 80 265 L 80 265 Q 80 314 92 362 L 98 384 L 98 384 L 415 384 L 415 384 L 420 362 L 420 362 Q 432 314 432 265 L 432 247 L 432 247 Q 432 198 420 150 L 415 128 L 415 128 L 98 128 L 98 128 L 92 150 L 92 150 Z M 418 48 L 95 48 L 418 48 L 95 48 L 103 80 L 103 80 L 409 80 L 409 80 L 418 48 L 418 48 Z M 102 432 L 94 464 L 102 432 L 94 464 L 419 464 L 419 464 L 411 432 L 411 432 L 102 432 L 102 432 Z M 45 48 L 32 0 L 45 48 L 32 0 L 82 0 L 480 0 L 467 48 L 467 48 L 455 93 L 455 93 L 467 139 L 467 139 Q 480 192 480 247 L 480 265 L 480 265 Q 480 320 467 374 L 456 416 L 456 416 L 468 464 L 468 464 L 480 512 L 480 512 L 431 512 L 32 512 L 44 464 L 44 464 L 56 416 L 56 416 L 45 374 L 45 374 Q 32 320 32 265 L 32 247 L 32 247 Q 32 192 45 139 L 57 93 L 57 93 L 45 48 L 45 48 Z M 160 160 Q 191 160 216 175 L 216 175 L 216 175 Q 241 190 256 214 Q 271 190 296 175 Q 321 160 352 160 L 384 160 L 384 160 L 384 176 L 384 176 Q 383 221 354 253 Q 325 284 280 288 L 280 328 L 280 328 L 280 352 L 280 352 L 232 352 L 232 352 L 232 328 L 232 328 L 232 288 L 232 288 Q 187 284 158 252 Q 129 221 128 176 L 128 160 L 128 160 L 160 160 L 160 160 Z" />
</svg>