<svg xmlns="http://www.w3.org/2000/svg" viewBox="0 0 512 512">
  <path d="M 208.55598 53.374516 Q 209.5444 26.687258 232.278 11.861004 Q 256 0 279.72202 11.861004 Q 302.4556 26.687258 303.444 53.374516 Q 302.4556 80.061775 279.72202 94.88803 Q 256 106.74903 232.278 94.88803 Q 209.5444 80.061775 208.55598 53.374516 L 208.55598 53.374516 Z M 190.76448 132.44788 L 205.59073 132.44788 L 190.76448 132.44788 L 322.22394 132.44788 L 331.1197 144.30888 L 331.1197 144.30888 L 407.2278 239.19691 L 407.2278 239.19691 L 426.99612 263.90735 L 426.99612 263.90735 L 377.5753 303.444 L 377.5753 303.444 L 357.80695 278.73358 L 357.80695 278.73358 L 327.16602 240.18533 L 327.16602 240.18533 L 327.16602 417.11197 L 327.16602 417.11197 L 263.90735 417.11197 L 263.90735 417.11197 L 263.90735 322.22394 L 263.90735 322.22394 L 248.09267 322.22394 L 248.09267 322.22394 L 248.09267 417.11197 L 248.09267 417.11197 L 184.83398 417.11197 L 184.83398 417.11197 L 184.83398 240.18533 L 184.83398 240.18533 L 154.19305 278.73358 L 154.19305 278.73358 L 134.42471 303.444 L 134.42471 303.444 L 85.00386 263.90735 L 85.00386 263.90735 L 104.7722 239.19691 L 104.7722 239.19691 L 180.88031 144.30888 L 180.88031 144.30888 L 190.76448 132.44788 L 190.76448 132.44788 Z M 295.53668 512 L 216.46332 512 L 295.53668 512 L 97.85328 512 L 97.85328 448.7413 L 97.85328 448.7413 L 414.14673 448.7413 L 414.14673 448.7413 L 414.14673 512 L 414.14673 512 L 295.53668 512 L 295.53668 512 Z M 477.4054 37.559845 L 509.03476 53.374516 L 477.4054 37.559845 L 509.03476 53.374516 L 477.4054 69.189186 L 477.4054 69.189186 L 461.59073 100.818535 L 461.59073 100.818535 L 445.77606 69.189186 L 445.77606 69.189186 L 414.14673 53.374516 L 414.14673 53.374516 L 445.77606 37.559845 L 445.77606 37.559845 L 461.59073 5.930502 L 461.59073 5.930502 L 477.4054 37.559845 L 477.4054 37.559845 Z M 50.409267 69.189186 L 66.22394 100.818535 L 50.409267 69.189186 L 66.22394 100.818535 L 97.85328 116.6332 L 97.85328 116.6332 L 66.22394 132.44788 L 66.22394 132.44788 L 50.409267 164.07722 L 50.409267 164.07722 L 34.594593 132.44788 L 34.594593 132.44788 L 2.965251 116.6332 L 2.965251 116.6332 L 34.594593 100.818535 L 34.594593 100.818535 L 50.409267 69.189186 L 50.409267 69.189186 Z" />
</svg>