<svg xmlns="http://www.w3.org/2000/svg" viewBox="0 0 512 512">
  <path d="M 113.77777777777777 42.666666666666664 L 113.77777777777777 28.444444444444443 L 113.77777777777777 42.666666666666664 L 113.77777777777777 28.444444444444443 L 85.33333333333333 28.444444444444443 L 85.33333333333333 28.444444444444443 L 85.33333333333333 42.666666666666664 L 85.33333333333333 42.666666666666664 L 85.33333333333333 85.33333333333333 L 85.33333333333333 85.33333333333333 L 28.444444444444443 85.33333333333333 L 0 85.33333333333333 L 0 113.77777777777777 L 0 113.77777777777777 L 0 170.66666666666666 L 0 170.66666666666666 L 0 199.11111111111111 L 0 199.11111111111111 L 0 455.1111111111111 L 0 455.1111111111111 L 0 483.55555555555554 L 0 483.55555555555554 L 28.444444444444443 483.55555555555554 L 294.22222222222223 483.55555555555554 Q 276.44444444444446 471.1111111111111 263.1111111111111 455.1111111111111 L 28.444444444444443 455.1111111111111 L 28.444444444444443 455.1111111111111 L 28.444444444444443 199.11111111111111 L 28.444444444444443 199.11111111111111 L 312.8888888888889 199.11111111111111 L 398.22222222222223 199.11111111111111 L 398.22222222222223 170.66666666666666 L 398.22222222222223 170.66666666666666 L 398.22222222222223 113.77777777777777 L 398.22222222222223 113.77777777777777 L 398.22222222222223 85.33333333333333 L 398.22222222222223 85.33333333333333 L 369.77777777777777 85.33333333333333 L 312.8888888888889 85.33333333333333 L 312.8888888888889 42.666666666666664 L 312.8888888888889 42.666666666666664 L 312.8888888888889 28.444444444444443 L 312.8888888888889 28.444444444444443 L 284.44444444444446 28.444444444444443 L 284.44444444444446 28.444444444444443 L 284.44444444444446 42.666666666666664 L 284.44444444444446 42.666666666666664 L 284.44444444444446 85.33333333333333 L 284.44444444444446 85.33333333333333 L 113.77777777777777 85.33333333333333 L 113.77777777777777 85.33333333333333 L 113.77777777777777 42.666666666666664 L 113.77777777777777 42.666666666666664 Z M 28.444444444444443 113.77777777777777 L 369.77777777777777 113.77777777777777 L 28.444444444444443 113.77777777777777 L 369.77777777777777 113.77777777777777 L 369.77777777777777 170.66666666666666 L 369.77777777777777 170.66666666666666 L 28.444444444444443 170.66666666666666 L 28.444444444444443 170.66666666666666 L 28.444444444444443 113.77777777777777 L 28.444444444444443 113.77777777777777 Z M 435.55555555555554 440.8888888888889 Q 412.44444444444446 455.1111111111111 384 455.1111111111111 Q 355.55555555555554 455.1111111111111 333.3333333333333 440.8888888888889 L 347.55555555555554 426.6666666666667 L 347.55555555555554 426.6666666666667 L 420.44444444444446 426.6666666666667 L 420.44444444444446 426.6666666666667 L 434.6666666666667 440.8888888888889 L 435.55555555555554 440.8888888888889 Z M 456.8888888888889 423.1111111111111 L 436.44444444444446 402.6666666666667 L 456.8888888888889 423.1111111111111 L 436.44444444444446 402.6666666666667 L 432.8888888888889 398.22222222222223 L 432.8888888888889 398.22222222222223 L 426.6666666666667 398.22222222222223 L 335.1111111111111 398.22222222222223 L 331.55555555555554 402.6666666666667 L 331.55555555555554 402.6666666666667 L 311.1111111111111 423.1111111111111 L 311.1111111111111 423.1111111111111 Q 285.3333333333333 395.55555555555554 284.44444444444446 355.55555555555554 Q 285.3333333333333 312.8888888888889 313.77777777777777 285.3333333333333 Q 341.3333333333333 256.8888888888889 384 256 Q 426.6666666666667 256.8888888888889 454.22222222222223 285.3333333333333 Q 482.6666666666667 312.8888888888889 483.55555555555554 355.55555555555554 Q 482.6666666666667 395.55555555555554 456.8888888888889 423.1111111111111 L 456.8888888888889 423.1111111111111 Z M 512 355.55555555555554 Q 512 320.8888888888889 495.1111111111111 291.55555555555554 L 495.1111111111111 291.55555555555554 L 495.1111111111111 291.55555555555554 Q 478.22222222222223 262.22222222222223 448 244.44444444444446 Q 417.77777777777777 227.55555555555554 384 227.55555555555554 Q 350.22222222222223 227.55555555555554 320 244.44444444444446 Q 289.77777777777777 262.22222222222223 272.8888888888889 291.55555555555554 Q 256 320.8888888888889 256 355.55555555555554 Q 256 390.22222222222223 272.8888888888889 419.55555555555554 Q 289.77777777777777 448.8888888888889 320 466.6666666666667 Q 350.22222222222223 483.55555555555554 384 483.55555555555554 Q 417.77777777777777 483.55555555555554 448 466.6666666666667 Q 478.22222222222223 448.8888888888889 495.1111111111111 419.55555555555554 Q 512 390.22222222222223 512 355.55555555555554 L 512 355.55555555555554 Z M 384 312.8888888888889 Q 403.55555555555554 314.6666666666667 405.3333333333333 334.22222222222223 Q 403.55555555555554 353.77777777777777 384 355.55555555555554 Q 364.44444444444446 353.77777777777777 362.6666666666667 334.22222222222223 Q 364.44444444444446 314.6666666666667 384 312.8888888888889 L 384 312.8888888888889 Z M 384 384 Q 412.44444444444446 383.1111111111111 426.6666666666667 359.1111111111111 Q 440.8888888888889 334.22222222222223 426.6666666666667 309.3333333333333 Q 412.44444444444446 285.3333333333333 384 284.44444444444446 Q 355.55555555555554 285.3333333333333 341.3333333333333 309.3333333333333 Q 327.1111111111111 334.22222222222223 341.3333333333333 359.1111111111111 Q 355.55555555555554 383.1111111111111 384 384 L 384 384 Z" />
</svg>