<svg xmlns="http://www.w3.org/2000/svg" viewBox="0 0 512 512">
  <path d="M 112.21917808219177 32.06262230919765 Q 142.27788649706457 33.064579256360076 164.32093933463796 51.099804305283755 L 164.32093933463796 51.099804305283755 L 164.32093933463796 51.099804305283755 Q 185.3620352250489 70.13698630136986 191.37377690802347 99.19373776908023 L 223.43639921722112 93.18199608610567 L 223.43639921722112 93.18199608610567 Q 215.4207436399217 53.10371819960861 185.3620352250489 27.052837573385517 Q 154.3013698630137 1.0019569471624266 112.21917808219177 0 Q 64.1252446183953 1.0019569471624266 33.064579256360076 33.064579256360076 Q 1.0019569471624266 64.1252446183953 0 112.21917808219177 Q 1.0019569471624266 154.3013698630137 27.052837573385517 185.3620352250489 Q 53.10371819960861 215.4207436399217 93.18199608610567 223.43639921722112 L 99.19373776908023 191.37377690802347 L 99.19373776908023 191.37377690802347 Q 70.13698630136986 185.3620352250489 51.099804305283755 164.32093933463796 Q 33.064579256360076 142.27788649706457 32.06262230919765 112.21917808219177 Q 33.064579256360076 78.15264187866927 55.10763209393346 55.10763209393346 Q 78.15264187866927 33.064579256360076 112.21917808219177 32.06262230919765 L 112.21917808219177 32.06262230919765 Z M 399.7808219178082 32.06262230919765 Q 433.8473581213307 33.064579256360076 455.8904109589041 55.10763209393346 L 455.8904109589041 55.10763209393346 L 455.8904109589041 55.10763209393346 Q 478.9354207436399 78.15264187866927 479.93737769080235 112.21917808219177 Q 478.9354207436399 142.27788649706457 460.9001956947162 164.32093933463796 Q 441.86301369863014 185.3620352250489 412.80626223091974 191.37377690802347 L 417.8160469667319 223.43639921722112 L 417.8160469667319 223.43639921722112 Q 458.89628180039136 215.4207436399217 484.94716242661445 185.3620352250489 Q 510.99804305283755 155.30332681017612 512 112.21917808219177 Q 510.99804305283755 64.1252446183953 478.9354207436399 33.064579256360076 Q 446.87279843444225 1.0019569471624266 399.7808219178082 0 Q 356.69667318982385 1.0019569471624266 326.63796477495106 27.052837573385517 Q 296.57925636007826 53.10371819960861 288.56360078277885 93.18199608610567 L 320.6262230919765 99.19373776908023 L 320.6262230919765 99.19373776908023 Q 325.63600782778866 70.13698630136986 347.67906066536204 51.099804305283755 Q 368.720156555773 33.064579256360076 399.7808219178082 32.06262230919765 L 399.7808219178082 32.06262230919765 Z M 32.06262230919765 399.7808219178082 Q 33.064579256360076 368.720156555773 51.099804305283755 347.67906066536204 L 51.099804305283755 347.67906066536204 L 51.099804305283755 347.67906066536204 Q 70.13698630136986 325.63600782778866 99.19373776908023 320.6262230919765 L 93.18199608610567 288.56360078277885 L 93.18199608610567 288.56360078277885 Q 53.10371819960861 296.57925636007826 27.052837573385517 326.63796477495106 Q 1.0019569471624266 356.69667318982385 0 399.7808219178082 Q 1.0019569471624266 446.87279843444225 33.064579256360076 478.9354207436399 Q 64.1252446183953 510.99804305283755 112.21917808219177 512 Q 154.3013698630137 510.99804305283755 185.3620352250489 484.94716242661445 Q 215.4207436399217 458.89628180039136 223.43639921722112 417.8160469667319 L 191.37377690802347 412.80626223091974 L 191.37377690802347 412.80626223091974 Q 186.36399217221134 441.86301369863014 164.32093933463796 459.8982387475538 Q 142.27788649706457 478.9354207436399 112.21917808219177 479.93737769080235 Q 78.15264187866927 478.9354207436399 55.10763209393346 455.8904109589041 Q 33.064579256360076 433.8473581213307 32.06262230919765 399.7808219178082 L 32.06262230919765 399.7808219178082 Z M 399.7808219178082 479.93737769080235 Q 368.720156555773 478.9354207436399 347.67906066536204 460.9001956947162 L 347.67906066536204 460.9001956947162 L 347.67906066536204 460.9001956947162 Q 325.63600782778866 441.86301369863014 320.6262230919765 412.80626223091974 L 288.56360078277885 417.8160469667319 L 288.56360078277885 417.8160469667319 Q 296.57925636007826 458.89628180039136 326.63796477495106 484.94716242661445 Q 356.69667318982385 510.99804305283755 399.7808219178082 512 Q 446.87279843444225 510.99804305283755 478.9354207436399 478.9354207436399 Q 510.99804305283755 446.87279843444225 512 399.7808219178082 Q 510.99804305283755 356.69667318982385 484.94716242661445 326.63796477495106 Q 458.89628180039136 296.57925636007826 417.8160469667319 288.56360078277885 L 412.80626223091974 320.6262230919765 L 412.80626223091974 320.6262230919765 Q 441.86301369863014 325.63600782778866 459.8982387475538 347.67906066536204 Q 478.9354207436399 368.720156555773 479.93737769080235 399.7808219178082 Q 478.9354207436399 433.8473581213307 455.8904109589041 455.8904109589041 Q 433.8473581213307 478.9354207436399 399.7808219178082 479.93737769080235 L 399.7808219178082 479.93737769080235 Z M 120.23483365949119 143.279843444227 L 160.31311154598825 183.35812133072406 L 120.23483365949119 143.279843444227 L 160.31311154598825 183.35812133072406 L 160.31311154598825 329.64383561643837 L 160.31311154598825 329.64383561643837 L 120.23483365949119 369.72211350293543 L 120.23483365949119 369.72211350293543 Q 116.22700587084148 368.720156555773 112.21917808219177 368.720156555773 Q 98.1917808219178 368.720156555773 89.17416829745596 377.73776908023484 Q 80.15655577299412 386.75538160469665 80.15655577299412 400.7827788649706 Q 80.15655577299412 414.8101761252446 89.17416829745596 423.82778864970646 Q 98.1917808219178 432.8454011741683 112.21917808219177 432.8454011741683 Q 126.24657534246575 432.8454011741683 135.26418786692759 423.82778864970646 Q 144.28180039138942 414.8101761252446 144.28180039138942 400.7827788649706 Q 144.28180039138942 396.7749510763209 143.279843444227 392.7671232876712 L 183.35812133072406 352.68884540117415 L 183.35812133072406 352.68884540117415 L 329.64383561643837 352.68884540117415 L 329.64383561643837 352.68884540117415 L 369.72211350293543 392.7671232876712 L 369.72211350293543 392.7671232876712 Q 368.720156555773 396.7749510763209 368.720156555773 400.7827788649706 Q 368.720156555773 414.8101761252446 377.73776908023484 423.82778864970646 Q 386.75538160469665 432.8454011741683 400.7827788649706 432.8454011741683 Q 414.8101761252446 432.8454011741683 423.82778864970646 423.82778864970646 Q 432.8454011741683 414.8101761252446 432.8454011741683 400.7827788649706 Q 432.8454011741683 386.75538160469665 423.82778864970646 377.73776908023484 Q 414.8101761252446 368.720156555773 400.7827788649706 368.720156555773 Q 396.7749510763209 368.720156555773 392.7671232876712 369.72211350293543 L 352.68884540117415 329.64383561643837 L 352.68884540117415 329.64383561643837 L 352.68884540117415 183.35812133072406 L 352.68884540117415 183.35812133072406 L 392.7671232876712 143.279843444227 L 392.7671232876712 143.279843444227 Q 396.7749510763209 144.28180039138942 400.7827788649706 144.28180039138942 Q 414.8101761252446 144.28180039138942 423.82778864970646 135.26418786692759 Q 432.8454011741683 126.24657534246575 432.8454011741683 112.21917808219177 Q 432.8454011741683 98.1917808219178 423.82778864970646 89.17416829745596 Q 414.8101761252446 80.15655577299412 400.7827788649706 80.15655577299412 Q 386.75538160469665 80.15655577299412 377.73776908023484 89.17416829745596 Q 368.720156555773 98.1917808219178 368.720156555773 112.21917808219177 Q 368.720156555773 116.22700587084148 369.72211350293543 120.23483365949119 L 329.64383561643837 160.31311154598825 L 329.64383561643837 160.31311154598825 L 183.35812133072406 160.31311154598825 L 183.35812133072406 160.31311154598825 L 143.279843444227 120.23483365949119 L 143.279843444227 120.23483365949119 Q 144.28180039138942 116.22700587084148 144.28180039138942 112.21917808219177 Q 144.28180039138942 98.1917808219178 135.26418786692759 89.17416829745596 Q 126.24657534246575 80.15655577299412 112.21917808219177 80.15655577299412 Q 98.1917808219178 80.15655577299412 89.17416829745596 89.17416829745596 Q 80.15655577299412 98.1917808219178 80.15655577299412 112.21917808219177 Q 80.15655577299412 126.24657534246575 89.17416829745596 135.26418786692759 Q 98.1917808219178 144.28180039138942 112.21917808219177 144.28180039138942 Q 116.22700587084148 144.28180039138942 120.23483365949119 143.279843444227 L 120.23483365949119 143.279843444227 Z M 192.3757338551859 320.6262230919765 L 192.3757338551859 192.3757338551859 L 192.3757338551859 320.6262230919765 L 192.3757338551859 192.3757338551859 L 320.6262230919765 192.3757338551859 L 320.6262230919765 192.3757338551859 L 320.6262230919765 320.6262230919765 L 320.6262230919765 320.6262230919765 L 192.3757338551859 320.6262230919765 L 192.3757338551859 320.6262230919765 Z" />
</svg>