<svg xmlns="http://www.w3.org/2000/svg" viewBox="0 0 512 512">
  <path d="M 230.4 102.4 L 230.4 164.8 L 230.4 102.4 L 230.4 164.8 L 115.2 234.4 L 115.2 234.4 L 102.4 241.6 L 102.4 241.6 L 102.4 256 L 102.4 256 L 102.4 358.4 L 102.4 358.4 L 102.4 358.4 L 102.4 358.4 L 51.2 358.4 L 51.2 358.4 L 51.2 102.4 L 51.2 102.4 L 230.4 102.4 L 230.4 102.4 Z M 281.6 102.4 L 460.8 102.4 L 281.6 102.4 L 460.8 102.4 L 460.8 358.4 L 460.8 358.4 L 406.4 358.4 L 406.4 358.4 L 404 355.2 L 404 355.2 L 340 278.4 L 340 278.4 L 332 268.8 L 332 268.8 L 320 268.8 L 256.8 268.8 L 228.8 225.6 L 228.8 225.6 L 268.8 200.8 L 268.8 200.8 L 281.6 193.6 L 281.6 193.6 L 281.6 179.2 L 281.6 179.2 L 281.6 102.4 L 281.6 102.4 Z M 340 358.4 L 303.2 358.4 L 340 358.4 L 303.2 358.4 L 337.6 409.6 L 337.6 409.6 L 460.8 409.6 L 512 409.6 L 512 358.4 L 512 358.4 L 512 102.4 L 512 102.4 L 512 51.2 L 512 51.2 L 460.8 51.2 L 0 51.2 L 0 102.4 L 0 102.4 L 0 358.4 L 0 358.4 L 0 409.6 L 0 409.6 L 51.2 409.6 L 246.4 409.6 L 266.4 439.2 L 266.4 439.2 L 280.8 460.8 L 280.8 460.8 L 323.2 432 L 323.2 432 L 308.8 411.2 L 308.8 411.2 L 248.8 320 L 248.8 320 L 308 320 L 308 320 L 340 358.4 L 340 358.4 Z M 212.8 358.4 L 153.6 358.4 L 212.8 358.4 L 153.6 358.4 L 153.6 358.4 L 153.6 358.4 L 153.6 270.4 L 153.6 270.4 L 153.6 270.4 L 153.6 270.4 L 212.8 358.4 L 212.8 358.4 Z M 153.6 153.6 Q 152.8 132 134.4 120 Q 115.2 110.4 96 120 Q 77.6 132 76.8 153.6 Q 77.6 175.2 96 187.2 Q 115.2 196.8 134.4 187.2 Q 152.8 175.2 153.6 153.6 L 153.6 153.6 Z" />
</svg>