<svg xmlns="http://www.w3.org/2000/svg" viewBox="0 0 512 512">
  <path d="M 116.44444444444444 198.22222222222223 L 167.11111111111111 185.77777777777777 L 116.44444444444444 198.22222222222223 L 167.11111111111111 185.77777777777777 L 171.55555555555554 184 L 171.55555555555554 184 L 175.11111111111111 185.77777777777777 L 175.11111111111111 185.77777777777777 L 256 212.44444444444446 L 256 212.44444444444446 L 336.8888888888889 185.77777777777777 L 336.8888888888889 185.77777777777777 L 340.44444444444446 184 L 340.44444444444446 184 L 344.8888888888889 184.88888888888889 L 344.8888888888889 184.88888888888889 L 395.55555555555554 198.22222222222223 L 395.55555555555554 198.22222222222223 L 376 113.77777777777777 L 376 113.77777777777777 L 136 113.77777777777777 L 136 113.77777777777777 L 116.44444444444444 198.22222222222223 L 116.44444444444444 198.22222222222223 Z M 108.44444444444444 229.33333333333334 L 74.66666666666667 369.77777777777777 L 108.44444444444444 229.33333333333334 L 74.66666666666667 369.77777777777777 L 46.22222222222222 369.77777777777777 L 46.22222222222222 369.77777777777777 L 113.77777777777777 85.33333333333333 L 113.77777777777777 85.33333333333333 L 398.22222222222223 85.33333333333333 L 398.22222222222223 85.33333333333333 L 466.6666666666667 369.77777777777777 L 466.6666666666667 369.77777777777777 L 437.3333333333333 369.77777777777777 L 437.3333333333333 369.77777777777777 L 403.55555555555554 229.33333333333334 L 403.55555555555554 229.33333333333334 L 342.22222222222223 214.22222222222223 L 342.22222222222223 214.22222222222223 L 260.44444444444446 240.88888888888889 L 260.44444444444446 240.88888888888889 L 256 242.66666666666666 L 256 242.66666666666666 L 251.55555555555554 240.88888888888889 L 251.55555555555554 240.88888888888889 L 169.77777777777777 214.22222222222223 L 169.77777777777777 214.22222222222223 L 108.44444444444444 229.33333333333334 L 108.44444444444444 229.33333333333334 Z M 0 398.22222222222223 L 14.222222222222221 398.22222222222223 L 0 398.22222222222223 L 512 398.22222222222223 L 512 426.6666666666667 L 512 426.6666666666667 L 497.77777777777777 426.6666666666667 L 0 426.6666666666667 L 0 398.22222222222223 L 0 398.22222222222223 Z" />
</svg>