<svg xmlns="http://www.w3.org/2000/svg" viewBox="0 0 576 460">
    <path d="M 32 405 L 32 350 Q 59 351 77 369 Q 95 387 96 414 L 96 421 Q 64 418 32 405 L 32 405 Z M 128 414 Q 127 373 100 346 L 100 346 Q 73 319 32 318 L 32 190 Q 73 189 100 162 Q 127 135 128 94 Q 170 93 211 85 Q 252 77 290 67 Q 291 67 292 66 L 296 65 Q 377 42 448 38 L 448 46 Q 449 87 476 114 Q 503 141 544 142 L 544 270 Q 503 271 476 298 Q 449 325 448 366 Q 406 367 365 375 Q 324 383 286 393 Q 285 393 284 394 L 280 395 Q 199 418 128 422 L 128 414 L 128 414 Z M 544 302 L 544 378 Q 512 369 480 367 L 480 366 Q 481 339 499 321 Q 517 303 544 302 L 544 302 Z M 32 82 Q 64 91 96 94 L 96 94 Q 95 121 77 139 Q 59 157 32 158 L 32 82 L 32 82 Z M 480 39 Q 512 42 544 55 L 544 110 Q 517 109 499 91 Q 481 73 480 46 L 480 39 L 480 39 Z M 32 48 Q 16 42 0 34 L 0 70 L 0 426 Q 72 460 144 453 Q 216 446 288 426 Q 352 408 416 400 Q 480 391 544 412 Q 560 418 576 426 L 576 390 L 576 34 Q 504 0 432 7 Q 360 14 288 34 Q 288 34 288 34 Q 224 52 160 60 Q 96 69 32 48 L 32 48 Z M 400 230 Q 399 179 369 142 L 369 142 Q 339 104 288 102 Q 237 104 207 142 Q 177 179 176 230 Q 177 281 207 318 Q 237 356 288 358 Q 339 356 369 318 Q 399 281 400 230 L 400 230 Z M 288 326 Q 254 325 231 298 L 231 298 Q 209 271 208 230 Q 209 189 231 162 Q 254 135 288 134 Q 322 135 345 162 Q 367 189 368 230 Q 367 271 345 298 Q 322 325 288 326 L 288 326 Z M 272 166 L 256 166 L 256 198 L 272 198 L 272 262 L 264 262 L 248 262 L 248 294 L 264 294 L 272 294 L 304 294 L 312 294 L 328 294 L 328 262 L 312 262 L 304 262 L 304 182 L 304 166 L 288 166 L 272 166 L 272 166 Z"/>
</svg>
