<svg xmlns="http://www.w3.org/2000/svg" viewBox="0 0 512 512">
  <path d="M 227.55555555555554 51.55555555555556 L 217.77777777777777 70.22222222222223 L 227.55555555555554 51.55555555555556 L 217.77777777777777 70.22222222222223 L 152.88888888888889 195.55555555555554 L 152.88888888888889 195.55555555555554 L 359.1111111111111 195.55555555555554 L 359.1111111111111 195.55555555555554 L 294.22222222222223 70.22222222222223 L 294.22222222222223 70.22222222222223 L 284.44444444444446 51.55555555555556 L 284.44444444444446 51.55555555555556 L 321.77777777777777 32 L 321.77777777777777 32 L 331.55555555555554 50.666666666666664 L 331.55555555555554 50.666666666666664 L 407.1111111111111 195.55555555555554 L 407.1111111111111 195.55555555555554 L 512 195.55555555555554 L 512 195.55555555555554 L 512 252.44444444444446 L 512 252.44444444444446 L 483.55555555555554 252.44444444444446 L 483.55555555555554 252.44444444444446 L 426.6666666666667 480 L 426.6666666666667 480 L 85.33333333333333 480 L 85.33333333333333 480 L 28.444444444444443 252.44444444444446 L 28.444444444444443 252.44444444444446 L 0 252.44444444444446 L 0 252.44444444444446 L 0 195.55555555555554 L 0 195.55555555555554 L 104.88888888888889 195.55555555555554 L 104.88888888888889 195.55555555555554 L 180.44444444444446 50.666666666666664 L 180.44444444444446 50.666666666666664 L 190.22222222222223 32 L 190.22222222222223 32 L 227.55555555555554 51.55555555555556 L 227.55555555555554 51.55555555555556 Z M 128 288 Q 147.55555555555554 286.22222222222223 149.33333333333334 266.6666666666667 Q 147.55555555555554 247.11111111111111 128 245.33333333333334 Q 108.44444444444444 247.11111111111111 106.66666666666667 266.6666666666667 Q 108.44444444444444 286.22222222222223 128 288 L 128 288 Z M 405.3333333333333 266.6666666666667 Q 403.55555555555554 247.11111111111111 384 245.33333333333334 Q 364.44444444444446 247.11111111111111 362.6666666666667 266.6666666666667 Q 364.44444444444446 286.22222222222223 384 288 Q 403.55555555555554 286.22222222222223 405.3333333333333 266.6666666666667 L 405.3333333333333 266.6666666666667 Z" />
</svg>