<svg xmlns="http://www.w3.org/2000/svg" viewBox="0 0 512 512">
  <path d="M 170.66666666666666 85.33333333333333 Q 189.33333333333334 85.33333333333333 201.33333333333334 73.33333333333333 L 201.33333333333334 73.33333333333333 L 201.33333333333334 73.33333333333333 Q 213.33333333333334 61.333333333333336 213.33333333333334 42.666666666666664 Q 213.33333333333334 24 201.33333333333334 12 Q 189.33333333333334 0 170.66666666666666 0 Q 152 0 140 12 Q 128 24 128 42.666666666666664 Q 128 61.333333333333336 140 73.33333333333333 Q 152 85.33333333333333 170.66666666666666 85.33333333333333 L 170.66666666666666 85.33333333333333 Z M 170.66666666666666 298.6666666666667 Q 189.33333333333334 298.6666666666667 201.33333333333334 286.6666666666667 L 201.33333333333334 286.6666666666667 L 201.33333333333334 286.6666666666667 Q 213.33333333333334 274.6666666666667 213.33333333333334 256 Q 213.33333333333334 237.33333333333334 201.33333333333334 225.33333333333334 Q 189.33333333333334 213.33333333333334 170.66666666666666 213.33333333333334 Q 152 213.33333333333334 140 225.33333333333334 Q 128 237.33333333333334 128 256 Q 128 274.6666666666667 140 286.6666666666667 Q 152 298.6666666666667 170.66666666666666 298.6666666666667 L 170.66666666666666 298.6666666666667 Z M 213.33333333333334 469.3333333333333 Q 213.33333333333334 450.6666666666667 201.33333333333334 438.6666666666667 L 201.33333333333334 438.6666666666667 L 201.33333333333334 438.6666666666667 Q 189.33333333333334 426.6666666666667 170.66666666666666 426.6666666666667 Q 152 426.6666666666667 140 438.6666666666667 Q 128 450.6666666666667 128 469.3333333333333 Q 128 488 140 500 Q 152 512 170.66666666666666 512 Q 189.33333333333334 512 201.33333333333334 500 Q 213.33333333333334 488 213.33333333333334 469.3333333333333 L 213.33333333333334 469.3333333333333 Z M 341.3333333333333 85.33333333333333 Q 360 85.33333333333333 372 73.33333333333333 L 372 73.33333333333333 L 372 73.33333333333333 Q 384 61.333333333333336 384 42.666666666666664 Q 384 24 372 12 Q 360 0 341.3333333333333 0 Q 322.6666666666667 0 310.6666666666667 12 Q 298.6666666666667 24 298.6666666666667 42.666666666666664 Q 298.6666666666667 61.333333333333336 310.6666666666667 73.33333333333333 Q 322.6666666666667 85.33333333333333 341.3333333333333 85.33333333333333 L 341.3333333333333 85.33333333333333 Z M 384 256 Q 384 237.33333333333334 372 225.33333333333334 L 372 225.33333333333334 L 372 225.33333333333334 Q 360 213.33333333333334 341.3333333333333 213.33333333333334 Q 322.6666666666667 213.33333333333334 310.6666666666667 225.33333333333334 Q 298.6666666666667 237.33333333333334 298.6666666666667 256 Q 298.6666666666667 274.6666666666667 310.6666666666667 286.6666666666667 Q 322.6666666666667 298.6666666666667 341.3333333333333 298.6666666666667 Q 360 298.6666666666667 372 286.6666666666667 Q 384 274.6666666666667 384 256 L 384 256 Z M 341.3333333333333 512 Q 360 512 372 500 L 372 500 L 372 500 Q 384 488 384 469.3333333333333 Q 384 450.6666666666667 372 438.6666666666667 Q 360 426.6666666666667 341.3333333333333 426.6666666666667 Q 322.6666666666667 426.6666666666667 310.6666666666667 438.6666666666667 Q 298.6666666666667 450.6666666666667 298.6666666666667 469.3333333333333 Q 298.6666666666667 488 310.6666666666667 500 Q 322.6666666666667 512 341.3333333333333 512 L 341.3333333333333 512 Z" />
</svg>