<svg viewBox="0 0 576 512">
  <path
    d="M 48 24 L 48 0 L 0 0 L 0 24 L 0 136 L 0 424 L 0 448 L 24 448 L 256 448 L 256 400 L 48 400 L 48 160 L 256 160 L 256 112 L 48 112 L 48 24 L 48 24 Z M 412 80 L 432 80 L 528 80 L 528 176 L 336 176 L 336 48 L 380 48 L 398 66 L 412 80 L 412 80 Z M 528 32 L 432 32 L 400 0 L 336 0 L 288 0 L 288 48 L 288 176 L 288 224 L 336 224 L 528 224 L 576 224 L 576 176 L 576 80 L 576 32 L 528 32 L 528 32 Z M 412 368 L 432 368 L 528 368 L 528 464 L 336 464 L 336 336 L 380 336 L 398 354 L 412 368 L 412 368 Z M 528 320 L 432 320 L 400 288 L 336 288 L 288 288 L 288 336 L 288 464 L 288 512 L 336 512 L 528 512 L 576 512 L 576 464 L 576 368 L 576 320 L 528 320 L 528 320 Z"
  />
</svg>