<svg xmlns="http://www.w3.org/2000/svg" viewBox="0 0 512 512">
  <path d="M 332.8 51.2 L 358.4 51.2 L 332.8 51.2 L 358.4 51.2 L 358.4 85.6 L 358.4 85.6 Q 359.2 138.4 396 176 L 412.8 192.8 L 412.8 192.8 Q 434.4 215.2 435.2 247.2 L 435.2 281.6 L 435.2 281.6 L 409.6 281.6 L 409.6 281.6 L 409.6 247.2 L 409.6 247.2 Q 409.6 226.4 394.4 211.2 L 377.6 194.4 L 377.6 194.4 Q 333.6 148.8 332.8 85.6 L 332.8 51.2 L 332.8 51.2 Z M 512 281.6 L 486.4 281.6 L 512 281.6 L 486.4 281.6 L 486.4 247.2 L 486.4 247.2 Q 485.6 194.4 448.8 156.8 L 432 140 L 432 140 Q 410.4 117.6 409.6 85.6 L 409.6 51.2 L 409.6 51.2 L 435.2 51.2 L 435.2 51.2 L 435.2 85.6 L 435.2 85.6 Q 435.2 106.4 450.4 121.6 L 467.2 138.4 L 467.2 138.4 Q 511.2 184 512 247.2 L 512 281.6 L 512 281.6 Z M 24.8 411.2 Q 0 397.6 0 396.8 Q 0 396 24.8 382.4 Q 52 366.4 104.8 350.4 Q 156.8 334.4 230.4 332.8 L 486.4 332.8 L 512 332.8 L 512 358.4 L 512 358.4 L 512 435.2 L 512 435.2 L 512 460.8 L 512 460.8 L 486.4 460.8 L 230.4 460.8 Q 156.8 459.2 104.8 443.2 Q 52 427.2 24.8 411.2 L 24.8 411.2 Z M 52.8 396.8 Q 61.6 400.8 72 404.8 Q 100 416.8 140 425.6 Q 180 434.4 230.4 435.2 L 258.4 435.2 L 258.4 435.2 L 201.6 366.4 L 201.6 366.4 L 196 360 L 196 360 Q 119.2 368 72 388.8 Q 61.6 392.8 52.8 396.8 L 52.8 396.8 Z M 386.4 435.2 L 329.6 366.4 L 386.4 435.2 L 329.6 366.4 L 322.4 358.4 L 322.4 358.4 L 230.4 358.4 L 228 358.4 L 284.8 427.2 L 284.8 427.2 L 292 435.2 L 292 435.2 L 386.4 435.2 L 386.4 435.2 Z M 412.8 427.2 L 420 435.2 L 412.8 427.2 L 420 435.2 L 486.4 435.2 L 486.4 435.2 L 486.4 358.4 L 486.4 358.4 L 356 358.4 L 356 358.4 L 412.8 427.2 L 412.8 427.2 Z" />
</svg>