<svg xmlns="http://www.w3.org/2000/svg" viewBox="0 0 512 512">
  <path d="M 0 16 L 448 16 L 0 16 L 448 16 L 448 215 L 448 215 Q 414 223 384 238 L 384 96 L 384 96 L 384 80 L 384 80 L 368 80 L 208 80 L 208 96 L 208 96 L 208 195 L 208 195 Q 178 207 176 240 Q 177 260 190 274 Q 204 287 224 288 Q 244 287 258 274 Q 271 260 272 240 Q 270 207 240 195 L 240 112 L 240 112 L 352 112 L 352 112 L 352 257 L 352 257 Q 289 299 254 368 L 96 368 L 96 368 L 96 112 L 96 112 L 144 112 L 160 112 L 160 80 L 160 80 L 144 80 L 64 80 L 64 96 L 64 96 L 64 384 L 64 384 L 64 400 L 64 400 L 80 400 L 240 400 Q 229 431 226 464 L 0 464 L 0 464 L 0 16 L 0 16 Z M 512 288 Q 424 290 365 349 L 365 349 L 365 349 Q 306 408 304 496 L 256 496 L 256 496 Q 257 424 291 367 Q 325 309 383 275 Q 440 241 512 240 L 512 288 L 512 288 Z M 480 432 Q 494 432 503 441 L 503 441 L 503 441 Q 512 450 512 464 Q 512 478 503 487 Q 494 496 480 496 Q 466 496 457 487 Q 448 478 448 464 Q 448 450 457 441 Q 466 432 480 432 L 480 432 Z M 400 496 L 352 496 L 400 496 L 352 496 Q 354 428 399 383 Q 444 338 512 336 L 512 384 L 512 384 Q 464 385 433 417 Q 401 448 400 496 L 400 496 Z" />
</svg>