<svg xmlns="http://www.w3.org/2000/svg" viewBox="0 0 512 512">
  <path d="M 164.22641509433961 49.911949685534594 L 151.34591194968553 49.911949685534594 L 164.22641509433961 49.911949685534594 L 151.34591194968553 49.911949685534594 L 151.34591194968553 62.79245283018868 L 151.34591194968553 62.79245283018868 L 151.34591194968553 78.0880503144654 L 151.34591194968553 78.0880503144654 Q 94.99371069182389 88.55345911949685 59.57232704402516 129.61006289308176 Q 23.345911949685533 171.47169811320754 22.540880503144653 230.23899371069183 L 22.540880503144653 262.44025157232704 L 22.540880503144653 262.44025157232704 L 22.540880503144653 262.44025157232704 L 22.540880503144653 262.44025157232704 L 22.540880503144653 309.1320754716981 L 22.540880503144653 309.1320754716981 L 0 338.1132075471698 L 0 338.1132075471698 L 20.12578616352201 354.2138364779874 L 20.12578616352201 354.2138364779874 L 45.886792452830186 322.0125786163522 L 45.886792452830186 322.0125786163522 L 48.301886792452834 318.79245283018867 L 48.301886792452834 318.79245283018867 L 48.301886792452834 313.9622641509434 L 48.301886792452834 313.9622641509434 L 48.301886792452834 262.44025157232704 L 48.301886792452834 262.44025157232704 L 48.301886792452834 262.44025157232704 L 48.301886792452834 262.44025157232704 L 48.301886792452834 230.23899371069183 L 48.301886792452834 230.23899371069183 Q 49.106918238993714 182.74213836477986 78.0880503144654 148.125786163522 Q 106.26415094339623 113.50943396226415 151.34591194968553 103.84905660377359 L 151.34591194968553 140.0754716981132 L 151.34591194968553 140.0754716981132 Q 152.1509433962264 175.49685534591194 175.49685534591194 201.25786163522014 Q 198.03773584905662 226.21383647798743 234.26415094339623 229.43396226415095 L 240.70440251572327 230.23899371069183 L 240.70440251572327 230.23899371069183 L 242.31446540880503 204.47798742138366 L 242.31446540880503 204.47798742138366 L 235.874213836478 203.67295597484278 L 235.874213836478 203.67295597484278 Q 210.9182389937107 201.25786163522014 194.01257861635222 183.54716981132074 Q 177.91194968553458 165.83647798742138 177.1069182389937 140.0754716981132 L 177.1069182389937 75.67295597484276 L 177.1069182389937 75.67295597484276 L 241.50943396226415 75.67295597484276 L 241.50943396226415 75.67295597484276 Q 267.2704402515723 76.47798742138365 284.9811320754717 92.57861635220125 Q 302.69182389937106 109.48427672955975 305.1069182389937 134.44025157232704 L 305.9119496855346 140.88050314465409 L 305.9119496855346 140.88050314465409 L 331.67295597484275 139.27044025157232 L 331.67295597484275 139.27044025157232 L 330.8679245283019 132.83018867924528 L 330.8679245283019 132.83018867924528 Q 330.062893081761 116.72955974842768 323.62264150943395 103.04402515723271 Q 360.65408805031444 110.28930817610063 384.8050314465409 137.66037735849056 Q 408.1509433962264 165.83647798742138 408.9559748427673 204.47798742138366 L 408.9559748427673 307.52201257861634 L 408.9559748427673 307.52201257861634 Q 424.251572327044 305.9119496855346 434.7169811320755 301.0817610062893 L 434.7169811320755 204.47798742138366 L 434.7169811320755 204.47798742138366 Q 433.1069182389937 149.73584905660377 396.8805031446541 113.50943396226415 Q 360.65408805031444 77.28301886792453 305.9119496855346 75.67295597484276 L 304.3018867924528 75.67295597484276 L 304.3018867924528 75.67295597484276 Q 278.54088050314465 50.716981132075475 241.50943396226415 49.911949685534594 L 164.22641509433961 49.911949685534594 L 164.22641509433961 49.911949685534594 Z M 402.5157232704403 359.0440251572327 Q 449.20754716981133 359.8490566037736 482.2138364779874 329.25786163522014 L 464.50314465408803 311.54716981132077 L 464.50314465408803 311.54716981132077 Q 441.15723270440253 333.2830188679245 402.5157232704403 333.2830188679245 Q 378.3647798742138 333.2830188679245 363.0691823899371 323.62264150943395 Q 347.77358490566036 314.7672955974843 329.25786163522014 287.39622641509436 L 305.9119496855346 294.64150943396226 L 305.9119496855346 294.64150943396226 L 305.9119496855346 436.32704402515725 L 305.9119496855346 436.32704402515725 L 254.38993710691824 436.32704402515725 L 254.38993710691824 436.32704402515725 L 254.38993710691824 355.82389937106916 L 254.38993710691824 355.82389937106916 L 254.38993710691824 330.8679245283019 L 254.38993710691824 330.8679245283019 L 234.26415094339623 345.35849056603774 L 234.26415094339623 345.35849056603774 Q 214.9433962264151 359.0440251572327 189.98742138364778 359.0440251572327 Q 165.0314465408805 359.0440251572327 145.71069182389937 345.35849056603774 L 125.58490566037736 330.8679245283019 L 125.58490566037736 330.8679245283019 L 125.58490566037736 355.82389937106916 L 125.58490566037736 355.82389937106916 L 125.58490566037736 436.32704402515725 L 125.58490566037736 436.32704402515725 L 74.062893081761 436.32704402515725 L 74.062893081761 436.32704402515725 L 74.062893081761 346.1635220125786 L 74.062893081761 346.1635220125786 L 74.062893081761 333.2830188679245 L 74.062893081761 333.2830188679245 L 48.301886792452834 333.2830188679245 L 48.301886792452834 333.2830188679245 L 48.301886792452834 346.1635220125786 L 48.301886792452834 346.1635220125786 L 48.301886792452834 449.20754716981133 L 48.301886792452834 449.20754716981133 L 48.301886792452834 462.0880503144654 L 48.301886792452834 462.0880503144654 L 61.18238993710692 462.0880503144654 L 151.34591194968553 462.0880503144654 L 151.34591194968553 449.20754716981133 L 151.34591194968553 449.20754716981133 L 151.34591194968553 377.55974842767296 L 151.34591194968553 377.55974842767296 Q 169.0566037735849 384.8050314465409 189.98742138364778 384.8050314465409 Q 210.9182389937107 384.8050314465409 228.62893081761007 377.55974842767296 L 228.62893081761007 449.20754716981133 L 228.62893081761007 449.20754716981133 L 228.62893081761007 462.0880503144654 L 228.62893081761007 462.0880503144654 L 241.50943396226415 462.0880503144654 L 331.67295597484275 462.0880503144654 L 331.67295597484275 449.20754716981133 L 331.67295597484275 449.20754716981133 L 331.67295597484275 331.67295597484275 L 331.67295597484275 331.67295597484275 Q 340.52830188679246 339.72327044025155 350.188679245283 346.1635220125786 Q 353.40880503144655 347.77358490566036 357.4339622641509 350.188679245283 L 357.4339622641509 358.23899371069183 L 357.4339622641509 358.23899371069183 Q 358.23899371069183 391.24528301886795 379.97484276729557 413.7861635220126 Q 402.5157232704403 435.52201257861634 435.52201257861634 436.32704402515725 Q 462.8930817610063 435.52201257861634 483.82389937106916 420.22641509433964 Q 503.9496855345912 404.12578616352204 511.1949685534591 377.55974842767296 L 512 375.1446540880503 L 512 375.1446540880503 L 487.0440251572327 368.70440251572325 L 487.0440251572327 368.70440251572325 L 486.23899371069183 371.1194968553459 L 486.23899371069183 371.1194968553459 Q 481.40880503144655 388.8301886792453 467.72327044025155 399.29559748427675 Q 454.0377358490566 410.5660377358491 435.52201257861634 410.5660377358491 Q 412.9811320754717 409.76100628930817 398.49056603773585 395.2704402515723 Q 384 380.7798742138365 383.1949685534591 358.23899371069183 L 383.1949685534591 357.4339622641509 L 383.1949685534591 357.4339622641509 Q 392.0503144654088 359.0440251572327 402.5157232704403 359.0440251572327 L 402.5157232704403 359.0440251572327 Z M 383.1949685534591 217.35849056603774 Q 382.38993710691824 205.28301886792454 370.314465408805 204.47798742138366 Q 358.23899371069183 205.28301886792454 357.4339622641509 217.35849056603774 Q 358.23899371069183 229.43396226415095 370.314465408805 230.23899371069183 Q 382.38993710691824 229.43396226415095 383.1949685534591 217.35849056603774 L 383.1949685534591 217.35849056603774 Z" />
</svg>