<svg viewBox="0 0 645 512">
  <path
    d="M 483 0 Q 577 2 611 16 L 611 16 Q 645 30 643 32 L 643 128 L 515 416 L 451 416 L 323 128 L 323 32 Q 321 30 355 16 Q 389 2 483 0 L 483 0 Z M 611 50 Q 607 48 601 46 Q 573 34 483 32 Q 393 34 365 46 Q 359 48 355 50 L 355 121 L 355 122 Q 358 121 361 120 L 363 136 Q 361 125 361 122 Q 361 120 361 120 L 361 120 L 361 120 L 361 120 L 361 120 L 361 120 L 363 120 Q 366 120 370 119 Q 380 118 397 116 Q 431 113 483 112 Q 535 112 569 116 Q 586 118 596 119 Q 600 120 603 120 L 605 120 L 605 120 L 605 120 L 605 120 L 605 120 L 605 120 Q 605 120 605 122 Q 605 125 603 136 L 605 120 Q 608 121 611 122 L 611 121 L 611 50 L 611 50 Z M 368 151 L 409 243 Q 441 240 483 240 Q 525 240 557 243 L 598 151 Q 597 151 596 151 Q 594 151 592 151 Q 583 149 566 148 Q 533 144 483 144 Q 433 145 400 148 Q 383 149 374 151 Q 372 151 370 151 Q 369 151 368 151 L 368 151 Z M 472 384 L 494 384 L 543 274 Q 516 272 483 272 Q 450 272 423 274 L 472 384 L 472 384 Z M 94 195 Q 161 130 195 116 L 195 116 Q 229 102 229 105 L 229 105 Q 229 105 229 105 L 297 173 L 410 467 L 365 512 L 71 399 L 3 331 Q 0 331 14 297 Q 28 263 94 195 L 94 195 Z M 220 140 Q 215 142 210 145 Q 181 156 116 218 Q 54 283 43 311 Q 40 317 39 321 Q 38 321 38 321 L 89 372 Q 90 370 95 363 Q 97 360 98 359 Q 98 359 98 359 Q 104 351 114 338 Q 136 312 173 275 Q 210 238 236 216 Q 249 206 257 200 Q 259 198 261 197 Q 262 196 263 195 L 264 194 L 265 194 L 265 194 L 265 194 Q 267 192 270 191 L 269 191 L 219 140 L 220 140 Z M 265 194 L 275 206 Q 268 197 266 195 Q 265 193 265 194 L 265 194 Z M 120 383 L 213 419 Q 233 395 263 365 Q 293 335 318 315 L 282 221 Q 280 222 277 225 Q 270 230 257 241 Q 231 262 195 297 Q 160 333 139 359 Q 129 371 123 378 Q 122 380 121 381 Q 120 382 120 383 L 120 383 Z M 357 475 L 373 459 L 330 347 Q 309 364 286 388 Q 262 411 245 431 L 357 475 L 357 475 Z"
  />
</svg>