<svg xmlns="http://www.w3.org/2000/svg" viewBox="0 0 512 448">
    <path d="M 64 0 L 64 32 L 64 384 L 480 384 L 512 384 L 512 448 L 480 448 L 32 448 L 0 448 L 0 416 L 0 32 L 0 0 L 64 0 L 64 0 Z M 128 64 L 160 64 L 352 64 L 384 64 L 384 128 L 352 128 L 160 128 L 128 128 L 128 64 L 128 64 Z M 160 160 L 288 160 L 320 160 L 320 224 L 288 224 L 160 224 L 128 224 L 128 160 L 160 160 L 160 160 Z M 160 256 L 416 256 L 448 256 L 448 320 L 416 320 L 160 320 L 128 320 L 128 256 L 160 256 L 160 256 Z"/>
</svg>
