<svg xmlns="http://www.w3.org/2000/svg" viewBox="0 0 512 512">
  <path d="M 32 480 L 320 480 L 32 480 L 320 480 L 320 384 L 320 384 L 352 384 L 352 384 L 352 480 L 352 480 L 352 512 L 352 512 L 320 512 L 0 512 L 0 480 L 0 480 L 0 192 L 0 192 L 0 160 L 0 160 L 32 160 L 128 160 L 128 192 L 128 192 L 32 192 L 32 192 L 32 480 L 32 480 Z M 192 320 L 480 320 L 192 320 L 480 320 L 480 32 L 480 32 L 192 32 L 192 32 L 192 320 L 192 320 Z M 160 352 L 160 320 L 160 352 L 160 320 L 160 32 L 160 32 L 160 0 L 160 0 L 192 0 L 512 0 L 512 32 L 512 32 L 512 320 L 512 320 L 512 352 L 512 352 L 480 352 L 160 352 Z" />
</svg>