<svg xmlns="http://www.w3.org/2000/svg" viewBox="0 0 512 512">
  <path d="M 176 32 L 176 0 L 176 32 L 176 0 L 112 0 L 112 0 L 112 32 L 112 32 L 112 64 L 112 64 L 112 80 L 112 80 L 112 128 L 112 128 L 64 256 L 64 256 L 64 512 L 64 512 L 448 512 L 448 512 L 448 256 L 448 256 L 400 128 L 400 128 L 400 80 L 400 80 L 400 64 L 400 64 L 400 32 L 400 32 L 400 0 L 400 0 L 336 0 L 336 0 L 336 32 L 336 32 L 336 80 L 336 80 Q 335 114 313 137 Q 290 159 256 160 Q 222 159 199 137 Q 177 114 176 80 L 176 32 L 176 32 Z" />
</svg>