<svg xmlns="http://www.w3.org/2000/svg" viewBox="0 0 512 512">
  <path d="M 32 32 L 0 32 L 32 32 L 0 32 L 0 64 L 0 64 L 0 448 L 0 448 L 0 480 L 0 480 L 64 480 L 64 480 L 64 448 L 64 448 L 64 96 L 64 96 L 115 96 L 115 96 L 141 123 L 141 123 Q 126 153 128 185 Q 131 218 152 246 L 151 247 L 151 247 L 134 264 L 134 264 L 168 298 L 168 298 L 185 281 L 185 281 L 345 121 L 345 121 L 362 104 L 362 104 L 328 70 L 328 70 L 311 87 L 311 87 L 310 88 L 310 88 Q 282 67 249 64 Q 217 62 187 77 L 151 41 L 151 41 L 141 32 L 141 32 L 128 32 L 32 32 Z M 256 352 Q 270 352 279 343 L 279 343 L 279 343 Q 288 334 288 320 Q 288 306 279 297 Q 270 288 256 288 Q 242 288 233 297 Q 224 306 224 320 Q 224 334 233 343 Q 242 352 256 352 L 256 352 Z M 320 416 Q 320 402 311 393 L 311 393 L 311 393 Q 302 384 288 384 Q 274 384 265 393 Q 256 402 256 416 Q 256 430 265 439 Q 274 448 288 448 Q 302 448 311 439 Q 320 430 320 416 L 320 416 Z M 320 288 Q 334 288 343 279 L 343 279 L 343 279 Q 352 270 352 256 Q 352 242 343 233 Q 334 224 320 224 Q 306 224 297 233 Q 288 242 288 256 Q 288 270 297 279 Q 306 288 320 288 L 320 288 Z M 384 352 Q 384 338 375 329 L 375 329 L 375 329 Q 366 320 352 320 Q 338 320 329 329 Q 320 338 320 352 Q 320 366 329 375 Q 338 384 352 384 Q 366 384 375 375 Q 384 366 384 352 L 384 352 Z M 384 224 Q 398 224 407 215 L 407 215 L 407 215 Q 416 206 416 192 Q 416 178 407 169 Q 398 160 384 160 Q 370 160 361 169 Q 352 178 352 192 Q 352 206 361 215 Q 370 224 384 224 L 384 224 Z M 448 288 Q 448 274 439 265 L 439 265 L 439 265 Q 430 256 416 256 Q 402 256 393 265 Q 384 274 384 288 Q 384 302 393 311 Q 402 320 416 320 Q 430 320 439 311 Q 448 302 448 288 L 448 288 Z M 480 256 Q 494 256 503 247 L 503 247 L 503 247 Q 512 238 512 224 Q 512 210 503 201 Q 494 192 480 192 Q 466 192 457 201 Q 448 210 448 224 Q 448 238 457 247 Q 466 256 480 256 L 480 256 Z" />
</svg>