<svg xmlns="http://www.w3.org/2000/svg" viewBox="0 0 512 512">
  <path d="M 288 352 L 288 304 L 288 352 L 288 304 L 288 48 L 288 48 L 224 48 L 224 48 L 224 304 L 224 304 L 224 352 L 224 352 L 176 352 L 164 352 L 256 444 L 256 444 L 348 352 L 348 352 L 336 352 L 288 352 Z M 290 478 L 256 512 L 290 478 L 256 512 L 222 478 L 222 478 L 96 352 L 96 352 L 96 304 L 96 304 L 128 304 L 176 304 L 176 256 L 176 256 L 176 48 L 176 48 L 176 0 L 176 0 L 224 0 L 336 0 L 336 48 L 336 48 L 336 256 L 336 256 L 336 304 L 336 304 L 368 304 L 416 304 L 416 352 L 416 352 L 290 478 L 290 478 Z" />
</svg>