<svg xmlns="http://www.w3.org/2000/svg" viewBox="0 0 512 512">
  <path d="M 160 96 Q 161 55 188 28 L 188 28 L 188 28 Q 215 1 256 0 Q 297 1 324 28 Q 351 55 352 96 L 352 352 L 352 352 L 416 352 L 416 352 L 416 272 L 416 272 L 416 224 L 416 224 L 512 224 L 512 224 L 512 272 L 512 272 L 512 400 L 512 400 L 512 448 L 512 448 L 464 448 L 352 448 L 352 512 L 352 512 L 160 512 L 160 512 L 160 320 L 160 320 L 48 320 L 0 320 L 0 272 L 0 272 L 0 144 L 0 144 L 0 96 L 0 96 L 96 96 L 96 96 L 96 144 L 96 144 L 96 224 L 96 224 L 160 224 L 160 224 L 160 96 L 160 96 Z M 240 160 Q 239 145 224 144 Q 209 145 208 160 Q 209 175 224 176 Q 239 175 240 160 L 240 160 Z M 288 400 Q 303 399 304 384 Q 303 369 288 368 Q 273 369 272 384 Q 273 399 288 400 L 288 400 Z" />
</svg>