<svg xmlns="http://www.w3.org/2000/svg" viewBox="0 0 512 512">
  <path d="M 376 80 Q 398 78 400 56 Q 398 34 376 32 Q 354 34 352 56 Q 354 78 376 80 L 376 80 Z M 376 0 Q 408 1 424 28 Q 440 56 424 84 Q 408 111 376 112 Q 344 111 328 84 Q 312 56 328 28 Q 344 1 376 0 L 376 0 Z M 217 112 L 224 112 L 217 112 L 274 112 L 276 113 L 276 113 L 388 145 L 388 145 L 397 147 L 397 147 L 399 156 L 399 156 L 428 256 L 428 256 L 496 256 L 512 256 L 512 288 L 512 288 L 496 288 L 404 288 L 401 276 L 401 276 L 380 206 L 380 206 L 343 317 L 343 317 Q 343 317 343 318 Q 343 318 343 318 L 392 346 L 392 346 L 404 353 L 404 353 L 399 365 L 399 365 L 347 512 L 347 512 L 313 512 L 313 512 L 365 367 L 365 367 L 271 315 L 271 315 Q 256 306 250 290 Q 244 275 249 258 L 286 149 L 286 149 L 270 144 L 270 144 L 231 144 L 231 144 L 171 203 L 171 203 L 171 203 L 171 203 L 149 181 L 149 181 L 149 181 L 149 181 L 213 117 L 213 117 L 217 112 L 217 112 Z M 316 157 L 280 268 L 316 157 L 280 268 Q 276 280 287 287 L 314 302 L 314 302 L 359 169 L 359 169 L 316 157 L 316 157 Z M 226 314 Q 235 329 250 340 L 223 406 L 223 406 L 219 416 L 219 416 L 208 416 L 96 416 L 96 384 L 96 384 L 112 384 L 197 384 L 226 314 L 226 314 Z M 16 96 L 144 96 L 16 96 L 160 96 L 160 128 L 160 128 L 144 128 L 0 128 L 0 96 L 0 96 L 16 96 L 16 96 Z M 0 160 L 16 160 L 0 160 L 96 160 L 96 192 L 96 192 L 80 192 L 0 192 L 0 160 L 0 160 Z M 16 224 L 144 224 L 16 224 L 160 224 L 160 256 L 160 256 L 144 256 L 0 256 L 0 224 L 0 224 L 16 224 L 16 224 Z" />
</svg>