<svg xmlns="http://www.w3.org/2000/svg" viewBox="0 0 512 512">
  <path d="M 38.4 63.2 L 23.2 51.2 L 38.4 63.2 L 23.2 51.2 L 0 81.6 L 0 81.6 L 15.2 93.6 L 15.2 93.6 L 473.6 448.8 L 473.6 448.8 L 488.8 460.8 L 488.8 460.8 L 512 430.4 L 512 430.4 L 496.8 418.4 L 496.8 418.4 L 460.8 390.4 L 460.8 390.4 L 460.8 115.2 L 460.8 115.2 L 460.8 76.8 L 460.8 76.8 L 422.4 76.8 L 56.8 76.8 L 38.4 63.2 L 38.4 63.2 Z M 105.6 115.2 L 422.4 115.2 L 105.6 115.2 L 422.4 115.2 L 422.4 360.8 L 422.4 360.8 L 368.8 319.2 L 368.8 319.2 L 309.6 238.4 L 309.6 238.4 L 294.4 216.8 L 294.4 216.8 L 279.2 238.4 L 279.2 238.4 L 273.6 245.6 L 273.6 245.6 L 204.8 192 L 204.8 192 Q 204 176 193.6 164.8 Q 182.4 154.4 166.4 153.6 Q 161.6 153.6 156.8 155.2 L 105.6 115.2 L 105.6 115.2 Z M 389.6 435.2 L 228.8 308 L 389.6 435.2 L 228.8 308 L 206.4 339.2 L 206.4 339.2 L 180 312.8 L 180 312.8 L 165.6 298.4 L 165.6 298.4 L 152 313.6 L 152 313.6 L 94.4 377.6 L 94.4 377.6 L 89.6 383.2 L 89.6 383.2 L 89.6 198.4 L 89.6 198.4 L 51.2 168 L 51.2 168 L 51.2 396.8 L 51.2 396.8 L 51.2 435.2 L 51.2 435.2 L 89.6 435.2 L 389.6 435.2 Z" />
</svg>