<svg xmlns="http://www.w3.org/2000/svg" viewBox="0 0 640 481">
    <path d="M 32 1 L 0 1 L 0 17 L 0 161 Q 1 181 14 195 Q 28 208 48 209 L 64 209 L 64 465 L 64 481 L 96 481 L 96 465 L 96 209 L 112 209 Q 132 208 146 195 Q 159 181 160 161 L 160 17 L 160 1 L 128 1 L 128 17 L 128 161 Q 127 176 112 177 L 96 177 L 96 17 L 96 1 L 64 1 L 64 17 L 64 177 L 48 177 Q 33 176 32 161 L 32 17 L 32 1 L 32 1 Z M 640 1 Q 638 0 608 9 Q 577 19 546 50 Q 514 81 512 145 L 512 273 L 512 305 L 544 305 L 608 305 L 608 465 L 608 481 L 640 481 L 640 465 L 640 305 L 640 289 L 640 273 L 640 34 L 640 1 L 640 1 Z M 608 273 L 544 273 L 544 145 Q 545 107 559 85 Q 574 63 593 52 Q 601 47 608 44 L 608 273 L 608 273 Z M 498 64 Q 432 3 336 1 Q 254 2 192 49 L 192 91 Q 250 35 336 33 Q 380 33 419 50 Q 457 67 486 97 Q 490 79 498 64 L 498 64 Z M 521 337 Q 494 388 445 418 L 445 418 Q 397 448 336 449 Q 277 448 229 420 Q 182 391 154 343 L 131 366 Q 163 418 217 449 Q 270 480 336 481 Q 411 480 469 441 Q 527 402 556 337 L 544 337 L 521 337 L 521 337 Z M 480 241 Q 480 202 461 169 L 461 169 Q 442 136 408 116 Q 374 97 336 97 Q 298 97 264 116 Q 230 136 211 169 Q 192 202 192 241 Q 192 280 211 313 Q 230 346 264 366 Q 298 385 336 385 Q 374 385 408 366 Q 442 346 461 313 Q 480 280 480 241 L 480 241 Z M 224 241 Q 224 211 239 185 L 239 185 Q 254 159 280 144 Q 306 129 336 129 Q 366 129 392 144 Q 418 159 433 185 Q 448 211 448 241 Q 448 271 433 297 Q 418 323 392 338 Q 366 353 336 353 Q 306 353 280 338 Q 254 323 239 297 Q 224 271 224 241 L 224 241 Z"/>
</svg>
