<svg xmlns="http://www.w3.org/2000/svg" viewBox="0 0 512 512">
  <path d="M 312.8889 28.444445 Q 409.77777 30.222221 479.1111 89.77778 L 458.66666 110.22222 L 458.66666 110.22222 Q 398.22223 58.666668 312.8889 56.88889 Q 227.55556 58.666668 167.11111 110.22222 L 146.66667 89.77778 L 146.66667 89.77778 Q 216 30.222221 312.8889 28.444445 L 312.8889 28.444445 Z M 312.8889 113.77778 Q 374.22223 114.666664 418.66666 150.22223 L 398.22223 170.66667 L 398.22223 170.66667 Q 361.77777 143.11111 312.8889 142.22223 Q 264 143.11111 227.55556 170.66667 L 207.11111 150.22223 L 207.11111 150.22223 Q 251.55556 114.666664 312.8889 113.77778 L 312.8889 113.77778 Z M 327.1111 227.55556 L 327.1111 241.77777 L 327.1111 227.55556 L 327.1111 241.77777 L 327.1111 312.8889 L 327.1111 312.8889 L 483.55554 312.8889 L 512 312.8889 L 512 341.33334 L 512 341.33334 L 512 455.1111 L 512 455.1111 L 512 483.55554 L 512 483.55554 L 483.55554 483.55554 L 0 483.55554 L 0 455.1111 L 0 455.1111 L 0 341.33334 L 0 341.33334 L 0 312.8889 L 0 312.8889 L 28.444445 312.8889 L 298.66666 312.8889 L 298.66666 241.77777 L 298.66666 241.77777 L 298.66666 227.55556 L 298.66666 227.55556 L 327.1111 227.55556 L 327.1111 227.55556 Z M 483.55554 341.33334 L 28.444445 341.33334 L 483.55554 341.33334 L 28.444445 341.33334 L 28.444445 455.1111 L 28.444445 455.1111 L 483.55554 455.1111 L 483.55554 455.1111 L 483.55554 341.33334 L 483.55554 341.33334 Z M 142.22223 376.8889 L 184.88889 376.8889 L 142.22223 376.8889 L 184.88889 376.8889 L 184.88889 419.55554 L 184.88889 419.55554 L 142.22223 419.55554 L 142.22223 419.55554 L 142.22223 376.8889 L 142.22223 376.8889 Z M 113.77778 376.8889 L 113.77778 419.55554 L 113.77778 376.8889 L 113.77778 419.55554 L 71.111115 419.55554 L 71.111115 419.55554 L 71.111115 376.8889 L 71.111115 376.8889 L 113.77778 376.8889 L 113.77778 376.8889 Z" />
</svg>