<svg xmlns="http://www.w3.org/2000/svg" viewBox="0 0 512 512">
  <path d="M 384 102.4 L 217.6 102.4 L 384 102.4 L 115.2 102.4 Q 74.4 103.2 47.2 130.4 Q 20 157.6 19.2 198.4 L 19.2 241.6 L 19.2 241.6 Q 0.8 256.8 0 281.6 L 0 307.2 L 0 307.2 L 6.4 307.2 L 6.4 307.2 Q 28 306.4 42.4 292 Q 56.8 277.6 57.6 256 L 57.6 230.4 L 57.6 230.4 L 57.6 198.4 L 57.6 198.4 Q 58.4 172 76.8 155.2 L 76.8 204.8 L 76.8 204.8 L 76.8 256 L 76.8 256 L 76.8 409.6 L 76.8 409.6 L 153.6 409.6 L 153.6 409.6 L 153.6 313.6 L 153.6 313.6 Q 165.6 321.6 179.2 326.4 L 179.2 345.6 L 179.2 345.6 L 179.2 358.4 L 179.2 358.4 L 204.8 358.4 L 204.8 358.4 L 204.8 345.6 L 204.8 345.6 L 204.8 332 L 204.8 332 Q 211.2 332.8 217.6 332.8 Q 224 332.8 230.4 332 L 230.4 345.6 L 230.4 345.6 L 230.4 358.4 L 230.4 358.4 L 256 358.4 L 256 358.4 L 256 345.6 L 256 345.6 L 256 326.4 L 256 326.4 Q 269.6 321.6 281.6 313.6 L 281.6 409.6 L 281.6 409.6 L 358.4 409.6 L 358.4 409.6 L 358.4 256 L 358.4 256 L 384 281.6 L 384 281.6 L 384 332.8 L 384 332.8 L 435.2 409.6 L 435.2 409.6 L 486.4 409.6 L 486.4 409.6 L 512 281.6 L 512 281.6 L 499.2 264 L 499.2 264 L 499.2 198.4 L 499.2 198.4 L 499.2 179.2 L 499.2 179.2 L 460.8 179.2 L 460.8 179.2 L 460.8 198.4 L 460.8 198.4 L 460.8 209.6 L 460.8 209.6 L 384 102.4 L 384 102.4 Z M 448 320 Q 448.8 308 460.8 307.2 Q 472.8 308 473.6 320 Q 472.8 332 460.8 332.8 Q 448.8 332 448 320 L 448 320 Z M 128 153.6 L 307.2 153.6 L 128 153.6 L 307.2 153.6 L 307.2 179.2 L 307.2 179.2 L 283.2 203.2 L 283.2 203.2 Q 256 229.6 217.6 230.4 Q 179.2 229.6 152 203.2 L 128 179.2 L 128 179.2 L 128 153.6 L 128 153.6 Z" />
</svg>