<svg xmlns="http://www.w3.org/2000/svg" viewBox="0 0 512 512">
  <path d="M 256 176 Q 297 175 318 140 Q 338 104 318 68 Q 297 33 256 32 Q 215 33 194 68 Q 174 104 194 140 Q 215 175 256 176 L 256 176 Z M 256 208 Q 228 208 205 195 L 205 195 L 205 195 Q 182 182 168 160 L 102 160 L 102 160 L 109 171 L 109 171 L 98 180 L 98 180 L 84 192 L 84 192 L 98 204 L 98 204 L 109 213 L 109 213 L 102 224 L 102 224 L 176 224 L 196 224 L 192 243 L 192 243 L 167 369 L 167 369 L 192 354 L 192 354 L 200 350 L 200 350 L 208 354 L 208 354 L 256 382 L 256 382 L 304 354 L 304 354 L 312 350 L 312 350 L 320 354 L 320 354 L 345 369 L 345 369 L 320 243 L 320 243 L 317 224 L 317 224 L 336 224 L 410 224 L 403 213 L 403 213 L 414 204 L 414 204 L 428 192 L 428 192 L 414 180 L 414 180 L 403 171 L 403 171 L 410 160 L 410 160 L 344 160 L 344 160 Q 330 182 307 195 Q 284 208 256 208 L 256 208 Z M 360 104 Q 360 116 357 128 L 440 128 L 470 128 L 453 153 L 453 153 L 445 165 L 445 165 L 463 180 L 463 180 L 478 192 L 478 192 L 463 204 L 463 204 L 445 219 L 445 219 L 453 231 L 453 231 L 470 256 L 470 256 L 440 256 L 356 256 L 384 397 L 384 397 L 391 431 L 391 431 L 360 414 L 360 414 L 312 386 L 312 386 L 264 414 L 264 414 L 256 418 L 256 418 L 248 414 L 248 414 L 200 386 L 200 386 L 152 414 L 152 414 L 121 431 L 121 431 L 128 397 L 128 397 L 157 256 L 157 256 L 72 256 L 42 256 L 59 231 L 59 231 L 67 219 L 67 219 L 49 204 L 49 204 L 34 192 L 34 192 L 49 180 L 49 180 L 67 165 L 67 165 L 59 153 L 59 153 L 42 128 L 42 128 L 72 128 L 155 128 Q 152 116 152 104 Q 153 60 182 30 Q 212 1 256 0 Q 300 1 330 30 Q 359 60 360 104 L 360 104 Z M 240 496 L 240 446 L 240 496 L 240 446 L 256 455 L 256 455 L 272 446 L 272 446 L 272 496 L 272 496 L 272 512 L 272 512 L 240 512 L 240 512 L 240 496 L 240 496 Z M 208 88 Q 209 73 224 72 Q 239 73 240 88 Q 239 103 224 104 Q 209 103 208 88 L 208 88 Z M 288 88 Q 303 89 304 104 Q 303 119 288 120 Q 273 119 272 104 Q 273 89 288 88 L 288 88 Z" />
</svg>