<svg xmlns="http://www.w3.org/2000/svg" viewBox="0 0 639 512">
    <path d="M 256 32 L 256 0 L 192 0 L 192 32 L 192 62 L 183 54 L 166 37 L 132 70 L 149 87 L 192 130 L 192 201 L 131 165 L 115 107 L 109 84 L 63 96 L 69 120 L 72 131 L 60 124 L 32 108 L 0 164 L 28 180 L 40 187 L 28 190 L 5 196 L 18 243 L 41 236 L 99 221 L 160 256 L 99 291 L 41 276 L 18 270 L 5 316 L 28 322 L 40 325 L 28 332 L 0 348 L 32 404 L 60 388 L 72 381 L 69 392 L 63 416 L 109 428 L 115 405 L 131 347 L 192 311 L 192 382 L 149 425 L 132 442 L 166 476 L 183 459 L 192 450 L 192 480 L 192 512 L 256 512 L 256 480 L 256 450 L 265 459 L 282 476 L 315 442 L 298 425 L 256 382 L 256 311 L 317 347 L 333 405 L 339 428 L 385 416 L 379 393 L 376 381 L 388 388 L 416 404 L 448 348 L 420 332 L 408 325 L 420 322 L 443 316 L 431 270 L 407 276 L 349 291 L 288 256 L 349 221 L 407 236 L 431 243 L 443 196 L 420 190 L 408 187 L 420 180 L 448 164 L 416 108 L 388 124 L 376 131 L 379 120 L 385 96 L 339 84 L 333 107 L 317 165 L 256 201 L 256 130 L 299 87 L 316 70 L 282 37 L 265 54 L 256 62 L 256 32 L 256 32 Z M 510 64 L 482 92 L 516 126 L 544 98 L 572 126 L 606 92 L 578 64 L 606 36 L 572 2 L 544 30 L 516 2 L 482 36 L 510 64 L 510 64 Z M 547 193 L 513 227 L 530 244 L 542 256 L 530 268 L 513 285 L 547 319 L 564 302 L 576 290 L 588 302 L 605 319 L 639 285 L 622 268 L 610 256 L 622 244 L 639 227 L 605 193 L 588 210 L 576 222 L 564 210 L 547 193 L 547 193 Z"/>
</svg>
