<svg xmlns="http://www.w3.org/2000/svg" viewBox="0 0 512 512">
  <path d="M 270.22223 99.55556 Q 212.44444 101.333336 175.11111 139.55556 L 175.11111 139.55556 L 175.11111 139.55556 Q 136.88889 176.88889 135.11111 234.66667 Q 134.22223 280 104 310.22223 Q 73.77778 340.44446 28.444445 341.33334 L 7.111111 341.33334 L 7.111111 341.33334 L 7.111111 298.66666 L 7.111111 298.66666 L 28.444445 298.66666 L 28.444445 298.66666 Q 56 297.77777 73.77778 280 Q 91.55556 262.22223 92.44444 234.66667 Q 94.22222 159.11111 144.88889 109.333336 Q 194.66667 58.666668 270.22223 56.88889 Q 315.55554 56.88889 353.77777 77.333336 Q 391.1111 97.77778 416 132.44444 L 389.33334 164.44444 L 389.33334 164.44444 Q 373.33334 156.44444 355.55554 156.44444 Q 322.66666 157.33333 300.44446 179.55556 Q 278.22223 201.77777 277.33334 234.66667 Q 278.22223 262.22223 296 280 Q 313.77777 297.77777 341.33334 298.66666 L 341.33334 298.66666 L 341.33334 298.66666 Q 368.8889 296.8889 390.22223 283.55554 Q 409.77777 272 425.77777 256.8889 Q 425.77777 256.8889 425.77777 256 L 426.66666 256 L 427.55554 256 Q 427.55554 256.8889 427.55554 256.8889 Q 443.55554 272 463.1111 283.55554 Q 485.33334 296.8889 512 298.66666 L 512 341.33334 L 512 341.33334 Q 490.66666 341.33334 472.8889 335.1111 Q 455.1111 328 441.77777 320.8889 Q 432.8889 315.55554 426.66666 311.1111 Q 420.44446 315.55554 411.55554 320.8889 Q 398.22223 328.8889 380.44446 335.1111 Q 362.66666 341.33334 341.33334 341.33334 L 341.33334 341.33334 L 341.33334 341.33334 Q 296 340.44446 265.77777 310.22223 Q 235.55556 280 234.66667 234.66667 Q 235.55556 189.33333 263.1111 156.44444 Q 290.66666 124.44444 334.22223 115.55556 Q 305.77777 99.55556 270.22223 99.55556 L 270.22223 99.55556 Z M 85.333336 424.8889 Q 79.111115 429.33334 70.22222 434.66666 Q 56.88889 441.77777 39.11111 448.8889 Q 21.333334 455.1111 0 455.1111 L 0 412.44446 L 0 412.44446 Q 27.555555 410.66666 48.88889 397.33334 Q 68.44444 385.77777 84.44444 370.66666 Q 84.44444 369.77777 85.333336 369.77777 L 85.333336 369.77777 L 85.333336 369.77777 L 85.333336 369.77777 L 85.333336 369.77777 L 85.333336 369.77777 L 85.333336 369.77777 Q 102.22222 385.77777 121.77778 397.33334 Q 143.11111 410.66666 170.66667 412.44446 Q 197.33333 410.66666 219.55556 397.33334 Q 239.11111 385.77777 255.11111 370.66666 Q 255.11111 370.66666 255.11111 369.77777 L 255.11111 369.77777 L 255.11111 369.77777 L 256 369.77777 L 256.8889 369.77777 Q 256.8889 370.66666 256.8889 370.66666 Q 272.8889 385.77777 292.44446 397.33334 Q 313.77777 410.66666 341.33334 412.44446 Q 368 410.66666 390.22223 397.33334 Q 409.77777 385.77777 425.77777 370.66666 Q 425.77777 370.66666 425.77777 369.77777 L 426.66666 369.77777 L 427.55554 369.77777 Q 427.55554 370.66666 427.55554 370.66666 Q 443.55554 385.77777 463.1111 397.33334 Q 484.44446 410.66666 512 412.44446 L 512 455.1111 L 512 455.1111 Q 490.66666 455.1111 472.8889 448.8889 Q 455.1111 441.77777 441.77777 434.66666 Q 432.8889 429.33334 426.66666 424.8889 Q 420.44446 429.33334 411.55554 434.66666 Q 398.22223 442.66666 380.44446 448.8889 Q 362.66666 455.1111 341.33334 455.1111 Q 320 455.1111 302.22223 448.8889 Q 284.44446 441.77777 271.1111 434.66666 Q 262.22223 429.33334 256 424.8889 Q 249.77777 429.33334 240.88889 434.66666 Q 227.55556 442.66666 209.77777 448.8889 Q 192 455.1111 170.66667 455.1111 Q 149.33333 455.1111 131.55556 448.8889 Q 113.77778 441.77777 100.44444 434.66666 Q 91.55556 429.33334 85.333336 424.8889 L 85.333336 424.8889 Z" />
</svg>