<svg viewBox="0 0 576 448">
  <path
    d="M 32 128 L 544 128 L 544 416 L 32 416 L 32 128 L 32 128 Z M 32 96 L 32 32 L 544 32 L 544 96 L 32 96 L 32 96 Z M 576 112 L 576 96 L 576 32 L 576 0 L 544 0 L 32 0 L 0 0 L 0 32 L 0 96 L 0 112 L 0 128 L 0 416 L 0 448 L 32 448 L 544 448 L 576 448 L 576 416 L 576 128 L 576 112 L 576 112 Z M 136 176 L 131 176 L 126 179 L 136 192 Q 129 183 128 181 Q 126 179 126 179 L 126 179 L 126 179 L 126 179 L 126 179 L 126 180 Q 125 180 124 181 Q 124 181 124 181 Q 122 183 119 186 Q 112 192 103 204 Q 83 228 80 272 Q 83 316 103 340 Q 112 352 119 358 Q 122 361 124 363 Q 124 363 124 363 Q 125 364 126 364 L 126 364 L 126 365 L 126 365 L 126 365 L 126 365 Q 126 365 128 363 Q 129 361 136 352 L 126 365 L 131 368 L 136 368 L 208 368 L 368 368 L 440 368 L 445 368 L 450 365 L 440 352 Q 447 361 448 363 Q 450 365 450 365 L 450 365 L 450 365 L 450 365 L 450 365 L 451 364 Q 451 364 452 363 Q 452 363 452 363 Q 452 363 452 363 Q 454 361 457 358 Q 464 352 473 340 Q 493 316 496 272 Q 493 228 473 204 Q 464 192 457 186 Q 454 183 452 181 Q 452 181 452 181 Q 451 180 451 180 L 450 180 L 450 180 L 450 180 L 450 180 L 450 180 Q 450 179 448 181 Q 447 183 440 192 L 450 180 L 445 176 L 440 176 L 368 176 L 208 176 L 136 176 L 136 176 Z M 141 209 Q 141 209 141 209 L 141 209 Q 141 208 142 208 L 192 208 L 192 240 Q 178 240 169 249 Q 160 258 160 272 Q 160 286 169 295 Q 178 304 192 304 L 192 336 L 142 336 Q 142 336 142 336 Q 141 335 141 335 Q 136 330 129 321 Q 114 303 112 272 Q 114 241 129 223 Q 136 214 141 209 L 141 209 Z M 352 336 L 224 336 L 224 208 L 352 208 L 352 336 L 352 336 Z M 434 336 L 384 336 L 384 304 Q 398 304 407 295 Q 416 286 416 272 Q 416 258 407 249 Q 398 240 384 240 L 384 208 L 434 208 Q 435 209 435 209 Q 440 214 447 223 Q 462 241 464 272 Q 462 303 447 321 Q 440 330 435 335 L 435 335 L 434 336 L 434 336 Z"
  />
</svg>