<svg xmlns="http://www.w3.org/2000/svg" viewBox="0 0 512 512">
  <path d="M 240 496 L 256 512 L 240 496 L 256 512 L 272 496 L 272 496 L 279 489 L 279 489 L 486 282 L 486 282 L 489 279 L 489 279 L 512 256 L 512 256 L 499 243 L 499 243 L 489 233 L 489 233 L 279 23 L 279 23 L 272 16 L 272 16 L 256 0 L 256 0 L 240 16 L 240 16 L 233 23 L 233 23 L 23 233 L 23 233 L 13 243 L 13 243 L 0 256 L 0 256 L 23 279 L 23 279 L 26 282 L 26 282 L 233 489 L 233 489 L 240 496 L 240 496 Z M 240 451 L 95 306 L 240 451 L 95 306 L 240 355 L 240 355 L 240 451 L 240 451 Z M 46 255 L 240 61 L 46 255 L 240 61 L 240 322 L 240 322 L 46 255 L 46 255 Z M 272 61 L 466 255 L 272 61 L 466 255 L 272 322 L 272 322 L 272 61 L 272 61 Z M 272 356 L 417 306 L 272 356 L 417 306 L 272 451 L 272 451 L 272 355 L 272 356 Z" />
</svg>