<svg xmlns="http://www.w3.org/2000/svg" viewBox="0 0 576 448">
    <path d="M 528 48 L 144 48 L 144 304 L 232 304 L 256 240 L 416 240 L 440 304 L 528 304 L 528 48 L 528 48 Z M 144 0 L 528 0 L 576 0 L 576 48 L 576 304 L 576 352 L 528 352 L 144 352 L 96 352 L 96 304 L 96 48 L 96 0 L 144 0 L 144 0 Z M 48 64 L 48 88 L 48 400 L 456 400 L 480 400 L 480 448 L 456 448 L 24 448 L 0 448 L 0 424 L 0 88 L 0 64 L 48 64 L 48 64 Z M 272 144 Q 273 108 304 89 Q 336 71 368 89 Q 399 108 400 144 Q 399 180 368 199 Q 336 217 304 199 Q 273 180 272 144 L 272 144 Z"/>
</svg>
