<svg xmlns="http://www.w3.org/2000/svg" viewBox="0 0 512 512">
  <path d="M 28.444445 71.111115 L 369.77777 71.111115 L 28.444445 71.111115 L 369.77777 71.111115 L 369.77777 166.22223 L 369.77777 166.22223 Q 383.1111 160 398.22223 157.33333 L 398.22223 71.111115 L 398.22223 71.111115 L 398.22223 42.666668 L 398.22223 42.666668 L 369.77777 42.666668 L 0 42.666668 L 0 71.111115 L 0 71.111115 L 0 412.44446 L 0 412.44446 L 0 440.8889 L 0 440.8889 L 28.444445 440.8889 L 284.44446 440.8889 L 284.44446 412.44446 L 284.44446 412.44446 L 28.444445 412.44446 L 28.444445 412.44446 L 28.444445 71.111115 L 28.444445 71.111115 Z M 212.44444 136 L 208 128 L 212.44444 136 L 208 128 L 190.22223 128 L 190.22223 128 L 186.66667 136 L 186.66667 136 L 83.55556 355.55554 L 83.55556 355.55554 L 114.666664 355.55554 L 114.666664 355.55554 L 141.33333 298.66666 L 141.33333 298.66666 L 256.8889 298.66666 L 256.8889 298.66666 L 283.55554 355.55554 L 283.55554 355.55554 L 284.44446 355.55554 L 284.44446 355.55554 L 284.44446 290.66666 L 284.44446 290.66666 L 212.44444 136 L 212.44444 136 Z M 199.11111 176 L 243.55556 270.22223 L 199.11111 176 L 243.55556 270.22223 L 154.66667 270.22223 L 154.66667 270.22223 L 199.11111 176 L 199.11111 176 Z M 412.44446 213.33333 Q 430.22223 214.22223 442.66666 225.77777 L 442.66666 225.77777 L 442.66666 225.77777 Q 454.22223 238.22223 455.1111 256 L 455.1111 298.66666 L 455.1111 298.66666 L 369.77777 298.66666 L 369.77777 298.66666 L 369.77777 256 L 369.77777 256 Q 370.66666 238.22223 382.22223 225.77777 Q 394.66666 214.22223 412.44446 213.33333 L 412.44446 213.33333 Z M 341.33334 256 L 341.33334 298.66666 L 341.33334 256 L 341.33334 298.66666 L 312.8889 298.66666 L 312.8889 298.66666 L 312.8889 327.1111 L 312.8889 327.1111 L 312.8889 440.8889 L 312.8889 440.8889 L 312.8889 469.33334 L 312.8889 469.33334 L 341.33334 469.33334 L 512 469.33334 L 512 440.8889 L 512 440.8889 L 512 327.1111 L 512 327.1111 L 512 298.66666 L 512 298.66666 L 483.55554 298.66666 L 483.55554 298.66666 L 483.55554 256 L 483.55554 256 Q 482.66666 225.77777 463.1111 205.33333 Q 442.66666 185.77777 412.44446 184.88889 Q 382.22223 185.77777 361.77777 205.33333 Q 342.22223 225.77777 341.33334 256 L 341.33334 256 Z M 341.33334 327.1111 L 483.55554 327.1111 L 341.33334 327.1111 L 483.55554 327.1111 L 483.55554 440.8889 L 483.55554 440.8889 L 341.33334 440.8889 L 341.33334 440.8889 L 341.33334 327.1111 L 341.33334 327.1111 Z" />
</svg>