<svg xmlns="http://www.w3.org/2000/svg" viewBox="0 0 512 512">
  <path d="M 56.888888888888886 28.444444444444443 L 56.888888888888886 56.888888888888886 L 56.888888888888886 28.444444444444443 L 56.888888888888886 56.888888888888886 L 0 56.888888888888886 L 0 56.888888888888886 L 0 398.22222222222223 L 0 398.22222222222223 L 512 398.22222222222223 L 512 398.22222222222223 L 512 56.888888888888886 L 512 56.888888888888886 L 455.1111111111111 56.888888888888886 L 455.1111111111111 56.888888888888886 L 455.1111111111111 28.444444444444443 L 455.1111111111111 28.444444444444443 L 398.22222222222223 28.444444444444443 L 398.22222222222223 28.444444444444443 L 398.22222222222223 56.888888888888886 L 398.22222222222223 56.888888888888886 L 113.77777777777777 56.888888888888886 L 113.77777777777777 56.888888888888886 L 113.77777777777777 28.444444444444443 L 113.77777777777777 28.444444444444443 L 56.888888888888886 28.444444444444443 L 56.888888888888886 28.444444444444443 Z M 113.77777777777777 426.6666666666667 L 56.888888888888886 426.6666666666667 L 113.77777777777777 426.6666666666667 L 56.888888888888886 426.6666666666667 L 56.888888888888886 483.55555555555554 L 56.888888888888886 483.55555555555554 L 113.77777777777777 483.55555555555554 L 113.77777777777777 483.55555555555554 L 113.77777777777777 426.6666666666667 L 113.77777777777777 426.6666666666667 Z M 398.22222222222223 426.6666666666667 L 398.22222222222223 483.55555555555554 L 398.22222222222223 426.6666666666667 L 398.22222222222223 483.55555555555554 L 455.1111111111111 483.55555555555554 L 455.1111111111111 483.55555555555554 L 455.1111111111111 426.6666666666667 L 455.1111111111111 426.6666666666667 L 398.22222222222223 426.6666666666667 L 398.22222222222223 426.6666666666667 Z" />
</svg>