<svg xmlns="http://www.w3.org/2000/svg" viewBox="0 0 512 512">
  <path d="M 273.23564356435645 11.152475247524752 L 256 0 L 273.23564356435645 11.152475247524752 L 256 0 L 238.76435643564358 11.152475247524752 L 238.76435643564358 11.152475247524752 Q 195.16831683168317 38.526732673267325 159.68316831683168 44.60990099009901 Q 123.18415841584158 50.693069306930695 67.42178217821782 39.54059405940594 L 34.97821782178218 32.443564356435644 L 34.97821782178218 32.443564356435644 L 28.895049504950496 65.9009900990099 L 28.895049504950496 65.9009900990099 Q 16.72871287128713 145.99603960396038 18.756435643564355 212.9108910891089 Q 20.784158415841585 280.83960396039606 44.1029702970297 335.5881188118812 Q 92.76831683168317 446.0990099009901 243.83366336633662 506.9306930693069 L 257.0138613861386 512 L 257.0138613861386 512 L 269.180198019802 505.9168316831683 L 269.180198019802 505.9168316831683 Q 343.1920792079208 472.4594059405941 391.85742574257426 429.87722772277226 Q 441.53663366336633 388.3089108910891 465.8693069306931 333.560396039604 Q 490.2019801980198 278.81188118811883 493.2435643564356 212.9108910891089 Q 495.27128712871286 145.99603960396038 483.1049504950495 65.9009900990099 L 477.02178217821785 32.443564356435644 L 477.02178217821785 32.443564356435644 L 444.5782178217822 39.54059405940594 L 444.5782178217822 39.54059405940594 Q 388.8158415841584 50.693069306930695 352.3168316831683 43.5960396039604 Q 316.83168316831683 38.526732673267325 273.23564356435645 11.152475247524752 L 273.23564356435645 11.152475247524752 Z M 82.62970297029703 192.63366336633663 L 428.35643564356434 192.63366336633663 L 82.62970297029703 192.63366336633663 L 428.35643564356434 192.63366336633663 Q 428.35643564356434 259.54851485148515 407.0653465346535 306.1861386138614 Q 390.84356435643565 344.71287128712873 353.3306930693069 378.17029702970297 Q 316.83168316831683 410.61386138613864 254.98613861386139 441.029702970297 Q 192.12673267326733 413.6554455445545 156.64158415841584 381.2118811881188 Q 120.14257425742574 348.7683168316832 102.90693069306931 309.2277227722772 Q 82.62970297029703 261.5762376237624 82.62970297029703 192.63366336633663 L 82.62970297029703 192.63366336633663 Z" />
</svg>