<svg xmlns="http://www.w3.org/2000/svg" viewBox="0 0 512 512">
  <path d="M 38.4 166.4 L 38.4 345.6 L 38.4 166.4 L 38.4 345.6 L 320 345.6 L 320 345.6 L 320 166.4 L 320 166.4 L 38.4 166.4 L 38.4 166.4 Z M 0 128 L 38.4 128 L 0 128 L 358.4 128 L 358.4 166.4 L 358.4 166.4 L 358.4 345.6 L 358.4 345.6 L 358.4 384 L 358.4 384 L 320 384 L 0 384 L 0 345.6 L 0 345.6 L 0 166.4 L 0 166.4 L 0 128 L 0 128 Z M 512 153.6 L 512 358.4 L 512 153.6 L 512 358.4 L 384 358.4 L 384 358.4 L 384 153.6 L 384 153.6 L 512 153.6 L 512 153.6 Z M 467.2 198.4 L 428.8 198.4 L 467.2 198.4 L 428.8 198.4 L 428.8 236.8 L 428.8 236.8 L 467.2 236.8 L 467.2 236.8 L 467.2 198.4 L 467.2 198.4 Z M 428.8 275.2 L 428.8 313.6 L 428.8 275.2 L 428.8 313.6 L 467.2 313.6 L 467.2 313.6 L 467.2 275.2 L 467.2 275.2 L 428.8 275.2 L 428.8 275.2 Z" />
</svg>