<svg xmlns="http://www.w3.org/2000/svg" viewBox="0 0 512 512">
  <path d="M 153.40077821011673 231.09727626459144 Q 141.44747081712063 218.14785992217898 115.54863813229572 207.19066147859922 Q 90.64591439688716 196.23346303501947 62.75486381322957 189.26070038910507 Q 50.80155642023346 186.27237354085602 39.8443579766537 183.284046692607 Q 41.83657587548638 191.25291828793775 43.82879377431907 199.22178988326849 Q 50.80155642023346 225.12062256809338 62.75486381322957 251.01945525291828 Q 75.70428015564202 276.9182879377432 95.62645914396887 296.84046692607006 L 122.52140077821012 324.7315175097276 L 122.52140077821012 324.7315175097276 L 90.64591439688716 346.6459143968872 L 90.64591439688716 346.6459143968872 L 55.782101167315176 369.55642023346303 L 55.782101167315176 369.55642023346303 Q 57.77431906614786 370.55252918287937 59.766536964980546 372.54474708171205 Q 95.62645914396887 396.4513618677043 144.43579766536965 399.4396887159533 L 176.3112840466926 399.4396887159533 L 176.3112840466926 399.4396887159533 L 176.3112840466926 431.31517509727627 L 176.3112840466926 431.31517509727627 Q 176.3112840466926 434.3035019455253 176.3112840466926 437.2918287937743 Q 205.19844357976655 425.33852140077823 238.07003891050584 404.420233463035 L 240.06225680933852 403.42412451361866 L 240.06225680933852 403.42412451361866 L 240.06225680933852 335.6887159533074 L 240.06225680933852 335.6887159533074 L 240.06225680933852 319.7509727626459 L 240.06225680933852 319.7509727626459 L 271.9377431906615 319.7509727626459 L 271.9377431906615 319.7509727626459 L 271.9377431906615 335.6887159533074 L 271.9377431906615 335.6887159533074 L 271.9377431906615 403.42412451361866 L 271.9377431906615 403.42412451361866 L 273.92996108949416 404.420233463035 L 273.92996108949416 404.420233463035 Q 306.80155642023345 425.33852140077823 335.6887159533074 437.2918287937743 Q 335.6887159533074 434.3035019455253 335.6887159533074 431.31517509727627 L 335.6887159533074 399.4396887159533 L 335.6887159533074 399.4396887159533 L 367.56420233463035 399.4396887159533 L 367.56420233463035 399.4396887159533 Q 416.3735408560311 396.4513618677043 452.23346303501944 372.54474708171205 Q 455.22178988326846 370.55252918287937 457.2140077821012 369.55642023346303 L 421.3540856031128 346.6459143968872 L 421.3540856031128 346.6459143968872 L 389.47859922178986 324.7315175097276 L 389.47859922178986 324.7315175097276 L 416.3735408560311 296.84046692607006 L 416.3735408560311 296.84046692607006 Q 436.29571984435796 276.9182879377432 449.2451361867704 251.01945525291828 Q 461.19844357976655 225.12062256809338 468.1712062256809 200.21789883268482 Q 471.15953307392994 191.25291828793775 472.15564202334633 184.28015564202335 Q 461.19844357976655 186.27237354085602 449.2451361867704 189.26070038910507 Q 421.3540856031128 196.23346303501947 396.4513618677043 207.19066147859922 Q 370.55252918287937 219.14396887159532 358.59922178988325 231.09727626459144 L 303.81322957198444 284.88715953307394 L 303.81322957198444 284.88715953307394 L 303.81322957198444 208.18677042801556 L 303.81322957198444 208.18677042801556 Q 302.8171206225681 165.35408560311285 292.85603112840465 131.4863813229572 Q 281.8988326848249 96.62256809338521 267.9533073929961 72.715953307393 Q 261.97665369649803 60.762645914396884 256 52.793774319066145 Q 250.02334630350194 60.762645914396884 244.0466926070039 72.715953307393 Q 230.1011673151751 96.62256809338521 219.14396887159532 130.49027237354085 Q 209.1828793774319 165.35408560311285 208.18677042801556 208.18677042801556 L 208.18677042801556 284.88715953307394 L 208.18677042801556 284.88715953307394 L 153.40077821011673 231.09727626459144 L 153.40077821011673 231.09727626459144 Z M 240.06225680933852 441.2762645914397 Q 206.1945525291829 460.2023346303502 180.295719844358 470.1634241245136 L 180.295719844358 470.1634241245136 L 180.295719844358 470.1634241245136 Q 153.40077821011673 479.1284046692607 152.4046692607004 479.1284046692607 Q 151.40856031128405 479.1284046692607 146.42801556420233 459.20622568093387 Q 145.431906614786 454.2256809338521 145.431906614786 448.2490272373541 Q 144.43579766536965 440.2801556420234 144.43579766536965 431.31517509727627 Q 107.57976653696498 430.3190661478599 76.70038910505836 417.36964980544747 Q 46.81712062256809 403.42412451361866 26.894941634241246 388.4824902723735 Q 1.9922178988326849 369.55642023346303 0.9961089494163424 367.56420233463035 L 27.891050583657588 349.6342412451362 L 27.891050583657588 349.6342412451362 L 45.82101167315175 337.6809338521401 L 45.82101167315175 337.6809338521401 L 72.715953307393 319.7509727626459 L 72.715953307393 319.7509727626459 Q 61.75875486381323 307.7976653696498 51.797665369649806 294.84824902723733 Q 31.875486381322958 264.9649805447471 20.91828793774319 233.08949416342412 Q 9.961089494163424 201.21400778210116 5.976653696498055 177.30739299610894 Q 0 146.42801556420233 0.9961089494163424 144.43579766536965 Q 2.9883268482490273 144.43579766536965 33.86770428015564 150.4124513618677 Q 57.77431906614786 154.39688715953307 87.65758754863813 163.36186770428014 Q 118.53696498054475 172.32684824902725 145.431906614786 186.27237354085602 Q 163.36186770428014 196.23346303501947 176.3112840466926 208.18677042801556 Q 176.3112840466926 188.26459143968873 179.29961089494162 169.3385214007782 Q 186.27237354085602 119.53307392996109 203.20622568093384 83.67315175097276 Q 220.1400778210117 46.81712062256809 236.07782101167317 25.898832684824903 Q 255.00389105058366 0.9961089494163424 256 0.9961089494163424 Q 256.99610894941634 0.9961089494163424 275.92217898832683 25.898832684824903 Q 291.8599221789883 46.81712062256809 308.79377431906613 83.67315175097276 Q 325.72762645914395 119.53307392996109 333.6964980544747 169.3385214007782 Q 335.6887159533074 188.26459143968873 335.6887159533074 208.18677042801556 Q 348.63813229571986 195.2373540856031 366.568093385214 186.27237354085602 Q 393.4630350194553 172.32684824902725 424.3424124513619 163.36186770428014 Q 454.2256809338521 154.39688715953307 478.13229571984436 149.41634241245137 Q 509.011673151751 144.43579766536965 511.00389105058366 144.43579766536965 Q 511.00389105058366 144.43579766536965 511.00389105058366 144.43579766536965 Q 512 146.42801556420233 506.02334630350197 177.30739299610894 Q 502.03891050583655 201.21400778210116 491.0817120622568 233.08949416342412 Q 480.12451361867704 264.9649805447471 460.2023346303502 294.84824902723733 Q 450.24124513618676 307.7976653696498 439.284046692607 319.7509727626459 L 466.17898832684824 337.6809338521401 L 466.17898832684824 337.6809338521401 L 484.1089494163424 349.6342412451362 L 484.1089494163424 349.6342412451362 L 511.00389105058366 367.56420233463035 L 511.00389105058366 367.56420233463035 Q 510.0077821011673 369.55642023346303 485.10505836575874 388.4824902723735 Q 465.1828793774319 403.42412451361866 435.2996108949416 417.36964980544747 Q 404.420233463035 430.3190661478599 367.56420233463035 431.31517509727627 Q 367.56420233463035 440.2801556420234 366.568093385214 448.2490272373541 Q 366.568093385214 454.2256809338521 365.5719844357977 459.20622568093387 Q 360.591439688716 479.1284046692607 359.5953307392996 479.1284046692607 Q 359.5953307392996 479.1284046692607 359.5953307392996 479.1284046692607 Q 358.59922178988325 479.1284046692607 331.70428015564204 469.16731517509726 Q 305.8054474708171 460.2023346303502 271.9377431906615 441.2762645914397 L 271.9377431906615 495.0661478599222 L 271.9377431906615 495.0661478599222 L 271.9377431906615 511.00389105058366 L 271.9377431906615 511.00389105058366 L 240.06225680933852 511.00389105058366 L 240.06225680933852 511.00389105058366 L 240.06225680933852 495.0661478599222 L 240.06225680933852 495.0661478599222 L 240.06225680933852 441.2762645914397 L 240.06225680933852 441.2762645914397 Z" />
</svg>