<svg xmlns="http://www.w3.org/2000/svg" viewBox="0 0 512 512">
  <path d="M 54.857142857142854 54.857142857142854 L 54.857142857142854 457.14285714285717 L 54.857142857142854 54.857142857142854 L 54.857142857142854 457.14285714285717 L 457.14285714285717 457.14285714285717 L 457.14285714285717 457.14285714285717 L 457.14285714285717 54.857142857142854 L 457.14285714285717 54.857142857142854 L 54.857142857142854 54.857142857142854 L 54.857142857142854 54.857142857142854 Z M 0 0 L 54.857142857142854 0 L 0 0 L 512 0 L 512 54.857142857142854 L 512 54.857142857142854 L 512 457.14285714285717 L 512 457.14285714285717 L 512 512 L 512 512 L 457.14285714285717 512 L 0 512 L 0 457.14285714285717 L 0 457.14285714285717 L 0 54.857142857142854 L 0 54.857142857142854 L 0 0 L 0 0 Z M 192 109.71428571428571 L 237.71428571428572 192 L 192 109.71428571428571 L 237.71428571428572 192 L 189.71428571428572 230.85714285714286 L 189.71428571428572 230.85714285714286 Q 221.71428571428572 290.2857142857143 282.2857142857143 322.2857142857143 L 320 274.2857142857143 L 320 274.2857142857143 L 402.2857142857143 320 L 402.2857142857143 320 L 384 402.2857142857143 L 384 402.2857142857143 L 365.7142857142857 402.2857142857143 L 365.7142857142857 402.2857142857143 Q 293.7142857142857 401.14285714285717 236.57142857142858 366.85714285714283 Q 178.28571428571428 333.7142857142857 145.14285714285714 275.42857142857144 Q 110.85714285714286 218.28571428571428 109.71428571428571 146.28571428571428 L 109.71428571428571 128 L 109.71428571428571 128 L 192 109.71428571428571 L 192 109.71428571428571 Z" />
</svg>