<svg xmlns="http://www.w3.org/2000/svg" viewBox="0 0 512 512">
  <path d="M 139.70978 57.33754 L 160.70662 85.60252 L 139.70978 57.33754 L 160.70662 85.60252 L 372.29022 367.4448 L 372.29022 367.4448 L 454.66248 253.57729 L 454.66248 253.57729 L 470.00632 232.58044 L 470.00632 232.58044 L 512 263.26813 L 512 263.26813 L 496.65616 284.26498 L 496.65616 284.26498 L 393.28708 426.3975 L 393.28708 426.3975 L 372.29022 454.66248 L 372.29022 454.66248 L 351.29337 426.3975 L 351.29337 426.3975 L 139.70978 144.5552 L 139.70978 144.5552 L 57.33754 258.4227 L 57.33754 258.4227 L 41.99369 279.41956 L 41.99369 279.41956 L 0 248.73186 L 0 248.73186 L 15.343848 227.73502 L 15.343848 227.73502 L 118.71294 85.60252 L 118.71294 85.60252 L 139.70978 57.33754 L 139.70978 57.33754 Z" />
</svg>