<svg xmlns="http://www.w3.org/2000/svg" viewBox="0 0 512 512">
  <path d="M 439.79487179487177 322.05128205128204 L 439.79487179487177 308.9230769230769 L 439.79487179487177 322.05128205128204 L 439.79487179487177 308.9230769230769 L 439.79487179487177 72.61538461538461 L 439.79487179487177 72.61538461538461 L 439.79487179487177 46.35897435897436 L 439.79487179487177 46.35897435897436 L 413.53846153846155 46.35897435897436 L 413.53846153846155 46.35897435897436 Q 405.3333333333333 45.53846153846154 380.71794871794873 57.84615384615385 Q 355.28205128205127 69.33333333333333 333.12820512820514 100.51282051282051 Q 310.15384615384613 132.51282051282053 308.5128205128205 190.76923076923077 L 308.5128205128205 230.97435897435898 L 308.5128205128205 230.97435897435898 L 334.7692307692308 251.48717948717947 L 334.7692307692308 251.48717948717947 L 334.7692307692308 190.76923076923077 L 334.7692307692308 190.76923076923077 Q 335.5897435897436 153.02564102564102 347.0769230769231 129.23076923076923 Q 358.56410256410254 106.25641025641026 373.3333333333333 93.94871794871794 Q 388.9230769230769 81.64102564102564 402.05128205128204 76.71794871794872 Q 411.0769230769231 73.43589743589743 413.53846153846155 72.61538461538461 Q 413.53846153846155 72.61538461538461 413.53846153846155 72.61538461538461 L 413.53846153846155 72.61538461538461 L 413.53846153846155 72.61538461538461 L 413.53846153846155 308.9230769230769 L 413.53846153846155 308.9230769230769 L 406.97435897435895 308.9230769230769 L 406.97435897435895 308.9230769230769 L 439.79487179487177 334.35897435897436 L 439.79487179487177 334.35897435897436 L 439.79487179487177 322.05128205128204 L 439.79487179487177 322.05128205128204 Z M 177.23076923076923 261.3333333333333 L 137.84615384615384 230.15384615384616 L 177.23076923076923 261.3333333333333 L 137.84615384615384 230.15384615384616 L 137.84615384615384 230.15384615384616 L 137.84615384615384 230.15384615384616 Q 123.8974358974359 230.15384615384616 113.23076923076923 221.12820512820514 Q 102.56410256410257 212.92307692307693 99.28205128205128 199.7948717948718 L 72.2051282051282 178.46153846153845 L 72.2051282051282 178.46153846153845 Q 72.2051282051282 180.10256410256412 72.2051282051282 181.74358974358975 Q 72.2051282051282 181.74358974358975 72.2051282051282 181.74358974358975 L 72.2051282051282 190.76923076923077 L 72.2051282051282 190.76923076923077 Q 73.02564102564102 218.66666666666666 91.07692307692308 237.53846153846155 Q 109.94871794871794 255.5897435897436 137.84615384615384 256.4102564102564 L 150.97435897435898 256.4102564102564 L 150.97435897435898 256.4102564102564 L 150.97435897435898 453.3333333333333 L 150.97435897435898 453.3333333333333 L 150.97435897435898 466.46153846153845 L 150.97435897435898 466.46153846153845 L 177.23076923076923 466.46153846153845 L 177.23076923076923 466.46153846153845 L 177.23076923076923 453.3333333333333 L 177.23076923076923 453.3333333333333 L 177.23076923076923 261.3333333333333 L 177.23076923076923 261.3333333333333 Z M 131.28205128205127 58.666666666666664 L 129.64102564102564 89.84615384615384 L 131.28205128205127 58.666666666666664 L 129.64102564102564 89.84615384615384 L 155.07692307692307 109.53846153846153 L 155.07692307692307 109.53846153846153 L 157.53846153846155 60.30769230769231 L 157.53846153846155 60.30769230769231 L 158.35897435897436 46.35897435897436 L 158.35897435897436 46.35897435897436 L 132.10256410256412 46.35897435897436 L 132.10256410256412 46.35897435897436 L 131.28205128205127 58.666666666666664 L 131.28205128205127 58.666666666666664 Z M 91.8974358974359 59.48717948717949 L 114.87179487179488 78.35897435897436 L 91.8974358974359 59.48717948717949 L 114.87179487179488 78.35897435897436 L 120.61538461538461 46.35897435897436 L 120.61538461538461 46.35897435897436 L 93.53846153846153 46.35897435897436 L 93.53846153846153 46.35897435897436 L 91.8974358974359 59.48717948717949 L 91.8974358974359 59.48717948717949 Z M 256 181.74358974358975 Q 256 176.82051282051282 255.17948717948718 171.07692307692307 L 234.66666666666666 46.35897435897436 L 234.66666666666666 46.35897435897436 L 207.5897435897436 46.35897435897436 L 207.5897435897436 46.35897435897436 L 228.10256410256412 166.97435897435898 L 228.10256410256412 166.97435897435898 L 256 189.94871794871796 L 256 189.94871794871796 L 256 181.74358974358975 L 256 181.74358974358975 Z M 196.92307692307693 58.666666666666664 L 196.10256410256412 46.35897435897436 L 196.92307692307693 58.666666666666664 L 196.10256410256412 46.35897435897436 L 169.84615384615384 46.35897435897436 L 169.84615384615384 46.35897435897436 L 170.66666666666666 60.30769230769231 L 170.66666666666666 60.30769230769231 L 173.94871794871796 125.12820512820512 L 173.94871794871796 125.12820512820512 L 201.02564102564102 146.46153846153845 L 201.02564102564102 146.46153846153845 L 196.92307692307693 58.666666666666664 L 196.92307692307693 58.666666666666664 Z M 26.256410256410255 61.12820512820513 L 16.41025641025641 52.92307692307692 L 26.256410256410255 61.12820512820513 L 16.41025641025641 52.92307692307692 L 0 73.43589743589743 L 0 73.43589743589743 L 10.666666666666666 81.64102564102564 L 10.666666666666666 81.64102564102564 L 485.7435897435897 451.6923076923077 L 485.7435897435897 451.6923076923077 L 495.5897435897436 459.8974358974359 L 495.5897435897436 459.8974358974359 L 512 439.38461538461536 L 512 439.38461538461536 L 502.15384615384613 431.1794871794872 L 502.15384615384613 431.1794871794872 L 26.256410256410255 61.12820512820513 L 26.256410256410255 61.12820512820513 Z" />
</svg>