<svg viewBox="0 0 448 448">
  <path
    d="M 32 32 L 32 416 L 416 416 L 416 32 L 32 32 L 32 32 Z M 0 0 L 32 0 L 416 0 L 448 0 L 448 32 L 448 416 L 448 448 L 416 448 L 32 448 L 0 448 L 0 416 L 0 32 L 0 0 L 0 0 Z M 224 96 Q 265 97 292 124 L 292 124 Q 319 151 320 192 L 320 256 Q 319 297 292 324 Q 265 351 224 352 Q 183 351 156 324 Q 129 297 128 256 L 128 192 Q 129 151 156 124 Q 183 97 224 96 L 224 96 Z M 160 192 L 160 256 Q 161 283 179 301 Q 197 319 224 320 Q 251 319 269 301 Q 287 283 288 256 L 288 192 Q 287 165 269 147 Q 251 129 224 128 Q 197 129 179 147 Q 161 165 160 192 L 160 192 Z"
  />
</svg>