<svg viewBox="0 0 448 512">
  <path
    d="M 48 48 L 48 112 L 112 112 L 112 48 L 48 48 L 48 48 Z M 0 0 L 48 0 L 112 0 L 160 0 L 160 48 L 160 112 L 160 160 L 112 160 L 105 160 Q 112 198 140 223 Q 168 247 208 248 L 288 248 L 288 240 L 288 192 L 336 192 L 400 192 L 448 192 L 448 240 L 448 304 L 448 352 L 400 352 L 336 352 L 288 352 L 288 304 L 288 296 L 208 296 Q 146 295 104 255 L 104 352 L 112 352 L 160 352 L 160 400 L 160 464 L 160 512 L 112 512 L 48 512 L 0 512 L 0 464 L 0 400 L 0 352 L 48 352 L 56 352 L 56 160 L 48 160 L 0 160 L 0 112 L 0 48 L 0 0 L 0 0 Z M 48 400 L 48 464 L 112 464 L 112 400 L 48 400 L 48 400 Z M 400 240 L 336 240 L 336 304 L 400 304 L 400 240 L 400 240 Z"
  />
</svg>