<svg xmlns="http://www.w3.org/2000/svg" viewBox="0 0 576 512">
    <path d="M 304 16 L 304 0 L 272 0 L 272 16 L 272 59 L 269 63 L 19 480 L 0 512 L 37 512 L 539 512 L 576 512 L 557 480 L 422 254 L 398 278 L 520 480 L 57 480 L 288 94 L 364 221 L 321 265 Q 306 256 288 256 Q 261 257 243 275 Q 225 293 224 320 Q 225 347 243 365 Q 261 383 288 384 Q 315 383 333 365 Q 351 347 352 320 Q 352 302 343 288 L 381 250 L 404 226 L 539 91 L 551 80 L 528 57 L 517 69 L 388 198 L 307 63 L 304 59 L 304 16 L 304 16 Z M 320 320 Q 320 334 311 343 L 311 343 Q 302 352 288 352 Q 274 352 265 343 Q 256 334 256 320 Q 256 306 265 297 Q 274 288 288 288 Q 302 288 311 297 Q 320 306 320 320 L 320 320 Z"/>
</svg>
