<svg xmlns="http://www.w3.org/2000/svg" viewBox="0 0 512 512">
  <path d="M 172.5 0 L 268.5 0 L 172.5 0 L 284.5 0 L 284.5 16 L 284.5 16 L 284.5 48 L 284.5 48 L 380.5 48 L 387.5 48 L 391.5 53 L 391.5 53 L 439.5 101 L 439.5 101 L 451.5 112 L 451.5 112 L 428.5 135 L 428.5 135 L 417.5 123 L 417.5 123 L 373.5 80 L 373.5 80 L 284.5 80 L 284.5 80 L 284.5 128 L 284.5 128 L 252.5 128 L 252.5 128 L 252.5 32 L 252.5 32 L 188.5 32 L 188.5 32 L 188.5 128 L 188.5 128 L 156.5 128 L 156.5 128 L 156.5 16 L 156.5 16 L 156.5 0 L 156.5 0 L 172.5 0 L 172.5 0 Z M 92.5 512 L 60.5 512 L 92.5 512 L 60.5 512 L 62.5 480 L 62.5 480 L 84.5 160 L 84.5 160 L 356.5 160 L 356.5 160 L 378.5 480 L 378.5 480 L 380.5 512 L 380.5 512 L 348.5 512 L 92.5 512 Z M 94.5 480 L 346.5 480 L 94.5 480 L 346.5 480 L 326.5 192 L 326.5 192 L 114.5 192 L 114.5 192 L 94.5 480 L 94.5 480 Z M 220.5 237 L 233.5 255 L 220.5 237 L 233.5 255 L 278.5 317 L 278.5 317 Q 292.5 336 292.5 360 Q 291.5 390 271.5 411 Q 251.5 431 220.5 432 Q 189.5 431 169.5 411 Q 149.5 390 148.5 360 Q 148.5 336 162.5 317 L 207.5 255 L 207.5 255 L 220.5 237 L 220.5 237 Z M 220.5 291 L 188.5 336 L 220.5 291 L 188.5 336 Q 180.5 347 180.5 360 Q 180.5 377 192.5 388 Q 203.5 400 220.5 400 Q 237.5 400 248.5 388 Q 260.5 377 260.5 360 Q 260.5 347 252.5 336 L 220.5 291 L 220.5 291 Z" />
</svg>