<svg xmlns="http://www.w3.org/2000/svg" viewBox="0 0 640 512">
    <path d="M 424 24 L 424 0 L 376 0 L 376 24 L 376 104 L 376 128 L 424 128 L 424 104 L 424 24 L 424 24 Z M 265 39 L 248 22 L 214 56 L 231 73 L 287 129 L 304 146 L 338 112 L 321 95 L 265 39 L 265 39 Z M 569 73 L 586 56 L 552 22 L 535 39 L 479 95 L 462 112 L 496 146 L 513 129 L 569 73 L 569 73 Z M 288 320 Q 288 290 303 264 L 303 264 Q 318 238 344 223 Q 370 208 400 208 Q 430 208 456 223 Q 482 238 497 264 Q 512 290 512 320 Q 512 350 497 376 Q 482 402 456 417 Q 430 432 400 432 Q 370 432 344 417 Q 318 402 303 376 Q 288 350 288 320 L 288 320 Z M 560 320 Q 560 276 539 240 L 592 240 L 592 400 L 539 400 Q 559 364 560 320 L 560 320 Z M 400 480 Q 455 479 496 448 L 512 448 L 512 488 L 512 512 L 560 512 L 560 488 L 560 448 L 592 448 L 640 448 L 640 400 L 640 240 L 640 192 L 592 192 L 496 192 Q 455 161 400 160 Q 345 161 304 192 L 48 192 L 0 192 L 0 240 L 0 400 L 0 448 L 48 448 L 80 448 L 80 488 L 80 512 L 128 512 L 128 488 L 128 448 L 304 448 Q 345 479 400 480 L 400 480 Z M 240 320 Q 241 364 261 400 L 48 400 L 48 240 L 261 240 Q 240 276 240 320 L 240 320 Z M 128 320 Q 126 298 104 296 Q 82 298 80 320 Q 82 342 104 344 Q 126 342 128 320 L 128 320 Z M 184 344 Q 206 342 208 320 Q 206 298 184 296 Q 162 298 160 320 Q 162 342 184 344 L 184 344 Z"/>
</svg>
