<svg xmlns="http://www.w3.org/2000/svg" viewBox="0 0 512 512">
  <path d="M 391.67504835589943 53.477756286266924 Q 392.66537717601545 26.738878143133462 415.4429400386847 11.88394584139265 Q 439.21083172147 0 462.97872340425533 11.88394584139265 Q 485.7562862669246 26.738878143133462 486.7466150870406 53.477756286266924 Q 485.7562862669246 80.21663442940039 462.97872340425533 95.0715667311412 Q 439.21083172147 106.95551257253385 415.4429400386847 95.0715667311412 Q 392.66537717601545 80.21663442940039 391.67504835589943 53.477756286266924 L 391.67504835589943 53.477756286266924 Z M 28.224371373307545 251.54352030947774 L 49.02127659574468 262.43713733075435 L 28.224371373307545 251.54352030947774 L 49.02127659574468 262.43713733075435 L 245.10638297872342 363.45067698259186 L 245.10638297872342 363.45067698259186 L 290.6615087040619 295.11798839458413 L 290.6615087040619 295.11798839458413 L 214.40618955512574 219.852998065764 L 214.40618955512574 219.852998065764 Q 193.6092843326886 197.07543520309477 196.58027079303676 168.3558994197292 L 305.51644100580273 220.8433268858801 L 305.51644100580273 220.8433268858801 L 354.0425531914894 268.3791102514507 L 354.0425531914894 268.3791102514507 L 371.86847195357836 287.1953578336557 L 371.86847195357836 287.1953578336557 L 358.0038684719536 308.9825918762089 L 358.0038684719536 308.9825918762089 L 301.5551257253385 393.1605415860735 L 301.5551257253385 393.1605415860735 L 426.3365570599613 458.5222437137331 L 426.3365570599613 458.5222437137331 L 462.97872340425533 439.705996131528 L 462.97872340425533 439.705996131528 L 484.7659574468085 428.81237911025147 L 484.7659574468085 428.81237911025147 L 505.56286266924565 471.3965183752418 L 505.56286266924565 471.3965183752418 L 484.7659574468085 482.2901353965184 L 484.7659574468085 482.2901353965184 L 437.2301740812379 506.05802707930366 L 437.2301740812379 506.05802707930366 L 426.3365570599613 512 L 426.3365570599613 512 L 415.4429400386847 506.05802707930366 L 415.4429400386847 506.05802707930366 L 27.23404255319149 304.03094777562865 L 27.23404255319149 304.03094777562865 L 6.437137330754352 293.13733075435204 L 6.437137330754352 293.13733075435204 L 28.224371373307545 251.54352030947774 L 28.224371373307545 251.54352030947774 Z M 132.20889748549322 71.3036750483559 L 150.0348162475822 79.22630560928434 L 132.20889748549322 71.3036750483559 L 150.0348162475822 79.22630560928434 L 158.9477756286267 62.39071566731141 L 158.9477756286267 62.39071566731141 L 165.88007736943908 47.5357833655706 L 165.88007736943908 47.5357833655706 L 194.59961315280464 62.39071566731141 L 194.59961315280464 62.39071566731141 L 186.6769825918762 76.25531914893617 L 186.6769825918762 76.25531914893617 L 178.75435203094779 93.0909090909091 L 178.75435203094779 93.0909090909091 L 230.25145067698259 117.84912959381045 L 230.25145067698259 117.84912959381045 Q 231.24177949709863 117.84912959381045 232.2321083172147 116.85880077369438 Q 233.22243713733076 116.85880077369438 234.2127659574468 116.85880077369438 L 334.23597678916826 72.29400386847195 L 334.23597678916826 72.29400386847195 L 359.9845261121857 60.4100580270793 L 359.9845261121857 60.4100580270793 L 374.8394584139265 85.16827852998065 L 374.8394584139265 85.16827852998065 L 425.3462282398453 173.30754352030948 L 425.3462282398453 173.30754352030948 L 473.8723404255319 200.04642166344294 L 473.8723404255319 200.04642166344294 L 501.60154738878146 215.8916827852998 L 501.60154738878146 215.8916827852998 L 469.9110251450677 271.3500967117988 L 469.9110251450677 271.3500967117988 L 442.1818181818182 255.50483558994196 L 442.1818181818182 255.50483558994196 L 386.72340425531917 223.81431334622823 L 386.72340425531917 223.81431334622823 L 379.79110251450675 219.852998065764 L 379.79110251450675 219.852998065764 L 374.8394584139265 211.9303675048356 L 374.8394584139265 211.9303675048356 L 358.0038684719536 182.22050290135397 L 358.0038684719536 182.22050290135397 L 330.27466150870407 195.09477756286267 L 330.27466150870407 195.09477756286267 L 323.3423597678917 198.06576402321082 L 323.3423597678917 198.06576402321082 L 316.4100580270793 194.10444874274663 L 316.4100580270793 194.10444874274663 L 164.88974854932303 121.81044487427467 L 164.88974854932303 121.81044487427467 L 154.98646034816247 139.63636363636363 L 154.98646034816247 139.63636363636363 L 148.0541586073501 153.50096711798838 L 148.0541586073501 153.50096711798838 L 120.32495164410058 139.63636363636363 L 120.32495164410058 139.63636363636363 L 127.25725338491296 125.77176015473887 L 127.25725338491296 125.77176015473887 L 136.17021276595744 107.9458413926499 L 136.17021276595744 107.9458413926499 L 118.34429400386847 99.03288201160541 L 118.34429400386847 99.03288201160541 L 104.47969052224371 93.0909090909091 L 104.47969052224371 93.0909090909091 L 118.34429400386847 64.37137330754352 L 118.34429400386847 64.37137330754352 L 132.20889748549322 71.3036750483559 L 132.20889748549322 71.3036750483559 Z" />
</svg>