<svg xmlns="http://www.w3.org/2000/svg" viewBox="0 0 512 512">
  <path d="M 350.6849315068493 11.021526418786692 L 337.6594911937378 0 L 350.6849315068493 11.021526418786692 L 337.6594911937378 0 L 316.6183953033268 25.048923679060664 L 316.6183953033268 25.048923679060664 L 329.64383561643837 35.06849315068493 L 329.64383561643837 35.06849315068493 L 416.81409001956945 111.21722113502935 L 416.81409001956945 111.21722113502935 L 43.08414872798434 111.21722113502935 L 27.052837573385517 111.21722113502935 L 27.052837573385517 127.24853228962817 L 27.052837573385517 127.24853228962817 L 27.052837573385517 271.5303326810176 L 27.052837573385517 271.5303326810176 L 27.052837573385517 287.56164383561645 L 27.052837573385517 287.56164383561645 L 59.11545988258317 287.56164383561645 L 59.11545988258317 287.56164383561645 L 59.11545988258317 271.5303326810176 L 59.11545988258317 271.5303326810176 L 59.11545988258317 143.279843444227 L 59.11545988258317 143.279843444227 L 416.81409001956945 143.279843444227 L 416.81409001956945 143.279843444227 L 329.64383561643837 219.42857142857142 L 329.64383561643837 219.42857142857142 L 316.6183953033268 229.44814090019568 L 316.6183953033268 229.44814090019568 L 337.6594911937378 254.49706457925635 L 337.6594911937378 254.49706457925635 L 350.6849315068493 243.47553816046965 L 350.6849315068493 243.47553816046965 L 470.9197651663405 139.2720156555773 L 470.9197651663405 139.2720156555773 L 484.94716242661445 127.24853228962817 L 484.94716242661445 127.24853228962817 L 470.9197651663405 115.22504892367905 L 470.9197651663405 115.22504892367905 L 350.6849315068493 11.021526418786692 L 350.6849315068493 11.021526418786692 Z M 254.49706457925635 267.5225048923679 L 241.4716242661448 256.5009784735812 L 254.49706457925635 267.5225048923679 L 241.4716242661448 256.5009784735812 L 220.43052837573384 281.5499021526419 L 220.43052837573384 281.5499021526419 L 233.4559686888454 291.56947162426616 L 233.4559686888454 291.56947162426616 L 320.6262230919765 367.7181996086106 L 320.6262230919765 367.7181996086106 L 43.08414872798434 367.7181996086106 L 27.052837573385517 367.7181996086106 L 27.052837573385517 383.7495107632094 L 27.052837573385517 383.7495107632094 L 27.052837573385517 495.9686888454012 L 27.052837573385517 495.9686888454012 L 27.052837573385517 512 L 27.052837573385517 512 L 59.11545988258317 512 L 59.11545988258317 512 L 59.11545988258317 495.9686888454012 L 59.11545988258317 495.9686888454012 L 59.11545988258317 399.7808219178082 L 59.11545988258317 399.7808219178082 L 320.6262230919765 399.7808219178082 L 320.6262230919765 399.7808219178082 L 233.4559686888454 475.92954990215264 L 233.4559686888454 475.92954990215264 L 220.43052837573384 485.9491193737769 L 220.43052837573384 485.9491193737769 L 241.4716242661448 510.99804305283755 L 241.4716242661448 510.99804305283755 L 254.49706457925635 499.9765166340509 L 254.49706457925635 499.9765166340509 L 374.73189823874753 395.7729941291585 L 374.73189823874753 395.7729941291585 L 388.7592954990215 383.7495107632094 L 388.7592954990215 383.7495107632094 L 374.73189823874753 371.7260273972603 L 374.73189823874753 371.7260273972603 L 254.49706457925635 267.5225048923679 L 254.49706457925635 267.5225048923679 Z" />
</svg>