<svg xmlns="http://www.w3.org/2000/svg" viewBox="0 0 512 512">
  <path d="M 440.4301075268817 54.6605222734255 Q 475.82181259600617 55.44700460829493 494.6973886328725 86.11981566820276 Q 512 117.57910906298002 494.6973886328725 149.0384024577573 Q 475.82181259600617 179.71121351766513 440.4301075268817 180.49769585253455 Q 405.0384024577573 179.71121351766513 386.16282642089095 149.0384024577573 Q 368.86021505376345 117.57910906298002 386.16282642089095 86.11981566820276 Q 405.0384024577573 55.44700460829493 440.4301075268817 54.6605222734255 L 440.4301075268817 54.6605222734255 Z M 0 407.0046082949309 L 201.3394777265745 104.99539170506912 L 0 407.0046082949309 L 201.3394777265745 104.99539170506912 L 324.81720430107526 289.81874039938555 L 324.81720430107526 289.81874039938555 L 377.5115207373272 205.66513056835637 L 377.5115207373272 205.66513056835637 L 503.34869431643625 407.0046082949309 L 503.34869431643625 407.0046082949309 L 503.34869431643625 457.3394777265745 L 503.34869431643625 457.3394777265745 L 402.678955453149 457.3394777265745 L 0 457.3394777265745 L 0 407.0046082949309 L 0 407.0046082949309 Z" />
</svg>