<svg xmlns="http://www.w3.org/2000/svg" viewBox="0 0 512 512">
  <path d="M 240 400 L 234 407 L 240 400 L 234 407 L 232 408 L 232 408 Q 190 448 136 448 Q 82 448 40 408 Q 0 366 0 312 Q 0 258 40 216 L 256 0 L 256 0 L 256 0 L 256 0 L 472 216 L 472 216 Q 512 258 512 312 Q 512 366 472 408 Q 430 448 376 448 Q 322 448 280 408 L 279 407 L 279 407 L 272 400 L 272 400 L 272 480 L 272 480 L 336 480 L 352 480 L 352 512 L 352 512 L 336 512 L 160 512 L 160 480 L 160 480 L 176 480 L 240 480 L 240 400 L 240 400 Z M 233 362 L 256 338 L 233 362 L 256 338 L 279 362 L 279 362 L 303 386 L 303 386 Q 335 416 376 416 Q 418 416 450 386 Q 480 353 480 312 Q 480 270 450 238 L 450 238 L 450 238 L 256 45 L 256 45 L 63 239 L 63 239 L 63 239 L 63 239 Q 32 271 32 312 Q 32 354 63 386 Q 95 416 136 416 Q 177 416 210 386 L 233 362 L 233 362 Z" />
</svg>