<svg xmlns="http://www.w3.org/2000/svg" viewBox="0 0 512 512">
  <path d="M 25.6 102.4 L 25.6 294.4 L 25.6 102.4 L 25.6 294.4 L 25.6 320 L 25.6 320 Q 42.4 308 64 307.2 Q 96.8 308 115.2 332.8 Q 133.6 308 166.4 307.2 Q 186.4 307.2 201.6 317.6 Q 217.6 328 224.8 345.6 L 358.4 345.6 L 358.4 345.6 L 358.4 256 L 358.4 256 L 358.4 230.4 L 358.4 230.4 L 358.4 102.4 L 358.4 102.4 L 25.6 102.4 L 25.6 102.4 Z M 384 320 Q 400.8 308 422.4 307.2 Q 442.4 307.2 457.6 317.6 Q 473.6 328 480.8 345.6 L 486.4 345.6 L 486.4 345.6 L 486.4 294.4 L 486.4 294.4 L 486.4 256 L 486.4 256 L 384 256 L 384 256 L 384 320 L 384 320 Z M 384 230.4 L 482.4 230.4 L 384 230.4 L 482.4 230.4 L 436 179.2 L 436 179.2 L 384 179.2 L 384 179.2 L 384 230.4 L 384 230.4 Z M 512 225.6 L 512 230.4 L 512 225.6 L 512 230.4 L 512 256 L 512 256 L 512 294.4 L 512 294.4 L 512 345.6 L 512 345.6 L 512 371.2 L 512 371.2 L 486.4 371.2 L 486.4 371.2 Q 485.6 398.4 468 416.8 Q 449.6 434.4 422.4 435.2 Q 395.2 434.4 376.8 416.8 Q 359.2 398.4 358.4 371.2 L 230.4 371.2 L 230.4 371.2 Q 229.6 398.4 212 416.8 Q 193.6 434.4 166.4 435.2 Q 133.6 434.4 115.2 409.6 Q 96.8 434.4 64 435.2 Q 36.8 434.4 18.4 416.8 Q 0.8 398.4 0 371.2 L 0 345.6 L 0 345.6 L 0 294.4 L 0 294.4 L 0 102.4 L 0 102.4 L 0 76.8 L 0 76.8 L 25.6 76.8 L 384 76.8 L 384 102.4 L 384 102.4 L 384 153.6 L 384 153.6 L 441.6 153.6 L 447.2 153.6 L 451.2 157.6 L 451.2 157.6 L 508.8 221.6 L 508.8 221.6 L 512 225.6 L 512 225.6 Z M 422.4 409.6 Q 444 408.8 456 390.4 Q 465.6 371.2 456 352 Q 444 333.6 422.4 332.8 Q 400.8 333.6 388.8 352 Q 379.2 371.2 388.8 390.4 Q 400.8 408.8 422.4 409.6 L 422.4 409.6 Z M 204.8 371.2 Q 204 349.6 185.6 337.6 Q 166.4 328 147.2 337.6 Q 128.8 349.6 128 371.2 Q 128.8 392.8 147.2 404.8 Q 166.4 414.4 185.6 404.8 Q 204 392.8 204.8 371.2 L 204.8 371.2 Z M 64 409.6 Q 85.6 408.8 97.6 390.4 Q 107.2 371.2 97.6 352 Q 85.6 333.6 64 332.8 Q 42.4 333.6 30.4 352 Q 20.8 371.2 30.4 390.4 Q 42.4 408.8 64 409.6 L 64 409.6 Z" />
</svg>