<svg xmlns="http://www.w3.org/2000/svg" viewBox="0 0 512 512">
  <path d="M 307.2 81.6 Q 305.6 80 262.4 66.4 L 262.4 66.4 L 262.4 66.4 Q 219.2 52.8 153.6 51.2 Q 88 52.8 44.8 66.4 Q 1.6 80 0 81.6 L 0 128 L 0 128 L 0 128 L 0 128 L 0 384 L 0 384 L 38.4 384 L 38.4 384 L 38.4 435.2 L 38.4 435.2 L 102.4 435.2 L 102.4 435.2 L 102.4 384 L 102.4 384 L 153.6 384 L 153.6 384 L 153.6 256 L 153.6 256 L 184.8 256 L 184.8 256 L 193.6 230.4 L 193.6 230.4 L 166.4 230.4 L 166.4 230.4 L 166.4 128 L 166.4 128 L 256 128 L 256 128 L 256 153.6 L 256 153.6 L 307.2 153.6 L 307.2 153.6 L 307.2 102.4 L 307.2 102.4 L 307.2 81.6 L 307.2 81.6 Z M 256 179.2 L 237.6 179.2 L 256 179.2 L 237.6 179.2 L 232 196.8 L 232 196.8 L 220.8 230.4 L 220.8 230.4 L 203.2 281.6 L 203.2 281.6 L 179.2 281.6 L 179.2 281.6 L 179.2 409.6 L 179.2 409.6 L 179.2 409.6 L 179.2 409.6 L 179.2 460.8 L 179.2 460.8 L 243.2 460.8 L 243.2 460.8 L 243.2 409.6 L 243.2 409.6 L 448 409.6 L 448 409.6 L 448 460.8 L 448 460.8 L 512 460.8 L 512 460.8 L 512 409.6 L 512 409.6 L 512 281.6 L 512 281.6 L 488 281.6 L 488 281.6 L 459.2 196.8 L 459.2 196.8 L 453.6 179.2 L 453.6 179.2 L 435.2 179.2 L 256 179.2 Z M 307.2 230.4 L 416.8 230.4 L 307.2 230.4 L 416.8 230.4 L 433.6 281.6 L 433.6 281.6 L 307.2 281.6 L 257.6 281.6 L 274.4 230.4 L 274.4 230.4 L 307.2 230.4 L 307.2 230.4 Z M 140.8 128 L 140.8 230.4 L 140.8 128 L 140.8 230.4 L 51.2 230.4 L 51.2 230.4 L 51.2 128 L 51.2 128 L 140.8 128 L 140.8 128 Z M 44.8 294.4 Q 46.4 276.8 64 275.2 Q 81.6 276.8 83.2 294.4 Q 81.6 312 64 313.6 Q 46.4 312 44.8 294.4 L 44.8 294.4 Z M 243.2 326.4 Q 260.8 328 262.4 345.6 Q 260.8 363.2 243.2 364.8 Q 225.6 363.2 224 345.6 Q 225.6 328 243.2 326.4 L 243.2 326.4 Z M 428.8 345.6 Q 430.4 328 448 326.4 Q 465.6 328 467.2 345.6 Q 465.6 363.2 448 364.8 Q 430.4 363.2 428.8 345.6 L 428.8 345.6 Z" />
</svg>