<svg xmlns="http://www.w3.org/2000/svg" viewBox="0 0 512 512">
  <path d="M 25.6 76.8 L 256 76.8 L 25.6 76.8 L 256 76.8 L 256 166.4 L 256 166.4 L 275.2 166.4 L 281.6 166.4 L 281.6 76.8 L 281.6 76.8 L 281.6 51.2 L 281.6 51.2 L 256 51.2 L 0 51.2 L 0 76.8 L 0 76.8 L 0 409.6 L 0 409.6 L 0 435.2 L 0 435.2 L 25.6 435.2 L 179.2 435.2 L 179.2 409.6 L 179.2 409.6 L 25.6 409.6 L 25.6 409.6 L 25.6 76.8 L 25.6 76.8 Z M 220.8 256 L 230.4 221.6 L 220.8 256 L 230.4 221.6 L 230.4 217.6 L 230.4 217.6 L 230.4 204.8 L 230.4 204.8 L 217.6 204.8 L 153.6 204.8 L 153.6 217.6 L 153.6 217.6 L 153.6 268.8 L 153.6 268.8 L 153.6 281.6 L 153.6 281.6 L 166.4 281.6 L 179.2 281.6 L 179.2 256 L 179.2 256 L 179.2 230.4 L 179.2 230.4 L 204.8 230.4 L 204.8 230.4 L 204.8 256 L 204.8 256 L 220.8 256 L 220.8 256 Z M 64 102.4 L 51.2 102.4 L 64 102.4 L 51.2 102.4 L 51.2 115.2 L 51.2 115.2 L 51.2 166.4 L 51.2 166.4 L 51.2 179.2 L 51.2 179.2 L 64 179.2 L 128 179.2 L 128 166.4 L 128 166.4 L 128 115.2 L 128 115.2 L 128 102.4 L 128 102.4 L 115.2 102.4 L 64 102.4 Z M 76.8 153.6 L 76.8 128 L 76.8 153.6 L 76.8 128 L 102.4 128 L 102.4 128 L 102.4 153.6 L 102.4 153.6 L 76.8 153.6 L 76.8 153.6 Z M 153.6 102.4 L 153.6 115.2 L 153.6 102.4 L 153.6 115.2 L 153.6 166.4 L 153.6 166.4 L 153.6 179.2 L 153.6 179.2 L 166.4 179.2 L 230.4 179.2 L 230.4 166.4 L 230.4 166.4 L 230.4 115.2 L 230.4 115.2 L 230.4 102.4 L 230.4 102.4 L 217.6 102.4 L 153.6 102.4 Z M 179.2 128 L 204.8 128 L 179.2 128 L 204.8 128 L 204.8 153.6 L 204.8 153.6 L 179.2 153.6 L 179.2 153.6 L 179.2 128 L 179.2 128 Z M 64 204.8 L 51.2 204.8 L 64 204.8 L 51.2 204.8 L 51.2 217.6 L 51.2 217.6 L 51.2 268.8 L 51.2 268.8 L 51.2 281.6 L 51.2 281.6 L 64 281.6 L 128 281.6 L 128 268.8 L 128 268.8 L 128 217.6 L 128 217.6 L 128 204.8 L 128 204.8 L 115.2 204.8 L 64 204.8 Z M 76.8 256 L 76.8 230.4 L 76.8 256 L 76.8 230.4 L 102.4 230.4 L 102.4 230.4 L 102.4 256 L 102.4 256 L 76.8 256 L 76.8 256 Z M 64 307.2 L 51.2 307.2 L 64 307.2 L 51.2 307.2 L 51.2 320 L 51.2 320 L 51.2 371.2 L 51.2 371.2 L 51.2 384 L 51.2 384 L 64 384 L 128 384 L 128 371.2 L 128 371.2 L 128 320 L 128 320 L 128 307.2 L 128 307.2 L 115.2 307.2 L 64 307.2 Z M 76.8 358.4 L 76.8 332.8 L 76.8 358.4 L 76.8 332.8 L 102.4 332.8 L 102.4 332.8 L 102.4 358.4 L 102.4 358.4 L 76.8 358.4 L 76.8 358.4 Z M 265.6 192 L 263.2 201.6 L 265.6 192 L 263.2 201.6 L 240 281.6 L 240 281.6 L 230.4 281.6 L 204.8 281.6 L 204.8 307.2 L 204.8 307.2 L 204.8 384 L 204.8 384 L 204.8 396.8 L 204.8 396.8 L 204.8 422.4 L 204.8 422.4 L 204.8 460.8 L 204.8 460.8 L 230.4 460.8 L 230.4 460.8 L 230.4 422.4 L 230.4 422.4 L 486.4 422.4 L 486.4 422.4 L 486.4 460.8 L 486.4 460.8 L 512 460.8 L 512 460.8 L 512 422.4 L 512 422.4 L 512 396.8 L 512 396.8 L 512 384 L 512 384 L 512 307.2 L 512 307.2 L 512 281.6 L 512 281.6 L 486.4 281.6 L 476.8 281.6 L 453.6 201.6 L 453.6 201.6 L 451.2 192 L 451.2 192 L 441.6 192 L 265.6 192 Z M 486.4 307.2 L 486.4 384 L 486.4 307.2 L 486.4 384 L 486.4 396.8 L 486.4 396.8 L 230.4 396.8 L 230.4 396.8 L 230.4 384 L 230.4 384 L 230.4 307.2 L 230.4 307.2 L 249.6 307.2 L 249.6 307.2 Q 249.6 307.2 249.6 307.2 Q 249.6 307.2 249.6 307.2 L 467.2 307.2 L 467.2 307.2 Q 467.2 307.2 467.2 307.2 Q 467.2 307.2 467.2 307.2 L 486.4 307.2 L 486.4 307.2 Z M 432 217.6 L 450.4 281.6 L 432 217.6 L 450.4 281.6 L 266.4 281.6 L 266.4 281.6 L 284.8 217.6 L 284.8 217.6 L 432 217.6 L 432 217.6 Z M 268.8 371.2 Q 286.4 369.6 288 352 Q 286.4 334.4 268.8 332.8 Q 251.2 334.4 249.6 352 Q 251.2 369.6 268.8 371.2 L 268.8 371.2 Z M 467.2 352 Q 465.6 334.4 448 332.8 Q 430.4 334.4 428.8 352 Q 430.4 369.6 448 371.2 Q 465.6 369.6 467.2 352 L 467.2 352 Z" />
</svg>