<svg xmlns="http://www.w3.org/2000/svg" viewBox="0 0 512 512">
  <path d="M 154.28572 73.14286 Q 190.85715 37.714287 242.28572 36.57143 Q 294.85715 37.714287 329.14285 72 Q 364.57144 107.42857 365.7143 158.85715 Q 364.57144 211.42857 326.85715 248 L 78.85714 480 L 78.85714 480 L 73.14286 485.7143 L 73.14286 485.7143 L 73.14286 512 L 73.14286 512 L 91.42857 512 L 438.85715 512 L 438.85715 475.42856 L 438.85715 475.42856 L 420.57144 475.42856 L 138.28572 475.42856 L 352 274.2857 L 352 274.2857 Q 401.14285 227.42857 402.2857 158.85715 Q 400 91.42857 355.42856 46.857143 Q 309.7143 1.1428572 242.28572 0 Q 176 1.1428572 128 46.857143 L 97.14286 78.85714 L 97.14286 78.85714 L 83.42857 91.42857 L 83.42857 91.42857 L 109.71429 117.71429 L 109.71429 117.71429 L 122.28571 104 L 122.28571 104 L 154.28572 73.14286 L 154.28572 73.14286 Z" />
</svg>