<svg xmlns="http://www.w3.org/2000/svg" viewBox="0 0 512 512">
  <path d="M 237.71428571428572 36.57142857142857 L 237.71428571428572 109.71428571428571 L 237.71428571428572 36.57142857142857 L 237.71428571428572 109.71428571428571 L 310.85714285714283 109.71428571428571 L 310.85714285714283 109.71428571428571 L 310.85714285714283 36.57142857142857 L 310.85714285714283 36.57142857142857 L 237.71428571428572 36.57142857142857 L 237.71428571428572 36.57142857142857 Z M 201.14285714285714 0 L 237.71428571428572 0 L 201.14285714285714 0 L 347.42857142857144 0 L 347.42857142857144 36.57142857142857 L 347.42857142857144 36.57142857142857 L 347.42857142857144 109.71428571428571 L 347.42857142857144 109.71428571428571 L 347.42857142857144 146.28571428571428 L 347.42857142857144 146.28571428571428 L 310.85714285714283 146.28571428571428 L 201.14285714285714 146.28571428571428 L 201.14285714285714 109.71428571428571 L 201.14285714285714 109.71428571428571 L 201.14285714285714 36.57142857142857 L 201.14285714285714 36.57142857142857 L 201.14285714285714 0 L 201.14285714285714 0 Z M 218.28571428571428 475.42857142857144 L 310.85714285714283 336 L 218.28571428571428 475.42857142857144 L 310.85714285714283 336 L 310.85714285714283 292.57142857142856 L 310.85714285714283 292.57142857142856 L 249.14285714285714 292.57142857142856 L 249.14285714285714 292.57142857142856 L 210.28571428571428 475.42857142857144 L 210.28571428571428 475.42857142857144 L 218.28571428571428 475.42857142857144 L 218.28571428571428 475.42857142857144 Z M 172.57142857142858 475.42857142857144 L 219.42857142857142 256 L 172.57142857142858 475.42857142857144 L 219.42857142857142 256 L 310.85714285714283 256 L 347.42857142857144 256 L 347.42857142857144 292.57142857142856 L 347.42857142857144 292.57142857142856 L 347.42857142857144 347.42857142857144 L 347.42857142857144 347.42857142857144 L 237.71428571428572 512 L 237.71428571428572 512 L 202.28571428571428 512 L 164.57142857142858 512 L 172.57142857142858 475.42857142857144 L 172.57142857142858 475.42857142857144 Z" />
</svg>