<svg viewBox="0 0 328 518">
  <path
    d="M 216 54 Q 215 27 192 12 Q 168 0 144 12 Q 121 27 120 54 Q 121 81 144 96 Q 168 108 192 96 Q 215 81 216 54 L 216 54 Z M 72 390 L 104 390 L 104 494 L 104 518 L 152 518 L 152 494 L 152 390 L 168 390 L 184 390 L 184 494 L 184 518 L 232 518 L 232 494 L 232 390 L 280 390 L 328 390 L 328 342 L 328 326 Q 327 290 306 265 Q 284 239 250 232 L 232 134 L 192 134 L 168 134 L 125 134 L 109 134 L 95 134 L 88 147 L 11 291 L 0 312 L 42 335 L 53 313 L 72 278 L 72 342 L 72 390 L 72 390 Z M 192 182 L 192 182 L 203 241 L 209 273 L 241 279 Q 258 282 269 295 Q 280 308 280 326 L 280 342 L 168 342 L 120 342 L 120 188 L 120 188 L 120 182 L 123 182 L 152 182 L 168 182 L 192 182 L 192 182 Z"
  />
</svg>