<svg xmlns="http://www.w3.org/2000/svg" viewBox="0 0 512 512">
  <path d="M 42.666666666666664 483.55555555555554 L 0 483.55555555555554 L 42.666666666666664 483.55555555555554 L 0 483.55555555555554 L 3.5555555555555554 440.8888888888889 L 3.5555555555555554 440.8888888888889 L 28.444444444444443 170.66666666666666 L 28.444444444444443 170.66666666666666 L 256 28.444444444444443 L 256 28.444444444444443 L 276.44444444444446 42.666666666666664 L 276.44444444444446 42.666666666666664 L 277.3333333333333 42.666666666666664 L 277.3333333333333 42.666666666666664 L 277.3333333333333 43.55555555555556 L 277.3333333333333 43.55555555555556 L 483.55555555555554 184.88888888888889 L 483.55555555555554 184.88888888888889 L 507.55555555555554 440.8888888888889 L 507.55555555555554 440.8888888888889 L 512 483.55555555555554 L 512 483.55555555555554 L 469.3333333333333 483.55555555555554 L 42.666666666666664 483.55555555555554 Z M 368 440.8888888888889 L 464.8888888888889 440.8888888888889 L 368 440.8888888888889 L 464.8888888888889 440.8888888888889 L 442.6666666666667 208.88888888888889 L 442.6666666666667 208.88888888888889 L 277.3333333333333 95.11111111111111 L 277.3333333333333 95.11111111111111 L 277.3333333333333 276.44444444444446 L 277.3333333333333 276.44444444444446 L 368 440.8888888888889 L 368 440.8888888888889 Z M 234.66666666666666 92.44444444444444 L 69.33333333333333 195.55555555555554 L 234.66666666666666 92.44444444444444 L 69.33333333333333 195.55555555555554 L 47.111111111111114 440.8888888888889 L 47.111111111111114 440.8888888888889 L 234.66666666666666 440.8888888888889 L 234.66666666666666 440.8888888888889 L 234.66666666666666 320 L 234.66666666666666 320 L 234.66666666666666 199.11111111111111 L 234.66666666666666 199.11111111111111 L 234.66666666666666 92.44444444444444 L 234.66666666666666 92.44444444444444 Z" />
</svg>