<svg xmlns="http://www.w3.org/2000/svg" viewBox="0 0 512 512">
  <path d="M 160 464 L 160 512 L 160 464 L 160 512 L 208 480 L 208 480 L 304 416 L 304 416 L 464 416 L 512 416 L 512 368 L 512 368 L 512 48 L 512 48 L 512 0 L 512 0 L 464 0 L 0 0 L 0 48 L 0 48 L 0 368 L 0 368 L 0 416 L 0 416 L 48 416 L 160 416 L 160 454 L 160 454 L 160 464 L 160 464 Z M 277 376 L 208 422 L 277 376 L 208 422 L 208 416 L 208 416 L 208 368 L 208 368 L 160 368 L 48 368 L 48 48 L 48 48 L 464 48 L 464 48 L 464 368 L 464 368 L 304 368 L 290 368 L 277 376 L 277 376 Z M 184 184 L 160 184 L 184 184 L 160 184 L 160 232 L 160 232 L 184 232 L 352 232 L 352 184 L 352 184 L 328 184 L 184 184 Z" />
</svg>