<svg xmlns="http://www.w3.org/2000/svg" viewBox="0 0 512 512">
  <path d="M 352 280 L 304 280 L 352 280 L 96 280 L 96 232 L 96 232 L 96 96 L 96 96 L 48 96 L 48 96 L 48 328 L 48 328 L 304 328 L 352 328 L 352 376 L 352 376 L 352 396 L 352 396 L 444 304 L 444 304 L 352 212 L 352 212 L 352 232 L 352 232 L 352 280 L 352 280 Z M 478 270 L 512 304 L 478 270 L 512 304 L 478 338 L 478 338 L 352 464 L 352 464 L 304 464 L 304 464 L 304 424 L 304 424 L 304 416 L 304 416 L 304 376 L 304 376 L 256 376 L 0 376 L 0 328 L 0 328 L 0 96 L 0 96 L 0 48 L 0 48 L 48 48 L 144 48 L 144 96 L 144 96 L 144 184 L 144 184 L 144 232 L 144 232 L 192 232 L 304 232 L 304 192 L 304 192 L 304 184 L 304 184 L 304 144 L 304 144 L 352 144 L 352 144 L 478 270 L 478 270 Z" />
</svg>