<svg xmlns="http://www.w3.org/2000/svg" viewBox="0 0 512 512">
  <path d="M 316.57144 0 L 292.57144 0 L 316.57144 0 L 281.14285 0 L 273.14285 8 L 273.14285 8 L 256 25.142857 L 256 25.142857 L 238.85715 8 L 238.85715 8 L 230.85715 0 L 230.85715 0 L 219.42857 0 L 195.42857 0 Q 158.85715 1.1428572 134.85715 25.142857 Q 110.85714 49.142857 109.71429 85.71429 Q 109.71429 100.57143 115.42857 115.42857 Q 100.57143 109.71429 85.71429 109.71429 Q 49.142857 110.85714 25.142857 134.85715 Q 1.1428572 158.85715 0 195.42857 L 0 219.42857 L 0 219.42857 L 0 230.85715 L 0 230.85715 L 8 238.85715 L 8 238.85715 L 25.142857 256 L 25.142857 256 L 8 273.14285 L 8 273.14285 L 0 281.14285 L 0 281.14285 L 0 292.57144 L 0 292.57144 L 0 316.57144 L 0 316.57144 Q 1.1428572 353.14285 25.142857 377.14285 Q 49.142857 401.14285 85.71429 402.2857 Q 100.57143 402.2857 115.42857 396.57144 Q 109.71429 411.42856 109.71429 426.2857 Q 110.85714 462.85715 134.85715 486.85715 Q 158.85715 510.85715 195.42857 512 L 219.42857 512 L 230.85715 512 L 238.85715 504 L 238.85715 504 L 256 486.85715 L 256 486.85715 L 273.14285 504 L 273.14285 504 L 281.14285 512 L 281.14285 512 L 292.57144 512 L 316.57144 512 Q 353.14285 510.85715 377.14285 486.85715 Q 401.14285 462.85715 402.2857 426.2857 Q 402.2857 411.42856 396.57144 396.57144 Q 411.42856 402.2857 426.2857 402.2857 Q 462.85715 401.14285 486.85715 377.14285 Q 510.85715 353.14285 512 316.57144 L 512 292.57144 L 512 292.57144 L 512 281.14285 L 512 281.14285 L 504 273.14285 L 504 273.14285 L 486.85715 256 L 486.85715 256 L 504 238.85715 L 504 238.85715 L 512 230.85715 L 512 230.85715 L 512 219.42857 L 512 219.42857 L 512 195.42857 L 512 195.42857 Q 510.85715 158.85715 486.85715 134.85715 Q 462.85715 110.85714 426.2857 109.71429 Q 411.42856 109.71429 396.57144 115.42857 Q 402.2857 100.57143 402.2857 85.71429 Q 401.14285 49.142857 377.14285 25.142857 Q 353.14285 1.1428572 316.57144 0 L 316.57144 0 Z M 275.42856 83.42857 L 304 54.857143 L 275.42856 83.42857 L 304 54.857143 L 316.57144 54.857143 L 316.57144 54.857143 Q 330.2857 54.857143 338.2857 64 Q 347.42856 72 347.42856 85.71429 Q 347.42856 93.71429 344 100.57143 L 305.14285 169.14285 L 305.14285 169.14285 L 289.14285 197.71428 L 289.14285 197.71428 L 314.2857 222.85715 L 314.2857 222.85715 L 342.85715 206.85715 L 342.85715 206.85715 L 411.42856 168 L 411.42856 168 Q 418.2857 164.57143 426.2857 164.57143 Q 440 164.57143 448 173.71428 Q 457.14285 181.71428 457.14285 195.42857 L 457.14285 208 L 457.14285 208 L 428.57144 236.57143 L 428.57144 236.57143 L 409.14285 256 L 409.14285 256 L 428.57144 275.42856 L 428.57144 275.42856 L 457.14285 304 L 457.14285 304 L 457.14285 316.57144 L 457.14285 316.57144 Q 457.14285 330.2857 448 338.2857 Q 440 347.42856 426.2857 347.42856 Q 418.2857 347.42856 411.42856 344 L 342.85715 305.14285 L 342.85715 305.14285 L 314.2857 289.14285 L 314.2857 289.14285 L 289.14285 314.2857 L 289.14285 314.2857 L 305.14285 342.85715 L 305.14285 342.85715 L 344 411.42856 L 344 411.42856 Q 347.42856 418.2857 347.42856 426.2857 Q 347.42856 440 338.2857 448 Q 330.2857 457.14285 316.57144 457.14285 L 304 457.14285 L 304 457.14285 L 275.42856 428.57144 L 275.42856 428.57144 L 256 409.14285 L 256 409.14285 L 236.57143 428.57144 L 236.57143 428.57144 L 208 457.14285 L 208 457.14285 L 195.42857 457.14285 L 195.42857 457.14285 Q 181.71428 457.14285 173.71428 448 Q 164.57143 440 164.57143 426.2857 Q 164.57143 418.2857 168 411.42856 L 206.85715 342.85715 L 206.85715 342.85715 L 222.85715 314.2857 L 222.85715 314.2857 L 197.71428 289.14285 L 197.71428 289.14285 L 169.14285 305.14285 L 169.14285 305.14285 L 100.57143 344 L 100.57143 344 Q 93.71429 347.42856 85.71429 347.42856 Q 57.142857 345.14285 54.857143 316.57144 L 54.857143 304 L 54.857143 304 L 83.42857 275.42856 L 83.42857 275.42856 L 102.85714 256 L 102.85714 256 L 83.42857 236.57143 L 83.42857 236.57143 L 54.857143 208 L 54.857143 208 L 54.857143 195.42857 L 54.857143 195.42857 Q 54.857143 181.71428 64 173.71428 Q 72 164.57143 85.71429 164.57143 Q 93.71429 164.57143 100.57143 168 L 169.14285 206.85715 L 169.14285 206.85715 L 197.71428 222.85715 L 197.71428 222.85715 L 222.85715 197.71428 L 222.85715 197.71428 L 206.85715 169.14285 L 206.85715 169.14285 L 168 100.57143 L 168 100.57143 Q 164.57143 93.71429 164.57143 85.71429 Q 164.57143 72 173.71428 64 Q 181.71428 54.857143 195.42857 54.857143 L 208 54.857143 L 208 54.857143 L 236.57143 83.42857 L 236.57143 83.42857 L 256 102.85714 L 256 102.85714 L 275.42856 83.42857 L 275.42856 83.42857 Z" />
</svg>