<svg xmlns="http://www.w3.org/2000/svg" viewBox="0 0 512 512">
  <path d="M 457.14285714285717 54.857142857142854 L 457.14285714285717 457.14285714285717 L 457.14285714285717 54.857142857142854 L 457.14285714285717 457.14285714285717 L 54.857142857142854 457.14285714285717 L 54.857142857142854 457.14285714285717 L 54.857142857142854 54.857142857142854 L 54.857142857142854 54.857142857142854 L 457.14285714285717 54.857142857142854 L 457.14285714285717 54.857142857142854 Z M 54.857142857142854 0 L 0 0 L 54.857142857142854 0 L 0 0 L 0 54.857142857142854 L 0 54.857142857142854 L 0 457.14285714285717 L 0 457.14285714285717 L 0 512 L 0 512 L 54.857142857142854 512 L 512 512 L 512 457.14285714285717 L 512 457.14285714285717 L 512 54.857142857142854 L 512 54.857142857142854 L 512 0 L 512 0 L 457.14285714285717 0 L 54.857142857142854 0 Z M 192 109.71428571428571 L 137.14285714285714 109.71428571428571 L 192 109.71428571428571 L 137.14285714285714 109.71428571428571 L 137.14285714285714 137.14285714285714 L 137.14285714285714 137.14285714285714 L 137.14285714285714 173.71428571428572 L 137.14285714285714 173.71428571428572 L 118.85714285714286 173.71428571428572 L 91.42857142857143 173.71428571428572 L 91.42857142857143 228.57142857142858 L 91.42857142857143 228.57142857142858 L 118.85714285714286 228.57142857142858 L 137.14285714285714 228.57142857142858 L 137.14285714285714 374.85714285714283 L 137.14285714285714 374.85714285714283 L 137.14285714285714 402.2857142857143 L 137.14285714285714 402.2857142857143 L 192 402.2857142857143 L 192 402.2857142857143 L 192 374.85714285714283 L 192 374.85714285714283 L 192 228.57142857142858 L 192 228.57142857142858 L 210.28571428571428 228.57142857142858 L 237.71428571428572 228.57142857142858 L 237.71428571428572 173.71428571428572 L 237.71428571428572 173.71428571428572 L 210.28571428571428 173.71428571428572 L 192 173.71428571428572 L 192 137.14285714285714 L 192 137.14285714285714 L 192 109.71428571428571 L 192 109.71428571428571 Z M 374.85714285714283 137.14285714285714 L 374.85714285714283 109.71428571428571 L 374.85714285714283 137.14285714285714 L 374.85714285714283 109.71428571428571 L 320 109.71428571428571 L 320 109.71428571428571 L 320 137.14285714285714 L 320 137.14285714285714 L 320 283.42857142857144 L 320 283.42857142857144 L 301.7142857142857 283.42857142857144 L 274.2857142857143 283.42857142857144 L 274.2857142857143 338.2857142857143 L 274.2857142857143 338.2857142857143 L 301.7142857142857 338.2857142857143 L 320 338.2857142857143 L 320 374.85714285714283 L 320 374.85714285714283 L 320 402.2857142857143 L 320 402.2857142857143 L 374.85714285714283 402.2857142857143 L 374.85714285714283 402.2857142857143 L 374.85714285714283 374.85714285714283 L 374.85714285714283 374.85714285714283 L 374.85714285714283 338.2857142857143 L 374.85714285714283 338.2857142857143 L 393.14285714285717 338.2857142857143 L 420.57142857142856 338.2857142857143 L 420.57142857142856 283.42857142857144 L 420.57142857142856 283.42857142857144 L 393.14285714285717 283.42857142857144 L 374.85714285714283 283.42857142857144 L 374.85714285714283 137.14285714285714 L 374.85714285714283 137.14285714285714 Z" />
</svg>