<svg xmlns="http://www.w3.org/2000/svg" viewBox="0 0 320 512">
    <path d="M 32 32 L 32 352 Q 33 406 69 443 Q 106 479 160 480 Q 214 479 251 443 Q 287 406 288 352 L 288 32 L 32 32 L 32 32 Z M 0 0 L 32 0 L 288 0 L 320 0 L 320 32 L 320 352 Q 318 420 273 465 Q 228 510 160 512 Q 92 510 47 465 Q 2 420 0 352 L 0 32 L 0 0 L 0 0 Z M 160 448 Q 128 447 112 420 Q 96 392 112 364 Q 128 337 160 336 Q 192 337 208 364 Q 224 392 208 420 Q 192 447 160 448 L 160 448 Z M 160 232 Q 138 234 136 256 Q 138 278 160 280 Q 182 278 184 256 Q 182 234 160 232 L 160 232 Z M 160 312 Q 128 311 112 284 Q 96 256 112 228 Q 128 201 160 200 Q 192 201 208 228 Q 224 256 208 284 Q 192 311 160 312 L 160 312 Z M 136 120 Q 138 142 160 144 Q 182 142 184 120 Q 182 98 160 96 Q 138 98 136 120 L 136 120 Z M 216 120 Q 215 152 188 168 Q 160 184 132 168 Q 105 152 104 120 Q 105 88 132 72 Q 160 56 188 72 Q 215 88 216 120 L 216 120 Z"/>
</svg>
