<svg xmlns="http://www.w3.org/2000/svg" viewBox="0 0 512 512">
  <path d="M 139 0 L 163 0 L 139 0 L 299 0 L 299 24 L 299 24 L 299 40 L 299 40 L 363 40 L 373 40 L 380 47 L 380 47 L 436 103 L 436 103 L 453 120 L 453 120 L 419 154 L 419 154 L 402 137 L 402 137 L 353 88 L 353 88 L 299 88 L 299 88 L 299 128 L 299 128 L 251 128 L 251 128 L 251 48 L 251 48 L 187 48 L 187 48 L 187 128 L 187 128 L 139 128 L 139 128 L 139 24 L 139 24 L 139 0 L 139 0 Z M 107 512 L 59 512 L 107 512 L 59 512 L 62 464 L 62 464 L 83 160 L 83 160 L 355 160 L 355 160 L 376 464 L 376 464 L 379 512 L 379 512 L 331 512 L 107 512 Z M 328 464 L 310 208 L 328 464 L 310 208 L 128 208 L 128 208 L 110 464 L 110 464 L 328 464 L 328 464 Z M 219 272 L 263 326 L 219 272 L 263 326 Q 275 341 275 361 Q 274 384 259 400 Q 243 416 220 416 L 218 416 L 218 416 Q 195 416 179 400 Q 163 384 163 361 Q 163 341 175 326 L 219 272 L 219 272 Z" />
</svg>