<svg xmlns="http://www.w3.org/2000/svg" viewBox="0 0 512 512">
  <path d="M 199.11111111111111 28.444444444444443 L 0 28.444444444444443 L 199.11111111111111 28.444444444444443 L 0 28.444444444444443 L 0 483.55555555555554 L 0 483.55555555555554 L 341.3333333333333 483.55555555555554 L 341.3333333333333 483.55555555555554 L 341.3333333333333 408 L 341.3333333333333 408 L 339.55555555555554 409.77777777777777 L 339.55555555555554 409.77777777777777 L 232.88888888888889 424.8888888888889 L 232.88888888888889 424.8888888888889 L 223.11111111111111 426.6666666666667 L 223.11111111111111 426.6666666666667 L 212.44444444444446 428.44444444444446 L 212.44444444444446 428.44444444444446 L 208 418.6666666666667 L 208 418.6666666666667 L 197.33333333333334 398.22222222222223 L 197.33333333333334 398.22222222222223 L 186.66666666666666 398.22222222222223 L 186.66666666666666 398.22222222222223 L 176 418.6666666666667 L 176 418.6666666666667 L 172.44444444444446 426.6666666666667 L 172.44444444444446 426.6666666666667 L 163.55555555555554 426.6666666666667 L 145.77777777777777 426.6666666666667 L 143.11111111111111 416.8888888888889 L 143.11111111111111 416.8888888888889 L 128 367.1111111111111 L 128 367.1111111111111 L 112.88888888888889 416.8888888888889 L 112.88888888888889 416.8888888888889 L 110.22222222222223 426.6666666666667 L 110.22222222222223 426.6666666666667 L 99.55555555555556 426.6666666666667 L 56.888888888888886 426.6666666666667 L 56.888888888888886 398.22222222222223 L 56.888888888888886 398.22222222222223 L 71.11111111111111 398.22222222222223 L 88.88888888888889 398.22222222222223 L 107.55555555555556 336.8888888888889 L 107.55555555555556 336.8888888888889 L 110.22222222222223 327.1111111111111 L 110.22222222222223 327.1111111111111 L 120.88888888888889 327.1111111111111 L 145.77777777777777 327.1111111111111 L 148.44444444444446 336.8888888888889 L 148.44444444444446 336.8888888888889 L 162.66666666666666 383.1111111111111 L 162.66666666666666 383.1111111111111 L 165.33333333333334 377.77777777777777 L 165.33333333333334 377.77777777777777 L 168.88888888888889 369.77777777777777 L 168.88888888888889 369.77777777777777 L 177.77777777777777 369.77777777777777 L 215.11111111111111 369.77777777777777 L 218.66666666666666 377.77777777777777 L 218.66666666666666 377.77777777777777 L 224.88888888888889 390.22222222222223 L 224.88888888888889 390.22222222222223 L 237.33333333333334 306.6666666666667 L 237.33333333333334 306.6666666666667 L 341.3333333333333 202.66666666666666 L 341.3333333333333 202.66666666666666 L 341.3333333333333 170.66666666666666 L 341.3333333333333 170.66666666666666 L 199.11111111111111 170.66666666666666 L 199.11111111111111 170.66666666666666 L 199.11111111111111 28.444444444444443 L 199.11111111111111 28.444444444444443 Z M 227.55555555555554 28.444444444444443 L 227.55555555555554 142.22222222222223 L 227.55555555555554 28.444444444444443 L 227.55555555555554 142.22222222222223 L 341.3333333333333 142.22222222222223 L 341.3333333333333 142.22222222222223 L 227.55555555555554 28.444444444444443 L 227.55555555555554 28.444444444444443 Z M 448.8888888888889 135.11111111111111 L 412.44444444444446 171.55555555555554 L 448.8888888888889 135.11111111111111 L 412.44444444444446 171.55555555555554 L 475.55555555555554 234.66666666666666 L 475.55555555555554 234.66666666666666 L 512 198.22222222222223 L 512 198.22222222222223 L 448.8888888888889 135.11111111111111 L 448.8888888888889 135.11111111111111 Z M 392 192 L 266.6666666666667 317.3333333333333 L 392 192 L 266.6666666666667 317.3333333333333 L 256 391.1111111111111 L 256 391.1111111111111 L 329.77777777777777 380.44444444444446 L 329.77777777777777 380.44444444444446 L 455.1111111111111 255.11111111111111 L 455.1111111111111 255.11111111111111 L 392 192 L 392 192 Z" />
</svg>