<svg viewBox="0 0 384 512">
  <path
    d="M 224 0 L 0 0 L 0 512 L 384 512 L 384 160 L 224 160 L 224 0 L 224 0 Z M 256 0 L 256 128 L 384 128 L 256 0 L 256 0 Z M 96 32 L 112 32 L 144 32 L 160 32 L 160 64 L 144 64 L 112 64 L 96 64 L 96 32 L 96 32 Z M 96 96 L 112 96 L 144 96 L 160 96 L 160 128 L 144 128 L 112 128 L 96 128 L 96 96 L 96 96 Z M 96 160 L 112 160 L 144 160 L 160 160 L 160 192 L 144 192 L 112 192 L 96 192 L 96 160 L 96 160 Z M 64 416 L 64 344 L 96 224 L 160 224 L 192 344 L 192 416 L 64 416 L 64 416 Z M 112 336 L 96 336 L 96 368 L 112 368 L 144 368 L 160 368 L 160 336 L 144 336 L 112 336 L 112 336 Z"
  />
</svg>