<svg xmlns="http://www.w3.org/2000/svg" viewBox="0 0 512 512">
  <path d="M 118.85714285714286 0 L 91.42857142857143 0 L 118.85714285714286 0 L 91.42857142857143 0 L 91.42857142857143 27.428571428571427 L 91.42857142857143 27.428571428571427 L 91.42857142857143 112 L 91.42857142857143 112 Q 91.42857142857143 156.57142857142858 121.14285714285714 190.85714285714286 L 166.85714285714286 242.28571428571428 L 166.85714285714286 242.28571428571428 L 86.85714285714286 298.2857142857143 L 86.85714285714286 298.2857142857143 Q 37.714285714285715 333.7142857142857 36.57142857142857 395.42857142857144 L 36.57142857142857 484.57142857142856 L 36.57142857142857 484.57142857142856 L 36.57142857142857 512 L 36.57142857142857 512 L 64 512 L 307.42857142857144 512 L 315.42857142857144 499.42857142857144 L 315.42857142857144 499.42857142857144 L 348.57142857142856 450.2857142857143 L 348.57142857142856 450.2857142857143 L 402.2857142857143 512 L 402.2857142857143 512 L 475.42857142857144 512 L 475.42857142857144 512 L 472 508.57142857142856 L 472 508.57142857142856 L 379.42857142857144 402.2857142857143 L 379.42857142857144 402.2857142857143 L 470.85714285714283 261.7142857142857 L 470.85714285714283 261.7142857142857 L 425.14285714285717 232 L 425.14285714285717 232 L 341.7142857142857 358.85714285714283 L 341.7142857142857 358.85714285714283 L 248 252.57142857142858 L 248 252.57142857142858 L 315.42857142857144 205.71428571428572 L 315.42857142857144 205.71428571428572 Q 364.57142857142856 169.14285714285714 365.7142857142857 107.42857142857143 L 365.7142857142857 27.428571428571427 L 365.7142857142857 27.428571428571427 L 365.7142857142857 0 L 365.7142857142857 0 L 338.2857142857143 0 L 118.85714285714286 0 Z M 283.42857142857144 160 L 211.42857142857142 210.28571428571428 L 283.42857142857144 160 L 211.42857142857142 210.28571428571428 L 162.28571428571428 154.28571428571428 L 162.28571428571428 154.28571428571428 Q 146.28571428571428 136 146.28571428571428 112 L 146.28571428571428 54.857142857142854 L 146.28571428571428 54.857142857142854 L 310.85714285714283 54.857142857142854 L 310.85714285714283 54.857142857142854 L 310.85714285714283 107.42857142857143 L 310.85714285714283 107.42857142857143 Q 309.7142857142857 140.57142857142858 283.42857142857144 160 L 283.42857142857144 160 Z M 118.85714285714286 342.85714285714283 L 202.28571428571428 283.42857142857144 L 118.85714285714286 342.85714285714283 L 202.28571428571428 283.42857142857144 L 310.85714285714283 406.85714285714283 L 310.85714285714283 406.85714285714283 L 277.7142857142857 457.14285714285717 L 277.7142857142857 457.14285714285717 L 91.42857142857143 457.14285714285717 L 91.42857142857143 457.14285714285717 L 91.42857142857143 395.42857142857144 L 91.42857142857143 395.42857142857144 Q 92.57142857142857 362.2857142857143 118.85714285714286 342.85714285714283 L 118.85714285714286 342.85714285714283 Z" />
</svg>