<svg xmlns="http://www.w3.org/2000/svg" viewBox="0 0 512 512">
  <path d="M 246.4 302 L 373.6 56.4 L 246.4 302 L 373.6 56.4 L 407.2 74 L 407.2 74 L 215.2 445.2 L 215.2 445.2 L 210.4 455.6 L 210.4 455.6 L 198.4 455.6 L 0 455.6 L 0 436.4 L 0 436.4 L 0 321.2 L 0 321.2 L 0 302 L 0 302 L 19.2 302 L 246.4 302 Z M 226.4 340.4 L 115.2 340.4 L 226.4 340.4 L 115.2 340.4 L 115.2 417.2 L 115.2 417.2 L 186.4 417.2 L 186.4 417.2 L 226.4 340.4 L 226.4 340.4 Z M 38.4 340.4 L 38.4 417.2 L 38.4 340.4 L 38.4 417.2 L 76.8 417.2 L 76.8 417.2 L 76.8 340.4 L 76.8 340.4 L 38.4 340.4 L 38.4 340.4 Z M 345.6 391.6 L 345.6 417.2 L 345.6 391.6 L 345.6 417.2 L 473.6 417.2 L 473.6 417.2 L 473.6 391.6 L 473.6 391.6 L 345.6 391.6 L 345.6 391.6 Z M 307.2 353.2 L 345.6 353.2 L 307.2 353.2 L 512 353.2 L 512 391.6 L 512 391.6 L 512 417.2 L 512 417.2 L 512 455.6 L 512 455.6 L 473.6 455.6 L 307.2 455.6 L 307.2 417.2 L 307.2 417.2 L 307.2 391.6 L 307.2 391.6 L 307.2 353.2 L 307.2 353.2 Z" />
</svg>