<svg xmlns="http://www.w3.org/2000/svg" viewBox="0 0 512 512">
  <path d="M 78.22222 53.333332 L 28.444445 28.444445 L 78.22222 53.333332 L 28.444445 28.444445 L 15.111111 54.22222 L 15.111111 54.22222 Q 0 96 0 142.22223 Q 0 188.44444 15.111111 230.22223 L 28.444445 256 L 28.444445 256 L 78.22222 231.11111 L 78.22222 231.11111 Q 56.88889 190.22223 56.88889 142.22223 Q 56.88889 94.22222 78.22222 53.333332 L 78.22222 53.333332 Z M 116.44444 72 Q 99.55556 104 99.55556 142.22223 Q 99.55556 180.44444 116.44444 212.44444 L 153.77777 192.88889 L 153.77777 192.88889 Q 142.22223 169.77777 142.22223 142.22223 Q 142.22223 114.666664 154.66667 91.55556 L 116.44444 72 L 116.44444 72 Z M 358.22223 91.55556 Q 369.77777 114.666664 369.77777 142.22223 Q 369.77777 169.77777 358.22223 192.88889 L 395.55554 212.44444 L 395.55554 212.44444 Q 412.44446 180.44444 412.44446 142.22223 Q 412.44446 104 396.44446 72 L 358.22223 91.55556 L 358.22223 91.55556 Z M 433.77777 231.11111 L 483.55554 256 L 433.77777 231.11111 L 483.55554 256 L 496.8889 230.22223 L 496.8889 230.22223 Q 512 188.44444 512 142.22223 Q 512 96 496.8889 54.22222 L 483.55554 28.444445 L 483.55554 28.444445 L 433.77777 53.333332 L 433.77777 53.333332 Q 455.1111 94.22222 455.1111 142.22223 Q 455.1111 190.22223 433.77777 231.11111 L 433.77777 231.11111 Z M 212.44444 178.66667 L 71.111115 483.55554 L 212.44444 178.66667 L 71.111115 483.55554 L 134.22223 483.55554 L 134.22223 483.55554 L 160 426.66666 L 160 426.66666 L 352 426.66666 L 352 426.66666 L 377.77777 483.55554 L 377.77777 483.55554 L 440.8889 483.55554 L 440.8889 483.55554 L 299.55554 178.66667 L 299.55554 178.66667 Q 312 163.55556 312.8889 142.22223 Q 312 118.22222 296 102.22222 Q 280 86.22222 256 85.333336 Q 232 86.22222 216 102.22222 Q 200 118.22222 199.11111 142.22223 Q 200 163.55556 212.44444 178.66667 L 212.44444 178.66667 Z M 325.33334 369.77777 L 186.66667 369.77777 L 325.33334 369.77777 L 186.66667 369.77777 L 200 341.33334 L 200 341.33334 L 312 341.33334 L 312 341.33334 L 325.33334 369.77777 L 325.33334 369.77777 Z M 256 220.44444 L 285.33334 284.44446 L 256 220.44444 L 285.33334 284.44446 L 226.66667 284.44446 L 226.66667 284.44446 L 256 220.44444 L 256 220.44444 Z" />
</svg>