<svg xmlns="http://www.w3.org/2000/svg" viewBox="0 0 512 512">
  <path d="M 51.2 76.8 L 76.8 76.8 L 51.2 76.8 L 460.8 76.8 L 460.8 102.4 L 460.8 102.4 L 460.8 332.8 L 460.8 332.8 L 409.6 332.8 L 409.6 332.8 L 409.6 128 L 409.6 128 L 102.4 128 L 102.4 128 L 102.4 332.8 L 102.4 332.8 L 51.2 332.8 L 51.2 332.8 L 51.2 102.4 L 51.2 102.4 L 51.2 76.8 L 51.2 76.8 Z M 0 396.8 L 0 358.4 L 0 396.8 L 0 358.4 L 512 358.4 L 512 358.4 L 512 396.8 L 512 396.8 L 473.6 435.2 L 473.6 435.2 L 38.4 435.2 L 38.4 435.2 L 0 396.8 L 0 396.8 Z M 224.8 218.4 L 200 243.2 L 224.8 218.4 L 200 243.2 L 224.8 268 L 224.8 268 L 238.4 281.6 L 238.4 281.6 L 211.2 308.8 L 211.2 308.8 L 197.6 295.2 L 197.6 295.2 L 159.2 256.8 L 159.2 256.8 L 145.6 243.2 L 145.6 243.2 L 159.2 229.6 L 159.2 229.6 L 197.6 191.2 L 197.6 191.2 L 211.2 177.6 L 211.2 177.6 L 238.4 204.8 L 238.4 204.8 L 224.8 218.4 L 224.8 218.4 Z M 314.4 191.2 L 352.8 229.6 L 314.4 191.2 L 352.8 229.6 L 366.4 243.2 L 366.4 243.2 L 352.8 256.8 L 352.8 256.8 L 314.4 295.2 L 314.4 295.2 L 300.8 308.8 L 300.8 308.8 L 273.6 281.6 L 273.6 281.6 L 287.2 268 L 287.2 268 L 312 243.2 L 312 243.2 L 287.2 218.4 L 287.2 218.4 L 273.6 204.8 L 273.6 204.8 L 300.8 177.6 L 300.8 177.6 L 314.4 191.2 L 314.4 191.2 Z" />
</svg>