<svg xmlns="http://www.w3.org/2000/svg" viewBox="0 0 512 512">
  <path d="M 457.14285714285717 54.857142857142854 L 457.14285714285717 457.14285714285717 L 457.14285714285717 54.857142857142854 L 457.14285714285717 457.14285714285717 L 54.857142857142854 457.14285714285717 L 54.857142857142854 457.14285714285717 L 54.857142857142854 54.857142857142854 L 54.857142857142854 54.857142857142854 L 457.14285714285717 54.857142857142854 L 457.14285714285717 54.857142857142854 Z M 54.857142857142854 0 L 0 0 L 54.857142857142854 0 L 0 0 L 0 54.857142857142854 L 0 54.857142857142854 L 0 457.14285714285717 L 0 457.14285714285717 L 0 512 L 0 512 L 54.857142857142854 512 L 512 512 L 512 457.14285714285717 L 512 457.14285714285717 L 512 54.857142857142854 L 512 54.857142857142854 L 512 0 L 512 0 L 457.14285714285717 0 L 54.857142857142854 0 Z" />
</svg>