<svg xmlns="http://www.w3.org/2000/svg" viewBox="0 0 448 448">
    <path d="M 96 32 L 96 96 L 32 96 L 32 32 L 96 32 L 96 32 Z M 32 0 L 0 0 L 0 32 L 0 96 L 0 128 L 32 128 L 96 128 L 128 128 L 128 96 L 128 32 L 128 0 L 96 0 L 32 0 L 32 0 Z M 96 192 L 96 256 L 32 256 L 32 192 L 96 192 L 96 192 Z M 32 160 L 0 160 L 0 192 L 0 256 L 0 288 L 32 288 L 96 288 L 128 288 L 128 256 L 128 192 L 128 160 L 96 160 L 32 160 L 32 160 Z M 32 352 L 96 352 L 96 416 L 32 416 L 32 352 L 32 352 Z M 0 320 L 0 352 L 0 416 L 0 448 L 32 448 L 96 448 L 128 448 L 128 416 L 128 352 L 128 320 L 96 320 L 32 320 L 0 320 L 0 320 Z M 256 32 L 256 96 L 192 96 L 192 32 L 256 32 L 256 32 Z M 192 0 L 160 0 L 160 32 L 160 96 L 160 128 L 192 128 L 256 128 L 288 128 L 288 96 L 288 32 L 288 0 L 256 0 L 192 0 L 192 0 Z M 192 192 L 256 192 L 256 256 L 192 256 L 192 192 L 192 192 Z M 160 160 L 160 192 L 160 256 L 160 288 L 192 288 L 256 288 L 288 288 L 288 256 L 288 192 L 288 160 L 256 160 L 192 160 L 160 160 L 160 160 Z M 256 352 L 256 416 L 192 416 L 192 352 L 256 352 L 256 352 Z M 192 320 L 160 320 L 160 352 L 160 416 L 160 448 L 192 448 L 256 448 L 288 448 L 288 416 L 288 352 L 288 320 L 256 320 L 192 320 L 192 320 Z M 352 32 L 416 32 L 416 96 L 352 96 L 352 32 L 352 32 Z M 320 0 L 320 32 L 320 96 L 320 128 L 352 128 L 416 128 L 448 128 L 448 96 L 448 32 L 448 0 L 416 0 L 352 0 L 320 0 L 320 0 Z M 416 192 L 416 256 L 352 256 L 352 192 L 416 192 L 416 192 Z M 352 160 L 320 160 L 320 192 L 320 256 L 320 288 L 352 288 L 416 288 L 448 288 L 448 256 L 448 192 L 448 160 L 416 160 L 352 160 L 352 160 Z M 352 352 L 416 352 L 416 416 L 352 416 L 352 352 L 352 352 Z M 320 320 L 320 352 L 320 416 L 320 448 L 352 448 L 416 448 L 448 448 L 448 416 L 448 352 L 448 320 L 416 320 L 352 320 L 320 320 L 320 320 Z"/>
</svg>
