<svg xmlns="http://www.w3.org/2000/svg" viewBox="0 0 512 512">
  <path d="M 168 0 L 184 0 L 168 0 L 192 0 L 192 0 L 192 0 L 224 0 L 344 0 L 344 32 L 344 32 L 328 32 L 320 32 L 320 145 L 320 145 Q 349 162 366 191 Q 384 220 384 256 L 384 480 L 384 480 L 384 512 L 384 512 L 352 512 L 128 512 L 128 480 L 128 480 L 128 256 L 128 256 Q 128 220 146 191 Q 163 162 192 145 L 192 32 L 192 32 L 184 32 L 168 32 L 168 0 L 168 0 Z M 288 32 L 224 32 L 288 32 L 224 32 L 224 145 L 224 145 L 224 164 L 224 164 L 208 173 L 208 173 Q 186 186 173 207 Q 160 229 160 256 L 160 480 L 160 480 L 352 480 L 352 480 L 352 256 L 352 256 Q 352 229 339 207 Q 326 186 304 173 L 288 164 L 288 164 L 288 145 L 288 145 L 288 32 L 288 32 Z M 288 337 Q 289 332 282 317 Q 274 303 263 288 Q 259 284 256 280 Q 253 284 250 288 Q 238 303 231 317 Q 224 332 224 337 Q 224 350 233 359 Q 242 368 256 368 Q 273 367 280 361 Q 287 356 288 337 L 288 337 Z M 192 337 Q 193 317 206 295 L 206 295 L 206 295 Q 220 273 234 256 Q 247 241 253 235 Q 256 232 256 232 Q 256 232 259 235 Q 265 241 277 256 Q 292 273 306 295 Q 319 317 320 337 Q 319 369 301 384 Q 283 400 256 400 Q 229 399 211 382 Q 193 364 192 337 L 192 337 Z" />
</svg>