<svg xmlns="http://www.w3.org/2000/svg" viewBox="0 0 512 512">
  <path d="M 57.80645 0 L 57.80645 99.09677 L 57.80645 0 L 57.80645 99.09677 L 57.80645 119.741936 L 57.80645 119.741936 L 78.451614 123.870964 L 78.451614 123.870964 L 189.93549 144.51613 L 189.93549 144.51613 L 189.93549 93.935486 L 189.93549 93.935486 L 107.354836 78.451614 L 107.354836 78.451614 L 107.354836 0 L 107.354836 0 L 57.80645 0 L 57.80645 0 Z M 322.0645 93.935486 L 322.0645 144.51613 L 322.0645 93.935486 L 322.0645 144.51613 L 434.58066 123.870964 L 434.58066 123.870964 L 454.19354 119.741936 L 454.19354 119.741936 L 454.19354 99.09677 L 454.19354 99.09677 L 454.19354 0 L 454.19354 0 L 404.64517 0 L 404.64517 0 L 404.64517 78.451614 L 404.64517 78.451614 L 322.0645 93.935486 L 322.0645 93.935486 Z M 222.96774 355.09677 Q 220.90323 332.3871 198.19354 330.32257 Q 175.48387 332.3871 173.41936 355.09677 Q 175.48387 377.80646 198.19354 379.87097 Q 220.90323 377.80646 222.96774 355.09677 L 222.96774 355.09677 Z M 173.41936 421.1613 Q 171.35484 398.4516 148.64516 396.3871 Q 125.935486 398.4516 123.870964 421.1613 Q 125.935486 443.87097 148.64516 445.9355 Q 171.35484 443.87097 173.41936 421.1613 L 173.41936 421.1613 Z M 82.58064 512 Q 105.29032 509.9355 107.354836 487.2258 Q 105.29032 464.51614 82.58064 462.4516 Q 59.870968 464.51614 57.80645 487.2258 Q 59.870968 509.9355 82.58064 512 L 82.58064 512 Z M 338.58066 355.09677 Q 336.51614 332.3871 313.80646 330.32257 Q 291.09677 332.3871 289.03226 355.09677 Q 291.09677 377.80646 313.80646 379.87097 Q 336.51614 377.80646 338.58066 355.09677 L 338.58066 355.09677 Z M 256 445.9355 Q 278.7097 443.87097 280.7742 421.1613 Q 278.7097 398.4516 256 396.3871 Q 233.29033 398.4516 231.2258 421.1613 Q 233.29033 443.87097 256 445.9355 L 256 445.9355 Z M 222.96774 487.2258 Q 220.90323 464.51614 198.19354 462.4516 Q 175.48387 464.51614 173.41936 487.2258 Q 175.48387 509.9355 198.19354 512 Q 220.90323 509.9355 222.96774 487.2258 L 222.96774 487.2258 Z M 363.35483 445.9355 Q 386.0645 443.87097 388.12903 421.1613 Q 386.0645 398.4516 363.35483 396.3871 Q 340.64517 398.4516 338.58066 421.1613 Q 340.64517 443.87097 363.35483 445.9355 L 363.35483 445.9355 Z M 338.58066 487.2258 Q 336.51614 464.51614 313.80646 462.4516 Q 291.09677 464.51614 289.03226 487.2258 Q 291.09677 509.9355 313.80646 512 Q 336.51614 509.9355 338.58066 487.2258 L 338.58066 487.2258 Z M 429.41934 512 Q 452.12903 509.9355 454.19354 487.2258 Q 452.12903 464.51614 429.41934 462.4516 Q 406.7097 464.51614 404.64517 487.2258 Q 406.7097 509.9355 429.41934 512 L 429.41934 512 Z M 280.7742 57.80645 L 280.7742 33.032257 L 280.7742 57.80645 L 280.7742 33.032257 L 231.2258 33.032257 L 231.2258 33.032257 L 231.2258 57.80645 L 231.2258 57.80645 L 231.2258 214.70967 L 231.2258 214.70967 L 148.64516 214.70967 L 123.870964 214.70967 L 123.870964 264.25806 L 123.870964 264.25806 L 148.64516 264.25806 L 388.12903 264.25806 L 388.12903 214.70967 L 388.12903 214.70967 L 363.35483 214.70967 L 280.7742 214.70967 L 280.7742 57.80645 L 280.7742 57.80645 Z" />
</svg>