<svg viewBox="0 0 640 512">
  <path
    d="M 553 151 L 576 128 L 553 105 L 471 23 L 448 0 L 425 23 L 294 154 L 319 174 L 379 114 L 462 197 L 412 247 L 437 267 L 553 151 L 553 151 Z M 321 338 L 240 419 L 240 400 L 240 384 L 224 384 L 192 384 L 192 352 L 192 336 L 176 336 L 157 336 L 228 265 L 203 245 L 96 352 L 71 478 L 64 512 L 98 505 L 224 480 L 346 358 L 321 338 L 321 338 Z M 208 451 L 105 471 L 126 368 Q 127 368 128 368 L 160 368 L 160 400 L 160 416 L 176 416 L 208 416 L 208 448 Q 208 449 208 450 Q 208 450 208 451 L 208 451 Z M 531 128 L 485 174 L 402 91 L 448 45 L 531 128 L 531 128 Z M 33 10 L 20 0 L 0 25 L 13 35 L 608 502 L 620 512 L 640 487 L 628 477 L 33 10 L 33 10 Z"
  />
</svg>