<svg xmlns="http://www.w3.org/2000/svg" viewBox="0 0 512 512">
  <path d="M 412.44446 269.33334 L 412.44446 256 L 412.44446 269.33334 L 412.44446 256 L 412.44446 99.55556 L 412.44446 99.55556 L 99.55556 99.55556 L 99.55556 99.55556 L 99.55556 256 L 99.55556 256 L 99.55556 269.33334 L 99.55556 269.33334 L 92.44444 280 L 92.44444 280 L 60.444443 327.1111 L 60.444443 327.1111 L 451.55554 327.1111 L 451.55554 327.1111 L 419.55554 280 L 419.55554 280 L 412.44446 269.33334 L 412.44446 269.33334 Z M 469.33334 369.77777 L 42.666668 369.77777 L 469.33334 369.77777 L 42.666668 369.77777 L 42.666668 412.44446 L 42.666668 412.44446 L 469.33334 412.44446 L 469.33334 412.44446 L 469.33334 369.77777 L 469.33334 369.77777 Z M 512 341.33334 L 512 412.44446 L 512 341.33334 L 512 412.44446 L 512 455.1111 L 512 455.1111 L 469.33334 455.1111 L 0 455.1111 L 0 412.44446 L 0 412.44446 L 0 341.33334 L 0 341.33334 L 56.88889 256 L 56.88889 256 L 56.88889 99.55556 L 56.88889 99.55556 L 56.88889 56.88889 L 56.88889 56.88889 L 99.55556 56.88889 L 455.1111 56.88889 L 455.1111 99.55556 L 455.1111 99.55556 L 455.1111 256 L 455.1111 256 L 512 341.33334 L 512 341.33334 Z M 384 128 L 384 170.66667 L 384 128 L 384 170.66667 L 341.33334 170.66667 L 341.33334 170.66667 L 341.33334 128 L 341.33334 128 L 384 128 L 384 128 Z M 256 142.22223 Q 296 143.11111 317.33334 177.77777 Q 336.8889 213.33333 317.33334 248.88889 Q 296 283.55554 256 284.44446 Q 216 283.55554 194.66667 248.88889 Q 175.11111 213.33333 194.66667 177.77777 Q 216 143.11111 256 142.22223 L 256 142.22223 Z M 284.44446 213.33333 Q 284.44446 200.88889 276.44446 192.88889 L 276.44446 192.88889 L 276.44446 192.88889 Q 268.44446 184.88889 256 184.88889 Q 243.55556 184.88889 235.55556 192.88889 Q 227.55556 200.88889 227.55556 213.33333 Q 227.55556 225.77777 235.55556 233.77777 Q 243.55556 241.77777 256 241.77777 Q 268.44446 241.77777 276.44446 233.77777 Q 284.44446 225.77777 284.44446 213.33333 L 284.44446 213.33333 Z" />
</svg>