<svg xmlns="http://www.w3.org/2000/svg" viewBox="0 0 512 512">
  <path d="M 128 99.55555555555556 L 128 348.44444444444446 L 128 99.55555555555556 L 128 348.44444444444446 L 384 348.44444444444446 L 384 348.44444444444446 L 384 99.55555555555556 L 384 99.55555555555556 L 128 99.55555555555556 L 128 99.55555555555556 Z M 85.33333333333333 348.44444444444446 L 85.33333333333333 99.55555555555556 L 85.33333333333333 348.44444444444446 L 85.33333333333333 99.55555555555556 L 85.33333333333333 56.888888888888886 L 85.33333333333333 56.888888888888886 L 128 56.888888888888886 L 426.6666666666667 56.888888888888886 L 426.6666666666667 99.55555555555556 L 426.6666666666667 99.55555555555556 L 426.6666666666667 348.44444444444446 L 426.6666666666667 348.44444444444446 L 448 348.44444444444446 L 448 348.44444444444446 L 448 391.1111111111111 L 448 391.1111111111111 L 426.6666666666667 391.1111111111111 L 64 391.1111111111111 L 64 348.44444444444446 L 64 348.44444444444446 L 85.33333333333333 348.44444444444446 L 85.33333333333333 348.44444444444446 Z M 56.888888888888886 284.44444444444446 L 56.888888888888886 327.1111111111111 L 56.888888888888886 284.44444444444446 L 56.888888888888886 327.1111111111111 L 42.666666666666664 327.1111111111111 L 42.666666666666664 327.1111111111111 L 42.666666666666664 412.44444444444446 L 42.666666666666664 412.44444444444446 L 469.3333333333333 412.44444444444446 L 469.3333333333333 412.44444444444446 L 469.3333333333333 327.1111111111111 L 469.3333333333333 327.1111111111111 L 455.1111111111111 327.1111111111111 L 455.1111111111111 327.1111111111111 L 455.1111111111111 284.44444444444446 L 455.1111111111111 284.44444444444446 L 469.3333333333333 284.44444444444446 L 512 284.44444444444446 L 512 327.1111111111111 L 512 327.1111111111111 L 512 412.44444444444446 L 512 412.44444444444446 L 512 455.1111111111111 L 512 455.1111111111111 L 469.3333333333333 455.1111111111111 L 0 455.1111111111111 L 0 412.44444444444446 L 0 412.44444444444446 L 0 327.1111111111111 L 0 327.1111111111111 L 0 284.44444444444446 L 0 284.44444444444446 L 42.666666666666664 284.44444444444446 L 56.888888888888886 284.44444444444446 Z M 342.22222222222223 188.44444444444446 L 247.11111111111111 282.6666666666667 L 342.22222222222223 188.44444444444446 L 247.11111111111111 282.6666666666667 L 232 297.77777777777777 L 232 297.77777777777777 L 216.88888888888889 282.6666666666667 L 216.88888888888889 282.6666666666667 L 169.77777777777777 235.55555555555554 L 169.77777777777777 235.55555555555554 L 154.66666666666666 220.44444444444446 L 154.66666666666666 220.44444444444446 L 184.88888888888889 190.22222222222223 L 184.88888888888889 190.22222222222223 L 200 205.33333333333334 L 200 205.33333333333334 L 232 238.22222222222223 L 232 238.22222222222223 L 312 158.22222222222223 L 312 158.22222222222223 L 327.1111111111111 143.11111111111111 L 327.1111111111111 143.11111111111111 L 357.3333333333333 173.33333333333334 L 357.3333333333333 173.33333333333334 L 342.22222222222223 188.44444444444446 L 342.22222222222223 188.44444444444446 Z" />
</svg>