<svg xmlns="http://www.w3.org/2000/svg" viewBox="0 0 512 512">
  <path d="M 312.8888888888889 56.888888888888886 L 28.444444444444443 56.888888888888886 L 312.8888888888889 56.888888888888886 L 28.444444444444443 56.888888888888886 L 28.444444444444443 455.1111111111111 L 28.444444444444443 455.1111111111111 L 263.1111111111111 455.1111111111111 L 263.1111111111111 455.1111111111111 Q 276.44444444444446 471.1111111111111 294.22222222222223 483.55555555555554 L 28.444444444444443 483.55555555555554 L 0 483.55555555555554 L 0 455.1111111111111 L 0 455.1111111111111 L 0 56.888888888888886 L 0 56.888888888888886 L 0 28.444444444444443 L 0 28.444444444444443 L 28.444444444444443 28.444444444444443 L 341.3333333333333 28.444444444444443 L 341.3333333333333 56.888888888888886 L 341.3333333333333 56.888888888888886 L 341.3333333333333 205.33333333333334 L 341.3333333333333 205.33333333333334 Q 326.22222222222223 208.88888888888889 312.8888888888889 216 L 312.8888888888889 56.888888888888886 L 312.8888888888889 56.888888888888886 Z M 56.888888888888886 142.22222222222223 L 71.11111111111111 142.22222222222223 L 56.888888888888886 142.22222222222223 L 284.44444444444446 142.22222222222223 L 284.44444444444446 170.66666666666666 L 284.44444444444446 170.66666666666666 L 270.22222222222223 170.66666666666666 L 56.888888888888886 170.66666666666666 L 56.888888888888886 142.22222222222223 L 56.888888888888886 142.22222222222223 Z M 71.11111111111111 227.55555555555554 L 241.77777777777777 227.55555555555554 L 71.11111111111111 227.55555555555554 L 256 227.55555555555554 L 256 256 L 256 256 L 241.77777777777777 256 L 56.888888888888886 256 L 56.888888888888886 227.55555555555554 L 56.888888888888886 227.55555555555554 L 71.11111111111111 227.55555555555554 L 71.11111111111111 227.55555555555554 Z M 71.11111111111111 312.8888888888889 L 184.88888888888889 312.8888888888889 L 71.11111111111111 312.8888888888889 L 199.11111111111111 312.8888888888889 L 199.11111111111111 341.3333333333333 L 199.11111111111111 341.3333333333333 L 184.88888888888889 341.3333333333333 L 56.888888888888886 341.3333333333333 L 56.888888888888886 312.8888888888889 L 56.888888888888886 312.8888888888889 L 71.11111111111111 312.8888888888889 L 71.11111111111111 312.8888888888889 Z M 384 455.1111111111111 Q 410.6666666666667 455.1111111111111 433.77777777777777 441.77777777777777 L 433.77777777777777 441.77777777777777 L 433.77777777777777 441.77777777777777 Q 456.8888888888889 428.44444444444446 470.22222222222223 405.3333333333333 Q 483.55555555555554 382.22222222222223 483.55555555555554 355.55555555555554 Q 483.55555555555554 328.8888888888889 470.22222222222223 305.77777777777777 Q 456.8888888888889 282.6666666666667 433.77777777777777 269.3333333333333 Q 410.6666666666667 256 384 256 Q 357.3333333333333 256 334.22222222222223 269.3333333333333 Q 311.1111111111111 282.6666666666667 297.77777777777777 305.77777777777777 Q 284.44444444444446 328.8888888888889 284.44444444444446 355.55555555555554 Q 284.44444444444446 382.22222222222223 297.77777777777777 405.3333333333333 Q 311.1111111111111 428.44444444444446 334.22222222222223 441.77777777777777 Q 357.3333333333333 455.1111111111111 384 455.1111111111111 L 384 455.1111111111111 Z M 384 227.55555555555554 Q 418.6666666666667 227.55555555555554 448 244.44444444444446 L 448 244.44444444444446 L 448 244.44444444444446 Q 477.3333333333333 261.3333333333333 495.1111111111111 291.55555555555554 Q 512 321.77777777777777 512 355.55555555555554 Q 512 389.3333333333333 495.1111111111111 419.55555555555554 Q 477.3333333333333 449.77777777777777 448 466.6666666666667 Q 418.6666666666667 483.55555555555554 384 483.55555555555554 Q 349.3333333333333 483.55555555555554 320 466.6666666666667 Q 290.6666666666667 449.77777777777777 272.8888888888889 419.55555555555554 Q 256 389.3333333333333 256 355.55555555555554 Q 256 321.77777777777777 272.8888888888889 291.55555555555554 Q 290.6666666666667 261.3333333333333 320 244.44444444444446 Q 349.3333333333333 227.55555555555554 384 227.55555555555554 L 384 227.55555555555554 Z M 454.22222222222223 327.1111111111111 L 443.55555555555554 336.8888888888889 L 454.22222222222223 327.1111111111111 L 443.55555555555554 336.8888888888889 L 379.55555555555554 400.8888888888889 L 379.55555555555554 400.8888888888889 L 369.77777777777777 411.55555555555554 L 369.77777777777777 411.55555555555554 L 360 400.8888888888889 L 360 400.8888888888889 L 324.44444444444446 365.3333333333333 L 324.44444444444446 365.3333333333333 L 313.77777777777777 355.55555555555554 L 313.77777777777777 355.55555555555554 L 334.22222222222223 335.1111111111111 L 334.22222222222223 335.1111111111111 L 344 345.77777777777777 L 344 345.77777777777777 L 369.77777777777777 370.6666666666667 L 369.77777777777777 370.6666666666667 L 424 317.3333333333333 L 424 317.3333333333333 L 433.77777777777777 306.6666666666667 L 433.77777777777777 306.6666666666667 L 454.22222222222223 327.1111111111111 L 454.22222222222223 327.1111111111111 Z" />
</svg>