<svg xmlns="http://www.w3.org/2000/svg" viewBox="0 0 512 512">
  <path d="M 256 56.88889 Q 259.55554 56.88889 262.22223 56.88889 Q 223.11111 70.22222 186.66667 88 Q 164.44444 89.77778 141.33333 93.333336 Q 191.11111 57.77778 256 56.88889 L 256 56.88889 Z M 327.1111 40 Q 293.33334 28.444445 256 28.444445 Q 206.22223 28.444445 163.55556 48 Q 120 67.55556 88.888885 101.333336 Q 72 104.888885 56 109.333336 L 44.444443 112 L 44.444443 112 Q 41.77778 116.44444 39.11111 120.888885 L 38.22222 121.77778 L 38.22222 121.77778 Q 16.88889 156.44444 7.111111 196.44444 L 6.2222223 198.22223 L 6.2222223 198.22223 Q 1.7777778 219.55556 0 242.66667 L 0 242.66667 L 0 242.66667 Q 0 243.55556 0 244.44444 Q 0 245.33333 0 246.22223 L 0 247.11111 L 0 247.11111 Q 0 250.66667 0 255.11111 L 0 256 L 0 256 L 0 256 L 0 256 L 0 256.8889 L 0 256.8889 Q 0 298.66666 12.444445 336 L 13.333333 337.77777 L 13.333333 337.77777 Q 22.222221 362.66666 34.666668 384.8889 L 63.11111 343.1111 L 63.11111 343.1111 Q 105.77778 280.8889 164.44444 235.55556 Q 163.55556 238.22223 163.55556 241.77777 Q 165.33333 261.33334 184.88889 263.1111 Q 204.44444 261.33334 206.22223 241.77777 Q 204.44444 222.22223 185.77777 220.44444 Q 201.77777 209.77777 218.66667 200 Q 237.33333 199.11111 256 199.11111 Q 367.1111 199.11111 469.33334 230.22223 L 512 243.55556 L 512 243.55556 Q 510.22223 220.44444 505.77777 198.22223 L 504.8889 196.44444 L 504.8889 196.44444 Q 497.77777 168 485.33334 141.33333 L 485.33334 141.33333 L 485.33334 141.33333 Q 479.1111 130.66667 472.8889 120.888885 Q 471.1111 116.44444 468.44446 112.888885 Q 468.44446 112.888885 468.44446 112.888885 Q 462.22223 104.888885 456 96.888885 L 456 96 L 456 96 Q 427.55554 60.444443 388.44446 36.444443 L 386.66666 35.555557 L 386.66666 35.555557 Q 385.77777 35.555557 384.8889 34.666668 Q 382.22223 32.88889 379.55554 32 L 369.77777 32.88889 L 369.77777 32.88889 Q 348.44446 35.555557 327.1111 40 L 327.1111 40 Z M 423.1111 101.333336 Q 347.55554 86.22222 267.55554 85.333336 Q 318.22223 67.55556 373.33334 61.333332 Q 392 72 408 86.22222 Q 416 93.333336 423.1111 101.333336 L 423.1111 101.333336 Z M 280.8889 170.66667 Q 280.8889 170.66667 280.8889 170.66667 L 280.8889 170.66667 L 280.8889 170.66667 Q 280.8889 170.66667 280.8889 170.66667 Q 268.44446 170.66667 256 170.66667 Q 232.88889 170.66667 210.66667 171.55556 Q 210.66667 171.55556 210.66667 171.55556 Q 210.66667 171.55556 210.66667 171.55556 Q 146.66667 176 86.22222 189.33333 Q 86.22222 189.33333 86.22222 189.33333 Q 86.22222 189.33333 86.22222 189.33333 Q 60.444443 195.55556 34.666668 202.66667 Q 34.666668 202.66667 34.666668 202.66667 Q 34.666668 202.66667 34.666668 202.66667 Q 35.555557 200 35.555557 197.33333 Q 40 184 45.333332 170.66667 Q 52.444443 152.88889 62.22222 136.88889 Q 155.55556 113.77778 256 113.77778 Q 356.44446 113.77778 449.77777 136.88889 Q 459.55554 152.88889 466.66666 170.66667 Q 472.8889 186.66667 477.33334 203.55556 Q 461.33334 198.22223 445.33334 194.66667 Q 366.22223 174.22223 280.8889 171.55556 L 280.8889 170.66667 Z M 44.444443 229.33333 Q 99.55556 213.33333 157.33333 205.33333 Q 103.111115 245.33333 61.333332 297.77777 Q 49.77778 312 40 327.1111 Q 33.77778 309.33334 31.11111 290.66666 Q 28.444445 273.77777 28.444445 256 Q 28.444445 251.55556 28.444445 248 Q 36.444443 238.22223 44.444443 229.33333 L 44.444443 229.33333 Z M 455.1111 269.33334 Q 448 349.33334 392 400.8889 L 392 400.8889 L 392 400.8889 Q 336.8889 453.33334 256 455.1111 Q 207.11111 455.1111 165.33333 433.77777 Q 124.44444 412.44446 96.888885 375.1111 L 73.77778 392.8889 L 73.77778 392.8889 Q 105.77778 434.66666 152.88889 458.66666 Q 200 482.66666 256 483.55554 Q 317.33334 482.66666 367.1111 455.1111 Q 416.8889 426.66666 447.1111 378.66666 Q 478.22223 331.55554 482.66666 271.1111 L 455.1111 269.33334 L 455.1111 269.33334 Z M 331.55554 382.22223 L 342.22223 391.1111 L 331.55554 382.22223 L 342.22223 391.1111 L 361.77777 370.66666 L 361.77777 370.66666 L 351.1111 360.8889 L 351.1111 360.8889 Q 336.8889 347.55554 314.66666 337.77777 Q 292.44446 328 263.1111 327.1111 Q 240.88889 327.1111 223.11111 333.33334 L 209.77777 337.77777 L 209.77777 337.77777 L 218.66667 364.44446 L 218.66667 364.44446 L 232 360 L 232 360 Q 245.33333 355.55554 263.1111 355.55554 Q 286.22223 355.55554 303.1111 363.55554 Q 320.8889 371.55554 331.55554 382.22223 L 331.55554 382.22223 Z M 327.1111 263.1111 Q 346.66666 261.33334 348.44446 241.77777 Q 346.66666 222.22223 327.1111 220.44444 Q 307.55554 222.22223 305.77777 241.77777 Q 307.55554 261.33334 327.1111 263.1111 L 327.1111 263.1111 Z" />
</svg>