<svg xmlns="http://www.w3.org/2000/svg" viewBox="0 0 512 512">
  <path d="M 356.57142857142856 0 L 329.14285714285717 0 L 356.57142857142856 0 L 329.14285714285717 0 L 329.14285714285717 54.857142857142854 L 329.14285714285717 54.857142857142854 L 356.57142857142856 54.857142857142854 L 418.2857142857143 54.857142857142854 L 322.2857142857143 150.85714285714286 L 322.2857142857143 150.85714285714286 Q 270.85714285714283 110.85714285714286 201.14285714285714 109.71428571428571 Q 115.42857142857143 112 59.42857142857143 169.14285714285714 Q 2.2857142857142856 225.14285714285714 0 310.85714285714283 Q 2.2857142857142856 396.57142857142856 59.42857142857143 452.57142857142856 Q 115.42857142857143 509.7142857142857 201.14285714285714 512 Q 286.85714285714283 509.7142857142857 342.85714285714283 452.57142857142856 Q 400 396.57142857142856 402.2857142857143 310.85714285714283 Q 401.14285714285717 241.14285714285714 361.14285714285717 189.71428571428572 L 457.14285714285717 93.71428571428571 L 457.14285714285717 93.71428571428571 L 457.14285714285717 155.42857142857142 L 457.14285714285717 155.42857142857142 L 457.14285714285717 182.85714285714286 L 457.14285714285717 182.85714285714286 L 512 182.85714285714286 L 512 182.85714285714286 L 512 155.42857142857142 L 512 155.42857142857142 L 512 27.428571428571427 L 512 27.428571428571427 L 512 0 L 512 0 L 484.57142857142856 0 L 356.57142857142856 0 Z M 54.857142857142854 310.85714285714283 Q 54.857142857142854 270.85714285714283 74.28571428571429 237.71428571428572 L 74.28571428571429 237.71428571428572 L 74.28571428571429 237.71428571428572 Q 93.71428571428571 204.57142857142858 128 184 Q 162.28571428571428 164.57142857142858 201.14285714285714 164.57142857142858 Q 240 164.57142857142858 274.2857142857143 184 Q 308.57142857142856 204.57142857142858 328 237.71428571428572 Q 347.42857142857144 270.85714285714283 347.42857142857144 310.85714285714283 Q 347.42857142857144 350.85714285714283 328 384 Q 308.57142857142856 417.14285714285717 274.2857142857143 437.7142857142857 Q 240 457.14285714285717 201.14285714285714 457.14285714285717 Q 162.28571428571428 457.14285714285717 128 437.7142857142857 Q 93.71428571428571 417.14285714285717 74.28571428571429 384 Q 54.857142857142854 350.85714285714283 54.857142857142854 310.85714285714283 L 54.857142857142854 310.85714285714283 Z" />
</svg>