<svg xmlns="http://www.w3.org/2000/svg" viewBox="0 0 512 512">
  <path d="M 291.55554 56.88889 L 280.8889 56.88889 L 291.55554 56.88889 L 280.8889 56.88889 L 278.22223 67.55556 L 278.22223 67.55556 L 181.33333 403.55554 L 181.33333 403.55554 L 90.666664 234.66667 L 90.666664 234.66667 L 87.111115 227.55556 L 87.111115 227.55556 L 78.22222 227.55556 L 0 227.55556 L 0 256 L 0 256 L 14.222222 256 L 69.333336 256 L 172.44444 448 L 172.44444 448 L 176 455.1111 L 176 455.1111 L 195.55556 455.1111 L 195.55556 455.1111 L 198.22223 444.44446 L 198.22223 444.44446 L 302.22223 85.333336 L 302.22223 85.333336 L 497.77777 85.333336 L 512 85.333336 L 512 56.88889 L 512 56.88889 L 497.77777 56.88889 L 291.55554 56.88889 Z" />
</svg>