<svg xmlns="http://www.w3.org/2000/svg" viewBox="0 0 512 512">
  <path d="M 76.8 256 Q 77.6 207.2 100.8 166.4 L 100.8 166.4 L 100.8 166.4 Q 124.8 125.6 166.4 100.8 Q 208.8 76.8 256 76.8 Q 303.2 76.8 345.6 100.8 Q 387.2 125.6 411.2 166.4 Q 434.4 207.2 435.2 256 Q 434.4 304.8 411.2 345.6 Q 387.2 386.4 345.6 411.2 Q 303.2 435.2 256 435.2 Q 208.8 435.2 166.4 411.2 Q 124.8 386.4 100.8 345.6 Q 77.6 304.8 76.8 256 L 76.8 256 Z M 275.2 172.8 L 275.2 153.6 L 275.2 172.8 L 275.2 153.6 L 236.8 153.6 L 236.8 153.6 L 236.8 172.8 L 236.8 172.8 L 236.8 262.4 L 236.8 262.4 L 236.8 281.6 L 236.8 281.6 L 275.2 281.6 L 275.2 281.6 L 275.2 262.4 L 275.2 262.4 L 275.2 172.8 L 275.2 172.8 Z M 236.8 307.2 L 236.8 345.6 L 236.8 307.2 L 236.8 345.6 L 275.2 345.6 L 275.2 345.6 L 275.2 307.2 L 275.2 307.2 L 236.8 307.2 L 236.8 307.2 Z M 72.8 138.4 Q 39.2 190.4 38.4 256 Q 39.2 321.6 72.8 373.6 L 83.2 389.6 L 83.2 389.6 L 51.2 410.4 L 51.2 410.4 L 40.8 394.4 L 40.8 394.4 Q 0.8 333.6 0 256 Q 0.8 178.4 40.8 117.6 L 51.2 101.6 L 51.2 101.6 L 83.2 122.4 L 83.2 122.4 L 72.8 138.4 L 72.8 138.4 Z M 471.2 117.6 Q 511.2 178.4 512 256 Q 511.2 333.6 471.2 394.4 L 460.8 410.4 L 460.8 410.4 L 428.8 389.6 L 428.8 389.6 L 439.2 373.6 L 439.2 373.6 Q 472.8 321.6 473.6 256 Q 472.8 190.4 439.2 138.4 L 428.8 122.4 L 428.8 122.4 L 460.8 101.6 L 460.8 101.6 L 471.2 117.6 L 471.2 117.6 Z" />
</svg>