<svg xmlns="http://www.w3.org/2000/svg" viewBox="0 0 512 512">
  <path d="M 249.57994 307.3605 L 268.84012 307.3605 L 249.57994 307.3605 L 268.84012 307.3605 L 268.84012 288.1003 L 268.84012 288.1003 L 268.84012 243.15988 L 268.84012 243.15988 L 371.56113 243.15988 L 371.56113 243.15988 L 371.56113 294.5204 L 371.56113 294.5204 L 365.14105 294.5204 L 345.8809 294.5204 L 345.8809 313.78058 L 345.8809 313.78058 L 345.8809 339.46082 L 345.8809 339.46082 L 326.6207 339.46082 L 307.3605 339.46082 L 307.3605 358.721 L 307.3605 358.721 L 307.3605 371.56113 L 307.3605 371.56113 L 300.94043 371.56113 L 183.77429 371.56113 L 178.15674 377.17868 L 178.15674 377.17868 L 135.62383 419.7116 L 135.62383 419.7116 L 121.98119 433.35422 L 121.98119 433.35422 L 149.26646 460.6395 L 149.26646 460.6395 L 162.90909 446.99686 L 162.90909 446.99686 L 199.82445 410.0815 L 199.82445 410.0815 L 256 410.0815 L 345.8809 410.0815 L 345.8809 390.82132 L 345.8809 390.82132 L 345.8809 377.9812 L 345.8809 377.9812 L 365.14105 377.9812 L 384.40125 377.9812 L 384.40125 358.721 L 384.40125 358.721 L 384.40125 333.04074 L 384.40125 333.04074 L 390.82132 333.04074 L 410.0815 333.04074 L 410.0815 313.78058 L 410.0815 313.78058 L 410.0815 276.8652 L 410.0815 276.8652 L 410.0815 222.29468 L 410.0815 222.29468 L 410.0815 204.6395 L 410.0815 204.6395 L 390.82132 204.6395 L 268.84012 204.6395 L 268.84012 185.3793 L 268.84012 185.3793 L 268.84012 166.11913 L 268.84012 166.11913 L 230.31975 166.11913 L 230.31975 166.11913 L 230.31975 185.3793 L 230.31975 185.3793 L 230.31975 268.84012 L 230.31975 268.84012 L 191.79938 268.84012 L 191.79938 268.84012 L 191.79938 140.43887 L 191.79938 140.43887 L 345.8809 140.43887 L 353.90594 140.43887 L 359.5235 134.82132 L 359.5235 134.82132 L 402.05643 92.2884 L 402.05643 92.2884 L 415.69907 78.64577 L 415.69907 78.64577 L 388.4138 51.3605 L 388.4138 51.3605 L 374.77115 65.003136 L 374.77115 65.003136 L 337.8558 101.918495 L 337.8558 101.918495 L 172.53918 101.918495 L 153.27899 101.918495 L 153.27899 121.17868 L 153.27899 121.17868 L 153.27899 288.1003 L 153.27899 288.1003 L 153.27899 307.3605 L 153.27899 307.3605 L 172.53918 307.3605 L 249.57994 307.3605 Z M 435.76175 196.61443 L 435.76175 251.18495 L 435.76175 196.61443 L 435.76175 251.18495 L 498.35736 188.58934 L 498.35736 188.58934 L 512 174.9467 L 512 174.9467 L 484.71472 147.66144 L 484.71472 147.66144 L 471.0721 161.30408 L 471.0721 161.30408 L 435.76175 196.61443 L 435.76175 196.61443 Z M 127.59875 153.27899 L 95.498436 153.27899 L 127.59875 153.27899 L 76.23824 153.27899 L 76.23824 172.53918 L 76.23824 172.53918 L 76.23824 260.81503 L 76.23824 260.81503 L 13.642633 323.41064 L 13.642633 323.41064 L 0 337.05328 L 0 337.05328 L 27.285267 364.33856 L 27.285267 364.33856 L 40.9279 350.69592 L 40.9279 350.69592 L 109.14107 282.48276 L 109.14107 282.48276 L 114.75862 276.8652 L 114.75862 276.8652 L 114.75862 268.84012 L 114.75862 268.84012 L 114.75862 191.79938 L 114.75862 191.79938 L 127.59875 191.79938 L 127.59875 191.79938 L 127.59875 153.27899 L 127.59875 153.27899 Z" />
</svg>