<svg xmlns="http://www.w3.org/2000/svg" viewBox="0 0 512 512">
  <path d="M 113.77777777777777 28.444444444444443 L 56.888888888888886 28.444444444444443 L 113.77777777777777 28.444444444444443 L 56.888888888888886 28.444444444444443 L 56.888888888888886 56.888888888888886 L 56.888888888888886 56.888888888888886 L 56.888888888888886 142.22222222222223 L 56.888888888888886 142.22222222222223 L 113.77777777777777 142.22222222222223 L 113.77777777777777 142.22222222222223 L 113.77777777777777 56.888888888888886 L 113.77777777777777 56.888888888888886 L 113.77777777777777 28.444444444444443 L 113.77777777777777 28.444444444444443 Z M 284.44444444444446 28.444444444444443 L 227.55555555555554 28.444444444444443 L 284.44444444444446 28.444444444444443 L 227.55555555555554 28.444444444444443 L 227.55555555555554 56.888888888888886 L 227.55555555555554 56.888888888888886 L 227.55555555555554 142.22222222222223 L 227.55555555555554 142.22222222222223 L 284.44444444444446 142.22222222222223 L 284.44444444444446 142.22222222222223 L 284.44444444444446 56.888888888888886 L 284.44444444444446 56.888888888888886 L 284.44444444444446 28.444444444444443 L 284.44444444444446 28.444444444444443 Z M 28.444444444444443 170.66666666666666 L 0 170.66666666666666 L 28.444444444444443 170.66666666666666 L 0 170.66666666666666 L 0 227.55555555555554 L 0 227.55555555555554 L 28.444444444444443 227.55555555555554 L 28.444444444444443 227.55555555555554 L 28.444444444444443 256 L 28.444444444444443 256 Q 29.333333333333332 308.44444444444446 61.333333333333336 346.6666666666667 Q 92.44444444444444 384.8888888888889 142.22222222222223 395.55555555555554 L 142.22222222222223 483.55555555555554 L 142.22222222222223 483.55555555555554 L 199.11111111111111 483.55555555555554 L 199.11111111111111 483.55555555555554 L 199.11111111111111 395.55555555555554 L 199.11111111111111 395.55555555555554 Q 216 392 230.22222222222223 384.8888888888889 Q 227.55555555555554 370.6666666666667 227.55555555555554 355.55555555555554 Q 228.44444444444446 300.44444444444446 259.55555555555554 260.44444444444446 Q 291.55555555555554 219.55555555555554 341.3333333333333 205.33333333333334 L 341.3333333333333 170.66666666666666 L 341.3333333333333 170.66666666666666 L 312.8888888888889 170.66666666666666 L 28.444444444444443 170.66666666666666 Z M 384 483.55555555555554 Q 418.6666666666667 483.55555555555554 448 466.6666666666667 L 448 466.6666666666667 L 448 466.6666666666667 Q 477.3333333333333 449.77777777777777 495.1111111111111 419.55555555555554 Q 512 389.3333333333333 512 355.55555555555554 Q 512 321.77777777777777 495.1111111111111 291.55555555555554 Q 477.3333333333333 261.3333333333333 448 244.44444444444446 Q 418.6666666666667 227.55555555555554 384 227.55555555555554 Q 349.3333333333333 227.55555555555554 320 244.44444444444446 Q 290.6666666666667 261.3333333333333 272.8888888888889 291.55555555555554 Q 256 321.77777777777777 256 355.55555555555554 Q 256 389.3333333333333 272.8888888888889 419.55555555555554 Q 290.6666666666667 449.77777777777777 320 466.6666666666667 Q 349.3333333333333 483.55555555555554 384 483.55555555555554 L 384 483.55555555555554 Z M 436.44444444444446 322.6666666666667 L 404.44444444444446 355.55555555555554 L 436.44444444444446 322.6666666666667 L 404.44444444444446 355.55555555555554 L 436.44444444444446 388.44444444444446 L 436.44444444444446 388.44444444444446 L 447.1111111111111 398.22222222222223 L 447.1111111111111 398.22222222222223 L 426.6666666666667 418.6666666666667 L 426.6666666666667 418.6666666666667 L 416.8888888888889 408 L 416.8888888888889 408 L 384 376 L 384 376 L 351.1111111111111 408 L 351.1111111111111 408 L 341.3333333333333 418.6666666666667 L 341.3333333333333 418.6666666666667 L 320.8888888888889 398.22222222222223 L 320.8888888888889 398.22222222222223 L 331.55555555555554 388.44444444444446 L 331.55555555555554 388.44444444444446 L 363.55555555555554 355.55555555555554 L 363.55555555555554 355.55555555555554 L 331.55555555555554 322.6666666666667 L 331.55555555555554 322.6666666666667 L 320.8888888888889 312.8888888888889 L 320.8888888888889 312.8888888888889 L 341.3333333333333 292.44444444444446 L 341.3333333333333 292.44444444444446 L 351.1111111111111 303.1111111111111 L 351.1111111111111 303.1111111111111 L 384 335.1111111111111 L 384 335.1111111111111 L 416.8888888888889 303.1111111111111 L 416.8888888888889 303.1111111111111 L 426.6666666666667 292.44444444444446 L 426.6666666666667 292.44444444444446 L 447.1111111111111 312.8888888888889 L 447.1111111111111 312.8888888888889 L 436.44444444444446 322.6666666666667 L 436.44444444444446 322.6666666666667 Z" />
</svg>