<svg xmlns="http://www.w3.org/2000/svg" viewBox="0 0 512 512">
  <path d="M 76.8 351.6 L 243.2 384.4 L 76.8 351.6 L 243.2 384.4 L 243.2 104.4 L 243.2 104.4 L 76.8 82 L 76.8 82 L 76.8 351.6 L 76.8 351.6 Z M 268.8 384.4 L 435.2 351.6 L 268.8 384.4 L 435.2 351.6 L 435.2 82 L 435.2 82 L 268.8 104.4 L 268.8 104.4 L 268.8 384.4 L 268.8 384.4 Z M 460.8 52.4 L 460.8 78 L 460.8 52.4 L 460.8 78 L 460.8 372.4 L 460.8 372.4 L 256 413.2 L 256 413.2 L 51.2 372.4 L 51.2 372.4 L 51.2 78 L 51.2 78 L 51.2 52.4 L 51.2 52.4 L 76.8 55.6 L 76.8 55.6 L 256 80.4 L 256 80.4 L 435.2 55.6 L 435.2 55.6 L 460.8 52.4 L 460.8 52.4 Z M 0 75.6 L 25.6 78.8 L 0 75.6 L 25.6 78.8 L 25.6 105.2 L 25.6 105.2 L 25.6 180.4 L 25.6 180.4 L 25.6 387.6 L 25.6 387.6 L 256 433.2 L 256 433.2 L 486.4 387.6 L 486.4 387.6 L 486.4 180.4 L 486.4 180.4 L 486.4 105.2 L 486.4 105.2 L 486.4 78.8 L 486.4 78.8 L 512 75.6 L 512 75.6 L 512 101.2 L 512 101.2 L 512 408.4 L 512 408.4 L 256 459.6 L 256 459.6 L 0 408.4 L 0 408.4 L 0 101.2 L 0 101.2 L 0 75.6 L 0 75.6 Z" />
</svg>