<svg viewBox="0 0 640 384">
  <path
    d="M 48 24 L 48 0 L 0 0 L 0 24 L 0 184 L 0 360 L 0 384 L 48 384 L 48 360 L 48 208 L 272 208 L 272 360 L 272 384 L 320 384 L 320 360 L 320 184 L 320 24 L 320 0 L 272 0 L 272 24 L 272 160 L 48 160 L 48 24 L 48 24 Z M 387 132 Q 352 176 352 232 L 352 232 Q 352 236 352 240 Q 354 301 394 342 Q 435 382 496 384 Q 557 382 598 342 Q 638 301 640 240 Q 638 179 598 138 Q 557 98 496 96 Q 486 96 476 97 L 554 0 L 493 0 L 387 132 L 387 132 Z M 400 240 Q 400 214 413 192 L 413 192 Q 426 170 448 157 Q 471 144 496 144 Q 521 144 544 157 Q 566 170 579 192 Q 592 214 592 240 Q 592 266 579 288 Q 566 310 544 323 Q 521 336 496 336 Q 471 336 448 323 Q 426 310 413 288 Q 400 266 400 240 L 400 240 Z"
  />
</svg>