<svg xmlns="http://www.w3.org/2000/svg" viewBox="0 0 512 512">
  <path d="M 0 256 Q 1 186 34 128 L 34 128 L 34 128 Q 68 70 128 34 Q 189 0 256 0 Q 323 0 384 34 Q 444 70 478 128 Q 511 186 512 256 Q 511 326 478 384 Q 444 442 384 478 Q 323 512 256 512 Q 189 512 128 478 Q 68 442 34 384 Q 1 326 0 256 L 0 256 Z M 256 272 Q 229 271 214 248 Q 202 224 214 200 Q 229 177 256 176 Q 283 177 298 200 Q 310 224 298 248 Q 283 271 256 272 L 256 272 Z M 352 224 Q 351 183 324 156 L 324 156 L 324 156 Q 297 129 256 128 Q 215 129 188 156 Q 161 183 160 224 Q 161 262 184 288 Q 208 314 245 319 L 200 368 L 200 368 L 185 384 L 185 384 L 251 384 L 251 384 L 319 310 L 319 310 Q 351 273 352 224 L 352 224 Z" />
</svg>