<svg xmlns="http://www.w3.org/2000/svg" viewBox="0 0 512 512">
  <path d="M 158.5 197 Q 156.5 241 184.5 272 L 184.5 272 L 184.5 272 Q 212.5 303 256.5 304 Q 300.5 303 328.5 272 Q 356.5 241 354.5 197 L 340.5 48 L 340.5 48 L 172.5 48 L 172.5 48 L 158.5 197 L 158.5 197 Z M 111.5 193 L 128.5 0 L 111.5 193 L 128.5 0 L 384.5 0 L 384.5 0 L 402.5 193 L 402.5 193 Q 405.5 252 371.5 296 Q 337.5 340 280.5 350 L 280.5 464 L 280.5 464 L 368.5 464 L 368.5 464 L 368.5 512 L 368.5 512 L 256.5 512 L 144.5 512 L 144.5 464 L 144.5 464 L 232.5 464 L 232.5 464 L 232.5 350 L 232.5 350 Q 175.5 339 141.5 296 Q 106.5 252 111.5 193 L 111.5 193 Z" />
</svg>