<svg viewBox="0 0 480 512">
  <path
    d="M 240 48 L 432 48 L 432 464 L 240 464 L 240 48 L 240 48 Z M 192 48 L 192 464 L 112 464 L 112 416 L 136 416 L 160 416 L 160 368 L 136 368 L 112 368 L 112 280 L 136 280 L 160 280 L 160 232 L 136 232 L 112 232 L 112 144 L 136 144 L 160 144 L 160 96 L 136 96 L 112 96 L 112 48 L 192 48 L 192 48 Z M 64 416 L 64 464 L 64 512 L 112 512 L 432 512 L 480 512 L 480 464 L 480 48 L 480 0 L 432 0 L 112 0 L 64 0 L 64 48 L 64 96 L 24 96 L 0 96 L 0 144 L 24 144 L 64 144 L 64 232 L 24 232 L 0 232 L 0 280 L 24 280 L 64 280 L 64 368 L 24 368 L 0 368 L 0 416 L 24 416 L 64 416 L 64 416 Z"
  />
</svg>