<svg viewBox="0 0 640 512">
  <path
    d="M 640 208 Q 638 296 579 355 L 579 355 Q 520 414 432 416 Q 426 416 421 416 Q 429 399 435 382 L 479 352 L 536 350 L 555 297 L 599 262 L 583 208 L 599 154 L 555 119 L 536 66 L 479 64 L 432 32 L 385 64 L 329 66 L 319 91 Q 298 80 274 73 Q 303 39 343 20 Q 384 0 432 0 Q 520 2 579 61 Q 638 120 640 208 L 640 208 Z M 396 155 Q 412 144 432 144 Q 459 145 477 163 Q 495 181 496 208 Q 496 231 482 248 Q 468 265 446 271 Q 436 205 396 155 L 396 155 Z M 0 304 Q 0 247 28 200 L 28 200 Q 55 153 104 124 Q 153 96 208 96 Q 263 96 312 124 Q 361 153 388 200 Q 416 247 416 304 Q 416 361 388 408 Q 361 455 312 484 Q 263 512 208 512 Q 153 512 104 484 Q 55 455 28 408 Q 0 361 0 304 L 0 304 Z M 256 304 Q 255 277 232 262 Q 208 250 184 262 Q 161 277 160 304 Q 161 331 184 346 Q 208 358 232 346 Q 255 331 256 304 L 256 304 Z M 120 208 L 144 232 L 168 208 L 144 184 L 120 208 L 120 208 Z M 80 296 L 104 272 L 80 248 L 56 272 L 80 296 L 80 296 Z M 112 424 L 136 400 L 112 376 L 88 400 L 112 424 L 112 424 Z M 304 264 L 328 240 L 304 216 L 280 240 L 304 264 L 304 264 Z M 216 432 L 240 456 L 264 432 L 240 408 L 216 432 L 216 432 Z M 304 424 L 328 400 L 304 376 L 280 400 L 304 424 L 304 424 Z"
  />
</svg>