<svg xmlns="http://www.w3.org/2000/svg" viewBox="0 0 512 512">
  <path d="M 416 192 Q 414 124 369 79 L 369 79 L 369 79 Q 324 34 256 32 Q 188 34 143 79 Q 98 124 96 192 Q 96 223 123 275 Q 149 326 186 375 Q 223 425 250 457 Q 253 460 255 463 Q 256 463 256 464 Q 257 462 258 461 Q 260 459 262 457 Q 290 425 326 375 Q 363 326 390 275 Q 416 223 416 192 L 416 192 Z M 448 192 Q 446 238 415 295 L 415 295 L 415 295 Q 383 353 344 405 L 344 405 L 344 405 Q 304 457 277 488 Q 257 511 256 512 Q 255 511 235 488 Q 208 457 168 405 Q 129 353 97 295 Q 66 238 64 192 Q 66 110 120 56 Q 174 2 256 0 Q 338 2 392 56 Q 446 110 448 192 L 448 192 Z M 191 105 L 203 116 L 191 105 L 203 116 L 256 169 L 256 169 L 309 116 L 309 116 L 321 105 L 321 105 L 343 127 L 343 127 L 332 139 L 332 139 L 279 192 L 279 192 L 332 245 L 332 245 L 343 257 L 343 257 L 321 279 L 321 279 L 309 268 L 309 268 L 256 215 L 256 215 L 203 268 L 203 268 L 191 279 L 191 279 L 169 257 L 169 257 L 180 245 L 180 245 L 233 192 L 233 192 L 180 139 L 180 139 L 169 127 L 169 127 L 191 105 L 191 105 Z" />
</svg>