<svg xmlns="http://www.w3.org/2000/svg" viewBox="0 0 512 512">
  <path d="M 358.4 409.6 L 346.4 409.6 L 358.4 409.6 L 346.4 409.6 L 338.4 400 L 338.4 400 L 141.6 153.6 L 141.6 153.6 L 25.6 153.6 L 0 153.6 L 0 102.4 L 0 102.4 L 25.6 102.4 L 165.6 102.4 L 173.6 112 L 173.6 112 L 370.4 358.4 L 370.4 358.4 L 486.4 358.4 L 512 358.4 L 512 409.6 L 512 409.6 L 486.4 409.6 L 358.4 409.6 Z M 358.4 153.6 L 332.8 153.6 L 358.4 153.6 L 332.8 153.6 L 332.8 102.4 L 332.8 102.4 L 358.4 102.4 L 512 102.4 L 512 153.6 L 512 153.6 L 486.4 153.6 L 358.4 153.6 Z" />
</svg>