<svg viewBox="0 0 448 512">
  <path
    d="M 448 0 L 0 0 L 0 448 L 67 448 L 25 489 L 3 512 L 93 512 L 157 448 L 291 448 L 355 512 L 445 512 L 423 489 L 381 448 L 448 448 L 448 0 L 448 0 Z M 208 96 L 208 256 L 64 256 L 64 96 L 208 96 L 208 96 Z M 240 96 L 384 96 L 384 256 L 240 256 L 240 96 L 240 96 Z M 96 320 Q 110 320 119 329 L 119 329 Q 128 338 128 352 Q 128 366 119 375 Q 110 384 96 384 Q 82 384 73 375 Q 64 366 64 352 Q 64 338 73 329 Q 82 320 96 320 L 96 320 Z M 320 352 Q 320 338 329 329 L 329 329 Q 338 320 352 320 Q 366 320 375 329 Q 384 338 384 352 Q 384 366 375 375 Q 366 384 352 384 Q 338 384 329 375 Q 320 366 320 352 L 320 352 Z"
  />
</svg>