<svg xmlns="http://www.w3.org/2000/svg" viewBox="0 0 512 512">
  <path d="M 36.57142857142857 0 L 0 0 L 36.57142857142857 0 L 0 0 L 0 36.57142857142857 L 0 36.57142857142857 L 0 512 L 0 512 L 73.14285714285714 512 L 73.14285714285714 512 L 73.14285714285714 73.14285714285714 L 73.14285714285714 73.14285714285714 L 219.42857142857142 73.14285714285714 L 219.42857142857142 73.14285714285714 Q 250.28571428571428 74.28571428571429 270.85714285714283 94.85714285714286 Q 291.42857142857144 115.42857142857143 292.57142857142856 146.28571428571428 L 292.57142857142856 365.7142857142857 L 292.57142857142856 365.7142857142857 L 365.7142857142857 365.7142857142857 L 365.7142857142857 365.7142857142857 L 365.7142857142857 146.28571428571428 L 365.7142857142857 146.28571428571428 Q 364.57142857142856 84.57142857142857 323.42857142857144 42.285714285714285 Q 281.14285714285717 1.1428571428571428 219.42857142857142 0 L 36.57142857142857 0 L 36.57142857142857 0 Z M 365.7142857142857 512 Q 427.42857142857144 510.85714285714283 469.7142857142857 469.7142857142857 L 469.7142857142857 469.7142857142857 L 469.7142857142857 469.7142857142857 Q 510.85714285714283 427.42857142857144 512 365.7142857142857 L 512 0 L 512 0 L 438.85714285714283 0 L 438.85714285714283 0 L 438.85714285714283 365.7142857142857 L 438.85714285714283 365.7142857142857 Q 437.7142857142857 396.57142857142856 417.14285714285717 417.14285714285717 Q 396.57142857142856 437.7142857142857 365.7142857142857 438.85714285714283 L 219.42857142857142 438.85714285714283 L 219.42857142857142 438.85714285714283 L 219.42857142857142 146.28571428571428 L 219.42857142857142 146.28571428571428 L 146.28571428571428 146.28571428571428 L 146.28571428571428 146.28571428571428 L 146.28571428571428 475.42857142857144 L 146.28571428571428 475.42857142857144 L 146.28571428571428 512 L 146.28571428571428 512 L 182.85714285714286 512 L 365.7142857142857 512 Z" />
</svg>