<svg xmlns="http://www.w3.org/2000/svg" viewBox="0 0 512 448">
    <path d="M 32 0 L 224 0 L 272 64 L 480 64 L 512 64 L 512 96 L 512 416 L 512 448 L 480 448 L 32 448 L 0 448 L 0 416 L 0 32 L 0 0 L 32 0 L 32 0 Z M 272 96 L 256 96 L 246 83 L 208 32 L 32 32 L 32 416 L 480 416 L 480 96 L 272 96 L 272 96 Z M 352 160 L 352 304 Q 352 304 352 305 Q 352 305 352 306 Q 352 306 352 307 Q 352 307 352 308 Q 351 327 338 339 Q 324 352 304 352 Q 284 352 270 339 Q 257 327 256 308 Q 257 289 270 277 Q 284 264 304 264 Q 312 264 320 267 L 320 183 L 224 219 L 224 336 Q 224 336 224 337 Q 224 337 224 338 Q 224 338 224 339 Q 224 339 224 340 Q 223 359 210 371 Q 196 384 176 384 Q 156 384 142 371 Q 129 359 128 340 Q 129 321 142 309 Q 156 296 176 296 Q 184 296 192 299 L 192 208 L 192 197 L 202 193 L 330 145 L 352 137 L 352 160 L 352 160 Z M 192 340 Q 193 331 176 328 Q 159 331 160 340 Q 159 349 176 352 Q 193 349 192 340 L 192 340 Z M 304 320 Q 321 317 320 308 Q 321 299 304 296 Q 287 299 288 308 Q 287 317 304 320 L 304 320 Z"/>
</svg>
