<svg xmlns="http://www.w3.org/2000/svg" viewBox="0 0 512 512">
  <path d="M 237.71428571428572 73.14285714285714 Q 206.85714285714286 74.28571428571429 186.28571428571428 94.85714285714286 L 186.28571428571428 94.85714285714286 L 186.28571428571428 94.85714285714286 Q 165.71428571428572 115.42857142857143 164.57142857142858 146.28571428571428 L 164.57142857142858 164.57142857142858 L 164.57142857142858 164.57142857142858 L 91.42857142857143 164.57142857142858 L 91.42857142857143 164.57142857142858 L 91.42857142857143 146.28571428571428 L 91.42857142857143 146.28571428571428 Q 92.57142857142857 84.57142857142857 133.71428571428572 42.285714285714285 Q 176 1.1428571428571428 237.71428571428572 0 L 274.2857142857143 0 L 274.2857142857143 0 Q 336 1.1428571428571428 378.2857142857143 42.285714285714285 Q 419.42857142857144 84.57142857142857 420.57142857142856 146.28571428571428 L 420.57142857142856 156.57142857142858 L 420.57142857142856 156.57142857142858 Q 419.42857142857144 227.42857142857142 364.57142857142856 272 L 292.57142857142856 329.14285714285717 L 292.57142857142856 329.14285714285717 L 292.57142857142856 329.14285714285717 L 292.57142857142856 329.14285714285717 L 292.57142857142856 365.7142857142857 L 292.57142857142856 365.7142857142857 L 219.42857142857142 365.7142857142857 L 219.42857142857142 365.7142857142857 L 219.42857142857142 329.14285714285717 L 219.42857142857142 329.14285714285717 L 219.42857142857142 310.85714285714283 L 219.42857142857142 310.85714285714283 L 219.42857142857142 292.57142857142856 L 219.42857142857142 292.57142857142856 L 219.42857142857142 164.57142857142858 L 219.42857142857142 164.57142857142858 L 219.42857142857142 128 L 219.42857142857142 128 L 292.57142857142856 128 L 292.57142857142856 128 L 292.57142857142856 164.57142857142858 L 292.57142857142856 164.57142857142858 L 292.57142857142856 235.42857142857142 L 292.57142857142856 235.42857142857142 L 320 214.85714285714286 L 320 214.85714285714286 Q 346.2857142857143 192 347.42857142857144 156.57142857142858 L 347.42857142857144 146.28571428571428 L 347.42857142857144 146.28571428571428 Q 346.2857142857143 115.42857142857143 325.7142857142857 94.85714285714286 Q 305.14285714285717 74.28571428571429 274.2857142857143 73.14285714285714 L 237.71428571428572 73.14285714285714 L 237.71428571428572 73.14285714285714 Z M 210.28571428571428 420.57142857142856 L 301.7142857142857 420.57142857142856 L 210.28571428571428 420.57142857142856 L 301.7142857142857 420.57142857142856 L 301.7142857142857 512 L 301.7142857142857 512 L 210.28571428571428 512 L 210.28571428571428 512 L 210.28571428571428 420.57142857142856 L 210.28571428571428 420.57142857142856 Z" />
</svg>