<svg xmlns="http://www.w3.org/2000/svg" viewBox="0 0 512 512">
  <path d="M 256 512 Q 326 511 384 478 L 384 478 L 384 478 Q 442 444 478 384 Q 512 323 512 256 Q 512 189 478 128 Q 442 68 384 34 Q 326 1 256 0 Q 186 1 128 34 Q 70 68 34 128 Q 0 189 0 256 Q 0 323 34 384 Q 70 444 128 478 Q 186 511 256 512 L 256 512 Z M 288 144 L 288 368 L 288 144 L 288 368 L 288 384 L 288 384 L 256 384 L 256 384 L 256 368 L 256 368 L 256 144 L 256 144 L 256 128 L 256 128 L 288 128 L 288 128 L 288 144 L 288 144 Z M 160 176 L 160 336 L 160 176 L 160 336 L 160 352 L 160 352 L 128 352 L 128 352 L 128 336 L 128 336 L 128 176 L 128 176 L 128 160 L 128 160 L 160 160 L 160 160 L 160 176 L 160 176 Z M 352 200 L 352 312 L 352 200 L 352 312 L 352 328 L 352 328 L 320 328 L 320 328 L 320 312 L 320 312 L 320 200 L 320 200 L 320 184 L 320 184 L 352 184 L 352 184 L 352 200 L 352 200 Z M 224 216 L 224 296 L 224 216 L 224 296 L 224 312 L 224 312 L 192 312 L 192 312 L 192 296 L 192 296 L 192 216 L 192 216 L 192 200 L 192 200 L 224 200 L 224 200 L 224 216 L 224 216 Z M 416 240 L 416 272 L 416 240 L 416 272 L 416 288 L 416 288 L 384 288 L 384 288 L 384 272 L 384 272 L 384 240 L 384 240 L 384 224 L 384 224 L 416 224 L 416 224 L 416 240 L 416 240 Z" />
</svg>