<svg xmlns="http://www.w3.org/2000/svg" viewBox="0 0 576 512">
    <path d="M 312 24 L 312 0 L 264 0 L 264 24 L 264 72 L 264 96 L 312 96 L 312 72 L 312 24 L 312 24 Z M 24 464 L 0 464 L 0 512 L 24 512 L 552 512 L 576 512 L 576 464 L 552 464 L 389 464 Q 380 429 353 407 Q 326 385 288 384 Q 250 385 223 407 Q 196 429 187 464 L 24 464 L 24 464 Z M 237 464 Q 253 434 288 432 Q 323 434 339 464 L 237 464 L 237 464 Z M 32 336 L 62 384 L 91 432 L 147 432 L 118 384 L 128 384 L 182 384 L 176 331 L 171 287 L 198 304 L 252 339 L 270 278 L 288 218 L 298 253 L 323 341 L 381 271 L 435 205 L 402 323 L 384 384 L 448 384 L 458 384 L 429 432 L 485 432 L 515 384 L 544 336 L 498 336 L 488 336 L 448 336 L 462 288 L 511 114 L 544 0 L 468 91 L 381 195 L 344 240 L 328 184 L 312 128 L 264 128 L 238 216 L 224 264 L 182 237 L 164 225 L 112 192 L 119 254 L 123 288 L 128 336 L 88 336 L 80 336 L 32 336 L 32 336 Z"/>
</svg>
