<svg xmlns="http://www.w3.org/2000/svg" viewBox="0 0 512 512">
  <path d="M 208 0 L 208 96 L 208 0 L 208 96 L 304 96 L 304 96 L 304 0 L 304 0 L 208 0 L 208 0 Z M 0 208 L 0 304 L 0 208 L 0 304 L 96 304 L 96 304 L 96 208 L 96 208 L 0 208 L 0 208 Z M 208 512 L 304 512 L 208 512 L 304 512 L 304 416 L 304 416 L 208 416 L 208 416 L 208 512 L 208 512 Z M 512 208 L 416 208 L 512 208 L 416 208 L 416 304 L 416 304 L 512 304 L 512 304 L 512 208 L 512 208 Z M 41 403 L 109 471 L 41 403 L 109 471 L 177 403 L 177 403 L 109 335 L 109 335 L 41 403 L 41 403 Z M 403 471 L 471 403 L 403 471 L 471 403 L 403 335 L 403 335 L 335 403 L 335 403 L 403 471 L 403 471 Z M 41 109 L 109 177 L 41 109 L 109 177 L 177 109 L 177 109 L 109 41 L 109 41 L 41 109 L 41 109 Z" />
</svg>