<svg xmlns="http://www.w3.org/2000/svg" viewBox="0 0 512 512">
  <path d="M 51.120125 77.07957 L 77.47894 228.04369 L 51.120125 77.07957 L 77.47894 228.04369 L 94.25273 268.78003 L 94.25273 268.78003 L 102.24025 268.78003 L 102.24025 268.78003 L 102.24025 124.205925 L 102.24025 124.205925 L 89.46022 51.5195 L 89.46022 51.5195 L 51.120125 77.07957 L 51.120125 77.07957 Z M 15.176287 204.87988 L 47.925117 204.87988 L 15.176287 204.87988 L 47.925117 204.87988 L 33.54758 124.205925 L 33.54758 124.205925 L 0 115.419655 L 0 115.419655 L 15.176287 204.87988 L 15.176287 204.87988 Z M 306.72073 115.419655 L 273.97192 123.40717 L 306.72073 115.419655 L 273.97192 123.40717 L 260.39313 204.87988 L 260.39313 204.87988 L 265.9844 204.87988 L 265.9844 204.87988 Q 278.76443 197.6911 293.9407 192.09984 L 306.72073 115.419655 L 306.72073 115.419655 Z M 204.4805 460.4805 L 204.4805 294.3401 L 204.4805 460.4805 L 204.4805 294.3401 L 76.68018 294.3401 L 76.68018 294.3401 L 51.120125 230.43994 L 51.120125 230.43994 L 0 230.43994 L 0 230.43994 L 51.120125 460.4805 L 51.120125 460.4805 L 204.4805 460.4805 L 204.4805 460.4805 Z M 204.4805 268.78003 L 207.6755 268.78003 L 204.4805 268.78003 L 207.6755 268.78003 Q 210.07176 262.39 214.06552 256.79877 Q 217.26053 250.40874 223.65054 242.42122 L 231.63806 222.45242 L 231.63806 222.45242 L 255.60062 77.07957 L 255.60062 77.07957 L 204.4805 89.8596 L 204.4805 89.8596 L 204.4805 268.78003 L 204.4805 268.78003 Z M 127.80031 268.78003 L 178.92044 268.78003 L 127.80031 268.78003 L 178.92044 268.78003 L 178.92044 243.21997 L 178.92044 243.21997 L 178.92044 77.07957 L 178.92044 77.07957 L 127.80031 51.5195 L 127.80031 51.5195 L 127.80031 268.78003 L 127.80031 268.78003 Z M 511.20123 281.56006 Q 512 279.96255 500.0187 261.59128 L 500.0187 261.59128 L 500.0187 261.59128 Q 488.83618 243.21997 458.4836 224.84868 L 458.4836 224.84868 L 458.4836 224.84868 Q 427.3323 206.47739 370.6209 204.87988 Q 313.90952 206.47739 282.75818 224.84868 Q 252.40561 243.21997 241.22308 261.59128 Q 229.2418 279.96255 230.04056 281.56006 L 230.04056 307.12012 L 230.04056 307.12012 L 511.20123 307.12012 L 511.20123 307.12012 L 511.20123 281.56006 L 511.20123 281.56006 Z M 306.72073 243.21997 Q 318.70203 244.01872 319.5008 256 Q 318.70203 267.18253 306.72073 268.78003 Q 294.73947 267.18253 293.9407 256 Q 294.73947 244.01872 306.72073 243.21997 L 306.72073 243.21997 Z M 357.84088 243.21997 Q 358.63962 231.2387 370.6209 230.43994 Q 382.60217 231.2387 383.40094 243.21997 Q 382.60217 254.4025 370.6209 256 Q 358.63962 254.4025 357.84088 243.21997 L 357.84088 243.21997 Z M 434.52106 243.21997 Q 446.50235 244.01872 447.3011 256 Q 446.50235 267.18253 434.52106 268.78003 Q 422.5398 267.18253 421.74103 256 Q 422.5398 244.01872 434.52106 243.21997 L 434.52106 243.21997 Z M 230.04056 332.68018 L 230.04056 383.80032 L 230.04056 332.68018 L 230.04056 383.80032 L 511.20123 383.80032 L 511.20123 383.80032 L 511.20123 332.68018 L 511.20123 332.68018 L 230.04056 332.68018 L 230.04056 332.68018 Z M 230.04056 409.36038 L 230.04056 460.4805 L 230.04056 409.36038 L 230.04056 460.4805 L 511.20123 460.4805 L 511.20123 460.4805 L 511.20123 409.36038 L 511.20123 409.36038 L 230.04056 409.36038 L 230.04056 409.36038 Z" />
</svg>