<svg xmlns="http://www.w3.org/2000/svg" viewBox="0 0 512 512">
  <path d="M 227.55555555555554 28.444444444444443 L 215.11111111111111 28.444444444444443 L 227.55555555555554 28.444444444444443 L 215.11111111111111 28.444444444444443 L 213.33333333333334 40.888888888888886 L 213.33333333333334 40.888888888888886 L 209.77777777777777 71.11111111111111 L 209.77777777777777 71.11111111111111 L 170.66666666666666 71.11111111111111 L 156.44444444444446 71.11111111111111 L 156.44444444444446 85.33333333333333 L 156.44444444444446 85.33333333333333 L 156.44444444444446 142.22222222222223 L 156.44444444444446 142.22222222222223 L 156.44444444444446 156.44444444444446 L 156.44444444444446 156.44444444444446 L 170.66666666666666 156.44444444444446 L 198.22222222222223 156.44444444444446 L 193.77777777777777 189.33333333333334 L 193.77777777777777 189.33333333333334 L 134.22222222222223 197.33333333333334 L 134.22222222222223 197.33333333333334 L 128 154.66666666666666 L 128 154.66666666666666 L 126.22222222222223 142.22222222222223 L 126.22222222222223 142.22222222222223 L 113.77777777777777 142.22222222222223 L 44.44444444444444 142.22222222222223 L 42.666666666666664 154.66666666666666 L 42.666666666666664 154.66666666666666 L 34.666666666666664 210.66666666666666 L 34.666666666666664 210.66666666666666 Q 19.555555555555557 215.11111111111111 9.777777777777779 227.55555555555554 Q 0 240 0 256 Q 0 272 9.777777777777779 284.44444444444446 Q 19.555555555555557 296.8888888888889 34.666666666666664 301.3333333333333 L 42.666666666666664 357.3333333333333 L 42.666666666666664 357.3333333333333 L 44.44444444444444 369.77777777777777 L 44.44444444444444 369.77777777777777 L 56.888888888888886 369.77777777777777 L 126.22222222222223 369.77777777777777 L 128 357.3333333333333 L 128 357.3333333333333 L 134.22222222222223 314.6666666666667 L 134.22222222222223 314.6666666666667 L 193.77777777777777 322.6666666666667 L 193.77777777777777 322.6666666666667 L 198.22222222222223 355.55555555555554 L 198.22222222222223 355.55555555555554 L 170.66666666666666 355.55555555555554 L 156.44444444444446 355.55555555555554 L 156.44444444444446 369.77777777777777 L 156.44444444444446 369.77777777777777 L 156.44444444444446 426.6666666666667 L 156.44444444444446 426.6666666666667 L 156.44444444444446 440.8888888888889 L 156.44444444444446 440.8888888888889 L 170.66666666666666 440.8888888888889 L 209.77777777777777 440.8888888888889 L 213.33333333333334 471.1111111111111 L 213.33333333333334 471.1111111111111 L 215.11111111111111 483.55555555555554 L 215.11111111111111 483.55555555555554 L 227.55555555555554 483.55555555555554 L 296.8888888888889 483.55555555555554 L 298.6666666666667 471.1111111111111 L 298.6666666666667 471.1111111111111 L 306.6666666666667 412.44444444444446 L 306.6666666666667 412.44444444444446 L 327.1111111111111 412.44444444444446 L 327.1111111111111 412.44444444444446 L 327.1111111111111 440.8888888888889 L 327.1111111111111 440.8888888888889 L 327.1111111111111 455.1111111111111 L 327.1111111111111 455.1111111111111 L 355.55555555555554 455.1111111111111 L 355.55555555555554 455.1111111111111 L 355.55555555555554 440.8888888888889 L 355.55555555555554 440.8888888888889 L 355.55555555555554 412.44444444444446 L 355.55555555555554 412.44444444444446 L 369.77777777777777 412.44444444444446 L 369.77777777777777 412.44444444444446 L 369.77777777777777 384 L 369.77777777777777 384 L 355.55555555555554 384 L 355.55555555555554 384 L 355.55555555555554 355.55555555555554 L 355.55555555555554 355.55555555555554 L 355.55555555555554 341.3333333333333 L 355.55555555555554 341.3333333333333 L 327.1111111111111 341.3333333333333 L 327.1111111111111 341.3333333333333 L 327.1111111111111 355.55555555555554 L 327.1111111111111 355.55555555555554 L 327.1111111111111 384 L 327.1111111111111 384 L 310.22222222222223 384 L 310.22222222222223 384 L 317.3333333333333 327.1111111111111 L 317.3333333333333 327.1111111111111 L 414.22222222222223 327.1111111111111 L 414.22222222222223 327.1111111111111 Q 444.44444444444446 326.22222222222223 474.6666666666667 308.44444444444446 Q 488.8888888888889 300.44444444444446 500.44444444444446 287.1111111111111 Q 511.1111111111111 273.77777777777777 512 256 Q 511.1111111111111 238.22222222222223 500.44444444444446 224.88888888888889 Q 489.77777777777777 212.44444444444446 474.6666666666667 203.55555555555554 Q 444.44444444444446 185.77777777777777 414.22222222222223 184.88888888888889 L 318.22222222222223 184.88888888888889 L 318.22222222222223 184.88888888888889 L 310.22222222222223 128 L 310.22222222222223 128 L 327.1111111111111 128 L 327.1111111111111 128 L 327.1111111111111 156.44444444444446 L 327.1111111111111 156.44444444444446 L 327.1111111111111 170.66666666666666 L 327.1111111111111 170.66666666666666 L 355.55555555555554 170.66666666666666 L 355.55555555555554 170.66666666666666 L 355.55555555555554 156.44444444444446 L 355.55555555555554 156.44444444444446 L 355.55555555555554 128 L 355.55555555555554 128 L 369.77777777777777 128 L 369.77777777777777 128 L 369.77777777777777 99.55555555555556 L 369.77777777777777 99.55555555555556 L 355.55555555555554 99.55555555555556 L 355.55555555555554 99.55555555555556 L 355.55555555555554 71.11111111111111 L 355.55555555555554 71.11111111111111 L 355.55555555555554 56.888888888888886 L 355.55555555555554 56.888888888888886 L 327.1111111111111 56.888888888888886 L 327.1111111111111 56.888888888888886 L 327.1111111111111 71.11111111111111 L 327.1111111111111 71.11111111111111 L 327.1111111111111 99.55555555555556 L 327.1111111111111 99.55555555555556 L 306.6666666666667 99.55555555555556 L 306.6666666666667 99.55555555555556 L 298.6666666666667 40.888888888888886 L 298.6666666666667 40.888888888888886 L 296.8888888888889 28.444444444444443 L 296.8888888888889 28.444444444444443 L 284.44444444444446 28.444444444444443 L 227.55555555555554 28.444444444444443 Z M 184.88888888888889 384 L 201.77777777777777 384 L 184.88888888888889 384 L 201.77777777777777 384 L 205.33333333333334 412.44444444444446 L 205.33333333333334 412.44444444444446 L 184.88888888888889 412.44444444444446 L 184.88888888888889 412.44444444444446 L 184.88888888888889 384 L 184.88888888888889 384 Z M 184.88888888888889 99.55555555555556 L 205.33333333333334 99.55555555555556 L 184.88888888888889 99.55555555555556 L 205.33333333333334 99.55555555555556 L 201.77777777777777 128 L 201.77777777777777 128 L 184.88888888888889 128 L 184.88888888888889 128 L 184.88888888888889 99.55555555555556 L 184.88888888888889 99.55555555555556 Z M 288.8888888888889 184.88888888888889 L 227.55555555555554 184.88888888888889 L 288.8888888888889 184.88888888888889 L 225.77777777777777 184.88888888888889 L 223.11111111111111 185.77777777777777 L 223.11111111111111 185.77777777777777 L 240 56.888888888888886 L 240 56.888888888888886 L 272 56.888888888888886 L 272 56.888888888888886 L 288.8888888888889 184.88888888888889 L 288.8888888888889 184.88888888888889 Z M 288.8888888888889 327.1111111111111 L 272 455.1111111111111 L 288.8888888888889 327.1111111111111 L 272 455.1111111111111 L 240 455.1111111111111 L 240 455.1111111111111 L 223.11111111111111 326.22222222222223 L 223.11111111111111 326.22222222222223 L 225.77777777777777 327.1111111111111 L 225.77777777777777 327.1111111111111 L 226.66666666666666 327.1111111111111 L 288.8888888888889 327.1111111111111 Z M 61.333333333333336 224.88888888888889 L 69.33333333333333 170.66666666666666 L 61.333333333333336 224.88888888888889 L 69.33333333333333 170.66666666666666 L 101.33333333333333 170.66666666666666 L 101.33333333333333 170.66666666666666 L 107.55555555555556 215.11111111111111 L 107.55555555555556 215.11111111111111 L 110.22222222222223 229.33333333333334 L 110.22222222222223 229.33333333333334 L 123.55555555555556 227.55555555555554 L 123.55555555555556 227.55555555555554 L 228.44444444444446 213.33333333333334 L 228.44444444444446 213.33333333333334 L 414.22222222222223 213.33333333333334 L 414.22222222222223 213.33333333333334 Q 434.6666666666667 213.33333333333334 460.44444444444446 228.44444444444446 Q 472 235.55555555555554 478.22222222222223 242.66666666666666 Q 483.55555555555554 250.66666666666666 483.55555555555554 256 Q 483.55555555555554 269.3333333333333 460.44444444444446 284.44444444444446 Q 434.6666666666667 298.6666666666667 414.22222222222223 298.6666666666667 L 228.44444444444446 298.6666666666667 L 228.44444444444446 298.6666666666667 L 123.55555555555556 284.44444444444446 L 123.55555555555556 284.44444444444446 L 110.22222222222223 282.6666666666667 L 110.22222222222223 282.6666666666667 L 107.55555555555556 296.8888888888889 L 107.55555555555556 296.8888888888889 L 101.33333333333333 341.3333333333333 L 101.33333333333333 341.3333333333333 L 69.33333333333333 341.3333333333333 L 69.33333333333333 341.3333333333333 L 61.333333333333336 287.1111111111111 L 61.333333333333336 287.1111111111111 L 59.55555555555556 276.44444444444446 L 59.55555555555556 276.44444444444446 L 48.888888888888886 274.6666666666667 L 48.888888888888886 274.6666666666667 L 44.44444444444444 273.77777777777777 L 44.44444444444444 273.77777777777777 Q 29.333333333333332 271.1111111111111 28.444444444444443 256 Q 29.333333333333332 240.88888888888889 44.44444444444444 238.22222222222223 L 48.888888888888886 237.33333333333334 L 48.888888888888886 237.33333333333334 L 59.55555555555556 235.55555555555554 L 59.55555555555556 235.55555555555554 L 61.333333333333336 224.88888888888889 L 61.333333333333336 224.88888888888889 Z" />
</svg>