<svg xmlns="http://www.w3.org/2000/svg" viewBox="0 0 512 512">
  <path d="M 177.77777777777777 85.33333333333333 Q 126.22222222222223 86.22222222222223 92.44444444444444 120.88888888888889 L 92.44444444444444 120.88888888888889 L 92.44444444444444 120.88888888888889 Q 57.77777777777778 154.66666666666666 56.888888888888886 206.22222222222223 L 56.888888888888886 241.77777777777777 L 56.888888888888886 241.77777777777777 L 56.888888888888886 256 L 56.888888888888886 256 L 28.444444444444443 256 L 28.444444444444443 256 L 28.444444444444443 241.77777777777777 L 28.444444444444443 241.77777777777777 L 28.444444444444443 206.22222222222223 L 28.444444444444443 206.22222222222223 Q 30.22222222222222 143.11111111111111 72 100.44444444444444 Q 114.66666666666667 58.666666666666664 177.77777777777777 56.888888888888886 Q 240.88888888888889 58.666666666666664 283.55555555555554 100.44444444444444 Q 325.3333333333333 143.11111111111111 327.1111111111111 206.22222222222223 L 327.1111111111111 241.77777777777777 L 327.1111111111111 241.77777777777777 L 327.1111111111111 256 L 327.1111111111111 256 L 298.6666666666667 256 L 298.6666666666667 256 L 298.6666666666667 241.77777777777777 L 298.6666666666667 241.77777777777777 L 298.6666666666667 206.22222222222223 L 298.6666666666667 206.22222222222223 Q 297.77777777777777 154.66666666666666 263.1111111111111 120.88888888888889 Q 229.33333333333334 86.22222222222223 177.77777777777777 85.33333333333333 L 177.77777777777777 85.33333333333333 Z M 355.55555555555554 128 L 369.77777777777777 128 L 355.55555555555554 128 L 419.55555555555554 128 Q 458.6666666666667 128.88888888888889 485.3333333333333 154.66666666666666 Q 511.1111111111111 181.33333333333334 512 220.44444444444446 L 512 270.22222222222223 L 512 270.22222222222223 L 512 284.44444444444446 L 512 284.44444444444446 L 497.77777777777777 284.44444444444446 L 440.8888888888889 284.44444444444446 L 440.8888888888889 355.55555555555554 L 440.8888888888889 355.55555555555554 L 440.8888888888889 369.77777777777777 L 440.8888888888889 369.77777777777777 L 426.6666666666667 369.77777777777777 L 312.8888888888889 369.77777777777777 L 312.8888888888889 440.8888888888889 L 312.8888888888889 440.8888888888889 L 312.8888888888889 455.1111111111111 L 312.8888888888889 455.1111111111111 L 298.6666666666667 455.1111111111111 L 199.11111111111111 455.1111111111111 L 199.11111111111111 440.8888888888889 L 199.11111111111111 440.8888888888889 L 199.11111111111111 369.77777777777777 L 199.11111111111111 369.77777777777777 L 170.66666666666666 369.77777777777777 L 170.66666666666666 369.77777777777777 L 170.66666666666666 440.8888888888889 L 170.66666666666666 440.8888888888889 L 170.66666666666666 455.1111111111111 L 170.66666666666666 455.1111111111111 L 156.44444444444446 455.1111111111111 L 56.888888888888886 455.1111111111111 L 56.888888888888886 440.8888888888889 L 56.888888888888886 440.8888888888889 L 56.888888888888886 369.77777777777777 L 56.888888888888886 369.77777777777777 L 14.222222222222221 369.77777777777777 L 0 369.77777777777777 L 0 355.55555555555554 L 0 355.55555555555554 L 0 298.6666666666667 L 0 298.6666666666667 L 0 284.44444444444446 L 0 284.44444444444446 L 14.222222222222221 284.44444444444446 L 355.55555555555554 284.44444444444446 L 355.55555555555554 142.22222222222223 L 355.55555555555554 142.22222222222223 L 355.55555555555554 128 L 355.55555555555554 128 Z M 227.55555555555554 426.6666666666667 L 284.44444444444446 426.6666666666667 L 227.55555555555554 426.6666666666667 L 284.44444444444446 426.6666666666667 L 284.44444444444446 398.22222222222223 L 284.44444444444446 398.22222222222223 L 284.44444444444446 369.77777777777777 L 284.44444444444446 369.77777777777777 L 284.44444444444446 341.3333333333333 L 284.44444444444446 341.3333333333333 L 412.44444444444446 341.3333333333333 L 412.44444444444446 341.3333333333333 L 412.44444444444446 270.22222222222223 L 412.44444444444446 270.22222222222223 L 412.44444444444446 256 L 412.44444444444446 256 L 426.6666666666667 256 L 483.55555555555554 256 L 483.55555555555554 220.44444444444446 L 483.55555555555554 220.44444444444446 Q 482.6666666666667 192.88888888888889 464.8888888888889 175.11111111111111 Q 447.1111111111111 157.33333333333334 419.55555555555554 156.44444444444446 L 384 156.44444444444446 L 384 156.44444444444446 L 384 298.6666666666667 L 384 298.6666666666667 L 384 312.8888888888889 L 384 312.8888888888889 L 369.77777777777777 312.8888888888889 L 28.444444444444443 312.8888888888889 L 28.444444444444443 341.3333333333333 L 28.444444444444443 341.3333333333333 L 85.33333333333333 341.3333333333333 L 85.33333333333333 341.3333333333333 L 85.33333333333333 369.77777777777777 L 85.33333333333333 369.77777777777777 L 85.33333333333333 398.22222222222223 L 85.33333333333333 398.22222222222223 L 85.33333333333333 426.6666666666667 L 85.33333333333333 426.6666666666667 L 142.22222222222223 426.6666666666667 L 142.22222222222223 426.6666666666667 L 142.22222222222223 398.22222222222223 L 142.22222222222223 398.22222222222223 L 142.22222222222223 369.77777777777777 L 142.22222222222223 369.77777777777777 L 142.22222222222223 341.3333333333333 L 142.22222222222223 341.3333333333333 L 227.55555555555554 341.3333333333333 L 227.55555555555554 341.3333333333333 L 227.55555555555554 369.77777777777777 L 227.55555555555554 369.77777777777777 L 227.55555555555554 398.22222222222223 L 227.55555555555554 398.22222222222223 L 227.55555555555554 426.6666666666667 L 227.55555555555554 426.6666666666667 Z M 426.6666666666667 199.11111111111111 Q 440 200 440.8888888888889 213.33333333333334 Q 440 226.66666666666666 426.6666666666667 227.55555555555554 Q 413.3333333333333 226.66666666666666 412.44444444444446 213.33333333333334 Q 413.3333333333333 200 426.6666666666667 199.11111111111111 L 426.6666666666667 199.11111111111111 Z" />
</svg>