<svg xmlns="http://www.w3.org/2000/svg" viewBox="0 0 512 512">
  <path d="M 411.5 32 Q 425.5 32 434.5 41 L 434.5 41 L 434.5 41 Q 443.5 50 443.5 64 Q 443.5 78 434.5 87 Q 425.5 96 411.5 96 Q 397.5 96 388.5 87 Q 379.5 78 379.5 64 Q 379.5 50 388.5 41 Q 397.5 32 411.5 32 L 411.5 32 Z M 411.5 128 Q 447.5 127 466.5 96 Q 484.5 64 466.5 32 Q 447.5 1 411.5 0 Q 375.5 1 356.5 32 Q 338.5 64 356.5 96 Q 375.5 127 411.5 128 L 411.5 128 Z M 96.5 285 L 107.5 275 L 96.5 285 L 107.5 275 L 107.5 261 L 107.5 261 L 107.5 32 L 107.5 32 L 235.5 32 L 235.5 32 L 235.5 261 L 235.5 261 L 235.5 275 L 235.5 275 L 246.5 285 L 246.5 285 Q 282.5 317 283.5 368 Q 282.5 416 250.5 447 Q 219.5 479 171.5 480 Q 123.5 479 92.5 447 Q 60.5 416 59.5 368 Q 60.5 317 96.5 285 L 96.5 285 Z M 267.5 0 L 235.5 0 L 267.5 0 L 75.5 0 L 75.5 32 L 75.5 32 L 75.5 261 L 75.5 261 Q 29.5 302 27.5 368 Q 29.5 429 69.5 470 Q 110.5 510 171.5 512 Q 232.5 510 273.5 470 Q 313.5 429 315.5 368 Q 313.5 302 267.5 261 L 267.5 32 L 267.5 32 L 267.5 0 L 267.5 0 Z M 139.5 368 Q 139.5 354 148.5 345 L 148.5 345 L 148.5 345 Q 157.5 336 171.5 336 Q 185.5 336 194.5 345 Q 203.5 354 203.5 368 Q 203.5 382 194.5 391 Q 185.5 400 171.5 400 Q 157.5 400 148.5 391 Q 139.5 382 139.5 368 L 139.5 368 Z M 235.5 368 Q 235.5 345 221.5 328 L 221.5 328 L 221.5 328 Q 208.5 312 187.5 306 L 187.5 272 L 187.5 272 L 187.5 256 L 187.5 256 L 155.5 256 L 155.5 256 L 155.5 272 L 155.5 272 L 155.5 306 L 155.5 306 Q 134.5 312 121.5 328 Q 107.5 345 107.5 368 Q 108.5 395 126.5 413 Q 144.5 431 171.5 432 Q 198.5 431 216.5 413 Q 234.5 395 235.5 368 L 235.5 368 Z" />
</svg>