<svg xmlns="http://www.w3.org/2000/svg" viewBox="0 0 512 512">
  <path d="M 510.0038986354776 273.96491228070175 Q 505.0136452241715 340.83430799220275 470.08187134502924 394.729044834308 L 470.08187134502924 394.729044834308 L 470.08187134502924 394.729044834308 Q 435.1500974658869 447.62573099415204 379.25925925925924 479.5633528265107 L 379.25925925925924 479.5633528265107 L 379.25925925925924 479.5633528265107 Q 323.36842105263156 510.5029239766082 255.50097465886938 511.5009746588694 Q 183.64132553606237 510.5029239766082 126.75243664717348 476.5692007797271 Q 68.86549707602339 442.635477582846 34.9317738791423 384.7485380116959 Q 0.9980506822612085 327.859649122807 0 256 Q 0.9980506822612085 184.140350877193 34.9317738791423 127.25146198830409 Q 68.86549707602339 69.36452241715399 126.75243664717348 35.4307992202729 Q 183.64132553606237 1.4970760233918128 255.50097465886938 0.49902534113060426 Q 334.3469785575049 1.4970760233918128 396.2261208576998 42.41715399610136 Q 457.1072124756335 83.33723196881091 488.046783625731 151.2046783625731 L 482.05847953216374 157.19298245614036 L 482.05847953216374 157.19298245614036 L 305.4035087719298 328.85769980506825 L 305.4035087719298 328.85769980506825 Q 283.4463937621832 319.87524366471735 255.50097465886938 319.87524366471735 Q 201.60623781676412 321.87134502923976 170.66666666666666 346.82261208577 Q 138.72904483430798 371.7738791423002 129.7465886939571 392.7329434697856 L 157.69200779727095 406.7056530214425 L 157.69200779727095 406.7056530214425 Q 164.6783625730994 391.73489278752436 188.6315789473684 372.7719298245614 Q 213.58284600389862 353.80896686159844 255.50097465886938 351.812865497076 Q 297.41910331384014 353.80896686159844 322.3703703703704 372.7719298245614 Q 346.3235867446394 391.73489278752436 353.3099415204678 406.7056530214425 L 381.25536062378166 392.7329434697856 L 381.25536062378166 392.7329434697856 Q 378.26120857699806 386.74463937621834 373.270955165692 378.7602339181287 L 383.2514619883041 368.7797270955166 L 383.2514619883041 368.7797270955166 L 359.29824561403507 343.82846003898635 L 359.29824561403507 343.82846003898635 L 350.3157894736842 335.8440545808967 L 350.3157894736842 335.8440545808967 L 367.28265107212474 318.87719298245617 L 367.28265107212474 318.87719298245617 L 376.26510721247564 327.859649122807 L 376.26510721247564 327.859649122807 L 401.2163742690058 352.81091617933726 L 401.2163742690058 352.81091617933726 L 416.187134502924 337.8401559454191 L 416.187134502924 337.8401559454191 L 391.23586744639374 311.8908382066277 L 391.23586744639374 311.8908382066277 L 382.2534113060429 303.906432748538 L 382.2534113060429 303.906432748538 L 399.2202729044834 286.9395711500975 L 399.2202729044834 286.9395711500975 L 408.2027290448343 295.92202729044834 L 408.2027290448343 295.92202729044834 L 433.1539961013645 320.8732943469786 L 433.1539961013645 320.8732943469786 L 449.12280701754383 305.9025341130604 L 449.12280701754383 305.9025341130604 L 423.1734892787524 280.95126705653024 L 423.1734892787524 280.95126705653024 L 414.19103313840156 271.96881091617934 L 414.19103313840156 271.96881091617934 L 431.1578947368421 255.0019493177388 L 431.1578947368421 255.0019493177388 L 440.140350877193 263.98440545808967 L 440.140350877193 263.98440545808967 L 466.0896686159844 289.9337231968811 L 466.0896686159844 289.9337231968811 L 481.0604288499025 274.962962962963 L 481.0604288499025 274.962962962963 L 455.1111111111111 249.01364522417154 L 455.1111111111111 249.01364522417154 L 446.12865497076024 240.03118908382066 L 446.12865497076024 240.03118908382066 L 463.09551656920075 223.06432748538012 L 463.09551656920075 223.06432748538012 L 472.07797270955166 232.046783625731 L 472.07797270955166 232.046783625731 L 498.0272904483431 257.9961013645224 L 498.0272904483431 257.9961013645224 L 511.00194931773876 246.01949317738791 L 511.00194931773876 246.01949317738791 Q 511.00194931773876 251.00974658869396 511.00194931773876 256 Q 511.00194931773876 262.9863547758285 511.00194931773876 270.97076023391816 L 512 271.96881091617934 L 512 271.96881091617934 L 510.0038986354776 273.96491228070175 L 510.0038986354776 273.96491228070175 Z M 175.6569200779727 240.03118908382066 Q 189.62962962962962 240.03118908382066 198.6120857699805 231.0487329434698 L 198.6120857699805 231.0487329434698 L 198.6120857699805 231.0487329434698 Q 207.59454191033137 222.0662768031189 207.59454191033137 208.093567251462 Q 207.59454191033137 194.12085769980507 198.6120857699805 185.1384015594542 Q 189.62962962962962 176.15594541910332 175.6569200779727 176.15594541910332 Q 162.682261208577 176.15594541910332 153.6998050682261 185.1384015594542 Q 144.71734892787524 194.12085769980507 143.71929824561403 208.093567251462 Q 144.71734892787524 222.0662768031189 153.6998050682261 231.0487329434698 Q 162.682261208577 240.03118908382066 175.6569200779727 240.03118908382066 L 175.6569200779727 240.03118908382066 Z M 367.28265107212474 208.093567251462 Q 367.28265107212474 194.12085769980507 358.3001949317739 185.1384015594542 L 358.3001949317739 185.1384015594542 L 358.3001949317739 185.1384015594542 Q 349.317738791423 176.15594541910332 335.34502923976606 176.15594541910332 Q 322.3703703703704 176.15594541910332 313.3879142300195 185.1384015594542 Q 304.4054580896686 194.12085769980507 303.4074074074074 208.093567251462 Q 304.4054580896686 222.0662768031189 313.3879142300195 231.0487329434698 Q 322.3703703703704 240.03118908382066 335.34502923976606 240.03118908382066 Q 349.317738791423 240.03118908382066 358.3001949317739 231.0487329434698 Q 367.28265107212474 222.0662768031189 367.28265107212474 208.093567251462 L 367.28265107212474 208.093567251462 Z" />
</svg>