<svg xmlns="http://www.w3.org/2000/svg" viewBox="0 0 512 512">
  <path d="M 383.7495107632094 416.81409001956945 L 417.8160469667319 382.74755381604695 L 383.7495107632094 416.81409001956945 L 417.8160469667319 382.74755381604695 L 477.9334637964775 322.63013698630135 L 477.9334637964775 322.63013698630135 L 512 288.56360078277885 L 512 288.56360078277885 L 477.9334637964775 254.49706457925635 L 477.9334637964775 254.49706457925635 L 415.81213307240705 192.3757338551859 L 415.81213307240705 192.3757338551859 L 495.9686888454012 112.21917808219177 L 495.9686888454012 112.21917808219177 L 399.7808219178082 16.031311154598825 L 399.7808219178082 16.031311154598825 L 319.6242661448141 96.18786692759295 L 319.6242661448141 96.18786692759295 L 257.50293542074365 34.0665362035225 L 257.50293542074365 34.0665362035225 L 223.43639921722112 0 L 223.43639921722112 0 L 189.36986301369862 34.0665362035225 L 189.36986301369862 34.0665362035225 L 129.25244618395303 94.1839530332681 L 129.25244618395303 94.1839530332681 L 95.18590998043052 128.2504892367906 L 95.18590998043052 128.2504892367906 L 129.25244618395303 162.3170254403131 L 129.25244618395303 162.3170254403131 L 191.37377690802347 224.43835616438355 L 191.37377690802347 224.43835616438355 L 174.34050880626222 241.4716242661448 L 174.34050880626222 241.4716242661448 Q 138.27005870841487 224.43835616438355 95.18590998043052 224.43835616438355 Q 43.08414872798434 225.44031311154598 0 249.4872798434442 L 120.23483365949119 369.72211350293543 L 120.23483365949119 369.72211350293543 L 95.18590998043052 393.76908023483367 L 95.18590998043052 393.76908023483367 Q 91.17808219178082 392.7671232876712 87.17025440313111 392.7671232876712 Q 73.14285714285714 392.7671232876712 64.1252446183953 401.7847358121331 Q 55.10763209393346 410.8023483365949 55.10763209393346 424.82974559686886 Q 55.10763209393346 438.85714285714283 64.1252446183953 447.8747553816047 Q 73.14285714285714 456.8923679060665 87.17025440313111 456.8923679060665 Q 101.19765166340508 456.8923679060665 110.21526418786692 447.8747553816047 Q 119.23287671232876 438.85714285714283 119.23287671232876 424.82974559686886 Q 119.23287671232876 420.82191780821915 118.23091976516633 416.81409001956945 L 142.27788649706457 391.7651663405088 L 142.27788649706457 391.7651663405088 L 262.51272015655576 512 L 262.51272015655576 512 Q 286.559686888454 468.91585127201563 287.56164383561645 416.81409001956945 Q 287.56164383561645 373.72994129158513 270.52837573385517 337.6594911937378 L 287.56164383561645 320.6262230919765 L 287.56164383561645 320.6262230919765 L 349.6829745596869 382.74755381604695 L 349.6829745596869 382.74755381604695 L 383.7495107632094 416.81409001956945 L 383.7495107632094 416.81409001956945 Z M 321.62818003913895 286.559686888454 L 381.74559686888455 226.4422700587084 L 321.62818003913895 286.559686888454 L 381.74559686888455 226.4422700587084 L 443.866927592955 288.56360078277885 L 443.866927592955 288.56360078277885 L 383.7495107632094 348.68101761252444 L 383.7495107632094 348.68101761252444 L 321.62818003913895 286.559686888454 L 321.62818003913895 286.559686888454 Z M 225.44031311154598 190.37181996086105 L 163.31898238747553 128.2504892367906 L 225.44031311154598 190.37181996086105 L 163.31898238747553 128.2504892367906 L 223.43639921722112 68.133072407045 L 223.43639921722112 68.133072407045 L 285.5577299412916 130.25440313111545 L 285.5577299412916 130.25440313111545 L 225.44031311154598 190.37181996086105 L 225.44031311154598 190.37181996086105 Z" />
</svg>