<svg xmlns="http://www.w3.org/2000/svg" viewBox="0 0 512 512">
  <path d="M 300 27 L 256 0 L 300 27 L 256 0 L 212 27 L 212 27 L 160 26 L 160 26 L 135 71 L 135 71 L 90 96 L 90 96 L 91 148 L 91 148 L 64 192 L 64 192 L 91 236 L 91 236 L 90 288 L 90 288 L 135 313 L 135 313 L 160 358 L 160 358 L 212 357 L 212 357 L 256 384 L 256 384 L 300 357 L 300 357 L 352 358 L 352 358 L 377 313 L 377 313 L 422 288 L 422 288 L 421 236 L 421 236 L 448 192 L 448 192 L 421 148 L 421 148 L 422 96 L 422 96 L 377 71 L 377 71 L 352 26 L 352 26 L 300 27 L 300 27 Z M 333 58 L 349 86 L 333 58 L 349 86 L 353 95 L 353 95 L 361 99 L 361 99 L 390 115 L 390 115 L 389 147 L 389 147 L 389 156 L 389 156 L 394 164 L 394 164 L 411 192 L 411 192 L 394 220 L 394 220 L 389 228 L 389 228 L 389 237 L 389 237 L 390 269 L 390 269 L 362 285 L 362 285 L 353 289 L 353 289 L 349 298 L 349 298 L 333 326 L 333 326 L 301 325 L 301 325 L 292 325 L 292 325 L 284 330 L 284 330 L 256 347 L 256 347 L 228 330 L 228 330 L 220 325 L 220 325 L 211 325 L 211 325 L 179 326 L 179 326 L 163 298 L 163 298 L 159 289 L 159 289 L 151 285 L 151 285 L 122 269 L 122 269 L 123 237 L 123 237 L 123 228 L 123 228 L 118 220 L 118 220 L 102 192 L 102 192 L 118 164 L 118 164 L 123 156 L 123 156 L 123 147 L 123 147 L 122 115 L 122 115 L 151 99 L 151 99 L 159 95 L 159 95 L 163 87 L 163 87 L 179 58 L 179 58 L 211 59 L 211 59 L 220 59 L 220 59 L 228 54 L 228 54 L 256 38 L 256 38 L 284 54 L 284 54 L 292 59 L 292 59 L 301 59 L 301 59 L 333 58 L 333 58 Z M 256 248 Q 224 247 208 220 Q 192 192 208 164 Q 224 137 256 136 Q 288 137 304 164 Q 320 192 304 220 Q 288 247 256 248 L 256 248 Z M 168 192 Q 170 242 212 268 Q 256 292 300 268 Q 342 242 344 192 Q 342 142 300 116 Q 256 92 212 116 Q 170 142 168 192 L 168 192 Z M 156 390 L 137 475 L 156 390 L 137 475 L 128 512 L 128 512 L 164 499 L 164 499 L 256 464 L 256 464 L 348 499 L 348 499 L 384 512 L 384 512 L 375 475 L 375 475 L 356 390 L 356 390 L 351 390 L 323 390 L 340 461 L 340 461 L 267 434 L 267 434 L 256 430 L 256 430 L 245 434 L 245 434 L 173 461 L 173 461 L 189 390 L 189 390 L 161 390 L 156 390 Z" />
</svg>