<svg xmlns="http://www.w3.org/2000/svg" viewBox="0 0 512 512">
  <path d="M 332.8 128 L 320 128 L 332.8 128 L 256 128 L 256 153.6 L 256 153.6 L 268.8 153.6 L 332.8 153.6 L 409.6 204.8 L 409.6 204.8 L 409.6 384 L 409.6 384 L 409.6 409.6 L 409.6 409.6 L 384 409.6 L 179.2 409.6 L 138.4 358.4 L 138.4 358.4 L 102.4 358.4 L 76.8 358.4 L 76.8 332.8 L 76.8 332.8 L 76.8 268.8 L 76.8 268.8 L 70.4 268.8 L 25.6 268.8 L 25.6 332.8 L 25.6 332.8 L 25.6 345.6 L 25.6 345.6 L 0 345.6 L 0 345.6 L 0 332.8 L 0 332.8 L 0 179.2 L 0 179.2 L 0 166.4 L 0 166.4 L 25.6 166.4 L 25.6 166.4 L 25.6 179.2 L 25.6 179.2 L 25.6 243.2 L 25.6 243.2 L 70.4 243.2 L 76.8 243.2 L 76.8 179.2 L 76.8 179.2 L 76.8 153.6 L 76.8 153.6 L 102.4 153.6 L 230.4 153.6 L 230.4 128 L 230.4 128 L 166.4 128 L 153.6 128 L 153.6 102.4 L 153.6 102.4 L 166.4 102.4 L 332.8 102.4 L 332.8 128 L 332.8 128 Z M 243.2 179.2 L 128 179.2 L 243.2 179.2 L 102.4 179.2 L 102.4 332.8 L 102.4 332.8 L 138.4 332.8 L 150.4 332.8 L 158.4 342.4 L 158.4 342.4 L 191.2 384 L 191.2 384 L 384 384 L 384 384 L 384 218.4 L 384 218.4 L 324.8 179.2 L 324.8 179.2 L 268.8 179.2 L 243.2 179.2 Z M 486.4 230.4 L 460.8 230.4 L 486.4 230.4 L 460.8 230.4 L 460.8 384 L 460.8 384 L 486.4 384 L 486.4 384 L 486.4 230.4 L 486.4 230.4 Z M 460.8 204.8 L 486.4 204.8 L 460.8 204.8 L 512 204.8 L 512 230.4 L 512 230.4 L 512 384 L 512 384 L 512 409.6 L 512 409.6 L 486.4 409.6 L 435.2 409.6 L 435.2 384 L 435.2 384 L 435.2 230.4 L 435.2 230.4 L 435.2 204.8 L 435.2 204.8 L 460.8 204.8 L 460.8 204.8 Z M 256 204.8 L 256 217.6 L 256 204.8 L 256 217.6 L 256 281.6 L 256 281.6 L 256 294.4 L 256 294.4 L 230.4 294.4 L 230.4 294.4 L 230.4 281.6 L 230.4 281.6 L 230.4 217.6 L 230.4 217.6 L 230.4 204.8 L 230.4 204.8 L 256 204.8 L 256 204.8 Z M 224 352 L 224 313.6 L 224 352 L 224 313.6 L 262.4 313.6 L 262.4 313.6 L 262.4 352 L 262.4 352 L 224 352 L 224 352 Z" />
</svg>