<svg xmlns="http://www.w3.org/2000/svg" viewBox="0 0 512 512">
  <path d="M 483.55555555555554 85.33333333333333 L 28.444444444444443 85.33333333333333 L 483.55555555555554 85.33333333333333 L 28.444444444444443 85.33333333333333 L 28.444444444444443 200.88888888888889 L 28.444444444444443 200.88888888888889 Q 14.222222222222221 199.11111111111111 0 199.11111111111111 L 0 85.33333333333333 L 0 85.33333333333333 L 0 56.888888888888886 L 0 56.888888888888886 L 28.444444444444443 56.888888888888886 L 512 56.888888888888886 L 512 85.33333333333333 L 512 85.33333333333333 L 512 426.6666666666667 L 512 426.6666666666667 L 512 455.1111111111111 L 512 455.1111111111111 L 483.55555555555554 455.1111111111111 L 256 455.1111111111111 Q 256 440.8888888888889 254.22222222222223 426.6666666666667 L 483.55555555555554 426.6666666666667 L 483.55555555555554 426.6666666666667 L 483.55555555555554 85.33333333333333 L 483.55555555555554 85.33333333333333 Z M 0 256 L 0 227.55555555555554 L 0 256 L 0 227.55555555555554 Q 64 228.44444444444446 114.66666666666667 258.6666666666667 Q 166.22222222222223 288.8888888888889 196.44444444444446 340.44444444444446 Q 226.66666666666666 391.1111111111111 227.55555555555554 455.1111111111111 L 199.11111111111111 455.1111111111111 L 199.11111111111111 455.1111111111111 Q 198.22222222222223 399.1111111111111 171.55555555555554 354.6666666666667 Q 145.77777777777777 309.3333333333333 100.44444444444444 283.55555555555554 Q 56 256.8888888888889 0 256 L 0 256 Z M 28.444444444444443 398.22222222222223 Q 40.888888888888886 398.22222222222223 48.888888888888886 406.22222222222223 L 48.888888888888886 406.22222222222223 L 48.888888888888886 406.22222222222223 Q 56.888888888888886 414.22222222222223 56.888888888888886 426.6666666666667 Q 56.888888888888886 439.1111111111111 48.888888888888886 447.1111111111111 Q 40.888888888888886 455.1111111111111 28.444444444444443 455.1111111111111 Q 16 455.1111111111111 8 447.1111111111111 Q 0 439.1111111111111 0 426.6666666666667 Q 0 414.22222222222223 8 406.22222222222223 Q 16 398.22222222222223 28.444444444444443 398.22222222222223 L 28.444444444444443 398.22222222222223 Z M 113.77777777777777 455.1111111111111 Q 112.88888888888889 407.1111111111111 80.88888888888889 374.22222222222223 L 80.88888888888889 374.22222222222223 L 80.88888888888889 374.22222222222223 Q 48 342.22222222222223 0 341.3333333333333 L 0 312.8888888888889 L 0 312.8888888888889 Q 60.44444444444444 314.6666666666667 100.44444444444444 354.6666666666667 Q 140.44444444444446 394.6666666666667 142.22222222222223 455.1111111111111 L 113.77777777777777 455.1111111111111 L 113.77777777777777 455.1111111111111 Z" />
</svg>