<svg xmlns="http://www.w3.org/2000/svg" viewBox="0 0 512 512">
  <path d="M 105.411766 75.29412 L 105.411766 135.52942 L 105.411766 75.29412 L 105.411766 135.52942 L 60.235294 180.70589 L 60.235294 180.70589 L 60.235294 286.11765 L 60.235294 286.11765 L 180.70589 286.11765 L 180.70589 286.11765 L 180.70589 180.70589 L 180.70589 180.70589 L 135.52942 135.52942 L 135.52942 135.52942 L 135.52942 75.29412 L 135.52942 75.29412 L 331.29413 75.29412 L 391.52942 75.29412 Q 442.35294 76.23529 477.17648 110.117645 Q 511.05884 144.94118 512 195.76471 Q 511.05884 246.58824 477.17648 281.41177 Q 442.35294 315.29413 391.52942 316.2353 L 361.41177 316.2353 L 361.41177 316.2353 L 361.41177 436.70587 L 361.41177 436.70587 L 0 436.70587 L 0 436.70587 L 0 75.29412 L 0 75.29412 L 105.411766 75.29412 L 105.411766 75.29412 Z M 361.41177 256 L 391.52942 256 L 361.41177 256 L 391.52942 256 Q 416.94116 255.05882 433.88235 238.11765 Q 450.82352 221.17647 451.7647 195.76471 Q 450.82352 170.35294 433.88235 153.41176 Q 416.94116 136.47058 391.52942 135.52942 L 361.41177 135.52942 L 361.41177 135.52942 L 361.41177 256 L 361.41177 256 Z" />
</svg>