<svg xmlns="http://www.w3.org/2000/svg" viewBox="0 0 512 512">
  <path d="M 480 0 L 32 0 L 480 0 L 32 0 L 32 512 L 32 512 L 480 512 L 480 512 L 480 0 L 480 0 Z M 256 160 Q 295 160 328 179 L 328 179 L 328 179 Q 361 198 381 232 Q 400 266 400 304 Q 400 342 381 376 Q 361 410 328 429 Q 295 448 256 448 Q 217 448 184 429 Q 151 410 131 376 Q 112 342 112 304 Q 112 266 131 232 Q 151 198 184 179 Q 217 160 256 160 L 256 160 Z M 96 88 Q 98 66 120 64 Q 142 66 144 88 Q 142 110 120 112 Q 98 110 96 88 L 96 88 Z M 216 64 Q 238 66 240 88 Q 238 110 216 112 Q 194 110 192 88 Q 194 66 216 64 L 216 64 Z M 203 205 L 181 227 L 203 205 L 181 227 L 209 256 L 209 256 Q 216 263 216 272 Q 216 281 209 288 L 200 297 L 200 297 Q 184 313 184 336 Q 184 359 200 375 L 229 403 L 229 403 L 251 381 L 251 381 L 223 352 L 223 352 Q 216 345 216 336 Q 216 327 223 320 L 232 311 L 232 311 Q 248 295 248 272 Q 248 249 232 233 L 203 205 L 203 205 Z M 312 233 L 283 205 L 312 233 L 283 205 L 261 227 L 261 227 L 289 256 L 289 256 Q 296 263 296 272 Q 296 281 289 288 L 280 297 L 280 297 Q 264 313 264 336 Q 264 359 280 375 L 309 403 L 309 403 L 331 381 L 331 381 L 303 352 L 303 352 Q 296 345 296 336 Q 296 327 303 320 L 312 311 L 312 311 Q 328 295 328 272 Q 328 249 312 233 L 312 233 Z" />
</svg>