<svg xmlns="http://www.w3.org/2000/svg" viewBox="0 0 512 512">
  <path d="M 350.53943 18.058092 L 350.53943 69.04565 L 350.53943 18.058092 L 350.53943 69.04565 L 376.0332 69.04565 L 401.52698 69.04565 L 401.52698 171.02075 L 401.52698 171.02075 L 376.0332 171.02075 L 350.53943 171.02075 L 350.53943 222.0083 L 350.53943 222.0083 L 376.0332 222.0083 L 503.50208 222.0083 L 503.50208 171.02075 L 503.50208 171.02075 L 478.0083 171.02075 L 452.51453 171.02075 L 452.51453 43.55187 L 452.51453 43.55187 L 452.51453 18.058092 L 452.51453 18.058092 L 427.02075 18.058092 L 350.53943 18.058092 Z M 138.0913 19.120333 L 120.033195 37.178425 L 138.0913 19.120333 L 120.033195 37.178425 L 18.058092 139.15353 L 18.058092 139.15353 L 0 157.21162 L 0 157.21162 L 36.116184 193.3278 L 36.116184 193.3278 L 54.174274 175.26971 L 54.174274 175.26971 L 112.59751 116.84647 L 112.59751 116.84647 L 112.59751 468.44812 L 112.59751 468.44812 L 112.59751 493.9419 L 112.59751 493.9419 L 163.58507 493.9419 L 163.58507 493.9419 L 163.58507 468.44812 L 163.58507 468.44812 L 163.58507 116.84647 L 163.58507 116.84647 L 222.0083 175.26971 L 222.0083 175.26971 L 240.06639 193.3278 L 240.06639 193.3278 L 276.1826 157.21162 L 276.1826 157.21162 L 258.12448 139.15353 L 258.12448 139.15353 L 156.14938 37.178425 L 156.14938 37.178425 L 138.0913 19.120333 L 138.0913 19.120333 Z M 461.01245 349.47717 Q 459.9502 373.90872 439.76764 386.6556 Q 418.52283 397.278 397.278 386.6556 Q 377.09543 373.90872 376.0332 349.47717 Q 377.09543 325.04565 397.278 312.29877 Q 418.52283 301.67636 439.76764 312.29877 Q 459.9502 325.04565 461.01245 349.47717 L 461.01245 349.47717 Z M 512 349.47717 Q 510.93774 310.1743 484.38174 283.61826 L 484.38174 283.61826 L 484.38174 283.61826 Q 457.8257 257.06226 418.52283 256 Q 379.2199 257.06226 352.6639 283.61826 Q 326.10788 310.1743 325.04565 349.47717 Q 326.10788 385.59335 348.41495 412.14938 Q 371.78424 437.64316 406.83817 441.89212 L 381.3444 479.07053 L 381.3444 479.07053 L 370.722 493.9419 L 370.722 493.9419 L 433.3942 493.9419 L 433.3942 493.9419 L 492.87967 411.08713 L 492.87967 411.08713 Q 512 383.46887 512 349.47717 L 512 349.47717 Z" />
</svg>