<svg xmlns="http://www.w3.org/2000/svg" viewBox="0 0 512 512">
  <path d="M 64 256 L 64 160 L 64 256 L 64 160 L 224 160 L 224 160 L 224 256 L 224 256 L 64 256 L 64 256 Z M 64 320 L 224 320 L 64 320 L 224 320 L 224 416 L 224 416 L 64 416 L 64 416 L 64 320 L 64 320 Z M 288 416 L 288 320 L 288 416 L 288 320 L 448 320 L 448 320 L 448 416 L 448 416 L 288 416 L 288 416 Z M 448 256 L 288 256 L 448 256 L 288 256 L 288 160 L 288 160 L 448 160 L 448 160 L 448 256 L 448 256 Z M 64 32 L 0 32 L 64 32 L 0 32 L 0 96 L 0 96 L 0 416 L 0 416 L 0 480 L 0 480 L 64 480 L 512 480 L 512 416 L 512 416 L 512 96 L 512 96 L 512 32 L 512 32 L 448 32 L 64 32 Z" />
</svg>