<svg xmlns="http://www.w3.org/2000/svg" viewBox="0 0 512 512">
  <path d="M 0 85.33333333333333 L 341.3333333333333 85.33333333333333 L 0 85.33333333333333 L 341.3333333333333 85.33333333333333 L 341.3333333333333 426.6666666666667 L 341.3333333333333 426.6666666666667 L 0 426.6666666666667 L 0 426.6666666666667 L 0 85.33333333333333 L 0 85.33333333333333 Z M 512 85.33333333333333 L 512 426.6666666666667 L 512 85.33333333333333 L 512 426.6666666666667 L 369.77777777777777 328 L 369.77777777777777 328 L 369.77777777777777 184 L 369.77777777777777 184 L 512 85.33333333333333 L 512 85.33333333333333 Z M 192 192 L 192 170.66666666666666 L 192 192 L 192 170.66666666666666 L 149.33333333333334 170.66666666666666 L 149.33333333333334 170.66666666666666 L 149.33333333333334 192 L 149.33333333333334 192 L 149.33333333333334 234.66666666666666 L 149.33333333333334 234.66666666666666 L 106.66666666666667 234.66666666666666 L 85.33333333333333 234.66666666666666 L 85.33333333333333 277.3333333333333 L 85.33333333333333 277.3333333333333 L 106.66666666666667 277.3333333333333 L 149.33333333333334 277.3333333333333 L 149.33333333333334 320 L 149.33333333333334 320 L 149.33333333333334 341.3333333333333 L 149.33333333333334 341.3333333333333 L 192 341.3333333333333 L 192 341.3333333333333 L 192 320 L 192 320 L 192 277.3333333333333 L 192 277.3333333333333 L 234.66666666666666 277.3333333333333 L 256 277.3333333333333 L 256 234.66666666666666 L 256 234.66666666666666 L 234.66666666666666 234.66666666666666 L 192 234.66666666666666 L 192 192 L 192 192 Z" />
</svg>