<svg xmlns="http://www.w3.org/2000/svg" viewBox="0 0 512 512">
  <path d="M 512 0 L 0 0 L 512 0 L 0 0 L 0 512 L 0 512 L 512 512 L 512 512 L 512 0 L 512 0 Z M 182.85715 155.42857 L 182.85715 292.57144 L 182.85715 155.42857 L 182.85715 292.57144 Q 184 323.42856 204.57143 344 Q 225.14285 364.57144 256 365.7143 Q 286.85715 364.57144 307.42856 344 Q 328 323.42856 329.14285 292.57144 L 329.14285 155.42857 L 329.14285 155.42857 L 329.14285 128 L 329.14285 128 L 384 128 L 384 128 L 384 155.42857 L 384 155.42857 L 384 292.57144 L 384 292.57144 Q 382.85715 347.42856 346.2857 382.85715 Q 310.85715 419.42856 256 420.57144 Q 201.14285 419.42856 165.71428 382.85715 Q 129.14285 347.42856 128 292.57144 L 128 155.42857 L 128 155.42857 L 128 128 L 128 128 L 182.85715 128 L 182.85715 128 L 182.85715 155.42857 L 182.85715 155.42857 Z" />
</svg>