<svg xmlns="http://www.w3.org/2000/svg" viewBox="0 0 512 512">
  <path d="M 400 432 L 400 192 L 400 432 L 400 192 Q 398 131 358 90 Q 317 50 256 48 Q 195 50 154 90 Q 114 131 112 192 L 112 432 L 112 432 L 64 432 L 64 432 L 64 192 L 64 192 Q 66 110 120 56 Q 174 2 256 0 Q 338 2 392 56 Q 446 110 448 192 L 448 432 L 448 432 L 400 432 L 400 432 Z M 32 464 L 56 464 L 32 464 L 480 464 L 480 512 L 480 512 L 456 512 L 32 512 L 32 464 L 32 464 Z M 280 152 L 280 192 L 280 152 L 280 192 L 328 192 L 352 192 L 352 240 L 352 240 L 328 240 L 280 240 L 280 360 L 280 360 L 280 384 L 280 384 L 232 384 L 232 384 L 232 360 L 232 360 L 232 240 L 232 240 L 184 240 L 160 240 L 160 192 L 160 192 L 184 192 L 232 192 L 232 152 L 232 152 L 232 128 L 232 128 L 280 128 L 280 128 L 280 152 L 280 152 Z" />
</svg>