<svg xmlns="http://www.w3.org/2000/svg" viewBox="0 0 512 512">
  <path d="M 182.85714285714286 36.57142857142857 L 182.85714285714286 182.85714285714286 L 182.85714285714286 36.57142857142857 L 182.85714285714286 182.85714285714286 L 36.57142857142857 182.85714285714286 L 36.57142857142857 182.85714285714286 L 36.57142857142857 36.57142857142857 L 36.57142857142857 36.57142857142857 L 182.85714285714286 36.57142857142857 L 182.85714285714286 36.57142857142857 Z M 36.57142857142857 0 L 0 0 L 36.57142857142857 0 L 0 0 L 0 36.57142857142857 L 0 36.57142857142857 L 0 182.85714285714286 L 0 182.85714285714286 L 0 219.42857142857142 L 0 219.42857142857142 L 36.57142857142857 219.42857142857142 L 219.42857142857142 219.42857142857142 L 219.42857142857142 182.85714285714286 L 219.42857142857142 182.85714285714286 L 219.42857142857142 36.57142857142857 L 219.42857142857142 36.57142857142857 L 219.42857142857142 0 L 219.42857142857142 0 L 182.85714285714286 0 L 36.57142857142857 0 Z M 182.85714285714286 329.14285714285717 L 182.85714285714286 475.42857142857144 L 182.85714285714286 329.14285714285717 L 182.85714285714286 475.42857142857144 L 36.57142857142857 475.42857142857144 L 36.57142857142857 475.42857142857144 L 36.57142857142857 329.14285714285717 L 36.57142857142857 329.14285714285717 L 182.85714285714286 329.14285714285717 L 182.85714285714286 329.14285714285717 Z M 36.57142857142857 292.57142857142856 L 0 292.57142857142856 L 36.57142857142857 292.57142857142856 L 0 292.57142857142856 L 0 329.14285714285717 L 0 329.14285714285717 L 0 475.42857142857144 L 0 475.42857142857144 L 0 512 L 0 512 L 36.57142857142857 512 L 219.42857142857142 512 L 219.42857142857142 475.42857142857144 L 219.42857142857142 475.42857142857144 L 219.42857142857142 329.14285714285717 L 219.42857142857142 329.14285714285717 L 219.42857142857142 292.57142857142856 L 219.42857142857142 292.57142857142856 L 182.85714285714286 292.57142857142856 L 36.57142857142857 292.57142857142856 Z M 329.14285714285717 36.57142857142857 L 475.42857142857144 36.57142857142857 L 329.14285714285717 36.57142857142857 L 475.42857142857144 36.57142857142857 L 475.42857142857144 182.85714285714286 L 475.42857142857144 182.85714285714286 L 329.14285714285717 182.85714285714286 L 329.14285714285717 182.85714285714286 L 329.14285714285717 36.57142857142857 L 329.14285714285717 36.57142857142857 Z M 292.57142857142856 0 L 292.57142857142856 36.57142857142857 L 292.57142857142856 0 L 292.57142857142856 36.57142857142857 L 292.57142857142856 182.85714285714286 L 292.57142857142856 182.85714285714286 L 292.57142857142856 219.42857142857142 L 292.57142857142856 219.42857142857142 L 329.14285714285717 219.42857142857142 L 512 219.42857142857142 L 512 182.85714285714286 L 512 182.85714285714286 L 512 36.57142857142857 L 512 36.57142857142857 L 512 0 L 512 0 L 475.42857142857144 0 L 292.57142857142856 0 Z M 292.57142857142856 292.57142857142856 L 292.57142857142856 310.85714285714283 L 292.57142857142856 292.57142857142856 L 292.57142857142856 310.85714285714283 L 292.57142857142856 493.7142857142857 L 292.57142857142856 493.7142857142857 L 292.57142857142856 512 L 292.57142857142856 512 L 329.14285714285717 512 L 329.14285714285717 512 L 329.14285714285717 493.7142857142857 L 329.14285714285717 493.7142857142857 L 329.14285714285717 329.14285714285717 L 329.14285714285717 329.14285714285717 L 365.7142857142857 329.14285714285717 L 365.7142857142857 329.14285714285717 L 365.7142857142857 406.85714285714283 L 365.7142857142857 406.85714285714283 L 365.7142857142857 425.14285714285717 L 365.7142857142857 425.14285714285717 L 384 425.14285714285717 L 512 425.14285714285717 L 512 406.85714285714283 L 512 406.85714285714283 L 512 310.85714285714283 L 512 310.85714285714283 L 512 292.57142857142856 L 512 292.57142857142856 L 475.42857142857144 292.57142857142856 L 475.42857142857144 292.57142857142856 L 475.42857142857144 310.85714285714283 L 475.42857142857144 310.85714285714283 L 475.42857142857144 388.57142857142856 L 475.42857142857144 388.57142857142856 L 402.2857142857143 388.57142857142856 L 402.2857142857143 388.57142857142856 L 402.2857142857143 310.85714285714283 L 402.2857142857143 310.85714285714283 L 402.2857142857143 292.57142857142856 L 402.2857142857143 292.57142857142856 L 384 292.57142857142856 L 292.57142857142856 292.57142857142856 Z M 137.14285714285714 82.28571428571429 L 82.28571428571429 82.28571428571429 L 137.14285714285714 82.28571428571429 L 82.28571428571429 82.28571428571429 L 82.28571428571429 137.14285714285714 L 82.28571428571429 137.14285714285714 L 137.14285714285714 137.14285714285714 L 137.14285714285714 137.14285714285714 L 137.14285714285714 82.28571428571429 L 137.14285714285714 82.28571428571429 Z M 82.28571428571429 374.85714285714283 L 82.28571428571429 429.7142857142857 L 82.28571428571429 374.85714285714283 L 82.28571428571429 429.7142857142857 L 137.14285714285714 429.7142857142857 L 137.14285714285714 429.7142857142857 L 137.14285714285714 374.85714285714283 L 137.14285714285714 374.85714285714283 L 82.28571428571429 374.85714285714283 L 82.28571428571429 374.85714285714283 Z M 429.7142857142857 82.28571428571429 L 374.85714285714283 82.28571428571429 L 429.7142857142857 82.28571428571429 L 374.85714285714283 82.28571428571429 L 374.85714285714283 137.14285714285714 L 374.85714285714283 137.14285714285714 L 429.7142857142857 137.14285714285714 L 429.7142857142857 137.14285714285714 L 429.7142857142857 82.28571428571429 L 429.7142857142857 82.28571428571429 Z M 365.7142857142857 457.14285714285717 L 365.7142857142857 512 L 365.7142857142857 457.14285714285717 L 365.7142857142857 512 L 420.57142857142856 512 L 420.57142857142856 512 L 420.57142857142856 457.14285714285717 L 420.57142857142856 457.14285714285717 L 365.7142857142857 457.14285714285717 L 365.7142857142857 457.14285714285717 Z M 512 457.14285714285717 L 457.14285714285717 457.14285714285717 L 512 457.14285714285717 L 457.14285714285717 457.14285714285717 L 457.14285714285717 512 L 457.14285714285717 512 L 512 512 L 512 512 L 512 457.14285714285717 L 512 457.14285714285717 Z" />
</svg>