<svg xmlns="http://www.w3.org/2000/svg" viewBox="0 0 512 512">
  <path d="M 325 0 L 187 0 L 325 0 L 187 0 L 95 53 L 95 53 L 256 111 L 256 111 L 417 53 L 417 53 L 325 0 L 325 0 Z M 448 76 L 272 139 L 448 76 L 272 139 L 272 246 L 272 246 L 381 301 L 381 301 L 505 176 L 505 176 L 448 76 L 448 76 Z M 512 215 L 398 329 L 512 215 L 398 329 L 344 501 L 344 501 L 443 443 L 443 443 L 512 325 L 512 325 L 512 215 L 512 215 Z M 307 512 L 365 328 L 307 512 L 365 328 L 256 274 L 256 274 L 147 328 L 147 328 L 205 512 L 205 512 L 307 512 L 307 512 Z M 168 501 L 114 329 L 168 501 L 114 329 L 0 215 L 0 215 L 0 325 L 0 325 L 69 443 L 69 443 L 168 501 L 168 501 Z M 7 176 L 131 301 L 7 176 L 131 301 L 240 246 L 240 246 L 240 139 L 240 139 L 64 76 L 64 76 L 7 176 L 7 176 Z" />
</svg>