<svg xmlns="http://www.w3.org/2000/svg" viewBox="0 0 512 512">
  <path d="M 36.57142857142857 36.57142857142857 L 36.57142857142857 475.42857142857144 L 36.57142857142857 36.57142857142857 L 36.57142857142857 475.42857142857144 L 475.42857142857144 475.42857142857144 L 475.42857142857144 475.42857142857144 L 475.42857142857144 36.57142857142857 L 475.42857142857144 36.57142857142857 L 36.57142857142857 36.57142857142857 L 36.57142857142857 36.57142857142857 Z M 0 0 L 36.57142857142857 0 L 0 0 L 512 0 L 512 36.57142857142857 L 512 36.57142857142857 L 512 475.42857142857144 L 512 475.42857142857144 L 512 512 L 512 512 L 475.42857142857144 512 L 0 512 L 0 475.42857142857144 L 0 475.42857142857144 L 0 36.57142857142857 L 0 36.57142857142857 L 0 0 L 0 0 Z M 100.57142857142857 73.14285714285714 Q 125.71428571428571 75.42857142857143 128 100.57142857142857 Q 125.71428571428571 125.71428571428571 100.57142857142857 128 Q 75.42857142857143 125.71428571428571 73.14285714285714 100.57142857142857 Q 75.42857142857143 75.42857142857143 100.57142857142857 73.14285714285714 L 100.57142857142857 73.14285714285714 Z M 384 100.57142857142857 Q 386.2857142857143 75.42857142857143 411.42857142857144 73.14285714285714 Q 436.57142857142856 75.42857142857143 438.85714285714283 100.57142857142857 Q 436.57142857142856 125.71428571428571 411.42857142857144 128 Q 386.2857142857143 125.71428571428571 384 100.57142857142857 L 384 100.57142857142857 Z M 100.57142857142857 384 Q 125.71428571428571 386.2857142857143 128 411.42857142857144 Q 125.71428571428571 436.57142857142856 100.57142857142857 438.85714285714283 Q 75.42857142857143 436.57142857142856 73.14285714285714 411.42857142857144 Q 75.42857142857143 386.2857142857143 100.57142857142857 384 L 100.57142857142857 384 Z M 384 411.42857142857144 Q 386.2857142857143 386.2857142857143 411.42857142857144 384 Q 436.57142857142856 386.2857142857143 438.85714285714283 411.42857142857144 Q 436.57142857142856 436.57142857142856 411.42857142857144 438.85714285714283 Q 386.2857142857143 436.57142857142856 384 411.42857142857144 L 384 411.42857142857144 Z M 155.42857142857142 182.85714285714286 Q 156.57142857142858 155.42857142857142 173.71428571428572 137.14285714285714 L 173.71428571428572 137.14285714285714 L 173.71428571428572 137.14285714285714 Q 192 120 219.42857142857142 118.85714285714286 L 283.42857142857144 118.85714285714286 L 283.42857142857144 118.85714285714286 Q 314.2857142857143 120 334.85714285714283 140.57142857142858 Q 355.42857142857144 161.14285714285714 356.57142857142856 192 Q 355.42857142857144 236.57142857142858 316.57142857142856 258.2857142857143 L 274.2857142857143 278.85714285714283 L 274.2857142857143 278.85714285714283 L 274.2857142857143 283.42857142857144 L 274.2857142857143 283.42857142857144 L 274.2857142857143 301.7142857142857 L 274.2857142857143 301.7142857142857 L 237.71428571428572 301.7142857142857 L 237.71428571428572 301.7142857142857 L 237.71428571428572 283.42857142857144 L 237.71428571428572 283.42857142857144 L 237.71428571428572 268.57142857142856 L 237.71428571428572 268.57142857142856 L 237.71428571428572 257.14285714285717 L 237.71428571428572 257.14285714285717 L 248 251.42857142857142 L 248 251.42857142857142 L 300.57142857142856 225.14285714285714 L 300.57142857142856 225.14285714285714 Q 318.85714285714283 213.71428571428572 320 192 Q 320 176 309.7142857142857 165.71428571428572 Q 299.42857142857144 155.42857142857142 283.42857142857144 155.42857142857142 L 219.42857142857142 155.42857142857142 L 219.42857142857142 155.42857142857142 Q 194.28571428571428 157.71428571428572 192 182.85714285714286 L 192 192 L 192 192 L 155.42857142857142 192 L 155.42857142857142 192 L 155.42857142857142 182.85714285714286 L 155.42857142857142 182.85714285714286 Z M 228.57142857142858 338.2857142857143 L 283.42857142857144 338.2857142857143 L 228.57142857142858 338.2857142857143 L 283.42857142857144 338.2857142857143 L 283.42857142857144 393.14285714285717 L 283.42857142857144 393.14285714285717 L 228.57142857142858 393.14285714285717 L 228.57142857142858 393.14285714285717 L 228.57142857142858 338.2857142857143 L 228.57142857142858 338.2857142857143 Z" />
</svg>