<svg xmlns="http://www.w3.org/2000/svg" viewBox="0 0 512 448">
    <path d="M 464 48 L 464 400 L 48 400 L 48 48 L 464 48 L 464 48 Z M 48 0 L 0 0 L 0 48 L 0 400 L 0 448 L 48 448 L 464 448 L 512 448 L 512 400 L 512 48 L 512 0 L 464 0 L 48 0 L 48 0 Z M 270 160 L 287 177 L 334 224 L 287 271 L 270 288 L 304 322 L 321 305 L 385 241 L 402 224 L 385 207 L 321 143 L 304 126 L 270 160 L 270 160 Z M 225 177 L 242 160 L 208 126 L 191 143 L 127 207 L 110 224 L 127 241 L 191 305 L 208 322 L 242 288 L 225 271 L 178 224 L 225 177 L 225 177 Z"/>
</svg>
