<svg viewBox="0 0 448 512">
  <path
    d="M 290 186 L 272 200 L 272 224 L 272 240 L 176 240 L 176 223 L 176 200 L 158 186 Q 128 161 128 128 Q 129 97 154 73 Q 180 49 224 48 Q 268 49 294 73 Q 319 97 320 128 Q 320 161 290 186 L 290 186 Z M 368 128 Q 366 74 326 37 L 326 37 Q 285 1 224 0 Q 163 1 122 37 Q 82 74 80 128 Q 82 187 128 223 L 128 240 L 128 288 L 176 288 L 272 288 L 320 288 L 320 240 L 320 223 Q 366 187 368 128 L 368 128 Z M 426 256 L 405 267 L 224 357 L 43 267 L 21 256 L 0 299 L 21 310 L 170 384 L 21 458 L 0 469 L 21 512 L 43 501 L 224 411 L 405 501 L 427 512 L 448 469 L 427 458 L 278 384 L 426 310 L 448 299 L 426 256 L 426 256 Z M 208 136 Q 206 114 184 112 Q 162 114 160 136 Q 162 158 184 160 Q 206 158 208 136 L 208 136 Z M 264 160 Q 286 158 288 136 Q 286 114 264 112 Q 242 114 240 136 Q 242 158 264 160 L 264 160 Z"
  />
</svg>