<svg xmlns="http://www.w3.org/2000/svg" viewBox="0 0 512 512">
  <path d="M 143.2 64 L 204.8 96.8 L 143.2 64 L 204.8 96.8 L 266.4 64 L 266.4 64 L 289.6 51.2 L 289.6 51.2 L 296.8 76 L 296.8 76 L 317.6 143.2 L 317.6 143.2 L 384.8 164 L 384.8 164 L 409.6 171.2 L 409.6 171.2 L 397.6 194.4 L 397.6 194.4 L 390.4 207.2 L 390.4 207.2 Q 380.8 204.8 371.2 204.8 Q 366.4 204.8 362.4 205.6 L 372 186.4 L 372 186.4 L 309.6 168 L 309.6 168 L 296.8 164 L 296.8 164 L 292.8 151.2 L 292.8 151.2 L 274.4 88.8 L 274.4 88.8 L 216.8 119.2 L 216.8 119.2 L 204.8 126.4 L 204.8 126.4 L 192.8 119.2 L 192.8 119.2 L 135.2 88.8 L 135.2 88.8 L 116.8 151.2 L 116.8 151.2 L 112.8 164 L 112.8 164 L 100 168 L 100 168 L 37.6 186.4 L 37.6 186.4 L 68 244 L 68 244 L 75.2 256 L 75.2 256 L 68 268 L 68 268 L 37.6 325.6 L 37.6 325.6 L 100 344 L 100 344 L 112.8 348 L 112.8 348 L 116.8 361.6 L 116.8 361.6 L 135.2 423.2 L 135.2 423.2 L 192.8 392.8 L 192.8 392.8 L 204.8 386.4 L 204.8 386.4 L 216.8 392.8 L 216.8 392.8 L 274.4 423.2 L 274.4 423.2 L 278.4 409.6 L 278.4 409.6 L 304.8 409.6 L 304.8 409.6 L 297.6 436 L 297.6 436 L 289.6 460.8 L 289.6 460.8 L 266.4 448.8 L 266.4 448.8 L 204.8 415.2 L 204.8 415.2 L 143.2 448.8 L 143.2 448.8 L 120 460.8 L 120 460.8 L 112.8 436 L 112.8 436 L 92 368.8 L 92 368.8 L 24.8 348 L 24.8 348 L 0 340.8 L 0 340.8 L 12.8 317.6 L 12.8 317.6 L 45.6 256 L 45.6 256 L 12.8 194.4 L 12.8 194.4 L 0 171.2 L 0 171.2 L 24.8 164 L 24.8 164 L 92 143.2 L 92 143.2 L 112.8 76 L 112.8 76 L 120 51.2 L 120 51.2 L 143.2 64 L 143.2 64 Z M 204.8 153.6 Q 242.4 154.4 269.6 176.8 L 269.6 176.8 L 269.6 176.8 Q 296.8 199.2 304.8 234.4 Q 295.2 244.8 289.6 258.4 Q 285.6 259.2 281.6 260.8 Q 281.6 258.4 281.6 256 Q 280.8 223.2 259.2 201.6 Q 237.6 180 204.8 179.2 Q 172 180 150.4 201.6 Q 128.8 223.2 128 256 Q 128.8 288.8 150.4 310.4 Q 172 332 204.8 332.8 Q 218.4 332.8 230.4 328.8 Q 230.4 330.4 230.4 332.8 L 230.4 355.2 L 230.4 355.2 Q 218.4 358.4 204.8 358.4 Q 161.6 357.6 132.8 328.8 Q 103.2 299.2 102.4 256 Q 103.2 212.8 132.8 183.2 Q 161.6 154.4 204.8 153.6 L 204.8 153.6 Z M 332.8 294.4 Q 332.8 295.2 332.8 295.2 L 332.8 295.2 L 332.8 295.2 Q 332.8 296 332.8 296 L 333.6 315.2 L 333.6 315.2 L 316 308.8 L 316 308.8 Q 312 307.2 307.2 307.2 Q 296 307.2 288.8 314.4 Q 281.6 321.6 281.6 332.8 L 281.6 358.4 L 281.6 358.4 L 307.2 358.4 L 486.4 358.4 L 486.4 320 L 486.4 320 Q 485.6 304 475.2 292.8 Q 464 282.4 448 281.6 Q 436 281.6 426.4 288 L 412.8 297.6 L 412.8 297.6 L 407.2 281.6 L 407.2 281.6 Q 397.6 257.6 371.2 256 Q 355.2 256.8 344 267.2 Q 333.6 278.4 332.8 294.4 L 332.8 294.4 Z M 371.2 230.4 Q 407.2 232 425.6 260 Q 436 256 448 256 Q 475.2 256.8 493.6 274.4 Q 511.2 292.8 512 320 L 512 371.2 L 512 371.2 L 512 384 L 512 384 L 499.2 384 L 256 384 L 256 371.2 L 256 371.2 L 256 332.8 L 256 332.8 Q 256.8 311.2 271.2 296.8 Q 285.6 282.4 307.2 281.6 Q 307.2 281.6 308 281.6 Q 308 281.6 308.8 281.6 Q 313.6 259.2 330.4 244.8 Q 347.2 231.2 371.2 230.4 L 371.2 230.4 Z" />
</svg>