<svg viewBox="0 0 512 511">
  <path
    d="M 32 159 L 32 239 L 32 479 L 480 479 L 480 159 L 32 159 L 32 159 Z M 0 239 L 0 159 L 0 135 L 0 127 L 0 123 L 12 120 L 492 0 L 500 31 L 114 127 L 480 127 L 512 127 L 512 159 L 512 479 L 512 511 L 480 511 L 32 511 L 0 511 L 0 479 L 0 239 L 0 239 Z M 96 239 L 192 239 L 208 239 L 208 271 L 192 271 L 96 271 L 80 271 L 80 239 L 96 239 L 96 239 Z M 80 303 L 208 303 L 224 303 L 224 335 L 208 335 L 80 335 L 64 335 L 64 303 L 80 303 L 80 303 Z M 96 367 L 192 367 L 208 367 L 208 399 L 192 399 L 96 399 L 80 399 L 80 367 L 96 367 L 96 367 Z M 352 255 Q 316 256 297 287 Q 279 319 297 351 Q 316 382 352 383 Q 388 382 407 351 Q 425 319 407 287 Q 388 256 352 255 L 352 255 Z M 448 319 Q 448 345 435 367 L 435 367 Q 422 389 400 402 Q 377 415 352 415 Q 327 415 304 402 Q 282 389 269 367 Q 256 345 256 319 Q 256 293 269 271 Q 282 249 304 236 Q 327 223 352 223 Q 377 223 400 236 Q 422 249 435 271 Q 448 293 448 319 L 448 319 Z"
  />
</svg>