<svg viewBox="0 0 512 509">
  <path
    d="M 329 38 L 345 22 L 368 0 L 391 22 L 407 38 L 429 61 L 407 84 L 391 100 L 368 122 L 345 100 L 329 84 L 307 61 L 329 38 L 329 38 Z M 368 77 L 384 61 L 368 45 L 352 61 L 368 77 L 368 77 Z M 144 125 Q 112 126 93 151 L 83 163 L 58 144 L 67 131 Q 95 95 144 93 Q 185 94 212 121 Q 239 148 240 189 Q 239 227 216 253 L 298 253 L 374 193 L 378 189 L 384 189 L 400 189 Q 448 190 479 222 Q 511 253 512 301 L 512 382 Q 511 422 484 449 Q 457 476 417 477 Q 389 477 367 463 Q 344 449 332 424 L 322 404 L 314 390 L 343 376 L 350 390 L 360 410 Q 379 444 417 445 Q 444 444 462 427 Q 479 409 480 382 L 480 301 Q 479 267 457 244 Q 434 222 400 221 L 390 221 L 314 282 L 310 285 L 304 285 L 245 285 Q 286 322 288 381 Q 287 435 251 472 Q 214 508 160 509 L 144 509 Q 83 507 42 467 Q 2 426 0 365 L 0 349 L 32 349 L 32 365 Q 33 413 65 444 Q 96 476 144 477 L 160 477 Q 201 476 228 449 Q 255 422 256 381 Q 255 340 228 313 Q 201 286 160 285 L 144 285 L 128 285 L 128 253 L 144 253 L 144 253 Q 171 252 189 234 Q 207 216 208 189 Q 207 162 189 144 Q 171 126 144 125 L 144 125 Z M 280 139 Q 279 139 281 137 L 281 137 Q 282 135 288 125 Q 296 111 296 112 Q 297 111 297 111 L 297 111 L 297 112 Q 297 112 298 112 Q 299 113 302 115 Q 308 118 319 122 Q 340 132 368 133 Q 396 132 418 122 Q 428 118 434 114 Q 435 114 437 113 Q 438 112 438 112 Q 439 112 439 112 Q 439 112 440 111 L 440 111 L 440 111 Q 439 111 441 113 Q 442 115 448 125 Q 454 135 456 137 Q 457 139 457 139 L 457 139 L 457 139 L 457 139 L 457 139 L 456 139 Q 456 139 455 140 Q 453 141 449 143 Q 442 147 430 152 Q 405 163 368 165 Q 332 163 307 152 Q 295 147 288 143 Q 285 142 284 141 Q 283 140 282 140 Q 282 140 281 139 Q 281 139 281 139 L 280 139 L 280 139 L 280 139 L 280 139 L 280 139 L 280 139 Z"
  />
</svg>