<svg viewBox="0 0 640 512">
  <path
    d="M 352 62 L 421 73 L 371 123 L 382 192 L 320 160 L 258 192 L 269 123 L 219 73 L 288 62 L 320 0 L 352 62 L 352 62 Z M 272 304 L 272 464 L 368 464 L 368 304 L 272 304 L 272 304 Z M 224 256 L 272 256 L 368 256 L 416 256 L 416 304 L 416 464 L 416 512 L 368 512 L 272 512 L 224 512 L 224 464 L 224 304 L 224 256 L 224 256 Z M 48 368 L 48 464 L 144 464 L 144 368 L 48 368 L 48 368 Z M 0 320 L 48 320 L 144 320 L 192 320 L 192 368 L 192 464 L 192 512 L 144 512 L 48 512 L 0 512 L 0 464 L 0 368 L 0 320 L 0 320 Z M 592 400 L 496 400 L 496 464 L 592 464 L 592 400 L 592 400 Z M 496 352 L 592 352 L 640 352 L 640 400 L 640 464 L 640 512 L 592 512 L 496 512 L 448 512 L 448 464 L 448 400 L 448 352 L 496 352 L 496 352 Z"
  />
</svg>