<svg xmlns="http://www.w3.org/2000/svg" viewBox="0 0 640 512">
    <path d="M 192 73 L 222 97 Q 224 89 224 80 Q 223 46 201 23 Q 178 1 144 0 Q 125 0 109 8 L 140 32 Q 142 32 144 32 Q 163 32 176 44 Q 189 55 192 73 L 192 73 Z M 136 192 L 48 192 L 0 320 L 34 320 L 70 224 L 176 224 L 136 192 L 136 192 Z M 413 248 Q 416 236 416 224 Q 415 183 388 156 Q 361 129 320 128 Q 295 128 275 139 L 304 162 Q 312 160 320 160 Q 347 161 365 179 Q 383 197 384 224 L 384 225 L 413 248 L 413 248 Z M 338 352 L 320 352 L 224 352 L 176 352 L 138 480 L 128 512 L 161 512 L 479 512 L 512 512 L 503 482 L 459 447 L 469 480 L 171 480 L 200 384 L 379 384 L 338 352 L 338 352 Z M 570 224 L 606 320 L 640 320 L 592 192 L 444 192 Q 448 207 448 224 L 570 224 L 570 224 Z M 512 32 Q 539 33 554 56 Q 566 80 554 104 Q 539 127 512 128 Q 485 127 470 104 Q 458 80 470 56 Q 485 33 512 32 L 512 32 Z M 512 160 Q 557 159 581 120 Q 603 80 581 40 Q 557 1 512 0 Q 467 1 443 40 Q 421 80 443 120 Q 467 159 512 160 L 512 160 Z M 40 18 L 28 8 L 8 33 L 21 43 L 600 494 L 612 504 L 632 479 L 620 469 L 40 18 L 40 18 Z"/>
</svg>
