<svg xmlns="http://www.w3.org/2000/svg" viewBox="0 0 512 512">
  <path d="M 483.55554 85.333336 L 113.77778 85.333336 L 483.55554 85.333336 L 113.77778 85.333336 L 113.77778 341.33334 L 113.77778 341.33334 L 195.55556 341.33334 L 195.55556 341.33334 L 227.55556 256 L 227.55556 256 L 298.66666 256 L 369.77777 256 L 401.77777 341.33334 L 401.77777 341.33334 L 483.55554 341.33334 L 483.55554 341.33334 L 483.55554 85.333336 L 483.55554 85.333336 Z M 412.44446 369.77777 L 382.22223 369.77777 L 412.44446 369.77777 L 85.333336 369.77777 L 85.333336 341.33334 L 85.333336 341.33334 L 85.333336 85.333336 L 85.333336 85.333336 L 85.333336 56.88889 L 85.333336 56.88889 L 113.77778 56.88889 L 512 56.88889 L 512 85.333336 L 512 85.333336 L 512 341.33334 L 512 341.33334 L 512 369.77777 L 512 369.77777 L 483.55554 369.77777 L 412.44446 369.77777 Z M 371.55554 341.33334 L 350.22223 284.44446 L 371.55554 341.33334 L 350.22223 284.44446 L 247.11111 284.44446 L 247.11111 284.44446 L 225.77777 341.33334 L 225.77777 341.33334 L 371.55554 341.33334 L 371.55554 341.33334 Z M 28.444445 113.77778 L 28.444445 128 L 28.444445 113.77778 L 28.444445 128 L 28.444445 426.66666 L 28.444445 426.66666 L 412.44446 426.66666 L 426.66666 426.66666 L 426.66666 455.1111 L 426.66666 455.1111 L 412.44446 455.1111 L 0 455.1111 L 0 440.8889 L 0 440.8889 L 0 128 L 0 128 L 0 113.77778 L 0 113.77778 L 28.444445 113.77778 L 28.444445 113.77778 Z M 241.77777 170.66667 Q 242.66667 138.66667 270.22223 121.77778 Q 298.66666 105.77778 327.1111 121.77778 Q 354.66666 138.66667 355.55554 170.66667 Q 354.66666 202.66667 327.1111 219.55556 Q 298.66666 235.55556 270.22223 219.55556 Q 242.66667 202.66667 241.77777 170.66667 L 241.77777 170.66667 Z M 327.1111 170.66667 Q 327.1111 158.22223 319.1111 150.22223 L 319.1111 150.22223 L 319.1111 150.22223 Q 311.1111 142.22223 298.66666 142.22223 Q 286.22223 142.22223 278.22223 150.22223 Q 270.22223 158.22223 270.22223 170.66667 Q 270.22223 183.11111 278.22223 191.11111 Q 286.22223 199.11111 298.66666 199.11111 Q 311.1111 199.11111 319.1111 191.11111 Q 327.1111 183.11111 327.1111 170.66667 L 327.1111 170.66667 Z" />
</svg>