<svg viewBox="0 0 511 511">
  <path
    d="M 463 207 Q 462 279 428 336 L 428 336 Q 394 394 336 428 L 336 428 Q 279 462 207 463 Q 132 462 73 425 L 100 398 Q 151 430 215 431 Q 307 429 368 368 Q 429 307 431 215 Q 430 151 398 100 L 425 73 Q 462 132 463 207 L 463 207 Z M 62 368 L 34 396 L 0 430 Q 18 446 38 460 Q 112 510 207 511 Q 292 510 360 469 Q 429 429 469 360 Q 510 292 511 207 Q 510 112 460 38 Q 446 18 430 0 L 396 34 L 368 62 L 334 96 L 239 191 L 191 239 L 96 334 L 62 368 L 62 368 Z M 223 287 Q 240 287 256 278 L 322 345 Q 280 379 223 383 L 223 287 L 223 287 Z M 278 256 Q 287 240 287 223 L 383 223 Q 379 280 345 322 L 278 256 L 278 256 Z M 135 363 L 191 307 L 191 381 Q 161 377 135 363 L 135 363 Z M 307 191 L 363 135 Q 377 161 381 191 L 307 191 L 307 191 Z"
  />
</svg>