<svg xmlns="http://www.w3.org/2000/svg" viewBox="0 0 454 454">
    <path d="M 198 54 Q 197 27 174 12 Q 150 0 126 12 Q 103 27 102 54 Q 103 81 126 96 Q 150 108 174 96 Q 197 81 198 54 L 198 54 Z M 146 299 L 156 280 L 210 182 L 250 182 L 304 280 L 314 299 L 335 304 Q 352 308 363 322 Q 374 335 374 354 Q 373 376 359 391 Q 344 405 322 406 Q 302 406 288 394 L 275 382 L 257 382 L 203 382 L 185 382 L 172 394 Q 158 406 138 406 Q 116 405 101 391 Q 87 376 86 354 Q 86 335 97 322 Q 108 308 125 304 L 146 299 L 146 299 Z M 182 134 L 114 257 Q 80 266 60 292 Q 39 318 38 354 Q 39 396 67 425 Q 96 453 138 454 Q 176 453 203 430 L 257 430 Q 284 453 322 454 Q 364 453 393 425 Q 421 396 422 354 Q 421 318 400 292 Q 380 266 346 257 L 278 134 L 182 134 L 182 134 Z M 310 102 Q 337 101 352 78 Q 364 54 352 30 Q 337 7 310 6 Q 283 7 268 30 Q 256 54 268 78 Q 283 101 310 102 L 310 102 Z M 454 166 Q 453 139 430 124 Q 406 112 382 124 Q 359 139 358 166 Q 359 193 382 208 Q 406 220 430 208 Q 453 193 454 166 L 454 166 Z M 54 214 Q 81 213 96 190 Q 108 166 96 142 Q 81 119 54 118 Q 27 119 12 142 Q 0 166 12 190 Q 27 213 54 214 L 54 214 Z"/>
</svg>
