<svg xmlns="http://www.w3.org/2000/svg" viewBox="0 0 512 512">
  <path d="M 25.6 79.2 L 25.6 386.4 L 25.6 79.2 L 25.6 386.4 L 102.4 386.4 L 102.4 386.4 L 102.4 271.2 L 102.4 271.2 L 102.4 264.8 L 102.4 264.8 L 108 260.8 L 108 260.8 L 256 156 L 256 156 L 256 79.2 L 256 79.2 L 25.6 79.2 L 25.6 79.2 Z M 281.6 162.4 L 281.6 168.8 L 281.6 162.4 L 281.6 168.8 L 276 172.8 L 276 172.8 L 213.6 217.6 L 213.6 217.6 L 262.4 284 L 262.4 284 L 320 284 L 325.6 284 L 329.6 288.8 L 329.6 288.8 L 406.4 378.4 L 406.4 378.4 L 413.6 386.4 L 413.6 386.4 L 486.4 386.4 L 486.4 386.4 L 486.4 79.2 L 486.4 79.2 L 281.6 79.2 L 281.6 79.2 L 281.6 162.4 L 281.6 162.4 Z M 293.6 386.4 L 380 386.4 L 293.6 386.4 L 380 386.4 L 314.4 309.6 L 314.4 309.6 L 272.8 309.6 L 272.8 309.6 L 229.6 342.4 L 229.6 342.4 L 304.8 443.2 L 304.8 443.2 L 284 458.4 L 284 458.4 L 250.4 412 L 250.4 412 L 25.6 412 L 0 412 L 0 386.4 L 0 386.4 L 0 79.2 L 0 79.2 L 0 53.6 L 0 53.6 L 25.6 53.6 L 512 53.6 L 512 79.2 L 512 79.2 L 512 386.4 L 512 386.4 L 512 412 L 512 412 L 486.4 412 L 312.8 412 L 293.6 386.4 L 293.6 386.4 Z M 214.4 321.6 L 242.4 300.8 L 214.4 321.6 L 242.4 300.8 L 192.8 232 L 192.8 232 L 164 252.8 L 164 252.8 L 214.4 321.6 L 214.4 321.6 Z M 142.4 267.2 L 128 277.6 L 142.4 267.2 L 128 277.6 L 128 386.4 L 128 386.4 L 231.2 386.4 L 231.2 386.4 L 142.4 267.2 L 142.4 267.2 Z M 134.4 162.4 Q 132.8 144.8 115.2 143.2 Q 97.6 144.8 96 162.4 Q 97.6 180 115.2 181.6 Q 132.8 180 134.4 162.4 L 134.4 162.4 Z M 70.4 162.4 Q 71.2 136.8 92.8 124 Q 115.2 111.2 137.6 124 Q 159.2 136.8 160 162.4 Q 159.2 188 137.6 200.8 Q 115.2 213.6 92.8 200.8 Q 71.2 188 70.4 162.4 L 70.4 162.4 Z" />
</svg>