<svg xmlns="http://www.w3.org/2000/svg" viewBox="0 0 512 512">
  <path d="M 54.857142857142854 54.857142857142854 L 457.14285714285717 54.857142857142854 L 54.857142857142854 54.857142857142854 L 457.14285714285717 54.857142857142854 L 457.14285714285717 109.71428571428571 L 457.14285714285717 109.71428571428571 L 512 109.71428571428571 L 512 109.71428571428571 L 512 54.857142857142854 L 512 54.857142857142854 L 512 0 L 512 0 L 457.14285714285717 0 L 0 0 L 0 54.857142857142854 L 0 54.857142857142854 L 0 109.71428571428571 L 0 109.71428571428571 L 54.857142857142854 109.71428571428571 L 54.857142857142854 109.71428571428571 L 54.857142857142854 54.857142857142854 L 54.857142857142854 54.857142857142854 Z M 54.857142857142854 402.2857142857143 L 0 402.2857142857143 L 54.857142857142854 402.2857142857143 L 0 402.2857142857143 L 0 457.14285714285717 L 0 457.14285714285717 L 0 512 L 0 512 L 54.857142857142854 512 L 512 512 L 512 457.14285714285717 L 512 457.14285714285717 L 512 402.2857142857143 L 512 402.2857142857143 L 457.14285714285717 402.2857142857143 L 457.14285714285717 402.2857142857143 L 457.14285714285717 457.14285714285717 L 457.14285714285717 457.14285714285717 L 54.857142857142854 457.14285714285717 L 54.857142857142854 457.14285714285717 L 54.857142857142854 402.2857142857143 L 54.857142857142854 402.2857142857143 Z M 36.57142857142857 146.28571428571428 L 36.57142857142857 173.71428571428572 L 36.57142857142857 146.28571428571428 L 36.57142857142857 173.71428571428572 L 36.57142857142857 338.2857142857143 L 36.57142857142857 338.2857142857143 L 36.57142857142857 365.7142857142857 L 36.57142857142857 365.7142857142857 L 91.42857142857143 365.7142857142857 L 91.42857142857143 365.7142857142857 L 91.42857142857143 338.2857142857143 L 91.42857142857143 338.2857142857143 L 91.42857142857143 264 L 91.42857142857143 264 L 146.28571428571428 353.14285714285717 L 146.28571428571428 353.14285714285717 L 154.28571428571428 365.7142857142857 L 154.28571428571428 365.7142857142857 L 170.28571428571428 365.7142857142857 L 201.14285714285714 365.7142857142857 L 201.14285714285714 338.2857142857143 L 201.14285714285714 338.2857142857143 L 201.14285714285714 173.71428571428572 L 201.14285714285714 173.71428571428572 L 201.14285714285714 146.28571428571428 L 201.14285714285714 146.28571428571428 L 146.28571428571428 146.28571428571428 L 146.28571428571428 146.28571428571428 L 146.28571428571428 173.71428571428572 L 146.28571428571428 173.71428571428572 L 146.28571428571428 248 L 146.28571428571428 248 L 91.42857142857143 158.85714285714286 L 91.42857142857143 158.85714285714286 L 83.42857142857143 146.28571428571428 L 83.42857142857143 146.28571428571428 L 67.42857142857143 146.28571428571428 L 36.57142857142857 146.28571428571428 Z M 246.85714285714286 146.28571428571428 L 246.85714285714286 173.71428571428572 L 246.85714285714286 146.28571428571428 L 246.85714285714286 173.71428571428572 L 246.85714285714286 265.14285714285717 L 246.85714285714286 265.14285714285717 L 246.85714285714286 338.2857142857143 L 246.85714285714286 338.2857142857143 L 246.85714285714286 365.7142857142857 L 246.85714285714286 365.7142857142857 L 301.7142857142857 365.7142857142857 L 301.7142857142857 365.7142857142857 L 301.7142857142857 338.2857142857143 L 301.7142857142857 338.2857142857143 L 301.7142857142857 292.57142857142856 L 301.7142857142857 292.57142857142856 L 347.42857142857144 292.57142857142856 L 374.85714285714283 292.57142857142856 L 374.85714285714283 237.71428571428572 L 374.85714285714283 237.71428571428572 L 347.42857142857144 237.71428571428572 L 301.7142857142857 237.71428571428572 L 301.7142857142857 201.14285714285714 L 301.7142857142857 201.14285714285714 L 347.42857142857144 201.14285714285714 L 374.85714285714283 201.14285714285714 L 374.85714285714283 146.28571428571428 L 374.85714285714283 146.28571428571428 L 347.42857142857144 146.28571428571428 L 246.85714285714286 146.28571428571428 Z M 475.42857142857144 173.71428571428572 L 475.42857142857144 146.28571428571428 L 475.42857142857144 173.71428571428572 L 475.42857142857144 146.28571428571428 L 420.57142857142856 146.28571428571428 L 420.57142857142856 146.28571428571428 L 420.57142857142856 173.71428571428572 L 420.57142857142856 173.71428571428572 L 420.57142857142856 338.2857142857143 L 420.57142857142856 338.2857142857143 L 420.57142857142856 365.7142857142857 L 420.57142857142856 365.7142857142857 L 475.42857142857144 365.7142857142857 L 475.42857142857144 365.7142857142857 L 475.42857142857144 338.2857142857143 L 475.42857142857144 338.2857142857143 L 475.42857142857144 173.71428571428572 L 475.42857142857144 173.71428571428572 Z" />
</svg>