<svg xmlns="http://www.w3.org/2000/svg" viewBox="0 0 640 512">
    <path d="M 256 464 Q 331 463 385 419 Q 389 445 401 467 Q 338 511 256 512 Q 184 511 127 477 Q 69 443 35 385 Q 1 328 0 256 Q 1 184 35 127 Q 69 69 127 35 Q 184 1 256 0 Q 343 1 408 50 Q 473 99 500 177 L 463 234 Q 453 153 395 102 Q 338 50 256 48 Q 168 50 109 109 Q 50 168 48 256 Q 50 344 109 403 Q 168 462 256 464 L 256 464 Z M 192 152 L 192 200 L 192 224 L 144 224 L 144 200 L 144 152 L 144 128 L 192 128 L 192 152 L 192 152 Z M 280 152 L 280 200 L 280 224 L 232 224 L 232 200 L 232 152 L 232 128 L 280 128 L 280 152 L 280 152 Z M 368 152 L 368 200 L 368 224 L 320 224 L 320 200 L 320 152 L 320 128 L 368 128 L 368 152 L 368 152 Z M 528 192 L 622 336 Q 640 364 640 398 L 640 400 Q 639 448 607 479 Q 576 511 528 512 Q 480 511 449 479 Q 417 448 416 400 L 416 398 Q 416 364 435 336 L 528 192 L 528 192 Z"/>
</svg>
