<svg viewBox="0 0 640 448">
  <path
    d="M 0 448 L 144 448 L 512 448 L 640 448 L 640 320 Q 639 274 613 241 Q 586 207 544 196 L 544 160 Q 543 119 516 92 Q 489 65 448 64 Q 418 64 395 80 Q 373 44 337 22 Q 301 1 256 0 Q 188 2 143 47 Q 98 92 96 160 L 96 168 Q 53 184 27 220 Q 1 256 0 304 L 0 448 L 0 448 Z M 288 128 L 304 128 L 320 128 L 336 128 L 336 144 L 336 224 L 336 240 L 304 240 L 304 224 L 304 160 L 288 160 L 288 128 L 288 128 Z M 176 128 L 240 128 L 256 128 L 256 144 L 256 224 L 256 240 L 240 240 L 176 240 L 160 240 L 160 224 L 160 144 L 160 128 L 176 128 L 176 128 Z M 192 208 L 224 208 L 224 160 L 192 160 L 192 208 L 192 208 Z M 384 128 L 400 128 L 464 128 L 480 128 L 480 144 L 480 224 L 480 240 L 464 240 L 400 240 L 384 240 L 384 224 L 384 144 L 384 128 L 384 128 Z M 416 160 L 416 208 L 448 208 L 448 160 L 416 160 L 416 160 Z M 192 272 L 208 272 L 224 272 L 224 288 L 224 368 L 224 384 L 192 384 L 192 368 L 192 304 L 176 304 L 176 272 L 192 272 L 192 272 Z M 272 272 L 288 272 L 352 272 L 368 272 L 368 288 L 368 368 L 368 384 L 352 384 L 288 384 L 272 384 L 272 368 L 272 288 L 272 272 L 272 272 Z M 304 304 L 304 352 L 336 352 L 336 304 L 304 304 L 304 304 Z M 416 272 L 432 272 L 448 272 L 448 288 L 448 368 L 448 384 L 416 384 L 416 368 L 416 304 L 400 304 L 400 272 L 416 272 L 416 272 Z"
  />
</svg>