<svg xmlns="http://www.w3.org/2000/svg" viewBox="0 0 512 512">
  <path d="M 25.6 51.2 L 44.8 51.2 L 25.6 51.2 L 486.4 51.2 L 486.4 70.4 L 486.4 70.4 L 486.4 179.2 L 486.4 179.2 L 512 179.2 L 512 179.2 L 512 460.8 L 512 460.8 L 0 460.8 L 0 460.8 L 0 179.2 L 0 179.2 L 25.6 179.2 L 25.6 179.2 L 25.6 70.4 L 25.6 70.4 L 25.6 51.2 L 25.6 51.2 Z M 64 179.2 L 153.6 179.2 L 64 179.2 L 153.6 179.2 L 153.6 153.6 L 153.6 153.6 L 204.8 153.6 L 204.8 153.6 L 204.8 179.2 L 204.8 179.2 L 230.4 179.2 L 230.4 179.2 L 230.4 153.6 L 230.4 153.6 L 281.6 153.6 L 281.6 153.6 L 281.6 179.2 L 281.6 179.2 L 307.2 179.2 L 307.2 179.2 L 307.2 153.6 L 307.2 153.6 L 358.4 153.6 L 358.4 153.6 L 358.4 179.2 L 358.4 179.2 L 448 179.2 L 448 179.2 L 448 89.6 L 448 89.6 L 64 89.6 L 64 89.6 L 64 179.2 L 64 179.2 Z M 76.8 320 Q 77.6 284 108.8 264.8 Q 140.8 247.2 172.8 264.8 Q 204 284 204.8 320 Q 204 356 172.8 375.2 Q 140.8 392.8 108.8 375.2 Q 77.6 356 76.8 320 L 76.8 320 Z M 230.4 320 Q 230.4 296 218.4 275.2 L 218.4 275.2 L 218.4 275.2 Q 206.4 254.4 185.6 242.4 Q 164.8 230.4 140.8 230.4 Q 116.8 230.4 96 242.4 Q 75.2 254.4 63.2 275.2 Q 51.2 296 51.2 320 Q 51.2 344 63.2 364.8 Q 75.2 385.6 96 397.6 Q 116.8 409.6 140.8 409.6 Q 164.8 409.6 185.6 397.6 Q 206.4 385.6 218.4 364.8 Q 230.4 344 230.4 320 L 230.4 320 Z M 371.2 256 Q 407.2 256.8 426.4 288 Q 444 320 426.4 352 Q 407.2 383.2 371.2 384 Q 335.2 383.2 316 352 Q 298.4 320 316 288 Q 335.2 256.8 371.2 256 L 371.2 256 Z M 371.2 409.6 Q 395.2 409.6 416 397.6 L 416 397.6 L 416 397.6 Q 436.8 385.6 448.8 364.8 Q 460.8 344 460.8 320 Q 460.8 296 448.8 275.2 Q 436.8 254.4 416 242.4 Q 395.2 230.4 371.2 230.4 Q 347.2 230.4 326.4 242.4 Q 305.6 254.4 293.6 275.2 Q 281.6 296 281.6 320 Q 281.6 344 293.6 364.8 Q 305.6 385.6 326.4 397.6 Q 347.2 409.6 371.2 409.6 L 371.2 409.6 Z" />
</svg>