<svg xmlns="http://www.w3.org/2000/svg" viewBox="0 0 512 512">
  <path d="M 483.8902 3.5137255 L 305.19217 360.9098 L 483.8902 3.5137255 L 305.19217 360.9098 L 20.078432 284.61176 L 20.078432 284.61176 L 0 278.58823 L 0 278.58823 L 0 299.6706 L 0 299.6706 L 0 492.42352 L 0 492.42352 L 0 508.48627 L 0 508.48627 L 16.062746 508.48627 L 267.04315 508.48627 L 271.05884 499.451 L 271.05884 499.451 L 327.27844 387.01178 L 327.27844 387.01178 L 512 17.568628 L 512 17.568628 L 483.8902 3.5137255 L 483.8902 3.5137255 Z M 32.125492 320.75293 L 290.13333 390.02353 L 32.125492 320.75293 L 290.13333 390.02353 L 246.9647 476.36078 L 246.9647 476.36078 L 32.125492 476.36078 L 32.125492 476.36078 L 32.125492 444.2353 L 32.125492 444.2353 L 80.31373 444.2353 L 96.37647 444.2353 L 96.37647 412.1098 L 96.37647 412.1098 L 80.31373 412.1098 L 32.125492 412.1098 L 32.125492 396.04706 L 32.125492 396.04706 L 80.31373 396.04706 L 96.37647 396.04706 L 96.37647 363.92157 L 96.37647 363.92157 L 80.31373 363.92157 L 32.125492 363.92157 L 32.125492 320.75293 L 32.125492 320.75293 Z" />
</svg>