<svg xmlns="http://www.w3.org/2000/svg" viewBox="0 0 512 512">
  <path d="M 212.57142857142858 22.857142857142858 Q 182.85714285714286 0 146.28571428571428 0 Q 99.42857142857143 1.1428571428571428 68.57142857142857 32 Q 37.714285714285715 62.857142857142854 36.57142857142857 109.71428571428571 L 36.57142857142857 116.57142857142857 L 36.57142857142857 116.57142857142857 Q 36.57142857142857 144 49.142857142857146 168 L 83.42857142857143 237.71428571428572 L 83.42857142857143 237.71428571428572 L 128 489.14285714285717 L 128 489.14285714285717 L 132.57142857142858 512 L 132.57142857142858 512 L 155.42857142857142 512 L 187.42857142857142 512 L 192 490.2857142857143 L 192 490.2857142857143 L 224 320 L 224 320 L 288 320 L 288 320 L 321.14285714285717 490.2857142857143 L 321.14285714285717 490.2857142857143 L 324.57142857142856 512 L 324.57142857142856 512 L 347.42857142857144 512 L 379.42857142857144 512 L 384 489.14285714285717 L 384 489.14285714285717 L 428.57142857142856 237.71428571428572 L 428.57142857142856 237.71428571428572 L 462.85714285714283 168 L 462.85714285714283 168 Q 475.42857142857144 144 475.42857142857144 116.57142857142857 L 475.42857142857144 114.28571428571429 L 475.42857142857144 114.28571428571429 Q 474.2857142857143 65.14285714285714 442.2857142857143 33.142857142857146 Q 410.2857142857143 1.1428571428571428 361.14285714285717 0 Q 318.85714285714283 0 286.85714285714283 28.571428571428573 L 283.42857142857144 30.857142857142858 L 283.42857142857144 30.857142857142858 L 320 59.42857142857143 L 320 59.42857142857143 L 297.14285714285717 89.14285714285714 L 297.14285714285717 89.14285714285714 L 254.85714285714286 56 L 254.85714285714286 56 L 212.57142857142858 22.857142857142858 L 212.57142857142858 22.857142857142858 Z" />
</svg>