<svg xmlns="http://www.w3.org/2000/svg" viewBox="0 0 512 512">
  <path d="M 0 42.666668 L 398.22223 42.666668 L 0 42.666668 L 398.22223 42.666668 L 398.22223 185.77777 L 398.22223 185.77777 Q 391.1111 184.88889 384 184.88889 Q 357.33334 184.88889 333.33334 193.77777 Q 317.33334 152 281.77777 126.22222 Q 246.22223 100.44444 199.11111 99.55556 Q 138.66667 101.333336 98.666664 141.33333 Q 58.666668 181.33333 56.88889 241.77777 Q 58.666668 302.22223 98.666664 342.22223 Q 138.66667 382.22223 199.11111 384 Q 216 384 232 380.44446 Q 240.88889 414.22223 263.1111 440.8889 L 0 440.8889 L 0 440.8889 L 0 42.666668 L 0 42.666668 Z M 199.11111 213.33333 Q 211.55556 213.33333 219.55556 221.33333 L 219.55556 221.33333 L 219.55556 221.33333 Q 227.55556 229.33333 227.55556 241.77777 Q 227.55556 254.22223 219.55556 262.22223 Q 211.55556 270.22223 199.11111 270.22223 Q 186.66667 270.22223 178.66667 262.22223 Q 170.66667 254.22223 170.66667 241.77777 Q 170.66667 229.33333 178.66667 221.33333 Q 186.66667 213.33333 199.11111 213.33333 L 199.11111 213.33333 Z M 256 341.33334 Q 256 306.66666 272.8889 277.33334 L 272.8889 277.33334 L 272.8889 277.33334 Q 289.77777 248 320 230.22223 Q 350.22223 213.33333 384 213.33333 Q 417.77777 213.33333 448 230.22223 Q 478.22223 248 495.1111 277.33334 Q 512 306.66666 512 341.33334 Q 512 376 495.1111 405.33334 Q 478.22223 434.66666 448 452.44446 Q 417.77777 469.33334 384 469.33334 Q 350.22223 469.33334 320 452.44446 Q 289.77777 434.66666 272.8889 405.33334 Q 256 376 256 341.33334 L 256 341.33334 Z M 456 410.66666 L 433.77777 384 L 456 410.66666 L 433.77777 384 L 334.22223 384 L 334.22223 384 L 312 410.66666 L 312 410.66666 Q 340.44446 440 384 440.8889 Q 427.55554 440 456 410.66666 L 456 410.66666 Z M 426.66666 312.8889 Q 425.77777 288.8889 405.33334 275.55554 Q 384 264.8889 362.66666 275.55554 Q 342.22223 288.8889 341.33334 312.8889 Q 342.22223 336.8889 362.66666 350.22223 Q 384 360.8889 405.33334 350.22223 Q 425.77777 336.8889 426.66666 312.8889 L 426.66666 312.8889 Z" />
</svg>