<svg xmlns="http://www.w3.org/2000/svg" viewBox="0 0 512 512">
  <path d="M 94.386086 68.11826 L 84.5913 57.433044 L 94.386086 68.11826 L 84.5913 57.433044 L 74.796524 68.11826 L 74.796524 68.11826 L 10.685218 132.22957 L 10.685218 132.22957 L 0 142.02435 L 0 142.02435 L 20.48 162.50435 L 20.48 162.50435 L 30.274782 151.81914 L 30.274782 151.81914 L 70.344345 112.64 L 70.344345 112.64 L 70.344345 399.36 L 70.344345 399.36 L 30.274782 360.18088 L 30.274782 360.18088 L 20.48 349.49567 L 20.48 349.49567 L 0 369.97565 L 0 369.97565 L 10.685218 379.77045 L 10.685218 379.77045 L 74.796524 443.88174 L 74.796524 443.88174 L 84.5913 454.56696 L 84.5913 454.56696 L 94.386086 443.88174 L 94.386086 443.88174 L 158.49739 379.77045 L 158.49739 379.77045 L 169.1826 369.97565 L 169.1826 369.97565 L 148.7026 349.49567 L 148.7026 349.49567 L 138.90782 360.18088 L 138.90782 360.18088 L 98.838264 399.36 L 98.838264 399.36 L 98.838264 112.64 L 98.838264 112.64 L 138.90782 151.81914 L 138.90782 151.81914 L 148.7026 162.50435 L 148.7026 162.50435 L 169.1826 142.02435 L 169.1826 142.02435 L 158.49739 132.22957 L 158.49739 132.22957 L 94.386086 68.11826 L 94.386086 68.11826 Z M 241.30783 99.28348 L 227.06087 99.28348 L 241.30783 99.28348 L 227.06087 99.28348 L 227.06087 127.77739 L 227.06087 127.77739 L 241.30783 127.77739 L 512 127.77739 L 512 99.28348 L 512 99.28348 L 497.75305 99.28348 L 241.30783 99.28348 Z M 241.30783 241.75304 L 227.06087 241.75304 L 241.30783 241.75304 L 227.06087 241.75304 L 227.06087 270.24695 L 227.06087 270.24695 L 241.30783 270.24695 L 512 270.24695 L 512 241.75304 L 512 241.75304 L 497.75305 241.75304 L 241.30783 241.75304 Z M 227.06087 384.2226 L 227.06087 412.71652 L 227.06087 384.2226 L 227.06087 412.71652 L 241.30783 412.71652 L 512 412.71652 L 512 384.2226 L 512 384.2226 L 497.75305 384.2226 L 227.06087 384.2226 Z" />
</svg>