<svg xmlns="http://www.w3.org/2000/svg" viewBox="0 0 512 512">
  <path d="M 97.77777777777777 147.55555555555554 Q 84.44444444444444 157.33333333333334 74.66666666666667 170.66666666666666 Q 42.666666666666664 172.44444444444446 22.22222222222222 194.66666666666666 Q 0.8888888888888888 216.88888888888889 0 248.88888888888889 L 0 305.77777777777777 L 0 305.77777777777777 L 0 327.1111111111111 L 0 327.1111111111111 L 42.666666666666664 327.1111111111111 L 42.666666666666664 327.1111111111111 L 42.666666666666664 305.77777777777777 L 42.666666666666664 305.77777777777777 L 42.666666666666664 248.88888888888889 L 42.666666666666664 248.88888888888889 Q 43.55555555555556 230.22222222222223 56.888888888888886 220.44444444444446 Q 56.888888888888886 224 56.888888888888886 227.55555555555554 Q 56.888888888888886 247.11111111111111 64 264.8888888888889 L 83.55555555555556 313.77777777777777 L 83.55555555555556 313.77777777777777 L 68.44444444444444 354.6666666666667 L 68.44444444444444 354.6666666666667 L 63.111111111111114 367.1111111111111 L 63.111111111111114 367.1111111111111 L 60.44444444444444 374.22222222222223 L 60.44444444444444 374.22222222222223 L 63.111111111111114 380.44444444444446 L 63.111111111111114 380.44444444444446 L 66.66666666666667 393.77777777777777 L 66.66666666666667 393.77777777777777 L 87.11111111111111 467.55555555555554 L 87.11111111111111 467.55555555555554 L 91.55555555555556 483.55555555555554 L 91.55555555555556 483.55555555555554 L 107.55555555555556 483.55555555555554 L 224 483.55555555555554 L 216.88888888888889 456.8888888888889 L 216.88888888888889 456.8888888888889 L 195.55555555555554 379.55555555555554 L 195.55555555555554 379.55555555555554 L 207.11111111111111 349.3333333333333 L 207.11111111111111 349.3333333333333 Q 208.88888888888889 344 209.77777777777777 338.6666666666667 L 256 352.8888888888889 L 256 352.8888888888889 L 256 462.22222222222223 L 256 462.22222222222223 L 256 483.55555555555554 L 256 483.55555555555554 L 277.3333333333333 483.55555555555554 L 384 483.55555555555554 L 384 462.22222222222223 L 384 462.22222222222223 L 384 320 L 384 320 Q 411.55555555555554 288.8888888888889 412.44444444444446 243.55555555555554 L 412.44444444444446 243.55555555555554 L 412.44444444444446 243.55555555555554 L 422.22222222222223 253.33333333333334 L 422.22222222222223 253.33333333333334 L 435.55555555555554 247.11111111111111 L 435.55555555555554 247.11111111111111 L 499.55555555555554 218.66666666666666 L 499.55555555555554 218.66666666666666 L 512 213.33333333333334 L 512 213.33333333333334 L 512 199.11111111111111 L 512 199.11111111111111 L 512 124.44444444444444 L 512 124.44444444444444 L 512 118.22222222222223 L 512 118.22222222222223 L 508.44444444444446 112.88888888888889 L 508.44444444444446 112.88888888888889 L 480.8888888888889 71.11111111111111 L 480.8888888888889 71.11111111111111 L 497.77777777777777 71.11111111111111 L 497.77777777777777 71.11111111111111 L 497.77777777777777 28.444444444444443 L 497.77777777777777 28.444444444444443 L 476.44444444444446 28.444444444444443 L 391.1111111111111 28.444444444444443 Q 344.8888888888889 29.333333333333332 310.22222222222223 55.111111111111114 Q 275.55555555555554 81.77777777777777 262.22222222222223 123.55555555555556 L 146.66666666666666 53.333333333333336 L 146.66666666666666 53.333333333333336 L 113.77777777777777 32.888888888888886 L 113.77777777777777 32.888888888888886 L 113.77777777777777 71.11111111111111 L 113.77777777777777 71.11111111111111 Q 114.66666666666667 124.44444444444444 133.33333333333334 160.88888888888889 Q 152.88888888888889 198.22222222222223 177.77777777777777 220.44444444444446 Q 201.77777777777777 241.77777777777777 220.44444444444446 251.55555555555554 Q 229.33333333333334 256.8888888888889 235.55555555555554 259.55555555555554 Q 237.33333333333334 260.44444444444446 239.11111111111111 260.44444444444446 Q 239.11111111111111 261.3333333333333 239.11111111111111 261.3333333333333 Q 240 261.3333333333333 240.88888888888889 261.3333333333333 L 240.88888888888889 261.3333333333333 L 240.88888888888889 261.3333333333333 L 241.77777777777777 262.22222222222223 L 241.77777777777777 262.22222222222223 L 241.77777777777777 262.22222222222223 L 241.77777777777777 262.22222222222223 L 241.77777777777777 262.22222222222223 L 241.77777777777777 262.22222222222223 Q 240.88888888888889 262.22222222222223 242.66666666666666 259.55555555555554 Q 243.55555555555554 256 248.88888888888889 241.77777777777777 Q 254.22222222222223 227.55555555555554 255.11111111111111 224 Q 256.8888888888889 221.33333333333334 256.8888888888889 222.22222222222223 Q 256.8888888888889 222.22222222222223 256.8888888888889 222.22222222222223 L 256.8888888888889 222.22222222222223 L 256.8888888888889 222.22222222222223 L 256 221.33333333333334 L 256 221.33333333333334 Q 256 221.33333333333334 255.11111111111111 221.33333333333334 Q 254.22222222222223 220.44444444444446 253.33333333333334 220.44444444444446 Q 248.88888888888889 218.66666666666666 241.77777777777777 214.22222222222223 Q 226.66666666666666 206.22222222222223 206.22222222222223 189.33333333333334 Q 176 163.55555555555554 160.88888888888889 112 L 252.44444444444446 168 L 252.44444444444446 168 L 256.8888888888889 170.66666666666666 L 256.8888888888889 170.66666666666666 L 263.1111111111111 170.66666666666666 L 296.8888888888889 170.66666666666666 L 299.55555555555554 152 L 299.55555555555554 152 Q 304 117.33333333333333 329.77777777777777 94.22222222222223 Q 354.6666666666667 72 391.1111111111111 71.11111111111111 L 419.55555555555554 71.11111111111111 L 429.3333333333333 71.11111111111111 L 469.3333333333333 130.66666666666666 L 469.3333333333333 130.66666666666666 L 469.3333333333333 184.88888888888889 L 469.3333333333333 184.88888888888889 L 431.1111111111111 201.77777777777777 L 431.1111111111111 201.77777777777777 L 406.22222222222223 176.88888888888889 L 406.22222222222223 176.88888888888889 L 400 170.66666666666666 L 400 170.66666666666666 L 391.1111111111111 170.66666666666666 L 362.6666666666667 170.66666666666666 L 362.6666666666667 192 L 362.6666666666667 192 L 362.6666666666667 208 L 362.6666666666667 208 L 362.6666666666667 212.44444444444446 L 362.6666666666667 212.44444444444446 L 364.44444444444446 216 L 364.44444444444446 216 Q 369.77777777777777 228.44444444444446 369.77777777777777 243.55555555555554 Q 368.8888888888889 275.55555555555554 347.55555555555554 296 L 341.3333333333333 302.22222222222223 L 341.3333333333333 302.22222222222223 L 341.3333333333333 311.1111111111111 L 341.3333333333333 311.1111111111111 L 341.3333333333333 440.8888888888889 L 341.3333333333333 440.8888888888889 L 298.6666666666667 440.8888888888889 L 298.6666666666667 440.8888888888889 L 298.6666666666667 336 L 298.6666666666667 336 L 298.6666666666667 319.1111111111111 L 298.6666666666667 319.1111111111111 L 281.77777777777777 315.55555555555554 L 281.77777777777777 315.55555555555554 Q 279.1111111111111 314.6666666666667 276.44444444444446 313.77777777777777 L 198.22222222222223 290.6666666666667 L 198.22222222222223 290.6666666666667 L 169.77777777777777 282.6666666666667 L 169.77777777777777 282.6666666666667 L 170.66666666666666 312 L 170.66666666666666 312 Q 170.66666666666666 312.8888888888889 170.66666666666666 312.8888888888889 Q 170.66666666666666 323.55555555555554 167.11111111111111 334.22222222222223 L 152.88888888888889 371.55555555555554 L 152.88888888888889 371.55555555555554 L 150.22222222222223 377.77777777777777 L 150.22222222222223 377.77777777777777 L 152 384.8888888888889 L 152 384.8888888888889 L 168 440.8888888888889 L 168 440.8888888888889 L 123.55555555555556 440.8888888888889 L 123.55555555555556 440.8888888888889 L 107.55555555555556 382.22222222222223 L 107.55555555555556 382.22222222222223 L 105.77777777777777 376 L 105.77777777777777 376 L 108.44444444444444 369.77777777777777 L 108.44444444444444 369.77777777777777 L 126.22222222222223 320.8888888888889 L 126.22222222222223 320.8888888888889 L 128.88888888888889 312.8888888888889 L 128.88888888888889 312.8888888888889 L 126.22222222222223 305.77777777777777 L 126.22222222222223 305.77777777777777 L 104 248.88888888888889 L 104 248.88888888888889 Q 99.55555555555556 239.11111111111111 99.55555555555556 227.55555555555554 Q 100.44444444444444 203.55555555555554 115.55555555555556 188.44444444444446 Q 104.88888888888889 169.77777777777777 97.77777777777777 147.55555555555554 L 97.77777777777777 147.55555555555554 Z M 412.44444444444446 128 Q 425.77777777777777 127.11111111111111 426.6666666666667 113.77777777777777 Q 425.77777777777777 100.44444444444444 412.44444444444446 99.55555555555556 Q 399.1111111111111 100.44444444444444 398.22222222222223 113.77777777777777 Q 399.1111111111111 127.11111111111111 412.44444444444446 128 L 412.44444444444446 128 Z" />
</svg>