<svg xmlns="http://www.w3.org/2000/svg" viewBox="0 0 512 512">
  <path d="M 0 144 L 0 192 L 0 144 L 0 192 L 512 192 L 512 192 L 512 144 L 512 144 L 256 0 L 256 0 L 0 144 L 0 144 Z M 128 224 L 64 224 L 128 224 L 64 224 L 64 416 L 64 416 L 0 464 L 0 464 L 0 512 L 0 512 L 512 512 L 512 512 L 512 464 L 512 464 L 448 416 L 448 416 L 448 224 L 448 224 L 384 224 L 384 224 L 384 416 L 384 416 L 344 416 L 344 416 L 344 224 L 344 224 L 280 224 L 280 224 L 280 416 L 280 416 L 232 416 L 232 416 L 232 224 L 232 224 L 168 224 L 168 224 L 168 416 L 168 416 L 128 416 L 128 416 L 128 224 L 128 224 Z" />
</svg>