<svg xmlns="http://www.w3.org/2000/svg" viewBox="0 0 512 512">
  <path d="M 0 256 Q 1 331 39 391 L 56 286 L 56 286 L 56 282 L 56 282 L 59 279 L 59 279 L 175 127 L 175 127 L 87 64 L 87 64 Q 47 99 24 149 Q 0 198 0 256 L 0 256 Z M 143 486 L 154 371 L 143 486 L 154 371 L 155 367 L 155 367 L 157 363 L 157 363 L 238 254 L 238 254 L 194 155 L 194 155 L 87 295 L 87 295 L 65 427 L 65 427 Q 98 464 143 486 L 143 486 Z M 174 499 Q 213 512 256 512 Q 330 511 389 475 Q 449 438 482 377 L 382 414 L 382 414 L 378 416 L 378 416 L 374 415 L 374 415 L 185 391 L 185 391 L 174 499 L 174 499 Z M 499 336 Q 512 298 512 256 Q 512 247 511 239 L 407 287 L 407 287 L 403 288 L 403 288 L 398 288 L 398 288 L 263 273 L 263 273 L 199 360 L 199 360 L 375 383 L 375 383 L 499 336 L 499 336 Z M 375 253 L 307 90 L 375 253 L 307 90 L 204 5 L 204 5 Q 154 16 114 43 L 207 110 L 207 110 L 211 113 L 211 113 L 213 117 L 213 117 L 267 241 L 267 241 L 375 253 L 375 253 Z M 507 206 Q 488 116 419 59 L 419 59 L 419 59 Q 351 2 256 0 Q 252 0 248 0 L 330 68 L 330 68 L 333 70 L 333 70 L 335 74 L 335 74 L 408 251 L 408 251 L 507 206 L 507 206 Z" />
</svg>