<svg xmlns="http://www.w3.org/2000/svg" viewBox="0 0 512 512">
  <path d="M 256 56.88889 Q 235.85185 56.88889 216.88889 60.444443 L 216.88889 2.3703704 L 216.88889 2.3703704 Q 235.85185 0 256 0 Q 356.74075 1.1851852 426.66666 65.18519 L 482.37036 9.481482 L 482.37036 9.481482 L 501.33334 28.444445 L 501.33334 28.444445 L 501.33334 180.14815 L 501.33334 180.14815 L 349.62964 180.14815 L 349.62964 180.14815 L 330.66666 161.18518 L 330.66666 161.18518 L 386.37036 105.48148 L 386.37036 105.48148 Q 333.03705 58.074074 256 56.88889 L 256 56.88889 Z M 0 256 Q 2.3703704 155.25926 65.18519 85.333336 L 8.296296 28.444445 L 8.296296 28.444445 L 27.25926 9.481482 L 27.25926 9.481482 L 178.96297 9.481482 L 178.96297 9.481482 L 178.96297 161.18518 L 178.96297 161.18518 L 160 180.14815 L 160 180.14815 L 105.48148 125.62963 L 105.48148 125.62963 Q 58.074074 178.96297 56.88889 256 Q 56.88889 274.96295 60.444443 293.92593 L 3.5555556 293.92593 L 3.5555556 293.92593 Q 0 274.96295 0 256 L 0 256 Z M 84.14815 445.62964 L 27.25926 502.51852 L 84.14815 445.62964 L 27.25926 502.51852 L 8.296296 483.55554 L 8.296296 483.55554 L 8.296296 331.85184 L 8.296296 331.85184 L 160 331.85184 L 160 331.85184 L 178.96297 350.81482 L 178.96297 350.81482 L 124.44444 405.33334 L 124.44444 405.33334 Q 178.96297 452.74075 256 455.1111 Q 274.96295 453.92593 292.74075 451.55554 L 292.74075 508.44446 L 292.74075 508.44446 Q 274.96295 510.81482 256 512 Q 155.25926 509.62964 84.14815 445.62964 L 84.14815 445.62964 Z M 349.62964 331.85184 L 405.33334 387.55554 L 349.62964 331.85184 L 405.33334 387.55554 Q 453.92593 333.03705 455.1111 256 Q 455.1111 235.85185 451.55554 218.07408 L 509.62964 218.07408 L 509.62964 218.07408 Q 512 235.85185 512 256 Q 509.62964 356.74075 445.62964 427.85184 L 501.33334 483.55554 L 501.33334 483.55554 L 482.37036 502.51852 L 482.37036 502.51852 L 330.66666 502.51852 L 330.66666 502.51852 L 330.66666 350.81482 L 330.66666 350.81482 L 349.62964 331.85184 L 349.62964 331.85184 Z" />
</svg>