<svg xmlns="http://www.w3.org/2000/svg" viewBox="0 0 512 512">
  <path d="M 54.857142857142854 54.857142857142854 L 54.857142857142854 457.14285714285717 L 54.857142857142854 54.857142857142854 L 54.857142857142854 457.14285714285717 L 457.14285714285717 457.14285714285717 L 457.14285714285717 457.14285714285717 L 457.14285714285717 54.857142857142854 L 457.14285714285717 54.857142857142854 L 54.857142857142854 54.857142857142854 L 54.857142857142854 54.857142857142854 Z M 0 0 L 54.857142857142854 0 L 0 0 L 512 0 L 512 54.857142857142854 L 512 54.857142857142854 L 512 457.14285714285717 L 512 457.14285714285717 L 512 512 L 512 512 L 457.14285714285717 512 L 0 512 L 0 457.14285714285717 L 0 457.14285714285717 L 0 54.857142857142854 L 0 54.857142857142854 L 0 0 L 0 0 Z M 329.14285714285717 109.71428571428571 L 384 109.71428571428571 L 329.14285714285717 109.71428571428571 L 384 109.71428571428571 L 384 137.14285714285714 L 384 137.14285714285714 L 384 374.85714285714283 L 384 374.85714285714283 L 384 402.2857142857143 L 384 402.2857142857143 L 344 402.2857142857143 L 344 402.2857142857143 L 336 393.14285714285717 L 336 393.14285714285717 L 182.85714285714286 212.57142857142858 L 182.85714285714286 212.57142857142858 L 182.85714285714286 374.85714285714283 L 182.85714285714286 374.85714285714283 L 182.85714285714286 402.2857142857143 L 182.85714285714286 402.2857142857143 L 128 402.2857142857143 L 128 402.2857142857143 L 128 374.85714285714283 L 128 374.85714285714283 L 128 137.14285714285714 L 128 137.14285714285714 L 128 109.71428571428571 L 128 109.71428571428571 L 168 109.71428571428571 L 168 109.71428571428571 L 176 120 L 176 120 L 329.14285714285717 300.57142857142856 L 329.14285714285717 300.57142857142856 L 329.14285714285717 137.14285714285714 L 329.14285714285717 137.14285714285714 L 329.14285714285717 109.71428571428571 L 329.14285714285717 109.71428571428571 Z" />
</svg>