<svg xmlns="http://www.w3.org/2000/svg" viewBox="0 0 513 513">
    <path d="M 384 306 L 384 433 L 224 513 L 224 371 Q 224 337 200 313 Q 176 290 142 289 L 0 289 L 80 129 L 207 129 Q 252 59 307 31 Q 362 2 414 1 Q 466 0 503 10 Q 513 47 512 99 Q 511 151 482 206 Q 454 261 384 306 L 384 306 Z M 424 129 Q 423 106 404 94 Q 384 84 364 94 Q 345 106 344 129 Q 345 152 364 164 Q 384 174 404 164 Q 423 152 424 129 L 424 129 Z M 167 471 Q 140 495 101 504 L 101 504 Q 63 512 33 513 L 33 513 Q 2 513 1 513 Q 0 511 0 480 Q 1 450 9 412 Q 18 373 42 347 Q 69 321 104 321 Q 139 321 167 347 Q 192 374 192 409 Q 192 444 167 471 L 167 471 Z M 120 435 Q 128 426 128 414 L 128 414 Q 128 402 120 393 Q 111 385 99 385 Q 87 385 78 393 Q 67 407 65 427 Q 64 446 65 448 Q 67 449 86 448 Q 106 446 120 435 L 120 435 Z"/>
</svg>
