<svg xmlns="http://www.w3.org/2000/svg" viewBox="0 0 512 512">
  <path d="M 40 1.7142857 L 36.57143 0.5714286 L 40 1.7142857 L 36.57143 0.5714286 L 36.57143 78.28571 L 36.57143 78.28571 L 330.2857 182.28572 L 330.2857 182.28572 L 36.57143 286.2857 L 36.57143 286.2857 L 36.57143 364 L 36.57143 364 L 40 362.85715 L 40 362.85715 L 451.42856 216.57143 L 451.42856 216.57143 L 475.42856 208.57143 L 475.42856 208.57143 L 475.42856 156 L 475.42856 156 L 451.42856 148 L 451.42856 148 L 40 1.7142857 L 40 1.7142857 Z M 475.42856 438.2857 L 36.57143 438.2857 L 475.42856 438.2857 L 0 438.2857 L 0 511.42856 L 0 511.42856 L 36.57143 511.42856 L 512 511.42856 L 512 438.2857 L 512 438.2857 L 475.42856 438.2857 L 475.42856 438.2857 Z" />
</svg>