<svg xmlns="http://www.w3.org/2000/svg" viewBox="0 0 512 512">
  <path d="M 355.3359 170.99614 L 504.58688 21.745174 L 355.3359 170.99614 L 504.58688 21.745174 L 482.8417 0 L 482.8417 0 L 333.59073 149.25096 L 333.59073 149.25096 L 287.13513 102.795364 L 287.13513 102.795364 L 264.40155 80.061775 L 264.40155 80.061775 L 241.66795 102.795364 L 241.66795 102.795364 L 3.4594595 341.00388 L 3.4594595 341.00388 Q 2.4710424 366.7027 7.4131274 391.41312 Q 10.378378 408.21622 18.285715 426.99612 Q 26.19305 446.76447 42.00772 462.57916 Q 57.822395 478.39383 77.59074 486.30115 Q 96.37066 494.2085 113.173744 497.17374 Q 137.88417 502.11584 163.58301 501.1274 L 401.7915 262.9189 L 401.7915 262.9189 L 424.5251 240.18533 L 424.5251 240.18533 L 401.7915 217.45174 L 401.7915 217.45174 L 355.3359 170.99614 L 355.3359 170.99614 Z M 64.74131 440.83398 L 64.74131 439.84555 L 64.74131 440.83398 L 64.74131 439.84555 L 63.752895 439.84555 L 63.752895 439.84555 Q 42.99614 417.11197 38.054054 385.48264 Q 35.088802 370.65637 35.088802 353.85327 L 193.23552 195.70656 L 193.23552 195.70656 L 193.23552 295.53668 L 193.23552 295.53668 L 193.23552 311.35135 L 193.23552 311.35135 L 209.05019 311.35135 L 308.8803 311.35135 L 150.7336 469.49808 L 150.7336 469.49808 Q 133.9305 469.49808 119.10425 466.5328 Q 87.47491 461.59073 64.74131 440.83398 L 64.74131 440.83398 Z M 224.86487 279.72202 L 224.86487 164.07722 L 224.86487 279.72202 L 224.86487 164.07722 L 264.40155 124.54054 L 264.40155 124.54054 L 380.04633 240.18533 L 380.04633 240.18533 L 340.50964 279.72202 L 340.50964 279.72202 L 224.86487 279.72202 L 224.86487 279.72202 Z M 383.0116 422.05405 Q 384 395.3668 406.73358 380.54053 Q 430.4556 368.67953 454.1776 380.54053 Q 476.9112 395.3668 477.89963 422.05405 Q 476.9112 448.7413 454.1776 463.56757 Q 430.4556 475.42856 406.73358 463.56757 Q 384 448.7413 383.0116 422.05405 L 383.0116 422.05405 Z M 509.52896 422.05405 Q 508.54053 377.5753 469.99228 353.85327 Q 430.4556 332.1081 390.9189 353.85327 Q 352.37067 377.5753 351.38223 422.05405 Q 352.37067 466.5328 390.9189 490.25482 Q 430.4556 512 469.99228 490.25482 Q 508.54053 466.5328 509.52896 422.05405 L 509.52896 422.05405 Z" />
</svg>