<svg xmlns="http://www.w3.org/2000/svg" viewBox="0 0 640 512">
    <path d="M 336 16 L 336 0 L 304 0 L 304 16 L 304 89 L 267 53 L 256 41 L 233 64 L 245 75 L 304 135 L 304 228 L 223 182 L 201 101 L 197 85 L 166 93 L 170 109 L 184 159 L 113 118 L 97 146 L 168 187 L 118 200 L 102 204 L 110 235 L 126 231 L 207 209 L 288 256 L 207 303 L 126 281 L 110 277 L 102 308 L 118 312 L 168 325 L 123 351 L 137 380 L 184 353 L 170 403 L 166 419 L 197 427 L 201 412 L 223 331 L 304 284 L 304 377 L 245 437 L 233 448 L 256 471 L 267 459 L 304 423 L 304 496 L 304 512 L 336 512 L 336 496 L 336 423 L 373 459 L 384 471 L 407 448 L 395 437 L 336 377 L 336 284 L 417 331 L 439 412 L 443 427 L 474 419 L 470 403 L 456 353 L 503 380 L 518 352 L 472 326 L 522 312 L 538 308 L 530 277 L 514 281 L 433 303 L 352 256 L 433 209 L 514 231 L 530 235 L 538 204 L 522 200 L 472 187 L 543 146 L 527 118 L 456 159 L 470 109 L 474 93 L 443 85 L 439 101 L 417 182 L 336 228 L 336 135 L 395 75 L 407 64 L 384 41 L 373 53 L 336 89 L 336 16 L 336 16 Z M 576 385 L 604 433 Q 608 441 608 449 Q 608 462 599 471 Q 590 480 577 480 L 575 480 Q 562 480 553 471 Q 544 462 544 449 Q 544 441 548 433 L 576 385 L 576 385 Z M 558 352 L 520 418 Q 512 432 512 449 Q 513 476 531 494 Q 548 511 575 512 L 577 512 Q 604 511 622 494 Q 639 476 640 449 Q 640 432 632 417 L 595 352 L 576 320 L 558 352 L 558 352 Z M 36 433 L 64 385 L 92 433 Q 96 441 96 449 Q 96 462 87 471 Q 78 480 65 480 L 63 480 Q 50 480 41 471 Q 32 462 32 449 Q 32 441 36 433 L 36 433 Z M 8 417 Q 0 432 0 449 Q 1 476 19 493 Q 36 511 63 512 L 65 512 Q 92 511 109 493 Q 127 476 128 449 Q 128 432 120 417 L 82 352 L 64 320 L 46 352 L 8 417 L 8 417 Z"/>
</svg>
