<svg xmlns="http://www.w3.org/2000/svg" viewBox="0 0 512 512">
  <path d="M 102.4 51.2 L 102.4 70.4 L 102.4 51.2 L 102.4 70.4 L 102.4 102.4 L 102.4 102.4 L 140.8 102.4 L 140.8 102.4 L 140.8 70.4 L 140.8 70.4 L 140.8 51.2 L 140.8 51.2 L 179.2 51.2 L 179.2 51.2 L 179.2 70.4 L 179.2 70.4 L 179.2 102.4 L 179.2 102.4 L 179.2 121.6 L 179.2 121.6 L 179.2 128 L 179.2 128 L 179.2 140.8 L 179.2 140.8 L 140.8 140.8 L 38.4 140.8 L 38.4 422.4 L 38.4 422.4 L 179.2 422.4 L 179.2 422.4 L 179.2 460.8 L 179.2 460.8 L 19.2 460.8 L 0 460.8 L 0 441.6 L 0 441.6 L 0 121.6 L 0 121.6 L 0 102.4 L 0 102.4 L 19.2 102.4 L 64 102.4 L 64 70.4 L 64 70.4 L 64 51.2 L 64 51.2 L 102.4 51.2 L 102.4 51.2 Z M 409.6 140.8 L 409.6 179.2 L 409.6 140.8 L 409.6 179.2 L 448 179.2 L 512 179.2 L 512 217.6 L 512 217.6 L 512 422.4 L 512 422.4 L 512 460.8 L 512 460.8 L 473.6 460.8 L 204.8 460.8 L 204.8 422.4 L 204.8 422.4 L 204.8 179.2 L 204.8 179.2 L 204.8 89.6 L 204.8 89.6 L 204.8 51.2 L 204.8 51.2 L 243.2 51.2 L 409.6 51.2 L 409.6 89.6 L 409.6 89.6 L 409.6 140.8 L 409.6 140.8 Z M 371.2 89.6 L 243.2 89.6 L 371.2 89.6 L 243.2 89.6 L 243.2 179.2 L 243.2 179.2 L 243.2 422.4 L 243.2 422.4 L 409.6 422.4 L 473.6 422.4 L 473.6 217.6 L 473.6 217.6 L 409.6 217.6 L 371.2 217.6 L 371.2 179.2 L 371.2 179.2 L 371.2 89.6 L 371.2 89.6 Z M 281.6 332.8 L 281.6 281.6 L 281.6 332.8 L 281.6 281.6 L 332.8 281.6 L 332.8 281.6 L 332.8 332.8 L 332.8 332.8 L 281.6 332.8 L 281.6 332.8 Z M 332.8 128 L 332.8 179.2 L 332.8 128 L 332.8 179.2 L 281.6 179.2 L 281.6 179.2 L 281.6 128 L 281.6 128 L 332.8 128 L 332.8 128 Z M 281.6 256 L 281.6 204.8 L 281.6 256 L 281.6 204.8 L 332.8 204.8 L 332.8 204.8 L 332.8 256 L 332.8 256 L 281.6 256 L 281.6 256 Z M 435.2 332.8 L 435.2 384 L 435.2 332.8 L 435.2 384 L 384 384 L 384 384 L 384 332.8 L 384 332.8 L 435.2 332.8 L 435.2 332.8 Z M 76.8 307.2 L 76.8 256 L 76.8 307.2 L 76.8 256 L 128 256 L 128 256 L 128 307.2 L 128 307.2 L 76.8 307.2 L 76.8 307.2 Z M 76.8 384 L 76.8 332.8 L 76.8 384 L 76.8 332.8 L 128 332.8 L 128 332.8 L 128 384 L 128 384 L 76.8 384 L 76.8 384 Z M 128 179.2 L 128 230.4 L 128 179.2 L 128 230.4 L 76.8 230.4 L 76.8 230.4 L 76.8 179.2 L 76.8 179.2 L 128 179.2 L 128 179.2 Z M 384 307.2 L 384 256 L 384 307.2 L 384 256 L 435.2 256 L 435.2 256 L 435.2 307.2 L 435.2 307.2 L 384 307.2 L 384 307.2 Z" />
</svg>