<svg xmlns="http://www.w3.org/2000/svg" viewBox="0 0 512 512">
  <path d="M 270 78 Q 338 84 382 103 Q 406 113 419 120 Q 425 124 429 126 Q 429 126 430 126 Q 430 127 431 127 Q 432 128 432 128 L 433 128 L 433 128 L 433 129 L 433 129 L 433 129 L 433 129 L 433 129 L 433 129 L 433 129 L 433 129 Q 434 128 432 130 Q 431 132 425 142 L 433 129 L 433 129 L 463 148 L 463 148 L 429 157 L 429 157 L 389 169 L 389 169 L 399 201 L 399 201 L 410 233 L 410 233 L 378 221 L 378 221 L 256 175 L 256 175 L 134 221 L 134 221 L 102 233 L 102 233 L 113 201 L 113 201 L 124 169 L 124 169 L 83 157 L 83 157 L 50 148 L 50 148 L 79 129 L 79 129 L 88 142 L 88 142 Q 81 132 80 130 Q 78 128 79 129 L 79 129 L 79 129 L 79 129 L 79 129 L 79 129 L 79 129 L 79 129 L 79 129 L 80 128 L 80 128 Q 81 127 83 126 Q 83 126 83 126 Q 87 124 93 121 Q 106 113 130 103 Q 172 85 237 79 Q 232 58 226 45 Q 220 35 216 30 Q 215 27 214 26 Q 213 26 213 26 Q 213 25 213 25 Q 213 25 213 25 L 213 25 L 213 25 L 213 25 L 213 25 L 213 25 L 213 25 L 213 25 L 213 25 L 213 25 L 213 25 Q 212 26 214 24 Q 216 22 224 14 Q 232 6 234 4 Q 236 2 235 3 Q 235 3 235 3 L 235 3 L 235 3 L 235 3 L 235 3 L 235 3 L 235 3 L 236 3 L 236 3 L 236 3 L 236 3 Q 236 4 237 4 Q 237 5 237 5 Q 239 7 242 10 Q 247 17 254 31 Q 264 49 269 78 L 270 78 Z M 240 111 Q 181 116 142 133 Q 140 133 139 134 Q 135 136 131 138 L 148 143 L 148 143 L 165 147 L 165 147 L 159 163 L 159 163 L 154 179 L 154 179 L 250 143 L 250 143 L 256 141 L 256 141 L 262 143 L 262 143 L 358 179 L 358 179 L 353 163 L 353 163 L 348 147 L 348 147 L 364 143 L 364 143 L 382 137 L 382 137 Q 381 137 380 137 Q 376 135 370 133 Q 331 116 272 110 L 272 126 L 272 126 L 240 126 L 240 126 L 240 111 L 240 111 Z M 438 188 L 469 179 L 438 188 L 469 179 Q 511 229 512 302 Q 509 401 437 455 Q 365 509 256 510 Q 147 509 75 455 Q 3 401 0 302 Q 1 229 43 179 L 74 188 L 74 188 L 78 189 L 78 189 Q 33 232 32 302 Q 34 385 95 430 Q 156 477 256 478 Q 356 477 418 430 Q 478 385 480 302 Q 479 232 434 189 L 438 188 L 438 188 Z" />
</svg>