<svg xmlns="http://www.w3.org/2000/svg" viewBox="0 0 512 512">
  <path d="M 85.33333333333333 425.77777777777777 L 85.33333333333333 419.55555555555554 L 85.33333333333333 425.77777777777777 L 85.33333333333333 419.55555555555554 Q 84.44444444444444 395.55555555555554 68.44444444444444 379.55555555555554 Q 52.44444444444444 363.55555555555554 28.444444444444443 362.6666666666667 L 28.444444444444443 411.55555555555554 L 28.444444444444443 411.55555555555554 Q 56.888888888888886 423.1111111111111 85.33333333333333 425.77777777777777 L 85.33333333333333 425.77777777777777 Z M 113.77777777777777 426.6666666666667 Q 176.88888888888889 423.1111111111111 248.88888888888889 402.6666666666667 L 252.44444444444446 401.77777777777777 L 252.44444444444446 401.77777777777777 Q 287.1111111111111 392 323.55555555555554 384.8888888888889 Q 360 377.77777777777777 398.22222222222223 376.8888888888889 Q 399.1111111111111 340.44444444444446 423.1111111111111 316.44444444444446 Q 447.1111111111111 292.44444444444446 483.55555555555554 291.55555555555554 L 483.55555555555554 177.77777777777777 L 483.55555555555554 177.77777777777777 Q 447.1111111111111 176.88888888888889 423.1111111111111 152.88888888888889 Q 399.1111111111111 128.88888888888889 398.22222222222223 92.44444444444444 L 398.22222222222223 85.33333333333333 L 398.22222222222223 85.33333333333333 Q 335.1111111111111 88.88888888888889 263.1111111111111 109.33333333333333 L 259.55555555555554 110.22222222222223 L 259.55555555555554 110.22222222222223 Q 224.88888888888889 120 188.44444444444446 127.11111111111111 Q 152 134.22222222222223 113.77777777777777 135.11111111111111 Q 112.88888888888889 171.55555555555554 88.88888888888889 195.55555555555554 Q 64.88888888888889 219.55555555555554 28.444444444444443 220.44444444444446 L 28.444444444444443 334.22222222222223 L 28.444444444444443 334.22222222222223 Q 64.88888888888889 335.1111111111111 88.88888888888889 359.1111111111111 Q 112.88888888888889 383.1111111111111 113.77777777777777 419.55555555555554 L 113.77777777777777 426.6666666666667 L 113.77777777777777 426.6666666666667 Z M 426.6666666666667 376.8888888888889 L 426.6666666666667 377.77777777777777 L 426.6666666666667 376.8888888888889 L 426.6666666666667 377.77777777777777 Q 455.1111111111111 379.55555555555554 483.55555555555554 387.55555555555554 L 483.55555555555554 320 L 483.55555555555554 320 Q 459.55555555555554 320.8888888888889 443.55555555555554 336.8888888888889 Q 427.55555555555554 352.8888888888889 426.6666666666667 376.8888888888889 L 426.6666666666667 376.8888888888889 Z M 85.33333333333333 135.11111111111111 Q 56.888888888888886 132.44444444444446 28.444444444444443 124.44444444444444 L 28.444444444444443 192 L 28.444444444444443 192 Q 52.44444444444444 191.11111111111111 68.44444444444444 175.11111111111111 Q 84.44444444444444 159.11111111111111 85.33333333333333 135.11111111111111 L 85.33333333333333 135.11111111111111 L 85.33333333333333 135.11111111111111 Z M 426.6666666666667 92.44444444444444 Q 427.55555555555554 116.44444444444444 443.55555555555554 132.44444444444446 L 443.55555555555554 132.44444444444446 L 443.55555555555554 132.44444444444446 Q 459.55555555555554 148.44444444444446 483.55555555555554 149.33333333333334 L 483.55555555555554 100.44444444444444 L 483.55555555555554 100.44444444444444 Q 455.1111111111111 88.88888888888889 426.6666666666667 86.22222222222223 L 426.6666666666667 92.44444444444444 L 426.6666666666667 92.44444444444444 Z M 0 81.77777777777777 Q 14.222222222222221 88.88888888888889 28.444444444444443 94.22222222222223 Q 85.33333333333333 112.88888888888889 142.22222222222223 105.77777777777777 Q 199.11111111111111 97.77777777777777 256 81.77777777777777 Q 320 64 384 57.77777777777778 Q 448 51.55555555555556 512 81.77777777777777 L 512 398.22222222222223 L 512 398.22222222222223 L 512 430.22222222222223 L 512 430.22222222222223 Q 497.77777777777777 423.1111111111111 483.55555555555554 417.77777777777777 Q 426.6666666666667 399.1111111111111 369.77777777777777 406.22222222222223 Q 312.8888888888889 414.22222222222223 256 430.22222222222223 Q 192 448 128 454.22222222222223 Q 64 460.44444444444446 0 430.22222222222223 L 0 113.77777777777777 L 0 113.77777777777777 L 0 81.77777777777777 L 0 81.77777777777777 Z M 199.11111111111111 256 Q 200 288 216.88888888888889 307.55555555555554 L 216.88888888888889 307.55555555555554 L 216.88888888888889 307.55555555555554 Q 233.77777777777777 326.22222222222223 256 327.1111111111111 Q 278.22222222222223 326.22222222222223 295.1111111111111 307.55555555555554 Q 312 288 312.8888888888889 256 Q 312 224 295.1111111111111 204.44444444444446 Q 278.22222222222223 185.77777777777777 256 184.88888888888889 Q 233.77777777777777 185.77777777777777 216.88888888888889 204.44444444444446 Q 200 224 199.11111111111111 256 L 199.11111111111111 256 Z M 256 156.44444444444446 Q 293.3333333333333 157.33333333333334 317.3333333333333 186.66666666666666 L 317.3333333333333 186.66666666666666 L 317.3333333333333 186.66666666666666 Q 340.44444444444446 215.11111111111111 341.3333333333333 256 Q 340.44444444444446 296.8888888888889 317.3333333333333 325.3333333333333 Q 293.3333333333333 354.6666666666667 256 355.55555555555554 Q 218.66666666666666 354.6666666666667 194.66666666666666 325.3333333333333 Q 171.55555555555554 296.8888888888889 170.66666666666666 256 Q 171.55555555555554 215.11111111111111 194.66666666666666 186.66666666666666 Q 218.66666666666666 157.33333333333334 256 156.44444444444446 L 256 156.44444444444446 Z" />
</svg>