<svg viewBox="0 0 559 447">
  <path
    d="M 122 435 L 111 447 L 100 435 L 12 347 L 0 336 L 23 313 L 34 325 L 95 385 L 95 16 L 95 0 L 127 0 L 127 16 L 127 385 L 188 325 L 199 313 L 222 336 L 210 347 L 122 435 L 122 435 Z M 287 16 L 351 16 L 367 16 L 367 48 L 351 48 L 287 48 L 271 48 L 271 16 L 287 16 L 287 16 Z M 287 144 L 415 144 L 431 144 L 431 176 L 415 176 L 287 176 L 271 176 L 271 144 L 287 144 L 287 144 Z M 287 272 L 479 272 L 495 272 L 495 304 L 479 304 L 287 304 L 271 304 L 271 272 L 287 272 L 287 272 Z M 287 400 L 543 400 L 559 400 L 559 432 L 543 432 L 287 432 L 271 432 L 271 400 L 287 400 L 287 400 Z"
  />
</svg>