<svg xmlns="http://www.w3.org/2000/svg" viewBox="0 0 512 512">
  <path d="M 506.410480349345 59.248908296943235 L 479.5807860262009 139.73799126637556 L 506.410480349345 59.248908296943235 L 479.5807860262009 139.73799126637556 Q 512 212.40174672489084 492.9956331877729 286.1834061135371 Q 472.87336244541484 359.9650655021834 416.9781659388646 416.9781659388646 Q 359.9650655021834 472.87336244541484 286.1834061135371 491.87772925764193 Q 212.40174672489084 512 139.73799126637556 479.5807860262009 L 59.248908296943235 506.410480349345 L 59.248908296943235 506.410480349345 L 5.5895196506550215 452.7510917030568 L 5.5895196506550215 452.7510917030568 L 32.419213973799124 372.26200873362444 L 32.419213973799124 372.26200873362444 Q 0 299.5982532751092 19.004366812227076 225.81659388646287 Q 39.12663755458515 152.0349344978166 95.02183406113537 95.02183406113537 Q 152.0349344978166 39.12663755458515 225.81659388646287 19.004366812227076 Q 299.5982532751092 0 372.26200873362444 32.419213973799124 L 452.7510917030568 5.5895196506550215 L 452.7510917030568 5.5895196506550215 L 506.410480349345 59.248908296943235 L 506.410480349345 59.248908296943235 Z M 128.5589519650655 446.04366812227073 L 141.97379912663754 440.4541484716157 L 128.5589519650655 446.04366812227073 L 141.97379912663754 440.4541484716157 L 155.3886462882096 447.16157205240177 L 155.3886462882096 447.16157205240177 Q 213.51965065502182 473.9912663755459 277.2401746724891 457.2227074235808 Q 339.8427947598253 441.5720524017467 391.26637554585153 391.26637554585153 Q 441.5720524017467 339.8427947598253 457.2227074235808 277.2401746724891 Q 473.9912663755459 213.51965065502182 447.16157205240177 155.3886462882096 L 440.4541484716157 141.97379912663754 L 440.4541484716157 141.97379912663754 L 446.04366812227073 128.5589519650655 L 446.04366812227073 128.5589519650655 L 465.0480349344978 69.31004366812228 L 465.0480349344978 69.31004366812228 L 442.68995633187774 46.951965065502186 L 442.68995633187774 46.951965065502186 L 383.4410480349345 67.07423580786026 L 383.4410480349345 67.07423580786026 L 370.0262008733624 71.54585152838428 L 370.0262008733624 71.54585152838428 L 356.6113537117904 64.83842794759825 L 356.6113537117904 64.83842794759825 Q 298.48034934497815 38.00873362445415 234.75982532751092 54.777292576419214 Q 172.15720524017468 70.42794759825327 120.73362445414847 120.73362445414847 Q 70.42794759825327 172.15720524017468 54.777292576419214 234.75982532751092 Q 38.00873362445415 298.48034934497815 64.83842794759825 356.6113537117904 L 71.54585152838428 370.0262008733624 L 71.54585152838428 370.0262008733624 L 65.95633187772926 383.4410480349345 L 65.95633187772926 383.4410480349345 L 46.951965065502186 442.68995633187774 L 46.951965065502186 442.68995633187774 L 69.31004366812228 465.0480349344978 L 69.31004366812228 465.0480349344978 L 128.5589519650655 446.04366812227073 L 128.5589519650655 446.04366812227073 Z M 260.471615720524 129.6768558951965 Q 172.15720524017468 172.15720524017468 129.6768558951965 260.471615720524 L 120.73362445414847 281.7117903930131 L 120.73362445414847 281.7117903930131 L 88.31441048034935 266.06113537117903 L 88.31441048034935 266.06113537117903 L 97.25764192139738 245.93886462882097 L 97.25764192139738 245.93886462882097 Q 145.32751091703057 145.32751091703057 245.93886462882097 97.25764192139738 L 266.06113537117903 87.19650655021834 L 266.06113537117903 87.19650655021834 L 281.7117903930131 120.73362445414847 L 281.7117903930131 120.73362445414847 L 260.471615720524 129.6768558951965 L 260.471615720524 129.6768558951965 Z" />
</svg>