<svg xmlns="http://www.w3.org/2000/svg" viewBox="0 0 512 512">
  <path d="M 486.4 76.8 L 230.4 76.8 L 486.4 76.8 L 230.4 76.8 L 230.4 153.6 L 230.4 153.6 L 204.8 153.6 L 204.8 153.6 L 204.8 76.8 L 204.8 76.8 L 204.8 51.2 L 204.8 51.2 L 230.4 51.2 L 512 51.2 L 512 76.8 L 512 76.8 L 512 435.2 L 512 435.2 L 512 460.8 L 512 460.8 L 486.4 460.8 L 307.2 460.8 L 307.2 435.2 L 307.2 435.2 L 486.4 435.2 L 486.4 435.2 L 486.4 76.8 L 486.4 76.8 Z M 392.8 253.6 L 444 304.8 L 392.8 253.6 L 444 304.8 L 426.4 322.4 L 426.4 322.4 L 396.8 293.6 L 396.8 293.6 L 396.8 396.8 L 396.8 396.8 L 396.8 409.6 L 396.8 409.6 L 371.2 409.6 L 371.2 409.6 L 371.2 396.8 L 371.2 396.8 L 371.2 293.6 L 371.2 293.6 L 341.6 322.4 L 341.6 322.4 L 324 304.8 L 324 304.8 L 375.2 253.6 L 375.2 253.6 L 384 244 L 384 244 L 392.8 253.6 L 392.8 253.6 Z M 281.6 204.8 L 25.6 204.8 L 281.6 204.8 L 25.6 204.8 L 25.6 256 L 25.6 256 L 51.2 256 L 281.6 256 L 281.6 204.8 L 281.6 204.8 Z M 0 281.6 L 0 256 L 0 281.6 L 0 256 L 0 204.8 L 0 204.8 L 0 179.2 L 0 179.2 L 25.6 179.2 L 307.2 179.2 L 307.2 204.8 L 307.2 204.8 L 307.2 256 L 307.2 256 L 307.2 281.6 L 307.2 281.6 L 281.6 281.6 L 281.6 281.6 L 281.6 435.2 L 281.6 435.2 L 281.6 460.8 L 281.6 460.8 L 256 460.8 L 25.6 460.8 L 25.6 435.2 L 25.6 435.2 L 25.6 281.6 L 25.6 281.6 L 0 281.6 L 0 281.6 Z M 51.2 435.2 L 256 435.2 L 51.2 435.2 L 256 435.2 L 256 281.6 L 256 281.6 L 51.2 281.6 L 51.2 281.6 L 51.2 435.2 L 51.2 435.2 Z M 204.8 307.2 L 204.8 332.8 L 204.8 307.2 L 204.8 332.8 L 102.4 332.8 L 102.4 332.8 L 102.4 307.2 L 102.4 307.2 L 204.8 307.2 L 204.8 307.2 Z" />
</svg>