<svg xmlns="http://www.w3.org/2000/svg" viewBox="0 0 445 512">
    <path d="M 114 0 L 133 0 L 381 0 L 405 0 L 405 24 L 405 389 Q 423 396 434 412 Q 445 428 445 448 Q 444 475 426 493 Q 408 511 381 512 Q 354 511 336 493 Q 318 475 317 448 Q 317 428 328 412 Q 339 396 357 389 L 357 224 L 112 224 L 52 485 L 47 509 L 0 498 L 6 475 L 110 19 L 114 0 L 114 0 Z M 123 176 L 357 176 L 357 48 L 152 48 L 123 176 L 123 176 Z M 381 464 Q 396 463 397 448 Q 396 433 381 432 Q 366 433 365 448 Q 366 463 381 464 L 381 464 Z"/>
</svg>
