<svg xmlns="http://www.w3.org/2000/svg" viewBox="0 0 512 512">
  <path d="M 56 0 L 32 0 L 56 0 L 32 0 L 32 48 L 32 48 L 56 48 L 64 48 L 64 197 L 64 197 Q 61 199 58 201 Q 34 221 32 256 Q 33 326 69 369 Q 92 397 121 412 L 96 512 L 96 512 L 416 512 L 416 512 L 391 412 L 391 412 Q 420 397 443 369 Q 479 326 480 256 Q 478 221 454 201 Q 451 199 448 197 L 448 48 L 448 48 L 456 48 L 480 48 L 480 0 L 480 0 L 456 0 L 56 0 Z M 416 256 L 416 256 L 416 256 L 416 256 Q 417 258 412 262 Q 405 268 383 275 Q 336 288 256 288 Q 176 288 129 275 Q 107 268 100 262 Q 95 258 96 256 L 96 256 L 96 256 L 96 256 L 96 256 Q 95 255 100 250 Q 107 244 129 237 Q 176 224 256 224 Q 336 224 383 237 Q 405 244 412 250 Q 417 255 416 256 Q 416 256 416 256 L 416 256 L 416 256 Z M 144 64 L 176 64 L 144 64 L 192 64 L 192 96 L 192 96 L 176 96 L 128 96 L 128 64 L 128 64 L 144 64 L 144 64 Z" />
</svg>