<svg xmlns="http://www.w3.org/2000/svg" viewBox="0 0 512 512">
  <path d="M 104 512 L 80 512 L 104 512 L 80 512 L 80 488 L 80 488 L 80 272 L 80 272 L 64 272 L 64 272 L 64 248 L 64 248 L 64 192 L 64 192 L 64 192 L 64 192 L 64 168 L 64 168 Q 64 168 64 168 Q 64 168 64 168 Q 66 97 113 49 Q 161 2 232 0 L 280 0 L 280 0 Q 351 2 399 49 Q 446 97 448 168 Q 448 168 448 168 Q 448 168 448 168 L 448 168 L 448 168 L 448 256 L 448 256 L 448 296 L 448 296 L 448 320 L 448 320 L 424 320 L 368 320 L 368 336 L 368 336 L 344 336 L 288 336 L 288 344 L 288 344 L 288 368 L 288 368 L 264 368 L 208 368 L 208 488 L 208 488 L 208 512 L 208 512 L 184 512 L 104 512 Z M 400 256 L 400 176 L 400 256 L 400 176 L 368 176 L 368 176 L 368 272 L 368 272 L 400 272 L 400 272 L 400 256 L 400 256 Z M 393 128 Q 380 92 350 71 L 350 71 L 350 71 Q 320 49 280 48 L 232 48 L 232 48 Q 181 49 147 83 Q 113 117 112 168 Q 112 168 112 168 Q 112 168 112 168 L 112 192 L 112 192 L 112 192 L 112 192 L 112 224 L 112 224 L 184 224 L 240 224 L 240 192 L 240 192 L 184 192 L 160 192 L 160 144 L 160 144 L 184 144 L 320 144 L 320 128 L 320 128 L 344 128 L 393 128 Z M 160 272 L 128 272 L 160 272 L 128 272 L 128 464 L 128 464 L 160 464 L 160 464 L 160 368 L 160 368 L 160 344 L 160 344 L 160 272 L 160 272 Z M 240 272 L 208 272 L 240 272 L 208 272 L 208 320 L 208 320 L 240 320 L 240 320 L 240 312 L 240 312 L 240 272 L 240 272 Z M 288 288 L 320 288 L 288 288 L 320 288 L 320 192 L 320 192 L 288 192 L 288 192 L 288 248 L 288 248 L 288 288 L 288 288 Z" />
</svg>