<svg xmlns="http://www.w3.org/2000/svg" viewBox="0 0 512 512">
  <path d="M 26.25641 60.71795 L 16.410257 52.51282 L 26.25641 60.71795 L 16.410257 52.51282 L 0 73.02564 L 0 73.02564 L 10.666667 81.23077 L 10.666667 81.23077 L 485.7436 451.28204 L 485.7436 451.28204 L 495.58975 459.48718 L 495.58975 459.48718 L 512 438.97437 L 512 438.97437 L 502.15384 430.76923 L 502.15384 430.76923 L 26.25641 60.71795 L 26.25641 60.71795 Z M 403.69232 439.79486 L 370.8718 413.53845 L 403.69232 439.79486 L 370.8718 413.53845 L 98.46154 413.53845 L 98.46154 413.53845 L 98.46154 198.5641 L 98.46154 198.5641 L 72.20513 178.05128 L 72.20513 178.05128 L 72.20513 413.53845 L 72.20513 413.53845 L 72.20513 439.79486 L 72.20513 439.79486 L 98.46154 439.79486 L 403.69232 439.79486 Z M 108.30769 72.20513 L 141.1282 98.46154 L 108.30769 72.20513 L 141.1282 98.46154 L 413.53845 98.46154 L 413.53845 98.46154 L 413.53845 313.43588 L 413.53845 313.43588 L 439.79486 333.94873 L 439.79486 333.94873 L 439.79486 98.46154 L 439.79486 98.46154 L 439.79486 72.20513 L 439.79486 72.20513 L 413.53845 72.20513 L 108.30769 72.20513 Z M 190.35898 270.76923 L 190.35898 282.2564 L 190.35898 270.76923 L 190.35898 282.2564 L 190.35898 308.51282 L 190.35898 308.51282 L 190.35898 347.89743 L 190.35898 347.89743 L 190.35898 361.02563 L 190.35898 361.02563 L 216.61539 361.02563 L 216.61539 361.02563 L 216.61539 347.89743 L 216.61539 347.89743 L 216.61539 334.76923 L 216.61539 334.76923 L 216.61539 308.51282 L 216.61539 308.51282 L 216.61539 292.10257 L 216.61539 292.10257 L 190.35898 270.76923 L 190.35898 270.76923 Z M 352.82053 265.02563 Q 361.02563 249.4359 361.02563 229.74359 Q 360.20514 196.10257 338.05127 173.94872 Q 315.89743 151.79488 282.2564 150.97437 L 210.05128 150.97437 L 210.05128 150.97437 Q 209.23077 150.97437 207.58974 150.97437 L 241.23077 177.23077 L 241.23077 177.23077 L 282.2564 177.23077 L 282.2564 177.23077 Q 304.41025 178.05128 319.17947 192.82051 Q 333.94873 207.58974 334.76923 229.74359 Q 334.76923 239.58974 331.48718 248.61539 L 352.82053 265.02563 L 352.82053 265.02563 Z" />
</svg>