<svg xmlns="http://www.w3.org/2000/svg" viewBox="0 0 512 512">
  <path d="M 243.2 102.4 L 230.4 102.4 L 243.2 102.4 L 230.4 102.4 L 230.4 128 L 230.4 128 L 243.2 128 L 281.6 128 L 352 232.8 L 352 232.8 L 300.8 300.8 L 300.8 300.8 L 283.2 300.8 L 283.2 300.8 L 22.4 237.6 L 22.4 237.6 L 9.6 234.4 L 9.6 234.4 L 4 259.2 L 4 259.2 L 16 262.4 L 16 262.4 L 36.8 267.2 L 36.8 267.2 Q 20 277.6 10.4 294.4 Q 0 312 0 332.8 Q 0.8 365.6 22.4 387.2 Q 44 408.8 76.8 409.6 Q 98.4 409.6 116 398.4 Q 116 399.2 116 399.2 Q 115.2 399.2 115.2 399.2 Q 132 409.6 153.6 409.6 Q 186.4 408.8 208 387.2 Q 229.6 365.6 230.4 332.8 Q 230.4 323.2 228 313.6 L 278.4 325.6 L 278.4 325.6 L 280 326.4 L 280 326.4 L 281.6 326.4 L 313.6 326.4 L 317.6 321.6 L 317.6 321.6 L 367.2 255.2 L 367.2 255.2 L 382.4 277.6 L 382.4 277.6 Q 359.2 299.2 358.4 332.8 Q 359.2 365.6 380.8 387.2 Q 402.4 408.8 435.2 409.6 Q 468 408.8 489.6 387.2 Q 511.2 365.6 512 332.8 Q 511.2 300 489.6 278.4 Q 468 256.8 435.2 256 Q 418.4 256 403.2 263.2 L 298.4 108 L 298.4 108 L 295.2 102.4 L 295.2 102.4 L 288 102.4 L 243.2 102.4 Z M 384 332.8 Q 384.8 312.8 396.8 299.2 L 424.8 340 L 424.8 340 L 432 350.4 L 432 350.4 L 452.8 336 L 452.8 336 L 445.6 325.6 L 445.6 325.6 L 418.4 284.8 L 418.4 284.8 Q 426.4 281.6 435.2 281.6 Q 456.8 282.4 471.2 296.8 Q 485.6 311.2 486.4 332.8 Q 485.6 354.4 471.2 368.8 Q 456.8 383.2 435.2 384 Q 413.6 383.2 399.2 368.8 Q 384.8 354.4 384 332.8 L 384 332.8 Z M 197.6 306.4 Q 204.8 318.4 204.8 332.8 Q 204 354.4 189.6 368.8 Q 175.2 383.2 153.6 384 Q 144.8 384 136.8 380.8 L 136.8 380.8 L 136.8 380.8 Q 152.8 360.8 153.6 332.8 Q 153.6 310.4 142.4 292.8 L 197.6 306.4 L 197.6 306.4 Z M 50.4 136 L 45.6 124 L 50.4 136 L 45.6 124 L 21.6 133.6 L 21.6 133.6 L 26.4 145.6 L 26.4 145.6 L 52 209.6 L 52 209.6 L 54.4 215.2 L 54.4 215.2 L 60.8 216.8 L 60.8 216.8 L 150.4 243.2 L 150.4 243.2 L 162.4 247.2 L 162.4 247.2 L 169.6 222.4 L 169.6 222.4 L 157.6 219.2 L 157.6 219.2 L 73.6 194.4 L 73.6 194.4 L 50.4 136 L 50.4 136 Z M 76.8 384 Q 76.8 384 76.8 384 L 76.8 384 L 76.8 384 Q 76.8 384 76.8 384 Q 75.2 384 74.4 384 Q 53.6 382.4 40 368 Q 26.4 353.6 25.6 332.8 Q 26.4 311.2 40 296.8 Q 54.4 282.4 75.2 281.6 Q 75.2 281.6 76 281.6 Q 76 281.6 76.8 281.6 Q 76.8 281.6 76.8 281.6 Q 76.8 281.6 76.8 281.6 Q 76.8 281.6 76.8 281.6 Q 76.8 281.6 76.8 281.6 Q 98.4 282.4 112.8 296.8 Q 127.2 311.2 128 332.8 Q 127.2 354.4 112.8 368.8 Q 98.4 383.2 76.8 384 L 76.8 384 Z" />
</svg>