<svg xmlns="http://www.w3.org/2000/svg" viewBox="0 0 512 512">
  <path d="M 359.5235 162.90909 Q 360.32602 207.84953 390.82132 237.54231 L 390.82132 237.54231 L 390.82132 237.54231 Q 420.5141 268.03763 465.45456 268.84012 Q 490.33228 268.84012 512 258.40753 Q 494.34482 280.87775 467.86206 293.71786 Q 442.18182 307.3605 410.884 307.3605 Q 406.06897 307.3605 401.2539 307.3605 Q 387.6113 295.32288 370.7586 288.90283 Q 364.33856 256 341.06583 233.52979 Q 317.7931 211.05956 284.8903 206.2445 Q 282.48276 192.60188 282.48276 178.95924 Q 284.08777 124.38872 320.20062 88.27586 Q 356.31348 52.16301 410.884 50.557995 Q 433.35422 50.557995 453.41693 57.780563 Q 412.489 63.39812 386.80878 92.2884 Q 360.32602 121.17868 359.5235 162.90909 L 359.5235 162.90909 Z M 307.3605 307.3605 Q 307.3605 291.31033 296.1254 280.07523 L 296.1254 280.07523 L 296.1254 280.07523 Q 285.69278 269.64264 268.84012 268.84012 Q 252.78996 269.64264 241.55486 280.07523 Q 231.12225 291.31033 230.31975 307.3605 L 230.31975 313.78058 L 230.31975 313.78058 L 190.99687 313.78058 L 190.99687 313.78058 Q 185.3793 296.1254 166.11913 294.5204 Q 155.68652 294.5204 148.46394 301.74295 Q 141.24138 308.9655 140.43887 320.20062 L 140.43887 352.30093 L 140.43887 352.30093 L 140.43887 371.56113 L 140.43887 371.56113 L 121.17868 371.56113 L 115.56113 371.56113 Q 104.32602 371.56113 97.10345 378.7837 Q 89.880875 386.00626 89.880875 397.2414 L 89.880875 422.92163 L 89.880875 422.92163 L 115.56113 422.92163 L 140.43887 422.92163 L 140.43887 422.92163 L 140.43887 422.92163 L 211.05956 422.92163 L 211.05956 422.92163 L 211.05956 422.92163 L 211.05956 422.92163 L 321.00314 422.92163 L 321.00314 422.92163 L 321.00314 422.92163 L 321.00314 422.92163 L 345.8809 422.92163 L 372.36365 422.92163 L 372.36365 384.40125 L 372.36365 384.40125 Q 371.56113 368.3511 361.12854 357.116 Q 349.8934 346.68338 333.84326 345.8809 L 326.6207 345.8809 L 307.3605 345.8809 L 307.3605 326.6207 L 307.3605 326.6207 L 307.3605 307.3605 L 307.3605 307.3605 Z M 101.918495 461.44202 L 101.918495 461.44202 L 101.918495 461.44202 L 101.918495 461.44202 L 70.62069 461.44202 L 51.3605 461.44202 L 51.3605 442.18182 L 51.3605 442.18182 L 51.3605 397.2414 L 51.3605 397.2414 Q 51.3605 373.96866 65.80564 356.31348 Q 80.250786 339.46082 101.918495 334.64578 L 101.918495 320.20062 L 101.918495 320.20062 Q 102.721 292.91537 121.17868 274.45767 Q 138.83386 256.80252 166.11913 256 Q 186.98433 256 203.03448 267.2351 Q 213.46709 250.38245 230.31975 240.75235 Q 247.97491 230.31975 268.84012 230.31975 Q 301.74295 231.12225 323.41064 252.78996 Q 345.07837 274.45767 345.8809 307.3605 L 345.8809 308.163 L 345.8809 308.163 Q 373.96866 313.78058 392.42633 333.84326 Q 410.0815 354.70847 410.884 384.40125 L 410.884 442.18182 L 410.884 442.18182 L 410.884 461.44202 L 410.884 461.44202 L 391.6238 461.44202 L 371.56113 461.44202 L 371.56113 461.44202 L 371.56113 461.44202 L 345.8809 461.44202 L 211.05956 461.44202 L 211.05956 461.44202 L 211.05956 461.44202 L 121.17868 461.44202 L 101.918495 461.44202 Z M 186.98433 191.79938 L 162.10658 191.79938 L 186.98433 191.79938 L 162.10658 191.79938 L 151.67398 168.52664 L 151.67398 168.52664 Q 145.25392 154.0815 128.40126 153.27899 Q 108.338554 154.88402 103.52351 174.1442 L 97.10345 204.6395 L 97.10345 204.6395 L 65.80564 204.6395 L 57.780563 204.6395 Q 40.125393 206.2445 38.520374 223.89969 L 38.520374 243.15988 L 38.520374 243.15988 L 57.780563 243.15988 L 96.30094 243.15988 L 96.30094 243.15988 L 96.30094 243.15988 L 120.376175 243.15988 L 120.376175 243.15988 Q 97.90595 257.605 85.86834 281.68024 L 57.780563 281.68024 L 57.780563 281.68024 L 57.780563 281.68024 L 57.780563 281.68024 L 38.520374 281.68024 L 0 281.68024 L 0 243.15988 L 0 243.15988 L 0 223.89969 L 0 223.89969 Q 0.8025078 199.02194 16.852665 182.97179 Q 32.90282 166.92163 57.780563 166.11913 L 65.80564 166.11913 L 65.80564 166.11913 Q 70.62069 143.6489 87.47335 129.20377 Q 104.32602 115.56113 128.40126 114.75862 Q 148.46394 114.75862 163.7116 125.19122 Q 179.76175 136.42633 186.98433 153.27899 L 205.442 153.27899 L 205.442 153.27899 Q 227.10971 154.0815 241.55486 168.52664 Q 256 182.97179 256.80252 204.6395 L 256.80252 205.442 L 256.80252 205.442 Q 235.9373 207.84953 218.28214 218.28214 L 218.28214 204.6395 L 218.28214 204.6395 Q 217.47963 192.60188 205.442 191.79938 L 186.98433 191.79938 L 186.98433 191.79938 Z" />
</svg>