<svg xmlns="http://www.w3.org/2000/svg" viewBox="0 0 512 512">
  <path d="M 280 355 L 302 368 L 280 355 L 302 368 L 319 350 L 319 350 L 360 310 L 360 310 L 476 356 L 476 356 L 453 480 L 453 480 L 448 480 L 448 480 Q 332 479 238 423 Q 144 368 89 274 Q 33 180 32 64 L 32 59 L 32 59 L 156 36 L 156 36 L 203 152 L 203 152 L 162 193 L 162 193 L 145 210 L 145 210 L 157 232 L 157 232 Q 202 310 281 355 L 280 355 Z M 512 336 L 352 272 L 512 336 L 352 272 L 296 328 L 296 328 Q 226 286 184 216 L 240 160 L 240 160 L 176 0 L 176 0 L 0 32 L 0 32 L 0 64 L 0 64 Q 1 189 61 290 Q 121 391 222 451 Q 323 511 448 512 L 480 512 L 480 512 L 512 336 L 512 336 Z M 256 32 Q 319 33 369 63 L 369 63 L 369 63 Q 420 92 449 143 L 449 143 L 449 143 Q 479 193 480 256 L 512 256 L 512 256 Q 511 184 477 127 Q 443 69 385 35 Q 328 1 256 0 L 256 32 L 256 32 Z M 288 256 Q 302 256 311 247 L 311 247 L 311 247 Q 320 238 320 224 Q 320 210 311 201 Q 302 192 288 192 Q 274 192 265 201 Q 256 210 256 224 Q 256 238 265 247 Q 274 256 288 256 L 288 256 Z M 384 256 L 416 256 L 384 256 L 416 256 Q 414 188 369 143 Q 324 98 256 96 L 256 128 L 256 128 Q 310 129 347 165 Q 383 202 384 256 L 384 256 Z" />
</svg>