<svg xmlns="http://www.w3.org/2000/svg" viewBox="0 0 512 512">
  <path d="M 441.6 460.8 L 422.4 460.8 L 441.6 460.8 L 422.4 460.8 L 373.6 422.4 L 373.6 422.4 L 332.8 422.4 L 332.8 422.4 L 332.8 390.4 L 332.8 390.4 L 264.8 336.8 L 264.8 336.8 Q 242.4 345.6 217.6 345.6 Q 163.2 344 127.2 308 Q 91.2 272 89.6 217.6 Q 89.6 208.8 91.2 200 L 57.6 172.8 L 57.6 172.8 Q 51.2 194.4 51.2 217.6 Q 51.2 253.6 64.8 284 Q 78.4 314.4 102.4 337.6 L 102.4 441.6 L 102.4 441.6 L 102.4 460.8 L 102.4 460.8 L 121.6 460.8 L 441.6 460.8 L 441.6 460.8 L 441.6 460.8 Z M 456.8 388 Q 460.8 380 460.8 371.2 Q 460 355.2 449.6 344 Q 438.4 333.6 422.4 332.8 Q 408 332.8 397.6 341.6 L 356 309.6 L 356 309.6 Q 383.2 269.6 384 217.6 Q 382.4 147.2 335.2 100 Q 288 52.8 217.6 51.2 Q 180.8 51.2 148.8 66.4 Q 117.6 80.8 94.4 106.4 L 38.4 63.2 L 38.4 63.2 L 23.2 51.2 L 23.2 51.2 L 0 81.6 L 0 81.6 L 15.2 93.6 L 15.2 93.6 L 473.6 448.8 L 473.6 448.8 L 488.8 460.8 L 488.8 460.8 L 512 430.4 L 512 430.4 L 496.8 418.4 L 496.8 418.4 L 456.8 388 L 456.8 388 Z M 124.8 129.6 Q 160.8 91.2 217.6 89.6 Q 272 91.2 308 127.2 Q 344 163.2 345.6 217.6 Q 344.8 256 325.6 285.6 L 284.8 254.4 L 284.8 254.4 Q 294.4 237.6 294.4 217.6 Q 293.6 184.8 272 163.2 Q 250.4 141.6 217.6 140.8 Q 186.4 141.6 165.6 161.6 L 124.8 129.6 L 124.8 129.6 Z M 253.6 230.4 L 196.8 185.6 L 253.6 230.4 L 196.8 185.6 Q 205.6 179.2 217.6 179.2 Q 233.6 180 244.8 190.4 Q 255.2 201.6 256 217.6 Q 256 224 253.6 230.4 L 253.6 230.4 Z M 268.8 422.4 L 140.8 422.4 L 268.8 422.4 L 140.8 422.4 L 140.8 365.6 L 140.8 365.6 Q 176 384 217.6 384 Q 259.2 383.2 294.4 365.6 L 294.4 422.4 L 294.4 422.4 L 268.8 422.4 L 268.8 422.4 Z" />
</svg>