<svg xmlns="http://www.w3.org/2000/svg" viewBox="0 0 512 512">
  <path d="M 42.666668 128 L 42.666668 384 L 42.666668 128 L 42.666668 384 L 469.33334 384 L 469.33334 384 L 469.33334 128 L 469.33334 128 L 42.666668 128 L 42.666668 128 Z M 0 85.333336 L 42.666668 85.333336 L 0 85.333336 L 512 85.333336 L 512 128 L 512 128 L 512 384 L 512 384 L 512 426.66666 L 512 426.66666 L 469.33334 426.66666 L 0 426.66666 L 0 384 L 0 384 L 0 128 L 0 128 L 0 85.333336 L 0 85.333336 Z M 256 213.33333 L 256 256 L 256 213.33333 L 256 256 L 85.333336 256 L 85.333336 256 L 85.333336 213.33333 L 85.333336 213.33333 L 256 213.33333 L 256 213.33333 Z M 426.66666 298.66666 L 426.66666 341.33334 L 426.66666 298.66666 L 426.66666 341.33334 L 85.333336 341.33334 L 85.333336 341.33334 L 85.333336 298.66666 L 85.333336 298.66666 L 426.66666 298.66666 L 426.66666 298.66666 Z M 426.66666 170.66667 L 426.66666 256 L 426.66666 170.66667 L 426.66666 256 L 312.8889 256 L 312.8889 256 L 312.8889 170.66667 L 312.8889 170.66667 L 426.66666 170.66667 L 426.66666 170.66667 Z" />
</svg>