<svg xmlns="http://www.w3.org/2000/svg" viewBox="0 0 512 512">
  <path d="M 256 48 Q 313 48 360 76 L 360 76 L 360 76 Q 407 103 436 152 Q 464 201 464 256 Q 464 311 436 360 Q 407 409 360 436 Q 313 464 256 464 Q 199 464 152 436 Q 105 409 76 360 Q 48 311 48 256 Q 48 201 76 152 Q 105 103 152 76 Q 199 48 256 48 L 256 48 Z M 256 512 Q 326 511 384 478 L 384 478 L 384 478 Q 442 444 478 384 Q 512 323 512 256 Q 512 189 478 128 Q 442 68 384 34 Q 326 1 256 0 Q 186 1 128 34 Q 70 68 34 128 Q 0 189 0 256 Q 0 323 34 384 Q 70 444 128 478 Q 186 511 256 512 L 256 512 Z M 410 152 L 360 152 L 410 152 L 360 152 L 319 294 L 319 294 L 279 169 L 279 169 L 274 152 L 274 152 L 239 152 L 239 152 L 233 169 L 233 169 L 193 294 L 193 294 L 153 152 L 153 152 L 103 152 L 103 152 L 169 383 L 169 383 L 174 400 L 174 400 L 210 400 L 210 400 L 215 383 L 215 383 L 256 255 L 256 255 L 297 383 L 297 383 L 302 400 L 302 400 L 338 400 L 338 400 L 343 383 L 343 383 L 410 152 L 410 152 Z" />
</svg>