<svg xmlns="http://www.w3.org/2000/svg" viewBox="0 0 484 512">
    <path d="M 50 126 L 242 52 L 434 126 Q 435 159 428 204 Q 420 248 400 295 Q 379 344 341 388 Q 302 431 242 460 Q 182 431 143 388 Q 105 344 84 295 Q 64 248 57 204 Q 49 159 50 126 L 50 126 Z M 482 113 L 480 93 L 461 85 L 254 5 L 242 0 L 230 5 L 23 85 L 4 93 L 3 113 Q 0 151 8 204 Q 16 257 40 314 Q 64 371 110 422 Q 156 474 229 507 L 242 512 L 255 507 Q 328 474 374 422 Q 420 371 444 314 Q 468 257 476 204 Q 484 151 481 113 L 482 113 Z M 340 192 L 306 158 L 289 175 L 242 222 L 195 175 L 178 158 L 144 192 L 161 209 L 208 256 L 161 303 L 144 320 L 178 354 L 195 337 L 242 290 L 289 337 L 306 354 L 340 320 L 323 303 L 276 256 L 323 209 L 340 192 L 340 192 Z"/>
</svg>
