<svg xmlns="http://www.w3.org/2000/svg" viewBox="0 0 512 512">
  <path d="M 73.14286 0 Q 42.285713 1.1428572 21.714285 21.714285 L 21.714285 21.714285 L 21.714285 21.714285 Q 1.1428572 42.285713 0 73.14286 Q 2.2857144 115.42857 36.57143 136 L 36.57143 376 L 36.57143 376 Q 2.2857144 396.57144 0 438.85715 Q 1.1428572 469.7143 21.714285 490.2857 Q 42.285713 510.85715 73.14286 512 Q 115.42857 509.7143 136 475.42856 L 376 475.42856 L 376 475.42856 Q 396.57144 509.7143 438.85715 512 Q 469.7143 510.85715 490.2857 490.2857 Q 510.85715 469.7143 512 438.85715 Q 510.85715 408 490.2857 387.42856 Q 469.7143 366.85715 438.85715 365.7143 L 434.2857 356.57144 L 434.2857 356.57144 L 397.7143 292.57144 L 397.7143 292.57144 L 395.42856 288 L 395.42856 288 Q 402.2857 273.14285 402.2857 256 Q 402.2857 238.85715 395.42856 224 L 397.7143 219.42857 L 397.7143 219.42857 L 434.2857 155.42857 L 434.2857 155.42857 L 438.85715 146.28572 L 438.85715 146.28572 Q 469.7143 145.14285 490.2857 124.57143 Q 510.85715 104 512 73.14286 Q 510.85715 42.285713 490.2857 21.714285 Q 469.7143 1.1428572 438.85715 0 Q 396.57144 2.2857144 376 36.57143 L 136 36.57143 L 136 36.57143 Q 115.42857 2.2857144 73.14286 0 L 73.14286 0 Z M 333.7143 182.85715 Q 331.42856 182.85715 329.14285 182.85715 Q 298.2857 184 277.7143 204.57143 Q 257.14285 225.14285 256 256 Q 257.14285 286.85715 277.7143 307.42856 Q 298.2857 328 329.14285 329.14285 Q 331.42856 329.14285 333.7143 329.14285 L 333.7143 329.14285 L 333.7143 329.14285 L 370.2857 393.14285 L 370.2857 393.14285 L 376 402.2857 L 376 402.2857 L 376 402.2857 L 376 402.2857 L 136 402.2857 L 136 402.2857 Q 126.85714 385.14285 109.71429 376 L 109.71429 136 L 109.71429 136 Q 126.85714 126.85714 136 109.71429 L 376 109.71429 L 376 109.71429 L 376 109.71429 L 376 109.71429 L 370.2857 118.85714 L 370.2857 118.85714 L 333.7143 182.85715 L 333.7143 182.85715 L 333.7143 182.85715 L 333.7143 182.85715 Z" />
</svg>