<svg xmlns="http://www.w3.org/2000/svg" viewBox="0 0 512 512">
  <path d="M 431.78336 105.96519 L 399.1025 112.897484 L 431.78336 105.96519 L 399.1025 112.897484 L 406.03482 80.21664 L 406.03482 80.21664 L 447.62863 43.574467 L 447.62863 43.574467 L 468.42554 64.371376 L 468.42554 64.371376 L 431.78336 105.96519 L 431.78336 105.96519 Z M 448.61896 0 L 377.31528 63.381046 L 448.61896 0 L 377.31528 63.381046 L 363.45068 126.76209 L 363.45068 126.76209 L 327.79883 162.41393 L 327.79883 162.41393 Q 288.1857 129.73308 244.61122 126.76209 Q 201.03674 123.7911 171.32689 152.51064 Q 153.50096 170.33656 147.55899 195.09477 Q 144.58801 208.95938 133.6944 218.86267 Q 122.80077 227.77563 108.93617 229.75629 Q 66.35203 231.73694 35.651836 260.45648 Q 0 299.0793 5.9419727 353.5474 Q 11.883945 409.0058 56.448742 455.55127 Q 102.994194 501.10638 158.4526 506.058 Q 212.9207 512 251.54352 476.34818 Q 280.26306 445.64798 282.2437 403.06384 Q 283.23404 389.19922 293.13733 378.3056 Q 303.04062 367.412 316.9052 364.441 Q 341.66345 358.49902 359.48935 340.67313 Q 388.2089 310.96326 385.2379 267.3888 Q 382.26694 223.81432 350.57642 184.20116 L 386.22824 148.54932 L 386.22824 148.54932 L 448.61896 134.68472 L 448.61896 134.68472 L 512 63.381046 L 512 63.381046 L 448.61896 0 L 448.61896 0 Z M 193.11412 175.28821 Q 210.94003 157.46228 241.64023 158.4526 L 241.64023 158.4526 L 241.64023 158.4526 Q 272.34042 159.44295 305.02127 184.20116 L 231.73694 258.47583 L 231.73694 258.47583 Q 221.83365 253.52419 210.94003 253.52419 Q 191.13347 253.52419 177.26886 267.3888 Q 164.39458 281.2534 163.40425 301.05997 Q 164.39458 320.86655 177.26886 334.73114 Q 191.13347 347.6054 210.94003 348.59573 Q 230.74661 347.6054 244.61122 334.73114 Q 258.47583 320.86655 258.47583 301.05997 Q 258.47583 290.16635 253.52419 280.26306 L 327.79883 206.97873 L 327.79883 206.97873 Q 352.55707 239.65958 353.5474 270.35977 Q 354.53772 301.05997 337.70212 318.8859 Q 325.81818 329.7795 309.97293 333.7408 Q 286.20502 338.69244 269.36945 357.5087 Q 252.53384 375.33463 251.54352 402.0735 Q 249.56287 433.76404 229.75629 453.5706 Q 204.00774 478.32883 161.4236 474.3675 Q 118.839455 471.3965 79.2263 433.76404 Q 40.60348 393.16055 37.632496 350.57642 Q 33.67118 307.99225 58.4294 282.2437 Q 78.23598 262.43713 109.9265 261.4468 Q 136.66537 259.46616 154.4913 242.63055 Q 173.30754 225.79497 178.25919 202.02708 Q 182.2205 186.18182 193.11412 175.28821 L 193.11412 175.28821 Z M 195.09477 301.05997 Q 196.08511 286.20502 210.94003 285.2147 Q 225.79497 286.20502 226.7853 301.05997 Q 225.79497 315.9149 210.94003 316.9052 Q 196.08511 315.9149 195.09477 301.05997 L 195.09477 301.05997 Z" />
</svg>