<svg xmlns="http://www.w3.org/2000/svg" viewBox="0 0 512 512">
  <path d="M 395.0172 92.143974 L 408.6385 78.52269 L 395.0172 92.143974 L 408.6385 78.52269 L 381.39594 51.280125 L 381.39594 51.280125 L 367.77466 64.901405 L 367.77466 64.901405 L 263.6119 169.06416 L 263.6119 169.06416 Q 262.81064 159.44914 260.4069 149.83412 L 262.81064 147.43036 L 262.81064 147.43036 L 314.09076 96.15024 L 314.09076 96.15024 L 327.71204 82.52895 L 327.71204 82.52895 L 300.46948 55.286385 L 300.46948 55.286385 L 286.8482 68.90767 L 286.8482 68.90767 L 241.97809 114.57903 L 241.97809 114.57903 Q 239.57434 112.17527 237.97183 109.771515 Q 236.36932 108.169014 234.76683 106.56651 L 233.96558 105.76526 L 233.96558 105.76526 L 210.72926 82.52895 L 210.72926 82.52895 L 184.28795 108.97027 L 184.28795 108.97027 L 183.4867 109.771515 L 183.4867 109.771515 L 183.4867 109.771515 L 183.4867 109.771515 Q 163.4554 131.40532 159.44914 158.64789 L 146.6291 146.6291 L 146.6291 146.6291 L 122.59155 169.86542 L 122.59155 169.86542 Q 98.55399 192.30048 94.54773 222.74805 L 82.52895 210.72926 L 82.52895 210.72926 L 58.491394 233.16432 L 58.491394 233.16432 Q 31.248827 260.4069 30.447575 297.26447 Q 29.646322 333.3208 56.88889 362.1659 L 64.10016 368.5759 L 64.10016 368.5759 L 64.10016 368.5759 L 64.10016 368.5759 L 13.621284 419.05478 L 13.621284 419.05478 L 0 432.67606 L 0 432.67606 L 27.242567 459.9186 L 27.242567 459.9186 L 40.86385 446.29733 L 40.86385 446.29733 L 91.34272 395.81848 L 91.34272 395.81848 L 97.75274 403.02972 L 97.75274 403.02972 Q 126.59781 430.2723 162.65414 429.47104 Q 199.51173 428.6698 226.7543 401.42722 L 249.18936 377.38968 L 249.18936 377.38968 L 241.97809 370.1784 L 241.97809 370.1784 Q 249.99062 367.77466 257.20187 364.56964 Q 255.59938 354.95462 255.59938 345.3396 Q 255.59938 329.31454 258.80438 314.89203 L 253.19562 321.30203 L 253.19562 321.30203 Q 241.17683 332.51956 225.95305 333.3208 Q 209.92801 333.3208 197.90924 322.10327 L 182.68544 306.8795 L 182.68544 306.8795 Q 201.11424 295.66196 221.9468 297.26447 Q 242.77934 298.86697 259.60562 313.28952 Q 265.2144 288.4507 278.8357 267.61816 Q 268.4194 265.2144 260.4069 257.20187 L 246.7856 243.5806 L 246.7856 243.5806 Q 274.8294 227.55556 304.47574 238.77309 Q 326.10956 220.34428 352.55087 211.53052 L 391.01096 173.07042 L 391.01096 173.07042 L 404.63223 159.44914 L 404.63223 159.44914 L 377.38968 132.20657 L 377.38968 132.20657 L 363.7684 145.82785 L 363.7684 145.82785 L 312.48825 197.10799 L 312.48825 197.10799 L 310.0845 199.51173 L 310.0845 199.51173 Q 300.46948 197.10799 290.85446 196.30673 L 395.0172 92.143974 L 395.0172 92.143974 Z M 84.131454 334.9233 Q 69.70892 319.69952 68.90767 299.66824 L 68.90767 299.66824 L 68.90767 299.66824 Q 68.90767 279.63693 82.52895 263.6119 Q 96.951485 280.43817 98.55399 301.27072 Q 100.95775 322.10327 89.74022 340.53207 L 84.131454 334.9233 L 84.131454 334.9233 Z M 196.30673 377.38968 Q 180.2817 391.01096 160.2504 391.01096 L 160.2504 391.01096 L 160.2504 391.01096 Q 140.21909 391.01096 124.99531 375.78717 L 119.38654 370.1784 L 119.38654 370.1784 Q 137.81534 358.96088 158.64789 361.36462 Q 179.48044 362.96713 196.30673 377.38968 L 196.30673 377.38968 Z M 147.43036 271.62442 Q 132.20657 255.59938 132.20657 235.56807 L 132.20657 235.56807 L 132.20657 235.56807 Q 132.20657 215.53677 145.82785 200.31299 Q 161.05164 216.33803 162.65414 237.97183 Q 164.25665 258.80438 153.03912 277.2332 L 147.43036 271.62442 L 147.43036 271.62442 Z M 210.72926 137.01408 Q 224.35054 153.84038 225.95305 174.67293 L 225.95305 174.67293 L 225.95305 174.67293 Q 226.7543 194.70422 216.33803 213.13303 L 211.53052 208.32552 L 211.53052 208.32552 Q 197.10799 193.10172 196.30673 173.07042 Q 196.30673 153.03912 210.72926 137.01408 L 210.72926 137.01408 Z M 396.61972 460.71988 Q 427.86853 460.71988 454.30984 445.4961 L 454.30984 445.4961 L 454.30984 445.4961 Q 480.75116 430.2723 496.7762 403.02972 Q 512 375.78717 512 345.3396 Q 512 314.89203 496.7762 287.64944 Q 480.75116 260.4069 454.30984 245.1831 Q 427.86853 229.9593 396.61972 229.9593 Q 365.37088 229.9593 338.92957 245.1831 Q 312.48825 260.4069 296.46323 287.64944 Q 281.23944 314.89203 281.23944 345.3396 Q 281.23944 375.78717 296.46323 403.02972 Q 312.48825 430.2723 338.92957 445.4961 Q 365.37088 460.71988 396.61972 460.71988 L 396.61972 460.71988 Z M 409.43976 409.43976 L 383.79968 409.43976 L 409.43976 409.43976 L 383.79968 409.43976 L 383.79968 383.79968 L 383.79968 383.79968 L 409.43976 383.79968 L 409.43976 383.79968 L 409.43976 409.43976 L 409.43976 409.43976 Z M 409.43976 268.4194 L 409.43976 281.23944 L 409.43976 268.4194 L 409.43976 281.23944 L 409.43976 345.3396 L 409.43976 345.3396 L 409.43976 358.15964 L 409.43976 358.15964 L 383.79968 358.15964 L 383.79968 358.15964 L 383.79968 345.3396 L 383.79968 345.3396 L 383.79968 281.23944 L 383.79968 281.23944 L 383.79968 268.4194 L 383.79968 268.4194 L 409.43976 268.4194 L 409.43976 268.4194 Z" />
</svg>