<svg viewBox="0 0 381 512">
  <path
    d="M 189 96 Q 216 95 231 72 Q 243 48 231 24 Q 216 1 189 0 Q 162 1 147 24 Q 135 48 147 72 Q 162 95 189 96 L 189 96 Z M 98 128 L 84 128 L 77 140 L 0 276 L 42 300 L 93 210 L 93 488 L 93 512 L 141 512 L 141 488 L 141 352 L 173 352 L 173 488 L 173 512 L 221 512 L 221 488 L 221 214 L 283 288 L 298 306 L 335 275 L 319 257 L 218 137 L 211 128 L 200 128 L 98 128 L 98 128 Z M 173 176 L 173 304 L 141 304 L 141 176 L 173 176 L 173 176 Z M 325 368 Q 332 369 333 376 L 333 488 L 333 512 L 381 512 L 381 488 L 381 376 Q 380 352 365 336 Q 349 321 325 320 Q 301 321 285 336 Q 270 352 269 376 L 269 384 L 269 408 L 317 408 L 317 384 L 317 376 Q 318 369 325 368 L 325 368 Z"
  />
</svg>