<svg xmlns="http://www.w3.org/2000/svg" viewBox="0 0 512 512">
  <path d="M 224 0 L 288 0 L 224 0 L 288 0 L 288 32 L 288 32 L 448 32 L 448 32 L 512 96 L 512 96 L 448 160 L 448 160 L 32 160 L 32 160 L 32 32 L 32 32 L 224 32 L 224 32 L 224 0 L 224 0 Z M 224 224 L 224 192 L 224 224 L 224 192 L 288 192 L 288 192 L 288 224 L 288 224 L 480 224 L 480 224 L 480 352 L 480 352 L 64 352 L 64 352 L 0 288 L 0 288 L 64 224 L 64 224 L 224 224 L 224 224 Z M 288 384 L 288 512 L 288 384 L 288 512 L 224 512 L 224 512 L 224 384 L 224 384 L 288 384 L 288 384 Z" />
</svg>