<svg xmlns="http://www.w3.org/2000/svg" viewBox="0 0 512 512">
  <path d="M 84.8 76.8 L 102.4 76.8 L 84.8 76.8 L 319.2 76.8 L 327.2 86.4 L 327.2 86.4 L 421.6 204.8 L 421.6 204.8 L 512 204.8 L 512 204.8 L 512 371.2 L 512 371.2 L 460 371.2 L 460 371.2 Q 454.4 399.2 433.6 416.8 Q 412.8 434.4 384 435.2 Q 355.2 434.4 334.4 416.8 Q 313.6 399.2 308 371.2 L 204 371.2 L 204 371.2 Q 198.4 399.2 177.6 416.8 Q 156.8 434.4 128 435.2 Q 99.2 434.4 78.4 416.8 Q 57.6 399.2 52 371.2 L 0 371.2 L 0 371.2 L 0 204.8 L 0 204.8 L 33.6 204.8 L 33.6 204.8 L 78.4 92.8 L 78.4 92.8 L 84.8 76.8 L 84.8 76.8 Z M 348 371.2 Q 355.2 392 376.8 396.8 Q 398.4 400 413.6 384 Q 427.2 366.4 420 345.6 Q 412.8 324.8 391.2 320 Q 369.6 316.8 354.4 332.8 Q 340.8 350.4 348 371.2 L 348 371.2 Z M 166.4 358.4 Q 165.6 336.8 147.2 324.8 Q 128 315.2 108.8 324.8 Q 90.4 336.8 89.6 358.4 Q 90.4 380 108.8 392 Q 128 401.6 147.2 392 Q 165.6 380 166.4 358.4 L 166.4 358.4 Z M 88.8 204.8 L 179.2 204.8 L 88.8 204.8 L 179.2 204.8 L 179.2 128 L 179.2 128 L 120 128 L 120 128 L 88.8 204.8 L 88.8 204.8 Z M 217.6 204.8 L 356 204.8 L 217.6 204.8 L 356 204.8 L 295.2 128 L 295.2 128 L 217.6 128 L 217.6 128 L 217.6 204.8 L 217.6 204.8 Z" />
</svg>