<svg xmlns="http://www.w3.org/2000/svg" viewBox="0 0 512 512">
  <path d="M 96 352 L 256 512 L 96 352 L 256 512 L 416 352 L 416 352 L 416 320 L 416 320 L 320 320 L 320 320 L 320 160 L 320 160 L 192 160 L 192 160 L 192 320 L 192 320 L 96 320 L 96 320 L 96 352 L 96 352 Z M 96 160 L 96 64 L 96 160 L 96 64 L 416 64 L 416 64 L 416 160 L 416 160 L 416 192 L 416 192 L 480 192 L 480 192 L 480 160 L 480 160 L 480 32 L 480 32 L 480 0 L 480 0 L 448 0 L 32 0 L 32 32 L 32 32 L 32 160 L 32 160 L 32 192 L 32 192 L 96 192 L 96 192 L 96 160 L 96 160 Z" />
</svg>