<svg xmlns="http://www.w3.org/2000/svg" viewBox="0 0 512 512">
  <path d="M 277.2998430141287 63.09576138147567 L 261.2244897959184 51.0392464678179 L 277.2998430141287 63.09576138147567 L 261.2244897959184 51.0392464678179 L 249.1679748822606 67.91836734693878 L 249.1679748822606 67.91836734693878 L 10.448979591836734 410.32339089481945 L 10.448979591836734 410.32339089481945 L 0 424.7912087912088 L 0 424.7912087912088 L 13.664050235478808 436.04395604395603 L 13.664050235478808 436.04395604395603 L 31.346938775510203 449.70800627943487 L 31.346938775510203 449.70800627943487 L 45.010989010989015 460.9607535321821 L 45.010989010989015 460.9607535321821 L 57.8712715855573 447.2967032967033 L 57.8712715855573 447.2967032967033 L 333.563579277865 133.82731554160125 L 333.563579277865 133.82731554160125 L 347.2276295133438 118.55572998430141 L 347.2276295133438 118.55572998430141 L 331.15227629513345 105.69544740973312 L 331.15227629513345 105.69544740973312 L 277.2998430141287 63.09576138147567 L 277.2998430141287 63.09576138147567 Z M 126.99529042386185 310.65620094191524 L 269.26216640502355 106.49921507064364 L 126.99529042386185 310.65620094191524 L 269.26216640502355 106.49921507064364 L 291.76766091051803 123.37833594976452 L 291.76766091051803 123.37833594976452 L 126.99529042386185 310.65620094191524 L 126.99529042386185 310.65620094191524 Z M 454.1287284144427 109.71428571428571 L 441.2684458398744 94.44270015698586 L 454.1287284144427 109.71428571428571 L 441.2684458398744 94.44270015698586 L 426.8006279434851 108.10675039246468 L 426.8006279434851 108.10675039246468 L 118.15384615384616 403.0894819466248 L 118.15384615384616 403.0894819466248 L 104.48979591836735 415.9497645211931 L 104.48979591836735 415.9497645211931 L 116.54631083202511 429.6138147566719 L 116.54631083202511 429.6138147566719 L 131.01412872841445 445.68916797488225 L 131.01412872841445 445.68916797488225 L 143.0706436420722 460.15698587127156 L 143.0706436420722 460.15698587127156 L 157.53846153846155 448.90423861852435 L 157.53846153846155 448.90423861852435 L 495.92464678178965 189.287284144427 L 495.92464678178965 189.287284144427 L 512 176.4270015698587 L 512 176.4270015698587 L 498.3359497645212 161.15541601255887 L 498.3359497645212 161.15541601255887 L 454.1287284144427 109.71428571428571 L 454.1287284144427 109.71428571428571 Z M 455.7362637362637 170.8006279434851 L 258.0094191522763 323.5164835164835 L 455.7362637362637 170.8006279434851 L 258.0094191522763 323.5164835164835 L 438.85714285714283 150.70643642072213 L 438.85714285714283 150.70643642072213 L 455.7362637362637 170.8006279434851 L 455.7362637362637 170.8006279434851 Z" />
</svg>