<svg xmlns="http://www.w3.org/2000/svg" viewBox="0 0 512 512">
  <path d="M 183.0019801980198 83.13663366336634 Q 184.0158415841584 41.56831683168317 219.5009900990099 20.277227722772277 Q 256 0 292.4990099009901 20.277227722772277 Q 327.9841584158416 41.56831683168317 328.9980198019802 83.13663366336634 Q 327.9841584158416 124.7049504950495 292.4990099009901 145.99603960396038 Q 256 166.27326732673268 219.5009900990099 145.99603960396038 Q 184.0158415841584 124.7049504950495 183.0019801980198 83.13663366336634 L 183.0019801980198 83.13663366336634 Z M 92.76831683168317 107.46930693069307 L 126.22574257425742 131.8019801980198 L 92.76831683168317 107.46930693069307 L 126.22574257425742 131.8019801980198 L 204.2930693069307 188.57821782178218 L 204.2930693069307 188.57821782178218 L 307.7069306930693 188.57821782178218 L 307.7069306930693 188.57821782178218 L 386.7881188118812 131.8019801980198 L 386.7881188118812 131.8019801980198 L 419.2316831683168 107.46930693069307 L 419.2316831683168 107.46930693069307 L 466.8831683168317 173.37029702970298 L 466.8831683168317 173.37029702970298 L 434.439603960396 196.6891089108911 L 434.439603960396 196.6891089108911 L 353.3306930693069 255.4930693069307 L 353.3306930693069 255.4930693069307 L 353.3306930693069 285.90891089108914 L 353.3306930693069 285.90891089108914 L 316.83168316831683 285.90891089108914 L 158.66930693069307 285.90891089108914 L 158.66930693069307 255.4930693069307 L 158.66930693069307 255.4930693069307 L 78.57425742574257 196.6891089108911 L 78.57425742574257 196.6891089108911 L 45.116831683168314 173.37029702970298 L 45.116831683168314 173.37029702970298 L 92.76831683168317 107.46930693069307 L 92.76831683168317 107.46930693069307 Z M 159.68316831683168 326.46336633663367 L 220.5148514851485 380.1980198019802 L 159.68316831683168 326.46336633663367 L 220.5148514851485 380.1980198019802 L 196.1821782178218 407.5722772277228 L 196.1821782178218 407.5722772277228 L 213.4178217821782 427.84950495049503 L 213.4178217821782 427.84950495049503 L 239.7782178217822 459.2792079207921 L 239.7782178217822 459.2792079207921 L 178.94653465346533 512 L 178.94653465346533 512 L 152.58613861386138 481.58415841584156 L 152.58613861386138 481.58415841584156 L 112.03168316831683 433.9326732673267 L 112.03168316831683 433.9326732673267 L 88.7128712871287 407.5722772277228 L 88.7128712871287 407.5722772277228 L 112.03168316831683 381.2118811881188 L 112.03168316831683 381.2118811881188 L 159.68316831683168 326.46336633663367 L 159.68316831683168 326.46336633663367 Z M 291.48514851485146 380.1980198019802 L 353.3306930693069 326.46336633663367 L 291.48514851485146 380.1980198019802 L 353.3306930693069 326.46336633663367 L 399.9683168316832 381.2118811881188 L 399.9683168316832 381.2118811881188 L 423.28712871287127 407.5722772277228 L 423.28712871287127 407.5722772277228 L 399.9683168316832 433.9326732673267 L 399.9683168316832 433.9326732673267 L 359.4138613861386 480.57029702970294 L 359.4138613861386 480.57029702970294 L 333.05346534653467 512 L 333.05346534653467 512 L 272.22178217821784 459.2792079207921 L 272.22178217821784 459.2792079207921 L 298.58217821782176 427.84950495049503 L 298.58217821782176 427.84950495049503 L 315.8178217821782 407.5722772277228 L 315.8178217821782 407.5722772277228 L 291.48514851485146 380.1980198019802 L 291.48514851485146 380.1980198019802 Z" />
</svg>