<svg viewBox="0 0 320 512">
  <path
    d="M 160 0 L 112 0 L 112 64 L 48 64 L 0 64 L 0 112 L 0 232 L 0 280 L 0 400 L 0 448 L 48 448 L 112 448 L 112 512 L 160 512 L 160 448 L 212 448 Q 258 447 288 416 Q 319 386 320 340 Q 320 308 304 283 Q 288 257 261 244 Q 287 214 288 172 Q 287 126 256 96 Q 226 65 180 64 L 160 64 L 160 0 L 160 0 Z M 112 112 L 112 232 L 48 232 L 48 112 L 112 112 L 112 112 Z M 160 232 L 160 112 L 180 112 Q 205 113 222 130 Q 239 147 240 172 Q 239 197 222 214 Q 205 231 180 232 L 160 232 L 160 232 Z M 112 280 L 112 400 L 48 400 L 48 280 L 112 280 L 112 280 Z M 160 400 L 160 280 L 180 280 L 212 280 Q 237 281 254 298 Q 271 315 272 340 Q 271 365 254 382 Q 237 399 212 400 L 160 400 L 160 400 Z"
  />
</svg>