<svg xmlns="http://www.w3.org/2000/svg" viewBox="0 0 448 512">
    <path d="M 48 48 L 48 112 L 112 112 L 112 48 L 48 48 L 48 48 Z M 0 0 L 48 0 L 112 0 L 160 0 L 160 48 L 160 112 L 160 160 L 112 160 L 104 160 L 104 352 L 112 352 L 160 352 L 160 400 L 160 464 L 160 512 L 112 512 L 48 512 L 0 512 L 0 464 L 0 400 L 0 352 L 48 352 L 56 352 L 56 160 L 48 160 L 0 160 L 0 112 L 0 48 L 0 0 L 0 0 Z M 48 400 L 48 464 L 112 464 L 112 400 L 48 400 L 48 400 Z M 400 400 L 336 400 L 336 464 L 400 464 L 400 400 L 400 400 Z M 336 352 L 400 352 L 448 352 L 448 400 L 448 464 L 448 512 L 400 512 L 336 512 L 288 512 L 288 464 L 288 400 L 288 352 L 336 352 L 336 352 Z M 320 192 L 416 192 L 416 288 L 320 288 L 320 192 L 320 192 Z M 416 32 L 416 128 L 320 128 L 320 32 L 416 32 L 416 32 Z"/>
</svg>
