<svg xmlns="http://www.w3.org/2000/svg" viewBox="0 0 512 512">
  <path d="M 28.444444444444443 113.77777777777777 L 28.444444444444443 398.22222222222223 L 28.444444444444443 113.77777777777777 L 28.444444444444443 398.22222222222223 L 483.55555555555554 398.22222222222223 L 483.55555555555554 398.22222222222223 L 483.55555555555554 113.77777777777777 L 483.55555555555554 113.77777777777777 L 28.444444444444443 113.77777777777777 L 28.444444444444443 113.77777777777777 Z M 0 85.33333333333333 L 28.444444444444443 85.33333333333333 L 0 85.33333333333333 L 512 85.33333333333333 L 512 113.77777777777777 L 512 113.77777777777777 L 512 398.22222222222223 L 512 398.22222222222223 L 512 426.6666666666667 L 512 426.6666666666667 L 483.55555555555554 426.6666666666667 L 0 426.6666666666667 L 0 398.22222222222223 L 0 398.22222222222223 L 0 113.77777777777777 L 0 113.77777777777777 L 0 85.33333333333333 L 0 85.33333333333333 Z M 426.6666666666667 284.44444444444446 L 426.6666666666667 312.8888888888889 L 426.6666666666667 284.44444444444446 L 426.6666666666667 312.8888888888889 L 227.55555555555554 312.8888888888889 L 227.55555555555554 312.8888888888889 L 227.55555555555554 284.44444444444446 L 227.55555555555554 284.44444444444446 L 426.6666666666667 284.44444444444446 L 426.6666666666667 284.44444444444446 Z M 227.55555555555554 199.11111111111111 L 426.6666666666667 199.11111111111111 L 227.55555555555554 199.11111111111111 L 426.6666666666667 199.11111111111111 L 426.6666666666667 227.55555555555554 L 426.6666666666667 227.55555555555554 L 227.55555555555554 227.55555555555554 L 227.55555555555554 227.55555555555554 L 227.55555555555554 199.11111111111111 L 227.55555555555554 199.11111111111111 Z M 142.22222222222223 170.66666666666666 L 142.22222222222223 179.55555555555554 L 142.22222222222223 170.66666666666666 L 142.22222222222223 179.55555555555554 Q 146.66666666666666 179.55555555555554 152.88888888888889 181.33333333333334 Q 160 182.22222222222223 163.55555555555554 184 L 177.77777777777777 187.55555555555554 L 177.77777777777777 187.55555555555554 L 169.77777777777777 215.11111111111111 L 169.77777777777777 215.11111111111111 L 156.44444444444446 210.66666666666666 L 156.44444444444446 210.66666666666666 Q 152.88888888888889 209.77777777777777 146.66666666666666 208.88888888888889 Q 140.44444444444446 208 136.88888888888889 207.11111111111111 Q 119.11111111111111 204.44444444444446 109.33333333333333 209.77777777777777 Q 100.44444444444444 214.22222222222223 99.55555555555556 219.55555555555554 Q 99.55555555555556 224.88888888888889 100.44444444444444 225.77777777777777 Q 101.33333333333333 227.55555555555554 104.88888888888889 230.22222222222223 Q 113.77777777777777 236.44444444444446 132.44444444444446 240.88888888888889 L 133.33333333333334 241.77777777777777 L 133.33333333333334 241.77777777777777 L 133.33333333333334 241.77777777777777 L 133.33333333333334 241.77777777777777 Q 151.11111111111111 245.33333333333334 168 256.8888888888889 Q 176.88888888888889 262.22222222222223 182.22222222222223 272.8888888888889 Q 186.66666666666666 284.44444444444446 184 297.77777777777777 Q 178.66666666666666 320.8888888888889 158.22222222222223 328.8888888888889 Q 151.11111111111111 332.44444444444446 142.22222222222223 333.3333333333333 L 142.22222222222223 341.3333333333333 L 142.22222222222223 341.3333333333333 L 142.22222222222223 355.55555555555554 L 142.22222222222223 355.55555555555554 L 113.77777777777777 355.55555555555554 L 113.77777777777777 355.55555555555554 L 113.77777777777777 341.3333333333333 L 113.77777777777777 341.3333333333333 L 113.77777777777777 332.44444444444446 L 113.77777777777777 332.44444444444446 Q 99.55555555555556 329.77777777777777 86.22222222222223 324.44444444444446 Q 85.33333333333333 324.44444444444446 85.33333333333333 324.44444444444446 L 85.33333333333333 324.44444444444446 L 85.33333333333333 324.44444444444446 L 85.33333333333333 324.44444444444446 L 85.33333333333333 324.44444444444446 L 85.33333333333333 324.44444444444446 L 85.33333333333333 324.44444444444446 Q 82.66666666666667 323.55555555555554 80.88888888888889 322.6666666666667 L 67.55555555555556 318.22222222222223 L 67.55555555555556 318.22222222222223 L 76.44444444444444 291.55555555555554 L 76.44444444444444 291.55555555555554 L 89.77777777777777 296 L 89.77777777777777 296 Q 92.44444444444444 296.8888888888889 95.11111111111111 297.77777777777777 L 95.11111111111111 297.77777777777777 L 95.11111111111111 297.77777777777777 L 95.11111111111111 297.77777777777777 L 95.11111111111111 297.77777777777777 Q 96 297.77777777777777 96 297.77777777777777 Q 109.33333333333333 303.1111111111111 119.11111111111111 304.8888888888889 Q 137.77777777777777 307.55555555555554 146.66666666666666 303.1111111111111 Q 155.55555555555554 299.55555555555554 156.44444444444446 292.44444444444446 Q 156.44444444444446 286.22222222222223 155.55555555555554 284.44444444444446 Q 154.66666666666666 281.77777777777777 151.11111111111111 279.1111111111111 Q 142.22222222222223 273.77777777777777 124.44444444444444 268.44444444444446 L 122.66666666666667 267.55555555555554 L 122.66666666666667 267.55555555555554 L 122.66666666666667 267.55555555555554 L 122.66666666666667 267.55555555555554 Q 121.77777777777777 267.55555555555554 121.77777777777777 267.55555555555554 Q 104.88888888888889 263.1111111111111 88.88888888888889 254.22222222222223 Q 80 248.88888888888889 74.66666666666667 238.22222222222223 Q 69.33333333333333 227.55555555555554 72 214.22222222222223 Q 77.33333333333333 192 97.77777777777777 184 Q 104.88888888888889 180.44444444444446 113.77777777777777 178.66666666666666 L 113.77777777777777 170.66666666666666 L 113.77777777777777 170.66666666666666 L 113.77777777777777 156.44444444444446 L 113.77777777777777 156.44444444444446 L 142.22222222222223 156.44444444444446 L 142.22222222222223 156.44444444444446 L 142.22222222222223 170.66666666666666 L 142.22222222222223 170.66666666666666 Z" />
</svg>