<svg xmlns="http://www.w3.org/2000/svg" viewBox="0 0 512 512">
  <path d="M 71.9859402460457 101.23022847100175 Q 91.78207381370827 99.43057996485061 93.58172231985941 79.63444639718804 Q 91.78207381370827 59.838312829525485 71.9859402460457 58.03866432337434 Q 52.18980667838313 59.838312829525485 50.390158172231985 79.63444639718804 Q 52.18980667838313 99.43057996485061 71.9859402460457 101.23022847100175 L 71.9859402460457 101.23022847100175 Z M 71.9859402460457 29.244288224956062 Q 100.78031634446397 30.144112478031634 115.1775043936731 54.439367311072054 Q 129.57469244288225 79.63444639718804 115.1775043936731 104.82952548330404 Q 100.78031634446397 129.12478031634447 71.9859402460457 130.02460456942003 Q 43.19156414762742 129.12478031634447 28.794376098418276 104.82952548330404 Q 14.397188049209138 79.63444639718804 28.794376098418276 54.439367311072054 Q 43.19156414762742 30.144112478031634 71.9859402460457 29.244288224956062 L 71.9859402460457 29.244288224956062 Z M 350.03163444639716 136.32337434094904 L 356.3304042179262 138.12302284710017 L 350.03163444639716 136.32337434094904 L 356.3304042179262 138.12302284710017 L 435.51493848857643 159.7188049209139 L 435.51493848857643 159.7188049209139 L 443.6133567662566 161.51845342706503 L 443.6133567662566 161.51845342706503 L 445.41300527240776 168.7170474516696 L 445.41300527240776 168.7170474516696 L 473.30755711775043 257.79964850615113 L 473.30755711775043 257.79964850615113 L 512 283.89455184534273 L 512 283.89455184534273 L 495.8031634446397 307.2899824253076 L 495.8031634446397 307.2899824253076 L 452.6115992970123 278.4956063268893 L 452.6115992970123 278.4956063268893 L 448.11247803163445 275.7961335676626 L 448.11247803163445 275.7961335676626 L 447.2126537785589 271.2970123022847 L 447.2126537785589 271.2970123022847 L 433.7152899824253 227.20562390158173 L 433.7152899824253 227.20562390158173 L 398.62214411247805 327.0861159929701 L 398.62214411247805 327.0861159929701 L 441.81370826010544 363.97891036906856 L 441.81370826010544 363.97891036906856 L 444.51318101933214 366.67838312829525 L 444.51318101933214 366.67838312829525 L 445.41300527240776 370.27768014059757 L 445.41300527240776 370.27768014059757 L 474.207381370826 467.45869947275924 L 474.207381370826 467.45869947275924 L 478.7065026362039 480.9560632688928 L 478.7065026362039 480.9560632688928 L 450.81195079086115 489.05448154657296 L 450.81195079086115 489.05448154657296 L 447.2126537785589 475.5571177504394 L 447.2126537785589 475.5571177504394 L 419.31810193321616 382.87521968365553 L 419.31810193321616 382.87521968365553 L 328.4358523725835 304.59050966608083 L 328.4358523725835 304.59050966608083 Q 308.6397188049209 285.69420035149386 315.8383128295255 258.6994727592267 L 341.933216168717 175.91564147627417 L 341.933216168717 175.91564147627417 L 299.6414762741652 204.71001757469244 L 299.6414762741652 204.71001757469244 L 272.6467486818981 265.89806678383127 L 272.6467486818981 265.89806678383127 L 265.4481546572935 281.195079086116 L 265.4481546572935 281.195079086116 L 251.05096660808437 271.2970123022847 L 251.05096660808437 271.2970123022847 L 133.17398945518454 187.6133567662566 L 133.17398945518454 187.6133567662566 L 205.15992970123023 489.9543057996485 L 205.15992970123023 489.9543057996485 L 175.4657293497364 489.9543057996485 L 175.4657293497364 489.9543057996485 L 141.27240773286468 345.9824253075571 L 141.27240773286468 345.9824253075571 L 90.88224956063269 345.9824253075571 L 90.88224956063269 345.9824253075571 L 117.87697715289983 489.9543057996485 L 117.87697715289983 489.9543057996485 L 89.08260105448154 489.9543057996485 L 89.08260105448154 489.9543057996485 L 28.794376098418276 175.91564147627417 L 28.794376098418276 175.91564147627417 L 28.794376098418276 175.01581722319858 L 28.794376098418276 175.01581722319858 L 28.794376098418276 331.585237258348 L 28.794376098418276 331.585237258348 L 28.794376098418276 345.9824253075571 L 28.794376098418276 345.9824253075571 L 0 345.9824253075571 L 0 345.9824253075571 L 0 331.585237258348 L 0 331.585237258348 L 0 158.8189806678383 L 0 158.8189806678383 L 0 144.42179261862918 L 0 144.42179261862918 L 14.397188049209138 144.42179261862918 L 122.37609841827768 144.42179261862918 L 125.97539543057997 147.12126537785588 L 125.97539543057997 147.12126537785588 L 252.8506151142355 238.00351493848856 L 252.8506151142355 238.00351493848856 L 274.4463971880492 189.41300527240773 L 274.4463971880492 189.41300527240773 L 276.24604569420035 184.91388400702988 L 276.24604569420035 184.91388400702988 L 279.84534270650266 183.11423550087872 L 279.84534270650266 183.11423550087872 L 344.6326889279438 139.92267135325133 L 344.6326889279438 139.92267135325133 L 350.03163444639716 136.32337434094904 L 350.03163444639716 136.32337434094904 Z M 373.427065026362 172.3163444639719 L 343.7328646748682 267.6977152899824 L 373.427065026362 172.3163444639719 L 343.7328646748682 267.6977152899824 Q 341.03339191564146 276.69595782073816 347.33216168717047 282.9947275922671 L 375.2267135325132 306.39015817223196 L 375.2267135325132 306.39015817223196 L 417.518453427065 184.0140597539543 L 417.518453427065 184.0140597539543 L 373.427065026362 172.3163444639719 L 373.427065026362 172.3163444639719 Z M 57.58875219683655 173.21616871704745 L 85.48330404217926 317.18804920913885 L 57.58875219683655 173.21616871704745 L 85.48330404217926 317.18804920913885 L 134.97363796133567 317.18804920913885 L 134.97363796133567 317.18804920913885 L 100.78031634446397 176.81546572934974 L 100.78031634446397 176.81546572934974 L 100.78031634446397 173.21616871704745 L 100.78031634446397 173.21616871704745 L 57.58875219683655 173.21616871704745 L 57.58875219683655 173.21616871704745 Z M 431.9156414762742 79.63444639718804 Q 430.11599297012305 59.838312829525485 410.31985940246045 58.03866432337434 Q 390.5237258347979 59.838312829525485 388.72407732864673 79.63444639718804 Q 390.5237258347979 99.43057996485061 410.31985940246045 101.23022847100175 Q 430.11599297012305 99.43057996485061 431.9156414762742 79.63444639718804 L 431.9156414762742 79.63444639718804 Z M 359.9297012302285 79.63444639718804 Q 360.82952548330405 50.840070298769774 385.12478031634447 36.44288224956063 Q 410.31985940246045 22.045694200351495 435.51493848857643 36.44288224956063 Q 459.81019332161685 50.840070298769774 460.7100175746924 79.63444639718804 Q 459.81019332161685 108.42882249560633 435.51493848857643 122.82601054481546 Q 410.31985940246045 137.2231985940246 385.12478031634447 122.82601054481546 Q 360.82952548330405 108.42882249560633 359.9297012302285 79.63444639718804 L 359.9297012302285 79.63444639718804 Z M 325.73637961335675 339.68365553602814 L 348.23198594024603 359.4797891036907 L 325.73637961335675 339.68365553602814 L 348.23198594024603 359.4797891036907 L 314.9384885764499 424.2671353251318 L 314.9384885764499 424.2671353251318 Q 314.03866432337435 426.066783831283 312.2390158172232 427.8664323374341 L 261.8488576449912 478.25659050966607 L 261.8488576449912 478.25659050966607 L 251.95079086115993 489.05448154657296 L 251.95079086115993 489.05448154657296 L 231.2548330404218 468.3585237258348 L 231.2548330404218 468.3585237258348 L 242.05272407732863 458.46045694200353 L 242.05272407732863 458.46045694200353 L 290.6432337434095 409.8699472759227 L 290.6432337434095 409.8699472759227 L 325.73637961335675 339.68365553602814 L 325.73637961335675 339.68365553602814 Z" />
</svg>