<svg viewBox="0 0 588 512">
  <path
    d="M 310 0 L 278 0 L 278 16 L 278 176 L 278 192 L 310 192 L 310 176 L 310 16 L 310 0 L 310 0 Z M 19 122 L 0 147 L 12 157 L 140 253 L 153 262 L 172 237 L 160 227 L 32 131 L 19 122 L 19 122 Z M 588 147 L 569 122 L 556 131 L 428 227 L 416 237 L 435 262 L 448 253 L 576 157 L 588 147 L 588 147 Z M 166 336 L 166 368 L 134 368 L 102 368 L 52 480 L 38 512 L 73 512 L 515 512 L 550 512 L 536 480 L 486 368 L 454 368 L 422 368 L 422 368 L 422 336 L 422 320 L 422 288 L 390 288 L 198 288 L 166 288 L 166 320 L 166 336 L 166 336 Z M 390 368 L 198 368 L 198 320 L 390 320 L 390 368 L 390 368 Z M 198 400 L 390 400 L 422 400 L 422 400 L 465 400 L 501 480 L 87 480 L 123 400 L 166 400 L 166 400 L 198 400 L 198 400 Z"
  />
</svg>