<svg xmlns="http://www.w3.org/2000/svg" viewBox="0 0 512 512">
  <path d="M 480 256 Q 479 195 450 144 L 450 144 L 450 144 Q 420 93 368 62 Q 315 32 256 32 Q 197 32 144 62 Q 92 93 62 144 Q 33 195 32 256 Q 33 317 62 368 Q 92 419 144 450 Q 197 480 256 480 Q 315 480 368 450 Q 420 419 450 368 Q 479 317 480 256 L 480 256 Z M 0 256 Q 1 186 34 128 L 34 128 L 34 128 Q 68 70 128 34 Q 189 0 256 0 Q 323 0 384 34 Q 444 70 478 128 Q 511 186 512 256 Q 511 326 478 384 Q 444 442 384 478 Q 323 512 256 512 Q 189 512 128 478 Q 68 442 34 384 Q 1 326 0 256 L 0 256 Z M 256 350 Q 296 350 334 362 Q 316 320 256 318 Q 198 320 179 362 Q 217 350 256 350 L 256 350 Z M 256 286 Q 304 287 336 313 L 336 313 L 336 313 Q 369 340 370 386 L 370 409 L 370 409 L 349 401 L 349 401 L 332 395 L 332 395 Q 295 382 256 382 Q 217 382 180 395 L 163 401 L 163 401 L 141 409 L 141 409 L 142 385 L 142 385 Q 145 340 176 313 Q 208 286 256 286 L 256 286 Z M 223 176 L 211 187 L 223 176 L 211 187 L 204 195 L 204 195 Q 167 231 117 239 L 115 240 L 115 240 L 99 242 L 99 242 L 94 211 L 94 211 L 109 208 L 109 208 L 112 208 L 112 208 Q 152 201 181 172 L 189 165 L 189 165 L 200 153 L 200 153 L 223 176 L 223 176 Z M 301 187 L 289 176 L 301 187 L 289 176 L 312 153 L 312 153 L 323 165 L 323 165 L 331 172 L 331 172 Q 360 201 400 208 L 403 208 L 403 208 L 418 211 L 418 211 L 413 242 L 413 242 L 397 240 L 397 240 L 395 239 L 395 239 Q 344 231 308 195 L 301 187 L 301 187 Z" />
</svg>