<svg xmlns="http://www.w3.org/2000/svg" viewBox="0 0 512 512">
  <path d="M 256 53.6 L 263.2 56.8 L 256 53.6 L 263.2 56.8 L 500 152.8 L 500 152.8 L 512 157.6 L 512 157.6 L 512 170.4 L 512 170.4 L 512 439.2 L 512 439.2 L 512 458.4 L 512 458.4 L 473.6 458.4 L 473.6 458.4 L 473.6 439.2 L 473.6 439.2 L 473.6 183.2 L 473.6 183.2 L 256 95.2 L 256 95.2 L 38.4 183.2 L 38.4 183.2 L 38.4 439.2 L 38.4 439.2 L 38.4 458.4 L 38.4 458.4 L 0 458.4 L 0 458.4 L 0 439.2 L 0 439.2 L 0 170.4 L 0 170.4 L 0 157.6 L 0 157.6 L 12 152.8 L 12 152.8 L 248.8 56.8 L 248.8 56.8 L 256 53.6 L 256 53.6 Z M 76.8 202.4 L 96 202.4 L 76.8 202.4 L 435.2 202.4 L 435.2 221.6 L 435.2 221.6 L 435.2 439.2 L 435.2 439.2 L 435.2 458.4 L 435.2 458.4 L 396.8 458.4 L 396.8 458.4 L 396.8 439.2 L 396.8 439.2 L 396.8 304.8 L 396.8 304.8 L 115.2 304.8 L 115.2 304.8 L 115.2 439.2 L 115.2 439.2 L 115.2 458.4 L 115.2 458.4 L 76.8 458.4 L 76.8 458.4 L 76.8 439.2 L 76.8 439.2 L 76.8 221.6 L 76.8 221.6 L 76.8 202.4 L 76.8 202.4 Z M 115.2 266.4 L 396.8 266.4 L 115.2 266.4 L 396.8 266.4 L 396.8 240.8 L 396.8 240.8 L 115.2 240.8 L 115.2 240.8 L 115.2 266.4 L 115.2 266.4 Z M 166.4 330.4 L 345.6 330.4 L 166.4 330.4 L 364.8 330.4 L 364.8 349.6 L 364.8 349.6 L 364.8 439.2 L 364.8 439.2 L 364.8 458.4 L 364.8 458.4 L 326.4 458.4 L 326.4 458.4 L 326.4 439.2 L 326.4 439.2 L 326.4 432.8 L 326.4 432.8 L 185.6 432.8 L 185.6 432.8 L 185.6 439.2 L 185.6 439.2 L 185.6 458.4 L 185.6 458.4 L 147.2 458.4 L 147.2 458.4 L 147.2 439.2 L 147.2 439.2 L 147.2 349.6 L 147.2 349.6 L 147.2 330.4 L 147.2 330.4 L 166.4 330.4 L 166.4 330.4 Z M 326.4 394.4 L 326.4 368.8 L 326.4 394.4 L 326.4 368.8 L 185.6 368.8 L 185.6 368.8 L 185.6 394.4 L 185.6 394.4 L 326.4 394.4 L 326.4 394.4 Z" />
</svg>