<svg xmlns="http://www.w3.org/2000/svg" viewBox="0 0 512 512">
  <path d="M 483.55555555555554 256 Q 483.55555555555554 304.8888888888889 464.8888888888889 346.6666666666667 L 464.8888888888889 346.6666666666667 L 464.8888888888889 346.6666666666667 Q 446.22222222222223 388.44444444444446 414.22222222222223 420.44444444444446 L 399.1111111111111 415.1111111111111 L 399.1111111111111 415.1111111111111 Q 383.1111111111111 408.8888888888889 375.1111111111111 394.6666666666667 Q 397.3333333333333 377.77777777777777 398.22222222222223 355.55555555555554 Q 396.44444444444446 325.3333333333333 356.44444444444446 304.8888888888889 Q 316.44444444444446 285.3333333333333 256 284.44444444444446 Q 195.55555555555554 285.3333333333333 155.55555555555554 304.8888888888889 Q 115.55555555555556 325.3333333333333 113.77777777777777 355.55555555555554 Q 114.66666666666667 377.77777777777777 136.88888888888889 394.6666666666667 Q 129.77777777777777 408.8888888888889 112.88888888888889 415.1111111111111 L 97.77777777777777 420.44444444444446 L 97.77777777777777 420.44444444444446 Q 65.77777777777777 388.44444444444446 47.111111111111114 346.6666666666667 Q 28.444444444444443 304.8888888888889 28.444444444444443 256 Q 29.333333333333332 192 59.55555555555556 141.33333333333334 Q 89.77777777777777 89.77777777777777 141.33333333333334 59.55555555555556 Q 192 29.333333333333332 256 28.444444444444443 Q 320 29.333333333333332 370.6666666666667 59.55555555555556 Q 422.22222222222223 89.77777777777777 452.44444444444446 141.33333333333334 Q 482.6666666666667 192 483.55555555555554 256 L 483.55555555555554 256 Z M 233.77777777777777 199.11111111111111 L 128 142.22222222222223 L 233.77777777777777 199.11111111111111 L 128 142.22222222222223 L 168.88888888888889 199.11111111111111 L 168.88888888888889 199.11111111111111 L 128 256 L 128 256 L 233.77777777777777 199.11111111111111 L 233.77777777777777 199.11111111111111 Z M 384 142.22222222222223 L 278.22222222222223 199.11111111111111 L 384 142.22222222222223 L 278.22222222222223 199.11111111111111 L 384 256 L 384 256 L 343.1111111111111 199.11111111111111 L 343.1111111111111 199.11111111111111 L 384 142.22222222222223 L 384 142.22222222222223 Z M 28.444444444444443 426.6666666666667 Q 40.888888888888886 426.6666666666667 48.888888888888886 434.6666666666667 L 48.888888888888886 434.6666666666667 L 48.888888888888886 434.6666666666667 Q 56.888888888888886 442.6666666666667 56.888888888888886 455.1111111111111 Q 56.888888888888886 467.55555555555554 48.888888888888886 475.55555555555554 Q 40.888888888888886 483.55555555555554 28.444444444444443 483.55555555555554 Q 16 483.55555555555554 8 475.55555555555554 Q 0 467.55555555555554 0 455.1111111111111 Q 0 442.6666666666667 8 434.6666666666667 Q 16 426.6666666666667 28.444444444444443 426.6666666666667 L 28.444444444444443 426.6666666666667 Z M 455.1111111111111 426.6666666666667 Q 455.1111111111111 414.22222222222223 463.1111111111111 406.22222222222223 L 463.1111111111111 406.22222222222223 L 463.1111111111111 406.22222222222223 Q 471.1111111111111 398.22222222222223 483.55555555555554 398.22222222222223 Q 496 398.22222222222223 504 406.22222222222223 Q 512 414.22222222222223 512 426.6666666666667 Q 512 439.1111111111111 504 447.1111111111111 Q 496 455.1111111111111 483.55555555555554 455.1111111111111 Q 471.1111111111111 455.1111111111111 463.1111111111111 447.1111111111111 Q 455.1111111111111 439.1111111111111 455.1111111111111 426.6666666666667 L 455.1111111111111 426.6666666666667 Z M 170.66666666666666 380.44444444444446 L 170.66666666666666 329.77777777777777 L 170.66666666666666 380.44444444444446 L 170.66666666666666 329.77777777777777 Q 203.55555555555554 313.77777777777777 256 312.8888888888889 Q 308.44444444444446 313.77777777777777 341.3333333333333 329.77777777777777 L 341.3333333333333 380.44444444444446 L 341.3333333333333 380.44444444444446 Q 341.3333333333333 401.77777777777777 353.77777777777777 417.77777777777777 Q 365.3333333333333 434.6666666666667 384.8888888888889 440.8888888888889 L 426.6666666666667 455.1111111111111 L 426.6666666666667 455.1111111111111 L 426.6666666666667 483.55555555555554 L 426.6666666666667 483.55555555555554 L 85.33333333333333 483.55555555555554 L 85.33333333333333 483.55555555555554 L 85.33333333333333 455.1111111111111 L 85.33333333333333 455.1111111111111 L 127.11111111111111 440.8888888888889 L 127.11111111111111 440.8888888888889 Q 146.66666666666666 434.6666666666667 158.22222222222223 417.77777777777777 Q 170.66666666666666 401.77777777777777 170.66666666666666 380.44444444444446 L 170.66666666666666 380.44444444444446 Z M 270.22222222222223 369.77777777777777 Q 256.8888888888889 370.6666666666667 256 384 Q 256.8888888888889 397.3333333333333 270.22222222222223 398.22222222222223 Q 283.55555555555554 397.3333333333333 284.44444444444446 384 Q 283.55555555555554 370.6666666666667 270.22222222222223 369.77777777777777 L 270.22222222222223 369.77777777777777 Z M 227.55555555555554 412.44444444444446 Q 226.66666666666666 399.1111111111111 213.33333333333334 398.22222222222223 Q 200 399.1111111111111 199.11111111111111 412.44444444444446 Q 200 425.77777777777777 213.33333333333334 426.6666666666667 Q 226.66666666666666 425.77777777777777 227.55555555555554 412.44444444444446 L 227.55555555555554 412.44444444444446 Z" />
</svg>