<svg xmlns="http://www.w3.org/2000/svg" viewBox="0 0 448 448">
    <path d="M 144 48 L 144 144 L 48 144 L 48 48 L 144 48 L 144 48 Z M 48 0 L 0 0 L 0 48 L 0 144 L 0 192 L 48 192 L 72 192 L 72 352 L 72 376 L 96 376 L 256 376 L 256 400 L 256 448 L 304 448 L 400 448 L 448 448 L 448 400 L 448 304 L 448 256 L 400 256 L 304 256 L 256 256 L 256 304 L 256 328 L 120 328 L 120 192 L 144 192 L 192 192 L 192 144 L 192 48 L 192 0 L 144 0 L 48 0 L 48 0 Z M 400 304 L 400 400 L 304 400 L 304 304 L 400 304 L 400 304 Z"/>
</svg>
