<svg xmlns="http://www.w3.org/2000/svg" viewBox="0 0 512 448">
    <path d="M 87 350 L 94 331 L 80 316 Q 33 269 32 208 Q 34 137 95 86 Q 157 34 256 32 Q 355 34 417 86 Q 478 137 480 208 Q 478 279 417 330 Q 355 382 256 384 Q 213 384 176 372 L 167 370 L 157 372 L 69 399 L 87 350 L 87 350 Z M 16 448 L 55 436 L 166 403 Q 208 416 256 416 Q 328 415 385 388 Q 443 360 477 313 Q 511 266 512 208 Q 511 150 477 103 Q 443 56 385 28 Q 328 1 256 0 Q 184 1 127 28 Q 69 56 35 103 Q 1 150 0 208 Q 2 284 57 339 L 30 410 L 16 448 L 16 448 Z M 352 96 L 352 73 L 330 81 L 202 129 L 192 133 L 192 144 L 192 235 Q 184 232 176 232 Q 156 232 142 245 Q 129 257 128 276 Q 129 295 142 307 Q 156 320 176 320 Q 196 320 210 307 Q 223 295 224 276 Q 224 275 224 274 Q 224 273 224 273 Q 224 272 224 272 L 224 155 L 320 119 L 320 203 Q 312 200 304 200 Q 284 200 270 213 Q 257 225 256 244 Q 257 263 270 275 Q 284 288 304 288 Q 324 288 338 275 Q 351 263 352 244 Q 352 243 352 242 Q 352 241 352 241 Q 352 240 352 240 L 352 96 L 352 96 Z M 192 276 Q 193 285 176 288 Q 159 285 160 276 Q 159 267 176 264 Q 193 267 192 276 L 192 276 Z M 304 256 Q 287 253 288 244 Q 287 235 304 232 Q 321 235 320 244 Q 321 253 304 256 L 304 256 Z"/>
</svg>
