<svg xmlns="http://www.w3.org/2000/svg" viewBox="0 0 640 480">
    <path d="M 384 224 L 384 336 L 448 384 L 448 224 L 448 211 L 457 201 L 608 51 L 608 32 L 224 32 L 224 51 L 375 201 L 384 211 L 384 224 L 384 224 Z M 352 224 L 192 64 L 192 32 L 192 0 L 224 0 L 608 0 L 640 0 L 640 32 L 640 64 L 480 224 L 480 408 L 480 448 L 448 424 L 352 352 L 352 224 L 352 224 Z M 32 64 L 160 64 L 160 77 L 169 87 L 179 96 L 32 96 L 32 115 L 183 265 L 192 275 L 192 288 L 192 368 L 256 416 L 256 288 L 256 275 L 265 265 L 307 224 L 320 237 L 320 256 L 288 288 L 288 440 L 288 480 L 256 456 L 160 384 L 160 288 L 0 128 L 0 96 L 0 64 L 32 64 L 32 64 Z"/>
</svg>
