<svg xmlns="http://www.w3.org/2000/svg" viewBox="0 0 512 512">
  <path d="M 128 51.2 L 147.2 51.2 L 128 51.2 L 256 51.2 L 256 89.6 L 256 89.6 L 236.8 89.6 L 234.4 89.6 L 244 102.4 L 244 102.4 L 308.8 192 L 308.8 192 L 390.4 192 L 393.6 192 L 396 192.8 L 396 192.8 L 498.4 224.8 L 498.4 224.8 L 512 228.8 L 512 228.8 L 512 243.2 L 512 243.2 L 512 268.8 L 512 268.8 L 512 283.2 L 512 283.2 L 498.4 287.2 L 498.4 287.2 L 396 319.2 L 396 319.2 L 393.6 320 L 393.6 320 L 390.4 320 L 308.8 320 L 234.4 422.4 L 234.4 422.4 L 236.8 422.4 L 256 422.4 L 256 460.8 L 256 460.8 L 236.8 460.8 L 128 460.8 L 128 422.4 L 128 422.4 L 147.2 422.4 L 153.6 422.4 L 153.6 320 L 153.6 320 L 142.4 320 L 142.4 320 L 109.6 352.8 L 109.6 352.8 L 104 358.4 L 104 358.4 L 96 358.4 L 25.6 358.4 L 25.6 339.2 L 25.6 339.2 L 25.6 275.2 L 25.6 275.2 L 19.2 275.2 L 0 275.2 L 0 236.8 L 0 236.8 L 19.2 236.8 L 25.6 236.8 L 25.6 172.8 L 25.6 172.8 L 25.6 153.6 L 25.6 153.6 L 44.8 153.6 L 104 153.6 L 109.6 159.2 L 109.6 159.2 L 142.4 192 L 142.4 192 L 153.6 192 L 153.6 192 L 153.6 89.6 L 153.6 89.6 L 147.2 89.6 L 128 89.6 L 128 51.2 L 128 51.2 Z M 192 192 L 261.6 192 L 192 192 L 261.6 192 L 212.8 124.8 L 212.8 124.8 L 192 96.8 L 192 96.8 L 192 192 L 192 192 Z M 64 275.2 L 64 320 L 64 275.2 L 64 320 L 88 320 L 88 320 L 120.8 287.2 L 120.8 287.2 L 126.4 281.6 L 126.4 281.6 L 134.4 281.6 L 387.2 281.6 L 469.6 256 L 469.6 256 L 387.2 230.4 L 387.2 230.4 L 134.4 230.4 L 126.4 230.4 L 120.8 224.8 L 120.8 224.8 L 88 192 L 88 192 L 64 192 L 64 192 L 64 236.8 L 64 236.8 L 83.2 236.8 L 102.4 236.8 L 102.4 275.2 L 102.4 275.2 L 83.2 275.2 L 64 275.2 Z M 192 320 L 192 415.2 L 192 320 L 192 415.2 L 261.6 320 L 261.6 320 L 192 320 L 192 320 Z" />
</svg>