<svg viewBox="0 0 512 448">
  <path
    d="M 224 0 L 0 0 L 0 64 L 224 64 L 224 0 L 224 0 Z M 224 128 L 0 128 L 0 192 L 224 192 L 224 128 L 224 128 Z M 0 256 L 0 320 L 224 320 L 224 256 L 0 256 L 0 256 Z M 224 384 L 0 384 L 0 448 L 224 448 L 224 384 L 224 384 Z M 288 0 L 288 64 L 512 64 L 512 0 L 288 0 L 288 0 Z M 512 128 L 288 128 L 288 192 L 512 192 L 512 128 L 512 128 Z M 288 256 L 288 320 L 512 320 L 512 256 L 288 256 L 288 256 Z M 512 384 L 288 384 L 288 448 L 512 448 L 512 384 L 512 384 Z"
  />
</svg>