<svg xmlns="http://www.w3.org/2000/svg" viewBox="0 0 512 512">
  <path d="M 236 26 L 20 295 L 236 26 L 20 295 L 0 320 L 0 320 L 26 339 L 26 339 L 240 500 L 240 500 L 256 512 L 256 512 L 272 500 L 272 500 L 486 339 L 486 339 L 512 320 L 512 320 L 492 295 L 492 295 L 277 26 L 277 26 L 272 20 L 272 20 L 256 0 L 256 0 L 240 20 L 240 20 L 236 26 L 236 26 Z M 240 71 L 240 460 L 240 71 L 240 460 L 46 314 L 46 314 L 240 71 L 240 71 Z M 272 460 L 272 71 L 272 460 L 272 71 L 466 314 L 466 314 L 272 460 L 272 460 Z" />
</svg>