<svg xmlns="http://www.w3.org/2000/svg" viewBox="0 0 512 512">
  <path d="M 50 288 L 128 288 L 50 288 L 128 288 L 160 320 L 160 320 L 224 320 L 224 320 L 224 224 L 224 224 L 272 224 L 272 224 L 272 144 L 272 144 L 304 112 L 304 112 L 304 54 L 304 54 Q 281 48 256 48 Q 168 50 109 109 Q 50 168 48 256 Q 48 272 50 288 L 50 288 Z M 454 320 L 416 320 L 454 320 L 416 320 L 416 288 L 416 288 L 352 288 L 352 288 L 288 352 L 288 352 L 288 416 L 288 416 L 352 416 L 352 416 L 368 432 L 368 432 Q 430 391 454 320 L 454 320 Z M 0 256 Q 1 186 34 128 L 34 128 L 34 128 Q 68 70 128 34 Q 189 0 256 0 Q 323 0 384 34 Q 444 70 478 128 Q 511 186 512 256 Q 511 326 478 384 Q 444 442 384 478 Q 323 512 256 512 Q 189 512 128 478 Q 68 442 34 384 Q 1 326 0 256 L 0 256 Z M 128 352 L 128 384 L 128 352 L 128 384 L 192 384 L 192 384 L 192 352 L 192 352 L 128 352 L 128 352 Z M 288 256 L 256 256 L 288 256 L 256 256 L 256 320 L 256 320 L 288 320 L 288 320 L 288 256 L 288 256 Z M 320 128 L 320 192 L 320 128 L 320 192 L 352 192 L 352 192 L 352 128 L 352 128 L 320 128 L 320 128 Z" />
</svg>