<svg viewBox="0 0 448 448">
  <path
    d="M 24 0 L 128 0 L 128 48 L 48 48 L 48 128 L 0 128 L 0 24 L 0 0 L 24 0 L 24 0 Z M 0 160 L 48 160 L 48 288 L 0 288 L 0 160 L 0 160 Z M 400 160 L 448 160 L 448 288 L 400 288 L 400 160 L 400 160 Z M 448 128 L 400 128 L 400 48 L 320 48 L 320 0 L 424 0 L 448 0 L 448 24 L 448 128 L 448 128 Z M 448 320 L 448 424 L 448 448 L 424 448 L 320 448 L 320 400 L 400 400 L 400 320 L 448 320 L 448 320 Z M 48 320 L 48 400 L 128 400 L 128 448 L 24 448 L 0 448 L 0 424 L 0 320 L 48 320 L 48 320 Z M 288 448 L 160 448 L 160 400 L 288 400 L 288 448 L 288 448 Z M 160 48 L 160 0 L 288 0 L 288 48 L 160 48 L 160 48 Z"
  />
</svg>