<svg xmlns="http://www.w3.org/2000/svg" viewBox="0 0 512 512">
  <path d="M 307.2 102.4 L 307.2 153.6 L 307.2 102.4 L 307.2 153.6 L 281.6 153.6 L 204.8 153.6 L 204.8 102.4 L 204.8 102.4 L 307.2 102.4 L 307.2 102.4 Z M 281.6 204.8 L 307.2 204.8 L 281.6 204.8 L 358.4 204.8 L 358.4 153.6 L 358.4 153.6 L 358.4 102.4 L 358.4 102.4 L 358.4 51.2 L 358.4 51.2 L 307.2 51.2 L 153.6 51.2 L 153.6 102.4 L 153.6 102.4 L 153.6 153.6 L 153.6 153.6 L 153.6 204.8 L 153.6 204.8 L 204.8 204.8 L 230.4 204.8 L 230.4 230.4 L 230.4 230.4 L 153.6 230.4 L 0 230.4 L 0 281.6 L 0 281.6 L 25.6 281.6 L 102.4 281.6 L 102.4 307.2 L 102.4 307.2 L 76.8 307.2 L 25.6 307.2 L 25.6 358.4 L 25.6 358.4 L 25.6 409.6 L 25.6 409.6 L 25.6 460.8 L 25.6 460.8 L 76.8 460.8 L 230.4 460.8 L 230.4 409.6 L 230.4 409.6 L 230.4 358.4 L 230.4 358.4 L 230.4 307.2 L 230.4 307.2 L 179.2 307.2 L 153.6 307.2 L 153.6 281.6 L 153.6 281.6 L 230.4 281.6 L 358.4 281.6 L 358.4 307.2 L 358.4 307.2 L 332.8 307.2 L 281.6 307.2 L 281.6 358.4 L 281.6 358.4 L 281.6 409.6 L 281.6 409.6 L 281.6 460.8 L 281.6 460.8 L 332.8 460.8 L 486.4 460.8 L 486.4 409.6 L 486.4 409.6 L 486.4 358.4 L 486.4 358.4 L 486.4 307.2 L 486.4 307.2 L 435.2 307.2 L 409.6 307.2 L 409.6 281.6 L 409.6 281.6 L 486.4 281.6 L 512 281.6 L 512 230.4 L 512 230.4 L 486.4 230.4 L 281.6 230.4 L 281.6 204.8 L 281.6 204.8 Z M 409.6 358.4 L 435.2 358.4 L 409.6 358.4 L 435.2 358.4 L 435.2 409.6 L 435.2 409.6 L 332.8 409.6 L 332.8 409.6 L 332.8 358.4 L 332.8 358.4 L 358.4 358.4 L 409.6 358.4 Z M 153.6 358.4 L 179.2 358.4 L 153.6 358.4 L 179.2 358.4 L 179.2 409.6 L 179.2 409.6 L 76.8 409.6 L 76.8 409.6 L 76.8 358.4 L 76.8 358.4 L 102.4 358.4 L 153.6 358.4 Z" />
</svg>