<svg xmlns="http://www.w3.org/2000/svg" viewBox="0 0 512 512">
  <path d="M 512 512 L 512 0 L 512 512 L 512 0 L 0 0 L 0 0 L 0 512 L 0 512 L 512 512 L 512 512 Z M 357.7142857142857 275.42857142857144 L 238.85714285714286 394.2857142857143 L 357.7142857142857 275.42857142857144 L 238.85714285714286 394.2857142857143 L 219.42857142857142 413.7142857142857 L 219.42857142857142 413.7142857142857 L 180.57142857142858 374.85714285714283 L 180.57142857142858 374.85714285714283 L 200 355.42857142857144 L 200 355.42857142857144 L 299.42857142857144 256 L 299.42857142857144 256 L 200 156.57142857142858 L 200 156.57142857142858 L 180.57142857142858 137.14285714285714 L 180.57142857142858 137.14285714285714 L 219.42857142857142 98.28571428571429 L 219.42857142857142 98.28571428571429 L 238.85714285714286 117.71428571428571 L 238.85714285714286 117.71428571428571 L 357.7142857142857 236.57142857142858 L 357.7142857142857 236.57142857142858 L 377.14285714285717 256 L 377.14285714285717 256 L 357.7142857142857 275.42857142857144 L 357.7142857142857 275.42857142857144 Z" />
</svg>