<svg xmlns="http://www.w3.org/2000/svg" viewBox="0 0 512 512">
  <path d="M 113.77777777777777 85.33333333333333 L 113.77777777777777 369.77777777777777 L 113.77777777777777 85.33333333333333 L 113.77777777777777 369.77777777777777 L 398.22222222222223 369.77777777777777 L 398.22222222222223 369.77777777777777 L 398.22222222222223 85.33333333333333 L 398.22222222222223 85.33333333333333 L 113.77777777777777 85.33333333333333 L 113.77777777777777 85.33333333333333 Z M 426.6666666666667 85.33333333333333 L 426.6666666666667 369.77777777777777 L 426.6666666666667 85.33333333333333 L 426.6666666666667 369.77777777777777 L 440.8888888888889 369.77777777777777 L 455.1111111111111 369.77777777777777 L 455.1111111111111 398.22222222222223 L 455.1111111111111 398.22222222222223 L 440.8888888888889 398.22222222222223 L 56.888888888888886 398.22222222222223 L 56.888888888888886 369.77777777777777 L 56.888888888888886 369.77777777777777 L 71.11111111111111 369.77777777777777 L 85.33333333333333 369.77777777777777 L 85.33333333333333 85.33333333333333 L 85.33333333333333 85.33333333333333 L 85.33333333333333 56.888888888888886 L 85.33333333333333 56.888888888888886 L 113.77777777777777 56.888888888888886 L 426.6666666666667 56.888888888888886 L 426.6666666666667 85.33333333333333 L 426.6666666666667 85.33333333333333 Z M 28.444444444444443 312.8888888888889 L 56.888888888888886 312.8888888888889 L 28.444444444444443 312.8888888888889 L 56.888888888888886 312.8888888888889 L 56.888888888888886 341.3333333333333 L 56.888888888888886 341.3333333333333 L 28.444444444444443 341.3333333333333 L 28.444444444444443 341.3333333333333 L 28.444444444444443 426.6666666666667 L 28.444444444444443 426.6666666666667 L 483.55555555555554 426.6666666666667 L 483.55555555555554 426.6666666666667 L 483.55555555555554 341.3333333333333 L 483.55555555555554 341.3333333333333 L 455.1111111111111 341.3333333333333 L 455.1111111111111 341.3333333333333 L 455.1111111111111 312.8888888888889 L 455.1111111111111 312.8888888888889 L 483.55555555555554 312.8888888888889 L 512 312.8888888888889 L 512 341.3333333333333 L 512 341.3333333333333 L 512 426.6666666666667 L 512 426.6666666666667 L 512 455.1111111111111 L 512 455.1111111111111 L 483.55555555555554 455.1111111111111 L 0 455.1111111111111 L 0 426.6666666666667 L 0 426.6666666666667 L 0 341.3333333333333 L 0 341.3333333333333 L 0 312.8888888888889 L 0 312.8888888888889 L 28.444444444444443 312.8888888888889 L 28.444444444444443 312.8888888888889 Z M 336.8888888888889 183.11111111111111 L 242.66666666666666 278.22222222222223 L 336.8888888888889 183.11111111111111 L 242.66666666666666 278.22222222222223 L 232 288 L 232 288 L 222.22222222222223 278.22222222222223 L 222.22222222222223 278.22222222222223 L 175.11111111111111 230.22222222222223 L 175.11111111111111 230.22222222222223 L 164.44444444444446 220.44444444444446 L 164.44444444444446 220.44444444444446 L 184.88888888888889 200 L 184.88888888888889 200 L 194.66666666666666 210.66666666666666 L 194.66666666666666 210.66666666666666 L 232 248 L 232 248 L 317.3333333333333 162.66666666666666 L 317.3333333333333 162.66666666666666 L 327.1111111111111 152.88888888888889 L 327.1111111111111 152.88888888888889 L 347.55555555555554 173.33333333333334 L 347.55555555555554 173.33333333333334 L 336.8888888888889 183.11111111111111 L 336.8888888888889 183.11111111111111 Z" />
</svg>