<svg xmlns="http://www.w3.org/2000/svg" viewBox="0 0 512 512">
  <path d="M 131.5415 481.64426 L 114.33992 464.4427 L 131.5415 481.64426 L 114.33992 464.4427 L 17.201582 367.30435 L 17.201582 367.30435 L 0 350.10275 L 0 350.10275 L 34.403164 315.69962 L 34.403164 315.69962 L 51.604744 332.90118 L 51.604744 332.90118 L 107.25692 388.55334 L 107.25692 388.55334 L 107.25692 53.62846 L 107.25692 53.62846 L 107.25692 29.343874 L 107.25692 29.343874 L 155.82608 29.343874 L 155.82608 29.343874 L 155.82608 53.62846 L 155.82608 53.62846 L 155.82608 388.55334 L 155.82608 388.55334 L 211.47826 332.90118 L 211.47826 332.90118 L 228.67984 315.69962 L 228.67984 315.69962 L 263.083 350.10275 L 263.083 350.10275 L 245.88142 367.30435 L 245.88142 367.30435 L 148.74309 464.4427 L 148.74309 464.4427 L 131.5415 481.64426 L 131.5415 481.64426 Z M 269.15414 223.62056 L 299.5099 175.05138 L 269.15414 223.62056 L 299.5099 175.05138 L 362.24506 74.87747 L 362.24506 74.87747 L 390.5771 29.343874 L 390.5771 29.343874 L 418.9091 74.87747 L 418.9091 74.87747 L 481.64426 175.05138 L 481.64426 175.05138 L 512 223.62056 L 512 223.62056 L 454.3241 223.62056 L 269.15414 223.62056 Z M 357.18576 175.05138 L 423.96838 175.05138 L 357.18576 175.05138 L 423.96838 175.05138 L 390.5771 121.42293 L 390.5771 121.42293 L 357.18576 175.05138 L 357.18576 175.05138 Z M 342.0079 434.08694 L 439.14624 434.08694 L 342.0079 434.08694 L 439.14624 434.08694 L 439.14624 336.9486 L 439.14624 336.9486 L 342.0079 336.9486 L 342.0079 336.9486 L 342.0079 434.08694 L 342.0079 434.08694 Z M 293.43872 288.37946 L 342.0079 288.37946 L 293.43872 288.37946 L 487.71542 288.37946 L 487.71542 336.9486 L 487.71542 336.9486 L 487.71542 434.08694 L 487.71542 434.08694 L 487.71542 482.65613 L 487.71542 482.65613 L 439.14624 482.65613 L 293.43872 482.65613 L 293.43872 434.08694 L 293.43872 434.08694 L 293.43872 336.9486 L 293.43872 336.9486 L 293.43872 288.37946 L 293.43872 288.37946 Z" />
</svg>