<svg xmlns="http://www.w3.org/2000/svg" viewBox="0 0 512 512">
  <path d="M 208 48 Q 251 48 288 69 L 288 69 L 288 69 Q 325 91 347 128 Q 368 166 368 208 Q 368 250 347 288 Q 325 325 288 347 Q 251 368 208 368 Q 165 368 128 347 Q 91 325 69 288 Q 48 250 48 208 Q 48 166 69 128 Q 91 91 128 69 Q 165 48 208 48 L 208 48 Z M 208 416 Q 283 415 337 371 L 461 495 L 461 495 L 478 512 L 478 512 L 512 478 L 512 478 L 495 461 L 495 461 L 371 337 L 371 337 Q 415 283 416 208 Q 414 120 355 61 Q 296 2 208 0 Q 120 2 61 61 Q 2 120 0 208 Q 2 296 61 355 Q 120 414 208 416 L 208 416 Z M 232 136 L 232 112 L 232 136 L 232 112 L 184 112 L 184 112 L 184 136 L 184 136 L 184 280 L 184 280 L 184 304 L 184 304 L 232 304 L 232 304 L 232 280 L 232 280 L 232 136 L 232 136 Z M 152 168 L 152 144 L 152 168 L 152 144 L 104 144 L 104 144 L 104 168 L 104 168 L 104 248 L 104 248 L 104 272 L 104 272 L 152 272 L 152 272 L 152 248 L 152 248 L 152 168 L 152 168 Z M 312 184 L 312 160 L 312 184 L 312 160 L 264 160 L 264 160 L 264 184 L 264 184 L 264 232 L 264 232 L 264 256 L 264 256 L 312 256 L 312 256 L 312 232 L 312 232 L 312 184 L 312 184 Z" />
</svg>