<svg xmlns="http://www.w3.org/2000/svg" viewBox="0 0 512 512">
  <path d="M 266.03921568627453 38.14901960784314 L 227.89019607843136 0 L 266.03921568627453 38.14901960784314 L 227.89019607843136 0 Q 207.81176470588235 12.047058823529412 180.7058823529412 38.14901960784314 Q 153.6 63.247058823529414 133.521568627451 98.3843137254902 Q 112.43921568627451 134.52549019607844 111.43529411764706 175.68627450980392 Q 112.43921568627451 234.91764705882352 151.5921568627451 276.078431372549 Q 189.74117647058824 316.2352941176471 248.97254901960784 321.2549019607843 Q 252.98823529411766 321.2549019607843 257.00392156862745 321.2549019607843 Q 262.0235294117647 321.2549019607843 266.03921568627453 321.2549019607843 Q 325.2705882352941 316.2352941176471 363.41960784313727 276.078431372549 Q 401.5686274509804 234.91764705882352 403.5764705882353 175.68627450980392 Q 404.58039215686273 155.6078431372549 385.50588235294117 115.45098039215686 Q 367.43529411764706 74.29019607843138 316.2352941176471 29.113725490196078 L 307.2 38.14901960784314 L 307.2 38.14901960784314 L 287.121568627451 58.227450980392156 L 287.121568627451 58.227450980392156 L 266.03921568627453 38.14901960784314 L 266.03921568627453 38.14901960784314 Z M 258.0078431372549 292.1411764705882 Q 253.9921568627451 292.1411764705882 250.98039215686273 292.1411764705882 Q 227.89019607843136 289.1294117647059 213.83529411764707 274.0705882352941 Q 199.78039215686275 259.01176470588234 198.7764705882353 239.93725490196078 Q 200.7843137254902 208.8156862745098 234.91764705882352 174.68235294117648 Q 246.96470588235294 161.6313725490196 258.0078431372549 153.6 Q 268.0470588235294 161.6313725490196 280.09411764705885 174.68235294117648 Q 314.2274509803922 208.8156862745098 316.2352941176471 239.93725490196078 Q 315.2313725490196 259.01176470588234 301.1764705882353 274.0705882352941 Q 287.121568627451 289.1294117647059 264.03137254901964 292.1411764705882 Q 264.03137254901964 292.1411764705882 264.03137254901964 292.1411764705882 Q 261.01960784313724 292.1411764705882 258.0078431372549 292.1411764705882 L 258.0078431372549 292.1411764705882 Z M 345.34901960784316 239.93725490196078 Q 343.3411764705882 206.8078431372549 322.25882352941176 179.7019607843137 L 322.25882352941176 179.7019607843137 L 322.25882352941176 179.7019607843137 Q 301.1764705882353 151.5921568627451 280.09411764705885 134.52549019607844 L 280.09411764705885 134.52549019607844 L 280.09411764705885 134.52549019607844 Q 259.01176470588234 117.45882352941176 258.0078431372549 117.45882352941176 Q 256 117.45882352941176 234.91764705882352 134.52549019607844 Q 213.83529411764707 151.5921568627451 192.75294117647059 179.7019607843137 Q 171.6705882352941 206.8078431372549 169.6627450980392 239.93725490196078 Q 169.6627450980392 246.96470588235294 171.6705882352941 253.9921568627451 Q 141.5529411764706 221.86666666666667 140.54901960784315 175.68627450980392 Q 142.55686274509804 126.49411764705883 177.69411764705882 84.32941176470588 Q 201.78823529411764 55.21568627450981 224.87843137254902 38.14901960784314 L 266.03921568627453 79.30980392156863 L 266.03921568627453 79.30980392156863 L 287.121568627451 99.38823529411765 L 287.121568627451 99.38823529411765 L 307.2 79.30980392156863 L 307.2 79.30980392156863 L 317.2392156862745 69.27058823529411 L 317.2392156862745 69.27058823529411 Q 351.37254901960785 106.41568627450981 363.41960784313727 135.52941176470588 Q 375.46666666666664 164.64313725490197 374.4627450980392 175.68627450980392 Q 373.45882352941175 221.86666666666667 344.3450980392157 253.9921568627451 Q 345.34901960784316 246.96470588235294 345.34901960784316 239.93725490196078 L 345.34901960784316 239.93725490196078 Z M 37.14509803921569 297.1607843137255 L 22.08627450980392 291.1372549019608 L 37.14509803921569 297.1607843137255 L 22.08627450980392 291.1372549019608 L 10.03921568627451 320.25098039215686 L 10.03921568627451 320.25098039215686 L 25.098039215686274 326.27450980392155 L 25.098039215686274 326.27450980392155 L 212.83137254901962 401.5686274509804 L 212.83137254901962 401.5686274509804 L 25.098039215686274 476.8627450980392 L 25.098039215686274 476.8627450980392 L 10.03921568627451 482.8862745098039 L 10.03921568627451 482.8862745098039 L 22.08627450980392 512 L 22.08627450980392 512 L 37.14509803921569 505.9764705882353 L 37.14509803921569 505.9764705882353 L 256 418.63529411764705 L 256 418.63529411764705 L 474.85490196078433 505.9764705882353 L 474.85490196078433 505.9764705882353 L 489.9137254901961 512 L 489.9137254901961 512 L 501.96078431372547 482.8862745098039 L 501.96078431372547 482.8862745098039 L 486.9019607843137 476.8627450980392 L 486.9019607843137 476.8627450980392 L 299.1686274509804 401.5686274509804 L 299.1686274509804 401.5686274509804 L 486.9019607843137 326.27450980392155 L 486.9019607843137 326.27450980392155 L 501.96078431372547 320.25098039215686 L 501.96078431372547 320.25098039215686 L 489.9137254901961 291.1372549019608 L 489.9137254901961 291.1372549019608 L 474.85490196078433 297.1607843137255 L 474.85490196078433 297.1607843137255 L 256 384.5019607843137 L 256 384.5019607843137 L 37.14509803921569 297.1607843137255 L 37.14509803921569 297.1607843137255 Z" />
</svg>