<svg xmlns="http://www.w3.org/2000/svg" viewBox="0 0 512 512">
  <path d="M 106.70841487279843 48.093933463796475 L 82.66144814090019 48.093933463796475 L 106.70841487279843 48.093933463796475 L 82.66144814090019 48.093933463796475 L 82.66144814090019 0 L 82.66144814090019 0 L 106.70841487279843 0 L 299.08414872798437 0 L 299.08414872798437 24.046966731898237 L 299.08414872798437 24.046966731898237 L 299.08414872798437 419.81996086105676 L 299.08414872798437 419.81996086105676 L 378.23874755381604 340.66536203522503 L 378.23874755381604 340.66536203522503 L 395.2720156555773 323.6320939334638 L 395.2720156555773 323.6320939334638 L 429.3385518590998 357.6986301369863 L 429.3385518590998 357.6986301369863 L 412.30528375733854 374.73189823874753 L 412.30528375733854 374.73189823874753 L 299.08414872798437 487.95303326810176 L 299.08414872798437 487.95303326810176 L 299.08414872798437 488.95499021526416 L 299.08414872798437 488.95499021526416 L 298.0821917808219 488.95499021526416 L 298.0821917808219 488.95499021526416 L 292.07045009784736 494.9667318982387 L 292.07045009784736 494.9667318982387 L 275.03718199608613 512 L 275.03718199608613 512 L 258.00391389432485 494.9667318982387 L 258.00391389432485 494.9667318982387 L 251.9921722113503 488.95499021526416 L 251.9921722113503 488.95499021526416 L 250.99021526418787 488.95499021526416 L 250.99021526418787 488.95499021526416 L 250.99021526418787 487.95303326810176 L 250.99021526418787 487.95303326810176 L 137.76908023483367 374.73189823874753 L 137.76908023483367 374.73189823874753 L 120.7358121330724 357.6986301369863 L 120.7358121330724 357.6986301369863 L 154.80234833659492 323.6320939334638 L 154.80234833659492 323.6320939334638 L 171.83561643835617 340.66536203522503 L 171.83561643835617 340.66536203522503 L 250.99021526418787 419.81996086105676 L 250.99021526418787 419.81996086105676 L 250.99021526418787 48.093933463796475 L 250.99021526418787 48.093933463796475 L 106.70841487279843 48.093933463796475 L 106.70841487279843 48.093933463796475 Z" />
</svg>