<svg xmlns="http://www.w3.org/2000/svg" viewBox="0 0 512 512">
  <path d="M 0 51.2 L 19.2 51.2 L 0 51.2 L 512 51.2 L 512 70.4 L 512 70.4 L 512 441.6 L 512 441.6 L 512 460.8 L 512 460.8 L 492.8 460.8 L 0 460.8 L 0 441.6 L 0 441.6 L 0 70.4 L 0 70.4 L 0 51.2 L 0 51.2 Z M 38.4 89.6 L 38.4 422.4 L 38.4 89.6 L 38.4 422.4 L 473.6 422.4 L 473.6 422.4 L 473.6 89.6 L 473.6 89.6 L 38.4 89.6 L 38.4 89.6 Z M 102.4 179.2 Q 103.2 157.6 121.6 145.6 Q 140.8 136 160 145.6 Q 178.4 157.6 179.2 179.2 Q 178.4 200.8 160 212.8 Q 140.8 222.4 121.6 212.8 Q 103.2 200.8 102.4 179.2 L 102.4 179.2 Z M 96 243.2 L 159.2 243.2 L 96 243.2 L 159.2 243.2 L 154.4 262.4 L 154.4 262.4 L 143.2 307.2 L 143.2 307.2 L 76.8 307.2 L 76.8 307.2 L 96 243.2 L 96 243.2 Z M 435.2 307.2 L 368.8 307.2 L 435.2 307.2 L 368.8 307.2 L 357.6 262.4 L 357.6 262.4 L 352.8 243.2 L 352.8 243.2 L 416 243.2 L 416 243.2 L 435.2 307.2 L 435.2 307.2 Z M 332.8 179.2 Q 333.6 157.6 352 145.6 Q 371.2 136 390.4 145.6 Q 408.8 157.6 409.6 179.2 Q 408.8 200.8 390.4 212.8 Q 371.2 222.4 352 212.8 Q 333.6 200.8 332.8 179.2 L 332.8 179.2 Z M 203.2 332.8 L 309.6 332.8 L 203.2 332.8 L 309.6 332.8 L 303.2 307.2 L 303.2 307.2 L 209.6 307.2 L 209.6 307.2 L 203.2 332.8 L 203.2 332.8 Z M 179.2 268.8 L 332.8 268.8 L 179.2 268.8 L 332.8 268.8 L 348.8 332.8 L 348.8 332.8 L 358.4 371.2 L 358.4 371.2 L 319.2 371.2 L 153.6 371.2 L 163.2 332.8 L 163.2 332.8 L 179.2 268.8 L 179.2 268.8 Z M 275.2 185.6 Q 273.6 168 256 166.4 Q 238.4 168 236.8 185.6 Q 238.4 203.2 256 204.8 Q 273.6 203.2 275.2 185.6 L 275.2 185.6 Z M 198.4 185.6 Q 199.2 152.8 227.2 136 Q 256 120 284.8 136 Q 312.8 152.8 313.6 185.6 Q 312.8 218.4 284.8 235.2 Q 256 251.2 227.2 235.2 Q 199.2 218.4 198.4 185.6 L 198.4 185.6 Z" />
</svg>