<svg viewBox="0 0 448 448">
  <path
    d="M 0 0 L 128 0 L 128 128 L 0 128 L 0 0 L 0 0 Z M 0 160 L 128 160 L 128 288 L 0 288 L 0 160 L 0 160 Z M 128 320 L 128 448 L 0 448 L 0 320 L 128 320 L 128 320 Z M 160 0 L 288 0 L 288 128 L 160 128 L 160 0 L 160 0 Z M 288 160 L 288 288 L 160 288 L 160 160 L 288 160 L 288 160 Z M 160 320 L 288 320 L 288 448 L 160 448 L 160 320 L 160 320 Z M 448 0 L 448 128 L 320 128 L 320 0 L 448 0 L 448 0 Z M 320 160 L 448 160 L 448 288 L 320 288 L 320 160 L 320 160 Z M 448 320 L 448 448 L 320 448 L 320 320 L 448 320 L 448 320 Z"
  />
</svg>