<svg xmlns="http://www.w3.org/2000/svg" viewBox="0 0 512 512">
  <path d="M 142.22223 482.66666 L 152 472 L 142.22223 482.66666 L 152 472 L 237.33333 386.66666 L 237.33333 386.66666 L 248 376.8889 L 248 376.8889 L 227.55556 356.44446 L 227.55556 356.44446 L 217.77777 367.1111 L 217.77777 367.1111 L 156.44444 427.55554 L 156.44444 427.55554 L 156.44444 270.22223 L 156.44444 270.22223 L 497.77777 270.22223 L 512 270.22223 L 512 241.77777 L 512 241.77777 L 497.77777 241.77777 L 384 241.77777 L 384 84.44444 L 384 84.44444 L 445.33334 144.88889 L 445.33334 144.88889 L 455.1111 155.55556 L 455.1111 155.55556 L 475.55554 135.11111 L 475.55554 135.11111 L 464.8889 125.333336 L 464.8889 125.333336 L 379.55554 40 L 379.55554 40 L 369.77777 29.333334 L 369.77777 29.333334 L 360 40 L 360 40 L 274.66666 125.333336 L 274.66666 125.333336 L 264 135.11111 L 264 135.11111 L 284.44446 155.55556 L 284.44446 155.55556 L 294.22223 144.88889 L 294.22223 144.88889 L 355.55554 84.44444 L 355.55554 84.44444 L 355.55554 241.77777 L 355.55554 241.77777 L 14.222222 241.77777 L 0 241.77777 L 0 270.22223 L 0 270.22223 L 14.222222 270.22223 L 128 270.22223 L 128 427.55554 L 128 427.55554 L 66.666664 367.1111 L 66.666664 367.1111 L 56.88889 356.44446 L 56.88889 356.44446 L 36.444443 376.8889 L 36.444443 376.8889 L 47.11111 386.66666 L 47.11111 386.66666 L 132.44444 472 L 132.44444 472 L 142.22223 482.66666 L 142.22223 482.66666 Z M 128 71.111115 L 128 199.11111 L 128 71.111115 L 128 199.11111 L 156.44444 199.11111 L 156.44444 199.11111 L 156.44444 71.111115 L 156.44444 71.111115 L 156.44444 56.88889 L 156.44444 56.88889 L 128 56.88889 L 128 56.88889 L 128 71.111115 L 128 71.111115 Z M 355.55554 312.8889 L 355.55554 440.8889 L 355.55554 312.8889 L 355.55554 440.8889 L 355.55554 455.1111 L 355.55554 455.1111 L 384 455.1111 L 384 455.1111 L 384 440.8889 L 384 440.8889 L 384 312.8889 L 384 312.8889 L 355.55554 312.8889 L 355.55554 312.8889 Z" />
</svg>