<svg xmlns="http://www.w3.org/2000/svg" viewBox="0 0 512 512">
  <path d="M 45.22397476340694 62.18296529968454 L 25.842271293375394 62.18296529968454 L 45.22397476340694 62.18296529968454 L 25.842271293375394 62.18296529968454 L 25.842271293375394 81.56466876971609 L 25.842271293375394 81.56466876971609 L 25.842271293375394 178.47318611987382 L 25.842271293375394 178.47318611987382 L 25.842271293375394 197.85488958990535 L 25.842271293375394 197.85488958990535 L 25.842271293375394 217.23659305993692 L 25.842271293375394 217.23659305993692 L 25.842271293375394 296.37854889589903 L 25.842271293375394 296.37854889589903 Q 0.807570977917981 321.41324921135646 0 359.36908517350156 Q 0.807570977917981 398.1324921135647 26.649842271293377 423.16719242902207 Q 51.68454258675079 449.00946372239747 90.44794952681389 449.81703470031545 L 297.18611987381706 449.81703470031545 L 297.18611987381706 449.81703470031545 Q 335.94952681388014 449.00946372239747 360.9842271293375 423.16719242902207 Q 386.8264984227129 398.1324921135647 387.6340694006309 359.36908517350156 Q 387.6340694006309 334.3343848580442 375.5205047318612 314.1451104100946 L 413.4763406940063 314.1451104100946 L 413.4763406940063 314.1451104100946 L 413.4763406940063 359.36908517350156 L 413.4763406940063 359.36908517350156 L 413.4763406940063 366.6372239747634 L 413.4763406940063 366.6372239747634 L 418.3217665615142 372.2902208201893 L 418.3217665615142 372.2902208201893 L 482.9274447949527 443.3564668769716 L 482.9274447949527 443.3564668769716 L 512 417.51419558359623 L 512 417.51419558359623 L 452.2397476340694 352.1009463722398 L 452.2397476340694 352.1009463722398 L 452.2397476340694 237.42586750788644 L 452.2397476340694 237.42586750788644 L 512 172.01261829652998 L 512 172.01261829652998 L 482.9274447949527 146.17034700315457 L 482.9274447949527 146.17034700315457 L 418.3217665615142 217.23659305993692 L 418.3217665615142 217.23659305993692 L 413.4763406940063 222.88958990536278 L 413.4763406940063 222.88958990536278 L 413.4763406940063 230.1577287066246 L 413.4763406940063 230.1577287066246 L 413.4763406940063 275.38170347003154 L 413.4763406940063 275.38170347003154 L 361.79179810725554 275.38170347003154 L 361.79179810725554 275.38170347003154 L 361.79179810725554 197.85488958990535 L 361.79179810725554 197.85488958990535 L 361.79179810725554 178.47318611987382 L 361.79179810725554 178.47318611987382 L 342.41009463722395 178.47318611987382 L 303.64668769716087 178.47318611987382 L 303.64668769716087 133.24921135646687 L 303.64668769716087 133.24921135646687 L 303.64668769716087 113.86750788643533 L 303.64668769716087 113.86750788643533 L 264.8832807570978 113.86750788643533 L 264.8832807570978 113.86750788643533 L 264.8832807570978 133.24921135646687 L 264.8832807570978 133.24921135646687 L 264.8832807570978 178.47318611987382 L 264.8832807570978 178.47318611987382 L 222.0820189274448 178.47318611987382 L 222.0820189274448 178.47318611987382 L 172.82018927444796 73.48895899053628 L 172.82018927444796 73.48895899053628 L 167.1671924290221 62.18296529968454 L 167.1671924290221 62.18296529968454 L 155.05362776025237 62.18296529968454 L 45.22397476340694 62.18296529968454 Z M 179.2807570977918 178.47318611987382 L 64.60567823343848 178.47318611987382 L 179.2807570977918 178.47318611987382 L 64.60567823343848 178.47318611987382 L 64.60567823343848 100.94637223974763 L 64.60567823343848 100.94637223974763 L 142.94006309148264 100.94637223974763 L 142.94006309148264 100.94637223974763 L 179.2807570977918 178.47318611987382 L 179.2807570977918 178.47318611987382 Z M 323.0283911671924 272.9589905362776 Q 310.9148264984227 268.9211356466877 297.18611987381706 268.9211356466877 L 90.44794952681389 268.9211356466877 L 90.44794952681389 268.9211356466877 Q 76.71924290220821 268.9211356466877 64.60567823343848 272.9589905362776 L 64.60567823343848 217.23659305993692 L 64.60567823343848 217.23659305993692 L 323.0283911671924 217.23659305993692 L 323.0283911671924 217.23659305993692 L 323.0283911671924 272.9589905362776 L 323.0283911671924 272.9589905362776 Z M 90.44794952681389 307.6845425867508 L 297.18611987381706 307.6845425867508 L 90.44794952681389 307.6845425867508 L 297.18611987381706 307.6845425867508 Q 318.99053627760253 308.4921135646688 333.52681388012616 323.0283911671924 Q 348.06309148264984 337.5646687697161 348.8706624605678 359.36908517350156 Q 348.06309148264984 381.1735015772871 333.52681388012616 395.7097791798107 Q 318.99053627760253 410.2460567823344 297.18611987381706 411.05362776025237 L 90.44794952681389 411.05362776025237 L 90.44794952681389 411.05362776025237 Q 68.64353312302839 410.2460567823344 54.10725552050473 395.7097791798107 Q 39.570977917981075 381.1735015772871 38.76340694006309 359.36908517350156 Q 39.570977917981075 337.5646687697161 54.10725552050473 323.0283911671924 Q 68.64353312302839 308.4921135646688 90.44794952681389 307.6845425867508 L 90.44794952681389 307.6845425867508 Z M 116.29022082018928 359.36908517350156 Q 114.67507886435331 341.602523659306 96.90851735015772 339.98738170347 Q 79.14195583596215 341.602523659306 77.52681388012618 359.36908517350156 Q 79.14195583596215 377.13564668769715 96.90851735015772 378.7507886435331 Q 114.67507886435331 377.13564668769715 116.29022082018928 359.36908517350156 L 116.29022082018928 359.36908517350156 Z M 290.7255520504732 378.7507886435331 Q 308.4921135646688 377.13564668769715 310.10725552050474 359.36908517350156 Q 308.4921135646688 341.602523659306 290.7255520504732 339.98738170347 Q 272.9589905362776 341.602523659306 271.34384858044166 359.36908517350156 Q 272.9589905362776 377.13564668769715 290.7255520504732 378.7507886435331 L 290.7255520504732 378.7507886435331 Z M 245.50157728706625 359.36908517350156 Q 243.88643533123027 341.602523659306 226.1198738170347 339.98738170347 Q 208.35331230283913 341.602523659306 206.73817034700315 359.36908517350156 Q 208.35331230283913 377.13564668769715 226.1198738170347 378.7507886435331 Q 243.88643533123027 377.13564668769715 245.50157728706625 359.36908517350156 L 245.50157728706625 359.36908517350156 Z M 161.5141955835962 378.7507886435331 Q 179.2807570977918 377.13564668769715 180.89589905362777 359.36908517350156 Q 179.2807570977918 341.602523659306 161.5141955835962 339.98738170347 Q 143.74763406940062 341.602523659306 142.13249211356467 359.36908517350156 Q 143.74763406940062 377.13564668769715 161.5141955835962 378.7507886435331 L 161.5141955835962 378.7507886435331 Z" />
</svg>