<svg xmlns="http://www.w3.org/2000/svg" viewBox="0 0 512 512">
  <path d="M 192 64 L 192 208 L 192 64 L 192 208 L 32 208 L 32 208 L 32 64 L 32 64 L 192 64 L 192 64 Z M 32 32 L 0 32 L 32 32 L 0 32 L 0 64 L 0 64 L 0 208 L 0 208 L 0 240 L 0 240 L 32 240 L 224 240 L 224 208 L 224 208 L 224 64 L 224 64 L 224 32 L 224 32 L 192 32 L 32 32 Z M 192 304 L 192 448 L 192 304 L 192 448 L 32 448 L 32 448 L 32 304 L 32 304 L 192 304 L 192 304 Z M 32 272 L 0 272 L 32 272 L 0 272 L 0 304 L 0 304 L 0 448 L 0 448 L 0 480 L 0 480 L 32 480 L 224 480 L 224 448 L 224 448 L 224 304 L 224 304 L 224 272 L 224 272 L 192 272 L 32 272 Z M 288 64 L 480 64 L 288 64 L 480 64 L 480 128 L 480 128 L 288 128 L 288 128 L 288 64 L 288 64 Z M 256 32 L 256 64 L 256 32 L 256 64 L 256 128 L 256 128 L 256 160 L 256 160 L 288 160 L 512 160 L 512 128 L 512 128 L 512 64 L 512 64 L 512 32 L 512 32 L 480 32 L 256 32 Z M 480 224 L 480 288 L 480 224 L 480 288 L 288 288 L 288 288 L 288 224 L 288 224 L 480 224 L 480 224 Z M 288 192 L 256 192 L 288 192 L 256 192 L 256 224 L 256 224 L 256 288 L 256 288 L 256 320 L 256 320 L 288 320 L 512 320 L 512 288 L 512 288 L 512 224 L 512 224 L 512 192 L 512 192 L 480 192 L 288 192 Z M 288 384 L 480 384 L 288 384 L 480 384 L 480 448 L 480 448 L 288 448 L 288 448 L 288 384 L 288 384 Z M 256 352 L 256 384 L 256 352 L 256 384 L 256 448 L 256 448 L 256 480 L 256 480 L 288 480 L 512 480 L 512 448 L 512 448 L 512 384 L 512 384 L 512 352 L 512 352 L 480 352 L 256 352 Z" />
</svg>