<svg xmlns="http://www.w3.org/2000/svg" viewBox="0 0 512 512">
  <path d="M 344 128 L 368 128 L 344 128 L 368 128 Q 369 92 357 59 Q 368 32 390 11 L 400 0 L 400 0 L 424 8 L 424 8 L 427 20 L 427 20 Q 442 85 408 141 L 480 199 L 480 199 L 480 288 L 480 288 L 384 288 L 384 288 L 384 298 L 384 298 L 462 509 L 462 509 L 463 512 L 463 512 L 395 512 L 395 512 L 350 390 L 350 390 L 298 448 L 298 448 L 320 448 L 352 448 L 352 512 L 352 512 L 320 512 L 128 512 L 128 471 L 128 471 Q 112 487 88 488 Q 64 487 48 472 Q 33 456 32 432 Q 33 408 48 392 Q 64 377 88 376 Q 115 377 131 397 Q 143 336 185 295 Q 228 254 288 243 L 288 154 L 288 154 Q 242 94 254 19 L 256 8 L 256 8 L 288 0 L 288 0 L 298 10 L 298 10 Q 347 60 344 128 L 344 128 Z M 400 224 Q 415 223 416 208 Q 415 193 400 192 Q 385 193 384 208 Q 385 223 400 224 L 400 224 Z" />
</svg>