<svg viewBox="0 0 512 384">
  <path
    d="M 64 120 L 64 171 Q 96 153 144 141 Q 192 129 256 128 Q 320 129 368 141 Q 416 153 448 171 L 448 120 Q 431 104 384 85 Q 338 66 256 64 Q 174 66 128 85 Q 81 104 64 120 L 64 120 Z M 512 128 L 512 216 L 512 224 L 512 240 L 512 272 L 512 288 Q 496 315 434 348 Q 371 381 256 384 Q 141 381 78 348 Q 16 315 0 288 L 0 272 L 0 240 L 0 224 L 0 216 L 0 128 L 0 96 Q 16 69 78 36 Q 141 3 256 0 Q 371 3 434 36 Q 496 69 512 96 L 512 128 L 512 128 Z M 400 202 Q 349 178 256 176 Q 163 178 112 202 Q 169 223 256 224 Q 343 223 400 202 L 400 202 Z"
  />
</svg>