<svg viewBox="0 0 495 448">
  <path
    d="M 271 0 L 303 0 L 463 0 L 495 0 L 495 32 L 495 192 L 495 224 L 463 224 L 303 224 L 271 224 L 271 192 L 271 32 L 271 0 L 271 0 Z M 303 192 L 463 192 L 463 32 L 303 32 L 303 192 L 303 192 Z M 111 1 L 122 13 L 210 101 L 222 112 L 199 135 L 188 123 L 127 63 L 127 432 L 127 448 L 95 448 L 95 432 L 95 63 L 34 123 L 23 135 L 0 112 L 12 101 L 100 13 L 111 1 L 111 1 Z M 303 288 L 399 288 L 431 288 L 431 320 L 431 416 L 431 448 L 399 448 L 303 448 L 271 448 L 271 416 L 271 320 L 271 288 L 303 288 L 303 288 Z M 399 320 L 303 320 L 303 416 L 399 416 L 399 320 L 399 320 Z"
  />
</svg>