<svg xmlns="http://www.w3.org/2000/svg" viewBox="0 0 512 512">
  <path d="M 154.4 74 L 159.2 62 L 154.4 74 L 159.2 62 L 135.2 52.4 L 135.2 52.4 L 130.4 64.4 L 130.4 64.4 L 116 102.8 L 116 102.8 L 101.6 65.2 L 101.6 65.2 L 97.6 53.2 L 97.6 53.2 L 73.6 61.2 L 73.6 61.2 L 77.6 73.2 L 77.6 73.2 L 90.4 108.4 L 90.4 108.4 L 52 84.4 L 52 84.4 L 40.8 77.2 L 40.8 77.2 L 27.2 98.8 L 27.2 98.8 L 37.6 106 L 37.6 106 L 71.2 126.8 L 71.2 126.8 L 25.6 126.8 L 0 126.8 L 0 152.4 L 0 152.4 L 0 434 L 0 434 L 0 459.6 L 0 459.6 L 25.6 459.6 L 153.6 459.6 L 153.6 434 L 153.6 434 L 25.6 434 L 25.6 434 L 25.6 152.4 L 25.6 152.4 L 204.8 152.4 L 204.8 152.4 L 204.8 166 L 204.8 166 Q 214.4 150 230.4 139.6 L 230.4 126.8 L 230.4 126.8 L 204.8 126.8 L 159.2 126.8 L 192.8 106 L 192.8 106 L 203.2 98.8 L 203.2 98.8 L 189.6 77.2 L 189.6 77.2 L 178.4 84.4 L 178.4 84.4 L 141.6 107.6 L 141.6 107.6 L 154.4 74 L 154.4 74 Z M 289.6 188.4 L 320.8 229.2 L 289.6 188.4 L 320.8 229.2 L 313.6 229.2 L 268.8 229.2 Q 257.6 229.2 250.4 222 Q 243.2 214.8 243.2 203.6 Q 243.2 192.4 250.4 185.2 Q 258.4 178 268.8 178 Q 281.6 178 289.6 188.4 L 289.6 188.4 Z M 217.6 203.6 Q 217.6 218 224.8 229.2 L 204.8 229.2 L 179.2 229.2 L 179.2 254.8 L 179.2 254.8 L 179.2 434 L 179.2 434 L 179.2 459.6 L 179.2 459.6 L 204.8 459.6 L 512 459.6 L 512 434 L 512 434 L 512 254.8 L 512 254.8 L 512 229.2 L 512 229.2 L 486.4 229.2 L 466.4 229.2 Q 473.6 218 473.6 203.6 Q 472.8 182 458.4 167.6 Q 444 153.2 422.4 152.4 Q 397.6 153.2 381.6 172.4 L 345.6 218.8 L 345.6 218.8 L 309.6 172.4 L 309.6 172.4 Q 293.6 153.2 268.8 152.4 Q 247.2 153.2 232.8 167.6 Q 218.4 182 217.6 203.6 L 217.6 203.6 Z M 204.8 254.8 L 268.8 254.8 L 204.8 254.8 L 332.8 254.8 L 332.8 331.6 L 332.8 331.6 L 204.8 331.6 L 204.8 331.6 L 204.8 254.8 L 204.8 254.8 Z M 204.8 434 L 204.8 357.2 L 204.8 434 L 204.8 357.2 L 332.8 357.2 L 332.8 357.2 L 332.8 434 L 332.8 434 L 204.8 434 L 204.8 434 Z M 486.4 434 L 358.4 434 L 486.4 434 L 358.4 434 L 358.4 357.2 L 358.4 357.2 L 486.4 357.2 L 486.4 357.2 L 486.4 434 L 486.4 434 Z M 486.4 254.8 L 486.4 331.6 L 486.4 254.8 L 486.4 331.6 L 358.4 331.6 L 358.4 331.6 L 358.4 254.8 L 358.4 254.8 L 377.6 254.8 L 486.4 254.8 Z M 377.6 229.2 L 370.4 229.2 L 377.6 229.2 L 370.4 229.2 L 401.6 188.4 L 401.6 188.4 Q 409.6 178 422.4 178 Q 432.8 178 440.8 185.2 Q 448 192.4 448 203.6 Q 448 214.8 440.8 222 Q 433.6 229.2 422.4 229.2 L 377.6 229.2 L 377.6 229.2 Z" />
</svg>