<svg xmlns="http://www.w3.org/2000/svg" viewBox="0 0 512 512">
  <path d="M 0 36.57143 L 512 36.57143 L 0 36.57143 L 512 36.57143 L 512 109.71429 L 512 109.71429 L 0 109.71429 L 0 109.71429 L 0 36.57143 L 0 36.57143 Z M 0 219.42857 L 365.7143 219.42857 L 0 219.42857 L 365.7143 219.42857 L 365.7143 292.57144 L 365.7143 292.57144 L 0 292.57144 L 0 292.57144 L 0 219.42857 L 0 219.42857 Z M 219.42857 402.2857 L 219.42857 475.42856 L 219.42857 402.2857 L 219.42857 475.42856 L 0 475.42856 L 0 475.42856 L 0 402.2857 L 0 402.2857 L 219.42857 402.2857 L 219.42857 402.2857 Z" />
</svg>