<svg xmlns="http://www.w3.org/2000/svg" viewBox="0 0 448 512">
    <path d="M 288 32 L 208 32 L 208 64 L 288 64 Q 303 63 304 48 Q 303 33 288 32 L 288 32 Z M 176 64 L 168 64 Q 148 65 134 78 Q 121 92 120 112 L 120 160 L 432 160 L 448 160 L 448 192 L 432 192 L 16 192 L 0 192 L 0 160 L 16 160 L 88 160 L 88 112 Q 89 78 111 55 Q 134 33 168 32 L 176 32 L 176 0 L 208 0 L 288 0 Q 308 1 322 14 Q 335 28 336 48 Q 335 68 322 82 Q 308 95 288 96 L 208 96 L 176 96 L 176 64 L 176 64 Z M 80 512 L 47 224 L 80 224 L 109 480 L 339 480 L 369 224 L 401 224 L 368 512 L 80 512 L 80 512 Z"/>
</svg>
