<svg xmlns="http://www.w3.org/2000/svg" viewBox="0 0 512 512">
  <path d="M 0 16 L 32 16 L 0 16 L 256 16 L 256 80 L 256 80 L 224 80 L 224 80 L 224 251 L 224 251 Q 193 295 192 352 Q 192 390 207 423 Q 179 462 128 464 Q 87 463 60 436 Q 33 409 32 368 L 32 80 L 32 80 L 0 80 L 0 80 L 0 16 L 0 16 Z M 96 80 L 96 176 L 96 80 L 96 176 L 160 176 L 160 176 L 160 80 L 160 80 L 96 80 L 96 80 Z M 224 352 Q 224 313 243 280 L 243 280 L 243 280 Q 262 247 296 227 Q 330 208 368 208 Q 406 208 440 227 Q 474 247 493 280 Q 512 313 512 352 Q 512 391 493 424 Q 474 457 440 477 Q 406 496 368 496 Q 330 496 296 477 Q 262 457 243 424 Q 224 391 224 352 L 224 352 Z M 447 320 L 424 297 L 447 320 L 424 297 L 413 309 L 413 309 L 352 369 L 352 369 L 323 341 L 323 341 L 312 329 L 312 329 L 289 352 L 289 352 L 301 363 L 301 363 L 341 403 L 341 403 L 352 415 L 352 415 L 363 403 L 363 403 L 435 331 L 435 331 L 447 320 L 447 320 Z" />
</svg>