<svg xmlns="http://www.w3.org/2000/svg" viewBox="0 0 512 512">
  <path d="M 256 64 L 224 0 L 256 64 L 224 0 L 192 0 L 192 0 L 160 64 L 160 64 L 128 0 L 128 0 L 64 0 L 64 0 L 64 256 L 64 256 L 448 256 L 448 256 L 448 0 L 448 0 L 288 0 L 288 0 L 256 64 L 256 64 Z M 64 288 L 64 384 L 64 288 L 64 384 L 192 384 L 192 384 L 192 512 L 192 512 L 320 512 L 320 512 L 320 384 L 320 384 L 448 384 L 448 384 L 448 288 L 448 288 L 64 288 L 64 288 Z M 256 432 Q 271 433 272 448 Q 271 463 256 464 Q 241 463 240 448 Q 241 433 256 432 L 256 432 Z" />
</svg>