<svg xmlns="http://www.w3.org/2000/svg" viewBox="0 0 512 512">
  <path d="M 420.57142857142856 256 L 420.57142857142856 484.57142857142856 L 420.57142857142856 256 L 420.57142857142856 484.57142857142856 L 420.57142857142856 512 L 420.57142857142856 512 L 475.42857142857144 512 L 475.42857142857144 512 L 475.42857142857144 484.57142857142856 L 475.42857142857144 484.57142857142856 L 475.42857142857144 219.42857142857142 L 475.42857142857144 219.42857142857142 L 475.42857142857144 27.428571428571427 L 475.42857142857144 27.428571428571427 L 475.42857142857144 0 L 475.42857142857144 0 L 420.57142857142856 0 L 420.57142857142856 0 L 420.57142857142856 27.428571428571427 L 420.57142857142856 27.428571428571427 L 420.57142857142856 201.14285714285714 L 420.57142857142856 201.14285714285714 L 91.42857142857143 201.14285714285714 L 91.42857142857143 201.14285714285714 L 91.42857142857143 27.428571428571427 L 91.42857142857143 27.428571428571427 L 91.42857142857143 0 L 91.42857142857143 0 L 36.57142857142857 0 L 36.57142857142857 0 L 36.57142857142857 27.428571428571427 L 36.57142857142857 27.428571428571427 L 36.57142857142857 484.57142857142856 L 36.57142857142857 484.57142857142856 L 36.57142857142857 512 L 36.57142857142857 512 L 91.42857142857143 512 L 91.42857142857143 512 L 91.42857142857143 484.57142857142856 L 91.42857142857143 484.57142857142856 L 91.42857142857143 256 L 91.42857142857143 256 L 420.57142857142856 256 L 420.57142857142856 256 Z" />
</svg>