<svg xmlns="http://www.w3.org/2000/svg" viewBox="0 0 512 512">
  <path d="M 0 0 L 0 18.285715 L 0 0 L 0 18.285715 L 0 493.7143 L 0 493.7143 L 0 512 L 0 512 L 36.57143 512 L 36.57143 512 L 36.57143 493.7143 L 36.57143 493.7143 L 36.57143 77.71429 L 36.57143 77.71429 L 241.14285 376 L 241.14285 376 L 256 397.7143 L 256 397.7143 L 270.85715 376 L 270.85715 376 L 475.42856 77.71429 L 475.42856 77.71429 L 475.42856 493.7143 L 475.42856 493.7143 L 475.42856 512 L 475.42856 512 L 512 512 L 512 512 L 512 493.7143 L 512 493.7143 L 512 18.285715 L 512 18.285715 L 512 0 L 512 0 L 484.57144 0 L 484.57144 0 L 478.85715 8 L 478.85715 8 L 256 333.7143 L 256 333.7143 L 33.142857 8 L 33.142857 8 L 27.428572 0 L 27.428572 0 L 0 0 L 0 0 Z" />
</svg>