<svg xmlns="http://www.w3.org/2000/svg" viewBox="0 0 512 512">
  <path d="M 122.25641025641026 459.4871794871795 L 0 321.64102564102564 L 122.25641025641026 459.4871794871795 L 0 321.64102564102564 L 122.25641025641026 183.7948717948718 L 122.25641025641026 183.7948717948718 L 190.35897435897436 183.7948717948718 L 190.35897435897436 183.7948717948718 L 190.35897435897436 236.30769230769232 L 190.35897435897436 236.30769230769232 L 361.02564102564105 236.30769230769232 L 361.02564102564105 236.30769230769232 L 361.02564102564105 288.8205128205128 L 361.02564102564105 288.8205128205128 L 371.6923076923077 288.8205128205128 L 371.6923076923077 288.8205128205128 L 459.4871794871795 190.35897435897436 L 459.4871794871795 190.35897435897436 L 371.6923076923077 91.8974358974359 L 371.6923076923077 91.8974358974359 L 361.02564102564105 91.8974358974359 L 361.02564102564105 91.8974358974359 L 361.02564102564105 144.4102564102564 L 361.02564102564105 144.4102564102564 L 236.30769230769232 144.4102564102564 L 236.30769230769232 144.4102564102564 L 236.30769230769232 105.02564102564102 L 236.30769230769232 105.02564102564102 L 321.64102564102564 105.02564102564102 L 321.64102564102564 105.02564102564102 L 321.64102564102564 52.51282051282051 L 321.64102564102564 52.51282051282051 L 389.7435897435897 52.51282051282051 L 389.7435897435897 52.51282051282051 L 512 190.35897435897436 L 512 190.35897435897436 L 389.7435897435897 328.20512820512823 L 389.7435897435897 328.20512820512823 L 321.64102564102564 328.20512820512823 L 321.64102564102564 328.20512820512823 L 321.64102564102564 275.6923076923077 L 321.64102564102564 275.6923076923077 L 150.97435897435898 275.6923076923077 L 150.97435897435898 275.6923076923077 L 150.97435897435898 223.17948717948718 L 150.97435897435898 223.17948717948718 L 140.30769230769232 223.17948717948718 L 140.30769230769232 223.17948717948718 L 52.51282051282051 321.64102564102564 L 52.51282051282051 321.64102564102564 L 140.30769230769232 420.1025641025641 L 140.30769230769232 420.1025641025641 L 150.97435897435898 420.1025641025641 L 150.97435897435898 420.1025641025641 L 150.97435897435898 367.5897435897436 L 150.97435897435898 367.5897435897436 L 275.6923076923077 367.5897435897436 L 275.6923076923077 367.5897435897436 L 275.6923076923077 406.97435897435895 L 275.6923076923077 406.97435897435895 L 190.35897435897436 406.97435897435895 L 190.35897435897436 406.97435897435895 L 190.35897435897436 459.4871794871795 L 190.35897435897436 459.4871794871795 L 122.25641025641026 459.4871794871795 L 122.25641025641026 459.4871794871795 Z" />
</svg>