<svg xmlns="http://www.w3.org/2000/svg" viewBox="0 0 512 512">
  <path d="M 182.85715 144 Q 184 106.28571 209.14285 81.14286 L 209.14285 81.14286 L 209.14285 81.14286 Q 234.28572 56 272 54.857143 Q 288 54.857143 302.85715 60.57143 L 384 90.28571 L 384 90.28571 L 409.14285 99.42857 L 409.14285 99.42857 L 428.57144 48 L 428.57144 48 L 402.2857 38.857143 L 402.2857 38.857143 L 321.14285 9.142858 L 321.14285 9.142858 Q 297.14285 0 272 0 Q 210.28572 1.1428572 170.28572 42.285713 Q 129.14285 82.28571 128 144 L 128 182.85715 L 128 182.85715 L 73.14286 182.85715 L 73.14286 182.85715 L 73.14286 237.71428 L 73.14286 237.71428 L 128 237.71428 L 128 237.71428 L 128 292.57144 L 128 292.57144 L 73.14286 292.57144 L 73.14286 292.57144 L 73.14286 347.42856 L 73.14286 347.42856 L 122.28571 347.42856 L 122.28571 347.42856 L 75.42857 465.14285 L 75.42857 465.14285 L 73.14286 469.7143 L 73.14286 469.7143 L 73.14286 475.42856 L 73.14286 475.42856 L 73.14286 484.57144 L 73.14286 484.57144 L 73.14286 512 L 73.14286 512 L 100.57143 512 L 438.85715 512 L 438.85715 457.14285 L 438.85715 457.14285 L 411.42856 457.14285 L 137.14285 457.14285 L 180.57143 348.57144 L 180.57143 348.57144 L 181.71428 347.42856 L 181.71428 347.42856 L 365.7143 347.42856 L 365.7143 347.42856 L 365.7143 292.57144 L 365.7143 292.57144 L 182.85715 292.57144 L 182.85715 292.57144 L 182.85715 237.71428 L 182.85715 237.71428 L 365.7143 237.71428 L 365.7143 237.71428 L 365.7143 182.85715 L 365.7143 182.85715 L 182.85715 182.85715 L 182.85715 182.85715 L 182.85715 144 L 182.85715 144 Z" />
</svg>