<svg xmlns="http://www.w3.org/2000/svg" viewBox="0 0 512 512">
  <path d="M 64 53.2 L 72.8 60.4 L 64 53.2 L 72.8 60.4 L 91.2 76.4 L 91.2 76.4 Q 124 106.8 128 151.6 L 128 151.6 L 128 151.6 L 128 158.8 L 128 158.8 L 128 177.2 L 128 177.2 L 128 241.2 L 128 241.2 L 128 254 L 128 254 L 102.4 254 L 102.4 254 L 102.4 241.2 L 102.4 241.2 L 102.4 177.2 L 102.4 177.2 L 25.6 177.2 L 25.6 177.2 L 25.6 190 L 25.6 190 L 25.6 433.2 L 25.6 433.2 L 89.6 433.2 L 102.4 433.2 L 102.4 458.8 L 102.4 458.8 L 89.6 458.8 L 0 458.8 L 0 446 L 0 446 L 0 190 L 0 190 L 0 158.8 L 0 158.8 Q 0.8 109.2 36.8 76.4 L 56 60.4 L 56 60.4 L 64 53.2 L 64 53.2 Z M 25.6 151.6 L 102.4 151.6 L 25.6 151.6 L 102.4 151.6 Q 99.2 118 73.6 95.6 L 64 86.8 L 64 86.8 L 54.4 95.6 L 54.4 95.6 Q 28.8 118 25.6 151.6 L 25.6 151.6 Z M 320 53.2 L 330.4 66.8 L 320 53.2 L 330.4 66.8 Q 348.8 91.6 372 108.4 Q 395.2 126 424 142.8 Q 424 142.8 424 142.8 L 424 142.8 L 424 142.8 L 424 142.8 L 424 142.8 Q 436.8 150.8 451.2 159.6 Q 485.6 183.6 486.4 225.2 Q 485.6 257.2 464.8 279.6 L 499.2 279.6 L 512 279.6 L 512 292.4 L 512 292.4 L 512 446 L 512 446 L 512 458.8 L 512 458.8 L 499.2 458.8 L 128 458.8 L 128 446 L 128 446 L 128 292.4 L 128 292.4 L 128 279.6 L 128 279.6 L 140.8 279.6 L 175.2 279.6 Q 154.4 257.2 153.6 225.2 Q 154.4 183.6 188.8 159.6 Q 203.2 150.8 216 142.8 Q 216 142.8 216 142.8 Q 244.8 126 268 108.4 Q 291.2 91.6 309.6 66.8 L 320 53.2 L 320 53.2 Z M 345.6 433.2 L 345.6 388.4 L 345.6 433.2 L 345.6 388.4 Q 345.6 375.6 335.2 367.6 L 320 356.4 L 320 356.4 L 304.8 367.6 L 304.8 367.6 Q 294.4 375.6 294.4 388.4 L 294.4 433.2 L 294.4 433.2 L 345.6 433.2 L 345.6 433.2 Z M 371.2 433.2 L 409.6 433.2 L 371.2 433.2 L 409.6 433.2 L 409.6 382 L 409.6 382 L 409.6 356.4 L 409.6 356.4 L 435.2 356.4 L 435.2 356.4 L 435.2 382 L 435.2 382 L 435.2 433.2 L 435.2 433.2 L 486.4 433.2 L 486.4 433.2 L 486.4 305.2 L 486.4 305.2 L 406.4 305.2 L 153.6 305.2 L 153.6 433.2 L 153.6 433.2 L 204.8 433.2 L 204.8 433.2 L 204.8 382 L 204.8 382 L 204.8 356.4 L 204.8 356.4 L 230.4 356.4 L 230.4 356.4 L 230.4 382 L 230.4 382 L 230.4 433.2 L 230.4 433.2 L 268.8 433.2 L 268.8 433.2 L 268.8 388.4 L 268.8 388.4 Q 269.6 362.8 289.6 347.6 L 320 324.4 L 320 324.4 L 350.4 347.6 L 350.4 347.6 Q 370.4 362.8 371.2 388.4 L 371.2 433.2 L 371.2 433.2 Z M 460.8 225.2 Q 460 196.4 437.6 181.2 Q 425.6 174 414.4 166.8 Q 412.8 166 412 165.2 Q 412 165.2 412 165.2 Q 386.4 150 363.2 133.2 Q 340 117.2 320 94.8 Q 300 117.2 276.8 133.2 Q 253.6 150 228 165.2 Q 228 165.2 228 165.2 L 228 165.2 L 228 165.2 L 228 165.2 L 228 165.2 Q 227.2 166 225.6 166.8 Q 214.4 174 202.4 181.2 Q 180 196.4 179.2 225.2 Q 180 248.4 195.2 263.6 Q 210.4 278.8 233.6 279.6 L 320 279.6 L 406.4 279.6 Q 429.6 278.8 444.8 263.6 Q 460 248.4 460.8 225.2 L 460.8 225.2 Z" />
</svg>