<svg xmlns="http://www.w3.org/2000/svg" viewBox="0 0 512 512">
  <path d="M 336 0 L 352 32 L 336 0 L 352 32 L 480 32 L 480 32 L 480 96 L 480 96 L 32 96 L 32 96 L 32 32 L 32 32 L 160 32 L 160 32 L 176 0 L 176 0 L 336 0 L 336 0 Z M 64 128 L 448 128 L 64 128 L 448 128 L 448 512 L 448 512 L 64 512 L 64 512 L 64 128 L 64 128 Z M 354 256 L 320 222 L 354 256 L 320 222 L 303 239 L 303 239 L 256 286 L 256 286 L 209 239 L 209 239 L 192 222 L 192 222 L 158 256 L 158 256 L 175 273 L 175 273 L 222 320 L 222 320 L 175 367 L 175 367 L 158 384 L 158 384 L 192 418 L 192 418 L 209 401 L 209 401 L 256 354 L 256 354 L 303 401 L 303 401 L 320 418 L 320 418 L 354 384 L 354 384 L 337 367 L 337 367 L 290 320 L 290 320 L 337 273 L 337 273 L 354 256 L 354 256 Z" />
</svg>