<svg xmlns="http://www.w3.org/2000/svg" viewBox="0 0 512 512">
  <path d="M 36.57143 36.57143 L 36.57143 475.42856 L 36.57143 36.57143 L 36.57143 475.42856 L 475.42856 475.42856 L 475.42856 475.42856 L 475.42856 36.57143 L 475.42856 36.57143 L 36.57143 36.57143 L 36.57143 36.57143 Z M 0 0 L 36.57143 0 L 0 0 L 512 0 L 512 36.57143 L 512 36.57143 L 512 475.42856 L 512 475.42856 L 512 512 L 512 512 L 475.42856 512 L 0 512 L 0 475.42856 L 0 475.42856 L 0 36.57143 L 0 36.57143 L 0 0 L 0 0 Z M 146.28572 109.71429 L 173.71428 109.71429 L 146.28572 109.71429 L 173.71428 109.71429 L 179.42857 117.71429 L 179.42857 117.71429 L 329.14285 326.85715 L 329.14285 326.85715 L 329.14285 128 L 329.14285 128 L 329.14285 109.71429 L 329.14285 109.71429 L 365.7143 109.71429 L 365.7143 109.71429 L 365.7143 128 L 365.7143 128 L 365.7143 384 L 365.7143 384 L 365.7143 402.2857 L 365.7143 402.2857 L 338.2857 402.2857 L 338.2857 402.2857 L 332.57144 394.2857 L 332.57144 394.2857 L 182.85715 185.14285 L 182.85715 185.14285 L 182.85715 384 L 182.85715 384 L 182.85715 402.2857 L 182.85715 402.2857 L 146.28572 402.2857 L 146.28572 402.2857 L 146.28572 384 L 146.28572 384 L 146.28572 128 L 146.28572 128 L 146.28572 109.71429 L 146.28572 109.71429 Z" />
</svg>