<svg xmlns="http://www.w3.org/2000/svg" viewBox="0 0 512 512">
  <path d="M 112 48 L 112 464 L 112 48 L 112 464 L 208 464 L 208 464 L 208 352 L 208 352 L 304 352 L 304 352 L 304 464 L 304 464 L 400 464 L 400 464 L 400 48 L 400 48 L 112 48 L 112 48 Z M 64 0 L 112 0 L 64 0 L 448 0 L 448 48 L 448 48 L 448 464 L 448 464 L 448 512 L 448 512 L 400 512 L 64 512 L 64 464 L 64 464 L 64 48 L 64 48 L 64 0 L 64 0 Z M 232 328 L 152 328 L 232 328 L 152 328 L 152 248 L 152 248 L 232 248 L 232 248 L 232 328 L 232 328 Z M 280 248 L 360 248 L 280 248 L 360 248 L 360 328 L 360 328 L 280 328 L 280 328 L 280 248 L 280 248 Z M 176 96 L 176 160 L 176 96 L 176 160 Q 177 175 192 176 Q 207 175 208 160 L 208 96 L 208 96 L 208 80 L 208 80 L 240 80 L 240 80 L 240 96 L 240 96 L 240 160 L 240 160 Q 239 180 226 194 Q 212 207 192 208 Q 172 207 158 194 Q 145 180 144 160 L 144 96 L 144 96 L 144 80 L 144 80 L 176 80 L 176 80 L 176 96 L 176 96 Z M 288 80 L 296 80 L 288 80 L 306 80 L 310 89 L 310 89 L 336 140 L 336 140 L 336 96 L 336 96 L 336 80 L 336 80 L 368 80 L 368 80 L 368 96 L 368 96 L 368 192 L 368 192 L 368 208 L 368 208 L 352 208 L 334 208 L 330 199 L 330 199 L 304 148 L 304 148 L 304 192 L 304 192 L 304 208 L 304 208 L 272 208 L 272 208 L 272 192 L 272 192 L 272 96 L 272 96 L 272 80 L 272 80 L 288 80 L 288 80 Z" />
</svg>