<svg viewBox="0 0 511 446">
  <path
    d="M 416 0 L 427 12 L 495 79 L 496 79 L 496 80 L 499 84 L 511 95 L 499 106 L 496 110 L 496 111 L 495 111 L 427 178 L 416 190 L 393 167 L 405 156 L 449 111 L 400 111 L 327 111 L 215 223 L 327 335 L 400 335 L 449 335 L 405 290 L 393 279 L 416 256 L 427 268 L 495 335 L 496 335 L 496 336 L 499 340 L 511 351 L 499 362 L 496 366 L 496 367 L 495 367 L 427 434 L 416 446 L 393 423 L 405 412 L 449 367 L 400 367 L 320 367 L 313 367 L 309 362 L 185 239 L 48 239 L 32 239 L 16 239 L 0 239 L 0 207 L 16 207 L 32 207 L 48 207 L 185 207 L 309 84 L 313 79 L 320 79 L 400 79 L 449 79 L 405 34 L 393 23 L 416 0 L 416 0 Z"
  />
</svg>