<svg viewBox="0 0 384 448">
  <path
    d="M 144 96 Q 171 95 186 72 Q 198 48 186 24 Q 171 1 144 0 Q 117 1 102 24 Q 90 48 102 72 Q 117 95 144 96 L 144 96 Z M 112 128 L 88 128 L 88 152 L 88 272 Q 89 296 104 312 Q 120 327 144 328 L 184 328 L 259 328 L 272 427 L 275 448 L 296 448 L 360 448 L 384 448 L 384 400 L 360 400 L 317 400 L 304 301 L 301 280 L 280 280 L 208 280 L 208 224 L 264 224 L 288 224 L 288 176 L 264 176 L 208 176 L 208 152 L 208 128 L 184 128 L 112 128 L 112 128 Z M 160 176 L 160 280 L 144 280 Q 137 279 136 272 L 136 176 L 160 176 L 160 176 Z M 48 120 L 48 96 L 0 96 L 0 120 L 0 392 L 0 416 L 24 416 L 200 416 L 224 416 L 224 368 L 200 368 L 48 368 L 48 120 L 48 120 Z"
  />
</svg>