<svg viewBox="0 0 512 448">
  <path
    d="M 128 48 L 128 400 L 48 400 L 48 48 L 128 48 L 128 48 Z M 48 448 L 128 448 L 176 448 L 464 448 L 512 448 L 512 400 L 512 48 L 512 0 L 464 0 L 176 0 L 128 0 L 48 0 L 0 0 L 0 48 L 0 400 L 0 448 L 48 448 L 48 448 Z M 176 400 L 176 48 L 464 48 L 464 400 L 176 400 L 176 400 Z M 256 352 Q 283 351 298 328 Q 310 304 298 280 Q 283 257 256 256 Q 229 257 214 280 Q 202 304 214 328 Q 229 351 256 352 L 256 352 Z M 336 256 L 336 288 L 352 288 L 416 288 L 432 288 L 432 256 L 416 256 L 352 256 L 336 256 L 336 256 Z M 336 320 L 336 352 L 352 352 L 416 352 L 432 352 L 432 320 L 416 320 L 352 320 L 336 320 L 336 320 Z M 432 80 L 208 80 L 208 208 L 432 208 L 432 80 L 432 80 Z"
  />
</svg>