<svg xmlns="http://www.w3.org/2000/svg" viewBox="0 0 512 512">
  <path d="M 221.1764705882353 55.529411764705884 L 180.7058823529412 75.29411764705883 L 221.1764705882353 55.529411764705884 L 180.7058823529412 75.29411764705883 L 221.1764705882353 95.05882352941177 L 221.1764705882353 95.05882352941177 L 240.94117647058823 135.52941176470588 L 240.94117647058823 135.52941176470588 L 260.70588235294116 95.05882352941177 L 260.70588235294116 95.05882352941177 L 301.1764705882353 75.29411764705883 L 301.1764705882353 75.29411764705883 L 260.70588235294116 55.529411764705884 L 260.70588235294116 55.529411764705884 L 240.94117647058823 15.058823529411764 L 240.94117647058823 15.058823529411764 L 221.1764705882353 55.529411764705884 L 221.1764705882353 55.529411764705884 Z M 361.4117647058824 195.76470588235293 L 331.29411764705884 165.64705882352942 L 361.4117647058824 195.76470588235293 L 331.29411764705884 165.64705882352942 L 406.5882352941176 89.41176470588235 L 406.5882352941176 89.41176470588235 L 437.6470588235294 120.47058823529412 L 437.6470588235294 120.47058823529412 L 361.4117647058824 195.76470588235293 L 361.4117647058824 195.76470588235293 Z M 90.3529411764706 45.1764705882353 L 60.23529411764706 105.41176470588235 L 90.3529411764706 45.1764705882353 L 60.23529411764706 105.41176470588235 L 0 135.52941176470588 L 0 135.52941176470588 L 60.23529411764706 165.64705882352942 L 60.23529411764706 165.64705882352942 L 90.3529411764706 225.88235294117646 L 90.3529411764706 225.88235294117646 L 120.47058823529412 165.64705882352942 L 120.47058823529412 165.64705882352942 L 180.7058823529412 135.52941176470588 L 180.7058823529412 135.52941176470588 L 120.47058823529412 105.41176470588235 L 120.47058823529412 105.41176470588235 L 90.3529411764706 45.1764705882353 L 90.3529411764706 45.1764705882353 Z M 391.52941176470586 346.3529411764706 L 331.29411764705884 376.47058823529414 L 391.52941176470586 346.3529411764706 L 331.29411764705884 376.47058823529414 L 391.52941176470586 406.5882352941176 L 391.52941176470586 406.5882352941176 L 421.6470588235294 466.8235294117647 L 421.6470588235294 466.8235294117647 L 451.7647058823529 406.5882352941176 L 451.7647058823529 406.5882352941176 L 512 376.47058823529414 L 512 376.47058823529414 L 451.7647058823529 346.3529411764706 L 451.7647058823529 346.3529411764706 L 421.6470588235294 286.11764705882354 L 421.6470588235294 286.11764705882354 L 391.52941176470586 346.3529411764706 L 391.52941176470586 346.3529411764706 Z M 135.52941176470588 496.94117647058823 L 173.1764705882353 459.29411764705884 L 135.52941176470588 496.94117647058823 L 173.1764705882353 459.29411764705884 L 474.3529411764706 158.11764705882354 L 474.3529411764706 158.11764705882354 L 512 120.47058823529412 L 512 120.47058823529412 L 474.3529411764706 82.82352941176471 L 474.3529411764706 82.82352941176471 L 444.2352941176471 52.705882352941174 L 444.2352941176471 52.705882352941174 L 406.5882352941176 15.058823529411764 L 406.5882352941176 15.058823529411764 L 368.94117647058823 52.705882352941174 L 368.94117647058823 52.705882352941174 L 67.76470588235294 353.88235294117646 L 67.76470588235294 353.88235294117646 L 30.11764705882353 391.52941176470586 L 30.11764705882353 391.52941176470586 L 67.76470588235294 429.1764705882353 L 67.76470588235294 429.1764705882353 L 97.88235294117646 459.29411764705884 L 97.88235294117646 459.29411764705884 L 135.52941176470588 496.94117647058823 L 135.52941176470588 496.94117647058823 Z" />
</svg>