<svg xmlns="http://www.w3.org/2000/svg" viewBox="0 0 512 512">
  <path d="M 213.33333333333334 6.023529411764706 L 198.27450980392157 0 L 213.33333333333334 6.023529411764706 L 198.27450980392157 0 L 192.25098039215686 14.054901960784314 L 192.25098039215686 14.054901960784314 L 180.20392156862746 43.168627450980395 L 180.20392156862746 43.168627450980395 L 168.15686274509804 14.054901960784314 L 168.15686274509804 14.054901960784314 L 162.13333333333333 0 L 162.13333333333333 0 L 147.07450980392156 6.023529411764706 L 147.07450980392156 6.023529411764706 L 72.7843137254902 37.14509803921569 L 72.7843137254902 37.14509803921569 L 58.72941176470588 43.168627450980395 L 58.72941176470588 43.168627450980395 L 64.75294117647059 58.227450980392156 L 64.75294117647059 58.227450980392156 L 79.81176470588235 95.37254901960785 L 79.81176470588235 95.37254901960785 L 118.96470588235294 186.72941176470587 L 118.96470588235294 186.72941176470587 L 96.87843137254902 238.93333333333334 L 96.87843137254902 238.93333333333334 L 83.82745098039216 238.93333333333334 L 67.76470588235294 238.93333333333334 L 67.76470588235294 254.99607843137255 L 67.76470588235294 254.99607843137255 L 67.76470588235294 351.37254901960785 L 67.76470588235294 351.37254901960785 Q 69.77254901960784 419.6392156862745 114.94901960784314 464.8156862745098 Q 160.12549019607843 509.9921568627451 228.3921568627451 512 L 292.64313725490194 512 L 292.64313725490194 512 Q 356.8941176470588 510.99607843137255 401.06666666666666 469.83529411764704 Q 445.2392156862745 429.678431372549 452.26666666666665 367.43529411764706 L 453.2705882352941 367.43529411764706 L 453.2705882352941 367.43529411764706 L 453.2705882352941 351.37254901960785 L 453.2705882352941 351.37254901960785 L 453.2705882352941 351.37254901960785 L 453.2705882352941 351.37254901960785 L 453.2705882352941 238.93333333333334 L 453.2705882352941 238.93333333333334 L 453.2705882352941 222.87058823529412 L 453.2705882352941 222.87058823529412 L 453.2705882352941 206.8078431372549 L 453.2705882352941 206.8078431372549 L 453.2705882352941 190.7450980392157 L 453.2705882352941 190.7450980392157 L 437.2078431372549 190.7450980392157 L 372.956862745098 190.7450980392157 L 372.956862745098 174.68235294117648 L 372.956862745098 174.68235294117648 L 356.8941176470588 174.68235294117648 L 260.5176470588235 174.68235294117648 L 260.5176470588235 190.7450980392157 L 260.5176470588235 190.7450980392157 L 260.5176470588235 232.90980392156862 L 260.5176470588235 232.90980392156862 L 241.44313725490196 186.72941176470587 L 241.44313725490196 186.72941176470587 L 280.5960784313726 95.37254901960785 L 280.5960784313726 95.37254901960785 L 295.6549019607843 58.227450980392156 L 295.6549019607843 58.227450980392156 L 301.678431372549 43.168627450980395 L 301.678431372549 43.168627450980395 L 287.6235294117647 37.14509803921569 L 287.6235294117647 37.14509803921569 L 213.33333333333334 6.023529411764706 L 213.33333333333334 6.023529411764706 Z M 224.3764705882353 227.89019607843136 L 228.3921568627451 238.93333333333334 L 224.3764705882353 227.89019607843136 L 228.3921568627451 238.93333333333334 L 219.35686274509803 238.93333333333334 L 219.35686274509803 238.93333333333334 L 224.3764705882353 227.89019607843136 L 224.3764705882353 227.89019607843136 Z M 137.03529411764706 145.5686274509804 L 109.92941176470588 82.32156862745099 L 137.03529411764706 145.5686274509804 L 109.92941176470588 82.32156862745099 L 100.89411764705882 60.23529411764706 L 100.89411764705882 60.23529411764706 L 145.06666666666666 42.16470588235294 L 145.06666666666666 42.16470588235294 L 154.10196078431372 64.25098039215686 L 154.10196078431372 64.25098039215686 L 163.13725490196077 84.32941176470588 L 163.13725490196077 84.32941176470588 L 137.03529411764706 145.5686274509804 L 137.03529411764706 145.5686274509804 Z M 104.90980392156862 271.05882352941177 L 260.5176470588235 271.05882352941177 L 104.90980392156862 271.05882352941177 L 260.5176470588235 271.05882352941177 L 260.5176470588235 319.2470588235294 L 260.5176470588235 319.2470588235294 L 180.20392156862746 319.2470588235294 L 164.14117647058825 319.2470588235294 L 164.14117647058825 351.37254901960785 L 164.14117647058825 351.37254901960785 L 180.20392156862746 351.37254901960785 L 340.8313725490196 351.37254901960785 L 340.8313725490196 367.43529411764706 L 340.8313725490196 367.43529411764706 L 356.8941176470588 367.43529411764706 L 420.1411764705882 367.43529411764706 Q 413.1137254901961 415.6235294117647 377.9764705882353 447.74901960784314 Q 342.8392156862745 478.8705882352941 292.64313725490194 479.87450980392157 L 228.3921568627451 479.87450980392157 L 228.3921568627451 479.87450980392157 Q 174.18039215686275 478.8705882352941 137.03529411764706 442.7294117647059 Q 100.89411764705882 405.5843137254902 99.89019607843137 351.37254901960785 L 99.89019607843137 279.09019607843135 L 99.89019607843137 279.09019607843135 L 104.90980392156862 271.05882352941177 L 104.90980392156862 271.05882352941177 Z M 206.30588235294118 64.25098039215686 L 215.34117647058824 42.16470588235294 L 206.30588235294118 64.25098039215686 L 215.34117647058824 42.16470588235294 L 259.51372549019607 60.23529411764706 L 259.51372549019607 60.23529411764706 L 250.478431372549 82.32156862745099 L 250.478431372549 82.32156862745099 L 184.21960784313725 238.93333333333334 L 184.21960784313725 238.93333333333334 L 132.01568627450982 238.93333333333334 L 132.01568627450982 238.93333333333334 L 206.30588235294118 64.25098039215686 L 206.30588235294118 64.25098039215686 Z M 372.956862745098 222.87058823529412 L 421.14509803921567 222.87058823529412 L 372.956862745098 222.87058823529412 L 421.14509803921567 222.87058823529412 L 421.14509803921567 238.93333333333334 L 421.14509803921567 238.93333333333334 L 421.14509803921567 335.30980392156863 L 421.14509803921567 335.30980392156863 L 372.956862745098 335.30980392156863 L 372.956862745098 335.30980392156863 L 372.956862745098 222.87058823529412 L 372.956862745098 222.87058823529412 Z M 340.8313725490196 319.2470588235294 L 292.64313725490194 319.2470588235294 L 340.8313725490196 319.2470588235294 L 292.64313725490194 319.2470588235294 L 292.64313725490194 254.99607843137255 L 292.64313725490194 254.99607843137255 L 292.64313725490194 238.93333333333334 L 292.64313725490194 238.93333333333334 L 292.64313725490194 206.8078431372549 L 292.64313725490194 206.8078431372549 L 340.8313725490196 206.8078431372549 L 340.8313725490196 206.8078431372549 L 340.8313725490196 319.2470588235294 L 340.8313725490196 319.2470588235294 Z" />
</svg>