<svg xmlns="http://www.w3.org/2000/svg" viewBox="0 0 512 512">
  <path d="M 230.85715 17.142857 L 237.71428 0 L 230.85715 17.142857 L 237.71428 0 L 274.2857 0 L 274.2857 0 L 281.14285 17.142857 L 281.14285 17.142857 L 401.14285 310.85715 L 401.14285 310.85715 L 402.2857 310.85715 L 402.2857 310.85715 L 402.2857 313.14285 L 402.2857 313.14285 L 460.57144 457.14285 L 460.57144 457.14285 L 484.57144 457.14285 L 512 457.14285 L 512 512 L 512 512 L 484.57144 512 L 329.14285 512 L 329.14285 457.14285 L 329.14285 457.14285 L 356.57144 457.14285 L 402.2857 457.14285 L 364.57144 365.7143 L 364.57144 365.7143 L 147.42857 365.7143 L 147.42857 365.7143 L 110.85714 457.14285 L 110.85714 457.14285 L 155.42857 457.14285 L 182.85715 457.14285 L 182.85715 512 L 182.85715 512 L 155.42857 512 L 0 512 L 0 457.14285 L 0 457.14285 L 27.428572 457.14285 L 51.42857 457.14285 L 109.71429 313.14285 L 109.71429 313.14285 L 109.71429 310.85715 L 109.71429 310.85715 L 110.85714 310.85715 L 110.85714 310.85715 L 230.85715 17.142857 L 230.85715 17.142857 Z M 170.28572 310.85715 L 341.7143 310.85715 L 170.28572 310.85715 L 341.7143 310.85715 L 256 100.57143 L 256 100.57143 L 170.28572 310.85715 L 170.28572 310.85715 Z" />
</svg>