<svg viewBox="0 0 600 512">
  <path
    d="M 52 512 L 0 512 L 18 468 Q 19 467 19 466 Q 20 465 20 464 Q 43 400 50 330 Q 57 259 56 192 Q 57 110 84 56 Q 111 2 152 0 L 484 0 L 484 0 Q 486 0 488 0 Q 525 2 546 25 Q 566 45 577 71 Q 600 123 600 192 Q 600 261 577 313 Q 566 339 546 359 Q 525 382 488 384 Q 463 383 446 372 Q 450 341 452 311 Q 468 335 488 336 Q 515 334 533 294 Q 551 253 552 192 Q 551 131 533 90 Q 515 50 488 48 Q 486 48 483 48 Q 458 54 441 94 Q 425 134 424 192 Q 425 266 417 344 L 417 345 Q 409 422 382 492 L 373 512 L 52 512 L 52 512 Z M 152 48 Q 152 48 152 48 L 152 48 Q 152 48 152 48 Q 151 48 151 48 Q 151 48 151 48 Q 149 49 146 52 Q 137 58 127 78 Q 106 120 104 192 Q 105 255 99 326 Q 93 396 71 464 L 341 464 Q 363 403 370 333 Q 377 263 376 192 Q 376 123 399 71 Q 404 59 411 48 L 152 48 L 152 48 Z M 512 192 Q 512 212 505 226 L 505 226 Q 498 239 488 240 Q 478 239 471 226 Q 464 212 464 192 Q 464 172 471 158 Q 478 145 488 144 Q 498 145 505 158 Q 512 172 512 192 L 512 192 Z M 307 187 L 235 259 L 224 271 L 213 259 L 173 219 L 161 208 L 184 185 L 195 197 L 224 225 L 285 165 L 296 153 L 319 176 L 307 187 L 307 187 Z"
  />
</svg>