<svg viewBox="0 0 320 480">
  <path
    d="M 232 120 Q 231 79 196 58 Q 160 38 124 58 Q 89 79 88 120 Q 89 161 124 182 Q 160 202 196 182 Q 231 161 232 120 L 232 120 Z M 256 240 L 243 240 L 254 320 L 206 320 L 195 240 L 160 240 L 125 240 L 114 320 L 66 320 L 77 240 L 64 240 L 40 240 L 40 192 L 64 192 Q 41 161 40 120 Q 41 69 75 35 Q 109 1 160 0 Q 211 1 245 35 Q 279 69 280 120 Q 279 161 256 192 L 280 192 L 280 240 L 256 240 L 256 240 Z M 69 400 L 53 432 L 267 432 L 251 400 L 69 400 L 69 400 Z M 320 432 L 320 480 L 272 480 L 48 480 L 0 480 L 0 432 L 0 429 L 40 352 L 280 352 L 320 429 L 320 432 L 320 432 Z"
  />
</svg>