<svg xmlns="http://www.w3.org/2000/svg" viewBox="0 0 512 512">
  <path d="M 452.02798 55.496502 L 512 55.496502 L 452.02798 55.496502 L 512 55.496502 L 383.1049 436.8112 L 383.1049 436.8112 L 376.83917 456.5035 L 376.83917 456.5035 L 334.76923 456.5035 L 334.76923 456.5035 L 328.5035 435.91608 L 328.5035 435.91608 L 256 186.18182 L 256 186.18182 L 183.4965 435.91608 L 183.4965 435.91608 L 177.23077 456.5035 L 177.23077 456.5035 L 135.16084 456.5035 L 135.16084 456.5035 L 128.89511 436.8112 L 128.89511 436.8112 L 0 55.496502 L 0 55.496502 L 59.972027 55.496502 L 59.972027 55.496502 L 153.95804 332.08392 L 153.95804 332.08392 L 228.25175 76.083916 L 228.25175 76.083916 L 234.51749 55.496502 L 234.51749 55.496502 L 277.4825 55.496502 L 277.4825 55.496502 L 283.74826 76.083916 L 283.74826 76.083916 L 358.04196 332.08392 L 358.04196 332.08392 L 452.02798 55.496502 L 452.02798 55.496502 Z" />
</svg>