<svg xmlns="http://www.w3.org/2000/svg" viewBox="0 0 512 512">
  <path d="M 312.8889 28.444445 L 199.11111 28.444445 L 312.8889 28.444445 L 199.11111 28.444445 L 199.11111 142.22223 L 199.11111 142.22223 L 312.8889 142.22223 L 312.8889 142.22223 L 312.8889 28.444445 L 312.8889 28.444445 Z M 170.66667 85.333336 L 42.666668 85.333336 L 170.66667 85.333336 L 0 85.333336 L 0 128 L 0 128 L 0 440.8889 L 0 440.8889 L 0 483.55554 L 0 483.55554 L 42.666668 483.55554 L 512 483.55554 L 512 440.8889 L 512 440.8889 L 512 128 L 512 128 L 512 85.333336 L 512 85.333336 L 469.33334 85.333336 L 341.33334 85.333336 L 341.33334 128 L 341.33334 128 L 469.33334 128 L 469.33334 128 L 469.33334 440.8889 L 469.33334 440.8889 L 42.666668 440.8889 L 42.666668 440.8889 L 42.666668 128 L 42.666668 128 L 170.66667 128 L 170.66667 128 L 170.66667 85.333336 L 170.66667 85.333336 Z M 256 298.66666 Q 288 297.77777 304.8889 270.22223 Q 320.8889 241.77777 304.8889 213.33333 Q 288 185.77777 256 184.88889 Q 224 185.77777 207.11111 213.33333 Q 191.11111 241.77777 207.11111 270.22223 Q 224 297.77777 256 298.66666 L 256 298.66666 Z M 156.44444 412.44446 L 355.55554 412.44446 L 156.44444 412.44446 L 355.55554 412.44446 L 327.1111 327.1111 L 327.1111 327.1111 L 184.88889 327.1111 L 184.88889 327.1111 L 156.44444 412.44446 L 156.44444 412.44446 Z" />
</svg>