<svg viewBox="0 0 512 510">
  <path
    d="M 352 255 Q 352 288 346 319 L 166 319 Q 160 288 160 255 Q 160 222 166 191 L 346 191 Q 352 222 352 255 L 352 255 Z M 378 191 L 504 191 Q 512 222 512 255 Q 512 288 504 319 L 378 319 Q 384 288 384 255 Q 384 222 378 191 L 378 191 Z M 493 159 L 371 159 Q 358 110 338 70 Q 317 30 297 2 Q 365 14 416 56 Q 468 97 493 159 L 493 159 Z M 338 159 L 174 159 Q 192 98 220 54 Q 240 21 256 0 Q 272 21 293 54 Q 320 98 338 159 L 338 159 Z M 141 159 L 19 159 Q 44 97 95 56 Q 147 14 215 2 Q 195 30 174 70 Q 154 110 141 159 L 141 159 Z M 8 191 L 134 191 Q 128 222 128 255 Q 128 288 134 319 L 8 319 Q 0 288 0 255 Q 0 222 8 191 L 8 191 Z M 174 351 L 338 351 Q 320 412 293 456 Q 272 489 256 510 Q 240 489 220 456 Q 192 412 174 351 L 174 351 Z M 141 351 Q 154 400 174 440 L 174 440 Q 195 480 215 508 Q 147 496 95 454 Q 44 413 19 351 L 141 351 L 141 351 Z M 493 351 Q 468 413 416 454 L 416 454 Q 365 496 297 508 Q 317 480 338 440 Q 358 400 371 351 L 493 351 L 493 351 Z"
  />
</svg>