<svg xmlns="http://www.w3.org/2000/svg" viewBox="0 0 512 512">
  <path d="M 423.7241379310345 251.98746081504703 L 422.9216300940439 252.78996865203763 L 423.7241379310345 251.98746081504703 L 422.9216300940439 252.78996865203763 Q 419.7115987460815 182.9717868338558 373.16614420062695 137.22884012539186 Q 325.8181818181818 90.68338557993731 256 89.07836990595611 Q 186.1818181818182 90.68338557993731 138.83385579937305 137.22884012539186 Q 92.2884012539185 182.9717868338558 89.07836990595611 252.78996865203763 L 88.27586206896552 251.98746081504703 L 88.27586206896552 251.98746081504703 L 69.81818181818181 233.52978056426332 L 69.81818181818181 233.52978056426332 L 51.36050156739812 251.98746081504703 L 51.36050156739812 251.98746081504703 L 50.557993730407524 252.78996865203763 L 50.557993730407524 252.78996865203763 Q 52.16300940438872 196.61442006269593 79.44827586206897 150.87147335423197 Q 107.53605015673982 105.12852664576802 153.27899686520377 77.84326018808777 Q 199.0219435736677 51.36050156739812 256 50.557993730407524 Q 312.9780564263323 51.36050156739812 358.72100313479626 77.84326018808777 Q 405.26645768025077 105.12852664576802 432.55172413793105 150.87147335423197 Q 459.83699059561127 196.61442006269593 461.44200626959247 252.78996865203763 L 460.6394984326019 251.98746081504703 L 460.6394984326019 251.98746081504703 L 442.1818181818182 233.52978056426332 L 442.1818181818182 233.52978056426332 L 423.7241379310345 251.98746081504703 L 423.7241379310345 251.98746081504703 Z M 204.63949843260187 318.59561128526644 L 204.63949843260187 317.7931034482759 L 204.63949843260187 318.59561128526644 L 204.63949843260187 317.7931034482759 Q 225.50470219435738 331.435736677116 256 333.0407523510972 Q 286.4952978056426 331.435736677116 307.3605015673981 317.7931034482759 L 307.3605015673981 318.59561128526644 L 307.3605015673981 318.59561128526644 L 307.3605015673981 361.12852664576803 L 307.3605015673981 361.12852664576803 Q 284.08777429467085 370.7586206896552 256 371.56112852664575 Q 227.91222570532915 370.7586206896552 204.63949843260187 361.12852664576803 L 204.63949843260187 318.59561128526644 L 204.63949843260187 318.59561128526644 Z M 182.9717868338558 447.79937304075236 Q 195.00940438871473 432.55172413793105 200.6269592476489 413.29153605015676 Q 227.10971786833855 422.9216300940439 256 422.9216300940439 Q 284.8902821316614 422.9216300940439 311.3730407523511 413.29153605015676 Q 316.99059561128524 432.55172413793105 329.0282131661442 447.79937304075236 Q 294.52037617554856 461.44200626959247 256 461.44200626959247 Q 217.4796238244514 461.44200626959247 182.9717868338558 447.79937304075236 L 182.9717868338558 447.79937304075236 Z M 191.79937304075236 172.53918495297805 Q 209.45454545454547 173.34169278996865 223.09717868338558 192.60188087774296 L 223.09717868338558 192.60188087774296 L 223.09717868338558 192.60188087774296 Q 235.93730407523512 211.86206896551724 236.73981191222572 236.73981191222572 Q 235.93730407523512 235.13479623824452 223.09717868338558 223.89968652037618 Q 209.45454545454547 212.66457680250784 191.79937304075236 211.05956112852664 Q 174.14420062695925 212.66457680250784 161.3040752351097 223.89968652037618 Q 147.6614420062696 235.13479623824452 146.858934169279 236.73981191222572 Q 147.6614420062696 211.86206896551724 161.3040752351097 192.60188087774296 Q 174.14420062695925 173.34169278996865 191.79937304075236 172.53918495297805 L 191.79937304075236 172.53918495297805 Z M 275.2601880877743 236.73981191222572 Q 276.0626959247649 211.86206896551724 289.705329153605 192.60188087774296 L 289.705329153605 192.60188087774296 L 289.705329153605 192.60188087774296 Q 302.54545454545456 173.34169278996865 320.20062695924764 172.53918495297805 Q 337.8557993730407 173.34169278996865 351.4984326018809 192.60188087774296 Q 364.33855799373043 211.86206896551724 365.141065830721 236.73981191222572 Q 364.33855799373043 235.13479623824452 351.4984326018809 223.89968652037618 Q 337.8557993730407 212.66457680250784 320.20062695924764 211.05956112852664 Q 302.54545454545456 212.66457680250784 289.705329153605 223.89968652037618 Q 276.0626959247649 235.13479623824452 275.2601880877743 236.73981191222572 L 275.2601880877743 236.73981191222572 Z M 60.990595611285265 296.9278996865204 L 51.36050156739812 288.1003134796238 L 60.990595611285265 296.9278996865204 L 51.36050156739812 288.1003134796238 L 69.81818181818181 269.6426332288401 L 69.81818181818181 269.6426332288401 L 78.64576802507837 279.27272727272725 L 78.64576802507837 279.27272727272725 L 146.858934169279 346.6833855799373 L 146.858934169279 346.6833855799373 L 146.858934169279 334.6457680250784 L 146.858934169279 334.6457680250784 L 146.858934169279 318.59561128526644 L 146.858934169279 318.59561128526644 L 178.95924764890282 318.59561128526644 L 178.95924764890282 318.59561128526644 L 178.95924764890282 334.6457680250784 L 178.95924764890282 334.6457680250784 L 178.95924764890282 358.72100313479626 L 178.95924764890282 358.72100313479626 L 178.95924764890282 374.77115987460814 L 178.95924764890282 374.77115987460814 L 178.95924764890282 385.2037617554859 L 178.95924764890282 385.2037617554859 Q 178.15673981191222 417.30407523510974 156.48902821316614 438.9717868338558 Q 134.82131661442006 460.6394984326019 102.72100313479623 461.44200626959247 Q 71.42319749216301 460.6394984326019 48.95297805642633 438.9717868338558 L 9.630094043887148 399.6489028213166 L 9.630094043887148 399.6489028213166 L 0 390.8213166144201 L 0 390.8213166144201 L 18.4576802507837 372.3636363636364 L 18.4576802507837 372.3636363636364 L 27.28526645768025 381.9937304075235 L 27.28526645768025 381.9937304075235 L 46.54545454545455 401.2539184952978 L 46.54545454545455 401.2539184952978 L 54.5705329153605 393.22884012539186 L 54.5705329153605 393.22884012539186 L 9.630094043887148 348.2884012539185 L 9.630094043887148 348.2884012539185 L 0 339.4608150470219 L 0 339.4608150470219 L 18.4576802507837 321.00313479623827 L 18.4576802507837 321.00313479623827 L 27.28526645768025 330.6332288401254 L 27.28526645768025 330.6332288401254 L 72.2257053291536 375.5736677115988 L 72.2257053291536 375.5736677115988 L 80.25078369905957 367.5485893416928 L 80.25078369905957 367.5485893416928 L 22.470219435736677 309.76802507836993 L 22.470219435736677 309.76802507836993 L 12.84012539184953 300.94043887147336 L 12.84012539184953 300.94043887147336 L 31.29780564263323 282.48275862068965 L 31.29780564263323 282.48275862068965 L 40.125391849529784 292.1128526645768 L 40.125391849529784 292.1128526645768 L 97.90595611285266 349.8934169278997 L 97.90595611285266 349.8934169278997 L 105.93103448275862 341.86833855799375 L 105.93103448275862 341.86833855799375 L 60.990595611285265 296.9278996865204 L 60.990595611285265 296.9278996865204 Z M 451.00940438871476 296.9278996865204 L 406.0689655172414 341.86833855799375 L 451.00940438871476 296.9278996865204 L 406.0689655172414 341.86833855799375 L 414.09404388714734 349.8934169278997 L 414.09404388714734 349.8934169278997 L 471.87460815047024 292.1128526645768 L 471.87460815047024 292.1128526645768 L 480.70219435736675 282.48275862068965 L 480.70219435736675 282.48275862068965 L 499.15987460815046 300.94043887147336 L 499.15987460815046 300.94043887147336 L 489.5297805642633 309.76802507836993 L 489.5297805642633 309.76802507836993 L 431.7492163009404 367.5485893416928 L 431.7492163009404 367.5485893416928 L 439.7742946708464 375.5736677115988 L 439.7742946708464 375.5736677115988 L 484.7147335423198 330.6332288401254 L 484.7147335423198 330.6332288401254 L 493.5423197492163 321.00313479623827 L 493.5423197492163 321.00313479623827 L 512 339.4608150470219 L 512 339.4608150470219 L 502.36990595611286 348.2884012539185 L 502.36990595611286 348.2884012539185 L 457.4294670846395 393.22884012539186 L 457.4294670846395 393.22884012539186 L 465.45454545454544 401.2539184952978 L 465.45454545454544 401.2539184952978 L 484.7147335423198 381.9937304075235 L 484.7147335423198 381.9937304075235 L 493.5423197492163 372.3636363636364 L 493.5423197492163 372.3636363636364 L 512 390.8213166144201 L 512 390.8213166144201 L 502.36990595611286 399.6489028213166 L 502.36990595611286 399.6489028213166 L 463.84952978056424 438.9717868338558 L 463.84952978056424 438.9717868338558 Q 440.576802507837 460.6394984326019 409.27899686520374 461.44200626959247 Q 377.1786833855799 460.6394984326019 355.51097178683386 438.9717868338558 Q 333.84326018808775 417.30407523510974 333.0407523510972 385.2037617554859 L 333.0407523510972 374.77115987460814 L 333.0407523510972 374.77115987460814 L 333.0407523510972 358.72100313479626 L 333.0407523510972 358.72100313479626 L 333.0407523510972 334.6457680250784 L 333.0407523510972 334.6457680250784 L 333.0407523510972 318.59561128526644 L 333.0407523510972 318.59561128526644 L 365.141065830721 318.59561128526644 L 365.141065830721 318.59561128526644 L 365.141065830721 334.6457680250784 L 365.141065830721 334.6457680250784 L 365.141065830721 346.6833855799373 L 365.141065830721 346.6833855799373 L 433.3542319749216 279.27272727272725 L 433.3542319749216 279.27272727272725 L 442.1818181818182 269.6426332288401 L 442.1818181818182 269.6426332288401 L 460.6394984326019 288.1003134796238 L 460.6394984326019 288.1003134796238 L 451.00940438871476 296.9278996865204 L 451.00940438871476 296.9278996865204 Z" />
</svg>