<svg xmlns="http://www.w3.org/2000/svg" viewBox="0 0 512 512">
  <path d="M 431.84344 144.2818 Q 431.84344 118.23092 418.818 96.18787 L 418.818 96.18787 L 418.818 96.18787 Q 405.79257 74.14481 383.7495 61.119373 Q 360.7045 48.093933 335.65558 48.093933 Q 310.60666 48.093933 287.56165 61.119373 Q 265.5186 74.14481 252.49315 96.18787 Q 239.46771 118.23092 239.46771 144.2818 Q 239.46771 170.33269 252.49315 192.37573 Q 265.5186 214.4188 287.56165 227.44423 Q 310.60666 240.46967 335.65558 240.46967 Q 360.7045 240.46967 383.7495 227.44423 Q 405.79257 214.4188 418.818 192.37573 Q 431.84344 170.33269 431.84344 144.2818 L 431.84344 144.2818 Z M 479.93738 144.2818 Q 477.93347 205.40117 437.8552 246.48141 L 437.8552 246.48141 L 437.8552 246.48141 Q 396.77496 286.5597 335.65558 288.5636 Q 288.5636 287.56165 252.49315 261.51077 L 164.32094 349.68298 L 164.32094 349.68298 L 211.41292 396.77496 L 211.41292 396.77496 L 228.44618 413.80823 L 228.44618 413.80823 L 194.37965 447.87476 L 194.37965 447.87476 L 177.34637 430.8415 L 177.34637 430.8415 L 130.25441 383.7495 L 130.25441 383.7495 L 100.195694 413.80823 L 100.195694 413.80823 L 147.28767 460.9002 L 147.28767 460.9002 L 164.32094 477.93347 L 164.32094 477.93347 L 130.25441 512 L 130.25441 512 L 113.22114 494.96674 L 113.22114 494.96674 L 49.09589 430.8415 L 49.09589 430.8415 L 32.062622 413.80823 L 32.062622 413.80823 L 49.09589 396.77496 L 49.09589 396.77496 L 218.42662 227.44423 L 218.42662 227.44423 Q 192.37573 191.37378 191.37378 144.2818 Q 193.37769 83.16243 233.45596 42.08219 Q 274.5362 2.0039139 335.65558 0 Q 396.77496 2.0039139 437.8552 42.08219 Q 477.93347 83.16243 479.93738 144.2818 L 479.93738 144.2818 Z" />
</svg>