<svg viewBox="0 0 448 448">
  <path
    d="M 48 48 L 48 400 L 400 400 L 400 48 L 48 48 L 48 48 Z M 0 0 L 48 0 L 400 0 L 448 0 L 448 48 L 448 400 L 448 448 L 400 448 L 48 448 L 0 448 L 0 400 L 0 48 L 0 0 L 0 0 Z M 208 80 Q 235 81 250 104 Q 262 128 250 152 Q 235 175 208 176 Q 181 175 166 152 Q 154 128 166 104 Q 181 81 208 80 L 208 80 Z M 278 168 L 288 168 L 328 168 L 352 168 L 352 192 L 352 316 Q 351 340 336 357 Q 320 374 296 376 L 296 376 Q 295 376 295 376 Q 294 376 294 376 Q 293 376 293 376 Q 292 376 292 376 Q 283 376 276 374 Q 246 367 225 343 L 180 290 L 133 375 L 91 352 L 155 236 L 194 233 L 232 277 L 232 224 L 232 214 L 239 207 L 271 175 L 278 168 L 278 168 Z M 293 328 Q 303 326 304 316 L 304 216 L 298 216 L 280 234 L 280 316 Q 280 324 288 327 Q 291 328 293 328 L 293 328 Z"
  />
</svg>