<svg xmlns="http://www.w3.org/2000/svg" viewBox="0 0 512 512">
  <path d="M 25.4841628959276 282.6425339366516 L 0 256 L 25.4841628959276 282.6425339366516 L 0 256 L 25.4841628959276 229.35746606334843 L 25.4841628959276 229.35746606334843 L 210.8235294117647 44.01809954751131 L 210.8235294117647 44.01809954751131 L 237.4660633484163 18.533936651583712 L 237.4660633484163 18.533936651583712 L 289.59276018099547 70.6606334841629 L 289.59276018099547 70.6606334841629 L 264.1085972850679 97.30316742081448 L 264.1085972850679 97.30316742081448 L 104.25339366515837 256 L 104.25339366515837 256 L 264.1085972850679 414.6968325791855 L 264.1085972850679 414.6968325791855 L 289.59276018099547 441.3393665158371 L 289.59276018099547 441.3393665158371 L 237.4660633484163 493.4660633484163 L 237.4660633484163 493.4660633484163 L 210.8235294117647 467.9819004524887 L 210.8235294117647 467.9819004524887 L 25.4841628959276 282.6425339366516 L 25.4841628959276 282.6425339366516 Z M 247.89140271493213 282.6425339366516 L 222.40723981900453 256 L 247.89140271493213 282.6425339366516 L 222.40723981900453 256 L 247.89140271493213 229.35746606334843 L 247.89140271493213 229.35746606334843 L 433.2307692307692 44.01809954751131 L 433.2307692307692 44.01809954751131 L 459.87330316742083 18.533936651583712 L 459.87330316742083 18.533936651583712 L 512 70.6606334841629 L 512 70.6606334841629 L 486.5158371040724 97.30316742081448 L 486.5158371040724 97.30316742081448 L 326.6606334841629 256 L 326.6606334841629 256 L 486.5158371040724 414.6968325791855 L 486.5158371040724 414.6968325791855 L 512 441.3393665158371 L 512 441.3393665158371 L 459.87330316742083 493.4660633484163 L 459.87330316742083 493.4660633484163 L 433.2307692307692 467.9819004524887 L 433.2307692307692 467.9819004524887 L 247.89140271493213 282.6425339366516 L 247.89140271493213 282.6425339366516 Z" />
</svg>