<svg xmlns="http://www.w3.org/2000/svg" viewBox="0 0 512 512">
  <path d="M 42.666666666666664 440.8888888888889 L 278.22222222222223 440.8888888888889 L 42.666666666666664 440.8888888888889 L 278.22222222222223 440.8888888888889 Q 296 464.8888888888889 321.77777777777777 483.55555555555554 L 298.6666666666667 483.55555555555554 L 0 483.55555555555554 L 0 440.8888888888889 L 0 440.8888888888889 L 0 71.11111111111111 L 0 71.11111111111111 L 0 28.444444444444443 L 0 28.444444444444443 L 42.666666666666664 28.444444444444443 L 227.55555555555554 28.444444444444443 L 341.3333333333333 142.22222222222223 L 341.3333333333333 142.22222222222223 L 341.3333333333333 213.33333333333334 L 341.3333333333333 213.33333333333334 L 298.6666666666667 230.22222222222223 L 298.6666666666667 230.22222222222223 L 298.6666666666667 170.66666666666666 L 298.6666666666667 170.66666666666666 L 199.11111111111111 170.66666666666666 L 199.11111111111111 170.66666666666666 L 199.11111111111111 71.11111111111111 L 199.11111111111111 71.11111111111111 L 42.666666666666664 71.11111111111111 L 42.666666666666664 71.11111111111111 L 42.666666666666664 440.8888888888889 L 42.666666666666664 440.8888888888889 Z M 468.44444444444446 305.77777777777777 L 384 273.77777777777777 L 468.44444444444446 305.77777777777777 L 384 273.77777777777777 L 384 437.3333333333333 L 384 437.3333333333333 Q 422.22222222222223 419.55555555555554 443.55555555555554 383.1111111111111 Q 464.8888888888889 347.55555555555554 468.44444444444446 305.77777777777777 L 468.44444444444446 305.77777777777777 Z M 384 483.55555555555554 Q 320 460.44444444444446 288 405.3333333333333 L 288 405.3333333333333 L 288 405.3333333333333 Q 256 351.1111111111111 256 291.55555555555554 L 256 277.3333333333333 L 256 277.3333333333333 L 384 227.55555555555554 L 384 227.55555555555554 L 512 277.3333333333333 L 512 277.3333333333333 L 512 291.55555555555554 L 512 291.55555555555554 Q 512 351.1111111111111 480 405.3333333333333 Q 448 460.44444444444446 384 483.55555555555554 L 384 483.55555555555554 Z" />
</svg>