<svg xmlns="http://www.w3.org/2000/svg" viewBox="0 0 512 512">
  <path d="M 21.333333333333332 99.55555555555556 L 490.6666666666667 99.55555555555556 L 21.333333333333332 99.55555555555556 L 512 99.55555555555556 L 512 56.888888888888886 L 512 56.888888888888886 L 490.6666666666667 56.888888888888886 L 0 56.888888888888886 L 0 99.55555555555556 L 0 99.55555555555556 L 21.333333333333332 99.55555555555556 L 21.333333333333332 99.55555555555556 Z M 35.55555555555556 272 L 50.666666666666664 256.8888888888889 L 35.55555555555556 272 L 50.666666666666664 256.8888888888889 L 92.44444444444444 215.11111111111111 L 92.44444444444444 215.11111111111111 L 92.44444444444444 433.77777777777777 L 92.44444444444444 433.77777777777777 L 92.44444444444444 455.1111111111111 L 92.44444444444444 455.1111111111111 L 135.11111111111111 455.1111111111111 L 135.11111111111111 455.1111111111111 L 135.11111111111111 433.77777777777777 L 135.11111111111111 433.77777777777777 L 135.11111111111111 215.11111111111111 L 135.11111111111111 215.11111111111111 L 176.88888888888889 256.8888888888889 L 176.88888888888889 256.8888888888889 L 192 272 L 192 272 L 222.22222222222223 241.77777777777777 L 222.22222222222223 241.77777777777777 L 207.11111111111111 226.66666666666666 L 207.11111111111111 226.66666666666666 L 128.88888888888889 148.44444444444446 L 128.88888888888889 148.44444444444446 L 113.77777777777777 133.33333333333334 L 113.77777777777777 133.33333333333334 L 98.66666666666667 148.44444444444446 L 98.66666666666667 148.44444444444446 L 20.444444444444443 226.66666666666666 L 20.444444444444443 226.66666666666666 L 5.333333333333333 241.77777777777777 L 5.333333333333333 241.77777777777777 L 35.55555555555556 272 L 35.55555555555556 272 Z M 320 272 L 335.1111111111111 256.8888888888889 L 320 272 L 335.1111111111111 256.8888888888889 L 376.8888888888889 215.11111111111111 L 376.8888888888889 215.11111111111111 L 376.8888888888889 433.77777777777777 L 376.8888888888889 433.77777777777777 L 376.8888888888889 455.1111111111111 L 376.8888888888889 455.1111111111111 L 419.55555555555554 455.1111111111111 L 419.55555555555554 455.1111111111111 L 419.55555555555554 433.77777777777777 L 419.55555555555554 433.77777777777777 L 419.55555555555554 215.11111111111111 L 419.55555555555554 215.11111111111111 L 461.3333333333333 256.8888888888889 L 461.3333333333333 256.8888888888889 L 476.44444444444446 272 L 476.44444444444446 272 L 506.6666666666667 241.77777777777777 L 506.6666666666667 241.77777777777777 L 491.55555555555554 226.66666666666666 L 491.55555555555554 226.66666666666666 L 413.3333333333333 148.44444444444446 L 413.3333333333333 148.44444444444446 L 398.22222222222223 133.33333333333334 L 398.22222222222223 133.33333333333334 L 383.1111111111111 148.44444444444446 L 383.1111111111111 148.44444444444446 L 304.8888888888889 226.66666666666666 L 304.8888888888889 226.66666666666666 L 289.77777777777777 241.77777777777777 L 289.77777777777777 241.77777777777777 L 320 272 L 320 272 Z" />
</svg>