<svg xmlns="http://www.w3.org/2000/svg" viewBox="0 0 512 512">
  <path d="M 97 224 L 64 224 L 97 224 L 64 224 L 73 192 L 73 192 L 128 0 L 128 0 L 384 0 L 384 0 L 439 192 L 439 192 L 448 224 L 448 224 L 415 224 L 97 224 Z M 406 192 L 360 32 L 406 192 L 360 32 L 152 32 L 152 32 L 106 192 L 106 192 L 406 192 L 406 192 Z M 144 480 L 240 480 L 144 480 L 240 480 L 240 256 L 240 256 L 272 256 L 272 256 L 272 480 L 272 480 L 368 480 L 384 480 L 384 512 L 384 512 L 368 512 L 128 512 L 128 480 L 128 480 L 144 480 L 144 480 Z" />
</svg>