<svg xmlns="http://www.w3.org/2000/svg" viewBox="0 0 512 512">
  <path d="M 193.10556621880997 71.73896353166987 Q 194.08829174664106 36.36084452975048 224.552783109405 17.689059500959694 Q 256 0 287.44721689059503 17.689059500959694 Q 317.91170825335894 36.36084452975048 318.89443378119 71.73896353166987 Q 317.91170825335894 107.11708253358925 287.44721689059503 125.78886756238003 Q 256 143.47792706333973 224.552783109405 125.78886756238003 Q 194.08829174664106 107.11708253358925 193.10556621880997 71.73896353166987 L 193.10556621880997 71.73896353166987 Z M 350.34165067178503 166.0806142034549 L 358.2034548944338 354.76391554702496 L 350.34165067178503 166.0806142034549 L 358.2034548944338 354.76391554702496 L 318.89443378119 354.76391554702496 L 318.89443378119 354.76391554702496 L 318.89443378119 512 L 318.89443378119 512 L 193.10556621880997 512 L 193.10556621880997 512 L 193.10556621880997 354.76391554702496 L 193.10556621880997 354.76391554702496 L 153.79654510556622 354.76391554702496 L 153.79654510556622 354.76391554702496 L 161.65834932821497 166.0806142034549 L 161.65834932821497 166.0806142034549 L 350.34165067178503 166.0806142034549 L 350.34165067178503 166.0806142034549 Z" />
</svg>