<svg xmlns="http://www.w3.org/2000/svg" viewBox="0 0 640 512">
    <path d="M 109 136 L 132 132 L 136 109 L 145 55 L 190 87 L 208 100 L 226 87 L 272 55 L 281 109 L 284 132 L 307 135 Q 319 118 337 108 L 312 104 L 301 35 L 295 0 L 266 20 L 208 61 L 150 20 L 121 0 L 116 35 L 104 104 L 35 116 L 0 121 L 20 150 L 61 208 L 20 266 L 0 295 L 35 301 L 104 312 L 116 381 L 121 416 L 150 396 L 163 387 Q 174 345 206 318 L 190 329 L 145 361 L 136 307 L 132 284 L 109 281 L 55 272 L 87 226 L 100 208 L 87 190 L 55 145 L 109 136 L 109 136 Z M 288 208 Q 287 174 265 151 L 265 151 Q 242 129 208 128 Q 174 129 151 151 Q 129 174 128 208 Q 129 242 151 265 Q 174 287 208 288 Q 230 288 247 278 Q 259 244 287 221 Q 288 215 288 208 L 288 208 Z M 256 208 Q 255 235 232 250 Q 208 262 184 250 Q 161 235 160 208 Q 161 181 184 166 Q 208 154 232 166 Q 255 181 256 208 L 256 208 Z M 407 160 L 428 160 L 436 141 Q 449 114 480 112 Q 498 112 511 123 Q 523 134 527 150 L 532 176 L 558 176 L 568 176 Q 585 176 596 188 Q 608 199 608 216 L 608 256 L 574 256 Q 589 270 597 288 L 608 288 L 640 288 L 640 256 L 640 216 Q 639 185 619 165 Q 599 145 568 144 L 558 144 Q 552 116 531 98 Q 510 81 480 80 Q 455 80 436 93 Q 416 106 407 128 L 384 128 Q 357 129 339 147 Q 321 165 320 192 Q 320 197 321 201 Q 336 195 352 193 Q 352 192 352 192 Q 352 178 361 169 Q 370 160 384 160 L 407 160 L 407 160 Z M 368 224 Q 327 225 300 252 L 300 252 Q 273 279 272 320 L 272 321 Q 237 328 215 354 Q 193 380 192 416 L 192 480 L 192 512 L 224 512 L 288 512 L 560 512 L 608 512 L 640 512 L 640 432 Q 639 404 623 383 Q 607 362 580 355 Q 577 354 574 353 Q 575 350 575 347 Q 576 341 576 336 Q 575 302 552 279 Q 530 257 496 256 Q 476 256 459 265 Q 454 267 450 270 Q 447 265 443 260 Q 415 226 368 224 L 368 224 Z M 608 432 L 608 480 L 560 480 L 288 480 L 224 480 L 224 416 Q 224 392 239 374 Q 254 357 277 353 L 304 348 L 304 321 L 304 320 Q 305 293 323 275 Q 341 257 368 256 Q 404 257 423 287 L 440 316 L 468 296 Q 480 288 496 288 Q 516 288 530 302 Q 543 316 544 336 Q 544 341 543 346 L 536 379 L 569 385 Q 586 388 597 401 Q 608 414 608 432 L 608 432 Z"/>
</svg>
