<svg viewBox="0 0 512 448">
  <path
    d="M 480 288 L 272 288 L 240 288 L 32 288 L 32 416 L 480 416 L 480 288 L 480 288 Z M 272 256 L 480 256 L 512 256 L 512 288 L 512 416 L 512 448 L 480 448 L 32 448 L 0 448 L 0 416 L 0 288 L 0 256 L 32 256 L 240 256 L 240 151 L 203 187 L 192 199 L 169 176 L 181 165 L 245 101 L 256 89 L 267 101 L 331 165 L 343 176 L 320 199 L 309 187 L 272 151 L 272 256 L 272 256 Z M 512 0 L 512 16 L 512 176 L 512 192 L 496 192 L 400 192 L 384 192 L 384 160 L 400 160 L 480 160 L 480 32 L 32 32 L 32 160 L 112 160 L 128 160 L 128 192 L 112 192 L 16 192 L 0 192 L 0 176 L 0 16 L 0 0 L 16 0 L 496 0 L 512 0 L 512 0 Z"
  />
</svg>