<svg xmlns="http://www.w3.org/2000/svg" viewBox="0 0 512 512">
  <path d="M 222.30255402750493 160.94302554027504 Q 223.30844793713163 119.70137524557957 250.46758349705306 83.48919449901769 L 250.46758349705306 83.48919449901769 L 250.46758349705306 83.48919449901769 Q 278.6326129666012 47.277013752455794 322.8919449901768 24.141453831041257 L 322.8919449901768 24.141453831041257 L 322.8919449901768 24.141453831041257 Q 366.14538310412576 1.005893909626719 415.43418467583496 0 Q 456.67583497053045 1.005893909626719 483.83497053045187 28.165029469548134 Q 510.9941060903733 55.32416502946955 512 96.56581532416503 Q 510.9941060903733 145.85461689587427 487.85854616895875 189.10805500982318 Q 464.7229862475442 233.3673870333988 428.5108055009823 261.53241650294694 Q 392.2986247544204 288.69155206286837 351.0569744597249 289.6974459724951 L 310.8212180746562 289.6974459724951 L 310.8212180746562 289.6974459724951 L 289.6974459724951 268.573673870334 L 289.6974459724951 268.573673870334 L 68.4007858546169 489.87033398821217 L 68.4007858546169 489.87033398821217 L 45.26522593320236 512 L 45.26522593320236 512 L 0 466.7347740667976 L 0 466.7347740667976 L 22.12966601178782 443.5992141453831 L 22.12966601178782 443.5992141453831 L 244.43222003929273 222.30255402750493 L 244.43222003929273 222.30255402750493 L 222.30255402750493 201.1787819253438 L 222.30255402750493 201.1787819253438 L 222.30255402750493 160.94302554027504 L 222.30255402750493 160.94302554027504 Z" />
</svg>