<svg xmlns="http://www.w3.org/2000/svg" viewBox="0 0 512 512">
  <path d="M 133.9235412474849 485.7303822937626 L 116.41046277665995 468.21730382293765 L 133.9235412474849 485.7303822937626 L 116.41046277665995 468.21730382293765 L 17.51307847082495 369.3199195171026 L 17.51307847082495 369.3199195171026 L 0 351.80684104627767 L 0 351.80684104627767 L 35.0261569416499 316.78068410462777 L 35.0261569416499 316.78068410462777 L 52.53923541247485 334.2937625754527 L 52.53923541247485 334.2937625754527 L 109.19919517102616 390.953722334004 L 109.19919517102616 390.953722334004 L 109.19919517102616 49.96378269617706 L 109.19919517102616 49.96378269617706 L 109.19919517102616 25.239436619718308 L 109.19919517102616 25.239436619718308 L 158.64788732394365 25.239436619718308 L 158.64788732394365 25.239436619718308 L 158.64788732394365 49.96378269617706 L 158.64788732394365 49.96378269617706 L 158.64788732394365 390.953722334004 L 158.64788732394365 390.953722334004 L 215.30784708249496 334.2937625754527 L 215.30784708249496 334.2937625754527 L 232.8209255533199 316.78068410462777 L 232.8209255533199 316.78068410462777 L 267.8470824949698 351.80684104627767 L 267.8470824949698 351.80684104627767 L 250.33400402414486 369.3199195171026 L 250.33400402414486 369.3199195171026 L 151.43661971830986 468.21730382293765 L 151.43661971830986 468.21730382293765 L 133.9235412474849 485.7303822937626 L 133.9235412474849 485.7303822937626 Z M 306.9939637826962 25.239436619718308 L 331.71830985915494 25.239436619718308 L 306.9939637826962 25.239436619718308 L 488.3058350100604 25.239436619718308 L 488.3058350100604 49.96378269617706 L 488.3058350100604 49.96378269617706 L 488.3058350100604 58.20523138832998 L 488.3058350100604 58.20523138832998 L 488.3058350100604 68.50704225352112 L 488.3058350100604 68.50704225352112 L 481.0945674044266 75.71830985915493 L 481.0945674044266 75.71830985915493 L 383.2273641851107 173.58551307847083 L 383.2273641851107 173.58551307847083 L 463.58148893360163 173.58551307847083 L 488.3058350100604 173.58551307847083 L 488.3058350100604 223.03420523138834 L 488.3058350100604 223.03420523138834 L 463.58148893360163 223.03420523138834 L 306.9939637826962 223.03420523138834 L 306.9939637826962 198.30985915492957 L 306.9939637826962 198.30985915492957 L 306.9939637826962 190.06841046277665 L 306.9939637826962 190.06841046277665 L 306.9939637826962 179.76659959758553 L 306.9939637826962 179.76659959758553 L 314.20523138833 172.5553319919517 L 314.20523138833 172.5553319919517 L 412.0724346076459 74.68812877263582 L 412.0724346076459 74.68812877263582 L 331.71830985915494 74.68812877263582 L 306.9939637826962 74.68812877263582 L 306.9939637826962 25.239436619718308 L 306.9939637826962 25.239436619718308 Z M 382.19718309859155 272.48289738430583 L 413.10261569416497 272.48289738430583 L 382.19718309859155 272.48289738430583 L 413.10261569416497 272.48289738430583 L 420.3138832997988 286.9054325955734 L 420.3138832997988 286.9054325955734 L 512 486.76056338028167 L 512 486.76056338028167 L 457.4004024144869 486.76056338028167 L 457.4004024144869 486.76056338028167 L 441.9476861167002 453.79476861167 L 441.9476861167002 453.79476861167 Q 440.9175050301811 453.79476861167 438.85714285714283 453.79476861167 L 353.3521126760563 453.79476861167 L 353.3521126760563 453.79476861167 L 337.8993963782696 486.76056338028167 L 337.8993963782696 486.76056338028167 L 283.2997987927565 486.76056338028167 L 283.2997987927565 486.76056338028167 L 374.98591549295776 286.9054325955734 L 374.98591549295776 286.9054325955734 L 382.19718309859155 272.48289738430583 L 382.19718309859155 272.48289738430583 Z M 397.64989939637826 355.9275653923541 L 376.0160965794769 404.3460764587525 L 397.64989939637826 355.9275653923541 L 376.0160965794769 404.3460764587525 L 419.2837022132797 404.3460764587525 L 419.2837022132797 404.3460764587525 L 397.64989939637826 355.9275653923541 L 397.64989939637826 355.9275653923541 Z" />
</svg>