<svg xmlns="http://www.w3.org/2000/svg" viewBox="0 0 512 512">
  <path d="M 457.14285 54.857143 L 457.14285 73.14286 L 457.14285 54.857143 L 457.14285 73.14286 Q 454.85715 158.85715 397.7143 214.85715 Q 341.7143 272 256 274.2857 Q 170.28572 272 114.28571 214.85715 Q 57.142857 158.85715 54.857143 73.14286 L 54.857143 54.857143 L 54.857143 54.857143 L 457.14285 54.857143 L 457.14285 54.857143 Z M 54.857143 0 L 0 0 L 54.857143 0 L 0 0 L 0 54.857143 L 0 54.857143 L 0 73.14286 L 0 73.14286 Q 1.1428572 150.85715 41.142857 212.57143 Q 81.14286 273.14285 147.42857 305.14285 L 121.14286 366.85715 L 121.14286 366.85715 Q 115.42857 365.7143 109.71429 365.7143 Q 78.85714 366.85715 58.285713 387.42856 Q 37.714287 408 36.57143 438.85715 Q 37.714287 469.7143 58.285713 490.2857 Q 78.85714 510.85715 109.71429 512 Q 140.57143 510.85715 161.14285 490.2857 Q 181.71428 469.7143 182.85715 438.85715 L 362.2857 438.85715 L 362.2857 438.85715 L 377.14285 474.2857 L 377.14285 474.2857 L 381.7143 484.57144 L 381.7143 484.57144 L 392 509.7143 L 392 509.7143 L 443.42856 488 L 443.42856 488 L 432 462.85715 L 432 462.85715 L 427.42856 452.57144 L 427.42856 452.57144 L 364.57144 305.14285 L 364.57144 305.14285 Q 430.85715 273.14285 470.85715 212.57143 Q 510.85715 150.85715 512 73.14286 L 512 54.857143 L 512 54.857143 L 512 0 L 512 0 L 457.14285 0 L 54.857143 0 Z M 338.2857 384 L 173.71428 384 L 338.2857 384 L 173.71428 384 L 200 323.42856 L 200 323.42856 Q 227.42857 329.14285 256 329.14285 Q 284.57144 329.14285 312 323.42856 L 338.2857 384 L 338.2857 384 Z M 109.71429 411.42856 Q 134.85715 413.7143 137.14285 438.85715 Q 134.85715 464 109.71429 466.2857 Q 84.57143 464 82.28571 438.85715 Q 84.57143 413.7143 109.71429 411.42856 L 109.71429 411.42856 Z" />
</svg>