<svg xmlns="http://www.w3.org/2000/svg" viewBox="0 0 512 512">
  <path d="M 162 96 L 176 96 L 162 96 L 190 96 L 218 49 L 218 49 L 207 32 L 207 32 L 145 32 L 145 32 L 134 49 L 134 49 L 162 96 L 162 96 Z M 256 48 L 223 102 L 256 48 L 223 102 Q 280 119 315 165 Q 351 210 352 272 Q 351 321 328 360 Q 305 400 266 423 Q 253 413 244 399 Q 278 381 299 347 Q 319 314 320 272 Q 319 230 299 197 Q 252 210 222 248 Q 193 285 192 336 Q 193 378 213 411 Q 222 426 234 438 Q 234 438 234 438 Q 275 478 336 480 Q 397 478 438 438 Q 478 397 480 336 Q 479 284 449 246 Q 418 208 370 196 Q 362 177 352 161 Q 421 168 466 217 Q 510 265 512 336 Q 510 411 460 460 Q 411 510 336 512 Q 294 512 259 494 Q 224 477 199 447 Q 188 448 176 448 Q 101 446 52 396 Q 2 347 0 272 Q 1 210 37 165 Q 72 119 129 102 L 96 48 L 96 48 L 128 0 L 128 0 L 224 0 L 224 0 L 256 48 L 256 48 Z M 179 416 Q 160 380 160 336 Q 161 278 193 233 Q 225 189 278 170 Q 237 130 176 128 Q 115 130 74 170 Q 34 211 32 272 Q 34 333 74 374 Q 115 414 176 416 Q 177 416 178 416 Q 178 416 179 416 L 179 416 Z" />
</svg>