<svg xmlns="http://www.w3.org/2000/svg" viewBox="0 0 512 512">
  <path d="M 256 32 Q 317 33 368 62 L 368 62 L 368 62 Q 419 92 450 144 Q 480 197 480 256 Q 480 315 450 368 Q 419 420 368 450 Q 317 479 256 480 Q 195 479 144 450 Q 93 420 62 368 Q 32 315 32 256 Q 32 197 62 144 Q 93 92 144 62 Q 195 33 256 32 L 256 32 Z M 256 512 Q 326 511 384 478 L 384 478 L 384 478 Q 442 444 478 384 Q 512 323 512 256 Q 512 189 478 128 Q 442 68 384 34 Q 326 1 256 0 Q 186 1 128 34 Q 70 68 34 128 Q 0 189 0 256 Q 0 323 34 384 Q 70 444 128 478 Q 186 511 256 512 L 256 512 Z M 176 128 L 160 128 L 176 128 L 160 128 L 160 144 L 160 144 L 160 368 L 160 368 L 160 384 L 160 384 L 176 384 L 256 384 Q 310 383 347 347 Q 383 310 384 256 Q 383 202 347 165 Q 310 129 256 128 L 176 128 L 176 128 Z M 256 352 L 192 352 L 256 352 L 192 352 L 192 160 L 192 160 L 256 160 L 256 160 Q 297 161 324 188 Q 351 215 352 256 Q 351 297 324 324 Q 297 351 256 352 L 256 352 Z" />
</svg>