<svg xmlns="http://www.w3.org/2000/svg" viewBox="0 0 512 512">
  <path d="M 36.57143 0 L 36.57143 18.285715 L 36.57143 0 L 36.57143 18.285715 L 36.57143 54.857143 L 36.57143 54.857143 Q 74.28571 53.714287 110.85714 41.142857 L 150.85715 27.428572 L 150.85715 27.428572 Q 179.42857 18.285715 210.28572 18.285715 Q 241.14285 18.285715 269.7143 27.428572 L 323.42856 45.714287 L 323.42856 45.714287 Q 350.85715 54.857143 379.42856 54.857143 Q 408 54.857143 436.57144 45.714287 L 488 28.571428 L 488 28.571428 L 512 20.571428 L 512 20.571428 L 512 45.714287 L 512 45.714287 L 512 210.28572 L 512 210.28572 L 512 237.71428 L 512 237.71428 L 512 393.14285 L 512 393.14285 L 512 406.85715 L 512 406.85715 L 499.42856 410.2857 L 499.42856 410.2857 L 448 427.42856 L 448 427.42856 Q 414.85715 438.85715 379.42856 438.85715 Q 345.14285 438.85715 312 427.42856 L 258.2857 410.2857 L 258.2857 410.2857 Q 235.42857 402.2857 210.28572 402.2857 Q 186.28572 402.2857 162.28572 410.2857 L 109.71429 427.42856 L 109.71429 427.42856 L 109.71429 389.7143 L 109.71429 389.7143 L 150.85715 374.85715 L 150.85715 374.85715 Q 179.42857 365.7143 210.28572 365.7143 Q 241.14285 365.7143 269.7143 374.85715 L 323.42856 393.14285 L 323.42856 393.14285 Q 350.85715 402.2857 379.42856 402.2857 Q 408 402.2857 436.57144 393.14285 L 475.42856 380.57144 L 475.42856 380.57144 L 475.42856 237.71428 L 475.42856 237.71428 L 475.42856 210.28572 L 475.42856 210.28572 L 475.42856 70.85714 L 475.42856 70.85714 L 448 80 L 448 80 Q 414.85715 91.42857 379.42856 91.42857 Q 344 91.42857 310.85715 80 L 258.2857 62.857143 L 258.2857 62.857143 Q 234.28572 54.857143 210.28572 54.857143 Q 186.28572 54.857143 162.28572 62.857143 L 122.28571 76.57143 L 122.28571 76.57143 Q 80 90.28571 36.57143 91.42857 L 36.57143 493.7143 L 36.57143 493.7143 L 36.57143 512 L 36.57143 512 L 0 512 L 0 512 L 0 493.7143 L 0 493.7143 L 0 18.285715 L 0 18.285715 L 0 0 L 0 0 L 36.57143 0 L 36.57143 0 Z" />
</svg>