<svg xmlns="http://www.w3.org/2000/svg" viewBox="0 0 512 448">
    <path d="M 24 0 L 0 0 L 0 24 L 0 120 L 0 144 L 24 144 L 65 144 Q 74 220 128 269 Q 182 318 260 320 L 337 320 Q 350 320 359 329 Q 368 338 368 351 Q 367 368 354 377 Q 342 386 325 380 L 257 354 L 224 341 L 224 376 L 224 424 L 224 448 L 248 448 L 336 448 Q 411 446 460 396 Q 510 347 512 272 Q 510 197 460 148 Q 411 98 336 96 L 48 96 L 48 48 L 424 48 L 424 0 L 24 0 L 24 0 Z M 260 272 Q 202 271 162 235 L 162 235 Q 122 199 113 144 L 296 144 L 296 272 L 260 272 L 260 272 Z M 344 272 L 344 144 Q 406 150 440 198 L 362 276 Q 353 273 344 272 L 344 272 Z M 401 305 L 461 245 Q 464 258 464 272 Q 464 304 450 330 Q 436 357 413 375 Q 416 364 416 351 Q 416 325 401 305 L 401 305 Z M 224 216 Q 246 214 248 192 Q 246 170 224 168 Q 202 170 200 192 Q 202 214 224 216 L 224 216 Z"/>
</svg>
