<svg xmlns="http://www.w3.org/2000/svg" viewBox="0 0 512 512">
  <path d="M 140.23529 323.7647 L 131.76471 316.2353 L 140.23529 323.7647 L 131.76471 316.2353 L 120.47059 316.2353 L 30.117647 316.2353 L 30.117647 195.76471 L 30.117647 195.76471 L 120.47059 195.76471 L 131.76471 195.76471 L 140.23529 188.23529 L 140.23529 188.23529 L 267.29413 75.29412 L 267.29413 75.29412 L 271.05884 75.29412 L 271.05884 75.29412 L 271.05884 436.70587 L 271.05884 436.70587 L 267.29413 436.70587 L 267.29413 436.70587 L 140.23529 323.7647 L 140.23529 323.7647 Z M 0 346.35294 L 30.117647 346.35294 L 0 346.35294 L 120.47059 346.35294 L 256 466.82352 L 256 466.82352 L 271.05884 466.82352 L 301.17648 466.82352 L 301.17648 436.70587 L 301.17648 436.70587 L 301.17648 75.29412 L 301.17648 75.29412 L 301.17648 45.17647 L 301.17648 45.17647 L 271.05884 45.17647 L 256 45.17647 L 120.47059 165.64706 L 120.47059 165.64706 L 30.117647 165.64706 L 0 165.64706 L 0 195.76471 L 0 195.76471 L 0 316.2353 L 0 316.2353 L 0 346.35294 L 0 346.35294 Z M 385.88235 328.47058 Q 419.7647 302.11765 421.64706 256 Q 419.7647 209.88235 385.88235 183.52942 L 367.05884 208 L 367.05884 208 Q 390.58823 225.88235 391.52942 256 Q 390.58823 286.11765 367.05884 304 L 385.88235 328.47058 L 385.88235 328.47058 Z M 439.52942 400.94116 Q 473.41177 375.52942 492.2353 337.88235 L 492.2353 337.88235 L 492.2353 337.88235 Q 512 301.17648 512 256 Q 512 210.82353 492.2353 174.11765 Q 473.41177 136.47058 439.52942 111.05882 L 421.64706 135.52942 L 421.64706 135.52942 Q 449.88235 156.23529 465.88235 187.29411 Q 481.88235 218.35294 481.88235 256 Q 481.88235 293.64706 465.88235 324.70587 Q 449.88235 355.7647 421.64706 376.47058 L 439.52942 400.94116 L 439.52942 400.94116 Z" />
</svg>