<svg xmlns="http://www.w3.org/2000/svg" viewBox="0 0 512 512">
  <path d="M 384 21.333333333333332 L 384 0 L 384 21.333333333333332 L 384 0 L 426.6666666666667 0 L 426.6666666666667 0 L 426.6666666666667 21.333333333333332 L 426.6666666666667 21.333333333333332 L 426.6666666666667 234.66666666666666 L 426.6666666666667 234.66666666666666 L 426.6666666666667 277.3333333333333 L 426.6666666666667 277.3333333333333 L 426.6666666666667 490.6666666666667 L 426.6666666666667 490.6666666666667 L 426.6666666666667 512 L 426.6666666666667 512 L 384 512 L 384 512 L 384 490.6666666666667 L 384 490.6666666666667 L 384 306.6666666666667 L 384 306.6666666666667 L 128 482.6666666666667 L 128 482.6666666666667 L 85.33333333333333 512 L 85.33333333333333 512 L 85.33333333333333 460 L 85.33333333333333 460 L 85.33333333333333 52 L 85.33333333333333 52 L 85.33333333333333 0 L 85.33333333333333 0 L 128 29.333333333333332 L 128 29.333333333333332 L 384 205.33333333333334 L 384 205.33333333333334 L 384 21.333333333333332 L 384 21.333333333333332 Z M 382.6666666666667 256 L 128 81.33333333333333 L 382.6666666666667 256 L 128 81.33333333333333 L 128 430.6666666666667 L 128 430.6666666666667 L 382.6666666666667 256 L 382.6666666666667 256 Z" />
</svg>