<svg xmlns="http://www.w3.org/2000/svg" viewBox="0 0 512 512">
  <path d="M 201.14285714285714 18.285714285714285 L 201.14285714285714 0 L 201.14285714285714 18.285714285714285 L 201.14285714285714 0 L 164.57142857142858 0 L 164.57142857142858 0 L 164.57142857142858 18.285714285714285 L 164.57142857142858 18.285714285714285 L 164.57142857142858 493.7142857142857 L 164.57142857142858 493.7142857142857 L 164.57142857142858 512 L 164.57142857142858 512 L 201.14285714285714 512 L 201.14285714285714 512 L 201.14285714285714 493.7142857142857 L 201.14285714285714 493.7142857142857 L 201.14285714285714 18.285714285714285 L 201.14285714285714 18.285714285714285 Z M 347.42857142857144 18.285714285714285 L 347.42857142857144 0 L 347.42857142857144 18.285714285714285 L 347.42857142857144 0 L 310.85714285714283 0 L 310.85714285714283 0 L 310.85714285714283 18.285714285714285 L 310.85714285714283 18.285714285714285 L 310.85714285714283 493.7142857142857 L 310.85714285714283 493.7142857142857 L 310.85714285714283 512 L 310.85714285714283 512 L 347.42857142857144 512 L 347.42857142857144 512 L 347.42857142857144 493.7142857142857 L 347.42857142857144 493.7142857142857 L 347.42857142857144 18.285714285714285 L 347.42857142857144 18.285714285714285 Z" />
</svg>