<svg xmlns="http://www.w3.org/2000/svg" viewBox="0 0 512 512">
  <path d="M 256 48 Q 313 48 360 76 L 360 76 L 360 76 Q 407 103 436 152 Q 464 201 464 256 Q 464 311 436 360 Q 407 409 360 436 Q 313 464 256 464 Q 199 464 152 436 Q 105 409 76 360 Q 48 311 48 256 Q 48 201 76 152 Q 105 103 152 76 Q 199 48 256 48 L 256 48 Z M 256 512 Q 326 511 384 478 L 384 478 L 384 478 Q 442 444 478 384 Q 512 323 512 256 Q 512 189 478 128 Q 442 68 384 34 Q 326 1 256 0 Q 186 1 128 34 Q 70 68 34 128 Q 0 189 0 256 Q 0 323 34 384 Q 70 444 128 478 Q 186 511 256 512 L 256 512 Z M 256 128 Q 215 129 188 156 L 188 156 L 188 156 Q 161 183 160 224 L 160 288 L 160 288 Q 161 329 188 356 Q 215 383 256 384 Q 297 383 324 356 Q 351 329 352 288 L 352 224 L 352 224 Q 351 183 324 156 Q 297 129 256 128 L 256 128 Z M 208 224 Q 209 204 222 190 L 222 190 L 222 190 Q 236 177 256 176 Q 276 177 290 190 Q 303 204 304 224 L 304 288 L 304 288 Q 303 308 290 322 Q 276 335 256 336 Q 236 335 222 322 Q 209 308 208 288 L 208 224 L 208 224 Z" />
</svg>