<svg xmlns="http://www.w3.org/2000/svg" viewBox="0 0 512 512">
  <path d="M 18.285715 0 L 0 0 L 18.285715 0 L 0 0 L 0 36.57143 L 0 36.57143 L 18.285715 36.57143 L 171.42857 36.57143 L 185.14285 66.28571 L 185.14285 66.28571 L 184 66.28571 L 184 66.28571 L 1.1428572 512 L 1.1428572 512 L 41.142857 512 L 41.142857 512 L 205.71428 110.85714 L 205.71428 110.85714 L 386.2857 501.7143 L 386.2857 501.7143 L 390.85715 512 L 390.85715 512 L 402.2857 512 L 512 512 L 512 475.42856 L 512 475.42856 L 493.7143 475.42856 L 413.7143 475.42856 L 200 10.285714 L 200 10.285714 L 194.28572 0 L 194.28572 0 L 182.85715 0 L 18.285715 0 Z" />
</svg>