<svg xmlns="http://www.w3.org/2000/svg" viewBox="0 0 512 512">
  <path d="M 256 479.0643274853801 Q 317.8791423001949 479.0643274853801 353.80896686159844 465.09161793372317 L 353.80896686159844 465.09161793372317 L 353.80896686159844 465.09161793372317 Q 390.7368421052632 452.1169590643275 408.70175438596493 427.16569200779725 Q 428.6627680311891 402.21442495126706 437.64522417153995 356.30409356725147 Q 447.62573099415204 310.3937621832359 447.62573099415204 239.53216374269005 L 447.62573099415204 31.937621832358673 L 447.62573099415204 31.937621832358673 L 256 31.937621832358673 L 64.37426900584795 31.937621832358673 L 64.37426900584795 239.53216374269005 L 64.37426900584795 239.53216374269005 Q 64.37426900584795 310.3937621832359 74.35477582846003 356.30409356725147 Q 83.33723196881091 402.21442495126706 103.29824561403508 427.16569200779725 Q 121.26315789473684 452.1169590643275 158.19103313840156 465.09161793372317 Q 194.12085769980507 479.0643274853801 256 479.0643274853801 L 256 479.0643274853801 Z M 256 511.00194931773876 Q 127.25146198830409 512 78.34697855750487 447.1267056530214 L 78.34697855750487 447.1267056530214 L 78.34697855750487 447.1267056530214 Q 29.44249512670565 382.2534113060429 32.43664717348928 239.53216374269005 L 32.43664717348928 31.937621832358673 L 32.43664717348928 31.937621832358673 L 32.43664717348928 0 L 32.43664717348928 0 L 64.37426900584795 0 L 479.5633528265107 0 L 479.5633528265107 31.937621832358673 L 479.5633528265107 31.937621832358673 L 479.5633528265107 239.53216374269005 L 479.5633528265107 239.53216374269005 Q 482.55750487329436 382.2534113060429 433.6530214424951 447.1267056530214 Q 385.7465886939571 512 256 511.00194931773876 L 256 511.00194931773876 Z M 192.12475633528265 207.59454191033137 L 192.12475633528265 191.62573099415204 L 192.12475633528265 207.59454191033137 L 192.12475633528265 191.62573099415204 L 128.2495126705653 191.62573099415204 L 128.2495126705653 191.62573099415204 L 128.2495126705653 207.59454191033137 L 128.2495126705653 207.59454191033137 Q 128.2495126705653 221.5672514619883 137.2319688109162 230.54970760233917 Q 146.21442495126706 239.53216374269005 160.18713450292398 239.53216374269005 Q 174.1598440545809 239.53216374269005 183.14230019493178 230.54970760233917 Q 192.12475633528265 221.5672514619883 192.12475633528265 207.59454191033137 L 192.12475633528265 207.59454191033137 Z M 160.18713450292398 271.4697855750487 Q 133.23976608187135 270.47173489278754 115.27485380116958 252.50682261208576 L 115.27485380116958 252.50682261208576 L 115.27485380116958 252.50682261208576 Q 97.30994152046783 234.541910331384 96.31189083820662 207.59454191033137 L 96.31189083820662 191.62573099415204 L 96.31189083820662 191.62573099415204 L 96.31189083820662 159.68810916179336 L 96.31189083820662 159.68810916179336 L 128.2495126705653 159.68810916179336 L 224.06237816764133 159.68810916179336 L 224.06237816764133 191.62573099415204 L 224.06237816764133 191.62573099415204 L 224.06237816764133 207.59454191033137 L 224.06237816764133 207.59454191033137 Q 223.06432748538012 234.541910331384 205.09941520467837 252.50682261208576 Q 187.1345029239766 270.47173489278754 160.18713450292398 271.4697855750487 L 160.18713450292398 271.4697855750487 Z M 351.812865497076 239.53216374269005 Q 365.78557504873294 239.53216374269005 374.76803118908384 230.54970760233917 L 374.76803118908384 230.54970760233917 L 374.76803118908384 230.54970760233917 Q 383.7504873294347 221.5672514619883 383.7504873294347 207.59454191033137 L 383.7504873294347 191.62573099415204 L 383.7504873294347 191.62573099415204 L 319.87524366471735 191.62573099415204 L 319.87524366471735 191.62573099415204 L 319.87524366471735 207.59454191033137 L 319.87524366471735 207.59454191033137 Q 319.87524366471735 221.5672514619883 328.85769980506825 230.54970760233917 Q 337.8401559454191 239.53216374269005 351.812865497076 239.53216374269005 L 351.812865497076 239.53216374269005 Z M 415.68810916179336 207.59454191033137 Q 414.6900584795322 234.541910331384 396.72514619883043 252.50682261208576 L 396.72514619883043 252.50682261208576 L 396.72514619883043 252.50682261208576 Q 378.7602339181287 270.47173489278754 351.812865497076 271.4697855750487 Q 324.8654970760234 270.47173489278754 306.90058479532166 252.50682261208576 Q 288.9356725146199 234.541910331384 287.9376218323587 207.59454191033137 L 287.9376218323587 191.62573099415204 L 287.9376218323587 191.62573099415204 L 287.9376218323587 159.68810916179336 L 287.9376218323587 159.68810916179336 L 319.87524366471735 159.68810916179336 L 415.68810916179336 159.68810916179336 L 415.68810916179336 191.62573099415204 L 415.68810916179336 191.62573099415204 L 415.68810916179336 207.59454191033137 L 415.68810916179336 207.59454191033137 Z M 208.093567251462 79.84405458089668 Q 223.06432748538012 80.84210526315789 224.06237816764133 95.81286549707602 Q 223.06432748538012 110.78362573099415 208.093567251462 111.78167641325535 Q 193.12280701754386 110.78362573099415 192.12475633528265 95.81286549707602 Q 193.12280701754386 80.84210526315789 208.093567251462 79.84405458089668 L 208.093567251462 79.84405458089668 Z M 240.03118908382066 143.71929824561403 Q 241.02923976608187 128.7485380116959 256 127.75048732943469 Q 270.97076023391816 128.7485380116959 271.96881091617934 143.71929824561403 Q 270.97076023391816 158.69005847953215 256 159.68810916179336 Q 241.02923976608187 158.69005847953215 240.03118908382066 143.71929824561403 L 240.03118908382066 143.71929824561403 Z M 208.093567251462 303.4074074074074 Q 209.0916179337232 288.4366471734893 224.06237816764133 287.43859649122805 Q 239.03313840155946 288.4366471734893 240.03118908382066 303.4074074074074 Q 239.03313840155946 318.37816764132555 224.06237816764133 319.3762183235867 Q 209.0916179337232 318.37816764132555 208.093567251462 303.4074074074074 L 208.093567251462 303.4074074074074 Z M 208.093567251462 367.28265107212474 Q 209.0916179337232 352.31189083820664 224.06237816764133 351.3138401559454 Q 239.03313840155946 352.31189083820664 240.03118908382066 367.28265107212474 Q 239.03313840155946 382.2534113060429 224.06237816764133 383.2514619883041 Q 209.0916179337232 382.2534113060429 208.093567251462 367.28265107212474 L 208.093567251462 367.28265107212474 Z M 224.06237816764133 415.18908382066274 Q 239.03313840155946 416.187134502924 240.03118908382066 431.1578947368421 Q 239.03313840155946 446.12865497076024 224.06237816764133 447.1267056530214 Q 209.0916179337232 446.12865497076024 208.093567251462 431.1578947368421 Q 209.0916179337232 416.187134502924 224.06237816764133 415.18908382066274 L 224.06237816764133 415.18908382066274 Z M 287.9376218323587 415.18908382066274 Q 302.90838206627683 416.187134502924 303.906432748538 431.1578947368421 Q 302.90838206627683 446.12865497076024 287.9376218323587 447.1267056530214 Q 272.9668615984406 446.12865497076024 271.96881091617934 431.1578947368421 Q 272.9668615984406 416.187134502924 287.9376218323587 415.18908382066274 L 287.9376218323587 415.18908382066274 Z M 287.9376218323587 351.3138401559454 Q 302.90838206627683 352.31189083820664 303.906432748538 367.28265107212474 Q 302.90838206627683 382.2534113060429 287.9376218323587 383.2514619883041 Q 272.9668615984406 382.2534113060429 271.96881091617934 367.28265107212474 Q 272.9668615984406 352.31189083820664 287.9376218323587 351.3138401559454 L 287.9376218323587 351.3138401559454 Z M 287.9376218323587 287.43859649122805 Q 302.90838206627683 288.4366471734893 303.906432748538 303.4074074074074 Q 302.90838206627683 318.37816764132555 287.9376218323587 319.3762183235867 Q 272.9668615984406 318.37816764132555 271.96881091617934 303.4074074074074 Q 272.9668615984406 288.4366471734893 287.9376218323587 287.43859649122805 L 287.9376218323587 287.43859649122805 Z M 287.9376218323587 95.81286549707602 Q 288.9356725146199 80.84210526315789 303.906432748538 79.84405458089668 Q 318.87719298245617 80.84210526315789 319.87524366471735 95.81286549707602 Q 318.87719298245617 110.78362573099415 303.906432748538 111.78167641325535 Q 288.9356725146199 110.78362573099415 287.9376218323587 95.81286549707602 L 287.9376218323587 95.81286549707602 Z" />
</svg>