<svg viewBox="0 0 640 448">
  <path
    d="M 88 104 Q 89 63 124 42 Q 160 22 196 42 Q 231 63 232 104 Q 231 145 196 166 Q 160 186 124 166 Q 89 145 88 104 L 88 104 Z M 264 104 Q 264 76 250 52 L 250 52 Q 236 28 212 14 Q 187 0 160 0 Q 133 0 108 14 Q 84 28 70 52 Q 56 76 56 104 Q 56 132 70 156 Q 84 180 108 194 Q 133 208 160 208 Q 187 208 212 194 Q 236 180 250 156 Q 264 132 264 104 L 264 104 Z M 408 104 Q 409 63 444 42 Q 480 22 516 42 Q 551 63 552 104 Q 551 145 516 166 Q 480 186 444 166 Q 409 145 408 104 L 408 104 Z M 584 104 Q 584 76 570 52 L 570 52 Q 556 28 532 14 Q 507 0 480 0 Q 453 0 428 14 Q 404 28 390 52 Q 376 76 376 104 Q 376 132 390 156 Q 404 180 428 194 Q 453 208 480 208 Q 507 208 532 194 Q 556 180 570 156 Q 584 132 584 104 L 584 104 Z M 87 288 L 233 288 L 276 416 L 44 416 L 87 288 L 87 288 Z M 256 256 L 64 256 L 11 416 L 0 448 L 34 448 L 286 448 L 320 448 L 309 416 L 256 256 L 256 256 Z M 364 288 L 596 288 L 553 416 L 407 416 L 364 288 L 364 288 Z M 384 448 L 576 448 L 629 288 L 640 256 L 606 256 L 354 256 L 320 256 L 331 288 L 384 448 L 384 448 Z"
  />
</svg>