<svg xmlns="http://www.w3.org/2000/svg" viewBox="0 0 512 512">
  <path d="M 410.13612565445027 234.55497382198953 L 338.65270506108203 111.24607329842932 L 410.13612565445027 234.55497382198953 L 338.65270506108203 111.24607329842932 L 381.54275741710296 86.22687609075044 L 381.54275741710296 86.22687609075044 L 453.0261780104712 209.53577661431063 L 453.0261780104712 209.53577661431063 L 410.13612565445027 234.55497382198953 L 410.13612565445027 234.55497382198953 Z M 512 225.6195462478185 L 490.5549738219895 188.09075043630017 L 512 225.6195462478185 L 490.5549738219895 188.09075043630017 L 419.07155322862127 64.78184991273997 L 419.07155322862127 64.78184991273997 L 397.62652705061083 27.25305410122164 L 397.62652705061083 27.25305410122164 L 360.09773123909247 48.69808027923211 L 360.09773123909247 48.69808027923211 L 317.20767888307154 73.717277486911 L 317.20767888307154 73.717277486911 L 279.67888307155323 95.16230366492147 L 279.67888307155323 95.16230366492147 L 292.18848167539267 116.60732984293193 L 292.18848167539267 116.60732984293193 L 33.06108202443281 281.91273996509597 L 33.06108202443281 281.91273996509597 L 50.038394415357764 311.39965095986037 L 50.038394415357764 311.39965095986037 L 0 340.88656195462477 L 0 340.88656195462477 L 44.67713787085515 417.7312390924956 L 44.67713787085515 417.7312390924956 L 94.71553228621292 389.1378708551483 L 94.71553228621292 389.1378708551483 L 109.01221640488656 414.15706806282725 L 109.01221640488656 414.15706806282725 L 212.6631762652705 357.86387434554973 L 212.6631762652705 357.86387434554973 L 160.83769633507853 484.74694589877834 L 160.83769633507853 484.74694589877834 L 207.3019197207679 484.74694589877834 L 207.3019197207679 484.74694589877834 L 254.65968586387436 368.586387434555 L 254.65968586387436 368.586387434555 Q 262.70157068062827 370.37347294938917 271.6369982547993 370.37347294938917 Q 280.5724258289703 370.37347294938917 288.61431064572423 368.586387434555 L 335.9720767888307 484.74694589877834 L 335.9720767888307 484.74694589877834 L 382.43630017452006 484.74694589877834 L 382.43630017452006 484.74694589877834 L 325.2495636998255 346.2478184991274 L 325.2495636998255 346.2478184991274 Q 342.2268760907504 326.58987783595114 343.12041884816756 298.89005235602093 Q 343.12041884816756 293.5287958115183 342.2268760907504 288.1675392670157 L 379.7556719022688 267.61605584642234 L 379.7556719022688 267.61605584642234 L 394.0523560209424 293.5287958115183 L 394.0523560209424 293.5287958115183 L 431.5811518324607 272.08376963350787 L 431.5811518324607 272.08376963350787 L 475.3647469458988 247.06457242582897 L 475.3647469458988 247.06457242582897 L 512 225.6195462478185 L 512 225.6195462478185 Z M 125.09598603839441 356.07678883071554 L 90.2478184991274 296.20942408376965 L 125.09598603839441 356.07678883071554 L 90.2478184991274 296.20942408376965 L 313.63350785340316 154.13612565445027 L 313.63350785340316 154.13612565445027 L 357.4171029668412 230.98080279232113 L 357.4171029668412 230.98080279232113 L 323.46247818499126 249.74520069808028 L 323.46247818499126 249.74520069808028 Q 302.9109947643979 228.30017452006982 271.6369982547993 227.4066317626527 Q 241.2565445026178 228.30017452006982 220.70506108202443 247.95811518324606 Q 201.04712041884818 268.50959860383944 200.15357766143106 298.89005235602093 Q 200.15357766143106 306.9319371727749 201.94066317626528 314.9738219895288 L 125.09598603839441 356.07678883071554 L 125.09598603839441 356.07678883071554 Z M 271.6369982547993 270.2966841186736 Q 284.14659685863876 270.2966841186736 292.18848167539267 278.3385689354276 L 292.18848167539267 278.3385689354276 L 292.18848167539267 278.3385689354276 Q 300.2303664921466 286.3804537521815 300.2303664921466 298.89005235602093 Q 300.2303664921466 311.39965095986037 292.18848167539267 319.44153577661433 Q 284.14659685863876 327.48342059336824 271.6369982547993 327.48342059336824 Q 259.1273996509599 327.48342059336824 251.08551483420592 319.44153577661433 Q 243.04363001745202 311.39965095986037 243.04363001745202 298.89005235602093 Q 243.04363001745202 286.3804537521815 251.08551483420592 278.3385689354276 Q 259.1273996509599 270.2966841186736 271.6369982547993 270.2966841186736 L 271.6369982547993 270.2966841186736 Z" />
</svg>