<svg xmlns="http://www.w3.org/2000/svg" viewBox="0 0 512 512">
  <path d="M 59.844154 100.155846 Q 59.844154 88.51948 67.32468 81.03896 L 67.32468 81.03896 L 67.32468 81.03896 Q 74.80519 73.55844 86.44156 73.55844 Q 98.07792 73.55844 105.55844 81.03896 Q 113.03896 88.51948 113.03896 100.155846 Q 113.03896 111.792206 105.55844 119.27273 Q 98.07792 126.75325 86.44156 126.75325 Q 74.80519 126.75325 67.32468 119.27273 Q 59.844154 111.792206 59.844154 100.155846 L 59.844154 100.155846 Z M 139.63637 100.155846 Q 138.80519 70.233765 113.03896 54.44156 Q 86.44156 39.48052 59.844154 54.44156 Q 34.077923 70.233765 33.246754 100.155846 Q 34.077923 130.07793 59.844154 145.87013 Q 86.44156 160.83116 113.03896 145.87013 Q 138.80519 130.07793 139.63637 100.155846 L 139.63637 100.155846 Z M 27.428572 312.93506 L 32.415585 206.54546 L 27.428572 312.93506 L 32.415585 206.54546 L 140.46753 206.54546 L 140.46753 206.54546 L 145.45454 312.93506 L 145.45454 312.93506 L 139.63637 312.93506 L 27.428572 312.93506 Z M 33.246754 339.53247 L 33.246754 459.22076 L 33.246754 339.53247 L 33.246754 459.22076 L 33.246754 472.51947 L 33.246754 472.51947 L 59.844154 472.51947 L 59.844154 472.51947 L 59.844154 459.22076 L 59.844154 459.22076 L 59.844154 339.53247 L 59.844154 339.53247 L 113.03896 339.53247 L 113.03896 339.53247 L 113.03896 459.22076 L 113.03896 459.22076 L 113.03896 472.51947 L 113.03896 472.51947 L 139.63637 472.51947 L 139.63637 472.51947 L 139.63637 459.22076 L 139.63637 459.22076 L 139.63637 339.53247 L 139.63637 339.53247 L 146.28572 339.53247 L 172.88312 339.53247 L 172.05194 312.93506 L 172.05194 312.93506 L 166.23376 179.94806 L 166.23376 179.94806 L 6.6493506 179.94806 L 6.6493506 179.94806 L 0.83116883 312.93506 L 0.83116883 312.93506 L 0 339.53247 L 0 339.53247 L 26.597403 339.53247 L 33.246754 339.53247 Z M 259.32468 46.96104 L 232.72728 46.96104 L 259.32468 46.96104 L 232.72728 46.96104 L 232.72728 60.25974 L 232.72728 60.25974 L 232.72728 459.22076 L 232.72728 459.22076 L 232.72728 472.51947 L 232.72728 472.51947 L 259.32468 472.51947 L 259.32468 472.51947 L 259.32468 459.22076 L 259.32468 459.22076 L 259.32468 60.25974 L 259.32468 60.25974 L 259.32468 46.96104 L 259.32468 46.96104 Z M 405.61038 73.55844 Q 417.24677 73.55844 424.72726 81.03896 L 424.72726 81.03896 L 424.72726 81.03896 Q 432.2078 88.51948 432.2078 100.155846 Q 432.2078 111.792206 424.72726 119.27273 Q 417.24677 126.75325 405.61038 126.75325 Q 393.97403 126.75325 386.4935 119.27273 Q 379.013 111.792206 379.013 100.155846 Q 379.013 88.51948 386.4935 81.03896 Q 393.97403 73.55844 405.61038 73.55844 L 405.61038 73.55844 Z M 405.61038 153.35065 Q 435.53247 152.51949 451.32468 126.75325 Q 466.2857 100.155846 451.32468 73.55844 Q 435.53247 47.79221 405.61038 46.96104 Q 375.68832 47.79221 359.89612 73.55844 Q 344.93506 100.155846 359.89612 126.75325 Q 375.68832 152.51949 405.61038 153.35065 L 405.61038 153.35065 Z M 372.36365 206.54546 L 438.85715 206.54546 L 372.36365 206.54546 L 438.85715 206.54546 L 477.0909 339.53247 L 477.0909 339.53247 L 334.12988 339.53247 L 334.12988 339.53247 L 372.36365 206.54546 L 372.36365 206.54546 Z M 458.8052 179.94806 L 352.4156 179.94806 L 458.8052 179.94806 L 352.4156 179.94806 L 306.7013 339.53247 L 306.7013 339.53247 L 299.22076 366.12988 L 299.22076 366.12988 L 326.64935 366.12988 L 352.4156 366.12988 L 352.4156 459.22076 L 352.4156 459.22076 L 352.4156 472.51947 L 352.4156 472.51947 L 379.013 472.51947 L 379.013 472.51947 L 379.013 459.22076 L 379.013 459.22076 L 379.013 366.12988 L 379.013 366.12988 L 432.2078 366.12988 L 432.2078 366.12988 L 432.2078 459.22076 L 432.2078 459.22076 L 432.2078 472.51947 L 432.2078 472.51947 L 458.8052 472.51947 L 458.8052 472.51947 L 458.8052 459.22076 L 458.8052 459.22076 L 458.8052 366.12988 L 458.8052 366.12988 L 484.57144 366.12988 L 512 366.12988 L 504.51947 339.53247 L 504.51947 339.53247 L 458.8052 179.94806 L 458.8052 179.94806 Z" />
</svg>