<svg xmlns="http://www.w3.org/2000/svg" viewBox="0 0 448 512">
    <path d="M 48 48 L 48 112 L 112 112 L 112 48 L 48 48 L 48 48 Z M 0 0 L 48 0 L 112 0 L 160 0 L 160 48 L 160 112 L 160 160 L 112 160 L 104 160 L 104 352 L 112 352 L 160 352 L 160 400 L 160 464 L 160 512 L 112 512 L 48 512 L 0 512 L 0 464 L 0 400 L 0 352 L 48 352 L 56 352 L 56 160 L 48 160 L 0 160 L 0 112 L 0 48 L 0 0 L 0 0 Z M 345 23 L 368 46 L 391 23 L 408 6 L 442 40 L 425 57 L 402 80 L 425 103 L 442 120 L 408 154 L 391 137 L 368 114 L 345 137 L 328 154 L 294 120 L 311 103 L 334 80 L 311 57 L 294 40 L 328 6 L 345 23 L 345 23 Z M 392 200 L 392 224 L 392 352 L 400 352 L 448 352 L 448 400 L 448 464 L 448 512 L 400 512 L 336 512 L 288 512 L 288 464 L 288 400 L 288 352 L 336 352 L 344 352 L 344 224 L 344 200 L 392 200 L 392 200 Z M 48 400 L 48 464 L 112 464 L 112 400 L 48 400 L 48 400 Z M 336 400 L 336 464 L 400 464 L 400 400 L 336 400 L 336 400 Z"/>
</svg>
