<svg viewBox="0 0 640 512">
  <path
    d="M 180 0 L 238 0 L 308 145 L 253 288 L 144 288 L 144 133 L 96 220 L 96 368 L 96 416 L 0 416 L 0 368 L 0 208 L 0 196 L 6 185 L 94 25 L 108 0 L 136 0 L 144 0 L 180 0 L 180 0 Z M 144 352 L 144 320 L 264 320 L 320 320 L 496 320 L 496 352 L 388 352 L 350 352 L 392 415 L 401 429 L 374 446 L 365 433 L 320 365 L 275 433 L 266 446 L 239 429 L 248 415 L 290 352 L 252 352 L 144 352 L 144 352 Z M 221 398 L 195 437 L 275 491 L 301 451 L 320 423 L 339 451 L 365 491 L 445 437 L 419 397 L 410 384 L 496 384 L 496 512 L 144 512 L 144 384 L 230 384 L 221 398 L 221 398 Z M 496 133 L 496 288 L 287 288 L 340 150 L 397 0 L 460 0 L 496 0 L 504 0 L 532 0 L 546 25 L 634 185 L 640 196 L 640 208 L 640 368 L 640 416 L 544 416 L 544 368 L 544 220 L 496 133 L 496 133 Z"
  />
</svg>