<svg xmlns="http://www.w3.org/2000/svg" viewBox="0 0 512 512">
  <path d="M 204.8 34.13333333333333 Q 281.6 35.2 342.4 71.46666666666667 L 342.4 71.46666666666667 L 342.4 71.46666666666667 Q 404.26666666666665 107.73333333333333 440.53333333333336 169.6 L 440.53333333333336 169.6 L 440.53333333333336 169.6 Q 476.8 230.4 477.8666666666667 307.2 L 512 307.2 L 512 307.2 Q 510.93333333333334 221.86666666666667 470.4 152.53333333333333 Q 428.8 83.2 359.46666666666664 41.6 Q 290.1333333333333 1.0666666666666667 204.8 0 L 204.8 34.13333333333333 L 204.8 34.13333333333333 Z M 409.6 307.2 Q 407.46666666666664 219.73333333333332 349.8666666666667 162.13333333333333 L 349.8666666666667 162.13333333333333 L 349.8666666666667 162.13333333333333 Q 292.26666666666665 104.53333333333333 204.8 102.4 L 204.8 136.53333333333333 L 204.8 136.53333333333333 Q 277.3333333333333 138.66666666666666 325.3333333333333 186.66666666666666 Q 373.3333333333333 234.66666666666666 375.46666666666664 307.2 L 409.6 307.2 L 409.6 307.2 Z M 34.13333333333333 93.86666666666666 L 34.13333333333333 76.8 L 34.13333333333333 93.86666666666666 L 34.13333333333333 76.8 L 0 76.8 L 0 76.8 L 0 93.86666666666666 L 0 93.86666666666666 L 0 358.4 L 0 358.4 Q 2.1333333333333333 423.46666666666664 44.8 467.2 Q 88.53333333333333 509.8666666666667 153.6 512 Q 218.66666666666666 509.8666666666667 262.4 467.2 Q 305.06666666666666 423.46666666666664 307.2 358.4 Q 305.06666666666666 293.3333333333333 262.4 249.6 Q 218.66666666666666 206.93333333333334 153.6 204.8 L 145.06666666666666 204.8 L 128 204.8 L 128 238.93333333333334 L 128 238.93333333333334 L 145.06666666666666 238.93333333333334 L 153.6 238.93333333333334 Q 204.8 240 237.86666666666667 274.1333333333333 Q 272 307.2 273.06666666666666 358.4 Q 272 409.6 237.86666666666667 442.6666666666667 Q 204.8 476.8 153.6 477.8666666666667 Q 102.4 476.8 69.33333333333333 442.6666666666667 Q 35.2 409.6 34.13333333333333 358.4 L 34.13333333333333 93.86666666666666 L 34.13333333333333 93.86666666666666 Z" />
</svg>