<svg xmlns="http://www.w3.org/2000/svg" viewBox="0 0 512 512">
  <path d="M 256 512 Q 326 511 384 478 L 384 478 L 384 478 Q 442 444 478 384 Q 512 323 512 256 Q 512 189 478 128 Q 442 68 384 34 Q 326 1 256 0 Q 186 1 128 34 Q 70 68 34 128 Q 0 189 0 256 Q 0 323 34 384 Q 70 444 128 478 Q 186 511 256 512 L 256 512 Z M 262 160 Q 249 160 240 169 L 240 169 L 240 169 Q 231 178 231 191 L 231 224 L 231 224 L 272 224 L 288 224 L 288 256 L 288 256 L 272 256 L 232 256 L 232 297 L 232 297 L 232 303 L 232 303 L 229 308 L 229 308 L 223 320 L 223 320 L 328 320 L 352 320 L 352 368 L 352 368 L 328 368 L 145 368 L 163 333 L 163 333 L 184 292 L 184 292 L 184 256 L 184 256 L 176 256 L 160 256 L 160 224 L 160 224 L 176 224 L 184 224 L 183 191 L 183 191 Q 184 157 206 135 Q 228 113 262 112 Q 277 112 291 118 L 321 130 L 321 130 L 343 139 L 343 139 L 326 183 L 326 183 L 303 174 L 303 174 L 273 162 L 273 162 Q 267 160 262 160 L 262 160 Z" />
</svg>