<svg viewBox="0 0 448 512">
  <path
    d="M 208 32 L 288 32 Q 303 33 304 48 Q 303 63 288 64 L 208 64 L 208 32 L 208 32 Z M 176 96 L 208 96 L 288 96 Q 308 95 322 82 Q 335 68 336 48 Q 335 28 322 14 Q 308 1 288 0 L 208 0 L 176 0 L 176 32 L 168 32 Q 134 33 111 55 Q 89 78 88 112 L 88 160 L 16 160 L 0 160 L 0 192 L 16 192 L 432 192 L 448 192 L 448 160 L 432 160 L 120 160 L 120 112 Q 121 92 134 78 Q 148 65 168 64 L 176 64 L 176 96 L 176 96 Z M 47 224 L 80 512 L 368 512 L 401 224 L 369 224 L 339 480 L 109 480 L 80 224 L 47 224 L 47 224 Z M 239 249 L 224 218 L 210 249 L 191 290 L 146 295 L 112 300 L 137 323 L 170 354 L 161 398 L 155 432 L 185 415 L 224 393 L 263 415 L 294 432 L 287 398 L 278 354 L 311 323 L 337 300 L 302 295 L 257 290 L 239 249 L 239 249 Z M 216 312 L 224 294 L 232 312 L 236 320 L 245 321 L 264 323 L 250 336 L 243 342 L 245 351 L 248 370 L 232 360 L 224 356 L 216 360 L 199 370 L 203 351 L 205 342 L 198 336 L 184 323 L 203 321 L 212 320 L 216 312 L 216 312 Z"
  />
</svg>