<svg xmlns="http://www.w3.org/2000/svg" viewBox="0 0 640 512">
    <path d="M 48 48 L 528 48 L 528 195 Q 554 200 576 211 L 576 48 L 576 0 L 528 0 L 48 0 L 0 0 L 0 48 L 0 368 L 0 416 L 48 416 L 212 416 L 204 464 L 152 464 L 128 464 L 128 512 L 152 512 L 224 512 L 352 512 L 395 512 Q 367 492 349 464 L 324 464 L 280 464 L 252 464 L 260 416 L 280 416 L 316 416 L 327 416 Q 320 393 320 368 L 48 368 L 48 48 L 48 48 Z M 480 120 L 480 96 L 456 96 L 376 96 L 352 96 L 352 144 L 376 144 L 398 144 L 304 238 L 241 175 L 224 158 L 207 175 L 103 279 L 137 313 L 224 226 L 287 289 L 304 306 L 321 289 L 432 178 L 432 200 L 432 204 Q 455 195 480 193 L 480 120 L 480 120 Z M 640 368 Q 640 329 621 296 L 621 296 Q 602 263 568 243 Q 534 224 496 224 Q 458 224 424 243 Q 390 263 371 296 Q 352 329 352 368 Q 352 407 371 440 Q 390 473 424 493 Q 458 512 496 512 Q 534 512 568 493 Q 602 473 621 440 Q 640 407 640 368 L 640 368 Z M 473 335 Q 472 336 472 339 L 472 339 Q 471 340 477 344 Q 485 348 499 351 Q 500 352 501 352 L 501 352 Q 516 355 531 363 Q 549 372 552 396 Q 550 423 530 433 Q 521 437 512 439 L 512 450 L 512 466 L 480 466 L 480 450 L 480 438 Q 467 435 456 432 L 456 432 L 456 432 Q 454 431 452 430 Q 452 430 451 430 L 436 425 L 446 395 L 461 399 Q 464 400 467 401 Q 467 401 467 401 Q 467 401 467 401 Q 483 407 496 408 Q 507 408 515 404 Q 518 403 519 401 Q 520 400 520 397 Q 521 395 515 391 Q 507 387 492 383 L 490 382 Q 476 379 462 372 Q 444 365 440 341 Q 441 313 462 304 Q 471 299 480 298 L 480 288 L 480 272 L 512 272 L 512 288 L 512 297 Q 521 299 530 301 L 545 305 L 538 336 L 522 332 Q 508 329 496 328 Q 486 328 477 332 Q 474 334 473 336 L 473 335 Z"/>
</svg>
