<svg xmlns="http://www.w3.org/2000/svg" viewBox="0 0 512 512">
  <path d="M 28.444444444444443 113.77777777777777 L 28.444444444444443 398.22222222222223 L 28.444444444444443 113.77777777777777 L 28.444444444444443 398.22222222222223 L 312.8888888888889 398.22222222222223 L 312.8888888888889 398.22222222222223 L 312.8888888888889 113.77777777777777 L 312.8888888888889 113.77777777777777 L 28.444444444444443 113.77777777777777 L 28.444444444444443 113.77777777777777 Z M 0 85.33333333333333 L 28.444444444444443 85.33333333333333 L 0 85.33333333333333 L 341.3333333333333 85.33333333333333 L 341.3333333333333 113.77777777777777 L 341.3333333333333 113.77777777777777 L 341.3333333333333 170.66666666666666 L 341.3333333333333 170.66666666666666 L 341.3333333333333 341.3333333333333 L 341.3333333333333 341.3333333333333 L 341.3333333333333 398.22222222222223 L 341.3333333333333 398.22222222222223 L 341.3333333333333 426.6666666666667 L 341.3333333333333 426.6666666666667 L 312.8888888888889 426.6666666666667 L 0 426.6666666666667 L 0 398.22222222222223 L 0 398.22222222222223 L 0 113.77777777777777 L 0 113.77777777777777 L 0 85.33333333333333 L 0 85.33333333333333 Z M 483.55555555555554 380.44444444444446 L 483.55555555555554 131.55555555555554 L 483.55555555555554 380.44444444444446 L 483.55555555555554 131.55555555555554 L 369.77777777777777 188.44444444444446 L 369.77777777777777 188.44444444444446 L 369.77777777777777 156.44444444444446 L 369.77777777777777 156.44444444444446 L 483.55555555555554 99.55555555555556 L 483.55555555555554 99.55555555555556 L 512 85.33333333333333 L 512 85.33333333333333 L 512 117.33333333333333 L 512 117.33333333333333 L 512 394.6666666666667 L 512 394.6666666666667 L 512 426.6666666666667 L 512 426.6666666666667 L 483.55555555555554 412.44444444444446 L 483.55555555555554 412.44444444444446 L 369.77777777777777 355.55555555555554 L 369.77777777777777 355.55555555555554 L 369.77777777777777 323.55555555555554 L 369.77777777777777 323.55555555555554 L 483.55555555555554 380.44444444444446 L 483.55555555555554 380.44444444444446 Z" />
</svg>