<svg xmlns="http://www.w3.org/2000/svg" viewBox="0 0 656 528">
    <path d="M 587 92 Q 567 64 536 58 L 536 58 Q 504 51 476 69 L 406 116 L 441 151 L 458 168 L 424 202 L 407 185 L 365 143 L 291 193 L 329 231 L 346 248 L 312 282 L 295 265 L 250 220 L 175 269 L 217 311 L 234 328 L 200 362 L 183 345 L 135 297 L 92 325 Q 64 345 58 376 Q 51 408 69 436 Q 89 464 120 470 Q 152 477 180 459 L 564 203 Q 592 183 598 152 Q 605 120 587 92 L 587 92 Z M 627 65 Q 656 111 646 161 L 646 161 Q 635 211 591 243 L 207 499 Q 161 528 111 518 Q 61 507 30 463 Q 0 417 11 367 Q 21 317 65 286 L 449 30 Q 495 0 545 11 Q 595 21 627 65 L 627 65 Z"/>
</svg>
