<svg viewBox="0 0 514 512">
  <path
    d="M 154 231 Q 142 218 116 207 Q 91 196 63 189 Q 51 186 40 183 Q 42 191 44 199 Q 51 225 63 251 Q 76 277 96 297 L 123 325 L 91 347 L 56 370 Q 58 371 60 373 Q 96 397 145 400 L 177 400 L 177 432 Q 177 435 177 438 Q 206 426 239 405 L 241 404 L 241 336 L 241 320 L 273 320 L 273 336 L 273 404 L 275 405 Q 308 426 337 438 Q 337 435 337 432 L 337 400 L 369 400 Q 418 397 454 373 Q 457 371 459 370 L 423 347 L 391 325 L 418 297 Q 438 277 451 251 Q 463 225 470 200 Q 473 191 474 184 Q 463 186 451 189 Q 423 196 398 207 Q 372 219 360 231 L 305 285 L 305 208 Q 304 165 294 131 Q 283 96 269 72 Q 263 60 257 52 Q 251 60 245 72 Q 231 96 220 130 Q 210 165 209 208 L 209 285 L 154 231 L 154 231 Z M 241 442 Q 207 461 181 471 L 181 471 Q 154 480 153 480 Q 152 480 147 460 Q 146 455 146 449 Q 145 441 145 432 Q 108 431 77 418 Q 47 404 27 389 Q 2 370 1 368 L 28 350 L 46 338 L 73 320 Q 62 308 52 295 Q 32 265 21 233 Q 10 201 6 177 Q 0 146 1 144 Q 3 144 34 150 Q 58 154 88 163 Q 119 172 146 186 Q 164 196 177 208 Q 177 188 180 169 Q 187 119 204 83 Q 221 46 237 25 Q 256 0 257 0 Q 258 0 277 25 Q 293 46 310 83 Q 327 119 335 169 Q 337 188 337 208 Q 350 195 368 186 Q 395 172 426 163 Q 456 154 480 149 Q 511 144 513 144 Q 513 144 513 144 Q 514 146 508 177 Q 504 201 493 233 Q 482 265 462 295 Q 452 308 441 320 L 468 338 L 486 350 L 513 368 Q 512 370 487 389 Q 467 404 437 418 Q 406 431 369 432 Q 369 441 368 449 Q 368 455 367 460 Q 362 480 361 480 Q 361 480 361 480 Q 360 480 333 470 Q 307 461 273 442 L 273 496 L 273 512 L 241 512 L 241 496 L 241 442 L 241 442 Z"
  />
</svg>