<svg xmlns="http://www.w3.org/2000/svg" viewBox="0 0 512 512">
  <path d="M 0 210.28572 Q 1.1428572 152 40 113.14286 L 40 113.14286 L 40 113.14286 Q 78.85714 74.28571 137.14285 73.14286 L 155.42857 73.14286 L 182.85715 73.14286 L 182.85715 128 L 182.85715 128 L 155.42857 128 L 137.14285 128 Q 101.71429 129.14285 78.85714 152 Q 56 174.85715 54.857143 210.28572 L 54.857143 219.42857 L 54.857143 219.42857 L 164.57143 219.42857 L 219.42857 219.42857 L 219.42857 274.2857 L 219.42857 274.2857 L 219.42857 384 L 219.42857 384 L 219.42857 438.85715 L 219.42857 438.85715 L 164.57143 438.85715 L 0 438.85715 L 0 384 L 0 384 L 0 329.14285 L 0 329.14285 L 0 274.2857 L 0 274.2857 L 0 219.42857 L 0 219.42857 L 0 210.28572 L 0 210.28572 Z M 54.857143 274.2857 L 54.857143 329.14285 L 54.857143 274.2857 L 54.857143 329.14285 L 54.857143 384 L 54.857143 384 L 164.57143 384 L 164.57143 384 L 164.57143 274.2857 L 164.57143 274.2857 L 54.857143 274.2857 L 54.857143 274.2857 Z M 457.14285 274.2857 L 347.42856 274.2857 L 457.14285 274.2857 L 347.42856 274.2857 L 347.42856 329.14285 L 347.42856 329.14285 L 347.42856 384 L 347.42856 384 L 457.14285 384 L 457.14285 384 L 457.14285 274.2857 L 457.14285 274.2857 Z M 292.57144 329.14285 L 292.57144 274.2857 L 292.57144 329.14285 L 292.57144 274.2857 L 292.57144 219.42857 L 292.57144 219.42857 L 292.57144 210.28572 L 292.57144 210.28572 Q 293.7143 152 332.57144 113.14286 Q 371.42856 74.28571 429.7143 73.14286 L 448 73.14286 L 475.42856 73.14286 L 475.42856 128 L 475.42856 128 L 448 128 L 429.7143 128 Q 394.2857 129.14285 371.42856 152 Q 348.57144 174.85715 347.42856 210.28572 L 347.42856 219.42857 L 347.42856 219.42857 L 457.14285 219.42857 L 512 219.42857 L 512 274.2857 L 512 274.2857 L 512 384 L 512 384 L 512 438.85715 L 512 438.85715 L 457.14285 438.85715 L 292.57144 438.85715 L 292.57144 384 L 292.57144 384 L 292.57144 329.14285 L 292.57144 329.14285 Z" />
</svg>