<svg xmlns="http://www.w3.org/2000/svg" viewBox="0 0 512 512">
  <path d="M 334.22223 248.88889 L 369.77777 284.44446 L 334.22223 248.88889 L 369.77777 284.44446 L 369.77777 312.8889 L 369.77777 312.8889 L 323.55554 312.8889 L 323.55554 312.8889 L 227.55556 216.88889 L 227.55556 216.88889 L 227.55556 170.66667 L 227.55556 170.66667 L 256 170.66667 L 256 170.66667 L 291.55554 206.22223 L 291.55554 206.22223 L 469.33334 28.444445 L 469.33334 28.444445 L 512 71.111115 L 512 71.111115 L 334.22223 248.88889 L 334.22223 248.88889 Z M 198.22223 237.33333 L 303.1111 342.22223 L 198.22223 237.33333 L 303.1111 342.22223 Q 307.55554 401.77777 265.77777 445.33334 Q 227.55556 482.66666 174.22223 483.55554 L 0 483.55554 L 0 483.55554 L 0 455.1111 L 0 455.1111 L 142.22223 327.1111 L 142.22223 327.1111 L 56.88889 369.77777 L 56.88889 369.77777 L 56.88889 367.1111 L 56.88889 367.1111 Q 57.77778 312.8889 95.111115 274.66666 Q 138.66667 232.88889 198.22223 237.33333 L 198.22223 237.33333 Z M 412.44446 341.33334 Q 452.44446 342.22223 473.77777 376.8889 Q 493.33334 412.44446 473.77777 448 Q 452.44446 482.66666 412.44446 483.55554 Q 372.44446 482.66666 351.1111 448 Q 331.55554 412.44446 351.1111 376.8889 Q 372.44446 342.22223 412.44446 341.33334 L 412.44446 341.33334 Z" />
</svg>