<svg xmlns="http://www.w3.org/2000/svg" viewBox="0 0 512 512">
  <path d="M 42.666668 99.55556 L 42.666668 412.44446 L 42.666668 99.55556 L 42.666668 412.44446 L 469.33334 412.44446 L 469.33334 412.44446 L 469.33334 99.55556 L 469.33334 99.55556 L 42.666668 99.55556 L 42.666668 99.55556 Z M 0 56.88889 L 42.666668 56.88889 L 0 56.88889 L 512 56.88889 L 512 99.55556 L 512 99.55556 L 512 412.44446 L 512 412.44446 L 512 455.1111 L 512 455.1111 L 469.33334 455.1111 L 0 455.1111 L 0 412.44446 L 0 412.44446 L 0 99.55556 L 0 99.55556 L 0 56.88889 L 0 56.88889 Z M 85.333336 327.1111 L 170.66667 327.1111 L 85.333336 327.1111 L 170.66667 327.1111 L 170.66667 369.77777 L 170.66667 369.77777 L 85.333336 369.77777 L 85.333336 369.77777 L 85.333336 327.1111 L 85.333336 327.1111 Z M 199.11111 327.1111 L 341.33334 327.1111 L 199.11111 327.1111 L 341.33334 327.1111 L 341.33334 369.77777 L 341.33334 369.77777 L 199.11111 369.77777 L 199.11111 369.77777 L 199.11111 327.1111 L 199.11111 327.1111 Z" />
</svg>