<svg xmlns="http://www.w3.org/2000/svg" viewBox="0 0 512 512">
  <path d="M 512 512 L 0 512 L 512 512 L 0 512 L 0 0 L 0 0 L 512 0 L 512 0 L 512 512 L 512 512 Z M 275.42856 412.57144 L 403.42856 284.57144 L 275.42856 412.57144 L 403.42856 284.57144 L 422.85715 265.14285 L 422.85715 265.14285 L 384 226.28572 L 384 226.28572 L 364.57144 245.71428 L 364.57144 245.71428 L 283.42856 326.85715 L 283.42856 326.85715 L 283.42856 118.85714 L 283.42856 118.85714 L 283.42856 91.42857 L 283.42856 91.42857 L 228.57143 91.42857 L 228.57143 91.42857 L 228.57143 118.85714 L 228.57143 118.85714 L 228.57143 326.85715 L 228.57143 326.85715 L 147.42857 245.71428 L 147.42857 245.71428 L 128 226.28572 L 128 226.28572 L 89.14286 265.14285 L 89.14286 265.14285 L 108.57143 284.57144 L 108.57143 284.57144 L 236.57143 412.57144 L 236.57143 412.57144 L 256 432 L 256 432 L 275.42856 412.57144 L 275.42856 412.57144 Z" />
</svg>