<svg xmlns="http://www.w3.org/2000/svg" viewBox="0 0 512 512">
  <path d="M 256 0 Q 186 1 128 34 L 128 34 L 128 34 Q 70 68 34 128 Q 0 189 0 256 Q 0 323 34 384 Q 70 444 128 478 Q 186 511 256 512 Q 326 511 384 478 Q 442 444 478 384 Q 512 323 512 256 Q 512 189 478 128 Q 442 68 384 34 Q 326 1 256 0 L 256 0 Z M 344 368 L 192 368 L 344 368 L 168 368 L 168 320 L 168 320 L 192 320 L 286 320 L 151 185 L 151 185 L 134 168 L 134 168 L 168 134 L 168 134 L 185 151 L 185 151 L 320 286 L 320 286 L 320 184 L 320 184 L 320 160 L 320 160 L 368 160 L 368 160 L 368 184 L 368 184 L 368 344 L 368 344 L 368 368 L 368 368 L 344 368 L 344 368 Z" />
</svg>