<svg viewBox="0 0 576 512">
  <path
    d="M 352 32 L 32 32 L 32 480 L 296 480 Q 311 498 331 512 L 32 512 L 0 512 L 0 480 L 0 32 L 0 0 L 32 0 L 352 0 L 384 0 L 384 32 L 384 199 Q 367 203 352 211 L 352 32 L 352 32 Z M 64 128 L 80 128 L 304 128 L 320 128 L 320 160 L 304 160 L 80 160 L 64 160 L 64 128 L 64 128 Z M 80 224 L 272 224 L 288 224 L 288 256 L 272 256 L 80 256 L 64 256 L 64 224 L 80 224 L 80 224 Z M 80 320 L 208 320 L 224 320 L 224 352 L 208 352 L 80 352 L 64 352 L 64 320 L 80 320 L 80 320 Z M 544 368 Q 544 338 529 312 L 529 312 Q 514 286 488 271 Q 462 256 432 256 Q 402 256 376 271 Q 350 286 335 312 Q 320 338 320 368 Q 320 398 335 424 Q 350 450 376 465 Q 402 480 432 480 Q 462 480 488 465 Q 514 450 529 424 Q 544 398 544 368 L 544 368 Z M 288 368 Q 288 329 307 296 L 307 296 Q 326 263 360 243 Q 394 224 432 224 Q 470 224 504 243 Q 538 263 557 296 Q 576 329 576 368 Q 576 407 557 440 Q 538 473 504 493 Q 470 512 432 512 Q 394 512 360 493 Q 326 473 307 440 Q 288 407 288 368 L 288 368 Z M 448 288 L 448 320 L 416 320 L 416 288 L 448 288 L 448 288 Z M 400 448 L 400 416 L 416 416 L 416 368 L 400 368 L 400 336 L 416 336 L 432 336 L 448 336 L 448 352 L 448 416 L 448 416 L 464 416 L 464 448 L 448 448 L 448 448 L 416 448 L 416 448 L 400 448 L 400 448 Z"
  />
</svg>