<svg xmlns="http://www.w3.org/2000/svg" viewBox="0 0 512 512">
  <path d="M 369.77777777777777 28.444444444444443 L 142.22222222222223 28.444444444444443 L 369.77777777777777 28.444444444444443 L 142.22222222222223 28.444444444444443 L 142.22222222222223 71.11111111111111 L 142.22222222222223 71.11111111111111 L 174.22222222222223 71.11111111111111 L 174.22222222222223 71.11111111111111 L 126.22222222222223 298.6666666666667 L 126.22222222222223 298.6666666666667 L 85.33333333333333 298.6666666666667 L 42.666666666666664 298.6666666666667 L 42.666666666666664 341.3333333333333 L 42.666666666666664 341.3333333333333 L 42.666666666666664 384.8888888888889 L 42.666666666666664 384.8888888888889 Q 54.22222222222222 378.6666666666667 67.55555555555556 368 L 68.44444444444444 367.1111111111111 L 68.44444444444444 367.1111111111111 L 85.33333333333333 355.55555555555554 L 85.33333333333333 355.55555555555554 L 85.33333333333333 341.3333333333333 L 85.33333333333333 341.3333333333333 L 426.6666666666667 341.3333333333333 L 426.6666666666667 341.3333333333333 L 426.6666666666667 355.55555555555554 L 426.6666666666667 355.55555555555554 L 426.6666666666667 355.55555555555554 L 426.6666666666667 355.55555555555554 L 444.44444444444446 368 L 444.44444444444446 368 Q 444.44444444444446 368 444.44444444444446 368.8888888888889 Q 458.6666666666667 378.6666666666667 469.3333333333333 384.8888888888889 L 469.3333333333333 341.3333333333333 L 469.3333333333333 341.3333333333333 L 469.3333333333333 298.6666666666667 L 469.3333333333333 298.6666666666667 L 426.6666666666667 298.6666666666667 L 385.77777777777777 298.6666666666667 L 337.77777777777777 71.11111111111111 L 337.77777777777777 71.11111111111111 L 369.77777777777777 71.11111111111111 L 369.77777777777777 71.11111111111111 L 369.77777777777777 28.444444444444443 L 369.77777777777777 28.444444444444443 Z M 294.22222222222223 71.11111111111111 L 304.8888888888889 121.77777777777777 L 294.22222222222223 71.11111111111111 L 304.8888888888889 121.77777777777777 L 256 178.66666666666666 L 256 178.66666666666666 L 207.11111111111111 121.77777777777777 L 207.11111111111111 121.77777777777777 L 217.77777777777777 71.11111111111111 L 217.77777777777777 71.11111111111111 L 294.22222222222223 71.11111111111111 L 294.22222222222223 71.11111111111111 Z M 196.44444444444446 174.22222222222223 L 227.55555555555554 210.66666666666666 L 196.44444444444446 174.22222222222223 L 227.55555555555554 210.66666666666666 L 176 272 L 176 272 L 196.44444444444446 174.22222222222223 L 196.44444444444446 174.22222222222223 Z M 256 243.55555555555554 L 303.1111111111111 298.6666666666667 L 256 243.55555555555554 L 303.1111111111111 298.6666666666667 L 208.88888888888889 298.6666666666667 L 208.88888888888889 298.6666666666667 L 256 243.55555555555554 L 256 243.55555555555554 Z M 336 272 L 284.44444444444446 210.66666666666666 L 336 272 L 284.44444444444446 210.66666666666666 L 315.55555555555554 174.22222222222223 L 315.55555555555554 174.22222222222223 L 336 272 L 336 272 Z M 70.22222222222223 463.1111111111111 Q 79.11111111111111 457.77777777777777 85.33333333333333 453.3333333333333 Q 91.55555555555556 457.77777777777777 100.44444444444444 463.1111111111111 Q 112.88888888888889 471.1111111111111 131.55555555555554 477.3333333333333 Q 149.33333333333334 483.55555555555554 170.66666666666666 483.55555555555554 Q 192 483.55555555555554 209.77777777777777 477.3333333333333 Q 227.55555555555554 470.22222222222223 240.88888888888889 463.1111111111111 Q 249.77777777777777 457.77777777777777 256 453.3333333333333 Q 262.22222222222223 457.77777777777777 271.1111111111111 463.1111111111111 Q 283.55555555555554 471.1111111111111 302.22222222222223 477.3333333333333 Q 320 483.55555555555554 341.3333333333333 483.55555555555554 Q 362.6666666666667 483.55555555555554 380.44444444444446 477.3333333333333 Q 398.22222222222223 470.22222222222223 411.55555555555554 463.1111111111111 Q 420.44444444444446 457.77777777777777 426.6666666666667 453.3333333333333 Q 432.8888888888889 457.77777777777777 441.77777777777777 463.1111111111111 Q 455.1111111111111 471.1111111111111 472.8888888888889 477.3333333333333 Q 490.6666666666667 483.55555555555554 512 483.55555555555554 L 512 440.8888888888889 L 512 440.8888888888889 Q 484.44444444444446 439.1111111111111 463.1111111111111 425.77777777777777 Q 443.55555555555554 414.22222222222223 427.55555555555554 399.1111111111111 Q 427.55555555555554 399.1111111111111 427.55555555555554 398.22222222222223 L 426.6666666666667 398.22222222222223 L 425.77777777777777 398.22222222222223 Q 425.77777777777777 399.1111111111111 425.77777777777777 399.1111111111111 Q 409.77777777777777 414.22222222222223 390.22222222222223 425.77777777777777 Q 368 439.1111111111111 341.3333333333333 440.8888888888889 Q 313.77777777777777 439.1111111111111 292.44444444444446 425.77777777777777 Q 272.8888888888889 414.22222222222223 256.8888888888889 399.1111111111111 Q 256.8888888888889 399.1111111111111 256.8888888888889 398.22222222222223 L 256 398.22222222222223 L 255.11111111111111 398.22222222222223 Q 255.11111111111111 399.1111111111111 255.11111111111111 399.1111111111111 Q 239.11111111111111 414.22222222222223 219.55555555555554 425.77777777777777 Q 197.33333333333334 439.1111111111111 170.66666666666666 440.8888888888889 Q 143.11111111111111 439.1111111111111 121.77777777777777 425.77777777777777 Q 102.22222222222223 414.22222222222223 86.22222222222223 399.1111111111111 Q 86.22222222222223 399.1111111111111 85.33333333333333 398.22222222222223 L 85.33333333333333 398.22222222222223 L 85.33333333333333 398.22222222222223 L 84.44444444444444 398.22222222222223 L 84.44444444444444 398.22222222222223 Q 84.44444444444444 398.22222222222223 84.44444444444444 399.1111111111111 Q 68.44444444444444 414.22222222222223 48.888888888888886 425.77777777777777 Q 27.555555555555557 439.1111111111111 0 440.8888888888889 L 0 483.55555555555554 L 0 483.55555555555554 Q 21.333333333333332 483.55555555555554 39.111111111111114 477.3333333333333 Q 56.888888888888886 470.22222222222223 70.22222222222223 463.1111111111111 L 70.22222222222223 463.1111111111111 Z" />
</svg>