<svg xmlns="http://www.w3.org/2000/svg" viewBox="0 0 512 512">
  <path d="M 115.2 153.6 Q 116 117.6 147.2 98.4 Q 179.2 80.8 211.2 98.4 Q 242.4 117.6 243.2 153.6 Q 242.4 189.6 211.2 208.8 Q 179.2 226.4 147.2 208.8 Q 116 189.6 115.2 153.6 L 115.2 153.6 Z M 281.6 153.6 Q 281.6 125.6 268 102.4 L 268 102.4 L 268 102.4 Q 254.4 79.2 230.4 64.8 Q 206.4 51.2 179.2 51.2 Q 152 51.2 128 64.8 Q 104 79.2 90.4 102.4 Q 76.8 125.6 76.8 153.6 Q 76.8 181.6 90.4 204.8 Q 104 228 128 242.4 Q 152 256 179.2 256 Q 206.4 256 230.4 242.4 Q 254.4 228 268 204.8 Q 281.6 181.6 281.6 153.6 L 281.6 153.6 Z M 52 422.4 L 80 332.8 L 52 422.4 L 80 332.8 L 256 332.8 L 256 332.8 L 256 294.4 L 256 294.4 L 51.2 294.4 L 51.2 294.4 L 12 422.4 L 12 422.4 L 0 460.8 L 0 460.8 L 40 460.8 L 358.4 460.8 L 352 439.2 L 352 439.2 L 293.6 380.8 L 293.6 380.8 L 306.4 422.4 L 306.4 422.4 L 52 422.4 L 52 422.4 Z M 409.6 460.8 L 512 358.4 L 409.6 460.8 L 512 358.4 L 384 230.4 L 384 230.4 L 307.2 230.4 L 307.2 230.4 L 281.6 256 L 281.6 256 L 281.6 332.8 L 281.6 332.8 L 409.6 460.8 L 409.6 460.8 Z M 326.4 294.4 Q 328 276.8 345.6 275.2 Q 363.2 276.8 364.8 294.4 Q 363.2 312 345.6 313.6 Q 328 312 326.4 294.4 L 326.4 294.4 Z" />
</svg>