<svg xmlns="http://www.w3.org/2000/svg" viewBox="0 0 512 512">
  <path d="M 281.6 128 L 217.6 128 L 281.6 128 L 217.6 128 L 217.6 179.2 L 217.6 179.2 L 307.2 179.2 L 307.2 179.2 L 358.4 204.8 L 358.4 204.8 L 486.4 179.2 L 486.4 179.2 L 512 204.8 L 512 204.8 L 345.6 384 L 345.6 384 L 307.2 384 L 76.8 384 L 76.8 358.4 L 76.8 358.4 L 76.8 332.8 L 76.8 332.8 L 0 294.4 L 0 294.4 L 0 204.8 L 0 204.8 L 0 179.2 L 0 179.2 L 25.6 179.2 L 192 179.2 L 192 128 L 192 128 L 128 128 L 128 128 L 128 102.4 L 128 102.4 L 281.6 102.4 L 281.6 102.4 L 281.6 128 L 281.6 128 Z M 76.8 204.8 L 25.6 204.8 L 76.8 204.8 L 25.6 204.8 L 25.6 278.4 L 25.6 278.4 L 76.8 304 L 76.8 304 L 76.8 204.8 L 76.8 204.8 Z M 355.2 232 L 347.2 228 L 355.2 232 L 347.2 228 L 300.8 204.8 L 300.8 204.8 L 102.4 204.8 L 102.4 204.8 L 102.4 316.8 L 102.4 316.8 L 102.4 345.6 L 102.4 345.6 L 102.4 358.4 L 102.4 358.4 L 307.2 358.4 L 334.4 358.4 L 474.4 208 L 474.4 208 L 363.2 229.6 L 363.2 229.6 L 355.2 232 L 355.2 232 Z M 486.4 371.2 Q 487.2 369.6 482.4 358.4 Q 479.2 350.4 473.6 340.8 Q 468 350.4 464.8 358.4 Q 460 369.6 460.8 371.2 Q 461.6 383.2 473.6 384 Q 481.6 383.2 483.2 381.6 Q 485.6 380.8 486.4 371.2 L 486.4 371.2 Z M 435.2 371.2 Q 436 360 442.4 344.8 L 442.4 344.8 L 442.4 344.8 Q 449.6 330.4 458.4 316.8 Q 472 296 473.6 294.4 Q 473.6 294.4 473.6 294.4 Q 475.2 296 488.8 316.8 Q 497.6 330.4 504.8 344.8 Q 511.2 360 512 371.2 Q 511.2 390.4 500.8 400 Q 489.6 409.6 473.6 409.6 Q 457.6 408.8 446.4 398.4 Q 436 387.2 435.2 371.2 L 435.2 371.2 Z" />
</svg>