<svg viewBox="0 0 640 512">
  <path
    d="M 584 56 Q 584 64 582 72 Q 582 72 583 72 Q 583 72 584 72 Q 608 73 624 88 Q 639 104 640 128 Q 639 152 624 168 Q 608 183 584 184 Q 552 183 536 157 L 488 191 Q 466 207 452 231 Q 438 255 426 281 Q 426 281 425 281 L 425 281 Q 425 282 425 283 Q 413 310 397 334 Q 388 348 374 359 Q 337 388 292 383 Q 248 379 217 343 Q 215 340 213 338 Q 200 319 195 298 Q 194 293 193 288 L 161 288 Q 165 328 192 363 Q 232 409 289 415 Q 346 421 395 384 Q 412 370 424 351 Q 442 323 454 296 L 454 295 Q 477 240 507 217 L 509 216 Q 539 251 557 294 Q 576 337 576 384 L 576 512 L 288 512 L 0 512 L 0 384 Q 2 303 50 238 Q 97 173 164 135 Q 230 97 288 96 Q 351 97 421 140 L 487 94 Q 473 79 472 56 Q 473 32 488 16 Q 504 1 528 0 Q 552 1 568 16 Q 583 32 584 56 L 584 56 Z"
  />
</svg>