<svg xmlns="http://www.w3.org/2000/svg" viewBox="0 0 512 512">
  <path d="M 256 512 Q 326 511 384 478 L 384 478 L 384 478 Q 442 444 478 384 Q 512 323 512 256 Q 512 189 478 128 Q 442 68 384 34 Q 326 1 256 0 Q 186 1 128 34 Q 70 68 34 128 Q 0 189 0 256 Q 0 323 34 384 Q 70 444 128 478 Q 186 511 256 512 L 256 512 Z M 224 96 L 224 128 L 224 96 L 224 128 L 288 128 L 288 128 L 288 96 L 288 96 L 320 96 L 320 96 L 320 128 L 320 128 L 384 128 L 384 128 L 384 192 L 384 192 L 128 192 L 128 192 L 128 128 L 128 128 L 192 128 L 192 128 L 192 96 L 192 96 L 224 96 L 224 96 Z M 128 384 L 128 224 L 128 384 L 128 224 L 384 224 L 384 224 L 384 384 L 384 384 L 128 384 L 128 384 Z" />
</svg>