<svg xmlns="http://www.w3.org/2000/svg" viewBox="0 0 512 512">
  <path d="M 131.18164 5.384321 Q 78.3174 6.363289 42.095604 41.606117 L 42.095604 41.606117 L 42.095604 41.606117 Q 6.852772 77.82792 5.873805 130.69215 L 5.873805 193.34608 L 5.873805 193.34608 L 5.873805 208.0306 L 5.873805 208.0306 L 19.57935 214.88336 L 19.57935 214.88336 L 102.79159 253.0631 L 102.79159 253.0631 Q 96.917786 261.8738 93.001915 271.66348 L 56.780113 271.66348 L 56.780113 271.66348 L 28.390057 257.95795 L 28.390057 257.95795 L 14.684512 251.10516 L 14.684512 251.10516 L 0 278.51627 L 0 278.51627 L 14.684512 285.36902 L 14.684512 285.36902 L 46.01147 301.0325 L 46.01147 301.0325 L 48.948376 302.99045 L 48.948376 302.99045 L 52.864246 302.99045 L 85.17017 302.99045 Q 84.19121 310.82217 84.19121 318.65393 L 84.19121 328.4436 L 84.19121 328.4436 L 63.63289 335.29636 L 63.63289 335.29636 L 59.71702 336.27533 L 59.71702 336.27533 L 57.759083 339.21225 L 57.759083 339.21225 L 26.432123 370.53918 L 26.432123 370.53918 L 14.684512 381.30783 L 14.684512 381.30783 L 37.200764 403.8241 L 37.200764 403.8241 L 47.969406 392.07648 L 47.969406 392.07648 L 77.33843 363.68643 L 77.33843 363.68643 L 104.74952 354.8757 L 104.74952 354.8757 L 134.11855 384.24475 L 134.11855 384.24475 L 94.95985 397.9503 L 94.95985 397.9503 L 91.043976 398.92926 L 91.043976 398.92926 L 89.086044 401.86615 L 89.086044 401.86615 L 57.759083 433.1931 L 57.759083 433.1931 L 46.01147 443.96176 L 46.01147 443.96176 L 68.527725 466.478 L 68.527725 466.478 L 79.296364 454.7304 L 79.296364 454.7304 L 108.66539 426.34033 L 108.66539 426.34033 L 159.5717 409.6979 L 159.5717 409.6979 L 174.25621 424.38242 L 174.25621 424.38242 L 139.01338 445.9197 L 139.01338 445.9197 L 131.18164 450.81454 L 131.18164 450.81454 L 131.18164 459.62524 L 131.18164 459.62524 L 131.18164 490.9522 L 131.18164 490.9522 L 131.18164 506.6157 L 131.18164 506.6157 L 162.5086 506.6157 L 162.5086 506.6157 L 162.5086 490.9522 L 162.5086 490.9522 L 162.5086 468.43594 L 162.5086 468.43594 L 203.62524 443.96176 L 203.62524 443.96176 L 309.35373 443.96176 L 309.35373 443.96176 L 350.47037 468.43594 L 350.47037 468.43594 L 350.47037 490.9522 L 350.47037 490.9522 L 350.47037 506.6157 L 350.47037 506.6157 L 381.79733 506.6157 L 381.79733 506.6157 L 381.79733 490.9522 L 381.79733 490.9522 L 381.79733 459.62524 L 381.79733 459.62524 L 381.79733 450.81454 L 381.79733 450.81454 L 373.96558 445.9197 L 373.96558 445.9197 L 338.72275 424.38242 L 338.72275 424.38242 L 353.40726 409.6979 L 353.40726 409.6979 L 404.31357 426.34033 L 404.31357 426.34033 L 433.6826 454.7304 L 433.6826 454.7304 L 444.45123 466.478 L 444.45123 466.478 L 466.9675 443.96176 L 466.9675 443.96176 L 455.21988 433.1931 L 455.21988 433.1931 L 423.8929 401.86615 L 423.8929 401.86615 L 421.935 398.92926 L 421.935 398.92926 L 418.01913 397.9503 L 418.01913 397.9503 L 378.8604 384.24475 L 378.8604 384.24475 L 408.22943 354.8757 L 408.22943 354.8757 L 435.64053 363.68643 L 435.64053 363.68643 L 465.00955 392.07648 L 465.00955 392.07648 L 475.7782 403.8241 L 475.7782 403.8241 L 498.29446 381.30783 L 498.29446 381.30783 L 486.54684 370.53918 L 486.54684 370.53918 L 455.21988 339.21225 L 455.21988 339.21225 L 453.26196 336.27533 L 453.26196 336.27533 L 449.34607 335.29636 L 449.34607 335.29636 L 428.78775 328.4436 L 428.78775 328.4436 L 428.78775 318.65393 L 428.78775 318.65393 Q 428.78775 310.82217 427.8088 302.99045 L 460.11472 302.99045 L 464.03058 302.99045 L 466.9675 301.0325 L 466.9675 301.0325 L 498.29446 285.36902 L 498.29446 285.36902 L 512 278.51627 L 512 278.51627 L 498.29446 250.12619 L 498.29446 250.12619 L 484.5889 257.95795 L 484.5889 257.95795 L 456.19885 271.66348 L 456.19885 271.66348 L 419.97705 271.66348 L 419.97705 271.66348 Q 416.0612 261.8738 410.18738 253.0631 L 493.39963 214.88336 L 493.39963 214.88336 L 507.10516 208.0306 L 507.10516 208.0306 L 507.10516 193.34608 L 507.10516 193.34608 L 507.10516 130.69215 L 507.10516 130.69215 Q 506.1262 77.82792 470.88336 41.606117 Q 434.66156 6.363289 381.79733 5.384321 L 319.1434 5.384321 L 319.1434 5.384321 L 381.79733 68.03824 L 381.79733 68.03824 L 319.1434 68.03824 L 319.1434 68.03824 Q 320.12238 94.47036 337.74377 112.09178 Q 355.3652 129.7132 381.79733 130.69215 L 460.11472 130.69215 L 460.11472 130.69215 L 460.11472 178.66158 L 460.11472 178.66158 L 376.9025 216.8413 L 376.9025 216.8413 Q 351.44934 198.24092 319.1434 194.32504 L 319.1434 146.35564 L 319.1434 146.35564 L 319.1434 130.69215 L 319.1434 130.69215 L 287.81644 130.69215 L 287.81644 130.69215 L 287.81644 146.35564 L 287.81644 146.35564 L 287.81644 193.34608 L 287.81644 193.34608 L 225.16252 193.34608 L 225.16252 193.34608 L 225.16252 146.35564 L 225.16252 146.35564 L 225.16252 130.69215 L 225.16252 130.69215 L 193.83557 130.69215 L 193.83557 130.69215 L 193.83557 146.35564 L 193.83557 146.35564 L 193.83557 194.32504 L 193.83557 194.32504 Q 161.52963 198.24092 136.07648 216.8413 L 52.864246 178.66158 L 52.864246 178.66158 L 52.864246 130.69215 L 52.864246 130.69215 L 131.18164 130.69215 L 131.18164 130.69215 Q 157.61377 129.7132 175.23518 112.09178 Q 192.8566 94.47036 193.83557 68.03824 L 131.18164 68.03824 L 131.18164 68.03824 L 193.83557 5.384321 L 193.83557 5.384321 L 131.18164 5.384321 L 131.18164 5.384321 Z" />
</svg>