<svg xmlns="http://www.w3.org/2000/svg" viewBox="0 0 512 512">
  <path d="M 128 80 L 128 64 L 128 80 L 128 64 L 160 64 L 160 64 L 160 80 L 160 80 L 160 208 L 160 208 L 160 224 L 160 224 L 144 224 L 0 224 L 0 192 L 0 192 L 16 192 L 128 192 L 128 80 L 128 80 Z M 144 288 L 160 288 L 144 288 L 160 288 L 160 304 L 160 304 L 160 432 L 160 432 L 160 448 L 160 448 L 128 448 L 128 448 L 128 432 L 128 432 L 128 320 L 128 320 L 16 320 L 0 320 L 0 288 L 0 288 L 16 288 L 144 288 Z M 352 80 L 352 64 L 352 80 L 352 64 L 384 64 L 384 64 L 384 80 L 384 80 L 384 192 L 384 192 L 496 192 L 512 192 L 512 224 L 512 224 L 496 224 L 352 224 L 352 208 L 352 208 L 352 80 L 352 80 Z M 496 288 L 512 288 L 496 288 L 512 288 L 512 320 L 512 320 L 496 320 L 384 320 L 384 432 L 384 432 L 384 448 L 384 448 L 352 448 L 352 448 L 352 432 L 352 432 L 352 304 L 352 304 L 352 288 L 352 288 L 368 288 L 496 288 Z" />
</svg>