<svg xmlns="http://www.w3.org/2000/svg" viewBox="0 0 512 512">
  <path d="M 42.666668 412.44446 L 42.666668 170.66667 L 42.666668 412.44446 L 42.666668 170.66667 L 469.33334 170.66667 L 469.33334 170.66667 L 469.33334 412.44446 L 469.33334 412.44446 L 42.666668 412.44446 L 42.666668 412.44446 Z M 42.666668 56.88889 L 0 56.88889 L 42.666668 56.88889 L 0 56.88889 L 0 99.55556 L 0 99.55556 L 0 412.44446 L 0 412.44446 L 0 455.1111 L 0 455.1111 L 42.666668 455.1111 L 512 455.1111 L 512 412.44446 L 512 412.44446 L 512 99.55556 L 512 99.55556 L 512 56.88889 L 512 56.88889 L 469.33334 56.88889 L 42.666668 56.88889 Z M 327.1111 256 L 398.22223 256 L 327.1111 256 L 398.22223 256 L 398.22223 327.1111 L 398.22223 327.1111 L 327.1111 327.1111 L 327.1111 327.1111 L 327.1111 256 L 327.1111 256 Z M 284.44446 213.33333 L 284.44446 256 L 284.44446 213.33333 L 284.44446 256 L 284.44446 327.1111 L 284.44446 327.1111 L 284.44446 369.77777 L 284.44446 369.77777 L 327.1111 369.77777 L 440.8889 369.77777 L 440.8889 327.1111 L 440.8889 327.1111 L 440.8889 256 L 440.8889 256 L 440.8889 213.33333 L 440.8889 213.33333 L 398.22223 213.33333 L 284.44446 213.33333 Z M 163.55556 241.77777 Q 192 242.66667 206.22223 266.66666 Q 220.44444 291.55554 206.22223 316.44446 Q 192 340.44446 163.55556 341.33334 Q 135.11111 340.44446 120.888885 316.44446 Q 106.666664 291.55554 120.888885 266.66666 Q 135.11111 242.66667 163.55556 241.77777 L 163.55556 241.77777 Z M 163.55556 384 Q 188.44444 384 209.77777 371.55554 L 209.77777 371.55554 L 209.77777 371.55554 Q 231.11111 359.1111 243.55556 337.77777 Q 256 315.55554 256 291.55554 Q 256 267.55554 243.55556 245.33333 Q 231.11111 224 209.77777 211.55556 Q 188.44444 199.11111 163.55556 199.11111 Q 138.66667 199.11111 117.333336 211.55556 Q 96 224 83.55556 245.33333 Q 71.111115 267.55554 71.111115 291.55554 Q 71.111115 315.55554 83.55556 337.77777 Q 96 359.1111 117.333336 371.55554 Q 138.66667 384 163.55556 384 L 163.55556 384 Z M 163.55556 312.8889 Q 183.11111 311.1111 184.88889 291.55554 Q 183.11111 272 163.55556 270.22223 Q 144 272 142.22223 291.55554 Q 144 311.1111 163.55556 312.8889 L 163.55556 312.8889 Z" />
</svg>