<svg xmlns="http://www.w3.org/2000/svg" viewBox="0 0 512 512">
  <path d="M 288 272 L 240 272 L 288 272 L 240 272 L 240 224 L 240 224 L 240 48 L 240 48 L 240 0 L 240 0 L 192 0 L 0 0 L 0 48 L 0 48 L 0 272 L 0 272 L 0 464 L 0 464 L 0 512 L 0 512 L 48 512 L 512 512 L 512 464 L 512 464 L 512 320 L 512 320 L 512 272 L 512 272 L 464 272 L 288 272 Z M 384 320 L 384 384 L 384 320 L 384 384 L 384 400 L 384 400 L 416 400 L 416 400 L 416 384 L 416 384 L 416 320 L 416 320 L 464 320 L 464 320 L 464 464 L 464 464 L 240 464 L 48 464 L 48 272 L 48 272 L 48 48 L 48 48 L 192 48 L 192 48 L 192 96 L 192 96 L 128 96 L 112 96 L 112 128 L 112 128 L 128 128 L 192 128 L 192 192 L 192 192 L 128 192 L 112 192 L 112 224 L 112 224 L 128 224 L 192 224 L 192 272 L 192 272 L 192 288 L 192 288 L 128 288 L 112 288 L 112 320 L 112 320 L 128 320 L 192 320 L 192 384 L 192 384 L 192 400 L 192 400 L 224 400 L 224 400 L 224 384 L 224 384 L 224 320 L 224 320 L 240 320 L 288 320 L 288 384 L 288 384 L 288 400 L 288 400 L 320 400 L 320 400 L 320 384 L 320 384 L 320 320 L 320 320 L 384 320 L 384 320 Z" />
</svg>