<svg xmlns="http://www.w3.org/2000/svg" viewBox="0 0 512 512">
  <path d="M 416 480 L 96 480 L 416 480 L 96 480 L 96 32 L 96 32 L 256 32 L 256 32 L 256 176 L 256 176 L 256 192 L 256 192 L 272 192 L 416 192 L 416 480 L 416 480 Z M 288 37 L 411 160 L 288 37 L 411 160 L 288 160 L 288 160 L 288 37 L 288 37 Z M 296 0 L 96 0 L 296 0 L 64 0 L 64 32 L 64 32 L 64 480 L 64 480 L 64 512 L 64 512 L 96 512 L 448 512 L 448 480 L 448 480 L 448 152 L 448 152 L 296 0 L 296 0 Z M 144 64 L 128 64 L 144 64 L 128 64 L 128 96 L 128 96 L 144 96 L 224 96 L 224 64 L 224 64 L 208 64 L 144 64 Z M 144 128 L 128 128 L 144 128 L 128 128 L 128 160 L 128 160 L 144 160 L 224 160 L 224 128 L 224 128 L 208 128 L 144 128 Z M 200 304 L 188 304 L 200 304 L 188 304 L 185 315 L 185 315 L 164 384 L 164 384 L 144 384 L 128 384 L 128 416 L 128 416 L 144 416 L 188 416 L 191 405 L 191 405 L 208 349 L 208 349 L 225 405 L 225 405 L 228 416 L 228 416 L 240 416 L 258 416 L 262 407 L 262 407 L 274 384 L 274 384 L 278 384 L 278 384 L 290 407 L 290 407 L 294 416 L 294 416 L 304 416 L 384 416 L 384 384 L 384 384 L 368 384 L 314 384 L 302 361 L 302 361 L 298 352 L 298 352 L 288 352 L 254 352 L 250 361 L 250 361 L 247 367 L 247 367 L 231 315 L 231 315 L 228 304 L 228 304 L 216 304 L 200 304 Z" />
</svg>