<svg xmlns="http://www.w3.org/2000/svg" viewBox="0 0 384 512">
    <path d="M 336 192 Q 334 131 294 90 L 294 90 Q 253 50 192 48 Q 131 50 90 90 Q 50 131 48 192 Q 48 217 73 267 Q 99 317 135 366 Q 166 408 192 439 Q 218 408 249 366 Q 285 317 311 267 Q 336 217 336 192 L 336 192 Z M 384 192 Q 383 235 355 288 L 355 288 Q 327 342 290 392 L 290 392 Q 253 442 224 476 Q 194 510 192 512 Q 192 512 192 512 Q 190 511 160 476 Q 131 442 94 392 Q 57 342 29 288 Q 1 235 0 192 Q 2 110 56 56 Q 110 2 192 0 Q 274 2 328 56 Q 382 110 384 192 L 384 192 Z M 136 128 Q 158 130 160 152 Q 158 174 136 176 Q 114 174 112 152 Q 114 130 136 128 L 136 128 Z M 224 152 Q 226 130 248 128 Q 270 130 272 152 Q 270 174 248 176 Q 226 174 224 152 L 224 152 Z M 111 251 L 145 229 Q 148 235 160 243 Q 173 251 192 252 Q 212 251 224 243 Q 236 235 240 229 L 273 251 Q 265 263 245 277 Q 224 291 192 292 Q 160 291 139 277 Q 119 263 111 251 L 111 251 Z"/>
</svg>
