<svg xmlns="http://www.w3.org/2000/svg" viewBox="0 0 512 512">
  <path d="M 182.85714285714286 438.85714285714283 L 0 256 L 182.85714285714286 438.85714285714283 L 0 256 L 182.85714285714286 73.14285714285714 L 182.85714285714286 73.14285714285714 L 219.42857142857142 73.14285714285714 L 219.42857142857142 73.14285714285714 L 219.42857142857142 182.85714285714286 L 219.42857142857142 182.85714285714286 L 402.2857142857143 182.85714285714286 L 402.2857142857143 182.85714285714286 L 402.2857142857143 329.14285714285717 L 402.2857142857143 329.14285714285717 L 219.42857142857142 329.14285714285717 L 219.42857142857142 329.14285714285717 L 219.42857142857142 438.85714285714283 L 219.42857142857142 438.85714285714283 L 182.85714285714286 438.85714285714283 L 182.85714285714286 438.85714285714283 Z M 438.85714285714283 438.85714285714283 L 438.85714285714283 73.14285714285714 L 438.85714285714283 438.85714285714283 L 438.85714285714283 73.14285714285714 L 438.85714285714283 36.57142857142857 L 438.85714285714283 36.57142857142857 L 512 36.57142857142857 L 512 36.57142857142857 L 512 73.14285714285714 L 512 73.14285714285714 L 512 438.85714285714283 L 512 438.85714285714283 L 512 475.42857142857144 L 512 475.42857142857144 L 438.85714285714283 475.42857142857144 L 438.85714285714283 475.42857142857144 L 438.85714285714283 438.85714285714283 L 438.85714285714283 438.85714285714283 Z" />
</svg>