<svg viewBox="0 0 573 480">
  <path
    d="M 306 0 L 371 0 L 355 96 L 429 96 L 442 96 L 436 131 Q 405 138 383 160 L 344 160 L 328 256 L 317 256 L 317 352 L 312 352 L 296 448 L 231 448 L 247 352 L 152 352 L 136 448 L 71 448 L 87 352 L 13 352 L 0 352 L 11 288 L 13 288 L 98 288 L 119 160 L 45 160 L 32 160 L 43 96 L 45 96 L 130 96 L 146 0 L 211 0 L 195 96 L 290 96 L 306 0 L 306 0 Z M 163 288 L 258 288 L 279 160 L 184 160 L 163 288 L 163 288 Z M 461 208 Q 447 208 438 217 L 438 217 Q 429 226 429 240 L 429 288 L 493 288 L 493 240 Q 493 226 484 217 Q 475 208 461 208 L 461 208 Z M 381 240 Q 382 206 404 183 L 404 183 Q 427 161 461 160 Q 495 161 518 183 Q 540 206 541 240 L 541 288 L 573 288 L 573 480 L 349 480 L 349 288 L 381 288 L 381 240 L 381 240 Z"
  />
</svg>