<svg xmlns="http://www.w3.org/2000/svg" viewBox="0 0 640 512">
    <path d="M 553 126 L 576 104 L 553 81 L 495 23 L 472 0 L 450 23 L 314 170 L 339 190 L 473 46 L 530 103 L 392 231 L 418 252 L 553 126 L 553 126 Z M 296 319 L 307 330 L 279 422 L 131 468 L 199 400 Q 199 400 199 400 Q 200 400 200 400 Q 222 398 224 376 Q 222 354 200 352 Q 178 354 176 376 Q 176 376 176 377 Q 176 377 176 377 L 108 445 L 154 297 L 237 271 L 206 247 L 128 272 L 64 480 L 96 512 L 304 448 L 335 349 L 296 319 L 296 319 Z M 33 10 L 20 0 L 0 25 L 13 35 L 608 502 L 620 512 L 640 487 L 628 477 L 33 10 L 33 10 Z"/>
</svg>
