<svg xmlns="http://www.w3.org/2000/svg" viewBox="0 0 448 448">
    <path d="M 448 448 L 448 384 L 384 384 L 384 448 L 448 448 L 448 448 Z M 448 352 L 448 288 L 384 288 L 384 352 L 448 352 L 448 352 Z M 64 352 L 64 288 L 0 288 L 0 352 L 64 352 L 64 352 Z M 384 160 L 448 160 L 448 96 L 384 96 L 384 160 L 384 160 Z M 64 160 L 64 96 L 0 96 L 0 160 L 64 160 L 64 160 Z M 384 256 L 448 256 L 448 192 L 384 192 L 384 256 L 384 256 Z M 64 256 L 64 192 L 0 192 L 0 256 L 64 256 L 64 256 Z M 384 64 L 448 64 L 448 0 L 384 0 L 384 64 L 384 64 Z M 0 64 L 64 64 L 64 0 L 0 0 L 0 64 L 0 64 Z M 64 448 L 64 384 L 0 384 L 0 448 L 64 448 L 64 448 Z M 288 256 L 352 256 L 352 192 L 288 192 L 288 256 L 288 256 Z M 352 64 L 352 0 L 288 0 L 288 64 L 352 64 L 352 64 Z M 288 448 L 352 448 L 352 384 L 288 384 L 288 448 L 288 448 Z M 160 64 L 160 0 L 96 0 L 96 64 L 160 64 L 160 64 Z M 96 448 L 160 448 L 160 384 L 96 384 L 96 448 L 96 448 Z M 160 256 L 160 192 L 96 192 L 96 256 L 160 256 L 160 256 Z M 192 416 L 192 448 L 256 448 L 256 416 L 256 32 L 256 0 L 192 0 L 192 32 L 192 416 L 192 416 Z"/>
</svg>
