<svg xmlns="http://www.w3.org/2000/svg" viewBox="0 0 512 512">
  <path d="M 0 0 L 16 0 L 0 0 L 160 0 L 160 32 L 160 32 L 144 32 L 32 32 L 32 144 L 32 144 L 32 160 L 32 160 L 0 160 L 0 160 L 0 144 L 0 144 L 0 16 L 0 16 L 0 0 L 0 0 Z M 320 96 L 332 128 L 320 96 L 332 128 L 384 128 L 416 128 L 416 160 L 416 160 L 416 352 L 416 352 L 416 384 L 416 384 L 384 384 L 96 384 L 96 352 L 96 352 L 96 160 L 96 160 L 96 128 L 96 128 L 128 128 L 180 128 L 192 96 L 192 96 L 320 96 L 320 96 Z M 332 160 L 310 160 L 332 160 L 310 160 L 302 139 L 302 139 L 298 128 L 298 128 L 214 128 L 214 128 L 210 139 L 210 139 L 202 160 L 202 160 L 180 160 L 128 160 L 128 352 L 128 352 L 384 352 L 384 352 L 384 160 L 384 160 L 332 160 L 332 160 Z M 288 256 Q 288 242 279 233 L 279 233 L 279 233 Q 270 224 256 224 Q 242 224 233 233 Q 224 242 224 256 Q 224 270 233 279 Q 242 288 256 288 Q 270 288 279 279 Q 288 270 288 256 L 288 256 Z M 192 256 Q 193 220 224 201 Q 256 183 288 201 Q 319 220 320 256 Q 319 292 288 311 Q 256 329 224 311 Q 193 292 192 256 L 192 256 Z M 496 0 L 512 0 L 496 0 L 512 0 L 512 16 L 512 16 L 512 144 L 512 144 L 512 160 L 512 160 L 480 160 L 480 160 L 480 144 L 480 144 L 480 32 L 480 32 L 368 32 L 352 32 L 352 0 L 352 0 L 368 0 L 496 0 Z M 0 512 L 0 496 L 0 512 L 0 496 L 0 368 L 0 368 L 0 352 L 0 352 L 32 352 L 32 352 L 32 368 L 32 368 L 32 480 L 32 480 L 144 480 L 160 480 L 160 512 L 160 512 L 144 512 L 0 512 Z M 496 512 L 368 512 L 496 512 L 352 512 L 352 480 L 352 480 L 368 480 L 480 480 L 480 368 L 480 368 L 480 352 L 480 352 L 512 352 L 512 352 L 512 368 L 512 368 L 512 496 L 512 496 L 512 512 L 512 512 L 496 512 L 496 512 Z" />
</svg>