<svg xmlns="http://www.w3.org/2000/svg" viewBox="0 0 512 512">
  <path d="M 288 0 L 64 0 L 288 0 L 64 0 L 64 512 L 64 512 L 448 512 L 448 512 L 448 160 L 448 160 L 288 160 L 288 160 L 288 0 L 288 0 Z M 320 0 L 320 128 L 320 0 L 320 128 L 448 128 L 448 128 L 320 0 L 320 0 Z M 217 289 L 186 320 L 217 289 L 186 320 L 217 351 L 217 351 L 234 368 L 234 368 L 200 402 L 200 402 L 183 385 L 183 385 L 135 337 L 135 337 L 118 320 L 118 320 L 135 303 L 135 303 L 183 255 L 183 255 L 200 238 L 200 238 L 234 272 L 234 272 L 217 289 L 217 289 Z M 329 255 L 377 303 L 329 255 L 377 303 L 394 320 L 394 320 L 377 337 L 377 337 L 329 385 L 329 385 L 312 402 L 312 402 L 278 368 L 278 368 L 295 351 L 295 351 L 326 320 L 326 320 L 295 289 L 295 289 L 278 272 L 278 272 L 312 238 L 312 238 L 329 255 L 329 255 Z" />
</svg>