<svg xmlns="http://www.w3.org/2000/svg" viewBox="0 0 512 512">
  <path d="M 354.807 125.75439 L 354.807 63.875244 L 354.807 125.75439 L 354.807 63.875244 L 450.61987 0 L 450.61987 0 L 489.54385 30.939571 L 489.54385 30.939571 Q 506.5107 44.91228 507.50876 64.87329 Q 508.50684 84.834305 493.53607 100.803116 Q 468.5848 122.76023 439.64133 108.78752 L 310.8928 237.53606 L 310.8928 237.53606 Q 331.85184 249.51266 343.82846 247.51657 Q 351.81287 246.51852 356.80313 244.52242 Q 358.79922 243.52437 359.79727 243.52437 L 360.79532 243.52437 L 360.79532 243.52437 L 376.76413 233.54385 L 376.76413 233.54385 L 389.7388 246.51852 L 389.7388 246.51852 L 405.7076 262.48734 L 405.7076 262.48734 L 422.67447 279.4542 L 422.67447 279.4542 L 405.7076 296.42105 L 405.7076 296.42105 L 376.76413 325.36453 L 376.76413 325.36453 Q 356.80313 342.3314 338.8382 350.3158 Q 338.8382 350.3158 338.8382 350.3158 L 337.84015 351.31384 L 337.84015 351.31384 Q 319.87524 359.29825 310.8928 367.28265 Q 296.92007 382.25342 289.93372 414.19104 L 288.93567 416.18713 L 288.93567 416.18713 Q 285.94153 431.1579 278.95517 448.12476 Q 271.9688 466.08966 256.99805 482.05847 Q 227.05653 510.0039 188.13255 511.00195 Q 146.21443 512 113.278755 482.05847 L 113.278755 481.06042 L 113.278755 481.06042 L 113.278755 481.06042 L 113.278755 481.06042 L 33.434696 400.21832 L 33.434696 400.21832 L 33.434696 400.21832 L 33.434696 400.21832 Q 3.4931774 369.27875 3.4931774 328.35867 Q 3.4931774 288.43665 33.434696 257.49707 Q 48.405457 242.52632 66.37037 235.53996 Q 83.337234 227.55556 98.30799 224.5614 L 100.30409 223.56335 L 100.30409 223.56335 Q 131.24367 217.57504 146.21443 203.60234 Q 154.19884 194.61989 163.18129 176.65497 L 163.18129 175.65692 L 163.18129 175.65692 Q 171.1657 156.69395 188.13255 136.73294 L 229.05263 96.81091 L 229.05263 96.81091 L 246.0195 79.844055 L 246.0195 79.844055 L 262.98636 96.81091 L 262.98636 96.81091 L 278.95517 111.78168 L 278.95517 111.78168 L 292.9279 126.75243 L 292.9279 126.75243 L 281.9493 142.72125 L 281.9493 142.72125 L 281.9493 142.72125 L 281.9493 142.72125 Q 280.95126 142.72125 280.95126 143.7193 Q 280.95126 143.7193 280.95126 143.7193 Q 279.95322 145.7154 277.95712 149.7076 Q 273.9649 156.69395 271.9688 167.67252 Q 266.97855 183.64133 277.95712 203.60234 L 354.807 125.75439 L 354.807 125.75439 Z M 195.11891 253.50487 L 212.08577 270.47174 L 195.11891 253.50487 L 212.08577 270.47174 L 244.02339 302.40936 L 244.02339 302.40936 L 260.99026 319.37622 L 260.99026 319.37622 L 227.05653 353.30994 L 227.05653 353.30994 L 210.08968 336.34308 L 210.08968 336.34308 L 178.15205 304.40546 L 178.15205 304.40546 L 161.18518 287.4386 L 161.18518 287.4386 L 195.11891 253.50487 L 195.11891 253.50487 Z M 131.24367 317.38013 L 148.21053 334.347 L 131.24367 317.38013 L 148.21053 334.347 L 180.14815 366.2846 L 180.14815 366.2846 L 197.115 383.25146 L 197.115 383.25146 L 163.18129 417.18518 L 163.18129 417.18518 L 146.21443 400.21832 L 146.21443 400.21832 L 114.2768 368.2807 L 114.2768 368.2807 L 97.309944 351.31384 L 97.309944 351.31384 L 131.24367 317.38013 L 131.24367 317.38013 Z M 223.06433 170.66667 Q 214.08188 179.64912 206.09747 197.61403 L 205.09941 198.61209 L 205.09941 198.61209 Q 198.11307 216.577 180.14815 237.53606 Q 164.17934 251.50877 147.21248 259.49316 Q 129.24756 266.47952 114.2768 269.4737 L 113.278755 270.47174 L 113.278755 270.47174 Q 81.34113 276.46005 67.36842 290.43274 Q 51.39961 307.3996 51.39961 328.35867 Q 51.39961 350.3158 67.36842 366.2846 L 67.36842 366.2846 L 67.36842 366.2846 L 67.36842 366.2846 L 67.36842 366.2846 L 147.21248 447.1267 L 147.21248 447.1267 L 147.21248 447.1267 L 147.21248 447.1267 Q 164.17934 464.09357 186.13646 463.09552 Q 207.09552 462.09747 223.06433 447.1267 Q 237.03703 432.15594 243.02534 401.21637 L 244.02339 399.22028 L 244.02339 399.22028 Q 247.01755 384.2495 255.00195 367.28265 Q 261.9883 349.31775 276.95908 333.34894 Q 296.92007 315.384 314.88498 308.39767 L 315.88303 307.3996 L 315.88303 307.3996 Q 329.85574 301.41132 337.84015 295.423 Q 303.90643 296.42105 264.98245 260.49124 L 253.00584 248.51462 L 253.00584 248.51462 Q 234.0429 229.55165 228.05458 208.59259 Q 221.06822 188.63158 223.06433 170.66667 L 223.06433 170.66667 L 223.06433 170.66667 Z" />
</svg>