<svg xmlns="http://www.w3.org/2000/svg" viewBox="0 0 448 448">
    <path d="M 144 48 L 144 96 L 200 96 L 248 96 L 304 96 L 304 48 L 144 48 L 144 48 Z M 96 96 L 96 48 L 48 48 L 48 96 L 96 96 L 96 96 Z M 48 144 L 48 200 L 200 200 L 200 144 L 48 144 L 48 144 Z M 48 304 L 96 304 L 96 248 L 48 248 L 48 304 L 48 304 Z M 48 352 L 48 400 L 200 400 L 200 352 L 144 352 L 96 352 L 48 352 L 48 352 Z M 144 304 L 304 304 L 304 248 L 144 248 L 144 304 L 144 304 Z M 352 304 L 400 304 L 400 248 L 352 248 L 352 304 L 352 304 Z M 400 352 L 352 352 L 304 352 L 248 352 L 248 400 L 400 400 L 400 352 L 400 352 Z M 400 144 L 248 144 L 248 200 L 400 200 L 400 144 L 400 144 Z M 400 96 L 400 48 L 352 48 L 352 96 L 400 96 L 400 96 Z M 0 0 L 48 0 L 400 0 L 448 0 L 448 48 L 448 400 L 448 448 L 400 448 L 48 448 L 0 448 L 0 400 L 0 48 L 0 0 L 0 0 Z"/>
</svg>
