<svg xmlns="http://www.w3.org/2000/svg" viewBox="0 0 512 512">
  <path d="M 455.1111 227.55556 L 479.1111 185.77777 L 455.1111 227.55556 L 479.1111 185.77777 L 512 128 L 512 128 L 398.22223 28.444445 L 398.22223 28.444445 L 184.88889 142.22223 L 184.88889 142.22223 L 85.333336 369.77777 L 85.333336 369.77777 L 131.55556 369.77777 L 131.55556 369.77777 L 217.77777 173.33333 L 217.77777 173.33333 L 392 80 L 392 80 L 457.77777 136.88889 L 457.77777 136.88889 L 455.1111 142.22223 L 455.1111 142.22223 L 449.77777 142.22223 L 357.33334 142.22223 L 345.77777 166.22223 L 345.77777 166.22223 L 331.55554 194.66667 L 331.55554 194.66667 L 323.55554 210.66667 L 323.55554 210.66667 L 329.77777 227.55556 L 329.77777 227.55556 L 381.33334 369.77777 L 381.33334 369.77777 L 426.66666 369.77777 L 426.66666 369.77777 L 369.77777 213.33333 L 369.77777 213.33333 L 384 184.88889 L 384 184.88889 L 426.66666 184.88889 L 426.66666 184.88889 L 428.44446 187.55556 L 428.44446 187.55556 L 455.1111 227.55556 L 455.1111 227.55556 Z M 298.66666 298.66666 L 213.33333 298.66666 L 298.66666 298.66666 L 213.33333 298.66666 L 213.33333 369.77777 L 213.33333 369.77777 L 298.66666 369.77777 L 298.66666 369.77777 L 298.66666 298.66666 L 298.66666 298.66666 Z M 0 398.22223 L 0 426.66666 L 0 398.22223 L 0 426.66666 L 113.77778 483.55554 L 113.77778 483.55554 L 398.22223 483.55554 L 398.22223 483.55554 L 512 426.66666 L 512 426.66666 L 512 398.22223 L 512 398.22223 L 0 398.22223 L 0 398.22223 Z" />
</svg>