<svg xmlns="http://www.w3.org/2000/svg" viewBox="0 0 512 512">
  <path d="M 38.4 63.2 L 23.2 51.2 L 38.4 63.2 L 23.2 51.2 L 0 81.6 L 0 81.6 L 15.2 93.6 L 15.2 93.6 L 473.6 448.8 L 473.6 448.8 L 488.8 460.8 L 488.8 460.8 L 512 430.4 L 512 430.4 L 496.8 418.4 L 496.8 418.4 L 329.6 288.8 L 329.6 288.8 L 346.4 243.2 L 346.4 243.2 L 377.6 243.2 L 385.6 243.2 L 391.2 237.6 L 391.2 237.6 L 411.2 217.6 L 411.2 217.6 L 467.2 217.6 L 486.4 217.6 L 486.4 198.4 L 486.4 198.4 L 486.4 121.6 L 486.4 121.6 L 486.4 102.4 L 486.4 102.4 L 467.2 102.4 L 448 102.4 L 448 96 L 448 96 L 448 76.8 L 448 76.8 L 409.6 76.8 L 409.6 76.8 L 409.6 96 L 409.6 96 L 409.6 102.4 L 409.6 102.4 L 89.6 102.4 L 89.6 102.4 L 38.4 63.2 L 38.4 63.2 Z M 139.2 140.8 L 409.6 140.8 L 139.2 140.8 L 448 140.8 L 448 179.2 L 448 179.2 L 403.2 179.2 L 395.2 179.2 L 389.6 184.8 L 389.6 184.8 L 369.6 204.8 L 369.6 204.8 L 249.6 204.8 L 221.6 204.8 L 139.2 140.8 L 139.2 140.8 Z M 271.2 243.2 L 305.6 243.2 L 271.2 243.2 L 305.6 243.2 L 298.4 264 L 298.4 264 L 271.2 243.2 L 271.2 243.2 Z M 64 204.8 L 64 178.4 L 64 204.8 L 64 178.4 L 25.6 148 L 25.6 148 L 25.6 224 L 25.6 224 L 25.6 243.2 L 25.6 243.2 L 44.8 243.2 L 99.2 243.2 L 60.8 396.8 L 60.8 396.8 L 51.2 435.2 L 51.2 435.2 L 91.2 435.2 L 192 435.2 L 217.6 332.8 L 217.6 332.8 L 260 332.8 L 260 332.8 L 191.2 279.2 L 191.2 279.2 L 162.4 396.8 L 162.4 396.8 L 100.8 396.8 L 100.8 396.8 L 139.2 243.2 L 139.2 243.2 L 146.4 243.2 L 146.4 243.2 L 97.6 204.8 L 97.6 204.8 L 64 204.8 L 64 204.8 Z" />
</svg>