<svg xmlns="http://www.w3.org/2000/svg" viewBox="0 0 384 512">
    <path d="M 336 64 L 304 64 L 270 64 Q 264 36 243 18 Q 222 1 192 0 Q 162 1 141 18 Q 120 36 114 64 L 80 64 L 48 64 L 0 64 L 0 112 L 0 464 L 0 512 L 48 512 L 336 512 L 384 512 L 384 464 L 384 112 L 384 64 L 336 64 L 336 64 Z M 80 112 L 80 160 L 192 160 L 304 160 L 304 112 L 336 112 L 336 464 L 48 464 L 48 112 L 80 112 L 80 112 Z M 168 80 Q 170 58 192 56 Q 214 58 216 80 Q 214 102 192 104 Q 170 102 168 80 L 168 80 Z M 104 204 L 84 204 L 84 224 L 84 304 L 84 368 L 84 388 L 124 388 L 124 368 L 124 324 L 160 324 L 212 376 L 186 402 L 172 416 L 200 444 L 214 430 L 240 404 L 266 430 L 280 444 L 308 416 L 294 402 L 268 376 L 294 350 L 308 336 L 280 308 L 266 322 L 240 348 L 207 315 Q 235 298 236 264 Q 235 239 218 222 Q 201 205 176 204 L 104 204 L 104 204 Z M 176 284 L 168 284 L 124 284 L 124 244 L 176 244 Q 194 246 196 264 Q 194 282 176 284 L 176 284 Z"/>
</svg>
