<svg viewBox="0 0 652 518">
  <path
    d="M 342 0 L 310 0 L 310 16 L 310 112 L 310 128 L 342 128 L 342 112 L 342 16 L 342 0 L 342 0 Z M 182 57 L 159 80 L 171 91 L 235 155 L 246 167 L 269 144 L 257 133 L 193 69 L 182 57 L 182 57 Z M 493 80 L 470 57 L 459 69 L 395 133 L 383 144 L 406 167 L 417 155 L 481 91 L 493 80 L 493 80 Z M 273 229 L 177 255 Q 164 222 135 207 Q 105 192 71 200 Q 35 211 18 241 Q 0 271 9 308 Q 17 334 36 351 Q 48 362 64 368 Q 53 380 48 396 Q 40 420 46 447 Q 57 483 87 500 Q 118 518 154 509 Q 188 499 206 471 Q 223 443 218 409 L 314 384 L 306 353 L 182 386 L 187 415 Q 190 436 179 454 Q 167 472 146 478 Q 123 484 103 473 Q 84 461 77 439 Q 71 410 88 388 L 95 380 L 84 341 L 75 338 Q 49 328 40 300 Q 34 276 45 257 Q 57 238 79 231 Q 101 226 120 235 Q 139 245 147 266 L 157 293 L 281 260 L 273 229 L 273 229 Z M 475 255 L 380 229 L 371 260 L 495 293 L 506 266 Q 514 245 532 235 Q 551 226 573 231 Q 595 238 607 257 Q 618 276 612 299 Q 603 328 577 338 L 568 341 L 557 380 L 564 388 Q 581 410 575 438 Q 568 461 549 473 Q 529 484 506 478 Q 485 472 473 454 Q 462 436 465 414 L 470 386 L 346 353 L 338 383 L 434 409 Q 429 443 446 471 Q 464 499 498 509 Q 534 518 565 500 Q 595 483 606 447 Q 613 420 604 396 Q 599 380 588 368 Q 604 362 616 351 Q 636 334 643 308 Q 652 271 634 241 Q 617 211 581 200 Q 547 192 517 207 Q 488 222 475 254 L 475 255 Z"
  />
</svg>