<svg xmlns="http://www.w3.org/2000/svg" viewBox="0 0 512 512">
  <path d="M 418.45187 209.22594 Q 417.44598 279.63852 378.2161 332.9509 L 489.87033 443.5992 L 489.87033 443.5992 L 512 466.73477 L 512 466.73477 L 466.73477 512 L 466.73477 512 L 443.5992 489.87033 L 443.5992 489.87033 L 332.9509 378.2161 L 332.9509 378.2161 Q 279.63852 417.44598 209.22594 418.45187 Q 120.70727 416.44006 61.359528 357.09235 Q 2.011788 297.7446 0 209.22594 Q 2.011788 120.70727 61.359528 61.359528 Q 120.70727 2.011788 209.22594 0 Q 297.7446 2.011788 357.09235 61.359528 Q 416.44006 120.70727 418.45187 209.22594 L 418.45187 209.22594 Z M 209.22594 354.07465 Q 248.4558 354.07465 281.6503 334.96268 L 281.6503 334.96268 L 281.6503 334.96268 Q 314.8448 315.85068 334.96268 281.6503 Q 354.07465 247.4499 354.07465 209.22594 Q 354.07465 171.00197 334.96268 136.80157 Q 314.8448 102.60118 281.6503 83.4892 Q 248.4558 64.37721 209.22594 64.37721 Q 169.99606 64.37721 136.80157 83.4892 Q 103.60707 102.60118 83.4892 136.80157 Q 64.37721 171.00197 64.37721 209.22594 Q 64.37721 247.4499 83.4892 281.6503 Q 103.60707 315.85068 136.80157 334.96268 Q 169.99606 354.07465 209.22594 354.07465 L 209.22594 354.07465 Z" />
</svg>