<svg xmlns="http://www.w3.org/2000/svg" viewBox="0 0 640 512">
    <path d="M 48 15 L 29 0 L 0 38 L 19 53 L 592 497 L 611 512 L 640 474 L 621 459 L 524 384 Q 555 350 577 316 Q 598 282 608 256 Q 593 217 555 165 Q 518 113 458 73 Q 399 34 320 32 Q 270 33 228 50 Q 186 67 152 95 L 48 15 L 48 15 Z M 191 125 Q 246 82 320 80 Q 367 81 407 100 Q 447 119 479 151 Q 506 177 525 205 Q 544 232 556 256 Q 534 302 486 355 L 434 314 Q 448 288 448 256 Q 447 202 411 165 Q 374 129 320 128 Q 307 128 295 131 Q 261 138 235 160 L 191 125 L 191 125 Z M 395 284 L 313 220 L 304 178 Q 312 176 320 176 Q 354 177 377 199 Q 399 222 400 256 Q 400 271 395 284 L 395 284 Z M 445 447 L 403 414 Q 365 431 320 432 Q 273 431 233 412 Q 193 393 161 361 Q 134 335 115 307 Q 96 280 85 256 Q 98 227 123 193 L 86 164 Q 47 216 32 256 Q 47 295 85 347 Q 123 399 182 439 Q 241 478 320 480 Q 390 479 445 447 L 445 447 Z M 358 378 L 302 334 Q 265 325 248 292 L 192 248 Q 192 252 192 256 Q 193 310 229 347 Q 266 383 320 384 Q 340 384 358 378 L 358 378 Z"/>
</svg>
