<svg xmlns="http://www.w3.org/2000/svg" viewBox="0 0 512 512">
  <path d="M 480 96 L 480 192 L 480 96 L 480 192 L 320 192 L 320 192 L 320 96 L 320 96 L 480 96 L 480 96 Z M 32 96 L 288 96 L 32 96 L 288 96 L 288 192 L 288 192 L 32 192 L 32 192 L 32 96 L 32 96 Z M 32 64 L 0 64 L 32 64 L 0 64 L 0 96 L 0 96 L 0 192 L 0 192 L 0 224 L 0 224 L 32 224 L 512 224 L 512 192 L 512 192 L 512 96 L 512 96 L 512 64 L 512 64 L 480 64 L 32 64 Z M 480 320 L 480 416 L 480 320 L 480 416 L 192 416 L 192 416 L 192 320 L 192 320 L 480 320 L 480 320 Z M 32 320 L 160 320 L 32 320 L 160 320 L 160 416 L 160 416 L 32 416 L 32 416 L 32 320 L 32 320 Z M 32 288 L 0 288 L 32 288 L 0 288 L 0 320 L 0 320 L 0 416 L 0 416 L 0 448 L 0 448 L 32 448 L 512 448 L 512 416 L 512 416 L 512 320 L 512 320 L 512 288 L 512 288 L 480 288 L 32 288 Z" />
</svg>