<svg xmlns="http://www.w3.org/2000/svg" viewBox="0 0 512 512">
  <path d="M 256 164 L 290 130 L 256 164 L 290 130 L 314 106 L 314 106 Q 340 81 376 80 Q 414 81 438 106 Q 463 130 464 168 Q 464 204 438 230 L 414 254 L 414 254 L 412 256 L 412 256 L 361 256 L 361 256 L 333 215 L 333 215 L 320 195 L 320 195 L 307 215 L 307 215 L 257 289 L 257 289 L 198 184 L 198 184 L 183 158 L 183 158 L 170 185 L 170 185 L 134 256 L 134 256 L 100 256 L 100 256 L 98 254 L 98 254 L 74 230 L 74 230 Q 48 204 48 168 Q 49 130 74 106 Q 98 81 136 80 Q 172 80 198 106 L 222 130 L 222 130 L 256 164 L 256 164 Z M 256 412 L 164 320 L 256 412 L 164 320 L 96 320 L 96 320 L 222 446 L 222 446 L 256 480 L 256 480 L 290 446 L 290 446 L 416 320 L 416 320 L 348 320 L 348 320 L 256 412 L 256 412 Z M 343 288 L 352 288 L 343 288 L 448 288 L 472 264 L 472 264 Q 511 224 512 168 Q 511 110 472 72 Q 434 33 376 32 Q 320 33 280 72 L 280 72 L 280 72 L 256 96 L 256 96 L 232 72 L 232 72 Q 192 33 136 32 Q 78 33 40 72 Q 1 110 0 168 Q 1 224 40 264 L 64 288 L 64 288 L 132 288 L 154 288 L 158 279 L 158 279 L 185 226 L 185 226 L 242 328 L 242 328 L 255 351 L 255 351 L 269 329 L 269 329 L 320 253 L 320 253 L 339 281 L 339 281 L 343 288 L 343 288 Z" />
</svg>