<svg xmlns="http://www.w3.org/2000/svg" viewBox="0 0 640 512">
    <path d="M 96 32 L 480 32 L 480 96 L 512 96 L 512 32 L 512 0 L 480 0 L 96 0 L 64 0 L 64 32 L 64 288 L 32 288 L 0 288 L 0 320 L 0 336 L 48 384 L 352 384 L 352 352 L 61 352 L 32 323 L 32 320 L 64 320 L 96 320 L 352 320 L 352 288 L 96 288 L 96 32 L 96 32 Z M 384 128 L 384 160 L 384 480 L 384 512 L 416 512 L 608 512 L 640 512 L 640 480 L 640 160 L 640 128 L 608 128 L 416 128 L 384 128 L 384 128 Z M 416 160 L 608 160 L 608 480 L 416 480 L 416 160 L 416 160 Z"/>
</svg>
