<svg xmlns="http://www.w3.org/2000/svg" viewBox="0 0 512 512">
  <path d="M 205 119 L 160 432 L 205 119 L 160 432 L 111 432 L 111 432 L 160 96 L 160 96 L 222 34 L 222 34 L 256 0 L 256 0 L 290 34 L 290 34 L 352 96 L 352 96 L 401 432 L 401 432 L 353 432 L 353 432 L 307 119 L 307 119 L 256 68 L 256 68 L 205 119 L 205 119 Z M 408 512 L 360 512 L 408 512 L 64 512 L 64 464 L 64 464 L 88 464 L 448 464 L 448 512 L 448 512 L 424 512 L 408 512 Z M 208 336 L 208 288 L 208 336 L 208 288 L 304 288 L 304 288 L 304 336 L 304 336 L 208 336 L 208 336 Z" />
</svg>