<svg xmlns="http://www.w3.org/2000/svg" viewBox="0 0 512 512">
  <path d="M 0 32 L 128 32 L 0 32 L 128 32 L 128 160 L 128 160 L 0 160 L 0 160 L 0 32 L 0 32 Z M 160 160 L 160 32 L 160 160 L 160 32 L 512 32 L 512 32 L 512 480 L 512 480 L 0 480 L 0 480 L 0 192 L 0 192 L 128 192 L 128 192 L 128 432 L 128 432 L 464 432 L 464 432 L 464 160 L 464 160 L 160 160 L 160 160 Z M 368 192 L 416 240 L 368 192 L 416 240 L 416 256 L 416 256 L 384 256 L 384 256 L 384 336 L 384 336 L 384 352 L 384 352 L 368 352 L 288 352 L 288 384 L 288 384 L 272 384 L 272 384 L 224 336 L 224 336 L 272 288 L 272 288 L 288 288 L 288 288 L 288 320 L 288 320 L 352 320 L 352 320 L 352 256 L 352 256 L 320 256 L 320 256 L 320 240 L 320 240 L 368 192 L 368 192 Z" />
</svg>