<svg xmlns="http://www.w3.org/2000/svg" viewBox="0 0 576 512">
    <path d="M 544 194 L 288 279 L 32 194 L 32 155 L 288 240 L 544 155 L 544 194 L 544 194 Z M 544 228 L 544 266 L 512 277 L 512 310 L 544 300 L 544 393 L 288 478 L 32 393 L 32 300 L 64 310 L 64 277 L 32 266 L 32 228 L 283 311 L 288 313 L 293 311 L 544 228 L 544 228 Z M 544 119 L 544 121 L 288 206 L 32 121 L 32 119 L 288 34 L 544 119 L 544 119 Z M 576 416 L 576 144 L 576 128 L 576 96 L 288 0 L 0 96 L 0 128 L 0 144 L 0 416 L 288 512 L 576 416 L 576 416 Z M 96 287 L 96 321 L 192 353 L 192 319 L 96 287 L 96 287 Z M 283 383 L 288 385 L 293 383 L 352 364 L 352 330 L 288 351 L 224 330 L 224 364 L 283 383 L 283 383 Z M 384 353 L 480 321 L 480 287 L 384 319 L 384 353 L 384 353 Z"/>
</svg>
