<svg xmlns="http://www.w3.org/2000/svg" viewBox="0 0 512 512">
  <path d="M 80 128 Q 81 74 117 37 L 117 37 L 117 37 Q 154 1 208 0 Q 262 1 299 37 Q 335 74 336 128 L 336 320 L 336 320 Q 335 354 313 377 Q 290 399 256 400 Q 222 399 199 377 Q 177 354 176 320 L 176 160 L 176 160 L 176 128 L 176 128 L 240 128 L 240 128 L 240 160 L 240 160 L 240 320 L 240 320 Q 241 335 256 336 Q 271 335 272 320 L 272 128 L 272 128 Q 271 101 253 83 Q 235 65 208 64 Q 181 65 163 83 Q 145 101 144 128 L 144 336 L 144 336 Q 145 384 177 415 Q 208 447 256 448 Q 304 447 335 415 Q 367 384 368 336 L 368 160 L 368 160 L 368 128 L 368 128 L 432 128 L 432 128 L 432 160 L 432 160 L 432 336 L 432 336 Q 430 411 380 460 Q 331 510 256 512 Q 181 510 132 460 Q 82 411 80 336 L 80 128 L 80 128 Z" />
</svg>