<svg xmlns="http://www.w3.org/2000/svg" viewBox="0 0 512 512">
  <path d="M 138.09128630705393 492.87966804979254 L 120.03319502074689 474.8215767634855 L 138.09128630705393 492.87966804979254 L 120.03319502074689 474.8215767634855 L 18.058091286307054 372.8464730290456 L 18.058091286307054 372.8464730290456 L 0 354.7883817427386 L 0 354.7883817427386 L 36.11618257261411 318.6721991701245 L 36.11618257261411 318.6721991701245 L 54.17427385892116 336.73029045643153 L 54.17427385892116 336.73029045643153 L 112.59751037344398 395.1535269709544 L 112.59751037344398 395.1535269709544 L 112.59751037344398 43.551867219917014 L 112.59751037344398 43.551867219917014 L 112.59751037344398 18.058091286307054 L 112.59751037344398 18.058091286307054 L 163.5850622406639 18.058091286307054 L 163.5850622406639 18.058091286307054 L 163.5850622406639 43.551867219917014 L 163.5850622406639 43.551867219917014 L 163.5850622406639 395.1535269709544 L 163.5850622406639 395.1535269709544 L 222.00829875518673 336.73029045643153 L 222.00829875518673 336.73029045643153 L 240.06639004149378 318.6721991701245 L 240.06639004149378 318.6721991701245 L 276.18257261410787 354.7883817427386 L 276.18257261410787 354.7883817427386 L 258.1244813278008 372.8464730290456 L 258.1244813278008 372.8464730290456 L 156.149377593361 474.8215767634855 L 156.149377593361 474.8215767634855 L 138.09128630705393 492.87966804979254 L 138.09128630705393 492.87966804979254 Z M 350.53941908713693 18.058091286307054 L 376.0331950207469 18.058091286307054 L 350.53941908713693 18.058091286307054 L 452.51452282157675 18.058091286307054 L 452.51452282157675 43.551867219917014 L 452.51452282157675 43.551867219917014 L 452.51452282157675 171.0207468879668 L 452.51452282157675 171.0207468879668 L 478.00829875518673 171.0207468879668 L 503.50207468879665 171.0207468879668 L 503.50207468879665 222.00829875518673 L 503.50207468879665 222.00829875518673 L 478.00829875518673 222.00829875518673 L 350.53941908713693 222.00829875518673 L 350.53941908713693 171.0207468879668 L 350.53941908713693 171.0207468879668 L 376.0331950207469 171.0207468879668 L 401.52697095435684 171.0207468879668 L 401.52697095435684 69.04564315352697 L 401.52697095435684 69.04564315352697 L 376.0331950207469 69.04564315352697 L 350.53941908713693 69.04564315352697 L 350.53941908713693 18.058091286307054 L 350.53941908713693 18.058091286307054 Z M 376.0331950207469 349.4771784232365 Q 377.0954356846473 373.90871369294604 397.2780082987552 386.655601659751 Q 418.5228215767635 397.2780082987552 439.76763485477176 386.655601659751 Q 459.9502074688797 373.90871369294604 461.0124481327801 349.4771784232365 Q 459.9502074688797 325.04564315352695 439.76763485477176 312.298755186722 Q 418.5228215767635 301.67634854771785 397.2780082987552 312.298755186722 Q 377.0954356846473 325.04564315352695 376.0331950207469 349.4771784232365 L 376.0331950207469 349.4771784232365 Z M 512 349.4771784232365 Q 512 383.4688796680498 492.87966804979254 411.0871369294606 L 433.3941908713693 493.94190871369295 L 433.3941908713693 493.94190871369295 L 370.7219917012448 493.94190871369295 L 370.7219917012448 493.94190871369295 L 381.344398340249 479.07053941908714 L 381.344398340249 479.07053941908714 L 406.8381742738589 441.89211618257264 L 406.8381742738589 441.89211618257264 Q 371.7842323651452 437.64315352697093 348.4149377593361 412.149377593361 Q 326.10788381742736 385.5933609958506 325.04564315352695 349.4771784232365 Q 326.10788381742736 310.17427385892114 352.66390041493776 283.6182572614108 Q 379.21991701244815 257.0622406639004 418.5228215767635 256 Q 457.82572614107886 257.0622406639004 484.3817427385892 283.6182572614108 Q 510.9377593360996 310.17427385892114 512 349.4771784232365 L 512 349.4771784232365 Z" />
</svg>