<svg xmlns="http://www.w3.org/2000/svg" viewBox="0 0 512 512">
  <path d="M 24.38095238095238 28.444444444444443 L 48.76190476190476 28.444444444444443 L 24.38095238095238 28.444444444444443 L 97.52380952380952 28.444444444444443 L 97.52380952380952 52.82539682539682 L 97.52380952380952 52.82539682539682 L 97.52380952380952 174.73015873015873 L 97.52380952380952 174.73015873015873 L 105.65079365079364 174.73015873015873 L 130.03174603174602 174.73015873015873 L 130.03174603174602 223.4920634920635 L 130.03174603174602 223.4920634920635 L 105.65079365079364 223.4920634920635 L 16.253968253968253 223.4920634920635 L 16.253968253968253 174.73015873015873 L 16.253968253968253 174.73015873015873 L 40.63492063492063 174.73015873015873 L 48.76190476190476 174.73015873015873 L 48.76190476190476 77.2063492063492 L 48.76190476190476 77.2063492063492 L 24.38095238095238 77.2063492063492 L 24.38095238095238 77.2063492063492 L 24.38095238095238 28.444444444444443 L 24.38095238095238 28.444444444444443 Z M 0 353.5238095238095 Q 1.0158730158730158 326.0952380952381 19.3015873015873 307.8095238095238 L 19.3015873015873 307.8095238095238 L 19.3015873015873 307.8095238095238 Q 37.58730158730159 289.5238095238095 65.01587301587301 288.5079365079365 L 82.28571428571429 288.5079365079365 L 82.28571428571429 288.5079365079365 Q 109.71428571428571 289.5238095238095 128 306.7936507936508 Q 145.26984126984127 325.07936507936506 146.28571428571428 352.5079365079365 Q 146.28571428571428 379.93650793650795 125.96825396825396 399.23809523809524 L 86.34920634920636 434.7936507936508 L 86.34920634920636 434.7936507936508 L 121.9047619047619 434.7936507936508 L 146.28571428571428 434.7936507936508 L 146.28571428571428 483.55555555555554 L 146.28571428571428 483.55555555555554 L 121.9047619047619 483.55555555555554 L 0 483.55555555555554 L 0 459.1746031746032 L 0 459.1746031746032 L 0 458.1587301587302 L 0 458.1587301587302 L 0 448 L 0 448 L 8.126984126984127 440.8888888888889 L 8.126984126984127 440.8888888888889 L 92.44444444444444 363.6825396825397 L 92.44444444444444 363.6825396825397 Q 97.52380952380952 358.6031746031746 97.52380952380952 352.5079365079365 Q 96.5079365079365 338.2857142857143 82.28571428571429 337.26984126984127 L 65.01587301587301 337.26984126984127 L 65.01587301587301 337.26984126984127 Q 49.77777777777778 338.2857142857143 48.76190476190476 353.5238095238095 L 0 353.5238095238095 L 0 353.5238095238095 Z M 219.42857142857142 60.95238095238095 L 479.4920634920635 60.95238095238095 L 219.42857142857142 60.95238095238095 L 512 60.95238095238095 L 512 125.96825396825396 L 512 125.96825396825396 L 479.4920634920635 125.96825396825396 L 186.9206349206349 125.96825396825396 L 186.9206349206349 60.95238095238095 L 186.9206349206349 60.95238095238095 L 219.42857142857142 60.95238095238095 L 219.42857142857142 60.95238095238095 Z M 219.42857142857142 223.4920634920635 L 479.4920634920635 223.4920634920635 L 219.42857142857142 223.4920634920635 L 512 223.4920634920635 L 512 288.5079365079365 L 512 288.5079365079365 L 479.4920634920635 288.5079365079365 L 186.9206349206349 288.5079365079365 L 186.9206349206349 223.4920634920635 L 186.9206349206349 223.4920634920635 L 219.42857142857142 223.4920634920635 L 219.42857142857142 223.4920634920635 Z M 219.42857142857142 386.031746031746 L 479.4920634920635 386.031746031746 L 219.42857142857142 386.031746031746 L 512 386.031746031746 L 512 451.04761904761904 L 512 451.04761904761904 L 479.4920634920635 451.04761904761904 L 186.9206349206349 451.04761904761904 L 186.9206349206349 386.031746031746 L 186.9206349206349 386.031746031746 L 219.42857142857142 386.031746031746 L 219.42857142857142 386.031746031746 Z" />
</svg>