<svg viewBox="0 0 640 504">
  <path
    d="M 120 0 L 105 0 L 99 13 Q 82 45 57 68 Q 32 92 3 111 L 29 151 Q 64 129 96 97 L 96 248 L 16 248 L 0 248 L 0 264 L 0 328 L 0 344 L 16 344 L 96 344 L 96 488 L 96 504 L 112 504 L 176 504 L 192 504 L 192 488 L 192 344 L 448 344 L 448 488 L 448 504 L 464 504 L 528 504 L 544 504 L 544 488 L 544 344 L 624 344 L 640 344 L 640 328 L 640 264 L 640 248 L 624 248 L 544 248 L 544 97 Q 576 129 611 151 L 638 111 Q 608 92 583 68 Q 558 45 542 13 L 535 0 L 520 0 L 504 0 L 490 0 L 483 12 Q 456 59 414 85 Q 372 112 320 112 Q 268 112 226 85 Q 184 59 157 12 L 150 0 L 136 0 L 120 0 L 120 0 Z M 480 94 L 480 248 L 440 248 L 440 126 Q 462 112 480 94 L 480 94 Z M 200 248 L 160 248 L 160 94 Q 178 112 200 126 L 200 248 L 200 248 Z M 296 248 L 248 248 L 248 149 Q 271 156 296 159 L 296 248 L 296 248 Z M 392 248 L 344 248 L 344 159 Q 369 156 392 149 L 392 248 L 392 248 Z"
  />
</svg>