<svg xmlns="http://www.w3.org/2000/svg" viewBox="0 0 576 512">
    <path d="M 432 240 Q 473 239 500 212 L 500 212 Q 527 185 528 144 Q 527 103 500 76 Q 473 49 432 48 Q 405 48 383 61 Q 362 74 349 96 L 296 96 Q 312 53 348 27 Q 384 1 432 0 Q 493 2 534 42 Q 574 83 576 144 Q 574 205 534 246 Q 493 286 432 288 Q 389 287 355 266 L 391 231 Q 410 240 432 240 L 432 240 Z M 0 160 L 0 128 L 416 128 L 416 160 L 232 344 L 232 464 L 320 464 L 320 512 L 232 512 L 208 512 L 96 512 L 96 464 L 184 464 L 184 344 L 0 160 L 0 160 Z"/>
</svg>
