<svg xmlns="http://www.w3.org/2000/svg" viewBox="0 0 512 512">
  <path d="M 284.44444444444446 28.444444444444443 L 284.44444444444446 85.33333333333333 L 284.44444444444446 28.444444444444443 L 284.44444444444446 85.33333333333333 L 227.55555555555554 85.33333333333333 L 227.55555555555554 85.33333333333333 L 227.55555555555554 28.444444444444443 L 227.55555555555554 28.444444444444443 L 284.44444444444446 28.444444444444443 L 284.44444444444446 28.444444444444443 Z M 113.77777777777777 85.33333333333333 L 113.77777777777777 142.22222222222223 L 113.77777777777777 85.33333333333333 L 113.77777777777777 142.22222222222223 L 56.888888888888886 142.22222222222223 L 56.888888888888886 142.22222222222223 L 56.888888888888886 85.33333333333333 L 56.888888888888886 85.33333333333333 L 113.77777777777777 85.33333333333333 L 113.77777777777777 85.33333333333333 Z M 455.1111111111111 85.33333333333333 L 455.1111111111111 142.22222222222223 L 455.1111111111111 85.33333333333333 L 455.1111111111111 142.22222222222223 L 398.22222222222223 142.22222222222223 L 398.22222222222223 142.22222222222223 L 398.22222222222223 85.33333333333333 L 398.22222222222223 85.33333333333333 L 455.1111111111111 85.33333333333333 L 455.1111111111111 85.33333333333333 Z M 455.1111111111111 256 L 512 256 L 455.1111111111111 256 L 512 256 L 512 312.8888888888889 L 512 312.8888888888889 L 455.1111111111111 312.8888888888889 L 455.1111111111111 312.8888888888889 L 455.1111111111111 256 L 455.1111111111111 256 Z M 455.1111111111111 426.6666666666667 L 455.1111111111111 483.55555555555554 L 455.1111111111111 426.6666666666667 L 455.1111111111111 483.55555555555554 L 398.22222222222223 483.55555555555554 L 398.22222222222223 483.55555555555554 L 398.22222222222223 426.6666666666667 L 398.22222222222223 426.6666666666667 L 455.1111111111111 426.6666666666667 L 455.1111111111111 426.6666666666667 Z M 56.888888888888886 426.6666666666667 L 113.77777777777777 426.6666666666667 L 56.888888888888886 426.6666666666667 L 113.77777777777777 426.6666666666667 L 113.77777777777777 483.55555555555554 L 113.77777777777777 483.55555555555554 L 56.888888888888886 483.55555555555554 L 56.888888888888886 483.55555555555554 L 56.888888888888886 426.6666666666667 L 56.888888888888886 426.6666666666667 Z M 0 256 L 56.888888888888886 256 L 0 256 L 56.888888888888886 256 L 56.888888888888886 312.8888888888889 L 56.888888888888886 312.8888888888889 L 0 312.8888888888889 L 0 312.8888888888889 L 0 256 L 0 256 Z M 356.44444444444446 184 Q 394.6666666666667 223.11111111111111 398.22222222222223 273.77777777777777 L 398.22222222222223 273.77777777777777 L 398.22222222222223 273.77777777777777 Q 401.77777777777777 325.3333333333333 370.6666666666667 368.8888888888889 L 271.1111111111111 269.3333333333333 L 271.1111111111111 269.3333333333333 L 256 254.22222222222223 L 256 254.22222222222223 L 225.77777777777777 284.44444444444446 L 225.77777777777777 284.44444444444446 L 240.88888888888889 299.55555555555554 L 240.88888888888889 299.55555555555554 L 340.44444444444446 399.1111111111111 L 340.44444444444446 399.1111111111111 Q 296.8888888888889 429.3333333333333 246.22222222222223 425.77777777777777 Q 195.55555555555554 423.1111111111111 155.55555555555554 384.8888888888889 Q 113.77777777777777 341.3333333333333 113.77777777777777 284.44444444444446 Q 113.77777777777777 227.55555555555554 155.55555555555554 184 Q 200 142.22222222222223 256 142.22222222222223 Q 312.8888888888889 142.22222222222223 357.3333333333333 184 L 356.44444444444446 184 Z" />
</svg>