<svg xmlns="http://www.w3.org/2000/svg" viewBox="0 0 512 512">
  <path d="M 36.57143 18.285715 L 36.57143 0 L 36.57143 18.285715 L 36.57143 0 L 62.857143 0 L 62.857143 0 L 68.57143 6.857143 L 68.57143 6.857143 L 438.85715 443.42856 L 438.85715 443.42856 L 438.85715 18.285715 L 438.85715 18.285715 L 438.85715 0 L 438.85715 0 L 475.42856 0 L 475.42856 0 L 475.42856 18.285715 L 475.42856 18.285715 L 475.42856 493.7143 L 475.42856 493.7143 L 475.42856 512 L 475.42856 512 L 449.14285 512 L 449.14285 512 L 443.42856 505.14285 L 443.42856 505.14285 L 73.14286 68.57143 L 73.14286 68.57143 L 73.14286 493.7143 L 73.14286 493.7143 L 73.14286 512 L 73.14286 512 L 36.57143 512 L 36.57143 512 L 36.57143 493.7143 L 36.57143 493.7143 L 36.57143 18.285715 L 36.57143 18.285715 Z" />
</svg>