<svg xmlns="http://www.w3.org/2000/svg" viewBox="0 0 576 504">
    <path d="M 256 22 L 245 43 L 172 184 L 404 184 L 331 43 L 320 22 L 362 0 L 373 21 L 458 184 L 495 184 L 544 184 L 576 184 L 576 232 L 532 232 L 464 504 L 112 504 L 44 232 L 0 232 L 0 184 L 32 184 L 82 184 L 118 184 L 203 21 L 214 0 L 256 22 L 256 22 Z M 483 232 L 94 232 L 150 456 L 427 456 L 483 232 L 483 232 Z M 144 288 Q 146 266 168 264 Q 190 266 192 288 Q 190 310 168 312 Q 146 310 144 288 L 144 288 Z M 408 264 Q 430 266 432 288 Q 430 310 408 312 Q 386 310 384 288 Q 386 266 408 264 L 408 264 Z"/>
</svg>
