<svg xmlns="http://www.w3.org/2000/svg" viewBox="0 0 512 512">
  <path d="M 328 80 Q 350 78 352 56 Q 350 34 328 32 Q 306 34 304 56 Q 306 78 328 80 L 328 80 Z M 328 0 Q 360 1 376 28 Q 392 56 376 84 Q 360 111 328 112 Q 296 111 280 84 Q 264 56 280 28 Q 296 1 328 0 L 328 0 Z M 169 112 L 176 112 L 169 112 L 226 112 L 228 113 L 228 113 L 340 145 L 340 145 L 349 147 L 349 147 L 351 156 L 351 156 L 380 256 L 380 256 L 448 256 L 464 256 L 464 288 L 464 288 L 448 288 L 356 288 L 353 276 L 353 276 L 332 206 L 332 206 L 295 317 L 295 317 Q 295 317 295 318 Q 295 318 295 318 L 344 346 L 344 346 L 356 353 L 356 353 L 351 365 L 351 365 L 299 512 L 299 512 L 265 512 L 265 512 L 317 367 L 317 367 L 223 315 L 223 315 Q 208 306 202 290 Q 196 275 201 258 L 238 149 L 238 149 L 222 144 L 222 144 L 183 144 L 183 144 L 123 203 L 123 203 L 112 215 L 112 215 L 89 192 L 89 192 L 101 181 L 101 181 L 165 117 L 165 117 L 169 112 L 169 112 Z M 268 157 L 232 268 L 268 157 L 232 268 Q 228 280 239 287 L 266 302 L 266 302 L 311 169 L 311 169 L 268 157 L 268 157 Z M 178 314 Q 187 329 202 340 L 175 406 L 175 406 L 171 416 L 171 416 L 160 416 L 48 416 L 48 384 L 48 384 L 64 384 L 149 384 L 178 314 L 178 314 Z" />
</svg>