<svg xmlns="http://www.w3.org/2000/svg" viewBox="0 0 626 512">
    <path d="M 113 0 L 161 0 L 161 24 L 161 142 L 184 119 L 201 102 L 235 136 L 218 153 L 154 217 L 137 234 L 120 217 L 56 153 L 39 136 L 73 102 L 90 119 L 113 142 L 113 24 L 113 0 L 113 0 Z M 273 200 Q 274 177 293 165 Q 313 155 333 165 Q 352 177 353 200 Q 352 223 333 235 Q 313 245 293 235 Q 274 223 273 200 L 273 200 Z M 97 296 Q 98 273 117 261 Q 137 251 157 261 Q 176 273 177 296 Q 176 319 157 331 Q 137 341 117 331 Q 98 319 97 296 L 97 296 Z M 489 256 Q 512 257 524 276 Q 534 296 524 316 Q 512 335 489 336 Q 466 335 454 316 Q 444 296 454 276 Q 466 257 489 256 L 489 256 Z M 75 352 L 89 352 L 185 352 L 199 352 L 244 269 L 251 256 L 265 256 L 361 256 L 375 256 L 382 269 L 427 352 L 441 352 L 537 352 L 551 352 L 558 364 L 614 465 L 626 486 L 584 509 L 572 488 L 545 440 L 545 512 L 433 512 L 433 440 L 406 488 L 394 509 L 352 486 L 364 465 L 399 402 L 396 395 L 369 346 L 369 432 L 257 432 L 257 346 L 230 395 L 227 402 L 262 465 L 274 486 L 232 509 L 220 488 L 193 440 L 193 512 L 81 512 L 81 440 L 54 489 L 42 510 L 0 486 L 12 465 L 68 364 L 75 352 L 75 352 Z M 408 153 L 391 136 L 425 102 L 442 119 L 465 142 L 465 24 L 465 0 L 513 0 L 513 24 L 513 142 L 536 119 L 553 102 L 587 136 L 570 153 L 506 217 L 489 234 L 472 217 L 408 153 L 408 153 Z"/>
</svg>
