<svg xmlns="http://www.w3.org/2000/svg" viewBox="0 0 512 512">
  <path d="M 35.23886639676113 12.437246963562753 L 134.73684210526315 111.93522267206478 L 35.23886639676113 12.437246963562753 L 134.73684210526315 111.93522267206478 L 182.41295546558703 64.25910931174089 L 182.41295546558703 64.25910931174089 L 189.66801619433198 57.00404858299595 L 189.66801619433198 57.00404858299595 L 206.251012145749 40.421052631578945 L 206.251012145749 40.421052631578945 L 222.834008097166 57.00404858299595 L 222.834008097166 57.00404858299595 L 222.834008097166 70.47773279352226 L 222.834008097166 70.47773279352226 L 222.834008097166 189.66801619433198 L 222.834008097166 189.66801619433198 L 222.834008097166 222.834008097166 L 222.834008097166 222.834008097166 L 189.66801619433198 222.834008097166 L 57.00404858299595 222.834008097166 L 40.421052631578945 206.251012145749 L 40.421052631578945 206.251012145749 L 57.00404858299595 189.66801619433198 L 57.00404858299595 189.66801619433198 L 64.25910931174089 182.41295546558703 L 64.25910931174089 182.41295546558703 L 111.93522267206478 134.73684210526315 L 111.93522267206478 134.73684210526315 L 12.437246963562753 35.23886639676113 L 12.437246963562753 35.23886639676113 L 0 23.838056680161944 L 0 23.838056680161944 L 23.838056680161944 0 L 23.838056680161944 0 L 35.23886639676113 12.437246963562753 L 35.23886639676113 12.437246963562753 Z M 499.56275303643724 35.23886639676113 L 400.06477732793525 134.73684210526315 L 499.56275303643724 35.23886639676113 L 400.06477732793525 134.73684210526315 L 447.7408906882591 182.41295546558703 L 447.7408906882591 182.41295546558703 L 454.99595141700405 189.66801619433198 L 454.99595141700405 189.66801619433198 L 471.57894736842104 206.251012145749 L 471.57894736842104 206.251012145749 L 454.99595141700405 222.834008097166 L 454.99595141700405 222.834008097166 L 441.52226720647775 222.834008097166 L 289.165991902834 222.834008097166 L 289.165991902834 189.66801619433198 L 289.165991902834 189.66801619433198 L 289.165991902834 70.47773279352226 L 289.165991902834 70.47773279352226 L 289.165991902834 57.00404858299595 L 289.165991902834 57.00404858299595 L 305.748987854251 40.421052631578945 L 305.748987854251 40.421052631578945 L 322.331983805668 57.00404858299595 L 322.331983805668 57.00404858299595 L 329.58704453441294 64.25910931174089 L 329.58704453441294 64.25910931174089 L 377.2631578947368 111.93522267206478 L 377.2631578947368 111.93522267206478 L 476.7611336032389 12.437246963562753 L 476.7611336032389 12.437246963562753 L 488.16194331983803 0 L 488.16194331983803 0 L 512 23.838056680161944 L 512 23.838056680161944 L 499.56275303643724 35.23886639676113 L 499.56275303643724 35.23886639676113 Z M 134.73684210526315 400.06477732793525 L 35.23886639676113 499.56275303643724 L 134.73684210526315 400.06477732793525 L 35.23886639676113 499.56275303643724 L 23.838056680161944 512 L 23.838056680161944 512 L 0 488.16194331983803 L 0 488.16194331983803 L 12.437246963562753 476.7611336032389 L 12.437246963562753 476.7611336032389 L 111.93522267206478 377.2631578947368 L 111.93522267206478 377.2631578947368 L 64.25910931174089 329.58704453441294 L 64.25910931174089 329.58704453441294 L 57.00404858299595 322.331983805668 L 57.00404858299595 322.331983805668 L 40.421052631578945 305.748987854251 L 40.421052631578945 305.748987854251 L 57.00404858299595 289.165991902834 L 57.00404858299595 289.165991902834 L 70.47773279352226 289.165991902834 L 222.834008097166 289.165991902834 L 222.834008097166 322.331983805668 L 222.834008097166 322.331983805668 L 222.834008097166 441.52226720647775 L 222.834008097166 441.52226720647775 L 222.834008097166 454.99595141700405 L 222.834008097166 454.99595141700405 L 206.251012145749 471.57894736842104 L 206.251012145749 471.57894736842104 L 189.66801619433198 454.99595141700405 L 189.66801619433198 454.99595141700405 L 182.41295546558703 447.7408906882591 L 182.41295546558703 447.7408906882591 L 134.73684210526315 400.06477732793525 L 134.73684210526315 400.06477732793525 Z M 377.2631578947368 400.06477732793525 L 329.58704453441294 447.7408906882591 L 377.2631578947368 400.06477732793525 L 329.58704453441294 447.7408906882591 L 322.331983805668 454.99595141700405 L 322.331983805668 454.99595141700405 L 305.748987854251 471.57894736842104 L 305.748987854251 471.57894736842104 L 289.165991902834 454.99595141700405 L 289.165991902834 454.99595141700405 L 289.165991902834 441.52226720647775 L 289.165991902834 441.52226720647775 L 289.165991902834 322.331983805668 L 289.165991902834 322.331983805668 L 289.165991902834 289.165991902834 L 289.165991902834 289.165991902834 L 322.331983805668 289.165991902834 L 454.99595141700405 289.165991902834 L 471.57894736842104 305.748987854251 L 471.57894736842104 305.748987854251 L 454.99595141700405 322.331983805668 L 454.99595141700405 322.331983805668 L 447.7408906882591 329.58704453441294 L 447.7408906882591 329.58704453441294 L 400.06477732793525 377.2631578947368 L 400.06477732793525 377.2631578947368 L 499.56275303643724 476.7611336032389 L 499.56275303643724 476.7611336032389 L 512 488.16194331983803 L 512 488.16194331983803 L 488.16194331983803 512 L 488.16194331983803 512 L 476.7611336032389 499.56275303643724 L 476.7611336032389 499.56275303643724 L 377.2631578947368 400.06477732793525 L 377.2631578947368 400.06477732793525 Z M 189.66801619433198 103.64372469635627 L 103.64372469635627 189.66801619433198 L 189.66801619433198 103.64372469635627 L 103.64372469635627 189.66801619433198 L 189.66801619433198 189.66801619433198 L 189.66801619433198 189.66801619433198 L 189.66801619433198 103.64372469635627 L 189.66801619433198 103.64372469635627 Z M 189.66801619433198 408.3562753036437 L 189.66801619433198 322.331983805668 L 189.66801619433198 408.3562753036437 L 189.66801619433198 322.331983805668 L 103.64372469635627 322.331983805668 L 103.64372469635627 322.331983805668 L 189.66801619433198 408.3562753036437 L 189.66801619433198 408.3562753036437 Z M 322.331983805668 322.331983805668 L 322.331983805668 408.3562753036437 L 322.331983805668 322.331983805668 L 322.331983805668 408.3562753036437 L 408.3562753036437 322.331983805668 L 408.3562753036437 322.331983805668 L 322.331983805668 322.331983805668 L 322.331983805668 322.331983805668 Z M 322.331983805668 103.64372469635627 L 322.331983805668 189.66801619433198 L 322.331983805668 103.64372469635627 L 322.331983805668 189.66801619433198 L 408.3562753036437 189.66801619433198 L 408.3562753036437 189.66801619433198 L 322.331983805668 103.64372469635627 L 322.331983805668 103.64372469635627 Z" />
</svg>