<svg xmlns="http://www.w3.org/2000/svg" viewBox="0 0 512 512">
  <path d="M 249 0 L 263 0 L 249 0 L 274 0 L 278 10 L 278 10 L 295 57 L 295 57 L 342 74 L 342 74 L 352 78 L 352 78 L 352 89 L 352 89 L 352 103 L 352 103 L 352 114 L 352 114 L 342 118 L 342 118 L 295 135 L 295 135 L 278 182 L 278 182 L 274 192 L 274 192 L 263 192 L 238 192 L 234 182 L 234 182 L 217 135 L 217 135 L 170 118 L 170 118 L 160 114 L 160 114 L 160 103 L 160 103 L 160 89 L 160 89 L 160 78 L 160 78 L 170 74 L 170 74 L 217 57 L 217 57 L 234 10 L 234 10 L 238 0 L 238 0 L 249 0 L 249 0 Z M 244 75 L 242 82 L 244 75 L 242 82 L 235 84 L 235 84 L 204 96 L 204 96 L 235 108 L 235 108 L 242 110 L 242 110 L 244 117 L 244 117 L 256 148 L 256 148 L 268 117 L 268 117 L 270 110 L 270 110 L 277 108 L 277 108 L 308 96 L 308 96 L 277 84 L 277 84 L 270 82 L 270 82 L 268 75 L 268 75 L 256 44 L 256 44 L 244 75 L 244 75 Z M 56 320 L 175 154 L 56 320 L 175 154 L 192 160 L 192 160 L 198 176 L 198 176 L 95 320 L 95 320 L 112 320 L 170 320 L 139 369 L 139 369 L 70 480 L 70 480 L 442 480 L 442 480 L 373 369 L 373 369 L 342 320 L 342 320 L 400 320 L 417 320 L 314 176 L 314 176 L 320 160 L 320 160 L 337 154 L 337 154 L 456 320 L 456 320 L 456 352 L 456 352 L 438 352 L 400 352 L 420 384 L 420 384 L 480 480 L 480 480 L 480 512 L 480 512 L 448 512 L 32 512 L 32 480 L 32 480 L 92 384 L 92 384 L 112 352 L 112 352 L 88 352 L 56 352 L 56 320 L 56 320 Z M 192 288 Q 194 266 216 264 Q 238 266 240 288 Q 238 310 216 312 Q 194 310 192 288 L 192 288 Z M 320 392 Q 342 394 344 416 Q 342 438 320 440 Q 298 438 296 416 Q 298 394 320 392 L 320 392 Z" />
</svg>