<svg xmlns="http://www.w3.org/2000/svg" viewBox="0 0 512 512">
  <path d="M 205.6 102.4 Q 205.6 110.4 208 118.4 L 99.2 154.4 L 99.2 154.4 L 107.2 178.4 L 107.2 178.4 L 222.4 140 L 222.4 140 Q 231.2 148.8 244 152 L 244 448 L 244 448 Q 244.8 460 256.8 460.8 L 423.2 460.8 L 436 460.8 L 436 435.2 L 436 435.2 L 423.2 435.2 L 269.6 435.2 L 269.6 152 L 269.6 152 Q 300 143.2 307.2 112 L 414.4 76 L 414.4 76 L 406.4 52 L 406.4 52 L 304.8 85.6 L 304.8 85.6 Q 299.2 70.4 286.4 60.8 Q 273.6 51.2 256.8 51.2 Q 234.4 52 220 66.4 Q 205.6 80.8 205.6 102.4 L 205.6 102.4 Z M 25.6 391.2 L 25.6 384 L 25.6 391.2 L 25.6 384 L 179.2 384 L 179.2 384 L 179.2 391.2 L 179.2 391.2 L 135.2 435.2 L 135.2 435.2 L 69.6 435.2 L 69.6 435.2 L 25.6 391.2 L 25.6 391.2 Z M 103.2 254.4 L 167.2 358.4 L 103.2 254.4 L 167.2 358.4 L 37.6 358.4 L 37.6 358.4 L 103.2 254.4 L 103.2 254.4 Z M 410.4 104 L 399.2 121.6 L 410.4 104 L 399.2 121.6 L 309.6 264.8 L 309.6 264.8 L 307.2 268 L 307.2 268 L 307.2 271.2 L 307.2 271.2 L 307.2 294.4 L 307.2 294.4 L 307.2 300 L 307.2 300 L 311.2 303.2 L 311.2 303.2 L 362.4 354.4 L 362.4 354.4 L 366.4 358.4 L 366.4 358.4 L 371.2 358.4 L 453.6 358.4 L 456.8 354.4 L 456.8 354.4 L 508 303.2 L 508 303.2 L 512 300 L 512 300 L 512 294.4 L 512 294.4 L 512 271.2 L 512 271.2 L 512 268 L 512 268 L 510.4 264.8 L 510.4 264.8 L 420.8 121.6 L 420.8 121.6 L 410.4 104 L 410.4 104 Z M 332.8 281.6 L 486.4 281.6 L 332.8 281.6 L 486.4 281.6 L 486.4 288.8 L 486.4 288.8 L 442.4 332.8 L 442.4 332.8 L 376.8 332.8 L 376.8 332.8 L 332.8 288.8 L 332.8 288.8 L 332.8 281.6 L 332.8 281.6 Z M 344.8 256 L 410.4 152 L 344.8 256 L 410.4 152 L 474.4 256 L 474.4 256 L 344.8 256 L 344.8 256 Z M 103.2 206.4 L 92 224 L 103.2 206.4 L 92 224 L 2.4 367.2 L 2.4 367.2 L 0 370.4 L 0 370.4 L 0 373.6 L 0 373.6 L 0 396.8 L 0 396.8 L 0 402.4 L 0 402.4 L 4 405.6 L 4 405.6 L 55.2 456.8 L 55.2 456.8 L 58.4 460.8 L 58.4 460.8 L 64 460.8 L 146.4 460.8 L 149.6 456.8 L 149.6 456.8 L 200.8 405.6 L 200.8 405.6 L 204.8 402.4 L 204.8 402.4 L 204.8 396.8 L 204.8 396.8 L 204.8 373.6 L 204.8 373.6 L 204.8 370.4 L 204.8 370.4 L 203.2 367.2 L 203.2 367.2 L 113.6 224 L 113.6 224 L 103.2 206.4 L 103.2 206.4 Z M 256.8 76.8 Q 267.2 76.8 274.4 84 L 274.4 84 L 274.4 84 Q 281.6 91.2 282.4 102.4 Q 281.6 113.6 274.4 120.8 Q 267.2 128 256.8 128 Q 245.6 128 238.4 120.8 Q 231.2 113.6 231.2 102.4 Q 231.2 91.2 238.4 84 Q 245.6 76.8 256.8 76.8 L 256.8 76.8 Z" />
</svg>