<svg xmlns="http://www.w3.org/2000/svg" viewBox="0 0 512 512">
  <path d="M 37.333332 426.66666 L 241.77777 426.66666 L 37.333332 426.66666 L 241.77777 426.66666 L 241.77777 384 L 241.77777 384 L 241.77777 369.77777 L 241.77777 369.77777 L 270.22223 369.77777 L 270.22223 369.77777 L 270.22223 384 L 270.22223 384 L 270.22223 426.66666 L 270.22223 426.66666 L 474.66666 426.66666 L 474.66666 426.66666 L 376.8889 85.333336 L 376.8889 85.333336 L 270.22223 85.333336 L 270.22223 85.333336 L 270.22223 128 L 270.22223 128 L 270.22223 142.22223 L 270.22223 142.22223 L 241.77777 142.22223 L 241.77777 142.22223 L 241.77777 128 L 241.77777 128 L 241.77777 85.333336 L 241.77777 85.333336 L 135.11111 85.333336 L 135.11111 85.333336 L 37.333332 426.66666 L 37.333332 426.66666 Z M 270.22223 56.88889 L 398.22223 56.88889 L 270.22223 56.88889 L 398.22223 56.88889 L 504 426.66666 L 504 426.66666 L 512 455.1111 L 512 455.1111 L 482.66666 455.1111 L 0 455.1111 L 8 426.66666 L 8 426.66666 L 113.77778 56.88889 L 113.77778 56.88889 L 241.77777 56.88889 L 270.22223 56.88889 Z M 270.22223 213.33333 L 270.22223 298.66666 L 270.22223 213.33333 L 270.22223 298.66666 L 270.22223 312.8889 L 270.22223 312.8889 L 241.77777 312.8889 L 241.77777 312.8889 L 241.77777 298.66666 L 241.77777 298.66666 L 241.77777 213.33333 L 241.77777 213.33333 L 241.77777 199.11111 L 241.77777 199.11111 L 270.22223 199.11111 L 270.22223 199.11111 L 270.22223 213.33333 L 270.22223 213.33333 Z" />
</svg>