<svg xmlns="http://www.w3.org/2000/svg" viewBox="0 0 512 512">
  <path d="M 138.66667 32 L 138.66667 0 L 138.66667 32 L 138.66667 0 L 74.666664 0 L 74.666664 0 L 74.666664 32 L 74.666664 32 L 74.666664 224 L 74.666664 224 L 74.666664 288 L 74.666664 288 L 74.666664 480 L 74.666664 480 L 74.666664 512 L 74.666664 512 L 138.66667 512 L 138.66667 512 L 138.66667 480 L 138.66667 480 L 138.66667 328 L 138.66667 328 L 373.33334 472 L 373.33334 472 L 437.33334 512 L 437.33334 512 L 437.33334 437.33334 L 437.33334 437.33334 L 437.33334 74.666664 L 437.33334 74.666664 L 437.33334 0 L 437.33334 0 L 373.33334 40 L 373.33334 40 L 138.66667 184 L 138.66667 184 L 138.66667 32 L 138.66667 32 Z M 145.33333 256 L 373.33334 114.666664 L 145.33333 256 L 373.33334 114.666664 L 373.33334 397.33334 L 373.33334 397.33334 L 145.33333 256 L 145.33333 256 Z" />
</svg>