<svg viewBox="0 0 640 512">
  <path
    d="M 344 196 L 384 224 L 384 185 L 384 176 L 384 144 L 384 96 L 432 96 L 488 96 Q 528 150 562 208 Q 590 256 614 311 Q 638 367 640 423 Q 639 461 614 486 Q 589 511 551 512 Q 522 512 492 504 Q 463 497 433 487 Q 408 479 384 473 L 384 323 L 432 357 L 432 437 Q 441 439 450 442 Q 450 442 450 442 Q 451 443 453 443 Q 468 448 480 451 Q 521 463 551 464 Q 568 464 580 452 Q 592 440 592 423 Q 591 378 570 329 Q 549 281 520 232 Q 494 186 464 144 L 432 144 L 432 176 L 432 219 L 432 259 L 502 309 L 521 322 L 494 362 L 474 348 L 432 318 L 384 283 L 320 238 L 256 283 L 208 318 L 166 348 L 146 362 L 118 322 L 138 309 L 208 259 L 208 219 L 208 176 L 208 144 L 176 144 Q 146 187 120 232 Q 91 281 70 329 Q 49 378 48 423 Q 48 440 60 452 Q 72 464 89 464 Q 119 464 160 451 Q 174 447 190 442 Q 199 440 208 437 L 208 357 L 256 323 L 256 473 Q 233 479 208 487 Q 207 487 207 487 Q 207 487 207 487 Q 177 497 148 504 Q 118 512 89 512 Q 51 511 26 486 Q 1 461 0 423 Q 2 367 26 311 Q 50 256 78 208 Q 112 150 152 96 L 208 96 L 256 96 L 256 144 L 256 176 L 256 185 L 256 224 L 296 196 L 296 24 L 296 0 L 344 0 L 344 24 L 344 196 L 344 196 Z"
  />
</svg>