<svg xmlns="http://www.w3.org/2000/svg" viewBox="0 0 512 448">
    <path d="M 192 80 L 32 80 L 32 192 L 145 192 Q 162 163 191 146 Q 220 128 256 128 Q 292 128 321 146 Q 350 163 367 192 L 480 192 L 480 32 L 267 32 L 211 74 Q 203 80 192 80 L 192 80 Z M 32 224 L 32 416 L 480 416 L 480 224 L 380 224 Q 384 239 384 256 Q 383 310 347 347 Q 310 383 256 384 Q 202 383 165 347 Q 129 310 128 256 Q 128 239 132 224 L 32 224 L 32 224 Z M 192 48 L 256 0 L 480 0 L 512 0 L 512 32 L 512 416 L 512 448 L 480 448 L 32 448 L 0 448 L 0 416 L 0 80 L 0 48 L 32 48 L 192 48 L 192 48 Z M 352 256 Q 352 230 339 208 L 339 208 Q 326 186 304 173 Q 281 160 256 160 Q 231 160 208 173 Q 186 186 173 208 Q 160 230 160 256 Q 160 282 173 304 Q 186 326 208 339 Q 231 352 256 352 Q 281 352 304 339 Q 326 326 339 304 Q 352 282 352 256 L 352 256 Z M 64 0 L 160 0 L 160 32 L 64 32 L 64 0 L 64 0 Z"/>
</svg>
