<svg xmlns="http://www.w3.org/2000/svg" viewBox="0 0 512 512">
  <path d="M 85.33333333333333 56.888888888888886 L 85.33333333333333 256 L 85.33333333333333 56.888888888888886 L 85.33333333333333 256 L 227.55555555555554 256 L 227.55555555555554 256 L 227.55555555555554 56.888888888888886 L 227.55555555555554 56.888888888888886 L 85.33333333333333 56.888888888888886 L 85.33333333333333 56.888888888888886 Z M 256 56.888888888888886 L 256 256 L 256 56.888888888888886 L 256 256 L 384 256 L 384 256 L 384 84.44444444444444 L 384 84.44444444444444 L 322.6666666666667 144.88888888888889 L 322.6666666666667 144.88888888888889 L 312.8888888888889 155.55555555555554 L 312.8888888888889 155.55555555555554 L 292.44444444444446 135.11111111111111 L 292.44444444444446 135.11111111111111 L 303.1111111111111 125.33333333333333 L 303.1111111111111 125.33333333333333 L 388.44444444444446 40 L 388.44444444444446 40 L 398.22222222222223 29.333333333333332 L 398.22222222222223 29.333333333333332 L 408 40 L 408 40 L 493.3333333333333 125.33333333333333 L 493.3333333333333 125.33333333333333 L 504 135.11111111111111 L 504 135.11111111111111 L 483.55555555555554 155.55555555555554 L 483.55555555555554 155.55555555555554 L 473.77777777777777 144.88888888888889 L 473.77777777777777 144.88888888888889 L 412.44444444444446 84.44444444444444 L 412.44444444444446 84.44444444444444 L 412.44444444444446 256 L 412.44444444444446 256 L 483.55555555555554 256 L 512 256 L 512 284.44444444444446 L 512 284.44444444444446 L 512 397.3333333333333 L 512 397.3333333333333 Q 497.77777777777777 397.3333333333333 483.55555555555554 391.1111111111111 L 483.55555555555554 284.44444444444446 L 483.55555555555554 284.44444444444446 L 256 284.44444444444446 L 28.444444444444443 284.44444444444446 L 28.444444444444443 391.1111111111111 L 28.444444444444443 391.1111111111111 Q 14.222222222222221 397.3333333333333 0 397.3333333333333 L 0 284.44444444444446 L 0 284.44444444444446 L 0 256 L 0 256 L 28.444444444444443 256 L 56.888888888888886 256 L 56.888888888888886 56.888888888888886 L 56.888888888888886 56.888888888888886 L 56.888888888888886 28.444444444444443 L 56.888888888888886 28.444444444444443 L 85.33333333333333 28.444444444444443 L 256 28.444444444444443 L 256 56.888888888888886 L 256 56.888888888888886 Z M 170.66666666666666 455.1111111111111 Q 199.11111111111111 453.3333333333333 222.22222222222223 436.44444444444446 Q 240.88888888888889 423.1111111111111 256 406.22222222222223 Q 271.1111111111111 423.1111111111111 289.77777777777777 436.44444444444446 Q 312.8888888888889 453.3333333333333 341.3333333333333 455.1111111111111 Q 369.77777777777777 453.3333333333333 392.8888888888889 436.44444444444446 Q 411.55555555555554 423.1111111111111 426.6666666666667 406.22222222222223 Q 441.77777777777777 423.1111111111111 460.44444444444446 436.44444444444446 Q 483.55555555555554 453.3333333333333 512 455.1111111111111 L 512 483.55555555555554 L 512 483.55555555555554 Q 491.55555555555554 483.55555555555554 474.6666666666667 475.55555555555554 Q 456.8888888888889 468.44444444444446 444.44444444444446 459.55555555555554 Q 433.77777777777777 452.44444444444446 426.6666666666667 446.22222222222223 Q 419.55555555555554 452.44444444444446 408.8888888888889 459.55555555555554 Q 396.44444444444446 468.44444444444446 378.6666666666667 475.55555555555554 Q 361.77777777777777 483.55555555555554 341.3333333333333 483.55555555555554 Q 320.8888888888889 483.55555555555554 304 475.55555555555554 Q 286.22222222222223 468.44444444444446 273.77777777777777 459.55555555555554 Q 263.1111111111111 452.44444444444446 256 446.22222222222223 Q 248.88888888888889 452.44444444444446 238.22222222222223 459.55555555555554 Q 225.77777777777777 468.44444444444446 208 475.55555555555554 Q 191.11111111111111 483.55555555555554 170.66666666666666 483.55555555555554 Q 150.22222222222223 483.55555555555554 133.33333333333334 475.55555555555554 Q 115.55555555555556 468.44444444444446 103.11111111111111 459.55555555555554 Q 92.44444444444444 452.44444444444446 85.33333333333333 446.22222222222223 Q 78.22222222222223 452.44444444444446 67.55555555555556 459.55555555555554 Q 55.111111111111114 468.44444444444446 37.333333333333336 475.55555555555554 Q 20.444444444444443 483.55555555555554 0 483.55555555555554 L 0 455.1111111111111 L 0 455.1111111111111 Q 28.444444444444443 453.3333333333333 51.55555555555556 436.44444444444446 Q 70.22222222222223 423.1111111111111 85.33333333333333 406.22222222222223 Q 100.44444444444444 423.1111111111111 119.11111111111111 436.44444444444446 Q 142.22222222222223 453.3333333333333 170.66666666666666 455.1111111111111 L 170.66666666666666 455.1111111111111 Z" />
</svg>