<svg xmlns="http://www.w3.org/2000/svg" viewBox="0 0 512 512">
  <path d="M 153.6 128 Q 175.2 127.2 187.2 108.8 Q 196.8 89.6 187.2 70.4 Q 175.2 52 153.6 51.2 Q 132 52 120 70.4 Q 110.4 89.6 120 108.8 Q 132 127.2 153.6 128 L 153.6 128 Z M 112.8 153.6 L 101.6 153.6 L 112.8 153.6 L 101.6 153.6 L 96 163.2 L 96 163.2 L 36 272 L 36 272 L 26.4 288.8 L 26.4 288.8 L 60 308 L 60 308 L 69.6 291.2 L 69.6 291.2 L 102.4 231.2 L 102.4 231.2 L 102.4 422.4 L 102.4 422.4 L 19.2 422.4 L 0 422.4 L 0 460.8 L 0 460.8 L 19.2 460.8 L 512 460.8 L 512 422.4 L 512 422.4 L 492.8 422.4 L 204.8 422.4 L 204.8 231.2 L 204.8 231.2 L 237.6 291.2 L 237.6 291.2 L 247.2 308 L 247.2 308 L 280.8 288.8 L 280.8 288.8 L 271.2 272 L 271.2 272 L 211.2 163.2 L 211.2 163.2 L 205.6 153.6 L 205.6 153.6 L 194.4 153.6 L 112.8 153.6 Z M 166.4 422.4 L 140.8 422.4 L 166.4 422.4 L 140.8 422.4 L 140.8 332.8 L 140.8 332.8 L 166.4 332.8 L 166.4 332.8 L 166.4 422.4 L 166.4 422.4 Z M 166.4 294.4 L 140.8 294.4 L 166.4 294.4 L 140.8 294.4 L 140.8 192 L 140.8 192 L 166.4 192 L 166.4 192 L 166.4 294.4 L 166.4 294.4 Z M 377.6 96 L 377.6 321.6 L 377.6 96 L 377.6 321.6 L 339.2 286.4 L 339.2 286.4 L 313.6 315.2 L 313.6 315.2 L 384 379.2 L 384 379.2 L 396.8 390.4 L 396.8 390.4 L 409.6 379.2 L 409.6 379.2 L 480 315.2 L 480 315.2 L 454.4 286.4 L 454.4 286.4 L 416 321.6 L 416 321.6 L 416 96 L 416 96 L 416 76.8 L 416 76.8 L 377.6 76.8 L 377.6 76.8 L 377.6 96 L 377.6 96 Z" />
</svg>