<svg xmlns="http://www.w3.org/2000/svg" viewBox="0 0 512 512">
  <path d="M 256 480 Q 317 479 368 450 L 368 450 L 368 450 Q 419 420 450 368 Q 480 315 480 256 Q 480 197 450 144 Q 419 92 368 62 Q 317 33 256 32 Q 195 33 144 62 Q 93 92 62 144 Q 32 197 32 256 Q 32 315 62 368 Q 93 420 144 450 Q 195 479 256 480 L 256 480 Z M 256 0 Q 326 1 384 34 L 384 34 L 384 34 Q 442 68 478 128 Q 512 189 512 256 Q 512 323 478 384 Q 442 444 384 478 Q 326 511 256 512 Q 186 511 128 478 Q 70 444 34 384 Q 0 323 0 256 Q 0 189 34 128 Q 70 68 128 34 Q 186 1 256 0 L 256 0 Z M 352 144 L 368 144 L 352 144 L 368 144 L 368 160 L 368 160 L 368 320 L 368 320 L 368 327 L 368 327 L 363 331 L 363 331 L 347 347 L 347 347 L 336 359 L 336 359 L 325 347 L 325 347 L 284 307 L 284 307 L 219 371 L 219 371 L 208 383 L 208 383 L 197 371 L 197 371 L 141 315 L 141 315 L 129 304 L 129 304 L 141 293 L 141 293 L 205 228 L 205 228 L 165 187 L 165 187 L 153 176 L 153 176 L 165 165 L 165 165 L 181 149 L 181 149 L 185 144 L 185 144 L 192 144 L 352 144 Z M 336 313 L 336 176 L 336 313 L 336 176 L 199 176 L 199 176 L 239 217 L 239 217 L 251 228 L 251 228 L 239 239 L 239 239 L 175 304 L 175 304 L 208 337 L 208 337 L 273 273 L 273 273 L 284 261 L 284 261 L 295 273 L 295 273 L 336 313 L 336 313 Z" />
</svg>