<svg viewBox="0 0 640 480">
  <path
    d="M 0 0 L 448 0 L 448 87 Q 414 114 384 144 L 384 64 L 64 64 L 64 192 L 342 192 Q 315 225 299 264 L 264 264 L 264 312 L 288 312 Q 288 316 288 320 Q 288 320 288 320 Q 290 396 337 448 L 0 448 L 0 0 L 0 0 Z M 168 264 L 168 312 L 216 312 L 216 264 L 168 264 L 168 264 Z M 72 264 L 72 312 L 120 312 L 120 264 L 72 264 L 72 264 Z M 513 192 Q 541 161 544 160 Q 546 161 569 185 Q 592 209 615 246 Q 638 282 640 320 Q 638 388 593 433 Q 548 478 480 480 Q 412 478 367 433 Q 322 388 320 320 Q 322 275 353 231 Q 384 187 415 158 Q 446 129 448 128 Q 449 129 468 146 Q 488 163 513 192 L 513 192 Z M 530 401 Q 553 384 558 358 L 558 358 Q 563 331 550 305 Q 549 302 547 299 Q 545 296 543 293 L 507 335 Q 506 334 492 316 Q 478 298 463 279 Q 448 260 445 256 Q 423 283 411 302 Q 400 321 400 338 Q 401 375 424 395 Q 446 416 481 416 Q 508 416 530 401 L 530 401 Z"
  />
</svg>