<svg xmlns="http://www.w3.org/2000/svg" viewBox="0 0 512 512">
  <path d="M 0 64 L 512 64 L 0 64 L 512 64 L 512 448 L 512 448 L 0 448 L 0 448 L 0 64 L 0 64 Z M 64 128 L 64 256 L 64 128 L 64 256 L 448 256 L 448 256 L 448 128 L 448 128 L 64 128 L 64 128 Z M 80 320 L 56 320 L 80 320 L 56 320 L 56 368 L 56 368 L 80 368 L 160 368 L 160 320 L 160 320 L 136 320 L 80 320 Z M 216 320 L 192 320 L 216 320 L 192 320 L 192 368 L 192 368 L 216 368 L 288 368 L 288 320 L 288 320 L 264 320 L 216 320 Z" />
</svg>