<svg xmlns="http://www.w3.org/2000/svg" viewBox="0 0 512 512">
  <path d="M 512 435.2 L 268.8 435.2 L 512 435.2 L 268.8 435.2 L 268.8 344.8 L 268.8 344.8 Q 302.4 339.2 323.2 315.2 Q 344.8 290.4 345.6 256 Q 344.8 221.6 323.2 196.8 Q 302.4 172.8 268.8 167.2 L 268.8 76.8 L 268.8 76.8 L 512 76.8 L 512 76.8 L 512 153.6 L 512 153.6 L 435.2 153.6 L 409.6 153.6 L 409.6 179.2 L 409.6 179.2 L 409.6 332.8 L 409.6 332.8 L 409.6 358.4 L 409.6 358.4 L 435.2 358.4 L 512 358.4 L 512 435.2 L 512 435.2 Z M 243.2 167.2 Q 209.6 172.8 188.8 196.8 L 188.8 196.8 L 188.8 196.8 Q 167.2 221.6 166.4 256 Q 167.2 290.4 188.8 315.2 Q 209.6 339.2 243.2 344.8 L 243.2 435.2 L 243.2 435.2 L 0 435.2 L 0 435.2 L 0 358.4 L 0 358.4 L 76.8 358.4 L 102.4 358.4 L 102.4 332.8 L 102.4 332.8 L 102.4 179.2 L 102.4 179.2 L 102.4 153.6 L 102.4 153.6 L 76.8 153.6 L 0 153.6 L 0 76.8 L 0 76.8 L 243.2 76.8 L 243.2 76.8 L 243.2 167.2 L 243.2 167.2 Z M 243.2 318.4 Q 220.8 313.6 206.4 296.8 L 206.4 296.8 L 206.4 296.8 Q 192.8 280 192 256 Q 192.8 232 206.4 215.2 Q 220.8 198.4 243.2 193.6 L 243.2 318.4 L 243.2 318.4 Z M 268.8 318.4 L 268.8 193.6 L 268.8 318.4 L 268.8 193.6 Q 291.2 198.4 305.6 215.2 Q 319.2 232 320 256 Q 319.2 280 305.6 296.8 Q 291.2 313.6 268.8 318.4 L 268.8 318.4 Z M 435.2 179.2 L 512 179.2 L 435.2 179.2 L 512 179.2 L 512 332.8 L 512 332.8 L 435.2 332.8 L 435.2 332.8 L 435.2 179.2 L 435.2 179.2 Z M 76.8 332.8 L 0 332.8 L 76.8 332.8 L 0 332.8 L 0 179.2 L 0 179.2 L 76.8 179.2 L 76.8 179.2 L 76.8 332.8 L 76.8 332.8 Z" />
</svg>