<svg xmlns="http://www.w3.org/2000/svg" viewBox="0 0 512 512">
  <path d="M 365 32 L 357 40 L 365 32 L 357 40 L 472 155 L 472 155 L 480 147 L 480 147 L 480 32 L 480 32 L 365 32 L 365 32 Z M 480 0 L 512 0 L 480 0 L 512 0 L 512 32 L 512 32 L 512 160 L 512 160 L 495 177 L 495 177 L 472 200 L 472 200 L 449 177 L 449 177 L 403 131 L 403 131 L 235 299 L 235 299 L 224 311 L 224 311 L 201 288 L 201 288 L 213 277 L 213 277 L 381 109 L 381 109 L 335 63 L 335 63 L 312 40 L 312 40 L 335 17 L 335 17 L 352 0 L 352 0 L 480 0 L 480 0 Z M 0 32 L 16 32 L 0 32 L 224 32 L 224 64 L 224 64 L 208 64 L 32 64 L 32 480 L 32 480 L 448 480 L 448 480 L 448 304 L 448 304 L 448 288 L 448 288 L 480 288 L 480 288 L 480 304 L 480 304 L 480 496 L 480 496 L 480 512 L 480 512 L 464 512 L 0 512 L 0 496 L 0 496 L 0 48 L 0 48 L 0 32 L 0 32 Z" />
</svg>