<svg xmlns="http://www.w3.org/2000/svg" viewBox="0 0 512 512">
  <path d="M 36.57143 36.57143 L 36.57143 475.42856 L 36.57143 36.57143 L 36.57143 475.42856 L 475.42856 475.42856 L 475.42856 475.42856 L 475.42856 36.57143 L 475.42856 36.57143 L 36.57143 36.57143 L 36.57143 36.57143 Z M 0 0 L 36.57143 0 L 0 0 L 512 0 L 512 36.57143 L 512 36.57143 L 512 475.42856 L 512 475.42856 L 512 512 L 512 512 L 475.42856 512 L 0 512 L 0 475.42856 L 0 475.42856 L 0 36.57143 L 0 36.57143 L 0 0 L 0 0 Z M 274.2857 146.28572 L 274.2857 164.57143 L 274.2857 146.28572 L 274.2857 164.57143 L 274.2857 237.71428 L 274.2857 237.71428 L 347.42856 237.71428 L 365.7143 237.71428 L 365.7143 274.2857 L 365.7143 274.2857 L 347.42856 274.2857 L 274.2857 274.2857 L 274.2857 347.42856 L 274.2857 347.42856 L 274.2857 365.7143 L 274.2857 365.7143 L 237.71428 365.7143 L 237.71428 365.7143 L 237.71428 347.42856 L 237.71428 347.42856 L 237.71428 274.2857 L 237.71428 274.2857 L 164.57143 274.2857 L 146.28572 274.2857 L 146.28572 237.71428 L 146.28572 237.71428 L 164.57143 237.71428 L 237.71428 237.71428 L 237.71428 164.57143 L 237.71428 164.57143 L 237.71428 146.28572 L 237.71428 146.28572 L 274.2857 146.28572 L 274.2857 146.28572 Z" />
</svg>