<svg viewBox="0 0 316 521">
  <path
    d="M 190 73 Q 190 59 181 50 L 181 50 Q 172 41 158 41 Q 144 41 135 50 Q 126 59 126 73 Q 126 87 135 96 Q 144 105 158 105 Q 172 105 181 96 Q 190 87 190 73 L 190 73 Z M 94 73 Q 95 37 126 18 Q 158 0 190 18 Q 221 37 222 73 Q 221 109 190 128 Q 158 146 126 128 Q 95 109 94 73 L 94 73 Z M 78 201 L 69 201 L 59 201 L 55 193 L 8 113 L 0 99 L 28 83 L 36 97 L 78 169 L 237 169 L 280 97 L 289 83 L 316 100 L 308 113 L 260 193 L 255 201 L 246 201 L 238 201 L 238 505 L 238 521 L 206 521 L 206 505 L 206 393 L 110 393 L 110 505 L 110 521 L 78 521 L 78 505 L 78 201 L 78 201 Z M 110 201 L 110 361 L 206 361 L 206 201 L 110 201 L 110 201 Z"
  />
</svg>