<svg xmlns="http://www.w3.org/2000/svg" viewBox="0 0 512 512">
  <path d="M 256 80 Q 278 78 280 56 Q 278 34 256 32 Q 234 34 232 56 Q 234 78 256 80 L 256 80 Z M 256 0 Q 288 1 304 28 Q 320 56 304 84 Q 288 111 256 112 Q 224 111 208 84 Q 192 56 208 28 Q 224 1 256 0 L 256 0 Z M 176 128 L 208 128 L 176 128 L 208 128 Q 208 129 210 140 Q 212 152 222 164 Q 232 175 256 176 Q 280 175 290 164 Q 300 152 302 140 Q 304 129 304 128 L 336 128 L 368 128 Q 367 148 374 165 Q 381 182 402 189 Q 424 194 442 178 L 464 160 L 464 160 L 512 192 L 512 192 L 419 352 L 419 352 L 382 352 L 382 352 L 469 202 L 469 202 L 466 200 L 466 200 L 462 203 L 462 203 Q 450 213 432 219 Q 415 226 393 220 Q 357 208 345 178 Q 341 169 339 160 L 330 160 L 330 160 Q 328 163 327 166 Q 320 182 302 195 Q 282 208 256 208 Q 230 208 211 195 Q 192 182 185 166 Q 184 163 183 160 L 173 160 L 173 160 Q 171 169 167 178 Q 155 208 119 220 Q 98 226 80 219 Q 62 213 50 203 L 46 200 L 46 200 L 43 202 L 43 202 L 130 352 L 130 352 L 93 352 L 93 352 L 0 192 L 0 192 L 48 160 L 48 160 L 71 178 L 71 178 Q 88 194 110 189 Q 131 182 138 165 Q 145 148 144 128 L 176 128 L 176 128 Z M 96 480 L 416 480 L 96 480 L 416 480 L 416 463 L 416 463 L 383 416 L 383 416 L 129 416 L 129 416 L 96 463 L 96 463 L 96 480 L 96 480 Z M 64 480 L 64 453 L 64 480 L 64 453 L 112 384 L 112 384 L 400 384 L 400 384 L 448 453 L 448 453 L 448 480 L 448 480 L 448 512 L 448 512 L 416 512 L 64 512 L 64 480 L 64 480 Z" />
</svg>