<svg xmlns="http://www.w3.org/2000/svg" viewBox="0 0 512 512">
  <path d="M 230.4 435.2 L 230.4 384 L 230.4 435.2 L 230.4 384 L 102.4 384 L 76.8 384 L 76.8 435.2 L 76.8 435.2 L 102.4 435.2 L 230.4 435.2 Z M 51.2 76.8 L 0 76.8 L 51.2 76.8 L 0 76.8 L 0 128 L 0 128 L 0 307.2 L 0 307.2 L 0 358.4 L 0 358.4 L 51.2 358.4 L 230.4 358.4 L 230.4 307.2 L 230.4 307.2 L 51.2 307.2 L 51.2 307.2 L 51.2 128 L 51.2 128 L 230.4 128 L 230.4 128 L 230.4 76.8 L 230.4 76.8 L 51.2 76.8 L 51.2 76.8 Z M 512 76.8 L 256 76.8 L 512 76.8 L 256 76.8 L 256 435.2 L 256 435.2 L 512 435.2 L 512 435.2 L 512 76.8 L 512 76.8 Z M 435.2 307.2 Q 434.4 278.4 409.6 263.2 Q 384 248.8 358.4 263.2 Q 333.6 278.4 332.8 307.2 Q 333.6 336 358.4 351.2 Q 384 365.6 409.6 351.2 Q 434.4 336 435.2 307.2 L 435.2 307.2 Z M 307.2 307.2 Q 307.2 286.4 317.6 268.8 L 317.6 268.8 L 317.6 268.8 Q 328 251.2 345.6 240.8 Q 364 230.4 384 230.4 Q 404 230.4 422.4 240.8 Q 440 251.2 450.4 268.8 Q 460.8 286.4 460.8 307.2 Q 460.8 328 450.4 345.6 Q 440 363.2 422.4 373.6 Q 404 384 384 384 Q 364 384 345.6 373.6 Q 328 363.2 317.6 345.6 Q 307.2 328 307.2 307.2 L 307.2 307.2 Z M 358.4 153.6 Q 358.4 142.4 365.6 135.2 L 365.6 135.2 L 365.6 135.2 Q 372.8 128 384 128 Q 395.2 128 402.4 135.2 Q 409.6 142.4 409.6 153.6 Q 409.6 164.8 402.4 172 Q 395.2 179.2 384 179.2 Q 372.8 179.2 365.6 172 Q 358.4 164.8 358.4 153.6 L 358.4 153.6 Z" />
</svg>