<svg xmlns="http://www.w3.org/2000/svg" viewBox="0 0 640 512">
    <path d="M 24 0 L 0 0 L 0 48 L 24 48 L 76 48 L 136 365 L 140 384 L 160 384 L 321 384 Q 320 376 320 368 Q 320 352 323 336 L 180 336 L 171 288 L 339 288 Q 353 261 375 240 L 162 240 L 131 80 L 511 80 L 475 193 Q 485 192 496 192 Q 511 192 525 194 L 561 80 L 576 32 L 526 32 L 122 32 L 120 20 L 116 0 L 96 0 L 24 0 L 24 0 Z M 176 512 Q 203 511 218 488 Q 230 464 218 440 Q 203 417 176 416 Q 149 417 134 440 Q 122 464 134 488 Q 149 511 176 512 L 176 512 Z M 496 224 Q 457 224 424 243 L 424 243 Q 391 262 371 296 Q 352 330 352 368 Q 352 406 371 440 Q 391 474 424 493 Q 457 512 496 512 Q 535 512 568 493 Q 601 474 621 440 Q 640 406 640 368 Q 640 330 621 296 Q 601 262 568 243 Q 535 224 496 224 L 496 224 Z M 417 360 L 429 349 L 485 293 L 496 281 L 507 293 L 563 349 L 575 360 L 552 383 L 541 371 L 512 343 L 512 432 L 512 448 L 480 448 L 480 432 L 480 343 L 451 371 L 440 383 L 417 360 L 417 360 Z"/>
</svg>
