<svg viewBox="0 0 576 512">
  <path
    d="M 320 0 L 320 64 L 256 64 L 256 0 L 320 0 L 320 0 Z M 128 64 L 128 128 L 64 128 L 64 64 L 128 64 L 128 64 Z M 512 64 L 512 128 L 448 128 L 448 64 L 512 64 L 512 64 Z M 512 256 L 576 256 L 576 320 L 512 320 L 512 256 L 512 256 Z M 512 448 L 512 512 L 448 512 L 448 448 L 512 448 L 512 448 Z M 64 448 L 128 448 L 128 512 L 64 512 L 64 448 L 64 448 Z M 0 256 L 64 256 L 64 320 L 0 320 L 0 256 L 0 256 Z M 401 401 Q 357 444 299 447 L 299 447 Q 242 451 193 417 L 305 305 L 322 288 L 288 254 L 271 271 L 159 383 Q 124 334 128 277 Q 132 219 175 175 Q 224 128 288 128 Q 352 128 401 175 Q 448 224 448 288 Q 448 352 401 401 L 401 401 Z"
  />
</svg>