<svg xmlns="http://www.w3.org/2000/svg" viewBox="0 0 512 512">
  <path d="M 227.55555555555554 28.444444444444443 L 497.77777777777777 28.444444444444443 L 227.55555555555554 28.444444444444443 L 512 28.444444444444443 L 512 42.666666666666664 L 512 42.666666666666664 L 512 298.6666666666667 L 512 298.6666666666667 L 512 312.8888888888889 L 512 312.8888888888889 L 497.77777777777777 312.8888888888889 L 483.55555555555554 312.8888888888889 L 483.55555555555554 369.77777777777777 L 483.55555555555554 369.77777777777777 L 497.77777777777777 369.77777777777777 L 512 369.77777777777777 L 512 398.22222222222223 L 512 398.22222222222223 L 497.77777777777777 398.22222222222223 L 227.55555555555554 398.22222222222223 Q 203.55555555555554 397.3333333333333 187.55555555555554 381.3333333333333 Q 171.55555555555554 365.3333333333333 170.66666666666666 341.3333333333333 L 170.66666666666666 85.33333333333333 L 170.66666666666666 85.33333333333333 Q 171.55555555555554 61.333333333333336 187.55555555555554 45.333333333333336 Q 203.55555555555554 29.333333333333332 227.55555555555554 28.444444444444443 L 227.55555555555554 28.444444444444443 Z M 199.11111111111111 85.33333333333333 L 199.11111111111111 292.44444444444446 L 199.11111111111111 85.33333333333333 L 199.11111111111111 292.44444444444446 Q 211.55555555555554 284.44444444444446 227.55555555555554 284.44444444444446 L 469.3333333333333 284.44444444444446 L 483.55555555555554 284.44444444444446 L 483.55555555555554 56.888888888888886 L 483.55555555555554 56.888888888888886 L 227.55555555555554 56.888888888888886 L 227.55555555555554 56.888888888888886 Q 215.11111111111111 56.888888888888886 207.11111111111111 64.88888888888889 Q 199.11111111111111 72.88888888888889 199.11111111111111 85.33333333333333 L 199.11111111111111 85.33333333333333 Z M 227.55555555555554 369.77777777777777 L 455.1111111111111 369.77777777777777 L 227.55555555555554 369.77777777777777 L 455.1111111111111 369.77777777777777 L 455.1111111111111 312.8888888888889 L 455.1111111111111 312.8888888888889 L 227.55555555555554 312.8888888888889 L 227.55555555555554 312.8888888888889 Q 215.11111111111111 312.8888888888889 207.11111111111111 320.8888888888889 Q 199.11111111111111 328.8888888888889 199.11111111111111 341.3333333333333 Q 199.11111111111111 353.77777777777777 207.11111111111111 361.77777777777777 Q 215.11111111111111 369.77777777777777 227.55555555555554 369.77777777777777 L 227.55555555555554 369.77777777777777 Z M 56.888888888888886 113.77777777777777 L 142.22222222222223 113.77777777777777 L 56.888888888888886 113.77777777777777 L 142.22222222222223 113.77777777777777 L 142.22222222222223 142.22222222222223 L 142.22222222222223 142.22222222222223 L 56.888888888888886 142.22222222222223 L 56.888888888888886 142.22222222222223 Q 44.44444444444444 142.22222222222223 36.44444444444444 150.22222222222223 Q 28.444444444444443 158.22222222222223 28.444444444444443 170.66666666666666 L 28.444444444444443 377.77777777777777 L 28.444444444444443 377.77777777777777 Q 40.888888888888886 369.77777777777777 56.888888888888886 369.77777777777777 L 147.55555555555554 369.77777777777777 L 147.55555555555554 369.77777777777777 Q 152.88888888888889 385.77777777777777 164.44444444444446 398.22222222222223 L 56.888888888888886 398.22222222222223 L 56.888888888888886 398.22222222222223 Q 44.44444444444444 398.22222222222223 36.44444444444444 406.22222222222223 Q 28.444444444444443 414.22222222222223 28.444444444444443 426.6666666666667 Q 28.444444444444443 439.1111111111111 36.44444444444444 447.1111111111111 Q 44.44444444444444 455.1111111111111 56.888888888888886 455.1111111111111 L 284.44444444444446 455.1111111111111 L 284.44444444444446 455.1111111111111 L 284.44444444444446 426.6666666666667 L 284.44444444444446 426.6666666666667 L 312.8888888888889 426.6666666666667 L 312.8888888888889 426.6666666666667 L 312.8888888888889 455.1111111111111 L 312.8888888888889 455.1111111111111 L 327.1111111111111 455.1111111111111 L 341.3333333333333 455.1111111111111 L 341.3333333333333 483.55555555555554 L 341.3333333333333 483.55555555555554 L 327.1111111111111 483.55555555555554 L 56.888888888888886 483.55555555555554 Q 32.888888888888886 482.6666666666667 16.88888888888889 466.6666666666667 Q 0.8888888888888888 450.6666666666667 0 426.6666666666667 L 0 170.66666666666666 L 0 170.66666666666666 Q 0.8888888888888888 146.66666666666666 16.88888888888889 130.66666666666666 Q 32.888888888888886 114.66666666666667 56.888888888888886 113.77777777777777 L 56.888888888888886 113.77777777777777 Z" />
</svg>