<svg xmlns="http://www.w3.org/2000/svg" viewBox="0 0 512 512">
  <path d="M 396.57142857142856 0 Q 362.2857142857143 0 334.85714285714283 18.285714285714285 L 334.85714285714283 18.285714285714285 L 334.85714285714283 18.285714285714285 Q 308.57142857142856 36.57142857142857 294.85714285714283 67.42857142857143 L 232 219.42857142857142 L 232 219.42857142857142 L 73.14285714285714 219.42857142857142 L 73.14285714285714 219.42857142857142 L 73.14285714285714 292.57142857142856 L 73.14285714285714 292.57142857142856 L 201.14285714285714 292.57142857142856 L 201.14285714285714 292.57142857142856 L 149.71428571428572 416 L 149.71428571428572 416 Q 139.42857142857142 437.7142857142857 115.42857142857143 438.85714285714283 L 36.57142857142857 438.85714285714283 L 36.57142857142857 438.85714285714283 L 36.57142857142857 512 L 36.57142857142857 512 L 115.42857142857143 512 L 115.42857142857143 512 Q 149.71428571428572 512 177.14285714285714 493.7142857142857 Q 203.42857142857142 475.42857142857144 217.14285714285714 444.57142857142856 L 280 292.57142857142856 L 280 292.57142857142856 L 438.85714285714283 292.57142857142856 L 438.85714285714283 292.57142857142856 L 438.85714285714283 219.42857142857142 L 438.85714285714283 219.42857142857142 L 310.85714285714283 219.42857142857142 L 310.85714285714283 219.42857142857142 L 362.2857142857143 96 L 362.2857142857143 96 Q 372.57142857142856 74.28571428571429 396.57142857142856 73.14285714285714 L 475.42857142857144 73.14285714285714 L 475.42857142857144 73.14285714285714 L 475.42857142857144 0 L 475.42857142857144 0 L 396.57142857142856 0 L 396.57142857142856 0 Z" />
</svg>