<svg xmlns="http://www.w3.org/2000/svg" viewBox="0 0 512 512">
  <path d="M 512 0 L 0 0 L 512 0 L 0 0 L 0 512 L 0 512 L 512 512 L 512 512 L 512 0 L 512 0 Z M 402.2857142857143 256 L 310.85714285714283 256 L 402.2857142857143 256 L 310.85714285714283 256 L 310.85714285714283 402.2857142857143 L 310.85714285714283 402.2857142857143 L 201.14285714285714 402.2857142857143 L 201.14285714285714 402.2857142857143 L 201.14285714285714 256 L 201.14285714285714 256 L 109.71428571428571 256 L 109.71428571428571 256 L 109.71428571428571 219.42857142857142 L 109.71428571428571 219.42857142857142 L 256 73.14285714285714 L 256 73.14285714285714 L 402.2857142857143 219.42857142857142 L 402.2857142857143 219.42857142857142 L 402.2857142857143 256 L 402.2857142857143 256 Z" />
</svg>