<svg viewBox="0 0 640 448">
  <path
    d="M 176 96 Q 177 76 190 62 L 190 62 Q 204 49 224 48 Q 244 49 258 62 Q 271 76 272 96 L 272 104 Q 272 145 265 186 L 113 233 L 96 238 L 96 256 L 96 424 L 96 448 L 120 448 L 192 448 L 206 448 L 213 436 L 242 388 Q 287 313 306 228 L 307 223 L 417 189 L 393 256 L 382 288 L 416 288 L 552 288 L 576 288 L 576 240 L 552 240 L 450 240 L 479 160 L 495 115 L 449 129 L 316 170 Q 320 137 320 104 L 320 96 Q 319 55 292 28 Q 265 1 224 0 Q 183 1 156 28 Q 129 55 128 96 L 128 136 L 128 160 L 176 160 L 176 136 L 176 96 L 176 96 Z M 144 274 L 253 240 Q 235 305 201 363 L 178 400 L 144 400 L 144 274 L 144 274 Z M 64 336 L 24 336 L 0 336 L 0 384 L 24 384 L 64 384 L 64 336 L 64 336 Z M 281 384 L 616 384 L 640 384 L 640 336 L 616 336 L 304 336 Q 294 361 281 384 L 281 384 Z"
  />
</svg>