<svg xmlns="http://www.w3.org/2000/svg" viewBox="0 0 512 512">
  <path d="M 362.6666666666667 135.11111111111111 Q 360.8888888888889 168 335.1111111111111 208.88888888888889 L 335.1111111111111 208.88888888888889 L 335.1111111111111 208.88888888888889 Q 309.3333333333333 249.77777777777777 283.55555555555554 280.8888888888889 L 283.55555555555554 280.8888888888889 L 283.55555555555554 280.8888888888889 Q 257.77777777777777 311.1111111111111 256 312.8888888888889 Q 254.22222222222223 311.1111111111111 228.44444444444446 280.8888888888889 Q 202.66666666666666 249.77777777777777 176.88888888888889 208.88888888888889 Q 151.11111111111111 168 149.33333333333334 135.11111111111111 Q 150.22222222222223 89.77777777777777 180.44444444444446 59.55555555555556 Q 210.66666666666666 29.333333333333332 256 28.444444444444443 Q 301.3333333333333 29.333333333333332 331.55555555555554 59.55555555555556 Q 361.77777777777777 89.77777777777777 362.6666666666667 135.11111111111111 L 362.6666666666667 135.11111111111111 Z M 142.22222222222223 207.11111111111111 L 142.22222222222223 426.6666666666667 L 142.22222222222223 207.11111111111111 L 142.22222222222223 426.6666666666667 L 0 483.55555555555554 L 0 483.55555555555554 L 0 199.11111111111111 L 0 199.11111111111111 L 118.22222222222223 152 L 118.22222222222223 152 Q 126.22222222222223 177.77777777777777 142.22222222222223 207.11111111111111 L 142.22222222222223 207.11111111111111 Z M 341.3333333333333 252.44444444444446 L 341.3333333333333 483.55555555555554 L 341.3333333333333 252.44444444444446 L 341.3333333333333 483.55555555555554 L 170.66666666666666 426.6666666666667 L 170.66666666666666 426.6666666666667 L 170.66666666666666 252.44444444444446 L 170.66666666666666 252.44444444444446 Q 201.77777777777777 297.77777777777777 228.44444444444446 328 Q 254.22222222222223 359.1111111111111 256 360 Q 256 360 256 360 Q 257.77777777777777 359.1111111111111 283.55555555555554 328 Q 310.22222222222223 297.77777777777777 341.3333333333333 252.44444444444446 L 341.3333333333333 252.44444444444446 Z M 369.77777777777777 207.11111111111111 Q 372.44444444444446 201.77777777777777 375.1111111111111 197.33333333333334 L 512 142.22222222222223 L 512 142.22222222222223 L 512 426.6666666666667 L 512 426.6666666666667 L 369.77777777777777 483.55555555555554 L 369.77777777777777 483.55555555555554 L 369.77777777777777 207.11111111111111 L 369.77777777777777 207.11111111111111 Z M 256 163.55555555555554 Q 276.44444444444446 162.66666666666666 287.1111111111111 145.77777777777777 Q 296 128 287.1111111111111 110.22222222222223 Q 276.44444444444446 93.33333333333333 256 92.44444444444444 Q 235.55555555555554 93.33333333333333 224.88888888888889 110.22222222222223 Q 216 128 224.88888888888889 145.77777777777777 Q 235.55555555555554 162.66666666666666 256 163.55555555555554 L 256 163.55555555555554 Z" />
</svg>