<svg xmlns="http://www.w3.org/2000/svg" viewBox="0 0 512 512">
  <path d="M 267.0215 12.023483 L 256 0 L 267.0215 12.023483 L 256 0 L 244.97847 12.023483 L 244.97847 12.023483 L 188.86888 68.13307 L 188.86888 68.13307 L 176.8454 79.1546 L 176.8454 79.1546 L 199.89041 102.19961 L 199.89041 102.19961 L 210.91194 90.176125 L 210.91194 90.176125 L 239.96869 62.12133 L 239.96869 62.12133 L 239.96869 127.248535 L 239.96869 127.248535 L 191.87476 127.248535 L 175.84344 127.248535 L 175.84344 159.31116 L 175.84344 159.31116 L 191.87476 159.31116 L 239.96869 159.31116 L 239.96869 192.37573 L 239.96869 192.37573 Q 177.84735 199.38943 137.76907 243.47554 Q 96.68884 287.56165 95.68689 351.6869 Q 97.6908 419.81995 142.77887 464.90802 Q 187.86693 509.9961 256 512 Q 324.1331 509.9961 369.22113 464.90802 Q 414.3092 419.81995 416.3131 351.6869 Q 415.31116 287.56165 374.23093 243.47554 Q 334.15265 199.38943 272.0313 192.37573 L 272.0313 159.31116 L 272.0313 159.31116 L 320.12524 159.31116 L 336.15656 159.31116 L 336.15656 127.248535 L 336.15656 127.248535 L 320.12524 127.248535 L 272.0313 127.248535 L 272.0313 62.12133 L 272.0313 62.12133 L 301.08807 90.176125 L 301.08807 90.176125 L 312.1096 102.19961 L 312.1096 102.19961 L 335.1546 79.1546 L 335.1546 79.1546 L 323.1311 68.13307 L 323.1311 68.13307 L 267.0215 12.023483 L 267.0215 12.023483 Z M 256 479.93738 Q 220.9315 479.93738 191.87476 462.9041 L 191.87476 462.9041 L 191.87476 462.9041 Q 162.81801 445.87085 144.78278 415.81213 Q 127.74951 385.75342 127.74951 351.6869 Q 127.74951 317.62036 144.78278 287.56165 Q 162.81801 257.50293 191.87476 240.46967 Q 220.9315 223.4364 256 223.4364 Q 291.06848 223.4364 320.12524 240.46967 Q 349.182 257.50293 367.21722 287.56165 Q 384.2505 317.62036 384.2505 351.6869 Q 384.2505 385.75342 367.21722 415.81213 Q 349.182 445.87085 320.12524 462.9041 Q 291.06848 479.93738 256 479.93738 L 256 479.93738 Z" />
</svg>