<svg xmlns="http://www.w3.org/2000/svg" viewBox="0 0 512 512">
  <path d="M 34 306 L 0 272 L 34 306 L 0 272 L 34 238 L 34 238 L 127 145 L 127 145 L 39 57 L 39 57 L 22 40 L 22 40 L 56 6 L 56 6 L 73 23 L 73 23 L 161 111 L 161 111 L 238 34 L 238 34 L 272 0 L 272 0 L 306 34 L 306 34 L 478 206 L 478 206 L 512 240 L 512 240 L 478 274 L 478 274 L 274 478 L 274 478 L 240 512 L 240 512 L 206 478 L 206 478 L 34 306 L 34 306 Z M 161 179 L 68 272 L 161 179 L 68 272 L 84 288 L 84 288 L 396 288 L 396 288 L 444 240 L 444 240 L 272 68 L 272 68 L 195 145 L 195 145 L 225 175 L 225 175 L 242 192 L 242 192 L 208 226 L 208 226 L 191 209 L 191 209 L 161 179 L 161 179 Z" />
</svg>