<svg viewBox="0 0 484 512">
  <path
    d="M 242 0 L 254 5 L 461 85 L 480 92 L 482 113 Q 484 151 476 204 Q 468 257 444 314 Q 420 371 374 422 Q 328 473 255 506 L 242 512 L 229 507 Q 156 474 110 422 Q 64 371 40 314 Q 16 257 8 204 Q 0 151 3 113 L 4 93 L 23 85 L 230 5 L 242 0 L 242 0 Z M 218 368 L 266 368 L 266 344 L 266 280 L 330 280 L 354 280 L 354 232 L 330 232 L 266 232 L 266 168 L 266 144 L 218 144 L 218 168 L 218 232 L 154 232 L 130 232 L 130 280 L 154 280 L 218 280 L 218 344 L 218 368 L 218 368 Z"
  />
</svg>