<svg xmlns="http://www.w3.org/2000/svg" viewBox="0 0 512 512">
  <path d="M 352 51.2 L 305.37142857142857 51.2 L 352 51.2 L 305.37142857142857 51.2 L 326.4 109.71428571428571 L 326.4 109.71428571428571 L 185.6 109.71428571428571 L 185.6 109.71428571428571 L 206.62857142857143 51.2 L 206.62857142857143 51.2 L 160 51.2 L 160 51.2 L 138.97142857142856 109.71428571428571 L 138.97142857142856 109.71428571428571 L 95.08571428571429 109.71428571428571 L 73.14285714285714 109.71428571428571 L 73.14285714285714 153.6 L 73.14285714285714 153.6 L 95.08571428571429 153.6 L 123.42857142857143 153.6 L 96.91428571428571 226.74285714285713 L 96.91428571428571 226.74285714285713 L 58.51428571428571 226.74285714285713 L 36.57142857142857 226.74285714285713 L 36.57142857142857 270.62857142857143 L 36.57142857142857 270.62857142857143 L 58.51428571428571 270.62857142857143 L 81.37142857142857 270.62857142857143 L 54.857142857142854 343.77142857142854 L 54.857142857142854 343.77142857142854 L 21.942857142857143 343.77142857142854 L 0 343.77142857142854 L 0 387.65714285714284 L 0 387.65714285714284 L 21.942857142857143 387.65714285714284 L 39.31428571428572 387.65714285714284 L 12.8 460.8 L 12.8 460.8 L 59.42857142857143 460.8 L 59.42857142857143 460.8 L 85.94285714285714 387.65714285714284 L 85.94285714285714 387.65714285714284 L 426.0571428571429 387.65714285714284 L 426.0571428571429 387.65714285714284 L 452.57142857142856 460.8 L 452.57142857142856 460.8 L 499.2 460.8 L 499.2 460.8 L 472.6857142857143 387.65714285714284 L 472.6857142857143 387.65714285714284 L 490.0571428571429 387.65714285714284 L 512 387.65714285714284 L 512 343.77142857142854 L 512 343.77142857142854 L 490.0571428571429 343.77142857142854 L 457.14285714285717 343.77142857142854 L 430.62857142857143 270.62857142857143 L 430.62857142857143 270.62857142857143 L 453.48571428571427 270.62857142857143 L 475.42857142857144 270.62857142857143 L 475.42857142857144 226.74285714285713 L 475.42857142857144 226.74285714285713 L 453.48571428571427 226.74285714285713 L 415.0857142857143 226.74285714285713 L 388.57142857142856 153.6 L 388.57142857142856 153.6 L 416.9142857142857 153.6 L 438.85714285714283 153.6 L 438.85714285714283 109.71428571428571 L 438.85714285714283 109.71428571428571 L 416.9142857142857 109.71428571428571 L 373.0285714285714 109.71428571428571 L 352 51.2 L 352 51.2 Z M 341.9428571428571 153.6 L 368.45714285714286 226.74285714285713 L 341.9428571428571 153.6 L 368.45714285714286 226.74285714285713 L 143.54285714285714 226.74285714285713 L 143.54285714285714 226.74285714285713 L 170.05714285714285 153.6 L 170.05714285714285 153.6 L 341.9428571428571 153.6 L 341.9428571428571 153.6 Z M 384 270.62857142857143 L 410.51428571428573 343.77142857142854 L 384 270.62857142857143 L 410.51428571428573 343.77142857142854 L 101.48571428571428 343.77142857142854 L 101.48571428571428 343.77142857142854 L 128 270.62857142857143 L 128 270.62857142857143 L 384 270.62857142857143 L 384 270.62857142857143 Z" />
</svg>