<svg xmlns="http://www.w3.org/2000/svg" viewBox="0 0 512 512">
  <path d="M 284.44444444444446 28.444444444444443 L 227.55555555555554 28.444444444444443 L 284.44444444444446 28.444444444444443 L 227.55555555555554 28.444444444444443 L 227.55555555555554 85.33333333333333 L 227.55555555555554 85.33333333333333 L 284.44444444444446 85.33333333333333 L 284.44444444444446 85.33333333333333 L 284.44444444444446 28.444444444444443 L 284.44444444444446 28.444444444444443 Z M 113.77777777777777 85.33333333333333 L 56.888888888888886 85.33333333333333 L 113.77777777777777 85.33333333333333 L 56.888888888888886 85.33333333333333 L 56.888888888888886 142.22222222222223 L 56.888888888888886 142.22222222222223 L 113.77777777777777 142.22222222222223 L 113.77777777777777 142.22222222222223 L 113.77777777777777 85.33333333333333 L 113.77777777777777 85.33333333333333 Z M 455.1111111111111 85.33333333333333 L 398.22222222222223 85.33333333333333 L 455.1111111111111 85.33333333333333 L 398.22222222222223 85.33333333333333 L 398.22222222222223 142.22222222222223 L 398.22222222222223 142.22222222222223 L 455.1111111111111 142.22222222222223 L 455.1111111111111 142.22222222222223 L 455.1111111111111 85.33333333333333 L 455.1111111111111 85.33333333333333 Z M 455.1111111111111 256 L 455.1111111111111 312.8888888888889 L 455.1111111111111 256 L 455.1111111111111 312.8888888888889 L 512 312.8888888888889 L 512 312.8888888888889 L 512 256 L 512 256 L 455.1111111111111 256 L 455.1111111111111 256 Z M 455.1111111111111 426.6666666666667 L 398.22222222222223 426.6666666666667 L 455.1111111111111 426.6666666666667 L 398.22222222222223 426.6666666666667 L 398.22222222222223 483.55555555555554 L 398.22222222222223 483.55555555555554 L 455.1111111111111 483.55555555555554 L 455.1111111111111 483.55555555555554 L 455.1111111111111 426.6666666666667 L 455.1111111111111 426.6666666666667 Z M 56.888888888888886 426.6666666666667 L 56.888888888888886 483.55555555555554 L 56.888888888888886 426.6666666666667 L 56.888888888888886 483.55555555555554 L 113.77777777777777 483.55555555555554 L 113.77777777777777 483.55555555555554 L 113.77777777777777 426.6666666666667 L 113.77777777777777 426.6666666666667 L 56.888888888888886 426.6666666666667 L 56.888888888888886 426.6666666666667 Z M 0 256 L 0 312.8888888888889 L 0 256 L 0 312.8888888888889 L 56.888888888888886 312.8888888888889 L 56.888888888888886 312.8888888888889 L 56.888888888888886 256 L 56.888888888888886 256 L 0 256 L 0 256 Z M 185.77777777777777 214.22222222222223 Q 211.55555555555554 188.44444444444446 246.22222222222223 185.77777777777777 L 246.22222222222223 185.77777777777777 L 246.22222222222223 185.77777777777777 Q 280 182.22222222222223 309.3333333333333 200.88888888888889 L 240.88888888888889 269.3333333333333 L 240.88888888888889 269.3333333333333 L 225.77777777777777 284.44444444444446 L 225.77777777777777 284.44444444444446 L 256 314.6666666666667 L 256 314.6666666666667 L 271.1111111111111 299.55555555555554 L 271.1111111111111 299.55555555555554 L 339.55555555555554 231.11111111111111 L 339.55555555555554 231.11111111111111 Q 358.22222222222223 260.44444444444446 354.6666666666667 294.22222222222223 Q 352 328.8888888888889 326.22222222222223 354.6666666666667 Q 296 384 256 384 Q 216 384 185.77777777777777 354.6666666666667 Q 156.44444444444446 324.44444444444446 156.44444444444446 284.44444444444446 Q 156.44444444444446 244.44444444444446 185.77777777777777 214.22222222222223 L 185.77777777777777 214.22222222222223 Z M 356.44444444444446 184 Q 328.8888888888889 155.55555555555554 292.44444444444446 144.88888888888889 L 292.44444444444446 144.88888888888889 L 292.44444444444446 144.88888888888889 Q 256 134.22222222222223 217.77777777777777 144 Q 179.55555555555554 154.66666666666666 152.88888888888889 181.33333333333334 Q 126.22222222222223 208 115.55555555555556 246.22222222222223 Q 105.77777777777777 284.44444444444446 116.44444444444444 320.8888888888889 Q 127.11111111111111 357.3333333333333 155.55555555555554 384.8888888888889 Q 183.11111111111111 413.3333333333333 219.55555555555554 424 Q 256 434.6666666666667 294.22222222222223 424.8888888888889 Q 332.44444444444446 414.22222222222223 359.1111111111111 387.55555555555554 Q 385.77777777777777 360.8888888888889 396.44444444444446 322.6666666666667 Q 406.22222222222223 284.44444444444446 395.55555555555554 248 Q 384.8888888888889 211.55555555555554 356.44444444444446 184 L 356.44444444444446 184 Z" />
</svg>