<svg xmlns="http://www.w3.org/2000/svg" viewBox="0 0 512 512">
  <path d="M 416 160 L 416 480 L 416 160 L 416 480 L 96 480 L 96 480 L 96 160 L 96 160 L 416 160 L 416 160 Z M 416 128 L 96 128 L 416 128 L 96 128 L 96 32 L 96 32 L 416 32 L 416 32 L 416 128 L 416 128 Z M 448 128 L 448 32 L 448 128 L 448 32 L 448 0 L 448 0 L 416 0 L 64 0 L 64 32 L 64 32 L 64 128 L 64 128 L 64 144 L 64 144 L 64 160 L 64 160 L 64 480 L 64 480 L 64 512 L 64 512 L 96 512 L 448 512 L 448 480 L 448 480 L 448 160 L 448 160 L 448 144 L 448 144 L 448 128 L 448 128 Z M 136 224 Q 138 246 160 248 Q 182 246 184 224 Q 182 202 160 200 Q 138 202 136 224 L 136 224 Z M 160 296 Q 138 298 136 320 Q 138 342 160 344 Q 182 342 184 320 Q 182 298 160 296 L 160 296 Z M 232 224 Q 234 246 256 248 Q 278 246 280 224 Q 278 202 256 200 Q 234 202 232 224 L 232 224 Z M 256 296 Q 234 298 232 320 Q 234 342 256 344 Q 278 342 280 320 Q 278 298 256 296 L 256 296 Z M 328 224 Q 330 246 352 248 Q 374 246 376 224 Q 374 202 352 200 Q 330 202 328 224 L 328 224 Z M 352 296 Q 330 298 328 320 Q 330 342 352 344 Q 374 342 376 320 Q 374 298 352 296 L 352 296 Z M 328 416 Q 330 438 352 440 Q 374 438 376 416 Q 374 394 352 392 Q 330 394 328 416 L 328 416 Z M 272 400 L 144 400 L 272 400 L 128 400 L 128 432 L 128 432 L 144 432 L 288 432 L 288 400 L 288 400 L 272 400 L 272 400 Z" />
</svg>