<svg xmlns="http://www.w3.org/2000/svg" viewBox="0 0 512 512">
  <path d="M 64.37721021611002 72.42436149312377 L 64.37721021611002 40.23575638506876 L 64.37721021611002 72.42436149312377 L 64.37721021611002 40.23575638506876 L 0 40.23575638506876 L 0 40.23575638506876 L 0 72.42436149312377 L 0 72.42436149312377 L 0 297.74459724950884 L 0 297.74459724950884 L 0 329.93320235756386 L 0 329.93320235756386 L 32.18860510805501 329.93320235756386 L 389.2809430255403 329.93320235756386 L 314.8447937131631 403.36345776031436 L 314.8447937131631 403.36345776031436 L 292.71512770137525 426.4990176817289 L 292.71512770137525 426.4990176817289 L 337.9803536345776 471.7642436149312 L 337.9803536345776 471.7642436149312 L 361.11591355599217 449.63457760314344 L 361.11591355599217 449.63457760314344 L 489.87033398821217 320.8801571709234 L 489.87033398821217 320.8801571709234 L 512 297.74459724950884 L 512 297.74459724950884 L 489.87033398821217 274.6090373280943 L 489.87033398821217 274.6090373280943 L 361.11591355599217 145.85461689587427 L 361.11591355599217 145.85461689587427 L 337.9803536345776 123.72495088408644 L 337.9803536345776 123.72495088408644 L 292.71512770137525 168.9901768172888 L 292.71512770137525 168.9901768172888 L 314.8447937131631 192.12573673870335 L 314.8447937131631 192.12573673870335 L 389.2809430255403 265.5559921414538 L 389.2809430255403 265.5559921414538 L 64.37721021611002 265.5559921414538 L 64.37721021611002 265.5559921414538 L 64.37721021611002 72.42436149312377 L 64.37721021611002 72.42436149312377 Z" />
</svg>