<svg xmlns="http://www.w3.org/2000/svg" viewBox="0 0 512 512">
  <path d="M 512 0 L 0 0 L 512 0 L 0 0 L 0 512 L 0 512 L 329.14285714285717 512 L 329.14285714285717 512 L 329.14285714285717 365.7142857142857 L 329.14285714285717 365.7142857142857 L 329.14285714285717 329.14285714285717 L 329.14285714285717 329.14285714285717 L 365.7142857142857 329.14285714285717 L 512 329.14285714285717 L 512 0 L 512 0 Z M 512 365.7142857142857 L 460.57142857142856 365.7142857142857 L 512 365.7142857142857 L 365.7142857142857 365.7142857142857 L 365.7142857142857 402.2857142857143 L 365.7142857142857 402.2857142857143 L 365.7142857142857 460.57142857142856 L 365.7142857142857 460.57142857142856 L 365.7142857142857 512 L 365.7142857142857 512 L 402.2857142857143 475.42857142857144 L 402.2857142857143 475.42857142857144 L 475.42857142857144 402.2857142857143 L 475.42857142857144 402.2857142857143 L 512 365.7142857142857 L 512 365.7142857142857 Z" />
</svg>