<svg xmlns="http://www.w3.org/2000/svg" viewBox="0 0 512 512">
  <path d="M 51.2 76.8 L 51.2 51.2 L 51.2 76.8 L 51.2 51.2 L 89.6 51.2 L 89.6 51.2 L 89.6 76.8 L 89.6 76.8 L 371.2 76.8 L 371.2 76.8 L 371.2 51.2 L 371.2 51.2 L 409.6 51.2 L 409.6 51.2 L 409.6 76.8 L 409.6 76.8 L 422.4 76.8 L 460.8 76.8 L 460.8 115.2 L 460.8 115.2 L 460.8 204.8 L 460.8 204.8 L 422.4 204.8 L 422.4 204.8 L 422.4 115.2 L 422.4 115.2 L 38.4 115.2 L 38.4 115.2 L 38.4 345.6 L 38.4 345.6 L 287.2 345.6 L 287.2 345.6 Q 294.4 366.4 307.2 384 L 89.6 384 L 89.6 384 L 89.6 460.8 L 89.6 460.8 L 51.2 460.8 L 51.2 460.8 L 51.2 384 L 51.2 384 L 38.4 384 L 0 384 L 0 345.6 L 0 345.6 L 0 115.2 L 0 115.2 L 0 76.8 L 0 76.8 L 38.4 76.8 L 51.2 76.8 Z M 341.6 230.4 L 371.2 230.4 L 341.6 230.4 L 371.2 230.4 L 371.2 307.2 L 371.2 307.2 L 409.6 345.6 L 409.6 345.6 L 448 307.2 L 448 307.2 L 448 230.4 L 448 230.4 L 477.6 230.4 L 477.6 230.4 Q 510.4 260 512 307.2 Q 510.4 357.6 473.6 387.2 L 473.6 460.8 L 473.6 460.8 L 345.6 460.8 L 345.6 460.8 L 345.6 387.2 L 345.6 387.2 Q 308.8 357.6 307.2 307.2 Q 308.8 260 341.6 230.4 L 341.6 230.4 Z" />
</svg>