<svg xmlns="http://www.w3.org/2000/svg" viewBox="0 0 512 512">
  <path d="M 236.67924528301887 58.36477987421384 L 227.8238993710692 51.119496855345915 L 236.67924528301887 58.36477987421384 L 227.8238993710692 51.119496855345915 L 218.9685534591195 58.36477987421384 L 218.9685534591195 58.36477987421384 L 0 251.57232704402514 L 0 251.57232704402514 L 17.71069182389937 270.8930817610063 L 17.71069182389937 270.8930817610063 L 47.496855345911946 244.32704402515722 L 47.496855345911946 244.32704402515722 L 47.496855345911946 448 L 47.496855345911946 448 L 47.496855345911946 460.8805031446541 L 47.496855345911946 460.8805031446541 L 60.37735849056604 460.8805031446541 L 297.0566037735849 460.8805031446541 Q 280.1509433962264 449.61006289308176 266.4654088050315 434.314465408805 L 266.4654088050315 435.1194968553459 L 266.4654088050315 435.1194968553459 L 189.1823899371069 435.1194968553459 L 189.1823899371069 435.1194968553459 L 189.1823899371069 306.314465408805 L 189.1823899371069 306.314465408805 L 230.23899371069183 306.314465408805 L 230.23899371069183 306.314465408805 Q 232.65408805031447 292.62893081761007 237.48427672955975 280.55345911949684 L 176.30188679245282 280.55345911949684 L 163.42138364779873 280.55345911949684 L 163.42138364779873 293.4339622641509 L 163.42138364779873 293.4339622641509 L 163.42138364779873 435.1194968553459 L 163.42138364779873 435.1194968553459 L 73.25786163522012 435.1194968553459 L 73.25786163522012 435.1194968553459 L 73.25786163522012 221.78616352201257 L 73.25786163522012 221.78616352201257 L 227.8238993710692 84.93081761006289 L 227.8238993710692 84.93081761006289 L 323.62264150943395 169.45911949685535 L 323.62264150943395 169.45911949685535 Q 334.0880503144654 161.40880503144655 342.9433962264151 155.77358490566039 L 345.35849056603774 154.16352201257862 L 345.35849056603774 154.16352201257862 L 236.67924528301887 58.36477987421384 L 236.67924528301887 58.36477987421384 Z M 389.6352201257862 210.51572327044025 L 356.62893081761007 177.50943396226415 L 389.6352201257862 210.51572327044025 L 356.62893081761007 177.50943396226415 Q 338.1132075471698 188.77987421383648 314.7672955974843 211.32075471698113 Q 290.6163522012579 233.86163522012578 272.9056603773585 264.45283018867923 Q 254.38993710691824 295.8490566037736 253.58490566037736 332.07547169811323 Q 255.19496855345912 384.4025157232704 289.0062893081761 420.62893081761007 Q 322.8176100628931 456.8553459119497 375.1446540880503 460.8805031446541 Q 378.3647798742138 460.8805031446541 382.38993710691824 460.8805031446541 Q 386.41509433962267 460.8805031446541 389.6352201257862 460.8805031446541 Q 441.9622641509434 456.8553459119497 475.77358490566036 420.62893081761007 Q 509.58490566037733 384.4025157232704 511.1949685534591 332.07547169811323 Q 512 314.3647798742138 495.8993710691824 278.9433962264151 Q 478.9937106918239 242.71698113207546 433.9119496855346 203.27044025157232 L 426.6666666666667 210.51572327044025 L 426.6666666666667 210.51572327044025 L 408.1509433962264 229.0314465408805 L 408.1509433962264 229.0314465408805 L 389.6352201257862 210.51572327044025 L 389.6352201257862 210.51572327044025 Z M 382.38993710691824 435.1194968553459 Q 379.1698113207547 435.1194968553459 376.75471698113205 435.1194968553459 Q 355.82389937106916 432.70440251572325 343.748427672956 419.0188679245283 Q 330.8679245283019 406.1383647798742 330.8679245283019 389.2327044025157 Q 332.47798742138366 361.0566037735849 362.2641509433962 331.2704402515723 Q 373.5345911949685 320.8050314465409 382.38993710691824 312.75471698113205 Q 391.24528301886795 320 402.5157232704403 331.2704402515723 Q 432.3018867924528 361.0566037735849 433.9119496855346 389.2327044025157 Q 433.9119496855346 406.1383647798742 421.0314465408805 419.0188679245283 Q 408.9559748427673 432.70440251572325 388.02515723270443 435.1194968553459 Q 385.61006289308176 435.1194968553459 382.38993710691824 435.1194968553459 L 382.38993710691824 435.1194968553459 Z M 459.67295597484275 389.2327044025157 Q 458.062893081761 360.251572327044 439.54716981132077 335.29559748427675 L 439.54716981132077 335.29559748427675 L 439.54716981132077 335.29559748427675 Q 421.0314465408805 311.1446540880503 402.5157232704403 295.8490566037736 L 402.5157232704403 295.8490566037736 L 402.5157232704403 295.8490566037736 Q 384 281.35849056603774 382.38993710691824 280.55345911949684 Q 380.7798742138365 281.35849056603774 362.2641509433962 295.8490566037736 Q 343.748427672956 311.1446540880503 325.2327044025157 335.29559748427675 Q 306.7169811320755 360.251572327044 305.1069182389937 389.2327044025157 Q 305.1069182389937 395.67295597484275 306.7169811320755 401.30817610062894 Q 280.1509433962264 373.1320754716981 279.34591194968556 332.07547169811323 Q 280.9559748427673 289.40880503144655 312.3522012578616 251.57232704402514 Q 333.2830188679245 226.61635220125785 353.40880503144655 211.32075471698113 L 389.6352201257862 247.54716981132074 L 389.6352201257862 247.54716981132074 L 408.1509433962264 265.25786163522014 L 408.1509433962264 265.25786163522014 L 426.6666666666667 247.54716981132074 L 426.6666666666667 247.54716981132074 L 434.7169811320755 238.69182389937106 L 434.7169811320755 238.69182389937106 Q 465.30817610062894 270.8930817610063 475.77358490566036 296.65408805031444 Q 486.23899371069183 322.41509433962267 485.4339622641509 332.07547169811323 Q 484.62893081761007 373.1320754716981 458.8679245283019 401.30817610062894 Q 459.67295597484275 395.67295597484275 459.67295597484275 389.2327044025157 L 459.67295597484275 389.2327044025157 Z" />
</svg>