<svg xmlns="http://www.w3.org/2000/svg" viewBox="0 0 448 448">
    <path d="M 48 400 L 400 400 L 400 48 L 48 48 L 48 400 L 48 400 Z M 0 48 L 0 0 L 48 0 L 400 0 L 448 0 L 448 48 L 448 400 L 448 448 L 400 448 L 48 448 L 0 448 L 0 400 L 0 48 L 0 48 Z M 96 168 L 96 120 L 120 120 L 152 120 L 152 104 L 152 80 L 200 80 L 200 104 L 200 120 L 328 120 L 352 120 L 352 168 L 328 168 L 200 168 L 200 184 L 200 208 L 152 208 L 152 184 L 152 168 L 120 168 L 96 168 L 96 168 Z M 120 328 L 96 328 L 96 280 L 120 280 L 248 280 L 248 264 L 248 240 L 296 240 L 296 264 L 296 280 L 328 280 L 352 280 L 352 328 L 328 328 L 296 328 L 296 344 L 296 368 L 248 368 L 248 344 L 248 328 L 120 328 L 120 328 Z"/>
</svg>
