<svg xmlns="http://www.w3.org/2000/svg" viewBox="0 0 512 512">
  <path d="M 135.11111111111111 56.888888888888886 L 114.66666666666667 56.888888888888886 L 135.11111111111111 56.888888888888886 L 114.66666666666667 56.888888888888886 L 108.44444444444444 75.55555555555556 L 108.44444444444444 75.55555555555556 L 75.55555555555556 170.66666666666666 L 75.55555555555556 170.66666666666666 L 0 170.66666666666666 L 0 170.66666666666666 L 0 227.55555555555554 L 0 227.55555555555554 L 28.444444444444443 227.55555555555554 L 28.444444444444443 227.55555555555554 L 28.444444444444443 384 L 28.444444444444443 384 L 28.444444444444443 455.1111111111111 L 28.444444444444443 455.1111111111111 L 113.77777777777777 455.1111111111111 L 113.77777777777777 455.1111111111111 L 113.77777777777777 384 L 113.77777777777777 384 L 398.22222222222223 384 L 398.22222222222223 384 L 398.22222222222223 455.1111111111111 L 398.22222222222223 455.1111111111111 L 483.55555555555554 455.1111111111111 L 483.55555555555554 455.1111111111111 L 483.55555555555554 384 L 483.55555555555554 384 L 483.55555555555554 227.55555555555554 L 483.55555555555554 227.55555555555554 L 512 227.55555555555554 L 512 227.55555555555554 L 512 170.66666666666666 L 512 170.66666666666666 L 437.3333333333333 170.66666666666666 L 437.3333333333333 170.66666666666666 L 403.55555555555554 75.55555555555556 L 403.55555555555554 75.55555555555556 L 397.3333333333333 56.888888888888886 L 397.3333333333333 56.888888888888886 L 376.8888888888889 56.888888888888886 L 135.11111111111111 56.888888888888886 Z M 386.6666666666667 199.11111111111111 L 125.33333333333333 199.11111111111111 L 386.6666666666667 199.11111111111111 L 125.33333333333333 199.11111111111111 L 155.55555555555554 113.77777777777777 L 155.55555555555554 113.77777777777777 L 356.44444444444446 113.77777777777777 L 356.44444444444446 113.77777777777777 L 386.6666666666667 199.11111111111111 L 386.6666666666667 199.11111111111111 Z M 85.33333333333333 284.44444444444446 Q 85.33333333333333 272 93.33333333333333 264 L 93.33333333333333 264 L 93.33333333333333 264 Q 101.33333333333333 256 113.77777777777777 256 Q 126.22222222222223 256 134.22222222222223 264 Q 142.22222222222223 272 142.22222222222223 284.44444444444446 Q 142.22222222222223 296.8888888888889 134.22222222222223 304.8888888888889 Q 126.22222222222223 312.8888888888889 113.77777777777777 312.8888888888889 Q 101.33333333333333 312.8888888888889 93.33333333333333 304.8888888888889 Q 85.33333333333333 296.8888888888889 85.33333333333333 284.44444444444446 L 85.33333333333333 284.44444444444446 Z M 398.22222222222223 256 Q 410.6666666666667 256 418.6666666666667 264 L 418.6666666666667 264 L 418.6666666666667 264 Q 426.6666666666667 272 426.6666666666667 284.44444444444446 Q 426.6666666666667 296.8888888888889 418.6666666666667 304.8888888888889 Q 410.6666666666667 312.8888888888889 398.22222222222223 312.8888888888889 Q 385.77777777777777 312.8888888888889 377.77777777777777 304.8888888888889 Q 369.77777777777777 296.8888888888889 369.77777777777777 284.44444444444446 Q 369.77777777777777 272 377.77777777777777 264 Q 385.77777777777777 256 398.22222222222223 256 L 398.22222222222223 256 Z" />
</svg>