<svg xmlns="http://www.w3.org/2000/svg" viewBox="0 0 512 512">
  <path d="M 40.92789968652038 65.00313479623824 L 27.28526645768025 51.36050156739812 L 40.92789968652038 65.00313479623824 L 27.28526645768025 51.36050156739812 L 0 78.64576802507837 L 0 78.64576802507837 L 13.642633228840126 92.2884012539185 L 13.642633228840126 92.2884012539185 L 61.793103448275865 140.43887147335423 L 61.793103448275865 140.43887147335423 L 31.29780564263323 140.43887147335423 L 12.037617554858935 140.43887147335423 L 12.037617554858935 178.95924764890282 L 12.037617554858935 178.95924764890282 L 31.29780564263323 178.95924764890282 L 127.5987460815047 178.95924764890282 L 127.5987460815047 159.69905956112854 L 127.5987460815047 159.69905956112854 L 127.5987460815047 82.65830721003135 L 127.5987460815047 82.65830721003135 L 127.5987460815047 63.39811912225705 L 127.5987460815047 63.39811912225705 L 89.07836990595611 63.39811912225705 L 89.07836990595611 63.39811912225705 L 89.07836990595611 82.65830721003135 L 89.07836990595611 82.65830721003135 L 89.07836990595611 113.15360501567397 L 89.07836990595611 113.15360501567397 L 40.92789968652038 65.00313479623824 L 40.92789968652038 65.00313479623824 Z M 179.76175548589342 300.13793103448273 Q 156.48902821316614 277.6677115987461 145.2539184952978 256 Q 156.48902821316614 234.33228840125392 179.76175548589342 211.86206896551724 Q 211.05956112852664 180.56426332288402 256 178.95924764890282 Q 300.94043887147336 180.56426332288402 332.2382445141066 211.86206896551724 Q 355.51097178683386 234.33228840125392 367.5485893416928 256 Q 355.51097178683386 277.6677115987461 332.2382445141066 300.13793103448273 Q 300.94043887147336 331.435736677116 256 333.0407523510972 Q 211.05956112852664 331.435736677116 179.76175548589342 300.13793103448273 L 179.76175548589342 300.13793103448273 Z M 256 371.56112852664575 Q 298.5329153605016 370.7586206896552 329.8307210031348 349.8934169278997 L 329.8307210031348 349.8934169278997 L 329.8307210031348 349.8934169278997 Q 361.9310344827586 329.8307210031348 381.9937304075235 303.34796238244513 L 381.9937304075235 303.34796238244513 L 381.9937304075235 303.34796238244513 Q 402.0564263322884 276.0626959247649 410.08150470219437 256 Q 402.0564263322884 235.93730407523512 381.9937304075235 208.65203761755487 Q 361.9310344827586 182.16927899686522 329.8307210031348 162.1065830721003 Q 298.5329153605016 141.24137931034483 256 140.43887147335423 Q 213.46708463949844 141.24137931034483 182.16927899686522 162.1065830721003 Q 150.06896551724137 182.16927899686522 130.00626959247649 208.65203761755487 Q 109.9435736677116 235.93730407523512 101.91849529780565 256 Q 109.9435736677116 276.0626959247649 130.00626959247649 303.34796238244513 Q 150.06896551724137 329.8307210031348 182.16927899686522 349.8934169278997 Q 213.46708463949844 370.7586206896552 256 371.56112852664575 L 256 371.56112852664575 Z M 484.7147335423198 51.36050156739812 L 471.0721003134796 65.00313479623824 L 484.7147335423198 51.36050156739812 L 471.0721003134796 65.00313479623824 L 422.9216300940439 113.15360501567397 L 422.9216300940439 113.15360501567397 L 422.9216300940439 82.65830721003135 L 422.9216300940439 82.65830721003135 L 422.9216300940439 63.39811912225705 L 422.9216300940439 63.39811912225705 L 384.4012539184953 63.39811912225705 L 384.4012539184953 63.39811912225705 L 384.4012539184953 82.65830721003135 L 384.4012539184953 82.65830721003135 L 384.4012539184953 159.69905956112854 L 384.4012539184953 159.69905956112854 L 384.4012539184953 178.95924764890282 L 384.4012539184953 178.95924764890282 L 403.66144200626957 178.95924764890282 L 499.9623824451411 178.95924764890282 L 499.9623824451411 140.43887147335423 L 499.9623824451411 140.43887147335423 L 480.70219435736675 140.43887147335423 L 450.2068965517241 140.43887147335423 L 498.3573667711599 92.2884012539185 L 498.3573667711599 92.2884012539185 L 512 78.64576802507837 L 512 78.64576802507837 L 484.7147335423198 51.36050156739812 L 484.7147335423198 51.36050156739812 Z M 40.92789968652038 446.99686520376173 L 89.07836990595611 398.846394984326 L 40.92789968652038 446.99686520376173 L 89.07836990595611 398.846394984326 L 89.07836990595611 429.34169278996865 L 89.07836990595611 429.34169278996865 L 89.07836990595611 448.60188087774293 L 89.07836990595611 448.60188087774293 L 127.5987460815047 448.60188087774293 L 127.5987460815047 448.60188087774293 L 127.5987460815047 429.34169278996865 L 127.5987460815047 429.34169278996865 L 127.5987460815047 352.30094043887146 L 127.5987460815047 352.30094043887146 L 127.5987460815047 333.0407523510972 L 127.5987460815047 333.0407523510972 L 108.3385579937304 333.0407523510972 L 12.037617554858935 333.0407523510972 L 12.037617554858935 371.56112852664575 L 12.037617554858935 371.56112852664575 L 31.29780564263323 371.56112852664575 L 61.793103448275865 371.56112852664575 L 13.642633228840126 419.7115987460815 L 13.642633228840126 419.7115987460815 L 0 433.3542319749216 L 0 433.3542319749216 L 27.28526645768025 460.6394984326019 L 27.28526645768025 460.6394984326019 L 40.92789968652038 446.99686520376173 L 40.92789968652038 446.99686520376173 Z M 484.7147335423198 460.6394984326019 L 512 433.3542319749216 L 484.7147335423198 460.6394984326019 L 512 433.3542319749216 L 498.3573667711599 419.7115987460815 L 498.3573667711599 419.7115987460815 L 450.2068965517241 371.56112852664575 L 450.2068965517241 371.56112852664575 L 480.70219435736675 371.56112852664575 L 499.9623824451411 371.56112852664575 L 499.9623824451411 333.0407523510972 L 499.9623824451411 333.0407523510972 L 480.70219435736675 333.0407523510972 L 384.4012539184953 333.0407523510972 L 384.4012539184953 352.30094043887146 L 384.4012539184953 352.30094043887146 L 384.4012539184953 429.34169278996865 L 384.4012539184953 429.34169278996865 L 384.4012539184953 448.60188087774293 L 384.4012539184953 448.60188087774293 L 422.9216300940439 448.60188087774293 L 422.9216300940439 448.60188087774293 L 422.9216300940439 429.34169278996865 L 422.9216300940439 429.34169278996865 L 422.9216300940439 398.846394984326 L 422.9216300940439 398.846394984326 L 471.0721003134796 446.99686520376173 L 471.0721003134796 446.99686520376173 L 484.7147335423198 460.6394984326019 L 484.7147335423198 460.6394984326019 Z M 256 307.3605015673981 Q 284.8902821316614 306.55799373040753 300.13793103448273 281.6802507836991 Q 314.5830721003135 256 300.13793103448273 230.31974921630095 Q 284.8902821316614 205.44200626959247 256 204.63949843260187 Q 227.10971786833855 205.44200626959247 211.86206896551724 230.31974921630095 Q 197.41692789968653 256 211.86206896551724 281.6802507836991 Q 227.10971786833855 306.55799373040753 256 307.3605015673981 L 256 307.3605015673981 Z" />
</svg>