<svg xmlns="http://www.w3.org/2000/svg" viewBox="0 0 512 512">
  <path d="M 179.2 148 L 192 148 L 179.2 148 L 409.6 148 L 409.6 173.6 L 409.6 173.6 L 396.8 173.6 L 384 173.6 L 384 199.2 L 384 199.2 L 456.8 199.2 L 456.8 199.2 L 492 176 L 492 176 L 512 162.4 L 512 162.4 L 512 186.4 L 512 186.4 L 512 340 L 512 340 L 512 364 L 512 364 L 492 350.4 L 492 350.4 L 456.8 327.2 L 456.8 327.2 L 76.8 327.2 L 74.4 327.2 L 72 326.4 L 72 326.4 L 8 300.8 L 8 300.8 L 0 297.6 L 0 297.6 L 0 288.8 L 0 288.8 L 0 237.6 L 0 237.6 L 0 228.8 L 0 228.8 L 8 225.6 L 8 225.6 L 72 200 L 72 200 L 74.4 199.2 L 74.4 199.2 L 76.8 199.2 L 204.8 199.2 L 204.8 173.6 L 204.8 173.6 L 192 173.6 L 179.2 173.6 L 179.2 148 L 179.2 148 Z M 358.4 173.6 L 307.2 173.6 L 358.4 173.6 L 307.2 173.6 L 307.2 199.2 L 307.2 199.2 L 358.4 199.2 L 358.4 199.2 L 358.4 173.6 L 358.4 173.6 Z M 281.6 173.6 L 230.4 173.6 L 281.6 173.6 L 230.4 173.6 L 230.4 199.2 L 230.4 199.2 L 281.6 199.2 L 281.6 199.2 L 281.6 173.6 L 281.6 173.6 Z M 217.6 282.4 Q 235.2 280.8 236.8 263.2 Q 235.2 245.6 217.6 244 Q 200 245.6 198.4 263.2 Q 200 280.8 217.6 282.4 L 217.6 282.4 Z M 313.6 263.2 Q 312 245.6 294.4 244 Q 276.8 245.6 275.2 263.2 Q 276.8 280.8 294.4 282.4 Q 312 280.8 313.6 263.2 L 313.6 263.2 Z M 371.2 282.4 Q 388.8 280.8 390.4 263.2 Q 388.8 245.6 371.2 244 Q 353.6 245.6 352 263.2 Q 353.6 280.8 371.2 282.4 L 371.2 282.4 Z" />
</svg>