<svg xmlns="http://www.w3.org/2000/svg" viewBox="0 0 512 512">
  <path d="M 38.4 63.2 L 23.2 51.2 L 38.4 63.2 L 23.2 51.2 L 0 81.6 L 0 81.6 L 15.2 93.6 L 15.2 93.6 L 473.6 448.8 L 473.6 448.8 L 488.8 460.8 L 488.8 460.8 L 512 430.4 L 512 430.4 L 496.8 418.4 L 496.8 418.4 L 435.2 371.2 L 435.2 371.2 L 435.2 115.2 L 435.2 115.2 L 435.2 76.8 L 435.2 76.8 L 396.8 76.8 L 76.8 76.8 L 76.8 92.8 L 76.8 92.8 L 38.4 63.2 L 38.4 63.2 Z M 115.2 122.4 L 115.2 115.2 L 115.2 122.4 L 115.2 115.2 L 396.8 115.2 L 396.8 115.2 L 396.8 340.8 L 396.8 340.8 L 327.2 287.2 L 327.2 287.2 Q 351.2 264.8 352 230.4 Q 351.2 197.6 329.6 176 Q 308 154.4 275.2 153.6 L 204.8 153.6 L 185.6 153.6 L 185.6 172.8 L 185.6 172.8 L 185.6 176.8 L 185.6 176.8 L 115.2 122.4 L 115.2 122.4 Z M 296 262.4 L 224 207.2 L 296 262.4 L 224 207.2 L 224 192 L 224 192 L 275.2 192 L 275.2 192 Q 291.2 192.8 302.4 203.2 Q 312.8 214.4 313.6 230.4 Q 312.8 252 296 262.4 L 296 262.4 Z M 341.6 396.8 L 115.2 396.8 L 341.6 396.8 L 115.2 396.8 L 115.2 219.2 L 115.2 219.2 L 76.8 188.8 L 76.8 188.8 L 76.8 396.8 L 76.8 396.8 L 76.8 435.2 L 76.8 435.2 L 115.2 435.2 L 389.6 435.2 L 341.6 396.8 L 341.6 396.8 Z M 224 307.2 L 224 304.8 L 224 307.2 L 224 304.8 L 185.6 274.4 L 185.6 274.4 L 185.6 307.2 L 185.6 307.2 L 185.6 339.2 L 185.6 339.2 L 185.6 358.4 L 185.6 358.4 L 224 358.4 L 224 358.4 L 224 339.2 L 224 339.2 L 224 332.8 L 224 332.8 L 224 307.2 L 224 307.2 Z" />
</svg>