<svg viewBox="0 0 576 511">
  <path
    d="M 288 0 L 277 12 L 181 108 L 169 119 L 192 142 L 203 130 L 272 62 L 272 207 L 272 223 L 304 223 L 304 207 L 304 62 L 373 130 L 384 142 L 407 119 L 395 108 L 299 12 L 288 0 L 288 0 Z M 288 280 L 211 239 L 182 223 L 173 254 L 147 338 L 63 364 L 32 373 L 48 402 L 72 447 L 108 447 L 79 392 L 157 369 L 173 364 L 178 348 L 201 270 L 273 308 L 288 316 L 303 308 L 375 270 L 398 348 L 403 364 L 420 369 L 497 392 L 468 447 L 504 447 L 529 402 L 544 373 L 513 364 L 429 338 L 403 254 L 394 223 L 365 239 L 288 280 L 288 280 Z M 412 447 Q 401 405 367 378 L 367 378 Q 334 352 288 351 Q 242 352 209 378 Q 175 405 164 447 L 197 447 Q 208 419 232 401 Q 256 384 288 383 Q 320 384 344 401 Q 368 419 378 447 L 412 447 L 412 447 Z M 16 479 L 0 479 L 0 511 L 16 511 L 560 511 L 576 511 L 576 479 L 560 479 L 16 479 L 16 479 Z"
  />
</svg>