<svg xmlns="http://www.w3.org/2000/svg" viewBox="0 0 576 512">
    <path d="M 384 0 L 0 0 L 0 512 L 331 512 Q 296 488 276 450 Q 256 413 256 368 Q 257 306 292 261 Q 328 215 384 199 L 384 0 L 384 0 Z M 80 128 L 304 128 L 320 128 L 320 160 L 304 160 L 80 160 L 64 160 L 64 128 L 80 128 L 80 128 Z M 80 224 L 240 224 L 256 224 L 256 256 L 240 256 L 80 256 L 64 256 L 64 224 L 80 224 L 80 224 Z M 80 320 L 176 320 L 192 320 L 192 352 L 176 352 L 80 352 L 64 352 L 64 320 L 80 320 L 80 320 Z M 576 368 Q 576 329 557 296 L 557 296 Q 538 263 504 243 Q 470 224 432 224 Q 394 224 360 243 Q 326 263 307 296 Q 288 329 288 368 Q 288 407 307 440 Q 326 473 360 493 Q 394 512 432 512 Q 470 512 504 493 Q 538 473 557 440 Q 576 407 576 368 L 576 368 Z M 511 336 L 499 347 L 427 419 L 416 431 L 405 419 L 365 379 L 353 368 L 376 345 L 387 357 L 416 385 L 477 325 L 488 313 L 511 336 L 511 336 Z"/>
</svg>
