<svg xmlns="http://www.w3.org/2000/svg" viewBox="0 0 512 512">
  <path d="M 28.444445 85.333336 L 28.444445 256 L 28.444445 85.333336 L 28.444445 256 L 156.44444 256 L 164.44444 256 L 168 262.22223 L 168 262.22223 L 195.55556 303.1111 L 195.55556 303.1111 L 242.66667 179.55556 L 242.66667 179.55556 L 254.22223 149.33333 L 254.22223 149.33333 L 269.33334 178.66667 L 269.33334 178.66667 L 307.55554 256 L 307.55554 256 L 384 256 L 398.22223 256 L 398.22223 284.44446 L 398.22223 284.44446 L 384 284.44446 L 289.77777 284.44446 L 286.22223 276.44446 L 286.22223 276.44446 L 257.77777 220.44444 L 257.77777 220.44444 L 212.44444 339.55554 L 212.44444 339.55554 L 202.66667 365.33334 L 202.66667 365.33334 L 187.55556 342.22223 L 187.55556 342.22223 L 148.44444 284.44446 L 148.44444 284.44446 L 28.444445 284.44446 L 28.444445 284.44446 L 28.444445 426.66666 L 28.444445 426.66666 L 483.55554 426.66666 L 483.55554 426.66666 L 483.55554 85.333336 L 483.55554 85.333336 L 28.444445 85.333336 L 28.444445 85.333336 Z M 0 56.88889 L 28.444445 56.88889 L 0 56.88889 L 512 56.88889 L 512 85.333336 L 512 85.333336 L 512 426.66666 L 512 426.66666 L 512 455.1111 L 512 455.1111 L 483.55554 455.1111 L 0 455.1111 L 0 426.66666 L 0 426.66666 L 0 85.333336 L 0 85.333336 L 0 56.88889 L 0 56.88889 Z" />
</svg>