<svg xmlns="http://www.w3.org/2000/svg" viewBox="0 0 512 512">
  <path d="M 256 73.14285714285714 Q 236.57142857142858 73.14285714285714 219.42857142857142 76.57142857142857 L 219.42857142857142 2.2857142857142856 L 219.42857142857142 2.2857142857142856 Q 237.71428571428572 0 256 0 Q 357.7142857142857 2.2857142857142856 427.42857142857144 66.28571428571429 L 475.42857142857144 18.285714285714285 L 475.42857142857144 18.285714285714285 L 493.7142857142857 36.57142857142857 L 493.7142857142857 36.57142857142857 L 493.7142857142857 182.85714285714286 L 493.7142857142857 182.85714285714286 L 347.42857142857144 182.85714285714286 L 347.42857142857144 182.85714285714286 L 329.14285714285717 164.57142857142858 L 329.14285714285717 164.57142857142858 L 376 117.71428571428571 L 376 117.71428571428571 Q 325.7142857142857 74.28571428571429 256 73.14285714285714 L 256 73.14285714285714 Z M 117.71428571428571 136 Q 74.28571428571429 186.28571428571428 73.14285714285714 256 Q 73.14285714285714 275.42857142857144 76.57142857142857 292.57142857142856 L 2.2857142857142856 292.57142857142856 L 2.2857142857142856 292.57142857142856 Q 0 274.2857142857143 0 256 Q 2.2857142857142856 154.28571428571428 66.28571428571429 84.57142857142857 L 18.285714285714285 36.57142857142857 L 18.285714285714285 36.57142857142857 L 36.57142857142857 18.285714285714285 L 36.57142857142857 18.285714285714285 L 182.85714285714286 18.285714285714285 L 182.85714285714286 18.285714285714285 L 182.85714285714286 164.57142857142858 L 182.85714285714286 164.57142857142858 L 164.57142857142858 182.85714285714286 L 164.57142857142858 182.85714285714286 L 117.71428571428571 136 L 117.71428571428571 136 Z M 509.7142857142857 219.42857142857142 Q 512 237.71428571428572 512 256 Q 509.7142857142857 357.7142857142857 445.7142857142857 427.42857142857144 L 493.7142857142857 475.42857142857144 L 493.7142857142857 475.42857142857144 L 475.42857142857144 493.7142857142857 L 475.42857142857144 493.7142857142857 L 329.14285714285717 493.7142857142857 L 329.14285714285717 493.7142857142857 L 329.14285714285717 347.42857142857144 L 329.14285714285717 347.42857142857144 L 347.42857142857144 329.14285714285717 L 347.42857142857144 329.14285714285717 L 394.2857142857143 376 L 394.2857142857143 376 Q 437.7142857142857 325.7142857142857 438.85714285714283 256 Q 438.85714285714283 236.57142857142858 435.42857142857144 219.42857142857142 L 509.7142857142857 219.42857142857142 L 509.7142857142857 219.42857142857142 Z M 256 438.85714285714283 Q 275.42857142857144 438.85714285714283 292.57142857142856 435.42857142857144 L 292.57142857142856 509.7142857142857 L 292.57142857142856 509.7142857142857 Q 274.2857142857143 512 256 512 Q 154.28571428571428 509.7142857142857 84.57142857142857 445.7142857142857 L 36.57142857142857 493.7142857142857 L 36.57142857142857 493.7142857142857 L 18.285714285714285 475.42857142857144 L 18.285714285714285 475.42857142857144 L 18.285714285714285 329.14285714285717 L 18.285714285714285 329.14285714285717 L 164.57142857142858 329.14285714285717 L 164.57142857142858 329.14285714285717 L 182.85714285714286 347.42857142857144 L 182.85714285714286 347.42857142857144 L 136 394.2857142857143 L 136 394.2857142857143 Q 186.28571428571428 437.7142857142857 256 438.85714285714283 L 256 438.85714285714283 Z" />
</svg>