<svg xmlns="http://www.w3.org/2000/svg" viewBox="0 0 512 512">
  <path d="M 249.56784 270.15076 L 265.00504 256 L 249.56784 270.15076 L 265.00504 256 L 249.56784 241.84924 L 249.56784 241.84924 L 43.738693 36.0201 L 43.738693 36.0201 L 29.58794 20.582914 L 29.58794 20.582914 L 0 50.170853 L 0 50.170853 L 15.437186 64.32161 L 15.437186 64.32161 L 205.82915 256 L 205.82915 256 L 15.437186 447.6784 L 15.437186 447.6784 L 0 461.82913 L 0 461.82913 L 29.58794 491.41708 L 29.58794 491.41708 L 43.738693 475.9799 L 43.738693 475.9799 L 249.56784 270.15076 L 249.56784 270.15076 Z M 496.5628 270.15076 L 512 256 L 496.5628 270.15076 L 512 256 L 496.5628 241.84924 L 496.5628 241.84924 L 290.73367 36.0201 L 290.73367 36.0201 L 276.58292 20.582914 L 276.58292 20.582914 L 246.99498 50.170853 L 246.99498 50.170853 L 262.43216 64.32161 L 262.43216 64.32161 L 452.82413 256 L 452.82413 256 L 262.43216 447.6784 L 262.43216 447.6784 L 246.99498 461.82913 L 246.99498 461.82913 L 276.58292 491.41708 L 276.58292 491.41708 L 290.73367 475.9799 L 290.73367 475.9799 L 496.5628 270.15076 L 496.5628 270.15076 Z" />
</svg>