<svg xmlns="http://www.w3.org/2000/svg" viewBox="0 0 512 448">
    <path d="M 224 0 L 272 64 L 464 64 L 512 64 L 512 112 L 512 400 L 512 448 L 464 448 L 48 448 L 0 448 L 0 400 L 0 48 L 0 0 L 48 0 L 224 0 L 224 0 Z M 272 112 L 248 112 L 234 93 L 200 48 L 48 48 L 48 400 L 464 400 L 464 112 L 272 112 L 272 112 Z M 284 144 L 284 177 Q 299 182 311 192 L 339 176 L 367 224 L 339 241 Q 340 248 340 256 Q 340 264 339 271 L 367 288 L 339 336 L 311 320 Q 299 330 284 335 L 284 368 L 228 368 L 228 335 Q 213 330 201 320 L 173 336 L 145 288 L 173 271 Q 172 264 172 256 Q 172 248 173 241 L 145 224 L 173 176 L 201 192 Q 213 182 228 177 L 228 144 L 284 144 L 284 144 Z M 291 256 Q 291 241 281 231 L 281 231 Q 271 221 256 221 Q 241 221 231 231 Q 221 241 221 256 Q 221 271 231 281 Q 241 291 256 291 Q 271 291 281 281 Q 291 271 291 256 L 291 256 Z"/>
</svg>
