<svg xmlns="http://www.w3.org/2000/svg" viewBox="0 0 512 512">
  <path d="M 121.14286 104 L 182.85715 0 L 121.14286 104 L 182.85715 0 L 245.71428 104 L 245.71428 104 Q 256 122.28571 256 142.85715 L 256 146.28572 L 256 146.28572 Q 254.85715 177.14285 234.28572 197.71428 Q 213.71428 218.28572 182.85715 219.42857 Q 152 218.28572 131.42857 197.71428 Q 110.85714 177.14285 109.71429 146.28572 L 109.71429 142.85715 L 109.71429 142.85715 Q 109.71429 122.28571 121.14286 104 L 121.14286 104 Z M 11.428572 323.42856 L 73.14286 219.42857 L 11.428572 323.42856 L 73.14286 219.42857 L 136 323.42856 L 136 323.42856 Q 146.28572 341.7143 146.28572 362.2857 L 146.28572 365.7143 L 146.28572 365.7143 Q 145.14285 396.57144 124.57143 417.14285 Q 104 437.7143 73.14286 438.85715 Q 42.285713 437.7143 21.714285 417.14285 Q 1.1428572 396.57144 0 365.7143 L 0 362.2857 L 0 362.2857 Q 0 341.7143 11.428572 323.42856 L 11.428572 323.42856 Z M 290.2857 318.85715 Q 274.2857 340.57144 274.2857 368 Q 275.42856 405.7143 300.57144 430.85715 Q 325.7143 456 363.42856 457.14285 L 368 457.14285 L 368 457.14285 Q 405.7143 456 430.85715 430.85715 Q 456 405.7143 457.14285 368 Q 457.14285 340.57144 442.2857 318.85715 L 365.7143 206.85715 L 365.7143 206.85715 L 290.2857 318.85715 L 290.2857 318.85715 Z M 244.57143 286.85715 L 332.57144 158.85715 L 244.57143 286.85715 L 332.57144 158.85715 L 365.7143 109.71429 L 365.7143 109.71429 L 398.85715 158.85715 L 398.85715 158.85715 L 486.85715 288 L 486.85715 288 Q 512 324.57144 512 368 Q 510.85715 429.7143 469.7143 469.7143 Q 429.7143 510.85715 368 512 L 363.42856 512 L 363.42856 512 Q 301.7143 510.85715 261.7143 469.7143 Q 220.57143 429.7143 219.42857 368 Q 219.42857 324.57144 244.57143 288 L 244.57143 286.85715 Z" />
</svg>