<svg viewBox="0 0 576 508">
  <path
    d="M 563 80 L 576 92 L 563 104 L 475 184 L 453 160 L 511 108 L 65 108 L 123 160 L 101 184 L 13 104 L 0 92 L 13 80 L 101 0 L 123 24 L 65 76 L 511 76 L 453 24 L 475 0 L 563 80 L 563 80 Z M 96 508 L 64 508 L 69 476 L 96 284 L 288 156 L 480 284 L 507 476 L 512 508 L 480 508 L 96 508 L 96 508 Z M 365 476 L 304 374 L 304 476 L 365 476 L 365 476 Z M 272 316 Q 272 316 272 316 L 272 316 Q 272 316 272 316 L 272 205 L 126 303 L 101 476 L 272 476 L 272 316 L 272 316 Z M 450 303 L 304 205 L 304 312 L 398 468 L 403 476 L 475 476 L 450 303 L 450 303 Z"
  />
</svg>