<svg xmlns="http://www.w3.org/2000/svg" viewBox="0 0 512 512">
  <path d="M 256 48 Q 283 49 301 67 L 301 67 L 301 67 Q 319 85 320 112 L 320 160 L 320 160 L 192 160 L 192 160 L 192 112 L 192 112 Q 193 85 211 67 Q 229 49 256 48 L 256 48 Z M 144 112 L 144 160 L 144 112 L 144 160 L 80 160 L 32 160 L 32 208 L 32 208 L 32 464 L 32 464 L 32 512 L 32 512 L 80 512 L 480 512 L 480 464 L 480 464 L 480 208 L 480 208 L 480 160 L 480 160 L 432 160 L 368 160 L 368 112 L 368 112 Q 367 71 343 41 Q 319 12 280 3 L 280 0 L 280 0 L 256 0 L 256 0 Q 208 1 177 33 Q 145 64 144 112 L 144 112 Z M 80 208 L 144 208 L 80 208 L 432 208 L 432 464 L 432 464 L 80 464 L 80 464 L 80 208 L 80 208 Z M 176 312 L 152 312 L 176 312 L 152 312 L 152 360 L 152 360 L 176 360 L 360 360 L 360 312 L 360 312 L 336 312 L 176 312 Z" />
</svg>