<svg viewBox="0 0 574 512">
  <path
    d="M 355 285 L 366 275 L 366 261 L 366 32 L 494 32 L 494 261 L 494 275 L 505 285 Q 541 317 542 368 Q 541 416 509 447 Q 478 479 430 480 Q 382 479 351 447 Q 319 416 318 368 Q 319 317 355 285 L 355 285 Z M 526 0 L 494 0 L 366 0 L 334 0 L 334 32 L 334 261 Q 288 302 286 368 Q 288 429 328 470 Q 369 510 430 512 Q 491 510 532 470 Q 572 429 574 368 Q 572 302 526 261 L 526 32 L 526 0 L 526 0 Z M 398 368 Q 398 354 407 345 L 407 345 Q 416 336 430 336 Q 444 336 453 345 Q 462 354 462 368 Q 462 382 453 391 Q 444 400 430 400 Q 416 400 407 391 Q 398 382 398 368 L 398 368 Z M 494 368 Q 494 345 480 328 L 480 328 Q 467 312 446 306 L 446 272 L 446 256 L 414 256 L 414 272 L 414 306 Q 393 312 380 328 Q 366 345 366 368 Q 367 395 385 413 Q 403 431 430 432 Q 457 431 475 413 Q 493 395 494 368 L 494 368 Z M 283 143 L 290 115 L 294 99 L 263 91 L 259 106 L 243 165 L 190 196 L 190 135 L 233 91 L 245 80 L 222 57 L 211 69 L 190 89 L 190 48 L 190 32 L 158 32 L 158 48 L 158 89 L 137 69 L 126 57 L 103 80 L 115 91 L 158 135 L 158 196 L 105 166 L 89 106 L 85 91 L 54 99 L 58 115 L 65 143 L 30 122 L 16 114 L 0 142 L 14 150 L 49 171 L 21 178 L 6 182 L 14 213 L 29 209 L 89 193 L 142 224 L 89 255 L 29 239 L 14 235 L 6 266 L 21 270 L 50 277 L 14 298 L 0 306 L 16 334 L 30 326 L 65 305 L 58 333 L 54 349 L 85 357 L 89 342 L 105 282 L 158 252 L 158 313 L 115 357 L 103 368 L 126 391 L 137 379 L 158 359 L 158 400 L 158 416 L 190 416 L 190 400 L 190 359 L 211 379 L 222 391 L 245 368 L 233 357 L 190 313 L 190 252 L 243 283 L 257 334 Q 268 284 302 247 L 302 243 L 259 255 L 206 224 L 259 193 L 302 205 L 302 172 L 299 171 L 302 169 L 302 132 L 283 143 L 283 143 Z"
  />
</svg>