<svg viewBox="0 0 640 458">
  <path
    d="M 293 19 Q 239 52 218 110 L 218 110 Q 197 168 218 230 L 253 327 L 242 371 L 0 283 L 13 247 L 80 199 L 117 99 Q 138 46 187 23 Q 236 0 291 18 Q 292 19 293 19 L 293 19 Z M 98 353 L 215 396 Q 197 424 161 426 Q 134 425 116 407 Q 97 389 97 362 Q 97 357 97 353 L 98 353 Z M 279 447 L 265 410 L 287 325 L 248 219 Q 229 161 253 109 Q 277 58 333 35 Q 391 16 443 40 Q 494 64 517 121 L 555 227 L 626 278 L 640 316 L 279 447 L 279 447 Z M 429 431 L 545 389 Q 545 389 545 389 Q 545 391 545 394 Q 545 421 526 439 Q 508 457 481 458 Q 447 457 429 431 L 429 431 Z"
  />
</svg>