<svg xmlns="http://www.w3.org/2000/svg" viewBox="0 0 512 512">
  <path d="M 448 192 Q 447 246 421 290 L 421 290 L 421 290 Q 396 333 352 359 Q 352 363 352 368 Q 350 429 310 470 Q 269 510 208 512 Q 147 510 106 470 Q 66 429 64 368 L 64 192 L 64 192 Q 66 110 120 56 Q 174 2 256 0 Q 338 2 392 56 Q 446 110 448 192 L 448 192 Z M 192 192 Q 193 165 211 147 L 211 147 L 211 147 Q 229 129 256 128 Q 283 129 301 147 Q 319 165 320 192 L 320 200 L 320 200 L 320 224 L 320 224 L 368 224 L 368 224 L 368 200 L 368 200 L 368 192 L 368 192 Q 367 144 335 113 Q 304 81 256 80 Q 208 81 177 113 Q 145 144 144 192 L 144 232 L 144 232 L 144 247 L 144 247 L 157 253 L 157 253 L 192 271 L 192 271 L 192 277 L 192 277 L 153 310 L 153 310 L 134 325 L 134 325 L 165 362 L 165 362 L 183 346 L 183 346 L 231 306 L 231 306 L 240 299 L 240 299 L 240 288 L 240 288 L 240 256 L 240 256 L 240 241 L 240 241 L 227 235 L 227 235 L 192 217 L 192 217 L 192 192 L 192 192 Z" />
</svg>