<svg xmlns="http://www.w3.org/2000/svg" viewBox="0 0 512 512">
  <path d="M 255.50864 71.73896 Q 256.49136 36.360844 286.95584 17.68906 Q 318.40308 0 349.85028 17.68906 Q 380.3148 36.360844 381.29752 71.73896 Q 380.3148 107.11708 349.85028 125.788864 Q 318.40308 143.47792 286.95584 125.788864 Q 256.49136 107.11708 255.50864 71.73896 L 255.50864 71.73896 Z M 184.7524 150.35701 L 208.33781 150.35701 L 184.7524 150.35701 L 275.16315 150.35701 L 286.95584 167.06334 L 286.95584 167.06334 L 326.26486 219.1478 L 326.26486 219.1478 L 364.59116 187.70058 L 364.59116 187.70058 L 395.05566 163.13243 L 395.05566 163.13243 L 445.17465 224.06142 L 445.17465 224.06142 L 414.71017 248.62956 L 414.71017 248.62956 L 342.97122 306.61035 L 342.97122 306.61035 L 311.524 333.14395 L 311.524 333.14395 L 286.95584 299.7313 L 286.95584 299.7313 L 264.35318 268.28406 L 264.35318 268.28406 L 220.13052 356.72937 L 220.13052 356.72937 L 334.12668 441.24377 L 334.12668 441.24377 L 310.54126 512 L 310.54126 512 L 106.13435 512 L 66.82533 512 L 66.82533 433.38196 L 66.82533 433.38196 L 106.13435 433.38196 L 191.63148 433.38196 L 138.5643 395.05566 L 138.5643 395.05566 Q 113.013435 374.41843 106.13435 344.93665 Q 99.25528 314.47217 113.99616 284.99042 L 173.94241 170.99425 L 173.94241 170.99425 L 184.7524 150.35701 L 184.7524 150.35701 Z" />
</svg>