<svg xmlns="http://www.w3.org/2000/svg" viewBox="0 0 512 512">
  <path d="M 230.4 51.2 L 230.4 64 L 230.4 51.2 L 230.4 64 L 230.4 166.4 L 230.4 166.4 L 256 208 L 256 208 L 256 76.8 L 256 76.8 L 384 76.8 L 384 76.8 L 384 217.6 L 384 217.6 L 384 230.4 L 384 230.4 L 396.8 230.4 L 486.4 230.4 L 486.4 448 L 486.4 448 L 486.4 460.8 L 486.4 460.8 L 512 460.8 L 512 460.8 L 512 448 L 512 448 L 512 217.6 L 512 217.6 L 512 204.8 L 512 204.8 L 499.2 204.8 L 460.8 204.8 L 460.8 140.8 L 460.8 140.8 L 460.8 128 L 460.8 128 L 435.2 128 L 435.2 128 L 435.2 140.8 L 435.2 140.8 L 435.2 204.8 L 435.2 204.8 L 409.6 204.8 L 409.6 204.8 L 409.6 64 L 409.6 64 L 409.6 51.2 L 409.6 51.2 L 396.8 51.2 L 230.4 51.2 Z M 294.4 102.4 L 281.6 102.4 L 294.4 102.4 L 281.6 102.4 L 281.6 115.2 L 281.6 115.2 L 281.6 166.4 L 281.6 166.4 L 281.6 179.2 L 281.6 179.2 L 294.4 179.2 L 358.4 179.2 L 358.4 166.4 L 358.4 166.4 L 358.4 115.2 L 358.4 115.2 L 358.4 102.4 L 358.4 102.4 L 345.6 102.4 L 294.4 102.4 Z M 307.2 153.6 L 307.2 128 L 307.2 153.6 L 307.2 128 L 332.8 128 L 332.8 128 L 332.8 153.6 L 332.8 153.6 L 307.2 153.6 L 307.2 153.6 Z M 294.4 204.8 L 294.4 230.4 L 294.4 204.8 L 294.4 230.4 L 307.2 230.4 L 332.8 230.4 L 332.8 256 L 332.8 256 L 332.8 268.8 L 332.8 268.8 L 358.4 268.8 L 358.4 268.8 L 358.4 256 L 358.4 256 L 358.4 217.6 L 358.4 217.6 L 358.4 204.8 L 358.4 204.8 L 345.6 204.8 L 294.4 204.8 Z M 396.8 256 L 384 256 L 396.8 256 L 384 256 L 384 268.8 L 384 268.8 L 384 320 L 384 320 L 384 332.8 L 384 332.8 L 396.8 332.8 L 460.8 332.8 L 460.8 320 L 460.8 320 L 460.8 268.8 L 460.8 268.8 L 460.8 256 L 460.8 256 L 448 256 L 396.8 256 Z M 409.6 307.2 L 409.6 281.6 L 409.6 307.2 L 409.6 281.6 L 435.2 281.6 L 435.2 281.6 L 435.2 307.2 L 435.2 307.2 L 409.6 307.2 L 409.6 307.2 Z M 384 358.4 L 384 371.2 L 384 358.4 L 384 371.2 L 384 422.4 L 384 422.4 L 384 435.2 L 384 435.2 L 396.8 435.2 L 460.8 435.2 L 460.8 422.4 L 460.8 422.4 L 460.8 371.2 L 460.8 371.2 L 460.8 358.4 L 460.8 358.4 L 448 358.4 L 384 358.4 Z M 409.6 384 L 435.2 384 L 409.6 384 L 435.2 384 L 435.2 409.6 L 435.2 409.6 L 409.6 409.6 L 409.6 409.6 L 409.6 384 L 409.6 384 Z M 384 460.8 L 368 435.2 L 384 460.8 L 368 435.2 L 207.2 177.6 L 207.2 177.6 L 192 153.6 L 192 153.6 L 176.8 177.6 L 176.8 177.6 L 16 435.2 L 16 435.2 L 0 460.8 L 0 460.8 L 30.4 460.8 L 384 460.8 Z M 337.6 435.2 L 46.4 435.2 L 337.6 435.2 L 46.4 435.2 L 120 317.6 L 120 317.6 L 144 347.2 L 144 347.2 L 153.6 359.2 L 153.6 359.2 L 163.2 347.2 L 163.2 347.2 L 197.6 307.2 L 197.6 307.2 L 257.6 307.2 L 257.6 307.2 L 337.6 435.2 L 337.6 435.2 Z M 192 201.6 L 241.6 281.6 L 192 201.6 L 241.6 281.6 L 191.2 281.6 L 185.6 281.6 L 181.6 286.4 L 181.6 286.4 L 153.6 319.2 L 153.6 319.2 L 134.4 294.4 L 134.4 294.4 L 192 201.6 L 192 201.6 Z" />
</svg>