<svg xmlns="http://www.w3.org/2000/svg" viewBox="0 0 512 512">
  <path d="M 128 355.55555555555554 L 0 312.8888888888889 L 128 355.55555555555554 L 0 312.8888888888889 L 72.88888888888889 398.22222222222223 L 72.88888888888889 398.22222222222223 L 176 398.22222222222223 L 176 398.22222222222223 Q 184.88888888888889 373.3333333333333 206.22222222222223 357.3333333333333 Q 227.55555555555554 342.22222222222223 256 341.3333333333333 Q 284.44444444444446 342.22222222222223 305.77777777777777 357.3333333333333 Q 327.1111111111111 373.3333333333333 336.8888888888889 398.22222222222223 L 439.1111111111111 398.22222222222223 L 439.1111111111111 398.22222222222223 L 512 312.8888888888889 L 512 312.8888888888889 L 384 355.55555555555554 L 384 355.55555555555554 L 483.55555555555554 28.444444444444443 L 483.55555555555554 28.444444444444443 L 298.6666666666667 291.55555555555554 L 298.6666666666667 291.55555555555554 L 277.3333333333333 142.22222222222223 L 277.3333333333333 142.22222222222223 L 234.66666666666666 142.22222222222223 L 234.66666666666666 142.22222222222223 L 213.33333333333334 298.6666666666667 L 213.33333333333334 298.6666666666667 L 85.33333333333333 199.11111111111111 L 85.33333333333333 199.11111111111111 L 128 355.55555555555554 L 128 355.55555555555554 Z M 277.3333333333333 28.444444444444443 L 234.66666666666666 28.444444444444443 L 277.3333333333333 28.444444444444443 L 234.66666666666666 28.444444444444443 L 234.66666666666666 49.77777777777778 L 234.66666666666666 49.77777777777778 L 234.66666666666666 92.44444444444444 L 234.66666666666666 92.44444444444444 L 234.66666666666666 113.77777777777777 L 234.66666666666666 113.77777777777777 L 277.3333333333333 113.77777777777777 L 277.3333333333333 113.77777777777777 L 277.3333333333333 92.44444444444444 L 277.3333333333333 92.44444444444444 L 277.3333333333333 49.77777777777778 L 277.3333333333333 49.77777777777778 L 277.3333333333333 28.444444444444443 L 277.3333333333333 28.444444444444443 Z M 28.444444444444443 426.6666666666667 L 0 426.6666666666667 L 28.444444444444443 426.6666666666667 L 0 426.6666666666667 L 0 483.55555555555554 L 0 483.55555555555554 L 28.444444444444443 483.55555555555554 L 512 483.55555555555554 L 512 426.6666666666667 L 512 426.6666666666667 L 483.55555555555554 426.6666666666667 L 28.444444444444443 426.6666666666667 Z" />
</svg>