<svg xmlns="http://www.w3.org/2000/svg" viewBox="0 0 512 512">
  <path d="M 134.1793103448276 135.94482758620688 L 120.0551724137931 164.19310344827585 L 134.1793103448276 135.94482758620688 L 120.0551724137931 164.19310344827585 L 134.1793103448276 192.44137931034481 L 134.1793103448276 192.44137931034481 L 133.29655172413794 220.68965517241378 L 133.29655172413794 220.68965517241378 L 104.1655172413793 213.62758620689655 L 104.1655172413793 213.62758620689655 L 80.33103448275862 233.93103448275863 L 80.33103448275862 233.93103448275863 L 50.317241379310346 240.1103448275862 L 50.317241379310346 240.1103448275862 L 37.95862068965517 269.2413793103448 L 37.95862068965517 269.2413793103448 L 13.241379310344827 287.7793103448276 L 13.241379310344827 287.7793103448276 L 14.124137931034483 319.5586206896552 L 14.124137931034483 319.5586206896552 L 0 347.80689655172415 L 0 347.80689655172415 L 14.124137931034483 376.0551724137931 L 14.124137931034483 376.0551724137931 L 13.241379310344827 407.8344827586207 L 13.241379310344827 407.8344827586207 L 37.95862068965517 426.3724137931035 L 37.95862068965517 426.3724137931035 L 50.317241379310346 455.50344827586207 L 50.317241379310346 455.50344827586207 L 80.33103448275862 461.68275862068964 L 80.33103448275862 461.68275862068964 L 104.1655172413793 481.9862068965517 L 104.1655172413793 481.9862068965517 L 134.1793103448276 474.04137931034484 L 134.1793103448276 474.04137931034484 L 164.19310344827585 481.9862068965517 L 164.19310344827585 481.9862068965517 L 188.02758620689656 461.68275862068964 L 188.02758620689656 461.68275862068964 L 218.04137931034484 455.50344827586207 L 218.04137931034484 455.50344827586207 L 230.4 426.3724137931035 L 230.4 426.3724137931035 L 254.2344827586207 407.8344827586207 L 254.2344827586207 407.8344827586207 L 278.0689655172414 426.3724137931035 L 278.0689655172414 426.3724137931035 L 290.42758620689654 455.50344827586207 L 290.42758620689654 455.50344827586207 L 321.3241379310345 461.68275862068964 L 321.3241379310345 461.68275862068964 L 344.2758620689655 481.9862068965517 L 344.2758620689655 481.9862068965517 L 374.2896551724138 474.04137931034484 L 374.2896551724138 474.04137931034484 L 404.3034482758621 481.9862068965517 L 404.3034482758621 481.9862068965517 L 428.13793103448273 461.68275862068964 L 428.13793103448273 461.68275862068964 L 458.151724137931 455.50344827586207 L 458.151724137931 455.50344827586207 L 470.5103448275862 426.3724137931035 L 470.5103448275862 426.3724137931035 L 495.22758620689655 407.8344827586207 L 495.22758620689655 407.8344827586207 L 495.22758620689655 394.5931034482759 L 495.22758620689655 394.5931034482759 Q 471.39310344827584 400.77241379310345 449.3241379310345 393.7103448275862 Q 448.4413793103448 393.7103448275862 447.5586206896552 392.82758620689657 Q 446.6758620689655 392.82758620689657 445.7931034482759 392.82758620689657 L 444.9103448275862 393.7103448275862 L 444.9103448275862 393.7103448275862 L 436.0827586206897 399.88965517241377 L 436.0827586206897 399.88965517241377 L 432.55172413793105 409.6 L 432.55172413793105 409.6 L 428.13793103448273 418.42758620689654 L 428.13793103448273 418.42758620689654 L 419.3103448275862 420.19310344827585 L 419.3103448275862 420.19310344827585 L 408.71724137931034 422.84137931034485 L 408.71724137931034 422.84137931034485 L 400.77241379310345 429.90344827586205 L 400.77241379310345 429.90344827586205 L 393.7103448275862 435.2 L 393.7103448275862 435.2 L 384.88275862068963 433.4344827586207 L 384.88275862068963 433.4344827586207 L 374.2896551724138 430.78620689655173 L 374.2896551724138 430.78620689655173 L 363.6965517241379 433.4344827586207 L 363.6965517241379 433.4344827586207 L 354.8689655172414 435.2 L 354.8689655172414 435.2 L 347.80689655172415 429.90344827586205 L 347.80689655172415 429.90344827586205 L 339.86206896551727 422.84137931034485 L 339.86206896551727 422.84137931034485 L 329.2689655172414 420.19310344827585 L 329.2689655172414 420.19310344827585 L 320.4413793103448 418.42758620689654 L 320.4413793103448 418.42758620689654 L 316.02758620689656 409.6 L 316.02758620689656 409.6 L 312.49655172413793 399.88965517241377 L 312.49655172413793 399.88965517241377 L 303.66896551724136 393.7103448275862 L 303.66896551724136 393.7103448275862 L 296.60689655172416 387.5310344827586 L 296.60689655172416 387.5310344827586 L 296.60689655172416 376.93793103448274 L 296.60689655172416 376.93793103448274 L 296.60689655172416 366.3448275862069 L 296.60689655172416 366.3448275862069 L 292.19310344827585 357.51724137931035 L 292.19310344827585 357.51724137931035 L 287.7793103448276 347.80689655172415 L 287.7793103448276 347.80689655172415 L 292.19310344827585 338.09655172413795 L 292.19310344827585 338.09655172413795 L 296.60689655172416 329.2689655172414 L 296.60689655172416 329.2689655172414 L 296.60689655172416 318.6758620689655 L 296.60689655172416 318.6758620689655 L 295.7241379310345 308.0827586206897 L 295.7241379310345 308.0827586206897 L 303.66896551724136 301.90344827586205 L 303.66896551724136 301.90344827586205 L 312.49655172413793 295.7241379310345 L 312.49655172413793 295.7241379310345 L 316.02758620689656 286.0137931034483 L 316.02758620689656 286.0137931034483 L 320.4413793103448 277.1862068965517 L 320.4413793103448 277.1862068965517 L 329.2689655172414 275.4206896551724 L 329.2689655172414 275.4206896551724 L 339.86206896551727 272.77241379310345 L 339.86206896551727 272.77241379310345 Q 334.5655172413793 242.75862068965517 356.63448275862066 217.15862068965518 Q 364.5793103448276 209.21379310344827 374.2896551724138 204.8 L 374.2896551724138 192.44137931034481 L 374.2896551724138 192.44137931034481 L 388.41379310344826 164.19310344827585 L 388.41379310344826 164.19310344827585 L 374.2896551724138 135.94482758620688 L 374.2896551724138 135.94482758620688 L 375.17241379310343 104.1655172413793 L 375.17241379310343 104.1655172413793 L 350.4551724137931 85.62758620689655 L 350.4551724137931 85.62758620689655 L 338.09655172413795 56.49655172413793 L 338.09655172413795 56.49655172413793 L 308.0827586206897 50.317241379310346 L 308.0827586206897 50.317241379310346 L 284.24827586206897 30.013793103448275 L 284.24827586206897 30.013793103448275 L 254.2344827586207 37.95862068965517 L 254.2344827586207 37.95862068965517 L 224.2206896551724 30.013793103448275 L 224.2206896551724 30.013793103448275 L 200.38620689655173 50.317241379310346 L 200.38620689655173 50.317241379310346 L 170.37241379310345 56.49655172413793 L 170.37241379310345 56.49655172413793 L 158.01379310344828 85.62758620689655 L 158.01379310344828 85.62758620689655 L 133.29655172413794 104.1655172413793 L 133.29655172413794 104.1655172413793 L 134.1793103448276 135.94482758620688 L 134.1793103448276 135.94482758620688 Z M 495.22758620689655 292.19310344827585 Q 492.5793103448276 287.7793103448276 489.9310344827586 284.24827586206897 Q 482.8689655172414 273.6551724137931 473.15862068965515 263.06206896551726 Q 468.7448275862069 259.5310344827586 465.21379310344827 256 Q 448.4413793103448 241.87586206896552 431.66896551724136 234.81379310344826 Q 429.0206896551724 233.04827586206898 426.3724137931035 232.16551724137932 Q 426.3724137931035 232.16551724137932 426.3724137931035 232.16551724137932 Q 394.5931034482759 220.68965517241378 376.93793103448274 237.46206896551723 Q 367.22758620689655 247.17241379310346 367.22758620689655 263.06206896551726 Q 368.11034482758623 297.4896551724138 402.53793103448277 333.68275862068964 Q 427.2551724137931 357.51724137931035 452.8551724137931 365.46206896551723 Q 481.9862068965517 375.17241379310343 498.7586206896552 359.28275862068966 Q 504.93793103448274 353.9862068965517 506.70344827586206 345.15862068965515 Q 512 322.2068965517241 495.22758620689655 292.19310344827585 L 495.22758620689655 292.19310344827585 Z M 176.55172413793105 124.46896551724137 L 183.61379310344827 118.28965517241379 L 176.55172413793105 124.46896551724137 L 183.61379310344827 118.28965517241379 L 192.44137931034481 112.1103448275862 L 192.44137931034481 112.1103448275862 L 195.97241379310344 102.4 L 195.97241379310344 102.4 L 200.38620689655173 93.57241379310345 L 200.38620689655173 93.57241379310345 L 209.21379310344827 91.80689655172414 L 209.21379310344827 91.80689655172414 L 219.80689655172415 89.15862068965517 L 219.80689655172415 89.15862068965517 L 227.75172413793103 82.09655172413792 L 227.75172413793103 82.09655172413792 L 234.81379310344826 76.8 L 234.81379310344826 76.8 L 243.64137931034483 78.56551724137931 L 243.64137931034483 78.56551724137931 L 254.2344827586207 81.21379310344828 L 254.2344827586207 81.21379310344828 L 264.82758620689657 78.56551724137931 L 264.82758620689657 78.56551724137931 L 273.6551724137931 76.8 L 273.6551724137931 76.8 L 280.71724137931034 82.09655172413792 L 280.71724137931034 82.09655172413792 L 288.6620689655172 89.15862068965517 L 288.6620689655172 89.15862068965517 L 299.2551724137931 91.80689655172414 L 299.2551724137931 91.80689655172414 L 308.0827586206897 93.57241379310345 L 308.0827586206897 93.57241379310345 L 312.49655172413793 102.4 L 312.49655172413793 102.4 L 316.02758620689656 112.1103448275862 L 316.02758620689656 112.1103448275862 L 324.8551724137931 118.28965517241379 L 324.8551724137931 118.28965517241379 L 332.8 124.46896551724137 L 332.8 124.46896551724137 L 331.9172413793103 135.06206896551726 L 331.9172413793103 135.06206896551726 L 331.9172413793103 145.6551724137931 L 331.9172413793103 145.6551724137931 L 336.33103448275864 154.48275862068965 L 336.33103448275864 154.48275862068965 L 340.7448275862069 164.19310344827585 L 340.7448275862069 164.19310344827585 L 336.33103448275864 173.90344827586208 L 336.33103448275864 173.90344827586208 L 331.9172413793103 182.73103448275862 L 331.9172413793103 182.73103448275862 L 331.9172413793103 193.32413793103447 L 331.9172413793103 193.32413793103447 L 332.8 203.91724137931035 L 332.8 203.91724137931035 L 324.8551724137931 210.09655172413792 L 324.8551724137931 210.09655172413792 L 316.02758620689656 216.27586206896552 L 316.02758620689656 216.27586206896552 L 312.49655172413793 225.98620689655172 L 312.49655172413793 225.98620689655172 L 308.0827586206897 234.81379310344826 L 308.0827586206897 234.81379310344826 L 299.2551724137931 236.57931034482758 L 299.2551724137931 236.57931034482758 L 288.6620689655172 239.22758620689655 L 288.6620689655172 239.22758620689655 L 280.71724137931034 246.2896551724138 L 280.71724137931034 246.2896551724138 L 273.6551724137931 252.46896551724137 L 273.6551724137931 252.46896551724137 L 264.82758620689657 249.8206896551724 L 264.82758620689657 249.8206896551724 L 254.2344827586207 247.17241379310346 L 254.2344827586207 247.17241379310346 L 243.64137931034483 249.8206896551724 L 243.64137931034483 249.8206896551724 L 234.81379310344826 252.46896551724137 L 234.81379310344826 252.46896551724137 L 227.75172413793103 246.2896551724138 L 227.75172413793103 246.2896551724138 L 219.80689655172415 239.22758620689655 L 219.80689655172415 239.22758620689655 L 209.21379310344827 236.57931034482758 L 209.21379310344827 236.57931034482758 L 200.38620689655173 234.81379310344826 L 200.38620689655173 234.81379310344826 L 195.97241379310344 225.98620689655172 L 195.97241379310344 225.98620689655172 L 192.44137931034481 216.27586206896552 L 192.44137931034481 216.27586206896552 L 183.61379310344827 210.09655172413792 L 183.61379310344827 210.09655172413792 L 176.55172413793105 203.91724137931035 L 176.55172413793105 203.91724137931035 L 176.55172413793105 193.32413793103447 L 176.55172413793105 193.32413793103447 L 176.55172413793105 182.73103448275862 L 176.55172413793105 182.73103448275862 L 172.13793103448276 173.90344827586208 L 172.13793103448276 173.90344827586208 L 167.72413793103448 164.19310344827585 L 167.72413793103448 164.19310344827585 L 172.13793103448276 154.48275862068965 L 172.13793103448276 154.48275862068965 L 176.55172413793105 145.6551724137931 L 176.55172413793105 145.6551724137931 L 176.55172413793105 135.06206896551726 L 176.55172413793105 135.06206896551726 L 176.55172413793105 124.46896551724137 L 176.55172413793105 124.46896551724137 Z M 56.49655172413793 308.0827586206897 L 63.55862068965517 301.90344827586205 L 56.49655172413793 308.0827586206897 L 63.55862068965517 301.90344827586205 L 72.38620689655173 295.7241379310345 L 72.38620689655173 295.7241379310345 L 75.91724137931034 286.0137931034483 L 75.91724137931034 286.0137931034483 L 80.33103448275862 277.1862068965517 L 80.33103448275862 277.1862068965517 L 89.15862068965517 275.4206896551724 L 89.15862068965517 275.4206896551724 L 99.75172413793103 272.77241379310345 L 99.75172413793103 272.77241379310345 L 107.69655172413793 265.7103448275862 L 107.69655172413793 265.7103448275862 L 114.75862068965517 260.41379310344826 L 114.75862068965517 260.41379310344826 L 123.58620689655173 262.17931034482757 L 123.58620689655173 262.17931034482757 L 134.1793103448276 264.82758620689657 L 134.1793103448276 264.82758620689657 L 144.77241379310345 262.17931034482757 L 144.77241379310345 262.17931034482757 L 153.6 260.41379310344826 L 153.6 260.41379310344826 L 160.66206896551725 265.7103448275862 L 160.66206896551725 265.7103448275862 L 168.60689655172413 272.77241379310345 L 168.60689655172413 272.77241379310345 L 179.2 275.4206896551724 L 179.2 275.4206896551724 L 188.02758620689656 277.1862068965517 L 188.02758620689656 277.1862068965517 L 192.44137931034481 286.0137931034483 L 192.44137931034481 286.0137931034483 L 195.97241379310344 295.7241379310345 L 195.97241379310344 295.7241379310345 L 204.8 301.90344827586205 L 204.8 301.90344827586205 L 212.7448275862069 308.0827586206897 L 212.7448275862069 308.0827586206897 L 211.86206896551724 318.6758620689655 L 211.86206896551724 318.6758620689655 L 211.86206896551724 329.2689655172414 L 211.86206896551724 329.2689655172414 L 216.27586206896552 338.09655172413795 L 216.27586206896552 338.09655172413795 L 221.57241379310344 347.80689655172415 L 221.57241379310344 347.80689655172415 L 216.27586206896552 357.51724137931035 L 216.27586206896552 357.51724137931035 L 211.86206896551724 366.3448275862069 L 211.86206896551724 366.3448275862069 L 211.86206896551724 376.93793103448274 L 211.86206896551724 376.93793103448274 L 212.7448275862069 387.5310344827586 L 212.7448275862069 387.5310344827586 L 204.8 393.7103448275862 L 204.8 393.7103448275862 L 195.97241379310344 399.88965517241377 L 195.97241379310344 399.88965517241377 L 192.44137931034481 409.6 L 192.44137931034481 409.6 L 188.02758620689656 418.42758620689654 L 188.02758620689656 418.42758620689654 L 179.2 420.19310344827585 L 179.2 420.19310344827585 L 168.60689655172413 422.84137931034485 L 168.60689655172413 422.84137931034485 L 160.66206896551725 429.90344827586205 L 160.66206896551725 429.90344827586205 L 153.6 435.2 L 153.6 435.2 L 144.77241379310345 433.4344827586207 L 144.77241379310345 433.4344827586207 L 134.1793103448276 430.78620689655173 L 134.1793103448276 430.78620689655173 L 123.58620689655173 433.4344827586207 L 123.58620689655173 433.4344827586207 L 114.75862068965517 435.2 L 114.75862068965517 435.2 L 107.69655172413793 429.90344827586205 L 107.69655172413793 429.90344827586205 L 99.75172413793103 422.84137931034485 L 99.75172413793103 422.84137931034485 L 89.15862068965517 420.19310344827585 L 89.15862068965517 420.19310344827585 L 80.33103448275862 418.42758620689654 L 80.33103448275862 418.42758620689654 L 75.91724137931034 409.6 L 75.91724137931034 409.6 L 72.38620689655173 399.88965517241377 L 72.38620689655173 399.88965517241377 L 63.55862068965517 393.7103448275862 L 63.55862068965517 393.7103448275862 L 56.49655172413793 387.5310344827586 L 56.49655172413793 387.5310344827586 L 56.49655172413793 376.93793103448274 L 56.49655172413793 376.93793103448274 L 56.49655172413793 366.3448275862069 L 56.49655172413793 366.3448275862069 L 52.08275862068965 357.51724137931035 L 52.08275862068965 357.51724137931035 L 47.66896551724138 347.80689655172415 L 47.66896551724138 347.80689655172415 L 52.08275862068965 338.09655172413795 L 52.08275862068965 338.09655172413795 L 56.49655172413793 329.2689655172414 L 56.49655172413793 329.2689655172414 L 56.49655172413793 318.6758620689655 L 56.49655172413793 318.6758620689655 L 55.61379310344827 308.0827586206897 L 56.49655172413793 308.0827586206897 Z M 98.86896551724138 340.7448275862069 Q 97.98620689655172 327.50344827586207 84.7448275862069 326.62068965517244 Q 71.50344827586207 327.50344827586207 70.62068965517241 340.7448275862069 Q 71.50344827586207 353.9862068965517 84.7448275862069 354.8689655172414 Q 97.98620689655172 353.9862068965517 98.86896551724138 340.7448275862069 L 98.86896551724138 340.7448275862069 Z M 141.24137931034483 354.8689655172414 Q 154.48275862068965 353.9862068965517 155.3655172413793 340.7448275862069 Q 154.48275862068965 327.50344827586207 141.24137931034483 326.62068965517244 Q 128 327.50344827586207 127.11724137931034 340.7448275862069 Q 128 353.9862068965517 141.24137931034483 354.8689655172414 L 141.24137931034483 354.8689655172414 Z M 127.11724137931034 397.2413793103448 Q 126.23448275862069 384 112.99310344827586 383.11724137931037 Q 99.75172413793103 384 98.86896551724138 397.2413793103448 Q 99.75172413793103 410.48275862068965 112.99310344827586 411.36551724137934 Q 126.23448275862069 410.48275862068965 127.11724137931034 397.2413793103448 L 127.11724137931034 397.2413793103448 Z M 324.8551724137931 354.8689655172414 Q 338.09655172413795 353.9862068965517 338.9793103448276 340.7448275862069 Q 338.09655172413795 327.50344827586207 324.8551724137931 326.62068965517244 Q 311.6137931034483 327.50344827586207 310.7310344827586 340.7448275862069 Q 311.6137931034483 353.9862068965517 324.8551724137931 354.8689655172414 L 324.8551724137931 354.8689655172414 Z M 367.22758620689655 397.2413793103448 Q 366.3448275862069 384 353.1034482758621 383.11724137931037 Q 339.86206896551727 384 338.9793103448276 397.2413793103448 Q 339.86206896551727 410.48275862068965 353.1034482758621 411.36551724137934 Q 366.3448275862069 410.48275862068965 367.22758620689655 397.2413793103448 L 367.22758620689655 397.2413793103448 Z M 197.73793103448276 185.3793103448276 Q 210.97931034482758 184.49655172413793 211.86206896551724 171.2551724137931 Q 210.97931034482758 158.01379310344828 197.73793103448276 157.13103448275862 Q 184.49655172413793 158.01379310344828 183.61379310344827 171.2551724137931 Q 184.49655172413793 184.49655172413793 197.73793103448276 185.3793103448276 L 197.73793103448276 185.3793103448276 Z" />
</svg>