<svg viewBox="0 0 445 509">
  <path
    d="M 32 0 L 0 0 L 0 32 L 0 192 L 0 288 L 0 320 L 64 320 L 64 288 L 64 224 L 115 224 L 243 352 L 153 441 L 131 464 L 176 509 L 199 487 L 288 397 L 377 487 L 400 509 L 445 464 L 423 441 L 333 352 L 423 263 L 445 240 L 400 195 L 377 217 L 288 307 L 202 221 Q 240 211 264 182 Q 287 152 288 112 Q 287 64 255 33 Q 224 1 176 0 L 32 0 L 32 0 Z M 176 160 L 64 160 L 64 64 L 176 64 Q 196 65 210 78 Q 223 92 224 112 Q 223 132 210 146 Q 196 159 176 160 L 176 160 Z"
  />
</svg>