<svg xmlns="http://www.w3.org/2000/svg" viewBox="0 0 640 352">
    <path d="M 80 116 L 80 208 L 137 208 L 80 116 L 80 116 Z M 64 0 L 80 26 L 160 154 L 160 48 L 160 39 L 160 20 L 160 0 L 192 0 L 208 26 L 288 154 L 288 48 L 288 39 L 288 20 L 288 0 L 320 0 L 336 26 L 416 154 L 416 48 L 416 39 L 416 20 L 416 0 L 448 0 L 464 26 L 578 208 L 608 256 L 551 256 L 480 256 L 464 256 L 423 256 L 416 256 L 352 256 L 336 256 L 295 256 L 288 256 L 224 256 L 208 256 L 167 256 L 160 256 L 80 256 L 32 256 L 32 208 L 32 48 L 32 39 L 32 20 L 32 0 L 64 0 L 64 0 Z M 0 304 L 24 304 L 616 304 L 640 304 L 640 352 L 616 352 L 24 352 L 0 352 L 0 304 L 0 304 Z M 208 208 L 265 208 L 208 116 L 208 208 L 208 208 Z M 336 116 L 336 208 L 393 208 L 336 116 L 336 116 Z M 464 208 L 521 208 L 464 116 L 464 208 L 464 208 Z"/>
</svg>
