<svg xmlns="http://www.w3.org/2000/svg" viewBox="0 0 529 524">
    <path d="M 295 40 Q 319 65 357 86 L 357 86 Q 394 108 427 117 Q 469 128 498 165 Q 529 209 522 260 Q 514 310 471 344 Q 444 364 413 368 Q 384 372 354 390 Q 325 408 310 433 Q 274 491 212 508 Q 151 524 91 492 Q 33 456 16 395 Q 0 333 32 273 Q 51 240 62 198 Q 72 156 76 118 Q 79 72 114 37 Q 154 0 206 1 Q 257 2 295 40 L 295 40 Z M 347 241 Q 347 211 332 185 L 332 185 Q 317 159 291 144 Q 265 129 235 129 Q 205 129 179 144 Q 153 159 138 185 Q 123 211 123 241 Q 123 271 138 297 Q 153 323 179 338 Q 205 353 235 353 Q 265 353 291 338 Q 317 323 332 297 Q 347 271 347 241 L 347 241 Z M 187 241 L 155 241 Q 156 207 178 184 Q 201 162 235 161 L 235 193 Q 215 194 201 207 Q 188 221 187 241 L 187 241 Z"/>
</svg>
