<svg xmlns="http://www.w3.org/2000/svg" viewBox="0 0 512 512">
  <path d="M 0 51.2 L 0 89.6 L 0 51.2 L 0 89.6 L 25.6 89.6 L 25.6 89.6 L 25.6 166.4 L 25.6 166.4 L 0 166.4 L 0 166.4 L 0 204.8 L 0 204.8 L 281.6 204.8 L 281.6 204.8 L 281.6 166.4 L 281.6 166.4 L 256 166.4 L 256 166.4 L 256 89.6 L 256 89.6 L 281.6 89.6 L 281.6 89.6 L 281.6 51.2 L 281.6 51.2 L 0 51.2 L 0 51.2 Z M 217.6 166.4 L 192 166.4 L 217.6 166.4 L 192 166.4 L 192 89.6 L 192 89.6 L 217.6 89.6 L 217.6 89.6 L 217.6 166.4 L 217.6 166.4 Z M 128 89.6 L 153.6 89.6 L 128 89.6 L 153.6 89.6 L 153.6 166.4 L 153.6 166.4 L 128 166.4 L 128 166.4 L 128 89.6 L 128 89.6 Z M 89.6 166.4 L 64 166.4 L 89.6 166.4 L 64 166.4 L 64 89.6 L 64 89.6 L 89.6 89.6 L 89.6 89.6 L 89.6 166.4 L 89.6 166.4 Z M 326.4 128 L 307.2 128 L 326.4 128 L 307.2 128 L 307.2 147.2 L 307.2 147.2 L 307.2 230.4 L 307.2 230.4 L 19.2 230.4 L 0 230.4 L 0 249.6 L 0 249.6 L 0 364.8 L 0 364.8 L 0 384 L 0 384 L 19.2 384 L 51.2 384 Q 52 416.8 73.6 438.4 Q 95.2 460 128 460.8 Q 160.8 460 182.4 438.4 Q 204 416.8 204.8 384 L 307.2 384 L 307.2 384 Q 308 416.8 329.6 438.4 Q 351.2 460 384 460.8 Q 416.8 460 438.4 438.4 Q 460 416.8 460.8 384 L 492.8 384 L 512 384 L 512 364.8 L 512 364.8 L 512 243.2 L 512 243.2 L 512 236.8 L 512 236.8 L 508 231.2 L 508 231.2 L 431.2 135.2 L 431.2 135.2 L 425.6 128 L 425.6 128 L 416 128 L 326.4 128 Z M 61.6 345.6 L 38.4 345.6 L 61.6 345.6 L 38.4 345.6 L 38.4 268.8 L 38.4 268.8 L 307.2 268.8 L 473.6 268.8 L 473.6 345.6 L 473.6 345.6 L 450.4 345.6 L 450.4 345.6 Q 440 328 423.2 317.6 Q 405.6 307.2 384 307.2 Q 362.4 307.2 344.8 317.6 Q 328 328 317.6 345.6 L 194.4 345.6 L 194.4 345.6 Q 184 328 167.2 317.6 Q 149.6 307.2 128 307.2 Q 106.4 307.2 88.8 317.6 Q 72 328 61.6 345.6 L 61.6 345.6 Z M 345.6 230.4 L 345.6 166.4 L 345.6 230.4 L 345.6 166.4 L 407.2 166.4 L 407.2 166.4 L 458.4 230.4 L 458.4 230.4 L 345.6 230.4 L 345.6 230.4 Z M 89.6 384 Q 90.4 362.4 108.8 350.4 Q 128 340.8 147.2 350.4 Q 165.6 362.4 166.4 384 Q 165.6 405.6 147.2 417.6 Q 128 427.2 108.8 417.6 Q 90.4 405.6 89.6 384 L 89.6 384 Z M 384 345.6 Q 405.6 346.4 417.6 364.8 Q 427.2 384 417.6 403.2 Q 405.6 421.6 384 422.4 Q 362.4 421.6 350.4 403.2 Q 340.8 384 350.4 364.8 Q 362.4 346.4 384 345.6 L 384 345.6 Z" />
</svg>