<svg xmlns="http://www.w3.org/2000/svg" viewBox="0 0 512 512">
  <path d="M 128 128 L 128 140.8 L 128 128 L 128 140.8 L 211.2 140.8 L 230.4 140.8 L 230.4 179.2 L 230.4 179.2 L 211.2 179.2 L 0 179.2 L 0 140.8 L 0 140.8 L 19.2 140.8 L 89.6 140.8 L 89.6 128 L 89.6 128 L 128 128 L 128 128 Z M 422.4 179.2 L 384 179.2 L 422.4 179.2 L 281.6 179.2 L 281.6 140.8 L 281.6 140.8 L 300.8 140.8 L 384 140.8 L 384 128 L 384 128 L 422.4 128 L 422.4 128 L 422.4 140.8 L 422.4 140.8 L 492.8 140.8 L 512 140.8 L 512 179.2 L 512 179.2 L 492.8 179.2 L 422.4 179.2 Z M 89.6 256 L 89.6 204.8 L 89.6 256 L 89.6 204.8 L 128 204.8 L 128 204.8 L 128 244.8 L 128 244.8 L 136.8 248.8 L 136.8 248.8 L 175.2 227.2 L 175.2 227.2 Q 212.8 204.8 256 204.8 Q 299.2 204.8 337.6 227.2 L 375.2 248.8 L 375.2 248.8 L 384 244.8 L 384 244.8 L 384 204.8 L 384 204.8 L 422.4 204.8 L 422.4 204.8 L 422.4 256 L 422.4 256 L 422.4 267.2 L 422.4 267.2 L 412 272.8 L 412 272.8 L 371.2 294.4 L 371.2 294.4 L 392.8 320.8 L 392.8 320.8 L 396.8 325.6 L 396.8 325.6 L 396.8 332.8 L 396.8 332.8 L 396.8 364.8 L 396.8 364.8 L 396.8 384 L 396.8 384 L 358.4 384 L 358.4 384 L 358.4 364.8 L 358.4 364.8 L 358.4 340 L 358.4 340 L 336 313.6 L 336 313.6 L 303.2 330.4 L 303.2 330.4 L 299.2 332.8 L 299.2 332.8 L 294.4 332.8 L 212.8 332.8 L 208.8 330.4 L 208.8 330.4 L 176 313.6 L 176 313.6 L 153.6 340 L 153.6 340 L 153.6 364.8 L 153.6 364.8 L 153.6 384 L 153.6 384 L 115.2 384 L 115.2 384 L 115.2 364.8 L 115.2 364.8 L 115.2 332.8 L 115.2 332.8 L 115.2 325.6 L 115.2 325.6 L 120 320.8 L 120 320.8 L 140.8 294.4 L 140.8 294.4 L 100 272.8 L 100 272.8 L 89.6 267.2 L 89.6 267.2 L 89.6 256 L 89.6 256 Z M 335.2 270.4 L 317.6 260 L 335.2 270.4 L 317.6 260 Q 288.8 243.2 256 243.2 Q 223.2 243.2 194.4 260 L 176.8 270.4 L 176.8 270.4 L 222.4 294.4 L 222.4 294.4 L 289.6 294.4 L 289.6 294.4 L 335.2 270.4 L 335.2 270.4 Z" />
</svg>