<svg xmlns="http://www.w3.org/2000/svg" viewBox="0 0 512 512">
  <path d="M 399.6489 78.64577 L 409.279 69.818184 L 399.6489 78.64577 L 409.279 69.818184 L 390.82132 51.3605 L 390.82132 51.3605 L 381.99374 60.990597 L 381.99374 60.990597 L 340.26334 101.918495 L 340.26334 101.918495 L 178.95924 101.918495 L 166.11913 101.918495 L 166.11913 114.75862 L 166.11913 114.75862 L 166.11913 294.5204 L 166.11913 294.5204 L 166.11913 307.3605 L 166.11913 307.3605 L 178.95924 307.3605 L 268.84012 307.3605 L 268.84012 294.5204 L 268.84012 294.5204 L 268.84012 230.31975 L 268.84012 230.31975 L 384.40125 230.31975 L 384.40125 230.31975 L 384.40125 281.68024 L 384.40125 281.68024 L 371.56113 281.68024 L 358.721 281.68024 L 358.721 294.5204 L 358.721 294.5204 L 358.721 339.46082 L 358.721 339.46082 L 333.04074 339.46082 L 320.20062 339.46082 L 320.20062 352.30093 L 320.20062 352.30093 L 320.20062 384.40125 L 320.20062 384.40125 L 307.3605 384.40125 L 173.34169 384.40125 L 170.13167 388.4138 L 170.13167 388.4138 L 125.19122 433.35422 L 125.19122 433.35422 L 115.56113 442.18182 L 115.56113 442.18182 L 134.01881 460.6395 L 134.01881 460.6395 L 142.84639 451.0094 L 142.84639 451.0094 L 184.5768 410.0815 L 184.5768 410.0815 L 256 410.0815 L 345.8809 410.0815 L 345.8809 397.2414 L 345.8809 397.2414 L 345.8809 365.14105 L 345.8809 365.14105 L 371.56113 365.14105 L 384.40125 365.14105 L 384.40125 352.30093 L 384.40125 352.30093 L 384.40125 307.3605 L 384.40125 307.3605 L 397.2414 307.3605 L 410.0815 307.3605 L 410.0815 294.5204 L 410.0815 294.5204 L 410.0815 274.45767 L 410.0815 274.45767 L 410.0815 237.54231 L 410.0815 237.54231 L 410.0815 217.47963 L 410.0815 217.47963 L 410.0815 204.6395 L 410.0815 204.6395 L 397.2414 204.6395 L 268.84012 204.6395 L 268.84012 185.3793 L 268.84012 185.3793 L 268.84012 172.53918 L 268.84012 172.53918 L 243.15988 172.53918 L 243.15988 172.53918 L 243.15988 185.3793 L 243.15988 185.3793 L 243.15988 281.68024 L 243.15988 281.68024 L 191.79938 281.68024 L 191.79938 281.68024 L 191.79938 127.59875 L 191.79938 127.59875 L 345.8809 127.59875 L 351.49844 127.59875 L 354.70847 123.586205 L 354.70847 123.586205 L 399.6489 78.64577 L 399.6489 78.64577 Z M 435.76175 211.86208 L 435.76175 248.77744 L 435.76175 211.86208 L 435.76175 248.77744 L 502.3699 181.36678 L 502.3699 181.36678 L 512 172.53918 L 512 172.53918 L 493.54233 154.0815 L 493.54233 154.0815 L 484.71472 163.7116 L 484.71472 163.7116 L 435.76175 211.86208 L 435.76175 211.86208 Z M 89.07837 153.27899 L 76.23824 153.27899 L 89.07837 153.27899 L 76.23824 153.27899 L 76.23824 166.11913 L 76.23824 166.11913 L 76.23824 263.22256 L 76.23824 263.22256 L 9.630094 330.63324 L 9.630094 330.63324 L 0 339.46082 L 0 339.46082 L 18.45768 357.9185 L 18.45768 357.9185 L 27.285267 348.2884 L 27.285267 348.2884 L 97.90595 277.66772 L 97.90595 277.66772 L 101.918495 274.45767 L 101.918495 274.45767 L 101.918495 268.84012 L 101.918495 268.84012 L 101.918495 178.95924 L 101.918495 178.95924 L 140.43887 178.95924 L 140.43887 178.95924 L 140.43887 153.27899 L 140.43887 153.27899 L 89.07837 153.27899 L 89.07837 153.27899 Z" />
</svg>