<svg xmlns="http://www.w3.org/2000/svg" viewBox="0 0 512 512">
  <path d="M 56.440945 223.74803 Q 138.4147 151.1811 255.32808 148.49344 Q 372.24146 151.1811 454.2152 223.74803 L 512 159.2441 L 512 159.2441 Q 459.59055 113.5538 395.0866 88.020996 Q 329.23883 62.48819 255.32808 62.48819 Q 181.41733 62.48819 115.56956 88.020996 Q 51.065617 113.5538 0 159.2441 L 56.440945 223.74803 L 56.440945 223.74803 Z M 255.32808 449.5118 Q 303.70602 448.16797 329.23883 406.5092 Q 353.42783 363.50656 329.23883 320.50394 Q 303.70602 278.84515 255.32808 277.5013 Q 206.95013 278.84515 181.41733 320.50394 Q 157.22835 363.50656 181.41733 406.5092 Q 206.95013 448.16797 255.32808 449.5118 L 255.32808 449.5118 Z" />
</svg>