<svg xmlns="http://www.w3.org/2000/svg" viewBox="0 0 512 512">
  <path d="M 418.45187 209.22594 Q 417.44598 279.63852 378.2161 332.9509 L 489.87033 443.5992 L 489.87033 443.5992 L 512 466.73477 L 512 466.73477 L 466.73477 512 L 466.73477 512 L 443.5992 489.87033 L 443.5992 489.87033 L 332.9509 378.2161 L 332.9509 378.2161 Q 279.63852 417.44598 209.22594 418.45187 Q 120.70727 416.44006 61.359528 357.09235 Q 2.011788 297.7446 0 209.22594 Q 2.011788 120.70727 61.359528 61.359528 Q 120.70727 2.011788 209.22594 0 Q 297.7446 2.011788 357.09235 61.359528 Q 416.44006 120.70727 418.45187 209.22594 L 418.45187 209.22594 Z M 104.61297 217.27309 L 104.61297 281.6503 L 104.61297 217.27309 L 104.61297 281.6503 L 104.61297 305.79175 L 104.61297 305.79175 L 152.89587 305.79175 L 152.89587 305.79175 L 152.89587 281.6503 L 152.89587 281.6503 L 152.89587 217.27309 L 152.89587 217.27309 L 152.89587 193.13164 L 152.89587 193.13164 L 104.61297 193.13164 L 104.61297 193.13164 L 104.61297 217.27309 L 104.61297 217.27309 Z M 185.08447 120.70727 L 185.08447 281.6503 L 185.08447 120.70727 L 185.08447 281.6503 L 185.08447 305.79175 L 185.08447 305.79175 L 233.36739 305.79175 L 233.36739 305.79175 L 233.36739 281.6503 L 233.36739 281.6503 L 233.36739 120.70727 L 233.36739 120.70727 L 233.36739 96.56582 L 233.36739 96.56582 L 185.08447 96.56582 L 185.08447 96.56582 L 185.08447 120.70727 L 185.08447 120.70727 Z M 265.556 185.08447 L 265.556 281.6503 L 265.556 185.08447 L 265.556 281.6503 L 265.556 305.79175 L 265.556 305.79175 L 313.8389 305.79175 L 313.8389 305.79175 L 313.8389 281.6503 L 313.8389 281.6503 L 313.8389 185.08447 L 313.8389 185.08447 L 313.8389 160.94302 L 313.8389 160.94302 L 265.556 160.94302 L 265.556 160.94302 L 265.556 185.08447 L 265.556 185.08447 Z" />
</svg>