<svg viewBox="0 0 576 448">
  <path
    d="M 576 0 L 544 0 L 544 28 L 32 156 L 32 144 L 32 128 L 0 128 L 0 144 L 0 164 L 0 176 L 0 272 L 0 285 L 0 304 L 0 320 L 32 320 L 32 304 L 32 293 L 164 325 Q 160 338 160 352 Q 161 393 188 420 Q 215 447 256 448 Q 291 447 317 426 Q 342 405 350 372 L 544 421 L 544 448 L 576 448 L 576 408 L 576 40 L 576 0 L 576 0 Z M 544 388 L 32 260 L 32 189 L 544 61 L 544 388 L 544 388 Z M 192 352 Q 192 342 195 333 L 319 364 Q 314 387 297 401 Q 280 416 256 416 Q 229 415 211 397 Q 193 379 192 352 L 192 352 Z"
  />
</svg>