<svg xmlns="http://www.w3.org/2000/svg" viewBox="0 0 448 512">
    <path d="M 160 0 L 151 0 L 146 8 L 111 64 L 64 64 L 32 64 L 0 64 L 0 96 L 32 96 L 32 480 L 32 512 L 64 512 L 384 512 L 416 512 L 416 480 L 416 96 L 448 96 L 448 64 L 416 64 L 384 64 L 337 64 L 302 8 L 297 0 L 288 0 L 160 0 L 160 0 Z M 299 64 L 149 64 L 169 32 L 279 32 L 299 64 L 299 64 Z M 64 480 L 64 96 L 384 96 L 384 480 L 64 480 L 64 480 Z M 240 192 L 208 192 L 208 208 L 208 272 L 144 272 L 128 272 L 128 304 L 144 304 L 208 304 L 208 368 L 208 384 L 240 384 L 240 368 L 240 304 L 304 304 L 320 304 L 320 272 L 304 272 L 240 272 L 240 208 L 240 192 L 240 192 Z"/>
</svg>
