<svg xmlns="http://www.w3.org/2000/svg" viewBox="0 0 512 512">
  <path d="M 383.4046511627907 52.78759689922481 Q 458.02170542635656 54.375193798449615 485.0108527131783 65.48837209302326 L 485.0108527131783 65.48837209302326 L 485.0108527131783 65.48837209302326 Q 512 76.6015503875969 510.4124031007752 78.18914728682171 L 510.4124031007752 154.3937984496124 L 510.4124031007752 154.3937984496124 L 408.8062015503876 383.0077519379845 L 408.8062015503876 383.0077519379845 L 358.0031007751938 383.0077519379845 L 358.0031007751938 383.0077519379845 L 256.3968992248062 154.3937984496124 L 256.3968992248062 154.3937984496124 L 256.3968992248062 78.18914728682171 L 256.3968992248062 78.18914728682171 Q 254.8093023255814 76.6015503875969 281.7984496124031 65.48837209302326 Q 308.7875968992248 54.375193798449615 383.4046511627907 52.78759689922481 L 383.4046511627907 52.78759689922481 Z M 485.0108527131783 92.47751937984496 Q 481.8356589147287 90.88992248062016 477.07286821705424 89.30232558139535 Q 454.846511627907 79.77674418604651 383.4046511627907 78.18914728682171 Q 311.9627906976744 79.77674418604651 289.73643410852713 89.30232558139535 Q 284.97364341085273 90.88992248062016 281.7984496124031 92.47751937984496 L 281.7984496124031 148.8372093023256 L 281.7984496124031 148.8372093023256 L 281.7984496124031 149.63100775193797 L 281.7984496124031 149.63100775193797 Q 284.1798449612403 148.8372093023256 286.5612403100775 148.04341085271318 L 288.1488372093023 160.74418604651163 L 288.1488372093023 160.74418604651163 Q 286.5612403100775 152.0124031007752 286.5612403100775 149.63100775193797 Q 286.5612403100775 148.04341085271318 286.5612403100775 148.04341085271318 L 286.5612403100775 148.04341085271318 L 286.5612403100775 148.04341085271318 L 286.5612403100775 148.04341085271318 L 286.5612403100775 148.04341085271318 L 286.5612403100775 148.04341085271318 L 286.5612403100775 148.04341085271318 L 286.5612403100775 148.04341085271318 L 286.5612403100775 148.04341085271318 L 286.5612403100775 148.04341085271318 L 286.5612403100775 148.04341085271318 L 288.1488372093023 148.04341085271318 L 288.1488372093023 148.04341085271318 Q 290.5302325581395 148.04341085271318 293.70542635658916 147.24961240310077 Q 301.6434108527132 146.45581395348836 315.13798449612403 144.86821705426357 Q 342.12713178294575 142.48682170542637 383.4046511627907 141.69302325581396 Q 424.6821705426357 141.69302325581396 451.67131782945734 144.86821705426357 Q 465.1658914728682 146.45581395348836 473.10387596899227 147.24961240310077 Q 476.27906976744185 148.04341085271318 478.66046511627906 148.04341085271318 L 480.2480620155039 148.04341085271318 L 480.2480620155039 148.04341085271318 L 480.2480620155039 148.04341085271318 L 480.2480620155039 148.04341085271318 L 480.2480620155039 148.04341085271318 L 480.2480620155039 148.04341085271318 L 480.2480620155039 148.04341085271318 L 480.2480620155039 148.04341085271318 L 480.2480620155039 148.04341085271318 L 480.2480620155039 148.04341085271318 L 480.2480620155039 148.04341085271318 L 480.2480620155039 148.04341085271318 Q 480.2480620155039 148.04341085271318 480.2480620155039 149.63100775193797 Q 480.2480620155039 152.0124031007752 478.66046511627906 160.74418604651163 L 480.2480620155039 148.04341085271318 L 480.2480620155039 148.04341085271318 Q 482.6294573643411 148.8372093023256 485.0108527131783 149.63100775193797 L 485.0108527131783 148.8372093023256 L 485.0108527131783 148.8372093023256 L 485.0108527131783 92.47751937984496 L 485.0108527131783 92.47751937984496 Z M 292.11782945736434 172.65116279069767 L 324.66356589147284 245.68062015503875 L 292.11782945736434 172.65116279069767 L 324.66356589147284 245.68062015503875 Q 350.06511627906974 243.29922480620155 383.4046511627907 243.29922480620155 Q 416.74418604651163 243.29922480620155 442.1457364341085 245.68062015503875 L 474.69147286821703 172.65116279069767 L 474.69147286821703 172.65116279069767 Q 473.89767441860465 172.65116279069767 473.10387596899227 172.65116279069767 Q 471.51627906976745 172.65116279069767 469.92868217054263 172.65116279069767 Q 462.784496124031 171.06356589147288 449.28992248062013 170.26976744186047 Q 423.09457364341085 167.09457364341085 383.4046511627907 167.09457364341085 Q 343.7147286821705 167.88837209302326 317.51937984496124 170.26976744186047 Q 304.0248062015504 171.06356589147288 296.88062015503874 172.65116279069767 Q 295.293023255814 172.65116279069767 293.70542635658916 172.65116279069767 Q 292.9116279069767 172.65116279069767 292.11782945736434 172.65116279069767 L 292.11782945736434 172.65116279069767 Z M 374.67286821705426 357.6062015503876 L 392.1364341085271 357.6062015503876 L 374.67286821705426 357.6062015503876 L 392.1364341085271 357.6062015503876 L 431.0325581395349 270.28837209302327 L 431.0325581395349 270.28837209302327 Q 409.6 268.70077519379845 383.4046511627907 268.70077519379845 Q 357.2093023255814 268.70077519379845 335.7767441860465 270.28837209302327 L 374.67286821705426 357.6062015503876 L 374.67286821705426 357.6062015503876 Z M 74.61705426356589 207.5782945736434 Q 127.8015503875969 155.9813953488372 154.7906976744186 144.86821705426357 L 154.7906976744186 144.86821705426357 L 154.7906976744186 144.86821705426357 Q 181.77984496124031 133.7550387596899 181.77984496124031 136.13643410852714 L 181.77984496124031 136.13643410852714 L 181.77984496124031 136.13643410852714 Q 181.77984496124031 136.13643410852714 181.77984496124031 136.13643410852714 L 235.75813953488372 190.11472868217055 L 235.75813953488372 190.11472868217055 L 325.4573643410853 423.49147286821704 L 325.4573643410853 423.49147286821704 L 289.73643410852713 459.2124031007752 L 289.73643410852713 459.2124031007752 L 56.35968992248062 369.51317829457366 L 56.35968992248062 369.51317829457366 L 2.3813953488372093 315.5348837209302 L 2.3813953488372093 315.5348837209302 Q 0 315.5348837209302 11.113178294573643 288.5457364341085 Q 22.226356589147287 261.55658914728684 74.61705426356589 207.5782945736434 L 74.61705426356589 207.5782945736434 Z M 174.63565891472868 163.91937984496124 Q 170.66666666666666 165.50697674418603 166.69767441860466 167.88837209302326 Q 143.67751937984497 176.6201550387597 92.08062015503876 225.83565891472867 Q 42.86511627906977 277.4325581395349 34.13333333333333 299.6589147286822 Q 31.751937984496124 304.4217054263566 30.95813953488372 307.5968992248062 Q 30.164341085271317 307.5968992248062 30.164341085271317 307.5968992248062 L 70.64806201550388 348.0806201550388 L 70.64806201550388 348.0806201550388 Q 71.44186046511628 346.49302325581397 75.4108527131783 340.9364341085271 Q 76.9984496124031 338.5550387596899 77.7922480620155 337.76124031007754 Q 77.7922480620155 337.76124031007754 77.7922480620155 337.76124031007754 Q 82.55503875968992 331.4108527131783 90.49302325581395 321.09147286821707 Q 107.95658914728682 300.4527131782946 137.32713178294574 271.08217054263565 Q 166.69767441860466 241.71162790697673 187.33643410852713 224.24806201550388 Q 197.65581395348838 216.31007751937983 204.0062015503876 211.54728682170543 Q 205.5937984496124 209.9596899224806 207.1813953488372 209.16589147286822 Q 207.97519379844962 208.37209302325581 208.768992248062 207.5782945736434 L 209.56279069767442 206.784496124031 L 209.56279069767442 206.784496124031 L 210.35658914728683 206.784496124031 L 210.35658914728683 206.784496124031 L 210.35658914728683 206.784496124031 L 210.35658914728683 206.784496124031 L 210.35658914728683 206.784496124031 L 210.35658914728683 206.784496124031 Q 211.94418604651162 205.1968992248062 214.32558139534885 204.4031007751938 L 213.53178294573644 204.4031007751938 L 213.53178294573644 204.4031007751938 L 173.84186046511627 163.91937984496124 L 174.63565891472868 163.91937984496124 Z M 210.35658914728683 206.784496124031 L 218.29457364341084 216.31007751937983 L 210.35658914728683 206.784496124031 L 218.29457364341084 216.31007751937983 Q 212.73798449612403 209.16589147286822 211.15038759689924 207.5782945736434 Q 210.35658914728683 205.9906976744186 210.35658914728683 206.784496124031 L 210.35658914728683 206.784496124031 Z M 95.25581395348837 356.8124031007752 L 169.07906976744187 385.3891472868217 L 95.25581395348837 356.8124031007752 L 169.07906976744187 385.3891472868217 Q 184.95503875968993 366.337984496124 208.768992248062 342.52403100775194 Q 232.5829457364341 318.71007751937987 252.4279069767442 302.8341085271318 L 223.85116279069769 228.2170542635659 L 223.85116279069769 228.2170542635659 Q 222.26356589147287 229.01085271317828 219.88217054263566 231.3922480620155 Q 214.32558139534885 235.3612403100775 204.0062015503876 244.09302325581396 Q 183.3674418604651 260.7627906976744 154.7906976744186 288.5457364341085 Q 127.0077519379845 317.12248062015505 110.33798449612404 337.76124031007754 Q 102.4 347.28682170542635 97.63720930232559 352.8434108527132 Q 96.84341085271318 354.431007751938 96.04961240310078 355.2248062015504 Q 95.25581395348837 356.0186046511628 95.25581395348837 356.8124031007752 L 95.25581395348837 356.8124031007752 Z M 283.3860465116279 429.84186046511627 L 296.08682170542636 417.1410852713178 L 283.3860465116279 429.84186046511627 L 296.08682170542636 417.1410852713178 L 261.95348837209303 328.2356589147287 L 261.95348837209303 328.2356589147287 Q 245.28372093023256 341.73023255813956 227.0263565891473 360.78139534883724 Q 207.97519379844962 379.0387596899225 194.48062015503876 394.91472868217056 L 283.3860465116279 429.84186046511627 L 283.3860465116279 429.84186046511627 Z" />
</svg>