<svg xmlns="http://www.w3.org/2000/svg" viewBox="0 0 512 512">
  <path d="M 0 256 Q 1 186 34 128 L 34 128 L 34 128 Q 68 70 128 34 Q 189 0 256 0 Q 323 0 384 34 Q 444 70 478 128 Q 511 186 512 256 Q 511 326 478 384 Q 444 442 384 478 Q 323 512 256 512 Q 189 512 128 478 Q 68 442 34 384 Q 1 326 0 256 L 0 256 Z M 208 240 Q 208 238 208 236 L 219 239 L 219 239 L 234 244 L 234 244 L 244 214 L 244 214 L 229 209 L 229 209 L 133 177 L 133 177 L 118 172 L 118 172 L 108 202 L 108 202 L 123 207 L 123 207 L 154 217 L 154 217 Q 145 226 144 240 Q 145 254 154 263 Q 163 272 176 272 Q 190 272 199 263 Q 208 254 208 240 L 208 240 Z M 336 272 Q 350 272 359 263 L 359 263 L 359 263 Q 368 254 368 240 Q 368 226 359 217 L 389 207 L 389 207 L 404 202 L 404 202 L 394 172 L 394 172 L 379 177 L 379 177 L 283 209 L 283 209 L 268 214 L 268 214 L 278 244 L 278 244 L 293 239 L 293 239 L 305 235 L 305 235 Q 305 237 305 240 Q 305 254 314 263 Q 323 272 337 272 L 336 272 Z M 152 415 Q 197 385 256 384 Q 315 385 359 415 Q 355 374 326 347 Q 297 321 256 320 Q 214 321 185 347 Q 157 374 152 415 L 152 415 Z" />
</svg>