<svg xmlns="http://www.w3.org/2000/svg" viewBox="0 0 512 512">
  <path d="M 38.161490683229815 512 L 0 512 L 38.161490683229815 512 L 0 512 L 0 473.83850931677017 L 0 473.83850931677017 L 0 92.22360248447205 L 0 92.22360248447205 L 0 54.06211180124224 L 0 54.06211180124224 L 76.32298136645963 54.06211180124224 L 76.32298136645963 54.06211180124224 L 76.32298136645963 92.22360248447205 L 76.32298136645963 92.22360248447205 L 76.32298136645963 381.6149068322981 L 76.32298136645963 381.6149068322981 L 430.90683229813664 27.03105590062112 L 430.90683229813664 27.03105590062112 L 457.9378881987578 0 L 457.9378881987578 0 L 512 54.06211180124224 L 512 54.06211180124224 L 484.96894409937886 81.09316770186335 L 484.96894409937886 81.09316770186335 L 130.38509316770185 435.6770186335404 L 130.38509316770185 435.6770186335404 L 419.77639751552795 435.6770186335404 L 457.9378881987578 435.6770186335404 L 457.9378881987578 512 L 457.9378881987578 512 L 419.77639751552795 512 L 38.161490683229815 512 Z" />
</svg>