<svg xmlns="http://www.w3.org/2000/svg" viewBox="0 0 448 512">
    <path d="M 224 0 L 408 40 L 441 47 L 448 48 L 448 80 L 441 82 L 408 89 L 224 128 L 48 90 L 48 168 L 64 256 L 0 256 L 16 168 L 16 83 L 7 82 L 0 80 L 0 48 L 7 47 L 40 40 L 224 0 L 224 0 Z M 189 457 L 105 368 L 99 368 L 67 464 L 196 464 L 189 457 L 189 457 Z M 381 464 L 349 368 L 343 368 L 259 457 L 252 464 L 381 464 L 381 464 Z M 322 320 L 384 320 L 432 464 L 448 512 L 397 512 L 51 512 L 0 512 L 16 464 L 64 320 L 126 320 L 191 389 L 224 424 L 257 389 L 322 320 L 322 320 Z M 96 160 L 96 133 L 144 144 L 144 160 Q 145 194 167 217 Q 190 239 224 240 Q 258 239 281 217 Q 303 194 304 160 L 304 144 L 352 133 L 352 160 Q 351 214 315 251 Q 278 287 224 288 Q 170 287 133 251 Q 97 214 96 160 L 96 160 Z"/>
</svg>
