<svg xmlns="http://www.w3.org/2000/svg" viewBox="0 0 512 512">
  <path d="M 48 56 L 48 32 L 48 56 L 48 32 L 0 32 L 0 32 L 0 56 L 0 56 L 0 456 L 0 456 L 0 480 L 0 480 L 24 480 L 512 480 L 512 432 L 512 432 L 488 432 L 48 432 L 48 56 L 48 56 Z M 473 169 L 490 152 L 473 169 L 490 152 L 456 118 L 456 118 L 439 135 L 439 135 L 320 254 L 320 254 L 241 175 L 241 175 L 224 158 L 224 158 L 207 175 L 207 175 L 111 271 L 111 271 L 94 288 L 94 288 L 128 322 L 128 322 L 145 305 L 145 305 L 224 226 L 224 226 L 303 305 L 303 305 L 320 322 L 320 322 L 337 305 L 337 305 L 473 169 L 473 169 Z" />
</svg>