<svg xmlns="http://www.w3.org/2000/svg" viewBox="0 0 512 512">
  <path d="M 128 54 L 128 144 L 128 54 L 128 144 Q 129 198 165 235 Q 202 271 256 272 Q 310 271 347 235 Q 383 198 384 144 L 384 54 L 384 54 L 384 0 L 384 0 L 336 24 L 336 24 L 320 32 L 320 32 L 256 0 L 256 0 L 192 32 L 192 32 L 176 24 L 176 24 L 128 0 L 128 0 L 128 54 L 128 54 Z M 176 128 L 336 128 L 176 128 L 336 128 L 336 144 L 336 144 Q 335 178 313 201 Q 290 223 256 224 Q 222 223 199 201 Q 177 178 176 144 L 176 128 L 176 128 Z M 132 352 L 381 352 L 132 352 L 381 352 L 415 464 L 415 464 L 97 464 L 97 464 L 132 352 L 132 352 Z M 416 304 L 96 304 L 416 304 L 96 304 L 47 464 L 47 464 L 32 512 L 32 512 L 82 512 L 480 512 L 465 464 L 465 464 L 416 304 L 416 304 Z" />
</svg>