<svg xmlns="http://www.w3.org/2000/svg" viewBox="0 0 512 512">
  <path d="M 295.52942 310.58823 L 432.94116 119.52941 L 295.52942 310.58823 L 432.94116 119.52941 L 407.52942 94.117645 L 407.52942 94.117645 L 216.47058 231.52942 L 216.47058 231.52942 L 295.52942 310.58823 L 295.52942 310.58823 Z M 120.47059 316.2353 L 120.47059 225.88235 L 120.47059 316.2353 L 120.47059 225.88235 L 414.11765 15.058824 L 414.11765 15.058824 L 512 112.94118 L 512 112.94118 L 301.17648 406.58823 L 301.17648 406.58823 L 210.82353 406.58823 L 210.82353 406.58823 L 165.64706 451.7647 L 165.64706 451.7647 L 75.29412 361.41177 L 75.29412 361.41177 L 120.47059 316.2353 L 120.47059 316.2353 L 120.47059 316.2353 L 120.47059 316.2353 Z M 4.7058825 456.47058 L 65.882355 394.35294 L 4.7058825 456.47058 L 65.882355 394.35294 L 132.70589 461.17648 L 132.70589 461.17648 L 100.70588 492.2353 L 100.70588 492.2353 L 96.94118 496.94116 L 96.94118 496.94116 L 90.35294 496.94116 L 0 496.94116 L 0 481.88235 L 0 481.88235 L 0 466.82352 L 0 466.82352 L 0 460.2353 L 0 460.2353 L 4.7058825 456.47058 L 4.7058825 456.47058 Z" />
</svg>