<svg xmlns="http://www.w3.org/2000/svg" viewBox="0 0 512 512">
  <path d="M 288 192 L 248 192 L 288 192 L 248 192 L 248 146 L 248 146 L 384 160 L 384 160 L 384 96 L 384 96 L 248 110 L 248 110 L 248 64 L 248 64 L 200 64 L 200 64 L 200 110 L 200 110 L 64 96 L 64 96 L 64 160 L 64 160 L 200 146 L 200 146 L 200 192 L 200 192 L 168 192 L 158 192 L 151 199 L 151 199 L 126 224 L 126 224 L 24 224 L 0 224 L 0 272 L 0 272 L 24 272 L 146 272 L 153 265 L 153 265 L 178 240 L 178 240 L 278 240 L 278 240 L 303 265 L 303 265 L 310 272 L 310 272 L 320 272 L 360 272 Q 404 273 434 302 Q 463 332 464 376 L 464 400 L 464 400 L 400 400 L 400 400 L 400 392 L 400 392 Q 399 368 384 352 Q 368 337 344 336 L 312 336 L 299 336 L 291 347 L 291 347 Q 268 382 224 384 Q 180 382 157 347 L 150 336 L 150 336 L 136 336 L 0 336 L 0 384 L 0 384 L 24 384 L 124 384 Q 161 430 224 432 Q 287 430 324 384 L 344 384 L 344 384 Q 351 385 352 392 L 352 424 L 352 424 L 352 448 L 352 448 L 376 448 L 512 448 L 512 424 L 512 424 L 512 376 L 512 376 Q 510 311 467 269 Q 425 226 360 224 L 330 224 L 330 224 L 305 199 L 305 199 L 298 192 L 298 192 L 288 192 L 288 192 Z" />
</svg>