<svg xmlns="http://www.w3.org/2000/svg" viewBox="0 0 512 512">
  <path d="M 128 0 L 128 64 L 128 0 L 128 64 L 32 64 L 32 64 L 32 160 L 32 160 L 480 160 L 480 160 L 480 64 L 480 64 L 384 64 L 384 64 L 384 0 L 384 0 L 320 0 L 320 0 L 320 64 L 320 64 L 192 64 L 192 64 L 192 0 L 192 0 L 128 0 L 128 0 Z M 480 192 L 32 192 L 480 192 L 32 192 L 32 512 L 32 512 L 480 512 L 480 512 L 480 192 L 480 192 Z M 160 256 L 160 320 L 160 256 L 160 320 L 96 320 L 96 320 L 96 256 L 96 256 L 160 256 L 160 256 Z M 352 448 L 352 384 L 352 448 L 352 384 L 416 384 L 416 384 L 416 448 L 416 448 L 352 448 L 352 448 Z M 416 264 L 416 312 L 416 264 L 416 312 L 224 312 L 224 312 L 224 264 L 224 264 L 416 264 L 416 264 Z M 96 392 L 288 392 L 96 392 L 288 392 L 288 440 L 288 440 L 96 440 L 96 440 L 96 392 L 96 392 Z" />
</svg>