<svg xmlns="http://www.w3.org/2000/svg" viewBox="0 0 512 512">
  <path d="M 197.6140350877193 254.50292397660817 Q 222.5653021442495 170.66666666666666 259.4931773879142 126.75243664717348 L 259.4931773879142 126.75243664717348 L 259.4931773879142 126.75243664717348 Q 295.4230019493177 83.83625730994152 334.3469785575049 67.86744639376218 Q 367.28265107212474 52.89668615984405 400.21832358674465 49.902534113060426 Q 433.1539961013645 46.9083820662768 461.09941520467834 50.900584795321635 Q 465.09161793372317 78.84600389863547 462.0974658869396 111.78167641325535 Q 459.1033138401559 144.71734892787524 444.1325536062378 177.65302144249512 Q 428.1637426900585 216.57699805068225 385.2475633528265 252.50682261208576 Q 341.3333333333333 289.43469785575047 257.4970760233918 314.3859649122807 Q 248.51461988304092 295.4230019493177 232.54580896686159 279.4541910331384 Q 216.57699805068225 264.4834307992203 197.6140350877193 254.50292397660817 L 197.6140350877193 254.50292397660817 Z M 43.914230019493175 288.4366471734893 Q 45.91033138401559 288.4366471734893 47.90643274853801 288.4366471734893 L 138.72904483430798 288.4366471734893 L 138.72904483430798 288.4366471734893 Q 173.66081871345028 289.43469785575047 198.6120857699805 313.3879142300195 Q 223.5633528265107 338.3391812865497 223.5633528265107 373.270955165692 L 223.5633528265107 456.1091617933723 L 223.5633528265107 456.1091617933723 Q 223.5633528265107 456.1091617933723 223.5633528265107 456.1091617933723 Q 223.5633528265107 456.1091617933723 223.5633528265107 456.1091617933723 L 223.5633528265107 512 L 223.5633528265107 512 L 383.2514619883041 432.1559454191033 L 383.2514619883041 432.1559454191033 L 383.2514619883041 312.3898635477583 L 383.2514619883041 312.3898635477583 Q 453.11500974658867 266.4795321637427 481.0604288499025 210.588693957115 Q 510.0038986354776 153.6998050682261 511.00194931773876 100.80311890838206 Q 512 46.9083820662768 502.0194931773879 9.980506822612085 Q 465.09161793372317 0 411.1968810916179 0.9980506822612085 Q 358.3001949317739 1.996101364522417 301.411306042885 30.939571150097464 Q 245.5204678362573 58.8849902534113 199.6101364522417 128.7485380116959 L 135.73489278752436 128.7485380116959 L 135.73489278752436 128.7485380116959 Q 134.73684210526315 128.7485380116959 134.73684210526315 128.7485380116959 Q 134.73684210526315 128.7485380116959 134.73684210526315 128.7485380116959 L 79.84405458089668 128.7485380116959 L 79.84405458089668 128.7485380116959 L 0 288.4366471734893 L 0 288.4366471734893 L 43.914230019493175 288.4366471734893 L 43.914230019493175 288.4366471734893 Z M 0.9980506822612085 512 Q 1.996101364522417 512 32.93567251461988 512 L 32.93567251461988 512 L 32.93567251461988 512 Q 62.87719298245614 511.00194931773876 100.80311890838206 503.0175438596491 L 100.80311890838206 503.0175438596491 L 100.80311890838206 503.0175438596491 Q 139.7270955165692 494.03508771929825 166.67446393762182 470.08187134502924 Q 191.62573099415204 443.1345029239766 191.62573099415204 408.2027290448343 Q 191.62573099415204 373.270955165692 166.67446393762182 346.3235867446394 Q 138.72904483430798 320.37426900584796 103.79727095516569 320.37426900584796 Q 68.86549707602339 320.37426900584796 41.91812865497076 346.3235867446394 Q 17.964912280701753 372.2729044834308 8.982456140350877 411.1968810916179 Q 0.9980506822612085 449.12280701754383 0 479.0643274853801 Q 0 510.0038986354776 0.9980506822612085 512 L 0.9980506822612085 512 Z M 64.87329434697855 447.1267056530214 Q 63.875243664717345 445.130604288499 64.87329434697855 426.16764132553607 L 64.87329434697855 426.16764132553607 L 64.87329434697855 426.16764132553607 Q 66.86939571150097 406.2066276803119 77.84795321637426 392.233918128655 Q 86.83040935672514 384.2495126705653 98.80701754385964 384.2495126705653 Q 110.78362573099415 384.2495126705653 119.76608187134502 392.233918128655 Q 127.75048732943469 401.2163742690058 127.75048732943469 413.1929824561403 Q 127.75048732943469 425.16959064327483 119.76608187134502 434.15204678362574 Q 105.7933723196881 445.130604288499 85.83235867446393 447.1267056530214 Q 66.86939571150097 448.12475633528265 64.87329434697855 447.1267056530214 L 64.87329434697855 447.1267056530214 Z M 407.2046783625731 144.71734892787524 Q 406.2066276803119 121.76218323586744 387.2436647173489 109.78557504873294 Q 367.28265107212474 99.80506822612085 347.32163742690057 109.78557504873294 Q 328.35867446393763 121.76218323586744 327.3606237816764 144.71734892787524 Q 328.35867446393763 167.67251461988303 347.32163742690057 179.64912280701753 Q 367.28265107212474 189.62962962962962 387.2436647173489 179.64912280701753 Q 406.2066276803119 167.67251461988303 407.2046783625731 144.71734892787524 L 407.2046783625731 144.71734892787524 Z" />
</svg>