<svg xmlns="http://www.w3.org/2000/svg" viewBox="0 0 640 448">
    <path d="M 456 0 L 447 0 L 441 6 L 392 47 L 373 13 L 366 0 L 352 0 L 280 0 L 256 0 L 256 48 L 280 48 L 338 48 L 354 78 L 259 158 Q 204 113 128 112 L 56 112 L 32 112 L 32 160 L 56 160 L 128 160 Q 196 162 241 207 Q 286 252 288 320 L 288 352 L 304 352 L 304 352 L 352 352 L 352 320 Q 352 280 369 247 Q 386 214 416 192 L 431 221 Q 386 258 384 320 Q 385 374 421 411 Q 458 447 512 448 Q 566 447 603 411 Q 639 374 640 320 Q 639 266 603 229 Q 566 193 512 192 Q 492 192 473 198 L 418 96 L 488 96 L 512 96 L 512 72 L 512 24 L 512 0 L 488 0 L 456 0 L 456 0 Z M 393 150 Q 344 184 320 240 Q 309 214 293 193 L 377 121 L 393 149 L 393 150 Z M 432 320 Q 433 287 455 264 L 491 331 L 502 353 L 545 330 L 533 309 L 497 242 Q 504 240 512 240 Q 546 241 569 264 Q 591 286 592 320 Q 591 354 569 377 Q 546 399 512 400 Q 478 399 455 377 Q 433 354 432 320 L 432 320 Z M 204 296 L 149 296 Q 140 288 128 288 Q 114 288 105 297 Q 96 306 96 320 Q 96 334 105 343 Q 114 352 128 352 Q 140 352 149 344 L 204 344 Q 196 369 176 384 Q 155 400 128 400 Q 94 399 72 377 Q 49 354 48 320 Q 49 286 72 263 Q 94 241 128 240 Q 155 240 176 256 Q 196 271 204 296 L 204 296 Z M 128 448 Q 163 448 192 431 L 192 431 Q 221 414 239 384 Q 256 354 256 320 Q 256 286 239 256 Q 221 226 192 209 Q 163 192 128 192 Q 93 192 64 209 Q 35 226 17 256 Q 0 286 0 320 Q 0 354 17 384 Q 35 414 64 431 Q 93 448 128 448 L 128 448 Z"/>
</svg>
