<svg xmlns="http://www.w3.org/2000/svg" viewBox="0 0 512 512">
  <path d="M 256 0 Q 186 1 128 34 L 128 34 L 128 34 Q 70 68 34 128 Q 0 189 0 256 Q 0 323 34 384 Q 70 444 128 478 Q 186 511 256 512 Q 326 511 384 478 Q 442 444 478 384 Q 512 323 512 256 Q 512 189 478 128 Q 442 68 384 34 Q 326 1 256 0 L 256 0 Z M 352 192 L 352 352 L 352 192 L 352 352 L 192 352 L 192 352 L 168 328 L 168 328 L 220 276 L 220 276 L 144 200 L 144 200 L 200 144 L 200 144 L 276 220 L 276 220 L 328 168 L 328 168 L 352 192 L 352 192 Z" />
</svg>