<svg xmlns="http://www.w3.org/2000/svg" viewBox="0 0 512 512">
  <path d="M 512 240 Q 511 298 477 345 L 477 345 L 477 345 Q 443 392 385 420 L 385 420 L 385 420 Q 328 447 256 448 Q 209 448 166 435 L 16 480 L 16 480 L 57 371 L 57 371 Q 2 316 0 240 Q 1 182 35 135 Q 69 88 127 60 Q 184 33 256 32 Q 328 33 385 60 Q 443 88 477 135 Q 511 182 512 240 L 512 240 Z M 152 176 L 133 176 L 152 176 L 133 176 Q 117 176 107 187 Q 96 197 96 213 Q 97 232 112 244 L 142 263 L 142 263 Q 144 265 144 267 Q 144 272 139 272 L 112 272 L 96 272 L 96 304 L 96 304 L 112 304 L 139 304 Q 155 304 165 293 Q 176 283 176 267 Q 175 248 160 236 L 130 217 L 130 217 Q 128 215 128 213 Q 128 208 133 208 L 152 208 L 168 208 L 168 176 L 168 176 L 160 176 L 160 176 L 160 176 L 160 176 L 152 176 L 152 176 Z M 192 192 L 192 288 L 192 192 L 192 288 L 192 304 L 192 304 L 224 304 L 224 304 L 224 288 L 224 288 L 224 240 L 224 240 L 243 266 L 243 266 L 256 283 L 256 283 L 269 266 L 269 266 L 288 240 L 288 240 L 288 288 L 288 288 L 288 304 L 288 304 L 320 304 L 320 304 L 320 288 L 320 288 L 320 192 L 320 192 L 320 176 L 320 176 L 296 176 L 296 176 L 291 182 L 291 182 L 256 229 L 256 229 L 221 182 L 221 182 L 216 176 L 216 176 L 192 176 L 192 176 L 192 192 L 192 192 Z M 336 213 Q 337 232 352 244 L 382 263 L 382 263 Q 384 265 384 267 Q 384 272 379 272 L 352 272 L 336 272 L 336 304 L 336 304 L 352 304 L 379 304 Q 395 304 405 293 Q 416 283 416 267 Q 415 248 400 236 L 370 217 L 370 217 Q 368 215 368 213 Q 368 208 373 208 L 392 208 L 408 208 L 408 176 L 408 176 L 392 176 L 384 176 L 384 176 L 384 176 L 373 176 L 373 176 Q 357 176 347 187 Q 336 197 336 213 L 336 213 Z" />
</svg>