<svg xmlns="http://www.w3.org/2000/svg" viewBox="0 0 512 512">
  <path d="M 263.66467 5.1097803 L 255.48903 0 L 263.66467 5.1097803 L 255.48903 0 L 247.31337 5.1097803 L 247.31337 5.1097803 L 242.2036 8.175649 L 242.2036 8.175649 Q 209.50099 27.592813 172.71057 28.61477 Q 134.89821 30.658682 101.17365 13.285429 L 99.12974 13.285429 L 99.12974 13.285429 L 86.866264 7.1536927 L 86.866264 7.1536927 L 78.69062 17.373253 L 78.69062 17.373253 L 29.636726 82.77844 L 29.636726 82.77844 L 23.50499 91.97605 L 23.50499 91.97605 L 29.636726 102.19561 L 29.636726 102.19561 L 31.68064 105.261475 L 31.68064 105.261475 Q 59.273453 147.16168 59.273453 197.23752 Q 59.273453 228.91817 47.00998 258.5549 L 34.746506 290.23553 L 34.746506 290.23553 Q 26.570858 310.67465 26.570858 333.15768 Q 26.570858 366.88223 44.96607 394.47504 Q 62.33932 422.06787 92.998 436.37524 L 248.33533 508.93414 L 248.33533 508.93414 L 255.48903 512 L 255.48903 512 L 262.6427 508.93414 L 262.6427 508.93414 L 417.98004 436.37524 L 417.98004 436.37524 Q 448.63873 422.06787 466.01196 394.47504 Q 484.4072 366.88223 484.4072 333.15768 Q 484.4072 310.67465 476.23154 290.23553 L 463.96808 258.5549 L 463.96808 258.5549 Q 451.7046 228.91817 451.7046 197.23752 Q 451.7046 147.16168 479.2974 105.261475 L 481.3413 102.19561 L 481.3413 102.19561 L 488.495 91.97605 L 488.495 91.97605 L 481.3413 82.77844 L 481.3413 82.77844 L 432.2874 17.373253 L 432.2874 17.373253 L 424.1118 7.1536927 L 424.1118 7.1536927 L 411.8483 13.285429 L 411.8483 13.285429 L 410.82635 13.285429 L 410.82635 13.285429 Q 376.07983 30.658682 339.28943 28.61477 Q 301.47705 27.592813 268.77444 8.175649 L 263.66467 5.1097803 L 263.66467 5.1097803 Z M 97.08583 48.031937 Q 135.92017 64.38323 176.7984 61.317364 L 176.7984 61.317364 L 176.7984 61.317364 Q 218.69861 59.273453 255.48903 38.83433 Q 292.27945 59.273453 333.15768 61.317364 Q 375.0579 64.38323 413.8922 48.031937 L 448.63873 94.01996 L 448.63873 94.01996 Q 429.22156 123.656685 423.0898 158.4032 L 87.88822 158.4032 L 87.88822 158.4032 Q 81.756485 123.656685 63.36128 94.01996 L 97.08583 48.031937 L 97.08583 48.031937 Z M 91.97605 191.10579 L 419.00198 191.10579 L 91.97605 191.10579 L 419.00198 191.10579 Q 419.00198 194.17166 419.00198 197.23752 Q 419.00198 235.0499 433.3094 270.81836 L 445.57285 302.499 L 445.57285 302.499 Q 451.7046 316.8064 451.7046 333.15768 Q 451.7046 356.6627 438.41916 377.1018 Q 426.1557 396.51895 403.67267 406.73853 L 255.48903 475.2096 L 255.48903 475.2096 L 107.30539 406.73853 L 107.30539 406.73853 Q 84.82236 396.51895 72.55888 377.1018 Q 59.273453 356.6627 59.273453 333.15768 Q 59.273453 316.8064 65.40519 302.499 L 77.66866 270.81836 L 77.66866 270.81836 Q 91.97605 235.0499 91.97605 197.23752 Q 91.97605 194.17166 91.97605 191.10579 L 91.97605 191.10579 Z" />
</svg>