<svg xmlns="http://www.w3.org/2000/svg" viewBox="0 0 512 512">
  <path d="M 36.57142857142857 36.57142857142857 L 36.57142857142857 475.42857142857144 L 36.57142857142857 36.57142857142857 L 36.57142857142857 475.42857142857144 L 475.42857142857144 475.42857142857144 L 475.42857142857144 475.42857142857144 L 475.42857142857144 36.57142857142857 L 475.42857142857144 36.57142857142857 L 36.57142857142857 36.57142857142857 L 36.57142857142857 36.57142857142857 Z M 0 0 L 36.57142857142857 0 L 0 0 L 512 0 L 512 36.57142857142857 L 512 36.57142857142857 L 512 475.42857142857144 L 512 475.42857142857144 L 512 512 L 512 512 L 475.42857142857144 512 L 0 512 L 0 475.42857142857144 L 0 475.42857142857144 L 0 36.57142857142857 L 0 36.57142857142857 L 0 0 L 0 0 Z M 228.57142857142858 338.2857142857143 L 283.42857142857144 338.2857142857143 L 228.57142857142858 338.2857142857143 L 283.42857142857144 338.2857142857143 L 283.42857142857144 393.14285714285717 L 283.42857142857144 393.14285714285717 L 228.57142857142858 393.14285714285717 L 228.57142857142858 393.14285714285717 L 228.57142857142858 338.2857142857143 L 228.57142857142858 338.2857142857143 Z M 228.57142857142858 283.42857142857144 L 228.57142857142858 228.57142857142858 L 228.57142857142858 283.42857142857144 L 228.57142857142858 228.57142857142858 L 283.42857142857144 228.57142857142858 L 283.42857142857144 228.57142857142858 L 283.42857142857144 283.42857142857144 L 283.42857142857144 283.42857142857144 L 228.57142857142858 283.42857142857144 L 228.57142857142858 283.42857142857144 Z M 228.57142857142858 118.85714285714286 L 283.42857142857144 118.85714285714286 L 228.57142857142858 118.85714285714286 L 283.42857142857144 118.85714285714286 L 283.42857142857144 173.71428571428572 L 283.42857142857144 173.71428571428572 L 228.57142857142858 173.71428571428572 L 228.57142857142858 173.71428571428572 L 228.57142857142858 118.85714285714286 L 228.57142857142858 118.85714285714286 Z" />
</svg>