<svg xmlns="http://www.w3.org/2000/svg" viewBox="0 0 512 512">
  <path d="M 358.4 166.4 L 358.4 345.6 L 358.4 166.4 L 358.4 345.6 L 473.6 345.6 L 473.6 345.6 L 473.6 166.4 L 473.6 166.4 L 358.4 166.4 L 358.4 166.4 Z M 153.6 128 L 358.4 128 L 153.6 128 L 512 128 L 512 166.4 L 512 166.4 L 512 345.6 L 512 345.6 L 512 384 L 512 384 L 473.6 384 L 0 384 L 0 345.6 L 0 345.6 L 0 166.4 L 0 166.4 L 0 128 L 0 128 L 38.4 128 L 153.6 128 Z M 153.6 345.6 L 153.6 166.4 L 153.6 345.6 L 153.6 166.4 L 38.4 166.4 L 38.4 166.4 L 38.4 345.6 L 38.4 345.6 L 153.6 345.6 L 153.6 345.6 Z M 217.6 236.8 Q 235.2 235.2 236.8 217.6 Q 235.2 200 217.6 198.4 Q 200 200 198.4 217.6 Q 200 235.2 217.6 236.8 L 217.6 236.8 Z M 313.6 217.6 Q 312 200 294.4 198.4 Q 276.8 200 275.2 217.6 Q 276.8 235.2 294.4 236.8 Q 312 235.2 313.6 217.6 L 313.6 217.6 Z M 217.6 313.6 Q 235.2 312 236.8 294.4 Q 235.2 276.8 217.6 275.2 Q 200 276.8 198.4 294.4 Q 200 312 217.6 313.6 L 217.6 313.6 Z M 313.6 294.4 Q 312 276.8 294.4 275.2 Q 276.8 276.8 275.2 294.4 Q 276.8 312 294.4 313.6 Q 312 312 313.6 294.4 L 313.6 294.4 Z" />
</svg>