<svg xmlns="http://www.w3.org/2000/svg" viewBox="0 0 512 512">
  <path d="M 332.8 51.2 L 0 51.2 L 332.8 51.2 L 0 51.2 L 0 384 L 0 384 L 51.2 384 L 51.2 384 Q 52 416.8 73.6 438.4 Q 95.2 460 128 460.8 Q 160.8 460 182.4 438.4 Q 204 416.8 204.8 384 L 307.2 384 L 307.2 384 Q 308 416.8 329.6 438.4 Q 351.2 460 384 460.8 Q 416.8 460 438.4 438.4 Q 460 416.8 460.8 384 L 486.4 384 L 512 384 L 512 332.8 L 512 332.8 L 486.4 332.8 L 486.4 332.8 L 486.4 281.6 L 486.4 281.6 L 486.4 256 L 486.4 256 L 486.4 230.4 L 486.4 230.4 L 486.4 220 L 486.4 220 L 479.2 212 L 479.2 212 L 402.4 135.2 L 402.4 135.2 L 394.4 128 L 394.4 128 L 384 128 L 332.8 128 L 332.8 51.2 L 332.8 51.2 Z M 435.2 243.2 L 435.2 256 L 435.2 243.2 L 435.2 256 L 332.8 256 L 332.8 256 L 332.8 179.2 L 332.8 179.2 L 371.2 179.2 L 373.6 179.2 L 435.2 240.8 L 435.2 240.8 L 435.2 243.2 L 435.2 243.2 Z M 128 345.6 Q 149.6 346.4 161.6 364.8 Q 171.2 384 161.6 403.2 Q 149.6 421.6 128 422.4 Q 106.4 421.6 94.4 403.2 Q 84.8 384 94.4 364.8 Q 106.4 346.4 128 345.6 L 128 345.6 Z M 345.6 384 Q 346.4 362.4 364.8 350.4 Q 384 340.8 403.2 350.4 Q 421.6 362.4 422.4 384 Q 421.6 405.6 403.2 417.6 Q 384 427.2 364.8 417.6 Q 346.4 405.6 345.6 384 L 345.6 384 Z M 166.4 268.8 Q 141.6 268 125.6 253.6 L 125.6 253.6 L 125.6 253.6 Q 109.6 238.4 108.8 216 Q 109.6 200 124 176.8 Q 137.6 153.6 151.2 135.2 Q 165.6 116 166.4 115.2 Q 167.2 116 181.6 135.2 Q 195.2 153.6 208.8 176.8 Q 223.2 200 224 216 Q 223.2 238.4 207.2 253.6 Q 191.2 268 166.4 268.8 L 166.4 268.8 Z" />
</svg>