<svg xmlns="http://www.w3.org/2000/svg" viewBox="0 0 512 512">
  <path d="M 112 464 L 112 48 L 112 464 L 112 48 L 288 48 L 288 48 L 288 160 L 288 160 L 400 160 L 400 160 L 400 464 L 400 464 L 112 464 L 112 464 Z M 320 0 L 112 0 L 320 0 L 64 0 L 64 48 L 64 48 L 64 464 L 64 464 L 64 512 L 64 512 L 112 512 L 448 512 L 448 464 L 448 464 L 448 128 L 448 128 L 320 0 L 320 0 Z M 179 224 L 129 224 L 179 224 L 129 224 L 177 414 L 177 414 L 181 432 L 181 432 L 200 432 L 226 432 L 231 414 L 231 414 L 256 322 L 256 322 L 281 414 L 281 414 L 286 432 L 286 432 L 304 432 L 331 432 L 335 414 L 335 414 L 383 224 L 383 224 L 333 224 L 333 224 L 307 328 L 307 328 L 284 242 L 284 242 L 279 224 L 279 224 L 261 224 L 233 224 L 228 242 L 228 242 L 205 328 L 205 328 L 179 224 L 179 224 Z" />
</svg>