<svg xmlns="http://www.w3.org/2000/svg" viewBox="0 0 512 512">
  <path d="M 399.20306513409963 11.770114942528735 L 388.41379310344826 0 L 399.20306513409963 11.770114942528735 L 388.41379310344826 0 L 377.62452107279694 11.770114942528735 L 377.62452107279694 11.770114942528735 L 225.59386973180077 162.81992337164752 L 225.59386973180077 162.81992337164752 Q 211.86206896551724 177.53256704980842 200.09195402298852 194.20689655172413 L 126.52873563218391 304.06130268199234 L 126.52873563218391 304.06130268199234 Q 117.70114942528735 318.7739463601533 104.95019157088123 330.544061302682 L 35.310344827586206 400.18390804597703 L 35.310344827586206 400.18390804597703 L 27.46360153256705 393.31800766283527 L 27.46360153256705 393.31800766283527 L 5.885057471264368 414.8965517241379 L 5.885057471264368 414.8965517241379 L 12.75095785440613 422.7432950191571 L 12.75095785440613 422.7432950191571 L 24.521072796934867 433.53256704980845 L 24.521072796934867 433.53256704980845 L 71.6015325670498 480.6130268199234 L 71.6015325670498 480.6130268199234 L 82.39080459770115 492.3831417624521 L 82.39080459770115 492.3831417624521 L 82.39080459770115 492.3831417624521 L 82.39080459770115 492.3831417624521 L 90.2375478927203 500.2298850574713 L 90.2375478927203 500.2298850574713 L 112.79693486590038 477.6704980842912 L 112.79693486590038 477.6704980842912 L 104.95019157088123 469.823754789272 L 104.95019157088123 469.823754789272 L 174.59003831417624 400.18390804597703 L 174.59003831417624 400.18390804597703 Q 186.360153256705 387.43295019157085 201.0727969348659 378.60536398467434 L 310.9272030651341 305.04214559386975 L 310.9272030651341 305.04214559386975 Q 327.6015325670498 293.27203065134097 342.3141762452107 279.5402298850575 L 493.3639846743295 127.5095785440613 L 493.3639846743295 127.5095785440613 L 505.13409961685824 116.72030651340997 L 505.13409961685824 116.72030651340997 L 493.3639846743295 105.93103448275862 L 493.3639846743295 105.93103448275862 L 399.20306513409963 11.770114942528735 L 399.20306513409963 11.770114942528735 Z M 57.86973180076628 422.7432950191571 L 127.5095785440613 353.1034482758621 L 57.86973180076628 422.7432950191571 L 127.5095785440613 353.1034482758621 Q 127.5095785440613 352.1226053639847 127.5095785440613 352.1226053639847 Q 128.4904214559387 351.1417624521073 129.4712643678161 351.1417624521073 L 153.99233716475095 375.66283524904213 L 153.99233716475095 375.66283524904213 Q 153.99233716475095 376.64367816091954 153.01149425287358 376.64367816091954 Q 153.01149425287358 377.62452107279694 152.03065134099617 377.62452107279694 L 82.39080459770115 447.264367816092 L 82.39080459770115 447.264367816092 L 57.86973180076628 422.7432950191571 L 57.86973180076628 422.7432950191571 Z M 150.06896551724137 326.62068965517244 Q 150.06896551724137 325.63984674329504 150.06896551724137 324.65900383141764 L 150.06896551724137 324.65900383141764 L 150.06896551724137 324.65900383141764 Q 152.03065134099617 323.67816091954023 153.01149425287358 321.7164750957854 L 226.57471264367817 211.86206896551724 L 226.57471264367817 211.86206896551724 Q 235.4022988505747 197.1494252873563 248.15325670498083 185.3793103448276 L 388.41379310344826 45.11877394636015 L 388.41379310344826 45.11877394636015 L 460.0153256704981 116.72030651340997 L 460.0153256704981 116.72030651340997 L 319.7547892720307 256.9808429118774 L 319.7547892720307 256.9808429118774 Q 307.9846743295019 269.7318007662835 293.27203065134097 278.5593869731801 L 183.4176245210728 352.1226053639847 L 183.4176245210728 352.1226053639847 Q 182.4367816091954 353.1034482758621 181.455938697318 354.08429118773944 Q 179.49425287356323 355.06513409961684 178.51340996168582 355.06513409961684 L 149.088122605364 326.62068965517244 L 150.06896551724137 326.62068965517244 Z M 380.56704980842915 422.7432950191571 Q 381.5478927203065 396.2605363984674 404.1072796934866 381.5478927203065 Q 427.6475095785441 369.77777777777777 451.18773946360153 381.5478927203065 Q 473.7471264367816 396.2605363984674 474.72796934865903 422.7432950191571 Q 473.7471264367816 449.2260536398467 451.18773946360153 463.93869731800766 Q 427.6475095785441 475.7088122605364 404.1072796934866 463.93869731800766 Q 381.5478927203065 449.2260536398467 380.56704980842915 422.7432950191571 L 380.56704980842915 422.7432950191571 Z M 506.11494252873564 422.7432950191571 Q 505.13409961685824 378.60536398467434 466.88122605363986 355.06513409961684 Q 427.6475095785441 333.48659003831415 388.41379310344826 355.06513409961684 Q 350.1609195402299 378.60536398467434 349.1800766283525 422.7432950191571 Q 350.1609195402299 466.88122605363986 388.41379310344826 490.4214559386973 Q 427.6475095785441 512 466.88122605363986 490.4214559386973 Q 505.13409961685824 466.88122605363986 506.11494252873564 422.7432950191571 L 506.11494252873564 422.7432950191571 Z" />
</svg>