<svg xmlns="http://www.w3.org/2000/svg" viewBox="0 0 512 512">
  <path d="M 483.55555555555554 200.88888888888889 L 256 276.44444444444446 L 483.55555555555554 200.88888888888889 L 256 276.44444444444446 L 28.444444444444443 200.88888888888889 L 28.444444444444443 200.88888888888889 L 28.444444444444443 166.22222222222223 L 28.444444444444443 166.22222222222223 L 256 241.77777777777777 L 256 241.77777777777777 L 483.55555555555554 166.22222222222223 L 483.55555555555554 166.22222222222223 L 483.55555555555554 200.88888888888889 L 483.55555555555554 200.88888888888889 Z M 483.55555555555554 231.11111111111111 L 483.55555555555554 264.8888888888889 L 483.55555555555554 231.11111111111111 L 483.55555555555554 264.8888888888889 L 455.1111111111111 274.6666666666667 L 455.1111111111111 274.6666666666667 L 455.1111111111111 304 L 455.1111111111111 304 L 483.55555555555554 295.1111111111111 L 483.55555555555554 295.1111111111111 L 483.55555555555554 377.77777777777777 L 483.55555555555554 377.77777777777777 L 256 453.3333333333333 L 256 453.3333333333333 L 28.444444444444443 377.77777777777777 L 28.444444444444443 377.77777777777777 L 28.444444444444443 295.1111111111111 L 28.444444444444443 295.1111111111111 L 56.888888888888886 304 L 56.888888888888886 304 L 56.888888888888886 274.6666666666667 L 56.888888888888886 274.6666666666667 L 28.444444444444443 264.8888888888889 L 28.444444444444443 264.8888888888889 L 28.444444444444443 231.11111111111111 L 28.444444444444443 231.11111111111111 L 251.55555555555554 304.8888888888889 L 251.55555555555554 304.8888888888889 L 256 306.6666666666667 L 256 306.6666666666667 L 260.44444444444446 304.8888888888889 L 260.44444444444446 304.8888888888889 L 483.55555555555554 231.11111111111111 L 483.55555555555554 231.11111111111111 Z M 483.55555555555554 134.22222222222223 L 483.55555555555554 136 L 483.55555555555554 134.22222222222223 L 483.55555555555554 136 L 256 211.55555555555554 L 256 211.55555555555554 L 28.444444444444443 136 L 28.444444444444443 136 L 28.444444444444443 134.22222222222223 L 28.444444444444443 134.22222222222223 L 256 58.666666666666664 L 256 58.666666666666664 L 483.55555555555554 134.22222222222223 L 483.55555555555554 134.22222222222223 Z M 512 398.22222222222223 L 512 156.44444444444446 L 512 398.22222222222223 L 512 156.44444444444446 L 512 142.22222222222223 L 512 142.22222222222223 L 512 113.77777777777777 L 512 113.77777777777777 L 256 28.444444444444443 L 256 28.444444444444443 L 0 113.77777777777777 L 0 113.77777777777777 L 0 142.22222222222223 L 0 142.22222222222223 L 0 156.44444444444446 L 0 156.44444444444446 L 0 398.22222222222223 L 0 398.22222222222223 L 256 483.55555555555554 L 256 483.55555555555554 L 512 398.22222222222223 L 512 398.22222222222223 Z M 85.33333333333333 283.55555555555554 L 85.33333333333333 313.77777777777777 L 85.33333333333333 283.55555555555554 L 85.33333333333333 313.77777777777777 L 170.66666666666666 342.22222222222223 L 170.66666666666666 342.22222222222223 L 170.66666666666666 312 L 170.66666666666666 312 L 85.33333333333333 283.55555555555554 L 85.33333333333333 283.55555555555554 Z M 251.55555555555554 368.8888888888889 L 256 370.6666666666667 L 251.55555555555554 368.8888888888889 L 256 370.6666666666667 L 260.44444444444446 368.8888888888889 L 260.44444444444446 368.8888888888889 L 312.8888888888889 352 L 312.8888888888889 352 L 312.8888888888889 321.77777777777777 L 312.8888888888889 321.77777777777777 L 256 340.44444444444446 L 256 340.44444444444446 L 199.11111111111111 321.77777777777777 L 199.11111111111111 321.77777777777777 L 199.11111111111111 352 L 199.11111111111111 352 L 251.55555555555554 368.8888888888889 L 251.55555555555554 368.8888888888889 Z M 341.3333333333333 342.22222222222223 L 426.6666666666667 313.77777777777777 L 341.3333333333333 342.22222222222223 L 426.6666666666667 313.77777777777777 L 426.6666666666667 283.55555555555554 L 426.6666666666667 283.55555555555554 L 341.3333333333333 312 L 341.3333333333333 312 L 341.3333333333333 342.22222222222223 L 341.3333333333333 342.22222222222223 Z" />
</svg>