<svg viewBox="0 0 448 448">
  <path
    d="M 42 128 L 208 128 L 208 32 L 85 32 L 42 128 L 42 128 Z M 208 160 L 32 160 L 32 416 L 416 416 L 416 160 L 240 160 L 208 160 L 208 160 Z M 363 32 L 240 32 L 240 128 L 406 128 L 363 32 L 363 32 Z M 64 0 L 384 0 L 448 144 L 448 416 L 448 448 L 416 448 L 32 448 L 0 448 L 0 416 L 0 144 L 64 0 L 64 0 Z M 148 231 Q 137 242 138 257 L 138 257 Q 138 271 150 282 L 224 347 L 298 282 Q 310 272 310 257 Q 311 243 300 231 Q 289 221 275 221 Q 262 221 251 231 L 235 247 L 224 258 L 213 247 L 197 231 Q 186 221 173 221 Q 159 221 148 231 L 148 231 Z M 220 209 L 224 213 L 228 209 Q 249 189 275 189 Q 302 189 323 209 Q 343 230 342 258 Q 341 286 319 306 L 235 380 L 224 389 L 214 380 L 129 306 Q 107 286 106 258 Q 105 230 125 209 Q 146 189 173 189 Q 199 189 220 209 L 220 209 Z"
  />
</svg>