<svg xmlns="http://www.w3.org/2000/svg" viewBox="0 0 512 512">
  <path d="M 23.2 51.2 L 38.4 63.2 L 23.2 51.2 L 38.4 63.2 L 56.8 76.8 L 56.8 76.8 L 460.8 76.8 L 460.8 76.8 L 460.8 390.4 L 460.8 390.4 L 496.8 418.4 L 496.8 418.4 L 512 430.4 L 512 430.4 L 488.8 460.8 L 488.8 460.8 L 473.6 448.8 L 473.6 448.8 L 15.2 93.6 L 15.2 93.6 L 0 81.6 L 0 81.6 L 23.2 51.2 L 23.2 51.2 Z M 254.4 230.4 L 332.8 230.4 L 254.4 230.4 L 332.8 230.4 L 332.8 128 L 332.8 128 L 179.2 128 L 179.2 128 L 179.2 172 L 179.2 172 L 254.4 230.4 L 254.4 230.4 Z M 324.8 384 L 389.6 435.2 L 324.8 384 L 389.6 435.2 L 51.2 435.2 L 51.2 435.2 L 51.2 168 L 51.2 168 L 130.4 230.4 L 130.4 230.4 L 89.6 230.4 L 89.6 230.4 L 89.6 281.6 L 89.6 281.6 L 140.8 281.6 L 140.8 281.6 L 140.8 239.2 L 140.8 239.2 L 195.2 281.6 L 195.2 281.6 L 179.2 281.6 L 179.2 281.6 L 179.2 384 L 179.2 384 L 324.8 384 L 324.8 384 Z M 140.8 332.8 L 89.6 332.8 L 140.8 332.8 L 89.6 332.8 L 89.6 384 L 89.6 384 L 140.8 384 L 140.8 384 L 140.8 332.8 L 140.8 332.8 Z M 422.4 230.4 L 371.2 230.4 L 422.4 230.4 L 371.2 230.4 L 371.2 281.6 L 371.2 281.6 L 422.4 281.6 L 422.4 281.6 L 422.4 230.4 L 422.4 230.4 Z M 371.2 128 L 371.2 179.2 L 371.2 128 L 371.2 179.2 L 422.4 179.2 L 422.4 179.2 L 422.4 128 L 422.4 128 L 371.2 128 L 371.2 128 Z" />
</svg>