<svg xmlns="http://www.w3.org/2000/svg" viewBox="0 0 538 512">
    <path d="M 333 196 L 286 52 L 269 0 L 252 52 L 206 196 L 54 196 L 0 196 L 44 228 L 166 317 L 120 460 L 103 512 L 147 480 L 269 391 L 391 480 L 435 512 L 419 460 L 372 316 L 494 228 L 538 196 L 484 196 L 333 196 L 333 196 Z M 440 228 L 353 291 L 334 304 L 341 326 L 375 428 L 288 365 L 269 352 L 250 365 L 164 428 L 197 326 L 204 304 L 185 291 L 98 228 L 206 228 L 229 228 L 236 205 L 269 103 L 302 205 L 309 228 L 333 228 L 440 228 L 440 228 Z"/>
</svg>
