<svg xmlns="http://www.w3.org/2000/svg" viewBox="0 0 512 512">
  <path d="M 116 32 Q 130 32 139 41 L 139 41 L 139 41 Q 148 50 148 64 Q 148 78 139 87 Q 130 96 116 96 Q 102 96 93 87 Q 84 78 84 64 Q 84 50 93 41 Q 102 32 116 32 L 116 32 Z M 116 128 Q 152 127 171 96 Q 189 64 171 32 Q 152 1 116 0 Q 80 1 61 32 Q 43 64 61 96 Q 80 127 116 128 L 116 128 Z M 51 192 L 181 192 L 51 192 L 181 192 L 187 320 L 187 320 L 180 320 L 45 320 L 51 192 L 51 192 Z M 44 352 L 52 352 L 44 352 L 52 352 L 52 496 L 52 496 L 52 512 L 52 512 L 84 512 L 84 512 L 84 496 L 84 496 L 84 352 L 84 352 L 148 352 L 148 352 L 148 496 L 148 496 L 148 512 L 148 512 L 180 512 L 180 512 L 180 496 L 180 496 L 180 352 L 180 352 L 188 352 L 220 352 L 219 320 L 219 320 L 212 160 L 212 160 L 20 160 L 20 160 L 13 320 L 13 320 L 12 352 L 12 352 L 44 352 L 44 352 Z M 372 32 Q 386 32 395 41 L 395 41 L 395 41 Q 404 50 404 64 Q 404 78 395 87 Q 386 96 372 96 Q 358 96 349 87 Q 340 78 340 64 Q 340 50 349 41 Q 358 32 372 32 L 372 32 Z M 372 128 Q 408 127 427 96 Q 445 64 427 32 Q 408 1 372 0 Q 336 1 317 32 Q 299 64 317 96 Q 336 127 372 128 L 372 128 Z M 332 192 L 412 192 L 332 192 L 412 192 L 458 352 L 458 352 L 286 352 L 286 352 L 332 192 L 332 192 Z M 436 160 L 308 160 L 436 160 L 308 160 L 253 352 L 253 352 L 244 384 L 244 384 L 277 384 L 308 384 L 308 496 L 308 496 L 308 512 L 308 512 L 340 512 L 340 512 L 340 496 L 340 496 L 340 384 L 340 384 L 404 384 L 404 384 L 404 496 L 404 496 L 404 512 L 404 512 L 436 512 L 436 512 L 436 496 L 436 496 L 436 384 L 436 384 L 467 384 L 500 384 L 491 352 L 491 352 L 436 160 L 436 160 Z" />
</svg>