<svg xmlns="http://www.w3.org/2000/svg" viewBox="0 0 512 512">
  <path d="M 120.754715 82.113205 L 120.754715 101.43396 L 120.754715 82.113205 L 120.754715 101.43396 L 120.754715 280.95596 L 120.754715 280.95596 L 185.15723 259.22012 L 185.15723 259.22012 L 185.15723 101.43396 L 185.15723 101.43396 L 185.15723 82.113205 L 185.15723 82.113205 L 223.79874 82.113205 L 223.79874 82.113205 L 223.79874 101.43396 L 223.79874 101.43396 L 223.79874 246.33963 L 223.79874 246.33963 L 288.20126 224.60378 L 288.20126 224.60378 L 288.20126 101.43396 L 288.20126 101.43396 L 288.20126 82.113205 L 288.20126 82.113205 L 326.84277 82.113205 L 326.84277 82.113205 L 326.84277 101.43396 L 326.84277 101.43396 L 326.84277 211.72327 L 326.84277 211.72327 L 391.24527 190.79245 L 391.24527 190.79245 L 391.24527 101.43396 L 391.24527 101.43396 L 391.24527 82.113205 L 391.24527 82.113205 L 429.88678 82.113205 L 429.88678 82.113205 L 429.88678 101.43396 L 429.88678 101.43396 L 429.88678 177.91196 L 429.88678 177.91196 L 481.4088 160.20126 L 481.4088 160.20126 L 499.92453 154.56604 L 499.92453 154.56604 L 512 190.79245 L 512 190.79245 L 494.2893 197.23271 L 494.2893 197.23271 L 429.88678 218.16353 L 429.88678 218.16353 L 429.88678 410.56604 L 429.88678 410.56604 L 429.88678 429.88678 L 429.88678 429.88678 L 391.24527 429.88678 L 391.24527 429.88678 L 391.24527 410.56604 L 391.24527 410.56604 L 391.24527 231.04402 L 391.24527 231.04402 L 326.84277 252.77988 L 326.84277 252.77988 L 326.84277 410.56604 L 326.84277 410.56604 L 326.84277 429.88678 L 326.84277 429.88678 L 288.20126 429.88678 L 288.20126 429.88678 L 288.20126 410.56604 L 288.20126 410.56604 L 288.20126 265.66037 L 288.20126 265.66037 L 223.79874 287.39624 L 223.79874 287.39624 L 223.79874 410.56604 L 223.79874 410.56604 L 223.79874 429.88678 L 223.79874 429.88678 L 185.15723 429.88678 L 185.15723 429.88678 L 185.15723 410.56604 L 185.15723 410.56604 L 185.15723 300.27673 L 185.15723 300.27673 L 120.754715 321.20755 L 120.754715 321.20755 L 120.754715 410.56604 L 120.754715 410.56604 L 120.754715 429.88678 L 120.754715 429.88678 L 82.113205 429.88678 L 82.113205 429.88678 L 82.113205 410.56604 L 82.113205 410.56604 L 82.113205 334.08804 L 82.113205 334.08804 L 30.591194 351.79874 L 30.591194 351.79874 L 12.075472 357.43396 L 12.075472 357.43396 L 0 321.20755 L 0 321.20755 L 17.710691 314.7673 L 17.710691 314.7673 L 82.113205 293.8365 L 82.113205 293.8365 L 82.113205 101.43396 L 82.113205 101.43396 L 82.113205 82.113205 L 82.113205 82.113205 L 120.754715 82.113205 L 120.754715 82.113205 Z" />
</svg>