<svg xmlns="http://www.w3.org/2000/svg" viewBox="0 0 512 512">
  <path d="M 256 48 Q 313 48 360 76 L 360 76 L 360 76 Q 407 103 436 152 Q 464 201 464 256 Q 464 311 436 360 Q 407 409 360 436 Q 313 464 256 464 Q 199 464 152 436 Q 105 409 76 360 Q 48 311 48 256 Q 48 201 76 152 Q 105 103 152 76 Q 199 48 256 48 L 256 48 Z M 256 512 Q 326 511 384 478 L 384 478 L 384 478 Q 442 444 478 384 Q 512 323 512 256 Q 512 189 478 128 Q 442 68 384 34 Q 326 1 256 0 Q 186 1 128 34 Q 70 68 34 128 Q 0 189 0 256 Q 0 323 34 384 Q 70 444 128 478 Q 186 511 256 512 L 256 512 Z M 160 128 L 160 152 L 160 128 L 160 152 L 160 232 L 160 232 L 160 256 L 160 256 L 160 280 L 160 280 L 160 360 L 160 360 L 160 384 L 160 384 L 184 384 L 292 384 Q 324 383 346 362 Q 367 340 368 308 Q 367 270 338 248 Q 352 229 352 204 Q 351 172 330 150 Q 308 129 276 128 L 184 128 L 160 128 Z M 304 204 Q 304 216 296 224 L 296 224 L 296 224 Q 288 232 276 232 L 208 232 L 208 232 L 208 176 L 208 176 L 276 176 L 276 176 Q 288 176 296 184 Q 304 192 304 204 L 304 204 Z M 208 336 L 208 280 L 208 336 L 208 280 L 276 280 L 292 280 Q 304 280 312 288 Q 320 296 320 308 Q 320 320 312 328 Q 304 336 292 336 L 208 336 L 208 336 Z" />
</svg>