<svg viewBox="0 0 512 448">
  <path
    d="M 112 0 L 96 0 L 96 32 L 112 32 L 176 32 L 192 32 L 192 0 L 176 0 L 112 0 L 112 0 Z M 336 0 L 320 0 L 320 32 L 336 32 L 400 32 L 416 32 L 416 0 L 400 0 L 336 0 L 336 0 Z M 75 209 L 79 203 L 80 196 L 92 96 L 192 96 L 192 112 L 192 240 L 192 416 L 32 416 L 32 281 L 75 209 L 75 209 Z M 224 224 L 224 128 L 288 128 L 288 224 L 224 224 L 224 224 Z M 288 64 L 288 96 L 224 96 L 224 64 L 192 64 L 64 64 L 48 192 L 0 272 L 0 416 L 0 448 L 32 448 L 192 448 L 224 448 L 224 416 L 224 256 L 288 256 L 288 416 L 288 448 L 320 448 L 480 448 L 512 448 L 512 416 L 512 272 L 464 192 L 448 64 L 320 64 L 288 64 L 288 64 Z M 320 416 L 320 240 L 320 112 L 320 96 L 420 96 L 432 196 L 433 203 L 437 209 L 480 281 L 480 416 L 320 416 L 320 416 Z"
  />
</svg>