<svg xmlns="http://www.w3.org/2000/svg" viewBox="0 0 384 512">
    <path d="M 384 0 L 0 0 L 0 512 L 144 512 L 144 384 L 240 384 L 240 512 L 384 512 L 384 0 L 384 0 Z M 64 224 L 128 224 L 128 288 L 64 288 L 64 224 L 64 224 Z M 224 224 L 224 288 L 160 288 L 160 224 L 224 224 L 224 224 Z M 256 288 L 256 224 L 320 224 L 320 288 L 256 288 L 256 288 Z M 112 80 L 112 144 Q 113 159 128 160 Q 143 159 144 144 L 144 80 L 144 64 L 176 64 L 176 80 L 176 144 Q 175 164 162 178 Q 148 191 128 192 Q 108 191 94 178 Q 81 164 80 144 L 80 80 L 80 64 L 112 64 L 112 80 L 112 80 Z M 224 64 L 232 64 L 242 64 L 246 73 L 272 124 L 272 80 L 272 64 L 304 64 L 304 80 L 304 176 L 304 192 L 288 192 L 280 192 L 270 192 L 266 183 L 240 132 L 240 176 L 240 192 L 208 192 L 208 176 L 208 80 L 208 64 L 224 64 L 224 64 Z"/>
</svg>
