<svg xmlns="http://www.w3.org/2000/svg" viewBox="0 0 512 512">
  <path d="M 36.57143 36.57143 L 36.57143 475.42856 L 36.57143 36.57143 L 36.57143 475.42856 L 475.42856 475.42856 L 475.42856 475.42856 L 475.42856 36.57143 L 475.42856 36.57143 L 36.57143 36.57143 L 36.57143 36.57143 Z M 0 0 L 36.57143 0 L 0 0 L 512 0 L 512 36.57143 L 512 36.57143 L 512 475.42856 L 512 475.42856 L 512 512 L 512 512 L 475.42856 512 L 0 512 L 0 475.42856 L 0 475.42856 L 0 36.57143 L 0 36.57143 L 0 0 L 0 0 Z M 256 109.71429 Q 302.85715 110.85714 333.7143 141.71428 L 333.7143 141.71428 L 333.7143 141.71428 Q 364.57144 172.57143 365.7143 219.42857 L 365.7143 292.57144 L 365.7143 292.57144 Q 364.57144 339.42856 333.7143 370.2857 Q 302.85715 401.14285 256 402.2857 Q 209.14285 401.14285 178.28572 370.2857 Q 147.42857 339.42856 146.28572 292.57144 L 146.28572 219.42857 L 146.28572 219.42857 Q 147.42857 172.57143 178.28572 141.71428 Q 209.14285 110.85714 256 109.71429 L 256 109.71429 Z M 182.85715 219.42857 L 182.85715 292.57144 L 182.85715 219.42857 L 182.85715 292.57144 Q 184 323.42856 204.57143 344 Q 225.14285 364.57144 256 365.7143 Q 286.85715 364.57144 307.42856 344 Q 328 323.42856 329.14285 292.57144 L 329.14285 219.42857 L 329.14285 219.42857 Q 328 188.57143 307.42856 168 Q 286.85715 147.42857 256 146.28572 Q 225.14285 147.42857 204.57143 168 Q 184 188.57143 182.85715 219.42857 L 182.85715 219.42857 Z" />
</svg>