<svg xmlns="http://www.w3.org/2000/svg" viewBox="0 0 512 512">
  <path d="M 256 0 Q 228 0 205 14 L 205 14 L 205 14 Q 183 29 171 52 Q 158 48 144 48 Q 107 49 82 74 Q 57 99 56 136 L 56 169 L 56 169 Q 31 180 16 204 Q 0 227 0 256 Q 1 297 28 324 Q 55 351 96 352 L 416 352 L 416 352 Q 457 351 484 324 Q 511 297 512 256 Q 512 226 496 203 Q 481 180 455 168 L 456 137 L 456 137 L 456 136 L 456 136 L 456 136 L 456 136 Q 455 99 430 74 Q 405 49 368 48 Q 354 48 341 52 Q 329 29 307 14 Q 284 0 256 0 L 256 0 Z M 208 90 Q 211 72 224 60 L 224 60 L 224 60 Q 237 48 256 48 Q 275 48 288 60 Q 301 72 304 90 L 309 133 L 309 133 L 343 105 L 343 105 Q 353 96 368 96 Q 385 96 396 108 Q 407 119 408 136 L 406 185 L 406 185 L 406 205 L 406 205 L 426 209 L 426 209 Q 442 213 453 225 Q 464 238 464 256 Q 463 276 450 290 Q 436 303 416 304 L 96 304 L 96 304 Q 76 303 62 290 Q 49 276 48 256 Q 48 239 59 226 Q 69 213 85 209 L 104 205 L 104 205 L 104 186 L 104 186 L 104 136 L 104 136 Q 104 119 116 108 Q 127 96 144 96 Q 159 96 169 105 L 203 133 L 203 133 L 208 90 L 208 90 Z M 200 512 L 312 512 L 200 512 L 312 512 Q 326 470 344 438 Q 361 405 376 384 L 280 384 L 280 384 L 256 432 L 256 432 L 232 384 L 232 384 L 136 384 L 136 384 Q 151 405 168 438 Q 186 470 200 512 L 200 512 Z" />
</svg>