<svg xmlns="http://www.w3.org/2000/svg" viewBox="0 0 512 512">
  <path d="M 448.77914 149.14783 L 418.50433 118.87305 L 448.77914 149.14783 L 418.50433 118.87305 L 361.5165 61.885216 L 361.5165 61.885216 Q 327.68 28.93913 280.48697 28.048697 L 260.00696 28.048697 L 260.00696 28.048697 Q 227.95131 28.048697 201.23827 44.076523 L 200.34782 44.966957 L 200.34782 44.966957 L 156.71652 70.789566 L 156.71652 70.789566 L 202.1287 93.05044 L 202.1287 93.05044 L 242.19826 113.53043 L 242.19826 113.53043 L 242.19826 156.2713 L 242.19826 156.2713 L 311.65216 225.72522 L 311.65216 225.72522 L 341.92697 256 L 341.92697 256 L 356.17392 241.75304 L 356.17392 241.75304 L 386.4487 272.02783 L 386.4487 272.02783 L 390.01044 275.58957 L 390.01044 275.58957 L 390.90088 276.48 L 390.90088 276.48 L 386.4487 280.93216 L 386.4487 280.93216 L 371.3113 296.06958 L 371.3113 296.06958 L 401.5861 326.34436 L 401.5861 326.34436 L 416.72348 311.20697 L 416.72348 311.20697 L 496.8626 231.06783 L 496.8626 231.06783 L 512 215.93044 L 512 215.93044 L 481.72522 185.65565 L 481.72522 185.65565 L 469.25912 198.12173 L 469.25912 198.12173 L 468.36868 197.23131 L 468.36868 197.23131 L 464.80695 193.66957 L 464.80695 193.66957 L 434.53217 163.39478 L 434.53217 163.39478 L 448.77914 149.14783 L 448.77914 149.14783 Z M 388.22955 149.14783 L 373.9826 163.39478 L 388.22955 149.14783 L 373.9826 163.39478 L 404.2574 193.66957 L 404.2574 193.66957 L 438.0939 227.50609 L 438.0939 227.50609 L 420.28522 245.31479 L 420.28522 245.31479 L 386.4487 211.47826 L 386.4487 211.47826 L 356.17392 181.20348 L 356.17392 181.20348 L 341.92697 195.45044 L 341.92697 195.45044 L 284.93912 138.46262 L 284.93912 138.46262 L 284.93912 113.53043 L 284.93912 113.53043 L 284.93912 86.81739 L 284.93912 86.81739 L 261.7878 75.24174 L 261.7878 75.24174 L 252.88348 70.789566 L 252.88348 70.789566 Q 256.44522 70.789566 259.11652 70.789566 L 280.48697 70.789566 L 280.48697 70.789566 Q 309.8713 70.789566 331.24173 91.26956 L 388.22955 149.14783 L 388.22955 149.14783 Z M 235.07478 189.21739 L 0 398.46957 L 235.07478 189.21739 L 0 398.46957 L 85.48174 483.9513 L 85.48174 483.9513 L 294.73392 248.87653 L 294.73392 248.87653 L 235.07478 189.21739 L 235.07478 189.21739 Z" />
</svg>