<svg xmlns="http://www.w3.org/2000/svg" viewBox="0 0 512 512">
  <path d="M 36.01223241590214 59.49847094801223 Q 21.137614678899084 50.103975535168196 9.394495412844037 62.62996941896024 Q 0 77.5045871559633 12.525993883792049 89.24770642201835 L 475.98776758409787 452.50152905198775 L 475.98776758409787 452.50152905198775 Q 490.86238532110093 461.8960244648318 502.60550458715596 449.37003058103977 Q 512 434.4954128440367 499.47400611620793 422.7522935779817 L 398.4831804281346 343.68195718654437 L 398.4831804281346 343.68195718654437 L 431.3639143730887 343.68195718654437 L 431.3639143730887 343.68195718654437 L 431.3639143730887 356.2079510703364 L 431.3639143730887 356.2079510703364 L 506.519877675841 356.2079510703364 L 506.519877675841 356.2079510703364 L 506.519877675841 155.79204892966362 L 506.519877675841 155.79204892966362 L 481.4678899082569 155.79204892966362 L 400.83180428134557 155.79204892966362 L 349.9449541284404 110.38532110091744 L 349.9449541284404 110.38532110091744 L 344.46483180428135 105.68807339449542 L 344.46483180428135 105.68807339449542 L 337.4189602446483 105.68807339449542 L 255.217125382263 105.68807339449542 L 249.73700305810397 111.16819571865443 L 249.73700305810397 111.16819571865443 L 182.40978593272172 173.7981651376147 L 182.40978593272172 173.7981651376147 L 157.3577981651376 155.0091743119266 L 157.3577981651376 155.0091743119266 L 169.88379204892968 143.26605504587155 L 169.88379204892968 143.26605504587155 L 181.6269113149847 143.26605504587155 L 181.6269113149847 143.26605504587155 L 219.20489296636086 105.68807339449542 L 219.20489296636086 105.68807339449542 L 162.05504587155963 105.68807339449542 L 155.0091743119266 105.68807339449542 L 149.5290519877676 111.16819571865443 L 149.5290519877676 111.16819571865443 L 127.6085626911315 131.52293577981652 L 127.6085626911315 131.52293577981652 L 36.01223241590214 59.49847094801223 L 36.01223241590214 59.49847094801223 Z M 212.15902140672782 197.28440366972478 L 270.091743119266 143.26605504587155 L 212.15902140672782 197.28440366972478 L 270.091743119266 143.26605504587155 L 330.3730886850153 143.26605504587155 L 330.3730886850153 143.26605504587155 L 381.2599388379205 188.67278287461772 L 381.2599388379205 188.67278287461772 L 386.7400611620795 193.37003058103974 L 386.7400611620795 193.37003058103974 L 393.7859327217125 193.37003058103974 L 431.3639143730887 193.37003058103974 L 431.3639143730887 306.1039755351682 L 431.3639143730887 306.1039755351682 L 362.47094801223244 306.1039755351682 L 350.72782874617735 306.1039755351682 L 272.4403669724771 245.03975535168195 L 272.4403669724771 245.03975535168195 L 299.84097859327215 219.98776758409787 L 299.84097859327215 219.98776758409787 L 313.93272171253824 206.67889908256882 L 313.93272171253824 206.67889908256882 L 288.0978593272171 179.2782874617737 L 288.0978593272171 179.2782874617737 L 274.7889908256881 191.80428134556576 L 274.7889908256881 191.80428134556576 L 242.69113149847095 221.55351681957185 L 242.69113149847095 221.55351681957185 L 212.15902140672782 197.28440366972478 L 212.15902140672782 197.28440366972478 Z M 80.63608562691131 190.23853211009174 L 37.57798165137615 155.79204892966362 L 80.63608562691131 190.23853211009174 L 37.57798165137615 155.79204892966362 L 30.53211009174312 155.79204892966362 L 5.480122324159021 155.79204892966362 L 5.480122324159021 356.2079510703364 L 5.480122324159021 356.2079510703364 L 80.63608562691131 356.2079510703364 L 80.63608562691131 356.2079510703364 L 80.63608562691131 331.1559633027523 L 80.63608562691131 331.1559633027523 L 89.24770642201835 331.1559633027523 L 89.24770642201835 331.1559633027523 L 124.4770642201835 366.38532110091745 L 124.4770642201835 366.38532110091745 L 129.9571865443425 371.8654434250765 L 129.9571865443425 371.8654434250765 L 143.26605504587155 385.1743119266055 L 143.26605504587155 385.1743119266055 L 173.01529051987768 414.9235474006116 L 173.01529051987768 414.9235474006116 L 186.32415902140673 428.23241590214064 L 186.32415902140673 428.23241590214064 L 199.63302752293578 414.9235474006116 L 199.63302752293578 414.9235474006116 L 218.42201834862385 396.91743119266056 L 218.42201834862385 396.91743119266056 L 234.86238532110093 413.35779816513764 L 234.86238532110093 413.35779816513764 L 248.17125382262998 426.6666666666667 L 248.17125382262998 426.6666666666667 L 261.480122324159 413.35779816513764 L 261.480122324159 413.35779816513764 L 306.8868501529052 367.9510703363914 L 306.8868501529052 367.9510703363914 L 277.13761467889907 344.46483180428135 L 277.13761467889907 344.46483180428135 L 248.17125382262998 373.43119266055044 L 248.17125382262998 373.43119266055044 L 231.7308868501529 356.9908256880734 L 231.7308868501529 356.9908256880734 L 218.42201834862385 343.68195718654437 L 218.42201834862385 343.68195718654437 L 205.1131498470948 356.9908256880734 L 205.1131498470948 356.9908256880734 L 186.32415902140673 374.99694189602445 L 186.32415902140673 374.99694189602445 L 169.88379204892968 358.5565749235474 L 169.88379204892968 358.5565749235474 L 156.5749235474006 345.2477064220183 L 156.5749235474006 345.2477064220183 L 151.0948012232416 339.76758409785936 L 151.0948012232416 339.76758409785936 L 110.38532110091744 299.0581039755352 L 110.38532110091744 299.0581039755352 L 104.90519877675841 293.57798165137615 L 104.90519877675841 293.57798165137615 L 97.07645259938838 293.57798165137615 L 80.63608562691131 293.57798165137615 L 80.63608562691131 230.9480122324159 L 80.63608562691131 230.9480122324159 L 80.63608562691131 193.37003058103974 L 80.63608562691131 193.37003058103974 L 80.63608562691131 190.23853211009174 L 80.63608562691131 190.23853211009174 Z M 206.67889908256882 306.1039755351682 L 202.76452599388378 306.1039755351682 L 206.67889908256882 306.1039755351682 L 202.76452599388378 306.1039755351682 L 204.3302752293578 307.6697247706422 L 204.3302752293578 307.6697247706422 L 206.67889908256882 306.1039755351682 L 206.67889908256882 306.1039755351682 Z M 30.53211009174312 318.62996941896023 Q 31.31498470948012 306.8868501529052 43.05810397553517 306.1039755351682 Q 54.801223241590215 306.8868501529052 55.584097859327215 318.62996941896023 Q 54.801223241590215 330.3730886850153 43.05810397553517 331.1559633027523 Q 31.31498470948012 330.3730886850153 30.53211009174312 318.62996941896023 L 30.53211009174312 318.62996941896023 Z M 468.9418960244648 306.1039755351682 Q 480.68501529051986 306.8868501529052 481.4678899082569 318.62996941896023 Q 480.68501529051986 330.3730886850153 468.9418960244648 331.1559633027523 Q 457.1987767584098 330.3730886850153 456.41590214067276 318.62996941896023 Q 457.1987767584098 306.8868501529052 468.9418960244648 306.1039755351682 L 468.9418960244648 306.1039755351682 Z" />
</svg>