<svg viewBox="0 0 512 511">
  <path
    d="M 0 118 L 0 139 L 1 143 L 25 215 L 29 226 L 40 230 L 116 255 L 40 280 L 29 284 L 25 295 L 1 367 L 0 371 L 0 392 L 39 405 L 47 383 L 67 322 L 151 294 L 79 366 L 68 377 L 74 392 L 114 488 L 123 510 L 167 492 L 158 470 L 124 389 L 160 353 Q 162 393 189 419 Q 216 446 256 447 Q 296 446 323 420 Q 350 393 352 353 L 388 389 L 354 470 L 345 492 L 389 511 L 398 488 L 438 392 L 444 378 L 433 366 L 361 294 L 445 322 L 465 383 L 473 405 L 512 392 L 512 371 L 511 367 L 487 295 L 483 284 L 472 280 L 396 255 L 472 230 L 483 226 L 487 215 L 511 143 L 512 139 L 512 118 L 473 105 L 465 127 L 445 188 L 361 216 L 433 144 L 444 133 L 438 118 L 398 22 L 389 0 L 345 18 L 354 40 L 388 122 L 336 173 L 336 159 Q 335 129 318 108 Q 300 87 272 81 L 272 127 L 240 127 L 240 81 Q 212 87 194 108 Q 177 129 176 159 L 176 173 L 124 121 L 158 40 L 167 18 L 123 0 L 114 22 L 74 118 L 68 133 L 79 144 L 151 216 L 67 188 L 47 127 L 39 105 L 0 118 L 0 118 Z M 216 287 L 296 287 L 296 303 L 272 335 L 296 367 L 296 383 L 216 383 L 216 367 L 240 335 L 216 303 L 216 287 L 216 287 Z"
  />
</svg>