<svg xmlns="http://www.w3.org/2000/svg" viewBox="0 0 512 512">
  <path d="M 109.71429 69.818184 L 109.71429 83.11688 L 109.71429 69.818184 L 109.71429 83.11688 L 109.71429 290.9091 L 109.71429 290.9091 L 189.5065 264.31168 L 189.5065 264.31168 L 189.5065 83.11688 L 189.5065 83.11688 L 189.5065 69.818184 L 189.5065 69.818184 L 216.1039 69.818184 L 216.1039 69.818184 L 216.1039 83.11688 L 216.1039 83.11688 L 216.1039 255.16884 L 216.1039 255.16884 L 295.89612 228.57143 L 295.89612 228.57143 L 295.89612 83.11688 L 295.89612 83.11688 L 295.89612 69.818184 L 295.89612 69.818184 L 322.4935 69.818184 L 322.4935 69.818184 L 322.4935 83.11688 L 322.4935 83.11688 L 322.4935 220.25974 L 322.4935 220.25974 L 402.2857 193.66234 L 402.2857 193.66234 L 402.2857 83.11688 L 402.2857 83.11688 L 402.2857 69.818184 L 402.2857 69.818184 L 428.88312 69.818184 L 428.88312 69.818184 L 428.88312 83.11688 L 428.88312 83.11688 L 428.88312 184.51949 L 428.88312 184.51949 L 491.22076 163.74026 L 491.22076 163.74026 L 503.68832 159.58441 L 503.68832 159.58441 L 512 184.51949 L 512 184.51949 L 499.53247 188.67532 L 499.53247 188.67532 L 428.88312 212.77922 L 428.88312 212.77922 L 428.88312 428.88312 L 428.88312 428.88312 L 428.88312 442.18182 L 428.88312 442.18182 L 402.2857 442.18182 L 402.2857 442.18182 L 402.2857 428.88312 L 402.2857 428.88312 L 402.2857 221.09091 L 402.2857 221.09091 L 322.4935 247.68831 L 322.4935 247.68831 L 322.4935 428.88312 L 322.4935 428.88312 L 322.4935 442.18182 L 322.4935 442.18182 L 295.89612 442.18182 L 295.89612 442.18182 L 295.89612 428.88312 L 295.89612 428.88312 L 295.89612 256.83118 L 295.89612 256.83118 L 216.1039 283.42856 L 216.1039 283.42856 L 216.1039 428.88312 L 216.1039 428.88312 L 216.1039 442.18182 L 216.1039 442.18182 L 189.5065 442.18182 L 189.5065 442.18182 L 189.5065 428.88312 L 189.5065 428.88312 L 189.5065 292.57144 L 189.5065 292.57144 L 109.71429 319.16882 L 109.71429 319.16882 L 109.71429 428.88312 L 109.71429 428.88312 L 109.71429 442.18182 L 109.71429 442.18182 L 83.11688 442.18182 L 83.11688 442.18182 L 83.11688 428.88312 L 83.11688 428.88312 L 83.11688 327.48053 L 83.11688 327.48053 L 20.77922 348.25974 L 20.77922 348.25974 L 8.311688 352.4156 L 8.311688 352.4156 L 0 327.48053 L 0 327.48053 L 12.467532 323.32468 L 12.467532 323.32468 L 83.11688 300.05194 L 83.11688 300.05194 L 83.11688 83.11688 L 83.11688 83.11688 L 83.11688 69.818184 L 83.11688 69.818184 L 109.71429 69.818184 L 109.71429 69.818184 Z" />
</svg>