<svg viewBox="0 0 576 518">
  <path
    d="M 112 54 Q 113 27 136 12 Q 160 0 184 12 Q 207 27 208 54 Q 207 81 184 96 Q 160 108 136 96 Q 113 81 112 54 L 112 54 Z M 91 134 L 109 134 L 211 134 L 229 134 L 238 149 L 304 253 Q 281 278 268 310 L 266 311 L 232 258 L 232 486 L 232 518 L 168 518 L 168 486 L 168 358 L 152 358 L 152 486 L 152 518 L 88 518 L 88 486 L 88 258 L 54 311 L 0 277 L 82 149 L 91 134 L 91 134 Z M 288 374 Q 288 335 307 302 L 307 302 Q 326 269 360 249 Q 394 230 432 230 Q 470 230 504 249 Q 538 269 557 302 Q 576 335 576 374 Q 576 413 557 446 Q 538 479 504 499 Q 470 518 432 518 Q 394 518 360 499 Q 326 479 307 446 Q 288 413 288 374 L 288 374 Z M 512 390 L 512 358 L 496 358 L 368 358 L 352 358 L 352 390 L 368 390 L 496 390 L 512 390 L 512 390 Z"
  />
</svg>