<svg xmlns="http://www.w3.org/2000/svg" viewBox="0 0 512 448">
    <path d="M 94 331 L 87 350 L 69 399 L 157 372 L 166 369 L 176 372 Q 213 384 256 384 Q 355 381 417 330 Q 478 279 480 208 Q 478 137 417 86 Q 355 34 256 32 Q 156 34 95 86 Q 34 137 32 208 Q 33 269 80 316 L 94 331 L 94 331 Z M 55 436 L 16 448 L 30 410 L 57 339 Q 2 284 0 208 Q 1 150 35 103 Q 69 56 127 28 Q 184 1 256 0 Q 328 1 385 28 Q 443 56 477 103 Q 511 150 512 208 Q 511 266 477 313 Q 443 360 385 388 Q 328 415 256 416 Q 209 416 166 403 L 55 436 L 55 436 Z"/>
</svg>
