<svg xmlns="http://www.w3.org/2000/svg" viewBox="0 0 638 512">
    <path d="M 190 0 L 214 0 L 294 0 Q 342 1 375 32 L 382 32 Q 450 34 495 79 Q 540 124 542 192 L 542 309 Q 525 319 503 319 Q 498 319 494 318 L 494 192 Q 493 152 469 122 Q 446 93 408 83 Q 412 96 413 110 L 414 118 L 366 122 L 365 114 Q 362 85 342 67 Q 322 49 294 48 L 238 48 L 238 112 Q 239 139 257 157 Q 275 175 302 176 L 310 176 L 334 176 L 334 224 L 310 224 L 302 224 Q 254 223 223 191 Q 191 160 190 112 L 190 90 Q 140 108 110 150 Q 79 192 78 248 L 78 288 L 78 293 L 76 297 L 44 377 L 0 359 L 30 283 L 30 248 Q 31 172 75 115 Q 120 59 190 39 L 190 24 L 190 0 L 190 0 Z M 526 381 L 526 400 Q 526 413 535 423 Q 545 432 558 432 Q 584 430 590 405 L 590 404 L 638 412 L 638 413 Q 632 442 610 461 Q 588 479 558 480 Q 524 479 502 456 Q 479 434 478 400 L 478 381 Q 442 375 414 354 L 414 488 L 414 512 L 390 512 L 294 512 L 270 512 L 270 488 L 270 412 Q 238 416 206 412 L 206 488 L 206 512 L 182 512 L 86 512 L 62 512 L 62 488 L 62 408 L 62 384 L 110 384 L 110 408 L 110 464 L 158 464 L 158 384 L 158 356 L 185 360 L 210 364 Q 238 368 266 364 L 291 360 L 318 356 L 318 384 L 318 464 L 366 464 L 366 328 L 366 304 L 414 304 L 414 309 Q 444 349 503 351 Q 549 350 579 321 L 601 345 Q 570 373 526 381 L 526 381 Z M 430 192 Q 445 193 446 208 Q 445 223 430 224 Q 415 223 414 208 Q 415 193 430 192 L 430 192 Z"/>
</svg>
