<svg xmlns="http://www.w3.org/2000/svg" viewBox="0 0 509 516">
    <path d="M 385 8 L 381 32 L 336 295 L 464 359 L 477 365 L 477 380 L 477 468 L 485 468 L 509 468 L 509 516 L 485 516 L 453 516 L 29 516 L 0 516 L 6 487 L 94 55 L 97 36 L 117 36 L 331 36 L 333 24 L 338 0 L 385 8 L 385 8 Z M 179 84 L 137 84 L 98 276 L 141 276 L 179 84 L 179 84 Z M 212 84 L 170 295 L 167 308 L 154 308 L 91 308 L 58 468 L 429 468 L 429 395 L 298 330 L 287 324 L 221 324 L 205 324 L 205 292 L 221 292 L 287 292 L 298 228 L 253 228 L 237 228 L 237 196 L 253 196 L 304 196 L 323 84 L 212 84 L 212 84 Z"/>
</svg>
