<svg xmlns="http://www.w3.org/2000/svg" viewBox="0 0 448 512">
    <path d="M 160 0 L 147 0 L 140 11 L 94 80 L 80 80 L 32 80 L 0 80 L 0 128 L 32 128 L 32 464 L 32 512 L 80 512 L 368 512 L 416 512 L 416 464 L 416 128 L 448 128 L 448 80 L 416 80 L 368 80 L 354 80 L 308 11 L 301 0 L 288 0 L 160 0 L 160 0 Z M 297 80 L 152 80 L 173 48 L 275 48 L 297 80 L 297 80 Z M 80 464 L 80 128 L 368 128 L 368 464 L 80 464 L 80 464 Z M 224 166 L 207 183 L 127 263 L 110 280 L 144 314 L 161 297 L 200 258 L 200 416 L 248 416 L 248 258 L 287 297 L 304 314 L 338 280 L 321 263 L 241 183 L 224 166 L 224 166 Z"/>
</svg>
