<svg xmlns="http://www.w3.org/2000/svg" viewBox="0 0 512 512">
  <path d="M 91 282 Q 30 245 32 208 Q 30 171 91 134 Q 154 98 256 96 Q 358 98 421 134 Q 482 171 480 208 Q 482 245 421 282 Q 358 318 256 320 Q 154 318 91 282 L 91 282 Z M 240 352 L 240 416 L 240 352 L 240 416 Q 206 415 176 409 L 176 345 L 176 345 Q 207 350 240 352 L 240 352 Z M 96 320 Q 118 330 144 338 L 144 402 L 144 402 Q 117 395 96 385 L 96 320 L 96 320 Z M 64 303 L 64 367 L 64 303 L 64 367 Q 30 340 32 320 L 32 278 L 32 278 Q 46 292 64 303 L 64 303 Z M 272 416 L 272 352 L 272 416 L 272 352 Q 305 351 336 345 L 336 409 L 336 409 Q 306 415 272 416 L 272 416 Z M 448 303 Q 466 292 480 278 L 480 320 L 480 320 Q 482 340 448 367 L 448 303 L 448 303 Z M 416 320 L 416 385 L 416 320 L 416 385 Q 395 395 368 402 L 368 338 L 368 338 Q 394 330 416 320 L 416 320 Z M 256 64 Q 147 66 75 106 L 75 106 L 75 106 Q 3 147 0 208 L 0 240 L 0 240 L 0 320 L 0 320 Q 3 374 75 411 Q 147 447 256 448 Q 365 447 437 411 Q 509 374 512 320 L 512 240 L 512 240 L 512 208 L 512 208 Q 509 147 437 106 Q 365 66 256 64 L 256 64 Z" />
</svg>