<svg xmlns="http://www.w3.org/2000/svg" viewBox="0 0 576 512">
    <path d="M 160 0 L 96 0 L 96 64 L 0 64 L 0 160 L 448 160 L 448 64 L 352 64 L 352 0 L 288 0 L 288 64 L 160 64 L 160 0 L 160 0 Z M 256 368 Q 258 298 302 249 L 302 249 Q 347 200 416 193 L 416 192 L 0 192 L 0 512 L 331 512 Q 296 488 276 450 Q 256 413 256 368 L 256 368 Z M 432 512 Q 471 512 504 493 L 504 493 Q 537 474 557 440 Q 576 406 576 368 Q 576 330 557 296 Q 537 262 504 243 Q 471 224 432 224 Q 393 224 360 243 Q 327 262 307 296 Q 288 330 288 368 Q 288 406 307 440 Q 327 474 360 493 Q 393 512 432 512 L 432 512 Z M 448 448 L 416 448 L 416 416 L 448 416 L 448 448 L 448 448 Z M 448 272 L 448 288 L 448 368 L 448 384 L 416 384 L 416 368 L 416 288 L 416 272 L 448 272 L 448 272 Z"/>
</svg>
