<svg xmlns="http://www.w3.org/2000/svg" viewBox="0 0 512 512">
  <path d="M 256.49136 28.49904 L 177.87332 107.11708 L 256.49136 28.49904 L 177.87332 107.11708 L 166.08061 117.92706 L 166.08061 117.92706 L 177.87332 128.73705 L 177.87332 128.73705 L 256.49136 207.35509 L 256.49136 207.35509 L 267.30133 219.1478 L 267.30133 219.1478 L 289.90402 196.5451 L 289.90402 196.5451 L 278.11133 185.73512 L 278.11133 185.73512 L 227.0096 133.65067 L 227.0096 133.65067 L 471.70825 133.65067 L 471.70825 133.65067 L 471.70825 227.99232 L 471.70825 227.99232 L 471.70825 243.71593 L 471.70825 243.71593 L 503.15546 243.71593 L 503.15546 243.71593 L 503.15546 227.99232 L 503.15546 227.99232 L 503.15546 117.92706 L 503.15546 117.92706 L 503.15546 102.20345 L 503.15546 102.20345 L 487.43185 102.20345 L 227.0096 102.20345 L 278.11133 50.119003 L 278.11133 50.119003 L 289.90402 39.30902 L 289.90402 39.30902 L 267.30133 16.706333 L 267.30133 16.706333 L 256.49136 28.49904 L 256.49136 28.49904 Z M 246.66411 280.07678 L 235.85413 268.28406 L 246.66411 280.07678 L 235.85413 268.28406 L 213.25143 290.88675 L 213.25143 290.88675 L 225.04414 301.69675 L 225.04414 301.69675 L 276.14587 353.7812 L 276.14587 353.7812 L 15.723608 353.7812 L 0 353.7812 L 0 369.5048 L 0 369.5048 L 0 479.57007 L 0 479.57007 L 0 495.29367 L 0 495.29367 L 31.447216 495.29367 L 31.447216 495.29367 L 31.447216 479.57007 L 31.447216 479.57007 L 31.447216 385.2284 L 31.447216 385.2284 L 276.14587 385.2284 L 276.14587 385.2284 L 225.04414 437.31287 L 225.04414 437.31287 L 213.25143 448.12283 L 213.25143 448.12283 L 235.85413 470.72552 L 235.85413 470.72552 L 246.66411 458.93283 L 246.66411 458.93283 L 325.28214 380.3148 L 325.28214 380.3148 L 337.07486 369.5048 L 337.07486 369.5048 L 325.28214 358.69482 L 325.28214 358.69482 L 246.66411 280.07678 L 246.66411 280.07678 Z M 440.26105 338.0576 Q 454.0192 338.0576 462.8637 346.9021 L 462.8637 346.9021 L 462.8637 346.9021 Q 471.70825 355.74664 471.70825 369.5048 Q 471.70825 383.26297 462.8637 392.10748 Q 454.0192 400.95203 440.26105 400.95203 Q 426.50287 400.95203 417.65836 392.10748 Q 408.8138 383.26297 408.8138 369.5048 Q 408.8138 355.74664 417.65836 346.9021 Q 426.50287 338.0576 440.26105 338.0576 L 440.26105 338.0576 Z M 440.26105 432.39923 Q 475.63916 431.4165 494.31094 400.95203 Q 512 369.5048 494.31094 338.0576 Q 475.63916 307.59308 440.26105 306.61035 Q 404.8829 307.59308 386.21112 338.0576 Q 368.52206 369.5048 386.21112 400.95203 Q 404.8829 431.4165 440.26105 432.39923 L 440.26105 432.39923 Z M 94.34165 117.92706 Q 94.34165 131.68523 85.49712 140.52975 L 85.49712 140.52975 L 85.49712 140.52975 Q 76.65259 149.37428 62.894432 149.37428 Q 49.136276 149.37428 40.291748 140.52975 Q 31.447216 131.68523 31.447216 117.92706 Q 31.447216 104.16891 40.291748 95.32438 Q 49.136276 86.47984 62.894432 86.47984 Q 76.65259 86.47984 85.49712 95.32438 Q 94.34165 104.16891 94.34165 117.92706 L 94.34165 117.92706 Z M 0 117.92706 Q 0.9827255 153.30518 31.447216 171.97697 Q 62.894432 189.66603 94.34165 171.97697 Q 124.806145 153.30518 125.788864 117.92706 Q 124.806145 82.54894 94.34165 63.87716 Q 62.894432 46.1881 31.447216 63.87716 Q 0.9827255 82.54894 0 117.92706 L 0 117.92706 Z" />
</svg>