<svg viewBox="0 0 384 512">
  <path
    d="M 224 0 L 0 0 L 0 512 L 384 512 L 384 160 L 224 160 L 224 0 L 224 0 Z M 256 0 L 256 128 L 384 128 L 256 0 L 256 0 Z M 72 224 L 312 224 L 328 224 L 328 240 L 328 272 L 328 352 L 328 432 L 328 448 L 312 448 L 232 448 L 152 448 L 72 448 L 56 448 L 56 432 L 56 352 L 56 272 L 56 240 L 56 224 L 72 224 L 72 224 Z M 88 336 L 136 336 L 136 288 L 88 288 L 88 336 L 88 336 Z M 168 336 L 216 336 L 216 288 L 168 288 L 168 336 L 168 336 Z M 248 336 L 296 336 L 296 288 L 248 288 L 248 336 L 248 336 Z M 248 368 L 248 416 L 296 416 L 296 368 L 248 368 L 248 368 Z M 216 368 L 168 368 L 168 416 L 216 416 L 216 368 L 216 368 Z M 136 368 L 88 368 L 88 416 L 136 416 L 136 368 L 136 368 Z"
  />
</svg>