<svg xmlns="http://www.w3.org/2000/svg" viewBox="0 0 512 512">
  <path d="M 267.0215264187867 499.9765166340509 L 256 512 L 267.0215264187867 499.9765166340509 L 256 512 L 244.9784735812133 499.9765166340509 L 244.9784735812133 499.9765166340509 L 116.7279843444227 371.7260273972603 L 116.7279843444227 371.7260273972603 L 104.70450097847358 360.70450097847356 L 104.70450097847358 360.70450097847356 L 127.74951076320939 337.6594911937378 L 127.74951076320939 337.6594911937378 L 138.7710371819961 349.6829745596869 L 138.7710371819961 349.6829745596869 L 239.96868884540118 449.87866927592955 L 239.96868884540118 449.87866927592955 L 239.96868884540118 176.34442270058707 L 239.96868884540118 176.34442270058707 L 239.96868884540118 160.31311154598825 L 239.96868884540118 160.31311154598825 L 272.0313111545988 160.31311154598825 L 272.0313111545988 160.31311154598825 L 272.0313111545988 176.34442270058707 L 272.0313111545988 176.34442270058707 L 272.0313111545988 449.87866927592955 L 272.0313111545988 449.87866927592955 L 373.22896281800394 349.6829745596869 L 373.22896281800394 349.6829745596869 L 384.2504892367906 337.6594911937378 L 384.2504892367906 337.6594911937378 L 407.29549902152644 360.70450097847356 L 407.29549902152644 360.70450097847356 L 395.2720156555773 371.7260273972603 L 395.2720156555773 371.7260273972603 L 267.0215264187867 499.9765166340509 L 267.0215264187867 499.9765166340509 Z M 63.62426614481409 176.34442270058707 L 63.62426614481409 192.3757338551859 L 63.62426614481409 176.34442270058707 L 63.62426614481409 192.3757338551859 L 31.561643835616437 192.3757338551859 L 31.561643835616437 192.3757338551859 L 31.561643835616437 176.34442270058707 L 31.561643835616437 176.34442270058707 L 31.561643835616437 16.031311154598825 L 31.561643835616437 16.031311154598825 L 31.561643835616437 0 L 31.561643835616437 0 L 47.59295499021526 0 L 480.43835616438355 0 L 480.43835616438355 16.031311154598825 L 480.43835616438355 16.031311154598825 L 480.43835616438355 176.34442270058707 L 480.43835616438355 176.34442270058707 L 480.43835616438355 192.3757338551859 L 480.43835616438355 192.3757338551859 L 448.3757338551859 192.3757338551859 L 448.3757338551859 192.3757338551859 L 448.3757338551859 176.34442270058707 L 448.3757338551859 176.34442270058707 L 448.3757338551859 32.06262230919765 L 448.3757338551859 32.06262230919765 L 63.62426614481409 32.06262230919765 L 63.62426614481409 32.06262230919765 L 63.62426614481409 176.34442270058707 L 63.62426614481409 176.34442270058707 Z" />
</svg>