<svg xmlns="http://www.w3.org/2000/svg" viewBox="0 0 640 448">
    <path d="M 80 0 Q 46 1 23 23 L 23 23 Q 1 46 0 80 L 0 368 Q 1 402 23 425 Q 46 447 80 448 Q 114 447 137 425 Q 159 402 160 368 L 160 352 L 128 352 L 128 368 Q 127 388 114 402 Q 100 415 80 416 Q 60 415 46 402 Q 33 388 32 368 L 32 80 Q 33 60 46 46 Q 60 33 80 32 Q 100 33 114 46 Q 127 60 128 80 L 128 96 L 160 96 L 160 80 Q 159 46 137 23 Q 114 1 80 0 L 80 0 Z M 224 16 L 224 0 L 192 0 L 192 16 L 192 432 L 192 448 L 224 448 L 224 432 L 224 224 L 384 224 L 384 432 L 384 448 L 416 448 L 416 432 L 416 16 L 416 0 L 384 0 L 384 16 L 384 192 L 224 192 L 224 16 L 224 16 Z M 464 0 L 448 0 L 448 16 L 448 432 L 448 448 L 480 448 L 480 432 L 480 224 L 592 224 L 608 224 L 608 192 L 592 192 L 480 192 L 480 32 L 624 32 L 640 32 L 640 0 L 624 0 L 464 0 L 464 0 Z"/>
</svg>
