<svg viewBox="0 0 384 512">
  <path
    d="M 48 512 L 32 512 L 32 496 L 32 272 L 16 272 L 0 272 L 0 256 L 0 160 Q 2 92 47 47 Q 92 2 160 0 L 224 0 Q 292 2 337 47 Q 382 92 384 160 L 384 160 L 384 176 L 384 240 L 384 256 L 384 304 L 384 320 L 368 320 L 304 320 L 304 336 L 288 336 L 224 336 L 224 352 L 224 368 L 208 368 L 144 368 L 144 496 L 144 512 L 128 512 L 48 512 L 48 512 Z M 144 336 L 192 336 L 192 320 L 192 272 L 144 272 L 144 336 L 144 336 Z M 192 240 L 192 240 L 192 192 L 112 192 L 96 192 L 96 160 L 112 160 L 192 160 L 208 160 L 224 160 L 272 160 L 288 160 L 304 160 L 352 160 Q 351 106 315 69 Q 278 33 224 32 L 160 32 Q 106 33 69 69 Q 33 106 32 160 L 32 240 L 112 240 L 112 240 L 144 240 L 144 240 L 192 240 L 192 240 Z M 224 240 L 224 256 L 224 272 L 224 304 L 272 304 L 272 192 L 224 192 L 224 240 L 224 240 Z M 112 272 L 64 272 L 64 480 L 112 480 L 112 368 L 112 352 L 112 272 L 112 272 Z M 352 240 L 352 192 L 304 192 L 304 288 L 352 288 L 352 256 L 352 240 L 352 240 Z"
  />
</svg>