<svg xmlns="http://www.w3.org/2000/svg" viewBox="0 0 512 512">
  <path d="M 460.8 76.8 L 460.8 51.2 L 460.8 76.8 L 460.8 51.2 L 436 58.4 L 436 58.4 L 180 135.2 L 180 135.2 L 166.4 139.2 L 166.4 139.2 L 166.4 153.6 L 166.4 153.6 L 166.4 162.4 L 166.4 162.4 L 38.4 63.2 L 38.4 63.2 L 23.2 51.2 L 23.2 51.2 L 0 81.6 L 0 81.6 L 15.2 93.6 L 15.2 93.6 L 473.6 448.8 L 473.6 448.8 L 488.8 460.8 L 488.8 460.8 L 512 430.4 L 512 430.4 L 496.8 418.4 L 496.8 418.4 L 448 380.8 L 448 380.8 Q 460.8 365.6 460.8 345.6 L 460.8 345.6 L 460.8 345.6 L 460.8 166.4 L 460.8 166.4 L 460.8 76.8 L 460.8 76.8 Z M 417.6 357.6 L 371.2 321.6 L 417.6 357.6 L 371.2 321.6 Q 376.8 320 384 320 Q 404.8 320.8 413.6 329.6 Q 422.4 339.2 422.4 345.6 L 422.4 345.6 L 422.4 345.6 Q 422.4 350.4 417.6 357.6 L 417.6 357.6 Z M 337.6 295.2 L 265.6 239.2 L 337.6 295.2 L 265.6 239.2 L 422.4 192 L 422.4 192 L 422.4 290.4 L 422.4 290.4 Q 405.6 281.6 384 281.6 Q 356.8 282.4 337.6 295.2 L 337.6 295.2 Z M 228.8 210.4 L 204.8 192 L 228.8 210.4 L 204.8 192 L 204.8 168 L 204.8 168 L 422.4 102.4 L 422.4 102.4 L 422.4 152 L 422.4 152 L 228.8 210.4 L 228.8 210.4 Z M 204.8 289.6 L 166.4 259.2 L 204.8 289.6 L 166.4 259.2 L 166.4 341.6 L 166.4 341.6 Q 149.6 332.8 128 332.8 Q 95.2 333.6 73.6 351.2 Q 52 369.6 51.2 396.8 Q 52 424 73.6 442.4 Q 95.2 460 128 460.8 Q 160.8 460 182.4 442.4 Q 204 424 204.8 396.8 L 204.8 396.8 L 204.8 396.8 L 204.8 289.6 L 204.8 289.6 Z M 166.4 396.8 L 166.4 396.8 L 166.4 396.8 L 166.4 396.8 Q 166.4 403.2 157.6 412.8 Q 148.8 421.6 128 422.4 Q 107.2 421.6 98.4 412.8 Q 89.6 403.2 89.6 396.8 Q 89.6 390.4 98.4 380.8 Q 107.2 372 128 371.2 Q 148.8 372 157.6 380.8 Q 166.4 390.4 166.4 396.8 L 166.4 396.8 Z" />
</svg>