<svg xmlns="http://www.w3.org/2000/svg" viewBox="0 0 512 512">
  <path d="M 28.444444444444443 113.77777777777777 L 28.444444444444443 398.22222222222223 L 28.444444444444443 113.77777777777777 L 28.444444444444443 398.22222222222223 L 483.55555555555554 398.22222222222223 L 483.55555555555554 398.22222222222223 L 483.55555555555554 113.77777777777777 L 483.55555555555554 113.77777777777777 L 28.444444444444443 113.77777777777777 L 28.444444444444443 113.77777777777777 Z M 0 85.33333333333333 L 28.444444444444443 85.33333333333333 L 0 85.33333333333333 L 512 85.33333333333333 L 512 113.77777777777777 L 512 113.77777777777777 L 512 398.22222222222223 L 512 398.22222222222223 L 512 426.6666666666667 L 512 426.6666666666667 L 483.55555555555554 426.6666666666667 L 0 426.6666666666667 L 0 398.22222222222223 L 0 398.22222222222223 L 0 113.77777777777777 L 0 113.77777777777777 L 0 85.33333333333333 L 0 85.33333333333333 Z M 227.55555555555554 227.55555555555554 L 227.55555555555554 256 L 227.55555555555554 227.55555555555554 L 227.55555555555554 256 L 85.33333333333333 256 L 85.33333333333333 256 L 85.33333333333333 227.55555555555554 L 85.33333333333333 227.55555555555554 L 227.55555555555554 227.55555555555554 L 227.55555555555554 227.55555555555554 Z M 85.33333333333333 312.8888888888889 L 426.6666666666667 312.8888888888889 L 85.33333333333333 312.8888888888889 L 426.6666666666667 312.8888888888889 L 426.6666666666667 341.3333333333333 L 426.6666666666667 341.3333333333333 L 85.33333333333333 341.3333333333333 L 85.33333333333333 341.3333333333333 L 85.33333333333333 312.8888888888889 L 85.33333333333333 312.8888888888889 Z M 312.8888888888889 184.88888888888889 L 312.8888888888889 241.77777777777777 L 312.8888888888889 184.88888888888889 L 312.8888888888889 241.77777777777777 L 398.22222222222223 241.77777777777777 L 398.22222222222223 241.77777777777777 L 398.22222222222223 184.88888888888889 L 398.22222222222223 184.88888888888889 L 312.8888888888889 184.88888888888889 L 312.8888888888889 184.88888888888889 Z M 284.44444444444446 156.44444444444446 L 312.8888888888889 156.44444444444446 L 284.44444444444446 156.44444444444446 L 426.6666666666667 156.44444444444446 L 426.6666666666667 184.88888888888889 L 426.6666666666667 184.88888888888889 L 426.6666666666667 241.77777777777777 L 426.6666666666667 241.77777777777777 L 426.6666666666667 270.22222222222223 L 426.6666666666667 270.22222222222223 L 398.22222222222223 270.22222222222223 L 284.44444444444446 270.22222222222223 L 284.44444444444446 241.77777777777777 L 284.44444444444446 241.77777777777777 L 284.44444444444446 184.88888888888889 L 284.44444444444446 184.88888888888889 L 284.44444444444446 156.44444444444446 L 284.44444444444446 156.44444444444446 Z" />
</svg>