<svg viewBox="0 0 448 512">
  <path
    d="M 112 48 L 112 112 L 48 112 L 48 48 L 112 48 L 112 48 Z M 48 0 L 0 0 L 0 48 L 0 112 L 0 160 L 48 160 L 56 160 L 56 192 Q 57 229 82 254 Q 107 279 144 280 L 200 280 L 200 352 L 192 352 L 144 352 L 144 400 L 144 464 L 144 512 L 192 512 L 256 512 L 304 512 L 304 464 L 304 400 L 304 352 L 256 352 L 248 352 L 248 280 L 304 280 Q 341 279 366 254 Q 391 229 392 192 L 392 160 L 400 160 L 448 160 L 448 112 L 448 48 L 448 0 L 400 0 L 336 0 L 288 0 L 288 48 L 288 112 L 288 160 L 336 160 L 344 160 L 344 192 Q 344 209 332 220 Q 321 232 304 232 L 144 232 Q 127 232 116 220 Q 104 209 104 192 L 104 160 L 112 160 L 160 160 L 160 112 L 160 48 L 160 0 L 112 0 L 48 0 L 48 0 Z M 400 48 L 400 112 L 336 112 L 336 48 L 400 48 L 400 48 Z M 192 400 L 256 400 L 256 464 L 192 464 L 192 400 L 192 400 Z"
  />
</svg>