<svg xmlns="http://www.w3.org/2000/svg" viewBox="0 0 512 512">
  <path d="M 245 10 L 256 0 L 245 10 L 256 0 L 267 10 L 267 10 Q 384 112 437 258 Q 448 288 448 320 Q 446 401 391 456 Q 337 510 256 512 Q 175 510 121 456 Q 66 401 64 320 Q 64 288 75 258 Q 128 112 245 10 L 245 10 Z M 120 274 Q 112 296 112 320 Q 114 381 154 422 Q 195 462 256 464 Q 317 462 358 422 Q 398 381 400 320 Q 400 297 392 274 Q 348 154 256 65 Q 164 154 120 274 L 120 274 Z M 346 290 Q 352 304 352 320 Q 351 360 324 388 Q 297 415 256 416 Q 215 415 188 388 Q 161 360 160 320 Q 160 304 166 290 L 167 288 L 167 288 Q 192 232 238 192 L 256 176 L 256 176 L 274 192 L 274 192 Q 320 232 345 288 L 346 290 L 346 290 Z" />
</svg>