<svg xmlns="http://www.w3.org/2000/svg" viewBox="0 0 512 512">
  <path d="M 479 191 Q 512 157 512 112 L 512 112 L 512 112 Q 512 67 479 33 Q 445 0 400 0 Q 355 0 321 33 L 316 38 L 316 38 L 475 196 L 475 196 L 479 191 L 479 191 Z M 452 219 L 294 60 L 452 219 L 294 60 L 289 65 L 289 65 Q 252 104 256 154 L 358 256 L 358 256 Q 408 260 447 223 L 452 219 L 452 219 Z M 340 282 L 230 172 L 340 282 L 230 172 L 0 448 L 0 448 L 64 512 L 64 512 L 224 379 L 224 379 L 224 480 L 224 480 L 224 512 L 224 512 L 288 512 L 288 512 L 288 480 L 288 480 L 288 325 L 288 325 L 340 282 L 340 282 Z" />
</svg>