<svg xmlns="http://www.w3.org/2000/svg" viewBox="0 0 512 512">
  <path d="M 160 128 L 160 192 L 160 128 L 160 192 L 352 192 L 352 192 L 352 128 L 352 128 Q 351 87 324 60 Q 297 33 256 32 Q 215 33 188 60 Q 161 87 160 128 L 160 128 Z M 128 192 L 128 128 L 128 192 L 128 128 Q 129 74 165 37 Q 202 1 256 0 Q 310 1 347 37 Q 383 74 384 128 L 384 192 L 384 192 L 448 192 L 480 192 L 480 224 L 480 224 L 480 480 L 480 480 L 480 512 L 480 512 L 448 512 L 32 512 L 32 480 L 32 480 L 32 224 L 32 224 L 32 192 L 32 192 L 64 192 L 128 192 Z M 64 480 L 448 480 L 64 480 L 448 480 L 448 224 L 448 224 L 64 224 L 64 224 L 64 480 L 64 480 Z M 297 400 L 215 400 L 297 400 L 215 400 L 193 448 L 193 448 L 158 448 L 158 448 L 159 445 L 159 445 L 241 265 L 241 265 L 246 256 L 246 256 L 266 256 L 266 256 L 271 265 L 271 265 L 353 445 L 353 445 L 354 448 L 354 448 L 319 448 L 319 448 L 297 400 L 297 400 Z M 282 368 L 256 311 L 282 368 L 256 311 L 230 368 L 230 368 L 282 368 L 282 368 Z" />
</svg>