<svg xmlns="http://www.w3.org/2000/svg" viewBox="0 0 512 512">
  <path d="M 27.719745222929937 52.17834394904459 L 0 79.89808917197452 L 27.719745222929937 52.17834394904459 L 0 79.89808917197452 L 13.859872611464969 93.75796178343948 L 13.859872611464969 93.75796178343948 L 59.51592356687898 139.4140127388535 L 59.51592356687898 139.4140127388535 L 73.37579617834395 153.27388535031847 L 73.37579617834395 153.27388535031847 L 101.09554140127389 125.55414012738854 L 101.09554140127389 125.55414012738854 L 87.23566878980891 111.69426751592357 L 87.23566878980891 111.69426751592357 L 41.5796178343949 66.03821656050955 L 41.5796178343949 66.03821656050955 L 27.719745222929937 52.17834394904459 L 27.719745222929937 52.17834394904459 Z M 484.28025477707007 52.17834394904459 L 470.4203821656051 66.03821656050955 L 484.28025477707007 52.17834394904459 L 470.4203821656051 66.03821656050955 L 424.7643312101911 111.69426751592357 L 424.7643312101911 111.69426751592357 L 410.90445859872614 125.55414012738854 L 410.90445859872614 125.55414012738854 L 438.62420382165607 153.27388535031847 L 438.62420382165607 153.27388535031847 L 452.484076433121 139.4140127388535 L 452.484076433121 139.4140127388535 L 498.140127388535 93.75796178343948 L 498.140127388535 93.75796178343948 L 512 79.89808917197452 L 512 79.89808917197452 L 484.28025477707007 52.17834394904459 L 484.28025477707007 52.17834394904459 Z M 41.5796178343949 445.96178343949043 L 87.23566878980891 400.30573248407643 L 41.5796178343949 445.96178343949043 L 87.23566878980891 400.30573248407643 L 101.09554140127389 386.4458598726115 L 101.09554140127389 386.4458598726115 L 73.37579617834395 358.7261146496815 L 73.37579617834395 358.7261146496815 L 59.51592356687898 372.5859872611465 L 59.51592356687898 372.5859872611465 L 13.859872611464969 418.2420382165605 L 13.859872611464969 418.2420382165605 L 0 432.1019108280255 L 0 432.1019108280255 L 27.719745222929937 459.8216560509554 L 27.719745222929937 459.8216560509554 L 41.5796178343949 445.96178343949043 L 41.5796178343949 445.96178343949043 Z M 484.28025477707007 459.8216560509554 L 512 432.1019108280255 L 484.28025477707007 459.8216560509554 L 512 432.1019108280255 L 498.140127388535 418.2420382165605 L 498.140127388535 418.2420382165605 L 452.484076433121 372.5859872611465 L 452.484076433121 372.5859872611465 L 438.62420382165607 358.7261146496815 L 438.62420382165607 358.7261146496815 L 410.90445859872614 386.4458598726115 L 410.90445859872614 386.4458598726115 L 424.7643312101911 400.30573248407643 L 424.7643312101911 400.30573248407643 L 470.4203821656051 445.96178343949043 L 470.4203821656051 445.96178343949043 L 484.28025477707007 459.8216560509554 L 484.28025477707007 459.8216560509554 Z M 177.7324840764331 190.77707006369425 Q 176.9171974522293 168.76433121019107 158.1656050955414 156.53503184713375 Q 138.59872611464968 146.7515923566879 119.03184713375796 156.53503184713375 Q 100.28025477707007 168.76433121019107 99.46496815286625 190.77707006369425 Q 100.28025477707007 212.78980891719746 119.03184713375796 225.01910828025478 Q 138.59872611464968 234.80254777070064 158.1656050955414 225.01910828025478 Q 176.9171974522293 212.78980891719746 177.7324840764331 190.77707006369425 L 177.7324840764331 190.77707006369425 Z M 92.94267515923566 256 L 73.37579617834395 321.2229299363057 L 92.94267515923566 256 L 73.37579617834395 321.2229299363057 L 150.01273885350318 321.2229299363057 L 150.01273885350318 321.2229299363057 L 166.3184713375796 273.9363057324841 L 166.3184713375796 273.9363057324841 L 172.02547770700636 256 L 172.02547770700636 256 L 92.94267515923566 256 L 92.94267515923566 256 Z M 361.9872611464968 321.2229299363057 L 438.62420382165607 321.2229299363057 L 361.9872611464968 321.2229299363057 L 438.62420382165607 321.2229299363057 L 419.05732484076435 256 L 419.05732484076435 256 L 339.97452229299364 256 L 339.97452229299364 256 L 345.68152866242036 273.9363057324841 L 345.68152866242036 273.9363057324841 L 361.9872611464968 321.2229299363057 L 361.9872611464968 321.2229299363057 Z M 347.312101910828 360.35668789808915 L 334.26751592356686 321.2229299363057 L 347.312101910828 360.35668789808915 L 334.26751592356686 321.2229299363057 L 321.2229299363057 282.0891719745223 L 321.2229299363057 282.0891719745223 L 306.54777070063693 282.0891719745223 L 190.77707006369425 282.0891719745223 L 177.7324840764331 321.2229299363057 L 177.7324840764331 321.2229299363057 L 164.68789808917197 360.35668789808915 L 164.68789808917197 360.35668789808915 L 347.312101910828 360.35668789808915 L 347.312101910828 360.35668789808915 Z M 412.5350318471338 190.77707006369425 Q 411.71974522292993 168.76433121019107 392.96815286624206 156.53503184713375 Q 373.4012738853503 146.7515923566879 353.8343949044586 156.53503184713375 Q 335.0828025477707 168.76433121019107 334.26751592356686 190.77707006369425 Q 335.0828025477707 212.78980891719746 353.8343949044586 225.01910828025478 Q 373.4012738853503 234.80254777070064 392.96815286624206 225.01910828025478 Q 411.71974522292993 212.78980891719746 412.5350318471338 190.77707006369425 L 412.5350318471338 190.77707006369425 Z M 256 256 Q 285.3503184713376 255.18471337579618 300.8407643312102 229.9108280254777 Q 315.515923566879 203.82165605095543 300.8407643312102 177.7324840764331 Q 285.3503184713376 152.45859872611464 256 151.64331210191082 Q 226.64968152866243 152.45859872611464 211.15923566878982 177.7324840764331 Q 196.48407643312103 203.82165605095543 211.15923566878982 229.9108280254777 Q 226.64968152866243 255.18471337579618 256 256 L 256 256 Z" />
</svg>