<svg xmlns="http://www.w3.org/2000/svg" viewBox="0 0 512 512">
  <path d="M 358.4 204.8 Q 387.2 205.6 402.4 230.4 Q 416.8 256 402.4 281.6 Q 387.2 306.4 358.4 307.2 Q 329.6 306.4 314.4 281.6 Q 300 256 314.4 230.4 Q 329.6 205.6 358.4 204.8 L 358.4 204.8 Z M 358.4 409.6 Q 400 409.6 435.2 388.8 L 435.2 388.8 L 435.2 388.8 Q 470.4 368.8 491.2 332.8 Q 512 296.8 512 256 Q 512 215.2 491.2 179.2 Q 470.4 143.2 435.2 123.2 Q 400 102.4 358.4 102.4 Q 316.8 102.4 281.6 123.2 Q 246.4 143.2 225.6 179.2 Q 204.8 215.2 204.8 256 Q 204.8 296.8 225.6 332.8 Q 246.4 368.8 281.6 388.8 Q 316.8 409.6 358.4 409.6 L 358.4 409.6 Z M 384 256 Q 384 244.8 376.8 237.6 L 376.8 237.6 L 376.8 237.6 Q 369.6 230.4 358.4 230.4 Q 347.2 230.4 340 237.6 Q 332.8 244.8 332.8 256 Q 332.8 267.2 340 274.4 Q 347.2 281.6 358.4 281.6 Q 369.6 281.6 376.8 274.4 Q 384 267.2 384 256 L 384 256 Z M 151.2 215.2 L 109.6 179.2 L 151.2 215.2 L 109.6 179.2 L 166.4 179.2 L 192 179.2 L 192 128 L 192 128 L 166.4 128 L 0 128 L 0 179.2 L 0 179.2 L 25.6 179.2 L 51.2 179.2 L 104 224.8 L 104 224.8 L 76.8 230.4 L 76.8 230.4 L 76.8 281.6 L 76.8 281.6 L 104 287.2 L 104 287.2 L 51.2 332.8 L 51.2 332.8 L 25.6 332.8 L 0 332.8 L 0 384 L 0 384 L 25.6 384 L 192 384 L 192 332.8 L 192 332.8 L 166.4 332.8 L 109.6 332.8 L 151.2 296.8 L 151.2 296.8 L 185.6 303.2 L 185.6 303.2 Q 179.2 280.8 179.2 256 Q 179.2 231.2 185.6 208.8 L 151.2 215.2 L 151.2 215.2 Z" />
</svg>