<svg xmlns="http://www.w3.org/2000/svg" viewBox="0 0 512 512">
  <path d="M 0 232 L 24 232 L 0 232 L 512 232 L 512 280 L 512 280 L 488 280 L 0 280 L 0 232 L 0 232 Z M 222 354 L 256 320 L 222 354 L 256 320 L 290 354 L 290 354 L 400 464 L 400 464 L 416 480 L 416 480 L 416 512 L 416 512 L 384 512 L 96 512 L 96 480 L 96 480 L 112 464 L 112 464 L 222 354 L 222 354 Z M 332 464 L 256 388 L 332 464 L 256 388 L 180 464 L 180 464 L 332 464 L 332 464 Z M 256 192 L 222 158 L 256 192 L 222 158 L 112 48 L 112 48 L 96 32 L 96 32 L 96 0 L 96 0 L 128 0 L 416 0 L 416 32 L 416 32 L 400 48 L 400 48 L 290 158 L 290 158 L 256 192 L 256 192 Z M 256 124 L 332 48 L 256 124 L 332 48 L 180 48 L 180 48 L 256 124 L 256 124 Z" />
</svg>