<svg xmlns="http://www.w3.org/2000/svg" viewBox="0 0 512 512">
  <path d="M 475.42856 402.2857 L 475.42856 475.42856 L 475.42856 402.2857 L 475.42856 475.42856 L 36.57143 475.42856 L 36.57143 475.42856 L 36.57143 402.2857 L 36.57143 402.2857 L 475.42856 402.2857 L 475.42856 402.2857 Z M 120 365.7143 L 36.57143 365.7143 L 120 365.7143 L 36.57143 365.7143 L 36.57143 355.42856 L 36.57143 355.42856 L 146.28572 245.71428 L 146.28572 245.71428 L 193.14285 292.57144 L 193.14285 292.57144 L 124.57143 362.2857 L 124.57143 362.2857 L 120 365.7143 L 120 365.7143 Z M 172.57143 365.7143 L 232 305.14285 L 172.57143 365.7143 L 232 305.14285 L 329.14285 209.14285 L 329.14285 209.14285 L 475.42856 355.42856 L 475.42856 355.42856 L 475.42856 365.7143 L 475.42856 365.7143 L 172.57143 365.7143 L 172.57143 365.7143 Z M 475.42856 302.85715 L 341.7143 170.28572 L 475.42856 302.85715 L 341.7143 170.28572 L 329.14285 156.57143 L 329.14285 156.57143 L 316.57144 170.28572 L 316.57144 170.28572 L 219.42857 266.2857 L 219.42857 266.2857 L 158.85715 206.85715 L 158.85715 206.85715 L 146.28572 193.14285 L 146.28572 193.14285 L 133.71428 206.85715 L 133.71428 206.85715 L 36.57143 302.85715 L 36.57143 302.85715 L 36.57143 36.57143 L 36.57143 36.57143 L 475.42856 36.57143 L 475.42856 36.57143 L 475.42856 302.85715 L 475.42856 302.85715 Z M 512 347.42856 L 512 36.57143 L 512 347.42856 L 512 36.57143 L 512 0 L 512 0 L 475.42856 0 L 0 0 L 0 36.57143 L 0 36.57143 L 0 347.42856 L 0 347.42856 Q 0 347.42856 0 347.42856 Q 0 347.42856 0 347.42856 L 0 365.7143 L 0 365.7143 L 0 384 L 0 384 L 0 402.2857 L 0 402.2857 L 0 475.42856 L 0 475.42856 L 0 512 L 0 512 L 36.57143 512 L 512 512 L 512 475.42856 L 512 475.42856 L 512 402.2857 L 512 402.2857 L 512 384 L 512 384 L 512 365.7143 L 512 365.7143 L 512 347.42856 L 512 347.42856 Q 512 347.42856 512 347.42856 Q 512 347.42856 512 347.42856 L 512 347.42856 Z M 146.28572 118.85714 Q 144 93.71429 118.85714 91.42857 Q 93.71429 93.71429 91.42857 118.85714 Q 93.71429 144 118.85714 146.28572 Q 144 144 146.28572 118.85714 L 146.28572 118.85714 Z" />
</svg>