<svg xmlns="http://www.w3.org/2000/svg" viewBox="0 0 640 512">
    <path d="M 128 0 L 256 0 L 256 128 L 320 80 L 384 128 L 384 0 L 512 0 L 512 256 L 128 256 L 128 0 L 128 0 Z M 0 416 Q 1 375 28 348 L 28 348 Q 55 321 96 320 L 544 320 Q 585 321 612 348 Q 639 375 640 416 Q 639 457 612 484 Q 585 511 544 512 L 96 512 Q 55 511 28 484 Q 1 457 0 416 L 0 416 Z M 160 416 Q 160 402 151 393 L 151 393 Q 142 384 128 384 Q 114 384 105 393 Q 96 402 96 416 Q 96 430 105 439 Q 114 448 128 448 Q 142 448 151 439 Q 160 430 160 416 L 160 416 Z M 320 448 Q 334 448 343 439 L 343 439 Q 352 430 352 416 Q 352 402 343 393 Q 334 384 320 384 Q 306 384 297 393 Q 288 402 288 416 Q 288 430 297 439 Q 306 448 320 448 L 320 448 Z M 544 416 Q 544 402 535 393 L 535 393 Q 526 384 512 384 Q 498 384 489 393 Q 480 402 480 416 Q 480 430 489 439 Q 498 448 512 448 Q 526 448 535 439 Q 544 430 544 416 L 544 416 Z"/>
</svg>
