<svg xmlns="http://www.w3.org/2000/svg" viewBox="0 0 512 512">
  <path d="M 473.6 153.6 Q 472.8 126.4 455.2 108 L 455.2 108 L 455.2 108 Q 436.8 90.4 409.6 89.6 Q 382.4 90.4 364.8 108 Q 346.4 126.4 345.6 153.6 L 345.6 154.4 L 345.6 154.4 Q 346.4 180.8 364.8 199.2 Q 382.4 216.8 409.6 217.6 Q 436.8 216.8 455.2 199.2 Q 472.8 180.8 473.6 153.6 L 473.6 153.6 Z M 308.8 134.4 Q 316.8 98.4 344 75.2 L 344 75.2 L 344 75.2 Q 371.2 52 409.6 51.2 Q 452.8 52 482.4 80.8 Q 511.2 110.4 512 153.6 Q 511.2 196.8 482.4 226.4 Q 452.8 255.2 409.6 256 Q 371.2 255.2 344 232 Q 316.8 208.8 308.8 172.8 L 243.2 172.8 L 243.2 172.8 L 243.2 211.2 L 243.2 211.2 L 243.2 230.4 L 243.2 230.4 L 204.8 230.4 L 204.8 230.4 L 204.8 211.2 L 204.8 211.2 L 204.8 172.8 L 204.8 172.8 L 166.4 172.8 L 166.4 172.8 L 166.4 211.2 L 166.4 211.2 L 166.4 230.4 L 166.4 230.4 L 128 230.4 L 128 230.4 L 128 211.2 L 128 211.2 L 128 153.6 L 128 153.6 L 128 134.4 L 128 134.4 L 147.2 134.4 L 308.8 134.4 Z M 38.4 358.4 Q 39.2 385.6 56.8 404 L 56.8 404 L 56.8 404 Q 75.2 421.6 102.4 422.4 Q 129.6 421.6 147.2 404 Q 165.6 385.6 166.4 359.2 L 166.4 358.4 L 166.4 358.4 Q 165.6 331.2 147.2 312.8 Q 129.6 295.2 102.4 294.4 Q 75.2 295.2 56.8 312.8 Q 39.2 331.2 38.4 358.4 L 38.4 358.4 Z M 203.2 377.6 Q 195.2 413.6 168 436.8 L 168 436.8 L 168 436.8 Q 140.8 460 102.4 460.8 Q 59.2 460 29.6 431.2 Q 0.8 401.6 0 358.4 Q 0.8 315.2 29.6 285.6 Q 59.2 256.8 102.4 256 Q 140.8 256.8 168 280 Q 195.2 303.2 203.2 339.2 L 268.8 339.2 L 268.8 339.2 L 268.8 300.8 L 268.8 300.8 L 268.8 281.6 L 268.8 281.6 L 307.2 281.6 L 307.2 281.6 L 307.2 300.8 L 307.2 300.8 L 307.2 339.2 L 307.2 339.2 L 345.6 339.2 L 345.6 339.2 L 345.6 300.8 L 345.6 300.8 L 345.6 281.6 L 345.6 281.6 L 384 281.6 L 384 281.6 L 384 300.8 L 384 300.8 L 384 358.4 L 384 358.4 L 384 377.6 L 384 377.6 L 364.8 377.6 L 203.2 377.6 Z" />
</svg>