<svg viewBox="0 0 640 512">
  <path
    d="M 144 0 L 0 32 L 0 64 Q 1 189 61 290 Q 121 391 222 451 Q 323 511 448 512 L 480 512 L 512 368 L 368 288 L 301 372 Q 196 316 140 211 L 224 144 L 144 0 L 144 0 Z M 352 64 L 288 64 L 288 128 L 352 128 L 352 64 L 352 64 Z M 352 160 L 288 160 L 288 224 L 352 224 L 352 160 L 352 160 Z M 384 64 L 384 128 L 448 128 L 448 64 L 384 64 L 384 64 Z M 544 64 L 480 64 L 480 128 L 544 128 L 544 64 L 544 64 Z M 576 64 L 576 128 L 640 128 L 640 64 L 576 64 L 576 64 Z M 640 160 L 576 160 L 576 224 L 640 224 L 640 160 L 640 160 Z M 384 160 L 384 224 L 544 224 L 544 160 L 384 160 L 384 160 Z"
  />
</svg>