<svg xmlns="http://www.w3.org/2000/svg" viewBox="0 0 512 512">
  <path d="M 423.3846 276.92307 L 441.43588 258.05127 L 423.3846 276.92307 L 441.43588 258.05127 L 460.30768 239.17949 L 460.30768 239.17949 L 441.43588 221.1282 L 441.43588 221.1282 L 432.41025 211.28206 L 432.41025 211.28206 Q 409.43588 189.1282 380.71796 183.38461 L 393.84616 182.5641 L 393.84616 182.5641 Q 422.56412 180.10257 441.43588 161.23077 Q 460.30768 142.35898 462.76923 113.64103 L 464.41025 74.25641 L 464.41025 74.25641 L 466.05127 48 L 466.05127 48 L 439.79486 49.641026 L 439.79486 49.641026 L 400.41025 51.28205 L 400.41025 51.28205 Q 371.69232 53.74359 352.82053 72.61539 Q 333.94873 91.48718 331.48718 120.20513 L 330.66666 134.15384 L 330.66666 134.15384 Q 324.92307 104.61539 301.94873 81.64103 L 292.92307 72.61539 L 292.92307 72.61539 L 274.8718 53.74359 L 274.8718 53.74359 L 256 72.61539 L 256 72.61539 L 237.1282 90.666664 L 237.1282 90.666664 Q 214.15384 116.10256 214.15384 148.10257 L 248.61539 175.17949 L 248.61539 175.17949 Q 238.76923 159.58974 240.41026 141.53847 Q 242.05128 123.48718 256 109.53846 L 274.05127 90.666664 L 274.05127 90.666664 L 283.89743 100.51282 L 283.89743 100.51282 Q 305.23077 122.666664 306.8718 152.20512 Q 307.69232 181.74359 288 206.35898 L 310.15384 223.58974 L 310.15384 223.58974 Q 333.94873 205.53847 362.66666 207.17949 Q 391.3846 208.82051 413.53845 230.15384 L 422.56412 239.17949 L 422.56412 239.17949 L 404.51282 258.05127 L 404.51282 258.05127 Q 390.56412 271.17947 372.51282 272.82053 L 397.94873 293.33334 L 397.94873 293.33334 Q 411.89743 287.58975 422.56412 276.92307 L 423.3846 276.92307 Z M 228.92308 303.17947 L 208.41026 286.76923 L 228.92308 303.17947 L 208.41026 286.76923 L 184.61539 310.56412 L 184.61539 310.56412 Q 186.25641 285.1282 175.58974 261.33334 L 114.871796 213.74359 L 114.871796 213.74359 L 107.48718 221.1282 L 107.48718 221.1282 L 88.61539 239.17949 L 88.61539 239.17949 Q 65.64103 263.79486 65.64103 294.97437 Q 65.64103 326.15384 88.61539 350.76923 L 116.51282 378.66666 L 116.51282 378.66666 L 50.05128 445.94873 L 50.05128 445.94873 L 68.10256 464 L 68.10256 464 L 135.38461 397.53845 L 135.38461 397.53845 L 135.38461 397.53845 L 135.38461 397.53845 L 163.28206 425.43588 L 163.28206 425.43588 Q 187.07692 448.41025 219.07692 448.41025 Q 250.25641 448.41025 274.8718 425.43588 L 292.92307 406.56412 L 292.92307 406.56412 L 311.79486 387.69232 L 311.79486 387.69232 L 292.92307 369.64102 L 292.92307 369.64102 L 283.89743 359.79486 L 283.89743 359.79486 Q 248.61539 326.97437 202.66667 329.43588 L 228.92308 303.17947 L 228.92308 303.17947 Z M 438.15384 75.89744 L 436.51282 112.82051 L 438.15384 75.89744 L 436.51282 112.82051 Q 434.8718 130.8718 423.3846 143.17949 Q 411.07693 154.66667 393.02563 156.3077 L 356.10257 157.94872 L 356.10257 157.94872 L 357.7436 121.02564 L 357.7436 121.02564 Q 359.3846 102.97436 370.8718 90.666664 Q 383.17947 79.17949 401.23077 77.53846 L 438.15384 75.89744 L 438.15384 75.89744 Z M 135.38461 359.79486 L 107.48718 331.89743 L 135.38461 359.79486 L 107.48718 331.89743 Q 91.89744 316.30768 91.89744 294.97437 Q 91.89744 274.46155 107.48718 258.05127 L 126.35897 239.17949 L 126.35897 239.17949 L 135.38461 249.02563 L 135.38461 249.02563 Q 158.35898 272.82053 158.35898 304 Q 158.35898 335.17947 136.20512 359.79486 L 135.38461 359.79486 L 135.38461 359.79486 Z M 274.05127 387.69232 L 256 406.56412 L 274.05127 387.69232 L 256 406.56412 Q 239.58974 422.15384 219.07692 422.15384 Q 197.74359 422.15384 181.33333 406.56412 L 154.25641 378.66666 L 154.25641 378.66666 Q 178.05128 355.69232 209.23077 355.69232 Q 241.23077 355.69232 265.02563 378.66666 L 274.8718 387.69232 L 274.05127 387.69232 Z M 26.25641 62.76923 L 16.410257 54.564102 L 26.25641 62.76923 L 16.410257 54.564102 L 0 75.07692 L 0 75.07692 L 10.666667 83.28205 L 10.666667 83.28205 L 485.7436 453.33334 L 485.7436 453.33334 L 495.58975 461.53845 L 495.58975 461.53845 L 512 441.02563 L 512 441.02563 L 502.15384 432.82053 L 502.15384 432.82053 L 26.25641 62.76923 L 26.25641 62.76923 Z" />
</svg>