<svg xmlns="http://www.w3.org/2000/svg" viewBox="0 0 512 512">
  <path d="M 28.444445 85.333336 L 28.444445 369.77777 L 28.444445 85.333336 L 28.444445 369.77777 L 483.55554 369.77777 L 483.55554 369.77777 L 483.55554 85.333336 L 483.55554 85.333336 L 455.1111 85.333336 L 28.444445 85.333336 Z M 455.1111 56.88889 L 483.55554 56.88889 L 455.1111 56.88889 L 512 56.88889 L 512 85.333336 L 512 85.333336 L 512 369.77777 L 512 369.77777 L 512 398.22223 L 512 398.22223 L 483.55554 398.22223 L 455.1111 398.22223 L 455.1111 483.55554 L 455.1111 483.55554 L 426.66666 483.55554 L 426.66666 483.55554 L 426.66666 398.22223 L 426.66666 398.22223 L 85.333336 398.22223 L 85.333336 398.22223 L 85.333336 483.55554 L 85.333336 483.55554 L 56.88889 483.55554 L 56.88889 483.55554 L 56.88889 398.22223 L 56.88889 398.22223 L 28.444445 398.22223 L 0 398.22223 L 0 369.77777 L 0 369.77777 L 0 85.333336 L 0 85.333336 L 0 56.88889 L 0 56.88889 L 28.444445 56.88889 L 56.88889 56.88889 L 56.88889 28.444445 L 56.88889 28.444445 L 85.333336 28.444445 L 85.333336 28.444445 L 85.333336 56.88889 L 85.333336 56.88889 L 426.66666 56.88889 L 426.66666 56.88889 L 426.66666 28.444445 L 426.66666 28.444445 L 455.1111 28.444445 L 455.1111 28.444445 L 455.1111 56.88889 L 455.1111 56.88889 Z" />
</svg>