<svg xmlns="http://www.w3.org/2000/svg" viewBox="0 0 512 512">
  <path d="M 232 224 L 480 0 L 232 224 L 480 0 L 512 32 L 512 32 L 338 224 L 338 224 L 232 224 L 232 224 Z M 130 478 L 96 512 L 130 478 L 96 512 L 62 478 L 62 478 L 34 450 L 34 450 L 0 416 L 0 416 L 34 382 L 34 382 L 160 256 L 160 256 L 284 256 L 352 256 L 304 304 L 304 304 L 130 478 L 130 478 Z M 169 371 L 236 304 L 169 371 L 236 304 L 180 304 L 180 304 L 141 343 L 141 343 L 169 371 L 169 371 Z M 147 393 L 119 365 L 147 393 L 119 365 L 68 416 L 68 416 L 96 444 L 96 444 L 147 393 L 147 393 Z" />
</svg>