<svg xmlns="http://www.w3.org/2000/svg" viewBox="0 0 512 512">
  <path d="M 38.4 63.2 L 23.2 51.2 L 38.4 63.2 L 23.2 51.2 L 0 81.6 L 0 81.6 L 15.2 93.6 L 15.2 93.6 L 473.6 448.8 L 473.6 448.8 L 488.8 460.8 L 488.8 460.8 L 512 430.4 L 512 430.4 L 496.8 418.4 L 496.8 418.4 L 486.4 410.4 L 486.4 410.4 L 486.4 396.8 L 486.4 396.8 L 486.4 115.2 L 486.4 115.2 L 486.4 76.8 L 486.4 76.8 L 448 76.8 L 56.8 76.8 L 38.4 63.2 L 38.4 63.2 Z M 105.6 115.2 L 448 115.2 L 105.6 115.2 L 448 115.2 L 448 380.8 L 448 380.8 L 375.2 324 L 375.2 324 Q 392.8 314.4 404 296.8 L 372 276.8 L 372 276.8 Q 360.8 293.6 339.2 294.4 Q 337.6 294.4 336.8 294.4 L 302.4 268 L 302.4 268 Q 300.8 262.4 300.8 256 Q 301.6 240 312 228.8 Q 323.2 218.4 339.2 217.6 Q 360.8 218.4 372 235.2 L 404 215.2 L 404 215.2 Q 381.6 180.8 339.2 179.2 Q 311.2 180 291.2 196 Q 271.2 212 264.8 238.4 L 241.6 220.8 L 241.6 220.8 L 250.4 215.2 L 250.4 215.2 Q 229.6 182.4 188.8 179.2 L 105.6 115.2 L 105.6 115.2 Z M 25.6 396.8 L 25.6 435.2 L 25.6 396.8 L 25.6 435.2 L 64 435.2 L 389.6 435.2 L 341.6 396.8 L 341.6 396.8 L 64 396.8 L 64 396.8 L 64 178.4 L 64 178.4 L 25.6 148 L 25.6 148 L 25.6 396.8 L 25.6 396.8 Z M 108.8 256 Q 109.6 288.8 131.2 310.4 L 131.2 310.4 L 131.2 310.4 Q 152.8 332 185.6 332.8 Q 215.2 332 236 313.6 L 204.8 289.6 L 204.8 289.6 Q 196 294.4 185.6 294.4 Q 169.6 293.6 158.4 283.2 Q 148 272 147.2 256 Q 147.2 250.4 148.8 245.6 L 117.6 220.8 L 117.6 220.8 Q 108.8 236.8 108.8 256 L 108.8 256 Z" />
</svg>