<svg viewBox="0 0 448 512">
  <path
    d="M 224 32 L 189 14 L 160 0 L 147 29 L 110 114 Q 124 118 141 121 L 176 44 L 210 61 L 224 68 L 238 61 L 272 44 L 307 121 Q 271 128 224 128 Q 131 126 84 105 Q 36 84 29 70 L 1 85 Q 8 106 26 130 Q 45 154 73 175 Q 102 196 140 210 Q 178 224 224 224 Q 270 224 308 210 Q 346 196 375 175 Q 403 154 421 130 Q 440 106 447 85 L 419 70 Q 412 84 364 105 Q 352 110 338 114 L 301 29 L 288 0 L 259 14 L 224 32 L 224 32 Z M 46 480 L 70 416 L 378 416 L 402 480 L 46 480 L 46 480 Z M 48 384 L 12 480 L 0 512 L 34 512 L 414 512 L 448 512 L 436 480 L 400 384 L 48 384 L 48 384 Z M 371 137 Q 364 143 356 149 Q 331 168 298 180 Q 264 192 224 192 Q 184 192 150 180 Q 117 168 92 149 Q 84 143 77 137 Q 130 158 224 160 Q 318 158 371 137 L 371 137 Z M 96 226 Q 98 280 134 315 L 134 315 Q 170 351 224 352 Q 278 351 314 315 Q 350 280 352 226 Q 336 234 319 240 Q 312 275 286 297 Q 260 319 224 320 Q 188 319 162 297 Q 136 275 129 240 Q 112 234 96 226 L 96 226 Z"
  />
</svg>