<svg xmlns="http://www.w3.org/2000/svg" viewBox="0 0 512 512">
  <path d="M 230.4 435.2 L 230.4 396.8 L 230.4 435.2 L 230.4 396.8 L 96 396.8 L 76.8 396.8 L 76.8 435.2 L 76.8 435.2 L 96 435.2 L 230.4 435.2 Z M 38.4 76.8 L 0 76.8 L 38.4 76.8 L 0 76.8 L 0 115.2 L 0 115.2 L 0 320 L 0 320 L 0 358.4 L 0 358.4 L 38.4 358.4 L 230.4 358.4 L 230.4 320 L 230.4 320 L 38.4 320 L 38.4 320 L 38.4 115.2 L 38.4 115.2 L 230.4 115.2 L 230.4 115.2 L 230.4 76.8 L 230.4 76.8 L 38.4 76.8 L 38.4 76.8 Z M 473.6 115.2 L 473.6 396.8 L 473.6 115.2 L 473.6 396.8 L 294.4 396.8 L 294.4 396.8 L 294.4 115.2 L 294.4 115.2 L 473.6 115.2 L 473.6 115.2 Z M 294.4 76.8 L 256 76.8 L 294.4 76.8 L 256 76.8 L 256 115.2 L 256 115.2 L 256 396.8 L 256 396.8 L 256 435.2 L 256 435.2 L 294.4 435.2 L 512 435.2 L 512 396.8 L 512 396.8 L 512 115.2 L 512 115.2 L 512 76.8 L 512 76.8 L 473.6 76.8 L 294.4 76.8 Z M 384 192 Q 395.2 192 402.4 184.8 L 402.4 184.8 L 402.4 184.8 Q 409.6 177.6 409.6 166.4 Q 409.6 155.2 402.4 148 Q 395.2 140.8 384 140.8 Q 372.8 140.8 365.6 148 Q 358.4 155.2 358.4 166.4 Q 358.4 177.6 365.6 184.8 Q 372.8 192 384 192 L 384 192 Z M 358.4 307.2 Q 358.4 296 365.6 288.8 L 365.6 288.8 L 365.6 288.8 Q 372.8 281.6 384 281.6 Q 395.2 281.6 402.4 288.8 Q 409.6 296 409.6 307.2 Q 409.6 318.4 402.4 325.6 Q 395.2 332.8 384 332.8 Q 372.8 332.8 365.6 325.6 Q 358.4 318.4 358.4 307.2 L 358.4 307.2 Z M 448 307.2 Q 447.2 271.2 416 252 Q 384 234.4 352 252 Q 320.8 271.2 320 307.2 Q 320.8 343.2 352 362.4 Q 384 380 416 362.4 Q 447.2 343.2 448 307.2 L 448 307.2 Z" />
</svg>