<svg viewBox="0 0 448 512">
  <path
    d="M 371 96 Q 351 53 313 27 L 313 27 Q 274 1 224 0 Q 174 1 135 27 Q 97 53 77 96 L 48 96 L 48 224 L 77 224 Q 97 267 135 293 Q 174 319 224 320 Q 274 319 313 293 Q 351 267 371 224 L 400 224 L 400 96 L 371 96 L 371 96 Z M 336 128 L 336 160 Q 335 201 308 228 Q 281 255 240 256 L 208 256 Q 167 255 140 228 Q 113 201 112 160 L 112 128 L 144 96 L 304 96 L 336 128 L 336 128 Z M 192 160 L 176 128 L 160 160 L 128 176 L 160 192 L 176 224 L 192 192 L 224 176 L 192 160 L 192 160 Z M 97 304 L 48 304 L 0 512 L 128 512 L 128 416 L 320 416 L 320 512 L 448 512 L 400 304 L 351 304 Q 299 350 224 352 Q 149 350 97 304 L 97 304 Z M 192 448 L 160 448 L 160 464 L 160 512 L 192 512 L 192 464 L 192 448 L 192 448 Z M 272 480 Q 287 479 288 464 Q 287 449 272 448 Q 257 449 256 464 Q 257 479 272 480 L 272 480 Z"
  />
</svg>