<svg xmlns="http://www.w3.org/2000/svg" viewBox="0 0 512 512">
  <path d="M 113.77778 390.22223 L 123.55556 379.55554 L 113.77778 390.22223 L 123.55556 379.55554 L 216 287.1111 L 216 287.1111 L 226.66667 277.33334 L 226.66667 277.33334 L 206.22223 256.8889 L 206.22223 256.8889 L 196.44444 267.55554 L 196.44444 267.55554 L 128 335.1111 L 128 335.1111 L 128 71.111115 L 128 71.111115 L 128 56.88889 L 128 56.88889 L 99.55556 56.88889 L 99.55556 56.88889 L 99.55556 71.111115 L 99.55556 71.111115 L 99.55556 335.1111 L 99.55556 335.1111 L 31.11111 267.55554 L 31.11111 267.55554 L 21.333334 256.8889 L 21.333334 256.8889 L 0.8888889 277.33334 L 0.8888889 277.33334 L 11.555555 287.1111 L 11.555555 287.1111 L 104 379.55554 L 104 379.55554 L 113.77778 390.22223 L 113.77778 390.22223 Z M 398.22223 390.22223 L 408 379.55554 L 398.22223 390.22223 L 408 379.55554 L 500.44446 287.1111 L 500.44446 287.1111 L 511.1111 277.33334 L 511.1111 277.33334 L 490.66666 256.8889 L 490.66666 256.8889 L 480.8889 267.55554 L 480.8889 267.55554 L 412.44446 335.1111 L 412.44446 335.1111 L 412.44446 71.111115 L 412.44446 71.111115 L 412.44446 56.88889 L 412.44446 56.88889 L 384 56.88889 L 384 56.88889 L 384 71.111115 L 384 71.111115 L 384 335.1111 L 384 335.1111 L 315.55554 267.55554 L 315.55554 267.55554 L 305.77777 256.8889 L 305.77777 256.8889 L 285.33334 277.33334 L 285.33334 277.33334 L 296 287.1111 L 296 287.1111 L 388.44446 379.55554 L 388.44446 379.55554 L 398.22223 390.22223 L 398.22223 390.22223 Z M 14.222222 426.66666 L 0 426.66666 L 14.222222 426.66666 L 0 426.66666 L 0 455.1111 L 0 455.1111 L 14.222222 455.1111 L 512 455.1111 L 512 426.66666 L 512 426.66666 L 497.77777 426.66666 L 14.222222 426.66666 Z" />
</svg>