<svg xmlns="http://www.w3.org/2000/svg" viewBox="0 0 512 512">
  <path d="M 400 48 L 400 160 L 400 48 L 400 160 L 352 160 L 352 160 L 352 120 L 352 120 L 352 96 L 352 96 L 304 96 L 304 96 L 304 120 L 304 120 L 304 160 L 304 160 L 112 160 L 112 160 L 112 48 L 112 48 L 400 48 L 400 48 Z M 304 208 L 304 344 L 304 208 L 304 344 L 304 368 L 304 368 L 352 368 L 352 368 L 352 344 L 352 344 L 352 208 L 352 208 L 400 208 L 400 208 L 400 464 L 400 464 L 112 464 L 112 464 L 112 208 L 112 208 L 304 208 L 304 208 Z M 112 0 L 64 0 L 112 0 L 64 0 L 64 48 L 64 48 L 64 464 L 64 464 L 64 512 L 64 512 L 112 512 L 448 512 L 448 464 L 448 464 L 448 48 L 448 48 L 448 0 L 448 0 L 400 0 L 112 0 Z" />
</svg>