<svg xmlns="http://www.w3.org/2000/svg" viewBox="0 0 512 512">
  <path d="M 469.3333333333333 99.55555555555556 L 469.3333333333333 412.44444444444446 L 469.3333333333333 99.55555555555556 L 469.3333333333333 412.44444444444446 L 42.666666666666664 412.44444444444446 L 42.666666666666664 412.44444444444446 L 42.666666666666664 99.55555555555556 L 42.666666666666664 99.55555555555556 L 469.3333333333333 99.55555555555556 L 469.3333333333333 99.55555555555556 Z M 42.666666666666664 56.888888888888886 L 0 56.888888888888886 L 42.666666666666664 56.888888888888886 L 0 56.888888888888886 L 0 99.55555555555556 L 0 99.55555555555556 L 0 412.44444444444446 L 0 412.44444444444446 L 0 455.1111111111111 L 0 455.1111111111111 L 42.666666666666664 455.1111111111111 L 512 455.1111111111111 L 512 412.44444444444446 L 512 412.44444444444446 L 512 99.55555555555556 L 512 99.55555555555556 L 512 56.888888888888886 L 512 56.888888888888886 L 469.3333333333333 56.888888888888886 L 42.666666666666664 56.888888888888886 Z M 184.88888888888889 256 Q 216.88888888888889 255.11111111111111 233.77777777777777 227.55555555555554 Q 249.77777777777777 199.11111111111111 233.77777777777777 170.66666666666666 Q 216.88888888888889 143.11111111111111 184.88888888888889 142.22222222222223 Q 152.88888888888889 143.11111111111111 136 170.66666666666666 Q 120 199.11111111111111 136 227.55555555555554 Q 152.88888888888889 255.11111111111111 184.88888888888889 256 L 184.88888888888889 256 Z M 85.33333333333333 369.77777777777777 L 284.44444444444446 369.77777777777777 L 85.33333333333333 369.77777777777777 L 284.44444444444446 369.77777777777777 L 256 284.44444444444446 L 256 284.44444444444446 L 113.77777777777777 284.44444444444446 L 113.77777777777777 284.44444444444446 L 85.33333333333333 369.77777777777777 L 85.33333333333333 369.77777777777777 Z M 334.22222222222223 156.44444444444446 L 312.8888888888889 156.44444444444446 L 334.22222222222223 156.44444444444446 L 312.8888888888889 156.44444444444446 L 312.8888888888889 199.11111111111111 L 312.8888888888889 199.11111111111111 L 334.22222222222223 199.11111111111111 L 426.6666666666667 199.11111111111111 L 426.6666666666667 156.44444444444446 L 426.6666666666667 156.44444444444446 L 405.3333333333333 156.44444444444446 L 334.22222222222223 156.44444444444446 Z M 334.22222222222223 241.77777777777777 L 312.8888888888889 241.77777777777777 L 334.22222222222223 241.77777777777777 L 312.8888888888889 241.77777777777777 L 312.8888888888889 284.44444444444446 L 312.8888888888889 284.44444444444446 L 334.22222222222223 284.44444444444446 L 426.6666666666667 284.44444444444446 L 426.6666666666667 241.77777777777777 L 426.6666666666667 241.77777777777777 L 405.3333333333333 241.77777777777777 L 334.22222222222223 241.77777777777777 Z" />
</svg>