<svg xmlns="http://www.w3.org/2000/svg" viewBox="0 0 512 512">
  <path d="M 42.82528 15.226766 L 64.71375 36.16357 L 42.82528 15.226766 L 64.71375 36.16357 L 140.84758 112.2974 L 140.84758 112.2974 L 201.75465 173.20447 L 201.75465 173.20447 L 354.0223 325.4721 L 354.0223 325.4721 L 414.92938 386.37918 L 414.92938 386.37918 L 460.60968 432.05948 L 460.60968 432.05948 L 481.54648 453.94797 L 481.54648 453.94797 L 438.7212 496.77322 L 438.7212 496.77322 L 416.8327 475.83643 L 416.8327 475.83643 L 380.66916 438.7212 L 380.66916 438.7212 L 332.13382 438.7212 L 301.6803 438.7212 L 301.6803 408.26767 L 301.6803 408.26767 L 301.6803 359.73233 L 301.6803 359.73233 L 167.49443 225.54646 L 167.49443 225.54646 L 118.95911 225.54646 L 88.50558 225.54646 L 88.50558 195.09294 L 88.50558 195.09294 L 88.50558 146.55762 L 88.50558 146.55762 L 20.936804 79.94052 L 20.936804 79.94052 L 0 58.052044 L 0 58.052044 L 42.82528 15.226766 L 42.82528 15.226766 Z M 42.82528 228.40149 L 64.71375 249.33829 L 42.82528 228.40149 L 64.71375 249.33829 L 110.39405 295.0186 L 110.39405 295.0186 L 201.75465 386.37918 L 201.75465 386.37918 L 247.43495 432.05948 L 247.43495 432.05948 L 268.37173 453.94797 L 268.37173 453.94797 L 225.54646 496.77322 L 225.54646 496.77322 L 203.65799 475.83643 L 203.65799 475.83643 L 167.49443 438.7212 L 167.49443 438.7212 L 88.50558 438.7212 L 58.052044 438.7212 L 58.052044 408.26767 L 58.052044 408.26767 L 58.052044 329.2788 L 58.052044 329.2788 L 20.936804 293.11523 L 20.936804 293.11523 L 0 271.22678 L 0 271.22678 L 42.82528 228.40149 L 42.82528 228.40149 Z M 277.8885 36.16357 L 293.11523 51.390335 L 277.8885 36.16357 L 293.11523 51.390335 L 354.0223 112.2974 L 354.0223 112.2974 L 414.92938 173.20447 L 414.92938 173.20447 L 475.83643 234.11153 L 475.83643 234.11153 L 491.0632 249.33829 L 491.0632 249.33829 L 512 271.22678 L 512 271.22678 L 469.1747 314.05203 L 469.1747 314.05203 L 447.28625 293.11523 L 447.28625 293.11523 L 441.5762 286.45352 L 441.5762 286.45352 L 393.0409 286.45352 L 362.58737 286.45352 L 362.58737 256 L 362.58737 256 L 362.58737 207.46469 L 362.58737 207.46469 L 319.7621 164.6394 L 319.7621 164.6394 L 271.22678 164.6394 L 240.77324 164.6394 L 240.77324 134.18587 L 240.77324 134.18587 L 240.77324 85.65056 L 240.77324 85.65056 L 234.11153 79.94052 L 234.11153 79.94052 L 213.17473 58.052044 L 213.17473 58.052044 L 256 15.226766 L 256 15.226766 L 277.8885 36.16357 L 277.8885 36.16357 Z" />
</svg>