<svg xmlns="http://www.w3.org/2000/svg" viewBox="0 0 512 512">
  <path d="M 28.444444444444443 56.888888888888886 L 312.8888888888889 56.888888888888886 L 28.444444444444443 56.888888888888886 L 312.8888888888889 56.888888888888886 L 312.8888888888889 224 L 312.8888888888889 224 L 341.3333333333333 212.44444444444446 L 341.3333333333333 212.44444444444446 L 341.3333333333333 56.888888888888886 L 341.3333333333333 56.888888888888886 L 341.3333333333333 28.444444444444443 L 341.3333333333333 28.444444444444443 L 312.8888888888889 28.444444444444443 L 0 28.444444444444443 L 0 56.888888888888886 L 0 56.888888888888886 L 0 455.1111111111111 L 0 455.1111111111111 L 0 483.55555555555554 L 0 483.55555555555554 L 28.444444444444443 483.55555555555554 L 320 483.55555555555554 Q 302.22222222222223 470.22222222222223 288 455.1111111111111 L 227.55555555555554 455.1111111111111 L 227.55555555555554 455.1111111111111 L 227.55555555555554 384 L 227.55555555555554 384 L 227.55555555555554 355.55555555555554 L 227.55555555555554 355.55555555555554 L 199.11111111111111 355.55555555555554 L 113.77777777777777 355.55555555555554 L 113.77777777777777 384 L 113.77777777777777 384 L 113.77777777777777 455.1111111111111 L 113.77777777777777 455.1111111111111 L 28.444444444444443 455.1111111111111 L 28.444444444444443 455.1111111111111 L 28.444444444444443 56.888888888888886 L 28.444444444444443 56.888888888888886 Z M 268.44444444444446 241.77777777777777 L 284.44444444444446 235.55555555555554 L 268.44444444444446 241.77777777777777 L 284.44444444444446 235.55555555555554 L 284.44444444444446 227.55555555555554 L 284.44444444444446 227.55555555555554 L 270.22222222222223 227.55555555555554 L 199.11111111111111 227.55555555555554 L 199.11111111111111 241.77777777777777 L 199.11111111111111 241.77777777777777 L 199.11111111111111 298.6666666666667 L 199.11111111111111 298.6666666666667 L 199.11111111111111 312.8888888888889 L 199.11111111111111 312.8888888888889 L 213.33333333333334 312.8888888888889 L 227.55555555555554 312.8888888888889 L 227.55555555555554 291.55555555555554 L 227.55555555555554 291.55555555555554 L 227.55555555555554 291.55555555555554 L 227.55555555555554 291.55555555555554 L 227.55555555555554 284.44444444444446 L 227.55555555555554 284.44444444444446 L 227.55555555555554 257.77777777777777 L 227.55555555555554 257.77777777777777 L 227.55555555555554 256 L 227.55555555555554 256 Q 228.44444444444446 242.66666666666666 241.77777777777777 241.77777777777777 L 268.44444444444446 241.77777777777777 L 268.44444444444446 241.77777777777777 Z M 142.22222222222223 455.1111111111111 L 142.22222222222223 384 L 142.22222222222223 455.1111111111111 L 142.22222222222223 384 L 199.11111111111111 384 L 199.11111111111111 384 L 199.11111111111111 455.1111111111111 L 199.11111111111111 455.1111111111111 L 142.22222222222223 455.1111111111111 L 142.22222222222223 455.1111111111111 Z M 56.888888888888886 113.77777777777777 L 56.888888888888886 128 L 56.888888888888886 113.77777777777777 L 56.888888888888886 128 L 56.888888888888886 184.88888888888889 L 56.888888888888886 184.88888888888889 L 56.888888888888886 199.11111111111111 L 56.888888888888886 199.11111111111111 L 71.11111111111111 199.11111111111111 L 142.22222222222223 199.11111111111111 L 142.22222222222223 184.88888888888889 L 142.22222222222223 184.88888888888889 L 142.22222222222223 128 L 142.22222222222223 128 L 142.22222222222223 113.77777777777777 L 142.22222222222223 113.77777777777777 L 128 113.77777777777777 L 56.888888888888886 113.77777777777777 Z M 85.33333333333333 142.22222222222223 L 113.77777777777777 142.22222222222223 L 85.33333333333333 142.22222222222223 L 113.77777777777777 142.22222222222223 L 113.77777777777777 170.66666666666666 L 113.77777777777777 170.66666666666666 L 85.33333333333333 170.66666666666666 L 85.33333333333333 170.66666666666666 L 85.33333333333333 142.22222222222223 L 85.33333333333333 142.22222222222223 Z M 213.33333333333334 113.77777777777777 L 199.11111111111111 113.77777777777777 L 213.33333333333334 113.77777777777777 L 199.11111111111111 113.77777777777777 L 199.11111111111111 128 L 199.11111111111111 128 L 199.11111111111111 184.88888888888889 L 199.11111111111111 184.88888888888889 L 199.11111111111111 199.11111111111111 L 199.11111111111111 199.11111111111111 L 213.33333333333334 199.11111111111111 L 284.44444444444446 199.11111111111111 L 284.44444444444446 184.88888888888889 L 284.44444444444446 184.88888888888889 L 284.44444444444446 128 L 284.44444444444446 128 L 284.44444444444446 113.77777777777777 L 284.44444444444446 113.77777777777777 L 270.22222222222223 113.77777777777777 L 213.33333333333334 113.77777777777777 Z M 227.55555555555554 170.66666666666666 L 227.55555555555554 142.22222222222223 L 227.55555555555554 170.66666666666666 L 227.55555555555554 142.22222222222223 L 256 142.22222222222223 L 256 142.22222222222223 L 256 170.66666666666666 L 256 170.66666666666666 L 227.55555555555554 170.66666666666666 L 227.55555555555554 170.66666666666666 Z M 56.888888888888886 227.55555555555554 L 56.888888888888886 241.77777777777777 L 56.888888888888886 227.55555555555554 L 56.888888888888886 241.77777777777777 L 56.888888888888886 298.6666666666667 L 56.888888888888886 298.6666666666667 L 56.888888888888886 312.8888888888889 L 56.888888888888886 312.8888888888889 L 71.11111111111111 312.8888888888889 L 142.22222222222223 312.8888888888889 L 142.22222222222223 298.6666666666667 L 142.22222222222223 298.6666666666667 L 142.22222222222223 241.77777777777777 L 142.22222222222223 241.77777777777777 L 142.22222222222223 227.55555555555554 L 142.22222222222223 227.55555555555554 L 128 227.55555555555554 L 56.888888888888886 227.55555555555554 Z M 85.33333333333333 256 L 113.77777777777777 256 L 85.33333333333333 256 L 113.77777777777777 256 L 113.77777777777777 284.44444444444446 L 113.77777777777777 284.44444444444446 L 85.33333333333333 284.44444444444446 L 85.33333333333333 284.44444444444446 L 85.33333333333333 256 L 85.33333333333333 256 Z M 483.55555555555554 296.8888888888889 Q 481.77777777777777 341.3333333333333 460.44444444444446 382.22222222222223 L 460.44444444444446 382.22222222222223 L 460.44444444444446 382.22222222222223 Q 439.1111111111111 423.1111111111111 398.22222222222223 446.22222222222223 L 398.22222222222223 264 L 398.22222222222223 264 L 483.55555555555554 296.8888888888889 L 483.55555555555554 296.8888888888889 Z M 284.44444444444446 296.8888888888889 L 369.77777777777777 264 L 284.44444444444446 296.8888888888889 L 369.77777777777777 264 L 369.77777777777777 446.22222222222223 L 369.77777777777777 446.22222222222223 Q 328.8888888888889 423.1111111111111 307.55555555555554 382.22222222222223 Q 286.22222222222223 341.3333333333333 284.44444444444446 296.8888888888889 L 284.44444444444446 296.8888888888889 Z M 384 483.55555555555554 Q 448 460.44444444444446 480 405.3333333333333 L 480 405.3333333333333 L 480 405.3333333333333 Q 512 351.1111111111111 512 291.55555555555554 L 512 277.3333333333333 L 512 277.3333333333333 L 384 227.55555555555554 L 384 227.55555555555554 L 256 277.3333333333333 L 256 277.3333333333333 L 256 291.55555555555554 L 256 291.55555555555554 Q 256 351.1111111111111 288 405.3333333333333 Q 320 460.44444444444446 384 483.55555555555554 L 384 483.55555555555554 Z" />
</svg>