<svg xmlns="http://www.w3.org/2000/svg" viewBox="0 0 512 512">
  <path d="M 38.4 63.2 L 23.2 51.2 L 38.4 63.2 L 23.2 51.2 L 0 81.6 L 0 81.6 L 15.2 93.6 L 15.2 93.6 L 473.6 448.8 L 473.6 448.8 L 488.8 460.8 L 488.8 460.8 L 512 430.4 L 512 430.4 L 496.8 418.4 L 496.8 418.4 L 411.2 352 L 411.2 352 Q 459.2 307.2 460.8 243.2 Q 460 196.8 432.8 159.2 Q 405.6 121.6 359.2 99.2 Q 313.6 77.6 256 76.8 Q 172 78.4 115.2 122.4 L 38.4 63.2 L 38.4 63.2 Z M 339.2 395.2 L 66.4 180 L 339.2 395.2 L 66.4 180 Q 51.2 209.6 51.2 243.2 Q 52.8 304 96.8 348 L 64 435.2 L 64 435.2 L 184 399.2 L 184 399.2 Q 217.6 409.6 256 409.6 Q 300.8 409.6 339.2 395.2 L 339.2 395.2 Z" />
</svg>