<svg xmlns="http://www.w3.org/2000/svg" viewBox="0 0 512 512">
  <path d="M 120 240.88889 L 91.55556 355.55554 L 120 240.88889 L 91.55556 355.55554 L 48 355.55554 L 48 355.55554 L 113.77778 85.333336 L 113.77778 85.333336 L 398.22223 85.333336 L 398.22223 85.333336 L 464 355.55554 L 464 355.55554 L 420.44446 355.55554 L 420.44446 355.55554 L 392 240.88889 L 392 240.88889 L 342.22223 228.44444 L 342.22223 228.44444 L 263.1111 255.11111 L 263.1111 255.11111 L 256 256.8889 L 256 256.8889 L 248.88889 255.11111 L 248.88889 255.11111 L 169.77777 228.44444 L 169.77777 228.44444 L 120 240.88889 L 120 240.88889 Z M 131.55556 193.77777 L 165.33333 185.77777 L 131.55556 193.77777 L 165.33333 185.77777 L 171.55556 184 L 171.55556 184 L 177.77777 185.77777 L 177.77777 185.77777 L 256 212.44444 L 256 212.44444 L 334.22223 185.77777 L 334.22223 185.77777 L 340.44446 184 L 340.44446 184 L 346.66666 185.77777 L 346.66666 185.77777 L 381.33334 193.77777 L 381.33334 193.77777 L 364.44446 128 L 364.44446 128 L 147.55556 128 L 147.55556 128 L 131.55556 193.77777 L 131.55556 193.77777 Z M 0 384 L 21.333334 384 L 0 384 L 512 384 L 512 426.66666 L 512 426.66666 L 490.66666 426.66666 L 0 426.66666 L 0 384 L 0 384 Z" />
</svg>