<svg xmlns="http://www.w3.org/2000/svg" viewBox="0 0 512 512">
  <path d="M 277.3333333333333 28.444444444444443 L 277.3333333333333 49.77777777777778 L 277.3333333333333 28.444444444444443 L 277.3333333333333 49.77777777777778 L 277.3333333333333 72 L 277.3333333333333 72 Q 361.77777777777777 80 423.1111111111111 129.77777777777777 Q 484.44444444444446 179.55555555555554 504.8888888888889 256 Q 505.77777777777777 257.77777777777777 505.77777777777777 259.55555555555554 Q 505.77777777777777 259.55555555555554 505.77777777777777 259.55555555555554 Q 506.6666666666667 264 507.55555555555554 268.44444444444446 Q 507.55555555555554 268.44444444444446 507.55555555555554 268.44444444444446 Q 508.44444444444446 270.22222222222223 508.44444444444446 272 Q 509.3333333333333 273.77777777777777 509.3333333333333 276.44444444444446 Q 509.3333333333333 278.22222222222223 509.3333333333333 280 Q 510.22222222222223 280.8888888888889 510.22222222222223 282.6666666666667 L 512 298.6666666666667 L 512 298.6666666666667 L 496 298.6666666666667 L 483.55555555555554 298.6666666666667 L 480 294.22222222222223 L 480 294.22222222222223 Q 476.44444444444446 290.6666666666667 472.8888888888889 288 Q 470.22222222222223 285.3333333333333 466.6666666666667 282.6666666666667 Q 449.77777777777777 270.22222222222223 426.6666666666667 270.22222222222223 Q 384.8888888888889 272 364.44444444444446 306.6666666666667 Q 355.55555555555554 322.6666666666667 355.55555555555554 341.3333333333333 L 341.3333333333333 341.3333333333333 L 327.1111111111111 341.3333333333333 Q 327.1111111111111 322.6666666666667 318.22222222222223 306.6666666666667 Q 297.77777777777777 272 256 270.22222222222223 Q 214.22222222222223 272 193.77777777777777 306.6666666666667 Q 184.88888888888889 322.6666666666667 184.88888888888889 341.3333333333333 L 170.66666666666666 341.3333333333333 L 156.44444444444446 341.3333333333333 Q 156.44444444444446 322.6666666666667 147.55555555555554 306.6666666666667 Q 127.11111111111111 272 85.33333333333333 270.22222222222223 Q 62.22222222222222 270.22222222222223 45.333333333333336 282.6666666666667 Q 41.77777777777778 285.3333333333333 39.111111111111114 287.1111111111111 Q 35.55555555555556 290.6666666666667 32 294.22222222222223 L 28.444444444444443 298.6666666666667 L 28.444444444444443 298.6666666666667 L 21.333333333333332 298.6666666666667 L 0 298.6666666666667 L 1.7777777777777777 282.6666666666667 L 1.7777777777777777 282.6666666666667 Q 2.6666666666666665 280 2.6666666666666665 276.44444444444446 Q 2.6666666666666665 276.44444444444446 2.6666666666666665 276.44444444444446 Q 3.5555555555555554 272 4.444444444444445 268.44444444444446 Q 5.333333333333333 264 6.222222222222222 259.55555555555554 Q 6.222222222222222 258.6666666666667 6.222222222222222 257.77777777777777 Q 7.111111111111111 256.8888888888889 7.111111111111111 256 Q 27.555555555555557 179.55555555555554 88.88888888888889 129.77777777777777 Q 150.22222222222223 80 234.66666666666666 72 L 234.66666666666666 49.77777777777778 L 234.66666666666666 49.77777777777778 L 234.66666666666666 28.444444444444443 L 234.66666666666666 28.444444444444443 L 277.3333333333333 28.444444444444443 L 277.3333333333333 28.444444444444443 Z M 341.3333333333333 265.77777777777777 Q 374.22222222222223 229.33333333333334 426.6666666666667 227.55555555555554 Q 439.1111111111111 227.55555555555554 450.6666666666667 230.22222222222223 Q 424 177.77777777777777 373.3333333333333 146.66666666666666 Q 322.6666666666667 114.66666666666667 256 113.77777777777777 Q 189.33333333333334 114.66666666666667 138.66666666666666 146.66666666666666 Q 88 177.77777777777777 62.22222222222222 230.22222222222223 Q 72.88888888888889 227.55555555555554 85.33333333333333 227.55555555555554 Q 137.77777777777777 229.33333333333334 170.66666666666666 265.77777777777777 Q 203.55555555555554 229.33333333333334 256 227.55555555555554 Q 308.44444444444446 229.33333333333334 341.3333333333333 265.77777777777777 L 341.3333333333333 265.77777777777777 Z M 256 298.6666666666667 Q 267.55555555555554 298.6666666666667 277.3333333333333 304 L 277.3333333333333 418.6666666666667 L 277.3333333333333 418.6666666666667 Q 276.44444444444446 446.22222222222223 257.77777777777777 464.8888888888889 Q 240 482.6666666666667 212.44444444444446 483.55555555555554 Q 172.44444444444446 481.77777777777777 153.77777777777777 447.1111111111111 L 152 443.55555555555554 L 152 443.55555555555554 L 142.22222222222223 424 L 142.22222222222223 424 L 180.44444444444446 405.3333333333333 L 180.44444444444446 405.3333333333333 L 190.22222222222223 424 L 190.22222222222223 424 L 192 428.44444444444446 L 192 428.44444444444446 Q 198.22222222222223 440 212.44444444444446 440.8888888888889 Q 232.88888888888889 439.1111111111111 234.66666666666666 418.6666666666667 L 234.66666666666666 304 L 234.66666666666666 304 Q 244.44444444444446 298.6666666666667 256 298.6666666666667 L 256 298.6666666666667 Z" />
</svg>