<svg xmlns="http://www.w3.org/2000/svg" viewBox="0 0 512 512">
  <path d="M 99.55555555555556 113.77777777777777 Q 81.77777777777777 114.66666666666667 69.33333333333333 126.22222222222223 L 69.33333333333333 126.22222222222223 L 69.33333333333333 126.22222222222223 Q 57.77777777777778 138.66666666666666 56.888888888888886 156.44444444444446 L 56.888888888888886 256 L 56.888888888888886 256 L 142.22222222222223 256 L 142.22222222222223 256 L 142.22222222222223 156.44444444444446 L 142.22222222222223 156.44444444444446 Q 141.33333333333334 138.66666666666666 129.77777777777777 126.22222222222223 Q 117.33333333333333 114.66666666666667 99.55555555555556 113.77777777777777 L 99.55555555555556 113.77777777777777 Z M 0 156.44444444444446 Q 0.8888888888888888 113.77777777777777 29.333333333333332 86.22222222222223 L 29.333333333333332 86.22222222222223 L 29.333333333333332 86.22222222222223 Q 56.888888888888886 57.77777777777778 99.55555555555556 56.888888888888886 Q 142.22222222222223 57.77777777777778 169.77777777777777 86.22222222222223 Q 198.22222222222223 113.77777777777777 199.11111111111111 156.44444444444446 L 199.11111111111111 355.55555555555554 L 199.11111111111111 355.55555555555554 Q 198.22222222222223 398.22222222222223 169.77777777777777 425.77777777777777 Q 142.22222222222223 454.22222222222223 99.55555555555556 455.1111111111111 Q 56.888888888888886 454.22222222222223 29.333333333333332 425.77777777777777 Q 0.8888888888888888 398.22222222222223 0 355.55555555555554 L 0 156.44444444444446 L 0 156.44444444444446 Z M 512 312.8888888888889 Q 511.1111111111111 365.3333333333333 480 402.6666666666667 L 280 202.66666666666666 L 280 202.66666666666666 Q 317.3333333333333 171.55555555555554 369.77777777777777 170.66666666666666 Q 430.22222222222223 172.44444444444446 470.22222222222223 212.44444444444446 Q 510.22222222222223 252.44444444444446 512 312.8888888888889 L 512 312.8888888888889 Z M 369.77777777777777 455.1111111111111 Q 309.3333333333333 453.3333333333333 269.3333333333333 413.3333333333333 L 269.3333333333333 413.3333333333333 L 269.3333333333333 413.3333333333333 Q 229.33333333333334 373.3333333333333 227.55555555555554 312.8888888888889 Q 228.44444444444446 260.44444444444446 259.55555555555554 223.11111111111111 L 459.55555555555554 423.1111111111111 L 459.55555555555554 423.1111111111111 Q 422.22222222222223 454.22222222222223 369.77777777777777 455.1111111111111 L 369.77777777777777 455.1111111111111 Z" />
</svg>