<svg xmlns="http://www.w3.org/2000/svg" viewBox="0 0 448 448">
    <path d="M 48 48 L 48 400 L 400 400 L 400 48 L 48 48 L 48 48 Z M 0 0 L 48 0 L 400 0 L 448 0 L 448 48 L 448 400 L 448 448 L 400 448 L 48 448 L 0 448 L 0 400 L 0 48 L 0 0 L 0 0 Z M 162 115 Q 186 96 217 96 L 220 97 Q 256 98 280 122 Q 303 146 304 182 Q 303 218 277 244 L 213 304 L 296 304 L 320 304 L 320 352 L 296 352 L 152 352 L 128 352 L 128 318 L 136 311 L 244 209 Q 256 198 256 182 Q 256 166 245 155 Q 235 145 219 144 L 216 144 Q 202 144 191 153 L 175 165 L 155 180 L 126 141 L 145 127 L 162 115 L 162 115 Z"/>
</svg>
