<svg xmlns="http://www.w3.org/2000/svg" viewBox="0 0 512 512">
  <path d="M 111.93522267206478 474.68825910931173 L 123.33603238866397 487.1255060728745 L 111.93522267206478 474.68825910931173 L 123.33603238866397 487.1255060728745 L 134.73684210526315 474.68825910931173 L 134.73684210526315 474.68825910931173 L 234.23481781376518 375.19028340080973 L 234.23481781376518 375.19028340080973 L 246.67206477732793 363.7894736842105 L 246.67206477732793 363.7894736842105 L 222.834008097166 339.9514170040486 L 222.834008097166 339.9514170040486 L 211.4331983805668 352.3886639676113 L 211.4331983805668 352.3886639676113 L 139.91902834008098 422.8663967611336 L 139.91902834008098 422.8663967611336 L 139.91902834008098 40.421052631578945 L 139.91902834008098 40.421052631578945 L 139.91902834008098 23.838056680161944 L 139.91902834008098 23.838056680161944 L 106.75303643724696 23.838056680161944 L 106.75303643724696 23.838056680161944 L 106.75303643724696 40.421052631578945 L 106.75303643724696 40.421052631578945 L 106.75303643724696 422.8663967611336 L 106.75303643724696 422.8663967611336 L 35.23886639676113 352.3886639676113 L 35.23886639676113 352.3886639676113 L 23.838056680161944 339.9514170040486 L 23.838056680161944 339.9514170040486 L 0 363.7894736842105 L 0 363.7894736842105 L 12.437246963562753 375.19028340080973 L 12.437246963562753 375.19028340080973 L 111.93522267206478 474.68825910931173 L 111.93522267206478 474.68825910931173 Z M 377.2631578947368 37.311740890688256 L 277.7651821862348 136.8097165991903 L 377.2631578947368 37.311740890688256 L 277.7651821862348 136.8097165991903 L 265.32793522267207 148.21052631578948 L 265.32793522267207 148.21052631578948 L 289.165991902834 172.04858299595142 L 289.165991902834 172.04858299595142 L 300.5668016194332 159.61133603238866 L 300.5668016194332 159.61133603238866 L 372.08097165991904 89.1336032388664 L 372.08097165991904 89.1336032388664 L 372.08097165991904 471.57894736842104 L 372.08097165991904 471.57894736842104 L 372.08097165991904 488.16194331983803 L 372.08097165991904 488.16194331983803 L 405.246963562753 488.16194331983803 L 405.246963562753 488.16194331983803 L 405.246963562753 471.57894736842104 L 405.246963562753 471.57894736842104 L 405.246963562753 89.1336032388664 L 405.246963562753 89.1336032388664 L 476.7611336032389 159.61133603238866 L 476.7611336032389 159.61133603238866 L 488.16194331983803 172.04858299595142 L 488.16194331983803 172.04858299595142 L 512 148.21052631578948 L 512 148.21052631578948 L 499.56275303643724 136.8097165991903 L 499.56275303643724 136.8097165991903 L 400.06477732793525 37.311740890688256 L 400.06477732793525 37.311740890688256 L 388.66396761133603 24.874493927125506 L 388.66396761133603 24.874493927125506 L 377.2631578947368 37.311740890688256 L 377.2631578947368 37.311740890688256 Z" />
</svg>