<svg xmlns="http://www.w3.org/2000/svg" viewBox="0 0 512 512">
  <path d="M 200.14545454545456 242.03636363636363 L 200.14545454545456 204.8 L 200.14545454545456 242.03636363636363 L 200.14545454545456 204.8 L 162.9090909090909 204.8 L 107.05454545454545 204.8 L 107.05454545454545 183.85454545454544 L 107.05454545454545 183.85454545454544 L 256 50.03636363636364 L 256 50.03636363636364 L 404.94545454545454 183.85454545454544 L 404.94545454545454 183.85454545454544 L 404.94545454545454 204.8 L 404.94545454545454 204.8 L 349.09090909090907 204.8 L 311.8545454545455 204.8 L 311.8545454545455 242.03636363636363 L 311.8545454545455 242.03636363636363 L 311.8545454545455 372.3636363636364 L 311.8545454545455 372.3636363636364 L 200.14545454545456 372.3636363636364 L 200.14545454545456 372.3636363636364 L 200.14545454545456 242.03636363636363 L 200.14545454545456 242.03636363636363 Z M 69.81818181818181 242.03636363636363 L 107.05454545454545 242.03636363636363 L 69.81818181818181 242.03636363636363 L 162.9090909090909 242.03636363636363 L 162.9090909090909 279.27272727272725 L 162.9090909090909 279.27272727272725 L 162.9090909090909 372.3636363636364 L 162.9090909090909 372.3636363636364 L 162.9090909090909 409.6 L 162.9090909090909 409.6 L 200.14545454545456 409.6 L 349.09090909090907 409.6 L 349.09090909090907 372.3636363636364 L 349.09090909090907 372.3636363636364 L 349.09090909090907 279.27272727272725 L 349.09090909090907 279.27272727272725 L 349.09090909090907 242.03636363636363 L 349.09090909090907 242.03636363636363 L 386.3272727272727 242.03636363636363 L 442.1818181818182 242.03636363636363 L 442.1818181818182 204.8 L 442.1818181818182 204.8 L 442.1818181818182 167.56363636363636 L 442.1818181818182 167.56363636363636 L 256 0 L 256 0 L 69.81818181818181 167.56363636363636 L 69.81818181818181 167.56363636363636 L 69.81818181818181 204.8 L 69.81818181818181 204.8 L 69.81818181818181 242.03636363636363 L 69.81818181818181 242.03636363636363 Z M 60.50909090909091 456.1454545454545 L 4.654545454545454 456.1454545454545 L 60.50909090909091 456.1454545454545 L 4.654545454545454 456.1454545454545 L 4.654545454545454 512 L 4.654545454545454 512 L 60.50909090909091 512 L 60.50909090909091 512 L 60.50909090909091 456.1454545454545 L 60.50909090909091 456.1454545454545 Z M 172.21818181818182 456.1454545454545 L 116.36363636363636 456.1454545454545 L 172.21818181818182 456.1454545454545 L 116.36363636363636 456.1454545454545 L 116.36363636363636 512 L 116.36363636363636 512 L 172.21818181818182 512 L 172.21818181818182 512 L 172.21818181818182 456.1454545454545 L 172.21818181818182 456.1454545454545 Z M 228.07272727272726 512 L 283.92727272727274 512 L 228.07272727272726 512 L 283.92727272727274 512 L 283.92727272727274 456.1454545454545 L 283.92727272727274 456.1454545454545 L 228.07272727272726 456.1454545454545 L 228.07272727272726 456.1454545454545 L 228.07272727272726 512 L 228.07272727272726 512 Z M 395.6363636363636 456.1454545454545 L 339.7818181818182 456.1454545454545 L 395.6363636363636 456.1454545454545 L 339.7818181818182 456.1454545454545 L 339.7818181818182 512 L 339.7818181818182 512 L 395.6363636363636 512 L 395.6363636363636 512 L 395.6363636363636 456.1454545454545 L 395.6363636363636 456.1454545454545 Z M 451.4909090909091 456.1454545454545 L 451.4909090909091 512 L 451.4909090909091 456.1454545454545 L 451.4909090909091 512 L 507.3454545454546 512 L 507.3454545454546 512 L 507.3454545454546 456.1454545454545 L 507.3454545454546 456.1454545454545 L 451.4909090909091 456.1454545454545 L 451.4909090909091 456.1454545454545 Z" />
</svg>