<svg xmlns="http://www.w3.org/2000/svg" viewBox="0 0 512 512">
  <path d="M 364 60 L 336 32 L 364 60 L 336 32 L 374 25 L 374 25 L 478 6 L 478 6 L 512 0 L 512 0 L 506 34 L 506 34 L 487 138 L 487 138 L 480 176 L 480 176 L 453 149 L 453 149 L 419 115 L 419 115 L 181 353 L 181 353 L 200 416 L 200 416 L 130 486 L 130 486 L 104 512 L 104 512 L 94 477 L 94 477 L 80 432 L 80 432 L 35 418 L 35 418 L 0 408 L 0 408 L 26 382 L 26 382 L 96 312 L 96 312 L 159 331 L 159 331 L 397 93 L 397 93 L 364 60 L 364 60 Z M 459 110 L 472 40 L 459 110 L 472 40 L 402 53 L 402 53 L 459 110 L 459 110 Z M 381 199 L 404 176 L 381 199 L 404 176 Q 447 239 448 320 Q 446 407 398 472 L 403 477 L 403 477 L 415 488 L 415 488 L 392 511 L 392 511 L 381 499 L 381 499 L 231 349 L 231 349 L 253 327 L 253 327 L 375 449 L 375 449 Q 415 393 416 320 Q 415 252 381 199 L 381 199 Z M 13 131 L 1 120 L 13 131 L 1 120 L 24 97 L 24 97 L 35 109 L 35 109 L 40 114 L 40 114 Q 105 65 192 64 Q 273 65 336 108 L 313 131 L 313 131 Q 260 97 192 96 Q 119 97 63 137 L 185 259 L 185 259 L 163 281 L 163 281 L 13 131 L 13 131 Z M 111 423 L 119 452 L 111 423 L 119 452 L 164 407 L 164 407 L 150 362 L 150 362 L 105 348 L 105 348 L 61 393 L 61 393 L 89 401 L 89 401 L 106 406 L 106 406 L 111 423 L 111 423 Z" />
</svg>