<svg xmlns="http://www.w3.org/2000/svg" viewBox="0 0 512 512">
  <path d="M 475.42857142857144 36.57142857142857 L 475.42857142857144 475.42857142857144 L 475.42857142857144 36.57142857142857 L 475.42857142857144 475.42857142857144 L 36.57142857142857 475.42857142857144 L 36.57142857142857 475.42857142857144 L 36.57142857142857 36.57142857142857 L 36.57142857142857 36.57142857142857 L 475.42857142857144 36.57142857142857 L 475.42857142857144 36.57142857142857 Z M 512 0 L 475.42857142857144 0 L 512 0 L 0 0 L 0 36.57142857142857 L 0 36.57142857142857 L 0 475.42857142857144 L 0 475.42857142857144 L 0 512 L 0 512 L 36.57142857142857 512 L 512 512 L 512 475.42857142857144 L 512 475.42857142857144 L 512 36.57142857142857 L 512 36.57142857142857 L 512 0 L 512 0 Z M 365.7142857142857 128 L 182.85714285714286 128 L 365.7142857142857 128 L 174.85714285714286 128 L 170.28571428571428 133.71428571428572 L 170.28571428571428 133.71428571428572 L 152 152 L 152 152 L 138.28571428571428 164.57142857142858 L 138.28571428571428 164.57142857142858 L 152 177.14285714285714 L 152 177.14285714285714 L 197.71428571428572 224 L 197.71428571428572 224 L 124.57142857142857 298.2857142857143 L 124.57142857142857 298.2857142857143 L 110.85714285714286 310.85714285714283 L 110.85714285714286 310.85714285714283 L 124.57142857142857 323.42857142857144 L 124.57142857142857 323.42857142857144 L 188.57142857142858 387.42857142857144 L 188.57142857142858 387.42857142857144 L 201.14285714285714 401.14285714285717 L 201.14285714285714 401.14285714285717 L 213.71428571428572 387.42857142857144 L 213.71428571428572 387.42857142857144 L 288 314.2857142857143 L 288 314.2857142857143 L 334.85714285714283 360 L 334.85714285714283 360 L 347.42857142857144 373.7142857142857 L 347.42857142857144 373.7142857142857 L 360 360 L 360 360 L 378.2857142857143 341.7142857142857 L 378.2857142857143 341.7142857142857 L 384 337.14285714285717 L 384 337.14285714285717 L 384 329.14285714285717 L 384 329.14285714285717 L 384 146.28571428571428 L 384 146.28571428571428 L 384 128 L 384 128 L 365.7142857142857 128 L 365.7142857142857 128 Z M 347.42857142857144 321.14285714285717 L 300.57142857142856 275.42857142857144 L 347.42857142857144 321.14285714285717 L 300.57142857142856 275.42857142857144 L 288 261.7142857142857 L 288 261.7142857142857 L 275.42857142857144 275.42857142857144 L 275.42857142857144 275.42857142857144 L 201.14285714285714 348.57142857142856 L 201.14285714285714 348.57142857142856 L 163.42857142857142 310.85714285714283 L 163.42857142857142 310.85714285714283 L 236.57142857142858 236.57142857142858 L 236.57142857142858 236.57142857142858 L 250.28571428571428 224 L 250.28571428571428 224 L 236.57142857142858 211.42857142857142 L 236.57142857142858 211.42857142857142 L 190.85714285714286 164.57142857142858 L 190.85714285714286 164.57142857142858 L 347.42857142857144 164.57142857142858 L 347.42857142857144 164.57142857142858 L 347.42857142857144 321.14285714285717 L 347.42857142857144 321.14285714285717 Z" />
</svg>