<svg xmlns="http://www.w3.org/2000/svg" viewBox="0 0 575 518">
    <path d="M 111 54 Q 112 27 135 12 Q 159 0 183 12 Q 206 27 207 54 Q 206 81 183 96 Q 159 108 135 96 Q 112 81 111 54 L 111 54 Z M 94 134 L 108 134 L 210 134 L 224 134 L 231 146 L 295 262 Q 277 284 267 310 L 265 306 L 223 231 L 223 494 L 223 518 L 175 518 L 175 494 L 175 358 L 143 358 L 143 494 L 143 518 L 95 518 L 95 494 L 95 231 L 54 306 L 42 327 L 0 303 L 12 282 L 87 146 L 94 134 L 94 134 Z M 143 310 L 175 310 L 175 182 L 143 182 L 143 310 L 143 310 Z M 287 374 Q 287 335 306 302 L 306 302 Q 325 269 359 249 Q 393 230 431 230 Q 469 230 503 249 Q 537 269 556 302 Q 575 335 575 374 Q 575 413 556 446 Q 537 479 503 499 Q 469 518 431 518 Q 393 518 359 499 Q 325 479 306 446 Q 287 413 287 374 L 287 374 Z M 510 342 L 487 319 L 476 331 L 415 391 L 386 363 L 375 351 L 352 374 L 364 385 L 404 425 L 415 437 L 426 425 L 498 353 L 510 342 L 510 342 Z"/>
</svg>
