<svg xmlns="http://www.w3.org/2000/svg" viewBox="0 0 512 512">
  <path d="M 0 54.857143 L 512 54.857143 L 0 54.857143 L 512 54.857143 L 512 91.42857 L 512 91.42857 L 0 91.42857 L 0 91.42857 L 0 54.857143 L 0 54.857143 Z M 0 237.71428 L 365.7143 237.71428 L 0 237.71428 L 365.7143 237.71428 L 365.7143 274.2857 L 365.7143 274.2857 L 0 274.2857 L 0 274.2857 L 0 237.71428 L 0 237.71428 Z M 219.42857 420.57144 L 219.42857 457.14285 L 219.42857 420.57144 L 219.42857 457.14285 L 0 457.14285 L 0 457.14285 L 0 420.57144 L 0 420.57144 L 219.42857 420.57144 L 219.42857 420.57144 Z" />
</svg>