<svg xmlns="http://www.w3.org/2000/svg" viewBox="0 0 512 512">
  <path d="M 256 32 Q 195 33 144 62 L 144 62 L 144 62 Q 93 92 62 144 Q 32 197 32 256 Q 32 315 62 368 Q 93 420 144 450 Q 195 479 256 480 Q 317 479 368 450 Q 419 420 450 368 Q 480 315 480 256 Q 480 197 450 144 Q 419 92 368 62 Q 317 33 256 32 L 256 32 Z M 256 512 Q 186 511 128 478 L 128 478 L 128 478 Q 70 444 34 384 Q 0 323 0 256 Q 0 189 34 128 Q 70 68 128 34 Q 186 1 256 0 Q 326 1 384 34 Q 442 68 478 128 Q 512 189 512 256 Q 512 323 478 384 Q 442 444 384 478 Q 326 511 256 512 L 256 512 Z M 224 256 L 224 288 L 224 256 L 224 288 L 192 288 L 173 288 L 256 371 L 256 371 L 339 288 L 339 288 L 320 288 L 288 288 L 288 256 L 288 256 L 288 160 L 288 160 L 224 160 L 224 160 L 224 256 L 224 256 Z M 256 416 L 233 393 L 256 416 L 233 393 L 128 288 L 128 288 L 128 256 L 128 256 L 160 256 L 192 256 L 192 224 L 192 224 L 192 160 L 192 160 L 192 128 L 192 128 L 224 128 L 320 128 L 320 160 L 320 160 L 320 224 L 320 224 L 320 256 L 320 256 L 352 256 L 384 256 L 384 288 L 384 288 L 279 393 L 279 393 L 256 416 L 256 416 Z" />
</svg>