<svg xmlns="http://www.w3.org/2000/svg" viewBox="0 0 640 448">
    <path d="M 144 48 L 592 48 L 592 102 Q 554 128 552 176 Q 554 224 592 250 L 592 304 L 144 304 L 144 48 L 144 48 Z M 640 136 L 640 88 L 640 48 L 640 0 L 592 0 L 144 0 L 96 0 L 96 48 L 96 304 L 96 352 L 144 352 L 592 352 L 640 352 L 640 304 L 640 264 L 640 216 Q 623 216 612 204 Q 600 193 600 176 Q 600 159 612 148 Q 623 136 640 136 L 640 136 Z M 512 80 Q 511 65 496 64 Q 481 65 480 80 Q 481 95 496 96 Q 511 95 512 80 L 512 80 Z M 512 144 Q 511 129 496 128 Q 481 129 480 144 Q 481 159 496 160 Q 511 159 512 144 L 512 144 Z M 496 224 Q 511 223 512 208 Q 511 193 496 192 Q 481 193 480 208 Q 481 223 496 224 L 496 224 Z M 512 272 Q 511 257 496 256 Q 481 257 480 272 Q 481 287 496 288 Q 511 287 512 272 L 512 272 Z M 264 64 L 291 144 L 248 144 L 224 112 L 192 112 L 208 176 L 192 240 L 224 240 L 248 208 L 291 208 L 264 288 L 320 288 L 367 208 L 407 208 Q 432 208 450 190 Q 462 176 450 162 Q 432 144 407 144 L 367 144 L 320 64 L 264 64 L 264 64 Z M 48 88 L 48 64 L 0 64 L 0 88 L 0 424 L 0 448 L 24 448 L 520 448 L 544 448 L 544 400 L 520 400 L 48 400 L 48 88 L 48 88 Z"/>
</svg>
