<svg xmlns="http://www.w3.org/2000/svg" viewBox="0 0 512 512">
  <path d="M 420.57142857142856 457.14285714285717 L 420.57142857142856 54.857142857142854 L 420.57142857142856 457.14285714285717 L 420.57142857142856 54.857142857142854 L 457.14285714285717 54.857142857142854 L 457.14285714285717 54.857142857142854 L 457.14285714285717 457.14285714285717 L 457.14285714285717 457.14285714285717 L 420.57142857142856 457.14285714285717 L 420.57142857142856 457.14285714285717 Z M 365.7142857142857 512 L 420.57142857142856 512 L 365.7142857142857 512 L 512 512 L 512 457.14285714285717 L 512 457.14285714285717 L 512 54.857142857142854 L 512 54.857142857142854 L 512 0 L 512 0 L 457.14285714285717 0 L 365.7142857142857 0 L 365.7142857142857 54.857142857142854 L 365.7142857142857 54.857142857142854 L 365.7142857142857 457.14285714285717 L 365.7142857142857 457.14285714285717 L 365.7142857142857 512 L 365.7142857142857 512 Z M 91.42857142857143 384 L 54.857142857142854 384 L 91.42857142857143 384 L 54.857142857142854 384 L 54.857142857142854 54.857142857142854 L 54.857142857142854 54.857142857142854 L 91.42857142857143 54.857142857142854 L 91.42857142857143 54.857142857142854 L 91.42857142857143 384 L 91.42857142857143 384 Z M 54.857142857142854 438.85714285714283 L 91.42857142857143 438.85714285714283 L 54.857142857142854 438.85714285714283 L 146.28571428571428 438.85714285714283 L 146.28571428571428 384 L 146.28571428571428 384 L 146.28571428571428 54.857142857142854 L 146.28571428571428 54.857142857142854 L 146.28571428571428 0 L 146.28571428571428 0 L 91.42857142857143 0 L 0 0 L 0 54.857142857142854 L 0 54.857142857142854 L 0 384 L 0 384 L 0 438.85714285714283 L 0 438.85714285714283 L 54.857142857142854 438.85714285714283 L 54.857142857142854 438.85714285714283 Z M 274.2857142857143 237.71428571428572 L 237.71428571428572 237.71428571428572 L 274.2857142857143 237.71428571428572 L 237.71428571428572 237.71428571428572 L 237.71428571428572 54.857142857142854 L 237.71428571428572 54.857142857142854 L 274.2857142857143 54.857142857142854 L 274.2857142857143 54.857142857142854 L 274.2857142857143 237.71428571428572 L 274.2857142857143 237.71428571428572 Z M 237.71428571428572 292.57142857142856 L 274.2857142857143 292.57142857142856 L 237.71428571428572 292.57142857142856 L 329.14285714285717 292.57142857142856 L 329.14285714285717 237.71428571428572 L 329.14285714285717 237.71428571428572 L 329.14285714285717 54.857142857142854 L 329.14285714285717 54.857142857142854 L 329.14285714285717 0 L 329.14285714285717 0 L 274.2857142857143 0 L 182.85714285714286 0 L 182.85714285714286 54.857142857142854 L 182.85714285714286 54.857142857142854 L 182.85714285714286 237.71428571428572 L 182.85714285714286 237.71428571428572 L 182.85714285714286 292.57142857142856 L 182.85714285714286 292.57142857142856 L 237.71428571428572 292.57142857142856 L 237.71428571428572 292.57142857142856 Z" />
</svg>