<svg xmlns="http://www.w3.org/2000/svg" viewBox="0 0 512 512">
  <path d="M 192 64 Q 206 64 215 55 L 215 55 L 215 55 Q 224 46 224 32 Q 224 18 215 9 Q 206 0 192 0 Q 178 0 169 9 Q 160 18 160 32 Q 160 46 169 55 Q 178 64 192 64 L 192 64 Z M 304 128 Q 331 127 346 104 Q 358 80 346 56 Q 331 33 304 32 Q 277 33 262 56 Q 250 80 262 104 Q 277 127 304 128 L 304 128 Z M 106 253 Q 121 225 135 208 L 256 208 L 377 208 Q 391 226 406 253 Q 431 298 432 334 Q 431 393 383 427 Q 332 463 256 464 Q 180 463 129 427 Q 81 393 80 334 Q 81 298 106 253 L 106 253 Z M 77 208 Q 59 235 46 268 L 46 268 L 46 268 Q 33 301 32 334 Q 33 391 64 430 L 64 512 L 64 512 L 112 512 L 112 512 L 112 473 L 112 473 Q 175 512 256 512 Q 337 512 400 473 L 400 512 L 400 512 L 448 512 L 448 512 L 448 430 L 448 430 Q 479 391 480 334 Q 479 301 466 268 Q 453 235 435 208 L 480 208 L 480 208 L 480 160 L 480 160 L 400 160 L 32 160 L 32 208 L 32 208 L 77 208 L 77 208 Z" />
</svg>