<svg viewBox="0 0 576 512">
  <path
    d="M 224 0 L 192 0 L 192 32 L 123 32 L 88 32 L 101 64 L 115 96 L 80 96 L 64 96 L 64 112 L 64 304 L 64 308 L 66 312 L 114 392 L 142 376 L 108 320 L 468 320 L 434 376 L 462 392 L 510 312 L 512 309 L 512 304 L 512 112 L 512 96 L 496 96 L 461 96 L 475 64 L 488 32 L 453 32 L 384 32 L 384 0 L 352 0 L 224 0 L 224 0 Z M 128 288 L 96 288 L 96 128 L 128 128 L 448 128 L 480 128 L 480 288 L 448 288 L 448 176 L 448 160 L 432 160 L 144 160 L 128 160 L 128 176 L 128 288 L 128 288 Z M 160 288 L 160 192 L 416 192 L 416 288 L 160 288 L 160 288 Z M 427 96 L 149 96 L 136 64 L 192 64 L 224 64 L 224 32 L 352 32 L 352 64 L 384 64 L 440 64 L 427 96 L 427 96 Z M 192 480 Q 160 478 134 459 Q 113 444 96 425 Q 79 444 58 459 Q 32 478 0 480 L 0 512 Q 23 512 42 503 Q 62 495 76 485 Q 88 477 96 470 Q 104 477 116 485 Q 130 495 150 503 Q 169 512 192 512 Q 215 512 234 503 Q 254 495 268 485 Q 280 477 288 470 Q 296 477 308 485 Q 322 495 342 503 Q 361 512 384 512 Q 407 512 426 503 Q 446 495 460 485 Q 472 477 480 470 Q 488 477 500 485 Q 514 495 534 503 Q 553 512 576 512 L 576 480 Q 544 478 518 459 Q 497 444 480 425 Q 463 444 442 459 Q 416 478 384 480 Q 352 478 326 459 Q 305 444 288 425 Q 271 444 250 459 Q 224 478 192 480 L 192 480 Z"
  />
</svg>