<svg xmlns="http://www.w3.org/2000/svg" viewBox="0 0 512 512">
  <path d="M 396.8 70.4 L 396.8 51.2 L 396.8 70.4 L 396.8 51.2 L 358.4 51.2 L 358.4 51.2 L 358.4 70.4 L 358.4 70.4 L 358.4 76.8 L 358.4 76.8 L 358.4 204.8 L 358.4 204.8 L 358.4 460.8 L 358.4 460.8 L 396.8 460.8 L 396.8 460.8 L 396.8 204.8 L 396.8 204.8 L 512 204.8 L 512 204.8 L 512 76.8 L 512 76.8 L 396.8 76.8 L 396.8 76.8 L 396.8 70.4 L 396.8 70.4 Z M 332.8 157.6 L 228.8 80.8 L 332.8 157.6 L 228.8 80.8 L 217.6 72 L 217.6 72 L 206.4 80.8 L 206.4 80.8 L 15.2 222.4 L 15.2 222.4 L 0 233.6 L 0 233.6 L 23.2 264 L 23.2 264 L 38.4 252.8 L 38.4 252.8 L 51.2 243.2 L 51.2 243.2 L 51.2 441.6 L 51.2 441.6 L 51.2 460.8 L 51.2 460.8 L 70.4 460.8 L 332.8 460.8 L 332.8 422.4 L 332.8 422.4 L 89.6 422.4 L 89.6 422.4 L 89.6 225.6 L 89.6 225.6 L 89.6 215.2 L 89.6 215.2 L 217.6 120 L 217.6 120 L 332.8 205.6 L 332.8 205.6 L 332.8 157.6 L 332.8 157.6 Z M 192 204.8 L 192 256 L 192 204.8 L 192 256 L 140.8 256 L 140.8 256 L 140.8 307.2 L 140.8 307.2 L 192 307.2 L 192 307.2 L 192 358.4 L 192 358.4 L 243.2 358.4 L 243.2 358.4 L 243.2 307.2 L 243.2 307.2 L 294.4 307.2 L 294.4 307.2 L 294.4 256 L 294.4 256 L 243.2 256 L 243.2 256 L 243.2 204.8 L 243.2 204.8 L 192 204.8 L 192 204.8 Z" />
</svg>