<svg xmlns="http://www.w3.org/2000/svg" viewBox="0 0 512 512">
  <path d="M 171.55556 116.44444 L 144 111.111115 L 171.55556 116.44444 L 144 111.111115 Q 150.22223 75.55556 176.88889 52.444443 Q 204.44444 29.333334 241.77777 28.444445 Q 274.66666 29.333334 299.55554 47.11111 Q 325.33334 64.888885 336 95.111115 L 309.33334 104 L 309.33334 104 Q 301.33334 83.55556 283.55554 70.22222 Q 265.77777 56.88889 241.77777 56.88889 Q 215.11111 57.77778 195.55556 73.77778 Q 176.88889 90.666664 171.55556 116.44444 L 171.55556 116.44444 Z M 334.22223 170.66667 L 199.11111 170.66667 L 334.22223 170.66667 L 199.11111 170.66667 Q 151.11111 171.55556 118.22222 203.55556 Q 86.22222 236.44444 85.333336 284.44446 Q 87.111115 342.22223 130.66667 375.1111 L 142.22223 384 L 142.22223 384 L 142.22223 398.22223 L 142.22223 398.22223 L 142.22223 455.1111 L 142.22223 455.1111 L 199.11111 455.1111 L 199.11111 455.1111 L 199.11111 426.66666 L 199.11111 426.66666 L 199.11111 398.22223 L 199.11111 398.22223 L 227.55556 398.22223 L 312.8889 398.22223 L 312.8889 426.66666 L 312.8889 426.66666 L 312.8889 455.1111 L 312.8889 455.1111 L 369.77777 455.1111 L 369.77777 455.1111 L 369.77777 415.1111 L 369.77777 415.1111 L 369.77777 396.44446 L 369.77777 396.44446 L 386.66666 388.44446 L 386.66666 388.44446 Q 414.22223 376.8889 432 352.8889 L 440.8889 341.33334 L 440.8889 341.33334 L 455.1111 341.33334 L 483.55554 341.33334 L 483.55554 256 L 483.55554 256 L 472 256 L 453.33334 256 L 445.33334 239.11111 L 445.33334 239.11111 Q 433.77777 211.55556 409.77777 193.77777 L 394.66666 182.22223 L 394.66666 182.22223 L 399.1111 163.55556 L 399.1111 163.55556 L 404.44446 142.22223 L 404.44446 142.22223 L 398.22223 142.22223 L 398.22223 142.22223 Q 372.44446 143.11111 355.55554 160.88889 L 347.55554 170.66667 L 347.55554 170.66667 L 334.22223 170.66667 L 334.22223 170.66667 Z M 398.22223 113.77778 L 411.55554 113.77778 L 398.22223 113.77778 L 440.8889 113.77778 L 433.77777 142.22223 L 433.77777 142.22223 L 426.66666 170.66667 L 426.66666 170.66667 Q 456 192.88889 472 227.55556 L 483.55554 227.55556 L 512 227.55556 L 512 256 L 512 256 L 512 341.33334 L 512 341.33334 L 512 369.77777 L 512 369.77777 L 483.55554 369.77777 L 455.1111 369.77777 Q 432.8889 400 398.22223 415.1111 L 398.22223 455.1111 L 398.22223 455.1111 L 398.22223 483.55554 L 398.22223 483.55554 L 369.77777 483.55554 L 284.44446 483.55554 L 284.44446 455.1111 L 284.44446 455.1111 L 284.44446 426.66666 L 284.44446 426.66666 L 256 426.66666 L 227.55556 426.66666 L 227.55556 455.1111 L 227.55556 455.1111 L 227.55556 483.55554 L 227.55556 483.55554 L 199.11111 483.55554 L 113.77778 483.55554 L 113.77778 455.1111 L 113.77778 455.1111 L 113.77778 398.22223 L 113.77778 398.22223 Q 87.111115 378.66666 72 349.33334 Q 56.88889 320 56.88889 284.44446 L 56.88889 284.44446 L 56.88889 284.44446 Q 32.88889 283.55554 16.88889 266.66666 Q 0.8888889 250.66667 0 226.66667 Q 0.8888889 191.11111 32 174.22223 L 36.444443 172.44444 L 36.444443 172.44444 L 48.88889 197.33333 L 48.88889 197.33333 L 45.333332 200 L 45.333332 200 Q 29.333334 208 28.444445 226.66667 Q 28.444445 239.11111 37.333332 247.11111 Q 45.333332 256 57.77778 256 L 59.555557 256 L 59.555557 256 Q 70.22222 206.22223 108.44444 175.11111 Q 146.66667 143.11111 199.11111 142.22223 L 334.22223 142.22223 L 334.22223 142.22223 Q 359.1111 114.666664 398.22223 113.77778 L 398.22223 113.77778 Z M 376.8889 241.77777 Q 396.44446 243.55556 398.22223 263.1111 Q 396.44446 282.66666 376.8889 284.44446 Q 357.33334 282.66666 355.55554 263.1111 Q 357.33334 243.55556 376.8889 241.77777 L 376.8889 241.77777 Z" />
</svg>