<svg viewBox="0 0 448 448">
  <path
    d="M 0 0 L 64 0 L 64 64 L 0 64 L 0 0 L 0 0 Z M 0 96 L 64 96 L 64 160 L 0 160 L 0 96 L 0 96 Z M 64 192 L 64 256 L 0 256 L 0 192 L 64 192 L 64 192 Z M 0 288 L 64 288 L 64 352 L 0 352 L 0 288 L 0 288 Z M 64 384 L 64 448 L 0 448 L 0 384 L 64 384 L 64 384 Z M 96 0 L 160 0 L 160 64 L 96 64 L 96 0 L 96 0 Z M 160 96 L 160 160 L 96 160 L 96 96 L 160 96 L 160 96 Z M 96 192 L 160 192 L 160 256 L 96 256 L 96 192 L 96 192 Z M 160 288 L 160 352 L 96 352 L 96 288 L 160 288 L 160 288 Z M 96 384 L 160 384 L 160 448 L 96 448 L 96 384 L 96 384 Z M 256 0 L 256 64 L 192 64 L 192 0 L 256 0 L 256 0 Z M 192 96 L 256 96 L 256 160 L 192 160 L 192 96 L 192 96 Z M 256 192 L 256 256 L 192 256 L 192 192 L 256 192 L 256 192 Z M 192 288 L 256 288 L 256 352 L 192 352 L 192 288 L 192 288 Z M 256 384 L 256 448 L 192 448 L 192 384 L 256 384 L 256 384 Z M 288 0 L 352 0 L 352 64 L 288 64 L 288 0 L 288 0 Z M 352 96 L 352 160 L 288 160 L 288 96 L 352 96 L 352 96 Z M 288 192 L 352 192 L 352 256 L 288 256 L 288 192 L 288 192 Z M 352 288 L 352 352 L 288 352 L 288 288 L 352 288 L 352 288 Z M 288 384 L 352 384 L 352 448 L 288 448 L 288 384 L 288 384 Z M 448 0 L 448 64 L 384 64 L 384 0 L 448 0 L 448 0 Z M 384 96 L 448 96 L 448 160 L 384 160 L 384 96 L 384 96 Z M 448 192 L 448 256 L 384 256 L 384 192 L 448 192 L 448 192 Z M 384 288 L 448 288 L 448 352 L 384 352 L 384 288 L 384 288 Z M 448 384 L 448 448 L 384 448 L 384 384 L 448 384 L 448 384 Z"
  />
</svg>