<svg xmlns="http://www.w3.org/2000/svg" viewBox="0 0 576 512">
    <path d="M 160 0 L 96 0 L 96 64 L 0 64 L 0 160 L 448 160 L 448 64 L 352 64 L 352 0 L 288 0 L 288 64 L 160 64 L 160 0 L 160 0 Z M 256 368 Q 258 298 302 249 L 302 249 Q 347 200 416 193 L 416 192 L 0 192 L 0 512 L 331 512 Q 296 488 276 450 Q 256 413 256 368 L 256 368 Z M 576 368 Q 576 329 557 296 L 557 296 Q 538 263 504 243 Q 470 224 432 224 Q 394 224 360 243 Q 326 263 307 296 Q 288 329 288 368 Q 288 407 307 440 Q 326 473 360 493 Q 394 512 432 512 Q 470 512 504 493 Q 538 473 557 440 Q 576 407 576 368 L 576 368 Z M 512 384 L 496 384 L 368 384 L 352 384 L 352 352 L 368 352 L 496 352 L 512 352 L 512 384 L 512 384 Z"/>
</svg>
