<svg xmlns="http://www.w3.org/2000/svg" viewBox="0 0 512 512">
  <path d="M 54.857142857142854 36.57142857142857 L 73.14285714285714 36.57142857142857 L 54.857142857142854 36.57142857142857 L 73.14285714285714 36.57142857142857 Q 96 37.714285714285715 112 52.57142857142857 Q 126.85714285714286 68.57142857142857 128 91.42857142857143 L 128 182.85714285714286 L 128 182.85714285714286 L 54.857142857142854 182.85714285714286 L 54.857142857142854 182.85714285714286 L 54.857142857142854 219.42857142857142 L 54.857142857142854 219.42857142857142 L 128 219.42857142857142 L 128 219.42857142857142 L 128 420.57142857142856 L 128 420.57142857142856 Q 129.14285714285714 459.42857142857144 154.28571428571428 485.7142857142857 Q 180.57142857142858 510.85714285714283 219.42857142857142 512 L 256 512 L 256 512 Q 341.7142857142857 509.7142857142857 397.7142857142857 452.57142857142856 Q 454.85714285714283 396.57142857142856 457.14285714285717 310.85714285714283 L 457.14285714285717 274.2857142857143 L 457.14285714285717 274.2857142857143 Q 456 235.42857142857142 430.85714285714283 209.14285714285714 Q 404.57142857142856 184 365.7142857142857 182.85714285714286 L 310.85714285714283 182.85714285714286 L 310.85714285714283 182.85714285714286 L 310.85714285714283 219.42857142857142 L 310.85714285714283 219.42857142857142 L 365.7142857142857 219.42857142857142 L 365.7142857142857 219.42857142857142 Q 388.57142857142856 220.57142857142858 404.57142857142856 235.42857142857142 Q 419.42857142857144 251.42857142857142 420.57142857142856 274.2857142857143 L 420.57142857142856 310.85714285714283 L 420.57142857142856 310.85714285714283 Q 418.2857142857143 380.57142857142856 372.57142857142856 427.42857142857144 Q 325.7142857142857 473.14285714285717 256 475.42857142857144 L 219.42857142857142 475.42857142857144 L 219.42857142857142 475.42857142857144 Q 196.57142857142858 474.2857142857143 180.57142857142858 459.42857142857144 Q 165.71428571428572 443.42857142857144 164.57142857142858 420.57142857142856 L 164.57142857142858 219.42857142857142 L 164.57142857142858 219.42857142857142 L 237.71428571428572 219.42857142857142 L 237.71428571428572 219.42857142857142 L 237.71428571428572 182.85714285714286 L 237.71428571428572 182.85714285714286 L 164.57142857142858 182.85714285714286 L 164.57142857142858 182.85714285714286 L 164.57142857142858 91.42857142857143 L 164.57142857142858 91.42857142857143 Q 163.42857142857142 52.57142857142857 138.28571428571428 26.285714285714285 Q 112 1.1428571428571428 73.14285714285714 0 L 54.857142857142854 0 L 54.857142857142854 0 L 54.857142857142854 36.57142857142857 L 54.857142857142854 36.57142857142857 Z" />
</svg>