<svg xmlns="http://www.w3.org/2000/svg" viewBox="0 0 512 512">
  <path d="M 200 0 L 152 0 L 200 0 L 152 0 L 152 24 L 152 24 L 152 32 L 152 32 L 128 32 L 112 32 L 112 64 L 112 64 L 128 64 L 240 64 L 240 32 L 240 32 L 224 32 L 200 32 L 200 24 L 200 24 L 200 0 L 200 0 Z M 360 0 L 312 0 L 360 0 L 312 0 L 312 24 L 312 24 L 312 32 L 312 32 L 288 32 L 272 32 L 272 64 L 272 64 L 288 64 L 400 64 L 400 32 L 400 32 L 384 32 L 360 32 L 360 24 L 360 24 L 360 0 L 360 0 Z M 128 96 L 112 96 L 128 96 L 112 96 L 112 128 L 112 128 L 128 128 L 240 128 L 240 96 L 240 96 L 224 96 L 128 96 Z M 288 96 L 272 96 L 288 96 L 272 96 L 272 128 L 272 128 L 288 128 L 400 128 L 400 96 L 400 96 L 384 96 L 288 96 Z M 88 160 L 64 160 L 88 160 L 64 160 L 64 208 L 64 208 L 88 208 L 96 208 L 96 464 L 96 464 L 88 464 L 64 464 L 64 512 L 64 512 L 88 512 L 448 512 L 448 464 L 448 464 L 424 464 L 416 464 L 416 208 L 416 208 L 424 208 L 448 208 L 448 160 L 448 160 L 424 160 L 88 160 Z M 144 464 L 144 208 L 144 464 L 144 208 L 368 208 L 368 208 L 368 464 L 368 464 L 144 464 L 144 464 Z M 240 352 L 216 432 L 240 352 L 216 432 L 240 432 L 240 432 L 336 344 L 336 344 L 336 320 L 336 320 L 272 320 L 272 320 L 296 240 L 296 240 L 272 240 L 272 240 L 176 328 L 176 328 L 176 352 L 176 352 L 240 352 L 240 352 Z" />
</svg>