<svg xmlns="http://www.w3.org/2000/svg" viewBox="0 0 512 512">
  <path d="M 40 209.5 L 0 209.5 L 40 209.5 L 0 209.5 L 0 289.5 L 0 289.5 L 40 289.5 L 208 289.5 L 208 369.5 L 208 369.5 L 240 369.5 L 240 369.5 L 240 449.5 L 240 449.5 L 320 449.5 L 384 449.5 Q 438 448.5 475 412.5 Q 511 375.5 512 321.5 L 512 208.5 L 512 208.5 Q 511 145.5 468 101.5 Q 432 66.5 382 65.5 L 288 65.5 L 288 65.5 L 288 97.5 L 288 97.5 L 365 122.5 L 365 122.5 L 380 127.5 L 380 127.5 L 370 157.5 L 370 157.5 L 355 152.5 L 355 152.5 L 288 131.5 L 288 131.5 L 288 131.5 L 288 131.5 L 108 74.5 L 108 74.5 L 70 62.5 L 70 62.5 L 46 139.5 L 46 139.5 L 84 151.5 L 84 151.5 L 270 209.5 L 270 209.5 L 40 209.5 L 40 209.5 Z" />
</svg>