<svg xmlns="http://www.w3.org/2000/svg" viewBox="0 0 512 512">
  <path d="M 54.857142857142854 457.14285714285717 L 54.857142857142854 54.857142857142854 L 54.857142857142854 457.14285714285717 L 54.857142857142854 54.857142857142854 L 457.14285714285717 54.857142857142854 L 457.14285714285717 54.857142857142854 L 457.14285714285717 457.14285714285717 L 457.14285714285717 457.14285714285717 L 54.857142857142854 457.14285714285717 L 54.857142857142854 457.14285714285717 Z M 0 512 L 54.857142857142854 512 L 0 512 L 512 512 L 512 457.14285714285717 L 512 457.14285714285717 L 512 54.857142857142854 L 512 54.857142857142854 L 512 0 L 512 0 L 457.14285714285717 0 L 0 0 L 0 54.857142857142854 L 0 54.857142857142854 L 0 457.14285714285717 L 0 457.14285714285717 L 0 512 L 0 512 Z M 146.28571428571428 182.85714285714286 L 146.28571428571428 365.7142857142857 L 146.28571428571428 182.85714285714286 L 146.28571428571428 365.7142857142857 L 329.14285714285717 365.7142857142857 L 329.14285714285717 365.7142857142857 L 356.57142857142856 338.2857142857143 L 356.57142857142856 338.2857142857143 L 297.14285714285717 278.85714285714283 L 297.14285714285717 278.85714285714283 L 384 192 L 384 192 L 320 128 L 320 128 L 233.14285714285714 214.85714285714286 L 233.14285714285714 214.85714285714286 L 173.71428571428572 155.42857142857142 L 173.71428571428572 155.42857142857142 L 146.28571428571428 182.85714285714286 L 146.28571428571428 182.85714285714286 Z" />
</svg>