<svg xmlns="http://www.w3.org/2000/svg" viewBox="0 0 512 512">
  <path d="M 368.280701754386 0.49902534113060426 L 336.3430799220273 32.43664717348928 L 368.280701754386 0.49902534113060426 L 336.3430799220273 32.43664717348928 L 368.280701754386 64.37426900584795 L 368.280701754386 64.37426900584795 L 400.21832358674465 32.43664717348928 L 400.21832358674465 32.43664717348928 L 368.280701754386 0.49902534113060426 L 368.280701754386 0.49902534113060426 Z M 384.2495126705653 192.12475633528265 L 371.27485380116957 192.12475633528265 L 384.2495126705653 192.12475633528265 L 371.27485380116957 192.12475633528265 L 361.2943469785575 201.10721247563353 L 361.2943469785575 201.10721247563353 L 307.3996101364522 256 L 307.3996101364522 256 L 245.5204678362573 256 L 245.5204678362573 256 Q 256.4990253411306 234.0428849902534 256.4990253411306 208.093567251462 Q 255.50097465886938 160.18713450292398 223.5633528265107 129.24756335282652 Q 192.62378167641324 97.30994152046783 144.71734892787524 96.31189083820662 Q 113.77777777777777 96.31189083820662 88.82651072124756 111.28265107212475 Q 62.87719298245614 126.25341130604288 48.90448343079922 151.2046783625731 L 103.79727095516569 184.140350877193 L 103.79727095516569 184.140350877193 Q 116.7719298245614 161.1851851851852 144.71734892787524 160.18713450292398 Q 164.6783625730994 161.1851851851852 178.65107212475633 174.1598440545809 Q 191.62573099415204 188.13255360623782 192.62378167641324 208.093567251462 Q 191.62573099415204 228.05458089668616 178.65107212475633 242.02729044834308 Q 164.6783625730994 255.0019493177388 144.71734892787524 256 L 88.82651072124756 256 L 88.82651072124756 256 L 112.77972709551656 319.87524366471735 L 112.77972709551656 319.87524366471735 L 144.71734892787524 319.87524366471735 L 160.68615984405457 319.87524366471735 Q 187.6335282651072 320.8732943469786 205.59844054580896 338.83820662768034 Q 223.5633528265107 356.8031189083821 224.56140350877192 383.7504873294347 Q 223.5633528265107 410.69785575048735 205.59844054580896 428.6627680311891 Q 187.6335282651072 446.62768031189086 160.68615984405457 447.62573099415204 Q 104.7953216374269 445.6296296296296 69.8635477582846 422.67446393762185 Q 33.93372319688109 399.719298245614 17.964912280701753 376.76413255360626 Q 0.9980506822612085 353.80896686159844 0.9980506822612085 351.812865497076 Q 0 352.81091617933726 3.992202729044834 376.76413255360626 Q 6.98635477582846 400.71734892787526 20.95906432748538 431.6569200779727 Q 34.9317738791423 462.5964912280702 68.86549707602339 486.5497076023392 Q 101.80116959064327 510.5029239766082 160.68615984405457 511.5009746588694 Q 214.58089668615983 510.5029239766082 251.50877192982455 474.5730994152047 Q 287.43859649122805 437.64522417153995 288.4366471734893 383.7504873294347 Q 288.4366471734893 348.8187134502924 271.4697855750487 319.87524366471735 L 320.37426900584796 319.87524366471735 L 333.34892787524365 319.87524366471735 L 343.32943469785573 310.8927875243665 L 343.32943469785573 310.8927875243665 L 397.224171539961 256 L 397.224171539961 256 L 416.187134502924 256 L 416.187134502924 256 Q 430.1598440545809 256 439.14230019493175 264.9824561403509 Q 448.12475633528265 273.96491228070175 448.12475633528265 287.9376218323587 L 448.12475633528265 383.7504873294347 L 448.12475633528265 383.7504873294347 Q 448.12475633528265 397.7231968810916 439.14230019493175 406.7056530214425 Q 430.1598440545809 415.68810916179336 416.187134502924 415.68810916179336 Q 368.280701754386 412.69395711500977 344.32748538011697 391.73489278752436 Q 320.37426900584796 370.775828460039 320.37426900584796 367.78167641325535 L 320.37426900584796 431.6569200779727 L 320.37426900584796 431.6569200779727 Q 320.37426900584796 432.65497076023394 327.3606237816764 443.6335282651072 Q 335.34502923976606 455.6101364522417 356.30409356725147 467.5867446393762 Q 376.26510721247564 478.56530214424953 416.187134502924 479.5633528265107 Q 457.1072124756335 478.56530214424953 484.05458089668616 451.61793372319687 Q 511.00194931773876 424.67056530214427 512 383.7504873294347 L 512 287.9376218323587 L 512 287.9376218323587 Q 511.00194931773876 247.01754385964912 484.05458089668616 220.0701754385965 Q 457.1072124756335 193.12280701754386 416.187134502924 192.12475633528265 L 384.2495126705653 192.12475633528265 L 384.2495126705653 192.12475633528265 Z M 480.0623781676413 64.37426900584795 Q 479.0643274853801 65.37231968810916 461.09941520467834 72.35867446393762 L 461.09941520467834 72.35867446393762 L 461.09941520467834 72.35867446393762 Q 443.1345029239766 80.34307992202729 417.18518518518516 88.32748538011695 L 417.18518518518516 88.32748538011695 L 417.18518518518516 88.32748538011695 Q 392.233918128655 95.31384015594541 368.280701754386 96.31189083820662 Q 344.32748538011697 95.31384015594541 319.3762183235867 88.32748538011695 Q 293.4269005847953 80.34307992202729 275.46198830409355 72.35867446393762 Q 257.4970760233918 65.37231968810916 256.4990253411306 64.37426900584795 Q 255.50097465886938 66.37037037037037 264.4834307992203 89.32553606237816 Q 273.46588693957113 112.28070175438596 299.41520467836256 135.23586744639377 Q 325.364522417154 158.19103313840156 376.26510721247564 160.18713450292398 Q 430.1598440545809 158.19103313840156 455.1111111111111 144.21832358674465 Q 480.0623781676413 130.24561403508773 480.0623781676413 128.2495126705653 L 480.0623781676413 64.37426900584795 L 480.0623781676413 64.37426900584795 Z" />
</svg>