<svg xmlns="http://www.w3.org/2000/svg" viewBox="0 0 512 512">
  <path d="M 256 512 Q 258 511 286 478 L 286 478 L 286 478 Q 315 445 352 394 L 352 394 L 352 394 Q 390 343 418 289 L 418 289 L 418 289 Q 447 235 448 192 Q 446 110 392 56 Q 338 2 256 0 Q 174 2 120 56 Q 66 110 64 192 Q 66 235 94 289 Q 123 343 160 394 Q 198 445 226 478 Q 255 511 256 512 L 256 512 Z M 192 128 Q 206 128 215 137 L 215 137 L 215 137 Q 224 146 224 160 Q 224 174 215 183 Q 206 192 192 192 Q 178 192 169 183 Q 160 174 160 160 Q 160 146 169 137 Q 178 128 192 128 L 192 128 Z M 288 160 Q 288 146 297 137 L 297 137 L 297 137 Q 306 128 320 128 Q 334 128 343 137 Q 352 146 352 160 Q 352 174 343 183 Q 334 192 320 192 Q 306 192 297 183 Q 288 174 288 160 L 288 160 Z M 159 267 L 193 245 L 159 267 L 193 245 Q 198 253 214 264 Q 230 275 256 276 Q 282 275 298 264 Q 315 253 320 245 L 353 267 L 353 267 Q 344 282 319 298 Q 294 315 256 316 Q 218 315 193 298 Q 168 282 159 267 L 159 267 Z" />
</svg>