<svg xmlns="http://www.w3.org/2000/svg" viewBox="0 0 512 512">
  <path d="M 217.6 435.2 L 179.2 460.8 L 217.6 435.2 L 179.2 460.8 L 179.2 422.4 L 179.2 422.4 L 179.2 414.4 L 179.2 414.4 L 179.2 384 L 179.2 384 L 140.8 384 L 76.8 384 L 76.8 345.6 L 76.8 345.6 L 76.8 217.6 L 76.8 217.6 L 51.2 217.6 L 51.2 217.6 L 51.2 230.4 L 51.2 230.4 L 0 230.4 L 0 230.4 L 0 179.2 L 0 179.2 L 51.2 179.2 L 51.2 179.2 L 51.2 192 L 51.2 192 L 76.8 192 L 76.8 192 L 76.8 89.6 L 76.8 89.6 L 76.8 51.2 L 76.8 51.2 L 115.2 51.2 L 435.2 51.2 L 435.2 89.6 L 435.2 89.6 L 435.2 192 L 435.2 192 L 460.8 192 L 460.8 192 L 460.8 179.2 L 460.8 179.2 L 512 179.2 L 512 179.2 L 512 230.4 L 512 230.4 L 460.8 230.4 L 460.8 230.4 L 460.8 217.6 L 460.8 217.6 L 435.2 217.6 L 435.2 217.6 L 435.2 345.6 L 435.2 345.6 L 435.2 384 L 435.2 384 L 396.8 384 L 294.4 384 L 217.6 435.2 L 217.6 435.2 Z M 115.2 345.6 L 179.2 345.6 L 115.2 345.6 L 217.6 345.6 L 217.6 384 L 217.6 384 L 217.6 388.8 L 217.6 388.8 L 272.8 352 L 272.8 352 L 283.2 345.6 L 283.2 345.6 L 294.4 345.6 L 396.8 345.6 L 396.8 204.8 L 396.8 204.8 L 396.8 89.6 L 396.8 89.6 L 115.2 89.6 L 115.2 89.6 L 115.2 204.8 L 115.2 204.8 L 115.2 345.6 L 115.2 345.6 Z M 371.2 128 L 371.2 281.6 L 371.2 128 L 371.2 281.6 L 140.8 281.6 L 140.8 281.6 L 140.8 128 L 140.8 128 L 371.2 128 L 371.2 128 Z M 192 230.4 Q 203.2 230.4 210.4 223.2 L 210.4 223.2 L 210.4 223.2 Q 217.6 216 217.6 204.8 Q 217.6 193.6 210.4 186.4 Q 203.2 179.2 192 179.2 Q 180.8 179.2 173.6 186.4 Q 166.4 193.6 166.4 204.8 Q 166.4 216 173.6 223.2 Q 180.8 230.4 192 230.4 L 192 230.4 Z M 345.6 204.8 Q 345.6 193.6 338.4 186.4 L 338.4 186.4 L 338.4 186.4 Q 331.2 179.2 320 179.2 Q 308.8 179.2 301.6 186.4 Q 294.4 193.6 294.4 204.8 Q 294.4 216 301.6 223.2 Q 308.8 230.4 320 230.4 Q 331.2 230.4 338.4 223.2 Q 345.6 216 345.6 204.8 L 345.6 204.8 Z" />
</svg>