<svg xmlns="http://www.w3.org/2000/svg" viewBox="0 0 512 512">
  <path d="M 288 32 L 288 0 L 288 32 L 288 0 L 224 0 L 224 0 L 224 32 L 224 32 L 224 64 L 224 64 L 160 64 L 160 64 L 160 96 L 160 96 L 256 192 L 256 192 L 352 96 L 352 96 L 352 64 L 352 64 L 288 64 L 288 64 L 288 32 L 288 32 Z M 224 448 L 224 480 L 224 448 L 224 480 L 224 512 L 224 512 L 288 512 L 288 512 L 288 480 L 288 480 L 288 448 L 288 448 L 352 448 L 352 448 L 352 416 L 352 416 L 256 320 L 256 320 L 160 416 L 160 416 L 160 448 L 160 448 L 224 448 L 224 448 Z M 96 224 L 32 224 L 96 224 L 32 224 L 32 288 L 32 288 L 96 288 L 96 288 L 96 224 L 96 224 Z M 128 224 L 128 288 L 128 224 L 128 288 L 192 288 L 192 288 L 192 224 L 192 224 L 128 224 L 128 224 Z M 288 224 L 224 224 L 288 224 L 224 224 L 224 288 L 224 288 L 288 288 L 288 288 L 288 224 L 288 224 Z M 320 224 L 320 288 L 320 224 L 320 288 L 384 288 L 384 288 L 384 224 L 384 224 L 320 224 L 320 224 Z M 416 224 L 416 288 L 416 224 L 416 288 L 480 288 L 480 288 L 480 224 L 480 224 L 416 224 L 416 224 Z" />
</svg>