<svg xmlns="http://www.w3.org/2000/svg" viewBox="0 0 468 512">
    <path d="M 258 24 L 258 104 L 258 128 L 210 128 L 210 104 L 210 24 L 210 0 L 258 0 L 258 24 L 258 24 Z M 117 160 L 138 160 L 330 160 L 351 160 L 359 179 L 406 288 L 442 288 L 442 384 L 442 448 L 442 512 L 362 512 L 362 448 L 106 448 L 106 512 L 26 512 L 26 448 L 26 384 L 26 288 L 62 288 L 109 179 L 117 160 L 117 160 Z M 309 224 L 159 224 L 132 288 L 336 288 L 309 224 L 309 224 Z M 106 392 Q 128 390 130 368 Q 128 346 106 344 Q 84 346 82 368 Q 84 390 106 392 L 106 392 Z M 386 368 Q 384 346 362 344 Q 340 346 338 368 Q 340 390 362 392 Q 384 390 386 368 L 386 368 Z M 34 22 L 51 39 L 99 87 L 116 104 L 82 138 L 65 121 L 17 73 L 0 56 L 34 22 L 34 22 Z M 417 39 L 434 22 L 468 56 L 451 73 L 403 121 L 386 138 L 352 104 L 369 87 L 417 39 L 417 39 Z"/>
</svg>
