<svg viewBox="0 0 448 448">
  <path
    d="M 42 128 L 85 32 L 178 32 L 160 128 L 144 128 L 42 128 L 42 128 Z M 144 160 L 160 160 L 160 224 L 160 256 L 192 256 L 256 256 L 288 256 L 288 224 L 288 160 L 304 160 L 416 160 L 416 416 L 32 416 L 32 160 L 144 160 L 144 160 Z M 192 160 L 256 160 L 256 224 L 192 224 L 192 160 L 192 160 Z M 288 128 L 270 32 L 363 32 L 406 128 L 304 128 L 288 128 L 288 128 Z M 255 128 L 193 128 L 211 32 L 238 32 L 256 128 L 255 128 Z M 264 0 L 184 0 L 64 0 L 0 144 L 0 416 L 0 448 L 32 448 L 416 448 L 448 448 L 448 416 L 448 144 L 384 0 L 264 0 L 264 0 Z"
  />
</svg>