<svg xmlns="http://www.w3.org/2000/svg" viewBox="0 0 512 512">
  <path d="M 208 304 L 208 256 L 208 304 L 208 256 L 208 54 L 208 54 Q 138 71 94 126 Q 49 181 48 256 Q 50 344 109 403 Q 168 462 256 464 Q 331 463 386 418 Q 441 374 458 304 L 256 304 L 208 304 Z M 508 304 Q 489 395 420 452 L 420 452 L 420 452 Q 352 510 256 512 Q 184 511 127 477 Q 69 443 35 385 Q 1 328 0 256 Q 2 160 60 92 Q 117 23 208 5 Q 231 0 256 0 L 256 48 L 256 48 L 256 208 L 256 208 L 256 256 L 256 256 L 304 256 L 512 256 Q 512 281 508 304 L 508 304 Z" />
</svg>