<svg xmlns="http://www.w3.org/2000/svg" viewBox="0 0 512 512">
  <path d="M 58.547085 19.515696 L 39.03139 0 L 58.547085 19.515696 L 39.03139 0 L 0 39.03139 L 0 39.03139 L 19.515696 58.547085 L 19.515696 58.547085 L 216.96861 256 L 216.96861 256 L 19.515696 453.4529 L 19.515696 453.4529 L 0 472.9686 L 0 472.9686 L 39.03139 512 L 39.03139 512 L 58.547085 492.4843 L 58.547085 492.4843 L 256 295.0314 L 256 295.0314 L 453.4529 492.4843 L 453.4529 492.4843 L 472.9686 512 L 472.9686 512 L 512 472.9686 L 512 472.9686 L 492.4843 453.4529 L 492.4843 453.4529 L 295.0314 256 L 295.0314 256 L 492.4843 58.547085 L 492.4843 58.547085 L 512 39.03139 L 512 39.03139 L 472.9686 0 L 472.9686 0 L 453.4529 19.515696 L 453.4529 19.515696 L 256 216.96861 L 256 216.96861 L 58.547085 19.515696 L 58.547085 19.515696 Z" />
</svg>