<svg viewBox="0 0 640 448">
  <path
    d="M 224 32 L 224 208 L 224 240 L 224 416 L 160 416 L 160 384 L 160 352 L 160 96 L 160 64 L 160 32 L 224 32 L 224 32 Z M 128 384 L 128 416 L 128 448 L 160 448 L 224 448 L 256 448 L 256 416 L 256 240 L 384 240 L 384 416 L 384 448 L 416 448 L 480 448 L 512 448 L 512 416 L 512 384 L 576 384 L 608 384 L 608 352 L 608 240 L 624 240 L 640 240 L 640 208 L 624 208 L 608 208 L 608 96 L 608 64 L 576 64 L 512 64 L 512 32 L 512 0 L 480 0 L 416 0 L 384 0 L 384 32 L 384 208 L 256 208 L 256 32 L 256 0 L 224 0 L 160 0 L 128 0 L 128 32 L 128 64 L 64 64 L 32 64 L 32 96 L 32 208 L 16 208 L 0 208 L 0 240 L 16 240 L 32 240 L 32 352 L 32 384 L 64 384 L 128 384 L 128 384 Z M 512 96 L 576 96 L 576 208 L 576 240 L 576 352 L 512 352 L 512 96 L 512 96 Z M 480 384 L 480 416 L 416 416 L 416 240 L 416 208 L 416 32 L 480 32 L 480 64 L 480 96 L 480 352 L 480 384 L 480 384 Z M 128 352 L 64 352 L 64 240 L 64 208 L 64 96 L 128 96 L 128 352 L 128 352 Z"
  />
</svg>