<svg xmlns="http://www.w3.org/2000/svg" viewBox="0 0 512 512">
  <path d="M 288 281 Q 303 288 320 288 Q 354 287 377 265 Q 399 242 400 208 Q 399 167 368 144 Q 399 121 400 80 Q 399 46 377 23 Q 354 1 320 0 Q 279 1 256 32 Q 233 1 192 0 Q 158 1 135 23 Q 113 46 112 80 Q 113 121 144 144 Q 113 167 112 208 Q 113 242 135 265 Q 158 287 192 288 Q 209 288 224 281 L 224 395 L 224 395 Q 200 360 162 340 Q 125 320 80 320 L 0 320 L 0 320 L 0 336 L 0 336 Q 2 411 52 460 Q 101 510 176 512 L 224 512 L 336 512 Q 411 510 460 460 Q 510 411 512 336 L 512 320 L 512 320 L 432 320 L 432 320 Q 387 320 350 340 Q 312 360 288 395 L 288 281 L 288 281 Z M 200 144 L 256 88 L 200 144 L 256 88 L 312 144 L 312 144 L 256 200 L 256 200 L 200 144 L 200 144 Z" />
</svg>