<svg xmlns="http://www.w3.org/2000/svg" viewBox="0 0 512 512">
  <path d="M 353.5474 2.475822 L 131.71373 2.475822 L 353.5474 2.475822 L 131.71373 2.475822 L 131.71373 136.17021 L 131.71373 136.17021 L 155.48163 126.26692 L 155.48163 126.26692 L 177.26886 117.353966 L 177.26886 117.353966 L 192.1238 136.17021 L 192.1238 136.17021 L 207.96906 155.97679 L 207.96906 155.97679 L 232.72728 159.93811 L 232.72728 159.93811 L 256.49518 162.90909 L 256.49518 162.90909 L 259.46616 186.67699 L 259.46616 186.67699 L 263.42746 211.4352 L 263.42746 211.4352 L 283.23404 227.28047 L 283.23404 227.28047 L 302.0503 242.13539 L 302.0503 242.13539 L 293.13733 263.92264 L 293.13733 263.92264 L 283.23404 287.69052 L 283.23404 287.69052 L 293.13733 311.4584 L 293.13733 311.4584 L 302.0503 333.24564 L 302.0503 333.24564 L 283.23404 348.1006 L 283.23404 348.1006 L 263.42746 363.94583 L 263.42746 363.94583 L 259.46616 388.70407 L 259.46616 388.70407 L 256.49518 412.47195 L 256.49518 412.47195 L 232.72728 415.44293 L 232.72728 415.44293 L 226.7853 416.43326 L 226.7853 416.43326 L 226.7853 509.52417 L 226.7853 509.52417 L 226.7853 509.52417 L 226.7853 509.52417 L 512 509.52417 L 512 509.52417 L 512 160.92844 L 512 160.92844 L 353.5474 160.92844 L 353.5474 160.92844 L 353.5474 2.475822 L 353.5474 2.475822 Z M 385.2379 2.475822 L 385.2379 129.23792 L 385.2379 2.475822 L 385.2379 129.23792 L 512 129.23792 L 512 129.23792 L 385.2379 2.475822 L 385.2379 2.475822 Z M 96.0619 155.97679 L 93.09091 159.93811 L 96.0619 155.97679 L 93.09091 159.93811 L 73.28433 185.68666 L 73.28433 185.68666 L 40.60348 190.63829 L 40.60348 190.63829 L 34.66151 190.63829 L 34.66151 190.63829 L 34.66151 196.58028 L 34.66151 196.58028 L 29.709864 229.26112 L 29.709864 229.26112 L 3.9613154 249.0677 L 3.9613154 249.0677 L 0 252.03868 L 0 252.03868 L 1.9806577 257.98065 L 1.9806577 257.98065 L 13.864603 287.69052 L 13.864603 287.69052 L 1.9806577 317.4004 L 1.9806577 317.4004 L 0 323.34235 L 0 323.34235 L 3.9613154 326.31335 L 3.9613154 326.31335 L 29.709864 346.11993 L 29.709864 346.11993 L 34.66151 378.80078 L 34.66151 378.80078 L 34.66151 384.74274 L 34.66151 384.74274 L 40.60348 384.74274 L 40.60348 384.74274 L 68.33269 388.70407 L 68.33269 388.70407 L 68.33269 509.52417 L 68.33269 509.52417 L 131.71373 469.911 L 131.71373 469.911 L 195.09477 509.52417 L 195.09477 509.52417 L 195.09477 388.70407 L 195.09477 388.70407 L 222.82399 384.74274 L 222.82399 384.74274 L 228.76596 384.74274 L 228.76596 384.74274 L 228.76596 378.80078 L 228.76596 378.80078 L 233.7176 346.11993 L 233.7176 346.11993 L 259.46616 327.30368 L 259.46616 327.30368 L 263.42746 323.34235 L 263.42746 323.34235 L 261.4468 317.4004 L 261.4468 317.4004 L 249.56287 287.69052 L 249.56287 287.69052 L 261.4468 257.98065 L 261.4468 257.98065 L 263.42746 252.03868 L 263.42746 252.03868 L 259.46616 249.0677 L 259.46616 249.0677 L 233.7176 229.26112 L 233.7176 229.26112 L 228.76596 197.5706 L 228.76596 197.5706 L 228.76596 191.62863 L 228.76596 191.62863 L 222.82399 190.63829 L 222.82399 190.63829 L 190.14313 185.68666 L 190.14313 185.68666 L 171.32689 160.92844 L 171.32689 160.92844 L 167.36557 155.97679 L 167.36557 155.97679 L 161.4236 157.95744 L 161.4236 157.95744 L 131.71373 169.8414 L 131.71373 169.8414 L 102.00387 157.95744 L 102.00387 157.95744 L 96.0619 155.97679 L 96.0619 155.97679 Z M 68.33269 287.69052 Q 69.32302 252.03868 100.02321 233.22244 Q 131.71373 215.39651 163.40425 233.22244 Q 194.10445 252.03868 195.09477 287.69052 Q 194.10445 323.34235 163.40425 342.1586 Q 131.71373 359.98453 100.02321 342.1586 Q 69.32302 323.34235 68.33269 287.69052 L 68.33269 287.69052 Z" />
</svg>