<svg xmlns="http://www.w3.org/2000/svg" viewBox="0 0 512 512">
  <path d="M 51.2 187.73333333333332 L 51.2 0 L 51.2 187.73333333333332 L 51.2 0 L 153.6 0 L 153.6 0 L 153.6 68.26666666666667 L 153.6 68.26666666666667 L 204.8 68.26666666666667 L 204.8 68.26666666666667 L 204.8 0 L 204.8 0 L 307.2 0 L 307.2 0 L 307.2 68.26666666666667 L 307.2 68.26666666666667 L 358.4 68.26666666666667 L 358.4 68.26666666666667 L 358.4 0 L 358.4 0 L 460.8 0 L 460.8 0 L 460.8 187.73333333333332 L 460.8 187.73333333333332 L 392.53333333333336 238.93333333333334 L 392.53333333333336 238.93333333333334 L 409.6 392.53333333333336 L 409.6 392.53333333333336 L 102.4 392.53333333333336 L 102.4 392.53333333333336 L 119.46666666666667 238.93333333333334 L 119.46666666666667 238.93333333333334 L 51.2 187.73333333333332 L 51.2 187.73333333333332 Z M 221.86666666666667 204.8 L 221.86666666666667 273.06666666666666 L 221.86666666666667 204.8 L 221.86666666666667 273.06666666666666 L 290.1333333333333 273.06666666666666 L 290.1333333333333 273.06666666666666 L 290.1333333333333 204.8 L 290.1333333333333 204.8 Q 290.1333333333333 189.86666666666667 280.53333333333336 180.26666666666668 Q 270.93333333333334 170.66666666666666 256 170.66666666666666 Q 241.06666666666666 170.66666666666666 231.46666666666667 180.26666666666668 Q 221.86666666666667 189.86666666666667 221.86666666666667 204.8 L 221.86666666666667 204.8 Z M 34.13333333333333 512 L 34.13333333333333 477.8666666666667 L 34.13333333333333 512 L 34.13333333333333 477.8666666666667 L 85.33333333333333 426.6666666666667 L 85.33333333333333 426.6666666666667 L 426.6666666666667 426.6666666666667 L 426.6666666666667 426.6666666666667 L 477.8666666666667 477.8666666666667 L 477.8666666666667 477.8666666666667 L 477.8666666666667 512 L 477.8666666666667 512 L 34.13333333333333 512 L 34.13333333333333 512 Z" />
</svg>