<svg xmlns="http://www.w3.org/2000/svg" viewBox="0 0 448 448">
    <path d="M 32 32 L 32 416 L 416 416 L 416 32 L 32 32 L 32 32 Z M 0 0 L 32 0 L 416 0 L 448 0 L 448 32 L 448 416 L 448 448 L 416 448 L 32 448 L 0 448 L 0 416 L 0 32 L 0 0 L 0 0 Z M 352 336 L 352 368 L 96 368 L 96 336 L 352 336 L 352 336 Z M 144 73 L 155 85 L 219 149 L 197 171 L 160 135 L 160 272 L 160 288 L 128 288 L 128 272 L 128 135 L 91 171 L 69 149 L 133 85 L 144 73 L 144 73 Z M 304 73 L 315 85 L 379 149 L 357 171 L 320 135 L 320 272 L 320 288 L 288 288 L 288 272 L 288 135 L 251 171 L 229 149 L 293 85 L 304 73 L 304 73 Z"/>
</svg>
