<svg xmlns="http://www.w3.org/2000/svg" viewBox="0 0 512 512">
  <path d="M 56.76521739130435 33.391304347826086 Q 77.91304347826087 35.61739130434783 80.13913043478261 56.76521739130435 Q 77.91304347826087 77.91304347826087 56.76521739130435 80.13913043478261 Q 35.61739130434783 77.91304347826087 33.391304347826086 56.76521739130435 Q 35.61739130434783 35.61739130434783 56.76521739130435 33.391304347826086 L 56.76521739130435 33.391304347826086 Z M 6.678260869565217 56.76521739130435 Q 7.791304347826087 84.59130434782608 31.16521739130435 100.17391304347827 Q 56.76521739130435 113.5304347826087 81.25217391304348 100.17391304347827 Q 105.73913043478261 84.59130434782608 106.85217391304347 56.76521739130435 Q 105.73913043478261 27.82608695652174 81.25217391304348 13.356521739130434 Q 56.76521739130435 0 31.16521739130435 13.356521739130434 Q 7.791304347826087 27.82608695652174 6.678260869565217 56.76521739130435 L 6.678260869565217 56.76521739130435 Z M 56.76521739130435 166.95652173913044 Q 77.91304347826087 168.0695652173913 80.13913043478261 189.2173913043478 Q 77.91304347826087 210.36521739130436 56.76521739130435 212.59130434782608 Q 35.61739130434783 210.36521739130436 33.391304347826086 189.2173913043478 Q 35.61739130434783 168.0695652173913 56.76521739130435 166.95652173913044 L 56.76521739130435 166.95652173913044 Z M 6.678260869565217 189.2173913043478 Q 7.791304347826087 218.15652173913043 31.16521739130435 232.62608695652173 Q 56.76521739130435 245.98260869565217 81.25217391304348 232.62608695652173 Q 105.73913043478261 218.15652173913043 106.85217391304347 189.2173913043478 Q 105.73913043478261 161.3913043478261 81.25217391304348 146.9217391304348 Q 56.76521739130435 132.45217391304348 31.16521739130435 146.9217391304348 Q 7.791304347826087 161.3913043478261 6.678260869565217 189.2173913043478 L 6.678260869565217 189.2173913043478 Z M 80.13913043478261 322.7826086956522 Q 77.91304347826087 343.9304347826087 56.76521739130435 346.1565217391304 Q 35.61739130434783 343.9304347826087 33.391304347826086 322.7826086956522 Q 35.61739130434783 301.6347826086957 56.76521739130435 299.4086956521739 Q 77.91304347826087 301.6347826086957 80.13913043478261 322.7826086956522 L 80.13913043478261 322.7826086956522 Z M 56.76521739130435 272.69565217391306 Q 27.82608695652174 273.8086956521739 13.356521739130434 297.18260869565216 Q 0 322.7826086956522 13.356521739130434 347.2695652173913 Q 27.82608695652174 371.75652173913045 56.76521739130435 372.8695652173913 Q 84.59130434782608 371.75652173913045 100.17391304347827 347.2695652173913 Q 113.5304347826087 322.7826086956522 100.17391304347827 297.18260869565216 Q 84.59130434782608 273.8086956521739 56.76521739130435 272.69565217391306 L 56.76521739130435 272.69565217391306 Z M 56.76521739130435 431.8608695652174 Q 77.91304347826087 434.0869565217391 80.13913043478261 455.23478260869564 Q 77.91304347826087 476.38260869565215 56.76521739130435 478.60869565217394 Q 35.61739130434783 476.38260869565215 33.391304347826086 455.23478260869564 Q 35.61739130434783 434.0869565217391 56.76521739130435 431.8608695652174 L 56.76521739130435 431.8608695652174 Z M 6.678260869565217 455.23478260869564 Q 7.791304347826087 484.17391304347825 31.16521739130435 498.6434782608696 Q 56.76521739130435 512 81.25217391304348 498.6434782608696 Q 105.73913043478261 484.17391304347825 106.85217391304347 455.23478260869564 Q 105.73913043478261 427.4086956521739 81.25217391304348 411.82608695652175 Q 56.76521739130435 398.4695652173913 31.16521739130435 411.82608695652175 Q 7.791304347826087 427.4086956521739 6.678260869565217 455.23478260869564 L 6.678260869565217 455.23478260869564 Z M 212.59130434782608 56.76521739130435 Q 210.36521739130436 77.91304347826087 189.2173913043478 80.13913043478261 Q 168.0695652173913 77.91304347826087 166.95652173913044 56.76521739130435 Q 168.0695652173913 35.61739130434783 189.2173913043478 33.391304347826086 Q 210.36521739130436 35.61739130434783 212.59130434782608 56.76521739130435 L 212.59130434782608 56.76521739130435 Z M 189.2173913043478 6.678260869565217 Q 161.3913043478261 7.791304347826087 146.9217391304348 31.16521739130435 Q 132.45217391304348 56.76521739130435 146.9217391304348 81.25217391304348 Q 161.3913043478261 105.73913043478261 189.2173913043478 106.85217391304347 Q 218.15652173913043 105.73913043478261 232.62608695652173 81.25217391304348 Q 245.98260869565217 56.76521739130435 232.62608695652173 31.16521739130435 Q 218.15652173913043 7.791304347826087 189.2173913043478 6.678260869565217 L 189.2173913043478 6.678260869565217 Z M 189.2173913043478 166.95652173913044 Q 210.36521739130436 168.0695652173913 212.59130434782608 189.2173913043478 Q 210.36521739130436 210.36521739130436 189.2173913043478 212.59130434782608 Q 168.0695652173913 210.36521739130436 166.95652173913044 189.2173913043478 Q 168.0695652173913 168.0695652173913 189.2173913043478 166.95652173913044 L 189.2173913043478 166.95652173913044 Z M 140.24347826086955 189.2173913043478 Q 140.24347826086955 218.15652173913043 164.73043478260868 232.62608695652173 Q 189.2173913043478 245.98260869565217 214.81739130434784 232.62608695652173 Q 238.19130434782608 218.15652173913043 239.30434782608697 189.2173913043478 Q 238.19130434782608 161.3913043478261 214.81739130434784 146.9217391304348 Q 189.2173913043478 132.45217391304348 164.73043478260868 146.9217391304348 Q 140.24347826086955 161.3913043478261 140.24347826086955 189.2173913043478 L 140.24347826086955 189.2173913043478 Z M 212.59130434782608 322.7826086956522 Q 210.36521739130436 343.9304347826087 189.2173913043478 346.1565217391304 Q 168.0695652173913 343.9304347826087 166.95652173913044 322.7826086956522 Q 168.0695652173913 301.6347826086957 189.2173913043478 299.4086956521739 Q 210.36521739130436 301.6347826086957 212.59130434782608 322.7826086956522 L 212.59130434782608 322.7826086956522 Z M 189.2173913043478 272.69565217391306 Q 161.3913043478261 273.8086956521739 146.9217391304348 297.18260869565216 Q 132.45217391304348 322.7826086956522 146.9217391304348 347.2695652173913 Q 161.3913043478261 371.75652173913045 189.2173913043478 372.8695652173913 Q 218.15652173913043 371.75652173913045 232.62608695652173 347.2695652173913 Q 245.98260869565217 322.7826086956522 232.62608695652173 297.18260869565216 Q 218.15652173913043 273.8086956521739 189.2173913043478 272.69565217391306 L 189.2173913043478 272.69565217391306 Z M 189.2173913043478 432.97391304347826 Q 210.36521739130436 434.0869565217391 212.59130434782608 455.23478260869564 Q 210.36521739130436 476.38260869565215 189.2173913043478 478.60869565217394 Q 168.0695652173913 476.38260869565215 166.95652173913044 455.23478260869564 Q 168.0695652173913 434.0869565217391 189.2173913043478 432.97391304347826 L 189.2173913043478 432.97391304347826 Z M 140.24347826086955 455.23478260869564 Q 140.24347826086955 484.17391304347825 164.73043478260868 498.6434782608696 Q 189.2173913043478 512 214.81739130434784 498.6434782608696 Q 238.19130434782608 484.17391304347825 239.30434782608697 455.23478260869564 Q 238.19130434782608 427.4086956521739 214.81739130434784 412.9391304347826 Q 189.2173913043478 398.4695652173913 164.73043478260868 412.9391304347826 Q 140.24347826086955 427.4086956521739 140.24347826086955 455.23478260869564 L 140.24347826086955 455.23478260869564 Z M 346.1565217391304 56.76521739130435 Q 343.9304347826087 77.91304347826087 322.7826086956522 80.13913043478261 Q 301.6347826086957 77.91304347826087 299.4086956521739 56.76521739130435 Q 301.6347826086957 35.61739130434783 322.7826086956522 33.391304347826086 Q 343.9304347826087 35.61739130434783 346.1565217391304 56.76521739130435 L 346.1565217391304 56.76521739130435 Z M 322.7826086956522 6.678260869565217 Q 293.8434782608696 7.791304347826087 279.37391304347824 31.16521739130435 Q 266.0173913043478 56.76521739130435 279.37391304347824 81.25217391304348 Q 293.8434782608696 105.73913043478261 322.7826086956522 106.85217391304347 Q 350.60869565217394 105.73913043478261 365.0782608695652 81.25217391304348 Q 379.54782608695655 56.76521739130435 365.0782608695652 31.16521739130435 Q 350.60869565217394 7.791304347826087 322.7826086956522 6.678260869565217 L 322.7826086956522 6.678260869565217 Z M 322.7826086956522 166.95652173913044 Q 343.9304347826087 168.0695652173913 346.1565217391304 189.2173913043478 Q 343.9304347826087 210.36521739130436 322.7826086956522 212.59130434782608 Q 301.6347826086957 210.36521739130436 299.4086956521739 189.2173913043478 Q 301.6347826086957 168.0695652173913 322.7826086956522 166.95652173913044 L 322.7826086956522 166.95652173913044 Z M 272.69565217391306 189.2173913043478 Q 273.8086956521739 218.15652173913043 297.18260869565216 232.62608695652173 Q 322.7826086956522 245.98260869565217 347.2695652173913 232.62608695652173 Q 371.75652173913045 218.15652173913043 372.8695652173913 189.2173913043478 Q 371.75652173913045 161.3913043478261 347.2695652173913 146.9217391304348 Q 322.7826086956522 132.45217391304348 297.18260869565216 146.9217391304348 Q 273.8086956521739 161.3913043478261 272.69565217391306 189.2173913043478 L 272.69565217391306 189.2173913043478 Z M 346.1565217391304 322.7826086956522 Q 343.9304347826087 343.9304347826087 322.7826086956522 346.1565217391304 Q 301.6347826086957 343.9304347826087 299.4086956521739 322.7826086956522 Q 301.6347826086957 301.6347826086957 322.7826086956522 299.4086956521739 Q 343.9304347826087 301.6347826086957 346.1565217391304 322.7826086956522 L 346.1565217391304 322.7826086956522 Z M 322.7826086956522 272.69565217391306 Q 293.8434782608696 273.8086956521739 279.37391304347824 297.18260869565216 Q 266.0173913043478 322.7826086956522 279.37391304347824 347.2695652173913 Q 293.8434782608696 371.75652173913045 322.7826086956522 372.8695652173913 Q 350.60869565217394 371.75652173913045 365.0782608695652 347.2695652173913 Q 379.54782608695655 322.7826086956522 365.0782608695652 297.18260869565216 Q 350.60869565217394 273.8086956521739 322.7826086956522 272.69565217391306 L 322.7826086956522 272.69565217391306 Z M 322.7826086956522 432.97391304347826 Q 343.9304347826087 434.0869565217391 346.1565217391304 455.23478260869564 Q 343.9304347826087 476.38260869565215 322.7826086956522 478.60869565217394 Q 301.6347826086957 476.38260869565215 299.4086956521739 455.23478260869564 Q 301.6347826086957 434.0869565217391 322.7826086956522 432.97391304347826 L 322.7826086956522 432.97391304347826 Z M 272.69565217391306 455.23478260869564 Q 273.8086956521739 484.17391304347825 297.18260869565216 498.6434782608696 Q 322.7826086956522 512 347.2695652173913 498.6434782608696 Q 371.75652173913045 484.17391304347825 372.8695652173913 455.23478260869564 Q 371.75652173913045 427.4086956521739 347.2695652173913 412.9391304347826 Q 322.7826086956522 398.4695652173913 297.18260869565216 412.9391304347826 Q 273.8086956521739 427.4086956521739 272.69565217391306 455.23478260869564 L 272.69565217391306 455.23478260869564 Z M 478.60869565217394 56.76521739130435 Q 476.38260869565215 77.91304347826087 455.23478260869564 80.13913043478261 Q 434.0869565217391 77.91304347826087 431.8608695652174 56.76521739130435 Q 434.0869565217391 35.61739130434783 455.23478260869564 33.391304347826086 Q 476.38260869565215 35.61739130434783 478.60869565217394 56.76521739130435 L 478.60869565217394 56.76521739130435 Z M 455.23478260869564 6.678260869565217 Q 427.4086956521739 7.791304347826087 411.82608695652175 31.16521739130435 Q 398.4695652173913 56.76521739130435 411.82608695652175 81.25217391304348 Q 427.4086956521739 105.73913043478261 455.23478260869564 106.85217391304347 Q 484.17391304347825 105.73913043478261 498.6434782608696 81.25217391304348 Q 512 56.76521739130435 498.6434782608696 31.16521739130435 Q 484.17391304347825 7.791304347826087 455.23478260869564 6.678260869565217 L 455.23478260869564 6.678260869565217 Z M 455.23478260869564 166.95652173913044 Q 476.38260869565215 168.0695652173913 478.60869565217394 189.2173913043478 Q 476.38260869565215 210.36521739130436 455.23478260869564 212.59130434782608 Q 434.0869565217391 210.36521739130436 431.8608695652174 189.2173913043478 Q 434.0869565217391 168.0695652173913 455.23478260869564 166.95652173913044 L 455.23478260869564 166.95652173913044 Z M 405.1478260869565 189.2173913043478 Q 406.2608695652174 218.15652173913043 430.74782608695654 232.62608695652173 Q 455.23478260869564 245.98260869565217 480.83478260869566 232.62608695652173 Q 504.2086956521739 218.15652173913043 505.32173913043476 189.2173913043478 Q 504.2086956521739 161.3913043478261 480.83478260869566 146.9217391304348 Q 455.23478260869564 132.45217391304348 430.74782608695654 146.9217391304348 Q 406.2608695652174 161.3913043478261 405.1478260869565 189.2173913043478 L 405.1478260869565 189.2173913043478 Z M 478.60869565217394 322.7826086956522 Q 476.38260869565215 343.9304347826087 455.23478260869564 346.1565217391304 Q 434.0869565217391 343.9304347826087 431.8608695652174 322.7826086956522 Q 434.0869565217391 301.6347826086957 455.23478260869564 299.4086956521739 Q 476.38260869565215 301.6347826086957 478.60869565217394 322.7826086956522 L 478.60869565217394 322.7826086956522 Z M 455.23478260869564 272.69565217391306 Q 427.4086956521739 273.8086956521739 411.82608695652175 297.18260869565216 Q 398.4695652173913 322.7826086956522 411.82608695652175 347.2695652173913 Q 427.4086956521739 371.75652173913045 455.23478260869564 372.8695652173913 Q 484.17391304347825 371.75652173913045 498.6434782608696 347.2695652173913 Q 512 322.7826086956522 498.6434782608696 297.18260869565216 Q 484.17391304347825 273.8086956521739 455.23478260869564 272.69565217391306 L 455.23478260869564 272.69565217391306 Z M 455.23478260869564 431.8608695652174 Q 476.38260869565215 434.0869565217391 478.60869565217394 455.23478260869564 Q 476.38260869565215 476.38260869565215 455.23478260869564 478.60869565217394 Q 434.0869565217391 476.38260869565215 431.8608695652174 455.23478260869564 Q 434.0869565217391 434.0869565217391 455.23478260869564 431.8608695652174 L 455.23478260869564 431.8608695652174 Z M 405.1478260869565 455.23478260869564 Q 406.2608695652174 484.17391304347825 430.74782608695654 498.6434782608696 Q 455.23478260869564 512 480.83478260869566 498.6434782608696 Q 504.2086956521739 484.17391304347825 505.32173913043476 455.23478260869564 Q 504.2086956521739 427.4086956521739 480.83478260869566 411.82608695652175 Q 455.23478260869564 398.4695652173913 430.74782608695654 411.82608695652175 Q 406.2608695652174 427.4086956521739 405.1478260869565 455.23478260869564 L 405.1478260869565 455.23478260869564 Z" />
</svg>