<svg xmlns="http://www.w3.org/2000/svg" viewBox="0 0 512 512">
  <path d="M 279 23.5 L 256 1.5 L 279 23.5 L 256 1.5 L 233 23.5 L 233 23.5 L 137 119.5 L 137 119.5 L 115 142.5 L 115 142.5 L 160 187.5 L 160 187.5 L 183 165.5 L 183 165.5 L 224 123.5 L 224 123.5 L 224 318.5 L 224 318.5 L 224 350.5 L 224 350.5 L 288 350.5 L 288 350.5 L 288 318.5 L 288 318.5 L 288 123.5 L 288 123.5 L 329 165.5 L 329 165.5 L 352 187.5 L 352 187.5 L 397 142.5 L 397 142.5 L 375 119.5 L 375 119.5 L 279 23.5 L 279 23.5 Z M 32 30.5 L 0 30.5 L 32 30.5 L 0 30.5 L 0 62.5 L 0 62.5 L 0 478.5 L 0 478.5 L 0 510.5 L 0 510.5 L 32 510.5 L 512 510.5 L 512 478.5 L 512 478.5 L 512 62.5 L 512 62.5 L 512 30.5 L 512 30.5 L 480 30.5 L 416 30.5 L 416 94.5 L 416 94.5 L 448 94.5 L 448 94.5 L 448 446.5 L 448 446.5 L 64 446.5 L 64 446.5 L 64 94.5 L 64 94.5 L 96 94.5 L 96 94.5 L 96 30.5 L 96 30.5 L 32 30.5 L 32 30.5 Z" />
</svg>