<svg xmlns="http://www.w3.org/2000/svg" viewBox="0 0 512 512">
  <path d="M 480 256 Q 479 195 450 144 L 450 144 L 450 144 Q 420 93 368 62 Q 315 32 256 32 Q 197 32 144 62 Q 92 93 62 144 Q 33 195 32 256 Q 33 317 62 368 Q 92 419 144 450 Q 197 480 256 480 Q 315 480 368 450 Q 420 419 450 368 Q 479 317 480 256 L 480 256 Z M 0 256 Q 1 186 34 128 L 34 128 L 34 128 Q 68 70 128 34 Q 189 0 256 0 Q 323 0 384 34 Q 444 70 478 128 Q 511 186 512 256 Q 511 326 478 384 Q 444 442 384 478 Q 323 512 256 512 Q 189 512 128 478 Q 68 442 34 384 Q 1 326 0 256 L 0 256 Z M 256 400 Q 296 399 326 378 L 326 378 L 326 378 Q 357 356 372 320 L 140 320 L 140 320 Q 155 356 186 378 Q 216 399 256 400 L 256 400 Z M 100 288 L 132 288 L 100 288 L 412 288 Q 410 305 406 320 Q 390 370 350 400 Q 310 431 256 432 Q 202 431 162 400 Q 122 370 106 320 Q 102 305 100 288 L 100 288 Z M 157 189 Q 147 200 144 214 L 113 206 L 113 206 Q 117 186 133 168 Q 148 148 176 146 Q 204 148 220 168 Q 235 186 240 206 L 209 214 L 209 214 Q 205 200 196 189 Q 186 178 176 178 Q 166 178 157 189 L 157 189 Z M 304 214 L 273 206 L 304 214 L 273 206 Q 277 186 293 168 Q 308 148 336 146 Q 364 148 380 168 Q 395 186 400 206 L 369 214 L 369 214 Q 365 200 356 189 Q 346 178 336 178 Q 326 178 317 189 Q 307 200 304 214 L 304 214 Z" />
</svg>