<svg xmlns="http://www.w3.org/2000/svg" viewBox="0 0 512 512">
  <path d="M 0 298.66666 L 0 213.33333 L 0 298.66666 L 0 213.33333 L 85.333336 213.33333 L 85.333336 213.33333 L 85.333336 298.66666 L 85.333336 298.66666 L 0 298.66666 L 0 298.66666 Z M 213.33333 298.66666 L 213.33333 213.33333 L 213.33333 298.66666 L 213.33333 213.33333 L 298.66666 213.33333 L 298.66666 213.33333 L 298.66666 298.66666 L 298.66666 298.66666 L 213.33333 298.66666 L 213.33333 298.66666 Z M 426.66666 213.33333 L 512 213.33333 L 426.66666 213.33333 L 512 213.33333 L 512 298.66666 L 512 298.66666 L 426.66666 298.66666 L 426.66666 298.66666 L 426.66666 213.33333 L 426.66666 213.33333 Z" />
</svg>