<svg xmlns="http://www.w3.org/2000/svg" viewBox="0 0 512 512">
  <path d="M 100.47095761381476 88.81632653061224 L 267.6546310832025 88.81632653061224 L 100.47095761381476 88.81632653061224 L 267.6546310832025 88.81632653061224 L 267.6546310832025 153.1177394034537 L 267.6546310832025 153.1177394034537 L 108.50863422291994 153.1177394034537 L 108.50863422291994 153.1177394034537 L 62.69387755102041 107.30298273155417 L 62.69387755102041 107.30298273155417 L 57.06750392464678 101.67660910518053 L 57.06750392464678 101.67660910518053 L 49.0298273155416 101.67660910518053 L 0 101.67660910518053 L 4.822605965463108 124.98587127158555 L 4.822605965463108 124.98587127158555 L 24.113029827315543 221.43799058084772 L 24.113029827315543 221.43799058084772 L 25.72056514913658 231.08320251177395 L 25.72056514913658 231.08320251177395 L 34.562009419152275 235.10204081632654 L 34.562009419152275 235.10204081632654 L 147.0894819466248 284.93563579277867 L 147.0894819466248 284.93563579277867 L 228.27001569858712 366.11616954474096 L 228.27001569858712 366.11616954474096 L 233.89638932496075 371.7425431711146 L 233.89638932496075 371.7425431711146 L 241.93406593406593 371.7425431711146 L 460.55886970172685 371.7425431711146 L 460.55886970172685 352.4521193092622 L 460.55886970172685 352.4521193092622 L 460.55886970172685 275.29042386185245 L 460.55886970172685 275.29042386185245 Q 458.9513343799058 223.04552590266877 424.3893249607535 189.287284144427 Q 390.6310832025118 154.72527472527472 338.3861852433281 153.1177394034537 L 306.2354788069074 153.1177394034537 L 306.2354788069074 153.1177394034537 L 306.2354788069074 88.81632653061224 L 306.2354788069074 88.81632653061224 L 460.55886970172685 88.81632653061224 L 460.55886970172685 88.81632653061224 L 460.55886970172685 50.23547880690738 L 460.55886970172685 50.23547880690738 L 100.47095761381476 50.23547880690738 L 100.47095761381476 50.23547880690738 L 100.47095761381476 88.81632653061224 L 100.47095761381476 88.81632653061224 Z M 100.47095761381476 191.69858712715856 L 267.6546310832025 191.69858712715856 L 100.47095761381476 191.69858712715856 L 267.6546310832025 191.69858712715856 L 267.6546310832025 333.1616954474097 L 267.6546310832025 333.1616954474097 L 249.9717425431711 333.1616954474097 L 249.9717425431711 333.1616954474097 L 172.00627943485085 255.19623233908948 L 172.00627943485085 255.19623233908948 Q 169.5949764521193 252.78492935635794 166.37990580847725 251.1773940345369 L 59.478806907378335 203.75510204081633 L 59.478806907378335 203.75510204081633 L 48.22605965463109 147.49136577708006 L 48.22605965463109 147.49136577708006 L 86.80690737833595 186.07221350078493 L 86.80690737833595 186.07221350078493 Q 92.43328100470957 191.69858712715856 100.47095761381476 191.69858712715856 L 100.47095761381476 191.69858712715856 Z M 421.97802197802196 333.1616954474097 L 306.2354788069074 333.1616954474097 L 421.97802197802196 333.1616954474097 L 306.2354788069074 333.1616954474097 L 306.2354788069074 191.69858712715856 L 306.2354788069074 191.69858712715856 L 338.3861852433281 191.69858712715856 L 338.3861852433281 191.69858712715856 Q 373.7519623233909 192.50235478806908 397.8649921507064 215.8116169544741 Q 421.17425431711143 239.92464678178965 421.97802197802196 275.29042386185245 L 421.97802197802196 333.1616954474097 L 421.97802197802196 333.1616954474097 Z M 512 442.4740973312402 L 512 397.4631083202512 L 512 442.4740973312402 L 512 397.4631083202512 L 473.4191522762951 397.4631083202512 L 473.4191522762951 397.4631083202512 L 473.4191522762951 423.18367346938777 L 473.4191522762951 423.18367346938777 L 177.6326530612245 423.18367346938777 L 177.6326530612245 423.18367346938777 L 177.6326530612245 461.7645211930926 L 177.6326530612245 461.7645211930926 L 492.70957613814755 461.7645211930926 L 512 461.7645211930926 L 512 442.4740973312402 L 512 442.4740973312402 Z" />
</svg>