<svg xmlns="http://www.w3.org/2000/svg" viewBox="0 0 512 512">
  <path d="M 96 45 Q 88 56 88 70 L 88 72 L 88 72 Q 88 89 100 100 Q 111 112 128 112 Q 145 112 156 100 Q 168 89 168 72 L 168 70 L 168 70 Q 168 56 160 45 L 128 0 L 128 0 L 96 45 L 96 45 Z M 152 168 L 152 144 L 152 168 L 152 144 L 104 144 L 104 144 L 104 168 L 104 168 L 104 224 L 104 224 L 80 224 L 32 224 L 32 272 L 32 272 L 32 464 L 32 464 L 32 512 L 32 512 L 80 512 L 480 512 L 480 464 L 480 464 L 480 272 L 480 272 L 480 224 L 480 224 L 432 224 L 408 224 L 408 168 L 408 168 L 408 144 L 408 144 L 360 144 L 360 144 L 360 168 L 360 168 L 360 224 L 360 224 L 280 224 L 280 224 L 280 168 L 280 168 L 280 144 L 280 144 L 232 144 L 232 144 L 232 168 L 232 168 L 232 224 L 232 224 L 152 224 L 152 224 L 152 168 L 152 168 Z M 80 340 L 80 272 L 80 340 L 80 272 L 432 272 L 432 272 L 432 340 L 432 340 L 394 322 L 394 322 L 384 317 L 384 317 L 373 323 L 373 323 L 320 349 L 320 349 L 267 323 L 267 323 L 256 317 L 256 317 L 245 323 L 245 323 L 192 349 L 192 349 L 139 323 L 139 323 L 128 317 L 128 317 L 118 322 L 118 322 L 80 340 L 80 340 Z M 80 394 L 128 371 L 80 394 L 128 371 L 181 398 L 181 398 L 192 403 L 192 403 L 203 398 L 203 398 L 256 371 L 256 371 L 309 397 L 309 397 L 320 403 L 320 403 L 331 397 L 331 397 L 384 371 L 384 371 L 432 393 L 432 393 L 432 464 L 432 464 L 80 464 L 80 464 L 80 393 L 80 394 Z M 256 0 L 224 45 L 256 0 L 224 45 Q 216 56 216 70 L 216 72 L 216 72 Q 216 89 228 100 Q 239 112 256 112 Q 273 112 284 100 Q 296 89 296 72 L 296 70 L 296 70 Q 296 56 288 45 L 256 0 L 256 0 Z M 352 45 Q 344 56 344 70 L 344 72 L 344 72 Q 344 89 356 100 Q 367 112 384 112 Q 401 112 412 100 Q 424 89 424 72 L 424 70 L 424 70 Q 424 56 416 45 L 384 0 L 384 0 L 352 45 L 352 45 Z" />
</svg>