<svg xmlns="http://www.w3.org/2000/svg" viewBox="0 0 512 512">
  <path d="M 281.6 89.6 L 281.6 166.4 L 281.6 89.6 L 281.6 166.4 L 384 166.4 L 384 166.4 L 384 89.6 L 384 89.6 L 281.6 89.6 L 281.6 89.6 Z M 256 89.6 L 153.6 89.6 L 256 89.6 L 153.6 89.6 L 153.6 166.4 L 153.6 166.4 L 256 166.4 L 256 166.4 L 256 89.6 L 256 89.6 Z M 128 89.6 L 25.6 89.6 L 128 89.6 L 25.6 89.6 L 25.6 166.4 L 25.6 166.4 L 128 166.4 L 128 166.4 L 128 89.6 L 128 89.6 Z M 25.6 192 L 25.6 294.4 L 25.6 192 L 25.6 294.4 L 128 294.4 L 128 294.4 L 128 192 L 128 192 L 25.6 192 L 25.6 192 Z M 25.6 320 L 25.6 396.8 L 25.6 320 L 25.6 396.8 L 128 396.8 L 128 396.8 L 128 320 L 128 320 L 25.6 320 L 25.6 320 Z M 153.6 396.8 L 256 396.8 L 153.6 396.8 L 256 396.8 L 256 320 L 256 320 L 153.6 320 L 153.6 320 L 153.6 396.8 L 153.6 396.8 Z M 281.6 396.8 L 307.2 396.8 L 281.6 396.8 L 307.2 396.8 L 307.2 422.4 L 307.2 422.4 L 25.6 422.4 L 0 422.4 L 0 396.8 L 0 396.8 L 0 89.6 L 0 89.6 L 0 64 L 0 64 L 25.6 64 L 409.6 64 L 409.6 89.6 L 409.6 89.6 L 409.6 167.2 L 409.6 167.2 Q 380 172 360 192 L 281.6 192 L 281.6 192 L 281.6 294.4 L 281.6 294.4 L 307.2 294.4 L 307.2 294.4 L 307.2 320 L 307.2 320 L 281.6 320 L 281.6 320 L 281.6 396.8 L 281.6 396.8 Z M 153.6 294.4 L 256 294.4 L 153.6 294.4 L 256 294.4 L 256 192 L 256 192 L 153.6 192 L 153.6 192 L 153.6 294.4 L 153.6 294.4 Z M 422.4 217.6 Q 406.4 218.4 395.2 228.8 L 395.2 228.8 L 395.2 228.8 Q 384.8 240 384 256 L 384 294.4 L 384 294.4 L 460.8 294.4 L 460.8 294.4 L 460.8 256 L 460.8 256 Q 460 240 449.6 228.8 Q 438.4 218.4 422.4 217.6 L 422.4 217.6 Z M 358.4 256 Q 359.2 228.8 376.8 210.4 L 376.8 210.4 L 376.8 210.4 Q 395.2 192.8 422.4 192 Q 449.6 192.8 468 210.4 Q 485.6 228.8 486.4 256 L 486.4 294.4 L 486.4 294.4 L 512 294.4 L 512 294.4 L 512 320 L 512 320 L 512 422.4 L 512 422.4 L 512 448 L 512 448 L 486.4 448 L 332.8 448 L 332.8 422.4 L 332.8 422.4 L 332.8 320 L 332.8 320 L 332.8 294.4 L 332.8 294.4 L 358.4 294.4 L 358.4 294.4 L 358.4 256 L 358.4 256 Z M 358.4 320 L 358.4 422.4 L 358.4 320 L 358.4 422.4 L 486.4 422.4 L 486.4 422.4 L 486.4 320 L 486.4 320 L 358.4 320 L 358.4 320 Z" />
</svg>