<svg xmlns="http://www.w3.org/2000/svg" viewBox="0 0 512 512">
  <path d="M 512 0 L 0 0 L 512 0 L 0 0 L 0 512 L 0 512 L 512 512 L 512 512 L 512 0 L 512 0 Z M 155.42857 173.71428 Q 156.57143 146.28572 173.71428 128 L 173.71428 128 L 173.71428 128 Q 192 110.85714 219.42857 109.71429 L 284.57144 109.71429 L 284.57144 109.71429 Q 315.42856 110.85714 336 131.42857 Q 355.42856 150.85715 356.57144 181.71428 Q 355.42856 222.85715 320 244.57143 L 283.42856 265.14285 L 283.42856 265.14285 L 283.42856 274.2857 L 283.42856 274.2857 L 283.42856 301.7143 L 283.42856 301.7143 L 228.57143 301.7143 L 228.57143 301.7143 L 228.57143 274.2857 L 228.57143 274.2857 L 228.57143 250.28572 L 228.57143 250.28572 L 228.57143 234.28572 L 228.57143 234.28572 L 242.28572 226.28572 L 242.28572 226.28572 L 292.57144 196.57143 L 292.57144 196.57143 Q 301.7143 192 301.7143 181.71428 Q 300.57144 165.71428 284.57144 164.57143 L 219.42857 164.57143 L 219.42857 164.57143 Q 211.42857 165.71428 210.28572 173.71428 L 210.28572 181.71428 L 210.28572 181.71428 L 155.42857 181.71428 L 155.42857 181.71428 L 155.42857 173.71428 L 155.42857 173.71428 Z M 228.57143 347.42856 L 283.42856 347.42856 L 228.57143 347.42856 L 283.42856 347.42856 L 283.42856 402.2857 L 283.42856 402.2857 L 228.57143 402.2857 L 228.57143 402.2857 L 228.57143 347.42856 L 228.57143 347.42856 Z" />
</svg>