<svg xmlns="http://www.w3.org/2000/svg" viewBox="0 0 512 512">
  <path d="M 512 0 L 0 0 L 512 0 L 0 0 L 0 512 L 0 512 L 512 512 L 512 512 L 512 0 L 512 0 Z M 329.14285 402.2857 L 329.14285 109.71429 L 329.14285 402.2857 L 329.14285 109.71429 L 402.2857 109.71429 L 402.2857 109.71429 L 402.2857 402.2857 L 402.2857 402.2857 L 329.14285 402.2857 L 329.14285 402.2857 Z M 292.57144 256 L 219.42857 256 L 292.57144 256 L 219.42857 256 L 219.42857 109.71429 L 219.42857 109.71429 L 292.57144 109.71429 L 292.57144 109.71429 L 292.57144 256 L 292.57144 256 Z M 109.71429 329.14285 L 109.71429 109.71429 L 109.71429 329.14285 L 109.71429 109.71429 L 182.85715 109.71429 L 182.85715 109.71429 L 182.85715 329.14285 L 182.85715 329.14285 L 109.71429 329.14285 L 109.71429 329.14285 Z" />
</svg>