<svg xmlns="http://www.w3.org/2000/svg" viewBox="0 0 512 512">
  <path d="M 142.71777 99.01045 Q 143.60976 116.850174 155.20558 129.33798 L 155.20558 129.33798 L 155.20558 129.33798 Q 167.69337 140.93379 185.5331 141.82579 L 256.892 141.82579 L 271.16376 141.82579 L 271.16376 170.36934 L 271.16376 170.36934 L 256.892 170.36934 L 185.5331 170.36934 Q 155.20558 169.47736 134.6899 149.85365 Q 115.0662 129.33798 114.17422 99.01045 Q 115.0662 68.68293 134.6899 48.167248 Q 155.20558 28.543554 185.5331 27.651567 L 292.57144 27.651567 L 292.57144 27.651567 Q 338.0627 28.543554 368.39026 58.87108 Q 398.71777 89.19861 399.60974 134.6899 Q 398.71777 180.18118 368.39026 210.50871 Q 338.0627 240.83624 292.57144 241.72823 L 242.62021 241.72823 L 242.62021 241.72823 L 242.62021 263.1359 L 242.62021 263.1359 L 242.62021 277.40765 L 242.62021 277.40765 L 214.07666 277.40765 L 214.07666 277.40765 L 214.07666 263.1359 L 214.07666 263.1359 L 214.07666 227.45645 L 214.07666 227.45645 L 214.07666 213.18466 L 214.07666 213.18466 L 228.34843 213.18466 L 292.57144 213.18466 Q 325.57492 212.29268 347.87457 189.99303 Q 370.17422 167.69337 371.0662 134.6899 Q 370.17422 101.68641 347.87457 79.38676 Q 325.57492 57.08711 292.57144 56.19512 L 185.5331 56.19512 L 185.5331 56.19512 Q 167.69337 57.08711 155.20558 68.68293 Q 143.60976 81.17073 142.71777 99.01045 L 142.71777 99.01045 Z M 152.52962 298.81534 L 156.98955 298.81534 L 152.52962 298.81534 L 356.79443 298.81534 L 356.79443 313.0871 L 356.79443 313.0871 L 356.79443 370.17422 L 356.79443 370.17422 L 356.79443 370.17422 L 356.79443 370.17422 L 449.56097 314.8711 L 449.56097 314.8711 L 461.1568 307.7352 L 461.1568 307.7352 L 469.18466 320.223 L 469.18466 320.223 L 504.8641 377.31012 L 504.8641 377.31012 L 512 388.9059 L 512 388.9059 L 500.40417 396.9338 L 500.40417 396.9338 L 364.8223 482.56445 L 364.8223 482.56445 L 361.25436 484.34842 L 361.25436 484.34842 L 356.79443 484.34842 L 0 484.34842 L 0 455.80487 L 0 455.80487 L 14.271777 455.80487 L 352.3345 455.80487 L 472.75262 379.98605 L 472.75262 379.98605 L 452.23694 346.98257 L 452.23694 346.98257 L 368.39026 396.9338 L 368.39026 396.9338 L 364.8223 398.71777 L 364.8223 398.71777 L 361.25436 398.71777 L 214.07666 398.71777 L 214.07666 370.17422 L 214.07666 370.17422 L 228.34843 370.17422 L 328.2509 370.17422 L 328.2509 327.3589 L 328.2509 327.3589 L 161.44948 327.3589 L 161.44948 327.3589 L 79.38676 381.77005 L 79.38676 381.77005 L 75.81882 384.44598 L 75.81882 384.44598 L 71.35889 384.44598 L 0 384.44598 L 0 355.90244 L 0 355.90244 L 14.271777 355.90244 L 66.89896 355.90244 L 148.96167 301.4913 L 148.96167 301.4913 L 152.52962 298.81534 L 152.52962 298.81534 Z" />
</svg>