<svg xmlns="http://www.w3.org/2000/svg" viewBox="0 0 512 512">
  <path d="M 331.2 302.4 L 320.8 294.4 L 331.2 302.4 L 320.8 294.4 L 307.2 294.4 L 38.4 294.4 L 38.4 217.6 L 38.4 217.6 L 307.2 217.6 L 320.8 217.6 L 331.2 209.6 L 331.2 209.6 L 331.2 209.6 L 331.2 209.6 L 331.2 208.8 L 331.2 208.8 Q 331.2 208.8 331.2 208.8 Q 332 208.8 332.8 208 Q 334.4 206.4 339.2 203.2 Q 348.8 196.8 366.4 188.8 Q 384.8 179.2 409.6 172.8 L 409.6 339.2 L 409.6 339.2 Q 384.8 332.8 366.4 324 Q 348.8 315.2 339.2 308.8 Q 334.4 305.6 332.8 304 Q 332 303.2 331.2 303.2 Q 331.2 303.2 331.2 303.2 L 331.2 302.4 L 331.2 302.4 L 331.2 302.4 L 331.2 302.4 Z M 460.8 345.6 Q 454.4 345.6 448 345.6 L 448 167.2 L 448 167.2 Q 454.4 166.4 460.8 166.4 L 473.6 166.4 L 473.6 166.4 L 473.6 345.6 L 473.6 345.6 L 460.8 345.6 L 460.8 345.6 Z M 473.6 128 L 460.8 128 L 473.6 128 L 460.8 128 Q 416 128.8 380.8 141.6 Q 346.4 153.6 327.2 165.6 Q 307.2 178.4 307.2 179.2 L 38.4 179.2 L 0 179.2 L 0 217.6 L 0 217.6 L 0 294.4 L 0 294.4 L 0 332.8 L 0 332.8 L 38.4 332.8 L 307.2 332.8 Q 307.2 333.6 327.2 346.4 Q 346.4 358.4 380.8 370.4 Q 416 383.2 460.8 384 L 473.6 384 L 512 384 L 512 345.6 L 512 345.6 L 512 166.4 L 512 166.4 L 512 128 L 512 128 L 473.6 128 L 473.6 128 Z M 198.4 236.8 L 179.2 236.8 L 198.4 236.8 L 179.2 236.8 L 179.2 275.2 L 179.2 275.2 L 198.4 275.2 L 256 275.2 L 256 236.8 L 256 236.8 L 236.8 236.8 L 198.4 236.8 Z" />
</svg>