<svg viewBox="0 0 384 512">
  <path
    d="M 102 64 Q 112 36 136 18 L 136 18 Q 160 1 192 0 Q 224 1 248 18 Q 272 36 283 64 L 384 64 L 384 512 L 0 512 L 0 64 L 102 64 L 102 64 Z M 224 96 Q 224 82 215 73 L 215 73 Q 206 64 192 64 Q 178 64 169 73 Q 160 82 160 96 Q 160 110 169 119 Q 178 128 192 128 Q 206 128 215 119 Q 224 110 224 96 L 224 96 Z M 199 208 L 176 185 L 165 197 L 112 249 L 91 229 L 80 217 L 57 240 L 69 251 L 101 283 L 112 295 L 123 283 L 187 219 L 199 208 L 199 208 Z M 208 256 L 192 256 L 192 288 L 208 288 L 304 288 L 320 288 L 320 256 L 304 256 L 208 256 L 208 256 Z M 160 352 L 160 384 L 176 384 L 304 384 L 320 384 L 320 352 L 304 352 L 176 352 L 160 352 L 160 352 Z M 96 392 Q 118 390 120 368 Q 118 346 96 344 Q 74 346 72 368 Q 74 390 96 392 L 96 392 Z"
  />
</svg>