<svg xmlns="http://www.w3.org/2000/svg" viewBox="0 0 512 512">
  <path d="M 58.666666666666664 65.77777777777777 L 39.111111111111114 56.888888888888886 L 58.666666666666664 65.77777777777777 L 39.111111111111114 56.888888888888886 L 21.333333333333332 96 L 21.333333333333332 96 L 40.888888888888886 104.88888888888889 L 40.888888888888886 104.88888888888889 L 424.8888888888889 284.44444444444446 L 424.8888888888889 284.44444444444446 L 42.666666666666664 284.44444444444446 L 0 284.44444444444446 L 0 327.1111111111111 L 0 327.1111111111111 L 0 412.44444444444446 L 0 412.44444444444446 L 0 455.1111111111111 L 0 455.1111111111111 L 42.666666666666664 455.1111111111111 L 512 455.1111111111111 L 512 412.44444444444446 L 512 412.44444444444446 L 512 391.1111111111111 L 512 391.1111111111111 L 512 369.77777777777777 L 512 369.77777777777777 L 512 327.1111111111111 L 512 327.1111111111111 L 512 291.55555555555554 L 512 291.55555555555554 L 512 284.44444444444446 L 512 284.44444444444446 L 512 278.22222222222223 L 512 278.22222222222223 L 499.55555555555554 272 L 499.55555555555554 272 L 58.666666666666664 65.77777777777777 L 58.666666666666664 65.77777777777777 Z M 469.3333333333333 327.1111111111111 L 469.3333333333333 369.77777777777777 L 469.3333333333333 327.1111111111111 L 469.3333333333333 369.77777777777777 L 469.3333333333333 391.1111111111111 L 469.3333333333333 391.1111111111111 L 469.3333333333333 412.44444444444446 L 469.3333333333333 412.44444444444446 L 42.666666666666664 412.44444444444446 L 42.666666666666664 412.44444444444446 L 42.666666666666664 327.1111111111111 L 42.666666666666664 327.1111111111111 L 469.3333333333333 327.1111111111111 L 469.3333333333333 327.1111111111111 Z M 135.11111111111111 348.44444444444446 L 135.11111111111111 391.1111111111111 L 135.11111111111111 348.44444444444446 L 135.11111111111111 391.1111111111111 L 177.77777777777777 391.1111111111111 L 177.77777777777777 391.1111111111111 L 177.77777777777777 348.44444444444446 L 177.77777777777777 348.44444444444446 L 135.11111111111111 348.44444444444446 L 135.11111111111111 348.44444444444446 Z M 106.66666666666667 348.44444444444446 L 64 348.44444444444446 L 106.66666666666667 348.44444444444446 L 64 348.44444444444446 L 64 391.1111111111111 L 64 391.1111111111111 L 106.66666666666667 391.1111111111111 L 106.66666666666667 391.1111111111111 L 106.66666666666667 348.44444444444446 L 106.66666666666667 348.44444444444446 Z" />
</svg>