<svg viewBox="0 0 256 480">
  <path
    d="M 96 0 L 128 0 L 160 0 L 176 0 L 176 32 L 170 32 Q 175 37 180 44 Q 197 63 210 90 Q 223 118 224 152 Q 223 176 214 192 L 224 192 L 224 224 L 208 224 L 196 224 L 206 320 L 174 320 L 164 224 L 92 224 L 83 320 L 50 320 L 60 224 L 48 224 L 32 224 L 32 192 L 42 192 Q 33 176 32 152 Q 33 118 46 90 Q 59 63 76 44 Q 81 38 86 32 L 80 32 L 80 0 L 96 0 L 96 0 Z M 172 192 Q 189 182 192 152 Q 191 123 179 100 L 147 131 L 136 143 L 113 120 L 125 109 L 162 72 Q 161 71 161 71 Q 158 67 156 64 Q 141 47 130 38 Q 129 37 128 36 Q 127 37 126 38 Q 115 47 100 64 Q 86 81 75 104 Q 64 126 64 152 Q 67 182 85 192 L 172 192 L 172 192 Z M 32 431 L 32 448 L 224 448 L 224 431 L 191 384 L 65 384 L 32 431 L 32 431 Z M 0 421 L 48 352 L 208 352 L 256 421 L 256 448 L 256 480 L 224 480 L 32 480 L 0 480 L 0 448 L 0 421 L 0 421 Z"
  />
</svg>