<svg xmlns="http://www.w3.org/2000/svg" viewBox="0 0 512 512">
  <path d="M 278.97437 340.51282 L 222.35898 439.79486 L 278.97437 340.51282 L 222.35898 439.79486 L 168.20512 439.79486 L 168.20512 439.79486 L 205.1282 311.79486 L 205.1282 311.79486 L 210.05128 295.3846 L 210.05128 295.3846 L 192 295.3846 L 124.71795 295.3846 L 120.61539 300.30768 L 120.61539 300.30768 L 85.333336 347.89743 L 85.333336 347.89743 L 56.615383 347.89743 L 56.615383 347.89743 L 78.76923 259.28204 L 78.76923 259.28204 L 79.589745 256 L 79.589745 256 L 78.76923 252.71794 L 78.76923 252.71794 L 56.615383 165.74359 L 56.615383 165.74359 L 22.97436 138.66667 L 22.97436 138.66667 L 27.076923 154.25641 L 27.076923 154.25641 L 52.51282 256 L 52.51282 256 L 27.076923 357.7436 L 27.076923 357.7436 L 22.97436 374.15384 L 22.97436 374.15384 L 39.384617 374.15384 L 98.46154 374.15384 L 102.5641 369.23077 L 102.5641 369.23077 L 137.84616 321.64102 L 137.84616 321.64102 L 174.76923 321.64102 L 174.76923 321.64102 L 138.66667 449.64102 L 138.66667 449.64102 L 133.74359 466.05127 L 133.74359 466.05127 L 150.97437 466.05127 L 237.1282 466.05127 L 241.23077 459.48718 L 241.23077 459.48718 L 299.48718 356.92307 L 299.48718 356.92307 L 278.97437 340.51282 L 278.97437 340.51282 Z M 138.66667 62.358974 L 150.97437 105.84615 L 138.66667 62.358974 L 150.97437 105.84615 L 186.25641 133.74359 L 186.25641 133.74359 L 168.20512 72.20513 L 168.20512 72.20513 L 222.35898 72.20513 L 222.35898 72.20513 L 301.1282 210.05128 L 301.1282 210.05128 L 304.41025 216.61539 L 304.41025 216.61539 L 312.6154 216.61539 L 402.05127 216.61539 Q 420.92307 216.61539 444.71796 230.5641 Q 455.3846 237.1282 461.1282 243.6923 Q 466.05127 251.07692 466.05127 256 Q 466.05127 268.30768 444.71796 282.2564 Q 420.92307 295.3846 402.05127 295.3846 L 390.56412 295.3846 L 390.56412 295.3846 L 420.92307 319.17947 L 420.92307 319.17947 Q 440.6154 315.07693 457.84616 304.41025 Q 470.97437 297.02563 481.64102 284.71796 Q 491.48718 272.41025 492.30768 256 Q 491.48718 239.58974 481.64102 227.28206 Q 471.79486 215.79488 457.84616 207.58974 Q 429.94873 191.17949 402.05127 190.35898 L 320 190.35898 L 320 190.35898 L 241.23077 52.51282 L 241.23077 52.51282 L 237.1282 45.94872 L 237.1282 45.94872 L 229.74359 45.94872 L 133.74359 45.94872 L 138.66667 62.358974 L 138.66667 62.358974 Z M 26.25641 60.71795 L 16.410257 52.51282 L 26.25641 60.71795 L 16.410257 52.51282 L 0 73.02564 L 0 73.02564 L 10.666667 81.23077 L 10.666667 81.23077 L 485.7436 451.28204 L 485.7436 451.28204 L 495.58975 459.48718 L 495.58975 459.48718 L 512 438.97437 L 512 438.97437 L 502.15384 430.76923 L 502.15384 430.76923 L 26.25641 60.71795 L 26.25641 60.71795 Z" />
</svg>