<svg xmlns="http://www.w3.org/2000/svg" viewBox="0 0 512 512">
  <path d="M 36.57143 36.57143 L 36.57143 475.42856 L 36.57143 36.57143 L 36.57143 475.42856 L 475.42856 475.42856 L 475.42856 475.42856 L 475.42856 36.57143 L 475.42856 36.57143 L 36.57143 36.57143 L 36.57143 36.57143 Z M 0 0 L 36.57143 0 L 0 0 L 512 0 L 512 36.57143 L 512 36.57143 L 512 475.42856 L 512 475.42856 L 512 512 L 512 512 L 475.42856 512 L 0 512 L 0 475.42856 L 0 475.42856 L 0 36.57143 L 0 36.57143 L 0 0 L 0 0 Z M 146.28572 109.71429 L 164.57143 109.71429 L 146.28572 109.71429 L 283.42856 109.71429 Q 318.85715 110.85714 341.7143 133.71428 Q 364.57144 156.57143 365.7143 192 Q 364.57144 226.28572 342.85715 249.14285 Q 381.7143 272 384 320 Q 382.85715 355.42856 360 378.2857 Q 337.14285 401.14285 301.7143 402.2857 L 164.57143 402.2857 L 146.28572 402.2857 L 146.28572 384 L 146.28572 384 L 146.28572 256 L 146.28572 256 L 146.28572 128 L 146.28572 128 L 146.28572 109.71429 L 146.28572 109.71429 Z M 329.14285 192 Q 329.14285 172.57143 315.42856 160 L 315.42856 160 L 315.42856 160 Q 302.85715 146.28572 283.42856 146.28572 L 182.85715 146.28572 L 182.85715 146.28572 L 182.85715 237.71428 L 182.85715 237.71428 L 283.42856 237.71428 L 283.42856 237.71428 Q 302.85715 237.71428 315.42856 224 Q 329.14285 211.42857 329.14285 192 L 329.14285 192 Z M 182.85715 365.7143 L 301.7143 365.7143 L 182.85715 365.7143 L 301.7143 365.7143 Q 321.14285 365.7143 333.7143 352 Q 347.42856 339.42856 347.42856 320 Q 347.42856 300.57144 333.7143 288 Q 321.14285 274.2857 301.7143 274.2857 L 283.42856 274.2857 L 182.85715 274.2857 L 182.85715 365.7143 L 182.85715 365.7143 Z" />
</svg>