<svg xmlns="http://www.w3.org/2000/svg" viewBox="0 0 512 512">
  <path d="M 512 28.444445 L 227.55556 28.444445 L 512 28.444445 L 227.55556 28.444445 L 227.55556 85.333336 L 227.55556 85.333336 L 284.44446 85.333336 L 284.44446 85.333336 L 284.44446 483.55554 L 284.44446 483.55554 L 512 483.55554 L 512 483.55554 L 512 369.77777 L 512 369.77777 L 412.44446 369.77777 L 398.22223 369.77777 L 398.22223 341.33334 L 398.22223 341.33334 L 412.44446 341.33334 L 512 341.33334 L 512 284.44446 L 512 284.44446 L 412.44446 284.44446 L 398.22223 284.44446 L 398.22223 256 L 398.22223 256 L 412.44446 256 L 512 256 L 512 28.444445 L 512 28.444445 Z M 362.66666 99.55556 L 405.33334 99.55556 L 362.66666 99.55556 L 405.33334 99.55556 L 405.33334 135.11111 L 405.33334 135.11111 L 440.8889 135.11111 L 440.8889 135.11111 L 440.8889 177.77777 L 440.8889 177.77777 L 405.33334 177.77777 L 405.33334 177.77777 L 405.33334 213.33333 L 405.33334 213.33333 L 362.66666 213.33333 L 362.66666 213.33333 L 362.66666 177.77777 L 362.66666 177.77777 L 327.1111 177.77777 L 327.1111 177.77777 L 327.1111 135.11111 L 327.1111 135.11111 L 362.66666 135.11111 L 362.66666 135.11111 L 362.66666 99.55556 L 362.66666 99.55556 Z M 0 113.77778 L 0 369.77777 L 0 113.77778 L 0 369.77777 L 128 369.77777 L 142.22223 369.77777 L 142.22223 398.22223 L 142.22223 398.22223 L 128 398.22223 L 0 398.22223 L 0 483.55554 L 0 483.55554 L 256 483.55554 L 256 483.55554 L 256 113.77778 L 256 113.77778 L 0 113.77778 L 0 113.77778 Z M 106.666664 184.88889 L 149.33333 184.88889 L 106.666664 184.88889 L 149.33333 184.88889 L 149.33333 220.44444 L 149.33333 220.44444 L 184.88889 220.44444 L 184.88889 220.44444 L 184.88889 263.1111 L 184.88889 263.1111 L 149.33333 263.1111 L 149.33333 263.1111 L 149.33333 298.66666 L 149.33333 298.66666 L 106.666664 298.66666 L 106.666664 298.66666 L 106.666664 263.1111 L 106.666664 263.1111 L 71.111115 263.1111 L 71.111115 263.1111 L 71.111115 220.44444 L 71.111115 220.44444 L 106.666664 220.44444 L 106.666664 220.44444 L 106.666664 184.88889 L 106.666664 184.88889 Z" />
</svg>