<svg xmlns="http://www.w3.org/2000/svg" viewBox="0 0 512 512">
  <path d="M 36.57143 36.57143 L 36.57143 475.42856 L 36.57143 36.57143 L 36.57143 475.42856 L 475.42856 475.42856 L 475.42856 475.42856 L 475.42856 36.57143 L 475.42856 36.57143 L 36.57143 36.57143 L 36.57143 36.57143 Z M 0 0 L 36.57143 0 L 0 0 L 512 0 L 512 36.57143 L 512 36.57143 L 512 475.42856 L 512 475.42856 L 512 512 L 512 512 L 475.42856 512 L 0 512 L 0 475.42856 L 0 475.42856 L 0 36.57143 L 0 36.57143 L 0 0 L 0 0 Z M 182.85715 365.7143 L 201.14285 365.7143 L 182.85715 365.7143 L 237.71428 365.7143 L 237.71428 256 L 237.71428 256 L 210.28572 256 L 192 256 L 192 219.42857 L 192 219.42857 L 210.28572 219.42857 L 274.2857 219.42857 L 274.2857 237.71428 L 274.2857 237.71428 L 274.2857 365.7143 L 274.2857 365.7143 L 310.85715 365.7143 L 329.14285 365.7143 L 329.14285 402.2857 L 329.14285 402.2857 L 310.85715 402.2857 L 182.85715 402.2857 L 182.85715 365.7143 L 182.85715 365.7143 Z M 283.42856 118.85714 L 283.42856 173.71428 L 283.42856 118.85714 L 283.42856 173.71428 L 228.57143 173.71428 L 228.57143 173.71428 L 228.57143 118.85714 L 228.57143 118.85714 L 283.42856 118.85714 L 283.42856 118.85714 Z" />
</svg>