<svg xmlns="http://www.w3.org/2000/svg" viewBox="0 0 512 512">
  <path d="M 157.04202 424.87396 L 139.83194 499.09244 L 157.04202 424.87396 L 139.83194 499.09244 L 189.31093 512 L 189.31093 512 L 204.36975 449.61343 L 204.36975 449.61343 Q 219.42857 454.9916 235.56302 458.21848 L 225.88235 499.09244 L 225.88235 499.09244 L 275.36136 512 L 275.36136 512 L 288.26892 462.521 L 288.26892 462.521 Q 335.59665 459.29413 375.39496 437.78152 Q 415.19327 416.26892 442.08405 379.69748 L 400.13446 349.57983 L 400.13446 349.57983 Q 363.56302 397.9832 301.17648 408.7395 L 367.86554 131.2269 L 367.86554 131.2269 Q 386.15128 144.13446 400.13446 163.4958 L 442.08405 132.30252 L 442.08405 132.30252 Q 416.26892 98.957985 380.7731 77.44538 L 395.83194 12.907563 L 395.83194 12.907563 L 346.35294 0 L 346.35294 0 L 332.36975 57.008404 L 332.36975 57.008404 Q 317.3109 52.705883 301.17648 50.554623 L 309.78152 12.907563 L 309.78152 12.907563 L 260.30252 0 L 260.30252 0 L 247.39496 51.630253 L 247.39496 51.630253 Q 171.0252 63.462185 121.54622 119.39496 Q 72.06723 176.40337 69.91597 256 Q 69.91597 308.70587 93.579834 352.80673 Q 117.2437 395.83194 157.04202 424.87396 L 157.04202 424.87396 Z M 217.27731 399.05884 L 288.26892 102.184875 L 217.27731 399.05884 L 288.26892 102.184875 Q 304.40335 103.260506 320.5378 107.56303 L 247.39496 408.7395 L 247.39496 408.7395 Q 231.2605 405.5126 217.27731 399.05884 L 217.27731 399.05884 Z M 234.4874 107.56303 L 171.0252 370.0168 L 234.4874 107.56303 L 171.0252 370.0168 Q 123.69748 324.84033 121.54622 256 Q 122.62185 202.21849 153.81512 161.34454 Q 185.0084 121.54622 234.4874 106.4874 L 234.4874 107.56303 Z" />
</svg>