<svg xmlns="http://www.w3.org/2000/svg" viewBox="0 0 512 512">
  <path d="M 259.2 332 L 230.4 409.6 L 259.2 332 L 230.4 409.6 L 76.8 453.6 L 76.8 453.6 L 147.2 383.2 L 147.2 383.2 Q 150.4 384 153.6 384 Q 164.8 384 172 376.8 Q 179.2 369.6 179.2 358.4 Q 179.2 347.2 172 340 Q 164.8 332.8 153.6 332.8 Q 142.4 332.8 135.2 340 Q 128 347.2 128 358.4 Q 128 361.6 128.8 364.8 L 58.4 435.2 L 58.4 435.2 L 102.4 281.6 L 102.4 281.6 L 164.8 258.4 L 164.8 258.4 L 259.2 332 L 259.2 332 Z M 307.2 271.2 L 496.8 418.4 L 307.2 271.2 L 496.8 418.4 L 512 430.4 L 512 430.4 L 488.8 460.8 L 488.8 460.8 L 473.6 448.8 L 473.6 448.8 L 15.2 93.6 L 15.2 93.6 L 0 81.6 L 0 81.6 L 23.2 51.2 L 23.2 51.2 L 38.4 63.2 L 38.4 63.2 L 232.8 213.6 L 232.8 213.6 L 384 51.2 L 384 51.2 L 460.8 128 L 460.8 128 L 307.2 271.2 L 307.2 271.2 Z" />
</svg>