<svg xmlns="http://www.w3.org/2000/svg" viewBox="0 0 512 512">
  <path d="M 186.66667 114.666664 Q 163.55556 115.55556 142.22223 123.55556 Q 144.88889 82.666664 173.33333 56 Q 200.88889 29.333334 241.77777 28.444445 Q 277.33334 29.333334 303.1111 49.77778 Q 328.8889 70.22222 337.77777 102.22222 Q 329.77777 107.55556 322.66666 113.77778 L 296.8889 113.77778 L 296.8889 113.77778 Q 291.55554 95.111115 277.33334 83.55556 Q 262.22223 71.111115 241.77777 71.111115 Q 221.33333 71.111115 206.22223 83.55556 Q 191.11111 95.111115 186.66667 114.666664 L 186.66667 114.666664 Z M 334.22223 184.88889 L 199.11111 184.88889 L 334.22223 184.88889 L 199.11111 184.88889 Q 156.44444 185.77777 128.88889 214.22223 Q 100.44444 241.77777 99.55556 284.44446 Q 101.333336 335.1111 139.55556 364.44446 L 156.44444 376.8889 L 156.44444 376.8889 L 156.44444 398.22223 L 156.44444 398.22223 L 156.44444 440.8889 L 156.44444 440.8889 L 199.11111 440.8889 L 199.11111 440.8889 L 199.11111 426.66666 L 199.11111 426.66666 L 199.11111 384 L 199.11111 384 L 241.77777 384 L 327.1111 384 L 327.1111 426.66666 L 327.1111 426.66666 L 327.1111 440.8889 L 327.1111 440.8889 L 369.77777 440.8889 L 369.77777 440.8889 L 369.77777 408 L 369.77777 408 L 369.77777 383.1111 L 369.77777 383.1111 L 391.1111 370.66666 L 391.1111 370.66666 Q 408.8889 360 421.33334 344 L 433.77777 327.1111 L 433.77777 327.1111 L 455.1111 327.1111 L 469.33334 327.1111 L 469.33334 270.22223 L 469.33334 270.22223 L 443.55554 270.22223 L 443.55554 270.22223 L 432.8889 244.44444 L 432.8889 244.44444 Q 424 225.77777 408.8889 211.55556 L 391.1111 194.66667 L 391.1111 194.66667 L 397.33334 169.77777 L 397.33334 169.77777 L 400.8889 156.44444 L 400.8889 156.44444 L 398.22223 156.44444 L 398.22223 156.44444 Q 378.66666 157.33333 366.22223 170.66667 L 353.77777 184.88889 L 353.77777 184.88889 L 334.22223 184.88889 L 334.22223 184.88889 Z M 398.22223 113.77778 L 411.55554 113.77778 L 398.22223 113.77778 L 455.1111 113.77778 L 444.44446 156.44444 L 444.44446 156.44444 L 438.22223 180.44444 L 438.22223 180.44444 Q 459.55554 200.88889 472 227.55556 L 512 227.55556 L 512 227.55556 L 512 270.22223 L 512 270.22223 L 512 327.1111 L 512 327.1111 L 512 369.77777 L 512 369.77777 L 469.33334 369.77777 L 455.1111 369.77777 Q 437.33334 392.8889 412.44446 408 L 412.44446 440.8889 L 412.44446 440.8889 L 412.44446 483.55554 L 412.44446 483.55554 L 369.77777 483.55554 L 284.44446 483.55554 L 284.44446 469.33334 L 284.44446 469.33334 L 284.44446 440.8889 L 284.44446 440.8889 L 284.44446 426.66666 L 284.44446 426.66666 L 241.77777 426.66666 L 241.77777 426.66666 L 241.77777 440.8889 L 241.77777 440.8889 L 241.77777 469.33334 L 241.77777 469.33334 L 241.77777 483.55554 L 241.77777 483.55554 L 199.11111 483.55554 L 113.77778 483.55554 L 113.77778 440.8889 L 113.77778 440.8889 L 113.77778 398.22223 L 113.77778 398.22223 Q 88.888885 379.55554 73.77778 352 Q 58.666668 324.44446 56.88889 290.66666 Q 32 287.1111 16.88889 269.33334 Q 0.8888889 251.55556 0 226.66667 Q 1.7777778 186.66667 36.444443 168 L 40 166.22223 L 40 166.22223 L 59.555557 204.44444 L 59.555557 204.44444 L 55.11111 206.22223 L 55.11111 206.22223 Q 43.555557 212.44444 42.666668 226.66667 Q 44.444443 244.44444 61.333332 248.88889 Q 74.666664 201.77777 111.111115 172.44444 Q 148.44444 143.11111 199.11111 142.22223 L 334.22223 142.22223 L 334.22223 142.22223 Q 359.1111 114.666664 398.22223 113.77778 L 398.22223 113.77778 Z M 376.8889 241.77777 Q 396.44446 243.55556 398.22223 263.1111 Q 396.44446 282.66666 376.8889 284.44446 Q 357.33334 282.66666 355.55554 263.1111 Q 357.33334 243.55556 376.8889 241.77777 L 376.8889 241.77777 Z" />
</svg>