<svg viewBox="0 0 645 512">
  <path
    d="M 323 32 L 323 128 L 451 416 L 515 416 L 643 128 L 643 32 Q 645 30 611 16 Q 577 2 483 0 Q 389 2 355 16 Q 321 30 323 32 L 323 32 Z M 595 61 L 595 109 Q 575 105 543 101 Q 511 96 483 96 Q 455 96 423 101 Q 391 105 371 109 L 371 61 Q 396 50 483 48 Q 570 50 595 61 L 595 61 Z M 482 368 L 445 284 Q 464 280 483 280 Q 502 280 521 284 L 484 368 L 482 368 L 482 368 Z M 3 331 L 71 399 L 365 512 L 410 467 L 297 173 L 229 105 Q 229 102 195 116 Q 161 130 94 195 Q 28 263 14 297 Q 0 331 3 331 L 3 331 Z M 216 159 L 250 193 Q 233 205 207 224 Q 182 243 161 263 Q 142 283 122 309 Q 103 334 91 351 L 58 318 Q 68 292 127 229 Q 190 169 216 159 L 216 159 Z M 353 456 L 267 423 Q 278 407 292 393 Q 305 380 321 368 L 354 455 L 353 456 L 353 456 Z"
  />
</svg>