<svg viewBox="0 0 448 512">
  <path
    d="M 352 32 L 352 160 L 384 160 L 384 32 L 384 0 L 352 0 L 96 0 L 64 0 L 64 32 L 64 160 L 96 160 L 96 32 L 352 32 L 352 32 Z M 353 224 Q 398 273 400 344 Q 400 385 383 420 Q 366 455 336 480 L 112 480 Q 82 455 65 420 Q 48 385 48 344 Q 50 273 95 224 L 96 224 L 352 224 L 353 224 L 353 224 Z M 394 224 L 432 224 L 448 224 L 448 192 L 432 192 L 384 192 L 352 192 L 96 192 L 64 192 L 16 192 L 0 192 L 0 224 L 16 224 L 54 224 Q 17 276 16 344 Q 16 396 39 440 Q 62 483 101 512 L 347 512 Q 386 483 409 440 Q 432 396 432 344 Q 431 276 394 224 L 394 224 Z M 168 304 Q 166 282 144 280 Q 122 282 120 304 Q 122 326 144 328 Q 166 326 168 304 L 168 304 Z M 304 328 Q 326 326 328 304 Q 326 282 304 280 Q 282 282 280 304 Q 282 326 304 328 L 304 328 Z M 176 368 Q 176 380 182 391 L 210 440 L 224 464 L 238 440 L 266 391 Q 272 380 272 368 Q 271 347 258 334 Q 245 321 224 320 L 224 320 Q 203 321 190 334 Q 177 347 176 368 L 176 368 Z M 224 352 L 224 352 Q 239 353 240 368 Q 240 372 238 375 L 224 400 L 210 375 Q 208 372 208 368 Q 209 353 224 352 L 224 352 Z"
  />
</svg>