<svg viewBox="0 0 448 456">
  <path
    d="M 48 48 L 48 144 L 400 144 L 400 48 L 48 48 L 48 48 Z M 0 0 L 48 0 L 400 0 L 448 0 L 448 48 L 448 144 L 448 192 L 416 192 L 416 328 L 416 432 L 416 456 L 368 456 L 368 432 L 368 352 L 288 352 L 288 432 L 288 456 L 240 456 L 240 432 L 240 352 L 184 352 L 80 352 L 80 432 L 80 456 L 32 456 L 32 432 L 32 328 L 32 192 L 0 192 L 0 144 L 0 48 L 0 0 L 0 0 Z M 80 192 L 80 304 L 160 304 L 160 192 L 80 192 L 80 192 Z M 208 192 L 208 304 L 264 304 L 368 304 L 368 192 L 208 192 L 208 192 Z"
  />
</svg>