<svg xmlns="http://www.w3.org/2000/svg" viewBox="0 0 512 512">
  <path d="M 381.33334 123.55556 Q 382.22223 160 406.22223 184 L 406.22223 184 L 406.22223 184 Q 430.22223 208 466.66666 208.88889 Q 491.55554 208.88889 512 195.55556 Q 497.77777 222.22223 472.8889 238.22223 Q 448 254.22223 416.8889 256 Q 400.8889 224 368.8889 208.88889 Q 367.1111 176.88889 348.44446 152.88889 Q 330.66666 128.88889 301.33334 119.111115 Q 310.22223 79.111115 340.44446 54.22222 Q 370.66666 29.333334 412.44446 28.444445 Q 437.33334 28.444445 458.66666 39.11111 Q 425.77777 42.666668 404.44446 65.77778 Q 382.22223 89.77778 381.33334 123.55556 L 381.33334 123.55556 Z M 56.88889 398.22223 L 106.666664 398.22223 L 56.88889 398.22223 L 106.666664 398.22223 L 49.77778 483.55554 L 49.77778 483.55554 L 0 483.55554 L 0 483.55554 L 56.88889 398.22223 L 56.88889 398.22223 Z M 142.22223 398.22223 L 192 398.22223 L 142.22223 398.22223 L 192 398.22223 L 135.11111 483.55554 L 135.11111 483.55554 L 85.333336 483.55554 L 85.333336 483.55554 L 142.22223 398.22223 L 142.22223 398.22223 Z M 277.33334 398.22223 L 220.44444 483.55554 L 277.33334 398.22223 L 220.44444 483.55554 L 170.66667 483.55554 L 170.66667 483.55554 L 227.55556 398.22223 L 227.55556 398.22223 L 277.33334 398.22223 L 277.33334 398.22223 Z M 312.8889 398.22223 L 362.66666 398.22223 L 312.8889 398.22223 L 362.66666 398.22223 L 305.77777 483.55554 L 305.77777 483.55554 L 256 483.55554 L 256 483.55554 L 312.8889 398.22223 L 312.8889 398.22223 Z M 157.33333 156.44444 Q 138.66667 157.33333 127.111115 168.88889 L 127.111115 168.88889 L 127.111115 168.88889 Q 114.666664 181.33333 114.666664 199.11111 L 114.666664 220.44444 L 114.666664 220.44444 L 114.666664 241.77777 L 114.666664 241.77777 L 93.333336 241.77777 L 85.333336 241.77777 Q 67.55556 242.66667 55.11111 254.22223 Q 43.555557 266.66666 42.666668 284.44446 L 42.666668 327.1111 L 42.666668 327.1111 L 72 327.1111 L 99.55556 327.1111 L 99.55556 327.1111 L 99.55556 327.1111 L 221.33333 327.1111 L 221.33333 327.1111 L 221.33333 327.1111 L 221.33333 327.1111 L 299.55554 327.1111 L 299.55554 327.1111 L 299.55554 327.1111 L 299.55554 327.1111 L 320.8889 327.1111 L 355.55554 327.1111 L 355.55554 298.66666 L 355.55554 298.66666 Q 355.55554 286.22223 347.55554 278.22223 Q 339.55554 270.22223 327.1111 270.22223 L 320.8889 270.22223 L 299.55554 270.22223 L 299.55554 248.88889 L 299.55554 248.88889 L 299.55554 213.33333 L 299.55554 213.33333 Q 298.66666 200.88889 290.66666 192.88889 Q 282.66666 184.88889 271.1111 184.88889 Q 249.77777 186.66667 243.55556 206.22223 L 200 206.22223 L 200 206.22223 L 200 199.11111 L 200 199.11111 Q 199.11111 181.33333 187.55556 168.88889 Q 175.11111 157.33333 157.33333 156.44444 L 157.33333 156.44444 Z M 342.22223 369.77777 L 342.22223 369.77777 L 342.22223 369.77777 L 342.22223 369.77777 L 320.8889 369.77777 L 221.33333 369.77777 L 221.33333 369.77777 L 221.33333 369.77777 L 93.333336 369.77777 L 43.555557 369.77777 L 43.555557 369.77777 L 43.555557 369.77777 L 21.333334 369.77777 L 0 369.77777 L 0 348.44446 L 0 348.44446 L 0 284.44446 L 0 284.44446 Q 0.8888889 251.55556 20.444445 228.44444 Q 40.88889 206.22223 72 200 L 72 199.11111 L 72 199.11111 Q 72.888885 162.66667 96.888885 138.66667 Q 120.888885 114.666664 157.33333 113.77778 Q 180.44444 113.77778 199.11111 125.333336 Q 218.66667 136 230.22223 154.66667 Q 248 142.22223 271.1111 142.22223 Q 301.33334 143.11111 320.8889 162.66667 Q 341.33334 183.11111 342.22223 213.33333 L 342.22223 229.33333 L 342.22223 229.33333 Q 366.22223 234.66667 382.22223 253.33333 Q 397.33334 272.8889 398.22223 298.66666 L 398.22223 348.44446 L 398.22223 348.44446 L 398.22223 369.77777 L 398.22223 369.77777 L 376.8889 369.77777 L 342.22223 369.77777 Z" />
</svg>