<svg xmlns="http://www.w3.org/2000/svg" viewBox="0 0 640 509">
    <path d="M 128 506 L 151 484 L 231 404 L 253 381 L 208 336 L 185 358 L 160 384 L 160 285 L 384 285 L 384 285 L 416 285 L 416 269 Q 416 243 427 221 L 352 221 L 352 122 L 377 148 L 400 170 L 445 125 L 423 102 L 343 22 L 320 0 L 297 22 L 217 102 L 195 125 L 240 170 L 263 148 L 288 122 L 288 221 L 160 221 L 96 221 L 32 221 L 0 221 L 0 285 L 32 285 L 96 285 L 96 384 L 71 358 L 48 336 L 3 381 L 25 404 L 105 484 L 128 506 L 128 506 Z M 96 61 L 96 189 L 160 189 L 160 61 L 160 29 L 96 29 L 96 61 L 96 61 Z M 288 445 L 288 477 L 352 477 L 352 445 L 352 317 L 288 317 L 288 445 L 288 445 Z M 528 237 Q 542 237 551 246 L 551 246 Q 560 255 560 269 L 560 317 L 496 317 L 496 269 Q 496 255 505 246 Q 514 237 528 237 L 528 237 Z M 448 269 L 448 317 L 416 317 L 416 509 L 640 509 L 640 317 L 608 317 L 608 269 Q 607 235 585 212 Q 562 190 528 189 Q 494 190 471 212 Q 449 235 448 269 L 448 269 Z"/>
</svg>
