<svg xmlns="http://www.w3.org/2000/svg" viewBox="0 0 512 512">
  <path d="M 31.690523 2.475822 L 190.14313 2.475822 L 31.690523 2.475822 L 221.83365 2.475822 L 221.83365 65.856865 L 221.83365 65.856865 L 190.14313 65.856865 L 0 65.856865 L 0 2.475822 L 0 2.475822 L 31.690523 2.475822 L 31.690523 2.475822 Z M 479.31915 359.98453 L 352.55707 486.7466 L 479.31915 359.98453 L 352.55707 486.7466 L 330.76984 509.52417 L 330.76984 509.52417 L 285.2147 464.95938 L 285.2147 464.95938 L 307.99225 442.18182 L 307.99225 442.18182 L 434.75436 315.41974 L 434.75436 315.41974 L 456.5416 292.64218 L 456.5416 292.64218 L 502.0967 338.1973 L 502.0967 338.1973 L 479.31915 359.98453 L 479.31915 359.98453 Z M 0 97.547386 L 31.690523 97.547386 L 0 97.547386 L 221.83365 97.547386 L 221.83365 160.92844 L 221.83365 160.92844 L 190.14313 160.92844 L 142.60735 160.92844 L 142.60735 192.61896 L 142.60735 192.61896 L 142.60735 224.30948 L 142.60735 224.30948 L 79.2263 224.30948 L 79.2263 224.30948 L 79.2263 192.61896 L 79.2263 192.61896 L 79.2263 160.92844 L 79.2263 160.92844 L 31.690523 160.92844 L 0 160.92844 L 0 97.547386 L 0 97.547386 Z M 285.2147 327.30368 Q 286.20502 304.52612 305.02127 292.64218 Q 324.82785 282.7389 344.63443 292.64218 Q 363.45068 304.52612 364.441 327.30368 Q 363.45068 350.08124 344.63443 361.96518 Q 324.82785 371.86847 305.02127 361.96518 Q 286.20502 350.08124 285.2147 327.30368 L 285.2147 327.30368 Z M 467.4352 430.29788 Q 490.21277 431.2882 502.0967 450.10446 Q 512 469.911 502.0967 489.7176 Q 490.21277 508.53384 467.4352 509.52417 Q 444.65765 508.53384 432.77368 489.7176 Q 422.8704 469.911 432.77368 450.10446 Q 444.65765 431.2882 467.4352 430.29788 L 467.4352 430.29788 Z M 507.04837 3.4661508 L 507.04837 42.088974 L 507.04837 3.4661508 L 507.04837 42.088974 L 507.04837 176.7737 L 507.04837 176.7737 Q 506.058 196.58028 488.23212 210.44487 Q 470.4062 223.31915 443.6673 224.30948 Q 416.92844 223.31915 399.1025 210.44487 Q 381.27658 196.58028 380.28625 176.7737 Q 381.27658 156.96712 399.1025 143.10251 Q 416.92844 130.22824 443.6673 129.23792 L 443.6673 80.7118 L 443.6673 80.7118 L 348.59573 99.528046 L 348.59573 99.528046 L 348.59573 208.46422 L 348.59573 208.46422 Q 347.6054 228.2708 329.7795 242.13539 Q 311.95358 255.00967 285.2147 256 Q 258.47583 255.00967 240.6499 242.13539 Q 222.82399 228.2708 221.83365 208.46422 Q 222.82399 188.65764 240.6499 174.79303 Q 258.47583 161.91876 285.2147 160.92844 L 285.2147 73.779495 L 285.2147 73.779495 L 285.2147 48.03095 L 285.2147 48.03095 L 310.96326 43.079304 L 310.96326 43.079304 L 469.41586 11.388782 L 469.41586 11.388782 L 507.04837 3.4661508 L 507.04837 3.4661508 Z M 15.845262 319.38104 L 15.845262 248.07736 L 15.845262 319.38104 L 15.845262 248.07736 L 87.14893 248.07736 L 158.4526 248.07736 L 158.4526 319.38104 L 158.4526 319.38104 Q 157.46228 352.0619 134.68472 372.8588 L 148.54932 388.70407 L 148.54932 388.70407 L 161.4236 374.83945 L 161.4236 374.83945 L 182.2205 351.07156 L 182.2205 351.07156 L 229.75629 393.6557 L 229.75629 393.6557 L 207.96906 417.42358 L 207.96906 417.42358 L 192.1238 435.2495 L 192.1238 435.2495 L 200.04642 443.17215 L 200.04642 443.17215 L 221.83365 465.9497 L 221.83365 465.9497 L 175.28821 509.52417 L 175.28821 509.52417 L 153.50096 485.7563 L 153.50096 485.7563 L 149.53966 481.79498 L 149.53966 481.79498 L 134.68472 498.63055 L 134.68472 498.63055 L 124.78143 509.52417 L 124.78143 509.52417 L 110.916824 509.52417 L 0 509.52417 L 0 477.83365 L 0 477.83365 L 0 433.26886 L 0 433.26886 L 0 432.27853 L 0 432.27853 Q 0 402.56866 19.806576 379.7911 L 32.68085 365.9265 L 32.68085 365.9265 Q 16.83559 346.11993 15.845262 319.38104 L 15.845262 319.38104 Z M 67.34236 422.37524 Q 63.381046 426.33655 63.381046 432.27853 L 63.381046 433.26886 L 63.381046 433.26886 L 63.381046 446.14313 L 63.381046 446.14313 L 97.05222 446.14313 L 97.05222 446.14313 L 105.96519 436.23984 L 105.96519 436.23984 L 80.21664 408.51065 L 80.21664 408.51065 L 67.34236 422.37524 L 67.34236 422.37524 Z M 87.14893 335.22632 Q 102.00387 334.23596 102.994194 319.38104 L 102.994194 303.5358 L 102.994194 303.5358 L 71.30367 303.5358 L 71.30367 303.5358 L 71.30367 319.38104 L 71.30367 319.38104 Q 72.29401 334.23596 87.14893 335.22632 L 87.14893 335.22632 Z" />
</svg>