<svg xmlns="http://www.w3.org/2000/svg" viewBox="0 0 512 512">
  <path d="M 256 0.5 L 266 4.5 L 256 0.5 L 266 4.5 L 434 81.5 L 434 81.5 L 456 91.5 L 456 91.5 L 436 135.5 L 436 135.5 L 416 126.5 L 416 126.5 L 416 231.5 L 416 231.5 L 416 255.5 L 416 255.5 L 392 255.5 L 371 255.5 L 406 463.5 L 406 463.5 L 488 463.5 L 512 463.5 L 512 511.5 L 512 511.5 L 488 511.5 L 0 511.5 L 0 463.5 L 0 463.5 L 24 463.5 L 106 463.5 L 141 255.5 L 141 255.5 L 120 255.5 L 96 255.5 L 96 231.5 L 96 231.5 L 96 126.5 L 96 126.5 L 76 135.5 L 76 135.5 L 56 91.5 L 56 91.5 L 78 81.5 L 78 81.5 L 246 4.5 L 246 4.5 L 256 0.5 L 256 0.5 Z M 256 53.5 L 144 104.5 L 256 53.5 L 144 104.5 L 144 127.5 L 144 127.5 L 368 127.5 L 368 127.5 L 368 104.5 L 368 104.5 L 256 53.5 L 256 53.5 Z M 144 175.5 L 144 207.5 L 144 175.5 L 144 207.5 L 368 207.5 L 368 207.5 L 368 175.5 L 368 175.5 L 144 175.5 L 144 175.5 Z M 331 463.5 L 256 400.5 L 331 463.5 L 256 400.5 L 181 463.5 L 181 463.5 L 331 463.5 L 331 463.5 Z M 186 278.5 L 256 337.5 L 186 278.5 L 256 337.5 L 326 278.5 L 326 278.5 L 322 255.5 L 322 255.5 L 190 255.5 L 190 255.5 L 186 278.5 L 186 278.5 Z M 177 333.5 L 163 416.5 L 177 333.5 L 163 416.5 L 219 368.5 L 219 368.5 L 177 333.5 L 177 333.5 Z M 293 368.5 L 349 416.5 L 293 368.5 L 349 416.5 L 335 333.5 L 335 333.5 L 293 368.5 L 293 368.5 Z" />
</svg>