<svg xmlns="http://www.w3.org/2000/svg" viewBox="0 0 512 512">
  <path d="M 268.92114 84.39117 L 268.92114 71.47003 L 268.92114 84.39117 L 268.92114 71.47003 L 243.07886 71.47003 L 243.07886 71.47003 L 243.07886 84.39117 L 243.07886 84.39117 L 243.07886 278.2082 L 243.07886 278.2082 L 243.07886 291.12933 L 243.07886 291.12933 L 268.92114 291.12933 L 268.92114 291.12933 L 268.92114 278.2082 L 268.92114 278.2082 L 268.92114 84.39117 L 268.92114 84.39117 Z M 0 177.26183 L 17.766562 196.64354 L 0 177.26183 L 17.766562 196.64354 Q 57.33754 157.07256 108.21451 132.03786 Q 158.2839 106.19559 217.23659 99.735016 L 217.23659 84.39117 L 217.23659 84.39117 L 217.23659 73.892746 L 217.23659 73.892746 Q 153.43849 80.35331 98.52366 107.81072 Q 42.80126 134.46057 0 177.26183 L 0 177.26183 Z M 87.21767 273.36276 L 104.98423 292.74448 L 87.21767 273.36276 L 104.98423 292.74448 Q 150.2082 244.29022 217.23659 230.56151 L 217.23659 203.91167 L 217.23659 203.91167 Q 139.70978 218.44795 87.21767 273.36276 L 87.21767 273.36276 Z M 294.7634 203.91167 L 294.7634 230.56151 L 294.7634 203.91167 L 294.7634 230.56151 Q 361.7918 244.29022 407.82333 292.74448 L 424.78235 273.36276 L 424.78235 273.36276 Q 372.29022 218.44795 294.7634 203.91167 L 294.7634 203.91167 Z M 294.7634 84.39117 L 294.7634 99.735016 L 294.7634 84.39117 L 294.7634 99.735016 Q 353.7161 106.19559 404.59305 132.03786 Q 454.66248 157.07256 494.23343 196.64354 L 512 177.26183 L 512 177.26183 Q 469.19873 134.46057 413.47635 107.81072 Q 358.56152 80.35331 294.7634 73.892746 L 294.7634 84.39117 L 294.7634 84.39117 Z M 230.15773 381.5773 Q 230.15773 370.2713 237.42587 363.00314 L 237.42587 363.00314 L 237.42587 363.00314 Q 244.694 355.73502 256 355.73502 Q 267.306 355.73502 274.57413 363.00314 Q 281.8423 370.2713 281.8423 381.5773 Q 281.8423 392.88327 274.57413 400.15143 Q 267.306 407.41956 256 407.41956 Q 244.694 407.41956 237.42587 400.15143 Q 230.15773 392.88327 230.15773 381.5773 L 230.15773 381.5773 Z M 307.68454 381.5773 Q 306.87698 352.50473 281.8423 337.1609 Q 256 322.6246 230.15773 337.1609 Q 205.12303 352.50473 204.31546 381.5773 Q 205.12303 410.64984 230.15773 425.99368 Q 256 440.52997 281.8423 425.99368 Q 306.87698 410.64984 307.68454 381.5773 L 307.68454 381.5773 Z" />
</svg>