<svg xmlns="http://www.w3.org/2000/svg" viewBox="0 0 320 512">
    <path d="M 112 0 L 48 0 L 48 64 L 0 64 L 0 128 L 0 224 L 0 288 L 0 384 L 0 448 L 48 448 L 48 512 L 112 512 L 112 448 L 144 448 L 144 512 L 208 512 L 208 448 Q 256 447 287 415 Q 319 384 320 336 Q 320 306 306 281 Q 291 256 267 241 Q 287 213 288 176 Q 287 137 265 108 Q 243 80 208 69 L 208 0 L 144 0 L 144 64 L 112 64 L 112 0 L 112 0 Z M 64 128 L 176 128 Q 196 129 210 142 Q 223 156 224 176 Q 223 196 210 210 Q 196 223 176 224 L 64 224 L 64 128 L 64 128 Z M 176 288 L 208 288 Q 228 289 242 302 Q 255 316 256 336 Q 255 356 242 370 Q 228 383 208 384 L 64 384 L 64 288 L 176 288 L 176 288 Z"/>
</svg>
