<svg xmlns="http://www.w3.org/2000/svg" viewBox="0 0 512 512">
  <path d="M 331 0 L 171 0 L 331 0 L 171 0 L 171 48 L 171 48 L 227 48 L 227 48 L 227 97 L 227 97 Q 148 108 96 165 Q 45 222 43 304 Q 45 392 104 451 Q 163 510 251 512 Q 339 510 398 451 Q 457 392 459 304 Q 458 236 421 184 L 452 153 L 452 153 L 469 136 L 469 136 L 435 102 L 435 102 L 418 119 L 418 119 L 389 148 L 389 148 Q 341 106 275 97 L 275 48 L 275 48 L 331 48 L 331 48 L 331 0 L 331 0 Z M 91 304 Q 91 261 112 224 L 112 224 L 112 224 Q 134 187 171 165 Q 209 144 251 144 Q 293 144 331 165 Q 368 187 390 224 Q 411 261 411 304 Q 411 347 390 384 Q 368 421 331 443 Q 293 464 251 464 Q 209 464 171 443 Q 134 421 112 384 Q 91 347 91 304 L 91 304 Z M 263 256 L 263 336 L 263 256 L 263 336 Q 264 358 278 373 Q 293 387 315 388 Q 337 387 352 373 Q 366 358 367 336 L 367 256 L 367 256 Q 366 234 352 219 Q 337 205 315 204 Q 293 205 278 219 Q 264 234 263 256 L 263 256 Z M 315 244 Q 326 245 327 256 L 327 336 L 327 336 Q 326 347 315 348 Q 304 347 303 336 L 303 256 L 303 256 Q 304 245 315 244 L 315 244 Z M 179 252 Q 184 244 192 244 L 193 244 L 193 244 Q 206 245 207 258 Q 207 264 203 268 L 168 303 L 168 303 Q 143 328 143 362 L 143 368 L 143 368 L 143 388 L 143 388 L 163 388 L 247 388 L 247 348 L 247 348 L 227 348 L 186 348 Q 189 339 196 331 L 231 296 L 231 296 Q 247 280 247 258 Q 246 235 231 220 Q 216 205 193 204 L 192 204 L 192 204 Q 159 205 144 234 L 137 247 L 137 247 L 173 265 L 173 265 L 179 252 L 179 252 Z" />
</svg>