<svg xmlns="http://www.w3.org/2000/svg" viewBox="0 0 512 512">
  <path d="M 228.18268 50.796852 L 237.05197 58.053543 L 228.18268 50.796852 L 237.05197 58.053543 L 401.53702 203.18741 L 401.53702 203.18741 Q 398.3118 203.18741 395.8929 203.18741 Q 380.57324 203.18741 366.05984 206.4126 L 228.18268 84.661415 L 228.18268 84.661415 L 73.37323 221.73228 L 73.37323 221.73228 L 73.37323 435.40158 L 73.37323 435.40158 L 163.67874 435.40158 L 163.67874 435.40158 L 163.67874 293.49292 L 163.67874 293.49292 L 163.67874 280.59213 L 163.67874 280.59213 L 176.57953 280.59213 L 269.30392 280.59213 Q 262.85355 292.6866 259.62836 306.3937 L 189.48032 306.3937 L 189.48032 306.3937 L 189.48032 435.40158 L 189.48032 435.40158 L 202.3811 435.40158 L 286.2362 435.40158 Q 298.33072 449.91495 314.4567 461.20316 L 60.472443 461.20316 L 47.571655 461.20316 L 47.571655 448.30237 L 47.571655 448.30237 L 47.571655 244.30865 L 47.571655 244.30865 L 17.738583 270.91653 L 17.738583 270.91653 L 0 251.56535 L 0 251.56535 L 219.31339 58.053543 L 219.31339 58.053543 L 228.18268 50.796852 L 228.18268 50.796852 Z M 486.19843 345.09607 Q 486.19843 320.90707 474.10394 299.9433 L 474.10394 299.9433 L 474.10394 299.9433 Q 462.00946 278.97952 441.04565 266.88504 Q 420.08188 254.79056 395.8929 254.79056 Q 371.70395 254.79056 350.74014 266.88504 Q 329.77637 278.97952 317.6819 299.9433 Q 305.5874 320.90707 305.5874 345.09607 Q 305.5874 369.28503 317.6819 390.2488 Q 329.77637 411.2126 350.74014 423.3071 Q 371.70395 435.40158 395.8929 435.40158 Q 420.08188 435.40158 441.04565 423.3071 Q 462.00946 411.2126 474.10394 390.2488 Q 486.19843 369.28503 486.19843 345.09607 L 486.19843 345.09607 Z M 279.78583 345.09607 Q 279.78583 313.6504 295.1055 287.0425 L 295.1055 287.0425 L 295.1055 287.0425 Q 310.4252 260.43463 337.83936 244.30865 Q 365.25354 228.98898 395.8929 228.98898 Q 426.5323 228.98898 453.94644 244.30865 Q 481.36063 260.43463 496.68033 287.0425 Q 512 313.6504 512 345.09607 Q 512 376.54172 496.68033 403.1496 Q 481.36063 429.75748 453.94644 445.88345 Q 426.5323 461.20316 395.8929 461.20316 Q 365.25354 461.20316 337.83936 445.88345 Q 310.4252 429.75748 295.1055 403.1496 Q 279.78583 376.54172 279.78583 345.09607 L 279.78583 345.09607 Z M 408.7937 409.6 L 382.99213 409.6 L 408.7937 409.6 L 382.99213 409.6 L 382.99213 383.79843 L 382.99213 383.79843 L 408.7937 383.79843 L 408.7937 383.79843 L 408.7937 409.6 L 408.7937 409.6 Z M 408.7937 280.59213 L 408.7937 293.49292 L 408.7937 280.59213 L 408.7937 293.49292 L 408.7937 357.99686 L 408.7937 357.99686 L 408.7937 370.89764 L 408.7937 370.89764 L 382.99213 370.89764 L 382.99213 370.89764 L 382.99213 357.99686 L 382.99213 357.99686 L 382.99213 293.49292 L 382.99213 293.49292 L 382.99213 280.59213 L 382.99213 280.59213 L 408.7937 280.59213 L 408.7937 280.59213 Z" />
</svg>