<svg viewBox="0 0 320 512">
  <path
    d="M 48 48 L 48 352 Q 49 400 81 431 Q 112 463 160 464 Q 208 463 239 431 Q 271 400 272 352 L 272 48 L 48 48 L 48 48 Z M 0 0 L 48 0 L 272 0 L 320 0 L 320 48 L 320 352 Q 318 420 273 465 Q 228 510 160 512 Q 92 510 47 465 Q 2 420 0 352 L 0 48 L 0 0 L 0 0 Z M 160 424 Q 133 423 118 400 Q 106 376 118 352 Q 133 329 160 328 Q 187 329 202 352 Q 214 376 202 400 Q 187 423 160 424 L 160 424 Z M 160 240 Q 145 241 144 256 Q 145 271 160 272 Q 175 271 176 256 Q 175 241 160 240 L 160 240 Z M 160 304 Q 133 303 118 280 Q 106 256 118 232 Q 133 209 160 208 Q 187 209 202 232 Q 214 256 202 280 Q 187 303 160 304 L 160 304 Z M 144 136 Q 145 151 160 152 Q 175 151 176 136 Q 175 121 160 120 Q 145 121 144 136 L 144 136 Z M 208 136 Q 207 163 184 178 Q 160 190 136 178 Q 113 163 112 136 Q 113 109 136 94 Q 160 82 184 94 Q 207 109 208 136 L 208 136 Z"
  />
</svg>