<svg xmlns="http://www.w3.org/2000/svg" viewBox="0 0 512 512">
  <path d="M 512 284.44446 L 512 85.333336 L 512 284.44446 L 512 85.333336 L 0 85.333336 L 0 85.333336 L 0 426.66666 L 0 426.66666 L 369.77777 426.66666 L 369.77777 426.66666 L 369.77777 284.44446 L 369.77777 284.44446 L 512 284.44446 L 512 284.44446 Z M 512 312.8889 L 398.22223 312.8889 L 512 312.8889 L 398.22223 312.8889 L 398.22223 426.66666 L 398.22223 426.66666 L 512 312.8889 L 512 312.8889 Z M 85.333336 142.22223 Q 97.77778 142.22223 105.77778 150.22223 L 105.77778 150.22223 L 105.77778 150.22223 Q 113.77778 158.22223 113.77778 170.66667 Q 113.77778 183.11111 105.77778 191.11111 Q 97.77778 199.11111 85.333336 199.11111 Q 72.888885 199.11111 64.888885 191.11111 Q 56.88889 183.11111 56.88889 170.66667 Q 56.88889 158.22223 64.888885 150.22223 Q 72.888885 142.22223 85.333336 142.22223 L 85.333336 142.22223 Z" />
</svg>