<svg xmlns="http://www.w3.org/2000/svg" viewBox="0 0 512 512">
  <path d="M 398.22222222222223 28.444444444444443 L 398.22222222222223 142.22222222222223 L 398.22222222222223 28.444444444444443 L 398.22222222222223 142.22222222222223 L 170.66666666666666 142.22222222222223 L 142.22222222222223 142.22222222222223 L 142.22222222222223 170.66666666666666 L 142.22222222222223 170.66666666666666 L 142.22222222222223 227.55555555555554 L 142.22222222222223 227.55555555555554 L 56.888888888888886 227.55555555555554 L 56.888888888888886 227.55555555555554 L 56.888888888888886 28.444444444444443 L 56.888888888888886 28.444444444444443 L 398.22222222222223 28.444444444444443 L 398.22222222222223 28.444444444444443 Z M 170.66666666666666 199.11111111111111 L 170.66666666666666 170.66666666666666 L 170.66666666666666 199.11111111111111 L 170.66666666666666 170.66666666666666 L 199.11111111111111 170.66666666666666 L 512 170.66666666666666 L 512 398.22222222222223 L 512 398.22222222222223 L 312.8888888888889 398.22222222222223 L 312.8888888888889 398.22222222222223 L 312.8888888888889 256 L 312.8888888888889 256 L 312.8888888888889 227.55555555555554 L 312.8888888888889 227.55555555555554 L 284.44444444444446 227.55555555555554 L 170.66666666666666 227.55555555555554 L 170.66666666666666 199.11111111111111 L 170.66666666666666 199.11111111111111 Z M 284.44444444444446 256 L 284.44444444444446 284.44444444444446 L 284.44444444444446 256 L 284.44444444444446 284.44444444444446 L 284.44444444444446 300.44444444444446 L 284.44444444444446 300.44444444444446 L 142.22222222222223 401.77777777777777 L 142.22222222222223 401.77777777777777 L 0 300.44444444444446 L 0 300.44444444444446 L 0 256 L 0 256 L 256 256 L 284.44444444444446 256 Z M 455.1111111111111 227.55555555555554 L 398.22222222222223 227.55555555555554 L 455.1111111111111 227.55555555555554 L 398.22222222222223 227.55555555555554 L 398.22222222222223 284.44444444444446 L 398.22222222222223 284.44444444444446 L 455.1111111111111 284.44444444444446 L 455.1111111111111 284.44444444444446 L 455.1111111111111 227.55555555555554 L 455.1111111111111 227.55555555555554 Z M 284.44444444444446 335.1111111111111 L 284.44444444444446 483.55555555555554 L 284.44444444444446 335.1111111111111 L 284.44444444444446 483.55555555555554 L 0 483.55555555555554 L 0 483.55555555555554 L 0 335.1111111111111 L 0 335.1111111111111 L 134.22222222222223 431.1111111111111 L 134.22222222222223 431.1111111111111 L 142.22222222222223 437.3333333333333 L 142.22222222222223 437.3333333333333 L 150.22222222222223 431.1111111111111 L 150.22222222222223 431.1111111111111 L 284.44444444444446 335.1111111111111 L 284.44444444444446 335.1111111111111 Z" />
</svg>