<svg xmlns="http://www.w3.org/2000/svg" viewBox="0 0 512 512">
  <path d="M 329.14285714285717 36.57142857142857 L 256 36.57142857142857 L 329.14285714285717 36.57142857142857 L 256 36.57142857142857 L 256 109.71428571428571 L 256 109.71428571428571 L 329.14285714285717 109.71428571428571 L 329.14285714285717 109.71428571428571 L 329.14285714285717 36.57142857142857 L 329.14285714285717 36.57142857142857 Z M 256 0 L 329.14285714285717 0 L 256 0 L 365.7142857142857 0 L 365.7142857142857 36.57142857142857 L 365.7142857142857 36.57142857142857 L 365.7142857142857 109.71428571428571 L 365.7142857142857 109.71428571428571 L 365.7142857142857 146.28571428571428 L 365.7142857142857 146.28571428571428 L 329.14285714285717 146.28571428571428 L 219.42857142857142 146.28571428571428 L 219.42857142857142 109.71428571428571 L 219.42857142857142 109.71428571428571 L 219.42857142857142 36.57142857142857 L 219.42857142857142 36.57142857142857 L 219.42857142857142 0 L 219.42857142857142 0 L 256 0 L 256 0 Z M 113.14285714285714 232 L 149.71428571428572 294.85714285714283 L 113.14285714285714 232 L 149.71428571428572 294.85714285714283 L 212.57142857142858 258.2857142857143 L 212.57142857142858 258.2857142857143 L 176 195.42857142857142 L 176 195.42857142857142 L 113.14285714285714 232 L 113.14285714285714 232 Z M 62.857142857142854 218.28571428571428 L 94.85714285714286 200 L 62.857142857142854 218.28571428571428 L 94.85714285714286 200 L 157.71428571428572 163.42857142857142 L 157.71428571428572 163.42857142857142 L 189.71428571428572 145.14285714285714 L 189.71428571428572 145.14285714285714 L 208 177.14285714285714 L 208 177.14285714285714 L 244.57142857142858 240 L 244.57142857142858 240 L 262.85714285714283 272 L 262.85714285714283 272 L 230.85714285714286 290.2857142857143 L 230.85714285714286 290.2857142857143 L 168 326.85714285714283 L 168 326.85714285714283 L 136 345.14285714285717 L 136 345.14285714285717 L 117.71428571428571 313.14285714285717 L 117.71428571428571 313.14285714285717 L 81.14285714285714 250.28571428571428 L 81.14285714285714 250.28571428571428 L 62.857142857142854 218.28571428571428 L 62.857142857142854 218.28571428571428 Z M 402.2857142857143 219.42857142857142 L 329.14285714285717 219.42857142857142 L 402.2857142857143 219.42857142857142 L 329.14285714285717 219.42857142857142 L 329.14285714285717 292.57142857142856 L 329.14285714285717 292.57142857142856 L 402.2857142857143 292.57142857142856 L 402.2857142857143 292.57142857142856 L 402.2857142857143 219.42857142857142 L 402.2857142857143 219.42857142857142 Z M 292.57142857142856 182.85714285714286 L 329.14285714285717 182.85714285714286 L 292.57142857142856 182.85714285714286 L 438.85714285714283 182.85714285714286 L 438.85714285714283 219.42857142857142 L 438.85714285714283 219.42857142857142 L 438.85714285714283 292.57142857142856 L 438.85714285714283 292.57142857142856 L 438.85714285714283 329.14285714285717 L 438.85714285714283 329.14285714285717 L 402.2857142857143 329.14285714285717 L 292.57142857142856 329.14285714285717 L 292.57142857142856 292.57142857142856 L 292.57142857142856 292.57142857142856 L 292.57142857142856 219.42857142857142 L 292.57142857142856 219.42857142857142 L 292.57142857142856 182.85714285714286 L 292.57142857142856 182.85714285714286 Z M 402.2857142857143 475.42857142857144 L 475.42857142857144 475.42857142857144 L 402.2857142857143 475.42857142857144 L 475.42857142857144 475.42857142857144 L 475.42857142857144 402.2857142857143 L 475.42857142857144 402.2857142857143 L 402.2857142857143 402.2857142857143 L 402.2857142857143 402.2857142857143 L 402.2857142857143 475.42857142857144 L 402.2857142857143 475.42857142857144 Z M 365.7142857142857 365.7142857142857 L 402.2857142857143 365.7142857142857 L 365.7142857142857 365.7142857142857 L 512 365.7142857142857 L 512 402.2857142857143 L 512 402.2857142857143 L 512 475.42857142857144 L 512 475.42857142857144 L 512 512 L 512 512 L 475.42857142857144 512 L 365.7142857142857 512 L 365.7142857142857 475.42857142857144 L 365.7142857142857 475.42857142857144 L 365.7142857142857 402.2857142857143 L 365.7142857142857 402.2857142857143 L 365.7142857142857 365.7142857142857 L 365.7142857142857 365.7142857142857 Z M 292.57142857142856 402.2857142857143 L 219.42857142857142 402.2857142857143 L 292.57142857142856 402.2857142857143 L 219.42857142857142 402.2857142857143 L 219.42857142857142 475.42857142857144 L 219.42857142857142 475.42857142857144 L 292.57142857142856 475.42857142857144 L 292.57142857142856 475.42857142857144 L 292.57142857142856 402.2857142857143 L 292.57142857142856 402.2857142857143 Z M 219.42857142857142 365.7142857142857 L 292.57142857142856 365.7142857142857 L 219.42857142857142 365.7142857142857 L 329.14285714285717 365.7142857142857 L 329.14285714285717 402.2857142857143 L 329.14285714285717 402.2857142857143 L 329.14285714285717 475.42857142857144 L 329.14285714285717 475.42857142857144 L 329.14285714285717 512 L 329.14285714285717 512 L 292.57142857142856 512 L 182.85714285714286 512 L 182.85714285714286 475.42857142857144 L 182.85714285714286 475.42857142857144 L 182.85714285714286 402.2857142857143 L 182.85714285714286 402.2857142857143 L 182.85714285714286 365.7142857142857 L 182.85714285714286 365.7142857142857 L 219.42857142857142 365.7142857142857 L 219.42857142857142 365.7142857142857 Z M 36.57142857142857 402.2857142857143 L 36.57142857142857 475.42857142857144 L 36.57142857142857 402.2857142857143 L 36.57142857142857 475.42857142857144 L 109.71428571428571 475.42857142857144 L 109.71428571428571 475.42857142857144 L 109.71428571428571 402.2857142857143 L 109.71428571428571 402.2857142857143 L 36.57142857142857 402.2857142857143 L 36.57142857142857 402.2857142857143 Z M 0 365.7142857142857 L 36.57142857142857 365.7142857142857 L 0 365.7142857142857 L 146.28571428571428 365.7142857142857 L 146.28571428571428 402.2857142857143 L 146.28571428571428 402.2857142857143 L 146.28571428571428 475.42857142857144 L 146.28571428571428 475.42857142857144 L 146.28571428571428 512 L 146.28571428571428 512 L 109.71428571428571 512 L 0 512 L 0 475.42857142857144 L 0 475.42857142857144 L 0 402.2857142857143 L 0 402.2857142857143 L 0 365.7142857142857 L 0 365.7142857142857 Z" />
</svg>