<svg xmlns="http://www.w3.org/2000/svg" viewBox="0 0 512 512">
  <path d="M 130 132 Q 137 93 179 76 Q 223 58 290 67 Q 303 69 325 74 Q 348 78 360 81 L 376 85 L 376 85 L 383 54 L 383 54 L 368 50 L 368 50 Q 355 47 331 42 Q 308 38 295 36 Q 222 25 167 46 Q 111 68 98 127 Q 98 127 98 128 Q 94 162 107 188 Q 121 212 145 227 Q 174 245 211 256 L 16 256 L 0 256 L 0 288 L 0 288 L 16 288 L 512 288 L 512 256 L 512 256 L 496 256 L 319 256 Q 292 246 264 239 L 263 238 L 263 238 Q 203 223 163 200 Q 144 188 136 172 Q 127 157 129 132 L 130 132 Z M 379 337 Q 387 353 382 380 Q 375 419 333 436 Q 289 454 222 445 Q 204 442 180 434 Q 156 427 134 419 L 134 419 L 134 419 L 134 419 L 134 419 L 134 419 L 134 419 Q 131 418 128 418 Q 122 416 117 414 L 102 409 L 102 409 L 92 440 L 92 440 L 107 444 L 107 444 Q 114 447 122 449 Q 123 449 123 450 Q 145 457 171 465 Q 197 473 217 476 L 217 476 L 217 476 Q 290 487 345 466 Q 401 444 414 385 Q 420 350 408 324 Q 408 323 408 323 Q 407 321 406 320 L 368 320 L 368 320 Q 375 328 379 337 L 379 337 Z" />
</svg>