<svg xmlns="http://www.w3.org/2000/svg" viewBox="0 0 512 512">
  <path d="M 126.5 0 L 222.5 0 L 126.5 0 L 222.5 0 L 222.5 56 L 222.5 56 L 286.5 56 L 286.5 56 L 286.5 32 L 286.5 32 L 510.5 0 L 510.5 0 L 510.5 160 L 510.5 160 L 286.5 128 L 286.5 128 L 286.5 104 L 286.5 104 L 222.5 104 L 222.5 104 L 222.5 139 L 222.5 139 Q 251.5 153 268.5 179 Q 286.5 206 286.5 240 L 286.5 384 L 286.5 384 L 62.5 384 L 62.5 384 L 62.5 240 L 62.5 240 Q 62.5 206 80.5 179 Q 97.5 153 126.5 139 L 126.5 110 L 126.5 110 Q 70.5 128 44.5 181 L 1.5 160 L 1.5 160 Q 19.5 122 52.5 96 Q 84.5 70 126.5 60 L 126.5 0 L 126.5 0 Z M 286.5 512 L 62.5 512 L 286.5 512 L 62.5 512 L 62.5 416 L 62.5 416 L 286.5 416 L 286.5 416 L 286.5 512 L 286.5 512 Z M 174.5 96 Q 189.5 95 190.5 80 Q 189.5 65 174.5 64 Q 159.5 65 158.5 80 Q 159.5 95 174.5 96 L 174.5 96 Z" />
</svg>