<svg xmlns="http://www.w3.org/2000/svg" viewBox="0 0 512 512">
  <path d="M 32 64 L 32 192 L 32 64 L 32 192 L 480 192 L 480 192 L 480 64 L 480 64 L 32 64 L 32 64 Z M 0 32 L 32 32 L 0 32 L 512 32 L 512 64 L 512 64 L 512 192 L 512 192 L 512 224 L 512 224 L 480 224 L 0 224 L 0 192 L 0 192 L 0 64 L 0 64 L 0 32 L 0 32 Z M 32 320 L 32 448 L 32 320 L 32 448 L 480 448 L 480 448 L 480 320 L 480 320 L 32 320 L 32 320 Z M 0 288 L 32 288 L 0 288 L 512 288 L 512 320 L 512 320 L 512 448 L 512 448 L 512 480 L 512 480 L 480 480 L 0 480 L 0 448 L 0 448 L 0 320 L 0 320 L 0 288 L 0 288 Z M 304 384 Q 306 362 328 360 Q 350 362 352 384 Q 350 406 328 408 Q 306 406 304 384 L 304 384 Z M 328 104 Q 350 106 352 128 Q 350 150 328 152 Q 306 150 304 128 Q 306 106 328 104 L 328 104 Z M 384 384 Q 386 362 408 360 Q 430 362 432 384 Q 430 406 408 408 Q 386 406 384 384 L 384 384 Z M 408 104 Q 430 106 432 128 Q 430 150 408 152 Q 386 150 384 128 Q 386 106 408 104 L 408 104 Z" />
</svg>