<svg xmlns="http://www.w3.org/2000/svg" viewBox="0 0 256 512">
    <path d="M 152 24 Q 150 2 128 0 Q 106 2 104 24 Q 106 46 128 48 Q 150 46 152 24 L 152 24 Z M 48 416 L 44 416 L 42 419 L 2 475 L 0 477 L 0 480 L 0 504 L 0 512 L 8 512 L 248 512 L 256 512 L 256 504 L 256 480 L 256 477 L 255 475 L 215 419 L 212 416 L 208 416 L 48 416 L 48 416 Z M 67 192 L 48 192 L 48 240 L 72 240 L 77 240 L 60 384 L 196 384 L 179 240 L 184 240 L 208 240 L 208 192 L 190 192 L 240 92 L 219 78 L 214 83 Q 205 93 192 90 Q 176 81 177 64 L 149 64 Q 150 65 146 75 Q 143 84 128 85 Q 113 84 110 75 Q 106 65 107 64 L 79 64 Q 80 81 64 90 Q 52 93 42 83 L 37 78 L 16 92 L 67 192 L 67 192 Z"/>
</svg>
