<svg xmlns="http://www.w3.org/2000/svg" viewBox="0 0 512 512">
  <path d="M 86.53521126760563 25.239436619718308 Q 88.33802816901408 86.53521126760563 128.90140845070422 127.09859154929578 L 128.90140845070422 127.09859154929578 L 128.90140845070422 127.09859154929578 Q 169.46478873239437 167.66197183098592 230.7605633802817 169.46478873239437 L 230.7605633802817 256 L 230.7605633802817 256 L 230.7605633802817 284.84507042253523 L 230.7605633802817 284.84507042253523 L 288.4507042253521 284.84507042253523 L 288.4507042253521 284.84507042253523 L 288.4507042253521 256 L 288.4507042253521 256 L 288.4507042253521 169.46478873239437 L 288.4507042253521 169.46478873239437 Q 286.6478873239437 108.16901408450704 246.08450704225353 67.6056338028169 Q 205.5211267605634 27.04225352112676 144.22535211267606 25.239436619718308 L 86.53521126760563 25.239436619718308 L 86.53521126760563 25.239436619718308 Z M 432.67605633802816 25.239436619718308 L 374.98591549295776 25.239436619718308 L 432.67605633802816 25.239436619718308 L 374.98591549295776 25.239436619718308 Q 319.09859154929575 26.140845070422536 279.4366197183099 61.29577464788732 Q 315.49295774647885 105.46478873239437 317.2957746478873 166.7605633802817 Q 367.77464788732397 155.94366197183098 399.32394366197184 117.1830985915493 Q 431.77464788732397 78.4225352112676 432.67605633802816 25.239436619718308 L 432.67605633802816 25.239436619718308 Z M 126.19718309859155 320 L 62.19718309859155 371.38028169014086 L 126.19718309859155 320 L 62.19718309859155 371.38028169014086 L 0 371.38028169014086 L 0 371.38028169014086 L 0 486.76056338028167 L 0 486.76056338028167 L 28.845070422535212 486.76056338028167 L 356.9577464788732 486.76056338028167 L 366.8732394366197 480.4507042253521 L 366.8732394366197 480.4507042253521 L 482.2535211267606 401.1267605633803 L 482.2535211267606 401.1267605633803 L 512 380.3943661971831 L 512 380.3943661971831 L 470.53521126760563 320.90140845070425 L 470.53521126760563 320.90140845070425 L 440.7887323943662 341.63380281690144 L 440.7887323943662 341.63380281690144 L 356.056338028169 400.22535211267603 L 356.056338028169 400.22535211267603 L 230.7605633802817 400.22535211267603 L 230.7605633802817 400.22535211267603 L 230.7605633802817 371.38028169014086 L 230.7605633802817 371.38028169014086 L 259.6056338028169 371.38028169014086 L 346.14084507042253 371.38028169014086 L 346.14084507042253 313.6901408450704 L 346.14084507042253 313.6901408450704 L 317.2957746478873 313.6901408450704 L 134.30985915492957 313.6901408450704 L 126.19718309859155 320 L 126.19718309859155 320 Z" />
</svg>