<svg xmlns="http://www.w3.org/2000/svg" viewBox="0 0 576 512">
    <path d="M 0 0 L 224 0 L 224 160 L 384 160 L 384 199 Q 328 215 292 261 Q 257 306 256 368 Q 256 413 276 450 Q 296 488 331 512 L 0 512 L 0 0 L 0 0 Z M 384 128 L 256 128 L 256 0 L 384 128 L 384 128 Z M 288 368 Q 288 329 307 296 L 307 296 Q 326 263 360 243 Q 394 224 432 224 Q 470 224 504 243 Q 538 263 557 296 Q 576 329 576 368 Q 576 407 557 440 Q 538 473 504 493 Q 470 512 432 512 Q 394 512 360 493 Q 326 473 307 440 Q 288 407 288 368 L 288 368 Z M 512 384 L 512 352 L 496 352 L 368 352 L 352 352 L 352 384 L 368 384 L 496 384 L 512 384 L 512 384 Z"/>
</svg>
