<svg xmlns="http://www.w3.org/2000/svg" viewBox="0 0 512 512">
  <path d="M 510.49115913555994 45.26522593320236 L 488.3614931237721 68.4007858546169 L 510.49115913555994 45.26522593320236 L 488.3614931237721 68.4007858546169 L 464.22003929273086 92.54223968565816 L 464.22003929273086 92.54223968565816 L 441.0844793713163 114.67190569744598 L 441.0844793713163 114.67190569744598 L 395.81925343811395 69.40667976424362 L 395.81925343811395 69.40667976424362 L 417.9489194499018 46.27111984282908 L 417.9489194499018 46.27111984282908 L 442.090373280943 22.12966601178782 L 442.090373280943 22.12966601178782 L 465.22593320235757 0 L 465.22593320235757 0 L 510.49115913555994 45.26522593320236 L 510.49115913555994 45.26522593320236 Z M 204.69941060903733 351.0569744597249 L 182.5697445972495 374.19253438113947 L 204.69941060903733 351.0569744597249 L 182.5697445972495 374.19253438113947 L 69.90962671905697 486.85265225933205 L 69.90962671905697 486.85265225933205 L 46.77406679764243 508.9823182711198 L 46.77406679764243 508.9823182711198 L 1.5088408644400786 463.7170923379175 L 1.5088408644400786 463.7170923379175 L 23.638506876227897 440.58153241650297 L 23.638506876227897 440.58153241650297 L 136.29862475442044 327.9214145383104 L 136.29862475442044 327.9214145383104 L 159.43418467583498 305.7917485265226 L 159.43418467583498 305.7917485265226 L 204.69941060903733 351.0569744597249 L 204.69941060903733 351.0569744597249 Z M 239.9056974459725 125.73673870333988 Q 191.62278978388997 126.7426326129666 160.4400785854617 158.9312377210216 L 160.4400785854617 158.9312377210216 L 160.4400785854617 158.9312377210216 Q 128.25147347740668 190.1139489194499 127.24557956777996 238.3968565815324 L 62.86836935166994 238.3968565815324 L 62.86836935166994 238.3968565815324 Q 64.88015717092338 162.9548133595285 115.17485265225933 113.66601178781926 Q 164.46365422396858 63.3713163064833 239.9056974459725 61.35952848722986 Q 315.34774066797644 63.3713163064833 364.63654223968564 113.66601178781926 Q 414.9312377210216 162.9548133595285 416.9430255402751 238.3968565815324 Q 416.9430255402751 279.6385068762279 399.84282907662083 314.8447937131631 Q 382.7426326129666 350.0510805500982 352.56581532416504 375.19842829076623 L 352.56581532416504 399.3398821218075 L 352.56581532416504 399.3398821218075 Q 351.55992141453834 447.62278978388997 319.3713163064833 478.8055009823183 Q 288.188605108055 510.9941060903733 239.9056974459725 512 L 207.71709233791748 512 L 207.71709233791748 512 L 207.71709233791748 447.62278978388997 L 207.71709233791748 447.62278978388997 L 239.9056974459725 447.62278978388997 L 239.9056974459725 447.62278978388997 Q 260.0235756385069 446.61689587426326 274.10609037328095 433.5402750491159 Q 287.1827111984283 419.45776031434184 288.188605108055 399.3398821218075 L 288.188605108055 359.1041257367387 L 288.188605108055 359.1041257367387 L 288.188605108055 342.00392927308445 L 288.188605108055 342.00392927308445 L 302.2711198428291 331.94499017681727 L 302.2711198428291 331.94499017681727 Q 325.4066797642436 316.8565815324165 338.483300589391 292.71512770137525 Q 352.56581532416504 267.56777996070724 352.56581532416504 238.3968565815324 Q 351.55992141453834 190.1139489194499 319.3713163064833 158.9312377210216 Q 288.188605108055 126.7426326129666 239.9056974459725 125.73673870333988 L 239.9056974459725 125.73673870333988 Z M 207.71709233791748 238.3968565815324 L 159.43418467583498 238.3968565815324 L 207.71709233791748 238.3968565815324 L 159.43418467583498 238.3968565815324 Q 160.4400785854617 204.19646365422398 182.5697445972495 181.06090373280944 Q 205.70530451866404 158.9312377210216 239.9056974459725 157.9253438113949 Q 274.10609037328095 158.9312377210216 297.2416502946955 181.06090373280944 Q 319.3713163064833 204.19646365422398 320.37721021611003 238.3968565815324 L 272.0943025540275 238.3968565815324 L 272.0943025540275 238.3968565815324 Q 272.0943025540275 224.31434184675834 263.04125736738706 215.26129666011786 Q 253.98821218074656 206.20825147347742 239.9056974459725 206.20825147347742 Q 225.82318271119843 206.20825147347742 216.77013752455795 215.26129666011786 Q 207.71709233791748 224.31434184675834 207.71709233791748 238.3968565815324 L 207.71709233791748 238.3968565815324 Z" />
</svg>