<svg xmlns="http://www.w3.org/2000/svg" viewBox="0 0 448 457">
    <path d="M 448 448 Q 447 323 387 222 L 387 222 Q 327 121 226 61 L 226 61 Q 125 1 0 0 L 0 32 Q 116 33 210 89 Q 304 144 359 238 Q 415 332 416 448 L 448 448 L 448 448 Z M 0 176 Q 76 177 137 213 L 137 213 Q 199 249 235 311 L 235 311 Q 271 372 272 448 L 304 448 Q 303 363 262 295 Q 222 226 153 186 Q 85 145 0 144 L 0 176 L 0 176 Z M 32 384 Q 32 370 41 361 L 41 361 Q 50 352 64 352 Q 78 352 87 361 Q 96 370 96 384 Q 96 398 87 407 Q 78 416 64 416 Q 50 416 41 407 Q 32 398 32 384 L 32 384 Z M 128 384 Q 127 348 96 329 Q 64 311 32 329 Q 1 348 0 384 Q 1 420 32 439 Q 64 457 96 439 Q 127 420 128 384 L 128 384 Z"/>
</svg>
