<svg xmlns="http://www.w3.org/2000/svg" viewBox="0 0 512 512">
  <path d="M 124.54054054054055 0 L 256 189.77606177606177 L 124.54054054054055 0 L 256 189.77606177606177 L 398.33204633204633 189.77606177606177 L 398.33204633204633 189.77606177606177 L 398.33204633204633 118.61003861003861 L 398.33204633204633 118.61003861003861 L 398.33204633204633 94.88803088803088 L 398.33204633204633 94.88803088803088 L 422.05405405405406 94.88803088803088 L 509.03474903474904 94.88803088803088 L 509.03474903474904 142.33204633204633 L 509.03474903474904 142.33204633204633 L 485.3127413127413 142.33204633204633 L 445.7760617760618 142.33204633204633 L 445.7760617760618 189.77606177606177 L 445.7760617760618 189.77606177606177 L 445.7760617760618 221.40540540540542 L 445.7760617760618 221.40540540540542 Q 445.7760617760618 262.9189189189189 427.984555984556 301.4671814671815 Q 411.18146718146716 340.015444015444 379.55212355212353 368.6795366795367 Q 347.9227799227799 396.35521235521236 307.3976833976834 412.16988416988414 Q 267.86100386100384 426.996138996139 224.37065637065638 426.996138996139 Q 180.8803088803089 426.996138996139 141.34362934362935 412.16988416988414 Q 100.81853281853282 396.35521235521236 69.1891891891892 368.6795366795367 Q 37.55984555984556 340.015444015444 20.756756756756758 301.4671814671815 Q 2.965250965250965 262.9189189189189 2.965250965250965 221.40540540540542 L 2.965250965250965 189.77606177606177 L 2.965250965250965 189.77606177606177 L 2.965250965250965 189.77606177606177 L 2.965250965250965 189.77606177606177 Q 5.93050193050193 126.51737451737452 38.54826254826255 77.0965250965251 Q 71.16602316602317 27.675675675675677 124.54054054054055 0 L 124.54054054054055 0 Z M 82.03861003861005 411.18146718146716 Q 108.72586872586872 412.16988416988414 123.55212355212355 434.9034749034749 Q 135.41312741312743 458.6254826254826 123.55212355212355 482.34749034749035 Q 108.72586872586872 505.0810810810811 82.03861003861005 506.0694980694981 Q 55.351351351351354 505.0810810810811 40.52509652509652 482.34749034749035 Q 28.664092664092664 458.6254826254826 40.52509652509652 434.9034749034749 Q 55.351351351351354 412.16988416988414 82.03861003861005 411.18146718146716 L 82.03861003861005 411.18146718146716 Z M 319.25868725868725 458.6254826254826 Q 320.24710424710423 431.9382239382239 342.980694980695 417.11196911196913 Q 366.7027027027027 405.25096525096524 390.42471042471044 417.11196911196913 Q 413.1583011583012 431.9382239382239 414.1467181467182 458.6254826254826 Q 413.1583011583012 485.3127413127413 390.42471042471044 500.13899613899616 Q 366.7027027027027 512 342.980694980695 500.13899613899616 Q 320.24710424710423 485.3127413127413 319.25868725868725 458.6254826254826 L 319.25868725868725 458.6254826254826 Z M 58.316602316602314 268.8494208494208 Q 60.293436293436294 275.7683397683398 63.25868725868726 281.6988416988417 Q 77.0965250965251 311.35135135135135 101.8069498069498 333.0965250965251 Q 125.52895752895753 355.83011583011586 158.14671814671814 367.6911196911197 Q 189.77606177606177 379.55212355212353 224.37065637065638 379.55212355212353 Q 258.96525096525096 379.55212355212353 291.58301158301157 367.6911196911197 Q 323.2123552123552 355.83011583011586 347.9227799227799 333.0965250965251 Q 371.64478764478764 311.35135135135135 385.4826254826255 281.6988416988417 Q 388.44787644787647 275.7683397683398 390.42471042471044 268.8494208494208 Q 396.35521235521236 253.03474903474904 397.34362934362935 237.22007722007723 L 51.397683397683394 237.22007722007723 L 51.397683397683394 237.22007722007723 Q 53.374517374517374 253.03474903474904 58.316602316602314 268.8494208494208 L 58.316602316602314 268.8494208494208 Z" />
</svg>