<svg xmlns="http://www.w3.org/2000/svg" viewBox="0 0 512 512">
  <path d="M 273.06666666666666 17.066666666666666 L 256 0 L 273.06666666666666 17.066666666666666 L 256 0 L 238.93333333333334 17.066666666666666 L 238.93333333333334 17.066666666666666 L 174.68235294117648 81.31764705882352 L 174.68235294117648 81.31764705882352 L 157.6156862745098 98.3843137254902 L 157.6156862745098 98.3843137254902 L 191.74901960784314 132.51764705882354 L 191.74901960784314 132.51764705882354 L 208.8156862745098 115.45098039215686 L 208.8156862745098 115.45098039215686 L 231.90588235294118 92.36078431372549 L 231.90588235294118 92.36078431372549 L 231.90588235294118 167.65490196078431 L 231.90588235294118 167.65490196078431 L 231.90588235294118 191.74901960784314 L 231.90588235294118 191.74901960784314 L 280.09411764705885 191.74901960784314 L 280.09411764705885 191.74901960784314 L 280.09411764705885 167.65490196078431 L 280.09411764705885 167.65490196078431 L 280.09411764705885 92.36078431372549 L 280.09411764705885 92.36078431372549 L 303.1843137254902 115.45098039215686 L 303.1843137254902 115.45098039215686 L 320.25098039215686 132.51764705882354 L 320.25098039215686 132.51764705882354 L 354.3843137254902 98.3843137254902 L 354.3843137254902 98.3843137254902 L 337.3176470588235 81.31764705882352 L 337.3176470588235 81.31764705882352 L 273.06666666666666 17.066666666666666 L 273.06666666666666 17.066666666666666 Z M 280.09411764705885 344.3450980392157 L 280.09411764705885 320.25098039215686 L 280.09411764705885 344.3450980392157 L 280.09411764705885 320.25098039215686 L 231.90588235294118 320.25098039215686 L 231.90588235294118 320.25098039215686 L 231.90588235294118 344.3450980392157 L 231.90588235294118 344.3450980392157 L 231.90588235294118 419.6392156862745 L 231.90588235294118 419.6392156862745 L 208.8156862745098 396.54901960784315 L 208.8156862745098 396.54901960784315 L 191.74901960784314 379.4823529411765 L 191.74901960784314 379.4823529411765 L 157.6156862745098 413.6156862745098 L 157.6156862745098 413.6156862745098 L 174.68235294117648 430.6823529411765 L 174.68235294117648 430.6823529411765 L 238.93333333333334 494.93333333333334 L 238.93333333333334 494.93333333333334 L 256 512 L 256 512 L 273.06666666666666 494.93333333333334 L 273.06666666666666 494.93333333333334 L 337.3176470588235 430.6823529411765 L 337.3176470588235 430.6823529411765 L 354.3843137254902 413.6156862745098 L 354.3843137254902 413.6156862745098 L 320.25098039215686 379.4823529411765 L 320.25098039215686 379.4823529411765 L 303.1843137254902 396.54901960784315 L 303.1843137254902 396.54901960784315 L 280.09411764705885 419.6392156862745 L 280.09411764705885 419.6392156862745 L 280.09411764705885 344.3450980392157 L 280.09411764705885 344.3450980392157 Z M 95.37254901960785 223.87450980392157 L 31.12156862745098 223.87450980392157 L 95.37254901960785 223.87450980392157 L 31.12156862745098 223.87450980392157 L 31.12156862745098 288.12549019607843 L 31.12156862745098 288.12549019607843 L 95.37254901960785 288.12549019607843 L 95.37254901960785 288.12549019607843 L 95.37254901960785 223.87450980392157 L 95.37254901960785 223.87450980392157 Z M 191.74901960784314 223.87450980392157 L 127.49803921568628 223.87450980392157 L 191.74901960784314 223.87450980392157 L 127.49803921568628 223.87450980392157 L 127.49803921568628 288.12549019607843 L 127.49803921568628 288.12549019607843 L 191.74901960784314 288.12549019607843 L 191.74901960784314 288.12549019607843 L 191.74901960784314 223.87450980392157 L 191.74901960784314 223.87450980392157 Z M 223.87450980392157 288.12549019607843 L 288.12549019607843 288.12549019607843 L 223.87450980392157 288.12549019607843 L 288.12549019607843 288.12549019607843 L 288.12549019607843 223.87450980392157 L 288.12549019607843 223.87450980392157 L 223.87450980392157 223.87450980392157 L 223.87450980392157 223.87450980392157 L 223.87450980392157 288.12549019607843 L 223.87450980392157 288.12549019607843 Z M 384.5019607843137 223.87450980392157 L 320.25098039215686 223.87450980392157 L 384.5019607843137 223.87450980392157 L 320.25098039215686 223.87450980392157 L 320.25098039215686 288.12549019607843 L 320.25098039215686 288.12549019607843 L 384.5019607843137 288.12549019607843 L 384.5019607843137 288.12549019607843 L 384.5019607843137 223.87450980392157 L 384.5019607843137 223.87450980392157 Z M 416.62745098039215 223.87450980392157 L 416.62745098039215 288.12549019607843 L 416.62745098039215 223.87450980392157 L 416.62745098039215 288.12549019607843 L 480.878431372549 288.12549019607843 L 480.878431372549 288.12549019607843 L 480.878431372549 223.87450980392157 L 480.878431372549 223.87450980392157 L 416.62745098039215 223.87450980392157 L 416.62745098039215 223.87450980392157 Z" />
</svg>