<svg xmlns="http://www.w3.org/2000/svg" viewBox="0 0 512 512">
  <path d="M 32 32 L 96 32 L 32 32 L 96 32 L 96 0 L 96 0 L 32 0 L 0 0 L 0 32 L 0 32 L 0 96 L 0 96 L 32 96 L 32 96 L 32 32 L 32 32 Z M 224 32 L 224 0 L 224 32 L 224 0 L 128 0 L 128 0 L 128 32 L 128 32 L 224 32 L 224 32 Z M 32 128 L 0 128 L 32 128 L 0 128 L 0 224 L 0 224 L 32 224 L 32 224 L 32 128 L 32 128 Z M 32 256 L 0 256 L 32 256 L 0 256 L 0 320 L 0 320 L 0 352 L 0 352 L 32 352 L 96 352 L 96 320 L 96 320 L 32 320 L 32 320 L 32 256 L 32 256 Z M 128 352 L 160 352 L 128 352 L 224 352 L 224 320 L 224 320 L 192 320 L 128 320 L 128 352 L 128 352 Z M 160 384 L 160 480 L 160 384 L 160 480 L 160 512 L 160 512 L 192 512 L 512 512 L 512 480 L 512 480 L 512 192 L 512 192 L 512 160 L 512 160 L 480 160 L 384 160 L 384 192 L 384 192 L 480 192 L 480 192 L 480 480 L 480 480 L 192 480 L 192 480 L 192 384 L 192 384 L 160 384 L 160 384 Z M 352 192 L 352 160 L 352 192 L 352 160 L 352 128 L 352 128 L 320 128 L 320 128 L 320 160 L 320 160 L 320 192 L 320 192 L 320 224 L 320 224 L 352 224 L 352 224 L 352 192 L 352 192 Z M 352 32 L 352 0 L 352 32 L 352 0 L 320 0 L 256 0 L 256 32 L 256 32 L 320 32 L 320 32 L 320 96 L 320 96 L 352 96 L 352 96 L 352 32 L 352 32 Z M 256 320 L 256 352 L 256 320 L 256 352 L 320 352 L 352 352 L 352 320 L 352 320 L 352 256 L 352 256 L 320 256 L 320 256 L 320 320 L 320 320 L 256 320 L 256 320 Z" />
</svg>