<svg xmlns="http://www.w3.org/2000/svg" viewBox="0 0 576 480">
    <path d="M 0 0 L 448 0 L 448 129 Q 406 136 380 166 Q 353 197 352 240 L 352 256 L 320 256 L 314 256 L 246 110 L 239 96 L 209 96 L 202 110 L 89 352 L 142 352 L 164 304 L 284 304 L 306 352 L 320 352 L 320 448 L 0 448 L 0 0 L 0 0 Z M 261 256 L 187 256 L 224 177 L 261 256 L 261 256 Z M 464 208 Q 450 208 441 217 L 441 217 Q 432 226 432 240 L 432 288 L 496 288 L 496 240 Q 496 226 487 217 Q 478 208 464 208 L 464 208 Z M 384 240 Q 385 206 407 183 L 407 183 Q 430 161 464 160 Q 498 161 521 183 Q 543 206 544 240 L 544 288 L 576 288 L 576 480 L 352 480 L 352 288 L 384 288 L 384 240 L 384 240 Z"/>
</svg>
