<svg viewBox="0 0 432 440">
  <path
    d="M 227 315 L 216 327 L 205 315 L 77 187 L 65 176 L 88 153 L 99 165 L 200 265 L 200 160 L 200 16 L 200 0 L 232 0 L 232 16 L 232 160 L 232 265 L 333 165 L 344 153 L 367 176 L 355 187 L 227 315 L 227 315 Z M 48 392 L 48 440 L 0 440 L 0 392 L 48 392 L 48 392 Z M 144 392 L 144 440 L 96 440 L 96 392 L 144 392 L 144 392 Z M 192 440 L 192 392 L 240 392 L 240 440 L 192 440 L 192 440 Z M 336 392 L 336 440 L 288 440 L 288 392 L 336 392 L 336 392 Z M 384 392 L 432 392 L 432 440 L 384 440 L 384 392 L 384 392 Z"
  />
</svg>