<svg xmlns="http://www.w3.org/2000/svg" viewBox="0 0 512 512">
  <path d="M 42.666668 28.444445 L 199.11111 28.444445 L 42.666668 28.444445 L 199.11111 28.444445 L 199.11111 71.111115 L 199.11111 71.111115 L 42.666668 71.111115 L 42.666668 71.111115 L 42.666668 355.55554 L 42.666668 355.55554 L 469.33334 355.55554 L 469.33334 355.55554 L 469.33334 71.111115 L 469.33334 71.111115 L 312.8889 71.111115 L 312.8889 71.111115 L 312.8889 28.444445 L 312.8889 28.444445 L 469.33334 28.444445 L 512 28.444445 L 512 71.111115 L 512 71.111115 L 512 355.55554 L 512 355.55554 L 512 398.22223 L 512 398.22223 L 469.33334 398.22223 L 323.55554 398.22223 L 330.66666 440.8889 L 330.66666 440.8889 L 376.8889 440.8889 L 398.22223 440.8889 L 398.22223 483.55554 L 398.22223 483.55554 L 376.8889 483.55554 L 113.77778 483.55554 L 113.77778 440.8889 L 113.77778 440.8889 L 135.11111 440.8889 L 181.33333 440.8889 L 188.44444 398.22223 L 188.44444 398.22223 L 42.666668 398.22223 L 0 398.22223 L 0 355.55554 L 0 355.55554 L 0 71.111115 L 0 71.111115 L 0 28.444445 L 0 28.444445 L 42.666668 28.444445 L 42.666668 28.444445 Z M 288 440.8889 L 280.8889 398.22223 L 288 440.8889 L 280.8889 398.22223 L 231.11111 398.22223 L 231.11111 398.22223 L 224 440.8889 L 224 440.8889 L 288 440.8889 L 288 440.8889 Z M 277.33334 49.77778 L 277.33334 204.44444 L 277.33334 49.77778 L 277.33334 204.44444 L 312 169.77777 L 312 169.77777 L 327.1111 154.66667 L 327.1111 154.66667 L 357.33334 184.88889 L 357.33334 184.88889 L 342.22223 200 L 342.22223 200 L 271.1111 271.1111 L 271.1111 271.1111 L 256 286.22223 L 256 286.22223 L 240.88889 271.1111 L 240.88889 271.1111 L 169.77777 200 L 169.77777 200 L 154.66667 184.88889 L 154.66667 184.88889 L 184.88889 154.66667 L 184.88889 154.66667 L 200 169.77777 L 200 169.77777 L 234.66667 204.44444 L 234.66667 204.44444 L 234.66667 49.77778 L 234.66667 49.77778 L 234.66667 28.444445 L 234.66667 28.444445 L 277.33334 28.444445 L 277.33334 28.444445 L 277.33334 49.77778 L 277.33334 49.77778 Z" />
</svg>