<svg viewBox="0 0 640 512">
  <path
    d="M 64 512 L 41 489 L 23 471 L 0 448 L 23 425 L 249 199 L 272 221 L 45 448 L 64 467 L 291 240 L 313 263 L 87 489 L 64 512 L 64 512 Z M 489 87 L 464 112 L 512 160 L 608 160 L 640 160 L 640 192 Q 639 255 609 305 Q 580 356 529 385 Q 479 415 416 416 L 384 416 L 384 384 L 384 288 L 247 151 L 224 128 L 247 105 L 329 23 L 352 0 L 375 23 L 400 48 L 425 23 L 448 0 L 471 23 L 489 41 L 512 64 L 489 87 L 489 87 Z M 423 71 L 441 89 L 467 64 L 448 45 L 423 71 L 423 71 Z M 512 192 L 499 192 L 489 183 L 352 45 L 269 128 L 407 265 L 416 275 L 416 288 L 416 384 Q 498 382 552 328 Q 606 274 608 192 L 512 192 L 512 192 Z"
  />
</svg>