<svg xmlns="http://www.w3.org/2000/svg" viewBox="0 0 512 512">
  <path d="M 192 252.23529411764707 L 215.52941176470588 299.29411764705884 L 192 252.23529411764707 L 215.52941176470588 299.29411764705884 L 165.64705882352942 316.2352941176471 L 165.64705882352942 316.2352941176471 L 215.52941176470588 333.1764705882353 L 215.52941176470588 333.1764705882353 L 192 380.2352941176471 L 192 380.2352941176471 L 237.1764705882353 357.6470588235294 L 237.1764705882353 357.6470588235294 L 235.2941176470588 419.7647058823529 L 235.2941176470588 419.7647058823529 Q 197.64705882352942 411.29411764705884 175.05882352941177 383.05882352941177 Q 151.52941176470588 354.8235294117647 150.58823529411765 316.2352941176471 Q 151.52941176470588 273.88235294117646 178.8235294117647 244.7058823529412 L 194.8235294117647 226.8235294117647 L 194.8235294117647 226.8235294117647 L 176.94117647058823 211.76470588235293 L 176.94117647058823 211.76470588235293 Q 137.41176470588235 176.94117647058823 135.52941176470588 120.47058823529412 Q 136.47058823529412 81.88235294117646 157.1764705882353 52.705882352941174 L 127.05882352941177 19.764705882352942 L 127.05882352941177 19.764705882352942 Q 68.70588235294117 53.64705882352941 34.8235294117647 112 Q 0.9411764705882353 169.41176470588235 0 240.94117647058823 Q 0.9411764705882353 312.47058823529414 34.8235294117647 369.88235294117646 Q 68.70588235294117 428.2352941176471 127.05882352941177 462.11764705882354 Q 184.47058823529412 496 256 496.94117647058823 Q 327.52941176470586 496 384.94117647058823 462.11764705882354 Q 443.29411764705884 428.2352941176471 477.1764705882353 369.88235294117646 Q 511.05882352941177 312.47058823529414 512 240.94117647058823 Q 511.05882352941177 169.41176470588235 477.1764705882353 112 Q 443.29411764705884 53.64705882352941 384.94117647058823 19.764705882352942 L 355.7647058823529 52.705882352941174 L 355.7647058823529 52.705882352941174 Q 375.52941176470586 81.88235294117646 376.47058823529414 120.47058823529412 Q 374.5882352941176 176.94117647058823 335.05882352941177 211.76470588235293 L 317.1764705882353 226.8235294117647 L 317.1764705882353 226.8235294117647 L 333.1764705882353 243.76470588235293 L 333.1764705882353 243.76470588235293 Q 360.47058823529414 272.94117647058823 361.4117647058824 316.2352941176471 Q 360.47058823529414 354.8235294117647 336.94117647058823 383.05882352941177 Q 314.3529411764706 411.29411764705884 276.70588235294116 419.7647058823529 L 274.8235294117647 357.6470588235294 L 274.8235294117647 357.6470588235294 L 320 380.2352941176471 L 320 380.2352941176471 L 296.47058823529414 333.1764705882353 L 296.47058823529414 333.1764705882353 L 346.3529411764706 316.2352941176471 L 346.3529411764706 316.2352941176471 L 296.47058823529414 299.29411764705884 L 296.47058823529414 299.29411764705884 L 320 252.23529411764707 L 320 252.23529411764707 L 272 275.7647058823529 L 272 275.7647058823529 L 263.52941176470586 15.058823529411764 L 263.52941176470586 15.058823529411764 L 248.47058823529412 15.058823529411764 L 248.47058823529412 15.058823529411764 L 240 275.7647058823529 L 240 275.7647058823529 L 192 252.23529411764707 L 192 252.23529411764707 Z M 45.1764705882353 234.35294117647058 Q 46.11764705882353 219.2941176470588 48 205.1764705882353 L 64.94117647058823 221.1764705882353 L 64.94117647058823 221.1764705882353 L 75.29411764705883 232.47058823529412 L 75.29411764705883 232.47058823529412 L 96.94117647058823 210.8235294117647 L 96.94117647058823 210.8235294117647 L 85.6470588235294 200.47058823529412 L 85.6470588235294 200.47058823529412 L 57.411764705882355 171.2941176470588 L 57.411764705882355 171.2941176470588 Q 68.70588235294117 137.41176470588235 90.3529411764706 110.11764705882354 Q 90.3529411764706 114.82352941176471 90.3529411764706 120.47058823529412 Q 92.23529411764706 185.41176470588235 131.76470588235293 230.58823529411765 Q 106.3529411764706 268.2352941176471 105.41176470588235 316.2352941176471 Q 107.29411764705883 380.2352941176471 149.64705882352942 423.52941176470586 Q 111.05882352941177 400 84.70588235294117 363.29411764705884 Q 58.35294117647059 326.5882352941176 48.94117647058823 281.4117647058824 L 64.94117647058823 296.47058823529414 L 64.94117647058823 296.47058823529414 L 75.29411764705883 307.7647058823529 L 75.29411764705883 307.7647058823529 L 96.94117647058823 286.11764705882354 L 96.94117647058823 286.11764705882354 L 85.6470588235294 275.7647058823529 L 85.6470588235294 275.7647058823529 L 45.1764705882353 235.2941176470588 L 45.1764705882353 234.35294117647058 Z M 466.8235294117647 234.35294117647058 L 426.3529411764706 275.7647058823529 L 466.8235294117647 234.35294117647058 L 426.3529411764706 275.7647058823529 L 415.05882352941177 286.11764705882354 L 415.05882352941177 286.11764705882354 L 436.70588235294116 307.7647058823529 L 436.70588235294116 307.7647058823529 L 447.05882352941177 296.47058823529414 L 447.05882352941177 296.47058823529414 L 463.05882352941177 281.4117647058824 L 463.05882352941177 281.4117647058824 Q 453.6470588235294 326.5882352941176 427.29411764705884 363.29411764705884 Q 400.94117647058823 400 362.3529411764706 423.52941176470586 Q 404.70588235294116 380.2352941176471 406.5882352941176 316.2352941176471 Q 405.6470588235294 268.2352941176471 380.2352941176471 230.58823529411765 Q 419.7647058823529 185.41176470588235 421.6470588235294 120.47058823529412 Q 421.6470588235294 114.82352941176471 421.6470588235294 110.11764705882354 Q 443.29411764705884 137.41176470588235 454.5882352941176 171.2941176470588 L 426.3529411764706 200.47058823529412 L 426.3529411764706 200.47058823529412 L 415.05882352941177 210.8235294117647 L 415.05882352941177 210.8235294117647 L 436.70588235294116 232.47058823529412 L 436.70588235294116 232.47058823529412 L 447.05882352941177 221.1764705882353 L 447.05882352941177 221.1764705882353 L 464 205.1764705882353 L 464 205.1764705882353 Q 465.88235294117646 219.2941176470588 466.8235294117647 234.35294117647058 L 466.8235294117647 234.35294117647058 Z" />
</svg>