<svg xmlns="http://www.w3.org/2000/svg" viewBox="0 0 512 512">
  <path d="M 455.1111 113.77778 L 56.88889 113.77778 L 455.1111 113.77778 L 56.88889 113.77778 L 56.88889 341.33334 L 56.88889 341.33334 L 150.22223 341.33334 L 150.22223 341.33334 L 95.111115 391.1111 L 95.111115 391.1111 L 87.111115 398.22223 L 87.111115 398.22223 L 56.88889 398.22223 L 0 398.22223 L 0 341.33334 L 0 341.33334 L 0 113.77778 L 0 113.77778 L 0 56.88889 L 0 56.88889 L 56.88889 56.88889 L 512 56.88889 L 512 113.77778 L 512 113.77778 L 512 341.33334 L 512 341.33334 L 512 398.22223 L 512 398.22223 L 455.1111 398.22223 L 424.8889 398.22223 L 416.8889 391.1111 L 416.8889 391.1111 L 361.77777 341.33334 L 361.77777 341.33334 L 455.1111 341.33334 L 455.1111 341.33334 L 455.1111 113.77778 L 455.1111 113.77778 Z M 256 284.44446 L 398.22223 412.44446 L 256 284.44446 L 398.22223 412.44446 L 398.22223 455.1111 L 398.22223 455.1111 L 113.77778 455.1111 L 113.77778 455.1111 L 113.77778 412.44446 L 113.77778 412.44446 L 256 284.44446 L 256 284.44446 Z" />
</svg>