<svg viewBox="0 0 512 384">
  <path
    d="M 0 32 L 0 96 L 240 96 L 240 32 L 0 32 L 0 32 Z M 160 224 L 160 288 L 288 288 L 288 224 L 160 224 L 160 224 Z M 128 192 L 240 192 L 240 128 L 128 128 L 128 192 L 128 192 Z M 192 320 L 192 384 L 320 384 L 320 320 L 192 320 L 192 320 Z M 363 0 L 272 0 L 272 192 L 320 192 L 352 192 L 352 96 L 352 80 L 384 80 L 384 96 L 384 208 L 384 224 L 368 224 L 320 224 L 320 288 L 352 288 L 352 384 Q 420 382 465 337 Q 510 292 512 224 L 512 162 Q 511 96 465 49 L 454 38 Q 416 1 363 0 L 363 0 Z"
  />
</svg>