<svg xmlns="http://www.w3.org/2000/svg" viewBox="0 0 512 512">
  <path d="M 368 319.2 L 435.2 268.8 L 368 319.2 L 435.2 268.8 L 435.2 230.4 L 435.2 230.4 L 380.8 223.2 L 380.8 223.2 L 342.4 218.4 L 342.4 218.4 L 352 180.8 L 352 180.8 L 369.6 110.4 L 369.6 110.4 L 384 51.2 L 384 51.2 L 335.2 88 L 335.2 88 L 200.8 188.8 L 200.8 188.8 L 38.4 63.2 L 38.4 63.2 L 23.2 51.2 L 23.2 51.2 L 0 81.6 L 0 81.6 L 15.2 93.6 L 15.2 93.6 L 473.6 448.8 L 473.6 448.8 L 488.8 460.8 L 488.8 460.8 L 512 430.4 L 512 430.4 L 496.8 418.4 L 496.8 418.4 L 368 319.2 L 368 319.2 Z M 232 212.8 L 320.8 146.4 L 232 212.8 L 320.8 146.4 L 304.8 208.8 L 304.8 208.8 L 294.4 250.4 L 294.4 250.4 L 337.6 256 L 337.6 256 L 380.8 261.6 L 380.8 261.6 L 336.8 294.4 L 336.8 294.4 L 232 213.6 L 232 212.8 Z M 304 367.2 L 272.8 343.2 L 304 367.2 L 272.8 343.2 L 242.4 365.6 L 242.4 365.6 L 252 327.2 L 252 327.2 L 219.2 300.8 L 219.2 300.8 L 211.2 331.2 L 211.2 331.2 L 193.6 401.6 L 193.6 401.6 L 179.2 460.8 L 179.2 460.8 L 228 424 L 228 424 L 304 367.2 L 304 367.2 Z M 137.6 236 L 128 243.2 L 137.6 236 L 128 243.2 L 128 281.6 L 128 281.6 L 182.4 288.8 L 182.4 288.8 L 208.8 292 L 208.8 292 L 137.6 236 L 137.6 236 Z" />
</svg>