<svg xmlns="http://www.w3.org/2000/svg" viewBox="0 0 512 512">
  <path d="M 240.46966731898237 147.2876712328767 L 223.43639921722112 164.32093933463796 L 240.46966731898237 147.2876712328767 L 223.43639921722112 164.32093933463796 L 189.36986301369862 130.25440313111545 L 189.36986301369862 130.25440313111545 L 206.40313111545987 113.2211350293542 L 206.40313111545987 113.2211350293542 L 295.57729941291586 24.046966731898237 L 295.57729941291586 24.046966731898237 L 295.57729941291586 23.04500978473581 L 295.57729941291586 23.04500978473581 L 296.57925636007826 23.04500978473581 L 296.57925636007826 23.04500978473581 L 302.5909980430528 17.03326810176125 L 302.5909980430528 17.03326810176125 L 319.6242661448141 0 L 319.6242661448141 0 L 336.6575342465753 17.03326810176125 L 336.6575342465753 17.03326810176125 L 342.6692759295499 23.04500978473581 L 342.6692759295499 23.04500978473581 L 343.67123287671234 23.04500978473581 L 343.67123287671234 23.04500978473581 L 343.67123287671234 24.046966731898237 L 343.67123287671234 24.046966731898237 L 432.8454011741683 113.2211350293542 L 432.8454011741683 113.2211350293542 L 449.87866927592955 130.25440313111545 L 449.87866927592955 130.25440313111545 L 415.81213307240705 164.32093933463796 L 415.81213307240705 164.32093933463796 L 398.77886497064577 147.2876712328767 L 398.77886497064577 147.2876712328767 L 343.67123287671234 92.18003913894324 L 343.67123287671234 92.18003913894324 L 343.67123287671234 263.5146771037182 L 343.67123287671234 263.5146771037182 L 343.67123287671234 287.56164383561645 L 343.67123287671234 287.56164383561645 L 343.67123287671234 383.7495107632094 L 343.67123287671234 383.7495107632094 L 343.67123287671234 407.79647749510764 L 343.67123287671234 407.79647749510764 L 343.67123287671234 463.9060665362035 L 343.67123287671234 463.9060665362035 L 487.95303326810176 463.9060665362035 L 512 463.9060665362035 L 512 512 L 512 512 L 487.95303326810176 512 L 295.57729941291586 512 L 295.57729941291586 487.95303326810176 L 295.57729941291586 487.95303326810176 L 295.57729941291586 407.79647749510764 L 295.57729941291586 407.79647749510764 L 295.57729941291586 383.7495107632094 L 295.57729941291586 383.7495107632094 L 295.57729941291586 311.6086105675147 L 295.57729941291586 311.6086105675147 L 92.18003913894324 311.6086105675147 L 92.18003913894324 311.6086105675147 L 147.2876712328767 366.7162426614481 L 147.2876712328767 366.7162426614481 L 164.32093933463796 383.7495107632094 L 164.32093933463796 383.7495107632094 L 130.25440313111545 417.8160469667319 L 130.25440313111545 417.8160469667319 L 113.2211350293542 400.7827788649706 L 113.2211350293542 400.7827788649706 L 24.046966731898237 311.6086105675147 L 24.046966731898237 311.6086105675147 L 23.04500978473581 311.6086105675147 L 23.04500978473581 311.6086105675147 L 23.04500978473581 310.60665362035223 L 23.04500978473581 310.60665362035223 L 17.03326810176125 304.5949119373777 L 17.03326810176125 304.5949119373777 L 0 287.56164383561645 L 0 287.56164383561645 L 17.03326810176125 270.52837573385517 L 17.03326810176125 270.52837573385517 L 23.04500978473581 264.5166340508806 L 23.04500978473581 264.5166340508806 L 23.04500978473581 263.5146771037182 L 23.04500978473581 263.5146771037182 L 24.046966731898237 263.5146771037182 L 24.046966731898237 263.5146771037182 L 113.2211350293542 174.34050880626222 L 113.2211350293542 174.34050880626222 L 130.25440313111545 157.30724070450097 L 130.25440313111545 157.30724070450097 L 164.32093933463796 191.37377690802347 L 164.32093933463796 191.37377690802347 L 147.2876712328767 208.40704500978472 L 147.2876712328767 208.40704500978472 L 92.18003913894324 263.5146771037182 L 92.18003913894324 263.5146771037182 L 295.57729941291586 263.5146771037182 L 295.57729941291586 263.5146771037182 L 295.57729941291586 92.18003913894324 L 295.57729941291586 92.18003913894324 L 240.46966731898237 147.2876712328767 L 240.46966731898237 147.2876712328767 Z" />
</svg>