<svg xmlns="http://www.w3.org/2000/svg" viewBox="0 0 512 512">
  <path d="M 256 512 Q 326 511 384 478 L 384 478 L 384 478 Q 442 444 478 384 Q 512 323 512 256 Q 512 189 478 128 Q 442 68 384 34 Q 326 1 256 0 Q 186 1 128 34 Q 70 68 34 128 Q 0 189 0 256 Q 0 323 34 384 Q 70 444 128 478 Q 186 511 256 512 L 256 512 Z M 256 332 Q 346 331 417 303 Q 403 359 360 395 Q 316 431 256 432 Q 196 431 153 395 Q 109 359 96 303 Q 167 331 256 332 L 256 332 Z M 199 129 Q 213 133 220 145 L 220 145 L 220 145 Q 226 156 223 170 L 201 250 L 201 250 L 121 229 L 121 229 Q 107 225 100 213 Q 94 202 97 188 Q 101 175 113 168 Q 124 161 138 164 L 154 169 L 154 169 L 158 153 L 158 153 Q 162 139 174 132 Q 185 126 199 129 L 199 129 Z M 354 153 L 358 169 L 354 153 L 358 169 L 374 165 L 374 165 Q 388 161 399 168 Q 411 175 415 188 Q 418 202 411 214 Q 405 225 391 229 L 311 251 L 311 251 L 289 170 L 289 170 Q 286 156 292 145 Q 299 133 313 129 Q 326 126 338 133 Q 350 139 354 153 L 354 153 Z" />
</svg>