<svg xmlns="http://www.w3.org/2000/svg" viewBox="0 0 512 512">
  <path d="M 327.2 287.2 L 357.6 256.8 L 327.2 287.2 L 357.6 256.8 L 384 230.4 L 384 230.4 L 384.8 229.6 L 384.8 229.6 L 244 88.8 L 244 88.8 L 230.4 75.2 L 230.4 75.2 L 216.8 88.8 L 216.8 88.8 L 153.6 152 L 153.6 152 L 38.4 63.2 L 38.4 63.2 L 23.2 51.2 L 23.2 51.2 L 0 81.6 L 0 81.6 L 15.2 93.6 L 15.2 93.6 L 473.6 448.8 L 473.6 448.8 L 488.8 460.8 L 488.8 460.8 L 512 430.4 L 512 430.4 L 496.8 418.4 L 496.8 418.4 L 327.2 287.2 L 327.2 287.2 Z M 184 176 L 230.4 129.6 L 184 176 L 230.4 129.6 L 255.2 154.4 L 255.2 154.4 L 212 197.6 L 212 197.6 L 184 176 L 184 176 Z M 272 342.4 L 157.6 252 L 272 342.4 L 157.6 252 L 76.8 332.8 L 76.8 332.8 L 51.2 460.8 L 51.2 460.8 L 179.2 435.2 L 179.2 435.2 L 272 342.4 L 272 342.4 Z M 460.8 153.6 L 358.4 51.2 L 460.8 153.6 L 358.4 51.2 L 300.8 108.8 L 300.8 108.8 L 403.2 211.2 L 403.2 211.2 L 460.8 153.6 L 460.8 153.6 Z" />
</svg>