<svg viewBox="0 0 448 512">
  <path
    d="M 224 224 Q 256 223 280 206 L 280 206 Q 304 188 315 160 L 134 160 Q 144 188 168 206 Q 192 223 224 224 L 224 224 Z M 224 256 Q 178 255 145 229 L 145 229 Q 111 202 100 160 L 80 160 L 80 128 L 80 96 L 80 64 L 112 64 L 113 64 Q 130 35 159 18 Q 188 0 224 0 Q 260 0 289 18 Q 318 35 335 64 L 336 64 L 368 64 L 368 96 L 368 128 L 368 160 L 348 160 Q 337 202 303 229 Q 270 255 224 256 L 224 256 Z M 152 64 L 296 64 Q 268 33 224 32 Q 180 33 152 64 L 152 64 Z M 43 480 L 405 480 L 360 336 L 88 336 L 43 480 L 43 480 Z M 64 304 L 384 304 L 438 480 L 448 512 L 415 512 L 34 512 L 0 512 L 10 480 L 64 304 L 64 304 Z M 336 96 L 112 96 L 112 128 L 336 128 L 336 96 L 336 96 Z M 288 456 L 280 448 L 320 360 L 360 448 L 352 456 L 328 432 L 288 456 L 288 456 Z"
  />
</svg>