<svg xmlns="http://www.w3.org/2000/svg" viewBox="0 0 512 512">
  <path d="M 129.84911717495987 128.6163723916533 Q 147.92937399678974 126.97271268057784 149.57303370786516 108.892455858748 Q 147.92937399678974 90.81219903691814 129.84911717495987 89.1685393258427 Q 111.76886035313002 90.81219903691814 110.12520064205458 108.892455858748 Q 111.76886035313002 126.97271268057784 129.84911717495987 128.6163723916533 L 129.84911717495987 128.6163723916533 Z M 129.84911717495987 49.7207062600321 Q 163.54414125200643 50.542536115569824 180.80256821829855 79.30658105939006 Q 197.23916532905298 108.892455858748 180.80256821829855 138.47833065810593 Q 163.54414125200643 167.24237560192617 129.84911717495987 168.06420545746388 Q 96.15409309791332 167.24237560192617 78.89566613162118 138.47833065810593 Q 62.45906902086677 108.892455858748 78.89566613162118 79.30658105939006 Q 96.15409309791332 50.542536115569824 129.84911717495987 49.7207062600321 L 129.84911717495987 49.7207062600321 Z M 84.64847512038523 181.2134831460674 L 94.51043338683787 181.2134831460674 L 84.64847512038523 181.2134831460674 L 175.04975922953452 181.2134831460674 L 181.6243980738363 189.43178170144463 L 181.6243980738363 189.43178170144463 L 248.19261637239165 281.4767255216693 L 248.19261637239165 281.4767255216693 L 259.69823434991974 297.091492776886 L 259.69823434991974 297.091492776886 L 228.46869983948636 320.9245585874799 L 228.46869983948636 320.9245585874799 L 216.14125200642056 304.4879614767255 L 216.14125200642056 304.4879614767255 L 183.26805778491172 258.46548956661314 L 183.26805778491172 258.46548956661314 L 214.4975922953451 352.15409309791335 L 214.4975922953451 352.15409309791335 L 222.7158908507223 378.4526484751204 L 222.7158908507223 378.4526484751204 L 195.59550561797752 378.4526484751204 L 182.446227929374 378.4526484751204 L 182.446227929374 450.7736757624398 L 182.446227929374 450.7736757624398 L 182.446227929374 470.4975922953451 L 182.446227929374 470.4975922953451 L 142.9983948635634 470.4975922953451 L 142.9983948635634 470.4975922953451 L 142.9983948635634 450.7736757624398 L 142.9983948635634 450.7736757624398 L 142.9983948635634 378.4526484751204 L 142.9983948635634 378.4526484751204 L 116.69983948635634 378.4526484751204 L 116.69983948635634 378.4526484751204 L 116.69983948635634 450.7736757624398 L 116.69983948635634 450.7736757624398 L 116.69983948635634 470.4975922953451 L 116.69983948635634 470.4975922953451 L 77.25200642054574 470.4975922953451 L 77.25200642054574 470.4975922953451 L 77.25200642054574 450.7736757624398 L 77.25200642054574 450.7736757624398 L 77.25200642054574 378.4526484751204 L 77.25200642054574 378.4526484751204 L 64.10272873194222 378.4526484751204 L 36.982343499197434 378.4526484751204 L 45.20064205457464 352.15409309791335 L 45.20064205457464 352.15409309791335 L 76.43017656500803 259.28731942215086 L 76.43017656500803 259.28731942215086 L 43.5569823434992 304.4879614767255 L 43.5569823434992 304.4879614767255 L 31.229534510433385 320.9245585874799 L 31.229534510433385 320.9245585874799 L 0 297.091492776886 L 0 297.091492776886 L 11.50561797752809 281.4767255216693 L 11.50561797752809 281.4767255216693 L 78.89566613162118 189.43178170144463 L 78.89566613162118 189.43178170144463 L 84.64847512038523 181.2134831460674 L 84.64847512038523 181.2134831460674 Z M 91.223113964687 339.0048154093098 L 168.47512038523274 339.0048154093098 L 91.223113964687 339.0048154093098 L 168.47512038523274 339.0048154093098 L 129.84911717495987 223.9486356340289 L 129.84911717495987 223.9486356340289 L 91.223113964687 339.0048154093098 L 91.223113964687 339.0048154093098 Z M 412.5585874799358 108.892455858748 Q 410.91492776886037 90.81219903691814 392.8346709470305 89.1685393258427 Q 374.75441412520064 90.81219903691814 373.1107544141252 108.892455858748 Q 374.75441412520064 126.97271268057784 392.8346709470305 128.6163723916533 Q 410.91492776886037 126.97271268057784 412.5585874799358 108.892455858748 L 412.5585874799358 108.892455858748 Z M 333.6629213483146 108.892455858748 Q 334.48475120385234 75.19743178170144 363.2487961476726 57.93900481540931 Q 392.8346709470305 41.50240770465489 422.4205457463884 57.93900481540931 Q 451.18459069020867 75.19743178170144 452.0064205457464 108.892455858748 Q 451.18459069020867 142.58747993579453 422.4205457463884 159.84590690208668 Q 392.8346709470305 176.2825040128411 363.2487961476726 159.84590690208668 Q 334.48475120385234 142.58747993579453 333.6629213483146 108.892455858748 L 333.6629213483146 108.892455858748 Z M 359.13964686998395 181.2134831460674 L 427.3515248796148 181.2134831460674 L 359.13964686998395 181.2134831460674 L 438.0353130016051 181.2134831460674 L 443.7881219903692 190.25361155698235 L 443.7881219903692 190.25361155698235 L 501.31621187800965 282.29855537720704 L 501.31621187800965 282.29855537720704 L 512 299.5569823434992 L 512 299.5569823434992 L 479.1268057784912 320.1027287319422 L 479.1268057784912 320.1027287319422 L 468.4430176565008 303.6661316211878 L 468.4430176565008 303.6661316211878 L 445.4317817014446 267.5056179775281 L 445.4317817014446 267.5056179775281 L 445.4317817014446 450.7736757624398 L 445.4317817014446 450.7736757624398 L 445.4317817014446 470.4975922953451 L 445.4317817014446 470.4975922953451 L 405.983948635634 470.4975922953451 L 405.983948635634 470.4975922953451 L 405.983948635634 450.7736757624398 L 405.983948635634 450.7736757624398 L 405.983948635634 365.30337078651684 L 405.983948635634 365.30337078651684 L 379.685393258427 365.30337078651684 L 379.685393258427 365.30337078651684 L 379.685393258427 450.7736757624398 L 379.685393258427 450.7736757624398 L 379.685393258427 470.4975922953451 L 379.685393258427 470.4975922953451 L 340.2375601926164 470.4975922953451 L 340.2375601926164 470.4975922953451 L 340.2375601926164 450.7736757624398 L 340.2375601926164 450.7736757624398 L 340.2375601926164 267.5056179775281 L 340.2375601926164 267.5056179775281 L 317.2263242375602 303.6661316211878 L 317.2263242375602 303.6661316211878 L 307.36436597110753 320.1027287319422 L 307.36436597110753 320.1027287319422 L 273.669341894061 298.7351524879615 L 273.669341894061 298.7351524879615 L 284.35313001605135 282.29855537720704 L 284.35313001605135 282.29855537720704 L 341.88121990369183 190.25361155698235 L 341.88121990369183 190.25361155698235 L 347.63402889245583 181.2134831460674 L 347.63402889245583 181.2134831460674 L 359.13964686998395 181.2134831460674 L 359.13964686998395 181.2134831460674 Z M 405.983948635634 325.85553772070625 L 405.983948635634 220.66131621187802 L 405.983948635634 325.85553772070625 L 405.983948635634 220.66131621187802 L 379.685393258427 220.66131621187802 L 379.685393258427 220.66131621187802 L 379.685393258427 325.85553772070625 L 379.685393258427 325.85553772070625 L 405.983948635634 325.85553772070625 L 405.983948635634 325.85553772070625 Z" />
</svg>