<svg xmlns="http://www.w3.org/2000/svg" viewBox="0 0 576 512">
    <path d="M 320 0 L 320 32 L 320 50 Q 421 62 490 126 Q 560 190 574 286 L 576 304 L 558 304 L 552 304 L 544 304 L 540 299 Q 517 273 480 272 Q 446 273 423 295 Q 401 318 400 352 L 384 352 L 368 352 Q 367 318 345 295 Q 322 273 288 272 Q 254 273 231 295 Q 209 318 208 352 L 192 352 L 176 352 Q 175 318 153 295 Q 130 273 96 272 Q 59 273 36 299 L 32 304 L 24 304 L 18 304 L 0 304 L 2 286 Q 16 190 86 126 Q 155 62 256 50 L 256 32 L 256 0 L 320 0 L 320 0 Z M 256 316 Q 269 304 288 304 Q 307 304 320 316 L 320 431 Q 319 465 296 488 Q 273 511 239 512 Q 215 512 196 500 Q 177 488 166 467 L 164 462 L 149 434 L 206 405 L 221 434 L 223 438 Q 228 448 239 448 Q 255 447 256 431 L 256 316 L 256 316 Z"/>
</svg>
