<svg xmlns="http://www.w3.org/2000/svg" viewBox="0 0 512 512">
  <path d="M 179.2 396.8 Q 216.8 396.8 247.2 379.2 L 247.2 379.2 L 247.2 379.2 Q 277.6 362.4 297.6 332.8 L 340.8 332.8 L 340.8 332.8 Q 318.4 379.2 276 406.4 Q 233.6 434.4 179.2 435.2 Q 128.8 434.4 88.8 410.4 Q 48 387.2 24.8 346.4 Q 0.8 306.4 0 256 Q 0.8 205.6 24.8 165.6 Q 48 124.8 88.8 101.6 Q 128.8 77.6 179.2 76.8 Q 252 78.4 301.6 124.8 Q 351.2 172 357.6 243.2 L 319.2 243.2 L 319.2 243.2 Q 313.6 188 274.4 152 Q 235.2 116.8 179.2 115.2 Q 119.2 116.8 80 156.8 Q 40 196 38.4 256 Q 40 316 80 355.2 Q 119.2 395.2 179.2 396.8 L 179.2 396.8 Z M 435.2 230.4 L 382.4 230.4 L 435.2 230.4 L 382.4 230.4 Q 380 210.4 373.6 192 L 435.2 192 L 435.2 192 Q 451.2 191.2 462.4 180.8 Q 472.8 169.6 473.6 153.6 Q 472.8 137.6 462.4 126.4 Q 451.2 116 435.2 115.2 L 403.2 115.2 L 384 115.2 L 384 76.8 L 384 76.8 L 403.2 76.8 L 435.2 76.8 Q 468 77.6 489.6 99.2 Q 511.2 120.8 512 153.6 Q 511.2 186.4 489.6 208 Q 468 229.6 435.2 230.4 L 435.2 230.4 Z M 358.4 435.2 L 358.4 396.8 L 358.4 435.2 L 358.4 396.8 L 377.6 396.8 L 428.8 396.8 Q 448 396 460.8 384 Q 472.8 371.2 473.6 352 Q 472.8 332.8 460.8 320 Q 448 308 428.8 307.2 L 275.2 307.2 L 256 307.2 L 256 268.8 L 256 268.8 L 275.2 268.8 L 428.8 268.8 Q 464 269.6 488 292.8 Q 511.2 316.8 512 352 Q 511.2 387.2 488 411.2 Q 464 434.4 428.8 435.2 L 377.6 435.2 L 358.4 435.2 Z M 198.4 153.6 L 198.4 172.8 L 198.4 153.6 L 198.4 172.8 L 198.4 262.4 L 198.4 262.4 L 198.4 281.6 L 198.4 281.6 L 160 281.6 L 160 281.6 L 160 262.4 L 160 262.4 L 160 172.8 L 160 172.8 L 160 153.6 L 160 153.6 L 198.4 153.6 L 198.4 153.6 Z M 160 345.6 L 160 307.2 L 160 345.6 L 160 307.2 L 198.4 307.2 L 198.4 307.2 L 198.4 345.6 L 198.4 345.6 L 160 345.6 L 160 345.6 Z" />
</svg>