<svg xmlns="http://www.w3.org/2000/svg" viewBox="0 0 512 512">
  <path d="M 456.24888888888887 201.38666666666666 Q 433.49333333333334 219.5911111111111 405.0488888888889 230.9688888888889 Q 341.3333333333333 256 256 256 Q 170.66666666666666 256 106.95111111111112 230.9688888888889 Q 78.50666666666666 219.5911111111111 55.75111111111111 201.38666666666666 L 55.75111111111111 369.77777777777777 L 55.75111111111111 369.77777777777777 Q 56.888888888888886 370.91555555555556 58.026666666666664 372.05333333333334 Q 65.99111111111111 385.70666666666665 88.74666666666667 405.0488888888889 Q 109.22666666666667 424.3911111111111 150.18666666666667 439.1822222222222 Q 191.14666666666668 455.1111111111111 256 456.24888888888887 Q 320.85333333333335 455.1111111111111 361.81333333333333 439.1822222222222 Q 402.7733333333333 424.3911111111111 424.3911111111111 405.0488888888889 Q 446.00888888888886 385.70666666666665 453.97333333333336 372.05333333333334 Q 455.1111111111111 370.91555555555556 456.24888888888887 369.77777777777777 L 456.24888888888887 201.38666666666666 L 456.24888888888887 201.38666666666666 Z M 73.95555555555555 128.5688888888889 Q 73.95555555555555 149.04888888888888 97.8488888888889 164.9777777777778 L 155.87555555555556 111.50222222222222 L 155.87555555555556 111.50222222222222 L 159.2888888888889 108.08888888888889 L 159.2888888888889 108.08888888888889 L 162.70222222222222 106.95111111111112 L 162.70222222222222 106.95111111111112 L 249.17333333333335 77.36888888888889 L 249.17333333333335 77.36888888888889 L 238.93333333333334 55.75111111111111 L 238.93333333333334 55.75111111111111 Q 168.39111111111112 59.16444444444444 121.74222222222222 79.64444444444445 Q 75.09333333333333 98.98666666666666 73.95555555555555 128.5688888888889 L 73.95555555555555 128.5688888888889 Z M 143.36 185.45777777777778 Q 191.14666666666668 201.38666666666666 256 201.38666666666666 Q 325.40444444444444 201.38666666666666 374.3288888888889 184.32 L 291.2711111111111 152.4622222222222 L 291.2711111111111 152.4622222222222 L 282.1688888888889 149.04888888888888 L 282.1688888888889 149.04888888888888 L 278.75555555555553 141.08444444444444 L 278.75555555555553 141.08444444444444 L 268.5155555555556 118.32888888888888 L 268.5155555555556 118.32888888888888 L 183.1822222222222 149.04888888888888 L 183.1822222222222 149.04888888888888 L 143.36 185.45777777777778 L 143.36 185.45777777777778 Z M 438.0444444444444 128.5688888888889 Q 436.9066666666667 101.26222222222222 395.94666666666666 81.92 L 395.94666666666666 81.92 L 395.94666666666666 81.92 Q 354.9866666666667 62.577777777777776 290.1333333333333 56.888888888888886 L 315.1644444444444 112.64 L 315.1644444444444 112.64 L 426.6666666666667 154.73777777777778 L 426.6666666666667 154.73777777777778 Q 438.0444444444444 142.22222222222223 438.0444444444444 128.5688888888889 L 438.0444444444444 128.5688888888889 Z M 256 1.1377777777777778 Q 364.0888888888889 2.2755555555555556 435.7688888888889 38.684444444444445 L 435.7688888888889 38.684444444444445 L 435.7688888888889 38.684444444444445 Q 508.58666666666664 73.95555555555555 510.8622222222222 128.5688888888889 L 510.8622222222222 383.43111111111114 L 510.8622222222222 383.43111111111114 Q 512 385.70666666666665 489.24444444444447 416.4266666666667 Q 466.4888888888889 447.14666666666665 410.73777777777775 477.8666666666667 Q 354.9866666666667 508.58666666666664 256 510.8622222222222 Q 157.01333333333332 508.58666666666664 101.26222222222222 477.8666666666667 Q 45.51111111111111 447.14666666666665 22.755555555555556 416.4266666666667 Q 0 385.70666666666665 1.1377777777777778 383.43111111111114 L 1.1377777777777778 128.5688888888889 L 1.1377777777777778 128.5688888888889 Q 3.4133333333333336 73.95555555555555 76.2311111111111 38.684444444444445 Q 147.9111111111111 2.2755555555555556 256 1.1377777777777778 L 256 1.1377777777777778 Z" />
</svg>