<svg xmlns="http://www.w3.org/2000/svg" viewBox="0 0 512 512">
  <path d="M 237.38181818181818 37.236363636363635 Q 189.6727272727273 38.4 158.25454545454545 69.81818181818181 L 158.25454545454545 69.81818181818181 L 158.25454545454545 69.81818181818181 Q 126.83636363636364 101.23636363636363 125.67272727272727 148.94545454545454 L 88.43636363636364 148.94545454545454 L 88.43636363636364 148.94545454545454 Q 89.6 86.10909090909091 131.4909090909091 43.054545454545455 Q 174.54545454545453 1.1636363636363636 237.38181818181818 0 L 274.6181818181818 0 L 274.6181818181818 0 Q 337.45454545454544 1.1636363636363636 380.5090909090909 43.054545454545455 Q 422.4 86.10909090909091 423.56363636363636 148.94545454545454 Q 422.4 212.94545454545454 371.2 253.6727272727273 L 274.6181818181818 325.8181818181818 L 274.6181818181818 325.8181818181818 L 274.6181818181818 363.05454545454546 L 274.6181818181818 363.05454545454546 L 274.6181818181818 372.3636363636364 L 274.6181818181818 372.3636363636364 L 274.6181818181818 381.6727272727273 L 274.6181818181818 381.6727272727273 L 274.6181818181818 390.9818181818182 L 274.6181818181818 390.9818181818182 L 237.38181818181818 390.9818181818182 L 237.38181818181818 390.9818181818182 L 237.38181818181818 381.6727272727273 L 237.38181818181818 381.6727272727273 L 237.38181818181818 372.3636363636364 L 237.38181818181818 372.3636363636364 L 237.38181818181818 363.05454545454546 L 237.38181818181818 363.05454545454546 L 237.38181818181818 316.5090909090909 L 237.38181818181818 316.5090909090909 L 237.38181818181818 307.2 L 237.38181818181818 307.2 L 237.38181818181818 148.94545454545454 L 237.38181818181818 148.94545454545454 L 237.38181818181818 130.3272727272727 L 237.38181818181818 130.3272727272727 L 274.6181818181818 130.3272727272727 L 274.6181818181818 130.3272727272727 L 274.6181818181818 148.94545454545454 L 274.6181818181818 148.94545454545454 L 274.6181818181818 279.27272727272725 L 274.6181818181818 279.27272727272725 L 349.09090909090907 223.4181818181818 L 349.09090909090907 223.4181818181818 Q 385.1636363636364 195.4909090909091 386.3272727272727 148.94545454545454 Q 385.1636363636364 101.23636363636363 353.74545454545455 69.81818181818181 Q 322.3272727272727 38.4 274.6181818181818 37.236363636363635 L 237.38181818181818 37.236363636363635 L 237.38181818181818 37.236363636363635 Z M 228.07272727272726 456.1454545454545 L 283.92727272727274 456.1454545454545 L 228.07272727272726 456.1454545454545 L 283.92727272727274 456.1454545454545 L 283.92727272727274 512 L 283.92727272727274 512 L 228.07272727272726 512 L 228.07272727272726 512 L 228.07272727272726 456.1454545454545 L 228.07272727272726 456.1454545454545 Z" />
</svg>