<svg xmlns="http://www.w3.org/2000/svg" viewBox="0 0 512 512">
  <path d="M 480 64 L 480 160 L 480 64 L 480 160 L 32 160 L 32 160 L 32 64 L 32 64 L 480 64 L 480 64 Z M 32 448 L 32 192 L 32 448 L 32 192 L 240 192 L 240 192 L 240 448 L 240 448 L 32 448 L 32 448 Z M 272 448 L 272 192 L 272 448 L 272 192 L 480 192 L 480 192 L 480 448 L 480 448 L 272 448 L 272 448 Z M 32 32 L 0 32 L 32 32 L 0 32 L 0 64 L 0 64 L 0 448 L 0 448 L 0 480 L 0 480 L 32 480 L 512 480 L 512 448 L 512 448 L 512 64 L 512 64 L 512 32 L 512 32 L 480 32 L 32 32 Z" />
</svg>