<svg xmlns="http://www.w3.org/2000/svg" viewBox="0 0 512 512">
  <path d="M 357.8408736349454 64.29953198127924 L 0 64.29953198127924 L 357.8408736349454 64.29953198127924 L 0 64.29953198127924 L 0 422.14040561622465 L 0 422.14040561622465 L 269.17940717628704 422.14040561622465 L 269.17940717628704 422.14040561622465 Q 231.6380655226209 380.6053042121685 230.0405616224649 319.90015600624025 Q 230.8393135725429 285.55382215288614 248.41185647425897 255.201248049922 Q 265.18564742589706 224.8486739469579 287.5507020280811 200.08736349453977 Q 319.50078003120126 164.14352574102963 357.8408736349454 133.79095163806554 L 357.8408736349454 64.29953198127924 L 357.8408736349454 64.29953198127924 Z M 89.46021840873635 134.58970358814352 L 89.46021840873635 249.60998439937597 L 89.46021840873635 134.58970358814352 L 89.46021840873635 249.60998439937597 L 89.46021840873635 268.78003120124805 L 89.46021840873635 268.78003120124805 L 51.1201248049922 268.78003120124805 L 51.1201248049922 268.78003120124805 L 51.1201248049922 249.60998439937597 L 51.1201248049922 249.60998439937597 L 51.1201248049922 134.58970358814352 L 51.1201248049922 134.58970358814352 L 51.1201248049922 115.41965678627145 L 51.1201248049922 115.41965678627145 L 89.46021840873635 115.41965678627145 L 89.46021840873635 115.41965678627145 L 89.46021840873635 134.58970358814352 L 89.46021840873635 134.58970358814352 Z M 166.14040561622465 134.58970358814352 L 166.14040561622465 249.60998439937597 L 166.14040561622465 134.58970358814352 L 166.14040561622465 249.60998439937597 L 166.14040561622465 268.78003120124805 L 166.14040561622465 268.78003120124805 L 127.8003120124805 268.78003120124805 L 127.8003120124805 268.78003120124805 L 127.8003120124805 249.60998439937597 L 127.8003120124805 249.60998439937597 L 127.8003120124805 134.58970358814352 L 127.8003120124805 134.58970358814352 L 127.8003120124805 115.41965678627145 L 127.8003120124805 115.41965678627145 L 166.14040561622465 115.41965678627145 L 166.14040561622465 115.41965678627145 L 166.14040561622465 134.58970358814352 L 166.14040561622465 134.58970358814352 Z M 357.8408736349454 166.53978159126365 Q 339.46957878315135 177.7223088923557 316.30577223088926 200.08736349453977 L 316.30577223088926 200.08736349453977 L 316.30577223088926 200.08736349453977 Q 292.34321372854913 222.45241809672387 274.77067082683305 252.804992199688 L 274.77067082683305 252.804992199688 L 274.77067082683305 252.804992199688 Q 256.399375975039 283.9563182527301 255.600624024961 319.90015600624025 Q 257.198127925117 374.21528861154445 293.1419656786272 410.1591263650546 Q 329.0858034321373 446.1029641185647 383.4009360374415 447.70046801872076 Q 437.7160686427457 446.1029641185647 473.65990639625585 410.1591263650546 Q 509.603744149766 374.21528861154445 511.201248049922 319.90015600624025 Q 512 302.3276131045242 496.02496099843995 267.182527301092 Q 479.25117004680186 231.2386895475819 434.5210608424337 192.09984399375975 L 408.9609984399376 217.65990639625585 L 408.9609984399376 217.65990639625585 L 357.8408736349454 166.53978159126365 L 357.8408736349454 166.53978159126365 Z M 434.5210608424337 358.2402496099844 Q 433.72230889235567 379.80655226209046 419.34477379095165 394.18408736349454 L 419.34477379095165 394.18408736349454 L 419.34477379095165 394.18408736349454 Q 404.96723868954757 409.3603744149766 383.4009360374415 409.3603744149766 Q 361.8346333853354 409.3603744149766 347.4570982839314 394.18408736349454 Q 333.0795631825273 379.80655226209046 332.2808112324493 358.2402496099844 Q 333.0795631825273 339.0702028081123 345.85959438377535 321.4976599063963 Q 357.8408736349454 303.9251170046802 369.8221528861154 292.7425897035881 Q 382.60218408736347 282.3588143525741 383.4009360374415 281.5600624024961 Q 384.1996879875195 282.3588143525741 396.97971918876755 292.7425897035881 Q 408.9609984399376 303.9251170046802 420.9422776911076 321.4976599063963 Q 433.72230889235567 339.0702028081123 434.5210608424337 358.2402496099844 L 434.5210608424337 358.2402496099844 Z" />
</svg>