<svg xmlns="http://www.w3.org/2000/svg" viewBox="0 0 512 512">
  <path d="M 113.77778 142.22223 Q 114.666664 105.77778 138.66667 81.77778 L 138.66667 81.77778 L 138.66667 81.77778 Q 162.66667 57.77778 199.11111 56.88889 Q 235.55556 57.77778 259.55554 81.77778 Q 283.55554 105.77778 284.44446 142.22223 L 284.44446 149.33333 L 284.44446 149.33333 L 284.44446 170.66667 L 284.44446 170.66667 L 241.77777 170.66667 L 241.77777 170.66667 L 241.77777 149.33333 L 241.77777 149.33333 L 241.77777 142.22223 L 241.77777 142.22223 Q 240.88889 124.44444 229.33333 112 Q 216.88889 100.44444 199.11111 99.55556 Q 181.33333 100.44444 168.88889 112 Q 157.33333 124.44444 156.44444 142.22223 L 156.44444 227.55556 L 156.44444 227.55556 L 341.33334 227.55556 L 341.33334 227.55556 L 341.33334 142.22223 L 341.33334 142.22223 Q 342.22223 105.77778 366.22223 81.77778 Q 390.22223 57.77778 426.66666 56.88889 Q 463.1111 57.77778 487.1111 81.77778 Q 511.1111 105.77778 512 142.22223 L 512 149.33333 L 512 149.33333 L 512 170.66667 L 512 170.66667 L 469.33334 170.66667 L 469.33334 170.66667 L 469.33334 149.33333 L 469.33334 149.33333 L 469.33334 142.22223 L 469.33334 142.22223 Q 468.44446 124.44444 456.8889 112 Q 444.44446 100.44444 426.66666 99.55556 Q 408.8889 100.44444 396.44446 112 Q 384.8889 124.44444 384 142.22223 L 384 248.88889 L 384 248.88889 L 384 356.44446 L 384 356.44446 Q 380.44446 358.22223 377.77777 360 Q 359.1111 368 341.33334 368.8889 L 341.33334 270.22223 L 341.33334 270.22223 L 156.44444 270.22223 L 156.44444 270.22223 L 156.44444 367.1111 L 156.44444 367.1111 Q 144.88889 364.44446 134.22223 360 Q 124.44444 354.66666 113.77778 347.55554 L 113.77778 248.88889 L 113.77778 248.88889 L 113.77778 142.22223 L 113.77778 142.22223 Z M 70.22222 434.66666 Q 56.88889 441.77777 39.11111 448.8889 L 39.11111 448.8889 L 39.11111 448.8889 Q 21.333334 455.1111 0 455.1111 L 0 412.44446 L 0 412.44446 Q 27.555555 410.66666 48.88889 397.33334 Q 68.44444 385.77777 84.44444 370.66666 Q 84.44444 369.77777 85.333336 369.77777 L 85.333336 369.77777 L 85.333336 369.77777 L 85.333336 369.77777 L 85.333336 369.77777 Q 102.22222 385.77777 121.77778 397.33334 Q 143.11111 410.66666 170.66667 412.44446 Q 197.33333 410.66666 219.55556 397.33334 Q 239.11111 385.77777 255.11111 370.66666 Q 255.11111 370.66666 255.11111 369.77777 L 256 369.77777 L 256.8889 369.77777 Q 256.8889 370.66666 256.8889 370.66666 Q 272.8889 385.77777 292.44446 397.33334 Q 313.77777 410.66666 341.33334 412.44446 Q 368 410.66666 390.22223 397.33334 Q 409.77777 385.77777 425.77777 370.66666 Q 425.77777 370.66666 425.77777 369.77777 L 426.66666 369.77777 L 427.55554 369.77777 Q 427.55554 370.66666 427.55554 370.66666 Q 443.55554 385.77777 463.1111 397.33334 Q 484.44446 410.66666 512 412.44446 L 512 455.1111 L 512 455.1111 Q 490.66666 455.1111 472.8889 448.8889 Q 455.1111 441.77777 441.77777 434.66666 Q 432.8889 429.33334 426.66666 424.8889 Q 420.44446 429.33334 411.55554 434.66666 Q 398.22223 442.66666 380.44446 448.8889 Q 362.66666 455.1111 341.33334 455.1111 Q 320 455.1111 302.22223 448.8889 Q 284.44446 441.77777 271.1111 434.66666 Q 262.22223 429.33334 256 424.8889 Q 249.77777 429.33334 240.88889 434.66666 Q 227.55556 442.66666 209.77777 448.8889 Q 192 455.1111 170.66667 455.1111 Q 149.33333 455.1111 131.55556 448.8889 Q 113.77778 441.77777 100.44444 434.66666 Q 91.55556 429.33334 85.333336 424.8889 Q 79.111115 429.33334 70.22222 434.66666 L 70.22222 434.66666 Z" />
</svg>