<svg xmlns="http://www.w3.org/2000/svg" viewBox="0 0 512 512">
  <path d="M 0 0 L 219.42857 0 L 0 0 L 219.42857 0 L 219.42857 219.42857 L 219.42857 219.42857 L 146.28572 219.42857 L 146.28572 219.42857 L 146.28572 365.7143 L 146.28572 365.7143 L 292.57144 365.7143 L 292.57144 365.7143 L 292.57144 292.57144 L 292.57144 292.57144 L 512 292.57144 L 512 292.57144 L 512 512 L 512 512 L 292.57144 512 L 292.57144 512 L 292.57144 438.85715 L 292.57144 438.85715 L 109.71429 438.85715 L 73.14286 438.85715 L 73.14286 402.2857 L 73.14286 402.2857 L 73.14286 219.42857 L 73.14286 219.42857 L 0 219.42857 L 0 219.42857 L 0 0 L 0 0 Z" />
</svg>