<svg xmlns="http://www.w3.org/2000/svg" viewBox="0 0 512 512">
  <path d="M 341.97736 23.667925 L 341.97736 85.49434 L 341.97736 23.667925 L 341.97736 85.49434 L 341.97736 100.95094 L 341.97736 100.95094 L 311.06415 100.95094 L 311.06415 100.95094 L 311.06415 85.49434 L 311.06415 85.49434 L 311.06415 23.667925 L 311.06415 23.667925 L 311.06415 8.211321 L 311.06415 8.211321 L 341.97736 8.211321 L 341.97736 8.211321 L 341.97736 23.667925 L 341.97736 23.667925 Z M 246.33963 30.43019 L 277.25284 76.8 L 246.33963 30.43019 L 277.25284 76.8 L 285.94717 89.35849 L 285.94717 89.35849 L 260.8302 106.74717 L 260.8302 106.74717 L 252.13585 94.18868 L 252.13585 94.18868 L 221.22264 47.818867 L 221.22264 47.818867 L 212.5283 35.260376 L 212.5283 35.260376 L 237.64528 17.871698 L 237.64528 17.871698 L 246.33963 30.43019 L 246.33963 30.43019 Z M 170.98868 99.98491 L 187.41132 114.47547 L 170.98868 99.98491 L 187.41132 114.47547 L 264.69434 186.9283 L 264.69434 186.9283 L 264.69434 170.50566 L 264.69434 170.50566 L 264.69434 147.32076 L 264.69434 147.32076 L 287.87924 147.32076 L 388.34717 147.32076 L 388.34717 170.50566 L 388.34717 170.50566 L 388.34717 327.00378 L 388.34717 327.00378 Q 386.4151 401.38867 337.14716 451.62265 Q 286.9132 500.89056 212.5283 502.82263 Q 179.68301 503.78867 148.7698 493.16226 Q 117.856606 481.56982 87.90943 451.62265 L 71.48679 435.2 L 71.48679 435.2 L 55.06415 418.77734 L 55.06415 418.77734 L 39.607548 403.32074 L 39.607548 403.32074 L 39.607548 403.32074 L 39.607548 403.32074 L 16.422642 380.13586 L 16.422642 380.13586 L 0 363.7132 L 0 363.7132 L 16.422642 347.29056 L 16.422642 347.29056 L 46.369812 317.34338 L 46.369812 317.34338 L 16.422642 287.39624 L 16.422642 287.39624 L 0 270.97357 L 0 270.97357 L 16.422642 254.55095 L 16.422642 254.55095 L 46.369812 224.60378 L 46.369812 224.60378 L 31.879246 210.1132 L 31.879246 210.1132 L 15.456604 193.69057 L 15.456604 193.69057 L 31.879246 177.26793 L 31.879246 177.26793 L 78.249054 130.89812 L 78.249054 130.89812 L 94.6717 114.47547 L 94.6717 114.47547 L 111.09434 130.89812 L 111.09434 130.89812 L 125.58491 145.38867 L 125.58491 145.38867 L 155.53207 115.44151 L 155.53207 115.44151 L 170.98868 99.98491 L 170.98868 99.98491 Z M 95.63773 208.18114 L 180.64906 293.19244 L 95.63773 208.18114 L 180.64906 293.19244 L 197.0717 309.61508 L 197.0717 309.61508 L 164.22641 342.4604 L 164.22641 342.4604 L 147.80377 326.03775 L 147.80377 326.03775 L 79.215096 257.44907 L 79.215096 257.44907 L 65.69057 270.97357 L 65.69057 270.97357 L 79.215096 284.4981 L 79.215096 284.4981 L 95.63773 300.92075 L 95.63773 300.92075 L 134.27925 339.56226 L 134.27925 339.56226 L 150.70189 355.9849 L 150.70189 355.9849 L 117.856606 388.8302 L 117.856606 388.8302 L 101.43396 372.40756 L 101.43396 372.40756 L 79.215096 350.1887 L 79.215096 350.1887 L 65.69057 363.7132 L 65.69057 363.7132 L 72.45283 370.47546 L 72.45283 370.47546 L 87.90943 385.93207 L 87.90943 385.93207 L 104.33208 402.3547 L 104.33208 402.3547 L 120.754715 418.77734 L 120.754715 418.77734 Q 144.90565 442.9283 165.19246 449.69055 Q 184.51321 456.45282 212.5283 456.45282 Q 267.59244 455.4868 304.30188 418.77734 Q 341.01132 382.06793 341.97736 327.00378 L 341.97736 193.69057 L 341.97736 193.69057 L 311.06415 193.69057 L 311.06415 193.69057 L 311.06415 240.06038 L 311.06415 240.06038 L 311.06415 259.38113 L 311.06415 259.38113 L 282.083 266.1434 L 282.083 266.1434 L 272.42264 257.44907 L 272.42264 257.44907 L 172.92076 163.7434 L 172.92076 163.7434 L 158.43019 178.23396 L 158.43019 178.23396 L 227.01888 246.82265 L 227.01888 246.82265 L 243.44151 263.24527 L 243.44151 263.24527 L 210.59622 296.09058 L 210.59622 296.09058 L 210.59622 296.09058 L 210.59622 296.09058 L 210.59622 296.09058 L 210.59622 296.09058 L 194.17358 279.66794 L 194.17358 279.66794 L 109.16226 194.6566 L 109.16226 194.6566 L 94.6717 180.16603 L 94.6717 180.16603 L 81.14717 193.69057 L 81.14717 193.69057 L 95.63773 208.18114 L 95.63773 208.18114 Z M 336.18112 502.82263 Q 328.45282 502.82263 321.69055 502.82263 Q 355.5019 481.56982 379.65283 448.72452 Q 417.3283 435.2 441.47925 402.3547 Q 464.66415 369.50943 465.6302 327.00378 L 465.6302 193.69057 L 465.6302 193.69057 L 419.26038 193.69057 L 419.26038 193.69057 L 419.26038 170.50566 L 419.26038 170.50566 L 419.26038 147.32076 L 419.26038 147.32076 L 488.8151 147.32076 L 512 147.32076 L 512 170.50566 L 512 170.50566 L 512 327.00378 L 512 327.00378 Q 510.06793 401.38867 460.8 451.62265 Q 410.56604 500.89056 336.18112 502.82263 L 336.18112 502.82263 Z M 415.39624 17.871698 L 440.5132 35.260376 L 415.39624 17.871698 L 440.5132 35.260376 L 431.81888 47.818867 L 431.81888 47.818867 L 400.90567 94.18868 L 400.90567 94.18868 L 392.21133 106.74717 L 392.21133 106.74717 L 367.09433 89.35849 L 367.09433 89.35849 L 375.78867 76.8 L 375.78867 76.8 L 406.70187 30.43019 L 406.70187 30.43019 L 415.39624 17.871698 L 415.39624 17.871698 Z" />
</svg>