<svg xmlns="http://www.w3.org/2000/svg" viewBox="0 0 512 512">
  <path d="M 49 115 L 256 34 L 49 115 L 256 34 L 464 115 L 464 115 Q 466 150 458 199 Q 451 248 429 301 Q 407 354 365 401 Q 323 447 256 477 Q 189 447 147 401 Q 105 354 83 301 Q 61 248 54 199 Q 46 150 49 115 L 49 115 Z M 496 113 L 494 93 L 496 113 L 494 93 L 475 85 L 475 85 L 268 5 L 268 5 L 256 0 L 256 0 L 244 5 L 244 5 L 37 85 L 37 85 L 18 93 L 18 93 L 17 113 L 17 113 Q 14 151 22 204 Q 30 257 54 314 Q 78 371 124 422 Q 170 474 243 507 L 256 512 L 256 512 L 269 507 L 269 507 Q 342 474 388 422 Q 434 371 458 314 Q 482 257 490 204 Q 498 151 495 113 L 496 113 Z M 363 203 L 375 192 L 363 203 L 375 192 L 352 169 L 352 169 L 341 181 L 341 181 L 224 297 L 224 297 L 171 245 L 171 245 L 160 233 L 160 233 L 137 256 L 137 256 L 149 267 L 149 267 L 213 331 L 213 331 L 224 343 L 224 343 L 235 331 L 235 331 L 363 203 L 363 203 Z" />
</svg>