<svg xmlns="http://www.w3.org/2000/svg" viewBox="0 0 512 512">
  <path d="M 396.8 76.8 L 392 76.8 L 396.8 76.8 L 392 76.8 L 388 80 L 388 80 L 175.2 274.4 L 175.2 274.4 L 201.6 179.2 L 201.6 179.2 L 217.6 179.2 L 230.4 179.2 L 230.4 153.6 L 230.4 153.6 L 217.6 153.6 L 0 153.6 L 0 179.2 L 0 179.2 L 12.8 179.2 L 22.4 179.2 L 3.2 272.8 L 3.2 272.8 Q 0 286.4 0 300.8 L 0 304.8 L 0 304.8 Q 1.6 360 38.4 396.8 Q 75.2 433.6 130.4 435.2 Q 160 435.2 185.6 422.4 Q 212 410.4 230.4 387.2 L 422.4 153.6 L 422.4 153.6 L 499.2 153.6 L 512 153.6 L 512 140.8 L 512 140.8 L 512 128 L 512 128 L 512 122.4 L 512 122.4 L 508 119.2 L 508 119.2 L 469.6 80.8 L 469.6 80.8 L 466.4 76.8 L 466.4 76.8 L 460.8 76.8 L 396.8 76.8 Z M 48.8 179.2 L 175.2 179.2 L 48.8 179.2 L 175.2 179.2 L 148 278.4 L 148 278.4 L 145.6 285.6 L 145.6 285.6 L 151.2 290.4 L 151.2 290.4 L 164 303.2 L 164 303.2 L 172.8 312 L 172.8 312 L 181.6 304 L 181.6 304 L 401.6 102.4 L 401.6 102.4 L 455.2 102.4 L 455.2 102.4 L 480.8 128 L 480.8 128 L 416 128 L 409.6 128 L 406.4 132.8 L 406.4 132.8 L 211.2 371.2 L 211.2 371.2 Q 179.2 408.8 130.4 409.6 Q 85.6 408.8 56 379.2 Q 26.4 349.6 25.6 304.8 L 25.6 300.8 L 25.6 300.8 Q 25.6 289.6 28 278.4 L 48.8 179.2 L 48.8 179.2 Z M 83.2 320 Q 100.8 318.4 102.4 300.8 Q 100.8 283.2 83.2 281.6 Q 65.6 283.2 64 300.8 Q 65.6 318.4 83.2 320 L 83.2 320 Z M 115.2 236.8 Q 113.6 219.2 96 217.6 Q 78.4 219.2 76.8 236.8 Q 78.4 254.4 96 256 Q 113.6 254.4 115.2 236.8 L 115.2 236.8 Z" />
</svg>