<svg xmlns="http://www.w3.org/2000/svg" viewBox="0 0 512 512">
  <path d="M 109.71428571428571 36.57142857142857 L 109.71428571428571 109.71428571428571 L 109.71428571428571 36.57142857142857 L 109.71428571428571 109.71428571428571 L 36.57142857142857 109.71428571428571 L 36.57142857142857 109.71428571428571 L 36.57142857142857 36.57142857142857 L 36.57142857142857 36.57142857142857 L 109.71428571428571 36.57142857142857 L 109.71428571428571 36.57142857142857 Z M 36.57142857142857 0 L 0 0 L 36.57142857142857 0 L 0 0 L 0 36.57142857142857 L 0 36.57142857142857 L 0 109.71428571428571 L 0 109.71428571428571 L 0 146.28571428571428 L 0 146.28571428571428 L 36.57142857142857 146.28571428571428 L 146.28571428571428 146.28571428571428 L 146.28571428571428 109.71428571428571 L 146.28571428571428 109.71428571428571 L 146.28571428571428 36.57142857142857 L 146.28571428571428 36.57142857142857 L 146.28571428571428 0 L 146.28571428571428 0 L 109.71428571428571 0 L 36.57142857142857 0 Z M 109.71428571428571 219.42857142857142 L 109.71428571428571 292.57142857142856 L 109.71428571428571 219.42857142857142 L 109.71428571428571 292.57142857142856 L 36.57142857142857 292.57142857142856 L 36.57142857142857 292.57142857142856 L 36.57142857142857 219.42857142857142 L 36.57142857142857 219.42857142857142 L 109.71428571428571 219.42857142857142 L 109.71428571428571 219.42857142857142 Z M 36.57142857142857 182.85714285714286 L 0 182.85714285714286 L 36.57142857142857 182.85714285714286 L 0 182.85714285714286 L 0 219.42857142857142 L 0 219.42857142857142 L 0 292.57142857142856 L 0 292.57142857142856 L 0 329.14285714285717 L 0 329.14285714285717 L 36.57142857142857 329.14285714285717 L 146.28571428571428 329.14285714285717 L 146.28571428571428 292.57142857142856 L 146.28571428571428 292.57142857142856 L 146.28571428571428 219.42857142857142 L 146.28571428571428 219.42857142857142 L 146.28571428571428 182.85714285714286 L 146.28571428571428 182.85714285714286 L 109.71428571428571 182.85714285714286 L 36.57142857142857 182.85714285714286 Z M 36.57142857142857 402.2857142857143 L 109.71428571428571 402.2857142857143 L 36.57142857142857 402.2857142857143 L 109.71428571428571 402.2857142857143 L 109.71428571428571 475.42857142857144 L 109.71428571428571 475.42857142857144 L 36.57142857142857 475.42857142857144 L 36.57142857142857 475.42857142857144 L 36.57142857142857 402.2857142857143 L 36.57142857142857 402.2857142857143 Z M 0 365.7142857142857 L 0 402.2857142857143 L 0 365.7142857142857 L 0 402.2857142857143 L 0 475.42857142857144 L 0 475.42857142857144 L 0 512 L 0 512 L 36.57142857142857 512 L 146.28571428571428 512 L 146.28571428571428 475.42857142857144 L 146.28571428571428 475.42857142857144 L 146.28571428571428 402.2857142857143 L 146.28571428571428 402.2857142857143 L 146.28571428571428 365.7142857142857 L 146.28571428571428 365.7142857142857 L 109.71428571428571 365.7142857142857 L 0 365.7142857142857 Z M 292.57142857142856 36.57142857142857 L 292.57142857142856 109.71428571428571 L 292.57142857142856 36.57142857142857 L 292.57142857142856 109.71428571428571 L 219.42857142857142 109.71428571428571 L 219.42857142857142 109.71428571428571 L 219.42857142857142 36.57142857142857 L 219.42857142857142 36.57142857142857 L 292.57142857142856 36.57142857142857 L 292.57142857142856 36.57142857142857 Z M 219.42857142857142 0 L 182.85714285714286 0 L 219.42857142857142 0 L 182.85714285714286 0 L 182.85714285714286 36.57142857142857 L 182.85714285714286 36.57142857142857 L 182.85714285714286 109.71428571428571 L 182.85714285714286 109.71428571428571 L 182.85714285714286 146.28571428571428 L 182.85714285714286 146.28571428571428 L 219.42857142857142 146.28571428571428 L 329.14285714285717 146.28571428571428 L 329.14285714285717 109.71428571428571 L 329.14285714285717 109.71428571428571 L 329.14285714285717 36.57142857142857 L 329.14285714285717 36.57142857142857 L 329.14285714285717 0 L 329.14285714285717 0 L 292.57142857142856 0 L 219.42857142857142 0 Z M 219.42857142857142 219.42857142857142 L 292.57142857142856 219.42857142857142 L 219.42857142857142 219.42857142857142 L 292.57142857142856 219.42857142857142 L 292.57142857142856 292.57142857142856 L 292.57142857142856 292.57142857142856 L 219.42857142857142 292.57142857142856 L 219.42857142857142 292.57142857142856 L 219.42857142857142 219.42857142857142 L 219.42857142857142 219.42857142857142 Z M 182.85714285714286 182.85714285714286 L 182.85714285714286 219.42857142857142 L 182.85714285714286 182.85714285714286 L 182.85714285714286 219.42857142857142 L 182.85714285714286 292.57142857142856 L 182.85714285714286 292.57142857142856 L 182.85714285714286 329.14285714285717 L 182.85714285714286 329.14285714285717 L 219.42857142857142 329.14285714285717 L 329.14285714285717 329.14285714285717 L 329.14285714285717 292.57142857142856 L 329.14285714285717 292.57142857142856 L 329.14285714285717 219.42857142857142 L 329.14285714285717 219.42857142857142 L 329.14285714285717 182.85714285714286 L 329.14285714285717 182.85714285714286 L 292.57142857142856 182.85714285714286 L 182.85714285714286 182.85714285714286 Z M 292.57142857142856 402.2857142857143 L 292.57142857142856 475.42857142857144 L 292.57142857142856 402.2857142857143 L 292.57142857142856 475.42857142857144 L 219.42857142857142 475.42857142857144 L 219.42857142857142 475.42857142857144 L 219.42857142857142 402.2857142857143 L 219.42857142857142 402.2857142857143 L 292.57142857142856 402.2857142857143 L 292.57142857142856 402.2857142857143 Z M 219.42857142857142 365.7142857142857 L 182.85714285714286 365.7142857142857 L 219.42857142857142 365.7142857142857 L 182.85714285714286 365.7142857142857 L 182.85714285714286 402.2857142857143 L 182.85714285714286 402.2857142857143 L 182.85714285714286 475.42857142857144 L 182.85714285714286 475.42857142857144 L 182.85714285714286 512 L 182.85714285714286 512 L 219.42857142857142 512 L 329.14285714285717 512 L 329.14285714285717 475.42857142857144 L 329.14285714285717 475.42857142857144 L 329.14285714285717 402.2857142857143 L 329.14285714285717 402.2857142857143 L 329.14285714285717 365.7142857142857 L 329.14285714285717 365.7142857142857 L 292.57142857142856 365.7142857142857 L 219.42857142857142 365.7142857142857 Z M 402.2857142857143 36.57142857142857 L 475.42857142857144 36.57142857142857 L 402.2857142857143 36.57142857142857 L 475.42857142857144 36.57142857142857 L 475.42857142857144 109.71428571428571 L 475.42857142857144 109.71428571428571 L 402.2857142857143 109.71428571428571 L 402.2857142857143 109.71428571428571 L 402.2857142857143 36.57142857142857 L 402.2857142857143 36.57142857142857 Z M 365.7142857142857 0 L 365.7142857142857 36.57142857142857 L 365.7142857142857 0 L 365.7142857142857 36.57142857142857 L 365.7142857142857 109.71428571428571 L 365.7142857142857 109.71428571428571 L 365.7142857142857 146.28571428571428 L 365.7142857142857 146.28571428571428 L 402.2857142857143 146.28571428571428 L 512 146.28571428571428 L 512 109.71428571428571 L 512 109.71428571428571 L 512 36.57142857142857 L 512 36.57142857142857 L 512 0 L 512 0 L 475.42857142857144 0 L 365.7142857142857 0 Z M 475.42857142857144 219.42857142857142 L 475.42857142857144 292.57142857142856 L 475.42857142857144 219.42857142857142 L 475.42857142857144 292.57142857142856 L 402.2857142857143 292.57142857142856 L 402.2857142857143 292.57142857142856 L 402.2857142857143 219.42857142857142 L 402.2857142857143 219.42857142857142 L 475.42857142857144 219.42857142857142 L 475.42857142857144 219.42857142857142 Z M 402.2857142857143 182.85714285714286 L 365.7142857142857 182.85714285714286 L 402.2857142857143 182.85714285714286 L 365.7142857142857 182.85714285714286 L 365.7142857142857 219.42857142857142 L 365.7142857142857 219.42857142857142 L 365.7142857142857 292.57142857142856 L 365.7142857142857 292.57142857142856 L 365.7142857142857 329.14285714285717 L 365.7142857142857 329.14285714285717 L 402.2857142857143 329.14285714285717 L 512 329.14285714285717 L 512 292.57142857142856 L 512 292.57142857142856 L 512 219.42857142857142 L 512 219.42857142857142 L 512 182.85714285714286 L 512 182.85714285714286 L 475.42857142857144 182.85714285714286 L 402.2857142857143 182.85714285714286 Z M 402.2857142857143 402.2857142857143 L 475.42857142857144 402.2857142857143 L 402.2857142857143 402.2857142857143 L 475.42857142857144 402.2857142857143 L 475.42857142857144 475.42857142857144 L 475.42857142857144 475.42857142857144 L 402.2857142857143 475.42857142857144 L 402.2857142857143 475.42857142857144 L 402.2857142857143 402.2857142857143 L 402.2857142857143 402.2857142857143 Z M 365.7142857142857 365.7142857142857 L 365.7142857142857 402.2857142857143 L 365.7142857142857 365.7142857142857 L 365.7142857142857 402.2857142857143 L 365.7142857142857 475.42857142857144 L 365.7142857142857 475.42857142857144 L 365.7142857142857 512 L 365.7142857142857 512 L 402.2857142857143 512 L 512 512 L 512 475.42857142857144 L 512 475.42857142857144 L 512 402.2857142857143 L 512 402.2857142857143 L 512 365.7142857142857 L 512 365.7142857142857 L 475.42857142857144 365.7142857142857 L 365.7142857142857 365.7142857142857 Z" />
</svg>