<svg xmlns="http://www.w3.org/2000/svg" viewBox="0 0 576 512">
    <path d="M 0 224 L 16 196 L 128 0 L 540 162 L 576 176 L 544 198 L 320 352 L 223 313 L 175 438 L 171 448 L 160 448 L 32 448 L 32 496 L 32 512 L 0 512 L 0 496 L 0 432 L 0 368 L 0 352 L 32 352 L 32 368 L 32 416 L 149 416 L 193 301 L 30 236 L 0 224 L 0 224 Z M 316 316 L 508 184 L 142 40 L 46 208 L 316 316 L 316 316 Z M 398 348 L 388 344 L 419 323 L 503 358 L 534 282 L 498 268 L 530 246 L 546 253 L 576 264 L 564 294 L 532 370 L 520 400 L 491 388 L 398 349 L 398 348 Z"/>
</svg>
