<svg xmlns="http://www.w3.org/2000/svg" viewBox="0 0 512 512">
  <path d="M 315.0769230769231 177.23076923076923 Q 353.2307692307692 148.92307692307693 354.46153846153845 98.46153846153847 Q 353.2307692307692 56.61538461538461 326.15384615384613 28.307692307692307 Q 297.84615384615387 1.2307692307692308 256 0 Q 214.15384615384616 1.2307692307692308 185.84615384615384 28.307692307692307 Q 158.76923076923077 56.61538461538461 157.53846153846155 98.46153846153847 Q 158.76923076923077 148.92307692307693 196.92307692307693 177.23076923076923 L 187.07692307692307 177.23076923076923 L 157.53846153846155 177.23076923076923 L 157.53846153846155 236.30769230769232 L 157.53846153846155 236.30769230769232 L 187.07692307692307 236.30769230769232 L 194.46153846153845 236.30769230769232 L 177.23076923076923 354.46153846153845 L 177.23076923076923 354.46153846153845 L 334.7692307692308 354.46153846153845 L 334.7692307692308 354.46153846153845 L 317.53846153846155 236.30769230769232 L 317.53846153846155 236.30769230769232 L 324.9230769230769 236.30769230769232 L 354.46153846153845 236.30769230769232 L 354.46153846153845 177.23076923076923 L 354.46153846153845 177.23076923076923 L 324.9230769230769 177.23076923076923 L 315.0769230769231 177.23076923076923 Z M 98.46153846153847 512 L 413.53846153846155 512 L 98.46153846153847 512 L 413.53846153846155 512 L 413.53846153846155 472.61538461538464 L 413.53846153846155 472.61538461538464 L 354.46153846153845 393.84615384615387 L 354.46153846153845 393.84615384615387 L 157.53846153846155 393.84615384615387 L 157.53846153846155 393.84615384615387 L 98.46153846153847 472.61538461538464 L 98.46153846153847 472.61538461538464 L 98.46153846153847 512 L 98.46153846153847 512 Z" />
</svg>