<svg viewBox="0 0 480 496">
  <path
    d="M 272 32 L 272 0 L 208 0 L 208 32 L 208 256 L 208 288 L 272 288 L 272 256 L 272 32 L 272 32 Z M 64 256 Q 64 215 81 180 L 81 180 Q 98 145 128 121 L 87 71 Q 46 105 23 152 Q 0 200 0 256 Q 1 323 33 377 Q 65 431 119 463 Q 173 495 240 496 Q 307 495 361 463 Q 415 431 447 377 Q 479 323 480 256 Q 480 200 457 152 Q 433 105 393 71 L 353 121 Q 382 145 399 180 Q 416 215 416 256 Q 414 331 364 380 Q 315 430 240 432 Q 165 430 116 380 Q 66 331 64 256 L 64 256 Z"
  />
</svg>