<svg xmlns="http://www.w3.org/2000/svg" viewBox="0 0 576 504">
    <path d="M 355 147 L 320 116 L 320 200 L 320 232 L 256 232 L 256 200 L 256 116 L 222 147 L 198 168 L 155 121 L 179 100 L 267 20 L 288 0 L 310 20 L 398 100 L 421 121 L 378 168 L 355 147 L 355 147 Z M 182 216 L 288 289 L 394 216 L 417 343 L 544 366 L 504 424 L 407 424 Q 392 388 360 366 Q 329 345 288 344 Q 247 345 216 366 Q 184 388 169 424 L 72 424 L 32 366 L 159 343 L 182 216 L 182 216 Z M 205 424 Q 218 402 239 389 L 239 389 Q 261 376 288 376 Q 315 376 337 389 Q 359 402 371 424 L 205 424 L 205 424 Z M 0 456 L 24 456 L 552 456 L 576 456 L 576 504 L 552 504 L 24 504 L 0 504 L 0 456 L 0 456 Z"/>
</svg>
