<svg xmlns="http://www.w3.org/2000/svg" viewBox="0 0 512 512">
  <path d="M 48 464 L 96 464 L 48 464 L 96 464 L 96 512 L 96 512 L 48 512 L 0 512 L 0 464 L 0 464 L 0 48 L 0 48 L 0 0 L 0 0 L 48 0 L 256 0 L 384 128 L 384 128 L 384 288 L 384 288 L 336 288 L 336 288 L 336 160 L 336 160 L 224 160 L 224 160 L 224 48 L 224 48 L 48 48 L 48 48 L 48 464 L 48 464 Z M 176 352 L 208 352 L 176 352 L 208 352 Q 228 353 242 366 Q 255 380 256 400 L 256 464 L 256 464 Q 255 484 242 498 Q 228 511 208 512 L 176 512 L 160 512 L 160 496 L 160 496 L 160 368 L 160 368 L 160 352 L 160 352 L 176 352 L 176 352 Z M 192 480 L 208 480 L 192 480 L 208 480 Q 223 479 224 464 L 224 400 L 224 400 Q 223 385 208 384 L 192 384 L 192 384 L 192 480 L 192 480 Z M 456 352 L 472 352 L 456 352 L 472 352 Q 489 352 500 364 Q 512 375 512 392 L 512 400 L 512 400 L 512 416 L 512 416 L 480 416 L 480 416 L 480 400 L 480 400 L 480 392 L 480 392 Q 479 385 472 384 L 456 384 L 456 384 Q 449 385 448 392 L 448 472 L 448 472 Q 449 479 456 480 L 472 480 L 472 480 Q 479 479 480 472 L 480 464 L 480 464 L 480 448 L 480 448 L 512 448 L 512 448 L 512 464 L 512 464 L 512 472 L 512 472 Q 512 489 500 500 Q 489 512 472 512 L 456 512 L 456 512 Q 439 512 428 500 Q 416 489 416 472 L 416 392 L 416 392 Q 416 375 428 364 Q 439 352 456 352 L 456 352 Z M 288 392 Q 288 375 300 364 L 300 364 L 300 364 Q 311 352 328 352 L 344 352 L 344 352 Q 361 352 372 364 Q 384 375 384 392 L 384 472 L 384 472 Q 384 489 372 500 Q 361 512 344 512 L 328 512 L 328 512 Q 311 512 300 500 Q 288 489 288 472 L 288 392 L 288 392 Z M 328 384 Q 321 385 320 392 L 320 472 L 320 472 Q 321 479 328 480 L 344 480 L 344 480 Q 351 479 352 472 L 352 392 L 352 392 Q 351 385 344 384 L 328 384 L 328 384 Z" />
</svg>