<svg xmlns="http://www.w3.org/2000/svg" viewBox="0 0 640 448">
    <path d="M 544 0 L 0 0 L 0 352 L 65 352 Q 72 310 102 284 Q 133 257 176 256 Q 219 257 250 284 Q 280 310 287 352 L 480 352 L 512 352 L 544 352 L 608 352 L 640 352 L 640 288 L 608 288 L 544 288 L 544 0 L 544 0 Z M 480 288 L 448 288 L 448 272 L 448 80 L 448 64 L 480 64 L 480 80 L 480 272 L 480 288 L 480 288 Z M 96 64 L 96 80 L 96 211 Q 79 220 64 232 L 64 80 L 64 64 L 96 64 L 96 64 Z M 176 192 Q 168 192 160 193 L 160 80 L 160 64 L 192 64 L 192 80 L 192 193 Q 184 192 176 192 L 176 192 Z M 256 211 L 256 80 L 256 64 L 288 64 L 288 80 L 288 232 Q 273 220 256 211 L 256 211 Z M 384 64 L 384 80 L 384 272 L 384 288 L 352 288 L 352 272 L 352 80 L 352 64 L 384 64 L 384 64 Z M 176 448 Q 221 447 245 408 Q 267 368 245 328 Q 221 289 176 288 Q 131 289 107 328 Q 85 368 107 408 Q 131 447 176 448 L 176 448 Z M 176 336 Q 190 336 199 345 L 199 345 Q 208 354 208 368 Q 208 382 199 391 Q 190 400 176 400 Q 162 400 153 391 Q 144 382 144 368 Q 144 354 153 345 Q 162 336 176 336 L 176 336 Z"/>
</svg>
