<svg xmlns="http://www.w3.org/2000/svg" viewBox="0 0 512 512">
  <path d="M 142 146 L 0 256 L 142 146 L 0 256 L 512 256 L 512 256 Q 511 193 481 143 Q 452 92 401 63 Q 351 33 288 32 L 217 87 L 217 87 Q 224 98 224 112 Q 223 132 210 146 Q 196 159 176 160 Q 155 159 142 146 L 142 146 Z M 416 288 Q 415 308 402 322 L 402 322 L 402 322 Q 388 335 368 336 Q 348 335 334 322 Q 321 308 320 288 L 0 288 L 0 288 L 0 480 L 0 480 L 512 480 L 512 480 L 512 288 L 512 288 L 416 288 L 416 288 Z M 176 336 Q 203 337 218 360 Q 230 384 218 408 Q 203 431 176 432 Q 149 431 134 408 Q 122 384 134 360 Q 149 337 176 336 L 176 336 Z" />
</svg>