<svg xmlns="http://www.w3.org/2000/svg" viewBox="0 0 640 512">
    <path d="M 288 64 L 288 142 L 144 229 L 128 238 L 128 256 L 128 384 L 128 384 L 64 384 L 64 64 L 288 64 L 288 64 Z M 352 64 L 576 64 L 576 384 L 508 384 L 505 380 L 425 284 L 415 272 L 400 272 L 321 272 L 286 218 L 336 187 L 352 178 L 352 160 L 352 64 L 352 64 Z M 425 384 L 379 384 L 422 448 L 576 448 L 640 448 L 640 384 L 640 64 L 640 0 L 576 0 L 64 0 L 0 0 L 0 64 L 0 384 L 0 448 L 64 448 L 308 448 L 333 485 L 351 512 L 404 476 L 386 450 L 311 336 L 385 336 L 425 384 L 425 384 Z M 266 384 L 192 384 L 192 384 L 192 274 L 192 274 L 266 384 L 266 384 Z M 192 128 Q 191 101 168 86 Q 144 74 120 86 Q 97 101 96 128 Q 97 155 120 170 Q 144 182 168 170 Q 191 155 192 128 L 192 128 Z"/>
</svg>
