<svg viewBox="0 0 512 448">
  <path
    d="M 256 128 Q 351 127 414 109 L 414 109 Q 478 91 480 64 Q 478 37 414 19 Q 351 1 256 0 Q 161 1 98 19 Q 34 37 32 64 Q 34 91 96 109 L 96 232 L 96 256 L 144 256 L 144 232 L 144 119 Q 174 124 208 127 L 208 184 L 208 208 L 256 208 L 256 184 L 256 128 L 256 128 Z M 192 32 L 208 32 L 304 32 L 320 32 L 320 64 L 304 64 L 208 64 L 192 64 L 192 32 L 192 32 Z M 64 132 Q 46 125 32 116 Q 17 106 6 88 Q 0 99 0 112 Q 0 135 17 152 Q 0 169 0 192 Q 0 215 17 232 Q 0 249 0 272 Q 0 295 17 312 Q 0 329 0 352 Q 3 402 75 425 Q 147 448 256 448 Q 365 448 437 425 Q 509 402 512 352 Q 512 329 495 312 Q 512 295 512 272 Q 512 249 495 232 Q 512 215 512 192 Q 512 169 495 152 Q 512 135 512 112 Q 512 99 506 88 Q 495 106 480 116 Q 457 131 423 140 Q 411 143 397 147 Q 352 157 288 159 L 288 184 L 288 208 Q 390 204 453 179 Q 457 182 459 184 Q 465 191 464 192 Q 464 192 464 192 L 464 192 L 464 192 Q 465 194 459 200 Q 451 209 422 220 Q 371 236 288 239 L 288 240 L 176 240 L 176 284 Q 214 288 256 288 Q 316 288 367 281 Q 417 274 453 259 Q 457 261 459 264 Q 465 270 464 272 Q 464 272 464 272 L 464 272 L 464 272 Q 465 273 459 280 Q 451 289 422 299 Q 361 320 256 320 Q 151 320 90 300 Q 61 289 53 280 Q 47 274 48 272 Q 48 272 48 272 L 48 272 L 48 272 Q 47 271 53 264 Q 55 262 59 259 Q 61 260 62 260 Q 63 261 64 261 L 64 232 L 64 208 Q 57 204 53 200 Q 47 194 48 192 Q 48 192 48 192 L 48 192 L 48 192 Q 47 191 53 184 Q 55 182 59 179 Q 61 180 62 180 Q 63 181 64 181 L 64 132 L 64 132 Z M 59 339 Q 95 354 145 361 L 145 361 Q 196 368 256 368 Q 316 368 367 361 Q 417 354 453 339 Q 457 342 459 344 Q 465 351 464 352 Q 464 352 464 352 L 464 352 L 464 352 Q 465 354 459 360 Q 451 369 422 380 Q 361 400 256 400 Q 151 400 90 380 Q 61 369 53 360 Q 47 354 48 352 Q 48 352 48 352 L 48 352 L 48 352 Q 47 351 53 344 Q 55 342 59 339 L 59 339 Z"
  />
</svg>