<svg xmlns="http://www.w3.org/2000/svg" viewBox="0 0 576 512">
    <path d="M 128 0 L 152 0 L 296 0 L 320 0 L 320 24 L 320 96 L 384 96 L 404 194 Q 379 198 358 209 L 345 144 L 103 144 L 59 368 L 256 368 Q 256 393 263 416 L 49 416 L 0 416 L 10 368 L 64 96 L 128 96 L 128 24 L 128 0 L 128 0 Z M 286 466 Q 279 486 263 499 L 263 499 Q 246 512 224 512 Q 197 511 179 493 Q 161 475 160 448 L 275 448 Q 280 457 286 466 L 286 466 Z M 272 48 L 176 48 L 176 96 L 272 96 L 272 48 L 272 48 Z M 432 224 Q 471 224 504 243 L 504 243 Q 537 262 557 296 Q 576 330 576 368 Q 576 406 557 440 Q 537 474 504 493 Q 471 512 432 512 Q 393 512 360 493 Q 327 474 307 440 Q 288 406 288 368 Q 288 330 307 296 Q 327 262 360 243 Q 393 224 432 224 L 432 224 Z M 448 304 L 448 288 L 416 288 L 416 304 L 416 352 L 368 352 L 352 352 L 352 384 L 368 384 L 416 384 L 416 432 L 416 448 L 448 448 L 448 432 L 448 384 L 496 384 L 512 384 L 512 352 L 496 352 L 448 352 L 448 304 L 448 304 Z"/>
</svg>
