<svg xmlns="http://www.w3.org/2000/svg" viewBox="0 0 512 512">
  <path d="M 256 512 Q 326 511 384 478 L 384 478 L 384 478 Q 442 444 478 384 Q 512 323 512 256 Q 512 189 478 128 Q 442 68 384 34 Q 326 1 256 0 Q 186 1 128 34 Q 70 68 34 128 Q 0 189 0 256 Q 0 323 34 384 Q 70 444 128 478 Q 186 511 256 512 L 256 512 Z M 217 355 L 256 381 L 217 355 L 256 381 L 295 355 L 295 355 L 304 349 L 304 349 L 313 355 L 313 355 L 353 381 L 353 381 L 377 370 L 377 370 L 391 362 L 391 362 L 405 391 L 405 391 L 391 398 L 391 398 L 359 414 L 359 414 L 351 419 L 351 419 L 343 413 L 343 413 L 304 387 L 304 387 L 265 413 L 265 413 L 256 419 L 256 419 L 247 413 L 247 413 L 208 387 L 208 387 L 169 413 L 169 413 L 161 419 L 161 419 L 153 414 L 153 414 L 121 398 L 121 398 L 107 391 L 107 391 L 121 363 L 121 363 L 135 370 L 135 370 L 159 382 L 159 382 L 199 355 L 199 355 L 208 349 L 208 349 L 217 355 L 217 355 Z M 112 192 L 231 256 L 112 192 L 231 256 L 112 320 L 112 320 L 158 256 L 158 256 L 112 192 L 112 192 Z M 281 256 L 400 192 L 281 256 L 400 192 L 354 256 L 354 256 L 400 320 L 400 320 L 281 256 L 281 256 Z" />
</svg>