<svg xmlns="http://www.w3.org/2000/svg" viewBox="0 0 512 512">
  <path d="M 80 96 L 80 2 L 80 96 L 80 2 Q 72 0 64 0 Q 37 1 19 19 Q 1 37 0 64 L 0 128 L 0 128 Q 1 155 19 173 Q 37 191 64 192 L 65 192 L 65 192 L 131 236 L 131 236 L 137 240 L 137 240 L 144 240 L 176 240 L 176 256 L 176 256 L 132 256 L 132 256 L 87 234 L 87 234 L 73 227 L 73 227 L 59 255 L 59 255 L 73 262 L 73 262 L 121 286 L 121 286 L 124 288 L 124 288 L 128 288 L 176 288 L 176 304 L 176 304 L 115 304 L 115 304 L 69 289 L 69 289 L 54 284 L 54 284 L 44 314 L 44 314 L 59 319 L 59 319 L 107 335 L 107 335 L 110 336 L 110 336 L 112 336 L 176 336 L 176 352 L 176 352 L 160 352 L 156 352 L 153 354 L 153 354 L 121 370 L 121 370 L 107 377 L 107 377 L 121 406 L 121 406 L 135 398 L 135 398 L 164 384 L 164 384 L 176 384 L 176 384 L 201 453 L 201 453 Q 182 460 171 476 Q 160 491 160 512 L 352 512 L 352 512 Q 352 491 341 476 Q 330 460 312 453 L 336 384 L 336 384 L 348 384 L 348 384 L 377 398 L 377 398 L 391 406 L 391 406 L 405 377 L 405 377 L 391 370 L 391 370 L 359 354 L 359 354 L 356 352 L 356 352 L 352 352 L 336 352 L 336 336 L 336 336 L 400 336 L 403 336 L 405 335 L 405 335 L 453 319 L 453 319 L 468 314 L 468 314 L 458 284 L 458 284 L 443 289 L 443 289 L 397 304 L 397 304 L 336 304 L 336 304 L 336 288 L 336 288 L 384 288 L 388 288 L 391 286 L 391 286 L 439 262 L 439 262 L 453 255 L 453 255 L 439 226 L 439 226 L 425 234 L 425 234 L 380 256 L 380 256 L 336 256 L 336 256 L 336 240 L 336 240 L 368 240 L 375 240 L 381 236 L 381 236 L 447 192 L 447 192 Q 447 192 448 192 Q 448 192 448 192 Q 475 191 493 173 Q 511 155 512 128 L 512 64 L 512 64 Q 511 37 493 19 Q 475 1 448 0 Q 440 0 432 2 L 432 96 L 432 96 L 389 39 L 389 39 Q 384 51 384 64 L 384 128 L 384 128 Q 384 151 398 167 L 361 192 L 361 192 L 336 192 L 336 192 Q 329 158 304 133 L 304 54 L 304 54 L 339 48 L 339 48 L 354 45 L 354 45 L 349 14 L 349 14 L 333 16 L 333 16 L 285 24 L 285 24 L 272 26 L 272 26 L 272 40 L 272 40 L 272 106 L 272 106 Q 268 103 264 101 Q 264 100 263 100 Q 256 96 249 100 Q 245 102 240 106 L 240 40 L 240 40 L 240 26 L 240 26 L 227 24 L 227 24 L 179 16 L 179 16 L 163 14 L 163 14 L 158 45 L 158 45 L 173 48 L 173 48 L 208 54 L 208 54 L 208 133 L 208 133 Q 183 158 177 192 L 151 192 L 151 192 L 114 167 L 114 167 Q 128 151 128 128 L 128 64 L 128 64 Q 128 51 123 39 L 80 96 L 80 96 Z M 288 200 L 288 240 L 288 200 L 288 240 L 288 256 L 288 256 L 288 288 L 288 288 L 288 304 L 288 304 L 288 336 L 288 336 L 288 352 L 288 352 L 288 376 L 288 376 L 262 448 L 262 448 L 250 448 L 250 448 L 224 376 L 224 376 L 224 352 L 224 352 L 224 336 L 224 336 L 224 304 L 224 304 L 224 288 L 224 288 L 224 256 L 224 256 L 224 240 L 224 240 L 224 200 L 224 200 Q 223 190 239 170 Q 247 161 256 154 Q 265 161 273 170 Q 289 190 288 200 L 288 200 Z" />
</svg>