<svg xmlns="http://www.w3.org/2000/svg" viewBox="0 0 512 512">
  <path d="M 432 48 L 432 384 L 432 48 L 432 384 L 80 384 L 80 384 L 80 48 L 80 48 L 432 48 L 432 48 Z M 80 0 L 32 0 L 80 0 L 32 0 L 32 48 L 32 48 L 32 384 L 32 384 L 32 432 L 32 432 L 64 432 L 64 432 L 64 464 L 64 464 L 64 512 L 64 512 L 112 512 L 448 512 L 448 464 L 448 464 L 448 432 L 448 432 L 480 432 L 480 432 L 480 384 L 480 384 L 480 48 L 480 48 L 480 0 L 480 0 L 432 0 L 80 0 Z M 112 432 L 400 432 L 112 432 L 400 432 L 400 464 L 400 464 L 112 464 L 112 464 L 112 432 L 112 432 Z M 112 80 L 112 240 L 112 80 L 112 240 L 400 240 L 400 240 L 400 80 L 400 80 L 112 80 L 112 80 Z M 240 304 L 240 336 L 240 304 L 240 336 L 256 336 L 400 336 L 400 304 L 400 304 L 384 304 L 240 304 Z M 152 352 Q 174 350 176 328 Q 174 306 152 304 Q 130 306 128 328 Q 130 350 152 352 L 152 352 Z" />
</svg>