<svg xmlns="http://www.w3.org/2000/svg" viewBox="0 0 512 512">
  <path d="M 345.6 49.371428571428574 L 330.9714285714286 65.82857142857142 L 345.6 49.371428571428574 L 330.9714285714286 65.82857142857142 L 284.34285714285716 121.6 L 284.34285714285716 121.6 L 506.51428571428573 387.65714285714284 L 506.51428571428573 387.65714285714284 L 512 394.0571428571429 L 512 394.0571428571429 L 512 401.37142857142857 L 512 401.37142857142857 L 512 467.2 L 512 467.2 L 512 489.14285714285717 L 512 489.14285714285717 L 490.0571428571429 489.14285714285717 L 385.8285714285714 489.14285714285717 L 384 490.9714285714286 L 384 490.9714285714286 L 383.0857142857143 489.14285714285717 L 383.0857142857143 489.14285714285717 L 277.9428571428571 489.14285714285717 L 128.9142857142857 489.14285714285717 L 128 490.9714285714286 L 128 490.9714285714286 L 126.17142857142858 489.14285714285717 L 126.17142857142858 489.14285714285717 L 21.942857142857143 489.14285714285717 L 0 489.14285714285717 L 0 467.2 L 0 467.2 L 0 401.37142857142857 L 0 401.37142857142857 L 0 394.0571428571429 L 0 394.0571428571429 L 5.485714285714286 387.65714285714284 L 5.485714285714286 387.65714285714284 L 227.65714285714284 121.6 L 227.65714285714284 121.6 L 181.02857142857144 65.82857142857142 L 181.02857142857144 65.82857142857142 L 166.4 49.371428571428574 L 166.4 49.371428571428574 L 200.22857142857143 21.02857142857143 L 200.22857142857143 21.02857142857143 L 213.94285714285715 37.48571428571429 L 213.94285714285715 37.48571428571429 L 256 87.77142857142857 L 256 87.77142857142857 L 298.0571428571429 37.48571428571429 L 298.0571428571429 37.48571428571429 L 311.77142857142854 21.02857142857143 L 311.77142857142854 21.02857142857143 L 345.6 49.371428571428574 L 345.6 49.371428571428574 Z M 163.65714285714284 445.25714285714287 L 234.05714285714285 445.25714285714287 L 163.65714285714284 445.25714285714287 L 348.34285714285716 445.25714285714287 L 256 327.3142857142857 L 256 327.3142857142857 L 163.65714285714284 445.25714285714287 L 163.65714285714284 445.25714285714287 Z M 404.1142857142857 445.25714285714287 L 468.1142857142857 445.25714285714287 L 404.1142857142857 445.25714285714287 L 468.1142857142857 445.25714285714287 L 468.1142857142857 409.6 L 468.1142857142857 409.6 L 256 156.34285714285716 L 256 156.34285714285716 L 43.885714285714286 409.6 L 43.885714285714286 409.6 L 43.885714285714286 445.25714285714287 L 43.885714285714286 445.25714285714287 L 107.88571428571429 445.25714285714287 L 107.88571428571429 445.25714285714287 L 238.62857142857143 277.9428571428571 L 238.62857142857143 277.9428571428571 L 256 256 L 256 256 L 273.37142857142857 277.9428571428571 L 273.37142857142857 277.9428571428571 L 404.1142857142857 445.25714285714287 L 404.1142857142857 445.25714285714287 Z" />
</svg>