<svg xmlns="http://www.w3.org/2000/svg" viewBox="0 0 512 512">
  <path d="M 294.4 89.6 L 313.6 89.6 L 294.4 89.6 L 385.6 89.6 L 391.2 95.2 L 391.2 95.2 L 480.8 184.8 L 480.8 184.8 L 486.4 190.4 L 486.4 190.4 L 486.4 198.4 L 486.4 198.4 L 486.4 307.2 L 486.4 307.2 L 492.8 307.2 L 512 307.2 L 512 345.6 L 512 345.6 L 492.8 345.6 L 460.8 345.6 Q 460 378.4 438.4 400 Q 416.8 421.6 384 422.4 Q 351.2 421.6 329.6 400 Q 308 378.4 307.2 345.6 L 300.8 345.6 L 204.8 345.6 Q 204 378.4 182.4 400 Q 160.8 421.6 128 422.4 Q 95.2 421.6 73.6 400 Q 52 378.4 51.2 345.6 L 19.2 345.6 L 0 345.6 L 0 307.2 L 0 307.2 L 19.2 307.2 L 61.6 307.2 Q 72 289.6 88.8 279.2 Q 106.4 268.8 128 268.8 Q 149.6 268.8 167.2 279.2 Q 184 289.6 194.4 307.2 L 294.4 307.2 L 294.4 307.2 L 294.4 108.8 L 294.4 108.8 L 294.4 89.6 L 294.4 89.6 Z M 369.6 128 L 332.8 128 L 369.6 128 L 332.8 128 L 332.8 204.8 L 332.8 204.8 L 446.4 204.8 L 446.4 204.8 L 369.6 128 L 369.6 128 Z M 166.4 345.6 Q 165.6 324 147.2 312 Q 128 302.4 108.8 312 Q 90.4 324 89.6 345.6 Q 90.4 367.2 108.8 379.2 Q 128 388.8 147.2 379.2 Q 165.6 367.2 166.4 345.6 L 166.4 345.6 Z M 384 384 Q 405.6 383.2 417.6 364.8 Q 427.2 345.6 417.6 326.4 Q 405.6 308 384 307.2 Q 362.4 308 350.4 326.4 Q 340.8 345.6 350.4 364.8 Q 362.4 383.2 384 384 L 384 384 Z" />
</svg>