<svg xmlns="http://www.w3.org/2000/svg" viewBox="0 0 512 512">
  <path d="M 323.1067961165049 467.75922330097086 Q 290.2990291262136 478.695145631068 254.50873786407766 478.695145631068 Q 191.8757281553398 477.7009708737864 142.16699029126212 447.8757281553398 Q 91.4640776699029 419.04466019417475 62.633009708737866 368.3417475728155 Q 32.80776699029126 318.63300970873786 31.813592233009707 256 Q 32.80776699029126 193.36699029126214 62.633009708737866 143.65825242718446 Q 91.4640776699029 92.95533980582525 142.16699029126212 64.1242718446602 Q 191.8757281553398 34.29902912621359 254.50873786407766 33.30485436893204 Q 317.1417475728155 34.29902912621359 366.8504854368932 64.1242718446602 Q 417.5533980582524 92.95533980582525 446.38446601941746 143.65825242718446 Q 476.2097087378641 193.36699029126214 477.20388349514565 256 Q 477.20388349514565 294.7728155339806 465.273786407767 329.56893203883493 Q 481.18058252427187 331.55728155339807 495.09902912621357 338.5165048543689 Q 509.0174757281553 299.74368932038834 509.0174757281553 256 Q 508.0233009708738 184.41941747572815 474.22135922330096 127.75145631067961 Q 440.41941747572815 70.08932038834952 382.75728155339806 36.2873786407767 Q 326.0893203883495 2.4854368932038833 254.50873786407766 1.4912621359223301 Q 182.9281553398058 2.4854368932038833 126.26019417475729 36.2873786407767 Q 68.59805825242718 70.08932038834952 34.79611650485437 127.75145631067961 Q 0.9941747572815534 184.41941747572815 0 256 Q 0.9941747572815534 327.58058252427185 34.79611650485437 384.2485436893204 Q 68.59805825242718 441.9106796116505 126.26019417475729 475.7126213592233 Q 182.9281553398058 509.5145631067961 254.50873786407766 510.50873786407766 Q 294.2757281553398 510.50873786407766 331.06019417475727 498.57864077669905 L 329.0718446601942 490.6252427184466 L 329.0718446601942 490.6252427184466 L 323.1067961165049 467.75922330097086 L 323.1067961165049 467.75922330097086 Z M 259.4796116504854 304.7145631067961 Q 267.43300970873787 308.69126213592233 270.41553398058255 311.673786407767 Q 273.3980582524272 315.6504854368932 272.40388349514564 315.6504854368932 Q 273.3980582524272 315.6504854368932 270.41553398058255 319.6271844660194 Q 267.43300970873787 322.6097087378641 259.4796116504854 327.58058252427185 Q 241.58446601941748 335.5339805825243 220.70679611650485 338.5165048543689 L 220.70679611650485 364.36504854368934 L 220.70679611650485 364.36504854368934 Q 241.58446601941748 367.34757281553397 259.4796116504854 375.3009708737864 Q 267.43300970873787 379.27766990291263 270.41553398058255 383.25436893203886 Q 273.3980582524272 387.231067961165 272.40388349514564 387.231067961165 Q 272.40388349514564 387.231067961165 272.40388349514564 387.231067961165 Q 273.3980582524272 387.231067961165 270.41553398058255 391.20776699029125 Q 267.43300970873787 394.19029126213593 259.4796116504854 398.16699029126215 Q 241.58446601941748 407.11456310679614 220.70679611650485 409.1029126213592 L 224.68349514563107 435.9456310679612 L 224.68349514563107 435.9456310679612 Q 248.54368932038835 432.9631067961165 271.4097087378641 423.021359223301 Q 282.34563106796116 418.0504854368932 290.2990291262136 409.1029126213592 Q 299.2466019417476 401.1495145631068 300.24077669902914 387.231067961165 Q 299.2466019417476 373.31262135922333 290.2990291262136 364.36504854368934 Q 282.34563106796116 356.4116504854369 271.4097087378641 351.44077669902913 L 271.4097087378641 351.44077669902913 L 271.4097087378641 351.44077669902913 L 271.4097087378641 351.44077669902913 L 271.4097087378641 351.44077669902913 Q 282.34563106796116 346.46990291262136 290.2990291262136 337.5223300970874 Q 299.2466019417476 329.56893203883493 300.24077669902914 315.6504854368932 Q 299.2466019417476 301.7320388349515 290.2990291262136 292.7844660194175 Q 282.34563106796116 284.83106796116505 271.4097087378641 279.8601941747573 Q 248.54368932038835 269.91844660194175 224.68349514563107 265.94174757281553 L 220.70679611650485 292.7844660194175 L 220.70679611650485 292.7844660194175 Q 241.58446601941748 295.7669902912621 259.4796116504854 303.72038834951456 L 259.4796116504854 304.7145631067961 Z M 174.9747572815534 232.13980582524272 Q 196.84660194174756 230.1514563106796 198.83495145631068 208.27961165048544 Q 196.84660194174756 186.40776699029126 174.9747572815534 184.41941747572815 Q 153.10291262135922 186.40776699029126 151.1145631067961 208.27961165048544 Q 153.10291262135922 230.1514563106796 174.9747572815534 232.13980582524272 L 174.9747572815534 232.13980582524272 Z M 376.79223300970875 238.10485436893205 L 402.6407766990291 218.22135922330096 L 376.79223300970875 238.10485436893205 L 402.6407766990291 218.22135922330096 Q 374.8038834951456 184.41941747572815 334.04271844660195 184.41941747572815 Q 293.28155339805824 184.41941747572815 265.44466019417473 218.22135922330096 L 291.29320388349515 238.10485436893205 L 291.29320388349515 238.10485436893205 Q 308.19417475728153 216.23300970873785 334.04271844660195 216.23300970873785 Q 359.8912621359223 216.23300970873785 376.79223300970875 238.10485436893205 L 376.79223300970875 238.10485436893205 Z M 438.43106796116507 360.3883495145631 Q 432.4660194174757 338.5165048543689 414.5708737864078 327.58058252427185 L 414.5708737864078 327.58058252427185 L 414.5708737864078 327.58058252427185 Q 395.68155339805827 315.6504854368932 373.80970873786407 321.61553398058254 Q 350.94368932038833 328.5747572815534 341.0019417475728 347.4640776699029 Q 331.06019417475727 366.3533980582524 336.03106796116504 388.2252427184466 L 359.8912621359223 482.67184466019415 L 359.8912621359223 482.67184466019415 L 363.86796116504854 498.57864077669905 L 363.86796116504854 498.57864077669905 L 379.7747572815534 493.6077669902913 L 379.7747572815534 493.6077669902913 L 470.24466019417474 468.7533980582524 L 470.24466019417474 468.7533980582524 Q 492.11650485436894 461.79417475728155 502.05825242718447 442.90485436893204 Q 512 424.0155339805825 507.02912621359224 402.1436893203884 Q 501.06407766990293 379.27766990291263 483.16893203883495 368.3417475728155 Q 464.27961165048544 357.40582524271844 441.4135922330097 362.3766990291262 L 439.4252427184466 363.37087378640774 L 439.4252427184466 363.37087378640774 L 438.43106796116507 360.3883495145631 L 438.43106796116507 360.3883495145631 Z M 381.7631067961165 352.43495145631067 Q 400.65242718446603 348.45825242718445 407.6116504854369 368.3417475728155 L 412.58252427184465 387.231067961165 L 412.58252427184465 387.231067961165 L 416.55922330097087 403.1378640776699 L 416.55922330097087 403.1378640776699 L 432.4660194174757 398.16699029126215 L 432.4660194174757 398.16699029126215 L 450.3611650485437 393.1961165048544 L 450.3611650485437 393.1961165048544 Q 469.2504854368932 390.2135922330097 476.2097087378641 410.09708737864077 Q 479.19223300970873 430.9747572815534 461.29708737864075 437.93398058252427 L 386.7339805825243 458.81165048543687 L 386.7339805825243 458.81165048543687 L 366.8504854368932 380.2718446601942 L 366.8504854368932 380.2718446601942 Q 363.86796116504854 359.3941747572816 381.7631067961165 352.43495145631067 L 381.7631067961165 352.43495145631067 Z" />
</svg>