<svg xmlns="http://www.w3.org/2000/svg" viewBox="0 0 512 448">
    <path d="M 0 0 L 16 0 L 48 0 L 464 0 L 496 0 L 512 0 L 512 32 L 496 32 L 480 32 L 480 416 L 496 416 L 512 416 L 512 448 L 496 448 L 464 448 L 48 448 L 16 448 L 0 448 L 0 416 L 16 416 L 32 416 L 32 32 L 16 32 L 0 32 L 0 0 L 0 0 Z M 64 32 L 64 416 L 448 416 L 448 32 L 64 32 L 64 32 Z M 272 64 L 272 80 L 272 112 L 336 112 L 352 112 L 352 144 L 336 144 L 272 144 L 272 176 L 368 176 L 384 176 L 384 208 L 368 208 L 272 208 L 272 262 L 325 241 L 328 240 L 331 240 L 384 240 L 400 240 L 400 256 L 400 314 L 400 319 L 397 323 L 354 378 L 349 384 L 341 384 L 171 384 L 163 384 L 158 378 L 115 323 L 112 319 L 112 314 L 112 256 L 112 240 L 128 240 L 181 240 L 184 240 L 187 241 L 240 262 L 240 208 L 144 208 L 128 208 L 128 176 L 144 176 L 240 176 L 240 144 L 176 144 L 160 144 L 160 112 L 176 112 L 240 112 L 240 80 L 240 64 L 272 64 L 272 64 Z M 144 308 L 179 352 L 334 352 L 368 308 L 368 272 L 334 272 L 262 300 L 256 302 L 250 300 L 178 272 L 144 272 L 144 308 L 144 308 Z M 192 320 Q 193 305 208 304 Q 223 305 224 320 Q 223 335 208 336 Q 193 335 192 320 L 192 320 Z M 304 304 Q 319 305 320 320 Q 319 335 304 336 Q 289 335 288 320 Q 289 305 304 304 L 304 304 Z"/>
</svg>
