<svg xmlns="http://www.w3.org/2000/svg" viewBox="0 0 512 512">
  <path d="M 316.90706319702605 198.8996282527881 L 272.17843866171006 61.858736059479554 L 316.90706319702605 198.8996282527881 L 272.17843866171006 61.858736059479554 L 256 12.371747211895912 L 256 12.371747211895912 L 239.82156133828997 61.858736059479554 L 239.82156133828997 61.858736059479554 L 196.04460966542752 198.8996282527881 L 196.04460966542752 198.8996282527881 L 51.39033457249071 198.8996282527881 L 0 198.8996282527881 L 41.87360594795539 229.35315985130111 L 41.87360594795539 229.35315985130111 L 157.97769516728624 314.0520446096654 L 157.97769516728624 314.0520446096654 L 114.20074349442379 450.14126394052045 L 114.20074349442379 450.14126394052045 L 98.02230483271376 499.6282527881041 L 98.02230483271376 499.6282527881041 L 139.89591078066914 469.1747211895911 L 139.89591078066914 469.1747211895911 L 256 384.47583643122675 L 256 384.47583643122675 L 372.10408921933083 469.1747211895911 L 372.10408921933083 469.1747211895911 L 413.97769516728624 499.6282527881041 L 413.97769516728624 499.6282527881041 L 398.75092936802974 450.14126394052045 L 398.75092936802974 450.14126394052045 L 354.02230483271376 313.1003717472119 L 354.02230483271376 313.1003717472119 L 470.1263940520446 229.35315985130111 L 470.1263940520446 229.35315985130111 L 512 198.8996282527881 L 512 198.8996282527881 L 460.6096654275093 198.8996282527881 L 316.90706319702605 198.8996282527881 Z M 418.7360594795539 229.35315985130111 L 335.9405204460966 289.3085501858736 L 418.7360594795539 229.35315985130111 L 335.9405204460966 289.3085501858736 L 317.85873605947955 301.6802973977695 L 317.85873605947955 301.6802973977695 L 324.52044609665427 322.6171003717472 L 324.52044609665427 322.6171003717472 L 356.87732342007433 419.68773234200745 L 356.87732342007433 419.68773234200745 L 274.0817843866171 359.73234200743497 L 274.0817843866171 359.73234200743497 L 256 347.36059479553904 L 256 347.36059479553904 L 237.9182156133829 359.73234200743497 L 237.9182156133829 359.73234200743497 L 156.07434944237917 419.68773234200745 L 156.07434944237917 419.68773234200745 L 187.47955390334573 322.6171003717472 L 187.47955390334573 322.6171003717472 L 194.14126394052045 301.6802973977695 L 194.14126394052045 301.6802973977695 L 176.05947955390334 289.3085501858736 L 176.05947955390334 289.3085501858736 L 93.2639405204461 229.35315985130111 L 93.2639405204461 229.35315985130111 L 196.04460966542752 229.35315985130111 L 217.93308550185873 229.35315985130111 L 224.59479553903347 207.46468401486987 L 224.59479553903347 207.46468401486987 L 256 110.39405204460967 L 256 110.39405204460967 L 287.40520446096656 207.46468401486987 L 287.40520446096656 207.46468401486987 L 294.0669144981413 229.35315985130111 L 294.0669144981413 229.35315985130111 L 316.90706319702605 229.35315985130111 L 418.7360594795539 229.35315985130111 Z" />
</svg>