<svg viewBox="0 0 448 512">
  <path
    d="M 152 0 L 152 24 L 152 64 L 296 64 L 296 24 L 296 0 L 344 0 L 344 24 L 344 64 L 448 64 L 448 144 L 448 192 L 448 464 L 448 512 L 400 512 L 48 512 L 0 512 L 0 464 L 0 192 L 0 144 L 0 64 L 104 64 L 104 24 L 104 0 L 152 0 L 152 0 Z M 400 192 L 48 192 L 48 464 L 400 464 L 400 192 L 400 192 Z M 112 299 Q 113 274 129 257 L 129 257 Q 146 241 171 240 L 174 240 Q 198 240 216 257 L 224 265 L 232 257 Q 250 240 274 240 L 277 240 Q 302 241 319 257 Q 335 274 336 299 Q 336 324 318 342 L 235 422 L 224 432 L 213 421 L 130 342 Q 112 324 112 299 L 112 299 Z"
  />
</svg>