<svg viewBox="0 0 640 448">
  <path
    d="M 160 96 Q 161 69 179 51 L 179 51 Q 197 33 224 32 Q 251 33 269 51 Q 287 69 288 96 L 288 99 Q 288 139 281 177 L 108 225 L 96 228 L 96 240 L 96 432 L 96 448 L 112 448 L 192 448 L 201 448 L 206 440 L 248 366 Q 279 310 296 249 L 303 223 Q 306 213 308 203 L 434 169 L 386 265 L 374 288 L 400 288 L 560 288 L 576 288 L 576 256 L 560 256 L 426 256 L 478 151 L 494 119 L 460 129 L 315 168 Q 320 134 320 99 L 320 96 Q 319 55 292 28 Q 265 1 224 0 Q 183 1 156 28 Q 129 55 128 96 L 128 144 L 128 160 L 160 160 L 160 144 L 160 96 L 160 96 Z M 128 252 L 273 213 L 272 214 L 265 240 Q 249 298 220 350 L 183 416 L 128 416 L 128 252 L 128 252 Z M 16 352 L 0 352 L 0 384 L 16 384 L 48 384 L 64 384 L 64 352 L 48 352 L 16 352 L 16 352 Z M 336 352 L 320 352 L 320 384 L 336 384 L 624 384 L 640 384 L 640 352 L 624 352 L 336 352 L 336 352 Z"
  />
</svg>