<svg xmlns="http://www.w3.org/2000/svg" viewBox="0 0 512 384">
    <path d="M 48 336 L 112 336 L 112 272 L 48 272 L 48 336 L 48 336 Z M 0 384 L 0 336 L 0 272 L 0 224 L 48 224 L 112 224 L 160 224 L 160 272 L 160 280 L 488 280 L 512 280 L 512 328 L 488 328 L 160 328 L 160 336 L 160 384 L 112 384 L 48 384 L 0 384 L 0 384 Z M 24 104 L 0 104 L 0 56 L 24 56 L 352 56 L 352 48 L 352 0 L 400 0 L 464 0 L 512 0 L 512 48 L 512 112 L 512 160 L 464 160 L 400 160 L 352 160 L 352 112 L 352 104 L 24 104 L 24 104 Z M 400 48 L 400 112 L 464 112 L 464 48 L 400 48 L 400 48 Z"/>
</svg>
