<svg xmlns="http://www.w3.org/2000/svg" viewBox="0 0 512 512">
  <path d="M 160 96 Q 160 70 173 48 L 173 48 L 173 48 Q 186 26 208 13 Q 231 0 256 0 Q 281 0 304 13 Q 326 26 339 48 Q 352 70 352 96 Q 352 122 339 144 Q 326 166 304 179 Q 281 192 256 192 Q 231 192 208 179 Q 186 166 173 144 Q 160 122 160 96 L 160 96 Z M 240 248 L 240 512 L 240 248 L 240 512 L 169 483 L 169 483 Q 144 472 117 469 L 0 456 L 0 456 L 0 192 L 0 192 L 58 192 L 58 192 Q 144 192 219 236 L 240 248 L 240 248 Z M 272 512 L 272 248 L 272 512 L 272 248 Q 352 193 450 192 L 512 192 L 512 192 L 512 456 L 512 456 L 387 469 L 387 469 Q 352 472 320 488 L 272 512 L 272 512 Z" />
</svg>