<svg xmlns="http://www.w3.org/2000/svg" viewBox="0 0 512 512">
  <path d="M 99.55555555555556 128 Q 98.66666666666667 152 82.66666666666667 168 L 82.66666666666667 168 L 82.66666666666667 168 Q 66.66666666666667 184 42.666666666666664 184.88888888888889 L 42.666666666666664 327.1111111111111 L 42.666666666666664 327.1111111111111 Q 66.66666666666667 328 82.66666666666667 344 Q 98.66666666666667 360 99.55555555555556 384 L 412.44444444444446 384 L 412.44444444444446 384 Q 413.3333333333333 360 429.3333333333333 344 Q 445.3333333333333 328 469.3333333333333 327.1111111111111 L 469.3333333333333 184.88888888888889 L 469.3333333333333 184.88888888888889 Q 445.3333333333333 184 429.3333333333333 168 Q 413.3333333333333 152 412.44444444444446 128 L 99.55555555555556 128 L 99.55555555555556 128 Z M 0 85.33333333333333 L 42.666666666666664 85.33333333333333 L 0 85.33333333333333 L 512 85.33333333333333 L 512 128 L 512 128 L 512 384 L 512 384 L 512 426.6666666666667 L 512 426.6666666666667 L 469.3333333333333 426.6666666666667 L 0 426.6666666666667 L 0 384 L 0 384 L 0 128 L 0 128 L 0 85.33333333333333 L 0 85.33333333333333 Z M 256 170.66666666666666 Q 279.1111111111111 170.66666666666666 298.6666666666667 182.22222222222223 L 298.6666666666667 182.22222222222223 L 298.6666666666667 182.22222222222223 Q 318.22222222222223 193.77777777777777 329.77777777777777 213.33333333333334 Q 341.3333333333333 233.77777777777777 341.3333333333333 256 Q 341.3333333333333 278.22222222222223 329.77777777777777 298.6666666666667 Q 318.22222222222223 318.22222222222223 298.6666666666667 329.77777777777777 Q 279.1111111111111 341.3333333333333 256 341.3333333333333 Q 232.88888888888889 341.3333333333333 213.33333333333334 329.77777777777777 Q 193.77777777777777 318.22222222222223 182.22222222222223 298.6666666666667 Q 170.66666666666666 278.22222222222223 170.66666666666666 256 Q 170.66666666666666 233.77777777777777 182.22222222222223 213.33333333333334 Q 193.77777777777777 193.77777777777777 213.33333333333334 182.22222222222223 Q 232.88888888888889 170.66666666666666 256 170.66666666666666 L 256 170.66666666666666 Z" />
</svg>