<svg viewBox="0 0 520 512">
  <path
    d="M 256 16 L 256 0 L 224 0 L 224 16 L 224 40 Q 225 64 240 80 Q 256 95 280 96 L 288 96 L 296 96 L 317 96 L 316 97 L 256 112 L 256 144 L 302 144 L 295 168 L 104 168 Q 60 169 32 200 Q 1 228 0 272 L 0 320 L 0 336 L 32 336 L 32 322 L 40 330 L 40 348 L 25 392 L 23 400 L 26 408 L 58 496 L 63 512 L 80 512 L 160 512 L 194 512 L 183 480 L 156 408 L 183 387 L 192 380 L 192 369 L 208 375 L 212 376 L 216 376 L 264 376 L 264 488 L 264 512 L 288 512 L 368 512 L 392 512 L 392 488 L 392 312 Q 392 308 393 304 L 409 256 L 496 256 L 520 256 L 520 232 L 520 168 L 520 157 L 512 150 L 444 88 Q 471 72 472 40 L 472 16 L 472 0 L 440 0 L 440 16 L 440 40 Q 438 62 416 64 L 408 64 L 347 64 Q 352 53 352 40 L 352 16 L 352 0 L 320 0 L 320 16 L 320 40 Q 318 62 296 64 L 288 64 L 280 64 Q 258 62 256 40 L 256 16 L 256 16 Z M 144 357 L 113 381 L 100 392 L 106 408 L 126 464 L 97 464 L 73 400 L 87 360 L 88 356 L 88 352 L 88 320 L 88 310 L 81 303 L 56 278 L 56 264 Q 57 244 70 230 Q 84 217 104 216 L 313 216 L 331 216 L 336 199 L 362 112 L 399 112 L 472 179 L 472 208 L 392 208 L 375 208 L 369 224 L 348 289 Q 344 300 344 312 L 344 464 L 312 464 L 312 352 L 312 328 L 288 328 L 220 328 L 176 313 L 144 303 L 144 336 L 144 357 L 144 357 Z M 416 160 Q 415 145 400 144 Q 385 145 384 160 Q 385 175 400 176 Q 415 175 416 160 L 416 160 Z"
  />
</svg>