<svg xmlns="http://www.w3.org/2000/svg" viewBox="0 0 512 512">
  <path d="M 318.5544147843942 54.143737166324435 L 318.5544147843942 188.71457905544148 L 318.5544147843942 54.143737166324435 L 318.5544147843942 188.71457905544148 L 453.1252566735113 188.71457905544148 L 453.1252566735113 188.71457905544148 L 453.1252566735113 54.143737166324435 L 453.1252566735113 54.143737166324435 L 318.5544147843942 54.143737166324435 L 318.5544147843942 54.143737166324435 Z M 284.911704312115 20.501026694045173 L 318.5544147843942 20.501026694045173 L 284.911704312115 20.501026694045173 L 486.7679671457906 20.501026694045173 L 486.7679671457906 54.143737166324435 L 486.7679671457906 54.143737166324435 L 486.7679671457906 188.71457905544148 L 486.7679671457906 188.71457905544148 L 486.7679671457906 222.35728952772075 L 486.7679671457906 222.35728952772075 L 453.1252566735113 222.35728952772075 L 284.911704312115 222.35728952772075 L 284.911704312115 188.71457905544148 L 284.911704312115 188.71457905544148 L 284.911704312115 54.143737166324435 L 284.911704312115 54.143737166324435 L 284.911704312115 20.501026694045173 L 284.911704312115 20.501026694045173 Z M 116.69815195071868 21.5523613963039 L 128.26283367556468 34.168377823408626 L 116.69815195071868 21.5523613963039 L 128.26283367556468 34.168377823408626 L 220.78028747433265 126.6858316221766 L 220.78028747433265 126.6858316221766 L 233.39630390143736 138.25051334702258 L 233.39630390143736 138.25051334702258 L 209.21560574948666 162.4312114989733 L 209.21560574948666 162.4312114989733 L 197.65092402464066 149.81519507186857 L 197.65092402464066 149.81519507186857 L 133.5195071868583 86.73511293634498 L 133.5195071868583 86.73511293634498 L 133.5195071868583 474.6776180698152 L 133.5195071868583 474.6776180698152 L 133.5195071868583 491.49897330595485 L 133.5195071868583 491.49897330595485 L 99.87679671457906 491.49897330595485 L 99.87679671457906 491.49897330595485 L 99.87679671457906 474.6776180698152 L 99.87679671457906 474.6776180698152 L 99.87679671457906 86.73511293634498 L 99.87679671457906 86.73511293634498 L 35.74537987679671 149.81519507186857 L 35.74537987679671 149.81519507186857 L 24.18069815195072 162.4312114989733 L 24.18069815195072 162.4312114989733 L 0 138.25051334702258 L 0 138.25051334702258 L 12.616016427104723 126.6858316221766 L 12.616016427104723 126.6858316221766 L 105.13347022587268 34.168377823408626 L 105.13347022587268 34.168377823408626 L 116.69815195071868 21.5523613963039 L 116.69815195071868 21.5523613963039 Z M 259.67967145790556 491.49897330595485 L 280.70636550308006 457.85626283367554 L 259.67967145790556 491.49897330595485 L 280.70636550308006 457.85626283367554 L 365.864476386037 321.18275154004107 L 365.864476386037 321.18275154004107 L 385.8398357289528 289.64271047227925 L 385.8398357289528 289.64271047227925 L 405.8151950718686 321.18275154004107 L 405.8151950718686 321.18275154004107 L 490.97330595482543 457.85626283367554 L 490.97330595482543 457.85626283367554 L 512 491.49897330595485 L 512 491.49897330595485 L 472.04928131416835 491.49897330595485 L 259.67967145790556 491.49897330595485 Z M 451.02258726899385 457.85626283367554 L 385.8398357289528 352.7227926078029 L 451.02258726899385 457.85626283367554 L 385.8398357289528 352.7227926078029 L 320.6570841889117 457.85626283367554 L 320.6570841889117 457.85626283367554 L 451.02258726899385 457.85626283367554 L 451.02258726899385 457.85626283367554 Z" />
</svg>