<svg xmlns="http://www.w3.org/2000/svg" viewBox="0 0 512 512">
  <path d="M 199.11111 28.444445 L 0 28.444445 L 199.11111 28.444445 L 0 28.444445 L 0 483.55554 L 0 483.55554 L 341.33334 483.55554 L 341.33334 483.55554 L 341.33334 408 L 341.33334 408 L 339.55554 409.77777 L 339.55554 409.77777 L 232.88889 424.8889 L 232.88889 424.8889 L 223.11111 426.66666 L 223.11111 426.66666 L 212.44444 428.44446 L 212.44444 428.44446 L 208 418.66666 L 208 418.66666 L 197.33333 398.22223 L 197.33333 398.22223 L 186.66667 398.22223 L 186.66667 398.22223 L 176 418.66666 L 176 418.66666 L 172.44444 426.66666 L 172.44444 426.66666 L 163.55556 426.66666 L 145.77777 426.66666 L 143.11111 416.8889 L 143.11111 416.8889 L 128 367.1111 L 128 367.1111 L 112.888885 416.8889 L 112.888885 416.8889 L 110.22222 426.66666 L 110.22222 426.66666 L 99.55556 426.66666 L 56.88889 426.66666 L 56.88889 398.22223 L 56.88889 398.22223 L 71.111115 398.22223 L 88.888885 398.22223 L 107.55556 336.8889 L 107.55556 336.8889 L 110.22222 327.1111 L 110.22222 327.1111 L 120.888885 327.1111 L 145.77777 327.1111 L 148.44444 336.8889 L 148.44444 336.8889 L 162.66667 383.1111 L 162.66667 383.1111 L 165.33333 377.77777 L 165.33333 377.77777 L 168.88889 369.77777 L 168.88889 369.77777 L 177.77777 369.77777 L 215.11111 369.77777 L 218.66667 377.77777 L 218.66667 377.77777 L 224.88889 390.22223 L 224.88889 390.22223 L 237.33333 306.66666 L 237.33333 306.66666 L 341.33334 202.66667 L 341.33334 202.66667 L 341.33334 170.66667 L 341.33334 170.66667 L 199.11111 170.66667 L 199.11111 170.66667 L 199.11111 28.444445 L 199.11111 28.444445 Z M 227.55556 28.444445 L 227.55556 142.22223 L 227.55556 28.444445 L 227.55556 142.22223 L 341.33334 142.22223 L 341.33334 142.22223 L 227.55556 28.444445 L 227.55556 28.444445 Z M 448.8889 135.11111 L 412.44446 171.55556 L 448.8889 135.11111 L 412.44446 171.55556 L 475.55554 234.66667 L 475.55554 234.66667 L 512 198.22223 L 512 198.22223 L 448.8889 135.11111 L 448.8889 135.11111 Z M 392 192 L 266.66666 317.33334 L 392 192 L 266.66666 317.33334 L 256 391.1111 L 256 391.1111 L 329.77777 380.44446 L 329.77777 380.44446 L 455.1111 255.11111 L 455.1111 255.11111 L 392 192 L 392 192 Z" />
</svg>