<svg xmlns="http://www.w3.org/2000/svg" viewBox="0 0 512 512">
  <path d="M 400 48 L 400 464 L 400 48 L 400 464 L 112 464 L 112 464 L 112 148 L 112 148 L 212 48 L 212 48 L 400 48 L 400 48 Z M 192 0 L 64 128 L 192 0 L 64 128 L 64 464 L 64 464 L 64 512 L 64 512 L 112 512 L 448 512 L 448 464 L 448 464 L 448 48 L 448 48 L 448 0 L 448 0 L 400 0 L 192 0 Z M 240 96 L 240 80 L 240 96 L 240 80 L 208 80 L 208 80 L 208 96 L 208 96 L 208 160 L 208 160 L 208 176 L 208 176 L 240 176 L 240 176 L 240 160 L 240 160 L 240 96 L 240 96 Z M 304 96 L 304 80 L 304 96 L 304 80 L 272 80 L 272 80 L 272 96 L 272 96 L 272 160 L 272 160 L 272 176 L 272 176 L 304 176 L 304 176 L 304 160 L 304 160 L 304 96 L 304 96 Z M 368 96 L 368 80 L 368 96 L 368 80 L 336 80 L 336 80 L 336 96 L 336 96 L 336 160 L 336 160 L 336 176 L 336 176 L 368 176 L 368 176 L 368 160 L 368 160 L 368 96 L 368 96 Z" />
</svg>