<svg xmlns="http://www.w3.org/2000/svg" viewBox="0 0 512 512">
  <path d="M 50.401558 402.21442 L 143.22028 495.03314 L 50.401558 402.21442 L 143.22028 495.03314 L 160.18713 512 L 160.18713 512 L 194.12086 478.06628 L 194.12086 478.06628 L 177.15399 461.09943 L 177.15399 461.09943 L 125.25536 409.20078 L 125.25536 409.20078 L 455.61014 409.20078 L 479.56335 409.20078 L 479.56335 361.29434 L 479.56335 361.29434 L 455.61014 361.29434 L 125.25536 361.29434 L 180.14815 306.40155 L 180.14815 306.40155 L 197.115 289.4347 L 197.115 289.4347 L 163.18129 255.50098 L 163.18129 255.50098 L 146.21443 272.46783 L 146.21443 272.46783 L 50.401558 368.2807 L 50.401558 368.2807 L 33.434696 385.24756 L 33.434696 385.24756 L 50.401558 402.21442 L 50.401558 402.21442 Z M 461.59845 146.71346 L 478.5653 129.74658 L 461.59845 146.71346 L 478.5653 129.74658 L 461.59845 112.779724 L 461.59845 112.779724 L 365.78558 16.966862 L 365.78558 16.966862 L 348.81873 0 L 348.81873 0 L 314.88498 33.933723 L 314.88498 33.933723 L 331.85184 50.900585 L 331.85184 50.900585 L 386.74463 105.79337 L 386.74463 105.79337 L 56.389862 105.79337 L 32.436646 105.79337 L 32.436646 153.6998 L 32.436646 153.6998 L 56.389862 153.6998 L 386.74463 153.6998 L 331.85184 208.59259 L 331.85184 208.59259 L 314.88498 225.55945 L 314.88498 225.55945 L 348.81873 259.49316 L 348.81873 259.49316 L 365.78558 242.52632 L 365.78558 242.52632 L 461.59845 146.71346 L 461.59845 146.71346 Z" />
</svg>