<svg xmlns="http://www.w3.org/2000/svg" viewBox="0 0 512 512">
  <path d="M 272 463 L 272 432 L 272 463 L 272 432 L 208 432 L 208 432 L 160 384 L 160 384 L 160 272 L 160 272 L 304 272 L 304 272 L 352 320 L 352 320 L 384 320 L 384 320 L 416 352 L 416 352 L 441 352 L 441 352 Q 449 337 454 320 L 432 320 L 432 320 L 384 272 L 384 272 L 384 192 L 384 192 L 416 192 L 416 192 L 416 160 L 416 160 L 352 160 L 352 160 L 352 208 L 352 208 L 272 208 L 256 208 L 256 240 L 256 240 L 192 240 L 192 240 L 192 208 L 192 208 L 272 128 L 272 128 L 272 112 L 272 112 L 224 112 L 224 112 L 224 80 L 224 80 L 256 48 L 256 48 Q 168 50 109 109 Q 50 168 48 256 Q 50 344 109 403 Q 168 462 256 464 Q 264 464 272 463 L 272 463 Z M 0 256 Q 1 186 34 128 L 34 128 L 34 128 Q 68 70 128 34 Q 189 0 256 0 Q 323 0 384 34 Q 444 70 478 128 Q 511 186 512 256 Q 511 326 478 384 Q 444 442 384 478 Q 323 512 256 512 Q 189 512 128 478 Q 68 442 34 384 Q 1 326 0 256 L 0 256 Z M 187 123 L 155 155 L 187 123 L 155 155 L 144 167 L 144 167 L 121 144 L 121 144 L 133 133 L 133 133 L 165 101 L 165 101 L 176 89 L 176 89 L 199 112 L 199 112 L 187 123 L 187 123 Z" />
</svg>