<svg xmlns="http://www.w3.org/2000/svg" viewBox="0 0 512 512">
  <path d="M 25.6 76.8 L 281.6 76.8 L 25.6 76.8 L 281.6 76.8 L 281.6 396.8 L 281.6 396.8 L 307.2 338.4 L 307.2 338.4 L 307.2 76.8 L 307.2 76.8 L 307.2 51.2 L 307.2 51.2 L 281.6 51.2 L 0 51.2 L 0 76.8 L 0 76.8 L 0 435.2 L 0 435.2 L 0 460.8 L 0 460.8 L 25.6 460.8 L 253.6 460.8 L 264.8 435.2 L 264.8 435.2 L 204.8 435.2 L 204.8 435.2 L 204.8 371.2 L 204.8 371.2 L 204.8 345.6 L 204.8 345.6 L 179.2 345.6 L 102.4 345.6 L 102.4 371.2 L 102.4 371.2 L 102.4 435.2 L 102.4 435.2 L 25.6 435.2 L 25.6 435.2 L 25.6 76.8 L 25.6 76.8 Z M 128 435.2 L 128 371.2 L 128 435.2 L 128 371.2 L 179.2 371.2 L 179.2 371.2 L 179.2 435.2 L 179.2 435.2 L 128 435.2 L 128 435.2 Z M 51.2 128 L 51.2 140.8 L 51.2 128 L 51.2 140.8 L 51.2 192 L 51.2 192 L 51.2 204.8 L 51.2 204.8 L 64 204.8 L 128 204.8 L 128 192 L 128 192 L 128 140.8 L 128 140.8 L 128 128 L 128 128 L 115.2 128 L 51.2 128 Z M 76.8 153.6 L 102.4 153.6 L 76.8 153.6 L 102.4 153.6 L 102.4 179.2 L 102.4 179.2 L 76.8 179.2 L 76.8 179.2 L 76.8 153.6 L 76.8 153.6 Z M 192 128 L 179.2 128 L 192 128 L 179.2 128 L 179.2 140.8 L 179.2 140.8 L 179.2 192 L 179.2 192 L 179.2 204.8 L 179.2 204.8 L 192 204.8 L 256 204.8 L 256 192 L 256 192 L 256 140.8 L 256 140.8 L 256 128 L 256 128 L 243.2 128 L 192 128 Z M 204.8 179.2 L 204.8 153.6 L 204.8 179.2 L 204.8 153.6 L 230.4 153.6 L 230.4 153.6 L 230.4 179.2 L 230.4 179.2 L 204.8 179.2 L 204.8 179.2 Z M 51.2 230.4 L 51.2 243.2 L 51.2 230.4 L 51.2 243.2 L 51.2 294.4 L 51.2 294.4 L 51.2 307.2 L 51.2 307.2 L 64 307.2 L 128 307.2 L 128 294.4 L 128 294.4 L 128 243.2 L 128 243.2 L 128 230.4 L 128 230.4 L 115.2 230.4 L 51.2 230.4 Z M 76.8 256 L 102.4 256 L 76.8 256 L 102.4 256 L 102.4 281.6 L 102.4 281.6 L 76.8 281.6 L 76.8 281.6 L 76.8 256 L 76.8 256 Z M 192 230.4 L 179.2 230.4 L 192 230.4 L 179.2 230.4 L 179.2 243.2 L 179.2 243.2 L 179.2 294.4 L 179.2 294.4 L 179.2 307.2 L 179.2 307.2 L 192 307.2 L 256 307.2 L 256 294.4 L 256 294.4 L 256 243.2 L 256 243.2 L 256 230.4 L 256 230.4 L 243.2 230.4 L 192 230.4 Z M 204.8 281.6 L 204.8 256 L 204.8 281.6 L 204.8 256 L 230.4 256 L 230.4 256 L 230.4 281.6 L 230.4 281.6 L 204.8 281.6 L 204.8 281.6 Z M 326.4 358.4 L 320 373.6 L 326.4 358.4 L 320 373.6 L 297.6 424.8 L 297.6 424.8 L 292.8 435.2 L 292.8 435.2 L 281.6 460.8 L 281.6 460.8 L 309.6 460.8 L 512 460.8 L 500.8 435.2 L 500.8 435.2 L 496 424.8 L 496 424.8 L 473.6 373.6 L 473.6 373.6 L 467.2 358.4 L 467.2 358.4 L 450.4 358.4 L 326.4 358.4 Z M 472.8 435.2 L 444.8 435.2 L 472.8 435.2 L 320.8 435.2 L 332 409.6 L 332 409.6 L 343.2 384 L 343.2 384 L 450.4 384 L 450.4 384 L 461.6 409.6 L 461.6 409.6 L 472.8 435.2 L 472.8 435.2 Z M 460.8 268.8 Q 460 232.8 428.8 213.6 Q 396.8 196 364.8 213.6 Q 333.6 232.8 332.8 268.8 Q 333.6 304.8 364.8 324 Q 396.8 341.6 428.8 324 Q 460 304.8 460.8 268.8 L 460.8 268.8 Z M 358.4 268.8 Q 359.2 247.2 377.6 235.2 Q 396.8 225.6 416 235.2 Q 434.4 247.2 435.2 268.8 Q 434.4 290.4 416 302.4 Q 396.8 312 377.6 302.4 Q 359.2 290.4 358.4 268.8 L 358.4 268.8 Z" />
</svg>