<svg xmlns="http://www.w3.org/2000/svg" viewBox="0 0 512 512">
  <path d="M 208 48 Q 251 48 288 69 L 288 69 L 288 69 Q 325 91 347 128 Q 368 166 368 208 Q 368 250 347 288 Q 325 325 288 347 Q 251 368 208 368 Q 165 368 128 347 Q 91 325 69 288 Q 48 250 48 208 Q 48 166 69 128 Q 91 91 128 69 Q 165 48 208 48 L 208 48 Z M 208 416 Q 283 415 337 371 L 461 495 L 461 495 L 478 512 L 478 512 L 512 478 L 512 478 L 495 461 L 495 461 L 371 337 L 371 337 Q 415 283 416 208 Q 414 120 355 61 Q 296 2 208 0 Q 120 2 61 61 Q 2 120 0 208 Q 2 296 61 355 Q 120 414 208 416 L 208 416 Z M 104 216 L 104 264 L 104 216 L 104 264 L 104 288 L 104 288 L 152 288 L 152 288 L 152 264 L 152 264 L 152 216 L 152 216 L 152 192 L 152 192 L 104 192 L 104 192 L 104 216 L 104 216 Z M 184 120 L 184 264 L 184 120 L 184 264 L 184 288 L 184 288 L 232 288 L 232 288 L 232 264 L 232 264 L 232 120 L 232 120 L 232 96 L 232 96 L 184 96 L 184 96 L 184 120 L 184 120 Z M 264 184 L 264 264 L 264 184 L 264 264 L 264 288 L 264 288 L 312 288 L 312 288 L 312 264 L 312 264 L 312 184 L 312 184 L 312 160 L 312 160 L 264 160 L 264 160 L 264 184 L 264 184 Z" />
</svg>