<svg xmlns="http://www.w3.org/2000/svg" viewBox="0 0 512 512">
  <path d="M 480.94556 261.17575 Q 476.96423 265.95334 472.1866 270.73096 Q 467.40903 275.50854 462.6314 279.4899 Q 423.61432 310.5443 375.83826 308.15552 Q 328.8585 305.76672 292.23016 270.73096 Q 257.1944 234.10265 254.8056 187.12286 Q 252.4168 139.34682 283.47122 100.329704 Q 287.45258 95.5521 292.23016 90.7745 Q 297.00778 85.99689 301.78537 82.01555 Q 340.8025 50.96112 387.78226 53.349922 Q 435.55832 55.738724 472.1866 90.7745 Q 507.22238 127.4028 509.6112 175.17885 Q 512 222.15863 480.94556 261.17575 L 480.94556 261.17575 Z M 454.66873 109.088646 Q 425.20685 81.219284 388.57855 78.83048 L 388.57855 78.83048 L 388.57855 78.83048 Q 351.15396 77.237946 320.09955 100.329704 L 462.6314 243.65785 L 462.6314 243.65785 Q 485.72318 211.80716 484.13065 175.17885 Q 481.74182 137.75427 454.66873 109.088646 L 454.66873 109.088646 Z M 445.11353 261.17575 L 301.78537 118.64386 L 445.11353 261.17575 L 301.78537 118.64386 Q 278.69363 149.69829 280.28616 187.12286 Q 282.67496 223.75116 310.5443 253.21306 Q 339.20996 280.28616 375.83826 282.67496 Q 413.26282 284.2675 445.11353 261.17575 L 445.11353 261.17575 Z M 254.00934 320.8958 Q 254.8056 327.26593 254.8056 333.63608 Q 254.8056 340.00623 254.00934 346.37637 Q 248.43546 395.74493 213.39969 427.59564 Q 178.36392 460.2426 127.4028 461.03888 Q 76.44168 460.2426 41.40591 427.59564 Q 6.37014 395.74493 0.7962675 346.37637 Q 0 340.00623 0 333.63608 Q 0 327.26593 0.7962675 320.8958 Q 6.37014 271.52722 41.40591 239.67651 Q 76.44168 207.02956 127.4028 206.23328 Q 178.36392 207.02956 213.39969 239.67651 Q 248.43546 271.52722 254.00934 320.8958 L 254.00934 320.8958 Z M 127.4028 231.71384 Q 87.589424 232.5101 59.720062 257.1944 L 59.720062 257.1944 L 59.720062 257.1944 Q 31.8507 282.67496 26.276827 320.8958 L 228.52878 320.8958 L 228.52878 320.8958 Q 222.9549 282.67496 195.08554 257.1944 Q 167.21617 232.5101 127.4028 231.71384 L 127.4028 231.71384 Z M 127.4028 435.55832 Q 167.21617 434.76205 195.08554 410.07776 L 195.08554 410.07776 L 195.08554 410.07776 Q 222.9549 384.5972 228.52878 346.37637 L 26.276827 346.37637 L 26.276827 346.37637 Q 31.8507 384.5972 59.720062 410.07776 Q 87.589424 434.76205 127.4028 435.55832 L 127.4028 435.55832 Z" />
</svg>