<svg viewBox="0 0 448 512">
  <path
    d="M 224 0 L 194 0 L 211 25 L 222 41 Q 224 45 224 49 Q 223 63 209 64 L 135 64 Q 105 65 85 85 Q 65 105 64 135 Q 64 149 69 161 Q 39 166 20 187 Q 1 209 0 240 L 0 304 L 0 320 L 16 320 L 432 320 L 448 320 L 448 304 L 448 240 Q 447 208 427 186 Q 408 164 377 161 Q 384 146 384 129 Q 383 74 346 38 Q 310 1 255 0 L 224 0 L 224 0 Z M 256 49 Q 256 40 253 32 L 255 32 Q 296 33 324 60 Q 351 88 352 129 Q 351 148 338 160 L 248 160 L 232 160 L 232 192 L 248 192 L 290 192 L 343 192 L 352 192 L 368 192 Q 388 193 402 206 Q 415 220 416 240 L 416 288 L 32 288 L 32 240 Q 33 220 46 206 Q 60 193 80 192 L 96 192 L 98 192 L 136 192 L 139 192 L 152 192 L 152 160 L 136 160 L 105 160 Q 96 150 96 135 Q 96 119 108 107 Q 119 96 135 96 L 209 96 Q 229 96 242 82 Q 255 69 256 49 L 256 49 Z M 0 352 Q 1 393 28 420 L 28 420 Q 55 447 96 448 L 150 448 L 130 489 L 118 512 L 144 512 L 304 512 L 330 512 L 318 489 L 298 448 L 352 448 Q 393 447 420 420 Q 447 393 448 352 L 416 352 Q 415 379 397 397 Q 379 415 352 416 L 272 416 L 246 416 L 258 439 L 278 480 L 170 480 L 190 439 L 202 416 L 176 416 L 96 416 Q 69 415 51 397 Q 33 379 32 352 L 0 352 L 0 352 Z"
  />
</svg>