<svg xmlns="http://www.w3.org/2000/svg" viewBox="0 0 512 512">
  <path d="M 0 43.03639514731369 L 397.5320623916811 43.03639514731369 L 0 43.03639514731369 L 397.5320623916811 43.03639514731369 L 397.5320623916811 99.8266897746967 L 397.5320623916811 99.8266897746967 Q 397.5320623916811 132.6585788561525 387.7712305025997 162.82842287694973 L 345.1785095320624 120.23570190641247 L 345.1785095320624 120.23570190641247 L 325.65684575389946 132.6585788561525 L 325.65684575389946 132.6585788561525 Q 308.79722703639516 142.41941074523396 288.3882149046794 160.16637781629117 Q 267.09185441941077 178.8006932409012 247.57019064124782 202.75909878682842 Q 213.85095320623915 242.6897746967071 201.42807625649914 298.59272097053724 Q 200.5407279029463 298.59272097053724 199.6533795493934 298.59272097053724 Q 199.6533795493934 298.59272097053724 198.76603119584055 298.59272097053724 Q 176.58232235701905 298.59272097053724 155.28596187175043 294.155979202773 L 134.87694974003466 341.18544194107454 L 134.87694974003466 341.18544194107454 L 199.6533795493934 341.18544194107454 L 199.6533795493934 341.18544194107454 Q 201.42807625649914 363.369150779896 208.526863084922 383.7781629116118 L 141.97573656845753 383.7781629116118 L 141.97573656845753 383.7781629116118 Q 141.08838821490468 407.736568457539 125.1161178509532 423.7088388214905 Q 109.14384748700174 439.6811091854419 85.18544194107453 440.5684575389948 Q 61.227036395147316 439.6811091854419 45.25476603119584 423.7088388214905 Q 29.28249566724437 407.736568457539 28.395147313691506 383.7781629116118 Q 29.28249566724437 359.81975736568455 45.25476603119584 343.8474870017331 Q 61.227036395147316 327.87521663778165 85.18544194107453 326.9878682842288 Q 89.62218370883882 326.9878682842288 94.05892547660312 327.87521663778165 L 114.46793760831889 279.95840554592723 L 114.46793760831889 279.95840554592723 Q 63.001733102253034 255.11265164644715 31.944540727902947 208.0831889081456 Q 0.8873483535528596 160.16637781629117 0 99.8266897746967 L 0 43.03639514731369 L 0 43.03639514731369 Z M 85.18544194107453 405.0745233968804 Q 104.70710571923743 403.2998266897747 106.48180242634315 383.7781629116118 Q 104.70710571923743 364.25649913344887 85.18544194107453 362.48180242634317 Q 65.66377816291161 364.25649913344887 63.88908145580589 383.7781629116118 Q 65.66377816291161 403.2998266897747 85.18544194107453 405.0745233968804 L 85.18544194107453 405.0745233968804 Z M 340.7417677642981 156.6169844020797 L 397.5320623916811 213.40727902946273 L 340.7417677642981 156.6169844020797 L 397.5320623916811 213.40727902946273 L 425.9272097053726 185.01213171577123 L 425.9272097053726 185.01213171577123 Q 475.6187175043328 228.49220103986136 494.2530329289428 268.42287694974004 Q 512 307.4662045060659 511.11265164644715 326.9878682842288 Q 509.33795493934144 387.3275563258232 469.40727902946276 427.2582322357019 Q 429.47660311958407 467.18890814558057 369.1369150779896 468.96360485268633 Q 308.79722703639516 467.18890814558057 268.86655112651647 427.2582322357019 Q 228.93587521663778 387.3275563258232 227.16117850953205 326.9878682842288 Q 228.04852686308493 287.0571923743501 248.4575389948007 252.45060658578856 Q 267.9792027729636 218.7313691507799 294.5996533795494 193.88561525129984 Q 320.33275563258235 169.03986135181975 340.7417677642981 156.6169844020797 L 340.7417677642981 156.6169844020797 Z M 425.9272097053726 369.58058925476604 Q 425.03986135181975 348.2842287694974 410.842287694974 328.7625649913345 L 410.842287694974 328.7625649913345 L 410.842287694974 328.7625649913345 Q 397.5320623916811 309.2409012131716 384.2218370883882 296.81802426343154 L 384.2218370883882 296.81802426343154 L 384.2218370883882 296.81802426343154 Q 370.02426343154247 285.28249566724435 369.1369150779896 284.3951473136915 Q 368.24956672443676 285.28249566724435 354.051993067591 296.81802426343154 Q 340.7417677642981 309.2409012131716 327.4315424610052 328.7625649913345 Q 313.2339688041594 348.2842287694974 312.34662045060657 369.58058925476604 Q 313.2339688041594 393.5389948006932 329.2062391681109 409.5112651646447 Q 345.1785095320624 426.37088388214903 369.1369150779896 426.37088388214903 Q 393.0953206239168 426.37088388214903 409.0675909878683 409.5112651646447 Q 425.03986135181975 393.5389948006932 425.9272097053726 369.58058925476604 L 425.9272097053726 369.58058925476604 Z" />
</svg>