<svg xmlns="http://www.w3.org/2000/svg" viewBox="0 0 512 512">
  <path d="M 98.868965 75.47586 L 81.21379 93.131035 L 98.868965 75.47586 L 81.21379 93.131035 L 430.7862 93.131035 L 430.7862 93.131035 L 413.13104 75.47586 L 413.13104 75.47586 L 398.12415 60.468964 L 398.12415 60.468964 L 428.13794 30.455172 L 428.13794 30.455172 L 443.14484 45.46207 L 443.14484 45.46207 L 496.9931 99.31035 L 496.9931 99.31035 L 512 114.31724 L 512 114.31724 L 496.9931 129.32414 L 496.9931 129.32414 L 443.14484 183.17241 L 443.14484 183.17241 L 428.13794 198.1793 L 428.13794 198.1793 L 398.12415 168.16551 L 398.12415 168.16551 L 413.13104 153.15862 L 413.13104 153.15862 L 430.7862 135.50345 L 430.7862 135.50345 L 81.21379 135.50345 L 81.21379 135.50345 L 98.868965 153.15862 L 98.868965 153.15862 L 113.87586 168.16551 L 113.87586 168.16551 L 83.86207 198.1793 L 83.86207 198.1793 L 68.85517 183.17241 L 68.85517 183.17241 L 15.006897 129.32414 L 15.006897 129.32414 L 0 114.31724 L 0 114.31724 L 15.006897 99.31035 L 15.006897 99.31035 L 68.85517 45.46207 L 68.85517 45.46207 L 83.86207 30.455172 L 83.86207 30.455172 L 113.87586 60.468964 L 113.87586 60.468964 L 98.868965 75.47586 L 98.868965 75.47586 Z M 58.26207 481.54483 L 86.510345 283.8069 L 58.26207 481.54483 L 86.510345 283.8069 L 256 170.8138 L 256 170.8138 L 425.48965 283.8069 L 425.48965 283.8069 L 453.73795 481.54483 L 453.73795 481.54483 L 340.74484 481.54483 L 340.74484 481.54483 L 256 340.30344 L 256 340.30344 L 256 481.54483 L 256 481.54483 L 58.26207 481.54483 L 58.26207 481.54483 Z" />
</svg>