<svg xmlns="http://www.w3.org/2000/svg" viewBox="0 0 512 512">
  <path d="M 384 160 L 384 128 L 384 160 L 384 128 Q 383 101 365 83 Q 347 65 320 64 Q 300 64 285 74 L 259 91 L 259 91 L 242 66 L 242 66 Q 218 34 176 32 Q 142 33 119 55 Q 97 78 96 112 L 96 134 L 96 134 L 96 156 L 96 156 L 75 164 L 75 164 Q 56 171 44 187 Q 32 203 32 224 L 32 288 L 32 288 L 96 288 L 480 288 L 480 224 L 480 224 Q 479 197 461 179 Q 443 161 416 160 L 384 160 L 384 160 Z M 32 320 L 0 320 L 32 320 L 0 320 L 0 288 L 0 288 L 0 224 L 0 224 Q 1 192 18 168 Q 36 144 64 134 L 64 112 L 64 112 Q 65 64 97 33 Q 128 1 176 0 Q 235 2 268 48 Q 291 32 320 32 Q 361 33 388 60 Q 415 87 416 128 Q 457 129 484 156 Q 511 183 512 224 L 512 288 L 512 288 L 512 320 L 512 320 L 480 320 L 32 320 Z M 0 488 Q 2 466 24 464 Q 46 466 48 488 Q 46 510 24 512 Q 2 510 0 488 L 0 488 Z M 216 464 Q 238 466 240 488 Q 238 510 216 512 Q 194 510 192 488 Q 194 466 216 464 L 216 464 Z M 384 488 Q 386 466 408 464 Q 430 466 432 488 Q 430 510 408 512 Q 386 510 384 488 L 384 488 Z M 80 352 L 120 352 L 80 352 L 120 352 L 76 432 L 76 432 L 36 432 L 36 432 L 80 352 L 80 352 Z M 176 352 L 216 352 L 176 352 L 216 352 L 128 512 L 128 512 L 88 512 L 88 512 L 176 352 L 176 352 Z M 272 352 L 312 352 L 272 352 L 312 352 L 268 432 L 268 432 L 228 432 L 228 432 L 272 352 L 272 352 Z M 376 352 L 416 352 L 376 352 L 416 352 L 328 512 L 328 512 L 288 512 L 288 512 L 376 352 L 376 352 Z M 464 352 L 504 352 L 464 352 L 504 352 L 460 432 L 460 432 L 420 432 L 420 432 L 464 352 L 464 352 Z" />
</svg>