<svg xmlns="http://www.w3.org/2000/svg" viewBox="0 0 512 512">
  <path d="M 288 64 Q 302 64 311 55 L 311 55 L 311 55 Q 320 46 320 32 Q 320 18 311 9 Q 302 0 288 0 Q 274 0 265 9 Q 256 18 256 32 Q 256 46 265 55 Q 274 64 288 64 L 288 64 Z M 224 56 Q 224 42 215 33 L 215 33 L 215 33 Q 206 24 192 24 Q 178 24 169 33 Q 160 42 160 56 Q 160 70 169 79 Q 178 88 192 88 Q 206 88 215 79 Q 224 70 224 56 L 224 56 Z M 485 104 L 509 99 L 485 104 L 509 99 L 498 52 L 498 52 L 475 57 L 475 57 L 251 105 L 251 105 L 27 153 L 27 153 L 3 158 L 3 158 L 13 204 L 13 204 L 37 199 L 37 199 L 232 158 L 232 158 L 232 224 L 232 224 L 32 224 L 32 224 L 32 512 L 32 512 L 480 512 L 480 512 L 480 224 L 480 224 L 280 224 L 280 224 L 280 147 L 280 147 L 485 103 L 485 104 Z M 80 288 L 176 288 L 80 288 L 176 288 L 176 384 L 176 384 L 80 384 L 80 384 L 80 288 L 80 288 Z M 304 288 L 304 384 L 304 288 L 304 384 L 208 384 L 208 384 L 208 288 L 208 288 L 304 288 L 304 288 Z M 336 288 L 432 288 L 336 288 L 432 288 L 432 384 L 432 384 L 336 384 L 336 384 L 336 288 L 336 288 Z" />
</svg>