<svg xmlns="http://www.w3.org/2000/svg" viewBox="0 0 512 512">
  <path d="M 458.14633 121.756096 Q 442.5366 99.902435 418.34146 95.21951 L 418.34146 95.21951 L 418.34146 95.21951 Q 393.36584 89.756096 371.5122 103.80488 L 316.87805 140.48781 L 316.87805 140.48781 L 344.19513 167.80487 L 344.19513 167.80487 L 357.4634 181.07317 L 357.4634 181.07317 L 330.92682 207.60976 L 330.92682 207.60976 L 317.65854 194.34146 L 317.65854 194.34146 L 284.87805 161.56097 L 284.87805 161.56097 L 227.12195 200.58537 L 227.12195 200.58537 L 256.7805 230.2439 L 256.7805 230.2439 L 270.04877 243.51219 L 270.04877 243.51219 L 243.51219 270.04877 L 243.51219 270.04877 L 230.2439 256.7805 L 230.2439 256.7805 L 195.12195 221.65854 L 195.12195 221.65854 L 136.58537 259.90244 L 136.58537 259.90244 L 169.36586 292.68292 L 169.36586 292.68292 L 182.63414 305.95123 L 182.63414 305.95123 L 156.09756 332.4878 L 156.09756 332.4878 L 142.82927 319.2195 L 142.82927 319.2195 L 105.36585 281.7561 L 105.36585 281.7561 L 71.80488 303.60974 L 71.80488 303.60974 Q 49.951218 319.2195 45.26829 343.41464 Q 39.80488 368.39026 53.853657 390.2439 Q 69.46342 412.09756 93.65854 416.7805 Q 118.63415 422.2439 140.48781 408.19513 L 440.19513 208.39024 L 440.19513 208.39024 Q 462.04877 192.78049 466.73172 168.58537 Q 472.19513 143.60976 458.14633 121.756096 L 458.14633 121.756096 Z M 489.36584 100.68293 Q 512 136.58537 504.19513 175.60976 L 504.19513 175.60976 L 504.19513 175.60976 Q 495.60974 214.63414 461.26828 239.60976 L 161.56097 439.41464 L 161.56097 439.41464 Q 125.65854 462.04877 86.63415 454.2439 Q 47.609756 445.65854 23.414635 411.31708 Q 0 375.41464 8.585366 336.39026 Q 16.390244 297.36584 50.73171 273.17075 L 350.43903 73.36585 L 350.43903 73.36585 Q 386.34146 49.951218 425.36584 58.536587 Q 464.39026 66.34146 489.36584 100.68293 L 489.36584 100.68293 Z" />
</svg>