<svg xmlns="http://www.w3.org/2000/svg" viewBox="0 0 384 512">
    <path d="M 352 480 L 32 480 L 32 32 L 192 32 L 192 176 L 192 192 L 208 192 L 352 192 L 352 480 L 352 480 Z M 224 37 L 347 160 L 224 160 L 224 37 L 224 37 Z M 232 0 L 32 0 L 0 0 L 0 32 L 0 480 L 0 512 L 32 512 L 352 512 L 384 512 L 384 480 L 384 152 L 232 0 L 232 0 Z M 208 288 L 208 301 L 208 312 L 208 360 L 208 371 L 208 384 L 96 384 L 96 288 L 208 288 L 208 288 Z M 240 384 L 240 384 L 298 407 L 320 416 L 320 392 L 320 280 L 320 256 L 298 265 L 240 288 L 240 288 L 240 256 L 208 256 L 96 256 L 64 256 L 64 288 L 64 384 L 64 416 L 96 416 L 208 416 L 240 416 L 240 384 L 240 384 Z M 288 368 L 240 349 L 240 323 L 288 304 L 288 368 L 288 368 Z"/>
</svg>
