<svg xmlns="http://www.w3.org/2000/svg" viewBox="0 0 512 512">
  <path d="M 384.56888 58.02667 L 403.9111 38.684444 L 384.56888 58.02667 L 403.9111 38.684444 L 365.22665 0 L 365.22665 0 L 345.88443 19.342222 L 345.88443 19.342222 L 183.18222 182.04445 L 183.18222 182.04445 L 111.50222 110.36444 L 111.50222 110.36444 L 92.16 91.022224 L 92.16 91.022224 L 53.475555 129.70667 L 53.475555 129.70667 L 72.81778 149.04889 L 72.81778 149.04889 L 163.84 240.0711 L 163.84 240.0711 L 183.18222 259.41333 L 183.18222 259.41333 L 202.52444 240.0711 L 202.52444 240.0711 L 384.56888 58.02667 L 384.56888 58.02667 Z M 491.52 205.93777 L 510.8622 186.59555 L 491.52 205.93777 L 510.8622 186.59555 L 472.17776 147.91112 L 472.17776 147.91112 L 452.83554 167.25333 L 452.83554 167.25333 L 184.32 434.6311 L 184.32 434.6311 L 59.164444 310.61334 L 59.164444 310.61334 L 39.822224 291.27112 L 39.822224 291.27112 L 1.1377778 329.95557 L 1.1377778 329.95557 L 20.48 349.2978 L 20.48 349.2978 L 164.97778 492.65778 L 164.97778 492.65778 L 184.32 512 L 184.32 512 L 202.52444 492.65778 L 202.52444 492.65778 L 491.52 205.93777 L 491.52 205.93777 Z" />
</svg>