<svg xmlns="http://www.w3.org/2000/svg" viewBox="0 0 512 512">
  <path d="M 42.666668 85.333336 L 355.55554 85.333336 L 42.666668 85.333336 L 355.55554 85.333336 L 355.55554 266.66666 L 355.55554 266.66666 L 398.22223 224 L 398.22223 224 L 398.22223 85.333336 L 398.22223 85.333336 L 398.22223 42.666668 L 398.22223 42.666668 L 355.55554 42.666668 L 0 42.666668 L 0 85.333336 L 0 85.333336 L 0 398.22223 L 0 398.22223 L 0 440.8889 L 0 440.8889 L 42.666668 440.8889 L 229.33333 440.8889 L 235.55556 398.22223 L 235.55556 398.22223 L 42.666668 398.22223 L 42.666668 398.22223 L 42.666668 85.333336 L 42.666668 85.333336 Z M 327.1111 295.1111 L 327.1111 135.11111 L 327.1111 295.1111 L 327.1111 135.11111 L 327.1111 113.77778 L 327.1111 113.77778 L 305.77777 113.77778 L 177.77777 113.77778 L 177.77777 135.11111 L 177.77777 135.11111 L 177.77777 204.44444 L 177.77777 204.44444 Q 157.33333 216.88889 156.44444 241.77777 Q 157.33333 259.55554 168.88889 272 Q 181.33333 283.55554 199.11111 284.44446 Q 216.88889 283.55554 229.33333 272 Q 240.88889 259.55554 241.77777 241.77777 Q 240.88889 216.88889 220.44444 204.44444 L 220.44444 156.44444 L 220.44444 156.44444 L 284.44446 156.44444 L 284.44446 156.44444 L 284.44446 327.1111 L 284.44446 327.1111 L 113.77778 327.1111 L 113.77778 327.1111 L 113.77778 156.44444 L 113.77778 156.44444 L 120.888885 156.44444 L 142.22223 156.44444 L 142.22223 113.77778 L 142.22223 113.77778 L 120.888885 113.77778 L 71.111115 113.77778 L 71.111115 135.11111 L 71.111115 135.11111 L 71.111115 348.44446 L 71.111115 348.44446 L 71.111115 369.77777 L 71.111115 369.77777 L 92.44444 369.77777 L 252.44444 369.77777 L 327.1111 295.1111 L 327.1111 295.1111 Z M 448.8889 213.33333 L 412.44446 249.77777 L 448.8889 213.33333 L 412.44446 249.77777 L 475.55554 312.8889 L 475.55554 312.8889 L 512 276.44446 L 512 276.44446 L 448.8889 213.33333 L 448.8889 213.33333 Z M 392 270.22223 L 266.66666 395.55554 L 392 270.22223 L 266.66666 395.55554 L 256 469.33334 L 256 469.33334 L 329.77777 458.66666 L 329.77777 458.66666 L 455.1111 333.33334 L 455.1111 333.33334 L 392 270.22223 L 392 270.22223 Z" />
</svg>