<svg xmlns="http://www.w3.org/2000/svg" viewBox="0 0 576 512">
    <path d="M 120 24 L 120 0 L 72 0 L 72 24 L 72 112 L 120 112 L 120 24 L 120 24 Z M 312 24 L 312 0 L 264 0 L 264 24 L 264 112 L 312 112 L 312 24 L 312 24 Z M 24 144 L 0 144 L 0 192 L 24 192 L 32 192 L 32 256 Q 33 317 71 361 Q 109 404 168 414 L 168 512 L 216 512 L 216 414 Q 239 411 259 401 Q 256 385 256 368 Q 256 357 257 347 Q 229 367 192 368 Q 144 367 113 335 Q 81 304 80 256 L 80 192 L 304 192 L 304 247 Q 325 225 352 211 L 352 192 L 360 192 L 384 192 L 384 144 L 360 144 L 352 144 L 304 144 L 80 144 L 32 144 L 24 144 L 24 144 Z M 576 368 Q 576 329 557 296 L 557 296 Q 538 263 504 243 Q 470 224 432 224 Q 394 224 360 243 Q 326 263 307 296 Q 288 329 288 368 Q 288 407 307 440 Q 326 473 360 493 Q 394 512 432 512 Q 470 512 504 493 Q 538 473 557 440 Q 576 407 576 368 L 576 368 Z M 512 384 L 496 384 L 368 384 L 352 384 L 352 352 L 368 352 L 496 352 L 512 352 L 512 384 L 512 384 Z"/>
</svg>
