<svg xmlns="http://www.w3.org/2000/svg" viewBox="0 0 512 512">
  <path d="M 142.22222222222223 113.77777777777777 L 85.33333333333333 113.77777777777777 L 142.22222222222223 113.77777777777777 L 85.33333333333333 113.77777777777777 Q 48.888888888888886 114.66666666666667 24.88888888888889 138.66666666666666 Q 0.8888888888888888 162.66666666666666 0 199.11111111111111 L 0 398.22222222222223 L 0 398.22222222222223 Q 0.8888888888888888 434.6666666666667 24.88888888888889 458.6666666666667 Q 48.888888888888886 482.6666666666667 85.33333333333333 483.55555555555554 L 284.44444444444446 483.55555555555554 L 341.3333333333333 483.55555555555554 L 341.3333333333333 426.6666666666667 L 341.3333333333333 426.6666666666667 L 312.8888888888889 426.6666666666667 L 85.33333333333333 426.6666666666667 Q 72.88888888888889 426.6666666666667 64.88888888888889 418.6666666666667 Q 56.888888888888886 410.6666666666667 56.888888888888886 398.22222222222223 Q 56.888888888888886 385.77777777777777 64.88888888888889 377.77777777777777 Q 72.88888888888889 369.77777777777777 85.33333333333333 369.77777777777777 L 157.33333333333334 369.77777777777777 L 157.33333333333334 369.77777777777777 Q 142.22222222222223 344 142.22222222222223 312.8888888888889 L 142.22222222222223 113.77777777777777 L 142.22222222222223 113.77777777777777 Z M 284.44444444444446 398.22222222222223 L 312.8888888888889 398.22222222222223 L 284.44444444444446 398.22222222222223 L 512 398.22222222222223 L 512 369.77777777777777 L 512 369.77777777777777 L 512 341.3333333333333 L 512 341.3333333333333 L 483.55555555555554 341.3333333333333 L 483.55555555555554 341.3333333333333 L 483.55555555555554 284.44444444444446 L 483.55555555555554 284.44444444444446 L 512 284.44444444444446 L 512 284.44444444444446 L 512 56.888888888888886 L 512 56.888888888888886 L 512 28.444444444444443 L 512 28.444444444444443 L 483.55555555555554 28.444444444444443 L 256 28.444444444444443 Q 219.55555555555554 29.333333333333332 195.55555555555554 53.333333333333336 Q 171.55555555555554 77.33333333333333 170.66666666666666 113.77777777777777 L 170.66666666666666 312.8888888888889 L 170.66666666666666 312.8888888888889 Q 171.55555555555554 346.6666666666667 192 369.77777777777777 Q 216.88888888888889 397.3333333333333 256 398.22222222222223 L 284.44444444444446 398.22222222222223 L 284.44444444444446 398.22222222222223 Z M 227.55555555555554 312.8888888888889 Q 227.55555555555554 300.44444444444446 235.55555555555554 292.44444444444446 L 235.55555555555554 292.44444444444446 L 235.55555555555554 292.44444444444446 Q 243.55555555555554 284.44444444444446 256 284.44444444444446 L 341.3333333333333 284.44444444444446 L 426.6666666666667 284.44444444444446 L 426.6666666666667 341.3333333333333 L 426.6666666666667 341.3333333333333 L 341.3333333333333 341.3333333333333 L 256 341.3333333333333 Q 243.55555555555554 341.3333333333333 235.55555555555554 333.3333333333333 Q 227.55555555555554 325.3333333333333 227.55555555555554 312.8888888888889 L 227.55555555555554 312.8888888888889 Z" />
</svg>