<svg xmlns="http://www.w3.org/2000/svg" viewBox="0 0 352 512">
    <path d="M 160 352 L 160 320 L 160 128 L 160 96 L 128 96 L 32 96 L 32 32 L 224 32 L 224 320 L 224 352 L 256 352 L 307 352 L 192 467 L 77 352 L 128 352 L 160 352 L 160 352 Z M 64 320 L 32 320 L 32 352 L 169 489 L 192 512 L 215 489 L 352 352 L 352 320 L 320 320 L 288 320 L 256 320 L 256 288 L 256 32 L 256 0 L 224 0 L 32 0 L 0 0 L 0 32 L 0 96 L 0 128 L 32 128 L 96 128 L 128 128 L 128 160 L 128 288 L 128 320 L 96 320 L 64 320 L 64 320 Z"/>
</svg>
