<svg xmlns="http://www.w3.org/2000/svg" viewBox="0 0 512 512">
  <path d="M 256 0 Q 202 1 165 37 L 165 37 L 165 37 Q 129 74 128 128 L 128 144 L 128 144 L 56 144 L 32 144 L 32 168 L 32 168 L 32 410 L 32 410 L 3 469 L 3 469 L 0 474 L 0 474 L 0 480 L 0 480 L 0 488 L 0 488 L 0 512 L 0 512 L 24 512 L 160 512 L 160 488 L 160 488 L 160 415 L 160 415 L 182 440 L 182 440 L 189 448 L 189 448 L 200 448 L 323 448 L 330 440 L 330 440 L 352 415 L 352 415 L 352 488 L 352 488 L 352 512 L 352 512 L 376 512 L 512 512 L 512 488 L 512 488 L 512 480 L 512 480 L 512 474 L 512 474 L 510 469 L 510 469 L 480 410 L 480 410 L 480 168 L 480 168 L 480 144 L 480 144 L 456 144 L 384 144 L 384 128 L 384 128 Q 383 74 347 37 Q 310 1 256 0 L 256 0 Z M 192 96 Q 192 82 201 73 L 201 73 L 201 73 Q 210 64 224 64 Q 238 64 247 73 Q 256 82 256 96 Q 256 110 247 119 Q 238 128 224 128 Q 210 128 201 119 Q 192 110 192 96 L 192 96 Z M 304 96 Q 319 97 320 112 Q 319 127 304 128 Q 289 127 288 112 Q 289 97 304 96 L 304 96 Z M 160 343 L 160 192 L 160 343 L 160 192 L 352 192 L 352 192 L 352 343 L 352 343 L 301 400 L 301 400 L 211 400 L 211 400 L 160 343 L 160 343 Z M 112 192 L 112 352 L 112 192 L 112 352 L 112 464 L 112 464 L 59 464 L 59 464 L 77 427 L 77 427 L 80 422 L 80 422 L 80 416 L 80 416 L 80 192 L 80 192 L 112 192 L 112 192 Z M 400 192 L 432 192 L 400 192 L 432 192 L 432 416 L 432 416 L 432 422 L 432 422 L 435 427 L 435 427 L 453 464 L 453 464 L 400 464 L 400 464 L 400 352 L 400 352 L 400 192 L 400 192 Z M 208 224 L 192 224 L 208 224 L 192 224 L 192 256 L 192 256 L 208 256 L 320 256 L 320 224 L 320 224 L 304 224 L 208 224 Z M 208 288 L 192 288 L 208 288 L 192 288 L 192 320 L 192 320 L 208 320 L 320 320 L 320 288 L 320 288 L 304 288 L 208 288 Z" />
</svg>