<svg xmlns="http://www.w3.org/2000/svg" viewBox="0 0 640 512">
    <path d="M 448 0 L 448 43 Q 449 102 490 145 L 511 166 Q 543 199 544 245 L 544 288 L 480 288 L 480 245 Q 480 225 466 211 L 445 190 Q 385 129 384 43 L 384 0 L 448 0 L 448 0 Z M 576 288 L 576 245 Q 575 186 534 143 L 513 122 Q 481 89 480 43 L 480 0 L 544 0 L 544 43 Q 544 63 558 77 L 579 98 Q 639 159 640 245 L 640 288 L 576 288 L 576 288 Z M 0 352 L 32 352 L 416 352 L 448 352 L 448 384 L 448 480 L 448 512 L 416 512 L 32 512 L 0 512 L 0 480 L 0 384 L 0 352 L 0 352 Z M 224 416 L 224 448 L 384 448 L 384 416 L 224 416 L 224 416 Z M 544 352 L 544 384 L 544 480 L 544 512 L 480 512 L 480 480 L 480 384 L 480 352 L 544 352 L 544 352 Z M 640 352 L 640 384 L 640 480 L 640 512 L 576 512 L 576 480 L 576 384 L 576 352 L 640 352 L 640 352 Z"/>
</svg>
