<svg xmlns="http://www.w3.org/2000/svg" viewBox="0 0 512 512">
  <path d="M 60.8 51.2 L 70.4 51.2 L 60.8 51.2 L 246.4 51.2 L 248.8 60.8 L 248.8 60.8 L 272 140.8 L 272 140.8 L 281.6 140.8 L 307.2 140.8 L 307.2 166.4 L 307.2 166.4 L 281.6 166.4 L 262.4 166.4 L 262.4 166.4 L 262.4 166.4 L 246.4 166.4 L 44.8 166.4 Q 44.8 166.4 44.8 166.4 Q 44.8 166.4 44.8 166.4 L 25.6 166.4 L 25.6 166.4 L 25.6 243.2 L 25.6 243.2 L 25.6 256 L 25.6 256 L 179.2 256 L 179.2 256 L 179.2 281.6 L 179.2 281.6 L 25.6 281.6 L 25.6 281.6 L 25.6 320 L 25.6 320 L 0 320 L 0 320 L 0 281.6 L 0 281.6 L 0 256 L 0 256 L 0 243.2 L 0 243.2 L 0 166.4 L 0 166.4 L 0 140.8 L 0 140.8 L 25.6 140.8 L 35.2 140.8 L 58.4 60.8 L 58.4 60.8 L 60.8 51.2 L 60.8 51.2 Z M 227.2 76.8 L 80 76.8 L 227.2 76.8 L 80 76.8 L 61.6 140.8 L 61.6 140.8 L 245.6 140.8 L 245.6 140.8 L 227.2 76.8 L 227.2 76.8 Z M 64 192 Q 81.6 193.6 83.2 211.2 Q 81.6 228.8 64 230.4 Q 46.4 228.8 44.8 211.2 Q 46.4 193.6 64 192 L 64 192 Z M 265.6 192 L 275.2 192 L 265.6 192 L 451.2 192 L 453.6 201.6 L 453.6 201.6 L 476.8 281.6 L 476.8 281.6 L 486.4 281.6 L 512 281.6 L 512 307.2 L 512 307.2 L 512 384 L 512 384 L 512 396.8 L 512 396.8 L 512 422.4 L 512 422.4 L 512 460.8 L 512 460.8 L 486.4 460.8 L 486.4 460.8 L 486.4 422.4 L 486.4 422.4 L 230.4 422.4 L 230.4 422.4 L 230.4 460.8 L 230.4 460.8 L 204.8 460.8 L 204.8 460.8 L 204.8 422.4 L 204.8 422.4 L 204.8 396.8 L 204.8 396.8 L 204.8 384 L 204.8 384 L 204.8 307.2 L 204.8 307.2 L 204.8 281.6 L 204.8 281.6 L 230.4 281.6 L 240 281.6 L 263.2 201.6 L 263.2 201.6 L 265.6 192 L 265.6 192 Z M 486.4 307.2 L 467.2 307.2 L 486.4 307.2 L 467.2 307.2 Q 467.2 307.2 467.2 307.2 Q 467.2 307.2 467.2 307.2 L 249.6 307.2 L 249.6 307.2 Q 249.6 307.2 249.6 307.2 Q 249.6 307.2 249.6 307.2 L 230.4 307.2 L 230.4 307.2 L 230.4 384 L 230.4 384 L 230.4 396.8 L 230.4 396.8 L 486.4 396.8 L 486.4 396.8 L 486.4 384 L 486.4 384 L 486.4 307.2 L 486.4 307.2 Z M 432 217.6 L 284.8 217.6 L 432 217.6 L 284.8 217.6 L 266.4 281.6 L 266.4 281.6 L 450.4 281.6 L 450.4 281.6 L 432 217.6 L 432 217.6 Z M 268.8 332.8 Q 286.4 334.4 288 352 Q 286.4 369.6 268.8 371.2 Q 251.2 369.6 249.6 352 Q 251.2 334.4 268.8 332.8 L 268.8 332.8 Z M 428.8 352 Q 430.4 334.4 448 332.8 Q 465.6 334.4 467.2 352 Q 465.6 369.6 448 371.2 Q 430.4 369.6 428.8 352 L 428.8 352 Z" />
</svg>