<svg viewBox="0 0 640 448">
  <path
    d="M 104 104 Q 105 72 132 56 Q 160 40 188 56 Q 215 72 216 104 Q 215 136 188 152 Q 160 168 132 152 Q 105 136 104 104 L 104 104 Z M 264 104 Q 264 76 250 52 L 250 52 Q 236 28 212 14 Q 187 0 160 0 Q 133 0 108 14 Q 84 28 70 52 Q 56 76 56 104 Q 56 132 70 156 Q 84 180 108 194 Q 133 208 160 208 Q 187 208 212 194 Q 236 180 250 156 Q 264 132 264 104 L 264 104 Z M 480 192 Q 506 192 528 179 L 528 179 Q 550 166 563 144 Q 576 121 576 96 Q 576 71 563 48 Q 550 26 528 13 Q 506 0 480 0 Q 454 0 432 13 Q 410 26 397 48 Q 384 71 384 96 Q 384 121 397 144 Q 410 166 432 179 Q 454 192 480 192 L 480 192 Z M 99 304 L 221 304 L 253 400 L 67 400 L 99 304 L 99 304 Z M 256 256 L 64 256 L 16 400 L 0 448 L 51 448 L 269 448 L 320 448 L 304 400 L 256 256 L 256 256 Z M 640 256 L 320 256 L 384 448 L 576 448 L 640 256 L 640 256 Z"
  />
</svg>