<svg xmlns="http://www.w3.org/2000/svg" viewBox="0 0 640 448">
    <path d="M 320 256 L 640 144 L 640 112 L 320 0 L 0 112 L 0 144 L 92 176 L 53 212 L 48 217 L 48 224 L 48 288 Q 44 306 40 323 Q 26 372 13 402 Q 1 431 0 432 L 32 439 L 80 448 Q 98 404 95 373 Q 92 342 80 322 L 80 231 L 126 188 L 320 256 L 320 256 Z M 51 128 L 320 34 L 589 128 L 320 222 L 165 168 L 326 108 L 314 78 L 122 150 L 119 151 L 119 152 L 51 128 L 51 128 Z M 144 228 L 128 376 Q 130 404 184 425 Q 238 447 320 448 Q 402 447 456 425 Q 510 404 512 376 L 496 228 L 465 239 L 480 374 Q 480 374 479 375 Q 478 376 476 378 Q 467 386 444 396 Q 396 415 320 416 Q 244 415 196 395 Q 173 386 164 378 Q 161 376 160 374 L 175 239 L 144 228 L 144 228 Z M 481 373 Q 481 373 481 373 Q 480 373 480 373 Q 480 373 480 373 Q 480 373 480 373 Q 480 373 480 373 Q 481 373 481 373 L 481 373 Z M 160 373 Q 160 373 160 373 Q 160 373 160 373 Q 160 373 160 373 Q 160 373 160 373 Q 160 373 160 373 Q 160 373 160 373 L 160 373 Z M 59 411 L 45 408 Q 47 405 48 402 Q 55 384 62 363 Q 66 381 59 411 L 59 411 Z"/>
</svg>
