<svg xmlns="http://www.w3.org/2000/svg" viewBox="0 0 512 512">
  <path d="M 18.285715 0 L 54.857143 0 L 18.285715 0 L 201.14285 0 L 201.14285 73.14286 L 201.14285 73.14286 L 164.57143 73.14286 L 146.28572 73.14286 L 146.28572 219.42857 L 146.28572 219.42857 Q 147.42857 266.2857 178.28572 297.14285 Q 209.14285 328 256 329.14285 Q 302.85715 328 333.7143 297.14285 Q 364.57144 266.2857 365.7143 219.42857 L 365.7143 73.14286 L 365.7143 73.14286 L 347.42856 73.14286 L 310.85715 73.14286 L 310.85715 0 L 310.85715 0 L 347.42856 0 L 493.7143 0 L 493.7143 73.14286 L 493.7143 73.14286 L 457.14285 73.14286 L 438.85715 73.14286 L 438.85715 219.42857 L 438.85715 219.42857 Q 436.57144 297.14285 385.14285 348.57144 Q 333.7143 400 256 402.2857 Q 178.28572 400 126.85714 348.57144 Q 75.42857 297.14285 73.14286 219.42857 L 73.14286 73.14286 L 73.14286 73.14286 L 54.857143 73.14286 L 18.285715 73.14286 L 18.285715 0 L 18.285715 0 Z M 0 512 L 0 438.85715 L 0 512 L 0 438.85715 L 36.57143 438.85715 L 512 438.85715 L 512 512 L 512 512 L 475.42856 512 L 0 512 Z" />
</svg>