<svg xmlns="http://www.w3.org/2000/svg" viewBox="0 0 512 512">
  <path d="M 460.8852 126.50915 L 402.95508 37.91015 L 460.8852 126.50915 L 402.95508 37.91015 L 75.8203 37.91015 L 75.8203 37.91015 L 17.890182 126.50915 L 17.890182 126.50915 Q 0 158.02995 12.778702 189.55075 Q 26.409317 221.07155 62.189682 227.88686 Q 67.30116 228.73877 72.41264 228.73877 Q 107.341095 227.88686 128.63893 204.03328 Q 149.08485 227.88686 184.0133 228.73877 Q 218.08984 227.88686 239.38768 204.03328 Q 260.68552 227.88686 294.76205 228.73877 Q 320.31946 227.88686 339.06155 214.25624 Q 366.32278 175.92014 416.5857 174.21631 Q 443.84692 174.21631 465.99667 187.84692 Q 477.92346 157.17804 460.8852 126.50915 L 460.8852 126.50915 Z M 103.08153 365.04492 L 103.08153 251.74043 L 103.08153 365.04492 L 103.08153 251.74043 Q 88.599 256 72.41264 256 Q 65.597336 256 58.78203 255.14809 L 58.78203 255.14809 L 58.78203 255.14809 Q 53.670547 254.29617 48.559067 253.44426 L 48.559067 365.04492 L 48.559067 365.04492 L 48.559067 474.08984 L 48.559067 474.08984 L 293.91016 474.08984 L 293.91016 474.08984 L 293.91016 365.04492 L 293.91016 365.04492 L 103.08153 365.04492 L 103.08153 365.04492 Z M 416.5857 242.36938 Q 428.51248 242.36938 436.1797 250.0366 L 436.1797 250.0366 L 436.1797 250.0366 Q 443.84692 257.70383 443.84692 269.6306 L 443.84692 310.52246 L 443.84692 310.52246 L 389.32446 310.52246 L 389.32446 310.52246 L 389.32446 269.6306 L 389.32446 269.6306 Q 389.32446 257.70383 396.99167 250.0366 Q 404.6589 242.36938 416.5857 242.36938 L 416.5857 242.36938 Z M 348.43262 269.6306 L 348.43262 310.52246 L 348.43262 269.6306 L 348.43262 310.52246 L 321.1714 310.52246 L 321.1714 310.52246 L 321.1714 474.08984 L 321.1714 474.08984 L 512 474.08984 L 512 474.08984 L 512 310.52246 L 512 310.52246 L 484.73877 310.52246 L 484.73877 310.52246 L 484.73877 269.6306 L 484.73877 269.6306 Q 483.88684 240.66556 465.14474 221.07155 Q 445.55075 202.32945 416.5857 201.47754 Q 387.62064 202.32945 368.0266 221.07155 Q 349.28452 240.66556 348.43262 269.6306 L 348.43262 269.6306 Z" />
</svg>