<svg xmlns="http://www.w3.org/2000/svg" viewBox="0 0 512 512">
  <path d="M 32 32 L 48 32 L 32 32 L 480 32 L 480 48 L 480 48 L 480 448 L 480 448 L 496 448 L 512 448 L 512 480 L 512 480 L 496 480 L 0 480 L 0 448 L 0 448 L 16 448 L 32 448 L 32 48 L 32 48 L 32 32 L 32 32 Z M 64 448 L 448 448 L 64 448 L 448 448 L 448 64 L 448 64 L 64 64 L 64 64 L 64 448 L 64 448 Z M 256 128 Q 221 128 192 145 L 192 145 L 192 145 Q 163 162 145 192 Q 128 222 128 256 Q 128 290 145 320 Q 163 350 192 367 Q 221 384 256 384 Q 291 384 320 367 Q 349 350 367 320 Q 384 290 384 256 Q 384 222 367 192 Q 349 162 320 145 Q 291 128 256 128 L 256 128 Z M 416 256 Q 416 299 395 336 L 395 336 L 395 336 Q 373 373 336 395 Q 298 416 256 416 Q 214 416 176 395 Q 139 373 117 336 Q 96 299 96 256 Q 96 213 117 176 Q 139 139 176 117 Q 214 96 256 96 Q 298 96 336 117 Q 373 139 395 176 Q 416 213 416 256 L 416 256 Z M 256 224 Q 270 224 279 233 L 279 233 L 279 233 Q 288 242 288 256 Q 288 270 279 279 Q 270 288 256 288 Q 242 288 233 279 Q 224 270 224 256 Q 224 242 233 233 Q 242 224 256 224 L 256 224 Z" />
</svg>