<svg xmlns="http://www.w3.org/2000/svg" viewBox="0 0 448 512">
    <path d="M 143 0 L 154 0 L 159 0 L 165 14 L 165 14 Q 165 15 166 17 Q 169 20 175 25 Q 185 38 224 40 Q 263 38 273 25 Q 279 20 282 17 Q 283 15 283 14 L 283 14 L 289 0 L 294 0 L 305 0 L 312 0 L 376 0 L 400 0 L 400 24 L 400 128 L 400 193 L 445 268 L 448 273 L 448 280 L 448 488 L 448 512 L 424 512 L 232 512 L 208 512 L 208 488 L 208 288 L 208 284 L 209 281 L 270 81 Q 251 88 224 88 Q 197 88 178 81 L 207 177 L 182 259 L 118 48 L 96 48 L 96 128 L 96 200 L 96 207 L 93 212 L 48 287 L 48 398 L 103 343 L 120 326 L 154 360 L 137 377 L 50 464 L 176 464 L 176 488 L 176 512 L 24 512 L 0 512 L 0 488 L 0 280 L 0 273 L 3 268 L 48 193 L 48 128 L 48 24 L 48 0 L 72 0 L 136 0 L 143 0 L 143 0 Z M 330 48 L 256 292 L 256 464 L 398 464 L 311 377 L 294 360 L 328 326 L 345 343 L 400 398 L 400 287 L 355 212 L 352 207 L 352 200 L 352 128 L 352 48 L 330 48 L 330 48 Z"/>
</svg>
