<svg xmlns="http://www.w3.org/2000/svg" viewBox="0 0 512 512">
  <path d="M 332.8 52 L 341.6 60 L 332.8 52 L 341.6 60 L 456.8 168.8 L 456.8 168.8 L 460.8 172.8 L 460.8 172.8 L 460.8 178.4 L 460.8 178.4 L 460.8 191.2 L 460.8 191.2 L 460.8 204 L 460.8 204 L 448 204 L 411.2 204 L 483.2 292.8 L 483.2 292.8 L 486.4 296 L 486.4 296 L 486.4 300.8 L 486.4 300.8 L 486.4 319.2 L 486.4 319.2 L 486.4 332 L 486.4 332 L 473.6 332 L 425.6 332 L 508.8 422.4 L 508.8 422.4 L 512 426.4 L 512 426.4 L 512 431.2 L 512 431.2 L 512 447.2 L 512 447.2 L 512 460 L 512 460 L 499.2 460 L 332.8 460 L 332.8 434.4 L 332.8 434.4 L 484.8 434.4 L 484.8 434.4 L 396.8 338.4 L 396.8 338.4 L 396.8 306.4 L 396.8 306.4 L 460.8 306.4 L 460.8 306.4 L 460.8 305.6 L 460.8 305.6 L 384 211.2 L 384 211.2 L 384 178.4 L 384 178.4 L 429.6 178.4 L 429.6 178.4 L 332.8 87.2 L 332.8 87.2 L 248.8 166.4 L 248.8 166.4 L 229.6 149.6 L 229.6 149.6 L 324 60 L 324 60 L 332.8 52 L 332.8 52 Z M 307.2 434.4 L 307.2 460 L 307.2 434.4 L 307.2 460 L 281.6 460 L 0 460 L 0 434.4 L 0 434.4 L 0 255.2 L 0 255.2 L 153.6 127.2 L 153.6 127.2 L 307.2 255.2 L 307.2 255.2 L 307.2 408.8 L 307.2 408.8 L 307.2 434.4 L 307.2 434.4 Z M 25.6 434.4 L 281.6 434.4 L 25.6 434.4 L 281.6 434.4 L 281.6 267.2 L 281.6 267.2 L 153.6 160.8 L 153.6 160.8 L 25.6 267.2 L 25.6 267.2 L 25.6 434.4 L 25.6 434.4 Z M 128 332 L 179.2 332 L 128 332 L 179.2 332 L 179.2 280.8 L 179.2 280.8 L 128 280.8 L 128 280.8 L 128 332 L 128 332 Z M 102.4 255.2 L 128 255.2 L 102.4 255.2 L 204.8 255.2 L 204.8 280.8 L 204.8 280.8 L 204.8 332 L 204.8 332 L 204.8 357.6 L 204.8 357.6 L 179.2 357.6 L 102.4 357.6 L 102.4 332 L 102.4 332 L 102.4 280.8 L 102.4 280.8 L 102.4 255.2 L 102.4 255.2 Z" />
</svg>