<svg xmlns="http://www.w3.org/2000/svg" viewBox="0 0 512 512">
  <path d="M 279.1111 298.66666 L 265.77777 312.8889 L 279.1111 298.66666 L 265.77777 312.8889 Q 229.33333 353.77777 170.66667 355.55554 Q 116.44444 353.77777 80 318.22223 Q 44.444443 281.77777 42.666668 227.55556 Q 44.444443 173.33333 80 136.88889 Q 116.44444 101.333336 170.66667 99.55556 Q 229.33333 101.333336 265.77777 142.22223 L 279.1111 156.44444 L 279.1111 156.44444 L 297.77777 156.44444 L 398.22223 156.44444 Q 428.44446 157.33333 448.8889 176.88889 Q 468.44446 197.33333 469.33334 227.55556 L 469.33334 298.66666 L 469.33334 298.66666 L 297.77777 298.66666 L 279.1111 298.66666 Z M 297.77777 113.77778 Q 273.77777 87.111115 241.77777 72 L 241.77777 72 L 241.77777 72 Q 208.88889 56.88889 170.66667 56.88889 Q 97.77778 58.666668 49.77778 106.666664 Q 1.7777778 154.66667 0 227.55556 Q 0.8888889 275.55554 23.11111 313.77777 Q 46.22222 352.8889 85.333336 375.1111 L 85.333336 433.77777 L 85.333336 433.77777 L 85.333336 455.1111 L 85.333336 455.1111 L 128 455.1111 L 128 455.1111 L 128 433.77777 L 128 433.77777 L 128 392.8889 L 128 392.8889 Q 148.44444 398.22223 170.66667 398.22223 Q 177.77777 398.22223 184.88889 397.33334 L 184.88889 433.77777 L 184.88889 433.77777 L 184.88889 455.1111 L 184.88889 455.1111 L 227.55556 455.1111 L 227.55556 455.1111 L 227.55556 433.77777 L 227.55556 433.77777 L 227.55556 388.44446 L 227.55556 388.44446 Q 269.33334 373.33334 297.77777 341.33334 L 412.44446 341.33334 L 412.44446 341.33334 L 512 455.1111 L 512 455.1111 L 512 341.33334 L 512 341.33334 L 512 298.66666 L 512 298.66666 L 512 227.55556 L 512 227.55556 Q 511.1111 179.55556 479.1111 146.66667 Q 446.22223 114.666664 398.22223 113.77778 L 297.77777 113.77778 L 297.77777 113.77778 Z M 419.55554 227.55556 Q 417.77777 208 398.22223 206.22223 Q 378.66666 208 376.8889 227.55556 Q 378.66666 247.11111 398.22223 248.88889 Q 417.77777 247.11111 419.55554 227.55556 L 419.55554 227.55556 Z" />
</svg>