<svg xmlns="http://www.w3.org/2000/svg" viewBox="0 0 512 512">
  <path d="M 448.1094 59.952137 Q 460.3624 59.952137 468.23932 67.82906 L 468.23932 67.82906 L 468.23932 67.82906 Q 476.11624 75.705986 476.11624 87.95898 Q 476.11624 100.21197 468.23932 108.08889 Q 460.3624 115.96581 448.1094 115.96581 Q 435.8564 115.96581 427.9795 108.08889 Q 420.10257 100.21197 420.10257 87.95898 Q 420.10257 75.705986 427.9795 67.82906 Q 435.8564 59.952137 448.1094 59.952137 L 448.1094 59.952137 Z M 448.1094 143.97266 Q 479.6171 143.09744 496.24615 115.96581 Q 512 87.95898 496.24615 59.952137 Q 479.6171 32.820515 448.1094 31.9453 Q 416.6017 32.820515 399.97266 59.952137 Q 384.2188 87.95898 399.97266 115.96581 Q 416.6017 143.09744 448.1094 143.97266 L 448.1094 143.97266 Z M 196.04787 452.04785 Q 124.28034 450.29742 77.01881 403.0359 L 77.01881 403.0359 L 77.01881 403.0359 Q 29.757265 355.77435 28.006838 284.00684 Q 28.006838 273.50427 29.757265 263.0017 L 91.89744 263.0017 L 91.89744 263.0017 L 133.03249 304.13675 L 133.03249 304.13675 L 133.03249 347.02222 L 133.03249 347.02222 L 133.03249 355.77435 L 133.03249 355.77435 L 140.90941 359.2752 L 140.90941 359.2752 L 161.03932 369.77777 L 161.03932 369.77777 L 161.03932 417.0393 L 161.03932 417.0393 L 161.03932 431.04272 L 161.03932 431.04272 L 175.04274 431.04272 L 224.92992 431.04272 L 229.30598 424.04102 L 229.30598 424.04102 L 285.31967 333.0188 L 285.31967 333.0188 L 287.0701 330.39316 L 287.0701 330.39316 L 287.0701 326.0171 L 287.0701 326.0171 L 287.0701 263.0017 L 287.0701 263.0017 L 287.0701 248.99829 L 287.0701 248.99829 L 273.06668 248.99829 L 183.79488 248.99829 L 177.66838 235.87009 L 177.66838 235.87009 L 228.43077 158.85129 L 228.43077 158.85129 L 231.05641 154.47522 L 231.05641 154.47522 L 231.05641 150.09915 L 231.05641 150.09915 L 229.30598 119.46667 L 229.30598 119.46667 Q 287.9453 131.71967 325.5795 176.35556 Q 363.21368 221.86667 364.0889 284.00684 Q 362.33847 355.77435 315.07693 403.0359 Q 267.8154 450.29742 196.04787 452.04785 L 196.04787 452.04785 Z M 35.00855 234.99487 Q 51.637608 182.48206 95.39829 149.22394 L 95.39829 149.22394 L 95.39829 149.22394 Q 138.28377 116.84103 196.04787 115.96581 Q 198.67351 115.96581 200.42393 115.96581 L 203.04958 147.47351 L 203.04958 147.47351 L 149.66154 227.11795 L 149.66154 227.11795 L 145.28548 234.11966 L 145.28548 234.11966 L 148.78633 241.12137 L 148.78633 241.12137 L 162.78975 269.1282 L 162.78975 269.1282 L 166.2906 277.00513 L 166.2906 277.00513 L 175.04274 277.00513 L 259.06326 277.00513 L 259.06326 322.51624 L 259.06326 322.51624 L 209.17607 403.0359 L 209.17607 403.0359 L 189.04616 403.0359 L 189.04616 403.0359 L 189.04616 361.02563 L 189.04616 361.02563 L 189.04616 352.2735 L 189.04616 352.2735 L 181.16924 348.77264 L 181.16924 348.77264 L 161.03932 338.27008 L 161.03932 338.27008 L 161.03932 298.01025 L 161.03932 298.01025 L 161.03932 291.88376 L 161.03932 291.88376 L 156.66325 288.3829 L 156.66325 288.3829 L 107.65128 239.37094 L 107.65128 239.37094 L 104.15043 234.99487 L 104.15043 234.99487 L 98.02393 234.99487 L 35.00855 234.99487 Z M 198.67351 87.95898 Q 197.7983 87.95898 197.7983 87.95898 L 197.7983 87.95898 L 197.7983 87.95898 Q 196.92308 87.95898 196.04787 87.95898 Q 140.90941 88.83419 97.14872 115.0906 Q 52.51282 140.4718 27.131624 185.1077 Q 0.8752137 228.86838 0 284.00684 Q 0.8752137 339.1453 27.131624 382.90598 Q 52.51282 427.54187 97.14872 452.92307 Q 140.90941 479.17947 196.04787 480.0547 Q 251.18633 479.17947 294.94702 452.92307 Q 339.58292 427.54187 364.9641 382.90598 Q 391.22052 339.1453 392.09573 284.00684 Q 390.3453 208.73846 344.8342 156.22565 Q 298.44788 102.83761 226.68034 90.58462 L 226.68034 90.58462 L 226.68034 90.58462 Q 213.55214 87.95898 198.67351 87.95898 L 198.67351 87.95898 L 198.67351 87.95898 Z" />
</svg>