<svg xmlns="http://www.w3.org/2000/svg" viewBox="0 0 512 512">
  <path d="M 467.2 96 Q 467.2 102.4 465.6 108.8 Q 465.6 108.8 466.4 108.8 Q 466.4 108.8 467.2 108.8 Q 486.4 109.6 499.2 121.6 Q 511.2 134.4 512 153.6 Q 511.2 172.8 499.2 185.6 Q 486.4 197.6 467.2 198.4 Q 441.6 197.6 428.8 176.8 L 390.4 204 L 390.4 204 Q 372.8 216.8 361.6 236 Q 350.4 255.2 340.8 276 Q 340.8 276 340 276 L 340 276 L 340 276 Q 340 276.8 340 277.6 Q 330.4 299.2 317.6 318.4 Q 310.4 329.6 299.2 338.4 Q 269.6 361.6 233.6 357.6 Q 198.4 354.4 173.6 325.6 Q 172 323.2 170.4 321.6 Q 160 306.4 156 289.6 Q 155.2 285.6 154.4 281.6 L 128.8 281.6 L 128.8 281.6 Q 132 313.6 153.6 341.6 Q 185.6 378.4 231.2 383.2 Q 276.8 388 316 358.4 Q 329.6 347.2 339.2 332 Q 353.6 309.6 363.2 288 L 363.2 287.2 L 363.2 287.2 Q 381.6 243.2 405.6 224.8 L 407.2 224 L 407.2 224 Q 431.2 252 445.6 286.4 Q 460.8 320.8 460.8 358.4 L 460.8 460.8 L 460.8 460.8 L 230.4 460.8 L 0 460.8 L 0 358.4 L 0 358.4 Q 1.6 293.6 40 241.6 Q 77.6 189.6 131.2 159.2 Q 184 128.8 230.4 128 Q 280.8 128.8 336.8 163.2 L 389.6 126.4 L 389.6 126.4 Q 378.4 114.4 377.6 96 Q 378.4 76.8 390.4 64 Q 403.2 52 422.4 51.2 Q 441.6 52 454.4 64 Q 466.4 76.8 467.2 96 L 467.2 96 Z" />
</svg>