<svg xmlns="http://www.w3.org/2000/svg" viewBox="0 0 512 512">
  <path d="M 0 56.888888888888886 L 512 56.888888888888886 L 0 56.888888888888886 L 512 56.888888888888886 L 512 455.1111111111111 L 512 455.1111111111111 L 0 455.1111111111111 L 0 455.1111111111111 L 0 56.888888888888886 L 0 56.888888888888886 Z M 113.77777777777777 284.44444444444446 Q 126.22222222222223 284.44444444444446 134.22222222222223 276.44444444444446 L 134.22222222222223 276.44444444444446 L 134.22222222222223 276.44444444444446 Q 142.22222222222223 268.44444444444446 142.22222222222223 256 Q 142.22222222222223 243.55555555555554 134.22222222222223 235.55555555555554 Q 126.22222222222223 227.55555555555554 113.77777777777777 227.55555555555554 Q 101.33333333333333 227.55555555555554 93.33333333333333 235.55555555555554 Q 85.33333333333333 243.55555555555554 85.33333333333333 256 Q 85.33333333333333 268.44444444444446 93.33333333333333 276.44444444444446 Q 101.33333333333333 284.44444444444446 113.77777777777777 284.44444444444446 L 113.77777777777777 284.44444444444446 Z M 142.22222222222223 170.66666666666666 Q 142.22222222222223 158.22222222222223 134.22222222222223 150.22222222222223 L 134.22222222222223 150.22222222222223 L 134.22222222222223 150.22222222222223 Q 126.22222222222223 142.22222222222223 113.77777777777777 142.22222222222223 Q 101.33333333333333 142.22222222222223 93.33333333333333 150.22222222222223 Q 85.33333333333333 158.22222222222223 85.33333333333333 170.66666666666666 Q 85.33333333333333 183.11111111111111 93.33333333333333 191.11111111111111 Q 101.33333333333333 199.11111111111111 113.77777777777777 199.11111111111111 Q 126.22222222222223 199.11111111111111 134.22222222222223 191.11111111111111 Q 142.22222222222223 183.11111111111111 142.22222222222223 170.66666666666666 L 142.22222222222223 170.66666666666666 Z M 113.77777777777777 369.77777777777777 Q 126.22222222222223 369.77777777777777 134.22222222222223 361.77777777777777 L 134.22222222222223 361.77777777777777 L 134.22222222222223 361.77777777777777 Q 142.22222222222223 353.77777777777777 142.22222222222223 341.3333333333333 Q 142.22222222222223 328.8888888888889 134.22222222222223 320.8888888888889 Q 126.22222222222223 312.8888888888889 113.77777777777777 312.8888888888889 Q 101.33333333333333 312.8888888888889 93.33333333333333 320.8888888888889 Q 85.33333333333333 328.8888888888889 85.33333333333333 341.3333333333333 Q 85.33333333333333 353.77777777777777 93.33333333333333 361.77777777777777 Q 101.33333333333333 369.77777777777777 113.77777777777777 369.77777777777777 L 113.77777777777777 369.77777777777777 Z M 199.11111111111111 149.33333333333334 L 177.77777777777777 149.33333333333334 L 199.11111111111111 149.33333333333334 L 177.77777777777777 149.33333333333334 L 177.77777777777777 192 L 177.77777777777777 192 L 199.11111111111111 192 L 419.55555555555554 192 L 419.55555555555554 149.33333333333334 L 419.55555555555554 149.33333333333334 L 398.22222222222223 149.33333333333334 L 199.11111111111111 149.33333333333334 Z M 199.11111111111111 234.66666666666666 L 177.77777777777777 234.66666666666666 L 199.11111111111111 234.66666666666666 L 177.77777777777777 234.66666666666666 L 177.77777777777777 277.3333333333333 L 177.77777777777777 277.3333333333333 L 199.11111111111111 277.3333333333333 L 419.55555555555554 277.3333333333333 L 419.55555555555554 234.66666666666666 L 419.55555555555554 234.66666666666666 L 398.22222222222223 234.66666666666666 L 199.11111111111111 234.66666666666666 Z M 199.11111111111111 320 L 177.77777777777777 320 L 199.11111111111111 320 L 177.77777777777777 320 L 177.77777777777777 362.6666666666667 L 177.77777777777777 362.6666666666667 L 199.11111111111111 362.6666666666667 L 419.55555555555554 362.6666666666667 L 419.55555555555554 320 L 419.55555555555554 320 L 398.22222222222223 320 L 199.11111111111111 320 Z" />
</svg>