<svg xmlns="http://www.w3.org/2000/svg" viewBox="0 0 512 512">
  <path d="M 60.50909090909091 0 L 4.654545454545454 0 L 60.50909090909091 0 L 4.654545454545454 0 L 4.654545454545454 55.85454545454545 L 4.654545454545454 55.85454545454545 L 60.50909090909091 55.85454545454545 L 60.50909090909091 55.85454545454545 L 60.50909090909091 0 L 60.50909090909091 0 Z M 172.21818181818182 0 L 116.36363636363636 0 L 172.21818181818182 0 L 116.36363636363636 0 L 116.36363636363636 55.85454545454545 L 116.36363636363636 55.85454545454545 L 172.21818181818182 55.85454545454545 L 172.21818181818182 55.85454545454545 L 172.21818181818182 0 L 172.21818181818182 0 Z M 228.07272727272726 0 L 228.07272727272726 55.85454545454545 L 228.07272727272726 0 L 228.07272727272726 55.85454545454545 L 283.92727272727274 55.85454545454545 L 283.92727272727274 55.85454545454545 L 283.92727272727274 0 L 283.92727272727274 0 L 228.07272727272726 0 L 228.07272727272726 0 Z M 395.6363636363636 0 L 339.7818181818182 0 L 395.6363636363636 0 L 339.7818181818182 0 L 339.7818181818182 55.85454545454545 L 339.7818181818182 55.85454545454545 L 395.6363636363636 55.85454545454545 L 395.6363636363636 55.85454545454545 L 395.6363636363636 0 L 395.6363636363636 0 Z M 451.4909090909091 0 L 451.4909090909091 55.85454545454545 L 451.4909090909091 0 L 451.4909090909091 55.85454545454545 L 507.3454545454546 55.85454545454545 L 507.3454545454546 55.85454545454545 L 507.3454545454546 0 L 507.3454545454546 0 L 451.4909090909091 0 L 451.4909090909091 0 Z M 311.8545454545455 269.96363636363634 L 311.8545454545455 307.2 L 311.8545454545455 269.96363636363634 L 311.8545454545455 307.2 L 349.09090909090907 307.2 L 404.94545454545454 307.2 L 404.94545454545454 328.1454545454545 L 404.94545454545454 328.1454545454545 L 256 461.96363636363634 L 256 461.96363636363634 L 107.05454545454545 328.1454545454545 L 107.05454545454545 328.1454545454545 L 107.05454545454545 307.2 L 107.05454545454545 307.2 L 162.9090909090909 307.2 L 200.14545454545456 307.2 L 200.14545454545456 269.96363636363634 L 200.14545454545456 269.96363636363634 L 200.14545454545456 139.63636363636363 L 200.14545454545456 139.63636363636363 L 311.8545454545455 139.63636363636363 L 311.8545454545455 139.63636363636363 L 311.8545454545455 269.96363636363634 L 311.8545454545455 269.96363636363634 Z M 442.1818181818182 269.96363636363634 L 404.94545454545454 269.96363636363634 L 442.1818181818182 269.96363636363634 L 349.09090909090907 269.96363636363634 L 349.09090909090907 232.72727272727272 L 349.09090909090907 232.72727272727272 L 349.09090909090907 139.63636363636363 L 349.09090909090907 139.63636363636363 L 349.09090909090907 102.4 L 349.09090909090907 102.4 L 311.8545454545455 102.4 L 162.9090909090909 102.4 L 162.9090909090909 139.63636363636363 L 162.9090909090909 139.63636363636363 L 162.9090909090909 232.72727272727272 L 162.9090909090909 232.72727272727272 L 162.9090909090909 269.96363636363634 L 162.9090909090909 269.96363636363634 L 125.67272727272727 269.96363636363634 L 69.81818181818181 269.96363636363634 L 69.81818181818181 307.2 L 69.81818181818181 307.2 L 69.81818181818181 344.43636363636364 L 69.81818181818181 344.43636363636364 L 256 512 L 256 512 L 442.1818181818182 344.43636363636364 L 442.1818181818182 344.43636363636364 L 442.1818181818182 307.2 L 442.1818181818182 307.2 L 442.1818181818182 269.96363636363634 L 442.1818181818182 269.96363636363634 Z" />
</svg>