<svg xmlns="http://www.w3.org/2000/svg" viewBox="0 0 512 512">
  <path d="M 210 68 Q 214 52 226 42 L 226 42 L 226 42 Q 239 32 256 32 Q 273 32 286 42 Q 298 52 303 68 L 306 80 L 306 80 L 318 80 L 352 80 L 352 128 L 352 128 L 256 128 L 160 128 L 160 80 L 160 80 L 194 80 L 206 80 L 210 68 L 210 68 Z M 256 0 Q 231 0 212 13 L 212 13 L 212 13 Q 192 26 183 48 L 144 48 L 128 48 L 128 64 L 128 64 L 128 80 L 128 80 L 96 80 L 64 80 L 64 112 L 64 112 L 64 480 L 64 480 L 64 512 L 64 512 L 96 512 L 448 512 L 448 480 L 448 480 L 448 112 L 448 112 L 448 80 L 448 80 L 416 80 L 384 80 L 384 64 L 384 64 L 384 48 L 384 48 L 368 48 L 329 48 Q 320 26 300 13 Q 281 0 256 0 L 256 0 Z M 384 144 L 384 112 L 384 144 L 384 112 L 416 112 L 416 112 L 416 480 L 416 480 L 96 480 L 96 480 L 96 112 L 96 112 L 128 112 L 128 112 L 128 144 L 128 144 L 128 160 L 128 160 L 144 160 L 384 160 L 384 144 L 384 144 Z M 272 80 Q 271 65 256 64 Q 241 65 240 80 Q 241 95 256 96 Q 271 95 272 80 L 272 80 Z M 200 272 Q 198 250 176 248 Q 154 250 152 272 Q 154 294 176 296 Q 198 294 200 272 L 200 272 Z M 240 256 L 224 256 L 240 256 L 224 256 L 224 288 L 224 288 L 240 288 L 352 288 L 352 256 L 352 256 L 336 256 L 240 256 Z M 240 352 L 224 352 L 240 352 L 224 352 L 224 384 L 224 384 L 240 384 L 352 384 L 352 352 L 352 352 L 336 352 L 240 352 Z M 176 392 Q 198 390 200 368 Q 198 346 176 344 Q 154 346 152 368 Q 154 390 176 392 L 176 392 Z" />
</svg>