<svg xmlns="http://www.w3.org/2000/svg" viewBox="0 0 512 512">
  <path d="M 477.4054 37.559845 L 461.59073 5.930502 L 477.4054 37.559845 L 461.59073 5.930502 L 445.77606 37.559845 L 445.77606 37.559845 L 414.14673 53.374516 L 414.14673 53.374516 L 445.77606 69.189186 L 445.77606 69.189186 L 461.59073 100.818535 L 461.59073 100.818535 L 477.4054 69.189186 L 477.4054 69.189186 L 509.03476 53.374516 L 509.03476 53.374516 L 477.4054 37.559845 L 477.4054 37.559845 Z M 66.22394 132.44788 L 50.409267 100.818535 L 66.22394 132.44788 L 50.409267 100.818535 L 34.594593 132.44788 L 34.594593 132.44788 L 2.965251 148.26254 L 2.965251 148.26254 L 34.594593 164.07722 L 34.594593 164.07722 L 50.409267 195.70656 L 50.409267 195.70656 L 66.22394 164.07722 L 66.22394 164.07722 L 97.85328 148.26254 L 97.85328 148.26254 L 66.22394 132.44788 L 66.22394 132.44788 Z M 121.57529 464.556 L 97.85328 464.556 L 121.57529 464.556 L 97.85328 464.556 L 97.85328 512 L 97.85328 512 L 121.57529 512 L 414.14673 512 L 414.14673 464.556 L 414.14673 464.556 L 390.4247 464.556 L 121.57529 464.556 Z M 303.444 53.374516 Q 302.4556 26.687258 279.72202 11.861004 Q 256 0 232.278 11.861004 Q 209.5444 26.687258 208.55598 53.374516 Q 209.5444 80.061775 232.278 94.88803 Q 256 106.74903 279.72202 94.88803 Q 302.4556 80.061775 303.444 53.374516 L 303.444 53.374516 Z M 176.92664 132.44788 L 161.11197 132.44788 L 176.92664 132.44788 L 161.11197 132.44788 L 161.11197 164.07722 L 161.11197 164.07722 L 176.92664 164.07722 L 350.88803 164.07722 L 350.88803 132.44788 L 350.88803 132.44788 L 335.07336 132.44788 L 176.92664 132.44788 Z M 145.2973 195.70656 L 129.48262 195.70656 L 145.2973 195.70656 L 129.48262 195.70656 L 129.48262 227.3359 L 129.48262 227.3359 L 145.2973 227.3359 L 382.51736 227.3359 L 382.51736 195.70656 L 382.51736 195.70656 L 366.7027 195.70656 L 145.2973 195.70656 Z M 113.66795 258.96524 L 97.85328 258.96524 L 113.66795 258.96524 L 97.85328 258.96524 L 97.85328 290.5946 L 97.85328 290.5946 L 113.66795 290.5946 L 414.14673 290.5946 L 414.14673 258.96524 L 414.14673 258.96524 L 398.33203 258.96524 L 113.66795 258.96524 Z M 176.92664 322.22394 L 161.11197 322.22394 L 176.92664 322.22394 L 161.11197 322.22394 L 161.11197 353.85327 L 161.11197 353.85327 L 176.92664 353.85327 L 350.88803 353.85327 L 350.88803 322.22394 L 350.88803 322.22394 L 335.07336 322.22394 L 176.92664 322.22394 Z M 176.92664 385.48264 L 161.11197 385.48264 L 176.92664 385.48264 L 161.11197 385.48264 L 161.11197 417.11197 L 161.11197 417.11197 L 176.92664 417.11197 L 350.88803 417.11197 L 350.88803 385.48264 L 350.88803 385.48264 L 335.07336 385.48264 L 176.92664 385.48264 Z" />
</svg>