<svg xmlns="http://www.w3.org/2000/svg" viewBox="0 0 481 512">
    <path d="M 193 0 L 193 32 L 193 128 L 193 352 L 289 352 L 321 352 L 417 352 L 417 256 L 417 96 L 417 64 L 481 64 L 481 96 L 481 336 Q 479 411 429 460 Q 380 510 305 512 L 286 512 Q 193 511 126 448 L 29 356 L 0 329 L 56 271 L 85 298 L 129 341 Q 129 339 129 338 Q 129 337 129 336 L 129 32 L 129 0 L 193 0 L 193 0 Z M 225 160 L 289 160 L 289 320 L 225 320 L 225 160 L 225 160 Z M 385 192 L 385 320 L 321 320 L 321 192 L 385 192 L 385 192 Z"/>
</svg>
