<svg xmlns="http://www.w3.org/2000/svg" viewBox="0 0 512 512">
  <path d="M 284.44446 56.88889 L 263.1111 56.88889 L 284.44446 56.88889 L 263.1111 56.88889 L 256.8889 77.333336 L 256.8889 77.333336 L 176 355.55554 L 176 355.55554 L 110.22222 241.77777 L 110.22222 241.77777 L 101.333336 227.55556 L 101.333336 227.55556 L 85.333336 227.55556 L 0 227.55556 L 0 284.44446 L 0 284.44446 L 28.444445 284.44446 L 69.333336 284.44446 L 160 440.8889 L 160 440.8889 L 168.88889 455.1111 L 168.88889 455.1111 L 206.22223 455.1111 L 206.22223 455.1111 L 212.44444 434.66666 L 212.44444 434.66666 L 305.77777 113.77778 L 305.77777 113.77778 L 483.55554 113.77778 L 512 113.77778 L 512 56.88889 L 512 56.88889 L 483.55554 56.88889 L 284.44446 56.88889 Z" />
</svg>