<svg xmlns="http://www.w3.org/2000/svg" viewBox="0 0 512 512">
  <path d="M 64 256 Q 66 174 120 120 L 120 120 L 120 120 Q 174 66 256 64 L 256 0 L 256 0 Q 184 1 127 35 Q 69 69 35 127 Q 1 184 0 256 Q 1 328 35 385 Q 69 443 127 477 Q 184 511 256 512 L 256 448 L 256 448 Q 174 446 120 392 Q 66 338 64 256 L 64 256 Z M 281 121 L 169 233 L 281 121 L 169 233 L 147 256 L 147 256 L 169 279 L 169 279 L 281 391 L 281 391 L 304 413 L 304 413 L 349 368 L 349 368 L 327 345 L 327 345 L 269 288 L 269 288 L 480 288 L 512 288 L 512 224 L 512 224 L 480 224 L 269 224 L 327 167 L 327 167 L 349 144 L 349 144 L 304 99 L 304 99 L 281 121 L 281 121 Z" />
</svg>