<svg xmlns="http://www.w3.org/2000/svg" viewBox="0 0 512 512">
  <path d="M 257.6050156739812 303.7492163009404 L 386.80877742946706 54.1692789968652 L 257.6050156739812 303.7492163009404 L 386.80877742946706 54.1692789968652 L 409.27899686520374 65.40438871473354 L 409.27899686520374 65.40438871473354 L 210.25705329153604 450.6081504702194 L 210.25705329153604 450.6081504702194 L 207.04702194357367 457.8307210031348 L 207.04702194357367 457.8307210031348 L 199.0219435736677 457.8307210031348 L 0 457.8307210031348 L 0 444.99059561128524 L 0 444.99059561128524 L 0 316.58934169278996 L 0 316.58934169278996 L 0 303.7492163009404 L 0 303.7492163009404 L 12.84012539184953 303.7492163009404 L 257.6050156739812 303.7492163009404 Z M 243.96238244514106 329.4294670846395 L 102.72100313479623 329.4294670846395 L 243.96238244514106 329.4294670846395 L 102.72100313479623 329.4294670846395 L 102.72100313479623 432.15047021943576 L 102.72100313479623 432.15047021943576 L 190.99686520376176 432.15047021943576 L 190.99686520376176 432.15047021943576 L 243.96238244514106 329.4294670846395 L 243.96238244514106 329.4294670846395 Z M 25.68025078369906 329.4294670846395 L 25.68025078369906 432.15047021943576 L 25.68025078369906 329.4294670846395 L 25.68025078369906 432.15047021943576 L 77.04075235109718 432.15047021943576 L 77.04075235109718 432.15047021943576 L 77.04075235109718 329.4294670846395 L 77.04075235109718 329.4294670846395 L 25.68025078369906 329.4294670846395 L 25.68025078369906 329.4294670846395 Z M 125.19122257053291 54.1692789968652 L 241.5548589341693 278.0689655172414 L 125.19122257053291 54.1692789968652 L 241.5548589341693 278.0689655172414 L 212.66457680250784 278.0689655172414 L 212.66457680250784 278.0689655172414 L 102.72100313479623 65.40438871473354 L 102.72100313479623 65.40438871473354 L 125.19122257053291 54.1692789968652 L 125.19122257053291 54.1692789968652 Z M 301.74294670846393 450.6081504702194 L 270.44514106583074 390.42006269592474 L 301.74294670846393 450.6081504702194 L 270.44514106583074 390.42006269592474 L 284.8902821316614 362.3322884012539 L 284.8902821316614 362.3322884012539 L 321.00313479623827 432.15047021943576 L 321.00313479623827 432.15047021943576 L 409.27899686520374 432.15047021943576 L 409.27899686520374 432.15047021943576 L 409.27899686520374 329.4294670846395 L 409.27899686520374 329.4294670846395 L 301.74294670846393 329.4294670846395 L 301.74294670846393 329.4294670846395 L 315.3855799373041 303.7492163009404 L 315.3855799373041 303.7492163009404 L 499.15987460815046 303.7492163009404 L 512 303.7492163009404 L 512 316.58934169278996 L 512 316.58934169278996 L 512 444.99059561128524 L 512 444.99059561128524 L 512 457.8307210031348 L 512 457.8307210031348 L 499.15987460815046 457.8307210031348 L 305.7554858934169 457.8307210031348 L 301.74294670846393 450.6081504702194 L 301.74294670846393 450.6081504702194 Z M 434.9592476489028 329.4294670846395 L 434.9592476489028 432.15047021943576 L 434.9592476489028 329.4294670846395 L 434.9592476489028 432.15047021943576 L 486.3197492163009 432.15047021943576 L 486.3197492163009 432.15047021943576 L 486.3197492163009 329.4294670846395 L 486.3197492163009 329.4294670846395 L 434.9592476489028 329.4294670846395 L 434.9592476489028 329.4294670846395 Z" />
</svg>