<svg xmlns="http://www.w3.org/2000/svg" viewBox="0 0 512 512">
  <path d="M 475.42856 36.57143 L 36.57143 36.57143 L 475.42856 36.57143 L 36.57143 36.57143 L 36.57143 475.42856 L 36.57143 475.42856 L 310.85715 475.42856 L 310.85715 475.42856 L 310.85715 329.14285 L 310.85715 329.14285 L 310.85715 310.85715 L 310.85715 310.85715 L 329.14285 310.85715 L 475.42856 310.85715 L 475.42856 36.57143 L 475.42856 36.57143 Z M 469.7143 347.42856 L 347.42856 347.42856 L 469.7143 347.42856 L 347.42856 347.42856 L 347.42856 469.7143 L 347.42856 469.7143 L 469.7143 347.42856 L 469.7143 347.42856 Z M 512 356.57144 L 356.57144 512 L 512 356.57144 L 356.57144 512 L 36.57143 512 L 0 512 L 0 475.42856 L 0 475.42856 L 0 36.57143 L 0 36.57143 L 0 0 L 0 0 L 36.57143 0 L 512 0 L 512 36.57143 L 512 36.57143 L 512 356.57144 L 512 356.57144 Z M 146.28572 109.71429 L 146.28572 164.57143 L 146.28572 109.71429 L 146.28572 164.57143 L 91.42857 164.57143 L 91.42857 164.57143 L 91.42857 109.71429 L 91.42857 109.71429 L 146.28572 109.71429 L 146.28572 109.71429 Z M 91.42857 228.57143 L 146.28572 228.57143 L 91.42857 228.57143 L 146.28572 228.57143 L 146.28572 283.42856 L 146.28572 283.42856 L 91.42857 283.42856 L 91.42857 283.42856 L 91.42857 228.57143 L 91.42857 228.57143 Z M 146.28572 347.42856 L 146.28572 402.2857 L 146.28572 347.42856 L 146.28572 402.2857 L 91.42857 402.2857 L 91.42857 402.2857 L 91.42857 347.42856 L 91.42857 347.42856 L 146.28572 347.42856 L 146.28572 347.42856 Z" />
</svg>