<svg xmlns="http://www.w3.org/2000/svg" viewBox="0 0 512 512">
  <path d="M 389.40845070422534 140.61971830985917 Q 387.6056338028169 91.94366197183099 351.5492957746479 58.59154929577465 L 351.5492957746479 58.59154929577465 L 351.5492957746479 58.59154929577465 Q 314.59154929577466 26.140845070422536 259.6056338028169 25.239436619718308 Q 204.61971830985917 26.140845070422536 167.66197183098592 58.59154929577465 Q 131.6056338028169 91.94366197183099 129.80281690140845 140.61971830985917 Q 129.80281690140845 173.07042253521126 147.83098591549296 199.2112676056338 Q 164.95774647887325 225.35211267605635 194.70422535211267 240.67605633802816 L 187.49295774647888 284.84507042253523 L 187.49295774647888 284.84507042253523 L 331.71830985915494 284.84507042253523 L 331.71830985915494 284.84507042253523 L 324.50704225352115 240.67605633802816 L 324.50704225352115 240.67605633802816 Q 354.2535211267606 225.35211267605635 371.38028169014086 199.2112676056338 Q 389.40845070422534 173.07042253521126 389.40845070422534 140.61971830985917 L 389.40845070422534 140.61971830985917 Z M 216.33802816901408 126.19718309859155 Q 228.95774647887325 126.19718309859155 237.07042253521126 134.30985915492957 L 237.07042253521126 134.30985915492957 L 237.07042253521126 134.30985915492957 Q 245.18309859154928 142.42253521126761 245.18309859154928 155.04225352112675 Q 245.18309859154928 167.66197183098592 237.07042253521126 175.77464788732394 Q 228.95774647887325 183.88732394366198 216.33802816901408 183.88732394366198 Q 203.71830985915494 183.88732394366198 195.6056338028169 175.77464788732394 Q 187.49295774647888 167.66197183098592 187.49295774647888 155.04225352112675 Q 187.49295774647888 142.42253521126761 195.6056338028169 134.30985915492957 Q 203.71830985915494 126.19718309859155 216.33802816901408 126.19718309859155 L 216.33802816901408 126.19718309859155 Z M 274.0281690140845 155.04225352112675 Q 274.0281690140845 142.42253521126761 282.14084507042253 134.30985915492957 L 282.14084507042253 134.30985915492957 L 282.14084507042253 134.30985915492957 Q 290.2535211267606 126.19718309859155 302.8732394366197 126.19718309859155 Q 315.49295774647885 126.19718309859155 323.6056338028169 134.30985915492957 Q 331.71830985915494 142.42253521126761 331.71830985915494 155.04225352112675 Q 331.71830985915494 167.66197183098592 323.6056338028169 175.77464788732394 Q 315.49295774647885 183.88732394366198 302.8732394366197 183.88732394366198 Q 290.2535211267606 183.88732394366198 282.14084507042253 175.77464788732394 Q 274.0281690140845 167.66197183098592 274.0281690140845 155.04225352112675 L 274.0281690140845 155.04225352112675 Z M 126.19718309859155 320 L 62.19718309859155 371.38028169014086 L 126.19718309859155 320 L 62.19718309859155 371.38028169014086 L 0 371.38028169014086 L 0 371.38028169014086 L 0 486.76056338028167 L 0 486.76056338028167 L 28.845070422535212 486.76056338028167 L 356.9577464788732 486.76056338028167 L 366.8732394366197 480.4507042253521 L 366.8732394366197 480.4507042253521 L 482.2535211267606 401.1267605633803 L 482.2535211267606 401.1267605633803 L 512 380.3943661971831 L 512 380.3943661971831 L 470.53521126760563 320.90140845070425 L 470.53521126760563 320.90140845070425 L 440.7887323943662 341.63380281690144 L 440.7887323943662 341.63380281690144 L 356.056338028169 400.22535211267603 L 356.056338028169 400.22535211267603 L 230.7605633802817 400.22535211267603 L 230.7605633802817 400.22535211267603 L 230.7605633802817 371.38028169014086 L 230.7605633802817 371.38028169014086 L 259.6056338028169 371.38028169014086 L 346.14084507042253 371.38028169014086 L 346.14084507042253 313.6901408450704 L 346.14084507042253 313.6901408450704 L 317.2957746478873 313.6901408450704 L 134.30985915492957 313.6901408450704 L 126.19718309859155 320 L 126.19718309859155 320 Z" />
</svg>