<svg xmlns="http://www.w3.org/2000/svg" viewBox="0 0 512 512">
  <path d="M 512 0 L 0 0 L 512 0 L 0 0 L 0 512 L 0 512 L 512 512 L 512 512 L 512 0 L 512 0 Z M 82.28571428571429 54.857142857142854 Q 107.42857142857143 57.142857142857146 109.71428571428571 82.28571428571429 Q 107.42857142857143 107.42857142857143 82.28571428571429 109.71428571428571 Q 57.142857142857146 107.42857142857143 54.857142857142854 82.28571428571429 Q 57.142857142857146 57.142857142857146 82.28571428571429 54.857142857142854 L 82.28571428571429 54.857142857142854 Z M 402.2857142857143 82.28571428571429 Q 404.57142857142856 57.142857142857146 429.7142857142857 54.857142857142854 Q 454.85714285714283 57.142857142857146 457.14285714285717 82.28571428571429 Q 454.85714285714283 107.42857142857143 429.7142857142857 109.71428571428571 Q 404.57142857142856 107.42857142857143 402.2857142857143 82.28571428571429 L 402.2857142857143 82.28571428571429 Z M 82.28571428571429 402.2857142857143 Q 107.42857142857143 404.57142857142856 109.71428571428571 429.7142857142857 Q 107.42857142857143 454.85714285714283 82.28571428571429 457.14285714285717 Q 57.142857142857146 454.85714285714283 54.857142857142854 429.7142857142857 Q 57.142857142857146 404.57142857142856 82.28571428571429 402.2857142857143 L 82.28571428571429 402.2857142857143 Z M 402.2857142857143 429.7142857142857 Q 404.57142857142856 404.57142857142856 429.7142857142857 402.2857142857143 Q 454.85714285714283 404.57142857142856 457.14285714285717 429.7142857142857 Q 454.85714285714283 454.85714285714283 429.7142857142857 457.14285714285717 Q 404.57142857142856 454.85714285714283 402.2857142857143 429.7142857142857 L 402.2857142857143 429.7142857142857 Z M 155.42857142857142 192 Q 156.57142857142858 164.57142857142858 173.71428571428572 146.28571428571428 L 173.71428571428572 146.28571428571428 L 173.71428571428572 146.28571428571428 Q 192 129.14285714285714 219.42857142857142 128 L 284.57142857142856 128 L 284.57142857142856 128 Q 315.42857142857144 129.14285714285714 336 149.71428571428572 Q 355.42857142857144 169.14285714285714 356.57142857142856 200 Q 355.42857142857144 241.14285714285714 320 262.85714285714283 L 283.42857142857144 283.42857142857144 L 283.42857142857144 283.42857142857144 L 283.42857142857144 292.57142857142856 L 283.42857142857144 292.57142857142856 L 283.42857142857144 320 L 283.42857142857144 320 L 228.57142857142858 320 L 228.57142857142858 320 L 228.57142857142858 292.57142857142856 L 228.57142857142858 292.57142857142856 L 228.57142857142858 268.57142857142856 L 228.57142857142858 268.57142857142856 L 228.57142857142858 252.57142857142858 L 228.57142857142858 252.57142857142858 L 242.28571428571428 244.57142857142858 L 242.28571428571428 244.57142857142858 L 292.57142857142856 214.85714285714286 L 292.57142857142856 214.85714285714286 Q 301.7142857142857 210.28571428571428 301.7142857142857 200 Q 300.57142857142856 184 284.57142857142856 182.85714285714286 L 219.42857142857142 182.85714285714286 L 219.42857142857142 182.85714285714286 Q 211.42857142857142 184 210.28571428571428 192 L 210.28571428571428 200 L 210.28571428571428 200 L 155.42857142857142 200 L 155.42857142857142 200 L 155.42857142857142 192 L 155.42857142857142 192 Z M 228.57142857142858 365.7142857142857 L 283.42857142857144 365.7142857142857 L 228.57142857142858 365.7142857142857 L 283.42857142857144 365.7142857142857 L 283.42857142857144 420.57142857142856 L 283.42857142857144 420.57142857142856 L 228.57142857142858 420.57142857142856 L 228.57142857142858 420.57142857142856 L 228.57142857142858 365.7142857142857 L 228.57142857142858 365.7142857142857 Z" />
</svg>