<svg viewBox="0 0 576 448">
  <path
    d="M 528 48 L 48 48 L 48 164 Q 25 160 0 160 L 0 48 L 0 0 L 48 0 L 528 0 L 576 0 L 576 48 L 576 400 L 576 448 L 528 448 L 288 448 Q 288 423 284 400 L 528 400 L 528 48 L 528 48 Z M 0 240 L 0 192 Q 72 193 129 227 Q 187 261 221 319 Q 255 376 256 448 L 208 448 Q 206 360 147 301 Q 88 242 0 240 L 0 240 Z M 32 384 Q 46 384 55 393 L 55 393 Q 64 402 64 416 Q 64 430 55 439 Q 46 448 32 448 Q 18 448 9 439 Q 0 430 0 416 Q 0 402 9 393 Q 18 384 32 384 L 32 384 Z M 112 448 Q 111 400 79 369 L 79 369 Q 48 337 0 336 L 0 288 Q 68 290 113 335 Q 158 380 160 448 L 112 448 L 112 448 Z"
  />
</svg>