<svg xmlns="http://www.w3.org/2000/svg" viewBox="0 0 512 512">
  <path d="M 146.28572 292.57144 L 256 292.57144 L 146.28572 292.57144 L 256 292.57144 Q 302.85715 291.42856 333.7143 260.57144 Q 364.57144 229.71428 365.7143 182.85715 Q 364.57144 136 333.7143 105.14286 Q 302.85715 74.28571 256 73.14286 L 146.28572 73.14286 L 146.28572 73.14286 L 146.28572 292.57144 L 146.28572 292.57144 Z M 73.14286 365.7143 L 73.14286 329.14285 L 73.14286 365.7143 L 73.14286 329.14285 L 73.14286 292.57144 L 73.14286 292.57144 L 73.14286 73.14286 L 73.14286 73.14286 L 73.14286 36.57143 L 73.14286 36.57143 L 73.14286 0 L 73.14286 0 L 109.71429 0 L 256 0 Q 333.7143 2.2857144 385.14285 53.714287 Q 436.57144 105.14286 438.85715 182.85715 Q 436.57144 260.57144 385.14285 312 Q 333.7143 363.42856 256 365.7143 L 146.28572 365.7143 L 146.28572 365.7143 L 146.28572 475.42856 L 146.28572 475.42856 L 146.28572 512 L 146.28572 512 L 73.14286 512 L 73.14286 512 L 73.14286 475.42856 L 73.14286 475.42856 L 73.14286 365.7143 L 73.14286 365.7143 Z" />
</svg>