<svg viewBox="0 0 576 384">
  <path
    d="M 528 160 L 448 160 L 448 224 L 448 256 L 432 256 L 432 336 L 528 336 L 528 160 L 528 160 Z M 400 336 L 400 256 L 384 256 L 384 224 L 384 160 L 320 160 L 320 224 L 320 256 L 304 256 L 304 336 L 400 336 L 400 336 Z M 272 336 L 272 256 L 256 256 L 256 224 L 256 160 L 192 160 L 192 224 L 192 256 L 176 256 L 176 336 L 272 336 L 272 336 Z M 144 336 L 144 256 L 128 256 L 128 224 L 128 160 L 48 160 L 48 336 L 144 336 L 144 336 Z M 528 112 L 528 48 L 48 48 L 48 112 L 128 112 L 192 112 L 256 112 L 320 112 L 384 112 L 448 112 L 528 112 L 528 112 Z M 576 112 L 576 136 L 576 160 L 576 336 L 576 384 L 528 384 L 48 384 L 0 384 L 0 336 L 0 160 L 0 136 L 0 112 L 0 48 L 0 0 L 48 0 L 528 0 L 576 0 L 576 48 L 576 112 L 576 112 Z"
  />
</svg>