<svg xmlns="http://www.w3.org/2000/svg" viewBox="0 0 512 512">
  <path d="M 403.831 227.15492 Q 403.831 272.22534 385.80283 311.88733 L 512 393.0141 L 512 393.0141 L 438.9859 486.76056 L 438.9859 486.76056 L 329.0141 384 L 329.0141 384 Q 274.92957 427.2676 201.9155 429.07043 Q 145.12675 428.169 100.056335 401.12677 Q 54.084507 374.9859 27.943663 329.0141 Q 0.90140843 283.94366 0 227.15492 Q 0.90140843 170.3662 27.943663 125.29578 Q 54.084507 79.323944 100.056335 53.183098 Q 145.12675 26.140844 201.9155 25.239437 Q 258.70422 26.140844 303.77466 53.183098 Q 349.7465 79.323944 375.88733 125.29578 Q 402.92957 170.3662 403.831 227.15492 L 403.831 227.15492 Z M 288.4507 164.05634 Q 273.12677 160.4507 256.9014 150.53522 L 256.9014 150.53522 L 256.9014 150.53522 Q 239.77464 140.61972 228.95775 129.80281 Q 211.83098 111.77465 188.39436 111.77465 Q 165.85916 110.87324 147.83098 128 Q 131.60564 143.32394 129.80281 164.05634 Q 128.90141 181.1831 123.49296 200.11267 Q 118.985916 219.04225 110.87324 234.3662 Q 95.54929 261.40845 103.66197 289.3521 Q 110.87324 316.39438 137.01408 332.61972 Q 164.05634 347.04227 192 339.831 Q 219.94366 332.61972 235.26761 306.47888 Q 242.47887 294.76056 256 286.6479 Q 268.61972 279.4366 282.14084 276.7324 Q 295.66196 274.92957 308.28168 265.9155 Q 328.11267 251.49295 330.8169 228.05634 Q 334.42255 205.52113 320 185.69014 Q 307.38028 168.56339 288.4507 164.05634 L 288.4507 164.05634 Z M 454.30984 407.4366 Q 453.40845 393.9155 439.88733 393.0141 Q 426.3662 393.9155 425.46478 407.4366 Q 426.3662 420.95773 439.88733 421.85916 Q 453.40845 420.95773 454.30984 407.4366 L 454.30984 407.4366 Z M 201.9155 183.88733 Q 226.25352 184.78873 239.77464 205.52113 Q 250.59155 227.15492 239.77464 248.78873 Q 226.25352 269.52112 201.9155 270.42255 Q 177.57747 269.52112 164.05634 248.78873 Q 153.23944 227.15492 164.05634 205.52113 Q 177.57747 184.78873 201.9155 183.88733 L 201.9155 183.88733 Z" />
</svg>