<svg xmlns="http://www.w3.org/2000/svg" viewBox="0 0 512 512">
  <path d="M 413.53845 177.23077 L 413.53845 73.02564 L 413.53845 177.23077 L 413.53845 73.02564 L 413.53845 45.94872 L 413.53845 45.94872 L 387.28204 52.51282 L 387.28204 52.51282 L 256 85.333336 L 256 85.333336 L 256 150.97437 L 256 150.97437 L 256 189.53847 L 256 189.53847 L 282.2564 210.05128 L 282.2564 210.05128 L 413.53845 177.23077 L 413.53845 177.23077 Z M 256 323.28204 L 256 354.46155 L 256 323.28204 L 256 354.46155 Q 229.74359 335.58975 190.35898 334.76923 Q 150.97437 335.58975 125.53846 353.64102 Q 99.28205 372.51282 98.46154 400.41025 Q 99.28205 428.30768 125.53846 447.17947 Q 150.97437 465.23077 190.35898 466.05127 Q 229.74359 465.23077 255.17949 447.17947 Q 281.43588 428.30768 282.2564 400.41025 L 282.2564 343.79486 L 282.2564 343.79486 L 256 323.28204 L 256 323.28204 Z M 282.2564 150.97437 L 282.2564 105.84615 L 282.2564 150.97437 L 282.2564 105.84615 L 387.28204 79.589745 L 387.28204 79.589745 L 387.28204 156.71794 L 387.28204 156.71794 L 282.2564 182.97437 L 282.2564 182.97437 L 282.2564 150.97437 L 282.2564 150.97437 Z M 240.41026 375.79486 Q 256.82053 388.92307 256 400.41025 Q 256.82053 411.89743 240.41026 425.84616 Q 221.53847 438.97437 190.35898 439.79486 Q 159.17949 438.97437 140.3077 425.84616 Q 123.89744 411.89743 124.71795 400.41025 Q 123.89744 388.92307 140.3077 375.79486 Q 159.17949 361.84616 190.35898 361.02563 Q 221.53847 361.84616 240.41026 375.79486 L 240.41026 375.79486 Z M 26.25641 60.71795 L 16.410257 52.51282 L 26.25641 60.71795 L 16.410257 52.51282 L 0 73.02564 L 0 73.02564 L 10.666667 81.23077 L 10.666667 81.23077 L 485.7436 451.28204 L 485.7436 451.28204 L 495.58975 459.48718 L 495.58975 459.48718 L 512 438.97437 L 512 438.97437 L 502.15384 430.76923 L 502.15384 430.76923 L 26.25641 60.71795 L 26.25641 60.71795 Z" />
</svg>