<svg xmlns="http://www.w3.org/2000/svg" viewBox="0 0 512 512">
  <path d="M 480 32 L 480 128 L 480 32 L 480 128 L 448 128 L 384 128 L 384 32 L 384 32 L 480 32 L 480 32 Z M 384 160 L 416 160 L 384 160 L 416 160 L 416 320 L 416 320 Q 415 354 393 377 Q 370 399 336 400 L 265 400 L 265 400 L 323 348 L 323 348 L 301 324 L 301 324 L 213 404 L 213 404 L 200 416 L 200 416 L 213 428 L 213 428 L 301 508 L 301 508 L 323 484 L 323 484 L 265 432 L 265 432 L 336 432 L 336 432 Q 384 431 415 399 Q 447 368 448 320 L 448 160 L 448 160 L 480 160 L 512 160 L 512 128 L 512 128 L 512 32 L 512 32 L 512 0 L 512 0 L 480 0 L 352 0 L 352 32 L 352 32 L 352 128 L 352 128 L 352 160 L 352 160 L 384 160 L 384 160 Z M 211 4 L 189 28 L 211 4 L 189 28 L 247 80 L 247 80 L 176 80 L 176 80 Q 128 81 97 113 Q 65 144 64 192 L 64 352 L 64 352 L 32 352 L 0 352 L 0 384 L 0 384 L 0 480 L 0 480 L 0 512 L 0 512 L 32 512 L 160 512 L 160 480 L 160 480 L 160 384 L 160 384 L 160 352 L 160 352 L 128 352 L 96 352 L 96 192 L 96 192 Q 97 158 119 135 Q 142 113 176 112 L 247 112 L 247 112 L 189 164 L 189 164 L 211 188 L 211 188 L 299 108 L 299 108 L 312 96 L 312 96 L 299 84 L 299 84 L 211 4 L 211 4 Z M 64 384 L 64 384 L 64 384 L 64 384 L 96 384 L 96 384 L 96 384 L 96 384 L 128 384 L 128 384 L 128 480 L 128 480 L 32 480 L 32 480 L 32 384 L 32 384 L 64 384 L 64 384 Z" />
</svg>