<svg xmlns="http://www.w3.org/2000/svg" viewBox="0 0 512 512">
  <path d="M 27.428572 0 L 0 0 L 27.428572 0 L 0 0 L 0 54.857143 L 0 54.857143 L 27.428572 54.857143 L 512 54.857143 L 512 0 L 512 0 L 484.57144 0 L 27.428572 0 Z M 256 91.42857 Q 170.28572 93.71429 114.28571 150.85715 L 114.28571 150.85715 L 114.28571 150.85715 Q 57.142857 206.85715 54.857143 292.57144 L 54.857143 310.85715 L 54.857143 310.85715 Q 57.142857 396.57144 114.28571 452.57144 Q 170.28572 509.7143 256 512 Q 341.7143 509.7143 397.7143 452.57144 Q 454.85715 396.57144 457.14285 310.85715 L 457.14285 292.57144 L 457.14285 292.57144 Q 454.85715 206.85715 397.7143 150.85715 Q 341.7143 93.71429 256 91.42857 L 256 91.42857 Z M 109.71429 292.57144 Q 110.85714 230.85715 152 188.57143 L 152 188.57143 L 152 188.57143 Q 194.28572 147.42857 256 146.28572 Q 317.7143 147.42857 360 188.57143 Q 401.14285 230.85715 402.2857 292.57144 L 402.2857 310.85715 L 402.2857 310.85715 Q 401.14285 372.57144 360 414.85715 Q 317.7143 456 256 457.14285 Q 194.28572 456 152 414.85715 Q 110.85714 372.57144 109.71429 310.85715 L 109.71429 292.57144 L 109.71429 292.57144 Z" />
</svg>