<svg xmlns="http://www.w3.org/2000/svg" viewBox="0 0 448 448">
    <path d="M 32 0 L 128 0 L 128 64 L 64 64 L 64 128 L 0 128 L 0 32 L 0 0 L 32 0 L 32 0 Z M 0 160 L 64 160 L 64 288 L 0 288 L 0 160 L 0 160 Z M 384 160 L 448 160 L 448 288 L 384 288 L 384 160 L 384 160 Z M 448 128 L 384 128 L 384 64 L 320 64 L 320 0 L 416 0 L 448 0 L 448 32 L 448 128 L 448 128 Z M 448 320 L 448 416 L 448 448 L 416 448 L 320 448 L 320 384 L 384 384 L 384 320 L 448 320 L 448 320 Z M 64 320 L 64 384 L 128 384 L 128 448 L 32 448 L 0 448 L 0 416 L 0 320 L 64 320 L 64 320 Z M 288 448 L 160 448 L 160 384 L 288 384 L 288 448 L 288 448 Z M 160 64 L 160 0 L 288 0 L 288 64 L 160 64 L 160 64 Z"/>
</svg>
