<svg xmlns="http://www.w3.org/2000/svg" viewBox="0 0 576 512">
    <path d="M 336 208 L 544 0 L 576 32 L 368 240 L 402 274 L 403 275 L 416 288 L 416 320 L 341 342 L 341 342 Q 346 377 335 410 Q 324 443 299 469 Q 256 511 195 512 L 48 512 L 36 512 L 32 512 L 0 512 L 0 480 L 16 464 L 48 432 L 64 416 L 96 384 L 64 384 L 64 381 Q 64 368 66 355 Q 68 345 71 336 Q 82 303 107 277 Q 132 252 165 241 Q 198 230 234 235 L 234 236 L 256 160 L 288 160 L 301 173 L 302 174 L 336 208 L 336 208 Z M 287 227 L 279 255 L 321 297 L 349 289 L 287 227 L 287 227 Z M 292 340 L 236 284 L 226 283 Q 177 276 141 311 Q 130 322 123 336 L 212 336 L 130 418 L 84 464 L 195 464 Q 236 463 265 435 Q 300 399 293 350 L 292 340 L 292 340 Z"/>
</svg>
