<svg xmlns="http://www.w3.org/2000/svg" viewBox="0 0 512 512">
  <path d="M 499.4755381604697 34.0665362035225 L 443.3659491193738 90.17612524461839 L 499.4755381604697 34.0665362035225 L 443.3659491193738 90.17612524461839 L 432.3444227005871 102.19960861056751 L 432.3444227005871 102.19960861056751 L 409.2994129158513 79.1545988258317 L 409.2994129158513 79.1545988258317 L 421.3228962818004 68.133072407045 L 421.3228962818004 68.133072407045 L 477.4324853228963 12.023483365949119 L 477.4324853228963 12.023483365949119 L 488.45401174168296 0 L 488.45401174168296 0 L 511.4990215264188 23.04500978473581 L 511.4990215264188 23.04500978473581 L 499.4755381604697 34.0665362035225 L 499.4755381604697 34.0665362035225 Z M 186.86497064579257 346.6771037181996 L 34.567514677103716 498.9745596868884 L 186.86497064579257 346.6771037181996 L 34.567514677103716 498.9745596868884 L 23.545988258317024 510.99804305283755 L 23.545988258317024 510.99804305283755 L 0.5009784735812133 487.95303326810176 L 0.5009784735812133 487.95303326810176 L 12.524461839530332 476.93150684931504 L 12.524461839530332 476.93150684931504 L 164.82191780821918 324.6340508806262 L 164.82191780821918 324.6340508806262 L 175.84344422700588 312.6105675146771 L 175.84344422700588 312.6105675146771 L 198.8884540117417 335.6555772994129 L 198.8884540117417 335.6555772994129 L 186.86497064579257 346.6771037181996 L 186.86497064579257 346.6771037181996 Z M 239.96868884540118 95.18590998043052 Q 178.84931506849315 97.18982387475538 137.76908023483367 137.26810176125244 L 137.76908023483367 137.26810176125244 L 137.76908023483367 137.26810176125244 Q 97.69080234833659 178.34833659491193 95.68688845401174 239.46771037181995 L 95.68688845401174 255.49902152641877 L 95.68688845401174 255.49902152641877 L 63.62426614481409 255.49902152641877 L 63.62426614481409 255.49902152641877 L 63.62426614481409 239.46771037181995 L 63.62426614481409 239.46771037181995 Q 65.62818003913894 164.32093933463796 115.72602739726027 115.22504892367905 Q 164.82191780821918 65.12720156555773 239.96868884540118 63.12328767123287 Q 315.1154598825832 65.12720156555773 364.21135029354207 115.22504892367905 Q 414.3091976516634 164.32093933463796 416.31311154598825 239.46771037181995 Q 416.31311154598825 280.54794520547944 399.279843444227 315.6164383561644 Q 382.24657534246575 350.6849315068493 352.18786692759295 375.73385518591 L 352.18786692759295 383.7495107632094 L 352.18786692759295 383.7495107632094 Q 351.18590998043055 437.85518590998043 315.1154598825832 474.9275929549902 Q 278.0430528375734 510.99804305283755 223.93737769080235 512 L 207.90606653620353 512 L 191.8747553816047 512 L 191.8747553816047 479.93737769080235 L 191.8747553816047 479.93737769080235 L 207.90606653620353 479.93737769080235 L 223.93737769080235 479.93737769080235 Q 265.01761252446187 478.9354207436399 292.07045009784736 451.8825831702544 Q 319.1232876712329 424.82974559686886 320.1252446183953 383.7495107632094 L 320.1252446183953 367.7181996086106 L 320.1252446183953 367.7181996086106 L 320.1252446183953 359.70254403131116 L 320.1252446183953 359.70254403131116 L 326.13698630136986 354.692759295499 L 326.13698630136986 354.692759295499 Q 353.1898238747554 334.65362035225047 368.2191780821918 304.5949119373777 Q 384.2504892367906 275.53816046966733 384.2504892367906 239.46771037181995 Q 382.24657534246575 178.34833659491193 342.1682974559687 137.26810176125244 Q 301.0880626223092 97.18982387475538 239.96868884540118 95.18590998043052 L 239.96868884540118 95.18590998043052 Z M 239.96868884540118 159.31115459882582 Q 205.90215264187867 160.31311154598825 182.85714285714286 182.35616438356163 L 182.85714285714286 182.35616438356163 L 182.85714285714286 182.35616438356163 Q 160.81409001956948 205.40117416829744 159.81213307240705 239.46771037181995 L 159.81213307240705 255.49902152641877 L 159.81213307240705 255.49902152641877 L 127.74951076320939 255.49902152641877 L 127.74951076320939 255.49902152641877 L 127.74951076320939 239.46771037181995 L 127.74951076320939 239.46771037181995 Q 128.75146771037183 191.37377690802347 160.81409001956948 160.31311154598825 Q 191.8747553816047 128.2504892367906 239.96868884540118 127.24853228962817 Q 288.06262230919765 128.2504892367906 319.1232876712329 160.31311154598825 Q 351.18590998043055 191.37377690802347 352.18786692759295 239.46771037181995 L 352.18786692759295 255.49902152641877 L 352.18786692759295 255.49902152641877 L 320.1252446183953 255.49902152641877 L 320.1252446183953 255.49902152641877 L 320.1252446183953 239.46771037181995 L 320.1252446183953 239.46771037181995 Q 319.1232876712329 205.40117416829744 297.0802348336595 182.35616438356163 Q 274.0352250489237 160.31311154598825 239.96868884540118 159.31115459882582 L 239.96868884540118 159.31115459882582 Z" />
</svg>