<svg xmlns="http://www.w3.org/2000/svg" viewBox="0 0 576 511">
    <path d="M 216 0 L 227 12 L 254 39 Q 270 31 288 31 Q 306 31 322 39 L 349 12 L 360 0 L 383 23 L 371 34 L 348 58 Q 367 80 368 111 Q 368 116 368 120 Q 403 96 448 95 Q 499 96 536 126 Q 574 156 576 207 Q 575 254 542 283 Q 509 313 463 318 Q 464 311 464 303 Q 464 286 461 270 Q 492 266 510 248 Q 528 230 528 207 Q 527 182 506 163 Q 484 144 448 143 Q 420 143 400 156 Q 380 168 372 186 Q 400 206 416 236 Q 432 267 432 303 Q 429 352 395 400 Q 360 447 325 478 Q 291 510 288 511 Q 285 510 251 478 Q 216 447 181 400 Q 147 352 144 303 Q 144 267 160 236 Q 176 206 204 186 Q 196 168 176 156 Q 156 143 128 143 Q 92 144 70 163 Q 49 182 48 207 Q 48 230 66 248 Q 84 266 115 270 Q 112 286 112 303 Q 112 311 113 318 Q 67 313 34 283 Q 1 254 0 207 Q 2 156 40 126 Q 77 96 128 95 Q 173 96 209 120 Q 208 116 208 111 Q 209 80 228 58 L 205 34 L 193 23 L 216 0 L 216 0 Z M 384 303 L 192 303 Q 192 316 200 335 L 376 335 Q 384 316 384 303 L 384 303 Z M 252 411 Q 271 432 288 448 Q 305 432 324 411 Q 337 397 347 383 L 229 383 Q 239 397 252 411 L 252 411 Z M 288 207 Q 261 207 239 220 L 239 220 Q 218 233 205 255 L 371 255 Q 358 233 337 220 Q 315 207 288 207 L 288 207 Z"/>
</svg>
