<svg xmlns="http://www.w3.org/2000/svg" viewBox="0 0 512 522">
    <path d="M 409 6 L 403 0 L 397 6 L 234 170 Q 218 186 206 205 L 133 321 Q 122 338 107 353 L 70 390 L 121 441 L 159 404 Q 173 389 190 378 L 306 305 Q 325 293 341 277 L 505 114 L 511 108 L 505 102 L 409 6 L 409 6 Z M 512 431 Q 511 386 472 362 Q 432 340 392 362 Q 353 386 352 431 Q 353 476 392 500 Q 432 522 472 500 Q 511 476 512 431 L 512 431 Z M 34 383 L 0 417 L 17 434 L 77 494 L 94 511 L 128 477 L 111 460 L 51 400 L 34 383 L 34 383 Z"/>
</svg>
