<svg xmlns="http://www.w3.org/2000/svg" viewBox="0 0 576 448">
    <path d="M 304 0 L 288 0 L 288 32 L 304 32 L 384 32 Q 452 34 497 79 Q 542 124 544 192 L 430 192 L 382 104 L 370 82 L 355 102 L 318 152 L 285 103 L 273 84 L 259 102 L 192 192 L 64 192 L 32 192 L 32 224 L 32 307 L 87 332 L 0 448 L 40 448 L 117 346 L 170 370 L 112 448 L 152 448 L 199 384 L 200 384 L 281 384 L 244 448 L 281 448 L 318 384 L 454 384 L 486 448 L 522 448 L 490 384 Q 527 379 551 353 Q 575 326 576 288 L 576 224 L 576 192 L 576 192 Q 574 110 520 56 Q 466 2 384 0 L 304 0 L 304 0 Z M 366 142 L 393 192 L 345 192 L 337 181 L 366 142 L 366 142 Z M 298 180 L 289 192 L 232 192 L 271 140 L 298 180 L 298 180 Z M 64 224 L 168 224 L 107 306 L 64 287 L 64 224 L 64 224 Z M 208 224 L 544 224 L 544 288 Q 543 315 525 333 Q 507 351 480 352 L 207 352 L 136 320 L 208 224 L 208 224 Z M 472 312 Q 494 310 496 288 Q 494 266 472 264 Q 450 266 448 288 Q 450 310 472 312 L 472 312 Z"/>
</svg>
