<svg xmlns="http://www.w3.org/2000/svg" viewBox="0 0 448 448">
    <path d="M 400 48 L 400 400 L 48 400 L 48 48 L 400 48 L 400 48 Z M 48 0 L 0 0 L 0 48 L 0 400 L 0 448 L 48 448 L 400 448 L 448 448 L 448 400 L 448 48 L 448 0 L 400 0 L 48 0 L 48 0 Z M 112 88 Q 110 66 88 64 Q 66 66 64 88 Q 66 110 88 112 Q 110 110 112 88 L 112 88 Z M 360 112 Q 382 110 384 88 Q 382 66 360 64 Q 338 66 336 88 Q 338 110 360 112 L 360 112 Z M 112 360 Q 110 338 88 336 Q 66 338 64 360 Q 66 382 88 384 Q 110 382 112 360 L 112 360 Z M 360 384 Q 382 382 384 360 Q 382 338 360 336 Q 338 338 336 360 Q 338 382 360 384 L 360 384 Z"/>
</svg>
