<svg xmlns="http://www.w3.org/2000/svg" viewBox="0 0 512 512">
  <path d="M 102.4 76.8 L 93.6 76.8 L 102.4 76.8 L 93.6 76.8 L 90.4 84.8 L 90.4 84.8 L 42.4 204.8 L 42.4 204.8 L 25.6 204.8 L 0 204.8 L 0 230.4 L 0 230.4 L 0 345.6 L 0 345.6 L 0 371.2 L 0 371.2 L 25.6 371.2 L 52 371.2 Q 57.6 399.2 78.4 416.8 Q 99.2 434.4 128 435.2 Q 156.8 434.4 177.6 416.8 Q 198.4 399.2 204 371.2 L 308 371.2 L 308 371.2 Q 313.6 399.2 334.4 416.8 Q 355.2 434.4 384 435.2 Q 412.8 434.4 433.6 416.8 Q 454.4 399.2 460 371.2 L 486.4 371.2 L 512 371.2 L 512 345.6 L 512 345.6 L 512 230.4 L 512 230.4 L 512 204.8 L 512 204.8 L 486.4 204.8 L 416 204.8 L 317.6 81.6 L 317.6 81.6 L 313.6 76.8 L 313.6 76.8 L 307.2 76.8 L 102.4 76.8 Z M 433.6 371.2 Q 428.8 388 416 398.4 L 416 398.4 L 416 398.4 Q 402.4 409.6 384 409.6 Q 365.6 409.6 352 398.4 Q 339.2 388 334.4 371.2 Q 332.8 364.8 332.8 358.4 Q 332.8 352 334.4 345.6 Q 339.2 328.8 352 318.4 Q 365.6 307.2 384 307.2 Q 402.4 307.2 416 318.4 Q 428.8 328.8 433.6 345.6 Q 435.2 352 435.2 358.4 Q 435.2 364.8 433.6 371.2 L 433.6 371.2 Z M 308 345.6 L 204 345.6 L 308 345.6 L 204 345.6 Q 198.4 317.6 177.6 300 Q 156.8 282.4 128 281.6 Q 99.2 282.4 78.4 300 Q 57.6 317.6 52 345.6 L 25.6 345.6 L 25.6 345.6 L 25.6 230.4 L 25.6 230.4 L 128 230.4 L 128 230.4 L 128 204.8 L 128 204.8 L 70.4 204.8 L 70.4 204.8 L 111.2 102.4 L 111.2 102.4 L 300.8 102.4 L 300.8 102.4 L 383.2 204.8 L 383.2 204.8 L 358.4 204.8 L 358.4 204.8 L 358.4 230.4 L 358.4 230.4 L 486.4 230.4 L 486.4 230.4 L 486.4 345.6 L 486.4 345.6 L 460 345.6 L 460 345.6 Q 454.4 317.6 433.6 300 Q 412.8 282.4 384 281.6 Q 355.2 282.4 334.4 300 Q 313.6 317.6 308 345.6 L 308 345.6 Z M 128 409.6 Q 109.6 409.6 96 398.4 L 96 398.4 L 96 398.4 Q 83.2 388 78.4 371.2 Q 76.8 364.8 76.8 358.4 Q 76.8 352 78.4 345.6 Q 83.2 328.8 96 318.4 Q 109.6 307.2 128 307.2 Q 146.4 307.2 160 318.4 Q 172.8 328.8 177.6 345.6 Q 179.2 352 179.2 358.4 Q 179.2 364.8 177.6 371.2 Q 172.8 388 160 398.4 Q 146.4 409.6 128 409.6 L 128 409.6 Z M 264.8 162.4 L 274.4 153.6 L 264.8 162.4 L 274.4 153.6 L 256 135.2 L 256 135.2 L 247.2 144.8 L 247.2 144.8 L 183.2 208.8 L 183.2 208.8 L 160.8 230.4 L 160.8 230.4 L 192 230.4 L 263.2 230.4 L 221.6 272.8 L 221.6 272.8 L 212 281.6 L 212 281.6 L 230.4 300 L 230.4 300 L 239.2 290.4 L 239.2 290.4 L 303.2 226.4 L 303.2 226.4 L 325.6 204.8 L 325.6 204.8 L 294.4 204.8 L 223.2 204.8 L 264.8 162.4 L 264.8 162.4 Z" />
</svg>