<svg xmlns="http://www.w3.org/2000/svg" viewBox="0 0 512 512">
  <path d="M 512 240 Q 511 298 477 345 L 477 345 L 477 345 Q 443 392 385 420 L 385 420 L 385 420 Q 328 447 256 448 Q 209 448 166 435 L 16 480 L 16 480 L 57 371 L 57 371 Q 2 316 0 240 Q 1 182 35 135 Q 69 88 127 60 Q 184 33 256 32 Q 328 33 385 60 Q 443 88 477 135 Q 511 182 512 240 L 512 240 Z M 120 208 L 96 208 L 120 208 L 96 208 L 96 256 L 96 256 L 120 256 L 288 256 L 288 208 L 288 208 L 264 208 L 120 208 Z M 344 208 L 320 208 L 344 208 L 320 208 L 320 256 L 320 256 L 344 256 L 416 256 L 416 208 L 416 208 L 392 208 L 344 208 Z M 120 288 L 96 288 L 120 288 L 96 288 L 96 336 L 96 336 L 120 336 L 192 336 L 192 288 L 192 288 L 168 288 L 120 288 Z M 248 288 L 224 288 L 248 288 L 224 288 L 224 336 L 224 336 L 248 336 L 416 336 L 416 288 L 416 288 L 392 288 L 248 288 Z" />
</svg>