<svg xmlns="http://www.w3.org/2000/svg" viewBox="0 0 512 512">
  <path d="M 176 38 L 176 101 L 176 38 L 176 101 Q 191 96 208 96 Q 225 96 240 101 L 240 32 L 240 32 L 224 32 L 224 32 Q 199 32 176 38 L 176 38 Z M 144 49 Q 94 73 63 119 L 63 119 L 63 119 Q 33 165 32 224 Q 34 308 91 363 L 96 367 L 96 367 L 96 374 L 96 374 L 96 496 L 96 496 L 96 512 L 96 512 L 64 512 L 64 512 L 64 496 L 64 496 L 64 381 L 64 381 Q 34 350 17 310 Q 0 270 0 224 Q 1 161 31 111 Q 60 60 111 31 Q 161 1 224 0 L 248 0 L 248 0 Q 328 2 381 54 Q 435 106 440 185 L 507 244 L 507 244 L 512 249 L 512 249 L 512 256 L 512 256 L 512 320 L 512 320 L 512 336 L 512 336 L 496 336 L 448 336 L 448 432 L 448 432 L 448 448 L 448 448 L 432 448 L 320 448 L 320 496 L 320 496 L 320 512 L 320 512 L 288 512 L 288 512 L 288 496 L 288 496 L 288 432 L 288 432 L 288 416 L 288 416 L 304 416 L 416 416 L 416 320 L 416 320 L 416 304 L 416 304 L 432 304 L 480 304 L 480 263 L 480 263 L 413 204 L 413 204 L 408 199 L 408 199 L 408 192 L 408 192 Q 407 131 369 87 Q 331 44 272 34 L 272 116 L 272 116 Q 318 149 320 208 Q 319 256 287 287 Q 256 319 208 320 Q 160 319 129 287 Q 97 256 96 208 Q 98 149 144 116 L 144 49 L 144 49 Z M 288 208 Q 287 163 248 139 Q 208 117 168 139 Q 129 163 128 208 Q 129 253 168 277 Q 208 299 248 277 Q 287 253 288 208 L 288 208 Z M 208 224 Q 223 223 224 208 Q 223 193 208 192 Q 193 193 192 208 Q 193 223 208 224 L 208 224 Z M 208 160 Q 235 161 250 184 Q 262 208 250 232 Q 235 255 208 256 Q 181 255 166 232 Q 154 208 166 184 Q 181 161 208 160 L 208 160 Z" />
</svg>