<svg xmlns="http://www.w3.org/2000/svg" viewBox="0 0 512 512">
  <path d="M 149.33333 360 L 42.666668 395.55554 L 149.33333 360 L 42.666668 395.55554 L 42.666668 144.88889 L 42.666668 144.88889 L 149.33333 109.333336 L 149.33333 109.333336 L 149.33333 360 L 149.33333 360 Z M 320 402.66666 L 192 360 L 320 402.66666 L 192 360 L 192 109.333336 L 192 109.333336 L 320 152 L 320 152 L 320 402.66666 L 320 402.66666 Z M 362.66666 402.66666 L 362.66666 152 L 362.66666 402.66666 L 362.66666 152 L 469.33334 116.44444 L 469.33334 116.44444 L 469.33334 367.1111 L 469.33334 367.1111 L 362.66666 402.66666 L 362.66666 402.66666 Z M 0 455.1111 L 42.666668 440.8889 L 0 455.1111 L 42.666668 440.8889 L 170.66667 398.22223 L 170.66667 398.22223 L 341.33334 455.1111 L 341.33334 455.1111 L 512 398.22223 L 512 398.22223 L 512 102.22222 L 512 102.22222 L 512 56.88889 L 512 56.88889 L 469.33334 71.111115 L 469.33334 71.111115 L 341.33334 113.77778 L 341.33334 113.77778 L 170.66667 56.88889 L 170.66667 56.88889 L 0 113.77778 L 0 113.77778 L 0 409.77777 L 0 409.77777 L 0 455.1111 L 0 455.1111 Z" />
</svg>