<svg xmlns="http://www.w3.org/2000/svg" viewBox="0 0 512 512">
  <path d="M 352 493 Q 307 512 256 512 Q 205 512 160 493 L 160 288 L 160 288 L 160 272 L 160 272 L 128 272 L 128 272 L 128 288 L 128 288 L 128 478 L 128 478 Q 70 444 35 386 Q 1 328 0 256 Q 1 184 35 127 Q 69 69 127 35 Q 184 1 256 0 Q 328 1 385 35 Q 443 69 477 127 Q 511 184 512 256 Q 511 328 477 386 Q 442 444 384 478 L 384 288 L 384 288 L 384 272 L 384 272 L 352 272 L 352 272 L 352 288 L 352 288 L 352 493 L 352 493 Z M 208 336 L 208 368 L 208 336 L 208 368 Q 209 388 222 402 Q 236 415 256 416 Q 276 415 290 402 Q 303 388 304 368 L 304 336 L 304 336 Q 303 316 290 302 Q 276 289 256 288 Q 236 289 222 302 Q 209 316 208 336 L 208 336 Z M 117 238 Q 134 216 160 216 L 160 216 L 160 216 Q 186 216 203 238 L 229 218 L 229 218 Q 201 184 160 184 Q 119 184 91 218 L 117 238 L 117 238 Z M 395 238 L 421 218 L 395 238 L 421 218 Q 393 184 352 184 Q 311 184 283 218 L 309 238 L 309 238 Q 326 216 352 216 Q 378 216 395 238 L 395 238 Z" />
</svg>