<svg xmlns="http://www.w3.org/2000/svg" viewBox="0 0 512 512">
  <path d="M 62.79245283018868 90.96855345911949 Q 63.59748427672956 69.23270440251572 82.11320754716981 57.15723270440252 Q 101.43396226415095 47.496855345911946 120.75471698113208 57.15723270440252 Q 139.27044025157232 69.23270440251572 140.0754716981132 90.96855345911949 Q 139.27044025157232 112.70440251572327 120.75471698113208 124.77987421383648 Q 101.43396226415095 134.44025157232704 82.11320754716981 124.77987421383648 Q 63.59748427672956 112.70440251572327 62.79245283018868 90.96855345911949 L 62.79245283018868 90.96855345911949 Z M 46.691823899371066 155.37106918238993 L 60.37735849056604 155.37106918238993 L 46.691823899371066 155.37106918238993 L 156.1761006289308 155.37106918238993 L 161.0062893081761 169.0566037735849 L 161.0062893081761 169.0566037735849 L 197.23270440251574 278.54088050314465 L 197.23270440251574 278.54088050314465 L 202.8679245283019 296.251572327044 L 202.8679245283019 296.251572327044 L 166.64150943396226 308.32704402515725 L 166.64150943396226 308.32704402515725 L 160.2012578616352 290.6163522012579 L 160.2012578616352 290.6163522012579 L 152.9559748427673 268.07547169811323 L 152.9559748427673 268.07547169811323 L 152.9559748427673 445.1823899371069 L 152.9559748427673 445.1823899371069 L 152.9559748427673 464.50314465408803 L 152.9559748427673 464.50314465408803 L 114.31446540880503 464.50314465408803 L 114.31446540880503 464.50314465408803 L 114.31446540880503 445.1823899371069 L 114.31446540880503 445.1823899371069 L 114.31446540880503 335.6981132075472 L 114.31446540880503 335.6981132075472 L 88.55345911949685 335.6981132075472 L 88.55345911949685 335.6981132075472 L 88.55345911949685 445.1823899371069 L 88.55345911949685 445.1823899371069 L 88.55345911949685 464.50314465408803 L 88.55345911949685 464.50314465408803 L 49.911949685534594 464.50314465408803 L 49.911949685534594 464.50314465408803 L 49.911949685534594 445.1823899371069 L 49.911949685534594 445.1823899371069 L 49.911949685534594 268.07547169811323 L 49.911949685534594 268.07547169811323 L 42.666666666666664 290.6163522012579 L 42.666666666666664 290.6163522012579 L 36.22641509433962 308.32704402515725 L 36.22641509433962 308.32704402515725 L 0 296.251572327044 L 0 296.251572327044 L 5.635220125786163 278.54088050314465 L 5.635220125786163 278.54088050314465 L 41.861635220125784 169.0566037735849 L 41.861635220125784 169.0566037735849 L 46.691823899371066 155.37106918238993 L 46.691823899371066 155.37106918238993 Z M 88.55345911949685 297.0566037735849 L 114.31446540880503 297.0566037735849 L 88.55345911949685 297.0566037735849 L 114.31446540880503 297.0566037735849 L 114.31446540880503 194.01257861635222 L 114.31446540880503 194.01257861635222 L 88.55345911949685 194.01257861635222 L 88.55345911949685 194.01257861635222 L 88.55345911949685 297.0566037735849 L 88.55345911949685 297.0566037735849 Z M 371.92452830188677 90.96855345911949 Q 372.7295597484277 69.23270440251572 391.24528301886795 57.15723270440252 Q 410.5660377358491 47.496855345911946 429.8867924528302 57.15723270440252 Q 448.4025157232704 69.23270440251572 449.20754716981133 90.96855345911949 Q 448.4025157232704 112.70440251572327 429.8867924528302 124.77987421383648 Q 410.5660377358491 134.44025157232704 391.24528301886795 124.77987421383648 Q 372.7295597484277 112.70440251572327 371.92452830188677 90.96855345911949 L 371.92452830188677 90.96855345911949 Z M 355.82389937106916 155.37106918238993 L 369.50943396226415 155.37106918238993 L 355.82389937106916 155.37106918238993 L 465.30817610062894 155.37106918238993 L 470.1383647798742 169.0566037735849 L 470.1383647798742 169.0566037735849 L 506.3647798742138 278.54088050314465 L 506.3647798742138 278.54088050314465 L 512 296.251572327044 L 512 296.251572327044 L 483.0188679245283 305.9119496855346 L 483.0188679245283 305.9119496855346 L 488.65408805031444 322.8176100628931 L 488.65408805031444 322.8176100628931 L 500.7295597484277 361.45911949685535 L 500.7295597484277 361.45911949685535 L 462.0880503144654 361.45911949685535 L 462.0880503144654 361.45911949685535 L 462.0880503144654 445.1823899371069 L 462.0880503144654 445.1823899371069 L 462.0880503144654 464.50314465408803 L 462.0880503144654 464.50314465408803 L 423.44654088050316 464.50314465408803 L 423.44654088050316 464.50314465408803 L 423.44654088050316 445.1823899371069 L 423.44654088050316 445.1823899371069 L 423.44654088050316 361.45911949685535 L 423.44654088050316 361.45911949685535 L 397.685534591195 361.45911949685535 L 397.685534591195 361.45911949685535 L 397.685534591195 445.1823899371069 L 397.685534591195 445.1823899371069 L 397.685534591195 464.50314465408803 L 397.685534591195 464.50314465408803 L 359.0440251572327 464.50314465408803 L 359.0440251572327 464.50314465408803 L 359.0440251572327 445.1823899371069 L 359.0440251572327 445.1823899371069 L 359.0440251572327 361.45911949685535 L 359.0440251572327 361.45911949685535 L 320.4025157232704 361.45911949685535 L 320.4025157232704 361.45911949685535 L 332.47798742138366 322.8176100628931 L 332.47798742138366 322.8176100628931 L 338.1132075471698 305.9119496855346 L 338.1132075471698 305.9119496855346 L 309.1320754716981 296.251572327044 L 309.1320754716981 296.251572327044 L 314.7672955974843 278.54088050314465 L 314.7672955974843 278.54088050314465 L 350.9937106918239 169.0566037735849 L 350.9937106918239 169.0566037735849 L 355.82389937106916 155.37106918238993 L 355.82389937106916 155.37106918238993 Z M 410.5660377358491 202.8679245283019 L 372.7295597484277 322.8176100628931 L 410.5660377358491 202.8679245283019 L 372.7295597484277 322.8176100628931 L 448.4025157232704 322.8176100628931 L 448.4025157232704 322.8176100628931 L 410.5660377358491 202.8679245283019 L 410.5660377358491 202.8679245283019 Z M 275.3207547169811 71.64779874213836 L 275.3207547169811 445.1823899371069 L 275.3207547169811 71.64779874213836 L 275.3207547169811 445.1823899371069 L 275.3207547169811 464.50314465408803 L 275.3207547169811 464.50314465408803 L 236.67924528301887 464.50314465408803 L 236.67924528301887 464.50314465408803 L 236.67924528301887 445.1823899371069 L 236.67924528301887 445.1823899371069 L 236.67924528301887 71.64779874213836 L 236.67924528301887 71.64779874213836 L 236.67924528301887 52.327044025157235 L 236.67924528301887 52.327044025157235 L 275.3207547169811 52.327044025157235 L 275.3207547169811 52.327044025157235 L 275.3207547169811 71.64779874213836 L 275.3207547169811 71.64779874213836 Z" />
</svg>