<svg xmlns="http://www.w3.org/2000/svg" viewBox="0 0 512 512">
  <path d="M 320.85333333333335 201.38666666666666 Q 320 158.72 331.0933333333333 114.34666666666666 L 331.0933333333333 114.34666666666666 L 331.0933333333333 114.34666666666666 Q 343.04 69.97333333333333 372.05333333333334 37.54666666666667 L 129.70666666666668 37.54666666666667 L 129.70666666666668 37.54666666666667 Q 94.72 39.25333333333333 71.68 85.33333333333333 Q 48.64 131.41333333333333 47.78666666666667 201.38666666666666 Q 48.64 259.41333333333336 42.666666666666664 320.85333333333335 Q 36.693333333333335 381.44 15.36 436.9066666666667 L 0 474.4533333333333 L 0 474.4533333333333 L 277.3333333333333 474.4533333333333 L 277.3333333333333 474.4533333333333 Q 303.7866666666667 408.74666666666667 313.17333333333335 340.48 Q 321.70666666666665 272.2133333333333 320.85333333333335 201.38666666666666 L 320.85333333333335 201.38666666666666 Z M 430.08 365.2266666666667 Q 465.06666666666666 363.52 488.1066666666667 317.44 L 488.1066666666667 317.44 L 488.1066666666667 317.44 Q 511.14666666666665 271.36 512 201.38666666666666 Q 511.14666666666665 131.41333333333333 488.1066666666667 85.33333333333333 Q 465.06666666666666 39.25333333333333 430.08 37.54666666666667 Q 395.0933333333333 39.25333333333333 372.05333333333334 85.33333333333333 Q 349.0133333333333 131.41333333333333 348.16 201.38666666666666 Q 349.0133333333333 271.36 372.05333333333334 317.44 Q 395.0933333333333 363.52 430.08 365.2266666666667 L 430.08 365.2266666666667 Z M 430.08 256 Q 418.1333333333333 255.14666666666668 410.4533333333333 239.78666666666666 L 410.4533333333333 239.78666666666666 L 410.4533333333333 239.78666666666666 Q 402.7733333333333 224.42666666666668 402.7733333333333 201.38666666666666 Q 402.7733333333333 178.34666666666666 410.4533333333333 162.98666666666668 Q 418.1333333333333 147.62666666666667 430.08 146.77333333333334 Q 442.02666666666664 147.62666666666667 449.70666666666665 162.98666666666668 Q 457.38666666666666 178.34666666666666 457.38666666666666 201.38666666666666 Q 457.38666666666666 224.42666666666668 449.70666666666665 239.78666666666666 Q 442.02666666666664 255.14666666666668 430.08 256 L 430.08 256 Z M 241.49333333333334 197.12 L 180.05333333333334 258.56 L 241.49333333333334 197.12 L 180.05333333333334 258.56 L 170.66666666666666 268.8 L 170.66666666666666 268.8 L 161.28 258.56 L 161.28 258.56 L 127.14666666666666 224.42666666666668 L 127.14666666666666 224.42666666666668 L 116.90666666666667 215.04 L 116.90666666666667 215.04 L 136.53333333333333 195.41333333333333 L 136.53333333333333 195.41333333333333 L 145.92 205.65333333333334 L 145.92 205.65333333333334 L 170.66666666666666 229.54666666666665 L 170.66666666666666 229.54666666666665 L 222.72 178.34666666666666 L 222.72 178.34666666666666 L 232.10666666666665 168.10666666666665 L 232.10666666666665 168.10666666666665 L 251.73333333333332 187.73333333333332 L 251.73333333333332 187.73333333333332 L 241.49333333333334 197.12 L 241.49333333333334 197.12 Z" />
</svg>