<svg xmlns="http://www.w3.org/2000/svg" viewBox="0 0 512 512">
  <path d="M 153.6 76.8 L 76.8 76.8 L 153.6 76.8 L 76.8 76.8 L 76.8 153.6 L 76.8 153.6 L 25.6 153.6 L 25.6 153.6 L 25.6 230.4 L 25.6 230.4 L 0 230.4 L 0 230.4 L 0 281.6 L 0 281.6 L 25.6 281.6 L 25.6 281.6 L 25.6 358.4 L 25.6 358.4 L 76.8 358.4 L 76.8 358.4 L 76.8 435.2 L 76.8 435.2 L 153.6 435.2 L 153.6 435.2 L 153.6 307.2 L 153.6 307.2 L 153.6 281.6 L 153.6 281.6 L 153.6 230.4 L 153.6 230.4 L 153.6 204.8 L 153.6 204.8 L 153.6 76.8 L 153.6 76.8 Z M 179.2 230.4 L 179.2 281.6 L 179.2 230.4 L 179.2 281.6 L 332.8 281.6 L 332.8 281.6 L 332.8 230.4 L 332.8 230.4 L 179.2 230.4 L 179.2 230.4 Z M 358.4 204.8 L 358.4 230.4 L 358.4 204.8 L 358.4 230.4 L 358.4 281.6 L 358.4 281.6 L 358.4 307.2 L 358.4 307.2 L 358.4 435.2 L 358.4 435.2 L 435.2 435.2 L 435.2 435.2 L 435.2 358.4 L 435.2 358.4 L 486.4 358.4 L 486.4 358.4 L 486.4 281.6 L 486.4 281.6 L 512 281.6 L 512 281.6 L 512 230.4 L 512 230.4 L 486.4 230.4 L 486.4 230.4 L 486.4 153.6 L 486.4 153.6 L 435.2 153.6 L 435.2 153.6 L 435.2 76.8 L 435.2 76.8 L 358.4 76.8 L 358.4 76.8 L 358.4 204.8 L 358.4 204.8 Z" />
</svg>