<svg xmlns="http://www.w3.org/2000/svg" viewBox="0 0 512 512">
  <path d="M 208 0 L 320 0 L 208 0 L 320 0 Q 340 1 354 14 Q 367 28 368 48 Q 367 68 354 82 Q 340 95 320 96 L 208 96 L 208 96 L 208 72 L 208 72 L 200 72 L 200 72 Q 183 72 172 84 Q 160 95 160 112 L 160 144 L 160 144 L 456 144 L 480 144 L 480 192 L 480 192 L 456 192 L 32 192 L 32 144 L 32 144 L 56 144 L 112 144 L 112 112 L 112 112 Q 113 75 138 50 Q 163 25 200 24 L 208 24 L 208 24 L 208 0 L 208 0 Z M 112 512 L 79 224 L 112 512 L 79 224 L 128 224 L 128 224 L 155 464 L 155 464 L 357 464 L 357 464 L 384 224 L 384 224 L 433 224 L 433 224 L 400 512 L 400 512 L 112 512 L 112 512 Z" />
</svg>