<svg xmlns="http://www.w3.org/2000/svg" viewBox="0 0 512 512">
  <path d="M 274.2857 0 L 274.2857 18.285715 L 274.2857 0 L 274.2857 18.285715 L 274.2857 222.85715 L 274.2857 222.85715 L 446.85715 113.14286 L 446.85715 113.14286 L 467.42856 144 L 467.42856 144 L 290.2857 256 L 290.2857 256 L 467.42856 369.14285 L 467.42856 369.14285 L 446.85715 400 L 446.85715 400 L 274.2857 289.14285 L 274.2857 289.14285 L 274.2857 493.7143 L 274.2857 493.7143 L 274.2857 512 L 274.2857 512 L 237.71428 512 L 237.71428 512 L 237.71428 493.7143 L 237.71428 493.7143 L 237.71428 289.14285 L 237.71428 289.14285 L 65.14286 400 L 65.14286 400 L 44.57143 369.14285 L 44.57143 369.14285 L 221.71428 256 L 221.71428 256 L 44.57143 144 L 44.57143 144 L 65.14286 113.14286 L 65.14286 113.14286 L 237.71428 222.85715 L 237.71428 222.85715 L 237.71428 18.285715 L 237.71428 18.285715 L 237.71428 0 L 237.71428 0 L 274.2857 0 L 274.2857 0 Z" />
</svg>