<svg viewBox="0 0 626 512">
  <path
    d="M 224 208 Q 269 207 293 168 Q 315 128 293 88 Q 269 49 224 48 Q 179 49 155 88 Q 133 128 155 168 Q 179 207 224 208 L 224 208 Z M 100 352 L 65 464 L 343 464 L 367 506 L 404 484 L 404 512 L 398 512 L 50 512 L 0 512 L 15 464 L 64 304 L 224 304 L 305 304 L 290 331 L 326 352 L 326 352 L 100 352 L 100 352 Z M 96 128 Q 96 93 113 64 L 113 64 Q 130 35 160 17 Q 190 0 224 0 Q 258 0 288 17 Q 318 35 335 64 Q 352 93 352 128 Q 352 163 335 192 Q 318 221 288 239 Q 258 256 224 256 Q 190 256 160 239 Q 130 221 113 192 Q 96 163 96 128 L 96 128 Z M 436 206 L 524 206 L 524 249 Q 536 254 546 262 L 581 241 L 626 319 L 591 339 Q 592 346 592 352 Q 592 358 591 364 L 626 384 L 581 462 L 546 442 Q 536 450 524 455 L 524 497 L 436 497 L 436 455 Q 424 450 414 442 L 379 462 L 334 384 L 369 364 Q 368 358 368 352 Q 368 345 369 339 L 334 319 L 379 241 L 413 262 Q 424 254 436 249 L 436 206 L 436 206 Z M 528 352 Q 528 324 505 308 Q 480 295 455 308 Q 432 324 432 352 Q 432 380 455 395 Q 480 409 505 395 Q 528 380 528 352 L 528 352 Z"
  />
</svg>