<svg xmlns="http://www.w3.org/2000/svg" viewBox="0 0 512 512">
  <path d="M 256 48 Q 313 48 360 76 L 360 76 L 360 76 Q 407 103 436 152 Q 464 201 464 256 Q 464 311 436 360 Q 407 409 360 436 Q 313 464 256 464 Q 199 464 152 436 Q 105 409 76 360 Q 48 311 48 256 Q 48 201 76 152 Q 105 103 152 76 Q 199 48 256 48 L 256 48 Z M 256 512 Q 326 511 384 478 L 384 478 L 384 478 Q 442 444 478 384 Q 512 323 512 256 Q 512 189 478 128 Q 442 68 384 34 Q 326 1 256 0 Q 186 1 128 34 Q 70 68 34 128 Q 0 189 0 256 Q 0 323 34 384 Q 70 444 128 478 Q 186 511 256 512 L 256 512 Z M 368 208 Q 368 181 359 163 L 359 163 L 359 163 Q 350 145 336 144 Q 322 145 313 163 Q 304 181 304 208 Q 304 235 313 253 Q 322 271 336 272 Q 350 271 359 253 Q 368 235 368 208 L 368 208 Z M 214 247 L 237 242 L 214 247 L 237 242 L 226 195 L 226 195 L 202 201 L 202 201 L 138 217 L 138 217 L 115 223 L 115 223 L 126 269 L 126 269 L 150 263 L 150 263 L 214 247 L 214 247 Z M 214 108 L 188 90 L 214 108 L 188 90 L 179 103 L 179 103 Q 160 129 139 143 Q 118 158 107 161 L 92 166 L 92 166 L 102 196 L 102 196 L 117 191 L 117 191 Q 132 187 158 169 Q 183 152 205 121 L 214 108 L 214 108 Z M 386 360 L 402 342 L 386 360 L 402 342 L 366 310 L 366 310 L 350 328 L 350 328 L 319 362 L 319 362 Q 314 368 306 368 Q 301 368 296 365 L 285 357 L 285 357 Q 246 332 203 349 Q 184 357 168 345 L 158 338 L 158 338 L 139 324 L 139 324 L 111 363 L 111 363 L 130 377 L 130 377 L 139 384 L 139 384 Q 178 411 223 393 Q 241 386 257 396 L 269 405 L 269 405 Q 286 416 306 416 Q 335 416 354 395 L 386 360 L 386 360 Z" />
</svg>