<svg viewBox="0 0 575 509">
  <path
    d="M 336 0 L 346 8 L 562 184 L 575 194 L 554 219 L 542 209 L 512 185 L 512 397 L 512 413 L 496 413 L 272 413 Q 266 396 258 381 L 480 381 L 480 159 L 336 41 L 192 159 L 192 294 Q 177 280 160 269 L 160 185 L 130 209 L 118 219 L 98 194 L 110 184 L 326 8 L 336 0 L 336 0 Z M 288 173 L 384 173 L 400 173 L 400 189 L 400 285 L 400 301 L 384 301 L 288 301 L 272 301 L 272 285 L 272 189 L 272 173 L 288 173 L 288 173 Z M 304 269 L 368 269 L 368 205 L 304 205 L 304 269 L 304 269 Z M 0 285 L 0 253 Q 72 253 129 288 Q 187 322 221 379 Q 255 437 256 509 L 224 509 Q 223 446 193 396 Q 164 345 113 315 Q 63 285 0 285 L 0 285 Z M 32 445 Q 46 445 55 454 L 55 454 Q 64 463 64 477 Q 64 490 55 499 Q 46 508 32 509 Q 18 508 9 499 Q 0 490 0 477 Q 0 463 9 454 Q 18 445 32 445 L 32 445 Z M 128 509 Q 127 454 91 418 L 91 418 Q 54 382 0 381 L 0 349 Q 68 350 113 395 Q 158 441 160 509 L 128 509 L 128 509 Z"
  />
</svg>