<svg xmlns="http://www.w3.org/2000/svg" viewBox="0 0 512 512">
  <path d="M 249 366 Q 253 361 256 356 L 256 436 L 256 436 Q 238 459 224 476 Q 194 511 192 512 Q 192 512 192 512 Q 190 511 160 476 Q 131 442 94 392 Q 57 342 29 288 Q 1 235 0 192 Q 2 110 56 56 Q 110 2 192 0 Q 265 2 317 46 Q 369 91 382 162 Q 356 166 336 180 Q 330 123 290 86 Q 250 49 192 48 Q 131 50 90 90 Q 50 131 48 192 Q 48 217 73 267 Q 99 317 135 366 Q 166 408 192 439 Q 218 408 249 366 L 249 366 Z M 224 192 Q 224 178 215 169 L 215 169 L 215 169 Q 206 160 192 160 Q 178 160 169 169 Q 160 178 160 192 Q 160 206 169 215 Q 178 224 192 224 Q 206 224 215 215 Q 224 206 224 192 L 224 192 Z M 112 192 Q 113 147 152 123 Q 192 101 232 123 Q 271 147 272 192 Q 271 237 232 261 Q 192 283 152 261 Q 113 237 112 192 L 112 192 Z M 400 240 Q 386 240 377 249 L 377 249 L 377 249 Q 368 258 368 272 L 368 320 L 368 320 L 432 320 L 432 320 L 432 272 L 432 272 Q 432 258 423 249 Q 414 240 400 240 L 400 240 Z M 320 272 Q 321 238 343 215 L 343 215 L 343 215 Q 366 193 400 192 Q 434 193 457 215 Q 479 238 480 272 L 480 320 L 480 320 L 512 320 L 512 320 L 512 512 L 512 512 L 288 512 L 288 512 L 288 320 L 288 320 L 320 320 L 320 320 L 320 272 L 320 272 Z" />
</svg>