<svg viewBox="0 0 512 416">
  <path
    d="M 160 224 L 192 224 L 384 224 L 416 224 L 416 192 L 416 32 L 480 32 L 480 288 L 192 288 L 160 288 L 160 320 L 160 371 L 45 256 L 160 141 L 160 192 L 160 224 L 160 224 Z M 192 128 L 192 96 L 160 96 L 23 233 L 0 256 L 23 279 L 160 416 L 192 416 L 192 384 L 192 352 L 192 320 L 224 320 L 480 320 L 512 320 L 512 288 L 512 32 L 512 0 L 480 0 L 416 0 L 384 0 L 384 32 L 384 160 L 384 192 L 352 192 L 224 192 L 192 192 L 192 160 L 192 128 L 192 128 Z"
  />
</svg>