<svg viewBox="0 0 448 448">
  <path
    d="M 416 32 L 416 416 L 379 416 L 336 288 L 112 288 L 69 416 L 32 416 L 32 32 L 416 32 L 416 32 Z M 345 416 L 103 416 L 135 320 L 313 320 L 345 416 L 345 416 Z M 32 0 L 0 0 L 0 32 L 0 416 L 0 448 L 32 448 L 416 448 L 448 448 L 448 416 L 448 32 L 448 0 L 416 0 L 32 0 L 32 0 Z M 224 224 Q 197 223 182 200 Q 170 176 182 152 Q 197 129 224 128 Q 251 129 266 152 Q 278 176 266 200 Q 251 223 224 224 L 224 224 Z M 144 176 Q 145 221 184 245 Q 224 267 264 245 Q 303 221 304 176 Q 303 131 264 107 Q 224 85 184 107 Q 145 131 144 176 L 144 176 Z"
  />
</svg>