<svg viewBox="0 0 574 512">
  <path
    d="M 208 32 L 208 128 L 208 154 L 231 142 L 288 114 L 345 142 L 368 154 L 368 128 L 368 32 L 448 32 L 448 224 L 128 224 L 128 32 L 208 32 L 208 32 Z M 224 0 L 128 0 L 96 0 L 96 32 L 96 224 L 96 256 L 128 256 L 448 256 L 480 256 L 480 224 L 480 32 L 480 0 L 448 0 L 352 0 L 224 0 L 224 0 Z M 240 32 L 336 32 L 336 102 L 295 82 L 288 78 L 281 82 L 240 102 L 240 32 L 240 32 Z M 176 304 L 171 304 L 167 307 L 75 368 L 16 368 L 0 368 L 0 400 L 16 400 L 80 400 L 85 400 L 89 397 L 181 336 L 368 336 L 368 384 L 320 384 L 304 384 L 256 384 L 240 384 L 240 416 L 256 416 L 304 416 L 320 416 L 384 416 L 400 416 L 405 416 L 409 416 L 413 414 L 507 358 L 530 395 L 395 480 L 16 480 L 0 480 L 0 512 L 16 512 L 400 512 L 405 512 L 409 510 L 561 414 L 574 405 L 566 392 L 526 328 L 517 314 L 504 322 L 400 384 L 400 384 L 400 320 L 400 304 L 384 304 L 176 304 L 176 304 Z"
  />
</svg>