<svg xmlns="http://www.w3.org/2000/svg" viewBox="0 0 512 512">
  <path d="M 432 224 Q 432 176 408 136 L 408 136 L 408 136 Q 385 96 344 72 Q 302 48 256 48 Q 210 48 168 72 Q 127 96 104 136 Q 80 176 80 224 Q 80 272 104 312 Q 127 352 168 376 Q 210 400 256 400 Q 302 400 344 376 Q 385 352 408 312 Q 432 272 432 224 L 432 224 Z M 256 0 Q 319 1 369 31 L 369 31 L 369 31 Q 420 60 449 111 L 449 111 L 449 111 Q 479 161 480 224 L 480 512 L 480 512 L 32 512 L 32 512 L 32 224 L 32 224 Q 33 161 63 111 Q 92 60 143 31 Q 193 1 256 0 L 256 0 Z M 280 96 L 280 120 L 280 96 L 280 120 L 280 214 L 280 214 L 321 255 L 321 255 L 338 272 L 338 272 L 304 306 L 304 306 L 287 289 L 287 289 L 239 241 L 239 241 L 232 234 L 232 234 L 232 224 L 232 224 L 232 120 L 232 120 L 232 96 L 232 96 L 280 96 L 280 96 Z" />
</svg>