<svg xmlns="http://www.w3.org/2000/svg" viewBox="0 0 448 448">
    <path d="M 256 32 L 256 416 L 192 416 L 192 32 L 256 32 L 256 32 Z M 192 0 L 160 0 L 160 32 L 160 416 L 160 448 L 192 448 L 256 448 L 288 448 L 288 416 L 288 32 L 288 0 L 256 0 L 192 0 L 192 0 Z M 96 224 L 96 416 L 32 416 L 32 224 L 96 224 L 96 224 Z M 32 192 L 0 192 L 0 224 L 0 416 L 0 448 L 32 448 L 96 448 L 128 448 L 128 416 L 128 224 L 128 192 L 96 192 L 32 192 L 32 192 Z M 352 96 L 416 96 L 416 416 L 352 416 L 352 96 L 352 96 Z M 320 64 L 320 96 L 320 416 L 320 448 L 352 448 L 416 448 L 448 448 L 448 416 L 448 96 L 448 64 L 416 64 L 352 64 L 320 64 L 320 64 Z"/>
</svg>
