<svg xmlns="http://www.w3.org/2000/svg" viewBox="0 0 512 512">
  <path d="M 398.22223 28.444445 L 398.22223 142.22223 L 398.22223 28.444445 L 398.22223 142.22223 L 170.66667 142.22223 L 142.22223 142.22223 L 142.22223 170.66667 L 142.22223 170.66667 L 142.22223 227.55556 L 142.22223 227.55556 L 56.88889 227.55556 L 56.88889 227.55556 L 56.88889 28.444445 L 56.88889 28.444445 L 398.22223 28.444445 L 398.22223 28.444445 Z M 170.66667 199.11111 L 170.66667 170.66667 L 170.66667 199.11111 L 170.66667 170.66667 L 199.11111 170.66667 L 512 170.66667 L 512 398.22223 L 512 398.22223 L 312.8889 398.22223 L 312.8889 398.22223 L 312.8889 256 L 312.8889 256 L 312.8889 227.55556 L 312.8889 227.55556 L 284.44446 227.55556 L 170.66667 227.55556 L 170.66667 199.11111 L 170.66667 199.11111 Z M 284.44446 256 L 284.44446 284.44446 L 284.44446 256 L 284.44446 284.44446 L 284.44446 300.44446 L 284.44446 300.44446 L 142.22223 401.77777 L 142.22223 401.77777 L 0 300.44446 L 0 300.44446 L 0 256 L 0 256 L 256 256 L 284.44446 256 Z M 455.1111 227.55556 L 398.22223 227.55556 L 455.1111 227.55556 L 398.22223 227.55556 L 398.22223 284.44446 L 398.22223 284.44446 L 455.1111 284.44446 L 455.1111 284.44446 L 455.1111 227.55556 L 455.1111 227.55556 Z M 284.44446 335.1111 L 284.44446 483.55554 L 284.44446 335.1111 L 284.44446 483.55554 L 0 483.55554 L 0 483.55554 L 0 335.1111 L 0 335.1111 L 134.22223 431.1111 L 134.22223 431.1111 L 142.22223 437.33334 L 142.22223 437.33334 L 150.22223 431.1111 L 150.22223 431.1111 L 284.44446 335.1111 L 284.44446 335.1111 Z" />
</svg>