<svg xmlns="http://www.w3.org/2000/svg" viewBox="0 0 512 512">
  <path d="M 268.8 64 L 268.8 51.2 L 268.8 64 L 268.8 51.2 L 243.2 51.2 L 243.2 51.2 L 243.2 64 L 243.2 64 L 243.2 89.6 L 243.2 89.6 L 211.2 89.6 L 198.4 89.6 L 198.4 115.2 L 198.4 115.2 L 211.2 115.2 L 243.2 115.2 L 243.2 146.4 L 243.2 146.4 L 133.6 220 L 133.6 220 L 128 224 L 128 224 L 128 230.4 L 128 230.4 L 128 435.2 L 128 435.2 L 25.6 435.2 L 25.6 435.2 L 25.6 340 L 25.6 340 L 102.4 290.4 L 102.4 290.4 L 102.4 260 L 102.4 260 L 5.6 322.4 L 5.6 322.4 L 0 325.6 L 0 325.6 L 0 332.8 L 0 332.8 L 0 448 L 0 448 L 0 460.8 L 0 460.8 L 12.8 460.8 L 147.2 460.8 L 147.2 460.8 L 147.2 460.8 L 204.8 460.8 L 364.8 460.8 L 364.8 460.8 L 364.8 460.8 L 499.2 460.8 L 512 460.8 L 512 448 L 512 448 L 512 332.8 L 512 332.8 L 512 325.6 L 512 325.6 L 506.4 322.4 L 506.4 322.4 L 409.6 260 L 409.6 260 L 409.6 290.4 L 409.6 290.4 L 486.4 340 L 486.4 340 L 486.4 435.2 L 486.4 435.2 L 384 435.2 L 384 435.2 L 384 230.4 L 384 230.4 L 384 223.2 L 384 223.2 L 378.4 220 L 378.4 220 L 268.8 146.4 L 268.8 146.4 L 268.8 115.2 L 268.8 115.2 L 300.8 115.2 L 313.6 115.2 L 313.6 89.6 L 313.6 89.6 L 300.8 89.6 L 268.8 89.6 L 268.8 64 L 268.8 64 Z M 358.4 435.2 L 307.2 435.2 L 358.4 435.2 L 307.2 435.2 L 307.2 358.4 L 307.2 358.4 Q 306.4 336.8 292 322.4 Q 277.6 308 256 307.2 Q 234.4 308 220 322.4 Q 205.6 336.8 204.8 358.4 L 204.8 435.2 L 204.8 435.2 L 153.6 435.2 L 153.6 435.2 L 153.6 237.6 L 153.6 237.6 L 256 168.8 L 256 168.8 L 358.4 237.6 L 358.4 237.6 L 358.4 435.2 L 358.4 435.2 Z M 281.6 358.4 L 281.6 435.2 L 281.6 358.4 L 281.6 435.2 L 230.4 435.2 L 230.4 435.2 L 230.4 358.4 L 230.4 358.4 Q 230.4 347.2 237.6 340 Q 244.8 332.8 256 332.8 Q 267.2 332.8 274.4 340 Q 281.6 347.2 281.6 358.4 L 281.6 358.4 Z" />
</svg>