<svg xmlns="http://www.w3.org/2000/svg" viewBox="0 0 512 512">
  <path d="M 32.40506329113924 63.18987341772152 L 22.68354430379747 55.08860759493671 L 32.40506329113924 63.18987341772152 L 22.68354430379747 55.08860759493671 L 6.481012658227848 75.34177215189874 L 6.481012658227848 75.34177215189874 L 17.0126582278481 83.44303797468355 L 17.0126582278481 83.44303797468355 L 486.0759493670886 448.8101265822785 L 486.0759493670886 448.8101265822785 L 495.7974683544304 456.9113924050633 L 495.7974683544304 456.9113924050633 L 512 436.65822784810126 L 512 436.65822784810126 L 502.27848101265823 428.55696202531647 L 502.27848101265823 428.55696202531647 L 32.40506329113924 63.18987341772152 L 32.40506329113924 63.18987341772152 Z M 466.63291139240505 256 Q 465.0126582278481 172.55696202531647 416.40506329113924 111.79746835443038 L 396.1518987341772 127.18987341772151 L 396.1518987341772 127.18987341772151 Q 439.0886075949367 181.46835443037975 440.7088607594937 256 Q 440.7088607594937 291.6455696202532 429.36708860759495 324.0506329113924 L 450.43037974683546 341.0632911392405 L 450.43037974683546 341.0632911392405 Q 466.63291139240505 301.36708860759495 466.63291139240505 256 L 466.63291139240505 256 Z M 388.8607594936709 256 Q 388.0506329113924 200.1012658227848 355.6455696202532 159.59493670886076 L 335.39240506329116 175.79746835443038 L 335.39240506329116 175.79746835443038 Q 362.126582278481 209.8227848101266 362.9367088607595 256 Q 362.9367088607595 263.2911392405063 362.126582278481 271.39240506329116 L 385.62025316455697 289.2151898734177 L 385.62025316455697 289.2151898734177 Q 388.8607594936709 273.0126582278481 388.8607594936709 256 L 388.8607594936709 256 Z M 113.41772151898734 206.58227848101265 L 92.35443037974683 190.37974683544303 L 113.41772151898734 206.58227848101265 L 92.35443037974683 190.37974683544303 Q 77.77215189873418 220.35443037974684 77.77215189873418 256 Q 78.58227848101266 311.8987341772152 110.9873417721519 352.40506329113924 L 131.2405063291139 336.2025316455696 L 131.2405063291139 336.2025316455696 Q 104.50632911392405 302.17721518987344 103.69620253164557 256 Q 103.69620253164557 230.0759493670886 113.41772151898734 206.58227848101265 L 113.41772151898734 206.58227848101265 Z M 51.037974683544306 157.16455696202533 L 29.974683544303797 140.9620253164557 L 51.037974683544306 157.16455696202533 L 29.974683544303797 140.9620253164557 Q 0.810126582278481 192.81012658227849 0 256 Q 1.620253164556962 339.44303797468353 50.22784810126582 401.0126582278481 L 70.48101265822785 384.8101265822785 L 70.48101265822785 384.8101265822785 Q 27.544303797468356 329.72151898734177 25.924050632911392 256 Q 26.734177215189874 201.72151898734177 51.037974683544306 157.16455696202533 L 51.037974683544306 157.16455696202533 Z" />
</svg>