<svg xmlns="http://www.w3.org/2000/svg" viewBox="0 0 512 512">
  <path d="M 32 448 L 480 448 L 32 448 L 480 448 L 480 324 L 480 324 L 479 320 L 479 320 L 378 320 L 378 320 L 350 375 L 350 375 L 346 384 L 346 384 L 336 384 L 166 384 L 162 375 L 162 375 L 134 320 L 134 320 L 33 320 L 33 320 L 32 324 L 32 324 L 32 448 L 32 448 Z M 471 288 L 415 64 L 471 288 L 415 64 L 97 64 L 97 64 L 41 288 L 41 288 L 144 288 L 154 288 L 158 297 L 158 297 L 186 352 L 186 352 L 326 352 L 326 352 L 354 297 L 354 297 L 358 288 L 358 288 L 368 288 L 471 288 Z M 0 448 L 0 320 L 0 448 L 0 320 L 72 32 L 72 32 L 440 32 L 440 32 L 512 320 L 512 320 L 512 448 L 512 448 L 512 480 L 512 480 L 480 480 L 0 480 L 0 448 L 0 448 Z" />
</svg>