<svg xmlns="http://www.w3.org/2000/svg" viewBox="0 0 640 288">
    <path d="M 187 0 L 192 0 L 272 0 L 277 0 L 281 3 L 320 29 L 359 3 L 363 0 L 368 0 L 448 0 L 453 0 L 458 3 L 546 69 L 617 34 L 640 22 L 640 48 L 640 92 Q 638 175 583 231 Q 527 286 444 288 Q 379 287 326 249 L 320 244 L 314 249 Q 261 287 196 288 Q 113 286 57 231 Q 2 175 0 92 L 0 48 L 0 24 L 22 33 L 94 62 L 183 3 L 187 0 L 187 0 Z M 197 32 L 105 93 L 98 98 L 90 95 L 32 72 L 32 92 Q 34 162 80 208 Q 126 254 196 256 Q 251 256 294 223 L 310 211 L 320 204 L 330 211 L 346 223 Q 389 256 444 256 Q 514 254 560 208 Q 606 162 608 92 L 608 74 L 551 102 L 542 107 L 535 101 L 443 32 L 373 32 L 329 61 L 320 67 L 311 61 L 267 32 L 197 32 L 197 32 Z"/>
</svg>
