<svg xmlns="http://www.w3.org/2000/svg" viewBox="0 0 512 512">
  <path d="M 420.44444444444446 215.11111111111111 Q 390.22222222222223 227.55555555555554 348.44444444444446 234.66666666666666 L 314.6666666666667 184.88888888888889 L 314.6666666666667 184.88888888888889 L 365.3333333333333 110.22222222222223 L 365.3333333333333 110.22222222222223 Q 397.3333333333333 116.44444444444444 420.44444444444446 126.22222222222223 Q 450.6666666666667 140.44444444444446 460.44444444444446 152 Q 470.22222222222223 163.55555555555554 469.3333333333333 170.66666666666666 Q 470.22222222222223 177.77777777777777 460.44444444444446 189.33333333333334 Q 450.6666666666667 201.77777777777777 420.44444444444446 215.11111111111111 L 420.44444444444446 215.11111111111111 Z M 303.1111111111111 240 Q 280 241.77777777777777 256 241.77777777777777 Q 232 241.77777777777777 208.88888888888889 240 L 222.22222222222223 199.11111111111111 L 222.22222222222223 199.11111111111111 L 289.77777777777777 199.11111111111111 L 289.77777777777777 199.11111111111111 L 303.1111111111111 240 L 303.1111111111111 240 Z M 163.55555555555554 234.66666666666666 Q 121.77777777777777 227.55555555555554 91.55555555555556 215.11111111111111 Q 61.333333333333336 201.77777777777777 51.55555555555556 189.33333333333334 Q 41.77777777777778 177.77777777777777 42.666666666666664 170.66666666666666 Q 41.77777777777778 163.55555555555554 51.55555555555556 152 Q 61.333333333333336 139.55555555555554 91.55555555555556 126.22222222222223 Q 114.66666666666667 116.44444444444444 146.66666666666666 110.22222222222223 L 197.33333333333334 184.88888888888889 L 197.33333333333334 184.88888888888889 L 163.55555555555554 234.66666666666666 L 163.55555555555554 234.66666666666666 Z M 200.88888888888889 102.22222222222223 Q 226.66666666666666 99.55555555555556 256 99.55555555555556 Q 285.3333333333333 99.55555555555556 312 102.22222222222223 L 289.77777777777777 170.66666666666666 L 289.77777777777777 170.66666666666666 L 222.22222222222223 170.66666666666666 L 222.22222222222223 170.66666666666666 L 200.88888888888889 102.22222222222223 L 200.88888888888889 102.22222222222223 Z M 512 170.66666666666666 Q 509.3333333333333 117.33333333333333 437.3333333333333 87.11111111111111 L 437.3333333333333 87.11111111111111 L 437.3333333333333 87.11111111111111 Q 364.44444444444446 57.77777777777778 256 56.888888888888886 Q 147.55555555555554 57.77777777777778 74.66666666666667 87.11111111111111 Q 2.6666666666666665 117.33333333333333 0 170.66666666666666 L 0 341.3333333333333 L 0 341.3333333333333 Q 2.6666666666666665 395.55555555555554 74.66666666666667 424.8888888888889 Q 147.55555555555554 455.1111111111111 256 455.1111111111111 Q 364.44444444444446 455.1111111111111 437.3333333333333 424.8888888888889 Q 509.3333333333333 395.55555555555554 512 341.3333333333333 L 512 170.66666666666666 L 512 170.66666666666666 Z" />
</svg>