<svg viewBox="0 0 512 512">
  <path
    d="M 480 256 Q 479 195 450 144 L 450 144 Q 420 93 368 62 Q 315 32 256 32 Q 197 32 144 62 Q 92 93 62 144 Q 33 195 32 256 Q 33 317 62 368 Q 92 419 144 450 Q 197 480 256 480 Q 315 480 368 450 Q 420 419 450 368 Q 479 317 480 256 L 480 256 Z M 0 256 Q 1 186 34 128 L 34 128 Q 68 70 128 34 Q 189 0 256 0 Q 323 0 384 34 Q 444 70 478 128 Q 511 186 512 256 Q 511 326 478 384 Q 444 442 384 478 Q 323 512 256 512 Q 189 512 128 478 Q 68 442 34 384 Q 1 326 0 256 L 0 256 Z M 238 360 L 238 328 Q 259 325 276 317 Q 284 313 287 310 Q 288 309 288 308 Q 288 308 288 308 Q 288 308 287 306 Q 284 303 276 299 Q 259 291 238 288 L 242 256 Q 267 260 290 270 Q 301 275 310 284 Q 319 293 320 308 Q 319 323 310 332 Q 303 339 294 344 Q 303 349 310 356 Q 319 365 320 380 Q 319 395 310 404 Q 301 413 290 418 Q 267 429 242 432 L 238 400 Q 259 397 276 390 Q 284 386 287 382 Q 288 381 288 381 Q 288 380 288 380 Q 288 380 287 378 Q 284 375 276 371 Q 259 363 238 360 L 238 360 Z M 288 380 L 288 380 L 288 380 Q 288 380 288 380 Q 288 380 288 380 L 288 380 L 288 380 Z M 288 380 L 288 380 Q 288 380 288 380 Q 288 380 288 380 L 288 380 L 288 380 Z M 288 308 L 288 308 Q 288 308 288 308 Q 288 308 288 308 L 288 308 L 288 308 Z M 288 308 Q 288 308 288 308 Q 288 308 288 308 Q 288 308 288 308 Q 288 308 288 308 Q 288 308 288 308 Q 288 308 288 308 Q 288 308 288 308 Q 288 308 288 308 L 288 308 Z M 152 208 Q 154 186 176 184 Q 198 186 200 208 Q 198 230 176 232 Q 154 230 152 208 L 152 208 Z M 336 184 Q 358 186 360 208 Q 358 230 336 232 Q 314 230 312 208 Q 314 186 336 184 L 336 184 Z"
  />
</svg>