<svg xmlns="http://www.w3.org/2000/svg" viewBox="0 0 512 512">
  <path d="M 32 48 L 32 32 L 32 48 L 32 32 L 0 32 L 0 32 L 0 48 L 0 48 L 0 464 L 0 464 L 0 480 L 0 480 L 16 480 L 512 480 L 512 448 L 512 448 L 496 448 L 32 448 L 32 48 L 32 48 Z M 352 64 L 352 96 L 352 64 L 352 96 L 368 96 L 425 96 L 288 233 L 288 233 L 219 165 L 219 165 L 208 153 L 208 153 L 197 165 L 197 165 L 101 261 L 101 261 L 89 272 L 89 272 L 112 295 L 112 295 L 123 283 L 123 283 L 208 199 L 208 199 L 277 267 L 277 267 L 288 279 L 288 279 L 299 267 L 299 267 L 448 119 L 448 119 L 448 176 L 448 176 L 448 192 L 448 192 L 480 192 L 480 192 L 480 176 L 480 176 L 480 80 L 480 80 L 480 64 L 480 64 L 464 64 L 352 64 Z M 352 384 L 368 384 L 352 384 L 480 384 L 480 368 L 480 368 L 480 272 L 480 272 L 480 256 L 480 256 L 448 256 L 448 256 L 448 272 L 448 272 L 448 329 L 448 329 L 387 269 L 387 269 L 376 257 L 376 257 L 353 280 L 353 280 L 365 291 L 365 291 L 425 352 L 425 352 L 368 352 L 352 352 L 352 384 L 352 384 Z" />
</svg>