<svg xmlns="http://www.w3.org/2000/svg" viewBox="0 0 512 512">
  <path d="M 115.39393939393939 51.878787878787875 L 93.0909090909091 59.63636363636363 L 115.39393939393939 51.878787878787875 L 93.0909090909091 59.63636363636363 L 46.54545454545455 78.06060606060606 L 46.54545454545455 78.06060606060606 L 46.54545454545455 201.21212121212122 L 46.54545454545455 201.21212121212122 Q 47.515151515151516 243.87878787878788 75.63636363636364 272.969696969697 Q 104.72727272727273 301.09090909090907 147.3939393939394 302.06060606060606 L 155.15151515151516 302.06060606060606 L 162.9090909090909 302.06060606060606 Q 205.57575757575756 301.09090909090907 234.66666666666666 272.969696969697 Q 262.7878787878788 243.87878787878788 263.75757575757575 201.21212121212122 L 263.75757575757575 78.06060606060606 L 263.75757575757575 78.06060606060606 L 217.21212121212122 60.60606060606061 L 217.21212121212122 60.60606060606061 L 194.9090909090909 51.878787878787875 L 194.9090909090909 51.878787878787875 L 211.3939393939394 8.242424242424242 L 211.3939393939394 8.242424242424242 L 233.6969696969697 16.96969696969697 L 233.6969696969697 16.96969696969697 L 295.75757575757575 40.24242424242424 L 295.75757575757575 40.24242424242424 L 310.3030303030303 45.09090909090909 L 310.3030303030303 45.09090909090909 L 310.3030303030303 61.57575757575758 L 310.3030303030303 61.57575757575758 L 310.3030303030303 201.21212121212122 L 310.3030303030303 201.21212121212122 Q 309.3333333333333 259.3939393939394 272.4848484848485 300.1212121212121 Q 235.63636363636363 340.8484848484849 178.42424242424244 347.6363636363636 Q 182.3030303030303 395.1515151515151 215.27272727272728 425.2121212121212 Q 247.27272727272728 456.24242424242425 294.7878787878788 457.2121212121212 Q 344.24242424242425 456.24242424242425 377.2121212121212 423.27272727272725 Q 410.1818181818182 390.3030303030303 411.1515151515151 340.8484848484849 L 411.1515151515151 267.1515151515151 L 411.1515151515151 267.1515151515151 Q 386.90909090909093 259.3939393939394 372.3636363636364 240 Q 356.8484848484849 219.63636363636363 356.8484848484849 193.45454545454547 Q 357.8181818181818 160.4848484848485 379.1515151515151 138.1818181818182 Q 401.45454545454544 116.84848484848484 434.42424242424244 115.87878787878788 Q 467.3939393939394 116.84848484848484 489.6969696969697 138.1818181818182 Q 511.030303030303 160.4848484848485 512 193.45454545454547 Q 512 219.63636363636363 496.4848484848485 240 Q 481.93939393939394 259.3939393939394 457.6969696969697 267.1515151515151 L 457.6969696969697 340.8484848484849 L 457.6969696969697 340.8484848484849 Q 455.75757575757575 409.6969696969697 410.1818181818182 456.24242424242425 Q 363.6363636363636 501.8181818181818 294.7878787878788 503.75757575757575 Q 227.87878787878788 501.8181818181818 182.3030303030303 458.1818181818182 Q 136.72727272727272 414.54545454545456 131.87878787878788 347.6363636363636 Q 74.66666666666667 340.8484848484849 37.81818181818182 300.1212121212121 Q 0.9696969696969697 259.3939393939394 0 201.21212121212122 L 0 61.57575757575758 L 0 61.57575757575758 L 0 45.09090909090909 L 0 45.09090909090909 L 15.515151515151516 40.24242424242424 L 15.515151515151516 40.24242424242424 L 77.57575757575758 16.96969696969697 L 77.57575757575758 16.96969696969697 L 98.9090909090909 8.242424242424242 L 98.9090909090909 8.242424242424242 L 115.39393939393939 51.878787878787875 L 115.39393939393939 51.878787878787875 Z M 434.42424242424244 162.42424242424244 Q 420.8484848484849 162.42424242424244 412.1212121212121 171.15151515151516 L 412.1212121212121 171.15151515151516 L 412.1212121212121 171.15151515151516 Q 403.3939393939394 179.87878787878788 403.3939393939394 193.45454545454547 Q 403.3939393939394 207.03030303030303 412.1212121212121 215.75757575757575 Q 420.8484848484849 224.4848484848485 434.42424242424244 224.4848484848485 Q 448 224.4848484848485 456.72727272727275 215.75757575757575 Q 465.45454545454544 207.03030303030303 465.45454545454544 193.45454545454547 Q 465.45454545454544 179.87878787878788 456.72727272727275 171.15151515151516 Q 448 162.42424242424244 434.42424242424244 162.42424242424244 L 434.42424242424244 162.42424242424244 Z" />
</svg>