<svg xmlns="http://www.w3.org/2000/svg" viewBox="0 0 512 512">
  <path d="M 281.23944 50.478874 L 281.23944 28.84507 L 281.23944 50.478874 L 281.23944 28.84507 L 237.97183 28.84507 L 237.97183 28.84507 L 237.97183 50.478874 L 237.97183 50.478874 L 237.97183 53.183098 L 237.97183 53.183098 Q 231.66197 54.985916 225.35211 57.69014 Q 201.9155 66.70422 195.60564 93.746475 Q 192.90141 109.07042 199.21127 122.59155 Q 205.52113 135.21127 215.43661 141.52113 Q 234.3662 151.43661 251.49295 155.94366 L 253.29578 156.84508 L 253.29578 156.84508 Q 272.22534 162.25352 278.53522 166.76056 Q 281.23944 168.56339 281.23944 168.56339 L 281.23944 168.56339 L 281.23944 168.56339 Q 281.23944 168.56339 281.23944 169.46478 Q 281.23944 169.46478 281.23944 169.46478 Q 281.23944 170.3662 281.23944 173.07042 Q 281.23944 175.77464 275.831 178.47887 Q 268.61972 181.1831 252.39436 179.38028 Q 243.38028 177.57747 230.76056 173.07042 Q 229.85916 173.07042 228.95775 173.07042 L 228.95775 173.07042 L 228.95775 173.07042 Q 227.15492 172.16902 225.35211 171.26761 Q 224.4507 171.26761 223.5493 170.3662 L 202.8169 164.05634 L 202.8169 164.05634 L 189.29578 204.61972 L 189.29578 204.61972 L 209.12675 211.83098 L 209.12675 211.83098 Q 210.92958 212.73239 213.6338 212.73239 L 213.6338 212.73239 L 213.6338 212.73239 L 213.6338 212.73239 L 213.6338 212.73239 Q 213.6338 212.73239 213.6338 213.6338 Q 224.4507 217.23944 237.97183 220.84508 L 237.97183 223.5493 L 237.97183 223.5493 L 237.97183 245.1831 L 237.97183 245.1831 L 281.23944 245.1831 L 281.23944 245.1831 L 281.23944 223.5493 L 281.23944 223.5493 L 281.23944 221.74648 L 281.23944 221.74648 Q 287.5493 219.94366 292.95773 218.14084 Q 317.29578 208.22536 323.60562 180.2817 Q 326.30984 164.95775 320.9014 151.43661 Q 314.59155 138.8169 303.77466 131.60564 Q 284.84506 119.88732 266.8169 115.38028 L 265.9155 115.38028 L 265.9155 115.38028 Q 246.98592 109.97183 239.77464 105.46479 Q 237.97183 103.66197 237.97183 103.66197 Q 237.97183 103.66197 237.97183 100.95775 L 237.97183 100.95775 L 237.97183 100.95775 Q 237.97183 100.95775 237.97183 100.95775 Q 237.97183 100.056335 243.38028 96.45071 Q 251.49295 92.84507 267.71832 94.64789 Q 270.42255 95.54929 276.7324 96.45071 Q 283.94366 97.35211 286.6479 98.253525 L 307.38028 103.66197 L 307.38028 103.66197 L 318.19717 62.19718 L 318.19717 62.19718 L 297.46478 56.78873 L 297.46478 56.78873 Q 291.15494 54.985916 281.23944 53.183098 Q 281.23944 53.183098 281.23944 53.183098 L 281.23944 50.478874 L 281.23944 50.478874 Z M 237.97183 103.66197 Q 237.97183 103.66197 237.97183 103.66197 Q 237.97183 103.66197 237.97183 103.66197 Q 237.97183 103.66197 237.97183 103.66197 L 237.97183 103.66197 Z M 126.19718 316.39438 L 62.19718 367.77466 L 126.19718 316.39438 L 62.19718 367.77466 L 0 367.77466 L 0 367.77466 L 0 483.15494 L 0 483.15494 L 28.84507 483.15494 L 356.95773 483.15494 L 366.87323 476.84506 L 366.87323 476.84506 L 482.2535 397.52112 L 482.2535 397.52112 L 512 376.78873 L 512 376.78873 L 470.53522 317.29578 L 470.53522 317.29578 L 440.78873 338.02817 L 440.78873 338.02817 L 356.05634 396.61972 L 356.05634 396.61972 L 230.76056 396.61972 L 230.76056 396.61972 L 230.76056 367.77466 L 230.76056 367.77466 L 259.60562 367.77466 L 346.14084 367.77466 L 346.14084 310.0845 L 346.14084 310.0845 L 317.29578 310.0845 L 134.30986 310.0845 L 126.19718 316.39438 L 126.19718 316.39438 Z" />
</svg>