<svg xmlns="http://www.w3.org/2000/svg" viewBox="0 0 512 512">
  <path d="M 108.12997 378.91696 Q 66.54152 329.01083 63.76895 259.69675 L 108.12997 278.1805 L 108.12997 278.1805 L 108.12997 378.91696 L 108.12997 378.91696 Z M 23.104692 212.56317 L 11.090253 207.01805 L 23.104692 212.56317 L 11.090253 207.01805 L 0 234.74368 L 0 234.74368 L 13.862816 240.2888 L 13.862816 240.2888 L 20.33213 242.13718 L 20.33213 242.13718 Q 19.407942 249.53069 19.407942 256 Q 20.33213 321.61734 51.754513 375.2202 Q 83.176895 428.8231 136.77979 460.24548 Q 190.38268 491.66788 256 492.59207 Q 322.5415 491.66788 375.2202 460.24548 Q 428.8231 428.8231 460.24548 375.2202 Q 491.66788 321.61734 492.59207 256 Q 492.59207 249.53069 492.59207 242.13718 L 498.13718 240.2888 L 498.13718 240.2888 L 512 234.74368 L 512 234.74368 L 500.90976 207.01805 L 500.90976 207.01805 L 488.8953 212.56317 L 488.8953 212.56317 Q 471.33575 128.4621 407.56677 74.85921 Q 344.72202 21.256317 256 19.407942 Q 167.27798 21.256317 104.43321 74.85921 Q 40.66426 128.4621 23.104692 212.56317 L 23.104692 212.56317 Z M 65.617325 229.19856 Q 76.70758 157.11191 129.38628 110.90253 L 129.38628 110.90253 L 129.38628 110.90253 Q 182.06499 65.617325 256 63.76895 Q 329.93503 65.617325 382.6137 110.90253 Q 435.29242 157.11191 446.38266 229.19856 L 397.40073 248.60649 L 397.40073 248.60649 L 381.68954 248.60649 L 114.59928 248.60649 L 65.617325 229.19856 L 65.617325 229.19856 Z M 448.23105 260.62094 Q 445.4585 329.01083 403.87003 378.91696 L 403.87003 278.1805 L 403.87003 278.1805 L 448.23105 259.69675 L 448.23105 260.62094 Z M 146.94585 210.7148 Q 150.6426 206.09386 165.4296 198.70036 L 165.4296 198.70036 L 165.4296 198.70036 Q 180.21661 190.38268 204.24548 189.45848 L 226.426 189.45848 L 226.426 189.45848 L 226.426 145.09747 L 226.426 145.09747 L 204.24548 145.09747 L 204.24548 145.09747 Q 169.12636 146.02167 146.02167 158.0361 Q 122.91697 170.97473 113.67509 182.98917 L 98.888084 199.62454 L 98.888084 199.62454 L 133.08304 228.27437 L 133.08304 228.27437 L 147.87004 210.7148 L 146.94585 210.7148 Z M 359.50903 344.72202 L 359.50903 374.29602 L 359.50903 344.72202 L 359.50903 374.29602 L 152.49098 374.29602 L 152.49098 374.29602 L 152.49098 344.72202 L 152.49098 344.72202 L 359.50903 344.72202 L 359.50903 344.72202 Z M 359.50903 292.9675 L 359.50903 315.148 L 359.50903 292.9675 L 359.50903 315.148 L 152.49098 315.148 L 152.49098 315.148 L 152.49098 292.9675 L 152.49098 292.9675 L 359.50903 292.9675 L 359.50903 292.9675 Z M 177.44405 426.05054 L 158.96028 403.87003 L 177.44405 426.05054 L 158.96028 403.87003 L 353.0397 403.87003 L 353.0397 403.87003 L 334.55597 426.05054 L 334.55597 426.05054 L 256 426.05054 L 177.44405 426.05054 Z M 307.75452 189.45848 Q 332.70758 190.38268 348.41876 196.85199 L 348.41876 196.85199 L 348.41876 196.85199 Q 363.20578 204.24548 365.97833 207.94225 L 381.68954 223.65343 L 381.68954 223.65343 L 413.1119 192.23105 L 413.1119 192.23105 L 397.40073 176.51985 L 397.40073 176.51985 Q 388.15884 166.35379 365.05414 156.18773 Q 341.94946 146.02167 307.75452 145.09747 L 285.574 145.09747 L 285.574 145.09747 L 285.574 189.45848 L 285.574 189.45848 L 307.75452 189.45848 L 307.75452 189.45848 Z" />
</svg>