<svg xmlns="http://www.w3.org/2000/svg" viewBox="0 0 512 512">
  <path d="M 64 16 L 64 0 L 64 16 L 64 0 L 32 0 L 32 0 L 32 16 L 32 16 L 32 64 L 32 64 L 32 367 L 32 367 L 32 400 L 32 400 L 32 496 L 32 496 L 32 512 L 32 512 L 64 512 L 64 512 L 64 496 L 64 496 L 64 392 L 64 392 L 160 368 L 160 368 Q 224 353 283 381 Q 352 415 425 389 L 480 368 L 480 368 L 480 52 L 480 52 L 480 16 L 480 16 L 448 32 L 448 32 L 426 43 L 426 43 Q 390 61 352 61 Q 314 61 279 43 Q 224 17 165 31 L 64 56 L 64 56 L 64 16 L 64 16 Z M 64 315 L 171 292 L 64 315 L 171 292 Q 223 281 272 300 L 298 310 L 298 310 Q 368 336 439 313 L 448 310 L 448 310 L 448 346 L 448 346 L 413 359 L 413 359 Q 354 380 297 353 Q 228 319 153 337 L 64 359 L 64 359 L 64 315 L 64 315 Z M 64 282 L 64 243 L 64 282 L 64 243 L 166 221 L 166 221 Q 222 209 275 232 L 288 238 L 288 238 Q 367 272 448 242 L 448 277 L 448 277 L 429 283 L 429 283 Q 368 302 309 280 L 284 270 L 284 270 Q 225 248 165 261 L 64 282 L 64 282 Z M 64 210 L 64 89 L 64 210 L 64 89 L 173 62 L 173 62 Q 182 59 192 59 L 192 185 L 192 185 Q 176 186 160 189 L 64 210 L 64 210 Z M 224 186 L 224 138 L 224 186 L 224 138 Q 250 141 275 152 L 288 158 L 288 158 Q 367 192 448 162 L 448 208 L 448 208 L 437 212 L 437 212 Q 368 238 301 209 L 288 203 L 288 203 Q 257 189 224 186 L 224 186 Z M 224 106 L 224 59 L 224 106 L 224 59 Q 245 62 264 72 Q 306 93 352 93 Q 398 93 440 72 L 448 68 L 448 68 L 448 128 L 448 128 L 437 132 L 437 132 Q 368 158 301 129 L 288 123 L 288 123 Q 257 109 224 106 L 224 106 Z M 120 120 Q 119 105 104 104 Q 89 105 88 120 Q 89 135 104 136 Q 119 135 120 120 L 120 120 Z M 152 120 Q 167 119 168 104 Q 167 89 152 88 Q 137 89 136 104 Q 137 119 152 120 L 152 120 Z M 120 168 Q 119 153 104 152 Q 89 153 88 168 Q 89 183 104 184 Q 119 183 120 168 L 120 168 Z M 152 168 Q 167 167 168 152 Q 167 137 152 136 Q 137 137 136 152 Q 137 167 152 168 L 152 168 Z" />
</svg>