<svg xmlns="http://www.w3.org/2000/svg" viewBox="0 0 512 512">
  <path d="M 42.666668 99.55556 L 42.666668 412.44446 L 42.666668 99.55556 L 42.666668 412.44446 L 469.33334 412.44446 L 469.33334 412.44446 L 469.33334 99.55556 L 469.33334 99.55556 L 42.666668 99.55556 L 42.666668 99.55556 Z M 0 56.88889 L 42.666668 56.88889 L 0 56.88889 L 512 56.88889 L 512 99.55556 L 512 99.55556 L 512 412.44446 L 512 412.44446 L 512 455.1111 L 512 455.1111 L 469.33334 455.1111 L 0 455.1111 L 0 412.44446 L 0 412.44446 L 0 99.55556 L 0 99.55556 L 0 56.88889 L 0 56.88889 Z M 291.55554 170.66667 L 341.33334 170.66667 L 291.55554 170.66667 L 341.33334 170.66667 Q 377.77777 171.55556 401.77777 195.55556 Q 425.77777 219.55556 426.66666 256 Q 425.77777 292.44446 401.77777 316.44446 Q 377.77777 340.44446 341.33334 341.33334 L 291.55554 341.33334 L 270.22223 341.33334 L 270.22223 320 L 270.22223 320 L 270.22223 192 L 270.22223 192 L 270.22223 170.66667 L 270.22223 170.66667 L 291.55554 170.66667 L 291.55554 170.66667 Z M 312.8889 298.66666 L 341.33334 298.66666 L 312.8889 298.66666 L 341.33334 298.66666 Q 359.1111 297.77777 371.55554 286.22223 Q 383.1111 273.77777 384 256 Q 383.1111 238.22223 371.55554 225.77777 Q 359.1111 214.22223 341.33334 213.33333 L 312.8889 213.33333 L 312.8889 213.33333 L 312.8889 298.66666 L 312.8889 298.66666 Z M 154.66667 284.44446 L 186.66667 284.44446 L 154.66667 284.44446 L 186.66667 284.44446 L 170.66667 246.22223 L 170.66667 246.22223 L 154.66667 284.44446 L 154.66667 284.44446 Z M 139.55556 320 L 130.66667 341.33334 L 139.55556 320 L 130.66667 341.33334 L 83.55556 341.33334 L 83.55556 341.33334 L 151.11111 184 L 151.11111 184 L 156.44444 170.66667 L 156.44444 170.66667 L 184.88889 170.66667 L 184.88889 170.66667 L 190.22223 184 L 190.22223 184 L 257.77777 341.33334 L 257.77777 341.33334 L 211.55556 341.33334 L 211.55556 341.33334 L 201.77777 320 L 201.77777 320 L 139.55556 320 L 139.55556 320 Z" />
</svg>