<svg xmlns="http://www.w3.org/2000/svg" viewBox="0 0 512 512">
  <path d="M 185 20 L 168 3 L 185 20 L 168 3 L 134 37 L 134 37 L 151 54 L 151 54 L 190 93 L 190 93 L 0 93 L 0 93 L 0 509 L 0 509 L 512 509 L 512 509 L 512 93 L 512 93 L 322 93 L 322 93 L 361 54 L 361 54 L 378 37 L 378 37 L 344 3 L 344 3 L 327 20 L 327 20 L 256 91 L 256 91 L 185 20 L 185 20 Z M 424 229 Q 426 207 448 205 Q 470 207 472 229 Q 470 251 448 253 Q 426 251 424 229 L 424 229 Z M 448 285 Q 470 287 472 309 Q 470 331 448 333 Q 426 331 424 309 Q 426 287 448 285 L 448 285 Z M 64 157 L 384 157 L 64 157 L 384 157 L 384 445 L 384 445 L 64 445 L 64 445 L 64 157 L 64 157 Z" />
</svg>