<svg xmlns="http://www.w3.org/2000/svg" viewBox="0 0 512 512">
  <path d="M 0 128 L 0 96 L 0 128 L 0 96 L 128 72 L 128 72 L 128 56 L 128 56 L 128 32 L 128 32 L 176 32 L 176 32 L 176 56 L 176 56 L 176 63 L 176 63 L 176 101 L 176 101 L 176 139 L 176 139 L 176 176 L 176 176 L 176 224 L 176 224 L 208 224 L 208 224 L 208 176 L 208 176 L 208 138 L 208 138 L 208 96 L 208 96 L 208 57 L 208 57 L 208 40 L 208 40 L 208 16 L 208 16 L 256 16 L 256 16 L 256 40 L 256 40 L 256 48 L 256 48 L 256 88 L 256 88 L 256 136 L 256 136 L 256 176 L 256 176 L 256 224 L 256 224 L 288 224 L 512 224 L 509 272 L 509 272 L 508 285 L 508 285 Q 504 348 471 397 Q 437 446 384 473 L 384 512 L 384 512 L 336 512 L 128 512 L 128 473 L 128 473 Q 75 446 41 397 Q 8 348 4 285 L 3 272 L 3 272 L 0 224 L 0 224 L 48 224 L 128 224 L 128 176 L 128 176 L 0 176 L 0 176 L 0 144 L 0 144 L 128 140 L 128 140 L 128 108 L 128 108 L 0 128 L 0 128 Z M 288 83 L 288 42 L 288 83 L 288 42 L 512 0 L 512 0 L 512 48 L 512 48 L 288 83 L 288 83 Z M 288 135 L 512 128 L 288 135 L 512 128 L 512 176 L 512 176 L 288 176 L 288 176 L 288 135 L 288 135 Z M 176 464 L 336 464 L 176 464 L 336 464 L 336 443 L 336 443 L 363 430 L 363 430 Q 405 409 431 370 Q 457 332 461 282 L 461 272 L 461 272 L 51 272 L 51 272 L 52 282 L 52 282 Q 55 332 81 370 Q 107 409 149 430 L 176 443 L 176 443 L 176 464 L 176 464 Z" />
</svg>