<svg xmlns="http://www.w3.org/2000/svg" viewBox="0 0 512 512">
  <path d="M 198.76604 28.838821 L 312.34662 28.838821 L 198.76604 28.838821 L 340.74176 28.838821 L 340.74176 57.23397 L 340.74176 57.23397 L 383.3345 57.23397 L 425.92722 57.23397 L 425.92722 85.62912 L 425.92722 85.62912 L 415.27902 99.82669 L 415.27902 99.82669 L 404.63086 114.02426 L 404.63086 114.02426 L 106.481804 114.02426 L 106.481804 114.02426 L 95.833626 99.82669 L 95.833626 99.82669 L 85.18544 85.62912 L 85.18544 85.62912 L 85.18544 57.23397 L 85.18544 57.23397 L 127.77816 57.23397 L 170.37088 57.23397 L 170.37088 28.838821 L 170.37088 28.838821 L 198.76604 28.838821 L 198.76604 28.838821 Z M 56.790295 142.41942 L 454.32236 142.41942 L 56.790295 142.41942 L 454.32236 142.41942 L 454.32236 298.5927 L 454.32236 298.5927 L 401.08145 373.12997 L 401.08145 373.12997 Q 388.65857 382.00348 377.12305 388.2149 Q 358.48874 396.20105 340.74176 397.08838 Q 322.9948 396.20105 304.36047 388.2149 Q 290.1629 381.11612 273.30328 367.80588 L 273.30328 367.80588 L 273.30328 367.80588 L 273.30328 367.80588 L 273.30328 367.80588 L 255.55632 355.38303 L 255.55632 355.38303 L 238.6967 366.91855 L 238.6967 366.91855 L 237.80936 367.80588 L 237.80936 367.80588 L 237.80936 367.80588 L 237.80936 367.80588 Q 237.80936 367.80588 237.80936 367.80588 Q 220.94974 381.11612 206.75217 388.2149 Q 188.11784 396.20105 170.37088 397.08838 Q 152.62392 396.20105 133.98961 388.2149 Q 122.45407 382.00348 110.0312 373.12997 L 56.790295 298.5927 L 56.790295 298.5927 L 56.790295 142.41942 L 56.790295 142.41942 Z M 113.58059 199.2097 L 113.58059 284.39514 L 113.58059 199.2097 L 113.58059 284.39514 L 397.53207 284.39514 L 397.53207 284.39514 L 397.53207 199.2097 L 397.53207 199.2097 L 113.58059 199.2097 L 113.58059 199.2097 Z M 241.35875 466.30157 Q 213.85095 480.49915 170.37088 483.16116 Q 126.890816 480.49915 99.38302 466.30157 Q 91.39688 462.75217 85.18544 459.20276 Q 78.97401 462.75217 70.98787 466.30157 Q 43.48007 480.49915 0 483.16116 L 0 426.37088 L 0 426.37088 Q 26.620451 425.48352 47.916813 414.83536 Q 66.551125 405.96188 82.5234 393.539 Q 83.41074 392.65164 83.41074 392.65164 Q 84.298096 391.7643 85.18544 391.7643 Q 86.07279 391.7643 86.96014 392.65164 Q 87.84749 392.65164 87.84749 393.539 Q 103.819756 405.96188 122.45407 414.83536 Q 143.75043 425.48352 170.37088 426.37088 Q 196.99133 425.48352 218.28769 414.83536 Q 236.92201 405.96188 252.89429 393.539 Q 253.78163 392.65164 253.78163 392.65164 Q 253.78163 392.65164 254.66898 392.65164 Q 255.55632 391.7643 255.55632 391.7643 Q 256.44366 391.7643 257.33102 392.65164 Q 258.21838 393.539 259.1057 393.539 Q 275.078 405.96188 292.82495 414.83536 Q 314.1213 425.48352 340.74176 426.37088 Q 367.3622 425.48352 388.65857 414.83536 Q 407.2929 405.96188 424.15253 393.539 Q 424.15253 392.65164 424.15253 392.65164 Q 425.03986 391.7643 426.81454 391.7643 Q 427.7019 391.7643 428.58926 392.65164 Q 428.58926 393.539 429.4766 393.539 Q 445.44888 405.96188 464.0832 414.83536 Q 485.37955 425.48352 512 426.37088 L 512 483.16116 L 512 483.16116 Q 467.63257 480.49915 440.1248 466.30157 Q 432.13864 462.75217 426.81454 459.20276 Q 420.60312 462.75217 412.61697 466.30157 Q 385.1092 480.49915 341.62912 483.16116 Q 297.2617 480.49915 269.7539 466.30157 Q 261.76776 462.75217 256.44366 459.20276 Q 250.23224 462.75217 242.2461 466.30157 L 241.35875 466.30157 Z" />
</svg>