<svg xmlns="http://www.w3.org/2000/svg" viewBox="0 0 512 512">
  <path d="M 217.6 51.2 L 230.4 51.2 L 217.6 51.2 L 307.2 51.2 L 307.2 64 L 307.2 64 L 307.2 76.8 L 307.2 76.8 L 358.4 76.8 L 371.2 76.8 L 371.2 89.6 L 371.2 89.6 L 371.2 128 L 371.2 128 L 371.2 128 L 371.2 128 L 422.4 128 L 435.2 128 L 435.2 140.8 L 435.2 140.8 L 435.2 307.2 L 435.2 307.2 L 409.6 307.2 L 409.6 307.2 L 409.6 153.6 L 409.6 153.6 L 371.2 153.6 L 371.2 153.6 L 371.2 243.2 L 371.2 243.2 L 371.2 256 L 371.2 256 L 345.6 256 L 345.6 256 L 345.6 243.2 L 345.6 243.2 L 345.6 153.6 L 345.6 153.6 L 345.6 153.6 L 345.6 153.6 L 345.6 140.8 L 345.6 140.8 L 345.6 102.4 L 345.6 102.4 L 307.2 102.4 L 307.2 102.4 L 307.2 115.2 L 307.2 115.2 L 307.2 243.2 L 307.2 243.2 L 307.2 256 L 307.2 256 L 281.6 256 L 281.6 256 L 281.6 243.2 L 281.6 243.2 L 281.6 115.2 L 281.6 115.2 L 281.6 102.4 L 281.6 102.4 L 281.6 102.4 L 281.6 102.4 L 281.6 89.6 L 281.6 89.6 L 281.6 76.8 L 281.6 76.8 L 243.2 76.8 L 243.2 76.8 L 243.2 89.6 L 243.2 89.6 L 243.2 243.2 L 243.2 243.2 L 243.2 256 L 243.2 256 L 217.6 256 L 217.6 256 L 217.6 243.2 L 217.6 243.2 L 217.6 102.4 L 217.6 102.4 L 179.2 102.4 L 179.2 102.4 L 179.2 294.4 L 179.2 294.4 L 179.2 300 L 179.2 300 L 175.2 303.2 L 175.2 303.2 L 166.4 312.8 L 166.4 312.8 L 156.8 321.6 L 156.8 321.6 L 148 312.8 L 148 312.8 L 109.6 274.4 L 109.6 274.4 L 96 260.8 L 96 260.8 L 76.8 280 L 76.8 280 L 76.8 296 L 76.8 296 L 82.4 301.6 L 82.4 301.6 L 165.6 384.8 L 165.6 384.8 Q 190.4 408.8 221.6 422.4 Q 252.8 435.2 288 435.2 L 294.4 435.2 L 294.4 435.2 L 294.4 435.2 L 294.4 435.2 Q 330.4 434.4 358.4 416 L 358.4 435.2 L 358.4 435.2 L 375.2 435.2 L 375.2 435.2 Q 340 460 294.4 460.8 L 294.4 460.8 L 294.4 460.8 L 288 460.8 L 288 460.8 Q 248 460.8 212 445.6 Q 175.2 430.4 147.2 402.4 L 64 320 L 64 320 L 55.2 310.4 L 55.2 310.4 L 51.2 306.4 L 51.2 306.4 L 51.2 301.6 L 51.2 301.6 L 51.2 274.4 L 51.2 274.4 L 51.2 269.6 L 51.2 269.6 L 55.2 265.6 L 55.2 265.6 L 87.2 233.6 L 87.2 233.6 L 96 224.8 L 96 224.8 L 104.8 233.6 L 104.8 233.6 L 128 256 L 128 256 L 153.6 282.4 L 153.6 282.4 L 153.6 89.6 L 153.6 89.6 L 153.6 76.8 L 153.6 76.8 L 166.4 76.8 L 217.6 76.8 L 217.6 64 L 217.6 64 L 217.6 51.2 L 217.6 51.2 Z M 76.8 115.2 L 76.8 153.6 L 76.8 115.2 L 76.8 153.6 L 115.2 153.6 L 128 153.6 L 128 179.2 L 128 179.2 L 115.2 179.2 L 76.8 179.2 L 76.8 204.8 L 76.8 204.8 L 76.8 217.6 L 76.8 217.6 L 51.2 217.6 L 51.2 217.6 L 51.2 204.8 L 51.2 204.8 L 51.2 179.2 L 51.2 179.2 L 12.8 179.2 L 0 179.2 L 0 153.6 L 0 153.6 L 12.8 153.6 L 51.2 153.6 L 51.2 115.2 L 51.2 115.2 L 51.2 102.4 L 51.2 102.4 L 76.8 102.4 L 76.8 102.4 L 76.8 115.2 L 76.8 115.2 Z M 268.8 294.4 L 268.8 320 L 268.8 294.4 L 268.8 320 L 294.4 320 L 307.2 320 L 307.2 345.6 L 307.2 345.6 L 294.4 345.6 L 268.8 345.6 L 268.8 371.2 L 268.8 371.2 L 268.8 384 L 268.8 384 L 243.2 384 L 243.2 384 L 243.2 371.2 L 243.2 371.2 L 243.2 345.6 L 243.2 345.6 L 217.6 345.6 L 204.8 345.6 L 204.8 320 L 204.8 320 L 217.6 320 L 243.2 320 L 243.2 294.4 L 243.2 294.4 L 243.2 281.6 L 243.2 281.6 L 268.8 281.6 L 268.8 281.6 L 268.8 294.4 L 268.8 294.4 Z M 460.8 345.6 L 460.8 384 L 460.8 345.6 L 460.8 384 L 499.2 384 L 512 384 L 512 409.6 L 512 409.6 L 499.2 409.6 L 460.8 409.6 L 460.8 448 L 460.8 448 L 460.8 460.8 L 460.8 460.8 L 435.2 460.8 L 435.2 460.8 L 435.2 448 L 435.2 448 L 435.2 409.6 L 435.2 409.6 L 396.8 409.6 L 384 409.6 L 384 384 L 384 384 L 396.8 384 L 435.2 384 L 435.2 345.6 L 435.2 345.6 L 435.2 332.8 L 435.2 332.8 L 460.8 332.8 L 460.8 332.8 L 460.8 345.6 L 460.8 345.6 Z" />
</svg>