<svg viewBox="0 0 576 448">
  <path
    d="M 128 96 Q 129 55 156 28 L 156 28 Q 183 1 224 0 Q 265 1 292 28 Q 319 55 320 96 L 320 104 L 320 128 L 272 128 L 272 104 L 272 96 Q 271 76 258 62 Q 244 49 224 48 Q 204 49 190 62 Q 177 76 176 96 L 176 192 L 384 192 L 384 96 Q 385 55 412 28 Q 439 1 480 0 Q 521 1 548 28 Q 575 55 576 96 L 576 104 L 576 128 L 528 128 L 528 104 L 528 96 Q 527 76 514 62 Q 500 49 480 48 Q 460 49 446 62 Q 433 76 432 96 L 432 216 L 432 337 Q 428 339 425 341 Q 404 350 384 351 L 384 240 L 176 240 L 176 349 Q 163 346 151 341 Q 140 335 128 327 L 128 216 L 128 96 L 128 96 Z M 79 425 Q 64 433 44 441 L 44 441 Q 24 448 0 448 L 0 400 Q 31 398 55 383 Q 77 370 95 353 Q 95 352 96 352 L 96 352 L 96 352 Q 115 370 137 383 Q 161 398 192 400 Q 222 398 247 383 Q 269 370 287 353 Q 287 353 287 352 L 288 352 L 289 352 Q 289 353 289 353 Q 307 370 329 383 Q 353 398 384 400 Q 414 398 439 383 Q 461 370 479 353 Q 479 353 479 352 L 480 352 L 481 352 Q 481 353 481 353 Q 499 370 521 383 Q 545 398 576 400 L 576 448 Q 552 448 532 441 Q 512 433 497 425 Q 487 419 480 414 Q 473 419 463 425 Q 448 434 428 441 Q 408 448 384 448 Q 360 448 340 441 Q 320 433 305 425 Q 295 419 288 414 Q 281 419 271 425 Q 256 434 236 441 Q 216 448 192 448 Q 168 448 148 441 Q 128 433 113 425 Q 103 419 96 414 Q 89 419 79 425 L 79 425 Z"
  />
</svg>