<svg viewBox="0 0 576 512">
  <path
    d="M 0 352 Q 16 345 30 338 Q 95 307 129 281 Q 164 256 182 234 Q 199 212 211 190 Q 224 166 245 139 Q 267 112 314 78 Q 360 44 448 0 L 556 135 L 576 160 Q 561 168 547 175 Q 472 215 431 246 Q 390 277 371 302 Q 351 327 339 350 Q 339 350 339 350 Q 339 350 339 350 Q 326 373 307 397 Q 288 421 247 449 Q 206 477 128 512 L 21 378 L 0 352 L 0 352 Z M 83 405 Q 167 360 211 315 L 211 315 Q 255 269 284 227 L 284 227 Q 284 227 284 227 L 287 223 Q 318 177 362 137 Q 402 103 470 79 L 439 40 Q 385 69 351 91 Q 316 114 296 133 Q 274 153 262 170 Q 249 187 240 204 L 238 206 Q 238 207 238 207 Q 228 225 214 244 Q 200 264 177 285 Q 138 321 50 364 L 83 405 L 83 405 Z M 103 430 L 137 473 Q 185 450 215 431 Q 245 412 262 397 Q 280 381 291 366 Q 302 350 312 333 L 312 332 Q 323 313 338 292 Q 354 270 381 245 Q 426 204 527 150 L 492 106 Q 420 129 383 162 Q 344 197 313 242 L 310 245 Q 310 246 310 246 Q 280 289 234 336 Q 189 383 103 430 L 103 430 Z"
  />
</svg>