<svg xmlns="http://www.w3.org/2000/svg" viewBox="0 0 512 512">
  <path d="M 36.57143 0 L 54.857143 0 L 36.57143 0 L 219.42857 0 Q 291.42856 1.1428572 348.57144 35.42857 Q 406.85715 68.57143 440 126.85714 Q 474.2857 184 475.42856 256 Q 474.2857 328 440 385.14285 Q 406.85715 443.42856 348.57144 476.57144 Q 291.42856 510.85715 219.42857 512 L 54.857143 512 L 36.57143 512 L 36.57143 493.7143 L 36.57143 493.7143 L 36.57143 18.285715 L 36.57143 18.285715 L 36.57143 0 L 36.57143 0 Z M 73.14286 36.57143 L 73.14286 475.42856 L 73.14286 36.57143 L 73.14286 475.42856 L 219.42857 475.42856 L 219.42857 475.42856 Q 313.14285 473.14285 374.85715 411.42856 Q 436.57144 349.7143 438.85715 256 Q 436.57144 162.28572 374.85715 100.57143 Q 313.14285 38.857143 219.42857 36.57143 L 73.14286 36.57143 L 73.14286 36.57143 Z" />
</svg>