<svg xmlns="http://www.w3.org/2000/svg" viewBox="0 0 512 512">
  <path d="M 0 54.857142857142854 L 512 54.857142857142854 L 0 54.857142857142854 L 512 54.857142857142854 L 512 91.42857142857143 L 512 91.42857142857143 L 0 91.42857142857143 L 0 91.42857142857143 L 0 54.857142857142854 L 0 54.857142857142854 Z M 0 237.71428571428572 L 512 237.71428571428572 L 0 237.71428571428572 L 512 237.71428571428572 L 512 274.2857142857143 L 512 274.2857142857143 L 0 274.2857142857143 L 0 274.2857142857143 L 0 237.71428571428572 L 0 237.71428571428572 Z M 512 420.57142857142856 L 512 457.14285714285717 L 512 420.57142857142856 L 512 457.14285714285717 L 0 457.14285714285717 L 0 457.14285714285717 L 0 420.57142857142856 L 0 420.57142857142856 L 512 420.57142857142856 L 512 420.57142857142856 Z" />
</svg>