<svg xmlns="http://www.w3.org/2000/svg" viewBox="0 0 512 512">
  <path d="M 227.06087 120.653915 Q 251.10262 119.76348 264.45914 99.28348 Q 275.14435 77.91304 264.45914 56.54261 Q 251.10262 36.062607 227.06087 35.172173 Q 203.01913 36.062607 189.66261 56.54261 Q 178.97739 77.91304 189.66261 99.28348 Q 203.01913 119.76348 227.06087 120.653915 L 227.06087 120.653915 Z M 35.61739 200.79305 L 16.027826 192.77913 L 35.61739 200.79305 L 16.027826 192.77913 L 0 231.95827 L 0 231.95827 L 19.589565 239.97217 L 19.589565 239.97217 L 329.46088 369.0852 L 329.46088 369.0852 L 312.5426 391.3461 L 312.5426 391.3461 L 255.55478 391.3461 L 255.55478 391.3461 L 227.06087 476.82782 L 227.06087 476.82782 L 512 476.82782 L 512 476.82782 L 512 434.08694 L 512 434.08694 L 398.02435 277.37042 L 398.02435 277.37042 L 355.28348 334.35825 L 355.28348 334.35825 L 274.2539 299.63132 L 274.2539 299.63132 L 225.28 181.20348 L 225.28 181.20348 L 220.82782 169.62782 L 220.82782 169.62782 L 209.25217 165.17566 L 209.25217 165.17566 L 138.0174 136.68173 L 138.0174 136.68173 L 118.427826 129.55826 L 118.427826 129.55826 L 105.071304 145.58609 L 105.071304 145.58609 L 55.206955 208.80696 L 55.206955 208.80696 L 35.61739 200.79305 L 35.61739 200.79305 Z M 50.754784 280.93216 L 42.74087 312.98782 L 50.754784 280.93216 L 42.74087 312.98782 L 0 476.82782 L 0 476.82782 L 58.768696 476.82782 L 58.768696 476.82782 L 89.933914 359.29044 L 89.933914 359.29044 L 141.57913 381.5513 L 141.57913 381.5513 L 141.57913 448.33392 L 141.57913 448.33392 L 141.57913 476.82782 L 141.57913 476.82782 L 198.56696 476.82782 L 198.56696 476.82782 L 198.56696 448.33392 L 198.56696 448.33392 L 198.56696 362.85217 L 198.56696 362.85217 L 198.56696 344.15305 L 198.56696 344.15305 L 181.6487 337.02957 L 181.6487 337.02957 L 81.92 294.2887 L 81.92 294.2887 L 50.754784 280.93216 L 50.754784 280.93216 Z" />
</svg>