<svg xmlns="http://www.w3.org/2000/svg" viewBox="0 0 512 512">
  <path d="M 36.57143 36.57143 L 36.57143 475.42856 L 36.57143 36.57143 L 36.57143 475.42856 L 475.42856 475.42856 L 475.42856 475.42856 L 475.42856 36.57143 L 475.42856 36.57143 L 36.57143 36.57143 L 36.57143 36.57143 Z M 0 0 L 36.57143 0 L 0 0 L 512 0 L 512 36.57143 L 512 36.57143 L 512 475.42856 L 512 475.42856 L 512 512 L 512 512 L 475.42856 512 L 0 512 L 0 475.42856 L 0 475.42856 L 0 36.57143 L 0 36.57143 L 0 0 L 0 0 Z M 128 128 L 256 128 L 128 128 L 402.2857 128 L 402.2857 164.57143 L 402.2857 164.57143 L 384 164.57143 L 274.2857 164.57143 L 274.2857 384 L 274.2857 384 L 274.2857 402.2857 L 274.2857 402.2857 L 237.71428 402.2857 L 237.71428 402.2857 L 237.71428 384 L 237.71428 384 L 237.71428 164.57143 L 237.71428 164.57143 L 128 164.57143 L 109.71429 164.57143 L 109.71429 128 L 109.71429 128 L 128 128 L 128 128 Z" />
</svg>