<svg xmlns="http://www.w3.org/2000/svg" viewBox="0 0 512 512">
  <path d="M 261.51077 108.21135 L 246.48141 152.29745 L 261.51077 108.21135 L 246.48141 152.29745 L 244.4775 156.30528 L 244.4775 156.30528 L 242.47359 159.31116 L 242.47359 159.31116 L 191.37378 221.43248 L 191.37378 221.43248 Q 175.34247 241.47162 175.34247 266.52054 Q 176.34442 295.5773 196.38356 315.61642 Q 215.42075 335.65558 245.47945 336.65753 Q 270.52838 336.65753 290.5675 320.62622 L 352.68884 269.52643 L 352.68884 269.52643 L 355.6947 267.5225 L 355.6947 267.5225 L 359.70255 265.5186 L 359.70255 265.5186 L 403.78864 250.48924 L 403.78864 250.48924 Q 430.8415 241.47162 447.87476 219.42857 Q 463.90607 197.38551 463.90607 168.32877 L 463.90607 168.32877 L 463.90607 168.32877 L 463.90607 168.32877 L 463.90607 168.32877 Q 462.9041 130.25441 422.82584 89.17417 Q 381.7456 49.09589 343.67123 48.093933 L 343.67123 48.093933 L 343.67123 48.093933 L 343.67123 48.093933 L 343.67123 48.093933 Q 314.61447 48.093933 292.57144 64.125244 Q 270.52838 80.156555 261.51077 108.21135 L 261.51077 108.21135 Z M 343.67123 0 L 343.67123 0 L 343.67123 0 L 343.67123 0 L 343.67123 0 L 343.67123 0 Q 374.7319 1.0019569 404.79062 16.031311 Q 433.84735 32.062622 456.89236 55.10763 Q 479.93738 78.15264 495.9687 107.2094 Q 510.99805 137.2681 512 168.32877 L 512 168.32877 L 512 168.32877 L 512 168.32877 L 512 168.32877 Q 510.99805 212.41487 486.95108 247.48337 Q 461.90216 281.5499 419.81995 296.57925 L 379.74167 309.6047 L 379.74167 309.6047 L 320.62622 357.69864 L 320.62622 357.69864 Q 287.56165 384.75146 245.47945 384.75146 Q 209.409 384.75146 180.35225 365.7143 L 51.099804 494.96674 L 51.099804 494.96674 L 34.066536 512 L 34.066536 512 L 0 477.93347 L 0 477.93347 L 17.033268 460.9002 L 17.033268 460.9002 L 146.28572 331.64774 L 146.28572 331.64774 Q 127.248535 302.591 127.248535 266.52054 Q 127.248535 224.43835 154.30138 191.37378 L 202.39531 132.25832 L 202.39531 132.25832 L 215.42075 92.18004 L 215.42075 92.18004 Q 230.4501 50.097847 264.51663 25.048923 Q 299.5851 1.0019569 343.67123 0 L 343.67123 0 Z" />
</svg>