<svg viewBox="0 0 384 520">
  <path
    d="M 56 64 Q 58 42 80 40 Q 102 42 104 64 Q 102 86 80 88 Q 58 86 56 64 L 56 64 Z M 136 64 Q 135 32 108 16 Q 80 0 52 16 Q 25 32 24 64 Q 25 96 52 112 Q 80 128 108 112 Q 135 96 136 64 L 136 64 Z M 0 504 L 0 520 L 32 520 L 32 504 L 32 374 L 2 350 Q 1 349 1 349 Q 0 349 0 348 L 0 504 L 0 504 Z M 16 152 L 0 152 L 0 168 L 0 287 Q 1 312 21 327 L 122 394 L 147 520 L 180 520 L 152 381 L 150 374 L 145 371 L 112 349 L 112 223 L 155 289 L 159 296 L 168 296 L 192 296 L 224 296 L 240 296 L 256 296 L 352 296 L 384 296 L 384 264 L 384 136 L 384 104 L 352 104 L 224 104 L 192 104 L 192 136 L 192 264 L 177 264 L 110 159 L 105 152 L 96 152 L 16 152 L 16 152 Z M 224 264 L 224 136 L 352 136 L 352 264 L 256 264 L 240 264 L 224 264 L 224 264 Z M 80 184 L 80 327 L 39 300 Q 32 295 32 287 L 32 184 L 80 184 L 80 184 Z"
  />
</svg>