<svg xmlns="http://www.w3.org/2000/svg" viewBox="0 0 512 512">
  <path d="M 473.6 89.6 L 473.6 115.2 L 473.6 89.6 L 473.6 115.2 L 38.4 115.2 L 38.4 115.2 L 38.4 89.6 L 38.4 89.6 L 473.6 89.6 L 473.6 89.6 Z M 38.4 51.2 L 0 51.2 L 38.4 51.2 L 0 51.2 L 0 89.6 L 0 89.6 L 0 115.2 L 0 115.2 L 0 153.6 L 0 153.6 L 25.6 153.6 L 25.6 153.6 L 25.6 441.6 L 25.6 441.6 L 25.6 460.8 L 25.6 460.8 L 44.8 460.8 L 128 460.8 L 128 441.6 L 128 441.6 L 128 345.6 L 128 345.6 Q 129.6 291.2 165.6 255.2 Q 201.6 219.2 256 217.6 Q 310.4 219.2 346.4 255.2 Q 382.4 291.2 384 345.6 L 384 441.6 L 384 441.6 L 384 460.8 L 384 460.8 L 403.2 460.8 L 486.4 460.8 L 486.4 441.6 L 486.4 441.6 L 486.4 153.6 L 486.4 153.6 L 512 153.6 L 512 153.6 L 512 115.2 L 512 115.2 L 512 89.6 L 512 89.6 L 512 51.2 L 512 51.2 L 473.6 51.2 L 38.4 51.2 Z M 64 422.4 L 64 153.6 L 64 422.4 L 64 153.6 L 448 153.6 L 448 153.6 L 448 422.4 L 448 422.4 L 422.4 422.4 L 422.4 422.4 L 422.4 345.6 L 422.4 345.6 Q 420.8 275.2 373.6 228 Q 326.4 180.8 256 179.2 Q 185.6 180.8 138.4 228 Q 91.2 275.2 89.6 345.6 L 89.6 422.4 L 89.6 422.4 L 64 422.4 L 64 422.4 Z M 238.4 264 Q 217.6 275.2 192.8 304 L 192.8 304 L 192.8 304 Q 168.8 332.8 166.4 371.2 Q 167.2 409.6 192.8 434.4 Q 217.6 460 256 460.8 Q 294.4 460 319.2 434.4 Q 344.8 409.6 345.6 371.2 Q 346.4 359.2 334.4 334.4 Q 323.2 309.6 292 281.6 L 273.6 299.2 L 273.6 299.2 L 238.4 264 L 238.4 264 Z M 292 398.4 Q 291.2 413.6 281.6 423.2 L 281.6 423.2 L 281.6 423.2 Q 271.2 433.6 256 434.4 Q 240.8 433.6 230.4 423.2 Q 220.8 413.6 220 398.4 Q 222.4 376.8 238.4 361.6 Q 253.6 345.6 256 344.8 Q 258.4 345.6 273.6 361.6 Q 289.6 376.8 292 398.4 L 292 398.4 Z" />
</svg>