<svg xmlns="http://www.w3.org/2000/svg" viewBox="0 0 512 512">
  <path d="M 256 48 Q 222 49 199 71 L 199 71 L 199 71 Q 177 94 176 128 L 176 192 L 176 192 L 432 192 L 480 192 L 480 240 L 480 240 L 480 464 L 480 464 L 480 512 L 480 512 L 432 512 L 32 512 L 32 464 L 32 464 L 32 240 L 32 240 L 32 192 L 32 192 L 80 192 L 128 192 L 128 128 L 128 128 Q 129 74 165 37 Q 202 1 256 0 Q 299 1 332 25 Q 365 49 378 89 L 332 103 L 332 103 Q 324 79 304 64 Q 283 48 256 48 L 256 48 Z M 80 240 L 80 464 L 80 240 L 80 464 L 432 464 L 432 464 L 432 240 L 432 240 L 80 240 L 80 240 Z M 288 376 L 224 376 L 288 376 L 200 376 L 200 328 L 200 328 L 224 328 L 312 328 L 312 376 L 312 376 L 288 376 L 288 376 Z" />
</svg>