<svg xmlns="http://www.w3.org/2000/svg" viewBox="0 0 512 512">
  <path d="M 286.45352 69.47212 L 338.79553 168.44609 L 286.45352 69.47212 L 338.79553 168.44609 L 448.2379 187.47955 L 448.2379 187.47955 L 512 198.89963 L 512 198.89963 L 467.27136 244.57993 L 467.27136 244.57993 L 389.2342 325.4721 L 389.2342 325.4721 L 405.41263 435.86618 L 405.41263 435.86618 L 413.9777 499.62827 L 413.9777 499.62827 L 356.87732 471.07806 L 356.87732 471.07806 L 256 421.59106 L 256 421.59106 L 156.07436 471.07806 L 156.07436 471.07806 L 98.02231 499.62827 L 98.02231 499.62827 L 106.587364 435.86618 L 106.587364 435.86618 L 122.7658 325.4721 L 122.7658 325.4721 L 44.728626 244.57993 L 44.728626 244.57993 L 0 198.89963 L 0 198.89963 L 63.76208 187.47955 L 63.76208 187.47955 L 174.15613 168.44609 L 174.15613 168.44609 L 225.54646 69.47212 L 225.54646 69.47212 L 256 12.371747 L 256 12.371747 L 286.45352 69.47212 L 286.45352 69.47212 Z M 256 362.58737 L 279.7918 374.00745 L 256 362.58737 L 279.7918 374.00745 L 347.3606 407.31598 L 347.3606 407.31598 L 336.89218 333.0855 L 336.89218 333.0855 L 333.0855 306.43866 L 333.0855 306.43866 L 351.1673 288.35687 L 351.1673 288.35687 L 403.5093 234.11153 L 403.5093 234.11153 L 329.2788 220.7881 L 329.2788 220.7881 L 303.58365 216.02974 L 303.58365 216.02974 L 291.21188 193.18959 L 291.21188 193.18959 L 256 126.572495 L 256 126.572495 L 256 362.58737 L 256 362.58737 Z" />
</svg>