<svg xmlns="http://www.w3.org/2000/svg" viewBox="0 0 512 512">
  <path d="M 256 0.5 Q 215 1.5 188 28.5 L 188 28.5 L 188 28.5 Q 161 55.5 160 96.5 L 160 128.5 L 160 128.5 L 352 128.5 L 352 128.5 L 352 96.5 L 352 96.5 Q 351 55.5 324 28.5 Q 297 1.5 256 0.5 L 256 0.5 Z M 73 103.5 L 56 86.5 L 73 103.5 L 56 86.5 L 22 120.5 L 22 120.5 L 39 137.5 L 39 137.5 L 96 194.5 L 96 194.5 L 96 208.5 L 96 208.5 L 96 264.5 L 96 264.5 L 24 264.5 L 0 264.5 L 0 312.5 L 0 312.5 L 24 312.5 L 96 312.5 L 96 320.5 L 96 320.5 Q 96 361.5 115 395.5 L 50 460.5 L 50 460.5 L 33 477.5 L 33 477.5 L 67 511.5 L 67 511.5 L 84 494.5 L 84 494.5 L 144 434.5 L 144 434.5 Q 189 478.5 256 480.5 Q 323 478.5 368 434.5 L 428 494.5 L 428 494.5 L 445 511.5 L 445 511.5 L 479 477.5 L 479 477.5 L 462 460.5 L 462 460.5 L 397 395.5 L 397 395.5 Q 416 361.5 416 320.5 L 416 312.5 L 416 312.5 L 488 312.5 L 512 312.5 L 512 264.5 L 512 264.5 L 488 264.5 L 416 264.5 L 416 208.5 L 416 208.5 L 416 194.5 L 416 194.5 L 473 137.5 L 473 137.5 L 490 120.5 L 490 120.5 L 456 86.5 L 456 86.5 L 439 103.5 L 439 103.5 L 382 160.5 L 382 160.5 L 368 160.5 L 130 160.5 L 73 103.5 L 73 103.5 Z M 232 429.5 Q 193 420.5 169 391.5 L 169 391.5 L 169 391.5 Q 145 361.5 144 320.5 L 144 208.5 L 144 208.5 L 368 208.5 L 368 208.5 L 368 320.5 L 368 320.5 Q 367 361.5 343 391.5 Q 319 420.5 280 429.5 L 280 280.5 L 280 280.5 L 280 256.5 L 280 256.5 L 232 256.5 L 232 256.5 L 232 280.5 L 232 280.5 L 232 429.5 L 232 429.5 Z" />
</svg>