<svg xmlns="http://www.w3.org/2000/svg" viewBox="0 0 512 512">
  <path d="M 42.666666666666664 85.33333333333333 L 355.55555555555554 85.33333333333333 L 42.666666666666664 85.33333333333333 L 355.55555555555554 85.33333333333333 L 355.55555555555554 187.55555555555554 L 355.55555555555554 187.55555555555554 Q 369.77777777777777 184.88888888888889 384 184.88888888888889 Q 391.1111111111111 184.88888888888889 398.22222222222223 185.77777777777777 L 398.22222222222223 85.33333333333333 L 398.22222222222223 85.33333333333333 L 398.22222222222223 42.666666666666664 L 398.22222222222223 42.666666666666664 L 355.55555555555554 42.666666666666664 L 0 42.666666666666664 L 0 85.33333333333333 L 0 85.33333333333333 L 0 398.22222222222223 L 0 398.22222222222223 L 0 440.8888888888889 L 0 440.8888888888889 L 42.666666666666664 440.8888888888889 L 263.1111111111111 440.8888888888889 Q 247.11111111111111 421.3333333333333 238.22222222222223 398.22222222222223 L 42.666666666666664 398.22222222222223 L 42.666666666666664 398.22222222222223 L 42.666666666666664 85.33333333333333 L 42.666666666666664 85.33333333333333 Z M 199.11111111111111 113.77777777777777 Q 144.88888888888889 115.55555555555556 108.44444444444444 151.11111111111111 L 108.44444444444444 151.11111111111111 L 108.44444444444444 151.11111111111111 Q 72.88888888888889 187.55555555555554 71.11111111111111 241.77777777777777 Q 72.88888888888889 296 108.44444444444444 332.44444444444446 Q 144.88888888888889 368 199.11111111111111 369.77777777777777 Q 215.11111111111111 369.77777777777777 229.33333333333334 366.22222222222223 Q 227.55555555555554 353.77777777777777 227.55555555555554 341.3333333333333 Q 228.44444444444446 293.3333333333333 253.33333333333334 255.11111111111111 Q 278.22222222222223 217.77777777777777 320 199.11111111111111 Q 305.77777777777777 160.88888888888889 273.77777777777777 137.77777777777777 Q 241.77777777777777 114.66666666666667 199.11111111111111 113.77777777777777 L 199.11111111111111 113.77777777777777 Z M 170.66666666666666 241.77777777777777 Q 170.66666666666666 229.33333333333334 178.66666666666666 221.33333333333334 L 178.66666666666666 221.33333333333334 L 178.66666666666666 221.33333333333334 Q 186.66666666666666 213.33333333333334 199.11111111111111 213.33333333333334 Q 211.55555555555554 213.33333333333334 219.55555555555554 221.33333333333334 Q 227.55555555555554 229.33333333333334 227.55555555555554 241.77777777777777 Q 227.55555555555554 254.22222222222223 219.55555555555554 262.22222222222223 Q 211.55555555555554 270.22222222222223 199.11111111111111 270.22222222222223 Q 186.66666666666666 270.22222222222223 178.66666666666666 262.22222222222223 Q 170.66666666666666 254.22222222222223 170.66666666666666 241.77777777777777 L 170.66666666666666 241.77777777777777 Z M 384 469.3333333333333 Q 418.6666666666667 469.3333333333333 448 452.44444444444446 L 448 452.44444444444446 L 448 452.44444444444446 Q 477.3333333333333 435.55555555555554 495.1111111111111 405.3333333333333 Q 512 375.1111111111111 512 341.3333333333333 Q 512 307.55555555555554 495.1111111111111 277.3333333333333 Q 477.3333333333333 247.11111111111111 448 230.22222222222223 Q 418.6666666666667 213.33333333333334 384 213.33333333333334 Q 349.3333333333333 213.33333333333334 320 230.22222222222223 Q 290.6666666666667 247.11111111111111 272.8888888888889 277.3333333333333 Q 256 307.55555555555554 256 341.3333333333333 Q 256 375.1111111111111 272.8888888888889 405.3333333333333 Q 290.6666666666667 435.55555555555554 320 452.44444444444446 Q 349.3333333333333 469.3333333333333 384 469.3333333333333 L 384 469.3333333333333 Z M 398.22222222222223 284.44444444444446 L 398.22222222222223 327.1111111111111 L 398.22222222222223 284.44444444444446 L 398.22222222222223 327.1111111111111 L 440.8888888888889 327.1111111111111 L 455.1111111111111 327.1111111111111 L 455.1111111111111 355.55555555555554 L 455.1111111111111 355.55555555555554 L 440.8888888888889 355.55555555555554 L 398.22222222222223 355.55555555555554 L 398.22222222222223 398.22222222222223 L 398.22222222222223 398.22222222222223 L 398.22222222222223 412.44444444444446 L 398.22222222222223 412.44444444444446 L 369.77777777777777 412.44444444444446 L 369.77777777777777 412.44444444444446 L 369.77777777777777 398.22222222222223 L 369.77777777777777 398.22222222222223 L 369.77777777777777 355.55555555555554 L 369.77777777777777 355.55555555555554 L 327.1111111111111 355.55555555555554 L 312.8888888888889 355.55555555555554 L 312.8888888888889 327.1111111111111 L 312.8888888888889 327.1111111111111 L 327.1111111111111 327.1111111111111 L 369.77777777777777 327.1111111111111 L 369.77777777777777 284.44444444444446 L 369.77777777777777 284.44444444444446 L 369.77777777777777 270.22222222222223 L 369.77777777777777 270.22222222222223 L 398.22222222222223 270.22222222222223 L 398.22222222222223 270.22222222222223 L 398.22222222222223 284.44444444444446 L 398.22222222222223 284.44444444444446 Z" />
</svg>