<svg xmlns="http://www.w3.org/2000/svg" viewBox="0 0 512 512">
  <path d="M 120 0 Q 83 1 58 26 L 58 26 L 58 26 Q 33 51 32 88 L 32 424 L 32 424 L 32 424 L 32 424 Q 32 428 32 432 Q 33 466 55 489 Q 78 511 112 512 L 456 512 L 480 512 L 480 464 L 480 464 L 456 464 L 448 464 L 448 400 L 448 400 L 456 400 L 480 400 L 480 376 L 480 376 L 480 24 L 480 24 L 480 0 L 480 0 L 456 0 L 120 0 Z M 400 400 L 400 464 L 400 400 L 400 464 L 112 464 L 112 464 Q 98 464 89 455 Q 80 446 80 432 Q 80 418 89 409 Q 98 400 112 400 L 400 400 L 400 400 Z M 112 352 Q 95 352 80 359 L 80 88 L 80 88 Q 80 71 92 60 Q 103 48 120 48 L 432 48 L 432 48 L 432 352 L 432 352 L 112 352 L 112 352 Z M 240 80 L 240 144 L 240 80 L 240 144 L 176 144 L 176 144 L 176 208 L 176 208 L 240 208 L 240 208 L 240 320 L 240 320 L 304 320 L 304 320 L 304 208 L 304 208 L 368 208 L 368 208 L 368 144 L 368 144 L 304 144 L 304 144 L 304 80 L 304 80 L 240 80 L 240 80 Z" />
</svg>