<svg xmlns="http://www.w3.org/2000/svg" viewBox="0 0 512 512">
  <path d="M 512 250.44576 L 464.5365 264.58383 L 512 250.44576 L 464.5365 264.58383 L 431.21106 274.68243 L 431.21106 274.68243 L 452.41815 301.94873 L 452.41815 301.94873 L 479.68442 339.3136 L 479.68442 339.3136 L 431.21106 387.787 L 431.21106 387.787 L 370.61932 382.73767 L 370.61932 382.73767 L 334.2643 379.7081 L 334.2643 379.7081 L 347.39252 413.03354 L 347.39252 413.03354 L 350.4221 420.10257 L 350.4221 420.10257 L 285.79092 484.73373 L 285.79092 484.73373 L 188.84418 436.26035 L 188.84418 436.26035 L 108.05523 436.26035 L 98.96647 436.26035 L 34.335304 500.8915 L 34.335304 500.8915 L 22.216963 512 L 22.216963 512 L 0 489.78305 L 0 489.78305 L 11.108481 478.67456 L 11.108481 478.67456 L 75.73965 413.03354 L 75.73965 413.03354 L 75.73965 403.94476 L 75.73965 403.94476 L 75.73965 323.15582 L 75.73965 323.15582 L 27.266272 226.20908 L 27.266272 226.20908 L 91.89744 161.57791 L 91.89744 161.57791 L 98.96647 164.6075 L 98.96647 164.6075 L 132.29192 177.7357 L 132.29192 177.7357 L 129.26233 141.38068 L 129.26233 141.38068 L 124.21302 80.788956 L 124.21302 80.788956 L 172.68639 32.315582 L 172.68639 32.315582 L 210.05128 60.591717 L 210.05128 60.591717 L 237.31755 80.788956 L 237.31755 80.788956 L 247.41617 47.463512 L 247.41617 47.463512 L 261.55423 0 L 261.55423 0 L 334.2643 0 L 334.2643 0 L 366.5799 48.473373 L 366.5799 48.473373 L 431.21106 32.315582 L 431.21106 32.315582 L 479.68442 80.788956 L 479.68442 80.788956 L 463.52664 145.42012 L 463.52664 145.42012 L 512 177.7357 L 512 177.7357 L 512 250.44576 L 512 250.44576 Z M 131.28206 403.94476 L 188.84418 403.94476 L 131.28206 403.94476 L 196.92308 403.94476 L 202.98225 406.97437 L 202.98225 406.97437 L 279.73175 445.34912 L 279.73175 445.34912 L 313.0572 412.02368 L 313.0572 412.02368 L 303.96844 391.82642 L 303.96844 391.82642 L 284.78107 343.35306 L 284.78107 343.35306 L 337.29388 347.39252 L 337.29388 347.39252 L 419.0927 354.46155 L 419.0927 354.46155 L 437.2702 336.28403 L 437.2702 336.28403 L 404.95462 293.8698 L 404.95462 293.8698 L 377.68835 257.5148 L 377.68835 257.5148 L 422.12228 243.37672 L 422.12228 243.37672 L 479.68442 226.20908 L 479.68442 226.20908 L 479.68442 194.90335 L 479.68442 194.90335 L 445.34912 172.68639 L 445.34912 172.68639 L 426.16174 159.55818 L 426.16174 159.55818 L 432.22092 137.34122 L 432.22092 137.34122 L 444.33926 90.88757 L 444.33926 90.88757 L 421.11243 67.66075 L 421.11243 67.66075 L 374.65878 79.77909 L 374.65878 79.77909 L 352.4418 85.838264 L 352.4418 85.838264 L 339.3136 66.65089 L 339.3136 66.65089 L 317.09665 32.315582 L 317.09665 32.315582 L 285.79092 32.315582 L 285.79092 32.315582 L 268.62326 89.87771 L 268.62326 89.87771 L 255.49507 134.31163 L 255.49507 134.31163 L 218.13017 107.045364 L 218.13017 107.045364 L 175.71597 74.72978 L 175.71597 74.72978 L 157.53847 92.907295 L 157.53847 92.907295 L 164.6075 174.70612 L 164.6075 174.70612 L 168.64694 227.21893 L 168.64694 227.21893 L 120.17357 208.03156 L 120.17357 208.03156 L 99.97633 199.95267 L 99.97633 199.95267 L 66.65089 232.26825 L 66.65089 232.26825 L 105.02564 309.01776 L 105.02564 309.01776 L 108.05523 316.0868 L 108.05523 316.0868 L 108.05523 323.15582 L 108.05523 323.15582 L 108.05523 380.71796 L 108.05523 380.71796 L 283.7712 206.01184 L 283.7712 206.01184 L 294.87967 194.90335 L 294.87967 194.90335 L 318.1065 217.12032 L 318.1065 217.12032 L 305.98816 228.22879 L 305.98816 228.22879 L 131.28206 403.94476 L 131.28206 403.94476 Z" />
</svg>