<svg xmlns="http://www.w3.org/2000/svg" viewBox="0 0 512 512">
  <path d="M 36.57142857142857 36.57142857142857 L 36.57142857142857 475.42857142857144 L 36.57142857142857 36.57142857142857 L 36.57142857142857 475.42857142857144 L 475.42857142857144 475.42857142857144 L 475.42857142857144 475.42857142857144 L 475.42857142857144 36.57142857142857 L 475.42857142857144 36.57142857142857 L 36.57142857142857 36.57142857142857 L 36.57142857142857 36.57142857142857 Z M 0 0 L 36.57142857142857 0 L 0 0 L 512 0 L 512 36.57142857142857 L 512 36.57142857142857 L 512 475.42857142857144 L 512 475.42857142857144 L 512 512 L 512 512 L 475.42857142857144 512 L 0 512 L 0 475.42857142857144 L 0 475.42857142857144 L 0 36.57142857142857 L 0 36.57142857142857 L 0 0 L 0 0 Z M 240 410.2857142857143 L 106.28571428571429 128 L 240 410.2857142857143 L 106.28571428571429 128 L 147.42857142857142 128 L 147.42857142857142 128 L 256 360 L 256 360 L 365.7142857142857 128 L 365.7142857142857 128 L 405.7142857142857 128 L 405.7142857142857 128 L 273.14285714285717 410.2857142857143 L 273.14285714285717 410.2857142857143 L 267.42857142857144 420.57142857142856 L 267.42857142857144 420.57142857142856 L 244.57142857142858 420.57142857142856 L 244.57142857142858 420.57142857142856 L 240 410.2857142857143 L 240 410.2857142857143 Z" />
</svg>