<svg xmlns="http://www.w3.org/2000/svg" viewBox="0 0 512 512">
  <path d="M 204.8 89.6 Q 262.4 90.4 304.8 123.2 L 304.8 123.2 L 304.8 123.2 Q 348 156 364 208.8 Q 380 204.8 396.8 204.8 Q 400 204.8 403.2 204.8 Q 403.2 204.8 403.2 204.8 Q 384.8 137.6 331.2 95.2 Q 277.6 52.8 204.8 51.2 Q 147.2 52 101.6 79.2 Q 55.2 106.4 28 152.8 Q 0.8 198.4 0 256 Q 0.8 313.6 28 359.2 Q 55.2 405.6 101.6 432.8 Q 147.2 460 204.8 460.8 Q 252.8 460.8 292.8 440.8 Q 280 426.4 271.2 408.8 Q 240 422.4 204.8 422.4 Q 134.4 420.8 87.2 373.6 Q 40 326.4 38.4 256 Q 40 185.6 87.2 138.4 Q 134.4 91.2 204.8 89.6 L 204.8 89.6 Z M 204.8 166.4 Q 162.4 166.4 125.6 183.2 L 125.6 183.2 L 125.6 183.2 Q 89.6 200 63.2 229.6 L 90.4 256.8 L 90.4 256.8 Q 111.2 232 140.8 218.4 Q 170.4 204.8 204.8 204.8 Q 262.4 205.6 303.2 240.8 Q 318.4 227.2 336 218.4 Q 283.2 168 204.8 166.4 L 204.8 166.4 Z M 204.8 243.2 Q 150.4 244.8 119.2 285.6 L 146.4 312.8 L 146.4 312.8 Q 166.4 283.2 204.8 281.6 Q 240 283.2 260.8 309.6 Q 266.4 288.8 277.6 271.2 Q 248 244 204.8 243.2 L 204.8 243.2 Z M 230.4 345.6 Q 230.4 334.4 223.2 327.2 L 223.2 327.2 L 223.2 327.2 Q 216 320 204.8 320 Q 193.6 320 186.4 327.2 Q 179.2 334.4 179.2 345.6 Q 179.2 356.8 186.4 364 Q 193.6 371.2 204.8 371.2 Q 216 371.2 223.2 364 Q 230.4 356.8 230.4 345.6 L 230.4 345.6 Z M 512 345.6 Q 512 314.4 496.8 288 L 496.8 288 L 496.8 288 Q 481.6 261.6 454.4 245.6 Q 427.2 230.4 396.8 230.4 Q 366.4 230.4 339.2 245.6 Q 312 261.6 296.8 288 Q 281.6 314.4 281.6 345.6 Q 281.6 376.8 296.8 403.2 Q 312 429.6 339.2 445.6 Q 366.4 460.8 396.8 460.8 Q 427.2 460.8 454.4 445.6 Q 481.6 429.6 496.8 403.2 Q 512 376.8 512 345.6 L 512 345.6 Z M 487.2 329.6 L 466.4 344.8 L 487.2 329.6 L 466.4 344.8 Q 442.4 308.8 396.8 307.2 Q 351.2 308.8 327.2 344.8 L 307.2 329.6 L 307.2 329.6 Q 321.6 307.2 344.8 294.4 Q 368.8 281.6 396.8 281.6 Q 424.8 281.6 448.8 294.4 Q 472 307.2 487.2 329.6 L 487.2 329.6 Z M 396.8 332.8 Q 429.6 333.6 448 358.4 L 427.2 373.6 L 427.2 373.6 Q 416 359.2 396.8 358.4 Q 377.6 359.2 366.4 373.6 L 345.6 358.4 L 345.6 358.4 Q 364 333.6 396.8 332.8 L 396.8 332.8 Z M 396.8 380.8 Q 411.2 382.4 412.8 396.8 Q 411.2 411.2 396.8 412.8 Q 382.4 411.2 380.8 396.8 Q 382.4 382.4 396.8 380.8 L 396.8 380.8 Z" />
</svg>