<svg xmlns="http://www.w3.org/2000/svg" viewBox="0 0 512 512">
  <path d="M 248.88888888888889 402.6666666666667 L 252.44444444444446 401.77777777777777 L 248.88888888888889 402.6666666666667 L 252.44444444444446 401.77777777777777 Q 252.44444444444446 401.77777777777777 252.44444444444446 401.77777777777777 Q 305.77777777777777 386.6666666666667 364.44444444444446 378.6666666666667 Q 423.1111111111111 370.6666666666667 483.55555555555554 387.55555555555554 L 483.55555555555554 100.44444444444444 L 483.55555555555554 100.44444444444444 Q 432 80 377.77777777777777 86.22222222222223 Q 323.55555555555554 92.44444444444444 263.1111111111111 109.33333333333333 L 259.55555555555554 110.22222222222223 L 259.55555555555554 110.22222222222223 Q 259.55555555555554 110.22222222222223 259.55555555555554 110.22222222222223 Q 206.22222222222223 125.33333333333333 147.55555555555554 133.33333333333334 Q 88.88888888888889 141.33333333333334 28.444444444444443 124.44444444444444 L 28.444444444444443 411.55555555555554 L 28.444444444444443 411.55555555555554 Q 80 432 134.22222222222223 425.77777777777777 Q 188.44444444444446 419.55555555555554 248.88888888888889 402.6666666666667 L 248.88888888888889 402.6666666666667 Z M 0 81.77777777777777 Q 14.222222222222221 88.88888888888889 28.444444444444443 94.22222222222223 Q 85.33333333333333 112.88888888888889 142.22222222222223 105.77777777777777 Q 199.11111111111111 97.77777777777777 256 81.77777777777777 Q 320 64 384 57.77777777777778 Q 448 51.55555555555556 512 81.77777777777777 L 512 398.22222222222223 L 512 398.22222222222223 L 512 430.22222222222223 L 512 430.22222222222223 Q 497.77777777777777 423.1111111111111 483.55555555555554 417.77777777777777 Q 426.6666666666667 399.1111111111111 369.77777777777777 406.22222222222223 Q 312.8888888888889 414.22222222222223 256 430.22222222222223 Q 192 448 128 454.22222222222223 Q 64 460.44444444444446 0 430.22222222222223 L 0 113.77777777777777 L 0 113.77777777777777 L 0 81.77777777777777 L 0 81.77777777777777 Z M 199.11111111111111 256 Q 200 288 216.88888888888889 307.55555555555554 L 216.88888888888889 307.55555555555554 L 216.88888888888889 307.55555555555554 Q 233.77777777777777 326.22222222222223 256 327.1111111111111 Q 278.22222222222223 326.22222222222223 295.1111111111111 307.55555555555554 Q 312 288 312.8888888888889 256 Q 312 224 295.1111111111111 204.44444444444446 Q 278.22222222222223 185.77777777777777 256 184.88888888888889 Q 233.77777777777777 185.77777777777777 216.88888888888889 204.44444444444446 Q 200 224 199.11111111111111 256 L 199.11111111111111 256 Z M 256 156.44444444444446 Q 293.3333333333333 157.33333333333334 317.3333333333333 186.66666666666666 L 317.3333333333333 186.66666666666666 L 317.3333333333333 186.66666666666666 Q 340.44444444444446 215.11111111111111 341.3333333333333 256 Q 340.44444444444446 296.8888888888889 317.3333333333333 325.3333333333333 Q 293.3333333333333 354.6666666666667 256 355.55555555555554 Q 218.66666666666666 354.6666666666667 194.66666666666666 325.3333333333333 Q 171.55555555555554 296.8888888888889 170.66666666666666 256 Q 171.55555555555554 215.11111111111111 194.66666666666666 186.66666666666666 Q 218.66666666666666 157.33333333333334 256 156.44444444444446 L 256 156.44444444444446 Z" />
</svg>