<svg xmlns="http://www.w3.org/2000/svg" viewBox="0 0 512 512">
  <path d="M 255.0019493177388 0 Q 253.00584795321637 0.9980506822612085 230.05068226120858 23.953216374269005 L 230.05068226120858 23.953216374269005 L 230.05068226120858 23.953216374269005 Q 207.09551656920078 46.9083820662768 184.140350877193 82.83820662768031 L 184.140350877193 82.83820662768031 L 184.140350877193 82.83820662768031 Q 161.1851851851852 118.76803118908381 159.18908382066277 159.68810916179336 Q 159.18908382066277 181.64522417153995 168.17153996101365 200.6081871345029 Q 148.21052631578948 201.60623781676412 130.24561403508773 212.58479532163742 Q 95.31384015594541 234.541910331384 75.35282651072124 272.46783625730995 Q 56.38986354775828 310.3937621832359 47.407407407407405 342.33138401559455 Q 39.42300194931774 373.270955165692 39.42300194931774 375.2670565302144 Q 39.42300194931774 375.2670565302144 39.42300194931774 375.2670565302144 Q 41.419103313840154 376.26510721247564 72.35867446393762 385.2475633528265 Q 104.29629629629629 393.23196881091616 147.21247563352827 395.2280701754386 Q 190.12865497076024 397.224171539961 226.05847953216374 378.26120857699806 Q 244.0233918128655 368.280701754386 255.0019493177388 352.31189083820664 Q 266.9785575048733 368.280701754386 283.94541910331384 378.26120857699806 Q 320.8732943469786 397.224171539961 363.7894736842105 395.2280701754386 Q 405.7076023391813 393.23196881091616 437.64522417153995 385.2475633528265 Q 468.58479532163744 376.26510721247564 470.58089668615986 375.2670565302144 Q 470.58089668615986 375.2670565302144 470.58089668615986 375.2670565302144 Q 470.58089668615986 373.270955165692 462.5964912280702 342.33138401559455 Q 454.6120857699805 310.3937621832359 434.65107212475635 272.46783625730995 Q 414.6900584795322 234.541910331384 379.75828460038986 212.58479532163742 Q 361.7933723196881 201.60623781676412 341.83235867446393 200.6081871345029 Q 350.81481481481484 181.64522417153995 350.81481481481484 159.68810916179336 Q 348.8187134502924 118.76803118908381 325.8635477582846 82.83820662768031 Q 302.90838206627683 46.9083820662768 279.953216374269 23.953216374269005 Q 256.99805068226124 0.9980506822612085 255.0019493177388 0 Q 255.0019493177388 0 255.0019493177388 0 L 255.0019493177388 0 Z M 215.07992202729045 239.53216374269005 Q 216.07797270955166 216.57699805068225 235.04093567251462 204.60038986354775 Q 255.0019493177388 194.61988304093566 274.962962962963 204.60038986354775 Q 293.9259259259259 216.57699805068225 294.92397660818716 239.53216374269005 Q 293.9259259259259 262.48732943469787 274.962962962963 274.4639376218324 Q 255.0019493177388 284.44444444444446 235.04093567251462 274.4639376218324 Q 216.07797270955166 262.48732943469787 215.07992202729045 239.53216374269005 L 215.07992202729045 239.53216374269005 Z M 27.446393762183234 120.76413255360623 Q 25.450292397660817 121.76218323586744 33.434697855750485 147.71150097465886 L 33.434697855750485 147.71150097465886 L 33.434697855750485 147.71150097465886 Q 41.419103313840154 173.66081871345028 81.3411306042885 210.588693957115 Q 96.31189083820662 195.61793372319687 114.27680311890838 184.63937621832358 Q 121.26315789473684 180.64717348927874 128.2495126705653 177.65302144249512 Q 127.25146198830409 168.67056530214424 127.25146198830409 159.68810916179336 Q 127.25146198830409 140.7251461988304 132.24171539961014 121.76218323586744 Q 80.34307992202729 105.7933723196881 54.393762183235864 111.78167641325535 Q 27.446393762183234 117.7699805068226 27.446393762183234 120.76413255360623 Q 27.446393762183234 120.76413255360623 27.446393762183234 120.76413255360623 L 27.446393762183234 120.76413255360623 Z M 242.02729044834308 406.2066276803119 Q 224.06237816764133 416.187134502924 204.10136452241716 421.17738791423 Q 217.07602339181287 473.07602339181284 235.04093567251462 492.03898635477583 Q 253.00584795321637 512 255.0019493177388 511.00194931773876 Q 256.99805068226124 512 274.962962962963 492.03898635477583 Q 292.92787524366474 473.07602339181284 305.9025341130604 421.17738791423 Q 285.94152046783626 416.187134502924 267.9766081871345 406.2066276803119 Q 260.99025341130607 402.21442495126706 255.0019493177388 397.224171539961 Q 249.01364522417154 402.21442495126706 242.02729044834308 406.2066276803119 L 242.02729044834308 406.2066276803119 Z M 395.7270955165692 184.63937621832358 Q 414.6900584795322 195.61793372319687 429.6608187134503 211.5867446393762 Q 469.5828460038986 173.66081871345028 478.56530214424953 147.71150097465886 Q 486.5497076023392 121.76218323586744 484.5536062378168 119.76608187134502 Q 484.5536062378168 119.76608187134502 484.5536062378168 119.76608187134502 Q 484.5536062378168 117.7699805068226 457.6062378167641 111.78167641325535 Q 430.6588693957115 105.7933723196881 377.76218323586744 122.76023391812865 Q 382.7524366471735 140.7251461988304 382.7524366471735 159.68810916179336 Q 382.7524366471735 168.67056530214424 381.7543859649123 177.65302144249512 Q 388.74074074074076 180.64717348927874 395.7270955165692 184.63937621832358 L 395.7270955165692 184.63937621832358 Z" />
</svg>