<svg xmlns="http://www.w3.org/2000/svg" viewBox="0 0 512 512">
  <path d="M 499.57712 223.1681 Q 511.11264 236.47833 512 256 Q 511.11264 275.52167 499.57712 288.83188 Q 488.0416 302.14212 475.6187 309.2409 Q 447.22357 326.10052 417.94107 326.98785 L 330.0936 326.98785 L 330.0936 326.98785 L 246.68285 472.513 L 246.68285 472.513 L 240.4714 483.16116 L 240.4714 483.16116 L 228.04852 483.16116 L 128.66551 483.16116 L 136.65164 455.65338 L 136.65164 455.65338 L 173.92027 326.98785 L 173.92027 326.98785 L 146.41248 326.98785 L 146.41248 326.98785 L 110.0312 374.9047 L 110.0312 374.9047 L 103.819756 383.77817 L 103.819756 383.77817 L 93.17158 383.77817 L 0 383.77817 L 8.873484 355.38303 L 8.873484 355.38303 L 42.59272 256 L 42.59272 256 L 8.873484 156.61699 L 8.873484 156.61699 L 0 128.22183 L 0 128.22183 L 29.282495 128.22183 L 103.819756 128.22183 L 110.0312 137.09532 L 110.0312 137.09532 L 146.41248 185.01213 L 146.41248 185.01213 L 173.92027 185.01213 L 173.92027 185.01213 L 136.65164 56.34662 L 136.65164 56.34662 L 128.66551 28.838821 L 128.66551 28.838821 L 157.06065 28.838821 L 240.4714 28.838821 L 246.68285 39.487003 L 246.68285 39.487003 L 330.0936 185.01213 L 330.0936 185.01213 L 417.94107 185.01213 L 417.94107 185.01213 Q 447.22357 185.89948 475.6187 202.7591 Q 488.92896 210.74524 499.57712 223.1681 L 499.57712 223.1681 Z M 453.435 239.14038 Q 433.026 227.60486 417.94107 227.60486 L 317.67072 227.60486 L 305.24783 227.60486 L 299.0364 216.95667 L 299.0364 216.95667 L 215.62566 71.43154 L 215.62566 71.43154 L 185.45581 71.43154 L 185.45581 71.43154 L 221.83708 200.09706 L 221.83708 200.09706 L 229.82323 227.60486 L 229.82323 227.60486 L 201.42807 227.60486 L 125.11612 227.60486 L 118.90468 218.73137 L 118.90468 218.73137 L 82.5234 170.81456 L 82.5234 170.81456 L 58.56499 170.81456 L 58.56499 170.81456 L 85.18544 248.90121 L 85.18544 248.90121 L 86.96014 256 L 86.96014 256 L 85.18544 263.0988 L 85.18544 263.0988 L 58.56499 341.18546 L 58.56499 341.18546 L 82.5234 341.18546 L 82.5234 341.18546 L 118.90468 293.26862 L 118.90468 293.26862 L 125.11612 284.39514 L 125.11612 284.39514 L 135.7643 284.39514 L 229.82323 284.39514 L 221.83708 311.90295 L 221.83708 311.90295 L 185.45581 440.56845 L 185.45581 440.56845 L 215.62566 440.56845 L 215.62566 440.56845 L 299.0364 295.04333 L 299.0364 295.04333 L 305.24783 284.39514 L 305.24783 284.39514 L 317.67072 284.39514 L 417.94107 284.39514 Q 433.026 284.39514 453.435 272.85962 Q 471.18198 260.43674 469.4073 256 Q 470.29462 255.11266 466.74524 249.78856 Q 462.3085 244.46448 453.435 239.14038 L 453.435 239.14038 Z" />
</svg>