<svg xmlns="http://www.w3.org/2000/svg" viewBox="0 0 512 512">
  <path d="M 0 32 L 16 32 L 0 32 L 480 32 L 468 64 L 468 64 L 427 177 L 427 177 Q 466 203 489 244 Q 511 286 512 336 L 512 344 L 512 344 Q 511 384 493 415 Q 476 445 459 463 Q 441 480 440 480 L 136 480 L 136 480 Q 135 480 117 463 Q 100 445 83 415 Q 65 384 64 344 L 64 336 L 64 336 Q 64 286 87 246 Q 109 205 147 178 L 96 64 L 96 64 L 32 64 L 32 64 L 32 208 L 32 208 L 32 224 L 32 224 L 0 224 L 0 224 L 0 208 L 0 208 L 0 48 L 0 48 L 0 32 L 0 32 Z M 181 176 L 394 176 L 181 176 L 394 176 L 434 64 L 434 64 L 144 64 L 131 64 L 181 176 L 181 176 Z M 416 208 L 160 208 L 416 208 L 160 208 L 160 208 L 160 208 Q 120 239 103 288 L 473 288 L 473 288 Q 457 239 416 208 L 416 208 L 416 208 Z M 479 320 L 97 320 L 479 320 L 97 320 Q 96 328 96 336 L 96 344 L 96 344 Q 99 390 126 423 Q 138 438 147 447 L 148 448 L 148 448 L 428 448 L 428 448 L 429 447 L 429 447 Q 438 439 450 423 Q 477 390 480 344 L 480 336 L 480 336 Q 480 328 479 320 L 479 320 Z" />
</svg>