<svg xmlns="http://www.w3.org/2000/svg" viewBox="0 0 512 512">
  <path d="M 425.33072 80.156555 Q 447.37378 78.15264 449.3777 56.10959 Q 447.37378 34.066536 425.33072 32.062622 Q 403.28766 34.066536 401.28375 56.10959 Q 403.28766 78.15264 425.33072 80.156555 L 425.33072 80.156555 Z M 425.33072 0 Q 457.39334 1.0019569 473.42465 28.054794 Q 489.45596 56.10959 473.42465 84.16438 Q 457.39334 111.217224 425.33072 112.21918 Q 393.2681 111.217224 377.2368 84.16438 Q 361.20547 56.10959 377.2368 28.054794 Q 393.2681 1.0019569 425.33072 0 L 425.33072 0 Z M 418.31702 507.99216 L 9.518591 302.591 L 418.31702 507.99216 L 9.518591 302.591 L 23.545988 274.5362 L 23.545988 274.5362 L 236.96281 381.7456 L 236.96281 381.7456 L 307.0998 297.5812 L 307.0998 297.5812 L 209.90997 200.39139 L 209.90997 200.39139 Q 198.88846 188.3679 196.88454 173.33855 L 258.0039 202.39531 L 258.0039 202.39531 L 330.1448 274.5362 L 330.1448 274.5362 Q 339.1624 284.5558 339.1624 296.57925 Q 340.1644 308.60275 332.14874 318.6223 L 267.0215 396.77496 L 267.0215 396.77496 L 426.33267 476.93152 L 426.33267 476.93152 L 475.42856 457.89432 L 475.42856 457.89432 L 490.45792 451.88257 L 490.45792 451.88257 L 502.4814 481.94128 L 502.4814 481.94128 L 487.45206 487.95303 L 487.45206 487.95303 L 431.34247 508.99414 L 431.34247 508.99414 L 424.32877 512 L 424.32877 512 L 418.31702 507.99216 L 418.31702 507.99216 Z M 119.73386 66.12916 L 137.76907 74.14481 L 119.73386 66.12916 L 137.76907 74.14481 L 146.7867 57.111546 L 146.7867 57.111546 L 153.80038 43.08415 L 153.80038 43.08415 L 182.85715 57.111546 L 182.85715 57.111546 L 174.84149 71.13895 L 174.84149 71.13895 L 166.82584 88.17221 L 166.82584 88.17221 L 229.94911 118.23092 L 229.94911 118.23092 L 313.11154 66.12916 L 313.11154 66.12916 L 328.1409 57.111546 L 328.1409 57.111546 L 336.15656 74.14481 L 336.15656 74.14481 L 388.25833 193.37769 L 388.25833 193.37769 L 456.3914 225.4403 L 456.3914 225.4403 L 456.3914 226.44228 L 456.3914 226.44228 L 470.4188 232.45401 L 470.4188 232.45401 L 470.4188 232.45401 L 470.4188 232.45401 L 470.4188 232.45401 L 470.4188 232.45401 L 463.4051 247.48337 L 463.4051 247.48337 L 456.3914 261.51077 L 456.3914 261.51077 L 456.3914 261.51077 L 456.3914 261.51077 L 456.3914 261.51077 L 456.3914 261.51077 L 442.36398 254.49707 L 442.36398 254.49707 L 442.36398 254.49707 L 442.36398 254.49707 L 152.79843 117.228966 L 152.79843 117.228966 L 142.77887 135.26419 L 142.77887 135.26419 L 135.76517 150.29355 L 135.76517 150.29355 L 107.71037 135.26419 L 107.71037 135.26419 L 114.72407 121.23679 L 114.72407 121.23679 L 123.741684 103.20157 L 123.741684 103.20157 L 105.70646 94.18395 L 105.70646 94.18395 L 91.67906 88.17221 L 91.67906 88.17221 L 105.70646 59.11546 L 105.70646 59.11546 L 119.73386 66.12916 L 119.73386 66.12916 Z M 264.01566 134.26224 L 344.1722 172.3366 L 264.01566 134.26224 L 344.1722 172.3366 L 314.1135 104.20352 L 314.1135 104.20352 L 264.01566 134.26224 L 264.01566 134.26224 Z" />
</svg>