<svg xmlns="http://www.w3.org/2000/svg" viewBox="0 0 448 448">
    <path d="M 160 32 L 160 0 L 96 0 L 96 32 L 96 96 L 32 96 L 0 96 L 0 160 L 32 160 L 128 160 L 160 160 L 160 128 L 160 32 L 160 32 Z M 32 288 L 0 288 L 0 352 L 32 352 L 96 352 L 96 416 L 96 448 L 160 448 L 160 416 L 160 320 L 160 288 L 128 288 L 32 288 L 32 288 Z M 352 32 L 352 0 L 288 0 L 288 32 L 288 128 L 288 160 L 320 160 L 416 160 L 448 160 L 448 96 L 416 96 L 352 96 L 352 32 L 352 32 Z M 320 288 L 288 288 L 288 320 L 288 416 L 288 448 L 352 448 L 352 416 L 352 352 L 416 352 L 448 352 L 448 288 L 416 288 L 320 288 L 320 288 Z"/>
</svg>
