<svg xmlns="http://www.w3.org/2000/svg" viewBox="0 0 512 512">
  <path d="M 91.42857 0 L 73.14286 0 L 91.42857 0 L 73.14286 0 L 73.14286 18.285715 L 73.14286 18.285715 L 73.14286 219.42857 L 73.14286 219.42857 L 73.14286 237.71428 L 73.14286 237.71428 L 73.14286 256 L 73.14286 256 L 73.14286 493.7143 L 73.14286 493.7143 L 73.14286 512 L 73.14286 512 L 91.42857 512 L 292.57144 512 Q 354.2857 510.85715 396.57144 469.7143 Q 437.7143 427.42856 438.85715 365.7143 Q 437.7143 320 413.7143 284.57144 Q 389.7143 249.14285 349.7143 230.85715 Q 400 194.28572 402.2857 128 Q 401.14285 73.14286 364.57144 37.714287 Q 329.14285 1.1428572 274.2857 0 L 91.42857 0 L 91.42857 0 Z M 292.57144 256 Q 339.42856 257.14285 370.2857 288 L 370.2857 288 L 370.2857 288 Q 401.14285 318.85715 402.2857 365.7143 Q 401.14285 412.57144 370.2857 443.42856 Q 339.42856 474.2857 292.57144 475.42856 L 109.71429 475.42856 L 109.71429 475.42856 L 109.71429 256 L 109.71429 256 L 274.2857 256 L 292.57144 256 Z M 274.2857 219.42857 L 109.71429 219.42857 L 274.2857 219.42857 L 109.71429 219.42857 L 109.71429 36.57143 L 109.71429 36.57143 L 274.2857 36.57143 L 274.2857 36.57143 Q 313.14285 37.714287 339.42856 62.857143 Q 364.57144 89.14286 365.7143 128 Q 364.57144 166.85715 339.42856 193.14285 Q 313.14285 218.28572 274.2857 219.42857 L 274.2857 219.42857 Z" />
</svg>