<svg xmlns="http://www.w3.org/2000/svg" viewBox="0 0 639 450">
    <path d="M 52 18 L 36 0 L 0 33 L 17 50 L 157 202 L 165 210 L 175 210 L 615 210 L 639 210 L 639 162 L 615 162 L 186 162 L 52 18 L 52 18 Z M 240 242 L 326 305 L 289 332 Q 274 322 255 322 Q 228 323 210 341 Q 192 359 191 386 Q 192 413 210 431 Q 228 449 255 450 Q 282 449 300 431 Q 318 413 319 386 Q 319 378 317 370 L 367 334 L 417 371 Q 415 378 415 386 Q 416 413 434 431 Q 452 449 479 450 Q 506 449 524 431 Q 542 413 543 386 Q 542 359 524 341 Q 506 323 479 322 Q 460 322 445 332 L 408 305 L 494 242 L 412 242 L 367 275 L 322 242 L 240 242 L 240 242 Z M 239 386 Q 240 371 255 370 Q 270 371 271 386 Q 270 401 255 402 Q 240 401 239 386 L 239 386 Z M 463 386 Q 464 371 479 370 Q 494 371 495 386 Q 494 401 479 402 Q 464 401 463 386 L 463 386 Z"/>
</svg>
