<svg xmlns="http://www.w3.org/2000/svg" viewBox="0 0 512 512">
  <path d="M 86 80 Q 108 78 110 56 Q 108 34 86 32 Q 64 34 62 56 Q 64 78 86 80 L 86 80 Z M 86 0 Q 118 1 134 28 Q 150 56 134 84 Q 118 111 86 112 Q 54 111 38 84 Q 22 56 38 28 Q 54 1 86 0 L 86 0 Z M 6 340 Q 6 341 7 341 L 7 341 L 7 341 Q 7 341 8 342 L 38 366 L 38 366 L 38 496 L 38 496 L 38 512 L 38 512 L 6 512 L 6 512 L 6 496 L 6 496 L 6 340 L 6 340 Z M 6 144 L 22 144 L 6 144 L 111 144 L 115 151 L 115 151 L 183 256 L 183 256 L 227 256 L 227 256 L 206 172 L 206 172 L 203 156 L 203 156 L 234 149 L 234 149 L 238 164 L 238 164 L 291 384 L 291 384 Q 292 384 294 384 Q 335 386 352 421 L 498 385 L 498 385 L 506 416 L 506 416 L 358 453 L 358 453 Q 356 478 338 495 Q 320 511 294 512 Q 267 511 249 493 Q 231 475 230 448 Q 232 412 260 394 L 235 288 L 235 288 L 174 288 L 165 288 L 161 281 L 161 281 L 118 215 L 118 215 L 118 341 L 118 341 L 151 363 L 151 363 L 156 366 L 156 366 L 158 373 L 158 373 L 186 512 L 186 512 L 153 512 L 153 512 L 128 386 L 128 386 L 27 319 L 27 319 Q 7 304 6 279 L 6 160 L 6 160 L 6 144 L 6 144 Z M 86 319 L 86 176 L 86 319 L 86 176 L 38 176 L 38 176 L 38 279 L 38 279 Q 38 287 45 292 L 86 319 L 86 319 Z M 294 480 Q 308 480 317 471 L 317 471 L 317 471 Q 326 462 326 448 Q 326 434 317 425 Q 308 416 294 416 Q 280 416 271 425 Q 262 434 262 448 Q 262 462 271 471 Q 280 480 294 480 L 294 480 Z" />
</svg>