<svg xmlns="http://www.w3.org/2000/svg" viewBox="0 0 512 512">
  <path d="M 156.44444 116.44444 Q 159.11111 90.666664 176.88889 74.666664 L 176.88889 74.666664 L 176.88889 74.666664 Q 194.66667 57.77778 220.44444 56.88889 Q 256.8889 58.666668 275.55554 88 L 283.55554 101.333336 L 283.55554 101.333336 L 296 92.44444 L 296 92.44444 Q 306.66666 85.333336 320 85.333336 Q 336 85.333336 346.66666 95.111115 Q 358.22223 104 361.77777 119.111115 L 364.44446 129.77777 L 364.44446 129.77777 L 376 129.77777 L 384 129.77777 Q 401.77777 130.66667 414.22223 142.22223 Q 425.77777 154.66667 426.66666 172.44444 L 426.66666 199.11111 L 426.66666 199.11111 L 85.333336 199.11111 L 85.333336 199.11111 L 85.333336 172.44444 L 85.333336 172.44444 Q 86.22222 154.66667 97.77778 142.22223 Q 110.22222 130.66667 128 129.77777 L 142.22223 129.77777 L 155.55556 129.77777 L 156.44444 116.44444 L 156.44444 116.44444 Z M 220.44444 28.444445 Q 186.66667 29.333334 161.77777 49.77778 L 161.77777 49.77778 L 161.77777 49.77778 Q 137.77777 69.333336 129.77777 101.333336 L 128 101.333336 L 128 101.333336 Q 97.77778 102.22222 77.333336 122.666664 Q 57.77778 142.22223 56.88889 172.44444 L 56.88889 213.33333 L 56.88889 213.33333 L 56.88889 227.55556 L 56.88889 227.55556 L 71.111115 227.55556 L 455.1111 227.55556 L 455.1111 213.33333 L 455.1111 213.33333 L 455.1111 172.44444 L 455.1111 172.44444 Q 454.22223 143.11111 434.66666 123.55556 Q 415.1111 103.111115 385.77777 101.333336 Q 377.77777 81.77778 360 69.333336 Q 343.1111 56.88889 320 56.88889 Q 304.8889 56.88889 292.44446 62.22222 Q 264.8889 30.222221 220.44444 28.444445 L 220.44444 28.444445 Z M 170.66667 455.1111 Q 142.22223 453.33334 119.111115 436.44446 Q 100.44444 423.1111 85.333336 406.22223 Q 70.22222 423.1111 51.555557 436.44446 Q 28.444445 453.33334 0 455.1111 L 0 483.55554 L 0 483.55554 Q 20.444445 483.55554 37.333332 475.55554 Q 55.11111 468.44446 67.55556 459.55554 Q 78.22222 452.44446 85.333336 446.22223 Q 92.44444 452.44446 103.111115 459.55554 Q 115.55556 468.44446 133.33333 475.55554 Q 150.22223 483.55554 170.66667 483.55554 Q 191.11111 483.55554 208 475.55554 Q 225.77777 468.44446 238.22223 459.55554 Q 248.88889 452.44446 256 446.22223 Q 263.1111 452.44446 273.77777 459.55554 Q 286.22223 468.44446 304 475.55554 Q 320.8889 483.55554 341.33334 483.55554 Q 361.77777 483.55554 378.66666 475.55554 Q 396.44446 468.44446 408.8889 459.55554 Q 419.55554 452.44446 426.66666 446.22223 Q 433.77777 452.44446 444.44446 459.55554 Q 456.8889 468.44446 474.66666 475.55554 Q 491.55554 483.55554 512 483.55554 L 512 455.1111 L 512 455.1111 Q 483.55554 453.33334 460.44446 436.44446 Q 441.77777 423.1111 426.66666 406.22223 Q 411.55554 423.1111 392.8889 436.44446 Q 369.77777 453.33334 341.33334 455.1111 Q 312.8889 453.33334 289.77777 436.44446 Q 271.1111 423.1111 256 406.22223 Q 240.88889 423.1111 222.22223 436.44446 Q 199.11111 453.33334 170.66667 455.1111 L 170.66667 455.1111 Z M 120.888885 256 L 92.44444 256 L 120.888885 256 L 92.44444 256 L 28.444445 369.77777 L 28.444445 369.77777 L 56.88889 369.77777 L 56.88889 369.77777 L 120.888885 256 L 120.888885 256 Z M 199.11111 256 L 135.11111 369.77777 L 199.11111 256 L 135.11111 369.77777 L 163.55556 369.77777 L 163.55556 369.77777 L 227.55556 256 L 227.55556 256 L 199.11111 256 L 199.11111 256 Z M 305.77777 256 L 241.77777 369.77777 L 305.77777 256 L 241.77777 369.77777 L 270.22223 369.77777 L 270.22223 369.77777 L 334.22223 256 L 334.22223 256 L 305.77777 256 L 305.77777 256 Z M 348.44446 369.77777 L 376.8889 369.77777 L 348.44446 369.77777 L 376.8889 369.77777 L 440.8889 256 L 440.8889 256 L 412.44446 256 L 412.44446 256 L 348.44446 369.77777 L 348.44446 369.77777 Z" />
</svg>