<svg xmlns="http://www.w3.org/2000/svg" viewBox="0 0 512 512">
  <path d="M 32 168 Q 33 110 72 72 L 72 72 L 72 72 Q 110 33 168 32 Q 224 33 262 69 Q 300 106 304 161 Q 237 167 190 211 Q 143 255 131 320 Q 128 336 128 352 L 160 352 L 512 352 Q 512 336 509 320 Q 497 254 450 211 Q 403 167 336 161 Q 331 92 284 47 Q 237 2 168 0 Q 97 2 49 49 Q 2 97 0 168 L 0 496 L 0 496 L 0 512 L 0 512 L 32 512 L 32 512 L 32 496 L 32 496 L 32 168 L 32 168 Z M 320 192 Q 379 193 422 229 L 422 229 L 422 229 Q 465 264 477 320 L 163 320 L 163 320 Q 175 264 218 229 Q 261 193 320 192 L 320 192 Z M 242 384 Q 248 412 269 430 L 269 430 L 269 430 Q 290 447 320 448 Q 350 447 371 430 Q 392 412 398 384 L 365 384 L 365 384 Q 353 414 320 416 Q 287 414 275 384 L 242 384 L 242 384 Z" />
</svg>