<svg xmlns="http://www.w3.org/2000/svg" viewBox="0 0 576 515">
    <path d="M 167 0 Q 122 47 120 117 Q 120 156 137 190 Q 103 193 71 211 Q 20 240 0 290 Q 46 253 105 256 Q 164 259 204 321 Q 240 386 213 437 Q 186 488 130 507 Q 185 515 237 488 Q 268 470 288 444 Q 308 470 339 488 Q 391 515 446 507 Q 390 488 363 437 Q 336 386 372 321 Q 412 259 471 256 Q 531 253 576 290 Q 556 240 505 211 Q 473 193 439 190 Q 456 156 456 117 Q 454 47 409 0 Q 421 39 412 78 Q 403 118 372 145 Q 341 172 288 173 Q 235 172 204 145 Q 173 118 164 78 Q 155 39 167 0 L 167 0 Z M 240 269 Q 241 242 264 227 Q 288 215 312 227 Q 335 242 336 269 Q 335 296 312 311 Q 288 323 264 311 Q 241 296 240 269 L 240 269 Z M 288 61 Q 239 61 198 81 Q 201 90 206 98 Q 218 120 243 132 Q 264 125 288 125 Q 312 125 333 132 Q 358 120 370 98 Q 375 90 378 81 Q 337 61 288 61 L 288 61 Z M 191 376 Q 160 347 149 305 Q 126 290 102 288 Q 91 287 81 288 Q 86 337 110 376 Q 134 416 172 442 Q 179 433 184 423 Q 195 402 191 376 L 191 376 Z M 495 288 Q 485 287 474 288 Q 450 289 427 305 Q 416 347 385 376 Q 381 402 392 423 Q 397 433 404 442 Q 442 416 466 376 Q 490 337 495 288 L 495 288 Z"/>
</svg>
