<svg xmlns="http://www.w3.org/2000/svg" viewBox="0 0 512 512">
  <path d="M 25.640062597809077 76.51956181533646 L 282.0406885758998 76.51956181533646 L 25.640062597809077 76.51956181533646 L 282.0406885758998 76.51956181533646 L 282.0406885758998 204.71987480438185 L 282.0406885758998 204.71987480438185 Q 294.05946791862283 195.906103286385 307.6807511737089 189.4960876369327 L 307.6807511737089 76.51956181533646 L 307.6807511737089 76.51956181533646 L 307.6807511737089 50.87949921752739 L 307.6807511737089 50.87949921752739 L 282.0406885758998 50.87949921752739 L 0 50.87949921752739 L 0 76.51956181533646 L 0 76.51956181533646 L 0 435.4804381846635 L 0 435.4804381846635 L 0 461.1205007824726 L 0 461.1205007824726 L 25.640062597809077 461.1205007824726 L 307.6807511737089 461.1205007824726 L 307.6807511737089 435.4804381846635 L 307.6807511737089 435.4804381846635 L 307.6807511737089 425.0641627543036 L 307.6807511737089 425.0641627543036 Q 294.05946791862283 418.65414710485135 282.0406885758998 409.84037558685446 L 282.0406885758998 435.4804381846635 L 282.0406885758998 435.4804381846635 L 205.12050078247262 435.4804381846635 L 205.12050078247262 435.4804381846635 L 205.12050078247262 371.38028169014086 L 205.12050078247262 371.38028169014086 L 205.12050078247262 345.74021909233176 L 205.12050078247262 345.74021909233176 L 179.48043818466354 345.74021909233176 L 102.56025039123631 345.74021909233176 L 102.56025039123631 371.38028169014086 L 102.56025039123631 371.38028169014086 L 102.56025039123631 435.4804381846635 L 102.56025039123631 435.4804381846635 L 25.640062597809077 435.4804381846635 L 25.640062597809077 435.4804381846635 L 25.640062597809077 76.51956181533646 L 25.640062597809077 76.51956181533646 Z M 243.58059467918622 230.35993740219092 L 192.30046948356807 230.35993740219092 L 243.58059467918622 230.35993740219092 L 179.48043818466354 230.35993740219092 L 179.48043818466354 243.17996870109548 L 179.48043818466354 243.17996870109548 L 179.48043818466354 294.4600938967136 L 179.48043818466354 294.4600938967136 L 179.48043818466354 307.28012519561815 L 179.48043818466354 307.28012519561815 L 192.30046948356807 307.28012519561815 L 230.7605633802817 307.28012519561815 Q 231.5618153364632 263.2112676056338 256.4006259780908 230.35993740219092 L 243.58059467918622 230.35993740219092 L 243.58059467918622 230.35993740219092 Z M 128.2003129890454 435.4804381846635 L 128.2003129890454 371.38028169014086 L 128.2003129890454 435.4804381846635 L 128.2003129890454 371.38028169014086 L 179.48043818466354 371.38028169014086 L 179.48043818466354 371.38028169014086 L 179.48043818466354 435.4804381846635 L 179.48043818466354 435.4804381846635 L 128.2003129890454 435.4804381846635 L 128.2003129890454 435.4804381846635 Z M 51.280125195618155 127.79968701095461 L 51.280125195618155 140.61971830985917 L 51.280125195618155 127.79968701095461 L 51.280125195618155 140.61971830985917 L 51.280125195618155 191.89984350547732 L 51.280125195618155 191.89984350547732 L 51.280125195618155 204.71987480438185 L 51.280125195618155 204.71987480438185 L 64.1001564945227 204.71987480438185 L 128.2003129890454 204.71987480438185 L 128.2003129890454 191.89984350547732 L 128.2003129890454 191.89984350547732 L 128.2003129890454 140.61971830985917 L 128.2003129890454 140.61971830985917 L 128.2003129890454 127.79968701095461 L 128.2003129890454 127.79968701095461 L 115.38028169014085 127.79968701095461 L 51.280125195618155 127.79968701095461 Z M 76.92018779342723 153.4397496087637 L 102.56025039123631 153.4397496087637 L 76.92018779342723 153.4397496087637 L 102.56025039123631 153.4397496087637 L 102.56025039123631 179.07981220657277 L 102.56025039123631 179.07981220657277 L 76.92018779342723 179.07981220657277 L 76.92018779342723 179.07981220657277 L 76.92018779342723 153.4397496087637 L 76.92018779342723 153.4397496087637 Z M 192.30046948356807 127.79968701095461 L 179.48043818466354 127.79968701095461 L 192.30046948356807 127.79968701095461 L 179.48043818466354 127.79968701095461 L 179.48043818466354 140.61971830985917 L 179.48043818466354 140.61971830985917 L 179.48043818466354 191.89984350547732 L 179.48043818466354 191.89984350547732 L 179.48043818466354 204.71987480438185 L 179.48043818466354 204.71987480438185 L 192.30046948356807 204.71987480438185 L 256.4006259780908 204.71987480438185 L 256.4006259780908 191.89984350547732 L 256.4006259780908 191.89984350547732 L 256.4006259780908 140.61971830985917 L 256.4006259780908 140.61971830985917 L 256.4006259780908 127.79968701095461 L 256.4006259780908 127.79968701095461 L 243.58059467918622 127.79968701095461 L 192.30046948356807 127.79968701095461 Z M 205.12050078247262 179.07981220657277 L 205.12050078247262 153.4397496087637 L 205.12050078247262 179.07981220657277 L 205.12050078247262 153.4397496087637 L 230.7605633802817 153.4397496087637 L 230.7605633802817 153.4397496087637 L 230.7605633802817 179.07981220657277 L 230.7605633802817 179.07981220657277 L 205.12050078247262 179.07981220657277 L 205.12050078247262 179.07981220657277 Z M 51.280125195618155 230.35993740219092 L 51.280125195618155 243.17996870109548 L 51.280125195618155 230.35993740219092 L 51.280125195618155 243.17996870109548 L 51.280125195618155 294.4600938967136 L 51.280125195618155 294.4600938967136 L 51.280125195618155 307.28012519561815 L 51.280125195618155 307.28012519561815 L 64.1001564945227 307.28012519561815 L 128.2003129890454 307.28012519561815 L 128.2003129890454 294.4600938967136 L 128.2003129890454 294.4600938967136 L 128.2003129890454 243.17996870109548 L 128.2003129890454 243.17996870109548 L 128.2003129890454 230.35993740219092 L 128.2003129890454 230.35993740219092 L 115.38028169014085 230.35993740219092 L 51.280125195618155 230.35993740219092 Z M 76.92018779342723 256 L 102.56025039123631 256 L 76.92018779342723 256 L 102.56025039123631 256 L 102.56025039123631 281.64006259780905 L 102.56025039123631 281.64006259780905 L 76.92018779342723 281.64006259780905 L 76.92018779342723 281.64006259780905 L 76.92018779342723 256 L 76.92018779342723 256 Z M 205.12050078247262 281.64006259780905 L 205.12050078247262 256 L 205.12050078247262 281.64006259780905 L 205.12050078247262 256 L 230.7605633802817 256 L 230.7605633802817 256 L 230.7605633802817 281.64006259780905 L 230.7605633802817 281.64006259780905 L 205.12050078247262 281.64006259780905 L 205.12050078247262 281.64006259780905 Z M 358.9608763693271 230.35993740219092 Q 379.793427230047 230.35993740219092 397.4209702660407 240.77621283255087 L 397.4209702660407 240.77621283255087 L 397.4209702660407 240.77621283255087 Q 415.04851330203445 251.19248826291079 425.46478873239437 268.82003129890455 Q 435.8810641627543 287.2488262910798 435.8810641627543 307.28012519561815 Q 435.8810641627543 327.3114241001565 425.46478873239437 345.74021909233176 Q 415.04851330203445 364.16901408450707 397.4209702660407 373.78403755868544 Q 379.793427230047 384.20031298904536 358.9608763693271 384.20031298904536 Q 338.1283255086072 384.20031298904536 320.5007824726135 373.78403755868544 Q 302.8732394366197 364.16901408450707 292.4569640062598 345.74021909233176 Q 282.0406885758998 327.3114241001565 282.0406885758998 307.28012519561815 Q 282.0406885758998 287.2488262910798 292.4569640062598 268.82003129890455 Q 302.8732394366197 251.19248826291079 320.5007824726135 240.77621283255087 Q 338.1283255086072 230.35993740219092 358.9608763693271 230.35993740219092 L 358.9608763693271 230.35993740219092 Z M 358.9608763693271 409.84037558685446 Q 395.0172143974961 409.0391236306729 422.25978090766824 388.206572769953 L 484.75743348982786 450.7042253521127 L 484.75743348982786 450.7042253521127 L 493.57120500782474 459.5179968701095 L 493.57120500782474 459.5179968701095 L 512 441.8904538341158 L 512 441.8904538341158 L 502.38497652582157 432.2754303599374 L 502.38497652582157 432.2754303599374 L 439.88732394366195 370.5790297339593 L 439.88732394366195 370.5790297339593 Q 460.71987480438185 343.3364632237872 461.5211267605634 307.28012519561815 Q 460.71987480438185 264.01251956181534 431.8748043818466 235.16744913928014 Q 402.2284820031299 206.3223787167449 358.9608763693271 204.71987480438185 Q 315.69327073552427 206.3223787167449 286.0469483568075 235.16744913928014 Q 257.2018779342723 264.01251956181534 256.4006259780908 307.28012519561815 Q 257.2018779342723 351.3489827856025 286.0469483568075 380.1940532081377 Q 315.69327073552427 409.0391236306729 358.9608763693271 409.84037558685446 L 358.9608763693271 409.84037558685446 Z" />
</svg>