<svg xmlns="http://www.w3.org/2000/svg" viewBox="0 0 512 512">
  <path d="M 275.47205 20.617449 L 256 0 L 275.47205 20.617449 L 256 0 L 236.52797 20.617449 L 236.52797 20.617449 L 89.914986 171.81209 L 89.914986 171.81209 L 70.442955 192.42953 L 70.442955 192.42953 L 110.53244 230.2282 L 110.53244 230.2282 L 128.85905 210.75615 L 128.85905 210.75615 L 228.51007 107.66891 L 228.51007 107.66891 L 228.51007 337.8971 L 228.51007 337.8971 L 228.51007 365.38702 L 228.51007 365.38702 L 283.48993 365.38702 L 283.48993 365.38702 L 283.48993 337.8971 L 283.48993 337.8971 L 283.48993 107.66891 L 283.48993 107.66891 L 383.14093 210.75615 L 383.14093 210.75615 L 402.61298 230.2282 L 402.61298 230.2282 L 441.55704 192.42953 L 441.55704 192.42953 L 422.08502 171.81209 L 422.08502 171.81209 L 275.47205 20.617449 L 275.47205 20.617449 Z M 63.57047 457.02014 L 36.080536 457.02014 L 63.57047 457.02014 L 36.080536 457.02014 L 36.080536 512 L 36.080536 512 L 63.57047 512 L 475.91946 512 L 475.91946 457.02014 L 475.91946 457.02014 L 448.42953 457.02014 L 63.57047 457.02014 Z" />
</svg>