<svg xmlns="http://www.w3.org/2000/svg" viewBox="0 0 512 512">
  <path d="M 32 419 L 32 477 L 32 419 L 32 477 L 98 477 L 98 477 L 99 475 L 99 475 L 243 291 L 243 291 L 256 275 L 256 275 L 269 291 L 269 291 L 413 475 L 413 475 L 414 477 L 414 477 L 480 477 L 480 477 L 480 419 L 480 419 L 256 152 L 256 152 L 32 419 L 32 419 Z M 139 477 L 256 477 L 139 477 L 373 477 L 256 327 L 256 327 L 139 477 L 139 477 Z M 4 403 L 235 127 L 4 403 L 235 127 L 148 23 L 148 23 L 172 3 L 172 3 L 256 103 L 256 103 L 340 3 L 340 3 L 364 23 L 364 23 L 277 127 L 277 127 L 508 403 L 508 403 L 512 408 L 512 408 L 512 413 L 512 413 L 512 493 L 512 493 L 512 509 L 512 509 L 496 509 L 0 509 L 0 493 L 0 493 L 0 413 L 0 413 L 0 408 L 0 408 L 4 403 L 4 403 Z" />
</svg>