<svg xmlns="http://www.w3.org/2000/svg" viewBox="0 0 512 512">
  <path d="M 160 16 L 160 0 L 160 16 L 160 0 L 128 0 L 128 0 L 128 16 L 128 16 L 128 64 L 128 64 L 64 64 L 32 64 L 32 96 L 32 96 L 32 160 L 32 160 L 32 192 L 32 192 L 32 480 L 32 480 L 32 512 L 32 512 L 64 512 L 480 512 L 480 480 L 480 480 L 480 192 L 480 192 L 480 160 L 480 160 L 480 96 L 480 96 L 480 64 L 480 64 L 448 64 L 384 64 L 384 16 L 384 16 L 384 0 L 384 0 L 352 0 L 352 0 L 352 16 L 352 16 L 352 64 L 352 64 L 160 64 L 160 64 L 160 16 L 160 16 Z M 64 192 L 448 192 L 64 192 L 448 192 L 448 480 L 448 480 L 64 480 L 64 480 L 64 192 L 64 192 Z M 64 96 L 448 96 L 64 96 L 448 96 L 448 160 L 448 160 L 64 160 L 64 160 L 64 96 L 64 96 Z M 270 241 L 256 212 L 270 241 L 256 212 L 242 241 L 242 241 L 218 289 L 218 289 L 166 296 L 166 296 L 134 301 L 134 301 L 157 324 L 157 324 L 195 361 L 195 361 L 186 413 L 186 413 L 180 445 L 180 445 L 209 430 L 209 430 L 256 405 L 256 405 L 303 430 L 303 430 L 332 445 L 332 445 L 326 413 L 326 413 L 317 361 L 317 361 L 355 324 L 355 324 L 378 301 L 378 301 L 346 296 L 346 296 L 294 289 L 294 289 L 270 241 L 270 241 Z M 243 310 L 256 284 L 243 310 L 256 284 L 269 310 L 269 310 L 273 318 L 273 318 L 281 319 L 281 319 L 310 323 L 310 323 L 289 344 L 289 344 L 283 350 L 283 350 L 284 358 L 284 358 L 289 387 L 289 387 L 263 373 L 263 373 L 256 369 L 256 369 L 248 373 L 248 373 L 223 387 L 223 387 L 228 358 L 228 358 L 229 350 L 229 350 L 223 344 L 223 344 L 202 323 L 202 323 L 231 319 L 231 319 L 239 318 L 239 318 L 243 310 L 243 310 Z" />
</svg>