<svg xmlns="http://www.w3.org/2000/svg" viewBox="0 0 512 512">
  <path d="M 512 28.444445 L 312.8889 28.444445 L 512 28.444445 L 312.8889 28.444445 L 312.8889 85.333336 L 312.8889 85.333336 L 455.1111 85.333336 L 455.1111 85.333336 L 455.1111 341.33334 L 455.1111 341.33334 L 56.88889 341.33334 L 56.88889 341.33334 L 56.88889 85.333336 L 56.88889 85.333336 L 199.11111 85.333336 L 199.11111 85.333336 L 199.11111 28.444445 L 199.11111 28.444445 L 0 28.444445 L 0 28.444445 L 0 398.22223 L 0 398.22223 L 213.33333 398.22223 L 213.33333 398.22223 L 203.55556 426.66666 L 203.55556 426.66666 L 142.22223 426.66666 L 113.77778 426.66666 L 113.77778 483.55554 L 113.77778 483.55554 L 142.22223 483.55554 L 398.22223 483.55554 L 398.22223 426.66666 L 398.22223 426.66666 L 369.77777 426.66666 L 308.44446 426.66666 L 298.66666 398.22223 L 298.66666 398.22223 L 512 398.22223 L 512 398.22223 L 512 28.444445 L 512 28.444445 Z M 277.33334 49.77778 L 277.33334 28.444445 L 277.33334 49.77778 L 277.33334 28.444445 L 234.66667 28.444445 L 234.66667 28.444445 L 234.66667 49.77778 L 234.66667 49.77778 L 234.66667 204.44444 L 234.66667 204.44444 L 200 169.77777 L 200 169.77777 L 184.88889 154.66667 L 184.88889 154.66667 L 154.66667 184.88889 L 154.66667 184.88889 L 169.77777 200 L 169.77777 200 L 240.88889 271.1111 L 240.88889 271.1111 L 256 286.22223 L 256 286.22223 L 271.1111 271.1111 L 271.1111 271.1111 L 342.22223 200 L 342.22223 200 L 357.33334 184.88889 L 357.33334 184.88889 L 327.1111 154.66667 L 327.1111 154.66667 L 312 169.77777 L 312 169.77777 L 277.33334 204.44444 L 277.33334 204.44444 L 277.33334 49.77778 L 277.33334 49.77778 Z" />
</svg>