<svg xmlns="http://www.w3.org/2000/svg" viewBox="0 0 512 512">
  <path d="M 160 32 L 352 32 L 160 32 L 352 32 L 373 96 L 373 96 L 480 96 L 512 96 L 512 128 L 512 128 L 512 448 L 512 448 L 512 480 L 512 480 L 480 480 L 0 480 L 0 448 L 0 448 L 0 128 L 0 128 L 0 96 L 0 96 L 32 96 L 139 96 L 160 32 L 160 32 Z M 373 128 L 350 128 L 373 128 L 350 128 L 343 106 L 343 106 L 329 64 L 329 64 L 183 64 L 183 64 L 169 106 L 169 106 L 162 128 L 162 128 L 139 128 L 32 128 L 32 448 L 32 448 L 480 448 L 480 448 L 480 128 L 480 128 L 373 128 L 373 128 Z M 160 304 L 224 304 L 160 304 L 240 304 L 240 336 L 240 336 L 224 336 L 199 336 L 213 350 L 213 350 Q 231 368 256 368 Q 299 366 323 332 L 349 350 L 349 350 Q 334 373 310 386 Q 286 400 256 400 Q 218 399 190 373 L 176 359 L 176 359 L 176 384 L 176 384 L 176 400 L 176 400 L 144 400 L 144 400 L 144 384 L 144 384 L 144 320 L 144 320 L 144 304 L 144 304 L 160 304 L 160 304 Z M 368 272 L 352 272 L 368 272 L 272 272 L 272 240 L 272 240 L 288 240 L 313 240 L 299 226 L 299 226 Q 281 208 256 208 Q 213 210 189 244 L 163 226 L 163 226 Q 178 203 202 190 Q 226 176 256 176 Q 294 177 322 203 L 336 217 L 336 217 L 336 192 L 336 192 L 336 176 L 336 176 L 368 176 L 368 176 L 368 192 L 368 192 L 368 256 L 368 256 L 368 272 L 368 272 Z" />
</svg>