<svg xmlns="http://www.w3.org/2000/svg" viewBox="0 0 512 512">
  <path d="M 54.857142857142854 54.857142857142854 L 54.857142857142854 457.14285714285717 L 54.857142857142854 54.857142857142854 L 54.857142857142854 457.14285714285717 L 457.14285714285717 457.14285714285717 L 457.14285714285717 457.14285714285717 L 457.14285714285717 54.857142857142854 L 457.14285714285717 54.857142857142854 L 54.857142857142854 54.857142857142854 L 54.857142857142854 54.857142857142854 Z M 0 0 L 54.857142857142854 0 L 0 0 L 512 0 L 512 54.857142857142854 L 512 54.857142857142854 L 512 457.14285714285717 L 512 457.14285714285717 L 512 512 L 512 512 L 457.14285714285717 512 L 0 512 L 0 457.14285714285717 L 0 457.14285714285717 L 0 54.857142857142854 L 0 54.857142857142854 L 0 0 L 0 0 Z M 109.71428571428571 292.57142857142856 L 256 146.28571428571428 L 109.71428571428571 292.57142857142856 L 256 146.28571428571428 L 402.2857142857143 292.57142857142856 L 402.2857142857143 292.57142857142856 L 402.2857142857143 329.14285714285717 L 402.2857142857143 329.14285714285717 L 109.71428571428571 329.14285714285717 L 109.71428571428571 329.14285714285717 L 109.71428571428571 292.57142857142856 L 109.71428571428571 292.57142857142856 Z" />
</svg>