<svg xmlns="http://www.w3.org/2000/svg" viewBox="0 0 512 512">
  <path d="M 114.81212 486.6586 L 126.189896 474.24646 L 114.81212 486.6586 L 126.189896 474.24646 L 217.21213 383.22424 L 217.21213 383.22424 L 229.62424 371.84647 L 229.62424 371.84647 L 205.83435 348.05658 L 205.83435 348.05658 L 194.45656 360.4687 L 194.45656 360.4687 L 131.36162 422.5293 L 131.36162 422.5293 L 131.36162 40.856567 L 131.36162 40.856567 L 131.36162 24.30707 L 131.36162 24.30707 L 98.26263 24.30707 L 98.26263 24.30707 L 98.26263 40.856567 L 98.26263 40.856567 L 98.26263 422.5293 L 98.26263 422.5293 L 35.167675 360.4687 L 35.167675 360.4687 L 23.7899 348.05658 L 23.7899 348.05658 L 0 371.84647 L 0 371.84647 L 12.412121 383.22424 L 12.412121 383.22424 L 103.43434 474.24646 L 103.43434 474.24646 L 114.81212 486.6586 L 114.81212 486.6586 Z M 313.40607 189.80202 L 412.70303 189.80202 L 313.40607 189.80202 L 445.80203 189.80202 L 445.80203 156.70303 L 445.80203 156.70303 L 445.80203 57.40606 L 445.80203 57.40606 L 445.80203 24.30707 L 445.80203 24.30707 L 412.70303 24.30707 L 280.30707 24.30707 L 280.30707 57.40606 L 280.30707 57.40606 L 280.30707 156.70303 L 280.30707 156.70303 L 280.30707 189.80202 L 280.30707 189.80202 L 313.40607 189.80202 L 313.40607 189.80202 Z M 412.70303 156.70303 L 313.40607 156.70303 L 412.70303 156.70303 L 313.40607 156.70303 L 313.40607 57.40606 L 313.40607 57.40606 L 412.70303 57.40606 L 412.70303 57.40606 L 412.70303 156.70303 L 412.70303 156.70303 Z M 280.30707 487.69293 L 313.40607 487.69293 L 280.30707 487.69293 L 512 487.69293 L 512 454.59393 L 512 454.59393 L 512 289.099 L 512 289.099 L 512 256 L 512 256 L 478.901 256 L 280.30707 256 L 280.30707 289.099 L 280.30707 289.099 L 280.30707 454.59393 L 280.30707 454.59393 L 280.30707 487.69293 L 280.30707 487.69293 Z M 313.40607 289.099 L 478.901 289.099 L 313.40607 289.099 L 478.901 289.099 L 478.901 454.59393 L 478.901 454.59393 L 313.40607 454.59393 L 313.40607 454.59393 L 313.40607 289.099 L 313.40607 289.099 Z" />
</svg>