<svg xmlns="http://www.w3.org/2000/svg" viewBox="0 0 512 512">
  <path d="M 25.6 89.6 L 25.6 76.8 L 25.6 89.6 L 25.6 76.8 L 0 76.8 L 0 76.8 L 0 89.6 L 0 89.6 L 0 115.2 L 0 115.2 L 0 115.2 L 0 115.2 L 0 140.8 L 0 140.8 L 0 268.8 L 0 268.8 L 0 294.4 L 0 294.4 L 0 422.4 L 0 422.4 L 0 435.2 L 0 435.2 L 25.6 435.2 L 25.6 435.2 L 25.6 422.4 L 25.6 422.4 L 25.6 294.4 L 25.6 294.4 L 486.4 294.4 L 486.4 294.4 L 486.4 422.4 L 486.4 422.4 L 486.4 435.2 L 486.4 435.2 L 512 435.2 L 512 435.2 L 512 422.4 L 512 422.4 L 512 294.4 L 512 294.4 L 512 268.8 L 512 268.8 L 512 140.8 L 512 140.8 L 512 115.2 L 512 115.2 L 512 89.6 L 512 89.6 L 512 76.8 L 512 76.8 L 486.4 76.8 L 486.4 76.8 L 486.4 89.6 L 486.4 89.6 L 486.4 115.2 L 486.4 115.2 L 25.6 115.2 L 25.6 115.2 L 25.6 89.6 L 25.6 89.6 Z M 25.6 268.8 L 25.6 140.8 L 25.6 268.8 L 25.6 140.8 L 120 140.8 L 120 140.8 L 56 268.8 L 56 268.8 L 25.6 268.8 L 25.6 268.8 Z M 486.4 140.8 L 486.4 268.8 L 486.4 140.8 L 486.4 268.8 L 392 268.8 L 392 268.8 L 456 140.8 L 456 140.8 L 486.4 140.8 L 486.4 140.8 Z M 251.2 140.8 L 324.8 140.8 L 251.2 140.8 L 324.8 140.8 L 260.8 268.8 L 260.8 268.8 L 187.2 268.8 L 187.2 268.8 L 251.2 140.8 L 251.2 140.8 Z M 363.2 268.8 L 289.6 268.8 L 363.2 268.8 L 289.6 268.8 L 353.6 140.8 L 353.6 140.8 L 427.2 140.8 L 427.2 140.8 L 363.2 268.8 L 363.2 268.8 Z M 222.4 140.8 L 158.4 268.8 L 222.4 140.8 L 158.4 268.8 L 84.8 268.8 L 84.8 268.8 L 148.8 140.8 L 148.8 140.8 L 222.4 140.8 L 222.4 140.8 Z" />
</svg>