<svg xmlns="http://www.w3.org/2000/svg" viewBox="0 0 512 512">
  <path d="M 0 0 L 36.57142857142857 0 L 0 0 L 182.85714285714286 0 L 182.85714285714286 73.14285714285714 L 182.85714285714286 73.14285714285714 L 146.28571428571428 73.14285714285714 L 128 73.14285714285714 L 128 201.14285714285714 L 128 201.14285714285714 L 384 201.14285714285714 L 384 201.14285714285714 L 384 73.14285714285714 L 384 73.14285714285714 L 365.7142857142857 73.14285714285714 L 329.14285714285717 73.14285714285714 L 329.14285714285717 0 L 329.14285714285717 0 L 365.7142857142857 0 L 512 0 L 512 73.14285714285714 L 512 73.14285714285714 L 475.42857142857144 73.14285714285714 L 457.14285714285717 73.14285714285714 L 457.14285714285717 237.71428571428572 L 457.14285714285717 237.71428571428572 L 457.14285714285717 438.85714285714283 L 457.14285714285717 438.85714285714283 L 475.42857142857144 438.85714285714283 L 512 438.85714285714283 L 512 512 L 512 512 L 475.42857142857144 512 L 329.14285714285717 512 L 329.14285714285717 438.85714285714283 L 329.14285714285717 438.85714285714283 L 365.7142857142857 438.85714285714283 L 384 438.85714285714283 L 384 274.2857142857143 L 384 274.2857142857143 L 128 274.2857142857143 L 128 274.2857142857143 L 128 438.85714285714283 L 128 438.85714285714283 L 146.28571428571428 438.85714285714283 L 182.85714285714286 438.85714285714283 L 182.85714285714286 512 L 182.85714285714286 512 L 146.28571428571428 512 L 0 512 L 0 438.85714285714283 L 0 438.85714285714283 L 36.57142857142857 438.85714285714283 L 54.857142857142854 438.85714285714283 L 54.857142857142854 237.71428571428572 L 54.857142857142854 237.71428571428572 L 54.857142857142854 73.14285714285714 L 54.857142857142854 73.14285714285714 L 36.57142857142857 73.14285714285714 L 0 73.14285714285714 L 0 0 L 0 0 Z" />
</svg>