<svg xmlns="http://www.w3.org/2000/svg" viewBox="0 0 512 512">
  <path d="M 435.2 244 L 435.2 236.8 L 435.2 244 L 435.2 236.8 Q 434.4 201.6 411.2 177.6 Q 387.2 154.4 352 153.6 Q 336 153.6 321.6 159.2 L 302.4 167.2 L 302.4 167.2 L 291.2 149.6 L 291.2 149.6 Q 276.8 128 254.4 115.2 Q 232 102.4 204.8 102.4 Q 161.6 103.2 132 132 Q 103.2 161.6 102.4 204.8 L 102.4 211.2 L 102.4 211.2 L 102.4 229.6 L 102.4 229.6 L 85.6 235.2 L 85.6 235.2 Q 58.4 245.6 42.4 268 Q 26.4 290.4 25.6 320 L 25.6 409.6 L 25.6 409.6 L 115.2 409.6 L 486.4 409.6 L 486.4 332.8 L 486.4 332.8 Q 486.4 311.2 476 293.6 Q 465.6 276.8 448 266.4 L 435.2 259.2 L 435.2 259.2 L 435.2 244 L 435.2 244 Z M 0 320 Q 0.8 281.6 21.6 252.8 L 21.6 252.8 L 21.6 252.8 Q 42.4 224 76.8 211.2 L 76.8 204.8 L 76.8 204.8 Q 78.4 150.4 114.4 114.4 Q 150.4 78.4 204.8 76.8 Q 239.2 76.8 267.2 92.8 Q 295.2 108.8 312.8 135.2 Q 331.2 128 352 128 Q 398.4 128.8 428.8 160 Q 460 190.4 460.8 236.8 L 460.8 244 L 460.8 244 Q 484 257.6 497.6 280.8 Q 512 304 512 332.8 L 512 409.6 L 512 409.6 L 512 435.2 L 512 435.2 L 486.4 435.2 L 0 435.2 L 0 409.6 L 0 409.6 L 0 320 L 0 320 Z M 183.2 290.4 L 173.6 281.6 L 183.2 290.4 L 173.6 281.6 L 192 263.2 L 192 263.2 L 200.8 272.8 L 200.8 272.8 L 243.2 314.4 L 243.2 314.4 L 243.2 192 L 243.2 192 L 243.2 179.2 L 243.2 179.2 L 268.8 179.2 L 268.8 179.2 L 268.8 192 L 268.8 192 L 268.8 314.4 L 268.8 314.4 L 311.2 272.8 L 311.2 272.8 L 320 263.2 L 320 263.2 L 338.4 281.6 L 338.4 281.6 L 328.8 290.4 L 328.8 290.4 L 264.8 354.4 L 264.8 354.4 L 256 364 L 256 364 L 247.2 354.4 L 247.2 354.4 L 183.2 290.4 L 183.2 290.4 Z" />
</svg>