<svg xmlns="http://www.w3.org/2000/svg" viewBox="0 0 512 512">
  <path d="M 179 0 L 192 0 L 179 0 L 333 0 L 340 11 L 340 11 L 386 80 L 386 80 L 400 80 L 480 80 L 480 128 L 480 128 L 444 128 L 444 128 L 416 512 L 416 512 L 96 512 L 96 512 L 68 128 L 68 128 L 32 128 L 32 128 L 32 80 L 32 80 L 64 80 L 126 80 L 172 11 L 172 11 L 179 0 L 179 0 Z M 184 80 L 329 80 L 184 80 L 329 80 L 307 48 L 307 48 L 205 48 L 205 48 L 184 80 L 184 80 Z M 116 128 L 141 464 L 116 128 L 141 464 L 371 464 L 371 464 L 396 128 L 396 128 L 116 128 L 116 128 Z" />
</svg>