<svg xmlns="http://www.w3.org/2000/svg" viewBox="0 0 512 512">
  <path d="M 256 0 L 226 0 L 256 0 L 226 0 L 243 25 L 243 25 L 254 41 L 254 41 Q 256 45 256 49 Q 255 63 241 64 L 167 64 L 167 64 Q 137 65 117 85 Q 97 105 96 135 Q 96 149 101 161 Q 71 166 52 187 Q 33 209 32 240 L 32 304 L 32 304 L 32 320 L 32 320 L 48 320 L 480 320 L 480 304 L 480 304 L 480 240 L 480 240 Q 479 208 459 186 Q 440 164 409 161 Q 416 146 416 129 Q 415 74 378 38 Q 342 1 287 0 L 256 0 L 256 0 Z M 288 49 Q 288 40 285 32 L 287 32 L 287 32 Q 328 33 356 60 Q 383 88 384 129 Q 383 148 370 160 L 280 160 L 264 160 L 264 192 L 264 192 L 280 192 L 400 192 Q 420 193 434 206 Q 447 220 448 240 L 448 288 L 448 288 L 64 288 L 64 288 L 64 240 L 64 240 Q 65 220 78 206 Q 92 193 112 192 L 128 192 L 184 192 L 184 160 L 184 160 L 168 160 L 137 160 Q 128 150 128 135 Q 128 119 140 107 Q 151 96 167 96 L 241 96 L 241 96 Q 261 96 274 82 Q 287 69 288 49 L 288 49 Z M 32 352 Q 33 393 60 420 L 60 420 L 60 420 Q 87 447 128 448 L 182 448 L 182 448 L 162 489 L 162 489 L 150 512 L 150 512 L 176 512 L 362 512 L 350 489 L 350 489 L 330 448 L 330 448 L 384 448 L 384 448 Q 425 447 452 420 Q 479 393 480 352 L 448 352 L 448 352 Q 447 379 429 397 Q 411 415 384 416 L 304 416 L 278 416 L 290 439 L 290 439 L 310 480 L 310 480 L 202 480 L 202 480 L 222 439 L 222 439 L 234 416 L 234 416 L 208 416 L 128 416 Q 101 415 83 397 Q 65 379 64 352 L 32 352 L 32 352 Z" />
</svg>