<svg xmlns="http://www.w3.org/2000/svg" viewBox="0 0 512 512">
  <path d="M 272 0 L 272 16 L 272 0 L 272 16 L 272 32 L 272 32 L 288 32 L 304 32 L 304 64 L 304 64 L 288 64 L 272 64 L 272 96 L 272 96 L 320 96 L 352 96 L 352 128 L 352 128 L 352 152 L 352 152 L 319 224 L 319 224 L 328 224 L 344 224 L 344 256 L 344 256 L 328 256 L 314 256 L 327 352 L 327 352 L 295 352 L 295 352 L 282 256 L 282 256 L 230 256 L 230 256 L 217 352 L 217 352 L 185 352 L 185 352 L 198 256 L 198 256 L 184 256 L 168 256 L 168 224 L 168 224 L 184 224 L 193 224 L 160 152 L 160 152 L 160 128 L 160 128 L 160 96 L 160 96 L 192 96 L 240 96 L 240 64 L 240 64 L 224 64 L 208 64 L 208 32 L 208 32 L 224 32 L 240 32 L 240 16 L 240 16 L 240 0 L 240 0 L 272 0 L 272 0 Z M 228 224 L 284 224 L 228 224 L 284 224 L 320 145 L 320 145 L 320 128 L 320 128 L 272 128 L 192 128 L 192 145 L 192 145 L 228 224 L 228 224 Z M 160 480 L 352 480 L 160 480 L 352 480 L 352 463 L 352 463 L 319 416 L 319 416 L 193 416 L 193 416 L 160 463 L 160 463 L 160 480 L 160 480 Z M 128 480 L 128 453 L 128 480 L 128 453 L 176 384 L 176 384 L 336 384 L 336 384 L 384 453 L 384 453 L 384 480 L 384 480 L 384 512 L 384 512 L 352 512 L 128 512 L 128 480 L 128 480 Z" />
</svg>