<svg xmlns="http://www.w3.org/2000/svg" viewBox="0 0 528 511">
    <path d="M 119 45 L 96 53 L 48 72 L 48 199 Q 49 243 78 273 Q 108 302 152 303 L 160 303 L 168 303 Q 212 302 242 273 Q 271 243 272 199 L 272 72 L 224 54 L 201 45 L 218 0 L 241 9 L 305 33 L 320 38 L 320 55 L 320 199 Q 319 259 281 301 Q 243 343 184 350 Q 188 399 222 430 Q 255 462 304 463 Q 355 462 389 428 Q 423 394 424 343 L 424 267 Q 399 259 384 239 Q 368 218 368 191 Q 369 157 391 134 Q 414 112 448 111 Q 482 112 505 134 Q 527 157 528 191 Q 528 218 512 239 Q 497 259 472 267 L 472 343 Q 470 414 423 462 Q 375 509 304 511 Q 235 509 188 464 Q 141 419 136 350 Q 77 343 39 301 Q 1 259 0 199 L 0 55 L 0 38 L 16 33 L 80 9 L 102 0 L 119 45 L 119 45 Z M 448 159 Q 434 159 425 168 L 425 168 Q 416 177 416 191 Q 416 205 425 214 Q 434 223 448 223 Q 462 223 471 214 Q 480 205 480 191 Q 480 177 471 168 Q 462 159 448 159 L 448 159 Z"/>
</svg>
