<svg xmlns="http://www.w3.org/2000/svg" viewBox="0 0 416 448">
    <path d="M 80 0 L 48 0 L 48 32 L 48 97 Q 49 140 77 173 L 109 207 L 45 254 Q 1 289 0 344 L 0 416 L 0 448 L 32 448 L 224 448 L 241 448 L 251 434 L 278 392 L 329 448 L 416 448 L 400 430 L 315 338 L 379 242 L 396 215 L 343 180 L 325 206 L 270 289 L 203 216 L 243 186 Q 287 151 288 96 L 288 32 L 288 0 L 256 0 L 80 0 L 80 0 Z M 205 134 L 160 168 L 125 129 Q 112 116 112 97 L 112 64 L 224 64 L 224 96 Q 223 120 205 134 L 205 134 Z M 83 306 L 152 254 L 234 344 L 207 384 L 64 384 L 64 344 Q 65 320 83 306 L 83 306 Z"/>
</svg>
