<svg xmlns="http://www.w3.org/2000/svg" viewBox="0 0 512 512">
  <path d="M 486.68765 282.46292 L 512 256 L 486.68765 282.46292 L 512 256 L 486.68765 229.53708 L 486.68765 229.53708 L 321.00674 63.85618 L 321.00674 63.85618 L 294.54382 38.54382 L 294.54382 38.54382 L 242.76854 90.3191 L 242.76854 90.3191 L 268.0809 116.78202 L 268.0809 116.78202 L 371.63147 219.18202 L 371.63147 219.18202 L 36.817978 219.18202 L 0 219.18202 L 0 292.81796 L 0 292.81796 L 36.817978 292.81796 L 371.63147 292.81796 L 268.0809 395.218 L 268.0809 395.218 L 242.76854 421.6809 L 242.76854 421.6809 L 294.54382 473.45618 L 294.54382 473.45618 L 321.00674 448.14383 L 321.00674 448.14383 L 486.68765 282.46292 L 486.68765 282.46292 Z" />
</svg>