<svg viewBox="0 0 448 512">
  <path
    d="M 224 48 Q 190 49 167 71 L 167 71 Q 145 94 144 128 L 144 160 Q 145 191 164 212 Q 182 234 212 239 L 212 224 L 212 212 L 236 212 L 236 224 L 236 239 Q 266 234 284 212 Q 303 191 304 160 L 304 128 Q 303 94 281 71 Q 258 49 224 48 L 224 48 Z M 96 128 Q 97 74 133 37 L 133 37 Q 170 1 224 0 Q 278 1 315 37 Q 351 74 352 128 L 352 160 L 352 168 L 384 208 L 384 272 L 286 272 Q 258 288 224 288 Q 190 288 162 272 L 64 272 L 64 208 L 96 168 L 96 160 L 96 128 L 96 128 Z M 192 112 Q 207 113 208 128 Q 207 143 192 144 Q 177 143 176 128 Q 177 113 192 112 L 192 112 Z M 240 128 Q 241 113 256 112 Q 271 113 272 128 Q 271 143 256 144 Q 241 143 240 128 L 240 128 Z M 224 159 L 233 168 Q 236 171 243 176 Q 251 180 256 180 L 268 180 L 268 204 L 256 204 Q 241 203 231 196 Q 227 194 224 192 Q 204 205 192 204 L 180 204 L 180 180 L 192 180 Q 197 182 216 168 L 224 159 L 224 159 Z M 240 416 Q 239 431 224 432 Q 209 431 208 416 L 144 416 L 96 448 L 96 390 L 96 376 L 67 464 L 208 464 Q 209 449 224 448 Q 239 449 240 464 L 381 464 L 352 376 L 352 390 L 352 448 L 304 416 L 240 416 L 240 416 Z M 304 360 L 296 352 L 152 352 L 144 360 L 144 368 L 304 368 L 304 360 L 304 360 Z M 112 320 L 128 304 L 320 304 L 336 320 L 384 320 L 432 464 L 448 512 L 397 512 L 51 512 L 0 512 L 16 464 L 64 320 L 112 320 L 112 320 Z"
  />
</svg>