<svg xmlns="http://www.w3.org/2000/svg" viewBox="0 0 512 512">
  <path d="M 372.28169014084506 147.83098591549296 L 388.50704225352115 89.2394366197183 L 372.28169014084506 147.83098591549296 L 388.50704225352115 89.2394366197183 L 475.943661971831 110.87323943661971 L 475.943661971831 110.87323943661971 L 446.19718309859155 220.8450704225352 L 446.19718309859155 220.8450704225352 L 469.63380281690144 244.28169014084506 L 469.63380281690144 244.28169014084506 L 504.7887323943662 118.08450704225352 L 504.7887323943662 118.08450704225352 L 512 90.14084507042253 L 512 90.14084507042253 L 484.056338028169 82.92957746478874 L 484.056338028169 82.92957746478874 L 367.77464788732397 54.08450704225352 L 367.77464788732397 54.08450704225352 L 348.84507042253523 124.3943661971831 L 348.84507042253523 124.3943661971831 L 372.28169014084506 147.83098591549296 L 372.28169014084506 147.83098591549296 Z M 319.09859154929575 256 L 324.50704225352115 234.3661971830986 L 319.09859154929575 256 L 324.50704225352115 234.3661971830986 L 336.22535211267603 192.90140845070422 L 336.22535211267603 192.90140845070422 L 444.3943661971831 301.07042253521126 L 444.3943661971831 301.07042253521126 L 409.23943661971833 429.07042253521126 L 409.23943661971833 429.07042253521126 L 194.70422535211267 429.07042253521126 L 194.70422535211267 429.07042253521126 L 194.70422535211267 256 L 194.70422535211267 256 L 296.5633802816901 256 L 319.09859154929575 256 Z M 312.7887323943662 169.46478873239437 L 296.5633802816901 227.1549295774648 L 312.7887323943662 169.46478873239437 L 296.5633802816901 227.1549295774648 L 194.70422535211267 227.1549295774648 L 165.85915492957747 227.1549295774648 L 165.85915492957747 256 L 165.85915492957747 256 L 165.85915492957747 429.07042253521126 L 165.85915492957747 429.07042253521126 L 165.85915492957747 457.9154929577465 L 165.85915492957747 457.9154929577465 L 194.70422535211267 457.9154929577465 L 431.77464788732397 457.9154929577465 L 476.84507042253523 292.9577464788732 L 476.84507042253523 292.9577464788732 L 344.3380281690141 160.45070422535213 L 344.3380281690141 160.45070422535213 L 320.90140845070425 137.01408450704224 L 320.90140845070425 137.01408450704224 L 312.7887323943662 169.46478873239437 L 312.7887323943662 169.46478873239437 Z M 21.633802816901408 277.63380281690144 Q 41.46478873239437 275.83098591549293 43.267605633802816 256 Q 41.46478873239437 236.16901408450704 21.633802816901408 234.3661971830986 Q 1.8028169014084507 236.16901408450704 0 256 Q 1.8028169014084507 275.83098591549293 21.633802816901408 277.63380281690144 L 21.633802816901408 277.63380281690144 Z M 108.16901408450704 320.90140845070425 Q 128 319.09859154929575 129.80281690140845 299.2676056338028 Q 128 279.4366197183099 108.16901408450704 277.63380281690144 Q 88.33802816901408 279.4366197183099 86.53521126760563 299.2676056338028 Q 88.33802816901408 319.09859154929575 108.16901408450704 320.90140845070425 L 108.16901408450704 320.90140845070425 Z M 43.267605633802816 342.53521126760563 Q 41.46478873239437 322.7042253521127 21.633802816901408 320.90140845070425 Q 1.8028169014084507 322.7042253521127 0 342.53521126760563 Q 1.8028169014084507 362.36619718309856 21.633802816901408 364.16901408450707 Q 41.46478873239437 362.36619718309856 43.267605633802816 342.53521126760563 L 43.267605633802816 342.53521126760563 Z M 108.16901408450704 407.4366197183099 Q 128 405.63380281690144 129.80281690140845 385.80281690140845 Q 128 365.9718309859155 108.16901408450704 364.16901408450707 Q 88.33802816901408 365.9718309859155 86.53521126760563 385.80281690140845 Q 88.33802816901408 405.63380281690144 108.16901408450704 407.4366197183099 L 108.16901408450704 407.4366197183099 Z M 43.267605633802816 429.07042253521126 Q 41.46478873239437 409.23943661971833 21.633802816901408 407.4366197183099 Q 1.8028169014084507 409.23943661971833 0 429.07042253521126 Q 1.8028169014084507 448.90140845070425 21.633802816901408 450.7042253521127 Q 41.46478873239437 448.90140845070425 43.267605633802816 429.07042253521126 L 43.267605633802816 429.07042253521126 Z" />
</svg>