<svg xmlns="http://www.w3.org/2000/svg" viewBox="0 0 512 512">
  <path d="M 144 16 L 128 16 L 144 16 L 128 16 L 128 32 L 128 32 L 128 112 L 128 112 L 32 112 L 0 112 L 0 144 L 0 144 L 0 464 L 0 464 L 0 496 L 0 496 L 32 496 L 512 496 L 512 464 L 512 464 L 512 144 L 512 144 L 512 112 L 512 112 L 480 112 L 384 112 L 384 32 L 384 32 L 384 16 L 384 16 L 368 16 L 144 16 Z M 352 112 L 160 112 L 352 112 L 160 112 L 160 48 L 160 48 L 352 48 L 352 48 L 352 112 L 352 112 Z M 144 144 L 368 144 L 144 144 L 480 144 L 480 272 L 480 272 L 336 272 L 32 272 L 32 144 L 32 144 L 144 144 L 144 144 Z M 480 304 L 480 464 L 480 304 L 480 464 L 32 464 L 32 464 L 32 304 L 32 304 L 176 304 L 176 304 L 176 352 L 176 352 L 176 384 L 176 384 L 208 384 L 336 384 L 336 352 L 336 352 L 336 304 L 336 304 L 480 304 L 480 304 Z M 208 304 L 304 304 L 208 304 L 304 304 L 304 352 L 304 352 L 208 352 L 208 352 L 208 304 L 208 304 Z" />
</svg>