<svg xmlns="http://www.w3.org/2000/svg" viewBox="0 0 512 512">
  <path d="M 193.00946 62.182964 L 193.00946 49.26183 L 193.00946 62.182964 L 193.00946 49.26183 L 167.16719 49.26183 L 167.16719 49.26183 L 167.16719 62.182964 L 167.16719 62.182964 L 167.16719 121.13564 L 167.16719 121.13564 L 137.28706 92.063095 L 137.28706 92.063095 L 128.40378 82.37224 L 128.40378 82.37224 L 109.82965 100.94637 L 109.82965 100.94637 L 119.52051 109.82965 L 119.52051 109.82965 L 167.16719 158.2839 L 167.16719 158.2839 L 167.16719 233.38802 L 167.16719 233.38802 L 101.753944 196.23975 L 101.753944 196.23975 L 83.98738 130.82649 L 83.98738 130.82649 L 80.757095 117.905365 L 80.757095 117.905365 L 55.722397 124.36593 L 55.722397 124.36593 L 58.952682 137.28706 L 58.952682 137.28706 L 70.258675 177.66562 L 70.258675 177.66562 L 12.921136 144.5552 L 12.921136 144.5552 L 0 167.16719 L 0 167.16719 L 57.33754 200.2776 L 57.33754 200.2776 L 16.95899 210.77603 L 16.95899 210.77603 L 4.0378547 214.0063 L 4.0378547 214.0063 L 10.498423 239.04102 L 10.498423 239.04102 L 23.419558 235.81073 L 23.419558 235.81073 L 88.83281 218.04416 L 88.83281 218.04416 L 154.24606 256 L 154.24606 256 L 88.83281 293.95584 L 88.83281 293.95584 L 23.419558 276.18927 L 23.419558 276.18927 L 10.498423 272.95898 L 10.498423 272.95898 L 4.0378547 297.99368 L 4.0378547 297.99368 L 16.95899 301.22397 L 16.95899 301.22397 L 57.33754 311.7224 L 57.33754 311.7224 L 0 344.8328 L 0 344.8328 L 12.921136 367.4448 L 12.921136 367.4448 L 70.258675 334.33438 L 70.258675 334.33438 L 58.952682 374.71292 L 58.952682 374.71292 L 55.722397 387.63406 L 55.722397 387.63406 L 80.757095 394.09464 L 80.757095 394.09464 L 83.98738 381.98108 L 83.98738 381.98108 L 101.753944 316.5678 L 101.753944 316.5678 L 167.16719 278.612 L 167.16719 278.612 L 167.16719 353.7161 L 167.16719 353.7161 L 119.52051 402.17035 L 119.52051 402.17035 L 109.82965 411.05362 L 109.82965 411.05362 L 128.40378 429.62775 L 128.40378 429.62775 L 137.28706 419.93692 L 137.28706 419.93692 L 167.16719 390.86435 L 167.16719 390.86435 L 167.16719 449.81705 L 167.16719 449.81705 L 167.16719 462.73816 L 167.16719 462.73816 L 193.00946 462.73816 L 193.00946 462.73816 L 193.00946 449.81705 L 193.00946 449.81705 L 193.00946 390.86435 L 193.00946 390.86435 L 222.88959 419.93692 L 222.88959 419.93692 L 231.77287 429.62775 L 231.77287 429.62775 L 250.347 411.05362 L 250.347 411.05362 L 240.65616 402.17035 L 240.65616 402.17035 L 193.00946 353.7161 L 193.00946 353.7161 L 193.00946 278.612 L 193.00946 278.612 L 258.4227 316.5678 L 258.4227 316.5678 L 276.18927 381.98108 L 276.18927 381.98108 L 279.41956 394.09464 L 279.41956 394.09464 L 304.45425 387.63406 L 304.45425 387.63406 L 301.22397 374.71292 L 301.22397 374.71292 L 289.91797 334.33438 L 289.91797 334.33438 L 347.25552 367.4448 L 347.25552 367.4448 L 360.17667 344.8328 L 360.17667 344.8328 L 302.8391 311.7224 L 302.8391 311.7224 L 343.21765 301.22397 L 343.21765 301.22397 L 356.1388 297.99368 L 356.1388 297.99368 L 349.67822 272.95898 L 349.67822 272.95898 L 336.7571 276.18927 L 336.7571 276.18927 L 271.34384 293.95584 L 271.34384 293.95584 L 205.9306 256 L 205.9306 256 L 271.34384 218.04416 L 271.34384 218.04416 L 336.7571 235.81073 L 336.7571 235.81073 L 349.67822 239.04102 L 349.67822 239.04102 L 356.1388 214.0063 L 356.1388 214.0063 L 343.21765 210.77603 L 343.21765 210.77603 L 302.8391 200.2776 L 302.8391 200.2776 L 360.17667 167.16719 L 360.17667 167.16719 L 347.25552 144.5552 L 347.25552 144.5552 L 289.91797 177.66562 L 289.91797 177.66562 L 301.22397 137.28706 L 301.22397 137.28706 L 304.45425 124.36593 L 304.45425 124.36593 L 279.41956 117.905365 L 279.41956 117.905365 L 276.18927 130.82649 L 276.18927 130.82649 L 258.4227 196.23975 L 258.4227 196.23975 L 193.00946 233.38802 L 193.00946 233.38802 L 193.00946 158.2839 L 193.00946 158.2839 L 240.65616 109.82965 L 240.65616 109.82965 L 250.347 100.94637 L 250.347 100.94637 L 231.77287 82.37224 L 231.77287 82.37224 L 222.88959 92.063095 L 222.88959 92.063095 L 193.00946 121.13564 L 193.00946 121.13564 L 193.00946 62.182964 L 193.00946 62.182964 Z M 452.23975 262.46057 L 429.62775 285.88013 L 452.23975 262.46057 L 429.62775 285.88013 L 447.39432 303.6467 L 447.39432 303.6467 L 470.81387 281.0347 L 470.81387 281.0347 L 494.23343 303.6467 L 494.23343 303.6467 L 512 285.88013 L 512 285.88013 L 489.388 262.46057 L 489.388 262.46057 L 512 239.04102 L 512 239.04102 L 494.23343 221.27444 L 494.23343 221.27444 L 470.81387 243.88643 L 470.81387 243.88643 L 447.39432 221.27444 L 447.39432 221.27444 L 429.62775 239.04102 L 429.62775 239.04102 L 452.23975 262.46057 L 452.23975 262.46057 Z M 390.86435 71.066246 L 413.47635 94.4858 L 390.86435 71.066246 L 413.47635 94.4858 L 390.86435 117.905365 L 390.86435 117.905365 L 408.63092 135.67192 L 408.63092 135.67192 L 432.05048 113.05994 L 432.05048 113.05994 L 455.47003 135.67192 L 455.47003 135.67192 L 473.2366 117.905365 L 473.2366 117.905365 L 450.6246 94.4858 L 450.6246 94.4858 L 473.2366 71.066246 L 473.2366 71.066246 L 455.47003 53.299686 L 455.47003 53.299686 L 432.05048 75.911674 L 432.05048 75.911674 L 408.63092 53.299686 L 408.63092 53.299686 L 390.86435 71.066246 L 390.86435 71.066246 Z" />
</svg>