<svg xmlns="http://www.w3.org/2000/svg" viewBox="0 0 512 512">
  <path d="M 273 17 L 256 1 L 273 17 L 256 1 L 239 17 L 239 17 L 127 126 L 127 126 L 110 143 L 110 143 L 144 177 L 144 177 L 161 160 L 161 160 L 232 91 L 232 91 L 232 351 L 232 351 L 232 375 L 232 375 L 280 375 L 280 375 L 280 351 L 280 351 L 280 91 L 280 91 L 351 160 L 351 160 L 369 177 L 369 177 L 402 143 L 402 143 L 385 126 L 385 126 L 273 17 L 273 17 Z M 24 31 L 0 31 L 24 31 L 0 31 L 0 55 L 0 55 L 0 487 L 0 487 L 0 511 L 0 511 L 24 511 L 512 511 L 512 487 L 512 487 L 512 55 L 512 55 L 512 31 L 512 31 L 488 31 L 392 31 L 392 79 L 392 79 L 416 79 L 464 79 L 464 463 L 464 463 L 48 463 L 48 463 L 48 79 L 48 79 L 96 79 L 120 79 L 120 31 L 120 31 L 96 31 L 24 31 Z" />
</svg>