<svg xmlns="http://www.w3.org/2000/svg" viewBox="0 0 512 512">
  <path d="M 0 128 L 0 85.333336 L 0 128 L 0 85.333336 L 42.666668 85.333336 L 512 85.333336 L 512 128 L 512 128 L 512 170.66667 L 512 170.66667 L 512 213.33333 L 512 213.33333 Q 494.22223 214.22223 481.77777 225.77777 Q 470.22223 238.22223 469.33334 256 Q 470.22223 273.77777 481.77777 286.22223 Q 494.22223 297.77777 512 298.66666 L 512 341.33334 L 512 341.33334 L 512 384 L 512 384 L 512 426.66666 L 512 426.66666 L 469.33334 426.66666 L 0 426.66666 L 0 384 L 0 384 L 0 341.33334 L 0 341.33334 L 0 298.66666 L 0 298.66666 Q 17.777779 297.77777 30.222221 286.22223 Q 41.77778 273.77777 42.666668 256 Q 41.77778 238.22223 30.222221 225.77777 Q 17.777779 214.22223 0 213.33333 L 0 170.66667 L 0 170.66667 L 0 128 L 0 128 Z M 42.666668 182.22223 Q 62.22222 193.77777 73.77778 212.44444 L 73.77778 212.44444 L 73.77778 212.44444 Q 85.333336 232 85.333336 256 Q 85.333336 280 73.77778 299.55554 Q 62.22222 318.22223 42.666668 329.77777 L 42.666668 384 L 42.666668 384 L 469.33334 384 L 469.33334 384 L 469.33334 329.77777 L 469.33334 329.77777 Q 449.77777 318.22223 438.22223 299.55554 Q 426.66666 280 426.66666 256 Q 426.66666 232 438.22223 212.44444 Q 449.77777 193.77777 469.33334 182.22223 L 469.33334 128 L 469.33334 128 L 42.666668 128 L 42.666668 128 L 42.666668 182.22223 L 42.666668 182.22223 Z" />
</svg>