<svg xmlns="http://www.w3.org/2000/svg" viewBox="0 0 448 512">
    <path d="M 32 156 Q 32 158 32 160 L 120 160 L 328 160 L 416 160 Q 416 158 416 156 Q 416 140 406 128 Q 397 117 382 113 Q 384 107 384 100 Q 384 81 371 69 Q 359 56 340 56 Q 337 56 334 56 Q 325 26 292 24 Q 279 24 269 31 Q 256 2 224 0 Q 192 2 179 31 Q 169 24 156 24 Q 123 26 114 56 Q 111 56 108 56 Q 89 56 77 69 Q 64 81 64 100 Q 64 107 66 113 Q 51 117 42 128 Q 32 140 32 156 L 32 156 Z M 118 464 L 62 240 L 101 240 L 147 432 L 180 432 L 134 240 L 208 240 L 208 416 L 208 432 L 240 432 L 240 416 L 240 240 L 314 240 L 268 432 L 301 432 L 347 240 L 387 240 L 331 464 L 118 464 L 118 464 Z M 224 192 L 50 192 L 0 192 L 12 240 L 80 512 L 368 512 L 436 240 L 448 192 L 399 192 L 224 192 L 224 192 Z"/>
</svg>
