<svg xmlns="http://www.w3.org/2000/svg" viewBox="0 0 512 512">
  <path d="M 347.42856 53.374516 Q 348.417 26.687258 371.15057 11.861004 Q 394.8726 0 418.5946 11.861004 Q 441.3282 26.687258 442.3166 53.374516 Q 441.3282 80.061775 418.5946 94.88803 Q 394.8726 106.74903 371.15057 94.88803 Q 348.417 80.061775 347.42856 53.374516 L 347.42856 53.374516 Z M 126.02316 100.818535 L 157.65251 100.818535 L 126.02316 100.818535 L 328.64865 100.818535 L 338.5328 109.71429 L 338.5328 109.71429 L 351.38223 123.552124 L 351.38223 123.552124 L 377.0811 149.25096 L 377.0811 149.25096 L 348.417 170.99614 L 348.417 170.99614 L 226.8417 263.90735 L 226.8417 263.90735 L 220.9112 270.82626 L 220.9112 270.82626 Q 216.95753 275.76834 214.9807 280.71042 L 177.42085 381.52896 L 177.42085 381.52896 L 458.1313 236.23166 L 458.1313 236.23166 L 458.1313 195.70656 L 458.1313 195.70656 L 458.1313 171.98456 L 458.1313 171.98456 L 505.5753 171.98456 L 505.5753 171.98456 L 505.5753 195.70656 L 505.5753 195.70656 L 505.5753 251.05792 L 505.5753 251.05792 L 505.5753 265.88416 L 505.5753 265.88416 L 492.72586 271.81467 L 492.72586 271.81467 L 49.91506 501.1274 L 49.91506 501.1274 L 28.169884 512 L 28.169884 512 L 6.4247103 469.49808 L 6.4247103 469.49808 L 27.181467 458.6255 L 27.181467 458.6255 L 93.4054 425.01932 L 93.4054 425.01932 L 155.67567 257.97684 L 155.67567 257.97684 Q 161.60617 242.16216 172.47876 230.30116 L 228.81853 164.07722 L 228.81853 164.07722 L 157.65251 164.07722 L 126.02316 164.07722 L 126.02316 100.818535 L 126.02316 100.818535 Z" />
</svg>