<svg viewBox="0 0 640 512">
  <path
    d="M 48 15 L 29 0 L 0 38 L 19 53 L 592 497 L 611 512 L 640 474 L 621 459 L 514 376 Q 574 320 576 240 Q 575 182 541 135 Q 507 88 449 60 Q 392 33 320 32 Q 215 34 144 89 L 48 15 L 48 15 Z M 183 120 Q 237 82 320 80 Q 415 83 471 130 Q 527 178 528 240 Q 527 299 475 346 L 183 120 L 183 120 Z M 112 240 Q 112 216 122 192 L 83 161 Q 64 198 64 240 Q 66 316 121 371 L 101 424 L 80 480 L 138 463 L 230 435 Q 272 448 320 448 Q 376 448 424 430 L 378 394 Q 351 400 320 400 Q 280 400 244 389 L 230 385 L 217 389 L 159 406 L 166 388 L 177 359 L 155 337 Q 112 294 112 240 L 112 240 Z"
  />
</svg>