<svg xmlns="http://www.w3.org/2000/svg" viewBox="0 0 512 512">
  <path d="M 512 42.666668 L 512 56.88889 L 512 42.666668 L 512 56.88889 L 512 156.44444 L 512 156.44444 L 483.55554 156.44444 L 483.55554 156.44444 L 483.55554 56.88889 L 483.55554 56.88889 L 483.55554 42.666668 L 483.55554 42.666668 L 512 42.666668 L 512 42.666668 Z M 483.55554 184.88889 L 512 184.88889 L 483.55554 184.88889 L 512 184.88889 L 512 355.55554 L 512 355.55554 Q 511.1111 403.55554 479.1111 436.44446 Q 446.22223 468.44446 398.22223 469.33334 Q 350.22223 468.44446 317.33334 436.44446 Q 285.33334 403.55554 284.44446 355.55554 L 284.44446 341.33334 L 284.44446 341.33334 L 284.44446 327.1111 L 284.44446 327.1111 L 312.8889 327.1111 L 312.8889 327.1111 L 312.8889 341.33334 L 312.8889 341.33334 L 312.8889 355.55554 L 312.8889 355.55554 Q 313.77777 392 337.77777 416 Q 361.77777 440 398.22223 440.8889 Q 434.66666 440 458.66666 416 Q 482.66666 392 483.55554 355.55554 L 483.55554 184.88889 L 483.55554 184.88889 Z M 234.66667 270.22223 L 215.11111 231.11111 L 234.66667 270.22223 L 215.11111 231.11111 L 210.66667 223.11111 L 210.66667 223.11111 L 206.22223 213.33333 L 206.22223 213.33333 L 192 213.33333 L 192 213.33333 L 187.55556 223.11111 L 187.55556 223.11111 L 183.11111 231.11111 L 183.11111 231.11111 L 163.55556 270.22223 L 163.55556 270.22223 L 28.444445 270.22223 L 0 270.22223 L 0 241.77777 L 0 241.77777 L 0 99.55556 L 0 99.55556 L 0 71.111115 L 0 71.111115 L 28.444445 71.111115 L 398.22223 71.111115 L 398.22223 99.55556 L 398.22223 99.55556 L 398.22223 241.77777 L 398.22223 241.77777 L 398.22223 270.22223 L 398.22223 270.22223 L 369.77777 270.22223 L 234.66667 270.22223 Z M 166.22223 200.88889 L 174.22223 184.88889 L 166.22223 200.88889 L 174.22223 184.88889 L 192 184.88889 L 224 184.88889 L 232 200.88889 L 232 200.88889 L 252.44444 241.77777 L 252.44444 241.77777 L 369.77777 241.77777 L 369.77777 241.77777 L 369.77777 99.55556 L 369.77777 99.55556 L 28.444445 99.55556 L 28.444445 99.55556 L 28.444445 241.77777 L 28.444445 241.77777 L 145.77777 241.77777 L 145.77777 241.77777 L 166.22223 200.88889 L 166.22223 200.88889 Z" />
</svg>