<svg xmlns="http://www.w3.org/2000/svg" viewBox="0 0 512 512">
  <path d="M 249.6 76.8 L 230.4 76.8 L 249.6 76.8 L 230.4 76.8 L 230.4 115.2 L 230.4 115.2 L 249.6 115.2 L 270.4 115.2 L 297.6 166.4 L 297.6 166.4 L 178.4 166.4 L 178.4 166.4 L 156.8 136 L 156.8 136 L 150.4 128 L 150.4 128 L 140.8 128 L 76.8 128 L 76.8 166.4 L 76.8 166.4 L 96 166.4 L 131.2 166.4 L 148.8 191.2 L 148.8 191.2 L 127.2 233.6 L 127.2 233.6 Q 115.2 230.4 102.4 230.4 Q 59.2 231.2 29.6 260 Q 0.8 289.6 0 332.8 Q 0.8 376 29.6 405.6 Q 59.2 434.4 102.4 435.2 Q 142.4 434.4 170.4 409.6 Q 198.4 384 204 345.6 L 243.2 345.6 L 254.4 345.6 L 260 336 L 260 336 L 328 221.6 L 328 221.6 L 344.8 253.6 L 344.8 253.6 Q 308.8 283.2 307.2 332.8 Q 308 376 336.8 405.6 Q 366.4 434.4 409.6 435.2 Q 452.8 434.4 482.4 405.6 Q 511.2 376 512 332.8 Q 511.2 289.6 482.4 260 Q 452.8 231.2 409.6 230.4 Q 393.6 230.4 378.4 235.2 L 298.4 87.2 L 298.4 87.2 L 292.8 76.8 L 292.8 76.8 L 281.6 76.8 L 249.6 76.8 Z M 364 288 L 392.8 341.6 L 364 288 L 392.8 341.6 L 401.6 359.2 L 401.6 359.2 L 436 340.8 L 436 340.8 L 426.4 324 L 426.4 324 L 397.6 270.4 L 397.6 270.4 Q 403.2 268.8 409.6 268.8 Q 436.8 269.6 455.2 288 Q 472.8 305.6 473.6 332.8 Q 472.8 360 455.2 378.4 Q 436.8 396 409.6 396.8 Q 382.4 396 364 378.4 Q 346.4 360 345.6 332.8 Q 346.4 306.4 364 288 L 364 288 Z M 109.6 269.6 L 84.8 317.6 L 109.6 269.6 L 84.8 317.6 L 102.4 345.6 L 102.4 345.6 L 164.8 345.6 L 164.8 345.6 Q 160 368 143.2 382.4 Q 126.4 396 102.4 396.8 Q 75.2 396 56.8 378.4 Q 39.2 360 38.4 332.8 Q 39.2 305.6 56.8 287.2 Q 75.2 269.6 102.4 268.8 Q 106.4 268.8 109.6 269.6 L 109.6 269.6 Z M 133.6 307.2 L 174.4 226.4 L 133.6 307.2 L 174.4 226.4 L 232 307.2 L 232 307.2 L 232 307.2 L 232 307.2 L 133.6 307.2 L 133.6 307.2 Z M 205.6 204.8 L 292.8 204.8 L 205.6 204.8 L 292.8 204.8 L 253.6 271.2 L 253.6 271.2 L 205.6 204.8 L 205.6 204.8 Z" />
</svg>