<svg xmlns="http://www.w3.org/2000/svg" viewBox="0 0 512 512">
  <path d="M 369.7221 64.125244 Q 385.75342 48.093933 408.79843 48.093933 Q 431.84344 49.09589 447.87476 64.125244 Q 462.9041 80.156555 463.90607 103.20157 Q 463.90607 126.246574 447.87476 142.2779 L 221.43248 368.72015 L 221.43248 368.72015 L 143.27985 368.72015 L 143.27985 368.72015 L 143.27985 290.5675 L 143.27985 290.5675 L 173.33855 260.50882 L 173.33855 260.50882 L 204.39922 291.56946 L 204.39922 291.56946 L 215.42075 303.59296 L 215.42075 303.59296 L 238.46576 280.54794 L 238.46576 280.54794 L 226.44228 269.52643 L 226.44228 269.52643 L 195.3816 238.46576 L 195.3816 238.46576 L 237.46379 196.38356 L 237.46379 196.38356 L 268.52448 227.44423 L 268.52448 227.44423 L 279.546 239.46771 L 279.546 239.46771 L 302.591 216.4227 L 302.591 216.4227 L 290.5675 205.40117 L 290.5675 205.40117 L 259.50684 174.34052 L 259.50684 174.34052 L 301.58905 132.25832 L 301.58905 132.25832 L 332.64972 163.31898 L 332.64972 163.31898 L 343.67123 175.34247 L 343.67123 175.34247 L 366.71625 152.29745 L 366.71625 152.29745 L 354.69275 141.27592 L 354.69275 141.27592 L 323.63208 110.21526 L 323.63208 110.21526 L 369.7221 64.125244 L 369.7221 64.125244 Z M 95.18591 280.54794 L 95.18591 382.74756 L 95.18591 280.54794 L 95.18591 382.74756 L 17.033268 460.9002 L 17.033268 460.9002 L 0 477.93347 L 0 477.93347 L 34.066536 512 L 34.066536 512 L 51.099804 494.96674 L 51.099804 494.96674 L 129.25244 416.8141 L 129.25244 416.8141 L 231.45206 416.8141 L 241.47162 416.8141 L 248.48532 409.80038 L 248.48532 409.80038 L 481.94128 176.34442 L 481.94128 176.34442 Q 510.99805 146.28572 512 103.20157 Q 510.99805 59.11546 481.94128 30.058708 Q 452.88455 1.0019569 408.79843 0 Q 365.7143 1.0019569 335.65558 30.058708 L 102.19961 263.51468 L 102.19961 263.51468 L 95.18591 270.52838 L 95.18591 270.52838 L 95.18591 280.54794 L 95.18591 280.54794 Z" />
</svg>