<svg viewBox="0 0 576 512">
  <path
    d="M 264 0 L 312 0 L 312 64 L 360 64 L 380 64 L 384 83 L 444 394 Q 435 400 425 405 Q 412 411 399 413 L 384 336 L 192 336 L 177 413 Q 164 410 151 405 Q 141 400 132 393 L 192 83 L 196 64 L 216 64 L 264 64 L 264 0 L 264 0 Z M 201 288 L 375 288 L 340 112 L 236 112 L 201 288 L 201 288 Z M 79 489 Q 64 497 44 505 L 44 505 Q 24 512 0 512 L 0 464 Q 31 462 55 447 Q 77 434 95 417 Q 95 416 96 416 L 96 416 L 96 416 Q 115 434 137 447 Q 161 462 192 464 Q 222 462 247 447 Q 269 434 287 417 Q 287 417 287 416 L 288 416 L 289 416 Q 289 417 289 417 Q 307 434 329 447 Q 353 462 384 464 Q 414 462 439 447 Q 461 434 479 417 Q 479 417 479 416 L 480 416 L 481 416 Q 481 417 481 417 Q 499 434 521 447 Q 545 462 576 464 L 576 512 Q 552 512 532 505 Q 512 497 497 489 Q 487 483 480 478 Q 473 483 463 489 Q 448 498 428 505 Q 408 512 384 512 Q 360 512 340 505 Q 320 497 305 489 Q 295 483 288 478 Q 281 483 271 489 Q 256 498 236 505 Q 216 512 192 512 Q 168 512 148 505 Q 128 497 113 489 Q 103 483 96 478 Q 89 483 79 489 L 79 489 Z"
  />
</svg>