<svg xmlns="http://www.w3.org/2000/svg" viewBox="0 0 512 512">
  <path d="M 413.8666666666667 124.8 Q 385.06666666666666 90.66666666666667 344.53333333333336 71.46666666666667 L 344.53333333333336 71.46666666666667 L 344.53333333333336 71.46666666666667 Q 304 51.2 256 51.2 Q 182.4 52.266666666666666 128 96 Q 73.6 139.73333333333332 56.53333333333333 209.06666666666666 L 23.466666666666665 200.53333333333333 L 23.466666666666665 200.53333333333333 Q 43.733333333333334 120.53333333333333 106.66666666666667 69.33333333333333 Q 169.6 19.2 256 17.066666666666666 Q 311.46666666666664 17.066666666666666 359.46666666666664 40.53333333333333 Q 406.4 62.93333333333333 439.46666666666664 103.46666666666667 L 477.8666666666667 148.26666666666668 L 477.8666666666667 148.26666666666668 L 477.8666666666667 85.33333333333333 L 477.8666666666667 85.33333333333333 L 477.8666666666667 68.26666666666667 L 477.8666666666667 68.26666666666667 L 512 68.26666666666667 L 512 68.26666666666667 L 512 85.33333333333333 L 512 85.33333333333333 L 512 187.73333333333332 L 512 187.73333333333332 L 512 204.8 L 512 204.8 L 494.93333333333334 204.8 L 375.46666666666664 204.8 L 375.46666666666664 170.66666666666666 L 375.46666666666664 170.66666666666666 L 392.53333333333336 170.66666666666666 L 452.26666666666665 170.66666666666666 L 413.8666666666667 124.8 L 413.8666666666667 124.8 L 413.8666666666667 124.8 L 413.8666666666667 124.8 L 413.8666666666667 124.8 L 413.8666666666667 124.8 Z M 273.06666666666666 136.53333333333333 L 273.06666666666666 273.06666666666666 L 273.06666666666666 136.53333333333333 L 273.06666666666666 273.06666666666666 L 273.06666666666666 290.1333333333333 L 273.06666666666666 290.1333333333333 L 238.93333333333334 290.1333333333333 L 238.93333333333334 290.1333333333333 L 238.93333333333334 273.06666666666666 L 238.93333333333334 273.06666666666666 L 238.93333333333334 136.53333333333333 L 238.93333333333334 136.53333333333333 L 238.93333333333334 119.46666666666667 L 238.93333333333334 119.46666666666667 L 273.06666666666666 119.46666666666667 L 273.06666666666666 119.46666666666667 L 273.06666666666666 136.53333333333333 L 273.06666666666666 136.53333333333333 Z M 281.6 324.26666666666665 L 281.6 375.46666666666664 L 281.6 324.26666666666665 L 281.6 375.46666666666664 L 230.4 375.46666666666664 L 230.4 375.46666666666664 L 230.4 324.26666666666665 L 230.4 324.26666666666665 L 281.6 324.26666666666665 L 281.6 324.26666666666665 Z M 0 443.73333333333335 L 0 426.6666666666667 L 0 443.73333333333335 L 0 426.6666666666667 L 0 324.26666666666665 L 0 324.26666666666665 L 0 307.2 L 0 307.2 L 17.066666666666666 307.2 L 136.53333333333333 307.2 L 136.53333333333333 341.3333333333333 L 136.53333333333333 341.3333333333333 L 119.46666666666667 341.3333333333333 L 59.733333333333334 341.3333333333333 L 98.13333333333334 387.2 L 98.13333333333334 387.2 L 98.13333333333334 387.2 L 98.13333333333334 387.2 L 98.13333333333334 387.2 L 98.13333333333334 387.2 Q 126.93333333333334 421.3333333333333 167.46666666666667 440.53333333333336 Q 208 460.8 256 460.8 Q 329.6 459.73333333333335 384 416 Q 438.4 372.26666666666665 455.46666666666664 302.93333333333334 L 488.53333333333336 311.46666666666664 L 488.53333333333336 311.46666666666664 Q 468.26666666666665 391.46666666666664 405.3333333333333 442.6666666666667 Q 342.4 492.8 256 494.93333333333334 Q 200.53333333333333 494.93333333333334 152.53333333333333 471.46666666666664 Q 105.6 449.06666666666666 72.53333333333333 408.53333333333336 L 34.13333333333333 363.73333333333335 L 34.13333333333333 363.73333333333335 L 34.13333333333333 426.6666666666667 L 34.13333333333333 426.6666666666667 L 34.13333333333333 443.73333333333335 L 34.13333333333333 443.73333333333335 L 0 443.73333333333335 L 0 443.73333333333335 Z" />
</svg>