<svg xmlns="http://www.w3.org/2000/svg" viewBox="0 0 640 512">
    <path d="M 320 80 Q 320 94 311 103 L 311 103 Q 302 112 288 112 Q 274 112 265 103 Q 256 94 256 80 Q 256 66 265 57 Q 274 48 288 48 Q 302 48 311 57 Q 320 66 320 80 L 320 80 Z M 288 0 Q 254 1 231 23 L 231 23 Q 209 46 208 80 Q 208 107 224 128 Q 239 148 264 156 Q 264 158 264 160 L 264 192 L 216 192 L 192 192 L 192 240 L 216 240 L 264 240 L 264 464 L 120 464 L 120 352 L 192 352 L 96 256 L 0 352 L 72 352 L 72 488 L 72 512 L 96 512 L 288 512 L 395 512 Q 367 492 349 464 L 312 464 L 312 240 L 360 240 L 375 240 Q 379 236 384 232 L 384 192 L 360 192 L 312 192 L 312 160 Q 312 158 312 156 Q 337 148 352 128 Q 368 107 368 80 Q 367 46 345 23 Q 322 1 288 0 L 288 0 Z M 496 512 Q 535 512 568 493 L 568 493 Q 601 474 621 440 Q 640 406 640 368 Q 640 330 621 296 Q 601 262 568 243 Q 535 224 496 224 Q 457 224 424 243 Q 391 262 371 296 Q 352 330 352 368 Q 352 406 371 440 Q 391 474 424 493 Q 457 512 496 512 L 496 512 Z M 555 331 L 519 368 L 555 405 L 567 416 L 544 439 L 533 427 L 496 391 L 459 427 L 448 439 L 425 416 L 437 405 L 473 368 L 437 331 L 425 320 L 448 297 L 459 309 L 496 345 L 533 309 L 544 297 L 567 320 L 555 331 L 555 331 Z"/>
</svg>
