<svg xmlns="http://www.w3.org/2000/svg" viewBox="0 0 512 512">
  <path d="M 179.48044 119.38654 Q 178.67918 83.3302 147.43036 64.10016 Q 115.38028 46.472614 83.3302 64.10016 Q 52.08138 83.3302 51.280125 119.38654 Q 52.08138 155.44289 83.3302 174.67293 Q 115.38028 192.30048 147.43036 174.67293 Q 178.67918 155.44289 179.48044 119.38654 L 179.48044 119.38654 Z M 474.34116 119.38654 Q 473.53992 83.3302 442.29108 64.10016 Q 410.241 46.472614 378.19092 64.10016 Q 346.9421 83.3302 346.14084 119.38654 Q 346.9421 155.44289 378.19092 174.67293 Q 410.241 192.30048 442.29108 174.67293 Q 473.53992 155.44289 474.34116 119.38654 L 474.34116 119.38654 Z M 157.04538 209.12675 L 38.460094 209.12675 L 157.04538 209.12675 L 38.460094 209.12675 L 0 311.687 L 0 311.687 L 188.2942 311.687 L 188.2942 311.687 Q 155.44289 282.04068 153.84038 234.76683 Q 153.84038 221.14554 157.04538 209.12675 L 157.04538 209.12675 Z M 491.9687 256.40063 L 474.34116 209.12675 L 491.9687 256.40063 L 474.34116 209.12675 L 355.75586 209.12675 L 355.75586 209.12675 Q 358.96088 221.14554 358.96088 234.76683 L 384.60095 234.76683 L 461.52112 234.76683 L 461.52112 260.4069 L 461.52112 260.4069 L 461.52112 274.02817 L 461.52112 274.02817 L 461.52112 274.02817 L 461.52112 274.02817 L 473.53992 267.61816 L 473.53992 267.61816 L 491.9687 256.40063 L 491.9687 256.40063 Z M 256.40063 157.84663 Q 223.5493 158.64789 201.9155 180.2817 L 201.9155 180.2817 L 201.9155 180.2817 Q 180.2817 201.9155 179.48044 234.76683 Q 180.2817 267.61816 201.9155 289.25195 Q 223.5493 310.88577 256.40063 311.687 Q 280.43817 311.687 299.66824 298.86697 L 312.48825 276.43192 L 312.48825 276.43192 L 325.3083 254.79813 L 325.3083 254.79813 L 330.1158 257.20187 L 330.1158 257.20187 Q 333.3208 246.7856 333.3208 234.76683 Q 332.51956 201.9155 310.88577 180.2817 Q 289.25195 158.64789 256.40063 157.84663 L 256.40063 157.84663 Z M 277.2332 337.3271 L 141.02034 337.3271 L 277.2332 337.3271 L 141.02034 337.3271 L 102.56025 465.52737 L 102.56025 465.52737 L 321.30203 465.52737 L 321.30203 465.52737 L 311.687 449.50235 L 311.687 449.50235 L 286.04694 404.63223 L 286.04694 404.63223 L 273.22693 382.99844 L 273.22693 382.99844 L 295.66196 370.1784 L 295.66196 370.1784 L 307.68076 362.96713 L 307.68076 362.96713 L 295.66196 355.75586 L 295.66196 355.75586 L 273.22693 342.93585 L 273.22693 342.93585 L 277.2332 337.3271 L 277.2332 337.3271 Z M 435.88107 290.85446 L 435.88107 260.4069 L 435.88107 290.85446 L 435.88107 260.4069 L 384.60095 260.4069 L 384.60095 260.4069 L 384.60095 290.85446 L 384.60095 290.85446 Q 370.97964 295.66196 360.5634 304.47574 L 334.12207 289.25195 L 334.12207 289.25195 L 308.482 334.12207 L 308.482 334.12207 L 334.9233 349.34586 L 334.9233 349.34586 Q 333.3208 355.75586 333.3208 362.96713 Q 333.3208 370.1784 334.9233 377.38968 L 308.482 391.8122 L 308.482 391.8122 L 334.12207 436.6823 L 334.12207 436.6823 L 360.5634 421.45853 L 360.5634 421.45853 Q 370.97964 431.07355 384.60095 435.88107 L 384.60095 465.52737 L 384.60095 465.52737 L 435.88107 465.52737 L 435.88107 465.52737 L 435.88107 435.88107 L 435.88107 435.88107 Q 449.50235 430.2723 459.9186 421.45853 L 486.35992 436.6823 L 486.35992 436.6823 L 512 391.8122 L 512 391.8122 L 485.5587 377.38968 L 485.5587 377.38968 Q 487.1612 370.1784 487.1612 362.96713 Q 487.1612 355.75586 485.5587 348.5446 L 512 334.12207 L 512 334.12207 L 486.35992 289.25195 L 486.35992 289.25195 L 459.9186 304.47574 L 459.9186 304.47574 Q 449.50235 294.86072 435.88107 290.05322 L 435.88107 290.85446 Z M 378.19092 362.96713 Q 378.9922 344.53833 394.21597 334.9233 Q 410.241 326.9108 426.26605 334.9233 Q 441.48984 344.53833 442.29108 362.96713 Q 441.48984 381.39594 426.26605 391.01096 Q 410.241 399.02347 394.21597 391.01096 Q 378.9922 381.39594 378.19092 362.96713 L 378.19092 362.96713 Z" />
</svg>