<svg xmlns="http://www.w3.org/2000/svg" viewBox="0 0 512 512">
  <path d="M 395.42856 274.2857 L 450.2857 274.2857 L 395.42856 274.2857 L 450.2857 274.2857 L 420.57144 36.57143 L 420.57144 36.57143 L 91.42857 36.57143 L 91.42857 36.57143 L 61.714287 274.2857 L 61.714287 274.2857 L 116.57143 274.2857 L 116.57143 274.2857 L 139.42857 91.42857 L 139.42857 91.42857 L 372.57144 91.42857 L 372.57144 91.42857 L 395.42856 274.2857 L 395.42856 274.2857 Z M 205.71428 274.2857 L 219.42857 166.85715 L 205.71428 274.2857 L 219.42857 166.85715 L 221.71428 146.28572 L 221.71428 146.28572 L 185.14285 146.28572 L 185.14285 146.28572 L 182.85715 162.28572 L 182.85715 162.28572 L 169.14285 274.2857 L 169.14285 274.2857 L 205.71428 274.2857 L 205.71428 274.2857 Z M 54.857143 365.7143 L 457.14285 365.7143 L 54.857143 365.7143 L 457.14285 365.7143 L 457.14285 420.57144 L 457.14285 420.57144 L 54.857143 420.57144 L 54.857143 420.57144 L 54.857143 365.7143 L 54.857143 365.7143 Z M 0 310.85715 L 0 365.7143 L 0 310.85715 L 0 365.7143 L 0 420.57144 L 0 420.57144 L 0 475.42856 L 0 475.42856 L 54.857143 475.42856 L 512 475.42856 L 512 420.57144 L 512 420.57144 L 512 365.7143 L 512 365.7143 L 512 310.85715 L 512 310.85715 L 457.14285 310.85715 L 0 310.85715 Z" />
</svg>