<svg xmlns="http://www.w3.org/2000/svg" viewBox="0 0 512 512">
  <path d="M 0 56.88889 L 284.44446 56.88889 L 0 56.88889 L 284.44446 56.88889 L 284.44446 256 L 284.44446 256 L 0 256 L 0 256 L 0 56.88889 L 0 56.88889 Z M 341.33334 56.88889 L 512 56.88889 L 341.33334 56.88889 L 512 56.88889 L 512 369.77777 L 512 369.77777 L 341.33334 369.77777 L 341.33334 369.77777 L 341.33334 56.88889 L 341.33334 56.88889 Z M 298.66666 298.66666 L 298.66666 455.1111 L 298.66666 298.66666 L 298.66666 455.1111 L 56.88889 455.1111 L 56.88889 455.1111 L 56.88889 298.66666 L 56.88889 298.66666 L 298.66666 298.66666 L 298.66666 298.66666 Z" />
</svg>