<svg xmlns="http://www.w3.org/2000/svg" viewBox="0 0 512 512">
  <path d="M 256 448 Q 174 446 120 392 L 120 392 L 120 392 Q 66 338 64 256 Q 65 193 100 145 L 367 413 L 367 413 Q 319 447 256 448 L 256 448 Z M 345 300 L 365 304 L 345 300 L 365 304 L 381 307 L 381 307 L 387 275 L 387 275 L 371 272 L 371 272 L 336 265 L 336 265 L 336 247 L 336 247 L 371 240 L 371 240 L 387 237 L 387 237 L 381 205 L 381 205 L 365 208 L 365 208 L 336 214 L 336 214 L 336 184 L 336 184 L 352 174 L 352 174 L 366 166 L 366 166 L 350 138 L 350 138 L 336 146 L 336 146 L 317 157 L 317 157 L 288 128 L 288 128 L 224 128 L 224 128 L 199 153 L 199 153 L 145 100 L 145 100 Q 193 65 256 64 Q 338 66 392 120 Q 446 174 448 256 Q 447 319 413 367 L 345 300 L 345 300 Z M 256 512 Q 326 511 384 478 L 384 478 L 384 478 Q 442 444 478 384 Q 512 323 512 256 Q 512 189 478 128 Q 442 68 384 34 Q 326 1 256 0 Q 186 1 128 34 Q 70 68 34 128 Q 0 189 0 256 Q 0 323 34 384 Q 70 444 128 478 Q 186 511 256 512 L 256 512 Z M 141 272 L 125 275 L 141 272 L 125 275 L 132 307 L 132 307 L 147 304 L 147 304 L 176 298 L 176 298 L 176 329 L 176 329 L 160 338 L 160 338 L 146 347 L 146 347 L 163 374 L 163 374 L 176 366 L 176 366 L 195 355 L 195 355 L 224 384 L 224 384 L 288 384 L 288 384 L 291 381 L 291 381 L 175 266 L 175 266 L 141 272 L 141 272 Z" />
</svg>