<svg xmlns="http://www.w3.org/2000/svg" viewBox="0 0 512 512">
  <path d="M 0 0 L 144 0 L 0 0 L 144 0 L 230 130 L 230 130 Q 166 138 119 179 L 0 0 L 0 0 Z M 512 0 L 393 179 L 512 0 L 393 179 Q 346 138 282 130 L 368 0 L 368 0 L 512 0 L 512 0 Z M 80 336 Q 80 288 104 248 L 104 248 L 104 248 Q 127 208 168 184 Q 210 160 256 160 Q 302 160 344 184 Q 385 208 408 248 Q 432 288 432 336 Q 432 384 408 424 Q 385 464 344 488 Q 302 512 256 512 Q 210 512 168 488 Q 127 464 104 424 Q 80 384 80 336 L 80 336 Z M 256 240 L 226 297 L 256 240 L 226 297 L 160 306 L 160 306 L 208 351 L 208 351 L 197 414 L 197 414 L 256 384 L 256 384 L 315 414 L 315 414 L 304 351 L 304 351 L 352 306 L 352 306 L 286 297 L 286 297 L 256 240 L 256 240 Z" />
</svg>