<svg viewBox="0 0 576 512">
  <path
    d="M 80 80 Q 102 78 104 56 Q 102 34 80 32 Q 58 34 56 56 Q 58 78 80 80 L 80 80 Z M 80 0 Q 112 1 128 28 Q 144 56 128 84 Q 112 111 80 112 Q 48 111 32 84 Q 16 56 32 28 Q 48 1 80 0 L 80 0 Z M 32 176 L 32 192 L 32 288 L 80 321 L 80 176 L 32 176 L 32 176 L 32 176 L 32 176 Z M 32 326 L 32 496 L 32 512 L 0 512 L 0 496 L 0 304 L 0 304 L 0 296 L 0 160 L 0 144 L 16 144 L 96 144 L 105 144 L 109 151 L 177 256 L 240 256 L 256 256 L 256 288 L 240 288 L 168 288 L 159 288 L 155 281 L 112 215 L 112 343 L 153 371 L 160 376 L 160 384 L 160 496 L 160 512 L 128 512 L 128 496 L 128 392 L 81 360 L 80 360 L 80 359 L 32 326 L 32 326 Z M 208 0 L 224 0 L 259 0 L 280 0 L 560 0 L 576 0 L 576 16 L 576 432 L 576 448 L 576 496 L 576 512 L 544 512 L 544 496 L 544 448 L 304 448 L 288 448 L 288 432 L 288 368 L 288 365 L 289 362 L 335 255 L 268 32 L 240 32 L 240 224 L 208 224 L 208 16 L 208 0 L 208 0 Z M 302 32 L 367 251 L 369 257 L 367 262 L 320 371 L 320 416 L 544 416 L 544 32 L 302 32 L 302 32 Z M 240 320 L 240 496 L 240 512 L 208 512 L 208 496 L 208 320 L 240 320 L 240 320 Z"
  />
</svg>