<svg xmlns="http://www.w3.org/2000/svg" viewBox="0 0 512 512">
  <path d="M 480 256 Q 479 195 450 144 L 450 144 L 450 144 Q 420 93 368 62 Q 315 32 256 32 Q 197 32 144 62 Q 92 93 62 144 Q 33 195 32 256 Q 33 317 62 368 Q 92 419 144 450 Q 197 480 256 480 Q 315 480 368 450 Q 420 419 450 368 Q 479 317 480 256 L 480 256 Z M 0 256 Q 1 186 34 128 L 34 128 L 34 128 Q 68 70 128 34 Q 189 0 256 0 Q 323 0 384 34 Q 444 70 478 128 Q 511 186 512 256 Q 511 326 478 384 Q 444 442 384 478 Q 323 512 256 512 Q 189 512 128 478 Q 68 442 34 384 Q 1 326 0 256 L 0 256 Z M 320 256 Q 319 220 288 201 Q 256 183 224 201 Q 193 220 192 256 Q 193 292 224 311 Q 256 329 288 311 Q 319 292 320 256 L 320 256 Z M 160 256 Q 160 230 173 208 L 173 208 L 173 208 Q 186 186 208 173 Q 231 160 256 160 Q 281 160 304 173 Q 326 186 339 208 Q 352 230 352 256 Q 352 282 339 304 Q 326 326 304 339 Q 281 352 256 352 Q 231 352 208 339 Q 186 326 173 304 Q 160 282 160 256 L 160 256 Z M 232 256 Q 234 234 256 232 Q 278 234 280 256 Q 278 278 256 280 Q 234 278 232 256 L 232 256 Z M 112 256 L 80 256 L 112 256 L 80 256 Q 82 181 132 132 Q 181 82 256 80 L 256 112 L 256 112 Q 195 114 154 154 Q 114 195 112 256 L 112 256 Z" />
</svg>