<svg xmlns="http://www.w3.org/2000/svg" viewBox="0 0 512 512">
  <path d="M 26.256410256410255 60.717948717948715 L 16.41025641025641 52.51282051282051 L 26.256410256410255 60.717948717948715 L 16.41025641025641 52.51282051282051 L 0 73.02564102564102 L 0 73.02564102564102 L 10.666666666666666 81.23076923076923 L 10.666666666666666 81.23076923076923 L 485.7435897435897 451.28205128205127 L 485.7435897435897 451.28205128205127 L 495.5897435897436 459.4871794871795 L 495.5897435897436 459.4871794871795 L 512 438.97435897435895 L 512 438.97435897435895 L 502.15384615384613 430.7692307692308 L 502.15384615384613 430.7692307692308 L 26.256410256410255 60.717948717948715 L 26.256410256410255 60.717948717948715 Z M 387.28205128205127 242.87179487179486 L 393.02564102564105 242.87179487179486 L 387.28205128205127 242.87179487179486 L 393.02564102564105 242.87179487179486 L 396.3076923076923 238.76923076923077 L 396.3076923076923 238.76923076923077 L 419.28205128205127 216.6153846153846 L 419.28205128205127 216.6153846153846 L 479.1794871794872 216.6153846153846 L 492.3076923076923 216.6153846153846 L 492.3076923076923 203.48717948717947 L 492.3076923076923 203.48717948717947 L 492.3076923076923 111.58974358974359 L 492.3076923076923 111.58974358974359 L 492.3076923076923 98.46153846153847 L 492.3076923076923 98.46153846153847 L 479.1794871794872 98.46153846153847 L 439.79487179487177 98.46153846153847 L 439.79487179487177 85.33333333333333 L 439.79487179487177 85.33333333333333 L 439.79487179487177 72.2051282051282 L 439.79487179487177 72.2051282051282 L 413.53846153846155 72.2051282051282 L 413.53846153846155 72.2051282051282 L 413.53846153846155 85.33333333333333 L 413.53846153846155 85.33333333333333 L 413.53846153846155 98.46153846153847 L 413.53846153846155 98.46153846153847 L 141.12820512820514 98.46153846153847 L 141.12820512820514 98.46153846153847 L 174.76923076923077 124.71794871794872 L 174.76923076923077 124.71794871794872 L 413.53846153846155 124.71794871794872 L 466.05128205128204 124.71794871794872 L 466.05128205128204 190.35897435897436 L 466.05128205128204 190.35897435897436 L 413.53846153846155 190.35897435897436 L 407.79487179487177 190.35897435897436 L 404.5128205128205 194.46153846153845 L 404.5128205128205 194.46153846153845 L 381.53846153846155 216.6153846153846 L 381.53846153846155 216.6153846153846 L 291.28205128205127 216.6153846153846 L 291.28205128205127 216.6153846153846 L 324.1025641025641 242.87179487179486 L 324.1025641025641 242.87179487179486 L 387.28205128205127 242.87179487179486 L 387.28205128205127 242.87179487179486 Z M 202.66666666666666 281.43589743589746 L 169.84615384615384 413.53846153846155 L 202.66666666666666 281.43589743589746 L 169.84615384615384 413.53846153846155 L 79.58974358974359 413.53846153846155 L 79.58974358974359 413.53846153846155 L 122.25641025641026 242.87179487179486 L 122.25641025641026 242.87179487179486 L 155.07692307692307 242.87179487179486 L 155.07692307692307 242.87179487179486 L 121.43589743589743 216.6153846153846 L 121.43589743589743 216.6153846153846 L 101.74358974358974 216.6153846153846 L 45.94871794871795 216.6153846153846 L 45.94871794871795 156.71794871794873 L 45.94871794871795 156.71794871794873 L 19.692307692307693 136.2051282051282 L 19.692307692307693 136.2051282051282 L 19.692307692307693 229.74358974358975 L 19.692307692307693 229.74358974358975 L 19.692307692307693 242.87179487179486 L 19.692307692307693 242.87179487179486 L 32.82051282051282 242.87179487179486 L 95.17948717948718 242.87179487179486 L 52.51282051282051 413.53846153846155 L 52.51282051282051 413.53846153846155 L 45.94871794871795 439.79487179487177 L 45.94871794871795 439.79487179487177 L 73.02564102564102 439.79487179487177 L 190.35897435897436 439.79487179487177 L 225.64102564102564 298.6666666666667 L 225.64102564102564 298.6666666666667 L 202.66666666666666 281.43589743589746 L 202.66666666666666 281.43589743589746 Z" />
</svg>