<svg xmlns="http://www.w3.org/2000/svg" viewBox="0 0 448 512">
    <path d="M 128 96 L 224 0 L 320 96 L 320 128 L 256 128 L 256 160 L 256 192 L 192 192 L 192 160 L 192 128 L 128 128 L 128 96 L 128 96 Z M 256 352 L 256 368 L 256 384 L 320 384 L 320 416 L 224 512 L 128 416 L 128 384 L 192 384 L 192 368 L 192 352 L 192 320 L 256 320 L 256 352 L 256 352 Z M 64 224 L 64 288 L 0 288 L 0 224 L 64 224 L 64 224 Z M 96 224 L 160 224 L 160 288 L 96 288 L 96 224 L 96 224 Z M 256 224 L 256 288 L 192 288 L 192 224 L 256 224 L 256 224 Z M 288 224 L 352 224 L 352 288 L 288 288 L 288 224 L 288 224 Z M 384 224 L 448 224 L 448 288 L 384 288 L 384 224 L 384 224 Z"/>
</svg>
