<svg xmlns="http://www.w3.org/2000/svg" viewBox="0 0 512 512">
  <path d="M 13.473684210526315 53.89473684210526 L 0 53.89473684210526 L 13.473684210526315 53.89473684210526 L 0 53.89473684210526 L 0 80.84210526315789 L 0 80.84210526315789 L 13.473684210526315 80.84210526315789 L 67.36842105263158 80.84210526315789 L 67.36842105263158 134.73684210526315 L 67.36842105263158 134.73684210526315 L 13.473684210526315 134.73684210526315 L 0 134.73684210526315 L 0 161.68421052631578 L 0 161.68421052631578 L 13.473684210526315 161.68421052631578 L 485.05263157894734 161.68421052631578 L 485.05263157894734 134.73684210526315 L 485.05263157894734 134.73684210526315 L 471.57894736842104 134.73684210526315 L 417.6842105263158 134.73684210526315 L 417.6842105263158 80.84210526315789 L 417.6842105263158 80.84210526315789 L 471.57894736842104 80.84210526315789 L 485.05263157894734 80.84210526315789 L 485.05263157894734 53.89473684210526 L 485.05263157894734 53.89473684210526 L 471.57894736842104 53.89473684210526 L 13.473684210526315 53.89473684210526 Z M 390.7368421052632 80.84210526315789 L 390.7368421052632 134.73684210526315 L 390.7368421052632 80.84210526315789 L 390.7368421052632 134.73684210526315 L 309.89473684210526 134.73684210526315 L 309.89473684210526 134.73684210526315 L 309.89473684210526 80.84210526315789 L 309.89473684210526 80.84210526315789 L 390.7368421052632 80.84210526315789 L 390.7368421052632 80.84210526315789 Z M 282.94736842105266 80.84210526315789 L 282.94736842105266 134.73684210526315 L 282.94736842105266 80.84210526315789 L 282.94736842105266 134.73684210526315 L 202.10526315789474 134.73684210526315 L 202.10526315789474 134.73684210526315 L 202.10526315789474 80.84210526315789 L 202.10526315789474 80.84210526315789 L 282.94736842105266 80.84210526315789 L 282.94736842105266 80.84210526315789 Z M 175.1578947368421 80.84210526315789 L 175.1578947368421 134.73684210526315 L 175.1578947368421 80.84210526315789 L 175.1578947368421 134.73684210526315 L 94.3157894736842 134.73684210526315 L 94.3157894736842 134.73684210526315 L 94.3157894736842 80.84210526315789 L 94.3157894736842 80.84210526315789 L 175.1578947368421 80.84210526315789 L 175.1578947368421 80.84210526315789 Z M 13.473684210526315 229.05263157894737 L 0 229.05263157894737 L 13.473684210526315 229.05263157894737 L 0 229.05263157894737 L 0 256 L 0 256 L 13.473684210526315 256 L 26.94736842105263 256 Q 49.68421052631579 256.8421052631579 64.84210526315789 272 Q 80 287.1578947368421 80.84210526315789 309.89473684210526 L 80.84210526315789 417.6842105263158 L 80.84210526315789 417.6842105263158 L 80.84210526315789 431.1578947368421 L 80.84210526315789 431.1578947368421 L 94.3157894736842 431.1578947368421 L 188.6315789473684 431.1578947368421 L 188.6315789473684 417.6842105263158 L 188.6315789473684 417.6842105263158 L 188.6315789473684 309.89473684210526 L 188.6315789473684 309.89473684210526 Q 189.47368421052633 287.1578947368421 204.6315789473684 272 Q 219.78947368421052 256.8421052631579 242.52631578947367 256 Q 254.31578947368422 256 263.57894736842104 260.2105263157895 Q 271.1578947368421 248.42105263157896 280.42105263157896 238.31578947368422 Q 262.7368421052632 229.05263157894737 242.52631578947367 229.05263157894737 Q 208 229.89473684210526 185.26315789473685 252.6315789473684 Q 162.52631578947367 275.36842105263156 161.68421052631578 309.89473684210526 L 161.68421052631578 404.2105263157895 L 161.68421052631578 404.2105263157895 L 107.78947368421052 404.2105263157895 L 107.78947368421052 404.2105263157895 L 107.78947368421052 309.89473684210526 L 107.78947368421052 309.89473684210526 Q 106.94736842105263 275.36842105263156 84.21052631578948 252.6315789473684 Q 61.473684210526315 229.89473684210526 26.94736842105263 229.05263157894737 L 13.473684210526315 229.05263157894737 L 13.473684210526315 229.05263157894737 Z M 390.7368421052632 242.52631578947367 Q 416 242.52631578947367 437.89473684210526 255.1578947368421 L 437.89473684210526 255.1578947368421 L 437.89473684210526 255.1578947368421 Q 459.7894736842105 267.7894736842105 472.42105263157896 289.6842105263158 Q 485.05263157894734 311.57894736842104 485.05263157894734 336.8421052631579 Q 485.05263157894734 362.10526315789474 472.42105263157896 384 Q 459.7894736842105 405.89473684210526 437.89473684210526 418.5263157894737 Q 416 431.1578947368421 390.7368421052632 431.1578947368421 Q 365.4736842105263 431.1578947368421 343.57894736842104 418.5263157894737 Q 321.6842105263158 405.89473684210526 309.05263157894734 384 Q 296.42105263157896 362.10526315789474 296.42105263157896 336.8421052631579 Q 296.42105263157896 311.57894736842104 309.05263157894734 289.6842105263158 Q 321.6842105263158 267.7894736842105 343.57894736842104 255.1578947368421 Q 365.4736842105263 242.52631578947367 390.7368421052632 242.52631578947367 L 390.7368421052632 242.52631578947367 Z M 390.7368421052632 458.10526315789474 Q 423.57894736842104 458.10526315789474 451.36842105263156 442.10526315789474 L 451.36842105263156 442.10526315789474 L 451.36842105263156 442.10526315789474 Q 479.1578947368421 426.10526315789474 496 397.4736842105263 Q 512 368.8421052631579 512 336.8421052631579 Q 512 304.8421052631579 496 276.2105263157895 Q 479.1578947368421 247.57894736842104 451.36842105263156 231.57894736842104 Q 423.57894736842104 215.57894736842104 390.7368421052632 215.57894736842104 Q 357.89473684210526 215.57894736842104 330.10526315789474 231.57894736842104 Q 302.3157894736842 247.57894736842104 285.4736842105263 276.2105263157895 Q 269.4736842105263 304.8421052631579 269.4736842105263 336.8421052631579 Q 269.4736842105263 368.8421052631579 285.4736842105263 397.4736842105263 Q 302.3157894736842 426.10526315789474 330.10526315789474 442.10526315789474 Q 357.89473684210526 458.10526315789474 390.7368421052632 458.10526315789474 L 390.7368421052632 458.10526315789474 Z M 457.2631578947368 309.89473684210526 L 437.89473684210526 290.5263157894737 L 457.2631578947368 309.89473684210526 L 437.89473684210526 290.5263157894737 L 428.63157894736844 300.63157894736844 L 428.63157894736844 300.63157894736844 L 377.2631578947368 351.1578947368421 L 377.2631578947368 351.1578947368421 L 352.8421052631579 327.57894736842104 L 352.8421052631579 327.57894736842104 L 343.57894736842104 317.4736842105263 L 343.57894736842104 317.4736842105263 L 324.2105263157895 336.8421052631579 L 324.2105263157895 336.8421052631579 L 334.3157894736842 346.10526315789474 L 334.3157894736842 346.10526315789474 L 368 379.7894736842105 L 368 379.7894736842105 L 377.2631578947368 389.89473684210526 L 377.2631578947368 389.89473684210526 L 386.5263157894737 379.7894736842105 L 386.5263157894737 379.7894736842105 L 447.1578947368421 319.1578947368421 L 447.1578947368421 319.1578947368421 L 457.2631578947368 309.89473684210526 L 457.2631578947368 309.89473684210526 Z" />
</svg>