<svg xmlns="http://www.w3.org/2000/svg" viewBox="0 0 512 512">
  <path d="M 196.73700787401575 68.93858267716536 L 196.73700787401575 49.58740157480315 L 196.73700787401575 68.93858267716536 L 196.73700787401575 49.58740157480315 L 158.03464566929134 49.58740157480315 L 158.03464566929134 49.58740157480315 L 158.03464566929134 68.93858267716536 L 158.03464566929134 68.93858267716536 L 158.03464566929134 106.02834645669292 L 158.03464566929134 106.02834645669292 L 144.32755905511812 92.32125984251968 L 144.32755905511812 92.32125984251968 L 130.6204724409449 78.61417322834646 L 130.6204724409449 78.61417322834646 L 104.01259842519686 106.02834645669292 L 104.01259842519686 106.02834645669292 L 117.71968503937008 119.73543307086614 L 117.71968503937008 119.73543307086614 L 158.03464566929134 160.8566929133858 L 158.03464566929134 160.8566929133858 L 158.03464566929134 222.13543307086613 L 158.03464566929134 222.13543307086613 L 104.81889763779527 191.49606299212599 L 104.81889763779527 191.49606299212599 L 89.4992125984252 135.86141732283465 L 89.4992125984252 135.86141732283465 L 84.66141732283465 117.31653543307087 L 84.66141732283465 117.31653543307087 L 47.571653543307086 126.99212598425197 L 47.571653543307086 126.99212598425197 L 52.40944881889764 146.34330708661417 L 52.40944881889764 146.34330708661417 L 57.24724409448819 164.08188976377951 L 57.24724409448819 164.08188976377951 L 36.28346456692913 151.98740157480316 L 36.28346456692913 151.98740157480316 L 19.351181102362204 142.31181102362206 L 19.351181102362204 142.31181102362206 L 0 176.1763779527559 L 0 176.1763779527559 L 16.93228346456693 185.851968503937 L 16.93228346456693 185.851968503937 L 37.896062992125984 197.9464566929134 L 37.896062992125984 197.9464566929134 L 19.351181102362204 202.78425196850392 L 19.351181102362204 202.78425196850392 L 0.8062992125984252 207.6220472440945 L 0.8062992125984252 207.6220472440945 L 11.288188976377953 245.51811023622048 L 11.288188976377953 245.51811023622048 L 29.833070866141732 239.8740157480315 L 29.833070866141732 239.8740157480315 L 85.46771653543307 225.36062992125983 L 85.46771653543307 225.36062992125983 L 138.68346456692913 256 L 138.68346456692913 256 L 85.46771653543307 286.63937007874017 L 85.46771653543307 286.63937007874017 L 29.833070866141732 272.12598425196853 L 29.833070866141732 272.12598425196853 L 11.288188976377953 267.28818897637797 L 11.288188976377953 267.28818897637797 L 0.8062992125984252 304.37795275590554 L 0.8062992125984252 304.37795275590554 L 19.351181102362204 309.21574803149605 L 19.351181102362204 309.21574803149605 L 37.896062992125984 314.0535433070866 L 37.896062992125984 314.0535433070866 L 16.93228346456693 326.14803149606297 L 16.93228346456693 326.14803149606297 L 0 335.8236220472441 L 0 335.8236220472441 L 19.351181102362204 369.68818897637794 L 19.351181102362204 369.68818897637794 L 36.28346456692913 360.01259842519687 L 36.28346456692913 360.01259842519687 L 57.24724409448819 347.91811023622046 L 57.24724409448819 347.91811023622046 L 52.40944881889764 366.4629921259843 L 52.40944881889764 366.4629921259843 L 47.571653543307086 385.00787401574803 L 47.571653543307086 385.00787401574803 L 84.66141732283465 394.68346456692916 L 84.66141732283465 394.68346456692916 L 89.4992125984252 376.13858267716535 L 89.4992125984252 376.13858267716535 L 104.81889763779527 320.503937007874 L 104.81889763779527 320.503937007874 L 158.03464566929134 289.86456692913384 L 158.03464566929134 289.86456692913384 L 158.03464566929134 351.1433070866142 L 158.03464566929134 351.1433070866142 L 116.91338582677166 392.2645669291339 L 116.91338582677166 392.2645669291339 L 103.20629921259842 405.97165354330707 L 103.20629921259842 405.97165354330707 L 130.6204724409449 433.38582677165357 L 130.6204724409449 433.38582677165357 L 144.32755905511812 419.6787401574803 L 144.32755905511812 419.6787401574803 L 158.03464566929134 405.97165354330707 L 158.03464566929134 405.97165354330707 L 158.03464566929134 443.06141732283464 L 158.03464566929134 443.06141732283464 L 158.03464566929134 462.41259842519685 L 158.03464566929134 462.41259842519685 L 196.73700787401575 462.41259842519685 L 196.73700787401575 462.41259842519685 L 196.73700787401575 443.06141732283464 L 196.73700787401575 443.06141732283464 L 196.73700787401575 405.97165354330707 L 196.73700787401575 405.97165354330707 L 210.44409448818897 419.6787401574803 L 210.44409448818897 419.6787401574803 L 224.15118110236222 433.38582677165357 L 224.15118110236222 433.38582677165357 L 251.56535433070866 405.97165354330707 L 251.56535433070866 405.97165354330707 L 237.85826771653544 392.2645669291339 L 237.85826771653544 392.2645669291339 L 196.73700787401575 351.1433070866142 L 196.73700787401575 351.1433070866142 L 196.73700787401575 289.86456692913384 L 196.73700787401575 289.86456692913384 L 249.95275590551182 320.503937007874 L 249.95275590551182 320.503937007874 L 265.2724409448819 376.13858267716535 L 265.2724409448819 376.13858267716535 L 270.1102362204724 394.68346456692916 L 270.1102362204724 394.68346456692916 L 307.2 385.00787401574803 L 307.2 385.00787401574803 L 302.3622047244094 366.4629921259843 L 302.3622047244094 366.4629921259843 L 297.5244094488189 347.91811023622046 L 297.5244094488189 347.91811023622046 L 318.48818897637796 360.01259842519687 L 318.48818897637796 360.01259842519687 L 335.4204724409449 369.68818897637794 L 335.4204724409449 369.68818897637794 L 354.7716535433071 335.8236220472441 L 354.7716535433071 335.8236220472441 L 337.83937007874016 326.14803149606297 L 337.83937007874016 326.14803149606297 L 316.8755905511811 314.0535433070866 L 316.8755905511811 314.0535433070866 L 335.4204724409449 309.21574803149605 L 335.4204724409449 309.21574803149605 L 353.96535433070864 304.37795275590554 L 353.96535433070864 304.37795275590554 L 344.28976377952756 266.4818897637795 L 344.28976377952756 266.4818897637795 L 324.93858267716536 272.12598425196853 L 324.93858267716536 272.12598425196853 L 269.303937007874 286.63937007874017 L 269.303937007874 286.63937007874017 L 216.08818897637795 256 L 216.08818897637795 256 L 269.303937007874 225.36062992125983 L 269.303937007874 225.36062992125983 L 324.93858267716536 239.8740157480315 L 324.93858267716536 239.8740157480315 L 344.28976377952756 245.51811023622048 L 344.28976377952756 245.51811023622048 L 353.96535433070864 207.6220472440945 L 353.96535433070864 207.6220472440945 L 335.4204724409449 202.78425196850392 L 335.4204724409449 202.78425196850392 L 316.8755905511811 197.9464566929134 L 316.8755905511811 197.9464566929134 L 337.83937007874016 185.851968503937 L 337.83937007874016 185.851968503937 L 354.7716535433071 176.1763779527559 L 354.7716535433071 176.1763779527559 L 335.4204724409449 142.31181102362206 L 335.4204724409449 142.31181102362206 L 318.48818897637796 151.98740157480316 L 318.48818897637796 151.98740157480316 L 297.5244094488189 164.08188976377951 L 297.5244094488189 164.08188976377951 L 302.3622047244094 146.34330708661417 L 302.3622047244094 146.34330708661417 L 307.2 126.99212598425197 L 307.2 126.99212598425197 L 270.1102362204724 117.31653543307087 L 270.1102362204724 117.31653543307087 L 265.2724409448819 135.86141732283465 L 265.2724409448819 135.86141732283465 L 249.95275590551182 191.49606299212599 L 249.95275590551182 191.49606299212599 L 196.73700787401575 222.13543307086613 L 196.73700787401575 222.13543307086613 L 196.73700787401575 160.8566929133858 L 196.73700787401575 160.8566929133858 L 237.85826771653544 119.73543307086614 L 237.85826771653544 119.73543307086614 L 251.56535433070866 106.02834645669292 L 251.56535433070866 106.02834645669292 L 224.15118110236222 79.42047244094488 L 224.15118110236222 79.42047244094488 L 210.44409448818897 93.12755905511811 L 210.44409448818897 93.12755905511811 L 196.73700787401575 106.02834645669292 L 196.73700787401575 106.02834645669292 L 196.73700787401575 68.93858267716536 L 196.73700787401575 68.93858267716536 Z M 407.98740157480313 101.19055118110236 L 385.41102362204725 123.76692913385827 L 407.98740157480313 101.19055118110236 L 385.41102362204725 123.76692913385827 L 412.8251968503937 151.1811023622047 L 412.8251968503937 151.1811023622047 L 435.40157480314963 128.6047244094488 L 435.40157480314963 128.6047244094488 L 457.9779527559055 151.1811023622047 L 457.9779527559055 151.1811023622047 L 485.39212598425195 123.76692913385827 L 485.39212598425195 123.76692913385827 L 462.81574803149607 101.19055118110236 L 462.81574803149607 101.19055118110236 L 485.39212598425195 78.61417322834646 L 485.39212598425195 78.61417322834646 L 457.9779527559055 51.2 L 457.9779527559055 51.2 L 435.40157480314963 73.77637795275591 L 435.40157480314963 73.77637795275591 L 412.8251968503937 51.2 L 412.8251968503937 51.2 L 385.41102362204725 78.61417322834646 L 385.41102362204725 78.61417322834646 L 407.98740157480313 101.19055118110236 L 407.98740157480313 101.19055118110236 Z M 437.82047244094485 205.2031496062992 L 410.4062992125984 232.61732283464568 L 437.82047244094485 205.2031496062992 L 410.4062992125984 232.61732283464568 L 424.11338582677166 246.3244094488189 L 424.11338582677166 246.3244094488189 L 433.78897637795274 256 L 433.78897637795274 256 L 424.11338582677166 265.67559055118113 L 424.11338582677166 265.67559055118113 L 410.4062992125984 279.3826771653543 L 410.4062992125984 279.3826771653543 L 437.82047244094485 306.79685039370077 L 437.82047244094485 306.79685039370077 L 451.5275590551181 293.0897637795276 L 451.5275590551181 293.0897637795276 L 461.20314960629923 283.41417322834644 L 461.20314960629923 283.41417322834644 L 470.8787401574803 293.0897637795276 L 470.8787401574803 293.0897637795276 L 484.58582677165356 306.79685039370077 L 484.58582677165356 306.79685039370077 L 512 279.3826771653543 L 512 279.3826771653543 L 498.29291338582675 265.67559055118113 L 498.29291338582675 265.67559055118113 L 488.6173228346457 256 L 488.6173228346457 256 L 498.29291338582675 246.3244094488189 L 498.29291338582675 246.3244094488189 L 512 232.61732283464568 L 512 232.61732283464568 L 484.58582677165356 205.2031496062992 L 484.58582677165356 205.2031496062992 L 470.8787401574803 218.91023622047243 L 470.8787401574803 218.91023622047243 L 461.20314960629923 228.58582677165353 L 461.20314960629923 228.58582677165353 L 451.5275590551181 218.91023622047243 L 451.5275590551181 218.91023622047243 L 437.82047244094485 205.2031496062992 L 437.82047244094485 205.2031496062992 Z" />
</svg>