<svg xmlns="http://www.w3.org/2000/svg" viewBox="0 0 576 480">
    <path d="M 60 128 L 95 48 L 200 48 L 200 128 L 60 128 L 60 128 Z M 248 128 L 248 48 L 353 48 L 388 128 L 248 128 L 248 128 Z M 48 176 L 359 176 Q 392 160 432 160 Q 440 160 448 161 L 448 144 L 384 0 L 64 0 L 0 144 L 0 400 L 0 448 L 48 448 L 296 448 Q 278 426 268 400 L 48 400 L 48 176 L 48 176 Z M 576 336 Q 576 297 557 264 L 557 264 Q 538 231 504 211 Q 470 192 432 192 Q 394 192 360 211 Q 326 231 307 264 Q 288 297 288 336 Q 288 375 307 408 Q 326 441 360 461 Q 394 480 432 480 Q 470 480 504 461 Q 538 441 557 408 Q 576 375 576 336 L 576 336 Z M 511 304 L 499 315 L 427 387 L 416 399 L 405 387 L 365 347 L 353 336 L 376 313 L 387 325 L 416 353 L 477 293 L 488 281 L 511 304 L 511 304 Z"/>
</svg>
