<svg xmlns="http://www.w3.org/2000/svg" viewBox="0 0 512 512">
  <path d="M 411.37106 113.91195 L 440.3522 109.886795 L 411.37106 113.91195 L 440.3522 109.886795 L 484.62894 103.44654 L 484.62894 103.44654 L 468.5283 145.30818 L 468.5283 145.30818 L 458.0629 172.67924 L 458.0629 172.67924 L 479.79874 193.61006 L 479.79874 193.61006 L 512 223.39622 L 512 223.39622 L 469.33334 237.08176 L 469.33334 237.08176 L 441.15723 245.9371 L 441.15723 245.9371 L 438.74213 275.72327 L 438.74213 275.72327 L 434.71698 320 L 434.71698 320 L 398.49057 295.04404 L 398.49057 295.04404 L 373.53458 278.9434 L 373.53458 278.9434 L 348.5786 295.04404 L 348.5786 295.04404 L 333.28302 305.50943 L 333.28302 305.50943 L 307.522 268.478 L 307.522 268.478 L 305.91196 245.9371 L 305.91196 245.9371 L 288.20126 240.30188 L 288.20126 240.30188 L 280.95596 230.64151 L 280.95596 230.64151 L 257.61008 230.64151 L 257.61008 230.64151 L 257.61008 230.64151 L 257.61008 230.64151 L 235.06918 223.39622 L 235.06918 223.39622 L 267.27045 193.61006 L 267.27045 193.61006 L 289.0063 172.67924 L 289.0063 172.67924 L 278.5409 144.50314 L 278.5409 144.50314 L 262.44025 103.44654 L 262.44025 103.44654 L 306.71698 109.886795 L 306.71698 109.886795 L 335.69812 113.91195 L 335.69812 113.91195 L 350.9937 88.15094 L 350.9937 88.15094 L 373.53458 50.314465 L 373.53458 50.314465 L 396.07547 88.15094 L 396.07547 88.15094 L 411.37106 113.91195 L 411.37106 113.91195 Z M 425.0566 150.94339 L 416.20126 152.55345 L 425.0566 150.94339 L 416.20126 152.55345 L 391.24527 155.77359 L 391.24527 155.77359 L 377.55975 133.23271 L 377.55975 133.23271 L 373.53458 125.98742 L 373.53458 125.98742 L 369.50943 133.23271 L 369.50943 133.23271 L 355.8239 155.77359 L 355.8239 155.77359 L 330.86792 151.74843 L 330.86792 151.74843 L 322.01257 150.94339 L 322.01257 150.94339 L 325.2327 158.99371 L 325.2327 158.99371 L 334.08804 183.14465 L 334.08804 183.14465 L 315.57233 200.85535 L 315.57233 200.85535 L 309.13208 206.49057 L 309.13208 206.49057 L 317.1824 209.7107 L 317.1824 209.7107 L 342.13837 216.95598 L 342.13837 216.95598 L 344.55347 242.71698 L 344.55347 242.71698 L 344.55347 251.57233 L 344.55347 251.57233 L 351.79874 246.74214 L 351.79874 246.74214 L 373.53458 232.25157 L 373.53458 232.25157 L 395.27045 246.74214 L 395.27045 246.74214 L 402.51572 251.57233 L 402.51572 251.57233 L 402.51572 242.71698 L 402.51572 242.71698 L 404.93082 216.95598 L 404.93082 216.95598 L 429.88678 208.90565 L 429.88678 208.90565 L 437.9371 206.49057 L 437.9371 206.49057 L 431.49686 200.85535 L 431.49686 200.85535 L 412.98114 183.14465 L 412.98114 183.14465 L 421.8365 158.99371 L 421.8365 158.99371 L 425.0566 150.94339 L 425.0566 150.94339 Z M 206.08804 50.314465 L 206.08804 69.63522 L 206.08804 50.314465 L 206.08804 69.63522 L 206.08804 153.35849 L 206.08804 153.35849 L 206.08804 166.239 L 206.08804 166.239 L 194.81761 171.06918 L 194.81761 171.06918 L 147.32076 192.80504 L 147.32076 192.80504 L 190.79245 256.40253 L 190.79245 256.40253 L 257.61008 256.40253 L 268.07547 256.40253 L 273.7107 264.45282 L 273.7107 264.45282 L 318.79245 328.85535 L 318.79245 328.85535 L 330.0629 344.95596 L 330.0629 344.95596 L 297.86163 366.69183 L 297.86163 366.69183 L 286.5912 351.39624 L 286.5912 351.39624 L 247.94969 295.04404 L 247.94969 295.04404 L 207.69812 295.04404 L 207.69812 295.04404 Q 206.08804 296.65408 203.67296 298.26416 L 160.20126 327.24527 L 160.20126 327.24527 L 222.99371 423.84906 L 222.99371 423.84906 L 233.45912 440.75473 L 233.45912 440.75473 L 201.25786 461.68555 L 201.25786 461.68555 L 190.79245 444.77988 L 190.79245 444.77988 L 64.40252 249.96227 L 64.40252 249.96227 L 64.40252 340.1258 L 64.40252 340.1258 L 64.40252 359.44653 L 64.40252 359.44653 L 25.761005 359.44653 L 25.761005 359.44653 L 25.761005 340.1258 L 25.761005 340.1258 L 25.761005 217.761 L 25.761005 217.761 L 25.761005 205.68553 L 25.761005 205.68553 L 37.03145 200.05031 L 37.03145 200.05031 L 167.44655 141.28302 L 167.44655 141.28302 L 167.44655 69.63522 L 167.44655 69.63522 L 167.44655 50.314465 L 167.44655 50.314465 L 206.08804 50.314465 L 206.08804 50.314465 Z M 139.27045 295.04404 L 160.20126 280.55347 L 139.27045 295.04404 L 160.20126 280.55347 L 111.89937 208.90565 L 111.89937 208.90565 L 90.16352 218.56604 L 90.16352 218.56604 L 139.27045 295.04404 L 139.27045 295.04404 Z M 0 114.71698 Q 0.8050314 92.98113 19.320755 80.90566 Q 38.64151 71.245285 57.962265 80.90566 Q 76.47799 92.98113 77.28302 114.71698 Q 76.47799 136.45284 57.962265 148.5283 Q 38.64151 158.18867 19.320755 148.5283 Q 0.8050314 136.45284 0 114.71698 L 0 114.71698 Z" />
</svg>