<svg xmlns="http://www.w3.org/2000/svg" viewBox="0 0 512 512">
  <path d="M 433.77777777777777 49.77777777777778 L 433.77777777777777 28.444444444444443 L 433.77777777777777 49.77777777777778 L 433.77777777777777 28.444444444444443 L 391.1111111111111 28.444444444444443 L 391.1111111111111 28.444444444444443 L 391.1111111111111 49.77777777777778 L 391.1111111111111 49.77777777777778 L 391.1111111111111 78.22222222222223 L 391.1111111111111 78.22222222222223 L 362.6666666666667 78.22222222222223 L 341.3333333333333 78.22222222222223 L 341.3333333333333 120.88888888888889 L 341.3333333333333 120.88888888888889 L 362.6666666666667 120.88888888888889 L 391.1111111111111 120.88888888888889 L 391.1111111111111 149.33333333333334 L 391.1111111111111 149.33333333333334 L 391.1111111111111 170.66666666666666 L 391.1111111111111 170.66666666666666 L 433.77777777777777 170.66666666666666 L 433.77777777777777 170.66666666666666 L 433.77777777777777 149.33333333333334 L 433.77777777777777 149.33333333333334 L 433.77777777777777 120.88888888888889 L 433.77777777777777 120.88888888888889 L 462.22222222222223 120.88888888888889 L 483.55555555555554 120.88888888888889 L 483.55555555555554 78.22222222222223 L 483.55555555555554 78.22222222222223 L 462.22222222222223 78.22222222222223 L 433.77777777777777 78.22222222222223 L 433.77777777777777 49.77777777777778 L 433.77777777777777 49.77777777777778 Z M 0 256 L 256 369.77777777777777 L 0 256 L 256 369.77777777777777 L 512 256 L 512 256 L 256 142.22222222222223 L 256 142.22222222222223 L 0 256 L 0 256 Z M 256 400.8888888888889 L 93.33333333333333 328.8888888888889 L 256 400.8888888888889 L 93.33333333333333 328.8888888888889 L 0 369.77777777777777 L 0 369.77777777777777 L 256 483.55555555555554 L 256 483.55555555555554 L 512 369.77777777777777 L 512 369.77777777777777 L 418.6666666666667 328.8888888888889 L 418.6666666666667 328.8888888888889 L 256 400.8888888888889 L 256 400.8888888888889 Z" />
</svg>