<svg xmlns="http://www.w3.org/2000/svg" viewBox="0 0 512 512">
  <path d="M 462 427 Q 433 455 409 468 L 409 468 L 409 468 Q 386 480 384 480 L 384 480 L 384 480 Q 384 480 384 480 Q 386 480 399 459 Q 413 439 416 404 Q 416 402 416 400 Q 415 352 383 321 Q 352 289 304 288 L 272 288 L 224 288 L 224 336 L 224 336 L 224 348 L 224 348 L 224 349 L 224 349 L 224 384 L 224 384 L 192 384 L 192 384 L 176 369 L 176 369 L 36 241 L 36 241 L 0 208 L 0 208 L 36 175 L 36 175 L 176 47 L 176 47 L 192 32 L 192 32 L 224 32 L 224 32 L 224 67 L 224 67 L 224 68 L 224 68 L 224 80 L 224 80 L 224 128 L 224 128 L 272 128 L 336 128 Q 411 130 460 180 Q 510 229 512 304 Q 511 345 497 376 Q 482 406 462 427 L 462 427 Z M 456 349 Q 464 329 464 304 Q 463 250 427 213 Q 390 177 336 176 L 224 176 L 176 176 L 176 128 L 176 128 L 176 112 L 176 112 L 71 208 L 71 208 L 176 304 L 176 304 L 176 288 L 176 288 L 176 240 L 176 240 L 224 240 L 304 240 Q 358 241 398 271 Q 439 301 456 349 L 456 349 Z" />
</svg>