<svg xmlns="http://www.w3.org/2000/svg" viewBox="0 0 512 512">
  <path d="M 288.63745 24.478088 L 288.63745 0 L 288.63745 24.478088 L 288.63745 0 L 239.68127 0 L 239.68127 0 L 239.68127 24.478088 L 239.68127 24.478088 L 239.68127 269.25897 L 239.68127 269.25897 L 239.68127 293.73706 L 239.68127 293.73706 L 288.63745 293.73706 L 288.63745 293.73706 L 288.63745 269.25897 L 288.63745 269.25897 L 288.63745 24.478088 L 288.63745 24.478088 Z M 60.1753 267.21912 Q 60.1753 218.26295 81.59363 177.46614 L 81.59363 177.46614 L 81.59363 177.46614 Q 103.011955 136.66933 139.72908 109.13148 L 111.17132 70.374504 L 111.17132 70.374504 Q 65.2749 104.031876 38.756973 155.0279 Q 12.239044 206.02391 11.219124 267.21912 Q 12.239044 335.55377 44.876495 390.6295 Q 77.51395 445.70517 132.58965 478.34262 Q 187.66534 510.98007 256 512 Q 324.33466 510.98007 379.41037 478.34262 Q 434.48605 445.70517 467.1235 390.6295 Q 499.76096 335.55377 500.78088 267.21912 Q 499.76096 206.02391 473.24304 155.0279 Q 446.7251 104.031876 400.82867 70.374504 L 372.2709 109.13148 L 372.2709 109.13148 Q 408.98804 136.66933 430.40637 177.46614 Q 450.80478 218.26295 451.8247 267.21912 Q 449.78485 350.8526 394.70917 405.92828 Q 338.61356 461.004 256 463.04382 Q 172.36653 461.004 117.29084 405.92828 Q 62.21514 350.8526 60.1753 267.21912 L 60.1753 267.21912 Z" />
</svg>