<svg xmlns="http://www.w3.org/2000/svg" viewBox="0 0 512 512">
  <path d="M 28.444445 85.333336 L 28.444445 426.66666 L 28.444445 85.333336 L 28.444445 426.66666 L 483.55554 426.66666 L 483.55554 426.66666 L 483.55554 85.333336 L 483.55554 85.333336 L 28.444445 85.333336 L 28.444445 85.333336 Z M 0 56.88889 L 28.444445 56.88889 L 0 56.88889 L 512 56.88889 L 512 85.333336 L 512 85.333336 L 512 426.66666 L 512 426.66666 L 512 455.1111 L 512 455.1111 L 483.55554 455.1111 L 0 455.1111 L 0 426.66666 L 0 426.66666 L 0 85.333336 L 0 85.333336 L 0 56.88889 L 0 56.88889 Z M 92.44444 170.66667 Q 94.22222 151.11111 113.77778 149.33333 Q 133.33333 151.11111 135.11111 170.66667 Q 133.33333 190.22223 113.77778 192 Q 94.22222 190.22223 92.44444 170.66667 L 92.44444 170.66667 Z M 170.66667 156.44444 L 184.88889 156.44444 L 170.66667 156.44444 L 426.66666 156.44444 L 426.66666 184.88889 L 426.66666 184.88889 L 412.44446 184.88889 L 170.66667 184.88889 L 170.66667 156.44444 L 170.66667 156.44444 Z M 170.66667 241.77777 L 184.88889 241.77777 L 170.66667 241.77777 L 426.66666 241.77777 L 426.66666 270.22223 L 426.66666 270.22223 L 412.44446 270.22223 L 170.66667 270.22223 L 170.66667 241.77777 L 170.66667 241.77777 Z M 170.66667 327.1111 L 184.88889 327.1111 L 170.66667 327.1111 L 426.66666 327.1111 L 426.66666 355.55554 L 426.66666 355.55554 L 412.44446 355.55554 L 170.66667 355.55554 L 170.66667 327.1111 L 170.66667 327.1111 Z M 113.77778 277.33334 Q 94.22222 275.55554 92.44444 256 Q 94.22222 236.44444 113.77778 234.66667 Q 133.33333 236.44444 135.11111 256 Q 133.33333 275.55554 113.77778 277.33334 L 113.77778 277.33334 Z M 92.44444 341.33334 Q 94.22222 321.77777 113.77778 320 Q 133.33333 321.77777 135.11111 341.33334 Q 133.33333 360.8889 113.77778 362.66666 Q 94.22222 360.8889 92.44444 341.33334 L 92.44444 341.33334 Z" />
</svg>