<svg xmlns="http://www.w3.org/2000/svg" viewBox="0 0 512 512">
  <path d="M 302.32382 49.574604 L 295.82224 68.26667 L 302.32382 49.574604 L 295.82224 68.26667 L 178.79366 432.35556 L 178.79366 432.35556 L 173.10477 450.23492 L 173.10477 450.23492 L 210.48889 462.42538 L 210.48889 462.42538 L 216.17778 443.73334 L 216.17778 443.73334 L 333.20636 79.64445 L 333.20636 79.64445 L 338.89523 61.76508 L 338.89523 61.76508 L 302.32382 49.574604 L 302.32382 49.574604 Z M 351.8984 159.2889 L 366.52698 173.10477 L 351.8984 159.2889 L 366.52698 173.10477 L 455.1111 256 L 455.1111 256 L 366.52698 339.70795 L 366.52698 339.70795 L 351.8984 352.71112 L 351.8984 352.71112 L 378.71747 381.15555 L 378.71747 381.15555 L 392.53333 368.15237 L 392.53333 368.15237 L 496.55872 270.62857 L 496.55872 270.62857 L 512 256 L 512 256 L 496.55872 242.18413 L 496.55872 242.18413 L 392.53333 144.66032 L 392.53333 144.66032 L 378.71747 130.84445 L 378.71747 130.84445 L 351.8984 159.2889 L 351.8984 159.2889 Z M 133.28255 130.84445 L 119.46667 144.66032 L 133.28255 130.84445 L 119.46667 144.66032 L 15.44127 242.18413 L 15.44127 242.18413 L 0 256 L 0 256 L 15.44127 270.62857 L 15.44127 270.62857 L 119.46667 368.15237 L 119.46667 368.15237 L 133.28255 381.15555 L 133.28255 381.15555 L 160.1016 352.71112 L 160.1016 352.71112 L 145.47302 339.70795 L 145.47302 339.70795 L 56.88889 256 L 56.88889 256 L 145.47302 173.10477 L 145.47302 173.10477 L 160.1016 159.2889 L 160.1016 159.2889 L 133.28255 130.84445 L 133.28255 130.84445 Z" />
</svg>