<svg xmlns="http://www.w3.org/2000/svg" viewBox="0 0 512 512">
  <path d="M 322.37036 189.62962 L 322.37036 246.51852 L 322.37036 189.62962 L 322.37036 246.51852 L 322.37036 348.44446 L 322.37036 348.44446 L 416 96 L 416 96 L 163.55556 189.62962 L 163.55556 189.62962 L 265.48148 189.62962 L 322.37036 189.62962 Z M 0 189.62962 L 442.07407 26.074074 L 0 189.62962 L 442.07407 26.074074 L 512 0 L 512 0 L 485.92593 69.92593 L 485.92593 69.92593 L 322.37036 512 L 322.37036 512 L 265.48148 512 L 265.48148 512 L 265.48148 455.1111 L 265.48148 455.1111 L 265.48148 303.4074 L 265.48148 303.4074 L 265.48148 246.51852 L 265.48148 246.51852 L 208.59259 246.51852 L 0 246.51852 L 0 189.62962 L 0 189.62962 Z" />
</svg>