<svg xmlns="http://www.w3.org/2000/svg" viewBox="0 0 512 512">
  <path d="M 383.7495 416.8141 L 417.81604 382.74756 L 383.7495 416.8141 L 417.81604 382.74756 L 477.93347 322.63013 L 477.93347 322.63013 L 512 288.5636 L 512 288.5636 L 477.93347 254.49707 L 477.93347 254.49707 L 415.81213 192.37573 L 415.81213 192.37573 L 495.9687 112.21918 L 495.9687 112.21918 L 399.78082 16.031311 L 399.78082 16.031311 L 319.62427 96.18787 L 319.62427 96.18787 L 257.50293 34.066536 L 257.50293 34.066536 L 223.4364 0 L 223.4364 0 L 189.36986 34.066536 L 189.36986 34.066536 L 129.25244 94.18395 L 129.25244 94.18395 L 95.18591 128.25049 L 95.18591 128.25049 L 129.25244 162.31703 L 129.25244 162.31703 L 191.37378 224.43835 L 191.37378 224.43835 L 174.34052 241.47162 L 174.34052 241.47162 Q 138.27007 224.43835 95.18591 224.43835 Q 43.08415 225.4403 0 249.48727 L 120.23483 369.7221 L 120.23483 369.7221 L 95.18591 393.76907 L 95.18591 393.76907 Q 91.178085 392.76712 87.17026 392.76712 Q 73.14286 392.76712 64.125244 401.78473 Q 55.10763 410.80234 55.10763 424.82974 Q 55.10763 438.85715 64.125244 447.87476 Q 73.14286 456.89236 87.17026 456.89236 Q 101.197655 456.89236 110.21526 447.87476 Q 119.23288 438.85715 119.23288 424.82974 Q 119.23288 420.82193 118.23092 416.8141 L 142.2779 391.76517 L 142.2779 391.76517 L 262.51273 512 L 262.51273 512 Q 286.5597 468.91586 287.56165 416.8141 Q 287.56165 373.72995 270.52838 337.6595 L 287.56165 320.62622 L 287.56165 320.62622 L 349.68298 382.74756 L 349.68298 382.74756 L 383.7495 416.8141 L 383.7495 416.8141 Z M 321.62817 286.5597 L 381.7456 226.44228 L 321.62817 286.5597 L 381.7456 226.44228 L 443.8669 288.5636 L 443.8669 288.5636 L 383.7495 348.68103 L 383.7495 348.68103 L 321.62817 286.5597 L 321.62817 286.5597 Z M 225.4403 190.37183 L 163.31898 128.25049 L 225.4403 190.37183 L 163.31898 128.25049 L 223.4364 68.13307 L 223.4364 68.13307 L 285.55774 130.25441 L 285.55774 130.25441 L 225.4403 190.37183 L 225.4403 190.37183 Z" />
</svg>