<svg xmlns="http://www.w3.org/2000/svg" viewBox="0 0 512 512">
  <path d="M 0 0 L 224 0 L 0 0 L 224 0 L 224 160 L 224 160 L 384 160 L 384 160 L 384 304 L 384 304 L 112 304 L 112 304 L 112 512 L 112 512 L 0 512 L 0 512 L 0 0 L 0 0 Z M 384 128 L 256 128 L 384 128 L 256 128 L 256 0 L 256 0 L 384 128 L 384 128 Z M 200 352 L 216 352 L 200 352 L 216 352 Q 233 352 244 364 Q 256 375 256 392 L 256 400 L 256 400 L 256 416 L 256 416 L 224 416 L 224 416 L 224 400 L 224 400 L 224 392 L 224 392 Q 223 385 216 384 L 200 384 L 200 384 Q 193 385 192 392 L 192 472 L 192 472 Q 193 479 200 480 L 216 480 L 216 480 Q 223 479 224 472 L 224 464 L 224 464 L 224 448 L 224 448 L 256 448 L 256 448 L 256 464 L 256 464 L 256 472 L 256 472 Q 256 489 244 500 Q 233 512 216 512 L 200 512 L 200 512 Q 183 512 172 500 Q 160 489 160 472 L 160 392 L 160 392 Q 160 375 172 364 Q 183 352 200 352 L 200 352 Z M 432 352 L 464 352 L 432 352 L 464 352 Q 484 353 498 366 Q 511 380 512 400 L 512 464 L 512 464 Q 511 484 498 498 Q 484 511 464 512 L 432 512 L 416 512 L 416 496 L 416 496 L 416 368 L 416 368 L 416 352 L 416 352 L 432 352 L 432 352 Z M 448 384 L 448 480 L 448 384 L 448 480 L 464 480 L 464 480 Q 479 479 480 464 L 480 400 L 480 400 Q 479 385 464 384 L 448 384 L 448 384 Z M 288 392 Q 288 375 300 364 L 300 364 L 300 364 Q 311 352 328 352 L 344 352 L 344 352 Q 361 352 372 364 Q 384 375 384 392 L 384 448 L 384 448 L 384 496 L 384 496 L 384 512 L 384 512 L 352 512 L 352 512 L 352 496 L 352 496 L 352 464 L 352 464 L 320 464 L 320 464 L 320 496 L 320 496 L 320 512 L 320 512 L 288 512 L 288 512 L 288 496 L 288 496 L 288 448 L 288 448 L 288 392 L 288 392 Z M 320 432 L 352 432 L 320 432 L 352 432 L 352 392 L 352 392 Q 351 385 344 384 L 328 384 L 328 384 Q 321 385 320 392 L 320 432 L 320 432 Z" />
</svg>