<svg xmlns="http://www.w3.org/2000/svg" viewBox="0 0 512 512">
  <path d="M 0 224 L 0 256 L 0 224 L 0 256 L 64 256 L 64 256 L 64 224 L 64 224 L 64 160 L 64 160 L 339 160 L 339 160 L 313 185 L 313 185 L 291 208 L 291 208 L 336 253 L 336 253 L 359 231 L 359 231 L 439 151 L 439 151 L 461 128 L 461 128 L 439 105 L 439 105 L 359 25 L 359 25 L 336 3 L 336 3 L 291 48 L 291 48 L 313 71 L 313 71 L 339 96 L 339 96 L 32 96 L 0 96 L 0 128 L 0 128 L 0 224 L 0 224 Z M 512 288 L 512 256 L 512 288 L 512 256 L 448 256 L 448 256 L 448 288 L 448 288 L 448 352 L 448 352 L 173 352 L 173 352 L 199 327 L 199 327 L 221 304 L 221 304 L 176 259 L 176 259 L 153 281 L 153 281 L 73 361 L 73 361 L 51 384 L 51 384 L 73 407 L 73 407 L 153 487 L 153 487 L 176 509 L 176 509 L 221 464 L 221 464 L 199 441 L 199 441 L 173 416 L 173 416 L 480 416 L 512 416 L 512 384 L 512 384 L 512 288 L 512 288 Z" />
</svg>