<svg xmlns="http://www.w3.org/2000/svg" viewBox="0 0 512 512">
  <path d="M 26.25641 60.71795 L 16.410257 52.51282 L 26.25641 60.71795 L 16.410257 52.51282 L 0 73.02564 L 0 73.02564 L 10.666667 81.23077 L 10.666667 81.23077 L 485.7436 451.28204 L 485.7436 451.28204 L 495.58975 459.48718 L 495.58975 459.48718 L 512 438.97437 L 512 438.97437 L 502.15384 430.76923 L 502.15384 430.76923 L 26.25641 60.71795 L 26.25641 60.71795 Z M 492.30768 256 Q 490.66666 200.20512 453.7436 163.28206 L 453.7436 163.28206 L 453.7436 163.28206 Q 416.82053 126.35897 361.02563 124.71795 L 295.3846 124.71795 L 282.2564 124.71795 L 282.2564 150.97437 L 282.2564 150.97437 L 295.3846 150.97437 L 361.02563 150.97437 Q 405.33334 151.79488 435.69232 181.33333 Q 465.23077 211.6923 466.05127 256 Q 465.23077 301.1282 434.8718 330.66666 L 456.20514 347.07693 L 456.20514 347.07693 Q 490.66666 310.15384 492.30768 256 L 492.30768 256 Z M 367.58975 269.1282 L 380.71796 269.1282 L 367.58975 269.1282 L 380.71796 269.1282 L 380.71796 242.8718 L 380.71796 242.8718 L 367.58975 242.8718 L 324.10257 242.8718 L 357.7436 269.1282 L 357.7436 269.1282 L 367.58975 269.1282 L 367.58975 269.1282 Z M 154.25641 242.8718 L 144.41026 242.8718 L 154.25641 242.8718 L 131.28206 242.8718 L 131.28206 269.1282 L 131.28206 269.1282 L 144.41026 269.1282 L 187.89743 269.1282 L 155.07692 242.8718 L 154.25641 242.8718 Z M 77.128204 181.33333 L 56.615383 164.92308 L 77.128204 181.33333 L 56.615383 164.92308 Q 21.333334 201.84616 19.692308 256 Q 21.333334 311.79486 58.25641 348.71796 Q 95.17949 385.64102 150.97437 387.28204 L 216.61539 387.28204 L 229.74359 387.28204 L 229.74359 361.02563 L 229.74359 361.02563 L 216.61539 361.02563 L 150.97437 361.02563 Q 106.666664 360.20514 76.30769 330.66666 Q 46.76923 300.30768 45.94872 256 Q 46.76923 210.8718 77.128204 181.33333 L 77.128204 181.33333 Z" />
</svg>