<svg xmlns="http://www.w3.org/2000/svg" viewBox="0 0 512 512">
  <path d="M 27.428571428571427 0 L 0 0 L 27.428571428571427 0 L 0 0 L 0 54.857142857142854 L 0 54.857142857142854 L 27.428571428571427 54.857142857142854 L 156.57142857142858 54.857142857142854 L 171.42857142857142 82.28571428571429 L 171.42857142857142 82.28571428571429 L 3.4285714285714284 512 L 3.4285714285714284 512 L 62.857142857142854 512 L 62.857142857142854 512 L 205.71428571428572 147.42857142857142 L 205.71428571428572 147.42857142857142 L 387.42857142857144 497.14285714285717 L 387.42857142857144 497.14285714285717 L 394.2857142857143 512 L 394.2857142857143 512 L 411.42857142857144 512 L 512 512 L 512 457.14285714285717 L 512 457.14285714285717 L 484.57142857142856 457.14285714285717 L 428.57142857142856 457.14285714285717 L 197.71428571428572 14.857142857142858 L 197.71428571428572 14.857142857142858 L 190.85714285714286 0 L 190.85714285714286 0 L 173.71428571428572 0 L 27.428571428571427 0 Z" />
</svg>