<svg xmlns="http://www.w3.org/2000/svg" viewBox="0 0 512 512">
  <path d="M 255.5 80 Q 277.5 78 279.5 56 Q 277.5 34 255.5 32 Q 233.5 34 231.5 56 Q 233.5 78 255.5 80 L 255.5 80 Z M 255.5 0 Q 287.5 1 303.5 28 Q 319.5 56 303.5 84 Q 287.5 111 255.5 112 Q 223.5 111 207.5 84 Q 191.5 56 207.5 28 Q 223.5 1 255.5 0 L 255.5 0 Z M 223.5 384 L 223.5 496 L 223.5 384 L 223.5 496 L 223.5 512 L 223.5 512 L 191.5 512 L 191.5 512 L 191.5 496 L 191.5 496 L 191.5 384 L 191.5 384 L 159.5 384 L 159.5 384 L 159.5 352 L 159.5 352 L 159.5 211 L 159.5 211 L 126.5 294 L 126.5 294 L 96.5 282 L 96.5 282 L 154.5 138 L 154.5 138 L 158.5 128 L 158.5 128 L 159.5 128 L 319.5 128 L 337.5 226 L 337.5 226 Q 371.5 233 393.5 259 Q 414.5 284 415.5 320 L 415.5 352 L 415.5 352 L 415.5 384 L 415.5 384 L 383.5 384 L 319.5 384 L 319.5 496 L 319.5 496 L 319.5 512 L 319.5 512 L 287.5 512 L 287.5 512 L 287.5 496 L 287.5 496 L 287.5 384 L 287.5 384 L 255.5 384 L 223.5 384 Z M 255.5 160 L 191.5 160 L 255.5 160 L 191.5 160 L 191.5 352 L 191.5 352 L 223.5 352 L 383.5 352 L 383.5 320 L 383.5 320 Q 383.5 296 368.5 279 Q 354.5 262 331.5 257 L 310.5 253 L 310.5 253 L 306.5 232 L 306.5 232 L 292.5 160 L 292.5 160 L 255.5 160 L 255.5 160 Z" />
</svg>