<svg xmlns="http://www.w3.org/2000/svg" viewBox="0 0 512 512">
  <path d="M 31.690522243713733 2.4758220502901356 L 190.1431334622824 2.4758220502901356 L 31.690522243713733 2.4758220502901356 L 221.83365570599614 2.4758220502901356 L 221.83365570599614 65.85686653771761 L 221.83365570599614 65.85686653771761 L 190.1431334622824 65.85686653771761 L 0 65.85686653771761 L 0 2.4758220502901356 L 0 2.4758220502901356 L 31.690522243713733 2.4758220502901356 L 31.690522243713733 2.4758220502901356 Z M 479.3191489361702 359.9845261121857 L 352.5570599613153 486.7466150870406 L 479.3191489361702 359.9845261121857 L 352.5570599613153 486.7466150870406 L 330.7698259187621 509.52417794970984 L 330.7698259187621 509.52417794970984 L 285.2147001934236 464.95938104448743 L 285.2147001934236 464.95938104448743 L 307.99226305609284 442.1818181818182 L 307.99226305609284 442.1818181818182 L 434.75435203094776 315.41972920696327 L 434.75435203094776 315.41972920696327 L 456.541586073501 292.642166344294 L 456.541586073501 292.642166344294 L 502.09671179883946 338.1972920696325 L 502.09671179883946 338.1972920696325 L 479.3191489361702 359.9845261121857 L 479.3191489361702 359.9845261121857 Z M 0 97.54738878143134 L 31.690522243713733 97.54738878143134 L 0 97.54738878143134 L 221.83365570599614 97.54738878143134 L 221.83365570599614 160.9284332688588 L 221.83365570599614 160.9284332688588 L 190.1431334622824 160.9284332688588 L 142.6073500967118 160.9284332688588 L 142.6073500967118 192.61895551257254 L 142.6073500967118 192.61895551257254 L 142.6073500967118 224.30947775628627 L 142.6073500967118 224.30947775628627 L 79.22630560928434 224.30947775628627 L 79.22630560928434 224.30947775628627 L 79.22630560928434 192.61895551257254 L 79.22630560928434 192.61895551257254 L 79.22630560928434 160.9284332688588 L 79.22630560928434 160.9284332688588 L 31.690522243713733 160.9284332688588 L 0 160.9284332688588 L 0 97.54738878143134 L 0 97.54738878143134 Z M 285.2147001934236 327.3036750483559 Q 286.2050290135397 304.52611218568666 305.02127659574467 292.642166344294 Q 324.82785299806574 282.7388781431335 344.63442940038686 292.642166344294 Q 363.45067698259186 304.52611218568666 364.44100580270793 327.3036750483559 Q 363.45067698259186 350.08123791102514 344.63442940038686 361.9651837524178 Q 324.82785299806574 371.86847195357836 305.02127659574467 361.9651837524178 Q 286.2050290135397 350.08123791102514 285.2147001934236 327.3036750483559 L 285.2147001934236 327.3036750483559 Z M 467.43520309477753 430.29787234042556 Q 490.21276595744683 431.2882011605416 502.09671179883946 450.1044487427466 Q 512 469.9110251450677 502.09671179883946 489.71760154738877 Q 490.21276595744683 508.5338491295938 467.43520309477753 509.52417794970984 Q 444.6576402321083 508.5338491295938 432.77369439071566 489.71760154738877 Q 422.8704061895551 469.9110251450677 432.77369439071566 450.1044487427466 Q 444.6576402321083 431.2882011605416 467.43520309477753 430.29787234042556 L 467.43520309477753 430.29787234042556 Z M 507.04835589941973 3.4661508704061896 L 507.04835589941973 42.0889748549323 L 507.04835589941973 3.4661508704061896 L 507.04835589941973 42.0889748549323 L 507.04835589941973 176.77369439071566 L 507.04835589941973 176.77369439071566 Q 506.05802707930366 196.58027079303676 488.2321083172147 210.44487427466152 Q 470.4061895551257 223.31914893617022 443.6673114119923 224.30947775628627 Q 416.9284332688588 223.31914893617022 399.1025145067698 210.44487427466152 Q 381.27659574468083 196.58027079303676 380.2862669245648 176.77369439071566 Q 381.27659574468083 156.9671179883946 399.1025145067698 143.10251450676984 Q 416.9284332688588 130.22823984526113 443.6673114119923 129.23791102514508 L 443.6673114119923 80.71179883945841 L 443.6673114119923 80.71179883945841 L 348.59574468085106 99.52804642166345 L 348.59574468085106 99.52804642166345 L 348.59574468085106 208.4642166344294 L 348.59574468085106 208.4642166344294 Q 347.60541586073504 228.2707930367505 329.77949709864606 242.13539651837525 Q 311.9535783365571 255.00967117988395 285.2147001934236 256 Q 258.47582205029016 255.00967117988395 240.64990328820116 242.13539651837525 Q 222.82398452611218 228.2707930367505 221.83365570599614 208.4642166344294 Q 222.82398452611218 188.65764023210832 240.64990328820116 174.79303675048357 Q 258.47582205029016 161.91876208897486 285.2147001934236 160.9284332688588 L 285.2147001934236 73.77949709864603 L 285.2147001934236 73.77949709864603 L 285.2147001934236 48.030947775628626 L 285.2147001934236 48.030947775628626 L 310.963249516441 43.07930367504836 L 310.963249516441 43.07930367504836 L 469.4158607350097 11.388781431334623 L 469.4158607350097 11.388781431334623 L 507.04835589941973 3.4661508704061896 L 507.04835589941973 3.4661508704061896 Z M 15.845261121856867 319.38104448742746 L 15.845261121856867 248.07736943907156 L 15.845261121856867 319.38104448742746 L 15.845261121856867 248.07736943907156 L 87.14893617021276 248.07736943907156 L 158.45261121856868 248.07736943907156 L 158.45261121856868 319.38104448742746 L 158.45261121856868 319.38104448742746 Q 157.4622823984526 352.06189555125724 134.68471953578336 372.8588007736944 L 148.5493230174081 388.70406189555126 L 148.5493230174081 388.70406189555126 L 161.42359767891682 374.8394584139265 L 161.42359767891682 374.8394584139265 L 182.22050290135397 351.0715667311412 L 182.22050290135397 351.0715667311412 L 229.75628626692458 393.65570599613153 L 229.75628626692458 393.65570599613153 L 207.96905222437138 417.42359767891685 L 207.96905222437138 417.42359767891685 L 192.1237911025145 435.2495164410058 L 192.1237911025145 435.2495164410058 L 200.04642166344294 443.17214700193426 L 200.04642166344294 443.17214700193426 L 221.83365570599614 465.9497098646035 L 221.83365570599614 465.9497098646035 L 175.28820116054158 509.52417794970984 L 175.28820116054158 509.52417794970984 L 153.50096711798838 485.7562862669246 L 153.50096711798838 485.7562862669246 L 149.5396518375242 481.7949709864603 L 149.5396518375242 481.7949709864603 L 134.68471953578336 498.6305609284333 L 134.68471953578336 498.6305609284333 L 124.78143133462282 509.52417794970984 L 124.78143133462282 509.52417794970984 L 110.91682785299807 509.52417794970984 L 0 509.52417794970984 L 0 477.83365570599614 L 0 477.83365570599614 L 0 433.26885880077367 L 0 433.26885880077367 L 0 432.27852998065765 L 0 432.27852998065765 Q 0 402.568665377176 19.806576402321085 379.79110251450675 L 32.680851063829785 365.926499032882 L 32.680851063829785 365.926499032882 Q 16.83558994197292 346.11992263056095 15.845261121856867 319.38104448742746 L 15.845261121856867 319.38104448742746 Z M 67.34235976789168 422.3752417794971 Q 63.38104448742747 426.3365570599613 63.38104448742747 432.27852998065765 L 63.38104448742747 433.26885880077367 L 63.38104448742747 433.26885880077367 L 63.38104448742747 446.1431334622824 L 63.38104448742747 446.1431334622824 L 97.05222437137331 446.1431334622824 L 97.05222437137331 446.1431334622824 L 105.9651837524178 436.23984526112184 L 105.9651837524178 436.23984526112184 L 80.21663442940039 408.51063829787233 L 80.21663442940039 408.51063829787233 L 67.34235976789168 422.3752417794971 L 67.34235976789168 422.3752417794971 Z M 87.14893617021276 335.22630560928434 Q 102.00386847195358 334.23597678916826 102.99419729206963 319.38104448742746 L 102.99419729206963 303.5357833655706 L 102.99419729206963 303.5357833655706 L 71.3036750483559 303.5357833655706 L 71.3036750483559 303.5357833655706 L 71.3036750483559 319.38104448742746 L 71.3036750483559 319.38104448742746 Q 72.29400386847195 334.23597678916826 87.14893617021276 335.22630560928434 L 87.14893617021276 335.22630560928434 Z" />
</svg>