<svg xmlns="http://www.w3.org/2000/svg" viewBox="0 0 512 512">
  <path d="M 0 204.8 L 0 153.6 L 0 204.8 L 0 153.6 L 12 137.6 L 12 137.6 L 97.6 204.8 L 97.6 204.8 L 0 204.8 L 0 204.8 Z M 221.6 204.8 L 256 232 L 221.6 204.8 L 256 232 L 256 230.4 L 256 230.4 L 307.2 230.4 L 307.2 230.4 L 307.2 271.2 L 307.2 271.2 L 409.6 351.2 L 409.6 351.2 L 409.6 230.4 L 409.6 230.4 L 460.8 230.4 L 460.8 230.4 L 460.8 390.4 L 460.8 390.4 L 496.8 418.4 L 496.8 418.4 L 512 430.4 L 512 430.4 L 488.8 460.8 L 488.8 460.8 L 473.6 448.8 L 473.6 448.8 L 15.2 93.6 L 15.2 93.6 L 0 81.6 L 0 81.6 L 23.2 51.2 L 23.2 51.2 L 38.4 63.2 L 38.4 63.2 L 57.6 77.6 L 57.6 77.6 L 76.8 51.2 L 76.8 51.2 L 435.2 51.2 L 435.2 51.2 L 512 153.6 L 512 153.6 L 512 204.8 L 512 204.8 L 221.6 204.8 L 221.6 204.8 Z M 256 358.4 L 256 329.6 L 256 358.4 L 256 329.6 L 307.2 370.4 L 307.2 370.4 L 307.2 460.8 L 307.2 460.8 L 51.2 460.8 L 51.2 460.8 L 51.2 358.4 L 51.2 358.4 L 51.2 230.4 L 51.2 230.4 L 102.4 230.4 L 102.4 230.4 L 102.4 358.4 L 102.4 358.4 L 256 358.4 L 256 358.4 Z" />
</svg>