<svg xmlns="http://www.w3.org/2000/svg" viewBox="0 0 512 512">
  <path d="M 256 76.8 Q 314.4 77.6 358.4 108.8 L 358.4 108.8 L 358.4 108.8 Q 403.2 140 423.2 191.2 L 447.2 182.4 L 447.2 182.4 Q 424 124 372.8 88 Q 322.4 52 256 51.2 Q 189.6 52 139.2 88 Q 88 124 64.8 182.4 L 88.8 191.2 L 88.8 191.2 Q 108.8 140 153.6 108.8 Q 197.6 77.6 256 76.8 L 256 76.8 Z M 232 433.6 L 228.8 459.2 L 232 433.6 L 228.8 459.2 Q 242.4 460.8 256 460.8 Q 269.6 460.8 283.2 459.2 L 280 433.6 L 280 433.6 Q 268 435.2 256 435.2 Q 244 435.2 232 433.6 L 232 433.6 Z M 230.4 368.8 Q 242.4 371.2 256 371.2 Q 269.6 371.2 282.4 368.8 Q 286.4 408 314.4 433.6 Q 342.4 460 383.2 460.8 L 384 460.8 L 384 460.8 Q 425.6 460 455.2 431.2 L 494.4 392 L 494.4 392 L 503.2 383.2 L 503.2 383.2 L 512 374.4 L 512 374.4 L 512 355.2 L 512 355.2 L 503.2 346.4 L 503.2 346.4 L 496 339.2 L 496 339.2 L 503.2 332 L 503.2 332 L 512 323.2 L 512 323.2 L 512 304 L 512 304 L 503.2 295.2 L 503.2 295.2 L 496 288 L 496 288 L 508.8 275.2 L 508.8 275.2 L 490.4 256.8 L 490.4 256.8 L 472.8 239.2 L 472.8 239.2 L 454.4 220.8 L 454.4 220.8 L 441.6 233.6 L 441.6 233.6 L 434.4 226.4 L 434.4 226.4 L 416 208 L 416 208 L 397.6 226.4 L 397.6 226.4 L 388.8 235.2 L 388.8 235.2 L 356.8 267.2 L 356.8 267.2 L 339.2 267.2 L 281.6 267.2 L 281.6 292.8 L 281.6 292.8 L 281.6 308.8 L 281.6 308.8 L 281.6 332.8 L 281.6 332.8 L 281.6 342.4 L 281.6 342.4 Q 270.4 345.6 256 345.6 Q 241.6 345.6 230.4 342.4 L 230.4 332.8 L 230.4 332.8 L 230.4 308.8 L 230.4 308.8 L 230.4 292.8 L 230.4 292.8 L 230.4 267.2 L 230.4 267.2 L 204.8 267.2 L 155.2 267.2 L 123.2 235.2 L 123.2 235.2 L 114.4 226.4 L 114.4 226.4 L 96 208 L 96 208 L 77.6 226.4 L 77.6 226.4 L 70.4 233.6 L 70.4 233.6 L 57.6 220.8 L 57.6 220.8 L 39.2 239.2 L 39.2 239.2 L 21.6 256.8 L 21.6 256.8 L 3.2 275.2 L 3.2 275.2 L 16 288 L 16 288 L 8.8 295.2 L 8.8 295.2 L 0 304 L 0 304 L 0 323.2 L 0 323.2 L 8.8 332 L 8.8 332 L 16 339.2 L 16 339.2 L 8.8 346.4 L 8.8 346.4 L 0 355.2 L 0 355.2 L 0 374.4 L 0 374.4 L 8.8 383.2 L 8.8 383.2 L 17.6 392 L 17.6 392 L 56.8 431.2 L 56.8 431.2 Q 86.4 460 128 460.8 L 128.8 460.8 L 128.8 460.8 Q 169.6 460 197.6 433.6 Q 225.6 408 229.6 368 L 230.4 368.8 Z M 307.2 359.2 L 307.2 330.4 L 307.2 359.2 L 307.2 330.4 Q 307.2 330.4 307.2 330.4 Q 307.2 330.4 307.2 330.4 L 307.2 318.4 L 307.2 318.4 L 307.2 308.8 L 307.2 308.8 L 307.2 292.8 L 307.2 292.8 L 313.6 292.8 L 339.2 292.8 L 339.2 308.8 L 339.2 308.8 L 339.2 318.4 L 339.2 318.4 L 339.2 320.8 L 339.2 320.8 L 344 316 L 344 316 L 351.2 308.8 L 351.2 308.8 L 362.4 298.4 L 362.4 298.4 L 364.8 295.2 L 364.8 295.2 L 397.6 262.4 L 397.6 262.4 L 407.2 253.6 L 407.2 253.6 L 416 244 L 416 244 L 423.2 252 L 423.2 252 L 434.4 262.4 L 434.4 262.4 L 424.8 271.2 L 424.8 271.2 L 416 280.8 L 416 280.8 L 398.4 298.4 L 398.4 298.4 L 380 316 L 380 316 L 388 324 L 388 324 L 405.6 305.6 L 405.6 305.6 L 432.8 279.2 L 432.8 279.2 L 436 275.2 L 436 275.2 L 441.6 269.6 L 441.6 269.6 L 445.6 266.4 L 445.6 266.4 L 454.4 256.8 L 454.4 256.8 L 461.6 264.8 L 461.6 264.8 L 464.8 268 L 464.8 268 L 472.8 275.2 L 472.8 275.2 L 463.2 284 L 463.2 284 L 460 288 L 460 288 L 454.4 293.6 L 454.4 293.6 L 450.4 296.8 L 450.4 296.8 L 424 324 L 424 324 L 405.6 341.6 L 405.6 341.6 L 413.6 349.6 L 413.6 349.6 L 431.2 331.2 L 431.2 331.2 L 448.8 313.6 L 448.8 313.6 L 458.4 304.8 L 458.4 304.8 L 467.2 295.2 L 467.2 295.2 L 477.6 306.4 L 477.6 306.4 L 485.6 313.6 L 485.6 313.6 L 477.6 320.8 L 477.6 320.8 L 476 322.4 L 476 322.4 L 467.2 332 L 467.2 332 L 460 339.2 L 460 339.2 L 450.4 348 L 450.4 348 L 449.6 349.6 L 449.6 349.6 L 431.2 367.2 L 431.2 367.2 L 439.2 375.2 L 439.2 375.2 L 448.8 364.8 L 448.8 364.8 L 456.8 356.8 L 456.8 356.8 L 458.4 356 L 458.4 356 L 467.2 346.4 L 467.2 346.4 L 477.6 357.6 L 477.6 357.6 L 485.6 364.8 L 485.6 364.8 L 476 373.6 L 476 373.6 L 467.2 383.2 L 467.2 383.2 L 456.8 392.8 L 456.8 392.8 L 439.2 411.2 L 439.2 411.2 L 437.6 412.8 L 437.6 412.8 Q 414.4 434.4 383.2 435.2 Q 351.2 434.4 329.6 412.8 Q 308 391.2 307.2 359.2 L 307.2 359.2 Z M 166.4 214.4 Q 168.8 203.2 176 194.4 Q 184 185.6 192 185.6 Q 200 185.6 207.2 194.4 Q 215.2 203.2 217.6 214.4 L 242.4 208 L 242.4 208 Q 239.2 192 226.4 177.6 Q 214.4 161.6 192 160 Q 169.6 161.6 156.8 177.6 Q 144.8 192 140.8 208 L 165.6 214.4 L 166.4 214.4 Z M 304 194.4 Q 312 185.6 320 185.6 Q 328 185.6 335.2 194.4 Q 343.2 203.2 345.6 214.4 L 370.4 208 L 370.4 208 Q 367.2 192 354.4 177.6 Q 342.4 161.6 320 160 Q 297.6 161.6 284.8 177.6 Q 272.8 192 268.8 208 L 293.6 214.4 L 293.6 214.4 Q 296.8 203.2 304 194.4 L 304 194.4 Z M 57.6 256.8 L 66.4 266.4 L 57.6 256.8 L 66.4 266.4 L 70.4 269.6 L 70.4 269.6 L 76 275.2 L 76 275.2 L 79.2 279.2 L 79.2 279.2 L 106.4 305.6 L 106.4 305.6 L 124 324 L 124 324 L 132 316 L 132 316 L 113.6 298.4 L 113.6 298.4 L 96 280.8 L 96 280.8 L 87.2 271.2 L 87.2 271.2 L 77.6 262.4 L 77.6 262.4 L 88.8 252 L 88.8 252 L 96 244 L 96 244 L 104.8 253.6 L 104.8 253.6 L 114.4 262.4 L 114.4 262.4 L 147.2 295.2 L 147.2 295.2 L 149.6 298.4 L 149.6 298.4 L 160.8 308.8 L 160.8 308.8 L 168 316 L 168 316 L 172.8 320.8 L 172.8 320.8 L 172.8 318.4 L 172.8 318.4 L 172.8 308.8 L 172.8 308.8 L 172.8 292.8 L 172.8 292.8 L 179.2 292.8 L 204.8 292.8 L 204.8 308.8 L 204.8 308.8 L 204.8 318.4 L 204.8 318.4 L 204.8 332.8 L 204.8 332.8 L 204.8 348.8 L 204.8 348.8 L 204.8 359.2 L 204.8 359.2 Q 204 391.2 182.4 412.8 Q 160.8 434.4 128.8 435.2 Q 97.6 434.4 75.2 412.8 L 72.8 411.2 L 72.8 411.2 L 55.2 392.8 L 55.2 392.8 L 44.8 383.2 L 44.8 383.2 L 36 373.6 L 36 373.6 L 26.4 364.8 L 26.4 364.8 L 34.4 357.6 L 34.4 357.6 L 44.8 346.4 L 44.8 346.4 L 53.6 356 L 53.6 356 L 55.2 356.8 L 55.2 356.8 L 63.2 364.8 L 63.2 364.8 L 72.8 375.2 L 72.8 375.2 L 80.8 367.2 L 80.8 367.2 L 62.4 349.6 L 62.4 349.6 L 61.6 348 L 61.6 348 L 52 339.2 L 52 339.2 L 44.8 332 L 44.8 332 L 36 322.4 L 36 322.4 L 34.4 320.8 L 34.4 320.8 L 26.4 313.6 L 26.4 313.6 L 34.4 306.4 L 34.4 306.4 L 44.8 295.2 L 44.8 295.2 L 53.6 304.8 L 53.6 304.8 L 63.2 313.6 L 63.2 313.6 L 80.8 331.2 L 80.8 331.2 L 98.4 349.6 L 98.4 349.6 L 106.4 341.6 L 106.4 341.6 L 88 324 L 88 324 L 61.6 296.8 L 61.6 296.8 L 57.6 293.6 L 57.6 293.6 L 52 288 L 52 288 L 48.8 284 L 48.8 284 L 39.2 275.2 L 39.2 275.2 L 47.2 268 L 47.2 268 L 50.4 264.8 L 50.4 264.8 L 57.6 256.8 L 57.6 256.8 Z" />
</svg>