<svg xmlns="http://www.w3.org/2000/svg" viewBox="0 0 512 512">
  <path d="M 403.01552106430154 165.74722838137473 Q 433.66740576496676 164.6119733924612 450.6962305986696 138.5011086474501 Q 464.3192904656319 111.2549889135255 450.6962305986696 84.0088691796009 Q 433.66740576496676 57.8980044345898 403.01552106430154 56.76274944567628 Q 372.3636363636364 57.8980044345898 355.33481152993346 84.0088691796009 Q 341.71175166297115 111.2549889135255 355.33481152993346 138.5011086474501 Q 372.3636363636364 164.6119733924612 403.01552106430154 165.74722838137473 L 403.01552106430154 165.74722838137473 Z M 403.01552106430154 2.270509977827051 Q 432.53215077605324 2.270509977827051 457.50776053215077 17.02882483370288 L 457.50776053215077 17.02882483370288 L 457.50776053215077 17.02882483370288 Q 482.48337028824835 31.787139689578716 497.2416851441242 56.76274944567628 Q 512 82.87361419068736 512 111.2549889135255 Q 512 139.63636363636363 497.2416851441242 165.74722838137473 Q 482.48337028824835 190.72283813747228 457.50776053215077 205.4811529933481 Q 432.53215077605324 220.23946784922396 403.01552106430154 220.23946784922396 Q 373.4988913525499 220.23946784922396 348.5232815964523 205.4811529933481 Q 323.5476718403548 190.72283813747228 308.78935698447896 165.74722838137473 Q 294.0310421286031 139.63636363636363 294.0310421286031 111.2549889135255 Q 294.0310421286031 82.87361419068736 308.78935698447896 56.76274944567628 Q 323.5476718403548 31.787139689578716 348.5232815964523 17.02882483370288 Q 373.4988913525499 2.270509977827051 403.01552106430154 2.270509977827051 L 403.01552106430154 2.270509977827051 Z M 95.36141906873614 345.11751662971176 L 95.36141906873614 345.11751662971176 L 95.36141906873614 345.11751662971176 L 95.36141906873614 345.11751662971176 L 357.60532150776055 429.12638580931264 L 357.60532150776055 429.12638580931264 L 147.58314855875832 250.89135254988915 L 147.58314855875832 250.89135254988915 Q 129.4190687361419 237.26829268292684 107.84922394678492 238.40354767184036 Q 86.27937915742794 240.67405764966742 70.38580931263859 257.7028824833703 Q 55.62749445676275 275.8669623059867 57.8980044345898 297.4368070953437 Q 60.168514412416854 319.00665188470066 77.19733924611974 334.90022172949 Q 85.14412416851441 341.71175166297115 95.36141906873614 345.11751662971176 L 95.36141906873614 345.11751662971176 Z M 78.33259423503326 396.2039911308204 Q 57.8980044345898 389.39246119733923 42.00443458980045 376.90465631929044 Q 7.946784922394679 346.2527716186253 3.4057649667405765 301.9778270509978 Q 0 258.8381374722838 28.38137472283814 222.509977827051 Q 59.033259423503324 188.45232815964522 103.30820399113082 183.91130820399113 Q 146.44789356984478 180.50554323725055 182.7760532150776 208.88691796008868 L 462.0487804878049 446.1552106430155 L 462.0487804878049 446.1552106430155 L 427.9911308203991 509.72949002217297 L 427.9911308203991 509.72949002217297 L 78.33259423503326 396.2039911308204 L 78.33259423503326 396.2039911308204 Z M 112.39024390243902 265.64966740576494 Q 137.3658536585366 267.92017738359203 139.63636363636363 292.89578713968956 Q 137.3658536585366 317.87139689578714 112.39024390243902 320.1419068736142 Q 87.41463414634147 317.87139689578714 85.14412416851441 292.89578713968956 Q 87.41463414634147 267.92017738359203 112.39024390243902 265.64966740576494 L 112.39024390243902 265.64966740576494 Z" />
</svg>