<svg xmlns="http://www.w3.org/2000/svg" viewBox="0 0 512 512">
  <path d="M 443.46456692913387 266.0787401574803 L 476.7244094488189 256 L 443.46456692913387 266.0787401574803 L 476.7244094488189 256 L 512 245.92125984251967 L 512 245.92125984251967 L 512 209.63779527559055 L 512 209.63779527559055 L 512 48.37795275590551 L 512 48.37795275590551 L 512 32.25196850393701 L 512 32.25196850393701 L 512 0 L 512 0 L 479.748031496063 0 L 304.37795275590554 0 L 291.2755905511811 27.212598425196852 L 291.2755905511811 27.212598425196852 L 275.1496062992126 59.46456692913386 L 275.1496062992126 59.46456692913386 L 268.09448818897636 73.5748031496063 L 268.09448818897636 73.5748031496063 L 253.98425196850394 101.79527559055119 L 253.98425196850394 101.79527559055119 L 282.20472440944883 116.91338582677166 L 282.20472440944883 116.91338582677166 L 311.43307086614175 131.0236220472441 L 311.43307086614175 131.0236220472441 L 339.65354330708664 145.13385826771653 L 339.65354330708664 145.13385826771653 L 354.7716535433071 116.91338582677166 L 354.7716535433071 116.91338582677166 L 361.8267716535433 101.79527559055119 L 361.8267716535433 101.79527559055119 L 364.8503937007874 96.75590551181102 L 364.8503937007874 96.75590551181102 L 382.99212598425197 96.75590551181102 L 415.244094488189 96.75590551181102 L 415.244094488189 129.00787401574803 L 415.244094488189 129.00787401574803 L 415.244094488189 173.35433070866142 L 415.244094488189 173.35433070866142 L 224.75590551181102 227.7795275590551 L 224.75590551181102 227.7795275590551 L 212.66141732283464 230.8031496062992 L 212.66141732283464 230.8031496062992 L 203.59055118110237 239.8740157480315 L 203.59055118110237 239.8740157480315 L 153.1968503937008 290.26771653543307 L 153.1968503937008 290.26771653543307 L 124.97637795275591 290.26771653543307 L 92.7244094488189 290.26771653543307 L 92.7244094488189 322.5196850393701 L 92.7244094488189 322.5196850393701 L 92.7244094488189 350.74015748031496 L 92.7244094488189 350.74015748031496 L 34.267716535433074 409.1968503937008 L 34.267716535433074 409.1968503937008 L 23.181102362204726 420.2834645669291 L 23.181102362204726 420.2834645669291 L 0 443.46456692913387 L 0 443.46456692913387 L 23.181102362204726 466.6456692913386 L 23.181102362204726 466.6456692913386 L 45.354330708661415 488.81889763779526 L 45.354330708661415 488.81889763779526 L 68.53543307086615 512 L 68.53543307086615 512 L 91.71653543307086 488.81889763779526 L 91.71653543307086 488.81889763779526 L 102.80314960629921 477.73228346456693 L 102.80314960629921 477.73228346456693 L 263.0551181102362 317.4803149606299 L 263.0551181102362 317.4803149606299 L 359.81102362204723 289.25984251968504 L 359.81102362204723 289.25984251968504 L 385.00787401574803 303.37007874015745 L 385.00787401574803 303.37007874015745 L 413.2283464566929 319.496062992126 L 413.2283464566929 319.496062992126 L 428.34645669291336 291.2755905511811 L 428.34645669291336 291.2755905511811 L 443.46456692913387 266.0787401574803 L 443.46456692913387 266.0787401574803 Z M 401.13385826771656 275.1496062992126 L 375.93700787401576 262.0472440944882 L 401.13385826771656 275.1496062992126 L 375.93700787401576 262.0472440944882 L 363.84251968503935 254.99212598425197 L 363.84251968503935 254.99212598425197 L 350.74015748031496 259.0236220472441 L 350.74015748031496 259.0236220472441 L 253.98425196850394 286.23622047244095 L 253.98425196850394 286.23622047244095 L 245.92125984251967 288.251968503937 L 245.92125984251967 288.251968503937 L 239.8740157480315 294.2992125984252 L 239.8740157480315 294.2992125984252 L 79.62204724409449 454.5511811023622 L 79.62204724409449 454.5511811023622 L 68.53543307086615 466.6456692913386 L 68.53543307086615 466.6456692913386 L 45.354330708661415 443.46456692913387 L 45.354330708661415 443.46456692913387 L 57.44881889763779 432.37795275590554 L 57.44881889763779 432.37795275590554 L 115.90551181102362 373.9212598425197 L 115.90551181102362 373.9212598425197 L 124.97637795275591 363.84251968503935 L 124.97637795275591 363.84251968503935 L 124.97637795275591 350.74015748031496 L 124.97637795275591 350.74015748031496 L 124.97637795275591 322.5196850393701 L 124.97637795275591 322.5196850393701 L 153.1968503937008 322.5196850393701 L 166.29921259842519 322.5196850393701 L 176.3779527559055 313.4488188976378 L 176.3779527559055 313.4488188976378 L 226.77165354330708 263.0551181102362 L 226.77165354330708 263.0551181102362 L 229.79527559055117 260.0314960629921 L 229.79527559055117 260.0314960629921 L 233.82677165354332 259.0236220472441 L 233.82677165354332 259.0236220472441 L 424.31496062992125 204.5984251968504 L 424.31496062992125 204.5984251968504 L 447.496062992126 197.54330708661416 L 447.496062992126 197.54330708661416 L 447.496062992126 173.35433070866142 L 447.496062992126 173.35433070866142 L 447.496062992126 96.75590551181102 L 447.496062992126 96.75590551181102 L 447.496062992126 64.50393700787401 L 447.496062992126 64.50393700787401 L 415.244094488189 64.50393700787401 L 344.6929133858268 64.50393700787401 L 335.62204724409446 82.64566929133858 L 335.62204724409446 82.64566929133858 L 332.59842519685037 87.68503937007874 L 332.59842519685037 87.68503937007874 L 325.54330708661416 102.80314960629921 L 325.54330708661416 102.80314960629921 L 297.3228346456693 87.68503937007874 L 297.3228346456693 87.68503937007874 L 304.37795275590554 73.5748031496063 L 304.37795275590554 73.5748031496063 L 320.503937007874 41.32283464566929 L 320.503937007874 41.32283464566929 L 324.53543307086613 32.25196850393701 L 324.53543307086613 32.25196850393701 L 334.61417322834643 32.25196850393701 L 479.748031496063 32.25196850393701 L 479.748031496063 48.37795275590551 L 479.748031496063 48.37795275590551 L 479.748031496063 209.63779527559055 L 479.748031496063 209.63779527559055 L 479.748031496063 221.73228346456693 L 479.748031496063 221.73228346456693 L 467.65354330708664 224.75590551181102 L 467.65354330708664 224.75590551181102 L 434.3937007874016 234.83464566929135 L 434.3937007874016 234.83464566929135 L 421.29133858267716 238.86614173228347 L 421.29133858267716 238.86614173228347 L 415.244094488189 249.95275590551182 L 415.244094488189 249.95275590551182 L 401.13385826771656 275.1496062992126 L 401.13385826771656 275.1496062992126 Z" />
</svg>