<svg xmlns="http://www.w3.org/2000/svg" viewBox="0 0 512 512">
  <path d="M 0 0 L 512 0 L 0 0 L 512 0 L 512 416 L 512 416 L 304 416 L 304 416 L 160 512 L 160 512 L 160 416 L 160 416 L 0 416 L 0 416 L 0 0 L 0 0 Z M 232 320 L 280 320 L 232 320 L 280 320 L 280 296 L 280 296 L 280 232 L 280 232 L 344 232 L 368 232 L 368 184 L 368 184 L 344 184 L 280 184 L 280 120 L 280 120 L 280 96 L 280 96 L 232 96 L 232 96 L 232 120 L 232 120 L 232 184 L 232 184 L 168 184 L 144 184 L 144 232 L 144 232 L 168 232 L 232 232 L 232 296 L 232 296 L 232 320 L 232 320 Z" />
</svg>