<svg xmlns="http://www.w3.org/2000/svg" viewBox="0 0 512 512">
  <path d="M 100.57143 0 L 73.14286 0 L 100.57143 0 L 73.14286 0 L 73.14286 27.428572 L 73.14286 27.428572 L 73.14286 246.85715 L 73.14286 246.85715 L 73.14286 484.57144 L 73.14286 484.57144 L 73.14286 512 L 73.14286 512 L 128 512 L 128 512 L 128 484.57144 L 128 484.57144 L 128 274.2857 L 128 274.2857 L 338.2857 274.2857 L 365.7143 274.2857 L 365.7143 219.42857 L 365.7143 219.42857 L 338.2857 219.42857 L 128 219.42857 L 128 54.857143 L 128 54.857143 L 411.42856 54.857143 L 438.85715 54.857143 L 438.85715 0 L 438.85715 0 L 411.42856 0 L 100.57143 0 Z" />
</svg>