<svg xmlns="http://www.w3.org/2000/svg" viewBox="0 0 512 512">
  <path d="M 168 0 L 192 0 L 168 0 L 344 0 L 344 24 L 344 24 L 344 80 L 344 80 L 352 80 L 352 80 Q 406 81 443 117 Q 479 154 480 208 L 480 464 L 480 464 L 480 512 L 480 512 L 432 512 L 32 512 L 32 464 L 32 464 L 32 208 L 32 208 Q 33 154 69 117 Q 106 81 160 80 L 168 80 L 168 80 L 168 24 L 168 24 L 168 0 L 168 0 Z M 160 464 L 352 464 L 160 464 L 352 464 L 352 400 L 352 400 L 160 400 L 160 400 L 160 464 L 160 464 Z M 400 464 L 432 464 L 400 464 L 432 464 L 432 208 L 432 208 Q 431 174 409 151 Q 386 129 352 128 L 320 128 L 160 128 Q 126 129 103 151 Q 81 174 80 208 L 80 464 L 80 464 L 112 464 L 112 464 L 112 376 L 112 376 L 112 264 L 112 264 L 112 240 L 112 240 L 136 240 L 400 240 L 400 264 L 400 264 L 400 376 L 400 376 L 400 464 L 400 464 Z M 296 48 L 216 48 L 296 48 L 216 48 L 216 80 L 216 80 L 296 80 L 296 80 L 296 48 L 296 48 Z M 176 160 L 336 160 L 176 160 L 360 160 L 360 208 L 360 208 L 336 208 L 152 208 L 152 160 L 152 160 L 176 160 L 176 160 Z M 352 352 L 352 288 L 352 352 L 352 288 L 160 288 L 160 288 L 160 352 L 160 352 L 352 352 L 352 352 Z" />
</svg>