<svg xmlns="http://www.w3.org/2000/svg" viewBox="0 0 512 512">
  <path d="M 32 339 L 32 173 L 32 339 L 32 173 L 173 32 L 173 32 L 339 32 L 339 32 L 480 173 L 480 173 L 480 339 L 480 339 L 339 480 L 339 480 L 173 480 L 173 480 L 32 339 L 32 339 Z M 160 0 L 0 160 L 160 0 L 0 160 L 0 352 L 0 352 L 160 512 L 160 512 L 352 512 L 352 512 L 512 352 L 512 352 L 512 160 L 512 160 L 352 0 L 352 0 L 160 0 L 160 0 Z M 363 203 L 375 192 L 363 203 L 375 192 L 352 169 L 352 169 L 341 181 L 341 181 L 224 297 L 224 297 L 171 245 L 171 245 L 160 233 L 160 233 L 137 256 L 137 256 L 149 267 L 149 267 L 213 331 L 213 331 L 224 343 L 224 343 L 235 331 L 235 331 L 363 203 L 363 203 Z" />
</svg>