<svg xmlns="http://www.w3.org/2000/svg" viewBox="0 0 512 512">
  <path d="M 96 32 L 192 32 L 96 32 L 192 32 L 192 80 L 192 80 L 96 80 L 96 80 L 96 32 L 96 32 Z M 68 112 L 88 112 L 68 112 L 224 112 L 224 136 L 224 136 L 224 160 L 224 160 L 288 160 L 288 160 L 288 136 L 288 136 L 288 112 L 288 112 L 312 112 L 444 112 L 448 132 L 448 132 L 463 215 L 463 215 L 509 292 L 509 292 L 512 297 L 512 297 L 512 304 L 512 304 L 512 456 L 512 456 L 512 480 L 512 480 L 488 480 L 288 480 L 288 456 L 288 456 L 288 288 L 288 288 L 224 288 L 224 288 L 224 456 L 224 456 L 224 480 L 224 480 L 200 480 L 0 480 L 0 456 L 0 456 L 0 304 L 0 304 L 0 297 L 0 297 L 3 292 L 3 292 L 49 215 L 49 215 L 64 132 L 64 132 L 68 112 L 68 112 Z M 108 160 L 96 228 L 108 160 L 96 228 L 95 233 L 95 233 L 92 236 L 92 236 L 48 311 L 48 311 L 48 432 L 48 432 L 176 432 L 176 432 L 176 160 L 176 160 L 108 160 L 108 160 Z M 404 160 L 336 160 L 404 160 L 336 160 L 336 432 L 336 432 L 464 432 L 464 432 L 464 311 L 464 311 L 419 236 L 419 236 L 417 233 L 417 233 L 416 228 L 416 228 L 404 160 L 404 160 Z M 416 32 L 416 80 L 416 32 L 416 80 L 320 80 L 320 80 L 320 32 L 320 32 L 416 32 L 416 32 Z" />
</svg>