<svg xmlns="http://www.w3.org/2000/svg" viewBox="0 0 464 521">
    <path d="M 40 73 Q 41 37 72 18 Q 104 0 136 18 Q 167 37 168 73 Q 167 109 136 128 Q 104 146 72 128 Q 41 109 40 73 L 40 73 Z M 54 217 L 50 313 L 88 313 L 120 313 L 120 361 L 88 361 L 88 497 L 88 521 L 40 521 L 40 497 L 40 361 L 0 361 L 2 313 L 8 169 L 154 169 Q 152 177 152 185 Q 152 202 159 217 L 154 217 L 104 217 L 54 217 L 54 217 Z M 312 185 Q 312 177 310 169 L 456 169 L 462 313 L 464 361 L 424 361 L 424 497 L 424 521 L 376 521 L 376 497 L 376 361 L 344 361 L 344 313 L 376 313 L 414 313 L 410 217 L 360 217 L 310 217 L 305 217 Q 312 202 312 185 L 312 185 Z M 296 73 Q 297 37 328 18 Q 360 0 392 18 Q 423 37 424 73 Q 423 109 392 128 Q 360 146 328 128 Q 297 109 296 73 L 296 73 Z M 232 137 Q 259 138 274 161 Q 286 185 274 209 Q 259 232 232 233 Q 205 232 190 209 Q 178 185 190 161 Q 205 138 232 137 L 232 137 Z M 200 377 L 264 377 L 264 313 L 200 313 L 200 377 L 200 377 Z M 312 425 L 280 425 L 280 521 L 184 521 L 184 425 L 152 425 L 152 377 L 152 313 L 152 265 L 200 265 L 264 265 L 312 265 L 312 313 L 312 377 L 312 425 L 312 425 Z"/>
</svg>
