<svg xmlns="http://www.w3.org/2000/svg" viewBox="0 0 512 512">
  <path d="M 368 0 Q 395 1 410 24 Q 422 48 410 72 Q 395 95 368 96 Q 341 95 326 72 Q 314 48 326 24 Q 341 1 368 0 L 368 0 Z M 224 112 L 232 112 L 224 112 L 299 112 L 302 113 L 302 113 L 390 137 L 390 137 L 403 140 L 403 140 L 407 153 L 407 153 L 434 240 L 434 240 L 488 240 L 512 240 L 512 288 L 512 288 L 488 288 L 398 288 L 393 271 L 393 271 L 381 230 L 381 230 L 352 315 L 352 315 L 396 339 L 396 339 L 413 349 L 413 349 L 407 367 L 407 367 L 362 512 L 362 512 L 311 512 L 311 512 L 355 371 L 355 371 L 267 322 L 267 322 Q 250 311 242 293 Q 235 275 242 255 L 273 160 L 273 160 L 240 160 L 240 160 L 182 203 L 182 203 L 179 206 L 179 206 L 150 168 L 150 168 L 154 165 L 154 165 L 218 117 L 218 117 L 224 112 L 224 112 Z M 321 168 L 287 271 L 321 168 L 287 271 Q 285 277 291 280 L 310 291 L 310 291 L 348 175 L 348 175 L 321 168 L 321 168 Z M 219 317 Q 230 337 252 350 L 256 353 L 256 353 L 238 400 L 238 400 L 233 416 L 233 416 L 216 416 L 96 416 L 96 368 L 96 368 L 120 368 L 199 368 L 219 317 L 219 317 Z M 16 96 L 144 96 L 16 96 L 160 96 L 160 128 L 160 128 L 144 128 L 0 128 L 0 96 L 0 96 L 16 96 L 16 96 Z M 0 160 L 16 160 L 0 160 L 96 160 L 96 192 L 96 192 L 80 192 L 0 192 L 0 160 L 0 160 Z M 16 224 L 144 224 L 16 224 L 160 224 L 160 256 L 160 256 L 144 256 L 0 256 L 0 224 L 0 224 L 16 224 L 16 224 Z" />
</svg>