<svg xmlns="http://www.w3.org/2000/svg" viewBox="0 0 448 512">
    <path d="M 143 0 L 147 0 L 154 0 L 158 11 L 158 11 Q 158 11 158 11 Q 158 11 158 12 Q 159 13 161 16 Q 163 21 171 29 Q 184 45 224 48 Q 264 45 277 29 Q 285 21 288 16 Q 289 13 290 12 Q 290 11 290 11 Q 290 11 290 11 L 290 11 L 294 0 L 301 0 L 305 0 L 312 0 L 384 0 L 400 0 L 400 16 L 400 128 L 400 196 L 446 272 L 448 276 L 448 280 L 448 496 L 448 512 L 432 512 L 208 512 L 192 512 L 192 496 L 192 288 L 192 285 L 193 282 L 275 69 Q 255 79 224 80 Q 193 79 173 69 L 207 157 L 190 201 L 125 32 L 80 32 L 80 128 L 80 200 L 80 204 L 78 208 L 32 284 L 32 425 L 101 357 L 112 345 L 135 368 L 123 379 L 35 467 L 32 471 L 32 480 L 160 480 L 160 496 L 160 512 L 16 512 L 0 512 L 0 496 L 0 280 L 0 276 L 2 272 L 48 196 L 48 128 L 48 16 L 48 0 L 64 0 L 136 0 L 143 0 L 143 0 Z M 323 32 L 224 291 L 224 480 L 416 480 L 416 471 L 413 467 L 325 379 L 313 368 L 336 345 L 347 357 L 416 425 L 416 284 L 370 208 L 368 204 L 368 200 L 368 128 L 368 32 L 323 32 L 323 32 Z"/>
</svg>
