<svg xmlns="http://www.w3.org/2000/svg" viewBox="0 0 512 512">
  <path d="M 406.19266 233.58319 Q 416.95273 246.1366 423.22943 261.38004 Q 461.78635 255.10333 488.68652 228.20316 Q 503.03326 213.8564 512 195.02628 Q 498.54993 199.50963 483.3065 199.50963 Q 479.7198 199.50963 476.1331 198.61296 Q 441.16287 195.02628 418.74606 170.81612 Q 395.4326 146.60596 394.5359 110.73905 Q 395.4326 78.45885 414.2627 55.14536 Q 425.91943 40.7986 442.05954 32.728546 Q 425.02277 26.45184 405.29596 26.45184 Q 404.3993 26.45184 403.50262 26.45184 Q 402.60596 26.45184 401.7093 26.45184 Q 361.359 28.245184 330.87216 52.45534 Q 301.28195 76.6655 290.52188 114.325745 Q 304.86865 117.01576 318.31873 123.29247 Q 323.69876 99.97898 339.83887 82.94221 Q 355.0823 66.8021 378.39578 59.628723 Q 366.73904 82.94221 365.84238 110.73905 Q 366.73904 151.08931 389.15585 180.6795 Q 411.5727 211.16638 448.33624 222.82312 Q 429.50613 233.58319 406.19266 233.58319 L 406.19266 233.58319 Z M 225.0648 144.8126 Q 199.95796 114.325745 157.81436 112.5324 Q 121.05079 113.42907 96.84063 137.63924 Q 72.63047 161.84938 71.7338 198.61296 L 71.7338 199.50963 L 71.7338 199.50963 Q 40.35026 205.78635 20.623468 229.09982 Q 0.8966725 252.41331 0 284.6935 L 0 342.08057 L 0 342.08057 L 0 370.77408 L 0 370.77408 L 28.69352 370.77408 L 401.7093 370.77408 L 401.7093 299.04028 L 401.7093 299.04028 Q 400.81262 273.93344 386.46585 255.10333 Q 372.11908 236.27321 347.90894 229.99649 Q 345.2189 229.09982 342.5289 228.20316 Q 343.42557 225.51314 343.42557 222.82312 Q 344.32224 217.44308 344.32224 212.95972 Q 343.42557 182.47285 322.8021 161.84938 Q 303.07532 142.12259 272.58844 141.22592 Q 254.655 141.22592 239.41156 149.29597 Q 234.92819 151.08931 231.3415 153.77933 Q 228.65149 149.29597 225.0648 144.8126 L 225.0648 144.8126 Z M 373.01575 342.08057 L 329.9755 342.08057 L 373.01575 342.08057 L 28.69352 342.08057 L 28.69352 284.6935 L 28.69352 284.6935 Q 28.69352 263.17337 42.14361 247.03328 Q 55.593697 231.78984 76.21716 228.20316 L 100.42732 223.71979 L 100.42732 223.71979 L 100.42732 199.50963 L 100.42732 199.50963 L 100.42732 198.61296 L 100.42732 198.61296 Q 101.32399 174.4028 117.464096 158.2627 Q 133.6042 142.12259 157.81436 141.22592 Q 190.09457 142.12259 207.13135 169.02277 L 223.27145 195.02628 L 223.27145 195.02628 L 248.37828 177.09282 L 248.37828 177.09282 Q 258.24167 169.91943 272.58844 169.91943 Q 290.52188 169.91943 303.07532 182.47285 Q 314.73206 195.02628 315.62872 212.95972 Q 315.62872 217.44308 314.73206 221.92644 L 308.45535 251.51663 L 308.45535 251.51663 L 337.14886 256.89667 L 337.14886 256.89667 Q 353.28897 259.5867 363.15237 271.24344 Q 373.01575 282.90018 373.01575 299.04028 L 373.01575 342.08057 L 373.01575 342.08057 Z M 93.25394 399.4676 L 57.38704 399.4676 L 93.25394 399.4676 L 57.38704 399.4676 L 0 485.54816 L 0 485.54816 L 35.8669 485.54816 L 35.8669 485.54816 L 93.25394 399.4676 L 93.25394 399.4676 Z M 179.3345 399.4676 L 143.4676 399.4676 L 179.3345 399.4676 L 143.4676 399.4676 L 86.08056 485.54816 L 86.08056 485.54816 L 121.947464 485.54816 L 121.947464 485.54816 L 179.3345 399.4676 L 179.3345 399.4676 Z M 229.54816 399.4676 L 172.16112 485.54816 L 229.54816 399.4676 L 172.16112 485.54816 L 208.02802 485.54816 L 208.02802 485.54816 L 265.41507 399.4676 L 265.41507 399.4676 L 229.54816 399.4676 L 229.54816 399.4676 Z M 351.49564 399.4676 L 315.62872 399.4676 L 351.49564 399.4676 L 315.62872 399.4676 L 258.24167 485.54816 L 258.24167 485.54816 L 294.10858 485.54816 L 294.10858 485.54816 L 351.49564 399.4676 L 351.49564 399.4676 Z" />
</svg>