<svg viewBox="0 0 448 512">
  <path
    d="M 320 128 L 320 96 L 320 0 L 96 0 L 96 416 L 448 416 L 448 128 L 352 128 L 320 128 L 320 128 Z M 416 64 L 384 32 L 352 0 L 352 45 L 352 64 L 352 96 L 384 96 L 403 96 L 448 96 L 416 64 L 416 64 Z M 48 96 L 0 96 L 0 120 L 0 488 L 0 512 L 24 512 L 328 512 L 352 512 L 352 464 L 328 464 L 48 464 L 48 120 L 48 96 L 48 96 Z M 240 160 L 304 160 L 304 224 L 368 224 L 368 288 L 304 288 L 304 352 L 240 352 L 240 288 L 176 288 L 176 224 L 240 224 L 240 160 L 240 160 Z"
  />
</svg>