<svg xmlns="http://www.w3.org/2000/svg" viewBox="0 0 512 512">
  <path d="M 214.22222222222223 29.333333333333332 L 232 51.55555555555556 L 214.22222222222223 29.333333333333332 L 232 51.55555555555556 L 256 81.77777777777777 L 256 81.77777777777777 L 280 51.55555555555556 L 280 51.55555555555556 L 297.77777777777777 29.333333333333332 L 297.77777777777777 29.333333333333332 L 342.22222222222223 64.88888888888889 L 342.22222222222223 64.88888888888889 L 324.44444444444446 87.11111111111111 L 324.44444444444446 87.11111111111111 L 292.44444444444446 127.11111111111111 L 292.44444444444446 127.11111111111111 L 505.77777777777777 393.77777777777777 L 505.77777777777777 393.77777777777777 L 512 401.77777777777777 L 512 401.77777777777777 L 512 411.55555555555554 L 512 411.55555555555554 L 512 454.22222222222223 L 512 454.22222222222223 L 512 482.6666666666667 L 512 482.6666666666667 L 483.55555555555554 482.6666666666667 L 0 482.6666666666667 L 0 454.22222222222223 L 0 454.22222222222223 L 0 411.55555555555554 L 0 411.55555555555554 L 0 401.77777777777777 L 0 401.77777777777777 L 6.222222222222222 393.77777777777777 L 6.222222222222222 393.77777777777777 L 219.55555555555554 127.11111111111111 L 219.55555555555554 127.11111111111111 L 187.55555555555554 87.11111111111111 L 187.55555555555554 87.11111111111111 L 169.77777777777777 64.88888888888889 L 169.77777777777777 64.88888888888889 L 214.22222222222223 29.333333333333332 L 214.22222222222223 29.333333333333332 Z M 256 287.1111111111111 L 150.22222222222223 425.77777777777777 L 256 287.1111111111111 L 150.22222222222223 425.77777777777777 L 362.6666666666667 425.77777777777777 L 362.6666666666667 425.77777777777777 L 256 287.1111111111111 L 256 287.1111111111111 Z" />
</svg>