<svg viewBox="0 0 576 448">
  <path
    d="M 0 0 L 576 0 L 576 448 L 483 448 L 439 330 L 435 320 L 424 320 L 152 320 L 141 320 L 137 330 L 93 448 L 0 448 L 0 0 L 0 0 Z M 413 352 L 449 448 L 127 448 L 163 352 L 413 352 L 413 352 Z M 342 160 L 235 160 Q 240 175 240 192 Q 240 209 235 224 L 342 224 Q 336 209 336 192 Q 336 175 342 160 L 342 160 Z M 432 160 Q 418 160 409 169 L 409 169 Q 400 178 400 192 Q 400 206 409 215 Q 418 224 432 224 Q 446 224 455 215 Q 464 206 464 192 Q 464 178 455 169 Q 446 160 432 160 L 432 160 Z M 112 192 Q 112 206 121 215 L 121 215 Q 130 224 144 224 Q 158 224 167 215 Q 176 206 176 192 Q 176 178 167 169 Q 158 160 144 160 Q 130 160 121 169 Q 112 178 112 192 L 112 192 Z"
  />
</svg>