<svg viewBox="0 0 640 505">
  <path
    d="M 326 2 L 320 0 L 314 2 L 10 122 L 0 126 L 0 137 L 0 489 L 0 505 L 32 505 L 32 489 L 32 148 L 320 34 L 608 148 L 608 489 L 608 505 L 640 505 L 640 489 L 640 137 L 640 126 L 630 122 L 326 2 L 326 2 Z M 112 185 L 96 185 L 96 201 L 96 489 L 96 505 L 128 505 L 128 489 L 128 281 L 512 281 L 512 489 L 512 505 L 544 505 L 544 489 L 544 201 L 544 185 L 528 185 L 112 185 L 112 185 Z M 512 249 L 128 249 L 128 217 L 512 217 L 512 249 L 512 249 Z M 213 313 L 205 337 L 192 337 L 176 337 L 176 353 L 176 489 L 176 505 L 208 505 L 208 489 L 208 473 L 432 473 L 432 489 L 432 505 L 464 505 L 464 489 L 464 353 L 464 337 L 448 337 L 435 337 L 428 313 L 394 313 L 402 337 L 238 337 L 246 313 L 213 313 L 213 313 Z M 208 441 L 208 369 L 432 369 L 432 441 L 208 441 L 208 441 Z M 248 425 Q 263 424 264 409 Q 263 394 248 393 Q 233 394 232 409 Q 233 424 248 425 L 248 425 Z M 408 409 Q 407 394 392 393 Q 377 394 376 409 Q 377 424 392 425 Q 407 424 408 409 L 408 409 Z"
  />
</svg>