<svg xmlns="http://www.w3.org/2000/svg" viewBox="0 0 640 499">
    <path d="M 221 76 L 180 20 L 205 0 L 253 64 L 259 72 L 254 82 L 227 135 L 272 179 L 272 170 L 272 122 L 312 122 L 312 58 L 312 50 L 328 50 L 328 58 L 328 122 L 368 122 L 368 170 L 368 179 L 413 135 L 386 82 L 381 72 L 388 64 L 436 0 L 461 20 L 419 76 L 446 131 L 451 141 L 443 150 L 398 195 L 561 220 Q 595 225 617 252 Q 639 278 640 314 Q 639 357 612 383 Q 586 408 551 409 Q 515 411 485 381 L 368 274 L 368 298 L 412 351 L 416 356 L 416 362 L 416 420 L 461 479 L 436 499 L 388 435 L 384 431 L 384 425 L 384 368 L 368 348 L 368 394 L 368 442 L 272 442 L 272 394 L 272 348 L 256 368 L 256 425 L 256 431 L 253 435 L 205 499 L 180 479 L 224 420 L 224 362 L 224 356 L 228 351 L 272 298 L 272 274 L 155 381 Q 125 411 89 409 Q 54 408 27 383 Q 1 357 0 314 Q 1 278 23 251 Q 45 225 79 220 L 242 195 L 197 150 L 189 141 L 194 131 L 221 76 L 221 76 Z M 270 223 L 84 252 Q 84 252 84 252 Q 84 252 84 252 Q 62 255 47 272 Q 33 289 32 314 Q 35 359 69 373 Q 102 386 132 359 Q 132 359 132 359 Q 133 358 133 358 L 272 231 L 272 225 L 270 223 L 270 223 Z M 368 225 L 368 231 L 507 358 Q 507 358 508 359 Q 508 359 509 359 Q 538 386 571 373 Q 605 359 608 314 Q 607 289 593 272 Q 578 255 557 252 Q 556 252 556 252 Q 556 252 556 252 L 370 223 L 368 225 L 368 225 Z M 304 394 L 304 410 L 336 410 L 336 394 L 336 170 L 336 154 L 304 154 L 304 170 L 304 394 L 304 394 Z"/>
</svg>
