<svg xmlns="http://www.w3.org/2000/svg" viewBox="0 0 640 448">
    <path d="M 400 0 L 400 256 L 0 256 L 0 0 L 400 0 L 400 0 Z M 96 48 L 64 48 L 64 208 L 96 208 L 96 48 L 96 48 Z M 224 48 L 224 208 L 256 208 L 256 48 L 224 48 L 224 48 Z M 176 48 L 144 48 L 144 208 L 176 208 L 176 48 L 176 48 Z M 304 48 L 304 208 L 336 208 L 336 48 L 304 48 L 304 48 Z M 432 128 L 456 128 L 544 128 L 554 128 L 561 135 L 633 207 L 640 214 L 640 224 L 640 256 L 640 352 L 606 352 Q 608 360 608 368 Q 607 402 585 425 Q 562 447 528 448 Q 494 447 471 425 Q 449 402 448 368 Q 448 360 450 352 L 432 352 L 286 352 Q 288 360 288 368 Q 287 402 265 425 Q 242 447 208 448 Q 167 447 144 416 Q 121 447 80 448 Q 46 447 23 425 Q 1 402 0 368 L 0 352 L 0 320 L 0 288 L 32 288 L 80 288 L 208 288 L 432 288 L 432 256 L 432 224 L 432 152 L 432 128 L 432 128 Z M 480 224 L 582 224 L 534 176 L 480 176 L 480 224 L 480 224 Z M 560 368 Q 560 354 551 345 L 551 345 Q 542 336 528 336 Q 514 336 505 345 Q 496 354 496 368 Q 496 382 505 391 Q 514 400 528 400 Q 542 400 551 391 Q 560 382 560 368 L 560 368 Z M 208 400 Q 222 400 231 391 L 231 391 Q 240 382 240 368 Q 240 354 231 345 Q 222 336 208 336 Q 194 336 185 345 Q 176 354 176 368 Q 176 382 185 391 Q 194 400 208 400 L 208 400 Z M 112 368 Q 112 354 103 345 L 103 345 Q 94 336 80 336 Q 66 336 57 345 Q 48 354 48 368 Q 48 382 57 391 Q 66 400 80 400 Q 94 400 103 391 Q 112 382 112 368 L 112 368 Z"/>
</svg>
