<svg xmlns="http://www.w3.org/2000/svg" viewBox="0 0 512 512">
  <path d="M 54.857143 54.857143 L 54.857143 164.57143 L 54.857143 54.857143 L 54.857143 164.57143 L 164.57143 164.57143 L 164.57143 164.57143 L 164.57143 54.857143 L 164.57143 54.857143 L 54.857143 54.857143 L 54.857143 54.857143 Z M 0 0 L 54.857143 0 L 0 0 L 219.42857 0 L 219.42857 54.857143 L 219.42857 54.857143 L 219.42857 164.57143 L 219.42857 164.57143 L 219.42857 219.42857 L 219.42857 219.42857 L 164.57143 219.42857 L 0 219.42857 L 0 164.57143 L 0 164.57143 L 0 54.857143 L 0 54.857143 L 0 0 L 0 0 Z M 54.857143 347.42856 L 54.857143 457.14285 L 54.857143 347.42856 L 54.857143 457.14285 L 164.57143 457.14285 L 164.57143 457.14285 L 164.57143 347.42856 L 164.57143 347.42856 L 54.857143 347.42856 L 54.857143 347.42856 Z M 0 292.57144 L 54.857143 292.57144 L 0 292.57144 L 219.42857 292.57144 L 219.42857 347.42856 L 219.42857 347.42856 L 219.42857 457.14285 L 219.42857 457.14285 L 219.42857 512 L 219.42857 512 L 164.57143 512 L 0 512 L 0 457.14285 L 0 457.14285 L 0 347.42856 L 0 347.42856 L 0 292.57144 L 0 292.57144 Z M 457.14285 54.857143 L 347.42856 54.857143 L 457.14285 54.857143 L 347.42856 54.857143 L 347.42856 164.57143 L 347.42856 164.57143 L 457.14285 164.57143 L 457.14285 164.57143 L 457.14285 54.857143 L 457.14285 54.857143 Z M 347.42856 0 L 457.14285 0 L 347.42856 0 L 512 0 L 512 54.857143 L 512 54.857143 L 512 164.57143 L 512 164.57143 L 512 219.42857 L 512 219.42857 L 457.14285 219.42857 L 292.57144 219.42857 L 292.57144 164.57143 L 292.57144 164.57143 L 292.57144 54.857143 L 292.57144 54.857143 L 292.57144 0 L 292.57144 0 L 347.42856 0 L 347.42856 0 Z M 438.85715 475.42856 L 438.85715 512 L 438.85715 475.42856 L 438.85715 512 L 402.2857 512 L 402.2857 512 L 402.2857 475.42856 L 402.2857 475.42856 L 438.85715 475.42856 L 438.85715 475.42856 Z M 475.42856 475.42856 L 512 475.42856 L 475.42856 475.42856 L 512 475.42856 L 512 512 L 512 512 L 475.42856 512 L 475.42856 512 L 475.42856 475.42856 L 475.42856 475.42856 Z M 512 292.57144 L 512 329.14285 L 512 292.57144 L 512 329.14285 L 512 438.85715 L 512 438.85715 L 402.2857 438.85715 L 402.2857 438.85715 L 402.2857 402.2857 L 402.2857 402.2857 L 365.7143 402.2857 L 365.7143 402.2857 L 365.7143 512 L 365.7143 512 L 292.57144 512 L 292.57144 512 L 292.57144 402.2857 L 292.57144 402.2857 L 292.57144 292.57144 L 292.57144 292.57144 L 402.2857 292.57144 L 402.2857 292.57144 L 402.2857 329.14285 L 402.2857 329.14285 L 475.42856 329.14285 L 475.42856 329.14285 L 475.42856 292.57144 L 475.42856 292.57144 L 512 292.57144 L 512 292.57144 Z M 137.14285 82.28571 L 137.14285 137.14285 L 137.14285 82.28571 L 137.14285 137.14285 L 82.28571 137.14285 L 82.28571 137.14285 L 82.28571 82.28571 L 82.28571 82.28571 L 137.14285 82.28571 L 137.14285 82.28571 Z M 82.28571 374.85715 L 137.14285 374.85715 L 82.28571 374.85715 L 137.14285 374.85715 L 137.14285 429.7143 L 137.14285 429.7143 L 82.28571 429.7143 L 82.28571 429.7143 L 82.28571 374.85715 L 82.28571 374.85715 Z M 429.7143 82.28571 L 429.7143 137.14285 L 429.7143 82.28571 L 429.7143 137.14285 L 374.85715 137.14285 L 374.85715 137.14285 L 374.85715 82.28571 L 374.85715 82.28571 L 429.7143 82.28571 L 429.7143 82.28571 Z" />
</svg>