<svg xmlns="http://www.w3.org/2000/svg" viewBox="0 0 512 512">
  <path d="M 112 464 L 112 48 L 112 464 L 112 48 L 288 48 L 288 48 L 288 160 L 288 160 L 400 160 L 400 160 L 400 464 L 400 464 L 112 464 L 112 464 Z M 320 0 L 112 0 L 320 0 L 64 0 L 64 48 L 64 48 L 64 464 L 64 464 L 64 512 L 64 512 L 112 512 L 448 512 L 448 464 L 448 464 L 448 128 L 448 128 L 320 0 L 320 0 Z M 336 304 Q 335 263 308 236 L 308 236 L 308 236 Q 281 209 240 208 Q 199 209 172 236 Q 145 263 144 304 Q 145 345 172 372 Q 199 399 240 400 Q 267 400 289 387 L 327 425 L 327 425 L 344 442 L 344 442 L 378 408 L 378 408 L 361 391 L 361 391 L 323 353 L 323 353 Q 336 331 336 304 L 336 304 Z M 240 256 Q 267 257 282 280 Q 294 304 282 328 Q 267 351 240 352 Q 213 351 198 328 Q 186 304 198 280 Q 213 257 240 256 L 240 256 Z" />
</svg>