<svg xmlns="http://www.w3.org/2000/svg" viewBox="0 0 576 460">
    <path d="M 0 34 L 0 426 Q 72 460 144 453 Q 216 446 288 426 Q 360 405 432 398 Q 504 391 576 426 L 576 34 Q 504 0 432 7 Q 360 14 288 34 Q 216 55 144 62 Q 72 69 0 34 L 0 34 Z M 128 390 L 64 390 L 64 326 Q 91 327 109 345 Q 127 363 128 390 L 128 390 Z M 64 198 L 64 134 L 128 134 Q 127 161 109 179 Q 91 197 64 198 L 64 198 Z M 448 326 Q 449 299 467 281 L 467 281 Q 485 263 512 262 L 512 326 L 448 326 L 448 326 Z M 512 134 Q 485 133 467 115 L 467 115 Q 449 97 448 70 L 512 70 L 512 134 L 512 134 Z M 384 230 Q 383 278 356 309 L 356 309 Q 329 341 288 342 Q 247 341 220 309 Q 193 278 192 230 Q 193 182 220 151 Q 247 119 288 118 Q 329 119 356 151 Q 383 182 384 230 L 384 230 Z M 252 162 L 252 202 L 268 202 L 268 250 L 264 250 L 244 250 L 244 290 L 264 290 L 288 290 L 312 290 L 332 290 L 332 250 L 312 250 L 308 250 L 308 182 L 308 162 L 288 162 L 272 162 L 252 162 L 252 162 Z"/>
</svg>
