<svg viewBox="0 0 575 445">
  <path
    d="M 95 0 L 112 16 L 176 77 L 193 93 L 160 128 L 143 111 L 119 89 L 119 353 L 139 333 L 156 316 L 190 350 L 173 367 L 112 428 L 95 445 L 78 428 L 17 367 L 0 350 L 34 316 L 51 333 L 71 353 L 71 91 L 51 111 L 34 128 L 0 94 L 17 77 L 78 16 L 95 0 L 95 0 Z M 247 38 L 551 38 L 575 38 L 575 86 L 551 86 L 247 86 L 223 86 L 223 38 L 247 38 L 247 38 Z M 247 198 L 551 198 L 575 198 L 575 246 L 551 246 L 247 246 L 223 246 L 223 198 L 247 198 L 247 198 Z M 223 358 L 247 358 L 551 358 L 575 358 L 575 406 L 551 406 L 247 406 L 223 406 L 223 358 L 223 358 Z"
  />
</svg>