<svg viewBox="0 0 484 512">
  <path
    d="M 242 0 L 254 5 L 461 85 L 480 92 L 482 113 Q 484 151 476 204 Q 468 257 444 314 Q 420 371 374 422 Q 328 473 255 506 L 242 512 L 229 507 Q 156 474 110 422 Q 64 371 40 314 Q 16 257 8 204 Q 0 151 3 113 L 4 93 L 23 85 L 230 5 L 242 0 L 242 0 Z M 210 208 L 146 144 L 146 272 Q 147 313 174 340 Q 201 367 242 368 Q 283 367 310 340 Q 337 313 338 272 L 338 144 L 274 208 L 210 208 L 210 208 Z M 202 256 Q 217 257 218 272 Q 217 287 202 288 Q 187 287 186 272 Q 187 257 202 256 L 202 256 Z M 266 272 Q 267 257 282 256 Q 297 257 298 272 Q 297 287 282 288 Q 267 287 266 272 L 266 272 Z"
  />
</svg>