<svg viewBox="0 0 448 512">
  <path
    d="M 352 0 Q 393 1 420 28 L 420 28 Q 447 55 448 96 L 448 416 Q 447 457 420 484 Q 393 511 352 512 L 64 512 L 32 512 L 0 512 L 0 448 L 32 448 L 32 384 L 0 384 L 0 0 L 32 0 L 64 0 L 352 0 L 352 0 Z M 352 384 L 96 384 L 96 448 L 352 448 Q 366 448 375 439 Q 384 430 384 416 Q 384 402 375 393 Q 366 384 352 384 L 352 384 Z M 302 90 Q 269 65 224 64 Q 170 65 133 101 Q 97 138 96 192 Q 97 246 133 283 Q 170 319 224 320 Q 269 319 302 294 Q 291 296 280 296 Q 236 295 206 266 Q 177 236 176 192 Q 177 148 206 118 Q 236 89 280 88 Q 291 88 302 90 L 302 90 Z M 295 172 L 280 136 L 265 172 L 227 175 L 256 200 L 247 237 L 280 217 L 313 237 L 304 200 L 333 175 L 295 172 L 295 172 Z"
  />
</svg>