<svg viewBox="0 0 448 512">
  <path
    d="M 256 112 L 224 112 L 192 112 L 192 144 L 192 148 L 427 408 L 448 432 L 422 451 L 336 512 L 48 192 L 48 128 L 136 0 L 192 0 L 224 0 L 256 0 L 312 0 L 400 128 L 400 192 L 338 261 L 316 238 L 368 180 L 368 138 L 295 32 L 288 32 L 256 32 L 192 32 L 160 32 L 153 32 L 80 138 L 80 180 L 341 469 L 400 427 L 168 169 L 160 160 L 160 148 L 160 112 L 160 80 L 192 80 L 256 80 L 288 80 L 288 112 L 288 148 L 288 160 L 280 169 L 267 183 L 246 159 L 256 148 L 256 144 L 256 112 L 256 112 Z M 111 309 L 132 333 L 48 427 L 107 469 L 181 388 L 202 411 L 112 512 L 26 451 L 0 432 L 22 408 L 110 309 L 111 309 Z"
  />
</svg>