<svg xmlns="http://www.w3.org/2000/svg" viewBox="0 0 496 416">
    <path d="M 96 0 L 0 0 L 0 96 L 96 96 L 96 0 L 96 0 Z M 176 16 L 144 16 L 144 80 L 176 80 L 464 80 L 496 80 L 496 16 L 464 16 L 176 16 L 176 16 Z M 176 176 L 144 176 L 144 240 L 176 240 L 464 240 L 496 240 L 496 176 L 464 176 L 176 176 L 176 176 Z M 176 336 L 144 336 L 144 400 L 176 400 L 464 400 L 496 400 L 496 336 L 464 336 L 176 336 L 176 336 Z M 0 160 L 0 256 L 96 256 L 96 160 L 0 160 L 0 160 Z M 96 320 L 0 320 L 0 416 L 96 416 L 96 320 L 96 320 Z"/>
</svg>
