<svg xmlns="http://www.w3.org/2000/svg" viewBox="0 0 512 512">
  <path d="M 480.94117647058823 210.8235294117647 Q 481.88235294117646 218.35294117647058 481.88235294117646 225.88235294117646 Q 481.88235294117646 233.41176470588235 480.94117647058823 240.94117647058823 L 286.11764705882354 240.94117647058823 L 256 240.94117647058823 L 256 210.8235294117647 L 256 210.8235294117647 L 256 16 L 256 16 Q 263.52941176470586 15.058823529411764 271.05882352941177 15.058823529411764 Q 278.5882352941176 15.058823529411764 286.11764705882354 16 Q 366.11764705882354 22.58823529411765 419.7647058823529 77.17647058823529 Q 474.3529411764706 130.8235294117647 480.94117647058823 210.8235294117647 L 480.94117647058823 210.8235294117647 Z M 286.11764705882354 210.8235294117647 L 450.8235294117647 210.8235294117647 L 286.11764705882354 210.8235294117647 L 450.8235294117647 210.8235294117647 Q 444.2352941176471 144 399.05882352941177 97.88235294117646 Q 352.94117647058823 52.705882352941174 286.11764705882354 46.11764705882353 L 286.11764705882354 210.8235294117647 L 286.11764705882354 210.8235294117647 Z M 180.7058823529412 298.3529411764706 L 180.7058823529412 286.11764705882354 L 180.7058823529412 298.3529411764706 L 180.7058823529412 286.11764705882354 L 180.7058823529412 80.94117647058823 L 180.7058823529412 80.94117647058823 Q 114.82352941176471 96.94117647058823 73.41176470588235 148.7058823529412 Q 31.058823529411764 200.47058823529412 30.11764705882353 271.05882352941177 Q 32 353.88235294117646 87.52941176470588 409.4117647058824 Q 143.05882352941177 464.94117647058823 225.88235294117646 466.8235294117647 Q 279.52941176470586 465.88235294117646 322.8235294117647 441.4117647058824 L 189.1764705882353 307.7647058823529 L 189.1764705882353 307.7647058823529 L 180.7058823529412 298.3529411764706 L 180.7058823529412 298.3529411764706 Z M 348.2352941176471 423.52941176470586 L 369.88235294117646 445.1764705882353 L 348.2352941176471 423.52941176470586 L 369.88235294117646 445.1764705882353 Q 358.5882352941176 454.5882352941176 345.4117647058824 463.05882352941177 Q 292.70588235294116 496 225.88235294117646 496.94117647058823 Q 162.8235294117647 496 112 465.88235294117646 Q 61.1764705882353 435.7647058823529 31.058823529411764 384.94117647058823 Q 0.9411764705882353 334.11764705882354 0 271.05882352941177 Q 1.8823529411764706 187.2941176470588 51.76470588235294 127.05882352941177 Q 101.6470588235294 66.82352941176471 180.7058823529412 49.88235294117647 Q 195.76470588235293 47.05882352941177 210.8235294117647 46.11764705882353 L 210.8235294117647 76.23529411764706 L 210.8235294117647 76.23529411764706 L 210.8235294117647 286.11764705882354 L 210.8235294117647 286.11764705882354 L 348.2352941176471 423.52941176470586 L 348.2352941176471 423.52941176470586 Z M 271.05882352941177 286.11764705882354 L 313.4117647058824 286.11764705882354 L 271.05882352941177 286.11764705882354 L 512 286.11764705882354 Q 510.11764705882354 301.1764705882353 507.29411764705884 316.2352941176471 Q 490.3529411764706 395.29411764705884 430.11764705882354 445.1764705882353 L 301.1764705882353 316.2352941176471 L 301.1764705882353 316.2352941176471 L 271.05882352941177 286.11764705882354 L 271.05882352941177 286.11764705882354 Z M 343.52941176470586 316.2352941176471 L 431.05882352941177 402.8235294117647 L 343.52941176470586 316.2352941176471 L 431.05882352941177 402.8235294117647 Q 464 366.11764705882354 477.1764705882353 316.2352941176471 L 343.52941176470586 316.2352941176471 L 343.52941176470586 316.2352941176471 Z" />
</svg>