<svg xmlns="http://www.w3.org/2000/svg" viewBox="0 0 512 512">
  <path d="M 512 51.3605 L 492.7398 52.16301 L 512 51.3605 L 492.7398 52.16301 L 313.78058 62.59561 L 313.78058 62.59561 L 198.21944 62.59561 L 198.21944 62.59561 L 19.260187 52.16301 L 19.260187 52.16301 L 0 51.3605 L 0 51.3605 L 6.4200625 69.818184 L 6.4200625 69.818184 L 64.20063 229.51724 L 64.20063 229.51724 L 63.39812 229.51724 L 50.557995 229.51724 L 50.557995 242.35736 L 50.557995 242.35736 L 50.557995 268.03763 L 50.557995 268.03763 L 50.557995 280.87775 L 50.557995 280.87775 L 76.23824 280.87775 L 76.23824 280.87775 L 76.23824 268.03763 L 76.23824 268.03763 L 76.23824 255.1975 L 76.23824 255.1975 L 82.65831 255.1975 L 435.76175 255.1975 L 435.76175 268.03763 L 435.76175 268.03763 L 435.76175 280.87775 L 435.76175 280.87775 L 461.44202 280.87775 L 461.44202 280.87775 L 461.44202 268.03763 L 461.44202 268.03763 L 461.44202 242.35736 L 461.44202 242.35736 L 461.44202 229.51724 L 461.44202 229.51724 L 448.60187 229.51724 L 447.79938 229.51724 L 505.57993 69.818184 L 505.57993 69.818184 L 512 51.3605 L 512 51.3605 Z M 420.5141 229.51724 L 326.6207 229.51724 L 420.5141 229.51724 L 326.6207 229.51724 L 326.6207 87.47335 L 326.6207 87.47335 L 475.08463 79.44827 L 475.08463 79.44827 L 420.5141 229.51724 L 420.5141 229.51724 Z M 185.3793 229.51724 L 91.48589 229.51724 L 185.3793 229.51724 L 91.48589 229.51724 L 36.91536 79.44827 L 36.91536 79.44827 L 185.3793 87.47335 L 185.3793 87.47335 L 185.3793 229.51724 L 185.3793 229.51724 Z M 211.05956 88.27586 L 300.94043 88.27586 L 211.05956 88.27586 L 300.94043 88.27586 L 300.94043 229.51724 L 300.94043 229.51724 L 211.05956 229.51724 L 211.05956 229.51724 L 211.05956 88.27586 L 211.05956 88.27586 Z M 140.43887 460.6395 Q 174.9467 459.837 199.82445 438.16928 L 199.82445 438.16928 L 199.82445 438.16928 Q 223.89969 417.30408 229.51724 383.59875 L 282.48276 383.59875 L 282.48276 383.59875 Q 288.1003 417.30408 312.17554 438.16928 Q 337.05328 459.837 371.56113 460.6395 Q 410.0815 459.837 434.95926 434.15674 Q 460.6395 409.279 461.44202 370.7586 Q 460.6395 332.23825 434.95926 307.3605 Q 410.0815 281.68024 371.56113 280.87775 Q 337.05328 281.68024 312.17554 303.34796 Q 288.1003 324.21317 282.48276 357.9185 L 229.51724 357.9185 L 229.51724 357.9185 Q 223.89969 324.21317 199.82445 303.34796 Q 174.9467 281.68024 140.43887 280.87775 Q 101.918495 281.68024 77.04075 307.3605 Q 51.3605 332.23825 50.557995 370.7586 Q 51.3605 409.279 77.04075 434.15674 Q 101.918495 459.837 140.43887 460.6395 L 140.43887 460.6395 Z M 153.27899 433.35422 L 153.27899 383.59875 L 153.27899 433.35422 L 153.27899 383.59875 L 203.03448 383.59875 L 203.03448 383.59875 Q 199.02194 402.85895 186.18182 416.50156 Q 172.53918 429.3417 153.27899 433.35422 L 153.27899 433.35422 Z M 127.59875 433.35422 Q 108.338554 429.3417 94.69592 416.50156 L 94.69592 416.50156 L 94.69592 416.50156 Q 81.8558 402.85895 77.84326 383.59875 L 127.59875 383.59875 L 127.59875 383.59875 L 127.59875 433.35422 L 127.59875 433.35422 Z M 76.23824 370.7586 L 76.23824 370.7586 L 76.23824 370.7586 L 76.23824 370.7586 L 76.23824 370.7586 L 76.23824 370.7586 L 76.23824 370.7586 L 76.23824 370.7586 Z M 77.84326 357.9185 Q 81.8558 338.6583 94.69592 325.0157 L 94.69592 325.0157 L 94.69592 325.0157 Q 108.338554 312.17554 127.59875 308.163 L 127.59875 357.9185 L 127.59875 357.9185 L 77.84326 357.9185 L 77.84326 357.9185 Z M 153.27899 308.163 Q 172.53918 312.17554 186.18182 325.0157 L 186.18182 325.0157 L 186.18182 325.0157 Q 199.02194 338.6583 203.03448 357.9185 L 153.27899 357.9185 L 153.27899 357.9185 L 153.27899 308.163 L 153.27899 308.163 Z M 434.15674 383.59875 Q 430.1442 402.85895 417.30408 416.50156 L 417.30408 416.50156 L 417.30408 416.50156 Q 403.66144 429.3417 384.40125 433.35422 L 384.40125 383.59875 L 384.40125 383.59875 L 434.15674 383.59875 L 434.15674 383.59875 Z M 358.721 383.59875 L 358.721 433.35422 L 358.721 383.59875 L 358.721 433.35422 Q 339.46082 429.3417 325.81818 416.50156 Q 312.97806 402.85895 308.9655 383.59875 L 358.721 383.59875 L 358.721 383.59875 Z M 307.3605 370.7586 L 307.3605 370.7586 L 307.3605 370.7586 L 307.3605 370.7586 L 307.3605 370.7586 L 307.3605 370.7586 L 307.3605 370.7586 L 307.3605 370.7586 Z M 358.721 357.9185 L 308.9655 357.9185 L 358.721 357.9185 L 308.9655 357.9185 Q 312.97806 338.6583 325.81818 325.0157 Q 339.46082 312.17554 358.721 308.163 L 358.721 357.9185 L 358.721 357.9185 Z M 384.40125 357.9185 L 384.40125 308.163 L 384.40125 357.9185 L 384.40125 308.163 Q 403.66144 312.17554 417.30408 325.0157 Q 430.1442 338.6583 434.15674 357.9185 L 384.40125 357.9185 L 384.40125 357.9185 Z" />
</svg>