<svg xmlns="http://www.w3.org/2000/svg" viewBox="0 0 511 510">
    <path d="M 88 30 Q 86 8 64 6 Q 42 8 40 30 Q 42 52 64 54 Q 86 52 88 30 L 88 30 Z M 504 158 Q 502 136 480 134 Q 458 136 456 158 Q 458 180 480 182 Q 502 180 504 158 L 504 158 Z M 480 470 Q 502 468 504 446 Q 502 424 480 422 Q 458 424 456 446 Q 458 468 480 470 L 480 470 Z M 161 134 L 184 157 L 195 145 L 204 137 Q 239 101 245 51 L 248 24 L 250 8 L 218 4 L 216 20 L 213 48 Q 208 86 181 114 L 173 123 L 161 134 L 161 134 Z M 365 315 L 353 326 L 376 349 L 387 337 L 396 329 Q 424 302 462 297 L 490 294 L 506 292 L 502 260 L 486 262 L 459 265 Q 409 271 373 306 L 365 315 L 365 315 Z M 511 24 L 490 0 L 478 10 L 468 18 Q 456 28 442 28 Q 412 27 392 46 Q 371 65 369 94 L 367 124 Q 366 140 355 150 Q 344 161 327 161 Q 300 160 280 177 L 270 186 L 258 196 L 278 221 L 290 210 L 300 202 Q 312 192 327 193 Q 356 193 376 174 Q 397 155 399 126 L 401 96 Q 402 80 413 70 Q 425 59 441 59 Q 468 60 488 43 L 498 34 L 511 24 L 511 24 Z M 40 473 L 37 470 L 63 404 L 106 447 L 40 473 L 40 473 Z M 187 415 L 139 434 L 76 371 L 95 323 L 187 415 L 187 415 Z M 107 291 L 107 291 L 124 247 L 263 386 L 219 403 L 219 403 L 107 291 L 107 291 Z M 99 223 L 0 478 L 32 510 L 287 411 L 320 398 L 295 373 L 137 215 L 112 190 L 99 223 L 99 223 Z"/>
</svg>
