<svg viewBox="0 0 448 448">
  <path
    d="M 32 32 L 32 416 L 416 416 L 416 32 L 32 32 L 32 32 Z M 0 0 L 32 0 L 416 0 L 448 0 L 448 32 L 448 416 L 448 448 L 416 448 L 32 448 L 0 448 L 0 416 L 0 32 L 0 0 L 0 0 Z M 80 128 L 88 128 L 98 128 L 102 137 L 160 252 L 160 144 L 160 128 L 192 128 L 192 144 L 192 304 L 192 320 L 176 320 L 168 320 L 158 320 L 154 311 L 96 196 L 96 304 L 96 320 L 64 320 L 64 304 L 64 144 L 64 128 L 80 128 L 80 128 Z M 240 128 L 304 128 L 320 128 L 320 160 L 304 160 L 256 160 L 256 192 L 304 192 L 320 192 L 320 224 L 304 224 L 256 224 L 256 304 L 256 320 L 224 320 L 224 304 L 224 208 L 224 144 L 224 128 L 240 128 L 240 128 Z M 384 144 L 384 304 L 384 320 L 352 320 L 352 304 L 352 144 L 352 128 L 384 128 L 384 144 L 384 144 Z"
  />
</svg>