<svg xmlns="http://www.w3.org/2000/svg" viewBox="0 0 640 448">
    <path d="M 32 0 L 384 0 L 384 32 L 448 32 L 469 32 L 477 51 L 540 192 L 608 192 L 608 288 L 640 288 L 640 352 L 608 352 L 576 352 Q 575 393 548 420 Q 521 447 480 448 Q 439 447 412 420 Q 385 393 384 352 L 256 352 Q 255 393 228 420 Q 201 447 160 448 Q 119 447 92 420 Q 65 393 64 352 L 32 352 L 0 352 L 0 288 L 32 288 L 32 256 L 0 256 L 0 96 L 32 96 L 32 0 L 32 0 Z M 384 192 L 470 192 L 427 96 L 384 96 L 384 192 L 384 192 Z M 112 352 Q 113 379 136 394 Q 160 406 184 394 Q 207 379 208 352 Q 207 325 184 310 Q 160 298 136 310 Q 113 325 112 352 L 112 352 Z M 528 352 Q 527 325 504 310 Q 480 298 456 310 Q 433 325 432 352 Q 433 379 456 394 Q 480 406 504 394 Q 527 379 528 352 L 528 352 Z"/>
</svg>
