<svg xmlns="http://www.w3.org/2000/svg" viewBox="0 0 512 512">
  <path d="M 199.11111111111111 56.888888888888886 Q 245.33333333333334 56.888888888888886 284.44444444444446 80 L 284.44444444444446 80 L 284.44444444444446 80 Q 323.55555555555554 102.22222222222223 346.6666666666667 142.22222222222223 Q 369.77777777777777 182.22222222222223 369.77777777777777 227.55555555555554 Q 369.77777777777777 272.8888888888889 346.6666666666667 312.8888888888889 Q 323.55555555555554 352.8888888888889 284.44444444444446 375.1111111111111 Q 245.33333333333334 398.22222222222223 199.11111111111111 398.22222222222223 Q 152.88888888888889 398.22222222222223 113.77777777777777 375.1111111111111 Q 74.66666666666667 352.8888888888889 51.55555555555556 312.8888888888889 Q 28.444444444444443 272.8888888888889 28.444444444444443 227.55555555555554 Q 28.444444444444443 182.22222222222223 51.55555555555556 142.22222222222223 Q 74.66666666666667 102.22222222222223 113.77777777777777 80 Q 152.88888888888889 56.888888888888886 199.11111111111111 56.888888888888886 L 199.11111111111111 56.888888888888886 Z M 199.11111111111111 426.6666666666667 Q 272.8888888888889 424.8888888888889 326.22222222222223 380.44444444444446 L 418.6666666666667 464.8888888888889 L 418.6666666666667 464.8888888888889 L 440 483.55555555555554 L 440 483.55555555555554 L 458.6666666666667 462.22222222222223 L 458.6666666666667 462.22222222222223 L 493.3333333333333 420.44444444444446 L 493.3333333333333 420.44444444444446 L 512 398.22222222222223 L 512 398.22222222222223 L 488 383.1111111111111 L 488 383.1111111111111 L 379.55555555555554 312 L 379.55555555555554 312 Q 398.22222222222223 272.8888888888889 398.22222222222223 227.55555555555554 Q 397.3333333333333 171.55555555555554 370.6666666666667 127.11111111111111 Q 344.8888888888889 81.77777777777777 299.55555555555554 56 Q 255.11111111111111 29.333333333333332 199.11111111111111 28.444444444444443 Q 143.11111111111111 29.333333333333332 98.66666666666667 56 Q 53.333333333333336 81.77777777777777 27.555555555555557 127.11111111111111 Q 0.8888888888888888 171.55555555555554 0 227.55555555555554 Q 0.8888888888888888 283.55555555555554 27.555555555555557 328 Q 53.333333333333336 373.3333333333333 98.66666666666667 399.1111111111111 Q 143.11111111111111 425.77777777777777 199.11111111111111 426.6666666666667 L 199.11111111111111 426.6666666666667 Z M 437.3333333333333 442.6666666666667 L 346.6666666666667 360.8888888888889 L 437.3333333333333 442.6666666666667 L 346.6666666666667 360.8888888888889 Q 357.3333333333333 349.3333333333333 365.3333333333333 336.8888888888889 L 469.3333333333333 404.44444444444446 L 469.3333333333333 404.44444444444446 L 437.3333333333333 442.6666666666667 L 437.3333333333333 442.6666666666667 Z M 431.1111111111111 419.55555555555554 Q 443.55555555555554 418.6666666666667 445.3333333333333 405.3333333333333 Q 443.55555555555554 392 431.1111111111111 391.1111111111111 Q 417.77777777777777 392 416.8888888888889 405.3333333333333 Q 417.77777777777777 418.6666666666667 431.1111111111111 419.55555555555554 L 431.1111111111111 419.55555555555554 Z M 136 119.11111111111111 Q 116.44444444444444 138.66666666666666 113.77777777777777 164.44444444444446 Q 112.88888888888889 180.44444444444446 108.44444444444444 197.33333333333334 Q 104 215.11111111111111 96.88888888888889 227.55555555555554 Q 79.11111111111111 259.55555555555554 88 292.44444444444446 Q 96.88888888888889 325.3333333333333 128 344 Q 160 361.77777777777777 192.88888888888889 352.8888888888889 Q 225.77777777777777 344 244.44444444444446 312.8888888888889 Q 248.88888888888889 305.77777777777777 259.55555555555554 298.6666666666667 Q 270.22222222222223 292.44444444444446 280 290.6666666666667 Q 297.77777777777777 288.8888888888889 312.8888888888889 277.3333333333333 Q 336 258.6666666666667 340.44444444444446 231.11111111111111 Q 344.8888888888889 202.66666666666666 327.1111111111111 177.77777777777777 Q 311.1111111111111 157.33333333333334 288 152 Q 275.55555555555554 148.44444444444446 260.44444444444446 139.55555555555554 Q 245.33333333333334 130.66666666666666 236.44444444444446 121.77777777777777 Q 215.11111111111111 100.44444444444444 186.66666666666666 99.55555555555556 Q 158.22222222222223 98.66666666666667 136 119.11111111111111 L 136 119.11111111111111 Z M 216 141.33333333333334 Q 228.44444444444446 153.77777777777777 246.22222222222223 164.44444444444446 Q 263.1111111111111 174.22222222222223 280.8888888888889 179.55555555555554 Q 295.1111111111111 183.11111111111111 304.8888888888889 194.66666666666666 Q 314.6666666666667 209.77777777777777 312 226.66666666666666 Q 310.22222222222223 243.55555555555554 296 255.11111111111111 Q 286.22222222222223 261.3333333333333 276.44444444444446 263.1111111111111 Q 259.55555555555554 264.8888888888889 244.44444444444446 274.6666666666667 Q 229.33333333333334 283.55555555555554 219.55555555555554 298.6666666666667 Q 207.11111111111111 319.1111111111111 185.77777777777777 325.3333333333333 Q 163.55555555555554 330.6666666666667 142.22222222222223 319.1111111111111 Q 121.77777777777777 306.6666666666667 115.55555555555556 285.3333333333333 Q 110.22222222222223 263.1111111111111 121.77777777777777 241.77777777777777 Q 130.66666666666666 224.88888888888889 136 204.44444444444446 Q 141.33333333333334 184.88888888888889 142.22222222222223 167.11111111111111 Q 144 152 155.55555555555554 139.55555555555554 Q 168.88888888888889 128 185.77777777777777 128 Q 202.66666666666666 128 216 141.33333333333334 L 216 141.33333333333334 Z M 177.77777777777777 227.55555555555554 Q 179.55555555555554 208 199.11111111111111 206.22222222222223 Q 218.66666666666666 208 220.44444444444446 227.55555555555554 Q 218.66666666666666 247.11111111111111 199.11111111111111 248.88888888888889 Q 179.55555555555554 247.11111111111111 177.77777777777777 227.55555555555554 L 177.77777777777777 227.55555555555554 Z M 248.88888888888889 227.55555555555554 Q 248 199.11111111111111 224 184.88888888888889 Q 199.11111111111111 170.66666666666666 174.22222222222223 184.88888888888889 Q 150.22222222222223 199.11111111111111 149.33333333333334 227.55555555555554 Q 150.22222222222223 256 174.22222222222223 270.22222222222223 Q 199.11111111111111 284.44444444444446 224 270.22222222222223 Q 248 256 248.88888888888889 227.55555555555554 L 248.88888888888889 227.55555555555554 Z" />
</svg>