<svg xmlns="http://www.w3.org/2000/svg" viewBox="0 0 512 480">
    <path d="M 128 0 L 152 0 L 360 0 L 384 0 L 384 24 L 384 96 L 464 96 L 512 96 L 512 144 L 512 432 L 512 480 L 464 480 L 48 480 L 0 480 L 0 432 L 0 144 L 0 96 L 48 96 L 128 96 L 128 24 L 128 0 L 128 0 Z M 336 48 L 176 48 L 176 96 L 336 96 L 336 48 L 336 48 Z M 48 144 L 48 432 L 464 432 L 464 144 L 360 144 L 152 144 L 48 144 L 48 144 Z M 305 199 L 377 271 L 394 288 L 377 305 L 305 377 L 288 394 L 254 360 L 271 343 L 302 312 L 152 312 L 128 312 L 128 264 L 152 264 L 302 264 L 271 233 L 254 216 L 288 182 L 305 199 L 305 199 Z"/>
</svg>
