<svg viewBox="0 0 512 448">
  <path
    d="M 113 327 L 102 356 L 95 374 L 153 357 L 166 353 L 180 357 Q 215 368 256 368 Q 351 365 407 318 Q 463 270 464 208 Q 463 146 407 98 Q 351 50 256 48 Q 161 50 105 98 Q 49 146 48 208 Q 49 262 91 305 L 113 327 L 113 327 Z M 74 431 L 16 448 L 37 392 L 57 339 Q 2 284 0 208 Q 1 150 35 103 Q 69 56 127 28 Q 184 1 256 0 Q 328 1 385 28 Q 443 56 477 103 Q 511 150 512 208 Q 511 266 477 313 Q 443 360 385 388 Q 328 415 256 416 Q 209 416 166 403 L 74 431 L 74 431 Z M 144 128 Q 144 114 153 105 L 153 105 Q 162 96 176 96 Q 190 96 199 105 Q 208 114 208 128 Q 208 142 199 151 Q 190 160 176 160 Q 162 160 153 151 Q 144 142 144 128 L 144 128 Z M 400 272 L 400 288 L 272 288 L 192 288 L 144 288 L 144 272 L 208 192 L 230 219 L 296 128 L 400 272 L 400 272 Z"
  />
</svg>