<svg viewBox="0 0 576 512">
  <path
    d="M 192 0 L 224 0 L 352 0 L 384 0 L 384 32 L 436 32 L 488 32 L 468 80 L 504 80 L 528 80 L 528 104 L 528 304 L 528 312 L 524 318 L 468 398 L 428 370 L 464 320 L 448 320 L 400 320 L 176 320 L 128 320 L 113 320 L 148 370 L 108 398 L 52 318 L 48 312 L 48 304 L 48 104 L 48 80 L 72 80 L 108 80 L 88 32 L 140 32 L 192 32 L 192 0 L 192 0 Z M 480 272 L 480 128 L 448 128 L 128 128 L 96 128 L 96 272 L 128 272 L 128 184 L 128 160 L 152 160 L 424 160 L 448 160 L 448 184 L 448 272 L 480 272 L 480 272 Z M 400 272 L 400 208 L 176 208 L 176 272 L 400 272 L 400 272 Z M 79 489 Q 64 497 44 505 L 44 505 Q 24 512 0 512 L 0 464 Q 31 462 55 447 Q 77 434 95 417 Q 95 416 96 416 L 96 416 L 96 416 Q 115 434 137 447 Q 161 462 192 464 Q 222 462 247 447 Q 269 434 287 417 Q 287 417 287 416 L 288 416 L 289 416 Q 289 417 289 417 Q 307 434 329 447 Q 353 462 384 464 Q 414 462 439 447 Q 461 434 479 417 Q 479 417 479 416 L 480 416 L 481 416 Q 481 417 481 417 Q 499 434 521 447 Q 545 462 576 464 L 576 512 Q 552 512 532 505 Q 512 497 497 489 Q 487 483 480 478 Q 473 483 463 489 Q 448 498 428 505 Q 408 512 384 512 Q 360 512 340 505 Q 320 497 305 489 Q 295 483 288 478 Q 281 483 271 489 Q 256 498 236 505 Q 216 512 192 512 Q 168 512 148 505 Q 128 497 113 489 Q 103 483 96 478 Q 89 483 79 489 L 79 489 Z"
  />
</svg>