<svg xmlns="http://www.w3.org/2000/svg" viewBox="0 0 512 512">
  <path d="M 375.17241379310343 110.34482758620689 Q 322.2068965517241 62.89655172413793 247.17241379310346 61.793103448275865 Q 164.41379310344828 64 110.34482758620689 119.17241379310344 Q 55.172413793103445 173.24137931034483 52.96551724137931 256 Q 55.172413793103445 338.7586206896552 110.34482758620689 392.82758620689657 Q 164.41379310344828 448 247.17241379310346 450.2068965517241 Q 314.48275862068965 449.1034482758621 364.13793103448273 411.58620689655174 L 395.0344827586207 453.51724137931035 L 395.0344827586207 453.51724137931035 Q 332.13793103448273 502.0689655172414 247.17241379310346 503.17241379310343 Q 177.6551724137931 502.0689655172414 122.48275862068965 468.9655172413793 Q 66.20689655172414 436.9655172413793 34.206896551724135 380.6896551724138 Q 1.103448275862069 325.51724137931035 0 256 Q 1.103448275862069 186.48275862068965 34.206896551724135 131.31034482758622 Q 66.20689655172414 75.03448275862068 122.48275862068965 43.03448275862069 Q 177.6551724137931 9.931034482758621 247.17241379310346 8.827586206896552 Q 345.37931034482756 11.03448275862069 412.6896551724138 72.82758620689656 L 430.3448275862069 55.172413793103445 L 430.3448275862069 55.172413793103445 L 467.86206896551727 17.655172413793103 L 467.86206896551727 17.655172413793103 L 505.37931034482756 55.172413793103445 L 505.37931034482756 55.172413793103445 L 512 61.793103448275865 L 512 61.793103448275865 L 512 167.72413793103448 L 512 167.72413793103448 L 512 220.68965517241378 L 512 220.68965517241378 L 459.0344827586207 220.68965517241378 L 353.1034482758621 220.68965517241378 L 346.48275862068965 214.06896551724137 L 346.48275862068965 214.06896551724137 L 308.9655172413793 176.55172413793105 L 308.9655172413793 176.55172413793105 L 346.48275862068965 139.0344827586207 L 346.48275862068965 139.0344827586207 L 375.17241379310343 110.34482758620689 L 375.17241379310343 110.34482758620689 Z M 459.0344827586207 101.51724137931035 L 392.82758620689657 167.72413793103448 L 459.0344827586207 101.51724137931035 L 392.82758620689657 167.72413793103448 L 459.0344827586207 167.72413793103448 L 459.0344827586207 167.72413793103448 L 459.0344827586207 101.51724137931035 L 459.0344827586207 101.51724137931035 Z" />
</svg>