<svg xmlns="http://www.w3.org/2000/svg" viewBox="0 0 512 512">
  <path d="M 56.80243161094225 106.60182370820668 Q 67.69604863221885 106.60182370820668 74.69908814589665 113.6048632218845 L 74.69908814589665 113.6048632218845 L 74.69908814589665 113.6048632218845 Q 81.70212765957447 120.6079027355623 81.70212765957447 131.50151975683892 Q 81.70212765957447 142.3951367781155 74.69908814589665 149.3981762917933 Q 67.69604863221885 156.4012158054711 56.80243161094225 156.4012158054711 Q 45.90881458966565 156.4012158054711 38.90577507598784 149.3981762917933 Q 31.90273556231003 142.3951367781155 31.90273556231003 131.50151975683892 Q 31.90273556231003 120.6079027355623 38.90577507598784 113.6048632218845 Q 45.90881458966565 106.60182370820668 56.80243161094225 106.60182370820668 L 56.80243161094225 106.60182370820668 Z M 56.80243161094225 181.30091185410333 Q 84.8145896656535 180.52279635258358 99.59878419452887 156.4012158054711 Q 113.6048632218845 131.50151975683892 99.59878419452887 106.60182370820668 Q 84.8145896656535 82.48024316109422 56.80243161094225 81.70212765957447 Q 28.790273556231003 82.48024316109422 14.006079027355623 106.60182370820668 Q 0 131.50151975683892 14.006079027355623 156.4012158054711 Q 28.790273556231003 180.52279635258358 56.80243161094225 181.30091185410333 L 56.80243161094225 181.30091185410333 Z M 181.30091185410333 231.10030395136778 Q 192.19452887537994 231.10030395136778 199.19756838905775 238.10334346504558 L 199.19756838905775 238.10334346504558 L 199.19756838905775 238.10334346504558 Q 206.20060790273556 245.10638297872342 206.20060790273556 256 Q 206.20060790273556 266.8936170212766 199.19756838905775 273.8966565349544 Q 192.19452887537994 280.8996960486322 181.30091185410333 280.8996960486322 Q 170.40729483282675 280.8996960486322 163.40425531914894 273.8966565349544 Q 156.4012158054711 266.8936170212766 156.4012158054711 256 Q 156.4012158054711 245.10638297872342 163.40425531914894 238.10334346504558 Q 170.40729483282675 231.10030395136778 181.30091185410333 231.10030395136778 L 181.30091185410333 231.10030395136778 Z M 181.30091185410333 305.79939209726444 Q 209.31306990881458 305.02127659574467 224.09726443768997 280.8996960486322 Q 238.10334346504558 256 224.09726443768997 231.10030395136778 Q 209.31306990881458 206.9787234042553 181.30091185410333 206.20060790273556 Q 153.2887537993921 206.9787234042553 138.50455927051672 231.10030395136778 Q 124.4984802431611 256 138.50455927051672 280.8996960486322 Q 153.2887537993921 305.02127659574467 181.30091185410333 305.79939209726444 L 181.30091185410333 305.79939209726444 Z M 31.90273556231003 380.4984802431611 Q 31.90273556231003 369.6048632218845 38.90577507598784 362.60182370820667 L 38.90577507598784 362.60182370820667 L 38.90577507598784 362.60182370820667 Q 45.90881458966565 355.5987841945289 56.80243161094225 355.5987841945289 Q 67.69604863221885 355.5987841945289 74.69908814589665 362.60182370820667 Q 81.70212765957447 369.6048632218845 81.70212765957447 380.4984802431611 Q 81.70212765957447 391.39209726443767 74.69908814589665 398.3951367781155 Q 67.69604863221885 405.39817629179333 56.80243161094225 405.39817629179333 Q 45.90881458966565 405.39817629179333 38.90577507598784 398.3951367781155 Q 31.90273556231003 391.39209726443767 31.90273556231003 380.4984802431611 L 31.90273556231003 380.4984802431611 Z M 106.60182370820668 380.4984802431611 Q 105.82370820668693 352.48632218844983 81.70212765957447 337.70212765957444 Q 56.80243161094225 323.69604863221883 31.90273556231003 337.70212765957444 Q 7.781155015197569 352.48632218844983 7.003039513677812 380.4984802431611 Q 7.781155015197569 408.51063829787233 31.90273556231003 423.2948328267477 Q 56.80243161094225 437.30091185410333 81.70212765957447 423.2948328267477 Q 105.82370820668693 408.51063829787233 106.60182370820668 380.4984802431611 L 106.60182370820668 380.4984802431611 Z M 156.4012158054711 380.4984802431611 Q 156.4012158054711 369.6048632218845 163.40425531914894 362.60182370820667 L 163.40425531914894 362.60182370820667 L 163.40425531914894 362.60182370820667 Q 170.40729483282675 355.5987841945289 181.30091185410333 355.5987841945289 Q 192.19452887537994 355.5987841945289 199.19756838905775 362.60182370820667 Q 206.20060790273556 369.6048632218845 206.20060790273556 380.4984802431611 Q 206.20060790273556 391.39209726443767 199.19756838905775 398.3951367781155 Q 192.19452887537994 405.39817629179333 181.30091185410333 405.39817629179333 Q 170.40729483282675 405.39817629179333 163.40425531914894 398.3951367781155 Q 156.4012158054711 391.39209726443767 156.4012158054711 380.4984802431611 L 156.4012158054711 380.4984802431611 Z M 231.10030395136778 380.4984802431611 Q 230.32218844984803 352.48632218844983 206.20060790273556 337.70212765957444 Q 181.30091185410333 323.69604863221883 156.4012158054711 337.70212765957444 Q 132.27963525835867 352.48632218844983 131.50151975683892 380.4984802431611 Q 132.27963525835867 408.51063829787233 156.4012158054711 423.2948328267477 Q 181.30091185410333 437.30091185410333 206.20060790273556 423.2948328267477 Q 230.32218844984803 408.51063829787233 231.10030395136778 380.4984802431611 L 231.10030395136778 380.4984802431611 Z M 31.90273556231003 256 Q 31.90273556231003 245.10638297872342 38.90577507598784 238.10334346504558 L 38.90577507598784 238.10334346504558 L 38.90577507598784 238.10334346504558 Q 45.90881458966565 231.10030395136778 56.80243161094225 231.10030395136778 Q 67.69604863221885 231.10030395136778 74.69908814589665 238.10334346504558 Q 81.70212765957447 245.10638297872342 81.70212765957447 256 Q 81.70212765957447 266.8936170212766 74.69908814589665 273.8966565349544 Q 67.69604863221885 280.8996960486322 56.80243161094225 280.8996960486322 Q 45.90881458966565 280.8996960486322 38.90577507598784 273.8966565349544 Q 31.90273556231003 266.8936170212766 31.90273556231003 256 L 31.90273556231003 256 Z M 106.60182370820668 256 Q 105.82370820668693 227.98784194528875 81.70212765957447 213.20364741641336 Q 56.80243161094225 199.19756838905775 31.90273556231003 213.20364741641336 Q 7.781155015197569 227.98784194528875 7.003039513677812 256 Q 7.781155015197569 284.0121580547112 31.90273556231003 298.7963525835866 Q 56.80243161094225 312.8024316109422 81.70212765957447 298.7963525835866 Q 105.82370820668693 284.0121580547112 106.60182370820668 256 L 106.60182370820668 256 Z M 156.4012158054711 131.50151975683892 Q 156.4012158054711 120.6079027355623 163.40425531914894 113.6048632218845 L 163.40425531914894 113.6048632218845 L 163.40425531914894 113.6048632218845 Q 170.40729483282675 106.60182370820668 181.30091185410333 106.60182370820668 Q 192.19452887537994 106.60182370820668 199.19756838905775 113.6048632218845 Q 206.20060790273556 120.6079027355623 206.20060790273556 131.50151975683892 Q 206.20060790273556 142.3951367781155 199.19756838905775 149.3981762917933 Q 192.19452887537994 156.4012158054711 181.30091185410333 156.4012158054711 Q 170.40729483282675 156.4012158054711 163.40425531914894 149.3981762917933 Q 156.4012158054711 142.3951367781155 156.4012158054711 131.50151975683892 L 156.4012158054711 131.50151975683892 Z M 231.10030395136778 131.50151975683892 Q 230.32218844984803 103.48936170212765 206.20060790273556 88.70516717325228 Q 181.30091185410333 74.69908814589665 156.4012158054711 88.70516717325228 Q 132.27963525835867 103.48936170212765 131.50151975683892 131.50151975683892 Q 132.27963525835867 159.51367781155014 156.4012158054711 174.29787234042553 Q 181.30091185410333 188.30395136778117 206.20060790273556 174.29787234042553 Q 230.32218844984803 159.51367781155014 231.10030395136778 131.50151975683892 L 231.10030395136778 131.50151975683892 Z M 330.69908814589667 106.60182370820668 Q 341.5927051671733 106.60182370820668 348.59574468085106 113.6048632218845 L 348.59574468085106 113.6048632218845 L 348.59574468085106 113.6048632218845 Q 355.5987841945289 120.6079027355623 355.5987841945289 131.50151975683892 Q 355.5987841945289 142.3951367781155 348.59574468085106 149.3981762917933 Q 341.5927051671733 156.4012158054711 330.69908814589667 156.4012158054711 Q 319.80547112462006 156.4012158054711 312.8024316109422 149.3981762917933 Q 305.79939209726444 142.3951367781155 305.79939209726444 131.50151975683892 Q 305.79939209726444 120.6079027355623 312.8024316109422 113.6048632218845 Q 319.80547112462006 106.60182370820668 330.69908814589667 106.60182370820668 L 330.69908814589667 106.60182370820668 Z M 330.69908814589667 181.30091185410333 Q 358.7112462006079 180.52279635258358 373.4954407294833 156.4012158054711 Q 387.5015197568389 131.50151975683892 373.4954407294833 106.60182370820668 Q 358.7112462006079 82.48024316109422 330.69908814589667 81.70212765957447 Q 302.6869300911854 82.48024316109422 287.90273556231006 106.60182370820668 Q 273.8966565349544 131.50151975683892 287.90273556231006 156.4012158054711 Q 302.6869300911854 180.52279635258358 330.69908814589667 181.30091185410333 L 330.69908814589667 181.30091185410333 Z M 430.29787234042556 131.50151975683892 Q 430.29787234042556 120.6079027355623 437.30091185410333 113.6048632218845 L 437.30091185410333 113.6048632218845 L 437.30091185410333 113.6048632218845 Q 444.30395136778117 106.60182370820668 455.1975683890578 106.60182370820668 Q 466.09118541033433 106.60182370820668 473.09422492401217 113.6048632218845 Q 480.09726443768994 120.6079027355623 480.09726443768994 131.50151975683892 Q 480.09726443768994 142.3951367781155 473.09422492401217 149.3981762917933 Q 466.09118541033433 156.4012158054711 455.1975683890578 156.4012158054711 Q 444.30395136778117 156.4012158054711 437.30091185410333 149.3981762917933 Q 430.29787234042556 142.3951367781155 430.29787234042556 131.50151975683892 L 430.29787234042556 131.50151975683892 Z M 504.99696048632217 131.50151975683892 Q 504.21884498480244 103.48936170212765 480.09726443768994 88.70516717325228 Q 455.1975683890578 74.69908814589665 430.29787234042556 88.70516717325228 Q 406.17629179331306 103.48936170212765 405.39817629179333 131.50151975683892 Q 406.17629179331306 159.51367781155014 430.29787234042556 174.29787234042553 Q 455.1975683890578 188.30395136778117 480.09726443768994 174.29787234042553 Q 504.21884498480244 159.51367781155014 504.99696048632217 131.50151975683892 L 504.99696048632217 131.50151975683892 Z M 455.1975683890578 231.10030395136778 Q 466.09118541033433 231.10030395136778 473.09422492401217 238.10334346504558 L 473.09422492401217 238.10334346504558 L 473.09422492401217 238.10334346504558 Q 480.09726443768994 245.10638297872342 480.09726443768994 256 Q 480.09726443768994 266.8936170212766 473.09422492401217 273.8966565349544 Q 466.09118541033433 280.8996960486322 455.1975683890578 280.8996960486322 Q 444.30395136778117 280.8996960486322 437.30091185410333 273.8966565349544 Q 430.29787234042556 266.8936170212766 430.29787234042556 256 Q 430.29787234042556 245.10638297872342 437.30091185410333 238.10334346504558 Q 444.30395136778117 231.10030395136778 455.1975683890578 231.10030395136778 L 455.1975683890578 231.10030395136778 Z M 455.1975683890578 305.79939209726444 Q 483.209726443769 305.02127659574467 497.9939209726444 280.8996960486322 Q 512 256 497.9939209726444 231.10030395136778 Q 483.209726443769 206.9787234042553 455.1975683890578 206.20060790273556 Q 427.1854103343465 206.9787234042553 412.4012158054711 231.10030395136778 Q 398.3951367781155 256 412.4012158054711 280.8996960486322 Q 427.1854103343465 305.02127659574467 455.1975683890578 305.79939209726444 L 455.1975683890578 305.79939209726444 Z M 430.29787234042556 380.4984802431611 Q 430.29787234042556 369.6048632218845 437.30091185410333 362.60182370820667 L 437.30091185410333 362.60182370820667 L 437.30091185410333 362.60182370820667 Q 444.30395136778117 355.5987841945289 455.1975683890578 355.5987841945289 Q 466.09118541033433 355.5987841945289 473.09422492401217 362.60182370820667 Q 480.09726443768994 369.6048632218845 480.09726443768994 380.4984802431611 Q 480.09726443768994 391.39209726443767 473.09422492401217 398.3951367781155 Q 466.09118541033433 405.39817629179333 455.1975683890578 405.39817629179333 Q 444.30395136778117 405.39817629179333 437.30091185410333 398.3951367781155 Q 430.29787234042556 391.39209726443767 430.29787234042556 380.4984802431611 L 430.29787234042556 380.4984802431611 Z M 504.99696048632217 380.4984802431611 Q 504.21884498480244 352.48632218844983 480.09726443768994 337.70212765957444 Q 455.1975683890578 323.69604863221883 430.29787234042556 337.70212765957444 Q 406.17629179331306 352.48632218844983 405.39817629179333 380.4984802431611 Q 406.17629179331306 408.51063829787233 430.29787234042556 423.2948328267477 Q 455.1975683890578 437.30091185410333 480.09726443768994 423.2948328267477 Q 504.21884498480244 408.51063829787233 504.99696048632217 380.4984802431611 L 504.99696048632217 380.4984802431611 Z M 330.69908814589667 231.10030395136778 Q 341.5927051671733 231.10030395136778 348.59574468085106 238.10334346504558 L 348.59574468085106 238.10334346504558 L 348.59574468085106 238.10334346504558 Q 355.5987841945289 245.10638297872342 355.5987841945289 256 Q 355.5987841945289 266.8936170212766 348.59574468085106 273.8966565349544 Q 341.5927051671733 280.8996960486322 330.69908814589667 280.8996960486322 Q 319.80547112462006 280.8996960486322 312.8024316109422 273.8966565349544 Q 305.79939209726444 266.8936170212766 305.79939209726444 256 Q 305.79939209726444 245.10638297872342 312.8024316109422 238.10334346504558 Q 319.80547112462006 231.10030395136778 330.69908814589667 231.10030395136778 L 330.69908814589667 231.10030395136778 Z M 330.69908814589667 305.79939209726444 Q 358.7112462006079 305.02127659574467 373.4954407294833 280.8996960486322 Q 387.5015197568389 256 373.4954407294833 231.10030395136778 Q 358.7112462006079 206.9787234042553 330.69908814589667 206.20060790273556 Q 302.6869300911854 206.9787234042553 287.90273556231006 231.10030395136778 Q 273.8966565349544 256 287.90273556231006 280.8996960486322 Q 302.6869300911854 305.02127659574467 330.69908814589667 305.79939209726444 L 330.69908814589667 305.79939209726444 Z M 305.79939209726444 380.4984802431611 Q 305.79939209726444 369.6048632218845 312.8024316109422 362.60182370820667 L 312.8024316109422 362.60182370820667 L 312.8024316109422 362.60182370820667 Q 319.80547112462006 355.5987841945289 330.69908814589667 355.5987841945289 Q 341.5927051671733 355.5987841945289 348.59574468085106 362.60182370820667 Q 355.5987841945289 369.6048632218845 355.5987841945289 380.4984802431611 Q 355.5987841945289 391.39209726443767 348.59574468085106 398.3951367781155 Q 341.5927051671733 405.39817629179333 330.69908814589667 405.39817629179333 Q 319.80547112462006 405.39817629179333 312.8024316109422 398.3951367781155 Q 305.79939209726444 391.39209726443767 305.79939209726444 380.4984802431611 L 305.79939209726444 380.4984802431611 Z M 380.4984802431611 380.4984802431611 Q 379.72036474164133 352.48632218844983 355.5987841945289 337.70212765957444 Q 330.69908814589667 323.69604863221883 305.79939209726444 337.70212765957444 Q 281.677811550152 352.48632218844983 280.8996960486322 380.4984802431611 Q 281.677811550152 408.51063829787233 305.79939209726444 423.2948328267477 Q 330.69908814589667 437.30091185410333 355.5987841945289 423.2948328267477 Q 379.72036474164133 408.51063829787233 380.4984802431611 380.4984802431611 L 380.4984802431611 380.4984802431611 Z M 193.75075987841944 131.50151975683892 Q 192.9726443768997 119.82978723404256 181.30091185410333 119.05167173252279 Q 169.629179331307 119.82978723404256 168.85106382978722 131.50151975683892 Q 169.629179331307 143.17325227963525 181.30091185410333 143.95136778115503 Q 192.9726443768997 143.17325227963525 193.75075987841944 131.50151975683892 L 193.75075987841944 131.50151975683892 Z M 56.80243161094225 143.95136778115503 Q 68.4741641337386 143.17325227963525 69.25227963525836 131.50151975683892 Q 68.4741641337386 119.82978723404256 56.80243161094225 119.05167173252279 Q 45.130699088145896 119.82978723404256 44.35258358662614 131.50151975683892 Q 45.130699088145896 143.17325227963525 56.80243161094225 143.95136778115503 L 56.80243161094225 143.95136778115503 Z M 69.25227963525836 256 Q 68.4741641337386 244.32826747720364 56.80243161094225 243.5501519756839 Q 45.130699088145896 244.32826747720364 44.35258358662614 256 Q 45.130699088145896 267.67173252279633 56.80243161094225 268.4498480243161 Q 68.4741641337386 267.67173252279633 69.25227963525836 256 L 69.25227963525836 256 Z M 330.69908814589667 143.95136778115503 Q 342.370820668693 143.17325227963525 343.1489361702128 131.50151975683892 Q 342.370820668693 119.82978723404256 330.69908814589667 119.05167173252279 Q 319.0273556231003 119.82978723404256 318.24924012158056 131.50151975683892 Q 319.0273556231003 143.17325227963525 330.69908814589667 143.95136778115503 L 330.69908814589667 143.95136778115503 Z" />
</svg>