<svg xmlns="http://www.w3.org/2000/svg" viewBox="0 0 512 512">
  <path d="M 443.46456692913387 63.29448818897638 Q 406.3748031496063 73.77637795275591 382.1858267716535 103.60944881889763 L 382.1858267716535 103.60944881889763 L 382.1858267716535 103.60944881889763 Q 358.8031496062992 134.2488188976378 357.9968503937008 175.37007874015748 Q 359.60944881889765 224.5543307086614 391.86141732283465 257.61259842519684 Q 424.91968503937005 289.86456692913384 474.10393700787404 291.47716535433074 Q 494.26141732283463 291.47716535433074 512 285.02677165354334 Q 491.84251968503935 310.82834645669294 463.62204724409446 325.3417322834646 Q 434.5952755905512 339.8551181102362 399.9244094488189 339.8551181102362 Q 383.7984251968504 339.8551181102362 368.47874015748033 336.62992125984255 Q 355.5779527559055 319.69763779527557 335.4204724409449 310.0220472440945 Q 333.0015748031496 276.96377952755904 312.844094488189 254.38740157480314 Q 291.8803149606299 231.0047244094488 260.43464566929134 225.36062992125983 Q 258.01574803149606 211.6535433070866 258.01574803149606 197.9464566929134 Q 259.6283464566929 137.4740157480315 299.13700787401575 97.96535433070866 Q 339.451968503937 57.650393700787404 399.9244094488189 56.037795275590554 Q 423.3070866141732 56.037795275590554 443.46456692913387 63.29448818897638 L 443.46456692913387 63.29448818897638 Z M 361.2220472440945 455.96220472440945 L 296.71811023622047 455.96220472440945 L 361.2220472440945 455.96220472440945 L 0 455.96220472440945 L 0 378.5574803149606 L 0 378.5574803149606 Q 0.8062992125984252 348.7244094488189 18.54488188976378 328.56692913385825 Q 36.28346456692913 307.6031496062992 64.50393700787401 301.95905511811026 L 64.50393700787401 301.1527559055118 L 64.50393700787401 301.1527559055118 Q 65.31023622047245 268.09448818897636 87.08031496062992 246.3244094488189 Q 108.85039370078741 224.5543307086614 141.90866141732283 223.748031496063 Q 162.8724409448819 223.748031496063 180.61102362204724 234.2299212598425 Q 197.54330708661416 243.90551181102362 208.0251968503937 260.83779527559057 Q 224.15118110236222 249.5496062992126 245.11496062992126 249.5496062992126 Q 272.5291338582677 250.35590551181102 291.0740157480315 268.09448818897636 Q 308.8125984251968 286.63937007874017 309.61889763779527 314.0535433070866 Q 309.61889763779527 321.31023622047246 308.00629921259844 327.76062992125986 Q 331.38897637795276 332.59842519685037 345.9023622047244 349.53070866141735 Q 360.41574803149604 367.26929133858266 361.2220472440945 391.45826771653543 L 361.2220472440945 455.96220472440945 L 361.2220472440945 455.96220472440945 Z" />
</svg>