<svg xmlns="http://www.w3.org/2000/svg" viewBox="0 0 512 512">
  <path d="M 172.8 136 Q 160.8 128 141.6 128 Q 120 128.8 103.2 143.2 Q 86.4 156.8 73.6 180 Q 61.6 201.6 56 219.2 Q 52.8 227.2 51.2 232 Q 51.2 234.4 50.4 236 L 50.4 236.8 L 50.4 236.8 L 50.4 236.8 L 50.4 236.8 Q 51.2 236.8 47.2 236 Q 43.2 235.2 25.6 230.4 Q 8 226.4 4 224.8 Q 0 224 0.8 224 L 0.8 224 L 0.8 224 L 0.8 224 L 0.8 224 L 0.8 224 L 0.8 224 L 0.8 224 L 0.8 224 Q 0.8 223.2 0.8 223.2 Q 0.8 223.2 0.8 222.4 Q 1.6 221.6 1.6 220.8 Q 1.6 219.2 2.4 217.6 Q 4 212 7.2 202.4 Q 14.4 181.6 29.6 154.4 Q 44 127.2 71.2 103.2 Q 98.4 79.2 140 76.8 Q 175.2 76 200.8 93.6 Q 225.6 110.4 240 136.8 Q 253.6 160.8 263.2 189.6 Q 272.8 218.4 280 247.2 Q 280 247.2 280 247.2 Q 280 248 280.8 248 Q 280.8 248.8 280.8 249.6 Q 295.2 310.4 316 349.6 Q 326.4 368 339.2 376 Q 350.4 384 370.4 384 Q 391.2 383.2 408 368.8 Q 424.8 355.2 438.4 332 Q 450.4 310.4 456 292.8 Q 459.2 284.8 460 280 Q 460.8 277.6 461.6 276 L 461.6 275.2 L 461.6 275.2 L 461.6 275.2 L 461.6 275.2 Q 460.8 275.2 464.8 276 Q 468.8 276.8 486.4 281.6 Q 504 285.6 508 287.2 Q 512 288 511.2 288 L 511.2 288 L 511.2 288 L 511.2 288 L 511.2 288 L 511.2 288 L 511.2 288 L 511.2 288 L 511.2 288 Q 511.2 288.8 511.2 288.8 Q 511.2 288.8 511.2 289.6 Q 510.4 290.4 510.4 291.2 Q 510.4 292 509.6 294.4 Q 508 300 504.8 309.6 Q 497.6 330.4 482.4 357.6 Q 468 384.8 440.8 408.8 Q 413.6 432.8 372 435.2 Q 336.8 436 311.2 418.4 Q 286.4 400.8 272 375.2 Q 258.4 351.2 248.8 322.4 Q 239.2 293.6 232 265.6 Q 232 264.8 232 264.8 Q 232 264 232 263.2 Q 231.2 263.2 231.2 262.4 Q 216.8 201.6 196 162.4 Q 185.6 144 172.8 136 L 172.8 136 Z" />
</svg>