<svg viewBox="0 0 512 448">
  <path
    d="M 352 400 L 160 400 L 160 288 L 160 248 L 352 248 L 352 288 L 352 400 L 352 400 Z M 352 200 L 160 200 L 160 160 L 160 48 L 352 48 L 352 160 L 352 200 L 352 200 Z M 48 48 L 112 48 L 112 136 L 48 136 L 48 48 L 48 48 Z M 48 184 L 112 184 L 112 264 L 48 264 L 48 184 L 48 184 Z M 112 400 L 48 400 L 48 312 L 112 312 L 112 400 L 112 400 Z M 400 136 L 400 48 L 464 48 L 464 136 L 400 136 L 400 136 Z M 400 184 L 464 184 L 464 264 L 400 264 L 400 184 L 400 184 Z M 400 312 L 464 312 L 464 400 L 400 400 L 400 312 L 400 312 Z M 512 0 L 464 0 L 48 0 L 0 0 L 0 48 L 0 400 L 0 448 L 48 448 L 464 448 L 512 448 L 512 400 L 512 48 L 512 0 L 512 0 Z"
  />
</svg>