<svg viewBox="0 0 640 512">
  <path
    d="M 240 0 L 224 0 L 224 32 L 240 32 L 288 32 L 288 192 L 240 192 L 224 192 L 224 224 L 240 224 L 304 224 L 368 224 L 381 224 Q 382 223 383 223 Q 384 222 384 222 L 384 192 L 368 192 L 320 192 L 320 16 L 320 0 L 304 0 L 240 0 L 240 0 Z M 208 288 L 192 288 L 192 304 L 192 496 L 192 512 L 208 512 L 368 512 L 381 512 Q 364 498 350 480 L 224 480 L 224 320 L 318 320 Q 323 303 330 288 L 208 288 L 208 288 Z M 16 288 L 0 288 L 0 320 L 16 320 L 64 320 L 64 480 L 16 480 L 0 480 L 0 512 L 16 512 L 80 512 L 144 512 L 160 512 L 160 480 L 144 480 L 96 480 L 96 304 L 96 288 L 80 288 L 16 288 L 16 288 Z M 0 0 L 0 16 L 0 208 L 0 224 L 16 224 L 176 224 L 192 224 L 192 208 L 192 16 L 192 0 L 176 0 L 16 0 L 0 0 L 0 0 Z M 32 32 L 160 32 L 160 192 L 32 192 L 32 32 L 32 32 Z M 496 256 Q 526 256 552 271 L 552 271 Q 578 286 593 312 Q 608 338 608 368 Q 608 398 593 424 Q 578 450 552 465 Q 526 480 496 480 Q 466 480 440 465 Q 414 450 399 424 Q 384 398 384 368 Q 384 338 399 312 Q 414 286 440 271 Q 466 256 496 256 L 496 256 Z M 496 512 Q 535 512 568 493 L 568 493 Q 601 474 621 440 Q 640 406 640 368 Q 640 330 621 296 Q 601 262 568 243 Q 535 224 496 224 Q 457 224 424 243 Q 391 262 371 296 Q 352 330 352 368 Q 352 406 371 440 Q 391 474 424 493 Q 457 512 496 512 L 496 512 Z M 575 336 L 552 313 L 541 325 L 480 385 L 451 357 L 440 345 L 417 368 L 429 379 L 469 419 L 480 431 L 491 419 L 563 347 L 575 336 L 575 336 Z"
  />
</svg>