<svg xmlns="http://www.w3.org/2000/svg" viewBox="0 0 512 512">
  <path d="M 382.4 329.6 Q 384 318.4 384 307.2 L 384 300.8 L 384 300.8 L 441.6 300.8 L 460.8 300.8 L 460.8 262.4 L 460.8 262.4 L 441.6 262.4 L 384 262.4 L 384 217.6 L 384 217.6 L 384 206.4 L 384 206.4 L 429.6 160.8 L 429.6 160.8 L 443.2 147.2 L 443.2 147.2 L 416 120 L 416 120 L 402.4 133.6 L 402.4 133.6 L 356.8 179.2 L 356.8 179.2 L 345.6 179.2 L 188 179.2 L 38.4 63.2 L 38.4 63.2 L 23.2 51.2 L 23.2 51.2 L 0 81.6 L 0 81.6 L 15.2 93.6 L 15.2 93.6 L 473.6 448.8 L 473.6 448.8 L 488.8 460.8 L 488.8 460.8 L 512 430.4 L 512 430.4 L 496.8 418.4 L 496.8 418.4 L 382.4 329.6 L 382.4 329.6 Z M 237.6 217.6 L 345.6 217.6 L 237.6 217.6 L 345.6 217.6 L 345.6 301.6 L 345.6 301.6 L 237.6 217.6 L 237.6 217.6 Z M 275.2 344.8 L 236.8 314.4 L 275.2 344.8 L 236.8 314.4 L 236.8 394.4 L 236.8 394.4 Q 205.6 387.2 186.4 364 Q 167.2 340 166.4 307.2 L 166.4 259.2 L 166.4 259.2 L 128 228.8 L 128 228.8 L 128 262.4 L 128 262.4 L 70.4 262.4 L 51.2 262.4 L 51.2 300.8 L 51.2 300.8 L 70.4 300.8 L 128 300.8 L 128 307.2 L 128 307.2 Q 128 340 143.2 367.2 L 91.2 419.2 L 91.2 419.2 L 77.6 432.8 L 77.6 432.8 L 104.8 460 L 104.8 460 L 118.4 446.4 L 118.4 446.4 L 166.4 398.4 L 166.4 398.4 Q 202.4 433.6 256 435.2 Q 308.8 433.6 344.8 399.2 L 314.4 375.2 L 314.4 375.2 Q 297.6 389.6 275.2 394.4 L 275.2 344.8 L 275.2 344.8 Z M 179.2 128 L 179.2 153.6 L 179.2 128 L 179.2 153.6 L 332.8 153.6 L 332.8 153.6 L 332.8 128 L 332.8 128 Q 332 95.2 310.4 73.6 Q 288.8 52 256 51.2 Q 223.2 52 201.6 73.6 Q 180 95.2 179.2 128 L 179.2 128 Z" />
</svg>