<svg viewBox="0 0 512 448">
  <path
    d="M 0 160 Q 1 133 19 115 L 19 115 Q 37 97 64 96 Q 64 96 65 96 Q 65 96 66 96 Q 72 68 93 50 Q 114 33 144 32 Q 167 32 185 43 Q 195 24 214 12 Q 233 0 256 0 Q 279 0 298 12 Q 317 24 327 43 Q 345 32 368 32 Q 398 33 419 50 Q 440 68 446 96 Q 447 96 447 96 Q 448 96 448 96 Q 475 97 493 115 Q 511 133 512 160 Q 512 178 503 192 L 9 192 Q 0 178 0 160 L 0 160 Z M 144 400 L 144 400 L 368 400 L 368 400 L 368 370 L 395 357 Q 448 330 462 272 L 50 272 Q 64 330 117 357 L 144 370 L 144 400 L 144 400 Z M 96 400 Q 58 382 33 348 L 33 348 Q 8 315 2 272 Q 0 260 0 248 L 0 224 L 48 224 L 464 224 L 512 224 L 512 248 Q 512 260 510 272 Q 504 315 479 348 Q 454 382 416 400 L 416 400 L 416 448 L 368 448 L 144 448 L 96 448 L 96 400 L 96 400 L 96 400 Z"
  />
</svg>