<svg xmlns="http://www.w3.org/2000/svg" viewBox="0 0 512 512">
  <path d="M 483.55554 241.77777 L 472 241.77777 L 483.55554 241.77777 L 472 241.77777 Q 448.8889 172.44444 391.1111 129.77777 Q 332.44446 86.22222 256 85.333336 Q 179.55556 86.22222 120.888885 129.77777 Q 63.11111 172.44444 40 241.77777 L 28.444445 241.77777 L 0 241.77777 L 0 298.66666 L 0 298.66666 L 28.444445 298.66666 L 36.444443 298.66666 L 93.333336 272 L 93.333336 272 L 98.666664 269.33334 L 98.666664 269.33334 L 104 271.1111 L 104 271.1111 L 177.77777 297.77777 L 177.77777 297.77777 L 251.55556 271.1111 L 251.55556 271.1111 L 256 269.33334 L 256 269.33334 L 261.33334 271.1111 L 261.33334 271.1111 L 334.22223 297.77777 L 334.22223 297.77777 L 408 271.1111 L 408 271.1111 L 413.33334 269.33334 L 413.33334 269.33334 L 418.66666 272 L 418.66666 272 L 475.55554 298.66666 L 475.55554 298.66666 L 483.55554 298.66666 L 512 298.66666 L 512 241.77777 L 512 241.77777 L 483.55554 241.77777 L 483.55554 241.77777 Z M 85.333336 426.66666 L 426.66666 426.66666 L 85.333336 426.66666 L 426.66666 426.66666 L 461.33334 323.55554 L 461.33334 323.55554 L 422.22223 304.8889 L 422.22223 304.8889 L 395.55554 384 L 395.55554 384 L 116.44444 384 L 116.44444 384 L 89.77778 304.8889 L 89.77778 304.8889 L 50.666668 323.55554 L 50.666668 323.55554 L 85.333336 426.66666 L 85.333336 426.66666 Z M 183.11111 162.66667 L 168.88889 191.11111 L 183.11111 162.66667 L 168.88889 191.11111 L 162.66667 204.44444 L 162.66667 204.44444 L 137.77777 191.11111 L 137.77777 191.11111 L 144 178.66667 L 144 178.66667 L 158.22223 150.22223 L 158.22223 150.22223 L 164.44444 137.77777 L 164.44444 137.77777 L 190.22223 150.22223 L 190.22223 150.22223 L 183.11111 162.66667 L 183.11111 162.66667 Z M 353.77777 150.22223 L 368 178.66667 L 353.77777 150.22223 L 368 178.66667 L 375.1111 191.11111 L 375.1111 191.11111 L 349.33334 204.44444 L 349.33334 204.44444 L 343.1111 191.11111 L 343.1111 191.11111 L 328.8889 162.66667 L 328.8889 162.66667 L 321.77777 150.22223 L 321.77777 150.22223 L 347.55554 137.77777 L 347.55554 137.77777 L 353.77777 150.22223 L 353.77777 150.22223 Z M 270.22223 156.44444 L 270.22223 184.88889 L 270.22223 156.44444 L 270.22223 184.88889 L 270.22223 199.11111 L 270.22223 199.11111 L 241.77777 199.11111 L 241.77777 199.11111 L 241.77777 184.88889 L 241.77777 184.88889 L 241.77777 156.44444 L 241.77777 156.44444 L 241.77777 142.22223 L 241.77777 142.22223 L 270.22223 142.22223 L 270.22223 142.22223 L 270.22223 156.44444 L 270.22223 156.44444 Z" />
</svg>