<svg xmlns="http://www.w3.org/2000/svg" viewBox="0 0 512 512">
  <path d="M 279.78582677165355 49.58740157480315 L 292.68661417322835 49.58740157480315 L 279.78582677165355 49.58740157480315 L 512 49.58740157480315 L 512 75.38897637795276 L 512 75.38897637795276 L 499.0992125984252 75.38897637795276 L 305.58740157480315 75.38897637795276 L 305.58740157480315 355.1748031496063 L 305.58740157480315 355.1748031496063 L 334.61417322834643 347.11181102362207 L 334.61417322834643 347.11181102362207 L 334.61417322834643 347.11181102362207 L 334.61417322834643 347.11181102362207 Q 343.4834645669291 318.08503937007873 366.86614173228344 300.34645669291336 Q 390.2488188976378 282.60787401574805 421.6944881889764 281.8015748031496 Q 460.3968503937008 282.60787401574805 485.39212598425195 308.40944881889766 Q 511.19370078740155 333.4047244094488 512 372.1070866141732 Q 511.19370078740155 410.80944881889764 485.39212598425195 435.8047244094488 Q 460.3968503937008 461.6062992125984 421.6944881889764 462.41259842519685 Q 383.7984251968504 461.6062992125984 358.8031496062992 436.61102362204724 Q 333.80787401574804 412.4220472440945 331.38897637795276 374.5259842519685 L 18.54488188976378 455.96220472440945 L 18.54488188976378 455.96220472440945 L 6.4503937007874015 459.1874015748032 L 6.4503937007874015 459.1874015748032 L 0 434.19212598425196 L 0 434.19212598425196 L 12.094488188976378 430.9669291338583 L 12.094488188976378 430.9669291338583 L 279.78582677165355 361.6251968503937 L 279.78582677165355 361.6251968503937 L 279.78582677165355 359.2062992125984 L 279.78582677165355 359.2062992125984 L 279.78582677165355 62.488188976377955 L 279.78582677165355 62.488188976377955 L 279.78582677165355 49.58740157480315 L 279.78582677165355 49.58740157480315 Z M 486.1984251968504 372.1070866141732 Q 485.39212598425195 335.8236220472441 453.9464566929134 316.4724409448819 Q 421.6944881889764 298.7338582677165 389.4425196850394 316.4724409448819 Q 357.9968503937008 335.8236220472441 357.19055118110236 372.1070866141732 Q 357.9968503937008 408.39055118110235 389.4425196850394 427.74173228346456 Q 421.6944881889764 445.4803149606299 453.9464566929134 427.74173228346456 Q 485.39212598425195 408.39055118110235 486.1984251968504 372.1070866141732 L 486.1984251968504 372.1070866141732 Z M 178.19212598425196 152.79370078740158 Q 200.76850393700786 147.1496062992126 220.92598425196852 155.21259842519686 L 220.92598425196852 155.21259842519686 L 220.92598425196852 155.21259842519686 Q 241.08346456692914 162.46929133858268 253.98425196850394 180.20787401574802 L 253.98425196850394 240.68031496062991 L 253.98425196850394 240.68031496062991 Q 249.95275590551182 240.68031496062991 246.72755905511812 241.48661417322833 Q 232.21417322834645 246.3244094488189 232.21417322834645 260.83779527559057 L 233.02047244094487 281.8015748031496 L 233.02047244094487 281.8015748031496 L 212.86299212598425 287.44566929133856 L 212.86299212598425 287.44566929133856 L 99.1748031496063 318.08503937007873 L 99.1748031496063 318.08503937007873 L 79.01732283464567 323.72913385826774 L 79.01732283464567 323.72913385826774 L 69.34173228346457 305.18425196850393 L 69.34173228346457 305.18425196850393 Q 62.08503937007874 292.2834645669291 46.76535433070866 294.7023622047244 Q 30.639370078740157 301.1527559055118 33.05826771653543 318.8913385826772 L 45.959055118110236 365.6566929133858 L 45.959055118110236 365.6566929133858 L 71.76062992125985 358.4 L 71.76062992125985 358.4 L 96.75590551181102 351.9496062992126 L 96.75590551181102 351.9496062992126 L 96.75590551181102 351.9496062992126 L 96.75590551181102 351.9496062992126 L 220.11968503937007 318.8913385826772 L 220.11968503937007 318.8913385826772 L 245.11496062992126 312.4409448818898 L 245.11496062992126 312.4409448818898 L 245.11496062992126 312.4409448818898 L 245.11496062992126 312.4409448818898 L 253.98425196850394 310.0220472440945 L 253.98425196850394 310.0220472440945 L 253.98425196850394 336.62992125984255 L 253.98425196850394 336.62992125984255 L 251.56535433070866 337.43622047244094 L 251.56535433070866 337.43622047244094 L 227.37637795275592 343.88661417322834 L 227.37637795275592 343.88661417322834 L 227.37637795275592 343.88661417322834 L 227.37637795275592 343.88661417322834 L 202.38110236220473 350.33700787401574 L 202.38110236220473 350.33700787401574 L 104.01259842519686 376.9448818897638 L 104.01259842519686 376.9448818897638 L 79.01732283464567 383.3952755905512 L 79.01732283464567 383.3952755905512 L 79.01732283464567 383.3952755905512 L 79.01732283464567 383.3952755905512 L 54.02204724409449 389.8456692913386 L 54.02204724409449 389.8456692913386 L 52.40944881889764 389.8456692913386 L 52.40944881889764 389.8456692913386 L 27.414173228346456 397.1023622047244 L 27.414173228346456 397.1023622047244 L 20.963779527559055 372.1070866141732 L 20.963779527559055 372.1070866141732 L 8.062992125984252 325.3417322834646 L 8.062992125984252 325.3417322834646 Q 4.031496062992126 306.79685039370077 12.900787401574803 291.47716535433074 L 7.256692913385827 272.12598425196853 L 7.256692913385827 272.12598425196853 Q 0 243.0992125984252 14.513385826771653 218.103937007874 Q 29.026771653543307 193.91496062992127 58.05354330708661 185.04566929133858 L 178.19212598425196 152.79370078740158 L 178.19212598425196 152.79370078740158 Z M 184.64251968503936 177.78897637795276 L 64.50393700787401 210.04094488188977 L 184.64251968503936 177.78897637795276 L 64.50393700787401 210.04094488188977 Q 45.959055118110236 215.68503937007873 37.08976377952756 231.0047244094488 Q 28.22047244094488 247.13070866141732 32.25196850393701 265.67559055118113 L 33.86456692913386 272.12598425196853 L 33.86456692913386 272.12598425196853 Q 37.08976377952756 270.51338582677164 40.31496062992126 269.70708661417325 Q 56.44094488188976 265.67559055118113 70.95433070866142 272.12598425196853 Q 84.66141732283465 278.57637795275593 91.91811023622047 293.0897637795276 L 206.41259842519685 262.4503937007874 L 206.41259842519685 262.4503937007874 Q 205.60629921259843 246.3244094488189 214.4755905511811 234.2299212598425 Q 223.34488188976377 221.3291338582677 239.47086614173227 216.49133858267717 Q 240.27716535433072 216.49133858267717 241.08346456692914 216.49133858267717 Q 241.08346456692914 216.49133858267717 241.88976377952756 216.49133858267717 L 239.47086614173227 210.04094488188977 L 239.47086614173227 210.04094488188977 Q 234.63307086614174 191.49606299212599 218.50708661417323 182.6267716535433 Q 203.18740157480315 173.75748031496062 184.64251968503936 177.78897637795276 L 184.64251968503936 177.78897637795276 Z" />
</svg>