<svg viewBox="0 0 576 448">
  <path
    d="M 32 32 L 32 416 L 544 416 L 544 32 L 32 32 L 32 32 Z M 0 0 L 32 0 L 544 0 L 576 0 L 576 32 L 576 416 L 576 448 L 544 448 L 32 448 L 0 448 L 0 416 L 0 32 L 0 0 L 0 0 Z M 336 248 Q 337 271 356 283 Q 376 293 396 283 Q 415 271 416 248 Q 415 225 396 213 Q 376 203 356 213 Q 337 225 336 248 L 336 248 Z M 376 176 Q 399 176 416 188 L 416 144 L 416 128 L 448 128 L 448 144 L 448 248 L 448 304 L 448 320 L 416 320 L 416 308 Q 399 320 376 320 Q 345 319 325 299 Q 305 279 304 248 Q 305 217 325 197 Q 345 177 376 176 L 376 176 Z M 187 128 L 197 128 L 203 128 L 214 128 L 218 138 L 296 320 L 262 320 L 248 288 L 153 289 L 152 289 L 139 320 L 104 320 L 182 138 L 187 128 L 187 128 Z M 166 256 L 234 256 L 200 178 L 166 256 L 166 256 Z"
  />
</svg>