<svg xmlns="http://www.w3.org/2000/svg" viewBox="0 0 640 512">
    <path d="M 64 0 Q 37 1 19 19 L 19 19 Q 1 37 0 64 L 0 448 L 0 448 Q 1 475 19 493 Q 37 511 64 512 L 395 512 Q 375 498 360 480 L 64 480 Q 50 480 41 471 Q 32 462 32 448 Q 32 434 41 425 Q 50 416 64 416 L 327 416 Q 322 401 321 384 L 64 384 Q 46 384 32 393 L 32 64 Q 32 50 41 41 Q 50 32 64 32 L 416 32 L 416 211 Q 431 203 448 199 L 448 16 L 448 0 L 432 0 L 64 0 L 64 0 Z M 384 368 Q 384 338 399 312 L 399 312 Q 414 286 440 271 Q 466 256 496 256 Q 526 256 552 271 Q 578 286 593 312 Q 608 338 608 368 Q 608 398 593 424 Q 578 450 552 465 Q 526 480 496 480 Q 466 480 440 465 Q 414 450 399 424 Q 384 398 384 368 L 384 368 Z M 640 368 Q 640 329 621 296 L 621 296 Q 602 263 568 243 Q 534 224 496 224 Q 458 224 424 243 Q 390 263 371 296 Q 352 329 352 368 Q 352 407 371 440 Q 390 473 424 493 Q 458 512 496 512 Q 534 512 568 493 Q 602 473 621 440 Q 640 407 640 368 L 640 368 Z M 417 360 L 440 383 L 451 371 L 451 371 L 452 371 L 452 371 L 452 371 L 452 371 L 452 371 L 452 371 L 452 370 L 452 370 L 452 370 L 452 370 L 453 370 L 453 370 L 453 370 L 453 370 L 453 370 L 453 370 L 453 369 L 453 369 L 453 369 L 453 369 L 454 369 L 454 369 L 454 369 L 454 369 L 454 369 L 454 369 L 454 368 L 454 368 L 454 368 L 454 368 L 455 368 L 455 368 L 455 368 L 455 368 L 455 368 L 455 368 L 455 367 L 455 367 L 455 367 L 455 367 L 456 367 L 456 367 L 456 367 L 456 367 L 456 367 L 456 367 L 456 366 L 456 366 L 456 366 L 456 366 L 457 366 L 457 366 L 457 366 L 457 366 L 457 366 L 457 366 L 457 365 L 457 365 L 457 365 L 457 365 L 458 365 L 458 365 L 458 365 L 458 365 L 458 365 L 458 365 L 458 364 L 458 364 L 458 364 L 458 364 L 459 364 L 459 364 L 459 364 L 459 364 L 459 364 L 459 364 L 459 363 L 459 363 L 459 363 L 459 363 L 460 363 L 460 363 L 460 363 L 460 363 L 460 363 L 460 363 L 460 362 L 460 362 L 460 362 L 460 362 L 461 362 L 461 362 L 461 362 L 461 362 L 461 362 L 461 362 L 461 361 L 461 361 L 461 361 L 461 361 L 462 361 L 462 361 L 462 361 L 462 361 L 462 361 L 462 361 L 462 360 L 462 360 L 462 360 L 462 360 L 463 360 L 463 360 L 463 360 L 463 360 L 463 360 L 463 360 L 463 359 L 463 359 L 463 359 L 463 359 L 464 359 L 464 359 L 464 359 L 464 359 L 464 359 L 464 359 L 464 358 L 464 358 L 464 358 L 464 358 L 465 358 L 465 358 L 465 358 L 465 358 L 465 358 L 465 358 L 465 357 L 465 357 L 465 357 L 465 357 L 466 357 L 466 357 L 466 357 L 466 357 L 466 357 L 466 357 L 466 356 L 466 356 L 466 356 L 466 356 L 467 356 L 467 356 L 467 356 L 467 356 L 467 356 L 467 356 L 467 355 L 467 355 L 467 355 L 467 355 L 468 355 L 468 355 L 468 355 L 468 355 L 468 355 L 468 355 L 468 354 L 468 354 L 468 354 L 468 354 L 469 354 L 469 354 L 469 354 L 469 354 L 469 354 L 469 354 L 469 353 L 469 353 L 469 353 L 469 353 L 470 353 L 470 353 L 470 353 L 470 353 L 470 353 L 470 353 L 470 352 L 470 352 L 470 352 L 470 352 L 471 352 L 471 352 L 471 352 L 471 352 L 471 352 L 471 352 L 471 351 L 471 351 L 471 351 L 471 351 L 472 351 L 472 432 L 472 448 L 504 448 L 504 432 L 504 343 L 532 371 L 552 383 L 575 360 L 563 349 L 507 293 L 496 281 L 485 293 L 496 304 L 485 293 L 485 293 L 485 293 L 485 293 L 485 293 L 485 293 L 485 293 L 485 293 L 485 293 L 485 293 L 485 293 L 485 293 L 485 293 L 485 293 L 485 293 L 485 293 L 485 293 L 485 293 L 485 293 L 485 293 L 485 293 L 485 293 L 485 293 L 485 293 L 485 293 L 485 293 L 485 293 L 485 293 L 485 293 L 485 293 L 485 293 L 485 293 L 485 293 L 485 293 L 485 293 L 485 293 L 485 293 L 485 293 L 485 293 L 485 293 L 485 293 L 485 293 L 485 293 L 485 293 L 485 293 L 485 293 L 485 293 L 485 293 L 485 293 L 485 293 L 485 293 L 485 293 L 485 293 L 485 293 L 485 293 L 485 293 L 485 293 L 485 293 L 485 293 L 485 293 L 485 293 L 485 293 L 485 293 L 485 293 L 485 293 L 485 293 L 485 293 L 485 293 L 485 293 L 485 293 L 485 293 L 485 293 L 484 293 L 484 293 L 484 293 L 484 293 L 484 293 L 484 293 L 484 294 L 484 294 L 484 294 L 483 294 L 483 294 L 483 294 L 483 294 L 483 294 L 483 294 L 483 294 L 483 295 L 483 295 L 483 295 L 482 295 L 482 295 L 482 295 L 482 295 L 482 295 L 482 295 L 482 295 L 482 296 L 482 296 L 482 296 L 481 296 L 481 296 L 481 296 L 481 296 L 481 296 L 481 296 L 481 296 L 481 297 L 481 297 L 481 297 L 480 297 L 480 297 L 480 297 L 480 297 L 480 297 L 480 297 L 480 297 L 480 298 L 480 298 L 480 298 L 479 298 L 479 298 L 479 298 L 479 298 L 479 298 L 479 298 L 479 298 L 479 299 L 479 299 L 479 299 L 478 299 L 478 299 L 478 299 L 478 299 L 478 299 L 478 299 L 478 299 L 478 300 L 478 300 L 478 300 L 477 300 L 477 300 L 477 300 L 477 300 L 477 300 L 477 300 L 477 300 L 477 301 L 477 301 L 477 301 L 476 301 L 476 301 L 476 301 L 476 301 L 476 301 L 476 301 L 476 301 L 476 302 L 476 302 L 476 302 L 475 302 L 475 302 L 475 302 L 475 302 L 475 302 L 475 302 L 475 302 L 475 303 L 475 303 L 475 303 L 474 303 L 474 303 L 474 303 L 474 303 L 474 303 L 474 303 L 474 303 L 474 304 L 474 304 L 474 304 L 473 304 L 473 304 L 473 304 L 473 304 L 473 304 L 473 304 L 473 304 L 473 305 L 473 305 L 473 305 L 472 305 L 472 305 L 472 305 L 472 305 L 472 305 L 472 305 L 472 305 L 472 306 L 472 306 L 472 306 L 471 306 L 471 306 L 471 306 L 471 306 L 471 306 L 471 306 L 471 306 L 471 307 L 471 307 L 471 307 L 470 307 L 470 307 L 470 307 L 470 307 L 470 307 L 470 307 L 470 307 L 470 308 L 470 308 L 470 308 L 469 308 L 469 308 L 469 308 L 469 308 L 469 308 L 469 308 L 469 308 L 469 309 L 469 309 L 469 309 L 468 309 L 468 309 L 468 309 L 468 309 L 468 309 L 468 309 L 468 309 L 468 310 L 468 310 L 468 310 L 467 310 L 467 310 L 467 310 L 467 310 L 467 310 L 467 310 L 467 310 L 467 311 L 467 311 L 467 311 L 466 311 L 466 311 L 466 311 L 466 311 L 466 311 L 466 311 L 466 311 L 466 312 L 466 312 L 466 312 L 465 312 L 465 312 L 465 312 L 465 312 L 465 312 L 465 312 L 465 312 L 465 313 L 465 313 L 465 313 L 464 313 L 464 313 L 464 313 L 464 313 L 464 313 L 464 313 L 464 313 L 464 314 L 464 314 L 464 314 L 463 314 L 463 314 L 463 314 L 463 314 L 463 314 L 463 314 L 463 314 L 463 315 L 463 315 L 463 315 L 462 315 L 462 315 L 462 315 L 462 315 L 462 315 L 462 315 L 462 315 L 462 316 L 462 316 L 462 316 L 461 316 L 461 316 L 461 316 L 461 316 L 461 316 L 461 316 L 461 316 L 461 317 L 461 317 L 461 317 L 460 317 L 460 317 L 460 317 L 460 317 L 460 317 L 460 317 L 460 317 L 460 318 L 460 318 L 460 318 L 459 318 L 459 318 L 459 318 L 459 318 L 459 318 L 459 318 L 459 318 L 459 319 L 459 319 L 459 319 L 458 319 L 458 319 L 458 319 L 458 319 L 458 319 L 458 319 L 458 319 L 458 320 L 458 320 L 458 320 L 457 320 L 457 320 L 457 320 L 457 320 L 457 320 L 457 320 L 457 320 L 457 321 L 457 321 L 457 321 L 456 321 L 456 321 L 456 321 L 456 321 L 456 321 L 456 321 L 456 321 L 456 322 L 456 322 L 456 322 L 455 322 L 455 322 L 455 322 L 455 322 L 455 322 L 455 322 L 455 322 L 455 323 L 455 323 L 455 323 L 454 323 L 454 323 L 454 323 L 454 323 L 454 323 L 454 323 L 454 323 L 454 324 L 454 324 L 454 324 L 453 324 L 453 324 L 453 324 L 453 324 L 453 324 L 453 324 L 453 324 L 453 325 L 453 325 L 453 325 L 452 325 L 452 325 L 452 325 L 452 325 L 452 325 L 452 325 L 452 325 L 452 326 L 452 326 L 452 326 L 451 326 L 451 326 L 451 326 L 451 326 L 451 326 L 451 326 L 451 326 L 451 327 L 451 327 L 451 327 L 450 327 L 450 327 L 450 327 L 450 327 L 450 327 L 450 327 L 450 327 L 450 328 L 450 328 L 450 328 L 449 328 L 449 328 L 449 328 L 449 328 L 449 328 L 449 328 L 449 328 L 449 329 L 449 329 L 449 329 L 448 329 L 448 329 L 448 329 L 448 329 L 448 329 L 448 329 L 448 329 L 448 330 L 448 330 L 448 330 L 447 330 L 447 330 L 447 330 L 447 330 L 447 330 L 447 330 L 447 330 L 447 331 L 447 331 L 447 331 L 446 331 L 446 331 L 446 331 L 446 331 L 446 331 L 446 331 L 446 331 L 446 332 L 446 332 L 446 332 L 445 332 L 445 332 L 445 332 L 445 332 L 445 332 L 445 332 L 445 332 L 445 333 L 445 333 L 445 333 L 444 333 L 444 333 L 444 333 L 444 333 L 444 333 L 444 333 L 444 333 L 444 334 L 444 334 L 444 334 L 443 334 L 443 334 L 443 334 L 443 334 L 443 334 L 443 334 L 443 334 L 443 335 L 443 335 L 443 335 L 442 335 L 442 335 L 442 335 L 442 335 L 442 335 L 442 335 L 442 335 L 442 336 L 442 336 L 442 336 L 441 336 L 441 336 L 441 336 L 441 336 L 441 336 L 441 336 L 441 336 L 441 337 L 441 337 L 441 337 L 440 337 L 417 360 L 417 360 Z"/>
</svg>
