<svg viewBox="0 0 640 512">
  <path
    d="M 384 0 L 400 0 L 496 0 L 512 0 L 512 32 L 496 32 L 400 32 L 384 32 L 384 0 L 384 0 Z M 352 192 L 320 192 L 320 192 L 320 192 L 320 164 L 248 128 L 136 128 L 64 164 L 64 192 L 32 192 L 32 144 L 128 96 L 256 96 L 320 128 L 352 144 L 352 144 L 352 190 L 352 190 L 352 192 L 352 192 Z M 576 192 L 575 192 L 543 192 Q 543 189 544 186 L 544 115 L 504 96 L 391 96 L 358 111 L 322 93 L 384 64 L 511 64 L 576 94 L 576 160 L 576 192 L 576 192 L 576 192 Z M 608 256 L 606 256 L 576 512 L 64 512 L 34 256 L 32 256 L 0 256 L 0 224 L 32 224 L 34 224 L 48 224 L 62 224 L 578 224 L 592 224 L 606 224 L 608 224 L 640 224 L 640 256 L 608 256 L 608 256 Z M 574 256 L 66 256 L 93 480 L 548 480 L 574 256 L 574 256 Z M 295 288 L 304 288 L 336 288 L 345 288 L 349 295 L 376 335 L 349 352 L 327 320 L 313 320 L 292 351 L 265 334 L 291 295 L 296 288 L 295 288 Z M 366 379 L 393 362 L 412 391 L 415 395 L 415 400 L 415 432 L 415 448 L 399 448 L 338 448 L 338 416 L 383 416 L 383 405 L 366 379 L 366 379 Z M 306 416 L 306 448 L 240 448 L 224 448 L 224 432 L 224 400 L 224 395 L 227 391 L 247 360 L 274 377 L 256 405 L 256 416 L 306 416 L 306 416 Z M 144 0 L 240 0 L 256 0 L 256 16 L 256 32 L 272 32 L 272 64 L 256 64 L 240 64 L 224 64 L 224 48 L 224 32 L 160 32 L 160 48 L 160 64 L 144 64 L 128 64 L 112 64 L 112 32 L 128 32 L 128 16 L 128 0 L 144 0 L 144 0 Z"
  />
</svg>