<svg xmlns="http://www.w3.org/2000/svg" viewBox="0 0 581 518">
    <path d="M 143 0 L 127 0 L 127 32 L 143 32 L 264 32 L 12 285 L 0 296 L 23 319 L 34 307 L 287 55 L 287 176 L 287 192 L 319 192 L 319 176 L 319 16 L 319 0 L 303 0 L 143 0 L 143 0 Z M 527 64 Q 542 65 543 80 Q 542 95 527 96 Q 512 95 511 80 Q 512 65 527 64 L 527 64 Z M 527 128 Q 554 127 569 104 Q 581 80 569 56 Q 554 33 527 32 Q 500 33 485 56 Q 473 80 485 104 Q 500 127 527 128 L 527 128 Z M 399 192 Q 414 193 415 208 Q 414 223 399 224 Q 384 223 383 208 Q 384 193 399 192 L 399 192 Z M 399 256 Q 426 255 441 232 Q 453 208 441 184 Q 426 161 399 160 Q 372 161 357 184 Q 345 208 357 232 Q 372 255 399 256 L 399 256 Z M 383 336 Q 384 321 399 320 Q 414 321 415 336 Q 414 351 399 352 Q 384 351 383 336 L 383 336 Z M 447 336 Q 446 309 423 294 Q 399 282 375 294 Q 352 309 351 336 Q 352 363 375 378 Q 399 390 423 378 Q 446 363 447 336 L 447 336 Z M 399 448 Q 414 449 415 464 Q 414 479 399 480 Q 384 479 383 464 Q 384 449 399 448 L 399 448 Z M 399 512 Q 426 511 441 488 Q 453 464 441 440 Q 426 417 399 416 Q 372 417 357 440 Q 345 464 357 488 Q 372 511 399 512 L 399 512 Z M 527 448 Q 542 449 543 464 Q 542 479 527 480 Q 512 479 511 464 Q 512 449 527 448 L 527 448 Z M 527 512 Q 554 511 569 488 Q 581 464 569 440 Q 554 417 527 416 Q 500 417 485 440 Q 473 464 485 488 Q 500 511 527 512 L 527 512 Z M 255 336 Q 256 321 271 320 Q 286 321 287 336 Q 286 351 271 352 Q 256 351 255 336 L 255 336 Z M 319 336 Q 318 309 295 294 Q 271 282 247 294 Q 224 309 223 336 Q 224 363 247 378 Q 271 390 295 378 Q 318 363 319 336 L 319 336 Z M 271 448 Q 286 449 287 464 Q 286 479 271 480 Q 256 479 255 464 Q 256 449 271 448 L 271 448 Z M 271 512 Q 298 511 313 488 Q 325 464 313 440 Q 298 417 271 416 Q 244 417 229 440 Q 217 464 229 488 Q 244 511 271 512 L 271 512 Z M 127 464 Q 128 449 143 448 Q 158 449 159 464 Q 158 479 143 480 Q 128 479 127 464 L 127 464 Z M 191 464 Q 190 437 167 422 Q 143 410 119 422 Q 96 437 95 464 Q 96 491 119 506 Q 143 518 167 506 Q 190 491 191 464 L 191 464 Z M 527 320 Q 542 321 543 336 Q 542 351 527 352 Q 512 351 511 336 Q 512 321 527 320 L 527 320 Z M 527 384 Q 554 383 569 360 Q 581 336 569 312 Q 554 289 527 288 Q 500 289 485 312 Q 473 336 485 360 Q 500 383 527 384 L 527 384 Z M 511 208 Q 512 193 527 192 Q 542 193 543 208 Q 542 223 527 224 Q 512 223 511 208 L 511 208 Z M 575 208 Q 574 181 551 166 Q 527 154 503 166 Q 480 181 479 208 Q 480 235 503 250 Q 527 262 551 250 Q 574 235 575 208 L 575 208 Z"/>
</svg>
