<svg viewBox="0 0 576 512">
  <path
    d="M 96 0 L 320 0 L 320 160 L 480 160 L 480 256 L 96 256 L 96 0 L 96 0 Z M 96 368 L 480 368 L 480 512 L 96 512 L 96 368 L 96 368 Z M 480 128 L 352 128 L 352 0 L 480 128 L 480 128 Z M 24 288 L 136 288 L 160 288 L 160 336 L 136 336 L 24 336 L 0 336 L 0 288 L 24 288 L 24 288 Z M 248 288 L 328 288 L 352 288 L 352 336 L 328 336 L 248 336 L 224 336 L 224 288 L 248 288 L 248 288 Z M 440 288 L 552 288 L 576 288 L 576 336 L 552 336 L 440 336 L 416 336 L 416 288 L 440 288 L 440 288 Z"
  />
</svg>