<svg viewBox="0 0 502 512">
  <path
    d="M 192 16 L 192 64 L 384 64 L 384 0 L 192 16 L 192 16 Z M 240 354 L 240 272 L 314 272 L 240 354 L 240 354 Z M 192 272 L 192 464 L 192 512 L 240 512 L 336 512 L 384 512 L 384 464 L 384 324 L 448 436 L 460 457 L 502 433 L 490 412 L 389 236 L 384 228 L 384 224 L 382 224 L 368 224 L 336 224 L 240 224 L 192 224 L 192 224 L 24 224 L 0 224 L 0 272 L 24 272 L 192 272 L 192 272 L 192 272 Z M 336 319 L 336 384 L 278 384 L 336 319 L 336 319 Z M 240 432 L 336 432 L 336 464 L 240 464 L 240 432 L 240 432 Z M 210 96 Q 208 104 208 112 Q 209 146 231 169 Q 254 191 288 192 Q 322 191 345 169 Q 367 146 368 112 Q 368 104 366 96 L 316 96 Q 320 103 320 112 Q 320 126 311 135 Q 302 144 288 144 Q 274 144 265 135 Q 256 126 256 112 Q 256 103 260 96 L 210 96 L 210 96 Z"
  />
</svg>