<svg xmlns="http://www.w3.org/2000/svg" viewBox="0 0 512 512">
  <path d="M 256 512 Q 326 511 384 478 L 384 478 L 384 478 Q 442 444 478 384 Q 512 323 512 256 Q 512 189 478 128 Q 442 68 384 34 Q 326 1 256 0 Q 186 1 128 34 Q 70 68 34 128 Q 0 189 0 256 Q 0 323 34 384 Q 70 444 128 478 Q 186 511 256 512 L 256 512 Z M 168 128 L 192 128 L 168 128 L 312 128 L 312 152 L 312 152 L 312 188 L 312 188 Q 311 220 286 239 L 268 252 L 268 252 L 296 282 L 296 282 L 324 242 L 324 242 L 338 223 L 338 223 L 377 250 L 377 250 L 364 270 L 364 270 L 330 318 L 330 318 L 391 381 L 391 381 Q 392 383 393 384 Q 393 384 393 384 L 327 384 L 327 384 L 303 358 L 303 358 L 292 374 L 292 374 L 285 384 L 285 384 L 272 384 L 144 384 L 144 360 L 144 360 L 144 320 L 144 320 Q 145 284 173 262 L 195 246 L 195 246 L 188 238 L 188 238 Q 168 217 168 189 L 168 152 L 168 152 L 168 128 L 168 128 Z M 234 218 L 258 201 L 234 218 L 258 201 Q 264 196 264 188 L 264 176 L 264 176 L 216 176 L 216 176 L 216 189 L 216 189 Q 216 198 223 205 L 234 218 L 234 218 Z M 229 281 L 202 301 L 229 281 L 202 301 Q 192 308 192 320 L 192 336 L 192 336 L 259 336 L 259 336 L 269 323 L 269 323 L 229 281 L 229 281 Z" />
</svg>