<svg xmlns="http://www.w3.org/2000/svg" viewBox="0 0 512 512">
  <path d="M 115.2 339.2 L 76.8 358.4 L 115.2 339.2 L 76.8 358.4 L 76.8 345.6 L 76.8 345.6 L 76.8 315.2 L 76.8 315.2 L 76.8 307.2 L 76.8 307.2 L 38.4 307.2 L 0 307.2 L 0 268.8 L 0 268.8 L 0 89.6 L 0 89.6 L 0 51.2 L 0 51.2 L 38.4 51.2 L 332.8 51.2 L 332.8 89.6 L 332.8 89.6 L 332.8 268.8 L 332.8 268.8 L 332.8 307.2 L 332.8 307.2 L 294.4 307.2 L 179.2 307.2 L 115.2 339.2 L 115.2 339.2 Z M 115.2 296 L 162.4 272.8 L 115.2 296 L 162.4 272.8 L 170.4 268.8 L 170.4 268.8 L 179.2 268.8 L 294.4 268.8 L 294.4 89.6 L 294.4 89.6 L 38.4 89.6 L 38.4 89.6 L 38.4 268.8 L 38.4 268.8 L 76.8 268.8 L 115.2 268.8 L 115.2 296 L 115.2 296 Z M 204.8 332.8 L 243.2 332.8 L 204.8 332.8 L 243.2 332.8 L 243.2 371.2 L 243.2 371.2 L 332.8 371.2 L 341.6 371.2 L 349.6 375.2 L 349.6 375.2 L 396.8 398.4 L 396.8 398.4 L 396.8 371.2 L 396.8 371.2 L 435.2 371.2 L 473.6 371.2 L 473.6 192 L 473.6 192 L 358.4 192 L 358.4 192 L 358.4 153.6 L 358.4 153.6 L 473.6 153.6 L 512 153.6 L 512 192 L 512 192 L 512 371.2 L 512 371.2 L 512 409.6 L 512 409.6 L 473.6 409.6 L 435.2 409.6 L 435.2 417.6 L 435.2 417.6 L 435.2 448 L 435.2 448 L 435.2 460.8 L 435.2 460.8 L 396.8 441.6 L 396.8 441.6 L 332.8 409.6 L 332.8 409.6 L 243.2 409.6 L 204.8 409.6 L 204.8 371.2 L 204.8 371.2 L 204.8 332.8 L 204.8 332.8 Z M 148.8 154.4 Q 148 156.8 148.8 156.8 Q 148.8 157.6 151.2 159.2 Q 156.8 162.4 170.4 166.4 L 170.4 166.4 L 170.4 166.4 Q 183.2 169.6 196.8 176.8 Q 203.2 181.6 207.2 190.4 Q 211.2 198.4 209.6 208.8 Q 204.8 227.2 188.8 232.8 Q 184 235.2 179.2 236 L 179.2 239.2 L 179.2 239.2 L 179.2 252 L 179.2 252 L 153.6 252 L 153.6 252 L 153.6 239.2 L 153.6 239.2 L 153.6 235.2 L 153.6 235.2 Q 143.2 232.8 134.4 229.6 L 134.4 229.6 L 134.4 229.6 L 134.4 229.6 L 134.4 229.6 L 134.4 229.6 L 134.4 229.6 Q 132.8 228.8 132 228.8 L 119.2 224.8 L 119.2 224.8 L 127.2 200.8 L 127.2 200.8 L 139.2 204.8 L 139.2 204.8 Q 140.8 204.8 142.4 205.6 Q 143.2 205.6 144 205.6 L 144 205.6 L 144 205.6 L 144 205.6 L 144 205.6 L 144 205.6 L 144 205.6 Q 144 205.6 144.8 206.4 Q 154.4 209.6 160.8 210.4 Q 172.8 212 179.2 209.6 Q 184 207.2 184 204 Q 184.8 200.8 184 200.8 Q 184 200 181.6 198.4 Q 176 194.4 163.2 191.2 L 161.6 190.4 L 161.6 190.4 Q 148.8 187.2 136.8 180.8 Q 130.4 176.8 125.6 168 Q 121.6 159.2 124 149.6 Q 128 132 144 126.4 Q 148.8 124 153.6 123.2 L 153.6 119.2 L 153.6 119.2 L 153.6 106.4 L 153.6 106.4 L 179.2 106.4 L 179.2 106.4 L 179.2 119.2 L 179.2 119.2 L 179.2 123.2 L 179.2 123.2 Q 187.2 124 192.8 125.6 L 204.8 128.8 L 204.8 128.8 L 198.4 153.6 L 198.4 153.6 L 186.4 150.4 L 186.4 150.4 Q 184 149.6 179.2 148.8 Q 175.2 148 172.8 148 Q 160 146.4 153.6 149.6 Q 148 152.8 148.8 154.4 L 148.8 154.4 Z" />
</svg>