<svg xmlns="http://www.w3.org/2000/svg" viewBox="0 0 512 512">
  <path d="M 160.80154142581887 79.41425818882466 L 171.65317919075144 67.57610789980733 L 160.80154142581887 79.41425818882466 L 171.65317919075144 67.57610789980733 L 146.990366088632 47.845857418111756 L 146.990366088632 47.845857418111756 L 137.1252408477842 59.6840077071291 L 137.1252408477842 59.6840077071291 L 69.05587668593449 140.57803468208093 L 69.05587668593449 140.57803468208093 L 33.541425818882466 106.05009633911368 L 33.541425818882466 106.05009633911368 L 22.689788053949904 94.21194605009634 L 22.689788053949904 94.21194605009634 L 0 116.90173410404624 L 0 116.90173410404624 L 11.83815028901734 127.7533718689788 L 11.83815028901734 127.7533718689788 L 59.190751445086704 175.10597302504817 L 59.190751445086704 175.10597302504817 L 71.02890173410404 187.9306358381503 L 71.02890173410404 187.9306358381503 L 81.88053949903662 174.11946050096338 L 81.88053949903662 174.11946050096338 L 160.80154142581887 79.41425818882466 L 160.80154142581887 79.41425818882466 Z M 160.80154142581887 237.2562620423892 L 171.65317919075144 225.41811175337187 L 160.80154142581887 237.2562620423892 L 171.65317919075144 225.41811175337187 L 146.990366088632 205.6878612716763 L 146.990366088632 205.6878612716763 L 137.1252408477842 217.52601156069363 L 137.1252408477842 217.52601156069363 L 69.05587668593449 298.42003853564546 L 69.05587668593449 298.42003853564546 L 33.541425818882466 263.89210019267824 L 33.541425818882466 263.89210019267824 L 22.689788053949904 252.05394990366088 L 22.689788053949904 252.05394990366088 L 0 274.7437379576108 L 0 274.7437379576108 L 11.83815028901734 285.59537572254334 L 11.83815028901734 285.59537572254334 L 59.190751445086704 332.94797687861274 L 59.190751445086704 332.94797687861274 L 71.02890173410404 345.77263969171486 L 71.02890173410404 345.77263969171486 L 81.88053949903662 331.96146435452795 L 81.88053949903662 331.96146435452795 L 160.80154142581887 237.2562620423892 L 160.80154142581887 237.2562620423892 Z M 196.3159922928709 101.11753371868978 L 196.3159922928709 132.68593448940268 L 196.3159922928709 101.11753371868978 L 196.3159922928709 132.68593448940268 L 212.10019267822736 132.68593448940268 L 512 132.68593448940268 L 512 101.11753371868978 L 512 101.11753371868978 L 496.2157996146436 101.11753371868978 L 196.3159922928709 101.11753371868978 Z M 196.3159922928709 258.95953757225436 L 196.3159922928709 290.5279383429672 L 196.3159922928709 258.95953757225436 L 196.3159922928709 290.5279383429672 L 212.10019267822736 290.5279383429672 L 512 290.5279383429672 L 512 258.95953757225436 L 512 258.95953757225436 L 496.2157996146436 258.95953757225436 L 196.3159922928709 258.95953757225436 Z M 164.747591522158 416.80154142581887 L 164.747591522158 448.3699421965318 L 164.747591522158 416.80154142581887 L 164.747591522158 448.3699421965318 L 180.53179190751445 448.3699421965318 L 512 448.3699421965318 L 512 416.80154142581887 L 512 416.80154142581887 L 496.2157996146436 416.80154142581887 L 164.747591522158 416.80154142581887 Z M 101.61078998073218 432.58574181117535 Q 101.61078998073218 418.77456647398844 92.73217726396918 409.8959537572254 L 92.73217726396918 409.8959537572254 L 92.73217726396918 409.8959537572254 Q 83.85356454720616 401.01734104046244 70.04238921001927 401.01734104046244 Q 56.23121387283237 401.01734104046244 47.35260115606936 409.8959537572254 Q 38.47398843930636 418.77456647398844 38.47398843930636 432.58574181117535 Q 38.47398843930636 446.39691714836226 47.35260115606936 455.27552986512524 Q 56.23121387283237 464.15414258188827 70.04238921001927 464.15414258188827 Q 83.85356454720616 464.15414258188827 92.73217726396918 455.27552986512524 Q 101.61078998073218 446.39691714836226 101.61078998073218 432.58574181117535 L 101.61078998073218 432.58574181117535 Z" />
</svg>