<svg viewBox="0 0 576 384">
  <path
    d="M 0 48 L 0 0 L 48 0 L 528 0 L 576 0 L 576 48 L 576 96 L 576 144 Q 556 145 542 158 Q 529 172 528 192 Q 529 212 542 226 Q 556 239 576 240 L 576 288 L 576 336 L 576 384 L 528 384 L 48 384 L 0 384 L 0 336 L 0 288 L 0 240 Q 20 239 34 226 Q 47 212 48 192 Q 47 172 34 158 Q 20 145 0 144 L 0 96 L 0 48 L 0 48 Z M 48 109 Q 70 122 83 143 L 83 143 Q 96 165 96 192 Q 96 219 83 241 Q 70 262 48 275 L 48 336 L 528 336 L 528 275 Q 506 262 493 241 Q 480 219 480 192 Q 480 165 493 143 Q 506 122 528 109 L 528 48 L 48 48 L 48 109 L 48 109 Z"
  />
</svg>