<svg xmlns="http://www.w3.org/2000/svg" viewBox="0 0 512 512">
  <path d="M 256 0 L 88 176 L 256 0 L 88 176 L 88 208 L 88 208 L 136 208 L 136 208 L 56 288 L 56 288 L 56 320 L 56 320 L 112 320 L 112 320 L 32 416 L 32 416 L 32 448 L 32 448 L 224 448 L 224 448 L 224 480 L 224 480 L 224 512 L 224 512 L 288 512 L 288 512 L 288 480 L 288 480 L 288 448 L 288 448 L 480 448 L 480 448 L 480 416 L 480 416 L 400 320 L 400 320 L 456 320 L 456 320 L 456 288 L 456 288 L 376 208 L 376 208 L 424 208 L 424 208 L 424 176 L 424 176 L 256 0 L 256 0 Z" />
</svg>