<svg xmlns="http://www.w3.org/2000/svg" viewBox="0 0 512 512">
  <path d="M 182.35616438356163 233.4559686888454 L 204.39921722113502 256.5009784735812 L 182.35616438356163 233.4559686888454 L 204.39921722113502 256.5009784735812 L 414.8101761252446 46.09001956947162 L 414.8101761252446 46.09001956947162 L 473.9256360078278 38.07436399217221 L 473.9256360078278 38.07436399217221 L 465.9099804305284 97.18982387475538 L 465.9099804305284 97.18982387475538 L 255.49902152641877 307.600782778865 L 255.49902152641877 307.600782778865 L 278.5440313111546 329.64383561643837 L 278.5440313111546 329.64383561643837 L 495.9686888454012 112.21917808219177 L 495.9686888454012 112.21917808219177 L 506.99021526418784 33.064579256360076 L 506.99021526418784 33.064579256360076 L 512 0 L 512 0 L 478.9354207436399 5.009784735812133 L 478.9354207436399 5.009784735812133 L 399.7808219178082 16.031311154598825 L 399.7808219178082 16.031311154598825 L 182.35616438356163 233.4559686888454 L 182.35616438356163 233.4559686888454 Z M 122.23874755381604 213.41682974559686 L 111.21722113502935 201.39334637964774 L 122.23874755381604 213.41682974559686 L 111.21722113502935 201.39334637964774 L 100.19569471624266 213.41682974559686 L 100.19569471624266 213.41682974559686 L 68.133072407045 245.4794520547945 L 68.133072407045 245.4794520547945 L 59.11545988258317 254.49706457925635 L 59.11545988258317 254.49706457925635 L 66.12915851272015 265.51859099804307 L 66.12915851272015 265.51859099804307 L 115.22504892367905 342.6692759295499 L 115.22504892367905 342.6692759295499 L 82.16046966731898 375.73385518591 L 82.16046966731898 375.73385518591 L 50.09784735812133 368.720156555773 L 50.09784735812133 368.720156555773 L 42.082191780821915 367.7181996086106 L 42.082191780821915 367.7181996086106 L 36.070450097847356 373.72994129158513 L 36.070450097847356 373.72994129158513 L 12.023483365949119 397.7769080234834 L 12.023483365949119 397.7769080234834 L 0 408.79843444227004 L 0 408.79843444227004 L 12.023483365949119 419.81996086105676 L 12.023483365949119 419.81996086105676 L 92.18003913894324 499.9765166340509 L 92.18003913894324 499.9765166340509 L 103.20156555772994 512 L 103.20156555772994 512 L 114.22309197651663 499.9765166340509 L 114.22309197651663 499.9765166340509 L 138.27005870841487 475.92954990215264 L 138.27005870841487 475.92954990215264 L 144.28180039138942 469.9178082191781 L 144.28180039138942 469.9178082191781 L 143.279843444227 461.9021526418787 L 143.279843444227 461.9021526418787 L 136.26614481409 429.839530332681 L 136.26614481409 429.839530332681 L 169.3307240704501 396.7749510763209 L 169.3307240704501 396.7749510763209 L 247.48336594911936 445.87084148727985 L 247.48336594911936 445.87084148727985 L 257.50293542074365 452.8845401174168 L 257.50293542074365 452.8845401174168 L 266.52054794520546 443.866927592955 L 266.52054794520546 443.866927592955 L 298.5831702544031 411.80430528375734 L 298.5831702544031 411.80430528375734 L 310.60665362035223 400.7827788649706 L 310.60665362035223 400.7827788649706 L 298.5831702544031 389.76125244618396 L 298.5831702544031 389.76125244618396 L 122.23874755381604 213.41682974559686 L 122.23874755381604 213.41682974559686 Z M 149.29158512720156 335.6555772994129 L 99.19373776908023 258.50489236790605 L 149.29158512720156 335.6555772994129 L 99.19373776908023 258.50489236790605 L 111.21722113502935 247.48336594911936 L 111.21722113502935 247.48336594911936 L 264.5166340508806 400.7827788649706 L 264.5166340508806 400.7827788649706 L 253.49510763209392 412.80626223091974 L 253.49510763209392 412.80626223091974 L 176.34442270058707 363.71037181996087 L 176.34442270058707 363.71037181996087 L 165.32289628180038 356.69667318982385 L 165.32289628180038 356.69667318982385 L 156.30528375733854 365.7142857142857 L 156.30528375733854 365.7142857142857 L 108.21135029354207 413.8082191780822 L 108.21135029354207 413.8082191780822 L 102.19960861056751 419.81996086105676 L 102.19960861056751 419.81996086105676 L 103.20156555772994 427.83561643835617 L 103.20156555772994 427.83561643835617 L 110.21526418786692 459.8982387475538 L 110.21526418786692 459.8982387475538 L 103.20156555772994 465.9099804305284 L 103.20156555772994 465.9099804305284 L 46.09001956947162 408.79843444227004 L 46.09001956947162 408.79843444227004 L 52.10176125244618 401.7847358121331 L 52.10176125244618 401.7847358121331 L 84.16438356164383 408.79843444227004 L 84.16438356164383 408.79843444227004 L 92.18003913894324 409.8003913894325 L 92.18003913894324 409.8003913894325 L 98.1917808219178 403.78864970645793 L 98.1917808219178 403.78864970645793 L 146.28571428571428 355.69471624266146 L 146.28571428571428 355.69471624266146 L 155.30332681017612 346.6771037181996 L 155.30332681017612 346.6771037181996 L 149.29158512720156 335.6555772994129 L 149.29158512720156 335.6555772994129 Z" />
</svg>