<svg xmlns="http://www.w3.org/2000/svg" viewBox="0 0 512 512">
  <path d="M 150.87148 60.990597 L 159.69907 51.3605 L 150.87148 60.990597 L 159.69907 51.3605 L 178.15674 69.818184 L 178.15674 69.818184 L 168.52664 78.64577 L 168.52664 78.64577 L 158.89655 89.07837 L 158.89655 89.07837 L 237.54231 168.52664 L 237.54231 168.52664 L 219.88715 186.18182 L 219.88715 186.18182 L 140.43887 107.53605 L 140.43887 107.53605 L 56.17555 191.79938 L 56.17555 191.79938 L 140.43887 276.06268 L 140.43887 276.06268 L 192.60188 224.7022 L 192.60188 224.7022 L 182.97179 270.44513 L 182.97179 270.44513 L 158.89655 294.5204 L 158.89655 294.5204 L 174.9467 310.57053 L 174.9467 310.57053 L 169.32915 339.46082 L 169.32915 339.46082 L 168.52664 340.26334 L 168.52664 340.26334 L 131.61128 303.34796 L 131.61128 303.34796 L 37.71787 210.25705 L 37.71787 210.25705 L 27.285267 219.88715 L 27.285267 219.88715 L 18.45768 229.51724 L 18.45768 229.51724 L 0 211.05956 L 0 211.05956 L 9.630094 202.23198 L 9.630094 202.23198 L 150.87148 60.990597 L 150.87148 60.990597 Z M 308.163 377.17868 L 337.8558 371.56113 L 308.163 377.17868 L 337.8558 371.56113 L 399.6489 433.35422 L 399.6489 433.35422 L 409.279 442.18182 L 409.279 442.18182 L 390.82132 460.6395 L 390.82132 460.6395 L 381.99374 451.0094 L 381.99374 451.0094 L 308.163 377.17868 L 308.163 377.17868 Z M 361.12854 60.990597 L 502.3699 202.23198 L 361.12854 60.990597 L 502.3699 202.23198 L 512 211.05956 L 512 211.05956 L 493.54233 229.51724 L 493.54233 229.51724 L 484.71472 219.88715 L 484.71472 219.88715 L 343.47336 78.64577 L 343.47336 78.64577 L 333.84326 69.818184 L 333.84326 69.818184 L 352.30093 51.3605 L 352.30093 51.3605 L 361.12854 60.990597 L 361.12854 60.990597 Z M 221.49216 221.49216 L 260.01254 182.97179 L 221.49216 221.49216 L 260.01254 182.97179 L 260.01254 182.97179 L 260.01254 182.97179 L 260.01254 182.97179 L 260.01254 182.97179 L 335.44827 107.53605 L 335.44827 107.53605 L 353.10345 125.19122 L 353.10345 125.19122 L 287.2978 191.79938 L 287.2978 191.79938 L 371.56113 276.06268 L 371.56113 276.06268 L 438.16928 210.25705 L 438.16928 210.25705 L 455.82446 227.91223 L 455.82446 227.91223 L 380.3887 303.34796 L 380.3887 303.34796 L 341.86835 341.86835 L 341.86835 341.86835 L 339.46082 345.07837 L 339.46082 345.07837 L 335.44827 345.8809 L 335.44827 345.8809 L 211.05956 370.7586 L 211.05956 370.7586 L 130.00627 451.0094 L 130.00627 451.0094 L 121.17868 460.6395 L 121.17868 460.6395 L 102.721 442.18182 L 102.721 442.18182 L 112.3511 433.35422 L 112.3511 433.35422 L 192.60188 352.30093 L 192.60188 352.30093 L 217.47963 227.91223 L 217.47963 227.91223 L 218.28214 223.89969 L 218.28214 223.89969 L 221.49216 221.49216 L 221.49216 221.49216 Z M 242.35736 236.7398 L 220.68965 342.67084 L 242.35736 236.7398 L 220.68965 342.67084 L 326.6207 321.00314 L 326.6207 321.00314 L 353.10345 294.5204 L 353.10345 294.5204 L 268.84012 210.25705 L 268.84012 210.25705 L 242.35736 236.7398 L 242.35736 236.7398 Z" />
</svg>