<svg viewBox="0 0 384 512">
  <path
    d="M 16 0 L 40 0 L 120 0 L 144 0 L 144 24 L 144 144 L 200 144 L 224 144 L 224 168 L 224 176 L 256 176 L 256 88 L 256 64 L 280 64 L 360 64 L 384 64 L 384 88 L 384 256 L 384 288 L 384 344 Q 382 415 335 463 Q 287 510 216 512 L 168 512 Q 97 510 49 463 Q 2 415 0 344 Q 0 344 0 344 Q 0 344 0 344 L 0 320 L 0 320 L 0 264 L 0 240 L 16 240 L 16 24 L 16 0 L 16 0 Z M 48 320 L 48 320 L 48 344 Q 48 344 48 344 Q 48 344 48 344 Q 49 395 83 429 Q 117 463 168 464 L 216 464 Q 267 463 301 429 Q 335 395 336 344 L 336 288 L 336 256 L 336 112 L 304 112 L 304 176 L 304 200 L 304 256 L 304 344 L 304 368 L 280 368 L 224 368 L 200 368 L 176 368 L 120 368 L 96 368 L 96 320 L 120 320 L 176 320 L 176 288 L 120 288 L 48 288 L 48 320 L 48 320 Z M 176 200 L 176 192 L 144 192 L 144 240 L 176 240 L 176 200 L 176 200 Z M 96 168 L 96 144 L 96 48 L 64 48 L 64 240 L 96 240 L 96 168 L 96 168 Z M 256 224 L 224 224 L 224 264 L 224 320 L 256 320 L 256 256 L 256 224 L 256 224 Z"
  />
</svg>