<svg xmlns="http://www.w3.org/2000/svg" viewBox="0 0 576 448">
    <path d="M 152 0 L 135 0 L 129 16 L 87 144 L 80 144 L 32 144 L 0 144 L 0 192 L 32 192 L 32 320 L 32 368 L 32 448 L 80 448 L 80 368 L 496 368 L 496 448 L 544 448 L 544 368 L 544 320 L 544 192 L 576 192 L 576 144 L 544 144 L 496 144 L 489 144 L 447 16 L 441 0 L 424 0 L 152 0 L 152 0 Z M 480 192 L 496 192 L 496 320 L 80 320 L 80 192 L 96 192 L 480 192 L 480 192 Z M 439 144 L 137 144 L 169 48 L 407 48 L 439 144 L 439 144 Z M 176 256 Q 176 242 167 233 L 167 233 Q 158 224 144 224 Q 130 224 121 233 Q 112 242 112 256 Q 112 270 121 279 Q 130 288 144 288 Q 158 288 167 279 Q 176 270 176 256 L 176 256 Z M 432 288 Q 446 288 455 279 L 455 279 Q 464 270 464 256 Q 464 242 455 233 Q 446 224 432 224 Q 418 224 409 233 Q 400 242 400 256 Q 400 270 409 279 Q 418 288 432 288 L 432 288 Z"/>
</svg>
