<svg xmlns="http://www.w3.org/2000/svg" viewBox="0 0 512 512">
  <path d="M 500.01703 64.27234 L 477.1404 133.99149 L 500.01703 64.27234 L 477.1404 133.99149 Q 512 206.97873 493.48087 282.14468 Q 474.9617 358.4 417.22552 417.22552 Q 358.4 474.9617 282.14468 493.48087 Q 206.97873 512 133.99149 477.1404 L 64.27234 500.01703 L 64.27234 500.01703 L 11.982979 447.72766 L 11.982979 447.72766 L 34.859573 378.0085 L 34.859573 378.0085 Q 0 305.02127 18.51915 228.76596 Q 37.0383 153.6 94.77447 94.77447 Q 153.6 37.0383 229.85532 18.51915 Q 305.02127 0 378.0085 34.859573 L 447.72766 11.982979 L 447.72766 11.982979 L 500.01703 64.27234 L 500.01703 64.27234 Z M 117.65106 427.0298 L 138.34894 420.49362 L 117.65106 427.0298 L 138.34894 420.49362 L 157.95744 430.29788 L 157.95744 430.29788 Q 211.33617 456.44257 271.25107 443.3702 Q 330.0766 429.2085 380.18723 380.18723 Q 429.2085 330.0766 443.3702 271.25107 Q 456.44257 211.33617 430.29788 157.95744 L 420.49362 138.34894 L 420.49362 138.34894 L 427.0298 117.65106 L 427.0298 117.65106 L 440.10214 78.434044 L 440.10214 78.434044 L 433.56595 71.89787 L 433.56595 71.89787 L 394.34894 84.970215 L 394.34894 84.970215 L 373.65106 91.506386 L 373.65106 91.506386 L 354.04254 81.702126 L 354.04254 81.702126 Q 300.66382 55.557446 240.74893 69.71915 Q 181.9234 82.79149 131.81276 131.81276 Q 82.79149 181.9234 69.71915 240.74893 Q 55.557446 300.66382 81.702126 354.04254 L 91.506386 373.65106 L 91.506386 373.65106 L 84.970215 394.34894 L 84.970215 394.34894 L 71.89787 433.56595 L 71.89787 433.56595 L 78.434044 440.10214 L 78.434044 440.10214 L 117.65106 427.0298 L 117.65106 427.0298 Z M 159.04681 281.05533 L 108.93617 265.80426 L 159.04681 281.05533 L 108.93617 265.80426 Q 126.36596 210.24681 167.7617 167.7617 Q 210.24681 126.36596 265.80426 108.93617 L 281.05533 159.04681 L 281.05533 159.04681 Q 237.48085 172.11916 204.8 204.8 Q 172.11916 237.48085 159.04681 281.05533 L 159.04681 281.05533 Z" />
</svg>