<svg xmlns="http://www.w3.org/2000/svg" viewBox="0 0 512 512">
  <path d="M 79.5 285 L 90.5 275 L 79.5 285 L 90.5 275 L 90.5 261 L 90.5 261 L 90.5 32 L 90.5 32 L 218.5 32 L 218.5 32 L 218.5 261 L 218.5 261 L 218.5 275 L 218.5 275 L 229.5 285 L 229.5 285 Q 265.5 317 266.5 368 Q 265.5 416 233.5 447 Q 202.5 479 154.5 480 Q 106.5 479 75.5 447 Q 43.5 416 42.5 368 Q 43.5 317 79.5 285 L 79.5 285 Z M 250.5 0 L 218.5 0 L 250.5 0 L 58.5 0 L 58.5 32 L 58.5 32 L 58.5 261 L 58.5 261 Q 12.5 302 10.5 368 Q 12.5 429 52.5 470 Q 93.5 510 154.5 512 Q 215.5 510 256.5 470 Q 296.5 429 298.5 368 Q 296.5 302 250.5 261 L 250.5 32 L 250.5 32 L 250.5 0 L 250.5 0 Z M 122.5 368 Q 122.5 354 131.5 345 L 131.5 345 L 131.5 345 Q 140.5 336 154.5 336 Q 168.5 336 177.5 345 Q 186.5 354 186.5 368 Q 186.5 382 177.5 391 Q 168.5 400 154.5 400 Q 140.5 400 131.5 391 Q 122.5 382 122.5 368 L 122.5 368 Z M 218.5 368 Q 218.5 345 204.5 328 L 204.5 328 L 204.5 328 Q 191.5 312 170.5 306 L 170.5 272 L 170.5 272 L 170.5 256 L 170.5 256 L 138.5 256 L 138.5 256 L 138.5 272 L 138.5 272 L 138.5 306 L 138.5 306 Q 117.5 312 104.5 328 Q 90.5 345 90.5 368 Q 91.5 395 109.5 413 Q 127.5 431 154.5 432 Q 181.5 431 199.5 413 Q 217.5 395 218.5 368 L 218.5 368 Z M 399.5 475 L 410.5 487 L 399.5 475 L 410.5 487 L 421.5 475 L 421.5 475 L 501.5 395 L 501.5 395 L 479.5 373 L 479.5 373 L 426.5 425 L 426.5 425 L 426.5 48 L 426.5 48 L 426.5 32 L 426.5 32 L 394.5 32 L 394.5 32 L 394.5 48 L 394.5 48 L 394.5 425 L 394.5 425 L 341.5 373 L 341.5 373 L 319.5 395 L 319.5 395 L 399.5 475 L 399.5 475 Z" />
</svg>