<svg xmlns="http://www.w3.org/2000/svg" viewBox="0 0 512 512">
  <path d="M 457.14285 54.857143 L 457.14285 457.14285 L 457.14285 54.857143 L 457.14285 457.14285 L 54.857143 457.14285 L 54.857143 457.14285 L 54.857143 54.857143 L 54.857143 54.857143 L 457.14285 54.857143 L 457.14285 54.857143 Z M 54.857143 0 L 0 0 L 54.857143 0 L 0 0 L 0 54.857143 L 0 54.857143 L 0 457.14285 L 0 457.14285 L 0 512 L 0 512 L 54.857143 512 L 512 512 L 512 457.14285 L 512 457.14285 L 512 54.857143 L 512 54.857143 L 512 0 L 512 0 L 457.14285 0 L 54.857143 0 Z M 98.28571 157.71428 L 118.85714 176 L 98.28571 157.71428 L 118.85714 176 L 206.85715 256 L 206.85715 256 L 118.85714 336 L 118.85714 336 L 98.28571 355.42856 L 98.28571 355.42856 L 136 395.42856 L 136 395.42856 L 155.42857 377.14285 L 155.42857 377.14285 L 265.14285 276.57144 L 265.14285 276.57144 L 288 256 L 288 256 L 265.14285 235.42857 L 265.14285 235.42857 L 155.42857 134.85715 L 155.42857 134.85715 L 136 116.57143 L 136 116.57143 L 98.28571 157.71428 L 98.28571 157.71428 Z M 246.85715 347.42856 L 219.42857 347.42856 L 246.85715 347.42856 L 219.42857 347.42856 L 219.42857 402.2857 L 219.42857 402.2857 L 246.85715 402.2857 L 402.2857 402.2857 L 402.2857 347.42856 L 402.2857 347.42856 L 374.85715 347.42856 L 246.85715 347.42856 Z" />
</svg>