<svg viewBox="0 0 608 480">
  <path
    d="M 24 0 L 0 0 L 0 48 L 24 48 L 72 48 L 72 112 L 24 112 L 0 112 L 0 160 L 24 160 L 72 160 L 120 160 L 200 160 L 248 160 L 464 160 L 552 160 L 576 160 L 576 112 L 552 112 L 504 112 L 504 48 L 544 48 L 568 48 L 568 0 L 544 0 L 24 0 L 24 0 Z M 306 258 Q 317 236 334 217 Q 313 208 288 208 Q 237 209 203 243 Q 169 277 168 328 L 168 400 L 120 400 L 120 304 Q 119 263 92 236 Q 65 209 24 208 L 0 208 L 0 256 L 24 256 Q 44 257 58 270 Q 71 284 72 304 L 72 424 L 72 448 L 96 448 L 192 448 L 216 448 L 216 424 L 216 328 Q 217 297 237 277 Q 257 257 288 256 Q 297 256 306 258 L 306 258 Z M 456 48 L 456 112 L 376 112 L 376 48 L 456 48 L 456 48 Z M 328 48 L 328 112 L 248 112 L 248 48 L 328 48 L 328 48 Z M 200 48 L 200 112 L 120 112 L 120 48 L 200 48 L 200 48 Z M 464 480 Q 503 480 536 461 L 536 461 Q 569 442 589 408 Q 608 374 608 336 Q 608 298 589 264 Q 569 230 536 211 Q 503 192 464 192 Q 425 192 392 211 Q 359 230 339 264 Q 320 298 320 336 Q 320 374 339 408 Q 359 442 392 461 Q 425 480 464 480 L 464 480 Z M 480 240 L 480 256 L 480 336 L 480 352 L 448 352 L 448 336 L 448 256 L 448 240 L 480 240 L 480 240 Z M 480 416 L 448 416 L 448 384 L 480 384 L 480 416 L 480 416 Z"
  />
</svg>