<svg xmlns="http://www.w3.org/2000/svg" viewBox="0 0 512 512">
  <path d="M 160 512 L 208 480 L 160 512 L 208 480 L 304 416 L 304 416 L 464 416 L 512 416 L 512 368 L 512 368 L 512 48 L 512 48 L 512 0 L 512 0 L 464 0 L 0 0 L 0 48 L 0 48 L 0 368 L 0 368 L 0 416 L 0 416 L 48 416 L 160 416 L 160 454 L 160 454 L 160 464 L 160 464 L 160 512 L 160 512 Z M 277 376 L 208 422 L 277 376 L 208 422 L 208 416 L 208 416 L 208 368 L 208 368 L 160 368 L 48 368 L 48 48 L 48 48 L 464 48 L 464 48 L 464 368 L 464 368 L 304 368 L 290 368 L 277 376 L 277 376 Z M 305 112 L 276 141 L 305 112 L 276 141 L 323 188 L 323 188 L 352 159 L 352 159 L 305 112 L 305 112 Z M 253 164 L 168 249 L 253 164 L 168 249 L 160 304 L 160 304 L 215 296 L 215 296 L 300 211 L 300 211 L 253 164 L 253 164 Z" />
</svg>