<svg xmlns="http://www.w3.org/2000/svg" viewBox="0 0 512 512">
  <path d="M 118.85714285714286 466.2857142857143 L 118.85714285714286 411.42857142857144 L 118.85714285714286 466.2857142857143 L 118.85714285714286 411.42857142857144 L 173.71428571428572 411.42857142857144 L 173.71428571428572 411.42857142857144 L 173.71428571428572 466.2857142857143 L 173.71428571428572 466.2857142857143 L 118.85714285714286 466.2857142857143 L 118.85714285714286 466.2857142857143 Z M 73.14285714285714 512 L 118.85714285714286 512 L 73.14285714285714 512 L 219.42857142857142 512 L 219.42857142857142 466.2857142857143 L 219.42857142857142 466.2857142857143 L 219.42857142857142 411.42857142857144 L 219.42857142857142 411.42857142857144 L 219.42857142857142 365.7142857142857 L 219.42857142857142 365.7142857142857 L 173.71428571428572 365.7142857142857 L 73.14285714285714 365.7142857142857 L 73.14285714285714 411.42857142857144 L 73.14285714285714 411.42857142857144 L 73.14285714285714 466.2857142857143 L 73.14285714285714 466.2857142857143 L 73.14285714285714 512 L 73.14285714285714 512 Z M 338.2857142857143 466.2857142857143 L 338.2857142857143 411.42857142857144 L 338.2857142857143 466.2857142857143 L 338.2857142857143 411.42857142857144 L 393.14285714285717 411.42857142857144 L 393.14285714285717 411.42857142857144 L 393.14285714285717 466.2857142857143 L 393.14285714285717 466.2857142857143 L 338.2857142857143 466.2857142857143 L 338.2857142857143 466.2857142857143 Z M 292.57142857142856 512 L 338.2857142857143 512 L 292.57142857142856 512 L 438.85714285714283 512 L 438.85714285714283 466.2857142857143 L 438.85714285714283 466.2857142857143 L 438.85714285714283 411.42857142857144 L 438.85714285714283 411.42857142857144 L 438.85714285714283 365.7142857142857 L 438.85714285714283 365.7142857142857 L 393.14285714285717 365.7142857142857 L 292.57142857142856 365.7142857142857 L 292.57142857142856 411.42857142857144 L 292.57142857142856 411.42857142857144 L 292.57142857142856 466.2857142857143 L 292.57142857142856 466.2857142857143 L 292.57142857142856 512 L 292.57142857142856 512 Z M 118.85714285714286 228.57142857142858 L 173.71428571428572 228.57142857142858 L 118.85714285714286 228.57142857142858 L 173.71428571428572 228.57142857142858 L 173.71428571428572 283.42857142857144 L 173.71428571428572 283.42857142857144 L 118.85714285714286 283.42857142857144 L 118.85714285714286 283.42857142857144 L 118.85714285714286 228.57142857142858 L 118.85714285714286 228.57142857142858 Z M 73.14285714285714 283.42857142857144 L 73.14285714285714 329.14285714285717 L 73.14285714285714 283.42857142857144 L 73.14285714285714 329.14285714285717 L 118.85714285714286 329.14285714285717 L 219.42857142857142 329.14285714285717 L 219.42857142857142 283.42857142857144 L 219.42857142857142 283.42857142857144 L 219.42857142857142 228.57142857142858 L 219.42857142857142 228.57142857142858 L 219.42857142857142 182.85714285714286 L 219.42857142857142 182.85714285714286 L 173.71428571428572 182.85714285714286 L 73.14285714285714 182.85714285714286 L 73.14285714285714 228.57142857142858 L 73.14285714285714 228.57142857142858 L 73.14285714285714 283.42857142857144 L 73.14285714285714 283.42857142857144 Z M 338.2857142857143 283.42857142857144 L 338.2857142857143 228.57142857142858 L 338.2857142857143 283.42857142857144 L 338.2857142857143 228.57142857142858 L 393.14285714285717 228.57142857142858 L 393.14285714285717 228.57142857142858 L 393.14285714285717 283.42857142857144 L 393.14285714285717 283.42857142857144 L 338.2857142857143 283.42857142857144 L 338.2857142857143 283.42857142857144 Z M 292.57142857142856 329.14285714285717 L 338.2857142857143 329.14285714285717 L 292.57142857142856 329.14285714285717 L 438.85714285714283 329.14285714285717 L 438.85714285714283 283.42857142857144 L 438.85714285714283 283.42857142857144 L 438.85714285714283 228.57142857142858 L 438.85714285714283 228.57142857142858 L 438.85714285714283 182.85714285714286 L 438.85714285714283 182.85714285714286 L 393.14285714285717 182.85714285714286 L 292.57142857142856 182.85714285714286 L 292.57142857142856 228.57142857142858 L 292.57142857142856 228.57142857142858 L 292.57142857142856 283.42857142857144 L 292.57142857142856 283.42857142857144 L 292.57142857142856 329.14285714285717 L 292.57142857142856 329.14285714285717 Z M 118.85714285714286 45.714285714285715 L 173.71428571428572 45.714285714285715 L 118.85714285714286 45.714285714285715 L 173.71428571428572 45.714285714285715 L 173.71428571428572 100.57142857142857 L 173.71428571428572 100.57142857142857 L 118.85714285714286 100.57142857142857 L 118.85714285714286 100.57142857142857 L 118.85714285714286 45.714285714285715 L 118.85714285714286 45.714285714285715 Z M 73.14285714285714 100.57142857142857 L 73.14285714285714 146.28571428571428 L 73.14285714285714 100.57142857142857 L 73.14285714285714 146.28571428571428 L 118.85714285714286 146.28571428571428 L 219.42857142857142 146.28571428571428 L 219.42857142857142 100.57142857142857 L 219.42857142857142 100.57142857142857 L 219.42857142857142 45.714285714285715 L 219.42857142857142 45.714285714285715 L 219.42857142857142 0 L 219.42857142857142 0 L 173.71428571428572 0 L 73.14285714285714 0 L 73.14285714285714 45.714285714285715 L 73.14285714285714 45.714285714285715 L 73.14285714285714 100.57142857142857 L 73.14285714285714 100.57142857142857 Z M 338.2857142857143 100.57142857142857 L 338.2857142857143 45.714285714285715 L 338.2857142857143 100.57142857142857 L 338.2857142857143 45.714285714285715 L 393.14285714285717 45.714285714285715 L 393.14285714285717 45.714285714285715 L 393.14285714285717 100.57142857142857 L 393.14285714285717 100.57142857142857 L 338.2857142857143 100.57142857142857 L 338.2857142857143 100.57142857142857 Z M 292.57142857142856 146.28571428571428 L 338.2857142857143 146.28571428571428 L 292.57142857142856 146.28571428571428 L 438.85714285714283 146.28571428571428 L 438.85714285714283 100.57142857142857 L 438.85714285714283 100.57142857142857 L 438.85714285714283 45.714285714285715 L 438.85714285714283 45.714285714285715 L 438.85714285714283 0 L 438.85714285714283 0 L 393.14285714285717 0 L 292.57142857142856 0 L 292.57142857142856 45.714285714285715 L 292.57142857142856 45.714285714285715 L 292.57142857142856 100.57142857142857 L 292.57142857142856 100.57142857142857 L 292.57142857142856 146.28571428571428 L 292.57142857142856 146.28571428571428 Z" />
</svg>