<svg viewBox="0 0 640 512">
  <path
    d="M 480 0 L 288 0 L 288 96 L 224 96 L 224 24 L 224 0 L 176 0 L 176 24 L 176 96 L 112 96 L 112 24 L 112 0 L 64 0 L 64 24 L 64 96 L 0 96 L 0 192 L 0 512 L 288 512 L 352 512 L 480 512 L 640 512 L 640 192 L 480 192 L 480 0 L 480 0 Z M 576 352 L 576 416 L 512 416 L 512 352 L 576 352 L 576 352 Z M 192 352 L 256 352 L 256 416 L 192 416 L 192 352 L 192 352 Z M 128 416 L 64 416 L 64 352 L 128 352 L 128 416 L 128 416 Z M 512 256 L 576 256 L 576 320 L 512 320 L 512 256 L 512 256 Z M 64 160 L 128 160 L 128 224 L 64 224 L 64 160 L 64 160 Z M 256 256 L 256 320 L 192 320 L 192 256 L 256 256 L 256 256 Z M 256 160 L 256 224 L 192 224 L 192 160 L 256 160 L 256 160 Z M 64 320 L 64 256 L 128 256 L 128 320 L 64 320 L 64 320 Z M 416 256 L 416 320 L 352 320 L 352 256 L 416 256 L 416 256 Z M 352 64 L 416 64 L 416 128 L 352 128 L 352 64 L 352 64 Z M 416 160 L 416 224 L 352 224 L 352 160 L 416 160 L 416 160 Z"
  />
</svg>