<svg xmlns="http://www.w3.org/2000/svg" viewBox="0 0 512 512">
  <path d="M 240 131 L 342 29 L 240 131 L 342 29 Q 372 0 412 0 Q 452 0 483 29 Q 512 60 512 100 Q 512 140 483 170 L 381 272 L 381 272 L 391 281 L 391 281 L 413 304 L 413 304 L 368 349 L 368 349 L 345 327 L 345 327 L 185 167 L 185 167 L 163 144 L 163 144 L 208 99 L 208 99 L 231 121 L 231 121 L 240 131 L 240 131 Z M 175 201 L 220 247 L 175 201 L 220 247 L 147 320 L 147 320 L 238 320 L 238 320 L 266 292 L 266 292 L 311 337 L 311 337 L 168 480 L 168 480 L 80 480 L 80 480 L 68 490 L 68 490 L 45 508 L 45 508 L 40 512 L 40 512 L 0 472 L 0 472 L 4 467 L 4 467 L 22 444 L 22 444 L 32 432 L 32 432 L 32 344 L 32 344 L 175 201 L 175 201 Z" />
</svg>