<svg xmlns="http://www.w3.org/2000/svg" viewBox="0 0 512 512">
  <path d="M 209.77777777777777 120.88888888888889 Q 226.66666666666666 115.55555555555556 245.33333333333334 114.66666666666667 L 268.44444444444446 66.66666666666667 L 268.44444444444446 66.66666666666667 L 284.44444444444446 74.66666666666667 L 284.44444444444446 74.66666666666667 L 284.44444444444446 116.44444444444444 L 284.44444444444446 116.44444444444444 Q 299.55555555555554 119.11111111111111 312.8888888888889 124.44444444444444 L 312.8888888888889 56.888888888888886 L 312.8888888888889 56.888888888888886 L 281.77777777777777 40.888888888888886 L 281.77777777777777 40.888888888888886 L 256 28.444444444444443 L 256 28.444444444444443 L 243.55555555555554 54.22222222222222 L 243.55555555555554 54.22222222222222 L 212.44444444444446 115.55555555555556 L 212.44444444444446 115.55555555555556 L 209.77777777777777 120.88888888888889 L 209.77777777777777 120.88888888888889 Z M 147.55555555555554 157.33333333333334 Q 160 144.88888888888889 176 136 Q 156.44444444444446 128 135.11111111111111 128 Q 105.77777777777777 128 80.88888888888889 143.11111111111111 Q 56 157.33333333333334 38.22222222222222 181.33333333333334 Q 0.8888888888888888 232 0 305.77777777777777 Q 0.8888888888888888 379.55555555555554 38.22222222222222 430.22222222222223 Q 56 454.22222222222223 80.88888888888889 468.44444444444446 Q 105.77777777777777 483.55555555555554 135.11111111111111 483.55555555555554 Q 168 482.6666666666667 195.55555555555554 464.8888888888889 Q 223.11111111111111 483.55555555555554 256 483.55555555555554 Q 288.8888888888889 482.6666666666667 316.44444444444446 464.8888888888889 Q 344 483.55555555555554 376.8888888888889 483.55555555555554 Q 406.22222222222223 483.55555555555554 431.1111111111111 468.44444444444446 Q 456 454.22222222222223 473.77777777777777 430.22222222222223 Q 511.1111111111111 379.55555555555554 512 305.77777777777777 Q 511.1111111111111 232 473.77777777777777 181.33333333333334 Q 456 157.33333333333334 431.1111111111111 143.11111111111111 Q 406.22222222222223 128 376.8888888888889 128 Q 355.55555555555554 128 336.8888888888889 136 Q 352 144.88888888888889 364.44444444444446 157.33333333333334 Q 370.6666666666667 156.44444444444446 376.8888888888889 156.44444444444446 Q 419.55555555555554 157.33333333333334 450.6666666666667 198.22222222222223 Q 481.77777777777777 240.88888888888889 483.55555555555554 305.77777777777777 Q 481.77777777777777 370.6666666666667 450.6666666666667 413.3333333333333 Q 419.55555555555554 454.22222222222223 376.8888888888889 455.1111111111111 Q 349.3333333333333 455.1111111111111 325.3333333333333 436.44444444444446 Q 316.44444444444446 430.22222222222223 307.55555555555554 436.44444444444446 Q 283.55555555555554 455.1111111111111 256 455.1111111111111 Q 228.44444444444446 455.1111111111111 204.44444444444446 436.44444444444446 Q 195.55555555555554 430.22222222222223 186.66666666666666 436.44444444444446 Q 162.66666666666666 455.1111111111111 135.11111111111111 455.1111111111111 Q 92.44444444444444 454.22222222222223 61.333333333333336 413.3333333333333 Q 30.22222222222222 370.6666666666667 28.444444444444443 305.77777777777777 Q 30.22222222222222 240.88888888888889 61.333333333333336 198.22222222222223 Q 92.44444444444444 157.33333333333334 135.11111111111111 156.44444444444446 Q 141.33333333333334 156.44444444444446 147.55555555555554 157.33333333333334 L 147.55555555555554 157.33333333333334 Z M 173.33333333333334 214.22222222222223 Q 202.66666666666666 172.44444444444446 256 170.66666666666666 Q 309.3333333333333 172.44444444444446 338.6666666666667 214.22222222222223 L 361.77777777777777 198.22222222222223 L 361.77777777777777 198.22222222222223 Q 344 172.44444444444446 316.44444444444446 157.33333333333334 Q 288.8888888888889 142.22222222222223 256 142.22222222222223 Q 222.22222222222223 142.22222222222223 195.55555555555554 157.33333333333334 Q 168 172.44444444444446 150.22222222222223 198.22222222222223 L 173.33333333333334 214.22222222222223 L 173.33333333333334 214.22222222222223 Z" />
</svg>