<svg xmlns="http://www.w3.org/2000/svg" viewBox="0 0 566 509">
    <path d="M 283 0 L 294 9 L 379 84 L 379 45 L 379 29 L 395 29 L 491 29 L 507 29 L 507 45 L 507 197 L 507 197 L 566 249 L 544 273 L 507 240 L 507 493 L 507 509 L 491 509 L 75 509 L 59 509 L 59 493 L 59 240 L 22 273 L 0 249 L 272 9 L 283 0 L 283 0 Z M 475 169 L 475 61 L 411 61 L 411 113 L 475 169 L 475 169 Z M 91 212 L 91 477 L 475 477 L 475 212 L 283 42 L 91 212 L 91 212 Z M 283 246 L 291 238 Q 309 221 333 221 L 336 221 Q 361 222 378 238 Q 394 255 395 280 Q 395 305 377 323 L 294 402 L 283 413 L 272 402 L 189 323 Q 171 305 171 280 Q 172 255 188 238 Q 205 222 230 221 L 232 221 Q 257 221 275 238 L 283 245 L 283 246 Z M 283 369 L 355 300 Q 363 292 363 280 Q 363 269 355 261 Q 347 253 336 253 L 333 253 Q 321 253 313 261 L 305 269 L 283 290 L 261 269 L 253 261 Q 244 253 233 253 L 230 253 Q 219 253 211 261 Q 203 269 203 280 Q 203 292 211 300 L 283 369 L 283 369 Z"/>
</svg>
