<svg xmlns="http://www.w3.org/2000/svg" viewBox="0 0 512 512">
  <path d="M 87 64 L 172 149 L 87 64 L 172 149 Q 207 107 208 48 Q 208 26 202 6 Q 136 20 87 64 L 87 64 Z M 64 87 Q 20 136 6 202 Q 26 208 48 208 Q 107 207 149 172 L 64 87 L 64 87 Z M 256 0 Q 245 0 234 1 Q 240 24 240 48 Q 239 120 195 172 L 256 233 L 256 233 L 425 64 L 425 64 Q 355 2 256 0 L 256 0 Z M 48 240 Q 24 240 1 234 Q 0 245 0 256 Q 2 355 64 425 L 233 256 L 233 256 L 172 195 L 172 195 Q 120 239 48 240 L 48 240 Z M 511 278 Q 512 267 512 256 Q 510 157 448 87 L 279 256 L 279 256 L 340 317 L 340 317 Q 392 273 464 272 Q 488 272 511 278 L 511 278 Z M 506 310 Q 486 304 464 304 Q 405 305 363 340 L 448 425 L 448 425 Q 492 376 506 310 L 506 310 Z M 340 363 Q 305 405 304 464 Q 304 486 310 506 Q 376 492 425 448 L 340 363 L 340 363 Z M 317 340 L 256 279 L 317 340 L 256 279 L 87 448 L 87 448 Q 156 510 256 512 Q 267 512 278 511 Q 272 488 272 464 Q 273 392 317 340 L 317 340 Z" />
</svg>