<svg xmlns="http://www.w3.org/2000/svg" viewBox="0 0 512 512">
  <path d="M 368.5603112840467 102.59922178988327 L 368.5603112840467 53.78988326848249 L 368.5603112840467 102.59922178988327 L 368.5603112840467 53.78988326848249 Q 396.4513618677043 94.63035019455253 448.2490272373541 96.62256809338521 L 488.0933852140078 96.62256809338521 L 512 96.62256809338521 L 512 72.715953307393 L 512 72.715953307393 Q 511.00389105058366 41.83657587548638 491.0817120622568 21.914396887159533 Q 471.15953307392994 1.9922178988326849 440.2801556420234 0.9961089494163424 L 376.52918287937746 0.9961089494163424 L 320.74708171206225 0.9961089494163424 L 320.74708171206225 24.90272373540856 L 320.74708171206225 24.90272373540856 L 320.74708171206225 96.62256809338521 L 320.74708171206225 96.62256809338521 Q 244.0466926070039 96.62256809338521 185.27626459143968 152.4046692607004 Q 152.4046692607004 180.295719844358 132.48249027237355 211.17509727626458 Q 111.56420233463035 241.05836575875486 97.61867704280155 269.9455252918288 Q 83.67315175097276 296.84046692607006 67.73540856031128 321.7431906614786 Q 51.797665369649806 345.64980544747084 26.894941634241246 365.5719844357977 L 0 383.50194552529183 L 0 383.50194552529183 L 1.9922178988326849 447.25291828793775 L 1.9922178988326849 447.25291828793775 L 45.82101167315175 468.1712062256809 L 45.82101167315175 468.1712062256809 Q 47.81322957198444 470.1634241245136 113.55642023346303 489.08949416342415 Q 179.29961089494162 508.01556420233464 288.8715953307393 511.00389105058366 Q 371.5486381322957 509.011673151751 420.3579766536965 470.1634241245136 Q 469.16731517509726 431.31517509727627 491.0817120622568 379.5175097276265 Q 512 327.7198443579766 512 287.87548638132296 Q 512 211.17509727626458 456.21789883268485 152.4046692607004 Q 431.31517509727627 127.50194552529183 400.43579766536965 113.55642023346303 L 400.43579766536965 168.34241245136187 L 400.43579766536965 168.34241245136187 Q 412.3891050583658 176.3112840466926 422.35019455252916 186.27237354085602 Q 464.18677042801556 231.09727626459144 464.18677042801556 287.87548638132296 Q 464.18677042801556 309.78988326848247 455.22178988326846 339.67315175097275 Q 445.26070038910507 370.55252918287937 424.3424124513619 399.4396887159533 Q 404.420233463035 426.3346303501946 371.5486381322957 444.26459143968873 Q 338.6770428015564 462.1945525291829 288.8715953307393 463.1906614785992 Q 186.27237354085602 460.2023346303502 125.50972762645914 443.2684824902724 Q 94.63035019455253 435.2996108949416 79.6887159533074 429.3229571984436 Q 71.71984435797665 426.3346303501946 67.73540856031128 425.33852140077823 Q 66.73929961089495 424.3424124513619 65.7431906614786 424.3424124513619 Q 65.7431906614786 424.3424124513619 64.74708171206225 424.3424124513619 L 48.809338521400775 416.3735408560311 L 48.809338521400775 416.3735408560311 L 48.809338521400775 407.408560311284 L 48.809338521400775 407.408560311284 L 53.78988326848249 404.420233463035 L 53.78988326848249 404.420233463035 L 54.78599221789883 403.42412451361866 L 54.78599221789883 403.42412451361866 L 55.782101167315176 403.42412451361866 L 55.782101167315176 403.42412451361866 Q 86.6614785992218 378.52140077821014 106.58365758754864 349.6342412451362 Q 125.50972762645914 320.74708171206225 138.4591439688716 293.852140077821 Q 138.4591439688716 293.852140077821 138.4591439688716 293.852140077821 Q 140.4513618677043 290.863813229572 142.44357976653697 287.87548638132296 Q 156.38910505836577 259.98443579766536 173.3229571984436 236.07782101167317 Q 189.26070038910507 211.17509727626458 216.1556420233463 189.26070038910507 L 218.14785992217898 188.26459143968873 L 218.14785992217898 188.26459143968873 L 219.14396887159532 186.27237354085602 L 219.14396887159532 186.27237354085602 Q 263.9688715953307 144.43579766536965 320.74708171206225 144.43579766536965 L 320.74708171206225 168.34241245136187 L 320.74708171206225 168.34241245136187 L 320.74708171206225 192.24902723735408 L 320.74708171206225 192.24902723735408 L 368.5603112840467 192.24902723735408 L 368.5603112840467 192.24902723735408 L 368.5603112840467 168.34241245136187 L 368.5603112840467 168.34241245136187 L 368.5603112840467 152.4046692607004 L 368.5603112840467 152.4046692607004 L 368.5603112840467 102.59922178988327 L 368.5603112840467 102.59922178988327 Z M 416.3735408560311 303.81322957198444 L 384.49805447470817 303.81322957198444 L 416.3735408560311 303.81322957198444 L 384.49805447470817 303.81322957198444 Q 383.50194552529183 337.6809338521401 361.5875486381323 360.591439688716 Q 338.6770428015564 382.5058365758755 304.8093385214008 383.50194552529183 L 304.8093385214008 415.3774319066148 L 304.8093385214008 415.3774319066148 Q 352.6225680933852 414.38132295719845 383.50194552529183 382.5058365758755 Q 415.3774319066148 351.6264591439689 416.3735408560311 303.81322957198444 L 416.3735408560311 303.81322957198444 Z" />
</svg>