<svg xmlns="http://www.w3.org/2000/svg" viewBox="0 0 512 512">
  <path d="M 220 0 L 271 38 L 220 0 L 271 38 L 399 134 L 399 134 L 433 160 L 433 160 L 399 186 L 399 186 L 305 256 L 305 256 L 399 326 L 399 326 L 433 352 L 433 352 L 399 378 L 399 378 L 271 474 L 271 474 L 220 512 L 220 512 L 220 448 L 220 448 L 220 320 L 220 320 L 143 378 L 143 378 L 118 397 L 118 397 L 79 346 L 79 346 L 105 326 L 105 326 L 199 256 L 199 256 L 105 186 L 105 186 L 79 166 L 79 166 L 118 115 L 118 115 L 143 134 L 143 134 L 220 192 L 220 192 L 220 64 L 220 64 L 220 0 L 220 0 Z M 284 320 L 284 384 L 284 320 L 284 384 L 327 352 L 327 352 L 284 320 L 284 320 Z M 284 192 L 327 160 L 284 192 L 327 160 L 284 128 L 284 128 L 284 192 L 284 192 Z" />
</svg>