<svg viewBox="0 0 448 448">
  <path
    d="M 48 48 L 48 208 L 144 208 L 144 48 L 48 48 L 48 48 Z M 0 0 L 48 0 L 144 0 L 192 0 L 192 48 L 192 208 L 192 256 L 144 256 L 48 256 L 0 256 L 0 208 L 0 48 L 0 0 L 0 0 Z M 304 240 L 304 400 L 400 400 L 400 240 L 304 240 L 304 240 Z M 256 192 L 304 192 L 400 192 L 448 192 L 448 240 L 448 400 L 448 448 L 400 448 L 304 448 L 256 448 L 256 400 L 256 240 L 256 192 L 256 192 Z M 144 336 L 48 336 L 48 400 L 144 400 L 144 336 L 144 336 Z M 48 288 L 144 288 L 192 288 L 192 336 L 192 400 L 192 448 L 144 448 L 48 448 L 0 448 L 0 400 L 0 336 L 0 288 L 48 288 L 48 288 Z M 304 48 L 304 112 L 400 112 L 400 48 L 304 48 L 304 48 Z M 256 0 L 304 0 L 400 0 L 448 0 L 448 48 L 448 112 L 448 160 L 400 160 L 304 160 L 256 160 L 256 112 L 256 48 L 256 0 L 256 0 Z"
  />
</svg>