<svg xmlns="http://www.w3.org/2000/svg" viewBox="0 0 640 288">
    <path d="M 144 256 Q 174 256 200 241 L 200 241 Q 226 226 241 200 Q 256 174 256 144 Q 256 114 241 88 Q 226 62 200 47 Q 174 32 144 32 Q 114 32 88 47 Q 62 62 47 88 Q 32 114 32 144 Q 32 174 47 200 Q 62 226 88 241 Q 114 256 144 256 L 144 256 Z M 288 144 Q 288 178 273 207 L 273 207 Q 259 236 235 256 L 406 256 Q 381 236 367 207 Q 352 178 352 144 Q 354 83 394 42 Q 435 2 496 0 Q 557 2 598 42 Q 638 83 640 144 Q 638 205 598 246 Q 557 286 496 288 L 144 288 Q 83 286 42 246 Q 2 205 0 144 Q 2 83 42 42 Q 83 2 144 0 Q 205 2 246 42 Q 286 83 288 144 L 288 144 Z M 496 256 Q 526 256 552 241 L 552 241 Q 578 226 593 200 Q 608 174 608 144 Q 608 114 593 88 Q 578 62 552 47 Q 526 32 496 32 Q 466 32 440 47 Q 414 62 399 88 Q 384 114 384 144 Q 384 174 399 200 Q 414 226 440 241 Q 466 256 496 256 L 496 256 Z"/>
</svg>
