<svg xmlns="http://www.w3.org/2000/svg" viewBox="0 0 512 512">
  <path d="M 150.87147335423197 60.990595611285265 L 159.69905956112854 51.36050156739812 L 150.87147335423197 60.990595611285265 L 159.69905956112854 51.36050156739812 L 178.15673981191222 69.81818181818181 L 178.15673981191222 69.81818181818181 L 168.52664576802508 78.64576802507837 L 168.52664576802508 78.64576802507837 L 158.89655172413794 89.07836990595611 L 158.89655172413794 89.07836990595611 L 237.5423197492163 168.52664576802508 L 237.5423197492163 168.52664576802508 L 219.8871473354232 186.1818181818182 L 219.8871473354232 186.1818181818182 L 140.43887147335423 107.53605015673982 L 140.43887147335423 107.53605015673982 L 56.175548589341695 191.79937304075236 L 56.175548589341695 191.79937304075236 L 140.43887147335423 276.0626959247649 L 140.43887147335423 276.0626959247649 L 192.60188087774296 224.70219435736678 L 192.60188087774296 224.70219435736678 L 182.9717868338558 270.44514106583074 L 182.9717868338558 270.44514106583074 L 158.89655172413794 294.52037617554856 L 158.89655172413794 294.52037617554856 L 174.94670846394985 310.5705329153605 L 174.94670846394985 310.5705329153605 L 169.32915360501568 339.4608150470219 L 169.32915360501568 339.4608150470219 L 168.52664576802508 340.26332288401255 L 168.52664576802508 340.26332288401255 L 131.61128526645768 303.34796238244513 L 131.61128526645768 303.34796238244513 L 37.71786833855799 210.25705329153604 L 37.71786833855799 210.25705329153604 L 27.28526645768025 219.8871473354232 L 27.28526645768025 219.8871473354232 L 18.4576802507837 229.51724137931035 L 18.4576802507837 229.51724137931035 L 0 211.05956112852664 L 0 211.05956112852664 L 9.630094043887148 202.2319749216301 L 9.630094043887148 202.2319749216301 L 150.87147335423197 60.990595611285265 L 150.87147335423197 60.990595611285265 Z M 308.16300940438873 377.1786833855799 L 337.8557993730407 371.56112852664575 L 308.16300940438873 377.1786833855799 L 337.8557993730407 371.56112852664575 L 399.6489028213166 433.3542319749216 L 399.6489028213166 433.3542319749216 L 409.27899686520374 442.1818181818182 L 409.27899686520374 442.1818181818182 L 390.8213166144201 460.6394984326019 L 390.8213166144201 460.6394984326019 L 381.9937304075235 451.00940438871476 L 381.9937304075235 451.00940438871476 L 308.16300940438873 377.1786833855799 L 308.16300940438873 377.1786833855799 Z M 361.12852664576803 60.990595611285265 L 502.36990595611286 202.2319749216301 L 361.12852664576803 60.990595611285265 L 502.36990595611286 202.2319749216301 L 512 211.05956112852664 L 512 211.05956112852664 L 493.5423197492163 229.51724137931035 L 493.5423197492163 229.51724137931035 L 484.7147335423198 219.8871473354232 L 484.7147335423198 219.8871473354232 L 343.4733542319749 78.64576802507837 L 343.4733542319749 78.64576802507837 L 333.84326018808775 69.81818181818181 L 333.84326018808775 69.81818181818181 L 352.30094043887146 51.36050156739812 L 352.30094043887146 51.36050156739812 L 361.12852664576803 60.990595611285265 L 361.12852664576803 60.990595611285265 Z M 221.49216300940438 221.49216300940438 L 260.01253918495297 182.9717868338558 L 221.49216300940438 221.49216300940438 L 260.01253918495297 182.9717868338558 L 260.01253918495297 182.9717868338558 L 260.01253918495297 182.9717868338558 L 260.01253918495297 182.9717868338558 L 260.01253918495297 182.9717868338558 L 335.44827586206895 107.53605015673982 L 335.44827586206895 107.53605015673982 L 353.1034482758621 125.19122257053291 L 353.1034482758621 125.19122257053291 L 287.29780564263325 191.79937304075236 L 287.29780564263325 191.79937304075236 L 371.56112852664575 276.0626959247649 L 371.56112852664575 276.0626959247649 L 438.1692789968652 210.25705329153604 L 438.1692789968652 210.25705329153604 L 455.8244514106583 227.91222570532915 L 455.8244514106583 227.91222570532915 L 380.3887147335423 303.34796238244513 L 380.3887147335423 303.34796238244513 L 341.86833855799375 341.86833855799375 L 341.86833855799375 341.86833855799375 L 339.4608150470219 345.0783699059561 L 339.4608150470219 345.0783699059561 L 335.44827586206895 345.8808777429467 L 335.44827586206895 345.8808777429467 L 211.05956112852664 370.7586206896552 L 211.05956112852664 370.7586206896552 L 130.00626959247649 451.00940438871476 L 130.00626959247649 451.00940438871476 L 121.17868338557994 460.6394984326019 L 121.17868338557994 460.6394984326019 L 102.72100313479623 442.1818181818182 L 102.72100313479623 442.1818181818182 L 112.35109717868339 433.3542319749216 L 112.35109717868339 433.3542319749216 L 192.60188087774296 352.30094043887146 L 192.60188087774296 352.30094043887146 L 217.4796238244514 227.91222570532915 L 217.4796238244514 227.91222570532915 L 218.282131661442 223.89968652037618 L 218.282131661442 223.89968652037618 L 221.49216300940438 221.49216300940438 L 221.49216300940438 221.49216300940438 Z M 242.3573667711599 236.73981191222572 L 220.68965517241378 342.6708463949843 L 242.3573667711599 236.73981191222572 L 220.68965517241378 342.6708463949843 L 326.62068965517244 321.00313479623827 L 326.62068965517244 321.00313479623827 L 353.1034482758621 294.52037617554856 L 353.1034482758621 294.52037617554856 L 268.84012539184954 210.25705329153604 L 268.84012539184954 210.25705329153604 L 242.3573667711599 236.73981191222572 L 242.3573667711599 236.73981191222572 Z" />
</svg>