<svg xmlns="http://www.w3.org/2000/svg" viewBox="0 0 512 512">
  <path d="M 0 341.3333333333333 Q 14.222222222222221 335.1111111111111 26.666666666666668 328.8888888888889 Q 84.44444444444444 301.3333333333333 114.66666666666667 278.22222222222223 Q 145.77777777777777 256 161.77777777777777 236.44444444444446 Q 176.88888888888889 216.88888888888889 187.55555555555554 197.33333333333334 Q 199.11111111111111 176 217.77777777777777 152 Q 237.33333333333334 128 279.1111111111111 97.77777777777777 Q 320 67.55555555555556 398.22222222222223 28.444444444444443 L 494.22222222222223 148.44444444444446 L 494.22222222222223 148.44444444444446 L 512 170.66666666666666 L 512 170.66666666666666 Q 498.6666666666667 177.77777777777777 486.22222222222223 184 Q 419.55555555555554 219.55555555555554 383.1111111111111 247.11111111111111 Q 346.6666666666667 274.6666666666667 329.77777777777777 296.8888888888889 Q 312 319.1111111111111 301.3333333333333 339.55555555555554 Q 301.3333333333333 339.55555555555554 301.3333333333333 339.55555555555554 Q 301.3333333333333 339.55555555555554 301.3333333333333 339.55555555555554 Q 289.77777777777777 360 272.8888888888889 381.3333333333333 Q 256 402.6666666666667 219.55555555555554 427.55555555555554 Q 183.11111111111111 452.44444444444446 113.77777777777777 483.55555555555554 L 18.666666666666668 364.44444444444446 L 18.666666666666668 364.44444444444446 L 0 341.3333333333333 L 0 341.3333333333333 Z M 73.77777777777777 388.44444444444446 Q 148.44444444444446 348.44444444444446 187.55555555555554 308.44444444444446 L 187.55555555555554 308.44444444444446 L 187.55555555555554 308.44444444444446 Q 226.66666666666666 267.55555555555554 252.44444444444446 230.22222222222223 L 252.44444444444446 230.22222222222223 L 252.44444444444446 230.22222222222223 Q 252.44444444444446 230.22222222222223 252.44444444444446 230.22222222222223 L 255.11111111111111 226.66666666666666 L 255.11111111111111 226.66666666666666 Q 282.6666666666667 185.77777777777777 321.77777777777777 150.22222222222223 Q 357.3333333333333 120 417.77777777777777 98.66666666666667 L 390.22222222222223 64 L 390.22222222222223 64 Q 342.22222222222223 89.77777777777777 312 109.33333333333333 Q 280.8888888888889 129.77777777777777 263.1111111111111 146.66666666666666 Q 243.55555555555554 164.44444444444446 232.88888888888889 179.55555555555554 Q 221.33333333333334 194.66666666666666 213.33333333333334 209.77777777777777 L 211.55555555555554 211.55555555555554 L 211.55555555555554 211.55555555555554 Q 211.55555555555554 212.44444444444446 211.55555555555554 212.44444444444446 Q 202.66666666666666 228.44444444444446 190.22222222222223 245.33333333333334 Q 177.77777777777777 263.1111111111111 157.33333333333334 281.77777777777777 Q 122.66666666666667 313.77777777777777 44.44444444444444 352 L 73.77777777777777 388.44444444444446 L 73.77777777777777 388.44444444444446 Z M 91.55555555555556 410.6666666666667 L 121.77777777777777 448.8888888888889 L 91.55555555555556 410.6666666666667 L 121.77777777777777 448.8888888888889 Q 164.44444444444446 428.44444444444446 191.11111111111111 411.55555555555554 Q 217.77777777777777 394.6666666666667 232.88888888888889 381.3333333333333 Q 248.88888888888889 367.1111111111111 258.6666666666667 353.77777777777777 Q 268.44444444444446 339.55555555555554 277.3333333333333 324.44444444444446 L 277.3333333333333 323.55555555555554 L 277.3333333333333 323.55555555555554 Q 287.1111111111111 306.6666666666667 300.44444444444446 288 Q 314.6666666666667 268.44444444444446 338.6666666666667 246.22222222222223 Q 378.6666666666667 209.77777777777777 468.44444444444446 161.77777777777777 L 437.3333333333333 122.66666666666667 L 437.3333333333333 122.66666666666667 Q 373.3333333333333 143.11111111111111 340.44444444444446 172.44444444444446 Q 305.77777777777777 203.55555555555554 278.22222222222223 243.55555555555554 L 275.55555555555554 246.22222222222223 L 275.55555555555554 246.22222222222223 Q 275.55555555555554 247.11111111111111 275.55555555555554 247.11111111111111 Q 248.88888888888889 285.3333333333333 208 327.1111111111111 Q 168 368.8888888888889 91.55555555555556 410.6666666666667 L 91.55555555555556 410.6666666666667 Z" />
</svg>