<svg xmlns="http://www.w3.org/2000/svg" viewBox="0 0 578 384">
    <path d="M 322 0 Q 383 2 442 36 L 442 36 Q 500 69 538 114 L 538 114 Q 577 158 578 192 Q 577 226 538 270 Q 500 315 442 348 Q 383 382 322 384 Q 265 383 210 352 Q 155 322 116 281 Q 105 272 93 280 L 28 332 Q 19 339 9 334 Q 0 327 2 316 L 33 196 Q 33 192 33 188 L 3 68 Q 0 57 9 51 Q 18 45 27 51 L 99 100 Q 110 107 120 98 Q 159 58 213 30 Q 266 1 322 0 L 322 0 Z M 317 85 Q 306 75 295 85 L 231 149 Q 221 160 231 171 Q 242 181 253 171 L 317 107 Q 327 96 317 85 L 317 85 Z M 429 101 Q 418 91 407 101 L 247 261 Q 237 272 247 283 Q 258 293 269 283 L 429 123 Q 439 112 429 101 L 429 101 Z M 445 213 Q 434 203 423 213 L 359 277 Q 349 288 359 299 Q 370 309 381 299 L 445 235 Q 455 224 445 213 L 445 213 Z"/>
</svg>
