<svg xmlns="http://www.w3.org/2000/svg" viewBox="0 0 512 512">
  <path d="M 25.440993788819874 147.08074534161491 Q 9.540372670807454 156.62111801242236 4.770186335403727 174.11180124223603 L 4.770186335403727 174.11180124223603 L 4.770186335403727 174.11180124223603 Q 0 190.80745341614906 9.540372670807454 207.50310559006212 L 142.31055900621118 437.2670807453416 L 142.31055900621118 437.2670807453416 Q 151.85093167701862 453.167701863354 168.54658385093168 457.9378881987578 Q 186.03726708074535 462.7080745341615 202.73291925465838 453.9627329192547 L 355.37888198757764 364.9192546583851 L 355.37888198757764 364.9192546583851 Q 372.0745341614907 355.37888198757764 376.0496894409938 337.888198757764 Q 380.8198757763975 321.1925465838509 372.0745341614907 304.4968944099379 L 239.30434782608697 74.73291925465838 L 239.30434782608697 74.73291925465838 Q 228.9689440993789 58.83229813664596 212.27329192546583 54.06211180124224 Q 194.7826086956522 49.29192546583851 178.88198757763976 58.83229813664596 L 25.440993788819874 147.08074534161491 L 25.440993788819874 147.08074534161491 Z M 368.0993788819876 387.1801242236025 L 260.7701863354037 449.1925465838509 L 368.0993788819876 387.1801242236025 L 260.7701863354037 449.1925465838509 Q 272.69565217391306 459.527950310559 289.39130434782606 459.527950310559 L 467.4782608695652 459.527950310559 L 467.4782608695652 459.527950310559 Q 486.55900621118013 458.7329192546584 499.27950310559004 446.8074534161491 Q 511.2049689440994 434.0869565217391 512 415.00621118012424 L 512 147.87577639751552 L 512 147.87577639751552 Q 511.2049689440994 128.7950310559006 499.27950310559004 116.07453416149069 Q 486.55900621118013 104.14906832298136 467.4782608695652 103.35403726708074 L 289.39130434782606 103.35403726708074 L 289.39130434782606 103.35403726708074 Q 287.00621118012424 103.35403726708074 285.41614906832297 103.35403726708074 Q 285.41614906832297 103.35403726708074 285.41614906832297 103.35403726708074 L 394.3354037267081 291.77639751552795 L 394.3354037267081 291.77639751552795 Q 407.85093167701865 318.0124223602484 400.69565217391306 345.04347826086956 Q 393.54037267080747 371.27950310559004 368.0993788819876 387.1801242236025 L 368.0993788819876 387.1801242236025 Z" />
</svg>