<svg xmlns="http://www.w3.org/2000/svg" viewBox="0 0 512 512">
  <path d="M 32.43664717348928 239.53216374269005 Q 31.43859649122807 139.7270955165692 84.33528265107212 71.85964912280701 L 84.33528265107212 71.85964912280701 L 84.33528265107212 71.85964912280701 Q 137.2319688109162 2.9941520467836256 256 0 Q 374.76803118908384 2.9941520467836256 427.66471734892787 71.85964912280701 Q 480.56140350877195 139.7270955165692 479.5633528265107 239.53216374269005 Q 482.55750487329436 382.2534113060429 433.6530214424951 447.1267056530214 Q 385.7465886939571 512 256 511.00194931773876 Q 127.25146198830409 512 78.34697855750487 447.1267056530214 Q 29.44249512670565 382.2534113060429 32.43664717348928 239.53216374269005 L 32.43664717348928 239.53216374269005 Z M 192.12475633528265 103.79727095516569 Q 214.08187134502924 101.80116959064327 216.07797270955166 79.84405458089668 Q 214.08187134502924 57.886939571150094 192.12475633528265 55.89083820662768 Q 170.16764132553607 57.886939571150094 168.17153996101365 79.84405458089668 Q 170.16764132553607 101.80116959064327 192.12475633528265 103.79727095516569 L 192.12475633528265 103.79727095516569 Z M 279.953216374269 127.75048732943469 Q 277.9571150097466 105.7933723196881 256 103.79727095516569 Q 234.0428849902534 105.7933723196881 232.046783625731 127.75048732943469 Q 234.0428849902534 149.70760233918128 256 151.7037037037037 Q 277.9571150097466 149.70760233918128 279.953216374269 127.75048732943469 L 279.953216374269 127.75048732943469 Z M 208.093567251462 343.32943469785573 Q 230.05068226120858 341.3333333333333 232.046783625731 319.3762183235867 Q 230.05068226120858 297.41910331384014 208.093567251462 295.4230019493177 Q 186.1364522417154 297.41910331384014 184.140350877193 319.3762183235867 Q 186.1364522417154 341.3333333333333 208.093567251462 343.32943469785573 L 208.093567251462 343.32943469785573 Z M 208.093567251462 407.2046783625731 Q 230.05068226120858 405.20857699805066 232.046783625731 383.2514619883041 Q 230.05068226120858 361.2943469785575 208.093567251462 359.29824561403507 Q 186.1364522417154 361.2943469785575 184.140350877193 383.2514619883041 Q 186.1364522417154 405.20857699805066 208.093567251462 407.2046783625731 L 208.093567251462 407.2046783625731 Z M 232.046783625731 447.1267056530214 Q 230.05068226120858 425.16959064327483 208.093567251462 423.1734892787524 Q 186.1364522417154 425.16959064327483 184.140350877193 447.1267056530214 Q 186.1364522417154 469.083820662768 208.093567251462 471.0799220272904 Q 230.05068226120858 469.083820662768 232.046783625731 447.1267056530214 L 232.046783625731 447.1267056530214 Z M 303.906432748538 343.32943469785573 Q 325.8635477582846 341.3333333333333 327.859649122807 319.3762183235867 Q 325.8635477582846 297.41910331384014 303.906432748538 295.4230019493177 Q 281.9493177387914 297.41910331384014 279.953216374269 319.3762183235867 Q 281.9493177387914 341.3333333333333 303.906432748538 343.32943469785573 L 303.906432748538 343.32943469785573 Z M 343.82846003898635 79.84405458089668 Q 341.83235867446393 57.886939571150094 319.87524366471735 55.89083820662768 Q 297.91812865497076 57.886939571150094 295.92202729044834 79.84405458089668 Q 297.91812865497076 101.80116959064327 319.87524366471735 103.79727095516569 Q 341.83235867446393 101.80116959064327 343.82846003898635 79.84405458089668 L 343.82846003898635 79.84405458089668 Z M 303.906432748538 407.2046783625731 Q 325.8635477582846 405.20857699805066 327.859649122807 383.2514619883041 Q 325.8635477582846 361.2943469785575 303.906432748538 359.29824561403507 Q 281.9493177387914 361.2943469785575 279.953216374269 383.2514619883041 Q 281.9493177387914 405.20857699805066 303.906432748538 407.2046783625731 L 303.906432748538 407.2046783625731 Z M 327.859649122807 447.1267056530214 Q 325.8635477582846 425.16959064327483 303.906432748538 423.1734892787524 Q 281.9493177387914 425.16959064327483 279.953216374269 447.1267056530214 Q 281.9493177387914 469.083820662768 303.906432748538 471.0799220272904 Q 325.8635477582846 469.083820662768 327.859649122807 447.1267056530214 L 327.859649122807 447.1267056530214 Z M 160.18713450292398 271.4697855750487 Q 187.1345029239766 270.47173489278754 205.09941520467837 252.50682261208576 L 205.09941520467837 252.50682261208576 L 205.09941520467837 252.50682261208576 Q 223.06432748538012 234.541910331384 224.06237816764133 207.59454191033137 Q 224.06237816764133 193.62183235867445 215.07992202729045 184.63937621832358 Q 206.09746588693957 175.6569200779727 192.12475633528265 175.6569200779727 L 128.2495126705653 175.6569200779727 L 128.2495126705653 175.6569200779727 Q 114.27680311890838 175.6569200779727 105.2943469785575 184.63937621832358 Q 96.31189083820662 193.62183235867445 96.31189083820662 207.59454191033137 Q 97.30994152046783 234.541910331384 115.27485380116958 252.50682261208576 Q 133.23976608187135 270.47173489278754 160.18713450292398 271.4697855750487 L 160.18713450292398 271.4697855750487 Z M 415.68810916179336 207.59454191033137 Q 415.68810916179336 193.62183235867445 406.7056530214425 184.63937621832358 L 406.7056530214425 184.63937621832358 L 406.7056530214425 184.63937621832358 Q 397.7231968810916 175.6569200779727 383.7504873294347 175.6569200779727 L 319.87524366471735 175.6569200779727 L 319.87524366471735 175.6569200779727 Q 305.9025341130604 175.6569200779727 296.9200779727096 184.63937621832358 Q 287.9376218323587 193.62183235867445 287.9376218323587 207.59454191033137 Q 288.9356725146199 234.541910331384 306.90058479532166 252.50682261208576 Q 324.8654970760234 270.47173489278754 351.812865497076 271.4697855750487 Q 378.7602339181287 270.47173489278754 396.72514619883043 252.50682261208576 Q 414.6900584795322 234.541910331384 415.68810916179336 207.59454191033137 L 415.68810916179336 207.59454191033137 Z" />
</svg>