<svg xmlns="http://www.w3.org/2000/svg" viewBox="0 0 512 512">
  <path d="M 256 28.444444444444443 L 355.55555555555554 28.444444444444443 L 256 28.444444444444443 L 355.55555555555554 28.444444444444443 Q 368.8888888888889 29.333333333333332 369.77777777777777 42.666666666666664 L 369.77777777777777 99.55555555555556 L 369.77777777777777 99.55555555555556 Q 368.8888888888889 112.88888888888889 355.55555555555554 113.77777777777777 L 285.3333333333333 113.77777777777777 L 285.3333333333333 113.77777777777777 L 364.44444444444446 170.66666666666666 L 364.44444444444446 170.66666666666666 L 455.1111111111111 170.66666666666666 L 455.1111111111111 170.66666666666666 Q 479.1111111111111 171.55555555555554 495.1111111111111 187.55555555555554 Q 511.1111111111111 203.55555555555554 512 227.55555555555554 L 512 426.6666666666667 L 512 426.6666666666667 Q 511.1111111111111 450.6666666666667 495.1111111111111 466.6666666666667 Q 479.1111111111111 482.6666666666667 455.1111111111111 483.55555555555554 L 298.6666666666667 483.55555555555554 L 298.6666666666667 483.55555555555554 L 298.6666666666667 384 L 298.6666666666667 384 Q 297.77777777777777 366.22222222222223 286.22222222222223 353.77777777777777 Q 273.77777777777777 342.22222222222223 256 341.3333333333333 Q 238.22222222222223 342.22222222222223 225.77777777777777 353.77777777777777 Q 214.22222222222223 366.22222222222223 213.33333333333334 384 L 213.33333333333334 483.55555555555554 L 213.33333333333334 483.55555555555554 L 56.888888888888886 483.55555555555554 L 56.888888888888886 483.55555555555554 Q 32.888888888888886 482.6666666666667 16.88888888888889 466.6666666666667 Q 0.8888888888888888 450.6666666666667 0 426.6666666666667 L 0 227.55555555555554 L 0 227.55555555555554 Q 0.8888888888888888 203.55555555555554 16.88888888888889 187.55555555555554 Q 32.888888888888886 171.55555555555554 56.888888888888886 170.66666666666666 L 147.55555555555554 170.66666666666666 L 147.55555555555554 170.66666666666666 L 227.55555555555554 113.77777777777777 L 227.55555555555554 113.77777777777777 L 227.55555555555554 56.888888888888886 L 227.55555555555554 56.888888888888886 Q 227.55555555555554 44.44444444444444 235.55555555555554 36.44444444444444 Q 243.55555555555554 28.444444444444443 256 28.444444444444443 L 256 28.444444444444443 Z M 298.6666666666667 241.77777777777777 Q 297.77777777777777 217.77777777777777 277.3333333333333 204.44444444444446 Q 256 193.77777777777777 234.66666666666666 204.44444444444446 Q 214.22222222222223 217.77777777777777 213.33333333333334 241.77777777777777 Q 214.22222222222223 265.77777777777777 234.66666666666666 279.1111111111111 Q 256 289.77777777777777 277.3333333333333 279.1111111111111 Q 297.77777777777777 265.77777777777777 298.6666666666667 241.77777777777777 L 298.6666666666667 241.77777777777777 Z M 71.11111111111111 227.55555555555554 Q 57.77777777777778 228.44444444444446 56.888888888888886 241.77777777777777 L 56.888888888888886 298.6666666666667 L 56.888888888888886 298.6666666666667 Q 57.77777777777778 312 71.11111111111111 312.8888888888889 L 99.55555555555556 312.8888888888889 L 99.55555555555556 312.8888888888889 Q 112.88888888888889 312 113.77777777777777 298.6666666666667 L 113.77777777777777 241.77777777777777 L 113.77777777777777 241.77777777777777 Q 112.88888888888889 228.44444444444446 99.55555555555556 227.55555555555554 L 71.11111111111111 227.55555555555554 L 71.11111111111111 227.55555555555554 Z M 398.22222222222223 241.77777777777777 L 398.22222222222223 298.6666666666667 L 398.22222222222223 241.77777777777777 L 398.22222222222223 298.6666666666667 Q 399.1111111111111 312 412.44444444444446 312.8888888888889 L 440.8888888888889 312.8888888888889 L 440.8888888888889 312.8888888888889 Q 454.22222222222223 312 455.1111111111111 298.6666666666667 L 455.1111111111111 241.77777777777777 L 455.1111111111111 241.77777777777777 Q 454.22222222222223 228.44444444444446 440.8888888888889 227.55555555555554 L 412.44444444444446 227.55555555555554 L 412.44444444444446 227.55555555555554 Q 399.1111111111111 228.44444444444446 398.22222222222223 241.77777777777777 L 398.22222222222223 241.77777777777777 Z M 71.11111111111111 341.3333333333333 Q 57.77777777777778 342.22222222222223 56.888888888888886 355.55555555555554 L 56.888888888888886 412.44444444444446 L 56.888888888888886 412.44444444444446 Q 57.77777777777778 425.77777777777777 71.11111111111111 426.6666666666667 L 99.55555555555556 426.6666666666667 L 99.55555555555556 426.6666666666667 Q 112.88888888888889 425.77777777777777 113.77777777777777 412.44444444444446 L 113.77777777777777 355.55555555555554 L 113.77777777777777 355.55555555555554 Q 112.88888888888889 342.22222222222223 99.55555555555556 341.3333333333333 L 71.11111111111111 341.3333333333333 L 71.11111111111111 341.3333333333333 Z M 412.44444444444446 341.3333333333333 Q 399.1111111111111 342.22222222222223 398.22222222222223 355.55555555555554 L 398.22222222222223 412.44444444444446 L 398.22222222222223 412.44444444444446 Q 399.1111111111111 425.77777777777777 412.44444444444446 426.6666666666667 L 440.8888888888889 426.6666666666667 L 440.8888888888889 426.6666666666667 Q 454.22222222222223 425.77777777777777 455.1111111111111 412.44444444444446 L 455.1111111111111 355.55555555555554 L 455.1111111111111 355.55555555555554 Q 454.22222222222223 342.22222222222223 440.8888888888889 341.3333333333333 L 412.44444444444446 341.3333333333333 L 412.44444444444446 341.3333333333333 Z" />
</svg>