<svg xmlns="http://www.w3.org/2000/svg" viewBox="0 0 512 512">
  <path d="M 268.9242718446602 2.9825242718446603 Q 262.95922330097085 0 256 0 Q 249.04077669902912 0 243.07572815533982 2.9825242718446603 L 55.17669902912621 82.51650485436893 L 55.17669902912621 82.51650485436893 Q 38.275728155339806 89.47572815533981 28.333980582524273 104.3883495145631 Q 17.398058252427184 119.30097087378641 17.398058252427184 139.18446601941747 Q 16.40388349514563 189.8873786407767 34.29902912621359 258.4854368932039 Q 52.19417475728155 327.08349514563105 98.92038834951457 391.70485436893205 Q 144.652427184466 457.3203883495146 230.1514563106796 500.0699029126214 Q 256 512 281.84854368932037 500.0699029126214 Q 367.34757281553397 457.3203883495146 413.07961165048545 391.70485436893205 Q 459.80582524271847 327.08349514563105 477.7009708737864 258.4854368932039 Q 495.59611650485436 189.8873786407767 494.6019417475728 139.18446601941747 Q 494.6019417475728 119.30097087378641 483.66601941747575 104.3883495145631 Q 473.7242718446602 89.47572815533981 456.8233009708738 82.51650485436893 L 268.9242718446602 2.9825242718446603 L 268.9242718446602 2.9825242718446603 Z M 81.0252427184466 140.17864077669904 L 256 66.60970873786408 L 81.0252427184466 140.17864077669904 L 256 66.60970873786408 L 256 222.69514563106796 L 256 222.69514563106796 L 90.96699029126214 222.69514563106796 L 90.96699029126214 222.69514563106796 Q 81.0252427184466 176.9631067961165 81.0252427184466 140.17864077669904 L 81.0252427184466 140.17864077669904 Z M 256 442.40776699029124 L 256 222.69514563106796 L 256 442.40776699029124 L 256 222.69514563106796 L 421.03300970873784 222.69514563106796 L 421.03300970873784 222.69514563106796 Q 408.1087378640777 284.33398058252425 369.3359223300971 343.9844660194175 Q 330.56310679611653 404.62912621359226 256 442.40776699029124 L 256 442.40776699029124 Z" />
</svg>