<svg xmlns="http://www.w3.org/2000/svg" viewBox="0 0 512 512">
  <path d="M 109.71428571428571 0 Q 125.71428571428571 0 136 10.285714285714286 L 136 10.285714285714286 L 136 10.285714285714286 Q 146.28571428571428 20.571428571428573 146.28571428571428 36.57142857142857 L 146.28571428571428 475.42857142857144 L 146.28571428571428 475.42857142857144 Q 146.28571428571428 491.42857142857144 136 501.7142857142857 Q 125.71428571428571 512 109.71428571428571 512 Q 93.71428571428571 512 83.42857142857143 501.7142857142857 Q 73.14285714285714 491.42857142857144 73.14285714285714 475.42857142857144 L 73.14285714285714 36.57142857142857 L 73.14285714285714 36.57142857142857 Q 73.14285714285714 20.571428571428573 83.42857142857143 10.285714285714286 Q 93.71428571428571 0 109.71428571428571 0 L 109.71428571428571 0 Z M 256 0 Q 272 0 282.2857142857143 10.285714285714286 L 282.2857142857143 10.285714285714286 L 282.2857142857143 10.285714285714286 Q 292.57142857142856 20.571428571428573 292.57142857142856 36.57142857142857 L 292.57142857142856 475.42857142857144 L 292.57142857142856 475.42857142857144 Q 292.57142857142856 491.42857142857144 282.2857142857143 501.7142857142857 Q 272 512 256 512 Q 240 512 229.71428571428572 501.7142857142857 Q 219.42857142857142 491.42857142857144 219.42857142857142 475.42857142857144 L 219.42857142857142 36.57142857142857 L 219.42857142857142 36.57142857142857 Q 219.42857142857142 20.571428571428573 229.71428571428572 10.285714285714286 Q 240 0 256 0 L 256 0 Z M 438.85714285714283 36.57142857142857 L 438.85714285714283 475.42857142857144 L 438.85714285714283 36.57142857142857 L 438.85714285714283 475.42857142857144 Q 438.85714285714283 491.42857142857144 428.57142857142856 501.7142857142857 Q 418.2857142857143 512 402.2857142857143 512 Q 386.2857142857143 512 376 501.7142857142857 Q 365.7142857142857 491.42857142857144 365.7142857142857 475.42857142857144 L 365.7142857142857 36.57142857142857 L 365.7142857142857 36.57142857142857 Q 365.7142857142857 20.571428571428573 376 10.285714285714286 Q 386.2857142857143 0 402.2857142857143 0 Q 418.2857142857143 0 428.57142857142856 10.285714285714286 Q 438.85714285714283 20.571428571428573 438.85714285714283 36.57142857142857 L 438.85714285714283 36.57142857142857 Z" />
</svg>