<svg xmlns="http://www.w3.org/2000/svg" viewBox="0 0 512 512">
  <path d="M 73.14286 0 Q 42.285713 1.1428572 21.714285 21.714285 L 21.714285 21.714285 L 21.714285 21.714285 Q 1.1428572 42.285713 0 73.14286 L 0 438.85715 L 0 438.85715 Q 1.1428572 469.7143 21.714285 490.2857 Q 42.285713 510.85715 73.14286 512 L 438.85715 512 L 438.85715 512 Q 469.7143 510.85715 490.2857 490.2857 Q 510.85715 469.7143 512 438.85715 L 512 73.14286 L 512 73.14286 Q 510.85715 42.285713 490.2857 21.714285 Q 469.7143 1.1428572 438.85715 0 L 73.14286 0 L 73.14286 0 Z M 146.28572 219.42857 Q 162.28572 219.42857 172.57143 229.71428 L 172.57143 229.71428 L 172.57143 229.71428 Q 182.85715 240 182.85715 256 L 182.85715 365.7143 L 182.85715 365.7143 Q 182.85715 381.7143 172.57143 392 Q 162.28572 402.2857 146.28572 402.2857 Q 130.28572 402.2857 120 392 Q 109.71429 381.7143 109.71429 365.7143 L 109.71429 256 L 109.71429 256 Q 109.71429 240 120 229.71428 Q 130.28572 219.42857 146.28572 219.42857 L 146.28572 219.42857 Z M 219.42857 146.28572 Q 219.42857 130.28572 229.71428 120 L 229.71428 120 L 229.71428 120 Q 240 109.71429 256 109.71429 Q 272 109.71429 282.2857 120 Q 292.57144 130.28572 292.57144 146.28572 L 292.57144 365.7143 L 292.57144 365.7143 Q 292.57144 381.7143 282.2857 392 Q 272 402.2857 256 402.2857 Q 240 402.2857 229.71428 392 Q 219.42857 381.7143 219.42857 365.7143 L 219.42857 146.28572 L 219.42857 146.28572 Z M 365.7143 292.57144 Q 381.7143 292.57144 392 302.85715 L 392 302.85715 L 392 302.85715 Q 402.2857 313.14285 402.2857 329.14285 L 402.2857 365.7143 L 402.2857 365.7143 Q 402.2857 381.7143 392 392 Q 381.7143 402.2857 365.7143 402.2857 Q 349.7143 402.2857 339.42856 392 Q 329.14285 381.7143 329.14285 365.7143 L 329.14285 329.14285 L 329.14285 329.14285 Q 329.14285 313.14285 339.42856 302.85715 Q 349.7143 292.57144 365.7143 292.57144 L 365.7143 292.57144 Z" />
</svg>