<svg xmlns="http://www.w3.org/2000/svg" viewBox="0 0 512 512">
  <path d="M 36.01223241590214 59.49847094801223 Q 21.137614678899084 50.103975535168196 9.394495412844037 62.62996941896024 Q 0 77.5045871559633 12.525993883792049 89.24770642201835 L 475.98776758409787 452.50152905198775 L 475.98776758409787 452.50152905198775 Q 490.86238532110093 461.8960244648318 502.60550458715596 449.37003058103977 Q 512 434.4954128440367 499.47400611620793 422.7522935779817 L 481.4678899082569 408.6605504587156 L 481.4678899082569 408.6605504587156 L 481.4678899082569 80.63608562691131 L 481.4678899082569 80.63608562691131 Q 481.4678899082569 69.67584097859327 474.42201834862385 62.62996941896024 Q 467.3761467889908 55.584097859327215 456.41590214067276 55.584097859327215 Q 445.45565749235476 55.584097859327215 438.4097859327217 62.62996941896024 Q 431.3639143730887 69.67584097859327 431.3639143730887 80.63608562691131 L 431.3639143730887 369.5168195718654 L 431.3639143730887 369.5168195718654 L 381.2599388379205 330.3730886850153 L 381.2599388379205 330.3730886850153 L 381.2599388379205 155.79204892966362 L 381.2599388379205 155.79204892966362 Q 381.2599388379205 144.83180428134557 374.2140672782875 137.78593272171253 Q 367.16819571865443 130.7400611620795 356.2079510703364 130.7400611620795 Q 345.2477064220183 130.7400611620795 338.20183486238534 137.78593272171253 Q 331.1559633027523 144.83180428134557 331.1559633027523 155.79204892966362 L 331.1559633027523 291.22935779816515 L 331.1559633027523 291.22935779816515 L 281.0519877675841 252.085626911315 L 281.0519877675841 252.085626911315 L 281.0519877675841 230.9480122324159 L 281.0519877675841 230.9480122324159 Q 281.0519877675841 219.98776758409787 274.0061162079511 212.94189602446482 Q 266.96024464831805 205.8960244648318 256 205.8960244648318 Q 242.69113149847095 206.67889908256882 235.6452599388379 216.07339449541286 L 36.01223241590214 59.49847094801223 L 36.01223241590214 59.49847094801223 Z M 456.41590214067276 456.41590214067276 L 456.41590214067276 456.41590214067276 L 456.41590214067276 456.41590214067276 L 456.41590214067276 456.41590214067276 L 456.41590214067276 456.41590214067276 L 456.41590214067276 456.41590214067276 L 456.41590214067276 456.41590214067276 L 456.41590214067276 456.41590214067276 Z M 381.2599388379205 431.3639143730887 L 381.2599388379205 426.6666666666667 L 381.2599388379205 431.3639143730887 L 381.2599388379205 426.6666666666667 L 331.1559633027523 387.5229357798165 L 331.1559633027523 387.5229357798165 L 331.1559633027523 431.3639143730887 L 331.1559633027523 431.3639143730887 Q 331.1559633027523 442.32415902140673 338.20183486238534 449.37003058103977 Q 345.2477064220183 456.41590214067276 356.2079510703364 456.41590214067276 Q 367.16819571865443 456.41590214067276 374.2140672782875 449.37003058103977 Q 381.2599388379205 442.32415902140673 381.2599388379205 431.3639143730887 L 381.2599388379205 431.3639143730887 Z M 281.0519877675841 347.5963302752294 L 230.9480122324159 308.4525993883792 L 281.0519877675841 347.5963302752294 L 230.9480122324159 308.4525993883792 L 230.9480122324159 431.3639143730887 L 230.9480122324159 431.3639143730887 Q 230.9480122324159 442.32415902140673 237.99388379204893 449.37003058103977 Q 245.03975535168195 456.41590214067276 256 456.41590214067276 Q 266.96024464831805 456.41590214067276 274.0061162079511 449.37003058103977 Q 281.0519877675841 442.32415902140673 281.0519877675841 431.3639143730887 L 281.0519877675841 347.5963302752294 L 281.0519877675841 347.5963302752294 Z M 155.79204892966362 281.0519877675841 Q 144.83180428134557 281.0519877675841 137.78593272171253 288.0978593272171 L 137.78593272171253 288.0978593272171 L 137.78593272171253 288.0978593272171 Q 130.7400611620795 295.14373088685016 130.7400611620795 306.1039755351682 L 130.7400611620795 431.3639143730887 L 130.7400611620795 431.3639143730887 Q 130.7400611620795 442.32415902140673 137.78593272171253 449.37003058103977 Q 144.83180428134557 456.41590214067276 155.79204892966362 456.41590214067276 Q 166.75229357798165 456.41590214067276 173.7981651376147 449.37003058103977 Q 180.8440366972477 442.32415902140673 180.8440366972477 431.3639143730887 L 180.8440366972477 306.1039755351682 L 180.8440366972477 306.1039755351682 Q 180.8440366972477 295.14373088685016 173.7981651376147 288.0978593272171 Q 166.75229357798165 281.0519877675841 155.79204892966362 281.0519877675841 L 155.79204892966362 281.0519877675841 Z M 80.63608562691131 381.2599388379205 Q 80.63608562691131 370.29969418960246 73.59021406727828 363.2538226299694 L 73.59021406727828 363.2538226299694 L 73.59021406727828 363.2538226299694 Q 66.54434250764525 356.2079510703364 55.584097859327215 356.2079510703364 Q 44.62385321100918 356.2079510703364 37.57798165137615 363.2538226299694 Q 30.53211009174312 370.29969418960246 30.53211009174312 381.2599388379205 L 30.53211009174312 431.3639143730887 L 30.53211009174312 431.3639143730887 Q 30.53211009174312 442.32415902140673 37.57798165137615 449.37003058103977 Q 44.62385321100918 456.41590214067276 55.584097859327215 456.41590214067276 Q 66.54434250764525 456.41590214067276 73.59021406727828 449.37003058103977 Q 80.63608562691131 442.32415902140673 80.63608562691131 431.3639143730887 L 80.63608562691131 381.2599388379205 L 80.63608562691131 381.2599388379205 Z" />
</svg>