<svg xmlns="http://www.w3.org/2000/svg" viewBox="0 0 512 512">
  <path d="M 249.05426 17.860466 L 245.08527 10.914729 L 249.05426 17.860466 L 245.08527 10.914729 Q 240.12402 0 228.21706 0 Q 210.35658 1.9844961 207.37985 19.844961 Q 200.43411 54.573643 178.60464 79.379845 Q 156.77519 103.1938 128 125.023254 Q 128 125.023254 128 125.023254 Q 128 125.023254 128 125.023254 Q 92.27907 151.81395 63.503876 188.52713 Q 35.720932 224.24806 33.736435 285.76746 Q 34.728683 345.30234 71.441864 385.9845 Q 108.15504 425.6744 164.71318 444.52713 L 153.79845 476.27908 L 153.79845 476.27908 Q 148.8372 498.10852 168.68217 507.03876 Q 190.51163 512 199.44186 492.15503 L 211.34883 456.4341 L 211.34883 456.4341 Q 221.27132 458.4186 232.18605 459.41086 L 232.18605 484.21704 L 232.18605 484.21704 Q 234.17055 506.0465 256 508.031 Q 277.82947 506.0465 279.81396 484.21704 L 279.81396 459.41086 L 279.81396 459.41086 Q 290.72867 458.4186 300.65115 456.4341 L 312.55814 492.15503 L 312.55814 492.15503 Q 321.48837 512 343.31784 507.03876 Q 363.16278 498.10852 358.20154 476.27908 L 347.28683 444.52713 L 347.28683 444.52713 Q 403.84497 425.6744 440.55814 385.9845 Q 477.27133 345.30234 478.26358 285.76746 Q 476.27908 224.24806 448.49612 188.52713 Q 419.72092 151.81395 384 125.023254 Q 384 125.023254 384 125.023254 Q 384 125.023254 384 125.023254 Q 355.2248 103.1938 333.39536 79.379845 Q 311.5659 54.573643 305.6124 19.844961 Q 301.6434 1.9844961 283.78296 0 Q 271.87598 0 266.91473 10.914729 L 262.94574 17.860466 L 262.94574 17.860466 Q 256 26.790697 249.05426 17.860466 L 249.05426 17.860466 Z M 129.9845 184.55814 L 129.9845 183.56589 L 129.9845 184.55814 L 129.9845 183.56589 Q 130.97675 182.57364 131.969 181.58139 Q 131.969 181.58139 131.969 181.58139 Q 135.93799 175.62791 142.88373 174.63567 Q 145.86046 174.63567 148.8372 175.62791 Q 150.8217 175.62791 153.79845 177.6124 Q 159.75194 181.58139 160.74419 188.52713 Q 160.74419 191.50388 159.75194 194.48062 Q 159.75194 196.46512 158.75969 197.45737 L 158.75969 198.44962 L 158.75969 198.44962 Q 157.76744 199.44186 156.77519 201.42636 Q 155.78294 205.39536 151.81395 212.34108 Q 145.86046 227.22481 138.91473 250.04651 Q 131.969 273.86047 129.9845 298.66666 Q 128.99225 323.47287 135.93799 343.31784 Q 139.90698 358.20154 126.0155 364.15503 Q 112.12403 368.12402 106.17054 355.2248 Q 96.24806 326.44962 98.23256 296.68216 Q 101.209305 266.91473 108.15504 242.10852 Q 116.093025 216.31007 123.03876 200.43411 Q 126.0155 192.49612 128 188.52713 Q 128.99225 187.53488 128.99225 186.54263 Q 128.99225 185.55038 129.9845 184.55814 L 129.9845 184.55814 Z M 241.11627 122.04651 Q 242.10852 120.06201 242.10852 119.06977 Q 244.09302 116.093025 247.06976 114.10853 Q 252.031 110.139534 258.97675 111.13178 Q 261.9535 112.12403 263.938 113.11628 Q 266.91473 115.10078 268.89923 118.07752 Q 270.88373 121.05426 271.87598 125.023254 Q 271.87598 127.00775 271.87598 129.9845 Q 271.87598 131.969 270.88373 132.96124 L 270.88373 132.96124 L 270.88373 132.96124 L 269.89148 134.94574 L 269.89148 134.94574 Q 269.89148 134.94574 269.89148 135.93799 Q 268.89923 137.92249 267.90698 139.90698 Q 267.90698 139.90698 267.90698 140.89923 Q 264.93024 147.84496 261.9535 158.75969 Q 253.02325 183.56589 244.09302 222.26357 Q 234.17055 260.96124 232.18605 301.6434 Q 229.2093 343.31784 239.13179 376.062 Q 243.10077 389.9535 229.2093 395.90698 Q 215.31783 398.88373 209.36433 385.9845 Q 197.45737 346.2946 200.43411 300.65115 Q 203.41086 255.00775 213.33333 214.32558 Q 222.26357 174.63567 232.18605 147.84496 Q 236.15504 135.93799 239.13179 128 Q 240.12402 125.023254 241.11627 123.03876 L 241.11627 122.04651 L 241.11627 122.04651 L 241.11627 121.05426 L 241.11627 122.04651 Z M 319.50388 158.75969 Q 320.49612 143.87598 335.37985 142.88373 Q 335.37985 142.88373 335.37985 142.88373 Q 335.37985 142.88373 335.37985 142.88373 Q 335.37985 142.88373 335.37985 142.88373 Q 335.37985 142.88373 336.3721 142.88373 Q 345.30234 142.88373 350.26358 150.8217 L 349.27133 151.81395 L 349.27133 151.81395 L 349.27133 151.81395 L 349.27133 151.81395 Q 350.26358 150.8217 350.26358 150.8217 L 350.26358 150.8217 L 350.26358 150.8217 L 350.26358 150.8217 L 350.26358 150.8217 L 350.26358 150.8217 L 350.26358 150.8217 L 350.26358 151.81395 L 350.26358 151.81395 L 351.25583 152.8062 L 351.25583 152.8062 Q 352.24805 153.79845 353.2403 156.77519 Q 356.21704 161.73643 360.18604 170.66667 Q 369.11627 189.51938 380.031 219.28682 Q 390.94574 249.05426 395.90698 283.78296 Q 400.86823 319.50388 391.938 353.2403 Q 385.9845 367.13177 372.09302 364.15503 Q 358.20154 359.1938 361.17828 345.30234 Q 368.12402 318.51163 364.15503 287.75195 Q 360.18604 257.9845 350.26358 229.2093 Q 340.3411 201.42636 331.41086 184.55814 Q 327.44186 175.62791 325.45737 170.66667 L 325.45737 170.66667 L 325.45737 170.66667 Q 319.50388 166.69768 319.50388 158.75969 L 319.50388 158.75969 Z" />
</svg>