<svg xmlns="http://www.w3.org/2000/svg" viewBox="0 0 512 512">
  <path d="M 280.04697 499.9765 Q 307.0998 466.91193 346.17612 410.80234 L 346.17612 410.80234 L 346.17612 410.80234 Q 385.25244 355.6947 416.3131 296.57925 L 416.3131 296.57925 L 416.3131 296.57925 Q 446.37183 237.46379 448.37573 192.37573 Q 446.37183 110.21526 392.26614 56.10959 Q 338.16046 2.0039139 256 0 Q 173.83952 2.0039139 119.73386 56.10959 Q 65.62818 110.21526 63.624268 192.37573 Q 65.62818 237.46379 95.68689 296.57925 Q 126.74755 355.6947 165.82387 410.80234 Q 204.90019 466.91193 231.95303 499.9765 Q 241.9726 512 256 512 Q 270.0274 512 280.04697 499.9765 L 280.04697 499.9765 Z M 191.87476 128.25049 Q 205.90215 128.25049 214.91977 137.2681 L 214.91977 137.2681 L 214.91977 137.2681 Q 223.93738 146.28572 223.93738 160.31311 Q 223.93738 174.34052 214.91977 183.35812 Q 205.90215 192.37573 191.87476 192.37573 Q 177.84735 192.37573 168.82974 183.35812 Q 159.81213 174.34052 159.81213 160.31311 Q 159.81213 146.28572 168.82974 137.2681 Q 177.84735 128.25049 191.87476 128.25049 L 191.87476 128.25049 Z M 288.06262 160.31311 Q 288.06262 146.28572 297.08023 137.2681 L 297.08023 137.2681 L 297.08023 137.2681 Q 306.09784 128.25049 320.12524 128.25049 Q 334.15265 128.25049 343.17026 137.2681 Q 352.18787 146.28572 352.18787 160.31311 Q 352.18787 174.34052 343.17026 183.35812 Q 334.15265 192.37573 320.12524 192.37573 Q 306.09784 192.37573 297.08023 183.35812 Q 288.06262 174.34052 288.06262 160.31311 L 288.06262 160.31311 Z M 192.87671 245.47945 Q 196.88454 253.4951 213.9178 264.51663 L 213.9178 264.51663 L 213.9178 264.51663 Q 229.94911 275.53815 256 276.54013 Q 282.05087 275.53815 298.08218 264.51663 Q 315.11545 253.4951 319.1233 245.47945 Q 331.14676 231.45206 347.17807 239.46771 Q 361.20547 251.4912 353.18982 267.5225 Q 344.1722 282.55185 319.1233 298.58316 Q 294.07437 315.61642 256 316.6184 Q 217.92563 315.61642 192.87671 298.58316 Q 167.82779 282.55185 158.81018 267.5225 Q 150.79453 251.4912 164.82191 239.46771 Q 180.85323 231.45206 192.87671 245.47945 L 192.87671 245.47945 Z" />
</svg>