<svg xmlns="http://www.w3.org/2000/svg" viewBox="0 0 512 512">
  <path d="M 56.888888888888886 85.33333333333333 Q 32.888888888888886 86.22222222222223 16.88888888888889 102.22222222222223 L 16.88888888888889 102.22222222222223 L 16.88888888888889 102.22222222222223 Q 0.8888888888888888 118.22222222222223 0 142.22222222222223 L 0 369.77777777777777 L 0 369.77777777777777 Q 0.8888888888888888 393.77777777777777 16.88888888888889 409.77777777777777 Q 32.888888888888886 425.77777777777777 56.888888888888886 426.6666666666667 L 455.1111111111111 426.6666666666667 L 455.1111111111111 426.6666666666667 Q 479.1111111111111 425.77777777777777 495.1111111111111 409.77777777777777 Q 511.1111111111111 393.77777777777777 512 369.77777777777777 L 512 142.22222222222223 L 512 142.22222222222223 Q 511.1111111111111 118.22222222222223 495.1111111111111 102.22222222222223 Q 479.1111111111111 86.22222222222223 455.1111111111111 85.33333333333333 L 56.888888888888886 85.33333333333333 L 56.888888888888886 85.33333333333333 Z M 256 170.66666666666666 Q 279.1111111111111 170.66666666666666 298.6666666666667 182.22222222222223 L 298.6666666666667 182.22222222222223 L 298.6666666666667 182.22222222222223 Q 318.22222222222223 193.77777777777777 329.77777777777777 213.33333333333334 Q 341.3333333333333 233.77777777777777 341.3333333333333 256 Q 341.3333333333333 278.22222222222223 329.77777777777777 298.6666666666667 Q 318.22222222222223 318.22222222222223 298.6666666666667 329.77777777777777 Q 279.1111111111111 341.3333333333333 256 341.3333333333333 Q 232.88888888888889 341.3333333333333 213.33333333333334 329.77777777777777 Q 193.77777777777777 318.22222222222223 182.22222222222223 298.6666666666667 Q 170.66666666666666 278.22222222222223 170.66666666666666 256 Q 170.66666666666666 233.77777777777777 182.22222222222223 213.33333333333334 Q 193.77777777777777 193.77777777777777 213.33333333333334 182.22222222222223 Q 232.88888888888889 170.66666666666666 256 170.66666666666666 L 256 170.66666666666666 Z" />
</svg>