<svg xmlns="http://www.w3.org/2000/svg" viewBox="0 0 512 512">
  <path d="M 438.85715 512 Q 469.7143 510.85715 490.2857 490.2857 L 490.2857 490.2857 L 490.2857 490.2857 Q 510.85715 469.7143 512 438.85715 L 512 73.14286 L 512 73.14286 Q 510.85715 42.285713 490.2857 21.714285 Q 469.7143 1.1428572 438.85715 0 L 73.14286 0 L 73.14286 0 Q 42.285713 1.1428572 21.714285 21.714285 Q 1.1428572 42.285713 0 73.14286 L 0 438.85715 L 0 438.85715 Q 1.1428572 469.7143 21.714285 490.2857 Q 42.285713 510.85715 73.14286 512 L 438.85715 512 L 438.85715 512 Z M 365.7143 402.2857 Q 349.7143 402.2857 339.42856 392 L 339.42856 392 L 339.42856 392 Q 329.14285 381.7143 329.14285 365.7143 L 329.14285 146.28572 L 329.14285 146.28572 Q 329.14285 130.28572 339.42856 120 Q 349.7143 109.71429 365.7143 109.71429 Q 381.7143 109.71429 392 120 Q 402.2857 130.28572 402.2857 146.28572 L 402.2857 365.7143 L 402.2857 365.7143 Q 402.2857 381.7143 392 392 Q 381.7143 402.2857 365.7143 402.2857 L 365.7143 402.2857 Z M 292.57144 219.42857 Q 292.57144 235.42857 282.2857 245.71428 L 282.2857 245.71428 L 282.2857 245.71428 Q 272 256 256 256 Q 240 256 229.71428 245.71428 Q 219.42857 235.42857 219.42857 219.42857 L 219.42857 146.28572 L 219.42857 146.28572 Q 219.42857 130.28572 229.71428 120 Q 240 109.71429 256 109.71429 Q 272 109.71429 282.2857 120 Q 292.57144 130.28572 292.57144 146.28572 L 292.57144 219.42857 L 292.57144 219.42857 Z M 146.28572 329.14285 Q 130.28572 329.14285 120 318.85715 L 120 318.85715 L 120 318.85715 Q 109.71429 308.57144 109.71429 292.57144 L 109.71429 146.28572 L 109.71429 146.28572 Q 109.71429 130.28572 120 120 Q 130.28572 109.71429 146.28572 109.71429 Q 162.28572 109.71429 172.57143 120 Q 182.85715 130.28572 182.85715 146.28572 L 182.85715 292.57144 L 182.85715 292.57144 Q 182.85715 308.57144 172.57143 318.85715 Q 162.28572 329.14285 146.28572 329.14285 L 146.28572 329.14285 Z" />
</svg>