<svg xmlns="http://www.w3.org/2000/svg" viewBox="0 0 512 512">
  <path d="M 128 237.71428 Q 128 242.28572 128 246.85715 L 128 246.85715 L 128 246.85715 Q 128 246.85715 128 246.85715 L 128 265.14285 L 128 265.14285 Q 128 269.7143 128 274.2857 L 109.71429 274.2857 L 109.71429 274.2857 Q 93.71429 274.2857 83.42857 284.57144 Q 73.14286 294.85715 73.14286 310.85715 Q 73.14286 326.85715 83.42857 337.14285 Q 93.71429 347.42856 109.71429 347.42856 L 141.71428 347.42856 L 141.71428 347.42856 Q 169.14285 420.57144 230.85715 465.14285 Q 292.57144 510.85715 374.85715 512 L 402.2857 512 L 402.2857 512 Q 418.2857 512 428.57144 501.7143 Q 438.85715 491.42856 438.85715 475.42856 Q 438.85715 459.42856 428.57144 449.14285 Q 418.2857 438.85715 402.2857 438.85715 L 374.85715 438.85715 L 374.85715 438.85715 Q 324.57144 437.7143 284.57144 413.7143 Q 244.57143 388.57144 221.71428 347.42856 L 365.7143 347.42856 L 365.7143 347.42856 Q 381.7143 347.42856 392 337.14285 Q 402.2857 326.85715 402.2857 310.85715 Q 402.2857 294.85715 392 284.57144 Q 381.7143 274.2857 365.7143 274.2857 L 201.14285 274.2857 L 201.14285 274.2857 Q 201.14285 269.7143 201.14285 265.14285 L 201.14285 246.85715 L 201.14285 246.85715 Q 201.14285 242.28572 201.14285 237.71428 L 365.7143 237.71428 L 365.7143 237.71428 Q 381.7143 237.71428 392 227.42857 Q 402.2857 217.14285 402.2857 201.14285 Q 402.2857 185.14285 392 174.85715 Q 381.7143 164.57143 365.7143 164.57143 L 221.71428 164.57143 L 221.71428 164.57143 Q 244.57143 123.42857 284.57144 98.28571 Q 324.57144 74.28571 374.85715 73.14286 L 402.2857 73.14286 L 402.2857 73.14286 Q 418.2857 73.14286 428.57144 62.857143 Q 438.85715 52.57143 438.85715 36.57143 Q 438.85715 20.571428 428.57144 10.285714 Q 418.2857 0 402.2857 0 L 374.85715 0 L 374.85715 0 Q 292.57144 1.1428572 230.85715 46.857143 Q 169.14285 91.42857 141.71428 164.57143 L 109.71429 164.57143 L 109.71429 164.57143 Q 93.71429 164.57143 83.42857 174.85715 Q 73.14286 185.14285 73.14286 201.14285 Q 73.14286 217.14285 83.42857 227.42857 Q 93.71429 237.71428 109.71429 237.71428 L 128 237.71428 L 128 237.71428 Z" />
</svg>