<svg xmlns="http://www.w3.org/2000/svg" viewBox="0 0 640 518">
    <path d="M 32 54 Q 33 27 56 12 Q 80 0 104 12 Q 127 27 128 54 Q 127 81 104 96 Q 80 108 56 96 Q 33 81 32 54 L 32 54 Z M 96 248 L 96 313 L 146 363 Q 160 377 160 397 L 160 486 Q 160 500 151 509 Q 142 518 128 518 Q 114 518 105 509 Q 96 500 96 486 L 96 403 L 19 326 Q 0 307 0 281 L 0 193 Q 1 168 17 151 Q 34 135 59 134 Q 97 135 119 166 L 161 230 L 224 230 Q 244 231 253 249 L 548 200 L 515 101 Q 512 91 512 81 L 512 38 Q 512 24 521 15 Q 530 6 544 6 L 608 6 Q 622 6 631 15 Q 640 24 640 38 L 640 184 L 640 222 L 640 230 L 640 486 Q 640 500 631 509 Q 622 518 608 518 Q 594 518 585 509 Q 576 500 576 486 L 576 390 L 256 390 L 256 486 Q 256 500 247 509 Q 238 518 224 518 Q 210 518 201 509 Q 192 500 192 486 L 192 294 L 153 294 Q 127 293 113 273 L 96 248 L 96 248 Z M 0 486 L 0 353 L 64 417 L 64 486 L 64 486 Q 64 500 55 509 Q 46 518 32 518 Q 18 518 9 509 Q 0 500 0 486 L 0 486 Z M 280 342 Q 302 340 304 318 Q 302 296 280 294 Q 258 296 256 318 Q 258 340 280 342 L 280 342 Z"/>
</svg>
