<svg xmlns="http://www.w3.org/2000/svg" viewBox="0 0 512 512">
  <path d="M 0 115.2 Q 0.8 93.6 15.2 79.2 L 15.2 79.2 L 15.2 79.2 Q 29.6 64.8 51.2 64 L 358.4 64 L 358.4 64 Q 380 64.8 394.4 79.2 Q 408.8 93.6 409.6 115.2 L 409.6 167.2 L 409.6 167.2 Q 386.4 170.4 368.8 184 Q 351.2 197.6 341.6 217.6 L 288 217.6 L 288 217.6 L 288 268.8 L 288 268.8 L 332.8 268.8 L 332.8 268.8 L 332.8 276 L 332.8 276 Q 308.8 290.4 307.2 320 L 288 320 L 288 320 L 288 371.2 L 288 371.2 L 307.2 371.2 L 307.2 371.2 L 307.2 422.4 L 307.2 422.4 L 51.2 422.4 L 51.2 422.4 Q 29.6 421.6 15.2 407.2 Q 0.8 392.8 0 371.2 L 0 115.2 L 0 115.2 Z M 166.4 115.2 L 166.4 166.4 L 166.4 115.2 L 166.4 166.4 L 236.8 166.4 L 236.8 166.4 L 236.8 115.2 L 236.8 115.2 L 166.4 115.2 L 166.4 115.2 Z M 358.4 115.2 L 288 115.2 L 358.4 115.2 L 288 115.2 L 288 166.4 L 288 166.4 L 358.4 166.4 L 358.4 166.4 L 358.4 115.2 L 358.4 115.2 Z M 166.4 217.6 L 166.4 268.8 L 166.4 217.6 L 166.4 268.8 L 236.8 268.8 L 236.8 268.8 L 236.8 217.6 L 236.8 217.6 L 166.4 217.6 L 166.4 217.6 Z M 166.4 320 L 166.4 371.2 L 166.4 320 L 166.4 371.2 L 236.8 371.2 L 236.8 371.2 L 236.8 320 L 236.8 320 L 166.4 320 L 166.4 320 Z M 422.4 230.4 Q 411.2 230.4 404 237.6 L 404 237.6 L 404 237.6 Q 396.8 244.8 396.8 256 L 396.8 294.4 L 396.8 294.4 L 448 294.4 L 448 294.4 L 448 256 L 448 256 Q 448 244.8 440.8 237.6 Q 433.6 230.4 422.4 230.4 L 422.4 230.4 Z M 358.4 256 Q 359.2 228.8 376.8 210.4 L 376.8 210.4 L 376.8 210.4 Q 395.2 192.8 422.4 192 Q 449.6 192.8 468 210.4 Q 485.6 228.8 486.4 256 L 486.4 294.4 L 486.4 294.4 Q 497.6 294.4 504.8 301.6 Q 512 308.8 512 320 L 512 422.4 L 512 422.4 Q 512 433.6 504.8 440.8 Q 497.6 448 486.4 448 L 358.4 448 L 358.4 448 Q 347.2 448 340 440.8 Q 332.8 433.6 332.8 422.4 L 332.8 320 L 332.8 320 Q 332.8 308.8 340 301.6 Q 347.2 294.4 358.4 294.4 L 358.4 256 L 358.4 256 Z" />
</svg>