<svg xmlns="http://www.w3.org/2000/svg" viewBox="0 0 512 512">
  <path d="M 113.3840830449827 156.78892733564012 Q 113.3840830449827 122.24221453287197 130.21453287197232 93.01038062283737 L 130.21453287197232 93.01038062283737 L 130.21453287197232 93.01038062283737 Q 147.04498269896195 63.778546712802765 177.16262975778545 46.062283737024224 Q 207.280276816609 29.231833910034602 240.94117647058823 29.231833910034602 Q 274.6020761245675 29.231833910034602 304.719723183391 46.062283737024224 Q 334.83737024221455 63.778546712802765 351.66782006920414 93.01038062283737 Q 368.4982698961938 122.24221453287197 368.4982698961938 156.78892733564012 Q 368.4982698961938 191.3356401384083 351.66782006920414 220.5674740484429 Q 334.83737024221455 249.7993079584775 304.719723183391 267.51557093425606 Q 274.6020761245675 284.34602076124565 240.94117647058823 284.34602076124565 Q 207.280276816609 284.34602076124565 177.16262975778545 267.51557093425606 Q 147.04498269896195 249.7993079584775 130.21453287197232 220.5674740484429 Q 113.3840830449827 191.3356401384083 113.3840830449827 156.78892733564012 L 113.3840830449827 156.78892733564012 Z M 220.5674740484429 127.55709342560553 Q 221.45328719723184 126.6712802768166 224.1107266435986 124.89965397923875 Q 232.08304498269896 121.35640138408304 240.94117647058823 121.35640138408304 Q 251.57093425605535 121.35640138408304 263.97231833910035 124.89965397923875 Q 277.25951557093424 126.6712802768166 281.6885813148789 114.26989619377163 Q 283.46020761245677 101.86851211072664 271.05882352941177 97.43944636678201 Q 263.0865051903114 95.66782006920415 255.11418685121106 93.8961937716263 L 255.11418685121106 85.92387543252595 L 255.11418685121106 85.92387543252595 Q 253.3425605536332 72.63667820069205 240.94117647058823 71.75086505190312 Q 227.65397923875432 72.63667820069205 226.7681660899654 85.92387543252595 L 226.7681660899654 94.78200692041523 L 226.7681660899654 94.78200692041523 Q 218.79584775086505 95.66782006920415 210.8235294117647 100.09688581314879 Q 192.22145328719722 108.06920415224913 191.3356401384083 132.8719723183391 Q 194.87889273356402 153.24567474048442 210.8235294117647 160.33217993079586 Q 223.2249134948097 165.64705882352942 235.62629757785467 169.19031141868513 L 237.39792387543253 170.07612456747404 L 237.39792387543253 170.07612456747404 Q 250.68512110726644 173.61937716262975 257.7716262975779 177.16262975778545 Q 263.0865051903114 180.7058823529412 262.2006920415225 181.5916955017301 Q 262.2006920415225 185.1349480968858 261.3148788927336 186.02076124567475 Q 260.42906574394465 186.90657439446366 257.7716262975779 188.67820069204151 Q 250.68512110726644 192.22145328719722 241.82698961937717 192.22145328719722 Q 229.42560553633217 191.3356401384083 215.25259515570934 186.02076124567475 Q 212.59515570934255 185.1349480968858 209.93771626297578 184.2491349480969 Q 196.65051903114187 181.5916955017301 192.22145328719722 193.99307958477507 Q 189.56401384083046 206.39446366782008 201.07958477508652 211.70934256055364 Q 201.96539792387543 211.70934256055364 201.96539792387543 211.70934256055364 Q 203.73702422145328 212.59515570934255 205.50865051903114 212.59515570934255 L 205.50865051903114 212.59515570934255 L 205.50865051903114 212.59515570934255 L 205.50865051903114 212.59515570934255 L 205.50865051903114 212.59515570934255 Q 205.50865051903114 212.59515570934255 205.50865051903114 212.59515570934255 Q 215.25259515570934 216.13840830449826 226.7681660899654 218.79584775086505 L 226.7681660899654 228.53979238754326 L 226.7681660899654 228.53979238754326 Q 227.65397923875432 241.82698961937717 240.94117647058823 242.71280276816609 Q 254.22837370242215 241.82698961937717 255.11418685121106 228.53979238754326 L 255.11418685121106 219.681660899654 L 255.11418685121106 219.681660899654 Q 263.0865051903114 217.91003460207614 271.05882352941177 214.3667820069204 Q 289.66089965397924 205.50865051903114 290.5467128027682 181.5916955017301 Q 287.88927335640136 160.33217993079586 272.8304498269896 152.3598615916955 Q 258.65743944636677 145.2733564013841 245.37024221453288 142.6159169550173 L 245.37024221453288 142.6159169550173 L 245.37024221453288 142.6159169550173 Q 231.19723183391002 139.0726643598616 224.1107266435986 135.52941176470588 Q 218.79584775086505 131.98615916955018 219.681660899654 131.10034602076124 Q 219.681660899654 131.10034602076124 219.681660899654 131.10034602076124 L 219.681660899654 131.10034602076124 L 219.681660899654 131.10034602076124 Q 219.681660899654 128.44290657439447 220.5674740484429 127.55709342560553 L 220.5674740484429 127.55709342560553 Z M 503.1418685121107 326.8650519031142 Q 512 339.2664359861592 510.2283737024221 353.439446366782 L 510.2283737024221 353.439446366782 L 510.2283737024221 353.439446366782 Q 507.57093425605535 367.61245674740485 496.0553633217993 376.47058823529414 L 383.55709342560556 459.7370242214533 L 383.55709342560556 459.7370242214533 Q 351.66782006920414 482.7681660899654 311.8062283737024 482.7681660899654 L 170.07612456747404 482.7681660899654 L 28.346020761245676 482.7681660899654 Q 15.944636678200691 482.7681660899654 7.972318339100346 474.79584775086505 Q 0 466.8235294117647 0 454.42214532871975 L 0 397.7301038062284 L 0 397.7301038062284 Q 0 385.3287197231834 7.972318339100346 377.35640138408303 Q 15.944636678200691 369.3840830449827 28.346020761245676 369.3840830449827 L 61.121107266435985 369.3840830449827 L 61.121107266435985 369.3840830449827 L 100.98269896193771 337.4948096885813 L 100.98269896193771 337.4948096885813 Q 131.98615916955018 312.69204152249137 171.8477508650519 312.69204152249137 L 240.94117647058823 312.69204152249137 L 311.8062283737024 312.69204152249137 Q 324.2076124567474 312.69204152249137 332.1799307958477 320.6643598615917 Q 340.1522491349481 328.636678200692 340.1522491349481 341.038062283737 Q 340.1522491349481 353.439446366782 332.1799307958477 361.4117647058824 Q 324.2076124567474 369.3840830449827 311.8062283737024 369.3840830449827 L 255.11418685121106 369.3840830449827 L 240.94117647058823 369.3840830449827 Q 227.65397923875432 370.2698961937716 226.7681660899654 383.55709342560556 Q 227.65397923875432 396.84429065743944 240.94117647058823 397.7301038062284 L 348.12456747404843 397.7301038062284 L 348.12456747404843 397.7301038062284 L 453.5363321799308 319.7785467128028 L 453.5363321799308 319.7785467128028 Q 465.93771626297575 310.9204152249135 480.11072664359864 312.69204152249137 Q 494.28373702422147 315.34948096885813 503.1418685121107 326.8650519031142 L 503.1418685121107 326.8650519031142 Z M 171.8477508650519 369.3840830449827 L 171.8477508650519 369.3840830449827 L 171.8477508650519 369.3840830449827 L 171.8477508650519 369.3840830449827 L 170.96193771626298 369.3840830449827 L 170.96193771626298 369.3840830449827 Q 170.96193771626298 369.3840830449827 170.96193771626298 369.3840830449827 Q 170.96193771626298 369.3840830449827 171.8477508650519 369.3840830449827 L 171.8477508650519 369.3840830449827 Z" />
</svg>