<svg xmlns="http://www.w3.org/2000/svg" viewBox="0 0 512 512">
  <path d="M 99.06513 325.63983 L 149.08812 276.5977 L 99.06513 325.63983 L 149.08812 276.5977 L 233.44061 360.9502 L 233.44061 360.9502 L 184.39847 410.97318 L 184.39847 410.97318 L 204.01532 431.5709 L 204.01532 431.5709 Q 213.82376 442.36017 204.01532 453.1494 L 188.32184 468.84293 L 188.32184 468.84293 Q 180.4751 476.68967 171.6475 472.7663 L 110.83525 445.30267 L 110.83525 445.30267 L 54.927204 500.2299 L 54.927204 500.2299 Q 44.13793 510.0383 33.34866 500.2299 L 9.808429 476.68967 L 9.808429 476.68967 Q 0 465.9004 9.808429 455.1111 L 64.735634 399.20306 L 64.735634 399.20306 L 37.27203 338.3908 L 37.27203 338.3908 Q 34.329502 329.56323 41.195404 321.71646 L 56.88889 306.02298 L 56.88889 306.02298 Q 67.67816 296.21457 78.46743 306.02298 L 99.06513 325.63983 L 99.06513 325.63983 Z M 480.61304 114.75862 L 362.91187 231.47893 L 480.61304 114.75862 L 362.91187 231.47893 L 278.5594 147.12643 L 278.5594 147.12643 L 395.2797 30.40613 L 395.2797 30.40613 Q 405.08813 19.616858 418.81992 16.67433 L 488.45978 2.9425287 L 488.45978 2.9425287 Q 496.30652 1.9616858 502.19156 7.846743 Q 508.07663 13.731801 507.0958 21.578545 L 493.36398 91.21839 L 493.36398 91.21839 Q 490.42145 104.950195 480.61304 114.75862 L 480.61304 114.75862 Z M 9.808429 7.846743 Q 15.693486 1.9616858 23.54023 2.9425287 L 93.18008 16.67433 L 93.18008 16.67433 Q 106.91188 19.616858 116.72031 30.40613 L 390.3755 304.0613 L 390.3755 304.0613 L 306.02298 388.4138 L 306.02298 388.4138 L 32.367817 114.75862 L 32.367817 114.75862 Q 21.578545 104.950195 18.636015 91.21839 L 4.9042144 21.578545 L 4.9042144 21.578545 Q 3.9233716 13.731801 9.808429 7.846743 L 9.808429 7.846743 Z M 455.1111 306.02298 L 470.8046 321.71646 L 455.1111 306.02298 L 470.8046 321.71646 Q 478.65134 329.56323 474.72797 339.37164 L 447.26437 400.1839 L 447.26437 400.1839 L 502.19156 455.1111 L 502.19156 455.1111 Q 512 465.9004 502.19156 476.68967 L 478.65134 500.2299 L 478.65134 500.2299 Q 467.86206 510.0383 457.07278 500.2299 L 402.1456 445.30267 L 402.1456 445.30267 L 341.33334 472.7663 L 341.33334 472.7663 Q 331.5249 476.68967 323.67816 468.84293 L 307.98468 453.1494 L 307.98468 453.1494 Q 298.17624 442.36017 307.98468 431.5709 L 433.53256 306.02298 L 433.53256 306.02298 Q 444.32184 296.21457 455.1111 306.02298 L 455.1111 306.02298 Z" />
</svg>