<svg xmlns="http://www.w3.org/2000/svg" viewBox="0 0 512 512">
  <path d="M 476.65483234714003 17.16765285996055 Q 458.47731755424064 0 436.2603550295858 0 L 436.2603550295858 0 L 436.2603550295858 0 Q 414.043392504931 0 395.86587771203153 17.16765285996055 L 365.57001972386587 47.463510848126234 L 365.57001972386587 47.463510848126234 L 464.53648915187375 146.42998027613413 L 464.53648915187375 146.42998027613413 L 494.8323471400395 116.13412228796844 L 494.8323471400395 116.13412228796844 Q 512 97.95660749506904 512 75.7396449704142 Q 512 53.52268244575937 494.8323471400395 35.34516765285996 L 476.65483234714003 17.16765285996055 L 476.65483234714003 17.16765285996055 Z M 173.69625246548324 239.33727810650888 Q 164.60749506903352 248.42603550295857 160.5680473372781 261.55424063116374 L 130.27218934911244 350.42209072978306 L 130.27218934911244 350.42209072978306 Q 126.23274161735701 364.560157790927 136.33136094674558 375.6686390532544 Q 147.439842209073 385.767258382643 161.57790927021696 381.7278106508876 L 251.45562130177515 351.43195266272187 L 251.45562130177515 351.43195266272187 Q 263.5739644970414 347.3925049309665 272.66272189349115 338.3037475345168 L 442.3195266272189 168.64694280078896 L 442.3195266272189 168.64694280078896 L 343.35305719921104 69.68047337278107 L 343.35305719921104 69.68047337278107 L 173.69625246548324 239.33727810650888 L 173.69625246548324 239.33727810650888 Z M 96.94674556213018 59.581854043392504 Q 55.54240631163708 60.59171597633136 28.276134122287967 87.85798816568047 L 28.276134122287967 87.85798816568047 L 28.276134122287967 87.85798816568047 Q 1.009861932938856 115.12426035502959 0 156.5285996055227 L 0 415.05325443786984 L 0 415.05325443786984 Q 1.009861932938856 456.4575936883629 28.276134122287967 483.72386587771206 Q 55.54240631163708 510.99013806706114 96.94674556213018 512 L 355.4714003944773 512 L 355.4714003944773 512 Q 396.8757396449704 510.99013806706114 424.14201183431953 483.72386587771206 Q 451.4082840236686 456.4575936883629 452.4181459566075 415.05325443786984 L 452.4181459566075 318.1065088757396 L 452.4181459566075 318.1065088757396 Q 452.4181459566075 303.9684418145957 443.3293885601578 294.879684418146 Q 434.2406311637081 285.79092702169623 420.1025641025641 285.79092702169623 Q 405.96449704142015 285.79092702169623 396.8757396449704 294.879684418146 Q 387.7869822485207 303.9684418145957 387.7869822485207 318.1065088757396 L 387.7869822485207 415.05325443786984 L 387.7869822485207 415.05325443786984 Q 387.7869822485207 429.1913214990138 378.698224852071 438.28007889546353 Q 369.6094674556213 447.3688362919132 355.4714003944773 447.3688362919132 L 96.94674556213018 447.3688362919132 L 96.94674556213018 447.3688362919132 Q 82.80867850098619 447.3688362919132 73.7199211045365 438.28007889546353 Q 64.63116370808679 429.1913214990138 64.63116370808679 415.05325443786984 L 64.63116370808679 156.5285996055227 L 64.63116370808679 156.5285996055227 Q 64.63116370808679 142.3905325443787 73.7199211045365 133.301775147929 Q 82.80867850098619 124.21301775147928 96.94674556213018 124.21301775147928 L 193.89349112426035 124.21301775147928 L 193.89349112426035 124.21301775147928 Q 208.03155818540435 124.21301775147928 217.12031558185404 115.12426035502959 Q 226.20907297830374 106.03550295857988 226.20907297830374 91.8974358974359 Q 226.20907297830374 77.75936883629191 217.12031558185404 68.6706114398422 Q 208.03155818540435 59.581854043392504 193.89349112426035 59.581854043392504 L 96.94674556213018 59.581854043392504 L 96.94674556213018 59.581854043392504 Z" />
</svg>