<svg xmlns="http://www.w3.org/2000/svg" viewBox="0 0 512 512">
  <path d="M 484.8941176470588 27.105882352941176 Q 456.7843137254902 0 419.6392156862745 0 L 419.6392156862745 0 L 419.6392156862745 0 Q 382.49411764705883 0 354.3843137254902 27.105882352941176 L 339.3254901960784 42.16470588235294 L 339.3254901960784 42.16470588235294 L 326.27450980392155 29.113725490196078 L 326.27450980392155 29.113725490196078 Q 304.18823529411765 8.031372549019608 275.07450980392156 8.031372549019608 Q 245.9607843137255 8.031372549019608 223.87450980392157 29.113725490196078 L 137.53725490196078 115.45098039215686 L 137.53725490196078 115.45098039215686 Q 123.48235294117647 132.51764705882354 137.53725490196078 149.5843137254902 Q 154.60392156862744 163.6392156862745 171.6705882352941 149.5843137254902 L 258.0078431372549 63.247058823529414 L 258.0078431372549 63.247058823529414 Q 275.07450980392156 49.1921568627451 292.1411764705882 63.247058823529414 L 305.1921568627451 76.29803921568627 L 305.1921568627451 76.29803921568627 L 188.7372549019608 192.75294117647059 L 188.7372549019608 192.75294117647059 L 319.2470588235294 323.2627450980392 L 319.2470588235294 323.2627450980392 L 484.8941176470588 157.6156862745098 L 484.8941176470588 157.6156862745098 Q 512 129.50588235294117 512 92.36078431372549 Q 512 55.21568627450981 484.8941176470588 27.105882352941176 L 484.8941176470588 27.105882352941176 Z M 297.1607843137255 345.34901960784316 L 166.65098039215687 214.8392156862745 L 297.1607843137255 345.34901960784316 L 166.65098039215687 214.8392156862745 L 102.4 280.09411764705885 L 102.4 280.09411764705885 Q 28.109803921568627 353.38039215686274 7.027450980392157 455.7803921568627 L 2.007843137254902 480.878431372549 L 2.007843137254902 480.878431372549 Q 0 493.9294117647059 9.035294117647059 502.9647058823529 Q 18.070588235294117 512 31.12156862745098 509.9921568627451 L 56.219607843137254 504.97254901960787 L 56.219607843137254 504.97254901960787 Q 158.61960784313726 483.89019607843136 232.90980392156862 410.60392156862747 L 297.1607843137255 345.34901960784316 L 297.1607843137255 345.34901960784316 Z" />
</svg>