<svg xmlns="http://www.w3.org/2000/svg" viewBox="0 0 512 523">
    <path d="M 503 9 Q 512 19 512 32 L 512 32 Q 512 45 503 55 L 368 190 L 409 231 Q 416 238 416 248 Q 416 258 409 265 L 386 288 L 240 288 Q 225 287 224 272 L 224 126 L 247 103 Q 264 89 281 103 L 322 145 L 457 10 Q 467 0 480 0 Q 493 0 503 10 L 503 9 Z M 352 432 Q 353 387 392 363 Q 432 341 472 363 Q 511 387 512 432 Q 511 477 472 501 Q 432 523 392 501 Q 353 477 352 432 L 352 432 Z M 16 334 L 192 158 L 192 272 Q 193 292 206 306 Q 220 319 240 320 L 354 320 L 178 496 Q 162 512 138 512 Q 119 511 91 503 Q 63 496 39 473 Q 16 449 9 421 Q 1 393 1 374 Q 0 350 16 334 L 16 334 Z"/>
</svg>
