<svg xmlns="http://www.w3.org/2000/svg" viewBox="0 0 512 512">
  <path d="M 179.2 137.6 L 179.2 224.8 L 179.2 137.6 L 179.2 224.8 L 146.4 244 L 146.4 244 Q 128.8 255.2 128 276.8 L 128 460 L 128 460 L 204.8 460 L 204.8 460 L 204.8 383.2 L 204.8 383.2 Q 205.6 361.6 220 347.2 Q 234.4 332.8 256 332 Q 277.6 332.8 292 347.2 Q 306.4 361.6 307.2 383.2 L 307.2 460 L 307.2 460 L 384 460 L 384 460 L 384 276.8 L 384 276.8 Q 383.2 255.2 365.6 244 L 332.8 224.8 L 332.8 224.8 L 332.8 137.6 L 332.8 137.6 Q 332.8 127.2 325.6 120 L 264.8 59.2 L 264.8 59.2 Q 256 52 247.2 59.2 L 186.4 120 L 186.4 120 Q 179.2 127.2 179.2 137.6 L 179.2 137.6 Z M 20 314.4 Q 0.8 326.4 0 348 L 0 421.6 L 0 421.6 Q 0.8 437.6 11.2 448.8 Q 22.4 459.2 38.4 460 L 102.4 460 L 102.4 460 L 102.4 269.6 L 102.4 269.6 L 20 314.4 L 20 314.4 Z M 473.6 460 Q 489.6 459.2 500.8 448.8 L 500.8 448.8 L 500.8 448.8 Q 511.2 437.6 512 421.6 L 512 348 L 512 348 Q 511.2 326.4 492 314.4 L 409.6 269.6 L 409.6 269.6 L 409.6 460 L 409.6 460 L 473.6 460 L 473.6 460 Z" />
</svg>