<svg xmlns="http://www.w3.org/2000/svg" viewBox="0 0 512 512">
  <path d="M 512 255.50098 Q 511.00195 327.36063 477.06824 384.2495 L 477.06824 384.2495 L 477.06824 384.2495 Q 443.1345 442.13644 385.24756 476.0702 L 385.24756 476.0702 L 385.24756 476.0702 Q 328.35867 510.0039 256.49902 511.00195 Q 239.53217 511.00195 222.5653 509.00586 Q 223.56335 506.0117 223.56335 503.01755 L 242.52632 393.23196 L 242.52632 393.23196 L 247.51657 396.22614 L 247.51657 396.22614 Q 256.49902 402.21442 265.48148 396.22614 L 304.40546 370.2768 L 304.40546 370.2768 L 343.32944 396.22614 L 343.32944 396.22614 Q 351.31384 401.21637 359.29825 397.22418 L 391.23587 381.25537 L 391.23587 381.25537 Q 404.21054 373.27097 398.22223 360.2963 Q 391.23587 347.32162 377.26315 353.30994 L 353.30994 364.2885 L 353.30994 364.2885 L 313.3879 338.33917 L 313.3879 338.33917 Q 304.40546 332.3509 295.423 338.33917 L 256.49902 364.2885 L 256.49902 364.2885 L 248.51462 358.3002 L 248.51462 358.3002 L 255.50098 311.3918 L 255.50098 311.3918 Q 259.49316 287.4386 242.52632 269.4737 Q 224.5614 252.50682 200.60818 256.49902 L 8.982456 288.43665 L 8.982456 288.43665 Q 5.988304 288.43665 2.994152 289.4347 Q 0.9980507 272.46783 0.9980507 255.50098 Q 1.9961014 183.64133 35.929825 126.75243 Q 69.86355 68.86549 127.75049 34.931774 Q 184.63937 0.9980507 256.49902 0 Q 328.35867 0.9980507 385.24756 34.931774 Q 443.1345 68.86549 477.06824 126.75243 Q 511.00195 183.64133 512 255.50098 L 512 255.50098 Z M 134.73685 130.74464 Q 127.75049 127.75049 122.76023 130.74464 L 122.76023 130.74464 L 122.76023 130.74464 Q 116.77193 133.73878 116.77193 140.72514 Q 116.77193 145.7154 119.76608 148.70955 L 155.6959 191.62573 L 155.6959 191.62573 L 119.76608 234.54192 L 119.76608 234.54192 Q 116.77193 237.53606 116.77193 242.52632 Q 116.77193 249.51266 122.76023 252.50682 Q 127.75049 255.50098 134.73685 252.50682 L 223.56335 204.60039 L 223.56335 204.60039 Q 231.54776 200.60818 231.54776 191.62573 Q 231.54776 182.64328 223.56335 178.65108 L 134.73685 130.74464 L 134.73685 130.74464 Z M 396.22614 140.72514 Q 396.22614 133.73878 390.23782 130.74464 L 390.23782 130.74464 L 390.23782 130.74464 Q 385.24756 127.75049 379.25925 130.74464 L 289.4347 178.65108 L 289.4347 178.65108 Q 281.4503 182.64328 281.4503 191.62573 Q 281.4503 199.61014 289.4347 204.60039 L 379.25925 252.50682 L 379.25925 252.50682 Q 385.24756 255.50098 390.23782 252.50682 Q 396.22614 249.51266 396.22614 242.52632 Q 396.22614 237.53606 393.23196 234.54192 L 357.30215 191.62573 L 357.30215 191.62573 L 393.23196 148.70955 L 393.23196 148.70955 Q 396.22614 144.71735 396.22614 140.72514 L 396.22614 140.72514 Z M 219.57115 292.42886 Q 225.55945 298.41714 224.5614 306.40155 L 192.62378 498.02728 L 192.62378 498.02728 Q 190.62769 508.0078 179.64912 511.00195 Q 168.67056 512 162.68227 503.01755 L 136.73294 457.1072 L 136.73294 457.1072 L 52.896687 479.06433 L 52.896687 479.06433 Q 43.91423 480.06238 37.925926 474.07407 Q 31.937622 468.0858 33.933723 459.1033 L 54.892788 375.26706 L 54.892788 375.26706 L 8.982456 349.31775 L 8.982456 349.31775 Q 0 343.32944 0.9980507 332.3509 Q 3.9922028 321.3723 13.97271 319.37622 L 205.59843 287.4386 L 205.59843 287.4386 Q 213.58284 286.44055 219.57115 292.42886 L 219.57115 292.42886 Z" />
</svg>