<svg xmlns="http://www.w3.org/2000/svg" viewBox="0 0 512 512">
  <path d="M 73.14286 0 Q 42.285713 1.1428572 21.714285 21.714285 L 21.714285 21.714285 L 21.714285 21.714285 Q 1.1428572 42.285713 0 73.14286 L 0 438.85715 L 0 438.85715 Q 1.1428572 469.7143 21.714285 490.2857 Q 42.285713 510.85715 73.14286 512 L 438.85715 512 L 438.85715 512 Q 469.7143 510.85715 490.2857 490.2857 Q 510.85715 469.7143 512 438.85715 L 512 73.14286 L 512 73.14286 Q 510.85715 42.285713 490.2857 21.714285 Q 469.7143 1.1428572 438.85715 0 L 73.14286 0 L 73.14286 0 Z M 372.57144 123.42857 L 388.57144 139.42857 L 372.57144 123.42857 L 388.57144 139.42857 Q 402.2857 153.14285 402.2857 171.42857 Q 402.2857 189.71428 388.57144 204.57143 L 364.57144 228.57143 L 364.57144 228.57143 L 283.42856 147.42857 L 283.42856 147.42857 L 307.42856 123.42857 L 307.42856 123.42857 Q 322.2857 109.71429 339.42856 109.71429 Q 357.7143 109.71429 372.57144 123.42857 L 372.57144 123.42857 Z M 137.14285 293.7143 L 257.14285 173.71428 L 137.14285 293.7143 L 257.14285 173.71428 L 338.2857 254.85715 L 338.2857 254.85715 L 218.28572 374.85715 L 218.28572 374.85715 Q 211.42857 381.7143 201.14285 384 L 132.57143 401.14285 L 132.57143 401.14285 Q 122.28571 403.42856 115.42857 396.57144 Q 108.57143 389.7143 110.85714 379.42856 L 128 310.85715 L 128 310.85715 Q 130.28572 300.57144 137.14285 293.7143 L 137.14285 293.7143 Z" />
</svg>