<svg xmlns="http://www.w3.org/2000/svg" viewBox="0 0 512 512">
  <path d="M 80 174.85714285714286 L 227.42857142857142 12.571428571428571 L 80 174.85714285714286 L 227.42857142857142 12.571428571428571 Q 237.71428571428572 0 253.71428571428572 0 L 258.2857142857143 0 L 258.2857142857143 0 Q 274.2857142857143 0 285.7142857142857 12.571428571428571 L 432 174.85714285714286 L 432 174.85714285714286 Q 438.85714285714283 182.85714285714286 438.85714285714283 193.14285714285714 Q 436.57142857142856 217.14285714285714 412.57142857142856 219.42857142857142 L 329.14285714285717 219.42857142857142 L 329.14285714285717 219.42857142857142 L 329.14285714285717 365.7142857142857 L 329.14285714285717 365.7142857142857 Q 329.14285714285717 381.7142857142857 318.85714285714283 392 Q 308.57142857142856 402.2857142857143 292.57142857142856 402.2857142857143 L 219.42857142857142 402.2857142857143 L 219.42857142857142 402.2857142857143 Q 203.42857142857142 402.2857142857143 193.14285714285714 392 Q 182.85714285714286 381.7142857142857 182.85714285714286 365.7142857142857 L 182.85714285714286 219.42857142857142 L 182.85714285714286 219.42857142857142 L 99.42857142857143 219.42857142857142 L 99.42857142857143 219.42857142857142 Q 75.42857142857143 217.14285714285714 73.14285714285714 193.14285714285714 Q 73.14285714285714 182.85714285714286 80 174.85714285714286 L 80 174.85714285714286 Z M 73.14285714285714 438.85714285714283 L 438.85714285714283 438.85714285714283 L 73.14285714285714 438.85714285714283 L 438.85714285714283 438.85714285714283 Q 454.85714285714283 438.85714285714283 465.14285714285717 449.14285714285717 Q 475.42857142857144 459.42857142857144 475.42857142857144 475.42857142857144 Q 475.42857142857144 491.42857142857144 465.14285714285717 501.7142857142857 Q 454.85714285714283 512 438.85714285714283 512 L 73.14285714285714 512 L 73.14285714285714 512 Q 57.142857142857146 512 46.857142857142854 501.7142857142857 Q 36.57142857142857 491.42857142857144 36.57142857142857 475.42857142857144 Q 36.57142857142857 459.42857142857144 46.857142857142854 449.14285714285717 Q 57.142857142857146 438.85714285714283 73.14285714285714 438.85714285714283 L 73.14285714285714 438.85714285714283 Z" />
</svg>