<svg xmlns="http://www.w3.org/2000/svg" viewBox="0 0 640 512">
    <path d="M 24 0 Q 2 2 0 24 Q 2 46 24 48 L 76 48 L 136 365 Q 141 383 160 384 L 321 384 Q 320 376 320 368 Q 320 352 323 336 L 180 336 L 171 288 L 339 288 Q 362 245 403 219 Q 444 193 496 192 Q 518 192 538 197 L 573 73 Q 576 57 567 45 Q 558 33 542 32 L 122 32 L 120 20 Q 115 1 96 0 L 24 0 L 24 0 Z M 176 512 Q 203 511 218 488 Q 230 464 218 440 Q 203 417 176 416 Q 149 417 134 440 Q 122 464 134 488 Q 149 511 176 512 L 176 512 Z M 640 368 Q 640 329 621 296 L 621 296 Q 602 263 568 243 Q 534 224 496 224 Q 458 224 424 243 Q 390 263 371 296 Q 352 329 352 368 Q 352 407 371 440 Q 390 473 424 493 Q 458 512 496 512 Q 534 512 568 493 Q 602 473 621 440 Q 640 407 640 368 L 640 368 Z M 541 325 Q 552 315 563 325 Q 573 336 563 347 L 491 419 Q 480 429 469 419 L 429 379 Q 419 368 429 357 Q 440 347 451 357 L 480 385 L 541 325 L 541 325 Z"/>
</svg>
