<svg xmlns="http://www.w3.org/2000/svg" viewBox="0 0 580 448">
    <path d="M 10 176 Q 0 162 2 146 L 2 146 Q 5 130 18 120 L 145 27 Q 181 0 226 0 L 386 0 L 546 0 Q 560 0 569 9 Q 578 18 578 32 L 578 96 Q 578 110 569 119 Q 560 128 546 128 L 509 128 L 464 164 Q 429 192 384 192 L 306 192 L 290 192 L 226 192 Q 212 192 203 183 Q 194 174 194 160 Q 194 146 203 137 Q 212 128 226 128 L 290 128 L 306 128 Q 321 127 322 112 Q 321 97 306 96 L 185 96 L 66 184 Q 52 194 36 192 Q 20 189 10 176 L 10 176 Z M 384 128 L 384 128 L 385 128 Q 385 128 385 128 Q 385 128 384 128 L 384 128 Z M 570 272 Q 580 286 578 302 L 578 302 Q 575 318 562 328 L 435 422 Q 399 448 354 448 L 194 448 L 34 448 Q 20 448 11 439 Q 2 430 2 416 L 2 352 Q 2 338 11 329 Q 20 320 34 320 L 71 320 L 116 284 Q 151 256 196 256 L 274 256 L 290 256 L 354 256 Q 368 256 377 265 Q 386 274 386 288 Q 386 302 377 311 Q 368 320 354 320 L 290 320 L 274 320 Q 259 321 258 336 Q 259 351 274 352 L 395 352 L 514 264 Q 528 254 544 256 Q 560 259 570 272 L 570 272 Z M 196 320 L 196 320 L 195 320 Q 195 320 195 320 Q 195 320 196 320 L 196 320 Z"/>
</svg>
