<svg xmlns="http://www.w3.org/2000/svg" viewBox="0 0 512 512">
  <path d="M 5.5652175 108.91926 Q 11.925466 100.17391 22.26087 98.583855 L 22.26087 98.583855 L 22.26087 98.583855 Q 31.801243 96.19876 41.341614 101.76398 L 41.341614 101.76398 L 41.341614 101.76398 L 41.341614 102.559006 L 41.341614 102.559006 Q 41.341614 102.559006 42.136646 102.559006 Q 42.136646 102.559006 43.726707 103.354034 Q 46.1118 104.9441 52.47205 108.12422 Q 65.19254 115.2795 92.2236 124.81988 Q 119.25466 133.56522 159.80124 140.72049 Q 201.14285 148.6708 256 148.6708 Q 310.85715 148.6708 352.19876 140.72049 Q 392.74533 133.56522 419.7764 124.81988 Q 446.80746 115.2795 459.52795 108.12422 Q 465.88818 104.9441 468.2733 103.354034 Q 469.06833 103.354034 469.06833 103.354034 Q 469.86334 102.559006 470.6584 102.559006 L 470.6584 101.76398 L 470.6584 101.76398 L 470.6584 101.76398 L 470.6584 101.76398 Q 470.6584 101.76398 470.6584 101.76398 Q 470.6584 101.76398 470.6584 101.76398 Q 480.19876 96.19876 489.73914 98.583855 Q 500.07452 100.17391 506.43478 108.91926 Q 512 118.459625 509.6149 128 Q 508.02484 138.3354 499.2795 144.69565 L 484.96893 123.22981 L 484.96893 123.22981 Q 495.30435 138.3354 497.68945 141.51553 Q 499.2795 144.69565 499.2795 144.69565 L 499.2795 144.69565 L 499.2795 144.69565 L 499.2795 144.69565 L 499.2795 144.69565 L 498.48447 144.69565 L 498.48447 144.69565 L 498.48447 144.69565 L 498.48447 144.69565 Q 498.48447 144.69565 498.48447 144.69565 Q 497.68945 144.69565 497.68945 145.49068 Q 496.8944 145.49068 496.8944 145.49068 Q 496.09937 146.28572 494.5093 147.08075 Q 489.73914 150.26086 481.78882 154.23602 Q 465.88818 162.18634 435.67703 172.52174 Q 405.46585 183.65218 360.14908 191.60248 Q 315.62732 199.5528 256 199.5528 Q 196.37267 198.75777 151.85094 191.60248 Q 106.534164 183.65218 76.32298 172.52174 Q 46.1118 162.18634 30.21118 154.23602 Q 22.26087 150.26086 17.490683 147.87578 Q 15.900621 146.28572 15.10559 146.28572 Q 15.10559 145.49068 14.310559 145.49068 Q 14.310559 145.49068 13.515528 144.69565 Q 13.515528 144.69565 13.515528 144.69565 L 13.515528 144.69565 L 13.515528 144.69565 L 12.720497 144.69565 L 12.720497 144.69565 L 12.720497 144.69565 L 12.720497 144.69565 L 12.720497 144.69565 L 12.720497 144.69565 Q 12.720497 145.49068 15.10559 141.51553 Q 16.695652 138.3354 27.031055 123.22981 L 12.720497 144.69565 L 12.720497 144.69565 Q 3.9751554 138.3354 2.3850932 128 Q 0 118.459625 5.5652175 108.91926 L 5.5652175 108.91926 Z M 417.3913 205.11801 L 425.3416 225.78882 L 417.3913 205.11801 L 425.3416 225.78882 Q 443.62732 226.58385 458.7329 237.71428 Q 473.8385 248.84473 480.99377 267.13043 Q 487.35403 286.21118 484.17392 311.65216 Q 480.99377 337.88818 473.0435 359.35403 Q 465.09317 380.02484 455.5528 384.79504 Q 446.01242 387.1801 426.13666 376.04968 Q 406.26086 364.91925 387.97516 347.42856 Q 368.8944 329.14285 360.9441 310.85715 Q 354.58386 291.7764 359.35403 273.4907 Q 363.3292 256 376.84473 242.48447 L 367.30435 216.24844 L 367.30435 216.24844 Q 395.13043 211.47826 417.3913 205.11801 L 417.3913 205.11801 Z M 256 224.99379 Q 268.7205 224.99379 281.44098 224.19876 L 281.44098 256 L 281.44098 256 Q 298.93167 263.15527 309.2671 279.0559 Q 319.60248 294.1615 319.60248 314.03726 Q 318.80746 333.91306 307.67703 356.96893 Q 295.75156 380.8199 280.64597 397.51553 Q 266.33542 415.00623 256 415.80124 Q 245.6646 415.00623 231.35403 397.51553 Q 216.24844 380.8199 204.32298 356.96893 Q 193.19255 333.91306 192.39752 314.03726 Q 192.39752 294.1615 202.73293 279.0559 Q 213.06833 263.15527 230.559 256 L 230.559 224.19876 L 230.559 224.19876 Q 243.27951 224.99379 256 224.99379 L 256 224.99379 Z M 144.69565 216.24844 L 135.15527 242.48447 L 144.69565 216.24844 L 135.15527 242.48447 Q 148.6708 256 152.64597 273.4907 Q 157.41615 291.7764 151.05591 310.85715 Q 143.10559 329.14285 124.02484 347.42856 Q 105.73913 364.91925 85.86336 376.04968 Q 65.98758 387.1801 56.447205 384.79504 Q 46.906834 380.02484 38.95652 359.35403 Q 31.00621 337.88818 27.826086 311.65216 Q 24.645964 286.21118 31.00621 267.13043 Q 38.16149 248.84473 53.267082 237.71428 Q 68.37267 226.58385 87.453415 225.78882 L 94.608696 205.11801 L 94.608696 205.11801 Q 116.86957 211.47826 144.69565 216.24844 L 144.69565 216.24844 Z" />
</svg>