<svg xmlns="http://www.w3.org/2000/svg" viewBox="0 0 448 448">
    <path d="M 0 416 Q 0 430 9 439 L 9 439 Q 18 448 32 448 Q 46 448 55 439 Q 64 430 64 416 Q 64 402 55 393 Q 46 384 32 384 Q 18 384 9 393 Q 0 402 0 416 L 0 416 Z M 128 448 Q 142 448 151 439 L 151 439 Q 160 430 160 416 Q 160 402 151 393 Q 142 384 128 384 Q 114 384 105 393 Q 96 402 96 416 Q 96 430 105 439 Q 114 448 128 448 L 128 448 Z M 192 416 Q 192 430 201 439 L 201 439 Q 210 448 224 448 Q 238 448 247 439 Q 256 430 256 416 Q 256 402 247 393 Q 238 384 224 384 Q 210 384 201 393 Q 192 402 192 416 L 192 416 Z M 320 448 Q 334 448 343 439 L 343 439 Q 352 430 352 416 Q 352 402 343 393 Q 334 384 320 384 Q 306 384 297 393 Q 288 402 288 416 Q 288 430 297 439 Q 306 448 320 448 L 320 448 Z M 416 448 Q 430 448 439 439 L 439 439 Q 448 430 448 416 Q 448 402 439 393 Q 430 384 416 384 Q 402 384 393 393 Q 384 402 384 416 Q 384 430 393 439 Q 402 448 416 448 L 416 448 Z M 74 218 L 197 341 Q 208 352 224 352 Q 240 352 251 341 L 374 218 Q 384 208 384 194 Q 384 180 374 170 Q 364 160 350 160 L 288 160 L 288 32 Q 288 18 279 9 Q 270 0 256 0 L 192 0 Q 178 0 169 9 Q 160 18 160 32 L 160 160 L 98 160 Q 84 160 74 170 Q 64 180 64 194 Q 64 208 74 218 L 74 218 Z"/>
</svg>
