<svg xmlns="http://www.w3.org/2000/svg" viewBox="0 0 512 512">
  <path d="M 176 0 L 336 0 L 176 0 L 336 0 Q 356 1 370 14 Q 383 28 384 48 L 384 72 L 384 72 Q 328 33 256 32 Q 184 33 128 72 L 128 48 L 128 48 Q 129 28 142 14 Q 156 1 176 0 L 176 0 Z M 128 464 L 128 440 L 128 464 L 128 440 Q 184 479 256 480 Q 328 479 384 440 L 384 464 L 384 464 Q 383 484 370 498 Q 356 511 336 512 L 176 512 L 176 512 Q 156 511 142 498 Q 129 484 128 464 L 128 464 Z M 64 256 Q 64 204 90 160 L 90 160 L 90 160 Q 115 116 160 90 Q 205 64 256 64 Q 307 64 352 90 Q 397 116 422 160 Q 448 204 448 256 Q 448 308 422 352 Q 397 396 352 422 Q 307 448 256 448 Q 205 448 160 422 Q 115 396 90 352 Q 64 308 64 256 L 64 256 Z M 256 152 Q 234 154 232 176 L 232 256 L 232 256 Q 232 269 243 276 L 291 308 L 291 308 Q 310 319 324 301 Q 335 282 317 268 L 280 243 L 280 243 L 280 176 L 280 176 Q 278 154 256 152 L 256 152 Z" />
</svg>