<svg xmlns="http://www.w3.org/2000/svg" viewBox="0 0 448 448">
    <path d="M 176 0 Q 190 0 199 9 L 199 9 Q 208 18 208 32 L 208 112 Q 208 165 240 208 L 259 234 Q 303 294 304 368 L 304 416 Q 304 430 295 439 Q 286 448 272 448 Q 258 448 249 439 Q 240 430 240 416 L 240 368 Q 240 315 208 272 L 189 246 Q 145 186 144 112 L 144 32 Q 144 18 153 9 Q 162 0 176 0 L 176 0 Z M 32 64 Q 46 64 55 73 L 55 73 Q 64 82 64 96 L 64 128 Q 64 181 96 224 L 115 250 Q 159 310 160 384 L 160 416 Q 160 430 151 439 Q 142 448 128 448 Q 114 448 105 439 Q 96 430 96 416 L 96 384 Q 96 331 64 288 L 45 262 Q 1 202 0 128 L 0 96 Q 0 82 9 73 Q 18 64 32 64 L 32 64 Z M 352 96 L 352 128 Q 352 181 384 224 L 403 250 Q 447 310 448 384 L 448 416 Q 448 430 439 439 Q 430 448 416 448 Q 402 448 393 439 Q 384 430 384 416 L 384 384 Q 384 331 352 288 L 333 262 Q 289 202 288 128 L 288 96 Q 288 82 297 73 Q 306 64 320 64 Q 334 64 343 73 Q 352 82 352 96 L 352 96 Z"/>
</svg>
