<svg xmlns="http://www.w3.org/2000/svg" viewBox="0 0 512 512">
  <path d="M 256 512 Q 326 511 384 478 L 384 478 L 384 478 Q 442 444 478 384 Q 512 323 512 256 Q 512 189 478 128 Q 442 68 384 34 Q 326 1 256 0 Q 186 1 128 34 Q 70 68 34 128 Q 0 189 0 256 Q 0 323 34 384 Q 70 444 128 478 Q 186 511 256 512 L 256 512 Z M 128 241 Q 110 255 94 240 Q 80 222 95 206 Q 161 146 256 144 Q 351 146 417 206 Q 431 222 418 240 Q 402 254 385 241 Q 332 194 256 192 Q 180 194 128 241 L 128 241 Z M 256 336 Q 270 336 279 345 L 279 345 L 279 345 Q 288 354 288 368 Q 288 382 279 391 Q 270 400 256 400 Q 242 400 233 391 Q 224 382 224 368 Q 224 354 233 345 Q 242 336 256 336 L 256 336 Z M 256 288 Q 221 289 197 311 Q 179 324 163 309 Q 150 291 165 275 Q 202 241 256 240 Q 310 241 347 275 Q 362 291 349 309 Q 333 324 315 311 Q 291 289 256 288 L 256 288 Z" />
</svg>