<svg xmlns="http://www.w3.org/2000/svg" viewBox="0 0 268 422">
    <path d="M 54 96 Q 81 95 96 72 Q 108 48 96 24 Q 81 1 54 0 Q 27 1 12 24 Q 0 48 12 72 Q 27 95 54 96 L 54 96 Z M 54 256 Q 81 255 96 232 Q 108 208 96 184 Q 81 161 54 160 Q 27 161 12 184 Q 0 208 12 232 Q 27 255 54 256 L 54 256 Z M 102 368 Q 101 341 78 326 Q 54 314 30 326 Q 7 341 6 368 Q 7 395 30 410 Q 54 422 78 410 Q 101 395 102 368 L 102 368 Z M 214 96 Q 241 95 256 72 Q 268 48 256 24 Q 241 1 214 0 Q 187 1 172 24 Q 160 48 172 72 Q 187 95 214 96 L 214 96 Z M 262 208 Q 261 181 238 166 Q 214 154 190 166 Q 167 181 166 208 Q 167 235 190 250 Q 214 262 238 250 Q 261 235 262 208 L 262 208 Z M 214 416 Q 241 415 256 392 Q 268 368 256 344 Q 241 321 214 320 Q 187 321 172 344 Q 160 368 172 392 Q 187 415 214 416 L 214 416 Z"/>
</svg>
