<svg xmlns="http://www.w3.org/2000/svg" viewBox="0 0 512 512">
  <path d="M 46.457466 385.69376 Q 30.00378 372.14368 13.550095 385.69376 Q 0 402.14746 13.550095 418.60114 Q 70.65407 474.73724 143.24385 493.12665 Q 215.83365 511.51608 288.42343 493.12665 Q 361.01324 474.73724 418.1172 418.60114 Q 474.2533 361.49716 492.64273 288.90738 Q 512 216.31758 492.64273 143.72778 Q 474.2533 71.13799 418.1172 14.034026 Q 401.6635 0.48393196 385.20984 14.034026 Q 371.65973 30.487713 385.20984 46.9414 Q 432.63516 94.36673 448.12097 155.34215 Q 463.6068 216.31758 448.12097 277.293 Q 432.63516 338.26843 385.20984 385.69376 Q 337.7845 433.11908 276.80908 448.60492 Q 215.83365 464.09073 154.85823 448.60492 Q 94.85066 432.1512 46.457466 385.69376 L 46.457466 385.69376 Z M 67.75047 364.40076 Q 132.59735 425.3762 215.83365 425.3762 L 215.83365 425.3762 L 215.83365 425.3762 Q 299.06995 425.3762 363.9168 364.40076 Q 424.89224 299.55386 424.89224 216.31758 Q 424.89224 133.08128 363.9168 69.20227 L 360.04538 64.362946 L 360.04538 64.362946 Q 348.431 55.652172 337.7845 64.362946 L 63.879017 338.26843 L 63.879017 338.26843 Q 55.168243 349.8828 63.879017 360.5293 L 67.75047 364.40076 L 67.75047 364.40076 Z M 305.845 151.4707 Q 316.4915 141.79205 327.138 151.4707 L 342.6238 166.95653 L 342.6238 166.95653 Q 352.30246 177.60303 342.6238 188.24953 Q 331.97733 197.92816 321.3308 188.24953 L 305.845 172.7637 L 305.845 172.7637 Q 296.16635 162.1172 305.845 151.4707 L 305.845 151.4707 Z M 228.41588 228.89981 Q 239.06238 219.22118 249.70888 228.89981 L 265.1947 244.38564 L 265.1947 244.38564 Q 274.87335 255.03214 265.1947 265.67865 Q 254.5482 275.35727 243.9017 265.67865 L 228.41588 250.19281 L 228.41588 250.19281 Q 218.73724 239.54631 228.41588 228.89981 L 228.41588 228.89981 Z M 313.5879 236.64272 Q 324.2344 226.96408 334.88092 236.64272 L 350.36673 252.12854 L 350.36673 252.12854 Q 360.04538 262.77505 350.36673 273.42154 Q 339.7202 283.1002 329.07373 273.42154 L 313.5879 257.93573 L 313.5879 257.93573 Q 303.90927 247.28923 313.5879 236.64272 L 313.5879 236.64272 Z M 150.98677 306.32892 Q 161.63327 296.65027 172.27977 306.32892 L 187.7656 321.81476 L 187.7656 321.81476 Q 197.44423 332.46124 187.7656 343.10776 Q 177.1191 352.78638 166.4726 343.10776 L 150.98677 327.62192 L 150.98677 327.62192 Q 141.30814 316.97543 150.98677 306.32892 L 150.98677 306.32892 Z M 236.15878 314.07184 Q 246.8053 304.3932 257.45178 314.07184 L 272.93762 329.55765 L 272.93762 329.55765 Q 282.61627 340.20416 272.93762 350.85065 Q 262.2911 360.5293 251.6446 350.85065 L 236.15878 335.36484 L 236.15878 335.36484 Q 226.48015 324.71832 236.15878 314.07184 L 236.15878 314.07184 Z" />
</svg>