<svg xmlns="http://www.w3.org/2000/svg" viewBox="0 0 512 512">
  <path d="M 229.71428571428572 10.285714285714286 Q 241.14285714285714 0 256 0 L 256 0 L 256 0 Q 270.85714285714283 0 282.2857142857143 10.285714285714286 L 465.14285714285717 193.14285714285714 L 465.14285714285717 193.14285714285714 Q 481.14285714285717 211.42857142857142 473.14285714285717 233.14285714285714 Q 462.85714285714283 254.85714285714286 438.85714285714283 256 L 329.14285714285717 256 L 329.14285714285717 256 L 329.14285714285717 466.2857142857143 L 329.14285714285717 466.2857142857143 Q 329.14285714285717 485.7142857142857 315.42857142857144 498.2857142857143 Q 302.85714285714283 512 283.42857142857144 512 L 228.57142857142858 512 L 228.57142857142858 512 Q 209.14285714285714 512 196.57142857142858 498.2857142857143 Q 182.85714285714286 485.7142857142857 182.85714285714286 466.2857142857143 L 182.85714285714286 256 L 182.85714285714286 256 L 73.14285714285714 256 L 73.14285714285714 256 Q 49.142857142857146 254.85714285714286 38.857142857142854 233.14285714285714 Q 30.857142857142858 211.42857142857142 46.857142857142854 193.14285714285714 L 229.71428571428572 10.285714285714286 L 229.71428571428572 10.285714285714286 Z" />
</svg>