<svg xmlns="http://www.w3.org/2000/svg" viewBox="0 0 514 448">
    <path d="M 448 384 L 448 320 L 64 320 L 64 384 L 448 384 L 448 384 Z M 448 448 L 64 448 Q 37 447 19 429 Q 1 411 0 384 L 0 320 Q 1 293 19 275 Q 37 257 64 256 L 448 256 Q 475 257 493 275 Q 511 293 512 320 L 512 384 Q 511 411 493 429 Q 475 447 448 448 L 448 448 Z M 288 128 Q 287 155 269 173 L 269 173 Q 251 191 224 192 L 64 192 Q 37 191 19 173 Q 1 155 0 128 L 0 64 Q 1 37 19 19 Q 37 1 64 0 L 208 0 L 224 0 L 368 0 Q 402 1 425 23 Q 447 46 448 80 L 448 96 L 486 96 Q 503 97 508 111 Q 514 125 503 137 L 433 207 Q 416 221 399 207 L 329 137 Q 318 125 324 111 Q 329 97 346 96 L 384 96 L 384 80 Q 383 65 368 64 L 288 64 L 288 128 L 288 128 Z"/>
</svg>
