<svg xmlns="http://www.w3.org/2000/svg" viewBox="0 0 512 512">
  <path d="M 256 512 Q 326 511 384 478 L 384 478 L 384 478 Q 442 444 478 384 Q 512 323 512 256 Q 512 189 478 128 Q 442 68 384 34 Q 326 1 256 0 Q 186 1 128 34 Q 70 68 34 128 Q 0 189 0 256 Q 0 323 34 384 Q 70 444 128 478 Q 186 511 256 512 L 256 512 Z M 277 134 L 277 148 L 277 134 L 277 148 Q 291 150 306 154 Q 309 155 311 156 Q 330 163 327 183 Q 319 201 300 198 Q 299 197 298 197 Q 296 197 295 196 Q 285 193 274 191 Q 253 187 233 195 Q 224 199 221 206 Q 217 213 226 220 Q 241 228 258 232 Q 259 232 259 232 Q 261 233 263 233 Q 264 234 266 234 Q 292 240 316 254 Q 346 276 340 312 Q 332 346 302 357 Q 290 362 277 363 L 277 379 L 277 379 Q 275 398 255 400 Q 236 398 234 379 L 234 361 L 234 361 Q 212 356 191 349 Q 173 341 177 321 Q 185 303 204 308 Q 206 308 208 309 Q 210 309 212 310 Q 229 316 246 320 Q 272 323 286 317 Q 295 313 298 305 Q 300 296 292 290 Q 276 280 257 277 Q 254 276 251 275 Q 250 274 250 274 Q 225 269 202 256 Q 172 236 177 200 Q 186 167 216 155 Q 224 152 234 150 L 234 134 L 234 134 Q 236 114 255 112 Q 275 114 277 134 L 277 134 Z" />
</svg>