<svg xmlns="http://www.w3.org/2000/svg" viewBox="0 0 642 512">
    <path d="M 34 24 Q 36 46 58 48 L 458 48 Q 480 46 482 24 Q 480 2 458 0 L 58 0 Q 36 2 34 24 L 34 24 Z M 50 160 Q 28 160 14 176 Q 0 193 2 214 L 34 470 Q 37 488 50 500 Q 63 512 82 512 L 397 512 Q 368 492 349 462 Q 308 480 258 480 Q 180 479 128 440 Q 76 402 74 344 Q 76 286 128 248 Q 180 209 258 208 Q 327 209 377 240 Q 426 194 498 192 Q 505 192 511 193 Q 508 184 502 176 Q 488 160 466 160 L 50 160 L 50 160 Z M 258 376 Q 272 376 281 369 L 281 369 Q 290 362 290 352 Q 290 342 281 335 Q 272 328 258 328 Q 244 328 235 335 Q 226 342 226 352 Q 226 362 235 369 Q 244 376 258 376 L 258 376 Z M 42 80 Q 20 82 18 104 Q 20 126 42 128 L 474 128 Q 496 126 498 104 Q 496 82 474 80 L 42 80 L 42 80 Z M 642 368 Q 642 329 623 296 L 623 296 Q 604 263 570 243 Q 536 224 498 224 Q 460 224 426 243 Q 392 263 373 296 Q 354 329 354 368 Q 354 407 373 440 Q 392 473 426 493 Q 460 512 498 512 Q 536 512 570 493 Q 604 473 623 440 Q 642 407 642 368 L 642 368 Z M 576 449 Q 544 479 498 480 Q 452 479 420 449 Q 432 418 465 416 L 531 416 Q 564 418 576 449 L 576 449 Z M 450 336 Q 451 309 474 294 Q 498 282 522 294 Q 545 309 546 336 Q 545 363 522 378 Q 498 390 474 378 Q 451 363 450 336 L 450 336 Z"/>
</svg>
