<svg xmlns="http://www.w3.org/2000/svg" viewBox="0 0 512 512">
  <path d="M 511.00582524271846 19.883495145631066 Q 512 11.930097087378641 506.0349514563107 5.965048543689321 Q 500.0699029126214 0 492.11650485436894 0.9941747572815534 L 364.8621359223301 24.854368932038835 L 364.8621359223301 24.854368932038835 Q 355.9145631067961 26.842718446601943 352.93203883495147 35.79029126213592 Q 349.9495145631068 44.737864077669904 356.9087378640777 51.697087378640774 L 391.70485436893205 86.49320388349514 L 391.70485436893205 86.49320388349514 L 146.14368932038835 332.0543689320388 L 146.14368932038835 332.0543689320388 L 95.44077669902913 320.1242718446602 L 95.44077669902913 320.1242718446602 Q 82.51650485436893 317.1417475728155 72.5747572815534 326.0893203883495 L 8.94757281553398 389.7165048543689 L 8.94757281553398 389.7165048543689 Q 0 399.6582524271845 2.9825242718446603 412.58252427184465 Q 6.959223300970874 426.5009708737864 19.883495145631066 429.4834951456311 L 69.59223300970874 442.40776699029124 L 69.59223300970874 442.40776699029124 L 82.51650485436893 492.11650485436894 L 82.51650485436893 492.11650485436894 Q 85.49902912621359 505.04077669902915 99.41747572815534 509.0174757281553 Q 112.34174757281554 512 122.28349514563106 503.052427184466 L 185.9106796116505 439.4252427184466 L 185.9106796116505 439.4252427184466 Q 194.85825242718445 429.4834951456311 191.8757281553398 416.55922330097087 L 179.94563106796116 365.8563106796116 L 179.94563106796116 365.8563106796116 L 425.50679611650486 120.29514563106797 L 425.50679611650486 120.29514563106797 L 460.3029126213592 155.09126213592234 L 460.3029126213592 155.09126213592234 Q 467.2621359223301 162.0504854368932 476.2097087378641 159.06796116504853 Q 485.15728155339804 156.08543689320388 487.1456310679612 147.1378640776699 L 511.00582524271846 19.883495145631066 L 511.00582524271846 19.883495145631066 Z M 55.67378640776699 104.3883495145631 Q 45.73203883495145 96.43495145631069 32.80776699029126 96.43495145631069 L 32.80776699029126 96.43495145631069 L 32.80776699029126 96.43495145631069 Q 20.877669902912622 96.43495145631069 10.935922330097087 105.38252427184466 Q 1.9883495145631067 115.32427184466019 1.9883495145631067 128.2485436893204 Q 1.9883495145631067 141.17281553398058 10.935922330097087 151.1145631067961 L 147.1378640776699 286.3223300970874 L 147.1378640776699 286.3223300970874 L 191.8757281553398 241.58446601941748 L 191.8757281553398 241.58446601941748 L 101.40582524271845 151.1145631067961 L 101.40582524271845 151.1145631067961 Q 145.1495145631068 128.2485436893204 191.8757281553398 128.2485436893204 Q 239.59611650485436 128.2485436893204 282.34563106796116 151.1145631067961 L 329.0718446601942 104.3883495145631 L 329.0718446601942 104.3883495145631 Q 265.44466019417473 64.62135922330097 191.8757281553398 64.62135922330097 Q 119.30097087378641 64.62135922330097 55.67378640776699 105.38252427184466 L 55.67378640776699 104.3883495145631 Z M 361.87961165048546 229.65436893203884 Q 383.7514563106796 272.40388349514564 383.7514563106796 320.1242718446602 L 383.7514563106796 320.1242718446602 L 383.7514563106796 320.1242718446602 Q 383.7514563106796 366.8504854368932 360.88543689320386 410.59417475728156 L 270.41553398058255 320.1242718446602 L 270.41553398058255 320.1242718446602 L 225.6776699029126 364.8621359223301 L 225.6776699029126 364.8621359223301 L 360.88543689320386 501.06407766990293 L 360.88543689320386 501.06407766990293 Q 370.8271844660194 510.0116504854369 383.7514563106796 510.0116504854369 Q 396.6757281553398 510.0116504854369 406.61747572815534 501.06407766990293 Q 415.56504854368933 491.1223300970874 415.56504854368933 479.19223300970873 Q 415.56504854368933 466.2679611650485 407.6116504854369 456.326213592233 Q 447.378640776699 392.6990291262136 447.378640776699 320.1242718446602 Q 447.378640776699 246.55533980582524 407.6116504854369 182.9281553398058 L 361.87961165048546 229.65436893203884 L 361.87961165048546 229.65436893203884 Z" />
</svg>