<svg xmlns="http://www.w3.org/2000/svg" viewBox="0 0 512 512">
  <path d="M 448.3757338551859 192.3757338551859 Q 446.37181996086105 237.4637964774951 416.31311154598825 296.57925636007826 L 416.31311154598825 296.57925636007826 L 416.31311154598825 296.57925636007826 Q 385.25244618395305 355.69471624266146 346.1761252446184 410.8023483365949 L 346.1761252446184 410.8023483365949 L 346.1761252446184 410.8023483365949 Q 307.0998043052838 466.9119373776908 280.04696673189824 499.9765166340509 Q 270.027397260274 512 256 512 Q 241.97260273972603 512 231.95303326810176 499.9765166340509 Q 204.90019569471625 466.9119373776908 165.8238747553816 410.8023483365949 Q 126.74755381604696 355.69471624266146 95.68688845401174 296.57925636007826 Q 65.62818003913894 237.4637964774951 63.62426614481409 192.3757338551859 Q 65.62818003913894 110.21526418786692 119.73385518590997 56.10958904109589 Q 173.83953033268102 2.003913894324853 256 0 Q 338.160469667319 2.003913894324853 392.26614481409 56.10958904109589 Q 446.37181996086105 110.21526418786692 448.3757338551859 192.3757338551859 L 448.3757338551859 192.3757338551859 Z" />
</svg>