<svg xmlns="http://www.w3.org/2000/svg" viewBox="0 0 640 512">
    <path d="M 128 0 Q 101 1 83 19 L 83 19 Q 65 37 64 64 L 448 64 Q 447 37 429 19 Q 411 1 384 0 L 128 0 L 128 0 Z M 64 96 Q 37 97 19 115 L 19 115 Q 1 133 0 160 L 0 352 Q 1 379 19 397 Q 37 415 64 416 L 64 448 Q 65 475 83 493 Q 101 511 128 512 L 416 512 L 448 512 L 528 512 Q 569 511 596 484 Q 623 457 624 416 L 624 212 Q 639 198 640 176 Q 639 156 626 142 Q 612 129 592 128 Q 572 129 558 142 Q 545 156 544 176 Q 545 198 560 212 L 560 416 Q 560 430 551 439 Q 542 448 528 448 L 448 448 L 448 416 Q 475 415 493 397 Q 511 379 512 352 L 512 160 Q 511 133 493 115 Q 475 97 448 96 L 64 96 L 64 96 Z M 56 200 Q 58 178 80 176 L 140 176 Q 158 177 167 190 Q 176 204 169 221 L 126 322 Q 116 341 95 334 Q 75 324 82 303 L 116 224 L 80 224 Q 58 222 56 200 L 56 200 Z M 224 176 L 284 176 Q 302 177 311 190 Q 320 204 313 221 L 270 322 Q 260 341 239 334 Q 219 324 226 303 L 260 224 L 224 224 Q 202 222 200 200 Q 202 178 224 176 L 224 176 Z M 344 200 Q 346 178 368 176 L 428 176 Q 446 177 455 190 Q 464 204 457 221 L 414 322 Q 404 341 383 334 Q 363 324 370 303 L 404 224 L 368 224 Q 346 222 344 200 L 344 200 Z"/>
</svg>
