<svg xmlns="http://www.w3.org/2000/svg" viewBox="0 0 512 512">
  <path d="M 146 91 Q 157 83 159 70 L 159 70 L 159 70 Q 162 58 155 46 Q 147 35 134 33 Q 122 30 110 37 Q 90 50 65 80 Q 39 109 20 154 Q 1 198 0 256 Q 1 314 20 358 Q 39 403 65 432 Q 90 462 110 475 Q 122 482 134 479 Q 147 477 155 466 Q 162 454 159 442 Q 157 429 146 421 Q 124 408 95 366 Q 67 323 64 256 Q 67 189 95 146 Q 124 104 146 91 L 146 91 Z M 366 91 Q 388 104 417 146 L 417 146 L 417 146 Q 445 189 448 256 Q 445 323 417 366 Q 388 408 366 421 Q 355 429 353 442 Q 350 454 357 466 Q 365 477 378 479 Q 390 482 402 475 Q 422 462 447 432 Q 473 403 492 358 Q 511 314 512 256 Q 511 198 492 154 Q 473 109 447 80 Q 422 50 402 37 Q 390 30 378 33 Q 365 35 357 46 Q 350 58 353 70 Q 355 83 366 91 L 366 91 Z" />
</svg>