<svg xmlns="http://www.w3.org/2000/svg" viewBox="0 0 512 512">
  <path d="M 64 64 L 39 39 L 64 64 L 39 39 Q 32 32 32 23 Q 34 2 55 0 L 457 0 L 457 0 Q 478 2 480 23 Q 480 32 473 39 L 448 64 L 448 64 L 64 64 L 64 64 Z M 56 96 L 456 96 L 56 96 L 456 96 L 467 139 L 467 139 Q 480 192 480 247 L 480 265 L 480 265 Q 480 320 467 374 L 456 416 L 456 416 L 56 416 L 56 416 L 45 374 L 45 374 Q 32 320 32 265 L 32 247 L 32 247 Q 32 192 45 139 L 56 96 L 56 96 Z M 64 448 L 448 448 L 64 448 L 448 448 L 473 473 L 473 473 Q 480 480 480 489 Q 478 510 457 512 L 55 512 L 55 512 Q 34 510 32 489 Q 32 480 39 473 L 64 448 L 64 448 Z M 144 160 Q 129 161 128 176 Q 129 221 158 253 Q 187 284 232 288 L 232 328 L 232 328 Q 234 350 256 352 Q 278 350 280 328 L 280 288 L 280 288 Q 325 284 354 252 Q 383 221 384 176 Q 383 161 368 160 L 366 160 L 366 160 Q 330 160 301 178 Q 273 195 256 225 Q 239 195 211 178 Q 182 160 146 160 L 144 160 L 144 160 Z" />
</svg>