<svg xmlns="http://www.w3.org/2000/svg" viewBox="0 0 512 452">
    <path d="M 480 36 Q 480 18 465 9 Q 450 0 434 7 L 402 23 Q 390 30 386 42 Q 382 54 387 66 Q 397 84 416 84 L 416 164 Q 402 164 393 173 Q 384 182 384 196 Q 384 210 393 219 Q 402 228 416 228 L 448 228 L 480 228 Q 494 228 503 219 Q 512 210 512 196 Q 512 182 503 173 Q 494 164 480 164 L 480 36 L 480 36 Z M 32 68 Q 18 68 9 77 L 9 77 Q 0 86 0 100 Q 0 114 9 123 Q 18 132 32 132 L 47 132 L 137 260 L 47 388 L 32 388 Q 18 388 9 397 Q 0 406 0 420 Q 0 434 9 443 Q 18 452 32 452 L 64 452 Q 80 452 90 438 L 176 316 L 262 438 Q 272 452 288 452 L 320 452 Q 334 452 343 443 Q 352 434 352 420 Q 352 406 343 397 Q 334 388 320 388 L 305 388 L 215 260 L 305 132 L 320 132 Q 334 132 343 123 Q 352 114 352 100 Q 352 86 343 77 Q 334 68 320 68 L 288 68 Q 272 68 262 82 L 176 204 L 90 82 Q 80 68 64 68 L 32 68 L 32 68 Z"/>
</svg>
