<svg xmlns="http://www.w3.org/2000/svg" viewBox="0 0 384 512">
    <path d="M 373 257 L 372 255 Q 320 112 209 9 L 206 6 Q 200 0 192 0 Q 184 0 178 6 L 175 9 Q 64 112 12 255 L 12 257 Q 0 288 0 322 Q 2 402 57 456 Q 111 510 192 512 Q 273 510 327 456 Q 382 402 384 322 Q 384 288 373 257 L 373 257 Z M 189 148 Q 192 144 197 144 Q 207 145 208 155 L 208 166 Q 208 180 218 190 L 269 240 Q 303 275 304 323 Q 303 369 272 400 Q 241 431 195 432 L 192 432 Q 144 431 113 399 Q 81 368 80 320 L 80 312 Q 80 279 102 254 L 109 247 Q 112 243 117 243 Q 127 244 128 254 L 128 298 Q 128 317 141 329 Q 153 341 172 342 Q 191 341 203 329 Q 216 317 216 298 Q 216 280 203 267 L 190 254 Q 169 232 168 201 Q 168 176 183 156 L 189 148 L 189 148 Z"/>
</svg>
