<svg xmlns="http://www.w3.org/2000/svg" viewBox="0 0 640 512">
    <path d="M 128 32 Q 128 46 137 55 L 137 55 Q 146 64 160 64 L 320 64 Q 334 64 343 55 Q 352 46 352 32 Q 352 18 343 9 Q 334 0 320 0 L 160 0 Q 146 0 137 9 Q 128 18 128 32 L 128 32 Z M 32 176 Q 18 176 9 185 L 9 185 Q 0 194 0 208 L 0 384 Q 0 398 9 407 Q 18 416 32 416 Q 46 416 55 407 Q 64 398 64 384 L 64 208 Q 64 194 55 185 Q 46 176 32 176 L 32 176 Z M 160 224 L 96 224 L 96 384 L 320 384 L 320 96 L 160 96 L 160 224 L 160 224 Z M 432 107 L 381 141 Q 353 161 352 194 L 352 414 Q 353 447 381 467 L 432 501 Q 448 512 467 512 L 576 512 Q 603 511 621 493 Q 639 475 640 448 L 640 160 Q 639 133 621 115 Q 603 97 576 96 L 467 96 Q 448 96 432 107 L 432 107 Z M 448 208 Q 449 193 464 192 L 560 192 Q 575 193 576 208 Q 575 223 560 224 L 464 224 Q 449 223 448 208 L 448 208 Z M 448 304 Q 449 289 464 288 L 560 288 Q 575 289 576 304 Q 575 319 560 320 L 464 320 Q 449 319 448 304 L 448 304 Z M 448 400 Q 449 385 464 384 L 560 384 Q 575 385 576 400 Q 575 415 560 416 L 464 416 Q 449 415 448 400 L 448 400 Z"/>
</svg>
