<svg xmlns="http://www.w3.org/2000/svg" viewBox="0 0 512 512">
  <path d="M 256 512 Q 326 511 384 478 L 384 478 L 384 478 Q 442 444 478 384 Q 512 323 512 256 Q 512 189 478 128 Q 442 68 384 34 Q 326 1 256 0 Q 186 1 128 34 Q 70 68 34 128 Q 0 189 0 256 Q 0 323 34 384 Q 70 444 128 478 Q 186 511 256 512 L 256 512 Z M 256 160 Q 282 160 304 173 L 304 173 L 304 173 Q 326 186 339 208 Q 352 231 352 256 Q 352 281 339 304 Q 326 326 304 339 Q 282 352 256 352 Q 230 352 208 339 Q 186 326 173 304 Q 160 281 160 256 Q 160 231 173 208 Q 186 186 208 173 Q 230 160 256 160 L 256 160 Z" />
</svg>