<svg xmlns="http://www.w3.org/2000/svg" viewBox="0 0 512 512">
  <path d="M 477.83365570599614 36.642166344294004 Q 476.84332688588006 15.845261121856867 458.02707930367507 6.932301740812379 Q 439.21083172147 0 423.36557059961314 13.864603481624759 L 380.7814313346228 57.439071566731144 L 380.7814313346228 57.439071566731144 Q 344.1392649903288 93.0909090909091 298.5841392649903 112.89748549323018 Q 252.03868471953578 131.71373307543521 201.53191489361703 131.71373307543521 L 192.61895551257254 131.71373307543521 L 65.85686653771761 131.71373307543521 Q 39.11798839458414 132.70406189555126 21.292069632495163 150.52998065764024 Q 3.4661508704061896 168.3558994197292 2.4758220502901356 195.09477756286267 L 2.4758220502901356 290.16634429400386 L 2.4758220502901356 290.16634429400386 Q 3.4661508704061896 316.90522243713735 21.292069632495163 334.73114119922633 Q 39.11798839458414 352.5570599613153 65.85686653771761 353.5473887814313 L 65.85686653771761 480.30947775628624 L 65.85686653771761 480.30947775628624 Q 65.85686653771761 494.174081237911 74.7698259187621 503.0870406189555 Q 83.68278529980658 512 97.54738878143134 512 L 160.9284332688588 512 L 160.9284332688588 512 Q 174.79303675048357 512 183.70599613152805 503.0870406189555 Q 192.61895551257254 494.174081237911 192.61895551257254 480.30947775628624 L 192.61895551257254 353.5473887814313 L 192.61895551257254 353.5473887814313 L 201.53191489361703 353.5473887814313 L 201.53191489361703 353.5473887814313 Q 252.03868471953578 353.5473887814313 298.5841392649903 373.3539651837524 Q 344.1392649903288 392.17021276595744 380.7814313346228 427.8220502901354 L 423.36557059961314 471.3965183752418 L 423.36557059961314 471.3965183752418 Q 439.21083172147 485.2611218568665 458.02707930367507 478.32882011605415 Q 476.84332688588006 469.4158607350097 477.83365570599614 448.61895551257254 L 477.83365570599614 302.0502901353965 L 477.83365570599614 302.0502901353965 Q 491.69825918762086 295.11798839458413 500.6112185686654 279.27272727272725 Q 509.52417794970984 263.42746615087043 509.52417794970984 242.63056092843325 Q 509.52417794970984 221.83365570599614 500.6112185686654 205.98839458413926 Q 491.69825918762086 190.1431334622824 477.83365570599614 183.21083172147002 L 477.83365570599614 36.642166344294004 L 477.83365570599614 36.642166344294004 Z M 414.4526112185687 112.89748549323018 L 414.4526112185687 242.63056092843325 L 414.4526112185687 112.89748549323018 L 414.4526112185687 242.63056092843325 L 414.4526112185687 372.3636363636364 L 414.4526112185687 372.3636363636364 Q 369.8878143133462 332.7504835589942 315.41972920696327 311.9535783365571 Q 260.95164410058027 290.16634429400386 201.53191489361703 290.16634429400386 L 192.61895551257254 290.16634429400386 L 192.61895551257254 290.16634429400386 L 192.61895551257254 195.09477756286267 L 192.61895551257254 195.09477756286267 L 201.53191489361703 195.09477756286267 L 201.53191489361703 195.09477756286267 Q 260.95164410058027 195.09477756286267 315.41972920696327 173.30754352030948 Q 369.8878143133462 152.51063829787233 414.4526112185687 112.89748549323018 L 414.4526112185687 112.89748549323018 Z" />
</svg>