<svg xmlns="http://www.w3.org/2000/svg" viewBox="0 0 512 512">
  <path d="M 280.04696673189824 499.9765166340509 Q 307.0998043052838 466.9119373776908 346.1761252446184 410.8023483365949 L 346.1761252446184 410.8023483365949 L 346.1761252446184 410.8023483365949 Q 385.25244618395305 355.69471624266146 416.31311154598825 296.57925636007826 L 416.31311154598825 296.57925636007826 L 416.31311154598825 296.57925636007826 Q 446.37181996086105 237.4637964774951 448.3757338551859 192.3757338551859 Q 446.37181996086105 110.21526418786692 392.26614481409 56.10958904109589 Q 338.160469667319 2.003913894324853 256 0 Q 173.83953033268102 2.003913894324853 119.73385518590997 56.10958904109589 Q 65.62818003913894 110.21526418786692 63.62426614481409 192.3757338551859 Q 65.62818003913894 237.4637964774951 95.68688845401174 296.57925636007826 Q 126.74755381604696 355.69471624266146 165.8238747553816 410.8023483365949 Q 204.90019569471625 466.9119373776908 231.95303326810176 499.9765166340509 Q 241.97260273972603 512 256 512 Q 270.027397260274 512 280.04696673189824 499.9765166340509 L 280.04696673189824 499.9765166340509 Z M 174.84148727984345 111.21722113502935 Q 191.8747553816047 97.18982387475538 208.90802348336595 111.21722113502935 L 256 158.3091976516634 L 256 158.3091976516634 L 303.0919765166341 111.21722113502935 L 303.0919765166341 111.21722113502935 Q 320.1252446183953 97.18982387475538 337.1585127201566 111.21722113502935 Q 351.18590998043055 128.2504892367906 337.1585127201566 145.28375733855185 L 290.0665362035225 192.3757338551859 L 290.0665362035225 192.3757338551859 L 337.1585127201566 239.46771037181995 L 337.1585127201566 239.46771037181995 Q 351.18590998043055 256.5009784735812 337.1585127201566 273.5342465753425 Q 320.1252446183953 287.56164383561645 303.0919765166341 273.5342465753425 L 256 226.4422700587084 L 256 226.4422700587084 L 208.90802348336595 273.5342465753425 L 208.90802348336595 273.5342465753425 Q 191.8747553816047 287.56164383561645 174.84148727984345 273.5342465753425 Q 160.81409001956948 256.5009784735812 174.84148727984345 239.46771037181995 L 221.9334637964775 192.3757338551859 L 221.9334637964775 192.3757338551859 L 174.84148727984345 145.28375733855185 L 174.84148727984345 145.28375733855185 Q 160.81409001956948 128.2504892367906 174.84148727984345 111.21722113502935 L 174.84148727984345 111.21722113502935 Z" />
</svg>