<svg xmlns="http://www.w3.org/2000/svg" viewBox="0 0 384 511">
    <path d="M 216 499 Q 243 466 282 410 L 282 410 Q 321 355 352 296 L 352 296 Q 382 237 384 192 Q 382 110 328 56 Q 274 2 192 0 Q 110 2 56 56 Q 2 110 0 192 Q 2 237 32 296 Q 63 355 102 410 Q 141 466 168 499 Q 178 511 192 511 Q 206 511 216 499 L 216 499 Z M 111 111 Q 128 97 145 111 L 192 158 L 239 111 Q 256 97 273 111 Q 287 128 273 145 L 226 192 L 273 239 Q 287 256 273 273 Q 256 287 239 273 L 192 226 L 145 273 Q 128 287 111 273 Q 97 256 111 239 L 158 192 L 111 145 Q 97 128 111 111 L 111 111 Z"/>
</svg>
