<svg xmlns="http://www.w3.org/2000/svg" viewBox="0 0 512 512">
  <path d="M 190.51163 97.24031 Q 189.71783 78.18915 177.81085 65.48837 L 177.81085 65.48837 L 177.81085 65.48837 Q 165.11008 53.581394 146.05891 52.787598 Q 128.59535 52.787598 115.89458 63.900776 Q 103.987595 75.013954 101.6062 92.477516 Q 84.93643 97.24031 74.61706 109.941086 Q 63.503876 123.43566 63.503876 141.69302 Q 63.503876 148.8372 65.09148 155.18759 Q 47.627907 159.9504 36.51473 173.44496 Q 25.40155 186.93953 25.40155 205.1969 Q 25.40155 223.45427 36.51473 236.94884 Q 19.844961 244.88683 10.31938 259.969 Q 0 275.05118 0 294.10233 Q 0 314.7411 11.113178 330.61707 Q 23.020155 346.493 41.27752 353.6372 Q 38.102325 361.5752 38.102325 370.30698 Q 38.896126 391.73953 53.184498 406.0279 Q 67.47287 420.31628 88.905426 421.11008 Q 95.25581 421.11008 101.6062 419.5225 Q 103.987595 436.98605 115.89458 448.0992 Q 128.59535 459.2124 146.05891 459.2124 Q 165.11008 458.4186 177.81085 446.51163 Q 189.71783 433.81085 190.51163 414.7597 L 190.51163 97.24031 L 190.51163 97.24031 Z M 215.91318 97.24031 L 215.91318 414.7597 L 215.91318 97.24031 L 215.91318 414.7597 Q 216.70697 433.81085 228.61395 446.51163 Q 241.31473 458.4186 260.3659 459.2124 Q 264.33487 459.2124 268.30386 458.4186 Q 257.9845 446.51163 250.04651 427.46048 Q 242.10852 408.4093 241.31473 383.00775 Q 242.90233 334.58606 274.65427 302.0403 Q 307.2 270.28836 355.6217 268.70078 L 381.02325 268.70078 L 381.02325 268.70078 L 381.02325 256 L 381.02325 256 Q 381.02325 250.4434 382.61084 244.88683 Q 377.05426 240.12402 369.91006 236.94884 Q 381.02325 223.45427 381.02325 205.1969 Q 381.02325 186.93953 369.91006 173.44496 Q 358.7969 159.9504 341.33334 155.18759 Q 342.92093 148.8372 342.92093 141.69302 Q 342.92093 123.43566 331.80774 109.941086 Q 321.48837 97.24031 304.8186 92.477516 Q 302.4372 75.013954 290.53024 63.900776 Q 277.82947 52.787598 260.3659 52.787598 Q 241.31473 53.581394 228.61395 65.48837 Q 216.70697 78.18915 215.91318 97.24031 L 215.91318 97.24031 Z M 427.85736 247.26822 Q 422.30078 241.71162 414.3628 244.09302 Q 407.2186 248.06201 406.4248 256 L 406.4248 294.10233 L 406.4248 294.10233 L 355.6217 294.10233 L 355.6217 294.10233 Q 317.51938 294.89612 292.91162 320.29767 Q 267.51007 344.90543 266.71628 383.00775 Q 268.30386 415.5535 281.79846 433.81085 Q 294.49924 452.86203 302.4372 457.62482 Q 304.8186 459.2124 307.9938 459.2124 Q 316.7256 458.4186 317.51938 449.68683 L 317.51938 421.11008 L 317.51938 421.11008 Q 318.31317 399.67752 332.60156 385.38916 Q 346.88992 371.10077 368.32248 370.30698 L 406.4248 370.30698 L 406.4248 370.30698 L 406.4248 408.4093 L 406.4248 408.4093 Q 406.4248 416.3473 414.3628 420.31628 Q 422.30078 422.69766 427.85736 417.14108 L 504.062 340.93643 L 504.062 340.93643 Q 512 332.20465 504.062 323.47287 L 427.85736 247.26822 L 427.85736 247.26822 Z" />
</svg>