<svg xmlns="http://www.w3.org/2000/svg" viewBox="0 0 384 448">
    <path d="M 122 84 Q 147 64 180 64 L 223 64 Q 244 65 258 78 Q 271 92 272 113 Q 272 131 261 144 L 32 144 Q 18 144 9 153 Q 0 162 0 176 Q 0 190 9 199 Q 18 208 32 208 L 156 208 L 105 237 Q 102 238 100 240 L 32 240 Q 18 240 9 249 Q 0 258 0 272 Q 0 286 9 295 Q 18 304 32 304 L 52 304 Q 48 319 48 335 Q 49 383 81 415 Q 113 447 161 448 L 204 448 Q 259 448 302 414 L 308 409 Q 318 400 320 388 Q 321 375 313 364 Q 304 354 292 352 Q 279 351 268 359 L 262 364 Q 237 384 204 384 L 161 384 Q 140 383 126 370 Q 113 356 112 335 Q 112 317 123 304 L 352 304 Q 366 304 375 295 Q 384 286 384 272 Q 384 258 375 249 Q 366 240 352 240 L 229 240 L 279 211 Q 282 210 284 208 L 352 208 Q 366 208 375 199 Q 384 190 384 176 Q 384 162 375 153 Q 366 144 352 144 L 332 144 Q 336 129 336 113 Q 335 65 303 33 Q 271 1 223 0 L 180 0 Q 125 0 82 34 L 76 39 Q 66 48 64 60 Q 63 73 71 84 Q 80 94 92 96 Q 105 97 116 89 L 122 84 L 122 84 Z"/>
</svg>
