<svg xmlns="http://www.w3.org/2000/svg" viewBox="0 0 512 512">
  <path d="M 170.00389 24.35728 Q 195.85243 1.4912621 229.65437 1.4912621 L 230.64854 1.4912621 L 230.64854 1.4912621 Q 268.4272 2.485437 293.28156 27.339806 Q 318.13593 52.194176 319.1301 89.97282 Q 319.1301 125.76311 293.28156 151.61165 L 103.39417 341.49902 L 103.39417 341.49902 Q 96.43495 348.45825 96.43495 359.39417 Q 98.4233 381.26602 121.28932 383.25436 Q 131.23106 383.25436 138.19029 376.29514 L 359.89127 154.59418 L 359.89127 154.59418 Q 385.7398 128.74564 421.5301 128.74564 Q 459.30875 129.7398 484.16312 154.59418 Q 509.0175 179.44855 510.01166 217.22719 Q 510.01166 253.01747 484.16312 278.86603 L 396.67572 366.3534 L 396.67572 366.3534 Q 382.7573 380.27185 382.7573 400.15533 Q 383.75146 420.03885 396.67572 432.9631 Q 409.6 445.8874 429.4835 446.88156 Q 439.42523 446.88156 447.37863 442.90485 L 464.2796 433.95728 L 464.2796 433.95728 Q 476.20972 428.98642 488.1398 432.9631 Q 500.06992 436.93982 507.0291 448.8699 Q 512 460.8 508.02332 472.7301 Q 504.0466 484.6602 492.11652 490.62524 L 476.20972 499.5728 L 476.20972 499.5728 Q 454.33786 510.50873 429.4835 510.50873 Q 382.7573 509.51456 350.9437 477.70096 Q 320.12427 446.88156 319.1301 400.15533 Q 320.12427 354.4233 351.93787 321.61554 L 439.42523 234.12816 L 439.42523 234.12816 Q 446.38446 227.16893 446.38446 217.22719 Q 444.39612 194.36116 421.5301 192.37282 Q 411.58835 192.37282 404.62912 199.33203 L 182.92816 421.03302 L 182.92816 421.03302 Q 157.0796 446.88156 121.28932 446.88156 Q 83.51068 445.8874 58.65631 421.03302 Q 33.80194 396.17865 32.807766 358.4 Q 32.807766 322.6097 58.65631 296.76117 L 248.54369 106.87379 L 248.54369 106.87379 Q 255.50291 99.914566 255.50291 89.97282 Q 253.51456 67.1068 230.64854 65.11845 L 229.65437 65.11845 L 229.65437 65.11845 Q 219.71262 65.11845 212.7534 72.07767 L 54.67961 216.23302 L 54.67961 216.23302 Q 43.74369 225.18059 30.819418 224.1864 Q 18.88932 223.19223 8.947573 214.24466 Q 0 203.30873 0.9941748 190.38446 Q 1.9883496 178.45438 10.935923 168.51262 L 170.00389 24.35728 L 170.00389 24.35728 Z" />
</svg>