<svg xmlns="http://www.w3.org/2000/svg" viewBox="0 0 512 512">
  <path d="M 256 140.8 Q 292 141.6 319.2 161.6 L 319.2 161.6 L 319.2 161.6 Q 347.2 180.8 358.4 213.6 Q 364.8 230.4 364.8 249.6 Q 365.6 252 339.2 265.6 Q 313.6 280 256 281.6 Q 199.2 280 172.8 265.6 Q 147.2 252 147.2 249.6 Q 147.2 230.4 153.6 213.6 Q 164.8 180.8 192.8 161.6 Q 220 141.6 256 140.8 L 256 140.8 Z M 256 102.4 Q 200.8 103.2 161.6 136.8 L 161.6 136.8 L 161.6 136.8 Q 121.6 170.4 111.2 222.4 Q 60 236.8 30.4 258.4 Q 0.8 280.8 0 307.2 Q 0.8 336 35.2 359.2 Q 68.8 381.6 127.2 396 Q 184.8 409.6 256 409.6 Q 327.2 409.6 384.8 396 Q 443.2 381.6 476.8 359.2 Q 511.2 336 512 307.2 Q 511.2 280.8 481.6 258.4 Q 452 236.8 400.8 222.4 Q 390.4 170.4 350.4 136.8 Q 311.2 103.2 256 102.4 L 256 102.4 Z M 256 332.8 Q 273.6 334.4 275.2 352 Q 273.6 369.6 256 371.2 Q 238.4 369.6 236.8 352 Q 238.4 334.4 256 332.8 L 256 332.8 Z M 83.2 313.6 Q 84.8 296 102.4 294.4 Q 120 296 121.6 313.6 Q 120 331.2 102.4 332.8 Q 84.8 331.2 83.2 313.6 L 83.2 313.6 Z M 409.6 294.4 Q 427.2 296 428.8 313.6 Q 427.2 331.2 409.6 332.8 Q 392 331.2 390.4 313.6 Q 392 296 409.6 294.4 L 409.6 294.4 Z" />
</svg>