<svg xmlns="http://www.w3.org/2000/svg" viewBox="0 0 512 512">
  <path d="M 151.20162932790225 478.1099796334012 Q 140.77393075356414 488.5376782077393 126.17515274949083 488.5376782077393 Q 111.57637474541751 488.5376782077393 101.14867617107943 478.1099796334012 L 9.384928716904277 378.0040733197556 L 9.384928716904277 378.0040733197556 Q 0 366.5336048879837 1.0427698574338085 354.020366598778 Q 2.085539714867617 340.46435845213847 11.470468431771893 330.0366598778004 Q 22.940936863543786 320.65173116089613 35.45417515274949 321.69450101832996 Q 49.010183299389 322.7372708757637 59.437881873727086 332.12219959266804 L 92.80651731160896 369.6619144602851 L 92.80651731160896 369.6619144602851 L 92.80651731160896 54.74541751527495 L 92.80651731160896 54.74541751527495 Q 92.80651731160896 40.14663951120163 102.19144602851324 30.761710794297354 Q 111.57637474541751 21.376782077393074 126.17515274949083 21.376782077393074 Q 140.77393075356414 21.376782077393074 150.15885947046843 30.761710794297354 Q 159.5437881873727 40.14663951120163 159.5437881873727 54.74541751527495 L 159.5437881873727 369.6619144602851 L 159.5437881873727 369.6619144602851 L 192.91242362525458 332.12219959266804 L 192.91242362525458 332.12219959266804 Q 203.34012219959266 322.7372708757637 216.89613034623218 321.69450101832996 Q 229.4093686354379 320.65173116089613 240.87983706720976 330.0366598778004 Q 250.26476578411405 340.46435845213847 251.30753564154787 352.9775967413442 Q 252.35030549898167 366.5336048879837 242.96537678207739 378.0040733197556 L 151.20162932790225 478.1099796334012 L 151.20162932790225 478.1099796334012 Z M 293.0183299389002 54.74541751527495 Q 293.0183299389002 40.14663951120163 302.4032586558045 30.761710794297354 L 302.4032586558045 30.761710794297354 L 302.4032586558045 30.761710794297354 Q 311.78818737270876 21.376782077393074 326.3869653767821 21.376782077393074 L 459.8615071283096 21.376782077393074 L 459.8615071283096 21.376782077393074 Q 481.7596741344195 22.419551934826885 491.14460285132384 42.23217922606925 Q 498.4439918533605 62.044806517311606 483.8452138492872 78.72912423625255 L 406.6802443991853 154.85132382892058 L 406.6802443991853 154.85132382892058 L 459.8615071283096 154.85132382892058 L 459.8615071283096 154.85132382892058 Q 474.46028513238286 154.85132382892058 483.8452138492872 164.23625254582484 Q 493.23014256619143 173.62118126272912 493.23014256619143 188.21995926680245 Q 493.23014256619143 202.81873727087577 483.8452138492872 212.20366598778003 Q 474.46028513238286 221.5885947046843 459.8615071283096 221.5885947046843 L 326.3869653767821 221.5885947046843 L 326.3869653767821 221.5885947046843 Q 304.4887983706721 220.54582484725051 295.10386965376784 200.73319755600815 Q 287.8044806517312 180.9205702647658 302.4032586558045 164.23625254582484 L 379.5682281059063 88.11405295315683 L 379.5682281059063 88.11405295315683 L 326.3869653767821 88.11405295315683 L 326.3869653767821 88.11405295315683 Q 311.78818737270876 88.11405295315683 302.4032586558045 78.72912423625255 Q 293.0183299389002 69.34419551934828 293.0183299389002 54.74541751527495 L 293.0183299389002 54.74541751527495 Z M 393.1242362525458 254.9572301425662 Q 412.9368635437882 256 423.3645621181263 273.72708757637474 L 490.10183299389 407.20162932790225 L 490.10183299389 407.20162932790225 L 506.78615071283093 440.5702647657841 L 506.78615071283093 440.5702647657841 Q 512 453.0835030549898 507.82892057026476 465.5967413441955 Q 503.6578411405295 478.1099796334012 491.14460285132384 485.4093686354379 Q 478.6313645621181 490.6232179226069 466.11812627291243 486.4521384928717 Q 453.6048879837067 482.28105906313647 446.30549898167004 469.76782077393074 L 439.0061099796334 455.1690427698574 L 439.0061099796334 455.1690427698574 L 347.24236252545825 455.1690427698574 L 347.24236252545825 455.1690427698574 L 339.9429735234216 469.76782077393074 L 339.9429735234216 469.76782077393074 Q 332.6435845213849 482.28105906313647 320.13034623217925 486.4521384928717 Q 307.6171079429735 490.6232179226069 295.10386965376784 485.4093686354379 Q 282.5906313645621 478.1099796334012 278.41955193482687 465.5967413441955 Q 274.2484725050916 453.0835030549898 279.4623217922607 440.5702647657841 L 296.1466395112016 407.20162932790225 L 296.1466395112016 407.20162932790225 L 362.8839103869654 273.72708757637474 L 362.8839103869654 273.72708757637474 Q 373.3116089613035 256 393.1242362525458 254.9572301425662 L 393.1242362525458 254.9572301425662 Z M 372.26883910386965 405.1160896130346 L 413.979633401222 405.1160896130346 L 372.26883910386965 405.1160896130346 L 413.979633401222 405.1160896130346 L 393.1242362525458 363.4052953156823 L 393.1242362525458 363.4052953156823 L 372.26883910386965 405.1160896130346 L 372.26883910386965 405.1160896130346 Z" />
</svg>