<svg xmlns="http://www.w3.org/2000/svg" viewBox="0 0 384 512">
    <path d="M 192 0 Q 160 1 136 18 L 136 18 Q 112 36 102 64 L 64 64 Q 37 65 19 83 Q 1 101 0 128 L 0 448 Q 1 475 19 493 Q 37 511 64 512 L 320 512 Q 347 511 365 493 Q 383 475 384 448 L 384 128 Q 383 101 365 83 Q 347 65 320 64 L 283 64 Q 272 36 248 18 Q 224 1 192 0 L 192 0 Z M 192 64 Q 206 64 215 73 L 215 73 Q 224 82 224 96 Q 224 110 215 119 Q 206 128 192 128 Q 178 128 169 119 Q 160 110 160 96 Q 160 82 169 73 Q 178 64 192 64 L 192 64 Z M 187 197 Q 197 208 187 219 L 123 283 Q 112 293 101 283 L 69 251 Q 59 240 69 229 Q 80 219 91 229 L 112 249 L 165 197 Q 176 187 187 197 L 187 197 Z M 192 272 Q 193 257 208 256 L 304 256 Q 319 257 320 272 Q 319 287 304 288 L 208 288 Q 193 287 192 272 L 192 272 Z M 176 352 L 304 352 Q 319 353 320 368 Q 319 383 304 384 L 176 384 Q 161 383 160 368 Q 161 353 176 352 L 176 352 Z M 72 368 Q 74 346 96 344 Q 118 346 120 368 Q 118 390 96 392 Q 74 390 72 368 L 72 368 Z"/>
</svg>
