<svg xmlns="http://www.w3.org/2000/svg" viewBox="0 0 512 512">
  <path d="M 74.28571 36.57143 Q 74.28571 20.571428 84.57143 10.285714 L 84.57143 10.285714 L 84.57143 10.285714 Q 94.85714 0 110.85714 0 L 385.14285 0 L 385.14285 0 Q 409.14285 1.1428572 419.42856 22.857143 Q 427.42856 46.857143 410.2857 64 L 259.42856 201.14285 L 259.42856 201.14285 L 284.57144 201.14285 L 284.57144 201.14285 Q 350.85715 202.28572 394.2857 246.85715 Q 438.85715 290.2857 440 356.57144 Q 438.85715 422.85715 394.2857 466.2857 Q 350.85715 510.85715 284.57144 512 L 194.28572 512 L 194.28572 512 Q 157.71428 512 128 492.57144 Q 97.14286 474.2857 80 441.14285 L 77.71429 436.57144 L 77.71429 436.57144 Q 72 422.85715 76.57143 409.14285 Q 81.14286 395.42856 94.85714 387.42856 Q 108.57143 381.7143 122.28571 386.2857 Q 136 390.85715 144 404.57144 L 146.28572 409.14285 L 146.28572 409.14285 Q 161.14285 437.7143 194.28572 438.85715 L 284.57144 438.85715 L 284.57144 438.85715 Q 320 437.7143 342.85715 414.85715 Q 365.7143 392 366.85715 356.57144 Q 365.7143 321.14285 342.85715 298.2857 Q 320 275.42856 284.57144 274.2857 L 165.71428 274.2857 L 165.71428 274.2857 Q 141.71428 273.14285 131.42857 251.42857 Q 123.42857 227.42857 140.57143 210.28572 L 291.42856 73.14286 L 291.42856 73.14286 L 110.85714 73.14286 L 110.85714 73.14286 Q 94.85714 73.14286 84.57143 62.857143 Q 74.28571 52.57143 74.28571 36.57143 L 74.28571 36.57143 Z" />
</svg>