<svg xmlns="http://www.w3.org/2000/svg" viewBox="0 0 640 512">
    <path d="M 96 128 Q 96 93 113 64 L 113 64 Q 130 35 160 17 Q 190 0 224 0 Q 258 0 288 17 Q 318 35 335 64 Q 352 93 352 128 Q 352 163 335 192 Q 318 221 288 239 Q 258 256 224 256 Q 190 256 160 239 Q 130 221 113 192 Q 96 163 96 128 L 96 128 Z M 0 482 Q 2 407 52 356 L 52 356 Q 103 306 178 304 L 270 304 Q 345 306 396 356 Q 446 407 448 482 Q 448 495 439 503 Q 431 512 418 512 L 30 512 Q 17 512 9 503 Q 0 495 0 482 L 0 482 Z M 609 512 L 471 512 Q 480 498 480 480 L 480 472 Q 480 426 461 387 Q 443 348 410 320 Q 410 320 410 320 Q 414 320 417 320 L 479 320 Q 547 322 593 367 Q 638 413 640 481 Q 640 494 631 503 Q 622 512 609 512 L 609 512 Z M 432 256 Q 384 255 353 223 Q 383 182 384 128 Q 384 87 366 54 Q 394 33 432 32 Q 480 33 511 65 Q 543 96 544 144 Q 543 192 511 223 Q 480 255 432 256 L 432 256 Z"/>
</svg>
