<svg xmlns="http://www.w3.org/2000/svg" viewBox="0 0 512 512">
  <path d="M 288 32 Q 288 18 279 9 L 279 9 L 279 9 Q 270 0 256 0 Q 242 0 233 9 Q 224 18 224 32 L 224 96 L 224 96 Q 224 110 233 119 Q 242 128 256 128 Q 270 128 279 119 Q 288 110 288 96 L 288 32 L 288 32 Z M 288 416 Q 288 402 279 393 L 279 393 L 279 393 Q 270 384 256 384 Q 242 384 233 393 Q 224 402 224 416 L 224 480 L 224 480 Q 224 494 233 503 Q 242 512 256 512 Q 270 512 279 503 Q 288 494 288 480 L 288 416 L 288 416 Z M 0 256 Q 0 270 9 279 L 9 279 L 9 279 Q 18 288 32 288 L 96 288 L 96 288 Q 110 288 119 279 Q 128 270 128 256 Q 128 242 119 233 Q 110 224 96 224 L 32 224 L 32 224 Q 18 224 9 233 Q 0 242 0 256 L 0 256 Z M 416 224 Q 402 224 393 233 L 393 233 L 393 233 Q 384 242 384 256 Q 384 270 393 279 Q 402 288 416 288 L 480 288 L 480 288 Q 494 288 503 279 Q 512 270 512 256 Q 512 242 503 233 Q 494 224 480 224 L 416 224 L 416 224 Z M 75 75 Q 66 85 66 98 L 66 98 L 66 98 Q 66 110 75 120 L 120 166 L 120 166 Q 130 175 143 175 Q 156 175 166 166 Q 175 156 175 143 Q 175 130 166 120 L 120 75 L 120 75 Q 110 66 98 66 Q 85 66 75 75 L 75 75 Z M 392 347 Q 382 337 369 337 L 369 337 L 369 337 Q 356 337 347 347 Q 337 356 337 369 Q 337 382 347 392 L 392 437 L 392 437 Q 402 446 414 446 Q 427 446 437 437 Q 446 427 446 414 Q 446 402 437 392 L 392 346 L 392 347 Z M 75 437 Q 85 446 98 446 L 98 446 L 98 446 Q 110 446 120 437 L 166 392 L 166 392 Q 175 382 175 369 Q 175 356 166 346 Q 156 337 143 337 Q 130 337 120 346 L 75 392 L 75 392 Q 66 402 66 414 Q 66 427 75 437 L 75 437 Z M 347 120 Q 337 130 337 143 L 337 143 L 337 143 Q 337 156 347 166 Q 356 175 369 175 Q 382 175 392 166 L 437 120 L 437 120 Q 446 110 446 98 Q 446 85 437 75 Q 427 66 414 66 Q 402 66 392 75 L 346 120 L 347 120 Z" />
</svg>