<svg xmlns="http://www.w3.org/2000/svg" viewBox="0 0 529 528">
    <path d="M 48 398 Q 31 384 14 398 Q 0 415 14 432 Q 73 490 148 509 Q 223 528 298 509 Q 373 490 432 432 Q 490 373 509 298 Q 529 223 509 148 Q 490 73 432 14 Q 415 0 398 14 Q 384 31 398 48 Q 447 97 463 160 Q 479 223 463 286 Q 447 349 398 398 Q 349 447 286 463 Q 223 479 160 463 Q 98 446 48 398 L 48 398 Z M 70 376 Q 137 439 223 439 L 223 439 Q 309 439 376 376 Q 439 309 439 223 Q 439 137 376 71 L 372 66 Q 360 57 349 66 L 66 349 Q 57 361 66 372 L 70 376 L 70 376 Z M 316 156 Q 327 146 338 156 L 354 172 Q 364 183 354 194 Q 343 204 332 194 L 316 178 Q 306 167 316 156 L 316 156 Z M 236 236 Q 247 226 258 236 L 274 252 Q 284 263 274 274 Q 263 284 252 274 L 236 258 Q 226 247 236 236 L 236 236 Z M 324 244 Q 335 234 346 244 L 362 260 Q 372 271 362 282 Q 351 292 340 282 L 324 266 Q 314 255 324 244 L 324 244 Z M 156 316 Q 167 306 178 316 L 194 332 Q 204 343 194 354 Q 183 364 172 354 L 156 338 Q 146 327 156 316 L 156 316 Z M 244 324 Q 255 314 266 324 L 282 340 Q 292 351 282 362 Q 271 372 260 362 L 244 346 Q 234 335 244 324 L 244 324 Z"/>
</svg>
