<svg xmlns="http://www.w3.org/2000/svg" viewBox="0 0 512 512">
  <path d="M 164.35797 26.894941 Q 158.38132 11.953307 145.4319 5.9766536 L 145.4319 5.9766536 L 145.4319 5.9766536 Q 131.48637 0 116.54475 2.9883268 L 28.88716 26.894941 L 28.88716 26.894941 Q 1.9922179 36.85603 0 65.74319 Q 0.99610895 190.2568 60.762646 290.8638 Q 120.52918 391.47083 221.13618 451.23737 Q 321.7432 511.0039 446.2568 512 Q 475.14398 510.00778 485.10507 483.11285 L 509.0117 395.45526 L 509.0117 395.45526 Q 512 380.5136 506.02335 366.56808 Q 500.0467 353.61868 485.10507 347.64203 L 389.4786 307.79767 L 389.4786 307.79767 Q 362.58365 298.83267 343.6576 319.75098 L 303.81323 368.5603 L 303.81323 368.5603 Q 251.01945 343.6576 209.18288 302.8171 Q 168.3424 260.98053 143.43968 208.18677 L 192.24902 168.3424 L 192.24902 168.3424 Q 213.16731 149.41634 204.20233 122.5214 L 164.35797 26.894941 L 164.35797 26.894941 Z" />
</svg>