<svg xmlns="http://www.w3.org/2000/svg" viewBox="0 0 512 512">
  <path d="M 492.11650485436894 49.70873786407767 Q 512 41.755339805825244 508.0233009708738 19.883495145631066 Q 500.0699029126214 0 478.1980582524272 3.9766990291262134 L 51.697087378640774 129.24271844660194 L 51.697087378640774 129.24271844660194 Q 37.77864077669903 133.21941747572816 26.842718446601943 142.16699029126212 Q 0.9941747572815534 161.05631067961164 0 193.8640776699029 L 0 197.84077669902913 L 0 197.84077669902913 L 0 305.2116504854369 L 0 305.2116504854369 L 0 448.3728155339806 L 0 448.3728155339806 Q 0.9941747572815534 475.2155339805825 18.889320388349514 493.1106796116505 Q 36.78446601941747 511.00582524271846 63.627184466019415 512 L 445.3902912621359 512 L 445.3902912621359 512 Q 472.2330097087379 511.00582524271846 490.1281553398058 493.1106796116505 Q 508.0233009708738 475.2155339805825 509.0174757281553 448.3728155339806 L 509.0174757281553 193.8640776699029 L 509.0174757281553 193.8640776699029 Q 508.0233009708738 167.02135922330098 490.1281553398058 149.126213592233 Q 472.2330097087379 131.23106796116505 445.3902912621359 130.23689320388348 L 217.7242718446602 130.23689320388348 L 217.7242718446602 130.23689320388348 L 492.11650485436894 49.70873786407767 L 492.11650485436894 49.70873786407767 Z M 318.13592233009706 384.74563106796114 Q 319.13009708737866 348.95533980582525 349.9495145631068 330.06601941747573 Q 381.7631067961165 312.17087378640775 413.5766990291262 330.06601941747573 Q 444.3961165048544 348.95533980582525 445.3902912621359 384.74563106796114 Q 444.3961165048544 420.5359223300971 413.5766990291262 439.4252427184466 Q 381.7631067961165 457.3203883495146 349.9495145631068 439.4252427184466 Q 319.13009708737866 420.5359223300971 318.13592233009706 384.74563106796114 L 318.13592233009706 384.74563106796114 Z M 79.53398058252426 337.0252427184466 L 206.7883495145631 337.0252427184466 L 79.53398058252426 337.0252427184466 L 206.7883495145631 337.0252427184466 Q 221.70097087378642 338.0194174757282 222.69514563106796 352.93203883495147 Q 221.70097087378642 367.84466019417476 206.7883495145631 368.8388349514563 L 79.53398058252426 368.8388349514563 L 79.53398058252426 368.8388349514563 Q 64.62135922330097 367.84466019417476 63.627184466019415 352.93203883495147 Q 64.62135922330097 338.0194174757282 79.53398058252426 337.0252427184466 L 79.53398058252426 337.0252427184466 Z M 95.44077669902913 400.65242718446603 L 190.88155339805826 400.65242718446603 L 95.44077669902913 400.65242718446603 L 190.88155339805826 400.65242718446603 Q 205.79417475728155 401.6466019417476 206.7883495145631 416.55922330097087 Q 205.79417475728155 431.47184466019417 190.88155339805826 432.4660194174757 L 95.44077669902913 432.4660194174757 L 95.44077669902913 432.4660194174757 Q 80.52815533980582 431.47184466019417 79.53398058252426 416.55922330097087 Q 80.52815533980582 401.6466019417476 95.44077669902913 400.65242718446603 L 95.44077669902913 400.65242718446603 Z M 63.627184466019415 225.6776699029126 Q 63.627184466019415 211.7592233009709 72.5747572815534 202.8116504854369 L 72.5747572815534 202.8116504854369 L 72.5747572815534 202.8116504854369 Q 81.52233009708738 193.8640776699029 95.44077669902913 193.8640776699029 L 413.5766990291262 193.8640776699029 L 413.5766990291262 193.8640776699029 Q 427.49514563106794 193.8640776699029 436.44271844660193 202.8116504854369 Q 445.3902912621359 211.7592233009709 445.3902912621359 225.6776699029126 Q 445.3902912621359 239.59611650485436 436.44271844660193 248.54368932038835 Q 427.49514563106794 257.49126213592234 413.5766990291262 257.49126213592234 L 95.44077669902913 257.49126213592234 L 95.44077669902913 257.49126213592234 Q 81.52233009708738 257.49126213592234 72.5747572815534 248.54368932038835 Q 63.627184466019415 239.59611650485436 63.627184466019415 225.6776699029126 L 63.627184466019415 225.6776699029126 Z" />
</svg>