<svg xmlns="http://www.w3.org/2000/svg" viewBox="0 0 512 512">
  <path d="M 128 0 Q 101 1 83 19 L 83 19 L 83 19 Q 65 37 64 64 L 64 448 L 64 448 Q 65 475 83 493 Q 101 511 128 512 L 384 512 L 384 512 Q 411 511 429 493 Q 447 475 448 448 L 448 64 L 448 64 Q 447 37 429 19 Q 411 1 384 0 L 128 0 L 128 0 Z M 224 96 L 288 96 L 224 96 L 288 96 Q 315 97 333 115 Q 351 133 352 160 L 352 240 L 352 240 L 160 240 L 160 240 L 160 160 L 160 160 Q 161 133 179 115 Q 197 97 224 96 L 224 96 Z M 352 272 L 352 352 L 352 272 L 352 352 Q 351 379 333 397 Q 315 415 288 416 L 224 416 L 224 416 Q 197 415 179 397 Q 161 379 160 352 L 160 272 L 160 272 L 352 272 L 352 272 Z M 256 32 Q 271 33 272 48 Q 271 63 256 64 Q 241 63 240 48 Q 241 33 256 32 L 256 32 Z M 256 448 Q 271 449 272 464 Q 271 479 256 480 Q 241 479 240 464 Q 241 449 256 448 L 256 448 Z" />
</svg>