<svg xmlns="http://www.w3.org/2000/svg" viewBox="0 0 535 518">
    <path d="M 263 10 Q 242 0 225 16 L 178 66 Q 171 73 161 75 L 93 89 Q 70 95 68 118 L 64 187 Q 63 197 57 205 L 14 258 Q 0 277 13 297 L 54 352 Q 60 360 61 371 L 62 412 Q 66 404 72 399 L 127 343 Q 104 311 103 270 Q 104 219 138 185 Q 172 151 223 150 Q 265 151 296 174 L 415 54 Q 422 48 431 43 Q 422 37 410 39 L 342 47 Q 332 48 323 43 L 263 10 L 263 10 Z M 150 320 L 273 197 Q 251 182 223 182 Q 186 183 161 208 Q 136 233 135 270 Q 135 298 150 320 L 150 320 Z M 474 79 Q 467 71 456 70 Q 446 70 438 77 L 395 120 L 352 163 L 266 249 L 180 335 L 94 421 Q 87 429 87 439 Q 88 450 96 457 Q 130 484 172 501 Q 214 518 263 518 Q 339 517 400 481 Q 462 445 498 383 Q 534 322 535 246 Q 535 197 518 155 Q 501 113 474 79 L 474 79 Z M 247 438 Q 248 423 263 422 Q 278 423 279 438 Q 278 453 263 454 Q 248 453 247 438 L 247 438 Z M 327 422 Q 342 423 343 438 Q 342 453 327 454 Q 312 453 311 438 Q 312 423 327 422 L 327 422 Z M 279 374 Q 280 359 295 358 Q 310 359 311 374 Q 310 389 295 390 Q 280 389 279 374 L 279 374 Z"/>
</svg>
