<svg xmlns="http://www.w3.org/2000/svg" viewBox="0 0 512 512">
  <path d="M 398.66875981161695 50.23547880690738 Q 405.0989010989011 50.23547880690738 411.52904238618527 51.0392464678179 Q 420.37048665620097 51.84301412872841 422.7817896389325 60.68445839874411 Q 424.3893249607535 69.52590266875981 417.1554160125589 75.15227629513343 Q 389.82731554160125 90.42386185243328 373.7519623233909 116.94819466248038 Q 357.67660910518055 144.276295133438 356.87284144427 177.23076923076923 Q 358.48037676609107 227.86813186813185 391.4348508634223 260.8226059654631 Q 424.3893249607535 293.77708006279437 474.22291993720563 295.38461538461536 Q 484.6718995290424 295.38461538461536 495.1208791208791 293.77708006279437 Q 503.9623233908948 292.1695447409733 508.7849293563579 300.2072213500785 Q 512 309.0486656200942 505.56985871271587 315.4788069073783 Q 462.9701726844584 357.27472527472526 398.66875981161695 358.8822605965463 Q 387.4160125588697 358.8822605965463 376.16326530612247 358.0784929356358 Q 362.49921507064363 329.94662480376763 334.3673469387755 316.28257456828885 Q 331.95604395604397 280.11302982731553 307.0392464678179 256 Q 282.92621664050233 231.88697017268447 246.75667189952904 230.27943485086342 Q 244.3453689167975 218.22291993720566 244.3453689167975 204.55886970172685 Q 245.95290423861852 139.4536891679749 289.3563579277865 95.24646781789639 Q 332.7598116169545 51.84301412872841 398.66875981161695 50.23547880690738 L 398.66875981161695 50.23547880690738 Z M 360.0879120879121 397.4631083202512 Q 359.2841444270016 424.7912087912088 340.79748822605967 442.4740973312402 L 340.79748822605967 442.4740973312402 L 340.79748822605967 442.4740973312402 Q 323.11459968602827 460.9607535321821 295.78649921507065 461.7645211930926 L 77.16169544740973 461.7645211930926 L 77.16169544740973 461.7645211930926 Q 44.20722135007849 460.9607535321821 22.505494505494507 439.2590266875981 Q 0.8037676609105181 417.5572998430141 0 384.6028257456829 Q 0.8037676609105181 354.86342229199374 18.486656200941916 334.7692307692308 Q 36.169544740973315 313.8712715855573 64.30141287284144 308.2448979591837 L 64.30141287284144 307.44113029827315 L 64.30141287284144 307.44113029827315 Q 65.10518053375196 274.4866562009419 86.80690737833595 252.78492935635794 Q 108.50863422291994 231.08320251177395 141.46310832025117 230.27943485086342 Q 162.36106750392466 230.27943485086342 180.04395604395606 240.72841444270017 Q 196.92307692307693 250.37362637362637 207.37205651491365 267.25274725274727 Q 223.44740973312403 256 244.3453689167975 256 Q 271.6734693877551 256.8037676609105 290.16012558869704 274.4866562009419 Q 307.84301412872844 292.97331240188385 308.6467817896389 320.30141287284147 Q 308.6467817896389 327.5353218210361 307.0392464678179 333.96546310832025 Q 330.3485086342229 338.78806907378333 344.81632653061223 355.66718995290427 Q 359.2841444270016 373.3500784929356 360.0879120879121 397.4631083202512 L 360.0879120879121 397.4631083202512 Z" />
</svg>