<svg xmlns="http://www.w3.org/2000/svg" viewBox="0 0 512 512">
  <path d="M 495.09903 339.51068 Q 509.0175 299.74368 509.0175 256 Q 508.02332 184.41942 474.22134 127.75146 Q 440.4194 70.08932 382.7573 36.28738 Q 326.08932 2.485437 254.50874 1.4912621 Q 182.92816 2.485437 126.26019 36.28738 Q 68.59806 70.08932 34.796116 127.75146 Q 0.9941748 184.41942 0 256 Q 0.9941748 327.5806 34.796116 384.24854 Q 68.59806 441.91068 126.26019 475.71262 Q 182.92816 509.51456 254.50874 510.50873 Q 307.2 510.50873 353.9262 490.62524 Q 345.9728 481.67767 342.9903 470.74176 L 320.12427 382.2602 L 320.12427 382.2602 Q 313.16504 351.44077 328.07767 325.59222 Q 341.99612 299.74368 371.82135 290.7961 Q 400.65244 282.8427 424.51263 295.767 Q 448.3728 308.69125 459.30875 334.5398 Q 478.19806 332.55145 495.09903 339.51068 L 495.09903 339.51068 Z M 294.27573 331.55728 Q 293.28156 342.4932 287.3165 349.45242 Q 280.35727 357.40582 270.41553 363.37088 Q 266.43884 365.35922 261.46796 367.34756 Q 266.43884 369.33594 270.41553 371.32428 Q 280.35727 377.2893 287.3165 385.2427 Q 294.27573 393.1961 294.27573 403.13788 Q 293.28156 413.07962 287.3165 421.03302 Q 280.35727 428.98642 270.41553 434.95145 Q 249.53786 445.8874 222.69514 446.88156 Q 216.7301 446.88156 214.74174 440.9165 Q 213.74757 434.95145 218.71844 431.96893 L 218.71844 431.96893 L 218.71844 431.96893 L 218.71844 431.96893 L 218.71844 431.96893 L 218.71844 431.96893 L 218.71844 431.96893 L 218.71844 431.96893 L 218.71844 431.96893 L 218.71844 431.96893 L 218.71844 431.96893 Q 218.71844 431.96893 219.71262 431.96893 Q 219.71262 431.96893 219.71262 430.97476 Q 220.7068 430.97476 220.7068 430.97476 Q 221.70097 429.9806 223.68932 428.98642 Q 227.66602 426.00388 233.63107 422.0272 Q 239.59612 417.0563 242.57864 412.08545 Q 246.55534 406.1204 246.55534 403.13788 Q 246.55534 400.15533 242.57864 394.19028 Q 238.60194 389.21942 233.63107 384.24854 Q 227.66602 380.27185 223.68932 377.2893 Q 221.70097 376.29514 220.7068 375.30096 Q 220.7068 375.30096 219.71262 375.30096 L 219.71262 374.3068 L 219.71262 374.3068 L 218.71844 374.3068 L 218.71844 374.3068 L 218.71844 374.3068 L 218.71844 374.3068 L 218.71844 374.3068 L 218.71844 374.3068 L 218.71844 374.3068 L 218.71844 374.3068 L 218.71844 374.3068 L 218.71844 374.3068 Q 214.74174 372.31845 214.74174 367.34756 Q 214.74174 362.3767 218.71844 360.38834 L 218.71844 360.38834 L 218.71844 360.38834 L 218.71844 360.38834 L 218.71844 360.38834 L 218.71844 360.38834 L 218.71844 360.38834 L 218.71844 360.38834 L 218.71844 360.38834 L 218.71844 360.38834 L 218.71844 360.38834 L 218.71844 360.38834 L 218.71844 360.38834 Q 218.71844 360.38834 219.71262 360.38834 Q 219.71262 359.39417 219.71262 359.39417 Q 220.7068 359.39417 220.7068 359.39417 Q 221.70097 358.4 223.68932 357.40582 Q 227.66602 354.4233 233.63107 350.4466 Q 239.59612 345.47574 242.57864 339.51068 Q 246.55534 334.5398 246.55534 331.55728 Q 246.55534 328.57477 242.57864 322.6097 Q 238.60194 317.63882 233.63107 312.66797 Q 227.66602 307.69708 223.68932 305.70874 Q 221.70097 304.71457 220.7068 303.7204 Q 220.7068 303.7204 219.71262 302.72623 Q 219.71262 302.72623 219.71262 302.72623 Q 218.71844 302.72623 218.71844 302.72623 L 218.71844 302.72623 L 218.71844 302.72623 L 218.71844 302.72623 L 218.71844 302.72623 L 218.71844 302.72623 L 218.71844 302.72623 L 218.71844 302.72623 L 218.71844 302.72623 Q 213.74757 299.74368 214.74174 293.77866 Q 216.7301 287.8136 222.69514 287.8136 Q 249.53786 287.8136 270.41553 299.74368 Q 280.35727 305.70874 287.3165 313.66214 Q 293.28156 320.62137 294.27573 331.55728 L 294.27573 331.55728 Z M 174.97476 176.46602 Q 188.8932 176.46602 197.84077 185.41359 L 197.84077 185.41359 L 197.84077 185.41359 Q 206.78835 194.36116 206.78835 208.27962 Q 206.78835 222.19806 197.84077 231.14563 Q 188.8932 240.0932 174.97476 240.0932 Q 162.05049 240.0932 153.1029 231.14563 Q 144.15533 222.19806 143.16116 208.27962 Q 144.15533 194.36116 153.1029 185.41359 Q 162.05049 176.46602 174.97476 176.46602 L 174.97476 176.46602 Z M 368.83884 234.12816 Q 354.92038 216.23302 334.04272 216.23302 L 334.04272 216.23302 L 334.04272 216.23302 Q 313.16504 216.23302 299.2466 234.12816 Q 289.30484 245.06407 276.38058 237.11067 Q 266.43884 227.16893 273.39807 214.24466 Q 298.25244 184.41942 334.04272 184.41942 Q 369.833 184.41942 394.68738 214.24466 Q 402.64078 227.16893 391.70486 237.11067 Q 378.78058 244.0699 368.83884 234.12816 L 368.83884 234.12816 Z M 431.47183 351.44077 Q 426.50098 334.5398 412.58252 325.59222 L 412.58252 325.59222 L 412.58252 325.59222 Q 397.6699 316.64465 380.76892 321.61554 Q 363.86795 326.5864 355.91455 341.49902 Q 346.96698 356.41165 350.9437 374.3068 L 373.80972 462.78836 L 373.80972 462.78836 Q 378.78058 476.7068 393.6932 474.71844 L 478.19806 450.85825 L 478.19806 450.85825 Q 495.09903 445.8874 503.05243 430.97476 Q 512 415.06796 507.0291 397.17282 Q 503.05243 380.27185 488.1398 371.32428 Q 474.22134 362.3767 456.3262 367.34756 L 436.44272 372.31845 L 436.44272 372.31845 L 431.47183 351.44077 L 431.47183 351.44077 Z" />
</svg>