<svg xmlns="http://www.w3.org/2000/svg" viewBox="0 0 512 512">
  <path d="M 38.67323481116585 50.443349753694584 Q 21.858784893267654 50.443349753694584 11.770114942528735 61.37274220032841 L 11.770114942528735 61.37274220032841 L 11.770114942528735 61.37274220032841 Q 0.8407224958949097 72.30213464696223 0 88.27586206896552 L 0 417.8390804597701 L 0 417.8390804597701 Q 0.8407224958949097 433.8128078817734 11.770114942528735 444.74220032840725 Q 21.858784893267654 454.83087027914615 38.67323481116585 455.67159277504106 L 114.33825944170772 455.67159277504106 L 114.33825944170772 455.67159277504106 L 114.33825944170772 392.6174055829228 L 114.33825944170772 392.6174055829228 Q 114.33825944170772 375.8029556650246 125.26765188834155 365.7142857142857 Q 136.19704433497537 354.7848932676519 152.17077175697867 353.944170771757 Q 168.14449917898193 354.7848932676519 179.07389162561577 365.7142857142857 Q 190.00328407224958 375.8029556650246 190.00328407224958 392.6174055829228 L 190.00328407224958 455.67159277504106 L 190.00328407224958 455.67159277504106 L 266.5090311986864 455.67159277504106 L 266.5090311986864 455.67159277504106 Q 281.64203612479474 454.83087027914615 292.57142857142856 444.74220032840725 Q 302.6600985221675 434.6535303776683 304.34154351395733 419.52052545155993 Q 269.871921182266 404.3875205254516 249.69458128078819 374.1215106732348 Q 228.67651888341544 343.01477832512313 228.67651888341544 303.5008210180624 Q 228.67651888341544 290.88998357963874 231.19868637110017 278.2791461412151 L 215.22495894909687 278.2791461412151 L 215.22495894909687 278.2791461412151 Q 204.29556650246306 277.4384236453202 202.61412151067324 265.6683087027915 L 202.61412151067324 240.44663382594416 L 202.61412151067324 240.44663382594416 Q 203.45484400656815 228.67651888341544 215.22495894909687 227.83579638752053 L 240.44663382594416 227.83579638752053 L 240.44663382594416 227.83579638752053 Q 246.33169129720855 227.83579638752053 250.5353037766831 232.03940886699507 Q 270.71264367816093 202.61412151067324 304.34154351395733 187.48111658456486 L 304.34154351395733 88.27586206896552 L 304.34154351395733 88.27586206896552 Q 303.5008210180624 72.30213464696223 292.57142857142856 61.37274220032841 Q 282.48275862068965 50.443349753694584 265.6683087027915 50.443349753694584 L 38.67323481116585 50.443349753694584 L 38.67323481116585 50.443349753694584 Z M 51.28407224958949 240.44663382594416 Q 52.1247947454844 228.67651888341544 63.894909688013136 227.83579638752053 L 89.11658456486043 227.83579638752053 L 89.11658456486043 227.83579638752053 Q 100.88669950738917 228.67651888341544 101.72742200328408 240.44663382594416 L 101.72742200328408 265.6683087027915 L 101.72742200328408 265.6683087027915 Q 100.88669950738917 277.4384236453202 89.11658456486043 278.2791461412151 L 63.894909688013136 278.2791461412151 L 63.894909688013136 278.2791461412151 Q 52.1247947454844 277.4384236453202 51.28407224958949 265.6683087027915 L 51.28407224958949 240.44663382594416 L 51.28407224958949 240.44663382594416 Z M 139.559934318555 227.83579638752053 L 164.7816091954023 227.83579638752053 L 139.559934318555 227.83579638752053 L 164.7816091954023 227.83579638752053 Q 176.55172413793105 228.67651888341544 177.39244663382595 240.44663382594416 L 177.39244663382595 265.6683087027915 L 177.39244663382595 265.6683087027915 Q 176.55172413793105 277.4384236453202 164.7816091954023 278.2791461412151 L 139.559934318555 278.2791461412151 L 139.559934318555 278.2791461412151 Q 127.78981937602627 277.4384236453202 126.94909688013136 265.6683087027915 L 126.94909688013136 240.44663382594416 L 126.94909688013136 240.44663382594416 Q 127.78981937602627 228.67651888341544 139.559934318555 227.83579638752053 L 139.559934318555 227.83579638752053 Z M 63.894909688013136 126.10837438423646 L 89.11658456486043 126.10837438423646 L 63.894909688013136 126.10837438423646 L 89.11658456486043 126.10837438423646 Q 100.04597701149426 127.78981937602627 101.72742200328408 139.559934318555 L 101.72742200328408 164.7816091954023 L 101.72742200328408 164.7816091954023 Q 100.88669950738917 175.71100164203614 89.11658456486043 177.39244663382595 L 63.894909688013136 177.39244663382595 L 63.894909688013136 177.39244663382595 Q 52.1247947454844 175.71100164203614 51.28407224958949 164.7816091954023 L 51.28407224958949 138.7192118226601 L 51.28407224958949 138.7192118226601 Q 52.1247947454844 127.78981937602627 63.894909688013136 126.10837438423646 L 63.894909688013136 126.10837438423646 Z M 126.94909688013136 139.559934318555 Q 127.78981937602627 127.78981937602627 139.559934318555 126.10837438423646 L 164.7816091954023 126.10837438423646 L 164.7816091954023 126.10837438423646 Q 176.55172413793105 127.78981937602627 177.39244663382595 139.559934318555 L 177.39244663382595 164.7816091954023 L 177.39244663382595 164.7816091954023 Q 176.55172413793105 175.71100164203614 164.7816091954023 177.39244663382595 L 139.559934318555 177.39244663382595 L 139.559934318555 177.39244663382595 Q 127.78981937602627 175.71100164203614 126.94909688013136 164.7816091954023 L 126.94909688013136 138.7192118226601 L 126.94909688013136 139.559934318555 Z M 215.22495894909687 126.10837438423646 L 240.44663382594416 126.10837438423646 L 215.22495894909687 126.10837438423646 L 240.44663382594416 126.10837438423646 Q 252.2167487684729 127.78981937602627 253.89819376026273 139.559934318555 L 253.89819376026273 164.7816091954023 L 253.89819376026273 164.7816091954023 Q 252.2167487684729 175.71100164203614 240.44663382594416 177.39244663382595 L 215.22495894909687 177.39244663382595 L 215.22495894909687 177.39244663382595 Q 204.29556650246306 175.71100164203614 202.61412151067324 164.7816091954023 L 202.61412151067324 138.7192118226601 L 202.61412151067324 138.7192118226601 Q 203.45484400656815 127.78981937602627 215.22495894909687 126.10837438423646 L 215.22495894909687 126.10837438423646 Z M 354.7848932676519 240.44663382594416 Q 390.935960591133 241.28735632183907 409.43185550082103 272.39408866995075 Q 426.2463054187192 303.5008210180624 409.43185550082103 335.44827586206895 Q 390.935960591133 365.7142857142857 354.7848932676519 367.39573070607554 Q 318.6338259441708 365.7142857142857 300.13793103448273 335.44827586206895 Q 283.32348111658456 303.5008210180624 300.13793103448273 272.39408866995075 Q 318.6338259441708 241.28735632183907 354.7848932676519 240.44663382594416 L 354.7848932676519 240.44663382594416 Z M 354.7848932676519 405.2282430213465 Q 386.73234811165844 404.3875205254516 411.95402298850576 387.57307060755335 L 474.16748768472905 449.7865353037767 L 474.16748768472905 449.7865353037767 Q 487.6190476190476 461.5566502463054 501.0706075533662 449.7865353037767 Q 512 436.3349753694581 501.0706075533662 423.7241379310345 L 438.85714285714283 360.66995073891627 L 438.85714285714283 360.66995073891627 Q 455.67159277504106 336.28899835796386 455.67159277504106 303.5008210180624 Q 454.83087027914615 260.623973727422 426.2463054187192 232.03940886699507 Q 397.6617405582923 203.45484400656815 354.7848932676519 202.61412151067324 Q 311.9080459770115 203.45484400656815 283.32348111658456 232.03940886699507 Q 254.73891625615764 260.623973727422 253.05747126436782 303.5008210180624 Q 254.73891625615764 347.2183908045977 283.32348111658456 375.8029556650246 Q 311.9080459770115 404.3875205254516 354.7848932676519 405.2282430213465 L 354.7848932676519 405.2282430213465 Z" />
</svg>