<svg xmlns="http://www.w3.org/2000/svg" viewBox="0 0 512 512">
  <path d="M 36.01223241590214 59.49847094801223 Q 21.137614678899084 50.103975535168196 9.394495412844037 62.62996941896024 Q 0 77.5045871559633 12.525993883792049 89.24770642201835 L 475.98776758409787 452.50152905198775 L 475.98776758409787 452.50152905198775 Q 490.86238532110093 461.8960244648318 502.60550458715596 449.37003058103977 Q 512 434.4954128440367 499.47400611620793 422.7522935779817 L 382.8256880733945 331.9388379204893 L 382.8256880733945 331.9388379204893 L 439.97553516819573 350.72782874617735 L 439.97553516819573 350.72782874617735 Q 446.23853211009174 352.29357798165137 450.9357798165138 349.16207951070334 Q 456.41590214067276 345.2477064220183 456.41590214067276 338.9847094801223 L 456.41590214067276 294.3608562691131 L 456.41590214067276 294.3608562691131 Q 456.41590214067276 281.0519877675841 445.45565749235476 274.0061162079511 L 306.1039755351682 180.8440366972477 L 306.1039755351682 180.8440366972477 L 306.1039755351682 129.1743119266055 L 306.1039755351682 129.1743119266055 Q 305.3211009174312 106.47094801223241 292.01223241590213 82.20183486238533 Q 277.9204892966361 57.932721712538225 256 55.584097859327215 Q 234.86238532110093 57.932721712538225 220.77064220183487 82.20183486238533 Q 206.67889908256882 106.47094801223241 205.8960244648318 129.1743119266055 L 205.8960244648318 180.8440366972477 L 205.8960244648318 180.8440366972477 L 197.28440366972478 186.32415902140673 L 197.28440366972478 186.32415902140673 L 36.01223241590214 59.49847094801223 L 36.01223241590214 59.49847094801223 Z M 354.64220183486236 405.52905198776756 L 131.52293577981652 230.1651376146789 L 354.64220183486236 405.52905198776756 L 131.52293577981652 230.1651376146789 L 66.54434250764525 274.0061162079511 L 66.54434250764525 274.0061162079511 Q 55.584097859327215 281.0519877675841 55.584097859327215 294.3608562691131 L 55.584097859327215 338.9847094801223 L 55.584097859327215 338.9847094801223 Q 55.584097859327215 345.2477064220183 61.06422018348624 349.16207951070334 Q 65.76146788990826 352.29357798165137 72.02446483180428 350.72782874617735 L 205.8960244648318 306.1039755351682 L 205.8960244648318 306.1039755351682 L 205.8960244648318 368.73394495412845 L 205.8960244648318 368.73394495412845 L 160.48929663608564 402.3975535168196 L 160.48929663608564 402.3975535168196 Q 155.79204892966362 406.3119266055046 155.79204892966362 412.5749235474006 L 155.79204892966362 445.45565749235476 L 155.79204892966362 445.45565749235476 Q 156.5749235474006 455.6330275229358 166.75229357798165 456.41590214067276 Q 168.31804281345566 456.41590214067276 169.88379204892968 456.41590214067276 L 256 431.3639143730887 L 256 431.3639143730887 L 342.11620795107035 456.41590214067276 L 342.11620795107035 456.41590214067276 Q 343.68195718654437 456.41590214067276 345.2477064220183 456.41590214067276 Q 355.4250764525994 455.6330275229358 356.2079510703364 445.45565749235476 L 356.2079510703364 411.7920489296636 L 356.2079510703364 411.7920489296636 Q 356.2079510703364 408.6605504587156 354.64220183486236 405.52905198776756 L 354.64220183486236 405.52905198776756 Z" />
</svg>