<svg xmlns="http://www.w3.org/2000/svg" viewBox="0 0 512 512">
  <path d="M 256 0 Q 272 0 282.2857 10.285714 L 282.2857 10.285714 L 282.2857 10.285714 Q 292.57144 20.571428 292.57144 36.57143 L 292.57144 192 L 292.57144 192 L 420.57144 115.42857 L 420.57144 115.42857 Q 433.14285 107.42857 448 110.85714 Q 461.7143 114.28571 469.7143 128 Q 477.7143 140.57143 474.2857 155.42857 Q 470.85715 169.14285 457.14285 178.28572 L 326.85715 256 L 326.85715 256 L 458.2857 334.85715 L 458.2857 334.85715 Q 470.85715 342.85715 474.2857 356.57144 Q 477.7143 371.42856 470.85715 385.14285 Q 461.7143 397.7143 448 401.14285 Q 433.14285 404.57144 420.57144 397.7143 L 292.57144 321.14285 L 292.57144 321.14285 L 292.57144 475.42856 L 292.57144 475.42856 Q 292.57144 491.42856 282.2857 501.7143 Q 272 512 256 512 Q 240 512 229.71428 501.7143 Q 219.42857 491.42856 219.42857 475.42856 L 219.42857 321.14285 L 219.42857 321.14285 L 92.57143 396.57144 L 92.57143 396.57144 Q 78.85714 404.57144 64 401.14285 Q 50.285713 397.7143 42.285713 384 Q 34.285713 371.42856 37.714287 356.57144 Q 41.142857 342.85715 54.857143 334.85715 L 185.14285 256 L 185.14285 256 L 54.857143 177.14285 L 54.857143 177.14285 Q 41.142857 169.14285 37.714287 155.42857 Q 34.285713 140.57143 42.285713 128 Q 50.285713 114.28571 64 110.85714 Q 78.85714 107.42857 91.42857 115.42857 L 219.42857 192 L 219.42857 192 L 219.42857 36.57143 L 219.42857 36.57143 Q 219.42857 20.571428 229.71428 10.285714 Q 240 0 256 0 L 256 0 Z" />
</svg>