<svg xmlns="http://www.w3.org/2000/svg" viewBox="0 0 644 512">
    <path d="M 210 352 Q 298 350 357 300 L 357 300 Q 416 251 418 176 Q 416 101 357 52 Q 298 2 210 0 Q 122 2 63 52 Q 4 101 2 176 Q 3 235 42 279 Q 36 294 27 304 Q 20 313 14 318 Q 11 321 10 322 Q 9 323 9 323 L 8 323 L 8 323 L 8 323 Q 0 330 3 341 Q 7 351 18 352 Q 52 351 80 340 Q 94 334 105 328 Q 152 351 210 352 L 210 352 Z M 450 176 Q 447 262 386 318 L 386 318 Q 324 374 234 383 Q 253 440 307 475 Q 361 511 434 512 Q 492 511 539 488 Q 550 494 564 500 Q 592 511 626 512 Q 637 511 641 501 Q 644 490 635 483 L 635 483 L 635 483 L 635 483 Q 635 483 635 482 Q 634 482 634 482 Q 633 481 630 478 Q 624 473 617 464 Q 608 453 602 439 Q 641 395 642 336 Q 640 265 586 216 Q 532 167 449 160 Q 450 168 450 176 L 450 176 Z"/>
</svg>
