<svg xmlns="http://www.w3.org/2000/svg" viewBox="0 0 512 512">
  <path d="M 170.00388349514563 24.357281553398057 Q 195.85242718446602 1.4912621359223301 229.65436893203884 1.4912621359223301 L 230.64854368932038 1.4912621359223301 L 230.64854368932038 1.4912621359223301 Q 268.4271844660194 2.4854368932038833 293.28155339805824 27.339805825242717 Q 318.13592233009706 52.19417475728155 319.13009708737866 89.97281553398058 Q 319.13009708737866 125.7631067961165 293.28155339805824 151.61165048543688 L 103.39417475728155 341.4990291262136 L 103.39417475728155 341.4990291262136 Q 96.43495145631069 348.45825242718445 96.43495145631069 359.3941747572816 Q 98.42330097087378 381.2660194174757 121.28932038834951 383.25436893203886 Q 131.23106796116505 383.25436893203886 138.19029126213593 376.29514563106795 L 359.8912621359223 154.59417475728156 L 359.8912621359223 154.59417475728156 Q 385.73980582524274 128.74563106796117 421.53009708737864 128.74563106796117 Q 459.30873786407767 129.7398058252427 484.1631067961165 154.59417475728156 Q 509.0174757281553 179.4485436893204 510.0116504854369 217.22718446601942 Q 510.0116504854369 253.01747572815535 484.1631067961165 278.86601941747574 L 396.6757281553398 366.3533980582524 L 396.6757281553398 366.3533980582524 Q 382.75728155339806 380.2718446601942 382.75728155339806 400.15533980582524 Q 383.7514563106796 420.0388349514563 396.6757281553398 432.9631067961165 Q 409.6 445.8873786407767 429.4834951456311 446.88155339805826 Q 439.4252427184466 446.88155339805826 447.378640776699 442.90485436893204 L 464.27961165048544 433.95728155339805 L 464.27961165048544 433.95728155339805 Q 476.2097087378641 428.9864077669903 488.1398058252427 432.9631067961165 Q 500.0699029126214 436.93980582524273 507.02912621359224 448.86990291262134 Q 512 460.8 508.0233009708738 472.7300970873786 Q 504.04660194174755 484.6601941747573 492.11650485436894 490.6252427184466 L 476.2097087378641 499.5728155339806 L 476.2097087378641 499.5728155339806 Q 454.3378640776699 510.50873786407766 429.4834951456311 510.50873786407766 Q 382.75728155339806 509.5145631067961 350.94368932038833 477.7009708737864 Q 320.1242718446602 446.88155339805826 319.13009708737866 400.15533980582524 Q 320.1242718446602 354.4233009708738 351.93786407766993 321.61553398058254 L 439.4252427184466 234.12815533980583 L 439.4252427184466 234.12815533980583 Q 446.38446601941746 227.16893203883495 446.38446601941746 217.22718446601942 Q 444.3961165048544 194.36116504854368 421.53009708737864 192.37281553398057 Q 411.5883495145631 192.37281553398057 404.62912621359226 199.33203883495145 L 182.9281553398058 421.03300970873784 L 182.9281553398058 421.03300970873784 Q 157.07961165048545 446.88155339805826 121.28932038834951 446.88155339805826 Q 83.51067961165049 445.8873786407767 58.65631067961165 421.03300970873784 Q 33.80194174757282 396.178640776699 32.80776699029126 358.4 Q 32.80776699029126 322.6097087378641 58.65631067961165 296.7611650485437 L 248.54368932038835 106.87378640776699 L 248.54368932038835 106.87378640776699 Q 255.50291262135923 99.91456310679612 255.50291262135923 89.97281553398058 Q 253.51456310679612 67.10679611650485 230.64854368932038 65.11844660194174 L 229.65436893203884 65.11844660194174 L 229.65436893203884 65.11844660194174 Q 219.7126213592233 65.11844660194174 212.75339805825243 72.07766990291262 L 54.679611650485434 216.23300970873785 L 54.679611650485434 216.23300970873785 Q 43.74368932038835 225.18058252427184 30.819417475728155 224.1864077669903 Q 18.889320388349514 223.19223300970873 8.94757281553398 214.24466019417477 Q 0 203.30873786407767 0.9941747572815534 190.3844660194175 Q 1.9883495145631067 178.45436893203885 10.935922330097087 168.5126213592233 L 170.00388349514563 24.357281553398057 L 170.00388349514563 24.357281553398057 Z" />
</svg>