<svg xmlns="http://www.w3.org/2000/svg" viewBox="0 0 512 512">
  <path d="M 0 73.14285714285714 Q 1.1428571428571428 42.285714285714285 21.714285714285715 21.714285714285715 L 21.714285714285715 21.714285714285715 L 21.714285714285715 21.714285714285715 Q 42.285714285714285 1.1428571428571428 73.14285714285714 0 L 438.85714285714283 0 L 438.85714285714283 0 Q 469.7142857142857 1.1428571428571428 490.2857142857143 21.714285714285715 Q 510.85714285714283 42.285714285714285 512 73.14285714285714 L 512 438.85714285714283 L 512 438.85714285714283 Q 510.85714285714283 469.7142857142857 490.2857142857143 490.2857142857143 Q 469.7142857142857 510.85714285714283 438.85714285714283 512 L 73.14285714285714 512 L 73.14285714285714 512 Q 42.285714285714285 510.85714285714283 21.714285714285715 490.2857142857143 Q 1.1428571428571428 469.7142857142857 0 438.85714285714283 L 0 73.14285714285714 L 0 73.14285714285714 Z M 73.14285714285714 128 L 73.14285714285714 384 L 73.14285714285714 128 L 73.14285714285714 384 Q 74.28571428571429 406.85714285714283 89.14285714285714 422.85714285714283 Q 105.14285714285714 437.7142857142857 128 438.85714285714283 L 384 438.85714285714283 L 384 438.85714285714283 Q 406.85714285714283 437.7142857142857 422.85714285714283 422.85714285714283 Q 437.7142857142857 406.85714285714283 438.85714285714283 384 L 438.85714285714283 128 L 438.85714285714283 128 Q 437.7142857142857 105.14285714285714 422.85714285714283 89.14285714285714 Q 406.85714285714283 74.28571428571429 384 73.14285714285714 L 292.57142857142856 73.14285714285714 L 292.57142857142856 73.14285714285714 Q 269.7142857142857 74.28571428571429 253.71428571428572 89.14285714285714 Q 238.85714285714286 105.14285714285714 237.71428571428572 128 L 237.71428571428572 204.57142857142858 L 237.71428571428572 204.57142857142858 Q 203.42857142857142 218.28571428571428 201.14285714285714 256 Q 202.28571428571428 278.85714285714283 217.14285714285714 294.85714285714283 Q 233.14285714285714 309.7142857142857 256 310.85714285714283 Q 278.85714285714283 309.7142857142857 294.85714285714283 294.85714285714283 Q 309.7142857142857 278.85714285714283 310.85714285714283 256 Q 308.57142857142856 218.28571428571428 274.2857142857143 204.57142857142858 L 274.2857142857143 128 L 274.2857142857143 128 Q 275.42857142857144 110.85714285714286 292.57142857142856 109.71428571428571 L 384 109.71428571428571 L 384 109.71428571428571 Q 401.14285714285717 110.85714285714286 402.2857142857143 128 L 402.2857142857143 384 L 402.2857142857143 384 Q 401.14285714285717 401.14285714285717 384 402.2857142857143 L 128 402.2857142857143 L 128 402.2857142857143 Q 110.85714285714286 401.14285714285717 109.71428571428571 384 L 109.71428571428571 128 L 109.71428571428571 128 Q 110.85714285714286 110.85714285714286 128 109.71428571428571 L 164.57142857142858 109.71428571428571 L 164.57142857142858 109.71428571428571 Q 181.71428571428572 108.57142857142857 182.85714285714286 91.42857142857143 Q 181.71428571428572 74.28571428571429 164.57142857142858 73.14285714285714 L 128 73.14285714285714 L 128 73.14285714285714 Q 105.14285714285714 74.28571428571429 89.14285714285714 89.14285714285714 Q 74.28571428571429 105.14285714285714 73.14285714285714 128 L 73.14285714285714 128 Z" />
</svg>