<svg xmlns="http://www.w3.org/2000/svg" viewBox="0 0 512 512">
  <path d="M 480 224 Q 480 271 462 312 L 462 312 L 462 312 Q 444 353 413 384 L 288 384 L 288 384 L 288 352 L 288 352 L 352 352 L 352 352 Q 362 352 367 342 Q 370 332 363 325 L 295 256 L 295 256 L 320 256 L 320 256 Q 330 256 335 246 Q 338 236 331 229 L 267 165 L 267 165 Q 256 155 245 165 L 181 229 L 181 229 Q 174 236 177 246 Q 182 255 192 256 L 217 256 L 217 256 L 149 325 L 149 325 Q 142 332 145 342 Q 150 351 160 352 L 224 352 L 224 352 L 224 384 L 224 384 L 99 384 L 99 384 Q 68 353 50 312 Q 32 271 32 224 Q 33 161 63 111 Q 92 60 143 31 Q 193 1 256 0 Q 319 1 369 31 Q 420 60 449 111 Q 479 161 480 224 L 480 224 Z M 288 80 Q 287 65 272 64 Q 257 65 256 80 Q 257 95 272 96 Q 287 95 288 80 L 288 80 Z M 368 192 Q 383 191 384 176 Q 383 161 368 160 Q 353 161 352 176 Q 353 191 368 192 L 368 192 Z M 128 208 Q 127 193 112 192 Q 97 193 96 208 Q 97 223 112 224 Q 127 223 128 208 L 128 208 Z M 52 474 L 93 416 L 52 474 L 93 416 L 419 416 L 419 416 L 460 474 L 460 474 Q 467 486 461 499 Q 454 511 440 512 L 72 512 L 72 512 Q 58 511 51 499 Q 45 486 52 474 L 52 474 Z" />
</svg>