<svg xmlns="http://www.w3.org/2000/svg" viewBox="0 0 512 512">
  <path d="M 202.28572 146.28572 Q 203.42857 115.42857 224 94.85714 L 224 94.85714 L 224 94.85714 Q 244.57143 74.28571 275.42856 73.14286 Q 288 73.14286 299.42856 76.57143 L 392 107.42857 L 392 107.42857 Q 406.85715 112 419.42856 106.28571 Q 433.14285 99.42857 438.85715 84.57143 Q 442.2857 69.71429 436.57144 57.142857 Q 429.7143 43.42857 414.85715 38.857143 L 322.2857 8 L 322.2857 8 Q 299.42856 0 275.42856 0 Q 213.71428 1.1428572 172.57143 43.42857 Q 130.28572 84.57143 129.14285 146.28572 L 129.14285 219.42857 L 129.14285 219.42857 L 110.85714 219.42857 L 110.85714 219.42857 Q 94.85714 219.42857 84.57143 229.71428 Q 74.28571 240 74.28571 256 Q 74.28571 272 84.57143 282.2857 Q 94.85714 292.57144 110.85714 292.57144 L 129.14285 292.57144 L 129.14285 292.57144 L 129.14285 344 L 129.14285 344 Q 129.14285 373.7143 113.14286 400 L 80 457.14285 L 80 457.14285 Q 69.71429 475.42856 78.85714 493.7143 Q 90.28571 510.85715 110.85714 512 L 403.42856 512 L 403.42856 512 Q 419.42856 512 429.7143 501.7143 Q 440 491.42856 440 475.42856 Q 440 459.42856 429.7143 449.14285 Q 419.42856 438.85715 403.42856 438.85715 L 176 438.85715 L 176 438.85715 L 176 437.7143 L 176 437.7143 Q 202.28572 394.2857 202.28572 344 L 202.28572 292.57144 L 202.28572 292.57144 L 330.2857 292.57144 L 330.2857 292.57144 Q 346.2857 292.57144 356.57144 282.2857 Q 366.85715 272 366.85715 256 Q 366.85715 240 356.57144 229.71428 Q 346.2857 219.42857 330.2857 219.42857 L 202.28572 219.42857 L 202.28572 219.42857 L 202.28572 146.28572 L 202.28572 146.28572 Z" />
</svg>