<svg xmlns="http://www.w3.org/2000/svg" viewBox="0 0 512 448">
    <path d="M 149 33 L 139 64 L 64 64 Q 37 65 19 83 Q 1 101 0 128 L 0 384 Q 1 411 19 429 Q 37 447 64 448 L 448 448 Q 475 447 493 429 Q 511 411 512 384 L 512 128 Q 511 101 493 83 Q 475 65 448 64 L 373 64 L 363 33 Q 351 2 317 0 L 195 0 Q 161 2 149 33 L 149 33 Z M 256 160 Q 282 160 304 173 L 304 173 Q 326 186 339 208 Q 352 231 352 256 Q 352 281 339 304 Q 326 326 304 339 Q 282 352 256 352 Q 230 352 208 339 Q 186 326 173 304 Q 160 281 160 256 Q 160 231 173 208 Q 186 186 208 173 Q 230 160 256 160 L 256 160 Z"/>
</svg>
