<svg xmlns="http://www.w3.org/2000/svg" viewBox="0 0 640 352">
    <path d="M 135 89 Q 125 80 112 80 L 112 80 Q 99 80 89 89 Q 80 99 80 112 Q 80 125 89 135 L 153 199 Q 163 208 176 208 Q 189 208 199 199 Q 208 189 208 176 Q 208 163 199 153 L 135 89 L 135 89 Z M 288 128 Q 288 142 297 151 L 297 151 Q 306 160 320 160 Q 334 160 343 151 Q 352 142 352 128 L 352 32 Q 352 18 343 9 Q 334 0 320 0 Q 306 0 297 9 Q 288 18 288 32 L 288 128 L 288 128 Z M 441 153 Q 432 163 432 176 L 432 176 Q 432 189 441 199 Q 451 208 464 208 Q 477 208 487 199 L 551 135 Q 560 125 560 112 Q 560 99 551 89 Q 541 80 528 80 Q 515 80 505 89 L 441 153 L 441 153 Z M 0 320 Q 0 334 9 343 L 9 343 Q 18 352 32 352 L 96 352 Q 110 352 119 343 Q 128 334 128 320 Q 128 306 119 297 Q 110 288 96 288 L 32 288 Q 18 288 9 297 Q 0 306 0 320 L 0 320 Z M 224 288 Q 210 288 201 297 L 201 297 Q 192 306 192 320 Q 192 334 201 343 Q 210 352 224 352 L 416 352 Q 430 352 439 343 Q 448 334 448 320 Q 448 306 439 297 Q 430 288 416 288 L 224 288 L 224 288 Z M 544 288 Q 530 288 521 297 L 521 297 Q 512 306 512 320 Q 512 334 521 343 Q 530 352 544 352 L 608 352 Q 622 352 631 343 Q 640 334 640 320 Q 640 306 631 297 Q 622 288 608 288 L 544 288 L 544 288 Z"/>
</svg>
