<svg xmlns="http://www.w3.org/2000/svg" viewBox="0 0 512 512">
  <path d="M 36.2911877394636 99.06513409961686 L 350.1609195402299 99.06513409961686 L 36.2911877394636 99.06513409961686 L 350.1609195402299 99.06513409961686 L 350.1609195402299 36.2911877394636 L 350.1609195402299 36.2911877394636 Q 351.1417624521073 15.693486590038313 369.77777777777777 6.865900383141763 Q 388.41379310344826 0 404.1072796934866 13.731800766283525 L 498.2681992337165 107.89272030651341 L 498.2681992337165 107.89272030651341 Q 507.09578544061304 117.70114942528735 507.09578544061304 130.45210727969348 Q 507.09578544061304 143.2030651340996 498.2681992337165 153.01149425287358 L 404.1072796934866 247.17241379310346 L 404.1072796934866 247.17241379310346 Q 388.41379310344826 260.90421455938696 369.77777777777777 253.05747126436782 Q 351.1417624521073 245.21072796934865 350.1609195402299 224.61302681992336 L 350.1609195402299 161.83908045977012 L 350.1609195402299 161.83908045977012 L 36.2911877394636 161.83908045977012 L 36.2911877394636 161.83908045977012 Q 22.559386973180075 161.83908045977012 13.731800766283525 153.01149425287358 Q 4.904214559386973 144.183908045977 4.904214559386973 130.45210727969348 Q 4.904214559386973 116.72030651340997 13.731800766283525 107.89272030651341 Q 22.559386973180075 99.06513409961686 36.2911877394636 99.06513409961686 L 36.2911877394636 99.06513409961686 Z M 475.7088122605364 350.1609195402299 Q 489.4406130268199 350.1609195402299 498.2681992337165 358.98850574712645 L 498.2681992337165 358.98850574712645 L 498.2681992337165 358.98850574712645 Q 507.09578544061304 367.81609195402297 507.09578544061304 381.5478927203065 Q 507.09578544061304 395.27969348659 498.2681992337165 404.1072796934866 Q 489.4406130268199 412.93486590038316 475.7088122605364 412.93486590038316 L 161.83908045977012 412.93486590038316 L 161.83908045977012 412.93486590038316 L 161.83908045977012 475.7088122605364 L 161.83908045977012 475.7088122605364 Q 160.8582375478927 496.30651340996167 142.22222222222223 505.13409961685824 Q 123.58620689655173 512 107.89272030651341 498.2681992337165 L 13.731800766283525 404.1072796934866 L 13.731800766283525 404.1072796934866 Q 4.904214559386973 394.2988505747126 4.904214559386973 381.5478927203065 Q 4.904214559386973 368.79693486590037 13.731800766283525 359.96934865900386 L 107.89272030651341 265.808429118774 L 107.89272030651341 265.808429118774 Q 123.58620689655173 251.095785440613 142.22222222222223 258.9425287356322 Q 160.8582375478927 266.7892720306513 161.83908045977012 287.3869731800766 L 161.83908045977012 350.1609195402299 L 161.83908045977012 350.1609195402299 L 475.7088122605364 350.1609195402299 L 475.7088122605364 350.1609195402299 Z" />
</svg>