<svg xmlns="http://www.w3.org/2000/svg" viewBox="0 0 512 512">
  <path d="M 73.14286 0 Q 42.285713 1.1428572 21.714285 21.714285 L 21.714285 21.714285 L 21.714285 21.714285 Q 1.1428572 42.285713 0 73.14286 L 0 438.85715 L 0 438.85715 Q 1.1428572 469.7143 21.714285 490.2857 Q 42.285713 510.85715 73.14286 512 L 438.85715 512 L 438.85715 512 Q 469.7143 510.85715 490.2857 490.2857 Q 510.85715 469.7143 512 438.85715 L 512 73.14286 L 512 73.14286 Q 510.85715 42.285713 490.2857 21.714285 Q 469.7143 1.1428572 438.85715 0 L 73.14286 0 L 73.14286 0 Z M 173.71428 109.71429 L 338.2857 109.71429 L 173.71428 109.71429 L 338.2857 109.71429 Q 363.42856 112 365.7143 137.14285 Q 363.42856 162.28572 338.2857 164.57143 L 201.14285 164.57143 L 201.14285 164.57143 L 201.14285 237.71428 L 201.14285 237.71428 L 301.7143 237.71428 L 301.7143 237.71428 Q 326.85715 240 329.14285 265.14285 Q 326.85715 290.2857 301.7143 292.57144 L 201.14285 292.57144 L 201.14285 292.57144 L 201.14285 374.85715 L 201.14285 374.85715 Q 198.85715 400 173.71428 402.2857 Q 148.57143 400 146.28572 374.85715 L 146.28572 265.14285 L 146.28572 265.14285 L 146.28572 137.14285 L 146.28572 137.14285 Q 148.57143 112 173.71428 109.71429 L 173.71428 109.71429 Z" />
</svg>