<svg xmlns="http://www.w3.org/2000/svg" viewBox="0 0 512 512">
  <path d="M 438.85715 73.14286 Q 438.85715 57.142857 449.14285 46.857143 L 449.14285 46.857143 L 449.14285 46.857143 Q 459.42856 36.57143 475.42856 36.57143 Q 491.42856 36.57143 501.7143 46.857143 Q 512 57.142857 512 73.14286 L 512 438.85715 L 512 438.85715 Q 512 454.85715 501.7143 465.14285 Q 491.42856 475.42856 475.42856 475.42856 Q 459.42856 475.42856 449.14285 465.14285 Q 438.85715 454.85715 438.85715 438.85715 L 438.85715 73.14286 L 438.85715 73.14286 Z M 10.285714 282.2857 Q 0 270.85715 0 256 L 0 256 L 0 256 Q 0 241.14285 10.285714 229.71428 L 156.57143 83.42857 L 156.57143 83.42857 Q 168 73.14286 182.85715 73.14286 Q 197.71428 73.14286 209.14285 83.42857 Q 219.42857 94.85714 219.42857 109.71429 Q 219.42857 124.57143 209.14285 136 L 124.57143 219.42857 L 124.57143 219.42857 L 329.14285 219.42857 L 329.14285 219.42857 Q 345.14285 219.42857 355.42856 229.71428 Q 365.7143 240 365.7143 256 Q 365.7143 272 355.42856 282.2857 Q 345.14285 292.57144 329.14285 292.57144 L 124.57143 292.57144 L 124.57143 292.57144 L 209.14285 376 L 209.14285 376 Q 219.42857 387.42856 219.42857 402.2857 Q 219.42857 417.14285 209.14285 428.57144 Q 197.71428 438.85715 182.85715 438.85715 Q 168 438.85715 156.57143 428.57144 L 10.285714 282.2857 L 10.285714 282.2857 Z" />
</svg>