<svg xmlns="http://www.w3.org/2000/svg" viewBox="0 0 512 512">
  <path d="M 482.71750433275565 284.8388214904679 Q 494.2530329289428 283.95147313691507 502.23916811091857 275.96533795493934 L 502.23916811091857 275.96533795493934 L 502.23916811091857 275.96533795493934 Q 510.2253032928943 267.9792027729636 511.11265164644715 256.4436741767764 Q 512 244.02079722703638 501.35181975736566 235.1473136915078 L 275.0779896013865 35.493934142114384 L 275.0779896013865 35.493934142114384 Q 266.2045060658579 29.28249566724437 256.4436741767764 29.28249566724437 Q 246.68284228769497 28.395147313691506 236.9220103986135 36.38128249566724 L 8.873483535528596 235.1473136915078 L 8.873483535528596 235.1473136915078 Q 0 244.02079722703638 0 256.4436741767764 Q 0 267.9792027729636 7.986135181975737 275.96533795493934 Q 15.972270363951473 283.95147313691507 28.395147313691506 284.8388214904679 L 56.79029462738301 284.8388214904679 L 56.79029462738301 284.8388214904679 L 56.79029462738301 426.81455805892546 L 56.79029462738301 426.81455805892546 Q 57.67764298093587 450.7729636048527 73.64991334488735 466.74523396880414 Q 89.62218370883882 482.71750433275565 113.58058925476602 483.6048526863085 L 398.41941074523396 483.6048526863085 L 398.41941074523396 483.6048526863085 Q 422.3778162911612 482.71750433275565 438.35008665511265 466.74523396880414 Q 454.3223570190641 450.7729636048527 455.209705372617 426.81455805892546 L 454.3223570190641 284.8388214904679 L 454.3223570190641 284.8388214904679 L 482.71750433275565 284.8388214904679 L 482.71750433275565 284.8388214904679 Z M 227.16117850953205 213.85095320623915 Q 228.04852686308493 200.5407279029463 241.35875216637783 199.6533795493934 L 269.7538994800693 199.6533795493934 L 269.7538994800693 199.6533795493934 Q 283.0641247833622 200.5407279029463 283.95147313691507 213.85095320623915 L 283.95147313691507 256.4436741767764 L 283.95147313691507 256.4436741767764 L 326.5441941074523 256.4436741767764 L 326.5441941074523 256.4436741767764 Q 339.8544194107452 257.3310225303293 340.7417677642981 270.6412478336222 L 340.7417677642981 299.03639514731367 L 340.7417677642981 299.03639514731367 Q 339.8544194107452 312.34662045060657 326.5441941074523 313.2339688041594 L 283.95147313691507 313.2339688041594 L 283.95147313691507 313.2339688041594 L 283.95147313691507 355.8266897746967 L 283.95147313691507 355.8266897746967 Q 283.0641247833622 369.1369150779896 269.7538994800693 370.02426343154247 L 241.35875216637783 370.02426343154247 L 241.35875216637783 370.02426343154247 Q 228.04852686308493 369.1369150779896 227.16117850953205 355.8266897746967 L 227.16117850953205 313.2339688041594 L 227.16117850953205 313.2339688041594 L 184.5684575389948 313.2339688041594 L 184.5684575389948 313.2339688041594 Q 171.2582322357019 312.34662045060657 170.37088388214906 299.03639514731367 L 170.37088388214906 270.6412478336222 L 170.37088388214906 270.6412478336222 Q 171.2582322357019 257.3310225303293 184.5684575389948 256.4436741767764 L 227.16117850953205 256.4436741767764 L 227.16117850953205 256.4436741767764 L 227.16117850953205 213.85095320623915 L 227.16117850953205 213.85095320623915 Z" />
</svg>