<svg xmlns="http://www.w3.org/2000/svg" viewBox="0 0 192 486">
    <path d="M 48 54 Q 49 27 72 12 Q 96 0 120 12 Q 143 27 144 54 Q 143 81 120 96 Q 96 108 72 96 Q 49 81 48 54 L 48 54 Z M 0 198 Q 0 184 9 175 L 9 175 Q 18 166 32 166 L 96 166 Q 110 166 119 175 Q 128 184 128 198 L 128 422 L 160 422 Q 174 422 183 431 Q 192 440 192 454 Q 192 468 183 477 Q 174 486 160 486 L 32 486 Q 18 486 9 477 Q 0 468 0 454 Q 0 440 9 431 Q 18 422 32 422 L 64 422 L 64 230 L 32 230 Q 18 230 9 221 Q 0 212 0 198 L 0 198 Z"/>
</svg>
