<svg xmlns="http://www.w3.org/2000/svg" viewBox="0 0 386 512">
    <path d="M 33 0 Q 19 0 10 10 Q 0 20 1 34 L 30 438 Q 33 470 55 491 Q 77 511 110 512 L 276 512 Q 309 511 331 491 Q 353 470 356 438 L 385 34 Q 386 20 376 10 Q 367 0 353 0 L 33 0 L 33 0 Z M 84 298 L 67 64 L 319 64 L 302 298 L 289 304 Q 257 319 225 304 Q 193 289 161 304 Q 129 319 97 304 L 84 298 L 84 298 Z M 257 196 Q 255 177 238 149 L 238 149 Q 220 121 205 103 Q 193 91 181 103 Q 166 121 148 149 Q 131 177 129 196 Q 130 221 148 238 Q 166 255 193 256 Q 220 255 238 238 Q 256 221 257 196 L 257 196 Z"/>
</svg>
