<svg xmlns="http://www.w3.org/2000/svg" viewBox="0 0 512 512">
  <path d="M 242.63056092843325 0.4951644100580271 Q 257.4854932301741 1.4854932301740813 258.47582205029016 16.340425531914892 L 258.47582205029016 196.58027079303676 L 258.47582205029016 196.58027079303676 L 226.7852998065764 205.49323017408125 L 226.7852998065764 205.49323017408125 L 226.7852998065764 16.340425531914892 L 226.7852998065764 16.340425531914892 Q 227.77562862669245 1.4854932301740813 242.63056092843325 0.4951644100580271 L 242.63056092843325 0.4951644100580271 Z M 68.33268858800774 79.72147001934236 Q 69.32301740812379 52.9825918762089 92.10058027079303 38.12765957446808 Q 115.86847195357834 26.243713733075435 139.63636363636363 38.12765957446808 Q 162.41392649903287 52.9825918762089 163.40425531914894 79.72147001934236 Q 162.41392649903287 106.46034816247582 139.63636363636363 121.31528046421663 Q 115.86847195357834 133.19922630560927 92.10058027079303 121.31528046421663 Q 69.32301740812379 106.46034816247582 68.33268858800774 79.72147001934236 L 68.33268858800774 79.72147001934236 Z M 103.98452611218569 216.38684719535783 Q 95.0715667311412 192.61895551257254 106.95551257253385 171.8220502901354 L 106.95551257253385 171.8220502901354 L 106.95551257253385 171.8220502901354 Q 119.82978723404256 152.01547388781432 146.56866537717602 151.02514506769825 Q 175.28820116054158 152.01547388781432 188.16247582205028 177.7640232108317 L 216.88201160541587 241.1450676982592 L 216.88201160541587 241.1450676982592 L 272.3404255319149 226.29013539651837 L 272.3404255319149 226.29013539651837 Q 291.15667311411994 221.3384912959381 306.01160541586074 233.22243713733076 Q 320.86653771760155 244.11605415860734 321.8568665377176 263.92263056092844 L 321.8568665377176 385.7330754352031 L 321.8568665377176 385.7330754352031 L 443.6673114119923 340.1779497098646 L 443.6673114119923 340.1779497098646 Q 463.47388781431334 332.25531914893617 464.4642166344294 310.468085106383 L 464.4642166344294 309.4777562862669 L 464.4642166344294 309.4777562862669 Q 466.4448742746615 287.69052224371376 488.2321083172147 285.7098646034816 Q 510.0193423597679 287.69052224371376 512 309.4777562862669 L 512 310.468085106383 L 512 310.468085106383 Q 512 336.2166344294004 498.1353965183752 356.0232108317215 Q 484.2707930367505 375.82978723404256 460.50290135396517 384.742746615087 L 131.71373307543521 506.5531914893617 L 131.71373307543521 506.5531914893617 Q 110.91682785299807 511.504835589942 102.00386847195358 491.69825918762086 Q 96.06189555125725 470.9013539651838 115.86847195357834 461.98839458413926 L 258.47582205029016 408.51063829787233 L 258.47582205029016 408.51063829787233 L 258.47582205029016 295.61315280464214 L 258.47582205029016 295.61315280464214 L 192.1237911025145 313.4390715667311 L 192.1237911025145 313.4390715667311 Q 175.28820116054158 317.40038684719536 160.43326885880077 310.468085106383 Q 144.5880077369439 302.54545454545456 136.66537717601548 286.7001934235977 L 103.98452611218569 216.38684719535783 L 103.98452611218569 216.38684719535783 Z M 50.50676982591876 188.65764023210832 L 114.87814313346229 322.35203094777563 L 50.50676982591876 188.65764023210832 L 114.87814313346229 322.35203094777563 Q 120.8201160541586 336.2166344294004 133.6943907156673 341.1682785299807 Q 146.56866537717602 347.11025145067697 160.43326885880077 344.1392649903288 L 197.07543520309477 334.23597678916826 L 197.07543520309477 334.23597678916826 Q 218.86266924564796 330.27466150870407 225.79497098646036 351.0715667311412 Q 229.75628626692458 371.86847195357836 208.95938104448743 379.79110251450675 L 173.30754352030948 389.69439071566734 L 173.30754352030948 389.69439071566734 Q 141.61702127659575 397.6170212765957 113.88781431334623 384.742746615087 Q 86.15860735009672 371.86847195357836 71.3036750483559 343.1489361702128 L 6.932301740812379 208.4642166344294 L 6.932301740812379 208.4642166344294 Q 0 188.65764023210832 18.81624758220503 176.77369439071566 Q 38.622823984526114 169.8413926499033 50.50676982591876 188.65764023210832 L 50.50676982591876 188.65764023210832 Z" />
</svg>