<svg xmlns="http://www.w3.org/2000/svg" viewBox="0 0 512 512">
  <path d="M 182.85715 36.57143 Q 182.85715 20.571428 172.57143 10.285714 L 172.57143 10.285714 L 172.57143 10.285714 Q 162.28572 0 146.28572 0 Q 130.28572 0 120 10.285714 Q 109.71429 20.571428 109.71429 36.57143 L 109.71429 109.71429 L 109.71429 109.71429 L 36.57143 109.71429 L 36.57143 109.71429 Q 20.571428 109.71429 10.285714 120 Q 0 130.28572 0 146.28572 Q 0 162.28572 10.285714 172.57143 Q 20.571428 182.85715 36.57143 182.85715 L 146.28572 182.85715 L 146.28572 182.85715 Q 162.28572 182.85715 172.57143 172.57143 Q 182.85715 162.28572 182.85715 146.28572 L 182.85715 36.57143 L 182.85715 36.57143 Z M 36.57143 329.14285 Q 20.571428 329.14285 10.285714 339.42856 L 10.285714 339.42856 L 10.285714 339.42856 Q 0 349.7143 0 365.7143 Q 0 381.7143 10.285714 392 Q 20.571428 402.2857 36.57143 402.2857 L 109.71429 402.2857 L 109.71429 402.2857 L 109.71429 475.42856 L 109.71429 475.42856 Q 109.71429 491.42856 120 501.7143 Q 130.28572 512 146.28572 512 Q 162.28572 512 172.57143 501.7143 Q 182.85715 491.42856 182.85715 475.42856 L 182.85715 365.7143 L 182.85715 365.7143 Q 182.85715 349.7143 172.57143 339.42856 Q 162.28572 329.14285 146.28572 329.14285 L 36.57143 329.14285 L 36.57143 329.14285 Z M 402.2857 36.57143 Q 402.2857 20.571428 392 10.285714 L 392 10.285714 L 392 10.285714 Q 381.7143 0 365.7143 0 Q 349.7143 0 339.42856 10.285714 Q 329.14285 20.571428 329.14285 36.57143 L 329.14285 146.28572 L 329.14285 146.28572 Q 329.14285 162.28572 339.42856 172.57143 Q 349.7143 182.85715 365.7143 182.85715 L 475.42856 182.85715 L 475.42856 182.85715 Q 491.42856 182.85715 501.7143 172.57143 Q 512 162.28572 512 146.28572 Q 512 130.28572 501.7143 120 Q 491.42856 109.71429 475.42856 109.71429 L 402.2857 109.71429 L 402.2857 109.71429 L 402.2857 36.57143 L 402.2857 36.57143 Z M 365.7143 329.14285 Q 349.7143 329.14285 339.42856 339.42856 L 339.42856 339.42856 L 339.42856 339.42856 Q 329.14285 349.7143 329.14285 365.7143 L 329.14285 475.42856 L 329.14285 475.42856 Q 329.14285 491.42856 339.42856 501.7143 Q 349.7143 512 365.7143 512 Q 381.7143 512 392 501.7143 Q 402.2857 491.42856 402.2857 475.42856 L 402.2857 402.2857 L 402.2857 402.2857 L 475.42856 402.2857 L 475.42856 402.2857 Q 491.42856 402.2857 501.7143 392 Q 512 381.7143 512 365.7143 Q 512 349.7143 501.7143 339.42856 Q 491.42856 329.14285 475.42856 329.14285 L 365.7143 329.14285 L 365.7143 329.14285 Z" />
</svg>