<svg xmlns="http://www.w3.org/2000/svg" viewBox="0 0 576 448">
    <path d="M 0 64 L 576 64 Q 575 37 557 19 Q 539 1 512 0 L 64 0 Q 37 1 19 19 Q 1 37 0 64 L 0 64 Z M 0 96 L 0 384 Q 1 411 19 429 Q 37 447 64 448 L 512 448 Q 539 447 557 429 Q 575 411 576 384 L 576 96 L 0 96 L 0 96 Z M 64 373 Q 65 351 80 336 L 80 336 Q 95 321 117 320 L 235 320 Q 257 321 272 336 Q 287 351 288 373 Q 287 383 277 384 L 75 384 Q 65 383 64 373 L 64 373 Z M 176 160 Q 212 161 231 192 Q 249 224 231 256 Q 212 287 176 288 Q 140 287 121 256 Q 103 224 121 192 Q 140 161 176 160 L 176 160 Z M 352 176 Q 353 161 368 160 L 496 160 Q 511 161 512 176 Q 511 191 496 192 L 368 192 Q 353 191 352 176 L 352 176 Z M 352 240 Q 353 225 368 224 L 496 224 Q 511 225 512 240 Q 511 255 496 256 L 368 256 Q 353 255 352 240 L 352 240 Z M 352 304 Q 353 289 368 288 L 496 288 Q 511 289 512 304 Q 511 319 496 320 L 368 320 Q 353 319 352 304 L 352 304 Z"/>
</svg>
