<svg xmlns="http://www.w3.org/2000/svg" viewBox="0 0 512 512">
  <path d="M 504 36.44444444444444 Q 512 45.333333333333336 512 56.888888888888886 L 512 56.888888888888886 L 512 56.888888888888886 Q 512 68.44444444444444 504 77.33333333333333 L 333.3333333333333 248 L 333.3333333333333 248 L 363.55555555555554 278.22222222222223 L 363.55555555555554 278.22222222222223 Q 369.77777777777777 284.44444444444446 369.77777777777777 292.44444444444446 Q 368 311.1111111111111 349.3333333333333 312.8888888888889 L 323.55555555555554 312.8888888888889 L 323.55555555555554 312.8888888888889 L 227.55555555555554 216.88888888888889 L 227.55555555555554 216.88888888888889 L 227.55555555555554 191.11111111111111 L 227.55555555555554 191.11111111111111 Q 229.33333333333334 172.44444444444446 248 170.66666666666666 Q 256 170.66666666666666 262.22222222222223 176.88888888888889 L 292.44444444444446 207.11111111111111 L 292.44444444444446 207.11111111111111 L 463.1111111111111 36.44444444444444 L 463.1111111111111 36.44444444444444 Q 472 28.444444444444443 483.55555555555554 28.444444444444443 Q 495.1111111111111 28.444444444444443 504 36.44444444444444 L 504 36.44444444444444 Z M 198.22222222222223 237.33333333333334 L 303.1111111111111 342.22222222222223 L 198.22222222222223 237.33333333333334 L 303.1111111111111 342.22222222222223 Q 307.55555555555554 401.77777777777777 265.77777777777777 445.3333333333333 Q 227.55555555555554 482.6666666666667 174.22222222222223 483.55555555555554 L 19.555555555555557 483.55555555555554 L 19.555555555555557 483.55555555555554 Q 1.7777777777777777 481.77777777777777 0 464 Q 0 455.1111111111111 6.222222222222222 448.8888888888889 L 119.11111111111111 348.44444444444446 L 119.11111111111111 348.44444444444446 Q 121.77777777777777 345.77777777777777 119.11111111111111 342.22222222222223 Q 117.33333333333333 339.55555555555554 113.77777777777777 341.3333333333333 L 68.44444444444444 363.55555555555554 L 68.44444444444444 363.55555555555554 Q 58.666666666666664 367.1111111111111 56.888888888888886 356.44444444444446 Q 57.77777777777778 312.8888888888889 88 281.77777777777777 L 95.11111111111111 274.6666666666667 L 95.11111111111111 274.6666666666667 Q 138.66666666666666 232.88888888888889 198.22222222222223 237.33333333333334 L 198.22222222222223 237.33333333333334 Z M 412.44444444444446 341.3333333333333 Q 452.44444444444446 342.22222222222223 473.77777777777777 376.8888888888889 Q 493.3333333333333 412.44444444444446 473.77777777777777 448 Q 452.44444444444446 482.6666666666667 412.44444444444446 483.55555555555554 Q 372.44444444444446 482.6666666666667 351.1111111111111 448 Q 331.55555555555554 412.44444444444446 351.1111111111111 376.8888888888889 Q 372.44444444444446 342.22222222222223 412.44444444444446 341.3333333333333 L 412.44444444444446 341.3333333333333 Z" />
</svg>