<svg xmlns="http://www.w3.org/2000/svg" viewBox="0 0 512 451">
    <path d="M 313 447 Q 333 443 344 427 L 344 427 Q 355 411 351 391 L 349 379 Q 341 339 320 304 L 464 304 Q 484 303 498 290 Q 511 276 512 256 Q 511 227 486 213 Q 503 199 504 176 Q 504 158 493 145 Q 482 132 465 129 Q 472 118 472 104 Q 470 70 439 58 Q 440 53 440 48 Q 439 28 426 14 Q 412 1 392 0 L 295 0 Q 265 0 241 16 L 203 42 Q 161 71 160 122 L 160 160 L 160 208 L 160 233 Q 161 279 196 308 L 203 314 Q 244 347 255 398 L 257 409 Q 261 429 277 440 Q 293 451 313 447 L 313 447 Z M 32 352 L 96 352 Q 110 352 119 343 Q 128 334 128 320 L 128 96 Q 128 82 119 73 Q 110 64 96 64 L 32 64 Q 18 64 9 73 Q 0 82 0 96 L 0 320 Q 0 334 9 343 Q 18 352 32 352 L 32 352 Z"/>
</svg>
