<svg xmlns="http://www.w3.org/2000/svg" viewBox="0 0 512 512">
  <path d="M 201.14285714285714 0 Q 217.14285714285714 0 227.42857142857142 10.285714285714286 L 227.42857142857142 10.285714285714286 L 227.42857142857142 10.285714285714286 Q 237.71428571428572 20.571428571428573 237.71428571428572 36.57142857142857 L 237.71428571428572 74.28571428571429 L 237.71428571428572 74.28571428571429 Q 246.85714285714286 73.14285714285714 256 73.14285714285714 Q 265.14285714285717 73.14285714285714 274.2857142857143 74.28571428571429 L 274.2857142857143 36.57142857142857 L 274.2857142857143 36.57142857142857 Q 274.2857142857143 20.571428571428573 284.57142857142856 10.285714285714286 Q 294.85714285714283 0 310.85714285714283 0 Q 326.85714285714283 0 337.14285714285717 10.285714285714286 Q 347.42857142857144 20.571428571428573 347.42857142857144 36.57142857142857 L 347.42857142857144 92.57142857142857 L 347.42857142857144 92.57142857142857 Q 395.42857142857144 115.42857142857143 427.42857142857144 155.42857142857142 Q 459.42857142857144 196.57142857142858 470.85714285714283 249.14285714285714 Q 474.2857142857143 264 466.2857142857143 276.57142857142856 Q 457.14285714285717 288 442.2857142857143 291.42857142857144 Q 427.42857142857144 294.85714285714283 414.85714285714283 286.85714285714283 Q 403.42857142857144 278.85714285714283 400 262.85714285714283 Q 387.42857142857144 211.42857142857142 347.42857142857144 178.28571428571428 L 347.42857142857144 256 L 347.42857142857144 256 Q 347.42857142857144 272 337.14285714285717 282.2857142857143 Q 326.85714285714283 292.57142857142856 310.85714285714283 292.57142857142856 Q 294.85714285714283 292.57142857142856 284.57142857142856 282.2857142857143 Q 274.2857142857143 272 274.2857142857143 256 L 274.2857142857143 147.42857142857142 L 274.2857142857143 147.42857142857142 Q 265.14285714285717 146.28571428571428 256 146.28571428571428 Q 246.85714285714286 146.28571428571428 237.71428571428572 147.42857142857142 L 237.71428571428572 256 L 237.71428571428572 256 Q 237.71428571428572 272 227.42857142857142 282.2857142857143 Q 217.14285714285714 292.57142857142856 201.14285714285714 292.57142857142856 Q 185.14285714285714 292.57142857142856 174.85714285714286 282.2857142857143 Q 164.57142857142858 272 164.57142857142858 256 L 164.57142857142858 178.28571428571428 L 164.57142857142858 178.28571428571428 Q 112 220.57142857142858 109.71428571428571 292.57142857142856 Q 110.85714285714286 354.2857142857143 152 396.57142857142856 Q 194.28571428571428 437.7142857142857 256 438.85714285714283 L 438.85714285714283 438.85714285714283 L 438.85714285714283 438.85714285714283 Q 454.85714285714283 438.85714285714283 465.14285714285717 449.14285714285717 Q 475.42857142857144 459.42857142857144 475.42857142857144 475.42857142857144 Q 475.42857142857144 491.42857142857144 465.14285714285717 501.7142857142857 Q 454.85714285714283 512 438.85714285714283 512 L 256 512 L 73.14285714285714 512 Q 57.142857142857146 512 46.857142857142854 501.7142857142857 Q 36.57142857142857 491.42857142857144 36.57142857142857 475.42857142857144 Q 36.57142857142857 459.42857142857144 46.857142857142854 449.14285714285717 Q 57.142857142857146 438.85714285714283 73.14285714285714 438.85714285714283 L 92.57142857142857 438.85714285714283 L 92.57142857142857 438.85714285714283 Q 38.857142857142854 378.2857142857143 36.57142857142857 292.57142857142856 Q 37.714285714285715 225.14285714285714 72 172.57142857142858 Q 107.42857142857143 120 164.57142857142858 92.57142857142857 L 164.57142857142858 36.57142857142857 L 164.57142857142858 36.57142857142857 Q 164.57142857142858 20.571428571428573 174.85714285714286 10.285714285714286 Q 185.14285714285714 0 201.14285714285714 0 L 201.14285714285714 0 Z" />
</svg>