<svg xmlns="http://www.w3.org/2000/svg" viewBox="0 0 512 512">
  <path d="M 115.2 435.2 Q 66.4 433.6 33.6 401.6 L 33.6 401.6 L 33.6 401.6 Q 1.6 368.8 0 320 Q 0.8 281.6 21.6 252.8 Q 42.4 224 76.8 211.2 Q 76.8 208 76.8 204.8 Q 78.4 150.4 114.4 114.4 Q 150.4 78.4 204.8 76.8 Q 240.8 77.6 269.6 94.4 Q 298.4 112 316 140.8 Q 334.4 128 358.4 128 Q 391.2 128.8 412.8 150.4 Q 434.4 172 435.2 204.8 Q 435.2 219.2 430.4 232.8 Q 465.6 240 488.8 268 Q 511.2 295.2 512 332.8 Q 511.2 376 482.4 405.6 Q 452.8 434.4 409.6 435.2 L 115.2 435.2 L 115.2 435.2 Z M 191.2 216.8 Q 180 230.4 191.2 244 L 228.8 281.6 L 228.8 281.6 L 191.2 319.2 L 191.2 319.2 Q 180 332.8 191.2 346.4 Q 204.8 357.6 218.4 346.4 L 256 308.8 L 256 308.8 L 293.6 346.4 L 293.6 346.4 Q 307.2 357.6 320.8 346.4 Q 332 332.8 320.8 319.2 L 283.2 281.6 L 283.2 281.6 L 320.8 244 L 320.8 244 Q 332 230.4 320.8 216.8 Q 307.2 205.6 293.6 216.8 L 256 254.4 L 256 254.4 L 218.4 216.8 L 218.4 216.8 Q 204.8 205.6 191.2 216.8 L 191.2 216.8 Z" />
</svg>