<svg xmlns="http://www.w3.org/2000/svg" viewBox="0 0 652 526">
    <path d="M 455 333 L 499 367 Q 512 370 517 381 L 560 415 Q 577 417 582 432 L 621 463 Q 622 463 622 463 Q 623 463 623 463 Q 641 464 646 481 L 642 481 Q 652 495 642 510 Q 627 526 608 514 L 16 50 Q 0 35 12 16 Q 27 0 46 12 L 97 52 Q 154 8 231 7 L 255 7 Q 328 8 383 53 Q 438 98 452 167 Q 455 187 467 203 L 509 256 Q 519 268 519 283 Q 519 302 506 314 Q 494 327 475 327 L 455 327 L 455 327 L 455 333 L 455 333 Z M 7 231 Q 8 173 34 124 L 349 372 L 346 373 Q 328 376 327 394 Q 329 414 348 416 L 410 420 L 453 454 Q 441 485 407 487 L 327 487 L 327 495 Q 325 517 303 519 L 263 519 L 263 519 L 103 519 Q 89 519 80 510 Q 71 501 71 487 L 71 414 Q 70 389 54 369 Q 8 308 7 231 L 7 231 Z M 623 367 Q 645 369 647 391 Q 645 413 623 415 Q 601 413 599 391 Q 601 369 623 367 L 623 367 Z M 559 319 Q 581 321 583 343 Q 581 365 559 367 Q 537 365 535 343 Q 537 321 559 319 L 559 319 Z M 599 295 Q 601 273 623 271 Q 645 273 647 295 Q 645 317 623 319 Q 601 317 599 295 L 599 295 Z"/>
</svg>
