<svg xmlns="http://www.w3.org/2000/svg" viewBox="0 0 512 512">
  <path d="M 503 55 L 463 95 L 503 55 L 463 95 Q 453 104 440 104 Q 427 104 417 95 Q 408 85 408 72 Q 408 59 417 49 L 457 9 L 457 9 Q 467 0 480 0 Q 493 0 503 9 Q 512 19 512 32 Q 512 45 503 55 L 503 55 Z M 183 375 L 55 503 L 183 375 L 55 503 Q 45 512 32 512 Q 19 512 9 503 Q 0 493 0 480 Q 0 467 9 457 L 137 329 L 137 329 Q 147 320 160 320 Q 173 320 183 329 Q 192 339 192 352 Q 192 365 183 375 L 183 375 Z M 240 128 Q 196 129 165 157 L 165 157 L 165 157 Q 134 185 129 228 Q 127 241 117 249 Q 107 257 93 256 Q 80 254 72 244 Q 64 234 65 221 Q 74 153 122 109 Q 171 66 240 64 Q 315 66 364 116 Q 414 165 416 240 Q 414 311 369 359 Q 352 379 352 394 L 352 400 L 352 400 Q 351 448 319 479 Q 288 511 240 512 Q 226 512 217 503 Q 208 494 208 480 Q 208 466 217 457 Q 226 448 240 448 Q 260 447 274 434 Q 287 420 288 400 L 288 394 L 288 394 Q 289 369 299 349 Q 309 330 322 316 Q 351 285 352 240 Q 351 192 319 161 Q 288 129 240 128 L 240 128 Z M 240 208 Q 226 208 217 217 L 217 217 L 217 217 Q 208 226 208 240 Q 206 262 184 264 Q 162 262 160 240 Q 161 206 183 183 Q 206 161 240 160 Q 274 161 297 183 Q 319 206 320 240 Q 318 262 296 264 Q 274 262 272 240 Q 272 226 263 217 Q 254 208 240 208 L 240 208 Z" />
</svg>