<svg xmlns="http://www.w3.org/2000/svg" viewBox="0 0 448 448">
    <path d="M 64 448 Q 37 447 19 429 L 19 429 Q 1 411 0 384 L 0 64 Q 1 37 19 19 Q 37 1 64 0 L 384 0 Q 411 1 429 19 Q 447 37 448 64 L 448 384 Q 447 411 429 429 Q 411 447 384 448 L 64 448 L 64 448 Z M 128 167 L 128 304 Q 129 319 144 320 L 281 320 Q 302 318 304 297 Q 304 288 297 281 L 264 248 L 330 182 Q 336 176 336 168 Q 336 160 330 154 L 294 118 Q 288 112 280 112 Q 272 112 266 118 L 200 184 L 167 151 Q 160 144 151 144 Q 130 146 128 167 L 128 167 Z"/>
</svg>
