<svg xmlns="http://www.w3.org/2000/svg" viewBox="0 0 512 512">
  <path d="M 282.2857 501.7143 Q 270.85715 512 256 512 L 256 512 L 256 512 Q 241.14285 512 229.71428 501.7143 L 83.42857 355.42856 L 83.42857 355.42856 Q 73.14286 344 73.14286 329.14285 Q 73.14286 314.2857 83.42857 302.85715 Q 94.85714 292.57144 109.71429 292.57144 Q 124.57143 292.57144 136 302.85715 L 219.42857 387.42856 L 219.42857 387.42856 L 219.42857 182.85715 L 219.42857 182.85715 Q 219.42857 166.85715 229.71428 156.57143 Q 240 146.28572 256 146.28572 Q 272 146.28572 282.2857 156.57143 Q 292.57144 166.85715 292.57144 182.85715 L 292.57144 387.42856 L 292.57144 387.42856 L 376 302.85715 L 376 302.85715 Q 387.42856 292.57144 402.2857 292.57144 Q 417.14285 292.57144 428.57144 302.85715 Q 438.85715 314.2857 438.85715 329.14285 Q 438.85715 344 428.57144 355.42856 L 282.2857 501.7143 L 282.2857 501.7143 Z M 73.14286 73.14286 Q 57.142857 73.14286 46.857143 62.857143 L 46.857143 62.857143 L 46.857143 62.857143 Q 36.57143 52.57143 36.57143 36.57143 Q 36.57143 20.571428 46.857143 10.285714 Q 57.142857 0 73.14286 0 L 438.85715 0 L 438.85715 0 Q 454.85715 0 465.14285 10.285714 Q 475.42856 20.571428 475.42856 36.57143 Q 475.42856 52.57143 465.14285 62.857143 Q 454.85715 73.14286 438.85715 73.14286 L 73.14286 73.14286 L 73.14286 73.14286 Z" />
</svg>