<svg xmlns="http://www.w3.org/2000/svg" viewBox="0 0 512 512">
  <path d="M 367 413 Q 319 447 256 448 Q 193 447 145 413 L 203 355 L 203 355 Q 227 368 256 368 Q 285 368 309 355 L 367 413 L 367 413 Z M 458 413 Q 510 347 512 256 Q 510 165 458 99 Q 471 77 455 57 Q 435 41 413 54 Q 347 2 256 0 Q 165 2 99 54 Q 77 40 57 57 Q 41 77 54 99 Q 2 165 0 256 Q 2 347 54 413 Q 40 435 57 455 Q 77 471 99 458 Q 165 510 256 512 Q 347 510 413 458 Q 435 472 455 455 Q 471 435 458 413 L 458 413 Z M 412 367 L 354 309 L 412 367 L 354 309 Q 368 285 368 256 Q 368 227 354 203 L 412 145 L 412 145 Q 447 193 448 256 Q 447 319 413 367 L 412 367 Z M 367 100 L 309 158 L 367 100 L 309 158 Q 285 144 256 144 Q 227 144 203 158 L 145 100 L 145 100 Q 193 65 256 64 Q 319 65 367 100 L 367 100 Z M 158 309 L 100 367 L 158 309 L 100 367 Q 65 319 64 256 Q 65 193 100 145 L 158 203 L 158 203 Q 144 227 144 256 Q 144 285 158 309 L 158 309 Z M 208 256 Q 209 229 232 214 Q 256 202 280 214 Q 303 229 304 256 Q 303 283 280 298 Q 256 310 232 298 Q 209 283 208 256 L 208 256 Z" />
</svg>