<svg xmlns="http://www.w3.org/2000/svg" viewBox="0 0 512 512">
  <path d="M 256 0 Q 326 1 384 34 L 384 34 L 384 34 Q 442 68 478 128 Q 512 189 512 256 Q 512 323 478 384 Q 442 444 384 478 Q 326 511 256 512 Q 186 511 128 478 Q 70 444 34 384 Q 0 323 0 256 Q 0 189 34 128 Q 70 68 128 34 Q 186 1 256 0 L 256 0 Z M 232 120 L 232 249 L 232 120 L 232 249 L 172 339 L 172 339 Q 161 358 179 372 Q 198 383 212 365 L 276 269 L 276 269 Q 280 263 280 256 L 280 120 L 280 120 Q 278 98 256 96 Q 234 98 232 120 L 232 120 Z" />
</svg>