<svg xmlns="http://www.w3.org/2000/svg" viewBox="0 0 448 512">
    <path d="M 96 0 Q 55 1 28 28 L 28 28 Q 1 55 0 96 L 0 352 Q 1 389 23 415 Q 46 441 81 447 L 35 493 Q 30 499 33 505 Q 35 511 43 512 L 83 512 Q 96 512 105 503 L 160 448 L 288 448 L 343 503 Q 352 512 365 512 L 405 512 Q 413 511 415 505 Q 418 499 413 493 L 367 447 Q 402 441 425 415 Q 447 389 448 352 L 448 96 Q 447 55 420 28 Q 393 1 352 0 L 96 0 L 96 0 Z M 64 128 Q 64 114 73 105 L 73 105 Q 82 96 96 96 L 176 96 Q 190 96 199 105 Q 208 114 208 128 L 208 224 Q 208 238 199 247 Q 190 256 176 256 L 96 256 Q 82 256 73 247 Q 64 238 64 224 L 64 128 L 64 128 Z M 272 96 L 352 96 Q 366 96 375 105 Q 384 114 384 128 L 384 224 Q 384 238 375 247 Q 366 256 352 256 L 272 256 Q 258 256 249 247 Q 240 238 240 224 L 240 128 Q 240 114 249 105 Q 258 96 272 96 L 272 96 Z M 64 352 Q 64 338 73 329 L 73 329 Q 82 320 96 320 Q 110 320 119 329 Q 128 338 128 352 Q 128 366 119 375 Q 110 384 96 384 Q 82 384 73 375 Q 64 366 64 352 L 64 352 Z M 352 320 Q 366 320 375 329 L 375 329 Q 384 338 384 352 Q 384 366 375 375 Q 366 384 352 384 Q 338 384 329 375 Q 320 366 320 352 Q 320 338 329 329 Q 338 320 352 320 L 352 320 Z"/>
</svg>
