<svg xmlns="http://www.w3.org/2000/svg" viewBox="0 0 514 514">
    <path d="M 385 40 Q 388 27 380 16 L 380 16 Q 373 5 360 3 Q 347 0 336 7 Q 325 15 323 28 L 321 34 L 248 34 Q 230 131 195 188 Q 160 245 121 273 Q 80 301 51 308 Q 41 310 34 312 L 3 476 Q 0 491 9 502 Q 19 514 34 514 L 450 514 L 482 514 Q 496 514 505 505 Q 514 496 514 482 Q 514 468 505 459 Q 496 450 482 450 L 482 378 Q 481 358 464 349 L 342 290 L 274 290 Q 259 289 258 274 Q 259 259 274 258 L 344 258 L 356 194 L 290 194 Q 275 193 274 178 Q 275 163 290 162 L 362 162 L 379 72 L 386 40 L 385 40 Z M 41 277 Q 41 277 42 277 Q 66 271 102 247 Q 135 224 167 174 Q 198 123 215 34 L 114 34 Q 89 36 83 60 L 41 277 L 41 277 Z"/>
</svg>
