<svg xmlns="http://www.w3.org/2000/svg" viewBox="0 0 560 512">
    <path d="M 352 224 L 306 224 Q 271 225 248 248 Q 225 271 224 306 Q 227 338 243 346 Q 255 353 256 366 Q 254 383 238 384 L 236 384 Q 232 384 229 383 Q 218 379 195 363 Q 171 347 150 317 Q 129 287 128 240 Q 130 179 170 138 Q 211 98 272 96 L 352 96 L 352 35 Q 352 20 362 10 Q 372 0 387 0 Q 400 0 410 9 L 548 133 Q 560 144 560 160 Q 560 176 548 187 L 409 312 Q 400 320 388 320 L 384 320 Q 370 320 361 311 Q 352 302 352 288 L 352 224 L 352 224 Z M 80 96 Q 65 97 64 112 L 64 432 Q 65 447 80 448 L 400 448 Q 415 447 416 432 L 416 384 Q 416 370 425 361 Q 434 352 448 352 Q 462 352 471 361 Q 480 370 480 384 L 480 432 Q 479 466 457 489 Q 434 511 400 512 L 80 512 Q 46 511 23 489 Q 1 466 0 432 L 0 112 Q 1 78 23 55 Q 46 33 80 32 L 128 32 Q 142 32 151 41 Q 160 50 160 64 Q 160 78 151 87 Q 142 96 128 96 L 80 96 L 80 96 Z"/>
</svg>
