<svg xmlns="http://www.w3.org/2000/svg" viewBox="0 0 512 512">
  <path d="M 512 142.22223 Q 511.1111 118.22222 495.1111 102.22222 L 495.1111 102.22222 L 495.1111 102.22222 Q 479.1111 86.22222 455.1111 85.333336 L 56.88889 85.333336 L 56.88889 85.333336 Q 32.88889 86.22222 16.88889 102.22222 Q 0.8888889 118.22222 0 142.22223 L 0 369.77777 L 0 369.77777 Q 0.8888889 393.77777 16.88889 409.77777 Q 32.88889 425.77777 56.88889 426.66666 L 369.77777 426.66666 L 369.77777 426.66666 L 369.77777 312.8889 L 369.77777 312.8889 Q 369.77777 300.44446 377.77777 292.44446 Q 385.77777 284.44446 398.22223 284.44446 L 512 284.44446 L 512 284.44446 L 512 142.22223 L 512 142.22223 Z M 398.22223 426.66666 L 512 312.8889 L 398.22223 426.66666 L 512 312.8889 L 398.22223 312.8889 L 398.22223 312.8889 L 398.22223 426.66666 L 398.22223 426.66666 Z M 85.333336 142.22223 Q 97.77778 142.22223 105.77778 150.22223 L 105.77778 150.22223 L 105.77778 150.22223 Q 113.77778 158.22223 113.77778 170.66667 Q 113.77778 183.11111 105.77778 191.11111 Q 97.77778 199.11111 85.333336 199.11111 Q 72.888885 199.11111 64.888885 191.11111 Q 56.88889 183.11111 56.88889 170.66667 Q 56.88889 158.22223 64.888885 150.22223 Q 72.888885 142.22223 85.333336 142.22223 L 85.333336 142.22223 Z" />
</svg>