<svg xmlns="http://www.w3.org/2000/svg" viewBox="0 0 512 288">
    <path d="M 256 64 Q 270 64 279 55 L 279 55 Q 288 46 288 32 Q 288 18 279 9 Q 270 0 256 0 Q 242 0 233 9 Q 224 18 224 32 Q 224 46 233 55 Q 242 64 256 64 L 256 64 Z M 96 128 Q 110 128 119 119 L 119 119 Q 128 110 128 96 Q 128 82 119 73 Q 110 64 96 64 Q 82 64 73 73 Q 64 82 64 96 Q 64 110 73 119 Q 82 128 96 128 L 96 128 Z M 448 96 Q 448 82 439 73 L 439 73 Q 430 64 416 64 Q 402 64 393 73 Q 384 82 384 96 Q 384 110 393 119 Q 402 128 416 128 Q 430 128 439 119 Q 448 110 448 96 L 448 96 Z M 480 288 Q 494 288 503 279 L 503 279 Q 512 270 512 256 Q 512 242 503 233 Q 494 224 480 224 Q 466 224 457 233 Q 448 242 448 256 Q 448 270 457 279 Q 466 288 480 288 L 480 288 Z M 64 256 Q 64 242 55 233 L 55 233 Q 46 224 32 224 Q 18 224 9 233 Q 0 242 0 256 Q 0 270 9 279 Q 18 288 32 288 Q 46 288 55 279 Q 64 270 64 256 L 64 256 Z M 160 224 Q 146 224 137 233 L 137 233 Q 128 242 128 256 Q 128 270 137 279 Q 146 288 160 288 L 352 288 Q 366 288 375 279 Q 384 270 384 256 Q 384 242 375 233 Q 366 224 352 224 L 160 224 L 160 224 Z"/>
</svg>
