<svg xmlns="http://www.w3.org/2000/svg" viewBox="0 0 512 512">
  <path d="M 68.435646 225.58415 Q 145.74257 157.14851 256 154.61386 Q 366.25742 157.14851 443.56436 225.58415 Q 457.50494 236.9901 472.71286 235.72278 Q 489.1881 234.45544 500.59406 221.78218 Q 512 209.10892 510.73267 192.63367 Q 510.73267 176.15842 498.05942 164.75247 Q 448.63367 121.66337 387.80197 97.58416 Q 325.70297 73.50495 256 73.50495 Q 186.29703 73.50495 124.19802 97.58416 Q 63.366337 121.66337 15.207921 164.75247 Q 2.5346534 176.15842 1.2673267 192.63367 Q 0 209.10892 11.405941 221.78218 Q 22.811882 234.45544 39.28713 235.72278 Q 54.49505 236.9901 68.435646 225.58415 L 68.435646 225.58415 Z M 256 438.49506 Q 301.62375 437.22772 325.70297 397.94058 Q 348.51486 357.38614 325.70297 316.8317 Q 301.62375 277.54456 256 276.27722 Q 210.37624 277.54456 186.29703 316.8317 Q 163.48515 357.38614 186.29703 397.94058 Q 210.37624 437.22772 256 438.49506 L 256 438.49506 Z" />
</svg>