<svg xmlns="http://www.w3.org/2000/svg" viewBox="0 0 400 512">
    <path d="M 200 0 Q 183 0 172 12 L 172 12 Q 160 23 160 40 L 160 204 Q 147 192 128 192 Q 108 193 94 206 Q 81 220 80 240 L 80 247 L 80 320 Q 79 335 64 336 Q 49 335 48 320 L 48 264 Q 46 266 44 268 Q 43 268 42 269 L 23 285 Q 1 304 0 334 L 0 372 Q 1 431 46 470 L 52 475 Q 96 511 154 512 L 272 512 Q 326 511 363 474 Q 399 438 400 384 L 400 320 L 400 288 Q 399 268 386 254 Q 372 241 352 240 Q 333 240 320 252 Q 318 233 305 221 Q 291 208 272 208 Q 253 208 240 220 L 240 40 Q 240 23 228 12 Q 217 0 200 0 L 200 0 Z"/>
</svg>
