<svg xmlns="http://www.w3.org/2000/svg" viewBox="0 0 512 512">
  <path d="M 512 256 Q 511 328 477 385 L 477 385 L 477 385 Q 443 443 385 477 L 385 477 L 385 477 Q 328 511 256 512 Q 184 511 127 477 Q 69 443 35 385 Q 1 328 0 256 Q 0 223 8 192 L 48 192 L 48 192 L 48 248 L 48 248 Q 49 272 64 288 Q 80 303 104 304 L 184 304 L 184 304 Q 208 303 224 288 Q 239 272 240 248 L 240 192 L 240 192 L 272 192 L 272 192 L 272 248 L 272 248 Q 273 272 288 288 Q 304 303 328 304 L 408 304 L 408 304 Q 432 303 448 288 Q 463 272 464 248 L 464 192 L 464 192 L 504 192 L 504 192 Q 512 223 512 256 L 512 256 Z M 256 0 Q 338 1 401 45 L 401 45 L 401 45 Q 464 88 493 160 L 459 160 L 459 160 Q 443 130 408 128 L 328 128 L 328 128 Q 293 130 277 160 L 235 160 L 235 160 Q 219 130 184 128 L 104 128 L 104 128 Q 69 130 53 160 L 19 160 L 19 160 Q 48 88 111 45 Q 174 1 256 0 L 256 0 Z M 80 192 L 80 184 L 80 192 L 80 184 Q 82 162 104 160 L 184 160 L 184 160 Q 206 162 208 184 L 208 248 L 208 248 Q 206 270 184 272 L 104 272 L 104 272 Q 82 270 80 248 L 80 192 L 80 192 Z M 142 340 Q 131 351 140 363 Q 157 383 186 399 Q 215 415 256 416 Q 297 415 326 399 Q 355 383 372 363 Q 381 351 371 340 Q 359 331 348 342 Q 334 358 312 371 Q 289 383 256 384 Q 223 383 200 371 Q 178 358 164 342 Q 153 331 142 340 L 142 340 Z M 304 184 Q 306 162 328 160 L 408 160 L 408 160 Q 430 162 432 184 L 432 192 L 432 192 L 432 248 L 432 248 Q 430 270 408 272 L 328 272 L 328 272 Q 306 270 304 248 L 304 184 L 304 184 Z M 184 224 Q 182 202 160 200 Q 138 202 136 224 Q 138 246 160 248 Q 182 246 184 224 L 184 224 Z M 352 248 Q 374 246 376 224 Q 374 202 352 200 Q 330 202 328 224 Q 330 246 352 248 L 352 248 Z" />
</svg>