<svg xmlns="http://www.w3.org/2000/svg" viewBox="0 0 512 512">
  <path d="M 46.457466 385.69376 Q 30.00378 372.14368 13.550095 385.69376 Q 0 402.14746 13.550095 418.60114 Q 70.65407 474.73724 143.24385 493.12665 Q 215.83365 511.51608 288.42343 493.12665 Q 361.01324 474.73724 418.1172 418.60114 Q 474.2533 361.49716 492.64273 288.90738 Q 512 216.31758 492.64273 143.72778 Q 474.2533 71.13799 418.1172 14.034026 Q 401.6635 0.48393196 385.20984 14.034026 Q 371.65973 30.487713 385.20984 46.9414 Q 432.63516 94.36673 448.12097 155.34215 Q 463.6068 216.31758 448.12097 277.293 Q 432.63516 338.26843 385.20984 385.69376 Q 337.7845 433.11908 276.80908 448.60492 Q 215.83365 464.09073 154.85823 448.60492 Q 94.85066 432.1512 46.457466 385.69376 L 46.457466 385.69376 Z M 158.72968 417.63327 Q 175.18336 419.569 177.1191 403.11533 L 177.1191 263.74292 L 177.1191 263.74292 Q 176.15123 254.06427 167.44046 250.19281 Q 157.76181 245.3535 150.98677 252.12854 L 63.879017 338.26843 L 63.879017 338.26843 Q 55.168243 349.8828 63.879017 360.5293 L 67.75047 364.40076 L 67.75047 364.40076 Q 108.40076 403.11533 158.72968 417.63327 L 158.72968 417.63327 Z M 249.70888 167.9244 Q 253.58034 176.63516 263.25897 177.60303 L 402.63138 177.60303 L 402.63138 177.60303 Q 419.08505 175.6673 417.14935 159.21361 Q 402.63138 108.88469 363.9168 69.20227 L 360.04538 64.362946 L 360.04538 64.362946 Q 349.39886 55.652172 337.7845 64.362946 L 251.6446 150.50284 L 251.6446 150.50284 Q 244.86957 158.24574 249.70888 167.9244 L 249.70888 167.9244 Z M 249.70888 217.28545 Q 246.8053 225.02835 252.61247 230.83554 L 362.94897 341.17203 L 362.94897 341.17203 Q 374.56332 350.85065 384.24197 340.20416 Q 422.9565 286.00378 424.89224 223.09262 Q 423.92438 209.54253 410.3743 208.57468 L 261.32324 208.57468 L 261.32324 208.57468 Q 253.58034 209.54253 249.70888 217.28545 L 249.70888 217.28545 Z M 216.80151 250.19281 Q 209.0586 254.06427 208.09074 261.8072 L 208.09074 409.89035 L 208.09074 409.89035 Q 209.0586 424.40833 222.60869 425.3762 Q 285.51984 423.44046 339.7202 384.7259 Q 350.36673 375.04727 340.68808 362.46503 L 230.35161 252.12854 L 230.35161 252.12854 Q 224.54442 247.28923 215.83365 250.19281 L 216.80151 250.19281 Z" />
</svg>