<svg xmlns="http://www.w3.org/2000/svg" viewBox="0 0 512 512">
  <path d="M 128 0 Q 101 1 83 19 L 83 19 L 83 19 Q 65 37 64 64 L 64 448 L 64 448 Q 65 475 83 493 Q 101 511 128 512 L 384 512 L 384 512 Q 411 511 429 493 Q 447 475 448 448 L 448 160 L 448 160 L 320 160 L 320 160 Q 306 160 297 151 Q 288 142 288 128 L 288 0 L 288 0 L 128 0 L 128 0 Z M 320 0 L 320 128 L 320 0 L 320 128 L 448 128 L 448 128 L 320 0 L 320 0 Z M 144 301 Q 145 275 162 258 L 162 258 L 162 258 Q 179 241 205 240 Q 230 240 249 258 L 256 265 L 256 265 L 263 258 L 263 258 Q 282 240 307 240 Q 333 241 350 258 Q 367 275 368 301 Q 368 326 350 345 L 267 427 L 267 427 Q 256 437 245 427 L 162 345 L 162 345 Q 144 326 144 301 L 144 301 Z" />
</svg>