<svg xmlns="http://www.w3.org/2000/svg" viewBox="0 0 512 512">
  <path d="M 512 372.29022 L 512 49.26183 L 512 372.29022 L 512 49.26183 L 331.1041 49.26183 L 331.1041 49.26183 Q 309.29968 50.0694 294.7634 64.605675 Q 280.22714 79.14195 279.41956 100.94637 L 279.41956 335.14197 L 279.41956 335.14197 L 20.996845 405.40063 L 20.996845 405.40063 Q 10.498423 408.63092 4.845426 417.5142 Q 0 426.3975 2.422713 436.8959 Q 5.652997 447.39432 14.536278 453.04733 Q 23.419558 457.89273 33.91798 455.47003 L 331.1041 374.71292 L 331.1041 374.71292 Q 332.71924 411.8612 358.56152 436.8959 Q 383.59622 461.9306 421.55206 462.73816 Q 460.31546 461.9306 485.35016 436.08832 Q 511.19244 411.05362 512 372.29022 L 512 372.29022 Z M 421.55206 333.52682 Q 443.35648 334.33438 455.47003 352.9085 Q 465.1609 372.29022 455.47003 391.67194 Q 443.35648 410.24606 421.55206 411.05362 Q 399.74762 410.24606 387.63406 391.67194 Q 377.9432 372.29022 387.63406 352.9085 Q 399.74762 334.33438 421.55206 333.52682 L 421.55206 333.52682 Z" />
</svg>