<svg xmlns="http://www.w3.org/2000/svg" viewBox="0 0 512 512">
  <path d="M 497.58447 8.947573 Q 510.50873 18.88932 510.50873 34.796116 L 510.50873 106.3767 L 510.50873 106.3767 L 510.50873 368.83884 L 510.50873 368.83884 Q 509.51456 402.64078 482.67184 425.5068 Q 455.82913 447.37863 415.06796 448.3728 Q 374.3068 447.37863 347.46408 425.5068 Q 320.62137 402.64078 319.6272 368.83884 Q 320.62137 335.0369 347.46408 312.17087 Q 374.3068 290.29904 415.06796 289.30484 Q 431.96893 289.30484 446.88156 294.27573 L 446.88156 149.12622 L 446.88156 149.12622 L 192.37282 225.67767 L 192.37282 225.67767 L 192.37282 432.46603 L 192.37282 432.46603 Q 191.37865 466.26797 164.53592 489.13397 Q 137.6932 511.00583 96.93204 512 Q 56.170876 511.00583 29.328156 489.13397 Q 2.485437 466.26797 1.4912621 432.46603 Q 2.485437 398.66406 29.328156 375.79807 Q 56.170876 353.9262 96.93204 352.93204 Q 113.83301 352.93204 128.74564 357.90292 L 128.74564 201.81747 L 128.74564 201.81747 L 128.74564 130.2369 L 128.74564 130.2369 Q 129.7398 107.37087 151.61165 99.41747 L 469.74756 3.976699 L 469.74756 3.976699 Q 484.6602 0 497.58447 8.947573 L 497.58447 8.947573 Z" />
</svg>