<svg xmlns="http://www.w3.org/2000/svg" viewBox="0 0 512 512">
  <path d="M 288 32 Q 288 18 279 9 L 279 9 L 279 9 Q 270 0 256 0 Q 242 0 233 9 Q 224 18 224 32 L 224 224 L 224 224 L 32 224 L 32 224 Q 18 224 9 233 Q 0 242 0 256 Q 0 270 9 279 Q 18 288 32 288 L 224 288 L 224 288 L 224 480 L 224 480 Q 224 494 233 503 Q 242 512 256 512 Q 270 512 279 503 Q 288 494 288 480 L 288 288 L 288 288 L 480 288 L 480 288 Q 494 288 503 279 Q 512 270 512 256 Q 512 242 503 233 Q 494 224 480 224 L 288 224 L 288 224 L 288 32 L 288 32 Z" />
</svg>