<svg xmlns="http://www.w3.org/2000/svg" viewBox="0 0 640 512">
    <path d="M 0 488 L 0 171 Q 0 151 11 135 Q 22 120 40 112 L 308 5 Q 320 0 332 5 L 600 112 Q 618 120 629 135 Q 640 151 640 171 L 640 488 Q 638 510 616 512 L 568 512 Q 546 510 544 488 L 544 224 Q 544 210 535 201 Q 526 192 512 192 L 128 192 Q 114 192 105 201 Q 96 210 96 224 L 96 488 Q 94 510 72 512 L 24 512 Q 2 510 0 488 L 0 488 Z M 254 293 L 242 328 L 398 328 L 386 293 Q 384 288 378 288 L 262 288 Q 256 288 254 293 L 254 293 Z M 189 335 L 209 278 Q 215 260 229 250 Q 244 240 262 240 L 378 240 Q 396 240 411 250 Q 425 260 431 278 L 451 335 Q 478 351 480 384 L 480 480 Q 480 494 471 503 Q 462 512 448 512 Q 434 512 425 503 Q 416 494 416 480 L 416 464 L 224 464 L 224 480 Q 224 494 215 503 Q 206 512 192 512 Q 178 512 169 503 Q 160 494 160 480 L 160 384 Q 162 351 189 335 L 189 335 Z M 240 424 Q 262 422 264 400 Q 262 378 240 376 Q 218 378 216 400 Q 218 422 240 424 L 240 424 Z M 424 400 Q 422 378 400 376 Q 378 378 376 400 Q 378 422 400 424 Q 422 422 424 400 L 424 400 Z"/>
</svg>
