<svg xmlns="http://www.w3.org/2000/svg" viewBox="0 0 512 512">
  <path d="M 196 0 L 316 0 L 196 0 L 316 0 Q 336 1 345 18 L 352 32 L 352 32 L 448 32 L 448 32 Q 462 32 471 41 Q 480 50 480 64 Q 480 78 471 87 Q 462 96 448 96 L 64 96 L 64 96 Q 50 96 41 87 Q 32 78 32 64 Q 32 50 41 41 Q 50 32 64 32 L 160 32 L 160 32 L 167 18 L 167 18 Q 176 1 196 0 L 196 0 Z M 64 128 L 448 128 L 64 128 L 448 128 L 427 467 L 427 467 Q 425 486 412 499 Q 398 512 379 512 L 133 512 L 133 512 Q 114 512 100 499 Q 87 486 85 467 L 64 128 L 64 128 Z M 369 249 Q 383 232 369 215 Q 352 201 335 215 L 224 326 L 224 326 L 177 279 L 177 279 Q 160 265 143 279 Q 129 296 143 313 L 207 377 L 207 377 Q 224 391 241 377 L 369 249 L 369 249 Z" />
</svg>