<svg xmlns="http://www.w3.org/2000/svg" viewBox="0 0 512 512">
  <path d="M 0 153.6 L 0 156.8 L 0 153.6 L 0 156.8 Q 0 166.4 1.6 176 L 43.2 411.2 L 43.2 411.2 Q 46.4 432 64 446.4 Q 80 460.8 102.4 460.8 Q 124.8 460.8 140.8 446.4 Q 158.4 432 163.2 411.2 L 203.2 176 L 203.2 176 Q 204.8 166.4 204.8 156.8 L 204.8 153.6 L 204.8 153.6 Q 203.2 110.4 174.4 81.6 Q 145.6 52.8 102.4 51.2 Q 59.2 52.8 30.4 81.6 Q 1.6 110.4 0 153.6 L 0 153.6 Z M 307.2 153.6 L 307.2 156.8 L 307.2 153.6 L 307.2 156.8 Q 307.2 166.4 308.8 176 L 350.4 411.2 L 350.4 411.2 Q 353.6 432 371.2 446.4 Q 387.2 460.8 409.6 460.8 Q 432 460.8 448 446.4 Q 465.6 432 470.4 411.2 L 510.4 176 L 510.4 176 Q 512 166.4 512 156.8 L 512 153.6 L 512 153.6 Q 510.4 110.4 481.6 81.6 Q 452.8 52.8 409.6 51.2 Q 366.4 52.8 337.6 81.6 Q 308.8 110.4 307.2 153.6 L 307.2 153.6 Z" />
</svg>