<svg xmlns="http://www.w3.org/2000/svg" viewBox="0 0 512 512">
  <path d="M 417.06666666666666 199.46666666666667 Q 404.26666666666665 163.2 376.53333333333336 135.46666666666667 Q 324.26666666666665 85.33333333333333 256 85.33333333333333 Q 187.73333333333332 85.33333333333333 135.46666666666667 135.46666666666667 L 117.33333333333333 153.6 L 117.33333333333333 153.6 L 153.6 153.6 L 153.6 153.6 Q 167.46666666666667 153.6 177.06666666666666 163.2 Q 186.66666666666666 172.8 187.73333333333332 187.73333333333332 Q 186.66666666666666 202.66666666666666 177.06666666666666 212.26666666666668 Q 167.46666666666667 221.86666666666667 153.6 221.86666666666667 L 34.13333333333333 221.86666666666667 L 34.13333333333333 221.86666666666667 Q 34.13333333333333 221.86666666666667 34.13333333333333 221.86666666666667 Q 34.13333333333333 221.86666666666667 34.13333333333333 221.86666666666667 L 34.13333333333333 221.86666666666667 L 34.13333333333333 221.86666666666667 Q 19.2 221.86666666666667 9.6 212.26666666666668 Q 0 202.66666666666666 0 187.73333333333332 L 0 68.26666666666667 L 0 68.26666666666667 Q 0 53.333333333333336 9.6 43.733333333333334 Q 19.2 34.13333333333333 34.13333333333333 34.13333333333333 Q 49.06666666666667 34.13333333333333 58.666666666666664 43.733333333333334 Q 68.26666666666667 53.333333333333336 68.26666666666667 68.26666666666667 L 68.26666666666667 105.6 L 68.26666666666667 105.6 L 86.4 87.46666666666667 L 86.4 87.46666666666667 Q 134.4 40.53333333333333 195.2 24.533333333333335 Q 256 9.6 316.8 24.533333333333335 Q 376.53333333333336 40.53333333333333 424.53333333333336 87.46666666666667 Q 464 126.93333333333334 481.06666666666666 176 Q 485.3333333333333 189.86666666666667 480 202.66666666666666 Q 473.6 214.4 460.8 219.73333333333332 Q 446.93333333333334 224 434.1333333333333 218.66666666666666 Q 422.4 212.26666666666668 417.06666666666666 199.46666666666667 L 417.06666666666666 199.46666666666667 Z M 487.46666666666664 291.2 Q 494.93333333333334 293.3333333333333 501.3333333333333 299.73333333333335 Q 507.73333333333335 307.2 510.93333333333334 314.6666666666667 Q 510.93333333333334 316.8 510.93333333333334 318.93333333333334 Q 512 322.1333333333333 512 324.26666666666665 L 512 443.73333333333335 L 512 443.73333333333335 Q 510.93333333333334 458.6666666666667 501.3333333333333 468.26666666666665 Q 491.73333333333335 477.8666666666667 477.8666666666667 477.8666666666667 Q 462.93333333333334 477.8666666666667 453.3333333333333 468.26666666666665 Q 443.73333333333335 458.6666666666667 443.73333333333335 443.73333333333335 L 443.73333333333335 406.4 L 443.73333333333335 406.4 L 424.53333333333336 424.53333333333336 L 424.53333333333336 424.53333333333336 L 424.53333333333336 424.53333333333336 L 424.53333333333336 424.53333333333336 Q 376.53333333333336 471.46666666666664 316.8 487.46666666666664 Q 256 502.4 195.2 487.46666666666664 Q 134.4 471.46666666666664 86.4 424.53333333333336 Q 48 385.06666666666666 30.933333333333334 336 Q 25.6 322.1333333333333 32 309.3333333333333 Q 37.333333333333336 297.6 51.2 292.26666666666665 Q 65.06666666666666 288 76.8 293.3333333333333 Q 89.6 299.73333333333335 94.93333333333334 312.53333333333336 Q 106.66666666666667 347.73333333333335 135.46666666666667 376.53333333333336 Q 187.73333333333332 426.6666666666667 256 426.6666666666667 Q 324.26666666666665 426.6666666666667 376.53333333333336 376.53333333333336 L 376.53333333333336 376.53333333333336 L 376.53333333333336 376.53333333333336 L 394.6666666666667 358.4 L 394.6666666666667 358.4 L 358.4 358.4 L 358.4 358.4 Q 343.46666666666664 358.4 333.8666666666667 348.8 Q 324.26666666666665 339.2 324.26666666666665 324.26666666666665 Q 324.26666666666665 309.3333333333333 333.8666666666667 299.73333333333335 Q 343.46666666666664 290.1333333333333 358.4 290.1333333333333 L 476.8 290.1333333333333 L 476.8 290.1333333333333 Q 480 290.1333333333333 482.1333333333333 290.1333333333333 Q 485.3333333333333 291.2 487.46666666666664 291.2 L 487.46666666666664 291.2 Z" />
</svg>