<svg xmlns="http://www.w3.org/2000/svg" viewBox="0 0 512 512">
  <path d="M 181.18167 256 Q 209.49132 256 232.94786 242.2496 L 232.94786 242.2496 L 232.94786 242.2496 Q 256.40442 228.4992 270.96365 204.23381 Q 284.71405 179.9684 284.71405 152.46762 Q 284.71405 124.96683 270.96365 100.70142 Q 256.40442 76.43602 232.94786 62.685623 Q 209.49132 48.93523 181.18167 48.93523 Q 152.87204 48.93523 129.41548 62.685623 Q 105.95892 76.43602 91.39968 100.70142 Q 77.64929 124.96683 77.64929 152.46762 Q 77.64929 179.9684 91.39968 204.23381 Q 105.95892 228.4992 129.41548 242.2496 Q 152.87204 256 181.18167 256 L 181.18167 256 Z M 143.97472 294.82465 Q 83.31122 296.44235 42.06003 336.88467 L 42.06003 336.88467 L 42.06003 336.88467 Q 1.6176935 378.13586 0 438.79938 Q 0 449.31436 7.2796206 455.78516 Q 13.750395 463.06476 24.265404 463.06476 L 338.09796 463.06476 L 338.09796 463.06476 Q 351.0395 462.25592 358.31912 453.3586 L 277.43445 372.47394 L 277.43445 372.47394 Q 258.83096 353.87045 258.83096 327.17853 L 258.83096 300.48657 L 258.83096 300.48657 Q 239.41864 294.82465 218.38863 294.82465 L 143.97472 294.82465 L 143.97472 294.82465 Z M 310.59717 230.1169 Q 299.27332 230.1169 291.99368 237.39653 L 291.99368 237.39653 L 291.99368 237.39653 Q 284.71405 244.67615 284.71405 256 L 284.71405 323.13428 L 284.71405 323.13428 Q 284.71405 344.1643 300.08215 359.53238 L 386.62875 446.07898 L 386.62875 446.07898 Q 398.76144 457.40283 414.12955 457.40283 Q 429.49762 457.40283 441.63034 446.07898 L 500.67615 387.03317 L 500.67615 387.03317 Q 512 374.90048 512 359.53238 Q 512 344.1643 500.67615 332.0316 L 414.12955 245.48499 L 414.12955 245.48499 Q 398.76144 230.1169 377.73145 230.1169 L 310.59717 230.1169 L 310.59717 230.1169 Z M 330.0095 294.82465 Q 331.62717 277.03003 349.4218 275.41232 Q 367.21643 277.03003 368.83414 294.82465 Q 367.21643 312.61926 349.4218 314.23697 Q 331.62717 312.61926 330.0095 294.82465 L 330.0095 294.82465 Z" />
</svg>