<svg xmlns="http://www.w3.org/2000/svg" viewBox="0 0 512 512">
  <path d="M 341.33334 85.333336 Q 341.33334 72.888885 349.33334 64.888885 L 349.33334 64.888885 L 349.33334 64.888885 Q 357.33334 56.88889 369.77777 56.88889 L 483.55554 56.88889 L 483.55554 56.88889 Q 496 56.88889 504 64.888885 Q 512 72.888885 512 85.333336 Q 512 97.77778 504 105.77778 Q 496 113.77778 483.55554 113.77778 L 398.22223 113.77778 L 398.22223 113.77778 L 398.22223 199.11111 L 398.22223 199.11111 Q 398.22223 211.55556 390.22223 219.55556 Q 382.22223 227.55556 369.77777 227.55556 L 284.44446 227.55556 L 284.44446 227.55556 L 284.44446 312.8889 L 284.44446 312.8889 Q 284.44446 325.33334 276.44446 333.33334 Q 268.44446 341.33334 256 341.33334 L 170.66667 341.33334 L 170.66667 341.33334 L 170.66667 426.66666 L 170.66667 426.66666 Q 170.66667 439.1111 162.66667 447.1111 Q 154.66667 455.1111 142.22223 455.1111 L 28.444445 455.1111 L 28.444445 455.1111 Q 16 455.1111 8 447.1111 Q 0 439.1111 0 426.66666 Q 0 414.22223 8 406.22223 Q 16 398.22223 28.444445 398.22223 L 113.77778 398.22223 L 113.77778 398.22223 L 113.77778 312.8889 L 113.77778 312.8889 Q 113.77778 300.44446 121.77778 292.44446 Q 129.77777 284.44446 142.22223 284.44446 L 227.55556 284.44446 L 227.55556 284.44446 L 227.55556 199.11111 L 227.55556 199.11111 Q 227.55556 186.66667 235.55556 178.66667 Q 243.55556 170.66667 256 170.66667 L 341.33334 170.66667 L 341.33334 170.66667 L 341.33334 85.333336 L 341.33334 85.333336 Z" />
</svg>