<svg xmlns="http://www.w3.org/2000/svg" viewBox="0 0 516 512">
    <path d="M 290 0 Q 304 0 313 9 L 313 9 Q 322 18 322 32 Q 322 46 313 55 Q 304 64 290 64 Q 276 64 267 55 Q 258 46 258 32 Q 258 18 267 9 Q 276 0 290 0 L 290 0 Z M 162 56 Q 162 42 171 33 L 171 33 Q 180 24 194 24 Q 208 24 217 33 Q 226 42 226 56 Q 226 70 217 79 Q 208 88 194 88 Q 180 88 171 79 Q 162 70 162 56 L 162 56 Z M 34 288 Q 35 261 53 243 L 53 243 Q 71 225 98 224 L 234 224 L 234 158 L 31 200 Q 9 202 2 181 Q 0 159 21 153 L 253 105 L 485 57 Q 507 54 513 75 Q 516 97 495 104 L 282 148 L 282 224 L 418 224 Q 445 225 463 243 Q 481 261 482 288 L 482 448 Q 481 475 463 493 Q 445 511 418 512 L 98 512 Q 71 511 53 493 Q 35 475 34 448 L 34 288 L 34 288 Z M 98 288 Q 83 289 82 304 L 82 368 Q 83 383 98 384 L 162 384 Q 177 383 178 368 L 178 304 Q 177 289 162 288 L 98 288 L 98 288 Z M 210 304 L 210 368 Q 211 383 226 384 L 290 384 Q 305 383 306 368 L 306 304 Q 305 289 290 288 L 226 288 Q 211 289 210 304 L 210 304 Z M 354 288 Q 339 289 338 304 L 338 368 Q 339 383 354 384 L 418 384 Q 433 383 434 368 L 434 304 Q 433 289 418 288 L 354 288 L 354 288 Z"/>
</svg>
