<svg xmlns="http://www.w3.org/2000/svg" viewBox="0 0 512 512">
  <path d="M 84.57142857142857 358.85714285714283 L 225.14285714285714 499.42857142857144 L 84.57142857142857 358.85714285714283 L 225.14285714285714 499.42857142857144 Q 237.71428571428572 512 256 512 Q 274.2857142857143 512 286.85714285714283 499.42857142857144 L 427.42857142857144 358.85714285714283 L 427.42857142857144 358.85714285714283 Q 438.85714285714283 347.42857142857144 438.85714285714283 331.42857142857144 Q 438.85714285714283 315.42857142857144 427.42857142857144 304 Q 416 292.57142857142856 400 292.57142857142856 L 329.14285714285717 292.57142857142856 L 329.14285714285717 292.57142857142856 L 329.14285714285717 146.28571428571428 L 329.14285714285717 146.28571428571428 Q 329.14285714285717 130.28571428571428 318.85714285714283 120 Q 308.57142857142856 109.71428571428571 292.57142857142856 109.71428571428571 L 219.42857142857142 109.71428571428571 L 219.42857142857142 109.71428571428571 Q 203.42857142857142 109.71428571428571 193.14285714285714 120 Q 182.85714285714286 130.28571428571428 182.85714285714286 146.28571428571428 L 182.85714285714286 292.57142857142856 L 182.85714285714286 292.57142857142856 L 112 292.57142857142856 L 112 292.57142857142856 Q 96 292.57142857142856 84.57142857142857 304 Q 73.14285714285714 315.42857142857144 73.14285714285714 331.42857142857144 Q 73.14285714285714 347.42857142857144 84.57142857142857 358.85714285714283 L 84.57142857142857 358.85714285714283 Z M 73.14285714285714 73.14285714285714 L 438.85714285714283 73.14285714285714 L 73.14285714285714 73.14285714285714 L 438.85714285714283 73.14285714285714 Q 454.85714285714283 73.14285714285714 465.14285714285717 62.857142857142854 Q 475.42857142857144 52.57142857142857 475.42857142857144 36.57142857142857 Q 475.42857142857144 20.571428571428573 465.14285714285717 10.285714285714286 Q 454.85714285714283 0 438.85714285714283 0 L 73.14285714285714 0 L 73.14285714285714 0 Q 57.142857142857146 0 46.857142857142854 10.285714285714286 Q 36.57142857142857 20.571428571428573 36.57142857142857 36.57142857142857 Q 36.57142857142857 52.57142857142857 46.857142857142854 62.857142857142854 Q 57.142857142857146 73.14285714285714 73.14285714285714 73.14285714285714 L 73.14285714285714 73.14285714285714 Z" />
</svg>