<svg xmlns="http://www.w3.org/2000/svg" viewBox="0 0 512 512">
  <path d="M 256 512 Q 326 511 384 478 L 384 478 L 384 478 Q 442 444 478 384 Q 512 323 512 256 Q 512 189 478 128 Q 442 68 384 34 Q 326 1 256 0 Q 186 1 128 34 Q 70 68 34 128 Q 0 189 0 256 Q 0 323 34 384 Q 70 444 128 478 Q 186 511 256 512 L 256 512 Z M 240 80 Q 254 80 263 89 L 263 89 L 263 89 Q 272 98 272 112 Q 272 126 263 135 Q 254 144 240 144 Q 226 144 217 135 Q 208 126 208 112 Q 208 98 217 89 Q 226 80 240 80 L 240 80 Z M 208 208 Q 208 194 217 185 L 217 185 L 217 185 Q 226 176 240 176 Q 254 176 263 185 Q 272 194 272 208 Q 272 222 263 231 Q 254 240 240 240 Q 226 240 217 231 Q 208 222 208 208 L 208 208 Z M 144 144 Q 158 144 167 153 L 167 153 L 167 153 Q 176 162 176 176 Q 176 190 167 199 Q 158 208 144 208 Q 130 208 121 199 Q 112 190 112 176 Q 112 162 121 153 Q 130 144 144 144 L 144 144 Z" />
</svg>