<svg xmlns="http://www.w3.org/2000/svg" viewBox="0 0 512 512">
  <path d="M 128 0 Q 101 1 83 19 L 83 19 L 83 19 Q 65 37 64 64 L 64 448 L 64 448 Q 65 475 83 493 Q 101 511 128 512 L 384 512 L 384 512 Q 411 511 429 493 Q 447 475 448 448 L 448 160 L 448 160 L 320 160 L 320 160 Q 306 160 297 151 Q 288 142 288 128 L 288 0 L 288 0 L 128 0 L 128 0 Z M 320 0 L 320 128 L 320 0 L 320 128 L 448 128 L 448 128 L 320 0 L 320 0 Z M 144 64 L 208 64 L 144 64 L 208 64 Q 223 65 224 80 Q 223 95 208 96 L 144 96 L 144 96 Q 129 95 128 80 Q 129 65 144 64 L 144 64 Z M 144 128 L 208 128 L 144 128 L 208 128 Q 223 129 224 144 Q 223 159 208 160 L 144 160 L 144 160 Q 129 159 128 144 Q 129 129 144 128 L 144 128 Z M 160 224 L 352 224 L 160 224 L 352 224 Q 366 224 375 233 Q 384 242 384 256 L 384 320 L 384 320 Q 384 334 375 343 Q 366 352 352 352 L 160 352 L 160 352 Q 146 352 137 343 Q 128 334 128 320 L 128 256 L 128 256 Q 128 242 137 233 Q 146 224 160 224 L 160 224 Z M 160 256 L 160 320 L 160 256 L 160 320 L 352 320 L 352 320 L 352 256 L 352 256 L 160 256 L 160 256 Z M 304 416 L 368 416 L 304 416 L 368 416 Q 383 417 384 432 Q 383 447 368 448 L 304 448 L 304 448 Q 289 447 288 432 Q 289 417 304 416 L 304 416 Z" />
</svg>