<svg xmlns="http://www.w3.org/2000/svg" viewBox="0 0 512 512">
  <path d="M 0 128.88889 L 0 403.55554 L 0 128.88889 L 0 403.55554 Q 0.8888889 430.22223 24 440.8889 Q 81.77778 460.44446 140.44444 453.33334 Q 198.22223 446.22223 256 430.22223 Q 309.33334 415.1111 362.66666 407.1111 Q 416 400 468.44446 413.33334 Q 484.44446 416.8889 497.77777 408 Q 511.1111 400 512 383.1111 L 512 108.44444 L 512 108.44444 Q 511.1111 81.77778 488 71.111115 Q 430.22223 51.555557 372.44446 58.666668 Q 313.77777 65.77778 256 81.77778 Q 202.66667 96.888885 149.33333 104 Q 96 112 43.555557 98.666664 Q 26.666666 95.111115 14.222222 103.111115 Q 0.8888889 112 0 128.88889 L 0 128.88889 Z M 113.77778 398.22223 L 56.88889 398.22223 L 113.77778 398.22223 L 56.88889 398.22223 L 56.88889 341.33334 L 56.88889 341.33334 Q 80.888885 342.22223 96.888885 358.22223 Q 112.888885 374.22223 113.77778 398.22223 L 113.77778 398.22223 Z M 56.88889 227.55556 L 56.88889 170.66667 L 56.88889 227.55556 L 56.88889 170.66667 L 113.77778 170.66667 L 113.77778 170.66667 Q 112.888885 194.66667 96.888885 210.66667 Q 80.888885 226.66667 56.88889 227.55556 L 56.88889 227.55556 Z M 398.22223 341.33334 Q 399.1111 317.33334 415.1111 301.33334 L 415.1111 301.33334 L 415.1111 301.33334 Q 431.1111 285.33334 455.1111 284.44446 L 455.1111 341.33334 L 455.1111 341.33334 L 398.22223 341.33334 L 398.22223 341.33334 Z M 455.1111 170.66667 Q 431.1111 169.77777 415.1111 153.77777 L 415.1111 153.77777 L 415.1111 153.77777 Q 399.1111 137.77777 398.22223 113.77778 L 455.1111 113.77778 L 455.1111 113.77778 L 455.1111 170.66667 L 455.1111 170.66667 Z M 341.33334 256 Q 340.44446 298.66666 316.44446 326.22223 L 316.44446 326.22223 L 316.44446 326.22223 Q 292.44446 354.66666 256 355.55554 Q 219.55556 354.66666 195.55556 326.22223 Q 171.55556 298.66666 170.66667 256 Q 171.55556 213.33333 195.55556 185.77777 Q 219.55556 157.33333 256 156.44444 Q 292.44446 157.33333 316.44446 185.77777 Q 340.44446 213.33333 341.33334 256 L 341.33334 256 Z M 224 213.33333 Q 224.88889 227.55556 238.22223 231.11111 L 238.22223 273.77777 L 238.22223 273.77777 L 234.66667 273.77777 L 234.66667 273.77777 Q 218.66667 275.55554 216.88889 291.55554 Q 218.66667 307.55554 234.66667 309.33334 L 256 309.33334 L 277.33334 309.33334 Q 293.33334 307.55554 295.1111 291.55554 Q 293.33334 275.55554 277.33334 273.77777 L 273.77777 273.77777 L 273.77777 273.77777 L 273.77777 213.33333 L 273.77777 213.33333 Q 272 197.33333 256 195.55556 L 241.77777 195.55556 L 241.77777 195.55556 Q 225.77777 197.33333 224 213.33333 L 224 213.33333 Z" />
</svg>