<svg xmlns="http://www.w3.org/2000/svg" viewBox="0 0 511 512">
    <path d="M 0 256 Q 1 184 35 127 L 35 127 Q 69 69 127 35 L 127 35 Q 184 1 256 0 Q 306 0 350 18 Q 361 23 359 36 Q 356 49 343 49 Q 335 48 328 48 Q 240 50 181 109 Q 122 168 120 256 Q 122 344 181 403 Q 240 462 328 464 Q 335 464 343 464 Q 356 464 359 476 Q 361 489 350 494 Q 306 512 256 512 Q 184 511 127 477 Q 69 443 35 385 Q 1 328 0 256 L 0 256 Z M 375 137 Q 378 132 384 132 L 384 132 Q 390 132 393 137 L 424 201 Q 426 206 431 207 L 502 217 Q 508 218 509 223 Q 511 229 507 233 L 456 283 Q 453 286 453 291 L 465 361 Q 466 367 461 371 Q 457 374 451 371 L 388 338 Q 384 336 380 338 L 317 371 Q 311 374 306 371 Q 302 367 303 361 L 315 291 Q 315 286 312 283 L 261 233 Q 257 229 259 223 Q 260 218 266 217 L 337 207 Q 342 206 344 201 L 375 137 L 375 137 Z"/>
</svg>
