<svg xmlns="http://www.w3.org/2000/svg" viewBox="0 0 512 512">
  <path d="M 304.43243 53.374516 Q 303.444 26.687258 280.71042 11.861004 Q 256.9884 0 233.2664 11.861004 Q 210.53282 26.687258 209.5444 53.374516 Q 210.53282 80.061775 233.2664 94.88803 Q 256.9884 106.74903 280.71042 94.88803 Q 303.444 80.061775 304.43243 53.374516 L 304.43243 53.374516 Z M 296.5251 238.2085 L 342.98068 294.54825 L 296.5251 238.2085 L 342.98068 294.54825 Q 351.87643 305.42084 364.72586 306.40927 Q 377.5753 307.39767 388.44788 299.49036 Q 398.33203 290.5946 399.32047 277.74518 Q 400.30887 264.89575 392.40155 255.01158 L 319.2587 167.04247 L 319.2587 167.04247 Q 290.5946 133.4363 246.11583 132.44788 L 210.53282 132.44788 L 210.53282 132.44788 Q 184.83398 132.44788 164.07722 144.30888 Q 142.33205 157.1583 129.48262 178.90347 L 72.15444 274.77994 L 72.15444 274.77994 Q 65.23552 285.6525 68.200775 298.50192 Q 71.16602 310.36295 82.03861 317.28186 Q 93.89961 324.20078 106.74903 321.23553 Q 118.61004 318.27026 125.52896 307.39767 L 154.19305 259.95367 L 154.19305 259.95367 L 154.19305 480.37067 L 154.19305 480.37067 Q 154.19305 494.2085 163.0888 503.10425 Q 171.98456 512 185.82239 512 Q 199.66023 512 208.55598 503.10425 Q 217.45174 494.2085 217.45174 480.37067 L 217.45174 353.85327 L 217.45174 353.85327 L 233.2664 353.85327 L 233.2664 353.85327 L 233.2664 480.37067 L 233.2664 480.37067 Q 233.2664 494.2085 242.16216 503.10425 Q 251.05792 512 264.89575 512 Q 278.73358 512 287.62933 503.10425 Q 296.5251 494.2085 296.5251 480.37067 L 296.5251 238.2085 L 296.5251 238.2085 Z M 383.5058 377.5753 Q 384.4942 370.65637 391.41312 369.66797 Q 398.33203 370.65637 399.32047 377.5753 L 399.32047 488.27798 L 399.32047 488.27798 Q 401.2973 510.02316 423.04248 512 Q 444.78766 510.02316 446.76447 488.27798 L 446.76447 377.5753 L 446.76447 377.5753 Q 445.77606 353.85327 430.9498 338.0386 Q 415.13513 323.21234 391.41312 322.22394 Q 367.69113 323.21234 351.87643 338.0386 Q 337.0502 353.85327 336.06177 377.5753 L 336.06177 385.48264 L 336.06177 385.48264 Q 338.0386 407.2278 359.78378 409.20462 Q 381.52896 407.2278 383.5058 385.48264 L 383.5058 377.5753 L 383.5058 377.5753 Z" />
</svg>