<svg xmlns="http://www.w3.org/2000/svg" viewBox="0 0 576 512">
    <path d="M 0 64 Q 1 37 19 19 L 19 19 Q 37 1 64 0 L 224 0 L 224 128 Q 224 142 233 151 Q 242 160 256 160 L 384 160 L 384 199 Q 328 215 292 261 Q 257 306 256 368 Q 256 413 276 450 Q 296 487 330 511 Q 325 512 320 512 L 64 512 Q 37 511 19 493 Q 1 475 0 448 L 0 64 L 0 64 Z M 384 128 L 256 128 L 256 0 L 384 128 L 384 128 Z M 432 224 Q 471 224 504 243 L 504 243 Q 537 262 557 296 Q 576 330 576 368 Q 576 406 557 440 Q 537 474 504 493 Q 471 512 432 512 Q 393 512 360 493 Q 327 474 307 440 Q 288 406 288 368 Q 288 330 307 296 Q 327 262 360 243 Q 393 224 432 224 L 432 224 Z M 491 331 Q 501 320 491 309 Q 480 299 469 309 L 432 345 L 395 309 Q 384 299 373 309 Q 363 320 373 331 L 409 368 L 373 405 Q 363 416 373 427 Q 384 437 395 427 L 432 391 L 469 427 Q 480 437 491 427 Q 501 416 491 405 L 455 368 L 491 331 L 491 331 Z"/>
</svg>
