<svg xmlns="http://www.w3.org/2000/svg" viewBox="0 0 512 512">
  <path d="M 82.07633 7.816794 Q 95.75572 1.9541985 107.48092 11.725191 L 146.56488 44.946564 L 146.56488 44.946564 L 185.64885 11.725191 L 185.64885 11.725191 Q 201.28244 0 216.91603 11.725191 L 256 44.946564 L 256 44.946564 L 295.08398 11.725191 L 295.08398 11.725191 Q 310.71756 0 326.35114 11.725191 L 365.43512 44.946564 L 365.43512 44.946564 L 404.51907 11.725191 L 404.51907 11.725191 Q 416.24426 2.9312978 429.92368 7.816794 Q 442.62595 14.656488 443.60306 29.312977 L 443.60306 482.687 L 443.60306 482.687 Q 442.62595 497.3435 429.92368 504.1832 Q 416.24426 510.0458 404.51907 500.2748 L 365.43512 467.05344 L 365.43512 467.05344 L 326.35114 500.2748 L 326.35114 500.2748 Q 310.71756 512 295.08398 500.2748 L 256 467.05344 L 256 467.05344 L 216.91603 500.2748 L 216.91603 500.2748 Q 201.28244 512 185.64885 500.2748 L 146.56488 467.05344 L 146.56488 467.05344 L 107.48092 500.2748 L 107.48092 500.2748 Q 95.75572 510.0458 82.07633 504.1832 Q 69.37405 497.3435 68.39695 482.687 L 68.39695 29.312977 L 68.39695 29.312977 Q 69.37405 14.656488 82.07633 7.816794 L 82.07633 7.816794 Z M 162.19847 146.56488 Q 147.54199 147.54199 146.56488 162.19847 Q 147.54199 176.85497 162.19847 177.83206 L 349.8015 177.83206 L 349.8015 177.83206 Q 364.458 176.85497 365.43512 162.19847 Q 364.458 147.54199 349.8015 146.56488 L 162.19847 146.56488 L 162.19847 146.56488 Z M 146.56488 349.8015 Q 147.54199 364.458 162.19847 365.43512 L 349.8015 365.43512 L 349.8015 365.43512 Q 364.458 364.458 365.43512 349.8015 Q 364.458 335.14505 349.8015 334.16794 L 162.19847 334.16794 L 162.19847 334.16794 Q 147.54199 335.14505 146.56488 349.8015 L 146.56488 349.8015 Z M 162.19847 240.36641 Q 147.54199 241.3435 146.56488 256 Q 147.54199 270.6565 162.19847 271.63358 L 349.8015 271.63358 L 349.8015 271.63358 Q 364.458 270.6565 365.43512 256 Q 364.458 241.3435 349.8015 240.36641 L 162.19847 240.36641 L 162.19847 240.36641 Z" />
</svg>