<svg xmlns="http://www.w3.org/2000/svg" viewBox="0 0 512 512">
  <path d="M 512 475.42856 Q 512 459.42856 501.7143 449.14285 L 501.7143 449.14285 L 501.7143 449.14285 Q 491.42856 438.85715 475.42856 438.85715 Q 459.42856 438.85715 449.14285 449.14285 Q 438.85715 459.42856 438.85715 475.42856 Q 438.85715 491.42856 449.14285 501.7143 Q 459.42856 512 475.42856 512 Q 491.42856 512 501.7143 501.7143 Q 512 491.42856 512 475.42856 L 512 475.42856 Z M 512 365.7143 Q 512 349.7143 501.7143 339.42856 L 501.7143 339.42856 L 501.7143 339.42856 Q 491.42856 329.14285 475.42856 329.14285 Q 459.42856 329.14285 449.14285 339.42856 Q 438.85715 349.7143 438.85715 365.7143 Q 438.85715 381.7143 449.14285 392 Q 459.42856 402.2857 475.42856 402.2857 Q 491.42856 402.2857 501.7143 392 Q 512 381.7143 512 365.7143 L 512 365.7143 Z M 73.14286 365.7143 Q 73.14286 349.7143 62.857143 339.42856 L 62.857143 339.42856 L 62.857143 339.42856 Q 52.57143 329.14285 36.57143 329.14285 Q 20.571428 329.14285 10.285714 339.42856 Q 0 349.7143 0 365.7143 Q 0 381.7143 10.285714 392 Q 20.571428 402.2857 36.57143 402.2857 Q 52.57143 402.2857 62.857143 392 Q 73.14286 381.7143 73.14286 365.7143 L 73.14286 365.7143 Z M 438.85715 146.28572 Q 438.85715 162.28572 449.14285 172.57143 L 449.14285 172.57143 L 449.14285 172.57143 Q 459.42856 182.85715 475.42856 182.85715 Q 491.42856 182.85715 501.7143 172.57143 Q 512 162.28572 512 146.28572 Q 512 130.28572 501.7143 120 Q 491.42856 109.71429 475.42856 109.71429 Q 459.42856 109.71429 449.14285 120 Q 438.85715 130.28572 438.85715 146.28572 L 438.85715 146.28572 Z M 73.14286 146.28572 Q 73.14286 130.28572 62.857143 120 L 62.857143 120 L 62.857143 120 Q 52.57143 109.71429 36.57143 109.71429 Q 20.571428 109.71429 10.285714 120 Q 0 130.28572 0 146.28572 Q 0 162.28572 10.285714 172.57143 Q 20.571428 182.85715 36.57143 182.85715 Q 52.57143 182.85715 62.857143 172.57143 Q 73.14286 162.28572 73.14286 146.28572 L 73.14286 146.28572 Z M 438.85715 256 Q 438.85715 272 449.14285 282.2857 L 449.14285 282.2857 L 449.14285 282.2857 Q 459.42856 292.57144 475.42856 292.57144 Q 491.42856 292.57144 501.7143 282.2857 Q 512 272 512 256 Q 512 240 501.7143 229.71428 Q 491.42856 219.42857 475.42856 219.42857 Q 459.42856 219.42857 449.14285 229.71428 Q 438.85715 240 438.85715 256 L 438.85715 256 Z M 73.14286 256 Q 73.14286 240 62.857143 229.71428 L 62.857143 229.71428 L 62.857143 229.71428 Q 52.57143 219.42857 36.57143 219.42857 Q 20.571428 219.42857 10.285714 229.71428 Q 0 240 0 256 Q 0 272 10.285714 282.2857 Q 20.571428 292.57144 36.57143 292.57144 Q 52.57143 292.57144 62.857143 282.2857 Q 73.14286 272 73.14286 256 L 73.14286 256 Z M 438.85715 36.57143 Q 438.85715 52.57143 449.14285 62.857143 L 449.14285 62.857143 L 449.14285 62.857143 Q 459.42856 73.14286 475.42856 73.14286 Q 491.42856 73.14286 501.7143 62.857143 Q 512 52.57143 512 36.57143 Q 512 20.571428 501.7143 10.285714 Q 491.42856 0 475.42856 0 Q 459.42856 0 449.14285 10.285714 Q 438.85715 20.571428 438.85715 36.57143 L 438.85715 36.57143 Z M 0 36.57143 Q 0 52.57143 10.285714 62.857143 L 10.285714 62.857143 L 10.285714 62.857143 Q 20.571428 73.14286 36.57143 73.14286 Q 52.57143 73.14286 62.857143 62.857143 Q 73.14286 52.57143 73.14286 36.57143 Q 73.14286 20.571428 62.857143 10.285714 Q 52.57143 0 36.57143 0 Q 20.571428 0 10.285714 10.285714 Q 0 20.571428 0 36.57143 L 0 36.57143 Z M 73.14286 475.42856 Q 73.14286 459.42856 62.857143 449.14285 L 62.857143 449.14285 L 62.857143 449.14285 Q 52.57143 438.85715 36.57143 438.85715 Q 20.571428 438.85715 10.285714 449.14285 Q 0 459.42856 0 475.42856 Q 0 491.42856 10.285714 501.7143 Q 20.571428 512 36.57143 512 Q 52.57143 512 62.857143 501.7143 Q 73.14286 491.42856 73.14286 475.42856 L 73.14286 475.42856 Z M 329.14285 256 Q 329.14285 272 339.42856 282.2857 L 339.42856 282.2857 L 339.42856 282.2857 Q 349.7143 292.57144 365.7143 292.57144 Q 381.7143 292.57144 392 282.2857 Q 402.2857 272 402.2857 256 Q 402.2857 240 392 229.71428 Q 381.7143 219.42857 365.7143 219.42857 Q 349.7143 219.42857 339.42856 229.71428 Q 329.14285 240 329.14285 256 L 329.14285 256 Z M 402.2857 36.57143 Q 402.2857 20.571428 392 10.285714 L 392 10.285714 L 392 10.285714 Q 381.7143 0 365.7143 0 Q 349.7143 0 339.42856 10.285714 Q 329.14285 20.571428 329.14285 36.57143 Q 329.14285 52.57143 339.42856 62.857143 Q 349.7143 73.14286 365.7143 73.14286 Q 381.7143 73.14286 392 62.857143 Q 402.2857 52.57143 402.2857 36.57143 L 402.2857 36.57143 Z M 329.14285 475.42856 Q 329.14285 491.42856 339.42856 501.7143 L 339.42856 501.7143 L 339.42856 501.7143 Q 349.7143 512 365.7143 512 Q 381.7143 512 392 501.7143 Q 402.2857 491.42856 402.2857 475.42856 Q 402.2857 459.42856 392 449.14285 Q 381.7143 438.85715 365.7143 438.85715 Q 349.7143 438.85715 339.42856 449.14285 Q 329.14285 459.42856 329.14285 475.42856 L 329.14285 475.42856 Z M 182.85715 36.57143 Q 182.85715 20.571428 172.57143 10.285714 L 172.57143 10.285714 L 172.57143 10.285714 Q 162.28572 0 146.28572 0 Q 130.28572 0 120 10.285714 Q 109.71429 20.571428 109.71429 36.57143 Q 109.71429 52.57143 120 62.857143 Q 130.28572 73.14286 146.28572 73.14286 Q 162.28572 73.14286 172.57143 62.857143 Q 182.85715 52.57143 182.85715 36.57143 L 182.85715 36.57143 Z M 109.71429 475.42856 Q 109.71429 491.42856 120 501.7143 L 120 501.7143 L 120 501.7143 Q 130.28572 512 146.28572 512 Q 162.28572 512 172.57143 501.7143 Q 182.85715 491.42856 182.85715 475.42856 Q 182.85715 459.42856 172.57143 449.14285 Q 162.28572 438.85715 146.28572 438.85715 Q 130.28572 438.85715 120 449.14285 Q 109.71429 459.42856 109.71429 475.42856 L 109.71429 475.42856 Z M 182.85715 256 Q 182.85715 240 172.57143 229.71428 L 172.57143 229.71428 L 172.57143 229.71428 Q 162.28572 219.42857 146.28572 219.42857 Q 130.28572 219.42857 120 229.71428 Q 109.71429 240 109.71429 256 Q 109.71429 272 120 282.2857 Q 130.28572 292.57144 146.28572 292.57144 Q 162.28572 292.57144 172.57143 282.2857 Q 182.85715 272 182.85715 256 L 182.85715 256 Z M 219.42857 475.42856 Q 219.42857 491.42856 229.71428 501.7143 L 229.71428 501.7143 L 229.71428 501.7143 Q 240 512 256 512 Q 272 512 282.2857 501.7143 Q 292.57144 491.42856 292.57144 475.42856 L 292.57144 36.57143 L 292.57144 36.57143 Q 292.57144 20.571428 282.2857 10.285714 Q 272 0 256 0 Q 240 0 229.71428 10.285714 Q 219.42857 20.571428 219.42857 36.57143 L 219.42857 475.42856 L 219.42857 475.42856 Z" />
</svg>