<svg xmlns="http://www.w3.org/2000/svg" viewBox="0 0 512 512">
  <path d="M 73.14286 0 Q 42.285713 1.1428572 21.714285 21.714285 L 21.714285 21.714285 L 21.714285 21.714285 Q 1.1428572 42.285713 0 73.14286 L 0 438.85715 L 0 438.85715 Q 1.1428572 469.7143 21.714285 490.2857 Q 42.285713 510.85715 73.14286 512 L 438.85715 512 L 438.85715 512 Q 469.7143 510.85715 490.2857 490.2857 Q 510.85715 469.7143 512 438.85715 L 512 73.14286 L 512 73.14286 Q 510.85715 42.285713 490.2857 21.714285 Q 469.7143 1.1428572 438.85715 0 L 73.14286 0 L 73.14286 0 Z M 210.28572 182.85715 Q 210.28572 189.71428 216 195.42857 L 232 211.42857 L 232 211.42857 L 259.42856 192 L 259.42856 192 Q 265.14285 187.42857 265.14285 179.42857 Q 264 165.71428 250.28572 164.57143 L 228.57143 164.57143 L 228.57143 164.57143 Q 211.42857 165.71428 210.28572 182.85715 L 210.28572 182.85715 Z M 291.42856 236.57143 L 270.85715 250.28572 L 291.42856 236.57143 L 270.85715 250.28572 L 304 283.42856 L 304 283.42856 L 333.7143 240 L 333.7143 240 Q 349.7143 220.57143 372.57144 233.14285 Q 392 249.14285 379.42856 272 L 344 323.42856 L 344 323.42856 L 376 355.42856 L 376 355.42856 Q 392 374.85715 376 394.2857 Q 356.57144 410.2857 337.14285 394.2857 L 312 369.14285 L 312 369.14285 Q 284.57144 401.14285 241.14285 402.2857 L 204.57143 402.2857 L 204.57143 402.2857 Q 171.42857 401.14285 149.71428 379.42856 Q 129.14285 358.85715 128 325.7143 Q 129.14285 288 158.85715 265.14285 L 187.42857 244.57143 L 187.42857 244.57143 L 177.14285 233.14285 L 177.14285 233.14285 Q 155.42857 212.57143 155.42857 181.71428 Q 156.57143 150.85715 177.14285 131.42857 Q 197.71428 110.85714 228.57143 109.71429 L 250.28572 109.71429 L 250.28572 109.71429 Q 280 110.85714 299.42856 130.28572 Q 318.85715 149.71428 320 179.42857 Q 318.85715 214.85715 291.42856 235.42857 L 291.42856 236.57143 Z M 192 309.7143 Q 182.85715 315.42856 182.85715 326.85715 Q 185.14285 345.14285 204.57143 347.42856 L 241.14285 347.42856 L 241.14285 347.42856 Q 259.42856 347.42856 270.85715 331.42856 L 272 329.14285 L 272 329.14285 L 226.28572 283.42856 L 226.28572 283.42856 L 192 309.7143 L 192 309.7143 Z" />
</svg>