<svg xmlns="http://www.w3.org/2000/svg" viewBox="0 0 512 512">
  <path d="M 298.6666666666667 113.77777777777777 Q 322.6666666666667 112.88888888888889 336 92.44444444444444 Q 346.6666666666667 71.11111111111111 336 49.77777777777778 Q 322.6666666666667 29.333333333333332 298.6666666666667 28.444444444444443 Q 274.6666666666667 29.333333333333332 261.3333333333333 49.77777777777778 Q 250.66666666666666 71.11111111111111 261.3333333333333 92.44444444444444 Q 274.6666666666667 112.88888888888889 298.6666666666667 113.77777777777777 L 298.6666666666667 113.77777777777777 Z M 201.77777777777777 170.66666666666666 Q 204.44444444444446 170.66666666666666 207.11111111111111 170.66666666666666 L 179.55555555555554 254.22222222222223 L 179.55555555555554 254.22222222222223 Q 173.33333333333334 273.77777777777777 179.55555555555554 291.55555555555554 Q 185.77777777777777 309.3333333333333 202.66666666666666 320.8888888888889 L 280 368 L 280 368 L 258.6666666666667 440.8888888888889 L 258.6666666666667 440.8888888888889 L 180.44444444444446 440.8888888888889 L 180.44444444444446 440.8888888888889 L 216.88888888888889 362.6666666666667 L 216.88888888888889 362.6666666666667 L 188.44444444444446 344.8888888888889 L 188.44444444444446 344.8888888888889 Q 177.77777777777777 337.77777777777777 169.77777777777777 328.8888888888889 L 117.33333333333333 440.8888888888889 L 117.33333333333333 440.8888888888889 L 88.88888888888889 440.8888888888889 L 88.88888888888889 440.8888888888889 L 136.88888888888889 211.55555555555554 L 136.88888888888889 211.55555555555554 Q 143.11111111111111 209.77777777777777 148.44444444444446 205.33333333333334 L 168.88888888888889 184 L 168.88888888888889 184 Q 182.22222222222223 170.66666666666666 201.77777777777777 170.66666666666666 L 201.77777777777777 170.66666666666666 Z M 107.55555555555556 205.33333333333334 Q 107.55555555555556 205.33333333333334 107.55555555555556 205.33333333333334 L 107.55555555555556 205.33333333333334 L 107.55555555555556 205.33333333333334 Q 108.44444444444444 205.33333333333334 109.33333333333333 206.22222222222223 L 59.55555555555556 440.8888888888889 L 59.55555555555556 440.8888888888889 L 21.333333333333332 440.8888888888889 L 21.333333333333332 440.8888888888889 Q 1.7777777777777777 442.6666666666667 0 462.22222222222223 Q 1.7777777777777777 481.77777777777777 21.333333333333332 483.55555555555554 L 141.33333333333334 483.55555555555554 L 141.33333333333334 483.55555555555554 Q 142.22222222222223 483.55555555555554 142.22222222222223 483.55555555555554 Q 142.22222222222223 483.55555555555554 143.11111111111111 483.55555555555554 L 283.55555555555554 483.55555555555554 L 283.55555555555554 483.55555555555554 Q 284.44444444444446 483.55555555555554 284.44444444444446 483.55555555555554 Q 284.44444444444446 483.55555555555554 285.3333333333333 483.55555555555554 L 448 483.55555555555554 L 448 483.55555555555554 Q 475.55555555555554 482.6666666666667 493.3333333333333 464.8888888888889 Q 511.1111111111111 447.1111111111111 512 419.55555555555554 L 512 412.44444444444446 L 512 412.44444444444446 Q 510.22222222222223 392.8888888888889 490.6666666666667 391.1111111111111 Q 471.1111111111111 392.8888888888889 469.3333333333333 412.44444444444446 L 469.3333333333333 419.55555555555554 L 469.3333333333333 419.55555555555554 Q 467.55555555555554 439.1111111111111 448 440.8888888888889 L 386.6666666666667 440.8888888888889 L 386.6666666666667 440.8888888888889 L 410.6666666666667 281.77777777777777 L 410.6666666666667 281.77777777777777 Q 425.77777777777777 273.77777777777777 426.6666666666667 256 Q 426.6666666666667 243.55555555555554 418.6666666666667 235.55555555555554 Q 410.6666666666667 227.55555555555554 398.22222222222223 227.55555555555554 L 379.55555555555554 227.55555555555554 L 379.55555555555554 227.55555555555554 Q 360.8888888888889 226.66666666666666 352.8888888888889 209.77777777777777 L 347.55555555555554 196.44444444444446 L 347.55555555555554 196.44444444444446 Q 326.22222222222223 148.44444444444446 275.55555555555554 131.55555555555554 L 232.88888888888889 118.22222222222223 L 232.88888888888889 118.22222222222223 Q 217.77777777777777 113.77777777777777 201.77777777777777 113.77777777777777 Q 159.11111111111111 114.66666666666667 128.88888888888889 144 L 108.44444444444444 164.44444444444446 L 108.44444444444444 164.44444444444446 Q 99.55555555555556 173.33333333333334 99.55555555555556 184.88888888888889 Q 99.55555555555556 196.44444444444446 108.44444444444444 205.33333333333334 L 107.55555555555556 205.33333333333334 Z M 381.3333333333333 284.44444444444446 L 357.3333333333333 440.8888888888889 L 381.3333333333333 284.44444444444446 L 357.3333333333333 440.8888888888889 L 318.22222222222223 440.8888888888889 L 318.22222222222223 440.8888888888889 L 336.8888888888889 373.3333333333333 L 336.8888888888889 373.3333333333333 Q 341.3333333333333 360 336 346.6666666666667 Q 330.6666666666667 333.3333333333333 319.1111111111111 326.22222222222223 L 268.44444444444446 294.22222222222223 L 268.44444444444446 294.22222222222223 L 296 221.33333333333334 L 296 221.33333333333334 L 300.44444444444446 232 L 300.44444444444446 232 Q 311.1111111111111 256 331.55555555555554 270.22222222222223 Q 352.8888888888889 284.44444444444446 379.55555555555554 284.44444444444446 L 381.3333333333333 284.44444444444446 L 381.3333333333333 284.44444444444446 Z" />
</svg>