<svg xmlns="http://www.w3.org/2000/svg" viewBox="0 0 577 513">
    <path d="M 544 289 Q 557 288 566 279 L 566 279 Q 575 270 576 257 Q 577 243 565 233 L 310 8 Q 300 1 289 1 Q 278 0 267 9 L 10 233 Q 0 243 0 257 Q 0 270 9 279 Q 18 288 32 289 L 64 289 L 64 449 Q 65 476 83 494 Q 101 512 128 513 L 449 513 Q 476 512 494 494 Q 512 476 513 449 L 512 289 L 544 289 L 544 289 Z M 176 270 Q 177 244 194 227 L 194 227 Q 211 210 237 209 Q 262 209 281 227 L 288 234 L 295 227 Q 314 209 339 209 Q 365 210 382 227 Q 399 244 400 270 Q 400 295 382 314 L 299 396 Q 288 406 277 396 L 194 314 Q 177 295 176 270 L 176 270 Z"/>
</svg>
