<svg xmlns="http://www.w3.org/2000/svg" viewBox="0 0 512 512">
  <path d="M 150.58824 478.24747 Q 140.20284 488.63287 125.663284 488.63287 Q 111.12373 488.63287 100.738335 478.24747 L 9.346856 378.54767 L 9.346856 378.54767 Q 0 367.12372 1.0385395 354.66125 Q 2.077079 341.16025 11.423935 330.77484 Q 22.84787 321.42798 35.310345 322.46652 Q 48.81136 323.50507 59.196754 332.85193 L 92.43002 370.23935 L 92.43002 370.23935 L 92.43002 56.600407 L 92.43002 56.600407 Q 92.43002 42.060852 101.77688 32.713997 Q 111.12373 23.36714 125.663284 23.36714 Q 140.20284 23.36714 149.5497 32.713997 Q 158.89655 42.060852 158.89655 56.600407 L 158.89655 370.23935 L 158.89655 370.23935 L 192.12982 332.85193 L 192.12982 332.85193 Q 202.51521 323.50507 216.01622 322.46652 Q 228.4787 321.42798 239.90263 330.77484 Q 249.2495 341.16025 250.28802 353.6227 Q 251.32657 367.12372 241.97972 378.54767 L 150.58824 478.24747 L 150.58824 478.24747 Z M 419.56998 38.945232 L 502.65314 171.8783 L 419.56998 38.945232 L 502.65314 171.8783 Q 512 188.49493 503.69168 206.1501 Q 494.34482 221.7282 474.61258 222.76674 L 308.44626 222.76674 L 308.44626 222.76674 Q 289.75253 221.7282 279.36713 206.1501 Q 271.05884 188.49493 280.40567 171.8783 L 363.48883 38.945232 L 363.48883 38.945232 Q 373.87424 23.36714 391.52942 23.36714 Q 409.18457 24.40568 419.56998 38.945232 L 419.56998 38.945232 Z M 291.82962 339.08316 Q 292.86816 318.31238 306.36917 303.77283 L 306.36917 303.77283 L 306.36917 303.77283 Q 320.90872 290.27182 341.6795 289.23328 L 441.3793 289.23328 L 441.3793 289.23328 Q 462.15012 290.27182 476.68967 303.77283 Q 490.19067 318.31238 491.22922 339.08316 L 491.22922 438.78296 L 491.22922 438.78296 Q 490.19067 459.55374 476.68967 474.0933 Q 462.15012 487.59433 441.3793 488.63287 L 341.6795 488.63287 L 341.6795 488.63287 Q 320.90872 487.59433 306.36917 474.0933 Q 292.86816 459.55374 291.82962 438.78296 L 291.82962 339.08316 L 291.82962 339.08316 Z" />
</svg>