<svg xmlns="http://www.w3.org/2000/svg" viewBox="0 0 512 512">
  <path d="M 448 480 L 64 480 L 448 480 L 64 480 Q 37 479 19 461 Q 1 443 0 416 L 0 96 L 0 96 Q 1 69 19 51 Q 37 33 64 32 L 192 32 L 192 32 Q 224 33 243 58 L 262 83 L 262 83 Q 272 96 288 96 L 448 96 L 448 96 Q 475 97 493 115 Q 511 133 512 160 L 512 416 L 512 416 Q 511 443 493 461 Q 475 479 448 480 L 448 480 Z M 336 272 Q 335 231 308 204 L 308 204 L 308 204 Q 281 177 240 176 Q 199 177 172 204 Q 145 231 144 272 Q 145 313 172 340 Q 199 367 240 368 Q 267 368 289 355 L 327 393 L 327 393 Q 344 407 361 393 Q 375 376 361 359 L 323 321 L 323 321 Q 336 299 336 272 L 336 272 Z M 240 224 Q 267 225 282 248 Q 294 272 282 296 Q 267 319 240 320 Q 213 319 198 296 Q 186 272 198 248 Q 213 225 240 224 L 240 224 Z" />
</svg>