<svg xmlns="http://www.w3.org/2000/svg" viewBox="0 0 512 512">
  <path d="M 113.77778 83.111115 Q 81.77778 84 64.888885 111.55556 Q 48.88889 140 64.888885 168.44444 Q 81.77778 196 113.77778 196.88889 Q 145.77777 196 162.66667 168.44444 Q 178.66667 140 162.66667 111.55556 Q 145.77777 84 113.77778 83.111115 L 113.77778 83.111115 Z M 312.8889 253.77777 L 113.77778 253.77777 L 312.8889 253.77777 L 113.77778 253.77777 Q 65.77778 252.88889 32.88889 220.88889 Q 0.8888889 188 0 140 Q 0.8888889 92 32.88889 59.11111 Q 65.77778 27.11111 113.77778 26.222221 Q 146.66667 26.222221 172.44444 42.22222 Q 198.22223 58.22222 213.33333 84.888885 Q 228.44444 58.22222 254.22223 42.22222 Q 280 26.222221 312.8889 26.222221 Q 360.8889 27.11111 393.77777 59.11111 Q 425.77777 92 426.66666 140 Q 425.77777 188 393.77777 220.88889 Q 360.8889 252.88889 312.8889 253.77777 L 312.8889 253.77777 Z M 312.8889 83.111115 Q 280.8889 84 264 111.55556 Q 248 140 264 168.44444 Q 280.8889 196 312.8889 196.88889 Q 344.8889 196 361.77777 168.44444 Q 377.77777 140 361.77777 111.55556 Q 344.8889 84 312.8889 83.111115 L 312.8889 83.111115 Z M 496 256.44446 Q 511.1111 265.33334 512 282.22223 L 512 452.8889 L 512 452.8889 Q 511.1111 469.77777 496 478.66666 Q 480.8889 485.77777 466.66666 476 L 409.77777 433.33334 L 409.77777 433.33334 L 398.22223 424.44446 L 398.22223 424.44446 L 398.22223 410.22223 L 398.22223 410.22223 L 398.22223 324.8889 L 398.22223 324.8889 L 398.22223 310.66666 L 398.22223 310.66666 L 409.77777 301.77777 L 409.77777 301.77777 L 466.66666 259.1111 L 466.66666 259.1111 Q 480.8889 249.33333 496 256.44446 L 496 256.44446 Z M 56.88889 282.22223 L 113.77778 282.22223 L 56.88889 282.22223 L 312.8889 282.22223 Q 336.8889 283.1111 352.8889 299.1111 Q 368.8889 315.1111 369.77777 339.1111 L 369.77777 424.44446 L 369.77777 424.44446 Q 368.8889 448.44446 352.8889 464.44446 Q 336.8889 480.44446 312.8889 481.33334 L 113.77778 481.33334 L 113.77778 481.33334 Q 89.77778 480.44446 73.77778 464.44446 Q 57.77778 448.44446 56.88889 424.44446 L 56.88889 339.1111 L 56.88889 339.1111 L 28.444445 339.1111 L 28.444445 339.1111 Q 16 339.1111 8 331.1111 Q 0 323.1111 0 310.66666 Q 0 298.22223 8 290.22223 Q 16 282.22223 28.444445 282.22223 L 56.88889 282.22223 L 56.88889 282.22223 Z" />
</svg>