<svg xmlns="http://www.w3.org/2000/svg" viewBox="0 0 512 512">
  <path d="M 144 176 Q 144 146 159 120 L 159 120 L 159 120 Q 174 94 200 79 Q 226 64 256 64 Q 286 64 312 79 Q 338 94 353 120 Q 368 146 368 176 Q 368 206 353 232 Q 338 258 312 273 Q 286 288 256 288 Q 226 288 200 273 Q 174 258 159 232 Q 144 206 144 176 L 144 176 Z M 288 349 Q 351 337 391 289 L 391 289 L 391 289 Q 431 242 432 176 Q 430 101 380 52 Q 331 2 256 0 Q 181 2 132 52 Q 82 101 80 176 Q 81 242 121 289 Q 161 337 224 349 L 224 384 L 224 384 L 192 384 L 192 384 Q 178 384 169 393 Q 160 402 160 416 Q 160 430 169 439 Q 178 448 192 448 L 224 448 L 224 448 L 224 480 L 224 480 Q 224 494 233 503 Q 242 512 256 512 Q 270 512 279 503 Q 288 494 288 480 L 288 448 L 288 448 L 320 448 L 320 448 Q 334 448 343 439 Q 352 430 352 416 Q 352 402 343 393 Q 334 384 320 384 L 288 384 L 288 384 L 288 349 L 288 349 Z" />
</svg>