<svg xmlns="http://www.w3.org/2000/svg" viewBox="0 0 512 512">
  <path d="M 222.22223 450.66666 Q 229.33333 452.44446 235.55556 448 L 235.55556 448 L 235.55556 448 Q 241.77777 444.44446 241.77777 436.44446 L 241.77777 101.333336 L 241.77777 101.333336 Q 241.77777 95.111115 237.33333 91.55556 Q 224 80 195.55556 70.22222 Q 167.11111 60.444443 128 59.555557 Q 94.22222 59.555557 64.888885 66.666664 Q 35.555557 73.77778 16 80.888885 Q 0.8888889 88 0 105.77778 L 0 434.66666 L 0 434.66666 Q 0 442.66666 7.111111 447.1111 Q 13.333333 451.55554 21.333334 449.77777 Q 43.555557 441.77777 72 435.55554 Q 101.333336 429.33334 128 429.33334 Q 151.11111 430.22223 177.77777 436.44446 Q 203.55556 443.55554 222.22223 450.66666 L 222.22223 450.66666 Z M 289.77777 450.66666 Q 308.44446 443.55554 334.22223 436.44446 L 334.22223 436.44446 L 334.22223 436.44446 Q 360.8889 430.22223 384 429.33334 Q 410.66666 429.33334 440 435.55554 Q 468.44446 441.77777 490.66666 449.77777 Q 498.66666 451.55554 504.8889 447.1111 Q 512 442.66666 512 434.66666 L 512 105.77778 L 512 105.77778 Q 511.1111 88 496 80.888885 Q 476.44446 73.77778 447.1111 66.666664 Q 417.77777 59.555557 384 59.555557 Q 344.8889 60.444443 316.44446 70.22222 Q 288 80 274.66666 91.55556 Q 270.22223 95.111115 270.22223 101.333336 L 270.22223 436.44446 L 270.22223 436.44446 Q 270.22223 444.44446 276.44446 448 Q 282.66666 452.44446 289.77777 450.66666 L 289.77777 450.66666 Z" />
</svg>