<svg xmlns="http://www.w3.org/2000/svg" viewBox="0 0 512 512">
  <path d="M 0 85.333336 Q 0.8888889 61.333332 16.88889 45.333332 L 16.88889 45.333332 L 16.88889 45.333332 Q 32.88889 29.333334 56.88889 28.444445 L 199.11111 28.444445 L 199.11111 28.444445 L 199.11111 142.22223 L 199.11111 142.22223 Q 199.11111 154.66667 207.11111 162.66667 Q 215.11111 170.66667 227.55556 170.66667 L 341.33334 170.66667 L 341.33334 170.66667 L 341.33334 205.33333 L 341.33334 205.33333 Q 291.55554 219.55556 259.55554 260.44446 Q 228.44444 300.44446 227.55556 355.55554 Q 227.55556 395.55554 245.33333 428.44446 Q 263.1111 461.33334 293.33334 482.66666 Q 288.8889 483.55554 284.44446 483.55554 L 56.88889 483.55554 L 56.88889 483.55554 Q 32.88889 482.66666 16.88889 466.66666 Q 0.8888889 450.66666 0 426.66666 L 0 85.333336 L 0 85.333336 Z M 341.33334 142.22223 L 227.55556 142.22223 L 341.33334 142.22223 L 227.55556 142.22223 L 227.55556 28.444445 L 227.55556 28.444445 L 341.33334 142.22223 L 341.33334 142.22223 Z M 384 227.55556 Q 418.66666 227.55556 448 244.44444 L 448 244.44444 L 448 244.44444 Q 477.33334 261.33334 495.1111 291.55554 Q 512 321.77777 512 355.55554 Q 512 389.33334 495.1111 419.55554 Q 477.33334 449.77777 448 466.66666 Q 418.66666 483.55554 384 483.55554 Q 349.33334 483.55554 320 466.66666 Q 290.66666 449.77777 272.8889 419.55554 Q 256 389.33334 256 355.55554 Q 256 321.77777 272.8889 291.55554 Q 290.66666 261.33334 320 244.44444 Q 349.33334 227.55556 384 227.55556 L 384 227.55556 Z M 436.44446 322.66666 Q 445.33334 312.8889 436.44446 303.1111 Q 426.66666 294.22223 416.8889 303.1111 L 384 335.1111 L 384 335.1111 L 351.1111 303.1111 L 351.1111 303.1111 Q 341.33334 294.22223 331.55554 303.1111 Q 322.66666 312.8889 331.55554 322.66666 L 363.55554 355.55554 L 363.55554 355.55554 L 331.55554 388.44446 L 331.55554 388.44446 Q 322.66666 398.22223 331.55554 408 Q 341.33334 416.8889 351.1111 408 L 384 376 L 384 376 L 416.8889 408 L 416.8889 408 Q 426.66666 416.8889 436.44446 408 Q 445.33334 398.22223 436.44446 388.44446 L 404.44446 355.55554 L 404.44446 355.55554 L 436.44446 322.66666 L 436.44446 322.66666 Z" />
</svg>