<svg xmlns="http://www.w3.org/2000/svg" viewBox="0 0 512 512">
  <path d="M 233.08190476190475 14.140952380952381 Q 216.50285714285715 0.4876190476190476 199.92380952380952 14.140952380952381 L 106.30095238095238 107.76380952380953 L 106.30095238095238 107.76380952380953 Q 92.64761904761905 124.34285714285714 106.30095238095238 140.92190476190476 L 194.07238095238094 227.71809523809523 L 194.07238095238094 227.71809523809523 L 178.46857142857144 243.32190476190476 L 178.46857142857144 243.32190476190476 Q 142.38476190476192 225.76761904761904 99.47428571428571 225.76761904761904 Q 52.66285714285714 225.76761904761904 13.653333333333334 246.24761904761905 Q 0 256 10.727619047619047 269.6533333333333 L 116.05333333333333 374.9790476190476 L 116.05333333333333 374.9790476190476 L 99.47428571428571 390.58285714285716 L 99.47428571428571 390.58285714285716 Q 95.57333333333334 389.60761904761904 91.67238095238095 389.60761904761904 Q 78.01904761904763 389.60761904761904 69.24190476190476 398.3847619047619 Q 60.46476190476191 407.16190476190474 60.46476190476191 420.8152380952381 Q 60.46476190476191 434.4685714285714 69.24190476190476 443.2457142857143 Q 78.01904761904763 452.02285714285716 91.67238095238095 452.02285714285716 Q 105.32571428571428 452.02285714285716 114.10285714285715 443.2457142857143 Q 122.88 434.4685714285714 122.88 420.8152380952381 Q 122.88 416.9142857142857 121.9047619047619 413.0133333333333 L 137.50857142857143 396.4342857142857 L 137.50857142857143 396.4342857142857 L 242.83428571428573 501.76 L 242.83428571428573 501.76 Q 256.48761904761903 511.51238095238097 266.24 498.8342857142857 Q 286.72 459.8247619047619 286.72 413.0133333333333 Q 286.72 370.10285714285715 269.1657142857143 334.0190476190476 L 284.76952380952383 319.3904761904762 L 284.76952380952383 319.3904761904762 L 371.5657142857143 406.18666666666667 L 371.5657142857143 406.18666666666667 Q 388.1447619047619 419.84 404.7238095238095 406.18666666666667 L 498.3466666666667 312.56380952380954 L 498.3466666666667 312.56380952380954 Q 512 295.9847619047619 498.3466666666667 279.4057142857143 L 411.5504761904762 192.6095238095238 L 411.5504761904762 192.6095238095238 L 465.18857142857144 138.97142857142856 L 465.18857142857144 138.97142857142856 Q 473.9657142857143 129.21904761904761 473.9657142857143 116.54095238095238 Q 473.9657142857143 103.86285714285714 465.18857142857144 94.11047619047619 L 418.37714285714287 47.29904761904762 L 418.37714285714287 47.29904761904762 Q 408.6247619047619 38.521904761904764 395.94666666666666 38.521904761904764 Q 383.2685714285714 38.521904761904764 373.5161904761905 47.29904761904762 L 319.8780952380952 100.93714285714286 L 319.8780952380952 100.93714285714286 L 233.08190476190475 14.140952380952381 L 233.08190476190475 14.140952380952381 Z M 388.1447619047619 356.4495238095238 L 317.92761904761903 286.23238095238094 L 388.1447619047619 356.4495238095238 L 317.92761904761903 286.23238095238094 L 378.39238095238096 225.76761904761904 L 378.39238095238096 225.76761904761904 L 448.6095238095238 295.9847619047619 L 448.6095238095238 295.9847619047619 L 388.1447619047619 356.4495238095238 L 388.1447619047619 356.4495238095238 Z M 226.2552380952381 194.56 L 156.03809523809525 124.34285714285714 L 226.2552380952381 194.56 L 156.03809523809525 124.34285714285714 L 216.50285714285715 63.87809523809524 L 216.50285714285715 63.87809523809524 L 286.72 134.0952380952381 L 286.72 134.0952380952381 L 226.2552380952381 194.56 L 226.2552380952381 194.56 Z" />
</svg>