<svg xmlns="http://www.w3.org/2000/svg" viewBox="0 0 512 512">
  <path d="M 11.076923 227.6923 Q 0 240 0 256 L 0 256 L 0 256 Q 0 272 11.076923 284.30768 L 208 481.23077 L 208 481.23077 Q 220.3077 492.30768 236.3077 492.30768 Q 252.3077 492.30768 264.6154 481.23077 Q 275.69232 468.92307 275.69232 452.92307 Q 275.69232 436.92307 264.6154 424.6154 L 94.76923 256 L 94.76923 256 L 264.6154 87.38461 L 264.6154 87.38461 Q 275.69232 75.07692 275.69232 59.076923 Q 275.69232 43.076923 264.6154 30.76923 Q 252.3077 19.692308 236.3077 19.692308 Q 220.3077 19.692308 208 30.76923 L 11.076923 227.6923 L 11.076923 227.6923 Z M 444.30768 30.76923 L 247.38461 227.6923 L 444.30768 30.76923 L 247.38461 227.6923 Q 236.3077 240 236.3077 256 Q 236.3077 272 247.38461 284.30768 L 444.30768 481.23077 L 444.30768 481.23077 Q 456.6154 492.30768 472.6154 492.30768 Q 488.6154 492.30768 500.92307 481.23077 Q 512 468.92307 512 452.92307 Q 512 436.92307 500.92307 424.6154 L 331.07693 256 L 331.07693 256 L 500.92307 87.38461 L 500.92307 87.38461 Q 512 75.07692 512 59.076923 Q 512 43.076923 500.92307 30.76923 Q 488.6154 19.692308 472.6154 19.692308 Q 456.6154 19.692308 444.30768 30.76923 L 444.30768 30.76923 Z" />
</svg>