<svg xmlns="http://www.w3.org/2000/svg" viewBox="0 0 448 457">
    <path d="M 0 32 Q 0 18 9 9 L 9 9 Q 18 0 32 0 Q 148 1 242 57 Q 336 112 391 206 Q 447 300 448 416 Q 448 430 439 439 Q 430 448 416 448 Q 402 448 393 439 Q 384 430 384 416 Q 383 318 336 238 Q 289 159 210 112 Q 130 65 32 64 Q 18 64 9 55 Q 0 46 0 32 L 0 32 Z M 0 384 Q 1 348 32 329 Q 64 311 96 329 Q 127 348 128 384 Q 127 420 96 439 Q 64 457 32 439 Q 1 420 0 384 L 0 384 Z M 32 128 Q 112 129 177 167 L 177 167 Q 242 206 281 271 L 281 271 Q 319 336 320 416 Q 320 430 311 439 Q 302 448 288 448 Q 274 448 265 439 Q 256 430 256 416 Q 255 353 225 303 Q 196 252 145 223 Q 95 193 32 192 Q 18 192 9 183 Q 0 174 0 160 Q 0 146 9 137 Q 18 128 32 128 L 32 128 Z"/>
</svg>
