<svg xmlns="http://www.w3.org/2000/svg" viewBox="0 0 384 512">
    <path d="M 64 0 Q 37 1 19 19 L 19 19 Q 1 37 0 64 L 0 448 Q 1 475 19 493 Q 37 511 64 512 L 320 512 Q 347 511 365 493 Q 383 475 384 448 L 384 160 L 256 160 Q 242 160 233 151 Q 224 142 224 128 L 224 0 L 64 0 L 64 0 Z M 256 0 L 256 128 L 384 128 L 256 0 L 256 0 Z M 128 256 Q 129 220 160 201 Q 192 183 224 201 Q 255 220 256 256 Q 255 292 224 311 Q 192 329 160 311 Q 129 292 128 256 L 128 256 Z M 80 432 Q 81 398 103 375 L 103 375 Q 126 353 160 352 L 224 352 Q 258 353 281 375 Q 303 398 304 432 Q 303 447 288 448 L 96 448 Q 81 447 80 432 L 80 432 Z"/>
</svg>
