<svg xmlns="http://www.w3.org/2000/svg" viewBox="0 0 512 512">
  <path d="M 96 51.2 Q 78.4 52.8 76.8 70.4 L 76.8 89.6 L 76.8 89.6 L 70.4 89.6 L 70.4 89.6 Q 52.8 91.2 51.2 108.8 Q 52.8 126.4 70.4 128 L 185.6 128 L 185.6 128 Q 203.2 126.4 204.8 108.8 Q 203.2 91.2 185.6 89.6 L 179.2 89.6 L 179.2 89.6 L 179.2 70.4 L 179.2 70.4 Q 177.6 52.8 160 51.2 L 96 51.2 L 96 51.2 Z M 102.4 153.6 Q 59.2 154.4 29.6 183.2 L 29.6 183.2 L 29.6 183.2 Q 0.8 212.8 0 256 L 0 409.6 L 0 409.6 Q 0.8 431.2 15.2 445.6 Q 29.6 460 51.2 460.8 L 256 460.8 L 256 460.8 Q 277.6 460 292 445.6 Q 306.4 431.2 307.2 409.6 L 307.2 256 L 307.2 256 Q 306.4 212.8 277.6 183.2 Q 248 154.4 204.8 153.6 L 102.4 153.6 L 102.4 153.6 Z M 230.4 230.4 Q 241.6 230.4 248.8 237.6 L 248.8 237.6 L 248.8 237.6 Q 256 244.8 256 256 L 256 332.8 L 256 332.8 Q 256 344 248.8 351.2 Q 241.6 358.4 230.4 358.4 Q 219.2 358.4 212 351.2 Q 204.8 344 204.8 332.8 L 204.8 256 L 204.8 256 Q 204.8 244.8 212 237.6 Q 219.2 230.4 230.4 230.4 L 230.4 230.4 Z M 377.6 102.4 Q 360 104 358.4 121.6 L 358.4 153.6 L 358.4 153.6 L 460.8 153.6 L 460.8 153.6 L 460.8 121.6 L 460.8 121.6 Q 459.2 104 441.6 102.4 L 377.6 102.4 L 377.6 102.4 Z M 332.8 364.8 Q 332.8 364.8 332.8 365.6 L 332.8 365.6 L 332.8 365.6 Q 332.8 365.6 332.8 365.6 L 332.8 409.6 L 332.8 409.6 Q 332.8 430.4 323.2 447.2 Q 337.6 460 358.4 460.8 L 460.8 460.8 L 460.8 460.8 Q 482.4 460 496.8 445.6 Q 511.2 431.2 512 409.6 Q 510.4 379.2 485.6 364.8 Q 510.4 350.4 512 320 Q 510.4 290.4 487.2 276 Q 510.4 262.4 512 233.6 Q 511.2 204 484.8 190.4 L 473.6 185.6 L 473.6 185.6 Q 460.8 179.2 445.6 179.2 L 373.6 179.2 L 373.6 179.2 Q 358.4 179.2 345.6 185.6 L 334.4 190.4 L 334.4 190.4 Q 326.4 194.4 320 200.8 Q 332.8 226.4 332.8 256 L 332.8 364 L 332.8 364 Q 332.8 364.8 333.6 364.8 Q 333.6 364.8 333.6 364.8 Q 333.6 364.8 332.8 364.8 L 332.8 364.8 Z" />
</svg>