<svg xmlns="http://www.w3.org/2000/svg" viewBox="0 0 512 512">
  <path d="M 0 76.8 Q 0 65.6 7.2 58.4 L 7.2 58.4 L 7.2 58.4 Q 14.4 51.2 25.6 51.2 L 38.4 51.2 L 38.4 51.2 Q 65.6 52 84 69.6 Q 101.6 88 102.4 115.2 L 102.4 345.6 L 102.4 345.6 Q 103.2 357.6 115.2 358.4 L 486.4 358.4 L 486.4 358.4 Q 497.6 358.4 504.8 365.6 Q 512 372.8 512 384 Q 512 395.2 504.8 402.4 Q 497.6 409.6 486.4 409.6 L 432.8 409.6 L 432.8 409.6 Q 435.2 416 435.2 422.4 Q 434.4 438.4 424 449.6 Q 412.8 460 396.8 460.8 Q 380.8 460 369.6 449.6 Q 359.2 438.4 358.4 422.4 Q 358.4 416 360.8 409.6 L 202.4 409.6 L 202.4 409.6 Q 204.8 416 204.8 422.4 Q 204 438.4 193.6 449.6 Q 182.4 460 166.4 460.8 Q 150.4 460 139.2 449.6 Q 128.8 438.4 128 422.4 Q 128 416 130.4 409.6 L 115.2 409.6 L 115.2 409.6 Q 88 408.8 69.6 391.2 Q 52 372.8 51.2 345.6 L 51.2 115.2 L 51.2 115.2 Q 50.4 103.2 38.4 102.4 L 25.6 102.4 L 25.6 102.4 Q 14.4 102.4 7.2 95.2 Q 0 88 0 76.8 L 0 76.8 Z" />
</svg>