<svg xmlns="http://www.w3.org/2000/svg" viewBox="0 0 512 512">
  <path d="M 85.333336 113.77778 L 85.333336 312.8889 L 85.333336 113.77778 L 85.333336 312.8889 Q 86.22222 336.8889 102.22222 352.8889 Q 118.22222 368.8889 142.22223 369.77777 L 455.1111 369.77777 L 455.1111 369.77777 Q 479.1111 368.8889 495.1111 352.8889 Q 511.1111 336.8889 512 312.8889 L 512 113.77778 L 512 113.77778 Q 511.1111 89.77778 495.1111 73.77778 Q 479.1111 57.77778 455.1111 56.88889 L 142.22223 56.88889 L 142.22223 56.88889 Q 118.22222 57.77778 102.22222 73.77778 Q 86.22222 89.77778 85.333336 113.77778 L 85.333336 113.77778 Z M 298.66666 113.77778 Q 330.66666 114.666664 347.55554 142.22223 Q 363.55554 170.66667 347.55554 199.11111 Q 330.66666 226.66667 298.66666 227.55556 Q 266.66666 226.66667 249.77777 199.11111 Q 233.77777 170.66667 249.77777 142.22223 Q 266.66666 114.666664 298.66666 113.77778 L 298.66666 113.77778 Z M 240 256 L 357.33334 256 L 240 256 L 357.33334 256 Q 375.1111 256 386.66666 267.55554 Q 398.22223 279.1111 398.22223 296.8889 Q 396.44446 311.1111 382.22223 312.8889 L 215.11111 312.8889 L 215.11111 312.8889 Q 200.88889 311.1111 199.11111 296.8889 Q 199.11111 279.1111 210.66667 267.55554 Q 222.22223 256 240 256 L 240 256 Z M 42.666668 135.11111 Q 40.88889 115.55556 21.333334 113.77778 Q 1.7777778 115.55556 0 135.11111 L 0 334.22223 L 0 334.22223 Q 0.8888889 385.77777 35.555557 419.55554 Q 69.333336 454.22223 120.888885 455.1111 L 405.33334 455.1111 L 405.33334 455.1111 Q 424.8889 453.33334 426.66666 433.77777 Q 424.8889 414.22223 405.33334 412.44446 L 120.888885 412.44446 L 120.888885 412.44446 Q 88 411.55554 65.77778 389.33334 Q 43.555557 367.1111 42.666668 334.22223 L 42.666668 135.11111 L 42.666668 135.11111 Z" />
</svg>