<svg xmlns="http://www.w3.org/2000/svg" viewBox="0 0 512 512">
  <path d="M 0 113.77777777777777 Q 0.8888888888888888 89.77777777777777 16.88888888888889 73.77777777777777 L 16.88888888888889 73.77777777777777 L 16.88888888888889 73.77777777777777 Q 32.888888888888886 57.77777777777778 56.888888888888886 56.888888888888886 L 455.1111111111111 56.888888888888886 L 455.1111111111111 56.888888888888886 Q 479.1111111111111 57.77777777777778 495.1111111111111 73.77777777777777 Q 511.1111111111111 89.77777777777777 512 113.77777777777777 L 512 398.22222222222223 L 512 398.22222222222223 Q 511.1111111111111 422.22222222222223 495.1111111111111 438.22222222222223 Q 479.1111111111111 454.22222222222223 455.1111111111111 455.1111111111111 L 429.3333333333333 455.1111111111111 L 429.3333333333333 455.1111111111111 L 397.3333333333333 368.8888888888889 L 397.3333333333333 368.8888888888889 Q 385.77777777777777 343.1111111111111 357.3333333333333 341.3333333333333 L 154.66666666666666 341.3333333333333 L 154.66666666666666 341.3333333333333 Q 126.22222222222223 343.1111111111111 114.66666666666667 368.8888888888889 L 82.66666666666667 455.1111111111111 L 82.66666666666667 455.1111111111111 L 56.888888888888886 455.1111111111111 L 56.888888888888886 455.1111111111111 Q 32.888888888888886 454.22222222222223 16.88888888888889 438.22222222222223 Q 0.8888888888888888 422.22222222222223 0 398.22222222222223 L 0 113.77777777777777 L 0 113.77777777777777 Z M 370.6666666666667 378.6666666666667 L 399.1111111111111 455.1111111111111 L 370.6666666666667 378.6666666666667 L 399.1111111111111 455.1111111111111 L 112.88888888888889 455.1111111111111 L 112.88888888888889 455.1111111111111 L 141.33333333333334 378.6666666666667 L 141.33333333333334 378.6666666666667 Q 144.88888888888889 370.6666666666667 154.66666666666666 369.77777777777777 L 357.3333333333333 369.77777777777777 L 357.3333333333333 369.77777777777777 Q 367.1111111111111 369.77777777777777 370.6666666666667 378.6666666666667 L 370.6666666666667 378.6666666666667 Z M 304 199.11111111111111 L 208.88888888888889 199.11111111111111 L 304 199.11111111111111 L 208.88888888888889 199.11111111111111 Q 213.33333333333334 212.44444444444446 213.33333333333334 227.55555555555554 Q 213.33333333333334 242.66666666666666 208.88888888888889 256 L 304 256 L 304 256 Q 298.6666666666667 242.66666666666666 298.6666666666667 227.55555555555554 Q 298.6666666666667 212.44444444444446 304 199.11111111111111 L 304 199.11111111111111 Z M 384 199.11111111111111 Q 371.55555555555554 199.11111111111111 363.55555555555554 207.11111111111111 L 363.55555555555554 207.11111111111111 L 363.55555555555554 207.11111111111111 Q 355.55555555555554 215.11111111111111 355.55555555555554 227.55555555555554 Q 355.55555555555554 240 363.55555555555554 248 Q 371.55555555555554 256 384 256 Q 396.44444444444446 256 404.44444444444446 248 Q 412.44444444444446 240 412.44444444444446 227.55555555555554 Q 412.44444444444446 215.11111111111111 404.44444444444446 207.11111111111111 Q 396.44444444444446 199.11111111111111 384 199.11111111111111 L 384 199.11111111111111 Z M 99.55555555555556 227.55555555555554 Q 99.55555555555556 240 107.55555555555556 248 L 107.55555555555556 248 L 107.55555555555556 248 Q 115.55555555555556 256 128 256 Q 140.44444444444446 256 148.44444444444446 248 Q 156.44444444444446 240 156.44444444444446 227.55555555555554 Q 156.44444444444446 215.11111111111111 148.44444444444446 207.11111111111111 Q 140.44444444444446 199.11111111111111 128 199.11111111111111 Q 115.55555555555556 199.11111111111111 107.55555555555556 207.11111111111111 Q 99.55555555555556 215.11111111111111 99.55555555555556 227.55555555555554 L 99.55555555555556 227.55555555555554 Z" />
</svg>