<svg xmlns="http://www.w3.org/2000/svg" viewBox="0 0 512 512">
  <path d="M 57.6 124.8 Q 58.4 99.2 80 86.4 Q 102.4 73.6 124.8 86.4 Q 146.4 99.2 147.2 124.8 Q 146.4 150.4 124.8 163.2 Q 102.4 176 80 163.2 Q 58.4 150.4 57.6 124.8 L 57.6 124.8 Z M 51.2 251.2 Q 39.2 264.8 38.4 284.8 Q 39.2 304.8 51.2 318.4 L 51.2 251.2 L 51.2 251.2 Z M 166.4 211.2 Q 129.6 244.8 128 297.6 Q 128.8 339.2 153.6 370.4 L 153.6 387.2 L 153.6 387.2 Q 153.6 398.4 146.4 405.6 Q 139.2 412.8 128 412.8 L 76.8 412.8 L 76.8 412.8 Q 65.6 412.8 58.4 405.6 Q 51.2 398.4 51.2 387.2 L 51.2 365.6 L 51.2 365.6 Q 28 354.4 14.4 333.6 Q 0 312 0 284.8 Q 0.8 246.4 26.4 221.6 Q 51.2 196 89.6 195.2 L 115.2 195.2 L 115.2 195.2 Q 144.8 196 166.4 211.2 L 166.4 211.2 Z M 358.4 387.2 L 358.4 370.4 L 358.4 387.2 L 358.4 370.4 Q 383.2 339.2 384 297.6 Q 382.4 244.8 345.6 211.2 Q 367.2 196 396.8 195.2 L 422.4 195.2 L 422.4 195.2 Q 460.8 196 485.6 221.6 Q 511.2 246.4 512 284.8 Q 512 312 497.6 333.6 Q 484 354.4 460.8 365.6 L 460.8 387.2 L 460.8 387.2 Q 460.8 398.4 453.6 405.6 Q 446.4 412.8 435.2 412.8 L 384 412.8 L 384 412.8 Q 372.8 412.8 365.6 405.6 Q 358.4 398.4 358.4 387.2 L 358.4 387.2 Z M 364.8 124.8 Q 365.6 99.2 387.2 86.4 Q 409.6 73.6 432 86.4 Q 453.6 99.2 454.4 124.8 Q 453.6 150.4 432 163.2 Q 409.6 176 387.2 163.2 Q 365.6 150.4 364.8 124.8 L 364.8 124.8 Z M 460.8 251.2 L 460.8 318.4 L 460.8 251.2 L 460.8 318.4 Q 473.6 304.8 473.6 284.8 Q 473.6 264.8 460.8 251.2 L 460.8 251.2 Z M 256 80 Q 284.8 80.8 300 105.6 Q 314.4 131.2 300 156.8 Q 284.8 181.6 256 182.4 Q 227.2 181.6 212 156.8 Q 197.6 131.2 212 105.6 Q 227.2 80.8 256 80 L 256 80 Z M 192 297.6 Q 192.8 317.6 204.8 331.2 L 204.8 264 L 204.8 264 Q 192.8 277.6 192 297.6 L 192 297.6 Z M 307.2 264 L 307.2 331.2 L 307.2 264 L 307.2 331.2 Q 320 317.6 320 297.6 Q 320 277.6 307.2 264 L 307.2 264 Z M 358.4 297.6 Q 358.4 324.8 344 346.4 L 344 346.4 L 344 346.4 Q 330.4 367.2 307.2 378.4 L 307.2 412.8 L 307.2 412.8 Q 307.2 424 300 431.2 Q 292.8 438.4 281.6 438.4 L 230.4 438.4 L 230.4 438.4 Q 219.2 438.4 212 431.2 Q 204.8 424 204.8 412.8 L 204.8 378.4 L 204.8 378.4 Q 181.6 367.2 168 346.4 Q 153.6 324.8 153.6 297.6 Q 154.4 259.2 180 234.4 Q 204.8 208.8 243.2 208 L 268.8 208 L 268.8 208 Q 307.2 208.8 332 234.4 Q 357.6 259.2 358.4 297.6 L 358.4 297.6 Z" />
</svg>