<svg xmlns="http://www.w3.org/2000/svg" viewBox="0 0 512 512">
  <path d="M 56.888888888888886 227.11111111111111 Q 32.888888888888886 226.22222222222223 16.88888888888889 210.22222222222223 L 16.88888888888889 210.22222222222223 L 16.88888888888889 210.22222222222223 Q 0.8888888888888888 194.22222222222223 0 170.22222222222223 Q 0.8888888888888888 146.22222222222223 16.88888888888889 130.22222222222223 Q 32.888888888888886 114.22222222222223 56.888888888888886 113.33333333333333 L 256 113.33333333333333 L 256 113.33333333333333 Q 276.44444444444446 112.44444444444444 283.55555555555554 100 Q 290.6666666666667 88.44444444444444 291.55555555555554 70.66666666666667 Q 293.3333333333333 57.333333333333336 305.77777777777777 57.333333333333336 Q 342.22222222222223 60.888888888888886 369.77777777777777 81.33333333333333 Q 396.44444444444446 102.66666666666667 398.22222222222223 141.77777777777777 Q 397.3333333333333 178.22222222222223 373.3333333333333 202.22222222222223 Q 349.3333333333333 226.22222222222223 312.8888888888889 227.11111111111111 L 56.888888888888886 227.11111111111111 L 56.888888888888886 227.11111111111111 Z M 49.77777777777778 255.55555555555554 Q 69.33333333333333 257.3333333333333 71.11111111111111 276.8888888888889 L 71.11111111111111 397.77777777777777 L 71.11111111111111 397.77777777777777 L 99.55555555555556 397.77777777777777 L 99.55555555555556 397.77777777777777 L 99.55555555555556 276.8888888888889 L 99.55555555555556 276.8888888888889 Q 101.33333333333333 257.3333333333333 120.88888888888889 255.55555555555554 Q 140.44444444444446 257.3333333333333 142.22222222222223 276.8888888888889 L 142.22222222222223 397.77777777777777 L 142.22222222222223 397.77777777777777 L 170.66666666666666 397.77777777777777 L 170.66666666666666 397.77777777777777 L 170.66666666666666 276.8888888888889 L 170.66666666666666 276.8888888888889 Q 172.44444444444446 257.3333333333333 192 255.55555555555554 Q 211.55555555555554 257.3333333333333 213.33333333333334 276.8888888888889 L 213.33333333333334 397.77777777777777 L 213.33333333333334 397.77777777777777 L 241.77777777777777 397.77777777777777 L 241.77777777777777 397.77777777777777 L 241.77777777777777 276.8888888888889 L 241.77777777777777 276.8888888888889 Q 243.55555555555554 257.3333333333333 263.1111111111111 255.55555555555554 Q 282.6666666666667 257.3333333333333 284.44444444444446 276.8888888888889 L 284.44444444444446 397.77777777777777 L 284.44444444444446 397.77777777777777 L 312.8888888888889 397.77777777777777 L 312.8888888888889 397.77777777777777 L 312.8888888888889 276.8888888888889 L 312.8888888888889 276.8888888888889 Q 314.6666666666667 257.3333333333333 334.22222222222223 255.55555555555554 Q 353.77777777777777 257.3333333333333 355.55555555555554 276.8888888888889 L 355.55555555555554 397.77777777777777 L 355.55555555555554 397.77777777777777 L 483.55555555555554 397.77777777777777 L 483.55555555555554 397.77777777777777 Q 496 397.77777777777777 504 405.77777777777777 Q 512 413.77777777777777 512 426.22222222222223 Q 512 438.6666666666667 504 446.6666666666667 Q 496 454.6666666666667 483.55555555555554 454.6666666666667 L 28.444444444444443 454.6666666666667 L 28.444444444444443 454.6666666666667 Q 16 454.6666666666667 8 446.6666666666667 Q 0 438.6666666666667 0 426.22222222222223 Q 0 413.77777777777777 8 405.77777777777777 Q 16 397.77777777777777 28.444444444444443 397.77777777777777 L 28.444444444444443 276.8888888888889 L 28.444444444444443 276.8888888888889 Q 30.22222222222222 257.3333333333333 49.77777777777778 255.55555555555554 L 49.77777777777778 255.55555555555554 Z" />
</svg>