<svg xmlns="http://www.w3.org/2000/svg" viewBox="0 0 512 512">
  <path d="M 78.22222222222223 28.444444444444443 Q 45.333333333333336 29.333333333333332 23.11111111111111 51.55555555555556 L 23.11111111111111 51.55555555555556 L 23.11111111111111 51.55555555555556 Q 0.8888888888888888 73.77777777777777 0 106.66666666666667 L 0 156.44444444444446 L 0 156.44444444444446 L 0 177.77777777777777 L 0 177.77777777777777 L 0 199.11111111111111 L 0 199.11111111111111 Q 0.8888888888888888 216.88888888888889 12.444444444444445 229.33333333333334 Q 24.88888888888889 240.88888888888889 42.666666666666664 241.77777777777777 L 85.33333333333333 241.77777777777777 L 85.33333333333333 241.77777777777777 Q 103.11111111111111 240.88888888888889 115.55555555555556 229.33333333333334 Q 127.11111111111111 216.88888888888889 128 199.11111111111111 L 128 156.44444444444446 L 128 156.44444444444446 Q 127.11111111111111 138.66666666666666 115.55555555555556 126.22222222222223 Q 103.11111111111111 114.66666666666667 85.33333333333333 113.77777777777777 L 56.888888888888886 113.77777777777777 L 56.888888888888886 113.77777777777777 L 56.888888888888886 106.66666666666667 L 56.888888888888886 106.66666666666667 Q 58.666666666666664 87.11111111111111 78.22222222222223 85.33333333333333 L 85.33333333333333 85.33333333333333 L 85.33333333333333 85.33333333333333 Q 97.77777777777777 85.33333333333333 105.77777777777777 77.33333333333333 Q 113.77777777777777 69.33333333333333 113.77777777777777 56.888888888888886 Q 113.77777777777777 44.44444444444444 105.77777777777777 36.44444444444444 Q 97.77777777777777 28.444444444444443 85.33333333333333 28.444444444444443 L 78.22222222222223 28.444444444444443 L 78.22222222222223 28.444444444444443 Z M 234.66666666666666 28.444444444444443 Q 201.77777777777777 29.333333333333332 179.55555555555554 51.55555555555556 L 179.55555555555554 51.55555555555556 L 179.55555555555554 51.55555555555556 Q 157.33333333333334 73.77777777777777 156.44444444444446 106.66666666666667 L 156.44444444444446 156.44444444444446 L 156.44444444444446 156.44444444444446 L 156.44444444444446 177.77777777777777 L 156.44444444444446 177.77777777777777 L 156.44444444444446 199.11111111111111 L 156.44444444444446 199.11111111111111 Q 157.33333333333334 216.88888888888889 168.88888888888889 229.33333333333334 Q 181.33333333333334 240.88888888888889 199.11111111111111 241.77777777777777 L 241.77777777777777 241.77777777777777 L 241.77777777777777 241.77777777777777 Q 259.55555555555554 240.88888888888889 272 229.33333333333334 Q 283.55555555555554 216.88888888888889 284.44444444444446 199.11111111111111 L 284.44444444444446 156.44444444444446 L 284.44444444444446 156.44444444444446 Q 283.55555555555554 138.66666666666666 272 126.22222222222223 Q 259.55555555555554 114.66666666666667 241.77777777777777 113.77777777777777 L 213.33333333333334 113.77777777777777 L 213.33333333333334 113.77777777777777 L 213.33333333333334 106.66666666666667 L 213.33333333333334 106.66666666666667 Q 215.11111111111111 87.11111111111111 234.66666666666666 85.33333333333333 L 241.77777777777777 85.33333333333333 L 241.77777777777777 85.33333333333333 Q 254.22222222222223 85.33333333333333 262.22222222222223 77.33333333333333 Q 270.22222222222223 69.33333333333333 270.22222222222223 56.888888888888886 Q 270.22222222222223 44.44444444444444 262.22222222222223 36.44444444444444 Q 254.22222222222223 28.444444444444443 241.77777777777777 28.444444444444443 L 234.66666666666666 28.444444444444443 L 234.66666666666666 28.444444444444443 Z M 512 405.3333333333333 L 512 355.55555555555554 L 512 405.3333333333333 L 512 355.55555555555554 L 512 334.22222222222223 L 512 334.22222222222223 L 512 312.8888888888889 L 512 312.8888888888889 Q 511.1111111111111 295.1111111111111 499.55555555555554 282.6666666666667 Q 487.1111111111111 271.1111111111111 469.3333333333333 270.22222222222223 L 426.6666666666667 270.22222222222223 L 426.6666666666667 270.22222222222223 Q 408.8888888888889 271.1111111111111 396.44444444444446 282.6666666666667 Q 384.8888888888889 295.1111111111111 384 312.8888888888889 L 384 355.55555555555554 L 384 355.55555555555554 Q 384.8888888888889 373.3333333333333 396.44444444444446 385.77777777777777 Q 408.8888888888889 397.3333333333333 426.6666666666667 398.22222222222223 L 455.1111111111111 398.22222222222223 L 455.1111111111111 398.22222222222223 L 455.1111111111111 405.3333333333333 L 455.1111111111111 405.3333333333333 Q 453.3333333333333 424.8888888888889 433.77777777777777 426.6666666666667 L 426.6666666666667 426.6666666666667 L 426.6666666666667 426.6666666666667 Q 414.22222222222223 426.6666666666667 406.22222222222223 434.6666666666667 Q 398.22222222222223 442.6666666666667 398.22222222222223 455.1111111111111 Q 398.22222222222223 467.55555555555554 406.22222222222223 475.55555555555554 Q 414.22222222222223 483.55555555555554 426.6666666666667 483.55555555555554 L 433.77777777777777 483.55555555555554 L 433.77777777777777 483.55555555555554 Q 466.6666666666667 482.6666666666667 488.8888888888889 460.44444444444446 Q 511.1111111111111 438.22222222222223 512 405.3333333333333 L 512 405.3333333333333 Z M 277.3333333333333 483.55555555555554 Q 310.22222222222223 482.6666666666667 332.44444444444446 460.44444444444446 L 332.44444444444446 460.44444444444446 L 332.44444444444446 460.44444444444446 Q 354.6666666666667 438.22222222222223 355.55555555555554 405.3333333333333 L 355.55555555555554 355.55555555555554 L 355.55555555555554 355.55555555555554 L 355.55555555555554 334.22222222222223 L 355.55555555555554 334.22222222222223 L 355.55555555555554 312.8888888888889 L 355.55555555555554 312.8888888888889 Q 354.6666666666667 295.1111111111111 343.1111111111111 282.6666666666667 Q 330.6666666666667 271.1111111111111 312.8888888888889 270.22222222222223 L 270.22222222222223 270.22222222222223 L 270.22222222222223 270.22222222222223 Q 252.44444444444446 271.1111111111111 240 282.6666666666667 Q 228.44444444444446 295.1111111111111 227.55555555555554 312.8888888888889 L 227.55555555555554 355.55555555555554 L 227.55555555555554 355.55555555555554 Q 228.44444444444446 373.3333333333333 240 385.77777777777777 Q 252.44444444444446 397.3333333333333 270.22222222222223 398.22222222222223 L 298.6666666666667 398.22222222222223 L 298.6666666666667 398.22222222222223 L 298.6666666666667 405.3333333333333 L 298.6666666666667 405.3333333333333 Q 296.8888888888889 424.8888888888889 277.3333333333333 426.6666666666667 L 270.22222222222223 426.6666666666667 L 270.22222222222223 426.6666666666667 Q 257.77777777777777 426.6666666666667 249.77777777777777 434.6666666666667 Q 241.77777777777777 442.6666666666667 241.77777777777777 455.1111111111111 Q 241.77777777777777 467.55555555555554 249.77777777777777 475.55555555555554 Q 257.77777777777777 483.55555555555554 270.22222222222223 483.55555555555554 L 277.3333333333333 483.55555555555554 L 277.3333333333333 483.55555555555554 Z" />
</svg>