<svg xmlns="http://www.w3.org/2000/svg" viewBox="0 0 512 512">
  <path d="M 1.7655172 99.751724 Q 1.7655172 87.393105 9.710345 79.44827 L 9.710345 79.44827 L 9.710345 79.44827 Q 17.655172 71.50345 30.013794 71.50345 L 481.9862 71.50345 L 481.9862 71.50345 Q 494.34482 71.50345 502.28964 79.44827 Q 510.2345 87.393105 510.2345 99.751724 L 510.2345 131.53104 L 510.2345 131.53104 Q 510.2345 142.12415 503.17242 149.1862 Q 496.11035 156.24828 485.51724 156.24828 Q 459.91724 157.13103 443.14484 173.90344 Q 426.3724 190.67586 425.48965 216.27586 L 425.48965 326.6207 L 425.48965 326.6207 Q 407.83447 326.6207 392.82758 336.33102 Q 367.2276 353.9862 340.74484 354.86896 L 340.74484 354.86896 L 340.74484 354.86896 L 340.74484 353.9862 L 340.74484 353.9862 L 340.74484 240.9931 L 340.74484 240.9931 Q 339.86206 204.8 316.0276 180.96552 Q 292.1931 157.13103 256 156.24828 Q 219.8069 157.13103 195.97241 180.96552 Q 172.13792 204.8 171.25517 240.9931 L 171.25517 353.9862 L 171.25517 353.9862 L 171.25517 354.86896 L 171.25517 354.86896 Q 144.77242 353.9862 119.17242 336.33102 Q 104.16552 326.6207 86.510345 326.6207 L 86.510345 216.27586 L 86.510345 216.27586 Q 85.62759 190.67586 68.85517 173.90344 Q 52.08276 157.13103 26.48276 156.24828 Q 15.889655 156.24828 8.827586 149.1862 Q 1.7655172 142.12415 1.7655172 131.53104 L 1.7655172 99.751724 L 1.7655172 99.751724 Z M 272.7724 359.28275 Q 303.66898 381.3517 340.74484 382.2345 Q 377.82068 380.46896 408.71725 359.28275 L 408.71725 359.28275 L 408.71725 359.28275 Q 427.25516 347.8069 444.0276 361.04828 Q 463.44827 376.93793 488.16553 383.11725 Q 499.6414 385.7655 505.82068 395.47586 Q 512 405.18622 509.3517 416.66208 Q 506.70346 428.13794 496.9931 434.31723 Q 487.28275 440.49655 475.8069 437.84827 Q 442.26205 429.0207 424.6069 415.7793 Q 384.88275 437.84827 340.74484 438.73105 Q 297.48965 436.08276 270.12415 421.95862 Q 262.17932 418.42758 256 414.89655 Q 249.8207 418.42758 241.87585 421.95862 Q 214.51035 436.08276 171.25517 438.73105 Q 127.11724 437.84827 88.27586 415.7793 Q 69.73793 429.0207 36.193104 437.84827 Q 24.717241 440.49655 15.006897 434.31723 Q 5.2965517 428.13794 2.6482759 416.66208 Q 0 405.18622 6.1793103 395.47586 Q 12.358621 385.7655 23.834482 383.11725 Q 48.551723 376.93793 67.97241 361.04828 Q 84.74483 348.68967 103.28276 359.28275 L 103.28276 359.28275 L 103.28276 359.28275 Q 134.1793 380.46896 171.25517 382.2345 Q 209.21379 381.3517 240.11035 359.28275 Q 256 348.68967 272.7724 359.28275 L 272.7724 359.28275 Z" />
</svg>