<svg xmlns="http://www.w3.org/2000/svg" viewBox="0 0 640 448">
    <path d="M 171 64 L 224 64 L 224 160 L 111 160 L 142 84 Q 150 65 171 64 L 171 64 Z M 272 160 L 272 64 L 353 64 Q 368 64 378 76 L 445 160 L 272 160 L 272 160 Z M 528 161 L 428 36 Q 399 1 353 0 L 171 0 Q 141 0 117 17 Q 94 33 82 60 L 41 164 Q 22 172 11 188 Q 0 203 0 224 L 0 336 Q 0 350 9 359 Q 18 368 32 368 L 65 368 Q 72 403 98 425 Q 124 447 160 448 Q 196 447 222 425 Q 248 403 255 368 L 385 368 Q 392 403 418 425 Q 444 447 480 448 Q 516 447 542 425 Q 568 403 575 368 L 608 368 Q 622 368 631 359 Q 640 350 640 336 L 640 288 Q 639 238 608 203 Q 577 168 528 161 L 528 161 Z M 435 336 Q 444 310 471 304 Q 498 300 517 320 Q 534 342 525 368 Q 516 394 489 400 Q 462 404 443 384 Q 426 362 435 336 L 435 336 Z M 160 304 Q 187 305 202 328 Q 214 352 202 376 Q 187 399 160 400 Q 133 399 118 376 Q 106 352 118 328 Q 133 305 160 304 L 160 304 Z"/>
</svg>
