<svg xmlns="http://www.w3.org/2000/svg" viewBox="0 0 640 512">
    <path d="M 255 112 Q 239 116 224 123 L 114 76 Q 100 71 90 83 Q 82 95 90 108 L 148 179 Q 137 192 130 207 L 16 236 Q 1 241 0 256 Q 1 271 16 276 L 130 305 Q 137 320 148 333 L 90 404 Q 82 417 90 429 Q 100 441 114 436 L 224 389 Q 239 396 255 400 L 298 497 Q 304 511 320 512 Q 336 511 342 497 L 385 400 Q 401 396 416 389 L 526 436 Q 540 441 550 429 Q 559 417 550 404 L 492 333 Q 503 320 510 305 L 625 276 Q 639 271 640 256 Q 639 241 625 236 L 510 207 Q 503 192 492 179 L 550 108 Q 559 96 550 83 Q 540 71 526 76 L 416 123 Q 401 116 385 112 L 342 15 Q 336 1 320 0 Q 304 1 298 15 L 255 112 L 255 112 Z M 320 352 Q 279 351 252 324 L 252 324 Q 225 297 224 256 Q 224 226 240 203 Q 265 217 295 222 Q 289 236 288 256 Q 289 280 297 295 Q 306 311 312 317 Q 315 320 320 320 Q 325 320 328 317 Q 335 311 343 295 Q 351 280 352 256 Q 352 236 345 222 Q 375 217 400 203 Q 416 226 416 256 Q 415 297 388 324 Q 361 351 320 352 L 320 352 Z"/>
</svg>
