<svg xmlns="http://www.w3.org/2000/svg" viewBox="0 0 512 512">
  <path d="M 184 0 Q 208 1 224 16 L 224 16 L 224 16 Q 239 32 240 56 L 240 456 L 240 456 Q 239 480 224 496 Q 208 511 184 512 Q 162 512 146 498 Q 131 484 128 462 Q 120 464 112 464 Q 85 463 67 445 Q 49 427 48 400 Q 48 389 52 379 Q 29 370 14 350 Q 0 330 0 304 Q 0 280 13 261 Q 25 242 46 232 Q 32 215 32 192 Q 32 169 46 152 Q 60 135 82 129 Q 80 121 80 112 Q 80 89 94 72 Q 107 56 128 50 Q 131 28 146 14 Q 162 0 184 0 L 184 0 Z M 328 0 Q 350 0 366 14 L 366 14 L 366 14 Q 381 28 384 50 Q 405 56 418 72 Q 432 89 432 112 Q 432 121 430 129 Q 452 135 466 152 Q 480 169 480 192 Q 480 215 466 232 Q 487 242 499 261 Q 512 280 512 304 Q 512 330 498 350 Q 483 370 460 379 Q 464 389 464 400 Q 463 427 445 445 Q 427 463 400 464 Q 392 464 384 462 Q 381 484 366 498 Q 350 512 328 512 Q 304 511 288 496 Q 273 480 272 456 L 272 56 L 272 56 Q 273 32 288 16 Q 304 1 328 0 L 328 0 Z" />
</svg>