<svg xmlns="http://www.w3.org/2000/svg" viewBox="0 0 512 512">
  <path d="M 107.42857 0 L 237.71428 0 L 107.42857 0 L 237.71428 0 L 237.71428 146.28572 L 237.71428 146.28572 L 0 146.28572 L 0 146.28572 L 58.285713 30.857143 L 58.285713 30.857143 Q 74.28571 1.1428572 107.42857 0 L 107.42857 0 Z M 274.2857 0 L 404.57144 0 L 274.2857 0 L 404.57144 0 Q 437.7143 1.1428572 453.7143 30.857143 L 512 146.28572 L 512 146.28572 L 274.2857 146.28572 L 274.2857 146.28572 L 274.2857 0 L 274.2857 0 Z M 0 182.85715 L 512 182.85715 L 0 182.85715 L 512 182.85715 L 512 438.85715 L 512 438.85715 Q 510.85715 469.7143 490.2857 490.2857 Q 469.7143 510.85715 438.85715 512 L 73.14286 512 L 73.14286 512 Q 42.285713 510.85715 21.714285 490.2857 Q 1.1428572 469.7143 0 438.85715 L 0 182.85715 L 0 182.85715 Z M 385.14285 284.57144 Q 401.14285 265.14285 385.14285 245.71428 Q 365.7143 229.71428 346.2857 245.71428 L 219.42857 372.57144 L 219.42857 372.57144 L 165.71428 318.85715 L 165.71428 318.85715 Q 146.28572 302.85715 126.85714 318.85715 Q 110.85714 338.2857 126.85714 357.7143 L 200 430.85715 L 200 430.85715 Q 219.42857 446.85715 238.85715 430.85715 L 385.14285 284.57144 L 385.14285 284.57144 Z" />
</svg>