<svg xmlns="http://www.w3.org/2000/svg" viewBox="0 0 512 512">
  <path d="M 78.6815144766147 1.1403118040089086 Q 62.71714922048998 0 51.31403118040089 9.122494432071269 L 51.31403118040089 9.122494432071269 L 51.31403118040089 9.122494432071269 Q 39.910913140311806 18.244988864142538 37.630289532293986 33.069042316258354 Q 36.489977728285076 49.03340757238308 45.61247216035635 60.43652561247216 Q 54.73496659242762 71.83964365256125 69.55902004454343 74.12026726057907 L 78.6815144766147 75.26057906458797 L 78.6815144766147 75.26057906458797 Q 108.32962138084632 80.96213808463251 110.61024498886414 111.75055679287306 L 110.61024498886414 147.10022271714922 L 110.61024498886414 147.10022271714922 L 74.12026726057907 147.10022271714922 L 74.12026726057907 147.10022271714922 Q 58.15590200445434 147.10022271714922 47.89309576837417 157.3630289532294 Q 37.630289532293986 167.62583518930958 37.630289532293986 183.5902004454343 Q 37.630289532293986 199.55456570155903 47.89309576837417 209.8173719376392 Q 58.15590200445434 220.0801781737194 74.12026726057907 220.0801781737194 L 110.61024498886414 220.0801781737194 L 110.61024498886414 220.0801781737194 L 110.61024498886414 402.5300668151448 L 110.61024498886414 402.5300668151448 Q 111.75055679287306 449.28285077951 142.53897550111358 480.07126948775056 Q 173.3273942093541 510.8596881959911 220.0801781737194 512 L 256.57015590200444 512 L 256.57015590200444 512 Q 350.07572383073494 509.71937639198217 411.65256124721606 448.1425389755011 Q 473.2293986636971 386.56570155902006 475.51002227171494 293.06013363028956 L 475.51002227171494 256.57015590200444 L 475.51002227171494 256.57015590200444 Q 474.369710467706 209.8173719376392 443.5812917594655 179.02895322939867 Q 412.79287305122494 148.24053452115814 366.04008908685967 147.10022271714922 L 347.79510022271717 147.10022271714922 L 347.79510022271717 147.10022271714922 Q 331.83073496659244 147.10022271714922 321.5679287305122 157.3630289532294 Q 311.30512249443206 167.62583518930958 311.30512249443206 183.5902004454343 Q 311.30512249443206 199.55456570155903 321.5679287305122 209.8173719376392 Q 331.83073496659244 220.0801781737194 347.79510022271717 220.0801781737194 L 366.04008908685967 220.0801781737194 L 366.04008908685967 220.0801781737194 Q 382.0044543429844 220.0801781737194 392.2672605790646 230.34298440979956 Q 402.5300668151448 240.60579064587972 402.5300668151448 256.57015590200444 L 402.5300668151448 293.06013363028956 L 402.5300668151448 293.06013363028956 Q 401.38975501113583 354.6369710467706 360.33853006681517 396.8285077951002 Q 318.1469933184855 437.87973273942094 256.57015590200444 439.02004454342983 L 220.0801781737194 439.02004454342983 L 220.0801781737194 439.02004454342983 Q 204.11581291759467 439.02004454342983 193.85300668151447 428.75723830734967 Q 183.5902004454343 418.4944320712695 183.5902004454343 402.5300668151448 L 183.5902004454343 220.0801781737194 L 183.5902004454343 220.0801781737194 L 220.0801781737194 220.0801781737194 L 220.0801781737194 220.0801781737194 Q 236.0445434298441 220.0801781737194 246.30734966592428 209.8173719376392 Q 256.57015590200444 199.55456570155903 256.57015590200444 183.5902004454343 Q 256.57015590200444 167.62583518930958 246.30734966592428 157.3630289532294 Q 236.0445434298441 147.10022271714922 220.0801781737194 147.10022271714922 L 183.5902004454343 147.10022271714922 L 183.5902004454343 147.10022271714922 L 183.5902004454343 111.75055679287306 L 183.5902004454343 111.75055679287306 Q 182.4498886414254 68.41870824053453 156.2227171492205 38.770601336302896 Q 129.99554565701558 9.122494432071269 87.80400890868597 2.2806236080178173 L 78.6815144766147 1.1403118040089086 L 78.6815144766147 1.1403118040089086 Z" />
</svg>