<svg xmlns="http://www.w3.org/2000/svg" viewBox="0 0 512 512">
  <path d="M 154.39688715953307 350.63035019455253 Q 160.37354085603113 305.8054474708171 160.37354085603113 255.00389105058366 Q 160.37354085603113 228.10894941634243 158.38132295719845 202.2101167315175 Q 180.295719844358 214.16342412451363 199.22178988326849 198.22568093385215 L 222.13229571984436 175.31517509727627 L 222.13229571984436 175.31517509727627 Q 237.0739299610895 159.3774319066148 258.988326848249 159.3774319066148 Q 261.97665369649803 159.3774319066148 264.9649805447471 159.3774319066148 L 234.08560311284046 253.01167315175098 L 234.08560311284046 253.01167315175098 Q 227.11284046692606 274.9260700389105 234.08560311284046 294.84824902723733 Q 241.05836575875486 314.7704280155642 259.98443579766536 327.7198443579766 L 346.6459143968872 380.5136186770428 L 346.6459143968872 380.5136186770428 L 320.74708171206225 469.16731517509726 L 320.74708171206225 469.16731517509726 Q 317.75875486381324 482.1167315175097 323.73540856031127 494.07003891050584 Q 329.71206225680936 505.0272373540856 342.66147859922177 509.011673151751 Q 355.6108949416342 512 367.56420233463035 506.02334630350197 Q 378.52140077821014 500.0466926070039 382.5058365758755 487.0972762645914 L 411.39299610894943 386.49027237354085 L 411.39299610894943 386.49027237354085 Q 415.3774319066148 371.5486381322957 409.40077821011675 356.60700389105057 Q 404.420233463035 341.6653696498054 390.4747081712062 333.6964980544747 L 333.6964980544747 297.8365758754864 L 333.6964980544747 297.8365758754864 L 364.57587548638134 216.1556420233463 L 364.57587548638134 216.1556420233463 L 369.55642023346303 228.10894941634243 L 369.55642023346303 228.10894941634243 Q 381.50972762645915 255.00389105058366 404.420233463035 270.94163424124514 Q 428.32684824902725 286.8793774319066 458.21011673151753 286.8793774319066 L 479.1284046692607 286.8793774319066 L 479.1284046692607 286.8793774319066 Q 493.0739299610895 286.8793774319066 502.03891050583655 277.9143968871595 Q 511.00389105058366 268.94941634241246 511.00389105058366 255.00389105058366 Q 511.00389105058366 241.05836575875486 502.03891050583655 232.09338521400778 Q 493.0739299610895 223.1284046692607 479.1284046692607 223.1284046692607 L 458.21011673151753 223.1284046692607 L 458.21011673151753 223.1284046692607 Q 437.2918287937743 222.13229571984436 428.32684824902725 203.20622568093384 L 422.35019455252916 188.26459143968873 L 422.35019455252916 188.26459143968873 Q 398.44357976653697 134.47470817120623 341.6653696498054 115.54863813229572 L 293.852140077821 100.60700389105058 L 293.852140077821 100.60700389105058 Q 276.9182879377432 95.62645914396887 258.988326848249 95.62645914396887 Q 211.17509727626458 96.62256809338521 177.30739299610894 129.4941634241245 L 154.39688715953307 152.4046692607004 L 154.39688715953307 152.4046692607004 Q 154.39688715953307 152.4046692607004 153.40077821011673 153.40077821011673 Q 144.43579766536965 84.6692607003891 124.5136186770428 42.83268482490272 Q 105.58754863813229 0.9961089494163424 80.68482490272373 0 Q 46.81712062256809 2.9883268482490273 23.90661478599222 74.70817120622569 Q 1.9922178988326849 146.42801556420233 0.9961089494163424 255.00389105058366 Q 1.9922178988326849 363.579766536965 23.90661478599222 435.2996108949416 Q 46.81712062256809 507.0194552529183 80.68482490272373 510.0077821011673 Q 99.61089494163424 509.011673151751 115.54863813229572 484.1089494163424 Q 131.4863813229572 458.21011673151753 143.4396887159533 414.38132295719845 L 198.22568093385215 414.38132295719845 L 198.22568093385215 414.38132295719845 Q 228.10894941634243 413.3852140077821 242.0544747081712 386.49027237354085 L 253.01167315175098 360.591439688716 L 253.01167315175098 360.591439688716 L 244.0466926070039 354.6147859922179 L 244.0466926070039 354.6147859922179 Q 217.15175097276264 337.6809338521401 206.1945525291829 309.78988326848247 L 187.26848249027236 350.63035019455253 L 187.26848249027236 350.63035019455253 L 154.39688715953307 350.63035019455253 L 154.39688715953307 350.63035019455253 Z M 367.56420233463035 95.62645914396887 Q 394.4591439688716 94.63035019455253 409.40077821011675 71.71984435797665 Q 421.3540856031128 47.81322957198444 409.40077821011675 23.90661478599222 Q 394.4591439688716 0.9961089494163424 367.56420233463035 0 Q 340.6692607003891 0.9961089494163424 325.72762645914395 23.90661478599222 Q 313.7743190661479 47.81322957198444 325.72762645914395 71.71984435797665 Q 340.6692607003891 94.63035019455253 367.56420233463035 95.62645914396887 L 367.56420233463035 95.62645914396887 Z" />
</svg>