<svg xmlns="http://www.w3.org/2000/svg" viewBox="0 0 640 448">
    <path d="M 144 448 Q 83 446 42 406 L 42 406 Q 2 365 0 304 Q 1 256 27 220 Q 53 184 96 168 Q 96 164 96 160 Q 98 92 143 47 Q 188 2 256 0 Q 301 1 337 22 Q 373 44 395 80 Q 418 64 448 64 Q 489 65 516 92 Q 543 119 544 160 Q 544 178 538 195 Q 582 204 611 239 Q 639 273 640 320 Q 639 374 603 411 Q 566 447 512 448 L 144 448 L 144 448 Z M 223 231 Q 209 248 223 265 Q 240 279 257 265 L 296 226 L 296 360 Q 298 382 320 384 Q 342 382 344 360 L 344 226 L 383 265 Q 400 279 417 265 Q 431 248 417 231 L 337 151 Q 320 137 303 151 L 223 231 L 223 231 Z"/>
</svg>
