<svg xmlns="http://www.w3.org/2000/svg" viewBox="0 0 512 512">
  <path d="M 256 381.67273 Q 218.76364 382.83636 200.14546 414.25455 Q 181.52727 446.83636 200.14546 479.41818 Q 218.76364 510.83636 256 512 Q 293.23636 510.83636 311.85455 479.41818 Q 330.47272 446.83636 311.85455 414.25455 Q 293.23636 382.83636 256 381.67273 L 256 381.67273 Z M 256 195.4909 Q 218.76364 196.65454 200.14546 228.07272 Q 181.52727 260.65454 200.14546 293.23636 Q 218.76364 324.65454 256 325.81818 Q 293.23636 324.65454 311.85455 293.23636 Q 330.47272 260.65454 311.85455 228.07272 Q 293.23636 196.65454 256 195.4909 L 256 195.4909 Z M 321.16364 74.472725 Q 320 37.236362 288.58182 18.618181 Q 256 0 223.41818 18.618181 Q 192 37.236362 190.83636 74.472725 Q 192 111.70909 223.41818 130.32727 Q 256 148.94545 288.58182 130.32727 Q 320 111.70909 321.16364 74.472725 L 321.16364 74.472725 Z" />
</svg>