<svg xmlns="http://www.w3.org/2000/svg" viewBox="0 0 512 512">
  <path d="M 147.2 89.6 L 262.4 89.6 L 147.2 89.6 L 262.4 89.6 Q 268 90.4 268.8 96 L 268.8 128 L 268.8 128 L 140.8 128 L 140.8 128 L 140.8 96 L 140.8 96 Q 141.6 90.4 147.2 89.6 L 147.2 89.6 Z M 102.4 96 L 102.4 128 L 102.4 96 L 102.4 128 L 51.2 128 L 51.2 128 Q 29.6 128.8 15.2 143.2 Q 0.8 157.6 0 179.2 L 0 256 L 0 256 L 153.6 256 L 288 256 Q 308 232 336 218.4 Q 364 204.8 396.8 204.8 Q 403.2 204.8 409.6 205.6 L 409.6 179.2 L 409.6 179.2 Q 408.8 157.6 394.4 143.2 Q 380 128.8 358.4 128 L 307.2 128 L 307.2 128 L 307.2 96 L 307.2 96 Q 306.4 76.8 294.4 64 Q 281.6 52 262.4 51.2 L 147.2 51.2 L 147.2 51.2 Q 128 52 115.2 64 Q 103.2 76.8 102.4 96 L 102.4 96 Z M 256 332.8 L 179.2 332.8 L 256 332.8 L 179.2 332.8 Q 168 332.8 160.8 325.6 Q 153.6 318.4 153.6 307.2 L 153.6 281.6 L 153.6 281.6 L 0 281.6 L 0 281.6 L 0 384 L 0 384 Q 0.8 405.6 15.2 420 Q 29.6 434.4 51.2 435.2 L 288 435.2 L 288 435.2 Q 256.8 397.6 256 345.6 Q 256 339.2 256.8 332.8 L 256 332.8 L 256 332.8 Z M 512 345.6 Q 512 314.4 496.8 288 L 496.8 288 L 496.8 288 Q 481.6 261.6 454.4 245.6 Q 427.2 230.4 396.8 230.4 Q 366.4 230.4 339.2 245.6 Q 312 261.6 296.8 288 Q 281.6 314.4 281.6 345.6 Q 281.6 376.8 296.8 403.2 Q 312 429.6 339.2 445.6 Q 366.4 460.8 396.8 460.8 Q 427.2 460.8 454.4 445.6 Q 481.6 429.6 496.8 403.2 Q 512 376.8 512 345.6 L 512 345.6 Z M 396.8 281.6 Q 408.8 282.4 409.6 294.4 L 409.6 332.8 L 409.6 332.8 L 435.2 332.8 L 435.2 332.8 Q 447.2 333.6 448 345.6 Q 447.2 357.6 435.2 358.4 L 396.8 358.4 L 396.8 358.4 Q 384.8 357.6 384 345.6 L 384 294.4 L 384 294.4 Q 384.8 282.4 396.8 281.6 L 396.8 281.6 Z" />
</svg>