<svg xmlns="http://www.w3.org/2000/svg" viewBox="0 0 512 512">
  <path d="M 290.1333333333333 22.755555555555556 Q 279.8933333333333 1.1377777777777778 256 0 Q 232.10666666666665 1.1377777777777778 223.00444444444443 22.755555555555556 L 86.47111111111111 350.43555555555554 L 86.47111111111111 350.43555555555554 L 40.96 459.6622222222222 L 40.96 459.6622222222222 Q 35.27111111111111 473.31555555555553 39.82222222222222 486.9688888888889 Q 45.51111111111111 500.6222222222222 60.30222222222222 507.4488888888889 Q 73.95555555555555 512 87.60888888888888 507.4488888888889 Q 101.26222222222222 501.76 108.08888888888889 486.9688888888889 L 143.36 400.4977777777778 L 143.36 400.4977777777778 L 368.64 400.4977777777778 L 368.64 400.4977777777778 L 405.0488888888889 486.9688888888889 L 405.0488888888889 486.9688888888889 Q 410.73777777777775 501.76 424.3911111111111 507.4488888888889 Q 438.0444444444444 512 451.6977777777778 507.4488888888889 Q 466.4888888888889 500.6222222222222 472.1777777777778 486.9688888888889 Q 476.7288888888889 473.31555555555553 472.1777777777778 459.6622222222222 L 426.6666666666667 350.43555555555554 L 426.6666666666667 350.43555555555554 L 290.1333333333333 22.755555555555556 L 290.1333333333333 22.755555555555556 Z M 337.92 327.68 L 174.08 327.68 L 337.92 327.68 L 174.08 327.68 L 256 130.84444444444443 L 256 130.84444444444443 L 337.92 327.68 L 337.92 327.68 Z" />
</svg>