<svg xmlns="http://www.w3.org/2000/svg" viewBox="0 0 512 512">
  <path d="M 64 448 Q 65 475 83 493 L 83 493 L 83 493 Q 101 511 128 512 L 288 512 L 288 512 L 288 384 L 288 384 Q 288 370 297 361 Q 306 352 320 352 L 448 352 L 448 352 L 448 64 L 448 64 Q 447 37 429 19 Q 411 1 384 0 L 128 0 L 128 0 Q 101 1 83 19 Q 65 37 64 64 L 64 448 L 64 448 Z M 235 75 L 139 171 L 235 75 L 139 171 Q 128 181 117 171 Q 107 160 117 149 L 213 53 L 213 53 Q 224 43 235 53 Q 245 64 235 75 L 235 75 Z M 331 107 L 171 267 L 331 107 L 171 267 Q 160 277 149 267 Q 139 256 149 245 L 309 85 L 309 85 Q 320 75 331 85 Q 341 96 331 107 L 331 107 Z M 448 384 L 320 384 L 448 384 L 320 384 L 320 512 L 320 512 L 448 384 L 448 384 Z" />
</svg>