<svg xmlns="http://www.w3.org/2000/svg" viewBox="0 0 640 455">
    <path d="M 69 11 L 117 43 Q 134 57 124 76 Q 110 93 91 83 L 43 51 Q 26 37 36 18 Q 50 1 69 11 L 69 11 Z M 597 51 L 549 83 Q 530 94 516 76 Q 505 57 523 43 L 571 11 Q 590 0 604 18 Q 615 37 597 51 L 597 51 Z M 24 167 L 88 167 Q 110 169 112 191 Q 110 213 88 215 L 24 215 Q 2 213 0 191 Q 2 169 24 167 L 24 167 Z M 552 167 L 616 167 Q 638 169 640 191 Q 638 213 616 215 L 552 215 Q 530 213 528 191 Q 530 169 552 167 L 552 167 Z M 144 327 L 169 127 Q 173 103 190 87 Q 208 72 233 71 L 408 71 Q 432 71 450 87 Q 467 103 471 127 L 496 327 L 234 327 L 256 153 Q 256 138 242 135 Q 227 135 224 149 L 202 327 L 144 327 L 144 327 Z M 96 391 Q 96 377 105 368 L 105 368 Q 114 359 128 359 L 512 359 Q 526 359 535 368 Q 544 377 544 391 L 544 423 Q 544 437 535 446 Q 526 455 512 455 L 128 455 Q 114 455 105 446 Q 96 437 96 423 L 96 391 L 96 391 Z"/>
</svg>
