<svg xmlns="http://www.w3.org/2000/svg" viewBox="0 0 448 512">
    <path d="M 64 0 Q 37 1 19 19 L 19 19 Q 1 37 0 64 L 0 448 Q 1 475 19 493 Q 37 511 64 512 L 384 512 Q 411 511 429 493 Q 447 475 448 448 L 448 64 Q 447 37 429 19 Q 411 1 384 0 L 64 0 L 64 0 Z M 224 160 Q 263 160 296 179 L 296 179 Q 329 198 349 232 Q 368 266 368 304 Q 368 342 349 376 Q 329 410 296 429 Q 263 448 224 448 Q 185 448 152 429 Q 119 410 99 376 Q 80 342 80 304 Q 80 266 99 232 Q 119 198 152 179 Q 185 160 224 160 L 224 160 Z M 64 88 Q 66 66 88 64 Q 110 66 112 88 Q 110 110 88 112 Q 66 110 64 88 L 64 88 Z M 184 64 Q 206 66 208 88 Q 206 110 184 112 Q 162 110 160 88 Q 162 66 184 64 L 184 64 Z M 157 213 Q 147 224 157 235 L 177 256 Q 184 263 184 272 Q 184 281 177 288 L 168 297 Q 152 313 152 336 Q 152 359 168 375 L 189 395 Q 200 405 211 395 Q 221 384 211 373 L 191 352 Q 184 345 184 336 Q 184 327 191 320 L 200 311 Q 216 295 216 272 Q 216 249 200 233 L 179 213 Q 168 203 157 213 L 157 213 Z M 259 213 Q 248 203 237 213 Q 227 224 237 235 L 257 256 Q 264 263 264 272 Q 264 281 257 288 L 248 297 Q 232 313 232 336 Q 232 359 248 375 L 269 395 Q 280 405 291 395 Q 301 384 291 373 L 271 352 Q 264 345 264 336 Q 264 327 271 320 L 280 311 Q 296 295 296 272 Q 296 249 280 233 L 259 213 L 259 213 Z"/>
</svg>
