<svg xmlns="http://www.w3.org/2000/svg" viewBox="0 0 512 512">
  <path d="M 148.44444444444446 132.44444444444446 Q 155.55555555555554 114.66666666666667 175.11111111111111 113.77777777777777 L 336.8888888888889 113.77777777777777 L 336.8888888888889 113.77777777777777 Q 356.44444444444446 114.66666666666667 363.55555555555554 132.44444444444446 L 386.6666666666667 199.11111111111111 L 386.6666666666667 199.11111111111111 L 125.33333333333333 199.11111111111111 L 125.33333333333333 199.11111111111111 L 148.44444444444446 132.44444444444446 L 148.44444444444446 132.44444444444446 Z M 28.444444444444443 227.55555555555554 L 36.44444444444444 227.55555555555554 L 28.444444444444443 227.55555555555554 L 36.44444444444444 227.55555555555554 Q 28.444444444444443 240 28.444444444444443 256 L 28.444444444444443 384 L 28.444444444444443 384 L 28.444444444444443 426.6666666666667 L 28.444444444444443 426.6666666666667 Q 28.444444444444443 439.1111111111111 36.44444444444444 447.1111111111111 Q 44.44444444444444 455.1111111111111 56.888888888888886 455.1111111111111 L 85.33333333333333 455.1111111111111 L 85.33333333333333 455.1111111111111 Q 97.77777777777777 455.1111111111111 105.77777777777777 447.1111111111111 Q 113.77777777777777 439.1111111111111 113.77777777777777 426.6666666666667 L 113.77777777777777 384 L 113.77777777777777 384 L 398.22222222222223 384 L 398.22222222222223 384 L 398.22222222222223 426.6666666666667 L 398.22222222222223 426.6666666666667 Q 398.22222222222223 439.1111111111111 406.22222222222223 447.1111111111111 Q 414.22222222222223 455.1111111111111 426.6666666666667 455.1111111111111 L 455.1111111111111 455.1111111111111 L 455.1111111111111 455.1111111111111 Q 467.55555555555554 455.1111111111111 475.55555555555554 447.1111111111111 Q 483.55555555555554 439.1111111111111 483.55555555555554 426.6666666666667 L 483.55555555555554 384 L 483.55555555555554 384 L 483.55555555555554 256 L 483.55555555555554 256 Q 483.55555555555554 240 475.55555555555554 227.55555555555554 L 483.55555555555554 227.55555555555554 L 483.55555555555554 227.55555555555554 Q 496 227.55555555555554 504 219.55555555555554 Q 512 211.55555555555554 512 199.11111111111111 Q 512 186.66666666666666 504 178.66666666666666 Q 496 170.66666666666666 483.55555555555554 170.66666666666666 L 437.3333333333333 170.66666666666666 L 437.3333333333333 170.66666666666666 L 416.8888888888889 113.77777777777777 L 416.8888888888889 113.77777777777777 Q 408 88 385.77777777777777 72.88888888888889 Q 364.44444444444446 56.888888888888886 336.8888888888889 56.888888888888886 L 175.11111111111111 56.888888888888886 L 175.11111111111111 56.888888888888886 Q 147.55555555555554 56.888888888888886 126.22222222222223 72.88888888888889 Q 104 88 95.11111111111111 113.77777777777777 L 75.55555555555556 170.66666666666666 L 75.55555555555556 170.66666666666666 L 28.444444444444443 170.66666666666666 L 28.444444444444443 170.66666666666666 Q 16 170.66666666666666 8 178.66666666666666 Q 0 186.66666666666666 0 199.11111111111111 Q 0 211.55555555555554 8 219.55555555555554 Q 16 227.55555555555554 28.444444444444443 227.55555555555554 L 28.444444444444443 227.55555555555554 Z M 85.33333333333333 284.44444444444446 Q 85.33333333333333 272 93.33333333333333 264 L 93.33333333333333 264 L 93.33333333333333 264 Q 101.33333333333333 256 113.77777777777777 256 Q 126.22222222222223 256 134.22222222222223 264 Q 142.22222222222223 272 142.22222222222223 284.44444444444446 Q 142.22222222222223 296.8888888888889 134.22222222222223 304.8888888888889 Q 126.22222222222223 312.8888888888889 113.77777777777777 312.8888888888889 Q 101.33333333333333 312.8888888888889 93.33333333333333 304.8888888888889 Q 85.33333333333333 296.8888888888889 85.33333333333333 284.44444444444446 L 85.33333333333333 284.44444444444446 Z M 398.22222222222223 256 Q 410.6666666666667 256 418.6666666666667 264 L 418.6666666666667 264 L 418.6666666666667 264 Q 426.6666666666667 272 426.6666666666667 284.44444444444446 Q 426.6666666666667 296.8888888888889 418.6666666666667 304.8888888888889 Q 410.6666666666667 312.8888888888889 398.22222222222223 312.8888888888889 Q 385.77777777777777 312.8888888888889 377.77777777777777 304.8888888888889 Q 369.77777777777777 296.8888888888889 369.77777777777777 284.44444444444446 Q 369.77777777777777 272 377.77777777777777 264 Q 385.77777777777777 256 398.22222222222223 256 L 398.22222222222223 256 Z" />
</svg>