<svg xmlns="http://www.w3.org/2000/svg" viewBox="0 0 512 512">
  <path d="M 191.11111111111111 134.22222222222223 Q 199.11111111111111 125.33333333333333 199.11111111111111 113.77777777777777 L 199.11111111111111 113.77777777777777 L 199.11111111111111 113.77777777777777 Q 199.11111111111111 102.22222222222223 191.11111111111111 93.33333333333333 Q 182.22222222222223 85.33333333333333 170.66666666666666 85.33333333333333 Q 159.11111111111111 85.33333333333333 150.22222222222223 93.33333333333333 L 8 235.55555555555554 L 8 235.55555555555554 Q 0 244.44444444444446 0 256 Q 0 267.55555555555554 8 276.44444444444446 L 150.22222222222223 418.6666666666667 L 150.22222222222223 418.6666666666667 Q 159.11111111111111 426.6666666666667 170.66666666666666 426.6666666666667 Q 182.22222222222223 426.6666666666667 191.11111111111111 418.6666666666667 Q 199.11111111111111 409.77777777777777 199.11111111111111 398.22222222222223 Q 199.11111111111111 386.6666666666667 191.11111111111111 377.77777777777777 L 68.44444444444444 256 L 68.44444444444444 256 L 191.11111111111111 134.22222222222223 L 191.11111111111111 134.22222222222223 Z M 320.8888888888889 134.22222222222223 L 443.55555555555554 256 L 320.8888888888889 134.22222222222223 L 443.55555555555554 256 L 320.8888888888889 377.77777777777777 L 320.8888888888889 377.77777777777777 Q 312.8888888888889 386.6666666666667 312.8888888888889 398.22222222222223 Q 312.8888888888889 409.77777777777777 320.8888888888889 418.6666666666667 Q 329.77777777777777 426.6666666666667 341.3333333333333 426.6666666666667 Q 352.8888888888889 426.6666666666667 361.77777777777777 418.6666666666667 L 504 276.44444444444446 L 504 276.44444444444446 Q 512 267.55555555555554 512 256 Q 512 244.44444444444446 504 235.55555555555554 L 361.77777777777777 93.33333333333333 L 361.77777777777777 93.33333333333333 Q 352.8888888888889 85.33333333333333 341.3333333333333 85.33333333333333 Q 329.77777777777777 85.33333333333333 320.8888888888889 93.33333333333333 Q 312.8888888888889 102.22222222222223 312.8888888888889 113.77777777777777 Q 312.8888888888889 125.33333333333333 320.8888888888889 134.22222222222223 L 320.8888888888889 134.22222222222223 Z" />
</svg>