<svg xmlns="http://www.w3.org/2000/svg" viewBox="0 0 512 512">
  <path d="M 96 0 Q 69 1 51 19 L 51 19 L 51 19 Q 33 37 32 64 L 32 448 L 32 448 Q 33 475 51 493 Q 69 511 96 512 L 416 512 L 416 512 Q 443 511 461 493 Q 479 475 480 448 L 480 64 L 480 64 Q 479 37 461 19 Q 443 1 416 0 L 96 0 L 96 0 Z M 256 160 Q 295 160 328 179 L 328 179 L 328 179 Q 361 198 381 232 Q 400 266 400 304 Q 400 342 381 376 Q 361 410 328 429 Q 295 448 256 448 Q 217 448 184 429 Q 151 410 131 376 Q 112 342 112 304 Q 112 266 131 232 Q 151 198 184 179 Q 217 160 256 160 L 256 160 Z M 96 88 Q 98 66 120 64 Q 142 66 144 88 Q 142 110 120 112 Q 98 110 96 88 L 96 88 Z M 216 64 Q 238 66 240 88 Q 238 110 216 112 Q 194 110 192 88 Q 194 66 216 64 L 216 64 Z M 189 213 Q 179 224 189 235 L 209 256 L 209 256 Q 216 263 216 272 Q 216 281 209 288 L 200 297 L 200 297 Q 184 313 184 336 Q 184 359 200 375 L 221 395 L 221 395 Q 232 405 243 395 Q 253 384 243 373 L 223 352 L 223 352 Q 216 345 216 336 Q 216 327 223 320 L 232 311 L 232 311 Q 248 295 248 272 Q 248 249 232 233 L 211 213 L 211 213 Q 200 203 189 213 L 189 213 Z M 291 213 Q 280 203 269 213 Q 259 224 269 235 L 289 256 L 289 256 Q 296 263 296 272 Q 296 281 289 288 L 280 297 L 280 297 Q 264 313 264 336 Q 264 359 280 375 L 301 395 L 301 395 Q 312 405 323 395 Q 333 384 323 373 L 303 352 L 303 352 Q 296 345 296 336 Q 296 327 303 320 L 312 311 L 312 311 Q 328 295 328 272 Q 328 249 312 233 L 291 213 L 291 213 Z" />
</svg>