<svg xmlns="http://www.w3.org/2000/svg" viewBox="0 0 512 512">
  <path d="M 227.25613 41.319298 Q 228.15439 31.438597 237.13684 27.845613 Q 247.01755 25.150877 253.30527 33.23509 L 454.51227 320.67368 L 454.51227 320.67368 Q 459.0035 327.85965 455.41052 335.04562 Q 451.81754 343.12982 442.83508 343.12982 L 241.62807 343.12982 L 241.62807 343.12982 Q 228.15439 342.23157 227.25613 328.7579 L 227.25613 41.319298 L 227.25613 41.319298 Z M 187.73334 114.077194 Q 197.61403 116.77193 198.51228 127.55088 L 198.51228 328.7579 L 198.51228 328.7579 Q 197.61403 342.23157 184.14035 343.12982 L 69.16491 343.12982 L 69.16491 343.12982 Q 61.0807 343.12982 56.589474 335.94385 Q 52.99649 328.7579 56.589474 321.57193 L 171.56491 120.364914 L 171.56491 120.364914 Q 177.85263 111.382454 187.73334 114.077194 L 187.73334 114.077194 Z M 2.694737 389.8386 Q 0 374.56842 16.16842 371.8737 L 495.83157 371.8737 L 495.83157 371.8737 Q 512 374.56842 509.30527 389.8386 L 505.71228 403.3123 L 505.71228 403.3123 Q 494.93332 441.0386 464.39297 463.49475 Q 434.7509 485.95087 395.22806 486.84912 L 116.77193 486.84912 L 116.77193 486.84912 Q 77.24912 485.95087 47.607018 463.49475 Q 17.066668 441.0386 6.2877192 403.3123 L 2.694737 389.8386 L 2.694737 389.8386 Z" />
</svg>