<svg xmlns="http://www.w3.org/2000/svg" viewBox="0 0 512 512">
  <path d="M 128 0 Q 101 1 83 19 L 83 19 L 83 19 Q 65 37 64 64 L 64 448 L 64 448 Q 65 475 83 493 Q 101 511 128 512 L 384 512 L 384 512 Q 411 511 429 493 Q 447 475 448 448 L 448 160 L 448 160 L 320 160 L 320 160 Q 306 160 297 151 Q 288 142 288 128 L 288 0 L 288 0 L 128 0 L 128 0 Z M 320 0 L 320 128 L 320 0 L 320 128 L 448 128 L 448 128 L 320 0 L 320 0 Z M 168 196 L 240 196 L 168 196 L 240 196 Q 265 197 282 214 Q 299 231 300 256 Q 300 275 289 290 Q 279 305 262 312 L 305 352 L 305 352 L 339 321 L 339 321 Q 353 310 367 322 Q 378 337 366 351 L 334 380 L 334 380 L 366 409 L 366 409 Q 378 423 367 438 Q 353 450 338 439 L 304 407 L 304 407 L 270 439 L 270 439 Q 255 450 241 438 Q 230 423 242 409 L 275 379 L 275 379 L 210 319 L 210 319 Q 209 317 208 316 Q 208 316 208 316 L 188 316 L 188 316 L 188 360 L 188 360 Q 186 378 168 380 Q 150 378 148 360 L 148 296 L 148 296 L 148 216 L 148 216 Q 150 198 168 196 L 168 196 Z M 240 276 Q 258 274 260 256 Q 258 238 240 236 L 188 236 L 188 236 L 188 276 L 188 276 L 240 276 L 240 276 Z" />
</svg>