<svg xmlns="http://www.w3.org/2000/svg" viewBox="0 0 512 512">
  <path d="M 160 0 Q 147 0 138 8 L 138 8 L 138 8 Q 129 17 128 29 L 114 198 L 114 198 Q 111 253 142 294 Q 172 336 224 348 L 224 448 L 224 448 L 176 448 L 176 448 Q 162 448 153 457 Q 144 466 144 480 Q 144 494 153 503 Q 162 512 176 512 L 256 512 L 336 512 Q 350 512 359 503 Q 368 494 368 480 Q 368 466 359 457 Q 350 448 336 448 L 288 448 L 288 448 L 288 348 L 288 348 Q 340 336 370 294 Q 401 253 398 198 L 384 29 L 384 29 Q 383 17 374 8 Q 365 0 352 0 L 330 0 L 330 0 Q 321 0 316 8 Q 312 15 316 23 L 330 52 L 330 52 Q 335 64 325 72 L 266 113 L 266 113 Q 257 120 260 132 L 292 213 L 292 213 Q 294 223 284 224 Q 280 224 277 221 L 188 118 L 188 118 Q 179 104 192 94 L 250 57 L 250 57 Q 262 48 255 34 L 237 7 L 237 7 Q 232 0 223 0 L 160 0 L 160 0 Z" />
</svg>