<svg xmlns="http://www.w3.org/2000/svg" viewBox="0 0 512 512">
  <path d="M 256 102.4 Q 208 103.2 173.6 132 L 173.6 132 L 173.6 132 Q 139.2 160.8 130.4 206.4 Q 123.2 204.8 115.2 204.8 Q 93.6 204.8 77.6 217.6 Q 84 145.6 133.6 99.2 Q 183.2 52.8 256 51.2 Q 328.8 52.8 378.4 99.2 Q 428 145.6 434.4 217.6 Q 418.4 204.8 396.8 204.8 Q 388.8 204.8 381.6 206.4 Q 372.8 160.8 338.4 132 Q 304 103.2 256 102.4 L 256 102.4 Z M 144 294.4 Q 153.6 304.8 153.6 320 Q 153.6 335.2 144 345.6 Q 153.6 356 153.6 371.2 Q 153.6 386.4 144 396.8 Q 153.6 407.2 153.6 422.4 Q 152.8 438.4 142.4 449.6 Q 131.2 460 115.2 460.8 Q 101.6 460.8 92 452.8 Q 81.6 444.8 78.4 432.8 Q 71.2 435.2 64 435.2 Q 48 434.4 36.8 424 Q 26.4 412.8 25.6 396.8 Q 25.6 389.6 28 382.4 Q 16 379.2 8 368.8 Q 0 359.2 0 345.6 Q 0 332 8 322.4 Q 16 312 28 308.8 Q 25.6 301.6 25.6 294.4 Q 26.4 278.4 36.8 267.2 Q 48 256.8 64 256 Q 71.2 256 78.4 258.4 Q 81.6 246.4 92 238.4 Q 101.6 230.4 115.2 230.4 Q 131.2 231.2 142.4 241.6 Q 152.8 252.8 153.6 268.8 Q 153.6 284 144 294.4 L 144 294.4 Z M 368 294.4 Q 358.4 284 358.4 268.8 Q 359.2 252.8 369.6 241.6 Q 380.8 231.2 396.8 230.4 Q 410.4 230.4 420 238.4 Q 430.4 246.4 433.6 258.4 Q 440.8 256 448 256 Q 464 256.8 475.2 267.2 Q 485.6 278.4 486.4 294.4 Q 486.4 301.6 484 308.8 Q 496 312 504 322.4 Q 512 332 512 345.6 Q 512 359.2 504 368.8 Q 496 379.2 484 382.4 Q 486.4 389.6 486.4 396.8 Q 485.6 412.8 475.2 424 Q 464 434.4 448 435.2 Q 440.8 435.2 433.6 432.8 Q 430.4 444.8 420 452.8 Q 410.4 460.8 396.8 460.8 Q 380.8 460 369.6 449.6 Q 359.2 438.4 358.4 422.4 Q 358.4 407.2 368 396.8 Q 358.4 386.4 358.4 371.2 Q 358.4 356 368 345.6 Q 358.4 335.2 358.4 320 Q 358.4 304.8 368 294.4 L 368 294.4 Z" />
</svg>