<svg xmlns="http://www.w3.org/2000/svg" viewBox="0 0 512 512">
  <path d="M 256 3.4068441 Q 279.3612 4.380228 286.1749 26.76806 L 309.53613 113.39924 L 309.53613 113.39924 L 383.5133 61.809887 L 383.5133 61.809887 Q 402.981 50.129276 421.47528 63.756653 Q 438.02283 79.330795 429.26236 100.74525 L 391.30038 182.5095 L 391.30038 182.5095 L 480.8517 190.29659 L 480.8517 190.29659 Q 503.23953 193.21674 509.07983 215.60457 Q 512 238.96577 491.55893 249.673 L 409.79468 287.63498 L 409.79468 287.63498 L 474.03802 350.90494 L 474.03802 350.90494 Q 488.6388 368.42584 478.90494 388.8669 Q 466.25095 408.3346 443.86313 403.46768 L 356.25854 380.10648 L 356.25854 380.10648 L 364.04562 469.6578 L 364.04562 469.6578 Q 365.019 493.019 343.60455 501.77948 Q 322.19012 508.59317 307.58936 490.09885 L 256 416.12167 L 256 416.12167 L 204.41064 490.09885 L 204.41064 490.09885 Q 189.80989 508.59317 168.39543 501.77948 Q 146.98099 493.019 147.95438 469.6578 L 155.74144 380.10648 L 155.74144 380.10648 L 68.13688 403.46768 L 68.13688 403.46768 Q 45.74905 408.3346 33.09506 388.8669 Q 23.361217 368.42584 38.93536 350.90494 L 102.20532 287.63498 L 102.20532 287.63498 L 20.441065 249.673 L 20.441065 249.673 Q 0 238.96577 2.9201522 215.60457 Q 7.787072 193.21674 31.148289 190.29659 L 120.69962 182.5095 L 120.69962 182.5095 L 82.73764 100.74525 L 82.73764 100.74525 Q 73.97719 79.330795 90.52471 63.756653 Q 109.01901 50.129276 128.4867 61.809887 L 202.46388 113.39924 L 202.46388 113.39924 L 225.82509 26.76806 L 225.82509 26.76806 Q 232.63878 4.380228 256 3.4068441 L 256 3.4068441 Z M 256 155.25475 L 251.13309 172.77567 L 256 155.25475 L 251.13309 172.77567 Q 247.23955 188.34981 231.6654 194.19011 Q 217.06464 199.05704 203.43726 190.29659 L 188.8365 179.58936 L 188.8365 179.58936 L 196.62358 196.13689 L 196.62358 196.13689 Q 202.46388 210.73764 194.6768 225.33841 Q 186.88974 238.96577 170.34221 240.91255 L 152.82129 241.88593 L 152.82129 241.88593 L 169.36882 249.673 L 169.36882 249.673 Q 182.9962 256.4867 186.88974 273.0342 Q 188.8365 288.60837 178.12927 300.28897 L 165.47528 312.94296 L 165.47528 312.94296 L 182.02281 308.07605 L 182.02281 308.07605 Q 197.59695 304.1825 210.25095 314.88974 Q 222.90494 324.62357 221.93156 341.1711 L 219.98479 358.69202 L 219.98479 358.69202 L 230.69202 344.09125 L 230.69202 344.09125 Q 239.45247 331.43726 256 330.46387 Q 271.57416 331.43726 281.30798 344.09125 L 292.0152 358.69202 L 292.0152 358.69202 L 290.06845 341.1711 L 290.06845 341.1711 Q 289.09506 324.62357 300.77567 314.88974 Q 313.42966 304.1825 329.0038 308.07605 L 346.52472 312.94296 L 346.52472 312.94296 L 333.87073 300.28897 L 333.87073 300.28897 Q 323.1635 288.60837 325.11026 273.0342 Q 328.03043 256.4867 342.63116 249.673 L 359.1787 241.88593 L 359.1787 241.88593 L 340.68442 240.91255 L 340.68442 240.91255 Q 325.11026 238.96577 316.34982 225.33841 Q 308.56274 210.73764 315.37643 196.13689 L 323.1635 179.58936 L 323.1635 179.58936 L 308.56274 190.29659 L 308.56274 190.29659 Q 294.93536 199.05704 279.3612 194.19011 Q 264.76047 188.34981 259.89352 172.77567 L 256 155.25475 L 256 155.25475 Z" />
</svg>