<svg xmlns="http://www.w3.org/2000/svg" viewBox="0 0 608 480">
    <path d="M 181 0 L 256 0 L 256 64 Q 256 78 265 87 Q 274 96 288 96 Q 302 96 311 87 Q 320 78 320 64 L 320 0 L 395 0 Q 416 0 432 12 Q 448 23 455 43 L 498 163 Q 481 160 464 160 Q 419 160 382 180 Q 344 200 320 235 L 320 192 Q 320 178 311 169 Q 302 160 288 160 Q 274 160 265 169 Q 256 178 256 192 L 256 256 Q 256 270 265 279 Q 274 288 288 288 Q 291 288 295 287 Q 288 311 288 336 Q 288 344 289 352 L 288 352 Q 274 352 265 361 Q 256 370 256 384 L 256 448 L 55 448 Q 31 447 16 432 Q 1 417 0 393 Q 0 384 3 375 L 121 43 Q 128 23 144 12 Q 161 0 181 0 L 181 0 Z M 320 336 Q 320 297 339 264 L 339 264 Q 358 231 392 211 Q 426 192 464 192 Q 502 192 536 211 Q 570 231 589 264 Q 608 297 608 336 Q 608 375 589 408 Q 570 441 536 461 Q 502 480 464 480 Q 426 480 392 461 Q 358 441 339 408 Q 320 375 320 336 L 320 336 Z M 531 293 Q 520 283 509 293 L 448 353 L 419 325 Q 408 315 397 325 Q 387 336 397 347 L 437 387 Q 448 397 459 387 L 531 315 Q 541 304 531 293 L 531 293 Z"/>
</svg>
