<svg xmlns="http://www.w3.org/2000/svg" viewBox="0 0 456 506">
    <path d="M 132 159 Q 133 127 149 96 L 149 96 Q 165 66 185 43 L 185 43 Q 205 20 218 8 Q 228 0 238 8 Q 251 20 271 43 Q 291 66 307 96 Q 323 127 324 159 Q 324 183 314 203 Q 338 202 361 215 Q 389 232 407 261 Q 425 290 435 319 Q 445 348 449 366 Q 451 378 439 383 Q 422 388 392 394 Q 362 400 328 398 Q 294 397 265 382 Q 240 367 228 342 Q 216 367 191 382 Q 162 397 128 398 Q 94 400 64 394 Q 33 388 17 383 Q 5 378 7 366 Q 10 348 21 319 Q 31 290 49 261 Q 67 232 95 215 Q 118 202 142 202 Q 132 183 132 159 L 132 159 Z M 268 239 Q 267 216 248 204 Q 228 194 208 204 Q 189 216 188 239 Q 189 262 208 274 Q 228 284 248 274 Q 267 262 268 239 L 268 239 Z M 356 159 L 356 159 Q 356 140 351 122 Q 380 113 402 112 Q 423 111 434 112 Q 446 114 451 123 Q 456 133 452 143 Q 448 154 437 171 Q 426 188 404 208 Q 392 196 377 188 L 377 188 Q 366 181 355 177 Q 356 168 356 159 L 356 159 Z M 105 122 Q 100 140 100 159 Q 100 168 101 177 Q 90 181 79 188 L 79 188 Q 64 196 52 208 Q 30 188 19 171 Q 8 154 4 143 Q 0 132 5 123 Q 10 114 22 112 Q 33 110 54 112 Q 76 113 105 122 L 105 122 Z M 178 422 Q 193 417 207 409 Q 218 402 228 394 Q 238 403 249 409 Q 263 417 278 422 Q 263 477 247 496 Q 240 506 228 506 Q 217 506 209 496 Q 194 476 178 422 L 178 422 Z"/>
</svg>
