<svg xmlns="http://www.w3.org/2000/svg" viewBox="0 0 576 516">
    <path d="M 80 18 Q 80 4 66 1 Q 53 0 48 13 L 1 220 Q 0 223 0 227 Q 0 240 9 248 Q 17 257 30 257 L 33 257 Q 46 257 55 248 Q 64 240 65 227 L 80 18 L 80 18 Z M 320 353 L 320 489 Q 321 503 332 510 Q 344 516 357 510 L 501 422 Q 515 412 511 394 Q 483 304 480 209 Q 479 166 455 131 Q 430 96 395 68 Q 360 40 327 20 Q 325 19 323 17 Q 322 17 321 16 L 321 16 Q 305 4 288 1 Q 271 4 255 16 Q 254 17 253 17 Q 251 19 249 20 Q 216 40 181 68 Q 146 96 121 131 Q 97 166 96 209 Q 93 304 65 394 Q 61 411 76 422 L 220 510 Q 232 516 244 510 Q 255 503 256 489 L 256 297 L 256 297 L 256 269 Q 255 257 245 253 L 173 229 Q 161 225 160 212 Q 162 195 179 193 L 397 193 Q 414 195 416 212 Q 415 225 403 229 L 331 253 Q 321 257 320 269 L 320 353 L 320 353 L 320 353 Z M 510 1 Q 496 4 496 18 L 511 227 Q 512 240 521 248 Q 530 257 543 257 L 546 257 Q 559 257 567 248 Q 576 240 576 227 Q 576 223 575 220 L 528 13 Q 523 0 510 1 L 510 1 Z"/>
</svg>
