<svg xmlns="http://www.w3.org/2000/svg" viewBox="0 0 512 512">
  <path d="M 96 56 Q 97 32 112 16 L 112 16 L 112 16 Q 128 1 152 0 L 371 0 L 371 0 Q 394 0 410 16 L 496 102 L 496 102 Q 512 118 512 141 L 512 360 L 512 360 Q 511 384 496 400 Q 480 415 456 416 L 152 416 L 152 416 Q 128 415 112 400 Q 97 384 96 360 L 96 56 L 96 56 Z M 192 64 Q 178 64 169 73 L 169 73 L 169 73 Q 160 82 160 96 L 160 128 L 160 128 Q 160 142 169 151 Q 178 160 192 160 L 352 160 L 352 160 Q 366 160 375 151 Q 384 142 384 128 L 384 96 L 384 96 Q 384 82 375 73 Q 366 64 352 64 L 192 64 L 192 64 Z M 368 288 Q 367 252 336 233 Q 304 215 272 233 Q 241 252 240 288 Q 241 324 272 343 Q 304 361 336 343 Q 367 324 368 288 L 368 288 Z M 48 120 L 48 376 L 48 120 L 48 376 Q 49 413 74 438 Q 99 463 136 464 L 392 464 L 392 464 Q 414 466 416 488 Q 414 510 392 512 L 136 512 L 136 512 Q 78 511 40 472 Q 1 434 0 376 L 0 120 L 0 120 Q 2 98 24 96 Q 46 98 48 120 L 48 120 Z" />
</svg>