<svg xmlns="http://www.w3.org/2000/svg" viewBox="0 0 512 512">
  <path d="M 193.95419847328245 99.66412213740458 Q 196.8854961832061 83.05343511450381 214.4732824427481 75.23664122137404 Q 234.99236641221373 64.4885496183206 274.0763358778626 70.35114503816794 Q 281.89312977099235 71.32824427480917 296.5496183206107 74.25954198473282 Q 310.2290076335878 78.16793893129771 317.0687022900763 79.14503816793894 Q 329.7709923664122 83.05343511450381 341.4961832061069 77.19083969465649 Q 352.2442748091603 70.35114503816794 356.1526717557252 57.64885496183206 Q 359.08396946564886 44.94656488549618 353.22137404580155 34.19847328244275 Q 347.3587786259542 23.450381679389313 334.6564885496183 19.541984732824428 Q 324.8854961832061 16.610687022900763 309.2519083969466 13.679389312977099 Q 292.6412213740458 9.770992366412214 284.82442748091603 8.793893129770993 Q 232.06106870229007 0 189.06870229007635 17.587786259541986 Q 143.14503816793894 38.10687022900763 132.3969465648855 90.87022900763358 Q 131.4198473282443 90.87022900763358 131.4198473282443 91.8473282442748 Q 128.4885496183206 121.16030534351145 140.21374045801528 144.61068702290078 Q 151.93893129770993 168.06106870229007 171.48091603053436 180.76335877862596 Q 171.48091603053436 181.74045801526717 172.45801526717557 181.74045801526717 Q 172.45801526717557 181.74045801526717 173.4351145038168 182.7175572519084 Q 140.21374045801528 202.25954198473283 132.3969465648855 243.29770992366412 Q 132.3969465648855 243.29770992366412 132.3969465648855 243.29770992366412 Q 132.3969465648855 244.27480916030535 132.3969465648855 245.25190839694656 Q 128.4885496183206 273.587786259542 140.21374045801528 297.0381679389313 Q 152.91603053435114 319.51145038167937 171.48091603053436 331.23664122137404 Q 188.0916030534351 341.98473282442745 207.63358778625954 349.80152671755724 Q 228.15267175572518 356.6412213740458 245.74045801526717 361.5267175572519 L 245.74045801526717 361.5267175572519 L 245.74045801526717 361.5267175572519 L 248.67175572519085 362.5038167938931 L 248.67175572519085 362.5038167938931 Q 288.7328244274809 373.2519083969466 307.2977099236641 385.9541984732824 Q 315.1145038167939 391.8167938931298 316.0916030534351 396.7022900763359 Q 319.0229007633588 400.6106870229008 317.0687022900763 414.29007633587787 Q 315.1145038167939 428.9465648854962 296.5496183206107 437.74045801526717 Q 276.03053435114504 446.53435114503816 235.96946564885496 441.64885496183206 Q 226.19847328244273 439.69465648854964 212.51908396946564 435.78625954198475 Q 197.86259541984734 430.90076335877865 183.206106870229 426.01526717557255 L 183.206106870229 426.01526717557255 L 183.206106870229 426.01526717557255 Q 179.29770992366412 424.0610687022901 175.38931297709922 423.08396946564886 Q 173.4351145038168 422.10687022900765 171.48091603053436 422.10687022900765 Q 158.77862595419847 418.19847328244276 148.03053435114504 423.08396946564886 Q 136.3053435114504 428.9465648854962 132.3969465648855 441.64885496183206 Q 128.4885496183206 454.35114503816794 133.3740458015267 465.09923664122135 Q 139.23664122137404 476.82442748091603 151.93893129770993 480.7328244274809 Q 154.87022900763358 481.70992366412213 158.77862595419847 483.6641221374046 Q 159.75572519083968 483.6641221374046 160.73282442748092 483.6641221374046 Q 161.70992366412213 484.6412213740458 163.66412213740458 484.6412213740458 Q 177.34351145038167 489.5267175572519 194.93129770992365 495.3893129770992 Q 212.51908396946564 501.2519083969466 226.19847328244273 503.206106870229 L 226.19847328244273 503.206106870229 L 226.19847328244273 503.206106870229 L 227.17557251908397 503.206106870229 L 227.17557251908397 503.206106870229 Q 278.9618320610687 512 321.9541984732824 494.412213740458 Q 367.87786259541986 475.8473282442748 378.62595419847327 425.0381679389313 Q 383.51145038167937 396.7022900763359 373.74045801526717 372.2748091603053 Q 363.96946564885496 350.77862595419845 347.3587786259542 338.0763358778626 Q 371.78625954198475 317.55725190839695 378.62595419847327 280.42748091603056 Q 383.51145038167937 252.0916030534351 373.74045801526717 226.68702290076337 Q 363.96946564885496 202.25954198473283 344.42748091603056 188.5801526717557 Q 327.8167938931298 175.87786259541986 307.2977099236641 168.06106870229007 Q 286.77862595419845 160.24427480916032 269.19083969465646 154.38167938931298 L 267.23664122137404 154.38167938931298 L 267.23664122137404 154.38167938931298 Q 227.17557251908397 142.65648854961833 207.63358778625954 129.95419847328245 Q 198.83969465648855 123.1145038167939 195.9083969465649 117.25190839694656 Q 192.9770992366412 112.36641221374046 193.95419847328245 99.66412213740458 L 193.95419847328245 99.66412213740458 Z M 269.19083969465646 303.87786259541986 Q 268.21374045801525 302.90076335877865 268.21374045801525 302.90076335877865 L 268.21374045801525 302.90076335877865 L 268.21374045801525 302.90076335877865 Q 268.21374045801525 302.90076335877865 268.21374045801525 302.90076335877865 L 267.23664122137404 302.90076335877865 L 267.23664122137404 302.90076335877865 Q 227.17557251908397 292.1526717557252 206.65648854961833 279.4503816793893 Q 197.86259541984734 273.587786259542 195.9083969465649 268.7022900763359 Q 192.9770992366412 264.793893129771 193.95419847328245 253.06870229007635 Q 195.9083969465649 239.38931297709922 213.49618320610688 230.59541984732823 Q 234.99236641221373 221.80152671755727 274.0763358778626 226.68702290076337 L 290.68702290076334 229.61832061068702 L 290.68702290076334 229.61832061068702 Q 299.48091603053433 233.5267175572519 306.3206106870229 238.41221374045801 Q 314.1374045801527 244.27480916030535 316.0916030534351 250.13740458015266 Q 319.0229007633588 256 317.0687022900763 270.6564885496183 Q 315.1145038167939 293.1297709923664 280.91603053435114 300.9465648854962 L 269.19083969465646 303.87786259541986 L 269.19083969465646 303.87786259541986 Z" />
</svg>