<svg xmlns="http://www.w3.org/2000/svg" viewBox="0 0 640 416">
    <path d="M 153 104 L 142 161 Q 152 160 163 160 L 174 160 Q 234 160 284 195 L 562 390 L 598 414 Q 616 410 628 395 Q 640 380 640 360 Q 639 322 614 293 Q 589 264 558 244 Q 527 224 505 215 L 474 52 Q 469 29 452 15 Q 435 0 411 0 L 408 0 Q 400 0 392 2 L 199 54 Q 161 65 153 104 L 153 104 Z M 0 352 Q 1 379 19 397 L 19 397 Q 37 415 64 416 L 544 416 L 265 221 Q 224 192 173 192 L 163 192 Q 117 192 79 216 Q 41 239 20 280 L 14 293 Q 0 320 0 350 L 0 352 L 0 352 Z"/>
</svg>
