<svg xmlns="http://www.w3.org/2000/svg" viewBox="0 0 448 448">
    <path d="M 0 64 Q 1 37 19 19 L 19 19 Q 37 1 64 0 L 384 0 Q 411 1 429 19 Q 447 37 448 64 L 448 288 L 336 288 Q 316 289 302 302 Q 289 316 288 336 L 288 448 L 64 448 Q 37 447 19 429 Q 1 411 0 384 L 0 64 L 0 64 Z M 403 320 L 448 320 L 416 352 L 352 416 L 320 448 L 320 403 L 320 336 Q 321 321 336 320 L 403 320 L 403 320 Z M 192 112 L 192 160 L 144 160 Q 129 161 128 176 L 128 208 Q 129 223 144 224 L 192 224 L 192 272 Q 193 287 208 288 L 240 288 Q 255 287 256 272 L 256 224 L 304 224 Q 319 223 320 208 L 320 176 Q 319 161 304 160 L 256 160 L 256 112 Q 255 97 240 96 L 208 96 Q 193 97 192 112 L 192 112 Z"/>
</svg>
