<svg xmlns="http://www.w3.org/2000/svg" viewBox="0 0 512 512">
  <path d="M 20.303448 60.910343 Q 31.77931 57.37931 41.489655 61.793102 L 41.489655 61.793102 L 41.489655 61.793102 Q 52.08276 66.206894 56.49655 77.68276 L 153.6 337.2138 L 153.6 337.2138 L 228.63448 79.44827 L 228.63448 79.44827 Q 235.69655 60.027588 256 59.14483 Q 276.30344 60.027588 283.3655 79.44827 L 358.4 337.2138 L 358.4 337.2138 L 455.50345 77.68276 L 455.50345 77.68276 Q 459.91724 66.206894 470.51035 61.793102 Q 480.2207 57.37931 491.69656 60.910343 Q 503.17242 65.324135 507.5862 75.917244 Q 512 85.62759 508.46896 97.10345 L 381.3517 436.08276 L 381.3517 436.08276 Q 373.4069 454.6207 353.9862 454.6207 Q 333.68277 452.85516 327.50345 434.31723 L 256 188.02759 L 256 188.02759 L 184.49655 434.31723 L 184.49655 434.31723 Q 177.43448 452.85516 158.0138 454.6207 Q 138.59311 454.6207 130.64827 436.08276 L 3.5310345 97.10345 L 3.5310345 97.10345 Q 0 85.62759 4.413793 75.917244 Q 8.827586 65.324135 20.303448 60.910343 L 20.303448 60.910343 Z" />
</svg>