<svg xmlns="http://www.w3.org/2000/svg" viewBox="0 0 640 512">
    <path d="M 48 0 Q 28 1 14 14 L 14 14 Q 1 28 0 48 L 0 464 Q 1 484 14 498 Q 28 511 48 512 L 144 512 L 144 432 Q 145 412 158 398 Q 172 385 192 384 Q 212 385 226 398 Q 239 412 240 432 L 240 512 L 336 512 Q 359 511 373 494 Q 322 444 320 368 Q 320 327 337 292 Q 354 257 384 232 L 384 48 Q 383 28 370 14 Q 356 1 336 0 L 48 0 L 48 0 Z M 64 240 Q 65 225 80 224 L 112 224 Q 127 225 128 240 L 128 272 Q 127 287 112 288 L 80 288 Q 65 287 64 272 L 64 240 L 64 240 Z M 176 224 L 208 224 Q 223 225 224 240 L 224 272 Q 223 287 208 288 L 176 288 Q 161 287 160 272 L 160 240 Q 161 225 176 224 L 176 224 Z M 256 240 Q 257 225 272 224 L 304 224 Q 319 225 320 240 L 320 272 Q 319 287 304 288 L 272 288 Q 257 287 256 272 L 256 240 L 256 240 Z M 80 96 L 112 96 Q 127 97 128 112 L 128 144 Q 127 159 112 160 L 80 160 Q 65 159 64 144 L 64 112 Q 65 97 80 96 L 80 96 Z M 160 112 Q 161 97 176 96 L 208 96 Q 223 97 224 112 L 224 144 Q 223 159 208 160 L 176 160 Q 161 159 160 144 L 160 112 L 160 112 Z M 272 96 L 304 96 Q 319 97 320 112 L 320 144 Q 319 159 304 160 L 272 160 Q 257 159 256 144 L 256 112 Q 257 97 272 96 L 272 96 Z M 640 368 Q 640 329 621 296 L 621 296 Q 602 263 568 243 Q 534 224 496 224 Q 458 224 424 243 Q 390 263 371 296 Q 352 329 352 368 Q 352 407 371 440 Q 390 473 424 493 Q 458 512 496 512 Q 534 512 568 493 Q 602 473 621 440 Q 640 407 640 368 L 640 368 Z M 563 325 Q 573 336 563 347 L 491 419 Q 480 429 469 419 L 429 379 Q 419 368 429 357 Q 440 347 451 357 L 480 385 L 541 325 Q 552 315 563 325 L 563 325 Z"/>
</svg>
