<svg xmlns="http://www.w3.org/2000/svg" viewBox="0 0 448 448">
    <path d="M 16 32 Q 16 18 25 9 L 25 9 Q 34 0 48 0 L 144 0 Q 158 0 167 9 Q 176 18 176 32 Q 176 46 167 55 Q 158 64 144 64 L 128 64 L 128 192 Q 129 233 156 260 Q 183 287 224 288 Q 265 287 292 260 Q 319 233 320 192 L 320 64 L 304 64 Q 290 64 281 55 Q 272 46 272 32 Q 272 18 281 9 Q 290 0 304 0 L 400 0 Q 414 0 423 9 Q 432 18 432 32 Q 432 46 423 55 Q 414 64 400 64 L 384 64 L 384 192 Q 382 260 337 305 Q 292 350 224 352 Q 156 350 111 305 Q 66 260 64 192 L 64 64 L 48 64 Q 34 64 25 55 Q 16 46 16 32 L 16 32 Z M 0 416 Q 0 402 9 393 L 9 393 Q 18 384 32 384 L 416 384 Q 430 384 439 393 Q 448 402 448 416 Q 448 430 439 439 Q 430 448 416 448 L 32 448 Q 18 448 9 439 Q 0 430 0 416 L 0 416 Z"/>
</svg>
