<svg xmlns="http://www.w3.org/2000/svg" viewBox="0 0 512 512">
  <path d="M 128 76.8 Q 106.4 77.6 92 92 L 92 92 L 92 92 Q 77.6 106.4 76.8 128 L 76.8 166.4 L 76.8 166.4 Q 78.4 177.6 89.6 181.6 Q 113.6 190.4 115.2 217.6 Q 113.6 244.8 89.6 253.6 Q 78.4 257.6 76.8 268.8 L 76.8 307.2 L 76.8 307.2 Q 77.6 328.8 92 343.2 Q 106.4 357.6 128 358.4 L 460.8 358.4 L 460.8 358.4 Q 482.4 357.6 496.8 343.2 Q 511.2 328.8 512 307.2 L 512 268.8 L 512 268.8 Q 510.4 257.6 499.2 253.6 Q 475.2 244.8 473.6 217.6 Q 475.2 190.4 499.2 181.6 Q 510.4 177.6 512 166.4 L 512 128 L 512 128 Q 511.2 106.4 496.8 92 Q 482.4 77.6 460.8 76.8 L 128 76.8 L 128 76.8 Z M 38.4 147.2 Q 36.8 129.6 19.2 128 Q 1.6 129.6 0 147.2 L 0 339.2 L 0 339.2 Q 0.8 380 28 407.2 Q 55.2 434.4 96 435.2 L 416 435.2 L 416 435.2 Q 433.6 433.6 435.2 416 Q 433.6 398.4 416 396.8 L 96 396.8 L 96 396.8 Q 71.2 396 55.2 380 Q 39.2 364 38.4 339.2 L 38.4 147.2 L 38.4 147.2 Z" />
</svg>