<svg xmlns="http://www.w3.org/2000/svg" viewBox="0 0 512 512">
  <path d="M 285.51984 41.134216 Q 308.7486 65.33081 345.5274 85.65595 L 345.5274 85.65595 L 345.5274 85.65595 Q 381.33838 106.94896 413.2779 115.65974 Q 453.92816 126.30624 481.99622 162.1172 Q 512 204.70322 505.22495 254.06427 Q 497.48206 302.45746 455.8639 335.36484 Q 429.73157 354.7221 399.72778 358.59357 Q 371.65973 362.46503 342.6238 379.88657 Q 314.55576 397.30814 300.0378 421.50473 Q 265.1947 477.64084 205.18715 494.0945 Q 146.14745 509.58035 88.075615 478.6087 Q 31.939508 443.7656 15.485823 384.7259 Q 0 324.71832 30.971645 266.6465 Q 49.361057 234.707 60.00756 194.05672 Q 69.6862 153.40643 73.557655 116.6276 Q 76.46125 72.10586 110.33649 38.230625 Q 149.05104 2.4196599 199.37996 3.3875237 Q 248.74103 4.3553877 285.51984 41.134216 L 285.51984 41.134216 Z M 335.8488 235.67487 Q 335.8488 206.63895 321.3308 181.47449 L 321.3308 181.47449 L 321.3308 181.47449 Q 306.81287 156.31001 281.6484 141.79205 Q 256.48392 127.2741 227.44801 127.2741 Q 198.4121 127.2741 173.24763 141.79205 Q 148.08318 156.31001 133.56522 181.47449 Q 119.04726 206.63895 119.04726 235.67487 Q 119.04726 264.7108 133.56522 289.87524 Q 148.08318 315.0397 173.24763 329.55765 Q 198.4121 344.07562 227.44801 344.07562 Q 256.48392 344.07562 281.6484 329.55765 Q 306.81287 315.0397 321.3308 289.87524 Q 335.8488 264.7108 335.8488 235.67487 L 335.8488 235.67487 Z M 180.99055 227.93195 Q 180.02269 242.4499 165.50473 243.41777 Q 150.98677 242.4499 150.0189 227.93195 Q 150.98677 197.92816 170.34404 178.57089 Q 189.70132 159.21361 219.70511 158.24574 Q 234.22307 159.21361 235.19093 173.73157 Q 234.22307 188.24953 219.70511 189.21739 Q 203.25142 189.21739 192.60492 200.83176 Q 180.99055 211.47826 180.99055 227.93195 L 180.99055 227.93195 Z" />
</svg>