<svg xmlns="http://www.w3.org/2000/svg" viewBox="0 0 512 512">
  <path d="M 503 55 Q 512 45 512 32 L 512 32 L 512 32 Q 512 19 503 9 Q 493 0 480 0 Q 467 0 457 9 L 336 131 L 336 131 L 336 80 L 336 80 Q 336 66 327 57 Q 318 48 304 48 Q 290 48 281 57 Q 272 66 272 80 L 272 208 L 272 208 Q 272 222 281 231 Q 290 240 304 240 L 432 240 L 432 240 Q 446 240 455 231 Q 464 222 464 208 Q 464 194 455 185 Q 446 176 432 176 L 381 176 L 381 176 L 503 55 L 503 55 Z M 80 272 Q 66 272 57 281 L 57 281 L 57 281 Q 48 290 48 304 Q 48 318 57 327 Q 66 336 80 336 L 131 336 L 131 336 L 9 457 L 9 457 Q 0 467 0 480 Q 0 493 9 503 Q 19 512 32 512 Q 45 512 55 503 L 176 381 L 176 381 L 176 432 L 176 432 Q 176 446 185 455 Q 194 464 208 464 Q 222 464 231 455 Q 240 446 240 432 L 240 304 L 240 304 Q 240 290 231 281 Q 222 272 208 272 L 80 272 L 80 272 Z" />
</svg>