<svg xmlns="http://www.w3.org/2000/svg" viewBox="0 0 640 526">
    <path d="M 464 513 Q 479 497 466 479 L 424 430 L 424 375 Q 424 366 419 360 L 352 273 L 352 273 L 485 395 Q 515 424 551 423 Q 586 421 613 396 Q 639 370 640 328 Q 639 291 617 265 Q 595 239 561 233 L 408 210 L 448 169 Q 460 155 452 139 L 429 97 L 467 46 Q 478 27 462 12 Q 444 0 429 16 L 381 80 Q 372 93 380 108 L 402 147 L 352 197 L 352 159 Q 350 135 328 128 L 328 71 Q 327 64 320 63 Q 313 64 312 71 L 312 128 Q 290 135 288 159 L 288 197 L 238 147 L 260 108 Q 268 93 259 80 L 211 16 Q 196 0 177 12 Q 162 27 173 46 L 211 97 L 187 139 Q 179 155 191 169 L 232 209 L 79 233 Q 45 239 23 265 Q 1 291 0 328 Q 1 370 27 396 Q 54 421 89 423 Q 125 424 155 395 L 288 273 L 288 273 L 222 360 Q 216 366 216 375 L 216 430 L 174 479 Q 162 497 176 513 Q 194 526 210 511 L 258 455 Q 264 448 264 439 L 264 383 L 288 352 L 288 415 Q 288 428 297 437 Q 306 446 320 447 Q 334 446 343 437 Q 352 428 352 415 L 352 352 L 376 383 L 376 439 Q 376 448 382 455 L 430 511 Q 446 526 464 513 L 464 513 Z"/>
</svg>
