<svg xmlns="http://www.w3.org/2000/svg" viewBox="0 0 512 512">
  <path d="M 170.17342 13.811175 Q 153.4027 0 136.63199 13.811175 Q 122.82081 30.581888 136.63199 47.3526 L 190.89017 101.61079 L 190.89017 101.61079 L 82.373795 101.61079 L 82.373795 101.61079 Q 48.83237 102.597305 26.142582 124.300575 Q 4.4393063 146.99037 3.4527938 180.5318 L 3.4527938 433.079 L 3.4527938 433.079 Q 4.4393063 466.62042 26.142582 489.3102 Q 48.83237 511.0135 82.373795 512 L 429.6262 512 L 429.6262 512 Q 463.16763 511.0135 485.85742 489.3102 Q 507.5607 466.62042 508.5472 433.079 L 508.5472 180.5318 L 508.5472 180.5318 Q 507.5607 146.99037 485.85742 124.300575 Q 463.16763 102.597305 429.6262 101.61079 L 321.10983 101.61079 L 321.10983 101.61079 L 375.368 47.3526 L 375.368 47.3526 Q 389.1792 30.581888 375.368 13.811175 Q 358.5973 0 341.8266 13.811175 L 256 99.637764 L 256 99.637764 L 170.17342 13.811175 L 170.17342 13.811175 Z M 421.7341 235.77649 Q 423.70712 214.07321 445.4104 212.10019 Q 467.11368 214.07321 469.0867 235.77649 Q 467.11368 257.47977 445.4104 259.4528 Q 423.70712 257.47977 421.7341 235.77649 L 421.7341 235.77649 Z M 445.4104 291.0212 Q 467.11368 292.99423 469.0867 314.6975 Q 467.11368 336.40076 445.4104 338.3738 Q 423.70712 336.40076 421.7341 314.6975 Q 423.70712 292.99423 445.4104 291.0212 L 445.4104 291.0212 Z M 66.58959 227.8844 Q 67.57611 201.24855 85.333336 183.49133 L 85.333336 183.49133 L 85.333336 183.49133 Q 103.09056 165.7341 129.7264 164.74759 L 319.1368 164.74759 L 319.1368 164.74759 Q 345.77264 165.7341 363.52988 183.49133 Q 381.28708 201.24855 382.2736 227.8844 L 382.2736 385.7264 L 382.2736 385.7264 Q 381.28708 412.36224 363.52988 430.11945 Q 345.77264 447.87668 319.1368 448.8632 L 129.7264 448.8632 L 129.7264 448.8632 Q 103.09056 447.87668 85.333336 430.11945 Q 67.57611 412.36224 66.58959 385.7264 L 66.58959 227.8844 L 66.58959 227.8844 Z" />
</svg>