<svg xmlns="http://www.w3.org/2000/svg" viewBox="0 0 512 512">
  <path d="M 272 96 Q 212 97 167 131 L 167 131 L 167 131 Q 122 164 104 219 Q 155 193 216 192 L 304 192 L 304 192 Q 319 193 320 208 Q 319 223 304 224 L 288 224 L 216 224 Q 216 224 216 224 Q 216 224 216 224 Q 191 224 168 229 Q 129 238 96 260 Q 96 260 96 260 Q 52 290 26 336 Q 1 383 0 440 L 0 456 L 0 456 Q 2 478 24 480 Q 46 478 48 456 L 48 440 L 48 440 Q 50 365 102 317 Q 118 375 164 411 Q 210 447 272 448 L 273 448 L 273 448 Q 340 447 394 408 Q 448 369 479 303 Q 511 238 512 157 Q 512 92 491 37 Q 489 32 483 32 Q 478 32 475 37 Q 460 64 434 80 Q 408 96 376 96 L 272 96 L 272 96 Z" />
</svg>