<svg xmlns="http://www.w3.org/2000/svg" viewBox="0 0 512 512">
  <path d="M 178.92044 255.20125 Q 206.87675 255.20125 230.04056 241.62247 L 230.04056 241.62247 L 230.04056 241.62247 Q 253.20436 228.04369 267.5819 204.08112 Q 281.16068 180.11856 281.16068 152.961 Q 281.16068 125.80343 267.5819 101.84087 Q 253.20436 77.87832 230.04056 64.29953 Q 206.87675 50.72075 178.92044 50.72075 Q 150.96411 50.72075 127.80031 64.29953 Q 104.636505 77.87832 90.25897 101.84087 Q 76.68018 125.80343 76.68018 152.961 Q 76.68018 180.11856 90.25897 204.08112 Q 104.636505 228.04369 127.80031 241.62247 Q 150.96411 255.20125 178.92044 255.20125 L 178.92044 255.20125 Z M 142.17784 293.54135 Q 82.271454 295.13885 41.535103 335.07645 L 41.535103 335.07645 L 41.535103 335.07645 Q 1.5975039 375.8128 0 435.71918 Q 0 446.10297 7.1887674 452.49298 Q 13.578783 459.68173 23.962559 459.68173 L 333.87833 459.68173 L 333.87833 459.68173 Q 336.27457 459.68173 338.67084 459.68173 Q 293.14197 424.53665 275.56943 380.60532 Q 257.19812 335.87518 255.60062 299.1326 Q 236.43057 293.54135 215.66302 293.54135 L 142.17784 293.54135 L 142.17784 293.54135 Z M 388.9922 231.2387 L 293.14197 269.5788 L 388.9922 231.2387 L 293.14197 269.5788 Q 281.95944 274.3713 281.16068 287.15134 Q 280.36194 313.51013 289.94696 346.25897 Q 298.73322 379.0078 321.89703 409.36038 Q 345.8596 439.71295 388.9922 458.08423 Q 396.18097 461.27927 403.36972 458.08423 Q 446.50235 439.71295 470.4649 409.36038 Q 493.6287 379.0078 502.41498 346.25897 Q 512 313.51013 511.20123 287.15134 Q 510.4025 274.3713 499.21997 269.5788 L 403.36972 231.2387 L 403.36972 231.2387 Q 396.18097 228.04369 388.9922 231.2387 L 388.9922 231.2387 Z M 472.0624 299.93137 Q 470.4649 331.88144 453.6911 364.63028 L 453.6911 364.63028 L 453.6911 364.63028 Q 436.11856 398.17786 396.18097 419.74414 L 396.18097 269.5788 L 396.18097 269.5788 L 472.0624 299.93137 L 472.0624 299.93137 Z" />
</svg>