<svg xmlns="http://www.w3.org/2000/svg" viewBox="0 0 512 512">
  <path d="M 229.71428571428572 392 Q 241.14285714285714 402.2857142857143 256 402.2857142857143 L 256 402.2857142857143 L 256 402.2857142857143 Q 270.85714285714283 402.2857142857143 282.2857142857143 392 L 501.7142857142857 172.57142857142858 L 501.7142857142857 172.57142857142858 Q 512 161.14285714285714 512 146.28571428571428 Q 512 131.42857142857142 501.7142857142857 120 Q 490.2857142857143 109.71428571428571 475.42857142857144 109.71428571428571 Q 460.57142857142856 109.71428571428571 449.14285714285717 120 L 256 314.2857142857143 L 256 314.2857142857143 L 62.857142857142854 120 L 62.857142857142854 120 Q 51.42857142857143 109.71428571428571 36.57142857142857 109.71428571428571 Q 21.714285714285715 109.71428571428571 10.285714285714286 120 Q 0 131.42857142857142 0 146.28571428571428 Q 0 161.14285714285714 10.285714285714286 172.57142857142858 L 229.71428571428572 392 L 229.71428571428572 392 Z" />
</svg>