<svg xmlns="http://www.w3.org/2000/svg" viewBox="0 0 512 512">
  <path d="M 36.57143 292.57144 Q 20.571428 292.57144 10.285714 302.85715 L 10.285714 302.85715 L 10.285714 302.85715 Q 0 313.14285 0 329.14285 Q 0 345.14285 10.285714 355.42856 Q 20.571428 365.7143 36.57143 365.7143 L 475.42856 365.7143 L 475.42856 365.7143 Q 491.42856 365.7143 501.7143 355.42856 Q 512 345.14285 512 329.14285 Q 512 313.14285 501.7143 302.85715 Q 491.42856 292.57144 475.42856 292.57144 L 36.57143 292.57144 L 36.57143 292.57144 Z M 36.57143 146.28572 Q 20.571428 146.28572 10.285714 156.57143 L 10.285714 156.57143 L 10.285714 156.57143 Q 0 166.85715 0 182.85715 Q 0 198.85715 10.285714 209.14285 Q 20.571428 219.42857 36.57143 219.42857 L 475.42856 219.42857 L 475.42856 219.42857 Q 491.42856 219.42857 501.7143 209.14285 Q 512 198.85715 512 182.85715 Q 512 166.85715 501.7143 156.57143 Q 491.42856 146.28572 475.42856 146.28572 L 36.57143 146.28572 L 36.57143 146.28572 Z" />
</svg>