<svg xmlns="http://www.w3.org/2000/svg" viewBox="0 0 512 512">
  <path d="M 420.57142857142856 54.857142857142854 L 457.14285714285717 54.857142857142854 L 420.57142857142856 54.857142857142854 L 457.14285714285717 54.857142857142854 L 457.14285714285717 91.42857142857143 L 457.14285714285717 91.42857142857143 L 420.57142857142856 91.42857142857143 L 420.57142857142856 91.42857142857143 L 420.57142857142856 54.857142857142854 L 420.57142857142856 54.857142857142854 Z M 402.2857142857143 0 Q 386.2857142857143 0 376 10.285714285714286 L 376 10.285714285714286 L 376 10.285714285714286 Q 365.7142857142857 20.571428571428573 365.7142857142857 36.57142857142857 L 146.28571428571428 36.57142857142857 L 146.28571428571428 36.57142857142857 Q 146.28571428571428 20.571428571428573 136 10.285714285714286 Q 125.71428571428571 0 109.71428571428571 0 L 36.57142857142857 0 L 36.57142857142857 0 Q 20.571428571428573 0 10.285714285714286 10.285714285714286 Q 0 20.571428571428573 0 36.57142857142857 L 0 109.71428571428571 L 0 109.71428571428571 Q 0 125.71428571428571 10.285714285714286 136 Q 20.571428571428573 146.28571428571428 36.57142857142857 146.28571428571428 L 36.57142857142857 365.7142857142857 L 36.57142857142857 365.7142857142857 Q 20.571428571428573 365.7142857142857 10.285714285714286 376 Q 0 386.2857142857143 0 402.2857142857143 L 0 475.42857142857144 L 0 475.42857142857144 Q 0 491.42857142857144 10.285714285714286 501.7142857142857 Q 20.571428571428573 512 36.57142857142857 512 L 109.71428571428571 512 L 109.71428571428571 512 Q 125.71428571428571 512 136 501.7142857142857 Q 146.28571428571428 491.42857142857144 146.28571428571428 475.42857142857144 L 365.7142857142857 475.42857142857144 L 365.7142857142857 475.42857142857144 Q 365.7142857142857 491.42857142857144 376 501.7142857142857 Q 386.2857142857143 512 402.2857142857143 512 L 475.42857142857144 512 L 475.42857142857144 512 Q 491.42857142857144 512 501.7142857142857 501.7142857142857 Q 512 491.42857142857144 512 475.42857142857144 L 512 402.2857142857143 L 512 402.2857142857143 Q 512 386.2857142857143 501.7142857142857 376 Q 491.42857142857144 365.7142857142857 475.42857142857144 365.7142857142857 L 475.42857142857144 146.28571428571428 L 475.42857142857144 146.28571428571428 Q 491.42857142857144 146.28571428571428 501.7142857142857 136 Q 512 125.71428571428571 512 109.71428571428571 L 512 36.57142857142857 L 512 36.57142857142857 Q 512 20.571428571428573 501.7142857142857 10.285714285714286 Q 491.42857142857144 0 475.42857142857144 0 L 402.2857142857143 0 L 402.2857142857143 0 Z M 109.71428571428571 146.28571428571428 Q 125.71428571428571 146.28571428571428 136 136 L 136 136 L 136 136 Q 146.28571428571428 125.71428571428571 146.28571428571428 109.71428571428571 L 365.7142857142857 109.71428571428571 L 365.7142857142857 109.71428571428571 Q 365.7142857142857 125.71428571428571 376 136 Q 386.2857142857143 146.28571428571428 402.2857142857143 146.28571428571428 L 402.2857142857143 365.7142857142857 L 402.2857142857143 365.7142857142857 Q 386.2857142857143 365.7142857142857 376 376 Q 365.7142857142857 386.2857142857143 365.7142857142857 402.2857142857143 L 146.28571428571428 402.2857142857143 L 146.28571428571428 402.2857142857143 Q 146.28571428571428 386.2857142857143 136 376 Q 125.71428571428571 365.7142857142857 109.71428571428571 365.7142857142857 L 109.71428571428571 146.28571428571428 L 109.71428571428571 146.28571428571428 Z M 54.857142857142854 420.57142857142856 L 91.42857142857143 420.57142857142856 L 54.857142857142854 420.57142857142856 L 91.42857142857143 420.57142857142856 L 91.42857142857143 457.14285714285717 L 91.42857142857143 457.14285714285717 L 54.857142857142854 457.14285714285717 L 54.857142857142854 457.14285714285717 L 54.857142857142854 420.57142857142856 L 54.857142857142854 420.57142857142856 Z M 420.57142857142856 457.14285714285717 L 420.57142857142856 420.57142857142856 L 420.57142857142856 457.14285714285717 L 420.57142857142856 420.57142857142856 L 457.14285714285717 420.57142857142856 L 457.14285714285717 420.57142857142856 L 457.14285714285717 457.14285714285717 L 457.14285714285717 457.14285714285717 L 420.57142857142856 457.14285714285717 L 420.57142857142856 457.14285714285717 Z M 54.857142857142854 91.42857142857143 L 54.857142857142854 54.857142857142854 L 54.857142857142854 91.42857142857143 L 54.857142857142854 54.857142857142854 L 91.42857142857143 54.857142857142854 L 91.42857142857143 54.857142857142854 L 91.42857142857143 91.42857142857143 L 91.42857142857143 91.42857142857143 L 54.857142857142854 91.42857142857143 L 54.857142857142854 91.42857142857143 Z" />
</svg>