<svg xmlns="http://www.w3.org/2000/svg" viewBox="0 0 448 448">
    <path d="M 94 0 L 208 0 L 208 128 L 0 128 L 51 27 Q 65 1 94 0 L 94 0 Z M 240 0 L 354 0 Q 383 1 397 27 L 448 128 L 240 128 L 240 0 L 240 0 Z M 0 160 L 448 160 L 448 384 Q 447 411 429 429 Q 411 447 384 448 L 64 448 Q 37 447 19 429 Q 1 411 0 384 L 0 160 L 0 160 Z M 213 389 Q 224 398 235 389 L 313 311 Q 328 295 328 274 Q 328 253 313 237 Q 296 222 275 222 Q 254 222 238 237 L 224 251 L 210 237 Q 194 222 173 222 Q 152 222 135 237 Q 120 253 120 274 Q 120 295 135 311 L 213 389 L 213 389 Z"/>
</svg>
