<svg xmlns="http://www.w3.org/2000/svg" viewBox="0 0 512 512">
  <path d="M 256 512 Q 326 511 384 478 L 384 478 L 384 478 Q 442 444 478 384 Q 512 323 512 256 Q 512 189 478 128 Q 442 68 384 34 Q 326 1 256 0 Q 186 1 128 34 Q 70 68 34 128 Q 0 189 0 256 Q 0 323 34 384 Q 70 444 128 478 Q 186 511 256 512 L 256 512 Z M 391 310 Q 382 324 365 319 L 318 301 L 318 301 Q 305 295 305 281 L 308 254 L 308 254 Q 256 238 204 254 L 207 281 L 207 281 Q 207 295 193 301 L 147 319 L 147 319 Q 130 324 121 310 L 99 275 L 99 275 Q 92 262 102 251 Q 146 212 201 199 Q 256 186 311 199 Q 366 212 410 251 Q 420 262 413 275 L 391 310 L 391 310 Z" />
</svg>