<svg xmlns="http://www.w3.org/2000/svg" viewBox="0 0 645 447">
    <path d="M 412 14 Q 429 0 446 14 L 463 31 Q 466 31 469 31 L 501 31 Q 518 31 533 38 L 548 22 Q 565 8 582 22 Q 596 39 582 56 L 569 69 Q 581 88 581 111 Q 582 127 598 134 Q 619 144 632 163 Q 645 182 645 207 Q 644 248 613 271 L 613 303 Q 612 318 597 319 L 565 319 Q 550 318 549 303 L 549 287 L 485 287 L 485 303 Q 484 318 469 319 L 437 319 Q 422 318 421 303 L 421 285 Q 403 282 389 271 Q 387 269 385 268 Q 358 244 357 207 Q 356 192 341 191 Q 326 192 325 207 Q 325 241 343 268 Q 360 294 389 308 L 389 319 Q 389 333 398 342 Q 407 351 421 351 L 453 351 L 453 415 Q 453 429 444 438 Q 435 447 421 447 L 357 447 Q 343 447 334 438 Q 325 429 325 415 L 325 339 Q 295 351 261 351 Q 227 351 197 339 L 197 415 Q 197 429 188 438 Q 179 447 165 447 L 101 447 Q 87 447 78 438 Q 69 429 69 415 L 69 296 L 51 337 Q 40 356 19 349 Q 0 338 7 317 L 29 268 Q 37 250 37 230 Q 39 148 93 92 Q 147 36 229 31 L 229 31 L 236 31 L 261 31 L 293 31 Q 325 31 355 39 Q 385 46 410 57 Q 413 54 416 52 L 412 48 Q 398 31 412 14 L 412 14 Z M 485 199 Q 483 177 461 175 Q 439 177 437 199 Q 439 221 461 223 Q 483 221 485 199 L 485 199 Z M 573 223 Q 595 221 597 199 Q 595 177 573 175 Q 551 177 549 199 Q 551 221 573 223 L 573 223 Z M 485 111 Q 484 96 469 95 Q 454 96 453 111 Q 454 126 469 127 Q 484 126 485 111 L 485 111 Z M 533 127 Q 548 126 549 111 Q 548 96 533 95 Q 518 96 517 111 Q 518 126 533 127 L 533 127 Z"/>
</svg>
