<svg xmlns="http://www.w3.org/2000/svg" viewBox="0 0 512 520">
    <path d="M 347 6 Q 339 15 330 32 L 330 32 Q 321 49 320 72 Q 320 101 331 118 Q 341 135 360 152 Q 360 152 360 152 Q 377 171 394 181 Q 411 192 440 192 Q 463 191 480 182 Q 497 173 506 165 Q 512 160 512 152 Q 512 144 506 139 Q 497 131 478 122 Q 459 113 432 112 Q 409 113 400 116 Q 392 120 392 120 Q 393 121 396 112 Q 400 104 400 80 Q 399 53 390 34 Q 381 15 373 6 Q 368 0 360 0 Q 352 0 347 6 L 347 6 Z M 304 152 Q 303 120 276 104 Q 248 88 220 104 Q 193 120 192 152 Q 193 184 220 200 Q 248 216 276 200 Q 303 184 304 152 L 304 152 Z M 112 232 Q 144 231 160 204 Q 176 176 160 148 Q 144 121 112 120 Q 80 121 64 148 Q 48 176 64 204 Q 80 231 112 232 L 112 232 Z M 144 312 Q 143 280 116 264 Q 88 248 60 264 Q 33 280 32 312 Q 33 344 60 360 Q 88 376 116 360 Q 143 344 144 312 L 144 312 Z M 112 456 Q 111 424 84 408 Q 56 392 28 408 Q 1 424 0 456 Q 1 488 28 504 Q 56 520 84 504 Q 111 488 112 456 L 112 456 Z M 256 424 Q 255 392 228 376 Q 200 360 172 376 Q 145 392 144 424 Q 145 456 172 472 Q 200 488 228 472 Q 255 456 256 424 L 256 424 Z M 336 456 Q 368 455 384 428 Q 400 400 384 372 Q 368 345 336 344 Q 304 345 288 372 Q 272 400 288 428 Q 304 455 336 456 L 336 456 Z M 280 288 Q 279 256 252 240 Q 224 224 196 240 Q 169 256 168 288 Q 169 320 196 336 Q 224 352 252 336 Q 279 320 280 288 L 280 288 Z M 360 320 Q 392 319 408 292 Q 424 264 408 236 Q 392 209 360 208 Q 328 209 312 236 Q 296 264 312 292 Q 328 319 360 320 L 360 320 Z"/>
</svg>
