<svg xmlns="http://www.w3.org/2000/svg" viewBox="0 0 514 448">
    <path d="M 258 416 Q 330 415 387 388 L 387 388 Q 445 360 479 313 L 479 313 Q 513 266 514 208 Q 513 150 479 103 Q 445 56 387 28 Q 330 1 258 0 Q 186 1 129 28 Q 71 56 37 103 Q 3 150 2 208 Q 3 277 50 329 Q 45 366 28 392 Q 20 406 13 413 Q 10 417 8 419 Q 8 420 7 420 Q 7 420 7 421 L 7 421 L 7 421 L 7 421 L 7 421 L 7 421 Q 0 428 3 438 Q 8 448 18 448 Q 62 446 100 429 Q 135 413 154 398 Q 202 416 258 416 L 258 416 Z M 130 176 Q 144 176 153 185 L 153 185 Q 162 194 162 208 Q 162 222 153 231 Q 144 240 130 240 Q 116 240 107 231 Q 98 222 98 208 Q 98 194 107 185 Q 116 176 130 176 L 130 176 Z M 258 176 Q 272 176 281 185 L 281 185 Q 290 194 290 208 Q 290 222 281 231 Q 272 240 258 240 Q 244 240 235 231 Q 226 222 226 208 Q 226 194 235 185 Q 244 176 258 176 L 258 176 Z M 354 208 Q 354 194 363 185 L 363 185 Q 372 176 386 176 Q 400 176 409 185 Q 418 194 418 208 Q 418 222 409 231 Q 400 240 386 240 Q 372 240 363 231 Q 354 222 354 208 L 354 208 Z"/>
</svg>
