<svg xmlns="http://www.w3.org/2000/svg" viewBox="0 0 512 512">
  <path d="M 153.14285714285714 427.42857142857144 L 12.571428571428571 286.85714285714283 L 153.14285714285714 427.42857142857144 L 12.571428571428571 286.85714285714283 Q 0 274.2857142857143 0 256 Q 0 237.71428571428572 12.571428571428571 225.14285714285714 L 153.14285714285714 84.57142857142857 L 153.14285714285714 84.57142857142857 Q 164.57142857142858 73.14285714285714 180.57142857142858 73.14285714285714 Q 196.57142857142858 73.14285714285714 208 84.57142857142857 Q 219.42857142857142 96 219.42857142857142 112 L 219.42857142857142 182.85714285714286 L 219.42857142857142 182.85714285714286 L 365.7142857142857 182.85714285714286 L 365.7142857142857 182.85714285714286 Q 381.7142857142857 182.85714285714286 392 193.14285714285714 Q 402.2857142857143 203.42857142857142 402.2857142857143 219.42857142857142 L 402.2857142857143 292.57142857142856 L 402.2857142857143 292.57142857142856 Q 402.2857142857143 308.57142857142856 392 318.85714285714283 Q 381.7142857142857 329.14285714285717 365.7142857142857 329.14285714285717 L 219.42857142857142 329.14285714285717 L 219.42857142857142 329.14285714285717 L 219.42857142857142 400 L 219.42857142857142 400 Q 219.42857142857142 416 208 427.42857142857144 Q 196.57142857142858 438.85714285714283 180.57142857142858 438.85714285714283 Q 164.57142857142858 438.85714285714283 153.14285714285714 427.42857142857144 L 153.14285714285714 427.42857142857144 Z M 438.85714285714283 438.85714285714283 L 438.85714285714283 73.14285714285714 L 438.85714285714283 438.85714285714283 L 438.85714285714283 73.14285714285714 Q 438.85714285714283 57.142857142857146 449.14285714285717 46.857142857142854 Q 459.42857142857144 36.57142857142857 475.42857142857144 36.57142857142857 Q 491.42857142857144 36.57142857142857 501.7142857142857 46.857142857142854 Q 512 57.142857142857146 512 73.14285714285714 L 512 438.85714285714283 L 512 438.85714285714283 Q 512 454.85714285714283 501.7142857142857 465.14285714285717 Q 491.42857142857144 475.42857142857144 475.42857142857144 475.42857142857144 Q 459.42857142857144 475.42857142857144 449.14285714285717 465.14285714285717 Q 438.85714285714283 454.85714285714283 438.85714285714283 438.85714285714283 L 438.85714285714283 438.85714285714283 Z" />
</svg>