<svg xmlns="http://www.w3.org/2000/svg" viewBox="0 0 512 512">
  <path d="M 392.4246284501062 151.64331210191082 L 338.07218683651803 151.64331210191082 L 392.4246284501062 151.64331210191082 L 338.07218683651803 151.64331210191082 Q 322.85350318471336 151.64331210191082 313.0700636942675 161.42675159235668 Q 303.28662420382165 171.21019108280254 303.28662420382165 186.4288747346072 Q 303.28662420382165 201.6475583864119 313.0700636942675 211.43099787685776 Q 322.85350318471336 221.21443736730362 338.07218683651803 221.21443736730362 L 477.2144373673036 221.21443736730362 L 477.2144373673036 221.21443736730362 Q 492.4331210191083 221.21443736730362 502.21656050955414 211.43099787685776 Q 512 201.6475583864119 512 186.4288747346072 L 512 47.28662420382165 L 512 47.28662420382165 Q 512 32.067940552016985 502.21656050955414 22.284501061571124 Q 492.4331210191083 12.501061571125266 477.2144373673036 12.501061571125266 Q 461.99575371549895 12.501061571125266 452.2123142250531 22.284501061571124 Q 442.42887473460723 32.067940552016985 442.42887473460723 47.28662420382165 L 442.42887473460723 102.72611464968153 L 442.42887473460723 102.72611464968153 L 422.8619957537155 84.24628450106157 L 422.8619957537155 84.24628450106157 Q 375.03184713375794 36.41613588110403 313.0700636942675 20.1104033970276 Q 251.10828025477707 4.89171974522293 189.1464968152866 20.1104033970276 Q 127.18471337579618 36.41613588110403 79.35456475583864 84.24628450106157 Q 31.524416135881104 132.0764331210191 15.218683651804671 194.03821656050957 Q 0 256 15.218683651804671 317.96178343949043 Q 31.524416135881104 379.92356687898086 79.35456475583864 427.75371549893845 Q 127.18471337579618 475.583864118896 189.1464968152866 491.8895966029724 Q 251.10828025477707 507.10828025477707 313.0700636942675 491.8895966029724 Q 375.03184713375794 475.583864118896 422.8619957537155 427.75371549893845 Q 433.73248407643314 417.9702760084926 433.73248407643314 403.8386411889597 Q 433.73248407643314 389.7070063694268 422.8619957537155 378.8365180467091 Q 413.07855626326966 369.05307855626324 398.94692144373676 369.05307855626324 Q 384.81528662420385 369.05307855626324 373.9447983014862 378.8365180467091 Q 320.67940552016984 429.92781316348197 251.10828025477707 429.92781316348197 Q 181.53715498938428 429.92781316348197 128.27176220806794 378.8365180467091 Q 77.18046709129511 325.57112526539277 77.18046709129511 256 Q 77.18046709129511 186.4288747346072 128.27176220806794 133.16348195329087 Q 181.53715498938428 82.07218683651804 251.10828025477707 82.07218683651804 Q 320.67940552016984 82.07218683651804 373.9447983014862 133.16348195329087 L 392.4246284501062 151.64331210191082 L 392.4246284501062 151.64331210191082 Z" />
</svg>