<svg xmlns="http://www.w3.org/2000/svg" viewBox="0 0 512 512">
  <path d="M 256 512 Q 326 511 384 478 L 384 478 L 384 478 Q 442 444 478 384 Q 512 323 512 256 Q 512 189 478 128 Q 442 68 384 34 Q 326 1 256 0 Q 186 1 128 34 Q 70 68 34 128 Q 0 189 0 256 Q 0 323 34 384 Q 70 444 128 478 Q 186 511 256 512 L 256 512 Z M 336 152 L 336 288 L 336 152 L 336 288 Q 335 329 308 356 Q 281 383 240 384 Q 199 383 172 356 Q 145 329 144 288 L 144 280 L 144 280 Q 146 258 168 256 Q 190 258 192 280 L 192 288 L 192 288 Q 193 308 206 322 Q 220 335 240 336 Q 260 335 274 322 Q 287 308 288 288 L 288 152 L 288 152 Q 290 130 312 128 Q 334 130 336 152 L 336 152 Z" />
</svg>