<svg xmlns="http://www.w3.org/2000/svg" viewBox="0 0 512 512">
  <path d="M 128 32 L 128 64 L 128 32 L 128 64 L 80 64 L 80 64 Q 60 65 46 78 Q 33 92 32 112 L 32 160 L 32 160 L 480 160 L 480 160 L 480 112 L 480 112 Q 479 92 466 78 Q 452 65 432 64 L 384 64 L 384 64 L 384 32 L 384 32 Q 384 18 375 9 Q 366 0 352 0 Q 338 0 329 9 Q 320 18 320 32 L 320 64 L 320 64 L 192 64 L 192 64 L 192 32 L 192 32 Q 192 18 183 9 Q 174 0 160 0 Q 146 0 137 9 Q 128 18 128 32 L 128 32 Z M 480 192 L 32 192 L 480 192 L 32 192 L 32 464 L 32 464 Q 33 484 46 498 Q 60 511 80 512 L 432 512 L 432 512 Q 452 511 466 498 Q 479 484 480 464 L 480 192 L 480 192 Z M 256 248 Q 278 250 280 272 L 280 328 L 280 328 L 336 328 L 336 328 Q 358 330 360 352 Q 358 374 336 376 L 280 376 L 280 376 L 280 432 L 280 432 Q 278 454 256 456 Q 234 454 232 432 L 232 376 L 232 376 L 176 376 L 176 376 Q 154 374 152 352 Q 154 330 176 328 L 232 328 L 232 328 L 232 272 L 232 272 Q 234 250 256 248 L 256 248 Z" />
</svg>