<svg xmlns="http://www.w3.org/2000/svg" viewBox="0 0 448 512">
    <path d="M 0 32 L 0 46 Q 0 71 5 96 L 358 96 Q 363 86 371 77 L 409 39 Q 416 32 416 23 Q 414 2 393 0 L 32 0 Q 18 0 9 9 Q 0 18 0 32 L 0 32 Z M 352 128 L 14 128 Q 32 182 72 224 L 412 224 L 365 161 Q 354 146 352 128 L 352 128 Z M 126 266 L 243 335 Q 255 342 265 352 L 445 352 Q 448 337 448 322 Q 448 287 433 256 L 110 256 Q 118 261 126 266 L 126 266 Z M 288 384 Q 304 417 298 453 L 292 489 Q 291 498 297 505 Q 302 512 312 512 Q 320 512 326 506 L 404 428 Q 424 409 435 384 L 288 384 L 288 384 Z"/>
</svg>
