<svg xmlns="http://www.w3.org/2000/svg" viewBox="0 0 512 512">
  <path d="M 117.540855 2.9883268 Q 131.48637 0 145.4319 5.9766536 L 145.4319 5.9766536 L 145.4319 5.9766536 Q 158.38132 11.953307 164.35797 26.894941 L 204.20233 122.5214 L 204.20233 122.5214 Q 213.16731 149.41634 192.24902 168.3424 L 143.43968 208.18677 L 143.43968 208.18677 Q 168.3424 260.98053 209.18288 302.8171 Q 251.01945 343.6576 303.81323 368.5603 L 343.6576 319.75098 L 343.6576 319.75098 Q 362.58365 298.83267 389.4786 307.79767 L 485.10507 347.64203 L 485.10507 347.64203 Q 499.0506 353.61868 506.02335 366.56808 Q 512 380.5136 509.0117 395.45526 L 485.10507 483.11285 L 485.10507 483.11285 Q 475.14398 510.00778 446.2568 512 Q 321.7432 511.0039 221.13618 451.23737 Q 120.52918 391.47083 60.762646 290.8638 Q 0.99610895 190.2568 0 65.74319 Q 1.9922179 36.85603 29.883268 26.894941 L 117.540855 2.9883268 L 117.540855 2.9883268 Z M 333.6965 16.933851 Q 350.63034 2.9883268 367.5642 16.933851 L 414.38132 63.750973 L 414.38132 63.750973 L 461.19846 16.933851 L 461.19846 16.933851 Q 478.1323 2.9883268 495.06616 16.933851 Q 509.0117 33.867702 495.06616 50.801556 L 448.24902 97.618675 L 448.24902 97.618675 L 495.06616 144.43579 L 495.06616 144.43579 Q 509.0117 161.36964 495.06616 178.3035 Q 478.1323 192.24902 461.19846 178.3035 L 414.38132 131.48637 L 414.38132 131.48637 L 367.5642 178.3035 L 367.5642 178.3035 Q 350.63034 192.24902 333.6965 178.3035 Q 319.75098 161.36964 333.6965 144.43579 L 380.5136 97.618675 L 380.5136 97.618675 L 333.6965 50.801556 L 333.6965 50.801556 Q 319.75098 33.867702 333.6965 16.933851 L 333.6965 16.933851 Z" />
</svg>