<svg xmlns="http://www.w3.org/2000/svg" viewBox="0 0 512 512">
  <path d="M 128 70 L 128 128 L 128 70 L 128 128 L 128 128 L 128 128 Q 128 132 128 136 L 128 160 L 128 160 L 128 171 L 128 171 Q 127 224 91 262 L 87 265 L 87 265 Q 80 272 80 281 Q 82 302 103 304 L 256 304 L 409 304 Q 430 302 432 281 Q 432 272 425 265 L 422 262 L 422 262 Q 385 224 384 171 L 384 160 L 384 160 L 384 136 L 384 136 Q 384 132 384 128 L 384 128 L 384 128 L 384 70 L 384 70 Q 383 49 363 40 L 267 4 L 267 4 Q 256 0 245 4 L 149 40 L 149 40 Q 129 49 128 70 L 128 70 Z M 336 160 L 336 176 L 336 160 L 336 176 Q 335 210 313 233 Q 290 255 256 256 Q 222 255 199 233 Q 177 210 176 176 L 208 176 L 208 176 Q 255 174 278 136 Q 296 159 328 160 L 336 160 L 336 160 Z M 183 347 Q 173 336 159 338 Q 104 346 69 387 Q 33 427 32 484 Q 32 496 40 504 Q 48 512 60 512 L 452 512 L 452 512 Q 464 512 472 504 Q 480 496 480 484 Q 479 427 444 387 Q 408 346 353 338 Q 339 336 329 347 L 268 412 L 268 412 Q 256 422 244 412 L 183 347 L 183 347 Z M 240 48 Q 241 41 248 40 L 264 40 L 264 40 Q 271 41 272 48 L 272 64 L 272 64 L 288 64 L 288 64 Q 295 65 296 72 L 296 88 L 296 88 Q 295 95 288 96 L 272 96 L 272 96 L 272 112 L 272 112 Q 271 119 264 120 L 248 120 L 248 120 Q 241 119 240 112 L 240 96 L 240 96 L 224 96 L 224 96 Q 217 95 216 88 L 216 72 L 216 72 Q 217 65 224 64 L 240 64 L 240 64 L 240 48 L 240 48 Z" />
</svg>