<svg xmlns="http://www.w3.org/2000/svg" viewBox="0 0 512 512">
  <path d="M 280.7227414330218 128.39875389408098 Q 280.7227414330218 139.5638629283489 273.54517133956386 146.74143302180684 L 273.54517133956386 146.74143302180684 L 273.54517133956386 146.74143302180684 Q 266.3676012461059 153.9190031152648 255.202492211838 153.9190031152648 L 229.6822429906542 153.9190031152648 L 229.6822429906542 153.9190031152648 L 229.6822429906542 179.4392523364486 L 229.6822429906542 179.4392523364486 L 294.2803738317757 179.4392523364486 L 294.2803738317757 179.4392523364486 Q 306.2429906542056 179.4392523364486 317.4080996884735 185.02180685358255 L 357.2834890965732 204.9595015576324 L 357.2834890965732 204.9595015576324 L 490.4672897196262 176.2492211838006 L 490.4672897196262 176.2492211838006 Q 501.6323987538941 174.65420560747663 507.21495327102804 183.42679127725856 Q 512 192.1993769470405 504.8224299065421 201.76947040498442 L 359.6760124610592 366.05607476635515 L 359.6760124610592 366.05607476635515 Q 344.5233644859813 382.803738317757 321.3956386292835 383.601246105919 L 114.8411214953271 383.601246105919 L 114.8411214953271 383.601246105919 Q 98.89096573208722 382.803738317757 87.72585669781931 372.4361370716511 Q 77.35825545171339 361.2710280373832 76.5607476635514 345.3208722741433 L 76.5607476635514 328.5732087227414 L 76.5607476635514 328.5732087227414 L 23.12772585669782 304.6479750778816 L 23.12772585669782 304.6479750778816 Q 0.7975077881619937 293.4828660436137 0 269.55763239875387 L 0 217.7196261682243 L 0 217.7196261682243 Q 0.7975077881619937 201.76947040498442 11.165109034267912 190.6043613707165 Q 22.330218068535824 180.23676012461058 38.2803738317757 179.4392523364486 L 76.5607476635514 179.4392523364486 L 178.6417445482866 179.4392523364486 L 178.6417445482866 153.9190031152648 L 178.6417445482866 153.9190031152648 L 153.1214953271028 153.9190031152648 L 153.1214953271028 153.9190031152648 Q 141.95638629283488 153.9190031152648 134.77881619937693 146.74143302180684 Q 127.601246105919 139.5638629283489 127.601246105919 128.39875389408098 Q 127.601246105919 117.23364485981308 134.77881619937693 110.05607476635514 Q 141.95638629283488 102.8785046728972 153.1214953271028 102.8785046728972 L 255.202492211838 102.8785046728972 L 255.202492211838 102.8785046728972 Q 266.3676012461059 102.8785046728972 273.54517133956386 110.05607476635514 Q 280.7227414330218 117.23364485981308 280.7227414330218 128.39875389408098 L 280.7227414330218 128.39875389408098 Z M 38.2803738317757 217.7196261682243 L 38.2803738317757 269.55763239875387 L 38.2803738317757 217.7196261682243 L 38.2803738317757 269.55763239875387 L 76.5607476635514 286.30529595015577 L 76.5607476635514 286.30529595015577 L 76.5607476635514 217.7196261682243 L 76.5607476635514 217.7196261682243 L 38.2803738317757 217.7196261682243 L 38.2803738317757 217.7196261682243 Z M 472.1246105919003 409.1214953271028 Q 456.17445482866043 408.3239875389408 445.0093457943925 397.9563862928349 L 445.0093457943925 397.9563862928349 L 445.0093457943925 397.9563862928349 Q 434.6417445482866 386.791277258567 433.8442367601246 370.8411214953271 Q 434.6417445482866 357.2834890965732 443.4143302180685 337.3457943925234 Q 452.1869158878505 316.61059190031153 461.7570093457944 299.86292834890963 Q 465.74454828660436 293.4828660436137 472.1246105919003 293.4828660436137 Q 478.50467289719626 293.4828660436137 482.49221183800626 299.86292834890963 Q 492.0623052959502 316.61059190031153 500.8348909657321 337.3457943925234 Q 509.60747663551405 357.2834890965732 510.404984423676 370.8411214953271 Q 509.60747663551405 389.98130841121497 499.2398753894081 399.5514018691589 Q 488.0747663551402 409.1214953271028 472.1246105919003 409.1214953271028 L 472.1246105919003 409.1214953271028 Z" />
</svg>