<svg xmlns="http://www.w3.org/2000/svg" viewBox="0 0 640 512">
    <path d="M 320 368 Q 320 413 340 450 L 340 450 Q 360 488 395 512 L 64 512 Q 37 511 19 493 Q 1 475 0 448 L 0 224 Q 1 197 19 179 Q 37 161 64 160 L 448 160 Q 485 162 504 192 Q 502 192 500 192 Q 498 192 496 192 Q 421 194 372 244 Q 322 293 320 368 L 320 368 Z M 440 80 Q 462 82 464 104 Q 462 126 440 128 L 72 128 Q 50 126 48 104 Q 50 82 72 80 L 440 80 L 440 80 Z M 392 0 Q 414 2 416 24 Q 414 46 392 48 L 120 48 Q 98 46 96 24 Q 98 2 120 0 L 392 0 L 392 0 Z M 352 368 Q 352 329 371 296 L 371 296 Q 390 263 424 243 Q 458 224 496 224 Q 534 224 568 243 Q 602 263 621 296 Q 640 329 640 368 Q 640 407 621 440 Q 602 473 568 493 Q 534 512 496 512 Q 458 512 424 493 Q 390 473 371 440 Q 352 407 352 368 L 352 368 Z M 574 449 Q 562 418 529 416 L 463 416 Q 430 418 418 449 Q 450 479 496 480 Q 542 479 574 449 L 574 449 Z M 544 336 Q 543 309 520 294 Q 496 282 472 294 Q 449 309 448 336 Q 449 363 472 378 Q 496 390 520 378 Q 543 363 544 336 L 544 336 Z"/>
</svg>
