<svg xmlns="http://www.w3.org/2000/svg" viewBox="0 0 512 512">
  <path d="M 13 92.5 L 128 70.5 L 13 92.5 L 128 70.5 L 128 54.5 L 128 54.5 Q 130 32.5 152 30.5 Q 174 32.5 176 54.5 L 176 61.5 L 176 61.5 L 176 99.5 L 176 99.5 L 176 137.5 L 176 137.5 L 176 174.5 L 176 174.5 L 176 222.5 L 176 222.5 L 176 222.5 L 176 222.5 L 208 222.5 L 208 222.5 L 208 222.5 L 208 222.5 L 208 174.5 L 208 174.5 L 208 136.5 L 208 136.5 L 208 94.5 L 208 94.5 L 208 55.5 L 208 55.5 L 208 38.5 L 208 38.5 Q 210 16.5 232 14.5 Q 254 16.5 256 38.5 L 256 46.5 L 256 46.5 L 256 86.5 L 256 86.5 L 256 134.5 L 256 134.5 L 256 174.5 L 256 174.5 L 256 222.5 L 256 222.5 L 256 222.5 L 256 222.5 L 288 222.5 L 288 222.5 L 288 222.5 L 288 222.5 L 478 222.5 L 478 222.5 Q 492 222.5 501 232.5 Q 510 241.5 510 256.5 Q 505 325.5 469 380.5 Q 432 434.5 374 465.5 L 372 475.5 L 372 475.5 Q 370 490.5 359 500.5 Q 348 510.5 333 510.5 L 179 510.5 L 179 510.5 Q 164 510.5 153 500.5 Q 142 490.5 140 475.5 L 138 465.5 L 138 465.5 Q 80 434.5 43 380.5 Q 7 325.5 2 256.5 Q 2 241.5 11 232.5 Q 20 222.5 34 222.5 L 128 222.5 L 128 222.5 L 128 174.5 L 128 174.5 L 16 174.5 L 16 174.5 Q 1 173.5 0 158.5 Q 1 143.5 16 142.5 L 128 138.5 L 128 138.5 L 128 106.5 L 128 106.5 L 19 123.5 L 19 123.5 Q 2 124.5 0 107.5 Q 1 95.5 13 92.5 L 13 92.5 Z M 488 174.5 L 288 174.5 L 488 174.5 L 288 174.5 L 288 133.5 L 288 133.5 L 488 127.5 L 488 127.5 Q 510 128.5 512 150.5 Q 510 172.5 488 174.5 L 488 174.5 Z M 492 49.5 L 288 81.5 L 492 49.5 L 288 81.5 L 288 40.5 L 288 40.5 L 484 3.5 L 484 3.5 Q 496 1.5 504 8.5 Q 512 15.5 512 26.5 Q 511 45.5 492 49.5 L 492 49.5 Z" />
</svg>