<svg xmlns="http://www.w3.org/2000/svg" viewBox="0 0 512 512">
  <path d="M 229.71428 392 Q 241.14285 402.2857 256 402.2857 L 256 402.2857 L 256 402.2857 Q 270.85715 402.2857 282.2857 392 L 501.7143 172.57143 L 501.7143 172.57143 Q 512 161.14285 512 146.28572 Q 512 131.42857 501.7143 120 Q 490.2857 109.71429 475.42856 109.71429 Q 460.57144 109.71429 449.14285 120 L 256 314.2857 L 256 314.2857 L 62.857143 120 L 62.857143 120 Q 51.42857 109.71429 36.57143 109.71429 Q 21.714285 109.71429 10.285714 120 Q 0 131.42857 0 146.28572 Q 0 161.14285 10.285714 172.57143 L 229.71428 392 L 229.71428 392 Z" />
</svg>