<svg xmlns="http://www.w3.org/2000/svg" viewBox="0 0 512 512">
  <path d="M 256 0 Q 270 0 279 9 L 279 9 L 279 9 Q 288 18 288 32 L 288 64 L 288 64 L 384 64 L 384 64 L 384 56 L 384 56 Q 386 34 408 32 Q 430 34 432 56 L 432 64 L 432 64 L 464 64 L 464 64 L 464 56 L 464 56 Q 466 34 488 32 Q 510 34 512 56 L 512 96 L 512 96 Q 512 110 503 119 Q 494 128 480 128 L 429 128 L 429 128 L 288 222 L 288 222 L 288 256 L 288 256 L 384 256 L 384 256 L 384 248 L 384 248 Q 386 226 408 224 Q 430 226 432 248 L 432 256 L 432 256 L 464 256 L 464 256 L 464 248 L 464 248 Q 466 226 488 224 Q 510 226 512 248 L 512 288 L 512 288 Q 512 302 503 311 Q 494 320 480 320 L 429 320 L 429 320 L 288 414 L 288 414 L 288 480 L 288 480 Q 288 494 279 503 Q 270 512 256 512 Q 242 512 233 503 Q 224 494 224 480 L 224 414 L 224 414 L 83 320 L 83 320 L 32 320 L 32 320 Q 18 320 9 311 Q 0 302 0 288 L 0 248 L 0 248 Q 2 226 24 224 Q 46 226 48 248 L 48 256 L 48 256 L 80 256 L 80 256 L 80 248 L 80 248 Q 82 226 104 224 Q 126 226 128 248 L 128 256 L 128 256 L 224 256 L 224 256 L 224 222 L 224 222 L 83 128 L 83 128 L 32 128 L 32 128 Q 18 128 9 119 Q 0 110 0 96 L 0 56 L 0 56 Q 2 34 24 32 Q 46 34 48 56 L 48 64 L 48 64 L 80 64 L 80 64 L 80 56 L 80 56 Q 82 34 104 32 Q 126 34 128 56 L 128 64 L 128 64 L 224 64 L 224 64 L 224 32 L 224 32 Q 224 18 233 9 Q 242 0 256 0 L 256 0 Z M 141 128 L 224 183 L 141 128 L 224 183 L 224 128 L 224 128 L 141 128 L 141 128 Z M 288 183 L 371 128 L 288 183 L 371 128 L 288 128 L 288 128 L 288 183 L 288 183 Z M 141 320 L 224 375 L 141 320 L 224 375 L 224 320 L 224 320 L 141 320 L 141 320 Z M 288 375 L 371 320 L 288 375 L 371 320 L 288 320 L 288 320 L 288 375 L 288 375 Z" />
</svg>