<svg xmlns="http://www.w3.org/2000/svg" viewBox="0 0 512 512">
  <path d="M 352 320 Q 420 318 465 273 L 465 273 L 465 273 Q 510 228 512 160 Q 512 137 506 116 Q 503 108 495 106 Q 488 105 482 111 L 405 187 L 405 187 Q 400 192 393 192 L 336 192 L 336 192 Q 321 191 320 176 L 320 119 L 320 119 Q 320 112 325 107 L 402 30 L 402 30 Q 407 24 406 17 Q 404 9 396 6 Q 375 0 352 0 Q 284 2 239 47 Q 194 92 192 160 Q 192 189 202 215 L 20 396 L 20 396 Q 0 416 0 444 Q 1 473 20 492 Q 39 511 68 512 Q 96 512 116 492 L 298 311 L 298 311 Q 323 320 352 320 L 352 320 Z M 80 408 Q 102 410 104 432 Q 102 454 80 456 Q 58 454 56 432 Q 58 410 80 408 L 80 408 Z" />
</svg>