<svg xmlns="http://www.w3.org/2000/svg" viewBox="0 0 512 448">
    <path d="M 192 0 Q 203 0 212 7 L 175 44 Q 160 59 160 80 Q 160 88 163 96 L 32 96 L 32 32 Q 32 18 41 9 Q 50 0 64 0 L 192 0 L 192 0 Z M 198 94 Q 192 88 192 80 Q 192 72 198 66 L 258 6 Q 264 0 272 0 Q 280 0 286 6 L 346 66 Q 352 72 352 80 Q 352 88 346 94 L 344 96 L 200 96 L 198 94 L 198 94 Z M 0 160 Q 0 146 9 137 L 9 137 Q 18 128 32 128 L 96 128 L 96 192 Q 96 206 105 215 Q 114 224 128 224 Q 142 224 151 215 Q 160 206 160 192 L 160 128 L 352 128 L 400 128 Q 448 129 479 161 Q 511 192 512 240 Q 511 288 479 319 Q 448 351 400 352 L 384 352 Q 383 393 356 420 Q 329 447 288 448 L 96 448 Q 55 447 28 420 Q 1 393 0 352 L 0 160 L 0 160 Z M 384 192 L 384 288 L 400 288 Q 420 287 434 274 Q 447 260 448 240 Q 447 220 434 206 Q 420 193 400 192 L 384 192 L 384 192 Z"/>
</svg>
