<svg xmlns="http://www.w3.org/2000/svg" viewBox="0 0 639 512">
    <path d="M 96 128 Q 96 93 113 64 L 113 64 Q 130 35 160 17 Q 190 0 224 0 Q 258 0 288 17 Q 318 35 335 64 Q 352 93 352 128 Q 352 163 335 192 Q 318 221 288 239 Q 258 256 224 256 Q 190 256 160 239 Q 130 221 113 192 Q 96 163 96 128 L 96 128 Z M 0 482 Q 2 407 52 356 L 52 356 Q 103 306 178 304 L 270 304 Q 345 306 396 356 Q 446 407 448 482 Q 448 495 439 503 Q 431 512 418 512 L 30 512 Q 17 512 9 503 Q 0 495 0 482 L 0 482 Z M 625 177 L 497 305 Q 480 319 463 305 L 399 241 Q 385 224 399 207 Q 416 193 433 207 L 480 254 L 591 143 Q 608 129 625 143 Q 639 160 625 177 L 625 177 Z"/>
</svg>
