<svg xmlns="http://www.w3.org/2000/svg" viewBox="0 0 512 512">
  <path d="M 149 65 L 139 96 L 149 65 L 139 96 L 64 96 L 64 96 Q 37 97 19 115 Q 1 133 0 160 L 0 416 L 0 416 Q 1 443 19 461 Q 37 479 64 480 L 448 480 L 448 480 Q 475 479 493 461 Q 511 443 512 416 L 512 160 L 512 160 Q 511 133 493 115 Q 475 97 448 96 L 373 96 L 373 96 L 363 65 L 363 65 Q 351 34 317 32 L 195 32 L 195 32 Q 161 34 149 65 L 149 65 Z M 256 192 Q 282 192 304 205 L 304 205 L 304 205 Q 326 218 339 240 Q 352 263 352 288 Q 352 313 339 336 Q 326 358 304 371 Q 282 384 256 384 Q 230 384 208 371 Q 186 358 173 336 Q 160 313 160 288 Q 160 263 173 240 Q 186 218 208 205 Q 230 192 256 192 L 256 192 Z" />
</svg>