<svg xmlns="http://www.w3.org/2000/svg" viewBox="0 0 448 448">
    <path d="M 64 0 Q 37 1 19 19 L 19 19 Q 1 37 0 64 L 0 384 Q 1 411 19 429 Q 37 447 64 448 L 384 448 Q 411 447 429 429 Q 447 411 448 384 L 448 64 Q 447 37 429 19 Q 411 1 384 0 L 64 0 L 64 0 Z M 384 128 Q 383 155 365 173 L 365 173 Q 347 191 320 192 Q 296 192 279 178 L 194 224 L 279 271 Q 296 256 320 256 Q 347 257 365 275 Q 383 293 384 320 Q 383 347 365 365 Q 347 383 320 384 Q 293 383 275 365 Q 257 347 256 320 Q 256 316 256 313 L 175 268 Q 156 287 128 288 Q 101 287 83 269 Q 65 251 64 224 Q 65 197 83 179 Q 101 161 128 160 Q 156 161 175 180 L 256 135 Q 256 132 256 128 Q 257 101 275 83 Q 293 65 320 64 Q 347 65 365 83 Q 383 101 384 128 L 384 128 Z"/>
</svg>
