<svg xmlns="http://www.w3.org/2000/svg" viewBox="0 0 512 512">
  <path d="M 351 372 Q 388 348 410 310 L 410 310 L 410 310 Q 432 271 432 224 Q 430 149 380 100 Q 331 50 256 48 Q 181 50 132 100 Q 82 149 80 224 Q 80 271 102 310 Q 124 348 161 372 Q 163 399 168 429 L 168 430 L 168 430 Q 107 403 70 349 Q 33 294 32 224 Q 33 161 63 111 Q 92 60 143 31 Q 193 1 256 0 Q 319 1 369 31 Q 420 60 449 111 Q 479 161 480 224 Q 479 294 442 349 Q 405 403 344 430 L 344 429 L 344 429 Q 349 399 351 372 L 351 372 Z M 349 334 Q 347 325 342 318 Q 333 303 320 295 Q 351 268 352 224 Q 351 183 324 156 Q 297 129 256 128 Q 215 129 188 156 Q 161 183 160 224 Q 161 268 192 295 Q 179 303 170 318 Q 165 325 163 334 Q 114 292 112 224 Q 114 163 154 122 Q 195 82 256 80 Q 317 82 358 122 Q 398 163 400 224 Q 398 292 349 334 L 349 334 Z M 256 312 Q 282 311 300 321 L 300 321 L 300 321 Q 319 330 320 356 Q 319 383 313 424 Q 306 465 299 489 Q 295 503 283 508 Q 271 512 256 512 Q 241 512 229 508 Q 217 503 213 489 Q 206 465 199 424 Q 193 383 192 356 Q 193 330 212 321 Q 230 312 256 312 L 256 312 Z M 256 168 Q 288 169 304 196 Q 320 224 304 252 Q 288 279 256 280 Q 224 279 208 252 Q 192 224 208 196 Q 224 169 256 168 L 256 168 Z" />
</svg>