<svg xmlns="http://www.w3.org/2000/svg" viewBox="0 0 448 448">
    <path d="M 290 15 Q 296 1 312 0 L 424 0 Q 446 2 448 24 L 448 136 Q 447 152 433 158 Q 419 164 407 153 L 374 120 L 321 172 Q 351 216 352 272 Q 350 347 300 396 Q 251 446 176 448 Q 101 446 52 396 Q 2 347 0 272 Q 2 197 52 148 Q 101 98 176 96 Q 232 97 276 127 L 328 74 L 295 41 Q 284 29 290 15 L 290 15 Z M 400 48 L 400 48 L 400 48 L 400 48 L 400 48 Z M 176 384 Q 206 384 232 369 L 232 369 Q 258 354 273 328 Q 288 302 288 272 Q 288 242 273 216 Q 258 190 232 175 Q 206 160 176 160 Q 146 160 120 175 Q 94 190 79 216 Q 64 242 64 272 Q 64 302 79 328 Q 94 354 120 369 Q 146 384 176 384 L 176 384 Z"/>
</svg>
