<svg xmlns="http://www.w3.org/2000/svg" viewBox="0 0 512 512">
  <path d="M 348.27906976744185 5.953488372093023 Q 340.3410852713178 14.883720930232558 331.4108527131783 31.751937984496124 L 331.4108527131783 31.751937984496124 L 331.4108527131783 31.751937984496124 Q 322.48062015503876 48.62015503875969 321.48837209302326 71.44186046511628 Q 321.48837209302326 100.21705426356588 332.4031007751938 117.08527131782945 Q 342.3255813953488 133.95348837209303 361.1782945736434 150.8217054263566 Q 361.1782945736434 150.8217054263566 361.1782945736434 150.8217054263566 Q 378.04651162790697 169.67441860465115 394.91472868217056 179.5968992248062 Q 411.7829457364341 190.51162790697674 440.5581395348837 190.51162790697674 Q 463.37984496124034 189.51937984496124 480.2480620155039 180.5891472868217 Q 497.1162790697674 171.65891472868216 506.04651162790697 163.72093023255815 Q 512 158.75968992248062 512 150.8217054263566 Q 512 142.88372093023256 506.04651162790697 137.92248062015503 Q 497.1162790697674 129.984496124031 478.26356589147287 121.05426356589147 Q 459.4108527131783 112.12403100775194 432.62015503875966 111.13178294573643 Q 409.7984496124031 112.12403100775194 400.86821705426354 115.10077519379846 Q 392.93023255813955 119.06976744186046 392.93023255813955 119.06976744186046 Q 393.92248062015506 120.06201550387597 396.8992248062016 111.13178294573643 Q 400.86821705426354 103.1937984496124 400.86821705426354 79.37984496124031 Q 399.8759689922481 52.58914728682171 390.94573643410854 33.736434108527135 Q 382.015503875969 14.883720930232558 374.07751937984494 5.953488372093023 Q 369.1162790697674 0 361.1782945736434 0 Q 353.2403100775194 0 348.27906976744185 5.953488372093023 L 348.27906976744185 5.953488372093023 Z M 247.06976744186048 134.94573643410854 Q 184.5581395348837 136.93023255813952 145.86046511627907 182.57364341085272 L 205.3953488372093 243.10077519379846 L 205.3953488372093 243.10077519379846 Q 215.31782945736435 254.015503875969 205.3953488372093 264.93023255813955 Q 194.48062015503876 274.85271317829455 183.56589147286823 264.93023255813955 L 128.9922480620155 210.35658914728683 L 128.9922480620155 210.35658914728683 L 128.9922480620155 210.35658914728683 L 128.9922480620155 210.35658914728683 L 5.953488372093023 474.29457364341084 L 5.953488372093023 474.29457364341084 Q 0 489.1782945736434 10.914728682170542 501.08527131782944 Q 22.82170542635659 512 37.70542635658915 506.04651162790697 L 171.65891472868216 443.5348837209302 L 171.65891472868216 443.5348837209302 L 120.06201550387597 391.93798449612405 L 120.06201550387597 391.93798449612405 Q 110.13953488372093 381.0232558139535 120.06201550387597 370.1085271317829 Q 130.97674418604652 360.1860465116279 141.89147286821705 370.1085271317829 L 202.41860465116278 429.6434108527132 L 202.41860465116278 429.6434108527132 L 301.6434108527132 384 L 301.6434108527132 384 Q 336.3720930232558 367.13178294573646 356.2170542635659 335.37984496124034 Q 377.05426356589146 303.6279069767442 377.05426356589146 264.93023255813955 Q 376.06201550387595 210.35658914728683 339.3488372093023 172.65116279069767 Q 301.6434108527132 135.93798449612405 247.06976744186048 134.94573643410854 L 247.06976744186048 134.94573643410854 Z" />
</svg>