<svg xmlns="http://www.w3.org/2000/svg" viewBox="0 0 512 512">
  <path d="M 400.15533 34.796116 L 400.15533 162.05049 L 400.15533 34.796116 L 400.15533 162.05049 L 416.06213 162.05049 L 416.06213 162.05049 Q 429.9806 162.05049 438.92816 170.99806 Q 447.87573 179.94563 447.87573 193.86407 Q 447.87573 207.78253 438.92816 216.7301 Q 429.9806 225.67767 416.06213 225.67767 L 368.34174 225.67767 L 320.62137 225.67767 Q 306.7029 225.67767 297.75534 216.7301 Q 288.80777 207.78253 288.80777 193.86407 Q 288.80777 179.94563 297.75534 170.99806 Q 306.7029 162.05049 320.62137 162.05049 L 336.52817 162.05049 L 336.52817 162.05049 L 336.52817 78.5398 L 336.52817 78.5398 L 330.5631 80.52815 L 330.5631 80.52815 Q 317.63882 84.50485 306.7029 79.53398 Q 294.77283 73.56893 290.7961 60.64466 Q 286.81943 47.720387 291.79028 36.784466 Q 297.75534 24.854368 310.67963 20.87767 L 358.4 4.970874 L 358.4 4.970874 Q 373.31262 0 387.23108 8.947573 Q 400.15533 18.88932 400.15533 34.796116 L 400.15533 34.796116 Z M 177.46019 321.11844 L 177.46019 448.3728 L 177.46019 321.11844 L 177.46019 448.3728 L 193.36699 448.3728 L 193.36699 448.3728 Q 207.28543 448.3728 216.23302 457.32037 Q 225.18059 466.26797 225.18059 480.1864 Q 225.18059 494.10486 216.23302 503.05243 Q 207.28543 512 193.36699 512 L 145.6466 512 L 97.926216 512 Q 84.00777 512 75.060196 503.05243 Q 66.112625 494.10486 66.112625 480.1864 Q 66.112625 466.26797 75.060196 457.32037 Q 84.00777 448.3728 97.926216 448.3728 L 113.83301 448.3728 L 113.83301 448.3728 L 113.83301 364.86212 L 113.83301 364.86212 L 107.86796 366.8505 L 107.86796 366.8505 Q 94.94369 370.82718 84.00777 365.85632 Q 72.07767 359.89127 68.10097 346.96698 Q 64.124275 334.04272 69.095146 323.10678 Q 75.060196 311.1767 87.98447 307.2 L 135.70485 291.2932 L 135.70485 291.2932 Q 150.61748 286.32233 164.53592 295.2699 Q 176.46602 305.21164 177.46019 321.11844 L 177.46019 321.11844 Z M 66.112625 66.60971 Q 67.1068 39.76699 85.001945 21.871845 L 85.001945 21.871845 L 85.001945 21.871845 Q 102.89709 3.976699 129.7398 2.9825242 L 193.36699 2.9825242 L 193.36699 2.9825242 Q 220.2097 3.976699 238.10486 21.871845 Q 256 39.76699 256.99417 66.60971 L 256.99417 162.05049 L 256.99417 162.05049 Q 256 188.8932 238.10486 206.78835 Q 220.2097 224.6835 193.36699 225.67767 L 129.7398 225.67767 L 129.7398 225.67767 Q 102.89709 224.6835 85.001945 206.78835 Q 67.1068 188.8932 66.112625 162.05049 L 66.112625 66.60971 L 66.112625 66.60971 Z M 193.36699 66.60971 L 129.7398 66.60971 L 193.36699 66.60971 L 129.7398 66.60971 L 129.7398 162.05049 L 129.7398 162.05049 L 193.36699 162.05049 L 193.36699 162.05049 L 193.36699 66.60971 L 193.36699 66.60971 Z M 320.62137 289.30484 L 384.24854 289.30484 L 320.62137 289.30484 L 384.24854 289.30484 Q 411.09125 290.29904 428.98642 308.19418 Q 446.88156 326.08932 447.87573 352.93204 L 447.87573 448.3728 L 447.87573 448.3728 Q 446.88156 475.21555 428.98642 493.1107 Q 411.09125 511.00583 384.24854 512 L 320.62137 512 L 320.62137 512 Q 293.77866 511.00583 275.88348 493.1107 Q 257.98834 475.21555 256.99417 448.3728 L 256.99417 352.93204 L 256.99417 352.93204 Q 257.98834 326.08932 275.88348 308.19418 Q 293.77866 290.29904 320.62137 289.30484 L 320.62137 289.30484 Z M 320.62137 352.93204 L 320.62137 448.3728 L 320.62137 352.93204 L 320.62137 448.3728 L 384.24854 448.3728 L 384.24854 448.3728 L 384.24854 352.93204 L 384.24854 352.93204 L 320.62137 352.93204 L 320.62137 352.93204 Z" />
</svg>