<svg xmlns="http://www.w3.org/2000/svg" viewBox="0 0 512 480">
    <path d="M 473 7 Q 471 0 464 0 Q 457 0 455 7 L 448 32 L 423 39 Q 416 41 416 48 Q 416 55 423 57 L 448 64 L 455 89 Q 457 96 464 96 Q 471 96 473 89 L 480 64 L 505 57 Q 512 55 512 48 Q 512 41 505 39 L 480 32 L 473 7 L 473 7 Z M 64 256 L 57 231 Q 55 224 48 224 Q 41 224 39 231 L 32 256 L 7 263 Q 0 265 0 272 Q 0 279 7 281 L 32 288 L 39 313 Q 41 320 48 320 Q 55 320 57 313 L 64 288 L 89 281 Q 96 279 96 272 Q 96 265 89 263 L 64 256 L 64 256 Z M 296 480 L 384 480 Q 398 480 407 471 Q 416 462 416 448 Q 416 434 407 425 Q 398 416 384 416 L 128 416 Q 114 416 105 425 Q 96 434 96 448 Q 96 462 105 471 Q 114 480 128 480 L 216 480 L 296 480 L 296 480 Z"/>
</svg>
