<svg xmlns="http://www.w3.org/2000/svg" viewBox="0 0 512 512">
  <path d="M 402.85895 50.557995 Q 390.0188 51.3605 385.20377 62.59561 Q 380.3887 73.83072 389.2163 83.460815 L 420.5141 114.75862 L 420.5141 114.75862 L 402.85895 132.41379 L 402.85895 132.41379 Q 368.3511 102.721 319.39813 101.918495 Q 264.82758 103.52351 228.71474 139.63637 Q 192.60188 175.74922 190.99687 230.31975 Q 191.79938 279.27274 222.29468 314.58307 Q 252.78996 349.0909 300.13794 357.116 L 300.13794 377.9812 L 300.13794 377.9812 L 280.87775 377.9812 L 280.87775 377.9812 Q 263.22256 379.5862 261.61755 397.2414 Q 263.22256 414.89655 280.87775 416.50156 L 300.13794 416.50156 L 300.13794 416.50156 L 300.13794 442.18182 L 300.13794 442.18182 Q 301.74295 459.837 319.39813 461.44202 Q 337.05328 459.837 338.6583 442.18182 L 338.6583 416.50156 L 338.6583 416.50156 L 357.9185 416.50156 L 357.9185 416.50156 Q 375.57367 414.89655 377.17868 397.2414 Q 375.57367 379.5862 357.9185 377.9812 L 338.6583 377.9812 L 338.6583 377.9812 L 338.6583 357.116 L 338.6583 357.116 Q 386.00626 349.0909 416.50156 314.58307 Q 446.99686 279.27274 447.79938 230.31975 Q 446.99686 191.79938 427.73666 162.10658 L 447.79938 142.04388 L 447.79938 142.04388 L 479.09717 173.34169 L 479.09717 173.34169 Q 488.72726 181.36678 499.96237 177.35423 Q 511.19748 172.53918 512 159.69907 L 512 69.818184 L 512 69.818184 Q 510.395 52.16301 492.7398 50.557995 L 402.85895 50.557995 L 402.85895 50.557995 Z M 319.39813 153.27899 Q 340.26334 153.27899 357.9185 163.7116 L 357.9185 163.7116 L 357.9185 163.7116 Q 375.57367 174.1442 386.00626 191.79938 Q 396.43887 210.25705 396.43887 230.31975 Q 396.43887 250.38245 386.00626 268.84012 Q 375.57367 286.4953 357.9185 296.9279 Q 340.26334 307.3605 319.39813 307.3605 Q 298.53293 307.3605 280.87775 296.9279 Q 263.22256 286.4953 252.78996 268.84012 Q 242.35736 250.38245 242.35736 230.31975 Q 242.35736 210.25705 252.78996 191.79938 Q 263.22256 174.1442 280.87775 163.7116 Q 298.53293 153.27899 319.39813 153.27899 L 319.39813 153.27899 Z M 151.67398 65.003136 Q 148.46394 56.978058 139.63637 56.978058 Q 130.80878 56.978058 127.59875 65.003136 L 104.32602 124.38872 L 104.32602 124.38872 L 43.335423 105.93104 L 43.335423 105.93104 Q 34.507835 103.52351 28.890282 109.94357 Q 24.075235 117.166145 28.087774 124.38872 L 60.188087 179.76175 L 60.188087 179.76175 L 7.2225704 215.8746 L 7.2225704 215.8746 Q 0 221.49216 1.6050156 229.51724 Q 4.0125394 237.54231 12.840125 239.14734 L 75.43574 248.77744 L 75.43574 248.77744 L 71.423195 312.97806 L 71.423195 312.97806 Q 70.62069 321.80563 78.64577 325.81818 Q 85.86834 329.0282 92.2884 323.41064 L 139.63637 280.07523 L 139.63637 280.07523 L 186.98433 323.41064 L 186.98433 323.41064 Q 191.79938 328.2257 199.02194 326.6207 Q 166.11913 285.69278 165.31662 230.31975 Q 165.31662 193.40439 181.36678 162.10658 Q 196.61443 131.61128 223.09718 109.94357 L 174.9467 124.38872 L 174.9467 124.38872 L 151.67398 65.003136 L 151.67398 65.003136 Z" />
</svg>