<svg xmlns="http://www.w3.org/2000/svg" viewBox="0 0 512 512">
  <path d="M 0.9961089494163424 63.750972762645915 Q 1.9922178988326849 36.856031128404666 19.92217898832685 18.926070038910506 L 19.92217898832685 18.926070038910506 L 19.92217898832685 18.926070038910506 Q 37.85214007782101 0.9961089494163424 64.74708171206225 0 L 447.25291828793775 0 L 447.25291828793775 0 Q 474.147859922179 0.9961089494163424 492.07782101167317 18.926070038910506 Q 510.0077821011673 36.856031128404666 511.00389105058366 63.750972762645915 L 511.00389105058366 350.63035019455253 L 511.00389105058366 350.63035019455253 Q 510.0077821011673 377.5252918287938 492.07782101167317 395.45525291828795 Q 474.147859922179 413.3852140077821 447.25291828793775 414.38132295719845 L 308.79377431906613 414.38132295719845 L 308.79377431906613 414.38132295719845 L 186.27237354085602 507.0194552529183 L 186.27237354085602 507.0194552529183 Q 178.30350194552528 512 169.3385214007782 508.01556420233464 Q 160.37354085603113 504.0311284046693 160.37354085603113 494.07003891050584 L 160.37354085603113 414.38132295719845 L 160.37354085603113 414.38132295719845 L 64.74708171206225 414.38132295719845 L 64.74708171206225 414.38132295719845 Q 37.85214007782101 413.3852140077821 19.92217898832685 395.45525291828795 Q 1.9922178988326849 377.5252918287938 0.9961089494163424 350.63035019455253 L 0.9961089494163424 63.750972762645915 L 0.9961089494163424 63.750972762645915 Z M 176.3112840466926 127.50194552529183 Q 176.3112840466926 113.55642023346303 167.34630350194553 104.59143968871595 L 167.34630350194553 104.59143968871595 L 167.34630350194553 104.59143968871595 Q 158.38132295719845 95.62645914396887 144.43579766536965 95.62645914396887 Q 130.49027237354085 95.62645914396887 121.52529182879377 104.59143968871595 Q 112.56031128404669 113.55642023346303 112.56031128404669 127.50194552529183 Q 112.56031128404669 141.44747081712063 121.52529182879377 150.4124513618677 Q 130.49027237354085 159.3774319066148 144.43579766536965 159.3774319066148 Q 158.38132295719845 159.3774319066148 167.34630350194553 150.4124513618677 Q 176.3112840466926 141.44747081712063 176.3112840466926 127.50194552529183 L 176.3112840466926 127.50194552529183 Z M 295.84435797665367 127.50194552529183 Q 282.89494163424126 127.50194552529183 275.92217898832683 138.4591439688716 L 220.1400778210117 222.13229571984436 L 220.1400778210117 222.13229571984436 L 203.20622568093384 200.21789883268482 L 203.20622568093384 200.21789883268482 Q 195.2373540856031 191.25291828793775 184.28015564202335 191.25291828793775 Q 173.3229571984436 191.25291828793775 165.35408560311285 200.21789883268482 L 101.60311284046692 279.9066147859922 L 101.60311284046692 279.9066147859922 Q 93.63424124513618 291.8599221789883 98.6147859922179 304.8093385214008 Q 105.58754863813229 317.75875486381324 120.52918287937743 318.7548638132296 L 200.21789883268482 318.7548638132296 L 391.47081712062254 318.7548638132296 Q 405.41634241245134 318.7548638132296 412.3891050583658 305.8054474708171 Q 418.3657587548638 293.852140077821 411.39299610894943 281.8988326848249 L 315.76653696498056 138.4591439688716 L 315.76653696498056 138.4591439688716 Q 308.79377431906613 127.50194552529183 295.84435797665367 127.50194552529183 L 295.84435797665367 127.50194552529183 Z" />
</svg>