<svg xmlns="http://www.w3.org/2000/svg" viewBox="0 0 512 512">
  <path d="M 476.3973509933775 266.17218543046357 Q 512 228.02649006622516 512 178.86092715231788 L 512 178.86092715231788 L 512 178.86092715231788 Q 512 130.5430463576159 476.3973509933775 92.39735099337749 Q 443.3377483443709 61.033112582781456 399.2582781456954 56.794701986754966 Q 356.02649006622516 53.40397350993378 318.72847682119203 79.68211920529801 L 317.0331125827815 80.52980132450331 L 317.0331125827815 80.52980132450331 Q 307.7086092715232 87.3112582781457 306.0132450331126 98.33112582781457 Q 304.317880794702 108.50331125827815 311.0993377483444 118.67549668874172 Q 317.88079470198676 127.1523178807947 328.05298013245033 128.8476821192053 Q 339.07284768211923 131.39072847682118 348.3973509933775 124.6092715231788 L 350.0927152317881 123.76158940397352 L 350.0927152317881 123.76158940397352 Q 371.28476821192055 109.35099337748345 395.0198675496689 111.04635761589404 Q 419.6026490066225 112.74172185430463 438.25165562913907 130.5430463576159 Q 457.74834437086093 151.73509933774835 457.74834437086093 178.86092715231788 Q 457.74834437086093 206.83443708609272 438.25165562913907 227.17880794701986 L 342.4635761589404 322.9668874172185 L 342.4635761589404 322.9668874172185 Q 321.27152317880797 342.4635761589404 294.1456953642384 342.4635761589404 Q 267.0198675496689 342.4635761589404 245.82781456953643 322.9668874172185 Q 228.02649006622516 304.317880794702 226.33112582781456 279.73509933774835 Q 224.63576158940398 256 239.04635761589404 234.80794701986756 L 239.89403973509934 233.11258278145695 L 239.89403973509934 233.11258278145695 Q 245.82781456953643 223.78807947019868 244.13245033112582 213.6158940397351 Q 242.43708609271522 202.59602649006624 233.11258278145695 195.81456953642385 Q 223.78807947019868 189.03311258278146 213.6158940397351 190.72847682119206 Q 202.59602649006624 192.42384105960264 195.81456953642385 201.74834437086093 L 194.96688741721854 203.4437086092715 L 194.96688741721854 203.4437086092715 Q 168.6887417218543 240.74172185430464 172.0794701986755 284.8211920529801 Q 175.47019867549668 328.05298013245033 207.68211920529802 361.112582781457 Q 245.82781456953643 396.71523178807945 294.1456953642384 396.71523178807945 Q 343.3112582781457 396.71523178807945 381.4569536423841 361.112582781457 L 476.3973509933775 266.17218543046357 L 476.3973509933775 266.17218543046357 Z M 35.602649006622514 245.82781456953643 Q 0 283.97350993377484 0 333.13907284768214 L 0 333.13907284768214 L 0 333.13907284768214 Q 0 381.4569536423841 35.602649006622514 419.6026490066225 Q 68.66225165562913 450.9668874172185 112.74172185430463 455.20529801324506 Q 155.97350993377484 458.5960264900662 194.11920529801324 432.317880794702 L 194.96688741721854 431.4701986754967 L 194.96688741721854 431.4701986754967 Q 204.2913907284768 424.6887417218543 205.98675496688742 413.66887417218544 Q 207.68211920529802 403.49668874172187 201.74834437086093 393.3245033112583 Q 194.11920529801324 384.8476821192053 183.94701986754967 383.1523178807947 Q 172.9271523178808 380.6092715231788 163.60264900662253 387.3907284768212 L 161.90728476821192 388.2384105960265 L 161.90728476821192 388.2384105960265 Q 140.71523178807948 402.64900662251654 116.98013245033113 400.95364238410593 Q 92.39735099337749 399.2582781456954 73.74834437086092 381.4569536423841 Q 54.25165562913907 360.26490066225165 54.25165562913907 333.13907284768214 Q 54.25165562913907 305.1655629139073 74.59602649006622 284.8211920529801 L 169.53642384105962 189.03311258278146 L 169.53642384105962 189.03311258278146 Q 190.72847682119206 169.53642384105962 217.8543046357616 169.53642384105962 Q 244.98013245033113 169.53642384105962 266.17218543046357 189.03311258278146 Q 283.97350993377484 207.68211920529802 285.66887417218544 232.26490066225165 Q 287.36423841059604 256 272.95364238410593 277.1920529801325 L 272.10596026490066 278.887417218543 L 272.10596026490066 278.887417218543 Q 266.17218543046357 288.2119205298013 267.8675496688742 299.2317880794702 Q 269.5629139072848 309.4039735099338 278.887417218543 316.18543046357615 Q 288.2119205298013 322.9668874172185 298.3841059602649 321.27152317880797 Q 309.4039735099338 319.57615894039736 316.18543046357615 310.25165562913907 L 317.0331125827815 308.55629139072846 L 317.0331125827815 308.55629139072846 Q 343.3112582781457 271.2582781456954 339.9205298013245 227.17880794701986 Q 336.5298013245033 183.94701986754967 304.317880794702 150.88741721854305 Q 266.17218543046357 115.28476821192054 217.8543046357616 115.28476821192054 Q 168.6887417218543 115.28476821192054 131.39072847682118 150.88741721854305 L 35.602649006622514 245.82781456953643 L 35.602649006622514 245.82781456953643 Z" />
</svg>