<svg xmlns="http://www.w3.org/2000/svg" viewBox="0 0 448 512">
    <path d="M 297 9 Q 307 0 320 0 L 320 0 Q 333 0 343 9 L 439 105 Q 448 115 448 128 Q 448 141 439 151 L 343 247 Q 333 256 320 256 Q 307 256 297 247 Q 288 237 288 224 Q 288 211 297 201 L 339 160 L 128 160 Q 101 161 83 179 Q 65 197 64 224 L 64 256 Q 64 270 55 279 Q 46 288 32 288 Q 18 288 9 279 Q 0 270 0 256 L 0 224 Q 1 170 37 133 Q 74 97 128 96 L 339 96 L 297 55 Q 288 45 288 32 Q 288 19 297 9 L 297 9 Z M 201 265 Q 211 256 224 256 L 224 256 Q 237 256 247 265 L 343 361 Q 352 371 352 384 Q 352 397 343 407 L 247 503 Q 237 512 224 512 Q 211 512 201 503 Q 192 493 192 480 Q 192 467 201 457 L 243 416 L 96 416 Q 82 416 73 425 Q 64 434 64 448 L 64 480 Q 64 494 55 503 Q 46 512 32 512 Q 18 512 9 503 Q 0 494 0 480 L 0 448 Q 1 407 28 380 Q 55 353 96 352 L 243 352 L 201 311 Q 192 301 192 288 Q 192 275 201 265 L 201 265 Z"/>
</svg>
