<svg xmlns="http://www.w3.org/2000/svg" viewBox="0 0 512 512">
  <path d="M 36.01223241590214 59.49847094801223 Q 21.137614678899084 50.103975535168196 9.394495412844037 62.62996941896024 Q 0 77.5045871559633 12.525993883792049 89.24770642201835 L 475.98776758409787 452.50152905198775 L 475.98776758409787 452.50152905198775 Q 490.86238532110093 461.8960244648318 502.60550458715596 449.37003058103977 Q 512 434.4954128440367 499.47400611620793 422.7522935779817 L 326.45871559633025 287.31498470948014 L 326.45871559633025 287.31498470948014 L 385.9571865443425 227.8165137614679 L 385.9571865443425 227.8165137614679 L 284.1834862385321 126.0428134556575 L 284.1834862385321 126.0428134556575 L 212.15902140672782 198.06727828746176 L 212.15902140672782 198.06727828746176 L 36.01223241590214 59.49847094801223 L 36.01223241590214 59.49847094801223 Z M 272.4403669724771 341.3333333333333 L 158.92354740061162 251.30275229357798 L 272.4403669724771 341.3333333333333 L 158.92354740061162 251.30275229357798 L 101.7737003058104 309.2354740061162 L 101.7737003058104 309.2354740061162 Q 89.24770642201835 320.9785932721713 83.76758409785933 338.20183486238534 L 56.36697247706422 432.1467889908257 L 56.36697247706422 432.1467889908257 Q 53.235474006116206 443.1070336391437 61.06422018348624 450.9357798165138 Q 68.89296636085626 457.9816513761468 79.85321100917432 455.6330275229358 L 173.7981651376147 428.23241590214064 L 173.7981651376147 428.23241590214064 Q 191.02140672782875 422.7522935779817 203.5474006116208 410.2262996941896 L 272.4403669724771 341.3333333333333 L 272.4403669724771 341.3333333333333 Z M 339.76758409785936 70.45871559633028 L 301.40672782874617 108.81957186544342 L 339.76758409785936 70.45871559633028 L 301.40672782874617 108.81957186544342 L 403.18042813455656 210.59327217125383 L 403.18042813455656 210.59327217125383 L 441.54128440366975 172.23241590214067 L 441.54128440366975 172.23241590214067 Q 455.6330275229358 157.3577981651376 455.6330275229358 137.00305810397555 Q 455.6330275229358 117.43119266055047 441.54128440366975 101.7737003058104 L 410.2262996941896 70.45871559633028 L 410.2262996941896 70.45871559633028 Q 395.35168195718654 56.36697247706422 374.99694189602445 56.36697247706422 Q 355.4250764525994 56.36697247706422 339.76758409785936 70.45871559633028 L 339.76758409785936 70.45871559633028 Z" />
</svg>