<svg xmlns="http://www.w3.org/2000/svg" viewBox="0 0 512 512">
  <path d="M 85.33333333333333 85.33333333333333 Q 86.22222222222223 61.333333333333336 102.22222222222223 45.333333333333336 L 102.22222222222223 45.333333333333336 L 102.22222222222223 45.333333333333336 Q 118.22222222222223 29.333333333333332 142.22222222222223 28.444444444444443 L 369.77777777777777 28.444444444444443 L 369.77777777777777 28.444444444444443 Q 393.77777777777777 29.333333333333332 409.77777777777777 45.333333333333336 Q 425.77777777777777 61.333333333333336 426.6666666666667 85.33333333333333 L 426.6666666666667 426.6666666666667 L 426.6666666666667 426.6666666666667 L 483.55555555555554 426.6666666666667 L 483.55555555555554 426.6666666666667 Q 496 426.6666666666667 504 434.6666666666667 Q 512 442.6666666666667 512 455.1111111111111 Q 512 467.55555555555554 504 475.55555555555554 Q 496 483.55555555555554 483.55555555555554 483.55555555555554 L 384 483.55555555555554 L 28.444444444444443 483.55555555555554 Q 16 483.55555555555554 8 475.55555555555554 Q 0 467.55555555555554 0 455.1111111111111 Q 0 442.6666666666667 8 434.6666666666667 Q 16 426.6666666666667 28.444444444444443 426.6666666666667 L 85.33333333333333 426.6666666666667 L 85.33333333333333 426.6666666666667 L 85.33333333333333 85.33333333333333 L 85.33333333333333 85.33333333333333 Z M 341.3333333333333 284.44444444444446 Q 353.77777777777777 284.44444444444446 361.77777777777777 276.44444444444446 L 361.77777777777777 276.44444444444446 L 361.77777777777777 276.44444444444446 Q 369.77777777777777 268.44444444444446 369.77777777777777 256 Q 369.77777777777777 243.55555555555554 361.77777777777777 235.55555555555554 Q 353.77777777777777 227.55555555555554 341.3333333333333 227.55555555555554 Q 328.8888888888889 227.55555555555554 320.8888888888889 235.55555555555554 Q 312.8888888888889 243.55555555555554 312.8888888888889 256 Q 312.8888888888889 268.44444444444446 320.8888888888889 276.44444444444446 Q 328.8888888888889 284.44444444444446 341.3333333333333 284.44444444444446 L 341.3333333333333 284.44444444444446 Z" />
</svg>