<svg xmlns="http://www.w3.org/2000/svg" viewBox="0 0 512 512">
  <path d="M 259.19003 57.819313 Q 248.02492 50.641743 236.0623 54.629284 L 197.78194 67.389404 L 197.78194 67.389404 Q 187.41434 70.57944 182.62929 80.149536 Q 178.64174 88.92212 181.83177 99.28972 Q 185.0218 109.65732 194.5919 114.44237 Q 203.36449 118.42991 213.73209 115.239876 L 218.51714 113.64486 L 218.51714 113.64486 L 218.51714 180.63551 L 218.51714 180.63551 L 205.757 180.63551 L 205.757 180.63551 Q 194.5919 180.63551 187.41434 187.81308 Q 180.23676 194.99066 180.23676 206.15576 Q 180.23676 217.32088 187.41434 224.49844 Q 194.5919 231.67601 205.757 231.67601 L 244.03738 231.67601 L 282.31775 231.67601 Q 293.48288 231.67601 300.66043 224.49844 Q 307.838 217.32088 307.838 206.15576 Q 307.838 194.99066 300.66043 187.81308 Q 293.48288 180.63551 282.31775 180.63551 L 269.55762 180.63551 L 269.55762 180.63551 L 269.55762 78.55452 L 269.55762 78.55452 Q 269.55762 65.794395 259.19003 57.819313 L 259.19003 57.819313 Z M 80.54829 287.50156 Q 69.38318 280.32397 57.42056 284.31152 L 19.140186 297.07166 L 19.140186 297.07166 Q 8.772586 300.2617 3.987539 309.8318 Q 0 318.60437 3.190031 328.97195 Q 6.380062 339.33957 15.950156 344.1246 Q 24.722742 348.11215 35.090343 344.92212 L 39.87539 343.32712 L 39.87539 343.32712 L 39.87539 410.31775 L 39.87539 410.31775 L 27.115265 410.31775 L 27.115265 410.31775 Q 15.950156 410.31775 8.772586 417.49533 Q 1.5950155 424.67288 1.5950155 435.838 Q 1.5950155 447.0031 8.772586 454.1807 Q 15.950156 461.35825 27.115265 461.35825 L 65.39564 461.35825 L 103.67601 461.35825 Q 114.84112 461.35825 122.01869 454.1807 Q 129.19626 447.0031 129.19626 435.838 Q 129.19626 424.67288 122.01869 417.49533 Q 114.84112 410.31775 103.67601 410.31775 L 90.915886 410.31775 L 90.915886 410.31775 L 90.915886 308.23676 L 90.915886 308.23676 Q 90.915886 295.47662 80.54829 287.50156 L 80.54829 287.50156 Z M 52.635513 53.034267 Q 31.102804 53.831776 16.747663 68.18691 L 16.747663 68.18691 L 16.747663 68.18691 Q 2.3925233 82.54205 1.5950155 104.07477 L 1.5950155 180.63551 L 1.5950155 180.63551 Q 2.3925233 202.16823 16.747663 216.52336 Q 31.102804 230.87851 52.635513 231.67601 L 103.67601 231.67601 L 103.67601 231.67601 Q 125.208725 230.87851 139.56386 216.52336 Q 153.919 202.16823 154.7165 180.63551 L 154.7165 104.07477 L 154.7165 104.07477 Q 153.919 82.54205 139.56386 68.18691 Q 125.208725 53.831776 103.67601 53.034267 L 52.635513 53.034267 L 52.635513 53.034267 Z M 52.635513 104.07477 L 103.67601 104.07477 L 52.635513 104.07477 L 103.67601 104.07477 L 103.67601 180.63551 L 103.67601 180.63551 L 52.635513 180.63551 L 52.635513 180.63551 L 52.635513 104.07477 L 52.635513 104.07477 Z M 154.7165 333.75702 L 154.7165 410.31775 L 154.7165 333.75702 L 154.7165 410.31775 Q 155.51402 431.85046 169.86916 446.2056 Q 184.2243 460.56076 205.757 461.35825 L 256.79752 461.35825 L 256.79752 461.35825 Q 278.33023 460.56076 292.68536 446.2056 Q 307.0405 431.85046 307.838 410.31775 L 307.838 333.75702 L 307.838 333.75702 Q 307.0405 312.2243 292.68536 297.86917 Q 278.33023 283.514 256.79752 282.71652 L 205.757 282.71652 L 205.757 282.71652 Q 184.2243 283.514 169.86916 297.86917 Q 155.51402 312.2243 154.7165 333.75702 L 154.7165 333.75702 Z M 256.79752 333.75702 L 256.79752 410.31775 L 256.79752 333.75702 L 256.79752 410.31775 L 205.757 410.31775 L 205.757 410.31775 L 205.757 333.75702 L 205.757 333.75702 L 256.79752 333.75702 L 256.79752 333.75702 Z M 422.67914 244.43614 Q 433.84424 244.43614 441.02182 251.61371 L 441.02182 251.61371 L 441.02182 251.61371 Q 448.19937 258.7913 448.19937 269.9564 L 448.19937 308.23676 L 448.19937 308.23676 L 397.15887 308.23676 L 397.15887 308.23676 L 397.15887 269.9564 L 397.15887 269.9564 Q 397.15887 258.7913 404.33646 251.61371 Q 411.514 244.43614 422.67914 244.43614 L 422.67914 244.43614 Z M 358.8785 269.9564 L 358.8785 308.23676 L 358.8785 269.9564 L 358.8785 308.23676 Q 347.7134 308.23676 340.53583 315.41434 Q 333.35825 322.5919 333.35825 333.75702 L 333.35825 435.838 L 333.35825 435.838 Q 333.35825 447.0031 340.53583 454.1807 Q 347.7134 461.35825 358.8785 461.35825 L 486.47974 461.35825 L 486.47974 461.35825 Q 497.64487 461.35825 504.82242 454.1807 Q 512 447.0031 512 435.838 L 512 333.75702 L 512 333.75702 Q 512 322.5919 504.82242 315.41434 Q 497.64487 308.23676 486.47974 308.23676 L 486.47974 269.9564 L 486.47974 269.9564 Q 485.68225 242.84113 468.1371 224.49844 Q 449.7944 206.95328 422.67914 206.15576 Q 395.56387 206.95328 377.2212 224.49844 Q 359.67603 242.84113 358.8785 269.9564 L 358.8785 269.9564 Z" />
</svg>