<svg xmlns="http://www.w3.org/2000/svg" viewBox="0 0 512 512">
  <path d="M 0 73.14286 Q 1.1428572 42.285713 21.714285 21.714285 L 21.714285 21.714285 L 21.714285 21.714285 Q 42.285713 1.1428572 73.14286 0 L 438.85715 0 L 438.85715 0 Q 469.7143 1.1428572 490.2857 21.714285 Q 510.85715 42.285713 512 73.14286 L 512 438.85715 L 512 438.85715 Q 510.85715 469.7143 490.2857 490.2857 Q 469.7143 510.85715 438.85715 512 L 73.14286 512 L 73.14286 512 Q 42.285713 510.85715 21.714285 490.2857 Q 1.1428572 469.7143 0 438.85715 L 0 73.14286 L 0 73.14286 Z M 256 82.28571 Q 244.57143 82.28571 240 92.57143 L 198.85715 176 L 198.85715 176 L 106.28571 189.71428 L 106.28571 189.71428 Q 94.85714 192 91.42857 202.28572 Q 88 212.57143 96 220.57143 L 162.28572 286.85715 L 162.28572 286.85715 L 146.28572 378.2857 L 146.28572 378.2857 Q 145.14285 389.7143 154.28572 396.57144 Q 163.42857 402.2857 173.71428 397.7143 L 256 354.2857 L 256 354.2857 L 339.42856 397.7143 L 339.42856 397.7143 Q 348.57144 402.2857 357.7143 396.57144 Q 366.85715 389.7143 365.7143 378.2857 L 349.7143 286.85715 L 349.7143 286.85715 L 417.14285 221.71428 L 417.14285 221.71428 Q 424 212.57143 421.7143 202.28572 Q 417.14285 192 406.85715 189.71428 L 314.2857 176 L 314.2857 176 L 272 92.57143 L 272 92.57143 Q 267.42856 82.28571 256 82.28571 L 256 82.28571 Z" />
</svg>