<svg xmlns="http://www.w3.org/2000/svg" viewBox="0 0 384 512">
    <path d="M 64 0 Q 37 1 19 19 L 19 19 Q 1 37 0 64 L 0 448 Q 1 475 19 493 Q 37 511 64 512 L 320 512 Q 347 511 365 493 Q 383 475 384 448 L 384 160 L 256 160 Q 242 160 233 151 Q 224 142 224 128 L 224 0 L 64 0 L 64 0 Z M 256 0 L 256 128 L 384 128 L 256 0 L 256 0 Z M 272 304 Q 272 331 259 353 L 297 391 Q 311 408 297 425 Q 280 439 263 425 L 225 387 Q 203 400 176 400 Q 135 399 108 372 Q 81 345 80 304 Q 81 263 108 236 Q 135 209 176 208 Q 217 209 244 236 Q 271 263 272 304 L 272 304 Z M 176 352 Q 203 351 218 328 Q 230 304 218 280 Q 203 257 176 256 Q 149 257 134 280 Q 122 304 134 328 Q 149 351 176 352 L 176 352 Z"/>
</svg>
