<svg xmlns="http://www.w3.org/2000/svg" viewBox="0 0 448 448">
    <path d="M 254 21 Q 245 1 224 0 Q 203 1 194 21 L 58 384 L 32 384 Q 18 384 9 393 Q 0 402 0 416 Q 0 430 9 439 Q 18 448 32 448 L 128 448 Q 142 448 151 439 Q 160 430 160 416 Q 160 402 151 393 Q 142 384 128 384 L 126 384 L 144 336 L 304 336 L 322 384 L 320 384 Q 306 384 297 393 Q 288 402 288 416 Q 288 430 297 439 Q 306 448 320 448 L 416 448 Q 430 448 439 439 Q 448 430 448 416 Q 448 402 439 393 Q 430 384 416 384 L 390 384 L 254 21 L 254 21 Z M 280 272 L 168 272 L 224 123 L 280 272 L 280 272 Z"/>
</svg>
