<svg xmlns="http://www.w3.org/2000/svg" viewBox="0 0 512 512">
  <path d="M 361.17828 2.9767442 Q 368.12402 6.9457364 370.10852 14.883721 L 389.9535 122.04651 L 389.9535 122.04651 L 497.11627 141.89148 L 497.11627 141.89148 Q 505.05426 143.87598 509.02325 150.8217 Q 512 158.75969 507.03876 166.69768 L 445.51938 256 L 445.51938 256 L 507.03876 345.30234 L 507.03876 345.30234 Q 512 353.2403 509.02325 361.17828 Q 505.05426 368.12402 497.11627 370.10852 L 389.9535 389.9535 L 389.9535 389.9535 L 370.10852 497.11627 L 370.10852 497.11627 Q 368.12402 505.05426 361.17828 509.02325 Q 353.2403 512 345.30234 507.03876 L 256 445.51938 L 256 445.51938 L 166.69768 507.03876 L 166.69768 507.03876 Q 158.75969 512 151.81395 509.02325 Q 143.87598 505.05426 141.89148 497.11627 L 122.04651 389.9535 L 122.04651 389.9535 L 14.883721 370.10852 L 14.883721 370.10852 Q 6.9457364 368.12402 2.9767442 361.17828 Q 0 353.2403 4.9612403 345.30234 L 66.48062 256 L 66.48062 256 L 4.9612403 166.69768 L 4.9612403 166.69768 Q 0 158.75969 2.9767442 151.81395 Q 6.9457364 143.87598 14.883721 141.89148 L 122.04651 122.04651 L 122.04651 122.04651 L 141.89148 14.883721 L 141.89148 14.883721 Q 143.87598 6.9457364 151.81395 2.9767442 Q 158.75969 0 166.69768 4.9612403 L 256 66.48062 L 256 66.48062 L 345.30234 4.9612403 L 345.30234 4.9612403 Q 353.2403 0 361.17828 2.9767442 L 361.17828 2.9767442 Z M 160.74419 256 Q 160.74419 230.20155 173.64342 208.37209 L 173.64342 208.37209 L 173.64342 208.37209 Q 186.54263 186.54263 208.37209 173.64342 Q 231.1938 160.74419 256 160.74419 Q 280.8062 160.74419 303.6279 173.64342 Q 325.45737 186.54263 338.3566 208.37209 Q 351.25583 230.20155 351.25583 256 Q 351.25583 281.79846 338.3566 303.6279 Q 325.45737 325.45737 303.6279 338.3566 Q 280.8062 351.25583 256 351.25583 Q 231.1938 351.25583 208.37209 338.3566 Q 186.54263 325.45737 173.64342 303.6279 Q 160.74419 281.79846 160.74419 256 L 160.74419 256 Z M 383.00775 256 Q 383.00775 221.27132 366.13953 192.49612 L 366.13953 192.49612 L 366.13953 192.49612 Q 349.27133 163.72093 319.50388 145.86046 Q 289.73642 128.99225 256 128.99225 Q 222.26357 128.99225 192.49612 145.86046 Q 162.72868 163.72093 145.86046 192.49612 Q 128.99225 221.27132 128.99225 256 Q 128.99225 290.72867 145.86046 319.50388 Q 162.72868 348.27908 192.49612 366.13953 Q 222.26357 383.00775 256 383.00775 Q 289.73642 383.00775 319.50388 366.13953 Q 349.27133 348.27908 366.13953 319.50388 Q 383.00775 290.72867 383.00775 256 L 383.00775 256 Z" />
</svg>