<svg xmlns="http://www.w3.org/2000/svg" viewBox="0 0 512 512">
  <path d="M 351.62646 256 Q 351.62646 288.87158 348.63812 319.75098 L 281.89883 319.75098 L 281.89883 319.75098 L 293.85214 276.91827 L 293.85214 276.91827 Q 300.8249 249.02724 281.89883 230.10117 Q 262.97275 211.1751 235.08171 218.14786 L 160.37354 240.06226 L 160.37354 240.06226 Q 161.36964 215.15953 163.36186 192.24902 L 348.63812 192.24902 L 348.63812 192.24902 Q 351.62646 223.1284 351.62646 256 L 351.62646 256 Z M 20.918287 280.9027 Q 10.957198 283.89105 2.9883268 290.8638 Q 0.99610895 273.92996 0.99610895 256 Q 0.99610895 223.1284 8.96498 192.24902 L 131.48637 192.24902 L 131.48637 192.24902 Q 128.49805 220.14008 128.49805 249.02724 L 20.918287 280.9027 L 20.918287 280.9027 Z M 231.09727 491.08173 L 271.93774 351.62646 L 231.09727 491.08173 L 271.93774 351.62646 L 343.6576 351.62646 L 343.6576 351.62646 Q 334.6926 406.41245 316.76263 446.2568 Q 300.8249 481.12064 283.89105 497.05838 Q 266.95718 512 256 511.0039 Q 245.0428 512 229.10506 498.05447 Q 230.10117 494.07004 231.09727 491.08173 L 231.09727 491.08173 Z M 380.5136 192.24902 L 503.03503 192.24902 L 380.5136 192.24902 L 503.03503 192.24902 Q 511.0039 223.1284 511.0039 256 Q 511.0039 288.87158 503.03503 319.75098 L 380.5136 319.75098 L 380.5136 319.75098 Q 383.50195 288.87158 383.50195 256 Q 383.50195 223.1284 380.5136 192.24902 L 380.5136 192.24902 Z M 492.07782 160.37354 L 376.52917 160.37354 L 492.07782 160.37354 L 376.52917 160.37354 Q 360.59143 62.754864 320.74707 8.96498 Q 380.5136 25.898832 425.33853 64.74708 Q 469.16733 104.59144 492.07782 160.37354 L 492.07782 160.37354 Z M 168.3424 160.37354 Q 177.30739 105.58755 195.23735 65.74319 Q 211.1751 30.879377 228.10895 14.941634 Q 245.0428 0 256 0.99610895 Q 266.95718 0 283.89105 14.941634 Q 300.8249 30.879377 316.76263 65.74319 Q 334.6926 105.58755 343.6576 160.37354 L 168.3424 160.37354 L 168.3424 160.37354 Z M 135.47081 160.37354 L 19.922178 160.37354 L 135.47081 160.37354 L 19.922178 160.37354 Q 42.832684 104.59144 86.661476 64.74708 Q 131.48637 25.898832 191.25291 8.96498 Q 151.40855 62.754864 135.47081 160.37354 L 135.47081 160.37354 Z M 492.07782 351.62646 Q 469.16733 407.40857 425.33853 447.25293 L 425.33853 447.25293 L 425.33853 447.25293 Q 380.5136 486.10117 321.7432 503.03503 Q 360.59143 449.24515 376.52917 351.62646 L 492.07782 351.62646 L 492.07782 351.62646 Z M 39.844357 308.79376 L 244.04669 248.03113 L 39.844357 308.79376 L 244.04669 248.03113 Q 253.01167 246.03891 259.98444 252.01556 Q 265.9611 258.9883 263.96887 267.9533 L 204.20233 472.15564 L 204.20233 472.15564 Q 200.2179 483.11285 190.2568 483.11285 Q 180.29572 484.10895 174.31906 475.14398 L 145.4319 417.36966 L 145.4319 417.36966 Q 144.43579 415.37744 143.43968 414.38132 L 55.7821 502.0389 L 55.7821 502.0389 Q 45.82101 511.0039 32.871593 511.0039 Q 19.922178 511.0039 9.961089 502.0389 Q 0.99610895 492.07782 0.99610895 479.12842 Q 0.99610895 466.179 9.961089 456.2179 L 97.618675 368.5603 L 97.618675 368.5603 Q 96.62257 367.5642 94.63035 366.56808 L 36.85603 337.68094 L 36.85603 337.68094 Q 27.89105 331.70428 28.88716 321.7432 Q 28.88716 311.7821 39.844357 308.79376 L 39.844357 308.79376 Z" />
</svg>