<svg xmlns="http://www.w3.org/2000/svg" viewBox="0 0 576 473">
    <path d="M 48 261 L 228 430 Q 240 441 256 441 Q 272 441 284 430 L 286 428 Q 257 385 256 329 Q 258 254 308 205 Q 357 155 432 153 Q 475 153 511 172 Q 512 162 512 152 L 512 146 Q 511 92 478 54 Q 445 15 393 5 Q 358 0 325 10 Q 293 20 268 45 L 256 57 L 244 45 Q 219 20 187 10 Q 154 0 119 5 Q 67 15 34 54 Q 1 92 0 146 L 0 152 Q 1 217 48 261 L 48 261 Z M 576 329 Q 576 290 557 257 L 557 257 Q 538 224 504 204 Q 470 185 432 185 Q 394 185 360 204 Q 326 224 307 257 Q 288 290 288 329 Q 288 368 307 401 Q 326 434 360 454 Q 394 473 432 473 Q 470 473 504 454 Q 538 434 557 401 Q 576 368 576 329 L 576 329 Z M 499 286 Q 509 297 499 308 L 427 380 Q 416 390 405 380 L 365 340 Q 355 329 365 318 Q 376 308 387 318 L 416 346 L 477 286 Q 488 276 499 286 L 499 286 Z"/>
</svg>
