<svg xmlns="http://www.w3.org/2000/svg" viewBox="0 0 512 512">
  <path d="M 128 64 L 128 160 L 128 64 L 128 160 L 192 160 L 192 160 L 192 64 L 192 64 L 387 64 L 387 64 L 416 93 L 416 93 L 416 160 L 416 160 L 480 160 L 480 160 L 480 93 L 480 93 Q 480 67 461 48 L 432 19 L 432 19 Q 413 0 387 0 L 192 0 L 192 0 Q 165 1 147 19 Q 129 37 128 64 L 128 64 Z M 0 160 L 0 480 L 0 160 L 0 480 Q 0 494 9 503 Q 18 512 32 512 L 64 512 L 64 512 Q 78 512 87 503 Q 96 494 96 480 L 96 160 L 96 160 Q 96 146 87 137 Q 78 128 64 128 L 32 128 L 32 128 Q 18 128 9 137 Q 0 146 0 160 L 0 160 Z M 480 192 L 128 192 L 480 192 L 128 192 L 128 480 L 128 480 Q 128 494 137 503 Q 146 512 160 512 L 480 512 L 480 512 Q 494 512 503 503 Q 512 494 512 480 L 512 224 L 512 224 Q 512 210 503 201 Q 494 192 480 192 L 480 192 Z M 256 256 Q 270 256 279 265 L 279 265 L 279 265 Q 288 274 288 288 Q 288 302 279 311 Q 270 320 256 320 Q 242 320 233 311 Q 224 302 224 288 Q 224 274 233 265 Q 242 256 256 256 L 256 256 Z M 352 288 Q 352 274 361 265 L 361 265 L 361 265 Q 370 256 384 256 Q 398 256 407 265 Q 416 274 416 288 Q 416 302 407 311 Q 398 320 384 320 Q 370 320 361 311 Q 352 302 352 288 L 352 288 Z M 384 384 Q 398 384 407 393 L 407 393 L 407 393 Q 416 402 416 416 Q 416 430 407 439 Q 398 448 384 448 Q 370 448 361 439 Q 352 430 352 416 Q 352 402 361 393 Q 370 384 384 384 L 384 384 Z M 224 416 Q 224 402 233 393 L 233 393 L 233 393 Q 242 384 256 384 Q 270 384 279 393 Q 288 402 288 416 Q 288 430 279 439 Q 270 448 256 448 Q 242 448 233 439 Q 224 430 224 416 L 224 416 Z" />
</svg>