<svg xmlns="http://www.w3.org/2000/svg" viewBox="0 0 512 512">
  <path d="M 312 52.8 Q 323.2 55.2 328.8 63.2 L 328.8 63.2 L 328.8 63.2 Q 334.4 72 332 82.4 L 327.2 108 L 327.2 108 L 317.6 154.4 L 317.6 154.4 L 268.8 154.4 L 268.8 154.4 Q 256.8 155.2 256 167.2 Q 256.8 179.2 268.8 180 L 312.8 180 L 312.8 180 L 304.8 218.4 L 304.8 218.4 L 256 218.4 L 256 218.4 Q 244 219.2 243.2 231.2 Q 244 243.2 256 244 L 305.6 244 L 305.6 244 L 368.8 272 L 368.8 272 Q 383.2 279.2 384 295.2 L 384 359.2 L 384 359.2 Q 384 370.4 376.8 377.6 Q 369.6 384.8 358.4 384.8 L 96 384.8 L 96 384.8 Q 84 384.8 76 375.2 Q 68.8 365.6 71.2 354.4 L 90.4 255.2 L 90.4 255.2 Q 94.4 254.4 98.4 253.6 Q 117.6 249.6 144.8 232 Q 171.2 215.2 194.4 177.6 Q 216.8 140.8 228.8 77.6 L 280.8 77.6 L 280.8 77.6 L 282.4 72.8 L 282.4 72.8 Q 284.8 61.6 292.8 56 Q 301.6 50.4 312 52.8 L 312 52.8 Z M 130.4 211.2 Q 111.2 224 96 228 L 122.4 98.4 L 122.4 98.4 Q 127.2 79.2 147.2 77.6 L 202.4 77.6 L 202.4 77.6 Q 191.2 134.4 171.2 166.4 Q 151.2 197.6 130.4 211.2 L 130.4 211.2 Z M 512 384.8 Q 511.2 417.6 489.6 439.2 L 489.6 439.2 L 489.6 439.2 Q 468 460.8 435.2 461.6 L 25.6 461.6 L 25.6 461.6 Q 14.4 461.6 7.2 454.4 Q 0 447.2 0 436 Q 0 424.8 7.2 417.6 Q 14.4 410.4 25.6 410.4 L 435.2 410.4 L 435.2 410.4 Q 446.4 410.4 453.6 403.2 Q 460.8 396 460.8 384.8 Q 460.8 373.6 468 366.4 Q 475.2 359.2 486.4 359.2 Q 497.6 359.2 504.8 366.4 Q 512 373.6 512 384.8 L 512 384.8 Z" />
</svg>