<svg xmlns="http://www.w3.org/2000/svg" viewBox="0 0 582 504">
    <path d="M 210 54 Q 211 27 234 12 Q 258 0 282 12 Q 305 27 306 54 Q 305 81 282 96 Q 258 108 234 96 Q 211 81 210 54 L 210 54 Z M 12 205 Q 22 185 43 192 L 63 200 L 86 162 Q 113 119 163 118 Q 202 119 233 141 Q 263 163 276 200 L 311 303 L 390 337 L 424 291 Q 435 278 452 278 Q 468 279 477 294 L 573 454 Q 582 470 574 486 Q 564 501 546 502 L 290 502 Q 272 502 263 487 Q 254 472 261 456 L 277 424 Q 287 407 306 406 L 338 406 L 361 376 L 25 236 Q 5 226 12 205 L 12 205 Z M 95 297 L 207 345 Q 225 353 226 374 L 226 470 Q 226 484 217 493 Q 208 502 194 502 Q 180 502 171 493 Q 162 484 162 470 L 162 395 L 101 369 L 64 480 Q 60 493 48 499 Q 37 504 24 500 Q 11 496 5 484 Q 0 473 4 460 L 52 316 L 63 283 L 95 297 L 95 297 Z"/>
</svg>
