<svg xmlns="http://www.w3.org/2000/svg" viewBox="0 0 512 512">
  <path d="M 294.4 51.2 Q 278.4 52 267.2 62.4 L 267.2 62.4 L 267.2 62.4 Q 256.8 73.6 256 89.6 L 256 174.4 L 256 174.4 L 307.2 221.6 L 307.2 221.6 L 307.2 217.6 L 307.2 217.6 Q 308 205.6 320 204.8 L 345.6 204.8 L 345.6 204.8 Q 357.6 205.6 358.4 217.6 L 358.4 243.2 L 358.4 243.2 Q 357.6 255.2 345.6 256 L 330.4 256 L 330.4 256 Q 332.8 264 332.8 272.8 L 332.8 281.6 L 332.8 281.6 L 345.6 281.6 L 345.6 281.6 Q 357.6 282.4 358.4 294.4 L 358.4 320 L 358.4 320 Q 357.6 332 345.6 332.8 L 332.8 332.8 L 332.8 332.8 L 332.8 422.4 L 332.8 422.4 Q 332.8 444 320 460.8 L 473.6 460.8 L 473.6 460.8 Q 489.6 460 500.8 449.6 Q 511.2 438.4 512 422.4 L 512 89.6 L 512 89.6 Q 511.2 73.6 500.8 62.4 Q 489.6 52 473.6 51.2 L 294.4 51.2 L 294.4 51.2 Z M 409.6 217.6 Q 410.4 205.6 422.4 204.8 L 448 204.8 L 448 204.8 Q 460 205.6 460.8 217.6 L 460.8 243.2 L 460.8 243.2 Q 460 255.2 448 256 L 422.4 256 L 422.4 256 Q 410.4 255.2 409.6 243.2 L 409.6 217.6 L 409.6 217.6 Z M 422.4 281.6 L 448 281.6 L 422.4 281.6 L 448 281.6 Q 460 282.4 460.8 294.4 L 460.8 320 L 460.8 320 Q 460 332 448 332.8 L 422.4 332.8 L 422.4 332.8 Q 410.4 332 409.6 320 L 409.6 294.4 L 409.6 294.4 Q 410.4 282.4 422.4 281.6 L 422.4 281.6 Z M 320 128 L 345.6 128 L 320 128 L 345.6 128 Q 357.6 128.8 358.4 140.8 L 358.4 166.4 L 358.4 166.4 Q 357.6 178.4 345.6 179.2 L 320 179.2 L 320 179.2 Q 308 178.4 307.2 166.4 L 307.2 140.8 L 307.2 140.8 Q 308 128.8 320 128 L 320 128 Z M 409.6 140.8 Q 410.4 128.8 422.4 128 L 448 128 L 448 128 Q 460 128.8 460.8 140.8 L 460.8 166.4 L 460.8 166.4 Q 460 178.4 448 179.2 L 422.4 179.2 L 422.4 179.2 Q 410.4 178.4 409.6 166.4 L 409.6 140.8 L 409.6 140.8 Z M 0 272.8 L 0 422.4 L 0 272.8 L 0 422.4 Q 0.8 438.4 11.2 449.6 Q 22.4 460 38.4 460.8 L 268.8 460.8 L 268.8 460.8 Q 284.8 460 296 449.6 Q 306.4 438.4 307.2 422.4 L 307.2 272.8 L 307.2 272.8 Q 307.2 256 294.4 244.8 L 179.2 139.2 L 179.2 139.2 Q 168 128.8 153.6 128.8 Q 139.2 128.8 128 139.2 L 12.8 244.8 L 12.8 244.8 Q 0 256 0 272.8 L 0 272.8 Z M 115.2 288 Q 116.8 270.4 134.4 268.8 L 172.8 268.8 L 172.8 268.8 Q 190.4 270.4 192 288 L 192 326.4 L 192 326.4 Q 190.4 344 172.8 345.6 L 134.4 345.6 L 134.4 345.6 Q 116.8 344 115.2 326.4 L 115.2 288 L 115.2 288 Z" />
</svg>