<svg xmlns="http://www.w3.org/2000/svg" viewBox="0 0 328 464">
    <path d="M 103 81 Q 73 94 69 121 Q 66 141 71 150 Q 75 160 88 169 Q 117 187 173 201 Q 173 201 173 201 Q 175 202 176 202 Q 201 209 228 218 Q 254 228 277 243 Q 301 259 315 288 Q 328 318 322 354 Q 308 418 250 442 Q 195 464 126 452 L 126 452 L 126 452 Q 107 449 83 441 Q 58 434 38 427 Q 33 425 29 424 Q 27 423 26 423 Q 13 418 7 406 Q 2 395 6 382 Q 10 369 22 363 Q 33 358 46 362 Q 53 364 62 367 Q 63 367 64 368 Q 84 374 103 381 Q 123 387 136 389 Q 193 397 225 383 Q 255 370 259 343 Q 262 323 257 314 Q 253 304 240 295 Q 211 277 155 263 Q 155 263 155 263 Q 153 262 152 262 Q 127 255 100 246 Q 74 236 51 221 Q 27 205 13 176 Q 0 146 6 110 L 38 115 L 6 110 Q 20 46 78 23 Q 133 0 202 12 Q 213 13 234 18 Q 256 22 268 25 Q 281 29 288 40 Q 294 51 291 64 Q 287 77 276 84 Q 265 90 252 87 Q 242 84 222 81 Q 202 77 192 75 L 197 44 L 192 75 Q 135 67 103 82 L 103 81 Z"/>
</svg>
