<svg xmlns="http://www.w3.org/2000/svg" viewBox="0 0 512 512">
  <path d="M 224.4923076923077 98.46153846153847 Q 224.4923076923077 84.67692307692307 233.35384615384615 75.81538461538462 L 233.35384615384615 75.81538461538462 L 233.35384615384615 75.81538461538462 Q 242.2153846153846 66.95384615384616 256 66.95384615384616 Q 269.7846153846154 66.95384615384616 278.6461538461538 75.81538461538462 Q 287.5076923076923 84.67692307692307 287.5076923076923 98.46153846153847 Q 287.5076923076923 112.24615384615385 278.6461538461538 121.1076923076923 Q 269.7846153846154 129.96923076923076 256 129.96923076923076 Q 242.2153846153846 129.96923076923076 233.35384615384615 121.1076923076923 Q 224.4923076923077 112.24615384615385 224.4923076923077 98.46153846153847 L 224.4923076923077 98.46153846153847 Z M 345.6 129.96923076923076 Q 350.5230769230769 115.2 350.5230769230769 98.46153846153847 Q 349.53846153846155 58.09230769230769 322.95384615384614 31.50769230769231 Q 296.3692307692308 4.923076923076923 256 3.9384615384615387 Q 215.63076923076923 4.923076923076923 189.04615384615386 31.50769230769231 Q 162.46153846153845 58.09230769230769 161.47692307692307 98.46153846153847 Q 161.47692307692307 115.2 167.3846153846154 129.96923076923076 L 122.0923076923077 129.96923076923076 L 122.0923076923077 129.96923076923076 Q 105.35384615384615 129.96923076923076 92.55384615384615 139.8153846153846 Q 80.73846153846154 149.66153846153847 75.81538461538462 165.41538461538462 L 4.923076923076923 448.9846153846154 L 4.923076923076923 448.9846153846154 Q 0 471.6307692307692 13.784615384615385 490.33846153846156 Q 28.553846153846155 508.0615384615385 51.2 508.0615384615385 L 460.8 508.0615384615385 L 460.8 508.0615384615385 Q 483.44615384615383 508.0615384615385 498.2153846153846 490.33846153846156 Q 512 471.6307692307692 507.0769230769231 448.9846153846154 L 436.18461538461537 165.41538461538462 L 436.18461538461537 165.41538461538462 Q 431.26153846153846 149.66153846153847 419.44615384615383 139.8153846153846 Q 406.6461538461538 129.96923076923076 389.9076923076923 129.96923076923076 L 345.6 129.96923076923076 L 345.6 129.96923076923076 Z" />
</svg>