<svg xmlns="http://www.w3.org/2000/svg" viewBox="0 0 640 512">
    <path d="M 64 64 L 128 64 L 160 64 L 192 64 L 256 64 Q 255 37 237 19 Q 219 1 192 0 L 64 0 Q 37 1 19 19 Q 1 37 0 64 L 0 192 Q 1 219 19 237 Q 37 255 64 256 L 128 256 L 128 192 L 64 192 L 64 64 L 64 64 Z M 480 448 L 448 448 L 384 448 Q 385 475 403 493 Q 421 511 448 512 L 576 512 Q 603 511 621 493 Q 639 475 640 448 L 640 320 Q 639 293 621 275 Q 603 257 576 256 L 512 256 L 512 320 L 576 320 L 576 448 L 512 448 L 480 448 L 480 448 Z M 224 96 Q 197 97 179 115 L 179 115 Q 161 133 160 160 L 160 352 Q 161 379 179 397 Q 197 415 224 416 L 416 416 Q 443 415 461 397 Q 479 379 480 352 L 480 160 Q 479 133 461 115 Q 443 97 416 96 L 224 96 L 224 96 Z"/>
</svg>
