<svg xmlns="http://www.w3.org/2000/svg" viewBox="0 0 512 512">
  <path d="M 89.6 51.2 Q 73.6 52 62.4 62.4 L 62.4 62.4 L 62.4 62.4 Q 52 73.6 51.2 89.6 L 51.2 128 L 51.2 128 L 12.8 128 L 12.8 128 Q 0.8 128.8 0 140.8 Q 0.8 152.8 12.8 153.6 L 51.2 153.6 L 217.6 153.6 Q 229.6 154.4 230.4 166.4 Q 229.6 178.4 217.6 179.2 L 51.2 179.2 L 38.4 179.2 Q 26.4 180 25.6 192 Q 26.4 204 38.4 204.8 L 51.2 204.8 L 192 204.8 Q 204 205.6 204.8 217.6 Q 204 229.6 192 230.4 L 51.2 230.4 L 12.8 230.4 Q 0.8 231.2 0 243.2 Q 0.8 255.2 12.8 256 L 51.2 256 L 166.4 256 Q 178.4 256.8 179.2 268.8 Q 178.4 280.8 166.4 281.6 L 51.2 281.6 L 51.2 281.6 L 51.2 384 L 51.2 384 Q 52 416.8 73.6 438.4 Q 95.2 460 128 460.8 Q 160.8 460 182.4 438.4 Q 204 416.8 204.8 384 L 307.2 384 L 307.2 384 Q 308 416.8 329.6 438.4 Q 351.2 460 384 460.8 Q 416.8 460 438.4 438.4 Q 460 416.8 460.8 384 L 486.4 384 L 486.4 384 Q 497.6 384 504.8 376.8 Q 512 369.6 512 358.4 Q 512 347.2 504.8 340 Q 497.6 332.8 486.4 332.8 L 486.4 281.6 L 486.4 281.6 L 486.4 256 L 486.4 256 L 486.4 240.8 L 486.4 240.8 Q 486.4 220 471.2 204.8 L 409.6 143.2 L 409.6 143.2 Q 394.4 128 373.6 128 L 332.8 128 L 332.8 128 L 332.8 89.6 L 332.8 89.6 Q 332 73.6 321.6 62.4 Q 310.4 52 294.4 51.2 L 89.6 51.2 L 89.6 51.2 Z M 435.2 240.8 L 435.2 256 L 435.2 240.8 L 435.2 256 L 332.8 256 L 332.8 256 L 332.8 179.2 L 332.8 179.2 L 373.6 179.2 L 373.6 179.2 L 435.2 240.8 L 435.2 240.8 Z M 128 345.6 Q 149.6 346.4 161.6 364.8 Q 171.2 384 161.6 403.2 Q 149.6 421.6 128 422.4 Q 106.4 421.6 94.4 403.2 Q 84.8 384 94.4 364.8 Q 106.4 346.4 128 345.6 L 128 345.6 Z M 345.6 384 Q 346.4 362.4 364.8 350.4 Q 384 340.8 403.2 350.4 Q 421.6 362.4 422.4 384 Q 421.6 405.6 403.2 417.6 Q 384 427.2 364.8 417.6 Q 346.4 405.6 345.6 384 L 345.6 384 Z" />
</svg>