<svg xmlns="http://www.w3.org/2000/svg" viewBox="0 0 512 512">
  <path d="M 67.09516 89.46022 Q 55.912636 78.277695 40.73635 77.47894 L 40.73635 77.47894 L 40.73635 77.47894 Q 24.76131 76.68018 12.780031 87.86272 Q 1.5975039 99.04524 0.79875195 114.22153 Q 0 130.19656 11.182528 142.17784 L 99.843994 236.43057 L 99.843994 236.43057 Q 118.21529 255.60062 146.1716 256.39938 L 473.6599 256.39938 L 473.6599 256.39938 Q 489.63495 255.60062 500.81747 245.21684 Q 511.20123 234.03432 512 218.05928 Q 511.20123 202.08424 500.81747 190.90172 Q 489.63495 180.51794 473.6599 179.7192 L 151.76286 179.7192 L 151.76286 179.7192 L 67.09516 89.46022 L 67.09516 89.46022 Z M 192.49922 384.19968 Q 193.29797 372.2184 205.27925 371.41965 Q 217.26053 372.2184 218.05928 384.19968 Q 217.26053 396.18097 205.27925 396.9797 Q 193.29797 396.18097 192.49922 384.19968 L 192.49922 384.19968 Z M 256.39938 384.19968 Q 256.39938 377.80966 254.80186 372.2184 L 294.73947 342.66458 L 294.73947 342.66458 L 334.67706 372.2184 L 334.67706 372.2184 Q 333.07956 377.80966 333.07956 384.19968 Q 333.87833 405.766 348.25586 420.14352 Q 362.6334 434.52106 384.19968 435.31982 Q 405.766 434.52106 420.14352 420.14352 Q 434.52106 405.766 435.31982 384.19968 Q 434.52106 362.6334 420.14352 348.25586 Q 405.766 333.87833 384.19968 333.07956 Q 369.0234 333.07956 357.0421 341.06708 L 327.4883 319.5008 L 327.4883 319.5008 L 378.60843 281.95944 L 378.60843 281.95944 L 313.11078 281.95944 L 313.11078 281.95944 L 294.73947 295.5382 L 294.73947 295.5382 L 276.36816 281.95944 L 276.36816 281.95944 L 210.87051 281.95944 L 210.87051 281.95944 L 261.99063 319.5008 L 261.99063 319.5008 L 232.43681 341.06708 L 232.43681 341.06708 Q 220.45554 333.07956 205.27925 333.07956 Q 183.71295 333.87833 169.33542 348.25586 Q 154.95789 362.6334 154.15913 384.19968 Q 154.95789 405.766 169.33542 420.14352 Q 183.71295 434.52106 205.27925 435.31982 Q 226.84555 434.52106 241.22308 420.14352 Q 255.60062 405.766 256.39938 384.19968 L 256.39938 384.19968 Z M 384.19968 371.41965 Q 396.18097 372.2184 396.9797 384.19968 Q 396.18097 396.18097 384.19968 396.9797 Q 372.2184 396.18097 371.41965 384.19968 Q 372.2184 372.2184 384.19968 371.41965 L 384.19968 371.41965 Z" />
</svg>