<svg xmlns="http://www.w3.org/2000/svg" viewBox="0 0 512 512">
  <path d="M 261.9883 1.9961014 Q 256 0 250.0117 1.9961014 L 98.30799 41.91813 L 98.30799 41.91813 Q 84.33528 45.91033 81.34113 59.88304 Q 78.34698 73.85575 88.327484 82.8382 L 112.2807 103.79727 L 112.2807 103.79727 L 112.2807 111.78168 L 112.2807 111.78168 Q 112.2807 128.74854 127.251465 136.73294 Q 145.21637 145.7154 178.15205 152.70175 Q 211.08772 160.68616 256 160.68616 Q 300.9123 160.68616 333.84796 152.70175 Q 366.78363 145.7154 384.74854 136.73294 Q 399.7193 128.74854 399.7193 111.78168 L 399.7193 103.79727 L 399.7193 103.79727 L 423.67252 82.8382 L 423.67252 82.8382 Q 433.653 73.85575 430.65887 59.88304 Q 427.6647 45.91033 413.69202 41.91813 L 261.9883 1.9961014 L 261.9883 1.9961014 Z M 194.12086 73.85575 Q 202.10527 60.881092 215.07993 66.86939 L 256 86.83041 L 256 86.83041 L 296.92007 66.86939 L 296.92007 66.86939 Q 309.89474 60.881092 317.87915 73.85575 Q 323.86743 87.82846 310.8928 94.81481 L 262.98636 118.76803 L 262.98636 118.76803 Q 256 122.76023 249.01364 118.76803 L 201.10721 94.81481 L 201.10721 94.81481 Q 188.13255 87.82846 194.12086 73.85575 L 194.12086 73.85575 Z M 130.24562 169.66861 Q 128.24951 180.64717 128.24951 192.62378 Q 129.24756 246.51852 165.17738 283.44638 Q 202.10527 319.37622 256 320.37427 Q 309.89474 319.37622 346.8226 283.44638 Q 382.75244 246.51852 383.7505 192.62378 Q 383.7505 180.64717 381.7544 169.66861 Q 322.8694 192.62378 256 192.62378 Q 189.1306 192.62378 130.24562 169.66861 L 130.24562 169.66861 Z M 220.07018 375.26706 L 240.03119 416.18713 L 220.07018 375.26706 L 240.03119 416.18713 L 228.05458 465.0916 L 228.05458 465.0916 L 165.17738 360.2963 L 165.17738 360.2963 Q 160.18713 352.3119 151.20468 353.30994 Q 99.306046 360.2963 66.37037 397.22418 Q 33.434696 434.15204 32.436646 486.0507 Q 34.432747 510.0039 58.385963 512 L 224.06238 512 L 224.06238 512 L 224.06238 512 L 224.06238 512 L 287.93762 512 L 287.93762 512 L 287.93762 512 L 287.93762 512 L 453.61404 512 L 453.61404 512 Q 477.56726 510.0039 479.56335 486.0507 Q 478.5653 434.15204 445.62964 397.22418 Q 412.69397 360.2963 360.79532 353.30994 Q 351.81287 352.3119 346.8226 360.2963 L 283.9454 465.0916 L 283.9454 465.0916 L 271.9688 416.18713 L 271.9688 416.18713 L 291.9298 375.26706 L 291.9298 375.26706 Q 295.92203 367.28265 291.9298 360.2963 Q 286.93958 352.3119 277.95712 352.3119 L 234.0429 352.3119 L 234.0429 352.3119 Q 225.06042 352.3119 220.07018 360.2963 Q 216.07797 367.28265 220.07018 375.26706 L 220.07018 375.26706 Z M 351.81287 432.15594 Q 352.8109 417.18518 367.78168 416.18713 L 399.7193 416.18713 L 399.7193 416.18713 Q 414.69006 417.18518 415.6881 432.15594 Q 414.69006 447.1267 399.7193 448.12476 L 367.78168 448.12476 L 367.78168 448.12476 Q 352.8109 447.1267 351.81287 432.15594 L 351.81287 432.15594 Z" />
</svg>