<svg xmlns="http://www.w3.org/2000/svg" viewBox="0 0 512 512">
  <path d="M 250.32911392405063 154.73417721518987 Q 259.24050632911394 146.63291139240508 255.18987341772151 134.48101265822785 Q 251.9493670886076 128 248.70886075949366 122.32911392405063 L 246.27848101265823 117.46835443037975 L 246.27848101265823 117.46835443037975 Q 242.22784810126583 111.79746835443038 238.1772151898734 106.12658227848101 Q 230.0759493670886 96.40506329113924 218.73417721518987 100.45569620253164 L 195.2405063291139 107.74683544303798 L 195.2405063291139 107.74683544303798 Q 182.27848101265823 97.21518987341773 166.0759493670886 90.73417721518987 L 161.21518987341773 67.24050632911393 L 161.21518987341773 67.24050632911393 Q 157.9746835443038 55.08860759493671 146.63291139240508 52.65822784810127 Q 138.53164556962025 51.848101265822784 129.62025316455697 51.848101265822784 L 129.62025316455697 51.848101265822784 L 129.62025316455697 51.848101265822784 Q 121.51898734177215 51.848101265822784 113.41772151898734 52.65822784810127 Q 101.26582278481013 55.08860759493671 98.0253164556962 67.24050632911393 L 93.16455696202532 90.73417721518987 L 93.16455696202532 90.73417721518987 Q 76.9620253164557 97.21518987341773 64 107.74683544303798 L 41.31645569620253 100.45569620253164 L 41.31645569620253 100.45569620253164 Q 29.164556962025316 96.40506329113924 21.063291139240505 106.12658227848101 Q 17.0126582278481 111.79746835443038 12.962025316455696 118.27848101265823 L 10.531645569620252 122.32911392405063 L 10.531645569620252 122.32911392405063 Q 7.291139240506329 128 4.050632911392405 134.48101265822785 Q 0 146.63291139240508 9.721518987341772 154.73417721518987 L 27.544303797468356 170.9367088607595 L 27.544303797468356 170.9367088607595 Q 25.924050632911392 179.0379746835443 25.924050632911392 187.9493670886076 Q 25.924050632911392 196.86075949367088 27.544303797468356 204.9620253164557 L 9.721518987341772 221.16455696202533 L 9.721518987341772 221.16455696202533 Q 0 229.26582278481013 4.050632911392405 241.41772151898735 Q 7.291139240506329 247.8987341772152 10.531645569620252 253.56962025316454 L 12.962025316455696 258.43037974683546 L 12.962025316455696 258.43037974683546 Q 16.20253164556962 264.1012658227848 21.063291139240505 269.7721518987342 Q 29.164556962025316 279.49367088607596 41.31645569620253 275.44303797468353 L 64 268.1518987341772 L 64 268.1518987341772 Q 76.9620253164557 278.6835443037975 93.16455696202532 285.1645569620253 L 98.0253164556962 308.65822784810126 L 98.0253164556962 308.65822784810126 Q 101.26582278481013 320.8101265822785 113.41772151898734 323.24050632911394 Q 121.51898734177215 324.0506329113924 129.62025316455697 324.0506329113924 Q 137.72151898734177 324.0506329113924 145.8227848101266 323.24050632911394 Q 157.9746835443038 320.8101265822785 161.21518987341773 308.65822784810126 L 166.0759493670886 285.1645569620253 L 166.0759493670886 285.1645569620253 Q 182.27848101265823 278.6835443037975 195.2405063291139 268.1518987341772 L 217.9240506329114 275.44303797468353 L 217.9240506329114 275.44303797468353 Q 230.0759493670886 279.49367088607596 238.1772151898734 269.7721518987342 Q 242.22784810126583 264.1012658227848 246.27848101265823 258.43037974683546 L 248.70886075949366 253.56962025316454 L 248.70886075949366 253.56962025316454 Q 251.9493670886076 247.8987341772152 255.18987341772151 241.41772151898735 Q 259.24050632911394 229.26582278481013 249.51898734177215 221.16455696202533 L 231.69620253164558 204.9620253164557 L 231.69620253164558 204.9620253164557 Q 233.31645569620252 196.86075949367088 233.31645569620252 187.9493670886076 Q 233.31645569620252 179.0379746835443 231.69620253164558 170.9367088607595 L 249.51898734177215 154.73417721518987 L 250.32911392405063 154.73417721518987 Z M 90.73417721518987 187.9493670886076 Q 91.54430379746836 166.0759493670886 110.17721518987342 153.9240506329114 Q 129.62025316455697 144.20253164556962 149.0632911392405 153.9240506329114 Q 167.69620253164558 166.0759493670886 168.50632911392404 187.9493670886076 Q 167.69620253164558 209.8227848101266 149.0632911392405 221.9746835443038 Q 129.62025316455697 231.69620253164558 110.17721518987342 221.9746835443038 Q 91.54430379746836 209.8227848101266 90.73417721518987 187.9493670886076 L 90.73417721518987 187.9493670886076 Z M 409.11392405063293 451.24050632911394 Q 417.2151898734177 460.1518987341772 429.36708860759495 456.1012658227848 Q 435.8481012658228 452.8607594936709 441.5189873417722 449.62025316455697 L 446.37974683544303 447.1898734177215 L 446.37974683544303 447.1898734177215 Q 452.0506329113924 443.1392405063291 457.72151898734177 439.0886075949367 Q 467.44303797468353 430.9873417721519 463.39240506329116 419.6455696202532 L 456.1012658227848 396.1518987341772 L 456.1012658227848 396.1518987341772 Q 466.63291139240505 383.1898734177215 473.11392405063293 366.9873417721519 L 496.60759493670884 362.126582278481 L 496.60759493670884 362.126582278481 Q 508.75949367088606 358.88607594936707 511.1898734177215 346.73417721518985 Q 512 338.63291139240505 512 330.53164556962025 Q 512 322.43037974683546 511.1898734177215 314.32911392405066 Q 508.75949367088606 302.17721518987344 496.60759493670884 298.9367088607595 L 473.11392405063293 294.0759493670886 L 473.11392405063293 294.0759493670886 Q 466.63291139240505 277.873417721519 456.1012658227848 264.9113924050633 L 463.39240506329116 242.22784810126583 L 463.39240506329116 242.22784810126583 Q 467.44303797468353 230.0759493670886 457.72151898734177 221.9746835443038 Q 452.0506329113924 217.9240506329114 446.37974683544303 213.873417721519 L 441.5189873417722 211.44303797468353 L 441.5189873417722 211.44303797468353 Q 435.8481012658228 208.20253164556962 429.36708860759495 204.9620253164557 Q 417.2151898734177 200.91139240506328 409.11392405063293 210.63291139240508 L 392.9113924050633 228.45569620253164 L 392.9113924050633 228.45569620253164 Q 384.8101265822785 226.83544303797467 375.8987341772152 226.83544303797467 Q 366.9873417721519 226.83544303797467 358.88607594936707 228.45569620253164 L 342.6835443037975 210.63291139240508 L 342.6835443037975 210.63291139240508 Q 334.5822784810127 200.91139240506328 322.43037974683546 204.9620253164557 Q 315.9493670886076 208.20253164556962 310.27848101265823 211.44303797468353 L 306.2278481012658 213.873417721519 L 306.2278481012658 213.873417721519 Q 299.746835443038 217.9240506329114 294.0759493670886 221.9746835443038 Q 284.3544303797468 230.0759493670886 288.40506329113924 242.22784810126583 L 295.69620253164555 264.9113924050633 L 295.69620253164555 264.9113924050633 Q 285.1645569620253 277.873417721519 278.6835443037975 294.0759493670886 L 255.18987341772151 298.9367088607595 L 255.18987341772151 298.9367088607595 Q 243.0379746835443 302.17721518987344 240.60759493670886 314.32911392405066 Q 239.79746835443038 322.43037974683546 239.79746835443038 330.53164556962025 Q 239.79746835443038 338.63291139240505 240.60759493670886 346.73417721518985 Q 243.0379746835443 358.88607594936707 255.18987341772151 362.126582278481 L 278.6835443037975 366.9873417721519 L 278.6835443037975 366.9873417721519 Q 285.1645569620253 383.1898734177215 295.69620253164555 396.1518987341772 L 288.40506329113924 418.8354430379747 L 288.40506329113924 418.8354430379747 Q 284.3544303797468 430.9873417721519 294.0759493670886 439.0886075949367 Q 299.746835443038 443.1392405063291 306.2278481012658 447.1898734177215 L 310.27848101265823 449.62025316455697 L 310.27848101265823 449.62025316455697 Q 315.9493670886076 452.8607594936709 322.43037974683546 456.1012658227848 Q 334.5822784810127 460.1518987341772 342.6835443037975 450.43037974683546 L 358.88607594936707 432.60759493670884 L 358.88607594936707 432.60759493670884 Q 366.9873417721519 434.2278481012658 375.8987341772152 434.2278481012658 Q 384.8101265822785 434.2278481012658 392.9113924050633 432.60759493670884 L 409.11392405063293 450.43037974683546 L 409.11392405063293 451.24050632911394 Z M 375.8987341772152 291.6455696202532 Q 397.7721518987342 292.45569620253167 409.9240506329114 311.0886075949367 Q 419.6455696202532 330.53164556962025 409.9240506329114 349.9746835443038 Q 397.7721518987342 368.60759493670884 375.8987341772152 369.4177215189873 Q 354.0253164556962 368.60759493670884 341.873417721519 349.9746835443038 Q 332.1518987341772 330.53164556962025 341.873417721519 311.0886075949367 Q 354.0253164556962 292.45569620253167 375.8987341772152 291.6455696202532 L 375.8987341772152 291.6455696202532 Z" />
</svg>