<svg xmlns="http://www.w3.org/2000/svg" viewBox="0 0 512 480">
    <path d="M 184 48 L 328 48 Q 335 49 336 56 L 336 96 L 176 96 L 176 56 Q 177 49 184 48 L 184 48 Z M 128 56 L 128 96 L 64 96 Q 37 97 19 115 Q 1 133 0 160 L 0 256 L 192 256 L 320 256 L 512 256 L 512 160 Q 511 133 493 115 Q 475 97 448 96 L 384 96 L 384 56 Q 383 32 368 16 Q 352 1 328 0 L 184 0 Q 160 1 144 16 Q 129 32 128 56 L 128 56 Z M 512 288 L 320 288 L 320 320 Q 320 334 311 343 Q 302 352 288 352 L 224 352 Q 210 352 201 343 Q 192 334 192 320 L 192 288 L 0 288 L 0 416 Q 1 443 19 461 Q 37 479 64 480 L 448 480 Q 475 479 493 461 Q 511 443 512 416 L 512 288 L 512 288 Z"/>
</svg>
