<svg xmlns="http://www.w3.org/2000/svg" viewBox="0 0 576 448">
    <path d="M 96 16 Q 97 1 112 0 L 144 0 Q 159 1 160 16 L 160 32 L 208 32 Q 223 33 224 48 L 224 96 L 352 96 L 352 48 Q 353 33 368 32 L 416 32 L 416 16 Q 417 1 432 0 L 464 0 Q 479 1 480 16 L 480 48 Q 479 63 464 64 L 416 64 L 416 96 L 416 128 L 464 128 Q 479 129 480 144 L 480 192 L 512 192 L 512 112 Q 513 97 528 96 L 560 96 Q 575 97 576 112 L 576 240 Q 575 255 560 256 L 512 256 L 512 336 Q 511 351 496 352 L 448 352 L 448 432 Q 447 447 432 448 L 384 448 L 336 448 Q 321 447 320 432 L 320 400 Q 321 385 336 384 L 384 384 L 384 352 L 192 352 L 192 384 L 240 384 Q 255 385 256 400 L 256 432 Q 255 447 240 448 L 192 448 L 144 448 Q 129 447 128 432 L 128 352 L 80 352 Q 65 351 64 336 L 64 256 L 16 256 Q 1 255 0 240 L 0 112 Q 1 97 16 96 L 48 96 Q 63 97 64 112 L 64 192 L 96 192 L 96 144 Q 97 129 112 128 L 160 128 L 160 96 L 160 64 L 112 64 Q 97 63 96 48 L 96 16 L 96 16 Z M 160 208 L 160 272 Q 161 287 176 288 L 208 288 Q 223 287 224 272 L 224 208 Q 223 193 208 192 L 176 192 Q 161 193 160 208 L 160 208 Z M 352 208 L 352 272 Q 353 287 368 288 L 400 288 Q 415 287 416 272 L 416 208 Q 415 193 400 192 L 368 192 Q 353 193 352 208 L 352 208 Z"/>
</svg>
