<svg xmlns="http://www.w3.org/2000/svg" viewBox="0 0 512 512">
  <path d="M 456.8 295.2 Q 454.4 309.6 463.2 320.8 L 463.2 320.8 L 463.2 320.8 Q 471.2 332 485.6 332.8 L 486.4 332.8 L 486.4 332.8 Q 497.6 332.8 504.8 340 Q 512 347.2 512 358.4 Q 512 369.6 504.8 376.8 Q 497.6 384 486.4 384 L 448 384 L 448 384 Q 436 384.8 435.2 396.8 Q 436 408.8 448 409.6 L 460.8 409.6 L 460.8 409.6 Q 472 409.6 479.2 416.8 Q 486.4 424 486.4 435.2 Q 486.4 446.4 479.2 453.6 Q 472 460.8 460.8 460.8 L 256 460.8 L 25.6 460.8 Q 14.4 460.8 7.2 453.6 Q 0 446.4 0 435.2 Q 0 424 7.2 416.8 Q 14.4 409.6 25.6 409.6 L 36 409.6 L 36 409.6 Q 58.4 408 68.8 385.6 Q 79.2 364 70.4 342.4 Q 51.2 302.4 51.2 256 Q 52 198.4 79.2 152.8 Q 106.4 106.4 152.8 79.2 Q 198.4 52 256 51.2 Q 313.6 52 359.2 79.2 Q 405.6 106.4 432.8 152.8 Q 460 198.4 460.8 256 Q 460.8 276 456.8 295.2 L 456.8 295.2 Z M 197.6 227.2 Q 212 230.4 223.2 220.8 Q 232.8 210.4 229.6 196 Q 224.8 181.6 211.2 177.6 Q 196.8 174.4 185.6 184 Q 176 194.4 179.2 208.8 Q 184 223.2 197.6 227.2 L 197.6 227.2 Z M 352.8 242.4 Q 356 228 346.4 216.8 Q 336 207.2 321.6 210.4 Q 307.2 214.4 303.2 228.8 Q 300 243.2 309.6 253.6 Q 320.8 264 334.4 260.8 Q 348.8 256 352.8 242.4 L 352.8 242.4 Z M 170.4 290.4 Q 164.8 280.8 153.6 284.8 Q 143.2 291.2 147.2 301.6 Q 156 320.8 175.2 339.2 Q 194.4 358.4 226.4 367.2 Q 258.4 375.2 284 368.8 Q 309.6 362.4 327.2 349.6 Q 336 342.4 330.4 332 Q 323.2 323.2 312.8 328.8 Q 299.2 338.4 278.4 344 Q 258.4 348.8 232.8 342.4 Q 208 335.2 192.8 320.8 Q 177.6 305.6 170.4 290.4 L 170.4 290.4 Z" />
</svg>