<svg xmlns="http://www.w3.org/2000/svg" viewBox="0 0 512 512">
  <path d="M 24.774193 41.29032 Q 2.064516 43.35484 0 66.064514 L 0 115.6129 L 0 115.6129 Q 2.064516 138.32259 24.774193 140.3871 L 74.32258 140.3871 L 74.32258 140.3871 Q 97.03226 138.32259 99.09677 115.6129 L 99.09677 66.064514 L 99.09677 66.064514 Q 97.03226 43.35484 74.32258 41.29032 L 24.774193 41.29032 L 24.774193 41.29032 Z M 181.67741 57.80645 Q 167.2258 57.80645 157.93549 67.09677 L 157.93549 67.09677 L 157.93549 67.09677 Q 148.64516 76.3871 148.64516 90.83871 Q 148.64516 105.29032 157.93549 114.58064 Q 167.2258 123.870964 181.67741 123.870964 L 478.96774 123.870964 L 478.96774 123.870964 Q 493.41934 123.870964 502.7097 114.58064 Q 512 105.29032 512 90.83871 Q 512 76.3871 502.7097 67.09677 Q 493.41934 57.80645 478.96774 57.80645 L 181.67741 57.80645 L 181.67741 57.80645 Z M 181.67741 222.96774 Q 167.2258 222.96774 157.93549 232.25807 L 157.93549 232.25807 L 157.93549 232.25807 Q 148.64516 241.54839 148.64516 256 Q 148.64516 270.4516 157.93549 279.74194 Q 167.2258 289.03226 181.67741 289.03226 L 478.96774 289.03226 L 478.96774 289.03226 Q 493.41934 289.03226 502.7097 279.74194 Q 512 270.4516 512 256 Q 512 241.54839 502.7097 232.25807 Q 493.41934 222.96774 478.96774 222.96774 L 181.67741 222.96774 L 181.67741 222.96774 Z M 181.67741 388.12903 Q 167.2258 388.12903 157.93549 397.41934 L 157.93549 397.41934 L 157.93549 397.41934 Q 148.64516 406.7097 148.64516 421.1613 Q 148.64516 435.6129 157.93549 444.90323 Q 167.2258 454.19354 181.67741 454.19354 L 478.96774 454.19354 L 478.96774 454.19354 Q 493.41934 454.19354 502.7097 444.90323 Q 512 435.6129 512 421.1613 Q 512 406.7097 502.7097 397.41934 Q 493.41934 388.12903 478.96774 388.12903 L 181.67741 388.12903 L 181.67741 388.12903 Z M 0 231.2258 L 0 280.7742 L 0 231.2258 L 0 280.7742 Q 2.064516 303.48386 24.774193 305.5484 L 74.32258 305.5484 L 74.32258 305.5484 Q 97.03226 303.48386 99.09677 280.7742 L 99.09677 231.2258 L 99.09677 231.2258 Q 97.03226 208.51613 74.32258 206.45161 L 24.774193 206.45161 L 24.774193 206.45161 Q 2.064516 208.51613 0 231.2258 L 0 231.2258 Z M 24.774193 371.6129 Q 2.064516 373.67743 0 396.3871 L 0 445.9355 L 0 445.9355 Q 2.064516 468.64517 24.774193 470.7097 L 74.32258 470.7097 L 74.32258 470.7097 Q 97.03226 468.64517 99.09677 445.9355 L 99.09677 396.3871 L 99.09677 396.3871 Q 97.03226 373.67743 74.32258 371.6129 L 24.774193 371.6129 L 24.774193 371.6129 Z" />
</svg>