<svg xmlns="http://www.w3.org/2000/svg" viewBox="0 0 512 512">
  <path d="M 256.9961 447.25293 Q 328.71594 446.2568 385.49417 419.36188 L 385.49417 419.36188 L 385.49417 419.36188 Q 443.2685 391.47083 477.1362 344.6537 L 477.1362 344.6537 L 477.1362 344.6537 Q 511.0039 297.83658 512 240.06226 Q 511.0039 182.28793 477.1362 135.47081 Q 443.2685 88.653694 385.49417 60.762646 Q 328.71594 33.867702 256.9961 32.871593 Q 185.27626 33.867702 128.49805 60.762646 Q 70.72373 88.653694 36.85603 135.47081 Q 2.9883268 182.28793 1.9922179 240.06226 Q 2.9883268 308.79376 49.805447 360.59143 Q 44.8249 397.44748 27.89105 423.3463 Q 19.922178 437.29184 12.949416 444.2646 Q 9.961089 448.24902 7.9688716 450.24124 Q 7.9688716 451.23737 6.9727626 451.23737 Q 6.9727626 451.23737 6.9727626 452.23346 L 6.9727626 452.23346 L 6.9727626 452.23346 L 6.9727626 452.23346 L 6.9727626 452.23346 L 6.9727626 452.23346 L 6.9727626 452.23346 L 6.9727626 452.23346 L 6.9727626 452.23346 L 6.9727626 452.23346 L 6.9727626 452.23346 Q 0 459.20624 2.9883268 469.16733 Q 7.9688716 479.12842 17.92996 479.12842 Q 61.758755 477.1362 99.61089 460.20233 Q 134.4747 444.2646 153.40077 429.32297 Q 201.214 447.25293 256.9961 447.25293 L 256.9961 447.25293 Z M 121.52529 208.18677 L 264.96497 208.18677 L 121.52529 208.18677 L 264.96497 208.18677 Q 286.87936 210.17899 288.87158 232.09338 Q 286.87936 254.00778 264.96497 256 L 121.52529 256 L 121.52529 256 Q 99.61089 254.00778 97.618675 232.09338 Q 99.61089 210.17899 121.52529 208.18677 L 121.52529 208.18677 Z M 344.6537 208.18677 L 392.46692 208.18677 L 344.6537 208.18677 L 392.46692 208.18677 Q 414.38132 210.17899 416.37354 232.09338 Q 414.38132 254.00778 392.46692 256 L 344.6537 256 L 344.6537 256 Q 322.7393 254.00778 320.74707 232.09338 Q 322.7393 210.17899 344.6537 208.18677 L 344.6537 208.18677 Z M 121.52529 287.8755 L 169.33852 287.8755 L 121.52529 287.8755 L 169.33852 287.8755 Q 191.25291 289.8677 193.24513 311.7821 Q 191.25291 333.6965 169.33852 335.68872 L 121.52529 335.68872 L 121.52529 335.68872 Q 99.61089 333.6965 97.618675 311.7821 Q 99.61089 289.8677 121.52529 287.8755 L 121.52529 287.8755 Z M 249.02724 287.8755 L 392.46692 287.8755 L 249.02724 287.8755 L 392.46692 287.8755 Q 414.38132 289.8677 416.37354 311.7821 Q 414.38132 333.6965 392.46692 335.68872 L 249.02724 335.68872 L 249.02724 335.68872 Q 227.11284 333.6965 225.12062 311.7821 Q 227.11284 289.8677 249.02724 287.8755 L 249.02724 287.8755 Z" />
</svg>