<svg xmlns="http://www.w3.org/2000/svg" viewBox="0 0 512 512">
  <path d="M 32 96 Q 18 96 9 105 L 9 105 L 9 105 Q 0 114 0 128 Q 0 142 9 151 Q 18 160 32 160 L 240 160 L 240 160 L 240 96 L 240 96 L 32 96 L 32 96 Z M 192 288 Q 178 288 169 297 L 169 297 L 169 297 Q 160 306 160 320 Q 160 334 169 343 Q 178 352 192 352 L 256 352 L 256 352 Q 270 352 279 343 Q 288 334 288 320 Q 288 306 279 297 Q 270 288 256 288 L 192 288 L 192 288 Z M 128 224 Q 128 238 137 247 L 137 247 L 137 247 Q 146 256 160 256 L 208 256 L 208 256 Q 222 256 231 247 Q 240 238 240 224 Q 240 210 231 201 Q 222 192 208 192 L 160 192 L 160 192 Q 146 192 137 201 Q 128 210 128 224 L 128 224 Z M 224 384 Q 210 384 201 393 L 201 393 L 201 393 Q 192 402 192 416 Q 192 430 201 439 Q 210 448 224 448 L 288 448 L 288 448 Q 302 448 311 439 Q 320 430 320 416 Q 320 402 311 393 Q 302 384 288 384 L 224 384 L 224 384 Z M 312 288 L 311 288 L 312 288 L 311 288 Q 320 302 320 320 Q 320 340 309 356 Q 328 362 340 379 Q 352 395 352 416 Q 352 434 343 448 L 352 448 L 352 448 Q 420 446 465 401 Q 510 356 512 288 L 512 226 L 512 226 Q 511 160 465 113 L 454 102 L 454 102 Q 416 65 363 64 L 336 64 L 336 64 Q 309 65 291 83 Q 273 101 272 128 L 272 216 L 272 216 Q 272 233 284 244 Q 295 256 312 256 Q 329 256 340 244 Q 352 233 352 216 L 352 160 L 352 160 Q 353 145 368 144 Q 383 145 384 160 L 384 216 L 384 216 Q 383 247 363 267 Q 343 287 312 288 L 312 288 Z" />
</svg>