<svg xmlns="http://www.w3.org/2000/svg" viewBox="0 0 512 512">
  <path d="M 309.14878892733566 85.48096885813149 Q 258.65743944636677 85.48096885813149 212.59515570934255 128 Q 170.07612456747404 174.06228373702422 170.07612456747404 224.55363321799308 Q 170.07612456747404 262.64359861591697 194.87889273356402 287.4463667820069 Q 223.2249134948097 314.9065743944637 268.401384083045 311.363321799308 Q 312.69204152249137 308.70588235294116 354.3252595155709 269.7301038062284 Q 396.84429065743944 223.66782006920414 396.84429065743944 173.1764705882353 Q 396.84429065743944 135.0865051903114 372.0415224913495 110.28373702422145 Q 347.2387543252595 85.48096885813149 309.14878892733566 85.48096885813149 L 309.14878892733566 85.48096885813149 Z M 172.73356401384083 88.13840830449827 Q 201.96539792387543 58.90657439446367 237.39792387543253 43.8477508650519 L 237.39792387543253 43.8477508650519 L 237.39792387543253 43.8477508650519 Q 272.8304498269896 28.78892733564014 309.14878892733566 28.78892733564014 Q 368.4982698961938 27.903114186851212 412.78892733564015 70.42214532871972 Q 454.42214532871975 113.82698961937716 453.5363321799308 173.1764705882353 Q 453.5363321799308 209.4948096885813 438.47750865051904 244.9273356401384 Q 423.4186851211073 280.3598615916955 394.1868512110727 309.5916955017301 Q 356.98269896193773 345.9100346020761 310.03460207612454 360.9688581314879 Q 263.97231833910035 375.1418685121107 218.79584775086505 364.5121107266436 Q 198.42214532871972 359.19723183391005 178.93425605536333 361.8546712802768 Q 158.560553633218 364.5121107266436 144.38754325259515 378.6851211072664 L 131.10034602076124 391.0865051903114 L 131.10034602076124 391.0865051903114 Q 139.95847750865053 408.80276816608995 126.6712802768166 424.74740484429066 L 77.06574394463668 474.3529411764706 L 77.06574394463668 474.3529411764706 Q 68.2076124567474 482.3252595155709 56.69204152249135 482.3252595155709 Q 45.1764705882353 482.3252595155709 36.31833910034602 474.3529411764706 L 7.972318339100346 446.0069204152249 L 7.972318339100346 446.0069204152249 Q 0 437.14878892733566 0 425.6332179930796 Q 0 414.11764705882354 7.972318339100346 405.25951557093424 L 57.57785467128028 355.65397923875435 L 57.57785467128028 355.65397923875435 Q 73.52249134948097 342.3667820069204 91.23875432525952 351.2249134948097 L 103.6401384083045 337.93771626297575 L 103.6401384083045 337.93771626297575 Q 117.81314878892734 323.7647058823529 120.47058823529412 303.3910034602076 Q 123.1280276816609 283.9031141868512 118.69896193771626 263.52941176470586 Q 113.3840830449827 244.9273356401384 113.3840830449827 224.55363321799308 Q 113.3840830449827 188.23529411764707 128.44290657439447 152.80276816608998 Q 143.50173010380624 117.37024221453287 172.73356401384083 88.13840830449827 L 172.73356401384083 88.13840830449827 Z M 411.01730103806227 383.11418685121106 Q 411.9031141868512 365.3979238754325 423.4186851211073 352.9965397923875 L 423.4186851211073 352.9965397923875 L 423.4186851211073 352.9965397923875 Q 435.8200692041523 341.48096885813146 453.5363321799308 340.5951557093426 Q 471.25259515570934 341.48096885813146 483.65397923875435 352.9965397923875 Q 495.1695501730104 365.3979238754325 496.0553633217993 383.11418685121106 L 496.0553633217993 411.46020761245677 L 496.0553633217993 411.46020761245677 L 411.01730103806227 411.46020761245677 L 411.01730103806227 411.46020761245677 L 411.01730103806227 383.11418685121106 L 411.01730103806227 383.11418685121106 Z M 397.7301038062284 463.7231833910035 L 409.24567474048445 425.6332179930796 L 397.7301038062284 463.7231833910035 L 409.24567474048445 425.6332179930796 L 438.47750865051904 425.6332179930796 L 438.47750865051904 425.6332179930796 L 424.3044982698962 472.5813148788927 L 424.3044982698962 472.5813148788927 Q 419.87543252595157 484.0968858131488 406.5882352941176 481.439446366782 Q 395.0726643598616 477.0103806228374 397.7301038062284 463.7231833910035 L 397.7301038062284 463.7231833910035 Z M 439.363321799308 468.1522491349481 L 439.363321799308 425.6332179930796 L 439.363321799308 468.1522491349481 L 439.363321799308 425.6332179930796 L 467.70934256055364 425.6332179930796 L 467.70934256055364 425.6332179930796 L 467.70934256055364 468.1522491349481 L 467.70934256055364 468.1522491349481 Q 466.8235294117647 481.439446366782 453.5363321799308 482.3252595155709 Q 440.24913494809687 481.439446366782 439.363321799308 468.1522491349481 L 439.363321799308 468.1522491349481 Z M 482.7681660899654 472.5813148788927 L 468.5951557093426 425.6332179930796 L 482.7681660899654 472.5813148788927 L 468.5951557093426 425.6332179930796 L 497.8269896193772 425.6332179930796 L 497.8269896193772 425.6332179930796 L 509.34256055363323 463.7231833910035 L 509.34256055363323 463.7231833910035 Q 512 477.0103806228374 500.48442906574394 481.439446366782 Q 487.19723183391005 484.0968858131488 482.7681660899654 472.5813148788927 L 482.7681660899654 472.5813148788927 Z" />
</svg>