<svg xmlns="http://www.w3.org/2000/svg" viewBox="0 0 512 512">
  <path d="M 295.9507 12.616016 Q 313.8234 28.386038 301.2074 47.310062 L 295.9507 54.669403 L 295.9507 54.669403 Q 289.6427 64.13142 285.43738 74.64476 L 390.57083 74.64476 L 390.57083 74.64476 Q 433.67557 75.6961 462.0616 104.08214 Q 490.44763 132.46817 491.49896 175.57289 Q 491.49896 190.29158 482.03696 199.75359 Q 472.57495 209.2156 457.85626 209.2156 L 54.143738 209.2156 L 54.143738 209.2156 Q 39.425053 209.2156 29.96304 199.75359 Q 20.501026 190.29158 20.501026 175.57289 Q 21.55236 132.46817 49.938396 104.08214 Q 78.32443 75.6961 121.42916 74.64476 L 232.87064 74.64476 L 232.87064 74.64476 Q 239.17865 47.310062 256 24.180698 L 261.25668 17.87269 L 261.25668 17.87269 Q 277.0267 0 295.9507 12.616016 L 295.9507 12.616016 Z M 245.48665 507.79465 Q 175.04723 480.45996 137.19917 434.20123 L 137.19917 434.20123 L 137.19917 434.20123 Q 99.35113 387.9425 84.63245 336.4271 L 84.63245 336.4271 L 84.63245 336.4271 Q 69.91376 284.9117 70.965096 242.85832 L 256 242.85832 L 441.0349 242.85832 Q 442.08624 284.9117 427.36755 336.4271 Q 412.64886 387.9425 374.8008 434.20123 Q 336.95276 480.45996 266.51334 507.79465 Q 256 512 245.48665 507.79465 L 245.48665 507.79465 Z" />
</svg>