<svg xmlns="http://www.w3.org/2000/svg" viewBox="0 0 512 512">
  <path d="M 176 144 L 176 192 L 176 144 L 176 192 L 336 192 L 336 192 L 336 144 L 336 144 Q 335 110 313 87 Q 290 65 256 64 Q 222 65 199 87 Q 177 110 176 144 L 176 144 Z M 112 192 L 112 144 L 112 192 L 112 144 Q 114 83 154 42 Q 195 2 256 0 Q 317 2 358 42 Q 398 83 400 144 L 400 192 L 400 192 L 416 192 L 416 192 Q 443 193 461 211 Q 479 229 480 256 L 480 448 L 480 448 Q 479 475 461 493 Q 443 511 416 512 L 96 512 L 96 512 Q 69 511 51 493 Q 33 475 32 448 L 32 256 L 32 256 Q 33 229 51 211 Q 69 193 96 192 L 112 192 L 112 192 Z M 208 240 Q 193 241 192 256 L 192 288 L 192 288 L 160 288 L 160 288 Q 145 289 144 304 Q 145 319 160 320 L 192 320 L 192 320 L 192 384 L 192 384 L 160 384 L 160 384 Q 145 385 144 400 Q 145 415 160 416 L 192 416 L 192 416 L 192 448 L 192 448 Q 193 463 208 464 Q 223 463 224 448 L 224 416 L 224 416 L 288 416 L 288 416 L 288 448 L 288 448 Q 289 463 304 464 Q 319 463 320 448 L 320 416 L 320 416 L 352 416 L 352 416 Q 367 415 368 400 Q 367 385 352 384 L 320 384 L 320 384 L 320 320 L 320 320 L 352 320 L 352 320 Q 367 319 368 304 Q 367 289 352 288 L 320 288 L 320 288 L 320 256 L 320 256 Q 319 241 304 240 Q 289 241 288 256 L 288 288 L 288 288 L 224 288 L 224 288 L 224 256 L 224 256 Q 223 241 208 240 L 208 240 Z M 224 384 L 224 320 L 224 384 L 224 320 L 288 320 L 288 320 L 288 384 L 288 384 L 224 384 L 224 384 Z" />
</svg>