<svg xmlns="http://www.w3.org/2000/svg" viewBox="0 0 512 512">
  <path d="M 256 128 Q 198.4 128.8 152.8 156 L 152.8 156 L 152.8 156 Q 106.4 183.2 79.2 229.6 L 79.2 229.6 L 79.2 229.6 Q 52 275.2 51.2 332.8 L 51.2 409.6 L 51.2 409.6 Q 51.2 420.8 44 428 Q 36.8 435.2 25.6 435.2 Q 14.4 435.2 7.2 428 Q 0 420.8 0 409.6 L 0 332.8 L 0 332.8 Q 0.8 261.6 35.2 204 Q 68.8 145.6 127.2 112 Q 184.8 77.6 256 76.8 Q 327.2 77.6 384.8 112 Q 443.2 145.6 476.8 204 Q 511.2 261.6 512 332.8 L 512 409.6 L 512 409.6 Q 512 420.8 504.8 428 Q 497.6 435.2 486.4 435.2 Q 475.2 435.2 468 428 Q 460.8 420.8 460.8 409.6 L 460.8 332.8 L 460.8 332.8 Q 460 275.2 432.8 229.6 Q 405.6 183.2 359.2 156 Q 313.6 128.8 256 128 L 256 128 Z M 256 281.6 Q 234.4 282.4 220 296.8 L 220 296.8 L 220 296.8 Q 205.6 311.2 204.8 332.8 L 204.8 409.6 L 204.8 409.6 Q 204.8 420.8 197.6 428 Q 190.4 435.2 179.2 435.2 Q 168 435.2 160.8 428 Q 153.6 420.8 153.6 409.6 L 153.6 332.8 L 153.6 332.8 Q 154.4 289.6 183.2 260 Q 212.8 231.2 256 230.4 Q 299.2 231.2 328.8 260 Q 357.6 289.6 358.4 332.8 L 358.4 409.6 L 358.4 409.6 Q 358.4 420.8 351.2 428 Q 344 435.2 332.8 435.2 Q 321.6 435.2 314.4 428 Q 307.2 420.8 307.2 409.6 L 307.2 332.8 L 307.2 332.8 Q 306.4 311.2 292 296.8 Q 277.6 282.4 256 281.6 L 256 281.6 Z M 128 332.8 L 128 409.6 L 128 332.8 L 128 409.6 Q 128 420.8 120.8 428 Q 113.6 435.2 102.4 435.2 Q 91.2 435.2 84 428 Q 76.8 420.8 76.8 409.6 L 76.8 332.8 L 76.8 332.8 Q 77.6 282.4 101.6 242.4 Q 124.8 201.6 165.6 178.4 Q 205.6 154.4 256 153.6 Q 306.4 154.4 346.4 178.4 Q 387.2 201.6 410.4 242.4 Q 434.4 282.4 435.2 332.8 L 435.2 409.6 L 435.2 409.6 Q 435.2 420.8 428 428 Q 420.8 435.2 409.6 435.2 Q 398.4 435.2 391.2 428 Q 384 420.8 384 409.6 L 384 332.8 L 384 332.8 Q 382.4 278.4 346.4 242.4 Q 310.4 206.4 256 204.8 Q 201.6 206.4 165.6 242.4 Q 129.6 278.4 128 332.8 L 128 332.8 Z" />
</svg>