<svg xmlns="http://www.w3.org/2000/svg" viewBox="0 0 520 518">
    <path d="M 241 12 Q 260 0 279 12 L 388 90 L 388 70 Q 388 56 397 47 Q 406 38 420 38 L 452 38 Q 466 38 475 47 Q 484 56 484 70 L 484 159 L 503 172 Q 520 186 515 208 Q 507 229 484 230 L 452 230 L 420 230 L 36 230 Q 14 229 6 208 Q 0 186 17 172 L 241 12 L 241 12 Z M 36 286 Q 38 264 60 262 L 172 262 Q 194 264 196 286 L 196 302 Q 194 324 172 326 L 60 326 Q 38 324 36 302 L 36 286 L 36 286 Z M 60 358 L 172 358 Q 194 360 196 382 L 196 398 Q 194 420 172 422 L 60 422 Q 38 420 36 398 L 36 382 Q 38 360 60 358 L 60 358 Z M 60 454 L 172 454 Q 194 456 196 478 L 196 494 Q 194 516 172 518 L 60 518 Q 38 516 36 494 L 36 478 Q 38 456 60 454 L 60 454 Z M 324 286 Q 326 264 348 262 L 460 262 Q 482 264 484 286 L 484 302 Q 482 324 460 326 L 348 326 Q 326 324 324 302 L 324 286 L 324 286 Z M 348 454 L 460 454 Q 482 456 484 478 L 484 494 Q 482 516 460 518 L 348 518 Q 326 516 324 494 L 324 478 Q 326 456 348 454 L 348 454 Z M 324 382 Q 326 360 348 358 L 460 358 Q 482 360 484 382 L 484 398 Q 482 420 460 422 L 348 422 Q 326 420 324 398 L 324 382 L 324 382 Z M 260 166 Q 274 166 283 157 L 283 157 Q 292 148 292 134 Q 292 120 283 111 Q 274 102 260 102 Q 246 102 237 111 Q 228 120 228 134 Q 228 148 237 157 Q 246 166 260 166 L 260 166 Z"/>
</svg>
