<svg xmlns="http://www.w3.org/2000/svg" viewBox="0 0 512 512">
  <path d="M 64 32 Q 64 18 73 9 L 73 9 L 73 9 Q 82 0 96 0 L 416 0 L 416 0 Q 430 0 439 9 Q 448 18 448 32 L 448 64 L 448 64 Q 448 78 439 87 Q 430 96 416 96 L 96 96 L 96 96 Q 82 96 73 87 Q 64 78 64 64 L 64 32 L 64 32 Z M 96 128 L 416 128 L 96 128 L 416 128 L 416 448 L 416 448 Q 415 475 397 493 Q 379 511 352 512 L 160 512 L 160 512 Q 133 511 115 493 Q 97 475 96 448 L 96 416 L 96 416 L 208 416 L 208 416 Q 223 415 224 400 Q 223 385 208 384 L 96 384 L 96 384 L 96 320 L 96 320 L 208 320 L 208 320 Q 223 319 224 304 Q 223 289 208 288 L 96 288 L 96 288 L 96 224 L 96 224 L 208 224 L 208 224 Q 223 223 224 208 Q 223 193 208 192 L 96 192 L 96 192 L 96 128 L 96 128 Z" />
</svg>