<svg xmlns="http://www.w3.org/2000/svg" viewBox="0 0 512 512">
  <path d="M 256 512 Q 326 511 384 478 L 384 478 L 384 478 Q 442 444 478 384 Q 512 323 512 256 Q 512 189 478 128 Q 442 68 384 34 Q 326 1 256 0 Q 186 1 128 34 Q 70 68 34 128 Q 0 189 0 256 Q 0 323 34 384 Q 70 444 128 478 Q 186 511 256 512 L 256 512 Z M 352 400 L 344 400 L 352 400 L 344 400 L 344 360 L 344 360 L 399 360 L 399 360 Q 396 377 383 389 Q 370 400 352 400 L 352 400 Z M 399 344 L 344 344 L 399 344 L 344 344 L 344 304 L 344 304 L 352 304 L 352 304 Q 370 304 383 315 Q 396 327 399 344 L 399 344 Z M 328 344 L 264 344 L 328 344 L 264 344 L 264 304 L 264 304 L 328 304 L 328 304 L 328 344 L 328 344 Z M 328 400 L 264 400 L 328 400 L 264 400 L 264 360 L 264 360 L 328 360 L 328 360 L 328 400 L 328 400 Z M 248 304 L 248 344 L 248 304 L 248 344 L 184 344 L 184 344 L 184 304 L 184 304 L 248 304 L 248 304 Z M 248 360 L 248 400 L 248 360 L 248 400 L 184 400 L 184 400 L 184 360 L 184 360 L 248 360 L 248 360 Z M 168 344 L 113 344 L 168 344 L 113 344 Q 116 327 129 315 Q 142 304 160 304 L 168 304 L 168 304 L 168 344 L 168 344 Z M 168 400 L 160 400 L 168 400 L 160 400 Q 142 400 129 389 Q 116 377 113 360 L 168 360 L 168 360 L 168 400 L 168 400 Z M 144 208 Q 145 194 154 185 L 154 185 L 154 185 Q 163 176 176 176 Q 190 176 199 185 Q 208 194 208 208 Q 208 222 199 231 Q 190 240 176 240 Q 163 240 154 231 Q 145 222 144 208 L 144 208 Z M 336 176 Q 350 176 359 185 L 359 185 L 359 185 Q 368 194 368 208 Q 368 222 359 231 Q 350 240 336 240 Q 323 240 314 231 Q 305 222 304 208 Q 305 194 314 185 Q 323 176 336 176 L 336 176 Z" />
</svg>