<svg xmlns="http://www.w3.org/2000/svg" viewBox="0 0 576 447">
    <path d="M 64 191 Q 37 190 19 172 L 19 172 Q 1 154 0 127 Q 1 100 19 82 Q 37 64 64 63 L 288 63 Q 311 62 319 48 Q 327 35 328 15 Q 330 0 344 0 Q 385 4 416 27 Q 446 51 448 95 Q 447 136 420 163 Q 393 190 352 191 L 64 191 L 64 191 Z M 56 223 Q 78 225 80 247 L 80 383 L 112 383 L 112 247 Q 114 225 136 223 Q 158 225 160 247 L 160 383 L 192 383 L 192 247 Q 194 225 216 223 Q 238 225 240 247 L 240 383 L 272 383 L 272 247 Q 274 225 296 223 Q 318 225 320 247 L 320 383 L 352 383 L 352 247 Q 354 225 376 223 Q 398 225 400 247 L 400 383 L 544 383 Q 558 383 567 392 Q 576 401 576 415 Q 576 429 567 438 Q 558 447 544 447 L 32 447 Q 18 447 9 438 Q 0 429 0 415 Q 0 401 9 392 Q 18 383 32 383 L 32 247 Q 34 225 56 223 L 56 223 Z"/>
</svg>
