<svg xmlns="http://www.w3.org/2000/svg" viewBox="0 0 512 512">
  <path d="M 226 6 Q 224 0 218 0 L 199 0 L 199 0 Q 192 0 190 6 L 169 58 L 169 58 Q 166 64 160 64 Q 154 64 151 58 L 130 6 L 130 6 Q 128 0 122 0 L 112 0 L 112 0 Q 92 1 78 14 Q 65 28 64 48 L 64 224 L 64 224 L 64 246 L 64 246 L 64 256 L 64 256 L 74 256 L 448 256 L 448 246 L 448 246 L 448 224 L 448 224 L 448 48 L 448 48 Q 447 28 434 14 Q 420 1 400 0 L 295 0 L 295 0 Q 288 0 286 6 L 265 58 L 265 58 Q 262 64 256 64 Q 250 64 247 58 L 226 6 L 226 6 Z M 64 288 L 64 320 L 64 288 L 64 320 Q 65 347 83 365 Q 101 383 128 384 L 192 384 L 192 384 L 192 448 L 192 448 Q 193 475 211 493 Q 229 511 256 512 Q 283 511 301 493 Q 319 475 320 448 L 320 384 L 320 384 L 384 384 L 384 384 Q 411 383 429 365 Q 447 347 448 320 L 448 288 L 448 288 L 64 288 L 64 288 Z M 256 432 Q 271 433 272 448 Q 271 463 256 464 Q 241 463 240 448 Q 241 433 256 432 L 256 432 Z" />
</svg>