<svg xmlns="http://www.w3.org/2000/svg" viewBox="0 0 512 512">
  <path d="M 75.96908809891808 154.70788253477588 Q 75.96908809891808 127.01081916537868 89.42194744976815 104.06182380216383 L 89.42194744976815 104.06182380216383 L 89.42194744976815 104.06182380216383 Q 102.87480680061825 81.112828438949 126.61514683153014 66.86862442040186 Q 150.35548686244204 53.415765069551775 177.2612055641422 53.415765069551775 Q 204.16692426584234 53.415765069551775 227.90726429675425 66.86862442040186 Q 251.64760432766616 81.112828438949 265.10046367851623 104.06182380216383 Q 278.5533230293663 127.01081916537868 278.5533230293663 154.70788253477588 Q 278.5533230293663 182.4049459041731 265.10046367851623 205.35394126738794 Q 251.64760432766616 228.30293663060277 227.90726429675425 242.54714064914992 Q 204.16692426584234 256 177.2612055641422 256 Q 150.35548686244204 256 126.61514683153014 242.54714064914992 Q 102.87480680061825 228.30293663060277 89.42194744976815 205.35394126738794 Q 75.96908809891808 182.4049459041731 75.96908809891808 154.70788253477588 L 75.96908809891808 154.70788253477588 Z M 0 434.84389489953634 Q 1.5826893353941267 375.4930448222566 41.1499227202473 335.13446676970636 L 41.1499227202473 335.13446676970636 L 41.1499227202473 335.13446676970636 Q 81.50850077279753 295.5672333848532 140.85935085007728 293.98454404945903 L 213.6630602782071 293.98454404945903 L 213.6630602782071 293.98454404945903 Q 273.01391035548687 295.5672333848532 313.3724884080371 335.13446676970636 Q 352.9397217928903 375.4930448222566 354.5224111282844 434.84389489953634 Q 354.5224111282844 445.13137557959817 347.40030911901084 451.46213292117466 Q 341.0695517774343 458.58423493044825 330.78207109737247 458.58423493044825 L 23.740340030911902 458.58423493044825 L 23.740340030911902 458.58423493044825 Q 13.452859350850078 458.58423493044825 7.12210200927357 451.46213292117466 Q 0 445.13137557959817 0 434.84389489953634 L 0 434.84389489953634 Z M 372.72333848531684 166.57805255023183 Q 386.1761978361669 155.49922720247295 399.629057187017 166.57805255023183 L 436.822256568779 203.77125193199382 L 436.822256568779 203.77125193199382 L 474.01545595054097 166.57805255023183 L 474.01545595054097 166.57805255023183 Q 487.46831530139104 155.49922720247295 500.9211746522411 166.57805255023183 Q 512 180.0309119010819 500.9211746522411 193.48377125193198 L 463.72797527047913 230.67697063369397 L 463.72797527047913 230.67697063369397 L 500.9211746522411 267.8701700154559 L 500.9211746522411 267.8701700154559 Q 512 281.323029366306 500.9211746522411 294.7758887171561 Q 487.46831530139104 305.854714064915 474.01545595054097 294.7758887171561 L 436.822256568779 257.58268933539415 L 436.822256568779 257.58268933539415 L 399.629057187017 294.7758887171561 L 399.629057187017 294.7758887171561 Q 386.1761978361669 305.854714064915 372.72333848531684 294.7758887171561 Q 361.64451313755796 281.323029366306 372.72333848531684 267.8701700154559 L 409.91653786707883 230.67697063369397 L 409.91653786707883 230.67697063369397 L 372.72333848531684 193.48377125193198 L 372.72333848531684 193.48377125193198 Q 361.64451313755796 180.0309119010819 372.72333848531684 166.57805255023183 L 372.72333848531684 166.57805255023183 Z" />
</svg>