<svg xmlns="http://www.w3.org/2000/svg" viewBox="0 0 512 512">
  <path d="M 8.827586 277.66772 L 42.532917 353.90594 L 8.827586 277.66772 L 42.532917 353.90594 Q 51.3605 370.7586 70.62069 368.3511 L 158.09404 350.69592 L 158.09404 350.69592 Q 177.35423 345.8809 178.95924 325.81818 L 178.95924 256.80252 L 178.95924 256.80252 Q 256 231.92476 333.04074 256.80252 L 333.04074 325.81818 L 333.04074 325.81818 Q 334.64578 345.8809 353.90594 350.69592 L 441.3793 368.3511 L 441.3793 368.3511 Q 460.6395 370.7586 469.46707 353.90594 L 503.17242 277.66772 L 503.17242 277.66772 Q 512 256.80252 497.55487 239.94984 Q 467.05957 207.04703 405.26645 174.9467 Q 343.47336 143.6489 256 141.24138 Q 168.52664 143.6489 106.73354 174.9467 Q 44.940437 207.04703 14.445141 239.94984 Q 0 256.80252 8.827586 277.66772 L 8.827586 277.66772 Z" />
</svg>