<svg xmlns="http://www.w3.org/2000/svg" viewBox="0 0 638 518">
    <path d="M 88 0 Q 66 2 64 24 Q 66 46 88 48 L 134 48 Q 140 48 141 55 L 193 326 Q 198 351 218 368 Q 237 384 264 384 L 552 384 Q 574 382 576 360 Q 574 338 552 336 L 264 336 Q 245 335 240 317 L 235 288 L 523 288 Q 548 288 567 273 Q 586 259 593 235 L 634 82 Q 638 63 627 48 Q 615 33 595 32 L 184 32 Q 169 2 134 0 L 88 0 L 88 0 Z M 240 512 Q 267 511 282 488 Q 294 464 282 440 Q 267 417 240 416 Q 213 417 198 440 Q 186 464 198 488 Q 213 511 240 512 L 240 512 Z M 576 464 Q 575 437 552 422 Q 528 410 504 422 Q 481 437 480 464 Q 481 491 504 506 Q 528 518 552 506 Q 575 491 576 464 L 576 464 Z M 24 96 Q 2 98 0 120 Q 2 142 24 144 L 104 144 Q 126 142 128 120 Q 126 98 104 96 L 24 96 L 24 96 Z M 24 176 Q 2 178 0 200 Q 2 222 24 224 L 120 224 Q 142 222 144 200 Q 142 178 120 176 L 24 176 L 24 176 Z M 24 256 Q 2 258 0 280 Q 2 302 24 304 L 136 304 Q 158 302 160 280 Q 158 258 136 256 L 24 256 L 24 256 Z"/>
</svg>
