<svg xmlns="http://www.w3.org/2000/svg" viewBox="0 0 512 512">
  <path d="M 256.9961 447.25293 Q 328.71594 446.2568 385.49417 419.36188 L 385.49417 419.36188 L 385.49417 419.36188 Q 443.2685 391.47083 477.1362 344.6537 L 477.1362 344.6537 L 477.1362 344.6537 Q 511.0039 297.83658 512 240.06226 Q 511.0039 182.28793 477.1362 135.47081 Q 443.2685 88.653694 385.49417 60.762646 Q 328.71594 33.867702 256.9961 32.871593 Q 185.27626 33.867702 128.49805 60.762646 Q 70.72373 88.653694 36.85603 135.47081 Q 2.9883268 182.28793 1.9922179 240.06226 Q 2.9883268 308.79376 49.805447 360.59143 Q 44.8249 397.44748 27.89105 423.3463 Q 19.922178 437.29184 12.949416 444.2646 Q 9.961089 448.24902 7.9688716 450.24124 Q 7.9688716 451.23737 6.9727626 451.23737 Q 6.9727626 451.23737 6.9727626 452.23346 L 6.9727626 452.23346 L 6.9727626 452.23346 L 6.9727626 452.23346 L 6.9727626 452.23346 L 6.9727626 452.23346 L 6.9727626 452.23346 L 6.9727626 452.23346 L 6.9727626 452.23346 L 6.9727626 452.23346 L 6.9727626 452.23346 Q 0 459.20624 2.9883268 469.16733 Q 7.9688716 479.12842 17.92996 479.12842 Q 61.758755 477.1362 99.61089 460.20233 Q 134.4747 444.2646 153.40077 429.32297 Q 201.214 447.25293 256.9961 447.25293 L 256.9961 447.25293 Z M 369.55643 193.24513 L 242.05447 320.74707 L 369.55643 193.24513 L 242.05447 320.74707 Q 225.12062 334.6926 208.18677 320.74707 L 144.43579 256.9961 L 144.43579 256.9961 Q 130.49026 240.06226 144.43579 223.1284 Q 161.36964 209.18288 178.3035 223.1284 L 225.12062 269.94553 L 225.12062 269.94553 L 335.68872 159.37743 L 335.68872 159.37743 Q 352.62256 145.4319 369.55643 159.37743 Q 383.50195 176.31128 369.55643 193.24513 L 369.55643 193.24513 Z" />
</svg>