<svg xmlns="http://www.w3.org/2000/svg" viewBox="0 0 512 512">
  <path d="M 73.14286 0 Q 42.285713 1.1428572 21.714285 21.714285 L 21.714285 21.714285 L 21.714285 21.714285 Q 1.1428572 42.285713 0 73.14286 L 0 438.85715 L 0 438.85715 Q 1.1428572 469.7143 21.714285 490.2857 Q 42.285713 510.85715 73.14286 512 L 438.85715 512 L 438.85715 512 Q 469.7143 510.85715 490.2857 490.2857 Q 510.85715 469.7143 512 438.85715 L 512 73.14286 L 512 73.14286 Q 510.85715 42.285713 490.2857 21.714285 Q 469.7143 1.1428572 438.85715 0 L 73.14286 0 L 73.14286 0 Z M 164.57143 256 Q 165.71428 294.85715 190.85715 321.14285 L 190.85715 321.14285 L 190.85715 321.14285 Q 217.14285 346.2857 256 347.42856 Q 278.85715 347.42856 298.2857 337.14285 L 264 302.85715 L 264 302.85715 Q 248 283.42856 264 264 Q 283.42856 248 302.85715 264 L 337.14285 298.2857 L 337.14285 298.2857 Q 347.42856 278.85715 347.42856 256 Q 346.2857 217.14285 321.14285 190.85715 Q 294.85715 165.71428 256 164.57143 Q 217.14285 165.71428 190.85715 190.85715 Q 165.71428 217.14285 164.57143 256 L 164.57143 256 Z M 402.2857 256 Q 401.14285 302.85715 377.14285 338.2857 L 394.2857 355.42856 L 394.2857 355.42856 Q 410.2857 374.85715 394.2857 394.2857 Q 374.85715 410.2857 355.42856 394.2857 L 338.2857 377.14285 L 338.2857 377.14285 Q 302.85715 401.14285 256 402.2857 Q 194.28572 401.14285 153.14285 358.85715 Q 110.85714 317.7143 109.71429 256 Q 110.85714 194.28572 153.14285 152 Q 194.28572 110.85714 256 109.71429 Q 317.7143 110.85714 360 152 Q 401.14285 194.28572 402.2857 256 L 402.2857 256 Z" />
</svg>