<svg xmlns="http://www.w3.org/2000/svg" viewBox="0 0 512 512">
  <path d="M 176 96 Q 204.57143 73.14286 242.28572 73.14286 L 291.42856 73.14286 L 291.42856 73.14286 Q 315.42856 74.28571 331.42856 89.14286 Q 346.2857 105.14286 347.42856 129.14285 Q 347.42856 149.71428 334.85715 164.57143 L 73.14286 164.57143 L 73.14286 164.57143 Q 57.142857 164.57143 46.857143 174.85715 Q 36.57143 185.14285 36.57143 201.14285 Q 36.57143 217.14285 46.857143 227.42857 Q 57.142857 237.71428 73.14286 237.71428 L 214.85715 237.71428 L 214.85715 237.71428 L 156.57143 270.85715 L 156.57143 270.85715 Q 153.14285 272 150.85715 274.2857 L 73.14286 274.2857 L 73.14286 274.2857 Q 57.142857 274.2857 46.857143 284.57144 Q 36.57143 294.85715 36.57143 310.85715 Q 36.57143 326.85715 46.857143 337.14285 Q 57.142857 347.42856 73.14286 347.42856 L 96 347.42856 L 96 347.42856 Q 91.42857 364.57144 91.42857 382.85715 Q 92.57143 437.7143 129.14285 474.2857 Q 165.71428 510.85715 220.57143 512 L 269.7143 512 L 269.7143 512 Q 332.57144 512 381.7143 473.14285 L 388.57144 467.42856 L 388.57144 467.42856 Q 400 457.14285 402.2857 443.42856 Q 403.42856 428.57144 394.2857 416 Q 384 404.57144 370.2857 402.2857 Q 355.42856 401.14285 342.85715 410.2857 L 336 416 L 336 416 Q 307.42856 438.85715 269.7143 438.85715 L 220.57143 438.85715 L 220.57143 438.85715 Q 196.57143 437.7143 180.57143 422.85715 Q 165.71428 406.85715 164.57143 382.85715 Q 164.57143 362.2857 177.14285 347.42856 L 438.85715 347.42856 L 438.85715 347.42856 Q 454.85715 347.42856 465.14285 337.14285 Q 475.42856 326.85715 475.42856 310.85715 Q 475.42856 294.85715 465.14285 284.57144 Q 454.85715 274.2857 438.85715 274.2857 L 298.2857 274.2857 L 298.2857 274.2857 L 355.42856 241.14285 L 355.42856 241.14285 Q 358.85715 240 361.14285 237.71428 L 438.85715 237.71428 L 438.85715 237.71428 Q 454.85715 237.71428 465.14285 227.42857 Q 475.42856 217.14285 475.42856 201.14285 Q 475.42856 185.14285 465.14285 174.85715 Q 454.85715 164.57143 438.85715 164.57143 L 416 164.57143 L 416 164.57143 Q 420.57144 147.42857 420.57144 129.14285 Q 419.42856 74.28571 382.85715 37.714287 Q 346.2857 1.1428572 291.42856 0 L 242.28572 0 L 242.28572 0 Q 179.42857 0 130.28572 38.857143 L 123.42857 44.57143 L 123.42857 44.57143 Q 112 54.857143 109.71429 68.57143 Q 108.57143 83.42857 117.71429 96 Q 128 107.42857 141.71428 109.71429 Q 156.57143 110.85714 169.14285 101.71429 L 176 96 L 176 96 Z" />
</svg>