<svg xmlns="http://www.w3.org/2000/svg" viewBox="0 0 512 512">
  <path d="M 496.0553633217993 235.62629757785467 Q 507.57093425605535 226.7681660899654 510.2283737024221 212.59515570934255 L 510.2283737024221 212.59515570934255 L 510.2283737024221 212.59515570934255 Q 512 198.42214532871972 503.1418685121107 186.02076124567475 Q 494.28373702422147 174.5051903114187 480.11072664359864 171.8477508650519 Q 465.93771626297575 170.07612456747404 453.5363321799308 178.93425605536333 L 348.12456747404843 256.88581314878894 L 348.12456747404843 256.88581314878894 L 240.94117647058823 256.88581314878894 L 240.94117647058823 256.88581314878894 Q 227.65397923875432 256 226.7681660899654 242.71280276816609 Q 227.65397923875432 229.42560553633217 240.94117647058823 228.53979238754326 L 255.11418685121106 228.53979238754326 L 311.8062283737024 228.53979238754326 Q 324.2076124567474 228.53979238754326 332.1799307958477 220.5674740484429 Q 340.1522491349481 212.59515570934255 340.1522491349481 200.19377162629758 Q 340.1522491349481 187.7923875432526 332.1799307958477 179.82006920415225 Q 324.2076124567474 171.8477508650519 311.8062283737024 171.8477508650519 L 255.11418685121106 171.8477508650519 L 171.8477508650519 171.8477508650519 Q 131.98615916955018 171.8477508650519 100.98269896193771 196.65051903114187 L 61.121107266435985 228.53979238754326 L 61.121107266435985 228.53979238754326 L 28.346020761245676 228.53979238754326 L 28.346020761245676 228.53979238754326 Q 15.944636678200691 228.53979238754326 7.972318339100346 236.5121107266436 Q 0 244.48442906574394 0 256.88581314878894 L 0 313.57785467128025 L 0 313.57785467128025 Q 0 325.97923875432525 7.972318339100346 333.9515570934256 Q 15.944636678200691 341.92387543252596 28.346020761245676 341.92387543252596 L 170.07612456747404 341.92387543252596 L 312.69204152249137 341.92387543252596 Q 351.66782006920414 341.92387543252596 383.55709342560556 318.89273356401384 L 496.0553633217993 235.62629757785467 L 496.0553633217993 235.62629757785467 Z M 171.8477508650519 228.53979238754326 Q 171.8477508650519 228.53979238754326 171.8477508650519 229.42560553633217 Q 170.96193771626298 229.42560553633217 170.96193771626298 229.42560553633217 Q 170.96193771626298 228.53979238754326 170.96193771626298 228.53979238754326 Q 170.96193771626298 228.53979238754326 170.96193771626298 227.65397923875432 Q 170.96193771626298 227.65397923875432 170.96193771626298 227.65397923875432 Q 171.8477508650519 228.53979238754326 171.8477508650519 228.53979238754326 L 171.8477508650519 228.53979238754326 Z" />
</svg>