<svg xmlns="http://www.w3.org/2000/svg" viewBox="0 0 516 514">
    <path d="M 132 64 Q 133 37 151 19 L 151 19 Q 169 1 196 0 L 356 0 L 356 128 Q 356 142 365 151 Q 374 160 388 160 L 516 160 L 516 448 Q 515 475 497 493 Q 479 511 452 512 L 225 512 Q 228 504 228 496 L 228 416 Q 229 416 230 415 Q 231 415 232 415 Q 242 410 252 399 Q 262 387 264 372 Q 265 367 265 365 Q 265 365 265 365 Q 267 363 271 360 Q 286 348 290 331 Q 295 313 288 295 Q 287 291 286 289 Q 286 289 285 288 Q 285 288 285 288 Q 286 286 288 281 Q 295 263 290 246 Q 286 228 271 216 Q 267 213 265 212 Q 265 212 265 211 Q 265 210 264 205 Q 264 205 264 204 Q 261 185 248 172 Q 235 159 216 156 Q 211 156 209 155 Q 209 155 209 155 Q 207 153 204 150 Q 192 135 175 130 Q 157 125 139 132 Q 135 134 133 135 Q 133 135 132 135 L 132 135 L 132 64 L 132 64 Z M 516 128 L 388 128 L 388 0 L 516 128 L 516 128 Z M 113 162 L 129 168 Q 132 169 135 168 L 151 162 Q 168 156 179 169 L 190 183 Q 192 185 195 186 L 212 188 Q 229 191 232 208 L 234 225 Q 235 228 237 230 L 251 241 Q 264 252 258 269 L 252 285 Q 251 288 252 291 L 259 307 Q 264 323 251 335 L 238 346 Q 235 348 235 351 L 232 368 Q 229 385 212 388 L 196 390 L 196 496 Q 196 505 188 510 Q 179 514 171 509 L 132 483 L 93 509 Q 85 514 77 510 Q 68 505 68 496 L 68 390 L 53 388 Q 35 385 32 368 L 30 351 Q 29 347 27 345 L 13 335 Q 0 323 6 307 L 12 291 Q 13 288 12 285 L 6 269 Q 0 253 13 241 L 27 231 Q 29 229 30 225 L 32 209 Q 35 191 52 188 L 69 186 Q 73 185 75 183 L 85 169 Q 96 156 113 162 L 113 162 Z M 196 288 Q 195 252 164 233 Q 132 215 100 233 Q 69 252 68 288 Q 69 324 100 343 Q 132 361 164 343 Q 195 324 196 288 L 196 288 Z"/>
</svg>
