<svg xmlns="http://www.w3.org/2000/svg" viewBox="0 0 512 512">
  <path d="M 144.21832 95.81287 Q 171.1657 94.81481 186.13646 71.85965 Q 198.11307 47.906433 186.13646 23.953217 Q 171.1657 0.9980507 144.21832 0 Q 117.27096 0.9980507 102.30019 23.953217 Q 90.323586 47.906433 102.30019 71.85965 Q 117.27096 94.81481 144.21832 95.81287 L 144.21832 95.81287 Z M 160.18713 306.40155 L 160.18713 241.52826 L 160.18713 306.40155 L 160.18713 241.52826 L 177.15399 266.47952 L 177.15399 266.47952 Q 191.12671 286.44055 217.07602 287.4386 L 287.93762 287.4386 L 415.6881 287.4386 Q 429.66083 287.4386 438.64328 278.45615 Q 447.62573 269.4737 447.62573 255.50098 L 447.62573 127.75049 L 447.62573 127.75049 Q 447.62573 113.77778 438.64328 104.79532 Q 429.66083 95.81287 415.6881 95.81287 L 287.93762 95.81287 L 287.93762 95.81287 Q 273.9649 95.81287 264.98245 104.79532 Q 256 113.77778 256 127.75049 L 256 223.56335 L 256 223.56335 L 225.06042 223.56335 L 225.06042 223.56335 L 183.1423 159.68811 L 183.1423 159.68811 Q 161.18518 128.74854 123.25926 127.75049 Q 98.30799 128.74854 81.34113 144.71735 Q 65.37232 161.6842 64.37427 186.63548 L 64.37427 274.46393 L 64.37427 274.46393 Q 64.37427 300.41327 83.337234 319.37622 L 162.18324 398.22223 L 162.18324 398.22223 L 176.15594 484.0546 L 176.15594 484.0546 Q 179.1501 498.02728 189.1306 505.01364 Q 200.10916 512 213.08382 511.00195 Q 227.05653 508.0078 234.0429 498.02728 Q 241.02924 487.04874 240.03119 474.07407 L 224.06238 383.25146 L 224.06238 383.25146 Q 222.06628 368.2807 211.08772 357.30215 L 160.18713 306.40155 L 160.18713 306.40155 Z M 64.37427 346.32358 L 64.37427 479.06433 L 64.37427 346.32358 L 64.37427 479.06433 Q 64.37427 493.03705 73.35673 502.0195 Q 82.33918 511.00195 96.31189 511.00195 Q 110.2846 511.00195 119.26706 502.0195 Q 128.24951 493.03705 128.24951 479.06433 L 128.24951 479.06433 L 128.24951 479.06433 L 128.24951 410.19882 L 128.24951 410.19882 L 64.37427 346.32358 L 64.37427 346.32358 Z" />
</svg>