<svg xmlns="http://www.w3.org/2000/svg" viewBox="0 0 586 513">
    <path d="M 437 1 L 293 1 L 293 1 Q 284 0 250 6 Q 215 12 173 39 Q 129 67 100 127 Q 70 188 69 289 Q 69 333 60 365 Q 51 398 40 419 Q 29 440 21 450 Q 18 455 16 457 Q 15 458 14 458 Q 14 458 14 458 L 14 459 Q 0 474 7 493 Q 16 512 37 513 L 133 513 L 133 321 Q 135 253 180 208 Q 225 163 293 161 Q 361 163 406 208 Q 451 253 453 321 L 453 513 L 549 513 Q 570 512 579 493 Q 586 474 572 459 L 572 459 L 572 459 L 572 459 L 572 458 Q 571 458 570 457 Q 568 455 565 450 Q 557 440 546 419 Q 535 398 526 365 Q 517 333 517 289 Q 516 212 488 158 Q 460 105 421 72 L 453 43 Q 464 31 459 16 Q 453 2 437 1 L 437 1 Z M 421 513 L 421 321 Q 420 267 384 230 Q 347 194 293 193 Q 239 194 202 230 Q 166 267 165 321 L 165 513 L 421 513 L 421 513 Z"/>
</svg>
