<svg xmlns="http://www.w3.org/2000/svg" viewBox="0 0 512 512">
  <path d="M 160 0 Q 133 1 115 19 L 115 19 L 115 19 Q 97 37 96 64 L 96 352 L 96 352 Q 98 420 143 465 Q 188 510 256 512 Q 324 510 369 465 Q 414 420 416 352 L 416 64 L 416 64 Q 415 37 397 19 Q 379 1 352 0 L 160 0 L 160 0 Z M 256 416 Q 229 415 214 392 Q 202 368 214 344 Q 229 321 256 320 Q 283 321 298 344 Q 310 368 298 392 Q 283 415 256 416 L 256 416 Z M 256 216 Q 234 218 232 240 Q 234 262 256 264 Q 278 262 280 240 Q 278 218 256 216 L 256 216 Z M 256 288 Q 229 287 214 264 Q 202 240 214 216 Q 229 193 256 192 Q 283 193 298 216 Q 310 240 298 264 Q 283 287 256 288 L 256 288 Z M 232 112 Q 234 134 256 136 Q 278 134 280 112 Q 278 90 256 88 Q 234 90 232 112 L 232 112 Z M 304 112 Q 303 139 280 154 Q 256 166 232 154 Q 209 139 208 112 Q 209 85 232 70 Q 256 58 280 70 Q 303 85 304 112 L 304 112 Z" />
</svg>