<svg xmlns="http://www.w3.org/2000/svg" viewBox="0 0 448 448">
    <path d="M 0 64 Q 1 37 19 19 L 19 19 Q 37 1 64 0 L 384 0 Q 411 1 429 19 Q 447 37 448 64 L 448 384 Q 447 411 429 429 Q 411 447 384 448 L 64 448 Q 37 447 19 429 Q 1 411 0 384 L 0 64 L 0 64 Z M 384 224 Q 384 181 363 144 L 363 144 Q 341 107 304 85 Q 266 64 224 64 Q 182 64 144 85 Q 107 107 85 144 Q 64 181 64 224 Q 64 267 85 304 Q 107 341 144 363 Q 182 384 224 384 Q 266 384 304 363 Q 341 341 363 304 Q 384 267 384 224 L 384 224 Z M 224 192 Q 238 192 247 201 L 247 201 Q 256 210 256 224 Q 256 238 247 247 Q 238 256 224 256 Q 210 256 201 247 Q 192 238 192 224 Q 192 210 201 201 Q 210 192 224 192 L 224 192 Z"/>
</svg>
