<svg xmlns="http://www.w3.org/2000/svg" viewBox="0 0 512 512">
  <path d="M 256.99610894941634 447.25291828793775 Q 328.715953307393 446.2568093385214 385.4941634241245 419.36186770428014 L 385.4941634241245 419.36186770428014 L 385.4941634241245 419.36186770428014 Q 443.2684824902724 391.47081712062254 477.136186770428 344.6536964980545 L 477.136186770428 344.6536964980545 L 477.136186770428 344.6536964980545 Q 511.00389105058366 297.8365758754864 512 240.06225680933852 Q 511.00389105058366 182.28793774319067 477.136186770428 135.47081712062257 Q 443.2684824902724 88.65369649805447 385.4941634241245 60.762645914396884 Q 328.715953307393 33.86770428015564 256.99610894941634 32.8715953307393 Q 185.27626459143968 33.86770428015564 128.49805447470817 60.762645914396884 Q 70.72373540856032 88.65369649805447 36.856031128404666 135.47081712062257 Q 2.9883268482490273 182.28793774319067 1.9922178988326849 240.06225680933852 Q 2.9883268482490273 308.79377431906613 49.80544747081712 360.591439688716 Q 44.824902723735406 397.44747081712063 27.891050583657588 423.3463035019455 Q 19.92217898832685 437.2918287937743 12.949416342412452 444.26459143968873 Q 9.961089494163424 448.2490272373541 7.968871595330739 450.24124513618676 Q 7.968871595330739 451.2373540856031 6.972762645914397 451.2373540856031 Q 6.972762645914397 451.2373540856031 6.972762645914397 452.23346303501944 L 6.972762645914397 452.23346303501944 L 6.972762645914397 452.23346303501944 L 6.972762645914397 452.23346303501944 L 6.972762645914397 452.23346303501944 L 6.972762645914397 452.23346303501944 L 6.972762645914397 452.23346303501944 L 6.972762645914397 452.23346303501944 L 6.972762645914397 452.23346303501944 L 6.972762645914397 452.23346303501944 L 6.972762645914397 452.23346303501944 Q 0 459.20622568093387 2.9883268482490273 469.16731517509726 Q 7.968871595330739 479.1284046692607 17.929961089494164 479.1284046692607 Q 61.75875486381323 477.136186770428 99.61089494163424 460.2023346303502 Q 134.47470817120623 444.26459143968873 153.40077821011673 429.3229571984436 Q 201.21400778210116 447.25291828793775 256.99610894941634 447.25291828793775 L 256.99610894941634 447.25291828793775 Z M 256.99610894941634 112.56031128404669 Q 278.91050583657585 114.55252918287938 280.9027237354086 136.4669260700389 L 280.9027237354086 248.03112840466926 L 280.9027237354086 248.03112840466926 Q 278.91050583657585 269.9455252918288 256.99610894941634 271.9377431906615 Q 235.0817120622568 269.9455252918288 233.08949416342412 248.03112840466926 L 233.08949416342412 136.4669260700389 L 233.08949416342412 136.4669260700389 Q 235.0817120622568 114.55252918287938 256.99610894941634 112.56031128404669 L 256.99610894941634 112.56031128404669 Z M 225.12062256809338 335.6887159533074 Q 225.12062256809338 321.7431906614786 234.08560311284046 312.77821011673154 L 234.08560311284046 312.77821011673154 L 234.08560311284046 312.77821011673154 Q 243.05058365758754 303.81322957198444 256.99610894941634 303.81322957198444 Q 270.94163424124514 303.81322957198444 279.9066147859922 312.77821011673154 Q 288.8715953307393 321.7431906614786 288.8715953307393 335.6887159533074 Q 288.8715953307393 349.6342412451362 279.9066147859922 358.59922178988325 Q 270.94163424124514 367.56420233463035 256.99610894941634 367.56420233463035 Q 243.05058365758754 367.56420233463035 234.08560311284046 358.59922178988325 Q 225.12062256809338 349.6342412451362 225.12062256809338 335.6887159533074 L 225.12062256809338 335.6887159533074 Z" />
</svg>