<svg xmlns="http://www.w3.org/2000/svg" viewBox="0 0 512 512">
  <path d="M 56.88889 56.88889 Q 56.88889 44.444443 48.88889 36.444443 L 48.88889 36.444443 L 48.88889 36.444443 Q 40.88889 28.444445 28.444445 28.444445 Q 16 28.444445 8 36.444443 Q 0 44.444443 0 56.88889 L 0 455.1111 L 0 455.1111 Q 0 467.55554 8 475.55554 Q 16 483.55554 28.444445 483.55554 Q 40.88889 483.55554 48.88889 475.55554 Q 56.88889 467.55554 56.88889 455.1111 L 56.88889 426.66666 L 56.88889 426.66666 L 227.55556 426.66666 L 455.1111 426.66666 L 455.1111 455.1111 L 455.1111 455.1111 Q 455.1111 467.55554 463.1111 475.55554 Q 471.1111 483.55554 483.55554 483.55554 Q 496 483.55554 504 475.55554 Q 512 467.55554 512 455.1111 L 512 426.66666 L 512 426.66666 L 512 398.22223 L 512 398.22223 L 512 284.44446 L 512 284.44446 L 512 256 L 512 256 L 512 199.11111 L 512 199.11111 L 512 170.66667 L 512 170.66667 L 512 128 L 512 128 Q 511.1111 85.333336 482.66666 57.77778 Q 455.1111 29.333334 412.44446 28.444445 L 227.55556 28.444445 L 227.55556 28.444445 Q 215.11111 28.444445 207.11111 36.444443 Q 199.11111 44.444443 199.11111 56.88889 L 199.11111 142.22223 L 199.11111 142.22223 L 56.88889 142.22223 L 56.88889 142.22223 L 56.88889 56.88889 L 56.88889 56.88889 Z M 455.1111 256 L 227.55556 256 L 455.1111 256 L 227.55556 256 Q 215.11111 256 207.11111 264 Q 199.11111 272 199.11111 284.44446 L 199.11111 369.77777 L 199.11111 369.77777 L 56.88889 369.77777 L 56.88889 369.77777 L 56.88889 199.11111 L 56.88889 199.11111 L 227.55556 199.11111 L 455.1111 199.11111 L 455.1111 256 L 455.1111 256 Z M 170.66667 298.66666 Q 169.77777 274.66666 149.33333 261.33334 Q 128 250.66667 106.666664 261.33334 Q 86.22222 274.66666 85.333336 298.66666 Q 86.22222 322.66666 106.666664 336 Q 128 346.66666 149.33333 336 Q 169.77777 322.66666 170.66667 298.66666 L 170.66667 298.66666 Z M 128 113.77778 Q 152 112.888885 165.33333 92.44444 Q 176 71.111115 165.33333 49.77778 Q 152 29.333334 128 28.444445 Q 104 29.333334 90.666664 49.77778 Q 80 71.111115 90.666664 92.44444 Q 104 112.888885 128 113.77778 L 128 113.77778 Z" />
</svg>