<svg xmlns="http://www.w3.org/2000/svg" viewBox="0 0 448 448">
    <path d="M 64 0 Q 37 1 19 19 L 19 19 Q 1 37 0 64 L 0 384 Q 1 411 19 429 Q 37 447 64 448 L 384 448 Q 411 447 429 429 Q 447 411 448 384 L 448 64 Q 447 37 429 19 Q 411 1 384 0 L 64 0 L 64 0 Z M 224 192 Q 238 192 247 201 L 247 201 Q 256 210 256 224 Q 256 238 247 247 Q 238 256 224 256 Q 210 256 201 247 Q 192 238 192 224 Q 192 210 201 201 Q 210 192 224 192 L 224 192 Z M 192 128 Q 192 114 201 105 L 201 105 Q 210 96 224 96 Q 238 96 247 105 Q 256 114 256 128 Q 256 142 247 151 Q 238 160 224 160 Q 210 160 201 151 Q 192 142 192 128 L 192 128 Z M 224 288 Q 238 288 247 297 L 247 297 Q 256 306 256 320 Q 256 334 247 343 Q 238 352 224 352 Q 210 352 201 343 Q 192 334 192 320 Q 192 306 201 297 Q 210 288 224 288 L 224 288 Z"/>
</svg>
