<svg xmlns="http://www.w3.org/2000/svg" viewBox="0 0 512 512">
  <path d="M 256.99610894941634 447.25291828793775 Q 328.715953307393 446.2568093385214 385.4941634241245 419.36186770428014 L 385.4941634241245 419.36186770428014 L 385.4941634241245 419.36186770428014 Q 443.2684824902724 391.47081712062254 477.136186770428 344.6536964980545 L 477.136186770428 344.6536964980545 L 477.136186770428 344.6536964980545 Q 511.00389105058366 297.8365758754864 512 240.06225680933852 Q 511.00389105058366 182.28793774319067 477.136186770428 135.47081712062257 Q 443.2684824902724 88.65369649805447 385.4941634241245 60.762645914396884 Q 328.715953307393 33.86770428015564 256.99610894941634 32.8715953307393 Q 185.27626459143968 33.86770428015564 128.49805447470817 60.762645914396884 Q 70.72373540856032 88.65369649805447 36.856031128404666 135.47081712062257 Q 2.9883268482490273 182.28793774319067 1.9922178988326849 240.06225680933852 Q 2.9883268482490273 308.79377431906613 49.80544747081712 360.591439688716 Q 44.824902723735406 397.44747081712063 27.891050583657588 423.3463035019455 Q 19.92217898832685 437.2918287937743 12.949416342412452 444.26459143968873 Q 9.961089494163424 448.2490272373541 7.968871595330739 450.24124513618676 Q 7.968871595330739 451.2373540856031 6.972762645914397 451.2373540856031 Q 6.972762645914397 451.2373540856031 6.972762645914397 452.23346303501944 L 6.972762645914397 452.23346303501944 L 6.972762645914397 452.23346303501944 L 6.972762645914397 452.23346303501944 L 6.972762645914397 452.23346303501944 L 6.972762645914397 452.23346303501944 L 6.972762645914397 452.23346303501944 L 6.972762645914397 452.23346303501944 L 6.972762645914397 452.23346303501944 L 6.972762645914397 452.23346303501944 L 6.972762645914397 452.23346303501944 Q 0 459.20622568093387 2.9883268482490273 469.16731517509726 Q 7.968871595330739 479.1284046692607 17.929961089494164 479.1284046692607 Q 61.75875486381323 477.136186770428 99.61089494163424 460.2023346303502 Q 134.47470817120623 444.26459143968873 153.40077821011673 429.3229571984436 Q 201.21400778210116 447.25291828793775 256.99610894941634 447.25291828793775 L 256.99610894941634 447.25291828793775 Z M 280.9027237354086 327.7198443579766 Q 278.91050583657585 349.6342412451362 256.99610894941634 351.6264591439689 Q 235.0817120622568 349.6342412451362 233.08949416342412 327.7198443579766 L 233.08949416342412 210.17898832684824 L 233.08949416342412 210.17898832684824 L 202.2101167315175 241.05836575875486 L 202.2101167315175 241.05836575875486 Q 185.27626459143968 255.00389105058366 168.34241245136187 241.05836575875486 Q 154.39688715953307 224.12451361867704 168.34241245136187 207.19066147859922 L 240.06225680933852 135.47081712062257 L 240.06225680933852 135.47081712062257 Q 256.99610894941634 121.52529182879377 273.92996108949416 135.47081712062257 L 345.64980544747084 207.19066147859922 L 345.64980544747084 207.19066147859922 Q 359.5953307392996 224.12451361867704 345.64980544747084 241.05836575875486 Q 328.715953307393 255.00389105058366 311.78210116731515 241.05836575875486 L 280.9027237354086 210.17898832684824 L 280.9027237354086 210.17898832684824 L 280.9027237354086 327.7198443579766 L 280.9027237354086 327.7198443579766 Z" />
</svg>