<svg xmlns="http://www.w3.org/2000/svg" viewBox="0 0 512 512">
  <path d="M 258.76970633693975 129.38485316846987 Q 258.76970633693975 140.46367851622875 251.64760432766616 147.58578052550232 L 251.64760432766616 147.58578052550232 L 251.64760432766616 147.58578052550232 Q 244.52550231839257 154.70788253477588 233.4466769706337 154.70788253477588 Q 222.3678516228748 154.70788253477588 215.24574961360125 147.58578052550232 Q 208.12364760432766 140.46367851622875 208.12364760432766 129.38485316846987 Q 208.12364760432766 118.30602782071098 215.24574961360125 111.1839258114374 Q 222.3678516228748 104.06182380216383 233.4466769706337 104.06182380216383 Q 244.52550231839257 104.06182380216383 251.64760432766616 111.1839258114374 Q 258.76970633693975 118.30602782071098 258.76970633693975 129.38485316846987 L 258.76970633693975 129.38485316846987 Z M 275.38794435857807 192.69242658423494 Q 307.83307573415766 170.53477588871715 309.41576506955175 129.38485316846987 Q 308.6244204018547 96.93972179289027 287.258114374034 75.57341576506956 Q 265.8918083462133 54.20710973724884 233.4466769706337 53.415765069551775 Q 201.0015455950541 54.20710973724884 179.63523956723338 75.57341576506956 Q 158.26893353941267 96.93972179289027 157.4775888717156 129.38485316846987 Q 159.06027820710975 170.53477588871715 191.50540958268934 192.69242658423494 L 182.80061823802163 192.69242658423494 L 182.80061823802163 192.69242658423494 Q 171.72179289026275 192.69242658423494 164.5996908809892 199.8145285935085 Q 157.4775888717156 206.93663060278206 157.4775888717156 218.01545595054097 Q 157.4775888717156 229.09428129829985 164.5996908809892 236.2163833075734 Q 171.72179289026275 243.338485316847 182.80061823802163 243.338485316847 L 208.12364760432766 243.338485316847 L 208.12364760432766 243.338485316847 L 208.12364760432766 407.9381761978362 L 208.12364760432766 407.9381761978362 L 170.13910355486863 407.9381761978362 L 170.13910355486863 407.9381761978362 Q 137.69397217928903 407.1468315301391 116.32766615146832 385.78052550231837 Q 94.96136012364761 364.41421947449766 94.17001545595055 331.96908809891806 L 94.17001545595055 327.2210200927357 L 94.17001545595055 327.2210200927357 L 99.70942812982999 332.76043276661517 L 99.70942812982999 332.76043276661517 Q 113.16228748068006 343.83925811437405 126.61514683153014 332.76043276661517 Q 137.69397217928903 319.3075734157651 126.61514683153014 305.854714064915 L 82.2998454404946 261.53941267387944 L 82.2998454404946 261.53941267387944 Q 68.84698608964452 250.46058732612056 55.394126738794434 261.53941267387944 L 11.078825347758887 305.854714064915 L 11.078825347758887 305.854714064915 Q 0 319.3075734157651 11.078825347758887 332.76043276661517 Q 24.531684698608963 343.83925811437405 37.98454404945904 332.76043276661517 L 43.523956723338486 327.2210200927357 L 43.523956723338486 327.2210200927357 L 43.523956723338486 331.96908809891806 L 43.523956723338486 331.96908809891806 Q 45.106646058732615 385.78052550231837 80.71715610510046 421.39103554868626 Q 116.32766615146832 457.0015455950541 170.13910355486863 458.58423493044825 L 233.4466769706337 458.58423493044825 L 296.7542503863988 458.58423493044825 Q 306.2503863987635 458.58423493044825 315.7465224111283 457.0015455950541 Q 288.84080370942814 437.21792890262753 273.8052550231839 407.9381761978362 L 258.76970633693975 407.9381761978362 L 258.76970633693975 407.9381761978362 L 258.76970633693975 344.6306027820711 L 258.76970633693975 344.6306027820711 L 258.76970633693975 243.338485316847 L 258.76970633693975 243.338485316847 L 284.09273570324575 243.338485316847 L 284.09273570324575 243.338485316847 Q 295.17156105100463 243.338485316847 302.2936630602782 236.2163833075734 Q 309.41576506955175 229.09428129829985 309.41576506955175 218.01545595054097 Q 309.41576506955175 206.93663060278206 302.2936630602782 199.8145285935085 Q 295.17156105100463 192.69242658423494 284.09273570324575 192.69242658423494 L 275.38794435857807 192.69242658423494 L 275.38794435857807 192.69242658423494 Z M 398.04636785162285 458.58423493044825 Q 428.90880989180835 458.58423493044825 455.02318392581145 443.548686244204 L 455.02318392581145 443.548686244204 L 455.02318392581145 443.548686244204 Q 481.1375579598145 428.5131375579598 496.9644513137558 401.60741885625964 Q 512 374.7017001545595 512 344.6306027820711 Q 512 314.5595054095827 496.9644513137558 287.65378670788255 Q 481.1375579598145 260.7480680061824 455.02318392581145 245.71251931993817 Q 428.90880989180835 230.67697063369397 398.04636785162285 230.67697063369397 Q 367.1839258114374 230.67697063369397 341.0695517774343 245.71251931993817 Q 314.9551777434312 260.7480680061824 299.12828438949 287.65378670788255 Q 284.09273570324575 314.5595054095827 284.09273570324575 344.6306027820711 Q 284.09273570324575 374.7017001545595 299.12828438949 401.60741885625964 Q 314.9551777434312 428.5131375579598 341.0695517774343 443.548686244204 Q 367.1839258114374 458.58423493044825 398.04636785162285 458.58423493044825 L 398.04636785162285 458.58423493044825 Z M 398.04636785162285 382.6151468315301 Q 415.45595054095827 384.1978361669243 417.0386398763524 401.60741885625964 Q 415.45595054095827 419.01700154559506 398.04636785162285 420.59969088098916 Q 380.6367851622875 419.01700154559506 379.05409582689333 401.60741885625964 Q 380.6367851622875 384.1978361669243 398.04636785162285 382.6151468315301 L 398.04636785162285 382.6151468315301 Z M 398.04636785162285 268.66151468315303 Q 409.91653786707883 269.4528593508501 410.7078825347759 281.323029366306 L 410.7078825347759 344.6306027820711 L 410.7078825347759 344.6306027820711 Q 409.91653786707883 356.500772797527 398.04636785162285 357.2921174652241 Q 386.1761978361669 356.500772797527 385.3848531684699 344.6306027820711 L 385.3848531684699 281.323029366306 L 385.3848531684699 281.323029366306 Q 386.1761978361669 269.4528593508501 398.04636785162285 268.66151468315303 L 398.04636785162285 268.66151468315303 Z" />
</svg>