<svg xmlns="http://www.w3.org/2000/svg" viewBox="0 0 576 512">
    <path d="M 32 119 Q 2 101 0 64 Q 1 37 19 19 Q 37 1 64 0 Q 101 2 119 32 L 457 32 Q 475 2 512 0 Q 539 1 557 19 Q 575 37 576 64 Q 574 101 544 119 L 544 393 Q 574 411 576 448 Q 575 475 557 493 Q 539 511 512 512 Q 475 510 457 480 L 119 480 Q 101 510 64 512 Q 37 511 19 493 Q 1 475 0 448 Q 2 411 32 393 L 32 119 L 32 119 Z M 457 96 L 119 96 Q 111 111 96 119 L 96 393 Q 111 401 119 416 L 457 416 Q 465 401 480 393 L 480 119 Q 465 111 457 96 L 457 96 Z M 128 160 Q 128 146 137 137 L 137 137 Q 146 128 160 128 L 288 128 Q 302 128 311 137 Q 320 146 320 160 L 320 256 Q 320 270 311 279 Q 302 288 288 288 L 160 288 Q 146 288 137 279 Q 128 270 128 256 L 128 160 L 128 160 Z M 256 320 L 288 320 Q 315 319 333 301 Q 351 283 352 256 L 352 224 L 416 224 Q 430 224 439 233 Q 448 242 448 256 L 448 352 Q 448 366 439 375 Q 430 384 416 384 L 288 384 Q 274 384 265 375 Q 256 366 256 352 L 256 320 L 256 320 Z"/>
</svg>
