<svg xmlns="http://www.w3.org/2000/svg" viewBox="0 0 512 512">
  <path d="M 151.20162932790225 479.15274949083505 Q 140.77393075356414 489.58044806517313 126.17515274949083 489.58044806517313 Q 111.57637474541751 489.58044806517313 101.14867617107943 479.15274949083505 L 9.384928716904277 379.04684317718943 L 9.384928716904277 379.04684317718943 Q 0 367.5763747454175 1.0427698574338085 355.0631364562118 Q 2.085539714867617 341.5071283095723 11.470468431771893 331.0794297352342 Q 22.940936863543786 321.69450101832996 35.45417515274949 322.7372708757637 Q 49.010183299389 323.78004073319755 59.437881873727086 333.1649694501018 L 92.80651731160896 370.70468431771894 L 92.80651731160896 370.70468431771894 L 92.80651731160896 55.788187372708755 L 92.80651731160896 55.788187372708755 Q 92.80651731160896 41.18940936863544 102.19144602851324 31.80448065173116 Q 111.57637474541751 22.419551934826885 126.17515274949083 22.419551934826885 Q 140.77393075356414 22.419551934826885 150.15885947046843 31.80448065173116 Q 159.5437881873727 41.18940936863544 159.5437881873727 55.788187372708755 L 159.5437881873727 370.70468431771894 L 159.5437881873727 370.70468431771894 L 192.91242362525458 333.1649694501018 L 192.91242362525458 333.1649694501018 Q 203.34012219959266 323.78004073319755 216.89613034623218 322.7372708757637 Q 229.4093686354379 321.69450101832996 240.87983706720976 331.0794297352342 Q 250.26476578411405 341.5071283095723 251.30753564154787 354.020366598778 Q 252.35030549898167 367.5763747454175 242.96537678207739 379.04684317718943 L 151.20162932790225 479.15274949083505 L 151.20162932790225 479.15274949083505 Z M 293.0183299389002 322.7372708757637 Q 293.0183299389002 308.1384928716904 302.4032586558045 298.75356415478615 L 302.4032586558045 298.75356415478615 L 302.4032586558045 298.75356415478615 Q 311.78818737270876 289.3686354378819 326.3869653767821 289.3686354378819 L 459.8615071283096 289.3686354378819 L 459.8615071283096 289.3686354378819 Q 481.7596741344195 290.41140529531566 491.14460285132384 310.22403258655805 Q 498.4439918533605 330.0366598778004 483.8452138492872 346.72097759674136 L 406.6802443991853 422.84317718940935 L 406.6802443991853 422.84317718940935 L 459.8615071283096 422.84317718940935 L 459.8615071283096 422.84317718940935 Q 474.46028513238286 422.84317718940935 483.8452138492872 432.22810590631366 Q 493.23014256619143 441.6130346232179 493.23014256619143 456.21181262729124 Q 493.23014256619143 470.81059063136456 483.8452138492872 480.1955193482688 Q 474.46028513238286 489.58044806517313 459.8615071283096 489.58044806517313 L 326.3869653767821 489.58044806517313 L 326.3869653767821 489.58044806517313 Q 304.4887983706721 488.5376782077393 295.10386965376784 468.72505091649697 Q 287.8044806517312 448.9124236252546 302.4032586558045 432.22810590631366 L 379.5682281059063 356.1059063136456 L 379.5682281059063 356.1059063136456 L 326.3869653767821 356.1059063136456 L 326.3869653767821 356.1059063136456 Q 311.78818737270876 356.1059063136456 302.4032586558045 346.72097759674136 Q 293.0183299389002 337.33604887983705 293.0183299389002 322.7372708757637 L 293.0183299389002 322.7372708757637 Z M 393.1242362525458 22.419551934826885 Q 412.9368635437882 23.462321792260692 423.3645621181263 41.18940936863544 L 490.10183299389 174.66395112016292 L 490.10183299389 174.66395112016292 L 506.78615071283093 208.0325865580448 L 506.78615071283093 208.0325865580448 Q 512 220.54582484725051 507.82892057026476 233.05906313645622 Q 503.6578411405295 245.57230142566192 491.14460285132384 252.87169042769858 Q 478.6313645621181 258.0855397148676 466.11812627291243 253.91446028513238 Q 453.6048879837067 249.74338085539713 446.30549898167004 237.23014256619143 L 439.0061099796334 222.63136456211814 L 439.0061099796334 222.63136456211814 L 347.24236252545825 222.63136456211814 L 347.24236252545825 222.63136456211814 L 339.9429735234216 237.23014256619143 L 339.9429735234216 237.23014256619143 Q 332.6435845213849 249.74338085539713 320.13034623217925 253.91446028513238 Q 307.6171079429735 258.0855397148676 295.10386965376784 252.87169042769858 Q 282.5906313645621 245.57230142566192 278.41955193482687 233.05906313645622 Q 274.2484725050916 220.54582484725051 279.4623217922607 208.0325865580448 L 296.1466395112016 174.66395112016292 L 296.1466395112016 174.66395112016292 L 362.8839103869654 41.18940936863544 L 362.8839103869654 41.18940936863544 Q 373.3116089613035 23.462321792260692 393.1242362525458 22.419551934826885 L 393.1242362525458 22.419551934826885 Z M 372.26883910386965 172.57841140529533 L 413.979633401222 172.57841140529533 L 372.26883910386965 172.57841140529533 L 413.979633401222 172.57841140529533 L 393.1242362525458 130.86761710794298 L 393.1242362525458 130.86761710794298 L 372.26883910386965 172.57841140529533 L 372.26883910386965 172.57841140529533 Z" />
</svg>