<svg xmlns="http://www.w3.org/2000/svg" viewBox="0 0 512 512">
  <path d="M 256 512 Q 326 511 384 478 L 384 478 L 384 478 Q 442 444 478 384 Q 512 323 512 256 Q 512 189 478 128 Q 442 68 384 34 Q 326 1 256 0 Q 186 1 128 34 Q 70 68 34 128 Q 0 189 0 256 Q 0 323 34 384 Q 70 444 128 478 Q 186 511 256 512 L 256 512 Z M 388 313 Q 398 310 404 316 L 404 316 L 404 316 Q 411 322 407 332 Q 388 377 348 404 Q 308 431 256 432 Q 205 431 165 404 Q 125 377 105 332 Q 102 322 108 316 Q 115 310 124 313 Q 185 331 256 332 Q 328 331 388 313 L 388 313 Z M 371 234 Q 357 216 336 216 L 336 216 L 336 216 Q 315 216 301 234 Q 291 245 278 237 Q 268 227 275 214 Q 300 184 336 184 Q 372 184 397 214 Q 405 227 394 237 Q 381 245 371 234 L 371 234 Z M 176 176 Q 190 176 199 185 L 199 185 L 199 185 Q 208 194 208 208 Q 208 222 199 231 Q 190 240 176 240 Q 163 240 154 231 Q 145 222 144 208 Q 145 194 154 185 Q 163 176 176 176 L 176 176 Z" />
</svg>