<svg xmlns="http://www.w3.org/2000/svg" viewBox="0 0 512 512">
  <path d="M 0 128 Q 0.8 100.8 18.4 82.4 L 18.4 82.4 L 18.4 82.4 Q 36.8 64.8 64 64 L 332.8 64 L 332.8 64 Q 387.2 65.6 423.2 101.6 Q 459.2 137.6 460.8 192 L 460.8 320 L 460.8 320 L 486.4 320 L 486.4 320 Q 497.6 320 504.8 327.2 Q 512 334.4 512 345.6 Q 512 356.8 504.8 364 Q 497.6 371.2 486.4 371.2 L 460.8 371.2 L 230.4 371.2 Q 229.6 404 208 425.6 Q 186.4 447.2 153.6 448 Q 120.8 447.2 99.2 425.6 Q 77.6 404 76.8 371.2 L 64 371.2 L 64 371.2 Q 36.8 370.4 18.4 352.8 Q 0.8 334.4 0 307.2 L 0 128 L 0 128 Z M 256 320 L 358.4 320 L 256 320 L 358.4 320 L 358.4 243.2 L 358.4 243.2 L 332.8 243.2 L 332.8 243.2 Q 320.8 242.4 320 230.4 Q 320.8 218.4 332.8 217.6 L 358.4 217.6 L 358.4 217.6 L 358.4 166.4 L 358.4 166.4 Q 358.4 155.2 351.2 148 Q 344 140.8 332.8 140.8 L 281.6 140.8 L 281.6 140.8 Q 270.4 140.8 263.2 148 Q 256 155.2 256 166.4 L 256 320 L 256 320 Z M 76.8 140.8 Q 65.6 140.8 58.4 148 L 58.4 148 L 58.4 148 Q 51.2 155.2 51.2 166.4 L 51.2 217.6 L 51.2 217.6 Q 51.2 228.8 58.4 236 Q 65.6 243.2 76.8 243.2 L 179.2 243.2 L 179.2 243.2 Q 190.4 243.2 197.6 236 Q 204.8 228.8 204.8 217.6 L 204.8 166.4 L 204.8 166.4 Q 204.8 155.2 197.6 148 Q 190.4 140.8 179.2 140.8 L 76.8 140.8 L 76.8 140.8 Z M 153.6 409.6 Q 175.2 408.8 187.2 390.4 Q 196.8 371.2 187.2 352 Q 175.2 333.6 153.6 332.8 Q 132 333.6 120 352 Q 110.4 371.2 120 390.4 Q 132 408.8 153.6 409.6 L 153.6 409.6 Z" />
</svg>