<svg xmlns="http://www.w3.org/2000/svg" viewBox="0 0 576 480">
    <path d="M 94 0 L 208 0 L 208 128 L 0 128 L 51 27 Q 65 1 94 0 L 94 0 Z M 240 0 L 354 0 Q 383 1 397 27 L 448 128 L 416 128 L 240 128 L 240 0 L 240 0 Z M 0 384 L 0 160 L 416 160 L 416 161 Q 347 168 302 217 Q 258 266 256 336 Q 257 401 296 448 L 64 448 Q 37 447 19 429 Q 1 411 0 384 L 0 384 Z M 288 336 Q 288 297 307 264 L 307 264 Q 326 231 360 211 Q 394 192 432 192 Q 470 192 504 211 Q 538 231 557 264 Q 576 297 576 336 Q 576 375 557 408 Q 538 441 504 461 Q 470 480 432 480 Q 394 480 360 461 Q 326 441 307 408 Q 288 375 288 336 L 288 336 Z M 499 293 Q 488 283 477 293 L 416 353 L 387 325 Q 376 315 365 325 Q 355 336 365 347 L 405 387 Q 416 397 427 387 L 499 315 Q 509 304 499 293 L 499 293 Z"/>
</svg>
