<svg xmlns="http://www.w3.org/2000/svg" viewBox="0 0 512 512">
  <path d="M 96 32 Q 96 18 105 9 L 105 9 L 105 9 Q 114 0 128 0 Q 142 0 151 9 Q 160 18 160 32 L 160 240 L 160 240 L 96 240 L 96 240 L 96 32 L 96 32 Z M 288 192 Q 288 178 297 169 L 297 169 L 297 169 Q 306 160 320 160 Q 334 160 343 169 Q 352 178 352 192 L 352 256 L 352 256 Q 352 270 343 279 Q 334 288 320 288 Q 306 288 297 279 Q 288 270 288 256 L 288 192 L 288 192 Z M 224 128 Q 238 128 247 137 L 247 137 L 247 137 Q 256 146 256 160 L 256 208 L 256 208 Q 256 222 247 231 Q 238 240 224 240 Q 210 240 201 231 Q 192 222 192 208 L 192 160 L 192 160 Q 192 146 201 137 Q 210 128 224 128 L 224 128 Z M 384 224 Q 384 210 393 201 L 393 201 L 393 201 Q 402 192 416 192 Q 430 192 439 201 Q 448 210 448 224 L 448 288 L 448 288 Q 448 302 439 311 Q 430 320 416 320 Q 402 320 393 311 Q 384 302 384 288 L 384 224 L 384 224 Z M 288 312 L 288 311 L 288 312 L 288 311 Q 302 320 320 320 Q 340 320 356 309 Q 362 328 379 340 Q 395 352 416 352 Q 434 352 448 343 L 448 352 L 448 352 Q 446 420 401 465 Q 356 510 288 512 L 226 512 L 226 512 Q 160 511 113 465 L 102 454 L 102 454 Q 65 416 64 363 L 64 336 L 64 336 Q 65 309 83 291 Q 101 273 128 272 L 216 272 L 216 272 Q 233 272 244 284 Q 256 295 256 312 Q 256 329 244 340 Q 233 352 216 352 L 160 352 L 160 352 Q 145 353 144 368 Q 145 383 160 384 L 216 384 L 216 384 Q 247 383 267 363 Q 287 343 288 312 L 288 312 Z" />
</svg>