<svg xmlns="http://www.w3.org/2000/svg" viewBox="0 0 640 512">
    <path d="M 352 144 Q 352 105 371 72 L 371 72 Q 390 39 424 19 Q 458 0 496 0 Q 534 0 568 19 Q 602 39 621 72 Q 640 105 640 144 Q 640 183 621 216 Q 602 249 568 269 Q 534 288 496 288 Q 458 288 424 269 Q 390 249 371 216 Q 352 183 352 144 L 352 144 Z M 496 64 Q 481 65 480 80 L 480 144 Q 481 159 496 160 L 544 160 Q 559 159 560 144 Q 559 129 544 128 L 512 128 L 512 80 Q 511 65 496 64 L 496 64 Z M 496 320 Q 504 320 511 319 Q 512 328 512 336 Q 511 392 490 429 Q 470 466 446 486 Q 422 505 412 510 Q 408 512 404 512 Q 386 510 384 492 Q 385 481 394 473 Q 401 466 408 453 Q 415 439 416 416 Q 415 375 388 348 Q 361 321 320 320 L 224 320 L 224 384 Q 223 404 205 413 Q 186 421 171 408 L 11 264 Q 0 254 0 240 Q 0 226 11 216 L 171 72 Q 186 59 205 67 Q 223 76 224 96 L 224 160 L 321 160 Q 328 229 377 274 Q 426 318 496 320 L 496 320 Z"/>
</svg>
