<svg xmlns="http://www.w3.org/2000/svg" viewBox="0 0 512 512">
  <path d="M 128 512 Q 101 511 83 493 L 83 493 L 83 493 Q 65 475 64 448 L 64 64 L 64 64 Q 65 37 83 19 Q 101 1 128 0 L 384 0 L 384 0 Q 411 1 429 19 Q 447 37 448 64 L 448 448 L 448 448 Q 447 475 429 493 Q 411 511 384 512 L 128 512 L 128 512 Z M 224 416 L 288 416 L 224 416 L 288 416 Q 315 415 333 397 Q 351 379 352 352 L 352 160 L 352 160 Q 351 133 333 115 Q 315 97 288 96 L 224 96 L 224 96 Q 197 97 179 115 Q 161 133 160 160 L 160 352 L 160 352 Q 161 379 179 397 Q 197 415 224 416 L 224 416 Z M 256 448 Q 241 449 240 464 Q 241 479 256 480 Q 271 479 272 464 Q 271 449 256 448 L 256 448 Z M 256 32 Q 241 33 240 48 Q 241 63 256 64 Q 271 63 272 48 Q 271 33 256 32 L 256 32 Z M 224 384 Q 210 384 201 375 L 201 375 L 201 375 Q 192 366 192 352 L 192 256 L 192 256 L 320 256 L 320 256 L 320 352 L 320 352 Q 320 366 311 375 Q 302 384 288 384 L 224 384 L 224 384 Z" />
</svg>