<svg xmlns="http://www.w3.org/2000/svg" viewBox="0 0 512 512">
  <path d="M 56.88889 227.11111 Q 32.88889 226.22223 16.88889 210.22223 L 16.88889 210.22223 L 16.88889 210.22223 Q 0.8888889 194.22223 0 170.22223 Q 0.8888889 146.22223 16.88889 130.22223 Q 32.88889 114.22222 56.88889 113.333336 L 256 113.333336 L 256 113.333336 Q 276.44446 112.44444 283.55554 100 Q 290.66666 88.44444 291.55554 70.666664 Q 293.33334 57.333332 305.77777 57.333332 Q 342.22223 60.88889 369.77777 81.333336 Q 396.44446 102.666664 398.22223 141.77777 Q 397.33334 178.22223 373.33334 202.22223 Q 349.33334 226.22223 312.8889 227.11111 L 56.88889 227.11111 L 56.88889 227.11111 Z M 49.77778 255.55556 Q 69.333336 257.33334 71.111115 276.8889 L 71.111115 397.77777 L 71.111115 397.77777 L 99.55556 397.77777 L 99.55556 397.77777 L 99.55556 276.8889 L 99.55556 276.8889 Q 101.333336 257.33334 120.888885 255.55556 Q 140.44444 257.33334 142.22223 276.8889 L 142.22223 397.77777 L 142.22223 397.77777 L 170.66667 397.77777 L 170.66667 397.77777 L 170.66667 276.8889 L 170.66667 276.8889 Q 172.44444 257.33334 192 255.55556 Q 211.55556 257.33334 213.33333 276.8889 L 213.33333 397.77777 L 213.33333 397.77777 L 241.77777 397.77777 L 241.77777 397.77777 L 241.77777 276.8889 L 241.77777 276.8889 Q 243.55556 257.33334 263.1111 255.55556 Q 282.66666 257.33334 284.44446 276.8889 L 284.44446 397.77777 L 284.44446 397.77777 L 312.8889 397.77777 L 312.8889 397.77777 L 312.8889 276.8889 L 312.8889 276.8889 Q 314.66666 257.33334 334.22223 255.55556 Q 353.77777 257.33334 355.55554 276.8889 L 355.55554 397.77777 L 355.55554 397.77777 L 483.55554 397.77777 L 483.55554 397.77777 Q 496 397.77777 504 405.77777 Q 512 413.77777 512 426.22223 Q 512 438.66666 504 446.66666 Q 496 454.66666 483.55554 454.66666 L 28.444445 454.66666 L 28.444445 454.66666 Q 16 454.66666 8 446.66666 Q 0 438.66666 0 426.22223 Q 0 413.77777 8 405.77777 Q 16 397.77777 28.444445 397.77777 L 28.444445 276.8889 L 28.444445 276.8889 Q 30.222221 257.33334 49.77778 255.55556 L 49.77778 255.55556 Z" />
</svg>