<svg xmlns="http://www.w3.org/2000/svg" viewBox="0 0 512 512">
  <path d="M 36.01223241590214 59.49847094801223 Q 21.137614678899084 50.103975535168196 9.394495412844037 62.62996941896024 Q 0 77.5045871559633 12.525993883792049 89.24770642201835 L 475.98776758409787 452.50152905198775 L 475.98776758409787 452.50152905198775 Q 490.86238532110093 461.8960244648318 502.60550458715596 449.37003058103977 Q 512 434.4954128440367 499.47400611620793 422.7522935779817 L 289.66360856269114 258.348623853211 L 289.66360856269114 258.348623853211 L 311.58409785932724 235.6452599388379 L 311.58409785932724 235.6452599388379 L 320.9785932721713 245.03975535168195 L 320.9785932721713 245.03975535168195 Q 344.46483180428135 266.96024464831805 374.2140672782875 266.96024464831805 Q 404.7461773700306 266.96024464831805 427.44954128440367 245.03975535168195 L 436.8440366972477 236.42813455657492 L 436.8440366972477 236.42813455657492 Q 443.88990825688074 227.8165137614679 436.8440366972477 218.42201834862385 L 427.44954128440367 209.81039755351682 L 427.44954128440367 209.81039755351682 Q 421.18654434250766 203.5474006116208 414.9235474006116 198.85015290519877 L 450.9357798165138 162.83792048929664 L 450.9357798165138 162.83792048929664 Q 461.8960244648318 149.5290519877676 450.9357798165138 136.22018348623854 Q 437.6269113149847 125.25993883792049 424.31804281345563 136.22018348623854 L 378.1284403669725 183.19266055045873 L 378.1284403669725 183.19266055045873 Q 353.0764525993884 177.7125382262997 328.8073394495413 184.7584097859327 Q 336.6360856269113 158.92354740061162 330.3730886850153 133.0886850152905 L 375.7798165137615 87.68195718654434 L 375.7798165137615 87.68195718654434 Q 386.7400611620795 74.37308868501529 375.7798165137615 61.06422018348624 Q 362.47094801223244 50.103975535168196 349.16207951070334 61.06422018348624 L 313.1498470948012 97.07645259938838 L 313.1498470948012 97.07645259938838 Q 309.2354740061162 90.81345565749236 303.75535168195717 86.11620795107034 L 295.14373088685016 76.7217125382263 L 295.14373088685016 76.7217125382263 Q 285.7492354740061 69.67584097859327 277.13761467889907 76.7217125382263 L 268.52599388379207 86.11620795107034 L 268.52599388379207 86.11620795107034 Q 245.82262996941895 108.81957186544342 245.82262996941895 139.35168195718654 Q 245.82262996941895 169.10091743119267 268.52599388379207 191.80428134556576 L 276.3547400611621 200.41590214067278 L 276.3547400611621 200.41590214067278 L 252.085626911315 223.90214067278288 L 252.085626911315 223.90214067278288 Q 248.17125382262998 191.02140672782875 223.90214067278288 165.18654434250766 L 215.29051987767585 156.5749235474006 L 215.29051987767585 156.5749235474006 Q 205.8960244648318 149.5290519877676 197.28440366972478 156.5749235474006 L 188.67278287461772 165.18654434250766 L 188.67278287461772 165.18654434250766 Q 184.7584097859327 169.10091743119267 181.6269113149847 173.7981651376147 L 36.01223241590214 59.49847094801223 L 36.01223241590214 59.49847094801223 Z M 235.6452599388379 312.3669724770642 L 195.71865443425077 281.0519877675841 L 235.6452599388379 312.3669724770642 L 195.71865443425077 281.0519877675841 L 173.01529051987768 303.75535168195717 L 173.01529051987768 303.75535168195717 Q 169.10091743119267 270.87461773700306 144.04892966360856 245.03975535168195 L 135.43730886850153 236.42813455657492 L 135.43730886850153 236.42813455657492 Q 126.8256880733945 229.3822629969419 117.43119266055047 236.42813455657492 L 108.81957186544342 245.03975535168195 L 108.81957186544342 245.03975535168195 Q 86.89908256880734 268.52599388379207 86.89908256880734 298.27522935779814 Q 86.89908256880734 328.8073394495413 108.81957186544342 351.5107033639144 L 116.64831804281346 360.1223241590214 L 116.64831804281346 360.1223241590214 L 62.62996941896024 413.35779816513764 L 62.62996941896024 413.35779816513764 Q 55.584097859327215 421.18654434250766 55.584097859327215 431.3639143730887 Q 55.584097859327215 441.54128440366975 62.62996941896024 449.37003058103977 Q 70.45871559633028 456.41590214067276 80.63608562691131 456.41590214067276 Q 90.81345565749236 456.41590214067276 98.64220183486239 449.37003058103977 L 152.6605504587156 395.35168195718654 L 152.6605504587156 395.35168195718654 L 162.05504587155963 404.7461773700306 L 162.05504587155963 404.7461773700306 Q 184.7584097859327 426.6666666666667 215.29051987767585 426.6666666666667 Q 245.03975535168195 426.6666666666667 268.52599388379207 404.7461773700306 L 277.13761467889907 396.1345565749235 L 277.13761467889907 396.1345565749235 Q 284.1834862385321 386.7400611620795 277.13761467889907 378.1284403669725 L 268.52599388379207 369.5168195718654 L 268.52599388379207 369.5168195718654 Q 241.90825688073394 343.68195718654437 207.4617737003058 340.55045871559633 L 235.6452599388379 312.3669724770642 L 235.6452599388379 312.3669724770642 Z M 450.9357798165138 87.68195718654434 Q 461.8960244648318 74.37308868501529 450.9357798165138 61.06422018348624 Q 437.6269113149847 50.103975535168196 424.31804281345563 61.06422018348624 L 355.4250764525994 129.9571865443425 L 355.4250764525994 129.9571865443425 Q 344.46483180428135 143.26605504587155 355.4250764525994 156.5749235474006 Q 368.73394495412845 167.53516819571865 382.0428134556575 156.5749235474006 L 450.9357798165138 87.68195718654434 L 450.9357798165138 87.68195718654434 Z" />
</svg>