<svg xmlns="http://www.w3.org/2000/svg" viewBox="0 0 512 512">
  <path d="M 352 70.4 Q 350.4 52.8 332.8 51.2 Q 315.2 52.8 313.6 70.4 L 313.6 134.4 L 313.6 134.4 Q 315.2 152 332.8 153.6 Q 350.4 152 352 134.4 L 352 70.4 L 352 70.4 Z M 224.8 82.4 Q 211.2 71.2 197.6 82.4 Q 186.4 96 197.6 109.6 L 242.4 154.4 L 242.4 154.4 Q 256 165.6 269.6 154.4 Q 280.8 140.8 269.6 127.2 L 224.8 82.4 L 224.8 82.4 Z M 468 109.6 Q 479.2 96 468 82.4 Q 454.4 71.2 440.8 82.4 L 396 127.2 L 396 127.2 Q 384.8 140.8 396 154.4 Q 409.6 165.6 423.2 154.4 L 468 109.6 L 468 109.6 Z M 460.8 204.8 L 409.6 204.8 L 460.8 204.8 L 409.6 204.8 Q 376.8 180 332.8 179.2 Q 288.8 180 256 204.8 L 51.2 204.8 L 51.2 204.8 Q 29.6 205.6 15.2 220 Q 0.8 234.4 0 256 L 0 358.4 L 0 358.4 Q 0.8 380 15.2 394.4 Q 29.6 408.8 51.2 409.6 L 59.2 441.6 L 59.2 441.6 Q 64.8 460 84 460.8 L 95.2 460.8 L 95.2 460.8 Q 114.4 460 120 441.6 L 128 409.6 L 128 409.6 L 256 409.6 L 256 409.6 Q 288.8 434.4 332.8 435.2 Q 362.4 435.2 387.2 423.2 L 392 441.6 L 392 441.6 Q 397.6 460 416.8 460.8 L 428 460.8 L 428 460.8 Q 447.2 460 452.8 441.6 L 460.8 409.6 L 460.8 409.6 Q 482.4 408.8 496.8 394.4 Q 511.2 380 512 358.4 L 512 256 L 512 256 Q 511.2 234.4 496.8 220 Q 482.4 205.6 460.8 204.8 L 460.8 204.8 Z M 332.8 230.4 Q 353.6 230.4 371.2 240.8 L 371.2 240.8 L 371.2 240.8 Q 388.8 251.2 399.2 268.8 Q 409.6 287.2 409.6 307.2 Q 409.6 327.2 399.2 345.6 Q 388.8 363.2 371.2 373.6 Q 353.6 384 332.8 384 Q 312 384 294.4 373.6 Q 276.8 363.2 266.4 345.6 Q 256 327.2 256 307.2 Q 256 287.2 266.4 268.8 Q 276.8 251.2 294.4 240.8 Q 312 230.4 332.8 230.4 L 332.8 230.4 Z M 51.2 307.2 Q 51.2 296 58.4 288.8 L 58.4 288.8 L 58.4 288.8 Q 65.6 281.6 76.8 281.6 Q 88 281.6 95.2 288.8 Q 102.4 296 102.4 307.2 Q 102.4 318.4 95.2 325.6 Q 88 332.8 76.8 332.8 Q 65.6 332.8 58.4 325.6 Q 51.2 318.4 51.2 307.2 L 51.2 307.2 Z M 153.6 281.6 Q 164.8 281.6 172 288.8 L 172 288.8 L 172 288.8 Q 179.2 296 179.2 307.2 Q 179.2 318.4 172 325.6 Q 164.8 332.8 153.6 332.8 Q 142.4 332.8 135.2 325.6 Q 128 318.4 128 307.2 Q 128 296 135.2 288.8 Q 142.4 281.6 153.6 281.6 L 153.6 281.6 Z" />
</svg>