<svg xmlns="http://www.w3.org/2000/svg" viewBox="0 0 512 512">
  <path d="M 36.01223241590214 59.49847094801223 Q 21.137614678899084 50.103975535168196 9.394495412844037 62.62996941896024 Q 0 77.5045871559633 12.525993883792049 89.24770642201835 L 475.98776758409787 452.50152905198775 L 475.98776758409787 452.50152905198775 Q 490.86238532110093 461.8960244648318 502.60550458715596 449.37003058103977 Q 512 434.4954128440367 499.47400611620793 422.7522935779817 L 328.02446483180427 288.8807339449541 L 328.02446483180427 288.8807339449541 L 344.46483180428135 243.47400611620796 L 344.46483180428135 243.47400611620796 L 368.73394495412845 243.47400611620796 L 368.73394495412845 243.47400611620796 Q 378.91131498470946 243.47400611620796 386.7400611620795 236.42813455657492 L 403.9633027522936 218.42201834862385 L 403.9633027522936 218.42201834862385 L 456.41590214067276 218.42201834862385 L 456.41590214067276 218.42201834862385 Q 467.3761467889908 218.42201834862385 474.42201834862385 211.37614678899084 Q 481.4678899082569 204.3302752293578 481.4678899082569 193.37003058103974 L 481.4678899082569 130.7400611620795 L 481.4678899082569 130.7400611620795 Q 481.4678899082569 119.77981651376147 474.42201834862385 112.73394495412845 Q 467.3761467889908 105.68807339449542 456.41590214067276 105.68807339449542 L 443.88990825688074 105.68807339449542 L 443.88990825688074 105.68807339449542 L 443.88990825688074 99.42507645259938 L 443.88990825688074 99.42507645259938 Q 442.32415902140673 82.20183486238533 425.10091743119267 80.63608562691131 Q 407.8776758409786 82.20183486238533 406.3119266055046 99.42507645259938 L 406.3119266055046 105.68807339449542 L 406.3119266055046 105.68807339449542 L 94.72782874617737 105.68807339449542 L 94.72782874617737 105.68807339449542 L 36.01223241590214 59.49847094801223 L 36.01223241590214 59.49847094801223 Z M 158.92354740061162 155.79204892966362 L 393.7859327217125 155.79204892966362 L 158.92354740061162 155.79204892966362 L 393.7859327217125 155.79204892966362 Q 405.52905198776756 156.5749235474006 406.3119266055046 168.31804281345566 Q 405.52905198776756 180.0611620795107 393.7859327217125 180.8440366972477 L 190.23853211009174 180.8440366972477 L 190.23853211009174 180.8440366972477 L 158.92354740061162 155.79204892966362 L 158.92354740061162 155.79204892966362 Z M 270.87461773700306 243.47400611620796 L 304.5382262996942 243.47400611620796 L 270.87461773700306 243.47400611620796 L 304.5382262996942 243.47400611620796 L 296.7094801223242 264.61162079510706 L 296.7094801223242 264.61162079510706 L 270.87461773700306 243.47400611620796 L 270.87461773700306 243.47400611620796 Z M 259.914373088685 331.1559633027523 L 212.15902140672782 293.57798165137615 L 259.914373088685 331.1559633027523 L 212.15902140672782 293.57798165137615 L 209.81039755351682 293.57798165137615 L 209.81039755351682 293.57798165137615 L 210.59327217125383 292.01223241590213 L 210.59327217125383 292.01223241590213 L 30.53211009174312 150.3119266055046 L 30.53211009174312 150.3119266055046 L 30.53211009174312 218.42201834862385 L 30.53211009174312 218.42201834862385 Q 30.53211009174312 229.3822629969419 37.57798165137615 236.42813455657492 Q 44.62385321100918 243.47400611620796 55.584097859327215 243.47400611620796 L 63.41284403669725 243.47400611620796 L 63.41284403669725 243.47400611620796 Q 75.93883792048929 244.25688073394497 82.98470948012232 252.868501529052 Q 90.03058103975535 262.262996941896 87.68195718654434 274.7889908256881 L 56.36697247706422 400.0489296636086 L 56.36697247706422 400.0489296636086 Q 54.018348623853214 411.7920489296636 61.06422018348624 421.96941896024464 Q 68.11009174311927 431.3639143730887 80.63608562691131 431.3639143730887 L 155.79204892966362 431.3639143730887 L 155.79204892966362 431.3639143730887 Q 174.58103975535167 430.5810397553517 180.0611620795107 412.5749235474006 L 200.41590214067278 331.1559633027523 L 200.41590214067278 331.1559633027523 L 259.914373088685 331.1559633027523 L 259.914373088685 331.1559633027523 Z" />
</svg>