<svg xmlns="http://www.w3.org/2000/svg" viewBox="0 0 512 512">
  <path d="M 384 512 Q 411 511 429 493 L 429 493 L 429 493 Q 447 475 448 448 L 448 139 L 448 139 Q 448 112 429 93 L 355 19 L 355 19 Q 336 0 310 0 L 128 0 L 128 0 Q 101 1 83 19 Q 65 37 64 64 L 64 448 L 64 448 Q 65 475 83 493 Q 101 511 128 512 L 384 512 L 384 512 Z M 256 192 Q 263 192 268 197 L 344 280 L 344 280 Q 354 292 348 306 Q 342 319 326 320 L 186 320 L 186 320 Q 170 319 164 306 Q 158 292 169 280 L 244 197 L 244 197 Q 249 192 256 192 L 256 192 Z" />
</svg>