<svg xmlns="http://www.w3.org/2000/svg" viewBox="0 0 448 453">
    <path d="M 0 40 Q 0 23 12 12 L 12 12 Q 23 0 40 0 L 408 0 Q 425 0 436 12 Q 448 23 448 40 L 448 64 Q 447 132 412 186 Q 377 239 319 267 L 382 415 Q 389 436 369 446 Q 348 453 338 433 L 317 384 L 160 384 Q 159 411 141 429 Q 123 447 96 448 Q 69 447 51 429 Q 33 411 32 384 Q 33 357 51 339 Q 69 321 96 320 Q 101 320 106 321 L 129 267 Q 71 239 36 186 Q 1 132 0 64 L 0 40 L 0 40 Z M 152 336 L 296 336 L 273 283 Q 249 288 224 288 Q 199 288 175 283 L 152 336 L 152 336 Z M 96 408 Q 118 406 120 384 Q 118 362 96 360 Q 74 362 72 384 Q 74 406 96 408 L 96 408 Z"/>
</svg>
