<svg xmlns="http://www.w3.org/2000/svg" viewBox="0 0 512 512">
  <path d="M 193.10556621880997 71.73896353166987 Q 194.08829174664106 36.36084452975048 224.552783109405 17.689059500959694 Q 256 0 287.44721689059503 17.689059500959694 Q 317.91170825335894 36.36084452975048 318.89443378119 71.73896353166987 Q 317.91170825335894 107.11708253358925 287.44721689059503 125.78886756238003 Q 256 143.47792706333973 224.552783109405 125.78886756238003 Q 194.08829174664106 107.11708253358925 193.10556621880997 71.73896353166987 L 193.10556621880997 71.73896353166987 Z M 180.33013435700576 211.28598848368523 Q 186.22648752399232 190.64875239923225 202.93282149712093 178.8560460652591 L 202.93282149712093 178.8560460652591 L 202.93282149712093 178.8560460652591 Q 218.6564299424184 166.0806142034549 240.27639155470249 166.0806142034549 L 271.7236084452975 166.0806142034549 L 271.7236084452975 166.0806142034549 Q 292.36084452975047 166.0806142034549 309.0671785028791 178.8560460652591 Q 325.7735124760077 190.64875239923225 331.66986564299424 211.28598848368523 L 369.9961612284069 345.9193857965451 L 369.9961612284069 345.9193857965451 Q 373.92706333973126 361.6429942418426 365.08253358925145 373.43570057581576 Q 356.2380038387716 385.2284069097889 339.531669865643 386.21113243761994 L 318.89443378119 386.21113243761994 L 318.89443378119 386.21113243761994 L 318.89443378119 464.8291746641075 L 318.89443378119 464.8291746641075 Q 317.91170825335894 484.48368522072934 305.1362763915547 498.2418426103647 Q 291.3781190019194 511.0172744721689 271.7236084452975 512 L 240.27639155470249 512 L 240.27639155470249 512 Q 220.62188099808063 511.0172744721689 206.8637236084453 498.2418426103647 Q 194.08829174664106 484.48368522072934 193.10556621880997 464.8291746641075 L 193.10556621880997 386.21113243761994 L 193.10556621880997 386.21113243761994 L 171.48560460652592 386.21113243761994 L 171.48560460652592 386.21113243761994 Q 155.7619961612284 385.2284069097889 146.91746641074857 373.43570057581576 Q 138.0729366602687 361.6429942418426 142.00383877159308 345.9193857965451 L 180.33013435700576 211.28598848368523 L 180.33013435700576 211.28598848368523 Z" />
</svg>