<svg xmlns="http://www.w3.org/2000/svg" viewBox="0 0 512 512">
  <path d="M 271 10 Q 266 0 256 0 Q 246 0 241 10 L 197 113 L 197 113 Q 192 125 192 138 L 192 215 L 192 215 L 48 299 L 48 299 L 48 280 L 48 280 Q 46 258 24 256 Q 2 258 0 280 L 0 336 L 0 336 L 0 368 L 0 368 L 0 392 L 0 392 Q 2 414 24 416 Q 46 414 48 392 L 48 384 L 48 384 L 192 384 L 192 384 L 192 417 L 192 417 L 134 468 L 134 468 Q 128 473 128 480 L 128 496 L 128 496 Q 129 511 144 512 L 240 512 L 240 512 L 240 448 L 240 448 Q 241 433 256 432 Q 271 433 272 448 L 272 512 L 272 512 L 368 512 L 368 512 Q 383 511 384 496 L 384 480 L 384 480 Q 384 473 379 468 L 320 417 L 320 417 L 320 384 L 320 384 L 464 384 L 464 384 L 464 392 L 464 392 Q 466 414 488 416 Q 510 414 512 392 L 512 368 L 512 368 L 512 336 L 512 336 L 512 280 L 512 280 Q 510 258 488 256 Q 466 258 464 280 L 464 299 L 464 299 L 320 215 L 320 215 L 320 138 L 320 138 Q 320 125 315 113 L 271 10 L 271 10 Z" />
</svg>