<svg xmlns="http://www.w3.org/2000/svg" viewBox="0 0 512 512">
  <path d="M 96 0 Q 82 0 73 10 Q 63 20 64 34 L 93 438 L 93 438 Q 96 470 118 491 Q 140 511 173 512 L 339 512 L 339 512 Q 372 511 394 491 Q 416 470 419 438 L 448 34 L 448 34 Q 449 20 439 10 Q 430 0 416 0 L 96 0 L 96 0 Z M 147 298 L 130 64 L 147 298 L 130 64 L 382 64 L 382 64 L 365 298 L 365 298 L 352 304 L 352 304 Q 320 319 288 304 Q 256 289 224 304 Q 192 319 160 304 L 147 298 L 147 298 Z M 320 196 Q 318 177 301 149 L 301 149 L 301 149 Q 283 121 268 103 Q 256 91 244 103 Q 229 121 211 149 Q 194 177 192 196 Q 193 221 211 238 Q 229 255 256 256 Q 283 255 301 238 Q 319 221 320 196 L 320 196 Z" />
</svg>