<svg xmlns="http://www.w3.org/2000/svg" viewBox="0 0 512 512">
  <path d="M 153.6 126.4 Q 154.4 103.2 168.8 78.4 L 168.8 78.4 L 168.8 78.4 Q 183.2 53.6 204.8 51.2 Q 227.2 53.6 241.6 78.4 Q 255.2 103.2 256 126.4 L 256 193.6 L 256 193.6 L 337.6 240 L 337.6 240 Q 332.8 253.6 332.8 268.8 L 332.8 288.8 L 332.8 288.8 Q 310.4 302.4 307.2 329.6 L 256 314.4 L 256 314.4 L 256 371.2 L 256 371.2 L 302.4 405.6 L 302.4 405.6 Q 307.2 409.6 307.2 416 L 307.2 435.2 L 307.2 435.2 L 307.2 449.6 L 307.2 449.6 Q 306.4 460 296 460.8 Q 294.4 460.8 292.8 460.8 L 204.8 435.2 L 204.8 435.2 L 116.8 460.8 L 116.8 460.8 Q 115.2 460.8 113.6 460.8 Q 103.2 460 102.4 449.6 L 102.4 416 L 102.4 416 Q 102.4 409.6 107.2 405.6 L 153.6 371.2 L 153.6 371.2 L 153.6 314.4 L 153.6 314.4 L 16 353.6 L 16 353.6 Q 2.4 356 0 341.6 L 0 288.8 L 0 288.8 Q 0 281.6 6.4 277.6 L 153.6 193.6 L 153.6 193.6 L 153.6 126.4 L 153.6 126.4 Z M 422.4 243.2 Q 411.2 243.2 404 250.4 L 404 250.4 L 404 250.4 Q 396.8 257.6 396.8 268.8 L 396.8 307.2 L 396.8 307.2 L 448 307.2 L 448 307.2 L 448 268.8 L 448 268.8 Q 448 257.6 440.8 250.4 Q 433.6 243.2 422.4 243.2 L 422.4 243.2 Z M 358.4 268.8 Q 359.2 241.6 376.8 223.2 L 376.8 223.2 L 376.8 223.2 Q 395.2 205.6 422.4 204.8 Q 449.6 205.6 468 223.2 Q 485.6 241.6 486.4 268.8 L 486.4 307.2 L 486.4 307.2 Q 497.6 307.2 504.8 314.4 Q 512 321.6 512 332.8 L 512 435.2 L 512 435.2 Q 512 446.4 504.8 453.6 Q 497.6 460.8 486.4 460.8 L 358.4 460.8 L 358.4 460.8 Q 347.2 460.8 340 453.6 Q 332.8 446.4 332.8 435.2 L 332.8 332.8 L 332.8 332.8 Q 332.8 321.6 340 314.4 Q 347.2 307.2 358.4 307.2 L 358.4 268.8 L 358.4 268.8 Z" />
</svg>