<svg xmlns="http://www.w3.org/2000/svg" viewBox="0 0 512 512">
  <path d="M 209 62 L 237 25 L 209 62 L 237 25 Q 256 1 288 0 Q 310 0 327 13 Q 343 25 350 46 L 368 105 L 368 105 Q 385 159 437 180 L 477 195 L 477 195 Q 510 209 512 245 Q 511 272 490 288 L 423 339 L 423 339 Q 386 369 389 417 L 392 439 L 392 439 Q 394 469 376 490 Q 357 511 327 512 Q 304 512 286 498 L 231 453 L 231 453 Q 224 448 216 444 Q 192 432 165 437 L 82 452 L 82 452 Q 56 456 36 440 Q 17 424 16 397 Q 16 376 29 360 L 40 347 L 40 347 Q 63 320 63 285 Q 63 256 47 232 L 9 174 L 9 174 Q 0 160 0 144 Q 1 118 19 103 Q 37 87 63 91 L 114 99 L 114 99 Q 142 104 167 94 Q 192 84 209 62 L 209 62 Z" />
</svg>