<svg xmlns="http://www.w3.org/2000/svg" viewBox="0 0 512 512">
  <path d="M 483.55554 56.88889 Q 496 56.88889 504 64.888885 L 504 64.888885 L 504 64.888885 Q 512 72.888885 512 85.333336 L 512 426.66666 L 512 426.66666 Q 512 439.1111 504 447.1111 Q 496 455.1111 483.55554 455.1111 Q 471.1111 455.1111 463.1111 447.1111 Q 455.1111 439.1111 455.1111 426.66666 L 455.1111 85.333336 L 455.1111 85.333336 Q 455.1111 72.888885 463.1111 64.888885 Q 471.1111 56.88889 483.55554 56.88889 L 483.55554 56.88889 Z M 56.88889 197.33333 L 426.66666 85.333336 L 56.88889 197.33333 L 426.66666 85.333336 L 426.66666 426.66666 L 426.66666 426.66666 L 310.22223 391.1111 L 310.22223 391.1111 Q 302.22223 419.55554 280 437.33334 Q 257.77777 454.22223 227.55556 455.1111 Q 191.11111 454.22223 167.11111 430.22223 Q 143.11111 406.22223 142.22223 369.77777 Q 142.22223 354.66666 146.66667 342.22223 L 56.88889 314.66666 L 56.88889 314.66666 Q 56 326.22223 48 333.33334 Q 40 341.33334 28.444445 341.33334 Q 16 341.33334 8 333.33334 Q 0 325.33334 0 312.8889 L 0 199.11111 L 0 199.11111 Q 0 186.66667 8 178.66667 Q 16 170.66667 28.444445 170.66667 Q 40 170.66667 48 178.66667 Q 56 185.77777 56.88889 197.33333 L 56.88889 197.33333 Z M 269.33334 378.66666 L 187.55556 353.77777 L 269.33334 378.66666 L 187.55556 353.77777 Q 184.88889 361.77777 184.88889 369.77777 Q 185.77777 387.55554 197.33333 400 Q 209.77777 411.55554 227.55556 412.44446 Q 243.55556 412.44446 254.22223 402.66666 Q 265.77777 393.77777 269.33334 378.66666 L 269.33334 378.66666 Z" />
</svg>