<svg xmlns="http://www.w3.org/2000/svg" viewBox="0 0 512 512">
  <path d="M 430.79303 8.912959 Q 446.6383 0 460.5029 11.883945 L 500.11606 51.497097 L 500.11606 51.497097 Q 512 65.3617 503.08704 81.20696 L 463.47388 144.58801 L 463.47388 144.58801 Q 458.52225 152.51064 449.60928 154.4913 L 384.2476 172.31721 L 384.2476 172.31721 L 318.8859 237.67891 L 318.8859 237.67891 Q 320.86655 283.23404 311.95358 347.6054 Q 303.04062 410.98645 271.3501 460.5029 Q 240.6499 509.02902 174.29787 512 Q 100.02321 510.01935 51.497097 460.5029 Q 1.9806577 411.97678 0 337.70212 Q 2.9709864 271.3501 51.497097 240.6499 Q 101.01354 208.95938 164.39458 200.04642 Q 228.76596 191.13347 274.32108 193.11412 L 339.6828 127.75242 L 339.6828 127.75242 L 357.5087 62.390717 L 357.5087 62.390717 Q 359.48935 53.477757 367.412 48.52611 L 430.79303 8.912959 L 430.79303 8.912959 Z M 205.98839 353.5474 Q 232.72728 352.55707 247.5822 329.7795 Q 259.46616 306.0116 247.5822 282.2437 Q 232.72728 259.46616 205.98839 258.47583 Q 179.24951 259.46616 164.39458 282.2437 Q 152.51064 306.0116 164.39458 329.7795 Q 179.24951 352.55707 205.98839 353.5474 L 205.98839 353.5474 Z" />
</svg>