<svg xmlns="http://www.w3.org/2000/svg" viewBox="0 0 512 512">
  <path d="M 233.44061 9.808429 Q 256 0 279.54022 9.808429 L 493.36398 108.873566 L 493.36398 108.873566 Q 506.11493 115.73946 507.0958 130.4521 Q 506.11493 145.16475 493.36398 152.03065 L 278.5594 251.09578 L 278.5594 251.09578 Q 256 260.9042 232.45976 251.09578 L 18.636015 152.03065 L 18.636015 152.03065 Q 5.8850574 145.16475 4.9042144 130.4521 Q 5.8850574 115.73946 18.636015 108.873566 L 233.44061 9.808429 L 233.44061 9.808429 Z M 441.3793 210.88123 L 493.36398 234.42146 L 441.3793 210.88123 L 493.36398 234.42146 Q 506.11493 241.28735 507.0958 256 Q 506.11493 270.71265 493.36398 277.57855 L 278.5594 376.64368 L 278.5594 376.64368 Q 256 386.45212 232.45976 376.64368 L 18.636015 277.57855 L 18.636015 277.57855 Q 5.8850574 270.71265 4.9042144 256 Q 5.8850574 241.28735 18.636015 234.42146 L 70.62069 210.88123 L 70.62069 210.88123 L 219.70882 279.54022 L 219.70882 279.54022 Q 256 295.2337 292.2912 279.54022 L 441.3793 210.88123 L 441.3793 210.88123 Z M 292.2912 405.08813 L 441.3793 336.4291 L 292.2912 405.08813 L 441.3793 336.4291 L 493.36398 359.96936 L 493.36398 359.96936 Q 506.11493 366.83524 507.0958 381.54788 Q 506.11493 396.26053 493.36398 403.12643 L 278.5594 502.19156 L 278.5594 502.19156 Q 256 512 232.45976 502.19156 L 18.636015 403.12643 L 18.636015 403.12643 Q 5.8850574 396.26053 4.9042144 381.54788 Q 5.8850574 366.83524 18.636015 359.96936 L 70.62069 336.4291 L 70.62069 336.4291 L 219.70882 405.08813 L 219.70882 405.08813 Q 256 420.78162 292.2912 405.08813 L 292.2912 405.08813 Z" />
</svg>