<svg xmlns="http://www.w3.org/2000/svg" viewBox="0 0 512 512">
  <path d="M 45.467182 63.752895 Q 20.756756 64.74131 9.88417 87.47491 Q 0 110.208496 15.8146715 129.97684 L 116.6332 241.66795 L 116.6332 241.66795 L 116.6332 364.23166 L 116.6332 364.23166 Q 116.6332 380.04633 129.48262 389.9305 L 192.74132 437.3745 L 192.74132 437.3745 Q 208.55598 448.2471 225.35907 440.33978 Q 242.16216 430.4556 243.15057 411.6757 L 243.15057 241.66795 L 243.15057 241.66795 L 343.96912 129.97684 L 343.96912 129.97684 Q 359.78378 110.208496 350.88803 87.47491 Q 339.02704 64.74131 314.3166 63.752895 L 45.467182 63.752895 L 45.467182 63.752895 Z M 353.85327 380.04633 Q 340.01544 380.04633 331.1197 388.94208 L 331.1197 388.94208 L 331.1197 388.94208 Q 322.22394 397.83783 322.22394 411.6757 Q 322.22394 425.51352 331.1197 434.40927 Q 340.01544 443.30502 353.85327 443.30502 L 480.37067 443.30502 L 480.37067 443.30502 Q 494.2085 443.30502 503.10425 434.40927 Q 512 425.51352 512 411.6757 Q 512 397.83783 503.10425 388.94208 Q 494.2085 380.04633 480.37067 380.04633 L 353.85327 380.04633 L 353.85327 380.04633 Z M 322.22394 253.52896 Q 322.22394 267.3668 331.1197 276.26254 L 331.1197 276.26254 L 331.1197 276.26254 Q 340.01544 285.1583 353.85327 285.1583 L 480.37067 285.1583 L 480.37067 285.1583 Q 494.2085 285.1583 503.10425 276.26254 Q 512 267.3668 512 253.52896 Q 512 239.69112 503.10425 230.79536 Q 494.2085 221.89961 480.37067 221.89961 L 353.85327 221.89961 L 353.85327 221.89961 Q 340.01544 221.89961 331.1197 230.79536 Q 322.22394 239.69112 322.22394 253.52896 L 322.22394 253.52896 Z M 417.11197 63.752895 Q 403.27414 63.752895 394.3784 72.64865 L 394.3784 72.64865 L 394.3784 72.64865 Q 385.48264 81.5444 385.48264 95.38224 Q 385.48264 109.22008 394.3784 118.11583 Q 403.27414 127.01158 417.11197 127.01158 L 480.37067 127.01158 L 480.37067 127.01158 Q 494.2085 127.01158 503.10425 118.11583 Q 512 109.22008 512 95.38224 Q 512 81.5444 503.10425 72.64865 Q 494.2085 63.752895 480.37067 63.752895 L 417.11197 63.752895 L 417.11197 63.752895 Z" />
</svg>