<svg xmlns="http://www.w3.org/2000/svg" viewBox="0 0 512 512">
  <path d="M 0 96 Q 1 55 28 28 L 28 28 L 28 28 Q 55 1 96 0 Q 137 1 164 28 Q 191 55 192 96 L 192 128 L 192 128 L 320 128 L 320 128 L 320 96 L 320 96 Q 321 55 348 28 Q 375 1 416 0 Q 457 1 484 28 Q 511 55 512 96 Q 511 137 484 164 Q 457 191 416 192 L 384 192 L 384 192 L 384 320 L 384 320 L 416 320 L 416 320 Q 457 321 484 348 Q 511 375 512 416 Q 511 457 484 484 Q 457 511 416 512 Q 375 511 348 484 Q 321 457 320 416 L 320 384 L 320 384 L 192 384 L 192 384 L 192 416 L 192 416 Q 191 457 164 484 Q 137 511 96 512 Q 55 511 28 484 Q 1 457 0 416 Q 1 375 28 348 Q 55 321 96 320 L 128 320 L 128 320 L 128 192 L 128 192 L 96 192 L 96 192 Q 55 191 28 164 Q 1 137 0 96 L 0 96 Z M 128 128 L 128 96 L 128 128 L 128 96 Q 128 82 119 73 Q 110 64 96 64 Q 82 64 73 73 Q 64 82 64 96 Q 64 110 73 119 Q 82 128 96 128 L 128 128 L 128 128 Z M 192 320 L 320 320 L 192 320 L 320 320 L 320 192 L 320 192 L 192 192 L 192 192 L 192 320 L 192 320 Z M 128 384 L 96 384 L 128 384 L 96 384 Q 82 384 73 393 Q 64 402 64 416 Q 64 430 73 439 Q 82 448 96 448 Q 110 448 119 439 Q 128 430 128 416 L 128 384 L 128 384 Z M 384 384 L 384 416 L 384 384 L 384 416 Q 384 430 393 439 Q 402 448 416 448 Q 430 448 439 439 Q 448 430 448 416 Q 448 402 439 393 Q 430 384 416 384 L 384 384 L 384 384 Z M 384 128 L 416 128 L 384 128 L 416 128 Q 430 128 439 119 Q 448 110 448 96 Q 448 82 439 73 Q 430 64 416 64 Q 402 64 393 73 Q 384 82 384 96 L 384 128 L 384 128 Z" />
</svg>