<svg xmlns="http://www.w3.org/2000/svg" viewBox="0 0 512 512">
  <path d="M 11.235109 62.59561 Q 24.877743 51.3605 38.520374 62.59561 L 89.07837 113.1536 L 89.07837 113.1536 L 89.07837 82.65831 L 89.07837 82.65831 Q 90.68339 65.003136 108.338554 63.39812 Q 125.99373 65.003136 127.59875 82.65831 L 127.59875 159.69907 L 127.59875 159.69907 Q 125.99373 177.35423 108.338554 178.95924 L 31.297806 178.95924 L 31.297806 178.95924 Q 13.642633 177.35423 12.037618 159.69907 Q 13.642633 142.04388 31.297806 140.43887 L 61.793102 140.43887 L 61.793102 140.43887 L 11.235109 89.880875 L 11.235109 89.880875 Q 0 76.23824 11.235109 62.59561 L 11.235109 62.59561 Z M 106.73354 246.3699 Q 116.36364 225.5047 136.42633 200.62695 L 136.42633 200.62695 L 136.42633 200.62695 Q 157.29153 176.55173 186.98433 158.89655 L 186.98433 158.89655 L 186.98433 158.89655 Q 216.67711 141.24138 256 140.43887 Q 295.32288 141.24138 325.0157 158.89655 Q 354.70847 176.55173 375.57367 200.62695 Q 395.63635 225.5047 406.06897 246.3699 Q 410.0815 256 406.06897 265.6301 Q 395.63635 286.4953 375.57367 311.37305 Q 354.70847 335.44827 325.0157 353.10345 Q 295.32288 370.7586 256 371.56113 Q 216.67711 370.7586 186.98433 353.10345 Q 157.29153 335.44827 136.42633 311.37305 Q 116.36364 286.4953 106.73354 265.6301 Q 101.918495 256 106.73354 246.3699 L 106.73354 246.3699 Z M 256 307.3605 Q 284.8903 306.55798 300.13794 281.68024 Q 314.58307 256 300.13794 230.31975 Q 284.8903 205.442 256 204.6395 Q 227.10971 205.442 211.86208 230.31975 Q 197.41693 256 211.86208 281.68024 Q 227.10971 306.55798 256 307.3605 L 256 307.3605 Z M 473.4796 62.59561 Q 487.12225 51.3605 500.7649 62.59561 Q 512 76.23824 500.7649 89.880875 L 450.2069 140.43887 L 450.2069 140.43887 L 480.7022 140.43887 L 480.7022 140.43887 Q 498.35736 142.04388 499.96237 159.69907 Q 498.35736 177.35423 480.7022 178.95924 L 403.66144 178.95924 L 403.66144 178.95924 Q 386.00626 177.35423 384.40125 159.69907 L 384.40125 82.65831 L 384.40125 82.65831 Q 386.00626 65.003136 403.66144 63.39812 Q 421.31662 65.003136 422.92163 82.65831 L 422.92163 113.1536 L 422.92163 113.1536 L 473.4796 62.59561 L 473.4796 62.59561 Z M 11.235109 449.4044 Q 0 435.76175 11.235109 422.1191 L 61.793102 371.56113 L 61.793102 371.56113 L 31.297806 371.56113 L 31.297806 371.56113 Q 13.642633 369.95612 12.037618 352.30093 Q 13.642633 334.64578 31.297806 333.04074 L 108.338554 333.04074 L 108.338554 333.04074 Q 125.99373 334.64578 127.59875 352.30093 L 127.59875 429.3417 L 127.59875 429.3417 Q 125.99373 446.99686 108.338554 448.60187 Q 90.68339 446.99686 89.07837 429.3417 L 89.07837 398.8464 L 89.07837 398.8464 L 38.520374 449.4044 L 38.520374 449.4044 Q 24.877743 460.6395 11.235109 449.4044 L 11.235109 449.4044 Z M 473.4796 449.4044 L 422.92163 398.8464 L 473.4796 449.4044 L 422.92163 398.8464 L 422.92163 429.3417 L 422.92163 429.3417 Q 421.31662 446.99686 403.66144 448.60187 Q 386.00626 446.99686 384.40125 429.3417 L 384.40125 352.30093 L 384.40125 352.30093 Q 386.00626 334.64578 403.66144 333.04074 L 480.7022 333.04074 L 480.7022 333.04074 Q 498.35736 334.64578 499.96237 352.30093 Q 498.35736 369.95612 480.7022 371.56113 L 450.2069 371.56113 L 450.2069 371.56113 L 500.7649 422.1191 L 500.7649 422.1191 Q 512 435.76175 500.7649 449.4044 Q 487.12225 460.6395 473.4796 449.4044 L 473.4796 449.4044 Z" />
</svg>