<svg xmlns="http://www.w3.org/2000/svg" viewBox="0 0 512 512">
  <path d="M 38.4 76.8 Q 22.4 77.6 11.2 88 L 11.2 88 L 11.2 88 Q 0.8 99.2 0 115.2 L 0 320 L 0 320 Q 0.8 336 11.2 347.2 Q 22.4 357.6 38.4 358.4 L 52 358.4 L 52 358.4 Q 57.6 324.8 81.6 304 Q 106.4 282.4 140.8 281.6 Q 175.2 282.4 200 304 Q 224 324.8 229.6 358.4 L 390.4 358.4 L 486.4 358.4 Q 497.6 358.4 504.8 351.2 Q 512 344 512 332.8 Q 512 321.6 504.8 314.4 Q 497.6 307.2 486.4 307.2 L 435.2 307.2 L 435.2 307.2 L 435.2 115.2 L 435.2 115.2 Q 434.4 99.2 424 88 Q 412.8 77.6 396.8 76.8 L 38.4 76.8 L 38.4 76.8 Z M 64 128 Q 76 128.8 76.8 140.8 L 76.8 245.6 L 76.8 245.6 Q 63.2 252.8 51.2 262.4 L 51.2 140.8 L 51.2 140.8 Q 52 128.8 64 128 L 64 128 Z M 140.8 230.4 Q 134.4 230.4 128 231.2 L 128 140.8 L 128 140.8 Q 128.8 128.8 140.8 128 Q 152.8 128.8 153.6 140.8 L 153.6 231.2 L 153.6 231.2 Q 147.2 230.4 140.8 230.4 L 140.8 230.4 Z M 204.8 245.6 L 204.8 140.8 L 204.8 245.6 L 204.8 140.8 Q 205.6 128.8 217.6 128 Q 229.6 128.8 230.4 140.8 L 230.4 262.4 L 230.4 262.4 Q 218.4 252.8 204.8 245.6 L 204.8 245.6 Z M 294.4 128 Q 306.4 128.8 307.2 140.8 L 307.2 294.4 L 307.2 294.4 Q 306.4 306.4 294.4 307.2 Q 282.4 306.4 281.6 294.4 L 281.6 140.8 L 281.6 140.8 Q 282.4 128.8 294.4 128 L 294.4 128 Z M 384 140.8 L 384 294.4 L 384 140.8 L 384 294.4 Q 383.2 306.4 371.2 307.2 Q 359.2 306.4 358.4 294.4 L 358.4 140.8 L 358.4 140.8 Q 359.2 128.8 371.2 128 Q 383.2 128.8 384 140.8 L 384 140.8 Z M 140.8 435.2 Q 176.8 434.4 196 403.2 Q 213.6 371.2 196 339.2 Q 176.8 308 140.8 307.2 Q 104.8 308 85.6 339.2 Q 68 371.2 85.6 403.2 Q 104.8 434.4 140.8 435.2 L 140.8 435.2 Z M 140.8 345.6 Q 152 345.6 159.2 352.8 L 159.2 352.8 L 159.2 352.8 Q 166.4 360 166.4 371.2 Q 166.4 382.4 159.2 389.6 Q 152 396.8 140.8 396.8 Q 129.6 396.8 122.4 389.6 Q 115.2 382.4 115.2 371.2 Q 115.2 360 122.4 352.8 Q 129.6 345.6 140.8 345.6 L 140.8 345.6 Z" />
</svg>