<svg xmlns="http://www.w3.org/2000/svg" viewBox="0 0 512 512">
  <path d="M 62.93333333333333 187.73333333333332 L 32 172.8 L 62.93333333333333 187.73333333333332 L 32 172.8 Q 26.666666666666668 186.66666666666666 30.933333333333334 199.46666666666667 Q 35.2 212.26666666666668 48 218.66666666666666 Q 60.8 225.06666666666666 74.66666666666667 219.73333333333332 Q 87.46666666666667 215.46666666666667 93.86666666666666 202.66666666666666 L 93.86666666666666 202.66666666666666 L 93.86666666666666 202.66666666666666 L 93.86666666666666 202.66666666666666 L 93.86666666666666 202.66666666666666 L 93.86666666666666 202.66666666666666 L 93.86666666666666 202.66666666666666 L 93.86666666666666 201.6 L 93.86666666666666 201.6 L 94.93333333333334 200.53333333333333 L 94.93333333333334 200.53333333333333 Q 94.93333333333334 199.46666666666667 96 197.33333333333334 Q 97.06666666666666 196.26666666666668 98.13333333333334 194.13333333333333 Q 98.13333333333334 194.13333333333333 98.13333333333334 193.06666666666666 Q 102.4 185.6 108.8 174.93333333333334 Q 122.66666666666667 148.26666666666668 135.46666666666667 135.46666666666667 Q 187.73333333333332 85.33333333333333 256 85.33333333333333 Q 324.26666666666665 85.33333333333333 376.53333333333336 135.46666666666667 L 394.6666666666667 153.6 L 394.6666666666667 153.6 L 358.4 153.6 L 358.4 153.6 Q 343.46666666666664 153.6 333.8666666666667 163.2 Q 324.26666666666665 172.8 324.26666666666665 187.73333333333332 Q 324.26666666666665 202.66666666666666 333.8666666666667 212.26666666666668 Q 343.46666666666664 221.86666666666667 358.4 221.86666666666667 L 477.8666666666667 221.86666666666667 L 477.8666666666667 221.86666666666667 Q 492.8 221.86666666666667 502.4 212.26666666666668 Q 512 202.66666666666666 512 187.73333333333332 L 512 68.26666666666667 L 512 68.26666666666667 Q 512 53.333333333333336 502.4 43.733333333333334 Q 492.8 34.13333333333333 477.8666666666667 34.13333333333333 Q 462.93333333333334 34.13333333333333 453.3333333333333 43.733333333333334 Q 443.73333333333335 53.333333333333336 443.73333333333335 68.26666666666667 L 443.73333333333335 105.6 L 443.73333333333335 105.6 L 424.53333333333336 87.46666666666667 L 424.53333333333336 87.46666666666667 Q 377.6 40.53333333333333 316.8 24.533333333333335 Q 256 9.6 195.2 24.533333333333335 Q 134.4 40.53333333333333 87.46666666666667 87.46666666666667 Q 75.73333333333333 98.13333333333334 66.13333333333334 113.06666666666666 Q 56.53333333333333 128 49.06666666666667 140.8 Q 41.6 154.66666666666666 37.333333333333336 163.2 Q 35.2 167.46666666666667 33.06666666666667 170.66666666666666 Q 33.06666666666667 170.66666666666666 33.06666666666667 170.66666666666666 L 32 172.8 L 32 172.8 L 32 172.8 L 32 172.8 L 32 172.8 L 32 172.8 L 32 172.8 L 32 172.8 L 32 172.8 L 32 172.8 L 32 172.8 L 32 172.8 Q 30.933333333333334 172.8 36.266666666666666 174.93333333333334 Q 40.53333333333333 177.06666666666666 62.93333333333333 187.73333333333332 L 62.93333333333333 187.73333333333332 Z M 281.6 145.06666666666666 Q 279.46666666666664 121.6 256 119.46666666666667 Q 232.53333333333333 121.6 230.4 145.06666666666666 L 230.4 264.53333333333336 L 230.4 264.53333333333336 Q 232.53333333333333 288 256 290.1333333333333 Q 279.46666666666664 288 281.6 264.53333333333336 L 281.6 145.06666666666666 L 281.6 145.06666666666666 Z M 256 392.53333333333336 Q 270.93333333333334 392.53333333333336 280.53333333333336 382.93333333333334 L 280.53333333333336 382.93333333333334 L 280.53333333333336 382.93333333333334 Q 290.1333333333333 373.3333333333333 290.1333333333333 358.4 Q 290.1333333333333 343.46666666666664 280.53333333333336 333.8666666666667 Q 270.93333333333334 324.26666666666665 256 324.26666666666665 Q 241.06666666666666 324.26666666666665 231.46666666666667 333.8666666666667 Q 221.86666666666667 343.46666666666664 221.86666666666667 358.4 Q 221.86666666666667 373.3333333333333 231.46666666666667 382.93333333333334 Q 241.06666666666666 392.53333333333336 256 392.53333333333336 L 256 392.53333333333336 Z M 34.13333333333333 477.8666666666667 Q 49.06666666666667 477.8666666666667 58.666666666666664 468.26666666666665 L 58.666666666666664 468.26666666666665 L 58.666666666666664 468.26666666666665 Q 68.26666666666667 458.6666666666667 68.26666666666667 443.73333333333335 L 68.26666666666667 406.4 L 68.26666666666667 406.4 L 87.46666666666667 424.53333333333336 L 87.46666666666667 424.53333333333336 Q 134.4 471.46666666666664 195.2 487.46666666666664 Q 256 502.4 316.8 487.46666666666664 Q 377.6 471.46666666666664 424.53333333333336 424.53333333333336 Q 464 385.06666666666666 481.06666666666666 336 Q 486.4 322.1333333333333 480 309.3333333333333 Q 473.6 297.6 460.8 292.26666666666665 Q 446.93333333333334 288 434.1333333333333 293.3333333333333 Q 422.4 299.73333333333335 417.06666666666666 312.53333333333336 Q 405.3333333333333 348.8 376.53333333333336 376.53333333333336 Q 324.26666666666665 426.6666666666667 256 426.6666666666667 Q 187.73333333333332 426.6666666666667 135.46666666666667 376.53333333333336 L 117.33333333333333 358.4 L 117.33333333333333 358.4 L 153.6 358.4 L 153.6 358.4 Q 168.53333333333333 358.4 178.13333333333333 348.8 Q 187.73333333333332 339.2 187.73333333333332 324.26666666666665 Q 187.73333333333332 309.3333333333333 178.13333333333333 299.73333333333335 Q 168.53333333333333 290.1333333333333 153.6 290.1333333333333 L 34.13333333333333 290.1333333333333 L 34.13333333333333 290.1333333333333 Q 19.2 290.1333333333333 9.6 299.73333333333335 Q 0 309.3333333333333 0 324.26666666666665 L 0 443.73333333333335 L 0 443.73333333333335 Q 0 458.6666666666667 9.6 468.26666666666665 Q 19.2 477.8666666666667 34.13333333333333 477.8666666666667 L 34.13333333333333 477.8666666666667 Z" />
</svg>