<svg xmlns="http://www.w3.org/2000/svg" viewBox="0 0 448 448">
    <path d="M 9 201 Q 0 211 0 224 L 0 224 Q 0 237 9 247 L 201 439 Q 211 448 224 448 Q 237 448 247 439 Q 256 429 256 416 Q 256 403 247 393 L 77 224 L 247 55 Q 256 45 256 32 Q 256 19 247 9 Q 237 0 224 0 Q 211 0 201 9 L 9 201 L 9 201 Z M 393 9 L 201 201 Q 192 211 192 224 Q 192 237 201 247 L 393 439 Q 403 448 416 448 Q 429 448 439 439 Q 448 429 448 416 Q 448 403 439 393 L 269 224 L 439 55 Q 448 45 448 32 Q 448 19 439 9 Q 429 0 416 0 Q 403 0 393 9 L 393 9 Z"/>
</svg>
