<svg xmlns="http://www.w3.org/2000/svg" viewBox="0 0 512 512">
  <path d="M 216.47058 312.47058 L 196.70589 282.35294 L 216.47058 312.47058 L 196.70589 282.35294 Q 193.88235 276.70587 197.64706 272.94116 Q 201.41176 269.17648 207.05882 272 L 234.35294 289.88235 L 234.35294 289.88235 Q 238.11765 291.7647 239.05882 288 L 248.47058 22.588236 L 248.47058 22.588236 Q 249.41176 16 256 15.058824 Q 262.58823 16 263.52942 22.588236 L 272.94116 288 L 272.94116 288 Q 273.88235 291.7647 277.64706 290.82352 L 304.94116 272 L 304.94116 272 Q 310.58823 269.17648 314.35294 272.94116 Q 318.11765 276.70587 315.29413 282.35294 L 295.52942 312.47058 L 295.52942 312.47058 Q 293.64706 315.29413 297.41177 317.17648 L 333.17648 323.7647 L 333.17648 323.7647 Q 338.82352 325.64706 338.82352 331.29413 Q 338.82352 336.94116 333.17648 338.82352 L 297.41177 345.41177 L 297.41177 345.41177 Q 293.64706 347.29413 295.52942 350.11765 L 315.29413 380.2353 L 315.29413 380.2353 Q 318.11765 385.88235 314.35294 389.64706 Q 310.58823 393.41177 304.94116 390.58823 L 280.47058 374.58823 L 280.47058 374.58823 Q 276.70587 372.70587 275.7647 376.47058 L 277.64706 434.82352 L 277.64706 434.82352 Q 320.94116 426.35294 348.2353 394.35294 Q 375.52942 361.41177 376.47058 316.2353 Q 374.58823 262.58823 337.88235 227.76471 Q 328.47058 216.47058 338.82352 205.17647 Q 363.29413 186.35294 377.41177 158.11765 Q 391.52942 130.82353 391.52942 97.882355 Q 391.52942 74.35294 384 52.705883 Q 381.17648 42.35294 388.70587 34.82353 Q 395.29413 27.294117 403.7647 32 Q 442.35294 59.294117 468.70587 97.882355 Q 494.11765 136.47058 505.41177 183.52942 Q 506.35294 186.35294 503.52942 189.17647 L 477.17648 215.52942 L 477.17648 215.52942 Q 472.47058 223.05882 480.94116 225.88235 L 505.41177 225.88235 L 505.41177 225.88235 Q 511.05884 225.88235 512 231.52942 Q 512 231.52942 512 231.52942 Q 512 236.23529 512 240.94118 Q 512 265.41177 507.29413 288.94116 Q 507.29413 290.82352 505.41177 291.7647 L 462.11765 336 L 462.11765 336 Q 457.41177 343.52942 465.88235 346.35294 L 480 346.35294 L 480 346.35294 Q 487.52942 347.29413 485.64706 354.82352 Q 452.70587 418.82352 392.47058 457.41177 Q 332.2353 496 256 496.94116 Q 179.76471 496 119.52941 457.41177 Q 59.294117 418.82352 26.352942 354.82352 Q 24.470589 347.29413 32 346.35294 L 46.117645 346.35294 L 46.117645 346.35294 Q 54.588234 344.47058 49.882355 336 L 6.5882354 292.70587 L 6.5882354 292.70587 Q 4.7058825 290.82352 4.7058825 288.94116 Q 0 265.41177 0 240.94118 Q 0 236.23529 0 231.52942 Q 0.9411765 225.88235 6.5882354 225.88235 L 31.058823 225.88235 L 31.058823 225.88235 Q 39.52941 224 34.82353 215.52942 L 8.470589 189.17647 L 8.470589 189.17647 Q 5.647059 186.35294 6.5882354 183.52942 Q 17.882353 136.47058 43.294117 97.882355 Q 69.64706 59.294117 108.23529 32 Q 116.70588 27.294117 123.29412 34.82353 Q 130.82353 42.35294 128 52.705883 Q 120.47059 74.35294 120.47059 97.882355 Q 120.47059 130.82353 134.58824 158.11765 Q 148.70589 186.35294 173.17647 205.17647 Q 183.52942 216.47058 174.11765 227.76471 Q 137.41176 262.58823 135.52942 316.2353 Q 136.47058 361.41177 163.76471 394.35294 Q 191.05882 426.35294 234.35294 434.82352 L 236.23529 377.41177 L 236.23529 377.41177 Q 235.29411 372.70587 231.52942 374.58823 L 207.05882 390.58823 L 207.05882 390.58823 Q 201.41176 393.41177 197.64706 389.64706 Q 193.88235 385.88235 196.70589 380.2353 L 216.47058 350.11765 L 216.47058 350.11765 Q 218.35294 347.29413 214.58824 345.41177 L 178.82353 338.82352 L 178.82353 338.82352 Q 173.17647 336.94116 173.17647 331.29413 Q 173.17647 325.64706 178.82353 323.7647 L 214.58824 317.17648 L 214.58824 317.17648 Q 218.35294 315.29413 216.47058 312.47058 L 216.47058 312.47058 Z" />
</svg>