<svg xmlns="http://www.w3.org/2000/svg" viewBox="0 0 515 453">
    <path d="M 165 74 Q 169 43 191 24 L 191 24 Q 213 5 244 4 Q 281 5 304 31 Q 326 57 323 94 L 311 190 Q 307 221 285 240 Q 263 259 232 260 Q 195 259 172 233 Q 150 207 153 171 L 165 74 L 165 74 Z M 244 68 Q 231 69 229 82 L 216 178 Q 216 194 232 196 Q 245 195 247 182 L 260 86 Q 260 70 244 68 L 244 68 Z M 138 40 L 106 264 Q 103 277 93 285 Q 83 293 70 292 Q 56 290 48 280 Q 41 270 42 256 L 66 89 L 47 97 Q 34 102 22 98 Q 10 93 5 81 Q 0 69 4 57 Q 9 45 21 39 L 93 7 Q 111 0 126 10 Q 140 22 138 40 L 138 40 Z M 514 288 Q 515 301 508 311 L 508 311 Q 500 321 487 324 L 39 388 Q 25 389 15 382 Q 5 374 2 361 Q 1 347 8 337 Q 16 327 30 324 L 478 260 Q 491 259 501 266 Q 511 274 514 288 L 514 288 Z M 514 384 Q 515 397 508 407 L 508 407 Q 500 417 487 420 L 263 452 Q 249 453 239 446 Q 229 438 226 425 Q 225 411 232 401 Q 240 391 254 388 L 478 356 Q 491 355 501 362 Q 511 370 514 384 L 514 384 Z M 430 4 Q 466 5 489 30 L 489 30 Q 511 55 509 91 L 502 171 Q 498 203 476 223 Q 454 243 422 244 Q 386 243 363 218 Q 341 193 343 157 L 350 77 Q 354 45 376 25 Q 398 5 430 4 L 430 4 Z M 414 82 L 407 163 Q 407 178 422 180 Q 436 179 438 166 L 445 85 Q 445 70 430 68 Q 416 69 414 82 L 414 82 Z"/>
</svg>
