<svg xmlns="http://www.w3.org/2000/svg" viewBox="0 0 512 512">
  <path d="M 341.33334 85.333336 Q 341.33334 85.333336 341.33334 85.333336 L 341.33334 85.333336 L 341.33334 85.333336 Q 341.33334 85.333336 341.33334 85.333336 Q 341.33334 85.333336 341.33334 85.333336 Q 341.33334 86.22222 341.33334 86.22222 Q 340.44446 87.111115 339.55554 88.888885 Q 336.8889 91.55556 333.33334 94.22222 Q 342.22223 104.888885 348.44446 119.111115 Q 368.8889 104 369.77777 85.333336 Q 368.8889 61.333332 336.8889 45.333332 Q 304 29.333334 256 28.444445 Q 208 29.333334 175.11111 45.333332 Q 143.11111 61.333332 142.22223 85.333336 Q 143.11111 104 163.55556 119.111115 Q 168.88889 104.888885 178.66667 94.22222 Q 175.11111 91.55556 172.44444 88.888885 Q 170.66667 87.111115 170.66667 86.22222 Q 170.66667 86.22222 170.66667 85.333336 Q 170.66667 85.333336 170.66667 85.333336 Q 170.66667 85.333336 170.66667 85.333336 Q 170.66667 85.333336 170.66667 85.333336 Q 170.66667 85.333336 170.66667 85.333336 Q 170.66667 85.333336 170.66667 84.44444 Q 170.66667 84.44444 170.66667 84.44444 Q 170.66667 83.55556 172.44444 81.77778 Q 176.88889 76.44444 188.44444 70.22222 Q 213.33333 57.77778 256 56.88889 Q 298.66666 57.77778 323.55554 70.22222 Q 335.1111 76.44444 339.55554 81.77778 Q 340.44446 83.55556 341.33334 84.44444 Q 341.33334 84.44444 341.33334 85.333336 Q 341.33334 85.333336 341.33334 85.333336 Q 341.33334 85.333336 341.33334 85.333336 Q 341.33334 85.333336 341.33334 85.333336 L 341.33334 85.333336 Z M 327.1111 156.44444 Q 326.22223 116.44444 291.55554 95.111115 Q 256 75.55556 220.44444 95.111115 Q 185.77777 116.44444 184.88889 156.44444 Q 185.77777 196.44444 220.44444 217.77777 Q 256 237.33333 291.55554 217.77777 Q 326.22223 196.44444 327.1111 156.44444 L 327.1111 156.44444 Z M 106.666664 440.8889 L 44.444443 440.8889 L 106.666664 440.8889 L 44.444443 440.8889 L 78.22222 373.33334 L 78.22222 373.33334 Q 85.333336 358.22223 85.333336 341.33334 L 85.333336 341.33334 L 85.333336 341.33334 Q 85.333336 324.44446 78.22222 309.33334 L 61.333332 276.44446 L 61.333332 276.44446 Q 56.88889 267.55554 56.88889 256.8889 Q 57.77778 238.22223 69.333336 225.77777 Q 81.77778 214.22223 99.55556 213.33333 Q 117.333336 213.33333 129.77777 225.77777 L 189.33333 285.33334 L 189.33333 285.33334 Q 179.55556 294.22223 173.33333 306.66666 L 106.666664 440.8889 L 106.666664 440.8889 Z M 225.77777 261.33334 L 160 195.55556 L 225.77777 261.33334 L 160 195.55556 Q 135.11111 171.55556 99.55556 170.66667 Q 63.11111 171.55556 39.11111 196.44444 Q 15.111111 220.44444 14.222222 256.8889 Q 14.222222 277.33334 23.11111 296 L 40 328 L 40 328 Q 42.666668 334.22223 42.666668 341.33334 L 42.666668 341.33334 L 42.666668 341.33334 Q 42.666668 348.44446 40 354.66666 L 4.4444447 424.8889 L 4.4444447 424.8889 Q 0 433.77777 0 443.55554 Q 0 460.44446 11.555555 472 Q 23.11111 483.55554 40 483.55554 L 85.333336 483.55554 L 472 483.55554 Q 488.8889 483.55554 500.44446 472 Q 512 460.44446 512 443.55554 Q 512 433.77777 507.55554 424.8889 L 472 354.66666 L 472 354.66666 Q 469.33334 348.44446 469.33334 341.33334 L 469.33334 341.33334 L 469.33334 341.33334 Q 469.33334 334.22223 472 328 L 488.8889 296 L 488.8889 296 Q 497.77777 277.33334 497.77777 256.8889 Q 496.8889 220.44444 472.8889 196.44444 Q 448.8889 171.55556 412.44446 170.66667 Q 376.8889 171.55556 352 195.55556 L 286.22223 261.33334 L 286.22223 261.33334 Q 272 256 256 256 Q 240 256 225.77777 261.33334 L 225.77777 261.33334 Z M 338.66666 306.66666 Q 332.44446 294.22223 322.66666 284.44446 L 382.22223 225.77777 L 382.22223 225.77777 Q 394.66666 213.33333 412.44446 213.33333 Q 430.22223 214.22223 442.66666 225.77777 Q 454.22223 238.22223 455.1111 256.8889 Q 455.1111 267.55554 450.66666 276.44446 L 433.77777 309.33334 L 433.77777 309.33334 Q 426.66666 324.44446 426.66666 340.44446 L 426.66666 341.33334 L 426.66666 341.33334 Q 426.66666 358.22223 433.77777 373.33334 L 467.55554 440.8889 L 467.55554 440.8889 L 405.33334 440.8889 L 405.33334 440.8889 L 338.66666 306.66666 L 338.66666 306.66666 Z" />
</svg>