<svg xmlns="http://www.w3.org/2000/svg" viewBox="0 0 640 512">
    <path d="M 352 32 Q 352 18 343 9 L 343 9 Q 334 0 320 0 Q 306 0 297 9 Q 288 18 288 32 L 288 480 Q 288 494 297 503 Q 306 512 320 512 Q 334 512 343 503 Q 352 494 352 480 L 352 32 L 352 32 Z M 544 96 Q 544 82 535 73 L 535 73 Q 526 64 512 64 Q 498 64 489 73 Q 480 82 480 96 L 480 416 Q 480 430 489 439 Q 498 448 512 448 Q 526 448 535 439 Q 544 430 544 416 L 544 96 L 544 96 Z M 256 128 Q 256 114 247 105 L 247 105 Q 238 96 224 96 Q 210 96 201 105 Q 192 114 192 128 L 192 384 Q 192 398 201 407 Q 210 416 224 416 Q 238 416 247 407 Q 256 398 256 384 L 256 128 L 256 128 Z M 448 160 Q 448 146 439 137 L 439 137 Q 430 128 416 128 Q 402 128 393 137 Q 384 146 384 160 L 384 352 Q 384 366 393 375 Q 402 384 416 384 Q 430 384 439 375 Q 448 366 448 352 L 448 160 L 448 160 Z M 160 224 Q 160 210 151 201 L 151 201 Q 142 192 128 192 Q 114 192 105 201 Q 96 210 96 224 L 96 288 Q 96 302 105 311 Q 114 320 128 320 Q 142 320 151 311 Q 160 302 160 288 L 160 224 L 160 224 Z M 0 256 Q 0 270 9 279 L 9 279 Q 18 288 32 288 Q 46 288 55 279 Q 64 270 64 256 Q 64 242 55 233 Q 46 224 32 224 Q 18 224 9 233 Q 0 242 0 256 L 0 256 Z M 576 256 Q 576 270 585 279 L 585 279 Q 594 288 608 288 Q 622 288 631 279 Q 640 270 640 256 Q 640 242 631 233 Q 622 224 608 224 Q 594 224 585 233 Q 576 242 576 256 L 576 256 Z"/>
</svg>
