<svg xmlns="http://www.w3.org/2000/svg" viewBox="0 0 512 512">
  <path d="M 85.03806228373702 42.51903114186851 Q 85.92387543252595 30.11764705882353 98.32525951557093 29.231833910034602 L 141.73010380622839 29.231833910034602 L 141.73010380622839 29.231833910034602 Q 201.96539792387543 31.003460207612456 241.82698961937717 70.86505190311419 Q 281.6885813148789 110.72664359861592 283.46020761245677 170.96193771626298 L 283.46020761245677 256 L 283.46020761245677 256 Q 283.46020761245677 268.401384083045 275.4878892733564 276.37370242214536 Q 267.51557093425606 284.34602076124565 255.11418685121106 284.34602076124565 Q 242.71280276816609 284.34602076124565 234.74048442906573 276.37370242214536 Q 226.7681660899654 268.401384083045 226.7681660899654 256 L 226.7681660899654 170.96193771626298 L 226.7681660899654 170.96193771626298 L 214.3667820069204 170.96193771626298 L 214.3667820069204 170.96193771626298 Q 159.44636678200692 169.19031141868513 123.1280276816609 132.8719723183391 Q 86.80968858131487 96.55363321799308 85.03806228373702 42.51903114186851 L 85.03806228373702 42.51903114186851 Z M 425.1903114186851 42.51903114186851 Q 424.3044982698962 93.01038062283737 392.4152249134948 127.55709342560553 L 392.4152249134948 127.55709342560553 L 392.4152249134948 127.55709342560553 Q 360.52595155709344 162.98961937716263 311.8062283737024 170.07612456747404 Q 310.03460207612454 108.95501730103807 274.6020761245675 64.66435986159169 Q 313.57785467128025 30.11764705882353 368.4982698961938 29.231833910034602 L 412.78892733564015 29.231833910034602 L 412.78892733564015 29.231833910034602 Q 424.3044982698962 30.11764705882353 425.1903114186851 42.51903114186851 L 425.1903114186851 42.51903114186851 Z M 503.1418685121107 326.8650519031142 Q 512 339.2664359861592 510.2283737024221 353.439446366782 L 510.2283737024221 353.439446366782 L 510.2283737024221 353.439446366782 Q 507.57093425605535 367.61245674740485 496.0553633217993 376.47058823529414 L 383.55709342560556 459.7370242214533 L 383.55709342560556 459.7370242214533 Q 351.66782006920414 482.7681660899654 311.8062283737024 482.7681660899654 L 170.07612456747404 482.7681660899654 L 28.346020761245676 482.7681660899654 Q 15.944636678200691 482.7681660899654 7.972318339100346 474.79584775086505 Q 0 466.8235294117647 0 454.42214532871975 L 0 397.7301038062284 L 0 397.7301038062284 Q 0 385.3287197231834 7.972318339100346 377.35640138408303 Q 15.944636678200691 369.3840830449827 28.346020761245676 369.3840830449827 L 61.121107266435985 369.3840830449827 L 61.121107266435985 369.3840830449827 L 100.98269896193771 337.4948096885813 L 100.98269896193771 337.4948096885813 Q 131.98615916955018 312.69204152249137 171.8477508650519 312.69204152249137 L 240.94117647058823 312.69204152249137 L 311.8062283737024 312.69204152249137 Q 324.2076124567474 312.69204152249137 332.1799307958477 320.6643598615917 Q 340.1522491349481 328.636678200692 340.1522491349481 341.038062283737 Q 340.1522491349481 353.439446366782 332.1799307958477 361.4117647058824 Q 324.2076124567474 369.3840830449827 311.8062283737024 369.3840830449827 L 255.11418685121106 369.3840830449827 L 240.94117647058823 369.3840830449827 Q 227.65397923875432 370.2698961937716 226.7681660899654 383.55709342560556 Q 227.65397923875432 396.84429065743944 240.94117647058823 397.7301038062284 L 348.12456747404843 397.7301038062284 L 348.12456747404843 397.7301038062284 L 453.5363321799308 319.7785467128028 L 453.5363321799308 319.7785467128028 Q 465.93771626297575 310.9204152249135 480.11072664359864 312.69204152249137 Q 494.28373702422147 315.34948096885813 503.1418685121107 326.8650519031142 L 503.1418685121107 326.8650519031142 Z M 171.8477508650519 369.3840830449827 L 171.8477508650519 369.3840830449827 L 171.8477508650519 369.3840830449827 L 171.8477508650519 369.3840830449827 L 170.96193771626298 369.3840830449827 L 170.96193771626298 369.3840830449827 Q 170.96193771626298 369.3840830449827 170.96193771626298 369.3840830449827 Q 170.96193771626298 369.3840830449827 171.8477508650519 369.3840830449827 L 171.8477508650519 369.3840830449827 Z" />
</svg>