<svg xmlns="http://www.w3.org/2000/svg" viewBox="0 0 644 512">
    <path d="M 210 352 Q 298 350 357 300 L 357 300 Q 416 251 418 176 Q 416 101 357 52 Q 298 2 210 0 Q 122 2 63 52 Q 4 101 2 176 Q 3 235 42 279 Q 36 294 27 304 Q 20 313 14 318 Q 11 321 10 322 Q 9 323 9 323 L 8 323 L 8 323 L 8 323 Q 0 330 3 341 Q 7 351 18 352 Q 52 351 80 340 Q 94 334 105 328 Q 152 351 210 352 L 210 352 Z M 450 176 Q 447 262 386 318 L 386 318 Q 324 374 234 383 Q 253 440 307 475 Q 361 511 434 512 Q 492 511 539 488 Q 550 494 564 500 Q 592 511 626 512 Q 637 511 641 501 Q 644 490 635 483 L 635 483 L 635 483 L 635 483 Q 635 483 635 482 Q 634 482 634 482 Q 633 481 630 478 Q 624 473 617 464 Q 608 453 602 439 Q 641 395 642 336 Q 640 265 586 216 Q 532 167 449 160 Q 450 168 450 176 L 450 176 Z M 182 77 L 231 77 Q 253 78 268 93 Q 283 108 283 130 Q 282 160 257 176 L 230 191 Q 228 209 210 211 Q 192 209 190 191 L 190 180 Q 190 168 200 162 L 237 141 Q 243 137 243 130 Q 242 118 231 117 L 182 117 Q 178 118 176 122 L 176 123 Q 168 139 150 135 Q 133 127 138 110 L 138 109 Q 150 79 182 77 L 182 77 Z M 210 237 Q 226 237 234 250 Q 242 264 234 278 Q 226 291 210 291 Q 194 291 186 278 Q 178 264 186 250 Q 194 237 210 237 L 210 237 Z M 568 326 L 488 406 Q 474 418 460 406 L 420 366 Q 408 352 420 338 Q 434 326 448 338 L 474 364 L 540 298 Q 554 286 568 298 Q 580 312 568 326 L 568 326 Z"/>
</svg>
