<svg xmlns="http://www.w3.org/2000/svg" viewBox="0 0 508 508">
    <path d="M 443 222 L 508 222 Q 496 133 435 73 Q 375 12 286 0 L 286 65 Q 347 76 390 118 Q 432 161 443 222 L 443 222 Z M 508 286 L 443 286 Q 432 347 390 390 Q 347 432 286 443 L 286 508 Q 375 496 435 435 Q 496 375 508 286 L 508 286 Z M 0 286 Q 12 375 73 435 L 73 435 Q 133 496 222 508 L 222 443 Q 161 432 118 390 Q 76 347 65 286 L 0 286 L 0 286 Z M 0 222 L 65 222 Q 76 161 118 118 Q 161 76 222 65 L 222 0 Q 133 12 73 73 Q 12 133 0 222 L 0 222 Z M 206 158 Q 206 144 197 135 L 197 135 Q 188 126 174 126 Q 160 126 151 135 Q 142 144 142 158 L 142 350 Q 142 364 151 373 Q 160 382 174 382 Q 188 382 197 373 Q 206 364 206 350 L 206 286 L 302 286 L 302 350 Q 302 364 311 373 Q 320 382 334 382 Q 348 382 357 373 Q 366 364 366 350 L 366 158 Q 366 144 357 135 Q 348 126 334 126 Q 320 126 311 135 Q 302 144 302 158 L 302 222 L 206 222 L 206 158 L 206 158 Z"/>
</svg>
