<svg xmlns="http://www.w3.org/2000/svg" viewBox="0 0 512 512">
  <path d="M 0 256 Q 1 186 34 128 L 34 128 L 34 128 Q 68 70 128 34 Q 189 0 256 0 Q 323 0 384 34 Q 444 70 478 128 Q 511 186 512 256 Q 511 326 478 384 Q 444 442 384 478 Q 323 512 256 512 Q 189 512 128 478 Q 68 442 34 384 Q 1 326 0 256 L 0 256 Z M 256 160 Q 282 160 304 173 L 304 173 L 304 173 Q 326 186 339 208 Q 352 231 352 256 Q 352 281 339 304 Q 326 326 304 339 Q 282 352 256 352 Q 230 352 208 339 Q 186 326 173 304 Q 160 281 160 256 Q 160 231 173 208 Q 186 186 208 173 Q 230 160 256 160 L 256 160 Z M 256 384 Q 291 384 320 367 L 320 367 L 320 367 Q 349 350 367 320 Q 384 290 384 256 Q 384 222 367 192 Q 349 162 320 145 Q 291 128 256 128 Q 221 128 192 145 Q 163 162 145 192 Q 128 222 128 256 Q 128 290 145 320 Q 163 350 192 367 Q 221 384 256 384 L 256 384 Z M 256 288 Q 270 288 279 279 L 279 279 L 279 279 Q 288 270 288 256 Q 288 242 279 233 Q 270 224 256 224 Q 242 224 233 233 Q 224 242 224 256 Q 224 270 233 279 Q 242 288 256 288 L 256 288 Z" />
</svg>