<svg xmlns="http://www.w3.org/2000/svg" viewBox="0 0 448 448">
    <path d="M 0 64 Q 1 37 19 19 L 19 19 Q 37 1 64 0 L 384 0 Q 411 1 429 19 Q 447 37 448 64 L 448 384 Q 447 411 429 429 Q 411 447 384 448 L 64 448 Q 37 447 19 429 Q 1 411 0 384 L 0 64 L 0 64 Z M 149 205 L 100 156 Q 88 144 88 128 Q 88 112 100 100 Q 112 88 128 88 Q 144 88 156 100 L 205 149 Q 208 139 208 128 Q 207 94 185 71 Q 162 49 128 48 Q 94 49 71 71 Q 49 94 48 128 Q 49 162 71 185 Q 94 207 128 208 Q 139 208 149 205 L 149 205 Z M 184 251 Q 146 273 144 320 Q 145 354 167 377 Q 190 399 224 400 Q 258 399 281 377 Q 303 354 304 320 Q 302 273 264 251 L 264 320 Q 264 337 252 348 Q 241 360 224 360 Q 207 360 196 348 Q 184 337 184 320 L 184 251 L 184 251 Z M 299 205 Q 309 208 320 208 Q 354 207 377 185 Q 399 162 400 128 Q 399 94 377 71 Q 354 49 320 48 Q 286 49 263 71 Q 241 94 240 128 Q 240 139 243 149 L 292 100 Q 304 88 320 88 Q 336 88 348 100 Q 360 112 360 128 Q 360 144 348 156 L 299 205 L 299 205 Z M 139 117 Q 128 107 117 117 Q 107 128 117 139 L 208 231 L 208 320 Q 209 335 224 336 Q 239 335 240 320 L 240 231 L 331 139 Q 341 128 331 117 Q 320 107 309 117 L 224 201 L 139 117 L 139 117 Z"/>
</svg>
