<svg xmlns="http://www.w3.org/2000/svg" viewBox="0 0 512 512">
  <path d="M 75.969086 53.415764 Q 43.523956 54.20711 22.15765 75.57342 L 22.15765 75.57342 L 22.15765 75.57342 Q 0.79134464 96.93972 0 129.38486 L 0 382.61514 L 0 382.61514 Q 0.79134464 415.06027 22.15765 436.42657 Q 43.523956 457.79288 75.969086 458.58423 L 303.87634 458.58423 L 329.19937 458.58423 Q 340.2782 458.58423 347.4003 451.46213 Q 354.5224 444.34003 354.5224 433.2612 Q 354.5224 422.18237 347.4003 415.06027 Q 340.2782 407.93817 329.19937 407.93817 L 329.19937 357.2921 L 329.19937 357.2921 Q 340.2782 357.2921 347.4003 350.17 Q 354.5224 343.0479 354.5224 331.9691 L 354.5224 237.00772 L 354.5224 237.00772 L 441.5703 237.00772 L 441.5703 237.00772 L 410.7079 267.87018 L 410.7079 267.87018 Q 399.62906 281.32303 410.7079 294.77588 Q 424.16074 305.8547 437.6136 294.77588 L 500.92117 231.46832 L 500.92117 231.46832 Q 512 218.01546 500.92117 204.56259 L 437.6136 141.25502 L 437.6136 141.25502 Q 424.16074 130.1762 410.7079 141.25502 Q 399.62906 154.70789 410.7079 168.16074 L 441.5703 199.02318 L 441.5703 199.02318 L 354.5224 199.02318 L 354.5224 199.02318 L 354.5224 78.73879 L 354.5224 78.73879 Q 354.5224 67.659966 347.4003 60.53787 Q 340.2782 53.415764 329.19937 53.415764 L 303.87634 53.415764 L 75.969086 53.415764 Z M 354.5224 199.02318 L 354.5224 237.00772 L 354.5224 199.02318 L 354.5224 237.00772 L 196.25348 237.00772 L 196.25348 237.00772 Q 178.84389 235.42503 177.2612 218.01546 Q 178.84389 200.60588 196.25348 199.02318 L 354.5224 199.02318 L 354.5224 199.02318 Z M 75.969086 357.2921 L 278.5533 357.2921 L 75.969086 357.2921 L 278.5533 357.2921 L 278.5533 407.93817 L 278.5533 407.93817 L 75.969086 407.93817 L 75.969086 407.93817 Q 64.89027 407.93817 57.76816 400.81607 Q 50.646057 393.69397 50.646057 382.61514 Q 50.646057 371.53632 57.76816 364.4142 Q 64.89027 357.2921 75.969086 357.2921 L 75.969086 357.2921 Z" />
</svg>