<svg xmlns="http://www.w3.org/2000/svg" viewBox="0 0 512 512">
  <path d="M 36.01223241590214 59.49847094801223 Q 21.137614678899084 50.103975535168196 9.394495412844037 62.62996941896024 Q 0 77.5045871559633 12.525993883792049 89.24770642201835 L 475.98776758409787 452.50152905198775 L 475.98776758409787 452.50152905198775 Q 490.86238532110093 461.8960244648318 502.60550458715596 449.37003058103977 Q 512 434.4954128440367 499.47400611620793 422.7522935779817 L 406.3119266055046 349.9449541284404 L 406.3119266055046 349.9449541284404 L 406.3119266055046 180.8440366972477 L 406.3119266055046 180.8440366972477 L 306.1039755351682 180.8440366972477 L 306.1039755351682 180.8440366972477 Q 295.14373088685016 180.8440366972477 288.0978593272171 173.7981651376147 Q 281.0519877675841 166.75229357798165 281.0519877675841 155.79204892966362 L 281.0519877675841 55.584097859327215 L 281.0519877675841 55.584097859327215 L 155.79204892966362 55.584097859327215 L 155.79204892966362 55.584097859327215 Q 134.65443425076452 56.36697247706422 120.56269113149847 70.45871559633028 Q 106.47094801223241 84.55045871559633 105.68807339449542 105.68807339449542 L 105.68807339449542 114.29969418960245 L 105.68807339449542 114.29969418960245 L 36.01223241590214 59.49847094801223 L 36.01223241590214 59.49847094801223 Z M 395.35168195718654 437.6269113149847 L 105.68807339449542 209.81039755351682 L 395.35168195718654 437.6269113149847 L 105.68807339449542 209.81039755351682 L 105.68807339449542 406.3119266055046 L 105.68807339449542 406.3119266055046 Q 106.47094801223241 427.44954128440367 120.56269113149847 441.54128440366975 Q 134.65443425076452 455.6330275229358 155.79204892966362 456.41590214067276 L 356.2079510703364 456.41590214067276 L 356.2079510703364 456.41590214067276 Q 380.4770642201835 455.6330275229358 395.35168195718654 437.6269113149847 L 395.35168195718654 437.6269113149847 Z M 406.3119266055046 155.79204892966362 L 306.1039755351682 55.584097859327215 L 406.3119266055046 155.79204892966362 L 306.1039755351682 55.584097859327215 L 306.1039755351682 155.79204892966362 L 306.1039755351682 155.79204892966362 L 406.3119266055046 155.79204892966362 L 406.3119266055046 155.79204892966362 Z" />
</svg>