<svg xmlns="http://www.w3.org/2000/svg" viewBox="0 0 512 512">
  <path d="M 107.87959866220736 135.27759197324414 L 233.7391304347826 101.03010033444816 L 107.87959866220736 135.27759197324414 L 233.7391304347826 101.03010033444816 Q 251.7190635451505 97.60535117056857 263.7056856187291 111.30434782608695 L 295.38461538461536 155.82608695652175 L 295.38461538461536 155.82608695652175 L 82.19397993311037 213.19063545150502 L 82.19397993311037 213.19063545150502 L 88.18729096989966 158.39464882943145 L 88.18729096989966 158.39464882943145 Q 90.75585284280936 140.41471571906354 107.87959866220736 135.27759197324414 L 107.87959866220736 135.27759197324414 Z M 33.391304347826086 152.40133779264215 L 24.82943143812709 232.0267558528428 L 33.391304347826086 152.40133779264215 L 24.82943143812709 232.0267558528428 Q 11.130434782608695 242.30100334448161 5.993311036789297 257.7123745819398 Q 0 273.123745819398 4.280936454849498 290.24749163879596 L 32.53511705685619 396.41471571906357 L 32.53511705685619 396.41471571906357 L 43.66555183946488 435.7993311036789 L 43.66555183946488 435.7993311036789 Q 47.09030100334448 446.9297658862876 56.508361204013376 452.9230769230769 Q 65.92642140468227 458.0602006688963 77.05685618729098 455.4916387959866 L 103.59866220735786 448.6421404682274 L 103.59866220735786 448.6421404682274 Q 114.72909698996655 445.2173913043478 119.86622073578596 435.7993311036789 Q 125.85953177257525 426.38127090301003 122.43478260869566 414.39464882943145 L 112.16053511705685 375.01003344481603 L 112.16053511705685 375.01003344481603 L 350.18060200668896 310.7959866220736 L 350.18060200668896 310.7959866220736 L 361.31103678929765 351.03678929765886 L 361.31103678929765 351.03678929765886 Q 363.87959866220734 362.16722408026754 374.15384615384613 367.30434782608694 Q 383.571906354515 373.29765886287623 394.70234113712377 369.87290969899664 L 421.24414715719064 363.02341137123744 L 421.24414715719064 363.02341137123744 Q 432.3745819397993 359.59866220735785 437.5117056856187 350.18060200668896 Q 443.505016722408 340.76254180602007 440.0802675585284 329.6321070234114 L 429.80602006688963 290.24749163879596 L 429.80602006688963 290.24749163879596 L 401.55183946488296 184.08026755852842 L 401.55183946488296 184.08026755852842 Q 396.41471571906357 166.95652173913044 383.571906354515 156.68227424749165 Q 371.58528428093643 145.55183946488293 354.46153846153845 143.83946488294313 L 307.371237458194 78.76923076923077 L 307.371237458194 78.76923076923077 Q 291.95986622073576 58.220735785953174 268.8428093645485 50.51505016722408 Q 244.8695652173913 41.953177257525084 220.0401337792642 47.94648829431438 L 94.18060200668896 82.19397993311037 L 94.18060200668896 82.19397993311037 Q 68.49498327759197 89.04347826086956 53.08361204013378 107.87959866220736 Q 36.81605351170568 126.71571906354515 33.391304347826086 152.40133779264215 L 33.391304347826086 152.40133779264215 Z M 83.90635451505017 268.8428093645485 Q 99.31772575250837 265.4180602006689 110.44816053511705 275.6923076923077 Q 121.57859531772576 287.67892976588627 118.15384615384616 302.2341137123746 Q 113.01672240802675 317.6454849498328 98.46153846153847 321.9264214046823 Q 83.05016722408027 326.2073578595318 71.06354515050167 315.0769230769231 Q 60.78929765886288 303.9464882943144 64.21404682274247 288.53511705685617 Q 68.49498327759197 273.123745819398 83.90635451505017 268.8428093645485 L 83.90635451505017 268.8428093645485 Z M 303.0903010033445 238.87625418060202 Q 298.809364548495 223.4648829431438 309.0836120401338 212.33444816053512 Q 321.0702341137124 201.20401337792643 336.4816053511706 204.62876254180603 Q 351.03678929765886 209.76588628762542 355.31772575250835 224.3210702341137 Q 359.59866220735785 239.73244147157192 348.46822742474916 251.7190635451505 Q 337.33779264214047 261.9933110367893 321.9264214046823 258.5685618729097 Q 307.371237458194 254.2876254180602 303.0903010033445 238.87625418060202 L 303.0903010033445 238.87625418060202 Z M 484.60200668896323 470.04682274247494 Q 497.4448160535117 469.190635451505 504.2943143812709 460.628762541806 L 504.2943143812709 460.628762541806 L 504.2943143812709 460.628762541806 Q 512 452.066889632107 506.8628762541806 440.0802675585284 Q 494.0200668896321 416.10702341137124 471.75919732441474 402.40802675585286 Q 449.4983277591973 387.8528428093646 421.24414715719064 387.8528428093646 Q 392.98996655518397 387.8528428093646 370.72909698996654 402.40802675585286 Q 348.46822742474916 416.10702341137124 335.6254180602007 440.0802675585284 Q 330.4882943143813 452.066889632107 337.33779264214047 460.628762541806 Q 345.04347826086956 469.190635451505 357.88628762541805 470.04682274247494 L 484.60200668896323 470.04682274247494 L 484.60200668896323 470.04682274247494 Z" />
</svg>