<svg xmlns="http://www.w3.org/2000/svg" viewBox="0 0 512 512">
  <path d="M 409.77777777777777 63.111111111111114 L 408 61.333333333333336 L 409.77777777777777 63.111111111111114 L 408 61.333333333333336 Q 400.8888888888889 55.111111111111114 392 57.77777777777778 Q 383.1111111111111 59.55555555555556 380.44444444444446 69.33333333333333 L 379.55555555555554 71.11111111111111 L 379.55555555555554 71.11111111111111 Q 375.1111111111111 87.11111111111111 374.22222222222223 103.11111111111111 Q 407.1111111111111 131.55555555555554 422.22222222222223 173.33333333333334 Q 410.6666666666667 170.66666666666666 400 170.66666666666666 Q 399.1111111111111 170.66666666666666 398.22222222222223 170.66666666666666 Q 385.77777777777777 141.33333333333334 361.77777777777777 120 Q 337.77777777777777 99.55555555555556 305.77777777777777 91.55555555555556 L 303.1111111111111 90.66666666666667 L 303.1111111111111 90.66666666666667 Q 294.22222222222223 88 286.22222222222223 92.44444444444444 Q 271.1111111111111 103.11111111111111 276.44444444444446 120 Q 297.77777777777777 174.22222222222223 348.44444444444446 200 Q 344 208.88888888888889 342.22222222222223 219.55555555555554 L 248.88888888888889 166.22222222222223 L 248.88888888888889 166.22222222222223 Q 206.22222222222223 142.22222222222223 158.22222222222223 142.22222222222223 Q 112.88888888888889 144 88 181.33333333333334 Q 73.77777777777777 164.44444444444446 49.77777777777778 163.55555555555554 Q 28.444444444444443 164.44444444444446 14.222222222222221 177.77777777777777 Q 0.8888888888888888 192 0 213.33333333333334 Q 0.8888888888888888 234.66666666666666 14.222222222222221 248.88888888888889 Q 28.444444444444443 262.22222222222223 49.77777777777778 263.1111111111111 Q 64.88888888888889 263.1111111111111 77.33333333333333 255.11111111111111 Q 83.55555555555556 278.22222222222223 102.22222222222223 296 L 228.44444444444446 411.55555555555554 L 228.44444444444446 411.55555555555554 Q 245.33333333333334 426.6666666666667 266.6666666666667 426.6666666666667 L 369.77777777777777 426.6666666666667 L 369.77777777777777 426.6666666666667 Q 382.22222222222223 426.6666666666667 390.22222222222223 418.6666666666667 Q 398.22222222222223 410.6666666666667 398.22222222222223 398.22222222222223 Q 398.22222222222223 385.77777777777777 390.22222222222223 377.77777777777777 Q 382.22222222222223 369.77777777777777 369.77777777777777 369.77777777777777 L 312.8888888888889 369.77777777777777 L 284.44444444444446 369.77777777777777 L 284.44444444444446 331.55555555555554 L 284.44444444444446 331.55555555555554 Q 284.44444444444446 302.22222222222223 267.55555555555554 280 Q 250.66666666666666 257.77777777777777 222.22222222222223 248.88888888888889 L 195.55555555555554 240.88888888888889 L 195.55555555555554 240.88888888888889 Q 183.11111111111111 236.44444444444446 185.77777777777777 224 Q 190.22222222222223 211.55555555555554 202.66666666666666 214.22222222222223 L 230.22222222222223 221.33333333333334 L 230.22222222222223 221.33333333333334 Q 267.55555555555554 232.88888888888889 289.77777777777777 262.22222222222223 Q 312 292.44444444444446 312.8888888888889 331.55555555555554 L 312.8888888888889 344.8888888888889 L 312.8888888888889 344.8888888888889 L 362.6666666666667 316.44444444444446 L 362.6666666666667 316.44444444444446 L 368 312.8888888888889 L 368 312.8888888888889 L 458.6666666666667 312.8888888888889 L 458.6666666666667 312.8888888888889 Q 480.8888888888889 312 496 296.8888888888889 Q 511.1111111111111 281.77777777777777 512 259.55555555555554 Q 511.1111111111111 233.77777777777777 492.44444444444446 217.77777777777777 L 461.3333333333333 192.88888888888889 L 461.3333333333333 192.88888888888889 Q 455.1111111111111 187.55555555555554 448.8888888888889 184 Q 454.22222222222223 150.22222222222223 443.55555555555554 119.11111111111111 Q 433.77777777777777 88 409.77777777777777 63.111111111111114 L 409.77777777777777 63.111111111111114 Z M 126.22222222222223 402.6666666666667 Q 116.44444444444444 409.77777777777777 114.66666666666667 421.3333333333333 L 114.66666666666667 421.3333333333333 L 114.66666666666667 421.3333333333333 Q 112 432 118.22222222222223 442.6666666666667 Q 125.33333333333333 452.44444444444446 136.88888888888889 454.22222222222223 Q 147.55555555555554 456.8888888888889 158.22222222222223 450.6666666666667 L 199.11111111111111 423.1111111111111 L 199.11111111111111 423.1111111111111 L 155.55555555555554 383.1111111111111 L 155.55555555555554 383.1111111111111 L 126.22222222222223 402.6666666666667 L 126.22222222222223 402.6666666666667 Z M 426.6666666666667 241.77777777777777 Q 427.55555555555554 228.44444444444446 440.8888888888889 227.55555555555554 Q 454.22222222222223 228.44444444444446 455.1111111111111 241.77777777777777 Q 454.22222222222223 255.11111111111111 440.8888888888889 256 Q 427.55555555555554 255.11111111111111 426.6666666666667 241.77777777777777 L 426.6666666666667 241.77777777777777 Z" />
</svg>