<svg xmlns="http://www.w3.org/2000/svg" viewBox="0 0 512 512">
  <path d="M 84.57143 153.14285 L 225.14285 12.571428 L 84.57143 153.14285 L 225.14285 12.571428 Q 237.71428 0 256 0 Q 274.2857 0 286.85715 12.571428 L 427.42856 153.14285 L 427.42856 153.14285 Q 438.85715 164.57143 438.85715 180.57143 Q 438.85715 196.57143 427.42856 208 Q 416 219.42857 400 219.42857 L 329.14285 219.42857 L 329.14285 219.42857 L 329.14285 365.7143 L 329.14285 365.7143 Q 329.14285 381.7143 318.85715 392 Q 308.57144 402.2857 292.57144 402.2857 L 219.42857 402.2857 L 219.42857 402.2857 Q 203.42857 402.2857 193.14285 392 Q 182.85715 381.7143 182.85715 365.7143 L 182.85715 219.42857 L 182.85715 219.42857 L 112 219.42857 L 112 219.42857 Q 96 219.42857 84.57143 208 Q 73.14286 196.57143 73.14286 180.57143 Q 73.14286 164.57143 84.57143 153.14285 L 84.57143 153.14285 Z M 36.57143 438.85715 Q 52.57143 438.85715 62.857143 449.14285 L 62.857143 449.14285 L 62.857143 449.14285 Q 73.14286 459.42856 73.14286 475.42856 Q 73.14286 491.42856 62.857143 501.7143 Q 52.57143 512 36.57143 512 Q 20.571428 512 10.285714 501.7143 Q 0 491.42856 0 475.42856 Q 0 459.42856 10.285714 449.14285 Q 20.571428 438.85715 36.57143 438.85715 L 36.57143 438.85715 Z M 146.28572 438.85715 Q 162.28572 438.85715 172.57143 449.14285 L 172.57143 449.14285 L 172.57143 449.14285 Q 182.85715 459.42856 182.85715 475.42856 Q 182.85715 491.42856 172.57143 501.7143 Q 162.28572 512 146.28572 512 Q 130.28572 512 120 501.7143 Q 109.71429 491.42856 109.71429 475.42856 Q 109.71429 459.42856 120 449.14285 Q 130.28572 438.85715 146.28572 438.85715 L 146.28572 438.85715 Z M 219.42857 475.42856 Q 219.42857 459.42856 229.71428 449.14285 L 229.71428 449.14285 L 229.71428 449.14285 Q 240 438.85715 256 438.85715 Q 272 438.85715 282.2857 449.14285 Q 292.57144 459.42856 292.57144 475.42856 Q 292.57144 491.42856 282.2857 501.7143 Q 272 512 256 512 Q 240 512 229.71428 501.7143 Q 219.42857 491.42856 219.42857 475.42856 L 219.42857 475.42856 Z M 365.7143 438.85715 Q 381.7143 438.85715 392 449.14285 L 392 449.14285 L 392 449.14285 Q 402.2857 459.42856 402.2857 475.42856 Q 402.2857 491.42856 392 501.7143 Q 381.7143 512 365.7143 512 Q 349.7143 512 339.42856 501.7143 Q 329.14285 491.42856 329.14285 475.42856 Q 329.14285 459.42856 339.42856 449.14285 Q 349.7143 438.85715 365.7143 438.85715 L 365.7143 438.85715 Z M 438.85715 475.42856 Q 438.85715 459.42856 449.14285 449.14285 L 449.14285 449.14285 L 449.14285 449.14285 Q 459.42856 438.85715 475.42856 438.85715 Q 491.42856 438.85715 501.7143 449.14285 Q 512 459.42856 512 475.42856 Q 512 491.42856 501.7143 501.7143 Q 491.42856 512 475.42856 512 Q 459.42856 512 449.14285 501.7143 Q 438.85715 491.42856 438.85715 475.42856 L 438.85715 475.42856 Z" />
</svg>