<svg xmlns="http://www.w3.org/2000/svg" viewBox="0 0 512 512">
  <path d="M 34.787457 35.679443 Q 43.707317 27.651567 55.303135 27.651567 L 55.303135 27.651567 L 55.303135 27.651567 Q 66.89896 27.651567 75.81882 35.679443 L 148.06969 108.822296 L 148.06969 108.822296 L 195.34494 61.54704 L 195.34494 61.54704 Q 214.96864 42.81533 240.83624 42.81533 Q 266.70383 42.81533 286.3275 61.54704 L 421.01743 196.23694 L 421.01743 196.23694 Q 439.7491 215.86063 439.7491 241.72823 Q 439.7491 267.59583 421.01743 287.2195 L 251.54007 456.69687 L 251.54007 456.69687 Q 224.78049 482.56445 190.88503 482.56445 Q 156.98955 482.56445 130.22997 456.69687 L 25.867596 352.3345 L 25.867596 352.3345 Q 0 325.57492 0 291.67944 Q 0 257.78397 25.867596 231.02438 L 107.93031 148.96167 L 107.93031 148.96167 L 34.787457 76.7108 L 34.787457 76.7108 Q 26.759583 67.79094 26.759583 56.19512 Q 26.759583 44.599304 34.787457 35.679443 L 34.787457 35.679443 Z M 191.77701 233.70035 L 148.06969 189.10104 L 191.77701 233.70035 L 148.06969 189.10104 L 66.006966 271.16376 L 66.006966 271.16376 Q 60.655052 277.40765 58.87108 284.54355 L 343.41464 284.54355 L 343.41464 284.54355 L 380.87805 247.08014 L 380.87805 247.08014 Q 385.33798 241.72823 380.87805 236.37631 L 246.18816 101.68641 L 246.18816 101.68641 Q 240.83624 97.22648 235.48431 101.68641 L 188.20906 148.96167 L 188.20906 148.96167 L 232.80836 192.66899 L 232.80836 192.66899 Q 240.83624 201.58885 240.83624 213.18466 Q 240.83624 224.78049 232.80836 233.70035 Q 223.8885 241.72823 212.29268 241.72823 Q 200.69687 241.72823 191.77701 233.70035 L 191.77701 233.70035 Z M 454.9129 484.34842 Q 430.82925 483.45645 414.77353 467.4007 L 414.77353 467.4007 L 414.77353 467.4007 Q 398.71777 451.34494 397.82578 427.26132 Q 398.71777 408.5296 414.77353 379.98605 Q 429.9373 351.4425 443.31708 330.03485 Q 447.777 323.79095 454.9129 323.79095 Q 462.04877 323.79095 466.5087 330.03485 Q 479.8885 351.4425 495.05228 379.98605 Q 511.108 408.5296 512 427.26132 Q 511.108 451.34494 495.05228 467.4007 Q 478.99652 483.45645 454.9129 484.34842 L 454.9129 484.34842 Z" />
</svg>