<svg xmlns="http://www.w3.org/2000/svg" viewBox="0 0 640 512">
    <path d="M 208 64 Q 207 49 192 48 Q 177 49 176 64 Q 177 79 192 80 Q 207 79 208 64 L 208 64 Z M 256 64 Q 256 89 240 106 L 256 138 Q 283 128 320 128 Q 357 128 384 138 L 400 106 Q 385 89 384 64 Q 385 37 403 19 Q 421 1 448 0 Q 475 1 493 19 Q 511 37 512 64 Q 511 91 493 109 Q 475 127 448 128 Q 445 128 443 128 Q 443 128 443 128 L 428 158 Q 459 179 479 204 Q 488 215 496 225 Q 497 227 498 228 L 500 230 Q 509 242 517 251 Q 532 266 536 264 Q 539 264 543 261 Q 548 256 556 243 L 556 242 Q 563 230 576 217 Q 590 201 616 200 Q 638 202 640 224 Q 638 246 616 248 Q 613 248 609 251 Q 604 256 596 269 L 596 270 Q 589 282 576 295 Q 562 311 536 312 Q 509 310 492 293 Q 487 299 481 306 Q 482 307 482 309 Q 484 314 485 319 Q 486 320 486 322 Q 487 325 488 327 Q 488 328 489 330 Q 492 343 496 353 Q 502 367 507 372 Q 510 376 520 376 Q 531 376 554 363 Q 565 356 581 350 Q 596 344 616 344 Q 638 346 640 368 Q 638 390 616 392 Q 597 393 576 405 Q 575 406 574 406 Q 574 406 573 407 Q 563 413 550 418 Q 536 424 520 424 Q 492 424 475 407 Q 458 390 452 371 Q 446 357 442 342 Q 418 361 383 374 Q 389 390 398 410 Q 409 434 424 450 Q 438 465 448 464 Q 470 466 472 488 Q 470 510 448 512 Q 410 509 389 483 Q 367 459 354 430 Q 342 404 336 383 Q 328 384 320 384 Q 312 384 304 383 Q 298 404 286 430 Q 273 459 252 483 Q 230 509 192 512 Q 170 510 168 488 Q 170 466 192 464 Q 202 465 217 450 Q 231 434 242 410 Q 251 390 257 374 Q 222 361 198 342 Q 198 343 198 343 Q 193 357 188 371 Q 182 390 166 407 Q 148 424 120 424 Q 87 421 67 407 Q 67 407 67 407 L 67 407 Q 65 406 64 405 Q 43 393 24 392 Q 2 390 0 368 Q 2 346 24 344 Q 44 344 60 350 Q 75 356 86 363 Q 109 376 120 376 Q 130 376 133 372 Q 138 367 144 353 Q 148 342 152 327 Q 153 325 154 323 Q 154 321 155 319 Q 156 314 158 309 Q 158 307 159 306 Q 153 299 148 293 Q 131 310 104 312 Q 78 311 64 295 Q 51 282 44 270 L 44 269 Q 36 256 31 251 Q 27 248 24 248 Q 2 246 0 224 Q 2 202 24 200 Q 50 201 64 217 Q 77 230 84 242 L 84 243 Q 92 256 97 261 Q 101 264 104 264 Q 108 266 123 251 Q 131 242 140 230 L 142 228 Q 143 227 144 225 Q 152 215 161 204 Q 181 179 212 158 L 197 128 Q 195 128 192 128 Q 165 127 147 109 Q 129 91 128 64 Q 129 37 147 19 Q 165 1 192 0 Q 219 1 237 19 Q 255 37 256 64 L 256 64 Z M 464 64 Q 463 49 448 48 Q 433 49 432 64 Q 433 79 448 80 Q 463 79 464 64 L 464 64 Z"/>
</svg>
