<svg xmlns="http://www.w3.org/2000/svg" viewBox="0 0 512 512">
  <path d="M 119.2 57.6 Q 127.2 64.8 128 75.2 L 128 75.2 L 128 75.2 Q 128.8 84.8 121.6 93.6 L 51.2 176 L 51.2 176 L 51.2 225.6 L 51.2 225.6 L 137.6 208 L 137.6 208 Q 152 172 183.2 150.4 Q 215.2 128.8 256 128 Q 296.8 128.8 328.8 150.4 Q 360 172 374.4 208 L 460.8 225.6 L 460.8 225.6 L 460.8 170.4 L 460.8 170.4 L 391.2 94.4 L 391.2 94.4 Q 384 85.6 384 76 Q 384.8 65.6 392 58.4 Q 400.8 51.2 410.4 51.2 Q 420.8 52 428.8 59.2 L 498.4 135.2 L 498.4 135.2 Q 512 150.4 512 170.4 L 512 330.4 L 512 330.4 Q 512 348 500.8 362.4 L 429.6 451.2 L 429.6 451.2 Q 422.4 459.2 412.8 460.8 Q 402.4 461.6 393.6 455.2 Q 385.6 448 384 438.4 Q 383.2 428 389.6 419.2 L 460.8 330.4 L 460.8 330.4 L 460.8 286.4 L 460.8 286.4 L 374.4 304 L 374.4 304 Q 360 340 328.8 361.6 Q 296.8 383.2 256 384 Q 215.2 383.2 183.2 361.6 Q 152 340 137.6 304 L 51.2 286.4 L 51.2 286.4 L 51.2 336 L 51.2 336 L 121.6 418.4 L 121.6 418.4 Q 128.8 427.2 128 436.8 Q 127.2 447.2 119.2 454.4 Q 110.4 461.6 100.8 460.8 Q 90.4 460 83.2 452 L 12 369.6 L 12 369.6 Q 0 355.2 0 336 L 0 176 L 0 176 Q 0 156.8 12 142.4 L 83.2 60 L 83.2 60 Q 90.4 52 100.8 51.2 Q 110.4 50.4 119.2 57.6 L 119.2 57.6 Z M 243.2 332 L 243.2 305.6 L 243.2 332 L 243.2 305.6 Q 236 304 230.4 300 L 211.2 318.4 L 211.2 318.4 Q 225.6 328.8 243.2 332 L 243.2 332 Z M 193.6 300.8 L 212 282.4 L 193.6 300.8 L 212 282.4 Q 208 276 206.4 268.8 L 180 268.8 L 180 268.8 Q 183.2 286.4 193.6 300.8 L 193.6 300.8 Z M 180 243.2 L 206.4 243.2 L 180 243.2 L 206.4 243.2 Q 208 236 212 230.4 L 193.6 211.2 L 193.6 211.2 Q 183.2 225.6 180 243.2 L 180 243.2 Z M 211.2 193.6 L 229.6 212 L 211.2 193.6 L 229.6 212 Q 236 208 243.2 206.4 L 243.2 180 L 243.2 180 Q 225.6 183.2 211.2 193.6 L 211.2 193.6 Z M 300.8 318.4 L 282.4 300 L 300.8 318.4 L 282.4 300 Q 276 304 268.8 305.6 L 268.8 332 L 268.8 332 Q 286.4 328.8 300.8 318.4 L 300.8 318.4 Z M 318.4 300.8 Q 328.8 286.4 332 268.8 L 305.6 268.8 L 305.6 268.8 Q 304 276 300 282.4 L 318.4 300.8 L 318.4 300.8 Z M 305.6 243.2 L 332 243.2 L 305.6 243.2 L 332 243.2 Q 328.8 225.6 318.4 211.2 L 300 230.4 L 300 230.4 Q 304 236 305.6 243.2 L 305.6 243.2 Z M 300.8 193.6 Q 286.4 183.2 268.8 180 L 268.8 206.4 L 268.8 206.4 Q 276 208 282.4 212 L 300.8 193.6 L 300.8 193.6 Z M 274.4 274.4 Q 281.6 267.2 281.6 256 Q 281.6 244.8 274.4 237.6 Q 267.2 230.4 256 230.4 L 256 230.4 L 256 230.4 L 256 230.4 L 256 230.4 Q 244.8 230.4 237.6 237.6 Q 230.4 244.8 230.4 256 Q 230.4 267.2 237.6 274.4 Q 244.8 281.6 256 281.6 Q 267.2 281.6 274.4 274.4 L 274.4 274.4 L 274.4 274.4 Z" />
</svg>