<svg xmlns="http://www.w3.org/2000/svg" viewBox="0 0 512 512">
  <path d="M 0 70.4 Q 1.6 88 19.2 89.6 L 25.6 89.6 L 25.6 89.6 L 25.6 166.4 L 25.6 166.4 L 19.2 166.4 L 19.2 166.4 Q 1.6 168 0 185.6 Q 1.6 203.2 19.2 204.8 L 262.4 204.8 L 262.4 204.8 Q 280 203.2 281.6 185.6 Q 280 168 262.4 166.4 L 256 166.4 L 256 166.4 L 256 89.6 L 256 89.6 L 262.4 89.6 L 262.4 89.6 Q 280 88 281.6 70.4 Q 280 52.8 262.4 51.2 L 19.2 51.2 L 19.2 51.2 Q 1.6 52.8 0 70.4 L 0 70.4 Z M 217.6 166.4 L 192 166.4 L 217.6 166.4 L 192 166.4 L 192 89.6 L 192 89.6 L 217.6 89.6 L 217.6 89.6 L 217.6 166.4 L 217.6 166.4 Z M 128 89.6 L 153.6 89.6 L 128 89.6 L 153.6 89.6 L 153.6 166.4 L 153.6 166.4 L 128 166.4 L 128 166.4 L 128 89.6 L 128 89.6 Z M 89.6 166.4 L 64 166.4 L 89.6 166.4 L 64 166.4 L 64 89.6 L 64 89.6 L 89.6 89.6 L 89.6 89.6 L 89.6 166.4 L 89.6 166.4 Z M 332.8 128 Q 321.6 128 314.4 135.2 L 314.4 135.2 L 314.4 135.2 Q 307.2 142.4 307.2 153.6 L 307.2 230.4 L 307.2 230.4 L 38.4 230.4 L 38.4 230.4 Q 22.4 231.2 11.2 241.6 Q 0.8 252.8 0 268.8 L 0 345.6 L 0 345.6 Q 0.8 361.6 11.2 372.8 Q 22.4 383.2 38.4 384 L 51.2 384 L 51.2 384 Q 52 416.8 73.6 438.4 Q 95.2 460 128 460.8 Q 160.8 460 182.4 438.4 Q 204 416.8 204.8 384 L 307.2 384 L 307.2 384 Q 308 416.8 329.6 438.4 Q 351.2 460 384 460.8 Q 416.8 460 438.4 438.4 Q 460 416.8 460.8 384 L 473.6 384 L 473.6 384 Q 489.6 383.2 500.8 372.8 Q 511.2 361.6 512 345.6 L 512 281.6 L 512 281.6 L 512 256 L 512 256 L 512 240.8 L 512 240.8 Q 512 220 496.8 204.8 L 435.2 143.2 L 435.2 143.2 Q 420 128 399.2 128 L 332.8 128 L 332.8 128 Z M 460.8 256 L 358.4 256 L 460.8 256 L 358.4 256 L 358.4 230.4 L 358.4 230.4 L 358.4 179.2 L 358.4 179.2 L 399.2 179.2 L 399.2 179.2 L 460.8 240.8 L 460.8 240.8 L 460.8 256 L 460.8 256 Z M 89.6 384 Q 90.4 362.4 108.8 350.4 Q 128 340.8 147.2 350.4 Q 165.6 362.4 166.4 384 Q 165.6 405.6 147.2 417.6 Q 128 427.2 108.8 417.6 Q 90.4 405.6 89.6 384 L 89.6 384 Z M 384 345.6 Q 405.6 346.4 417.6 364.8 Q 427.2 384 417.6 403.2 Q 405.6 421.6 384 422.4 Q 362.4 421.6 350.4 403.2 Q 340.8 384 350.4 364.8 Q 362.4 346.4 384 345.6 L 384 345.6 Z" />
</svg>