<svg xmlns="http://www.w3.org/2000/svg" viewBox="0 0 512 512">
  <path d="M 32 64 Q 18 64 9 73 L 9 73 L 9 73 Q 0 82 0 96 Q 0 110 9 119 Q 18 128 32 128 L 129 128 L 129 128 Q 144 128 154 140 L 247 256 L 247 256 L 154 372 L 154 372 Q 144 384 129 384 L 32 384 L 32 384 Q 18 384 9 393 Q 0 402 0 416 Q 0 430 9 439 Q 18 448 32 448 L 129 448 L 129 448 Q 175 447 204 412 L 303 288 L 303 288 L 384 288 L 384 288 L 384 320 L 384 320 Q 385 341 404 350 Q 423 357 439 343 L 503 279 L 503 279 Q 512 269 512 256 Q 512 243 503 234 L 439 170 L 439 170 Q 423 155 404 163 Q 385 171 384 192 L 384 224 L 384 224 L 303 224 L 303 224 L 204 100 L 204 100 Q 175 65 129 64 L 32 64 L 32 64 Z" />
</svg>