<svg xmlns="http://www.w3.org/2000/svg" viewBox="0 0 581 512">
    <path d="M 358 9 Q 348 0 336 0 L 336 0 Q 324 0 314 9 L 106 201 Q 92 215 98 235 Q 164 254 211 302 Q 259 350 278 416 L 464 416 Q 484 416 498 402 Q 511 388 512 368 L 512 256 L 544 256 Q 565 255 574 236 Q 581 216 566 201 L 358 9 L 358 9 Z M 288 208 Q 289 193 304 192 L 368 192 Q 383 193 384 208 L 384 272 Q 383 287 368 288 L 304 288 Q 289 287 288 272 L 288 208 L 288 208 Z M 24 256 Q 2 258 0 280 Q 2 302 24 304 Q 102 306 154 358 Q 206 410 208 488 Q 210 510 232 512 Q 254 510 256 488 Q 255 423 224 371 Q 193 319 141 288 Q 89 257 24 256 L 24 256 Z M 32 512 Q 46 512 55 503 L 55 503 Q 64 494 64 480 Q 64 466 55 457 Q 46 448 32 448 Q 18 448 9 457 Q 0 466 0 480 Q 0 494 9 503 Q 18 512 32 512 L 32 512 Z M 0 376 Q 2 398 24 400 Q 61 401 86 426 Q 111 451 112 488 Q 114 510 136 512 Q 158 510 160 488 Q 159 430 120 392 Q 82 353 24 352 Q 2 354 0 376 L 0 376 Z"/>
</svg>
