<svg xmlns="http://www.w3.org/2000/svg" viewBox="0 0 577 512">
    <path d="M 401 0 Q 387 0 378 9 L 378 9 Q 369 18 369 32 Q 369 46 378 55 Q 387 64 401 64 L 430 64 L 320 152 L 212 70 Q 192 57 173 71 L 13 199 Q 3 208 1 220 Q 0 233 8 244 Q 17 254 29 256 Q 42 257 53 249 L 194 137 L 302 218 Q 322 231 341 217 L 481 105 L 481 144 Q 481 158 490 167 Q 499 176 513 176 Q 527 176 536 167 Q 545 158 545 144 L 545 32 Q 545 18 536 9 Q 527 0 513 0 L 401 0 L 401 0 Z M 193 224 Q 179 224 170 233 L 170 233 Q 161 242 161 256 L 161 448 Q 161 462 170 471 Q 179 480 193 480 Q 207 480 216 471 Q 225 462 225 448 L 225 256 Q 225 242 216 233 Q 207 224 193 224 L 193 224 Z M 65 320 Q 51 320 42 329 L 42 329 Q 33 338 33 352 L 33 448 Q 33 462 42 471 Q 51 480 65 480 Q 79 480 88 471 Q 97 462 97 448 L 97 352 Q 97 338 88 329 Q 79 320 65 320 L 65 320 Z M 433 512 Q 472 512 505 493 L 505 493 Q 538 474 558 440 Q 577 406 577 368 Q 577 330 558 296 Q 538 262 505 243 Q 472 224 433 224 Q 394 224 361 243 Q 328 262 308 296 Q 289 330 289 368 Q 289 406 308 440 Q 328 474 361 493 Q 394 512 433 512 L 433 512 Z M 409 339 L 409 339 Q 408 340 414 344 Q 422 348 436 351 Q 437 352 438 352 L 438 352 Q 453 355 469 363 Q 486 372 489 396 Q 488 423 467 433 Q 458 437 449 439 L 449 450 Q 448 464 433 466 Q 418 464 417 450 L 417 438 Q 404 435 393 432 L 393 432 L 393 432 Q 391 431 389 430 Q 389 430 388 430 Q 375 424 378 410 Q 384 396 398 399 Q 401 400 404 401 Q 404 401 404 401 Q 404 401 404 401 Q 420 407 433 408 Q 444 408 452 404 Q 455 403 456 401 Q 457 400 457 397 Q 458 395 452 391 Q 444 387 429 383 L 427 382 Q 413 379 399 372 Q 381 365 377 341 Q 378 313 399 304 Q 408 299 417 298 L 417 288 Q 418 273 433 272 Q 447 273 449 288 L 449 297 Q 458 299 467 301 Q 481 306 478 321 Q 474 334 459 332 Q 445 329 433 328 Q 423 328 414 332 Q 411 334 410 336 Q 409 336 409 339 L 409 339 Z"/>
</svg>
