<svg xmlns="http://www.w3.org/2000/svg" viewBox="0 0 512 512">
  <path d="M 0.9961089494163424 63.750972762645915 Q 1.9922178988326849 36.856031128404666 19.92217898832685 18.926070038910506 L 19.92217898832685 18.926070038910506 L 19.92217898832685 18.926070038910506 Q 37.85214007782101 0.9961089494163424 64.74708171206225 0 L 447.25291828793775 0 L 447.25291828793775 0 Q 474.147859922179 0.9961089494163424 492.07782101167317 18.926070038910506 Q 510.0077821011673 36.856031128404666 511.00389105058366 63.750972762645915 L 511.00389105058366 350.63035019455253 L 511.00389105058366 350.63035019455253 Q 510.0077821011673 377.5252918287938 492.07782101167317 395.45525291828795 Q 474.147859922179 413.3852140077821 447.25291828793775 414.38132295719845 L 308.79377431906613 414.38132295719845 L 308.79377431906613 414.38132295719845 L 186.27237354085602 507.0194552529183 L 186.27237354085602 507.0194552529183 Q 178.30350194552528 512 169.3385214007782 508.01556420233464 Q 160.37354085603113 504.0311284046693 160.37354085603113 494.07003891050584 L 160.37354085603113 414.38132295719845 L 160.37354085603113 414.38132295719845 L 64.74708171206225 414.38132295719845 L 64.74708171206225 414.38132295719845 Q 37.85214007782101 413.3852140077821 19.92217898832685 395.45525291828795 Q 1.9922178988326849 377.5252918287938 0.9961089494163424 350.63035019455253 L 0.9961089494163424 63.750972762645915 L 0.9961089494163424 63.750972762645915 Z M 168.34241245136187 111.56420233463035 Q 146.42801556420233 113.55642023346303 144.43579766536965 135.47081712062257 Q 146.42801556420233 157.3852140077821 168.34241245136187 159.3774319066148 L 232.09338521400778 159.3774319066148 L 232.09338521400778 159.3774319066148 L 232.09338521400778 294.84824902723733 L 232.09338521400778 294.84824902723733 Q 234.08560311284046 316.7626459143969 256 318.7548638132296 Q 277.9143968871595 316.7626459143969 279.9066147859922 294.84824902723733 L 279.9066147859922 159.3774319066148 L 279.9066147859922 159.3774319066148 L 343.6575875486381 159.3774319066148 L 343.6575875486381 159.3774319066148 Q 365.5719844357977 157.3852140077821 367.56420233463035 135.47081712062257 Q 365.5719844357977 113.55642023346303 343.6575875486381 111.56420233463035 L 256 111.56420233463035 L 168.34241245136187 111.56420233463035 Z" />
</svg>