<svg xmlns="http://www.w3.org/2000/svg" viewBox="0 0 448 448">
    <path d="M 96 119 L 96 329 Q 111 337 119 352 L 329 352 Q 337 337 352 329 L 352 119 Q 337 111 329 96 L 119 96 Q 111 111 96 119 L 96 119 Z M 119 416 Q 101 446 64 448 Q 37 447 19 429 Q 1 411 0 384 Q 2 347 32 329 L 32 119 Q 2 101 0 64 Q 1 37 19 19 Q 37 1 64 0 Q 101 2 119 32 L 329 32 Q 347 2 384 0 Q 411 1 429 19 Q 447 37 448 64 Q 446 101 416 119 L 416 329 Q 446 347 448 384 Q 447 411 429 429 Q 411 447 384 448 Q 347 446 329 416 L 119 416 L 119 416 Z"/>
</svg>
