<svg xmlns="http://www.w3.org/2000/svg" viewBox="0 0 512 512">
  <path d="M 130.47451669595782 63.437609841827765 Q 121.47627416520211 54.439367311072054 108.87873462214411 54.439367311072054 Q 96.28119507908612 54.439367311072054 87.2829525483304 63.437609841827765 L 8.09841827768014 149.8207381370826 L 8.09841827768014 149.8207381370826 Q 0 159.7188049209139 0.8998242530755711 170.51669595782073 Q 1.7996485061511422 182.21441124780316 9.898066783831283 191.2126537785589 Q 19.796133567662565 199.31107205623903 30.59402460456942 198.41124780316343 Q 42.291739894551846 197.51142355008787 51.28998242530756 189.41300527240773 L 80.08435852372584 157.01933216168717 L 80.08435852372584 157.01933216168717 L 80.08435852372584 428.76625659050967 L 80.08435852372584 428.76625659050967 Q 80.08435852372584 441.3637961335677 88.18277680140598 449.4622144112478 Q 96.28119507908612 457.56063268892797 108.87873462214411 457.56063268892797 Q 121.47627416520211 457.56063268892797 129.57469244288225 449.4622144112478 Q 137.6731107205624 441.3637961335677 137.6731107205624 428.76625659050967 L 137.6731107205624 157.01933216168717 L 137.6731107205624 157.01933216168717 L 166.46748681898066 189.41300527240773 L 166.46748681898066 189.41300527240773 Q 175.4657293497364 197.51142355008787 187.16344463971882 198.41124780316343 Q 197.96133567662565 199.31107205623903 207.85940246045695 191.2126537785589 Q 215.9578207381371 182.21441124780316 216.85764499121265 171.41652021089632 Q 217.75746924428822 159.7188049209139 209.65905096660808 150.72056239015816 L 130.47451669595782 64.33743409490334 L 130.47451669595782 63.437609841827765 Z M 281.6449912126538 457.56063268892797 L 310.43936731107203 457.56063268892797 L 281.6449912126538 457.56063268892797 L 310.43936731107203 457.56063268892797 Q 323.03690685413005 457.56063268892797 331.1353251318102 449.4622144112478 Q 339.23374340949033 441.3637961335677 339.23374340949033 428.76625659050967 Q 339.23374340949033 416.16871704745165 331.1353251318102 408.0702987697715 Q 323.03690685413005 399.9718804920914 310.43936731107203 399.9718804920914 L 281.6449912126538 399.9718804920914 L 281.6449912126538 399.9718804920914 Q 269.0474516695958 399.9718804920914 260.94903339191563 408.0702987697715 Q 252.8506151142355 416.16871704745165 252.8506151142355 428.76625659050967 Q 252.8506151142355 441.3637961335677 260.94903339191563 449.4622144112478 Q 269.0474516695958 457.56063268892797 281.6449912126538 457.56063268892797 L 281.6449912126538 457.56063268892797 Z M 281.6449912126538 342.38312829525483 L 368.0281195079086 342.38312829525483 L 281.6449912126538 342.38312829525483 L 368.0281195079086 342.38312829525483 Q 380.6256590509666 342.38312829525483 388.72407732864673 334.2847100175747 Q 396.82249560632687 326.18629173989456 396.82249560632687 313.58875219683654 Q 396.82249560632687 300.9912126537786 388.72407732864673 292.89279437609844 Q 380.6256590509666 284.7943760984183 368.0281195079086 284.7943760984183 L 281.6449912126538 284.7943760984183 L 281.6449912126538 284.7943760984183 Q 269.0474516695958 284.7943760984183 260.94903339191563 292.89279437609844 Q 252.8506151142355 300.9912126537786 252.8506151142355 313.58875219683654 Q 252.8506151142355 326.18629173989456 260.94903339191563 334.2847100175747 Q 269.0474516695958 342.38312829525483 281.6449912126538 342.38312829525483 L 281.6449912126538 342.38312829525483 Z M 281.6449912126538 227.20562390158173 L 425.61687170474517 227.20562390158173 L 281.6449912126538 227.20562390158173 L 425.61687170474517 227.20562390158173 Q 438.2144112478032 227.20562390158173 446.3128295254833 219.1072056239016 Q 454.41124780316346 211.00878734622145 454.41124780316346 198.41124780316343 Q 454.41124780316346 185.81370826010544 446.3128295254833 177.7152899824253 Q 438.2144112478032 169.61687170474517 425.61687170474517 169.61687170474517 L 281.6449912126538 169.61687170474517 L 281.6449912126538 169.61687170474517 Q 269.0474516695958 169.61687170474517 260.94903339191563 177.7152899824253 Q 252.8506151142355 185.81370826010544 252.8506151142355 198.41124780316343 Q 252.8506151142355 211.00878734622145 260.94903339191563 219.1072056239016 Q 269.0474516695958 227.20562390158173 281.6449912126538 227.20562390158173 L 281.6449912126538 227.20562390158173 Z M 281.6449912126538 112.02811950790861 L 483.2056239015817 112.02811950790861 L 281.6449912126538 112.02811950790861 L 483.2056239015817 112.02811950790861 Q 495.8031634446397 112.02811950790861 503.90158172231986 103.92970123022847 Q 512 95.83128295254834 512 83.23374340949033 Q 512 70.63620386643234 503.90158172231986 62.5377855887522 Q 495.8031634446397 54.439367311072054 483.2056239015817 54.439367311072054 L 281.6449912126538 54.439367311072054 L 281.6449912126538 54.439367311072054 Q 269.0474516695958 54.439367311072054 260.94903339191563 62.5377855887522 Q 252.8506151142355 70.63620386643234 252.8506151142355 83.23374340949033 Q 252.8506151142355 95.83128295254834 260.94903339191563 103.92970123022847 Q 269.0474516695958 112.02811950790861 281.6449912126538 112.02811950790861 L 281.6449912126538 112.02811950790861 Z" />
</svg>