<svg xmlns="http://www.w3.org/2000/svg" viewBox="0 0 512 512">
  <path d="M 36.01223241590214 59.49847094801223 Q 21.137614678899084 50.103975535168196 9.394495412844037 62.62996941896024 Q 0 77.5045871559633 12.525993883792049 89.24770642201835 L 475.98776758409787 452.50152905198775 L 475.98776758409787 452.50152905198775 Q 490.86238532110093 461.8960244648318 502.60550458715596 449.37003058103977 Q 512 434.4954128440367 499.47400611620793 422.7522935779817 L 284.1834862385321 254.43425076452598 L 284.1834862385321 254.43425076452598 L 318.62996941896023 130.7400611620795 L 318.62996941896023 130.7400611620795 L 399.26605504587155 130.7400611620795 L 399.26605504587155 130.7400611620795 L 394.56880733944956 149.5290519877676 L 394.56880733944956 149.5290519877676 Q 392.2201834862385 159.70642201834863 397.70030581039754 168.31804281345566 Q 402.3975535168196 176.9296636085627 412.5749235474006 180.0611620795107 Q 423.53516819571865 182.40978593272172 432.1467889908257 176.9296636085627 Q 439.97553516819573 172.23241590214067 443.1070336391437 162.05504587155963 L 451.71865443425077 127.6085626911315 L 451.71865443425077 127.6085626911315 Q 455.6330275229358 108.81957186544342 444.6727828746177 94.72782874617737 Q 434.4954128440367 81.41896024464832 415.70642201834863 80.63608562691131 L 299.84097859327215 80.63608562691131 L 299.84097859327215 80.63608562691131 L 299.84097859327215 80.63608562691131 L 299.84097859327215 80.63608562691131 L 165.96941896024464 80.63608562691131 L 165.96941896024464 80.63608562691131 Q 152.6605504587156 80.63608562691131 142.48318042813455 88.46483180428135 Q 132.30581039755353 96.29357798165138 129.1743119266055 108.81957186544342 L 124.4770642201835 129.1743119266055 L 124.4770642201835 129.1743119266055 L 36.01223241590214 59.49847094801223 L 36.01223241590214 59.49847094801223 Z M 167.53516819571865 162.83792048929664 Q 167.53516819571865 162.83792048929664 167.53516819571865 162.05504587155963 L 167.53516819571865 162.05504587155963 L 167.53516819571865 162.05504587155963 Q 167.53516819571865 162.05504587155963 167.53516819571865 162.05504587155963 L 175.36391437308868 130.7400611620795 L 175.36391437308868 130.7400611620795 L 266.96024464831805 130.7400611620795 L 266.96024464831805 130.7400611620795 L 241.12538226299694 220.77064220183487 L 241.12538226299694 220.77064220183487 L 167.53516819571865 162.83792048929664 L 167.53516819571865 162.83792048929664 Z M 261.480122324159 332.7217125382263 L 219.20489296636086 299.0581039755352 L 261.480122324159 332.7217125382263 L 219.20489296636086 299.0581039755352 L 195.71865443425077 381.2599388379205 L 195.71865443425077 381.2599388379205 L 155.79204892966362 381.2599388379205 L 155.79204892966362 381.2599388379205 Q 144.83180428134557 381.2599388379205 137.78593272171253 388.3058103975535 Q 130.7400611620795 395.35168195718654 130.7400611620795 406.3119266055046 Q 130.7400611620795 417.27217125382265 137.78593272171253 424.31804281345563 Q 144.83180428134557 431.3639143730887 155.79204892966362 431.3639143730887 L 281.0519877675841 431.3639143730887 L 281.0519877675841 431.3639143730887 Q 292.01223241590213 431.3639143730887 299.0581039755352 424.31804281345563 Q 306.1039755351682 417.27217125382265 306.1039755351682 406.3119266055046 Q 306.1039755351682 395.35168195718654 299.0581039755352 388.3058103975535 Q 292.01223241590213 381.2599388379205 281.0519877675841 381.2599388379205 L 248.17125382262998 381.2599388379205 L 248.17125382262998 381.2599388379205 L 261.480122324159 332.7217125382263 L 261.480122324159 332.7217125382263 Z" />
</svg>