<svg xmlns="http://www.w3.org/2000/svg" viewBox="0 0 512 512">
  <path d="M 281.6 76.8 Q 281.6 65.6 274.4 58.4 L 274.4 58.4 L 274.4 58.4 Q 267.2 51.2 256 51.2 Q 244.8 51.2 237.6 58.4 Q 230.4 65.6 230.4 76.8 L 230.4 102.4 L 230.4 102.4 L 208 102.4 L 208 102.4 Q 188 102.4 170.4 112.8 Q 152.8 122.4 142.4 141.6 Q 131.2 163.2 116 198.4 Q 100.8 233.6 88.8 275.2 Q 77.6 316.8 76.8 358.4 L 76.8 372 L 76.8 372 Q 77.6 399.2 95.2 416.8 Q 112.8 434.4 140 435.2 Q 158.4 435.2 175.2 428.8 L 228.8 408.8 L 228.8 408.8 Q 229.6 408.8 229.6 408 Q 230.4 408 230.4 408 L 230.4 435.2 L 230.4 435.2 Q 230.4 446.4 237.6 453.6 Q 244.8 460.8 256 460.8 Q 267.2 460.8 274.4 453.6 Q 281.6 446.4 281.6 435.2 L 281.6 408 L 281.6 408 Q 281.6 408 282.4 408.8 Q 282.4 408.8 283.2 408.8 L 336.8 428.8 L 336.8 428.8 Q 353.6 435.2 372 435.2 Q 399.2 434.4 416.8 416.8 Q 434.4 399.2 435.2 372 L 435.2 358.4 L 435.2 358.4 Q 434.4 316.8 423.2 275.2 Q 411.2 233.6 396 198.4 Q 380.8 163.2 369.6 141.6 Q 359.2 122.4 341.6 112.8 Q 324 102.4 304 102.4 L 281.6 102.4 L 281.6 102.4 L 281.6 76.8 L 281.6 76.8 Z M 230.4 153.6 L 230.4 184 L 230.4 153.6 L 230.4 184 L 172 197.6 L 172 197.6 Q 180.8 179.2 188 165.6 Q 193.6 154.4 208 153.6 L 230.4 153.6 L 230.4 153.6 Z M 148.8 255.2 L 230.4 236.8 L 148.8 255.2 L 230.4 236.8 L 230.4 268.8 L 230.4 268.8 L 136.8 293.6 L 136.8 293.6 Q 142.4 274.4 148.8 255.2 L 148.8 255.2 Z M 128 349.6 L 230.4 321.6 L 128 349.6 L 230.4 321.6 L 230.4 355.2 L 230.4 355.2 Q 220.8 356.8 211.2 360.8 L 157.6 380.8 L 157.6 380.8 Q 148.8 384 140 384 Q 128.8 383.2 128 372 L 128 358.4 L 128 358.4 Q 128 353.6 128 349.6 L 128 349.6 Z M 281.6 355.2 L 281.6 322.4 L 281.6 355.2 L 281.6 322.4 L 376.8 351.2 L 376.8 351.2 Q 380 352 384 352 Q 384 355.2 384 358.4 L 384 372 L 384 372 Q 383.2 383.2 372 384 Q 363.2 384 354.4 380.8 L 300.8 360.8 L 300.8 360.8 Q 291.2 356.8 281.6 355.2 L 281.6 355.2 Z M 376 297.6 L 281.6 268.8 L 376 297.6 L 281.6 268.8 L 281.6 236.8 L 281.6 236.8 L 363.2 255.2 L 363.2 255.2 Q 370.4 276 376 297.6 L 376 297.6 Z M 340 197.6 L 281.6 184 L 340 197.6 L 281.6 184 L 281.6 153.6 L 281.6 153.6 L 304 153.6 L 304 153.6 Q 318.4 154.4 324 165.6 Q 331.2 179.2 340 197.6 L 340 197.6 Z M 0 166.4 L 0 243.2 L 0 166.4 L 0 243.2 L 0 435.2 L 0 435.2 Q 0 446.4 7.2 453.6 Q 14.4 460.8 25.6 460.8 Q 36.8 460.8 44 453.6 Q 51.2 446.4 51.2 435.2 L 51.2 243.2 L 51.2 243.2 Q 51.2 230.4 61.6 222.4 L 81.6 207.2 L 81.6 207.2 Q 101.6 192 102.4 166.4 Q 101.6 144.8 87.2 130.4 Q 72.8 116 51.2 115.2 Q 29.6 116 15.2 130.4 Q 0.8 144.8 0 166.4 L 0 166.4 Z M 460.8 115.2 Q 439.2 116 424.8 130.4 L 424.8 130.4 L 424.8 130.4 Q 410.4 144.8 409.6 166.4 Q 410.4 192 430.4 207.2 L 450.4 222.4 L 450.4 222.4 Q 460.8 230.4 460.8 243.2 L 460.8 435.2 L 460.8 435.2 Q 460.8 446.4 468 453.6 Q 475.2 460.8 486.4 460.8 Q 497.6 460.8 504.8 453.6 Q 512 446.4 512 435.2 L 512 243.2 L 512 243.2 L 512 166.4 L 512 166.4 Q 511.2 144.8 496.8 130.4 Q 482.4 116 460.8 115.2 L 460.8 115.2 Z" />
</svg>