<svg xmlns="http://www.w3.org/2000/svg" viewBox="0 0 576 384">
    <path d="M 64 0 Q 37 1 19 19 L 19 19 Q 1 37 0 64 L 0 128 Q 2 142 16 147 Q 46 158 48 192 Q 46 226 16 237 Q 2 242 0 256 L 0 320 Q 1 347 19 365 Q 37 383 64 384 L 512 384 Q 539 383 557 365 Q 575 347 576 320 L 576 256 Q 574 242 560 237 Q 530 226 528 192 Q 530 158 560 147 Q 574 142 576 128 L 576 64 Q 575 37 557 19 Q 539 1 512 0 L 64 0 L 64 0 Z M 128 112 L 128 272 Q 129 287 144 288 L 432 288 Q 447 287 448 272 L 448 112 Q 447 97 432 96 L 144 96 Q 129 97 128 112 L 128 112 Z M 96 96 Q 96 82 105 73 L 105 73 Q 114 64 128 64 L 448 64 Q 462 64 471 73 Q 480 82 480 96 L 480 288 Q 480 302 471 311 Q 462 320 448 320 L 128 320 Q 114 320 105 311 Q 96 302 96 288 L 96 96 L 96 96 Z"/>
</svg>
