<svg xmlns="http://www.w3.org/2000/svg" viewBox="0 0 512 512">
  <path d="M 146.28571428571428 0 L 73.14285714285714 0 L 146.28571428571428 0 L 73.14285714285714 0 Q 57.142857142857146 0 46.857142857142854 10.285714285714286 Q 36.57142857142857 20.571428571428573 36.57142857142857 36.57142857142857 Q 36.57142857142857 52.57142857142857 46.857142857142854 62.857142857142854 Q 57.142857142857146 73.14285714285714 73.14285714285714 73.14285714285714 Q 38.857142857142854 98.28571428571429 19.428571428571427 136 Q 0 173.71428571428572 0 219.42857142857142 Q 1.1428571428571428 298.2857142857143 25.142857142857142 355.42857142857144 Q 49.142857142857146 412.57142857142856 78.85714285714286 448 Q 108.57142857142857 484.57142857142856 129.14285714285714 499.42857142857144 Q 146.28571428571428 512 166.85714285714286 512 L 345.14285714285717 512 L 345.14285714285717 512 Q 365.7142857142857 512 382.85714285714283 499.42857142857144 Q 403.42857142857144 484.57142857142856 433.14285714285717 448 Q 462.85714285714283 412.57142857142856 486.85714285714283 355.42857142857144 Q 510.85714285714283 298.2857142857143 512 219.42857142857142 Q 512 173.71428571428572 492.57142857142856 136 Q 473.14285714285717 98.28571428571429 438.85714285714283 73.14285714285714 Q 454.85714285714283 73.14285714285714 465.14285714285717 62.857142857142854 Q 475.42857142857144 52.57142857142857 475.42857142857144 36.57142857142857 Q 475.42857142857144 20.571428571428573 465.14285714285717 10.285714285714286 Q 454.85714285714283 0 438.85714285714283 0 L 201.14285714285714 0 L 201.14285714285714 0 L 201.14285714285714 118.85714285714286 L 201.14285714285714 118.85714285714286 Q 198.85714285714286 144 173.71428571428572 146.28571428571428 Q 148.57142857142858 144 146.28571428571428 118.85714285714286 L 146.28571428571428 0 L 146.28571428571428 0 Z M 73.14285714285714 219.42857142857142 L 438.85714285714283 219.42857142857142 L 73.14285714285714 219.42857142857142 L 438.85714285714283 219.42857142857142 Q 435.42857142857144 310.85714285714283 401.14285714285717 365.7142857142857 L 110.85714285714286 365.7142857142857 L 110.85714285714286 365.7142857142857 Q 76.57142857142857 310.85714285714283 73.14285714285714 219.42857142857142 L 73.14285714285714 219.42857142857142 Z" />
</svg>