<svg xmlns="http://www.w3.org/2000/svg" viewBox="0 0 512 512">
  <path d="M 512 40.421052631578945 Q 511.00194931773876 64.37426900584795 492.03898635477583 75.35282651072124 Q 504.01559454191033 86.33138401559454 504.01559454191033 104.29629629629629 Q 502.0194931773879 133.23976608187135 476.0701754385965 142.22222222222223 Q 480.0623781676413 150.2066276803119 480.0623781676413 160.18713450292398 Q 478.0662768031189 189.13060428849903 452.1169590643275 198.1130604288499 Q 456.1091617933723 206.09746588693957 456.1091617933723 216.07797270955166 Q 456.1091617933723 233.0448343079922 444.1325536062378 244.0233918128655 Q 433.1539961013645 256 416.187134502924 256 Q 414.19103313840156 256 413.1929824561403 256 Q 416.187134502924 262.9863547758285 416.187134502924 271.96881091617934 Q 415.18908382066274 292.92787524366474 399.2202729044834 304.90448343079925 Q 325.364522417154 259.99220272904483 241.52826510721246 270.97076023391816 Q 252.50682261208576 187.1345029239766 207.59454191033137 113.27875243664717 Q 219.57115009746587 97.30994152046783 240.53021442495125 96.31189083820662 Q 249.51267056530213 96.31189083820662 256.4990253411306 99.30604288499025 Q 256.4990253411306 98.30799220272904 256.4990253411306 96.31189083820662 Q 256.4990253411306 79.34502923976608 268.4756335282651 68.36647173489278 Q 279.4541910331384 56.38986354775828 296.42105263157896 56.38986354775828 Q 306.40155945419104 56.38986354775828 314.3859649122807 60.382066276803116 Q 323.36842105263156 34.432748538011694 352.31189083820664 32.43664717348928 Q 362.2923976608187 32.43664717348928 370.2768031189084 36.42884990253411 Q 379.25925925925924 10.47953216374269 408.2027290448343 8.483430799220272 Q 426.16764132553607 8.483430799220272 437.14619883040933 21.458089668615983 Q 448.12475633528265 1.4970760233918128 472.07797270955166 0.49902534113060426 Q 489.0448343079922 0.49902534113060426 500.0233918128655 12.475633528265107 Q 512 23.4541910331384 512 40.421052631578945 L 512 40.421052631578945 Z M 138.72904483430798 98.30799220272904 Q 142.72124756335282 88.32748538011695 151.7037037037037 94.3157894736842 Q 185.63742690058479 132.24171539961014 201.60623781676412 179.15009746588694 Q 217.57504873294346 225.06042884990254 208.59259259259258 277.9571150097466 Q 149.70760233918128 293.9259259259259 102.79922027290448 338.83820662768034 L 25.94931773879142 416.6861598440546 L 25.94931773879142 416.6861598440546 Q 0 386.74463937621834 0.9980506822612085 349.8167641325536 Q 1.996101364522417 312.8888888888889 28.943469785575047 283.94541910331384 L 92.81871345029239 220.0701754385965 L 92.81871345029239 220.0701754385965 Q 120.76413255360623 192.12475633528265 127.75048732943469 153.20077972709552 L 138.72904483430798 98.30799220272904 L 138.72904483430798 98.30799220272904 Z M 92.81871345029239 483.55555555555554 L 47.90643274853801 438.6432748538012 L 92.81871345029239 483.55555555555554 L 47.90643274853801 438.6432748538012 L 125.75438596491227 361.7933723196881 L 125.75438596491227 361.7933723196881 Q 169.66861598440545 318.87719298245617 225.55945419103313 305.9025341130604 Q 279.4541910331384 293.9259259259259 329.3567251461988 309.89473684210526 Q 378.26120857699806 324.8654970760234 418.1832358674464 360.7953216374269 Q 424.17153996101365 369.77777777777777 414.19103313840156 373.7699805068226 L 359.29824561403507 384.7485380116959 L 359.29824561403507 384.7485380116959 Q 320.37426900584796 391.73489278752436 292.4288499025341 419.6803118908382 L 228.55360623781675 483.55555555555554 L 228.55360623781675 483.55555555555554 Q 198.6120857699805 511.5009746588694 160.68615984405457 511.5009746588694 Q 122.76023391812865 511.5009746588694 92.81871345029239 483.55555555555554 L 92.81871345029239 483.55555555555554 Z" />
</svg>