<svg xmlns="http://www.w3.org/2000/svg" viewBox="0 0 512 512">
  <path d="M 165.1331058020478 162.94880546075086 Q 164.259385665529 165.56996587030716 184.35494880546077 180.4232081911263 L 184.35494880546077 180.4232081911263 L 184.35494880546077 180.4232081911263 Q 204.4505119453925 196.15017064846415 256 197.8976109215017 Q 307.54948805460754 196.15017064846415 327.64505119453923 180.4232081911263 Q 347.740614334471 165.56996587030716 346.8668941979522 162.94880546075086 Q 346.8668941979522 129.74744027303754 325.02389078498294 101.78839590443685 Q 302.3071672354949 73.82935153583618 256 72.08191126279864 Q 209.6928327645051 73.82935153583618 186.97610921501706 101.78839590443685 Q 165.1331058020478 129.74744027303754 165.1331058020478 162.94880546075086 L 165.1331058020478 162.94880546075086 Z M 127.56313993174061 128 Q 140.66894197952217 84.31399317406144 174.74402730375428 58.10238907849829 L 174.74402730375428 58.10238907849829 L 174.74402730375428 58.10238907849829 Q 209.6928327645051 31.017064846416382 256 30.14334470989761 Q 302.3071672354949 31.017064846416382 337.25597269624575 58.10238907849829 Q 371.3310580204778 84.31399317406144 384.43686006825936 128 Q 440.35494880546077 141.10580204778157 473.55631399317406 162.94880546075086 Q 506.75767918088735 184.79180887372013 507.63139931740614 211.87713310580205 Q 506.75767918088735 238.96245733788396 473.55631399317406 261.679180887372 Q 439.481228668942 283.5221843003413 382.68941979522185 296.6279863481229 Q 325.8976109215017 309.7337883959044 256 309.7337883959044 Q 186.1023890784983 309.7337883959044 129.31058020477815 296.6279863481229 Q 72.51877133105802 283.5221843003413 38.44368600682594 261.679180887372 Q 5.242320819112628 238.96245733788396 4.368600682593857 211.87713310580205 Q 5.242320819112628 184.79180887372013 38.44368600682594 162.94880546075086 Q 71.64505119453925 141.10580204778157 127.56313993174061 128 L 127.56313993174061 128 Z M 109.21501706484642 211.87713310580205 Q 107.46757679180887 192.65529010238907 88.24573378839591 190.90784982935153 Q 69.02389078498294 192.65529010238907 67.2764505119454 211.87713310580205 Q 69.02389078498294 231.09897610921502 88.24573378839591 232.84641638225256 Q 107.46757679180887 231.09897610921502 109.21501706484642 211.87713310580205 L 109.21501706484642 211.87713310580205 Z M 423.7542662116041 232.84641638225256 Q 442.97610921501706 231.09897610921502 444.72354948805463 211.87713310580205 Q 442.97610921501706 192.65529010238907 423.7542662116041 190.90784982935153 Q 404.5324232081911 192.65529010238907 402.7849829351536 211.87713310580205 Q 404.5324232081911 231.09897610921502 423.7542662116041 232.84641638225256 L 423.7542662116041 232.84641638225256 Z M 276.96928327645054 253.81569965870307 Q 275.22184300341297 234.5938566552901 256 232.84641638225256 Q 236.77815699658703 234.5938566552901 235.0307167235495 253.81569965870307 Q 236.77815699658703 273.03754266211604 256 274.7849829351536 Q 275.22184300341297 273.03754266211604 276.96928327645054 253.81569965870307 L 276.96928327645054 253.81569965870307 Z M 69.02389078498294 314.97610921501706 L 73.39249146757679 307.1126279863481 L 69.02389078498294 314.97610921501706 L 73.39249146757679 307.1126279863481 Q 91.74061433447099 314.1023890784983 113.58361774744027 320.2184300341297 L 107.46757679180887 332.45051194539246 L 107.46757679180887 332.45051194539246 L 44.55972696245734 465.25597269624575 L 44.55972696245734 465.25597269624575 Q 34.075085324232084 481.85665529010237 16.600682593856654 475.740614334471 Q 0 465.25597269624575 6.1160409556314 447.7815699658703 L 69.02389078498294 314.97610921501706 L 69.02389078498294 314.97610921501706 Z M 404.5324232081911 332.45051194539246 L 399.29010238907847 320.2184300341297 L 404.5324232081911 332.45051194539246 L 399.29010238907847 320.2184300341297 Q 420.259385665529 314.1023890784983 439.481228668942 307.1126279863481 L 442.97610921501706 314.97610921501706 L 442.97610921501706 314.97610921501706 L 505.8839590443686 447.7815699658703 L 505.8839590443686 447.7815699658703 Q 512 465.25597269624575 495.3993174061433 475.740614334471 Q 477.9249146757679 481.85665529010237 467.4402730375427 465.25597269624575 L 404.5324232081911 332.45051194539246 L 404.5324232081911 332.45051194539246 Z" />
</svg>