<svg xmlns="http://www.w3.org/2000/svg" viewBox="0 0 512 512">
  <path d="M 288 96 Q 288 82 297 73 L 297 73 L 297 73 Q 306 64 320 64 Q 334 64 343 73 Q 352 82 352 96 Q 352 110 361 119 Q 370 128 384 128 Q 398 128 407 119 Q 416 110 416 96 Q 415 55 388 28 Q 361 1 320 0 Q 279 1 252 28 Q 225 55 224 96 L 224 288 L 224 288 L 160 288 L 160 288 L 160 264 L 160 264 Q 159 240 144 224 Q 128 209 104 208 L 56 208 L 56 208 Q 34 210 32 232 Q 34 254 56 256 L 104 256 L 104 256 Q 111 257 112 264 L 112 288 L 112 288 L 32 288 L 32 288 Q 18 288 9 297 Q 0 306 0 320 Q 0 334 9 343 Q 18 352 32 352 L 256 352 L 480 352 Q 494 352 503 343 Q 512 334 512 320 Q 512 306 503 297 Q 494 288 480 288 L 400 288 L 400 288 L 400 264 L 400 264 Q 401 257 408 256 L 464 256 L 464 256 Q 486 254 488 232 Q 486 210 464 208 L 408 208 L 408 208 Q 384 209 368 224 Q 353 240 352 264 L 352 288 L 352 288 L 288 288 L 288 288 L 288 96 L 288 96 Z M 480 416 L 480 384 L 480 416 L 480 384 L 32 384 L 32 384 L 32 416 L 32 416 Q 33 457 60 484 Q 87 511 128 512 L 384 512 L 384 512 Q 425 511 452 484 Q 479 457 480 416 L 480 416 Z" />
</svg>