<svg xmlns="http://www.w3.org/2000/svg" viewBox="0 0 512 512">
  <path d="M 498.1888 47.3526 L 365.00964 180.5318 L 498.1888 47.3526 L 365.00964 180.5318 L 410.38922 180.5318 L 410.38922 180.5318 Q 432.0925 182.50482 434.06552 204.2081 Q 432.0925 225.91136 410.38922 227.8844 L 307.7919 227.8844 L 307.7919 227.8844 Q 286.08862 225.91136 284.1156 204.2081 L 284.1156 101.61079 L 284.1156 101.61079 Q 286.08862 79.90752 307.7919 77.93449 Q 329.49518 79.90752 331.4682 101.61079 L 331.4682 146.99037 L 331.4682 146.99037 L 464.6474 13.811175 L 464.6474 13.811175 Q 481.41812 0 498.1888 13.811175 Q 512 30.581888 498.1888 47.3526 L 498.1888 47.3526 Z M 116.40848 7.8921003 Q 130.21965 4.932563 144.03082 10.851638 L 144.03082 10.851638 L 144.03082 10.851638 Q 156.85548 16.770714 162.77457 31.568401 L 202.23506 126.273605 L 202.23506 126.273605 Q 211.11368 152.90944 190.39691 171.65318 L 142.0578 211.11368 L 142.0578 211.11368 Q 166.72061 263.39883 207.16763 304.83237 Q 248.60115 345.2794 300.88632 369.9422 L 340.34683 321.6031 L 340.34683 321.6031 Q 359.09055 300.88632 385.7264 309.76492 L 480.4316 349.22543 L 480.4316 349.22543 Q 494.24277 355.1445 501.14838 367.96918 Q 507.06744 381.78033 504.1079 396.57803 L 480.4316 483.39114 L 480.4316 483.39114 Q 470.56647 510.02698 441.9576 512 Q 318.64355 511.0135 219.00578 451.82272 Q 119.36802 392.632 60.177265 292.99423 Q 0.98651254 193.35646 0 70.04239 Q 1.9730251 41.433525 29.595375 31.568401 L 116.40848 7.8921003 L 116.40848 7.8921003 Z" />
</svg>