<svg xmlns="http://www.w3.org/2000/svg" viewBox="0 0 448 512">
    <path d="M 224 0 Q 161 1 111 31 L 111 31 Q 60 60 31 111 L 31 111 Q 1 161 0 224 Q 2 292 40 350 Q 78 407 124 447 Q 169 487 195 503 Q 208 512 224 512 Q 240 512 253 503 Q 279 487 324 447 Q 370 407 408 350 Q 446 292 448 224 Q 447 161 417 111 Q 388 60 337 31 Q 287 1 224 0 L 224 0 Z M 256 306 Q 257 271 280 248 L 280 248 Q 303 225 338 224 L 370 224 Q 383 225 384 238 Q 383 273 360 296 Q 337 319 302 320 L 270 320 Q 257 319 256 306 L 256 306 Z M 110 224 Q 145 225 168 248 L 168 248 Q 191 271 192 306 Q 191 319 178 320 L 146 320 Q 111 319 88 296 Q 65 273 64 238 Q 65 225 78 224 L 110 224 L 110 224 Z"/>
</svg>
