<svg xmlns="http://www.w3.org/2000/svg" viewBox="0 0 450 512">
    <path d="M 225 208 Q 225 216 226 224 L 448 224 Q 449 216 449 208 Q 448 160 416 129 Q 385 97 337 96 L 336 96 Q 307 97 283 110 Q 259 124 243 147 Q 225 173 225 208 L 225 208 Z M 1 208 Q 1 216 2 224 L 194 224 Q 193 216 193 208 Q 193 175 207 147 Q 185 114 147 101 Q 131 96 113 96 Q 65 97 34 129 Q 2 160 1 208 L 1 208 Z M 326 64 Q 313 35 286 18 L 286 18 Q 259 0 225 0 Q 191 0 164 18 Q 137 35 124 64 Q 187 71 225 118 Q 263 71 326 64 L 326 64 Z M 17 256 Q 10 256 5 261 Q 0 267 1 274 L 3 290 Q 11 345 51 380 Q 90 415 146 416 L 186 416 L 118 485 Q 111 492 114 502 Q 119 511 129 512 L 321 512 Q 331 512 336 502 Q 339 492 332 485 L 264 416 L 304 416 Q 360 415 399 380 Q 439 345 447 290 L 449 274 Q 450 267 445 261 Q 440 256 433 256 L 17 256 L 17 256 Z"/>
</svg>
