<svg xmlns="http://www.w3.org/2000/svg" viewBox="0 0 576 450">
    <path d="M 291 356 Q 315 342 340 331 L 340 331 Q 365 321 392 320 L 448 320 Q 455 320 462 319 L 547 441 Q 554 450 565 447 Q 575 443 576 432 L 576 192 Q 575 138 539 101 Q 502 65 448 64 L 392 64 Q 365 63 340 53 Q 315 42 291 28 Q 247 1 192 0 Q 110 2 56 56 Q 2 110 0 192 Q 1 246 26 289 Q 52 333 96 358 L 96 424 Q 98 446 120 448 Q 142 446 144 424 L 144 378 Q 167 384 192 384 Q 200 384 208 383 L 208 424 Q 210 446 232 448 Q 254 446 256 424 L 256 373 Q 275 366 291 356 L 291 356 Z M 448 168 Q 470 170 472 192 Q 470 214 448 216 Q 426 214 424 192 Q 426 170 448 168 L 448 168 Z"/>
</svg>
