<svg xmlns="http://www.w3.org/2000/svg" viewBox="0 0 640 512">
    <path d="M 496 192 Q 503 192 510 193 Q 496 109 436 55 Q 375 2 288 0 Q 273 2 272 17 L 272 240 L 375 240 Q 424 194 496 192 L 496 192 Z M 320 368 Q 320 324 339 288 L 224 288 L 224 67 Q 224 52 214 44 Q 204 35 190 37 Q 107 56 54 120 Q 2 184 0 272 Q 1 339 33 393 Q 65 447 119 479 Q 173 511 240 512 Q 306 511 360 480 Q 321 433 320 368 L 320 368 Z M 640 368 Q 640 329 621 296 L 621 296 Q 602 263 568 243 Q 534 224 496 224 Q 458 224 424 243 Q 390 263 371 296 Q 352 329 352 368 Q 352 407 371 440 Q 390 473 424 493 Q 458 512 496 512 Q 534 512 568 493 Q 602 473 621 440 Q 640 407 640 368 L 640 368 Z M 521 393 Q 537 379 532 358 Q 526 338 506 332 Q 485 327 471 343 Q 455 357 460 378 Q 466 398 486 404 Q 507 409 521 393 L 521 393 Z M 531 426 Q 496 446 461 426 L 443 443 Q 432 453 421 443 Q 412 432 421 421 L 438 403 Q 418 368 438 333 L 421 315 Q 411 304 421 293 Q 432 283 443 293 L 461 310 Q 496 290 531 310 L 549 293 Q 560 283 571 293 Q 581 304 571 315 L 554 333 Q 574 368 554 403 L 571 421 Q 581 432 571 443 Q 560 453 549 443 L 531 426 L 531 426 Z"/>
</svg>
