<svg xmlns="http://www.w3.org/2000/svg" viewBox="0 0 512 512">
  <path d="M 141.53847 354.46155 L 157.53847 206.76923 L 141.53847 354.46155 L 157.53847 206.76923 L 119.38461 168.61539 L 119.38461 168.61539 Q 108.30769 157.53847 108.30769 141.53847 L 108.30769 19.692308 L 108.30769 19.692308 Q 109.53846 1.2307693 128 0 L 157.53847 0 L 157.53847 0 Q 176 1.2307693 177.23077 19.692308 L 177.23077 49.23077 L 177.23077 49.23077 Q 178.46153 57.846153 187.07692 59.076923 L 206.76923 59.076923 L 206.76923 59.076923 Q 215.38461 57.846153 216.61539 49.23077 L 216.61539 19.692308 L 216.61539 19.692308 Q 217.84616 1.2307693 236.3077 0 L 275.69232 0 L 275.69232 0 Q 294.15384 1.2307693 295.3846 19.692308 L 295.3846 49.23077 L 295.3846 49.23077 Q 296.6154 57.846153 305.23077 59.076923 L 324.92307 59.076923 L 324.92307 59.076923 Q 333.53845 57.846153 334.76923 49.23077 L 334.76923 19.692308 L 334.76923 19.692308 Q 336 1.2307693 354.46155 0 L 384 0 L 384 0 Q 402.46155 1.2307693 403.69232 19.692308 L 403.69232 141.53847 L 403.69232 141.53847 Q 403.69232 157.53847 392.6154 168.61539 L 354.46155 206.76923 L 354.46155 206.76923 L 370.46155 354.46155 L 370.46155 354.46155 L 141.53847 354.46155 L 141.53847 354.46155 Z M 226.46153 227.6923 Q 227.6923 235.07692 235.07692 236.3077 L 276.92307 236.3077 L 276.92307 236.3077 Q 284.30768 235.07692 285.53845 227.6923 L 285.53845 187.07692 L 285.53845 187.07692 Q 283.07693 160 256 157.53847 Q 228.92308 160 226.46153 187.07692 L 226.46153 227.6923 L 226.46153 227.6923 Z M 84.92308 465.23077 L 137.84616 393.84616 L 84.92308 465.23077 L 137.84616 393.84616 L 374.15384 393.84616 L 374.15384 393.84616 L 427.07693 465.23077 L 427.07693 465.23077 Q 433.23077 472.6154 433.23077 482.46155 Q 430.76923 509.53845 403.69232 512 L 108.30769 512 L 108.30769 512 Q 81.23077 509.53845 78.76923 482.46155 Q 78.76923 472.6154 84.92308 465.23077 L 84.92308 465.23077 Z" />
</svg>