<svg xmlns="http://www.w3.org/2000/svg" viewBox="0 0 520 514">
    <path d="M 217 5 Q 229 0 241 4 L 241 4 Q 253 8 260 20 L 285 70 L 327 78 Q 357 84 381 103 L 507 201 Q 517 209 519 222 Q 520 235 512 246 Q 504 256 491 258 Q 478 259 467 251 L 395 195 L 324 227 L 357 255 Q 374 269 381 291 Q 388 312 384 334 L 366 409 Q 362 424 350 430 L 437 463 Q 443 466 451 466 L 479 466 Q 501 468 503 490 Q 501 512 479 514 L 451 514 Q 435 514 419 508 L 67 373 Q 50 367 36 353 L 14 331 Q 0 314 14 297 Q 31 283 48 297 L 70 320 Q 76 326 84 329 L 107 337 Q 105 335 105 332 Q 101 319 106 308 Q 112 296 125 292 L 199 267 L 199 214 Q 200 175 234 157 L 280 134 L 272 132 Q 242 126 227 98 L 202 48 Q 197 36 201 24 Q 205 12 217 5 L 217 5 Z M 146 352 L 305 413 Q 302 404 304 395 L 321 320 Q 323 310 316 304 L 263 260 L 263 278 Q 262 312 230 324 L 146 352 L 146 352 Z M 439 2 Q 466 3 481 26 Q 493 50 481 74 Q 466 97 439 98 Q 412 97 397 74 Q 385 50 397 26 Q 412 3 439 2 L 439 2 Z"/>
</svg>
