<svg xmlns="http://www.w3.org/2000/svg" viewBox="0 0 512 512">
  <path d="M 332.3229813664596 192.3975155279503 Q 330.7329192546584 252.0248447204969 283.82608695652175 290.98136645962734 L 283.82608695652175 290.98136645962734 L 283.82608695652175 290.98136645962734 Q 236.91925465838509 330.7329192546584 166.95652173913044 332.3229813664596 Q 120.84472049689441 331.527950310559 83.47826086956522 313.2422360248447 Q 74.73291925465838 318.0124223602484 63.60248447204969 322.7826086956522 Q 41.3416149068323 331.527950310559 14.31055900621118 332.3229813664596 Q 5.565217391304348 331.527950310559 2.3850931677018634 323.5776397515528 Q 0 314.832298136646 7.15527950310559 309.2670807453416 L 7.15527950310559 309.2670807453416 L 7.15527950310559 309.2670807453416 L 7.15527950310559 309.2670807453416 L 7.15527950310559 309.2670807453416 L 7.15527950310559 309.2670807453416 L 7.15527950310559 309.2670807453416 Q 7.15527950310559 309.2670807453416 7.15527950310559 308.472049689441 Q 7.950310559006211 308.472049689441 7.950310559006211 308.472049689441 Q 8.745341614906833 307.6770186335404 11.130434782608695 305.2919254658385 Q 15.900621118012422 301.3167701863354 22.26086956521739 294.16149068322983 Q 28.62111801242236 285.41614906832297 33.391304347826086 274.2857142857143 Q 2.3850931677018634 239.30434782608697 1.5900621118012421 192.3975155279503 Q 3.1801242236024843 132.77018633540374 50.08695652173913 93.8136645962733 Q 96.99378881987577 54.06211180124224 166.95652173913044 52.47204968944099 Q 236.91925465838509 54.06211180124224 283.82608695652175 93.8136645962733 Q 330.7329192546584 132.77018633540374 332.3229813664596 192.3975155279503 L 332.3229813664596 192.3975155279503 Z M 186.03726708074535 356.96894409937886 Q 257.5900621118012 349.81366459627327 306.88198757763973 305.2919254658385 L 306.88198757763973 305.2919254658385 L 306.88198757763973 305.2919254658385 Q 355.37888198757764 260.7701863354037 357.7639751552795 192.3975155279503 Q 357.7639751552795 186.03726708074535 356.96894409937886 180.472049689441 Q 422.95652173913044 185.24223602484471 465.888198757764 224.19875776397515 Q 508.8198757763975 263.1552795031056 510.4099378881988 319.6024844720497 Q 509.6149068322981 366.50931677018633 478.60869565217394 401.49068322981367 Q 483.37888198757764 413.41614906832297 490.53416149068323 421.3664596273292 Q 496.0993788819876 428.5217391304348 500.8695652173913 432.4968944099379 Q 503.2546583850932 434.88198757763973 504.0496894409938 435.6770186335404 Q 504.8447204968944 436.472049689441 504.8447204968944 436.472049689441 L 505.639751552795 436.472049689441 L 505.639751552795 436.472049689441 L 505.639751552795 436.472049689441 L 505.639751552795 436.472049689441 L 505.639751552795 436.472049689441 L 505.639751552795 436.472049689441 Q 512 442.0372670807453 509.6149068322981 450.7826086956522 Q 506.4347826086956 459.527950310559 497.6894409937888 459.527950310559 Q 470.6583850931677 458.7329192546584 448.3975155279503 449.9875776397516 Q 437.2670807453416 445.2173913043478 428.5217391304348 440.4472049689441 Q 391.1552795031056 458.7329192546584 345.04347826086956 459.527950310559 Q 287.00621118012424 458.7329192546584 244.07453416149067 430.111801242236 Q 201.14285714285714 402.2857142857143 186.03726708074535 356.96894409937886 L 186.03726708074535 356.96894409937886 Z M 109.71428571428571 138.33540372670808 L 109.71428571428571 139.1304347826087 L 109.71428571428571 138.33540372670808 L 109.71428571428571 139.1304347826087 Q 105.73913043478261 153.44099378881987 119.25465838509317 159.80124223602485 Q 133.56521739130434 162.98136645962734 139.92546583850933 150.2608695652174 L 139.92546583850933 149.46583850931677 L 139.92546583850933 149.46583850931677 Q 141.51552795031057 145.49068322981367 144.69565217391303 145.49068322981367 L 183.65217391304347 145.49068322981367 L 183.65217391304347 145.49068322981367 Q 192.3975155279503 146.28571428571428 193.19254658385094 155.82608695652175 Q 193.19254658385094 161.3913043478261 188.4223602484472 164.57142857142858 L 159.0062111801242 181.26708074534162 L 159.0062111801242 181.26708074534162 Q 151.055900621118 186.03726708074535 151.055900621118 194.7826086956522 L 151.055900621118 204.32298136645963 L 151.055900621118 204.32298136645963 Q 152.64596273291926 218.6335403726708 166.95652173913044 220.22360248447205 Q 181.26708074534162 218.6335403726708 182.85714285714286 204.32298136645963 L 204.32298136645963 192.3975155279503 L 204.32298136645963 192.3975155279503 Q 224.19875776397515 179.67701863354037 224.9937888198758 155.82608695652175 Q 224.9937888198758 138.33540372670808 213.06832298136646 126.40993788819875 Q 201.14285714285714 114.48447204968944 183.65217391304347 113.68944099378882 L 144.69565217391303 113.68944099378882 L 144.69565217391303 113.68944099378882 Q 119.25465838509317 115.27950310559007 109.71428571428571 139.1304347826087 L 109.71428571428571 138.33540372670808 Z M 188.4223602484472 262.360248447205 Q 188.4223602484472 249.63975155279502 178.08695652173913 243.27950310559007 Q 166.95652173913044 236.91925465838509 155.82608695652175 243.27950310559007 Q 145.49068322981367 249.63975155279502 145.49068322981367 262.360248447205 Q 145.49068322981367 275.0807453416149 155.82608695652175 281.44099378881987 Q 166.95652173913044 287.80124223602485 178.08695652173913 281.44099378881987 Q 188.4223602484472 275.0807453416149 188.4223602484472 262.360248447205 L 188.4223602484472 262.360248447205 Z" />
</svg>