<svg xmlns="http://www.w3.org/2000/svg" viewBox="0 0 512 512">
  <path d="M 73.14285714285714 512 Q 42.285714285714285 510.85714285714283 21.714285714285715 490.2857142857143 L 21.714285714285715 490.2857142857143 L 21.714285714285715 490.2857142857143 Q 1.1428571428571428 469.7142857142857 0 438.85714285714283 L 0 73.14285714285714 L 0 73.14285714285714 Q 1.1428571428571428 42.285714285714285 21.714285714285715 21.714285714285715 Q 42.285714285714285 1.1428571428571428 73.14285714285714 0 L 438.85714285714283 0 L 438.85714285714283 0 Q 469.7142857142857 1.1428571428571428 490.2857142857143 21.714285714285715 Q 510.85714285714283 42.285714285714285 512 73.14285714285714 L 512 438.85714285714283 L 512 438.85714285714283 Q 510.85714285714283 469.7142857142857 490.2857142857143 490.2857142857143 Q 469.7142857142857 510.85714285714283 438.85714285714283 512 L 73.14285714285714 512 L 73.14285714285714 512 Z M 275.42857142857144 412.57142857142856 L 403.42857142857144 284.57142857142856 L 275.42857142857144 412.57142857142856 L 403.42857142857144 284.57142857142856 Q 419.42857142857144 265.14285714285717 403.42857142857144 245.71428571428572 Q 384 229.71428571428572 364.57142857142856 245.71428571428572 L 283.42857142857144 326.85714285714283 L 283.42857142857144 326.85714285714283 L 283.42857142857144 118.85714285714286 L 283.42857142857144 118.85714285714286 Q 281.14285714285717 93.71428571428571 256 91.42857142857143 Q 230.85714285714286 93.71428571428571 228.57142857142858 118.85714285714286 L 228.57142857142858 326.85714285714283 L 228.57142857142858 326.85714285714283 L 147.42857142857142 245.71428571428572 L 147.42857142857142 245.71428571428572 Q 128 229.71428571428572 108.57142857142857 245.71428571428572 Q 92.57142857142857 265.14285714285717 108.57142857142857 284.57142857142856 L 236.57142857142858 412.57142857142856 L 236.57142857142858 412.57142857142856 Q 256 428.57142857142856 275.42857142857144 412.57142857142856 L 275.42857142857144 412.57142857142856 Z" />
</svg>