<svg xmlns="http://www.w3.org/2000/svg" viewBox="0 0 512 512">
  <path d="M 32 96 Q 33 55 60 28 L 60 28 L 60 28 Q 87 1 128 0 L 416 0 L 448 0 Q 462 0 471 9 Q 480 18 480 32 L 480 352 L 480 352 Q 480 366 471 375 Q 462 384 448 384 L 448 448 L 448 448 Q 462 448 471 457 Q 480 466 480 480 Q 480 494 471 503 Q 462 512 448 512 L 416 512 L 128 512 Q 87 511 60 484 Q 33 457 32 416 L 32 96 L 32 96 Z M 96 416 Q 96 430 105 439 L 105 439 L 105 439 Q 114 448 128 448 L 384 448 L 384 448 L 384 384 L 384 384 L 128 384 L 128 384 Q 114 384 105 393 Q 96 402 96 416 L 96 416 Z M 160 157 Q 160 182 178 201 L 261 283 L 261 283 Q 272 293 283 283 L 366 201 L 366 201 Q 383 182 384 157 Q 383 131 366 114 Q 349 97 323 96 Q 297 96 279 114 L 272 121 L 272 121 L 264 114 L 264 114 Q 247 96 221 96 Q 195 97 178 114 Q 161 131 160 157 L 160 157 Z" />
</svg>