<svg xmlns="http://www.w3.org/2000/svg" viewBox="0 0 512 512">
  <path d="M 256 346 Q 256 382 272 411.6 L 272 411.6 L 272 411.6 Q 288 442 316 461.2 L 102.4 461.2 L 102.4 461.2 Q 80.8 460.4 66.4 446 Q 52 431.6 51.2 410 L 51.2 282 L 51.2 282 L 25.6 282 L 25.6 282 Q 14.4 281.2 7.2 274 Q 0 266.8 0 256.4 Q 0 245.2 8 237.2 L 212.8 58 L 212.8 58 Q 221.6 50.8 230.4 51.6 Q 240 51.6 247.2 57.2 L 417.6 206.8 L 417.6 206.8 Q 407.2 205.2 396.8 205.2 Q 364 205.2 336 218.8 Q 308 232.4 288 256.4 L 256 256.4 L 256 256.4 L 256 218 L 256 218 Q 255.2 206 243.2 205.2 L 217.6 205.2 L 217.6 205.2 Q 205.6 206 204.8 218 L 204.8 256.4 L 204.8 256.4 L 166.4 256.4 L 166.4 256.4 Q 154.4 257.2 153.6 269.2 L 153.6 294.8 L 153.6 294.8 Q 154.4 306.8 166.4 307.6 L 204.8 307.6 L 204.8 307.6 L 204.8 346 L 204.8 346 Q 205.6 358 217.6 358.8 L 243.2 358.8 L 243.2 358.8 Q 255.2 358 256 346 L 256 346 Z M 396.8 230.8 Q 428 230.8 454.4 246 L 454.4 246 L 454.4 246 Q 480.8 261.2 496.8 288.4 Q 512 315.6 512 346 Q 512 376.4 496.8 403.6 Q 480.8 430.8 454.4 446 Q 428 461.2 396.8 461.2 Q 365.6 461.2 339.2 446 Q 312.8 430.8 296.8 403.6 Q 281.6 376.4 281.6 346 Q 281.6 315.6 296.8 288.4 Q 312.8 261.2 339.2 246 Q 365.6 230.8 396.8 230.8 L 396.8 230.8 Z M 396.8 422.8 Q 414.4 421.2 416 403.6 Q 414.4 386 396.8 384.4 Q 379.2 386 377.6 403.6 Q 379.2 421.2 396.8 422.8 L 396.8 422.8 Z M 396.8 269.2 Q 384.8 270 384 282 L 384 346 L 384 346 Q 384.8 358 396.8 358.8 Q 408.8 358 409.6 346 L 409.6 282 L 409.6 282 Q 408.8 270 396.8 269.2 L 396.8 269.2 Z" />
</svg>