<svg xmlns="http://www.w3.org/2000/svg" viewBox="0 0 512 512">
  <path d="M 51.2 0 Q 28.8 0 14.4 14.4 L 14.4 14.4 L 14.4 14.4 Q 0 28.8 0 51.2 L 0 409.6 L 0 409.6 Q 0 432 14.4 446.4 Q 28.8 460.8 51.2 460.8 Q 73.6 460.8 88 446.4 Q 102.4 432 102.4 409.6 L 102.4 174.4 L 102.4 174.4 L 424 497.6 L 424 497.6 Q 440 512 460.8 512 Q 481.6 512 497.6 497.6 Q 512 481.6 512 460.8 Q 512 440 497.6 424 L 174.4 102.4 L 174.4 102.4 L 409.6 102.4 L 409.6 102.4 Q 432 102.4 446.4 88 Q 460.8 73.6 460.8 51.2 Q 460.8 28.8 446.4 14.4 Q 432 0 409.6 0 L 51.2 0 L 51.2 0 Z" />
</svg>