<svg xmlns="http://www.w3.org/2000/svg" viewBox="0 0 512 512">
  <path d="M 42.666666666666664 28.444444444444443 Q 24.88888888888889 29.333333333333332 12.444444444444445 40.888888888888886 L 12.444444444444445 40.888888888888886 L 12.444444444444445 40.888888888888886 Q 0.8888888888888888 53.333333333333336 0 71.11111111111111 L 0 256 L 0 256 L 128 256 L 128 256 Q 141.33333333333334 256.8888888888889 142.22222222222223 270.22222222222223 Q 141.33333333333334 283.55555555555554 128 284.44444444444446 L 0 284.44444444444446 L 0 284.44444444444446 L 0 341.3333333333333 L 0 341.3333333333333 L 128 341.3333333333333 L 128 341.3333333333333 Q 141.33333333333334 342.22222222222223 142.22222222222223 355.55555555555554 Q 141.33333333333334 368.8888888888889 128 369.77777777777777 L 0 369.77777777777777 L 0 369.77777777777777 L 0 440.8888888888889 L 0 440.8888888888889 Q 0.8888888888888888 458.6666666666667 12.444444444444445 471.1111111111111 Q 24.88888888888889 482.6666666666667 42.666666666666664 483.55555555555554 L 236.44444444444446 483.55555555555554 L 236.44444444444446 483.55555555555554 Q 227.55555555555554 469.3333333333333 227.55555555555554 452.44444444444446 Q 227.55555555555554 420.44444444444446 243.55555555555554 395.55555555555554 Q 258.6666666666667 369.77777777777777 284.44444444444446 355.55555555555554 L 284.44444444444446 270.22222222222223 L 284.44444444444446 270.22222222222223 L 284.44444444444446 71.11111111111111 L 284.44444444444446 71.11111111111111 Q 283.55555555555554 53.333333333333336 272 40.888888888888886 Q 259.55555555555554 29.333333333333332 241.77777777777777 28.444444444444443 L 42.666666666666664 28.444444444444443 L 42.666666666666664 28.444444444444443 Z M 135.11111111111111 85.33333333333333 L 149.33333333333334 85.33333333333333 L 135.11111111111111 85.33333333333333 L 149.33333333333334 85.33333333333333 Q 162.66666666666666 86.22222222222223 163.55555555555554 99.55555555555556 L 163.55555555555554 120.88888888888889 L 163.55555555555554 120.88888888888889 L 184.88888888888889 120.88888888888889 L 184.88888888888889 120.88888888888889 Q 198.22222222222223 121.77777777777777 199.11111111111111 135.11111111111111 L 199.11111111111111 149.33333333333334 L 199.11111111111111 149.33333333333334 Q 198.22222222222223 162.66666666666666 184.88888888888889 163.55555555555554 L 163.55555555555554 163.55555555555554 L 163.55555555555554 163.55555555555554 L 163.55555555555554 184.88888888888889 L 163.55555555555554 184.88888888888889 Q 162.66666666666666 198.22222222222223 149.33333333333334 199.11111111111111 L 135.11111111111111 199.11111111111111 L 135.11111111111111 199.11111111111111 Q 121.77777777777777 198.22222222222223 120.88888888888889 184.88888888888889 L 120.88888888888889 163.55555555555554 L 120.88888888888889 163.55555555555554 L 99.55555555555556 163.55555555555554 L 99.55555555555556 163.55555555555554 Q 86.22222222222223 162.66666666666666 85.33333333333333 149.33333333333334 L 85.33333333333333 135.11111111111111 L 85.33333333333333 135.11111111111111 Q 86.22222222222223 121.77777777777777 99.55555555555556 120.88888888888889 L 120.88888888888889 120.88888888888889 L 120.88888888888889 120.88888888888889 L 120.88888888888889 99.55555555555556 L 120.88888888888889 99.55555555555556 Q 121.77777777777777 86.22222222222223 135.11111111111111 85.33333333333333 L 135.11111111111111 85.33333333333333 Z M 455.1111111111111 270.22222222222223 Q 454.22222222222223 230.22222222222223 419.55555555555554 208.88888888888889 Q 384 189.33333333333334 348.44444444444446 208.88888888888889 Q 313.77777777777777 230.22222222222223 312.8888888888889 270.22222222222223 Q 313.77777777777777 310.22222222222223 348.44444444444446 331.55555555555554 Q 384 351.1111111111111 419.55555555555554 331.55555555555554 Q 454.22222222222223 310.22222222222223 455.1111111111111 270.22222222222223 L 455.1111111111111 270.22222222222223 Z M 256 452.44444444444446 Q 256 465.77777777777777 264.8888888888889 474.6666666666667 L 264.8888888888889 474.6666666666667 L 264.8888888888889 474.6666666666667 Q 273.77777777777777 483.55555555555554 287.1111111111111 483.55555555555554 L 480.8888888888889 483.55555555555554 L 480.8888888888889 483.55555555555554 Q 494.22222222222223 483.55555555555554 503.1111111111111 474.6666666666667 Q 512 465.77777777777777 512 452.44444444444446 Q 511.1111111111111 417.77777777777777 488 393.77777777777777 Q 464 370.6666666666667 429.3333333333333 369.77777777777777 L 338.6666666666667 369.77777777777777 L 338.6666666666667 369.77777777777777 Q 304 370.6666666666667 280 393.77777777777777 Q 256.8888888888889 417.77777777777777 256 452.44444444444446 L 256 452.44444444444446 Z" />
</svg>