<svg xmlns="http://www.w3.org/2000/svg" viewBox="0 0 512 512">
  <path d="M 479 33 Q 445 0 400 0 L 400 0 L 400 0 Q 355 0 321 33 L 316 38 L 316 38 L 475 196 L 475 196 L 479 191 L 479 191 Q 512 157 512 112 Q 512 67 479 33 L 479 33 Z M 294 60 L 289 65 L 294 60 L 289 65 Q 252 104 256 154 L 358 256 L 358 256 Q 408 260 447 223 L 452 219 L 452 219 L 294 60 L 294 60 Z M 229 172 L 216 187 L 229 172 L 216 187 L 8 427 L 8 427 Q 0 437 0 449 Q 0 461 9 471 L 41 503 L 41 503 Q 51 512 63 512 Q 75 512 85 504 L 224 384 L 224 384 L 224 480 L 224 480 Q 224 494 233 503 Q 242 512 256 512 Q 270 512 279 503 Q 288 494 288 480 L 288 328 L 288 328 L 325 296 L 325 296 L 340 283 L 340 283 L 229 172 L 229 172 Z" />
</svg>