<svg xmlns="http://www.w3.org/2000/svg" viewBox="0 0 512 512">
  <path d="M 32 32 Q 18 32 9 41 L 9 41 L 9 41 Q 0 50 0 64 L 0 304 L 0 304 L 0 352 L 0 352 L 0 432 L 0 432 Q 1 452 14 466 Q 28 479 48 480 L 464 480 L 464 480 Q 484 479 498 466 Q 511 452 512 432 L 512 304 L 512 304 L 512 152 L 512 152 Q 511 138 500 132 Q 489 125 477 131 L 320 215 L 320 215 L 320 152 L 320 152 Q 319 138 308 132 Q 297 125 285 131 L 128 215 L 128 215 L 128 64 L 128 64 Q 128 50 119 41 Q 110 32 96 32 L 32 32 L 32 32 Z" />
</svg>