<svg xmlns="http://www.w3.org/2000/svg" viewBox="0 0 448 384">
    <path d="M 384 32 Q 384 18 393 9 L 393 9 Q 402 0 416 0 Q 430 0 439 9 Q 448 18 448 32 L 448 352 Q 448 366 439 375 Q 430 384 416 384 Q 402 384 393 375 Q 384 366 384 352 L 384 32 L 384 32 Z M 9 215 Q 0 205 0 192 L 0 192 Q 0 179 9 169 L 137 41 Q 147 32 160 32 Q 173 32 183 41 Q 192 51 192 64 Q 192 77 183 87 L 109 160 L 288 160 Q 302 160 311 169 Q 320 178 320 192 Q 320 206 311 215 Q 302 224 288 224 L 109 224 L 183 297 Q 192 307 192 320 Q 192 333 183 343 Q 173 352 160 352 Q 147 352 137 343 L 9 215 L 9 215 Z"/>
</svg>
