<svg xmlns="http://www.w3.org/2000/svg" viewBox="0 0 576 448">
    <path d="M 183 203 Q 234 235 269 284 Q 279 299 288 315 Q 297 299 307 284 Q 342 235 393 203 Q 461 161 546 160 L 556 160 Q 574 162 576 180 Q 575 255 539 315 Q 504 376 443 411 Q 383 447 308 448 L 288 448 L 268 448 Q 193 447 133 411 Q 72 376 37 315 Q 1 255 0 180 Q 2 162 20 160 L 30 160 Q 115 161 183 203 L 183 203 Z M 302 6 Q 315 18 341 59 L 341 59 Q 367 101 386 170 Q 328 203 288 256 Q 248 203 190 170 Q 209 101 235 59 Q 261 18 275 6 Q 280 0 288 0 Q 296 0 302 6 L 302 6 Z"/>
</svg>
