<svg xmlns="http://www.w3.org/2000/svg" viewBox="0 0 512 512">
  <path d="M 58.285713 30.857143 L 0 146.28572 L 58.285713 30.857143 L 0 146.28572 L 182.85715 146.28572 L 182.85715 146.28572 L 219.42857 0 L 219.42857 0 L 107.42857 0 L 107.42857 0 Q 74.28571 1.1428572 58.285713 30.857143 L 58.285713 30.857143 Z M 329.14285 146.28572 L 512 146.28572 L 329.14285 146.28572 L 512 146.28572 L 453.7143 30.857143 L 453.7143 30.857143 Q 437.7143 1.1428572 404.57144 0 L 292.57144 0 L 292.57144 0 L 329.14285 146.28572 L 329.14285 146.28572 Z M 182.85715 182.85715 L 0 182.85715 L 182.85715 182.85715 L 0 182.85715 L 0 438.85715 L 0 438.85715 Q 1.1428572 469.7143 21.714285 490.2857 Q 42.285713 510.85715 73.14286 512 L 438.85715 512 L 438.85715 512 Q 469.7143 510.85715 490.2857 490.2857 Q 510.85715 469.7143 512 438.85715 L 512 182.85715 L 512 182.85715 L 329.14285 182.85715 L 329.14285 182.85715 L 329.14285 256 L 329.14285 256 Q 329.14285 272 318.85715 282.2857 Q 308.57144 292.57144 292.57144 292.57144 L 219.42857 292.57144 L 219.42857 292.57144 Q 203.42857 292.57144 193.14285 282.2857 Q 182.85715 272 182.85715 256 L 182.85715 182.85715 L 182.85715 182.85715 Z" />
</svg>