<svg xmlns="http://www.w3.org/2000/svg" viewBox="0 0 512 512">
  <path d="M 202.28571428571428 146.28571428571428 Q 203.42857142857142 115.42857142857143 224 94.85714285714286 L 224 94.85714285714286 L 224 94.85714285714286 Q 244.57142857142858 74.28571428571429 275.42857142857144 73.14285714285714 Q 288 73.14285714285714 299.42857142857144 76.57142857142857 L 392 107.42857142857143 L 392 107.42857142857143 Q 406.85714285714283 112 419.42857142857144 106.28571428571429 Q 433.14285714285717 99.42857142857143 438.85714285714283 84.57142857142857 Q 442.2857142857143 69.71428571428571 436.57142857142856 57.142857142857146 Q 429.7142857142857 43.42857142857143 414.85714285714283 38.857142857142854 L 322.2857142857143 8 L 322.2857142857143 8 Q 299.42857142857144 0 275.42857142857144 0 Q 213.71428571428572 1.1428571428571428 172.57142857142858 43.42857142857143 Q 130.28571428571428 84.57142857142857 129.14285714285714 146.28571428571428 L 129.14285714285714 219.42857142857142 L 129.14285714285714 219.42857142857142 L 110.85714285714286 219.42857142857142 L 110.85714285714286 219.42857142857142 Q 94.85714285714286 219.42857142857142 84.57142857142857 229.71428571428572 Q 74.28571428571429 240 74.28571428571429 256 Q 74.28571428571429 272 84.57142857142857 282.2857142857143 Q 94.85714285714286 292.57142857142856 110.85714285714286 292.57142857142856 L 129.14285714285714 292.57142857142856 L 129.14285714285714 292.57142857142856 L 129.14285714285714 344 L 129.14285714285714 344 Q 129.14285714285714 373.7142857142857 113.14285714285714 400 L 80 457.14285714285717 L 80 457.14285714285717 Q 69.71428571428571 475.42857142857144 78.85714285714286 493.7142857142857 Q 90.28571428571429 510.85714285714283 110.85714285714286 512 L 403.42857142857144 512 L 403.42857142857144 512 Q 419.42857142857144 512 429.7142857142857 501.7142857142857 Q 440 491.42857142857144 440 475.42857142857144 Q 440 459.42857142857144 429.7142857142857 449.14285714285717 Q 419.42857142857144 438.85714285714283 403.42857142857144 438.85714285714283 L 176 438.85714285714283 L 176 438.85714285714283 L 176 437.7142857142857 L 176 437.7142857142857 Q 202.28571428571428 394.2857142857143 202.28571428571428 344 L 202.28571428571428 292.57142857142856 L 202.28571428571428 292.57142857142856 L 330.2857142857143 292.57142857142856 L 330.2857142857143 292.57142857142856 Q 346.2857142857143 292.57142857142856 356.57142857142856 282.2857142857143 Q 366.85714285714283 272 366.85714285714283 256 Q 366.85714285714283 240 356.57142857142856 229.71428571428572 Q 346.2857142857143 219.42857142857142 330.2857142857143 219.42857142857142 L 202.28571428571428 219.42857142857142 L 202.28571428571428 219.42857142857142 L 202.28571428571428 146.28571428571428 L 202.28571428571428 146.28571428571428 Z" />
</svg>