<svg xmlns="http://www.w3.org/2000/svg" viewBox="0 0 640 514">
    <path d="M 221 20 L 303 184 L 267 256 L 163 48 Q 158 36 162 24 Q 166 12 178 5 Q 190 0 202 4 Q 214 8 221 20 L 221 20 Z M 373 324 L 388 354 L 544 354 L 544 482 L 544 514 L 480 514 L 480 514 L 436 514 Q 397 513 379 479 L 337 396 L 373 324 L 373 324 Z M 576 354 L 608 354 Q 622 354 631 363 Q 640 372 640 386 L 640 482 Q 640 496 631 505 Q 622 514 608 514 L 576 514 L 576 354 L 576 354 Z M 462 5 Q 474 12 478 24 L 478 24 Q 482 36 477 48 L 262 479 Q 243 513 204 514 L 160 514 L 128 514 L 96 514 L 96 482 L 96 354 L 252 354 L 419 20 Q 426 8 438 4 Q 450 0 462 5 L 462 5 Z M 0 386 Q 0 372 9 363 L 9 363 Q 18 354 32 354 L 64 354 L 64 514 L 32 514 Q 18 514 9 505 Q 0 496 0 482 L 0 386 L 0 386 Z"/>
</svg>
