<svg xmlns="http://www.w3.org/2000/svg" viewBox="0 0 384 512">
    <path d="M 64 0 Q 37 1 19 19 L 19 19 Q 1 37 0 64 L 0 448 Q 1 475 19 493 Q 37 511 64 512 L 320 512 Q 347 511 365 493 Q 383 475 384 448 L 384 160 L 256 160 Q 242 160 233 151 Q 224 142 224 128 L 224 0 L 64 0 L 64 0 Z M 256 0 L 256 128 L 384 128 L 256 0 L 256 0 Z M 192 240 Q 214 242 216 264 L 216 312 L 264 312 Q 286 314 288 336 Q 286 358 264 360 L 216 360 L 216 408 Q 214 430 192 432 Q 170 430 168 408 L 168 360 L 120 360 Q 98 358 96 336 Q 98 314 120 312 L 168 312 L 168 264 Q 170 242 192 240 L 192 240 Z"/>
</svg>
