<svg xmlns="http://www.w3.org/2000/svg" viewBox="0 0 512 512">
  <path d="M 313 34.5 Q 333 38.5 344 54.5 L 344 54.5 L 344 54.5 Q 355 70.5 351 90.5 L 349 102.5 L 349 102.5 Q 341 142.5 320 177.5 L 464 177.5 L 464 177.5 Q 484 178.5 498 191.5 Q 511 205.5 512 225.5 Q 511 254.5 486 268.5 Q 503 282.5 504 305.5 Q 504 323.5 493 336.5 Q 482 349.5 465 352.5 Q 472 363.5 472 377.5 Q 470 411.5 439 423.5 Q 440 428.5 440 433.5 Q 439 453.5 426 467.5 Q 412 480.5 392 481.5 L 295 481.5 L 295 481.5 Q 265 481.5 241 465.5 L 203 439.5 L 203 439.5 Q 161 410.5 160 359.5 L 160 321.5 L 160 321.5 L 160 273.5 L 160 273.5 L 160 248.5 L 160 248.5 Q 161 202.5 196 173.5 L 203 167.5 L 203 167.5 Q 244 134.5 255 83.5 L 257 72.5 L 257 72.5 Q 261 52.5 277 41.5 Q 293 30.5 313 34.5 L 313 34.5 Z M 32 193.5 L 96 193.5 L 32 193.5 L 96 193.5 Q 110 193.5 119 202.5 Q 128 211.5 128 225.5 L 128 449.5 L 128 449.5 Q 128 463.5 119 472.5 Q 110 481.5 96 481.5 L 32 481.5 L 32 481.5 Q 18 481.5 9 472.5 Q 0 463.5 0 449.5 L 0 225.5 L 0 225.5 Q 0 211.5 9 202.5 Q 18 193.5 32 193.5 L 32 193.5 Z" />
</svg>