<svg xmlns="http://www.w3.org/2000/svg" viewBox="0 0 448 448">
    <path d="M 400 288 Q 420 287 434 274 L 434 274 Q 447 260 448 240 L 448 208 Q 447 188 434 174 Q 420 161 400 160 L 48 160 Q 28 161 14 174 Q 1 188 0 208 L 0 240 Q 1 260 14 274 Q 28 287 48 288 L 400 288 L 400 288 Z M 208 448 Q 228 447 242 434 L 242 434 Q 255 420 256 400 L 256 368 Q 255 348 242 334 Q 228 321 208 320 L 48 320 Q 28 321 14 334 Q 1 348 0 368 L 0 400 Q 1 420 14 434 Q 28 447 48 448 L 208 448 L 208 448 Z M 384 80 L 384 48 Q 383 28 370 14 Q 356 1 336 0 L 48 0 Q 28 1 14 14 Q 1 28 0 48 L 0 80 Q 1 100 14 114 Q 28 127 48 128 L 336 128 Q 356 127 370 114 Q 383 100 384 80 L 384 80 Z"/>
</svg>
