<svg xmlns="http://www.w3.org/2000/svg" viewBox="0 0 512 512">
  <path d="M 269 1 Q 260 0 254 7 Q 249 14 252 22 Q 256 34 256 48 Q 255 82 233 105 Q 210 127 176 128 L 160 128 L 160 128 Q 133 129 115 147 Q 97 165 96 192 Q 97 222 118 240 L 104 240 L 104 240 Q 73 241 53 261 Q 33 281 32 312 Q 33 348 60 369 Q 34 374 17 393 Q 1 413 0 440 Q 1 471 21 491 Q 41 511 72 512 L 440 512 L 440 512 Q 471 511 491 491 Q 511 471 512 440 Q 511 413 495 393 Q 478 374 452 369 Q 479 348 480 312 Q 479 281 459 261 Q 439 241 408 240 L 394 240 L 394 240 Q 415 222 416 192 Q 415 165 397 147 Q 379 129 352 128 L 347 128 L 347 128 Q 352 113 352 96 Q 351 59 328 33 Q 305 7 269 1 L 269 1 Z M 192 256 Q 206 256 215 265 L 215 265 L 215 265 Q 224 274 224 288 Q 224 302 215 311 Q 206 320 192 320 Q 178 320 169 311 Q 160 302 160 288 Q 160 274 169 265 Q 178 256 192 256 L 192 256 Z M 288 288 Q 288 274 297 265 L 297 265 L 297 265 Q 306 256 320 256 Q 334 256 343 265 Q 352 274 352 288 Q 352 302 343 311 Q 334 320 320 320 Q 306 320 297 311 Q 288 302 288 288 L 288 288 Z M 352 396 Q 352 400 350 403 Q 344 413 320 429 Q 297 446 256 448 Q 215 446 192 429 Q 168 413 162 403 Q 160 400 160 396 Q 161 385 172 384 L 340 384 L 340 384 Q 351 385 352 396 L 352 396 Z" />
</svg>