<svg xmlns="http://www.w3.org/2000/svg" viewBox="0 0 522 456">
    <path d="M 122 10 Q 129 0 141 0 L 381 0 Q 393 0 400 10 L 512 162 Q 522 178 511 192 L 279 448 Q 272 456 261 456 Q 250 456 243 448 L 11 192 Q 0 178 10 162 L 122 10 L 122 10 Z M 160 50 Q 155 54 158 60 L 216 156 L 68 168 Q 62 169 61 176 Q 62 183 68 184 L 260 200 Q 261 200 261 200 Q 261 200 262 200 L 454 184 Q 460 183 461 176 Q 460 169 454 168 L 307 156 L 364 60 Q 367 54 362 50 Q 356 46 351 51 L 261 148 L 171 51 Q 166 46 160 50 L 160 50 Z"/>
</svg>
