<svg xmlns="http://www.w3.org/2000/svg" viewBox="0 0 512 512">
  <path d="M 64 6.736842 Q 87.57895 0 104.42105 17.964912 L 399.7193 372.77194 L 399.7193 372.77194 L 399.7193 40.42105 L 399.7193 40.42105 Q 399.7193 24.701754 409.82455 14.596491 Q 419.9298 4.491228 435.6491 4.491228 Q 451.3684 4.491228 461.4737 14.596491 Q 471.57895 24.701754 471.57895 40.42105 L 471.57895 471.57895 L 471.57895 471.57895 Q 470.45615 496.2807 448 505.26315 Q 424.42105 512 407.57895 495.1579 L 112.2807 139.22807 L 112.2807 139.22807 L 112.2807 471.57895 L 112.2807 471.57895 Q 112.2807 487.29825 102.17544 497.4035 Q 92.070175 507.50876 76.350876 507.50876 Q 60.63158 507.50876 50.526318 497.4035 Q 40.42105 487.29825 40.42105 471.57895 L 40.42105 40.42105 L 40.42105 40.42105 Q 41.54386 15.719298 64 6.736842 L 64 6.736842 Z" />
</svg>