<svg xmlns="http://www.w3.org/2000/svg" viewBox="0 0 512 512">
  <path d="M 256 0 Q 326 1 384 34 L 384 34 L 384 34 Q 442 68 478 128 Q 512 189 512 256 Q 512 323 478 384 Q 442 444 384 478 Q 326 511 256 512 Q 186 511 128 478 Q 70 444 34 384 Q 0 323 0 256 Q 0 189 34 128 Q 70 68 128 34 Q 186 1 256 0 L 256 0 Z M 325 129 Q 309 126 302 140 L 282 188 L 282 188 Q 277 202 287 212 L 312 232 L 312 232 Q 286 286 232 312 L 212 287 L 212 287 Q 202 277 188 282 L 140 302 L 140 302 Q 126 309 129 325 L 141 369 L 141 369 Q 145 383 160 384 Q 223 383 273 353 Q 324 324 353 273 Q 383 223 384 160 Q 383 145 369 141 L 325 129 L 325 129 Z" />
</svg>