<svg xmlns="http://www.w3.org/2000/svg" viewBox="0 0 512 512">
  <path d="M 384.9922480620155 52.78759689922481 Q 373.8790697674419 52.78759689922481 366.7348837209302 59.93178294573644 L 366.7348837209302 59.93178294573644 L 366.7348837209302 59.93178294573644 Q 359.5906976744186 67.07596899224806 359.5906976744186 78.18914728682171 L 359.5906976744186 205.1968992248062 L 359.5906976744186 205.1968992248062 L 359.5906976744186 459.2124031007752 L 359.5906976744186 459.2124031007752 L 410.3937984496124 459.2124031007752 L 410.3937984496124 459.2124031007752 L 410.3937984496124 205.1968992248062 L 410.3937984496124 205.1968992248062 L 499.29922480620155 205.1968992248062 L 499.29922480620155 205.1968992248062 Q 511.2062015503876 204.4031007751938 512 192.49612403100775 L 512 90.88992248062016 L 512 90.88992248062016 Q 511.2062015503876 78.9829457364341 499.29922480620155 78.18914728682171 L 410.3937984496124 78.18914728682171 L 410.3937984496124 78.18914728682171 Q 410.3937984496124 67.07596899224806 403.2496124031008 59.93178294573644 Q 396.10542635658913 52.78759689922481 384.9922480620155 52.78759689922481 L 384.9922480620155 52.78759689922481 Z M 334.1891472868217 179.0015503875969 L 223.85116279069769 84.53953488372093 L 334.1891472868217 179.0015503875969 L 223.85116279069769 84.53953488372093 Q 207.1813953488372 71.83875968992248 190.51162790697674 84.53953488372093 L 12.70077519379845 236.94883720930233 L 12.70077519379845 236.94883720930233 Q 0 248.06201550387595 5.556589147286822 264.7317829457364 Q 11.906976744186046 280.6077519379845 29.370542635658914 281.4015503875969 L 54.77209302325581 281.4015503875969 L 54.77209302325581 281.4015503875969 L 54.77209302325581 433.8108527131783 L 54.77209302325581 433.8108527131783 Q 54.77209302325581 444.9240310077519 61.91627906976744 452.0682170542636 Q 69.06046511627908 459.2124031007752 80.17364341085272 459.2124031007752 L 130.97674418604652 459.2124031007752 L 130.97674418604652 459.2124031007752 Q 142.08992248062015 459.2124031007752 149.23410852713178 452.0682170542636 Q 156.37829457364342 444.9240310077519 156.37829457364342 433.8108527131783 L 156.37829457364342 357.6062015503876 L 156.37829457364342 357.6062015503876 Q 156.37829457364342 346.49302325581397 163.52248062015505 339.3488372093023 Q 170.66666666666666 332.2046511627907 181.77984496124031 332.2046511627907 L 232.5829457364341 332.2046511627907 L 232.5829457364341 332.2046511627907 Q 243.69612403100774 332.2046511627907 250.84031007751938 339.3488372093023 Q 257.984496124031 346.49302325581397 257.984496124031 357.6062015503876 L 257.984496124031 433.8108527131783 L 257.984496124031 433.8108527131783 Q 257.984496124031 444.9240310077519 265.1286821705426 452.0682170542636 Q 272.2728682170543 459.2124031007752 283.3860465116279 459.2124031007752 L 334.9829457364341 459.2124031007752 L 334.9829457364341 459.2124031007752 L 334.9829457364341 459.2124031007752 L 334.9829457364341 459.2124031007752 L 334.1891472868217 459.2124031007752 L 334.1891472868217 459.2124031007752 L 334.1891472868217 179.0015503875969 L 334.1891472868217 179.0015503875969 Z" />
</svg>