<svg xmlns="http://www.w3.org/2000/svg" viewBox="0 0 512 512">
  <path d="M 233.13398058252426 10.935922330097087 Q 256 0 278.86601941747574 10.935922330097087 L 452.84660194174756 106.37669902912621 L 452.84660194174756 106.37669902912621 Q 460.8 111.34757281553398 461.79417475728155 120.29514563106797 Q 460.8 129.24271844660194 452.84660194174756 134.2135922330097 L 263.95339805825245 237.60776699029125 L 263.95339805825245 237.60776699029125 Q 256 241.58446601941748 248.04660194174758 237.60776699029125 L 59.15339805825243 134.2135922330097 L 59.15339805825243 134.2135922330097 Q 51.2 129.24271844660194 50.20582524271845 120.29514563106797 Q 51.2 111.34757281553398 59.15339805825243 106.37669902912621 L 233.13398058252426 10.935922330097087 L 233.13398058252426 10.935922330097087 Z M 57.16504854368932 170.00388349514563 L 232.13980582524272 265.44466019417473 L 57.16504854368932 170.00388349514563 L 232.13980582524272 265.44466019417473 Q 240.09320388349514 270.41553398058255 240.09320388349514 279.3631067961165 L 240.09320388349514 494.104854368932 L 240.09320388349514 494.104854368932 Q 240.09320388349514 503.052427184466 232.13980582524272 508.0233009708738 Q 224.1864077669903 512 216.23300970873785 508.0233009708738 L 58.15922330097087 421.53009708737864 L 58.15922330097087 421.53009708737864 Q 34.29902912621359 407.6116504854369 33.30485436893204 379.7747572815534 L 33.30485436893204 183.92233009708738 L 33.30485436893204 183.92233009708738 Q 33.30485436893204 174.9747572815534 41.258252427184466 170.00388349514563 Q 49.21165048543689 166.0271844660194 57.16504854368932 170.00388349514563 L 57.16504854368932 170.00388349514563 Z M 454.8349514563107 170.00388349514563 Q 462.7883495145631 166.0271844660194 470.74174757281554 170.00388349514563 Q 478.695145631068 174.9747572815534 478.695145631068 183.92233009708738 L 478.695145631068 379.7747572815534 L 478.695145631068 379.7747572815534 Q 477.7009708737864 407.6116504854369 453.8407766990291 421.53009708737864 L 295.7669902912621 508.0233009708738 L 295.7669902912621 508.0233009708738 Q 287.81359223300973 512 279.8601941747573 508.0233009708738 Q 271.90679611650484 503.052427184466 271.90679611650484 494.104854368932 L 271.90679611650484 279.3631067961165 L 271.90679611650484 279.3631067961165 Q 271.90679611650484 270.41553398058255 279.8601941747573 265.44466019417473 L 454.8349514563107 170.00388349514563 L 454.8349514563107 170.00388349514563 Z" />
</svg>