<svg xmlns="http://www.w3.org/2000/svg" viewBox="0 0 512 512">
  <path d="M 0 115.419655 Q 0.79875195 93.853355 15.176287 79.47582 L 15.176287 79.47582 L 15.176287 79.47582 Q 29.553822 65.09828 51.120125 64.29953 L 306.72073 64.29953 L 306.72073 64.29953 Q 328.28705 65.09828 342.66458 79.47582 Q 357.0421 93.853355 357.84088 115.419655 L 357.84088 140.97972 L 357.84088 140.97972 Q 341.86584 139.38222 329.88455 150.56474 Q 317.9033 160.94852 306.72073 172.13104 L 306.72073 140.97972 L 306.72073 140.97972 Q 306.72073 129.7972 299.53198 122.60842 Q 292.3432 115.419655 281.16068 115.419655 L 76.68018 115.419655 L 76.68018 115.419655 Q 65.49766 115.419655 58.30889 122.60842 Q 51.120125 129.7972 51.120125 140.97972 L 51.120125 192.09984 L 51.120125 192.09984 Q 51.120125 203.28236 58.30889 210.47115 Q 65.49766 217.65991 76.68018 217.65991 L 269.97815 217.65991 L 269.97815 217.65991 Q 264.3869 224.84868 259.5944 232.8362 Q 246.0156 253.60374 238.02808 276.76755 Q 234.03432 275.17004 230.04056 275.17004 Q 212.46802 276.76755 210.87051 294.3401 Q 212.46802 311.91263 230.04056 313.51013 L 230.04056 313.51013 L 230.04056 313.51013 Q 230.04056 315.9064 230.04056 318.30264 Q 231.63806 379.0078 269.97815 422.1404 L 51.120125 422.1404 L 51.120125 422.1404 Q 29.553822 421.34164 15.176287 406.9641 Q 0.79875195 392.58658 0 371.0203 L 0 115.419655 L 0 115.419655 Z M 95.850235 294.3401 Q 94.25273 276.76755 76.68018 275.17004 Q 59.107643 276.76755 57.51014 294.3401 Q 59.107643 311.91263 76.68018 313.51013 Q 94.25273 311.91263 95.850235 294.3401 L 95.850235 294.3401 Z M 153.36037 313.51013 Q 170.93292 311.91263 172.53043 294.3401 Q 170.93292 276.76755 153.36037 275.17004 Q 135.78783 276.76755 134.19032 294.3401 Q 135.78783 311.91263 153.36037 313.51013 L 153.36037 313.51013 Z M 383.40094 447.70047 Q 329.08582 446.10297 293.14197 410.15912 L 293.14197 410.15912 L 293.14197 410.15912 Q 257.19812 374.2153 255.60062 319.90015 Q 257.9969 273.57254 285.15445 235.23245 Q 312.312 197.6911 341.06708 176.92355 Q 347.4571 172.13104 354.64587 172.13104 Q 364.2309 172.13104 372.2184 179.31981 L 408.961 216.06241 L 408.961 216.06241 L 417.74728 207.27614 L 417.74728 207.27614 Q 425.7348 200.08736 434.52106 199.2886 Q 444.10608 199.2886 452.0936 206.47739 Q 486.43994 241.62247 499.21997 271.1763 Q 512 300.7301 511.20123 319.90015 Q 509.60373 374.2153 473.6599 410.15912 Q 437.71606 446.10297 383.40094 447.70047 L 383.40094 447.70047 Z M 434.52106 358.24023 Q 432.92355 335.87518 417.74728 316.70514 L 417.74728 316.70514 L 417.74728 316.70514 Q 402.57098 297.5351 390.5897 287.95007 Q 383.40094 282.35883 376.21216 287.95007 Q 364.2309 297.5351 349.0546 316.70514 Q 333.87833 335.87518 332.28082 358.24023 Q 333.07956 379.80655 347.4571 394.18408 Q 361.83463 408.5616 383.40094 409.36038 Q 404.96722 408.5616 419.3448 394.18408 Q 433.72232 379.80655 434.52106 358.24023 L 434.52106 358.24023 Z" />
</svg>