<svg xmlns="http://www.w3.org/2000/svg" viewBox="0 0 658 466">
    <path d="M 9 73 Q 10 37 41 18 Q 73 0 105 18 Q 136 37 137 73 Q 136 109 105 128 Q 73 146 41 128 Q 10 109 9 73 L 9 73 Z M 233 249 Q 248 248 249 233 Q 248 218 233 217 Q 218 218 217 233 Q 218 248 233 249 L 233 249 Z M 233 169 Q 269 170 288 201 Q 306 233 288 265 Q 269 296 233 297 Q 197 296 178 265 Q 160 233 178 201 Q 197 170 233 169 L 233 169 Z M 89 393 Q 88 378 73 377 Q 58 378 57 393 Q 58 408 73 409 Q 88 408 89 393 L 89 393 Z M 9 393 Q 10 357 41 338 Q 73 320 105 338 Q 136 357 137 393 Q 136 429 105 448 Q 73 466 41 448 Q 10 429 9 393 L 9 393 Z M 249 393 Q 248 378 233 377 Q 218 378 217 393 Q 218 408 233 409 Q 248 408 249 393 L 249 393 Z M 169 393 Q 170 357 201 338 Q 233 320 265 338 Q 296 357 297 393 Q 296 429 265 448 Q 233 466 201 448 Q 170 429 169 393 L 169 393 Z M 73 169 Q 109 170 128 201 Q 146 233 128 265 Q 109 296 73 297 Q 37 296 18 265 Q 0 233 18 201 Q 37 170 73 169 L 73 169 Z M 233 9 Q 269 10 288 41 Q 306 73 288 105 Q 269 136 233 137 Q 197 136 178 105 Q 160 73 178 41 Q 197 10 233 9 L 233 9 Z M 361 73 Q 362 37 393 18 Q 425 0 457 18 Q 488 37 489 73 Q 488 109 457 128 Q 425 146 393 128 Q 362 109 361 73 L 361 73 Z M 601 73 Q 600 58 585 57 Q 570 58 569 73 Q 570 88 585 89 Q 600 88 601 73 L 601 73 Z M 521 73 Q 522 37 553 18 Q 585 0 617 18 Q 648 37 649 73 Q 648 109 617 128 Q 585 146 553 128 Q 522 109 521 73 L 521 73 Z M 585 249 Q 600 248 601 233 Q 600 218 585 217 Q 570 218 569 233 Q 570 248 585 249 L 585 249 Z M 585 169 Q 621 170 640 201 Q 658 233 640 265 Q 621 296 585 297 Q 549 296 530 265 Q 512 233 530 201 Q 549 170 585 169 L 585 169 Z M 601 393 Q 600 378 585 377 Q 570 378 569 393 Q 570 408 585 409 Q 600 408 601 393 L 601 393 Z M 521 393 Q 522 357 553 338 Q 585 320 617 338 Q 648 357 649 393 Q 648 429 617 448 Q 585 466 553 448 Q 522 429 521 393 L 521 393 Z M 425 249 Q 440 248 441 233 Q 440 218 425 217 Q 410 218 409 233 Q 410 248 425 249 L 425 249 Z M 425 169 Q 461 170 480 201 Q 498 233 480 265 Q 461 296 425 297 Q 389 296 370 265 Q 352 233 370 201 Q 389 170 425 169 L 425 169 Z M 441 393 Q 440 378 425 377 Q 410 378 409 393 Q 410 408 425 409 Q 440 408 441 393 L 441 393 Z M 361 393 Q 362 357 393 338 Q 425 320 457 338 Q 488 357 489 393 Q 488 429 457 448 Q 425 466 393 448 Q 362 429 361 393 L 361 393 Z"/>
</svg>
