<svg xmlns="http://www.w3.org/2000/svg" viewBox="0 0 512 512">
  <path d="M 314.66666 89.77778 Q 325.33334 72 346.66666 71.111115 L 348.44446 71.111115 L 348.44446 71.111115 Q 363.55554 71.111115 373.33334 81.77778 Q 384 91.55556 384 106.666664 Q 384 121.77778 373.33334 131.55556 Q 363.55554 142.22223 348.44446 142.22223 L 284.44446 142.22223 L 283.55554 142.22223 L 314.66666 89.77778 L 314.66666 89.77778 Z M 198.22223 89.77778 L 228.44444 142.22223 L 198.22223 89.77778 L 228.44444 142.22223 L 227.55556 142.22223 L 163.55556 142.22223 Q 148.44444 142.22223 138.66667 131.55556 Q 128 121.77778 128 106.666664 Q 128 91.55556 138.66667 81.77778 Q 148.44444 71.111115 163.55556 71.111115 L 165.33333 71.111115 L 165.33333 71.111115 Q 186.66667 72 198.22223 89.77778 L 198.22223 89.77778 Z M 277.33334 68.44444 L 256 104.888885 L 277.33334 68.44444 L 256 104.888885 L 234.66667 68.44444 L 234.66667 68.44444 Q 210.66667 30.222221 165.33333 28.444445 L 163.55556 28.444445 L 163.55556 28.444445 Q 130.66667 29.333334 108.44444 51.555557 Q 86.22222 73.77778 85.333336 106.666664 Q 85.333336 126.22222 94.22222 142.22223 L 56.88889 142.22223 L 56.88889 142.22223 Q 32.88889 143.11111 16.88889 159.11111 Q 0.8888889 175.11111 0 199.11111 L 0 426.66666 L 0 426.66666 Q 0.8888889 450.66666 16.88889 466.66666 Q 32.88889 482.66666 56.88889 483.55554 L 455.1111 483.55554 L 455.1111 483.55554 Q 479.1111 482.66666 495.1111 466.66666 Q 511.1111 450.66666 512 426.66666 L 512 199.11111 L 512 199.11111 Q 511.1111 175.11111 495.1111 159.11111 Q 479.1111 143.11111 455.1111 142.22223 L 417.77777 142.22223 L 417.77777 142.22223 Q 426.66666 126.22222 426.66666 106.666664 Q 425.77777 73.77778 403.55554 51.555557 Q 381.33334 29.333334 348.44446 28.444445 L 346.66666 28.444445 L 346.66666 28.444445 Q 301.33334 30.222221 277.33334 67.55556 L 277.33334 68.44444 Z M 455.1111 369.77777 L 455.1111 426.66666 L 455.1111 369.77777 L 455.1111 426.66666 L 56.88889 426.66666 L 56.88889 426.66666 L 56.88889 369.77777 L 56.88889 369.77777 L 455.1111 369.77777 L 455.1111 369.77777 Z M 455.1111 312.8889 L 56.88889 312.8889 L 455.1111 312.8889 L 56.88889 312.8889 L 56.88889 199.11111 L 56.88889 199.11111 L 204.44444 199.11111 L 204.44444 199.11111 L 168.88889 242.66667 L 168.88889 242.66667 Q 157.33333 258.66666 171.55556 272 Q 187.55556 283.55554 201.77777 269.33334 L 256 204.44444 L 256 204.44444 L 311.1111 269.33334 L 311.1111 269.33334 Q 324.44446 283.55554 340.44446 272.8889 Q 354.66666 258.66666 344 242.66667 L 307.55554 199.11111 L 307.55554 199.11111 L 455.1111 199.11111 L 455.1111 199.11111 L 455.1111 312.8889 L 455.1111 312.8889 Z" />
</svg>