<svg xmlns="http://www.w3.org/2000/svg" viewBox="0 0 512 512">
  <path d="M 288 32 Q 288 46 297 55 L 297 55 L 297 55 Q 306 64 320 64 L 352 64 L 352 64 Q 366 64 375 73 Q 384 82 384 96 Q 384 110 375 119 Q 366 128 352 128 L 32 128 L 32 128 Q 18 128 9 137 Q 0 146 0 160 Q 0 174 9 183 Q 18 192 32 192 L 352 192 L 352 192 Q 393 191 420 164 Q 447 137 448 96 Q 447 55 420 28 Q 393 1 352 0 L 320 0 L 320 0 Q 306 0 297 9 Q 288 18 288 32 L 288 32 Z M 352 384 Q 352 398 361 407 L 361 407 L 361 407 Q 370 416 384 416 L 416 416 L 416 416 Q 457 415 484 388 Q 511 361 512 320 Q 511 279 484 252 Q 457 225 416 224 L 32 224 L 32 224 Q 18 224 9 233 Q 0 242 0 256 Q 0 270 9 279 Q 18 288 32 288 L 416 288 L 416 288 Q 430 288 439 297 Q 448 306 448 320 Q 448 334 439 343 Q 430 352 416 352 L 384 352 L 384 352 Q 370 352 361 361 Q 352 370 352 384 L 352 384 Z M 128 512 L 160 512 L 128 512 L 160 512 Q 201 511 228 484 Q 255 457 256 416 Q 255 375 228 348 Q 201 321 160 320 L 32 320 L 32 320 Q 18 320 9 329 Q 0 338 0 352 Q 0 366 9 375 Q 18 384 32 384 L 160 384 L 160 384 Q 174 384 183 393 Q 192 402 192 416 Q 192 430 183 439 Q 174 448 160 448 L 128 448 L 128 448 Q 114 448 105 457 Q 96 466 96 480 Q 96 494 105 503 Q 114 512 128 512 L 128 512 Z" />
</svg>