<svg xmlns="http://www.w3.org/2000/svg" viewBox="0 0 640 480">
    <path d="M 96 96 Q 96 82 105 73 L 105 73 Q 114 64 128 64 Q 142 64 151 73 Q 160 82 160 96 L 160 104 Q 160 145 153 186 L 68 212 Q 37 221 19 246 Q 0 271 0 304 L 0 376 Q 1 406 21 427 Q 42 447 73 448 Q 114 447 135 412 L 149 387 Q 190 316 208 237 L 302 208 L 290 246 Q 285 261 294 275 Q 304 288 320 288 L 393 288 Q 401 273 416 265 L 416 240 Q 416 232 417 224 L 364 224 L 382 170 Q 388 152 375 138 Q 361 125 343 129 L 220 166 Q 224 135 224 104 L 224 96 Q 223 55 196 28 Q 169 1 128 0 Q 87 1 60 28 Q 33 55 32 96 L 32 128 Q 32 142 41 151 Q 50 160 64 160 Q 78 160 87 151 Q 96 142 96 128 L 96 96 L 96 96 Z M 210 336 Q 200 360 188 384 L 384 384 L 384 336 L 210 336 L 210 336 Z M 87 273 L 136 258 Q 120 309 94 356 L 80 380 Q 77 384 73 384 Q 65 383 64 376 L 64 304 Q 65 281 87 273 L 87 273 Z M 528 208 Q 542 208 551 217 L 551 217 Q 560 226 560 240 L 560 288 L 496 288 L 496 240 Q 496 226 505 217 Q 514 208 528 208 L 528 208 Z M 448 240 L 448 288 Q 434 288 425 297 Q 416 306 416 320 L 416 448 Q 416 462 425 471 Q 434 480 448 480 L 608 480 Q 622 480 631 471 Q 640 462 640 448 L 640 320 Q 640 306 631 297 Q 622 288 608 288 L 608 240 Q 607 206 585 183 Q 562 161 528 160 Q 494 161 471 183 Q 449 206 448 240 L 448 240 Z"/>
</svg>
