<svg xmlns="http://www.w3.org/2000/svg" viewBox="0 0 512 512">
  <path d="M 256 512 Q 326 511 384 478 L 384 478 L 384 478 Q 442 444 478 384 Q 512 323 512 256 Q 512 189 478 128 Q 442 68 384 34 Q 326 1 256 0 Q 186 1 128 34 Q 70 68 34 128 Q 0 189 0 256 Q 0 323 34 384 Q 70 444 128 478 Q 186 511 256 512 L 256 512 Z M 388 313 Q 398 310 404 316 L 404 316 L 404 316 Q 411 322 407 332 Q 388 377 348 404 Q 308 431 256 432 Q 205 431 165 404 Q 125 377 105 332 Q 102 322 108 316 Q 115 310 124 313 Q 185 331 256 332 Q 328 331 388 313 L 388 313 Z M 134 147 L 223 195 L 134 147 L 223 195 Q 231 199 231 208 Q 231 217 223 221 L 134 269 L 134 269 Q 127 272 122 269 Q 116 266 116 259 Q 116 254 119 251 L 155 208 L 155 208 L 119 165 L 119 165 Q 116 162 116 157 Q 116 150 122 147 Q 127 144 134 147 L 134 147 Z M 396 157 Q 396 161 393 165 L 357 208 L 357 208 L 393 251 L 393 251 Q 396 254 396 259 Q 396 266 390 269 Q 385 272 379 269 L 289 221 L 289 221 Q 281 216 281 208 Q 281 199 289 195 L 379 147 L 379 147 Q 385 144 390 147 Q 396 150 396 157 L 396 157 Z" />
</svg>