<svg xmlns="http://www.w3.org/2000/svg" viewBox="0 0 512 512">
  <path d="M 0 128 L 0 384 L 0 128 L 0 384 Q 0 395.2 7.2 402.4 Q 14.4 409.6 25.6 409.6 Q 36.8 409.6 44 402.4 Q 51.2 395.2 51.2 384 L 51.2 128 L 51.2 128 Q 51.2 116.8 44 109.6 Q 36.8 102.4 25.6 102.4 Q 14.4 102.4 7.2 109.6 Q 0 116.8 0 128 L 0 128 Z M 109.6 237.6 Q 102.4 245.6 102.4 256 L 102.4 256 L 102.4 256 Q 102.4 266.4 109.6 274.4 L 212 376.8 L 212 376.8 Q 220 384 230.4 384 Q 240.8 384 248.8 376.8 Q 256 368.8 256 358.4 Q 256 348 248.8 340 L 189.6 281.6 L 189.6 281.6 L 486.4 281.6 L 486.4 281.6 Q 497.6 281.6 504.8 274.4 Q 512 267.2 512 256 Q 512 244.8 504.8 237.6 Q 497.6 230.4 486.4 230.4 L 189.6 230.4 L 189.6 230.4 L 248.8 172 L 248.8 172 Q 256 164 256 153.6 Q 256 143.2 248.8 135.2 Q 240.8 128 230.4 128 Q 220 128 212 135.2 L 109.6 237.6 L 109.6 237.6 Z" />
</svg>