<svg xmlns="http://www.w3.org/2000/svg" viewBox="0 0 568 512">
    <path d="M 256 16 Q 189 17 135 49 L 135 49 Q 81 81 49 135 L 49 135 Q 17 189 16 256 Q 17 323 49 377 Q 81 431 135 463 Q 189 495 256 496 Q 322 495 376 464 Q 382 461 387 467 Q 390 474 384 478 Q 327 511 256 512 Q 184 511 127 477 Q 69 443 35 385 Q 1 328 0 256 Q 1 184 35 127 Q 69 69 127 35 Q 184 1 256 0 Q 325 1 381 32 Q 437 64 471 118 Q 506 171 511 239 Q 511 246 504 247 Q 496 247 495 240 Q 487 144 420 81 Q 354 18 256 16 L 256 16 Z M 256 416 Q 270 416 279 407 L 279 407 Q 288 398 288 384 Q 288 370 279 361 Q 270 352 256 352 Q 242 352 233 361 Q 224 370 224 384 Q 224 398 233 407 Q 242 416 256 416 L 256 416 Z M 256 336 Q 283 337 298 360 Q 310 384 298 408 Q 283 431 256 432 Q 229 431 214 408 Q 202 384 214 360 Q 229 337 256 336 L 256 336 Z M 311 244 Q 328 273 352 272 Q 375 273 393 244 Q 397 238 404 241 Q 410 245 407 252 Q 385 287 352 288 Q 318 287 297 252 Q 293 245 300 241 Q 306 238 311 244 L 311 244 Z M 160 272 Q 183 273 201 244 Q 205 238 212 241 Q 218 245 215 252 Q 193 287 160 288 Q 126 287 105 252 Q 102 245 108 241 Q 114 238 119 244 Q 136 273 160 272 L 160 272 Z M 495 296 Q 513 296 525 308 L 525 308 Q 537 320 539 337 Q 566 351 568 384 Q 566 417 539 431 Q 537 448 525 460 Q 513 472 495 472 Q 474 471 461 456 Q 457 457 452 457 Q 433 457 421 444 Q 408 432 408 413 Q 408 412 408 412 L 342 392 Q 336 390 336 384 Q 336 378 342 376 L 408 356 Q 411 339 423 329 Q 435 318 452 318 Q 454 318 457 318 Q 469 297 495 296 L 495 296 Z M 469 330 Q 466 336 459 335 Q 456 334 452 334 Q 440 334 432 342 Q 424 350 424 362 Q 424 368 418 370 L 372 384 L 419 398 Q 425 401 424 408 Q 424 410 424 413 Q 424 425 432 433 Q 440 441 452 442 Q 457 442 462 440 Q 468 438 471 443 Q 479 455 495 456 Q 507 456 515 448 Q 522 440 523 428 Q 523 427 523 426 Q 523 420 528 418 Q 550 409 552 384 Q 550 359 528 350 Q 523 348 523 342 Q 523 342 523 341 Q 523 341 523 340 Q 522 328 515 320 Q 507 312 495 312 Q 476 313 469 330 L 469 330 Z"/>
</svg>
