<svg xmlns="http://www.w3.org/2000/svg" viewBox="0 0 448 512">
    <path d="M 336 128 Q 336 120 335 112 L 312 112 Q 277 111 255 85 L 251 90 Q 219 127 171 128 L 112 128 L 112 144 Q 113 192 145 223 Q 176 255 224 256 Q 272 255 303 223 Q 335 192 336 144 L 336 128 L 336 128 Z M 267 74 Q 284 95 312 96 L 331 96 Q 321 61 292 39 L 266 72 L 267 74 L 267 74 Z M 279 30 Q 254 16 224 16 Q 181 17 150 44 Q 120 70 113 112 L 171 112 Q 212 111 239 80 L 279 30 L 279 30 Z M 96 128 Q 97 74 133 37 L 133 37 Q 170 1 224 0 Q 278 1 315 37 Q 351 74 352 128 L 352 144 Q 351 198 315 235 Q 278 271 224 272 Q 170 271 133 235 Q 97 198 96 144 L 96 128 L 96 128 Z M 177 308 Q 179 304 184 304 L 264 304 Q 269 304 271 308 Q 273 313 271 317 L 233 369 L 257 415 L 304 321 Q 366 329 406 373 Q 447 417 448 481 Q 448 494 439 503 Q 430 512 417 512 L 226 512 L 222 512 L 31 512 Q 18 512 9 503 Q 0 494 0 481 Q 1 417 42 373 Q 82 329 144 321 L 192 415 L 215 369 L 178 317 Q 175 313 177 308 L 177 308 Z M 200 320 L 224 354 L 249 320 L 200 320 L 200 320 Z M 210 487 L 135 338 Q 83 349 50 388 Q 17 427 16 481 Q 17 495 31 496 L 214 496 L 210 487 L 210 487 Z M 200 433 L 215 462 L 224 480 L 233 462 L 248 433 L 224 386 L 201 433 L 200 433 Z M 432 481 Q 431 427 398 388 L 398 388 Q 365 349 313 338 L 238 487 L 234 496 L 417 496 Q 431 495 432 481 L 432 481 Z"/>
</svg>
