<svg xmlns="http://www.w3.org/2000/svg" viewBox="0 0 512 512">
  <path d="M 10.617512 18.875576 Q 11.7972355 1.1797235 29.493088 0 Q 47.188942 1.1797235 48.368664 18.875576 Q 47.188942 36.57143 29.493088 37.751152 Q 11.7972355 36.57143 10.617512 18.875576 L 10.617512 18.875576 Z M 142.74654 0 Q 160.4424 1.1797235 161.62212 18.875576 Q 160.4424 36.57143 142.74654 37.751152 Q 125.05069 36.57143 123.870964 18.875576 Q 125.05069 1.1797235 142.74654 0 L 142.74654 0 Z M 256 0 Q 273.69586 1.1797235 274.87558 18.875576 Q 273.69586 36.57143 256 37.751152 Q 238.30415 36.57143 237.12442 18.875576 Q 238.30415 1.1797235 256 0 L 256 0 Z M 369.25345 0 Q 386.9493 1.1797235 388.12903 18.875576 Q 386.9493 36.57143 369.25345 37.751152 Q 351.55762 36.57143 350.37787 18.875576 Q 351.55762 1.1797235 369.25345 0 L 369.25345 0 Z M 463.63135 18.875576 Q 464.81107 1.1797235 482.50693 0 Q 500.20276 1.1797235 501.38248 18.875576 Q 500.20276 36.57143 482.50693 37.751152 Q 464.81107 36.57143 463.63135 18.875576 L 463.63135 18.875576 Z M 423.52075 346.8387 L 263.07834 507.2811 L 423.52075 346.8387 L 263.07834 507.2811 Q 256 512 248.92166 507.2811 L 88.47926 346.8387 L 88.47926 346.8387 Q 83.76037 339.76038 88.47926 332.68204 Q 95.5576 327.96313 102.63595 332.68204 L 246.56221 477.78802 L 246.56221 477.78802 L 246.56221 330.32257 L 246.56221 330.32257 L 246.56221 141.56682 L 246.56221 141.56682 Q 247.74193 133.30876 256 132.12903 Q 264.25806 133.30876 265.43777 141.56682 L 265.43777 330.32257 L 265.43777 330.32257 L 265.43777 477.78802 L 265.43777 477.78802 L 409.36404 332.68204 L 409.36404 332.68204 Q 416.44238 327.96313 423.52075 332.68204 Q 428.23962 339.76038 423.52075 346.8387 L 423.52075 346.8387 Z" />
</svg>