<svg xmlns="http://www.w3.org/2000/svg" viewBox="0 0 512 512">
  <path d="M 1.6953642 45.209713 Q 1.6953642 25.995584 15.258278 13.562914 L 15.258278 13.562914 L 15.258278 13.562914 Q 27.690948 0 46.90508 0 L 137.32451 0 L 137.32451 0 Q 202.87859 1.1302428 245.82782 45.209713 Q 289.9073 88.15894 291.03754 153.71303 Q 289.9073 213.61589 252.60927 255.43488 Q 216.4415 297.25388 158.79912 306.2958 L 227.74393 493.9161 L 227.74393 493.9161 Q 228.87418 501.82782 222.09271 506.3488 Q 214.18102 507.47903 209.66005 500.69757 L 139.58499 307.42606 L 139.58499 307.42606 Q 139.58499 307.42606 138.45474 307.42606 Q 138.45474 307.42606 137.32451 307.42606 L 19.77925 307.42606 L 19.77925 307.42606 L 19.77925 497.30685 L 19.77925 497.30685 Q 18.649006 505.21854 10.737307 506.3488 Q 2.825607 505.21854 1.6953642 497.30685 L 1.6953642 298.3841 L 1.6953642 298.3841 L 1.6953642 45.209713 L 1.6953642 45.209713 Z M 19.77925 289.34216 L 137.32451 289.34216 L 19.77925 289.34216 L 137.32451 289.34216 Q 194.96689 288.2119 233.39514 249.78366 Q 271.8234 211.35541 272.95364 153.71303 Q 271.8234 96.07064 233.39514 57.642384 Q 194.96689 19.214128 137.32451 18.083885 L 46.90508 18.083885 L 46.90508 18.083885 Q 22.039736 20.344372 19.77925 45.209713 L 19.77925 289.34216 L 19.77925 289.34216 Z M 430.0574 201.18323 Q 388.2384 194.40176 359.98233 209.09492 L 359.98233 209.09492 L 359.98233 209.09492 Q 332.8565 223.78809 328.33554 250.91391 Q 326.07504 271.25827 330.59604 282.5607 Q 336.24725 294.99338 347.54968 304.0353 Q 372.415 320.98895 409.713 332.29138 Q 410.84326 332.29138 410.84326 332.29138 L 411.9735 332.29138 L 411.9735 332.29138 Q 450.40176 343.5938 480.91833 365.06842 Q 495.61148 377.5011 503.5232 395.585 Q 510.30463 413.66888 506.9139 438.5342 Q 499.0022 479.22296 463.9647 496.1766 Q 430.0574 512 383.71744 504.0883 L 383.71744 504.0883 L 383.71744 504.0883 Q 367.89404 500.69757 348.6799 492.78586 Q 335.117 488.2649 324.94482 483.74393 L 324.94482 483.74393 L 324.94482 483.74393 Q 319.2936 481.48343 314.7726 480.3532 Q 306.86093 476.96246 309.1214 469.05078 Q 313.6424 461.13907 321.55408 463.39957 Q 326.07504 465.66003 331.72626 467.92053 L 331.72626 467.92053 L 331.72626 467.92053 Q 341.89847 471.31125 354.33112 475.8322 Q 373.54526 483.74393 387.10815 486.00443 Q 428.92715 492.78586 456.05298 480.3532 Q 483.1788 466.79028 488.83002 436.27374 Q 491.0905 414.7991 486.56955 402.36646 Q 480.91833 388.80353 469.6159 379.7616 Q 444.75055 361.6777 406.3223 349.24503 L 402.93158 349.24503 L 402.93158 349.24503 Q 402.93158 348.11478 401.80133 348.11478 Q 365.63354 337.9426 336.24725 318.7285 Q 321.55408 307.42606 314.7726 290.4724 Q 306.86093 272.38852 310.25165 248.65343 Q 317.0331 210.22516 352.07065 193.27153 Q 387.10815 176.31789 433.44812 183.09933 Q 441.35983 185.35982 456.05298 187.62032 Q 470.74612 191.01103 478.65784 194.40176 Q 486.56955 196.66225 485.4393 205.7042 Q 482.04855 212.48566 474.13687 211.35541 Q 466.22516 209.09492 451.532 205.7042 Q 437.9691 202.31346 430.0574 201.18323 L 430.0574 201.18323 Z" />
</svg>