<svg xmlns="http://www.w3.org/2000/svg" viewBox="0 0 512 512">
  <path d="M 144.9056603773585 107.87421383647799 Q 144.1006289308176 102.23899371069183 138.46540880503144 101.43396226415095 Q 132.83018867924528 102.23899371069183 132.0251572327044 107.87421383647799 L 132.0251572327044 150.54088050314465 L 132.0251572327044 150.54088050314465 L 104.65408805031447 122.36477987421384 L 104.65408805031447 122.36477987421384 Q 99.82389937106919 119.14465408805032 94.99371069182389 122.36477987421384 Q 91.77358490566037 127.19496855345912 94.99371069182389 132.0251572327044 L 132.0251572327044 168.25157232704402 L 132.0251572327044 168.25157232704402 L 132.0251572327044 244.72955974842768 L 132.0251572327044 244.72955974842768 L 66.0125786163522 206.8930817610063 L 66.0125786163522 206.8930817610063 L 52.327044025157235 156.1761006289308 L 52.327044025157235 156.1761006289308 Q 50.716981132075475 150.54088050314465 44.276729559748425 152.1509433962264 Q 38.64150943396226 153.76100628930817 40.25157232704402 160.2012578616352 L 49.911949685534594 197.23270440251574 L 49.911949685534594 197.23270440251574 L 13.685534591194969 176.30188679245282 L 13.685534591194969 176.30188679245282 Q 8.050314465408805 173.88679245283018 4.830188679245283 178.71698113207546 Q 2.4150943396226414 184.35220125786162 7.245283018867925 187.57232704402514 L 43.471698113207545 208.50314465408806 L 43.471698113207545 208.50314465408806 L 5.635220125786163 218.9685534591195 L 5.635220125786163 218.9685534591195 Q 0 220.57861635220127 1.610062893081761 227.0188679245283 Q 3.220125786163522 232.65408805031447 9.660377358490566 231.0440251572327 L 59.57232704402516 218.16352201257862 L 59.57232704402516 218.16352201257862 L 125.58490566037736 256 L 125.58490566037736 256 L 59.57232704402516 293.8364779874214 L 59.57232704402516 293.8364779874214 L 9.660377358490566 280.9559748427673 L 9.660377358490566 280.9559748427673 Q 3.220125786163522 280.1509433962264 1.610062893081761 284.9811320754717 Q 0 291.42138364779873 5.635220125786163 293.0314465408805 L 43.471698113207545 303.49685534591197 L 43.471698113207545 303.49685534591197 L 7.245283018867925 324.42767295597486 L 7.245283018867925 324.42767295597486 Q 2.4150943396226414 327.6477987421384 4.830188679245283 333.2830188679245 Q 8.050314465408805 338.1132075471698 13.685534591194969 335.6981132075472 L 49.911949685534594 314.7672955974843 L 49.911949685534594 314.7672955974843 L 40.25157232704402 352.60377358490564 L 40.25157232704402 352.60377358490564 Q 38.64150943396226 358.23899371069183 44.276729559748425 359.8490566037736 Q 50.716981132075475 360.65408805031444 52.327044025157235 355.82389937106916 L 66.0125786163522 305.1069182389937 L 66.0125786163522 305.1069182389937 L 132.0251572327044 267.2704402515723 L 132.0251572327044 267.2704402515723 L 132.0251572327044 343.748427672956 L 132.0251572327044 343.748427672956 L 94.99371069182389 379.97484276729557 L 94.99371069182389 379.97484276729557 Q 91.77358490566037 384.8050314465409 94.99371069182389 389.6352201257862 Q 99.82389937106919 392.8553459119497 104.65408805031447 389.6352201257862 L 132.0251572327044 361.45911949685535 L 132.0251572327044 361.45911949685535 L 132.0251572327044 404.12578616352204 L 132.0251572327044 404.12578616352204 Q 132.83018867924528 409.76100628930817 138.46540880503144 410.5660377358491 Q 144.1006289308176 409.76100628930817 144.9056603773585 404.12578616352204 L 144.9056603773585 361.45911949685535 L 144.9056603773585 361.45911949685535 L 172.27672955974842 389.6352201257862 L 172.27672955974842 389.6352201257862 Q 177.1069182389937 392.8553459119497 181.93710691823898 389.6352201257862 Q 185.1572327044025 384.8050314465409 181.93710691823898 379.97484276729557 L 144.9056603773585 343.748427672956 L 144.9056603773585 343.748427672956 L 144.9056603773585 267.2704402515723 L 144.9056603773585 267.2704402515723 L 210.9182389937107 305.1069182389937 L 210.9182389937107 305.1069182389937 L 224.60377358490567 355.82389937106916 L 224.60377358490567 355.82389937106916 Q 226.21383647798743 361.45911949685535 232.65408805031447 359.8490566037736 Q 238.28930817610063 358.23899371069183 236.67924528301887 352.60377358490564 L 227.0188679245283 314.7672955974843 L 227.0188679245283 314.7672955974843 L 263.24528301886795 335.6981132075472 L 263.24528301886795 335.6981132075472 Q 268.8805031446541 338.1132075471698 272.1006289308176 333.2830188679245 Q 274.5157232704403 327.6477987421384 269.685534591195 324.42767295597486 L 233.45911949685535 303.49685534591197 L 233.45911949685535 303.49685534591197 L 271.29559748427675 293.0314465408805 L 271.29559748427675 293.0314465408805 Q 276.9308176100629 291.42138364779873 275.3207547169811 285.7861635220126 Q 273.71069182389937 280.1509433962264 268.07547169811323 280.9559748427673 L 217.35849056603774 294.64150943396226 L 217.35849056603774 294.64150943396226 L 151.34591194968553 256 L 151.34591194968553 256 L 217.35849056603774 218.16352201257862 L 217.35849056603774 218.16352201257862 L 268.07547169811323 231.0440251572327 L 268.07547169811323 231.0440251572327 Q 273.71069182389937 231.8490566037736 275.3207547169811 227.0188679245283 Q 276.12578616352204 220.57861635220127 271.29559748427675 218.9685534591195 L 233.45911949685535 208.50314465408806 L 233.45911949685535 208.50314465408806 L 269.685534591195 187.57232704402514 L 269.685534591195 187.57232704402514 Q 274.5157232704403 184.35220125786162 272.1006289308176 178.71698113207546 Q 268.8805031446541 173.88679245283018 263.24528301886795 176.30188679245282 L 227.0188679245283 197.23270440251574 L 227.0188679245283 197.23270440251574 L 236.67924528301887 160.2012578616352 L 236.67924528301887 160.2012578616352 Q 237.48427672955975 153.76100628930817 232.65408805031447 152.1509433962264 Q 226.21383647798743 150.54088050314465 224.60377358490567 156.1761006289308 L 210.9182389937107 206.8930817610063 L 210.9182389937107 206.8930817610063 L 144.9056603773585 244.72955974842768 L 144.9056603773585 244.72955974842768 L 144.9056603773585 168.25157232704402 L 144.9056603773585 168.25157232704402 L 181.93710691823898 132.0251572327044 L 181.93710691823898 132.0251572327044 Q 185.1572327044025 127.19496855345912 181.93710691823898 122.36477987421384 Q 177.1069182389937 119.14465408805032 172.27672955974842 122.36477987421384 L 144.9056603773585 150.54088050314465 L 144.9056603773585 150.54088050314465 L 144.9056603773585 107.87421383647799 L 144.9056603773585 107.87421383647799 Z M 383.1949685534591 107.87421383647799 Q 384 113.50943396226415 389.6352201257862 114.31446540880503 L 447.5974842767296 114.31446540880503 L 447.5974842767296 114.31446540880503 Q 469.3333333333333 115.11949685534591 483.82389937106916 129.61006289308176 Q 498.314465408805 144.1006289308176 499.1194968553459 165.83647798742138 Q 498.314465408805 187.57232704402514 483.82389937106916 202.06289308176102 Q 469.3333333333333 216.55345911949686 447.5974842767296 217.35849056603774 L 312.3522012578616 217.35849056603774 L 312.3522012578616 217.35849056603774 Q 306.7169811320755 218.16352201257862 305.9119496855346 223.7987421383648 Q 306.7169811320755 229.43396226415095 312.3522012578616 230.23899371069183 L 447.5974842767296 230.23899371069183 L 447.5974842767296 230.23899371069183 Q 474.9685534591195 229.43396226415095 493.4842767295597 211.72327044025158 Q 511.1949685534591 193.20754716981133 512 165.83647798742138 Q 511.1949685534591 138.46540880503144 493.4842767295597 119.9496855345912 Q 474.9685534591195 102.23899371069183 447.5974842767296 101.43396226415095 L 389.6352201257862 101.43396226415095 L 389.6352201257862 101.43396226415095 Q 384 102.23899371069183 383.1949685534591 107.87421383647799 L 383.1949685534591 107.87421383647799 Z M 383.1949685534591 404.12578616352204 Q 384 409.76100628930817 389.6352201257862 410.5660377358491 L 447.5974842767296 410.5660377358491 L 447.5974842767296 410.5660377358491 Q 474.9685534591195 409.76100628930817 493.4842767295597 392.0503144654088 Q 511.1949685534591 373.5345911949685 512 346.1635220125786 Q 511.1949685534591 318.79245283018867 493.4842767295597 300.27672955974845 Q 474.9685534591195 282.5660377358491 447.5974842767296 281.76100628930817 L 312.3522012578616 281.76100628930817 L 312.3522012578616 281.76100628930817 Q 306.7169811320755 282.5660377358491 305.9119496855346 288.2012578616352 Q 306.7169811320755 293.8364779874214 312.3522012578616 294.64150943396226 L 447.5974842767296 294.64150943396226 L 447.5974842767296 294.64150943396226 Q 469.3333333333333 295.44654088050316 483.82389937106916 309.937106918239 Q 498.314465408805 324.42767295597486 499.1194968553459 346.1635220125786 Q 498.314465408805 367.8993710691824 483.82389937106916 382.38993710691824 Q 469.3333333333333 396.8805031446541 447.5974842767296 397.685534591195 L 389.6352201257862 397.685534591195 L 389.6352201257862 397.685534591195 Q 384 398.49056603773585 383.1949685534591 404.12578616352204 L 383.1949685534591 404.12578616352204 Z" />
</svg>