<svg xmlns="http://www.w3.org/2000/svg" viewBox="0 0 512 512">
  <path d="M 512 9.481482 Q 510.81482 1.1851852 502.51852 0 Q 494.22223 1.1851852 493.03705 9.481482 L 493.03705 445.62964 L 493.03705 445.62964 Q 493.03705 465.77777 478.81482 478.81482 Q 465.77777 493.03705 445.62964 493.03705 L 9.481482 493.03705 L 9.481482 493.03705 Q 1.1851852 494.22223 0 502.51852 Q 1.1851852 510.81482 9.481482 512 L 445.62964 512 L 445.62964 512 Q 474.07407 510.81482 493.03705 493.03705 Q 510.81482 474.07407 512 445.62964 L 512 9.481482 L 512 9.481482 Z M 360.2963 37.925926 Q 378.07407 36.74074 379.25925 18.962963 Q 378.07407 1.1851852 360.2963 0 Q 342.51852 1.1851852 341.33334 18.962963 Q 342.51852 36.74074 360.2963 37.925926 L 360.2963 37.925926 Z M 132.74074 37.925926 Q 150.51852 36.74074 151.7037 18.962963 Q 150.51852 1.1851852 132.74074 0 Q 114.96296 1.1851852 113.77778 18.962963 Q 114.96296 36.74074 132.74074 37.925926 L 132.74074 37.925926 Z M 246.51852 0 Q 228.74074 1.1851852 227.55556 18.962963 Q 228.74074 36.74074 246.51852 37.925926 Q 264.2963 36.74074 265.48148 18.962963 Q 264.2963 1.1851852 246.51852 0 L 246.51852 0 Z M 18.962963 37.925926 Q 36.74074 36.74074 37.925926 18.962963 Q 36.74074 1.1851852 18.962963 0 Q 1.1851852 1.1851852 0 18.962963 Q 1.1851852 36.74074 18.962963 37.925926 L 18.962963 37.925926 Z M 18.962963 227.55556 Q 1.1851852 228.74074 0 246.51852 Q 1.1851852 264.2963 18.962963 265.48148 Q 36.74074 264.2963 37.925926 246.51852 Q 36.74074 228.74074 18.962963 227.55556 L 18.962963 227.55556 Z M 18.962963 151.7037 Q 36.74074 150.51852 37.925926 132.74074 Q 36.74074 114.96296 18.962963 113.77778 Q 1.1851852 114.96296 0 132.74074 Q 1.1851852 150.51852 18.962963 151.7037 L 18.962963 151.7037 Z M 18.962963 341.33334 Q 1.1851852 342.51852 0 360.2963 Q 1.1851852 378.07407 18.962963 379.25925 Q 36.74074 378.07407 37.925926 360.2963 Q 36.74074 342.51852 18.962963 341.33334 L 18.962963 341.33334 Z" />
</svg>