<svg xmlns="http://www.w3.org/2000/svg" viewBox="0 0 512 512">
  <path d="M 64 48 Q 44 49 30 62 L 30 62 L 30 62 Q 17 76 16 96 L 16 310 L 16 310 Q 34 289 64 288 L 448 288 L 448 288 Q 478 289 496 310 L 496 96 L 496 96 Q 495 76 482 62 Q 468 49 448 48 L 64 48 L 64 48 Z M 16 352 L 16 416 L 16 352 L 16 416 Q 17 436 30 450 Q 44 463 64 464 L 448 464 L 448 464 Q 468 463 482 450 Q 495 436 496 416 L 496 352 L 496 352 Q 495 332 482 318 Q 468 305 448 304 L 64 304 L 64 304 Q 44 305 30 318 Q 17 332 16 352 L 16 352 Z M 0 352 L 0 96 L 0 352 L 0 96 Q 1 69 19 51 Q 37 33 64 32 L 448 32 L 448 32 Q 475 33 493 51 Q 511 69 512 96 L 512 352 L 512 352 L 512 416 L 512 416 Q 511 443 493 461 Q 475 479 448 480 L 64 480 L 64 480 Q 37 479 19 461 Q 1 443 0 416 L 0 352 L 0 352 Z M 320 368 Q 305 369 304 384 Q 305 399 320 400 Q 335 399 336 384 Q 335 369 320 368 L 320 368 Z M 352 384 Q 352 398 343 407 L 343 407 L 343 407 Q 334 416 320 416 Q 306 416 297 407 Q 288 398 288 384 Q 288 370 297 361 Q 306 352 320 352 Q 334 352 343 361 Q 352 370 352 384 L 352 384 Z M 400 384 Q 401 399 416 400 Q 431 399 432 384 Q 431 369 416 368 Q 401 369 400 384 L 400 384 Z M 416 416 Q 402 416 393 407 L 393 407 L 393 407 Q 384 398 384 384 Q 384 370 393 361 Q 402 352 416 352 Q 430 352 439 361 Q 448 370 448 384 Q 448 398 439 407 Q 430 416 416 416 L 416 416 Z" />
</svg>