<svg xmlns="http://www.w3.org/2000/svg" viewBox="0 0 512 512">
  <path d="M 56.765217 24.486956 Q 70.12174 24.486956 79.026085 33.391304 L 79.026085 33.391304 L 79.026085 33.391304 Q 87.930435 43.408695 89.04348 56.765217 Q 87.930435 70.12174 79.026085 79.026085 Q 70.12174 87.930435 56.765217 89.04348 Q 43.408695 87.930435 33.391304 79.026085 Q 24.486956 70.12174 24.486956 56.765217 Q 24.486956 43.408695 33.391304 33.391304 Q 43.408695 24.486956 56.765217 24.486956 L 56.765217 24.486956 Z M 6.678261 56.765217 Q 7.791304 84.5913 31.165216 100.17391 Q 56.765217 113.53043 81.252174 100.17391 Q 105.73913 84.5913 106.85217 56.765217 Q 105.73913 27.826086 81.252174 13.356522 Q 56.765217 0 31.165216 13.356522 Q 7.791304 27.826086 6.678261 56.765217 L 6.678261 56.765217 Z M 56.765217 158.05217 Q 70.12174 158.05217 79.026085 166.95653 L 79.026085 166.95653 L 79.026085 166.95653 Q 87.930435 175.86087 89.04348 189.21739 Q 87.930435 203.68695 79.026085 212.59131 Q 70.12174 221.49565 56.765217 221.49565 Q 43.408695 221.49565 33.391304 212.59131 Q 24.486956 203.68695 24.486956 189.21739 Q 24.486956 175.86087 33.391304 166.95653 Q 43.408695 158.05217 56.765217 158.05217 L 56.765217 158.05217 Z M 6.678261 189.21739 Q 7.791304 218.15652 31.165216 232.62608 Q 56.765217 245.9826 81.252174 232.62608 Q 105.73913 218.15652 106.85217 189.21739 Q 105.73913 161.39131 81.252174 146.92174 Q 56.765217 132.45218 31.165216 146.92174 Q 7.791304 161.39131 6.678261 189.21739 L 6.678261 189.21739 Z M 89.04348 322.78262 Q 87.930435 336.13913 79.026085 345.0435 L 79.026085 345.0435 L 79.026085 345.0435 Q 70.12174 353.9478 56.765217 355.06088 Q 43.408695 353.9478 33.391304 345.0435 Q 24.486956 336.13913 24.486956 322.78262 Q 24.486956 308.31305 33.391304 299.4087 Q 43.408695 290.50433 56.765217 290.50433 Q 70.12174 290.50433 79.026085 299.4087 Q 87.930435 308.31305 89.04348 322.78262 L 89.04348 322.78262 Z M 56.765217 272.69565 Q 27.826086 273.8087 13.356522 297.18262 Q 0 322.78262 13.356522 347.26956 Q 27.826086 371.75653 56.765217 372.86957 Q 84.5913 371.75653 100.17391 347.26956 Q 113.53043 322.78262 100.17391 297.18262 Q 84.5913 273.8087 56.765217 272.69565 L 56.765217 272.69565 Z M 56.765217 422.9565 Q 70.12174 424.06958 79.026085 432.9739 L 79.026085 432.9739 L 79.026085 432.9739 Q 87.930435 441.87827 89.04348 455.23477 Q 87.930435 468.5913 79.026085 478.6087 Q 70.12174 487.51303 56.765217 487.51303 Q 43.408695 487.51303 33.391304 478.6087 Q 24.486956 468.5913 24.486956 455.23477 Q 24.486956 441.87827 33.391304 432.9739 Q 43.408695 424.06958 56.765217 422.9565 L 56.765217 422.9565 Z M 6.678261 455.23477 Q 7.791304 484.17392 31.165216 498.64346 Q 56.765217 512 81.252174 498.64346 Q 105.73913 484.17392 106.85217 455.23477 Q 105.73913 427.4087 81.252174 411.82608 Q 56.765217 398.46957 31.165216 411.82608 Q 7.791304 427.4087 6.678261 455.23477 L 6.678261 455.23477 Z M 221.49565 56.765217 Q 221.49565 70.12174 212.59131 79.026085 L 212.59131 79.026085 L 212.59131 79.026085 Q 203.68695 87.930435 189.21739 89.04348 Q 175.86087 87.930435 166.95653 79.026085 Q 158.05217 70.12174 158.05217 56.765217 Q 158.05217 43.408695 166.95653 33.391304 Q 175.86087 24.486956 189.21739 24.486956 Q 203.68695 24.486956 212.59131 33.391304 Q 221.49565 43.408695 221.49565 56.765217 L 221.49565 56.765217 Z M 189.21739 6.678261 Q 161.39131 7.791304 146.92174 31.165216 Q 132.45218 56.765217 146.92174 81.252174 Q 161.39131 105.73913 189.21739 106.85217 Q 218.15652 105.73913 232.62608 81.252174 Q 245.9826 56.765217 232.62608 31.165216 Q 218.15652 7.791304 189.21739 6.678261 L 189.21739 6.678261 Z M 189.21739 158.05217 Q 203.68695 158.05217 212.59131 166.95653 L 212.59131 166.95653 L 212.59131 166.95653 Q 221.49565 175.86087 221.49565 189.21739 Q 221.49565 203.68695 212.59131 212.59131 Q 203.68695 221.49565 189.21739 221.49565 Q 175.86087 221.49565 166.95653 212.59131 Q 158.05217 203.68695 158.05217 189.21739 Q 158.05217 175.86087 166.95653 166.95653 Q 175.86087 158.05217 189.21739 158.05217 L 189.21739 158.05217 Z M 140.24348 189.21739 Q 140.24348 218.15652 164.73044 232.62608 Q 189.21739 245.9826 214.8174 232.62608 Q 238.1913 218.15652 239.30435 189.21739 Q 238.1913 161.39131 214.8174 146.92174 Q 189.21739 132.45218 164.73044 146.92174 Q 140.24348 161.39131 140.24348 189.21739 L 140.24348 189.21739 Z M 221.49565 322.78262 Q 221.49565 336.13913 212.59131 345.0435 L 212.59131 345.0435 L 212.59131 345.0435 Q 203.68695 353.9478 189.21739 355.06088 Q 175.86087 353.9478 166.95653 345.0435 Q 158.05217 336.13913 158.05217 322.78262 Q 158.05217 309.4261 166.95653 299.4087 Q 175.86087 290.50433 189.21739 290.50433 Q 203.68695 290.50433 212.59131 299.4087 Q 221.49565 309.4261 221.49565 322.78262 L 221.49565 322.78262 Z M 189.21739 272.69565 Q 161.39131 273.8087 146.92174 297.18262 Q 132.45218 322.78262 146.92174 347.26956 Q 161.39131 371.75653 189.21739 372.86957 Q 218.15652 371.75653 232.62608 347.26956 Q 245.9826 322.78262 232.62608 297.18262 Q 218.15652 273.8087 189.21739 272.69565 L 189.21739 272.69565 Z M 189.21739 424.06958 Q 203.68695 424.06958 212.59131 432.9739 L 212.59131 432.9739 L 212.59131 432.9739 Q 221.49565 441.87827 221.49565 455.23477 Q 221.49565 469.70435 212.59131 478.6087 Q 203.68695 487.51303 189.21739 487.51303 Q 175.86087 487.51303 166.95653 478.6087 Q 158.05217 469.70435 158.05217 455.23477 Q 158.05217 441.87827 166.95653 432.9739 Q 175.86087 424.06958 189.21739 424.06958 L 189.21739 424.06958 Z M 140.24348 455.23477 Q 140.24348 484.17392 164.73044 498.64346 Q 189.21739 512 214.8174 498.64346 Q 238.1913 484.17392 239.30435 455.23477 Q 238.1913 427.4087 214.8174 412.93912 Q 189.21739 398.46957 164.73044 412.93912 Q 140.24348 427.4087 140.24348 455.23477 L 140.24348 455.23477 Z M 355.06088 56.765217 Q 353.9478 70.12174 345.0435 79.026085 L 345.0435 79.026085 L 345.0435 79.026085 Q 336.13913 87.930435 322.78262 89.04348 Q 308.31305 87.930435 299.4087 79.026085 Q 290.50433 70.12174 290.50433 56.765217 Q 290.50433 43.408695 299.4087 33.391304 Q 308.31305 24.486956 322.78262 24.486956 Q 336.13913 24.486956 345.0435 33.391304 Q 353.9478 43.408695 355.06088 56.765217 L 355.06088 56.765217 Z M 322.78262 6.678261 Q 293.84348 7.791304 279.3739 31.165216 Q 266.0174 56.765217 279.3739 81.252174 Q 293.84348 105.73913 322.78262 106.85217 Q 350.6087 105.73913 365.07825 81.252174 Q 379.54782 56.765217 365.07825 31.165216 Q 350.6087 7.791304 322.78262 6.678261 L 322.78262 6.678261 Z M 322.78262 158.05217 Q 336.13913 158.05217 345.0435 166.95653 L 345.0435 166.95653 L 345.0435 166.95653 Q 353.9478 175.86087 355.06088 189.21739 Q 353.9478 203.68695 345.0435 212.59131 Q 336.13913 221.49565 322.78262 221.49565 Q 308.31305 221.49565 299.4087 212.59131 Q 290.50433 203.68695 290.50433 189.21739 Q 290.50433 175.86087 299.4087 166.95653 Q 308.31305 158.05217 322.78262 158.05217 L 322.78262 158.05217 Z M 272.69565 189.21739 Q 273.8087 218.15652 297.18262 232.62608 Q 322.78262 245.9826 347.26956 232.62608 Q 371.75653 218.15652 372.86957 189.21739 Q 371.75653 161.39131 347.26956 146.92174 Q 322.78262 132.45218 297.18262 146.92174 Q 273.8087 161.39131 272.69565 189.21739 L 272.69565 189.21739 Z M 355.06088 322.78262 Q 353.9478 336.13913 345.0435 345.0435 L 345.0435 345.0435 L 345.0435 345.0435 Q 336.13913 353.9478 322.78262 355.06088 Q 308.31305 353.9478 299.4087 345.0435 Q 290.50433 336.13913 290.50433 322.78262 Q 290.50433 309.4261 299.4087 299.4087 Q 308.31305 290.50433 322.78262 290.50433 Q 336.13913 290.50433 345.0435 299.4087 Q 353.9478 309.4261 355.06088 322.78262 L 355.06088 322.78262 Z M 322.78262 272.69565 Q 293.84348 273.8087 279.3739 297.18262 Q 266.0174 322.78262 279.3739 347.26956 Q 293.84348 371.75653 322.78262 372.86957 Q 350.6087 371.75653 365.07825 347.26956 Q 379.54782 322.78262 365.07825 297.18262 Q 350.6087 273.8087 322.78262 272.69565 L 322.78262 272.69565 Z M 322.78262 424.06958 Q 336.13913 424.06958 345.0435 432.9739 L 345.0435 432.9739 L 345.0435 432.9739 Q 353.9478 441.87827 355.06088 455.23477 Q 353.9478 469.70435 345.0435 478.6087 Q 336.13913 487.51303 322.78262 487.51303 Q 308.31305 487.51303 299.4087 478.6087 Q 290.50433 469.70435 290.50433 455.23477 Q 290.50433 441.87827 299.4087 432.9739 Q 308.31305 424.06958 322.78262 424.06958 L 322.78262 424.06958 Z M 272.69565 455.23477 Q 273.8087 484.17392 297.18262 498.64346 Q 322.78262 512 347.26956 498.64346 Q 371.75653 484.17392 372.86957 455.23477 Q 371.75653 427.4087 347.26956 412.93912 Q 322.78262 398.46957 297.18262 412.93912 Q 273.8087 427.4087 272.69565 455.23477 L 272.69565 455.23477 Z M 487.51303 56.765217 Q 487.51303 70.12174 478.6087 79.026085 L 478.6087 79.026085 L 478.6087 79.026085 Q 468.5913 87.930435 455.23477 89.04348 Q 441.87827 87.930435 432.9739 79.026085 Q 424.06958 70.12174 422.9565 56.765217 Q 424.06958 43.408695 432.9739 33.391304 Q 441.87827 24.486956 455.23477 24.486956 Q 468.5913 24.486956 478.6087 33.391304 Q 487.51303 43.408695 487.51303 56.765217 L 487.51303 56.765217 Z M 455.23477 6.678261 Q 427.4087 7.791304 411.82608 31.165216 Q 398.46957 56.765217 411.82608 81.252174 Q 427.4087 105.73913 455.23477 106.85217 Q 484.17392 105.73913 498.64346 81.252174 Q 512 56.765217 498.64346 31.165216 Q 484.17392 7.791304 455.23477 6.678261 L 455.23477 6.678261 Z M 455.23477 158.05217 Q 468.5913 158.05217 478.6087 166.95653 L 478.6087 166.95653 L 478.6087 166.95653 Q 487.51303 175.86087 487.51303 189.21739 Q 487.51303 203.68695 478.6087 212.59131 Q 468.5913 221.49565 455.23477 221.49565 Q 441.87827 221.49565 432.9739 212.59131 Q 424.06958 203.68695 422.9565 189.21739 Q 424.06958 175.86087 432.9739 166.95653 Q 441.87827 158.05217 455.23477 158.05217 L 455.23477 158.05217 Z M 405.14783 189.21739 Q 406.26086 218.15652 430.74783 232.62608 Q 455.23477 245.9826 480.83478 232.62608 Q 504.2087 218.15652 505.32175 189.21739 Q 504.2087 161.39131 480.83478 146.92174 Q 455.23477 132.45218 430.74783 146.92174 Q 406.26086 161.39131 405.14783 189.21739 L 405.14783 189.21739 Z M 487.51303 322.78262 Q 487.51303 336.13913 478.6087 345.0435 L 478.6087 345.0435 L 478.6087 345.0435 Q 468.5913 353.9478 455.23477 355.06088 Q 441.87827 353.9478 432.9739 345.0435 Q 424.06958 336.13913 422.9565 322.78262 Q 424.06958 308.31305 432.9739 299.4087 Q 441.87827 290.50433 455.23477 290.50433 Q 468.5913 290.50433 478.6087 299.4087 Q 487.51303 308.31305 487.51303 322.78262 L 487.51303 322.78262 Z M 455.23477 272.69565 Q 427.4087 273.8087 411.82608 297.18262 Q 398.46957 322.78262 411.82608 347.26956 Q 427.4087 371.75653 455.23477 372.86957 Q 484.17392 371.75653 498.64346 347.26956 Q 512 322.78262 498.64346 297.18262 Q 484.17392 273.8087 455.23477 272.69565 L 455.23477 272.69565 Z M 455.23477 422.9565 Q 468.5913 424.06958 478.6087 432.9739 L 478.6087 432.9739 L 478.6087 432.9739 Q 487.51303 441.87827 487.51303 455.23477 Q 487.51303 468.5913 478.6087 478.6087 Q 468.5913 487.51303 455.23477 487.51303 Q 441.87827 487.51303 432.9739 478.6087 Q 424.06958 468.5913 422.9565 455.23477 Q 424.06958 441.87827 432.9739 432.9739 Q 441.87827 424.06958 455.23477 422.9565 L 455.23477 422.9565 Z M 405.14783 455.23477 Q 406.26086 484.17392 430.74783 498.64346 Q 455.23477 512 480.83478 498.64346 Q 504.2087 484.17392 505.32175 455.23477 Q 504.2087 427.4087 480.83478 411.82608 Q 455.23477 398.46957 430.74783 411.82608 Q 406.26086 427.4087 405.14783 455.23477 L 405.14783 455.23477 Z" />
</svg>