<svg xmlns="http://www.w3.org/2000/svg" viewBox="0 0 512 512">
  <path d="M 102.4 91.488525 Q 103.23934 72.18361 119.18688 62.111477 Q 135.97377 53.718033 152.76065 62.111477 Q 168.70819 72.18361 169.54755 91.488525 Q 168.70819 110.79344 152.76065 120.86557 Q 135.97377 129.25902 119.18688 120.86557 Q 103.23934 110.79344 102.4 91.488525 L 102.4 91.488525 Z M 182.97705 91.488525 Q 182.13771 64.62951 159.4754 51.2 Q 135.97377 37.770493 112.47213 51.2 Q 89.80984 64.62951 88.97049 91.488525 Q 89.80984 118.34754 112.47213 131.77705 Q 135.97377 145.20656 159.4754 131.77705 Q 182.13771 118.34754 182.97705 91.488525 L 182.97705 91.488525 Z M 77.21967 190.53114 Q 91.488525 166.19017 119.18688 165.35081 L 185.49509 165.35081 L 297.12787 165.35081 Q 309.71802 166.19017 310.55737 178.78033 Q 309.71802 191.3705 297.12787 192.20984 L 196.40656 192.20984 L 196.40656 192.20984 Q 183.81639 193.04918 182.97705 205.63934 L 182.97705 252.64262 L 182.97705 252.64262 L 182.97705 252.64262 L 182.97705 252.64262 L 182.97705 447.37048 L 182.97705 447.37048 Q 182.13771 459.96066 169.54755 460.8 Q 156.95738 459.96066 156.11803 447.37048 L 156.11803 346.64917 L 156.11803 346.64917 Q 154.43935 328.1836 135.97377 326.5049 Q 117.508194 328.1836 115.829506 346.64917 L 115.829506 447.37048 L 115.829506 447.37048 Q 114.990166 459.96066 102.4 460.8 Q 89.80984 459.96066 88.97049 447.37048 L 88.97049 252.64262 L 88.97049 252.64262 Q 88.13115 246.76721 82.25574 245.92787 Q 76.380325 246.76721 75.540985 252.64262 L 75.540985 447.37048 L 75.540985 447.37048 Q 75.540985 459.1213 83.095085 466.6754 Q 90.64918 474.22952 102.4 474.22952 Q 114.15082 474.22952 121.70492 466.6754 Q 129.25902 459.1213 129.25902 447.37048 L 129.25902 346.64917 L 129.25902 346.64917 Q 130.09836 340.77377 135.97377 339.93442 Q 141.84918 340.77377 142.68852 346.64917 L 142.68852 447.37048 L 142.68852 447.37048 Q 142.68852 459.1213 150.24263 466.6754 Q 157.79672 474.22952 169.54755 474.22952 Q 181.29836 474.22952 188.85246 466.6754 Q 196.40656 459.1213 196.40656 447.37048 L 196.40656 259.3574 L 196.40656 259.3574 L 196.40656 259.3574 L 196.40656 259.3574 L 196.40656 205.63934 L 196.40656 205.63934 L 297.12787 205.63934 L 297.12787 205.63934 Q 308.8787 205.63934 316.4328 198.08525 Q 323.98688 190.53114 323.98688 178.78033 Q 323.98688 167.02951 316.4328 159.4754 Q 308.8787 151.92131 297.12787 151.92131 L 256.83936 151.92131 L 256.83936 151.92131 L 256.83936 84.77377 L 256.83936 84.77377 Q 256.83936 73.02295 264.39343 65.46885 Q 271.94754 57.914753 283.69836 57.914753 L 471.7115 57.914753 L 471.7115 57.914753 Q 483.46228 57.914753 491.0164 65.46885 Q 498.5705 73.02295 498.5705 84.77377 L 498.5705 272.7869 L 498.5705 272.7869 Q 498.5705 284.53772 491.0164 292.0918 Q 483.46228 299.6459 471.7115 299.6459 L 283.69836 299.6459 L 283.69836 299.6459 Q 271.94754 299.6459 264.39343 292.0918 Q 256.83936 284.53772 256.83936 272.7869 L 256.83936 232.49837 L 256.83936 232.49837 L 243.40984 232.49837 L 243.40984 232.49837 L 243.40984 272.7869 L 243.40984 272.7869 Q 244.24918 289.57376 255.16066 301.3246 Q 266.91147 312.23605 283.69836 313.0754 L 471.7115 313.0754 L 471.7115 313.0754 Q 488.49835 312.23605 500.24918 301.3246 Q 511.16064 289.57376 512 272.7869 L 512 84.77377 L 512 84.77377 Q 511.16064 67.986885 500.24918 56.236065 Q 488.49835 45.32459 471.7115 44.485245 L 283.69836 44.485245 L 283.69836 44.485245 Q 266.91147 45.32459 255.16066 56.236065 Q 244.24918 67.986885 243.40984 84.77377 L 243.40984 151.92131 L 243.40984 151.92131 L 185.49509 151.92131 L 119.18688 151.92131 Q 83.095085 153.6 65.46885 183.81639 L 2.5180328 303.00327 L 2.5180328 303.00327 Q 0 308.8787 5.0360656 312.23605 Q 10.911475 314.7541 14.268852 309.71802 L 77.21967 190.53114 L 77.21967 190.53114 Z" />
</svg>