<svg xmlns="http://www.w3.org/2000/svg" viewBox="0 0 512 512">
  <path d="M 73.14285714285714 18.285714285714285 Q 50.285714285714285 19.428571428571427 34.285714285714285 34.285714285714285 L 34.285714285714285 34.285714285714285 L 34.285714285714285 34.285714285714285 Q 19.428571428571427 50.285714285714285 18.285714285714285 73.14285714285714 L 18.285714285714285 438.85714285714283 L 18.285714285714285 438.85714285714283 Q 19.428571428571427 461.7142857142857 34.285714285714285 477.7142857142857 Q 50.285714285714285 492.57142857142856 73.14285714285714 493.7142857142857 L 438.85714285714283 493.7142857142857 L 438.85714285714283 493.7142857142857 Q 461.7142857142857 492.57142857142856 477.7142857142857 477.7142857142857 Q 492.57142857142856 461.7142857142857 493.7142857142857 438.85714285714283 L 493.7142857142857 73.14285714285714 L 493.7142857142857 73.14285714285714 Q 492.57142857142856 50.285714285714285 477.7142857142857 34.285714285714285 Q 461.7142857142857 19.428571428571427 438.85714285714283 18.285714285714285 L 73.14285714285714 18.285714285714285 L 73.14285714285714 18.285714285714285 Z M 0 73.14285714285714 Q 1.1428571428571428 42.285714285714285 21.714285714285715 21.714285714285715 L 21.714285714285715 21.714285714285715 L 21.714285714285715 21.714285714285715 Q 42.285714285714285 1.1428571428571428 73.14285714285714 0 L 438.85714285714283 0 L 438.85714285714283 0 Q 469.7142857142857 1.1428571428571428 490.2857142857143 21.714285714285715 Q 510.85714285714283 42.285714285714285 512 73.14285714285714 L 512 438.85714285714283 L 512 438.85714285714283 Q 510.85714285714283 469.7142857142857 490.2857142857143 490.2857142857143 Q 469.7142857142857 510.85714285714283 438.85714285714283 512 L 73.14285714285714 512 L 73.14285714285714 512 Q 42.285714285714285 510.85714285714283 21.714285714285715 490.2857142857143 Q 1.1428571428571428 469.7142857142857 0 438.85714285714283 L 0 73.14285714285714 L 0 73.14285714285714 Z M 128 256 Q 129.14285714285714 310.85714285714283 165.71428571428572 346.2857142857143 L 165.71428571428572 346.2857142857143 L 165.71428571428572 346.2857142857143 Q 201.14285714285714 382.85714285714283 256 384 Q 307.42857142857144 382.85714285714283 344 349.7142857142857 Q 379.42857142857144 316.57142857142856 384 265.14285714285717 L 294.85714285714283 265.14285714285717 L 294.85714285714283 265.14285714285717 Q 286.85714285714283 264 285.7142857142857 256 Q 286.85714285714283 248 294.85714285714283 246.85714285714286 L 384 246.85714285714286 L 384 246.85714285714286 Q 401.14285714285717 248 402.2857142857143 266.2857142857143 Q 396.57142857142856 324.57142857142856 356.57142857142856 362.2857142857143 Q 315.42857142857144 401.14285714285717 256 402.2857142857143 Q 194.28571428571428 401.14285714285717 152 360 Q 110.85714285714286 317.7142857142857 109.71428571428571 256 Q 110.85714285714286 194.28571428571428 152 152 Q 194.28571428571428 110.85714285714286 256 109.71428571428571 Q 313.14285714285717 110.85714285714286 353.14285714285717 147.42857142857142 Q 358.85714285714283 153.14285714285714 354.2857142857143 160 Q 347.42857142857144 165.71428571428572 341.7142857142857 161.14285714285714 Q 306.2857142857143 129.14285714285714 256 128 Q 201.14285714285714 129.14285714285714 165.71428571428572 165.71428571428572 Q 129.14285714285714 201.14285714285714 128 256 L 128 256 Z" />
</svg>