<svg xmlns="http://www.w3.org/2000/svg" viewBox="0 0 640 512">
    <path d="M 224 16 Q 254 16 280 31 L 280 31 Q 306 46 321 72 Q 336 98 336 128 Q 336 158 321 184 Q 306 210 280 225 Q 254 240 224 240 Q 194 240 168 225 Q 142 210 127 184 Q 112 158 112 128 Q 112 98 127 72 Q 142 46 168 31 Q 194 16 224 16 L 224 16 Z M 178 320 L 270 320 Q 310 320 343 338 Q 377 355 399 385 L 400 385 L 400 361 Q 349 306 270 304 L 178 304 Q 103 306 52 356 Q 2 407 0 482 Q 0 495 9 503 Q 17 512 30 512 L 307 512 Q 301 505 296 496 L 30 496 Q 17 495 16 482 Q 18 413 64 368 Q 109 322 178 320 L 178 320 Z M 352 128 Q 352 93 335 64 L 335 64 Q 318 35 288 17 Q 258 0 224 0 Q 190 0 160 17 Q 130 35 113 64 Q 96 93 96 128 Q 96 163 113 192 Q 130 221 160 239 Q 190 256 224 256 Q 258 256 288 239 Q 318 221 335 192 Q 352 163 352 128 L 352 128 Z M 624 190 L 624 234 L 448 293 L 448 244 Q 448 238 454 236 L 614 183 Q 623 181 624 190 L 624 190 Z M 624 251 L 624 368 Q 606 353 576 352 Q 549 353 531 366 Q 513 380 512 400 Q 513 420 531 434 Q 549 447 576 448 Q 603 447 621 434 Q 639 420 640 400 Q 640 397 640 395 Q 640 393 640 392 L 640 240 L 640 190 Q 639 178 630 171 Q 621 164 608 167 L 448 221 Q 433 227 432 244 L 432 304 L 432 432 Q 414 417 384 416 Q 357 417 339 430 Q 321 444 320 464 Q 321 484 339 498 Q 357 511 384 512 Q 411 511 429 498 Q 447 484 448 464 L 448 310 L 624 251 L 624 251 Z M 624 400 Q 624 411 612 421 Q 598 431 576 432 Q 554 431 540 421 Q 528 411 528 400 Q 528 389 540 379 Q 554 369 576 368 Q 598 369 612 379 Q 624 389 624 400 L 624 400 Z M 432 464 Q 432 475 420 485 Q 406 495 384 496 Q 362 495 348 485 Q 336 475 336 464 Q 336 453 348 443 Q 362 433 384 432 Q 406 433 420 443 Q 432 453 432 464 L 432 464 Z"/>
</svg>
