<svg xmlns="http://www.w3.org/2000/svg" viewBox="0 0 512 512">
  <path d="M 81.6 196.8 Q 76.8 193.6 72 196.8 Q 68.8 201.6 72 206.4 L 155.2 289.6 L 155.2 289.6 Q 160 292.8 164.8 289.6 Q 168 284.8 164.8 280 L 81.6 196.8 L 81.6 196.8 Z M 249.6 246.4 Q 250.4 252 256 252.8 Q 261.6 252 262.4 246.4 L 262.4 131.2 L 262.4 131.2 Q 261.6 125.6 256 124.8 Q 250.4 125.6 249.6 131.2 L 249.6 246.4 L 249.6 246.4 Z M 347.2 280 Q 344 284.8 347.2 289.6 Q 352 292.8 356.8 289.6 L 440 206.4 L 440 206.4 Q 443.2 201.6 440 196.8 Q 435.2 193.6 430.4 196.8 L 347.2 280 L 347.2 280 Z M 0 380.8 Q 0.8 386.4 6.4 387.2 L 96 387.2 L 96 387.2 Q 101.6 386.4 102.4 380.8 Q 101.6 375.2 96 374.4 L 6.4 374.4 L 6.4 374.4 Q 0.8 375.2 0 380.8 L 0 380.8 Z M 160 374.4 Q 154.4 375.2 153.6 380.8 Q 154.4 386.4 160 387.2 L 352 387.2 L 352 387.2 Q 357.6 386.4 358.4 380.8 Q 357.6 375.2 352 374.4 L 160 374.4 L 160 374.4 Z M 416 374.4 Q 410.4 375.2 409.6 380.8 Q 410.4 386.4 416 387.2 L 505.6 387.2 L 505.6 387.2 Q 511.2 386.4 512 380.8 Q 511.2 375.2 505.6 374.4 L 416 374.4 L 416 374.4 Z" />
</svg>