<svg xmlns="http://www.w3.org/2000/svg" viewBox="0 0 512 512">
  <path d="M 73.14286 182.85715 Q 75.42857 105.14286 126.85714 53.714287 L 126.85714 53.714287 L 126.85714 53.714287 Q 178.28572 2.2857144 256 0 Q 333.7143 2.2857144 385.14285 53.714287 Q 436.57144 105.14286 438.85715 182.85715 L 438.85715 329.14285 L 438.85715 329.14285 Q 436.57144 406.85715 385.14285 458.2857 Q 333.7143 509.7143 256 512 Q 178.28572 509.7143 126.85714 458.2857 Q 75.42857 406.85715 73.14286 329.14285 L 73.14286 182.85715 L 73.14286 182.85715 Z M 256 18.285715 Q 186.28572 20.571428 139.42857 66.28571 L 139.42857 66.28571 L 139.42857 66.28571 Q 93.71429 113.14286 91.42857 182.85715 L 91.42857 329.14285 L 91.42857 329.14285 Q 93.71429 398.85715 139.42857 445.7143 Q 186.28572 491.42856 256 493.7143 Q 325.7143 491.42856 372.57144 445.7143 Q 418.2857 398.85715 420.57144 329.14285 L 420.57144 182.85715 L 420.57144 182.85715 Q 418.2857 113.14286 372.57144 66.28571 Q 325.7143 20.571428 256 18.285715 L 256 18.285715 Z" />
</svg>