<svg xmlns="http://www.w3.org/2000/svg" viewBox="0 0 640 512">
    <path d="M 0 48 Q 0 66 11 79 L 11 79 Q 23 92 40 95 L 40 257 Q 23 260 11 273 Q 0 286 0 304 Q 1 324 14 338 Q 28 351 48 352 Q 66 352 79 341 Q 92 329 95 312 L 353 312 Q 356 329 369 341 Q 382 352 400 352 Q 420 351 434 338 Q 447 324 448 304 Q 448 286 437 273 Q 425 260 408 257 L 408 95 Q 425 92 437 79 Q 448 66 448 48 Q 447 28 434 14 Q 420 1 400 0 Q 382 0 369 11 Q 356 23 353 40 L 95 40 Q 92 23 79 11 Q 66 0 48 0 Q 28 1 14 14 Q 1 28 0 48 L 0 48 Z M 353 56 Q 360 88 392 95 L 392 257 Q 360 264 353 296 L 95 296 Q 88 264 56 257 L 56 95 Q 88 88 95 56 L 353 56 L 353 56 Z M 480 200 L 472 200 L 472 216 L 480 216 L 545 216 Q 552 248 584 255 L 584 417 Q 552 424 545 456 L 287 456 Q 280 424 248 417 L 248 352 L 248 344 L 232 344 L 232 352 L 232 417 Q 215 420 203 433 Q 192 446 192 464 Q 193 484 206 498 Q 220 511 240 512 Q 258 512 271 501 Q 284 489 287 472 L 545 472 Q 548 489 561 501 Q 574 512 592 512 Q 612 511 626 498 Q 639 484 640 464 Q 640 446 629 433 Q 617 420 600 417 L 600 255 Q 617 252 629 239 Q 640 226 640 208 Q 639 188 626 174 Q 612 161 592 160 Q 574 160 561 171 Q 548 183 545 200 L 480 200 L 480 200 Z M 592 240 Q 578 240 569 231 L 569 231 Q 560 222 560 208 Q 560 194 569 185 Q 578 176 592 176 Q 606 176 615 185 Q 624 194 624 208 Q 624 222 615 231 Q 606 240 592 240 L 592 240 Z M 560 464 Q 560 450 569 441 L 569 441 Q 578 432 592 432 Q 606 432 615 441 Q 624 450 624 464 Q 624 478 615 487 Q 606 496 592 496 Q 578 496 569 487 Q 560 478 560 464 L 560 464 Z M 240 496 Q 226 496 217 487 L 217 487 Q 208 478 208 464 Q 208 450 217 441 Q 226 432 240 432 Q 254 432 263 441 Q 272 450 272 464 Q 272 478 263 487 Q 254 496 240 496 L 240 496 Z M 368 304 Q 368 290 377 281 L 377 281 Q 386 272 400 272 Q 414 272 423 281 Q 432 290 432 304 Q 432 318 423 327 Q 414 336 400 336 Q 386 336 377 327 Q 368 318 368 304 L 368 304 Z M 48 336 Q 34 336 25 327 L 25 327 Q 16 318 16 304 Q 16 290 25 281 Q 34 272 48 272 Q 62 272 71 281 Q 80 290 80 304 Q 80 318 71 327 Q 62 336 48 336 L 48 336 Z M 368 48 Q 368 34 377 25 L 377 25 Q 386 16 400 16 Q 414 16 423 25 Q 432 34 432 48 Q 432 62 423 71 Q 414 80 400 80 Q 386 80 377 71 Q 368 62 368 48 L 368 48 Z M 48 80 Q 34 80 25 71 L 25 71 Q 16 62 16 48 Q 16 34 25 25 Q 34 16 48 16 Q 62 16 71 25 Q 80 34 80 48 Q 80 62 71 71 Q 62 80 48 80 L 48 80 Z"/>
</svg>
