<svg xmlns="http://www.w3.org/2000/svg" viewBox="0 0 512 512">
  <path d="M 390.94573643410854 33.736434108527135 L 319.50387596899225 33.736434108527135 L 390.94573643410854 33.736434108527135 L 319.50387596899225 33.736434108527135 Q 312.5581395348837 34.72868217054263 311.5658914728682 41.674418604651166 Q 312.5581395348837 48.62015503875969 319.50387596899225 49.6124031007752 L 390.94573643410854 49.6124031007752 L 390.94573643410854 49.6124031007752 Q 407.8139534883721 49.6124031007752 418.72868217054264 61.51937984496124 Q 430.6356589147287 72.43410852713178 430.6356589147287 89.30232558139535 L 430.6356589147287 166.69767441860466 L 430.6356589147287 166.69767441860466 Q 430.6356589147287 195.47286821705427 451.47286821705427 216.31007751937983 L 491.16279069767444 256 L 491.16279069767444 256 L 451.47286821705427 295.68992248062017 L 451.47286821705427 295.68992248062017 Q 430.6356589147287 316.52713178294573 430.6356589147287 346.29457364341084 L 430.6356589147287 422.69767441860466 L 430.6356589147287 422.69767441860466 Q 430.6356589147287 439.5658914728682 418.72868217054264 450.48062015503876 Q 407.8139534883721 462.38759689922483 390.94573643410854 462.38759689922483 L 319.50387596899225 462.38759689922483 L 319.50387596899225 462.38759689922483 Q 312.5581395348837 463.37984496124034 311.5658914728682 470.3255813953488 Q 312.5581395348837 477.27131782945736 319.50387596899225 478.26356589147287 L 390.94573643410854 478.26356589147287 L 390.94573643410854 478.26356589147287 Q 414.7596899224806 477.27131782945736 430.6356589147287 462.38759689922483 Q 445.51937984496124 446.51162790697674 446.51162790697674 422.69767441860466 L 446.51162790697674 346.29457364341084 L 446.51162790697674 346.29457364341084 Q 446.51162790697674 322.48062015503876 462.38759689922483 306.6046511627907 L 508.031007751938 261.95348837209303 L 508.031007751938 261.95348837209303 Q 512 256 508.031007751938 250.04651162790697 L 462.38759689922483 205.3953488372093 L 462.38759689922483 205.3953488372093 Q 446.51162790697674 189.51937984496124 446.51162790697674 165.70542635658916 L 446.51162790697674 89.30232558139535 L 446.51162790697674 89.30232558139535 Q 445.51937984496124 65.48837209302326 430.6356589147287 49.6124031007752 Q 414.7596899224806 34.72868217054263 390.94573643410854 33.736434108527135 L 390.94573643410854 33.736434108527135 Z M 121.05426356589147 33.736434108527135 Q 97.24031007751938 34.72868217054263 81.36434108527132 49.6124031007752 L 81.36434108527132 49.6124031007752 L 81.36434108527132 49.6124031007752 Q 66.48062015503876 65.48837209302326 65.48837209302326 89.30232558139535 L 65.48837209302326 166.69767441860466 L 65.48837209302326 166.69767441860466 Q 65.48837209302326 189.51937984496124 49.6124031007752 205.3953488372093 L 3.9689922480620154 250.04651162790697 L 3.9689922480620154 250.04651162790697 Q 0 256 3.9689922480620154 261.95348837209303 L 49.6124031007752 306.6046511627907 L 49.6124031007752 306.6046511627907 Q 65.48837209302326 322.48062015503876 65.48837209302326 346.29457364341084 L 65.48837209302326 422.69767441860466 L 65.48837209302326 422.69767441860466 Q 66.48062015503876 446.51162790697674 81.36434108527132 462.38759689922483 Q 97.24031007751938 477.27131782945736 121.05426356589147 478.26356589147287 L 192.49612403100775 478.26356589147287 L 192.49612403100775 478.26356589147287 Q 199.4418604651163 477.27131782945736 200.43410852713177 470.3255813953488 Q 199.4418604651163 463.37984496124034 192.49612403100775 462.38759689922483 L 121.05426356589147 462.38759689922483 L 121.05426356589147 462.38759689922483 Q 104.18604651162791 462.38759689922483 93.27131782945736 450.48062015503876 Q 81.36434108527132 439.5658914728682 81.36434108527132 422.69767441860466 L 81.36434108527132 346.29457364341084 L 81.36434108527132 346.29457364341084 Q 81.36434108527132 316.52713178294573 60.52713178294574 295.68992248062017 L 20.837209302325583 256 L 20.837209302325583 256 L 60.52713178294574 216.31007751937983 L 60.52713178294574 216.31007751937983 Q 81.36434108527132 195.47286821705427 81.36434108527132 166.69767441860466 L 81.36434108527132 89.30232558139535 L 81.36434108527132 89.30232558139535 Q 81.36434108527132 72.43410852713178 93.27131782945736 61.51937984496124 Q 104.18604651162791 49.6124031007752 121.05426356589147 49.6124031007752 L 192.49612403100775 49.6124031007752 L 192.49612403100775 49.6124031007752 Q 199.4418604651163 48.62015503875969 200.43410852713177 41.674418604651166 Q 199.4418604651163 34.72868217054263 192.49612403100775 33.736434108527135 L 121.05426356589147 33.736434108527135 L 121.05426356589147 33.736434108527135 Z" />
</svg>