<svg xmlns="http://www.w3.org/2000/svg" viewBox="0 0 512 512">
  <path d="M 91.42857 466.2857 L 91.42857 411.42856 L 91.42857 466.2857 L 91.42857 411.42856 Q 93.71429 386.2857 118.85714 384 L 173.71428 384 L 173.71428 384 Q 198.85715 386.2857 201.14285 411.42856 L 201.14285 466.2857 L 201.14285 466.2857 Q 198.85715 491.42856 173.71428 493.7143 L 118.85714 493.7143 L 118.85714 493.7143 Q 93.71429 491.42856 91.42857 466.2857 L 91.42857 466.2857 Z M 118.85714 512 L 173.71428 512 L 118.85714 512 L 173.71428 512 Q 193.14285 512 205.71428 498.2857 Q 219.42857 485.7143 219.42857 466.2857 L 219.42857 411.42856 L 219.42857 411.42856 Q 219.42857 392 205.71428 379.42856 Q 193.14285 365.7143 173.71428 365.7143 L 118.85714 365.7143 L 118.85714 365.7143 Q 99.42857 365.7143 86.85714 379.42856 Q 73.14286 392 73.14286 411.42856 L 73.14286 466.2857 L 73.14286 466.2857 Q 73.14286 485.7143 86.85714 498.2857 Q 99.42857 512 118.85714 512 L 118.85714 512 Z M 310.85715 466.2857 L 310.85715 411.42856 L 310.85715 466.2857 L 310.85715 411.42856 Q 313.14285 386.2857 338.2857 384 L 393.14285 384 L 393.14285 384 Q 418.2857 386.2857 420.57144 411.42856 L 420.57144 466.2857 L 420.57144 466.2857 Q 418.2857 491.42856 393.14285 493.7143 L 338.2857 493.7143 L 338.2857 493.7143 Q 313.14285 491.42856 310.85715 466.2857 L 310.85715 466.2857 Z M 338.2857 512 L 393.14285 512 L 338.2857 512 L 393.14285 512 Q 412.57144 512 425.14285 498.2857 Q 438.85715 485.7143 438.85715 466.2857 L 438.85715 411.42856 L 438.85715 411.42856 Q 438.85715 392 425.14285 379.42856 Q 412.57144 365.7143 393.14285 365.7143 L 338.2857 365.7143 L 338.2857 365.7143 Q 318.85715 365.7143 306.2857 379.42856 Q 292.57144 392 292.57144 411.42856 L 292.57144 466.2857 L 292.57144 466.2857 Q 292.57144 485.7143 306.2857 498.2857 Q 318.85715 512 338.2857 512 L 338.2857 512 Z M 91.42857 228.57143 Q 93.71429 203.42857 118.85714 201.14285 L 173.71428 201.14285 L 173.71428 201.14285 Q 198.85715 203.42857 201.14285 228.57143 L 201.14285 283.42856 L 201.14285 283.42856 Q 198.85715 308.57144 173.71428 310.85715 L 118.85714 310.85715 L 118.85714 310.85715 Q 93.71429 308.57144 91.42857 283.42856 L 91.42857 228.57143 L 91.42857 228.57143 Z M 73.14286 283.42856 Q 73.14286 302.85715 86.85714 315.42856 L 86.85714 315.42856 L 86.85714 315.42856 Q 99.42857 329.14285 118.85714 329.14285 L 173.71428 329.14285 L 173.71428 329.14285 Q 193.14285 329.14285 205.71428 315.42856 Q 219.42857 302.85715 219.42857 283.42856 L 219.42857 228.57143 L 219.42857 228.57143 Q 219.42857 209.14285 205.71428 196.57143 Q 193.14285 182.85715 173.71428 182.85715 L 118.85714 182.85715 L 118.85714 182.85715 Q 99.42857 182.85715 86.85714 196.57143 Q 73.14286 209.14285 73.14286 228.57143 L 73.14286 283.42856 L 73.14286 283.42856 Z M 310.85715 283.42856 L 310.85715 228.57143 L 310.85715 283.42856 L 310.85715 228.57143 Q 313.14285 203.42857 338.2857 201.14285 L 393.14285 201.14285 L 393.14285 201.14285 Q 418.2857 203.42857 420.57144 228.57143 L 420.57144 283.42856 L 420.57144 283.42856 Q 418.2857 308.57144 393.14285 310.85715 L 338.2857 310.85715 L 338.2857 310.85715 Q 313.14285 308.57144 310.85715 283.42856 L 310.85715 283.42856 Z M 338.2857 329.14285 L 393.14285 329.14285 L 338.2857 329.14285 L 393.14285 329.14285 Q 412.57144 329.14285 425.14285 315.42856 Q 438.85715 302.85715 438.85715 283.42856 L 438.85715 228.57143 L 438.85715 228.57143 Q 438.85715 209.14285 425.14285 196.57143 Q 412.57144 182.85715 393.14285 182.85715 L 338.2857 182.85715 L 338.2857 182.85715 Q 318.85715 182.85715 306.2857 196.57143 Q 292.57144 209.14285 292.57144 228.57143 L 292.57144 283.42856 L 292.57144 283.42856 Q 292.57144 302.85715 306.2857 315.42856 Q 318.85715 329.14285 338.2857 329.14285 L 338.2857 329.14285 Z M 91.42857 45.714287 Q 93.71429 20.571428 118.85714 18.285715 L 173.71428 18.285715 L 173.71428 18.285715 Q 198.85715 20.571428 201.14285 45.714287 L 201.14285 100.57143 L 201.14285 100.57143 Q 198.85715 125.71429 173.71428 128 L 118.85714 128 L 118.85714 128 Q 93.71429 125.71429 91.42857 100.57143 L 91.42857 45.714287 L 91.42857 45.714287 Z M 73.14286 100.57143 Q 73.14286 120 86.85714 132.57143 L 86.85714 132.57143 L 86.85714 132.57143 Q 99.42857 146.28572 118.85714 146.28572 L 173.71428 146.28572 L 173.71428 146.28572 Q 193.14285 146.28572 205.71428 132.57143 Q 219.42857 120 219.42857 100.57143 L 219.42857 45.714287 L 219.42857 45.714287 Q 219.42857 26.285715 205.71428 13.714286 Q 193.14285 0 173.71428 0 L 118.85714 0 L 118.85714 0 Q 99.42857 0 86.85714 13.714286 Q 73.14286 26.285715 73.14286 45.714287 L 73.14286 100.57143 L 73.14286 100.57143 Z M 310.85715 100.57143 L 310.85715 45.714287 L 310.85715 100.57143 L 310.85715 45.714287 Q 313.14285 20.571428 338.2857 18.285715 L 393.14285 18.285715 L 393.14285 18.285715 Q 418.2857 20.571428 420.57144 45.714287 L 420.57144 100.57143 L 420.57144 100.57143 Q 418.2857 125.71429 393.14285 128 L 338.2857 128 L 338.2857 128 Q 313.14285 125.71429 310.85715 100.57143 L 310.85715 100.57143 Z M 338.2857 146.28572 L 393.14285 146.28572 L 338.2857 146.28572 L 393.14285 146.28572 Q 412.57144 146.28572 425.14285 132.57143 Q 438.85715 120 438.85715 100.57143 L 438.85715 45.714287 L 438.85715 45.714287 Q 438.85715 26.285715 425.14285 13.714286 Q 412.57144 0 393.14285 0 L 338.2857 0 L 338.2857 0 Q 318.85715 0 306.2857 13.714286 Q 292.57144 26.285715 292.57144 45.714287 L 292.57144 100.57143 L 292.57144 100.57143 Q 292.57144 120 306.2857 132.57143 Q 318.85715 146.28572 338.2857 146.28572 L 338.2857 146.28572 Z" />
</svg>