<svg xmlns="http://www.w3.org/2000/svg" viewBox="0 0 512 512">
  <path d="M 408.40466 46.81712 Q 404.42023 40.840466 408.40466 34.86381 Q 414.38132 30.879377 420.35797 34.86381 L 508.01556 122.5214 L 508.01556 122.5214 Q 512 128.49805 508.01556 134.4747 L 420.35797 222.1323 L 420.35797 222.1323 Q 414.38132 226.11673 408.40466 222.1323 Q 404.42023 216.15564 408.40466 210.17899 L 483.11285 136.46692 L 483.11285 136.46692 L 338.67703 136.46692 L 338.67703 136.46692 Q 321.7432 136.46692 310.78598 148.42023 L 206.19455 252.01556 L 206.19455 252.01556 Q 204.20233 254.00778 202.21011 256 Q 204.20233 257.99222 206.19455 259.98444 Q 206.19455 259.98444 206.19455 259.98444 L 310.78598 363.57977 L 310.78598 363.57977 Q 321.7432 375.53308 338.67703 375.53308 L 483.11285 375.53308 L 483.11285 375.53308 L 408.40466 301.821 L 408.40466 301.821 Q 404.42023 295.84436 408.40466 289.8677 Q 414.38132 285.88327 420.35797 289.8677 L 508.01556 377.5253 L 508.01556 377.5253 Q 512 383.50195 508.01556 389.4786 L 420.35797 477.1362 L 420.35797 477.1362 Q 414.38132 481.12064 408.40466 477.1362 Q 404.42023 471.15955 408.40466 465.1829 L 483.11285 391.47083 L 483.11285 391.47083 L 338.67703 391.47083 L 338.67703 391.47083 Q 315.76654 391.47083 298.83267 375.53308 L 195.23735 270.94162 L 195.23735 270.94162 Q 188.26459 263.96887 178.3035 263.96887 L 7.9688716 263.96887 L 7.9688716 263.96887 Q 0.99610895 262.97275 0 256 Q 0.99610895 249.02724 7.9688716 248.03113 L 178.3035 248.03113 L 178.3035 248.03113 Q 188.26459 248.03113 195.23735 241.05836 L 298.83267 136.46692 L 298.83267 136.46692 Q 315.76654 120.52918 338.67703 120.52918 L 483.11285 120.52918 L 483.11285 120.52918 L 408.40466 46.81712 L 408.40466 46.81712 Z" />
</svg>