<svg xmlns="http://www.w3.org/2000/svg" viewBox="0 0 521 513">
    <path d="M 261 0 Q 267 0 268 6 L 305 142 L 421 61 Q 426 58 430 62 Q 435 66 432 71 L 373 199 L 513 211 Q 519 212 521 218 Q 521 224 516 227 L 388 286 L 488 386 Q 492 390 489 396 Q 486 401 480 399 L 344 363 L 356 503 Q 356 509 351 512 Q 345 513 342 509 L 261 393 L 180 509 Q 176 513 170 511 Q 165 509 165 503 L 178 363 L 41 399 Q 35 400 32 396 Q 30 390 33 386 L 134 286 L 5 227 Q 0 224 1 218 Q 2 212 8 211 L 149 199 L 89 71 Q 87 66 91 62 Q 96 58 101 61 L 217 143 L 253 6 Q 255 0 261 0 L 261 0 Z M 261 39 L 229 158 Q 228 162 224 163 Q 220 164 217 162 L 116 92 L 168 203 Q 170 207 168 210 Q 166 214 162 214 L 39 225 L 151 276 Q 154 278 155 282 Q 156 286 153 289 L 66 376 L 185 344 Q 189 343 192 346 Q 195 348 195 353 L 184 475 L 254 374 Q 257 371 261 371 Q 265 371 267 374 L 338 475 L 327 353 Q 327 348 330 346 Q 333 343 337 344 L 455 376 L 368 289 Q 366 286 366 282 Q 367 278 371 276 L 482 225 L 360 214 Q 356 214 354 210 Q 352 206 353 203 L 405 92 L 305 162 Q 301 164 297 163 Q 294 162 292 158 L 261 39 L 261 39 Z"/>
</svg>
