<svg xmlns="http://www.w3.org/2000/svg" viewBox="0 0 577 512">
    <path d="M 481 20 L 314 186 Q 309 192 314 198 L 399 283 Q 403 286 408 284 L 435 273 Q 448 266 449 251 L 449 221 Q 449 205 460 193 L 558 88 Q 561 85 561 81 Q 561 76 557 72 L 497 19 Q 494 16 489 16 Q 484 16 481 20 L 481 20 Z M 489 0 Q 500 0 508 7 L 568 60 Q 577 69 577 81 Q 577 91 570 99 L 472 204 Q 465 211 465 221 L 465 251 Q 464 277 441 288 L 414 299 Q 399 305 388 294 L 303 209 Q 289 192 303 175 L 469 8 Q 478 0 489 0 L 489 0 Z M 6 469 L 244 231 L 255 242 L 17 480 Q 17 480 17 480 Q 64 496 113 496 Q 191 495 249 466 Q 307 438 357 389 Q 366 378 357 367 L 348 357 Q 339 346 348 335 L 370 356 Q 378 366 378 379 Q 378 391 368 400 Q 316 451 256 481 Q 195 511 113 512 Q 61 511 12 495 Q 4 492 2 484 Q 0 476 6 469 L 6 469 Z M 417 144 Q 418 129 433 128 Q 448 129 449 144 Q 448 159 433 160 Q 418 159 417 144 L 417 144 Z M 481 80 Q 496 81 497 96 Q 496 111 481 112 Q 466 111 465 96 Q 466 81 481 80 L 481 80 Z"/>
</svg>
