<svg xmlns="http://www.w3.org/2000/svg" viewBox="0 0 512 512">
  <path d="M 68.26667 25.6 Q 69.333336 18.133333 76.8 17.066668 L 128 17.066668 L 128 17.066668 Q 135.46666 18.133333 136.53334 25.6 L 136.53334 51.2 L 136.53334 51.2 Q 138.66667 74.666664 162.13333 76.8 L 196.26666 76.8 L 196.26666 76.8 Q 219.73334 74.666664 221.86667 51.2 L 221.86667 25.6 L 221.86667 25.6 Q 222.93333 18.133333 230.4 17.066668 L 281.6 17.066668 L 281.6 17.066668 Q 289.06668 18.133333 290.13333 25.6 L 290.13333 51.2 L 290.13333 51.2 Q 292.26666 74.666664 315.73334 76.8 L 349.86667 76.8 L 349.86667 76.8 Q 373.33334 74.666664 375.46667 51.2 L 375.46667 25.6 L 375.46667 25.6 Q 376.53333 18.133333 384 17.066668 L 435.2 17.066668 L 435.2 17.066668 Q 442.66666 18.133333 443.73334 25.6 L 443.73334 165.33333 L 443.73334 165.33333 Q 443.73334 176 436.26666 183.46666 L 386.13333 232.53334 L 386.13333 232.53334 Q 384 235.73334 384 238.93333 L 391.46667 375.46667 L 391.46667 375.46667 L 408.53333 375.46667 L 408.53333 375.46667 L 401.06668 242.13333 L 401.06668 242.13333 L 448 195.2 L 448 195.2 Q 460.8 182.4 460.8 165.33333 L 460.8 25.6 L 460.8 25.6 Q 458.66666 2.1333334 435.2 0 L 384 0 L 384 0 Q 360.53333 2.1333334 358.4 25.6 L 358.4 51.2 L 358.4 51.2 Q 357.33334 58.666668 349.86667 59.733334 L 315.73334 59.733334 L 315.73334 59.733334 Q 308.26666 58.666668 307.2 51.2 L 307.2 25.6 L 307.2 25.6 Q 305.06668 2.1333334 281.6 0 L 230.4 0 L 230.4 0 Q 206.93333 2.1333334 204.8 25.6 L 204.8 51.2 L 204.8 51.2 Q 203.73334 58.666668 196.26666 59.733334 L 162.13333 59.733334 L 162.13333 59.733334 Q 154.66667 58.666668 153.6 51.2 L 153.6 25.6 L 153.6 25.6 Q 151.46666 2.1333334 128 0 L 76.8 0 L 76.8 0 Q 53.333332 2.1333334 51.2 25.6 L 51.2 165.33333 L 51.2 165.33333 Q 51.2 182.4 64 195.2 L 110.933334 242.13333 L 110.933334 242.13333 L 103.46667 375.46667 L 103.46667 375.46667 L 120.53333 375.46667 L 120.53333 375.46667 L 128 238.93333 L 128 238.93333 Q 128 235.73334 125.86667 232.53334 L 75.73333 183.46666 L 75.73333 183.46666 Q 68.26667 176 68.26667 165.33333 L 68.26667 25.6 L 68.26667 25.6 Z M 213.33333 196.26666 L 213.33333 264.53333 L 213.33333 196.26666 L 213.33333 264.53333 Q 214.4 272 221.86667 273.06668 L 290.13333 273.06668 L 290.13333 273.06668 Q 297.6 272 298.66666 264.53333 L 298.66666 196.26666 L 298.66666 196.26666 Q 298.66666 178.13333 285.86667 166.4 Q 274.13333 153.6 256 153.6 Q 237.86667 153.6 226.13333 166.4 Q 213.33333 178.13333 213.33333 196.26666 L 213.33333 196.26666 Z M 256 170.66667 Q 279.46667 172.8 281.6 196.26666 L 281.6 256 L 281.6 256 L 230.4 256 L 230.4 256 L 230.4 196.26666 L 230.4 196.26666 Q 232.53334 172.8 256 170.66667 L 256 170.66667 Z M 117.333336 426.66666 L 394.66666 426.66666 L 117.333336 426.66666 L 394.66666 426.66666 Q 402.13333 426.66666 407.46667 432 L 439.46667 468.26666 L 439.46667 468.26666 Q 443.73334 472.53333 443.73334 478.93332 Q 442.66666 493.86667 427.73334 494.93332 L 84.26667 494.93332 L 84.26667 494.93332 Q 69.333336 493.86667 68.26667 478.93332 Q 68.26667 472.53333 72.53333 468.26666 L 104.53333 432 L 104.53333 432 Q 109.86667 426.66666 117.333336 426.66666 L 117.333336 426.66666 Z M 452.26666 457.6 L 419.2 421.33334 L 452.26666 457.6 L 419.2 421.33334 Q 409.6 409.6 394.66666 409.6 L 117.333336 409.6 L 117.333336 409.6 Q 102.4 409.6 92.8 421.33334 L 59.733334 457.6 L 59.733334 457.6 Q 51.2 466.13333 51.2 478.93332 Q 51.2 492.8 60.8 502.4 Q 70.4 512 84.26667 512 L 427.73334 512 L 427.73334 512 Q 441.6 512 451.2 502.4 Q 460.8 492.8 460.8 478.93332 Q 460.8 466.13333 452.26666 457.6 L 452.26666 457.6 Z" />
</svg>