<svg xmlns="http://www.w3.org/2000/svg" viewBox="0 0 512 512">
  <path d="M 10.24 0 Q 2.2755556 1.1377778 1.1377778 9.102222 Q 2.2755556 17.066668 10.24 18.204445 L 151.32445 18.204445 L 151.32445 18.204445 Q 168.39111 19.342222 176.35556 34.133335 L 200.24889 84.19556 L 200.24889 84.19556 L 20.48 497.2089 L 20.48 497.2089 Q 17.066668 505.17334 25.03111 508.58667 Q 32.995556 512 36.40889 504.03555 L 210.48889 105.81333 L 210.48889 105.81333 L 392.53333 483.55554 L 392.53333 483.55554 Q 406.18668 508.58667 433.49335 509.72446 L 501.76 509.72446 L 501.76 509.72446 Q 509.72446 508.58667 510.8622 500.62222 Q 509.72446 492.65778 501.76 491.52 L 433.49335 491.52 L 433.49335 491.52 Q 416.42667 490.38223 409.6 475.59113 L 192.28444 26.168888 L 192.28444 26.168888 Q 178.6311 1.1377778 151.32445 0 L 10.24 0 L 10.24 0 Z" />
</svg>