<svg xmlns="http://www.w3.org/2000/svg" viewBox="0 0 512 512">
  <path d="M 124.77310924369748 18.285714285714285 Q 131.2268907563025 13.983193277310924 137.68067226890756 18.285714285714285 L 258.1512605042017 138.7563025210084 L 258.1512605042017 138.7563025210084 Q 262.453781512605 145.21008403361344 258.1512605042017 151.6638655462185 Q 251.69747899159663 155.96638655462183 245.2436974789916 151.6638655462185 L 139.83193277310923 45.1764705882353 L 139.83193277310923 45.1764705882353 L 139.83193277310923 489.4117647058824 L 139.83193277310923 489.4117647058824 Q 138.7563025210084 496.94117647058823 131.2268907563025 498.01680672268907 Q 123.69747899159664 496.94117647058823 122.6218487394958 489.4117647058824 L 122.6218487394958 45.1764705882353 L 122.6218487394958 45.1764705882353 L 17.210084033613445 151.6638655462185 L 17.210084033613445 151.6638655462185 Q 10.756302521008404 155.96638655462183 4.302521008403361 151.6638655462185 Q 0 145.21008403361344 4.302521008403361 138.7563025210084 L 124.77310924369748 18.285714285714285 L 124.77310924369748 18.285714285714285 Z M 320.5378151260504 300.10084033613447 Q 321.61344537815125 292.57142857142856 329.14285714285717 291.4957983193277 L 484.03361344537814 291.4957983193277 L 484.03361344537814 291.4957983193277 Q 489.4117647058824 291.4957983193277 491.56302521008405 296.87394957983196 Q 493.7142857142857 301.1764705882353 490.4873949579832 305.47899159663865 L 347.42857142857144 480.8067226890756 L 347.42857142857144 480.8067226890756 L 484.03361344537814 480.8067226890756 L 484.03361344537814 480.8067226890756 Q 491.56302521008405 481.88235294117646 492.6386554621849 489.4117647058824 Q 491.56302521008405 496.94117647058823 484.03361344537814 498.01680672268907 L 329.14285714285717 498.01680672268907 L 329.14285714285717 498.01680672268907 Q 323.7647058823529 498.01680672268907 321.61344537815125 492.6386554621849 Q 319.4621848739496 488.33613445378154 322.6890756302521 484.03361344537814 L 465.74789915966386 308.70588235294116 L 465.74789915966386 308.70588235294116 L 329.14285714285717 308.70588235294116 L 329.14285714285717 308.70588235294116 Q 321.61344537815125 307.6302521008403 320.5378151260504 300.10084033613447 L 320.5378151260504 300.10084033613447 Z M 406.5882352941176 16.134453781512605 Q 411.96638655462186 16.134453781512605 414.11764705882354 20.436974789915965 L 482.9579831932773 158.11764705882354 L 482.9579831932773 158.11764705882354 L 482.9579831932773 159.19327731092437 L 482.9579831932773 159.19327731092437 L 508.7731092436975 209.74789915966386 L 508.7731092436975 209.74789915966386 Q 512 217.27731092436974 505.546218487395 221.57983193277312 Q 498.01680672268907 224.80672268907563 493.7142857142857 218.35294117647058 L 470.0504201680672 171.0252100840336 L 470.0504201680672 171.0252100840336 L 343.12605042016804 171.0252100840336 L 343.12605042016804 171.0252100840336 L 319.4621848739496 218.35294117647058 L 319.4621848739496 218.35294117647058 Q 315.15966386554624 224.80672268907563 307.6302521008403 221.57983193277312 Q 301.1764705882353 217.27731092436974 304.4033613445378 210.8235294117647 L 330.218487394958 159.19327731092437 L 330.218487394958 159.19327731092437 L 330.218487394958 158.11764705882354 L 330.218487394958 158.11764705882354 L 399.05882352941177 20.436974789915965 L 399.05882352941177 20.436974789915965 Q 401.21008403361344 16.134453781512605 406.5882352941176 16.134453781512605 L 406.5882352941176 16.134453781512605 Z M 406.5882352941176 44.10084033613445 L 351.7310924369748 153.81512605042016 L 406.5882352941176 44.10084033613445 L 351.7310924369748 153.81512605042016 L 461.4453781512605 153.81512605042016 L 461.4453781512605 153.81512605042016 L 406.5882352941176 44.10084033613445 L 406.5882352941176 44.10084033613445 Z" />
</svg>