<svg xmlns="http://www.w3.org/2000/svg" viewBox="0 0 512 512">
  <path d="M 256 16 Q 321 17 376 48 L 376 48 L 376 48 Q 431 80 464 136 Q 496 193 496 256 Q 496 319 464 376 Q 431 432 376 464 Q 321 495 256 496 Q 191 495 136 464 Q 81 432 48 376 Q 16 319 16 256 Q 16 193 48 136 Q 81 80 136 48 Q 191 17 256 16 L 256 16 Z M 256 512 Q 326 511 384 478 L 384 478 L 384 478 Q 442 444 478 384 Q 512 323 512 256 Q 512 189 478 128 Q 442 68 384 34 Q 326 1 256 0 Q 186 1 128 34 Q 70 68 34 128 Q 0 189 0 256 Q 0 323 34 384 Q 70 444 128 478 Q 186 511 256 512 L 256 512 Z M 333 398 Q 338 392 334 387 Q 323 374 303 363 Q 284 353 256 352 Q 228 353 209 363 Q 189 374 178 387 Q 174 392 179 398 Q 185 402 190 397 Q 200 386 216 377 Q 233 368 256 368 Q 279 368 296 377 Q 313 386 322 397 Q 328 402 333 398 L 333 398 Z M 176 256 Q 191 255 192 240 Q 191 225 176 224 Q 162 225 160 240 Q 162 255 176 256 L 176 256 Z M 352 240 Q 351 225 336 224 Q 322 225 320 240 Q 322 255 336 256 Q 351 255 352 240 L 352 240 Z M 131 168 Q 123 167 120 174 Q 119 181 126 184 L 222 216 L 222 216 Q 229 217 232 211 Q 233 203 227 200 L 131 168 L 131 168 Z M 387 184 Q 393 181 392 173 Q 389 167 382 168 L 286 200 L 286 200 Q 279 203 280 210 Q 283 217 291 216 L 387 184 L 387 184 Z" />
</svg>