<svg xmlns="http://www.w3.org/2000/svg" viewBox="0 0 512 512">
  <path d="M 14.222222 99.55556 L 14.222222 384 L 14.222222 99.55556 L 14.222222 384 Q 15.111111 401.77777 26.666666 414.22223 Q 39.11111 425.77777 56.88889 426.66666 L 253.33333 426.66666 L 253.33333 426.66666 Q 257.77777 433.77777 263.1111 440.8889 L 56.88889 440.8889 L 56.88889 440.8889 Q 32.88889 440 16.88889 424 Q 0.8888889 408 0 384 L 0 99.55556 L 0 99.55556 Q 0.8888889 75.55556 16.88889 59.555557 Q 32.88889 43.555557 56.88889 42.666668 L 275.55554 42.666668 L 275.55554 42.666668 Q 298.66666 42.666668 315.55554 59.555557 L 381.33334 125.333336 L 381.33334 125.333336 Q 398.22223 142.22223 398.22223 166.22223 L 398.22223 185.77777 L 398.22223 185.77777 Q 391.1111 184.88889 384 184.88889 L 384 166.22223 L 384 166.22223 Q 384 148.44444 371.55554 136 L 304.8889 69.333336 L 304.8889 69.333336 Q 296.8889 60.444443 284.44446 57.77778 L 284.44446 156.44444 L 284.44446 156.44444 Q 284.44446 168.88889 276.44446 176.88889 Q 268.44446 184.88889 256 184.88889 L 85.333336 184.88889 L 85.333336 184.88889 Q 72.888885 184.88889 64.888885 176.88889 Q 56.88889 168.88889 56.88889 156.44444 L 56.88889 56.88889 L 56.88889 56.88889 Q 39.11111 57.77778 26.666666 69.333336 Q 15.111111 81.77778 14.222222 99.55556 L 14.222222 99.55556 Z M 199.11111 227.55556 Q 233.77777 228.44444 256 251.55556 Q 251.55556 257.77777 248 264 Q 229.33333 242.66667 199.11111 241.77777 Q 171.55556 242.66667 153.77777 260.44446 Q 136 278.22223 135.11111 305.77777 Q 136 333.33334 153.77777 351.1111 Q 171.55556 368.8889 199.11111 369.77777 Q 215.11111 369.77777 229.33333 362.66666 Q 230.22223 369.77777 232 376.8889 Q 216.88889 384 199.11111 384 Q 166.22223 383.1111 144 360.8889 Q 121.77778 338.66666 120.888885 305.77777 Q 121.77778 272.8889 144 250.66667 Q 166.22223 228.44444 199.11111 227.55556 L 199.11111 227.55556 Z M 71.111115 56.88889 L 71.111115 156.44444 L 71.111115 56.88889 L 71.111115 156.44444 Q 72 169.77777 85.333336 170.66667 L 256 170.66667 L 256 170.66667 Q 269.33334 169.77777 270.22223 156.44444 L 270.22223 56.88889 L 270.22223 56.88889 L 71.111115 56.88889 L 71.111115 56.88889 Z M 497.77777 341.33334 Q 497.77777 310.22223 482.66666 284.44446 L 482.66666 284.44446 L 482.66666 284.44446 Q 467.55554 258.66666 440.8889 242.66667 Q 414.22223 227.55556 384 227.55556 Q 353.77777 227.55556 327.1111 242.66667 Q 300.44446 258.66666 285.33334 284.44446 Q 270.22223 310.22223 270.22223 341.33334 Q 270.22223 372.44446 285.33334 398.22223 Q 300.44446 424 327.1111 440 Q 353.77777 455.1111 384 455.1111 Q 414.22223 455.1111 440.8889 440 Q 467.55554 424 482.66666 398.22223 Q 497.77777 372.44446 497.77777 341.33334 L 497.77777 341.33334 Z M 256 341.33334 Q 256 306.66666 272.8889 277.33334 L 272.8889 277.33334 L 272.8889 277.33334 Q 289.77777 248 320 230.22223 Q 350.22223 213.33333 384 213.33333 Q 417.77777 213.33333 448 230.22223 Q 478.22223 248 495.1111 277.33334 Q 512 306.66666 512 341.33334 Q 512 376 495.1111 405.33334 Q 478.22223 434.66666 448 452.44446 Q 417.77777 469.33334 384 469.33334 Q 350.22223 469.33334 320 452.44446 Q 289.77777 434.66666 272.8889 405.33334 Q 256 376 256 341.33334 L 256 341.33334 Z M 439.1111 296.8889 L 393.77777 341.33334 L 439.1111 296.8889 L 393.77777 341.33334 L 439.1111 385.77777 L 439.1111 385.77777 Q 442.66666 391.1111 439.1111 396.44446 Q 433.77777 400 428.44446 396.44446 L 384 351.1111 L 384 351.1111 L 339.55554 396.44446 L 339.55554 396.44446 Q 334.22223 400 328.8889 396.44446 Q 325.33334 391.1111 328.8889 385.77777 L 374.22223 341.33334 L 374.22223 341.33334 L 328.8889 296.8889 L 328.8889 296.8889 Q 325.33334 291.55554 328.8889 286.22223 Q 334.22223 282.66666 339.55554 286.22223 L 384 331.55554 L 384 331.55554 L 428.44446 286.22223 L 428.44446 286.22223 Q 433.77777 282.66666 439.1111 286.22223 Q 442.66666 291.55554 439.1111 296.8889 L 439.1111 296.8889 Z" />
</svg>