<svg xmlns="http://www.w3.org/2000/svg" viewBox="0 0 640 512">
    <path d="M 225 87 Q 229 49 256 25 L 256 25 Q 283 1 321 0 Q 361 1 388 28 Q 415 54 416 94 Q 415 155 366 192 L 334 216 L 613 402 Q 639 420 640 452 Q 639 477 622 494 Q 605 511 580 512 L 60 512 Q 35 511 18 494 Q 1 477 0 452 Q 1 420 27 402 L 315 209 L 357 179 Q 399 147 400 94 Q 399 61 377 39 Q 354 17 321 16 Q 289 17 267 37 Q 244 57 241 89 L 240 97 Q 239 104 231 104 Q 224 103 224 95 L 225 87 L 225 87 Z M 320 226 L 36 415 Q 17 429 16 452 Q 16 471 29 483 Q 41 496 60 496 L 580 496 Q 599 496 611 483 Q 624 471 624 452 Q 623 429 604 415 L 320 226 L 320 226 Z"/>
</svg>
