<svg xmlns="http://www.w3.org/2000/svg" viewBox="0 0 512 512">
  <path d="M 371.2 64 Q 382.4 64 389.6 71.2 L 389.6 71.2 L 389.6 71.2 Q 396.8 78.4 396.8 89.6 L 396.8 243.2 L 396.8 243.2 Q 396.8 254.4 389.6 261.6 Q 382.4 268.8 371.2 268.8 L 140.8 268.8 L 140.8 268.8 Q 129.6 268.8 122.4 261.6 Q 115.2 254.4 115.2 243.2 L 115.2 89.6 L 115.2 89.6 Q 115.2 78.4 122.4 71.2 Q 129.6 64 140.8 64 L 204.8 64 L 204.8 64 L 204.8 160 L 204.8 160 Q 204.8 164 208.8 165.6 Q 212 167.2 215.2 164.8 L 256 130.4 L 256 130.4 L 296.8 164.8 L 296.8 164.8 Q 300 167.2 303.2 165.6 Q 307.2 164 307.2 160 L 307.2 64 L 307.2 64 L 371.2 64 L 371.2 64 Z M 217.6 64 L 294.4 64 L 217.6 64 L 294.4 64 L 294.4 146.4 L 294.4 146.4 L 260 116.8 L 260 116.8 Q 256 113.6 252 116.8 L 217.6 146.4 L 217.6 146.4 L 217.6 64 L 217.6 64 Z M 140.8 51.2 Q 124.8 52 113.6 62.4 L 113.6 62.4 L 113.6 62.4 Q 103.2 73.6 102.4 89.6 L 102.4 243.2 L 102.4 243.2 Q 103.2 259.2 113.6 270.4 Q 124.8 280.8 140.8 281.6 L 371.2 281.6 L 371.2 281.6 Q 387.2 280.8 398.4 270.4 Q 408.8 259.2 409.6 243.2 L 409.6 89.6 L 409.6 89.6 Q 408.8 73.6 398.4 62.4 Q 387.2 52 371.2 51.2 L 140.8 51.2 L 140.8 51.2 Z M 499.2 384 Q 498.4 411.2 480.8 429.6 L 480.8 429.6 L 480.8 429.6 Q 462.4 447.2 435.2 448 L 76.8 448 L 76.8 448 Q 49.6 447.2 31.2 429.6 Q 13.6 411.2 12.8 384 Q 13.6 356.8 31.2 338.4 Q 49.6 320.8 76.8 320 L 435.2 320 L 435.2 320 Q 462.4 320.8 480.8 338.4 Q 498.4 356.8 499.2 384 L 499.2 384 Z M 76.8 307.2 Q 44 308 22.4 329.6 L 22.4 329.6 L 22.4 329.6 Q 0.8 351.2 0 384 Q 0.8 416.8 22.4 438.4 Q 44 460 76.8 460.8 L 435.2 460.8 L 435.2 460.8 Q 468 460 489.6 438.4 Q 511.2 416.8 512 384 Q 511.2 351.2 489.6 329.6 Q 468 308 435.2 307.2 L 76.8 307.2 L 76.8 307.2 Z M 89.6 358.4 Q 100.8 358.4 108 365.6 L 108 365.6 L 108 365.6 Q 115.2 372.8 115.2 384 Q 115.2 395.2 108 402.4 Q 100.8 409.6 89.6 409.6 Q 78.4 409.6 71.2 402.4 Q 64 395.2 64 384 Q 64 372.8 71.2 365.6 Q 78.4 358.4 89.6 358.4 L 89.6 358.4 Z M 89.6 422.4 Q 111.2 421.6 123.2 403.2 Q 132.8 384 123.2 364.8 Q 111.2 346.4 89.6 345.6 Q 68 346.4 56 364.8 Q 46.4 384 56 403.2 Q 68 421.6 89.6 422.4 L 89.6 422.4 Z M 230.4 384 Q 230.4 372.8 237.6 365.6 L 237.6 365.6 L 237.6 365.6 Q 244.8 358.4 256 358.4 Q 267.2 358.4 274.4 365.6 Q 281.6 372.8 281.6 384 Q 281.6 395.2 274.4 402.4 Q 267.2 409.6 256 409.6 Q 244.8 409.6 237.6 402.4 Q 230.4 395.2 230.4 384 L 230.4 384 Z M 294.4 384 Q 293.6 362.4 275.2 350.4 Q 256 340.8 236.8 350.4 Q 218.4 362.4 217.6 384 Q 218.4 405.6 236.8 417.6 Q 256 427.2 275.2 417.6 Q 293.6 405.6 294.4 384 L 294.4 384 Z M 422.4 358.4 Q 433.6 358.4 440.8 365.6 L 440.8 365.6 L 440.8 365.6 Q 448 372.8 448 384 Q 448 395.2 440.8 402.4 Q 433.6 409.6 422.4 409.6 Q 411.2 409.6 404 402.4 Q 396.8 395.2 396.8 384 Q 396.8 372.8 404 365.6 Q 411.2 358.4 422.4 358.4 L 422.4 358.4 Z M 422.4 422.4 Q 444 421.6 456 403.2 Q 465.6 384 456 364.8 Q 444 346.4 422.4 345.6 Q 400.8 346.4 388.8 364.8 Q 379.2 384 388.8 403.2 Q 400.8 421.6 422.4 422.4 L 422.4 422.4 Z" />
</svg>