<svg xmlns="http://www.w3.org/2000/svg" viewBox="0 0 288 512">
    <path d="M 80 80 Q 81 53 99 35 L 99 35 Q 117 17 144 16 Q 171 17 189 35 Q 207 53 208 80 L 208 244 Q 209 257 219 264 Q 243 282 257 309 Q 272 336 272 368 Q 271 422 235 459 Q 198 495 144 496 Q 90 495 53 459 Q 17 422 16 368 Q 16 336 31 309 Q 45 282 69 264 Q 79 257 80 244 L 80 80 L 80 80 Z M 144 0 Q 110 1 87 23 L 87 23 Q 65 46 64 80 L 64 244 Q 64 248 60 251 Q 32 271 16 301 Q 0 332 0 368 Q 2 429 42 470 Q 83 511 144 512 Q 205 511 246 470 Q 286 429 288 368 Q 288 332 272 301 Q 256 271 228 251 Q 224 248 224 244 L 224 80 Q 223 46 201 23 Q 178 1 144 0 L 144 0 Z M 96 368 Q 97 341 120 326 Q 144 314 168 326 Q 191 341 192 368 Q 191 395 168 410 Q 144 422 120 410 Q 97 395 96 368 L 96 368 Z M 208 368 Q 207 332 176 313 Q 144 295 112 313 Q 81 332 80 368 Q 81 404 112 423 Q 144 441 176 423 Q 207 404 208 368 L 208 368 Z"/>
</svg>
