<svg xmlns="http://www.w3.org/2000/svg" viewBox="0 0 387 448">
    <path d="M 224 16 Q 135 18 77 77 L 77 77 Q 18 136 16 224 Q 18 312 77 371 Q 135 430 224 432 Q 310 430 368 373 Q 352 376 335 376 Q 254 374 200 320 Q 146 266 144 184 Q 144 130 171 86 Q 197 42 241 17 Q 232 16 224 16 L 224 16 Z M 0 224 Q 1 161 31 111 L 31 111 Q 60 60 111 31 L 111 31 Q 161 1 224 0 Q 233 0 243 1 Q 254 2 257 13 Q 259 24 249 31 Q 209 54 184 94 Q 160 134 160 184 Q 162 259 211 308 Q 261 358 335 360 Q 351 360 365 357 Q 377 356 382 366 Q 387 376 379 385 Q 317 446 224 448 Q 161 447 111 417 Q 60 388 30 337 Q 1 287 0 224 L 0 224 Z"/>
</svg>
