<svg xmlns="http://www.w3.org/2000/svg" viewBox="0 0 578 450">
    <path d="M 314 0 Q 307 1 306 8 Q 307 15 314 16 L 346 16 Q 438 18 499 79 Q 560 140 562 232 L 562 235 Q 534 194 482 192 L 447 192 L 393 100 Q 391 96 386 96 Q 382 96 379 100 L 323 187 L 265 100 Q 262 96 258 96 Q 254 96 251 99 L 183 192 L 104 192 Q 74 193 55 213 Q 35 232 34 262 Q 36 306 75 326 L 82 329 L 4 435 Q 0 442 5 446 Q 12 450 17 445 L 97 336 L 139 355 Q 158 364 179 370 L 132 435 Q 128 442 133 447 Q 140 450 144 445 L 192 380 Q 194 377 194 374 Q 232 384 272 384 L 291 384 L 259 436 Q 256 442 262 447 Q 268 450 273 444 L 310 384 L 482 384 Q 491 384 500 382 L 531 444 Q 535 450 542 447 Q 548 443 545 436 L 516 378 Q 544 367 561 343 Q 578 319 578 288 Q 578 285 578 282 Q 578 281 578 280 L 578 232 Q 577 167 546 115 Q 515 63 463 32 Q 411 1 346 0 L 314 0 L 314 0 Z M 442 208 L 482 208 Q 516 209 539 231 Q 561 254 562 288 Q 561 322 539 345 Q 516 367 482 368 L 306 368 L 306 368 L 272 368 Q 206 368 145 341 L 107 323 L 191 208 L 322 208 L 322 208 L 442 208 L 442 208 L 442 208 Z M 386 119 L 428 192 L 338 192 L 386 119 L 386 119 Z M 258 118 L 307 192 L 203 192 L 258 118 L 258 118 Z M 104 208 L 171 208 L 92 316 L 82 311 Q 51 296 50 262 Q 51 239 66 224 Q 81 209 104 208 L 104 208 Z M 482 304 Q 497 303 498 288 Q 497 273 482 272 Q 467 273 466 288 Q 467 303 482 304 L 482 304 Z"/>
</svg>
