<svg xmlns="http://www.w3.org/2000/svg" viewBox="0 0 619 448">
    <path d="M 328 0 Q 321 1 320 8 Q 321 15 328 16 L 384 16 Q 401 17 407 33 L 462 217 Q 409 238 383 288 L 288 288 Q 274 288 265 279 Q 256 270 256 256 L 256 192 Q 256 178 247 169 Q 238 160 224 160 L 128 160 Q 74 161 37 197 Q 1 234 0 288 L 0 320 Q 0 334 9 343 Q 18 352 32 352 L 64 352 Q 65 393 92 420 Q 119 447 160 448 Q 201 447 228 420 Q 255 393 256 352 L 336 352 L 372 352 L 376 352 Q 383 351 384 345 Q 388 293 424 259 Q 460 225 512 224 Q 567 225 603 262 Q 608 266 614 262 Q 619 256 614 250 Q 573 210 512 208 Q 494 208 477 212 L 446 108 L 496 133 Q 502 136 509 136 Q 526 134 528 117 L 528 43 Q 526 26 509 24 Q 502 24 496 27 L 436 57 L 432 59 L 422 29 Q 413 2 384 0 L 328 0 L 328 0 Z M 369 336 L 336 336 L 32 336 Q 17 335 16 320 L 16 288 Q 17 240 49 209 Q 80 177 128 176 L 224 176 Q 239 177 240 192 L 240 256 Q 241 276 254 290 Q 268 303 288 304 L 376 304 Q 371 319 369 336 L 369 336 Z M 444 89 Q 442 88 440 88 L 436 73 L 436 75 L 444 71 L 503 42 Q 506 40 509 40 Q 512 40 512 43 L 512 117 Q 512 120 509 120 Q 506 120 503 119 L 444 89 L 444 89 Z M 224 96 Q 239 97 240 112 Q 239 127 224 128 L 128 128 Q 113 127 112 112 Q 113 97 128 96 L 224 96 L 224 96 Z M 128 80 Q 114 80 105 89 L 105 89 Q 96 98 96 112 Q 96 126 105 135 Q 114 144 128 144 L 224 144 Q 238 144 247 135 Q 256 126 256 112 Q 256 98 247 89 Q 238 80 224 80 L 128 80 L 128 80 Z M 80 352 L 240 352 Q 239 386 217 409 Q 194 431 160 432 Q 126 431 103 409 Q 81 386 80 352 L 80 352 Z M 512 272 Q 557 273 581 312 Q 603 352 581 392 Q 557 431 512 432 Q 467 431 443 392 Q 421 352 443 312 Q 467 273 512 272 L 512 272 Z M 512 448 Q 538 448 560 435 L 560 435 Q 582 422 595 400 Q 608 377 608 352 Q 608 327 595 304 Q 582 282 560 269 Q 538 256 512 256 Q 486 256 464 269 Q 442 282 429 304 Q 416 327 416 352 Q 416 377 429 400 Q 442 422 464 435 Q 486 448 512 448 L 512 448 Z"/>
</svg>
