<svg xmlns="http://www.w3.org/2000/svg" viewBox="0 0 512 512">
  <path d="M 14.222222222222221 35.55555555555556 Q 13.333333333333334 29.333333333333332 7.111111111111111 28.444444444444443 Q 0.8888888888888888 29.333333333333332 0 35.55555555555556 L 0 142.22222222222223 L 0 142.22222222222223 L 0 369.77777777777777 L 0 369.77777777777777 Q 0 384.8888888888889 10.666666666666666 394.6666666666667 Q 20.444444444444443 405.3333333333333 35.55555555555556 405.3333333333333 L 227.55555555555554 405.3333333333333 L 227.55555555555554 405.3333333333333 L 227.55555555555554 391.1111111111111 L 227.55555555555554 391.1111111111111 L 35.55555555555556 391.1111111111111 L 35.55555555555556 391.1111111111111 Q 16 389.3333333333333 14.222222222222221 369.77777777777777 L 14.222222222222221 149.33333333333334 L 14.222222222222221 149.33333333333334 L 227.55555555555554 149.33333333333334 L 227.55555555555554 149.33333333333334 L 227.55555555555554 135.11111111111111 L 227.55555555555554 135.11111111111111 L 14.222222222222221 135.11111111111111 L 14.222222222222221 135.11111111111111 L 14.222222222222221 35.55555555555556 L 14.222222222222221 35.55555555555556 Z M 270.22222222222223 56.888888888888886 Q 271.1111111111111 43.55555555555556 284.44444444444446 42.666666666666664 L 351.1111111111111 42.666666666666664 L 351.1111111111111 42.666666666666664 Q 356.44444444444446 42.666666666666664 360.8888888888889 47.111111111111114 L 380.44444444444446 65.77777777777777 L 380.44444444444446 65.77777777777777 Q 384.8888888888889 71.11111111111111 392 71.11111111111111 L 483.55555555555554 71.11111111111111 L 483.55555555555554 71.11111111111111 Q 496.8888888888889 72 497.77777777777777 85.33333333333333 L 497.77777777777777 199.11111111111111 L 497.77777777777777 199.11111111111111 Q 496.8888888888889 212.44444444444446 483.55555555555554 213.33333333333334 L 284.44444444444446 213.33333333333334 L 284.44444444444446 213.33333333333334 Q 271.1111111111111 212.44444444444446 270.22222222222223 199.11111111111111 L 270.22222222222223 56.888888888888886 L 270.22222222222223 56.888888888888886 Z M 256 56.888888888888886 L 256 199.11111111111111 L 256 56.888888888888886 L 256 199.11111111111111 Q 256 211.55555555555554 264 219.55555555555554 Q 272 227.55555555555554 284.44444444444446 227.55555555555554 L 483.55555555555554 227.55555555555554 L 483.55555555555554 227.55555555555554 Q 496 227.55555555555554 504 219.55555555555554 Q 512 211.55555555555554 512 199.11111111111111 L 512 85.33333333333333 L 512 85.33333333333333 Q 512 72.88888888888889 504 64.88888888888889 Q 496 56.888888888888886 483.55555555555554 56.888888888888886 L 392 56.888888888888886 L 392 56.888888888888886 Q 391.1111111111111 56.888888888888886 390.22222222222223 56 L 370.6666666666667 36.44444444444444 L 370.6666666666667 36.44444444444444 Q 362.6666666666667 28.444444444444443 351.1111111111111 28.444444444444443 L 284.44444444444446 28.444444444444443 L 284.44444444444446 28.444444444444443 Q 272 28.444444444444443 264 36.44444444444444 Q 256 44.44444444444444 256 56.888888888888886 L 256 56.888888888888886 Z M 270.22222222222223 312.8888888888889 Q 271.1111111111111 299.55555555555554 284.44444444444446 298.6666666666667 L 351.1111111111111 298.6666666666667 L 351.1111111111111 298.6666666666667 Q 356.44444444444446 298.6666666666667 360.8888888888889 303.1111111111111 L 380.44444444444446 321.77777777777777 L 380.44444444444446 321.77777777777777 Q 384.8888888888889 327.1111111111111 392 327.1111111111111 L 483.55555555555554 327.1111111111111 L 483.55555555555554 327.1111111111111 Q 496.8888888888889 328 497.77777777777777 341.3333333333333 L 497.77777777777777 455.1111111111111 L 497.77777777777777 455.1111111111111 Q 496.8888888888889 468.44444444444446 483.55555555555554 469.3333333333333 L 284.44444444444446 469.3333333333333 L 284.44444444444446 469.3333333333333 Q 271.1111111111111 468.44444444444446 270.22222222222223 455.1111111111111 L 270.22222222222223 312.8888888888889 L 270.22222222222223 312.8888888888889 Z M 256 312.8888888888889 L 256 455.1111111111111 L 256 312.8888888888889 L 256 455.1111111111111 Q 256 467.55555555555554 264 475.55555555555554 Q 272 483.55555555555554 284.44444444444446 483.55555555555554 L 483.55555555555554 483.55555555555554 L 483.55555555555554 483.55555555555554 Q 496 483.55555555555554 504 475.55555555555554 Q 512 467.55555555555554 512 455.1111111111111 L 512 341.3333333333333 L 512 341.3333333333333 Q 512 328.8888888888889 504 320.8888888888889 Q 496 312.8888888888889 483.55555555555554 312.8888888888889 L 392 312.8888888888889 L 392 312.8888888888889 Q 391.1111111111111 312.8888888888889 390.22222222222223 312 L 370.6666666666667 292.44444444444446 L 370.6666666666667 292.44444444444446 Q 362.6666666666667 284.44444444444446 351.1111111111111 284.44444444444446 L 284.44444444444446 284.44444444444446 L 284.44444444444446 284.44444444444446 Q 272 284.44444444444446 264 292.44444444444446 Q 256 300.44444444444446 256 312.8888888888889 L 256 312.8888888888889 Z" />
</svg>