<svg xmlns="http://www.w3.org/2000/svg" viewBox="0 0 448 512">
    <path d="M 366 214 L 230 350 Q 224 354 218 350 L 82 214 Q 78 208 82 202 Q 88 198 94 202 L 216 325 L 216 8 Q 217 1 224 0 Q 231 1 232 8 L 232 325 L 354 202 Q 360 198 366 202 Q 370 208 366 214 L 366 214 Z M 16 328 L 16 424 Q 17 455 37 475 Q 57 495 88 496 L 360 496 Q 391 495 411 475 Q 431 455 432 424 L 432 328 Q 433 321 440 320 Q 447 321 448 328 L 448 424 Q 447 461 422 486 Q 397 511 360 512 L 88 512 Q 51 511 26 486 Q 1 461 0 424 L 0 328 Q 1 321 8 320 Q 15 321 16 328 L 16 328 Z"/>
</svg>
