<svg xmlns="http://www.w3.org/2000/svg" viewBox="0 0 512 512">
  <path d="M 320 48 L 192 48 L 320 48 L 192 48 Q 144 49 113 81 Q 81 112 80 160 L 80 193 L 80 193 Q 72 192 64 192 L 64 160 L 64 160 Q 65 106 101 69 Q 138 33 192 32 L 320 32 L 320 32 Q 374 33 411 69 Q 447 106 448 160 L 448 192 L 448 192 Q 440 192 432 193 L 432 160 L 432 160 Q 431 112 399 81 Q 368 49 320 48 L 320 48 Z M 112 288 Q 111 268 98 254 L 98 254 L 98 254 Q 84 241 64 240 Q 44 241 30 254 Q 17 268 16 288 L 16 432 L 16 432 Q 16 446 25 455 Q 34 464 48 464 L 80 464 L 80 464 Q 94 464 103 455 Q 112 446 112 432 L 112 288 L 112 288 Z M 0 288 Q 1 261 19 243 L 19 243 L 19 243 Q 37 225 64 224 Q 91 225 109 243 Q 127 261 128 288 L 384 288 L 384 288 Q 385 261 403 243 Q 421 225 448 224 Q 475 225 493 243 Q 511 261 512 288 L 512 432 L 512 432 Q 511 452 498 466 Q 484 479 464 480 L 432 480 L 432 480 Q 412 479 398 466 Q 385 452 384 432 L 128 432 L 128 432 Q 127 452 114 466 Q 100 479 80 480 L 48 480 L 48 480 Q 28 479 14 466 Q 1 452 0 432 L 0 288 L 0 288 Z M 128 416 L 384 416 L 128 416 L 384 416 L 384 304 L 384 304 L 128 304 L 128 304 L 128 416 L 128 416 Z M 496 288 Q 495 268 482 254 L 482 254 L 482 254 Q 468 241 448 240 Q 428 241 414 254 Q 401 268 400 288 L 400 432 L 400 432 Q 400 446 409 455 Q 418 464 432 464 L 464 464 L 464 464 Q 478 464 487 455 Q 496 446 496 432 L 496 288 L 496 288 Z" />
</svg>