<svg xmlns="http://www.w3.org/2000/svg" viewBox="0 0 512 512">
  <path d="M 136.88888888888889 481.77777777777777 Q 142.22222222222223 485.3333333333333 147.55555555555554 481.77777777777777 L 232.88888888888889 396.44444444444446 L 232.88888888888889 396.44444444444446 Q 236.44444444444446 391.1111111111111 232.88888888888889 385.77777777777777 Q 227.55555555555554 382.22222222222223 222.22222222222223 385.77777777777777 L 149.33333333333334 459.55555555555554 L 149.33333333333334 459.55555555555554 L 149.33333333333334 263.1111111111111 L 149.33333333333334 263.1111111111111 L 504.8888888888889 263.1111111111111 L 504.8888888888889 263.1111111111111 Q 511.1111111111111 262.22222222222223 512 256 Q 511.1111111111111 249.77777777777777 504.8888888888889 248.88888888888889 L 376.8888888888889 248.88888888888889 L 376.8888888888889 248.88888888888889 L 376.8888888888889 52.44444444444444 L 376.8888888888889 52.44444444444444 L 449.77777777777777 126.22222222222223 L 449.77777777777777 126.22222222222223 Q 455.1111111111111 129.77777777777777 460.44444444444446 126.22222222222223 Q 464 120.88888888888889 460.44444444444446 115.55555555555556 L 375.1111111111111 30.22222222222222 L 375.1111111111111 30.22222222222222 Q 369.77777777777777 26.666666666666668 364.44444444444446 30.22222222222222 L 279.1111111111111 115.55555555555556 L 279.1111111111111 115.55555555555556 Q 275.55555555555554 120.88888888888889 279.1111111111111 126.22222222222223 Q 284.44444444444446 129.77777777777777 289.77777777777777 126.22222222222223 L 362.6666666666667 52.44444444444444 L 362.6666666666667 52.44444444444444 L 362.6666666666667 248.88888888888889 L 362.6666666666667 248.88888888888889 L 7.111111111111111 248.88888888888889 L 7.111111111111111 248.88888888888889 Q 0.8888888888888888 249.77777777777777 0 256 Q 0.8888888888888888 262.22222222222223 7.111111111111111 263.1111111111111 L 135.11111111111111 263.1111111111111 L 135.11111111111111 263.1111111111111 L 135.11111111111111 459.55555555555554 L 135.11111111111111 459.55555555555554 L 62.22222222222222 385.77777777777777 L 62.22222222222222 385.77777777777777 Q 56.888888888888886 382.22222222222223 51.55555555555556 385.77777777777777 Q 48 391.1111111111111 51.55555555555556 396.44444444444446 L 136.88888888888889 481.77777777777777 L 136.88888888888889 481.77777777777777 Z M 135.11111111111111 199.11111111111111 L 149.33333333333334 199.11111111111111 L 135.11111111111111 199.11111111111111 L 149.33333333333334 199.11111111111111 L 149.33333333333334 64 L 149.33333333333334 64 Q 148.44444444444446 57.77777777777778 142.22222222222223 56.888888888888886 Q 136 57.77777777777778 135.11111111111111 64 L 135.11111111111111 199.11111111111111 L 135.11111111111111 199.11111111111111 Z M 376.8888888888889 312.8888888888889 L 362.6666666666667 312.8888888888889 L 376.8888888888889 312.8888888888889 L 362.6666666666667 312.8888888888889 L 362.6666666666667 448 L 362.6666666666667 448 Q 363.55555555555554 454.22222222222223 369.77777777777777 455.1111111111111 Q 376 454.22222222222223 376.8888888888889 448 L 376.8888888888889 312.8888888888889 L 376.8888888888889 312.8888888888889 Z" />
</svg>