<svg xmlns="http://www.w3.org/2000/svg" viewBox="0 0 512 512">
  <path d="M 320 64 Q 331.2 64 338.4 71.2 L 338.4 71.2 L 338.4 71.2 Q 345.6 78.4 345.6 89.6 L 345.6 166.4 L 345.6 166.4 Q 345.6 177.6 338.4 184.8 Q 331.2 192 320 192 L 192 192 L 192 192 Q 180.8 192 173.6 184.8 Q 166.4 177.6 166.4 166.4 L 166.4 89.6 L 166.4 89.6 Q 166.4 78.4 173.6 71.2 Q 180.8 64 192 64 L 320 64 L 320 64 Z M 192 51.2 Q 176 52 164.8 62.4 L 164.8 62.4 L 164.8 62.4 Q 154.4 73.6 153.6 89.6 L 153.6 166.4 L 153.6 166.4 Q 154.4 182.4 164.8 193.6 Q 176 204 192 204.8 L 249.6 204.8 L 249.6 204.8 L 249.6 249.6 L 249.6 249.6 L 6.4 249.6 L 6.4 249.6 Q 0.8 250.4 0 256 Q 0.8 261.6 6.4 262.4 L 121.6 262.4 L 121.6 262.4 L 121.6 307.2 L 121.6 307.2 L 64 307.2 L 64 307.2 Q 48 308 36.8 318.4 Q 26.4 329.6 25.6 345.6 L 25.6 422.4 L 25.6 422.4 Q 26.4 438.4 36.8 449.6 Q 48 460 64 460.8 L 192 460.8 L 192 460.8 Q 208 460 219.2 449.6 Q 229.6 438.4 230.4 422.4 L 230.4 345.6 L 230.4 345.6 Q 229.6 329.6 219.2 318.4 Q 208 308 192 307.2 L 134.4 307.2 L 134.4 307.2 L 134.4 262.4 L 134.4 262.4 L 377.6 262.4 L 377.6 262.4 L 377.6 307.2 L 377.6 307.2 L 320 307.2 L 320 307.2 Q 304 308 292.8 318.4 Q 282.4 329.6 281.6 345.6 L 281.6 422.4 L 281.6 422.4 Q 282.4 438.4 292.8 449.6 Q 304 460 320 460.8 L 448 460.8 L 448 460.8 Q 464 460 475.2 449.6 Q 485.6 438.4 486.4 422.4 L 486.4 345.6 L 486.4 345.6 Q 485.6 329.6 475.2 318.4 Q 464 308 448 307.2 L 390.4 307.2 L 390.4 307.2 L 390.4 262.4 L 390.4 262.4 L 505.6 262.4 L 505.6 262.4 Q 511.2 261.6 512 256 Q 511.2 250.4 505.6 249.6 L 262.4 249.6 L 262.4 249.6 L 262.4 204.8 L 262.4 204.8 L 320 204.8 L 320 204.8 Q 336 204 347.2 193.6 Q 357.6 182.4 358.4 166.4 L 358.4 89.6 L 358.4 89.6 Q 357.6 73.6 347.2 62.4 Q 336 52 320 51.2 L 192 51.2 L 192 51.2 Z M 64 320 L 192 320 L 64 320 L 192 320 Q 203.2 320 210.4 327.2 Q 217.6 334.4 217.6 345.6 L 217.6 422.4 L 217.6 422.4 Q 217.6 433.6 210.4 440.8 Q 203.2 448 192 448 L 64 448 L 64 448 Q 52.8 448 45.6 440.8 Q 38.4 433.6 38.4 422.4 L 38.4 345.6 L 38.4 345.6 Q 38.4 334.4 45.6 327.2 Q 52.8 320 64 320 L 64 320 Z M 448 320 Q 459.2 320 466.4 327.2 L 466.4 327.2 L 466.4 327.2 Q 473.6 334.4 473.6 345.6 L 473.6 422.4 L 473.6 422.4 Q 473.6 433.6 466.4 440.8 Q 459.2 448 448 448 L 320 448 L 320 448 Q 308.8 448 301.6 440.8 Q 294.4 433.6 294.4 422.4 L 294.4 345.6 L 294.4 345.6 Q 294.4 334.4 301.6 327.2 Q 308.8 320 320 320 L 448 320 L 448 320 Z" />
</svg>