<svg xmlns="http://www.w3.org/2000/svg" viewBox="0 0 290 512">
    <path d="M 45 30 Q 48 17 61 16 L 136 16 L 138 19 L 167 92 L 109 121 Q 106 123 105 127 Q 105 131 107 134 L 171 198 Q 177 202 183 198 Q 187 192 183 186 L 127 130 L 181 103 Q 186 100 184 93 L 154 16 L 229 16 Q 242 17 245 30 L 268 196 Q 274 253 238 294 Q 203 334 145 336 Q 87 334 52 294 Q 16 253 23 196 L 45 30 L 45 30 Z M 29 28 L 7 194 Q 0 256 37 301 Q 75 347 137 352 L 137 496 L 57 496 Q 50 497 49 504 Q 50 511 57 512 L 145 512 L 233 512 Q 240 511 241 504 Q 240 497 233 496 L 153 496 L 153 352 Q 215 347 253 301 Q 290 256 283 193 L 261 28 Q 255 2 229 0 L 61 0 Q 35 2 29 28 L 29 28 Z"/>
</svg>
