<svg xmlns="http://www.w3.org/2000/svg" viewBox="0 0 512 512">
  <path d="M 200 16 Q 192 16 184 20 L 93 73 L 93 73 L 256 120 L 256 120 L 419 73 L 419 73 L 328 20 L 328 20 Q 320 16 312 16 L 200 16 L 200 16 Z M 78 85 Q 77 86 76 87 L 76 87 L 76 87 Q 76 87 76 88 L 20 184 L 20 184 Q 17 190 16 197 L 130 315 L 130 315 L 248 251 L 248 251 L 248 134 L 248 134 L 78 85 L 78 85 Z M 16 220 L 16 312 L 16 220 L 16 312 Q 16 320 20 328 L 76 424 L 76 424 Q 80 432 88 436 L 182 490 L 182 490 L 121 329 L 121 329 L 16 220 L 16 220 Z M 201 496 L 311 496 L 201 496 L 311 496 L 374 328 L 374 328 L 256 265 L 256 265 L 138 328 L 138 328 L 201 496 L 201 496 Z M 330 490 L 424 436 L 330 490 L 424 436 Q 432 432 436 424 L 492 328 L 492 328 Q 496 320 496 312 L 496 216 L 496 216 L 391 329 L 391 329 L 330 490 L 330 490 Z M 495 193 Q 494 188 492 184 L 436 88 L 436 88 Q 435 86 434 85 L 264 134 L 264 134 L 264 251 L 264 251 L 382 315 L 382 315 L 495 193 L 495 193 Z M 176 6 Q 187 0 200 0 L 312 0 L 312 0 Q 325 0 336 6 L 432 62 L 432 62 Q 443 69 450 80 L 506 176 L 506 176 Q 512 187 512 200 L 512 312 L 512 312 Q 512 325 506 336 L 450 432 L 450 432 Q 443 443 432 450 L 336 506 L 336 506 Q 325 512 312 512 L 200 512 L 200 512 Q 187 512 176 506 L 80 450 L 80 450 Q 69 443 62 432 L 6 336 L 6 336 Q 0 325 0 312 L 0 200 L 0 200 Q 0 187 6 176 L 62 80 L 62 80 Q 69 69 80 62 L 176 6 L 176 6 Z" />
</svg>