<svg xmlns="http://www.w3.org/2000/svg" viewBox="0 0 644 516">
    <path d="M 530 514 L 510 498 L 97 498 Q 83 497 82 483 Q 84 422 125 381 Q 166 340 227 338 L 307 338 L 287 322 L 227 322 Q 159 324 113 369 Q 68 415 66 483 Q 66 496 75 505 Q 84 514 97 514 L 530 514 L 530 514 Z M 458 138 Q 457 80 418 42 L 418 42 Q 380 3 322 2 Q 283 2 252 21 Q 221 40 203 72 L 216 82 Q 231 53 259 36 Q 287 18 322 18 Q 373 19 407 53 Q 441 87 442 138 Q 440 194 401 229 L 414 239 Q 456 199 458 138 L 458 138 Z M 15 4 Q 9 0 4 5 Q 0 11 5 16 L 629 512 Q 635 516 640 511 Q 644 505 639 500 L 15 4 L 15 4 Z"/>
</svg>
