<svg xmlns="http://www.w3.org/2000/svg" viewBox="0 0 576 514">
    <path d="M 64 16 Q 44 17 30 30 L 30 30 Q 17 44 16 64 L 16 224 Q 17 244 30 258 Q 44 271 64 272 L 512 272 Q 532 271 546 258 Q 559 244 560 224 L 560 64 Q 559 44 546 30 Q 532 17 512 16 L 64 16 L 64 16 Z M 0 64 Q 1 37 19 19 L 19 19 Q 37 1 64 0 L 512 0 Q 539 1 557 19 Q 575 37 576 64 L 576 224 Q 575 251 557 269 Q 539 287 512 288 L 64 288 Q 37 287 19 269 Q 1 251 0 224 L 0 64 L 0 64 Z M 88 176 Q 81 177 80 184 L 80 200 Q 81 207 88 208 L 104 208 Q 111 207 112 200 L 112 184 Q 111 177 104 176 L 88 176 L 88 176 Z M 64 184 Q 66 162 88 160 L 104 160 Q 126 162 128 184 L 128 200 Q 126 222 104 224 L 88 224 Q 66 222 64 200 L 64 184 L 64 184 Z M 200 80 L 184 80 Q 177 81 176 88 L 176 104 Q 177 111 184 112 L 200 112 Q 207 111 208 104 L 208 88 Q 207 81 200 80 L 200 80 Z M 184 64 L 200 64 Q 222 66 224 88 L 224 104 Q 222 126 200 128 L 184 128 Q 162 126 160 104 L 160 88 Q 162 66 184 64 L 184 64 Z M 184 176 Q 177 177 176 184 L 176 200 Q 177 207 184 208 L 392 208 Q 399 207 400 200 L 400 184 Q 399 177 392 176 L 184 176 L 184 176 Z M 160 184 Q 162 162 184 160 L 392 160 Q 414 162 416 184 L 416 200 Q 414 222 392 224 L 184 224 Q 162 222 160 200 L 160 184 L 160 184 Z M 488 176 L 472 176 Q 465 177 464 184 L 464 200 Q 465 207 472 208 L 488 208 Q 495 207 496 200 L 496 184 Q 495 177 488 176 L 488 176 Z M 472 160 L 488 160 Q 510 162 512 184 L 512 200 Q 510 222 488 224 L 472 224 Q 450 222 448 200 L 448 184 Q 450 162 472 160 L 472 160 Z M 88 80 Q 81 81 80 88 L 80 104 Q 81 111 88 112 L 104 112 Q 111 111 112 104 L 112 88 Q 111 81 104 80 L 88 80 L 88 80 Z M 64 88 Q 66 66 88 64 L 104 64 Q 126 66 128 88 L 128 104 Q 126 126 104 128 L 88 128 Q 66 126 64 104 L 64 88 L 64 88 Z M 296 80 L 280 80 Q 273 81 272 88 L 272 104 Q 273 111 280 112 L 296 112 Q 303 111 304 104 L 304 88 Q 303 81 296 80 L 296 80 Z M 280 64 L 296 64 Q 318 66 320 88 L 320 104 Q 318 126 296 128 L 280 128 Q 258 126 256 104 L 256 88 Q 258 66 280 64 L 280 64 Z M 376 80 Q 369 81 368 88 L 368 104 Q 369 111 376 112 L 392 112 Q 399 111 400 104 L 400 88 Q 399 81 392 80 L 376 80 L 376 80 Z M 352 88 Q 354 66 376 64 L 392 64 Q 414 66 416 88 L 416 104 Q 414 126 392 128 L 376 128 Q 354 126 352 104 L 352 88 L 352 88 Z M 488 80 L 472 80 Q 465 81 464 88 L 464 104 Q 465 111 472 112 L 488 112 Q 495 111 496 104 L 496 88 Q 495 81 488 80 L 488 80 Z M 472 64 L 488 64 Q 510 66 512 88 L 512 104 Q 510 126 488 128 L 472 128 Q 450 126 448 104 L 448 88 Q 450 66 472 64 L 472 64 Z M 150 354 L 288 493 L 426 354 Q 432 350 438 354 Q 442 360 438 366 L 294 510 Q 288 514 282 510 L 138 366 Q 134 360 138 354 Q 144 350 150 354 L 150 354 Z"/>
</svg>
