<svg xmlns="http://www.w3.org/2000/svg" viewBox="0 0 512 512">
  <path d="M 351.62646 11.953307 Q 352.62256 4.9805446 346.6459 1.9922179 Q 338.67703 0 335.68872 5.9766536 L 292.85602 129.49416 L 292.85602 129.49416 Q 267.9533 145.4319 256 173.32295 Q 244.04669 146.42801 220.14008 129.49416 Q 195.23735 112.56031 164.35797 112.56031 Q 109.57198 114.55253 80.68482 158.38132 L 80.68482 120.52918 L 80.68482 120.52918 Q 79.68871 113.55642 72.71595 112.56031 Q 65.74319 113.55642 64.74708 120.52918 L 64.74708 212.1712 L 64.74708 212.1712 L 64.74708 216.15564 L 64.74708 216.15564 L 64.74708 439.28406 L 64.74708 439.28406 Q 65.74319 446.2568 72.71595 447.25293 Q 79.68871 446.2568 80.68482 439.28406 L 80.68482 216.15564 L 80.68482 216.15564 L 80.68482 212.1712 L 80.68482 212.1712 Q 81.68093 176.31128 105.58755 153.40077 Q 128.49805 129.49416 164.35797 128.49805 Q 200.2179 129.49416 223.1284 153.40077 Q 247.03502 176.31128 248.03113 212.1712 L 248.03113 255.00389 L 248.03113 255.00389 L 161.36964 500.0467 L 161.36964 500.0467 Q 159.37743 507.01947 165.35408 511.0039 Q 173.32295 512 176.31128 506.02335 L 248.03113 302.8171 L 248.03113 302.8171 L 248.03113 439.28406 L 248.03113 439.28406 Q 249.02724 446.2568 256 447.25293 Q 262.97275 446.2568 263.96887 439.28406 L 263.96887 256.9961 L 263.96887 256.9961 L 305.80545 139.45525 L 305.80545 139.45525 Q 324.7315 128.49805 347.64203 128.49805 Q 383.50195 129.49416 406.41245 153.40077 Q 430.31906 176.31128 431.3152 212.1712 L 431.3152 439.28406 L 431.3152 439.28406 Q 432.31128 446.2568 439.28406 447.25293 Q 446.2568 446.2568 447.25293 439.28406 L 447.25293 212.1712 L 447.25293 212.1712 Q 446.2568 170.33463 418.36575 141.44746 Q 389.4786 113.55642 347.64203 112.56031 Q 329.71207 112.56031 312.7782 118.536964 L 351.62646 11.953307 L 351.62646 11.953307 Z M 263.96887 209.18288 L 280.9027 161.36964 L 263.96887 209.18288 L 280.9027 161.36964 Q 264.96497 182.28793 263.96887 209.18288 L 263.96887 209.18288 Z" />
</svg>