<svg xmlns="http://www.w3.org/2000/svg" viewBox="0 0 512 512">
  <path d="M 456.93023255813955 370.1085271317829 L 456.93023255813955 370.1085271317829 L 456.93023255813955 370.1085271317829 L 456.93023255813955 370.1085271317829 L 455.93798449612405 370.1085271317829 L 455.93798449612405 370.1085271317829 L 393.4263565891473 448.49612403100775 L 393.4263565891473 448.49612403100775 Q 384.49612403100775 458.4186046511628 372.5891472868217 460.4031007751938 Q 359.68992248062017 461.3953488372093 348.7751937984496 453.4573643410853 Q 334.8837209302326 440.5581395348837 337.86046511627904 422.69767441860466 L 337.86046511627904 422.69767441860466 L 337.86046511627904 422.69767441860466 L 398.38759689922483 346.29457364341084 L 398.38759689922483 346.29457364341084 Q 402.3565891472868 340.3410852713178 397.3953488372093 335.37984496124034 Q 391.4418604651163 331.4108527131783 386.48062015503876 336.3720930232558 L 330.91472868217056 405.82945736434107 L 330.91472868217056 405.82945736434107 L 323.968992248062 404.83720930232556 L 323.968992248062 404.83720930232556 Q 267.4108527131783 394.91472868217056 229.70542635658916 352.2480620155039 L 229.70542635658916 317.51937984496124 L 229.70542635658916 317.51937984496124 Q 229.70542635658916 302.6356589147287 218.7906976744186 292.71317829457365 Q 208.86821705426357 281.7984496124031 193.984496124031 281.7984496124031 Q 179.10077519379846 281.7984496124031 169.1782945736434 292.71317829457365 Q 158.26356589147287 302.6356589147287 158.26356589147287 317.51937984496124 L 158.26356589147287 365.14728682170545 L 158.26356589147287 365.14728682170545 Q 158.26356589147287 374.07751937984494 162.2325581395349 382.015503875969 L 165.2093023255814 386.9767441860465 L 165.2093023255814 386.9767441860465 L 169.1782945736434 388.9612403100775 L 169.1782945736434 388.9612403100775 L 255.50387596899225 431.6279069767442 L 255.50387596899225 431.6279069767442 Q 267.4108527131783 438.5736434108527 271.37984496124034 450.48062015503876 Q 275.3488372093023 462.38759689922483 270.38759689922483 474.29457364341084 Q 263.4418604651163 486.2015503875969 251.53488372093022 490.17054263565893 Q 239.62790697674419 494.13953488372096 227.72093023255815 489.1782945736434 L 68.96124031007751 409.7984496124031 L 68.96124031007751 409.7984496124031 L 68.96124031007751 409.7984496124031 L 68.96124031007751 409.7984496124031 L 68.96124031007751 409.7984496124031 L 68.96124031007751 409.7984496124031 Q 68.96124031007751 409.7984496124031 67.96899224806202 408.8062015503876 Q 67.96899224806202 408.8062015503876 66.97674418604652 408.8062015503876 L 66.97674418604652 408.8062015503876 L 66.97674418604652 408.8062015503876 Q 62.01550387596899 405.82945736434107 59.03875968992248 401.86046511627904 L 59.03875968992248 401.86046511627904 L 59.03875968992248 401.86046511627904 Q 54.07751937984496 395.90697674418607 52.093023255813954 388.9612403100775 Q 49.116279069767444 377.05426356589146 55.06976744186046 365.14728682170545 L 55.06976744186046 365.14728682170545 L 55.06976744186046 365.14728682170545 Q 56.06201550387597 364.15503875968994 57.054263565891475 363.16279069767444 L 57.054263565891475 363.16279069767444 L 57.054263565891475 363.16279069767444 L 57.054263565891475 363.16279069767444 L 57.054263565891475 363.16279069767444 L 123.53488372093024 262.94573643410854 L 123.53488372093024 262.94573643410854 Q 141.3953488372093 236.15503875968992 169.1782945736434 221.27131782945736 Q 196.96124031007753 206.3875968992248 228.71317829457365 206.3875968992248 L 304.1240310077519 206.3875968992248 L 304.1240310077519 206.3875968992248 Q 334.8837209302326 206.3875968992248 361.6744186046512 220.27906976744185 Q 388.4651162790698 234.1705426356589 407.3178294573643 259.968992248062 L 457.92248062015506 330.4186046511628 L 457.92248062015506 330.4186046511628 L 457.92248062015506 330.4186046511628 L 457.92248062015506 330.4186046511628 L 457.92248062015506 330.4186046511628 L 457.92248062015506 330.4186046511628 Q 459.90697674418607 333.3953488372093 460.8992248062016 336.3720930232558 L 460.8992248062016 336.3720930232558 L 460.8992248062016 336.3720930232558 Q 463.8759689922481 343.3178294573643 463.8759689922481 350.26356589147287 Q 463.8759689922481 361.1782945736434 456.93023255813955 369.1162790697674 L 456.93023255813955 370.1085271317829 Z M 213.8294573643411 317.51937984496124 L 213.8294573643411 358.2015503875969 L 213.8294573643411 317.51937984496124 L 213.8294573643411 358.2015503875969 Q 252.52713178294573 404.83720930232556 311.06976744186045 417.73643410852713 Q 316.031007751938 418.72868217054264 321.984496124031 419.72093023255815 Q 320.9922480620155 421.70542635658916 320.9922480620155 422.69767441860466 Q 320.9922480620155 422.69767441860466 320.9922480620155 422.69767441860466 Q 319.0077519379845 448.49612403100775 338.85271317829455 466.3565891472868 Q 354.72868217054264 478.26356589147287 373.5813953488372 476.27906976744185 Q 392.4341085271318 474.29457364341084 406.3255813953488 458.4186046511628 L 468.83720930232556 380.031007751938 L 468.83720930232556 380.031007751938 Q 478.7596899224806 367.13178294573646 479.7519379844961 350.26356589147287 Q 479.7519379844961 340.3410852713178 475.7829457364341 330.4186046511628 Q 473.7984496124031 325.4573643410853 470.8217054263566 320.49612403100775 L 420.2170542635659 250.04651162790697 L 420.2170542635659 250.04651162790697 Q 399.37984496124034 222.26356589147287 369.61240310077517 206.3875968992248 Q 338.85271317829455 190.51162790697674 304.1240310077519 190.51162790697674 L 228.71317829457365 190.51162790697674 L 228.71317829457365 190.51162790697674 Q 192.9922480620155 190.51162790697674 161.24031007751938 207.3798449612403 Q 130.48062015503876 224.24806201550388 110.63565891472868 254.015503875969 L 44.15503875968992 354.2325581395349 L 44.15503875968992 354.2325581395349 Q 42.17054263565891 355.2248062015504 42.17054263565891 357.2093023255814 Q 32.248062015503876 375.06976744186045 37.2093023255814 393.92248062015506 Q 39.1937984496124 403.84496124031006 46.13953488372093 411.7829457364341 Q 52.093023255813954 417.73643410852713 59.03875968992248 422.69767441860466 Q 61.02325581395349 422.69767441860466 62.01550387596899 423.68992248062017 L 220.7751937984496 503.06976744186045 L 220.7751937984496 503.06976744186045 Q 238.63565891472868 512 256.49612403100775 506.04651162790697 Q 274.3565891472868 499.1007751937984 284.27906976744185 481.2403100775194 Q 293.2093023255814 463.37984496124034 286.26356589147287 445.51937984496124 Q 280.31007751937983 427.6589147286822 262.4496124031008 417.73643410852713 L 176.12403100775194 375.06976744186045 L 176.12403100775194 375.06976744186045 Q 174.13953488372093 370.1085271317829 174.13953488372093 365.14728682170545 L 174.13953488372093 317.51937984496124 L 174.13953488372093 317.51937984496124 Q 176.12403100775194 299.6589147286822 193.984496124031 297.6744186046512 Q 211.84496124031008 299.6589147286822 213.8294573643411 317.51937984496124 L 213.8294573643411 317.51937984496124 Z M 193.984496124031 79.37984496124031 Q 194.97674418604652 43.65891472868217 225.73643410852713 24.8062015503876 Q 257.48837209302326 6.945736434108527 289.2403100775194 24.8062015503876 Q 320 43.65891472868217 320.9922480620155 79.37984496124031 Q 320 115.10077519379846 289.2403100775194 133.95348837209303 Q 257.48837209302326 151.8139534883721 225.73643410852713 133.95348837209303 Q 194.97674418604652 115.10077519379846 193.984496124031 79.37984496124031 L 193.984496124031 79.37984496124031 Z M 305.1162790697674 373.08527131782944 Q 331.90697674418607 372.09302325581393 346.7906976744186 349.27131782945736 Q 358.69767441860466 325.4573643410853 346.7906976744186 301.6434108527132 Q 331.90697674418607 278.8217054263566 305.1162790697674 277.82945736434107 Q 278.3255813953488 278.8217054263566 263.4418604651163 301.6434108527132 Q 251.53488372093022 325.4573643410853 263.4418604651163 349.27131782945736 Q 278.3255813953488 372.09302325581393 305.1162790697674 373.08527131782944 L 305.1162790697674 373.08527131782944 Z M 257.48837209302326 158.75968992248062 Q 302.13953488372096 157.7674418604651 325.95348837209303 119.06976744186046 Q 347.7829457364341 79.37984496124031 325.95348837209303 39.689922480620154 Q 302.13953488372096 0.9922480620155039 257.48837209302326 0 Q 212.8372093023256 0.9922480620155039 189.02325581395348 39.689922480620154 Q 167.19379844961242 79.37984496124031 189.02325581395348 119.06976744186046 Q 212.8372093023256 157.7674418604651 257.48837209302326 158.75968992248062 L 257.48837209302326 158.75968992248062 Z M 273.3643410852713 325.4573643410853 Q 273.3643410852713 311.5658914728682 282.29457364341084 302.6356589147287 L 282.29457364341084 302.6356589147287 L 282.29457364341084 302.6356589147287 Q 291.2248062015504 293.70542635658916 305.1162790697674 293.70542635658916 Q 319.0077519379845 293.70542635658916 327.93798449612405 302.6356589147287 Q 336.86821705426354 311.5658914728682 336.86821705426354 325.4573643410853 Q 336.86821705426354 339.3488372093023 327.93798449612405 348.27906976744185 Q 319.0077519379845 357.2093023255814 305.1162790697674 357.2093023255814 Q 291.2248062015504 357.2093023255814 282.29457364341084 348.27906976744185 Q 273.3643410852713 339.3488372093023 273.3643410852713 325.4573643410853 L 273.3643410852713 325.4573643410853 Z" />
</svg>