<svg xmlns="http://www.w3.org/2000/svg" viewBox="0 0 578 488">
    <path d="M 296 8 Q 295 1 288 0 Q 281 1 280 8 L 280 24 Q 267 25 257 30 Q 237 39 233 59 Q 231 71 235 81 Q 240 90 248 95 Q 264 105 284 110 Q 284 110 284 110 L 286 111 Q 307 116 319 124 Q 324 128 327 133 Q 329 138 328 147 Q 326 159 313 164 Q 299 170 277 167 Q 265 164 250 159 Q 249 159 248 159 L 248 159 L 248 159 Q 247 158 246 158 Q 244 157 243 157 Q 236 155 233 162 Q 231 169 238 172 Q 239 172 240 172 Q 241 173 243 174 L 243 174 Q 243 174 243 174 Q 260 180 275 183 L 275 183 Q 277 183 280 184 Q 280 184 280 184 L 280 200 Q 281 207 288 208 Q 296 207 296 200 L 296 184 Q 309 183 319 179 Q 339 171 343 149 Q 346 136 341 127 Q 337 117 328 111 Q 311 100 291 95 L 290 95 L 290 95 Q 270 90 258 82 Q 252 78 250 74 Q 247 70 249 62 Q 250 51 264 45 Q 278 38 299 41 Q 303 42 311 43 Q 318 45 322 46 Q 329 47 332 40 Q 333 33 326 30 Q 322 29 314 28 Q 306 26 302 25 Q 299 25 297 25 Q 296 25 296 25 L 296 8 L 296 8 Z M 522 317 Q 541 305 555 322 Q 567 341 550 355 L 424 449 Q 392 472 353 472 L 8 472 Q 1 473 0 480 Q 1 487 8 488 L 353 488 Q 397 488 433 462 L 560 368 Q 573 358 576 342 Q 578 326 568 312 Q 558 299 542 296 Q 526 294 512 304 L 395 390 Q 393 392 390 392 L 268 392 Q 257 391 256 380 Q 257 369 268 368 L 348 368 Q 363 368 373 357 Q 384 347 384 332 Q 384 317 373 307 Q 363 296 348 296 L 194 296 Q 149 296 114 324 L 71 358 Q 69 360 66 360 L 8 360 Q 1 361 0 368 Q 1 375 8 376 L 66 376 Q 74 376 81 371 L 124 337 Q 154 312 194 312 L 348 312 Q 366 314 368 332 Q 366 350 348 352 L 268 352 Q 256 352 248 360 Q 240 368 240 380 Q 240 392 248 400 Q 256 408 268 408 L 390 408 Q 398 408 404 403 L 522 317 L 522 317 Z"/>
</svg>
