<svg xmlns="http://www.w3.org/2000/svg" viewBox="0 0 512 512">
  <path d="M 16 180 Q 16 198 33 216 Q 51 234 84 248 Q 152 278 256 279 Q 360 278 428 248 Q 461 234 479 216 Q 493 201 496 186 L 496 184 L 496 184 L 496 184 L 496 184 Q 496 183 496 182 Q 496 181 496 180 Q 496 161 479 143 Q 461 125 428 111 Q 360 81 256 80 Q 152 81 84 111 Q 51 125 33 143 Q 16 161 16 180 L 16 180 Z M 496 221 Q 493 224 490 227 L 490 227 L 490 227 Q 490 227 490 227 Q 470 248 435 263 Q 363 294 256 295 Q 149 294 78 263 Q 43 248 22 227 Q 19 224 16 221 L 16 333 L 16 333 Q 16 351 33 369 Q 51 387 84 401 Q 152 431 256 432 Q 360 431 428 401 Q 461 387 478 369 Q 496 351 496 333 L 496 221 L 496 221 Z M 0 184 Q 0 183 0 182 L 0 182 L 0 182 Q 0 181 0 180 Q 1 153 22 132 Q 43 111 78 96 Q 149 65 256 64 Q 363 65 435 96 Q 469 111 490 132 Q 511 153 512 180 Q 512 183 512 187 L 512 333 L 512 333 Q 511 359 490 380 Q 469 401 434 416 Q 362 447 256 448 Q 149 447 77 416 Q 42 401 22 380 Q 1 359 0 333 L 0 184 L 0 184 L 0 184 L 0 184 Z" />
</svg>