<svg xmlns="http://www.w3.org/2000/svg" viewBox="0 0 512 512">
  <path d="M 160 8 Q 159 1 152 0 Q 145 1 144 8 L 144 64 L 144 64 L 96 64 L 96 64 Q 69 65 51 83 Q 33 101 32 128 L 32 176 L 32 176 L 32 192 L 32 192 L 32 448 L 32 448 Q 33 475 51 493 Q 69 511 96 512 L 416 512 L 416 512 Q 443 511 461 493 Q 479 475 480 448 L 480 192 L 480 192 L 480 176 L 480 176 L 480 128 L 480 128 Q 479 101 461 83 Q 443 65 416 64 L 368 64 L 368 64 L 368 8 L 368 8 Q 367 1 360 0 Q 353 1 352 8 L 352 64 L 352 64 L 160 64 L 160 64 L 160 8 L 160 8 Z M 48 192 L 464 192 L 48 192 L 464 192 L 464 448 L 464 448 Q 463 468 450 482 Q 436 495 416 496 L 96 496 L 96 496 Q 76 495 62 482 Q 49 468 48 448 L 48 192 L 48 192 Z M 144 80 L 144 120 L 144 80 L 144 120 Q 145 127 152 128 Q 159 127 160 120 L 160 80 L 160 80 L 352 80 L 352 80 L 352 120 L 352 120 Q 353 127 360 128 Q 367 127 368 120 L 368 80 L 368 80 L 416 80 L 416 80 Q 436 81 450 94 Q 463 108 464 128 L 464 176 L 464 176 L 48 176 L 48 176 L 48 128 L 48 128 Q 49 108 62 94 Q 76 81 96 80 L 144 80 L 144 80 Z M 248 424 Q 249 431 256 432 Q 263 431 264 424 L 264 267 L 264 267 L 338 342 L 338 342 Q 344 346 350 342 Q 354 336 350 330 L 262 242 L 262 242 Q 256 238 250 242 L 162 330 L 162 330 Q 158 336 162 342 Q 168 346 174 342 L 248 267 L 248 267 L 248 424 L 248 424 Z" />
</svg>