<svg xmlns="http://www.w3.org/2000/svg" viewBox="0 0 576 514">
    <path d="M 293 18 L 549 98 Q 550 98 551 99 Q 560 103 560 113 L 560 117 L 293 200 Q 288 202 283 200 L 27 120 L 16 117 L 16 113 Q 17 102 27 98 L 283 18 Q 288 16 293 18 L 293 18 L 293 18 Z M 0 113 L 0 129 L 0 401 Q 1 424 23 432 L 279 512 Q 288 514 298 512 L 554 432 Q 575 424 576 401 L 576 129 L 576 113 Q 575 94 558 84 Q 556 83 554 83 L 298 3 Q 288 0 278 3 L 22 83 Q 1 90 0 113 L 0 113 Z M 560 204 L 295 286 Q 288 289 281 286 L 16 204 L 16 134 L 23 136 L 279 216 Q 288 218 298 216 L 560 134 L 560 204 L 560 204 Z M 560 220 L 560 260 L 518 273 Q 511 276 513 283 Q 515 290 523 288 L 560 276 L 560 401 Q 559 412 549 416 L 293 496 Q 288 498 283 496 L 27 416 Q 17 412 16 401 L 16 276 L 54 288 Q 61 290 64 283 Q 65 276 58 273 L 16 260 L 16 220 L 276 302 Q 288 305 300 302 L 560 220 L 560 220 Z M 107 288 Q 99 286 97 293 Q 95 300 102 303 L 182 328 Q 189 330 192 323 Q 193 315 186 313 L 107 288 L 107 288 Z M 474 303 Q 481 300 480 293 Q 477 286 470 288 L 390 313 Q 383 316 385 323 Q 387 330 395 328 L 474 303 L 474 303 Z M 234 328 Q 227 326 224 333 Q 223 340 229 343 L 276 358 Q 288 361 300 358 L 346 343 Q 353 340 352 333 Q 349 326 342 328 L 295 342 Q 288 345 281 342 L 234 328 L 234 328 Z"/>
</svg>
