<svg xmlns="http://www.w3.org/2000/svg" viewBox="0 0 512 512">
  <path d="M 73.14285714285714 493.7142857142857 Q 50.285714285714285 492.57142857142856 34.285714285714285 477.7142857142857 L 34.285714285714285 477.7142857142857 L 34.285714285714285 477.7142857142857 Q 19.428571428571427 461.7142857142857 18.285714285714285 438.85714285714283 L 18.285714285714285 73.14285714285714 L 18.285714285714285 73.14285714285714 Q 19.428571428571427 50.285714285714285 34.285714285714285 34.285714285714285 Q 50.285714285714285 19.428571428571427 73.14285714285714 18.285714285714285 L 438.85714285714283 18.285714285714285 L 438.85714285714283 18.285714285714285 Q 461.7142857142857 19.428571428571427 477.7142857142857 34.285714285714285 Q 492.57142857142856 50.285714285714285 493.7142857142857 73.14285714285714 L 493.7142857142857 438.85714285714283 L 493.7142857142857 438.85714285714283 Q 492.57142857142856 461.7142857142857 477.7142857142857 477.7142857142857 Q 461.7142857142857 492.57142857142856 438.85714285714283 493.7142857142857 L 73.14285714285714 493.7142857142857 L 73.14285714285714 493.7142857142857 Z M 0 438.85714285714283 Q 1.1428571428571428 469.7142857142857 21.714285714285715 490.2857142857143 L 21.714285714285715 490.2857142857143 L 21.714285714285715 490.2857142857143 Q 42.285714285714285 510.85714285714283 73.14285714285714 512 L 438.85714285714283 512 L 438.85714285714283 512 Q 469.7142857142857 510.85714285714283 490.2857142857143 490.2857142857143 Q 510.85714285714283 469.7142857142857 512 438.85714285714283 L 512 73.14285714285714 L 512 73.14285714285714 Q 510.85714285714283 42.285714285714285 490.2857142857143 21.714285714285715 Q 469.7142857142857 1.1428571428571428 438.85714285714283 0 L 73.14285714285714 0 L 73.14285714285714 0 Q 42.285714285714285 1.1428571428571428 21.714285714285715 21.714285714285715 Q 1.1428571428571428 42.285714285714285 0 73.14285714285714 L 0 438.85714285714283 L 0 438.85714285714283 Z M 262.85714285714283 354.2857142857143 L 400 217.14285714285714 L 262.85714285714283 354.2857142857143 L 400 217.14285714285714 Q 404.57142857142856 210.28571428571428 400 203.42857142857142 Q 393.14285714285717 198.85714285714286 386.2857142857143 203.42857142857142 L 256 334.85714285714283 L 256 334.85714285714283 L 125.71428571428571 203.42857142857142 L 125.71428571428571 203.42857142857142 Q 118.85714285714286 198.85714285714286 112 203.42857142857142 Q 107.42857142857143 210.28571428571428 112 217.14285714285714 L 249.14285714285714 354.2857142857143 L 249.14285714285714 354.2857142857143 Q 256 358.85714285714283 262.85714285714283 354.2857142857143 L 262.85714285714283 354.2857142857143 Z" />
</svg>