<svg xmlns="http://www.w3.org/2000/svg" viewBox="0 0 576 448">
    <path d="M 320 16 Q 334 16 343 25 L 343 25 Q 352 34 352 48 L 352 112 Q 352 126 343 135 Q 334 144 320 144 L 256 144 Q 242 144 233 135 Q 224 126 224 112 L 224 48 Q 224 34 233 25 Q 242 16 256 16 L 320 16 L 320 16 Z M 256 0 Q 236 1 222 14 L 222 14 Q 209 28 208 48 L 208 112 Q 209 132 222 146 Q 236 159 256 160 L 280 160 L 280 216 L 112 216 Q 95 216 84 228 Q 72 239 72 256 L 72 288 L 48 288 Q 28 289 14 302 Q 1 316 0 336 L 0 400 Q 1 420 14 434 Q 28 447 48 448 L 112 448 Q 132 447 146 434 Q 159 420 160 400 L 160 336 Q 159 316 146 302 Q 132 289 112 288 L 88 288 L 88 256 Q 90 234 112 232 L 280 232 L 280 288 L 256 288 Q 236 289 222 302 Q 209 316 208 336 L 208 400 Q 209 420 222 434 Q 236 447 256 448 L 320 448 Q 340 447 354 434 Q 367 420 368 400 L 368 336 Q 367 316 354 302 Q 340 289 320 288 L 296 288 L 296 232 L 464 232 Q 486 234 488 256 L 488 288 L 464 288 Q 444 289 430 302 Q 417 316 416 336 L 416 400 Q 417 420 430 434 Q 444 447 464 448 L 528 448 Q 548 447 562 434 Q 575 420 576 400 L 576 336 Q 575 316 562 302 Q 548 289 528 288 L 504 288 L 504 256 Q 504 239 492 228 Q 481 216 464 216 L 296 216 L 296 160 L 320 160 Q 340 159 354 146 Q 367 132 368 112 L 368 48 Q 367 28 354 14 Q 340 1 320 0 L 256 0 L 256 0 Z M 48 304 L 112 304 Q 126 304 135 313 Q 144 322 144 336 L 144 400 Q 144 414 135 423 Q 126 432 112 432 L 48 432 Q 34 432 25 423 Q 16 414 16 400 L 16 336 Q 16 322 25 313 Q 34 304 48 304 L 48 304 Z M 256 304 L 320 304 Q 334 304 343 313 Q 352 322 352 336 L 352 400 Q 352 414 343 423 Q 334 432 320 432 L 256 432 Q 242 432 233 423 Q 224 414 224 400 L 224 336 Q 224 322 233 313 Q 242 304 256 304 L 256 304 Z M 464 304 L 528 304 Q 542 304 551 313 Q 560 322 560 336 L 560 400 Q 560 414 551 423 Q 542 432 528 432 L 464 432 Q 450 432 441 423 Q 432 414 432 400 L 432 336 Q 432 322 441 313 Q 450 304 464 304 L 464 304 Z"/>
</svg>
