<svg xmlns="http://www.w3.org/2000/svg" viewBox="0 0 512 512">
  <path d="M 15.937743190661479 55.782101167315176 Q 14.941634241245136 48.809338521400775 7.968871595330739 47.81322957198444 Q 0.9961089494163424 48.809338521400775 0 55.782101167315176 L 0 239.06614785992218 L 0 239.06614785992218 Q 0.9961089494163424 269.9455252918288 20.91828793774319 289.86770428015564 Q 40.840466926070036 309.78988326848247 71.71984435797665 310.7859922178988 L 483.11284046692606 310.7859922178988 L 483.11284046692606 310.7859922178988 L 344.6536964980545 448.2490272373541 L 344.6536964980545 448.2490272373541 Q 340.6692607003891 454.2256809338521 344.6536964980545 460.2023346303502 Q 350.63035019455253 464.18677042801556 356.60700389105057 460.2023346303502 L 508.01556420233464 308.79377431906613 L 508.01556420233464 308.79377431906613 Q 512 302.8171206225681 508.01556420233464 296.84046692607006 L 356.60700389105057 145.431906614786 L 356.60700389105057 145.431906614786 Q 350.63035019455253 141.44747081712063 344.6536964980545 145.431906614786 Q 340.6692607003891 151.40856031128405 344.6536964980545 157.3852140077821 L 483.11284046692606 294.84824902723733 L 483.11284046692606 294.84824902723733 L 71.71984435797665 294.84824902723733 L 71.71984435797665 294.84824902723733 Q 47.81322957198444 293.852140077821 31.875486381322958 278.91050583657585 Q 16.93385214007782 262.9727626459144 15.937743190661479 239.06614785992218 L 15.937743190661479 55.782101167315176 L 15.937743190661479 55.782101167315176 Z" />
</svg>