<svg xmlns="http://www.w3.org/2000/svg" viewBox="0 0 576 475">
    <path d="M 394 21 Q 361 17 331 29 L 331 29 Q 302 42 282 68 L 262 96 Q 260 99 256 99 Q 252 99 249 96 L 229 68 Q 210 42 180 29 Q 151 17 118 21 Q 74 27 45 59 Q 17 92 16 137 Q 17 183 49 218 L 248 423 Q 251 427 256 427 Q 261 427 265 423 L 276 412 Q 280 419 284 426 L 276 435 Q 268 443 257 443 Q 245 443 237 435 L 37 229 Q 1 190 0 137 Q 1 85 33 49 Q 66 12 116 5 Q 153 0 187 15 Q 220 29 243 59 L 256 77 L 270 59 Q 292 29 325 15 Q 359 0 396 5 Q 446 12 479 49 Q 511 85 512 137 Q 512 155 507 172 Q 500 168 492 166 Q 496 152 496 137 Q 495 92 467 60 Q 438 27 394 21 L 394 21 Z M 432 459 Q 467 459 496 442 L 496 442 Q 525 425 543 395 Q 560 365 560 331 Q 560 297 543 267 Q 525 237 496 220 Q 467 203 432 203 Q 397 203 368 220 Q 339 237 321 267 Q 304 297 304 331 Q 304 365 321 395 Q 339 425 368 442 Q 397 459 432 459 L 432 459 Z M 432 187 Q 471 187 504 206 L 504 206 Q 537 225 557 259 Q 576 293 576 331 Q 576 369 557 403 Q 537 437 504 456 Q 471 475 432 475 Q 393 475 360 456 Q 327 437 307 403 Q 288 369 288 331 Q 288 293 307 259 Q 327 225 360 206 Q 393 187 432 187 L 432 187 Z M 512 331 Q 511 338 504 339 L 360 339 Q 353 338 352 331 Q 353 324 360 323 L 504 323 Q 511 324 512 331 L 512 331 Z"/>
</svg>
