<svg xmlns="http://www.w3.org/2000/svg" viewBox="0 0 512 512">
  <path d="M 261.97665369649803 3.9844357976653697 Q 256 0 250.02334630350194 3.9844357976653697 L 103.59533073929961 150.4124513618677 L 103.59533073929961 150.4124513618677 Q 96.62256809338521 158.38132295719845 96.62256809338521 168.34241245136187 Q 98.6147859922179 191.25291828793775 121.52529182879377 193.24513618677042 L 157.3852140077821 193.24513618677042 L 157.3852140077821 193.24513618677042 L 71.71984435797665 277.9143968871595 L 71.71984435797665 277.9143968871595 Q 64.74708171206225 285.8832684824903 64.74708171206225 295.84435797665367 Q 66.73929961089495 318.7548638132296 89.64980544747081 320.74708171206225 L 125.50972762645914 320.74708171206225 L 125.50972762645914 320.74708171206225 L 39.8443579766537 405.41634241245134 L 39.8443579766537 405.41634241245134 Q 32.8715953307393 413.3852140077821 32.8715953307393 423.3463035019455 Q 34.86381322957198 446.2568093385214 57.77431906614786 448.2490272373541 L 192.24902723735408 448.2490272373541 L 248.03112840466926 448.2490272373541 L 248.03112840466926 504.0311284046693 L 248.03112840466926 504.0311284046693 Q 249.0272373540856 511.00389105058366 256 512 Q 262.9727626459144 511.00389105058366 263.9688715953307 504.0311284046693 L 263.9688715953307 448.2490272373541 L 263.9688715953307 448.2490272373541 L 319.7509727626459 448.2490272373541 L 454.2256809338521 448.2490272373541 Q 477.136186770428 446.2568093385214 479.1284046692607 423.3463035019455 Q 479.1284046692607 413.3852140077821 472.15564202334633 405.41634241245134 L 386.49027237354085 320.74708171206225 L 386.49027237354085 320.74708171206225 L 422.35019455252916 320.74708171206225 L 422.35019455252916 320.74708171206225 Q 445.26070038910507 318.7548638132296 447.25291828793775 295.84435797665367 Q 447.25291828793775 285.8832684824903 440.2801556420234 277.9143968871595 L 354.6147859922179 193.24513618677042 L 354.6147859922179 193.24513618677042 L 390.4747081712062 193.24513618677042 L 390.4747081712062 193.24513618677042 Q 413.3852140077821 191.25291828793775 415.3774319066148 168.34241245136187 Q 415.3774319066148 158.38132295719845 408.4046692607004 150.4124513618677 L 261.97665369649803 3.9844357976653697 L 261.97665369649803 3.9844357976653697 Z M 263.9688715953307 432.3112840466926 L 263.9688715953307 201.21400778210116 L 263.9688715953307 432.3112840466926 L 263.9688715953307 201.21400778210116 Q 262.9727626459144 194.24124513618676 256 193.24513618677042 Q 249.0272373540856 194.24124513618676 248.03112840466926 201.21400778210116 L 248.03112840466926 432.3112840466926 L 248.03112840466926 432.3112840466926 L 192.24902723735408 432.3112840466926 L 57.77431906614786 432.3112840466926 Q 49.80544747081712 431.31517509727627 48.809338521400775 423.3463035019455 Q 48.809338521400775 419.36186770428014 51.797665369649806 417.36964980544747 L 150.4124513618677 318.7548638132296 L 150.4124513618677 318.7548638132296 Q 153.40077821011673 314.7704280155642 151.40856031128405 309.78988326848247 Q 149.41634241245137 304.8093385214008 144.43579766536965 304.8093385214008 L 89.64980544747081 304.8093385214008 L 89.64980544747081 304.8093385214008 Q 81.68093385214007 303.81322957198444 80.68482490272373 295.84435797665367 Q 80.68482490272373 291.8599221789883 83.67315175097276 289.86770428015564 L 182.28793774319067 191.25291828793775 L 182.28793774319067 191.25291828793775 Q 185.27626459143968 187.26848249027236 183.284046692607 182.28793774319067 Q 181.29182879377433 177.30739299610894 176.3112840466926 177.30739299610894 L 121.52529182879377 177.30739299610894 L 121.52529182879377 177.30739299610894 Q 113.55642023346303 176.3112840466926 112.56031128404669 168.34241245136187 Q 112.56031128404669 164.3579766536965 115.54863813229572 162.3657587548638 L 256 20.91828793774319 L 256 20.91828793774319 L 396.4513618677043 162.3657587548638 L 396.4513618677043 162.3657587548638 Q 399.4396887159533 164.3579766536965 399.4396887159533 168.34241245136187 Q 398.44357976653697 176.3112840466926 390.4747081712062 177.30739299610894 L 335.6887159533074 177.30739299610894 L 335.6887159533074 177.30739299610894 Q 330.7081712062257 177.30739299610894 328.715953307393 182.28793774319067 Q 326.7237354085603 187.26848249027236 329.71206225680936 191.25291828793775 L 428.32684824902725 289.86770428015564 L 428.32684824902725 289.86770428015564 Q 431.31517509727627 291.8599221789883 431.31517509727627 295.84435797665367 Q 430.3190661478599 303.81322957198444 422.35019455252916 304.8093385214008 L 367.56420233463035 304.8093385214008 L 367.56420233463035 304.8093385214008 Q 362.58365758754866 304.8093385214008 360.591439688716 309.78988326848247 Q 358.59922178988325 314.7704280155642 361.5875486381323 317.75875486381324 L 460.2023346303502 416.3735408560311 L 460.2023346303502 416.3735408560311 Q 463.1906614785992 419.36186770428014 463.1906614785992 423.3463035019455 Q 462.1945525291829 431.31517509727627 454.2256809338521 432.3112840466926 L 319.7509727626459 432.3112840466926 L 263.9688715953307 432.3112840466926 Z" />
</svg>