<svg xmlns="http://www.w3.org/2000/svg" viewBox="0 0 512 512">
  <path d="M 96 176 Q 96 133 117 96 L 117 96 L 117 96 Q 139 59 176 37 Q 214 16 256 16 Q 298 16 336 37 Q 373 59 395 96 Q 416 133 416 176 Q 416 219 395 256 Q 373 293 336 315 Q 298 336 256 336 Q 214 336 176 315 Q 139 293 117 256 Q 96 219 96 176 L 96 176 Z M 264 352 Q 336 347 383 298 L 383 298 L 383 298 Q 430 249 432 176 Q 430 101 380 52 Q 331 2 256 0 Q 181 2 132 52 Q 82 101 80 176 Q 82 249 129 298 Q 176 347 248 352 L 248 416 L 248 416 L 168 416 L 168 416 Q 161 417 160 424 Q 161 431 168 432 L 248 432 L 248 432 L 248 504 L 248 504 Q 249 511 256 512 Q 263 511 264 504 L 264 432 L 264 432 L 344 432 L 344 432 Q 351 431 352 424 Q 351 417 344 416 L 264 416 L 264 416 L 264 352 L 264 352 Z" />
</svg>