<svg xmlns="http://www.w3.org/2000/svg" viewBox="0 0 512 512">
  <path d="M 14.222222222222221 99.55555555555556 L 14.222222222222221 384 L 14.222222222222221 99.55555555555556 L 14.222222222222221 384 Q 15.11111111111111 401.77777777777777 26.666666666666668 414.22222222222223 Q 39.111111111111114 425.77777777777777 56.888888888888886 426.6666666666667 L 253.33333333333334 426.6666666666667 L 253.33333333333334 426.6666666666667 Q 257.77777777777777 433.77777777777777 263.1111111111111 440.8888888888889 L 56.888888888888886 440.8888888888889 L 56.888888888888886 440.8888888888889 Q 32.888888888888886 440 16.88888888888889 424 Q 0.8888888888888888 408 0 384 L 0 99.55555555555556 L 0 99.55555555555556 Q 0.8888888888888888 75.55555555555556 16.88888888888889 59.55555555555556 Q 32.888888888888886 43.55555555555556 56.888888888888886 42.666666666666664 L 275.55555555555554 42.666666666666664 L 275.55555555555554 42.666666666666664 Q 298.6666666666667 42.666666666666664 315.55555555555554 59.55555555555556 L 381.3333333333333 125.33333333333333 L 381.3333333333333 125.33333333333333 Q 398.22222222222223 142.22222222222223 398.22222222222223 166.22222222222223 L 398.22222222222223 185.77777777777777 L 398.22222222222223 185.77777777777777 Q 391.1111111111111 184.88888888888889 384 184.88888888888889 L 384 166.22222222222223 L 384 166.22222222222223 Q 384 148.44444444444446 371.55555555555554 136 L 304.8888888888889 69.33333333333333 L 304.8888888888889 69.33333333333333 Q 296.8888888888889 60.44444444444444 284.44444444444446 57.77777777777778 L 284.44444444444446 156.44444444444446 L 284.44444444444446 156.44444444444446 Q 284.44444444444446 168.88888888888889 276.44444444444446 176.88888888888889 Q 268.44444444444446 184.88888888888889 256 184.88888888888889 L 85.33333333333333 184.88888888888889 L 85.33333333333333 184.88888888888889 Q 72.88888888888889 184.88888888888889 64.88888888888889 176.88888888888889 Q 56.888888888888886 168.88888888888889 56.888888888888886 156.44444444444446 L 56.888888888888886 56.888888888888886 L 56.888888888888886 56.888888888888886 Q 39.111111111111114 57.77777777777778 26.666666666666668 69.33333333333333 Q 15.11111111111111 81.77777777777777 14.222222222222221 99.55555555555556 L 14.222222222222221 99.55555555555556 Z M 199.11111111111111 227.55555555555554 Q 233.77777777777777 228.44444444444446 256 251.55555555555554 Q 251.55555555555554 257.77777777777777 248 264 Q 229.33333333333334 242.66666666666666 199.11111111111111 241.77777777777777 Q 171.55555555555554 242.66666666666666 153.77777777777777 260.44444444444446 Q 136 278.22222222222223 135.11111111111111 305.77777777777777 Q 136 333.3333333333333 153.77777777777777 351.1111111111111 Q 171.55555555555554 368.8888888888889 199.11111111111111 369.77777777777777 Q 215.11111111111111 369.77777777777777 229.33333333333334 362.6666666666667 Q 230.22222222222223 369.77777777777777 232 376.8888888888889 Q 216.88888888888889 384 199.11111111111111 384 Q 166.22222222222223 383.1111111111111 144 360.8888888888889 Q 121.77777777777777 338.6666666666667 120.88888888888889 305.77777777777777 Q 121.77777777777777 272.8888888888889 144 250.66666666666666 Q 166.22222222222223 228.44444444444446 199.11111111111111 227.55555555555554 L 199.11111111111111 227.55555555555554 Z M 71.11111111111111 56.888888888888886 L 71.11111111111111 156.44444444444446 L 71.11111111111111 56.888888888888886 L 71.11111111111111 156.44444444444446 Q 72 169.77777777777777 85.33333333333333 170.66666666666666 L 256 170.66666666666666 L 256 170.66666666666666 Q 269.3333333333333 169.77777777777777 270.22222222222223 156.44444444444446 L 270.22222222222223 56.888888888888886 L 270.22222222222223 56.888888888888886 L 71.11111111111111 56.888888888888886 L 71.11111111111111 56.888888888888886 Z M 497.77777777777777 341.3333333333333 Q 497.77777777777777 310.22222222222223 482.6666666666667 284.44444444444446 L 482.6666666666667 284.44444444444446 L 482.6666666666667 284.44444444444446 Q 467.55555555555554 258.6666666666667 440.8888888888889 242.66666666666666 Q 414.22222222222223 227.55555555555554 384 227.55555555555554 Q 353.77777777777777 227.55555555555554 327.1111111111111 242.66666666666666 Q 300.44444444444446 258.6666666666667 285.3333333333333 284.44444444444446 Q 270.22222222222223 310.22222222222223 270.22222222222223 341.3333333333333 Q 270.22222222222223 372.44444444444446 285.3333333333333 398.22222222222223 Q 300.44444444444446 424 327.1111111111111 440 Q 353.77777777777777 455.1111111111111 384 455.1111111111111 Q 414.22222222222223 455.1111111111111 440.8888888888889 440 Q 467.55555555555554 424 482.6666666666667 398.22222222222223 Q 497.77777777777777 372.44444444444446 497.77777777777777 341.3333333333333 L 497.77777777777777 341.3333333333333 Z M 256 341.3333333333333 Q 256 306.6666666666667 272.8888888888889 277.3333333333333 L 272.8888888888889 277.3333333333333 L 272.8888888888889 277.3333333333333 Q 289.77777777777777 248 320 230.22222222222223 Q 350.22222222222223 213.33333333333334 384 213.33333333333334 Q 417.77777777777777 213.33333333333334 448 230.22222222222223 Q 478.22222222222223 248 495.1111111111111 277.3333333333333 Q 512 306.6666666666667 512 341.3333333333333 Q 512 376 495.1111111111111 405.3333333333333 Q 478.22222222222223 434.6666666666667 448 452.44444444444446 Q 417.77777777777777 469.3333333333333 384 469.3333333333333 Q 350.22222222222223 469.3333333333333 320 452.44444444444446 Q 289.77777777777777 434.6666666666667 272.8888888888889 405.3333333333333 Q 256 376 256 341.3333333333333 L 256 341.3333333333333 Z M 439.1111111111111 296.8888888888889 L 393.77777777777777 341.3333333333333 L 439.1111111111111 296.8888888888889 L 393.77777777777777 341.3333333333333 L 439.1111111111111 385.77777777777777 L 439.1111111111111 385.77777777777777 Q 442.6666666666667 391.1111111111111 439.1111111111111 396.44444444444446 Q 433.77777777777777 400 428.44444444444446 396.44444444444446 L 384 351.1111111111111 L 384 351.1111111111111 L 339.55555555555554 396.44444444444446 L 339.55555555555554 396.44444444444446 Q 334.22222222222223 400 328.8888888888889 396.44444444444446 Q 325.3333333333333 391.1111111111111 328.8888888888889 385.77777777777777 L 374.22222222222223 341.3333333333333 L 374.22222222222223 341.3333333333333 L 328.8888888888889 296.8888888888889 L 328.8888888888889 296.8888888888889 Q 325.3333333333333 291.55555555555554 328.8888888888889 286.22222222222223 Q 334.22222222222223 282.6666666666667 339.55555555555554 286.22222222222223 L 384 331.55555555555554 L 384 331.55555555555554 L 428.44444444444446 286.22222222222223 L 428.44444444444446 286.22222222222223 Q 433.77777777777777 282.6666666666667 439.1111111111111 286.22222222222223 Q 442.6666666666667 291.55555555555554 439.1111111111111 296.8888888888889 L 439.1111111111111 296.8888888888889 Z" />
</svg>