<svg xmlns="http://www.w3.org/2000/svg" viewBox="0 0 576 448">
    <path d="M 512 336 L 160 336 Q 140 335 126 322 Q 113 308 112 288 L 112 64 Q 113 44 126 30 Q 140 17 160 16 L 278 16 Q 297 16 311 30 L 338 57 Q 362 80 395 80 L 512 80 Q 532 81 546 94 Q 559 108 560 128 L 560 288 Q 559 308 546 322 Q 532 335 512 336 L 512 336 Z M 160 352 L 512 352 Q 539 351 557 333 Q 575 315 576 288 L 576 128 Q 575 101 557 83 Q 539 65 512 64 L 395 64 Q 368 64 349 45 L 323 19 Q 304 0 277 0 L 160 0 Q 133 1 115 19 Q 97 37 96 64 L 96 288 Q 97 315 115 333 Q 133 351 160 352 L 160 352 Z M 0 160 L 0 384 Q 1 411 19 429 Q 37 447 64 448 L 416 448 Q 443 447 461 429 Q 479 411 480 384 L 464 384 Q 463 404 450 418 Q 436 431 416 432 L 64 432 Q 44 431 30 418 Q 17 404 16 384 L 16 160 Q 17 140 30 126 Q 44 113 64 112 L 64 96 Q 37 97 19 115 Q 1 133 0 160 L 0 160 Z"/>
</svg>
