<svg xmlns="http://www.w3.org/2000/svg" viewBox="0 0 512 448">
    <path d="M 448 16 Q 468 17 482 30 L 482 30 Q 495 44 496 64 L 496 384 Q 495 404 482 418 Q 468 431 448 432 L 64 432 Q 44 431 30 418 Q 17 404 16 384 L 16 64 Q 17 44 30 30 Q 44 17 64 16 L 448 16 L 448 16 Z M 64 0 Q 37 1 19 19 L 19 19 Q 1 37 0 64 L 0 384 Q 1 411 19 429 Q 37 447 64 448 L 448 448 Q 475 447 493 429 Q 511 411 512 384 L 512 64 Q 511 37 493 19 Q 475 1 448 0 L 64 0 L 64 0 Z M 298 138 Q 294 144 298 150 L 373 224 L 298 298 Q 294 304 298 310 Q 304 314 310 310 L 390 230 Q 394 224 390 218 L 310 138 Q 304 134 298 138 L 298 138 Z M 214 150 Q 218 144 214 138 Q 208 134 202 138 L 122 218 Q 118 224 122 230 L 202 310 Q 208 314 214 310 Q 218 304 214 298 L 139 224 L 214 150 L 214 150 Z"/>
</svg>
