<svg xmlns="http://www.w3.org/2000/svg" viewBox="0 0 512 512">
  <path d="M 460.8 204.8 Q 458.66666 117.333336 401.06668 59.733334 L 401.06668 59.733334 L 401.06668 59.733334 Q 343.46667 2.1333334 256 0 Q 168.53334 2.1333334 110.933334 59.733334 Q 53.333332 117.333336 51.2 204.8 L 68.26667 204.8 L 68.26667 204.8 Q 70.4 124.8 123.73333 72.53333 Q 176 19.2 256 17.066668 Q 336 19.2 388.26666 72.53333 Q 441.6 124.8 443.73334 204.8 L 460.8 204.8 L 460.8 204.8 Z M 36.266666 265.6 Q 36.266666 257.06668 44.8 256 L 467.2 256 L 467.2 256 Q 475.73334 257.06668 475.73334 265.6 Q 468.26666 321.06668 428.8 356.26666 Q 389.33334 391.46667 333.86667 392.53333 L 298.66666 392.53333 L 298.66666 392.53333 Q 293.33334 392.53333 291.2 397.86667 Q 289.06668 403.2 292.26666 407.46667 L 374.4 488.53333 L 374.4 488.53333 Q 375.46667 489.6 375.46667 491.73334 Q 375.46667 494.93332 372.26666 494.93332 L 139.73334 494.93332 L 139.73334 494.93332 Q 136.53334 494.93332 136.53334 491.73334 Q 136.53334 489.6 137.6 488.53333 L 219.73334 407.46667 L 219.73334 407.46667 Q 222.93333 403.2 220.8 397.86667 Q 218.66667 392.53333 213.33333 392.53333 L 178.13333 392.53333 L 178.13333 392.53333 Q 122.666664 391.46667 83.2 356.26666 Q 43.733334 321.06668 36.266666 265.6 L 36.266666 265.6 Z M 44.8 238.93333 Q 33.066666 238.93333 25.6 247.46666 L 25.6 247.46666 L 25.6 247.46666 Q 18.133333 254.93333 19.2 266.66666 Q 27.733334 329.6 71.46667 369.06668 Q 115.2 408.53333 178.13333 409.6 L 193.06667 409.6 L 193.06667 409.6 L 125.86667 476.8 L 125.86667 476.8 Q 119.46667 483.2 119.46667 491.73334 Q 121.6 509.86667 139.73334 512 L 372.26666 512 L 372.26666 512 Q 390.4 509.86667 392.53333 491.73334 Q 392.53333 483.2 386.13333 476.8 L 318.93332 409.6 L 318.93332 409.6 L 333.86667 409.6 L 333.86667 409.6 Q 395.73334 408.53333 440.53333 369.06668 Q 484.26666 329.6 492.8 266.66666 Q 493.86667 254.93333 486.4 247.46666 Q 478.93332 238.93333 467.2 238.93333 L 44.8 238.93333 L 44.8 238.93333 Z" />
</svg>