<svg xmlns="http://www.w3.org/2000/svg" viewBox="0 0 512 512">
  <path d="M 327.1111111111111 113.77777777777777 Q 326.22222222222223 73.77777777777777 291.55555555555554 52.44444444444444 Q 256 32.888888888888886 220.44444444444446 52.44444444444444 Q 185.77777777777777 73.77777777777777 184.88888888888889 113.77777777777777 Q 185.77777777777777 153.77777777777777 220.44444444444446 175.11111111111111 Q 256 194.66666666666666 291.55555555555554 175.11111111111111 Q 326.22222222222223 153.77777777777777 327.1111111111111 113.77777777777777 L 327.1111111111111 113.77777777777777 Z M 281.77777777777777 195.55555555555554 Q 269.3333333333333 199.11111111111111 256 199.11111111111111 Q 242.66666666666666 199.11111111111111 230.22222222222223 195.55555555555554 Q 255.11111111111111 219.55555555555554 256 256 Q 255.11111111111111 292.44444444444446 230.22222222222223 316.44444444444446 Q 242.66666666666666 312.8888888888889 256 312.8888888888889 Q 269.3333333333333 312.8888888888889 281.77777777777777 316.44444444444446 Q 256.8888888888889 292.44444444444446 256 256 Q 256.8888888888889 219.55555555555554 281.77777777777777 195.55555555555554 L 281.77777777777777 195.55555555555554 Z M 341.3333333333333 341.3333333333333 Q 328 341.3333333333333 315.55555555555554 337.77777777777777 Q 340.44444444444446 361.77777777777777 341.3333333333333 398.22222222222223 Q 340.44444444444446 434.6666666666667 316.44444444444446 458.6666666666667 Q 292.44444444444446 482.6666666666667 256 483.55555555555554 Q 219.55555555555554 482.6666666666667 195.55555555555554 458.6666666666667 Q 171.55555555555554 434.6666666666667 170.66666666666666 398.22222222222223 Q 171.55555555555554 361.77777777777777 196.44444444444446 337.77777777777777 Q 184 341.3333333333333 170.66666666666666 341.3333333333333 Q 157.33333333333334 341.3333333333333 144.88888888888889 337.77777777777777 Q 169.77777777777777 361.77777777777777 170.66666666666666 398.22222222222223 Q 169.77777777777777 434.6666666666667 145.77777777777777 458.6666666666667 Q 121.77777777777777 482.6666666666667 85.33333333333333 483.55555555555554 Q 48.888888888888886 482.6666666666667 24.88888888888889 458.6666666666667 Q 0.8888888888888888 434.6666666666667 0 398.22222222222223 Q 0.8888888888888888 361.77777777777777 24.88888888888889 337.77777777777777 Q 48.888888888888886 313.77777777777777 85.33333333333333 312.8888888888889 Q 98.66666666666667 312.8888888888889 111.11111111111111 316.44444444444446 Q 86.22222222222223 292.44444444444446 85.33333333333333 256 Q 86.22222222222223 219.55555555555554 110.22222222222223 195.55555555555554 Q 134.22222222222223 171.55555555555554 170.66666666666666 170.66666666666666 Q 184 170.66666666666666 196.44444444444446 174.22222222222223 Q 171.55555555555554 150.22222222222223 170.66666666666666 113.77777777777777 Q 171.55555555555554 77.33333333333333 195.55555555555554 53.333333333333336 Q 219.55555555555554 29.333333333333332 256 28.444444444444443 Q 292.44444444444446 29.333333333333332 316.44444444444446 53.333333333333336 Q 340.44444444444446 77.33333333333333 341.3333333333333 113.77777777777777 Q 340.44444444444446 150.22222222222223 315.55555555555554 174.22222222222223 Q 328 170.66666666666666 341.3333333333333 170.66666666666666 Q 377.77777777777777 171.55555555555554 401.77777777777777 195.55555555555554 Q 425.77777777777777 219.55555555555554 426.6666666666667 256 Q 425.77777777777777 292.44444444444446 400.8888888888889 316.44444444444446 Q 413.3333333333333 312.8888888888889 426.6666666666667 312.8888888888889 Q 463.1111111111111 313.77777777777777 487.1111111111111 337.77777777777777 Q 511.1111111111111 361.77777777777777 512 398.22222222222223 Q 511.1111111111111 434.6666666666667 487.1111111111111 458.6666666666667 Q 463.1111111111111 482.6666666666667 426.6666666666667 483.55555555555554 Q 390.22222222222223 482.6666666666667 366.22222222222223 458.6666666666667 Q 342.22222222222223 434.6666666666667 341.3333333333333 398.22222222222223 Q 342.22222222222223 361.77777777777777 367.1111111111111 337.77777777777777 Q 354.6666666666667 341.3333333333333 341.3333333333333 341.3333333333333 L 341.3333333333333 341.3333333333333 Z M 241.77777777777777 256 Q 240.88888888888889 216 206.22222222222223 194.66666666666666 Q 170.66666666666666 175.11111111111111 135.11111111111111 194.66666666666666 Q 100.44444444444444 216 99.55555555555556 256 Q 100.44444444444444 296 135.11111111111111 317.3333333333333 Q 170.66666666666666 336.8888888888889 206.22222222222223 317.3333333333333 Q 240.88888888888889 296 241.77777777777777 256 L 241.77777777777777 256 Z M 156.44444444444446 398.22222222222223 Q 155.55555555555554 358.22222222222223 120.88888888888889 336.8888888888889 Q 85.33333333333333 317.3333333333333 49.77777777777778 336.8888888888889 Q 15.11111111111111 358.22222222222223 14.222222222222221 398.22222222222223 Q 15.11111111111111 438.22222222222223 49.77777777777778 459.55555555555554 Q 85.33333333333333 479.1111111111111 120.88888888888889 459.55555555555554 Q 155.55555555555554 438.22222222222223 156.44444444444446 398.22222222222223 L 156.44444444444446 398.22222222222223 Z M 341.3333333333333 327.1111111111111 Q 381.3333333333333 326.22222222222223 402.6666666666667 291.55555555555554 Q 422.22222222222223 256 402.6666666666667 220.44444444444446 Q 381.3333333333333 185.77777777777777 341.3333333333333 184.88888888888889 Q 301.3333333333333 185.77777777777777 280 220.44444444444446 Q 260.44444444444446 256 280 291.55555555555554 Q 301.3333333333333 326.22222222222223 341.3333333333333 327.1111111111111 L 341.3333333333333 327.1111111111111 Z M 256 469.3333333333333 Q 296 468.44444444444446 317.3333333333333 433.77777777777777 Q 336.8888888888889 398.22222222222223 317.3333333333333 362.6666666666667 Q 296 328 256 327.1111111111111 Q 216 328 194.66666666666666 362.6666666666667 Q 175.11111111111111 398.22222222222223 194.66666666666666 433.77777777777777 Q 216 468.44444444444446 256 469.3333333333333 L 256 469.3333333333333 Z M 497.77777777777777 398.22222222222223 Q 496.8888888888889 358.22222222222223 462.22222222222223 336.8888888888889 Q 426.6666666666667 317.3333333333333 391.1111111111111 336.8888888888889 Q 356.44444444444446 358.22222222222223 355.55555555555554 398.22222222222223 Q 356.44444444444446 438.22222222222223 391.1111111111111 459.55555555555554 Q 426.6666666666667 479.1111111111111 462.22222222222223 459.55555555555554 Q 496.8888888888889 438.22222222222223 497.77777777777777 398.22222222222223 L 497.77777777777777 398.22222222222223 Z" />
</svg>