<svg xmlns="http://www.w3.org/2000/svg" viewBox="0 0 512 512">
  <path d="M 121.22118380062305 63.8006230529595 Q 115.6386292834891 64.59813084112149 114.8411214953271 70.18068535825545 L 114.8411214953271 133.98130841121494 L 114.8411214953271 133.98130841121494 Q 114.04361370716511 139.5638629283489 108.46105919003115 140.3613707165109 Q 102.8785046728972 139.5638629283489 102.0809968847352 133.98130841121494 L 102.0809968847352 70.18068535825545 L 102.0809968847352 70.18068535825545 Q 103.67601246105919 52.63551401869159 121.22118380062305 51.0404984423676 L 240.04984423676012 51.0404984423676 L 240.04984423676012 51.0404984423676 Q 258.39252336448595 51.838006230529594 267.9626168224299 68.58566978193146 L 337.3457943925234 200.97196261682242 L 337.3457943925234 200.97196261682242 Q 339.7383177570093 206.55451713395638 334.95327102803736 209.74454828660436 Q 329.37071651090343 212.13707165109034 326.18068535825546 207.35202492211837 L 256.79750778816197 74.16822429906541 L 256.79750778816197 74.16822429906541 Q 251.21495327102804 64.59813084112149 240.04984423676012 63.8006230529595 L 121.22118380062305 63.8006230529595 L 121.22118380062305 63.8006230529595 Z M 508.01246105919006 154.71651090342678 Q 512 158.70404984423675 508.809968847352 163.4890965732087 L 440.22429906542055 244.8348909657321 L 440.22429906542055 244.8348909657321 L 440.22429906542055 367.65109034267914 L 440.22429906542055 367.65109034267914 L 508.809968847352 448.9968847352025 L 508.809968847352 448.9968847352025 Q 512 453.7819314641745 508.01246105919006 457.7694704049844 Q 503.2274143302181 460.9595015576324 499.2398753894081 456.97196261682245 L 429.05919003115264 374.0311526479751 L 429.05919003115264 374.0311526479751 Q 427.46417445482865 372.4361370716511 427.46417445482865 370.0436137071651 L 427.46417445482865 306.2429906542056 L 427.46417445482865 306.2429906542056 L 355.6884735202492 306.2429906542056 L 355.6884735202492 306.2429906542056 Q 382.00623052959503 331.7632398753894 382.803738317757 370.0436137071651 Q 382.00623052959503 408.3239875389408 356.4859813084112 433.04672897196264 Q 331.7632398753894 458.56697819314644 293.4828660436137 459.3644859813084 L 89.3208722741433 459.3644859813084 L 89.3208722741433 459.3644859813084 Q 51.0404984423676 458.56697819314644 26.317757009345794 433.04672897196264 Q 0.7975077881619937 408.3239875389408 0 370.0436137071651 Q 0 342.9283489096573 14.355140186915888 321.3956386292835 Q 27.91277258566978 300.66043613707166 51.0404984423676 289.49532710280374 L 51.0404984423676 191.4018691588785 L 51.0404984423676 191.4018691588785 Q 51.0404984423676 180.23676012461058 58.218068535825545 173.05919003115264 Q 65.39563862928348 165.8816199376947 76.5607476635514 165.8816199376947 L 99.68847352024922 165.8816199376947 L 99.68847352024922 165.8816199376947 Q 110.85358255451713 165.8816199376947 118.82866043613707 174.65420560747663 L 169.07165109034267 229.6822429906542 L 169.07165109034267 229.6822429906542 L 319.0031152647975 229.6822429906542 L 319.0031152647975 229.6822429906542 Q 330.1682242990654 229.6822429906542 337.3457943925234 236.85981308411215 Q 344.5233644859813 244.0373831775701 344.5233644859813 255.202492211838 L 344.5233644859813 293.4828660436137 L 344.5233644859813 293.4828660436137 L 427.46417445482865 293.4828660436137 L 427.46417445482865 293.4828660436137 L 427.46417445482865 242.4423676012461 L 427.46417445482865 242.4423676012461 Q 427.46417445482865 240.04984423676012 429.05919003115264 238.45482866043614 L 499.2398753894081 155.51401869158877 L 499.2398753894081 155.51401869158877 Q 503.2274143302181 151.5264797507788 508.01246105919006 154.71651090342678 L 508.01246105919006 154.71651090342678 Z M 63.8006230529595 191.4018691588785 L 63.8006230529595 284.7102803738318 L 63.8006230529595 191.4018691588785 L 63.8006230529595 284.7102803738318 Q 75.7632398753894 280.7227414330218 89.3208722741433 280.7227414330218 L 293.4828660436137 280.7227414330218 L 293.4828660436137 280.7227414330218 Q 314.2180685358255 280.7227414330218 331.7632398753894 289.49532710280374 L 331.7632398753894 255.202492211838 L 331.7632398753894 255.202492211838 Q 330.9657320872274 243.2398753894081 319.0031152647975 242.4423676012461 L 165.8816199376947 242.4423676012461 L 165.8816199376947 242.4423676012461 Q 162.69158878504672 242.4423676012461 161.09657320872273 240.04984423676012 L 109.25856697819314 182.62928348909657 L 109.25856697819314 182.62928348909657 Q 105.27102803738318 178.6417445482866 99.68847352024922 178.6417445482866 L 76.5607476635514 178.6417445482866 L 76.5607476635514 178.6417445482866 Q 64.59813084112149 179.4392523364486 63.8006230529595 191.4018691588785 L 63.8006230529595 191.4018691588785 Z M 293.4828660436137 293.4828660436137 L 89.3208722741433 293.4828660436137 L 293.4828660436137 293.4828660436137 L 89.3208722741433 293.4828660436137 Q 56.62305295950156 294.2803738317757 35.09034267912772 315.8130841121495 Q 13.557632398753894 337.3457943925234 12.7601246105919 370.0436137071651 Q 13.557632398753894 402.74143302180687 35.09034267912772 424.2741433021807 Q 56.62305295950156 445.80685358255454 89.3208722741433 446.6043613707165 L 293.4828660436137 446.6043613707165 L 293.4828660436137 446.6043613707165 Q 326.18068535825546 445.80685358255454 347.71339563862927 424.2741433021807 Q 369.2461059190031 402.74143302180687 370.0436137071651 370.0436137071651 Q 369.2461059190031 337.3457943925234 347.71339563862927 315.8130841121495 Q 326.18068535825546 294.2803738317757 293.4828660436137 293.4828660436137 L 293.4828660436137 293.4828660436137 Z M 306.2429906542056 357.2834890965732 Q 318.2056074766355 358.0809968847352 319.0031152647975 370.0436137071651 Q 318.2056074766355 382.00623052959503 306.2429906542056 382.803738317757 Q 294.2803738317757 382.00623052959503 293.4828660436137 370.0436137071651 Q 294.2803738317757 358.0809968847352 306.2429906542056 357.2834890965732 L 306.2429906542056 357.2834890965732 Z M 63.8006230529595 370.0436137071651 Q 64.59813084112149 358.0809968847352 76.5607476635514 357.2834890965732 Q 88.5233644859813 358.0809968847352 89.3208722741433 370.0436137071651 Q 88.5233644859813 382.00623052959503 76.5607476635514 382.803738317757 Q 64.59813084112149 382.00623052959503 63.8006230529595 370.0436137071651 L 63.8006230529595 370.0436137071651 Z M 153.1214953271028 357.2834890965732 Q 165.0841121495327 358.0809968847352 165.8816199376947 370.0436137071651 Q 165.0841121495327 382.00623052959503 153.1214953271028 382.803738317757 Q 141.15887850467288 382.00623052959503 140.3613707165109 370.0436137071651 Q 141.15887850467288 358.0809968847352 153.1214953271028 357.2834890965732 L 153.1214953271028 357.2834890965732 Z M 216.9221183800623 370.0436137071651 Q 217.7196261682243 358.0809968847352 229.6822429906542 357.2834890965732 Q 241.6448598130841 358.0809968847352 242.4423676012461 370.0436137071651 Q 241.6448598130841 382.00623052959503 229.6822429906542 382.803738317757 Q 217.7196261682243 382.00623052959503 216.9221183800623 370.0436137071651 L 216.9221183800623 370.0436137071651 Z" />
</svg>