<svg xmlns="http://www.w3.org/2000/svg" viewBox="0 0 644 516">
    <path d="M 514 123 Q 514 115 507 114 Q 499 114 498 121 L 484 294 L 499 306 L 514 123 L 514 123 Z M 469 466 Q 466 480 455 489 L 455 489 Q 445 498 430 498 L 214 498 Q 198 498 187 487 Q 176 477 174 461 L 154 217 L 137 204 L 158 463 Q 161 485 176 499 Q 192 514 214 514 L 430 514 Q 448 514 462 504 Q 477 493 483 477 L 469 466 L 469 466 Z M 214 66 L 195 66 L 215 82 L 538 82 Q 545 81 546 74 Q 545 67 538 66 L 430 66 L 402 21 Q 390 3 368 2 L 276 2 Q 254 3 242 21 L 214 66 L 214 66 Z M 276 18 L 368 18 Q 381 18 389 29 L 412 66 L 232 66 L 255 29 Q 263 18 276 18 L 276 18 Z M 15 4 Q 9 0 4 5 Q 0 11 5 16 L 629 512 Q 635 516 640 511 Q 644 505 639 500 L 15 4 L 15 4 Z"/>
</svg>
