<svg xmlns="http://www.w3.org/2000/svg" viewBox="0 0 576 512">
    <path d="M 272 32 Q 273 17 288 16 Q 303 17 304 32 Q 303 47 288 48 Q 273 47 272 32 L 272 32 Z M 320 32 Q 320 18 311 9 L 311 9 Q 302 0 288 0 Q 274 0 265 9 Q 256 18 256 32 Q 256 46 265 55 Q 274 64 288 64 Q 302 64 311 55 Q 320 46 320 32 L 320 32 Z M 296 288 L 296 144 Q 354 149 392 189 Q 431 229 432 288 Q 430 349 390 390 Q 349 430 288 432 Q 227 430 186 390 Q 146 349 144 288 Q 145 229 184 189 Q 222 149 280 144 L 280 288 Q 281 295 288 296 Q 295 295 296 288 L 296 288 Z M 288 128 Q 245 128 208 149 L 208 149 Q 171 171 149 208 Q 128 246 128 288 Q 128 330 149 368 Q 171 405 208 427 Q 245 448 288 448 Q 331 448 368 427 Q 405 405 427 368 Q 448 330 448 288 Q 448 246 427 208 Q 405 171 368 149 Q 331 128 288 128 L 288 128 Z M 544 272 Q 559 273 560 288 Q 559 303 544 304 Q 529 303 528 288 Q 529 273 544 272 L 544 272 Z M 544 320 Q 558 320 567 311 L 567 311 Q 576 302 576 288 Q 576 274 567 265 Q 558 256 544 256 Q 530 256 521 265 Q 512 274 512 288 Q 512 302 521 311 Q 530 320 544 320 L 544 320 Z M 16 288 Q 17 273 32 272 Q 47 273 48 288 Q 47 303 32 304 Q 17 303 16 288 L 16 288 Z M 64 288 Q 64 274 55 265 L 55 265 Q 46 256 32 256 Q 18 256 9 265 Q 0 274 0 288 Q 0 302 9 311 Q 18 320 32 320 Q 46 320 55 311 Q 64 302 64 288 L 64 288 Z M 96 80 Q 111 81 112 96 Q 111 111 96 112 Q 81 111 80 96 Q 81 81 96 80 L 96 80 Z M 96 128 Q 110 128 119 119 L 119 119 Q 128 110 128 96 Q 128 82 119 73 Q 110 64 96 64 Q 82 64 73 73 Q 64 82 64 96 Q 64 110 73 119 Q 82 128 96 128 L 96 128 Z M 464 96 Q 465 81 480 80 Q 495 81 496 96 Q 495 111 480 112 Q 465 111 464 96 L 464 96 Z M 512 96 Q 512 82 503 73 L 503 73 Q 494 64 480 64 Q 466 64 457 73 Q 448 82 448 96 Q 448 110 457 119 Q 466 128 480 128 Q 494 128 503 119 Q 512 110 512 96 L 512 96 Z M 96 464 Q 111 465 112 480 Q 111 495 96 496 Q 81 495 80 480 Q 81 465 96 464 L 96 464 Z M 96 512 Q 110 512 119 503 L 119 503 Q 128 494 128 480 Q 128 466 119 457 Q 110 448 96 448 Q 82 448 73 457 Q 64 466 64 480 Q 64 494 73 503 Q 82 512 96 512 L 96 512 Z M 464 480 Q 465 465 480 464 Q 495 465 496 480 Q 495 495 480 496 Q 465 495 464 480 L 464 480 Z M 512 480 Q 512 466 503 457 L 503 457 Q 494 448 480 448 Q 466 448 457 457 Q 448 466 448 480 Q 448 494 457 503 Q 466 512 480 512 Q 494 512 503 503 Q 512 494 512 480 L 512 480 Z"/>
</svg>
