<svg xmlns="http://www.w3.org/2000/svg" viewBox="0 0 448 448">
    <path d="M 0 8 Q 1 1 8 0 L 136 0 Q 143 1 144 8 Q 143 15 136 16 L 80 16 L 80 208 Q 82 269 122 310 Q 163 350 224 352 Q 285 350 326 310 Q 366 269 368 208 L 368 16 L 312 16 Q 305 15 304 8 Q 305 1 312 0 L 440 0 Q 447 1 448 8 Q 447 15 440 16 L 384 16 L 384 208 Q 382 276 337 321 Q 292 366 224 368 Q 156 366 111 321 Q 66 276 64 208 L 64 16 L 8 16 Q 1 15 0 8 L 0 8 Z M 0 440 Q 1 433 8 432 L 440 432 Q 447 433 448 440 Q 447 447 440 448 L 8 448 Q 1 447 0 440 L 0 440 Z"/>
</svg>
