<svg xmlns="http://www.w3.org/2000/svg" viewBox="0 0 448 448">
    <path d="M 384 16 L 279 16 L 270 0 L 384 0 Q 411 1 429 19 Q 447 37 448 64 L 448 384 Q 447 411 429 429 Q 411 447 384 448 L 64 448 Q 37 447 19 429 Q 1 411 0 384 L 0 64 Q 1 37 19 19 Q 37 1 64 0 L 178 0 L 169 16 L 64 16 Q 44 17 30 30 Q 17 44 16 64 L 16 304 Q 37 304 56 295 Q 75 286 90 274 Q 108 260 122 243 Q 124 240 128 240 Q 132 240 134 243 Q 147 260 163 274 Q 177 286 192 295 Q 208 304 224 304 Q 240 304 256 295 Q 271 286 285 274 Q 301 260 313 243 Q 316 240 320 240 Q 324 240 326 243 Q 340 260 358 274 Q 373 286 392 295 Q 411 304 432 304 L 432 64 Q 431 44 418 30 Q 404 17 384 16 L 384 16 Z M 432 320 Q 407 319 385 309 L 385 309 Q 364 299 348 286 Q 329 271 320 261 Q 312 271 295 286 Q 281 299 263 309 Q 245 319 224 320 Q 203 319 185 309 Q 167 299 153 286 Q 136 271 128 261 Q 119 271 100 286 Q 84 299 63 309 Q 41 319 16 320 L 16 384 Q 17 404 30 418 Q 44 431 64 432 L 384 432 Q 404 431 418 418 Q 431 404 432 384 L 432 320 L 432 320 Z M 152 118 Q 152 96 164 77 L 212 7 Q 216 0 224 0 Q 232 0 236 7 L 284 78 Q 296 96 296 118 L 296 120 Q 295 151 275 171 Q 255 191 224 192 Q 193 191 173 171 Q 153 151 152 120 L 152 118 L 152 118 Z M 178 86 Q 168 101 168 118 L 168 120 Q 169 144 184 160 Q 200 175 224 176 Q 248 175 264 160 Q 279 144 280 120 L 280 118 Q 280 101 270 86 L 224 17 L 178 86 L 178 86 Z"/>
</svg>
