<svg xmlns="http://www.w3.org/2000/svg" viewBox="0 0 512 512">
  <path d="M 8 56 Q 1 57 0 64 Q 1 71 8 72 L 216 72 L 216 72 Q 223 71 224 64 Q 223 57 216 56 L 8 56 L 8 56 Z M 8 184 Q 1 185 0 192 Q 1 199 8 200 L 216 200 L 216 200 Q 223 199 224 192 Q 223 185 216 184 L 8 184 L 8 184 Z M 0 320 Q 1 327 8 328 L 216 328 L 216 328 Q 223 327 224 320 Q 223 313 216 312 L 8 312 L 8 312 Q 1 313 0 320 L 0 320 Z M 8 440 Q 1 441 0 448 Q 1 455 8 456 L 216 456 L 216 456 Q 223 455 224 448 Q 223 441 216 440 L 8 440 L 8 440 Z M 288 192 Q 289 199 296 200 L 504 200 L 504 200 Q 511 199 512 192 Q 511 185 504 184 L 296 184 L 296 184 Q 289 185 288 192 L 288 192 Z M 296 56 Q 289 57 288 64 Q 289 71 296 72 L 504 72 L 504 72 Q 511 71 512 64 Q 511 57 504 56 L 296 56 L 296 56 Z M 288 320 Q 289 327 296 328 L 504 328 L 504 328 Q 511 327 512 320 Q 511 313 504 312 L 296 312 L 296 312 Q 289 313 288 320 L 288 320 Z M 296 440 Q 289 441 288 448 Q 289 455 296 456 L 504 456 L 504 456 Q 511 455 512 448 Q 511 441 504 440 L 296 440 L 296 440 Z" />
</svg>