<svg xmlns="http://www.w3.org/2000/svg" viewBox="0 0 576 512">
    <path d="M 48 16 L 336 16 Q 350 16 359 25 Q 368 34 368 48 L 368 256 Q 368 226 384 203 L 384 48 Q 383 28 370 14 Q 356 1 336 0 L 48 0 Q 28 1 14 14 Q 1 28 0 48 L 0 464 Q 1 484 14 498 Q 28 511 48 512 L 144 512 L 160 512 L 224 512 L 240 512 L 329 512 Q 324 505 322 496 L 240 496 L 240 416 Q 239 396 226 382 Q 212 369 192 368 Q 172 369 158 382 Q 145 396 144 416 L 144 496 L 48 496 Q 34 496 25 487 Q 16 478 16 464 L 16 48 Q 16 34 25 25 Q 34 16 48 16 L 48 16 Z M 224 496 L 160 496 L 160 416 Q 160 402 169 393 Q 178 384 192 384 Q 206 384 215 393 Q 224 402 224 416 L 224 496 L 224 496 Z M 104 232 Q 82 234 80 256 L 80 288 Q 82 310 104 312 L 136 312 Q 158 310 160 288 L 160 256 Q 158 234 136 232 L 104 232 L 104 232 Z M 96 256 Q 97 249 104 248 L 136 248 Q 143 249 144 256 L 144 288 Q 143 295 136 296 L 104 296 Q 97 295 96 288 L 96 256 L 96 256 Z M 224 256 L 224 288 Q 226 310 248 312 L 280 312 Q 302 310 304 288 L 304 256 Q 302 234 280 232 L 248 232 Q 226 234 224 256 L 224 256 Z M 248 248 L 280 248 Q 287 249 288 256 L 288 288 Q 287 295 280 296 L 248 296 Q 241 295 240 288 L 240 256 Q 241 249 248 248 L 248 248 Z M 104 104 Q 82 106 80 128 L 80 160 Q 82 182 104 184 L 136 184 Q 158 182 160 160 L 160 128 Q 158 106 136 104 L 104 104 L 104 104 Z M 96 128 Q 97 121 104 120 L 136 120 Q 143 121 144 128 L 144 160 Q 143 167 136 168 L 104 168 Q 97 167 96 160 L 96 128 L 96 128 Z M 224 128 L 224 160 Q 226 182 248 184 L 280 184 Q 302 182 304 160 L 304 128 Q 302 106 280 104 L 248 104 Q 226 106 224 128 L 224 128 Z M 248 120 L 280 120 Q 287 121 288 128 L 288 160 Q 287 167 280 168 L 248 168 Q 241 167 240 160 L 240 128 Q 241 121 248 120 L 248 120 Z M 464 208 Q 484 209 498 222 L 498 222 Q 511 236 512 256 L 512 320 L 416 320 L 416 256 Q 417 236 430 222 Q 444 209 464 208 L 464 208 Z M 400 256 L 400 320 L 384 320 Q 370 320 361 329 Q 352 338 352 352 L 352 480 Q 352 494 361 503 Q 370 512 384 512 L 544 512 Q 558 512 567 503 Q 576 494 576 480 L 576 352 Q 576 338 567 329 Q 558 320 544 320 L 528 320 L 528 256 Q 527 229 509 211 Q 491 193 464 192 Q 437 193 419 211 Q 401 229 400 256 L 400 256 Z M 384 336 L 400 336 L 416 336 L 512 336 L 528 336 L 544 336 Q 559 337 560 352 L 560 480 Q 559 495 544 496 L 384 496 Q 369 495 368 480 L 368 352 Q 369 337 384 336 L 384 336 Z"/>
</svg>
