<svg xmlns="http://www.w3.org/2000/svg" viewBox="0 0 512 512">
  <path d="M 68 496 L 116 496 L 68 496 L 116 496 L 116 512 L 116 512 L 68 512 L 68 512 Q 41 511 23 493 Q 5 475 4 448 L 4 64 L 4 64 Q 5 37 23 19 Q 41 1 68 0 L 208 0 L 208 0 Q 228 0 242 14 L 374 146 L 374 146 Q 388 160 388 180 L 388 304 L 388 304 L 372 304 L 372 304 L 372 180 L 372 180 Q 372 178 372 176 Q 372 176 372 176 L 252 176 L 252 176 Q 235 176 224 164 Q 212 153 212 136 L 212 16 L 212 16 Q 210 16 208 16 Q 208 16 208 16 L 68 16 L 68 16 Q 48 17 34 30 Q 21 44 20 64 L 20 448 L 20 448 Q 21 468 34 482 Q 48 495 68 496 L 68 496 Z M 365 160 Q 364 159 363 157 L 231 25 L 231 25 Q 229 24 228 23 L 228 136 L 228 136 Q 230 158 252 160 L 365 160 L 365 160 Z M 204 368 L 220 368 L 204 368 L 220 368 Q 234 368 243 377 Q 252 386 252 400 L 252 408 L 252 408 Q 251 415 244 416 Q 237 415 236 408 L 236 400 L 236 400 Q 235 385 220 384 L 204 384 L 204 384 Q 189 385 188 400 L 188 480 L 188 480 Q 189 495 204 496 L 220 496 L 220 496 Q 235 495 236 480 L 236 472 L 236 472 Q 237 465 244 464 Q 251 465 252 472 L 252 480 L 252 480 Q 252 494 243 503 Q 234 512 220 512 L 204 512 L 204 512 Q 190 512 181 503 Q 172 494 172 480 L 172 400 L 172 400 Q 172 386 181 377 Q 190 368 204 368 L 204 368 Z M 337 368 L 372 368 L 337 368 L 372 368 Q 379 369 380 376 Q 379 383 372 384 L 337 384 L 337 384 Q 318 386 316 405 Q 317 418 329 424 L 366 441 L 366 441 Q 387 451 388 475 Q 388 491 377 501 Q 367 512 351 512 L 308 512 L 308 512 Q 301 511 300 504 Q 301 497 308 496 L 351 496 L 351 496 Q 370 494 372 475 Q 371 462 360 456 L 322 439 L 322 439 Q 301 429 300 405 Q 300 389 311 379 Q 321 368 337 368 L 337 368 Z M 436 368 Q 443 369 444 376 L 444 408 L 444 408 Q 444 452 468 490 Q 492 452 492 408 L 492 376 L 492 376 Q 493 369 500 368 Q 507 369 508 376 L 508 408 L 508 408 Q 508 458 480 501 L 475 509 L 475 509 Q 472 512 468 512 Q 464 512 461 508 L 456 501 L 456 501 Q 428 458 428 408 L 428 376 L 428 376 Q 429 369 436 368 L 436 368 Z" />
</svg>