<svg xmlns="http://www.w3.org/2000/svg" viewBox="0 0 514 452">
    <path d="M 410 436 Q 406 442 410 448 Q 416 452 422 448 L 510 360 Q 514 354 510 348 L 422 260 Q 416 256 410 260 Q 406 266 410 272 L 485 346 L 344 346 Q 324 346 312 330 L 144 106 Q 132 90 112 90 L 8 90 Q 1 91 0 98 Q 1 105 8 106 L 112 106 Q 124 106 131 116 L 299 340 Q 316 361 344 362 L 485 362 L 410 436 L 410 436 Z M 144 346 L 204 266 L 194 253 L 131 336 Q 124 346 112 346 L 8 346 Q 1 347 0 354 Q 1 361 8 362 L 112 362 Q 132 362 144 346 L 144 346 Z M 254 199 L 312 122 Q 324 106 344 106 L 485 106 L 410 180 Q 406 186 410 192 Q 416 196 422 192 L 510 104 Q 514 98 510 92 L 422 4 Q 416 0 410 4 Q 406 10 410 16 L 485 90 L 344 90 Q 316 91 299 112 L 244 186 L 254 199 L 254 199 Z"/>
</svg>
