<svg xmlns="http://www.w3.org/2000/svg" viewBox="0 0 512 384">
    <path d="M 168 16 Q 175 17 176 24 L 176 64 L 80 64 L 80 24 Q 81 17 88 16 L 168 16 L 168 16 Z M 192 64 L 192 24 Q 190 2 168 0 L 88 0 Q 66 2 64 24 L 64 64 Q 37 65 19 83 Q 1 101 0 128 L 0 320 Q 1 347 19 365 Q 37 383 64 384 L 448 384 Q 475 383 493 365 Q 511 347 512 320 L 512 128 Q 511 101 493 83 Q 475 65 448 64 L 448 24 Q 446 2 424 0 L 344 0 Q 322 2 320 24 L 320 64 L 192 64 L 192 64 Z M 336 64 L 336 24 Q 337 17 344 16 L 424 16 Q 431 17 432 24 L 432 64 L 336 64 L 336 64 Z M 320 80 L 336 80 L 432 80 L 448 80 Q 468 81 482 94 Q 495 108 496 128 L 496 320 Q 495 340 482 354 Q 468 367 448 368 L 64 368 Q 44 367 30 354 Q 17 340 16 320 L 16 128 Q 17 108 30 94 Q 44 81 64 80 L 80 80 L 176 80 L 192 80 L 320 80 L 320 80 Z M 368 152 Q 361 153 360 160 L 360 200 L 320 200 Q 313 201 312 208 Q 313 215 320 216 L 360 216 L 360 256 Q 361 263 368 264 Q 375 263 376 256 L 376 216 L 416 216 Q 423 215 424 208 Q 423 201 416 200 L 376 200 L 376 160 Q 375 153 368 152 L 368 152 Z M 96 200 Q 89 201 88 208 Q 89 215 96 216 L 192 216 Q 199 215 200 208 Q 199 201 192 200 L 96 200 L 96 200 Z"/>
</svg>
