<svg xmlns="http://www.w3.org/2000/svg" viewBox="0 0 512 512">
  <path d="M 280.21622 150.23938 L 235.73746 172.97298 L 280.21622 150.23938 L 235.73746 172.97298 Q 210.0386 186.8108 209.05019 215.4749 L 209.05019 267.861 L 209.05019 267.861 Q 208.06178 278.73358 198.17761 282.68726 L 125.03475 307.39767 L 125.03475 307.39767 Q 112.185326 313.3282 115.15058 327.16602 Q 121.08108 340.01544 134.91891 337.0502 L 218.93436 309.3745 L 218.93436 309.3745 Q 239.69112 301.4672 240.67953 278.73358 L 240.67953 260.94208 L 240.67953 260.94208 Q 241.66795 251.05792 249.57529 246.11583 Q 258.47104 242.16216 266.3784 248.09267 L 320.7413 293.55984 L 320.7413 293.55984 Q 333.59073 305.42084 331.6139 322.22394 L 319.7529 399.32047 L 319.7529 399.32047 Q 318.76447 413.1583 333.59073 417.11197 Q 347.42856 418.10037 351.38223 403.27414 L 363.24326 327.16602 L 363.24326 327.16602 Q 367.1969 292.57144 340.50964 268.84943 L 306.90347 240.18533 L 306.90347 240.18533 Q 299.98456 234.25482 300.97296 226.34749 Q 301.9614 217.45174 309.8687 213.49806 L 381.03476 182.85715 L 381.03476 182.85715 Q 388.94208 178.90347 396.84943 184.83398 L 468.01544 240.18533 L 468.01544 240.18533 Q 479.87643 248.09267 490.74902 237.22008 Q 498.65637 224.37065 487.78378 214.48648 L 363.24326 117.62162 L 363.24326 117.62162 Q 342.48648 101.80695 316.78766 96.86487 L 275.27414 87.96911 L 275.27414 87.96911 Q 267.3668 86.9807 263.41312 80.061775 L 238.7027 30.640926 L 238.7027 30.640926 Q 230.79536 17.791506 217.94595 23.722008 Q 205.09653 30.640926 211.02702 44.478764 L 235.73746 93.89961 L 235.73746 93.89961 Q 245.62163 114.65637 268.35522 119.59846 L 276.26254 120.586876 L 276.26254 120.586876 Q 286.14673 123.552124 288.12357 134.42471 Q 289.11197 145.2973 280.21622 150.23938 L 280.21622 150.23938 Z M 386.96524 196.69498 L 332.60233 221.40541 L 386.96524 196.69498 L 332.60233 221.40541 L 316.78766 228.32433 L 316.78766 228.32433 L 329.63705 239.19691 L 329.63705 239.19691 L 351.38223 256.9884 L 351.38223 256.9884 Q 384 286.64093 379.05792 330.1313 L 367.1969 406.23938 L 367.1969 406.23938 Q 364.23166 419.0888 354.3475 426.99612 Q 344.46332 433.91507 330.6255 432.92664 Q 317.77606 429.9614 309.8687 420.0772 Q 302.9498 410.19305 303.93823 396.35522 L 315.79922 320.2471 L 315.79922 320.2471 Q 316.78766 311.35135 310.85715 305.42084 L 272.30887 273.7915 L 272.30887 273.7915 L 256.4942 260.94208 L 256.4942 260.94208 L 256.4942 279.72202 L 256.4942 279.72202 Q 256.4942 279.72202 256.4942 280.71042 Q 256.4942 280.71042 256.4942 281.69885 Q 253.52896 312.33978 223.87645 324.20078 L 139.86101 352.86487 L 139.86101 352.86487 Q 127.01158 355.8301 116.139 350.88803 Q 104.27799 344.95752 100.324326 332.1081 Q 96.37066 319.2587 101.312744 308.3861 Q 107.24324 296.5251 120.09267 292.57144 L 193.23552 267.861 L 193.23552 267.861 L 193.23552 215.4749 L 193.23552 215.4749 Q 194.22394 176.92664 227.83011 159.13513 L 251.55212 147.27412 L 251.55212 147.27412 L 264.40155 140.35521 L 264.40155 140.35521 L 273.2973 136.40155 L 273.2973 136.40155 L 265.38995 135.41313 L 265.38995 135.41313 Q 257.48264 133.4363 250.5637 129.48262 Q 230.79536 120.586876 220.9112 100.818535 L 196.20078 51.397682 L 196.20078 51.397682 Q 191.25868 39.53668 195.21236 27.675676 Q 199.16602 15.8146715 211.02702 8.895753 Q 222.88803 3.9536679 234.74904 7.9073358 Q 246.61003 11.861004 253.52896 23.722008 L 278.23938 73.14286 L 278.23938 73.14286 L 319.7529 81.05019 L 319.7529 81.05019 Q 348.417 86.9807 372.139 105.76062 L 497.66797 202.62549 L 497.66797 202.62549 Q 507.55212 210.53282 509.52896 223.38223 Q 510.51736 236.23166 502.61005 247.10425 Q 493.7143 256.9884 481.85327 258.96524 Q 469.00388 259.95367 458.1313 252.04633 L 386.96524 196.69498 L 386.96524 196.69498 Z M 462.08493 53.374516 Q 462.08493 39.53668 453.18918 30.640926 L 453.18918 30.640926 L 453.18918 30.640926 Q 444.29343 21.745174 430.4556 21.745174 Q 416.61777 21.745174 407.72202 30.640926 Q 398.82626 39.53668 398.82626 53.374516 Q 398.82626 67.21236 407.72202 76.10811 Q 416.61777 85.00386 430.4556 85.00386 Q 444.29343 85.00386 453.18918 76.10811 Q 462.08493 67.21236 462.08493 53.374516 L 462.08493 53.374516 Z M 383.0116 53.374516 Q 384 26.687258 406.73358 11.861004 Q 430.4556 0 454.1776 11.861004 Q 476.9112 26.687258 477.89963 53.374516 Q 476.9112 80.061775 454.1776 94.88803 Q 430.4556 106.74903 406.73358 94.88803 Q 384 80.061775 383.0116 53.374516 L 383.0116 53.374516 Z M 18.285715 294.54825 L 39.042473 331.1197 L 18.285715 294.54825 L 39.042473 331.1197 Q 48.92664 346.93436 66.71815 354.8417 L 414.64093 492.23166 L 414.64093 492.23166 Q 424.5251 496.18533 434.40927 496.18533 L 485.80695 496.18533 L 485.80695 496.18533 Q 492.72586 497.17374 493.7143 504.09265 Q 492.72586 511.0116 485.80695 512 L 434.40927 512 L 434.40927 512 Q 420.57144 512 408.71042 507.05792 L 60.787643 369.66797 L 60.787643 369.66797 Q 38.054054 359.78378 25.204634 339.02704 L 4.4478765 302.4556 L 4.4478765 302.4556 Q 1.4826255 295.53668 7.4131274 291.583 Q 14.3320465 288.61777 18.285715 294.54825 L 18.285715 294.54825 Z" />
</svg>