<svg xmlns="http://www.w3.org/2000/svg" viewBox="0 0 512 512">
  <path d="M 392.8 87.2 L 373.6 68 L 392.8 87.2 L 373.6 68 Q 364.8 60 356 68 L 332 91.2 L 332 91.2 L 369.6 128.8 L 369.6 128.8 L 392.8 104.8 L 392.8 104.8 Q 400.8 96 392.8 87.2 L 402.4 77.6 L 402.4 77.6 Q 409.6 85.6 409.6 96 Q 409.6 106.4 402.4 114.4 L 378.4 137.6 L 378.4 137.6 L 420 179.2 L 420 179.2 L 486.4 179.2 L 486.4 179.2 Q 497.6 179.2 504.8 186.4 Q 512 193.6 512 204.8 Q 511.2 255.2 487.2 295.2 Q 464 336 423.2 359.2 Q 383.2 383.2 332.8 384 Q 321.6 384 314.4 376.8 Q 307.2 369.6 307.2 358.4 L 307.2 292 L 307.2 292 L 186.4 172 L 186.4 172 Q 179.2 164 179.2 153.6 Q 179.2 143.2 186.4 135.2 L 263.2 58.4 L 263.2 58.4 Q 271.2 51.2 281.6 51.2 Q 292 51.2 300 58.4 L 323.2 82.4 L 323.2 82.4 L 346.4 58.4 L 346.4 58.4 Q 354.4 51.2 364.8 51.2 Q 375.2 51.2 383.2 58.4 L 402.4 77.6 L 402.4 77.6 L 392.8 87.2 L 392.8 87.2 Z M 192 213.6 L 200.8 222.4 L 192 213.6 L 200.8 222.4 L 16.8 407.2 L 16.8 407.2 Q 8.8 416 16.8 424.8 L 36 444 L 36 444 L 26.4 453.6 L 26.4 453.6 L 7.2 434.4 L 7.2 434.4 Q 0 426.4 0 416 Q 0 405.6 7.2 397.6 L 192 213.6 L 192 213.6 Z M 26.4 453.6 L 36 444 L 26.4 453.6 L 36 444 Q 44.8 452 53.6 444 L 238.4 260 L 238.4 260 L 247.2 268.8 L 247.2 268.8 L 63.2 453.6 L 63.2 453.6 Q 55.2 460.8 44.8 460.8 Q 34.4 460.8 26.4 453.6 L 26.4 453.6 Z M 420 192 Q 415.2 192 411.2 188 L 290.4 68 L 290.4 68 Q 281.6 60 272.8 68 L 196 144.8 L 196 144.8 Q 188 153.6 196 162.4 L 316 283.2 L 316 283.2 Q 320 287.2 320 292 L 320 358.4 L 320 358.4 Q 320.8 370.4 332.8 371.2 Q 403.2 369.6 450.4 322.4 Q 497.6 275.2 499.2 204.8 Q 498.4 192.8 486.4 192 L 420 192 L 420 192 Z M 467.2 231.2 Q 463.2 275.2 433.6 305.6 L 433.6 305.6 L 433.6 305.6 Q 403.2 335.2 359.2 339.2 Q 352.8 339.2 352 333.6 Q 352 327.2 358.4 326.4 Q 397.6 323.2 424 296 Q 451.2 269.6 454.4 229.6 Q 455.2 224 461.6 224 Q 467.2 224.8 467.2 230.4 L 467.2 231.2 Z" />
</svg>