<svg xmlns="http://www.w3.org/2000/svg" viewBox="0 0 512 512">
  <path d="M 490.4214559386973 373.7011494252874 Q 494.3448275862069 382.5287356321839 490.4214559386973 389.39463601532566 L 490.4214559386973 389.39463601532566 L 490.4214559386973 389.39463601532566 Q 485.51724137931035 397.2413793103448 476.6896551724138 397.2413793103448 L 35.310344827586206 397.2413793103448 L 35.310344827586206 397.2413793103448 Q 26.482758620689655 397.2413793103448 21.578544061302683 389.39463601532566 Q 17.655172413793103 382.5287356321839 21.578544061302683 373.7011494252874 L 128.4904214559387 188.32183908045977 L 128.4904214559387 188.32183908045977 Q 149.088122605364 153.99233716475095 182.4367816091954 134.37547892720306 Q 215.78544061302682 114.75862068965517 256 114.75862068965517 Q 296.2145593869732 114.75862068965517 329.5632183908046 134.37547892720306 Q 362.911877394636 153.99233716475095 383.5095785440613 188.32183908045977 L 490.4214559386973 373.7011494252874 L 490.4214559386973 373.7011494252874 Z M 256 99.06513409961686 Q 211.86206896551724 99.06513409961686 174.59003831417624 120.64367816091954 L 174.59003831417624 120.64367816091954 L 174.59003831417624 120.64367816091954 Q 137.31800766283524 142.22222222222223 114.75862068965517 180.4750957854406 L 8.827586206896552 365.8544061302682 L 8.827586206896552 365.8544061302682 Q 0 382.5287356321839 8.827586206896552 397.2413793103448 Q 16.674329501915707 411.95402298850576 35.310344827586206 412.93486590038316 L 476.6896551724138 412.93486590038316 L 476.6896551724138 412.93486590038316 Q 495.32567049808426 411.95402298850576 503.17241379310343 397.2413793103448 Q 512 382.5287356321839 503.17241379310343 365.8544061302682 L 397.2413793103448 180.4750957854406 L 397.2413793103448 180.4750957854406 Q 374.68199233716473 142.22222222222223 337.40996168582376 120.64367816091954 Q 300.13793103448273 99.06513409961686 256 99.06513409961686 L 256 99.06513409961686 Z" />
</svg>