<svg xmlns="http://www.w3.org/2000/svg" viewBox="0 0 512 512">
  <path d="M 158.38132295719845 414.38132295719845 Q 150.4124513618677 411.39299610894943 143.4396887159533 416.3735408560311 Q 126.50583657587549 429.3229571984436 92.63813229571984 445.26070038910507 Q 57.77431906614786 462.1945525291829 17.929961089494164 463.1906614785992 L 17.929961089494164 463.1906614785992 L 17.929961089494164 463.1906614785992 L 17.929961089494164 463.1906614785992 L 17.929961089494164 463.1906614785992 L 17.929961089494164 463.1906614785992 L 17.929961089494164 463.1906614785992 L 17.929961089494164 463.1906614785992 L 17.929961089494164 463.1906614785992 L 18.926070038910506 463.1906614785992 L 18.926070038910506 463.1906614785992 Q 18.926070038910506 462.1945525291829 19.92217898832685 461.19844357976655 Q 21.914396887159533 459.20622568093387 24.90272373540856 455.22178988326846 L 12.949416342412452 445.26070038910507 L 12.949416342412452 445.26070038910507 L 24.90272373540856 455.22178988326846 L 24.90272373540856 455.22178988326846 Q 32.8715953307393 446.2568093385214 41.83657587548638 431.31517509727627 Q 59.766536964980546 403.42412451361866 65.7431906614786 361.5875486381323 Q 65.7431906614786 354.6147859922179 61.75875486381323 349.6342412451362 Q 18.926070038910506 301.82101167315176 17.929961089494164 240.06225680933852 Q 19.92217898832685 160.37354085603113 86.6614785992218 105.58754863813229 Q 153.40077821011673 50.80155642023346 256.99610894941634 48.809338521400775 Q 360.591439688716 50.80155642023346 427.3307392996109 105.58754863813229 Q 494.07003891050584 160.37354085603113 496.0622568093385 240.06225680933852 Q 494.07003891050584 319.7509727626459 427.3307392996109 374.5369649805447 Q 360.591439688716 429.3229571984436 256.99610894941634 431.31517509727627 Q 204.2023346303502 431.31517509727627 158.38132295719845 414.38132295719845 L 158.38132295719845 414.38132295719845 Z M 6.972762645914397 452.23346303501944 L 6.972762645914397 452.23346303501944 L 6.972762645914397 452.23346303501944 L 6.972762645914397 452.23346303501944 L 6.972762645914397 452.23346303501944 L 6.972762645914397 452.23346303501944 L 6.972762645914397 452.23346303501944 L 6.972762645914397 452.23346303501944 Q 0 459.20622568093387 2.9883268482490273 469.16731517509726 Q 7.968871595330739 479.1284046692607 17.929961089494164 479.1284046692607 Q 61.75875486381323 477.136186770428 99.61089494163424 460.2023346303502 Q 134.47470817120623 443.2684824902724 153.40077821011673 429.3229571984436 Q 201.21400778210116 447.25291828793775 256.99610894941634 447.25291828793775 Q 328.715953307393 446.2568093385214 385.4941634241245 419.36186770428014 Q 443.2684824902724 391.47081712062254 477.136186770428 344.6536964980545 Q 511.00389105058366 297.8365758754864 512 240.06225680933852 Q 511.00389105058366 182.28793774319067 477.136186770428 135.47081712062257 Q 443.2684824902724 88.65369649805447 385.4941634241245 60.762645914396884 Q 328.715953307393 33.86770428015564 256.99610894941634 32.8715953307393 Q 185.27626459143968 33.86770428015564 128.49805447470817 60.762645914396884 Q 70.72373540856032 88.65369649805447 36.856031128404666 135.47081712062257 Q 2.9883268482490273 182.28793774319067 1.9922178988326849 240.06225680933852 Q 2.9883268482490273 308.79377431906613 49.80544747081712 360.591439688716 Q 44.824902723735406 397.44747081712063 27.891050583657588 423.3463035019455 Q 19.92217898832685 437.2918287937743 12.949416342412452 444.26459143968873 Q 9.961089494163424 448.2490272373541 7.968871595330739 450.24124513618676 Q 7.968871595330739 451.2373540856031 6.972762645914397 451.2373540856031 Q 6.972762645914397 451.2373540856031 6.972762645914397 452.23346303501944 L 6.972762645914397 452.23346303501944 L 6.972762645914397 452.23346303501944 L 6.972762645914397 452.23346303501944 L 6.972762645914397 452.23346303501944 Z M 193.24513618677042 208.18677042801556 Q 208.18677042801556 207.19066147859922 209.1828793774319 192.24902723735408 Q 208.18677042801556 177.30739299610894 193.24513618677042 176.3112840466926 Q 178.30350194552528 177.30739299610894 177.30739299610894 192.24902723735408 Q 178.30350194552528 207.19066147859922 193.24513618677042 208.18677042801556 L 193.24513618677042 208.18677042801556 Z M 320.74708171206225 208.18677042801556 Q 335.6887159533074 207.19066147859922 336.68482490272373 192.24902723735408 Q 335.6887159533074 177.30739299610894 320.74708171206225 176.3112840466926 Q 305.8054474708171 177.30739299610894 304.8093385214008 192.24902723735408 Q 305.8054474708171 207.19066147859922 320.74708171206225 208.18677042801556 L 320.74708171206225 208.18677042801556 Z M 162.3657587548638 281.8988326848249 Q 157.3852140077821 286.8793774319066 162.3657587548638 292.85603112840465 Q 198.22568093385215 333.6964980544747 256.99610894941634 335.6887159533074 Q 315.76653696498056 333.6964980544747 351.6264591439689 292.85603112840465 Q 356.60700389105057 286.8793774319066 351.6264591439689 281.8988326848249 Q 345.64980544747084 277.9143968871595 340.6692607003891 282.89494163424126 Q 307.7976653696498 318.7548638132296 256.99610894941634 319.7509727626459 Q 206.1945525291829 318.7548638132296 174.31906614785993 282.89494163424126 Q 168.34241245136187 277.9143968871595 162.3657587548638 281.8988326848249 L 162.3657587548638 281.8988326848249 Z" />
</svg>