<svg xmlns="http://www.w3.org/2000/svg" viewBox="0 0 384 512">
    <path d="M 64 16 Q 44 17 30 30 L 30 30 Q 17 44 16 64 L 16 448 Q 17 468 30 482 Q 44 495 64 496 L 320 496 Q 340 495 354 482 Q 367 468 368 448 L 368 64 Q 367 44 354 30 Q 340 17 320 16 L 64 16 L 64 16 Z M 0 64 Q 1 37 19 19 L 19 19 Q 37 1 64 0 L 320 0 Q 347 1 365 19 Q 383 37 384 64 L 384 448 Q 383 475 365 493 Q 347 511 320 512 L 64 512 Q 37 511 19 493 Q 1 475 0 448 L 0 64 L 0 64 Z M 186 127 Q 192 122 198 127 L 237 166 L 297 226 Q 316 246 316 271 Q 316 297 297 316 Q 277 335 252 335 Q 226 335 207 316 L 200 310 L 200 366 L 224 366 Q 231 367 232 374 Q 231 381 224 382 L 160 382 Q 153 381 152 374 Q 153 367 160 366 L 184 366 L 184 310 L 178 316 Q 158 335 132 335 Q 107 335 87 316 Q 68 297 68 271 Q 68 246 87 226 L 147 166 L 186 127 L 186 127 Z M 192 302 L 192 302 L 192 302 L 192 302 L 192 302 Z M 192 144 L 158 177 L 98 237 Q 84 252 84 271 Q 84 290 98 305 Q 113 319 132 319 Q 151 319 166 305 L 186 285 Q 192 280 198 285 L 218 305 Q 232 319 252 319 Q 271 319 286 305 Q 300 290 300 271 Q 300 252 286 237 L 226 178 L 192 144 L 192 144 Z"/>
</svg>
