<svg xmlns="http://www.w3.org/2000/svg" viewBox="0 0 512 512">
  <path d="M 92.94267 96.20382 Q 93.757965 77.45223 109.248405 67.66879 Q 125.55414 59.515923 141.85988 67.66879 Q 157.35031 77.45223 158.1656 96.20382 Q 157.35031 114.955414 141.85988 124.73885 Q 125.55414 132.89172 109.248405 124.73885 Q 93.757965 114.955414 92.94267 96.20382 L 92.94267 96.20382 Z M 171.21019 96.20382 Q 170.3949 70.11465 148.38217 57.070065 Q 125.55414 44.02548 102.72611 57.070065 Q 80.71338 70.11465 79.89809 96.20382 Q 80.71338 122.29299 102.72611 135.33759 Q 125.55414 148.38217 148.38217 135.33759 Q 170.3949 122.29299 171.21019 96.20382 L 171.21019 96.20382 Z M 92.94267 222.57324 Q 93.757965 216.05095 88.86624 213.6051 Q 82.34395 212.78981 79.89809 218.49681 L 34.24204 355.46497 L 34.24204 355.46497 Q 33.42675 357.91083 35.872612 361.17197 Q 37.503185 363.61783 40.76433 363.61783 L 66.8535 363.61783 L 66.8535 363.61783 L 66.8535 441.88535 L 66.8535 441.88535 Q 66.8535 453.29938 74.191086 460.63693 Q 81.52866 467.97452 92.94267 467.97452 Q 104.35669 467.97452 111.69427 460.63693 Q 119.031845 453.29938 119.031845 441.88535 L 119.031845 363.61783 L 119.031845 363.61783 L 132.07643 363.61783 L 132.07643 363.61783 L 132.07643 441.88535 L 132.07643 441.88535 Q 132.07643 453.29938 139.41402 460.63693 Q 146.75159 467.97452 158.1656 467.97452 Q 169.57962 467.97452 176.91719 460.63693 Q 184.25478 453.29938 184.25478 441.88535 L 184.25478 363.61783 L 184.25478 363.61783 L 210.34395 363.61783 L 210.34395 363.61783 Q 213.6051 363.61783 216.05095 361.17197 Q 217.68153 357.91083 216.86624 355.46497 L 171.21019 218.49681 L 171.21019 218.49681 Q 168.76433 212.78981 163.05733 213.6051 Q 157.35031 216.05095 158.1656 222.57324 L 201.3758 350.57324 L 201.3758 350.57324 L 177.73248 350.57324 L 49.732483 350.57324 L 92.94267 222.57324 L 92.94267 222.57324 Z M 79.89809 441.88535 L 79.89809 363.61783 L 79.89809 441.88535 L 79.89809 363.61783 L 105.98726 363.61783 L 105.98726 363.61783 L 105.98726 441.88535 L 105.98726 441.88535 Q 105.171974 454.11465 92.94267 454.92993 Q 80.71338 454.11465 79.89809 441.88535 L 79.89809 441.88535 Z M 145.12102 363.61783 L 171.21019 363.61783 L 145.12102 363.61783 L 171.21019 363.61783 L 171.21019 441.88535 L 171.21019 441.88535 Q 170.3949 454.11465 158.1656 454.92993 Q 145.93631 454.11465 145.12102 441.88535 L 145.12102 363.61783 L 145.12102 363.61783 Z M 122.29299 167.94905 L 128.81529 167.94905 L 122.29299 167.94905 L 128.81529 167.94905 Q 147.56688 167.94905 163.05733 177.73248 Q 179.36305 187.51593 187.51593 204.63695 L 237.24841 307.36307 L 237.24841 307.36307 Q 240.50955 313.07007 246.21657 310.6242 Q 251.10828 307.36307 248.66241 301.65604 L 198.92993 198.92993 L 198.92993 198.92993 Q 189.1465 178.54778 170.3949 167.13376 Q 151.64331 154.90446 128.81529 154.90446 L 122.29299 154.90446 L 122.29299 154.90446 Q 99.464966 154.90446 80.71338 167.13376 Q 61.961784 178.54778 52.178345 198.92993 L 2.44586 302.47134 L 2.44586 302.47134 Q 0 307.36307 5.7070065 310.6242 Q 10.598726 313.07007 13.859873 308.17834 L 63.592358 204.63695 L 63.592358 204.63695 Q 71.745224 187.51593 88.05096 177.73248 Q 103.541405 167.94905 122.29299 167.94905 L 122.29299 167.94905 Z M 353.83438 96.20382 Q 354.6497 77.45223 370.14014 67.66879 Q 386.44586 59.515923 402.7516 67.66879 Q 418.24203 77.45223 419.0573 96.20382 Q 418.24203 114.955414 402.7516 124.73885 Q 386.44586 132.89172 370.14014 124.73885 Q 354.6497 114.955414 353.83438 96.20382 L 353.83438 96.20382 Z M 432.1019 96.20382 Q 431.28662 70.11465 409.2739 57.070065 Q 386.44586 44.02548 363.61783 57.070065 Q 341.6051 70.11465 340.7898 96.20382 Q 341.6051 122.29299 363.61783 135.33759 Q 386.44586 148.38217 409.2739 135.33759 Q 431.28662 122.29299 432.1019 96.20382 L 432.1019 96.20382 Z M 353.83438 222.57324 Q 354.6497 216.05095 349.75797 213.6051 Q 343.23566 212.78981 340.7898 218.49681 L 295.13376 355.46497 L 295.13376 355.46497 Q 294.31848 357.91083 296.76434 361.17197 Q 298.3949 363.61783 301.65604 363.61783 L 327.7452 363.61783 L 327.7452 363.61783 L 327.7452 441.88535 L 327.7452 441.88535 Q 327.7452 453.29938 335.0828 460.63693 Q 342.42038 467.97452 353.83438 467.97452 Q 365.2484 467.97452 372.586 460.63693 Q 379.92355 453.29938 379.92355 441.88535 L 379.92355 363.61783 L 379.92355 363.61783 L 392.96814 363.61783 L 392.96814 363.61783 L 392.96814 441.88535 L 392.96814 441.88535 Q 392.96814 453.29938 400.30573 460.63693 Q 407.6433 467.97452 419.0573 467.97452 Q 430.47134 467.97452 437.80893 460.63693 Q 445.14648 453.29938 445.14648 441.88535 L 445.14648 363.61783 L 445.14648 363.61783 L 471.23566 363.61783 L 471.23566 363.61783 Q 474.49683 363.61783 476.9427 361.17197 Q 478.57324 357.91083 477.75797 355.46497 L 432.1019 218.49681 L 432.1019 218.49681 Q 429.65604 212.78981 423.94904 213.6051 Q 418.24203 216.05095 419.0573 222.57324 L 462.26752 350.57324 L 462.26752 350.57324 L 438.6242 350.57324 L 310.6242 350.57324 L 353.83438 222.57324 L 353.83438 222.57324 Z M 340.7898 441.88535 L 340.7898 363.61783 L 340.7898 441.88535 L 340.7898 363.61783 L 366.87897 363.61783 L 366.87897 363.61783 L 366.87897 441.88535 L 366.87897 441.88535 Q 366.0637 454.11465 353.83438 454.92993 Q 341.6051 454.11465 340.7898 441.88535 L 340.7898 441.88535 Z M 406.01273 363.61783 L 432.1019 363.61783 L 406.01273 363.61783 L 432.1019 363.61783 L 432.1019 441.88535 L 432.1019 441.88535 Q 431.28662 454.11465 419.0573 454.92993 Q 406.82803 454.11465 406.01273 441.88535 L 406.01273 363.61783 L 406.01273 363.61783 Z M 383.18472 167.94905 L 389.707 167.94905 L 383.18472 167.94905 L 389.707 167.94905 Q 408.4586 167.94905 423.94904 177.73248 Q 440.2548 187.51593 448.40765 204.63695 L 498.14014 307.36307 L 498.14014 307.36307 Q 501.40128 313.07007 507.10828 310.6242 Q 512 307.36307 509.55414 301.65604 L 459.82166 198.92993 L 459.82166 198.92993 Q 450.0382 178.54778 431.28662 167.13376 Q 412.53503 154.90446 389.707 154.90446 L 383.18472 154.90446 L 383.18472 154.90446 Q 360.3567 154.90446 341.6051 167.13376 Q 322.85352 178.54778 313.07007 198.92993 L 263.3376 302.47134 L 263.3376 302.47134 Q 260.89172 307.36307 266.59872 310.6242 Q 271.49045 313.07007 274.7516 308.17834 L 324.48407 204.63695 L 324.48407 204.63695 Q 332.63693 187.51593 348.9427 177.73248 Q 364.43314 167.94905 383.18472 167.94905 L 383.18472 167.94905 Z" />
</svg>