<svg xmlns="http://www.w3.org/2000/svg" viewBox="0 0 512 512">
  <path d="M 142.4 77.6 Q 148.8 67.2 157.6 59.2 L 157.6 59.2 L 157.6 59.2 Q 167.2 51.2 179.2 51.2 Q 191.2 51.2 200.8 59.2 Q 210.4 67.2 216.8 77.6 Q 229.6 100.8 230.4 122.4 L 230.4 140.8 L 230.4 140.8 Q 223.2 146.4 217.6 153.6 L 217.6 122.4 L 217.6 122.4 Q 217.6 104.8 205.6 84.8 Q 193.6 64.8 179.2 64 Q 165.6 64.8 152.8 84.8 Q 140.8 104.8 140.8 122.4 L 140.8 192 L 140.8 192 L 140.8 198.4 L 140.8 198.4 L 140.8 304 L 140.8 304 L 140.8 332.8 L 140.8 332.8 L 140.8 371.2 L 140.8 371.2 Q 140.8 374.4 138.4 376 L 92 411.2 L 92 411.2 Q 89.6 412.8 89.6 416 L 89.6 443.2 L 89.6 443.2 Q 89.6 447.2 94.4 448 Q 95.2 448 96 448 L 177.6 422.4 L 177.6 422.4 Q 179.2 421.6 180.8 422.4 L 238.4 440 L 238.4 440 Q 240.8 441.6 243.2 442.4 L 243.2 454.4 L 243.2 454.4 Q 243.2 454.4 243.2 455.2 Q 243.2 455.2 243.2 455.2 L 179.2 435.2 L 179.2 435.2 L 99.2 460 L 99.2 460 Q 96.8 460.8 94.4 460.8 Q 78.4 459.2 76.8 443.2 L 76.8 416 L 76.8 416 Q 76.8 406.4 84.8 400.8 L 128 368 L 128 368 L 128 332.8 L 128 332.8 L 128 312 L 128 312 L 24 340.8 L 24 340.8 Q 14.4 343.2 7.2 337.6 Q 0 332 0 322.4 L 0 284 L 0 284 Q 0.8 265.6 16.8 256 L 128 194.4 L 128 194.4 L 128 192 L 128 192 L 128 122.4 L 128 122.4 Q 128.8 100.8 142.4 77.6 L 142.4 77.6 Z M 128 208.8 L 22.4 267.2 L 128 208.8 L 22.4 267.2 Q 12.8 272.8 12.8 284 L 12.8 322.4 L 12.8 322.4 Q 13.6 329.6 20.8 328.8 L 128 299.2 L 128 299.2 L 128 208.8 L 128 208.8 Z M 473.6 166.4 L 268.8 166.4 L 473.6 166.4 L 268.8 166.4 Q 257.6 166.4 250.4 173.6 Q 243.2 180.8 243.2 192 L 243.2 384 L 243.2 384 Q 244 400.8 258.4 407.2 Q 256 402.4 256 396.8 L 256 352 L 256 352 Q 257.6 325.6 279.2 312.8 L 282.4 303.2 L 282.4 303.2 L 292 270.4 L 292 270.4 Q 301.6 244.8 328.8 243.2 L 413.6 243.2 L 413.6 243.2 Q 440.8 244.8 450.4 270.4 L 460 303.2 L 460 303.2 L 463.2 312.8 L 463.2 312.8 Q 485.6 325.6 486.4 352 L 486.4 396.8 L 486.4 396.8 Q 486.4 402.4 484 407.2 Q 498.4 400.8 499.2 384 L 499.2 192 L 499.2 192 Q 499.2 180.8 492 173.6 Q 484.8 166.4 473.6 166.4 L 473.6 166.4 Z M 460.8 422.4 L 281.6 422.4 L 460.8 422.4 L 281.6 422.4 L 281.6 454.4 L 281.6 454.4 Q 280.8 460 275.2 460.8 Q 269.6 460 268.8 454.4 L 268.8 422.4 L 268.8 422.4 Q 252.8 421.6 241.6 411.2 Q 231.2 400 230.4 384 L 230.4 192 L 230.4 192 Q 231.2 176 241.6 164.8 Q 252.8 154.4 268.8 153.6 L 473.6 153.6 L 473.6 153.6 Q 489.6 154.4 500.8 164.8 Q 511.2 176 512 192 L 512 384 L 512 384 Q 511.2 400 500.8 411.2 Q 489.6 421.6 473.6 422.4 L 473.6 454.4 L 473.6 454.4 Q 472.8 460 467.2 460.8 Q 461.6 460 460.8 454.4 L 460.8 422.4 L 460.8 422.4 Z M 460.8 409.6 Q 472.8 408.8 473.6 396.8 L 473.6 352 L 473.6 352 Q 473.6 338.4 464 329.6 Q 455.2 320 441.6 320 L 300.8 320 L 300.8 320 Q 287.2 320 278.4 329.6 Q 268.8 338.4 268.8 352 L 268.8 396.8 L 268.8 396.8 Q 269.6 408.8 281.6 409.6 L 460.8 409.6 L 460.8 409.6 Z M 441.6 307.2 L 448 307.2 L 441.6 307.2 L 448 307.2 L 444 294.4 L 444 294.4 L 438.4 274.4 L 438.4 274.4 Q 432 256.8 413.6 256 L 328.8 256 L 328.8 256 Q 310.4 256.8 304 274.4 L 298.4 294.4 L 298.4 294.4 L 294.4 307.2 L 294.4 307.2 L 300.8 307.2 L 441.6 307.2 Z M 320 368 Q 319.2 359.2 310.4 358.4 Q 301.6 359.2 300.8 368 Q 301.6 376.8 310.4 377.6 Q 319.2 376.8 320 368 L 320 368 Z M 288 368 Q 288 358.4 294.4 352 L 294.4 352 L 294.4 352 Q 300.8 345.6 310.4 345.6 Q 320 345.6 326.4 352 Q 332.8 358.4 332.8 368 Q 332.8 377.6 326.4 384 Q 320 390.4 310.4 390.4 Q 300.8 390.4 294.4 384 Q 288 377.6 288 368 L 288 368 Z M 432 377.6 Q 440.8 376.8 441.6 368 Q 440.8 359.2 432 358.4 Q 423.2 359.2 422.4 368 Q 423.2 376.8 432 377.6 L 432 377.6 Z M 432 345.6 Q 441.6 345.6 448 352 L 448 352 L 448 352 Q 454.4 358.4 454.4 368 Q 454.4 377.6 448 384 Q 441.6 390.4 432 390.4 Q 422.4 390.4 416 384 Q 409.6 377.6 409.6 368 Q 409.6 358.4 416 352 Q 422.4 345.6 432 345.6 L 432 345.6 Z" />
</svg>