<svg xmlns="http://www.w3.org/2000/svg" viewBox="0 0 576 512">
    <path d="M 512 16 Q 532 17 546 30 L 546 30 Q 559 44 560 64 L 560 288 Q 559 308 546 322 Q 532 335 512 336 L 64 336 Q 44 335 30 322 Q 17 308 16 288 L 16 64 Q 17 44 30 30 Q 44 17 64 16 L 512 16 L 512 16 Z M 64 0 Q 37 1 19 19 L 19 19 Q 1 37 0 64 L 0 288 Q 1 315 19 333 Q 37 351 64 352 L 512 352 Q 539 351 557 333 Q 575 315 576 288 L 576 64 Q 575 37 557 19 Q 539 1 512 0 L 64 0 L 64 0 Z M 64 432 Q 79 433 80 448 L 80 480 Q 79 495 64 496 L 32 496 Q 17 495 16 480 L 16 448 Q 17 433 32 432 L 64 432 L 64 432 Z M 32 416 Q 18 416 9 425 L 9 425 Q 0 434 0 448 L 0 480 Q 0 494 9 503 Q 18 512 32 512 L 64 512 Q 78 512 87 503 Q 96 494 96 480 L 96 448 Q 96 434 87 425 Q 78 416 64 416 L 32 416 L 32 416 Z M 192 432 L 224 432 Q 239 433 240 448 L 240 480 Q 239 495 224 496 L 192 496 Q 177 495 176 480 L 176 448 Q 177 433 192 432 L 192 432 Z M 160 448 L 160 480 Q 160 494 169 503 Q 178 512 192 512 L 224 512 Q 238 512 247 503 Q 256 494 256 480 L 256 448 Q 256 434 247 425 Q 238 416 224 416 L 192 416 Q 178 416 169 425 Q 160 434 160 448 L 160 448 Z M 384 432 Q 399 433 400 448 L 400 480 Q 399 495 384 496 L 352 496 Q 337 495 336 480 L 336 448 Q 337 433 352 432 L 384 432 L 384 432 Z M 352 416 Q 338 416 329 425 L 329 425 Q 320 434 320 448 L 320 480 Q 320 494 329 503 Q 338 512 352 512 L 384 512 Q 398 512 407 503 Q 416 494 416 480 L 416 448 Q 416 434 407 425 Q 398 416 384 416 L 352 416 L 352 416 Z M 512 432 L 544 432 Q 559 433 560 448 L 560 480 Q 559 495 544 496 L 512 496 Q 497 495 496 480 L 496 448 Q 497 433 512 432 L 512 432 Z M 480 448 L 480 480 Q 480 494 489 503 Q 498 512 512 512 L 544 512 Q 558 512 567 503 Q 576 494 576 480 L 576 448 Q 576 434 567 425 Q 558 416 544 416 L 512 416 Q 498 416 489 425 Q 480 434 480 448 L 480 448 Z"/>
</svg>
