<svg xmlns="http://www.w3.org/2000/svg" viewBox="0 0 512 416">
    <path d="M 16 160 Q 17 103 84 60 Q 151 18 256 16 Q 270 16 284 17 L 250 50 Q 246 56 250 62 Q 256 66 262 62 L 302 22 Q 303 20 303 19 Q 378 29 429 60 Q 495 103 496 160 L 496 183 Q 495 199 485 212 Q 475 225 460 230 L 460 230 L 459 230 Q 443 236 433 251 Q 419 271 397 281 Q 375 291 351 289 L 351 289 L 351 289 Q 327 289 306 298 L 306 298 Q 282 308 256 308 L 256 308 L 256 308 Q 230 308 206 298 L 206 298 Q 184 289 161 289 L 161 289 L 161 289 Q 137 291 115 281 Q 93 271 79 251 Q 69 237 53 230 L 53 230 L 52 230 Q 37 225 27 212 Q 17 199 16 183 L 16 160 L 16 160 Z M 16 224 Q 29 239 47 245 Q 59 250 65 260 L 65 260 L 66 260 Q 82 283 108 295 Q 134 307 162 305 Q 181 305 200 313 Q 227 324 256 324 Q 285 324 312 313 Q 330 305 350 305 Q 378 307 404 296 Q 430 284 446 260 L 446 260 L 447 260 Q 453 250 465 245 Q 483 239 496 224 L 496 256 Q 495 313 428 356 Q 361 398 256 400 Q 151 398 84 356 Q 17 313 16 256 L 16 224 L 16 224 Z M 256 0 Q 147 2 75 47 L 75 47 Q 3 92 0 160 L 0 256 Q 3 324 75 369 Q 147 414 256 416 Q 365 414 437 369 Q 509 324 512 256 L 512 160 Q 509 92 437 47 Q 365 2 256 0 L 256 0 Z M 209 123 Q 227 112 256 112 Q 285 112 303 123 Q 320 133 320 144 Q 320 155 303 165 Q 285 176 256 176 Q 227 176 209 165 Q 192 155 192 144 Q 192 133 209 123 L 209 123 Z M 201 109 Q 178 121 176 144 Q 178 167 201 179 Q 224 192 256 192 Q 288 192 311 179 Q 334 167 336 144 Q 334 121 311 109 Q 288 96 256 96 Q 224 96 201 109 L 201 109 Z M 166 86 Q 170 80 166 74 Q 160 70 154 74 L 122 106 Q 118 112 122 118 Q 128 122 134 118 L 166 86 L 166 86 Z M 390 90 Q 384 86 378 90 Q 374 96 378 102 L 410 134 Q 416 138 422 134 Q 426 128 422 122 L 390 90 L 390 90 Z M 64 152 Q 57 153 56 160 Q 57 167 64 168 L 96 168 Q 103 167 104 160 Q 103 153 96 152 L 64 152 L 64 152 Z M 390 186 Q 384 182 378 186 Q 374 192 378 198 L 410 230 Q 416 234 422 230 Q 426 224 422 218 L 390 186 L 390 186 Z M 150 202 Q 144 198 138 202 Q 134 208 138 214 L 170 246 Q 176 250 182 246 Q 186 240 182 234 L 150 202 L 150 202 Z M 326 230 Q 330 224 326 218 Q 320 214 314 218 L 282 250 Q 278 256 282 262 Q 288 266 294 262 L 326 230 L 326 230 Z"/>
</svg>
