<svg xmlns="http://www.w3.org/2000/svg" viewBox="0 0 512 512">
  <path d="M 114.17421602787456 190.88501742160278 Q 145.39372822299651 155.205574912892 190.88501742160278 127.55400696864112 Q 236.37630662020905 100.79442508710801 283.65156794425087 99.01045296167247 Q 321.1149825783972 99.90243902439025 359.4703832752613 115.9581881533101 Q 396.93379790940764 132.90592334494772 429.0452961672474 157.8815331010453 Q 460.26480836236937 183.74912891986062 478.9965156794425 210.50871080139373 Q 497.7282229965157 237.26829268292684 497.7282229965157 256 Q 497.7282229965157 274.7317073170732 478.9965156794425 301.4912891986063 Q 460.26480836236937 328.25087108013935 429.0452961672474 354.1184668989547 Q 396.93379790940764 379.0940766550523 359.4703832752613 396.0418118466899 Q 321.1149825783972 412.0975609756098 283.65156794425087 412.98954703832754 Q 236.37630662020905 412.0975609756098 190.88501742160278 384.4459930313589 Q 145.39372822299651 356.79442508710804 114.17421602787456 321.1149825783972 Q 109.71428571428571 316.6550522648084 104.36236933797909 320.2229965156794 L 25.86759581881533 382.6620209059233 L 25.86759581881533 382.6620209059233 Q 24.083623693379792 384.4459930313589 22.299651567944252 384.4459930313589 Q 15.16376306620209 383.5540069686411 16.05574912891986 376.41811846689893 L 39.24738675958188 263.13588850174216 L 39.24738675958188 263.13588850174216 Q 41.03135888501742 256 39.24738675958188 248.86411149825784 L 16.05574912891986 135.58188153310104 L 16.05574912891986 135.58188153310104 Q 15.16376306620209 128.44599303135888 22.299651567944252 127.55400696864112 Q 24.083623693379792 127.55400696864112 25.86759581881533 129.33797909407664 L 104.36236933797909 191.77700348432055 L 104.36236933797909 191.77700348432055 Q 109.71428571428571 195.34494773519162 114.17421602787456 190.88501742160278 L 114.17421602787456 190.88501742160278 Z M 283.65156794425087 84.73867595818815 Q 231.02439024390245 86.5226480836237 183.74912891986062 115.9581881533101 Q 140.04181184668988 142.7177700348432 107.93031358885017 176.61324041811847 L 34.78745644599303 117.74216027874564 L 34.78745644599303 117.74216027874564 Q 29.43554006968641 113.28222996515679 22.299651567944252 113.28222996515679 Q 11.595818815331011 113.28222996515679 6.2439024390243905 121.31010452961672 Q 0 128.44599303135888 1.78397212543554 138.25783972125436 L 25.86759581881533 251.54006968641116 L 25.86759581881533 251.54006968641116 Q 26.7595818815331 256 25.86759581881533 260.45993031358887 L 1.78397212543554 373.74216027874564 L 1.78397212543554 373.74216027874564 Q 0 383.5540069686411 6.2439024390243905 390.68989547038325 Q 11.595818815331011 398.7177700348432 22.299651567944252 398.7177700348432 Q 29.43554006968641 398.7177700348432 34.78745644599303 394.25783972125436 L 108.82229965156795 335.3867595818815 L 108.82229965156795 335.3867595818815 Q 140.04181184668988 369.2822299651568 183.74912891986062 396.0418118466899 Q 231.02439024390245 425.4773519163763 283.65156794425087 427.26132404181186 Q 324.6829268292683 426.3693379790941 364.82229965156796 409.42160278745644 Q 404.9616724738676 391.58188153310107 437.96515679442507 364.82229965156796 Q 470.9686411149826 338.9547038327526 490.5923344947735 309.5191637630662 Q 511.10801393728224 280.9756097560976 512 256 Q 511.10801393728224 231.02439024390245 490.5923344947735 202.4808362369338 Q 470.9686411149826 173.0452961672474 437.96515679442507 147.17770034843207 Q 404.9616724738676 120.41811846689896 364.82229965156796 102.57839721254355 Q 324.6829268292683 85.63066202090593 283.65156794425087 84.73867595818815 L 283.65156794425087 84.73867595818815 Z M 274.7317073170732 175.7212543554007 Q 278.29965156794424 170.36933797909407 274.7317073170732 165.01742160278746 Q 269.37979094076655 161.44947735191639 264.0278745644599 165.01742160278746 L 206.94076655052265 222.10452961672473 L 206.94076655052265 222.10452961672473 Q 203.37282229965157 227.45644599303137 206.94076655052265 232.80836236933797 Q 212.29268292682926 236.37630662020905 217.6445993031359 232.80836236933797 L 274.7317073170732 175.7212543554007 L 274.7317073170732 175.7212543554007 Z M 374.6341463414634 189.99303135888502 Q 378.2020905923345 184.6411149825784 374.6341463414634 179.28919860627178 Q 369.2822299651568 175.7212543554007 363.9303135888502 179.28919860627178 L 221.21254355400697 322.006968641115 L 221.21254355400697 322.006968641115 Q 217.6445993031359 327.3588850174216 221.21254355400697 332.7108013937282 Q 226.56445993031357 336.2787456445993 231.9163763066202 332.7108013937282 L 374.6341463414634 189.99303135888502 L 374.6341463414634 189.99303135888502 Z M 388.9059233449477 289.89547038327527 Q 392.47386759581883 284.54355400696863 388.9059233449477 279.191637630662 Q 383.5540069686411 275.62369337979095 378.2020905923345 279.191637630662 L 321.1149825783972 336.2787456445993 L 321.1149825783972 336.2787456445993 Q 317.54703832752614 341.6306620209059 321.1149825783972 346.98257839721254 Q 326.4668989547038 350.55052264808364 331.81881533101046 346.98257839721254 L 388.9059233449477 289.89547038327527 L 388.9059233449477 289.89547038327527 Z" />
</svg>