<svg xmlns="http://www.w3.org/2000/svg" viewBox="0 0 512 512">
  <path d="M 351.6264591439689 11.95330739299611 Q 352.6225680933852 4.980544747081712 346.6459143968872 1.9922178988326849 Q 338.6770428015564 0 335.6887159533074 5.976653696498055 L 292.85603112840465 129.4941634241245 L 292.85603112840465 129.4941634241245 Q 267.9533073929961 145.431906614786 256 173.3229571984436 Q 244.0466926070039 146.42801556420233 220.1400778210117 129.4941634241245 Q 195.2373540856031 112.56031128404669 164.3579766536965 112.56031128404669 Q 109.57198443579766 114.55252918287938 80.68482490272373 158.38132295719845 L 80.68482490272373 120.52918287937743 L 80.68482490272373 120.52918287937743 Q 79.6887159533074 113.55642023346303 72.715953307393 112.56031128404669 Q 65.7431906614786 113.55642023346303 64.74708171206225 120.52918287937743 L 64.74708171206225 212.17120622568095 L 64.74708171206225 212.17120622568095 L 64.74708171206225 216.1556420233463 L 64.74708171206225 216.1556420233463 L 64.74708171206225 439.284046692607 L 64.74708171206225 439.284046692607 Q 65.7431906614786 446.2568093385214 72.715953307393 447.25291828793775 Q 79.6887159533074 446.2568093385214 80.68482490272373 439.284046692607 L 80.68482490272373 216.1556420233463 L 80.68482490272373 216.1556420233463 L 80.68482490272373 212.17120622568095 L 80.68482490272373 212.17120622568095 Q 81.68093385214007 176.3112840466926 105.58754863813229 153.40077821011673 Q 128.49805447470817 129.4941634241245 164.3579766536965 128.49805447470817 Q 200.21789883268482 129.4941634241245 223.1284046692607 153.40077821011673 Q 247.03501945525292 176.3112840466926 248.03112840466926 212.17120622568095 L 248.03112840466926 255.00389105058366 L 248.03112840466926 255.00389105058366 L 161.36964980544747 500.0466926070039 L 161.36964980544747 500.0466926070039 Q 159.3774319066148 507.0194552529183 165.35408560311285 511.00389105058366 Q 173.3229571984436 512 176.3112840466926 506.02334630350197 L 248.03112840466926 302.8171206225681 L 248.03112840466926 302.8171206225681 L 248.03112840466926 439.284046692607 L 248.03112840466926 439.284046692607 Q 249.0272373540856 446.2568093385214 256 447.25291828793775 Q 262.9727626459144 446.2568093385214 263.9688715953307 439.284046692607 L 263.9688715953307 256.99610894941634 L 263.9688715953307 256.99610894941634 L 305.8054474708171 139.45525291828793 L 305.8054474708171 139.45525291828793 Q 324.7315175097276 128.49805447470817 347.6420233463035 128.49805447470817 Q 383.50194552529183 129.4941634241245 406.4124513618677 153.40077821011673 Q 430.3190661478599 176.3112840466926 431.31517509727627 212.17120622568095 L 431.31517509727627 439.284046692607 L 431.31517509727627 439.284046692607 Q 432.3112840466926 446.2568093385214 439.284046692607 447.25291828793775 Q 446.2568093385214 446.2568093385214 447.25291828793775 439.284046692607 L 447.25291828793775 212.17120622568095 L 447.25291828793775 212.17120622568095 Q 446.2568093385214 170.33463035019454 418.3657587548638 141.44747081712063 Q 389.47859922178986 113.55642023346303 347.6420233463035 112.56031128404669 Q 329.71206225680936 112.56031128404669 312.77821011673154 118.53696498054475 L 351.6264591439689 11.95330739299611 L 351.6264591439689 11.95330739299611 Z M 263.9688715953307 209.1828793774319 L 280.9027237354086 161.36964980544747 L 263.9688715953307 209.1828793774319 L 280.9027237354086 161.36964980544747 Q 264.9649805447471 182.28793774319067 263.9688715953307 209.1828793774319 L 263.9688715953307 209.1828793774319 Z" />
</svg>