<svg xmlns="http://www.w3.org/2000/svg" viewBox="0 0 512 512">
  <path d="M 123.55556 316.44446 L 92.44444 348.44446 L 123.55556 316.44446 L 92.44444 348.44446 Q 80 363.55554 92.44444 378.66666 L 133.33333 419.55554 L 133.33333 419.55554 Q 148.44444 432 163.55556 419.55554 L 195.55556 388.44446 L 195.55556 388.44446 Q 200 384 205.33333 384 L 262.22223 384 L 262.22223 384 Q 277.33334 383.1111 285.33334 372.44446 L 305.77777 344 L 305.77777 344 L 168 206.22223 L 168 206.22223 L 139.55556 226.66667 L 139.55556 226.66667 Q 128 234.66667 128 249.77777 L 128 306.66666 L 128 306.66666 Q 128 312 123.55556 316.44446 L 123.55556 316.44446 Z M 313.77777 332.44446 L 463.1111 125.333336 L 313.77777 332.44446 L 463.1111 125.333336 Q 469.33334 116.44444 469.33334 105.77778 Q 469.33334 91.55556 459.55554 80.888885 L 431.1111 52.444443 L 431.1111 52.444443 Q 420.44446 42.666668 407.1111 42.666668 Q 395.55554 42.666668 386.66666 48.88889 L 179.55556 198.22223 L 179.55556 198.22223 L 313.77777 332.44446 L 313.77777 332.44446 Z M 262.22223 398.22223 L 205.33333 398.22223 L 262.22223 398.22223 L 205.33333 398.22223 L 174.22223 430.22223 L 174.22223 430.22223 Q 162.66667 440 148.44444 440 Q 134.22223 440 123.55556 430.22223 L 81.77778 388.44446 L 81.77778 388.44446 Q 72 377.77777 72 363.55554 Q 72 349.33334 81.77778 337.77777 L 113.77778 306.66666 L 113.77778 306.66666 L 113.77778 249.77777 L 113.77778 249.77777 Q 114.666664 227.55556 131.55556 215.11111 L 378.66666 37.333332 L 378.66666 37.333332 Q 391.1111 28.444445 407.1111 28.444445 Q 426.66666 28.444445 440.8889 42.666668 L 469.33334 71.111115 L 469.33334 71.111115 Q 483.55554 85.333336 483.55554 105.77778 Q 483.55554 120.888885 474.66666 133.33333 L 296.8889 380.44446 L 296.8889 380.44446 Q 284.44446 397.33334 262.22223 398.22223 L 262.22223 398.22223 Z M 63.11111 399.1111 Q 66.666664 404.44446 63.11111 409.77777 L 16.88889 456 L 16.88889 456 Q 14.222222 457.77777 14.222222 461.33334 Q 15.111111 468.44446 22.222221 469.33334 L 73.77778 469.33334 L 73.77778 469.33334 Q 82.666664 469.33334 88.888885 463.1111 L 102.22222 448.8889 L 102.22222 448.8889 Q 107.55556 445.33334 112.888885 448.8889 Q 116.44444 454.22223 112.888885 459.55554 L 98.666664 472.8889 L 98.666664 472.8889 Q 88 483.55554 73.77778 483.55554 L 22.222221 483.55554 L 22.222221 483.55554 Q 1.7777778 481.77777 0 461.33334 Q 0 452.44446 6.2222223 445.33334 L 52.444443 399.1111 L 52.444443 399.1111 Q 57.77778 395.55554 63.11111 399.1111 L 63.11111 399.1111 Z M 206.22223 469.33334 L 504.8889 469.33334 L 206.22223 469.33334 L 504.8889 469.33334 Q 511.1111 470.22223 512 476.44446 Q 511.1111 482.66666 504.8889 483.55554 L 206.22223 483.55554 L 206.22223 483.55554 Q 200 482.66666 199.11111 476.44446 Q 200 470.22223 206.22223 469.33334 L 206.22223 469.33334 Z" />
</svg>