<svg xmlns="http://www.w3.org/2000/svg" viewBox="0 0 640 384">
    <path d="M 320 16 Q 357 16 388 36 L 425 61 Q 453 80 487 80 L 512 80 L 528 80 L 528 96 L 528 160 Q 526 238 479 294 L 478 294 L 478 295 Q 449 329 409 348 Q 368 368 320 368 Q 272 368 231 348 Q 191 329 162 295 L 162 294 L 161 294 Q 114 238 112 160 L 112 96 L 112 80 L 128 80 L 136 80 L 153 80 Q 187 80 215 61 L 252 36 Q 283 16 320 16 L 320 16 Z M 153 64 L 136 64 L 128 64 L 112 64 L 96 64 L 40 64 Q 23 64 12 76 Q 0 87 0 104 L 0 189 Q 1 226 22 253 Q 43 280 79 290 L 150 308 L 152 308 Q 183 343 226 364 Q 269 384 320 384 Q 371 384 414 364 Q 457 343 488 308 L 490 308 L 561 290 Q 597 281 618 253 Q 639 226 640 189 L 640 104 Q 640 87 628 76 Q 617 64 600 64 L 544 64 L 528 64 L 512 64 L 487 64 Q 458 64 434 48 L 396 23 Q 362 0 320 0 Q 278 0 244 23 L 207 48 Q 182 64 153 64 L 153 64 Z M 40 80 L 96 80 L 96 96 L 96 160 Q 97 232 136 288 L 83 274 Q 53 266 35 243 Q 16 220 16 189 L 16 104 Q 18 82 40 80 L 40 80 Z M 557 274 L 504 288 Q 543 232 544 160 L 544 96 L 544 80 L 600 80 Q 622 82 624 104 L 624 189 Q 624 220 605 243 Q 587 266 557 274 L 557 274 Z M 208 128 Q 201 129 200 136 Q 201 143 208 144 L 432 144 Q 439 143 440 136 Q 439 129 432 128 L 208 128 L 208 128 Z M 200 200 Q 201 207 208 208 L 432 208 Q 439 207 440 200 Q 439 193 432 192 L 208 192 Q 201 193 200 200 L 200 200 Z M 240 256 Q 233 257 232 264 Q 233 271 240 272 L 400 272 Q 407 271 408 264 Q 407 257 400 256 L 240 256 L 240 256 Z"/>
</svg>
