<svg xmlns="http://www.w3.org/2000/svg" viewBox="0 0 512 512">
  <path d="M 261.97665369649803 3.9844357976653697 Q 256 0 250.02334630350194 3.9844357976653697 L 138.4591439688716 115.54863813229572 L 138.4591439688716 115.54863813229572 Q 134.47470817120623 121.52529182879377 138.4591439688716 127.50194552529183 Q 144.43579766536965 131.4863813229572 150.4124513618677 127.50194552529183 L 248.03112840466926 28.88715953307393 L 248.03112840466926 28.88715953307393 L 248.03112840466926 328.715953307393 L 248.03112840466926 328.715953307393 Q 249.0272373540856 335.6887159533074 256 336.68482490272373 Q 262.9727626459144 335.6887159533074 263.9688715953307 328.715953307393 L 263.9688715953307 28.88715953307393 L 263.9688715953307 28.88715953307393 L 361.5875486381323 127.50194552529183 L 361.5875486381323 127.50194552529183 Q 367.56420233463035 131.4863813229572 373.5408560311284 127.50194552529183 Q 377.5252918287938 121.52529182879377 373.5408560311284 115.54863813229572 L 261.97665369649803 3.9844357976653697 L 261.97665369649803 3.9844357976653697 Z M 56.778210116731515 33.86770428015564 Q 32.8715953307393 34.86381322957198 16.93385214007782 49.80544747081712 L 16.93385214007782 49.80544747081712 L 16.93385214007782 49.80544747081712 Q 1.9922178988326849 65.7431906614786 0.9961089494163424 89.64980544747081 L 0.9961089494163424 456.21789883268485 L 0.9961089494163424 456.21789883268485 Q 1.9922178988326849 480.12451361867704 16.93385214007782 496.0622568093385 Q 32.8715953307393 511.00389105058366 56.778210116731515 512 L 455.22178988326846 512 L 455.22178988326846 512 Q 479.1284046692607 511.00389105058366 495.0661478599222 496.0622568093385 Q 510.0077821011673 480.12451361867704 511.00389105058366 456.21789883268485 L 511.00389105058366 89.64980544747081 L 511.00389105058366 89.64980544747081 Q 510.0077821011673 65.7431906614786 495.0661478599222 49.80544747081712 Q 479.1284046692607 34.86381322957198 455.22178988326846 33.86770428015564 L 407.408560311284 33.86770428015564 L 407.408560311284 33.86770428015564 Q 400.43579766536965 34.86381322957198 399.4396887159533 41.83657587548638 Q 400.43579766536965 48.809338521400775 407.408560311284 49.80544747081712 L 455.22178988326846 49.80544747081712 L 455.22178988326846 49.80544747081712 Q 472.15564202334633 49.80544747081712 483.11284046692606 61.75875486381323 Q 495.0661478599222 72.715953307393 495.0661478599222 89.64980544747081 L 495.0661478599222 456.21789883268485 L 495.0661478599222 456.21789883268485 Q 495.0661478599222 473.15175097276267 483.11284046692606 484.1089494163424 Q 472.15564202334633 496.0622568093385 455.22178988326846 496.0622568093385 L 56.778210116731515 496.0622568093385 L 56.778210116731515 496.0622568093385 Q 39.8443579766537 496.0622568093385 28.88715953307393 484.1089494163424 Q 16.93385214007782 473.15175097276267 16.93385214007782 456.21789883268485 L 16.93385214007782 89.64980544747081 L 16.93385214007782 89.64980544747081 Q 16.93385214007782 72.715953307393 28.88715953307393 61.75875486381323 Q 39.8443579766537 49.80544747081712 56.778210116731515 49.80544747081712 L 104.59143968871595 49.80544747081712 L 104.59143968871595 49.80544747081712 Q 111.56420233463035 48.809338521400775 112.56031128404669 41.83657587548638 Q 111.56420233463035 34.86381322957198 104.59143968871595 33.86770428015564 L 56.778210116731515 33.86770428015564 L 56.778210116731515 33.86770428015564 Z" />
</svg>