<svg xmlns="http://www.w3.org/2000/svg" viewBox="0 0 512 512">
  <path d="M 408 16 Q 430 18 432 40 L 432 88 L 432 88 Q 430 110 408 112 L 104 112 L 104 112 Q 82 110 80 88 L 80 40 L 80 40 Q 82 18 104 16 L 408 16 L 408 16 Z M 104 0 Q 87 0 76 12 L 76 12 L 76 12 Q 64 23 64 40 L 64 88 L 64 88 Q 64 105 76 116 Q 87 128 104 128 L 408 128 L 408 128 Q 425 128 436 116 Q 448 105 448 88 L 448 40 L 448 40 Q 448 23 436 12 Q 425 0 408 0 L 104 0 L 104 0 Z M 96 408 L 96 448 L 96 408 L 96 448 Q 97 475 115 493 Q 133 511 160 512 L 352 512 L 352 512 Q 379 511 397 493 Q 415 475 416 448 L 416 160 L 416 160 L 400 160 L 400 160 L 400 448 L 400 448 Q 399 468 386 482 Q 372 495 352 496 L 160 496 L 160 496 Q 140 495 126 482 Q 113 468 112 448 L 112 416 L 112 416 L 216 416 L 216 416 Q 223 415 224 408 Q 223 401 216 400 L 112 400 L 112 400 L 112 320 L 112 320 L 216 320 L 216 320 Q 223 319 224 312 Q 223 305 216 304 L 112 304 L 112 304 L 112 224 L 112 224 L 216 224 L 216 224 Q 223 223 224 216 Q 223 209 216 208 L 112 208 L 112 208 L 112 160 L 112 160 L 96 160 L 96 160 L 96 216 L 96 216 L 96 312 L 96 312 L 96 408 L 96 408 Z" />
</svg>