<svg xmlns="http://www.w3.org/2000/svg" viewBox="0 0 512 512">
  <path d="M 327.1111 42.666668 Q 366.22223 43.555557 397.33334 62.22222 L 397.33334 62.22222 L 397.33334 62.22222 Q 428.44446 81.77778 449.77777 108.44444 Q 471.1111 135.11111 484.44446 169.77777 Q 497.77777 203.55556 497.77777 241.77777 Q 496.8889 293.33334 469.33334 335.1111 Q 441.77777 376.8889 402.66666 404.44446 Q 363.55554 433.77777 314.66666 451.55554 Q 265.77777 469.33334 213.33333 469.33334 Q 189.33333 469.33334 160 465.77777 Q 130.66667 462.22223 102.22222 453.33334 Q 75.55556 445.33334 46.22222 420.44446 Q 16.88889 396.44446 14.222222 348.44446 Q 16 304 47.11111 280.8889 Q 71.111115 263.1111 100.44444 248.88889 Q 102.22222 248 104 247.11111 Q 105.77778 246.22223 107.55556 245.33333 Q 141.33333 230.22223 173.33333 201.77777 Q 183.11111 191.11111 189.33333 178.66667 Q 195.55556 167.11111 201.77777 151.11111 Q 202.66667 151.11111 202.66667 151.11111 L 202.66667 150.22223 L 202.66667 150.22223 Q 207.11111 139.55556 212.44444 126.22222 Q 217.77777 114.666664 225.77777 99.55556 Q 234.66667 85.333336 248.88889 72 Q 280.8889 42.666668 327.1111 42.666668 L 327.1111 42.666668 Z M 327.1111 28.444445 Q 275.55554 28.444445 239.11111 61.333332 Q 223.11111 76.44444 214.22223 92.44444 Q 204.44444 108.44444 200 120.888885 Q 194.66667 131.55556 191.11111 140.44444 Q 190.22223 142.22223 189.33333 144.88889 Q 189.33333 144.88889 189.33333 144.88889 Q 183.11111 160.88889 177.77777 171.55556 Q 171.55556 182.22223 162.66667 191.11111 Q 142.22223 211.55556 118.22222 224 Q 105.77778 230.22223 94.22222 236.44444 Q 64.888885 249.77777 37.333332 270.22223 Q 2.6666667 296.8889 0 348.44446 Q 0.8888889 385.77777 17.777779 409.77777 Q 35.555557 433.77777 57.77778 447.1111 Q 80.888885 461.33334 97.77778 466.66666 Q 127.111115 476.44446 158.22223 480 Q 188.44444 483.55554 213.33333 483.55554 Q 268.44446 482.66666 319.1111 464.8889 Q 370.66666 446.22223 411.55554 416 Q 451.55554 386.66666 480.8889 342.22223 Q 510.22223 297.77777 512 241.77777 Q 512 200.88889 497.77777 164.44444 Q 483.55554 128 461.33334 99.55556 Q 439.1111 71.111115 404.44446 50.666668 Q 370.66666 29.333334 327.1111 28.444445 L 327.1111 28.444445 Z M 341.33334 248.88889 Q 321.77777 247.11111 320 227.55556 Q 321.77777 208 341.33334 206.22223 Q 360.8889 208 362.66666 227.55556 Q 360.8889 247.11111 341.33334 248.88889 L 341.33334 248.88889 Z M 305.77777 227.55556 Q 306.66666 248 323.55554 258.66666 Q 341.33334 267.55554 359.1111 258.66666 Q 376 248 376.8889 227.55556 Q 376 207.11111 359.1111 196.44444 Q 341.33334 187.55556 323.55554 196.44444 Q 306.66666 207.11111 305.77777 227.55556 L 305.77777 227.55556 Z M 108.44444 309.33334 L 108.44444 309.33334 L 108.44444 309.33334 L 108.44444 309.33334 L 106.666664 310.22223 L 106.666664 310.22223 L 106.666664 310.22223 L 106.666664 310.22223 Q 87.111115 317.33334 75.55556 326.22223 Q 70.22222 330.66666 66.666664 337.77777 Q 64 344.8889 64 352.8889 Q 64 372.44446 78.22222 384.8889 Q 92.44444 398.22223 115.55556 405.33334 Q 137.77777 413.33334 163.55556 416 Q 189.33333 419.55554 211.55556 419.55554 Q 255.11111 419.55554 296.8889 404.44446 Q 339.55554 389.33334 373.33334 363.55554 Q 407.1111 337.77777 427.55554 306.66666 Q 447.1111 274.66666 448 240.88889 Q 448 213.33333 438.22223 186.66667 Q 427.55554 160 411.55554 138.66667 Q 394.66666 117.333336 373.33334 104.888885 Q 352 92.44444 329.77777 92.44444 Q 303.1111 93.333336 288.8889 107.55556 Q 274.66666 121.77778 265.77777 144 Q 264 148.44444 262.22223 152 Q 260.44446 156.44444 259.55554 160.88889 L 259.55554 160.88889 L 259.55554 160.88889 L 259.55554 160.88889 L 259.55554 160.88889 Q 251.55556 180.44444 240.88889 201.77777 Q 230.22223 223.11111 212.44444 241.77777 Q 181.33333 271.1111 154.66667 286.22223 Q 128 301.33334 108.44444 309.33334 Q 108.44444 309.33334 108.44444 309.33334 L 108.44444 309.33334 Z M 222.22223 251.55556 Q 241.77777 231.11111 253.33333 208.88889 L 253.33333 208.88889 L 253.33333 208.88889 Q 264.8889 185.77777 272 166.22223 Q 273.77777 163.55556 274.66666 160 Q 276.44446 154.66667 279.1111 150.22223 Q 288 128 298.66666 117.333336 Q 308.44446 107.55556 329.77777 106.666664 Q 367.1111 107.55556 400 147.55556 Q 432 188.44444 433.77777 240.88889 Q 433.77777 270.22223 415.1111 298.66666 Q 397.33334 328 364.44446 352 Q 332.44446 376.8889 292.44446 391.1111 Q 252.44444 405.33334 211.55556 405.33334 Q 189.33333 405.33334 165.33333 402.66666 Q 141.33333 399.1111 120 392 Q 77.333336 376.8889 78.22222 352.8889 Q 78.22222 341.33334 84.44444 337.77777 Q 92.44444 331.55554 112.888885 322.66666 L 113.77778 322.66666 L 113.77778 322.66666 Q 113.77778 322.66666 113.77778 322.66666 Q 134.22223 314.66666 162.66667 298.66666 Q 190.22223 282.66666 222.22223 251.55556 L 222.22223 251.55556 Z" />
</svg>