<svg xmlns="http://www.w3.org/2000/svg" viewBox="0 0 643 448">
    <path d="M 480 16 Q 395 18 337 73 L 337 73 Q 279 127 272 211 Q 265 209 257 208 Q 265 119 327 61 Q 389 2 480 0 Q 489 0 499 1 Q 510 2 513 13 Q 515 24 505 31 Q 465 54 440 94 Q 416 134 416 184 Q 418 259 467 308 Q 517 358 591 360 Q 607 360 621 357 Q 633 356 638 366 Q 643 376 635 385 Q 573 446 480 448 Q 434 448 394 431 Q 354 414 323 384 Q 329 378 333 372 Q 392 430 480 432 Q 566 430 624 373 Q 608 376 591 376 Q 510 374 456 320 Q 402 266 400 184 Q 400 130 427 86 Q 453 42 497 17 Q 488 16 479 16 L 480 16 Z M 80 265 Q 80 269 77 271 Q 74 273 71 273 Q 68 272 64 272 Q 44 273 30 286 Q 16 300 16 320 Q 16 340 30 354 Q 44 367 64 368 L 248 368 Q 272 367 288 352 Q 303 336 304 312 Q 303 288 288 272 Q 272 257 248 256 Q 232 256 219 264 Q 215 266 211 265 Q 208 263 207 259 Q 202 237 185 223 Q 168 209 144 208 Q 119 209 101 225 Q 83 241 80 265 L 80 265 Z M 144 192 Q 171 192 191 207 L 191 207 Q 211 222 220 246 Q 233 240 248 240 Q 279 241 299 261 Q 319 281 320 312 Q 319 343 299 363 Q 279 383 248 384 L 64 384 Q 37 383 19 365 Q 1 347 0 320 Q 1 293 19 275 Q 37 257 64 256 Q 64 256 65 256 Q 65 256 66 256 Q 72 228 93 210 Q 114 193 144 192 L 144 192 Z"/>
</svg>
