<svg xmlns="http://www.w3.org/2000/svg" viewBox="0 0 512 512">
  <path d="M 351 21 Q 360 17 368 23 L 368 23 L 368 23 Q 376 28 376 38 Q 376 45 372 50 L 330 99 L 330 99 Q 327 102 328 106 Q 330 111 334 112 L 341 113 L 341 113 Q 394 128 422 175 L 484 288 L 484 288 Q 496 310 493 333 Q 491 356 475 375 Q 452 399 419 400 L 410 400 L 410 400 Q 372 399 348 370 L 314 327 L 314 327 Q 305 318 295 325 Q 267 345 236 343 Q 204 340 180 316 L 150 283 L 150 283 Q 144 278 139 282 Q 134 287 138 293 L 168 326 L 168 326 Q 203 362 251 359 L 289 429 L 289 429 Q 296 442 296 456 Q 295 473 284 484 Q 273 495 256 496 L 56 496 L 56 496 Q 39 495 28 484 Q 16 473 16 456 L 16 316 L 16 316 Q 17 236 61 173 Q 105 110 180 82 L 351 21 L 351 21 Z M 303 422 L 267 356 L 303 422 L 267 356 Q 286 351 303 339 L 335 380 L 335 380 Q 365 415 410 416 L 419 416 L 419 416 Q 459 415 487 385 Q 506 363 509 335 Q 512 307 498 281 L 436 168 L 436 168 Q 406 117 350 100 L 384 61 L 384 61 Q 392 51 392 38 Q 391 19 377 10 Q 363 0 345 5 L 174 67 L 174 67 Q 95 97 48 164 Q 1 231 0 316 L 0 456 L 0 456 Q 1 480 16 496 Q 32 511 56 512 L 256 512 L 256 512 Q 280 511 296 496 Q 311 480 312 456 Q 312 438 303 422 L 303 422 Z M 352 208 Q 351 223 336 224 Q 321 223 320 208 Q 321 193 336 192 Q 351 193 352 208 L 352 208 Z M 336 176 Q 322 176 313 185 L 313 185 L 313 185 Q 304 194 304 208 Q 304 222 313 231 Q 322 240 336 240 Q 350 240 359 231 Q 368 222 368 208 Q 368 194 359 185 Q 350 176 336 176 L 336 176 Z" />
</svg>