<svg xmlns="http://www.w3.org/2000/svg" viewBox="0 0 512 512">
  <path d="M 17.655172413793103 105.93103448275862 Q 18.75862068965517 155.58620689655172 61.793103448275865 182.06896551724137 Q 105.93103448275862 206.3448275862069 150.06896551724137 182.06896551724137 Q 193.10344827586206 155.58620689655172 194.20689655172413 105.93103448275862 Q 193.10344827586206 56.275862068965516 150.06896551724137 29.79310344827586 Q 105.93103448275862 5.517241379310345 61.793103448275865 29.79310344827586 Q 18.75862068965517 56.275862068965516 17.655172413793103 105.93103448275862 L 17.655172413793103 105.93103448275862 Z M 105.93103448275862 211.86206896551724 Q 77.24137931034483 211.86206896551724 52.96551724137931 197.51724137931035 L 52.96551724137931 197.51724137931035 L 52.96551724137931 197.51724137931035 Q 28.689655172413794 183.17241379310346 14.344827586206897 158.89655172413794 Q 0 133.51724137931035 0 105.93103448275862 Q 0 78.34482758620689 14.344827586206897 52.96551724137931 Q 28.689655172413794 28.689655172413794 52.96551724137931 14.344827586206897 Q 77.24137931034483 0 105.93103448275862 0 Q 134.6206896551724 0 158.89655172413794 14.344827586206897 Q 183.17241379310346 28.689655172413794 197.51724137931035 52.96551724137931 Q 211.86206896551724 78.34482758620689 211.86206896551724 105.93103448275862 Q 211.86206896551724 133.51724137931035 197.51724137931035 158.89655172413794 Q 183.17241379310346 183.17241379310346 158.89655172413794 197.51724137931035 Q 134.6206896551724 211.86206896551724 105.93103448275862 211.86206896551724 L 105.93103448275862 211.86206896551724 Z M 17.655172413793103 388.41379310344826 Q 18.75862068965517 438.0689655172414 61.793103448275865 464.55172413793105 Q 105.93103448275862 488.82758620689657 150.06896551724137 464.55172413793105 Q 193.10344827586206 438.0689655172414 194.20689655172413 388.41379310344826 Q 193.10344827586206 338.7586206896552 150.06896551724137 312.2758620689655 Q 105.93103448275862 288 61.793103448275865 312.2758620689655 Q 18.75862068965517 338.7586206896552 17.655172413793103 388.41379310344826 L 17.655172413793103 388.41379310344826 Z M 105.93103448275862 494.3448275862069 Q 77.24137931034483 494.3448275862069 52.96551724137931 480 L 52.96551724137931 480 L 52.96551724137931 480 Q 28.689655172413794 465.6551724137931 14.344827586206897 441.37931034482756 Q 0 416 0 388.41379310344826 Q 0 360.82758620689657 14.344827586206897 335.44827586206895 Q 28.689655172413794 311.17241379310343 52.96551724137931 296.82758620689657 Q 77.24137931034483 282.48275862068965 105.93103448275862 282.48275862068965 Q 134.6206896551724 282.48275862068965 158.89655172413794 296.82758620689657 Q 183.17241379310346 311.17241379310343 197.51724137931035 335.44827586206895 Q 211.86206896551724 360.82758620689657 211.86206896551724 388.41379310344826 Q 211.86206896551724 416 197.51724137931035 441.37931034482756 Q 183.17241379310346 465.6551724137931 158.89655172413794 480 Q 134.6206896551724 494.3448275862069 105.93103448275862 494.3448275862069 L 105.93103448275862 494.3448275862069 Z M 388.41379310344826 194.20689655172413 Q 438.0689655172414 193.10344827586206 464.55172413793105 150.06896551724137 Q 488.82758620689657 105.93103448275862 464.55172413793105 61.793103448275865 Q 438.0689655172414 18.75862068965517 388.41379310344826 17.655172413793103 Q 338.7586206896552 18.75862068965517 312.2758620689655 61.793103448275865 Q 288 105.93103448275862 312.2758620689655 150.06896551724137 Q 338.7586206896552 193.10344827586206 388.41379310344826 194.20689655172413 L 388.41379310344826 194.20689655172413 Z M 494.3448275862069 105.93103448275862 Q 494.3448275862069 134.6206896551724 480 158.89655172413794 L 480 158.89655172413794 L 480 158.89655172413794 Q 465.6551724137931 183.17241379310346 441.37931034482756 197.51724137931035 Q 416 211.86206896551724 388.41379310344826 211.86206896551724 Q 360.82758620689657 211.86206896551724 335.44827586206895 197.51724137931035 Q 311.17241379310343 183.17241379310346 296.82758620689657 158.89655172413794 Q 282.48275862068965 134.6206896551724 282.48275862068965 105.93103448275862 Q 282.48275862068965 77.24137931034483 296.82758620689657 52.96551724137931 Q 311.17241379310343 28.689655172413794 335.44827586206895 14.344827586206897 Q 360.82758620689657 0 388.41379310344826 0 Q 416 0 441.37931034482756 14.344827586206897 Q 465.6551724137931 28.689655172413794 480 52.96551724137931 Q 494.3448275862069 77.24137931034483 494.3448275862069 105.93103448275862 L 494.3448275862069 105.93103448275862 Z M 388.41379310344826 264.82758620689657 Q 396.13793103448273 265.9310344827586 397.2413793103448 273.6551724137931 L 397.2413793103448 379.58620689655174 L 397.2413793103448 379.58620689655174 L 503.17241379310343 379.58620689655174 L 503.17241379310343 379.58620689655174 Q 510.8965517241379 380.6896551724138 512 388.41379310344826 Q 510.8965517241379 396.13793103448273 503.17241379310343 397.2413793103448 L 397.2413793103448 397.2413793103448 L 397.2413793103448 397.2413793103448 L 397.2413793103448 503.17241379310343 L 397.2413793103448 503.17241379310343 Q 396.13793103448273 510.8965517241379 388.41379310344826 512 Q 380.6896551724138 510.8965517241379 379.58620689655174 503.17241379310343 L 379.58620689655174 397.2413793103448 L 379.58620689655174 397.2413793103448 L 273.6551724137931 397.2413793103448 L 273.6551724137931 397.2413793103448 Q 265.9310344827586 396.13793103448273 264.82758620689657 388.41379310344826 Q 265.9310344827586 380.6896551724138 273.6551724137931 379.58620689655174 L 379.58620689655174 379.58620689655174 L 379.58620689655174 379.58620689655174 L 379.58620689655174 273.6551724137931 L 379.58620689655174 273.6551724137931 Q 380.6896551724138 265.9310344827586 388.41379310344826 264.82758620689657 L 388.41379310344826 264.82758620689657 Z" />
</svg>