<svg xmlns="http://www.w3.org/2000/svg" viewBox="0 0 512 512">
  <path d="M 348.3197 16.966862 Q 409.20078 16.966862 453.11502 58.88499 Q 495.03314 102.79922 495.03314 163.68031 Q 495.03314 201.60623 479.06433 238.53412 Q 463.09552 275.46198 433.154 306.40155 Q 376.2651 360.2963 306.40155 367.28265 Q 236.53801 374.269 185.63742 326.36258 Q 143.7193 282.44833 143.7193 221.56725 Q 143.7193 183.64133 159.68811 146.71346 Q 175.65692 109.785576 205.59843 78.846 Q 236.53801 48.904484 273.46588 32.935673 Q 310.39377 16.966862 348.3197 16.966862 L 348.3197 16.966862 Z M 348.3197 0.9980507 Q 307.3996 0.9980507 267.47757 17.964912 L 267.47757 17.964912 L 267.47757 17.964912 Q 227.55556 34.931774 194.61989 67.86745 Q 161.6842 100.803116 144.71735 140.72514 Q 127.75049 180.64717 127.75049 221.56725 Q 127.75049 283.44638 168.67056 332.3509 L 136.73294 364.2885 L 136.73294 364.2885 L 126.75243 353.30994 L 126.75243 353.30994 Q 116.77193 344.32748 103.79727 344.32748 Q 90.82261 344.32748 80.8421 353.30994 L 8.982456 425.1696 L 8.982456 425.1696 Q 0 435.1501 0 448.12476 Q 0 461.09943 8.982456 471.07993 L 40.92008 503.01755 L 40.92008 503.01755 Q 50.900585 512 63.875244 512 Q 76.8499 512 86.83041 503.01755 L 158.69006 431.1579 L 158.69006 431.1579 Q 167.67252 421.1774 167.67252 408.20273 Q 167.67252 395.22806 158.69006 385.24756 L 147.7115 375.26706 L 147.7115 375.26706 L 179.64912 343.32944 L 179.64912 343.32944 Q 237.53606 392.23392 311.3918 383.25146 Q 386.2456 374.269 444.13257 317.38013 Q 477.06824 284.44446 494.0351 244.52242 Q 511.00195 204.60039 511.00195 163.68031 Q 512 96.81091 464.09357 46.908382 Q 415.1891 0 348.3197 0.9980507 L 348.3197 0.9980507 Z M 92.81871 365.28656 Q 103.79727 355.30603 114.775826 365.28656 L 146.71346 397.22418 L 146.71346 397.22418 Q 156.69395 408.20273 146.71346 419.18127 L 74.8538 491.04092 L 74.8538 491.04092 Q 63.875244 501.02145 52.896687 491.04092 L 20.959064 459.1033 L 20.959064 459.1033 Q 10.978558 448.12476 20.959064 437.1462 L 92.81871 365.28656 L 92.81871 365.28656 Z" />
</svg>