<svg xmlns="http://www.w3.org/2000/svg" viewBox="0 0 644 516">
    <path d="M 530 514 L 510 498 L 266 498 Q 244 496 242 474 L 242 418 L 226 418 L 226 474 Q 226 491 238 502 Q 249 514 266 514 L 530 514 L 530 514 Z M 562 294 L 562 356 L 578 368 L 578 194 Q 577 114 547 60 Q 532 34 511 18 Q 491 2 466 2 L 178 2 Q 154 2 134 18 L 147 28 Q 162 18 178 18 L 421 18 Q 400 34 386 60 Q 356 113 354 192 L 370 205 Q 370 199 370 194 Q 371 118 399 68 Q 428 19 466 18 Q 504 19 533 68 Q 561 118 562 194 Q 561 270 533 320 Q 530 325 528 329 L 540 338 Q 543 333 547 328 Q 555 312 562 293 L 562 294 Z M 66 194 Q 67 274 98 328 Q 112 354 133 370 Q 153 386 178 386 L 368 386 L 348 370 L 178 370 Q 140 369 111 320 Q 83 270 82 194 Q 82 177 84 162 L 69 150 Q 66 171 66 194 L 66 194 Z M 487 257 Q 494 250 498 240 Q 506 220 506 194 Q 506 168 498 148 Q 494 138 487 131 Q 479 123 466 122 Q 453 123 445 131 Q 438 138 434 148 Q 426 168 426 194 Q 426 220 434 240 Q 438 250 445 257 Q 453 265 466 266 Q 479 265 487 257 L 487 257 Z M 466 250 Q 456 249 449 234 L 449 234 Q 442 218 442 194 Q 442 170 449 154 Q 456 139 466 138 Q 476 139 483 154 Q 490 170 490 194 Q 490 218 483 234 Q 476 249 466 250 L 466 250 Z M 15 4 Q 9 0 4 5 Q 0 11 5 16 L 629 512 Q 635 516 640 511 Q 644 505 639 500 L 15 4 L 15 4 Z"/>
</svg>
