<svg xmlns="http://www.w3.org/2000/svg" viewBox="0 0 512 512">
  <path d="M 109.71429 201.14285 Q 161.14285 200 188.57143 155.42857 Q 213.71428 109.71429 188.57143 64 Q 161.14285 19.428572 109.71429 18.285715 Q 58.285713 19.428572 30.857143 64 Q 5.714286 109.71429 30.857143 155.42857 Q 58.285713 200 109.71429 201.14285 L 109.71429 201.14285 Z M 219.42857 109.71429 Q 219.42857 139.42857 204.57143 164.57143 L 204.57143 164.57143 L 204.57143 164.57143 Q 189.71428 189.71428 164.57143 204.57143 Q 138.28572 219.42857 109.71429 219.42857 Q 81.14286 219.42857 54.857143 204.57143 Q 29.714285 189.71428 14.857142 164.57143 Q 0 139.42857 0 109.71429 Q 0 80 14.857142 54.857143 Q 29.714285 29.714285 54.857143 14.857142 Q 81.14286 0 109.71429 0 Q 138.28572 0 164.57143 14.857142 Q 189.71428 29.714285 204.57143 54.857143 Q 219.42857 80 219.42857 109.71429 L 219.42857 109.71429 Z M 109.71429 493.7143 Q 161.14285 492.57144 188.57143 448 Q 213.71428 402.2857 188.57143 356.57144 Q 161.14285 312 109.71429 310.85715 Q 58.285713 312 30.857143 356.57144 Q 5.714286 402.2857 30.857143 448 Q 58.285713 492.57144 109.71429 493.7143 L 109.71429 493.7143 Z M 219.42857 402.2857 Q 219.42857 432 204.57143 457.14285 L 204.57143 457.14285 L 204.57143 457.14285 Q 189.71428 482.2857 164.57143 497.14285 Q 138.28572 512 109.71429 512 Q 81.14286 512 54.857143 497.14285 Q 29.714285 482.2857 14.857142 457.14285 Q 0 432 0 402.2857 Q 0 372.57144 14.857142 347.42856 Q 29.714285 322.2857 54.857143 307.42856 Q 81.14286 292.57144 109.71429 292.57144 Q 138.28572 292.57144 164.57143 307.42856 Q 189.71428 322.2857 204.57143 347.42856 Q 219.42857 372.57144 219.42857 402.2857 L 219.42857 402.2857 Z M 310.85715 109.71429 Q 312 161.14285 356.57144 188.57143 Q 402.2857 213.71428 448 188.57143 Q 492.57144 161.14285 493.7143 109.71429 Q 492.57144 58.285713 448 30.857143 Q 402.2857 5.714286 356.57144 30.857143 Q 312 58.285713 310.85715 109.71429 L 310.85715 109.71429 Z M 402.2857 219.42857 Q 372.57144 219.42857 347.42856 204.57143 L 347.42856 204.57143 L 347.42856 204.57143 Q 322.2857 189.71428 307.42856 164.57143 Q 292.57144 138.28572 292.57144 109.71429 Q 292.57144 81.14286 307.42856 54.857143 Q 322.2857 29.714285 347.42856 14.857142 Q 372.57144 0 402.2857 0 Q 432 0 457.14285 14.857142 Q 482.2857 29.714285 497.14285 54.857143 Q 512 81.14286 512 109.71429 Q 512 138.28572 497.14285 164.57143 Q 482.2857 189.71428 457.14285 204.57143 Q 432 219.42857 402.2857 219.42857 L 402.2857 219.42857 Z M 402.2857 493.7143 Q 453.7143 492.57144 481.14285 448 Q 506.2857 402.2857 481.14285 356.57144 Q 453.7143 312 402.2857 310.85715 Q 350.85715 312 323.42856 356.57144 Q 298.2857 402.2857 323.42856 448 Q 350.85715 492.57144 402.2857 493.7143 L 402.2857 493.7143 Z M 512 402.2857 Q 512 432 497.14285 457.14285 L 497.14285 457.14285 L 497.14285 457.14285 Q 482.2857 482.2857 457.14285 497.14285 Q 430.85715 512 402.2857 512 Q 373.7143 512 347.42856 497.14285 Q 322.2857 482.2857 307.42856 457.14285 Q 292.57144 432 292.57144 402.2857 Q 292.57144 372.57144 307.42856 347.42856 Q 322.2857 322.2857 347.42856 307.42856 Q 373.7143 292.57144 402.2857 292.57144 Q 430.85715 292.57144 457.14285 307.42856 Q 482.2857 322.2857 497.14285 347.42856 Q 512 372.57144 512 402.2857 L 512 402.2857 Z" />
</svg>