<svg xmlns="http://www.w3.org/2000/svg" viewBox="0 0 512 512">
  <path d="M 18.123893805309734 249.20353982300884 Q 13.5929203539823 256 18.123893805309734 262.79646017699116 L 262.79646017699116 507.46902654867256 L 262.79646017699116 507.46902654867256 Q 269.5929203539823 512 276.3893805309734 507.46902654867256 Q 280.92035398230087 500.6725663716814 276.3893805309734 493.87610619469024 L 37.38053097345133 256 L 37.38053097345133 256 L 276.3893805309734 18.123893805309734 L 276.3893805309734 18.123893805309734 Q 280.92035398230087 11.327433628318584 276.3893805309734 4.530973451327434 Q 269.5929203539823 0 262.79646017699116 4.530973451327434 L 18.123893805309734 249.20353982300884 L 18.123893805309734 249.20353982300884 Z M 480.283185840708 4.530973451327434 L 235.61061946902655 249.20353982300884 L 480.283185840708 4.530973451327434 L 235.61061946902655 249.20353982300884 Q 231.0796460176991 256 235.61061946902655 262.79646017699116 L 480.283185840708 507.46902654867256 L 480.283185840708 507.46902654867256 Q 487.07964601769913 512 493.87610619469024 507.46902654867256 Q 498.4070796460177 500.6725663716814 493.87610619469024 493.87610619469024 L 254.86725663716814 256 L 254.86725663716814 256 L 493.87610619469024 18.123893805309734 L 493.87610619469024 18.123893805309734 Q 498.4070796460177 11.327433628318584 493.87610619469024 4.530973451327434 Q 487.07964601769913 0 480.283185840708 4.530973451327434 L 480.283185840708 4.530973451327434 Z" />
</svg>