<svg xmlns="http://www.w3.org/2000/svg" viewBox="0 0 450 512">
    <path d="M 130 52 Q 130 37 141 27 L 141 27 Q 151 16 166 16 Q 181 16 191 27 Q 202 37 202 52 L 202 192 Q 202 197 206 199 Q 210 201 214 199 Q 225 192 238 192 Q 268 194 280 221 Q 281 225 285 226 Q 289 227 292 225 Q 303 216 318 216 Q 350 218 360 247 Q 361 251 365 252 Q 368 254 371 252 Q 380 248 390 248 Q 409 248 421 261 Q 434 273 434 292 L 434 320 L 434 408 Q 433 445 408 470 Q 383 495 346 496 L 274 496 L 258 496 L 209 496 Q 147 495 108 447 L 25 340 Q 17 329 18 316 Q 20 303 30 295 Q 41 287 54 288 Q 67 290 75 300 L 116 352 Q 119 357 125 355 Q 130 353 130 347 L 130 52 L 130 52 Z M 166 0 Q 144 1 129 15 L 129 15 Q 115 30 114 52 L 114 324 L 88 291 Q 75 275 56 272 Q 37 270 21 282 Q 5 295 2 314 Q 0 333 12 350 L 95 456 Q 116 483 146 497 Q 175 512 209 512 L 258 512 L 274 512 L 346 512 Q 390 511 420 482 Q 449 452 450 408 L 450 320 L 450 292 Q 449 267 432 250 Q 415 233 390 232 Q 381 232 372 235 Q 356 202 318 200 Q 303 200 290 207 Q 273 178 238 176 Q 227 176 218 179 L 218 52 Q 217 30 203 15 Q 188 1 166 0 L 166 0 Z M 226 312 Q 225 305 218 304 Q 211 305 210 312 L 210 424 Q 211 431 218 432 Q 225 431 226 424 L 226 312 L 226 312 Z M 290 312 Q 289 305 282 304 Q 275 305 274 312 L 274 424 Q 275 431 282 432 Q 289 431 290 424 L 290 312 L 290 312 Z M 354 312 Q 353 305 346 304 Q 339 305 338 312 L 338 424 Q 339 431 346 432 Q 353 431 354 424 L 354 312 L 354 312 Z"/>
</svg>
