<svg xmlns="http://www.w3.org/2000/svg" viewBox="0 0 512 512">
  <path d="M 168 462 Q 171 469 175 477 L 154 493 L 154 493 Q 128 512 96 512 Q 55 511 28 484 Q 1 457 0 416 Q 1 369 38 339 L 102 291 L 102 291 Q 127 272 128 240 L 128 112 L 128 112 L 128 104 L 128 104 L 128 96 L 128 96 L 128 48 L 128 48 Q 129 28 142 14 Q 156 1 176 0 L 272 0 L 272 0 Q 287 0 299 8 Q 295 15 292 23 Q 284 16 272 16 L 176 16 L 176 16 Q 162 16 153 25 Q 144 34 144 48 L 144 96 L 144 96 L 288 96 L 288 96 L 288 112 L 288 112 L 144 112 L 144 112 L 144 240 L 144 240 Q 143 280 112 304 L 48 352 L 48 352 Q 17 376 16 416 Q 17 450 39 473 Q 62 495 96 496 Q 123 496 144 480 L 168 462 L 168 462 Z M 336 112 L 336 240 L 336 112 L 336 240 Q 335 280 304 304 L 240 352 L 240 352 Q 209 376 208 416 Q 209 450 231 473 Q 254 495 288 496 Q 315 496 336 480 L 451 394 L 451 394 Q 495 359 496 304 L 496 112 L 496 112 L 336 112 L 336 112 Z M 336 96 L 496 96 L 336 96 L 496 96 L 496 48 L 496 48 Q 496 34 487 25 Q 478 16 464 16 L 368 16 L 368 16 Q 354 16 345 25 Q 336 34 336 48 L 336 96 L 336 96 Z M 512 48 L 512 96 L 512 48 L 512 96 L 512 104 L 512 104 L 512 112 L 512 112 L 512 304 L 512 304 Q 511 367 461 406 L 346 493 L 346 493 Q 320 512 288 512 Q 247 511 220 484 Q 193 457 192 416 Q 193 369 230 339 L 294 291 L 294 291 Q 319 272 320 240 L 320 112 L 320 112 L 320 104 L 320 104 L 320 96 L 320 96 L 320 48 L 320 48 Q 321 28 334 14 Q 348 1 368 0 L 464 0 L 464 0 Q 484 1 498 14 Q 511 28 512 48 L 512 48 Z" />
</svg>