<svg xmlns="http://www.w3.org/2000/svg" viewBox="0 0 448 513">
    <path d="M 222 17 L 62 53 Q 58 54 56 59 Q 55 63 58 67 L 88 96 Q 90 98 90 102 L 90 129 Q 101 137 126 146 Q 151 156 195 160 Q 180 144 174 125 Q 168 107 168 92 Q 168 87 173 85 L 221 66 Q 224 64 227 66 L 275 85 Q 280 87 280 92 Q 280 107 274 125 Q 268 144 253 160 Q 297 156 322 146 Q 347 137 358 129 L 358 102 Q 358 98 360 96 L 389 67 Q 392 63 391 59 Q 390 54 385 53 L 226 17 Q 224 17 222 17 L 222 17 Z M 222 177 Q 162 176 129 164 L 129 164 Q 96 153 81 142 Q 74 137 74 129 L 74 105 L 47 78 Q 38 68 41 54 Q 45 41 59 38 L 219 2 Q 224 0 229 2 L 389 38 Q 402 41 407 54 Q 410 68 401 78 L 374 105 L 374 129 Q 374 137 367 142 Q 352 153 319 164 Q 285 176 226 177 Q 224 177 222 177 L 222 177 Z M 128 353 L 198 446 L 215 417 L 178 366 Q 175 362 177 357 Q 179 353 184 353 L 264 353 Q 269 353 271 357 Q 273 362 271 366 L 234 417 L 251 446 L 320 353 Q 375 357 411 394 Q 447 432 448 487 Q 446 511 422 513 L 26 513 Q 2 511 0 487 Q 1 432 37 394 Q 73 357 128 353 L 128 353 Z M 214 468 L 224 481 L 234 468 L 240 460 L 224 433 L 208 460 L 214 468 L 214 468 Z M 237 491 L 232 497 L 422 497 Q 431 496 432 487 Q 431 441 402 408 Q 373 376 327 370 L 237 491 L 237 491 Z M 211 491 L 121 370 Q 75 376 46 408 Q 17 441 16 487 Q 17 496 26 497 L 216 497 L 211 491 L 211 491 Z M 96 193 Q 96 189 96 184 Q 104 188 112 191 Q 112 192 112 192 Q 112 192 112 193 Q 113 241 145 272 Q 176 304 224 305 Q 272 304 303 272 Q 335 241 336 193 Q 336 192 336 192 Q 336 192 336 191 Q 345 188 352 184 Q 352 189 352 193 Q 351 247 315 284 Q 278 320 224 321 Q 170 320 133 284 Q 97 247 96 193 L 96 193 Z M 224 160 Q 245 149 254 132 L 254 132 Q 263 114 264 98 L 224 82 L 184 98 Q 185 114 194 132 Q 203 149 224 160 L 224 160 Z M 224 403 L 249 369 L 200 369 L 224 403 L 224 403 Z"/>
</svg>
