<svg xmlns="http://www.w3.org/2000/svg" viewBox="0 0 464 512">
    <path d="M 232 0 Q 239 1 240 8 L 240 80 L 392 80 Q 399 81 400 88 Q 399 95 392 96 L 240 96 L 240 176 L 456 176 Q 463 177 464 184 Q 463 191 456 192 L 240 192 L 240 272 L 360 272 Q 367 273 368 280 Q 367 287 360 288 L 240 288 L 240 366 Q 240 366 240 366 Q 241 366 241 366 L 335 339 Q 344 336 354 336 Q 384 337 404 357 Q 423 376 424 406 L 424 411 Q 424 440 405 462 L 378 492 Q 360 512 333 512 L 131 512 Q 104 512 86 492 L 59 461 Q 40 440 40 411 L 40 406 Q 41 376 61 356 Q 80 337 110 336 Q 120 336 130 339 L 223 365 Q 224 365 224 365 Q 224 366 224 366 L 224 288 L 104 288 Q 97 287 96 280 Q 97 273 104 272 L 224 272 L 224 192 L 8 192 Q 1 191 0 184 Q 1 177 8 176 L 224 176 L 224 96 L 72 96 Q 65 95 64 88 Q 65 81 72 80 L 224 80 L 224 8 Q 225 1 232 0 L 232 0 Z M 232 384 Q 229 384 227 383 Q 223 382 219 381 L 125 354 Q 118 352 110 352 Q 87 353 72 368 Q 57 383 56 406 L 56 411 Q 56 434 71 451 L 98 481 Q 111 496 131 496 L 333 496 Q 353 496 366 481 L 393 451 Q 408 434 408 411 L 408 406 Q 407 383 392 368 Q 377 353 354 352 Q 346 352 339 354 L 245 381 Q 241 382 237 382 Q 235 384 232 384 L 232 384 Z M 144 432 Q 145 447 160 448 Q 175 447 176 432 Q 175 417 160 416 Q 145 417 144 432 L 144 432 Z M 160 464 Q 146 464 137 455 L 137 455 Q 128 446 128 432 Q 128 418 137 409 Q 146 400 160 400 Q 174 400 183 409 Q 192 418 192 432 Q 192 446 183 455 Q 174 464 160 464 L 160 464 Z M 296 432 Q 297 447 312 448 Q 327 447 328 432 Q 327 417 312 416 Q 297 417 296 432 L 296 432 Z M 312 464 Q 298 464 289 455 L 289 455 Q 280 446 280 432 Q 280 418 289 409 Q 298 400 312 400 Q 326 400 335 409 Q 344 418 344 432 Q 344 446 335 455 Q 326 464 312 464 L 312 464 Z"/>
</svg>
