<svg xmlns="http://www.w3.org/2000/svg" viewBox="0 0 512 512">
  <path d="M 341.3333333333333 56.888888888888886 L 56.888888888888886 56.888888888888886 L 341.3333333333333 56.888888888888886 L 56.888888888888886 56.888888888888886 Q 39.111111111111114 57.77777777777778 26.666666666666668 69.33333333333333 Q 15.11111111111111 81.77777777777777 14.222222222222221 99.55555555555556 L 14.222222222222221 384 L 14.222222222222221 384 Q 15.11111111111111 401.77777777777777 26.666666666666668 414.22222222222223 Q 39.111111111111114 425.77777777777777 56.888888888888886 426.6666666666667 L 284.44444444444446 426.6666666666667 L 284.44444444444446 426.6666666666667 L 284.44444444444446 440.8888888888889 L 284.44444444444446 440.8888888888889 L 56.888888888888886 440.8888888888889 L 56.888888888888886 440.8888888888889 Q 32.888888888888886 440 16.88888888888889 424 Q 0.8888888888888888 408 0 384 L 0 99.55555555555556 L 0 99.55555555555556 Q 0.8888888888888888 75.55555555555556 16.88888888888889 59.55555555555556 Q 32.888888888888886 43.55555555555556 56.888888888888886 42.666666666666664 L 341.3333333333333 42.666666666666664 L 341.3333333333333 42.666666666666664 Q 365.3333333333333 43.55555555555556 381.3333333333333 59.55555555555556 Q 397.3333333333333 75.55555555555556 398.22222222222223 99.55555555555556 L 398.22222222222223 157.33333333333334 L 398.22222222222223 157.33333333333334 Q 391.1111111111111 159.11111111111111 384 160.88888888888889 L 384 99.55555555555556 L 384 99.55555555555556 Q 383.1111111111111 81.77777777777777 371.55555555555554 69.33333333333333 Q 359.1111111111111 57.77777777777778 341.3333333333333 56.888888888888886 L 341.3333333333333 56.888888888888886 Z M 327.1111111111111 241.77777777777777 L 327.1111111111111 272 L 327.1111111111111 241.77777777777777 L 327.1111111111111 272 Q 319.1111111111111 273.77777777777777 312.8888888888889 278.22222222222223 L 312.8888888888889 135.11111111111111 L 312.8888888888889 135.11111111111111 Q 312 128.88888888888889 305.77777777777777 128 L 213.33333333333334 128 L 213.33333333333334 128 Q 207.11111111111111 128.88888888888889 206.22222222222223 135.11111111111111 L 206.22222222222223 207.11111111111111 L 206.22222222222223 207.11111111111111 Q 232.88888888888889 214.22222222222223 234.66666666666666 241.77777777777777 Q 234.66666666666666 256.8888888888889 224 266.6666666666667 Q 214.22222222222223 277.3333333333333 199.11111111111111 277.3333333333333 Q 184 277.3333333333333 174.22222222222223 266.6666666666667 Q 163.55555555555554 256.8888888888889 163.55555555555554 241.77777777777777 Q 165.33333333333334 214.22222222222223 192 207.11111111111111 L 192 135.11111111111111 L 192 135.11111111111111 Q 193.77777777777777 115.55555555555556 213.33333333333334 113.77777777777777 L 305.77777777777777 113.77777777777777 L 305.77777777777777 113.77777777777777 Q 325.3333333333333 115.55555555555556 327.1111111111111 135.11111111111111 L 327.1111111111111 241.77777777777777 L 327.1111111111111 241.77777777777777 Z M 284.44444444444446 369.77777777777777 L 92.44444444444444 369.77777777777777 L 284.44444444444446 369.77777777777777 L 92.44444444444444 369.77777777777777 Q 72.88888888888889 368 71.11111111111111 348.44444444444446 L 71.11111111111111 135.11111111111111 L 71.11111111111111 135.11111111111111 Q 72.88888888888889 115.55555555555556 92.44444444444444 113.77777777777777 L 135.11111111111111 113.77777777777777 L 135.11111111111111 113.77777777777777 Q 141.33333333333334 114.66666666666667 142.22222222222223 120.88888888888889 Q 141.33333333333334 127.11111111111111 135.11111111111111 128 L 92.44444444444444 128 L 92.44444444444444 128 Q 86.22222222222223 128.88888888888889 85.33333333333333 135.11111111111111 L 85.33333333333333 348.44444444444446 L 85.33333333333333 348.44444444444446 Q 86.22222222222223 354.6666666666667 92.44444444444444 355.55555555555554 L 284.44444444444446 355.55555555555554 L 284.44444444444446 355.55555555555554 L 284.44444444444446 369.77777777777777 L 284.44444444444446 369.77777777777777 Z M 199.11111111111111 220.44444444444446 Q 179.55555555555554 222.22222222222223 177.77777777777777 241.77777777777777 Q 179.55555555555554 261.3333333333333 199.11111111111111 263.1111111111111 Q 218.66666666666666 261.3333333333333 220.44444444444446 241.77777777777777 Q 218.66666666666666 222.22222222222223 199.11111111111111 220.44444444444446 L 199.11111111111111 220.44444444444446 Z M 412.44444444444446 199.11111111111111 Q 394.6666666666667 200 382.22222222222223 211.55555555555554 L 382.22222222222223 211.55555555555554 L 382.22222222222223 211.55555555555554 Q 370.6666666666667 224 369.77777777777777 241.77777777777777 L 369.77777777777777 298.6666666666667 L 369.77777777777777 298.6666666666667 L 455.1111111111111 298.6666666666667 L 455.1111111111111 298.6666666666667 L 455.1111111111111 241.77777777777777 L 455.1111111111111 241.77777777777777 Q 454.22222222222223 224 442.6666666666667 211.55555555555554 Q 430.22222222222223 200 412.44444444444446 199.11111111111111 L 412.44444444444446 199.11111111111111 Z M 355.55555555555554 241.77777777777777 Q 356.44444444444446 217.77777777777777 372.44444444444446 201.77777777777777 L 372.44444444444446 201.77777777777777 L 372.44444444444446 201.77777777777777 Q 388.44444444444446 185.77777777777777 412.44444444444446 184.88888888888889 Q 436.44444444444446 185.77777777777777 452.44444444444446 201.77777777777777 Q 468.44444444444446 217.77777777777777 469.3333333333333 241.77777777777777 L 469.3333333333333 298.6666666666667 L 469.3333333333333 298.6666666666667 L 483.55555555555554 298.6666666666667 L 483.55555555555554 298.6666666666667 Q 496 298.6666666666667 504 306.6666666666667 Q 512 314.6666666666667 512 327.1111111111111 L 512 440.8888888888889 L 512 440.8888888888889 Q 512 453.3333333333333 504 461.3333333333333 Q 496 469.3333333333333 483.55555555555554 469.3333333333333 L 341.3333333333333 469.3333333333333 L 341.3333333333333 469.3333333333333 Q 328.8888888888889 469.3333333333333 320.8888888888889 461.3333333333333 Q 312.8888888888889 453.3333333333333 312.8888888888889 440.8888888888889 L 312.8888888888889 327.1111111111111 L 312.8888888888889 327.1111111111111 Q 312.8888888888889 314.6666666666667 320.8888888888889 306.6666666666667 Q 328.8888888888889 298.6666666666667 341.3333333333333 298.6666666666667 L 355.55555555555554 298.6666666666667 L 355.55555555555554 298.6666666666667 L 355.55555555555554 241.77777777777777 L 355.55555555555554 241.77777777777777 Z M 341.3333333333333 312.8888888888889 Q 328 313.77777777777777 327.1111111111111 327.1111111111111 L 327.1111111111111 440.8888888888889 L 327.1111111111111 440.8888888888889 Q 328 454.22222222222223 341.3333333333333 455.1111111111111 L 483.55555555555554 455.1111111111111 L 483.55555555555554 455.1111111111111 Q 496.8888888888889 454.22222222222223 497.77777777777777 440.8888888888889 L 497.77777777777777 327.1111111111111 L 497.77777777777777 327.1111111111111 Q 496.8888888888889 313.77777777777777 483.55555555555554 312.8888888888889 L 469.3333333333333 312.8888888888889 L 341.3333333333333 312.8888888888889 Z" />
</svg>