<svg xmlns="http://www.w3.org/2000/svg" viewBox="0 0 515 512">
    <path d="M 42 16 L 105 16 Q 128 16 144 32 L 368 256 L 267 256 Q 258 256 249 258 L 73 304 L 19 45 Q 17 33 24 25 Q 31 16 42 16 L 42 16 Z M 3 48 L 58 308 L 54 309 Q 31 315 17 333 Q 3 350 3 374 Q 3 396 15 413 Q 27 430 48 438 L 246 508 Q 258 512 270 512 L 507 512 Q 514 511 515 504 Q 514 497 507 496 L 270 496 Q 260 496 251 493 L 53 423 Q 21 409 19 374 Q 19 356 30 343 Q 40 329 58 324 L 253 274 Q 260 272 267 272 L 507 272 Q 514 271 515 264 Q 514 257 507 256 L 390 256 L 385 250 L 155 21 Q 134 0 105 0 L 42 0 Q 23 1 11 15 Q 0 29 3 48 L 3 48 Z M 203 368 Q 196 369 195 376 Q 196 383 203 384 L 379 384 Q 386 383 387 376 Q 386 369 379 368 L 203 368 L 203 368 Z"/>
</svg>
