<svg xmlns="http://www.w3.org/2000/svg" viewBox="0 0 512 512">
  <path d="M 426.66666 71.111115 L 85.333336 71.111115 L 426.66666 71.111115 L 85.333336 71.111115 Q 55.11111 72 34.666668 91.55556 Q 15.111111 112 14.222222 142.22223 L 14.222222 312.8889 L 14.222222 312.8889 Q 15.111111 343.1111 34.666668 363.55554 Q 55.11111 383.1111 85.333336 384 L 104.888885 384 L 104.888885 384 L 102.22222 386.66666 L 102.22222 386.66666 Q 96.888885 392 93.333336 398.22223 L 85.333336 398.22223 L 85.333336 398.22223 Q 48.88889 397.33334 24.88889 373.33334 Q 0.8888889 349.33334 0 312.8889 L 0 142.22223 L 0 142.22223 Q 0.8888889 105.77778 24.88889 81.77778 Q 48.88889 57.77778 85.333336 56.88889 L 426.66666 56.88889 L 426.66666 56.88889 Q 463.1111 57.77778 487.1111 81.77778 Q 511.1111 105.77778 512 142.22223 L 512 312.8889 L 512 312.8889 Q 511.1111 349.33334 487.1111 373.33334 Q 463.1111 397.33334 426.66666 398.22223 L 418.66666 398.22223 L 418.66666 398.22223 Q 415.1111 392 409.77777 386.66666 L 407.1111 384 L 407.1111 384 L 426.66666 384 L 426.66666 384 Q 456.8889 383.1111 477.33334 363.55554 Q 496.8889 343.1111 497.77777 312.8889 L 497.77777 142.22223 L 497.77777 142.22223 Q 496.8889 112 477.33334 91.55556 Q 456.8889 72 426.66666 71.111115 L 426.66666 71.111115 Z M 131.55556 422.22223 Q 128 424.8889 128 429.33334 Q 128.88889 440 139.55556 440.8889 L 372.44446 440.8889 L 372.44446 440.8889 Q 383.1111 440 384 429.33334 Q 384 424.8889 381.33334 422.22223 L 269.33334 304.8889 L 269.33334 304.8889 Q 264 298.66666 256 298.66666 Q 248 298.66666 242.66667 304.8889 L 131.55556 422.22223 L 131.55556 422.22223 Z M 120.888885 412.44446 L 232 295.1111 L 120.888885 412.44446 L 232 295.1111 Q 241.77777 284.44446 256 284.44446 Q 270.22223 284.44446 280 295.1111 L 391.1111 412.44446 L 391.1111 412.44446 Q 398.22223 419.55554 398.22223 429.33334 Q 398.22223 440.8889 391.1111 448 Q 384 455.1111 372.44446 455.1111 L 139.55556 455.1111 L 139.55556 455.1111 Q 128 455.1111 120.888885 448 Q 113.77778 440.8889 113.77778 429.33334 Q 113.77778 419.55554 120.888885 412.44446 L 120.888885 412.44446 Z" />
</svg>