<svg xmlns="http://www.w3.org/2000/svg" viewBox="0 0 512 512">
  <path d="M 109.32384341637011 54.661921708185055 Q 103.85765124555161 51.01779359430605 98.39145907473309 54.661921708185055 L 3.6441281138790034 149.40925266903915 L 3.6441281138790034 149.40925266903915 Q 0 154.87544483985766 3.6441281138790034 160.34163701067615 Q 9.11032028469751 163.98576512455517 14.576512455516013 160.34163701067615 L 96.5693950177936 77.43772241992883 L 96.5693950177936 77.43772241992883 L 96.5693950177936 453.69395017793596 L 96.5693950177936 453.69395017793596 Q 97.48042704626334 460.0711743772242 103.85765124555161 460.98220640569394 Q 110.23487544483986 460.0711743772242 111.1459074733096 453.69395017793596 L 111.1459074733096 77.43772241992883 L 111.1459074733096 77.43772241992883 L 193.1387900355872 160.34163701067615 L 193.1387900355872 160.34163701067615 Q 198.60498220640568 163.98576512455517 204.0711743772242 160.34163701067615 Q 207.71530249110322 154.87544483985766 204.0711743772242 149.40925266903915 L 109.32384341637011 54.661921708185055 L 109.32384341637011 54.661921708185055 Z M 256.9110320284698 446.4056939501779 L 329.79359430604984 446.4056939501779 L 256.9110320284698 446.4056939501779 L 329.79359430604984 446.4056939501779 Q 336.1708185053381 445.4946619217082 337.0818505338078 439.11743772241994 Q 336.1708185053381 432.7402135231317 329.79359430604984 431.8291814946619 L 256.9110320284698 431.8291814946619 L 256.9110320284698 431.8291814946619 Q 250.53380782918148 432.7402135231317 249.62277580071174 439.11743772241994 Q 250.53380782918148 445.4946619217082 256.9110320284698 446.4056939501779 L 256.9110320284698 446.4056939501779 Z M 256.9110320284698 315.2170818505338 L 388.0996441281139 315.2170818505338 L 256.9110320284698 315.2170818505338 L 388.0996441281139 315.2170818505338 Q 394.47686832740214 314.30604982206404 395.38790035587186 307.9288256227758 Q 394.47686832740214 301.55160142348757 388.0996441281139 300.6405693950178 L 256.9110320284698 300.6405693950178 L 256.9110320284698 300.6405693950178 Q 250.53380782918148 301.55160142348757 249.62277580071174 307.9288256227758 Q 250.53380782918148 314.30604982206404 256.9110320284698 315.2170818505338 L 256.9110320284698 315.2170818505338 Z M 256.9110320284698 198.60498220640568 L 446.4056939501779 198.60498220640568 L 256.9110320284698 198.60498220640568 L 446.4056939501779 198.60498220640568 Q 452.7829181494662 197.69395017793593 453.69395017793596 191.3167259786477 Q 452.7829181494662 184.93950177935943 446.4056939501779 184.02846975088968 L 256.9110320284698 184.02846975088968 L 256.9110320284698 184.02846975088968 Q 250.53380782918148 184.93950177935943 249.62277580071174 191.3167259786477 Q 250.53380782918148 197.69395017793593 256.9110320284698 198.60498220640568 L 256.9110320284698 198.60498220640568 Z M 256.9110320284698 81.99288256227759 L 504.711743772242 81.99288256227759 L 256.9110320284698 81.99288256227759 L 504.711743772242 81.99288256227759 Q 511.0889679715302 81.08185053380782 512 74.70462633451957 Q 511.0889679715302 68.32740213523131 504.711743772242 67.41637010676156 L 256.9110320284698 67.41637010676156 L 256.9110320284698 67.41637010676156 Q 250.53380782918148 68.32740213523131 249.62277580071174 74.70462633451957 Q 250.53380782918148 81.08185053380782 256.9110320284698 81.99288256227759 L 256.9110320284698 81.99288256227759 Z" />
</svg>