<svg xmlns="http://www.w3.org/2000/svg" viewBox="0 0 512 512">
  <path d="M 136 0 Q 143 1 144 8 L 144 25 L 144 25 Q 145 67 180 89 Q 222 116 224 167 L 224 184 L 224 184 Q 223 191 216 192 Q 209 191 208 184 L 208 167 L 208 167 Q 207 125 172 103 Q 130 76 128 25 L 128 8 L 128 8 Q 129 1 136 0 L 136 0 Z M 136 459 Q 143 463 145 470 Q 151 494 176 496 L 336 496 L 336 496 Q 361 494 367 470 Q 369 463 376 459 Q 426 434 457 389 Q 488 343 493 284 L 494 257 L 494 257 Q 493 242 478 240 L 34 240 L 34 240 Q 19 242 18 257 L 20 284 L 20 284 Q 24 343 55 389 Q 86 434 136 459 L 136 459 Z M 2 258 Q 2 244 11 234 L 11 234 L 11 234 Q 20 224 34 224 L 478 224 L 478 224 Q 492 224 501 234 Q 510 244 510 258 L 508 285 L 508 285 Q 504 348 470 398 Q 437 447 383 473 Q 380 490 367 501 Q 354 512 336 512 L 176 512 L 176 512 Q 158 512 145 501 Q 132 490 129 473 Q 75 447 42 398 Q 8 348 4 285 L 2 258 L 2 258 Z M 272 8 L 272 25 L 272 8 L 272 25 Q 273 67 308 89 Q 350 116 352 167 L 352 184 L 352 184 Q 351 191 344 192 Q 337 191 336 184 L 336 167 L 336 167 Q 335 125 300 103 Q 258 76 256 25 L 256 8 L 256 8 Q 257 1 264 0 Q 271 1 272 8 L 272 8 Z" />
</svg>