<svg xmlns="http://www.w3.org/2000/svg" viewBox="0 0 512 512">
  <path d="M 137.68068 493.7143 L 258.15128 373.24368 L 137.68068 493.7143 L 258.15128 373.24368 Q 262.4538 366.78992 258.15128 360.33612 Q 251.69748 356.0336 245.2437 360.33612 L 139.83194 466.82352 L 139.83194 466.82352 L 139.83194 22.588236 L 139.83194 22.588236 Q 138.7563 15.058824 131.2269 13.983193 Q 123.69748 15.058824 122.62185 22.588236 L 122.62185 466.82352 L 122.62185 466.82352 L 17.210085 360.33612 L 17.210085 360.33612 Q 10.756303 356.0336 4.302521 360.33612 Q 0 366.78992 4.302521 373.24368 L 124.77311 493.7143 L 124.77311 493.7143 Q 131.2269 498.0168 137.68068 493.7143 L 137.68068 493.7143 Z M 320.5378 297.9496 Q 321.61343 305.479 329.14285 306.55463 L 465.7479 306.55463 L 465.7479 306.55463 L 322.6891 481.88235 L 322.6891 481.88235 Q 319.4622 486.18488 321.61343 490.4874 Q 323.7647 495.86554 329.14285 495.86554 L 484.0336 495.86554 L 484.0336 495.86554 Q 491.56302 494.78992 492.63864 487.2605 Q 491.56302 479.73108 484.0336 478.65546 L 347.42856 478.65546 L 347.42856 478.65546 L 490.4874 303.32773 L 490.4874 303.32773 Q 493.7143 299.0252 491.56302 294.7227 Q 489.41177 289.34454 484.0336 289.34454 L 329.14285 289.34454 L 329.14285 289.34454 Q 321.61343 290.42017 320.5378 297.9496 L 320.5378 297.9496 Z M 406.58823 13.983193 Q 401.21008 13.983193 399.05884 18.285715 L 330.21848 155.96638 L 330.21848 155.96638 L 330.21848 157.04202 L 330.21848 157.04202 L 304.40335 207.59663 L 304.40335 207.59663 Q 301.17648 215.12605 308.70587 219.42857 Q 315.15967 222.65546 319.4622 216.20168 L 343.12604 168.87395 L 343.12604 168.87395 L 470.0504 168.87395 L 470.0504 168.87395 L 493.7143 216.20168 L 493.7143 216.20168 Q 498.0168 222.65546 505.5462 219.42857 Q 512 215.12605 508.7731 208.67227 L 482.95798 157.04202 L 482.95798 157.04202 L 482.95798 155.96638 L 482.95798 155.96638 L 414.11765 18.285715 L 414.11765 18.285715 Q 411.9664 13.983193 406.58823 13.983193 L 406.58823 13.983193 Z M 406.58823 41.94958 L 461.44537 151.66386 L 406.58823 41.94958 L 461.44537 151.66386 L 351.73108 151.66386 L 351.73108 151.66386 L 406.58823 41.94958 L 406.58823 41.94958 Z" />
</svg>