<svg xmlns="http://www.w3.org/2000/svg" viewBox="0 0 512 512">
  <path d="M 416 176 Q 415 228 388 267 Q 382 275 376 283 Q 375 285 373 287 Q 372 288 372 289 Q 353 314 337 342 Q 326 362 323 384 L 339 384 L 339 384 Q 342 366 351 350 Q 366 323 385 298 Q 385 298 385 298 L 385 298 L 385 298 L 385 298 L 385 298 L 385 298 L 385 298 Q 393 287 401 276 Q 431 233 432 176 Q 430 101 380 52 Q 331 2 256 0 Q 181 2 132 52 Q 82 101 80 176 Q 81 233 111 276 Q 119 287 127 297 Q 127 298 127 298 L 127 298 L 127 298 L 127 298 L 127 298 L 127 298 L 127 298 Q 146 323 161 349 Q 170 366 173 384 L 189 384 L 189 384 Q 186 362 175 342 Q 159 313 139 287 L 139 287 L 139 287 L 139 287 L 139 287 Q 137 285 136 283 Q 130 275 125 267 Q 97 228 96 176 Q 98 108 143 63 Q 188 18 256 16 Q 324 18 369 63 Q 414 108 416 176 L 416 176 Z M 192 432 L 320 432 L 192 432 L 320 432 Q 319 459 301 477 Q 283 495 256 496 Q 229 495 211 477 Q 193 459 192 432 L 192 432 Z M 176 432 Q 177 466 199 489 L 199 489 L 199 489 Q 222 511 256 512 Q 290 511 313 489 Q 335 466 336 432 L 336 427 L 336 427 Q 335 417 325 416 L 187 416 L 187 416 Q 177 417 176 427 L 176 432 L 176 432 Z M 264 96 Q 263 89 256 88 Q 249 89 248 96 L 248 112 L 248 112 Q 235 113 225 118 Q 205 127 201 147 Q 199 159 203 169 Q 208 178 216 183 Q 232 193 252 198 Q 252 198 252 198 L 254 199 L 254 199 Q 275 204 287 212 Q 292 216 295 221 Q 297 226 296 235 Q 294 247 281 252 Q 267 258 245 255 Q 233 252 218 247 Q 217 247 216 247 L 216 247 L 216 247 L 216 247 L 216 247 L 216 247 L 216 247 Q 215 246 214 246 Q 212 245 211 245 Q 204 243 201 250 Q 199 257 206 260 Q 207 260 208 260 Q 209 261 211 262 L 211 262 L 211 262 L 211 262 L 211 262 Q 211 262 211 262 Q 228 268 243 271 L 243 271 L 243 271 Q 245 271 248 272 Q 248 272 248 272 L 248 288 L 248 288 Q 249 295 256 296 Q 263 295 264 288 L 264 272 L 264 272 Q 277 271 287 267 Q 307 259 311 237 Q 314 224 309 215 Q 305 205 296 199 Q 279 188 259 183 L 258 183 L 258 183 L 258 183 L 258 183 L 258 183 L 258 183 Q 238 178 225 170 Q 220 166 218 162 Q 215 158 217 150 Q 218 139 232 133 Q 246 126 267 129 Q 271 130 279 131 Q 286 133 290 134 Q 297 135 300 128 Q 301 121 294 118 Q 290 117 282 116 Q 274 114 270 113 Q 267 113 265 113 Q 264 113 264 113 L 264 96 L 264 96 Z" />
</svg>