<svg xmlns="http://www.w3.org/2000/svg" viewBox="0 0 512 512">
  <path d="M 56.88889 42.666668 Q 39.11111 43.555557 26.666666 55.11111 L 26.666666 55.11111 L 26.666666 55.11111 Q 15.111111 67.55556 14.222222 85.333336 L 14.222222 170.66667 L 14.222222 170.66667 Q 15.111111 188.44444 26.666666 200.88889 Q 39.11111 212.44444 56.88889 213.33333 L 455.1111 213.33333 L 455.1111 213.33333 Q 472.8889 212.44444 485.33334 200.88889 Q 496.8889 188.44444 497.77777 170.66667 L 497.77777 85.333336 L 497.77777 85.333336 Q 496.8889 67.55556 485.33334 55.11111 Q 472.8889 43.555557 455.1111 42.666668 L 56.88889 42.666668 L 56.88889 42.666668 Z M 0 85.333336 Q 0.8888889 61.333332 16.88889 45.333332 L 16.88889 45.333332 L 16.88889 45.333332 Q 32.88889 29.333334 56.88889 28.444445 L 455.1111 28.444445 L 455.1111 28.444445 Q 479.1111 29.333334 495.1111 45.333332 Q 511.1111 61.333332 512 85.333336 L 512 170.66667 L 512 170.66667 Q 511.1111 194.66667 495.1111 210.66667 Q 479.1111 226.66667 455.1111 227.55556 L 56.88889 227.55556 L 56.88889 227.55556 Q 32.88889 226.66667 16.88889 210.66667 Q 0.8888889 194.66667 0 170.66667 L 0 85.333336 L 0 85.333336 Z M 227.55556 405.33334 Q 226.66667 438.22223 204.44444 460.44446 L 204.44444 460.44446 L 204.44444 460.44446 Q 182.22223 482.66666 149.33333 483.55554 Q 116.44444 482.66666 94.22222 460.44446 Q 72 438.22223 71.111115 405.33334 Q 72.888885 365.33334 102.22222 343.1111 Q 108.44444 339.55554 112.888885 344 Q 115.55556 349.33334 111.111115 353.77777 Q 86.22222 372.44446 85.333336 405.33334 Q 86.22222 432.8889 104 450.66666 Q 121.77778 468.44446 149.33333 469.33334 Q 176.88889 468.44446 194.66667 450.66666 Q 212.44444 432.8889 213.33333 405.33334 L 213.33333 256 L 213.33333 256 L 227.55556 256 L 227.55556 256 L 227.55556 405.33334 L 227.55556 405.33334 Z M 284.44446 256 L 298.66666 256 L 284.44446 256 L 298.66666 256 L 298.66666 376.8889 L 298.66666 376.8889 Q 299.55554 404.44446 317.33334 422.22223 Q 335.1111 440 362.66666 440.8889 Q 390.22223 440 408 422.22223 Q 425.77777 404.44446 426.66666 376.8889 Q 425.77777 344 400.8889 325.33334 Q 396.44446 320.8889 400 315.55554 Q 404.44446 311.1111 409.77777 314.66666 Q 439.1111 336.8889 440.8889 376.8889 Q 440 409.77777 417.77777 432 Q 395.55554 454.22223 362.66666 455.1111 Q 329.77777 454.22223 307.55554 432 Q 285.33334 409.77777 284.44446 376.8889 L 284.44446 256 L 284.44446 256 Z M 92.44444 142.22223 L 419.55554 142.22223 L 92.44444 142.22223 L 419.55554 142.22223 Q 425.77777 143.11111 426.66666 149.33333 Q 425.77777 155.55556 419.55554 156.44444 L 92.44444 156.44444 L 92.44444 156.44444 Q 86.22222 155.55556 85.333336 149.33333 Q 86.22222 143.11111 92.44444 142.22223 L 92.44444 142.22223 Z" />
</svg>