<svg xmlns="http://www.w3.org/2000/svg" viewBox="0 0 512 512">
  <path d="M 409.6 89.6 L 409.6 320 L 409.6 89.6 L 409.6 320 L 499.2 320 L 499.2 320 L 499.2 128 L 499.2 128 Q 498.4 112 488 100.8 Q 476.8 90.4 460.8 89.6 L 409.6 89.6 L 409.6 89.6 Z M 396.8 89.6 L 307.2 89.6 L 396.8 89.6 L 307.2 89.6 L 307.2 204.8 L 307.2 204.8 L 396.8 204.8 L 396.8 204.8 L 396.8 89.6 L 396.8 89.6 Z M 294.4 89.6 L 217.6 89.6 L 294.4 89.6 L 217.6 89.6 L 217.6 320 L 217.6 320 L 294.4 320 L 294.4 320 L 294.4 89.6 L 294.4 89.6 Z M 204.8 89.6 L 115.2 89.6 L 204.8 89.6 L 115.2 89.6 L 115.2 204.8 L 115.2 204.8 L 204.8 204.8 L 204.8 204.8 L 204.8 89.6 L 204.8 89.6 Z M 102.4 89.6 L 51.2 89.6 L 102.4 89.6 L 51.2 89.6 Q 35.2 90.4 24 100.8 Q 13.6 112 12.8 128 L 12.8 320 L 12.8 320 L 102.4 320 L 102.4 320 L 102.4 89.6 L 102.4 89.6 Z M 12.8 332.8 L 12.8 384 L 12.8 332.8 L 12.8 384 Q 13.6 400 24 411.2 Q 35.2 421.6 51.2 422.4 L 249.6 422.4 L 249.6 422.4 L 249.6 332.8 L 249.6 332.8 L 12.8 332.8 L 12.8 332.8 Z M 262.4 422.4 L 460.8 422.4 L 262.4 422.4 L 460.8 422.4 Q 476.8 421.6 488 411.2 Q 498.4 400 499.2 384 L 499.2 332.8 L 499.2 332.8 L 262.4 332.8 L 262.4 332.8 L 262.4 422.4 L 262.4 422.4 Z M 0 128 Q 0.8 106.4 15.2 92 L 15.2 92 L 15.2 92 Q 29.6 77.6 51.2 76.8 L 460.8 76.8 L 460.8 76.8 Q 482.4 77.6 496.8 92 Q 511.2 106.4 512 128 L 512 384 L 512 384 Q 511.2 405.6 496.8 420 Q 482.4 434.4 460.8 435.2 L 51.2 435.2 L 51.2 435.2 Q 29.6 434.4 15.2 420 Q 0.8 405.6 0 384 L 0 128 L 0 128 Z M 204.8 320 L 204.8 217.6 L 204.8 320 L 204.8 217.6 L 115.2 217.6 L 115.2 217.6 L 115.2 320 L 115.2 320 L 204.8 320 L 204.8 320 Z M 396.8 217.6 L 307.2 217.6 L 396.8 217.6 L 307.2 217.6 L 307.2 320 L 307.2 320 L 396.8 320 L 396.8 320 L 396.8 217.6 L 396.8 217.6 Z" />
</svg>