<svg xmlns="http://www.w3.org/2000/svg" viewBox="0 0 384 512">
    <path d="M 64 16 Q 44 17 30 30 L 30 30 Q 17 44 16 64 L 16 448 Q 17 468 30 482 Q 44 495 64 496 L 320 496 Q 340 495 354 482 Q 367 468 368 448 L 368 64 Q 367 44 354 30 Q 340 17 320 16 L 64 16 L 64 16 Z M 0 64 Q 1 37 19 19 L 19 19 Q 37 1 64 0 L 320 0 Q 347 1 365 19 Q 383 37 384 64 L 384 448 Q 383 475 365 493 Q 347 511 320 512 L 64 512 Q 37 511 19 493 Q 1 475 0 448 L 0 64 L 0 64 Z M 203 149 L 299 245 Q 309 256 299 267 L 203 363 Q 192 373 181 363 L 85 267 Q 75 256 85 245 L 181 149 Q 192 139 203 149 L 203 149 Z M 96 256 L 107 267 L 181 341 L 192 352 L 203 341 L 277 267 L 288 256 L 277 245 L 203 171 L 192 160 L 181 171 L 107 245 L 96 256 L 96 256 Z"/>
</svg>
