<svg xmlns="http://www.w3.org/2000/svg" viewBox="0 0 512 512">
  <path d="M 73.14285714285714 18.285714285714285 Q 50.285714285714285 19.428571428571427 34.285714285714285 34.285714285714285 L 34.285714285714285 34.285714285714285 L 34.285714285714285 34.285714285714285 Q 19.428571428571427 50.285714285714285 18.285714285714285 73.14285714285714 L 18.285714285714285 438.85714285714283 L 18.285714285714285 438.85714285714283 Q 19.428571428571427 461.7142857142857 34.285714285714285 477.7142857142857 Q 50.285714285714285 492.57142857142856 73.14285714285714 493.7142857142857 L 438.85714285714283 493.7142857142857 L 438.85714285714283 493.7142857142857 Q 461.7142857142857 492.57142857142856 477.7142857142857 477.7142857142857 Q 492.57142857142856 461.7142857142857 493.7142857142857 438.85714285714283 L 493.7142857142857 73.14285714285714 L 493.7142857142857 73.14285714285714 Q 492.57142857142856 50.285714285714285 477.7142857142857 34.285714285714285 Q 461.7142857142857 19.428571428571427 438.85714285714283 18.285714285714285 L 73.14285714285714 18.285714285714285 L 73.14285714285714 18.285714285714285 Z M 0 73.14285714285714 Q 1.1428571428571428 42.285714285714285 21.714285714285715 21.714285714285715 L 21.714285714285715 21.714285714285715 L 21.714285714285715 21.714285714285715 Q 42.285714285714285 1.1428571428571428 73.14285714285714 0 L 438.85714285714283 0 L 438.85714285714283 0 Q 469.7142857142857 1.1428571428571428 490.2857142857143 21.714285714285715 Q 510.85714285714283 42.285714285714285 512 73.14285714285714 L 512 438.85714285714283 L 512 438.85714285714283 Q 510.85714285714283 469.7142857142857 490.2857142857143 490.2857142857143 Q 469.7142857142857 510.85714285714283 438.85714285714283 512 L 73.14285714285714 512 L 73.14285714285714 512 Q 42.285714285714285 510.85714285714283 21.714285714285715 490.2857142857143 Q 1.1428571428571428 469.7142857142857 0 438.85714285714283 L 0 73.14285714285714 L 0 73.14285714285714 Z M 128 256 Q 128 290.2857142857143 145.14285714285714 320 L 145.14285714285714 320 L 145.14285714285714 320 Q 162.28571428571428 349.7142857142857 192 366.85714285714283 Q 221.71428571428572 384 256 384 Q 290.2857142857143 384 320 366.85714285714283 Q 349.7142857142857 349.7142857142857 366.85714285714283 320 Q 384 290.2857142857143 384 256 Q 384 221.71428571428572 366.85714285714283 192 Q 349.7142857142857 162.28571428571428 320 145.14285714285714 Q 290.2857142857143 128 256 128 Q 221.71428571428572 128 192 145.14285714285714 Q 162.28571428571428 162.28571428571428 145.14285714285714 192 Q 128 221.71428571428572 128 256 L 128 256 Z M 256 402.2857142857143 Q 216 402.2857142857143 182.85714285714286 382.85714285714283 L 182.85714285714286 382.85714285714283 L 182.85714285714286 382.85714285714283 Q 149.71428571428572 363.42857142857144 129.14285714285714 329.14285714285717 Q 109.71428571428571 294.85714285714283 109.71428571428571 256 Q 109.71428571428571 217.14285714285714 129.14285714285714 182.85714285714286 Q 149.71428571428572 148.57142857142858 182.85714285714286 129.14285714285714 Q 216 109.71428571428571 256 109.71428571428571 Q 296 109.71428571428571 329.14285714285717 129.14285714285714 Q 362.2857142857143 148.57142857142858 382.85714285714283 182.85714285714286 Q 402.2857142857143 217.14285714285714 402.2857142857143 256 Q 402.2857142857143 294.85714285714283 382.85714285714283 329.14285714285717 Q 362.2857142857143 363.42857142857144 329.14285714285717 382.85714285714283 Q 296 402.2857142857143 256 402.2857142857143 L 256 402.2857142857143 Z" />
</svg>