<svg xmlns="http://www.w3.org/2000/svg" viewBox="0 0 512 512">
  <path d="M 79.6887159533074 80.68482490272373 Q 80.68482490272373 53.78988326848249 98.6147859922179 35.85992217898833 L 98.6147859922179 35.85992217898833 L 98.6147859922179 35.85992217898833 Q 116.54474708171206 17.929961089494164 143.4396887159533 16.93385214007782 Q 170.33463035019454 17.929961089494164 188.26459143968873 35.85992217898833 Q 206.1945525291829 53.78988326848249 207.19066147859922 80.68482490272373 L 207.19066147859922 244.0466926070039 L 207.19066147859922 244.0466926070039 Q 208.18677042801556 256.99610894941634 218.14785992217898 263.9688715953307 Q 242.0544747081712 281.8988326848249 256 308.79377431906613 Q 270.94163424124514 335.6887159533074 270.94163424124514 367.56420233463035 Q 269.9455252918288 421.3540856031128 234.08560311284046 458.21011673151753 Q 197.2295719844358 494.07003891050584 143.4396887159533 495.0661478599222 Q 89.64980544747081 494.07003891050584 52.793774319066145 458.21011673151753 Q 16.93385214007782 421.3540856031128 15.937743190661479 367.56420233463035 Q 15.937743190661479 335.6887159533074 30.879377431906615 308.79377431906613 Q 44.824902723735406 281.8988326848249 68.73151750972762 263.9688715953307 Q 78.69260700389106 256.99610894941634 79.6887159533074 244.0466926070039 L 79.6887159533074 80.68482490272373 L 79.6887159533074 80.68482490272373 Z M 143.4396887159533 0.9961089494163424 Q 109.57198443579766 1.9922178988326849 86.6614785992218 23.90661478599222 L 86.6614785992218 23.90661478599222 L 86.6614785992218 23.90661478599222 Q 64.74708171206225 46.81712062256809 63.750972762645915 80.68482490272373 L 63.750972762645915 244.0466926070039 L 63.750972762645915 244.0466926070039 Q 63.750972762645915 248.03112840466926 59.766536964980546 251.01945525291828 Q 31.875486381322958 270.94163424124514 15.937743190661479 300.8249027237354 Q 0 331.70428015564204 0 367.56420233463035 Q 1.9922178988326849 428.32684824902725 41.83657587548638 469.16731517509726 Q 82.67704280155642 510.0077821011673 143.4396887159533 511.00389105058366 Q 204.2023346303502 510.0077821011673 245.04280155642024 469.16731517509726 Q 284.88715953307394 428.32684824902725 286.8793774319066 367.56420233463035 Q 286.8793774319066 331.70428015564204 270.94163424124514 300.8249027237354 Q 255.00389105058366 270.94163424124514 227.11284046692606 251.01945525291828 Q 223.1284046692607 248.03112840466926 223.1284046692607 244.0466926070039 L 223.1284046692607 80.68482490272373 L 223.1284046692607 80.68482490272373 Q 222.13229571984436 46.81712062256809 200.21789883268482 23.90661478599222 Q 177.30739299610894 1.9922178988326849 143.4396887159533 0.9961089494163424 L 143.4396887159533 0.9961089494163424 Z M 95.62645914396887 367.56420233463035 Q 96.62256809338521 340.6692607003891 119.53307392996109 325.72762645914395 Q 143.4396887159533 313.7743190661479 167.34630350194553 325.72762645914395 Q 190.2568093385214 340.6692607003891 191.25291828793775 367.56420233463035 Q 190.2568093385214 394.4591439688716 167.34630350194553 409.40077821011675 Q 143.4396887159533 421.3540856031128 119.53307392996109 409.40077821011675 Q 96.62256809338521 394.4591439688716 95.62645914396887 367.56420233463035 L 95.62645914396887 367.56420233463035 Z M 207.19066147859922 367.56420233463035 Q 206.1945525291829 342.66147859922177 191.25291828793775 324.7315175097276 L 191.25291828793775 324.7315175097276 L 191.25291828793775 324.7315175097276 Q 175.31517509727627 307.7976653696498 151.40856031128405 304.8093385214008 L 151.40856031128405 263.9688715953307 L 151.40856031128405 263.9688715953307 Q 150.4124513618677 256.99610894941634 143.4396887159533 256 Q 136.4669260700389 256.99610894941634 135.47081712062257 263.9688715953307 L 135.47081712062257 304.8093385214008 L 135.47081712062257 304.8093385214008 Q 111.56420233463035 307.7976653696498 95.62645914396887 324.7315175097276 Q 80.68482490272373 342.66147859922177 79.6887159533074 367.56420233463035 Q 80.68482490272373 394.4591439688716 98.6147859922179 412.3891050583658 Q 116.54474708171206 430.3190661478599 143.4396887159533 431.31517509727627 Q 170.33463035019454 430.3190661478599 188.26459143968873 412.3891050583658 Q 206.1945525291829 394.4591439688716 207.19066147859922 367.56420233463035 L 207.19066147859922 367.56420233463035 Z M 336.68482490272373 397.44747081712063 L 416.3735408560311 477.136186770428 L 336.68482490272373 397.44747081712063 L 416.3735408560311 477.136186770428 Q 422.35019455252916 481.1206225680934 428.32684824902725 477.136186770428 L 508.01556420233464 397.44747081712063 L 508.01556420233464 397.44747081712063 Q 512 391.47081712062254 508.01556420233464 385.4941634241245 Q 502.03891050583655 381.50972762645915 496.0622568093385 385.4941634241245 L 430.3190661478599 452.23346303501944 L 430.3190661478599 452.23346303501944 L 430.3190661478599 40.840466926070036 L 430.3190661478599 40.840466926070036 Q 429.3229571984436 33.86770428015564 422.35019455252916 32.8715953307393 Q 415.3774319066148 33.86770428015564 414.38132295719845 40.840466926070036 L 414.38132295719845 452.23346303501944 L 414.38132295719845 452.23346303501944 L 348.63813229571986 385.4941634241245 L 348.63813229571986 385.4941634241245 Q 342.66147859922177 381.50972762645915 336.68482490272373 385.4941634241245 Q 332.7003891050584 391.47081712062254 336.68482490272373 397.44747081712063 L 336.68482490272373 397.44747081712063 Z" />
</svg>