<svg xmlns="http://www.w3.org/2000/svg" viewBox="0 0 512 512">
  <path d="M 184.88889 78.22222 Q 184.88889 63.11111 195.55556 53.333332 L 195.55556 53.333332 L 195.55556 53.333332 Q 205.33333 42.666668 220.44444 42.666668 L 483.55554 42.666668 L 483.55554 42.666668 Q 496.8889 43.555557 497.77777 56.88889 L 497.77777 284.44446 L 497.77777 284.44446 Q 496.8889 297.77777 483.55554 298.66666 L 476.44446 298.66666 L 220.44444 298.66666 Q 199.11111 299.55554 184.88889 313.77777 L 184.88889 78.22222 L 184.88889 78.22222 Z M 170.66667 348.44446 L 170.66667 348.44446 L 170.66667 348.44446 L 170.66667 348.44446 L 170.66667 348.44446 L 170.66667 348.44446 Q 171.55556 369.77777 184.88889 384 Q 199.11111 397.33334 220.44444 398.22223 L 476.44446 398.22223 L 504.8889 398.22223 Q 511.1111 397.33334 512 391.1111 Q 511.1111 384.8889 504.8889 384 L 483.55554 384 L 483.55554 384 L 483.55554 312.8889 L 483.55554 312.8889 Q 496 312.8889 504 304.8889 Q 512 296.8889 512 284.44446 L 512 56.88889 L 512 56.88889 Q 512 44.444443 504 36.444443 Q 496 28.444445 483.55554 28.444445 L 220.44444 28.444445 L 220.44444 28.444445 Q 199.11111 29.333334 184.88889 42.666668 Q 171.55556 56.88889 170.66667 78.22222 L 170.66667 348.44446 L 170.66667 348.44446 Z M 469.33334 312.8889 L 469.33334 384 L 469.33334 312.8889 L 469.33334 384 L 220.44444 384 L 220.44444 384 Q 205.33333 384 195.55556 373.33334 Q 184.88889 363.55554 184.88889 348.44446 Q 184.88889 333.33334 195.55556 323.55554 Q 205.33333 312.8889 220.44444 312.8889 L 469.33334 312.8889 L 469.33334 312.8889 Z M 312.8889 469.33334 L 312.8889 426.66666 L 312.8889 469.33334 L 312.8889 426.66666 L 298.66666 426.66666 L 298.66666 426.66666 L 298.66666 469.33334 L 298.66666 469.33334 L 49.77778 469.33334 L 49.77778 469.33334 Q 34.666668 469.33334 24.88889 458.66666 Q 14.222222 448.8889 14.222222 433.77777 Q 14.222222 418.66666 24.88889 408.8889 Q 34.666668 398.22223 49.77778 398.22223 L 160 398.22223 L 160 398.22223 Q 154.66667 392 151.11111 384 L 49.77778 384 L 49.77778 384 Q 28.444445 384.8889 14.222222 399.1111 L 14.222222 163.55556 L 14.222222 163.55556 Q 14.222222 148.44444 24.88889 138.66667 Q 34.666668 128 49.77778 128 L 142.22223 128 L 142.22223 128 L 142.22223 113.77778 L 142.22223 113.77778 L 49.77778 113.77778 L 49.77778 113.77778 Q 28.444445 114.666664 14.222222 128 Q 0.8888889 142.22223 0 163.55556 L 0 433.77777 L 0 433.77777 L 0 433.77777 L 0 433.77777 L 0 433.77777 L 0 433.77777 Q 0.8888889 455.1111 14.222222 469.33334 Q 28.444445 482.66666 49.77778 483.55554 L 305.77777 483.55554 L 334.22223 483.55554 Q 340.44446 482.66666 341.33334 476.44446 Q 340.44446 470.22223 334.22223 469.33334 L 312.8889 469.33334 L 312.8889 469.33334 Z" />
</svg>