<svg xmlns="http://www.w3.org/2000/svg" viewBox="0 0 448 448">
    <path d="M 16 384 Q 17 404 30 418 L 30 418 Q 44 431 64 432 L 384 432 Q 404 431 418 418 Q 431 404 432 384 L 432 64 Q 431 44 418 30 Q 404 17 384 16 L 64 16 Q 44 17 30 30 Q 17 44 16 64 L 16 384 L 16 384 Z M 64 448 Q 37 447 19 429 L 19 429 Q 1 411 0 384 L 0 64 Q 1 37 19 19 Q 37 1 64 0 L 384 0 Q 411 1 429 19 Q 447 37 448 64 L 448 384 Q 447 411 429 429 Q 411 447 384 448 L 64 448 L 64 448 Z M 208 224 Q 209 209 224 208 Q 239 209 240 224 Q 239 239 224 240 Q 209 239 208 224 L 208 224 Z M 128 240 Q 113 239 112 224 Q 113 209 128 208 Q 143 209 144 224 Q 143 239 128 240 L 128 240 Z M 304 224 Q 305 209 320 208 Q 335 209 336 224 Q 335 239 320 240 Q 305 239 304 224 L 304 224 Z"/>
</svg>
