<svg xmlns="http://www.w3.org/2000/svg" viewBox="0 0 512 512">
  <path d="M 448 464 L 64 464 L 448 464 L 64 464 Q 44 463 30 450 Q 17 436 16 416 L 16 96 L 16 96 Q 17 76 30 62 Q 44 49 64 48 L 198 48 L 198 48 Q 217 48 231 62 L 267 98 L 267 98 Q 281 112 301 112 L 448 112 L 448 112 Q 468 113 482 126 Q 495 140 496 160 L 496 416 L 496 416 Q 495 436 482 450 Q 468 463 448 464 L 448 464 Z M 64 480 L 448 480 L 64 480 L 448 480 Q 475 479 493 461 Q 511 443 512 416 L 512 160 L 512 160 Q 511 133 493 115 Q 475 97 448 96 L 301 96 L 301 96 Q 288 96 279 87 L 243 51 L 243 51 Q 224 32 197 32 L 64 32 L 64 32 Q 37 33 19 51 Q 1 69 0 96 L 0 416 L 0 416 Q 1 443 19 461 Q 37 479 64 480 L 64 480 Z M 160 288 Q 153 289 152 296 Q 153 303 160 304 L 352 304 L 352 304 Q 359 303 360 296 Q 359 289 352 288 L 160 288 L 160 288 Z" />
</svg>