<svg xmlns="http://www.w3.org/2000/svg" viewBox="0 0 512 512">
  <path d="M 327.1111111111111 71.11111111111111 Q 305.77777777777777 72 291.55555555555554 85.33333333333333 L 291.55555555555554 85.33333333333333 L 291.55555555555554 85.33333333333333 Q 278.22222222222223 99.55555555555556 277.3333333333333 120.88888888888889 Q 277.3333333333333 120.88888888888889 277.3333333333333 120.88888888888889 Q 277.3333333333333 120.88888888888889 277.3333333333333 120.88888888888889 Q 276.44444444444446 126.22222222222223 272 128 L 214.22222222222223 138.66666666666666 L 214.22222222222223 138.66666666666666 Q 125.33333333333333 157.33333333333334 71.11111111111111 223.11111111111111 Q 16 289.77777777777777 14.222222222222221 380.44444444444446 L 14.222222222222221 405.3333333333333 L 14.222222222222221 405.3333333333333 Q 14.222222222222221 420.44444444444446 24.88888888888889 430.22222222222223 Q 34.666666666666664 440.8888888888889 49.77777777777778 440.8888888888889 L 305.77777777777777 440.8888888888889 L 305.77777777777777 440.8888888888889 Q 325.3333333333333 439.1111111111111 327.1111111111111 419.55555555555554 Q 325.3333333333333 400 305.77777777777777 398.22222222222223 L 270.22222222222223 398.22222222222223 L 270.22222222222223 398.22222222222223 Q 267.55555555555554 398.22222222222223 265.77777777777777 396.44444444444446 Q 261.3333333333333 392 264.8888888888889 386.6666666666667 L 271.1111111111111 378.6666666666667 L 271.1111111111111 378.6666666666667 L 277.3333333333333 371.55555555555554 L 277.3333333333333 371.55555555555554 Q 291.55555555555554 352.8888888888889 291.55555555555554 329.77777777777777 L 291.55555555555554 326.22222222222223 L 291.55555555555554 326.22222222222223 Q 290.6666666666667 299.55555555555554 272.8888888888889 281.77777777777777 Q 255.11111111111111 264 228.44444444444446 263.1111111111111 Q 202.66666666666666 263.1111111111111 184 281.77777777777777 L 147.55555555555554 318.22222222222223 L 147.55555555555554 318.22222222222223 Q 142.22222222222223 321.77777777777777 136.88888888888889 318.22222222222223 Q 133.33333333333334 312.8888888888889 136.88888888888889 307.55555555555554 L 173.33333333333334 272 L 173.33333333333334 272 Q 196.44444444444446 249.77777777777777 228.44444444444446 248.88888888888889 Q 254.22222222222223 249.77777777777777 273.77777777777777 264 Q 304.8888888888889 286.22222222222223 305.77777777777777 326.22222222222223 L 305.77777777777777 329.77777777777777 L 305.77777777777777 329.77777777777777 Q 305.77777777777777 358.22222222222223 288 380.44444444444446 L 285.3333333333333 384 L 285.3333333333333 384 L 305.77777777777777 384 L 305.77777777777777 384 Q 320.8888888888889 384.8888888888889 330.6666666666667 394.6666666666667 Q 341.3333333333333 404.44444444444446 341.3333333333333 419.55555555555554 Q 341.3333333333333 434.6666666666667 330.6666666666667 444.44444444444446 Q 320.8888888888889 455.1111111111111 305.77777777777777 455.1111111111111 L 49.77777777777778 455.1111111111111 L 49.77777777777778 455.1111111111111 Q 28.444444444444443 454.22222222222223 14.222222222222221 440.8888888888889 Q 0.8888888888888888 426.6666666666667 0 405.3333333333333 L 0 380.44444444444446 L 0 380.44444444444446 Q 1.7777777777777777 284.44444444444446 59.55555555555556 214.22222222222223 Q 118.22222222222223 144 211.55555555555554 124.44444444444444 L 263.1111111111111 114.66666666666667 L 263.1111111111111 114.66666666666667 Q 265.77777777777777 89.77777777777777 283.55555555555554 73.77777777777777 Q 301.3333333333333 57.77777777777778 327.1111111111111 56.888888888888886 Q 353.77777777777777 57.77777777777778 371.55555555555554 75.55555555555556 Q 390.22222222222223 92.44444444444444 391.1111111111111 119.11111111111111 Q 445.3333333333333 130.66666666666666 478.22222222222223 144 Q 494.22222222222223 151.11111111111111 503.1111111111111 164.44444444444446 Q 512 178.66666666666666 512 196.44444444444446 Q 511.1111111111111 231.11111111111111 480.8888888888889 248.88888888888889 L 359.1111111111111 315.55555555555554 L 359.1111111111111 315.55555555555554 L 458.6666666666667 440.8888888888889 L 458.6666666666667 440.8888888888889 L 504.8888888888889 440.8888888888889 L 504.8888888888889 440.8888888888889 Q 511.1111111111111 441.77777777777777 512 448 Q 511.1111111111111 454.22222222222223 504.8888888888889 455.1111111111111 L 455.1111111111111 455.1111111111111 L 455.1111111111111 455.1111111111111 Q 451.55555555555554 455.1111111111111 449.77777777777777 452.44444444444446 L 343.1111111111111 317.3333333333333 L 343.1111111111111 317.3333333333333 Q 340.44444444444446 314.6666666666667 341.3333333333333 311.1111111111111 Q 342.22222222222223 308.44444444444446 344.8888888888889 306.6666666666667 L 473.77777777777777 236.44444444444446 L 473.77777777777777 236.44444444444446 Q 496.8888888888889 223.11111111111111 497.77777777777777 195.55555555555554 Q 496.8888888888889 168 472.8888888888889 157.33333333333334 Q 439.1111111111111 143.11111111111111 383.1111111111111 132.44444444444446 Q 376.8888888888889 130.66666666666666 376.8888888888889 124.44444444444444 Q 376.8888888888889 123.55555555555556 376.8888888888889 122.66666666666667 Q 376.8888888888889 121.77777777777777 376.8888888888889 120.88888888888889 Q 376 99.55555555555556 362.6666666666667 85.33333333333333 Q 348.44444444444446 72 327.1111111111111 71.11111111111111 L 327.1111111111111 71.11111111111111 Z M 327.1111111111111 113.77777777777777 Q 340.44444444444446 114.66666666666667 341.3333333333333 128 Q 340.44444444444446 141.33333333333334 327.1111111111111 142.22222222222223 Q 313.77777777777777 141.33333333333334 312.8888888888889 128 Q 313.77777777777777 114.66666666666667 327.1111111111111 113.77777777777777 L 327.1111111111111 113.77777777777777 Z" />
</svg>