<svg xmlns="http://www.w3.org/2000/svg" viewBox="0 0 512 512">
  <path d="M 51.2 0 L 51.2 102.4 L 51.2 0 L 51.2 102.4 Q 51.2 108.8 57.6 110.933334 L 187.73334 145.06667 L 187.73334 145.06667 L 187.73334 126.933334 L 187.73334 126.933334 L 68.26667 96 L 68.26667 96 L 68.26667 0 L 68.26667 0 L 51.2 0 L 51.2 0 Z M 324.26666 126.933334 L 324.26666 145.06667 L 324.26666 126.933334 L 324.26666 145.06667 L 454.4 110.933334 L 454.4 110.933334 Q 460.8 108.8 460.8 102.4 L 460.8 0 L 460.8 0 L 443.73334 0 L 443.73334 0 L 443.73334 96 L 443.73334 96 L 324.26666 126.933334 L 324.26666 126.933334 Z M 256 51.2 Q 272 52.266666 273.06668 68.26667 L 273.06668 256 L 273.06668 256 L 238.93333 256 L 238.93333 256 L 238.93333 68.26667 L 238.93333 68.26667 Q 240 52.266666 256 51.2 L 256 51.2 Z M 290.13333 256 L 290.13333 68.26667 L 290.13333 256 L 290.13333 68.26667 Q 290.13333 53.333332 280.53333 43.733334 Q 270.93332 34.133335 256 34.133335 Q 241.06667 34.133335 231.46666 43.733334 Q 221.86667 53.333332 221.86667 68.26667 L 221.86667 256 L 221.86667 256 L 128 256 L 128 256 Q 120.53333 257.06668 119.46667 264.53333 Q 120.53333 272 128 273.06668 L 230.4 273.06668 L 384 273.06668 Q 391.46667 272 392.53333 264.53333 Q 391.46667 257.06668 384 256 L 290.13333 256 L 290.13333 256 Z M 204.8 375.46667 Q 220.8 374.4 221.86667 358.4 Q 220.8 342.4 204.8 341.33334 Q 188.8 342.4 187.73334 358.4 Q 188.8 374.4 204.8 375.46667 L 204.8 375.46667 Z M 136.53334 443.73334 Q 152.53334 442.66666 153.6 426.66666 Q 152.53334 410.66666 136.53334 409.6 Q 120.53333 410.66666 119.46667 426.66666 Q 120.53333 442.66666 136.53334 443.73334 L 136.53334 443.73334 Z M 324.26666 358.4 Q 323.2 342.4 307.2 341.33334 Q 291.2 342.4 290.13333 358.4 Q 291.2 374.4 307.2 375.46667 Q 323.2 374.4 324.26666 358.4 L 324.26666 358.4 Z M 256 443.73334 Q 272 442.66666 273.06668 426.66666 Q 272 410.66666 256 409.6 Q 240 410.66666 238.93333 426.66666 Q 240 442.66666 256 443.73334 L 256 443.73334 Z M 221.86667 494.93332 Q 220.8 478.93332 204.8 477.86667 Q 188.8 478.93332 187.73334 494.93332 Q 188.8 510.93332 204.8 512 Q 220.8 510.93332 221.86667 494.93332 L 221.86667 494.93332 Z M 307.2 512 Q 323.2 510.93332 324.26666 494.93332 Q 323.2 478.93332 307.2 477.86667 Q 291.2 478.93332 290.13333 494.93332 Q 291.2 510.93332 307.2 512 L 307.2 512 Z M 460.8 494.93332 Q 459.73334 478.93332 443.73334 477.86667 Q 427.73334 478.93332 426.66666 494.93332 Q 427.73334 510.93332 443.73334 512 Q 459.73334 510.93332 460.8 494.93332 L 460.8 494.93332 Z M 375.46667 443.73334 Q 391.46667 442.66666 392.53333 426.66666 Q 391.46667 410.66666 375.46667 409.6 Q 359.46667 410.66666 358.4 426.66666 Q 359.46667 442.66666 375.46667 443.73334 L 375.46667 443.73334 Z M 85.333336 494.93332 Q 84.26667 478.93332 68.26667 477.86667 Q 52.266666 478.93332 51.2 494.93332 Q 52.266666 510.93332 68.26667 512 Q 84.26667 510.93332 85.333336 494.93332 L 85.333336 494.93332 Z" />
</svg>