<svg xmlns="http://www.w3.org/2000/svg" viewBox="0 0 644 448">
    <path d="M 16 143 Q 75 84 153 50 L 153 50 Q 232 17 322 16 Q 412 17 491 50 Q 569 84 628 143 Q 634 148 640 143 Q 644 138 640 132 Q 578 70 497 35 Q 416 1 322 0 Q 228 1 147 35 Q 66 70 5 132 Q 0 138 5 143 Q 10 148 16 143 L 16 143 Z M 322 176 Q 376 176 424 196 L 424 196 Q 472 215 509 250 Q 514 254 520 250 Q 524 244 520 238 Q 480 202 430 181 Q 380 160 322 160 Q 264 160 214 181 Q 164 202 125 238 Q 120 244 124 250 Q 130 255 136 250 Q 172 215 220 196 Q 268 176 322 176 L 322 176 Z M 322 336 Q 349 337 364 360 Q 376 384 364 408 Q 349 431 322 432 Q 295 431 280 408 Q 268 384 280 360 Q 295 337 322 336 L 322 336 Z M 322 448 Q 358 447 377 416 Q 395 384 377 352 Q 358 321 322 320 Q 286 321 267 352 Q 249 384 267 416 Q 286 447 322 448 L 322 448 Z"/>
</svg>
