<svg xmlns="http://www.w3.org/2000/svg" viewBox="0 0 512 512">
  <path d="M 242.02184087363494 91.85647425897037 L 17.57254290171607 173.32917316692667 L 242.02184087363494 91.85647425897037 L 17.57254290171607 173.32917316692667 Q 13.578783151326054 174.9266770670827 13.578783151326054 178.9204368174727 Q 13.578783151326054 182.91419656786272 17.57254290171607 185.31045241809673 L 92.65522620904837 211.66926677067082 L 92.65522620904837 211.66926677067082 Q 107.83151326053041 199.68798751950078 127.00156006240249 192.49921996879874 L 254.00312012480498 144.57410296411857 L 254.00312012480498 144.57410296411857 Q 259.594383775351 142.97659906396257 262.78939157566305 148.56786271450858 Q 263.58814352574103 154.1591263650546 258.795631825273 156.5553822152886 L 130.9953198127925 204.4804992199688 L 130.9953198127925 204.4804992199688 Q 118.21528861154447 209.2730109204368 107.03276131045241 217.26053042121686 L 242.02184087363494 265.98439937597504 L 242.02184087363494 265.98439937597504 Q 249.21060842433698 268.38065522620906 256.399375975039 268.38065522620906 Q 263.58814352574103 268.38065522620906 270.77691107644307 265.98439937597504 L 495.2262090483619 185.31045241809673 L 495.2262090483619 185.31045241809673 Q 499.21996879875195 182.91419656786272 499.21996879875195 178.9204368174727 Q 499.21996879875195 174.9266770670827 495.2262090483619 173.32917316692667 L 270.77691107644307 91.85647425897037 L 270.77691107644307 91.85647425897037 Q 263.58814352574103 89.46021840873635 256.399375975039 89.46021840873635 Q 249.21060842433698 89.46021840873635 242.02184087363494 91.85647425897037 L 242.02184087363494 91.85647425897037 Z M 237.22932917316692 277.9656786271451 L 95.05148205928238 226.84555382215288 L 237.22932917316692 277.9656786271451 L 95.05148205928238 226.84555382215288 Q 60.70514820592824 257.996879875195 58.308892355694226 305.9219968798752 L 63.90015600624025 321.09828393135723 L 63.90015600624025 321.09828393135723 Q 77.4789391575663 356.2433697347894 77.4789391575663 394.58346333853353 L 77.4789391575663 428.13104524180966 L 77.4789391575663 428.13104524180966 Q 77.4789391575663 431.32605304212166 75.08268330733229 432.9235569422777 Q 72.68642745709829 435.3198127925117 69.49141965678628 434.5210608424337 L 5.591263650546022 415.3510140405616 L 5.591263650546022 415.3510140405616 Q 2.3962558502340094 413.75351014040564 0.7987519500780031 410.5585023400936 Q 0 407.3634945397816 2.3962558502340094 404.96723868954757 L 9.585023400936038 396.18096723868956 L 9.585023400936038 396.18096723868956 Q 32.748829953198126 367.42589703588146 40.73634945397816 331.48205928237127 L 45.528861154446176 305.9219968798752 L 45.528861154446176 305.9219968798752 Q 47.92511700468019 256.399375975039 82.27145085803433 222.05304212168485 L 13.578783151326054 197.29173166926677 L 13.578783151326054 197.29173166926677 Q 1.5975039001560063 191.70046801872076 0.7987519500780031 178.9204368174727 Q 1.5975039001560063 166.14040561622465 13.578783151326054 160.54914196567861 L 237.22932917316692 79.87519500780031 L 237.22932917316692 79.87519500780031 Q 246.81435257410297 76.6801872074883 256.399375975039 76.6801872074883 Q 265.98439937597504 76.6801872074883 275.5694227769111 79.87519500780031 L 499.21996879875195 160.54914196567861 L 499.21996879875195 160.54914196567861 Q 511.201248049922 166.14040561622465 512 178.9204368174727 Q 511.201248049922 191.70046801872076 499.21996879875195 197.29173166926677 L 275.5694227769111 277.9656786271451 L 275.5694227769111 277.9656786271451 Q 265.98439937597504 281.1606864274571 256.399375975039 281.1606864274571 Q 246.81435257410297 281.1606864274571 237.22932917316692 277.9656786271451 L 237.22932917316692 277.9656786271451 Z M 127.8003120124805 265.18564742589706 L 115.81903276131045 377.8096723868955 L 127.8003120124805 265.18564742589706 L 115.81903276131045 377.8096723868955 Q 115.02028081123245 380.2059282371295 123.80655226209048 388.19344773790954 Q 132.59282371294853 396.97971918876755 152.5616224648986 404.1684867394696 Q 193.29797191887675 420.9422776911076 256.399375975039 421.74102964118566 Q 319.50078003120126 420.9422776911076 360.2371294851794 404.1684867394696 Q 380.2059282371295 396.97971918876755 388.9921996879875 388.19344773790954 Q 397.77847113884553 380.2059282371295 396.97971918876755 377.8096723868955 L 384.9984399375975 265.18564742589706 L 384.9984399375975 265.18564742589706 L 397.77847113884553 261.191887675507 L 397.77847113884553 261.191887675507 L 409.7597503900156 377.01092043681746 L 409.7597503900156 377.01092043681746 Q 408.16224648985957 399.37597503900156 365.02964118564745 416.14976599063965 Q 321.8970358814353 433.72230889235567 256.399375975039 434.5210608424337 Q 190.90171606864274 433.72230889235567 147.76911076443056 416.14976599063965 Q 104.6365054602184 399.37597503900156 103.0390015600624 377.01092043681746 L 115.02028081123245 261.191887675507 L 115.02028081123245 261.191887675507 L 127.8003120124805 265.18564742589706 L 127.8003120124805 265.18564742589706 Z M 52.71762870514821 333.8783151326053 Q 44.730109204368176 373.81591263650546 19.170046801872076 404.96723868954757 L 18.371294851794072 405.7659906396256 L 18.371294851794072 405.7659906396256 L 64.69890795631825 419.34477379095165 L 64.69890795631825 419.34477379095165 L 64.69890795631825 394.58346333853353 L 64.69890795631825 394.58346333853353 Q 64.69890795631825 361.8346333853354 53.51638065522621 329.8845553822153 L 52.71762870514821 333.8783151326053 L 52.71762870514821 333.8783151326053 Z" />
</svg>