<svg xmlns="http://www.w3.org/2000/svg" viewBox="0 0 640 512">
    <path d="M 128 0 Q 133 0 135 5 L 142 18 Q 168 69 215 98 Q 263 127 320 128 Q 377 127 425 98 Q 472 69 498 18 L 505 5 Q 507 0 512 0 Q 518 0 520 6 Q 532 41 562 75 Q 592 109 627 124 Q 633 127 631 134 Q 628 140 621 138 Q 582 122 550 86 Q 533 66 520 44 L 520 256 L 632 256 Q 639 257 640 264 Q 639 271 632 272 L 512 272 L 128 272 L 8 272 Q 1 271 0 264 Q 1 257 8 256 L 120 256 L 120 45 Q 107 66 90 86 Q 58 122 19 139 Q 12 141 9 134 Q 7 127 13 124 Q 48 109 78 75 Q 108 41 120 6 Q 122 0 128 0 L 128 0 Z M 136 256 L 216 256 L 216 120 Q 216 119 216 117 Q 167 90 136 40 L 136 256 L 136 256 Z M 232 256 L 312 256 L 312 144 L 312 144 Q 270 142 232 125 L 232 256 L 232 256 Z M 328 256 L 408 256 L 408 125 Q 370 142 328 144 L 328 144 L 328 256 L 328 256 Z M 424 256 L 504 256 L 504 40 Q 473 90 424 117 Q 424 119 424 120 L 424 256 L 424 256 Z M 8 336 L 32 336 Q 69 337 94 362 Q 119 387 120 424 L 120 472 Q 122 494 144 496 L 176 496 Q 198 494 200 472 L 200 456 Q 201 405 235 371 Q 269 337 320 336 Q 371 337 405 371 Q 439 405 440 456 L 440 472 Q 442 494 464 496 L 496 496 Q 518 494 520 472 L 520 424 Q 521 387 546 362 Q 571 337 608 336 L 632 336 Q 639 337 640 344 Q 639 351 632 352 L 608 352 Q 577 353 557 373 Q 537 393 536 424 L 536 472 Q 536 489 524 500 Q 513 512 496 512 L 464 512 Q 447 512 436 500 Q 424 489 424 472 L 424 456 Q 423 412 394 382 Q 364 353 320 352 Q 276 353 246 382 Q 217 412 216 456 L 216 472 Q 216 489 204 500 Q 193 512 176 512 L 144 512 Q 127 512 116 500 Q 104 489 104 472 L 104 424 Q 103 393 83 373 Q 63 353 32 352 L 8 352 Q 1 351 0 344 Q 1 337 8 336 L 8 336 Z"/>
</svg>
