<svg xmlns="http://www.w3.org/2000/svg" viewBox="0 0 448 448">
    <path d="M 432 64 Q 431 44 418 30 L 418 30 Q 404 17 384 16 L 64 16 Q 44 17 30 30 Q 17 44 16 64 L 16 384 Q 17 404 30 418 Q 44 431 64 432 L 384 432 Q 404 431 418 418 Q 431 404 432 384 L 432 64 L 432 64 Z M 384 0 Q 411 1 429 19 L 429 19 Q 447 37 448 64 L 448 384 Q 447 411 429 429 Q 411 447 384 448 L 64 448 Q 37 447 19 429 Q 1 411 0 384 L 0 64 Q 1 37 19 19 Q 37 1 64 0 L 384 0 L 384 0 Z M 350 230 L 246 334 Q 240 338 234 334 Q 230 328 234 322 L 325 232 L 104 232 Q 97 231 96 224 Q 97 217 104 216 L 325 216 L 234 126 Q 230 120 234 114 Q 240 110 246 114 L 350 218 Q 354 224 350 230 L 350 230 Z"/>
</svg>
