<svg xmlns="http://www.w3.org/2000/svg" viewBox="0 0 512 384">
    <path d="M 120 0 Q 127 1 128 8 Q 127 15 120 16 L 16 16 L 16 120 Q 15 127 8 128 Q 1 127 0 120 L 0 8 Q 1 1 8 0 L 120 0 L 120 0 Z M 0 264 Q 1 257 8 256 Q 15 257 16 264 L 16 368 L 120 368 Q 127 369 128 376 Q 127 383 120 384 L 8 384 Q 1 383 0 376 L 0 264 L 0 264 Z M 392 0 L 504 0 Q 511 1 512 8 L 512 120 Q 511 127 504 128 Q 497 127 496 120 L 496 16 L 392 16 Q 385 15 384 8 Q 385 1 392 0 L 392 0 Z M 512 264 L 512 376 Q 511 383 504 384 L 392 384 Q 385 383 384 376 Q 385 369 392 368 L 496 368 L 496 264 Q 497 257 504 256 Q 511 257 512 264 L 512 264 Z"/>
</svg>
