<svg xmlns="http://www.w3.org/2000/svg" viewBox="0 0 640 512">
    <path d="M 272 16 L 48 16 Q 34 16 25 25 Q 16 34 16 48 L 16 432 Q 16 446 25 455 Q 34 464 48 464 L 224 464 L 224 480 L 48 480 Q 28 479 14 466 Q 1 452 0 432 L 0 48 Q 1 28 14 14 Q 28 1 48 0 L 272 0 Q 292 1 306 14 Q 319 28 320 48 L 320 165 Q 311 172 304 182 L 304 48 Q 304 34 295 25 Q 286 16 272 16 L 272 16 Z M 232 288 Q 243 288 250 296 Q 244 303 240 311 Q 238 304 232 304 L 200 304 Q 193 305 192 312 L 192 344 Q 193 351 200 352 L 225 352 Q 224 360 224 368 L 200 368 Q 178 366 176 344 L 176 312 Q 178 290 200 288 L 232 288 L 232 288 Z M 64 200 Q 66 178 88 176 L 120 176 Q 142 178 144 200 L 144 232 Q 142 254 120 256 L 88 256 Q 66 254 64 232 L 64 200 L 64 200 Z M 88 192 Q 81 193 80 200 L 80 232 Q 81 239 88 240 L 120 240 Q 127 239 128 232 L 128 200 Q 127 193 120 192 L 88 192 L 88 192 Z M 200 176 L 232 176 Q 254 178 256 200 L 256 232 Q 254 254 232 256 L 200 256 Q 178 254 176 232 L 176 200 Q 178 178 200 176 L 200 176 Z M 192 200 L 192 232 Q 193 239 200 240 L 232 240 Q 239 239 240 232 L 240 200 Q 239 193 232 192 L 200 192 Q 193 193 192 200 L 192 200 Z M 64 88 Q 66 66 88 64 L 120 64 Q 142 66 144 88 L 144 120 Q 142 142 120 144 L 88 144 Q 66 142 64 120 L 64 88 L 64 88 Z M 88 80 Q 81 81 80 88 L 80 120 Q 81 127 88 128 L 120 128 Q 127 127 128 120 L 128 88 Q 127 81 120 80 L 88 80 L 88 80 Z M 200 64 L 232 64 Q 254 66 256 88 L 256 120 Q 254 142 232 144 L 200 144 Q 178 142 176 120 L 176 88 Q 178 66 200 64 L 200 64 Z M 192 88 L 192 120 Q 193 127 200 128 L 232 128 Q 239 127 240 120 L 240 88 Q 239 81 232 80 L 200 80 Q 193 81 192 88 L 192 88 Z M 64 312 Q 66 290 88 288 L 120 288 Q 142 290 144 312 L 144 344 Q 142 366 120 368 L 88 368 Q 66 366 64 344 L 64 312 L 64 312 Z M 88 304 Q 81 305 80 312 L 80 344 Q 81 351 88 352 L 120 352 Q 127 351 128 344 L 128 312 Q 127 305 120 304 L 88 304 L 88 304 Z M 380 192 Q 351 194 342 221 L 322 289 Q 329 288 336 288 L 560 288 Q 567 288 574 289 L 554 221 Q 545 194 516 192 L 380 192 L 380 192 Z M 304 294 L 326 217 Q 332 198 347 187 Q 361 176 380 176 L 516 176 Q 535 176 550 187 Q 564 198 570 217 L 592 294 L 591 294 Q 613 303 626 323 Q 640 343 640 368 L 640 432 L 640 448 L 640 480 Q 640 494 631 503 Q 622 512 608 512 L 592 512 Q 578 512 569 503 Q 560 494 560 480 L 560 448 L 336 448 L 336 480 Q 336 494 327 503 Q 318 512 304 512 L 288 512 Q 274 512 265 503 Q 256 494 256 480 L 256 448 L 256 432 L 256 368 Q 256 343 270 323 Q 283 303 305 294 L 304 294 L 304 294 Z M 576 432 L 624 432 L 624 368 Q 623 341 605 323 Q 587 305 560 304 L 336 304 Q 309 305 291 323 Q 273 341 272 368 L 272 432 L 320 432 L 336 432 L 560 432 L 576 432 L 576 432 Z M 592 496 L 608 496 Q 623 495 624 480 L 624 448 L 576 448 L 576 480 Q 577 495 592 496 L 592 496 Z M 320 448 L 272 448 L 272 480 Q 273 495 288 496 L 304 496 Q 319 495 320 480 L 320 448 L 320 448 Z M 320 368 Q 321 383 336 384 Q 351 383 352 368 Q 351 353 336 352 Q 321 353 320 368 L 320 368 Z M 336 400 Q 322 400 313 391 L 313 391 Q 304 382 304 368 Q 304 354 313 345 Q 322 336 336 336 Q 350 336 359 345 Q 368 354 368 368 Q 368 382 359 391 Q 350 400 336 400 L 336 400 Z M 560 352 Q 545 353 544 368 Q 545 383 560 384 Q 575 383 576 368 Q 575 353 560 352 L 560 352 Z M 592 368 Q 592 382 583 391 L 583 391 Q 574 400 560 400 Q 546 400 537 391 Q 528 382 528 368 Q 528 354 537 345 Q 546 336 560 336 Q 574 336 583 345 Q 592 354 592 368 L 592 368 Z"/>
</svg>
