<svg xmlns="http://www.w3.org/2000/svg" viewBox="0 0 512 512">
  <path d="M 469.33334 203.48718 L 42.666668 203.48718 L 469.33334 203.48718 L 42.666668 203.48718 Q 29.538462 202.39316 28.444445 189.26495 Q 28.444445 188.17094 28.444445 187.07692 Q 30.632479 178.32478 40.478634 154.25641 Q 51.418804 129.09402 76.5812 100.649574 Q 100.649574 71.111115 144.41026 50.324787 Q 187.07692 29.538462 256 28.444445 Q 323.82907 29.538462 367.58975 50.324787 Q 411.35043 71.111115 435.4188 100.649574 Q 460.5812 129.09402 471.52136 154.25641 Q 482.46155 178.32478 483.55554 187.07692 Q 483.55554 188.17094 483.55554 189.26495 Q 482.46155 202.39316 469.33334 203.48718 L 469.33334 203.48718 Z M 42.666668 220.99146 L 469.33334 220.99146 L 42.666668 220.99146 L 469.33334 220.99146 Q 482.46155 220.99146 491.21368 211.1453 Q 501.0598 202.39316 501.0598 189.26495 Q 501.0598 185.98291 499.96582 182.70085 Q 498.8718 168.47864 478.08548 128 Q 456.20514 87.52137 403.69232 50.324787 Q 352.2735 13.128205 256 10.940171 Q 159.7265 13.128205 108.30769 50.324787 Q 55.794872 87.52137 33.91453 128 Q 13.128205 168.47864 12.034188 182.70085 Q 10.940171 185.98291 10.940171 189.26495 Q 10.940171 202.39316 20.786325 211.1453 Q 29.538462 220.99146 42.666668 220.99146 L 42.666668 220.99146 Z M 40.478634 413.53845 L 471.52136 413.53845 L 40.478634 413.53845 L 471.52136 413.53845 Q 482.46155 414.63248 483.55554 425.57266 Q 482.46155 450.73505 467.1453 467.1453 Q 450.73505 482.46155 425.57266 483.55554 L 86.42735 483.55554 L 86.42735 483.55554 Q 61.264957 482.46155 44.854702 467.1453 Q 29.538462 450.73505 28.444445 425.57266 Q 29.538462 414.63248 40.478634 413.53845 L 40.478634 413.53845 Z M 40.478634 396.03418 Q 28.444445 396.03418 19.692308 404.78632 L 19.692308 404.78632 L 19.692308 404.78632 Q 10.940171 413.53845 10.940171 425.57266 Q 12.034188 458.39316 32.820515 479.17947 Q 53.60684 499.96582 86.42735 501.0598 L 425.57266 501.0598 L 425.57266 501.0598 Q 458.39316 499.96582 479.17947 479.17947 Q 499.96582 458.39316 501.0598 425.57266 Q 501.0598 413.53845 492.30768 404.78632 Q 483.55554 396.03418 471.52136 396.03418 L 40.478634 396.03418 L 40.478634 396.03418 Z M 133.4701 133.4701 Q 149.88034 132.37607 150.97437 115.96581 Q 149.88034 99.55556 133.4701 98.46154 Q 117.05983 99.55556 115.96581 115.96581 Q 117.05983 132.37607 133.4701 133.4701 L 133.4701 133.4701 Z M 396.03418 115.96581 Q 394.9402 99.55556 378.5299 98.46154 Q 362.11966 99.55556 361.02563 115.96581 Q 362.11966 132.37607 378.5299 133.4701 Q 394.9402 132.37607 396.03418 115.96581 L 396.03418 115.96581 Z M 256 98.46154 Q 272.41025 97.36752 273.50427 80.95727 Q 272.41025 64.54701 256 63.45299 Q 239.58974 64.54701 238.49573 80.95727 Q 239.58974 97.36752 256 98.46154 L 256 98.46154 Z M 112.68376 317.26495 L 113.77778 316.17093 L 112.68376 317.26495 L 113.77778 316.17093 Q 134.5641 300.8547 159.7265 299.76068 Q 182.70085 300.8547 201.29915 315.07693 Q 201.29915 315.07693 201.29915 316.17093 L 201.29915 316.17093 L 201.29915 316.17093 Q 220.99146 331.48718 256 334.76923 Q 291.00854 331.48718 310.70087 316.17093 L 310.70087 316.17093 L 310.70087 316.17093 Q 328.20514 300.8547 352.2735 299.76068 Q 376.3419 300.8547 398.22223 316.17093 L 399.31625 317.26495 L 399.31625 317.26495 Q 420.10257 332.5812 448.547 334.76923 Q 476.99146 333.6752 491.21368 324.92307 Q 498.8718 321.64102 503.24786 318.35898 Q 504.3419 317.26495 505.43588 316.17093 Q 506.5299 315.07693 506.5299 315.07693 Q 506.5299 315.07693 506.5299 315.07693 L 506.5299 315.07693 L 506.5299 315.07693 L 506.5299 315.07693 L 506.5299 315.07693 L 506.5299 315.07693 L 506.5299 315.07693 L 506.5299 315.07693 L 506.5299 315.07693 L 506.5299 315.07693 L 506.5299 315.07693 Q 508.71796 316.17093 501.0598 308.51282 L 506.5299 315.07693 L 506.5299 315.07693 Q 512 308.51282 506.5299 301.94873 Q 501.0598 297.57266 494.49573 301.94873 L 494.49573 301.94873 L 494.49573 301.94873 Q 494.49573 303.04272 494.49573 303.04272 Q 493.4017 303.04272 493.4017 303.04272 Q 493.4017 304.13675 492.30768 304.13675 Q 489.02563 306.3248 483.55554 309.60684 Q 472.6154 316.17093 448.547 317.26495 Q 427.76068 316.17093 406.97437 300.8547 L 406.97437 300.8547 L 406.97437 300.8547 Q 385.09402 285.53845 352.2735 282.2564 Q 320.547 284.44446 301.94873 299.76068 Q 301.94873 299.76068 301.94873 300.8547 L 300.8547 300.8547 L 300.8547 300.8547 Q 282.2564 316.17093 256 317.26495 Q 228.64957 316.17093 211.1453 300.8547 L 208.95726 300.8547 L 208.95726 300.8547 Q 208.95726 299.76068 208.95726 299.76068 Q 191.45299 284.44446 159.7265 282.2564 Q 125.811966 285.53845 105.02564 300.8547 L 103.931625 300.8547 L 103.931625 300.8547 Q 84.23932 316.17093 63.45299 317.26495 Q 39.384617 316.17093 28.444445 309.60684 Q 21.880342 306.3248 19.692308 304.13675 Q 18.598291 304.13675 18.598291 303.04272 Q 17.504274 303.04272 17.504274 303.04272 Q 17.504274 301.94873 17.504274 301.94873 L 17.504274 301.94873 L 17.504274 301.94873 Q 10.940171 297.57266 4.3760686 301.94873 Q 0 308.51282 4.3760686 315.07693 L 10.940171 308.51282 L 10.940171 308.51282 Q 3.2820513 316.17093 4.3760686 315.07693 L 4.3760686 315.07693 L 4.3760686 315.07693 L 4.3760686 315.07693 L 4.3760686 315.07693 L 4.3760686 315.07693 L 4.3760686 315.07693 L 4.3760686 315.07693 L 4.3760686 315.07693 L 5.4700856 315.07693 L 5.4700856 315.07693 Q 5.4700856 315.07693 5.4700856 316.17093 Q 6.5641026 317.26495 8.752137 318.35898 Q 13.128205 321.64102 19.692308 324.92307 Q 35.00855 333.6752 63.45299 334.76923 Q 91.89744 332.5812 111.589745 317.26495 L 112.68376 317.26495 Z" />
</svg>