<svg xmlns="http://www.w3.org/2000/svg" viewBox="0 0 512 512">
  <path d="M 170.66667 383.55554 Q 140.44444 383.55554 113.77778 372.8889 L 113.77778 319.55554 L 113.77778 319.55554 Q 112.888885 313.33334 106.666664 312.44446 Q 100.44444 313.33334 99.55556 319.55554 L 99.55556 366.66666 L 99.55556 366.66666 Q 61.333332 346.22223 38.22222 309.77777 Q 15.111111 273.33334 14.222222 227.11111 Q 16 160.44444 60.444443 116.888885 Q 104 72.44444 170.66667 70.666664 Q 221.33333 71.55556 259.55554 98.22222 Q 282.66666 115.111115 309.33334 128.44444 Q 336.8889 140.88889 368 141.77777 L 412.44446 141.77777 L 412.44446 141.77777 Q 448.8889 142.66667 472.8889 166.66667 Q 496.8889 190.66667 497.77777 227.11111 Q 496.8889 263.55554 472.8889 287.55554 Q 448.8889 311.55554 412.44446 312.44446 L 368 312.44446 L 368 312.44446 Q 336.8889 313.33334 309.33334 326.66666 Q 282.66666 339.1111 259.55554 356 Q 221.33333 382.66666 170.66667 383.55554 L 170.66667 383.55554 Z M 0 227.11111 Q 0.8888889 279.55554 27.555555 320.44446 L 27.555555 320.44446 L 27.555555 320.44446 Q 55.11111 361.33334 99.55556 382.66666 L 99.55556 447.55554 L 99.55556 447.55554 Q 100.44444 453.77777 106.666664 454.66666 Q 112.888885 453.77777 113.77778 447.55554 L 113.77778 388 L 113.77778 388 Q 140.44444 397.77777 170.66667 397.77777 Q 184.88889 397.77777 199.11111 395.1111 L 199.11111 447.55554 L 199.11111 447.55554 Q 200 453.77777 206.22223 454.66666 Q 212.44444 453.77777 213.33333 447.55554 L 213.33333 392.44446 L 213.33333 392.44446 Q 243.55556 384.44446 267.55554 367.55554 Q 290.66666 351.55554 315.55554 339.1111 Q 340.44446 327.55554 368 326.66666 L 412.44446 326.66666 L 412.44446 326.66666 Q 420.44446 326.66666 429.33334 325.77777 L 498.66666 451.1111 L 498.66666 451.1111 Q 501.33334 455.55554 506.66666 454.66666 Q 512 452.8889 512 447.55554 L 512 234.22223 L 512 234.22223 L 512 234.22223 L 512 234.22223 Q 512 230.66667 512 227.11111 Q 511.1111 184.44444 482.66666 156.88889 Q 455.1111 128.44444 412.44446 127.55556 L 368 127.55556 L 368 127.55556 Q 340.44446 126.666664 315.55554 115.111115 Q 290.66666 102.666664 268.44446 86.666664 Q 225.77777 57.333332 170.66667 56.444443 Q 97.77778 58.22222 49.77778 106.22222 Q 1.7777778 154.22223 0 227.11111 L 0 227.11111 Z M 497.77777 420 L 443.55554 322.22223 L 497.77777 420 L 443.55554 322.22223 Q 478.22223 309.77777 497.77777 278.66666 L 497.77777 420 L 497.77777 420 Z M 398.22223 241.33333 Q 411.55554 240.44444 412.44446 227.11111 Q 411.55554 213.77777 398.22223 212.88889 Q 384.8889 213.77777 384 227.11111 Q 384.8889 240.44444 398.22223 241.33333 L 398.22223 241.33333 Z" />
</svg>