<svg xmlns="http://www.w3.org/2000/svg" viewBox="0 0 512 512">
  <path d="M 16 256 Q 17 189 49 135 L 49 135 L 49 135 Q 81 81 135 49 L 135 49 L 135 49 Q 189 17 256 16 Q 323 17 377 49 Q 431 81 463 135 Q 495 189 496 256 Q 495 332 455 390 Q 415 449 349 477 Q 342 481 345 488 Q 348 494 355 492 Q 425 462 468 399 Q 511 337 512 256 Q 511 184 477 127 Q 443 69 385 35 Q 328 1 256 0 Q 184 1 127 35 Q 69 69 35 127 Q 1 184 0 256 Q 1 321 29 375 Q 58 429 107 464 Q 114 468 119 463 Q 122 456 117 451 Q 70 418 43 368 Q 17 317 16 256 L 16 256 Z M 136 210 Q 140 188 151 170 Q 162 152 176 152 Q 189 152 201 170 Q 212 188 216 210 Q 218 217 225 216 Q 232 214 232 207 Q 227 183 214 161 Q 201 139 176 136 Q 150 139 137 161 Q 124 183 120 207 Q 119 214 126 216 Q 134 217 135 210 L 136 210 Z M 311 170 Q 322 152 336 152 Q 349 152 361 170 Q 372 188 376 210 Q 378 217 385 216 Q 392 214 392 207 Q 387 183 374 161 Q 361 139 336 136 Q 310 139 297 161 Q 284 183 280 207 Q 279 214 286 216 Q 294 217 295 210 Q 299 188 311 170 L 311 170 Z M 309 293 L 318 284 L 309 293 L 318 284 L 325 277 L 325 277 Q 336 267 347 277 Q 357 288 347 299 L 341 306 L 341 306 L 331 315 L 331 315 L 285 362 L 285 362 L 280 367 L 280 367 Q 276 371 280 376 Q 285 380 289 376 L 294 371 L 294 371 L 341 325 L 341 325 Q 344 321 349 320 Q 357 319 363 325 Q 373 336 363 347 L 340 370 L 340 370 L 331 379 L 331 379 L 317 394 L 317 394 L 312 399 L 312 399 Q 308 403 312 408 Q 317 412 321 408 L 326 403 L 326 403 L 341 389 L 341 389 Q 344 385 349 384 Q 357 383 363 389 Q 373 400 363 411 L 306 468 L 306 468 Q 278 495 239 496 Q 199 495 172 468 Q 145 441 144 401 L 144 368 L 144 368 L 144 314 L 144 314 Q 146 296 164 294 Q 182 296 184 314 L 184 334 L 184 334 Q 184 340 189 341 Q 193 343 198 340 L 277 261 L 277 261 Q 288 252 299 261 Q 305 267 304 275 Q 303 280 299 283 L 253 330 L 253 330 L 248 335 L 248 335 Q 244 339 248 344 Q 253 348 257 344 L 262 339 L 262 339 L 309 293 L 309 293 Z M 311 249 Q 301 240 288 240 L 288 240 L 288 240 Q 275 240 265 249 L 200 315 L 200 315 L 200 314 L 200 314 Q 200 299 189 289 Q 179 279 164 278 Q 149 279 139 289 Q 128 299 128 314 L 128 368 L 128 368 L 128 401 L 128 401 Q 129 448 161 479 Q 192 511 239 512 Q 285 511 318 479 L 375 423 L 375 423 Q 384 413 384 400 Q 384 387 375 377 Q 370 372 363 370 L 375 359 L 375 359 Q 384 349 384 336 Q 384 323 375 313 Q 369 308 363 306 Q 375 284 359 265 Q 339 249 318 261 Q 316 255 311 249 L 311 249 Z" />
</svg>