<svg xmlns="http://www.w3.org/2000/svg" viewBox="0 0 640 512">
    <path d="M 336 16 Q 350 16 359 25 L 359 25 Q 368 34 368 48 L 368 464 Q 368 478 359 487 Q 350 496 336 496 L 240 496 L 240 416 Q 239 396 226 382 Q 212 369 192 368 Q 172 369 158 382 Q 145 396 144 416 L 144 496 L 48 496 Q 34 496 25 487 Q 16 478 16 464 L 16 48 Q 16 34 25 25 Q 34 16 48 16 L 336 16 L 336 16 Z M 224 416 L 224 496 L 160 496 L 160 416 Q 160 402 169 393 Q 178 384 192 384 Q 206 384 215 393 Q 224 402 224 416 L 224 416 Z M 48 512 L 144 512 L 160 512 L 224 512 L 240 512 L 336 512 Q 356 511 370 498 Q 383 484 384 464 L 384 48 Q 383 28 370 14 Q 356 1 336 0 L 48 0 Q 28 1 14 14 Q 1 28 0 48 L 0 464 Q 1 484 14 498 Q 28 511 48 512 L 48 512 Z M 80 256 L 80 288 Q 82 310 104 312 L 136 312 Q 158 310 160 288 L 160 256 Q 158 234 136 232 L 104 232 Q 82 234 80 256 L 80 256 Z M 104 248 L 136 248 Q 143 249 144 256 L 144 288 Q 143 295 136 296 L 104 296 Q 97 295 96 288 L 96 256 Q 97 249 104 248 L 104 248 Z M 248 232 Q 226 234 224 256 L 224 288 Q 226 310 248 312 L 280 312 Q 302 310 304 288 L 304 256 Q 302 234 280 232 L 248 232 L 248 232 Z M 240 256 Q 241 249 248 248 L 280 248 Q 287 249 288 256 L 288 288 Q 287 295 280 296 L 248 296 Q 241 295 240 288 L 240 256 L 240 256 Z M 80 128 L 80 160 Q 82 182 104 184 L 136 184 Q 158 182 160 160 L 160 128 Q 158 106 136 104 L 104 104 Q 82 106 80 128 L 80 128 Z M 104 120 L 136 120 Q 143 121 144 128 L 144 160 Q 143 167 136 168 L 104 168 Q 97 167 96 160 L 96 128 Q 97 121 104 120 L 104 120 Z M 248 104 Q 226 106 224 128 L 224 160 Q 226 182 248 184 L 280 184 Q 302 182 304 160 L 304 128 Q 302 106 280 104 L 248 104 L 248 104 Z M 240 128 Q 241 121 248 120 L 280 120 Q 287 121 288 128 L 288 160 Q 287 167 280 168 L 248 168 Q 241 167 240 160 L 240 128 L 240 128 Z M 624 240 Q 623 267 605 285 L 605 285 Q 587 303 560 304 L 536 304 L 536 288 Q 537 261 555 243 Q 573 225 600 224 L 624 224 L 624 240 L 624 240 Z M 528 318 Q 532 320 536 320 L 552 320 Q 537 332 528 349 Q 519 332 504 320 L 520 320 Q 524 320 528 318 L 528 318 Z M 448 304 L 432 304 Q 417 305 416 320 L 416 336 Q 417 377 448 400 L 432 400 Q 417 401 416 416 L 416 432 Q 417 466 439 489 Q 462 511 496 512 L 520 512 Q 524 512 528 510 Q 532 512 536 512 L 560 512 Q 594 511 617 489 Q 639 466 640 432 L 640 416 Q 639 401 624 400 L 608 400 Q 639 377 640 336 L 640 320 Q 639 305 624 304 L 608 304 Q 639 281 640 240 L 640 224 Q 639 209 624 208 L 600 208 Q 576 208 557 221 Q 538 233 528 253 Q 518 233 499 221 Q 480 208 456 208 L 432 208 Q 417 209 416 224 L 416 240 Q 417 281 448 304 L 448 304 Z M 520 288 L 520 304 L 496 304 Q 469 303 451 285 Q 433 267 432 240 L 432 224 L 456 224 Q 483 225 501 243 Q 519 261 520 288 L 520 288 Z M 624 336 Q 623 363 605 381 L 605 381 Q 587 399 560 400 L 536 400 L 536 384 Q 537 357 555 339 Q 573 321 600 320 L 624 320 L 624 336 L 624 336 Z M 528 414 Q 532 416 536 416 L 552 416 Q 537 428 528 445 Q 519 428 504 416 L 520 416 Q 524 416 528 414 L 528 414 Z M 520 384 L 520 400 L 496 400 Q 469 399 451 381 Q 433 363 432 336 L 432 320 L 456 320 Q 483 321 501 339 Q 519 357 520 384 L 520 384 Z M 624 416 L 624 432 Q 623 459 605 477 Q 587 495 560 496 L 536 496 L 536 480 Q 537 453 555 435 Q 573 417 600 416 L 624 416 L 624 416 Z M 520 496 L 496 496 Q 469 495 451 477 Q 433 459 432 432 L 432 416 L 456 416 Q 483 417 501 435 Q 519 453 520 480 L 520 496 L 520 496 Z M 528 32 Q 521 33 520 40 L 520 184 Q 521 191 528 192 Q 535 191 536 184 L 536 40 Q 535 33 528 32 L 528 32 Z M 608 72 Q 607 65 600 64 Q 593 65 592 72 L 592 152 Q 593 159 600 160 Q 607 159 608 152 L 608 72 L 608 72 Z M 456 64 Q 449 65 448 72 L 448 152 Q 449 159 456 160 Q 463 159 464 152 L 464 72 Q 463 65 456 64 L 456 64 Z"/>
</svg>
