<svg xmlns="http://www.w3.org/2000/svg" viewBox="0 0 512 512">
  <path d="M 376.8889 64 Q 377.77777 57.77778 384 56.88889 L 504.8889 56.88889 L 504.8889 56.88889 Q 511.1111 57.77778 512 64 Q 511.1111 70.22222 504.8889 71.111115 L 391.1111 71.111115 L 391.1111 71.111115 L 391.1111 192 L 391.1111 192 Q 390.22223 198.22223 384 199.11111 L 263.1111 199.11111 L 263.1111 199.11111 L 263.1111 320 L 263.1111 320 Q 262.22223 326.22223 256 327.1111 L 135.11111 327.1111 L 135.11111 327.1111 L 135.11111 448 L 135.11111 448 Q 134.22223 454.22223 128 455.1111 L 7.111111 455.1111 L 7.111111 455.1111 Q 0.8888889 454.22223 0 448 Q 0.8888889 441.77777 7.111111 440.8889 L 120.888885 440.8889 L 120.888885 440.8889 L 120.888885 320 L 120.888885 320 Q 121.77778 313.77777 128 312.8889 L 248.88889 312.8889 L 248.88889 312.8889 L 248.88889 192 L 248.88889 192 Q 249.77777 185.77777 256 184.88889 L 376.8889 184.88889 L 376.8889 184.88889 L 376.8889 64 L 376.8889 64 Z" />
</svg>