<svg xmlns="http://www.w3.org/2000/svg" viewBox="0 0 512 448">
    <path d="M 16 256 Q 17 189 49 135 L 49 135 Q 81 81 135 49 L 135 49 Q 189 17 256 16 Q 323 17 377 49 Q 431 81 463 135 Q 495 189 496 256 L 496 344 Q 497 351 504 352 Q 511 351 512 344 L 512 256 Q 511 184 477 127 Q 443 69 385 35 Q 328 1 256 0 Q 184 1 127 35 Q 69 69 35 127 Q 1 184 0 256 L 0 344 Q 1 351 8 352 Q 15 351 16 344 L 16 256 L 16 256 Z M 144 240 Q 159 241 160 256 L 160 416 Q 159 431 144 432 L 128 432 Q 101 431 83 413 Q 65 395 64 368 L 64 304 Q 65 277 83 259 Q 101 241 128 240 L 144 240 L 144 240 Z M 128 224 Q 94 225 71 247 L 71 247 Q 49 270 48 304 L 48 368 Q 49 402 71 425 Q 94 447 128 448 L 144 448 Q 158 448 167 439 Q 176 430 176 416 L 176 256 Q 176 242 167 233 Q 158 224 144 224 L 128 224 L 128 224 Z M 368 240 L 384 240 Q 411 241 429 259 Q 447 277 448 304 L 448 368 Q 447 395 429 413 Q 411 431 384 432 L 368 432 Q 353 431 352 416 L 352 256 Q 353 241 368 240 L 368 240 Z M 384 224 L 368 224 Q 354 224 345 233 Q 336 242 336 256 L 336 416 Q 336 430 345 439 Q 354 448 368 448 L 384 448 Q 418 447 441 425 Q 463 402 464 368 L 464 304 Q 463 270 441 247 Q 418 225 384 224 L 384 224 Z"/>
</svg>
