<svg xmlns="http://www.w3.org/2000/svg" viewBox="0 0 512 512">
  <path d="M 475.42856 18.285715 Q 492.57144 19.428572 493.7143 36.57143 L 493.7143 73.14286 L 493.7143 73.14286 Q 492.57144 90.28571 475.42856 91.42857 L 438.85715 91.42857 L 438.85715 91.42857 Q 421.7143 90.28571 420.57144 73.14286 L 420.57144 36.57143 L 420.57144 36.57143 Q 421.7143 19.428572 438.85715 18.285715 L 475.42856 18.285715 L 475.42856 18.285715 Z M 438.85715 0 Q 422.85715 0 412.57144 10.285714 L 412.57144 10.285714 L 412.57144 10.285714 Q 402.2857 20.571428 402.2857 36.57143 L 402.2857 45.714287 L 402.2857 45.714287 L 109.71429 45.714287 L 109.71429 45.714287 L 109.71429 36.57143 L 109.71429 36.57143 Q 109.71429 20.571428 99.42857 10.285714 Q 89.14286 0 73.14286 0 L 36.57143 0 L 36.57143 0 Q 20.571428 0 10.285714 10.285714 Q 0 20.571428 0 36.57143 L 0 73.14286 L 0 73.14286 Q 0 89.14286 10.285714 99.42857 Q 20.571428 109.71429 36.57143 109.71429 L 45.714287 109.71429 L 45.714287 109.71429 L 45.714287 402.2857 L 45.714287 402.2857 L 36.57143 402.2857 L 36.57143 402.2857 Q 20.571428 402.2857 10.285714 412.57144 Q 0 422.85715 0 438.85715 L 0 475.42856 L 0 475.42856 Q 0 491.42856 10.285714 501.7143 Q 20.571428 512 36.57143 512 L 73.14286 512 L 73.14286 512 Q 89.14286 512 99.42857 501.7143 Q 109.71429 491.42856 109.71429 475.42856 L 109.71429 466.2857 L 109.71429 466.2857 L 402.2857 466.2857 L 402.2857 466.2857 L 402.2857 475.42856 L 402.2857 475.42856 Q 402.2857 491.42856 412.57144 501.7143 Q 422.85715 512 438.85715 512 L 475.42856 512 L 475.42856 512 Q 491.42856 512 501.7143 501.7143 Q 512 491.42856 512 475.42856 L 512 438.85715 L 512 438.85715 Q 512 422.85715 501.7143 412.57144 Q 491.42856 402.2857 475.42856 402.2857 L 466.2857 402.2857 L 466.2857 402.2857 L 466.2857 109.71429 L 466.2857 109.71429 L 475.42856 109.71429 L 475.42856 109.71429 Q 491.42856 109.71429 501.7143 99.42857 Q 512 89.14286 512 73.14286 L 512 36.57143 L 512 36.57143 Q 512 20.571428 501.7143 10.285714 Q 491.42856 0 475.42856 0 L 438.85715 0 L 438.85715 0 Z M 64 402.2857 L 64 109.71429 L 64 402.2857 L 64 109.71429 L 73.14286 109.71429 L 73.14286 109.71429 Q 89.14286 109.71429 99.42857 99.42857 Q 109.71429 89.14286 109.71429 73.14286 L 109.71429 64 L 109.71429 64 L 402.2857 64 L 402.2857 64 L 402.2857 73.14286 L 402.2857 73.14286 Q 402.2857 89.14286 412.57144 99.42857 Q 422.85715 109.71429 438.85715 109.71429 L 448 109.71429 L 448 109.71429 L 448 402.2857 L 448 402.2857 L 438.85715 402.2857 L 438.85715 402.2857 Q 422.85715 402.2857 412.57144 412.57144 Q 402.2857 422.85715 402.2857 438.85715 L 402.2857 448 L 402.2857 448 L 109.71429 448 L 109.71429 448 L 109.71429 438.85715 L 109.71429 438.85715 Q 109.71429 422.85715 99.42857 412.57144 Q 89.14286 402.2857 73.14286 402.2857 L 64 402.2857 L 64 402.2857 Z M 36.57143 420.57144 L 73.14286 420.57144 L 36.57143 420.57144 L 73.14286 420.57144 Q 90.28571 421.7143 91.42857 438.85715 L 91.42857 475.42856 L 91.42857 475.42856 Q 90.28571 492.57144 73.14286 493.7143 L 36.57143 493.7143 L 36.57143 493.7143 Q 19.428572 492.57144 18.285715 475.42856 L 18.285715 438.85715 L 18.285715 438.85715 Q 19.428572 421.7143 36.57143 420.57144 L 36.57143 420.57144 Z M 438.85715 420.57144 L 475.42856 420.57144 L 438.85715 420.57144 L 475.42856 420.57144 Q 492.57144 421.7143 493.7143 438.85715 L 493.7143 475.42856 L 493.7143 475.42856 Q 492.57144 492.57144 475.42856 493.7143 L 438.85715 493.7143 L 438.85715 493.7143 Q 421.7143 492.57144 420.57144 475.42856 L 420.57144 438.85715 L 420.57144 438.85715 Q 421.7143 421.7143 438.85715 420.57144 L 438.85715 420.57144 Z M 36.57143 18.285715 L 73.14286 18.285715 L 36.57143 18.285715 L 73.14286 18.285715 Q 90.28571 19.428572 91.42857 36.57143 L 91.42857 73.14286 L 91.42857 73.14286 Q 90.28571 90.28571 73.14286 91.42857 L 36.57143 91.42857 L 36.57143 91.42857 Q 19.428572 90.28571 18.285715 73.14286 L 18.285715 36.57143 L 18.285715 36.57143 Q 19.428572 19.428572 36.57143 18.285715 L 36.57143 18.285715 Z" />
</svg>