<svg xmlns="http://www.w3.org/2000/svg" viewBox="0 0 512 512">
  <path d="M 455.1111111111111 71.11111111111111 Q 472.8888888888889 72 485.3333333333333 83.55555555555556 L 485.3333333333333 83.55555555555556 L 485.3333333333333 83.55555555555556 Q 496.8888888888889 96 497.77777777777777 113.77777777777777 L 497.77777777777777 398.22222222222223 L 497.77777777777777 398.22222222222223 Q 496.8888888888889 416 485.3333333333333 428.44444444444446 Q 472.8888888888889 440 455.1111111111111 440.8888888888889 L 56.888888888888886 440.8888888888889 L 56.888888888888886 440.8888888888889 Q 39.111111111111114 440 26.666666666666668 428.44444444444446 Q 15.11111111111111 416 14.222222222222221 398.22222222222223 L 14.222222222222221 113.77777777777777 L 14.222222222222221 113.77777777777777 Q 15.11111111111111 96 26.666666666666668 83.55555555555556 Q 39.111111111111114 72 56.888888888888886 71.11111111111111 L 455.1111111111111 71.11111111111111 L 455.1111111111111 71.11111111111111 Z M 56.888888888888886 56.888888888888886 Q 32.888888888888886 57.77777777777778 16.88888888888889 73.77777777777777 L 16.88888888888889 73.77777777777777 L 16.88888888888889 73.77777777777777 Q 0.8888888888888888 89.77777777777777 0 113.77777777777777 L 0 398.22222222222223 L 0 398.22222222222223 Q 0.8888888888888888 422.22222222222223 16.88888888888889 438.22222222222223 Q 32.888888888888886 454.22222222222223 56.888888888888886 455.1111111111111 L 455.1111111111111 455.1111111111111 L 455.1111111111111 455.1111111111111 Q 479.1111111111111 454.22222222222223 495.1111111111111 438.22222222222223 Q 511.1111111111111 422.22222222222223 512 398.22222222222223 L 512 113.77777777777777 L 512 113.77777777777777 Q 511.1111111111111 89.77777777777777 495.1111111111111 73.77777777777777 Q 479.1111111111111 57.77777777777778 455.1111111111111 56.888888888888886 L 56.888888888888886 56.888888888888886 L 56.888888888888886 56.888888888888886 Z M 170.66666666666666 170.66666666666666 Q 171.55555555555554 176.88888888888889 177.77777777777777 177.77777777777777 L 391.1111111111111 177.77777777777777 L 391.1111111111111 177.77777777777777 Q 397.3333333333333 176.88888888888889 398.22222222222223 170.66666666666666 Q 397.3333333333333 164.44444444444446 391.1111111111111 163.55555555555554 L 177.77777777777777 163.55555555555554 L 177.77777777777777 163.55555555555554 Q 171.55555555555554 164.44444444444446 170.66666666666666 170.66666666666666 L 170.66666666666666 170.66666666666666 Z M 170.66666666666666 256 Q 171.55555555555554 262.22222222222223 177.77777777777777 263.1111111111111 L 391.1111111111111 263.1111111111111 L 391.1111111111111 263.1111111111111 Q 397.3333333333333 262.22222222222223 398.22222222222223 256 Q 397.3333333333333 249.77777777777777 391.1111111111111 248.88888888888889 L 177.77777777777777 248.88888888888889 L 177.77777777777777 248.88888888888889 Q 171.55555555555554 249.77777777777777 170.66666666666666 256 L 170.66666666666666 256 Z M 170.66666666666666 341.3333333333333 Q 171.55555555555554 347.55555555555554 177.77777777777777 348.44444444444446 L 391.1111111111111 348.44444444444446 L 391.1111111111111 348.44444444444446 Q 397.3333333333333 347.55555555555554 398.22222222222223 341.3333333333333 Q 397.3333333333333 335.1111111111111 391.1111111111111 334.22222222222223 L 177.77777777777777 334.22222222222223 L 177.77777777777777 334.22222222222223 Q 171.55555555555554 335.1111111111111 170.66666666666666 341.3333333333333 L 170.66666666666666 341.3333333333333 Z M 113.77777777777777 156.44444444444446 Q 100.44444444444444 157.33333333333334 99.55555555555556 170.66666666666666 Q 100.44444444444444 184 113.77777777777777 184.88888888888889 Q 127.11111111111111 184 128 170.66666666666666 Q 127.11111111111111 157.33333333333334 113.77777777777777 156.44444444444446 L 113.77777777777777 156.44444444444446 Z M 128 256 Q 127.11111111111111 242.66666666666666 113.77777777777777 241.77777777777777 Q 100.44444444444444 242.66666666666666 99.55555555555556 256 Q 100.44444444444444 269.3333333333333 113.77777777777777 270.22222222222223 Q 127.11111111111111 269.3333333333333 128 256 L 128 256 Z M 113.77777777777777 327.1111111111111 Q 100.44444444444444 328 99.55555555555556 341.3333333333333 Q 100.44444444444444 354.6666666666667 113.77777777777777 355.55555555555554 Q 127.11111111111111 354.6666666666667 128 341.3333333333333 Q 127.11111111111111 328 113.77777777777777 327.1111111111111 L 113.77777777777777 327.1111111111111 Z" />
</svg>