<svg xmlns="http://www.w3.org/2000/svg" viewBox="0 0 512 512">
  <path d="M 73.14285714285714 18.285714285714285 Q 50.285714285714285 19.428571428571427 34.285714285714285 34.285714285714285 L 34.285714285714285 34.285714285714285 L 34.285714285714285 34.285714285714285 Q 19.428571428571427 50.285714285714285 18.285714285714285 73.14285714285714 L 18.285714285714285 438.85714285714283 L 18.285714285714285 438.85714285714283 Q 19.428571428571427 461.7142857142857 34.285714285714285 477.7142857142857 Q 50.285714285714285 492.57142857142856 73.14285714285714 493.7142857142857 L 438.85714285714283 493.7142857142857 L 438.85714285714283 493.7142857142857 Q 461.7142857142857 492.57142857142856 477.7142857142857 477.7142857142857 Q 492.57142857142856 461.7142857142857 493.7142857142857 438.85714285714283 L 493.7142857142857 73.14285714285714 L 493.7142857142857 73.14285714285714 Q 492.57142857142856 50.285714285714285 477.7142857142857 34.285714285714285 Q 461.7142857142857 19.428571428571427 438.85714285714283 18.285714285714285 L 73.14285714285714 18.285714285714285 L 73.14285714285714 18.285714285714285 Z M 0 73.14285714285714 Q 1.1428571428571428 42.285714285714285 21.714285714285715 21.714285714285715 L 21.714285714285715 21.714285714285715 L 21.714285714285715 21.714285714285715 Q 42.285714285714285 1.1428571428571428 73.14285714285714 0 L 438.85714285714283 0 L 438.85714285714283 0 Q 469.7142857142857 1.1428571428571428 490.2857142857143 21.714285714285715 Q 510.85714285714283 42.285714285714285 512 73.14285714285714 L 512 438.85714285714283 L 512 438.85714285714283 Q 510.85714285714283 469.7142857142857 490.2857142857143 490.2857142857143 Q 469.7142857142857 510.85714285714283 438.85714285714283 512 L 73.14285714285714 512 L 73.14285714285714 512 Q 42.285714285714285 510.85714285714283 21.714285714285715 490.2857142857143 Q 1.1428571428571428 469.7142857142857 0 438.85714285714283 L 0 73.14285714285714 L 0 73.14285714285714 Z M 201.14285714285714 194.28571428571428 L 108.57142857142857 208 L 201.14285714285714 194.28571428571428 L 108.57142857142857 208 L 174.85714285714286 273.14285714285717 L 174.85714285714286 273.14285714285717 Q 181.71428571428572 280 180.57142857142858 289.14285714285717 L 164.57142857142858 381.7142857142857 L 164.57142857142858 381.7142857142857 L 248 338.2857142857143 L 248 338.2857142857143 Q 256 333.7142857142857 265.14285714285717 338.2857142857143 L 347.42857142857144 381.7142857142857 L 347.42857142857144 381.7142857142857 L 331.42857142857144 289.14285714285717 L 331.42857142857144 289.14285714285717 Q 330.2857142857143 280 337.14285714285717 273.14285714285717 L 403.42857142857144 208 L 403.42857142857144 208 L 310.85714285714283 194.28571428571428 L 310.85714285714283 194.28571428571428 Q 301.7142857142857 193.14285714285714 297.14285714285717 184 L 256 100.57142857142857 L 256 100.57142857142857 L 214.85714285714286 184 L 214.85714285714286 184 Q 210.28571428571428 193.14285714285714 201.14285714285714 194.28571428571428 L 201.14285714285714 194.28571428571428 Z M 406.85714285714283 189.71428571428572 Q 417.14285714285717 192 420.57142857142856 202.28571428571428 Q 424 212.57142857142858 416 220.57142857142858 L 349.7142857142857 286.85714285714283 L 349.7142857142857 286.85714285714283 L 365.7142857142857 378.2857142857143 L 365.7142857142857 378.2857142857143 Q 366.85714285714283 389.7142857142857 357.7142857142857 396.57142857142856 Q 348.57142857142856 402.2857142857143 338.2857142857143 397.7142857142857 L 256 354.2857142857143 L 256 354.2857142857143 L 173.71428571428572 397.7142857142857 L 173.71428571428572 397.7142857142857 Q 163.42857142857142 402.2857142857143 154.28571428571428 396.57142857142856 Q 145.14285714285714 389.7142857142857 146.28571428571428 378.2857142857143 L 162.28571428571428 286.85714285714283 L 162.28571428571428 286.85714285714283 L 96 220.57142857142858 L 96 220.57142857142858 Q 88 212.57142857142858 91.42857142857143 202.28571428571428 Q 94.85714285714286 192 105.14285714285714 189.71428571428572 L 198.85714285714286 176 L 198.85714285714286 176 L 240 92.57142857142857 L 240 92.57142857142857 Q 244.57142857142858 82.28571428571429 256 82.28571428571429 Q 267.42857142857144 82.28571428571429 272 92.57142857142857 L 314.2857142857143 176 L 314.2857142857143 176 L 406.85714285714283 189.71428571428572 L 406.85714285714283 189.71428571428572 Z" />
</svg>