<svg xmlns="http://www.w3.org/2000/svg" viewBox="0 0 576 384">
    <path d="M 278 50 Q 288 57 298 50 Q 335 19 376 16 Q 403 17 433 34 Q 463 51 488 71 Q 516 94 536 116 Q 558 139 560 160 Q 558 184 544 211 L 558 218 L 544 211 Q 528 243 498 279 Q 468 314 424 340 Q 379 367 320 368 L 256 368 Q 197 367 152 340 Q 108 314 78 279 Q 39 235 20 183 Q 16 170 16 160 Q 18 139 40 116 Q 60 94 88 71 Q 113 51 143 34 Q 173 17 200 16 Q 241 19 278 50 L 278 50 Z M 510 289 Q 542 251 558 218 Q 573 191 576 160 Q 576 144 567 130 Q 559 117 548 105 Q 527 82 498 59 Q 472 38 441 20 Q 409 1 376 0 Q 351 0 329 11 Q 307 22 288 37 Q 269 22 247 11 Q 225 0 200 0 Q 167 1 135 20 Q 104 38 78 59 Q 49 82 28 105 Q 17 117 9 130 Q 0 144 0 160 Q 1 174 5 188 Q 26 244 66 289 Q 97 326 145 354 Q 192 383 256 384 L 320 384 Q 384 383 431 354 Q 479 326 510 289 L 510 289 Z M 354 145 Q 358 144 362 144 Q 420 146 448 156 Q 462 160 469 164 Q 469 164 470 165 Q 470 165 470 165 Q 467 169 462 174 Q 450 187 426 202 Q 402 217 368 228 Q 333 239 288 240 Q 243 239 208 228 Q 174 217 150 202 Q 126 187 114 174 Q 108 169 106 165 Q 106 164 107 164 Q 114 160 128 155 Q 156 146 214 144 Q 218 144 222 145 Q 232 148 251 153 Q 270 157 288 158 Q 306 157 325 153 Q 344 148 354 145 L 354 145 Z M 473 167 Q 473 167 473 167 Q 472 167 472 167 Q 472 167 472 167 Q 472 168 473 168 Q 473 168 473 167 Q 473 167 473 167 L 473 167 Z M 103 167 Q 103 167 103 167 Q 104 168 104 167 Q 104 167 104 167 Q 103 167 103 167 L 103 167 Z M 362 128 Q 355 128 349 130 Q 339 133 322 137 Q 304 141 288 142 Q 272 141 254 137 Q 237 133 227 130 Q 221 128 214 128 Q 154 130 123 140 Q 108 145 99 150 Q 95 152 92 155 Q 89 157 88 164 Q 88 166 89 167 Q 89 167 89 168 Q 89 169 90 170 Q 91 172 93 174 Q 96 179 103 186 Q 116 199 141 215 Q 167 232 204 243 Q 240 255 288 256 Q 336 255 372 244 Q 409 232 435 215 Q 460 199 473 186 Q 480 179 483 174 Q 485 172 486 170 Q 487 169 487 168 Q 488 167 488 164 Q 487 158 484 155 Q 481 153 477 150 Q 468 145 453 140 Q 422 130 362 128 L 362 128 Z"/>
</svg>
