<svg xmlns="http://www.w3.org/2000/svg" viewBox="0 0 512 512">
  <path d="M 102.4 57.6 Q 103.2 63.2 108.8 64 L 184.8 64 L 184.8 64 L 178.4 102.4 L 178.4 102.4 Q 162.4 103.2 152 113.6 Q 141.6 124.8 140.8 140.8 Q 141.6 156.8 152 168 Q 163.2 178.4 179.2 179.2 Q 207.2 177.6 216 152 L 364.8 172 L 364.8 172 L 364.8 217.6 L 364.8 217.6 Q 365.6 223.2 371.2 224 Q 376.8 223.2 377.6 217.6 L 377.6 166.4 L 377.6 166.4 Q 376.8 160.8 372 160 L 217.6 139.2 L 217.6 139.2 Q 215.2 113.6 191.2 104 L 197.6 64 L 197.6 64 L 275.2 64 L 275.2 64 Q 280.8 63.2 281.6 57.6 Q 280.8 52 275.2 51.2 L 108.8 51.2 L 108.8 51.2 Q 103.2 52 102.4 57.6 L 102.4 57.6 Z M 153.6 140.8 Q 153.6 129.6 160.8 122.4 L 160.8 122.4 L 160.8 122.4 Q 168 115.2 179.2 115.2 Q 190.4 115.2 197.6 122.4 Q 204.8 129.6 204.8 140.8 Q 204.8 152 197.6 159.2 Q 190.4 166.4 179.2 166.4 Q 168 166.4 160.8 159.2 Q 153.6 152 153.6 140.8 L 153.6 140.8 Z M 396.8 275.2 L 396.8 307.2 L 396.8 275.2 L 396.8 307.2 L 345.6 307.2 L 345.6 307.2 L 345.6 275.2 L 345.6 275.2 Q 346.4 269.6 352 268.8 L 390.4 268.8 L 390.4 268.8 Q 396 269.6 396.8 275.2 L 396.8 275.2 Z M 332.8 275.2 L 332.8 307.2 L 332.8 275.2 L 332.8 307.2 L 281.6 307.2 L 281.6 307.2 L 281.6 275.2 L 281.6 275.2 Q 280 257.6 262.4 256 L 224 256 L 224 256 Q 206.4 257.6 204.8 275.2 L 204.8 307.2 L 204.8 307.2 L 153.6 307.2 L 153.6 307.2 L 153.6 275.2 L 153.6 275.2 Q 152 257.6 134.4 256 L 96 256 L 96 256 Q 78.4 257.6 76.8 275.2 L 76.8 307.2 L 76.8 307.2 Q 44 308 22.4 329.6 Q 0.8 351.2 0 384 Q 0.8 416.8 22.4 438.4 Q 44 460 76.8 460.8 L 435.2 460.8 L 435.2 460.8 Q 468 460 489.6 438.4 Q 511.2 416.8 512 384 Q 511.2 351.2 489.6 329.6 Q 468 308 435.2 307.2 L 409.6 307.2 L 409.6 307.2 L 409.6 275.2 L 409.6 275.2 Q 408 257.6 390.4 256 L 352 256 L 352 256 Q 334.4 257.6 332.8 275.2 L 332.8 275.2 Z M 140.8 320 L 153.6 320 L 140.8 320 L 435.2 320 Q 462.4 320.8 480.8 338.4 Q 498.4 356.8 499.2 384 Q 498.4 411.2 480.8 429.6 Q 462.4 447.2 435.2 448 L 76.8 448 L 76.8 448 Q 49.6 447.2 31.2 429.6 Q 13.6 411.2 12.8 384 Q 13.6 356.8 31.2 338.4 Q 49.6 320.8 76.8 320 L 89.6 320 L 140.8 320 Z M 140.8 275.2 L 140.8 307.2 L 140.8 275.2 L 140.8 307.2 L 89.6 307.2 L 89.6 307.2 L 89.6 275.2 L 89.6 275.2 Q 90.4 269.6 96 268.8 L 134.4 268.8 L 134.4 268.8 Q 140 269.6 140.8 275.2 L 140.8 275.2 Z M 217.6 307.2 L 217.6 275.2 L 217.6 307.2 L 217.6 275.2 Q 218.4 269.6 224 268.8 L 262.4 268.8 L 262.4 268.8 Q 268 269.6 268.8 275.2 L 268.8 307.2 L 268.8 307.2 L 217.6 307.2 L 217.6 307.2 Z M 64 384 Q 64 372.8 71.2 365.6 L 71.2 365.6 L 71.2 365.6 Q 78.4 358.4 89.6 358.4 Q 100.8 358.4 108 365.6 Q 115.2 372.8 115.2 384 Q 115.2 395.2 108 402.4 Q 100.8 409.6 89.6 409.6 Q 78.4 409.6 71.2 402.4 Q 64 395.2 64 384 L 64 384 Z M 128 384 Q 127.2 362.4 108.8 350.4 Q 89.6 340.8 70.4 350.4 Q 52 362.4 51.2 384 Q 52 405.6 70.4 417.6 Q 89.6 427.2 108.8 417.6 Q 127.2 405.6 128 384 L 128 384 Z M 256 358.4 Q 267.2 358.4 274.4 365.6 L 274.4 365.6 L 274.4 365.6 Q 281.6 372.8 281.6 384 Q 281.6 395.2 274.4 402.4 Q 267.2 409.6 256 409.6 Q 244.8 409.6 237.6 402.4 Q 230.4 395.2 230.4 384 Q 230.4 372.8 237.6 365.6 Q 244.8 358.4 256 358.4 L 256 358.4 Z M 256 422.4 Q 277.6 421.6 289.6 403.2 Q 299.2 384 289.6 364.8 Q 277.6 346.4 256 345.6 Q 234.4 346.4 222.4 364.8 Q 212.8 384 222.4 403.2 Q 234.4 421.6 256 422.4 L 256 422.4 Z M 396.8 384 Q 396.8 372.8 404 365.6 L 404 365.6 L 404 365.6 Q 411.2 358.4 422.4 358.4 Q 433.6 358.4 440.8 365.6 Q 448 372.8 448 384 Q 448 395.2 440.8 402.4 Q 433.6 409.6 422.4 409.6 Q 411.2 409.6 404 402.4 Q 396.8 395.2 396.8 384 L 396.8 384 Z M 460.8 384 Q 460 362.4 441.6 350.4 Q 422.4 340.8 403.2 350.4 Q 384.8 362.4 384 384 Q 384.8 405.6 403.2 417.6 Q 422.4 427.2 441.6 417.6 Q 460 405.6 460.8 384 L 460.8 384 Z" />
</svg>