<svg xmlns="http://www.w3.org/2000/svg" viewBox="0 0 512 512">
  <path d="M 201.0201342281879 53.261744966442954 Q 188.13422818791946 54.12080536912752 187.2751677852349 67.00671140939598 L 187.2751677852349 149.4765100671141 L 187.2751677852349 149.4765100671141 L 385.71812080536915 149.4765100671141 L 385.71812080536915 149.4765100671141 L 313.5570469798658 60.993288590604024 L 313.5570469798658 60.993288590604024 Q 307.5436241610738 53.261744966442954 298.09395973154363 53.261744966442954 L 201.0201342281879 53.261744966442954 L 201.0201342281879 53.261744966442954 Z M 56.69798657718121 149.4765100671141 L 173.53020134228188 149.4765100671141 L 56.69798657718121 149.4765100671141 L 173.53020134228188 149.4765100671141 L 173.53020134228188 67.00671140939598 L 173.53020134228188 67.00671140939598 Q 173.53020134228188 54.97986577181208 181.26174496644296 47.24832214765101 Q 188.99328859060404 39.51677852348993 201.0201342281879 39.51677852348993 L 298.09395973154363 39.51677852348993 L 298.09395973154363 39.51677852348993 Q 314.4161073825503 39.51677852348993 324.7248322147651 52.40268456375839 L 403.758389261745 149.4765100671141 L 403.758389261745 149.4765100671141 L 455.3020134228188 149.4765100671141 L 455.3020134228188 149.4765100671141 Q 475.91946308724835 150.33557046979865 489.66442953020135 163.2214765100671 Q 502.5503355704698 176.96644295302013 503.40939597315435 197.58389261744966 L 503.40939597315435 256 L 503.40939597315435 256 Q 505.9865771812081 258.5771812080537 508.56375838926175 261.1543624161074 Q 512 266.30872483221475 508.56375838926175 270.6040268456376 Q 503.40939597315435 274.0402684563758 498.255033557047 270.6040268456376 Q 457.02013422818794 226.79194630872485 393.4496644295302 225.0738255033557 Q 354.79194630872485 225.0738255033557 323.86577181208054 243.11409395973155 Q 292.08053691275165 260.2953020134228 272.32214765100673 290.36241610738256 Q 270.6040268456376 293.7986577181208 267.1677852348993 293.7986577181208 L 245.69127516778522 293.7986577181208 L 245.69127516778522 293.7986577181208 Q 241.39597315436242 293.7986577181208 239.6778523489933 290.36241610738256 Q 219.91946308724832 260.2953020134228 188.13422818791946 243.11409395973155 Q 157.20805369127515 225.0738255033557 118.5503355704698 225.0738255033557 Q 54.97986577181208 226.79194630872485 13.74496644295302 270.6040268456376 Q 8.590604026845638 274.8993288590604 4.295302013422819 270.6040268456376 Q 0 265.4496644295302 3.436241610738255 261.1543624161074 Q 6.0134228187919465 258.5771812080537 8.590604026845638 256 L 8.590604026845638 197.58389261744966 L 8.590604026845638 197.58389261744966 Q 9.449664429530202 176.96644295302013 22.335570469798657 163.2214765100671 Q 36.080536912751676 150.33557046979865 56.69798657718121 149.4765100671141 L 56.69798657718121 149.4765100671141 Z M 22.335570469798657 243.9731543624161 Q 63.57046979865772 212.18791946308724 118.5503355704698 211.3288590604027 Q 159.78523489932886 211.3288590604027 193.28859060402684 230.2281879194631 Q 226.79194630872485 248.26845637583892 249.1275167785235 280.0536912751678 L 262.8724832214765 280.0536912751678 L 262.8724832214765 280.0536912751678 Q 285.20805369127515 248.26845637583892 318.71140939597313 230.2281879194631 Q 352.2147651006711 211.3288590604027 393.4496644295302 211.3288590604027 Q 448.4295302013423 212.18791946308724 489.66442953020135 243.9731543624161 L 489.66442953020135 197.58389261744966 L 489.66442953020135 197.58389261744966 Q 489.66442953020135 182.9798657718121 479.3557046979866 173.53020134228188 Q 469.90604026845637 163.2214765100671 455.3020134228188 163.2214765100671 L 400.32214765100673 163.2214765100671 L 400.32214765100673 163.2214765100671 L 400.32214765100673 163.2214765100671 L 400.32214765100673 163.2214765100671 L 180.40268456375838 163.2214765100671 L 56.69798657718121 163.2214765100671 Q 42.09395973154363 163.2214765100671 32.644295302013425 173.53020134228188 Q 22.335570469798657 182.9798657718121 22.335570469798657 197.58389261744966 L 22.335570469798657 243.9731543624161 L 22.335570469798657 243.9731543624161 Z M 113.39597315436242 266.30872483221475 Q 103.08724832214764 267.1677852348993 99.6510067114094 277.4765100671141 Q 98.79194630872483 280.9127516778523 95.35570469798658 282.6308724832215 Q 86.76510067114094 285.20805369127515 78.1744966442953 289.503355704698 Q 74.73825503355705 291.22147651006713 71.30201342281879 289.503355704698 Q 61.852348993288594 283.48993288590606 54.12080536912752 291.22147651006713 L 47.24832214765101 298.09395973154363 L 47.24832214765101 298.09395973154363 Q 39.51677852348993 306.6845637583893 45.53020134228188 315.2751677852349 Q 47.24832214765101 318.71140939597313 45.53020134228188 322.1476510067114 Q 41.23489932885906 330.73825503355704 38.65771812080537 339.3288590604027 Q 36.939597315436245 342.76510067114094 33.50335570469799 343.6241610738255 Q 23.19463087248322 346.2013422818792 22.335570469798657 357.3691275167785 L 22.335570469798657 367.67785234899327 L 22.335570469798657 367.67785234899327 Q 23.19463087248322 378.8456375838926 33.50335570469799 381.4228187919463 Q 36.939597315436245 382.28187919463085 38.65771812080537 385.71812080536915 Q 41.23489932885906 394.30872483221475 45.53020134228188 402.8993288590604 Q 47.24832214765101 406.33557046979865 45.53020134228188 409.7718120805369 Q 39.51677852348993 419.22147651006713 47.24832214765101 426.9530201342282 L 54.12080536912752 434.6845637583893 L 54.12080536912752 434.6845637583893 Q 62.711409395973156 441.5570469798658 71.30201342281879 436.4026845637584 Q 74.73825503355705 433.8255033557047 79.03355704697987 435.5436241610738 Q 86.76510067114094 439.83892617449663 95.35570469798658 442.4161073825503 Q 98.79194630872483 444.13422818791946 99.6510067114094 447.5704697986577 Q 103.08724832214764 457.87919463087246 113.39597315436242 458.73825503355704 L 123.70469798657719 458.73825503355704 L 123.70469798657719 458.73825503355704 Q 134.8724832214765 457.87919463087246 137.4496644295302 447.5704697986577 Q 138.30872483221478 444.13422818791946 141.74496644295303 442.4161073825503 Q 151.19463087248323 439.83892617449663 158.9261744966443 435.5436241610738 Q 162.36241610738256 433.8255033557047 165.7986577181208 436.4026845637584 Q 175.248322147651 441.5570469798658 182.9798657718121 434.6845637583893 L 190.71140939597316 426.9530201342282 L 190.71140939597316 426.9530201342282 Q 197.58389261744966 418.36241610738256 192.4295302013423 409.7718120805369 Q 189.8523489932886 406.33557046979865 191.5704697986577 402.8993288590604 Q 195.86577181208054 394.30872483221475 198.44295302013424 385.71812080536915 Q 200.16107382550337 382.28187919463085 203.59731543624162 381.4228187919463 Q 213.90604026845637 378.8456375838926 214.76510067114094 367.67785234899327 L 214.76510067114094 357.3691275167785 L 214.76510067114094 357.3691275167785 Q 213.90604026845637 347.06040268456377 203.59731543624162 343.6241610738255 Q 200.16107382550337 342.76510067114094 198.44295302013424 339.3288590604027 Q 195.86577181208054 330.73825503355704 191.5704697986577 322.1476510067114 Q 189.8523489932886 318.71140939597313 192.4295302013423 315.2751677852349 Q 197.58389261744966 305.8255033557047 190.71140939597316 298.09395973154363 L 182.9798657718121 291.22147651006713 L 182.9798657718121 291.22147651006713 Q 175.248322147651 283.48993288590606 165.7986577181208 289.503355704698 Q 162.36241610738256 291.22147651006713 158.9261744966443 289.503355704698 Q 151.19463087248323 285.20805369127515 141.74496644295303 282.6308724832215 Q 138.30872483221478 280.9127516778523 137.4496644295302 277.4765100671141 Q 134.8724832214765 267.1677852348993 123.70469798657719 266.30872483221475 L 113.39597315436242 266.30872483221475 L 113.39597315436242 266.30872483221475 Z M 87.6241610738255 270.6040268456376 Q 94.49664429530202 253.4228187919463 113.39597315436242 252.56375838926175 L 123.70469798657719 252.56375838926175 L 123.70469798657719 252.56375838926175 Q 142.60402684563758 253.4228187919463 149.4765100671141 270.6040268456376 Q 155.48993288590603 272.32214765100673 161.50335570469798 275.758389261745 Q 178.68456375838926 268.8859060402685 192.4295302013423 280.9127516778523 L 200.16107382550337 288.6442953020134 L 200.16107382550337 288.6442953020134 Q 212.18791946308724 302.38926174496646 205.31543624161074 319.5704697986577 Q 208.751677852349 325.5838926174497 210.46979865771812 331.5973154362416 Q 227.6510067114094 338.4697986577181 228.51006711409397 357.3691275167785 L 228.51006711409397 367.67785234899327 L 228.51006711409397 367.67785234899327 Q 227.6510067114094 386.5771812080537 210.46979865771812 393.4496644295302 Q 208.751677852349 399.46308724832215 205.31543624161074 405.4765100671141 Q 212.18791946308724 422.6577181208054 200.16107382550337 436.4026845637584 L 192.4295302013423 444.13422818791946 L 192.4295302013423 444.13422818791946 Q 178.68456375838926 456.16107382550337 161.50335570469798 449.28859060402687 Q 155.48993288590603 452.7248322147651 149.4765100671141 454.4429530201342 Q 142.60402684563758 471.6241610738255 123.70469798657719 472.48322147651004 L 113.39597315436242 472.48322147651004 L 113.39597315436242 472.48322147651004 Q 94.49664429530202 471.6241610738255 87.6241610738255 454.4429530201342 Q 81.61073825503355 452.7248322147651 75.59731543624162 449.28859060402687 Q 58.41610738255034 457.02013422818794 44.671140939597315 444.13422818791946 L 36.939597315436245 436.4026845637584 L 36.939597315436245 436.4026845637584 Q 24.91275167785235 422.6577181208054 31.78523489932886 405.4765100671141 Q 28.348993288590606 399.46308724832215 26.630872483221477 393.4496644295302 Q 9.449664429530202 386.5771812080537 8.590604026845638 367.67785234899327 L 8.590604026845638 357.3691275167785 L 8.590604026845638 357.3691275167785 Q 9.449664429530202 338.4697986577181 26.630872483221477 331.5973154362416 Q 28.348993288590606 325.5838926174497 31.78523489932886 319.5704697986577 Q 24.91275167785235 302.38926174496646 36.939597315436245 288.6442953020134 L 44.671140939597315 280.9127516778523 L 44.671140939597315 280.9127516778523 Q 58.41610738255034 268.8859060402685 75.59731543624162 275.758389261745 Q 81.61073825503355 272.32214765100673 87.6241610738255 270.6040268456376 L 87.6241610738255 270.6040268456376 Z M 118.5503355704698 328.16107382550337 Q 98.79194630872483 329.02013422818794 88.48322147651007 345.3422818791946 Q 79.89261744966443 362.5234899328859 88.48322147651007 379.7046979865772 Q 98.79194630872483 396.0268456375839 118.5503355704698 396.8859060402685 Q 138.30872483221478 396.0268456375839 148.61744966442953 379.7046979865772 Q 157.20805369127515 362.5234899328859 148.61744966442953 345.3422818791946 Q 138.30872483221478 329.02013422818794 118.5503355704698 328.16107382550337 L 118.5503355704698 328.16107382550337 Z M 166.65771812080536 362.5234899328859 Q 165.7986577181208 390.0134228187919 142.60402684563758 403.758389261745 Q 118.5503355704698 417.503355704698 94.49664429530202 403.758389261745 Q 71.30201342281879 390.0134228187919 70.44295302013423 362.5234899328859 Q 71.30201342281879 335.03355704697987 94.49664429530202 321.28859060402687 Q 118.5503355704698 307.5436241610738 142.60402684563758 321.28859060402687 Q 165.7986577181208 335.03355704697987 166.65771812080536 362.5234899328859 L 166.65771812080536 362.5234899328859 Z M 374.5503355704698 277.4765100671141 Q 373.69127516778525 280.9127516778523 370.255033557047 282.6308724832215 Q 361.66442953020135 285.20805369127515 353.0738255033557 289.503355704698 Q 349.63758389261744 291.22147651006713 346.2013422818792 289.503355704698 Q 336.751677852349 283.48993288590606 329.02013422818794 291.22147651006713 L 322.1476510067114 298.09395973154363 L 322.1476510067114 298.09395973154363 Q 314.4161073825503 306.6845637583893 320.4295302013423 315.2751677852349 Q 322.1476510067114 318.71140939597313 320.4295302013423 323.00671140939596 Q 316.13422818791946 330.73825503355704 313.5570469798658 339.3288590604027 Q 311.83892617449663 342.76510067114094 308.4026845637584 343.6241610738255 Q 298.09395973154363 347.06040268456377 297.23489932885906 357.3691275167785 L 297.23489932885906 367.67785234899327 L 297.23489932885906 367.67785234899327 Q 298.09395973154363 378.8456375838926 308.4026845637584 381.4228187919463 Q 311.83892617449663 382.28187919463085 313.5570469798658 385.71812080536915 Q 316.13422818791946 395.1677852348993 320.4295302013423 402.8993288590604 Q 322.1476510067114 406.33557046979865 320.4295302013423 409.7718120805369 Q 314.4161073825503 419.22147651006713 322.1476510067114 426.9530201342282 L 329.02013422818794 434.6845637583893 L 329.02013422818794 434.6845637583893 Q 337.61073825503354 441.5570469798658 346.2013422818792 436.4026845637584 Q 349.63758389261744 433.8255033557047 353.0738255033557 435.5436241610738 Q 361.66442953020135 439.83892617449663 370.255033557047 442.4161073825503 Q 373.69127516778525 444.13422818791946 374.5503355704698 447.5704697986577 Q 377.1275167785235 457.87919463087246 388.2953020134228 458.73825503355704 L 398.6040268456376 458.73825503355704 L 398.6040268456376 458.73825503355704 Q 409.7718120805369 457.87919463087246 412.3489932885906 447.5704697986577 Q 413.20805369127515 444.13422818791946 416.6442953020134 442.4161073825503 Q 425.23489932885906 439.83892617449663 433.8255033557047 435.5436241610738 Q 437.26174496644296 433.8255033557047 440.6979865771812 436.4026845637584 Q 450.1476510067114 441.5570469798658 457.87919463087246 434.6845637583893 L 465.61073825503354 426.9530201342282 L 465.61073825503354 426.9530201342282 Q 472.48322147651004 419.22147651006713 467.3288590604027 409.7718120805369 Q 464.751677852349 406.33557046979865 466.4697986577181 402.8993288590604 Q 470.76510067114094 395.1677852348993 473.3422818791946 385.71812080536915 Q 475.06040268456377 382.28187919463085 478.496644295302 381.4228187919463 Q 488.80536912751677 378.8456375838926 489.66442953020135 367.67785234899327 L 489.66442953020135 357.3691275167785 L 489.66442953020135 357.3691275167785 Q 488.80536912751677 347.06040268456377 478.496644295302 343.6241610738255 Q 475.06040268456377 342.76510067114094 473.3422818791946 339.3288590604027 Q 470.76510067114094 330.73825503355704 466.4697986577181 322.1476510067114 Q 464.751677852349 318.71140939597313 467.3288590604027 315.2751677852349 Q 472.48322147651004 305.8255033557047 465.61073825503354 298.09395973154363 L 457.87919463087246 291.22147651006713 L 457.87919463087246 291.22147651006713 Q 449.28859060402687 283.48993288590606 440.6979865771812 289.503355704698 Q 437.26174496644296 291.22147651006713 433.8255033557047 289.503355704698 Q 425.23489932885906 285.20805369127515 416.6442953020134 282.6308724832215 Q 413.20805369127515 280.9127516778523 412.3489932885906 277.4765100671141 Q 409.7718120805369 267.1677852348993 398.6040268456376 266.30872483221475 L 388.2953020134228 266.30872483221475 L 388.2953020134228 266.30872483221475 Q 377.9865771812081 267.1677852348993 374.5503355704698 277.4765100671141 L 374.5503355704698 277.4765100671141 Z M 388.2953020134228 252.56375838926175 L 398.6040268456376 252.56375838926175 L 388.2953020134228 252.56375838926175 L 398.6040268456376 252.56375838926175 Q 417.503355704698 253.4228187919463 424.3758389261745 270.6040268456376 Q 430.38926174496646 272.32214765100673 436.4026845637584 275.758389261745 Q 453.5838926174497 268.8859060402685 467.3288590604027 280.9127516778523 L 475.06040268456377 288.6442953020134 L 475.06040268456377 288.6442953020134 Q 487.0872483221477 302.38926174496646 480.2147651006711 319.5704697986577 Q 483.6510067114094 325.5838926174497 485.3691275167785 331.5973154362416 Q 502.5503355704698 338.4697986577181 503.40939597315435 357.3691275167785 L 503.40939597315435 367.67785234899327 L 503.40939597315435 367.67785234899327 Q 502.5503355704698 386.5771812080537 485.3691275167785 393.4496644295302 Q 483.6510067114094 399.46308724832215 480.2147651006711 405.4765100671141 Q 487.0872483221477 422.6577181208054 475.06040268456377 436.4026845637584 L 467.3288590604027 444.13422818791946 L 467.3288590604027 444.13422818791946 Q 453.5838926174497 456.16107382550337 436.4026845637584 449.28859060402687 Q 430.38926174496646 452.7248322147651 424.3758389261745 454.4429530201342 Q 417.503355704698 471.6241610738255 398.6040268456376 472.48322147651004 L 388.2953020134228 472.48322147651004 L 388.2953020134228 472.48322147651004 Q 369.3959731543624 471.6241610738255 362.5234899328859 454.4429530201342 Q 356.51006711409394 452.7248322147651 350.496644295302 449.28859060402687 Q 333.3154362416107 457.02013422818794 319.5704697986577 444.13422818791946 L 311.83892617449663 436.4026845637584 L 311.83892617449663 436.4026845637584 Q 299.81208053691273 422.6577181208054 306.6845637583893 405.4765100671141 Q 303.248322147651 399.46308724832215 301.5302013422819 393.4496644295302 Q 284.3489932885906 386.5771812080537 283.48993288590606 367.67785234899327 L 283.48993288590606 357.3691275167785 L 283.48993288590606 357.3691275167785 Q 284.3489932885906 338.4697986577181 301.5302013422819 331.5973154362416 Q 303.248322147651 325.5838926174497 306.6845637583893 319.5704697986577 Q 299.81208053691273 302.38926174496646 311.83892617449663 288.6442953020134 L 319.5704697986577 280.9127516778523 L 319.5704697986577 280.9127516778523 Q 333.3154362416107 268.8859060402685 350.496644295302 275.758389261745 Q 356.51006711409394 272.32214765100673 362.5234899328859 270.6040268456376 Q 369.3959731543624 253.4228187919463 388.2953020134228 252.56375838926175 L 388.2953020134228 252.56375838926175 Z M 359.0872483221477 362.5234899328859 Q 359.9463087248322 382.28187919463085 376.2684563758389 392.59060402684565 Q 393.4496644295302 401.18120805369125 410.6308724832215 392.59060402684565 Q 426.9530201342282 382.28187919463085 427.81208053691273 362.5234899328859 Q 426.9530201342282 342.76510067114094 410.6308724832215 332.4563758389262 Q 393.4496644295302 323.86577181208054 376.2684563758389 332.4563758389262 Q 359.9463087248322 342.76510067114094 359.0872483221477 362.5234899328859 L 359.0872483221477 362.5234899328859 Z M 393.4496644295302 410.6308724832215 Q 365.9597315436242 409.7718120805369 352.2147651006711 386.5771812080537 Q 338.4697986577181 362.5234899328859 352.2147651006711 338.4697986577181 Q 365.9597315436242 315.2751677852349 393.4496644295302 314.4161073825503 Q 420.93959731543623 315.2751677852349 434.6845637583893 338.4697986577181 Q 448.4295302013423 362.5234899328859 434.6845637583893 386.5771812080537 Q 420.93959731543623 409.7718120805369 393.4496644295302 410.6308724832215 L 393.4496644295302 410.6308724832215 Z" />
</svg>