<svg xmlns="http://www.w3.org/2000/svg" viewBox="0 0 512 512">
  <path d="M 441.37931034482756 67.3103448275862 Q 441.37931034482756 67.3103448275862 441.37931034482756 67.3103448275862 L 441.37931034482756 67.3103448275862 L 441.37931034482756 67.3103448275862 Q 440.2758620689655 67.3103448275862 440.2758620689655 66.20689655172414 Q 438.0689655172414 73.93103448275862 434.7586206896552 80.55172413793103 Q 422.62068965517244 110.34482758620689 406.0689655172414 140.13793103448276 Q 389.51724137931035 169.93103448275863 370.7586206896552 190.89655172413794 Q 343.17241379310343 217.3793103448276 316.6896551724138 233.93103448275863 Q 289.1034482758621 249.3793103448276 262.62068965517244 262.62068965517244 L 262.62068965517244 262.62068965517244 L 262.62068965517244 262.62068965517244 Q 261.51724137931035 262.62068965517244 261.51724137931035 262.62068965517244 Q 235.0344827586207 275.86206896551727 209.6551724137931 291.3103448275862 Q 184.27586206896552 306.7586206896552 158.89655172413794 332.13793103448273 Q 141.24137931034483 349.7931034482759 123.58620689655173 378.48275862068965 Q 107.03448275862068 406.0689655172414 93.79310344827586 435.86206896551727 Q 90.48275862068965 441.37931034482756 88.27586206896552 446.8965517241379 Q 87.17241379310344 449.1034482758621 86.06896551724138 451.3103448275862 Q 140.13793103448276 489.9310344827586 218.48275862068965 480 Q 262.62068965517244 473.37931034482756 306.7586206896552 450.2068965517241 Q 352 427.0344827586207 391.7241379310345 388.41379310344826 Q 430.3448275862069 348.6896551724138 453.51724137931035 303.44827586206895 Q 476.6896551724138 259.3103448275862 483.3103448275862 215.17241379310346 Q 495.44827586206895 124.6896551724138 441.37931034482756 67.3103448275862 L 441.37931034482756 67.3103448275862 Z M 425.9310344827586 54.06896551724138 Q 371.86206896551727 14.344827586206897 293.51724137931035 25.379310344827587 Q 248.27586206896552 32 204.13793103448276 54.06896551724138 Q 158.89655172413794 77.24137931034483 120.27586206896552 116.96551724137932 Q 80.55172413793103 155.58620689655172 57.37931034482759 200.82758620689654 Q 35.310344827586206 244.9655172413793 28.689655172413794 290.2068965517241 Q 16.551724137931036 380.6896551724138 70.62068965517241 438.0689655172414 Q 71.72413793103448 438.0689655172414 71.72413793103448 439.17241379310343 Q 75.03448275862068 433.6551724137931 77.24137931034483 428.13793103448273 Q 91.58620689655173 399.44827586206895 109.24137931034483 369.6551724137931 Q 126.89655172413794 338.7586206896552 145.6551724137931 318.8965517241379 Q 173.24137931034483 292.41379310344826 199.72413793103448 275.86206896551727 Q 227.31034482758622 260.41379310344826 253.79310344827587 247.17241379310346 Q 253.79310344827587 247.17241379310346 253.79310344827587 247.17241379310346 L 253.79310344827587 247.17241379310346 L 253.79310344827587 247.17241379310346 Q 253.79310344827587 247.17241379310346 253.79310344827587 247.17241379310346 Q 280.2758620689655 233.93103448275863 306.7586206896552 218.48275862068965 Q 332.13793103448273 203.0344827586207 357.51724137931035 177.6551724137931 Q 375.17241379310343 160 390.62068965517244 131.31034482758622 Q 406.0689655172414 103.72413793103448 418.2068965517241 73.93103448275862 Q 421.51724137931035 65.10344827586206 424.82758620689657 57.37931034482759 Q 425.9310344827586 56.275862068965516 425.9310344827586 54.06896551724138 L 425.9310344827586 54.06896551724138 Z M 453.51724137931035 55.172413793103445 Q 494.3448275862069 97.10344827586206 500.9655172413793 156.68965517241378 L 500.9655172413793 156.68965517241378 L 500.9655172413793 156.68965517241378 Q 508.6896551724138 216.27586206896552 483.3103448275862 280.2758620689655 L 483.3103448275862 280.2758620689655 L 483.3103448275862 280.2758620689655 Q 459.0344827586207 345.37931034482756 403.86206896551727 400.55172413793105 Q 325.51724137931035 476.6896551724138 236.13793103448276 494.3448275862069 Q 145.6551724137931 512 79.44827586206897 467.86206896551727 Q 78.34482758620689 467.86206896551727 78.34482758620689 467.86206896551727 Q 78.34482758620689 467.86206896551727 78.34482758620689 467.86206896551727 Q 71.72413793103448 462.3448275862069 65.10344827586206 456.82758620689657 Q 60.689655172413794 453.51724137931035 58.48275862068966 450.2068965517241 Q 17.655172413793103 408.2758620689655 9.931034482758621 348.6896551724138 Q 3.310344827586207 288 27.586206896551722 224 Q 52.96551724137931 160 107.03448275862068 103.72413793103448 Q 163.31034482758622 49.6551724137931 227.31034482758622 24.275862068965516 Q 292.41379310344826 0 352 6.620689655172414 Q 411.58620689655174 14.344827586206897 453.51724137931035 54.06896551724138 L 453.51724137931035 55.172413793103445 Z" />
</svg>