<svg xmlns="http://www.w3.org/2000/svg" viewBox="0 0 512 512">
  <path d="M 399.4396887159533 124.5136186770428 Q 400.43579766536965 118.53696498054475 400.43579766536965 111.56420233463035 Q 399.4396887159533 84.6692607003891 381.50972762645915 66.73929961089495 Q 363.579766536965 48.809338521400775 336.68482490272373 47.81322957198444 Q 306.80155642023345 48.809338521400775 287.87548638132296 69.72762645914396 Q 282.89494163424126 76.70038910505836 274.9260700389105 75.70428015564202 Q 265.96108949416345 74.70817120622569 261.97665369649803 66.73929961089495 Q 250.02334630350194 43.82879377431907 227.11284046692606 29.883268482490273 Q 205.19844357976655 15.937743190661479 177.30739299610894 15.937743190661479 Q 136.4669260700389 16.93385214007782 109.57198443579766 43.82879377431907 Q 82.67704280155642 70.72373540856032 81.68093385214007 111.56420233463035 Q 81.68093385214007 120.52918287937743 83.67315175097276 129.4941634241245 Q 84.6692607003891 142.44357976653697 72.715953307393 147.42412451361866 Q 48.809338521400775 155.3929961089494 33.86770428015564 176.3112840466926 Q 17.929961089494164 196.23346303501947 17.929961089494164 223.1284046692607 Q 18.926070038910506 256.99610894941634 40.840466926070036 279.9066147859922 Q 63.750972762645915 301.82101167315176 97.61867704280155 302.8171206225681 L 416.3735408560311 302.8171206225681 L 416.3735408560311 302.8171206225681 Q 450.24124513618676 301.82101167315176 473.15175097276267 279.9066147859922 Q 495.0661478599222 256.99610894941634 496.0622568093385 223.1284046692607 Q 495.0661478599222 189.26070038910507 473.15175097276267 166.3501945525292 Q 450.24124513618676 144.43579766536965 416.3735408560311 143.4396887159533 Q 416.3735408560311 143.4396887159533 415.3774319066148 143.4396887159533 Q 415.3774319066148 143.4396887159533 415.3774319066148 143.4396887159533 Q 407.408560311284 143.4396887159533 402.4280155642023 137.46303501945525 Q 397.44747081712063 131.4863813229572 399.4396887159533 124.5136186770428 L 399.4396887159533 124.5136186770428 Z M 177.30739299610894 0 Q 235.0817120622568 1.9922178988326849 266.9571984435798 45.82101167315175 Q 271.9377431906615 52.793774319066145 275.92217898832683 59.766536964980546 Q 281.8988326848249 53.78988326848249 287.87548638132296 48.809338521400775 Q 308.79377431906613 32.8715953307393 336.68482490272373 31.875486381322958 Q 370.55252918287937 32.8715953307393 393.4630350194553 54.78599221789883 Q 415.3774319066148 77.6964980544747 416.3735408560311 111.56420233463035 Q 416.3735408560311 119.53307392996109 414.38132295719845 127.50194552529183 Q 415.3774319066148 127.50194552529183 415.3774319066148 127.50194552529183 Q 416.3735408560311 127.50194552529183 416.3735408560311 127.50194552529183 Q 423.3463035019455 127.50194552529183 431.31517509727627 128.49805447470817 Q 466.17898832684824 134.47470817120623 489.08949416342415 160.37354085603113 Q 511.00389105058366 186.27237354085602 512 223.1284046692607 Q 511.00389105058366 263.9688715953307 484.1089494163424 290.863813229572 Q 457.2140077821012 317.75875486381324 416.3735408560311 318.7548638132296 L 97.61867704280155 318.7548638132296 L 97.61867704280155 318.7548638132296 Q 56.778210116731515 317.75875486381324 29.883268482490273 290.863813229572 Q 2.9883268482490273 263.9688715953307 1.9922178988326849 223.1284046692607 Q 2.9883268482490273 191.25291828793775 20.91828793774319 166.3501945525292 Q 38.84824902723735 142.44357976653697 67.73540856031128 132.48249027237355 Q 65.7431906614786 122.52140077821012 65.7431906614786 111.56420233463035 Q 66.73929961089495 63.750972762645915 98.6147859922179 32.8715953307393 Q 129.4941634241245 0.9961089494163424 177.30739299610894 0 L 177.30739299610894 0 Z M 88.65369649805447 362.58365758754866 L 16.93385214007782 506.02334630350197 L 88.65369649805447 362.58365758754866 L 16.93385214007782 506.02334630350197 Q 12.949416342412452 512 5.976653696498055 509.011673151751 Q 0 505.0272373540856 2.9883268482490273 499.05058365758754 L 74.70817120622569 355.6108949416342 L 74.70817120622569 355.6108949416342 Q 78.69260700389106 348.63813229571986 85.66536964980544 351.6264591439689 Q 91.6420233463035 355.6108949416342 88.65369649805447 362.58365758754866 L 88.65369649805447 362.58365758754866 Z M 208.18677042801556 362.58365758754866 L 136.4669260700389 506.02334630350197 L 208.18677042801556 362.58365758754866 L 136.4669260700389 506.02334630350197 Q 132.48249027237355 512 126.50583657587549 509.011673151751 Q 119.53307392996109 505.0272373540856 122.52140077821012 499.05058365758754 L 194.24124513618676 355.6108949416342 L 194.24124513618676 355.6108949416342 Q 198.22568093385215 348.63813229571986 205.19844357976655 351.6264591439689 Q 211.17509727626458 355.6108949416342 208.18677042801556 362.58365758754866 L 208.18677042801556 362.58365758754866 Z M 319.7509727626459 362.58365758754866 L 248.03112840466926 506.02334630350197 L 319.7509727626459 362.58365758754866 L 248.03112840466926 506.02334630350197 Q 244.0466926070039 512 238.07003891050584 509.011673151751 Q 231.09727626459144 505.0272373540856 234.08560311284046 499.05058365758754 L 305.8054474708171 355.6108949416342 L 305.8054474708171 355.6108949416342 Q 309.78988326848247 348.63813229571986 316.7626459143969 351.6264591439689 Q 322.73929961089493 355.6108949416342 319.7509727626459 362.58365758754866 L 319.7509727626459 362.58365758754866 Z M 439.284046692607 362.58365758754866 L 367.56420233463035 506.02334630350197 L 439.284046692607 362.58365758754866 L 367.56420233463035 506.02334630350197 Q 363.579766536965 512 357.6031128404669 509.011673151751 Q 350.63035019455253 505.0272373540856 353.61867704280155 499.05058365758754 L 425.33852140077823 355.6108949416342 L 425.33852140077823 355.6108949416342 Q 429.3229571984436 348.63813229571986 436.29571984435796 351.6264591439689 Q 442.27237354085605 355.6108949416342 439.284046692607 362.58365758754866 L 439.284046692607 362.58365758754866 Z" />
</svg>