<svg xmlns="http://www.w3.org/2000/svg" viewBox="0 0 512 512">
  <path d="M 371.32428 2.9825242 Q 365.35922 6.9592233 368.34174 13.918447 L 414.0738 105.38252 L 414.0738 105.38252 Q 421.03302 120.29514 411.09125 132.22525 L 327.5806 227.66602 L 327.5806 227.66602 L 327.5806 145.14952 L 327.5806 145.14952 Q 325.59222 102.4 289.80194 82.5165 Q 286.81943 80.52815 283.83688 81.52233 Q 280.85437 82.5165 278.86603 85.49903 L 256 128.24855 L 256 128.24855 L 233.13399 85.49903 L 233.13399 85.49903 Q 231.14563 82.5165 228.1631 81.52233 Q 225.18059 80.52815 222.19806 82.5165 Q 186.40776 102.4 184.41942 145.14952 L 184.41942 227.66602 L 184.41942 227.66602 L 100.90874 132.22525 L 100.90874 132.22525 Q 90.96699 120.29514 97.926216 105.38252 L 143.65825 13.918447 L 143.65825 13.918447 Q 146.64078 6.9592233 140.67574 2.9825242 Q 133.7165 0 129.7398 5.9650483 L 84.00777 98.4233 L 84.00777 98.4233 Q 73.071846 122.28349 88.97864 142.16699 L 171.49515 236.61359 L 171.49515 236.61359 L 52.194176 205.79417 L 52.194176 205.79417 Q 40.264076 201.81747 35.293205 189.88737 L 17.398058 135.20776 L 17.398058 135.20776 Q 14.415534 128.24855 7.4563107 129.24272 Q 0.4970874 132.22525 1.4912621 140.17863 L 20.380583 194.85825 L 20.380583 194.85825 Q 27.339806 214.74174 48.217476 220.7068 L 168.51262 252.52039 L 168.51262 252.52039 L 48.217476 284.33398 L 48.217476 284.33398 Q 27.339806 290.29904 20.380583 310.18253 L 1.4912621 365.85632 L 1.4912621 365.85632 Q 0.4970874 372.81552 7.4563107 375.79807 Q 14.415534 376.79224 17.398058 370.82718 L 35.293205 315.1534 L 35.293205 315.1534 Q 39.2699 303.2233 52.194176 299.2466 L 154.59418 272.40387 L 154.59418 272.40387 L 85.001945 365.85632 L 85.001945 365.85632 Q 73.071846 382.7573 79.036896 401.6466 L 113.83301 506.03494 L 113.83301 506.03494 Q 115.82136 512 123.77476 511.00583 Q 129.7398 508.02332 128.74564 501.0641 L 93.94952 396.67572 L 93.94952 396.67572 Q 89.97282 384.74564 97.926216 374.8039 L 147.63495 309.18835 L 147.63495 309.18835 Q 144.65242 320.12427 144.65242 332.05438 L 144.65242 340.00778 L 144.65242 340.00778 Q 145.6466 385.7398 177.46019 416.55923 Q 209.27379 446.38446 256 447.37863 Q 302.72623 446.38446 334.5398 416.55923 Q 366.3534 385.7398 367.34756 340.00778 L 367.34756 332.05438 L 367.34756 332.05438 Q 367.34756 320.12427 364.36505 309.18835 L 415.06796 375.79807 L 415.06796 375.79807 Q 422.0272 385.7398 418.05048 397.6699 L 383.25436 501.0641 L 383.25436 501.0641 Q 382.2602 508.02332 389.21942 511.00583 Q 396.17865 512 399.16116 506.03494 L 432.9631 401.6466 L 432.9631 401.6466 Q 438.92816 382.7573 426.99805 365.85632 L 357.40582 272.40387 L 357.40582 272.40387 L 459.80582 299.2466 L 459.80582 299.2466 Q 472.7301 303.2233 476.7068 315.1534 L 495.59613 370.82718 L 495.59613 370.82718 Q 497.58447 376.79224 505.53787 375.79807 Q 511.5029 372.81552 510.50873 365.85632 L 491.61942 310.18253 L 491.61942 310.18253 Q 484.6602 290.29904 463.78253 284.33398 L 343.48737 252.52039 L 343.48737 252.52039 L 463.78253 220.7068 L 463.78253 220.7068 Q 484.6602 214.74174 491.61942 194.85825 L 510.50873 140.17863 L 510.50873 140.17863 Q 511.5029 132.22525 505.53787 129.24272 Q 497.58447 128.24855 494.60193 135.20776 L 476.7068 189.88737 L 476.7068 189.88737 Q 472.7301 201.81747 459.80582 205.79417 L 340.50485 236.61359 L 340.50485 236.61359 L 423.02136 143.16116 L 423.02136 143.16116 Q 438.92816 122.28349 428.98642 98.4233 L 382.2602 5.9650483 L 382.2602 5.9650483 Q 378.2835 0 372.31845 2.9825242 L 371.32428 2.9825242 Z M 223.19223 100.41165 L 249.04077 149.12622 L 223.19223 100.41165 L 249.04077 149.12622 Q 251.02913 153.1029 256 153.1029 Q 260.9709 153.1029 262.95923 149.12622 L 288.80777 100.41165 L 288.80777 100.41165 Q 310.67963 116.31844 311.6738 145.14952 L 311.6738 253.51456 L 311.6738 253.51456 Q 311.6738 257.49127 314.6563 260.4738 Q 349.45242 286.32233 351.44077 332.05438 L 351.44077 340.00778 L 351.44077 340.00778 Q 350.4466 378.78058 323.60388 404.62912 Q 296.76117 430.47766 256 431.47183 Q 215.23883 430.47766 188.39612 404.62912 Q 161.55339 378.78058 160.55922 340.00778 L 160.55922 332.05438 L 160.55922 332.05438 Q 162.54758 286.32233 197.34369 260.4738 Q 200.32622 257.49127 200.32622 253.51456 L 200.32622 145.14952 L 200.32622 145.14952 Q 201.32039 116.31844 223.19223 100.41165 L 223.19223 100.41165 Z" />
</svg>