<svg xmlns="http://www.w3.org/2000/svg" viewBox="0 0 512 512">
  <path d="M 166.4 119.6 Q 165.6 90.8 140.8 75.6 Q 115.2 61.2 89.6 75.6 Q 64.8 90.8 64 119.6 Q 64.8 148.4 89.6 163.6 Q 115.2 178 140.8 163.6 Q 165.6 148.4 166.4 119.6 L 166.4 119.6 Z M 51.2 119.6 Q 52 83.6 83.2 64.4 Q 115.2 46.8 147.2 64.4 Q 178.4 83.6 179.2 119.6 Q 178.4 155.6 147.2 174.8 Q 115.2 192.4 83.2 174.8 Q 52 155.6 51.2 119.6 L 51.2 119.6 Z M 256 298.8 Q 292 298 311.2 266.8 Q 328.8 234.8 311.2 202.8 Q 292 171.6 256 170.8 Q 220 171.6 200.8 202.8 Q 183.2 234.8 200.8 266.8 Q 220 298 256 298.8 L 256 298.8 Z M 256 158 Q 276.8 158 294.4 168.4 L 294.4 168.4 L 294.4 168.4 Q 312 178.8 322.4 196.4 Q 332.8 214.8 332.8 234.8 Q 332.8 254.8 322.4 273.2 Q 312 290.8 294.4 301.2 Q 276.8 311.6 256 311.6 Q 235.2 311.6 217.6 301.2 Q 200 290.8 189.6 273.2 Q 179.2 254.8 179.2 234.8 Q 179.2 214.8 189.6 196.4 Q 200 178.8 217.6 168.4 Q 235.2 158 256 158 L 256 158 Z M 208.8 350 Q 168.8 350.8 142.4 377.2 L 142.4 377.2 L 142.4 377.2 Q 116 403.6 115.2 443.6 Q 116 451.6 124 452.4 L 372 452.4 L 372 452.4 Q 372.8 459.6 376.8 465.2 L 124 465.2 L 124 465.2 Q 104 463.6 102.4 443.6 Q 103.2 398.8 133.6 368.4 Q 164 338 208.8 337.2 L 303.2 337.2 L 303.2 337.2 Q 312.8 337.2 322.4 338.8 Q 317.6 344.4 315.2 350.8 Q 309.6 350 303.2 350 L 208.8 350 L 208.8 350 Z M 409.6 170.8 Q 438.4 170 453.6 145.2 Q 468 119.6 453.6 94 Q 438.4 69.2 409.6 68.4 Q 380.8 69.2 365.6 94 Q 351.2 119.6 365.6 145.2 Q 380.8 170 409.6 170.8 L 409.6 170.8 Z M 409.6 55.6 Q 445.6 56.4 464.8 87.6 Q 482.4 119.6 464.8 151.6 Q 445.6 182.8 409.6 183.6 Q 373.6 182.8 354.4 151.6 Q 336.8 119.6 354.4 87.6 Q 373.6 56.4 409.6 55.6 L 409.6 55.6 Z M 428.8 222 L 357.6 222 L 428.8 222 L 357.6 222 Q 356.8 215.6 355.2 209.2 L 428.8 209.2 L 428.8 209.2 Q 464 210 488 233.2 Q 511.2 257.2 512 292.4 Q 511.2 298 505.6 298.8 Q 500 298 499.2 292.4 Q 498.4 262.8 478.4 242.8 Q 458.4 222.8 428.8 222 L 428.8 222 Z M 154.4 222 L 83.2 222 L 154.4 222 L 83.2 222 Q 53.6 222.8 33.6 242.8 Q 13.6 262.8 12.8 292.4 Q 12 298 6.4 298.8 Q 0.8 298 0 292.4 Q 0.8 257.2 24 233.2 Q 48 210 83.2 209.2 L 156.8 209.2 L 156.8 209.2 Q 155.2 215.6 154.4 222 L 154.4 222 Z M 403.2 305.2 L 403.2 350 L 403.2 305.2 L 403.2 350 Q 402.4 355.6 396.8 356.4 L 352 356.4 L 352 356.4 Q 346.4 357.2 345.6 362.8 L 345.6 388.4 L 345.6 388.4 Q 346.4 394 352 394.8 L 396.8 394.8 L 396.8 394.8 Q 402.4 395.6 403.2 401.2 L 403.2 446 L 403.2 446 Q 404 451.6 409.6 452.4 L 435.2 452.4 L 435.2 452.4 Q 440.8 451.6 441.6 446 L 441.6 401.2 L 441.6 401.2 Q 442.4 395.6 448 394.8 L 492.8 394.8 L 492.8 394.8 Q 498.4 394 499.2 388.4 L 499.2 362.8 L 499.2 362.8 Q 498.4 357.2 492.8 356.4 L 448 356.4 L 448 356.4 Q 442.4 355.6 441.6 350 L 441.6 305.2 L 441.6 305.2 Q 440.8 299.6 435.2 298.8 L 409.6 298.8 L 409.6 298.8 Q 404 299.6 403.2 305.2 L 403.2 305.2 Z M 409.6 286 L 435.2 286 L 409.6 286 L 435.2 286 Q 452.8 287.6 454.4 305.2 L 454.4 343.6 L 454.4 343.6 L 492.8 343.6 L 492.8 343.6 Q 510.4 345.2 512 362.8 L 512 388.4 L 512 388.4 Q 510.4 406 492.8 407.6 L 454.4 407.6 L 454.4 407.6 L 454.4 446 L 454.4 446 Q 452.8 463.6 435.2 465.2 L 409.6 465.2 L 409.6 465.2 Q 392 463.6 390.4 446 L 390.4 407.6 L 390.4 407.6 L 352 407.6 L 352 407.6 Q 334.4 406 332.8 388.4 L 332.8 362.8 L 332.8 362.8 Q 334.4 345.2 352 343.6 L 390.4 343.6 L 390.4 343.6 L 390.4 305.2 L 390.4 305.2 Q 392 287.6 409.6 286 L 409.6 286 Z" />
</svg>