<svg xmlns="http://www.w3.org/2000/svg" viewBox="0 0 647 515">
    <path d="M 487 1 Q 555 0 620 19 Q 646 29 647 57 Q 646 90 631 141 Q 617 194 597 251 Q 576 309 555 353 Q 545 374 529 395 Q 513 416 487 417 Q 461 416 445 395 Q 429 374 419 353 Q 398 309 377 251 Q 357 194 343 141 Q 328 90 327 57 Q 329 29 355 19 Q 420 0 487 1 L 487 1 Z M 615 34 Q 553 16 487 17 Q 421 16 360 34 Q 344 41 343 57 Q 344 83 356 128 Q 358 127 361 127 Q 373 124 393 121 Q 434 114 487 113 Q 540 114 581 121 Q 601 124 613 127 Q 616 127 618 128 Q 630 83 631 57 Q 630 40 615 34 L 615 34 Z M 360 143 Q 373 192 392 246 Q 396 255 399 264 Q 438 258 487 257 Q 536 258 575 264 Q 578 255 582 246 Q 601 193 614 143 Q 612 143 609 142 Q 598 140 579 137 Q 538 130 487 129 Q 436 130 395 137 Q 376 140 364 142 Q 364 142 364 142 Q 363 143 362 143 Q 361 143 360 143 L 360 143 Z M 433 346 Q 443 367 457 385 Q 471 401 487 401 Q 503 401 517 385 Q 531 367 541 346 Q 555 317 569 279 Q 532 274 487 273 Q 442 274 405 279 Q 419 317 433 346 L 433 346 Z M 92 206 Q 138 157 198 125 Q 223 114 244 132 Q 255 143 267 162 Q 279 181 292 203 Q 319 249 345 305 Q 372 360 387 405 Q 396 427 399 453 Q 402 479 385 498 Q 365 515 339 512 Q 314 509 291 501 Q 246 485 191 459 Q 136 433 89 406 Q 67 393 48 381 Q 29 368 18 357 Q 0 337 11 311 Q 43 252 92 205 L 92 206 Z M 205 139 Q 149 169 103 217 Q 56 262 26 318 Q 19 334 30 346 Q 49 364 89 387 Q 89 386 91 384 Q 91 383 92 382 Q 98 372 110 356 Q 134 322 171 284 Q 209 248 243 224 Q 259 212 269 206 Q 270 205 270 204 Q 272 203 273 202 Q 250 162 233 144 Q 220 133 205 139 L 205 139 Z M 102 395 Q 147 420 198 445 Q 206 449 215 453 Q 238 420 272 386 Q 307 352 339 329 Q 335 320 331 311 Q 307 260 282 216 Q 281 216 280 217 Q 279 218 278 219 Q 268 225 252 237 Q 219 260 182 296 Q 147 332 123 366 Q 111 381 105 391 Q 104 392 104 393 Q 103 394 102 395 L 102 395 Z M 297 486 Q 319 494 341 497 Q 362 499 373 487 Q 385 475 383 454 Q 380 432 372 410 Q 362 380 346 344 Q 315 366 283 397 Q 252 429 230 459 Q 267 476 297 486 L 297 486 Z"/>
</svg>
