<svg xmlns="http://www.w3.org/2000/svg" viewBox="0 0 576 416">
    <path d="M 544 16 L 32 16 Q 17 17 16 32 L 16 100 Q 17 111 28 112 Q 64 113 87 136 Q 111 160 112 196 L 112 291 Q 104 288 96 289 L 96 196 Q 95 167 76 148 Q 57 129 28 128 Q 16 128 8 120 Q 0 112 0 100 L 0 32 Q 0 18 9 9 Q 18 0 32 0 L 544 0 Q 558 0 567 9 Q 576 18 576 32 L 576 100 Q 576 112 568 120 Q 560 128 548 128 Q 519 129 500 148 Q 481 167 480 196 L 480 289 Q 472 289 464 291 L 464 196 Q 465 160 488 137 Q 512 113 548 112 Q 559 111 560 100 L 560 32 Q 559 17 544 16 L 544 16 Z M 192 321 L 192 321 L 192 208 Q 193 167 220 140 Q 247 113 288 112 Q 329 113 356 140 Q 383 167 384 208 L 384 321 Q 376 320 368 319 L 368 208 Q 367 174 345 151 Q 322 129 288 128 Q 254 129 231 151 Q 209 174 208 208 L 208 319 Q 200 320 192 321 L 192 321 Z M 295 340 Q 307 356 322 370 Q 335 382 351 391 Q 367 400 384 400 Q 401 400 417 391 Q 433 382 446 370 Q 461 356 473 339 Q 476 336 480 336 Q 484 336 487 339 Q 498 355 512 368 Q 536 393 569 400 Q 576 401 576 408 Q 574 416 567 415 Q 547 412 530 402 Q 513 391 501 379 Q 487 366 480 357 Q 472 367 457 382 Q 443 395 424 405 Q 406 415 384 416 Q 362 415 344 405 Q 325 395 311 382 Q 296 367 288 357 L 288 357 L 288 357 Q 280 367 265 382 Q 251 395 232 405 Q 214 415 192 416 Q 170 415 152 405 Q 133 395 119 382 Q 104 367 96 357 Q 89 366 75 379 Q 63 391 46 402 Q 29 412 9 415 Q 2 416 0 409 Q 0 401 7 400 Q 40 393 64 368 Q 78 355 89 339 Q 92 336 96 336 Q 100 336 103 339 Q 115 356 130 370 Q 143 382 159 391 Q 175 400 192 400 Q 209 400 225 391 Q 241 382 254 370 Q 269 356 281 339 Q 288 333 295 339 L 295 340 Z"/>
</svg>
