<svg xmlns="http://www.w3.org/2000/svg" viewBox="0 0 512 512">
  <path d="M 512 108.8 L 512 403.2 L 512 108.8 L 512 403.2 Q 511.2 408.8 505.6 409.6 Q 500 408.8 499.2 403.2 L 499.2 108.8 L 499.2 108.8 Q 500 103.2 505.6 102.4 Q 511.2 103.2 512 108.8 L 512 108.8 Z M 408 251.2 Q 411.2 256 408 260.8 L 286.4 382.4 L 286.4 382.4 Q 281.6 385.6 276.8 382.4 Q 273.6 377.6 276.8 372.8 L 388 262.4 L 388 262.4 L 6.4 262.4 L 6.4 262.4 Q 0.8 261.6 0 256 Q 0.8 250.4 6.4 249.6 L 388 249.6 L 388 249.6 L 276.8 139.2 L 276.8 139.2 Q 273.6 134.4 276.8 129.6 Q 281.6 126.4 286.4 129.6 L 408 251.2 L 408 251.2 Z" />
</svg>