<svg xmlns="http://www.w3.org/2000/svg" viewBox="0 0 512 512">
  <path d="M 180 0 Q 158 1 143 15 L 143 15 L 143 15 Q 129 30 128 52 L 128 240 L 128 240 L 128 250 L 128 250 Q 119 255 111 262 L 82 287 L 82 287 Q 57 309 56 342 L 56 366 L 56 366 Q 56 403 74 434 Q 92 465 125 484 L 143 494 L 143 494 Q 174 512 210 512 L 352 512 L 352 512 Q 396 511 426 482 Q 455 452 456 408 L 456 392 L 456 392 L 456 308 L 456 308 L 456 304 L 456 304 Q 456 303 456 302 Q 453 279 436 264 Q 420 249 396 248 Q 391 248 386 249 Q 369 218 332 216 Q 323 216 314 219 Q 298 186 260 184 Q 245 184 232 191 L 232 52 L 232 52 Q 231 30 217 15 Q 202 1 180 0 L 180 0 Z M 128 269 L 128 344 L 128 269 L 128 344 Q 129 351 136 352 Q 143 351 144 344 L 144 254 L 144 254 L 144 240 L 144 240 L 144 52 L 144 52 Q 144 37 155 27 Q 165 16 180 16 Q 195 16 205 27 Q 216 37 216 52 L 216 207 L 216 207 Q 216 212 221 214 Q 226 216 230 212 Q 242 201 260 200 Q 292 202 302 231 Q 303 235 307 236 Q 310 238 313 236 Q 322 232 332 232 Q 362 234 373 261 Q 377 268 383 266 Q 389 264 396 264 Q 414 265 426 276 Q 438 287 440 305 Q 440 305 440 305 Q 440 305 440 306 L 440 308 L 440 308 L 440 392 L 440 392 L 440 408 L 440 408 Q 439 445 414 470 Q 389 495 352 496 L 210 496 L 210 496 Q 178 496 151 480 L 133 470 L 133 470 Q 104 453 88 426 Q 72 398 72 366 L 72 342 L 72 342 Q 73 316 92 299 L 121 274 L 121 274 Q 124 271 128 269 L 128 269 Z" />
</svg>