<svg xmlns="http://www.w3.org/2000/svg" viewBox="0 0 512 512">
  <path d="M 128 24 Q 129 17 136 16 L 152 16 L 152 16 Q 159 17 160 24 L 160 80 L 160 80 Q 161 121 188 148 Q 215 175 256 176 Q 297 175 324 148 Q 351 121 352 80 L 352 24 L 352 24 Q 353 17 360 16 L 376 16 L 376 16 Q 383 17 384 24 Q 386 119 395 170 L 395 170 L 395 170 L 80 406 L 80 406 L 80 291 L 80 291 Q 80 277 86 262 Q 91 251 95 241 Q 97 236 100 232 Q 110 210 118 161 Q 127 112 128 24 L 128 24 Z M 80 426 L 85 422 L 80 426 L 85 422 L 399 187 L 399 187 Q 404 211 410 226 L 82 476 L 82 476 Q 80 471 80 464 L 80 426 L 80 426 Z M 417 241 Q 417 243 418 244 L 418 244 L 418 244 Q 422 253 426 262 Q 432 277 432 291 L 432 464 L 432 464 Q 432 478 423 487 Q 414 496 400 496 L 112 496 L 112 496 Q 100 496 92 489 L 417 241 L 417 241 Z M 136 0 Q 114 2 112 24 Q 111 111 102 158 Q 94 206 85 226 Q 84 227 83 229 Q 82 231 81 234 Q 76 245 72 256 Q 65 273 64 291 L 64 464 L 64 464 Q 65 484 78 498 Q 92 511 112 512 L 400 512 L 400 512 Q 420 511 434 498 Q 447 484 448 464 L 448 291 L 448 291 Q 447 273 441 256 Q 436 245 431 234 L 431 234 L 431 234 Q 430 231 429 229 Q 428 227 427 225 Q 418 206 410 158 Q 401 111 400 24 Q 398 2 376 0 L 360 0 L 360 0 Q 338 2 336 24 L 336 80 L 336 80 Q 335 114 313 137 Q 290 159 256 160 Q 222 159 199 137 Q 177 114 176 80 L 176 24 L 176 24 Q 174 2 152 0 L 136 0 L 136 0 Z" />
</svg>