<svg xmlns="http://www.w3.org/2000/svg" viewBox="0 0 512 512">
  <path d="M 168 32 L 344 32 L 168 32 L 344 32 Q 366 34 368 56 L 368 112 L 368 112 L 144 112 L 144 112 L 144 56 L 144 56 Q 146 34 168 32 L 168 32 Z M 128 56 L 128 112 L 128 56 L 128 112 L 64 112 L 64 112 Q 37 113 19 131 Q 1 149 0 176 L 0 432 L 0 432 Q 1 459 19 477 Q 37 495 64 496 L 448 496 L 448 496 Q 475 495 493 477 Q 511 459 512 432 L 512 176 L 512 176 Q 511 149 493 131 Q 475 113 448 112 L 384 112 L 384 112 L 384 56 L 384 56 Q 384 39 372 28 Q 361 16 344 16 L 168 16 L 168 16 Q 151 16 140 28 Q 128 39 128 56 L 128 56 Z M 136 128 L 376 128 L 136 128 L 448 128 Q 468 129 482 142 Q 495 156 496 176 L 496 432 L 496 432 Q 495 452 482 466 Q 468 479 448 480 L 64 480 L 64 480 Q 44 479 30 466 Q 17 452 16 432 L 16 176 L 16 176 Q 17 156 30 142 Q 44 129 64 128 L 136 128 L 136 128 Z M 294 210 Q 288 206 282 210 Q 278 216 282 222 L 357 296 L 357 296 L 136 296 L 136 296 Q 129 297 128 304 Q 129 311 136 312 L 357 312 L 357 312 L 282 386 L 282 386 Q 278 392 282 398 Q 288 402 294 398 L 382 310 L 382 310 Q 386 304 382 298 L 294 210 L 294 210 Z" />
</svg>