<svg xmlns="http://www.w3.org/2000/svg" viewBox="0 0 512 512">
  <path d="M 237.18375 24.75822 Q 256 16.83559 274.81625 24.75822 L 450.10446 99.03288 L 450.10446 99.03288 Q 475.853 110.916824 477.83365 140.6267 Q 478.82397 190.14313 460.99808 255.50484 Q 444.16248 320.86655 399.5977 383.25726 Q 356.02322 445.64798 275.80658 486.25146 Q 256 495.1644 237.18375 486.25146 Q 155.97679 445.64798 112.40232 383.25726 Q 67.837524 320.86655 51.001934 255.50484 Q 33.176014 190.14313 34.166344 140.6267 Q 36.147003 110.916824 62.88588 98.04256 L 237.18375 23.76789 L 237.18375 24.75822 Z M 280.7582 9.903288 Q 256 0 231.24178 9.903288 L 55.95358 84.17795 L 55.95358 84.17795 Q 39.11799 91.11025 29.2147 105.96519 Q 18.321083 120.820114 18.321083 140.6267 Q 17.330755 191.13347 35.156673 259.46616 Q 52.982594 327.79883 99.528046 392.17023 Q 145.08318 457.53192 230.25145 500.11606 Q 256 512 281.74854 500.11606 Q 366.91684 457.53192 412.47195 392.17023 Q 459.0174 327.79883 476.84332 259.46616 Q 494.66925 191.13347 493.67892 140.6267 Q 493.67892 120.820114 482.7853 105.96519 Q 472.88202 91.11025 456.04642 84.17795 L 280.7582 9.903288 L 280.7582 9.903288 Z M 178.75435 178.25919 Q 174.79303 184.20116 178.75435 190.14313 L 245.10638 255.50484 L 245.10638 255.50484 L 178.75435 320.86655 L 178.75435 320.86655 Q 174.79303 326.8085 178.75435 332.7505 Q 184.69632 336.7118 190.63829 332.7505 L 256 266.39844 L 256 266.39844 L 321.3617 332.7505 L 321.3617 332.7505 Q 327.30368 336.7118 333.24564 332.7505 Q 337.20697 326.8085 333.24564 320.86655 L 266.89362 255.50484 L 266.89362 255.50484 L 333.24564 190.14313 L 333.24564 190.14313 Q 337.20697 184.20116 333.24564 178.25919 Q 327.30368 174.29787 321.3617 178.25919 L 256 244.61122 L 256 244.61122 L 190.63829 178.25919 L 190.63829 178.25919 Q 184.69632 174.29787 178.75435 178.25919 L 178.75435 178.25919 Z" />
</svg>