<svg xmlns="http://www.w3.org/2000/svg" viewBox="0 0 512 512">
  <path d="M 114.72199 21.244814 Q 121.095436 16.995852 127.46888 21.244814 L 237.94191 131.71785 L 237.94191 131.71785 Q 242.19087 138.0913 237.94191 144.46474 Q 231.56847 148.7137 225.19502 144.46474 L 129.59337 47.80083 L 129.59337 47.80083 L 129.59337 486.50623 L 129.59337 486.50623 Q 128.53113 493.9419 121.095436 495.00415 Q 113.65975 493.9419 112.59751 486.50623 L 112.59751 47.80083 L 112.59751 47.80083 L 16.995852 144.46474 L 16.995852 144.46474 Q 10.622407 148.7137 4.248963 144.46474 Q 0 138.0913 4.248963 131.71785 L 114.72199 21.244814 L 114.72199 21.244814 Z M 418.52283 305.92532 L 507.75104 454.639 L 418.52283 305.92532 L 507.75104 454.639 Q 512 461.01245 512 468.44812 Q 509.87552 492.87967 485.44397 495.00415 L 300.6141 495.00415 L 300.6141 495.00415 Q 276.1826 492.87967 274.0581 468.44812 Q 274.0581 461.01245 278.30707 454.639 L 367.53528 305.92532 L 367.53528 305.92532 Q 376.0332 291.05396 393.02905 291.05396 Q 410.0249 291.05396 418.52283 305.92532 L 418.52283 305.92532 Z M 382.40665 314.42325 L 292.11618 463.13693 L 382.40665 314.42325 L 292.11618 463.13693 Q 291.05396 465.2614 291.05396 468.44812 Q 292.11618 476.94604 300.6141 478.0083 L 485.44397 478.0083 L 485.44397 478.0083 Q 493.9419 476.94604 495.00415 468.44812 Q 495.00415 466.32364 493.9419 463.13693 L 404.71368 314.42325 L 404.71368 314.42325 Q 400.46472 308.0498 393.02905 308.0498 Q 385.59335 308.0498 382.40665 314.42325 L 382.40665 314.42325 Z M 308.0498 172.083 Q 308.0498 186.95436 317.60995 196.51453 L 317.60995 196.51453 L 317.60995 196.51453 Q 327.17014 206.07469 342.0415 206.07469 L 444.0166 206.07469 L 444.0166 206.07469 Q 458.88797 206.07469 468.44812 196.51453 Q 478.0083 186.95436 478.0083 172.083 L 478.0083 70.10789 L 478.0083 70.10789 Q 478.0083 55.236515 468.44812 45.67635 Q 458.88797 36.116184 444.0166 36.116184 L 342.0415 36.116184 L 342.0415 36.116184 Q 327.17014 36.116184 317.60995 45.67635 Q 308.0498 55.236515 308.0498 70.10789 L 308.0498 172.083 L 308.0498 172.083 Z M 291.05396 172.083 L 291.05396 70.10789 L 291.05396 172.083 L 291.05396 70.10789 Q 292.11618 48.86307 305.92532 33.991703 Q 320.7967 20.182573 342.0415 19.120333 L 444.0166 19.120333 L 444.0166 19.120333 Q 465.2614 20.182573 480.13278 33.991703 Q 493.9419 48.86307 495.00415 70.10789 L 495.00415 172.083 L 495.00415 172.083 Q 493.9419 193.3278 480.13278 208.19917 Q 465.2614 222.0083 444.0166 223.07054 L 342.0415 223.07054 L 342.0415 223.07054 Q 320.7967 222.0083 305.92532 208.19917 Q 292.11618 193.3278 291.05396 172.083 L 291.05396 172.083 Z" />
</svg>