<svg xmlns="http://www.w3.org/2000/svg" viewBox="0 0 512 512">
  <path d="M 8 32 Q 1 33 0 40 L 0 472 L 0 472 Q 1 479 8 480 Q 15 479 16 472 L 16 40 L 16 40 Q 15 33 8 32 L 8 32 Z M 150 138 Q 144 134 138 138 Q 134 144 138 150 L 245 256 L 245 256 L 138 362 L 138 362 Q 134 368 138 374 Q 144 378 150 374 L 256 267 L 256 267 L 362 374 L 362 374 Q 368 378 374 374 Q 378 368 374 362 L 267 256 L 267 256 L 374 150 L 374 150 Q 378 144 374 138 Q 368 134 362 138 L 256 245 L 256 245 L 150 138 L 150 138 Z M 512 40 Q 511 33 504 32 Q 497 33 496 40 L 496 472 L 496 472 Q 497 479 504 480 Q 511 479 512 472 L 512 40 L 512 40 Z" />
</svg>