<svg xmlns="http://www.w3.org/2000/svg" viewBox="0 0 512 512">
  <path d="M 32 8 Q 33 1 40 0 L 104 0 L 472 0 Q 479 1 480 8 Q 479 15 472 16 L 416 16 L 416 16 L 416 96 L 416 96 Q 415 103 408 104 L 104 104 L 104 104 Q 97 103 96 96 L 96 16 L 96 16 L 40 16 L 40 16 Q 33 15 32 8 L 32 8 Z M 112 16 L 112 88 L 112 16 L 112 88 L 400 88 L 400 88 L 400 16 L 400 16 L 112 16 L 112 16 Z M 96 160 Q 97 153 104 152 L 408 152 L 408 152 Q 415 153 416 160 Q 415 167 408 168 L 104 168 L 104 168 Q 97 167 96 160 L 96 160 Z M 96 224 Q 97 217 104 216 L 472 216 L 472 216 Q 479 217 480 224 Q 479 231 472 232 L 104 232 L 104 232 Q 97 231 96 224 L 96 224 Z M 96 288 Q 97 281 104 280 L 408 280 L 408 280 Q 415 281 416 288 Q 415 295 408 296 L 104 296 L 104 296 Q 97 295 96 288 L 96 288 Z M 96 352 Q 97 345 104 344 L 408 344 L 408 344 Q 415 345 416 352 Q 415 359 408 360 L 104 360 L 104 360 Q 97 359 96 352 L 96 352 Z M 40 512 Q 33 511 32 504 Q 33 497 40 496 L 96 496 L 96 496 L 96 416 L 96 416 Q 97 409 104 408 L 408 408 L 408 408 Q 415 409 416 416 L 416 496 L 416 496 L 472 496 L 472 496 Q 479 497 480 504 Q 479 511 472 512 L 408 512 L 40 512 Z M 112 424 L 112 496 L 112 424 L 112 496 L 400 496 L 400 496 L 400 424 L 400 424 L 112 424 L 112 424 Z" />
</svg>