<svg xmlns="http://www.w3.org/2000/svg" viewBox="0 0 512 512">
  <path d="M 486.71606 504.09875 Q 496.19754 512 504.09875 504.09875 Q 512 496.19754 504.09875 486.71606 L 273.38272 256 L 273.38272 256 L 504.09875 25.28395 L 504.09875 25.28395 Q 512 15.802469 504.09875 7.9012346 Q 496.19754 0 486.71606 7.9012346 L 256 238.61728 L 256 238.61728 L 25.28395 7.9012346 L 25.28395 7.9012346 Q 15.802469 0 7.9012346 7.9012346 Q 0 15.802469 7.9012346 25.28395 L 238.61728 256 L 238.61728 256 L 7.9012346 486.71606 L 7.9012346 486.71606 Q 0 496.19754 7.9012346 504.09875 Q 15.802469 512 25.28395 504.09875 L 256 273.38272 L 256 273.38272 L 486.71606 504.09875 L 486.71606 504.09875 Z" />
</svg>