<svg xmlns="http://www.w3.org/2000/svg" viewBox="0 0 448 512">
    <path d="M 16 104 Q 17 67 42 42 L 42 42 Q 67 17 104 16 L 280 16 Q 317 17 342 42 Q 367 67 368 104 L 368 128 L 336 128 Q 306 129 285 146 Q 264 164 258 192 L 136 192 Q 112 191 96 176 Q 81 160 80 136 L 80 128 Q 79 121 72 120 Q 65 121 64 128 L 64 136 Q 65 167 85 187 Q 105 207 136 208 L 256 208 Q 257 242 279 265 Q 302 287 336 288 Q 343 287 344 280 Q 343 273 336 272 Q 309 271 291 253 Q 273 235 272 208 Q 273 181 291 163 Q 309 145 336 144 L 374 144 Q 375 144 375 144 Q 376 144 376 144 Q 400 145 416 160 Q 431 176 432 200 L 432 249 Q 432 277 413 298 L 349 367 Q 336 381 336 400 L 336 464 Q 336 478 327 487 Q 318 496 304 496 L 80 496 Q 66 496 57 487 Q 48 478 48 464 L 48 360 Q 48 356 45 354 Q 17 328 16 288 L 16 104 L 16 104 Z M 104 0 Q 60 1 30 30 L 30 30 Q 1 60 0 104 L 0 288 Q 1 333 32 363 L 32 464 Q 33 484 46 498 Q 60 511 80 512 L 304 512 Q 324 511 338 498 Q 351 484 352 464 L 352 400 Q 352 387 361 378 L 425 308 Q 448 283 448 249 L 448 200 Q 447 172 430 152 Q 412 132 384 128 L 384 104 Q 383 60 354 30 Q 324 1 280 0 L 104 0 L 104 0 Z M 141 338 Q 134 334 129 339 Q 126 346 131 351 L 178 384 L 131 418 Q 126 422 129 429 Q 134 434 141 431 L 192 394 L 243 431 Q 250 434 255 429 Q 258 422 253 417 L 206 384 L 253 351 Q 258 346 255 339 Q 250 334 243 337 L 192 374 L 141 338 L 141 338 Z"/>
</svg>
