<svg xmlns="http://www.w3.org/2000/svg" viewBox="0 0 512 512">
  <path d="M 496 416 Q 495 436 482 450 L 482 450 L 482 450 Q 468 463 448 464 L 64 464 L 64 464 Q 44 463 30 450 Q 17 436 16 416 L 16 96 L 16 96 Q 17 76 30 62 Q 44 49 64 48 L 198 48 L 198 48 Q 217 48 231 62 L 267 98 L 267 98 Q 281 112 301 112 L 448 112 L 448 112 Q 468 113 482 126 Q 495 140 496 160 L 496 416 L 496 416 Z M 64 480 L 448 480 L 64 480 L 448 480 Q 475 479 493 461 Q 511 443 512 416 L 512 160 L 512 160 Q 511 133 493 115 Q 475 97 448 96 L 301 96 L 301 96 Q 288 96 279 87 L 243 51 L 243 51 Q 224 32 197 32 L 64 32 L 64 32 Q 37 33 19 51 Q 1 69 0 96 L 0 416 L 0 416 Q 1 443 19 461 Q 37 479 64 480 L 64 480 Z M 160 250 Q 160 232 172 220 L 172 220 L 172 220 Q 184 208 202 208 Q 219 208 232 220 L 250 239 L 250 239 Q 253 241 256 241 Q 259 241 262 239 L 280 220 L 280 220 Q 293 208 310 208 Q 328 208 340 220 Q 352 232 352 250 L 352 251 L 352 251 Q 352 267 341 279 L 262 365 L 262 365 Q 259 368 256 368 Q 253 368 250 365 L 171 279 L 171 279 Q 160 267 160 250 L 160 250 L 160 250 Z M 202 192 Q 177 193 161 209 L 161 209 L 161 209 Q 145 225 144 250 L 144 251 L 144 251 Q 144 273 159 290 L 238 376 L 238 376 Q 245 384 256 384 Q 266 384 274 376 L 353 290 L 353 290 Q 368 273 368 251 L 368 250 L 368 250 Q 367 225 351 209 Q 335 193 310 192 Q 286 192 269 209 L 256 222 L 256 222 L 243 209 L 243 209 Q 226 192 202 192 L 202 192 Z" />
</svg>