<svg xmlns="http://www.w3.org/2000/svg" viewBox="0 0 544 512">
    <path d="M 288 16 Q 194 18 129 76 L 129 76 Q 63 135 50 225 Q 48 232 41 232 Q 34 230 34 223 Q 48 126 118 64 Q 188 2 288 0 Q 360 1 417 35 Q 475 69 509 127 Q 543 184 544 256 Q 543 328 509 385 Q 475 443 417 477 Q 360 511 288 512 Q 235 512 189 492 Q 143 472 108 438 Q 103 432 108 426 Q 113 422 119 426 Q 152 459 195 477 Q 238 496 288 496 Q 355 495 409 463 Q 463 431 495 377 Q 527 323 528 256 Q 527 189 495 135 Q 463 81 409 49 Q 355 17 288 16 L 288 16 Z M 198 162 Q 202 168 198 174 L 190 181 Q 156 215 108 224 L 105 224 Q 98 224 96 217 Q 96 210 103 208 L 105 208 Q 148 200 179 170 L 186 162 Q 192 158 198 162 L 198 162 Z M 378 174 Q 374 168 378 162 Q 384 158 390 162 L 397 170 Q 428 200 471 208 L 473 208 Q 481 210 480 217 Q 478 224 471 224 L 468 224 Q 420 215 386 181 L 378 174 L 378 174 Z M 64 275 Q 50 292 35 316 Q 26 330 21 341 Q 16 353 16 357 Q 16 375 30 387 Q 43 399 64 400 Q 85 399 98 387 Q 112 375 112 357 Q 112 353 107 341 Q 102 330 93 316 Q 78 292 64 275 L 64 275 Z M 56 260 Q 64 252 73 260 Q 88 278 107 307 Q 126 337 128 357 Q 127 382 109 399 Q 91 415 64 416 Q 37 415 19 399 Q 1 382 0 357 Q 2 337 21 307 Q 41 278 56 260 L 56 260 Z M 368 256 Q 382 257 384 272 Q 382 287 368 288 Q 353 287 352 272 Q 353 257 368 256 L 368 256 Z M 224 272 Q 222 287 208 288 Q 193 287 192 272 Q 193 257 208 256 Q 222 257 224 272 L 224 272 Z M 284 320 L 292 320 Q 328 321 351 345 Q 375 368 376 404 Q 375 415 364 416 L 212 416 Q 201 415 200 404 Q 201 368 225 345 Q 248 321 284 320 L 284 320 Z M 360 400 Q 358 373 339 355 L 339 355 Q 320 337 292 336 L 284 336 Q 256 337 237 355 Q 218 373 216 400 L 360 400 L 360 400 Z"/>
</svg>
