<svg xmlns="http://www.w3.org/2000/svg" viewBox="0 0 512 512">
  <path d="M 144 40 L 144 64 L 144 40 L 144 64 L 368 64 L 368 64 L 368 40 L 368 40 Q 366 18 344 16 L 168 16 L 168 16 Q 146 18 144 40 L 144 40 Z M 128 66 L 128 40 L 128 66 L 128 40 Q 128 23 140 12 Q 151 0 168 0 L 344 0 L 344 0 Q 361 0 372 12 Q 384 23 384 40 L 384 66 L 384 66 Q 412 72 430 93 Q 447 114 448 144 L 448 368 L 448 368 Q 447 398 430 419 Q 412 440 384 446 L 384 472 L 384 472 Q 384 489 372 500 Q 361 512 344 512 L 168 512 L 168 512 Q 151 512 140 500 Q 128 489 128 472 L 128 446 L 128 446 Q 100 440 82 419 Q 65 398 64 368 L 64 144 L 64 144 Q 65 114 82 93 Q 100 72 128 66 L 128 66 Z M 144 472 Q 146 494 168 496 L 344 496 L 344 496 Q 366 494 368 472 L 368 448 L 368 448 L 144 448 L 144 448 L 144 472 L 144 472 Z M 368 432 Q 395 431 413 413 L 413 413 L 413 413 Q 431 395 432 368 L 432 144 L 432 144 Q 431 117 413 99 Q 395 81 368 80 L 144 80 L 144 80 Q 117 81 99 99 Q 81 117 80 144 L 80 368 L 80 368 Q 81 395 99 413 Q 117 431 144 432 L 144 432 L 144 432 L 368 432 L 368 432 Z M 264 160 L 264 252 L 264 160 L 264 252 L 325 298 L 325 298 Q 330 303 326 309 Q 321 314 315 310 L 251 262 L 251 262 Q 248 260 248 256 L 248 160 L 248 160 Q 249 153 256 152 Q 263 153 264 160 L 264 160 Z" />
</svg>