<svg xmlns="http://www.w3.org/2000/svg" viewBox="0 0 512 512">
  <path d="M 369.77777 469.33334 L 142.22223 469.33334 L 369.77777 469.33334 L 142.22223 469.33334 Q 124.44444 468.44446 112 456.8889 Q 100.44444 444.44446 99.55556 426.66666 L 99.55556 341.33334 L 99.55556 341.33334 L 85.333336 341.33334 L 85.333336 341.33334 L 85.333336 426.66666 L 85.333336 426.66666 Q 86.22222 450.66666 102.22222 466.66666 Q 118.22222 482.66666 142.22223 483.55554 L 369.77777 483.55554 L 369.77777 483.55554 Q 393.77777 482.66666 409.77777 466.66666 Q 425.77777 450.66666 426.66666 426.66666 L 426.66666 341.33334 L 426.66666 341.33334 L 412.44446 341.33334 L 412.44446 341.33334 L 412.44446 426.66666 L 412.44446 426.66666 Q 411.55554 444.44446 400 456.8889 Q 387.55554 468.44446 369.77777 469.33334 L 369.77777 469.33334 Z M 412.44446 188.44444 L 412.44446 241.77777 L 412.44446 188.44444 L 412.44446 241.77777 L 426.66666 241.77777 L 426.66666 241.77777 L 426.66666 188.44444 L 426.66666 188.44444 Q 426.66666 170.66667 414.22223 158.22223 L 296.8889 40.88889 L 296.8889 40.88889 Q 284.44446 28.444445 266.66666 28.444445 L 142.22223 28.444445 L 142.22223 28.444445 Q 118.22222 29.333334 102.22222 45.333332 Q 86.22222 61.333332 85.333336 85.333336 L 85.333336 241.77777 L 85.333336 241.77777 L 99.55556 241.77777 L 99.55556 241.77777 L 99.55556 85.333336 L 99.55556 85.333336 Q 100.44444 67.55556 112 55.11111 Q 124.44444 43.555557 142.22223 42.666668 L 266.66666 42.666668 L 266.66666 42.666668 Q 268.44446 42.666668 270.22223 42.666668 L 270.22223 149.33333 L 270.22223 149.33333 Q 270.22223 164.44444 280.8889 174.22223 Q 290.66666 184.88889 305.77777 184.88889 L 412.44446 184.88889 L 412.44446 184.88889 Q 412.44446 186.66667 412.44446 188.44444 L 412.44446 188.44444 Z M 406.22223 170.66667 L 305.77777 170.66667 L 406.22223 170.66667 L 305.77777 170.66667 Q 286.22223 168.88889 284.44446 149.33333 L 284.44446 48.88889 L 284.44446 48.88889 Q 286.22223 49.77778 287.1111 50.666668 L 404.44446 168 L 404.44446 168 Q 405.33334 169.77777 406.22223 170.66667 L 406.22223 170.66667 Z M 7.111111 284.44446 Q 0.8888889 285.33334 0 291.55554 Q 0.8888889 297.77777 7.111111 298.66666 L 135.11111 298.66666 L 135.11111 298.66666 Q 141.33333 297.77777 142.22223 291.55554 Q 141.33333 285.33334 135.11111 284.44446 L 7.111111 284.44446 L 7.111111 284.44446 Z M 206.22223 284.44446 Q 200 285.33334 199.11111 291.55554 Q 200 297.77777 206.22223 298.66666 L 305.77777 298.66666 L 305.77777 298.66666 Q 312 297.77777 312.8889 291.55554 Q 312 285.33334 305.77777 284.44446 L 206.22223 284.44446 L 206.22223 284.44446 Z M 376.8889 284.44446 Q 370.66666 285.33334 369.77777 291.55554 Q 370.66666 297.77777 376.8889 298.66666 L 504.8889 298.66666 L 504.8889 298.66666 Q 511.1111 297.77777 512 291.55554 Q 511.1111 285.33334 504.8889 284.44446 L 376.8889 284.44446 L 376.8889 284.44446 Z" />
</svg>