<svg xmlns="http://www.w3.org/2000/svg" viewBox="0 0 512 512">
  <path d="M 104 0 Q 97 1 96 8 L 96 254 L 96 254 Q 96 260 98 265 Q 101 288 123 294 L 240 318 L 240 318 Q 248 320 255 320 L 256 320 L 257 320 Q 264 320 272 318 L 389 294 L 389 294 Q 414 286 415 261 L 414 258 L 414 258 Q 415 255 415 252 L 408 143 L 408 143 Q 405 103 385 72 Q 365 40 333 21 Q 299 0 256 0 Q 205 1 167 29 Q 128 57 112 103 L 112 16 L 112 16 L 128 16 L 128 16 Q 135 15 136 8 Q 135 1 128 0 L 104 0 L 104 0 Z M 133 278 Q 116 273 114 257 L 118 179 L 118 179 Q 126 183 138 192 Q 165 209 180 258 Q 182 265 189 264 Q 196 261 195 254 Q 188 226 175 208 Q 162 190 148 179 Q 134 169 125 165 Q 121 163 119 162 L 119 154 L 119 154 L 224 182 L 224 182 L 224 297 L 224 297 L 133 278 L 133 278 L 133 278 L 133 278 Z M 240 301 L 240 176 L 240 301 L 240 176 Q 240 170 234 168 L 121 138 L 121 138 Q 121 133 122 128 L 128 128 L 390 128 Q 391 133 392 138 L 278 168 L 278 168 Q 272 170 272 176 L 272 301 L 272 301 L 256 304 L 256 304 L 240 301 L 240 301 Z M 189 34 Q 219 16 256 16 Q 303 17 338 43 Q 372 69 386 112 L 384 112 L 126 112 Q 143 60 189 33 L 189 34 Z M 288 297 L 288 182 L 288 297 L 288 182 L 393 154 L 393 154 L 393 160 L 393 160 L 392 161 L 392 161 Q 392 161 392 161 Q 391 161 390 161 Q 390 161 390 161 Q 387 162 382 165 Q 373 169 359 179 Q 345 190 332 208 Q 319 226 312 254 Q 311 261 318 264 Q 325 265 328 258 Q 342 209 369 192 Q 381 183 389 179 Q 391 178 393 177 Q 393 177 394 177 L 398 257 L 398 257 Q 395 273 379 278 L 288 297 L 288 297 Z M 166 368 L 346 368 L 166 368 L 346 368 Q 396 369 429 403 Q 463 436 464 486 Q 463 495 454 496 L 347 496 L 347 496 L 267 416 L 267 416 Q 256 407 245 416 L 165 496 L 165 496 L 58 496 L 58 496 Q 49 495 48 486 Q 49 436 83 403 Q 116 369 166 368 L 166 368 Z M 325 496 L 187 496 L 325 496 L 187 496 L 256 427 L 256 427 L 325 496 L 325 496 Z M 166 352 Q 109 353 71 391 L 71 391 L 71 391 Q 33 429 32 486 Q 34 510 58 512 L 454 512 L 454 512 Q 478 510 480 486 Q 479 429 441 391 Q 403 353 346 352 L 166 352 L 166 352 Z" />
</svg>