<svg xmlns="http://www.w3.org/2000/svg" viewBox="0 0 512 512">
  <path d="M 177.77777 28.444445 Q 171.55556 29.333334 170.66667 35.555557 Q 171.55556 41.77778 177.77777 42.666668 L 190.22223 42.666668 L 190.22223 42.666668 L 136.88889 298.66666 L 136.88889 298.66666 L 85.333336 298.66666 L 85.333336 298.66666 Q 72.888885 298.66666 64.888885 306.66666 Q 56.88889 314.66666 56.88889 327.1111 L 56.88889 341.33334 L 56.88889 341.33334 Q 56.88889 359.1111 61.333332 375.1111 Q 68.44444 372.44446 75.55556 371.55554 Q 71.111115 356.44446 71.111115 341.33334 L 71.111115 327.1111 L 71.111115 327.1111 Q 72 313.77777 85.333336 312.8889 L 426.66666 312.8889 L 426.66666 312.8889 Q 440 313.77777 440.8889 327.1111 L 440.8889 341.33334 L 440.8889 341.33334 Q 440.8889 356.44446 437.33334 371.55554 Q 443.55554 372.44446 450.66666 375.1111 Q 455.1111 359.1111 455.1111 341.33334 L 455.1111 327.1111 L 455.1111 327.1111 Q 455.1111 314.66666 447.1111 306.66666 Q 439.1111 298.66666 426.66666 298.66666 L 376 298.66666 L 376 298.66666 L 321.77777 42.666668 L 321.77777 42.666668 L 334.22223 42.666668 L 334.22223 42.666668 Q 340.44446 41.77778 341.33334 35.555557 Q 340.44446 29.333334 334.22223 28.444445 L 177.77777 28.444445 L 177.77777 28.444445 Z M 307.55554 42.666668 L 319.1111 98.666664 L 307.55554 42.666668 L 319.1111 98.666664 L 256 171.55556 L 256 171.55556 L 192.88889 98.666664 L 192.88889 98.666664 L 205.33333 42.666668 L 205.33333 42.666668 L 307.55554 42.666668 L 307.55554 42.666668 Z M 189.33333 115.55556 L 247.11111 182.22223 L 189.33333 115.55556 L 247.11111 182.22223 L 152.88889 291.55554 L 152.88889 291.55554 L 189.33333 115.55556 L 189.33333 115.55556 Z M 256 192.88889 L 347.55554 298.66666 L 256 192.88889 L 347.55554 298.66666 L 165.33333 298.66666 L 165.33333 298.66666 L 256 192.88889 L 256 192.88889 Z M 359.1111 291.55554 L 265.77777 182.22223 L 359.1111 291.55554 L 265.77777 182.22223 L 322.66666 115.55556 L 322.66666 115.55556 L 359.1111 291.55554 L 359.1111 291.55554 Z M 262.22223 415.1111 Q 256 409.77777 249.77777 415.1111 Q 239.11111 430.22223 225.77777 442.66666 Q 214.22223 453.33334 200 461.33334 Q 185.77777 469.33334 170.66667 469.33334 Q 155.55556 469.33334 141.33333 461.33334 Q 127.111115 453.33334 115.55556 442.66666 Q 102.22222 430.22223 91.55556 415.1111 Q 88.888885 412.44446 85.333336 412.44446 Q 81.77778 412.44446 79.111115 415.1111 Q 69.333336 429.33334 56.88889 440.8889 Q 35.555557 463.1111 6.2222223 469.33334 Q 0 470.22223 0 477.33334 Q 1.7777778 483.55554 8 482.66666 Q 25.777779 480 40.88889 471.1111 Q 56 461.33334 66.666664 450.66666 Q 79.111115 439.1111 85.333336 431.1111 Q 92.44444 440 105.77778 453.33334 Q 118.22222 464.8889 135.11111 473.77777 Q 151.11111 482.66666 170.66667 483.55554 Q 190.22223 482.66666 206.22223 473.77777 Q 223.11111 464.8889 235.55556 453.33334 Q 248.88889 440 256 431.1111 L 256 431.1111 L 256 431.1111 L 256 431.1111 L 256 431.1111 Q 263.1111 440 276.44446 453.33334 Q 288.8889 464.8889 305.77777 473.77777 Q 321.77777 482.66666 341.33334 483.55554 Q 360.8889 482.66666 376.8889 473.77777 Q 393.77777 464.8889 406.22223 453.33334 Q 419.55554 440 426.66666 431.1111 Q 432.8889 439.1111 445.33334 450.66666 Q 456 461.33334 471.1111 471.1111 Q 486.22223 480 504 482.66666 Q 510.22223 483.55554 512 477.33334 Q 512 470.22223 505.77777 469.33334 Q 476.44446 463.1111 455.1111 440.8889 Q 442.66666 429.33334 432.8889 415.1111 Q 430.22223 412.44446 426.66666 412.44446 Q 423.1111 412.44446 420.44446 415.1111 Q 409.77777 430.22223 396.44446 442.66666 Q 384.8889 453.33334 370.66666 461.33334 Q 356.44446 469.33334 341.33334 469.33334 Q 326.22223 469.33334 312 461.33334 Q 297.77777 453.33334 286.22223 442.66666 Q 272.8889 430.22223 262.22223 415.1111 L 262.22223 415.1111 Z" />
</svg>