<svg xmlns="http://www.w3.org/2000/svg" viewBox="0 0 512 394">
    <path d="M 368 13 Q 367 6 360 5 Q 353 6 352 13 L 352 381 Q 353 388 360 389 Q 367 388 368 381 L 368 13 L 368 13 Z M 512 13 Q 511 6 504 5 Q 497 6 496 13 L 496 381 Q 497 388 504 389 Q 511 388 512 381 L 512 13 L 512 13 Z M 25 23 Q 34 19 42 25 L 234 185 Q 240 189 240 197 Q 240 204 234 209 L 42 369 Q 34 375 25 372 L 18 386 L 25 372 Q 16 367 16 357 L 16 37 Q 16 27 25 23 L 25 23 Z M 0 357 Q 1 377 18 386 Q 37 394 53 382 L 245 222 Q 256 212 256 197 Q 256 182 245 172 L 53 12 Q 37 0 18 8 Q 1 17 0 37 L 0 357 L 0 357 Z"/>
</svg>
