<svg xmlns="http://www.w3.org/2000/svg" viewBox="0 0 512 512">
  <path d="M 496 48 L 496 80 L 496 48 L 496 80 L 16 80 L 16 80 L 16 48 L 16 48 L 496 48 L 496 48 Z M 16 32 Q 1 33 0 48 L 0 80 L 0 80 Q 1 95 16 96 L 496 96 L 496 96 Q 511 95 512 80 L 512 48 L 512 48 Q 511 33 496 32 L 16 32 L 16 32 Z M 19 224 L 2 260 L 19 224 L 2 260 Q 0 264 0 268 Q 2 286 20 288 L 492 288 L 492 288 Q 510 286 512 268 Q 512 264 510 260 L 494 224 L 494 224 L 476 224 L 476 224 L 496 267 L 496 267 Q 496 267 496 268 Q 496 268 496 268 Q 496 272 492 272 L 20 272 L 20 272 Q 16 272 16 268 Q 16 267 16 267 L 36 224 L 36 224 L 19 224 L 19 224 Z M 2 356 Q 0 360 0 364 Q 2 382 20 384 L 492 384 L 492 384 Q 510 382 512 364 Q 512 360 510 356 L 494 320 L 494 320 L 476 320 L 476 320 L 496 363 L 496 363 Q 496 363 496 364 Q 496 364 496 364 Q 496 368 492 368 L 20 368 L 20 368 Q 16 368 16 364 Q 16 363 16 363 L 36 320 L 36 320 L 19 320 L 19 320 L 2 356 L 2 356 Z M 19 416 L 2 452 L 19 416 L 2 452 Q 0 456 0 460 Q 2 478 20 480 L 492 480 L 492 480 Q 510 478 512 460 Q 512 456 510 452 L 494 416 L 494 416 L 476 416 L 476 416 L 496 459 L 496 459 Q 496 459 496 460 Q 496 460 496 460 Q 496 464 492 464 L 20 464 L 20 464 Q 16 464 16 460 Q 16 459 16 459 L 36 416 L 36 416 L 19 416 L 19 416 Z M 2 164 Q 0 168 0 172 Q 2 190 20 192 L 492 192 L 492 192 Q 510 190 512 172 Q 512 168 510 164 L 494 128 L 494 128 L 476 128 L 476 128 L 496 171 L 496 171 Q 496 172 496 172 Q 496 176 492 176 L 20 176 L 20 176 Q 16 176 16 172 Q 16 171 16 171 L 36 128 L 36 128 L 19 128 L 19 128 L 2 164 L 2 164 Z" />
</svg>