<svg xmlns="http://www.w3.org/2000/svg" viewBox="0 0 640 512">
    <path d="M 224 16 Q 251 17 266 40 Q 278 64 266 88 Q 251 111 224 112 Q 197 111 182 88 Q 170 64 182 40 Q 197 17 224 16 L 224 16 Z M 224 128 Q 235 128 245 125 L 282 206 Q 257 219 242 243 Q 227 266 224 296 L 128 296 Q 124 272 107 256 Q 89 241 64 240 Q 37 241 19 259 Q 1 277 0 304 Q 1 331 19 349 Q 37 367 64 368 Q 89 367 107 352 Q 124 336 128 312 L 224 312 Q 228 357 260 386 Q 291 415 336 416 Q 395 414 428 368 L 517 422 Q 512 434 512 448 Q 513 475 531 493 Q 549 511 576 512 Q 603 511 621 493 Q 639 475 640 448 Q 639 421 621 403 Q 603 385 576 384 Q 544 385 526 408 L 436 355 Q 448 332 448 304 Q 448 271 431 245 L 531 174 Q 549 191 576 192 Q 603 191 621 173 Q 639 155 640 128 Q 639 101 621 83 Q 603 65 576 64 Q 549 65 531 83 Q 513 101 512 128 Q 512 146 521 161 L 422 232 Q 390 194 336 192 Q 315 192 297 199 L 259 117 Q 287 99 288 64 Q 287 37 269 19 Q 251 1 224 0 Q 197 1 179 19 Q 161 37 160 64 Q 161 91 179 109 Q 197 127 224 128 L 224 128 Z M 64 352 Q 37 351 22 328 Q 10 304 22 280 Q 37 257 64 256 Q 91 257 106 280 Q 118 304 106 328 Q 91 351 64 352 L 64 352 Z M 528 448 Q 528 439 531 431 L 532 431 L 540 417 L 540 417 Q 553 401 576 400 Q 596 401 610 414 Q 623 428 624 448 Q 623 468 610 482 Q 596 496 576 496 Q 556 496 542 482 Q 529 468 528 448 L 528 448 Z M 576 80 Q 603 81 618 104 Q 630 128 618 152 Q 603 175 576 176 Q 549 175 534 152 Q 522 128 534 104 Q 549 81 576 80 L 576 80 Z M 336 208 Q 362 208 384 221 L 384 221 Q 406 234 419 256 Q 432 279 432 304 Q 432 329 419 352 Q 406 374 384 387 Q 362 400 336 400 Q 310 400 288 387 Q 266 374 253 352 Q 240 329 240 304 Q 240 279 253 256 Q 266 234 288 221 Q 310 208 336 208 L 336 208 Z"/>
</svg>
