<svg xmlns="http://www.w3.org/2000/svg" viewBox="0 0 512 512">
  <path d="M 4.5309734 4.5309734 Q 11.327434 0 18.123894 4.5309734 L 201.62831 189.16814 L 201.62831 189.16814 L 201.62831 47.575222 L 201.62831 47.575222 Q 202.76106 39.64602 210.69026 38.513275 Q 218.61948 39.64602 219.75221 47.575222 L 219.75221 210.69026 L 219.75221 210.69026 Q 218.61948 218.61948 210.69026 219.75221 L 47.575222 219.75221 L 47.575222 219.75221 Q 39.64602 218.61948 38.513275 210.69026 Q 39.64602 202.76106 47.575222 201.62831 L 189.16814 201.62831 L 189.16814 201.62831 L 4.5309734 18.123894 L 4.5309734 18.123894 Q 0 11.327434 4.5309734 4.5309734 L 4.5309734 4.5309734 Z M 507.46902 4.5309734 Q 512 11.327434 507.46902 18.123894 L 322.83185 201.62831 L 322.83185 201.62831 L 464.42477 201.62831 L 464.42477 201.62831 Q 472.35397 202.76106 473.48672 210.69026 Q 472.35397 218.61948 464.42477 219.75221 L 301.30972 219.75221 L 301.30972 219.75221 Q 293.38052 218.61948 292.2478 210.69026 L 292.2478 47.575222 L 292.2478 47.575222 Q 293.38052 39.64602 301.30972 38.513275 Q 309.23895 39.64602 310.37167 47.575222 L 310.37167 189.16814 L 310.37167 189.16814 L 493.8761 4.5309734 L 493.8761 4.5309734 Q 500.67258 0 507.46902 4.5309734 L 507.46902 4.5309734 Z M 47.575222 310.37167 Q 39.64602 309.23895 38.513275 301.30972 Q 39.64602 293.38052 47.575222 292.2478 L 210.69026 292.2478 L 210.69026 292.2478 Q 218.61948 293.38052 219.75221 301.30972 L 219.75221 464.42477 L 219.75221 464.42477 Q 218.61948 472.35397 210.69026 473.48672 Q 202.76106 472.35397 201.62831 464.42477 L 201.62831 322.83185 L 201.62831 322.83185 L 18.123894 507.46902 L 18.123894 507.46902 Q 11.327434 512 4.5309734 507.46902 Q 0 500.67258 4.5309734 493.8761 L 189.16814 310.37167 L 189.16814 310.37167 L 47.575222 310.37167 L 47.575222 310.37167 Z M 292.2478 301.30972 Q 293.38052 293.38052 301.30972 292.2478 L 464.42477 292.2478 L 464.42477 292.2478 Q 472.35397 293.38052 473.48672 301.30972 Q 472.35397 309.23895 464.42477 310.37167 L 322.83185 310.37167 L 322.83185 310.37167 L 507.46902 493.8761 L 507.46902 493.8761 Q 512 500.67258 507.46902 507.46902 Q 500.67258 512 493.8761 507.46902 L 310.37167 322.83185 L 310.37167 322.83185 L 310.37167 464.42477 L 310.37167 464.42477 Q 309.23895 472.35397 301.30972 473.48672 Q 293.38052 472.35397 292.2478 464.42477 L 292.2478 301.30972 L 292.2478 301.30972 Z" />
</svg>