<svg xmlns="http://www.w3.org/2000/svg" viewBox="0 0 512 512">
  <path d="M 331 152 Q 348 164 360 181 Q 367 191 379 194 Q 375 206 378 218 Q 384 236 384 256 Q 384 271 395 280 Q 384 289 384 304 L 384 368 L 384 368 Q 384 383 395 392 Q 384 401 384 416 L 384 480 L 384 480 Q 384 494 393 503 Q 402 512 416 512 L 480 512 L 480 512 Q 494 512 503 503 Q 512 494 512 480 L 512 416 L 512 416 Q 512 401 501 392 Q 512 383 512 368 L 512 304 L 512 304 Q 512 289 501 280 Q 512 271 512 256 Q 512 208 495 165 Q 489 150 475 147 Q 480 133 472 119 Q 441 71 393 40 Q 379 32 365 37 Q 362 23 347 17 Q 304 0 256 0 Q 208 0 165 17 Q 150 23 147 37 Q 133 32 119 40 Q 71 71 40 119 Q 32 133 37 147 Q 23 150 17 165 Q 0 208 0 256 Q 0 271 11 280 Q 0 289 0 304 L 0 368 L 0 368 Q 0 383 11 392 Q 0 401 0 416 L 0 480 L 0 480 Q 0 494 9 503 Q 18 512 32 512 L 96 512 L 96 512 Q 110 512 119 503 Q 128 494 128 480 L 128 416 L 128 416 Q 128 401 117 392 Q 128 383 128 368 L 128 304 L 128 304 Q 128 289 117 280 Q 128 271 128 256 Q 128 236 134 218 Q 137 206 133 194 Q 145 191 152 181 Q 164 164 181 152 Q 191 145 194 133 Q 206 137 218 134 Q 236 128 256 128 Q 276 128 294 134 Q 306 137 318 133 Q 321 145 331 152 L 331 152 Z M 395 178 L 395 178 L 395 178 L 395 178 Q 382 183 373 172 Q 359 153 340 139 Q 329 130 334 117 L 334 117 L 334 117 L 363 60 L 363 60 Q 371 47 385 53 Q 430 82 459 127 Q 465 141 452 149 L 452 149 L 452 149 L 395 178 L 395 178 L 395 178 L 395 178 Z M 394 213 Q 390 199 402 192 L 402 192 L 402 192 L 459 163 L 459 163 L 459 163 L 459 163 L 459 163 L 459 163 Q 474 158 481 171 Q 496 211 496 256 Q 495 271 480 272 L 416 272 L 416 272 Q 401 271 400 256 Q 400 233 394 213 L 394 213 Z M 416 400 L 480 400 L 416 400 L 480 400 Q 495 401 496 416 L 496 480 L 496 480 Q 495 495 480 496 L 416 496 L 416 496 Q 401 495 400 480 L 400 416 L 400 416 Q 401 401 416 400 L 416 400 Z M 341 31 Q 354 38 349 53 L 349 53 L 349 53 L 320 110 L 320 110 Q 313 122 299 119 Q 279 112 256 112 Q 233 112 213 119 Q 199 122 192 110 L 163 53 L 163 53 L 163 53 L 163 53 Q 158 38 171 31 Q 211 16 256 16 Q 301 16 341 31 L 341 31 Z M 127 53 Q 141 47 149 60 L 178 117 L 178 117 L 178 117 L 178 117 Q 183 130 172 139 Q 153 153 139 172 Q 130 183 118 178 L 118 178 L 118 178 L 60 149 L 60 149 L 60 149 L 60 149 Q 47 141 53 127 Q 82 82 127 53 L 127 53 Z M 53 163 L 110 192 L 53 163 L 110 192 Q 122 199 119 213 Q 112 234 112 256 Q 111 271 96 272 L 32 272 L 32 272 Q 17 271 16 256 Q 16 211 31 171 Q 38 158 53 163 L 53 163 L 53 163 Z M 32 288 L 96 288 L 32 288 L 96 288 Q 111 289 112 304 L 112 368 L 112 368 Q 111 383 96 384 L 32 384 L 32 384 Q 17 383 16 368 L 16 304 L 16 304 Q 17 289 32 288 L 32 288 Z M 400 304 Q 401 289 416 288 L 480 288 L 480 288 Q 495 289 496 304 L 496 368 L 496 368 Q 495 383 480 384 L 416 384 L 416 384 Q 401 383 400 368 L 400 304 L 400 304 Z M 16 416 Q 17 401 32 400 L 96 400 L 96 400 Q 111 401 112 416 L 112 480 L 112 480 Q 111 495 96 496 L 32 496 L 32 496 Q 17 495 16 480 L 16 416 L 16 416 Z M 264 184 Q 263 177 256 176 Q 249 177 248 184 L 248 472 L 248 472 Q 249 479 256 480 Q 263 479 264 472 L 264 184 L 264 184 Z M 192 216 Q 191 209 184 208 Q 177 209 176 216 L 176 472 L 176 472 Q 177 479 184 480 Q 191 479 192 472 L 192 216 L 192 216 Z M 336 216 Q 335 209 328 208 Q 321 209 320 216 L 320 472 L 320 472 Q 321 479 328 480 Q 335 479 336 472 L 336 216 L 336 216 Z" />
</svg>