<svg xmlns="http://www.w3.org/2000/svg" viewBox="0 0 512 512">
  <path d="M 16 223 Q 16 191 25 162 L 224 287 L 224 287 L 224 288 L 224 288 L 224 480 L 224 480 Q 224 494 233 503 Q 242 512 256 512 L 400 512 L 400 512 Q 422 512 438 499 Q 455 487 461 466 L 508 303 L 508 303 Q 510 296 511 288 Q 512 280 512 272 L 512 272 L 512 272 Q 510 251 494 237 L 491 233 L 491 233 Q 466 211 451 179 Q 440 159 431 138 Q 431 138 431 138 Q 426 126 421 114 Q 396 63 348 32 Q 299 1 240 0 L 223 0 L 223 0 Q 161 1 110 30 Q 60 60 30 110 Q 1 161 0 223 Q 1 304 47 363 Q 63 382 64 405 L 64 504 L 64 504 Q 65 511 72 512 Q 79 511 80 504 L 80 405 L 80 405 Q 79 375 60 353 Q 17 298 16 223 L 16 223 Z M 230 272 L 31 147 L 230 272 L 31 147 Q 54 88 105 53 Q 156 17 223 16 L 240 16 L 240 16 Q 294 17 339 45 Q 383 74 406 121 Q 410 130 415 139 Q 415 142 416 144 Q 417 145 417 145 Q 426 166 437 187 Q 453 220 480 246 L 484 249 L 484 249 Q 494 258 496 272 L 240 272 L 230 272 Z M 240 480 L 240 288 L 240 480 L 240 288 L 495 288 L 495 288 Q 494 294 492 299 L 477 352 L 477 352 L 336 352 L 336 352 Q 329 353 328 360 Q 329 367 336 368 L 473 368 L 473 368 L 459 416 L 459 416 L 336 416 L 336 416 Q 329 417 328 424 Q 329 431 336 432 L 454 432 L 454 432 L 446 461 L 446 461 Q 434 494 400 496 L 256 496 L 256 496 Q 241 495 240 480 L 240 480 Z M 336 224 Q 351 223 352 208 Q 351 193 336 192 Q 321 193 320 208 Q 321 223 336 224 L 336 224 Z" />
</svg>