<svg xmlns="http://www.w3.org/2000/svg" viewBox="0 0 516 522">
    <path d="M 4 10 Q 0 16 4 22 L 108 126 Q 114 130 120 126 Q 124 120 120 114 L 16 10 Q 10 6 4 10 L 4 10 Z M 512 10 Q 506 6 500 10 L 396 114 Q 392 120 396 126 Q 402 130 408 126 L 512 22 Q 516 16 512 10 L 512 10 Z M 16 518 L 120 414 Q 124 408 120 402 Q 114 398 108 402 L 4 506 Q 0 512 4 518 Q 10 522 16 518 L 16 518 Z M 512 518 Q 516 512 512 506 L 408 402 Q 402 398 396 402 Q 392 408 396 414 L 500 518 Q 506 522 512 518 L 512 518 Z M 218 64 Q 219 41 238 29 Q 258 19 278 29 Q 297 41 298 64 Q 297 87 278 99 Q 258 109 238 99 Q 219 87 218 64 L 218 64 Z M 314 64 Q 313 32 286 16 Q 258 0 230 16 Q 203 32 202 64 Q 203 96 230 112 Q 258 128 286 112 Q 313 96 314 64 L 314 64 Z M 189 184 Q 205 153 239 152 L 277 152 Q 311 153 327 184 L 395 324 Q 399 330 406 327 Q 412 323 409 317 L 342 177 Q 321 138 277 136 L 239 136 Q 195 138 174 177 L 107 317 Q 104 323 111 327 Q 117 330 121 324 L 189 184 L 189 184 Z M 194 248 Q 187 249 186 256 L 186 488 Q 186 502 195 511 Q 204 520 218 520 Q 232 520 241 511 Q 250 502 250 488 L 250 368 Q 251 361 258 360 Q 265 361 266 368 L 266 488 Q 266 502 275 511 Q 284 520 298 520 Q 312 520 321 511 Q 330 502 330 488 L 330 256 Q 329 249 322 248 Q 315 249 314 256 L 314 488 Q 313 503 298 504 Q 283 503 282 488 L 282 368 Q 280 346 258 344 Q 236 346 234 368 L 234 488 Q 233 503 218 504 Q 203 503 202 488 L 202 256 Q 201 249 194 248 L 194 248 Z"/>
</svg>
