<svg xmlns="http://www.w3.org/2000/svg" viewBox="0 0 512 512">
  <path d="M 434.0869565217391 65.19254658385093 Q 449.9875776397516 65.98757763975155 461.11801242236027 76.32298136645963 L 461.11801242236027 76.32298136645963 L 461.11801242236027 76.32298136645963 Q 471.45341614906835 87.45341614906832 472.24844720496895 103.35403726708074 L 472.24844720496895 332.3229813664596 L 472.24844720496895 332.3229813664596 Q 472.24844720496895 345.83850931677017 464.29813664596276 355.37888198757764 L 474.6335403726708 363.32919254658384 L 474.6335403726708 363.32919254658384 Q 484.96894409937886 350.60869565217394 484.96894409937886 332.3229813664596 L 484.96894409937886 103.35403726708074 L 484.96894409937886 103.35403726708074 Q 484.17391304347825 81.88819875776397 469.8633540372671 67.5776397515528 Q 455.5527950310559 53.267080745341616 434.0869565217391 52.47204968944099 L 77.91304347826087 52.47204968944099 L 77.91304347826087 52.47204968944099 Q 76.32298136645963 52.47204968944099 74.73291925465838 52.47204968944099 L 80.29813664596273 52.47204968944099 L 80.29813664596273 52.47204968944099 L 96.19875776397515 65.19254658385093 L 96.19875776397515 65.19254658385093 L 434.0869565217391 65.19254658385093 L 434.0869565217391 65.19254658385093 Z M 27.03105590062112 139.92546583850933 L 27.03105590062112 332.3229813664596 L 27.03105590062112 139.92546583850933 L 27.03105590062112 332.3229813664596 Q 27.82608695652174 353.7888198757764 42.13664596273292 368.0993788819876 Q 56.4472049689441 382.4099378881988 77.91304347826087 383.2049689440994 L 204.32298136645963 383.2049689440994 L 204.32298136645963 383.2049689440994 L 193.19254658385094 446.8074534161491 L 193.19254658385094 446.8074534161491 L 135.1552795031056 446.8074534161491 L 135.1552795031056 446.8074534161491 Q 129.59006211180125 447.6024844720497 128.7950310559006 453.167701863354 Q 129.59006211180125 458.7329192546584 135.1552795031056 459.527950310559 L 198.75776397515529 459.527950310559 L 376.8447204968944 459.527950310559 Q 382.4099378881988 458.7329192546584 383.2049689440994 453.167701863354 Q 382.4099378881988 447.6024844720497 376.8447204968944 446.8074534161491 L 318.8074534161491 446.8074534161491 L 318.8074534161491 446.8074534161491 L 308.472049689441 383.2049689440994 L 308.472049689441 383.2049689440994 L 334.7080745341615 383.2049689440994 L 334.7080745341615 383.2049689440994 L 318.8074534161491 370.48447204968943 L 318.8074534161491 370.48447204968943 L 300.5217391304348 370.48447204968943 L 300.5217391304348 370.48447204968943 L 300.5217391304348 370.48447204968943 L 300.5217391304348 370.48447204968943 L 211.47826086956522 370.48447204968943 L 211.47826086956522 370.48447204968943 L 211.47826086956522 370.48447204968943 L 211.47826086956522 370.48447204968943 L 77.91304347826087 370.48447204968943 L 77.91304347826087 370.48447204968943 Q 62.01242236024845 369.6894409937888 50.88198757763975 359.35403726708074 Q 40.546583850931675 348.22360248447205 39.75155279503105 332.3229813664596 L 39.75155279503105 150.2608695652174 L 39.75155279503105 150.2608695652174 L 27.03105590062112 139.92546583850933 L 27.03105590062112 139.92546583850933 Z M 90.63354037267081 332.3229813664596 L 270.3105590062112 332.3229813664596 L 90.63354037267081 332.3229813664596 L 270.3105590062112 332.3229813664596 L 254.40993788819875 319.6024844720497 L 254.40993788819875 319.6024844720497 L 90.63354037267081 319.6024844720497 L 90.63354037267081 319.6024844720497 L 90.63354037267081 190.80745341614906 L 90.63354037267081 190.80745341614906 L 77.91304347826087 180.472049689441 L 77.91304347826087 180.472049689441 L 77.91304347826087 319.6024844720497 L 77.91304347826087 319.6024844720497 Q 78.7080745341615 331.527950310559 90.63354037267081 332.3229813664596 L 90.63354037267081 332.3229813664596 Z M 434.0869565217391 319.6024844720497 L 434.0869565217391 116.07453416149069 L 434.0869565217391 319.6024844720497 L 434.0869565217391 116.07453416149069 Q 433.2919254658385 104.14906832298136 421.3664596273292 103.35403726708074 L 144.69565217391303 103.35403726708074 L 144.69565217391303 103.35403726708074 L 160.59627329192546 116.07453416149069 L 160.59627329192546 116.07453416149069 L 421.3664596273292 116.07453416149069 L 421.3664596273292 116.07453416149069 L 421.3664596273292 319.6024844720497 L 421.3664596273292 319.6024844720497 L 418.18633540372673 319.6024844720497 L 418.18633540372673 319.6024844720497 L 430.111801242236 329.14285714285717 L 430.111801242236 329.14285714285717 Q 434.0869565217391 325.167701863354 434.0869565217391 319.6024844720497 L 434.0869565217391 319.6024844720497 Z M 205.91304347826087 446.8074534161491 L 217.04347826086956 383.2049689440994 L 205.91304347826087 446.8074534161491 L 217.04347826086956 383.2049689440994 L 294.95652173913044 383.2049689440994 L 294.95652173913044 383.2049689440994 L 305.2919254658385 446.8074534161491 L 305.2919254658385 446.8074534161491 L 205.91304347826087 446.8074534161491 L 205.91304347826087 446.8074534161491 Z M 11.925465838509316 54.06211180124224 Q 7.15527950310559 50.88198757763975 3.1801242236024843 54.857142857142854 Q 0 59.62732919254658 3.9751552795031055 63.60248447204969 L 500.0745341614907 457.9378881987578 L 500.0745341614907 457.9378881987578 Q 504.8447204968944 461.11801242236027 508.8198757763975 457.14285714285717 Q 512 452.3726708074534 508.0248447204969 448.3975155279503 L 11.925465838509316 54.06211180124224 L 11.925465838509316 54.06211180124224 Z" />
</svg>