<svg xmlns="http://www.w3.org/2000/svg" viewBox="0 0 640 508">
    <path d="M 404 21 Q 416 11 428 21 L 559 166 Q 560 167 560 168 Q 560 172 556 172 L 488 172 Q 483 172 481 177 Q 479 181 482 185 L 590 318 Q 592 320 592 323 Q 591 331 583 332 L 504 332 Q 499 332 497 337 Q 495 342 498 345 L 622 481 Q 624 483 624 486 Q 623 491 618 492 L 409 492 Q 406 501 400 508 L 618 508 Q 638 506 640 486 Q 640 477 634 470 L 522 348 L 583 348 Q 606 346 608 323 Q 608 314 603 307 L 505 188 L 557 188 Q 574 186 576 168 Q 576 161 571 155 L 440 10 Q 430 0 416 0 Q 402 0 392 10 L 291 123 L 302 134 L 404 21 L 404 21 Z M 16 277 Q 16 259 29 247 L 165 123 Q 177 112 192 112 Q 207 112 219 123 L 355 247 Q 368 259 368 277 L 368 452 Q 368 469 356 480 Q 345 492 328 492 L 56 492 Q 39 492 28 480 Q 16 469 16 452 L 16 277 L 16 277 Z M 0 452 Q 1 476 16 492 L 16 492 Q 32 507 56 508 L 328 508 Q 352 507 368 492 Q 383 476 384 452 L 384 277 Q 384 252 366 235 L 230 111 Q 213 96 192 96 Q 171 96 154 111 L 18 235 Q 0 252 0 277 L 0 452 L 0 452 Z M 224 276 Q 231 277 232 284 L 232 348 Q 231 355 224 356 L 160 356 Q 153 355 152 348 L 152 284 Q 153 277 160 276 L 224 276 L 224 276 Z M 160 260 Q 138 262 136 284 L 136 348 Q 138 370 160 372 L 224 372 Q 246 370 248 348 L 248 284 Q 246 262 224 260 L 160 260 L 160 260 Z"/>
</svg>
