<svg xmlns="http://www.w3.org/2000/svg" viewBox="0 0 512 512">
  <path d="M 264.01566 24.046967 Q 263.0137 17.033268 257.00195 17.033268 Q 180.85323 24.046967 130.75539 77.15069 Q 81.65949 131.25636 79.65558 208.40704 Q 80.65753 278.54404 121.73777 328.64188 Q 162.81801 379.74167 227.9452 395.77298 Q 245.98042 400.78278 247.98434 419.81995 L 247.98434 487.95303 L 247.98434 487.95303 Q 248.9863 495.9687 254.99805 495.9687 Q 331.14676 487.95303 381.24463 434.8493 Q 430.3405 381.7456 432.34442 303.59296 Q 431.34247 234.45793 390.26224 183.35812 Q 349.182 132.25832 284.0548 116.227005 Q 266.01956 111.217224 264.01566 92.18004 L 264.01566 24.046967 L 264.01566 24.046967 Z M 254.99805 1.0019569 Q 266.01956 0 273.03326 7.0136986 L 273.03326 7.0136986 L 273.03326 7.0136986 Q 280.04697 14.027397 280.04697 24.046967 L 280.04697 92.18004 L 280.04697 92.18004 Q 280.04697 99.19374 287.06067 101.197655 Q 358.19962 118.23092 402.2857 173.33855 Q 447.37378 228.44618 448.37573 303.59296 Q 446.37183 387.75732 392.26614 445.87085 Q 339.1624 502.9824 257.00195 512 Q 245.98042 512 238.96674 504.9863 Q 231.95303 497.9726 231.95303 487.95303 L 231.95303 419.81995 L 231.95303 419.81995 Q 231.95303 413.80823 224.93933 411.8043 Q 153.80038 393.76907 109.71429 338.66144 Q 64.62622 283.5538 63.624268 208.40704 Q 65.62818 124.24266 119.73386 67.13112 Q 172.83757 9.017612 254.99805 1.0019569 L 254.99805 1.0019569 Z M 256 336.65753 Q 301.08807 335.65558 325.13504 296.57925 Q 347.17807 256.50098 325.13504 216.4227 Q 301.08807 177.34637 256 176.34442 Q 210.91194 177.34637 186.86497 216.4227 Q 164.82191 256.50098 186.86497 296.57925 Q 210.91194 335.65558 256 336.65753 L 256 336.65753 Z M 256 160.31311 Q 282.05087 160.31311 304.09393 173.33855 L 304.09393 173.33855 L 304.09393 173.33855 Q 326.137 186.364 339.1624 208.40704 Q 352.18787 231.45206 352.18787 256.50098 Q 352.18787 281.5499 339.1624 304.5949 Q 326.137 326.63797 304.09393 339.6634 Q 282.05087 352.68884 256 352.68884 Q 229.94911 352.68884 207.90607 339.6634 Q 185.863 326.63797 172.83757 304.5949 Q 159.81213 281.5499 159.81213 256.50098 Q 159.81213 231.45206 172.83757 208.40704 Q 185.863 186.364 207.90607 173.33855 Q 229.94911 160.31311 256 160.31311 L 256 160.31311 Z M 272.0313 256.50098 Q 271.02936 241.47162 256 240.46967 Q 240.97064 241.47162 239.96869 256.50098 Q 240.97064 271.53033 256 272.5323 Q 271.02936 271.53033 272.0313 256.50098 L 272.0313 256.50098 Z M 223.93738 256.50098 Q 223.93738 242.47359 232.95499 233.45596 L 232.95499 233.45596 L 232.95499 233.45596 Q 241.9726 224.43835 256 224.43835 Q 270.0274 224.43835 279.045 233.45596 Q 288.06262 242.47359 288.06262 256.50098 Q 288.06262 270.52838 279.045 279.546 Q 270.0274 288.5636 256 288.5636 Q 241.9726 288.5636 232.95499 279.546 Q 223.93738 270.52838 223.93738 256.50098 L 223.93738 256.50098 Z" />
</svg>