<svg xmlns="http://www.w3.org/2000/svg" viewBox="0 0 576 512">
    <path d="M 416 16 Q 436 17 450 30 L 450 30 Q 463 44 464 64 L 464 496 L 112 496 L 112 64 Q 113 44 126 30 Q 140 17 160 16 L 416 16 L 416 16 Z M 96 64 L 96 496 L 8 496 Q 1 497 0 504 Q 1 511 8 512 L 96 512 L 112 512 L 464 512 L 480 512 L 568 512 Q 575 511 576 504 Q 575 497 568 496 L 480 496 L 480 64 Q 479 37 461 19 Q 443 1 416 0 L 160 0 Q 133 1 115 19 Q 97 37 96 64 L 96 64 Z M 408 256 Q 406 278 384 280 Q 362 278 360 256 Q 362 234 384 232 Q 406 234 408 256 L 408 256 Z M 384 216 Q 361 217 349 236 Q 339 256 349 276 Q 361 295 384 296 Q 407 295 419 276 Q 429 256 419 236 Q 407 217 384 216 L 384 216 Z"/>
</svg>
