<svg xmlns="http://www.w3.org/2000/svg" viewBox="0 0 514 514">
    <path d="M 511 14 Q 514 7 508 3 Q 501 0 497 7 L 310 381 L 50 311 Q 31 306 16 318 Q 1 329 0 349 L 0 386 L 0 450 L 0 474 Q 0 491 12 502 Q 23 514 40 514 L 226 514 Q 260 513 276 483 L 321 394 L 511 14 L 511 14 Z M 16 458 L 80 458 Q 87 457 88 450 Q 87 443 80 442 L 16 442 L 16 394 L 80 394 Q 87 393 88 386 Q 87 379 80 378 L 16 378 L 16 349 Q 16 337 25 330 Q 34 323 46 326 L 302 395 L 262 476 Q 251 497 226 498 L 40 498 Q 18 496 16 474 L 16 458 L 16 458 Z"/>
</svg>
