<svg xmlns="http://www.w3.org/2000/svg" viewBox="0 0 512 512">
  <path d="M 158.38132295719845 414.38132295719845 Q 150.4124513618677 411.39299610894943 143.4396887159533 416.3735408560311 Q 126.50583657587549 429.3229571984436 92.63813229571984 445.26070038910507 Q 57.77431906614786 462.1945525291829 17.929961089494164 463.1906614785992 L 17.929961089494164 463.1906614785992 L 17.929961089494164 463.1906614785992 L 17.929961089494164 463.1906614785992 L 17.929961089494164 463.1906614785992 L 17.929961089494164 463.1906614785992 L 17.929961089494164 463.1906614785992 L 17.929961089494164 463.1906614785992 L 17.929961089494164 463.1906614785992 L 18.926070038910506 463.1906614785992 L 18.926070038910506 463.1906614785992 Q 18.926070038910506 462.1945525291829 19.92217898832685 461.19844357976655 Q 21.914396887159533 459.20622568093387 24.90272373540856 455.22178988326846 L 12.949416342412452 445.26070038910507 L 12.949416342412452 445.26070038910507 L 24.90272373540856 455.22178988326846 L 24.90272373540856 455.22178988326846 Q 32.8715953307393 446.2568093385214 41.83657587548638 431.31517509727627 Q 59.766536964980546 403.42412451361866 65.7431906614786 361.5875486381323 Q 65.7431906614786 354.6147859922179 61.75875486381323 349.6342412451362 Q 18.926070038910506 301.82101167315176 17.929961089494164 240.06225680933852 Q 19.92217898832685 160.37354085603113 86.6614785992218 105.58754863813229 Q 153.40077821011673 50.80155642023346 256.99610894941634 48.809338521400775 Q 360.591439688716 50.80155642023346 427.3307392996109 105.58754863813229 Q 494.07003891050584 160.37354085603113 496.0622568093385 240.06225680933852 Q 494.07003891050584 319.7509727626459 427.3307392996109 374.5369649805447 Q 360.591439688716 429.3229571984436 256.99610894941634 431.31517509727627 Q 204.2023346303502 431.31517509727627 158.38132295719845 414.38132295719845 L 158.38132295719845 414.38132295719845 Z M 6.972762645914397 452.23346303501944 L 6.972762645914397 452.23346303501944 L 6.972762645914397 452.23346303501944 L 6.972762645914397 452.23346303501944 L 6.972762645914397 452.23346303501944 L 6.972762645914397 452.23346303501944 L 6.972762645914397 452.23346303501944 L 6.972762645914397 452.23346303501944 Q 0 459.20622568093387 2.9883268482490273 469.16731517509726 Q 7.968871595330739 479.1284046692607 17.929961089494164 479.1284046692607 Q 61.75875486381323 477.136186770428 99.61089494163424 460.2023346303502 Q 134.47470817120623 443.2684824902724 153.40077821011673 429.3229571984436 Q 201.21400778210116 447.25291828793775 256.99610894941634 447.25291828793775 Q 328.715953307393 446.2568093385214 385.4941634241245 419.36186770428014 Q 443.2684824902724 391.47081712062254 477.136186770428 344.6536964980545 Q 511.00389105058366 297.8365758754864 512 240.06225680933852 Q 511.00389105058366 182.28793774319067 477.136186770428 135.47081712062257 Q 443.2684824902724 88.65369649805447 385.4941634241245 60.762645914396884 Q 328.715953307393 33.86770428015564 256.99610894941634 32.8715953307393 Q 185.27626459143968 33.86770428015564 128.49805447470817 60.762645914396884 Q 70.72373540856032 88.65369649805447 36.856031128404666 135.47081712062257 Q 2.9883268482490273 182.28793774319067 1.9922178988326849 240.06225680933852 Q 2.9883268482490273 308.79377431906613 49.80544747081712 360.591439688716 Q 44.824902723735406 397.44747081712063 27.891050583657588 423.3463035019455 Q 19.92217898832685 437.2918287937743 12.949416342412452 444.26459143968873 Q 9.961089494163424 448.2490272373541 7.968871595330739 450.24124513618676 Q 7.968871595330739 451.2373540856031 6.972762645914397 451.2373540856031 Q 6.972762645914397 451.2373540856031 6.972762645914397 452.23346303501944 L 6.972762645914397 452.23346303501944 L 6.972762645914397 452.23346303501944 L 6.972762645914397 452.23346303501944 L 6.972762645914397 452.23346303501944 Z M 145.431906614786 240.06225680933852 Q 144.43579766536965 255.00389105058366 129.4941634241245 256 Q 114.55252918287938 255.00389105058366 113.55642023346303 240.06225680933852 Q 114.55252918287938 225.12062256809338 129.4941634241245 224.12451361867704 Q 144.43579766536965 225.12062256809338 145.431906614786 240.06225680933852 L 145.431906614786 240.06225680933852 Z M 129.4941634241245 208.18677042801556 Q 115.54863813229572 208.18677042801556 106.58365758754864 217.15175097276264 L 106.58365758754864 217.15175097276264 L 106.58365758754864 217.15175097276264 Q 97.61867704280155 226.11673151750972 97.61867704280155 240.06225680933852 Q 97.61867704280155 254.00778210116732 106.58365758754864 262.9727626459144 Q 115.54863813229572 271.9377431906615 129.4941634241245 271.9377431906615 Q 143.4396887159533 271.9377431906615 152.4046692607004 262.9727626459144 Q 161.36964980544747 254.00778210116732 161.36964980544747 240.06225680933852 Q 161.36964980544747 226.11673151750972 152.4046692607004 217.15175097276264 Q 143.4396887159533 208.18677042801556 129.4941634241245 208.18677042801556 L 129.4941634241245 208.18677042801556 Z M 272.9338521400778 240.06225680933852 Q 271.9377431906615 255.00389105058366 256.99610894941634 256 Q 242.0544747081712 255.00389105058366 241.05836575875486 240.06225680933852 Q 242.0544747081712 225.12062256809338 256.99610894941634 224.12451361867704 Q 271.9377431906615 225.12062256809338 272.9338521400778 240.06225680933852 L 272.9338521400778 240.06225680933852 Z M 256.99610894941634 208.18677042801556 Q 243.05058365758754 208.18677042801556 234.08560311284046 217.15175097276264 L 234.08560311284046 217.15175097276264 L 234.08560311284046 217.15175097276264 Q 225.12062256809338 226.11673151750972 225.12062256809338 240.06225680933852 Q 225.12062256809338 254.00778210116732 234.08560311284046 262.9727626459144 Q 243.05058365758754 271.9377431906615 256.99610894941634 271.9377431906615 Q 270.94163424124514 271.9377431906615 279.9066147859922 262.9727626459144 Q 288.8715953307393 254.00778210116732 288.8715953307393 240.06225680933852 Q 288.8715953307393 226.11673151750972 279.9066147859922 217.15175097276264 Q 270.94163424124514 208.18677042801556 256.99610894941634 208.18677042801556 L 256.99610894941634 208.18677042801556 Z M 384.49805447470817 256 Q 369.55642023346303 255.00389105058366 368.5603112840467 240.06225680933852 Q 369.55642023346303 225.12062256809338 384.49805447470817 224.12451361867704 Q 399.4396887159533 225.12062256809338 400.43579766536965 240.06225680933852 Q 399.4396887159533 255.00389105058366 384.49805447470817 256 L 384.49805447470817 256 Z M 352.6225680933852 240.06225680933852 Q 352.6225680933852 254.00778210116732 361.5875486381323 262.9727626459144 L 361.5875486381323 262.9727626459144 L 361.5875486381323 262.9727626459144 Q 370.55252918287937 271.9377431906615 384.49805447470817 271.9377431906615 Q 398.44357976653697 271.9377431906615 407.408560311284 262.9727626459144 Q 416.3735408560311 254.00778210116732 416.3735408560311 240.06225680933852 Q 416.3735408560311 226.11673151750972 407.408560311284 217.15175097276264 Q 398.44357976653697 208.18677042801556 384.49805447470817 208.18677042801556 Q 370.55252918287937 208.18677042801556 361.5875486381323 217.15175097276264 Q 352.6225680933852 226.11673151750972 352.6225680933852 240.06225680933852 L 352.6225680933852 240.06225680933852 Z" />
</svg>