<svg xmlns="http://www.w3.org/2000/svg" viewBox="0 0 512 512">
  <path d="M 73.14285714285714 18.285714285714285 Q 50.285714285714285 19.428571428571427 34.285714285714285 34.285714285714285 L 34.285714285714285 34.285714285714285 L 34.285714285714285 34.285714285714285 Q 19.428571428571427 50.285714285714285 18.285714285714285 73.14285714285714 L 18.285714285714285 438.85714285714283 L 18.285714285714285 438.85714285714283 Q 19.428571428571427 461.7142857142857 34.285714285714285 477.7142857142857 Q 50.285714285714285 492.57142857142856 73.14285714285714 493.7142857142857 L 438.85714285714283 493.7142857142857 L 438.85714285714283 493.7142857142857 Q 461.7142857142857 492.57142857142856 477.7142857142857 477.7142857142857 Q 492.57142857142856 461.7142857142857 493.7142857142857 438.85714285714283 L 493.7142857142857 73.14285714285714 L 493.7142857142857 73.14285714285714 Q 492.57142857142856 50.285714285714285 477.7142857142857 34.285714285714285 Q 461.7142857142857 19.428571428571427 438.85714285714283 18.285714285714285 L 73.14285714285714 18.285714285714285 L 73.14285714285714 18.285714285714285 Z M 0 73.14285714285714 Q 1.1428571428571428 42.285714285714285 21.714285714285715 21.714285714285715 L 21.714285714285715 21.714285714285715 L 21.714285714285715 21.714285714285715 Q 42.285714285714285 1.1428571428571428 73.14285714285714 0 L 438.85714285714283 0 L 438.85714285714283 0 Q 469.7142857142857 1.1428571428571428 490.2857142857143 21.714285714285715 Q 510.85714285714283 42.285714285714285 512 73.14285714285714 L 512 438.85714285714283 L 512 438.85714285714283 Q 510.85714285714283 469.7142857142857 490.2857142857143 490.2857142857143 Q 469.7142857142857 510.85714285714283 438.85714285714283 512 L 73.14285714285714 512 L 73.14285714285714 512 Q 42.285714285714285 510.85714285714283 21.714285714285715 490.2857142857143 Q 1.1428571428571428 469.7142857142857 0 438.85714285714283 L 0 73.14285714285714 L 0 73.14285714285714 Z M 203.42857142857142 398.85714285714283 Q 198.85714285714286 392 204.57142857142858 386.2857142857143 L 270.85714285714283 328 L 270.85714285714283 328 Q 264 329.14285714285717 256 329.14285714285717 Q 209.14285714285714 328 178.28571428571428 297.14285714285717 Q 147.42857142857142 266.2857142857143 146.28571428571428 219.42857142857142 Q 147.42857142857142 172.57142857142858 178.28571428571428 141.71428571428572 Q 209.14285714285714 110.85714285714286 256 109.71428571428571 Q 302.85714285714283 110.85714285714286 333.7142857142857 141.71428571428572 Q 364.57142857142856 172.57142857142858 365.7142857142857 219.42857142857142 Q 365.7142857142857 248 352 272 Q 342.85714285714283 289.14285714285717 328 301.7142857142857 L 216 400 L 216 400 Q 209.14285714285714 404.57142857142856 203.42857142857142 398.85714285714283 L 203.42857142857142 398.85714285714283 Z M 256 128 Q 204.57142857142858 129.14285714285714 177.14285714285714 173.71428571428572 Q 152 219.42857142857142 177.14285714285714 265.14285714285717 Q 204.57142857142858 309.7142857142857 256 310.85714285714283 Q 307.42857142857144 309.7142857142857 334.85714285714283 265.14285714285717 Q 360 219.42857142857142 334.85714285714283 173.71428571428572 Q 307.42857142857144 129.14285714285714 256 128 L 256 128 Z" />
</svg>