<svg xmlns="http://www.w3.org/2000/svg" viewBox="0 0 512 512">
  <path d="M 446.4 230.4 Q 435.2 158.4 383.2 112 L 383.2 112 L 383.2 112 Q 330.4 65.6 256 64 Q 181.6 65.6 128.8 112 Q 76.8 158.4 65.6 230.4 L 52.8 230.4 L 52.8 230.4 Q 64 152.8 120 103.2 Q 176 52.8 256 51.2 Q 336 52.8 392 103.2 Q 448 152.8 459.2 230.4 L 446.4 230.4 L 446.4 230.4 Z M 179.2 192 Q 180.8 180 192 179.2 Q 204 180 204.8 192 Q 204 204 192 204.8 Q 180.8 204 179.2 192 L 179.2 192 Z M 320 179.2 Q 332 180 332.8 192 Q 332 204 320 204.8 Q 308.8 204 307.2 192 Q 308.8 180 320 179.2 L 320 179.2 Z M 147.2 139.2 Q 149.6 133.6 156 134.4 L 232.8 160 L 232.8 160 Q 237.6 162.4 236.8 168.8 Q 234.4 173.6 228.8 172.8 L 152 147.2 L 152 147.2 Q 146.4 144.8 147.2 139.2 L 147.2 139.2 Z M 364.8 139.2 Q 365.6 144.8 360.8 147.2 L 284 172.8 L 284 172.8 Q 277.6 173.6 275.2 168.8 Q 274.4 162.4 280 160 L 356.8 134.4 L 356.8 134.4 Q 362.4 133.6 364.8 138.4 L 364.8 139.2 Z M 12.8 307.2 L 12.8 409.6 L 12.8 307.2 L 12.8 409.6 Q 13.6 425.6 24 436.8 Q 35.2 447.2 51.2 448 L 460.8 448 L 460.8 448 Q 476.8 447.2 488 436.8 Q 498.4 425.6 499.2 409.6 L 499.2 307.2 L 499.2 307.2 Q 498.4 291.2 488 280 Q 476.8 269.6 460.8 268.8 L 51.2 268.8 L 51.2 268.8 Q 35.2 269.6 24 280 Q 13.6 291.2 12.8 307.2 L 12.8 307.2 Z M 0 307.2 Q 0.8 285.6 15.2 271.2 L 15.2 271.2 L 15.2 271.2 Q 29.6 256.8 51.2 256 L 460.8 256 L 460.8 256 Q 482.4 256.8 496.8 271.2 Q 511.2 285.6 512 307.2 L 512 409.6 L 512 409.6 Q 511.2 431.2 496.8 445.6 Q 482.4 460 460.8 460.8 L 51.2 460.8 L 51.2 460.8 Q 29.6 460 15.2 445.6 Q 0.8 431.2 0 409.6 L 0 307.2 L 0 307.2 Z M 326.4 396.8 L 307.2 396.8 L 326.4 396.8 L 307.2 396.8 L 307.2 416 L 307.2 416 Q 306.4 421.6 300.8 422.4 Q 295.2 421.6 294.4 416 L 294.4 396.8 L 294.4 396.8 L 243.2 396.8 L 243.2 396.8 L 243.2 416 L 243.2 416 Q 242.4 421.6 236.8 422.4 Q 231.2 421.6 230.4 416 L 230.4 396.8 L 230.4 396.8 L 211.2 396.8 L 211.2 396.8 Q 205.6 396 204.8 390.4 Q 205.6 384.8 211.2 384 L 230.4 384 L 230.4 384 L 230.4 332.8 L 230.4 332.8 L 211.2 332.8 L 211.2 332.8 Q 205.6 332 204.8 326.4 Q 205.6 320.8 211.2 320 L 230.4 320 L 230.4 320 L 230.4 300.8 L 230.4 300.8 Q 231.2 295.2 236.8 294.4 Q 242.4 295.2 243.2 300.8 L 243.2 320 L 243.2 320 L 294.4 320 L 294.4 320 L 294.4 300.8 L 294.4 300.8 Q 295.2 295.2 300.8 294.4 Q 306.4 295.2 307.2 300.8 L 307.2 320 L 307.2 320 L 326.4 320 L 326.4 320 Q 332 320.8 332.8 326.4 Q 332 332 326.4 332.8 L 307.2 332.8 L 307.2 332.8 L 307.2 384 L 307.2 384 L 326.4 384 L 326.4 384 Q 332 384.8 332.8 390.4 Q 332 396 326.4 396.8 L 326.4 396.8 Z M 294.4 332.8 L 243.2 332.8 L 294.4 332.8 L 243.2 332.8 L 243.2 384 L 243.2 384 L 294.4 384 L 294.4 384 L 294.4 332.8 L 294.4 332.8 Z M 451.2 295.2 Q 456 299.2 453.6 304 L 376.8 419.2 L 376.8 419.2 Q 372.8 424 368 421.6 Q 363.2 417.6 365.6 412.8 L 442.4 297.6 L 442.4 297.6 Q 446.4 292.8 451.2 295.2 L 451.2 295.2 Z M 377.6 307.2 Q 372 308 371.2 313.6 Q 372 319.2 377.6 320 Q 383.2 319.2 384 313.6 Q 383.2 308 377.6 307.2 L 377.6 307.2 Z M 377.6 294.4 Q 395.2 296 396.8 313.6 Q 395.2 331.2 377.6 332.8 Q 360 331.2 358.4 313.6 Q 360 296 377.6 294.4 L 377.6 294.4 Z M 435.2 403.2 Q 436 408.8 441.6 409.6 Q 447.2 408.8 448 403.2 Q 447.2 397.6 441.6 396.8 Q 436 397.6 435.2 403.2 L 435.2 403.2 Z M 422.4 403.2 Q 424 385.6 441.6 384 Q 459.2 385.6 460.8 403.2 Q 459.2 420.8 441.6 422.4 Q 424 420.8 422.4 403.2 L 422.4 403.2 Z M 166.4 294.4 Q 172 295.2 172.8 300.8 L 172.8 364.8 L 172.8 364.8 Q 172 370.4 166.4 371.2 Q 160.8 370.4 160 364.8 L 160 300.8 L 160 300.8 Q 160.8 295.2 166.4 294.4 L 166.4 294.4 Z M 166.4 409.6 Q 172 408.8 172.8 403.2 Q 172 397.6 166.4 396.8 Q 160.8 397.6 160 403.2 Q 160.8 408.8 166.4 409.6 L 166.4 409.6 Z M 166.4 384 Q 184 385.6 185.6 403.2 Q 184 420.8 166.4 422.4 Q 148.8 420.8 147.2 403.2 Q 148.8 385.6 166.4 384 L 166.4 384 Z M 96 300.8 L 96 308 L 96 300.8 L 96 308 Q 107.2 308.8 115.2 311.2 Q 120.8 312.8 120 318.4 Q 117.6 324 112 323.2 Q 98.4 319.2 81.6 320 Q 73.6 320.8 69.6 324 Q 65.6 326.4 64 332 Q 63.2 336.8 64.8 338.4 Q 65.6 340.8 69.6 343.2 Q 77.6 348 91.2 351.2 L 91.2 351.2 L 91.2 351.2 L 91.2 351.2 L 91.2 351.2 L 91.2 351.2 L 91.2 351.2 Q 92 351.2 92 351.2 Q 105.6 354.4 116.8 361.6 Q 122.4 364.8 125.6 371.2 Q 128.8 378.4 127.2 386.4 Q 124.8 400 114.4 404.8 Q 105.6 409.6 95.2 409.6 L 95.2 416 L 95.2 416 Q 94.4 421.6 88.8 422.4 Q 83.2 421.6 82.4 416 L 82.4 408.8 L 82.4 408.8 Q 66.4 405.6 55.2 401.6 Q 50.4 399.2 51.2 393.6 Q 53.6 388 59.2 389.6 Q 75.2 395.2 94.4 396.8 Q 103.2 396.8 108 393.6 Q 112.8 392 114.4 384 Q 115.2 379.2 114.4 376.8 Q 112.8 374.4 109.6 372 Q 101.6 367.2 88 364 L 86.4 363.2 L 86.4 363.2 Q 86.4 363.2 85.6 363.2 Q 73.6 360 62.4 354.4 Q 56.8 350.4 53.6 344.8 Q 49.6 337.6 51.2 329.6 Q 53.6 318.4 62.4 313.6 Q 70.4 308 80 307.2 Q 80.8 307.2 81.6 307.2 Q 82.4 307.2 83.2 307.2 L 83.2 300.8 L 83.2 300.8 Q 83.2 295.2 89.6 294.4 Q 95.2 295.2 96 300.8 L 96 300.8 Z" />
</svg>