<svg xmlns="http://www.w3.org/2000/svg" viewBox="0 0 512 512">
  <path d="M 265.14285714285717 18.285714285714285 L 390.85714285714283 18.285714285714285 L 265.14285714285717 18.285714285714285 L 390.85714285714283 18.285714285714285 Q 426.2857142857143 19.428571428571427 441.14285714285717 51.42857142857143 L 489.14285714285717 157.71428571428572 L 489.14285714285717 157.71428571428572 Q 490.2857142857143 161.14285714285714 491.42857142857144 164.57142857142858 L 265.14285714285717 164.57142857142858 L 265.14285714285717 164.57142857142858 L 265.14285714285717 18.285714285714285 L 265.14285714285717 18.285714285714285 Z M 18.285714285714285 182.85714285714286 L 493.7142857142857 182.85714285714286 L 18.285714285714285 182.85714285714286 L 493.7142857142857 182.85714285714286 L 493.7142857142857 438.85714285714283 L 493.7142857142857 438.85714285714283 Q 492.57142857142856 461.7142857142857 477.7142857142857 477.7142857142857 Q 461.7142857142857 492.57142857142856 438.85714285714283 493.7142857142857 L 73.14285714285714 493.7142857142857 L 73.14285714285714 493.7142857142857 Q 50.285714285714285 492.57142857142856 34.285714285714285 477.7142857142857 Q 19.428571428571427 461.7142857142857 18.285714285714285 438.85714285714283 L 18.285714285714285 182.85714285714286 L 18.285714285714285 182.85714285714286 Z M 246.85714285714286 164.57142857142858 L 20.571428571428573 164.57142857142858 L 246.85714285714286 164.57142857142858 L 20.571428571428573 164.57142857142858 Q 21.714285714285715 161.14285714285714 22.857142857142858 157.71428571428572 L 70.85714285714286 51.42857142857143 L 70.85714285714286 51.42857142857143 Q 85.71428571428571 19.428571428571427 121.14285714285714 18.285714285714285 L 246.85714285714286 18.285714285714285 L 246.85714285714286 18.285714285714285 L 246.85714285714286 164.57142857142858 L 246.85714285714286 164.57142857142858 Z M 458.2857142857143 43.42857142857143 Q 437.7142857142857 2.2857142857142856 390.85714285714283 0 L 121.14285714285714 0 L 121.14285714285714 0 Q 74.28571428571429 2.2857142857142856 53.714285714285715 43.42857142857143 L 6.857142857142857 150.85714285714286 L 6.857142857142857 150.85714285714286 Q 0 164.57142857142858 0 180.57142857142858 L 0 438.85714285714283 L 0 438.85714285714283 Q 1.1428571428571428 469.7142857142857 21.714285714285715 490.2857142857143 Q 42.285714285714285 510.85714285714283 73.14285714285714 512 L 438.85714285714283 512 L 438.85714285714283 512 Q 469.7142857142857 510.85714285714283 490.2857142857143 490.2857142857143 Q 510.85714285714283 469.7142857142857 512 438.85714285714283 L 512 180.57142857142858 L 512 180.57142857142858 Q 512 164.57142857142858 506.2857142857143 150.85714285714286 L 458.2857142857143 43.42857142857143 L 458.2857142857143 43.42857142857143 Z M 161.14285714285714 259.42857142857144 Q 177.14285714285714 244.57142857142858 197.71428571428572 244.57142857142858 L 197.71428571428572 244.57142857142858 L 197.71428571428572 244.57142857142858 Q 217.14285714285714 244.57142857142858 233.14285714285714 259.42857142857144 L 249.14285714285714 275.42857142857144 L 249.14285714285714 275.42857142857144 Q 252.57142857142858 277.7142857142857 256 277.7142857142857 Q 259.42857142857144 277.7142857142857 262.85714285714283 275.42857142857144 L 278.85714285714283 259.42857142857144 L 278.85714285714283 259.42857142857144 Q 294.85714285714283 244.57142857142858 315.42857142857144 244.57142857142858 Q 334.85714285714283 244.57142857142858 350.85714285714283 259.42857142857144 Q 365.7142857142857 275.42857142857144 365.7142857142857 294.85714285714283 Q 365.7142857142857 315.42857142857144 350.85714285714283 331.42857142857144 L 262.85714285714283 419.42857142857144 L 262.85714285714283 419.42857142857144 Q 256 425.14285714285717 249.14285714285714 419.42857142857144 L 161.14285714285714 331.42857142857144 L 161.14285714285714 331.42857142857144 Q 146.28571428571428 315.42857142857144 146.28571428571428 294.85714285714283 Q 146.28571428571428 274.2857142857143 161.14285714285714 259.42857142857144 L 161.14285714285714 259.42857142857144 Z M 245.71428571428572 245.71428571428572 Q 225.14285714285714 226.28571428571428 197.71428571428572 226.28571428571428 L 197.71428571428572 226.28571428571428 L 197.71428571428572 226.28571428571428 Q 169.14285714285714 226.28571428571428 148.57142857142858 245.71428571428572 Q 128 267.42857142857144 128 294.85714285714283 Q 128 322.2857142857143 148.57142857142858 344 L 236.57142857142858 432 L 236.57142857142858 432 Q 256 448 275.42857142857144 432 L 363.42857142857144 344 L 363.42857142857144 344 Q 384 322.2857142857143 384 294.85714285714283 Q 384 267.42857142857144 363.42857142857144 245.71428571428572 Q 342.85714285714283 226.28571428571428 314.2857142857143 226.28571428571428 Q 286.85714285714283 226.28571428571428 266.2857142857143 245.71428571428572 L 256 256 L 256 256 L 245.71428571428572 245.71428571428572 L 245.71428571428572 245.71428571428572 Z" />
</svg>