<svg xmlns="http://www.w3.org/2000/svg" viewBox="0 0 640 512">
    <path d="M 64 16 Q 44 17 30 30 L 30 30 Q 17 44 16 64 L 16 352 Q 17 372 30 386 Q 44 399 64 400 L 67 400 Q 76 372 98 354 Q 121 337 152 336 Q 183 337 206 354 Q 228 372 237 400 L 400 400 L 400 64 Q 399 44 386 30 Q 372 17 352 16 L 64 16 L 64 16 Z M 64 416 L 64 416 Q 37 415 19 397 Q 1 379 0 352 L 0 64 Q 1 37 19 19 Q 37 1 64 0 L 352 0 Q 379 1 397 19 Q 415 37 416 64 L 416 96 L 475 96 Q 491 96 503 108 L 596 201 Q 608 213 608 229 L 608 400 L 632 400 Q 639 401 640 408 Q 639 415 632 416 L 576 416 Q 576 420 576 424 Q 575 461 550 486 Q 525 511 488 512 Q 451 511 426 486 Q 401 461 400 424 Q 400 420 400 416 L 400 416 L 240 416 Q 240 420 240 424 Q 239 461 214 486 Q 189 511 152 512 Q 115 511 90 486 Q 65 461 64 424 Q 64 420 64 416 L 64 416 Z M 416 216 L 588 216 Q 587 214 585 212 L 492 119 Q 485 112 475 112 L 416 112 L 416 216 L 416 216 Z M 416 232 L 416 373 Q 442 338 488 336 Q 519 337 542 354 Q 564 372 573 400 L 592 400 L 592 232 L 416 232 L 416 232 Z M 224 424 Q 223 383 188 362 Q 152 342 116 362 Q 81 383 80 424 Q 81 465 116 486 Q 152 506 188 486 Q 223 465 224 424 L 224 424 Z M 488 496 Q 529 495 550 460 Q 570 424 550 388 Q 529 353 488 352 Q 447 353 426 388 Q 406 424 426 460 Q 447 495 488 496 L 488 496 Z"/>
</svg>
