<svg xmlns="http://www.w3.org/2000/svg" viewBox="0 0 512 448">
    <path d="M 64 16 Q 44 17 30 30 L 30 30 Q 17 44 16 64 L 16 384 Q 17 404 30 418 Q 44 431 64 432 L 448 432 Q 468 431 482 418 Q 495 404 496 384 L 496 64 Q 495 44 482 30 Q 468 17 448 16 L 64 16 L 64 16 Z M 0 64 Q 1 37 19 19 L 19 19 Q 37 1 64 0 L 448 0 Q 475 1 493 19 Q 511 37 512 64 L 512 384 Q 511 411 493 429 Q 475 447 448 448 L 64 448 Q 37 447 19 429 Q 1 411 0 384 L 0 64 L 0 64 Z M 178 146 Q 184 142 190 146 L 256 213 L 322 146 Q 328 142 334 146 Q 338 152 334 158 L 267 224 L 334 290 Q 338 296 334 302 Q 328 306 322 302 L 256 235 L 190 302 Q 184 306 178 302 Q 174 296 178 290 L 245 224 L 178 158 Q 174 152 178 146 L 178 146 Z"/>
</svg>
