<svg xmlns="http://www.w3.org/2000/svg" viewBox="0 0 448 512">
    <path d="M 384 16 Q 404 17 418 30 L 418 30 Q 431 44 432 64 L 432 368 Q 431 388 418 402 Q 404 415 384 416 L 64 416 Q 44 415 30 402 Q 17 388 16 368 L 16 64 Q 17 44 30 30 Q 44 17 64 16 L 384 16 L 384 16 Z M 64 0 Q 37 1 19 19 L 19 19 Q 1 37 0 64 L 0 368 Q 2 405 32 423 L 32 480 Q 32 494 41 503 Q 50 512 64 512 L 384 512 Q 398 512 407 503 Q 416 494 416 480 L 416 423 Q 446 405 448 368 L 448 64 Q 447 37 429 19 Q 411 1 384 0 L 64 0 L 64 0 Z M 400 430 L 400 480 Q 399 495 384 496 L 64 496 Q 49 495 48 480 L 48 430 Q 56 432 64 432 L 384 432 Q 392 432 400 430 L 400 430 Z M 352 80 Q 367 81 368 96 L 368 240 Q 367 255 352 256 L 96 256 Q 81 255 80 240 L 80 96 Q 81 81 96 80 L 352 80 L 352 80 Z M 96 64 Q 82 64 73 73 L 73 73 Q 64 82 64 96 L 64 240 Q 64 254 73 263 Q 82 272 96 272 L 352 272 Q 366 272 375 263 Q 384 254 384 240 L 384 96 Q 384 82 375 73 Q 366 64 352 64 L 96 64 L 96 64 Z M 224 344 Q 225 351 232 352 L 376 352 Q 383 351 384 344 Q 383 337 376 336 L 232 336 Q 225 337 224 344 L 224 344 Z M 80 368 Q 95 367 96 352 Q 95 337 80 336 Q 65 337 64 352 Q 65 367 80 368 L 80 368 Z"/>
</svg>
