<svg xmlns="http://www.w3.org/2000/svg" viewBox="0 0 512 512">
  <path d="M 45.714285714285715 0 Q 37.714285714285715 1.1428571428571428 36.57142857142857 9.142857142857142 Q 37.714285714285715 17.142857142857142 45.714285714285715 18.285714285714285 L 466.2857142857143 18.285714285714285 L 466.2857142857143 18.285714285714285 Q 474.2857142857143 17.142857142857142 475.42857142857144 9.142857142857142 Q 474.2857142857143 1.1428571428571428 466.2857142857143 0 L 45.714285714285715 0 L 45.714285714285715 0 Z M 262.85714285714283 112 Q 256 107.42857142857143 249.14285714285714 112 L 93.71428571428571 267.42857142857144 L 93.71428571428571 267.42857142857144 Q 89.14285714285714 274.2857142857143 93.71428571428571 281.14285714285717 Q 100.57142857142857 285.7142857142857 107.42857142857143 281.14285714285717 L 246.85714285714286 140.57142857142858 L 246.85714285714286 140.57142857142858 L 246.85714285714286 502.85714285714283 L 246.85714285714286 502.85714285714283 Q 248 510.85714285714283 256 512 Q 264 510.85714285714283 265.14285714285717 502.85714285714283 L 265.14285714285717 140.57142857142858 L 265.14285714285717 140.57142857142858 L 404.57142857142856 281.14285714285717 L 404.57142857142856 281.14285714285717 Q 411.42857142857144 285.7142857142857 418.2857142857143 281.14285714285717 Q 422.85714285714283 274.2857142857143 418.2857142857143 267.42857142857144 L 262.85714285714283 112 L 262.85714285714283 112 Z" />
</svg>