<svg xmlns="http://www.w3.org/2000/svg" viewBox="0 0 512 512">
  <path d="M 19.021671826625386 433.93188854489165 L 270.26625386996903 74.10526315789474 L 19.021671826625386 433.93188854489165 L 270.26625386996903 74.10526315789474 Q 278.984520123839 63.80185758513932 293.250773993808 63.0092879256966 Q 305.1393188854489 63.0092879256966 313.06501547987614 71.72755417956657 Q 321.78328173374615 79.6532507739938 321.78328173374615 92.3343653250774 Q 321.78328173374615 102.63777089783282 315.44272445820434 110.56346749226006 L 26.94736842105263 441.06501547987614 L 26.94736842105263 441.06501547987614 L 26.94736842105263 441.06501547987614 L 26.94736842105263 441.06501547987614 L 26.94736842105263 441.06501547987614 L 26.94736842105263 441.06501547987614 Q 23.777089783281735 445.0278637770898 19.814241486068113 442.6501547987616 Q 15.85139318885449 438.687306501548 18.229102167182663 434.7244582043344 L 18.229102167182663 434.7244582043344 L 18.229102167182663 434.7244582043344 L 19.021671826625386 433.93188854489165 L 19.021671826625386 433.93188854489165 Z M 293.250773993808 50.328173374613 Q 272.64396284829724 51.12074303405573 260.75541795665634 66.17956656346749 L 260.75541795665634 66.17956656346749 L 260.75541795665634 66.17956656346749 L 259.9628482972136 66.97213622291022 L 259.9628482972136 66.97213622291022 L 8.718266253869968 426.7987616099071 L 8.718266253869968 426.7987616099071 Q 0 441.06501547987614 11.888544891640867 452.1609907120743 Q 25.362229102167184 461.671826625387 37.250773993808046 448.9907120743034 L 325.74613003095976 118.48916408668731 L 325.74613003095976 118.48916408668731 L 325.74613003095976 118.48916408668731 L 325.74613003095976 118.48916408668731 L 325.74613003095976 118.48916408668731 L 325.74613003095976 118.48916408668731 Q 334.4643962848297 107.39318885448917 334.4643962848297 92.3343653250774 Q 333.671826625387 74.10526315789474 322.5758513931888 62.21671826625387 Q 310.687306501548 50.328173374613 293.250773993808 50.328173374613 L 293.250773993808 50.328173374613 Z M 121.26315789473684 433.93188854489165 L 450.9721362229102 120.86687306501548 L 121.26315789473684 433.93188854489165 L 450.9721362229102 120.86687306501548 Q 458.8978328173375 113.73374613003097 469.99380804953563 113.73374613003097 Q 482.6749226006192 113.73374613003097 490.6006191950464 122.45201238390094 Q 499.31888544891643 130.37770897832817 499.31888544891643 143.05882352941177 Q 498.5263157894737 156.53250773993807 489.015479876161 164.45820433436532 L 128.39628482972137 441.85758513931887 L 128.39628482972137 441.85758513931887 L 128.39628482972137 441.85758513931887 L 128.39628482972137 441.85758513931887 L 128.39628482972137 441.85758513931887 L 128.39628482972137 441.85758513931887 Q 123.64086687306502 445.0278637770898 120.47058823529412 441.85758513931887 Q 117.30030959752322 437.89473684210526 121.26315789473684 433.93188854489165 L 121.26315789473684 433.93188854489165 L 121.26315789473684 433.93188854489165 L 121.26315789473684 433.93188854489165 L 121.26315789473684 433.93188854489165 Z M 469.99380804953563 101.05263157894737 Q 454.14241486068113 101.05263157894737 443.046439628483 111.3560371517028 L 443.046439628483 111.3560371517028 L 443.046439628483 111.3560371517028 L 442.25386996904024 111.3560371517028 L 442.25386996904024 111.3560371517028 L 112.54489164086688 424.42105263157896 L 112.54489164086688 424.42105263157896 Q 100.656346749226 436.3095975232198 110.95975232198143 449.78328173374615 Q 122.84829721362229 460.87925696594425 136.32198142414862 452.1609907120743 L 496.94117647058823 174.76160990712074 L 496.94117647058823 174.76160990712074 L 496.94117647058823 174.76160990712074 L 496.94117647058823 174.76160990712074 L 497.73374613003097 174.76160990712074 L 497.73374613003097 174.76160990712074 Q 511.20743034055727 162.08049535603715 512 143.05882352941177 Q 511.20743034055727 124.82972136222911 499.31888544891643 112.94117647058823 Q 487.43034055727554 101.84520123839009 469.99380804953563 101.05263157894737 L 469.99380804953563 101.05263157894737 Z" />
</svg>