<svg xmlns="http://www.w3.org/2000/svg" viewBox="0 0 512 512">
  <path d="M 184.4472 69.96273 Q 196.37267 62.807453 209.09317 66.78261 L 209.09317 66.78261 L 209.09317 66.78261 Q 221.01863 69.96273 228.17392 81.09317 L 360.9441 310.85715 L 360.9441 310.85715 Q 367.30435 322.78262 364.12424 334.70807 Q 360.9441 347.42856 349.01865 354.58386 L 196.37267 442.8323 L 196.37267 442.8323 Q 184.4472 449.19254 172.52174 445.21738 Q 159.80124 442.03726 152.64597 430.90683 L 20.670807 201.14285 L 20.670807 201.14285 Q 13.515528 189.21739 17.490683 177.29193 Q 20.670807 164.57143 31.801243 158.21118 L 184.4472 69.96273 L 184.4472 69.96273 Z M 25.440994 147.08075 Q 9.540373 156.62112 4.7701864 174.1118 L 4.7701864 174.1118 L 4.7701864 174.1118 Q 0 190.80745 9.540373 207.50311 L 141.51553 437.2671 L 141.51553 437.2671 Q 151.85094 453.1677 168.54659 457.9379 Q 186.03726 462.70807 202.73293 453.1677 L 355.37888 364.91925 L 355.37888 364.91925 Q 371.2795 355.37888 376.04968 337.88818 Q 380.8199 321.19254 372.07452 304.4969 L 239.30435 74.73292 L 239.30435 74.73292 Q 228.96895 58.8323 212.27328 54.06211 Q 194.78261 49.291927 178.08696 58.8323 L 25.440994 147.08075 L 25.440994 147.08075 Z M 204.32298 337.09317 Q 208.29814 341.86334 213.06833 339.47827 L 251.22981 317.21738 L 251.22981 317.21738 Q 256 314.03726 253.61491 309.2671 Q 250.43478 304.4969 244.86957 306.882 L 232.14906 314.03726 L 232.14906 314.03726 L 217.83852 290.98135 L 217.83852 290.98135 L 217.83852 290.98135 L 217.83852 290.98135 L 217.83852 290.98135 L 217.83852 290.98135 L 217.83852 290.98135 L 217.83852 290.98135 Q 235.3292 294.9565 250.43478 287.80124 Q 266.33542 280.64597 272.69565 263.95032 Q 279.0559 244.07454 269.51553 227.37888 Q 260.77017 210.68323 241.68944 204.32298 L 241.68944 204.32298 L 241.68944 204.32298 L 155.03105 179.67702 L 155.03105 179.67702 Q 145.49068 178.08696 142.31056 186.83229 L 142.31056 186.83229 L 142.31056 186.83229 L 141.51553 186.83229 L 141.51553 186.83229 L 120.04969 274.2857 L 120.04969 274.2857 Q 116.07453 294.1615 126.409935 310.0621 Q 136.74535 326.75775 156.62112 331.52795 L 156.62112 331.52795 L 156.62112 331.52795 L 156.62112 331.52795 L 156.62112 331.52795 Q 174.1118 333.91306 188.42236 324.37268 Q 201.93788 314.8323 206.70807 297.3416 L 221.01863 320.39752 L 221.01863 320.39752 L 206.70807 328.34784 L 206.70807 328.34784 Q 201.93788 332.32297 204.32298 337.09317 L 204.32298 337.09317 Z M 194.78261 294.1615 Q 190.80745 306.882 181.26707 314.03726 L 181.26707 314.03726 L 181.26707 314.03726 Q 170.93167 320.39752 159.00621 318.80746 Q 144.69565 315.62732 136.74535 303.70187 Q 129.59006 291.7764 132.77019 277.46585 L 132.77019 277.46585 L 132.77019 277.46585 L 153.441 192.39752 L 153.441 192.39752 L 238.50932 216.24844 L 238.50932 216.24844 L 238.50932 216.24844 L 238.50932 216.24844 Q 252.02484 221.01863 258.3851 233.73914 Q 264.74533 245.6646 260.77017 259.97516 L 260.77017 259.97516 L 260.77017 259.97516 Q 256 271.1056 245.6646 276.6708 Q 234.53416 282.23602 221.81366 279.0559 L 205.91304 274.2857 L 205.91304 274.2857 Q 203.52795 273.4907 201.14285 275.08075 Q 198.75777 275.87576 197.96274 279.0559 L 194.78261 294.1615 L 194.78261 294.1615 Z M 260.77017 449.19254 Q 272.69565 459.52795 289.3913 459.52795 L 467.47827 459.52795 L 467.47827 459.52795 Q 486.55902 458.7329 499.2795 446.80746 Q 511.20496 434.08694 512 415.00623 L 512 147.87578 L 512 147.87578 Q 511.20496 128.79503 499.2795 116.07453 Q 486.55902 104.14907 467.47827 103.354034 L 289.3913 103.354034 L 289.3913 103.354034 Q 287.00623 103.354034 285.41614 103.354034 Q 285.41614 103.354034 285.41614 103.354034 L 292.57144 116.07453 L 292.57144 116.07453 L 467.47827 116.07453 L 467.47827 116.07453 Q 480.99377 116.07453 489.73914 125.61491 Q 499.2795 134.36024 499.2795 147.87578 L 499.2795 415.00623 L 499.2795 415.00623 Q 499.2795 428.52173 489.73914 437.2671 Q 480.99377 446.80746 467.47827 446.80746 L 289.3913 446.80746 L 289.3913 446.80746 Q 279.85092 446.80746 272.69565 442.03726 L 260.77017 449.19254 L 260.77017 449.19254 Z M 402.2857 172.52174 L 405.46585 176.49689 L 402.2857 172.52174 L 405.46585 176.49689 Q 407.85092 178.08696 410.23602 178.08696 Q 413.41614 178.08696 415.00623 176.49689 L 418.18634 172.52174 L 418.18634 172.52174 Q 430.11182 162.18634 442.03726 170.93167 Q 448.39752 176.49689 448.39752 183.65218 Q 448.39752 191.60248 443.62732 197.96274 L 443.62732 197.96274 L 443.62732 197.96274 L 410.23602 231.35403 L 410.23602 231.35403 L 376.84473 197.96274 L 376.84473 197.96274 L 376.84473 197.96274 L 376.84473 197.96274 Q 372.07452 191.60248 372.07452 183.65218 Q 372.07452 176.49689 378.43478 170.93167 L 378.43478 170.93167 L 378.43478 170.93167 L 378.43478 170.93167 L 378.43478 170.93167 Q 390.36026 162.18634 402.2857 172.52174 L 402.2857 172.52174 Z M 410.23602 162.98137 Q 401.4907 155.03105 390.36026 154.23602 L 390.36026 154.23602 L 390.36026 154.23602 Q 379.22983 153.441 370.48447 161.39131 Q 360.14908 170.13664 359.35403 183.65218 Q 358.55902 196.37267 368.09937 206.70807 L 368.09937 206.70807 L 368.09937 206.70807 L 401.4907 240.89441 L 401.4907 240.89441 Q 410.23602 248.84473 418.98135 240.89441 L 418.98135 240.89441 L 418.98135 240.89441 L 418.98135 240.89441 L 418.98135 240.89441 L 452.37268 206.70807 L 452.37268 206.70807 L 452.37268 206.70807 L 452.37268 206.70807 Q 461.91306 196.37267 461.118 183.65218 Q 460.32297 170.13664 450.78262 161.39131 L 450.78262 161.39131 L 450.78262 161.39131 L 449.98758 161.39131 L 449.98758 161.39131 Q 441.24225 153.441 430.11182 154.23602 Q 418.98135 155.03105 410.23602 162.98137 L 410.23602 162.98137 Z" />
</svg>