<svg xmlns="http://www.w3.org/2000/svg" viewBox="0 0 512 512">
    <path d="M 336 96 Q 335 62 313 39 L 313 39 Q 290 17 256 16 Q 222 17 199 39 Q 177 62 176 96 Q 176 117 186 135 Q 186 135 186 135 Q 194 148 201 164 Q 208 181 208 200 Q 207 237 182 262 Q 157 287 120 288 L 112 288 Q 71 289 44 316 Q 17 343 16 384 Q 17 399 32 400 L 480 400 Q 495 399 496 384 Q 495 343 468 316 Q 441 289 400 288 L 392 288 Q 355 287 330 262 Q 305 237 304 200 Q 304 181 311 164 Q 318 148 326 135 Q 326 135 326 135 L 340 143 L 326 135 Q 336 117 336 96 L 336 96 Z M 340 143 Q 323 169 320 200 Q 321 231 341 251 Q 362 271 392 272 L 400 272 Q 448 273 479 305 Q 511 336 512 384 Q 512 398 503 407 Q 494 416 480 416 L 32 416 Q 18 416 9 407 Q 0 398 0 384 Q 1 336 33 305 Q 64 273 112 272 L 120 272 Q 150 271 171 251 Q 191 231 192 200 Q 189 169 172 142 Q 160 122 160 96 Q 161 55 188 28 Q 215 1 256 0 Q 297 1 324 28 Q 351 55 352 96 Q 352 122 340 142 L 340 143 Z M 48 456 L 48 472 Q 50 494 72 496 L 440 496 Q 462 494 464 472 L 464 456 Q 465 449 472 448 Q 479 449 480 456 L 480 472 Q 480 489 468 500 Q 457 512 440 512 L 72 512 Q 55 512 44 500 Q 32 489 32 472 L 32 456 Q 33 449 40 448 Q 47 449 48 456 L 48 456 Z"/>
</svg>
