<svg xmlns="http://www.w3.org/2000/svg" viewBox="0 0 512 512">
  <path d="M 210 33 Q 218 20 229 10 L 229 10 L 229 10 Q 241 0 256 0 Q 271 0 283 10 Q 295 20 303 33 Q 319 62 320 89 L 320 176 L 320 176 L 320 177 L 320 177 L 491 272 L 491 272 Q 511 284 512 307 L 512 355 L 512 355 Q 512 367 503 374 Q 494 381 482 378 L 320 334 L 320 334 L 320 352 L 320 352 L 320 396 L 320 396 L 374 437 L 374 437 Q 384 444 384 456 L 384 490 L 384 490 Q 382 510 362 512 Q 359 512 356 511 L 256 480 L 256 480 L 156 511 L 156 511 Q 153 512 150 512 Q 130 510 128 490 L 128 456 L 128 456 Q 128 444 138 437 L 192 396 L 192 396 L 192 352 L 192 352 L 192 334 L 192 334 L 30 378 L 30 378 Q 18 381 9 374 Q 0 367 0 355 L 0 307 L 0 307 Q 1 284 21 272 L 192 177 L 192 177 L 192 176 L 192 176 L 192 89 L 192 89 Q 193 62 210 33 L 210 33 Z M 208 176 L 208 182 L 208 176 L 208 182 L 208 323 L 208 323 L 208 352 L 208 352 L 208 400 L 208 400 Q 208 404 205 407 L 147 450 L 147 450 Q 144 452 144 456 L 144 490 L 144 490 Q 144 496 150 496 Q 151 496 152 496 L 254 464 L 254 464 Q 256 464 258 464 L 360 496 L 360 496 L 358 503 L 358 503 L 360 496 L 360 496 Q 361 496 362 496 Q 367 496 368 490 L 368 456 L 368 456 Q 368 452 365 450 L 307 407 L 307 407 Q 304 404 304 400 L 304 352 L 304 352 L 304 323 L 304 323 L 304 182 L 304 182 L 304 182 L 304 182 L 304 176 L 304 176 L 304 89 L 304 89 Q 303 68 289 42 Q 274 17 256 16 Q 239 17 223 42 Q 208 67 208 89 L 208 176 L 208 176 Z M 192 196 L 28 286 L 192 196 L 28 286 Q 16 293 16 307 L 16 355 L 16 355 Q 17 364 26 363 L 192 317 L 192 317 L 192 196 L 192 196 Z M 320 317 L 486 363 L 320 317 L 486 363 Q 495 364 496 355 L 496 307 L 496 307 Q 496 293 484 286 L 320 196 L 320 196 L 320 317 L 320 317 Z" />
</svg>