<svg xmlns="http://www.w3.org/2000/svg" viewBox="0 0 512 512">
  <path d="M 7.185964912280702 23.354385964912282 Q 0.8982456140350877 24.25263157894737 0 30.54035087719298 Q 0.8982456140350877 36.8280701754386 7.185964912280702 37.72631578947368 L 41.319298245614036 37.72631578947368 L 41.319298245614036 37.72631578947368 Q 57.487719298245615 38.62456140350877 61.97894736842105 54.79298245614035 L 115.87368421052632 327.859649122807 L 115.87368421052632 327.859649122807 Q 119.46666666666667 345.82456140350877 132.94035087719297 356.6035087719298 Q 146.4140350877193 368.280701754386 165.27719298245614 368.280701754386 L 452.7157894736842 368.280701754386 L 452.7157894736842 368.280701754386 Q 459.00350877192983 367.3824561403509 459.9017543859649 361.09473684210525 Q 459.00350877192983 354.8070175438597 452.7157894736842 353.9087719298246 L 165.27719298245614 353.9087719298246 L 165.27719298245614 353.9087719298246 Q 151.8035087719298 353.9087719298246 141.92280701754385 345.82456140350877 Q 132.0421052631579 337.740350877193 129.34736842105264 325.16491228070174 L 121.26315789473684 282.04912280701757 L 121.26315789473684 282.04912280701757 L 425.7684210526316 282.04912280701757 L 425.7684210526316 282.04912280701757 Q 443.73333333333335 282.04912280701757 457.20701754385965 271.2701754385965 Q 470.68070175438595 260.49122807017545 474.2736842105263 243.42456140350876 L 509.30526315789473 96.11228070175439 L 509.30526315789473 96.11228070175439 Q 512 79.04561403508772 502.11929824561406 65.57192982456141 Q 492.23859649122807 52.99649122807018 474.2736842105263 52.098245614035086 L 76.35087719298245 52.098245614035086 L 76.35087719298245 52.098245614035086 Q 69.16491228070176 25.150877192982456 41.319298245614036 23.354385964912282 L 7.185964912280702 23.354385964912282 L 7.185964912280702 23.354385964912282 Z M 79.04561403508772 66.47017543859648 L 474.2736842105263 66.47017543859648 L 79.04561403508772 66.47017543859648 L 474.2736842105263 66.47017543859648 Q 485.05263157894734 66.47017543859648 491.340350877193 74.55438596491229 Q 496.7298245614035 82.63859649122807 494.93333333333334 93.41754385964913 L 460.8 239.83157894736843 L 460.8 239.83157894736843 Q 452.7157894736842 265.88070175438594 425.7684210526316 267.6771929824561 L 118.56842105263158 267.6771929824561 L 118.56842105263158 267.6771929824561 L 79.04561403508772 66.47017543859648 L 79.04561403508772 66.47017543859648 Z M 129.34736842105264 440.140350877193 Q 129.34736842105264 427.5649122807018 137.43157894736842 419.48070175438596 L 137.43157894736842 419.48070175438596 L 137.43157894736842 419.48070175438596 Q 145.5157894736842 411.3964912280702 158.09122807017545 411.3964912280702 Q 170.66666666666666 411.3964912280702 178.75087719298244 419.48070175438596 Q 186.83508771929826 427.5649122807018 186.83508771929826 440.140350877193 Q 186.83508771929826 452.7157894736842 178.75087719298244 460.8 Q 170.66666666666666 468.88421052631577 158.09122807017545 468.88421052631577 Q 145.5157894736842 468.88421052631577 137.43157894736842 460.8 Q 129.34736842105264 452.7157894736842 129.34736842105264 440.140350877193 L 129.34736842105264 440.140350877193 Z M 201.20701754385965 440.140350877193 Q 200.30877192982456 415.8877192982456 179.64912280701753 402.4140350877193 Q 158.09122807017545 391.63508771929827 136.53333333333333 402.4140350877193 Q 115.87368421052632 415.8877192982456 114.97543859649123 440.140350877193 Q 115.87368421052632 464.3929824561404 136.53333333333333 477.8666666666667 Q 158.09122807017545 488.6456140350877 179.64912280701753 477.8666666666667 Q 200.30877192982456 464.3929824561404 201.20701754385965 440.140350877193 L 201.20701754385965 440.140350877193 Z M 416.7859649122807 411.3964912280702 Q 429.36140350877196 411.3964912280702 437.4456140350877 419.48070175438596 L 437.4456140350877 419.48070175438596 L 437.4456140350877 419.48070175438596 Q 445.52982456140353 427.5649122807018 445.52982456140353 440.140350877193 Q 445.52982456140353 452.7157894736842 437.4456140350877 460.8 Q 429.36140350877196 468.88421052631577 416.7859649122807 468.88421052631577 Q 404.2105263157895 468.88421052631577 396.12631578947367 460.8 Q 388.0421052631579 452.7157894736842 388.0421052631579 440.140350877193 Q 388.0421052631579 427.5649122807018 396.12631578947367 419.48070175438596 Q 404.2105263157895 411.3964912280702 416.7859649122807 411.3964912280702 L 416.7859649122807 411.3964912280702 Z M 416.7859649122807 483.2561403508772 Q 441.0385964912281 482.3578947368421 454.5122807017544 461.6982456140351 Q 465.29122807017546 440.140350877193 454.5122807017544 418.58245614035087 Q 441.0385964912281 397.92280701754385 416.7859649122807 397.02456140350876 Q 392.53333333333336 397.92280701754385 379.059649122807 418.58245614035087 Q 368.280701754386 440.140350877193 379.059649122807 461.6982456140351 Q 392.53333333333336 482.3578947368421 416.7859649122807 483.2561403508772 L 416.7859649122807 483.2561403508772 Z" />
</svg>