<svg xmlns="http://www.w3.org/2000/svg" viewBox="0 0 448 448">
    <path d="M 176 0 Q 183 1 184 8 L 184 112 Q 184 173 221 222 L 240 248 Q 280 301 280 368 L 280 440 Q 279 447 272 448 Q 265 447 264 440 L 264 368 Q 264 307 227 258 L 208 232 Q 169 179 168 112 L 168 8 Q 169 1 176 0 L 176 0 Z M 8 64 Q 15 65 16 72 L 16 126 Q 16 181 47 228 L 78 275 Q 112 326 112 386 L 112 440 Q 111 447 104 448 Q 97 447 96 440 L 96 386 Q 96 331 65 284 L 34 237 Q 0 186 0 126 L 0 72 Q 1 65 8 64 L 8 64 Z M 352 72 L 352 126 Q 352 181 383 228 L 414 275 Q 448 326 448 386 L 448 440 Q 447 447 440 448 Q 433 447 432 440 L 432 386 Q 432 331 401 284 L 370 237 Q 336 186 336 126 L 336 72 Q 337 65 344 64 Q 351 65 352 72 L 352 72 Z"/>
</svg>
