<svg xmlns="http://www.w3.org/2000/svg" viewBox="0 0 512 512">
  <path d="M 32 56 Q 33 32 48 16 L 48 16 L 48 16 Q 64 1 88 0 L 440 0 L 440 0 Q 457 0 468 12 Q 480 23 480 40 L 480 376 L 480 376 Q 478 407 448 415 L 448 496 L 448 496 L 472 496 L 472 496 Q 479 497 480 504 Q 479 511 472 512 L 88 512 L 88 512 Q 64 511 48 496 Q 33 480 32 456 L 32 56 L 32 56 Z M 88 416 Q 71 416 60 428 L 60 428 L 60 428 Q 48 439 48 456 Q 48 473 60 484 Q 71 496 88 496 L 432 496 L 432 496 L 432 416 L 432 416 L 88 416 L 88 416 Z M 48 417 Q 64 401 88 400 L 440 400 L 440 400 Q 462 398 464 376 L 464 40 L 464 40 Q 462 18 440 16 L 88 16 L 88 16 Q 71 16 60 28 Q 48 39 48 56 L 48 417 L 48 417 Z M 351 222 Q 345 246 318 257 Q 336 264 345 277 Q 355 289 351 309 Q 340 351 277 352 Q 265 352 253 350 Q 228 346 205 339 Q 205 339 205 339 L 198 336 L 198 336 Q 191 334 192 326 Q 195 320 202 321 L 210 323 L 210 323 L 210 323 L 210 323 Q 232 331 255 335 Q 288 339 310 331 Q 331 323 335 306 Q 339 286 321 277 Q 304 267 270 260 L 261 257 L 261 257 L 260 257 L 260 257 Q 260 257 260 257 Q 237 253 213 239 Q 189 226 193 194 Q 199 170 226 159 Q 209 152 199 140 Q 189 127 193 107 Q 199 82 225 72 Q 251 61 291 66 Q 306 68 328 74 Q 335 77 334 84 Q 331 91 324 90 Q 303 83 289 82 Q 256 77 234 85 Q 213 93 209 110 Q 205 128 219 137 Q 234 147 264 154 L 274 156 L 274 156 L 274 156 L 274 156 Q 274 156 274 156 Q 306 163 331 176 Q 356 190 351 222 L 351 222 Z M 264 242 L 274 244 L 264 242 L 274 244 Q 282 246 291 248 Q 291 248 291 248 Q 306 246 319 240 Q 332 233 335 219 Q 339 199 321 189 Q 304 180 270 172 Q 269 172 263 170 Q 256 168 253 168 Q 238 170 225 176 Q 213 183 209 197 Q 205 215 220 225 Q 234 234 265 242 L 264 242 Z" />
</svg>