<svg xmlns="http://www.w3.org/2000/svg" viewBox="0 0 521 482">
    <path d="M 274 4 Q 280 0 286 4 Q 290 10 286 16 L 211 90 L 440 90 Q 471 91 491 111 Q 511 131 512 162 L 512 218 Q 511 225 504 226 Q 497 225 496 218 L 496 162 Q 495 138 480 122 Q 464 107 440 106 L 211 106 L 286 180 Q 290 186 286 192 Q 280 196 274 192 L 186 104 Q 182 98 186 92 L 274 4 L 274 4 Z M 238 260 L 326 348 Q 330 354 326 360 L 238 448 Q 232 452 226 448 Q 222 442 226 436 L 301 362 L 72 362 Q 48 363 32 378 Q 17 394 16 418 L 16 474 Q 15 481 8 482 Q 1 481 0 474 L 0 418 Q 1 387 21 367 Q 41 347 72 346 L 301 346 L 226 272 Q 222 266 226 260 Q 232 256 238 260 L 238 260 Z M 448 402 Q 475 401 490 378 Q 502 354 490 330 Q 475 307 448 306 Q 421 307 406 330 Q 394 354 406 378 Q 421 401 448 402 L 448 402 Z M 448 290 Q 484 291 503 322 Q 521 354 503 386 Q 484 417 448 418 Q 412 417 393 386 Q 375 354 393 322 Q 412 291 448 290 L 448 290 Z M 16 98 Q 17 125 40 140 Q 64 152 88 140 Q 111 125 112 98 Q 111 71 88 56 Q 64 44 40 56 Q 17 71 16 98 L 16 98 Z M 128 98 Q 127 134 96 153 Q 64 171 32 153 Q 1 134 0 98 Q 1 62 32 43 Q 64 25 96 43 Q 127 62 128 98 L 128 98 Z"/>
</svg>
