<svg xmlns="http://www.w3.org/2000/svg" viewBox="0 0 512 512">
  <path d="M 240.06225680933852 103.59533073929961 Q 241.05836575875486 66.73929961089495 265.96108949416345 41.83657587548638 L 265.96108949416345 41.83657587548638 L 265.96108949416345 41.83657587548638 Q 290.863813229572 16.93385214007782 327.7198443579766 15.937743190661479 Q 358.59922178988325 16.93385214007782 381.50972762645915 34.86381322957198 Q 404.420233463035 52.793774319066145 412.3891050583658 81.68093385214007 L 412.3891050583658 82.67704280155642 L 412.3891050583658 82.67704280155642 L 413.3852140077821 82.67704280155642 L 413.3852140077821 82.67704280155642 Q 415.3774319066148 92.63813229571984 415.3774319066148 103.59533073929961 L 415.3774319066148 183.284046692607 L 415.3774319066148 183.284046692607 Q 413.3852140077821 267.9533073929961 356.60700389105057 323.73540856031127 Q 299.8287937743191 380.5136186770428 215.15953307392996 382.5058365758755 Q 131.4863813229572 380.5136186770428 74.70817120622569 324.7315175097276 Q 18.926070038910506 268.94941634241246 16.93385214007782 186.27237354085602 Q 17.929961089494164 176.3112840466926 27.891050583657588 175.31517509727627 L 192.24902723735408 175.31517509727627 L 192.24902723735408 175.31517509727627 Q 212.17120622568095 174.31906614785993 226.11673151750972 161.36964980544747 Q 239.06614785992218 147.42412451361866 240.06225680933852 127.50194552529183 L 240.06225680933852 103.59533073929961 L 240.06225680933852 103.59533073929961 Z M 431.31517509727627 103.59533073929961 Q 431.31517509727627 98.6147859922179 431.31517509727627 93.63424124513618 L 488.0933852140078 127.50194552529183 L 488.0933852140078 127.50194552529183 L 431.31517509727627 161.36964980544747 L 431.31517509727627 161.36964980544747 L 431.31517509727627 103.59533073929961 L 431.31517509727627 103.59533073929961 Z M 431.31517509727627 183.284046692607 L 431.31517509727627 180.295719844358 L 431.31517509727627 183.284046692607 L 431.31517509727627 180.295719844358 L 507.0194552529183 134.47470817120623 L 507.0194552529183 134.47470817120623 Q 511.00389105058366 131.4863813229572 511.00389105058366 127.50194552529183 Q 511.00389105058366 122.52140077821012 507.0194552529183 120.52918287937743 L 427.3307392996109 72.715953307393 L 427.3307392996109 72.715953307393 L 426.3346303501946 71.71984435797665 L 426.3346303501946 71.71984435797665 Q 416.3735408560311 39.8443579766537 389.47859922178986 19.92217898832685 Q 362.58365758754866 0.9961089494163424 327.7198443579766 0 Q 283.8910505836576 0.9961089494163424 254.00778210116732 29.883268482490273 Q 225.12062256809338 59.766536964980546 224.12451361867704 103.59533073929961 L 224.12451361867704 127.50194552529183 L 224.12451361867704 127.50194552529183 Q 224.12451361867704 141.44747081712063 215.15953307392996 150.4124513618677 Q 206.1945525291829 159.3774319066148 192.24902723735408 159.3774319066148 L 27.891050583657588 159.3774319066148 L 27.891050583657588 159.3774319066148 Q 2.9883268482490273 161.36964980544747 0.9961089494163424 186.27237354085602 Q 2.9883268482490273 265.96108949416345 51.797665369649806 323.73540856031127 Q 101.60311284046692 380.5136186770428 179.29961089494162 395.45525291828795 L 241.05836575875486 506.02334630350197 L 241.05836575875486 506.02334630350197 Q 245.04280155642024 512 252.01556420233464 509.011673151751 Q 257.9922178988327 505.0272373540856 255.00389105058366 498.0544747081712 L 198.22568093385215 397.44747081712063 L 198.22568093385215 397.44747081712063 Q 206.1945525291829 398.44357976653697 215.15953307392996 398.44357976653697 Q 243.05058365758754 398.44357976653697 268.94941634241246 391.47081712062254 L 336.68482490272373 506.02334630350197 L 336.68482490272373 506.02334630350197 Q 341.6653696498054 512 347.6420233463035 509.011673151751 Q 353.61867704280155 505.0272373540856 350.63035019455253 498.0544747081712 L 284.88715953307394 386.49027237354085 L 284.88715953307394 386.49027237354085 Q 349.6342412451362 363.579766536965 389.47859922178986 309.78988326848247 Q 430.3190661478599 255.00389105058366 431.31517509727627 183.284046692607 L 431.31517509727627 183.284046692607 Z M 335.6887159533074 127.50194552529183 Q 350.63035019455253 126.50583657587549 351.6264591439689 111.56420233463035 Q 350.63035019455253 96.62256809338521 335.6887159533074 95.62645914396887 Q 320.74708171206225 96.62256809338521 319.7509727626459 111.56420233463035 Q 320.74708171206225 126.50583657587549 335.6887159533074 127.50194552529183 L 335.6887159533074 127.50194552529183 Z" />
</svg>