<svg xmlns="http://www.w3.org/2000/svg" viewBox="0 0 560 512">
    <path d="M 16 256 Q 17 189 49 135 L 49 135 Q 81 81 135 49 L 135 49 Q 189 17 256 16 Q 323 17 377 49 Q 431 81 463 135 Q 495 189 496 256 L 496 352 L 472 352 Q 472 352 472 352 Q 472 352 472 352 L 456 352 Q 449 353 448 360 Q 449 367 456 368 L 465 368 L 479 496 Q 472 497 472 504 Q 473 511 480 512 L 488 512 Q 488 512 488 512 Q 488 512 488 512 L 520 512 Q 520 512 520 512 Q 520 512 520 512 L 528 512 Q 535 511 536 504 Q 535 497 529 496 L 543 368 L 552 368 Q 559 367 560 360 Q 559 353 552 352 L 536 352 Q 536 352 536 352 Q 536 352 536 352 L 512 352 L 512 256 Q 511 184 477 127 Q 443 69 385 35 Q 328 1 256 0 Q 184 1 127 35 Q 69 69 35 127 Q 1 184 0 256 Q 1 328 35 385 Q 69 443 127 477 Q 184 511 256 512 Q 346 510 413 458 Q 418 453 415 447 Q 410 442 403 446 Q 341 495 256 496 Q 189 495 135 463 Q 81 431 49 377 Q 17 323 16 256 L 16 256 Z M 527 368 L 513 496 L 495 496 L 481 368 L 504 368 L 527 368 L 527 368 Z M 256 408 Q 215 408 180 388 L 180 388 Q 145 368 124 332 Q 104 296 104 256 Q 104 216 124 180 Q 145 144 180 124 Q 215 104 256 104 Q 297 104 332 124 Q 367 144 388 180 Q 408 216 408 256 Q 408 296 388 332 Q 367 368 332 388 Q 297 408 256 408 L 256 408 Z M 88 256 Q 88 302 111 340 L 111 340 Q 133 378 172 401 Q 212 424 256 424 Q 300 424 340 401 Q 379 378 401 340 Q 424 302 424 256 Q 424 210 401 172 Q 379 134 340 111 Q 300 88 256 88 Q 212 88 172 111 Q 133 134 111 172 Q 88 210 88 256 L 88 256 Z M 320 256 Q 319 292 288 311 Q 256 329 224 311 Q 193 292 192 256 Q 193 220 224 201 Q 256 183 288 201 Q 319 220 320 256 L 320 256 Z M 256 176 Q 211 177 187 216 Q 165 256 187 296 Q 211 335 256 336 Q 301 335 325 296 Q 347 256 325 216 Q 301 177 256 176 L 256 176 Z"/>
</svg>
