<svg xmlns="http://www.w3.org/2000/svg" viewBox="0 0 512 512">
  <path d="M 25.18032786885246 54.557377049180324 Q 17.83606557377049 55.60655737704918 16.78688524590164 62.950819672131146 L 16.78688524590164 113.31147540983606 L 16.78688524590164 113.31147540983606 Q 17.83606557377049 120.65573770491804 25.18032786885246 121.70491803278688 L 75.54098360655738 121.70491803278688 L 75.54098360655738 121.70491803278688 Q 82.88524590163935 120.65573770491804 83.93442622950819 113.31147540983606 L 83.93442622950819 62.950819672131146 L 83.93442622950819 62.950819672131146 Q 82.88524590163935 55.60655737704918 75.54098360655738 54.557377049180324 L 25.18032786885246 54.557377049180324 L 25.18032786885246 54.557377049180324 Z M 0 62.950819672131146 Q 2.098360655737705 39.868852459016395 25.18032786885246 37.77049180327869 L 75.54098360655738 37.77049180327869 L 75.54098360655738 37.77049180327869 Q 98.62295081967213 39.868852459016395 100.72131147540983 62.950819672131146 L 100.72131147540983 113.31147540983606 L 100.72131147540983 113.31147540983606 Q 98.62295081967213 136.39344262295083 75.54098360655738 138.49180327868854 L 25.18032786885246 138.49180327868854 L 25.18032786885246 138.49180327868854 Q 2.098360655737705 136.39344262295083 0 113.31147540983606 L 0 62.950819672131146 L 0 62.950819672131146 Z M 167.86885245901638 79.73770491803279 L 503.60655737704917 79.73770491803279 L 167.86885245901638 79.73770491803279 L 503.60655737704917 79.73770491803279 Q 510.95081967213116 80.78688524590164 512 88.1311475409836 Q 510.95081967213116 95.47540983606558 503.60655737704917 96.52459016393442 L 167.86885245901638 96.52459016393442 L 167.86885245901638 96.52459016393442 Q 160.52459016393442 95.47540983606558 159.47540983606558 88.1311475409836 Q 160.52459016393442 80.78688524590164 167.86885245901638 79.73770491803279 L 167.86885245901638 79.73770491803279 Z M 167.86885245901638 247.60655737704917 L 503.60655737704917 247.60655737704917 L 167.86885245901638 247.60655737704917 L 503.60655737704917 247.60655737704917 Q 510.95081967213116 248.65573770491804 512 256 Q 510.95081967213116 263.344262295082 503.60655737704917 264.39344262295083 L 167.86885245901638 264.39344262295083 L 167.86885245901638 264.39344262295083 Q 160.52459016393442 263.344262295082 159.47540983606558 256 Q 160.52459016393442 248.65573770491804 167.86885245901638 247.60655737704917 L 167.86885245901638 247.60655737704917 Z M 167.86885245901638 415.4754098360656 L 503.60655737704917 415.4754098360656 L 167.86885245901638 415.4754098360656 L 503.60655737704917 415.4754098360656 Q 510.95081967213116 416.5245901639344 512 423.8688524590164 Q 510.95081967213116 431.21311475409834 503.60655737704917 432.26229508196724 L 167.86885245901638 432.26229508196724 L 167.86885245901638 432.26229508196724 Q 160.52459016393442 431.21311475409834 159.47540983606558 423.8688524590164 Q 160.52459016393442 416.5245901639344 167.86885245901638 415.4754098360656 L 167.86885245901638 415.4754098360656 Z M 75.54098360655738 222.4262295081967 L 25.18032786885246 222.4262295081967 L 75.54098360655738 222.4262295081967 L 25.18032786885246 222.4262295081967 Q 17.83606557377049 223.47540983606558 16.78688524590164 230.81967213114754 L 16.78688524590164 281.1803278688525 L 16.78688524590164 281.1803278688525 Q 17.83606557377049 288.5245901639344 25.18032786885246 289.57377049180326 L 75.54098360655738 289.57377049180326 L 75.54098360655738 289.57377049180326 Q 82.88524590163935 288.5245901639344 83.93442622950819 281.1803278688525 L 83.93442622950819 230.81967213114754 L 83.93442622950819 230.81967213114754 Q 82.88524590163935 223.47540983606558 75.54098360655738 222.4262295081967 L 75.54098360655738 222.4262295081967 Z M 25.18032786885246 205.63934426229508 L 75.54098360655738 205.63934426229508 L 25.18032786885246 205.63934426229508 L 75.54098360655738 205.63934426229508 Q 98.62295081967213 207.7377049180328 100.72131147540983 230.81967213114754 L 100.72131147540983 281.1803278688525 L 100.72131147540983 281.1803278688525 Q 98.62295081967213 304.26229508196724 75.54098360655738 306.3606557377049 L 25.18032786885246 306.3606557377049 L 25.18032786885246 306.3606557377049 Q 2.098360655737705 304.26229508196724 0 281.1803278688525 L 0 230.81967213114754 L 0 230.81967213114754 Q 2.098360655737705 207.7377049180328 25.18032786885246 205.63934426229508 L 25.18032786885246 205.63934426229508 Z M 25.18032786885246 390.2950819672131 Q 17.83606557377049 391.344262295082 16.78688524590164 398.6885245901639 L 16.78688524590164 449.04918032786884 L 16.78688524590164 449.04918032786884 Q 17.83606557377049 456.39344262295083 25.18032786885246 457.44262295081967 L 75.54098360655738 457.44262295081967 L 75.54098360655738 457.44262295081967 Q 82.88524590163935 456.39344262295083 83.93442622950819 449.04918032786884 L 83.93442622950819 398.6885245901639 L 83.93442622950819 398.6885245901639 Q 82.88524590163935 391.344262295082 75.54098360655738 390.2950819672131 L 25.18032786885246 390.2950819672131 L 25.18032786885246 390.2950819672131 Z M 0 398.6885245901639 Q 2.098360655737705 375.60655737704917 25.18032786885246 373.5081967213115 L 75.54098360655738 373.5081967213115 L 75.54098360655738 373.5081967213115 Q 98.62295081967213 375.60655737704917 100.72131147540983 398.6885245901639 L 100.72131147540983 449.04918032786884 L 100.72131147540983 449.04918032786884 Q 98.62295081967213 472.1311475409836 75.54098360655738 474.2295081967213 L 25.18032786885246 474.2295081967213 L 25.18032786885246 474.2295081967213 Q 2.098360655737705 472.1311475409836 0 449.04918032786884 L 0 398.6885245901639 L 0 398.6885245901639 Z" />
</svg>