<svg xmlns="http://www.w3.org/2000/svg" viewBox="0 0 512 512">
  <path d="M 256 0 Q 263 1 264 8 L 264 273 L 264 273 Q 288 276 304 293 Q 319 311 320 336 Q 319 363 301 381 Q 283 399 256 400 Q 229 399 211 381 Q 193 363 192 336 Q 193 311 208 293 Q 224 276 248 273 L 248 8 L 248 8 Q 249 1 256 0 L 256 0 Z M 256 288 Q 229 289 214 312 Q 202 336 214 360 Q 229 383 256 384 Q 283 383 298 360 Q 310 336 298 312 Q 283 289 256 288 L 256 288 Z M 64 144 Q 44 145 30 158 L 30 158 L 30 158 Q 17 172 16 192 L 16 448 L 16 448 Q 17 468 30 482 Q 44 495 64 496 L 448 496 L 448 496 Q 468 495 482 482 Q 495 468 496 448 L 496 192 L 496 192 Q 495 172 482 158 Q 468 145 448 144 L 384 144 L 384 144 Q 369 145 368 160 L 368 352 L 368 352 Q 367 400 335 431 Q 304 463 256 464 Q 208 463 177 431 Q 145 400 144 352 L 144 160 L 144 160 Q 143 145 128 144 L 64 144 L 64 144 Z M 0 192 Q 1 165 19 147 L 19 147 L 19 147 Q 37 129 64 128 L 128 128 L 128 128 Q 142 128 151 137 Q 160 146 160 160 L 160 352 L 160 352 Q 161 393 188 420 Q 215 447 256 448 Q 297 447 324 420 Q 351 393 352 352 L 352 160 L 352 160 Q 352 146 361 137 Q 370 128 384 128 L 448 128 L 448 128 Q 475 129 493 147 Q 511 165 512 192 L 512 448 L 512 448 Q 511 475 493 493 Q 475 511 448 512 L 64 512 L 64 512 Q 37 511 19 493 Q 1 475 0 448 L 0 192 L 0 192 Z" />
</svg>