<svg xmlns="http://www.w3.org/2000/svg" viewBox="0 0 384 511">
    <path d="M 368 192 Q 366 117 316 68 L 316 68 Q 267 18 192 16 Q 117 18 68 68 Q 18 117 16 192 Q 16 221 34 262 Q 51 303 79 346 Q 106 389 133 427 Q 161 465 181 489 Q 192 500 203 489 Q 223 465 251 427 Q 278 389 306 346 Q 333 303 350 262 Q 368 220 368 192 L 368 192 Z M 384 192 Q 382 237 352 296 L 352 296 Q 321 355 282 410 L 282 410 Q 243 466 216 499 Q 206 511 192 511 Q 178 511 168 499 Q 141 466 102 410 Q 63 355 32 296 Q 2 237 0 192 Q 2 110 56 56 Q 110 2 192 0 Q 274 2 328 56 Q 382 110 384 192 L 384 192 Z M 192 96 Q 199 97 200 104 L 200 264 Q 199 271 192 272 Q 185 271 184 264 L 184 104 Q 185 97 192 96 L 192 96 Z M 176 320 Q 177 305 192 304 Q 207 305 208 320 Q 207 335 192 336 Q 177 335 176 320 L 176 320 Z"/>
</svg>
