<svg xmlns="http://www.w3.org/2000/svg" viewBox="0 0 640 350">
    <path d="M 580 238 Q 590 237 594 230 L 594 230 Q 599 222 594 213 L 464 19 L 464 182 L 464 238 L 580 238 L 580 238 Z M 448 158 L 448 19 Q 449 7 459 4 Q 470 0 477 10 L 607 204 Q 617 221 608 237 Q 600 253 580 254 L 464 254 L 464 254 L 448 254 L 336 254 L 336 254 L 320 254 L 208 254 L 192 254 L 80 254 L 64 254 L 64 238 L 64 19 Q 65 7 75 4 Q 86 0 93 10 L 192 158 L 192 19 Q 193 7 203 4 Q 214 0 221 10 L 320 158 L 320 19 Q 321 7 331 4 Q 342 0 349 10 L 448 158 L 448 158 Z M 448 187 L 336 19 L 336 182 L 336 238 L 448 238 L 448 238 L 448 187 L 448 187 Z M 320 238 L 320 238 L 320 187 L 208 19 L 208 182 L 208 238 L 320 238 L 320 238 Z M 80 19 L 80 238 L 192 238 L 192 187 L 80 19 L 80 19 Z M 0 342 Q 1 335 8 334 L 632 334 Q 639 335 640 342 Q 639 349 632 350 L 8 350 Q 1 349 0 342 L 0 342 Z"/>
</svg>
