<svg xmlns="http://www.w3.org/2000/svg" viewBox="0 0 512 512">
  <path d="M 493.7142857142857 164.57142857142858 Q 492.57142857142856 107.42857142857143 427.42857142857144 64 Q 360 20.571428571428573 256 18.285714285714285 Q 152 20.571428571428573 84.57142857142857 64 Q 19.428571428571427 107.42857142857143 18.285714285714285 164.57142857142858 Q 19.428571428571427 221.71428571428572 84.57142857142857 265.14285714285717 Q 152 308.57142857142856 256 310.85714285714283 Q 360 308.57142857142856 427.42857142857144 265.14285714285717 Q 492.57142857142856 221.71428571428572 493.7142857142857 164.57142857142858 L 493.7142857142857 164.57142857142858 Z M 512 164.57142857142858 L 512 256 L 512 164.57142857142858 L 512 256 Q 510.85714285714283 328 476.57142857142856 385.14285714285717 Q 443.42857142857144 443.42857142857144 385.14285714285717 476.57142857142856 Q 328 510.85714285714283 256 512 Q 184 510.85714285714283 126.85714285714286 476.57142857142856 Q 68.57142857142857 443.42857142857144 35.42857142857143 385.14285714285717 Q 1.1428571428571428 328 0 256 L 0 164.57142857142858 L 0 164.57142857142858 Q 2.2857142857142856 94.85714285714286 75.42857142857143 48 Q 147.42857142857142 2.2857142857142856 256 0 Q 364.57142857142856 2.2857142857142856 436.57142857142856 48 Q 509.7142857142857 94.85714285714286 512 164.57142857142858 L 512 164.57142857142858 Z M 493.7142857142857 226.28571428571428 Q 464 272 401.14285714285717 300.57142857142856 L 401.14285714285717 300.57142857142856 L 401.14285714285717 300.57142857142856 Q 338.2857142857143 328 256 329.14285714285717 Q 173.71428571428572 328 110.85714285714286 300.57142857142856 Q 48 272 18.285714285714285 226.28571428571428 L 18.285714285714285 256 L 18.285714285714285 256 Q 20.571428571428573 356.57142857142856 88 424 Q 155.42857142857142 491.42857142857144 256 493.7142857142857 Q 356.57142857142856 491.42857142857144 424 424 Q 491.42857142857144 356.57142857142856 493.7142857142857 256 L 493.7142857142857 226.28571428571428 L 493.7142857142857 226.28571428571428 Z M 203.42857142857142 160 Q 201.14285714285714 163.42857142857142 201.14285714285714 164.57142857142858 Q 201.14285714285714 165.71428571428572 203.42857142857142 169.14285714285714 Q 206.85714285714286 172.57142857142858 214.85714285714286 176 Q 230.85714285714286 182.85714285714286 256 182.85714285714286 Q 281.14285714285717 182.85714285714286 297.14285714285717 176 Q 305.14285714285717 172.57142857142858 308.57142857142856 169.14285714285714 Q 310.85714285714283 165.71428571428572 310.85714285714283 164.57142857142858 Q 310.85714285714283 163.42857142857142 308.57142857142856 160 Q 305.14285714285717 156.57142857142858 297.14285714285717 153.14285714285714 Q 281.14285714285717 146.28571428571428 256 146.28571428571428 Q 230.85714285714286 146.28571428571428 214.85714285714286 153.14285714285714 Q 206.85714285714286 156.57142857142858 203.42857142857142 160 L 203.42857142857142 160 Z M 206.85714285714286 137.14285714285714 Q 227.42857142857142 128 256 128 Q 284.57142857142856 128 305.14285714285717 137.14285714285714 Q 314.2857142857143 140.57142857142858 321.14285714285717 147.42857142857142 Q 328 154.28571428571428 329.14285714285717 164.57142857142858 Q 328 174.85714285714286 321.14285714285717 181.71428571428572 Q 314.2857142857143 188.57142857142858 305.14285714285717 192 Q 284.57142857142856 201.14285714285714 256 201.14285714285714 Q 227.42857142857142 201.14285714285714 206.85714285714286 192 Q 197.71428571428572 188.57142857142858 190.85714285714286 181.71428571428572 Q 184 174.85714285714286 182.85714285714286 164.57142857142858 Q 184 154.28571428571428 190.85714285714286 147.42857142857142 Q 197.71428571428572 140.57142857142858 206.85714285714286 137.14285714285714 L 206.85714285714286 137.14285714285714 Z M 265.14285714285717 64 L 265.14285714285717 91.42857142857143 L 265.14285714285717 64 L 265.14285714285717 91.42857142857143 Q 264 99.42857142857143 256 100.57142857142857 Q 248 99.42857142857143 246.85714285714286 91.42857142857143 L 246.85714285714286 64 L 246.85714285714286 64 Q 248 56 256 54.857142857142854 Q 264 56 265.14285714285717 64 L 265.14285714285717 64 Z M 171.42857142857142 84.57142857142857 L 189.71428571428572 102.85714285714286 L 171.42857142857142 84.57142857142857 L 189.71428571428572 102.85714285714286 Q 194.28571428571428 109.71428571428571 189.71428571428572 116.57142857142857 Q 182.85714285714286 121.14285714285714 176 116.57142857142857 L 157.71428571428572 98.28571428571429 L 157.71428571428572 98.28571428571429 Q 153.14285714285714 91.42857142857143 157.71428571428572 84.57142857142857 Q 164.57142857142858 80 171.42857142857142 84.57142857142857 L 171.42857142857142 84.57142857142857 Z M 354.2857142857143 84.57142857142857 Q 358.85714285714283 91.42857142857143 354.2857142857143 98.28571428571429 L 336 116.57142857142857 L 336 116.57142857142857 Q 329.14285714285717 121.14285714285714 322.2857142857143 116.57142857142857 Q 317.7142857142857 109.71428571428571 322.2857142857143 102.85714285714286 L 340.57142857142856 84.57142857142857 L 340.57142857142856 84.57142857142857 Q 347.42857142857144 80 354.2857142857143 84.57142857142857 L 354.2857142857143 84.57142857142857 Z M 109.71428571428571 155.42857142857142 L 146.28571428571428 155.42857142857142 L 109.71428571428571 155.42857142857142 L 146.28571428571428 155.42857142857142 Q 154.28571428571428 156.57142857142858 155.42857142857142 164.57142857142858 Q 154.28571428571428 172.57142857142858 146.28571428571428 173.71428571428572 L 109.71428571428571 173.71428571428572 L 109.71428571428571 173.71428571428572 Q 101.71428571428571 172.57142857142858 100.57142857142857 164.57142857142858 Q 101.71428571428571 156.57142857142858 109.71428571428571 155.42857142857142 L 109.71428571428571 155.42857142857142 Z M 365.7142857142857 155.42857142857142 L 402.2857142857143 155.42857142857142 L 365.7142857142857 155.42857142857142 L 402.2857142857143 155.42857142857142 Q 410.2857142857143 156.57142857142858 411.42857142857144 164.57142857142858 Q 410.2857142857143 172.57142857142858 402.2857142857143 173.71428571428572 L 365.7142857142857 173.71428571428572 L 365.7142857142857 173.71428571428572 Q 357.7142857142857 172.57142857142858 356.57142857142856 164.57142857142858 Q 357.7142857142857 156.57142857142858 365.7142857142857 155.42857142857142 L 365.7142857142857 155.42857142857142 Z M 189.71428571428572 226.28571428571428 L 171.42857142857142 244.57142857142858 L 189.71428571428572 226.28571428571428 L 171.42857142857142 244.57142857142858 Q 164.57142857142858 249.14285714285714 157.71428571428572 244.57142857142858 Q 153.14285714285714 237.71428571428572 157.71428571428572 230.85714285714286 L 176 212.57142857142858 L 176 212.57142857142858 Q 182.85714285714286 208 189.71428571428572 212.57142857142858 Q 194.28571428571428 219.42857142857142 189.71428571428572 226.28571428571428 L 189.71428571428572 226.28571428571428 Z M 336 212.57142857142858 L 354.2857142857143 230.85714285714286 L 336 212.57142857142858 L 354.2857142857143 230.85714285714286 Q 358.85714285714283 237.71428571428572 354.2857142857143 244.57142857142858 Q 347.42857142857144 249.14285714285714 340.57142857142856 244.57142857142858 L 322.2857142857143 226.28571428571428 L 322.2857142857143 226.28571428571428 Q 317.7142857142857 219.42857142857142 322.2857142857143 212.57142857142858 Q 329.14285714285717 208 336 212.57142857142858 L 336 212.57142857142858 Z M 265.14285714285717 237.71428571428572 L 265.14285714285717 265.14285714285717 L 265.14285714285717 237.71428571428572 L 265.14285714285717 265.14285714285717 Q 264 273.14285714285717 256 274.2857142857143 Q 248 273.14285714285717 246.85714285714286 265.14285714285717 L 246.85714285714286 237.71428571428572 L 246.85714285714286 237.71428571428572 Q 248 229.71428571428572 256 228.57142857142858 Q 264 229.71428571428572 265.14285714285717 237.71428571428572 L 265.14285714285717 237.71428571428572 Z" />
</svg>