<svg xmlns="http://www.w3.org/2000/svg" viewBox="0 0 512 512">
  <path d="M 45.714285714285715 512 Q 37.714285714285715 510.85714285714283 36.57142857142857 502.85714285714283 Q 37.714285714285715 494.85714285714283 45.714285714285715 493.7142857142857 L 466.2857142857143 493.7142857142857 L 466.2857142857143 493.7142857142857 Q 474.2857142857143 494.85714285714283 475.42857142857144 502.85714285714283 Q 474.2857142857143 510.85714285714283 466.2857142857143 512 L 45.714285714285715 512 L 45.714285714285715 512 Z M 262.85714285714283 400 Q 256 404.57142857142856 249.14285714285714 400 L 93.71428571428571 244.57142857142858 L 93.71428571428571 244.57142857142858 Q 89.14285714285714 237.71428571428572 93.71428571428571 230.85714285714286 Q 100.57142857142857 226.28571428571428 107.42857142857143 230.85714285714286 L 246.85714285714286 371.42857142857144 L 246.85714285714286 371.42857142857144 L 246.85714285714286 9.142857142857142 L 246.85714285714286 9.142857142857142 Q 248 1.1428571428571428 256 0 Q 264 1.1428571428571428 265.14285714285717 9.142857142857142 L 265.14285714285717 371.42857142857144 L 265.14285714285717 371.42857142857144 L 404.57142857142856 230.85714285714286 L 404.57142857142856 230.85714285714286 Q 411.42857142857144 226.28571428571428 418.2857142857143 230.85714285714286 Q 422.85714285714283 237.71428571428572 418.2857142857143 244.57142857142858 L 262.85714285714283 400 L 262.85714285714283 400 Z" />
</svg>