<svg xmlns="http://www.w3.org/2000/svg" viewBox="0 0 448 448">
    <path d="M 64 16 Q 44 17 30 30 L 30 30 Q 17 44 16 64 L 16 384 Q 17 404 30 418 Q 44 431 64 432 L 384 432 Q 404 431 418 418 Q 431 404 432 384 L 432 64 Q 431 44 418 30 Q 404 17 384 16 L 64 16 L 64 16 Z M 0 64 Q 1 37 19 19 L 19 19 Q 37 1 64 0 L 384 0 Q 411 1 429 19 Q 447 37 448 64 L 448 384 Q 447 411 429 429 Q 411 447 384 448 L 64 448 Q 37 447 19 429 Q 1 411 0 384 L 0 64 L 0 64 Z M 126 99 L 224 212 L 322 99 Q 327 94 333 98 Q 338 103 334 109 L 235 224 L 334 339 Q 338 345 333 350 Q 327 354 322 349 L 224 236 L 126 349 Q 121 354 115 350 Q 109 345 114 339 L 213 224 L 114 109 Q 110 103 115 98 Q 121 94 126 99 L 126 99 Z"/>
</svg>
