<svg xmlns="http://www.w3.org/2000/svg" viewBox="0 0 514 512">
    <path d="M 192 80 Q 206 80 215 71 L 215 71 Q 224 62 224 48 Q 224 34 215 25 Q 206 16 192 16 Q 178 16 169 25 Q 160 34 160 48 Q 160 62 169 71 Q 178 80 192 80 L 192 80 Z M 192 0 Q 219 1 234 24 Q 246 48 234 72 Q 219 95 192 96 Q 165 95 150 72 Q 138 48 150 24 Q 165 1 192 0 L 192 0 Z M 144 201 Q 144 208 137 210 Q 85 219 51 258 Q 17 297 16 352 Q 18 413 58 454 Q 99 494 160 496 Q 211 495 248 466 Q 286 437 299 390 Q 302 383 309 384 Q 316 387 314 394 Q 300 446 258 479 Q 216 511 160 512 Q 92 510 47 465 Q 2 420 0 352 Q 1 291 39 248 Q 76 204 135 194 Q 142 194 144 201 L 144 201 Z M 267 291 L 257 243 Q 256 236 260 230 Q 265 224 273 224 L 336 224 Q 351 223 352 208 Q 351 193 336 192 L 260 192 Q 247 191 244 179 L 242 169 Q 236 145 211 144 Q 196 144 187 155 Q 178 166 180 182 L 203 297 Q 207 314 220 325 Q 233 335 250 336 L 255 336 L 256 336 L 256 336 Q 256 336 256 336 Q 256 336 256 336 L 257 336 L 257 336 L 351 336 Q 372 337 381 357 L 417 454 Q 423 466 437 463 L 485 447 Q 498 441 495 427 Q 489 414 475 417 L 456 423 Q 442 426 436 414 L 411 346 Q 403 327 387 315 Q 371 304 351 304 L 282 304 Q 270 303 267 291 L 267 291 Z M 426 340 L 451 408 L 470 402 Q 483 398 494 403 Q 506 409 510 422 Q 514 435 509 446 Q 503 458 490 462 L 442 478 Q 429 482 418 477 Q 407 472 402 459 L 366 362 Q 361 353 351 352 L 257 352 Q 256 352 256 352 Q 256 352 255 352 L 250 352 Q 227 352 210 338 Q 192 323 187 301 L 164 185 Q 161 162 174 145 Q 188 129 211 128 Q 229 128 241 139 Q 254 149 258 166 L 260 176 L 336 176 Q 350 176 359 185 Q 368 194 368 208 Q 368 222 359 231 Q 350 240 336 240 L 289 240 L 273 240 L 276 256 L 282 288 L 351 288 Q 376 288 396 302 Q 416 316 426 340 L 426 340 Z"/>
</svg>
