<svg xmlns="http://www.w3.org/2000/svg" viewBox="0 0 512 512">
  <path d="M 208 39 Q 209 22 220 11 L 220 11 L 220 11 Q 231 0 248 0 L 264 0 L 264 0 Q 281 0 292 11 Q 303 22 304 39 Q 357 55 390 99 Q 423 142 424 200 L 424 224 L 424 224 L 440 224 L 440 224 Q 447 225 448 232 Q 447 239 440 240 L 416 240 L 72 240 Q 65 239 64 232 Q 65 225 72 224 L 88 224 L 88 224 L 88 200 L 88 200 Q 89 142 122 99 Q 155 55 208 39 L 208 39 Z M 408 200 Q 407 146 376 106 L 376 106 L 376 106 Q 344 66 294 53 Q 288 51 288 45 L 288 40 L 288 40 Q 286 18 264 16 L 248 16 L 248 16 Q 226 18 224 40 L 224 45 L 224 45 Q 224 51 218 53 Q 168 66 136 106 Q 105 146 104 200 L 104 224 L 104 224 L 408 224 L 408 224 L 408 200 L 408 200 Z M 305 472 Q 304 475 304 479 L 304 480 L 304 480 Q 305 495 320 496 Q 335 495 336 480 L 336 479 L 336 479 Q 336 475 335 472 L 320 438 L 320 438 L 305 472 L 305 472 Z M 291 466 L 309 423 L 291 466 L 309 423 Q 312 416 320 416 Q 328 416 331 423 L 350 466 L 350 466 Q 352 472 352 479 L 352 480 L 352 480 Q 352 494 343 503 Q 334 512 320 512 Q 307 512 298 503 Q 289 494 288 480 L 288 479 L 288 479 Q 288 472 291 466 L 291 466 Z M 384 310 L 369 344 L 384 310 L 369 344 Q 368 347 368 351 L 368 352 L 368 352 Q 369 367 384 368 Q 399 367 400 352 L 400 351 L 400 351 Q 400 347 399 344 L 384 310 L 384 310 Z M 373 295 Q 376 288 384 288 Q 392 288 395 295 L 413 338 L 413 338 Q 416 344 416 351 L 416 352 L 416 352 Q 416 366 407 375 Q 398 384 384 384 Q 370 384 361 375 Q 352 366 352 352 L 352 351 L 352 351 Q 352 344 355 338 L 373 295 L 373 295 Z M 177 472 Q 176 475 176 479 L 176 480 L 176 480 Q 177 495 192 496 Q 207 495 208 480 L 208 479 L 208 479 Q 208 475 207 472 L 192 438 L 192 438 L 177 472 L 177 472 Z M 163 466 L 181 423 L 163 466 L 181 423 Q 184 416 192 416 Q 200 416 203 423 L 222 466 L 222 466 Q 224 472 224 479 L 224 480 L 224 480 Q 224 494 215 503 Q 206 512 192 512 Q 179 512 170 503 Q 161 494 160 480 L 160 479 L 160 479 Q 160 472 163 466 L 163 466 Z M 256 310 L 241 344 L 256 310 L 241 344 Q 240 347 240 351 L 240 352 L 240 352 Q 241 367 256 368 Q 271 367 272 352 L 272 351 L 272 351 Q 272 347 271 344 L 256 310 L 256 310 Z M 245 295 Q 248 288 256 288 Q 264 288 267 295 L 285 338 L 285 338 Q 288 344 288 351 L 288 352 L 288 352 Q 288 366 279 375 Q 270 384 256 384 Q 242 384 233 375 Q 224 366 224 352 L 224 351 L 224 351 Q 224 344 227 338 L 245 295 L 245 295 Z M 113 344 Q 112 347 112 351 L 112 352 L 112 352 Q 113 367 128 368 Q 143 367 144 352 L 144 351 L 144 351 Q 144 347 143 344 L 128 310 L 128 310 L 113 344 L 113 344 Z M 99 338 L 117 295 L 99 338 L 117 295 Q 120 288 128 288 Q 136 288 139 295 L 158 338 L 158 338 Q 160 344 160 351 L 160 352 L 160 352 Q 160 366 151 375 Q 142 384 128 384 Q 115 384 106 375 Q 97 366 96 352 L 96 351 L 96 351 Q 96 344 99 338 L 99 338 Z" />
</svg>