<svg xmlns="http://www.w3.org/2000/svg" viewBox="0 0 644 516">
    <path d="M 388 402 L 130 402 Q 115 401 114 386 Q 114 381 117 377 L 134 356 Q 176 303 178 236 L 162 223 L 162 231 Q 161 295 122 346 L 105 366 Q 98 375 98 386 Q 98 400 107 409 Q 116 418 130 418 L 409 418 L 388 402 L 388 402 Z M 314 34 Q 253 38 211 79 L 224 89 Q 264 51 322 50 Q 383 52 424 92 Q 464 133 466 194 L 466 231 Q 466 259 474 286 L 498 305 Q 482 270 482 231 L 482 194 Q 480 128 438 84 Q 395 39 330 34 L 330 34 L 330 10 Q 329 3 322 2 Q 315 3 314 10 L 314 34 L 314 34 L 314 34 Z M 274 450 Q 273 443 266 442 Q 259 443 258 450 Q 258 476 277 495 Q 296 514 322 514 Q 348 514 367 495 Q 386 476 386 450 Q 385 443 378 442 Q 371 443 370 450 Q 370 470 356 484 Q 342 498 322 498 Q 302 498 288 484 Q 274 470 274 450 L 274 450 Z M 15 4 Q 9 0 4 5 Q 0 11 5 16 L 629 512 Q 635 516 640 511 Q 644 505 639 500 L 15 4 L 15 4 Z"/>
</svg>
