<svg xmlns="http://www.w3.org/2000/svg" viewBox="0 0 504 449">
    <path d="M 464 9 Q 464 5 461 2 Q 457 0 453 2 L 413 18 Q 406 21 409 28 Q 412 35 419 33 L 448 21 L 448 145 L 416 145 Q 409 146 408 153 Q 409 160 416 161 L 456 161 L 496 161 Q 503 160 504 153 Q 503 146 496 145 L 464 145 L 464 9 L 464 9 Z M 8 65 Q 1 66 0 73 Q 1 80 8 81 L 36 81 L 166 257 L 36 433 L 8 433 Q 1 434 0 441 Q 1 448 8 449 L 40 449 Q 44 449 46 446 L 176 271 L 306 446 Q 308 449 312 449 L 344 449 Q 351 448 352 441 Q 351 434 344 433 L 316 433 L 186 257 L 316 81 L 344 81 Q 351 80 352 73 Q 351 66 344 65 L 312 65 Q 308 65 306 68 L 176 244 L 46 68 Q 44 65 40 65 L 8 65 L 8 65 Z"/>
</svg>
