<svg xmlns="http://www.w3.org/2000/svg" viewBox="0 0 512 512">
  <path d="M 31.716814159292035 507.46902654867256 L 276.3893805309734 262.79646017699116 L 31.716814159292035 507.46902654867256 L 276.3893805309734 262.79646017699116 Q 280.92035398230087 256 276.3893805309734 249.20353982300884 L 31.716814159292035 4.530973451327434 L 31.716814159292035 4.530973451327434 Q 24.920353982300885 0 18.123893805309734 4.530973451327434 Q 13.5929203539823 11.327433628318584 18.123893805309734 18.123893805309734 L 257.13274336283183 256 L 257.13274336283183 256 L 18.123893805309734 493.87610619469024 L 18.123893805309734 493.87610619469024 Q 13.5929203539823 500.6725663716814 18.123893805309734 507.46902654867256 Q 24.920353982300885 512 31.716814159292035 507.46902654867256 L 31.716814159292035 507.46902654867256 Z M 249.20353982300884 507.46902654867256 L 493.87610619469024 262.79646017699116 L 249.20353982300884 507.46902654867256 L 493.87610619469024 262.79646017699116 Q 498.4070796460177 256 493.87610619469024 249.20353982300884 L 249.20353982300884 4.530973451327434 L 249.20353982300884 4.530973451327434 Q 242.4070796460177 0 235.61061946902655 4.530973451327434 Q 231.0796460176991 11.327433628318584 235.61061946902655 18.123893805309734 L 474.6194690265487 256 L 474.6194690265487 256 L 235.61061946902655 493.87610619469024 L 235.61061946902655 493.87610619469024 Q 231.0796460176991 500.6725663716814 235.61061946902655 507.46902654867256 Q 242.4070796460177 512 249.20353982300884 507.46902654867256 L 249.20353982300884 507.46902654867256 Z" />
</svg>