<svg xmlns="http://www.w3.org/2000/svg" viewBox="0 0 512 512">
  <path d="M 419.2 238.4 Q 421.6 244 428 244.8 Q 459.2 252 478.4 276 Q 498.4 300 499.2 332.8 Q 498.4 371.2 472.8 396 Q 448 421.6 409.6 422.4 L 115.2 422.4 L 115.2 422.4 Q 72 421.6 42.4 392.8 Q 13.6 363.2 12.8 320 Q 13.6 285.6 32 260 Q 50.4 234.4 81.6 223.2 Q 89.6 220 89.6 210.4 Q 89.6 208 89.6 204.8 Q 91.2 156 123.2 123.2 Q 156 91.2 204.8 89.6 Q 236.8 89.6 263.2 105.6 Q 289.6 120.8 304.8 147.2 Q 307.2 152 312.8 153.6 Q 318.4 154.4 323.2 151.2 Q 338.4 140.8 358.4 140.8 Q 385.6 141.6 403.2 159.2 Q 421.6 177.6 422.4 204.8 Q 422.4 216.8 418.4 228 Q 416 233.6 419.2 238.4 L 419.2 238.4 Z M 308.8 130.4 Q 291.2 105.6 264 91.2 L 264 91.2 L 264 91.2 Q 237.6 76.8 204.8 76.8 Q 150.4 78.4 114.4 114.4 Q 78.4 150.4 76.8 204.8 Q 76.8 208 76.8 211.2 Q 76.8 211.2 76.8 211.2 Q 42.4 224 21.6 252.8 Q 0.8 281.6 0 320 Q 1.6 368.8 33.6 401.6 Q 66.4 433.6 115.2 435.2 L 409.6 435.2 L 409.6 435.2 Q 452.8 434.4 482.4 405.6 Q 511.2 376 512 332.8 Q 511.2 298.4 492 272.8 Q 473.6 246.4 442.4 236 Q 436.8 233.6 430.4 232.8 Q 432 226.4 433.6 220 Q 435.2 212.8 435.2 204.8 Q 434.4 172 412.8 150.4 Q 391.2 128.8 358.4 128 Q 340 128 324.8 136 Q 320 138.4 316 140.8 Q 312.8 135.2 308.8 130.4 L 308.8 130.4 Z M 409.6 352 Q 408.8 346.4 403.2 345.6 L 236.8 345.6 L 236.8 345.6 Q 231.2 346.4 230.4 352 Q 231.2 357.6 236.8 358.4 L 403.2 358.4 L 403.2 358.4 Q 408.8 357.6 409.6 352 L 409.6 352 Z M 198.4 345.6 L 108.8 345.6 L 198.4 345.6 L 108.8 345.6 Q 103.2 346.4 102.4 352 Q 103.2 357.6 108.8 358.4 L 198.4 358.4 L 198.4 358.4 Q 204 357.6 204.8 352 Q 204 346.4 198.4 345.6 L 198.4 345.6 Z M 102.4 300.8 Q 103.2 306.4 108.8 307.2 L 275.2 307.2 L 275.2 307.2 Q 280.8 306.4 281.6 300.8 Q 280.8 295.2 275.2 294.4 L 108.8 294.4 L 108.8 294.4 Q 103.2 295.2 102.4 300.8 L 102.4 300.8 Z M 313.6 294.4 Q 308 295.2 307.2 300.8 Q 308 306.4 313.6 307.2 L 403.2 307.2 L 403.2 307.2 Q 408.8 306.4 409.6 300.8 Q 408.8 295.2 403.2 294.4 L 313.6 294.4 L 313.6 294.4 Z" />
</svg>