<svg xmlns="http://www.w3.org/2000/svg" viewBox="0 0 512 512">
  <path d="M 499.2 64 L 499.2 115.2 L 499.2 64 L 499.2 115.2 L 12.8 115.2 L 12.8 115.2 L 12.8 64 L 12.8 64 L 499.2 64 L 499.2 64 Z M 12.8 51.2 Q 0.8 52 0 64 L 0 115.2 L 0 115.2 Q 0.8 127.2 12.8 128 L 25.6 128 L 25.6 128 L 25.6 441.6 L 25.6 441.6 Q 27.2 459.2 44.8 460.8 L 108.8 460.8 L 108.8 460.8 Q 126.4 459.2 128 441.6 L 128 332.8 L 128 332.8 Q 129.6 278.4 165.6 242.4 Q 201.6 206.4 256 204.8 Q 310.4 206.4 346.4 242.4 Q 382.4 278.4 384 332.8 L 384 441.6 L 384 441.6 Q 385.6 459.2 403.2 460.8 L 467.2 460.8 L 467.2 460.8 Q 484.8 459.2 486.4 441.6 L 486.4 128 L 486.4 128 L 499.2 128 L 499.2 128 Q 511.2 127.2 512 115.2 L 512 64 L 512 64 Q 511.2 52 499.2 51.2 L 12.8 51.2 L 12.8 51.2 Z M 38.4 441.6 L 38.4 128 L 38.4 441.6 L 38.4 128 L 473.6 128 L 473.6 128 L 473.6 441.6 L 473.6 441.6 Q 472.8 447.2 467.2 448 L 403.2 448 L 403.2 448 Q 397.6 447.2 396.8 441.6 L 396.8 332.8 L 396.8 332.8 Q 395.2 272.8 355.2 233.6 Q 316 193.6 256 192 Q 196 193.6 156.8 233.6 Q 116.8 272.8 115.2 332.8 L 115.2 441.6 L 115.2 441.6 Q 114.4 447.2 108.8 448 L 44.8 448 L 44.8 448 Q 39.2 447.2 38.4 441.6 L 38.4 441.6 Z M 236.8 268 Q 237.6 268 237.6 268.8 Q 251.2 280.8 263.2 294.4 Q 271.2 302.4 280 294.4 Q 284.8 288.8 289.6 284 Q 290.4 283.2 292 284 Q 308 298.4 321.6 320.8 Q 334.4 343.2 334.4 364.8 Q 333.6 404 304 427.2 Q 309.6 416.8 309.6 404.8 Q 308 380 290.4 360 Q 272.8 340.8 260.8 332.8 Q 256 329.6 251.2 332.8 Q 239.2 340.8 221.6 360 Q 204 380 202.4 404.8 Q 202.4 416.8 208 428 Q 178.4 404.8 177.6 364.8 Q 178.4 337.6 196 312 Q 214.4 287.2 236 268.8 Q 236 268 236.8 268 L 236.8 268 Z M 227.2 259.2 Q 205.6 277.6 185.6 304.8 Q 166.4 332 164.8 364.8 Q 165.6 403.2 191.2 429.6 Q 216.8 455.2 256 456 Q 295.2 455.2 320.8 429.6 Q 346.4 403.2 347.2 364.8 Q 346.4 338.4 332.8 314.4 Q 318.4 290.4 300.8 274.4 Q 291.2 266.4 281.6 274.4 Q 276 279.2 271.2 284.8 Q 259.2 271.2 246.4 259.2 Q 242.4 255.2 236.8 255.2 Q 231.2 255.2 227.2 259.2 L 227.2 259.2 Z M 256 441.6 Q 238.4 441.6 226.4 430.4 L 226.4 430.4 L 226.4 430.4 Q 215.2 420 215.2 404 Q 216 386.4 232 368 Q 244.8 352.8 256 344.8 Q 267.2 352.8 280.8 368 Q 296 386.4 296.8 404 Q 296.8 420 285.6 430.4 Q 273.6 441.6 256 441.6 L 256 441.6 Z" />
</svg>