<svg xmlns="http://www.w3.org/2000/svg" viewBox="0 0 512 512">
  <path d="M 259.9922 1.9961014 Q 256 0 252.0078 1.9961014 L 4.491228 153.6998 L 4.491228 153.6998 Q 0.49902534 156.69395 0.49902534 160.68616 L 0.49902534 504.0156 L 0.49902534 504.0156 Q 1.497076 511.00195 8.483431 512 Q 15.469786 511.00195 16.467836 504.0156 L 16.467836 165.6764 L 16.467836 165.6764 L 256 17.964912 L 256 17.964912 L 495.53217 165.6764 L 495.53217 165.6764 L 495.53217 504.0156 L 495.53217 504.0156 Q 496.5302 511.00195 503.51657 512 Q 510.50293 511.00195 511.50098 504.0156 L 511.50098 160.68616 L 511.50098 160.68616 Q 511.50098 156.69395 507.50876 153.6998 L 259.9922 1.9961014 L 259.9922 1.9961014 Z M 232.04678 168.67056 Q 234.0429 146.71346 256 144.71735 Q 277.95712 146.71346 279.95322 168.67056 Q 277.95712 190.62769 256 192.62378 Q 234.0429 190.62769 232.04678 168.67056 L 232.04678 168.67056 Z M 295.92203 168.67056 Q 294.92398 145.7154 275.961 133.73878 Q 256 123.758286 236.03899 133.73878 Q 217.07602 145.7154 216.07797 168.67056 Q 217.07602 191.62573 236.03899 203.60234 Q 256 213.58284 275.961 203.60234 Q 294.92398 191.62573 295.92203 168.67056 L 295.92203 168.67056 Z M 216.07797 296.42105 Q 215.07993 289.4347 208.09357 288.43665 Q 201.10721 289.4347 200.10916 296.42105 L 200.10916 480.06238 L 200.10916 480.06238 Q 200.10916 494.0351 209.09161 503.01755 Q 218.07408 512 232.04678 512 Q 247.01755 512 256 501.02145 Q 264.98245 512 279.95322 512 Q 293.92593 512 302.9084 503.01755 Q 311.89084 494.0351 311.89084 480.06238 L 311.89084 296.42105 L 311.89084 296.42105 Q 310.8928 289.4347 303.90643 288.43665 Q 296.92007 289.4347 295.92203 296.42105 L 295.92203 480.06238 L 295.92203 480.06238 Q 294.92398 495.03314 279.95322 496.0312 Q 264.98245 495.03314 263.9844 480.06238 L 263.9844 384.2495 L 263.9844 384.2495 Q 262.98636 377.26315 256 376.2651 L 256 376.2651 L 256 376.2651 L 256 376.2651 L 256 376.2651 Q 249.01364 377.26315 248.0156 384.2495 L 248.0156 480.06238 L 248.0156 480.06238 Q 247.01755 495.03314 232.04678 496.0312 Q 217.07602 495.03314 216.07797 480.06238 L 216.07797 296.42105 L 216.07797 296.42105 Z M 194.12086 271.4698 Q 211.08772 241.52826 244.02339 240.53021 L 267.9766 240.53021 L 267.9766 240.53021 Q 300.9123 241.52826 317.87915 271.4698 L 360.79532 356.3041 L 360.79532 356.3041 Q 364.78754 362.2924 371.77386 359.29825 Q 377.76218 355.30603 374.76804 348.3197 L 331.85184 263.48538 L 331.85184 263.48538 Q 310.8928 225.55945 267.9766 224.5614 L 244.02339 224.5614 L 244.02339 224.5614 Q 201.10721 225.55945 180.14815 263.48538 L 137.23196 348.3197 L 137.23196 348.3197 Q 134.23782 355.30603 140.22612 359.29825 Q 147.21248 362.2924 151.20468 356.3041 L 194.12086 271.4698 L 194.12086 271.4698 Z" />
</svg>