<svg xmlns="http://www.w3.org/2000/svg" viewBox="0 0 512 512">
  <path d="M 238.5965 240.2807 Q 229.61403 240.2807 224 247.01755 Q 219.50877 253.75438 221.75438 262.73685 L 230.73685 298.66666 L 230.73685 298.66666 Q 234.10527 311.01755 247.57895 312.14035 L 326.17545 312.14035 L 326.17545 312.14035 Q 348.6316 312.14035 366.5965 324.49124 Q 384.5614 337.9649 393.54385 359.29825 L 421.61404 435.6491 L 421.61404 435.6491 Q 428.3509 449.1228 444.0702 445.7544 L 465.4035 439.01755 L 465.4035 439.01755 Q 481.1228 435.6491 487.85965 450.2456 Q 491.22806 465.9649 476.6316 472.70175 L 422.73685 490.66666 L 422.73685 490.66666 Q 407.01755 495.1579 400.2807 480.5614 L 359.85965 371.6491 L 359.85965 371.6491 Q 349.7544 349.193 326.17545 348.0702 L 220.63158 348.0702 L 220.63158 348.0702 L 220.63158 348.0702 L 220.63158 348.0702 L 219.50877 348.0702 L 219.50877 348.0702 Q 219.50877 348.0702 219.50877 348.0702 Q 219.50877 348.0702 219.50877 348.0702 L 219.50877 348.0702 L 219.50877 348.0702 L 218.38597 348.0702 L 211.64912 348.0702 Q 192.5614 348.0702 177.9649 336.8421 Q 164.49123 325.61404 158.8772 307.6491 L 135.29825 212.21053 L 135.29825 212.21053 Q 131.92982 194.24562 142.0351 181.89473 Q 152.14035 168.42105 170.10527 168.42105 Q 194.80702 169.54385 203.78947 192 Q 208.2807 203.22807 220.63158 204.35088 L 327.29825 204.35088 L 327.29825 204.35088 Q 344.14035 205.47368 345.26315 222.3158 Q 344.14035 238.0351 327.29825 240.2807 L 238.5965 240.2807 L 238.5965 240.2807 Z M 111.7193 60.63158 Q 111.7193 44.91228 121.82456 34.80702 L 121.82456 34.80702 L 121.82456 34.80702 Q 131.92982 24.701754 147.64912 24.701754 Q 163.36842 24.701754 173.47368 34.80702 Q 183.57895 44.91228 183.57895 60.63158 Q 183.57895 76.350876 173.47368 86.45614 Q 163.36842 96.5614 147.64912 96.5614 Q 131.92982 96.5614 121.82456 86.45614 Q 111.7193 76.350876 111.7193 60.63158 L 111.7193 60.63158 Z M 247.57895 294.17545 L 243.08772 276.21054 L 247.57895 294.17545 L 243.08772 276.21054 L 238.5965 258.2456 L 238.5965 258.2456 L 257.6842 258.2456 L 327.29825 258.2456 Q 343.01755 258.2456 353.1228 248.14035 Q 363.22806 238.0351 363.22806 222.3158 Q 363.22806 206.5965 353.1228 196.49123 Q 343.01755 186.38597 327.29825 186.38597 L 220.63158 186.38597 L 220.63158 186.38597 Q 207.1579 152.70175 170.10527 150.45615 Q 143.1579 151.57895 127.4386 170.66667 Q 112.8421 190.8772 118.45614 216.70175 L 142.0351 312.14035 L 142.0351 312.14035 Q 148.77193 335.7193 167.85965 350.3158 Q 185.82455 366.0351 211.64912 366.0351 L 218.38597 366.0351 L 218.38597 366.0351 Q 219.50877 366.0351 219.50877 366.0351 Q 219.50877 366.0351 220.63158 366.0351 L 326.17545 366.0351 L 326.17545 366.0351 Q 338.5263 366.0351 343.01755 377.26315 L 383.4386 486.17545 L 383.4386 486.17545 Q 389.05264 499.6491 401.4035 506.38596 Q 413.7544 512 428.3509 507.50876 L 482.2456 489.54385 L 482.2456 489.54385 Q 496.8421 485.05264 503.57895 471.57895 Q 509.193 459.22806 504.70175 444.6316 Q 500.21054 430.0351 486.73685 423.29825 Q 474.38596 417.6842 459.78946 422.17545 L 438.45615 428.9123 L 438.45615 428.9123 L 410.38596 352.5614 L 410.38596 352.5614 Q 399.1579 325.61404 376.70175 309.89474 Q 354.2456 294.17545 326.17545 294.17545 L 247.57895 294.17545 L 247.57895 294.17545 Z M 201.54385 60.63158 Q 200.42105 30.31579 174.5965 13.473684 Q 147.64912 0 120.70175 13.473684 Q 94.87719 30.31579 93.75439 60.63158 Q 94.87719 90.947365 120.70175 107.789474 Q 147.64912 121.26316 174.5965 107.789474 Q 200.42105 90.947365 201.54385 60.63158 L 201.54385 60.63158 Z M 21.894737 121.26316 Q 19.649122 113.40351 10.666667 114.52631 Q 2.8070176 116.77193 3.9298246 125.75439 L 48.842106 344.70175 L 48.842106 344.70175 Q 58.94737 386.2456 90.38596 412.0702 Q 120.70175 436.77194 163.36842 437.89474 L 300.3509 437.89474 L 300.3509 437.89474 Q 308.21054 436.77194 309.33334 428.9123 Q 308.21054 421.05264 300.3509 419.9298 L 163.36842 419.9298 L 163.36842 419.9298 Q 127.4386 418.807 101.61404 397.4737 Q 74.666664 376.14035 66.807014 341.33334 L 21.894737 121.26316 L 21.894737 121.26316 Z" />
</svg>