<svg xmlns="http://www.w3.org/2000/svg" viewBox="0 0 516 516">
    <path d="M 125 4 Q 130 0 136 4 L 170 39 Q 181 51 182 66 Q 182 82 171 94 L 109 161 Q 96 178 109 194 L 155 240 Q 158 208 175 173 Q 192 137 228 103 Q 245 88 266 74 L 259 11 Q 259 7 261 4 Q 264 2 268 2 L 402 18 Q 440 9 486 4 Q 498 3 505 11 Q 513 18 512 30 Q 507 75 498 114 L 515 249 Q 515 253 513 256 Q 510 258 506 258 L 442 250 Q 428 271 413 288 Q 379 324 343 341 Q 308 358 276 361 L 322 407 Q 338 420 355 407 L 422 345 Q 434 334 450 335 Q 466 335 478 346 L 512 380 Q 516 386 512 391 L 501 404 Q 479 427 449 428 Q 419 429 396 407 L 388 399 L 366 419 Q 354 430 338 430 Q 323 429 311 418 L 258 365 Q 255 366 252 368 L 206 403 L 249 446 Q 261 458 261 474 Q 261 490 249 502 L 240 512 Q 234 516 228 512 Q 224 506 228 500 L 238 491 Q 252 474 238 457 L 193 413 L 150 445 Q 138 454 138 469 Q 139 481 147 490 Q 155 498 168 498 L 187 498 Q 194 499 195 506 Q 194 513 187 514 L 168 514 Q 149 514 136 501 Q 123 488 122 469 Q 122 446 141 432 L 182 401 L 115 334 L 83 376 Q 70 394 48 394 Q 29 394 16 381 Q 3 368 3 349 L 3 330 Q 4 323 11 322 Q 18 323 19 330 L 19 349 Q 19 362 27 370 Q 35 378 48 378 Q 62 378 71 367 L 103 323 L 59 278 Q 42 264 25 278 L 16 288 Q 10 292 4 288 Q 0 282 4 276 L 14 267 Q 26 255 42 255 Q 58 255 70 267 L 113 310 L 148 264 Q 150 261 151 258 L 98 206 Q 87 194 86 178 Q 86 162 97 150 L 117 129 L 109 120 Q 87 97 88 67 Q 89 37 112 15 L 125 4 L 125 4 Z M 125 321 L 195 392 L 243 356 Q 255 347 271 346 Q 300 344 334 328 Q 368 312 402 277 Q 435 242 460 181 Q 485 120 496 28 Q 496 20 488 20 Q 396 31 335 56 Q 274 81 239 115 Q 204 148 188 182 Q 172 216 171 245 Q 170 261 160 274 L 125 321 L 125 321 Z M 452 235 L 498 241 L 487 154 Q 472 201 452 235 L 452 235 Z M 362 29 L 276 19 L 281 64 Q 315 44 362 29 L 362 29 Z M 128 117 L 159 83 Q 172 66 159 50 L 130 21 L 123 27 Q 104 44 104 67 Q 103 91 120 109 L 128 117 L 128 117 Z M 399 388 L 407 396 Q 425 413 449 412 Q 472 412 489 393 L 495 386 L 466 358 Q 450 344 433 357 L 399 388 L 399 388 Z M 211 322 Q 212 307 227 306 Q 242 307 243 322 Q 242 337 227 338 Q 212 337 211 322 L 211 322 Z M 195 274 Q 210 275 211 290 Q 210 305 195 306 Q 180 305 179 290 Q 180 275 195 274 L 195 274 Z"/>
</svg>
