<svg xmlns="http://www.w3.org/2000/svg" viewBox="0 0 512 512">
  <path d="M 309.7899 20.918287 Q 299.8288 31.875486 309.7899 42.832684 L 469.16733 202.21011 L 469.16733 202.21011 Q 480.1245 212.1712 491.08173 202.21011 Q 501.04282 191.25291 491.08173 180.29572 L 331.70428 20.918287 L 331.70428 20.918287 Q 320.74707 10.957198 309.7899 20.918287 L 309.7899 20.918287 Z M 297.83658 8.96498 Q 307.79767 0 320.74707 0 L 320.74707 0 L 320.74707 0 Q 333.6965 0 343.6576 8.96498 L 503.03503 168.3424 L 503.03503 168.3424 Q 512 178.3035 512 191.25291 Q 512 204.20233 503.03503 214.16342 Q 493.07394 223.1284 480.1245 223.1284 Q 467.1751 223.1284 457.21402 214.16342 L 297.83658 54.78599 L 297.83658 54.78599 Q 288.87158 44.8249 288.87158 31.875486 Q 288.87158 18.92607 297.83658 8.96498 L 297.83658 8.96498 Z M 203.20622 169.33852 L 285.88327 87.657585 L 203.20622 169.33852 L 285.88327 87.657585 L 296.84045 98.614784 L 296.84045 98.614784 L 220.14008 175.31517 L 220.14008 175.31517 L 336.6848 291.85992 L 336.6848 291.85992 L 413.38522 215.15953 L 413.38522 215.15953 L 424.3424 226.11673 L 424.3424 226.11673 L 342.66147 308.79376 L 342.66147 308.79376 L 307.79767 342.66147 L 307.79767 342.66147 Q 292.85602 357.60312 271.93774 362.58365 L 150.41245 386.49026 L 150.41245 386.49026 Q 133.47859 389.4786 121.52529 401.43192 L 23.906614 500.0467 L 23.906614 500.0467 L 15.937743 508.01556 L 15.937743 508.01556 Q 9.961089 512 3.9844358 508.01556 Q 0 502.0389 3.9844358 496.06226 L 11.953307 488.09338 L 11.953307 488.09338 L 110.56809 390.4747 L 110.56809 390.4747 Q 121.52529 378.5214 125.50973 361.58755 L 149.41634 240.06226 L 149.41634 240.06226 Q 154.39688 219.14397 169.33852 204.20233 L 203.20622 169.33852 L 203.20622 169.33852 L 203.20622 169.33852 L 203.20622 169.33852 L 203.20622 169.33852 L 203.20622 169.33852 Z M 209.18288 186.27237 L 180.29572 215.15953 L 209.18288 186.27237 L 180.29572 215.15953 Q 169.33852 227.11284 165.35408 244.04669 L 141.44746 365.572 L 141.44746 365.572 Q 140.45135 369.55643 139.45525 372.54474 Q 143.43968 371.54865 147.42412 370.55252 L 268.9494 346.6459 L 268.9494 346.6459 Q 284.88715 343.6576 296.84045 331.70428 L 325.72763 302.8171 L 325.72763 302.8171 L 209.18288 186.27237 L 209.18288 186.27237 Z" />
</svg>