<svg xmlns="http://www.w3.org/2000/svg" viewBox="0 0 512 512">
  <path d="M 100.27036395147314 70.54419410745234 Q 63.88908145580589 71.4315424610052 39.93067590987868 95.38994800693241 L 39.93067590987868 95.38994800693241 L 39.93067590987868 95.38994800693241 Q 15.972270363951473 119.34835355285962 15.084922010398614 155.72963604852686 Q 15.972270363951473 192.1109185441941 39.93067590987868 216.0693240901213 Q 63.88908145580589 240.02772963604852 100.27036395147314 240.9150779896014 L 225.38648180242635 240.9150779896014 L 270.6412478336222 240.9150779896014 Q 283.0641247833622 240.9150779896014 291.05025996533794 232.92894280762565 Q 299.03639514731367 224.94280762564992 299.03639514731367 212.51993067590988 L 299.03639514731367 98.93934142114385 L 299.03639514731367 98.93934142114385 Q 299.03639514731367 86.51646447140381 291.05025996533794 78.53032928942808 Q 283.0641247833622 70.54419410745234 270.6412478336222 70.54419410745234 L 100.27036395147314 70.54419410745234 L 100.27036395147314 70.54419410745234 Z M 72.76256499133449 251.5632582322357 Q 40.81802426343154 241.80242634315425 21.296360485268632 216.0693240901213 L 21.296360485268632 216.0693240901213 L 21.296360485268632 216.0693240901213 Q 1.7746967071057191 190.3362218370884 0.8873483535528596 155.72963604852686 Q 1.7746967071057191 113.1369150779896 30.16984402079723 85.62911611785096 Q 57.67764298093587 57.233968804159446 100.27036395147314 56.346620450606586 L 270.6412478336222 56.346620450606586 L 270.6412478336222 56.346620450606586 Q 288.3882149046794 57.233968804159446 300.81109185441943 68.76949740034662 Q 312.34662045060657 81.19237435008665 313.2339688041594 98.93934142114385 L 313.2339688041594 212.51993067590988 L 313.2339688041594 212.51993067590988 Q 312.34662045060657 230.26689774696706 300.81109185441943 242.6897746967071 Q 288.3882149046794 254.22530329289427 270.6412478336222 255.11265164644715 L 234.25996533795495 255.11265164644715 L 234.25996533795495 255.11265164644715 L 128.66551126516464 431.6949740034662 L 128.66551126516464 431.6949740034662 Q 119.79202772963605 446.7798960138648 102.93240901213171 451.2166377816291 Q 86.96013864818025 455.65337954939343 70.98786828422877 446.7798960138648 L 23.95840554592721 418.3847487001733 L 23.95840554592721 418.3847487001733 Q 7.986135181975737 409.5112651646447 3.5493934142114383 392.65164644714037 Q 0 375.79202772963606 8.873483535528596 360.70710571923746 L 72.76256499133449 251.5632582322357 L 72.76256499133449 251.5632582322357 Z M 217.40034662045062 255.11265164644715 L 100.27036395147314 255.11265164644715 L 217.40034662045062 255.11265164644715 L 86.96013864818025 255.11265164644715 L 20.40901213171577 367.80589254766033 L 20.40901213171577 367.80589254766033 Q 15.084922010398614 378.4540727902946 17.746967071057192 389.10225303292896 Q 20.40901213171577 399.75043327556324 31.057192374350088 406.8492201039861 L 78.08665511265164 434.35701906412476 L 78.08665511265164 434.35701906412476 Q 88.73483535528597 440.5684575389948 99.38301559792028 437.01906412478337 Q 110.03119584055459 434.35701906412476 117.12998266897748 424.5961871750433 L 217.40034662045062 255.11265164644715 L 217.40034662045062 255.11265164644715 Z M 377.12305025996534 56.346620450606586 L 504.9012131715771 56.346620450606586 L 377.12305025996534 56.346620450606586 L 504.9012131715771 56.346620450606586 Q 511.11265164644715 57.233968804159446 512 63.44540727902946 Q 511.11265164644715 69.65684575389947 504.9012131715771 70.54419410745234 L 377.12305025996534 70.54419410745234 L 377.12305025996534 70.54419410745234 Q 370.9116117850953 69.65684575389947 370.02426343154247 63.44540727902946 Q 370.9116117850953 57.233968804159446 377.12305025996534 56.346620450606586 L 377.12305025996534 56.346620450606586 Z M 370.02426343154247 106.03812824956673 Q 370.9116117850953 99.8266897746967 377.12305025996534 98.93934142114385 L 504.9012131715771 98.93934142114385 L 504.9012131715771 98.93934142114385 Q 511.11265164644715 99.8266897746967 512 106.03812824956673 Q 511.11265164644715 112.24956672443675 504.9012131715771 113.1369150779896 L 377.12305025996534 113.1369150779896 L 377.12305025996534 113.1369150779896 Q 370.9116117850953 112.24956672443675 370.02426343154247 106.03812824956673 L 370.02426343154247 106.03812824956673 Z M 370.02426343154247 148.63084922010398 Q 370.9116117850953 142.41941074523396 377.12305025996534 141.5320623916811 L 504.9012131715771 141.5320623916811 L 504.9012131715771 141.5320623916811 Q 511.11265164644715 142.41941074523396 512 148.63084922010398 Q 511.11265164644715 154.842287694974 504.9012131715771 155.72963604852686 L 377.12305025996534 155.72963604852686 L 377.12305025996534 155.72963604852686 Q 370.9116117850953 154.842287694974 370.02426343154247 148.63084922010398 L 370.02426343154247 148.63084922010398 Z M 377.12305025996534 198.32235701906413 L 504.9012131715771 198.32235701906413 L 377.12305025996534 198.32235701906413 L 504.9012131715771 198.32235701906413 Q 511.11265164644715 199.20970537261698 512 205.421143847487 Q 511.11265164644715 211.63258232235702 504.9012131715771 212.51993067590988 L 377.12305025996534 212.51993067590988 L 377.12305025996534 212.51993067590988 Q 370.9116117850953 211.63258232235702 370.02426343154247 205.421143847487 Q 370.9116117850953 199.20970537261698 377.12305025996534 198.32235701906413 L 377.12305025996534 198.32235701906413 Z M 370.02426343154247 276.40901213171577 Q 370.9116117850953 270.19757365684575 377.12305025996534 269.3102253032929 L 504.9012131715771 269.3102253032929 L 504.9012131715771 269.3102253032929 Q 511.11265164644715 270.19757365684575 512 276.40901213171577 Q 511.11265164644715 282.6204506065858 504.9012131715771 283.50779896013864 L 377.12305025996534 283.50779896013864 L 377.12305025996534 283.50779896013864 Q 370.9116117850953 282.6204506065858 370.02426343154247 276.40901213171577 L 370.02426343154247 276.40901213171577 Z M 377.12305025996534 311.90294627383014 L 504.9012131715771 311.90294627383014 L 377.12305025996534 311.90294627383014 L 504.9012131715771 311.90294627383014 Q 511.11265164644715 312.790294627383 512 319.001733102253 Q 511.11265164644715 325.21317157712303 504.9012131715771 326.1005199306759 L 377.12305025996534 326.1005199306759 L 377.12305025996534 326.1005199306759 Q 370.9116117850953 325.21317157712303 370.02426343154247 319.001733102253 Q 370.9116117850953 312.790294627383 377.12305025996534 311.90294627383014 L 377.12305025996534 311.90294627383014 Z M 370.02426343154247 368.6932409012132 Q 370.9116117850953 362.48180242634317 377.12305025996534 361.5944540727903 L 504.9012131715771 361.5944540727903 L 504.9012131715771 361.5944540727903 Q 511.11265164644715 362.48180242634317 512 368.6932409012132 Q 511.11265164644715 374.9046793760832 504.9012131715771 375.79202772963606 L 377.12305025996534 375.79202772963606 L 377.12305025996534 375.79202772963606 Q 370.9116117850953 374.9046793760832 370.02426343154247 368.6932409012132 L 370.02426343154247 368.6932409012132 Z M 377.12305025996534 439.6811091854419 L 504.9012131715771 439.6811091854419 L 377.12305025996534 439.6811091854419 L 504.9012131715771 439.6811091854419 Q 511.11265164644715 440.5684575389948 512 446.7798960138648 Q 511.11265164644715 452.9913344887348 504.9012131715771 453.8786828422877 L 377.12305025996534 453.8786828422877 L 377.12305025996534 453.8786828422877 Q 370.9116117850953 452.9913344887348 370.02426343154247 446.7798960138648 Q 370.9116117850953 440.5684575389948 377.12305025996534 439.6811091854419 L 377.12305025996534 439.6811091854419 Z" />
</svg>