<svg xmlns="http://www.w3.org/2000/svg" viewBox="0 0 512 512">
  <path d="M 256 241.3392 L 328.1762 241.3392 L 256 241.3392 L 328.1762 241.3392 Q 345.0925 240.21146 346.22028 223.29515 Q 345.0925 206.37886 328.1762 205.2511 L 252.61674 205.2511 L 252.61674 205.2511 Q 240.21146 204.12335 235.70044 192.84581 Q 226.67842 170.29076 201.86784 169.163 Q 186.0793 169.163 175.92952 179.31277 Q 165.77974 189.46255 165.77974 205.2511 L 165.77974 313.5154 L 165.77974 313.5154 Q 166.90749 336.0705 181.56828 351.85904 Q 197.35683 366.51984 219.9119 367.64758 L 316.89868 367.64758 L 316.89868 367.64758 Q 346.22028 369.90308 352.9868 399.22467 L 364.2643 478.1674 L 364.2643 478.1674 Q 367.64758 492.8282 382.30838 493.95593 L 436.44052 493.95593 L 436.44052 493.95593 Q 453.35684 492.8282 454.4846 475.9119 Q 453.35684 458.9956 436.44052 457.86783 L 413.88547 457.86783 L 413.88547 457.86783 Q 399.22467 456.74008 395.8414 442.07928 L 389.0749 393.5859 L 389.0749 393.5859 Q 384.56387 366.51984 364.2643 349.60352 Q 345.0925 331.55948 316.89868 331.55948 L 256 331.55948 L 256 331.55948 Q 239.0837 330.43173 237.95595 313.5154 L 237.95595 259.38327 L 237.95595 259.38327 Q 239.0837 242.46696 256 241.3392 L 256 241.3392 Z M 237.95595 60.898678 Q 237.95595 45.11013 227.80617 34.960354 L 227.80617 34.960354 L 227.80617 34.960354 Q 217.65639 24.810574 201.86784 24.810574 Q 186.0793 24.810574 175.92952 34.960354 Q 165.77974 45.11013 165.77974 60.898678 Q 165.77974 76.687225 175.92952 86.837006 Q 186.0793 96.986786 201.86784 96.986786 Q 217.65639 96.986786 227.80617 86.837006 Q 237.95595 76.687225 237.95595 60.898678 L 237.95595 60.898678 Z M 256 313.5154 L 274.04407 313.5154 L 256 313.5154 L 316.89868 313.5154 Q 351.85904 314.64316 376.66962 336.0705 Q 401.48016 357.4978 407.11896 391.33038 L 413.88547 439.8238 L 413.88547 439.8238 L 436.44052 439.8238 L 436.44052 439.8238 Q 452.22906 439.8238 462.37885 449.97357 Q 472.52863 460.12335 472.52863 475.9119 Q 472.52863 491.70044 462.37885 501.85022 Q 452.22906 512 436.44052 512 L 382.30838 512 L 382.30838 512 Q 352.9868 509.7445 346.22028 481.55066 L 334.94272 401.48016 L 334.94272 401.48016 Q 331.55948 386.8194 316.89868 385.69162 L 219.9119 385.69162 L 219.9119 385.69162 Q 189.46255 384.56387 169.163 364.2643 Q 148.86343 343.96475 147.73569 313.5154 L 147.73569 205.2511 L 147.73569 205.2511 Q 148.86343 182.69603 163.52423 166.90749 Q 179.31277 152.24669 201.86784 151.11894 Q 239.0837 153.37445 252.61674 187.20705 L 328.1762 187.20705 L 328.1762 187.20705 Q 343.96475 187.20705 354.11453 197.35683 Q 364.2643 207.5066 364.2643 223.29515 Q 364.2643 239.0837 354.11453 249.23347 Q 343.96475 259.38327 328.1762 259.38327 L 274.04407 259.38327 L 256 259.38327 L 256 277.4273 L 256 277.4273 L 256 295.47137 L 256 295.47137 L 256 313.5154 L 256 313.5154 Z M 147.73569 60.898678 Q 148.86343 30.449339 174.80176 13.53304 Q 201.86784 0 228.93391 13.53304 Q 254.87225 30.449339 256 60.898678 Q 254.87225 91.348015 228.93391 108.26432 Q 201.86784 121.797356 174.80176 108.26432 Q 148.86343 91.348015 147.73569 60.898678 L 147.73569 60.898678 Z M 57.51542 124.052864 L 57.51542 358.62555 L 57.51542 124.052864 L 57.51542 358.62555 Q 58.643173 400.35242 86.837006 428.54626 Q 115.03084 456.74008 156.7577 457.86783 L 283.06607 457.86783 L 283.06607 457.86783 Q 290.96036 458.9956 292.0881 466.88986 Q 290.96036 474.78415 283.06607 475.9119 L 156.7577 475.9119 L 156.7577 475.9119 Q 107.136566 474.78415 73.30396 442.07928 Q 40.599117 408.2467 39.471367 358.62555 L 39.471367 124.052864 L 39.471367 124.052864 Q 40.599117 116.15859 48.493393 115.03084 Q 56.387665 116.15859 57.51542 124.052864 L 57.51542 124.052864 Z" />
</svg>