<svg xmlns="http://www.w3.org/2000/svg" viewBox="0 0 512 512">
  <path d="M 136 56 Q 137 32 152 16 L 152 16 L 152 16 Q 168 1 192 0 Q 228 2 243 34 Q 250 32 256 32 Q 292 34 307 66 Q 314 64 320 64 Q 356 66 371 98 Q 378 96 384 96 Q 408 97 424 112 Q 439 128 440 152 L 440 256 L 440 256 Q 440 291 424 321 Q 408 350 380 369 Q 376 372 376 376 L 376 504 L 376 504 Q 375 511 368 512 Q 361 511 360 504 L 360 376 L 360 376 Q 361 363 371 355 Q 395 339 410 313 Q 424 287 424 256 L 424 152 L 424 152 Q 424 135 412 124 Q 401 112 384 112 Q 376 112 369 115 Q 366 116 363 115 Q 360 113 359 109 Q 350 82 320 80 Q 312 80 305 83 Q 302 84 299 83 Q 296 81 295 77 Q 286 50 256 48 Q 248 48 241 51 Q 238 52 235 51 Q 232 49 231 45 Q 222 18 192 16 Q 175 16 164 28 Q 152 39 152 56 L 152 120 L 152 120 Q 152 120 152 120 Q 152 120 152 120 L 152 216 L 152 216 Q 151 223 144 224 Q 137 223 136 216 L 136 139 L 136 139 L 104 171 L 104 171 Q 88 187 88 211 L 88 256 L 88 256 Q 89 293 110 320 Q 131 347 165 356 Q 182 362 184 381 L 184 504 L 184 504 Q 183 511 176 512 Q 169 511 168 504 L 168 381 L 168 381 Q 168 374 160 372 Q 121 361 97 329 Q 73 298 72 256 L 72 211 L 72 211 Q 72 181 93 160 L 136 117 L 136 117 L 136 56 L 136 56 Z" />
</svg>