<svg xmlns="http://www.w3.org/2000/svg" viewBox="0 0 512 512">
  <path d="M 11.925465838509316 54.06211180124224 Q 7.15527950310559 50.88198757763975 3.1801242236024843 54.857142857142854 Q 0 59.62732919254658 3.9751552795031055 63.60248447204969 L 500.0745341614907 457.9378881987578 L 500.0745341614907 457.9378881987578 Q 504.8447204968944 461.11801242236027 508.8198757763975 457.14285714285717 Q 512 452.3726708074534 508.0248447204969 448.3975155279503 L 11.925465838509316 54.06211180124224 L 11.925465838509316 54.06211180124224 Z M 459.527950310559 256 Q 459.527950310559 218.6335403726708 443.6273291925466 187.6273291925466 L 443.6273291925466 187.6273291925466 L 443.6273291925466 187.6273291925466 Q 427.72670807453414 155.82608695652175 399.9006211180124 135.1552795031056 Q 395.1304347826087 131.9751552795031 391.1552795031056 135.9503105590062 Q 387.9751552795031 140.72049689440993 391.9503105590062 144.69565217391303 Q 417.39130434782606 164.57142857142858 431.70186335403724 193.19254658385094 Q 446.8074534161491 221.8136645962733 446.8074534161491 256 Q 446.8074534161491 291.77639751552795 430.90683229813664 321.1925465838509 L 441.2422360248447 329.14285714285717 L 441.2422360248447 329.14285714285717 Q 458.7329192546584 295.75155279503105 459.527950310559 256 L 459.527950310559 256 Z M 281.44099378881987 101.7639751552795 Q 281.44099378881987 91.42857142857143 274.2857142857143 85.06832298136646 L 274.2857142857143 85.06832298136646 L 274.2857142857143 85.06832298136646 Q 267.9254658385093 77.91304347826087 257.5900621118012 77.91304347826087 Q 248.8447204968944 77.91304347826087 241.68944099378882 84.27329192546584 L 189.2173913043478 130.38509316770185 L 189.2173913043478 130.38509316770185 L 199.5527950310559 138.33540372670808 L 199.5527950310559 138.33540372670808 L 250.43478260869566 93.8136645962733 L 250.43478260869566 93.8136645962733 Q 253.61490683229815 90.63354037267081 257.5900621118012 90.63354037267081 Q 267.9254658385093 91.42857142857143 268.72049689440996 101.7639751552795 L 268.72049689440996 193.19254658385094 L 268.72049689440996 193.19254658385094 L 281.44099378881987 203.527950310559 L 281.44099378881987 203.527950310559 L 281.44099378881987 101.7639751552795 L 281.44099378881987 101.7639751552795 Z M 71.5527950310559 192.3975155279503 L 83.47826086956522 192.3975155279503 L 71.5527950310559 192.3975155279503 L 83.47826086956522 192.3975155279503 L 67.5776397515528 179.67701863354037 L 67.5776397515528 179.67701863354037 Q 50.08695652173913 182.06211180124222 38.95652173913044 193.98757763975155 Q 27.82608695652174 206.70807453416148 27.03105590062112 224.19875776397515 L 27.03105590062112 287.80124223602485 L 27.03105590062112 287.80124223602485 Q 27.82608695652174 306.88198757763973 39.75155279503105 319.6024844720497 Q 52.47204968944099 331.527950310559 71.5527950310559 332.3229813664596 L 134.36024844720498 332.3229813664596 L 134.36024844720498 332.3229813664596 L 241.68944099378882 428.5217391304348 L 241.68944099378882 428.5217391304348 Q 248.8447204968944 434.0869565217391 257.5900621118012 434.0869565217391 Q 267.9254658385093 434.0869565217391 274.2857142857143 426.93167701863354 Q 281.44099378881987 420.57142857142856 281.44099378881987 410.2360248447205 L 281.44099378881987 349.01863354037266 L 281.44099378881987 349.01863354037266 L 268.72049689440996 338.6832298136646 L 268.72049689440996 338.6832298136646 L 268.72049689440996 410.2360248447205 L 268.72049689440996 410.2360248447205 Q 267.9254658385093 420.57142857142856 257.5900621118012 421.3664596273292 Q 253.61490683229815 421.3664596273292 250.43478260869566 418.98136645962734 L 140.72049689440993 321.1925465838509 L 140.72049689440993 321.1925465838509 Q 139.1304347826087 319.6024844720497 136.74534161490683 319.6024844720497 L 71.5527950310559 319.6024844720497 L 71.5527950310559 319.6024844720497 Q 58.037267080745345 319.6024844720497 49.29192546583851 310.0621118012422 Q 39.75155279503105 301.3167701863354 39.75155279503105 287.80124223602485 L 39.75155279503105 224.19875776397515 L 39.75155279503105 224.19875776397515 Q 39.75155279503105 210.6832298136646 49.29192546583851 201.93788819875778 Q 58.037267080745345 192.3975155279503 71.5527950310559 192.3975155279503 L 71.5527950310559 192.3975155279503 Z M 370.48447204968943 256 Q 370.48447204968943 263.9503105590062 368.8944099378882 271.9006211180124 L 379.2298136645963 280.64596273291926 L 379.2298136645963 280.64596273291926 Q 383.2049689440994 268.72049689440996 383.2049689440994 256 Q 381.6149068322981 217.04347826086956 352.99378881987576 194.7826086956522 Q 348.22360248447205 191.6024844720497 344.24844720496895 196.3726708074534 Q 341.06832298136646 201.14285714285714 345.04347826086956 205.11801242236024 Q 369.6894409937888 223.40372670807454 370.48447204968943 256 L 370.48447204968943 256 Z" />
</svg>