<svg xmlns="http://www.w3.org/2000/svg" viewBox="0 0 512 512">
  <path d="M 472.8 138.4 Q 472 145.6 477.6 150.4 Q 498.4 165.6 499.2 192 Q 498.4 213.6 484 228 Q 469.6 242.4 448 243.2 L 371.2 243.2 L 371.2 243.2 Q 349.6 242.4 335.2 228 Q 320.8 213.6 320 192 Q 320.8 165.6 341.6 150.4 Q 347.2 145.6 346.4 138.4 Q 345.6 132.8 345.6 128 Q 346.4 100.8 364 82.4 Q 382.4 64.8 409.6 64 Q 436.8 64.8 455.2 82.4 Q 472.8 100.8 473.6 128 Q 473.6 132.8 472.8 138.4 L 472.8 138.4 Z M 485.6 140 Q 486.4 134.4 486.4 128 Q 485.6 95.2 464 73.6 Q 442.4 52 409.6 51.2 Q 376.8 52 355.2 73.6 Q 333.6 95.2 332.8 128 Q 332.8 134.4 333.6 140 Q 308.8 158.4 307.2 192 Q 308 219.2 325.6 237.6 Q 344 255.2 371.2 256 L 403.2 256 L 403.2 256 L 403.2 454.4 L 403.2 454.4 Q 404 460 409.6 460.8 Q 415.2 460 416 454.4 L 416 256 L 416 256 L 448 256 L 448 256 Q 475.2 255.2 493.6 237.6 Q 511.2 219.2 512 192 Q 510.4 158.4 485.6 140 L 485.6 140 Z M 51.2 217.6 L 256 217.6 L 51.2 217.6 L 256 217.6 Q 268 218.4 268.8 230.4 L 268.8 281.6 L 268.8 281.6 Q 268 293.6 256 294.4 L 243.2 294.4 L 51.2 294.4 Q 39.2 293.6 38.4 281.6 L 38.4 230.4 L 38.4 230.4 Q 39.2 218.4 51.2 217.6 L 51.2 217.6 Z M 57.6 307.2 L 57.6 358.4 L 57.6 307.2 L 57.6 358.4 L 38.4 358.4 L 6.4 358.4 Q 0.8 359.2 0 364.8 Q 0.8 370.4 6.4 371.2 L 32 371.2 L 32 371.2 L 32 454.4 L 32 454.4 Q 32.8 460 38.4 460.8 Q 44 460 44.8 454.4 L 44.8 371.2 L 44.8 371.2 L 64 371.2 L 262.4 371.2 L 262.4 454.4 L 262.4 454.4 Q 263.2 460 268.8 460.8 Q 274.4 460 275.2 454.4 L 275.2 371.2 L 275.2 371.2 L 300.8 371.2 L 300.8 371.2 Q 306.4 370.4 307.2 364.8 Q 306.4 359.2 300.8 358.4 L 268.8 358.4 L 249.6 358.4 L 249.6 307.2 L 249.6 307.2 L 256 307.2 L 256 307.2 Q 267.2 307.2 274.4 300 Q 281.6 292.8 281.6 281.6 L 281.6 230.4 L 281.6 230.4 Q 281.6 219.2 274.4 212 Q 267.2 204.8 256 204.8 L 51.2 204.8 L 51.2 204.8 Q 40 204.8 32.8 212 Q 25.6 219.2 25.6 230.4 L 25.6 281.6 L 25.6 281.6 Q 25.6 292.8 32.8 300 Q 40 307.2 51.2 307.2 L 57.6 307.2 L 57.6 307.2 Z M 236.8 307.2 L 236.8 358.4 L 236.8 307.2 L 236.8 358.4 L 70.4 358.4 L 70.4 358.4 L 70.4 307.2 L 70.4 307.2 L 236.8 307.2 L 236.8 307.2 Z" />
</svg>