<svg xmlns="http://www.w3.org/2000/svg" viewBox="0 0 512 512">
  <path d="M 18.703196 232.03653 Q 18.703196 254.24658 35.068493 270.61188 L 240.80365 476.34705 L 240.80365 476.34705 Q 258.3379 492.71234 280.54794 492.71234 Q 302.758 492.71234 320.29224 476.34705 L 475.76254 320.8767 L 475.76254 320.8767 Q 492.12787 303.34247 492.12787 281.13242 Q 492.12787 258.92236 475.76254 241.38812 L 270.0274 35.65297 L 270.0274 35.65297 Q 253.6621 19.287672 231.45206 19.287672 L 56.10959 19.287672 L 56.10959 19.287672 Q 39.744293 19.287672 29.223743 29.80822 Q 18.703196 40.328766 18.703196 56.694065 L 18.703196 232.03653 L 18.703196 232.03653 Z M 0 232.03653 L 0 56.694065 L 0 232.03653 L 0 56.694065 Q 1.1689497 33.315067 16.365297 16.949772 Q 32.730595 1.7534246 56.10959 0.58447486 L 231.45206 0.58447486 L 231.45206 0.58447486 Q 261.84476 0.58447486 284.0548 22.794521 L 489.78995 228.52968 L 489.78995 228.52968 Q 512 250.73973 512 281.13242 Q 512 310.35617 489.78995 333.73517 L 333.1507 490.37442 L 333.1507 490.37442 Q 310.94064 511.41553 280.54794 511.41553 Q 251.3242 511.41553 227.9452 490.37442 L 22.210045 284.63928 L 22.210045 284.63928 Q 0 262.42923 0 232.03653 L 0 232.03653 Z M 130.92238 84.748856 Q 157.80821 85.91781 171.83562 108.12785 Q 183.52512 131.50685 171.83562 154.88585 Q 157.80821 177.09589 130.92238 178.26485 Q 104.03653 177.09589 90.00913 154.88585 Q 78.31963 131.50685 90.00913 108.12785 Q 104.03653 85.91781 130.92238 84.748856 L 130.92238 84.748856 Z M 158.97717 131.50685 Q 156.63927 105.789955 130.92238 103.45206 Q 105.20548 105.789955 102.86758 131.50685 Q 105.20548 157.22374 130.92238 159.56165 Q 156.63927 157.22374 158.97717 131.50685 L 158.97717 131.50685 Z" />
</svg>