<svg xmlns="http://www.w3.org/2000/svg" viewBox="0 0 576 448">
    <path d="M 512 16 Q 532 17 546 30 L 546 30 Q 559 44 560 64 L 560 82 L 555 85 L 369 222 Q 354 233 336 233 Q 318 233 303 222 L 117 85 L 112 82 L 112 64 Q 113 44 126 30 Q 140 17 160 16 L 512 16 L 512 16 Z M 112 288 L 112 102 L 293 235 Q 313 249 336 249 Q 359 249 379 235 L 560 102 L 560 288 Q 559 308 546 322 Q 532 335 512 336 L 160 336 Q 140 335 126 322 Q 113 308 112 288 L 112 288 Z M 160 0 Q 133 1 115 19 L 115 19 Q 97 37 96 64 L 96 288 Q 97 315 115 333 Q 133 351 160 352 L 512 352 Q 539 351 557 333 Q 575 315 576 288 L 576 64 Q 575 37 557 19 Q 539 1 512 0 L 160 0 L 160 0 Z M 0 160 L 0 384 Q 1 411 19 429 Q 37 447 64 448 L 416 448 Q 443 447 461 429 Q 479 411 480 384 L 464 384 Q 463 404 450 418 Q 436 431 416 432 L 64 432 Q 44 431 30 418 Q 17 404 16 384 L 16 160 Q 17 140 30 126 Q 44 113 64 112 L 64 96 Q 37 97 19 115 Q 1 133 0 160 L 0 160 Z"/>
</svg>
