<svg xmlns="http://www.w3.org/2000/svg" viewBox="0 0 448 512">
    <path d="M 120 0 L 119 0 L 104 0 L 88 0 Q 71 0 60 12 Q 48 23 48 40 L 48 187 Q 48 198 42 207 L 8 265 Q 0 278 0 293 L 0 464 Q 0 464 0 464 Q 0 464 0 464 L 0 472 Q 0 489 12 500 Q 23 512 40 512 L 176 512 Q 170 505 167 496 L 40 496 Q 18 494 16 472 L 16 468 L 125 366 Q 130 360 126 355 Q 120 350 115 354 L 16 446 L 16 293 Q 16 282 22 273 L 56 216 Q 64 202 64 187 L 64 40 Q 66 18 88 16 L 104 16 L 119 16 Q 130 17 134 26 L 195 189 L 203 166 L 157 40 Q 176 61 224 64 Q 270 62 290 42 L 196 277 Q 192 287 192 297 L 192 472 Q 192 489 204 500 Q 215 512 232 512 L 408 512 Q 425 512 436 500 Q 448 489 448 472 L 448 464 Q 448 464 448 464 Q 448 464 448 464 L 448 293 Q 448 278 440 265 L 406 207 Q 400 198 400 187 L 400 40 Q 400 23 388 12 Q 377 0 360 0 L 344 0 L 328 0 L 328 0 Q 301 3 287 22 Q 280 31 264 39 Q 249 47 224 48 Q 199 47 184 39 Q 168 31 161 22 Q 146 3 120 0 L 120 0 Z M 432 446 L 333 354 Q 328 350 322 355 Q 318 360 323 366 L 432 468 L 432 472 Q 430 494 408 496 L 232 496 Q 210 494 208 472 L 208 297 Q 208 290 211 282 L 313 26 Q 318 16 328 16 L 344 16 L 360 16 Q 382 18 384 40 L 384 187 Q 384 202 392 216 L 426 273 Q 432 282 432 293 L 432 446 L 432 446 Z"/>
</svg>
