<svg xmlns="http://www.w3.org/2000/svg" viewBox="0 0 644 516">
    <path d="M 15 4 Q 9 0 4 5 Q 0 11 5 16 L 629 512 Q 635 516 640 511 Q 644 505 639 500 L 15 4 L 15 4 Z M 418 205 L 418 177 L 418 130 Q 417 103 399 85 Q 381 67 354 66 L 182 66 L 202 82 L 354 82 Q 374 83 388 96 Q 401 110 402 130 L 402 205 L 402 240 L 418 252 L 418 205 L 418 205 Z M 50 130 Q 50 127 50 125 L 36 114 Q 34 122 34 130 L 34 386 Q 35 413 53 431 Q 71 449 98 450 L 354 450 Q 396 448 413 411 L 400 401 Q 388 432 354 434 L 98 434 Q 78 433 64 420 Q 51 406 50 386 L 50 130 L 50 130 Z M 594 380 Q 594 385 592 389 L 605 400 Q 610 391 610 380 L 610 136 Q 610 120 599 109 Q 588 98 572 98 Q 562 98 553 103 L 450 160 L 450 178 L 561 117 Q 566 114 572 114 Q 592 116 594 136 L 594 380 L 594 380 Z"/>
</svg>
