<svg xmlns="http://www.w3.org/2000/svg" viewBox="0 0 512 512">
  <path d="M 496 144 Q 494 206 449 243 Q 416 269 406 311 Q 398 349 382 383 Q 366 417 344 440 Q 285 496 208 496 Q 131 496 72 440 Q 16 381 16 304 Q 16 227 72 168 Q 95 146 129 130 Q 163 114 201 106 Q 243 96 269 63 Q 306 18 368 16 Q 422 17 459 53 Q 495 90 496 144 L 496 144 Z M 421 314 Q 430 279 459 255 Q 510 213 512 144 Q 510 83 470 42 Q 429 2 368 0 Q 299 2 257 53 Q 233 82 198 91 Q 158 99 122 116 Q 86 133 61 157 Q 0 221 0 304 Q 0 387 61 451 Q 125 512 208 512 Q 291 512 355 451 Q 379 426 397 390 Q 414 354 421 315 L 421 314 Z M 171 235 Q 202 205 237 201 L 237 201 L 237 201 Q 271 197 294 218 Q 315 241 311 275 Q 307 310 278 342 Q 246 371 211 375 Q 177 379 154 358 Q 133 335 137 301 Q 141 266 171 235 L 171 235 Z M 305 207 Q 276 179 235 185 L 235 185 L 235 185 Q 193 190 159 223 Q 126 257 121 299 Q 115 340 143 369 Q 172 397 213 391 Q 255 386 289 353 Q 322 319 327 277 Q 333 236 305 207 L 305 207 Z" />
</svg>