<svg xmlns="http://www.w3.org/2000/svg" viewBox="0 0 512 512">
  <path d="M 154.4 296 L 89.6 344.8 L 154.4 296 L 89.6 344.8 L 89.6 306.4 L 89.6 306.4 Q 88.8 294.4 76.8 293.6 L 51.2 293.6 L 51.2 293.6 Q 35.2 292.8 24 282.4 Q 13.6 271.2 12.8 255.2 L 12.8 101.6 L 12.8 101.6 Q 13.6 85.6 24 74.4 Q 35.2 64 51.2 63.2 L 281.6 63.2 L 281.6 63.2 Q 297.6 64 308.8 74.4 Q 319.2 85.6 320 101.6 L 320 255.2 L 320 255.2 Q 319.2 271.2 308.8 282.4 Q 297.6 292.8 281.6 293.6 L 162.4 293.6 L 162.4 293.6 Q 157.6 293.6 154.4 296 L 154.4 296 Z M 162.4 306.4 L 281.6 306.4 L 162.4 306.4 L 281.6 306.4 Q 303.2 305.6 317.6 291.2 Q 332 276.8 332.8 255.2 L 332.8 101.6 L 332.8 101.6 Q 332 80 317.6 65.6 Q 303.2 51.2 281.6 50.4 L 51.2 50.4 L 51.2 50.4 Q 29.6 51.2 15.2 65.6 Q 0.8 80 0 101.6 L 0 255.2 L 0 255.2 Q 0.8 276.8 15.2 291.2 Q 29.6 305.6 51.2 306.4 L 64 306.4 L 76.8 306.4 L 76.8 319.2 L 76.8 319.2 L 76.8 344.8 L 76.8 344.8 Q 76.8 352.8 84 356 Q 91.2 359.2 97.6 355.2 L 162.4 306.4 L 162.4 306.4 Z M 204.8 357.6 Q 205.6 379.2 220 393.6 L 220 393.6 L 220 393.6 Q 234.4 408 256 408.8 L 349.6 408.8 L 349.6 408.8 L 414.4 457.6 L 414.4 457.6 Q 420.8 461.6 428 458.4 Q 435.2 455.2 435.2 447.2 L 435.2 421.6 L 435.2 421.6 L 435.2 408.8 L 435.2 408.8 L 448 408.8 L 460.8 408.8 Q 482.4 408 496.8 393.6 Q 511.2 379.2 512 357.6 L 512 204 L 512 204 Q 511.2 182.4 496.8 168 Q 482.4 153.6 460.8 152.8 L 358.4 152.8 L 358.4 152.8 L 358.4 165.6 L 358.4 165.6 L 460.8 165.6 L 460.8 165.6 Q 476.8 166.4 488 176.8 Q 498.4 188 499.2 204 L 499.2 357.6 L 499.2 357.6 Q 498.4 373.6 488 384.8 Q 476.8 395.2 460.8 396 L 435.2 396 L 435.2 396 Q 423.2 396.8 422.4 408.8 L 422.4 447.2 L 422.4 447.2 L 357.6 398.4 L 357.6 398.4 Q 354.4 396 349.6 396 L 256 396 L 256 396 Q 240 395.2 228.8 384.8 Q 218.4 373.6 217.6 357.6 L 217.6 332 L 217.6 332 L 204.8 332 L 204.8 332 L 204.8 357.6 L 204.8 357.6 Z M 114.4 150.4 L 114.4 154.4 L 114.4 150.4 L 114.4 154.4 Q 115.2 160 120.8 160.8 Q 127.2 160 127.2 154.4 L 127.2 150.4 L 127.2 150.4 Q 129.6 131.2 148 129.6 L 180 129.6 L 180 129.6 Q 190.4 129.6 197.6 136.8 Q 204.8 144 205.6 155.2 Q 204.8 168 193.6 176 L 163.2 196 L 163.2 196 Q 160 198.4 160 201.6 L 160 218.4 L 160 218.4 Q 160.8 224 166.4 224.8 Q 172 224 172.8 218.4 L 172.8 204.8 L 172.8 204.8 L 200.8 186.4 L 200.8 186.4 Q 217.6 175.2 218.4 154.4 Q 217.6 138.4 207.2 128 Q 196 116.8 180 116.8 L 148 116.8 L 148 116.8 Q 133.6 116.8 124.8 126.4 Q 115.2 136 114.4 150.4 L 114.4 150.4 Z M 175.2 245.6 Q 174.4 237.6 166.4 236.8 Q 158.4 237.6 157.6 245.6 Q 158.4 253.6 166.4 254.4 Q 174.4 253.6 175.2 245.6 L 175.2 245.6 Z" />
</svg>