<svg xmlns="http://www.w3.org/2000/svg" viewBox="0 0 512 514">
    <path d="M 228 3 Q 221 0 217 6 Q 214 13 220 17 L 220 17 Q 220 17 220 17 Q 220 17 220 17 L 220 17 L 220 17 Q 220 17 220 17 Q 220 17 220 17 L 220 17 L 221 17 Q 221 17 221 17 Q 221 17 222 18 Q 222 18 222 18 Q 224 19 226 21 Q 232 26 239 37 Q 249 52 251 84 Q 163 85 94 123 Q 78 133 82 150 Q 87 167 105 168 L 129 169 L 118 187 Q 110 202 120 216 Q 133 228 149 221 L 256 171 L 363 221 Q 379 228 391 216 Q 402 202 393 187 L 382 169 L 407 169 Q 424 168 430 151 Q 433 133 418 124 Q 351 87 267 84 Q 265 48 253 29 Q 244 15 236 9 Q 233 6 230 4 Q 230 4 229 4 Q 229 4 228 3 Q 228 3 228 3 L 228 3 L 227 3 L 227 3 L 227 3 Q 228 1 224 10 L 227 3 L 228 3 Z M 251 100 Q 250 110 248 121 Q 247 128 255 130 Q 262 131 264 124 Q 266 111 267 101 Q 347 103 411 138 Q 416 141 414 147 Q 413 153 407 153 L 368 153 Q 363 153 361 157 Q 359 161 361 165 L 379 196 Q 382 201 379 205 Q 374 209 369 207 L 259 155 Q 256 154 252 155 L 142 207 Q 136 209 132 205 Q 129 201 131 196 L 150 165 Q 152 161 150 157 Q 148 153 143 153 L 105 152 Q 99 152 97 146 Q 96 141 101 137 Q 167 102 251 100 L 251 100 Z M 220 17 L 220 17 L 220 17 Q 220 17 220 17 Q 220 17 220 17 L 220 17 Z M 220 17 L 220 17 L 220 17 Q 220 17 220 17 Q 220 17 220 17 L 220 17 Z M 62 186 Q 17 233 16 306 Q 18 397 85 446 Q 152 497 256 498 Q 360 497 427 446 Q 494 397 496 306 Q 495 233 450 186 Q 455 180 459 172 Q 510 224 512 306 Q 509 405 437 459 Q 365 513 256 514 Q 147 513 75 459 Q 3 405 0 306 Q 2 224 53 172 Q 54 174 54 175 Q 58 181 62 186 L 62 186 Z"/>
</svg>
