<svg xmlns="http://www.w3.org/2000/svg" viewBox="0 0 512 512">
  <path d="M 43.48717948717949 91.07692307692308 L 16.41025641025641 159.17948717948718 L 43.48717948717949 91.07692307692308 L 16.41025641025641 159.17948717948718 Q 13.128205128205128 171.48717948717947 25.435897435897434 176.4102564102564 L 163.28205128205127 212.51282051282053 L 163.28205128205127 212.51282051282053 Q 176.4102564102564 214.97435897435898 184.6153846153846 204.30769230769232 L 244.51282051282053 114.05128205128206 L 244.51282051282053 114.05128205128206 L 50.87179487179487 86.97435897435898 L 50.87179487179487 86.97435897435898 Q 45.94871794871795 86.15384615384616 43.48717948717949 91.07692307692308 L 43.48717948717949 91.07692307692308 Z M 52.51282051282051 73.84615384615384 L 256 102.56410256410257 L 52.51282051282051 73.84615384615384 L 256 102.56410256410257 L 459.4871794871795 73.84615384615384 L 459.4871794871795 73.84615384615384 Q 474.2564102564103 72.2051282051282 480.8205128205128 86.15384615384616 L 507.8974358974359 154.25641025641025 L 507.8974358974359 154.25641025641025 Q 512 165.74358974358975 507.0769230769231 175.5897435897436 Q 501.3333333333333 185.43589743589743 489.84615384615387 189.53846153846155 L 352 224.82051282051282 L 352 224.82051282051282 Q 330.6666666666667 229.74358974358975 316.71794871794873 211.69230769230768 L 256 121.43589743589743 L 256 121.43589743589743 L 195.28205128205127 211.69230769230768 L 195.28205128205127 211.69230769230768 Q 182.15384615384616 229.74358974358975 160 224.82051282051282 L 22.153846153846153 189.53846153846155 L 22.153846153846153 189.53846153846155 Q 10.666666666666666 185.43589743589743 4.923076923076923 175.5897435897436 Q 0 165.74358974358975 4.102564102564102 154.25641025641025 L 32 86.15384615384616 L 32 86.15384615384616 Q 37.743589743589745 72.2051282051282 52.51282051282051 73.84615384615384 L 52.51282051282051 73.84615384615384 Z M 452.9230769230769 223.17948717948718 L 466.05128205128204 219.89743589743588 L 452.9230769230769 223.17948717948718 L 466.05128205128204 219.89743589743588 L 466.05128205128204 356.9230769230769 L 466.05128205128204 356.9230769230769 Q 466.05128205128204 370.05128205128204 457.84615384615387 380.71794871794873 Q 449.64102564102564 391.38461538461536 436.5128205128205 394.6666666666667 L 265.84615384615387 437.3333333333333 L 265.84615384615387 437.3333333333333 Q 256 439.79487179487177 246.15384615384616 437.3333333333333 L 75.48717948717949 394.6666666666667 L 75.48717948717949 394.6666666666667 Q 62.35897435897436 391.38461538461536 54.15384615384615 380.71794871794873 Q 45.94871794871795 370.05128205128204 45.94871794871795 356.9230769230769 L 45.94871794871795 219.89743589743588 L 45.94871794871795 219.89743589743588 L 59.07692307692308 223.17948717948718 L 59.07692307692308 223.17948717948718 L 59.07692307692308 356.9230769230769 L 59.07692307692308 356.9230769230769 Q 59.8974358974359 375.79487179487177 78.76923076923077 382.35897435897436 L 249.43589743589743 425.02564102564105 L 249.43589743589743 425.02564102564105 L 249.43589743589743 210.05128205128204 L 249.43589743589743 210.05128205128204 Q 250.25641025641025 204.30769230769232 256 203.48717948717947 Q 261.7435897435897 204.30769230769232 262.56410256410254 210.05128205128204 L 262.56410256410254 425.02564102564105 L 262.56410256410254 425.02564102564105 L 433.2307692307692 382.35897435897436 L 433.2307692307692 382.35897435897436 Q 452.1025641025641 375.79487179487177 452.9230769230769 356.9230769230769 L 452.9230769230769 223.17948717948718 L 452.9230769230769 223.17948717948718 Z M 461.12820512820514 86.97435897435898 L 267.4871794871795 114.05128205128206 L 461.12820512820514 86.97435897435898 L 267.4871794871795 114.05128205128206 L 327.38461538461536 204.30769230769232 L 327.38461538461536 204.30769230769232 Q 335.5897435897436 214.97435897435898 348.71794871794873 212.51282051282053 L 486.56410256410254 176.4102564102564 L 486.56410256410254 176.4102564102564 Q 498.87179487179486 171.48717948717947 495.5897435897436 159.17948717948718 L 468.5128205128205 91.07692307692308 L 468.5128205128205 91.07692307692308 Q 466.05128205128204 86.15384615384616 461.12820512820514 86.97435897435898 L 461.12820512820514 86.97435897435898 Z" />
</svg>