<svg xmlns="http://www.w3.org/2000/svg" viewBox="0 0 512 512">
  <path d="M 269.2667946257198 23.09404990403071 Q 275.16314779270635 19.163147792706333 281.0595009596929 23.09404990403071 Q 284.9904030710173 28.990403071017276 281.0595009596929 34.88675623800384 L 207.35508637236086 107.6084452975048 L 207.35508637236086 107.6084452975048 L 432.3992322456814 107.6084452975048 L 432.3992322456814 107.6084452975048 Q 462.8637236084453 108.5911708253359 482.51823416506716 128.24568138195778 Q 502.17274472168907 147.90019193857967 503.15547024952014 178.36468330134358 L 503.15547024952014 233.39731285988483 L 503.15547024952014 233.39731285988483 Q 502.17274472168907 240.27639155470249 495.2936660268714 241.25911708253358 Q 488.41458733205377 240.27639155470249 487.43186180422265 233.39731285988483 L 487.43186180422265 178.36468330134358 L 487.43186180422265 178.36468330134358 Q 486.4491362763915 154.77927063339732 471.70825335892516 139.0556621880998 Q 455.9846449136276 124.3147792706334 432.3992322456814 123.3320537428023 L 207.35508637236086 123.3320537428023 L 207.35508637236086 123.3320537428023 L 281.0595009596929 196.05374280230328 L 281.0595009596929 196.05374280230328 Q 284.9904030710173 201.95009596928983 281.0595009596929 207.8464491362764 Q 275.16314779270635 211.77735124760076 269.2667946257198 207.8464491362764 L 182.78694817658348 121.36660268714012 L 182.78694817658348 121.36660268714012 Q 178.8560460652591 115.47024952015354 182.78694817658348 109.57389635316699 L 269.2667946257198 23.09404990403071 L 269.2667946257198 23.09404990403071 Z M 233.8886756238004 274.6717850287908 L 320.3685220729367 361.1516314779271 L 233.8886756238004 274.6717850287908 L 320.3685220729367 361.1516314779271 Q 324.29942418426106 367.04798464491364 320.3685220729367 372.9443378119002 L 233.8886756238004 459.4241842610365 L 233.8886756238004 459.4241842610365 Q 227.9923224568138 463.35508637236086 222.09596928982725 459.4241842610365 Q 218.16506717850288 453.52783109404993 222.09596928982725 447.6314779270633 L 295.80038387715933 374.9097888675624 L 295.80038387715933 374.9097888675624 L 70.75623800383877 374.9097888675624 L 70.75623800383877 374.9097888675624 Q 47.170825335892516 375.89251439539345 31.44721689059501 390.63339731285987 Q 16.706333973128597 406.3570057581574 15.723608445297504 429.94241842610364 L 15.723608445297504 484.9750479846449 L 15.723608445297504 484.9750479846449 Q 14.740882917466411 491.8541266794626 7.861804222648752 492.83685220729365 Q 0.982725527831094 491.8541266794626 0 484.9750479846449 L 0 429.94241842610364 L 0 429.94241842610364 Q 0.982725527831094 399.47792706333973 20.637236084452976 379.8234165067179 Q 40.29174664107486 360.16890595009596 70.75623800383877 359.1861804222649 L 295.80038387715933 359.1861804222649 L 295.80038387715933 359.1861804222649 L 222.09596928982725 286.4644913627639 L 222.09596928982725 286.4644913627639 Q 218.16506717850288 280.56813819577735 222.09596928982725 274.6717850287908 Q 227.9923224568138 270.7408829174664 233.8886756238004 274.6717850287908 L 233.8886756238004 274.6717850287908 Z M 440.26103646833013 414.21880998080616 Q 466.79462571976967 413.23608445297504 481.5355086372361 390.63339731285987 Q 493.3282149712092 367.04798464491364 481.5355086372361 343.46257197696735 Q 466.79462571976967 320.8598848368522 440.26103646833013 319.8771593090211 Q 413.7274472168906 320.8598848368522 398.9865642994242 343.46257197696735 Q 387.19385796545106 367.04798464491364 398.9865642994242 390.63339731285987 Q 413.7274472168906 413.23608445297504 440.26103646833013 414.21880998080616 L 440.26103646833013 414.21880998080616 Z M 440.26103646833013 304.1535508637236 Q 475.63915547024953 305.1362763915547 494.3109404990403 335.6007677543186 Q 512 367.04798464491364 494.3109404990403 398.4952015355086 Q 475.63915547024953 428.9596928982726 440.26103646833013 429.94241842610364 Q 404.88291746641073 428.9596928982726 386.21113243761994 398.4952015355086 Q 368.52207293666027 367.04798464491364 386.21113243761994 335.6007677543186 Q 404.88291746641073 305.1362763915547 440.26103646833013 304.1535508637236 L 440.26103646833013 304.1535508637236 Z M 15.723608445297504 115.47024952015354 Q 16.706333973128597 142.00383877159308 39.30902111324376 156.7447216890595 Q 62.89443378119002 168.53742802303262 86.47984644913628 156.7447216890595 Q 109.08253358925144 142.00383877159308 110.06525911708253 115.47024952015354 Q 109.08253358925144 88.93666026871401 86.47984644913628 74.1957773512476 Q 62.89443378119002 62.40307101727447 39.30902111324376 74.1957773512476 Q 16.706333973128597 88.93666026871401 15.723608445297504 115.47024952015354 L 15.723608445297504 115.47024952015354 Z M 125.78886756238003 115.47024952015354 Q 124.80614203454894 150.84836852207295 94.34165067178503 169.5201535508637 Q 62.89443378119002 187.2092130518234 31.44721689059501 169.5201535508637 Q 0.982725527831094 150.84836852207295 0 115.47024952015354 Q 0.982725527831094 80.09213051823417 31.44721689059501 61.42034548944338 Q 62.89443378119002 43.731285988483684 94.34165067178503 61.42034548944338 Q 124.80614203454894 80.09213051823417 125.78886756238003 115.47024952015354 L 125.78886756238003 115.47024952015354 Z" />
</svg>