<svg xmlns="http://www.w3.org/2000/svg" viewBox="0 0 512 512">
  <path d="M 146.28571428571428 18.285714285714285 L 146.28571428571428 109.71428571428571 L 146.28571428571428 18.285714285714285 L 146.28571428571428 109.71428571428571 L 246.85714285714286 109.71428571428571 L 365.7142857142857 109.71428571428571 L 365.7142857142857 18.285714285714285 L 365.7142857142857 18.285714285714285 L 146.28571428571428 18.285714285714285 L 146.28571428571428 18.285714285714285 Z M 128 109.71428571428571 L 128 18.285714285714285 L 128 109.71428571428571 L 128 18.285714285714285 L 73.14285714285714 18.285714285714285 L 73.14285714285714 18.285714285714285 Q 50.285714285714285 19.428571428571427 34.285714285714285 34.285714285714285 Q 19.428571428571427 50.285714285714285 18.285714285714285 73.14285714285714 L 18.285714285714285 109.71428571428571 L 18.285714285714285 109.71428571428571 L 128 109.71428571428571 L 128 109.71428571428571 Z M 18.285714285714285 128 L 18.285714285714285 246.85714285714286 L 18.285714285714285 128 L 18.285714285714285 246.85714285714286 L 246.85714285714286 246.85714285714286 L 246.85714285714286 246.85714285714286 L 246.85714285714286 128 L 246.85714285714286 128 L 18.285714285714285 128 L 18.285714285714285 128 Z M 18.285714285714285 384 L 128 384 L 18.285714285714285 384 L 128 384 L 128 265.14285714285717 L 128 265.14285714285717 L 18.285714285714285 265.14285714285717 L 18.285714285714285 265.14285714285717 L 18.285714285714285 384 L 18.285714285714285 384 Z M 18.285714285714285 402.2857142857143 L 18.285714285714285 438.85714285714283 L 18.285714285714285 402.2857142857143 L 18.285714285714285 438.85714285714283 Q 19.428571428571427 461.7142857142857 34.285714285714285 477.7142857142857 Q 50.285714285714285 492.57142857142856 73.14285714285714 493.7142857142857 L 246.85714285714286 493.7142857142857 L 246.85714285714286 493.7142857142857 L 246.85714285714286 402.2857142857143 L 246.85714285714286 402.2857142857143 L 146.28571428571428 402.2857142857143 L 18.285714285714285 402.2857142857143 Z M 146.28571428571428 384 L 365.7142857142857 384 L 146.28571428571428 384 L 365.7142857142857 384 L 365.7142857142857 265.14285714285717 L 365.7142857142857 265.14285714285717 L 146.28571428571428 265.14285714285717 L 146.28571428571428 265.14285714285717 L 146.28571428571428 384 L 146.28571428571428 384 Z M 384 384 L 493.7142857142857 384 L 384 384 L 493.7142857142857 384 L 493.7142857142857 265.14285714285717 L 493.7142857142857 265.14285714285717 L 384 265.14285714285717 L 384 265.14285714285717 L 384 384 L 384 384 Z M 493.7142857142857 402.2857142857143 L 384 402.2857142857143 L 493.7142857142857 402.2857142857143 L 265.14285714285717 402.2857142857143 L 265.14285714285717 493.7142857142857 L 265.14285714285717 493.7142857142857 L 438.85714285714283 493.7142857142857 L 438.85714285714283 493.7142857142857 Q 461.7142857142857 492.57142857142856 477.7142857142857 477.7142857142857 Q 492.57142857142856 461.7142857142857 493.7142857142857 438.85714285714283 L 493.7142857142857 402.2857142857143 L 493.7142857142857 402.2857142857143 Z M 493.7142857142857 128 L 265.14285714285717 128 L 493.7142857142857 128 L 265.14285714285717 128 L 265.14285714285717 246.85714285714286 L 265.14285714285717 246.85714285714286 L 493.7142857142857 246.85714285714286 L 493.7142857142857 246.85714285714286 L 493.7142857142857 128 L 493.7142857142857 128 Z M 493.7142857142857 109.71428571428571 L 493.7142857142857 73.14285714285714 L 493.7142857142857 109.71428571428571 L 493.7142857142857 73.14285714285714 Q 492.57142857142856 50.285714285714285 477.7142857142857 34.285714285714285 Q 461.7142857142857 19.428571428571427 438.85714285714283 18.285714285714285 L 384 18.285714285714285 L 384 18.285714285714285 L 384 109.71428571428571 L 384 109.71428571428571 L 493.7142857142857 109.71428571428571 L 493.7142857142857 109.71428571428571 Z M 0 73.14285714285714 Q 1.1428571428571428 42.285714285714285 21.714285714285715 21.714285714285715 L 21.714285714285715 21.714285714285715 L 21.714285714285715 21.714285714285715 Q 42.285714285714285 1.1428571428571428 73.14285714285714 0 L 438.85714285714283 0 L 438.85714285714283 0 Q 469.7142857142857 1.1428571428571428 490.2857142857143 21.714285714285715 Q 510.85714285714283 42.285714285714285 512 73.14285714285714 L 512 438.85714285714283 L 512 438.85714285714283 Q 510.85714285714283 469.7142857142857 490.2857142857143 490.2857142857143 Q 469.7142857142857 510.85714285714283 438.85714285714283 512 L 73.14285714285714 512 L 73.14285714285714 512 Q 42.285714285714285 510.85714285714283 21.714285714285715 490.2857142857143 Q 1.1428571428571428 469.7142857142857 0 438.85714285714283 L 0 73.14285714285714 L 0 73.14285714285714 Z" />
</svg>