<svg xmlns="http://www.w3.org/2000/svg" viewBox="0 0 512 512">
  <path d="M 249.6 256 Q 248 328 213.6 375.2 Q 179.2 421.6 131.2 422.4 Q 83.2 421.6 48.8 375.2 Q 35.2 356.8 26.4 333.6 Q 42.4 345.6 64 345.6 Q 91.2 344.8 109.6 327.2 Q 127.2 308.8 128 281.6 Q 127.2 254.4 109.6 236 Q 91.2 218.4 64 217.6 Q 32 218.4 13.6 242.4 Q 17.6 179.2 48.8 136.8 Q 83.2 90.4 131.2 89.6 Q 179.2 90.4 213.6 136.8 Q 248 184 249.6 256 L 249.6 256 Z M 13.6 273.6 Q 16.8 254.4 30.4 242.4 L 30.4 242.4 L 30.4 242.4 Q 44.8 231.2 64 230.4 Q 85.6 231.2 100 245.6 Q 114.4 260 115.2 281.6 Q 114.4 303.2 100 317.6 Q 85.6 332 64 332.8 Q 32 331.2 17.6 304 Q 14.4 288.8 13.6 273.6 L 13.6 273.6 Z M 256 200.8 Q 242.4 145.6 208.8 112 L 208.8 112 L 208.8 112 Q 176 77.6 131.2 76.8 Q 75.2 78.4 38.4 129.6 Q 1.6 180 0 256 Q 1.6 332 38.4 382.4 Q 75.2 433.6 131.2 435.2 Q 176 434.4 208.8 400 Q 242.4 366.4 256 311.2 Q 269.6 366.4 303.2 400 Q 336 434.4 380.8 435.2 Q 436.8 433.6 473.6 382.4 Q 510.4 332 512 256 Q 510.4 180 473.6 129.6 Q 436.8 78.4 380.8 76.8 Q 336 77.6 303.2 112 Q 269.6 145.6 256 200.8 L 256 200.8 Z M 298.4 375.2 Q 282.4 353.6 272.8 325.6 Q 291.2 344.8 320 345.6 Q 347.2 344.8 365.6 327.2 Q 383.2 308.8 384 281.6 Q 383.2 254.4 365.6 236 Q 347.2 218.4 320 217.6 Q 300.8 217.6 285.6 228 Q 270.4 237.6 262.4 253.6 Q 264.8 183.2 298.4 136.8 Q 332.8 90.4 380.8 89.6 Q 428.8 90.4 463.2 136.8 Q 497.6 184 499.2 256 Q 497.6 328 463.2 375.2 Q 428.8 421.6 380.8 422.4 Q 332.8 421.6 298.4 375.2 L 298.4 375.2 Z M 320 332.8 Q 291.2 332 276 307.2 Q 261.6 281.6 276 256 Q 291.2 231.2 320 230.4 Q 348.8 231.2 364 256 Q 378.4 281.6 364 307.2 Q 348.8 332 320 332.8 L 320 332.8 Z" />
</svg>