<svg xmlns="http://www.w3.org/2000/svg" viewBox="0 0 512 512">
  <path d="M 473.6 12.8 Q 472 1.6 460.8 0 Q 449.6 1.6 448 12.8 L 448 499.2 L 448 499.2 Q 449.6 510.4 460.8 512 Q 472 510.4 473.6 499.2 L 473.6 12.8 L 473.6 12.8 Z M 256 153.6 Q 244.8 155.2 243.2 166.4 L 243.2 499.2 L 243.2 499.2 Q 244.8 510.4 256 512 Q 267.2 510.4 268.8 499.2 L 268.8 166.4 L 268.8 166.4 Q 267.2 155.2 256 153.6 L 256 153.6 Z M 51.2 307.2 Q 40 308.8 38.4 320 L 38.4 499.2 L 38.4 499.2 Q 40 510.4 51.2 512 Q 62.4 510.4 64 499.2 L 64 320 L 64 320 Q 62.4 308.8 51.2 307.2 L 51.2 307.2 Z" />
</svg>