<svg xmlns="http://www.w3.org/2000/svg" viewBox="0 0 576 512">
    <path d="M 64 496 L 320 496 Q 321 496 321 496 Q 321 496 322 496 Q 324 504 328 512 Q 324 512 320 512 L 64 512 Q 37 511 19 493 Q 1 475 0 448 L 0 64 Q 1 37 19 19 Q 37 1 64 0 L 204 0 Q 224 0 238 14 L 370 146 Q 382 158 384 176 L 368 176 L 320 176 L 248 176 Q 231 176 220 164 Q 208 153 208 136 L 208 16 Q 206 16 204 16 Q 204 16 204 16 L 64 16 Q 44 17 30 30 Q 17 44 16 64 L 16 448 Q 17 468 30 482 Q 44 495 64 496 L 64 496 Z M 359 157 L 227 25 Q 225 24 224 23 L 224 136 Q 226 158 248 160 L 361 160 Q 360 159 359 157 L 359 157 Z M 464 208 Q 444 209 430 222 L 430 222 Q 417 236 416 256 L 416 320 L 512 320 L 512 256 Q 511 236 498 222 Q 484 209 464 208 L 464 208 Z M 400 256 Q 401 229 419 211 L 419 211 Q 437 193 464 192 Q 491 193 509 211 Q 527 229 528 256 L 528 320 L 544 320 Q 558 320 567 329 Q 576 338 576 352 L 576 480 Q 576 494 567 503 Q 558 512 544 512 L 384 512 Q 370 512 361 503 Q 352 494 352 480 L 352 352 Q 352 338 361 329 Q 370 320 384 320 L 400 320 L 400 256 L 400 256 Z M 384 336 Q 369 337 368 352 L 368 480 Q 369 495 384 496 L 544 496 Q 559 495 560 480 L 560 352 Q 559 337 544 336 L 528 336 L 512 336 L 416 336 L 400 336 L 384 336 L 384 336 Z"/>
</svg>
