<svg xmlns="http://www.w3.org/2000/svg" viewBox="0 0 512 512">
  <path d="M 508.01556 15.937743 Q 512 9.961089 508.01556 3.9844358 Q 502.0389 0 496.06226 3.9844358 L 344.6537 155.39299 L 344.6537 155.39299 L 320.74707 131.48637 L 320.74707 131.48637 Q 305.80545 116.54475 284.88715 113.55642 Q 263.96887 110.56809 245.0428 121.52529 L 15.937743 248.03113 L 15.937743 248.03113 Q 0.99610895 256.9961 0 275.92218 Q 0 288.87158 8.96498 297.83658 L 214.16342 503.03503 L 214.16342 503.03503 Q 223.1284 512 236.07782 512 Q 255.00389 511.0039 263.96887 496.06226 L 391.47083 266.95718 L 391.47083 266.95718 Q 401.43192 248.03113 398.44357 227.11284 Q 395.45526 207.19066 380.5136 191.25291 L 356.607 167.3463 L 356.607 167.3463 L 508.01556 15.937743 L 508.01556 15.937743 Z M 309.7899 142.44357 L 369.55643 202.21011 L 309.7899 142.44357 L 369.55643 202.21011 Q 392.46692 228.10895 377.5253 258.9883 L 349.63425 308.79376 L 349.63425 308.79376 L 203.20622 162.36575 L 203.20622 162.36575 L 253.01167 135.47081 L 253.01167 135.47081 Q 266.95718 127.501945 281.89883 129.49416 Q 297.83658 131.48637 309.7899 143.43968 L 309.7899 142.44357 Z M 189.2607 170.33463 L 341.66537 322.7393 L 189.2607 170.33463 L 341.66537 322.7393 L 250.02335 488.09338 L 250.02335 488.09338 Q 245.0428 496.06226 236.07782 496.06226 Q 230.10117 496.06226 225.12062 491.08173 L 96.62257 362.58365 L 96.62257 362.58365 L 157.38521 302.8171 L 157.38521 302.8171 Q 161.36964 296.84045 157.38521 290.8638 Q 151.40855 286.87936 145.4319 290.8638 L 85.66537 351.62646 L 85.66537 351.62646 L 20.918287 286.87936 L 20.918287 286.87936 Q 15.937743 281.89883 15.937743 275.92218 Q 15.937743 266.95718 23.906614 261.97665 L 189.2607 170.33463 L 189.2607 170.33463 Z" />
</svg>