<svg xmlns="http://www.w3.org/2000/svg" viewBox="0 0 512 512">
  <path d="M 215.31782945736435 16.868217054263567 Q 182.57364341085272 17.86046511627907 165.70542635658916 46.63565891472868 L 123.03875968992249 127.0077519379845 L 123.03875968992249 127.0077519379845 Q 113.11627906976744 145.86046511627907 113.11627906976744 167.68992248062017 Q 114.10852713178295 203.4108527131783 139.90697674418604 229.2093023255814 L 327.4418604651163 410.7906976744186 L 327.4418604651163 410.7906976744186 L 369.1162790697674 368.1240310077519 L 369.1162790697674 368.1240310077519 L 411.7829457364341 326.4496124031008 L 411.7829457364341 326.4496124031008 L 345.30232558139534 260.9612403100775 L 345.30232558139534 260.9612403100775 L 208.37209302325581 123.03875968992249 L 208.37209302325581 123.03875968992249 Q 201.42635658914728 115.10077519379846 205.3953488372093 106.17054263565892 Q 208.37209302325581 97.24031007751938 219.28682170542635 96.24806201550388 L 295.68992248062017 96.24806201550388 L 295.68992248062017 96.24806201550388 Q 302.6356589147287 97.24031007751938 303.6279069767442 104.18604651162791 Q 302.6356589147287 111.13178294573643 295.68992248062017 112.12403100775194 L 219.28682170542635 112.12403100775194 L 219.28682170542635 112.12403100775194 L 351.25581395348837 244.09302325581396 L 351.25581395348837 244.09302325581396 L 370.1085271317829 228.2170542635659 L 370.1085271317829 228.2170542635659 Q 397.8914728682171 203.4108527131783 398.8837209302326 166.69767441860466 Q 398.8837209302326 145.86046511627907 388.9612403100775 128 L 346.29457364341084 46.63565891472868 L 346.29457364341084 46.63565891472868 Q 330.4186046511628 17.86046511627907 297.6744186046512 16.868217054263567 L 215.31782945736435 16.868217054263567 L 215.31782945736435 16.868217054263567 Z M 448.49612403100775 459.4108527131783 L 375.06976744186045 384.9922480620155 L 448.49612403100775 459.4108527131783 L 375.06976744186045 384.9922480620155 L 338.3565891472868 421.70542635658916 L 338.3565891472868 421.70542635658916 L 412.7751937984496 495.13178294573646 L 412.7751937984496 495.13178294573646 Q 416.74418604651163 501.08527131782944 412.7751937984496 507.0387596899225 Q 406.8217054263566 511.0077519379845 400.86821705426354 507.0387596899225 L 321.48837209302326 427.6589147286822 L 321.48837209302326 427.6589147286822 L 128.9922480620155 241.11627906976744 L 128.9922480620155 241.11627906976744 Q 98.23255813953489 210.35658914728683 97.24031007751938 167.68992248062017 Q 97.24031007751938 141.89147286821705 109.14728682170542 119.06976744186046 L 151.8139534883721 38.69767441860465 L 151.8139534883721 38.69767441860465 Q 172.65116279069767 1.9844961240310077 215.31782945736435 0.9922480620155039 L 296.6821705426357 0.9922480620155039 L 296.6821705426357 0.9922480620155039 Q 339.3488372093023 1.9844961240310077 360.1860465116279 38.69767441860465 L 403.84496124031006 120.06201550387597 L 403.84496124031006 120.06201550387597 Q 414.7596899224806 141.89147286821705 414.7596899224806 165.70542635658916 Q 413.7674418604651 210.35658914728683 381.0232558139535 240.12403100775194 L 363.16279069767444 255.0077519379845 L 363.16279069767444 255.0077519379845 L 428.6511627906977 320.49612403100775 L 428.6511627906977 320.49612403100775 L 433.61240310077517 326.4496124031008 L 433.61240310077517 326.4496124031008 L 508.031007751938 399.8759689922481 L 508.031007751938 399.8759689922481 Q 512 405.82945736434107 508.031007751938 411.7829457364341 Q 502.07751937984494 415.7519379844961 496.1240310077519 411.7829457364341 L 422.69767441860466 337.3643410852713 L 422.69767441860466 337.3643410852713 L 385.984496124031 374.07751937984494 L 385.984496124031 374.07751937984494 L 460.4031007751938 447.50387596899225 L 460.4031007751938 447.50387596899225 Q 464.3720930232558 453.4573643410853 460.4031007751938 459.4108527131783 Q 454.4496124031008 463.37984496124034 448.49612403100775 459.4108527131783 L 448.49612403100775 459.4108527131783 Z M 228.2170542635659 389.95348837209303 L 111.13178294573643 507.0387596899225 L 228.2170542635659 389.95348837209303 L 111.13178294573643 507.0387596899225 Q 105.17829457364341 511.0077519379845 99.2248062015504 507.0387596899225 Q 95.25581395348837 501.08527131782944 99.2248062015504 495.13178294573646 L 216.31007751937983 378.04651162790697 L 216.31007751937983 378.04651162790697 L 228.2170542635659 389.95348837209303 L 228.2170542635659 389.95348837209303 Z M 180.5891472868217 342.3255813953488 L 63.50387596899225 459.4108527131783 L 180.5891472868217 342.3255813953488 L 63.50387596899225 459.4108527131783 Q 57.55038759689923 463.37984496124034 51.5968992248062 459.4108527131783 Q 47.627906976744185 453.4573643410853 51.5968992248062 447.50387596899225 L 168.68217054263565 330.4186046511628 L 168.68217054263565 330.4186046511628 L 180.5891472868217 342.3255813953488 L 180.5891472868217 342.3255813953488 Z M 132.96124031007753 294.69767441860466 L 15.875968992248062 411.7829457364341 L 132.96124031007753 294.69767441860466 L 15.875968992248062 411.7829457364341 Q 9.922480620155039 415.7519379844961 3.9689922480620154 411.7829457364341 Q 0 405.82945736434107 3.9689922480620154 399.8759689922481 L 121.05426356589147 282.7906976744186 L 121.05426356589147 282.7906976744186 L 132.96124031007753 294.69767441860466 L 132.96124031007753 294.69767441860466 Z" />
</svg>