<svg xmlns="http://www.w3.org/2000/svg" viewBox="0 0 512 512">
  <path d="M 191.74901960784314 161.6313725490196 Q 168.65882352941176 182.71372549019608 161.6313725490196 214.8392156862745 Q 160.62745098039215 216.8470588235294 159.6235294117647 217.85098039215686 Q 159.6235294117647 217.85098039215686 159.6235294117647 217.85098039215686 Q 159.6235294117647 217.85098039215686 159.6235294117647 217.85098039215686 L 159.6235294117647 217.85098039215686 L 159.6235294117647 217.85098039215686 L 31.12156862745098 217.85098039215686 L 31.12156862745098 217.85098039215686 Q 16.062745098039215 215.84313725490196 17.066666666666666 203.79607843137254 Q 23.090196078431372 153.6 48.188235294117646 112.43921568627451 Q 72.28235294117647 71.27843137254902 110.43137254901961 42.16470588235294 Q 120.47058823529412 35.13725490196079 129.50588235294117 47.1843137254902 L 193.75686274509803 158.61960784313726 L 193.75686274509803 158.61960784313726 L 193.75686274509803 158.61960784313726 L 193.75686274509803 158.61960784313726 Q 193.75686274509803 158.61960784313726 193.75686274509803 159.6235294117647 Q 193.75686274509803 160.62745098039215 191.74901960784314 161.6313725490196 L 191.74901960784314 161.6313725490196 Z M 224.87843137254902 325.2705882352941 Q 239.93725490196078 330.2901960784314 256 330.2901960784314 Q 272.0627450980392 330.2901960784314 286.11764705882354 325.2705882352941 Q 288.12549019607843 324.26666666666665 290.1333333333333 325.2705882352941 Q 290.1333333333333 325.2705882352941 290.1333333333333 325.2705882352941 Q 290.1333333333333 325.2705882352941 290.1333333333333 325.2705882352941 L 290.1333333333333 325.2705882352941 L 290.1333333333333 325.2705882352941 L 354.3843137254902 436.70588235294116 L 354.3843137254902 436.70588235294116 Q 360.40784313725493 450.7607843137255 349.36470588235295 455.7803921568627 Q 306.19607843137254 474.85490196078433 256 474.85490196078433 Q 205.80392156862746 474.85490196078433 162.63529411764705 455.7803921568627 Q 151.5921568627451 450.7607843137255 157.6156862745098 436.70588235294116 L 221.86666666666667 325.2705882352941 L 221.86666666666667 325.2705882352941 L 221.86666666666667 325.2705882352941 L 221.86666666666667 325.2705882352941 Q 221.86666666666667 325.2705882352941 221.86666666666667 325.2705882352941 Q 222.87058823529412 325.2705882352941 224.87843137254902 325.2705882352941 L 224.87843137254902 325.2705882352941 Z M 480.878431372549 217.85098039215686 L 352.3764705882353 217.85098039215686 L 480.878431372549 217.85098039215686 L 352.3764705882353 217.85098039215686 L 352.3764705882353 217.85098039215686 L 352.3764705882353 217.85098039215686 Q 352.3764705882353 217.85098039215686 352.3764705882353 217.85098039215686 Q 351.37254901960785 216.8470588235294 350.3686274509804 214.8392156862745 Q 343.3411764705882 182.71372549019608 320.25098039215686 161.6313725490196 Q 318.24313725490197 160.62745098039215 318.24313725490197 159.6235294117647 Q 318.24313725490197 158.61960784313726 318.24313725490197 158.61960784313726 L 318.24313725490197 158.61960784313726 L 318.24313725490197 158.61960784313726 L 382.49411764705883 47.1843137254902 L 382.49411764705883 47.1843137254902 Q 391.52941176470586 35.13725490196079 401.5686274509804 42.16470588235294 Q 439.7176470588235 71.27843137254902 463.81176470588235 112.43921568627451 Q 488.90980392156865 153.6 494.93333333333334 203.79607843137254 Q 495.9372549019608 215.84313725490196 480.878431372549 217.85098039215686 L 480.878431372549 217.85098039215686 Z M 159.6235294117647 233.91372549019607 Q 173.67843137254903 232.90980392156862 177.69411764705882 217.85098039215686 Q 182.71372549019608 190.7450980392157 202.7921568627451 173.67843137254903 Q 213.83529411764707 163.6392156862745 207.81176470588235 150.58823529411765 L 143.5607843137255 39.15294117647059 L 143.5607843137255 39.15294117647059 Q 136.53333333333333 27.105882352941176 124.48627450980392 24.094117647058823 Q 111.43529411764706 21.08235294117647 100.3921568627451 29.113725490196078 Q 60.23529411764706 60.23529411764706 34.13333333333333 104.4078431372549 Q 8.031372549019608 148.58039215686276 1.003921568627451 201.78823529411764 Q 0 215.84313725490196 9.035294117647059 224.87843137254902 Q 17.066666666666666 233.91372549019607 31.12156862745098 233.91372549019607 L 159.6235294117647 233.91372549019607 L 159.6235294117647 233.91372549019607 Z M 207.81176470588235 317.2392156862745 L 143.5607843137255 428.6745098039216 L 207.81176470588235 317.2392156862745 L 143.5607843137255 428.6745098039216 Q 136.53333333333333 440.721568627451 140.54901960784315 452.7686274509804 Q 143.5607843137255 464.8156862745098 156.61176470588236 470.8392156862745 Q 202.7921568627451 490.91764705882355 256 490.91764705882355 Q 309.2078431372549 490.91764705882355 355.38823529411764 470.8392156862745 Q 368.4392156862745 464.8156862745098 371.45098039215685 452.7686274509804 Q 375.46666666666664 440.721568627451 368.4392156862745 428.6745098039216 L 304.18823529411765 317.2392156862745 L 304.18823529411765 317.2392156862745 Q 296.15686274509807 306.19607843137254 281.0980392156863 310.21176470588233 Q 269.0509803921569 314.2274509803922 256 314.2274509803922 Q 242.94901960784313 314.2274509803922 230.90196078431373 310.21176470588233 Q 215.84313725490196 306.19607843137254 207.81176470588235 317.2392156862745 L 207.81176470588235 317.2392156862745 Z M 334.3058823529412 217.85098039215686 Q 338.321568627451 232.90980392156862 352.3764705882353 233.91372549019607 L 480.878431372549 233.91372549019607 L 480.878431372549 233.91372549019607 Q 494.93333333333334 233.91372549019607 502.9647058823529 224.87843137254902 Q 512 215.84313725490196 510.99607843137255 201.78823529411764 Q 503.96862745098036 148.58039215686276 477.8666666666667 104.4078431372549 Q 451.7647058823529 60.23529411764706 411.6078431372549 29.113725490196078 Q 400.56470588235294 21.08235294117647 387.51372549019607 24.094117647058823 Q 375.46666666666664 27.105882352941176 368.4392156862745 39.15294117647059 L 304.18823529411765 150.58823529411765 L 304.18823529411765 150.58823529411765 Q 298.16470588235296 163.6392156862745 309.2078431372549 173.67843137254903 Q 329.28627450980395 191.74901960784314 335.30980392156863 217.85098039215686 L 334.3058823529412 217.85098039215686 Z M 223.87450980392157 233.91372549019607 Q 223.87450980392157 219.85882352941175 232.90980392156862 210.8235294117647 L 232.90980392156862 210.8235294117647 L 232.90980392156862 210.8235294117647 Q 241.94509803921568 201.78823529411764 256 201.78823529411764 Q 270.0549019607843 201.78823529411764 279.09019607843135 210.8235294117647 Q 288.12549019607843 219.85882352941175 288.12549019607843 233.91372549019607 Q 288.12549019607843 247.9686274509804 279.09019607843135 257.00392156862745 Q 270.0549019607843 266.03921568627453 256 266.03921568627453 Q 241.94509803921568 266.03921568627453 232.90980392156862 257.00392156862745 Q 223.87450980392157 247.9686274509804 223.87450980392157 233.91372549019607 L 223.87450980392157 233.91372549019607 Z M 304.18823529411765 233.91372549019607 Q 303.1843137254902 206.8078431372549 280.09411764705885 191.74901960784314 Q 256 179.7019607843137 231.90588235294118 191.74901960784314 Q 208.8156862745098 206.8078431372549 207.81176470588235 233.91372549019607 Q 208.8156862745098 261.01960784313724 231.90588235294118 276.078431372549 Q 256 288.12549019607843 280.09411764705885 276.078431372549 Q 303.1843137254902 261.01960784313724 304.18823529411765 233.91372549019607 L 304.18823529411765 233.91372549019607 Z" />
</svg>