<svg xmlns="http://www.w3.org/2000/svg" viewBox="0 0 617 491">
    <path d="M 150 10 Q 155 0 164 0 L 164 0 Q 174 0 179 10 L 210 78 L 269 63 L 257 83 L 207 95 Q 201 96 198 90 L 164 16 L 130 90 Q 127 96 121 95 L 41 75 L 78 148 Q 81 154 76 158 L 18 208 L 91 225 Q 97 226 97 233 L 96 314 L 130 286 L 123 313 L 106 327 Q 98 333 89 329 Q 81 325 80 314 L 81 239 L 14 224 Q 4 221 2 212 Q 0 203 7 196 L 61 150 L 27 82 Q 23 73 29 65 Q 35 58 45 60 L 118 78 L 150 10 L 150 10 Z M 296 80 Q 309 59 331 50 L 331 50 Q 353 41 377 47 L 531 88 Q 554 95 569 114 Q 583 132 584 157 L 586 258 Q 603 276 610 300 Q 617 324 610 350 L 592 419 L 587 435 L 579 466 Q 575 479 564 485 Q 553 491 540 488 L 509 480 Q 496 476 489 465 Q 483 454 486 441 L 495 410 L 247 344 L 239 374 Q 235 387 224 394 Q 213 400 200 397 L 169 389 Q 156 385 149 374 Q 143 363 146 350 L 155 319 L 159 303 L 177 234 Q 185 208 202 190 Q 220 173 244 166 L 296 79 L 296 80 Z M 568 157 Q 568 138 556 123 L 556 123 Q 545 109 527 104 L 373 62 Q 354 58 337 65 Q 320 71 310 88 L 265 163 Q 280 162 295 166 L 542 232 Q 557 236 570 244 L 568 157 L 568 157 Z M 576 415 L 595 346 Q 602 312 586 285 Q 571 257 538 248 L 291 181 Q 258 173 230 189 Q 202 205 193 238 L 174 307 L 236 324 L 251 328 L 499 394 L 514 398 L 576 415 L 576 415 Z M 510 414 L 502 445 Q 499 459 513 464 L 544 473 Q 558 475 563 461 L 572 431 L 510 414 L 510 414 Z M 232 339 L 170 323 L 162 354 Q 159 368 173 373 L 204 382 Q 218 384 224 370 L 232 339 L 232 339 Z M 280 253 Q 282 244 276 237 Q 269 231 260 233 Q 251 236 249 245 Q 247 254 253 260 Q 260 267 268 264 Q 277 262 280 253 L 280 253 Z M 233 241 Q 237 227 248 221 L 248 221 Q 259 215 273 218 Q 286 222 292 233 Q 298 244 295 257 Q 290 275 273 280 Q 255 284 241 272 Q 229 258 233 240 L 233 241 Z M 523 335 Q 532 337 539 331 Q 545 324 543 315 Q 540 306 531 304 Q 522 301 516 308 Q 509 314 511 323 Q 514 332 523 335 L 523 335 Z M 535 288 Q 553 293 559 311 Q 563 329 550 342 Q 537 355 519 350 Q 501 345 496 327 Q 491 310 504 296 Q 518 284 535 288 L 535 288 Z"/>
</svg>
