<svg xmlns="http://www.w3.org/2000/svg" viewBox="0 0 512 512">
  <path d="M 168 32 L 344 32 L 168 32 L 344 32 Q 366 34 368 56 L 368 112 L 368 112 L 144 112 L 144 112 L 144 56 L 144 56 Q 146 34 168 32 L 168 32 Z M 128 56 L 128 112 L 128 56 L 128 112 L 64 112 L 64 112 Q 37 113 19 131 Q 1 149 0 176 L 0 432 L 0 432 Q 1 459 19 477 Q 37 495 64 496 L 448 496 L 448 496 Q 475 495 493 477 Q 511 459 512 432 L 512 176 L 512 176 Q 511 149 493 131 Q 475 113 448 112 L 384 112 L 384 112 L 384 56 L 384 56 Q 384 39 372 28 Q 361 16 344 16 L 168 16 L 168 16 Q 151 16 140 28 Q 128 39 128 56 L 128 56 Z M 136 128 L 376 128 L 136 128 L 448 128 Q 468 129 482 142 Q 495 156 496 176 L 496 432 L 496 432 Q 495 452 482 466 Q 468 479 448 480 L 64 480 L 64 480 Q 44 479 30 466 Q 17 452 16 432 L 16 176 L 16 176 Q 17 156 30 142 Q 44 129 64 128 L 136 128 L 136 128 Z M 232 216 Q 233 209 240 208 L 272 208 L 272 208 Q 279 209 280 216 L 280 272 L 280 272 Q 281 279 288 280 L 344 280 L 344 280 Q 351 281 352 288 L 352 320 L 352 320 Q 351 327 344 328 L 288 328 L 288 328 Q 281 329 280 336 L 280 392 L 280 392 Q 279 399 272 400 L 240 400 L 240 400 Q 233 399 232 392 L 232 336 L 232 336 Q 231 329 224 328 L 168 328 L 168 328 Q 161 327 160 320 L 160 288 L 160 288 Q 161 281 168 280 L 224 280 L 224 280 Q 231 279 232 272 L 232 216 L 232 216 Z M 240 192 Q 218 194 216 216 L 216 264 L 216 264 L 168 264 L 168 264 Q 146 266 144 288 L 144 320 L 144 320 Q 146 342 168 344 L 216 344 L 216 344 L 216 392 L 216 392 Q 218 414 240 416 L 272 416 L 272 416 Q 294 414 296 392 L 296 344 L 296 344 L 344 344 L 344 344 Q 366 342 368 320 L 368 288 L 368 288 Q 366 266 344 264 L 296 264 L 296 264 L 296 216 L 296 216 Q 294 194 272 192 L 240 192 L 240 192 Z" />
</svg>