<svg xmlns="http://www.w3.org/2000/svg" viewBox="0 0 512 512">
  <path d="M 12.8 83.2 Q 12 77.6 6.4 76.8 Q 0.8 77.6 0 83.2 L 0 313.6 L 0 313.6 L 0 377.6 L 0 377.6 L 0 428.8 L 0 428.8 Q 0.8 434.4 6.4 435.2 Q 12 434.4 12.8 428.8 L 12.8 384 L 12.8 384 L 499.2 384 L 499.2 384 L 499.2 428.8 L 499.2 428.8 Q 500 434.4 505.6 435.2 Q 511.2 434.4 512 428.8 L 512 377.6 L 512 377.6 L 512 313.6 L 512 313.6 L 512 236.8 L 512 236.8 Q 511.2 201.6 488 177.6 Q 464 154.4 428.8 153.6 L 249.6 153.6 L 249.6 153.6 Q 236 153.6 227.2 163.2 Q 217.6 172 217.6 185.6 L 217.6 307.2 L 217.6 307.2 L 12.8 307.2 L 12.8 307.2 L 12.8 83.2 L 12.8 83.2 Z M 499.2 371.2 L 12.8 371.2 L 499.2 371.2 L 12.8 371.2 L 12.8 320 L 12.8 320 L 224 320 L 499.2 320 L 499.2 371.2 L 499.2 371.2 Z M 499.2 236.8 L 499.2 307.2 L 499.2 236.8 L 499.2 307.2 L 230.4 307.2 L 230.4 307.2 L 230.4 185.6 L 230.4 185.6 Q 232 168 249.6 166.4 L 428.8 166.4 L 428.8 166.4 Q 458.4 167.2 478.4 187.2 Q 498.4 207.2 499.2 236.8 L 499.2 236.8 Z M 64 217.6 Q 64.8 188.8 89.6 173.6 Q 115.2 159.2 140.8 173.6 Q 165.6 188.8 166.4 217.6 Q 165.6 246.4 140.8 261.6 Q 115.2 276 89.6 261.6 Q 64.8 246.4 64 217.6 L 64 217.6 Z M 179.2 217.6 Q 178.4 181.6 147.2 162.4 Q 115.2 144.8 83.2 162.4 Q 52 181.6 51.2 217.6 Q 52 253.6 83.2 272.8 Q 115.2 290.4 147.2 272.8 Q 178.4 253.6 179.2 217.6 L 179.2 217.6 Z" />
</svg>