<svg xmlns="http://www.w3.org/2000/svg" viewBox="0 0 512 512">
  <path d="M 256 16 Q 321 17 376 48 L 376 48 L 376 48 Q 431 80 464 136 Q 496 193 496 256 Q 496 319 464 376 Q 431 432 376 464 Q 321 495 256 496 Q 191 495 136 464 Q 81 432 48 376 Q 16 319 16 256 Q 16 193 48 136 Q 81 80 136 48 Q 191 17 256 16 L 256 16 Z M 256 512 Q 326 511 384 478 L 384 478 L 384 478 Q 442 444 478 384 Q 512 323 512 256 Q 512 189 478 128 Q 442 68 384 34 Q 326 1 256 0 Q 186 1 128 34 Q 70 68 34 128 Q 0 189 0 256 Q 0 323 34 384 Q 70 444 128 478 Q 186 511 256 512 L 256 512 Z M 208 202 Q 216 201 220 193 L 256 120 L 256 120 L 292 193 L 292 193 Q 296 201 304 202 L 385 214 L 385 214 L 327 271 L 327 271 Q 321 277 322 285 L 336 366 L 336 366 L 263 328 L 263 328 Q 256 324 249 328 L 176 366 L 176 366 L 190 285 L 190 285 Q 191 277 185 271 L 127 214 L 127 214 L 208 202 L 208 202 Z M 388 198 L 306 186 L 388 198 L 306 186 L 270 113 L 270 113 Q 266 104 256 104 Q 246 104 242 113 L 205 186 L 205 186 L 124 198 L 124 198 Q 115 200 112 209 Q 109 218 116 225 L 174 283 L 174 283 L 160 363 L 160 363 Q 159 373 167 379 Q 175 384 184 380 L 256 342 L 256 342 L 329 380 L 329 380 Q 337 384 345 379 Q 353 373 352 363 L 338 283 L 338 283 L 397 226 L 397 226 Q 403 218 401 209 Q 397 200 388 198 L 388 198 Z" />
</svg>