<svg xmlns="http://www.w3.org/2000/svg" viewBox="0 0 512 512">
  <path d="M 262.4 56.8 Q 261.6 51.2 256 50.4 Q 250.4 51.2 249.6 56.8 L 249.6 76 L 249.6 76 Q 235.2 77.6 223.2 84.8 Q 206.4 93.6 204.8 116 Q 206.4 136 221.6 144.8 Q 236 152.8 252.8 157.6 L 253.6 157.6 L 253.6 157.6 Q 271.2 162.4 283.2 169.6 Q 293.6 176 294.4 188.8 Q 294.4 204 283.2 210.4 Q 271.2 217.6 256 216.8 Q 238.4 215.2 220.8 208 Q 220 208 220 208 Q 216.8 206.4 213.6 205.6 Q 213.6 205.6 213.6 205.6 Q 208 204 205.6 209.6 Q 204 215.2 208.8 217.6 Q 208.8 217.6 208.8 217.6 Q 212 218.4 215.2 220 L 215.2 220 L 215.2 220 L 215.2 220 L 215.2 220 L 215.2 220 L 215.2 220 Q 215.2 220 215.2 220 Q 231.2 226.4 249.6 229.6 L 249.6 248.8 L 249.6 248.8 Q 250.4 254.4 256 255.2 Q 261.6 254.4 262.4 248.8 L 262.4 229.6 L 262.4 229.6 Q 277.6 228.8 290.4 220.8 Q 306.4 211.2 307.2 188.8 Q 305.6 168 290.4 159.2 Q 276 150.4 259.2 145.6 Q 258.4 145.6 257.6 145.6 L 257.6 145.6 L 257.6 145.6 Q 257.6 145.6 257.6 144.8 Q 240 140 228.8 133.6 Q 217.6 127.2 217.6 116 Q 218.4 101.6 229.6 95.2 Q 241.6 88.8 256 88.8 Q 272 89.6 288 94.4 Q 293.6 95.2 296 89.6 Q 296.8 84 291.2 81.6 Q 277.6 77.6 262.4 76 L 262.4 56.8 L 262.4 56.8 Z M 76.8 140 Q 76 124 65.6 112.8 L 65.6 112.8 L 65.6 112.8 Q 54.4 102.4 38.4 101.6 Q 22.4 102.4 11.2 112.8 Q 0.8 124 0 140 L 0 325.6 L 0 325.6 Q 0.8 360 24.8 384.8 L 97.6 458.4 L 97.6 458.4 Q 102.4 461.6 107.2 458.4 Q 110.4 453.6 107.2 448.8 L 33.6 376 L 33.6 376 Q 13.6 355.2 12.8 325.6 L 12.8 140 L 12.8 140 Q 12.8 128.8 20 121.6 Q 27.2 114.4 38.4 114.4 Q 49.6 114.4 56.8 121.6 Q 64 128.8 64 140 L 64 257.6 L 64 257.6 Q 64 283.2 82.4 301.6 L 97.6 317.6 L 97.6 317.6 L 142.4 362.4 L 142.4 362.4 L 142.4 362.4 L 142.4 362.4 L 148.8 368.8 L 148.8 368.8 Q 153.6 372 158.4 368.8 Q 161.6 364 158.4 359.2 L 152 352.8 L 152 352.8 L 152 352.8 L 152 352.8 L 107.2 308 L 107.2 308 L 107.2 308 L 107.2 308 Q 94.4 293.6 105.6 276.8 Q 112.8 269.6 122.4 268.8 Q 132 268.8 139.2 276 L 213.6 349.6 L 213.6 349.6 Q 230.4 366.4 230.4 390.4 L 230.4 453.6 L 230.4 453.6 Q 231.2 459.2 236.8 460 Q 242.4 459.2 243.2 453.6 L 243.2 390.4 L 243.2 390.4 Q 242.4 361.6 223.2 340.8 L 148.8 266.4 L 148.8 266.4 Q 136.8 256 121.6 256 Q 107.2 256.8 96 268.8 Q 88.8 277.6 88 288.8 Q 76.8 275.2 76.8 257.6 L 76.8 140 L 76.8 140 Z M 473.6 101.6 Q 457.6 102.4 446.4 112.8 L 446.4 112.8 L 446.4 112.8 Q 436 124 435.2 140 L 435.2 257.6 L 435.2 257.6 Q 435.2 275.2 424.8 288.8 Q 423.2 277.6 416 268.8 Q 404.8 256.8 390.4 256 Q 375.2 256 363.2 267.2 L 289.6 340.8 L 289.6 340.8 Q 269.6 361.6 268.8 390.4 L 268.8 453.6 L 268.8 453.6 Q 269.6 459.2 275.2 460 Q 280.8 459.2 281.6 453.6 L 281.6 390.4 L 281.6 390.4 Q 282.4 366.4 298.4 350.4 L 372.8 276 L 372.8 276 Q 380 268.8 389.6 268.8 Q 399.2 269.6 406.4 276.8 Q 417.6 292.8 404.8 308.8 L 404.8 308.8 L 404.8 308.8 L 360.8 352.8 L 360.8 352.8 L 360.8 352.8 L 360.8 352.8 L 354.4 359.2 L 354.4 359.2 Q 350.4 364 354.4 368.8 Q 358.4 372 363.2 368.8 L 369.6 362.4 L 369.6 362.4 L 414.4 317.6 L 414.4 317.6 L 429.6 301.6 L 429.6 301.6 Q 448 283.2 448 257.6 L 448 140 L 448 140 Q 448 128.8 455.2 121.6 Q 462.4 114.4 473.6 114.4 Q 484.8 114.4 492 121.6 Q 499.2 128.8 499.2 140 L 499.2 325.6 L 499.2 325.6 Q 498.4 354.4 478.4 375.2 L 404.8 448.8 L 404.8 448.8 Q 401.6 453.6 404.8 458.4 Q 409.6 461.6 414.4 458.4 L 488 384.8 L 488 384.8 Q 511.2 360 512 325.6 L 512 140 L 512 140 Q 511.2 124 500.8 112.8 Q 489.6 102.4 473.6 101.6 L 473.6 101.6 Z" />
</svg>