<svg xmlns="http://www.w3.org/2000/svg" viewBox="0 0 512 512">
  <path d="M 168 48 L 344 48 L 168 48 L 344 48 Q 363 48 378 59 Q 392 70 398 88 L 429 192 L 429 192 L 83 192 L 83 192 L 114 88 L 114 88 Q 120 70 134 59 Q 149 48 168 48 L 168 48 Z M 99 83 L 66 193 L 99 83 L 66 193 Q 37 199 19 220 Q 1 242 0 272 L 0 352 L 0 352 Q 2 385 32 397 L 32 400 L 32 400 L 32 448 L 32 448 Q 32 462 41 471 Q 50 480 64 480 L 96 480 L 96 480 Q 110 480 119 471 Q 128 462 128 448 L 128 400 L 128 400 L 384 400 L 384 400 L 384 448 L 384 448 Q 384 462 393 471 Q 402 480 416 480 L 448 480 L 448 480 Q 462 480 471 471 Q 480 462 480 448 L 480 400 L 480 400 L 480 397 L 480 397 Q 510 385 512 352 L 512 272 L 512 272 Q 511 242 493 220 Q 475 199 446 193 L 413 83 L 413 83 Q 406 60 387 46 Q 369 32 344 32 L 168 32 L 168 32 Q 143 32 125 46 Q 106 60 99 83 L 99 83 Z M 464 384 L 400 384 L 464 384 L 48 384 Q 34 384 25 375 Q 16 366 16 352 L 16 336 L 16 336 L 72 336 L 72 336 Q 94 334 96 312 L 96 280 L 96 280 Q 94 258 72 256 L 18 256 L 18 256 Q 24 235 40 222 Q 57 208 80 208 L 432 208 L 432 208 Q 455 208 472 222 Q 488 235 494 256 L 440 256 L 440 256 Q 418 258 416 280 L 416 312 L 416 312 Q 418 334 440 336 L 496 336 L 496 336 L 496 352 L 496 352 Q 496 366 487 375 Q 478 384 464 384 L 464 384 Z M 400 400 L 464 400 L 400 400 L 464 400 L 464 448 L 464 448 Q 463 463 448 464 L 416 464 L 416 464 Q 401 463 400 448 L 400 400 L 400 400 Z M 48 448 L 48 400 L 48 448 L 48 400 L 112 400 L 112 400 L 112 448 L 112 448 Q 111 463 96 464 L 64 464 L 64 464 Q 49 463 48 448 L 48 448 Z M 496 272 L 496 320 L 496 272 L 496 320 L 440 320 L 440 320 Q 433 319 432 312 L 432 280 L 432 280 Q 433 273 440 272 L 496 272 L 496 272 Z M 16 320 L 16 272 L 16 320 L 16 272 L 72 272 L 72 272 Q 79 273 80 280 L 80 312 L 80 312 Q 79 319 72 320 L 16 320 L 16 320 Z M 216 304 L 296 304 L 216 304 L 296 304 Q 303 305 304 312 L 304 328 L 304 328 Q 303 335 296 336 L 216 336 L 216 336 Q 209 335 208 328 L 208 312 L 208 312 Q 209 305 216 304 L 216 304 Z M 192 312 L 192 328 L 192 312 L 192 328 Q 194 350 216 352 L 296 352 L 296 352 Q 318 350 320 328 L 320 312 L 320 312 Q 318 290 296 288 L 216 288 L 216 288 Q 194 290 192 312 L 192 312 Z" />
</svg>