<svg xmlns="http://www.w3.org/2000/svg" viewBox="0 0 512 512">
  <path d="M 16 40 Q 15 33 8 32 Q 1 33 0 40 L 0 408 L 0 408 Q 1 439 21 459 Q 41 479 72 480 L 504 480 L 504 480 Q 511 479 512 472 Q 511 465 504 464 L 72 464 L 72 464 Q 48 463 32 448 Q 17 432 16 408 L 16 40 L 16 40 Z M 309 203 Q 313 208 320 208 Q 327 208 331 203 L 371 164 L 371 164 Q 383 154 394 165 L 456 237 L 456 237 Q 464 246 464 258 L 464 352 L 464 352 Q 463 367 448 368 L 128 368 L 128 368 Q 113 367 112 352 L 112 244 L 112 244 Q 112 231 121 221 L 213 130 L 213 130 Q 224 121 235 130 L 309 203 L 309 203 Z M 320 192 L 309 181 L 320 192 L 309 181 L 247 119 L 247 119 Q 237 109 224 109 Q 211 109 201 119 L 110 210 L 110 210 Q 96 224 96 244 L 96 352 L 96 352 Q 96 366 105 375 Q 114 384 128 384 L 448 384 L 448 384 Q 462 384 471 375 Q 480 366 480 352 L 480 258 L 480 258 Q 480 240 468 227 L 406 154 L 406 154 Q 397 144 383 143 Q 370 143 360 152 L 331 181 L 331 181 L 320 192 L 320 192 Z" />
</svg>