<svg xmlns="http://www.w3.org/2000/svg" viewBox="0 0 512 512">
  <path d="M 418.4 228 Q 422.4 216.8 422.4 204.8 Q 421.6 177.6 404 159.2 Q 385.6 141.6 358.4 140.8 Q 338.4 140.8 323.2 152 Q 318.4 154.4 312.8 153.6 Q 307.2 152 304.8 147.2 Q 289.6 120.8 263.2 105.6 Q 236.8 89.6 204.8 89.6 Q 156 91.2 123.2 123.2 Q 91.2 156 89.6 204.8 Q 89.6 208 89.6 210.4 Q 89.6 210.4 89.6 210.4 Q 89.6 220 81.6 223.2 Q 50.4 234.4 32 260 Q 13.6 285.6 12.8 320 Q 13.6 363.2 42.4 392.8 Q 72 421.6 115.2 422.4 L 409.6 422.4 L 409.6 422.4 Q 448 421.6 472.8 396 Q 498.4 371.2 499.2 332.8 Q 498.4 300 478.4 276 Q 459.2 252 427.2 244.8 Q 421.6 244 419.2 238.4 Q 416 233.6 418.4 228 L 418.4 228 Z M 204.8 76.8 Q 237.6 76.8 264 91.2 L 264 91.2 L 264 91.2 Q 291.2 105.6 308.8 130.4 Q 312.8 135.2 316 140.8 Q 320 138.4 324.8 136 Q 340 128 358.4 128 Q 391.2 128.8 412.8 150.4 Q 434.4 172 435.2 204.8 Q 435.2 212.8 433.6 220 Q 432 226.4 430.4 232.8 Q 436.8 233.6 442.4 236 Q 473.6 246.4 492 272.8 Q 511.2 298.4 512 332.8 Q 511.2 376 482.4 405.6 Q 452.8 434.4 409.6 435.2 L 115.2 435.2 L 115.2 435.2 Q 66.4 433.6 33.6 401.6 Q 1.6 368.8 0 320 Q 0.8 281.6 21.6 252.8 Q 42.4 224 76.8 211.2 Q 76.8 208 76.8 204.8 Q 78.4 150.4 114.4 114.4 Q 150.4 78.4 204.8 76.8 L 204.8 76.8 Z M 185.6 224 Q 186.4 204.8 198.4 192 L 198.4 192 L 198.4 192 Q 211.2 180 230.4 179.2 L 275.2 179.2 L 275.2 179.2 Q 296.8 180 311.2 194.4 Q 325.6 208.8 326.4 230.4 Q 325.6 257.6 303.2 272.8 L 262.4 300 L 262.4 300 L 262.4 320 L 262.4 320 Q 261.6 325.6 256 326.4 Q 250.4 325.6 249.6 320 L 249.6 296.8 L 249.6 296.8 Q 249.6 292.8 252.8 291.2 L 296.8 262.4 L 296.8 262.4 Q 312.8 250.4 313.6 230.4 Q 312.8 213.6 302.4 203.2 Q 292 192 275.2 192 L 230.4 192 L 230.4 192 Q 216.8 192 208 201.6 Q 198.4 210.4 198.4 224 L 198.4 228.8 L 198.4 228.8 Q 197.6 235.2 192 235.2 Q 186.4 235.2 185.6 228.8 L 185.6 224 L 185.6 224 Z M 243.2 358.4 Q 244 346.4 256 345.6 Q 268 346.4 268.8 358.4 Q 268 370.4 256 371.2 Q 244 370.4 243.2 358.4 L 243.2 358.4 Z" />
</svg>