<svg xmlns="http://www.w3.org/2000/svg" viewBox="0 0 512 448">
    <path d="M 496 384 Q 495 404 482 418 L 482 418 Q 468 431 448 432 L 64 432 Q 44 431 30 418 Q 17 404 16 384 L 16 64 Q 17 44 30 30 Q 44 17 64 16 L 198 16 Q 217 16 231 30 L 267 66 Q 281 80 301 80 L 448 80 Q 468 81 482 94 Q 495 108 496 128 L 496 384 L 496 384 Z M 64 448 L 448 448 Q 475 447 493 429 Q 511 411 512 384 L 512 128 Q 511 101 493 83 Q 475 65 448 64 L 301 64 Q 288 64 279 55 L 243 19 Q 224 0 197 0 L 64 0 Q 37 1 19 19 Q 1 37 0 64 L 0 384 Q 1 411 19 429 Q 37 447 64 448 L 64 448 Z M 349 153 Q 345 151 341 153 L 213 201 Q 208 203 208 208 L 208 314 Q 195 304 176 304 Q 156 304 142 316 Q 129 327 128 344 Q 129 361 142 372 Q 156 384 176 384 Q 196 384 210 372 Q 223 361 224 344 L 224 344 L 224 214 L 336 172 L 336 282 Q 323 272 304 272 Q 284 272 270 284 Q 257 295 256 312 Q 257 329 270 340 Q 284 352 304 352 Q 324 352 338 340 Q 351 329 352 312 L 352 312 L 352 160 Q 352 156 349 153 L 349 153 Z M 304 288 Q 319 289 328 296 L 328 296 Q 336 304 336 312 Q 336 320 328 328 Q 319 335 304 336 Q 289 335 280 328 Q 272 320 272 312 Q 272 304 280 296 Q 289 289 304 288 L 304 288 Z M 176 320 Q 191 321 200 328 L 200 328 Q 208 336 208 344 Q 208 352 200 360 Q 191 367 176 368 Q 161 367 152 360 Q 144 352 144 344 Q 144 336 152 328 Q 161 321 176 320 L 176 320 Z"/>
</svg>
