<svg xmlns="http://www.w3.org/2000/svg" viewBox="0 0 512 512">
  <path d="M 496.05536 110.28374 Q 496.94116 107.6263 495.16956 104.96886 Q 493.39792 102.31142 490.74048 101.425606 L 377.3564 73.07958 L 377.3564 73.07958 Q 371.1557 72.19377 368.49826 78.39446 L 354.32526 132.42906 L 354.32526 132.42906 L 342.8097 120.9135 L 342.8097 120.9135 L 355.21106 74.85121 L 355.21106 74.85121 Q 361.41177 56.249134 380.89966 59.79239 L 494.28372 88.138405 L 494.28372 88.138405 Q 502.25604 89.910034 507.57092 97.882355 Q 512 105.85467 509.34256 113.82699 L 472.1384 250.24222 L 472.1384 250.24222 L 460.62283 238.72664 L 460.62283 238.72664 L 496.05536 110.28374 L 496.05536 110.28374 Z M 459.73703 298.0761 L 331.29413 169.63322 L 459.73703 298.0761 L 331.29413 169.63322 L 315.3495 236.0692 L 315.3495 236.0692 Q 309.1488 256.4429 287.88928 257.3287 L 219.68166 257.3287 L 219.68166 257.3287 Q 204.62283 257.3287 194.87889 267.95847 Q 184.24913 277.70242 184.24913 292.76123 L 184.24913 406.14532 L 184.24913 406.14532 Q 184.24913 421.20416 194.87889 430.9481 Q 204.62283 441.57785 219.68166 441.57785 L 388.87198 441.57785 L 388.87198 441.57785 Q 403.9308 441.57785 414.56055 432.71973 Q 426.0761 423.8616 429.6194 410.5744 L 459.73703 298.0761 L 459.73703 298.0761 Z M 470.3668 288.33218 Q 475.68167 293.64706 473.91003 301.6194 L 443.7924 414.11765 L 443.7924 414.11765 Q 438.4775 432.71973 423.41867 444.2353 Q 408.35986 455.75085 388.87198 455.75085 L 219.68166 455.75085 L 219.68166 455.75085 Q 198.42215 454.86505 184.24913 441.57785 Q 170.96194 427.40485 170.07613 406.14532 L 170.07613 292.76123 L 170.07613 292.76123 Q 170.96194 271.50174 184.24913 257.3287 Q 198.42215 244.04152 219.68166 243.15572 L 287.88928 243.15572 L 287.88928 243.15572 Q 298.51904 242.2699 301.17648 232.52596 L 318.00693 166.08997 L 318.00693 166.08997 Q 320.66437 158.11765 327.75085 156.34602 Q 334.83737 153.68858 341.9239 159.88927 L 470.3668 288.33218 L 470.3668 288.33218 Z M 28.346022 243.15572 Q 15.058824 244.04152 14.173011 257.3287 Q 15.058824 270.6159 28.346022 271.50174 Q 41.633217 270.6159 42.51903 257.3287 Q 41.633217 244.04152 28.346022 243.15572 L 28.346022 243.15572 Z M 56.692043 257.3287 Q 56.692043 269.7301 48.719723 277.70242 L 48.719723 277.70242 L 48.719723 277.70242 Q 40.747406 285.67474 28.346022 285.67474 Q 15.944636 285.67474 7.972318 277.70242 Q 0 269.7301 0 257.3287 Q 0 244.92734 7.972318 236.95502 Q 15.944636 228.9827 28.346022 228.9827 Q 40.747406 228.9827 48.719723 236.95502 Q 56.692043 244.92734 56.692043 257.3287 L 56.692043 257.3287 Z M 113.38409 285.67474 Q 100.096886 286.56055 99.211075 299.84775 Q 100.096886 313.13495 113.38409 314.02075 Q 126.67128 313.13495 127.55709 299.84775 Q 126.67128 286.56055 113.38409 285.67474 L 113.38409 285.67474 Z M 141.7301 299.84775 Q 141.7301 312.24915 133.75778 320.22147 L 133.75778 320.22147 L 133.75778 320.22147 Q 125.78547 328.1938 113.38409 328.1938 Q 100.9827 328.1938 93.01038 320.22147 Q 85.03806 312.24915 85.03806 299.84775 Q 85.03806 287.44638 93.01038 279.47406 Q 100.9827 271.50174 113.38409 271.50174 Q 125.78547 271.50174 133.75778 279.47406 Q 141.7301 287.44638 141.7301 299.84775 L 141.7301 299.84775 Z M 14.173011 342.3668 Q 15.058824 355.654 28.346022 356.5398 Q 41.633217 355.654 42.51903 342.3668 Q 41.633217 329.0796 28.346022 328.1938 Q 15.058824 329.0796 14.173011 342.3668 L 14.173011 342.3668 Z M 28.346022 370.7128 Q 15.944636 370.7128 7.972318 362.74048 L 7.972318 362.74048 L 7.972318 362.74048 Q 0 354.76816 0 342.3668 Q 0 329.9654 7.972318 321.99307 Q 15.944636 314.02075 28.346022 314.02075 Q 40.747406 314.02075 48.719723 321.99307 Q 56.692043 329.9654 56.692043 342.3668 Q 56.692043 354.76816 48.719723 362.74048 Q 40.747406 370.7128 28.346022 370.7128 L 28.346022 370.7128 Z M 113.38409 370.7128 Q 100.096886 371.5986 99.211075 384.8858 Q 100.096886 398.173 113.38409 399.05884 Q 126.67128 398.173 127.55709 384.8858 Q 126.67128 371.5986 113.38409 370.7128 L 113.38409 370.7128 Z M 141.7301 384.8858 Q 141.7301 397.2872 133.75778 405.25952 L 133.75778 405.25952 L 133.75778 405.25952 Q 125.78547 413.23184 113.38409 413.23184 Q 100.9827 413.23184 93.01038 405.25952 Q 85.03806 397.2872 85.03806 384.8858 Q 85.03806 372.48444 93.01038 364.51212 Q 100.9827 356.5398 113.38409 356.5398 Q 125.78547 356.5398 133.75778 364.51212 Q 141.7301 372.48444 141.7301 384.8858 L 141.7301 384.8858 Z M 14.173011 427.40485 Q 15.058824 440.69205 28.346022 441.57785 Q 41.633217 440.69205 42.51903 427.40485 Q 41.633217 414.11765 28.346022 413.23184 Q 15.058824 414.11765 14.173011 427.40485 L 14.173011 427.40485 Z M 28.346022 455.75085 Q 15.944636 455.75085 7.972318 447.77853 L 7.972318 447.77853 L 7.972318 447.77853 Q 0 439.8062 0 427.40485 Q 0 415.00345 7.972318 407.03113 Q 15.944636 399.05884 28.346022 399.05884 Q 40.747406 399.05884 48.719723 407.03113 Q 56.692043 415.00345 56.692043 427.40485 Q 56.692043 439.8062 48.719723 447.77853 Q 40.747406 455.75085 28.346022 455.75085 L 28.346022 455.75085 Z" />
</svg>