<svg xmlns="http://www.w3.org/2000/svg" viewBox="0 0 512 512">
  <path d="M 438.85715 18.285715 Q 461.7143 19.428572 477.7143 34.285713 L 477.7143 34.285713 L 477.7143 34.285713 Q 492.57144 50.285713 493.7143 73.14286 L 493.7143 438.85715 L 493.7143 438.85715 Q 492.57144 461.7143 477.7143 477.7143 Q 461.7143 492.57144 438.85715 493.7143 L 73.14286 493.7143 L 73.14286 493.7143 Q 50.285713 492.57144 34.285713 477.7143 Q 19.428572 461.7143 18.285715 438.85715 L 18.285715 73.14286 L 18.285715 73.14286 Q 19.428572 50.285713 34.285713 34.285713 Q 50.285713 19.428572 73.14286 18.285715 L 438.85715 18.285715 L 438.85715 18.285715 Z M 73.14286 0 Q 42.285713 1.1428572 21.714285 21.714285 L 21.714285 21.714285 L 21.714285 21.714285 Q 1.1428572 42.285713 0 73.14286 L 0 438.85715 L 0 438.85715 Q 1.1428572 469.7143 21.714285 490.2857 Q 42.285713 510.85715 73.14286 512 L 438.85715 512 L 438.85715 512 Q 469.7143 510.85715 490.2857 490.2857 Q 510.85715 469.7143 512 438.85715 L 512 73.14286 L 512 73.14286 Q 510.85715 42.285713 490.2857 21.714285 Q 469.7143 1.1428572 438.85715 0 L 73.14286 0 L 73.14286 0 Z M 146.28572 128 Q 163.42857 129.14285 164.57143 146.28572 Q 163.42857 163.42857 146.28572 164.57143 Q 129.14285 163.42857 128 146.28572 Q 129.14285 129.14285 146.28572 128 L 146.28572 128 Z M 146.28572 182.85715 Q 162.28572 182.85715 172.57143 172.57143 L 172.57143 172.57143 L 172.57143 172.57143 Q 182.85715 162.28572 182.85715 146.28572 Q 182.85715 130.28572 172.57143 120 Q 162.28572 109.71429 146.28572 109.71429 Q 130.28572 109.71429 120 120 Q 109.71429 130.28572 109.71429 146.28572 Q 109.71429 162.28572 120 172.57143 Q 130.28572 182.85715 146.28572 182.85715 L 146.28572 182.85715 Z M 128 365.7143 Q 129.14285 348.57144 146.28572 347.42856 Q 163.42857 348.57144 164.57143 365.7143 Q 163.42857 382.85715 146.28572 384 Q 129.14285 382.85715 128 365.7143 L 128 365.7143 Z M 182.85715 365.7143 Q 182.85715 349.7143 172.57143 339.42856 L 172.57143 339.42856 L 172.57143 339.42856 Q 162.28572 329.14285 146.28572 329.14285 Q 130.28572 329.14285 120 339.42856 Q 109.71429 349.7143 109.71429 365.7143 Q 109.71429 381.7143 120 392 Q 130.28572 402.2857 146.28572 402.2857 Q 162.28572 402.2857 172.57143 392 Q 182.85715 381.7143 182.85715 365.7143 L 182.85715 365.7143 Z M 365.7143 128 Q 382.85715 129.14285 384 146.28572 Q 382.85715 163.42857 365.7143 164.57143 Q 348.57144 163.42857 347.42856 146.28572 Q 348.57144 129.14285 365.7143 128 L 365.7143 128 Z M 365.7143 182.85715 Q 381.7143 182.85715 392 172.57143 L 392 172.57143 L 392 172.57143 Q 402.2857 162.28572 402.2857 146.28572 Q 402.2857 130.28572 392 120 Q 381.7143 109.71429 365.7143 109.71429 Q 349.7143 109.71429 339.42856 120 Q 329.14285 130.28572 329.14285 146.28572 Q 329.14285 162.28572 339.42856 172.57143 Q 349.7143 182.85715 365.7143 182.85715 L 365.7143 182.85715 Z M 347.42856 365.7143 Q 348.57144 348.57144 365.7143 347.42856 Q 382.85715 348.57144 384 365.7143 Q 382.85715 382.85715 365.7143 384 Q 348.57144 382.85715 347.42856 365.7143 L 347.42856 365.7143 Z M 402.2857 365.7143 Q 402.2857 349.7143 392 339.42856 L 392 339.42856 L 392 339.42856 Q 381.7143 329.14285 365.7143 329.14285 Q 349.7143 329.14285 339.42856 339.42856 Q 329.14285 349.7143 329.14285 365.7143 Q 329.14285 381.7143 339.42856 392 Q 349.7143 402.2857 365.7143 402.2857 Q 381.7143 402.2857 392 392 Q 402.2857 381.7143 402.2857 365.7143 L 402.2857 365.7143 Z" />
</svg>