<svg xmlns="http://www.w3.org/2000/svg" viewBox="0 0 512 512">
  <path d="M 308.80942 127.74853 Q 296.7387 142.83693 308.80942 157.92534 L 354.07465 203.19057 L 354.07465 203.19057 Q 369.16306 215.26129 384.25146 203.19057 L 480.8173 106.624756 L 480.8173 106.624756 Q 495.9057 90.53045 495.9057 69.40668 Q 495.9057 48.28291 480.8173 32.188606 Q 463.7171 16.094303 442.59332 16.094303 Q 421.46954 16.094303 405.37524 32.188606 L 308.80942 127.74853 L 308.80942 127.74853 Z M 297.7446 168.99017 Q 286.67978 157.92534 286.67978 142.83693 L 286.67978 142.83693 L 286.67978 142.83693 Q 286.67978 127.74853 297.7446 116.68369 L 393.3045 20.117878 L 393.3045 20.117878 Q 415.43417 0 442.59332 0 Q 470.75836 0 491.8821 20.117878 Q 512 41.24165 512 69.40668 Q 512 96.56582 491.8821 118.69548 L 395.3163 214.2554 L 395.3163 214.2554 Q 384.25146 225.32024 369.16306 225.32024 Q 354.07465 225.32024 343.00983 214.2554 L 325.90964 197.15521 L 325.90964 197.15521 L 225.32024 297.7446 L 225.32024 297.7446 L 297.7446 369.16306 L 297.7446 369.16306 Q 309.81534 383.24557 305.79175 399.33987 Q 301.76816 415.43417 285.67386 422.47543 L 47.27701 505.96463 L 47.27701 505.96463 Q 27.159136 512 14.082515 497.91748 Q 0 484.84085 6.0353637 464.723 L 89.52456 226.32613 L 89.52456 226.32613 Q 96.56582 209.22594 112.66012 206.20825 Q 128.75443 202.18468 142.83693 214.2554 L 214.2554 286.67978 L 214.2554 286.67978 L 314.8448 186.09038 L 314.8448 186.09038 L 297.7446 168.99017 L 297.7446 168.99017 Z M 104.61297 232.3615 L 21.123772 470.75836 L 104.61297 232.3615 L 21.123772 470.75836 Q 18.10609 480.8173 25.147348 486.85266 Q 31.18271 493.89392 41.24165 490.87622 L 279.63852 407.38702 L 279.63852 407.38702 Q 288.69156 404.36935 290.70334 396.3222 Q 291.70923 387.26917 285.67386 381.2338 L 130.7662 226.32613 L 130.7662 226.32613 Q 124.73084 220.29077 115.6778 221.29666 Q 107.630646 223.30844 104.61297 232.3615 L 104.61297 232.3615 Z" />
</svg>