<svg xmlns="http://www.w3.org/2000/svg" viewBox="0 0 448 384">
    <path d="M 19 200 Q 16 197 16 192 Q 16 187 19 184 L 151 52 Q 156 48 162 48 Q 175 49 176 62 L 176 136 Q 177 143 184 144 L 320 144 Q 335 145 336 160 L 336 224 Q 335 239 320 240 L 184 240 Q 177 241 176 248 L 176 322 Q 175 335 162 336 Q 156 336 151 332 L 19 200 L 19 200 Z M 0 192 Q 0 203 8 211 L 140 343 Q 149 352 162 352 Q 175 352 183 343 Q 192 335 192 322 L 192 256 L 320 256 Q 334 256 343 247 Q 352 238 352 224 L 352 160 Q 352 146 343 137 Q 334 128 320 128 L 192 128 L 192 62 Q 192 49 183 41 Q 175 32 162 32 Q 149 32 140 41 L 8 173 Q 0 181 0 192 L 0 192 Z M 448 376 L 448 8 Q 447 1 440 0 Q 433 1 432 8 L 432 376 Q 433 383 440 384 Q 447 383 448 376 L 448 376 Z"/>
</svg>
