<svg xmlns="http://www.w3.org/2000/svg" viewBox="0 0 512 512">
  <path d="M 256 0 Q 280 1 293 21 L 349 112 L 349 112 L 459 112 L 459 112 Q 475 112 485 123 Q 496 134 496 149 Q 496 160 491 169 L 437 256 L 437 256 L 491 343 L 491 343 Q 496 352 496 363 Q 496 379 485 389 Q 474 400 459 400 L 349 400 L 349 400 L 293 492 L 293 492 Q 280 511 256 512 Q 232 511 219 492 L 163 400 L 163 400 L 53 400 L 53 400 Q 38 400 27 389 Q 16 378 16 363 Q 16 352 22 343 L 75 256 L 75 256 L 22 169 L 22 169 Q 16 160 16 149 Q 16 134 27 123 Q 38 112 53 112 L 163 112 L 163 112 L 220 21 L 220 21 Q 232 1 256 0 L 256 0 Z M 154 128 L 53 128 L 154 128 L 53 128 Q 34 130 32 149 Q 32 155 35 161 L 84 241 L 84 241 L 154 128 L 154 128 Z M 94 256 L 172 384 L 94 256 L 172 384 L 340 384 L 340 384 L 418 256 L 418 256 L 340 128 L 340 128 L 172 128 L 172 128 L 94 256 L 94 256 Z M 84 271 L 35 351 L 84 271 L 35 351 Q 32 357 32 363 Q 34 382 53 384 L 153 384 L 153 384 L 84 271 L 84 271 Z M 182 400 L 233 483 L 182 400 L 233 483 Q 241 496 256 496 Q 271 496 279 483 L 330 400 L 330 400 L 182 400 L 182 400 Z M 359 384 L 459 384 L 359 384 L 459 384 Q 478 382 480 363 Q 480 357 477 351 L 428 271 L 428 271 L 359 384 L 359 384 Z M 428 241 L 477 161 L 428 241 L 477 161 Q 480 155 480 149 Q 478 130 459 128 L 359 128 L 359 128 L 428 241 L 428 241 Z M 330 112 L 279 29 L 330 112 L 279 29 Q 271 16 256 16 Q 241 16 233 29 L 182 112 L 182 112 L 330 112 L 330 112 Z" />
</svg>