<svg xmlns="http://www.w3.org/2000/svg" viewBox="0 0 512 516">
    <path d="M 93 64 Q 102 78 107 89 Q 112 101 112 105 Q 112 123 98 135 Q 85 147 64 148 Q 43 147 30 135 Q 16 123 16 105 Q 16 101 21 89 Q 26 78 35 64 Q 50 40 64 23 Q 78 40 93 64 L 93 64 Z M 73 8 Q 64 0 55 8 Q 41 26 21 55 Q 2 85 0 105 Q 1 130 19 147 Q 37 163 64 164 Q 91 163 109 147 Q 127 130 128 105 Q 126 85 107 55 Q 88 26 73 8 L 73 8 Z M 256 20 Q 323 21 377 53 L 377 53 Q 431 85 463 139 L 463 139 Q 495 193 496 260 Q 495 327 463 381 Q 431 435 377 467 Q 323 499 256 500 Q 189 499 135 467 Q 81 435 49 381 Q 17 327 16 260 Q 16 227 25 196 Q 26 189 19 186 Q 12 185 9 192 Q 0 224 0 260 Q 1 332 35 389 Q 69 447 127 481 Q 184 515 256 516 Q 328 515 385 481 Q 443 447 477 389 Q 511 332 512 260 Q 511 188 477 131 Q 443 73 385 39 Q 328 5 256 4 Q 191 5 137 34 Q 130 38 133 44 Q 137 50 144 48 Q 195 21 256 20 L 256 20 Z M 179 418 Q 184 422 190 417 Q 199 406 216 397 Q 233 388 256 388 Q 279 388 296 397 Q 313 406 322 417 Q 328 422 333 418 Q 338 413 334 407 Q 323 394 303 383 Q 284 373 256 372 Q 228 373 209 383 Q 189 394 178 407 Q 174 412 179 418 L 179 418 Z M 400 276 L 304 276 Q 297 277 296 284 Q 297 291 304 292 L 400 292 Q 407 291 408 284 Q 407 277 400 276 L 400 276 Z M 216 284 Q 215 277 208 276 L 112 276 Q 105 277 104 284 Q 105 291 112 292 L 208 292 Q 215 291 216 284 L 216 284 Z"/>
</svg>
