<svg xmlns="http://www.w3.org/2000/svg" viewBox="0 0 512 512">
  <path d="M 272.40388349514564 27.836893203883495 Q 345.97281553398057 5.965048543689321 381.7631067961165 39.76699029126213 Q 415.56504854368933 75.55728155339806 393.69320388349513 149.126213592233 Q 371.821359223301 223.6893203883495 298.252427184466 298.252427184466 Q 223.6893203883495 370.8271844660194 149.126213592233 393.69320388349513 Q 75.55728155339806 415.56504854368933 39.76699029126213 381.7631067961165 Q 5.965048543689321 345.97281553398057 27.836893203883495 272.40388349514564 Q 49.70873786407767 197.84077669902913 123.27766990291262 123.27766990291262 Q 197.84077669902913 50.702912621359225 272.40388349514564 27.836893203883495 L 272.40388349514564 27.836893203883495 Z M 392.6990291262136 28.831067961165047 Q 370.8271844660194 6.959223300970874 338.0194174757282 3.9766990291262134 L 338.0194174757282 3.9766990291262134 L 338.0194174757282 3.9766990291262134 Q 305.2116504854369 0 267.43300970873787 11.930097087378641 Q 188.89320388349515 36.78446601941747 111.34757281553398 111.34757281553398 Q 36.78446601941747 188.89320388349515 11.930097087378641 267.43300970873787 Q 0 305.2116504854369 3.9766990291262134 338.0194174757282 Q 6.959223300970874 370.8271844660194 28.831067961165047 392.6990291262136 L 72.5747572815534 436.44271844660193 L 72.5747572815534 436.44271844660193 Q 108.36504854368933 473.2271844660194 156.08543689320388 492.11650485436894 Q 202.8116504854369 512 254.50873786407766 512 Q 326.0893203883495 511.00582524271846 384.74563106796114 477.20388349514565 Q 442.40776699029124 442.40776699029124 477.20388349514565 384.74563106796114 Q 511.00582524271846 326.0893203883495 512 254.50873786407766 Q 512 202.8116504854369 492.11650485436894 156.08543689320388 Q 473.2271844660194 108.36504854368933 436.44271844660193 72.5747572815534 L 392.6990291262136 28.831067961165047 L 392.6990291262136 28.831067961165047 Z M 416.55922330097087 74.5631067961165 L 425.50679611650486 83.51067961165049 L 416.55922330097087 74.5631067961165 L 425.50679611650486 83.51067961165049 Q 459.30873786407767 117.3126213592233 478.1980582524272 162.0504854368932 Q 496.09320388349516 205.79417475728155 496.09320388349516 254.50873786407766 Q 496.09320388349516 273.3980582524272 493.1106796116505 291.29320388349515 L 446.38446601941746 243.5728155339806 L 446.38446601941746 243.5728155339806 Q 440.41941747572815 239.59611650485436 434.45436893203885 243.5728155339806 Q 430.4776699029126 249.5378640776699 434.45436893203885 255.50291262135923 L 490.1281553398058 310.18252427184467 L 490.1281553398058 310.18252427184467 Q 474.22135922330096 373.80970873786407 430.4776699029126 419.54174757281555 Q 430.4776699029126 419.54174757281555 430.4776699029126 419.54174757281555 Q 430.4776699029126 418.54757281553395 430.4776699029126 418.54757281553395 L 366.8504854368932 354.92038834951455 L 366.8504854368932 354.92038834951455 Q 360.88543689320386 350.94368932038833 355.9145631067961 354.92038834951455 Q 350.94368932038833 360.88543689320386 355.9145631067961 366.8504854368932 L 419.54174757281555 430.4776699029126 L 419.54174757281555 430.4776699029126 Q 419.54174757281555 430.4776699029126 419.54174757281555 430.4776699029126 Q 419.54174757281555 430.4776699029126 419.54174757281555 430.4776699029126 Q 373.80970873786407 474.22135922330096 310.18252427184467 489.13398058252426 L 255.50291262135923 434.45436893203885 L 255.50291262135923 434.45436893203885 Q 249.5378640776699 430.4776699029126 244.56699029126213 434.45436893203885 Q 239.59611650485436 440.41941747572815 244.56699029126213 445.3902912621359 L 291.29320388349515 493.1106796116505 L 291.29320388349515 493.1106796116505 Q 273.3980582524272 496.09320388349516 254.50873786407766 496.09320388349516 Q 205.79417475728155 496.09320388349516 162.0504854368932 477.20388349514565 Q 118.30679611650486 459.30873786407767 83.51067961165049 425.50679611650486 L 74.5631067961165 416.55922330097087 L 74.5631067961165 416.55922330097087 Q 110.35339805825242 422.5242718446602 154.09708737864077 408.6058252427184 Q 232.6368932038835 384.74563106796114 310.18252427184467 309.18834951456313 Q 384.74563106796114 232.6368932038835 409.6 154.09708737864077 Q 422.5242718446602 110.35339805825242 416.55922330097087 74.5631067961165 L 416.55922330097087 74.5631067961165 Z M 331.06019417475727 83.51067961165049 Q 337.0252427184466 88.48155339805825 337.0252427184466 104.3883495145631 Q 337.0252427184466 120.29514563106797 327.08349514563105 145.1495145631068 Q 307.2 195.85242718446602 251.526213592233 251.526213592233 Q 195.85242718446602 306.20582524271845 145.1495145631068 327.08349514563105 Q 120.29514563106797 337.0252427184466 104.3883495145631 337.0252427184466 Q 88.48155339805825 337.0252427184466 83.51067961165049 330.06601941747573 Q 76.55145631067961 325.09514563106796 76.55145631067961 309.18834951456313 Q 76.55145631067961 293.28155339805824 86.49320388349514 268.4271844660194 Q 106.37669902912621 217.7242718446602 162.0504854368932 162.0504854368932 Q 217.7242718446602 107.37087378640777 268.4271844660194 86.49320388349514 Q 293.28155339805824 76.55145631067961 309.18834951456313 76.55145631067961 Q 325.09514563106796 76.55145631067961 331.06019417475727 83.51067961165049 L 331.06019417475727 83.51067961165049 Z M 341.99611650485434 71.58058252427185 Q 316.147572815534 49.70873786407767 262.4621359223301 71.58058252427185 L 262.4621359223301 71.58058252427185 L 262.4621359223301 71.58058252427185 Q 208.7766990291262 93.45242718446602 150.12038834951457 150.12038834951457 Q 93.45242718446602 208.7766990291262 71.58058252427185 262.4621359223301 Q 49.70873786407767 316.147572815534 71.58058252427185 341.99611650485434 Q 97.42912621359223 363.86796116504854 151.1145631067961 341.99611650485434 Q 204.8 320.1242718446602 263.45631067961165 263.45631067961165 Q 320.1242718446602 204.8 341.99611650485434 151.1145631067961 Q 363.86796116504854 97.42912621359223 341.99611650485434 71.58058252427185 L 341.99611650485434 71.58058252427185 Z" />
</svg>