<svg xmlns="http://www.w3.org/2000/svg" viewBox="0 0 448 448">
    <path d="M 64 16 Q 44 17 30 30 L 30 30 Q 17 44 16 64 L 16 384 Q 17 404 30 418 Q 44 431 64 432 L 384 432 Q 404 431 418 418 Q 431 404 432 384 L 432 64 Q 431 44 418 30 Q 404 17 384 16 L 64 16 L 64 16 Z M 0 64 Q 1 37 19 19 L 19 19 Q 37 1 64 0 L 384 0 Q 411 1 429 19 Q 447 37 448 64 L 448 384 Q 447 411 429 429 Q 411 447 384 448 L 64 448 Q 37 447 19 429 Q 1 411 0 384 L 0 64 L 0 64 Z M 208 128 Q 209 113 224 112 Q 239 113 240 128 Q 239 143 224 144 Q 209 143 208 128 L 208 128 Z M 192 176 L 224 176 Q 231 177 232 184 L 232 320 L 272 320 Q 279 321 280 328 Q 279 335 272 336 L 176 336 Q 169 335 168 328 Q 169 321 176 320 L 216 320 L 216 192 L 192 192 Q 185 191 184 184 Q 185 177 192 176 L 192 176 Z"/>
</svg>
