<svg xmlns="http://www.w3.org/2000/svg" viewBox="0 0 640 512">
    <path d="M 512 16 L 64 16 Q 44 17 30 30 Q 17 44 16 64 L 16 352 Q 17 372 30 386 Q 44 399 64 400 L 232 400 L 232 400 L 323 400 Q 324 408 327 416 L 239 416 L 226 496 L 288 496 L 351 496 L 367 496 L 375 496 Q 384 505 395 512 L 360 512 L 216 512 L 136 512 Q 129 511 128 504 Q 129 497 136 496 L 209 496 L 223 416 L 64 416 Q 37 415 19 397 Q 1 379 0 352 L 0 64 Q 1 37 19 19 Q 37 1 64 0 L 512 0 Q 539 1 557 19 Q 575 37 576 64 L 576 211 Q 568 207 560 204 L 560 64 Q 559 44 546 30 Q 532 17 512 16 L 512 16 Z M 512 193 Q 504 192 496 192 L 496 80 L 80 80 L 80 336 L 323 336 Q 321 344 321 352 L 80 352 Q 65 351 64 336 L 64 80 Q 65 65 80 64 L 496 64 Q 511 65 512 80 L 512 193 L 512 193 Z M 448 199 Q 440 201 432 204 L 432 155 L 326 262 Q 323 264 320 264 Q 317 264 314 262 L 240 187 L 134 294 Q 128 298 122 294 Q 118 288 122 282 L 234 170 Q 240 166 246 170 L 320 245 L 421 144 L 352 144 Q 345 143 344 136 Q 345 129 352 128 L 440 128 Q 447 129 448 136 L 448 199 L 448 199 Z M 496 496 Q 531 496 560 479 L 560 479 Q 589 462 607 432 Q 624 402 624 368 Q 624 334 607 304 Q 589 274 560 257 Q 531 240 496 240 Q 461 240 432 257 Q 403 274 385 304 Q 368 334 368 368 Q 368 402 385 432 Q 403 462 432 479 Q 461 496 496 496 L 496 496 Z M 496 224 Q 535 224 568 243 L 568 243 Q 601 262 621 296 Q 640 330 640 368 Q 640 406 621 440 Q 601 474 568 493 Q 535 512 496 512 Q 457 512 424 493 Q 391 474 371 440 Q 352 406 352 368 Q 352 330 371 296 Q 391 262 424 243 Q 457 224 496 224 L 496 224 Z M 496 424 Q 528 423 544 396 Q 560 368 544 340 Q 528 313 496 312 Q 464 313 448 340 Q 432 368 448 396 Q 464 423 496 424 L 496 424 Z M 552 413 L 574 434 L 562 446 L 541 424 Q 522 440 496 440 Q 470 440 451 424 L 430 446 L 418 434 L 440 413 Q 424 394 424 368 Q 425 342 440 323 L 418 302 L 430 290 L 451 312 Q 470 296 496 296 Q 522 296 541 312 L 562 290 L 574 302 L 552 323 Q 568 342 568 368 Q 567 394 552 413 L 552 413 Z"/>
</svg>
