<svg xmlns="http://www.w3.org/2000/svg" viewBox="0 0 384 512">
    <path d="M 64 16 Q 44 17 30 30 L 30 30 Q 17 44 16 64 L 16 448 Q 17 468 30 482 Q 44 495 64 496 L 320 496 Q 340 495 354 482 Q 367 468 368 448 L 368 64 Q 367 44 354 30 Q 340 17 320 16 L 64 16 L 64 16 Z M 0 64 Q 1 37 19 19 L 19 19 Q 37 1 64 0 L 320 0 Q 347 1 365 19 Q 383 37 384 64 L 384 448 Q 383 475 365 493 Q 347 511 320 512 L 64 512 Q 37 511 19 493 Q 1 475 0 448 L 0 64 L 0 64 Z M 96 80 Q 81 81 80 96 L 80 128 Q 81 143 96 144 L 288 144 Q 303 143 304 128 L 304 96 Q 303 81 288 80 L 96 80 L 96 80 Z M 64 96 Q 64 82 73 73 L 73 73 Q 82 64 96 64 L 288 64 Q 302 64 311 73 Q 320 82 320 96 L 320 128 Q 320 142 311 151 Q 302 160 288 160 L 96 160 Q 82 160 73 151 Q 64 142 64 128 L 64 96 L 64 96 Z M 80 224 Q 81 239 96 240 Q 111 239 112 224 Q 111 209 96 208 Q 81 209 80 224 L 80 224 Z M 96 256 Q 82 256 73 247 L 73 247 Q 64 238 64 224 Q 64 210 73 201 Q 82 192 96 192 Q 110 192 119 201 Q 128 210 128 224 Q 128 238 119 247 Q 110 256 96 256 L 96 256 Z M 96 336 Q 111 335 112 320 Q 111 305 96 304 Q 81 305 80 320 Q 81 335 96 336 L 96 336 Z M 128 320 Q 128 334 119 343 L 119 343 Q 110 352 96 352 Q 82 352 73 343 Q 64 334 64 320 Q 64 306 73 297 Q 82 288 96 288 Q 110 288 119 297 Q 128 306 128 320 L 128 320 Z M 192 400 L 96 400 Q 81 401 80 416 Q 81 431 96 432 L 192 432 Q 207 431 208 416 Q 207 401 192 400 L 192 400 Z M 96 384 L 192 384 Q 206 384 215 393 Q 224 402 224 416 Q 224 430 215 439 Q 206 448 192 448 L 96 448 Q 82 448 73 439 Q 64 430 64 416 Q 64 402 73 393 Q 82 384 96 384 L 96 384 Z M 192 240 Q 207 239 208 224 Q 207 209 192 208 Q 177 209 176 224 Q 177 239 192 240 L 192 240 Z M 224 224 Q 224 238 215 247 L 215 247 Q 206 256 192 256 Q 178 256 169 247 Q 160 238 160 224 Q 160 210 169 201 Q 178 192 192 192 Q 206 192 215 201 Q 224 210 224 224 L 224 224 Z M 176 320 Q 177 335 192 336 Q 207 335 208 320 Q 207 305 192 304 Q 177 305 176 320 L 176 320 Z M 192 352 Q 178 352 169 343 L 169 343 Q 160 334 160 320 Q 160 306 169 297 Q 178 288 192 288 Q 206 288 215 297 Q 224 306 224 320 Q 224 334 215 343 Q 206 352 192 352 L 192 352 Z M 288 240 Q 303 239 304 224 Q 303 209 288 208 Q 273 209 272 224 Q 273 239 288 240 L 288 240 Z M 320 224 Q 320 238 311 247 L 311 247 Q 302 256 288 256 Q 274 256 265 247 Q 256 238 256 224 Q 256 210 265 201 Q 274 192 288 192 Q 302 192 311 201 Q 320 210 320 224 L 320 224 Z M 272 320 Q 273 335 288 336 Q 303 335 304 320 Q 303 305 288 304 Q 273 305 272 320 L 272 320 Z M 288 352 Q 274 352 265 343 L 265 343 Q 256 334 256 320 Q 256 306 265 297 Q 274 288 288 288 Q 302 288 311 297 Q 320 306 320 320 Q 320 334 311 343 Q 302 352 288 352 L 288 352 Z M 288 432 Q 303 431 304 416 Q 303 401 288 400 Q 273 401 272 416 Q 273 431 288 432 L 288 432 Z M 320 416 Q 320 430 311 439 L 311 439 Q 302 448 288 448 Q 274 448 265 439 Q 256 430 256 416 Q 256 402 265 393 Q 274 384 288 384 Q 302 384 311 393 Q 320 402 320 416 L 320 416 Z"/>
</svg>
