<svg xmlns="http://www.w3.org/2000/svg" viewBox="0 0 576 512">
    <path d="M 320 8 Q 319 1 312 0 Q 305 1 304 8 L 304 24 L 302 24 L 73 87 Q 55 92 44 107 Q 32 121 32 141 L 32 344 Q 32 361 44 372 Q 55 384 72 384 L 472 384 Q 489 384 500 372 Q 512 361 512 344 L 512 298 Q 512 273 497 254 Q 482 235 458 228 L 320 194 L 320 136 L 320 8 L 320 8 Z M 78 102 L 304 40 L 304 128 L 248 128 Q 241 129 240 136 Q 241 143 248 144 L 304 144 L 304 192 L 248 192 Q 241 193 240 200 Q 241 207 248 208 L 311 208 L 454 244 Q 473 249 484 263 Q 496 278 496 298 L 496 344 Q 494 366 472 368 L 72 368 Q 50 366 48 344 L 48 141 Q 50 111 78 102 L 78 102 Z M 128 424 L 128 416 L 112 416 L 112 424 L 112 496 L 8 496 Q 1 497 0 504 Q 1 511 8 512 L 120 512 L 408 512 L 504 512 Q 535 511 555 491 Q 575 471 576 440 Q 575 433 568 432 Q 561 433 560 440 Q 559 464 544 480 Q 528 495 504 496 L 416 496 L 416 424 L 416 416 L 400 416 L 400 424 L 400 496 L 128 496 L 128 424 L 128 424 Z"/>
</svg>
