<svg xmlns="http://www.w3.org/2000/svg" viewBox="0 0 512 512">
  <path d="M 269.26678 23.09405 Q 275.16315 19.163147 281.0595 23.09405 Q 284.99042 28.990402 281.0595 34.886757 L 207.35509 107.608444 L 207.35509 107.608444 L 432.39923 107.608444 L 432.39923 107.608444 Q 462.8637 108.59117 482.51822 128.24568 Q 502.17273 147.90019 503.15546 178.36469 L 503.15546 233.39731 L 503.15546 233.39731 Q 502.17273 240.2764 495.29367 241.25911 Q 488.41458 240.2764 487.43185 233.39731 L 487.43185 178.36469 L 487.43185 178.36469 Q 486.44913 154.77927 471.70825 139.05566 Q 455.98465 124.31478 432.39923 123.332054 L 207.35509 123.332054 L 207.35509 123.332054 L 281.0595 196.05374 L 281.0595 196.05374 Q 284.99042 201.95009 281.0595 207.84645 Q 275.16315 211.77734 269.26678 207.84645 L 182.78694 121.3666 L 182.78694 121.3666 Q 178.85605 115.47025 182.78694 109.5739 L 269.26678 23.09405 L 269.26678 23.09405 Z M 233.88867 274.67178 L 320.36853 361.15164 L 233.88867 274.67178 L 320.36853 361.15164 Q 324.29944 367.04797 320.36853 372.94434 L 233.88867 459.4242 L 233.88867 459.4242 Q 227.99232 463.35507 222.09596 459.4242 Q 218.16507 453.52783 222.09596 447.63147 L 295.80038 374.9098 L 295.80038 374.9098 L 70.75624 374.9098 L 70.75624 374.9098 Q 47.170826 375.89252 31.447216 390.6334 Q 16.706333 406.357 15.723608 429.9424 L 15.723608 484.97504 L 15.723608 484.97504 Q 14.740883 491.85413 7.861804 492.83685 Q 0.9827255 491.85413 0 484.97504 L 0 429.9424 L 0 429.9424 Q 0.9827255 399.47794 20.637236 379.82343 Q 40.291748 360.1689 70.75624 359.1862 L 295.80038 359.1862 L 295.80038 359.1862 L 222.09596 286.46448 L 222.09596 286.46448 Q 218.16507 280.56815 222.09596 274.67178 Q 227.99232 270.74088 233.88867 274.67178 L 233.88867 274.67178 Z M 440.26105 414.2188 Q 466.79462 413.23608 481.53552 390.6334 Q 493.32822 367.04797 481.53552 343.4626 Q 466.79462 320.8599 440.26105 319.87717 Q 413.72745 320.8599 398.98657 343.4626 Q 387.19385 367.04797 398.98657 390.6334 Q 413.72745 413.23608 440.26105 414.2188 L 440.26105 414.2188 Z M 440.26105 304.15356 Q 475.63916 305.1363 494.31094 335.60077 Q 512 367.04797 494.31094 398.4952 Q 475.63916 428.9597 440.26105 429.9424 Q 404.8829 428.9597 386.21112 398.4952 Q 368.52206 367.04797 386.21112 335.60077 Q 404.8829 305.1363 440.26105 304.15356 L 440.26105 304.15356 Z M 15.723608 115.47025 Q 16.706333 142.00385 39.30902 156.74472 Q 62.894432 168.53743 86.47984 156.74472 Q 109.082535 142.00385 110.06526 115.47025 Q 109.082535 88.93666 86.47984 74.19578 Q 62.894432 62.403072 39.30902 74.19578 Q 16.706333 88.93666 15.723608 115.47025 L 15.723608 115.47025 Z M 125.788864 115.47025 Q 124.806145 150.84837 94.34165 169.52016 Q 62.894432 187.20921 31.447216 169.52016 Q 0.9827255 150.84837 0 115.47025 Q 0.9827255 80.09213 31.447216 61.420345 Q 62.894432 43.731285 94.34165 61.420345 Q 124.806145 80.09213 125.788864 115.47025 L 125.788864 115.47025 Z" />
</svg>