<svg xmlns="http://www.w3.org/2000/svg" viewBox="0 0 512 512">
  <path d="M 112 16 Q 98 16 89 25 L 89 25 L 89 25 Q 80 34 80 48 L 80 464 L 80 464 Q 80 478 89 487 Q 98 496 112 496 L 208 496 L 208 496 L 208 416 L 208 416 Q 209 396 222 382 Q 236 369 256 368 Q 276 369 290 382 Q 303 396 304 416 L 304 496 L 304 496 L 400 496 L 400 496 Q 414 496 423 487 Q 432 478 432 464 L 432 48 L 432 48 Q 432 34 423 25 Q 414 16 400 16 L 112 16 L 112 16 Z M 288 496 L 288 416 L 288 496 L 288 416 Q 288 402 279 393 Q 270 384 256 384 Q 242 384 233 393 Q 224 402 224 416 L 224 496 L 224 496 L 288 496 L 288 496 Z M 208 512 L 112 512 L 208 512 L 112 512 Q 92 511 78 498 Q 65 484 64 464 L 64 48 L 64 48 Q 65 28 78 14 Q 92 1 112 0 L 400 0 L 400 0 Q 420 1 434 14 Q 447 28 448 48 L 448 464 L 448 464 Q 447 484 434 498 Q 420 511 400 512 L 304 512 L 208 512 Z M 168 232 L 200 232 L 168 232 L 200 232 Q 222 234 224 256 L 224 288 L 224 288 Q 222 310 200 312 L 168 312 L 168 312 Q 146 310 144 288 L 144 256 L 144 256 Q 146 234 168 232 L 168 232 Z M 160 256 L 160 288 L 160 256 L 160 288 Q 161 295 168 296 L 200 296 L 200 296 Q 207 295 208 288 L 208 256 L 208 256 Q 207 249 200 248 L 168 248 L 168 248 Q 161 249 160 256 L 160 256 Z M 288 256 Q 290 234 312 232 L 344 232 L 344 232 Q 366 234 368 256 L 368 288 L 368 288 Q 366 310 344 312 L 312 312 L 312 312 Q 290 310 288 288 L 288 256 L 288 256 Z M 312 248 Q 305 249 304 256 L 304 288 L 304 288 Q 305 295 312 296 L 344 296 L 344 296 Q 351 295 352 288 L 352 256 L 352 256 Q 351 249 344 248 L 312 248 L 312 248 Z M 240 56 L 280 56 L 240 56 L 280 56 Q 287 57 288 64 Q 287 71 280 72 L 240 72 L 240 72 L 240 152 L 240 152 L 272 152 L 272 152 L 272 128 L 272 128 Q 273 121 280 120 Q 287 121 288 128 L 288 152 L 288 152 Q 287 167 272 168 L 240 168 L 240 168 Q 225 167 224 152 L 224 72 L 224 72 Q 225 57 240 56 L 240 56 Z M 360 72 Q 338 74 336 96 L 336 128 L 336 128 Q 338 150 360 152 Q 382 150 384 128 L 384 96 L 384 96 Q 382 74 360 72 L 360 72 Z M 320 96 Q 320 79 332 68 L 332 68 L 332 68 Q 343 56 360 56 Q 377 56 388 68 Q 400 79 400 96 L 400 128 L 400 128 Q 400 145 388 156 Q 377 168 360 168 Q 343 168 332 156 Q 320 145 320 128 L 320 96 L 320 96 Z M 127 60 L 176 134 L 127 60 L 176 134 L 176 64 L 176 64 Q 177 57 184 56 Q 191 57 192 64 L 192 160 L 192 160 Q 192 166 186 168 Q 181 169 177 165 L 128 90 L 128 90 L 128 160 L 128 160 Q 127 167 120 168 Q 113 167 112 160 L 112 64 L 112 64 Q 112 58 118 56 Q 123 55 127 60 L 127 60 Z" />
</svg>