<svg xmlns="http://www.w3.org/2000/svg" viewBox="0 0 512 512">
  <path d="M 404.57144 18.285715 Q 398.85715 18.285715 394.2857 22.857143 L 236.57143 162.28572 L 236.57143 162.28572 Q 234.28572 164.57143 230.85715 164.57143 L 137.14285 164.57143 L 137.14285 164.57143 Q 117.71429 164.57143 105.14286 178.28572 Q 91.42857 190.85715 91.42857 210.28572 L 91.42857 301.7143 L 91.42857 301.7143 Q 91.42857 321.14285 105.14286 333.7143 Q 117.71429 347.42856 137.14285 347.42856 L 230.85715 347.42856 L 230.85715 347.42856 Q 234.28572 347.42856 236.57143 349.7143 L 394.2857 490.2857 L 394.2857 490.2857 Q 398.85715 493.7143 404.57144 493.7143 Q 419.42856 492.57144 420.57144 477.7143 L 420.57144 34.285713 L 420.57144 34.285713 Q 419.42856 19.428572 404.57144 18.285715 L 404.57144 18.285715 Z M 381.7143 9.142858 Q 392 0 404.57144 0 Q 419.42856 0 428.57144 10.285714 Q 438.85715 19.428572 438.85715 34.285713 L 438.85715 477.7143 L 438.85715 477.7143 Q 438.85715 492.57144 428.57144 501.7143 Q 419.42856 512 404.57144 512 Q 392 512 381.7143 504 L 227.42857 365.7143 L 227.42857 365.7143 L 137.14285 365.7143 L 137.14285 365.7143 Q 109.71429 364.57144 91.42857 347.42856 Q 74.28571 329.14285 73.14286 301.7143 L 73.14286 210.28572 L 73.14286 210.28572 Q 74.28571 182.85715 91.42857 164.57143 Q 109.71429 147.42857 137.14285 146.28572 L 227.42857 146.28572 L 227.42857 146.28572 L 381.7143 9.142858 L 381.7143 9.142858 Z" />
</svg>