<svg xmlns="http://www.w3.org/2000/svg" viewBox="0 0 562 448">
    <path d="M 281 20 Q 285 16 290 16 Q 303 17 304 30 L 304 418 Q 303 431 290 432 Q 285 432 281 429 L 143 306 Q 141 304 138 304 L 56 304 Q 39 304 28 292 Q 16 281 16 264 L 16 184 Q 16 167 28 156 Q 39 144 56 144 L 138 144 Q 141 144 143 142 L 281 20 L 281 20 Z M 290 0 Q 279 0 270 8 L 135 128 L 56 128 Q 32 129 16 144 Q 1 160 0 184 L 0 264 Q 1 288 16 304 Q 32 319 56 320 L 135 320 L 270 441 Q 279 448 290 448 Q 303 448 311 439 Q 320 431 320 418 L 320 30 Q 320 17 311 9 Q 303 0 290 0 L 290 0 Z M 414 146 Q 408 142 402 146 Q 398 152 402 158 L 469 224 L 402 290 Q 398 296 402 302 Q 408 306 414 302 L 480 235 L 546 302 Q 552 306 558 302 Q 562 296 558 290 L 491 224 L 558 158 Q 562 152 558 146 Q 552 142 546 146 L 480 213 L 414 146 L 414 146 Z"/>
</svg>
