<svg xmlns="http://www.w3.org/2000/svg" viewBox="0 0 576 512">
    <path d="M 432 240 Q 467 240 496 257 L 496 257 Q 525 274 543 304 Q 560 334 560 368 Q 560 402 543 432 Q 525 462 496 479 Q 467 496 432 496 Q 397 496 368 479 Q 339 462 321 432 Q 304 402 304 368 Q 304 334 321 304 Q 339 274 368 257 Q 397 240 432 240 L 432 240 Z M 432 512 Q 471 512 504 493 L 504 493 Q 537 474 557 440 Q 576 406 576 368 Q 576 330 557 296 Q 537 262 504 243 Q 471 224 432 224 Q 393 224 360 243 Q 327 262 307 296 Q 288 330 288 368 Q 288 406 307 440 Q 327 474 360 493 Q 393 512 432 512 L 432 512 Z M 432 288 Q 425 289 424 296 L 424 360 L 360 360 Q 353 361 352 368 Q 353 375 360 376 L 424 376 L 424 440 Q 425 447 432 448 Q 439 447 440 440 L 440 376 L 504 376 Q 511 375 512 368 Q 511 361 504 360 L 440 360 L 440 296 Q 439 289 432 288 L 432 288 Z M 104 0 Q 111 1 112 8 L 112 112 L 96 112 L 96 8 Q 97 1 104 0 L 104 0 Z M 280 0 Q 287 1 288 8 L 288 112 L 272 112 L 272 8 Q 273 1 280 0 L 280 0 Z M 0 152 Q 1 145 8 144 L 40 144 L 56 144 L 328 144 L 344 144 L 376 144 Q 383 145 384 152 Q 383 159 376 160 L 344 160 L 344 216 Q 336 220 328 226 L 328 160 L 56 160 L 56 240 Q 57 298 96 336 Q 134 375 192 376 Q 227 376 256 360 Q 256 364 256 368 Q 256 373 256 378 Q 230 390 200 392 L 200 504 Q 199 511 192 512 Q 185 511 184 504 L 184 392 Q 122 387 82 345 Q 41 302 40 240 L 40 160 L 8 160 Q 1 159 0 152 L 0 152 Z"/>
</svg>
