<svg xmlns="http://www.w3.org/2000/svg" viewBox="0 0 512 512">
  <path d="M 0 184.88889 Q 0.8888889 141.33333 34.666668 105.77778 L 34.666668 105.77778 L 34.666668 105.77778 Q 69.333336 71.111115 127.111115 49.77778 L 127.111115 49.77778 L 127.111115 49.77778 Q 184.88889 29.333334 256 28.444445 L 256 42.666668 L 256 42.666668 Q 188.44444 43.555557 134.22223 62.22222 Q 79.111115 80.888885 47.11111 112.888885 Q 15.111111 144.88889 14.222222 184.88889 Q 15.111111 221.33333 41.77778 251.55556 Q 69.333336 280.8889 116.44444 301.33334 L 116.44444 301.33334 L 116.44444 301.33334 Q 124.44444 304 132.44444 307.55554 L 132.44444 307.55554 L 132.44444 307.55554 Q 187.55556 326.22223 256 327.1111 Q 323.55554 326.22223 377.77777 307.55554 Q 432.8889 288.8889 464.8889 256.8889 Q 496.8889 224.88889 497.77777 184.88889 Q 496.8889 138.66667 454.22223 103.111115 Q 410.66666 67.55556 341.33334 51.555557 L 341.33334 37.333332 L 341.33334 37.333332 Q 416.8889 54.22222 464 93.333336 Q 510.22223 133.33333 512 184.88889 Q 511.1111 228.44444 477.33334 264 Q 442.66666 299.55554 384.8889 320 Q 327.1111 340.44446 256 341.33334 Q 215.11111 341.33334 178.66667 334.22223 Q 205.33333 359.1111 206.22223 397.33334 Q 205.33333 433.77777 181.33333 458.66666 Q 156.44444 482.66666 120 483.55554 L 35.555557 483.55554 L 35.555557 483.55554 Q 29.333334 482.66666 28.444445 476.44446 Q 29.333334 470.22223 35.555557 469.33334 L 120 469.33334 L 120 469.33334 Q 150.22223 468.44446 170.66667 448 Q 191.11111 427.55554 192 397.33334 Q 192 376.8889 181.33333 359.1111 Q 170.66667 342.22223 152 333.33334 L 125.333336 319.1111 L 125.333336 319.1111 Q 68.44444 298.66666 34.666668 263.1111 Q 0.8888889 228.44444 0 184.88889 L 0 184.88889 Z M 298.66666 35.555557 Q 304.8889 36.444443 305.77777 42.666668 L 305.77777 92.44444 L 305.77777 92.44444 L 355.55554 92.44444 L 355.55554 92.44444 Q 361.77777 93.333336 362.66666 99.55556 Q 361.77777 105.77778 355.55554 106.666664 L 305.77777 106.666664 L 305.77777 106.666664 L 305.77777 156.44444 L 305.77777 156.44444 Q 304.8889 162.66667 298.66666 163.55556 Q 292.44446 162.66667 291.55554 156.44444 L 291.55554 106.666664 L 291.55554 106.666664 L 241.77777 106.666664 L 241.77777 106.666664 Q 235.55556 105.77778 234.66667 99.55556 Q 235.55556 93.333336 241.77777 92.44444 L 291.55554 92.44444 L 291.55554 92.44444 L 291.55554 42.666668 L 291.55554 42.666668 Q 292.44446 36.444443 298.66666 35.555557 L 298.66666 35.555557 Z M 448 355.55554 L 448 405.33334 L 448 355.55554 L 448 405.33334 L 497.77777 405.33334 L 497.77777 405.33334 Q 504 406.22223 504.8889 412.44446 Q 504 418.66666 497.77777 419.55554 L 448 419.55554 L 448 419.55554 L 448 469.33334 L 448 469.33334 Q 447.1111 475.55554 440.8889 476.44446 Q 434.66666 475.55554 433.77777 469.33334 L 433.77777 419.55554 L 433.77777 419.55554 L 384 419.55554 L 384 419.55554 Q 377.77777 418.66666 376.8889 412.44446 Q 377.77777 406.22223 384 405.33334 L 433.77777 405.33334 L 433.77777 405.33334 L 433.77777 355.55554 L 433.77777 355.55554 Q 434.66666 349.33334 440.8889 348.44446 Q 447.1111 349.33334 448 355.55554 L 448 355.55554 Z" />
</svg>