<svg xmlns="http://www.w3.org/2000/svg" viewBox="0 0 448 512">
    <path d="M 320 112 Q 320 86 307 64 L 307 64 Q 294 42 272 29 Q 249 16 224 16 Q 199 16 176 29 Q 154 42 141 64 Q 128 86 128 112 Q 128 138 141 160 Q 154 182 176 195 Q 199 208 224 208 Q 249 208 272 195 Q 294 182 307 160 Q 320 138 320 112 L 320 112 Z M 336 112 Q 335 157 306 189 L 306 189 Q 277 220 232 224 L 232 352 L 384 352 Q 411 353 429 371 Q 447 389 448 416 L 448 448 Q 447 475 429 493 Q 411 511 384 512 L 64 512 Q 37 511 19 493 Q 1 475 0 448 L 0 416 Q 1 389 19 371 Q 37 353 64 352 L 216 352 L 216 224 Q 171 220 142 188 Q 113 157 112 112 Q 113 64 145 33 Q 176 1 224 0 Q 272 1 303 33 Q 335 64 336 112 L 336 112 Z M 64 312 Q 65 305 72 304 L 120 304 Q 127 305 128 312 Q 127 319 120 320 L 72 320 Q 65 319 64 312 L 64 312 Z M 432 416 Q 431 396 418 382 L 418 382 Q 404 369 384 368 L 64 368 Q 44 369 30 382 Q 17 396 16 416 L 16 448 Q 17 468 30 482 Q 44 495 64 496 L 384 496 Q 404 495 418 482 Q 431 468 432 448 L 432 416 L 432 416 Z M 192 80 Q 193 95 208 96 Q 223 95 224 80 Q 223 65 208 64 Q 193 65 192 80 L 192 80 Z M 208 112 Q 194 112 185 103 L 185 103 Q 176 94 176 80 Q 176 66 185 57 Q 194 48 208 48 Q 222 48 231 57 Q 240 66 240 80 Q 240 94 231 103 Q 222 112 208 112 L 208 112 Z"/>
</svg>
