<svg xmlns="http://www.w3.org/2000/svg" viewBox="0 0 514 514">
    <path d="M 264 2 Q 257 3 256 10 Q 257 17 264 18 Q 329 19 381 50 Q 433 81 464 133 Q 495 185 496 250 Q 497 257 504 258 Q 511 257 512 250 Q 511 181 478 125 Q 445 69 389 36 Q 333 3 264 2 L 264 2 Z M 272 226 Q 273 211 288 210 Q 303 211 304 226 Q 303 241 288 242 Q 273 241 272 226 L 272 226 Z M 320 226 Q 320 212 311 203 L 311 203 Q 302 194 288 194 Q 274 194 265 203 Q 256 212 256 226 Q 256 240 265 249 Q 274 258 288 258 Q 302 258 311 249 Q 320 240 320 226 L 320 226 Z M 256 106 Q 257 113 264 114 Q 322 115 360 154 Q 399 192 400 250 Q 401 257 408 258 Q 415 257 416 250 Q 414 185 371 143 Q 329 100 264 98 Q 257 99 256 106 L 256 106 Z M 298 385 Q 309 389 317 380 L 357 331 Q 369 318 385 324 L 481 364 Q 499 373 495 392 L 471 480 Q 466 497 448 498 Q 327 497 230 439 Q 133 381 75 284 Q 17 187 16 66 Q 17 48 34 43 L 122 19 Q 141 15 150 33 L 190 129 Q 196 145 183 157 L 134 197 Q 125 205 130 216 Q 156 272 199 315 Q 242 358 298 384 L 298 385 Z M 345 321 L 305 370 Q 252 345 210 304 Q 169 262 144 209 L 193 169 Q 214 150 205 123 L 165 27 Q 159 13 146 6 Q 132 0 118 3 L 30 27 Q 2 37 0 66 Q 1 191 61 292 Q 121 393 222 453 Q 323 513 448 514 Q 477 512 487 485 L 511 397 Q 514 382 508 368 Q 502 355 487 349 L 391 309 Q 364 300 345 321 L 345 321 Z"/>
</svg>
