<svg xmlns="http://www.w3.org/2000/svg" viewBox="0 0 512 512">
  <path d="M 344 71.11111111111111 Q 319.1111111111111 72 310.22222222222223 95.11111111111111 L 192 450.6666666666667 L 192 450.6666666666667 Q 190.22222222222223 454.22222222222223 185.77777777777777 455.1111111111111 Q 180.44444444444446 455.1111111111111 178.66666666666666 451.55555555555554 L 80 253.33333333333334 L 80 253.33333333333334 Q 73.77777777777777 242.66666666666666 60.44444444444444 241.77777777777777 L 7.111111111111111 241.77777777777777 L 7.111111111111111 241.77777777777777 Q 0.8888888888888888 240.88888888888889 0 234.66666666666666 Q 0.8888888888888888 228.44444444444446 7.111111111111111 227.55555555555554 L 60.44444444444444 227.55555555555554 L 60.44444444444444 227.55555555555554 Q 81.77777777777777 228.44444444444446 92.44444444444444 247.11111111111111 L 184 429.3333333333333 L 184 429.3333333333333 L 296.8888888888889 90.66666666666667 L 296.8888888888889 90.66666666666667 Q 302.22222222222223 75.55555555555556 314.6666666666667 65.77777777777777 Q 327.1111111111111 56.888888888888886 344 56.888888888888886 L 504.8888888888889 56.888888888888886 L 504.8888888888889 56.888888888888886 Q 511.1111111111111 57.77777777777778 512 64 Q 511.1111111111111 70.22222222222223 504.8888888888889 71.11111111111111 L 344 71.11111111111111 L 344 71.11111111111111 Z" />
</svg>