<svg xmlns="http://www.w3.org/2000/svg" viewBox="0 0 512 512">
  <path d="M 298 16 Q 276 17 262 31 Q 259 34 256 34 Q 253 34 250 31 Q 236 17 214 16 Q 193 17 178 31 Q 164 45 164 67 L 164 71 L 164 71 Q 163 76 159 78 Q 154 80 150 77 Q 139 67 122 66 Q 104 67 92 79 Q 80 90 80 108 Q 80 127 92 139 Q 103 152 121 152 L 144 152 L 232 152 Q 239 153 240 160 Q 239 167 232 168 L 200 168 L 200 168 Q 208 178 208 192 L 208 201 L 208 201 Q 207 208 200 209 Q 193 208 192 201 L 192 192 L 192 192 Q 190 170 168 168 L 144 168 L 121 168 Q 96 167 80 150 Q 64 133 64 108 Q 65 84 81 67 Q 97 51 122 50 Q 136 50 148 56 Q 153 32 171 16 Q 189 1 214 0 Q 238 0 256 15 Q 274 0 298 0 Q 323 1 341 16 Q 359 32 364 56 Q 376 50 390 50 Q 415 51 431 67 Q 447 84 448 108 Q 447 133 431 150 Q 415 167 390 168 L 344 168 L 344 168 Q 322 170 320 192 L 320 201 L 320 201 Q 319 208 312 209 Q 305 208 304 201 L 304 192 L 304 192 Q 304 175 316 164 Q 327 152 344 152 L 390 152 L 390 152 Q 408 151 420 139 Q 432 127 432 108 Q 432 90 420 79 Q 408 67 390 66 Q 373 67 362 77 Q 358 80 353 78 Q 349 76 348 71 L 348 67 L 348 67 Q 348 45 334 31 Q 319 17 298 16 L 298 16 Z M 0 256 Q 0 251 0 246 L 0 246 L 0 246 Q 0 246 0 246 L 16 252 L 16 252 L 17 252 L 17 252 Q 28 256 40 251 L 73 237 L 73 237 Q 85 232 98 237 L 92 252 L 92 252 Q 85 249 79 252 L 46 266 L 46 266 Q 32 272 16 269 Q 20 333 53 384 Q 85 435 138 465 Q 191 495 256 496 Q 321 495 374 465 Q 427 435 459 384 Q 492 333 496 269 Q 481 272 466 266 L 433 252 L 433 252 Q 427 249 421 252 L 389 266 L 389 266 Q 370 273 351 266 L 319 252 L 319 252 Q 313 249 307 252 L 276 265 L 276 265 Q 256 273 236 264 L 201 246 L 201 246 Q 193 243 186 247 L 165 260 L 165 260 Q 144 273 121 264 L 92 252 L 92 252 L 98 237 L 98 237 L 127 250 L 127 250 Q 142 256 156 247 L 177 234 L 177 234 Q 192 225 208 232 L 243 250 L 243 250 Q 256 256 270 250 L 301 237 L 301 237 Q 313 232 325 237 L 357 251 L 357 251 Q 370 256 382 251 L 414 237 L 414 237 Q 427 232 439 237 L 472 251 L 472 251 Q 484 256 495 252 L 496 252 L 496 252 L 512 246 L 512 246 Q 512 251 512 256 Q 512 260 512 263 Q 509 333 475 389 Q 440 445 383 478 Q 326 511 256 512 Q 186 511 129 478 Q 72 445 37 389 Q 3 333 0 263 Q 0 260 0 256 L 0 256 Z M 176 320 Q 191 321 192 336 Q 191 351 176 352 Q 162 351 160 336 Q 162 321 176 320 L 176 320 Z M 336 320 Q 351 321 352 336 Q 351 351 336 352 Q 322 351 320 336 Q 322 321 336 320 L 336 320 Z M 312 432 Q 310 411 296 398 L 296 398 L 296 398 Q 282 384 261 384 L 251 384 L 251 384 Q 230 384 216 398 Q 202 411 200 432 L 312 432 L 312 432 Z M 251 368 L 261 368 L 251 368 L 261 368 Q 290 369 308 388 Q 327 406 328 435 Q 327 447 315 448 L 197 448 L 197 448 Q 185 447 184 435 Q 185 406 204 388 Q 222 369 251 368 L 251 368 Z" />
</svg>