<svg xmlns="http://www.w3.org/2000/svg" viewBox="0 0 448 516">
    <path d="M 218 4 Q 224 0 230 4 L 318 92 Q 322 98 318 104 Q 312 108 306 104 L 232 29 L 232 186 Q 231 193 224 194 Q 217 193 216 186 L 216 29 L 142 104 Q 136 108 130 104 Q 126 98 130 92 L 218 4 L 218 4 Z M 230 512 Q 224 516 218 512 L 130 424 Q 126 418 130 412 Q 136 408 142 412 L 216 487 L 216 330 Q 217 323 224 322 Q 231 323 232 330 L 232 487 L 306 412 Q 312 408 318 412 Q 322 418 318 424 L 230 512 L 230 512 Z M 8 250 L 440 250 Q 447 251 448 258 Q 447 265 440 266 L 8 266 Q 1 265 0 258 Q 1 251 8 250 L 8 250 Z"/>
</svg>
