<svg xmlns="http://www.w3.org/2000/svg" viewBox="0 0 450 450">
    <path d="M 369 17 Q 358 17 347 21 Q 320 32 286 27 Q 235 16 184 34 Q 133 52 93 93 Q 52 133 35 184 Q 17 235 27 286 Q 32 320 21 347 Q 17 357 17 369 Q 18 396 36 414 Q 54 432 81 433 Q 93 433 103 429 Q 130 418 164 423 Q 215 433 266 416 Q 317 398 358 357 Q 398 317 416 266 Q 433 215 423 164 Q 418 130 429 103 Q 433 92 433 81 Q 432 54 414 36 Q 396 18 369 17 L 369 17 Z M 369 1 Q 403 2 426 24 L 426 24 Q 448 47 449 81 Q 449 95 444 108 Q 434 134 438 161 Q 450 217 431 271 Q 411 326 369 369 Q 326 411 271 431 Q 217 450 160 438 Q 134 434 108 444 Q 95 449 81 449 Q 47 448 24 426 Q 2 403 1 369 Q 1 355 6 342 Q 16 316 12 290 Q 0 233 19 179 Q 39 124 81 81 Q 124 39 179 19 Q 233 0 290 12 Q 316 16 342 6 Q 355 1 369 1 L 369 1 Z M 220 88 L 203 96 Q 128 128 96 203 L 88 220 Q 85 227 78 224 Q 71 221 74 214 L 81 197 Q 116 116 197 81 L 214 74 Q 221 71 224 78 Q 227 85 220 88 L 220 88 Z"/>
</svg>
