<svg xmlns="http://www.w3.org/2000/svg" viewBox="0 0 512 512">
  <path d="M 0 62.22222 Q 0 48 9.777778 38.22222 L 9.777778 38.22222 L 9.777778 38.22222 Q 19.555555 28.444445 33.77778 28.444445 L 421.33334 28.444445 L 421.33334 28.444445 Q 435.55554 28.444445 445.33334 38.22222 Q 455.1111 48 455.1111 62.22222 Q 455.1111 73.77778 448 82.666664 L 352 202.66667 L 352 202.66667 Q 339.55554 205.33333 328 209.77777 L 436.44446 73.77778 L 436.44446 73.77778 Q 440.8889 68.44444 440.8889 62.22222 Q 439.1111 44.444443 421.33334 42.666668 L 33.77778 42.666668 L 33.77778 42.666668 Q 16 44.444443 14.222222 62.22222 Q 14.222222 68.44444 18.666666 73.77778 L 183.11111 280 L 183.11111 280 Q 184.88889 281.77777 184.88889 284.44446 L 184.88889 348.44446 L 184.88889 348.44446 Q 184.88889 359.1111 193.77777 365.33334 L 232 393.77777 L 232 393.77777 Q 235.55556 405.33334 240 416.8889 L 184.88889 376.8889 L 184.88889 376.8889 Q 170.66667 366.22223 170.66667 348.44446 L 170.66667 287.1111 L 170.66667 287.1111 L 7.111111 82.666664 L 7.111111 82.666664 Q 0 73.77778 0 62.22222 L 0 62.22222 Z M 384 469.33334 Q 415.1111 469.33334 440.8889 454.22223 L 440.8889 454.22223 L 440.8889 454.22223 Q 466.66666 439.1111 482.66666 412.44446 Q 497.77777 385.77777 497.77777 355.55554 Q 497.77777 325.33334 482.66666 298.66666 Q 466.66666 272 440.8889 256.8889 Q 415.1111 241.77777 384 241.77777 Q 352.8889 241.77777 327.1111 256.8889 Q 301.33334 272 285.33334 298.66666 Q 270.22223 325.33334 270.22223 355.55554 Q 270.22223 385.77777 285.33334 412.44446 Q 301.33334 439.1111 327.1111 454.22223 Q 352.8889 469.33334 384 469.33334 L 384 469.33334 Z M 384 227.55556 Q 418.66666 227.55556 448 244.44444 L 448 244.44444 L 448 244.44444 Q 477.33334 261.33334 495.1111 291.55554 Q 512 321.77777 512 355.55554 Q 512 389.33334 495.1111 419.55554 Q 477.33334 449.77777 448 466.66666 Q 418.66666 483.55554 384 483.55554 Q 349.33334 483.55554 320 466.66666 Q 290.66666 449.77777 272.8889 419.55554 Q 256 389.33334 256 355.55554 Q 256 321.77777 272.8889 291.55554 Q 290.66666 261.33334 320 244.44444 Q 349.33334 227.55556 384 227.55556 L 384 227.55556 Z M 359.1111 311.1111 Q 347.55554 316.44446 348.44446 327.1111 Q 348.44446 333.33334 359.1111 338.66666 Q 368.8889 343.1111 384.8889 347.55554 Q 384.8889 347.55554 385.77777 347.55554 L 386.66666 347.55554 L 386.66666 347.55554 Q 402.66666 352 416.8889 358.22223 Q 432 365.33334 433.77777 384 Q 432.8889 405.33334 416 413.33334 Q 403.55554 418.66666 391.1111 419.55554 L 391.1111 435.55554 L 391.1111 435.55554 Q 390.22223 441.77777 384 442.66666 Q 377.77777 441.77777 376.8889 435.55554 L 376.8889 418.66666 L 376.8889 418.66666 Q 360 416.8889 344.8889 411.55554 Q 344.8889 411.55554 344.8889 411.55554 L 344.8889 411.55554 L 344.8889 411.55554 Q 343.1111 410.66666 341.33334 410.66666 Q 340.44446 409.77777 339.55554 409.77777 Q 333.33334 407.1111 334.22223 400.8889 Q 336.8889 394.66666 343.1111 396.44446 Q 344.8889 396.44446 345.77777 397.33334 Q 347.55554 397.33334 349.33334 398.22223 L 349.33334 398.22223 L 349.33334 398.22223 L 349.33334 398.22223 L 349.33334 398.22223 Q 349.33334 398.22223 349.33334 398.22223 Q 367.1111 404.44446 384 405.33334 Q 397.33334 406.22223 408.8889 400.8889 Q 419.55554 395.55554 419.55554 384 Q 419.55554 376 409.77777 370.66666 Q 399.1111 365.33334 382.22223 361.77777 L 380.44446 360.8889 L 380.44446 360.8889 Q 365.33334 357.33334 352 351.1111 Q 336.8889 344.8889 334.22223 328 Q 335.1111 305.77777 352 298.66666 Q 364.44446 292.44446 376.8889 291.55554 L 376.8889 277.33334 L 376.8889 277.33334 Q 376.8889 271.1111 384 270.22223 Q 390.22223 271.1111 391.1111 277.33334 L 391.1111 291.55554 L 391.1111 291.55554 Q 404.44446 293.33334 417.77777 296 Q 424 298.66666 422.22223 304.8889 Q 420.44446 311.1111 414.22223 310.22223 Q 399.1111 306.66666 384 305.77777 Q 370.66666 305.77777 358.22223 311.1111 L 359.1111 311.1111 Z" />
</svg>