<svg xmlns="http://www.w3.org/2000/svg" viewBox="0 0 512 512">
  <path d="M 243.17533718689788 25.649325626204238 L 60.67052023121387 135.15221579961465 L 243.17533718689788 25.649325626204238 L 60.67052023121387 135.15221579961465 L 143.53757225433526 196.3159922928709 L 143.53757225433526 196.3159922928709 L 243.17533718689788 25.649325626204238 L 243.17533718689788 25.649325626204238 Z M 50.80539499036609 146.990366088632 L 50.80539499036609 358.1040462427746 L 50.80539499036609 146.990366088632 L 50.80539499036609 358.1040462427746 L 135.64547206165705 210.1271676300578 L 135.64547206165705 210.1271676300578 L 50.80539499036609 146.990366088632 L 50.80539499036609 146.990366088632 Z M 70.53564547206166 382.76685934489404 L 248.1078998073218 489.3102119460501 L 70.53564547206166 382.76685934489404 L 248.1078998073218 489.3102119460501 L 248.1078998073218 389.6724470134875 L 248.1078998073218 389.6724470134875 L 70.53564547206166 382.76685934489404 L 70.53564547206166 382.76685934489404 Z M 263.89210019267824 489.3102119460501 L 441.4643545279383 382.76685934489404 L 263.89210019267824 489.3102119460501 L 441.4643545279383 382.76685934489404 L 263.89210019267824 389.6724470134875 L 263.89210019267824 389.6724470134875 L 263.89210019267824 489.3102119460501 L 263.89210019267824 489.3102119460501 Z M 461.1946050096339 358.1040462427746 L 461.1946050096339 146.990366088632 L 461.1946050096339 358.1040462427746 L 461.1946050096339 146.990366088632 L 377.34104046242777 210.1271676300578 L 377.34104046242777 210.1271676300578 L 461.1946050096339 358.1040462427746 L 461.1946050096339 358.1040462427746 Z M 451.32947976878614 135.15221579961465 L 268.8246628131021 25.649325626204238 L 451.32947976878614 135.15221579961465 L 268.8246628131021 25.649325626204238 L 368.46242774566474 196.3159922928709 L 368.46242774566474 196.3159922928709 L 451.32947976878614 135.15221579961465 L 451.32947976878614 135.15221579961465 Z M 244.16184971098266 5.91907514450867 Q 256 0 267.83815028901734 5.91907514450867 L 465.14065510597305 124.30057803468208 L 465.14065510597305 124.30057803468208 Q 476.9788053949904 132.19267822736032 476.9788053949904 145.01734104046244 L 476.9788053949904 365.9961464354528 L 476.9788053949904 365.9961464354528 Q 476.9788053949904 378.8208092485549 465.14065510597305 386.71290944123314 L 267.83815028901734 505.09441233140655 L 267.83815028901734 505.09441233140655 Q 256 512 244.16184971098266 505.09441233140655 L 46.859344894026975 386.71290944123314 L 46.859344894026975 386.71290944123314 Q 35.02119460500963 378.8208092485549 35.02119460500963 365.9961464354528 L 35.02119460500963 145.01734104046244 L 35.02119460500963 145.01734104046244 Q 35.02119460500963 132.19267822736032 46.859344894026975 124.30057803468208 L 244.16184971098266 5.91907514450867 L 244.16184971098266 5.91907514450867 Z M 241.20231213872833 372.9017341040462 L 145.5105973025048 223.9383429672447 L 241.20231213872833 372.9017341040462 L 145.5105973025048 223.9383429672447 L 63.630057803468205 366.98265895953756 L 63.630057803468205 366.98265895953756 L 241.20231213872833 372.9017341040462 L 241.20231213872833 372.9017341040462 Z M 351.6917148362235 216.04624277456648 L 160.3082851637765 216.04624277456648 L 351.6917148362235 216.04624277456648 L 160.3082851637765 216.04624277456648 L 256 366.98265895953756 L 256 366.98265895953756 L 351.6917148362235 216.04624277456648 L 351.6917148362235 216.04624277456648 Z M 256 34.527938342967246 L 159.32177263969172 200.26204238921002 L 256 34.527938342967246 L 159.32177263969172 200.26204238921002 L 352.6782273603083 200.26204238921002 L 352.6782273603083 200.26204238921002 L 256 34.527938342967246 L 256 34.527938342967246 Z M 270.7976878612717 372.9017341040462 L 448.3699421965318 366.98265895953756 L 270.7976878612717 372.9017341040462 L 448.3699421965318 366.98265895953756 L 366.48940269749517 223.9383429672447 L 366.48940269749517 223.9383429672447 L 270.7976878612717 372.9017341040462 L 270.7976878612717 372.9017341040462 Z" />
</svg>