<svg xmlns="http://www.w3.org/2000/svg" viewBox="0 0 512 512">
  <path d="M 49.029827 50.235477 L 357.6766 50.235477 L 49.029827 50.235477 L 357.6766 50.235477 Q 368.92935 50.235477 376.16327 57.469387 Q 383.3972 64.7033 383.3972 75.95605 L 383.3972 82.386185 L 383.3972 82.386185 Q 382.5934 88.01256 376.96704 88.81633 Q 371.34067 88.01256 370.5369 82.386185 L 370.5369 75.95605 L 370.5369 75.95605 Q 369.73312 63.89953 357.6766 63.09576 L 49.029827 63.09576 L 49.029827 63.09576 Q 36.973312 63.89953 36.169544 75.95605 L 36.169544 82.386185 L 36.169544 82.386185 Q 35.365776 88.01256 29.739403 88.81633 Q 24.11303 88.01256 23.309261 82.386185 L 23.309261 75.95605 L 23.309261 75.95605 Q 23.309261 64.7033 30.54317 57.469387 Q 37.77708 50.235477 49.029827 50.235477 L 49.029827 50.235477 Z M 10.448979 140.25746 Q 10.448979 129.00471 17.682888 121.7708 L 17.682888 121.7708 L 17.682888 121.7708 Q 24.916798 114.53689 36.169544 114.53689 L 370.5369 114.53689 L 370.5369 114.53689 Q 381.78964 114.53689 389.02356 121.7708 Q 396.25745 129.00471 396.25745 140.25746 L 396.25745 146.68759 L 396.25745 146.68759 Q 395.45367 152.31396 389.8273 153.11774 Q 384.20093 152.31396 383.3972 146.68759 L 383.3972 140.25746 L 383.3972 140.25746 Q 382.5934 128.20094 370.5369 127.39717 L 36.169544 127.39717 L 36.169544 127.39717 Q 24.11303 128.20094 23.309261 140.25746 L 23.309261 146.68759 L 23.309261 146.68759 Q 22.505495 152.31396 16.879122 153.11774 Q 11.252748 152.31396 10.448979 146.68759 L 10.448979 140.25746 L 10.448979 140.25746 Z M 0.8037677 221.43799 Q 0 203.7551 10.448979 191.6986 L 10.448979 191.6986 L 10.448979 191.6986 Q 21.701727 179.64207 39.384617 178.8383 L 367.3218 178.8383 L 367.3218 178.8383 Q 394.64993 180.44585 403.49136 204.55887 Q 400.2763 204.55887 396.25745 204.55887 Q 396.25745 204.55887 396.25745 204.55887 Q 393.0424 204.55887 389.8273 204.55887 Q 382.5934 192.50235 367.3218 191.6986 L 39.384617 191.6986 L 39.384617 191.6986 Q 27.3281 191.6986 20.09419 199.73627 Q 12.860283 207.77394 13.66405 219.83046 L 33.758244 425.59497 L 33.758244 425.59497 Q 36.973312 447.2967 58.675037 448.90424 L 299.00156 448.90424 L 299.00156 448.90424 Q 306.23547 456.13815 315.07693 461.76453 L 58.675037 461.76453 L 58.675037 461.76453 Q 43.403454 461.76453 32.954475 452.11932 Q 22.505495 441.67032 20.897959 427.2025 L 0.8037677 221.43799 L 0.8037677 221.43799 Z M 203.35323 217.41916 Q 258.8132 218.22292 297.39404 244.74725 Q 293.37518 248.7661 288.55258 254.39247 Q 253.99059 231.0832 203.35323 230.27943 Q 147.08948 231.0832 110.91994 259.21506 Q 75.55416 285.7394 74.75039 323.51648 Q 75.55416 361.29355 110.91994 388.62167 Q 147.08948 415.146 203.35323 416.75354 Q 238.719 416.75354 267.65463 404.69702 Q 270.06595 410.3234 273.281 415.94977 Q 241.93407 429.6138 203.35323 429.6138 Q 143.07065 428.81006 103.68603 398.26688 Q 63.497646 368.52747 61.89011 323.51648 Q 63.497646 278.5055 103.68603 248.7661 Q 143.07065 218.22292 203.35323 217.41916 L 203.35323 217.41916 Z M 224.25117 346.82574 Q 214.60597 352.45212 203.35323 352.45212 Q 192.10046 352.45212 182.45526 346.82574 Q 172.81004 340.3956 171.20251 326.73157 Q 172.81004 313.0675 182.45526 306.63736 Q 192.10046 301.011 203.35323 301.011 Q 214.60597 301.011 224.25117 306.63736 Q 233.8964 313.0675 235.50392 326.73157 Q 233.8964 340.3956 224.25117 346.82574 L 224.25117 346.82574 Z M 203.35323 339.59183 Q 221.0361 338.78806 222.64365 326.73157 Q 221.0361 314.67505 203.35323 313.87128 Q 185.67033 314.67505 184.06279 326.73157 Q 185.67033 338.78806 203.35323 339.59183 L 203.35323 339.59183 Z M 458.95132 428.0063 L 456.54004 422.3799 L 458.95132 428.0063 L 456.54004 422.3799 Q 442.87598 398.26688 416.35165 397.4631 L 376.96704 397.4631 L 376.96704 397.4631 Q 349.63895 398.26688 336.77866 422.3799 L 333.56357 428.0063 L 333.56357 428.0063 Q 360.08792 448.10046 396.25745 448.90424 Q 432.427 448.10046 458.95132 428.0063 L 458.95132 428.0063 Z M 468.59656 419.16483 Q 498.33594 390.2292 499.1397 346.02197 Q 498.33594 302.61853 469.4003 272.87912 Q 439.66092 243.94348 396.25745 243.13972 Q 352.854 243.94348 323.1146 272.87912 Q 294.17896 302.61853 293.37518 346.02197 Q 294.17896 390.2292 323.91837 419.16483 L 324.72214 416.75354 L 324.72214 416.75354 Q 341.60126 386.21036 376.96704 384.6028 L 416.35165 384.6028 L 416.35165 384.6028 Q 450.91367 386.21036 467.7928 416.75354 L 468.59656 419.16483 L 468.59656 419.16483 Z M 280.51492 346.02197 Q 280.51492 314.67505 295.7865 288.1507 L 295.7865 288.1507 L 295.7865 288.1507 Q 311.05807 261.62637 338.3862 245.55103 Q 365.7143 230.27943 396.25745 230.27943 Q 426.80063 230.27943 454.12872 245.55103 Q 481.45682 261.62637 496.72842 288.1507 Q 512 314.67505 512 346.02197 Q 512 377.36893 496.72842 403.89325 Q 481.45682 430.41757 454.12872 446.49295 Q 426.80063 461.76453 396.25745 461.76453 Q 365.7143 461.76453 338.3862 446.49295 Q 311.05807 430.41757 295.7865 403.89325 Q 280.51492 377.36893 280.51492 346.02197 L 280.51492 346.02197 Z M 396.25745 346.02197 Q 407.5102 346.02197 414.7441 338.78806 L 414.7441 338.78806 L 414.7441 338.78806 Q 421.97803 331.55417 421.97803 320.30142 Q 421.97803 309.04868 414.7441 301.81476 Q 407.5102 294.58084 396.25745 294.58084 Q 385.0047 294.58084 377.7708 301.81476 Q 370.5369 309.04868 370.5369 320.30142 Q 370.5369 331.55417 377.7708 338.78806 Q 385.0047 346.02197 396.25745 346.02197 L 396.25745 346.02197 Z M 396.25745 281.72055 Q 417.9592 282.52432 430.0157 301.011 Q 439.66092 320.30142 430.0157 339.59183 Q 417.9592 358.0785 396.25745 358.88226 Q 374.55573 358.0785 362.4992 339.59183 Q 352.854 320.30142 362.4992 301.011 Q 374.55573 282.52432 396.25745 281.72055 L 396.25745 281.72055 Z" />
</svg>