<svg xmlns="http://www.w3.org/2000/svg" viewBox="0 0 512 512">
  <path d="M 249.02724 0.49805447 Q 256 1.4941634 256.9961 8.466926 L 256.9961 197.72763 L 256.9961 197.72763 L 241.05836 202.70818 L 241.05836 202.70818 L 241.05836 8.466926 L 241.05836 8.466926 Q 242.05447 1.4941634 249.02724 0.49805447 L 249.02724 0.49805447 Z M 272.93384 297.33853 L 272.93384 430.8171 L 272.93384 297.33853 L 272.93384 430.8171 L 304.80933 418.8638 L 304.80933 418.8638 L 304.80933 266.45914 L 304.80933 266.45914 Q 304.80933 253.50974 295.84436 246.53697 Q 286.87936 240.56032 274.92606 242.55254 L 219.14397 257.49417 L 219.14397 257.49417 Q 206.19455 260.48248 200.2179 248.52919 L 171.33073 185.77432 L 171.33073 185.77432 Q 163.36186 168.84047 144.43579 167.84436 Q 126.50584 168.84047 118.536964 181.78989 Q 110.56809 194.7393 116.54475 210.67705 L 149.41634 282.39688 L 149.41634 282.39688 Q 161.36964 304.31128 186.27237 299.33075 L 253.01167 281.4008 L 253.01167 281.4008 Q 259.98444 279.40857 266.95718 284.3891 Q 272.93384 289.36966 272.93384 297.33853 L 272.93384 297.33853 Z M 320.74707 266.45914 L 320.74707 412.88715 L 320.74707 266.45914 L 320.74707 412.88715 L 465.1829 357.10507 L 465.1829 357.10507 Q 494.07004 345.15176 496.06226 313.27628 L 496.06226 295.3463 L 496.06226 295.3463 Q 497.05838 288.37354 504.03113 287.37744 Q 511.0039 288.37354 512 295.3463 L 512 312.28015 L 512 312.28015 Q 512 333.19846 501.04282 349.1362 Q 490.0856 365.07394 471.15955 372.0467 L 108.575874 510.50583 L 108.575874 510.50583 Q 101.60311 511.50195 98.614784 505.5253 Q 96.62257 498.55252 102.59922 495.5642 L 256.9961 436.79376 L 256.9961 436.79376 L 256.9961 430.8171 L 256.9961 430.8171 L 256.9961 313.27628 L 256.9961 313.27628 L 256.9961 297.33853 L 256.9961 297.33853 L 241.05836 301.32297 L 241.05836 301.32297 L 190.2568 315.2685 L 190.2568 315.2685 Q 173.32295 319.25293 158.38132 312.28015 Q 142.44357 304.31128 134.4747 288.37354 L 101.60311 217.64981 L 101.60311 217.64981 Q 92.63813 193.7432 104.59144 172.8249 Q 117.540855 152.90273 144.43579 151.90662 Q 173.32295 152.90273 186.27237 178.80156 L 215.15953 242.55254 L 215.15953 242.55254 L 270.94162 227.6109 L 270.94162 227.6109 Q 289.8677 222.63036 304.80933 234.58366 Q 319.75098 245.54086 320.74707 265.46304 L 320.74707 266.45914 Z M 145.4319 80.18677 Q 145.4319 66.24124 136.46692 57.276264 L 136.46692 57.276264 L 136.46692 57.276264 Q 127.501945 48.311283 113.55642 48.311283 Q 99.61089 48.311283 90.64591 57.276264 Q 81.68093 66.24124 81.68093 80.18677 Q 81.68093 94.13229 90.64591 103.097275 Q 99.61089 112.062256 113.55642 112.062256 Q 127.501945 112.062256 136.46692 103.097275 Q 145.4319 94.13229 145.4319 80.18677 L 145.4319 80.18677 Z M 113.55642 32.37354 Q 140.45135 33.369648 155.39299 56.280155 Q 167.3463 80.18677 155.39299 104.09338 Q 140.45135 127.00389 113.55642 128 Q 86.661476 127.00389 71.71984 104.09338 Q 59.766537 80.18677 71.71984 56.280155 Q 86.661476 33.369648 113.55642 32.37354 L 113.55642 32.37354 Z M 16.933851 164.85603 L 88.653694 331.20624 L 16.933851 164.85603 L 88.653694 331.20624 Q 98.614784 352.1245 118.536964 361.0895 Q 138.45914 369.05838 160.37354 361.0895 L 206.19455 344.15564 L 206.19455 344.15564 Q 213.16731 342.16342 217.15175 348.14008 Q 218.14786 355.11285 212.1712 358.10117 L 165.35408 376.03113 L 165.35408 376.03113 Q 137.46303 385.99222 112.56031 375.03503 Q 86.661476 365.07394 73.71206 338.179 L 2.9883268 170.83269 L 2.9883268 170.83269 Q 0 163.85992 6.9727626 160.8716 Q 13.945525 157.88327 16.933851 164.85603 L 16.933851 164.85603 Z" />
</svg>