<svg xmlns="http://www.w3.org/2000/svg" viewBox="0 0 512 512">
  <path d="M 186.9206349206349 72.12698412698413 Q 181.84126984126985 77.2063492063492 175.74603174603175 77.2063492063492 L 109.71428571428571 77.2063492063492 L 109.71428571428571 77.2063492063492 Q 95.4920634920635 77.2063492063492 86.34920634920636 86.34920634920636 Q 77.2063492063492 95.4920634920635 77.2063492063492 109.71428571428571 L 77.2063492063492 175.74603174603175 L 77.2063492063492 175.74603174603175 Q 77.2063492063492 181.84126984126985 72.12698412698413 186.9206349206349 L 26.41269841269841 232.63492063492063 L 26.41269841269841 232.63492063492063 Q 16.253968253968253 242.79365079365078 16.253968253968253 256 Q 16.253968253968253 269.2063492063492 26.41269841269841 279.36507936507934 L 72.12698412698413 325.07936507936506 L 72.12698412698413 325.07936507936506 Q 77.2063492063492 330.1587301587302 77.2063492063492 337.26984126984127 L 77.2063492063492 402.2857142857143 L 77.2063492063492 402.2857142857143 Q 77.2063492063492 416.5079365079365 86.34920634920636 425.6507936507937 Q 95.4920634920635 434.7936507936508 109.71428571428571 434.7936507936508 L 175.74603174603175 434.7936507936508 L 175.74603174603175 434.7936507936508 Q 181.84126984126985 434.7936507936508 186.9206349206349 439.87301587301585 L 232.63492063492063 485.58730158730157 L 232.63492063492063 485.58730158730157 Q 242.79365079365078 495.74603174603175 256 495.74603174603175 Q 269.2063492063492 495.74603174603175 279.36507936507934 485.58730158730157 L 325.07936507936506 439.87301587301585 L 325.07936507936506 439.87301587301585 Q 330.1587301587302 434.7936507936508 337.26984126984127 434.7936507936508 L 402.2857142857143 434.7936507936508 L 402.2857142857143 434.7936507936508 Q 416.5079365079365 434.7936507936508 425.6507936507937 425.6507936507937 Q 434.7936507936508 416.5079365079365 434.7936507936508 402.2857142857143 L 434.7936507936508 337.26984126984127 L 434.7936507936508 337.26984126984127 Q 434.7936507936508 330.1587301587302 439.87301587301585 325.07936507936506 L 485.58730158730157 279.36507936507934 L 485.58730158730157 279.36507936507934 Q 495.74603174603175 269.2063492063492 495.74603174603175 256 Q 495.74603174603175 242.79365079365078 485.58730158730157 232.63492063492063 L 439.87301587301585 186.9206349206349 L 439.87301587301585 186.9206349206349 Q 434.7936507936508 181.84126984126985 434.7936507936508 174.73015873015873 L 434.7936507936508 109.71428571428571 L 434.7936507936508 109.71428571428571 Q 434.7936507936508 95.4920634920635 425.6507936507937 86.34920634920636 Q 416.5079365079365 77.2063492063492 402.2857142857143 77.2063492063492 L 337.26984126984127 77.2063492063492 L 337.26984126984127 77.2063492063492 Q 330.1587301587302 77.2063492063492 325.07936507936506 72.12698412698413 L 279.36507936507934 26.41269841269841 L 279.36507936507934 26.41269841269841 L 290.53968253968253 14.222222222222221 L 290.53968253968253 14.222222222222221 L 337.26984126984127 60.95238095238095 L 337.26984126984127 60.95238095238095 L 402.2857142857143 60.95238095238095 L 402.2857142857143 60.95238095238095 Q 422.6031746031746 61.96825396825397 436.8253968253968 75.17460317460318 Q 450.031746031746 89.39682539682539 451.04761904761904 109.71428571428571 L 451.04761904761904 175.74603174603175 L 451.04761904761904 175.74603174603175 L 497.77777777777777 221.46031746031747 L 497.77777777777777 221.46031746031747 Q 512 236.6984126984127 512 256 Q 512 275.3015873015873 497.77777777777777 290.53968253968253 L 451.04761904761904 337.26984126984127 L 451.04761904761904 337.26984126984127 L 451.04761904761904 402.2857142857143 L 451.04761904761904 402.2857142857143 Q 450.031746031746 422.6031746031746 436.8253968253968 436.8253968253968 Q 422.6031746031746 450.031746031746 402.2857142857143 451.04761904761904 L 337.26984126984127 451.04761904761904 L 337.26984126984127 451.04761904761904 L 290.53968253968253 497.77777777777777 L 290.53968253968253 497.77777777777777 Q 275.3015873015873 512 256 512 Q 236.6984126984127 512 221.46031746031747 497.77777777777777 L 175.74603174603175 451.04761904761904 L 175.74603174603175 451.04761904761904 L 109.71428571428571 451.04761904761904 L 109.71428571428571 451.04761904761904 Q 89.39682539682539 450.031746031746 75.17460317460318 436.8253968253968 Q 61.96825396825397 422.6031746031746 60.95238095238095 402.2857142857143 L 60.95238095238095 337.26984126984127 L 60.95238095238095 337.26984126984127 L 14.222222222222221 290.53968253968253 L 14.222222222222221 290.53968253968253 Q 0 275.3015873015873 0 256 Q 0 236.6984126984127 14.222222222222221 221.46031746031747 L 60.95238095238095 175.74603174603175 L 60.95238095238095 175.74603174603175 L 60.95238095238095 109.71428571428571 L 60.95238095238095 109.71428571428571 Q 61.96825396825397 89.39682539682539 75.17460317460318 75.17460317460318 Q 89.39682539682539 61.96825396825397 109.71428571428571 60.95238095238095 L 175.74603174603175 60.95238095238095 L 175.74603174603175 60.95238095238095 L 221.46031746031747 14.222222222222221 L 221.46031746031747 14.222222222222221 Q 236.6984126984127 0 256 0 Q 275.3015873015873 0 290.53968253968253 14.222222222222221 L 279.36507936507934 26.41269841269841 L 279.36507936507934 26.41269841269841 Q 269.2063492063492 16.253968253968253 256 16.253968253968253 Q 242.79365079365078 16.253968253968253 232.63492063492063 26.41269841269841 L 186.9206349206349 72.12698412698413 L 186.9206349206349 72.12698412698413 Z" />
</svg>