<svg xmlns="http://www.w3.org/2000/svg" viewBox="0 0 512 512">
  <path d="M 256 0 Q 228 1 208 19 L 208 19 L 208 19 Q 188 36 184 64 L 176 64 L 176 64 Q 143 66 131 96 L 128 96 L 128 96 Q 101 97 83 115 Q 65 133 64 160 L 64 448 L 64 448 Q 65 475 83 493 Q 101 511 128 512 L 384 512 L 384 512 Q 411 511 429 493 Q 447 475 448 448 L 448 160 L 448 160 Q 447 133 429 115 Q 411 97 384 96 L 381 96 L 381 96 Q 369 66 336 64 L 328 64 L 328 64 Q 324 36 304 19 Q 284 1 256 0 L 256 0 Z M 80 160 Q 81 140 94 126 L 94 126 L 94 126 Q 108 113 128 112 L 128 128 L 128 128 Q 128 142 137 151 Q 146 160 160 160 L 352 160 L 352 160 Q 366 160 375 151 Q 384 142 384 128 L 384 112 L 384 112 Q 404 113 418 126 Q 431 140 432 160 L 432 448 L 432 448 Q 431 468 418 482 Q 404 495 384 496 L 128 496 L 128 496 Q 108 495 94 482 Q 81 468 80 448 L 80 160 L 80 160 Z M 200 72 Q 201 48 216 32 L 216 32 L 216 32 Q 232 17 256 16 Q 280 17 296 32 Q 311 48 312 72 Q 313 79 320 80 L 336 80 L 336 80 Q 350 80 359 89 Q 368 98 368 112 L 368 128 L 368 128 Q 367 143 352 144 L 160 144 L 160 144 Q 145 143 144 128 L 144 112 L 144 112 Q 144 98 153 89 Q 162 80 176 80 L 192 80 L 192 80 Q 199 79 200 72 L 200 72 Z M 256 96 Q 271 95 272 80 Q 271 65 256 64 Q 241 65 240 80 Q 241 95 256 96 L 256 96 Z M 232 232 Q 233 225 240 224 L 272 224 L 272 224 Q 279 225 280 232 L 280 288 L 280 288 Q 281 295 288 296 L 344 296 L 344 296 Q 351 297 352 304 L 352 336 L 352 336 Q 351 343 344 344 L 288 344 L 288 344 Q 281 345 280 352 L 280 408 L 280 408 Q 279 415 272 416 L 240 416 L 240 416 Q 233 415 232 408 L 232 352 L 232 352 Q 231 345 224 344 L 168 344 L 168 344 Q 161 343 160 336 L 160 304 L 160 304 Q 161 297 168 296 L 224 296 L 224 296 Q 231 295 232 288 L 232 232 L 232 232 Z M 240 208 Q 218 210 216 232 L 216 280 L 216 280 L 168 280 L 168 280 Q 146 282 144 304 L 144 336 L 144 336 Q 146 358 168 360 L 216 360 L 216 360 L 216 408 L 216 408 Q 218 430 240 432 L 272 432 L 272 432 Q 294 430 296 408 L 296 360 L 296 360 L 344 360 L 344 360 Q 366 358 368 336 L 368 304 L 368 304 Q 366 282 344 280 L 296 280 L 296 280 L 296 232 L 296 232 Q 294 210 272 208 L 240 208 L 240 208 Z" />
</svg>