<svg xmlns="http://www.w3.org/2000/svg" viewBox="0 0 504 504">
    <path d="M 184 71 Q 179 76 173 76 L 108 76 Q 94 76 85 85 Q 76 94 76 108 L 76 173 Q 76 179 71 184 L 26 229 Q 16 239 16 252 Q 16 265 26 275 L 71 320 Q 76 325 76 332 L 76 396 Q 76 410 85 419 Q 94 428 108 428 L 173 428 Q 179 428 184 433 L 229 478 Q 239 488 252 488 Q 265 488 275 478 L 320 433 Q 325 428 332 428 L 396 428 Q 410 428 419 419 Q 428 410 428 396 L 428 332 Q 428 325 433 320 L 478 275 Q 488 265 488 252 Q 488 239 478 229 L 433 184 Q 428 179 428 172 L 428 108 Q 428 94 419 85 Q 410 76 396 76 L 332 76 Q 325 76 320 71 L 275 26 L 286 14 L 332 60 L 396 60 Q 416 61 430 74 Q 443 88 444 108 L 444 173 L 490 218 Q 504 233 504 252 Q 504 271 490 286 L 444 332 L 444 396 Q 443 416 430 430 Q 416 443 396 444 L 332 444 L 286 490 Q 271 504 252 504 Q 233 504 218 490 L 173 444 L 108 444 Q 88 443 74 430 Q 61 416 60 396 L 60 332 L 14 286 Q 0 271 0 252 Q 0 233 14 218 L 60 173 L 60 108 Q 61 88 74 74 Q 88 61 108 60 L 173 60 L 218 14 Q 233 0 252 0 Q 271 0 286 14 L 275 26 Q 265 16 252 16 Q 239 16 229 26 L 184 71 L 184 71 Z"/>
</svg>
