<svg xmlns="http://www.w3.org/2000/svg" viewBox="0 0 416 416">
    <path d="M 42 16 Q 37 17 35 21 L 35 21 Q 33 26 37 30 L 69 63 L 69 63 L 70 64 L 115 108 Q 119 112 123 110 Q 128 108 128 103 L 128 16 L 42 16 L 42 16 Z M 58 74 L 25 41 Q 14 29 20 15 Q 26 1 42 0 L 128 0 Q 143 2 144 16 L 144 102 Q 143 119 130 125 Q 116 130 103 119 L 69 86 Q 26 136 24 207 Q 24 223 27 239 L 11 239 Q 8 223 8 207 Q 10 129 58 74 L 58 74 Z M 208 23 Q 191 23 175 26 L 175 9 Q 191 7 208 7 Q 287 8 342 58 L 375 25 Q 387 15 401 20 Q 415 26 416 42 L 416 129 Q 415 143 400 145 L 314 145 Q 297 143 292 130 Q 286 116 297 104 L 331 70 Q 280 24 208 23 L 208 23 Z M 392 207 Q 392 190 390 175 L 406 175 Q 408 190 408 207 Q 406 286 357 341 L 391 375 Q 402 387 396 401 Q 391 415 374 416 L 288 416 Q 273 414 272 400 L 272 314 Q 273 297 287 292 Q 300 286 313 297 L 345 329 Q 391 279 392 206 L 392 207 Z M 345 352 L 344 351 L 302 308 Q 297 305 293 306 Q 288 308 288 314 L 288 400 L 374 400 Q 379 400 381 395 Q 383 391 380 386 L 345 352 L 345 352 L 345 352 Z M 239 388 L 239 404 Q 224 407 208 407 Q 130 405 76 357 L 41 391 Q 29 402 15 396 Q 1 390 0 374 L 0 288 Q 2 273 16 272 L 102 272 Q 119 273 125 287 Q 130 300 119 313 L 87 345 Q 137 389 208 391 Q 224 391 239 388 L 239 388 Z M 16 288 L 16 374 Q 17 379 21 381 Q 26 383 30 380 L 108 302 Q 112 297 110 293 Q 108 288 103 288 L 16 288 L 16 288 Z M 400 42 Q 400 37 395 35 L 395 35 Q 390 33 386 37 L 308 115 Q 305 119 306 123 Q 308 128 314 128 L 400 128 L 400 42 L 400 42 Z"/>
</svg>
