<svg xmlns="http://www.w3.org/2000/svg" viewBox="0 0 640 512">
    <path d="M 320 0 Q 327 1 328 8 L 328 96 L 448 96 Q 489 97 516 124 Q 543 151 544 192 L 544 416 Q 543 457 516 484 Q 489 511 448 512 L 192 512 Q 151 511 124 484 Q 97 457 96 416 L 96 192 Q 97 151 124 124 Q 151 97 192 96 L 312 96 L 312 8 Q 313 1 320 0 L 320 0 Z M 192 112 Q 158 113 135 135 L 135 135 Q 113 158 112 192 L 112 416 Q 113 450 135 473 Q 158 495 192 496 L 448 496 Q 482 495 505 473 Q 527 450 528 416 L 528 192 Q 527 158 505 135 Q 482 113 448 112 L 320 112 L 192 112 L 192 112 Z M 200 400 L 248 400 Q 255 401 256 408 Q 255 415 248 416 L 200 416 Q 193 415 192 408 Q 193 401 200 400 L 200 400 Z M 296 400 L 344 400 Q 351 401 352 408 Q 351 415 344 416 L 296 416 Q 289 415 288 408 Q 289 401 296 400 L 296 400 Z M 392 400 L 440 400 Q 447 401 448 408 Q 447 415 440 416 L 392 416 Q 385 415 384 408 Q 385 401 392 400 L 392 400 Z M 224 216 Q 201 217 189 236 Q 179 256 189 276 Q 201 295 224 296 Q 247 295 259 276 Q 269 256 259 236 Q 247 217 224 216 L 224 216 Z M 280 256 Q 279 288 252 304 Q 224 320 196 304 Q 169 288 168 256 Q 169 224 196 208 Q 224 192 252 208 Q 279 224 280 256 L 280 256 Z M 376 256 Q 377 279 396 291 Q 416 301 436 291 Q 455 279 456 256 Q 455 233 436 221 Q 416 211 396 221 Q 377 233 376 256 L 376 256 Z M 416 312 Q 384 311 368 284 Q 352 256 368 228 Q 384 201 416 200 Q 448 201 464 228 Q 480 256 464 284 Q 448 311 416 312 L 416 312 Z M 48 224 L 64 224 L 64 240 L 48 240 Q 34 240 25 249 Q 16 258 16 272 L 16 368 Q 16 382 25 391 Q 34 400 48 400 L 64 400 L 64 416 L 48 416 Q 28 415 14 402 Q 1 388 0 368 L 0 272 Q 1 252 14 238 Q 28 225 48 224 L 48 224 Z M 592 400 Q 606 400 615 391 L 615 391 Q 624 382 624 368 L 624 272 Q 624 258 615 249 Q 606 240 592 240 L 576 240 L 576 224 L 592 224 Q 612 225 626 238 Q 639 252 640 272 L 640 368 Q 639 388 626 402 Q 612 415 592 416 L 576 416 L 576 400 L 592 400 L 592 400 Z"/>
</svg>
