<svg xmlns="http://www.w3.org/2000/svg" viewBox="0 0 512 512">
  <path d="M 73.14286 18.285715 Q 50.285713 19.428572 34.285713 34.285713 L 34.285713 34.285713 L 34.285713 34.285713 Q 19.428572 50.285713 18.285715 73.14286 L 18.285715 438.85715 L 18.285715 438.85715 Q 19.428572 461.7143 34.285713 477.7143 Q 50.285713 492.57144 73.14286 493.7143 L 324.57144 493.7143 L 324.57144 493.7143 Q 326.85715 493.7143 329.14285 493.7143 L 329.14285 384 L 329.14285 384 Q 330.2857 361.14285 345.14285 345.14285 Q 361.14285 330.2857 384 329.14285 L 493.7143 329.14285 L 493.7143 329.14285 Q 493.7143 326.85715 493.7143 324.57144 L 493.7143 73.14286 L 493.7143 73.14286 Q 492.57144 50.285713 477.7143 34.285713 Q 461.7143 19.428572 438.85715 18.285715 L 73.14286 18.285715 L 73.14286 18.285715 Z M 347.42856 485.7143 Q 348.57144 484.57144 350.85715 483.42856 L 483.42856 350.85715 L 483.42856 350.85715 Q 484.57144 348.57144 485.7143 347.42856 L 384 347.42856 L 384 347.42856 Q 368 347.42856 357.7143 357.7143 Q 347.42856 368 347.42856 384 L 347.42856 485.7143 L 347.42856 485.7143 Z M 0 73.14286 Q 1.1428572 42.285713 21.714285 21.714285 L 21.714285 21.714285 L 21.714285 21.714285 Q 42.285713 1.1428572 73.14286 0 L 438.85715 0 L 438.85715 0 Q 469.7143 1.1428572 490.2857 21.714285 Q 510.85715 42.285713 512 73.14286 L 512 324.57144 L 512 324.57144 Q 512 347.42856 496 363.42856 L 363.42856 496 L 363.42856 496 Q 347.42856 512 324.57144 512 L 73.14286 512 L 73.14286 512 Q 42.285713 510.85715 21.714285 490.2857 Q 1.1428572 469.7143 0 438.85715 L 0 73.14286 L 0 73.14286 Z" />
</svg>