<svg xmlns="http://www.w3.org/2000/svg" viewBox="0 0 512 512">
  <path d="M 7.185965 23.354385 Q 0.89824563 24.252632 0 30.54035 Q 0.89824563 36.82807 7.185965 37.726315 L 41.319298 37.726315 L 41.319298 37.726315 Q 57.48772 38.62456 61.978947 54.792984 L 115.87369 327.85965 L 115.87369 327.85965 Q 119.46667 345.82455 132.94035 356.60352 Q 146.41403 368.2807 165.27719 368.2807 L 452.7158 368.2807 L 452.7158 368.2807 Q 459.0035 367.38245 459.90176 361.09473 Q 459.0035 354.807 452.7158 353.90878 L 165.27719 353.90878 L 165.27719 353.90878 Q 151.80351 353.90878 141.9228 345.82455 Q 132.0421 337.74036 129.34737 325.16492 L 121.26316 282.04913 L 121.26316 282.04913 L 425.76843 282.04913 L 425.76843 282.04913 Q 443.73334 282.04913 457.20703 271.27017 Q 470.6807 260.49124 474.27368 243.42456 L 509.30527 96.11228 L 509.30527 96.11228 Q 512 79.045616 502.1193 65.57193 Q 492.2386 52.99649 474.27368 52.098244 L 76.350876 52.098244 L 76.350876 52.098244 Q 69.16491 25.150877 41.319298 23.354385 L 7.185965 23.354385 L 7.185965 23.354385 Z M 79.045616 66.47018 L 474.27368 66.47018 L 79.045616 66.47018 L 474.27368 66.47018 Q 485.05264 66.47018 491.34036 74.55438 Q 496.72983 82.638596 494.93332 93.41754 L 460.8 239.83157 L 460.8 239.83157 Q 452.7158 265.8807 425.76843 267.6772 L 118.56842 267.6772 L 118.56842 267.6772 L 79.045616 66.47018 L 79.045616 66.47018 Z M 129.34737 440.14035 Q 129.34737 427.5649 137.43158 419.4807 L 137.43158 419.4807 L 137.43158 419.4807 Q 145.5158 411.39648 158.09123 411.39648 Q 170.66667 411.39648 178.75087 419.4807 Q 186.83508 427.5649 186.83508 440.14035 Q 186.83508 452.7158 178.75087 460.8 Q 170.66667 468.88422 158.09123 468.88422 Q 145.5158 468.88422 137.43158 460.8 Q 129.34737 452.7158 129.34737 440.14035 L 129.34737 440.14035 Z M 201.20702 440.14035 Q 200.30878 415.88773 179.64912 402.41403 Q 158.09123 391.6351 136.53334 402.41403 Q 115.87369 415.88773 114.97544 440.14035 Q 115.87369 464.39297 136.53334 477.86667 Q 158.09123 488.6456 179.64912 477.86667 Q 200.30878 464.39297 201.20702 440.14035 L 201.20702 440.14035 Z M 416.78595 411.39648 Q 429.3614 411.39648 437.44562 419.4807 L 437.44562 419.4807 L 437.44562 419.4807 Q 445.52982 427.5649 445.52982 440.14035 Q 445.52982 452.7158 437.44562 460.8 Q 429.3614 468.88422 416.78595 468.88422 Q 404.21054 468.88422 396.1263 460.8 Q 388.0421 452.7158 388.0421 440.14035 Q 388.0421 427.5649 396.1263 419.4807 Q 404.21054 411.39648 416.78595 411.39648 L 416.78595 411.39648 Z M 416.78595 483.25613 Q 441.0386 482.35788 454.51227 461.69824 Q 465.29123 440.14035 454.51227 418.58246 Q 441.0386 397.92282 416.78595 397.02457 Q 392.53333 397.92282 379.05966 418.58246 Q 368.2807 440.14035 379.05966 461.69824 Q 392.53333 482.35788 416.78595 483.25613 L 416.78595 483.25613 Z" />
</svg>