<svg xmlns="http://www.w3.org/2000/svg" viewBox="0 0 512 512">
  <path d="M 352 112 Q 352 86 339 64 L 339 64 L 339 64 Q 326 42 304 29 Q 281 16 256 16 Q 231 16 208 29 Q 186 42 173 64 Q 160 86 160 112 Q 160 138 173 160 Q 186 182 208 195 Q 231 208 256 208 Q 281 208 304 195 Q 326 182 339 160 Q 352 138 352 112 L 352 112 Z M 368 112 Q 367 157 338 189 L 338 189 L 338 189 Q 309 220 264 224 L 264 352 L 264 352 L 416 352 L 416 352 Q 443 353 461 371 Q 479 389 480 416 L 480 448 L 480 448 Q 479 475 461 493 Q 443 511 416 512 L 96 512 L 96 512 Q 69 511 51 493 Q 33 475 32 448 L 32 416 L 32 416 Q 33 389 51 371 Q 69 353 96 352 L 248 352 L 248 352 L 248 224 L 248 224 Q 203 220 174 188 Q 145 157 144 112 Q 145 64 177 33 Q 208 1 256 0 Q 304 1 335 33 Q 367 64 368 112 L 368 112 Z M 96 312 Q 97 305 104 304 L 152 304 L 152 304 Q 159 305 160 312 Q 159 319 152 320 L 104 320 L 104 320 Q 97 319 96 312 L 96 312 Z M 464 416 Q 463 396 450 382 L 450 382 L 450 382 Q 436 369 416 368 L 96 368 L 96 368 Q 76 369 62 382 Q 49 396 48 416 L 48 448 L 48 448 Q 49 468 62 482 Q 76 495 96 496 L 416 496 L 416 496 Q 436 495 450 482 Q 463 468 464 448 L 464 416 L 464 416 Z M 224 80 Q 225 95 240 96 Q 255 95 256 80 Q 255 65 240 64 Q 225 65 224 80 L 224 80 Z M 240 112 Q 226 112 217 103 L 217 103 L 217 103 Q 208 94 208 80 Q 208 66 217 57 Q 226 48 240 48 Q 254 48 263 57 Q 272 66 272 80 Q 272 94 263 103 Q 254 112 240 112 L 240 112 Z" />
</svg>