<svg xmlns="http://www.w3.org/2000/svg" viewBox="0 0 512 512">
  <path d="M 166.69768 4.9612403 Q 158.75969 0 151.81395 2.9767442 Q 143.87598 6.9457364 141.89148 14.883721 L 122.04651 122.04651 L 122.04651 122.04651 L 14.883721 141.89148 L 14.883721 141.89148 Q 6.9457364 143.87598 2.9767442 150.8217 Q 0 158.75969 4.9612403 166.69768 L 66.48062 256 L 66.48062 256 L 4.9612403 345.30234 L 4.9612403 345.30234 Q 0 353.2403 2.9767442 361.17828 Q 6.9457364 368.12402 14.883721 370.10852 L 122.04651 389.9535 L 122.04651 389.9535 L 141.89148 497.11627 L 141.89148 497.11627 Q 143.87598 505.05426 150.8217 509.02325 L 154.7907 501.08527 L 154.7907 501.08527 L 150.8217 509.02325 L 150.8217 509.02325 Q 158.75969 512 166.69768 507.03876 L 256 445.51938 L 256 445.51938 L 345.30234 507.03876 L 345.30234 507.03876 Q 353.2403 512 361.17828 509.02325 Q 368.12402 505.05426 370.10852 497.11627 L 389.9535 389.9535 L 389.9535 389.9535 L 497.11627 370.10852 L 497.11627 370.10852 Q 505.05426 368.12402 509.02325 361.17828 Q 512 353.2403 507.03876 345.30234 L 445.51938 256 L 445.51938 256 L 507.03876 166.69768 L 507.03876 166.69768 Q 512 158.75969 509.02325 151.81395 L 501.08527 154.7907 L 501.08527 154.7907 L 509.02325 151.81395 L 509.02325 151.81395 Q 505.05426 143.87598 497.11627 141.89148 L 389.9535 122.04651 L 389.9535 122.04651 L 370.10852 14.883721 L 370.10852 14.883721 Q 368.12402 6.9457364 361.17828 2.9767442 Q 353.2403 0 345.30234 4.9612403 L 256 66.48062 L 256 66.48062 L 166.69768 4.9612403 L 166.69768 4.9612403 Z M 260.96124 82.35659 L 354.23254 17.860466 L 260.96124 82.35659 L 354.23254 17.860466 L 375.06976 129.9845 L 375.06976 129.9845 Q 376.062 135.93799 382.0155 136.93024 L 494.13953 157.76744 L 494.13953 157.76744 L 429.6434 252.031 L 429.6434 252.031 Q 426.66666 256 429.6434 260.96124 L 494.13953 354.23254 L 494.13953 354.23254 L 382.0155 375.06976 L 382.0155 375.06976 Q 376.062 376.062 375.06976 382.0155 L 354.23254 494.13953 L 354.23254 494.13953 L 260.96124 429.6434 L 260.96124 429.6434 Q 256 426.66666 251.03876 429.6434 L 157.76744 494.13953 L 157.76744 494.13953 L 136.93024 382.0155 L 136.93024 382.0155 Q 135.93799 376.062 129.9845 375.06976 L 17.860466 354.23254 L 17.860466 354.23254 L 82.35659 260.96124 L 82.35659 260.96124 Q 85.333336 256 82.35659 251.03876 L 17.860466 157.76744 L 17.860466 157.76744 L 129.9845 136.93024 L 129.9845 136.93024 Q 135.93799 135.93799 136.93024 129.9845 L 157.76744 17.860466 L 157.76744 17.860466 L 252.031 82.35659 L 252.031 82.35659 Q 256 85.333336 260.96124 82.35659 L 260.96124 82.35659 Z M 256 367.13177 Q 285.76746 367.13177 311.5659 352.24805 L 311.5659 352.24805 L 311.5659 352.24805 Q 337.36435 337.36435 352.24805 311.5659 Q 367.13177 285.76746 367.13177 256 Q 367.13177 226.23256 352.24805 200.43411 Q 337.36435 174.63567 311.5659 159.75194 Q 285.76746 144.86821 256 144.86821 Q 226.23256 144.86821 200.43411 159.75194 Q 174.63567 174.63567 159.75194 200.43411 Q 144.86821 226.23256 144.86821 256 Q 144.86821 285.76746 159.75194 311.5659 Q 174.63567 337.36435 200.43411 352.24805 Q 226.23256 367.13177 256 367.13177 L 256 367.13177 Z M 160.74419 256 Q 160.74419 230.20155 173.64342 208.37209 L 173.64342 208.37209 L 173.64342 208.37209 Q 186.54263 186.54263 208.37209 173.64342 Q 231.1938 160.74419 256 160.74419 Q 280.8062 160.74419 303.6279 173.64342 Q 325.45737 186.54263 338.3566 208.37209 Q 351.25583 230.20155 351.25583 256 Q 351.25583 281.79846 338.3566 303.6279 Q 325.45737 325.45737 303.6279 338.3566 Q 280.8062 351.25583 256 351.25583 Q 231.1938 351.25583 208.37209 338.3566 Q 186.54263 325.45737 173.64342 303.6279 Q 160.74419 281.79846 160.74419 256 L 160.74419 256 Z" />
</svg>