<svg xmlns="http://www.w3.org/2000/svg" viewBox="0 0 576 448">
    <path d="M 156 0 Q 224 1 288 23 Q 352 1 420 0 Q 462 1 497 8 Q 532 16 549 22 Q 575 32 576 59 L 576 371 Q 575 391 560 402 Q 546 414 527 411 Q 499 405 428 404 Q 384 405 355 417 Q 327 429 317 438 Q 305 447 288 448 Q 272 447 261 440 Q 249 431 219 418 Q 189 405 148 404 Q 79 405 48 412 Q 29 414 15 403 Q 1 392 0 372 L 0 59 Q 1 32 27 22 Q 44 16 79 8 Q 114 1 156 0 L 156 0 Z M 280 37 Q 219 17 156 16 Q 115 17 82 24 Q 49 31 32 37 Q 17 43 16 59 L 16 372 Q 16 383 25 391 Q 34 398 45 396 Q 78 389 148 388 Q 193 389 225 403 Q 257 417 269 426 Q 274 430 280 431 L 280 37 L 280 37 Z M 296 431 Q 302 429 307 425 Q 319 416 350 402 Q 380 389 428 388 Q 501 389 530 395 Q 542 397 551 390 Q 560 383 560 370 L 560 59 Q 559 43 544 37 Q 527 31 494 24 Q 461 17 420 16 Q 357 17 296 37 L 296 431 L 296 431 Z"/>
</svg>
