<svg xmlns="http://www.w3.org/2000/svg" viewBox="0 0 512 512">
  <path d="M 256 16 Q 321 17 376 48 L 376 48 L 376 48 Q 431 80 464 136 Q 496 193 496 256 Q 496 319 464 376 Q 431 432 376 464 Q 321 495 256 496 Q 191 495 136 464 Q 81 432 48 376 Q 16 319 16 256 Q 16 193 48 136 Q 81 80 136 48 Q 191 17 256 16 L 256 16 Z M 256 512 Q 326 511 384 478 L 384 478 L 384 478 Q 442 444 478 384 Q 512 323 512 256 Q 512 189 478 128 Q 442 68 384 34 Q 326 1 256 0 Q 186 1 128 34 Q 70 68 34 128 Q 0 189 0 256 Q 0 323 34 384 Q 70 444 128 478 Q 186 511 256 512 L 256 512 Z M 256 304 Q 283 305 298 328 Q 310 352 298 376 Q 283 399 256 400 Q 229 399 214 376 Q 202 352 214 328 Q 229 305 256 304 L 256 304 Z M 256 416 Q 283 415 301 397 L 301 397 L 301 397 Q 319 379 320 352 Q 319 327 304 309 Q 288 292 264 289 L 264 80 L 264 80 Q 263 73 256 72 Q 249 73 248 80 L 248 289 L 248 289 Q 224 292 208 309 Q 193 327 192 352 Q 193 379 211 397 Q 229 415 256 416 L 256 416 Z M 144 144 Q 159 143 160 128 Q 159 113 144 112 Q 129 113 128 128 Q 129 143 144 144 L 144 144 Z M 112 240 Q 111 225 96 224 Q 81 225 80 240 Q 81 255 96 256 Q 111 255 112 240 L 112 240 Z M 416 256 Q 431 255 432 240 Q 431 225 416 224 Q 401 225 400 240 Q 401 255 416 256 L 416 256 Z M 384 128 Q 383 113 368 112 Q 353 113 352 128 Q 353 143 368 144 Q 383 143 384 128 L 384 128 Z" />
</svg>