<svg xmlns="http://www.w3.org/2000/svg" viewBox="0 0 512 512">
  <path d="M 240.06226 103.59533 Q 241.05836 66.739296 265.9611 41.836575 L 265.9611 41.836575 L 265.9611 41.836575 Q 290.8638 16.933851 327.71985 15.937743 Q 358.5992 16.933851 381.50974 34.86381 Q 404.42023 52.793774 412.3891 81.68093 L 412.3891 82.67704 L 412.3891 82.67704 L 413.38522 82.67704 L 413.38522 82.67704 Q 415.37744 92.63813 415.37744 103.59533 L 415.37744 183.28404 L 415.37744 183.28404 Q 413.38522 267.9533 356.607 323.7354 Q 299.8288 380.5136 215.15953 382.50583 Q 131.48637 380.5136 74.70817 324.7315 Q 18.92607 268.9494 16.933851 186.27237 Q 17.92996 176.31128 27.89105 175.31517 L 192.24902 175.31517 L 192.24902 175.31517 Q 212.1712 174.31906 226.11673 161.36964 Q 239.06615 147.42412 240.06226 127.501945 L 240.06226 103.59533 L 240.06226 103.59533 Z M 431.3152 103.59533 Q 431.3152 98.614784 431.3152 93.63424 L 488.09338 127.501945 L 488.09338 127.501945 L 431.3152 161.36964 L 431.3152 161.36964 L 431.3152 103.59533 L 431.3152 103.59533 Z M 431.3152 183.28404 L 431.3152 180.29572 L 431.3152 183.28404 L 431.3152 180.29572 L 507.01947 134.4747 L 507.01947 134.4747 Q 511.0039 131.48637 511.0039 127.501945 Q 511.0039 122.5214 507.01947 120.52918 L 427.33075 72.71595 L 427.33075 72.71595 L 426.33463 71.71984 L 426.33463 71.71984 Q 416.37354 39.844357 389.4786 19.922178 Q 362.58365 0.99610895 327.71985 0 Q 283.89105 0.99610895 254.00778 29.883268 Q 225.12062 59.766537 224.12451 103.59533 L 224.12451 127.501945 L 224.12451 127.501945 Q 224.12451 141.44746 215.15953 150.41245 Q 206.19455 159.37743 192.24902 159.37743 L 27.89105 159.37743 L 27.89105 159.37743 Q 2.9883268 161.36964 0.99610895 186.27237 Q 2.9883268 265.9611 51.797665 323.7354 Q 101.60311 380.5136 179.2996 395.45526 L 241.05836 506.02335 L 241.05836 506.02335 Q 245.0428 512 252.01556 509.0117 Q 257.99222 505.02725 255.00389 498.05447 L 198.22568 397.44748 L 198.22568 397.44748 Q 206.19455 398.44357 215.15953 398.44357 Q 243.05058 398.44357 268.9494 391.47083 L 336.6848 506.02335 L 336.6848 506.02335 Q 341.66537 512 347.64203 509.0117 Q 353.61868 505.02725 350.63034 498.05447 L 284.88715 386.49026 L 284.88715 386.49026 Q 349.63425 363.57977 389.4786 309.7899 Q 430.31906 255.00389 431.3152 183.28404 L 431.3152 183.28404 Z M 335.68872 127.501945 Q 350.63034 126.50584 351.62646 111.5642 Q 350.63034 96.62257 335.68872 95.62646 Q 320.74707 96.62257 319.75098 111.5642 Q 320.74707 126.50584 335.68872 127.501945 L 335.68872 127.501945 Z" />
</svg>