<svg xmlns="http://www.w3.org/2000/svg" viewBox="0 0 508 508">
    <path d="M 492 222 L 508 222 Q 496 133 435 73 Q 375 12 286 0 L 286 16 Q 368 28 424 84 Q 480 140 492 222 L 492 222 Z M 508 286 L 492 286 Q 480 368 424 424 Q 368 480 286 492 L 286 508 Q 375 496 435 435 Q 496 375 508 286 L 508 286 Z M 0 286 Q 12 375 73 435 L 73 435 Q 133 496 222 508 L 222 492 Q 140 480 84 424 Q 28 368 16 286 L 0 286 L 0 286 Z M 0 222 L 16 222 Q 28 140 84 84 Q 140 28 222 16 L 222 0 Q 133 12 73 73 Q 12 133 0 222 L 0 222 Z M 166 142 Q 165 135 158 134 Q 151 135 150 142 L 150 366 Q 151 373 158 374 Q 165 373 166 366 L 166 262 L 342 262 L 342 366 Q 343 373 350 374 Q 357 373 358 366 L 358 142 Q 357 135 350 134 Q 343 135 342 142 L 342 246 L 166 246 L 166 142 L 166 142 Z"/>
</svg>
