<svg xmlns="http://www.w3.org/2000/svg" viewBox="0 0 448 512">
    <path d="M 128 8 Q 127 1 120 0 Q 113 1 112 8 L 112 64 L 64 64 Q 37 65 19 83 Q 1 101 0 128 L 0 176 L 0 192 L 0 448 Q 1 475 19 493 Q 37 511 64 512 L 384 512 Q 411 511 429 493 Q 447 475 448 448 L 448 192 L 448 176 L 448 128 Q 447 101 429 83 Q 411 65 384 64 L 336 64 L 336 8 Q 335 1 328 0 Q 321 1 320 8 L 320 64 L 128 64 L 128 8 L 128 8 Z M 16 192 L 432 192 L 432 448 Q 431 468 418 482 Q 404 495 384 496 L 64 496 Q 44 495 30 482 Q 17 468 16 448 L 16 192 L 16 192 Z M 112 80 L 112 120 Q 113 127 120 128 Q 127 127 128 120 L 128 80 L 320 80 L 320 120 Q 321 127 328 128 Q 335 127 336 120 L 336 80 L 384 80 Q 404 81 418 94 Q 431 108 432 128 L 432 176 L 16 176 L 16 128 Q 17 108 30 94 Q 44 81 64 80 L 112 80 L 112 80 Z M 128 306 Q 128 288 140 276 L 140 276 Q 152 264 170 264 Q 187 264 200 276 L 218 295 Q 221 297 224 297 Q 227 297 230 295 L 248 276 Q 261 264 278 264 Q 296 264 308 276 Q 320 288 320 306 L 320 307 Q 320 323 309 335 L 230 421 Q 227 424 224 424 Q 221 424 218 421 L 139 335 Q 128 323 128 307 L 128 306 L 128 306 Z M 170 248 Q 145 249 129 265 L 129 265 Q 113 281 112 306 L 112 307 Q 112 329 127 346 L 206 432 Q 213 440 224 440 Q 234 440 242 432 L 321 346 Q 336 329 336 307 L 336 306 Q 335 281 319 265 Q 303 249 278 248 Q 254 248 237 265 L 224 278 L 211 265 Q 194 248 170 248 L 170 248 Z"/>
</svg>
