<svg xmlns="http://www.w3.org/2000/svg" viewBox="0 0 457 512">
    <path d="M 384 16 Q 411 17 426 40 Q 438 64 426 88 Q 411 111 384 112 Q 357 111 342 88 Q 330 64 342 40 Q 357 17 384 16 L 384 16 Z M 384 128 Q 420 127 439 96 Q 457 64 439 32 Q 420 1 384 0 Q 348 1 329 32 Q 311 64 329 96 Q 348 127 384 128 L 384 128 Z M 80 80 Q 81 53 99 35 L 99 35 Q 117 17 144 16 Q 171 17 189 35 Q 207 53 208 80 L 208 244 Q 209 257 219 264 Q 243 282 257 309 Q 272 336 272 368 Q 271 422 235 459 Q 198 495 144 496 Q 90 495 53 459 Q 17 422 16 368 Q 16 336 31 309 Q 45 282 69 264 Q 79 257 80 244 L 80 80 L 80 80 Z M 144 0 Q 110 1 87 23 L 87 23 Q 65 46 64 80 L 64 244 Q 64 248 60 251 Q 32 271 16 301 Q 0 332 0 368 Q 2 429 42 470 Q 83 511 144 512 Q 205 511 246 470 Q 286 429 288 368 Q 288 332 272 301 Q 256 271 228 251 Q 224 248 224 244 L 224 80 Q 223 46 201 23 Q 178 1 144 0 L 144 0 Z M 96 368 Q 97 341 120 326 Q 144 314 168 326 Q 191 341 192 368 Q 191 395 168 410 Q 144 422 120 410 Q 97 395 96 368 L 96 368 Z M 208 368 Q 207 343 192 325 L 192 325 Q 176 308 152 305 L 152 264 Q 151 257 144 256 Q 137 257 136 264 L 136 305 Q 112 308 96 325 Q 81 343 80 368 Q 81 395 99 413 Q 117 431 144 432 Q 171 431 189 413 Q 207 395 208 368 L 208 368 Z"/>
</svg>
