<svg xmlns="http://www.w3.org/2000/svg" viewBox="0 0 512 512">
  <path d="M 248 16 Q 241 17 240 24 L 240 80 L 240 80 L 272 80 L 272 80 L 272 24 L 272 24 Q 271 17 264 16 L 248 16 L 248 16 Z M 224 80 L 224 24 L 224 80 L 224 24 Q 226 2 248 0 L 264 0 L 264 0 Q 286 2 288 24 L 288 80 L 288 80 L 432 80 L 432 80 L 432 40 L 432 40 Q 433 33 440 32 Q 447 33 448 40 L 448 80 L 448 80 L 496 80 L 496 80 L 496 40 L 496 40 Q 497 33 504 32 Q 511 33 512 40 L 512 80 L 512 80 L 512 96 L 512 96 L 512 112 L 512 112 Q 512 126 503 135 Q 494 144 480 144 L 411 144 L 411 144 L 288 228 L 288 228 L 288 504 L 288 504 Q 287 511 280 512 Q 273 511 272 504 L 272 224 L 272 224 Q 272 224 272 224 Q 272 224 272 224 L 272 144 L 272 144 L 240 144 L 240 144 L 240 224 L 240 224 Q 240 224 240 224 Q 240 224 240 224 L 240 504 L 240 504 Q 239 511 232 512 Q 225 511 224 504 L 224 228 L 224 228 L 102 144 L 102 144 L 32 144 L 32 144 Q 18 144 9 135 Q 0 126 0 112 L 0 96 L 0 96 L 0 80 L 0 80 L 0 40 L 0 40 Q 1 33 8 32 Q 15 33 16 40 L 16 80 L 16 80 L 64 80 L 64 80 L 64 40 L 64 40 Q 65 33 72 32 Q 79 33 80 40 L 80 80 L 80 80 L 224 80 L 224 80 Z M 104 128 L 232 128 L 104 128 L 408 128 Q 408 128 408 128 Q 408 128 408 128 L 480 128 L 480 128 Q 495 127 496 112 L 496 96 L 496 96 L 288 96 L 16 96 L 16 112 L 16 112 Q 17 127 32 128 L 104 128 L 104 128 Q 104 128 104 128 Q 104 128 104 128 L 104 128 Z M 130 144 L 224 209 L 130 144 L 224 209 L 224 144 L 224 144 L 130 144 L 130 144 Z M 382 144 L 288 144 L 382 144 L 288 144 L 288 209 L 288 209 L 382 144 L 382 144 Z" />
</svg>