<svg xmlns="http://www.w3.org/2000/svg" viewBox="0 0 585 512">
    <path d="M 512 16 Q 539 17 554 40 Q 566 64 554 88 Q 539 111 512 112 Q 485 111 470 88 Q 458 64 470 40 Q 485 17 512 16 L 512 16 Z M 512 128 Q 548 127 567 96 Q 585 64 567 32 Q 548 1 512 0 Q 476 1 457 32 Q 439 64 457 96 Q 476 127 512 128 L 512 128 Z M 224 496 Q 136 494 77 435 L 77 435 Q 18 376 16 288 Q 16 264 21 241 L 24 243 Q 45 264 75 264 L 108 264 Q 125 264 136 276 L 184 323 L 184 352 Q 186 383 216 391 L 216 431 Q 216 445 226 454 Q 235 464 249 464 Q 268 463 278 447 L 319 370 Q 328 354 328 336 L 328 320 Q 328 303 316 292 Q 305 280 288 280 L 222 280 Q 211 280 204 272 Q 189 255 202 237 L 255 174 Q 264 163 264 148 L 264 84 Q 337 99 384 155 Q 430 211 432 288 Q 430 376 371 435 Q 312 494 224 496 L 224 496 Z M 8 228 Q 0 257 0 288 Q 1 351 31 401 Q 60 452 111 481 Q 161 511 224 512 Q 287 511 337 481 Q 388 452 417 401 Q 447 351 448 288 Q 447 225 417 175 Q 388 124 337 95 Q 287 65 224 64 Q 150 65 94 105 Q 38 146 14 211 Q 11 219 8 228 L 8 228 Z M 26 223 Q 48 160 101 120 L 101 120 Q 154 81 224 80 Q 236 80 248 81 L 248 148 Q 248 157 242 164 L 190 227 Q 179 240 180 256 Q 181 272 192 284 Q 205 296 222 296 L 288 296 Q 310 298 312 320 L 312 336 Q 312 350 305 363 L 264 439 Q 259 448 249 448 Q 233 447 232 431 L 232 384 Q 231 377 224 376 Q 202 374 200 352 L 200 320 Q 200 317 198 314 L 148 264 Q 131 248 108 248 L 75 248 Q 51 248 35 232 L 26 223 L 26 223 Z"/>
</svg>
