<svg xmlns="http://www.w3.org/2000/svg" viewBox="0 0 296 512">
    <path d="M 156 8 Q 155 1 148 0 Q 141 1 140 8 L 140 64 Q 126 63 112 64 Q 74 67 44 84 Q 14 103 6 143 Q 0 172 11 193 Q 22 214 44 227 Q 64 240 91 248 Q 117 256 145 263 Q 145 263 145 263 L 145 263 L 146 264 Q 146 264 146 264 Q 205 276 244 298 Q 262 309 271 325 Q 279 341 274 366 Q 266 404 223 421 Q 179 437 114 428 Q 94 425 67 419 Q 41 412 15 402 Q 8 399 5 406 Q 3 413 9 416 Q 36 427 63 434 Q 91 441 112 444 L 112 444 Q 126 446 140 447 L 140 448 L 140 504 Q 141 511 148 512 Q 155 511 156 504 L 156 448 L 156 448 Q 197 448 229 436 Q 279 417 290 369 Q 296 339 285 318 Q 274 297 253 285 Q 232 272 205 264 Q 179 255 151 248 Q 151 248 151 248 L 151 248 L 150 248 Q 150 248 150 248 Q 91 235 52 214 Q 34 202 26 186 Q 17 171 22 146 Q 29 113 53 98 Q 78 83 113 80 Q 149 78 185 83 Q 221 88 248 95 Q 255 96 258 89 Q 259 82 252 80 Q 212 69 156 64 L 156 64 L 156 8 L 156 8 Z"/>
</svg>
