<svg xmlns="http://www.w3.org/2000/svg" viewBox="0 0 512 512">
  <path d="M 264 16 L 264 272 L 264 16 L 264 272 L 464 272 L 464 272 L 464 64 L 464 64 Q 463 44 450 30 Q 436 17 416 16 L 264 16 L 264 16 Z M 480 64 L 480 272 L 480 64 L 480 272 L 480 288 L 480 288 L 464 288 L 32 288 L 32 272 L 32 272 L 32 64 L 32 64 Q 33 37 51 19 Q 69 1 96 0 L 416 0 L 416 0 Q 443 1 461 19 Q 479 37 480 64 L 480 64 Z M 248 272 L 248 16 L 248 272 L 248 16 L 96 16 L 96 16 Q 76 17 62 30 Q 49 44 48 64 L 48 272 L 48 272 L 248 272 L 248 272 Z M 8 496 L 32 496 L 8 496 L 32 496 L 32 320 L 32 320 L 48 320 L 48 320 L 48 496 L 48 496 L 464 496 L 464 496 L 464 320 L 464 320 L 480 320 L 480 320 L 480 496 L 480 496 L 504 496 L 504 496 Q 511 497 512 504 Q 511 511 504 512 L 472 512 L 8 512 Q 1 511 0 504 Q 1 497 8 496 L 8 496 Z" />
</svg>