<svg xmlns="http://www.w3.org/2000/svg" viewBox="0 0 512 448">
    <path d="M 62 58 Q 77 46 106 37 Q 131 28 164 23 Q 160 31 160 40 Q 160 57 172 68 Q 183 80 200 80 L 312 80 Q 329 80 340 68 Q 352 57 352 40 Q 352 31 348 23 Q 381 28 406 37 Q 435 46 450 58 Q 465 70 464 80 Q 464 89 453 99 Q 442 110 419 119 Q 371 138 295 143 Q 279 144 267 155 Q 256 167 256 184 L 256 256 Q 255 271 240 272 Q 225 271 224 256 L 224 181 Q 224 165 213 153 Q 203 142 187 140 Q 182 140 176 139 Q 157 137 143 148 Q 129 160 128 180 L 128 304 Q 127 319 112 320 Q 97 319 96 304 L 96 147 Q 94 121 73 109 Q 47 93 48 80 Q 47 70 62 58 L 62 58 Z M 187 20 Q 220 16 256 16 Q 292 16 325 20 Q 335 27 336 40 Q 334 62 312 64 L 200 64 Q 178 62 176 40 Q 177 27 187 20 L 187 20 Z M 101 22 Q 70 32 52 46 Q 33 60 32 80 Q 34 106 65 123 Q 79 132 80 147 L 80 304 Q 80 318 89 327 Q 98 336 112 336 Q 126 336 135 327 Q 144 318 144 304 L 144 180 Q 144 168 153 161 Q 162 153 174 155 Q 177 155 180 155 Q 183 156 185 156 Q 206 160 208 181 L 208 256 Q 208 270 217 279 Q 226 288 240 288 Q 254 288 263 279 Q 272 270 272 256 L 272 184 Q 274 162 296 159 Q 374 154 424 134 Q 449 124 464 111 Q 479 98 480 80 Q 479 60 460 46 Q 442 32 411 22 Q 349 1 256 0 Q 163 1 101 22 L 101 22 Z M 505 110 Q 501 119 495 126 Q 496 131 496 136 Q 498 170 432 194 Q 380 211 304 215 L 304 231 Q 365 228 413 216 Q 461 204 487 183 Q 496 195 496 208 Q 498 242 432 266 Q 377 284 296 287 Q 291 297 283 304 Q 351 302 405 290 Q 458 278 487 255 Q 496 267 496 280 Q 498 314 432 338 Q 363 360 256 360 Q 200 360 152 354 Q 141 363 127 366 Q 185 376 256 376 Q 333 376 394 364 Q 455 352 487 327 Q 496 339 496 352 Q 498 386 432 410 Q 363 432 256 432 Q 149 432 80 410 Q 14 386 16 352 Q 16 339 25 327 Q 42 341 68 351 Q 57 340 52 326 Q 15 306 16 280 Q 16 267 25 255 Q 35 263 48 270 L 48 252 Q 15 232 16 208 Q 16 195 25 183 Q 35 191 48 198 L 48 180 Q 15 160 16 136 Q 16 131 17 126 Q 11 119 7 110 Q 0 122 0 136 Q 0 156 13 172 Q 0 188 0 208 Q 0 228 13 244 Q 0 260 0 280 Q 0 300 13 316 Q 0 332 0 352 Q 3 402 75 425 Q 147 448 256 448 Q 365 448 437 425 Q 509 402 512 352 Q 512 332 499 316 Q 512 300 512 280 Q 512 260 499 244 Q 512 228 512 208 Q 512 188 499 172 Q 512 156 512 136 Q 512 122 505 110 L 505 110 Z"/>
</svg>
