<svg xmlns="http://www.w3.org/2000/svg" viewBox="0 0 512 512">
  <path d="M 73.14286 18.285715 Q 50.285713 19.428572 34.285713 34.285713 L 34.285713 34.285713 L 34.285713 34.285713 Q 19.428572 50.285713 18.285715 73.14286 L 18.285715 438.85715 L 18.285715 438.85715 Q 19.428572 461.7143 34.285713 477.7143 Q 50.285713 492.57144 73.14286 493.7143 L 438.85715 493.7143 L 438.85715 493.7143 Q 461.7143 492.57144 477.7143 477.7143 Q 492.57144 461.7143 493.7143 438.85715 L 493.7143 73.14286 L 493.7143 73.14286 Q 492.57144 50.285713 477.7143 34.285713 Q 461.7143 19.428572 438.85715 18.285715 L 73.14286 18.285715 L 73.14286 18.285715 Z M 0 73.14286 Q 1.1428572 42.285713 21.714285 21.714285 L 21.714285 21.714285 L 21.714285 21.714285 Q 42.285713 1.1428572 73.14286 0 L 438.85715 0 L 438.85715 0 Q 469.7143 1.1428572 490.2857 21.714285 Q 510.85715 42.285713 512 73.14286 L 512 438.85715 L 512 438.85715 Q 510.85715 469.7143 490.2857 490.2857 Q 469.7143 510.85715 438.85715 512 L 73.14286 512 L 73.14286 512 Q 42.285713 510.85715 21.714285 490.2857 Q 1.1428572 469.7143 0 438.85715 L 0 73.14286 L 0 73.14286 Z M 269.7143 229.71428 L 329.14285 109.71429 L 269.7143 229.71428 L 329.14285 109.71429 L 146.28572 256 L 146.28572 256 L 226.28572 256 L 226.28572 256 Q 236.57143 256 242.28572 265.14285 Q 246.85715 273.14285 242.28572 282.2857 L 182.85715 402.2857 L 182.85715 402.2857 L 365.7143 256 L 365.7143 256 L 285.7143 256 L 285.7143 256 Q 275.42856 256 269.7143 246.85715 Q 265.14285 238.85715 269.7143 229.71428 L 269.7143 229.71428 Z M 345.14285 117.71429 L 294.85715 219.42857 L 345.14285 117.71429 L 294.85715 219.42857 L 285.7143 237.71428 L 285.7143 237.71428 L 306.2857 237.71428 L 365.7143 237.71428 Q 378.2857 238.85715 382.85715 250.28572 Q 386.2857 261.7143 377.14285 270.85715 L 194.28572 417.14285 L 194.28572 417.14285 Q 182.85715 425.14285 171.42857 416 Q 161.14285 406.85715 166.85715 394.2857 L 217.14285 292.57144 L 217.14285 292.57144 L 226.28572 274.2857 L 226.28572 274.2857 L 205.71428 274.2857 L 146.28572 274.2857 Q 133.71428 273.14285 129.14285 261.7143 Q 125.71429 250.28572 134.85715 241.14285 L 317.7143 94.85714 L 317.7143 94.85714 Q 329.14285 86.85714 340.57144 96 Q 350.85715 105.14286 345.14285 117.71429 L 345.14285 117.71429 Z" />
</svg>