<svg xmlns="http://www.w3.org/2000/svg" viewBox="0 0 512 512">
  <path d="M 127.4688796680498 21.244813278008298 Q 121.0954356846473 16.99585062240664 114.72199170124482 21.244813278008298 L 4.24896265560166 131.71784232365144 L 4.24896265560166 131.71784232365144 Q 0 138.09128630705393 4.24896265560166 144.46473029045643 Q 10.622406639004149 148.7136929460581 16.99585062240664 144.46473029045643 L 112.59751037344398 47.80082987551867 L 112.59751037344398 47.80082987551867 L 112.59751037344398 486.50622406639 L 112.59751037344398 486.50622406639 Q 113.65975103734439 493.94190871369295 121.0954356846473 495.00414937759336 Q 128.5311203319502 493.94190871369295 129.59336099585062 486.50622406639 L 129.59336099585062 47.80082987551867 L 129.59336099585062 47.80082987551867 L 225.19502074688796 144.46473029045643 L 225.19502074688796 144.46473029045643 Q 231.56846473029046 148.7136929460581 237.94190871369295 144.46473029045643 Q 242.1908713692946 138.09128630705393 237.94190871369295 131.71784232365144 L 127.4688796680498 21.244813278008298 L 127.4688796680498 21.244813278008298 Z M 393.02904564315355 19.12033195020747 Q 376.0331950207469 19.12033195020747 367.53526970954357 33.99170124481328 L 278.3070539419087 182.70539419087137 L 278.3070539419087 182.70539419087137 Q 274.05809128630705 189.07883817427387 274.05809128630705 196.51452282157678 Q 276.18257261410787 220.94605809128632 300.61410788381744 223.07053941908714 L 485.4439834024896 223.07053941908714 L 485.4439834024896 223.07053941908714 Q 509.8755186721992 220.94605809128632 512 196.51452282157678 Q 512 189.07883817427387 507.75103734439836 182.70539419087137 L 418.5228215767635 33.99170124481328 L 418.5228215767635 33.99170124481328 Q 410.0248962655602 19.12033195020747 393.02904564315355 19.12033195020747 L 393.02904564315355 19.12033195020747 Z M 308.0497925311203 444.01659751037346 L 308.0497925311203 342.0414937759336 L 308.0497925311203 444.01659751037346 L 308.0497925311203 342.0414937759336 Q 308.0497925311203 327.1701244813278 317.6099585062241 317.6099585062241 Q 327.1701244813278 308.0497925311203 342.0414937759336 308.0497925311203 L 444.01659751037346 308.0497925311203 L 444.01659751037346 308.0497925311203 Q 458.88796680497927 308.0497925311203 468.448132780083 317.6099585062241 Q 478.00829875518673 327.1701244813278 478.00829875518673 342.0414937759336 L 478.00829875518673 444.01659751037346 L 478.00829875518673 444.01659751037346 Q 478.00829875518673 458.88796680497927 468.448132780083 468.448132780083 Q 458.88796680497927 478.00829875518673 444.01659751037346 478.00829875518673 L 342.0414937759336 478.00829875518673 L 342.0414937759336 478.00829875518673 Q 327.1701244813278 478.00829875518673 317.6099585062241 468.448132780083 Q 308.0497925311203 458.88796680497927 308.0497925311203 444.01659751037346 L 308.0497925311203 444.01659751037346 Z M 292.1161825726141 191.2033195020747 L 382.4066390041494 42.489626556016596 L 292.1161825726141 191.2033195020747 L 382.4066390041494 42.489626556016596 Q 385.5933609958506 36.11618257261411 393.02904564315355 36.11618257261411 Q 400.46473029045643 36.11618257261411 404.7136929460581 42.489626556016596 L 493.94190871369295 191.2033195020747 L 493.94190871369295 191.2033195020747 Q 495.00414937759336 193.3278008298755 495.00414937759336 196.51452282157678 Q 493.94190871369295 205.0124481327801 485.4439834024896 206.0746887966805 L 300.61410788381744 206.0746887966805 L 300.61410788381744 206.0746887966805 Q 292.1161825726141 205.0124481327801 291.0539419087137 196.51452282157678 Q 291.0539419087137 194.39004149377593 292.1161825726141 191.2033195020747 L 292.1161825726141 191.2033195020747 Z M 291.0539419087137 444.01659751037346 Q 292.1161825726141 465.26141078838174 305.9253112033195 480.13278008298755 L 305.9253112033195 480.13278008298755 L 305.9253112033195 480.13278008298755 Q 320.7966804979253 493.94190871369295 342.0414937759336 495.00414937759336 L 444.01659751037346 495.00414937759336 L 444.01659751037346 495.00414937759336 Q 465.26141078838174 493.94190871369295 480.13278008298755 480.13278008298755 Q 493.94190871369295 465.26141078838174 495.00414937759336 444.01659751037346 L 495.00414937759336 342.0414937759336 L 495.00414937759336 342.0414937759336 Q 493.94190871369295 320.7966804979253 480.13278008298755 305.9253112033195 Q 465.26141078838174 292.1161825726141 444.01659751037346 291.0539419087137 L 342.0414937759336 291.0539419087137 L 342.0414937759336 291.0539419087137 Q 320.7966804979253 292.1161825726141 305.9253112033195 305.9253112033195 Q 292.1161825726141 320.7966804979253 291.0539419087137 342.0414937759336 L 291.0539419087137 444.01659751037346 L 291.0539419087137 444.01659751037346 Z" />
</svg>