<svg xmlns="http://www.w3.org/2000/svg" viewBox="0 0 512 512">
  <path d="M 155.39299 366.56808 Q 161.36964 370.55252 167.3463 366.56808 Q 171.33073 360.59143 167.3463 354.61478 L 28.88716 217.15175 L 28.88716 217.15175 L 440.28015 217.15175 L 440.28015 217.15175 Q 464.18677 218.14786 480.1245 233.0895 Q 495.06616 249.02724 496.06226 272.93384 L 496.06226 456.2179 L 496.06226 456.2179 Q 497.05838 463.19067 504.03113 464.18677 Q 511.0039 463.19067 512 456.2179 L 512 272.93384 L 512 272.93384 Q 511.0039 242.05447 491.08173 222.1323 Q 471.15955 202.21011 440.28015 201.214 L 28.88716 201.214 L 28.88716 201.214 L 167.3463 63.750973 L 167.3463 63.750973 Q 171.33073 57.77432 167.3463 51.797665 Q 161.36964 47.81323 155.39299 51.797665 L 3.9844358 203.20622 L 3.9844358 203.20622 Q 0 209.18288 3.9844358 215.15953 L 155.39299 366.56808 L 155.39299 366.56808 Z" />
</svg>