<svg xmlns="http://www.w3.org/2000/svg" viewBox="0 0 512 512">
  <path d="M 508.031 37.705425 Q 512 43.658916 507.03876 48.620155 L 324.46512 207.37985 L 324.46512 207.37985 Q 319.50388 211.34883 313.55038 207.37985 L 191.50388 85.333336 L 191.50388 85.333336 L 14.883721 223.25581 L 14.883721 223.25581 Q 8.930233 227.22481 3.9689922 222.26357 Q 0 216.31007 4.9612403 211.34883 L 187.53488 68.46512 L 187.53488 68.46512 Q 193.48837 64.496124 198.44962 68.46512 L 319.50388 190.51163 L 319.50388 190.51163 L 497.11627 36.713177 L 497.11627 36.713177 Q 503.06976 32.744186 508.031 37.705425 L 508.031 37.705425 Z M 81.36434 447.50388 L 81.36434 352.24805 L 81.36434 447.50388 L 81.36434 352.24805 Q 80.37209 337.36435 65.48837 336.3721 Q 50.604652 337.36435 49.612404 352.24805 L 49.612404 447.50388 L 49.612404 447.50388 Q 50.604652 462.3876 65.48837 463.37985 Q 80.37209 462.3876 81.36434 447.50388 L 81.36434 447.50388 Z M 65.48837 320.49612 Q 79.379845 320.49612 88.310074 329.42636 L 88.310074 329.42636 L 88.310074 329.42636 Q 97.24031 338.3566 97.24031 352.24805 L 97.24031 447.50388 L 97.24031 447.50388 Q 97.24031 461.39536 88.310074 470.3256 Q 79.379845 479.25583 65.48837 479.25583 Q 51.5969 479.25583 42.666668 470.3256 Q 33.736435 461.39536 33.736435 447.50388 L 33.736435 352.24805 L 33.736435 352.24805 Q 33.736435 338.3566 42.666668 329.42636 Q 51.5969 320.49612 65.48837 320.49612 L 65.48837 320.49612 Z M 192.49612 241.11627 Q 177.6124 242.10852 176.62015 256.99225 L 176.62015 447.50388 L 176.62015 447.50388 Q 177.6124 462.3876 192.49612 463.37985 Q 207.37985 462.3876 208.37209 447.50388 L 208.37209 256.99225 L 208.37209 256.99225 Q 207.37985 242.10852 192.49612 241.11627 L 192.49612 241.11627 Z M 160.74419 256.99225 Q 160.74419 243.10077 169.67442 234.17055 L 169.67442 234.17055 L 169.67442 234.17055 Q 178.60464 225.24031 192.49612 225.24031 Q 206.3876 225.24031 215.31783 234.17055 Q 224.24806 243.10077 224.24806 256.99225 L 224.24806 447.50388 L 224.24806 447.50388 Q 224.24806 461.39536 215.31783 470.3256 Q 206.3876 479.25583 192.49612 479.25583 Q 178.60464 479.25583 169.67442 470.3256 Q 160.74419 461.39536 160.74419 447.50388 L 160.74419 256.99225 L 160.74419 256.99225 Z M 335.37985 447.50388 L 335.37985 320.49612 L 335.37985 447.50388 L 335.37985 320.49612 Q 334.3876 305.6124 319.50388 304.62015 Q 304.62015 305.6124 303.6279 320.49612 L 303.6279 447.50388 L 303.6279 447.50388 Q 304.62015 462.3876 319.50388 463.37985 Q 334.3876 462.3876 335.37985 447.50388 L 335.37985 447.50388 Z M 319.50388 288.74417 Q 333.39536 288.74417 342.3256 297.6744 L 342.3256 297.6744 L 342.3256 297.6744 Q 351.25583 306.60464 351.25583 320.49612 L 351.25583 447.50388 L 351.25583 447.50388 Q 351.25583 461.39536 342.3256 470.3256 Q 333.39536 479.25583 319.50388 479.25583 Q 305.6124 479.25583 296.68216 470.3256 Q 287.75195 461.39536 287.75195 447.50388 L 287.75195 320.49612 L 287.75195 320.49612 Q 287.75195 306.60464 296.68216 297.6744 Q 305.6124 288.74417 319.50388 288.74417 L 319.50388 288.74417 Z M 446.51163 241.11627 Q 431.6279 242.10852 430.63565 256.99225 L 430.63565 447.50388 L 430.63565 447.50388 Q 431.6279 462.3876 446.51163 463.37985 Q 461.39536 462.3876 462.3876 447.50388 L 462.3876 256.99225 L 462.3876 256.99225 Q 461.39536 242.10852 446.51163 241.11627 L 446.51163 241.11627 Z M 414.7597 256.99225 Q 414.7597 243.10077 423.6899 234.17055 L 423.6899 234.17055 L 423.6899 234.17055 Q 432.62015 225.24031 446.51163 225.24031 Q 460.4031 225.24031 469.33334 234.17055 Q 478.26358 243.10077 478.26358 256.99225 L 478.26358 447.50388 L 478.26358 447.50388 Q 478.26358 461.39536 469.33334 470.3256 Q 460.4031 479.25583 446.51163 479.25583 Q 432.62015 479.25583 423.6899 470.3256 Q 414.7597 461.39536 414.7597 447.50388 L 414.7597 256.99225 L 414.7597 256.99225 Z" />
</svg>