<svg xmlns="http://www.w3.org/2000/svg" viewBox="0 0 570 522">
    <path d="M 226 64 Q 225 41 206 29 Q 186 19 166 29 Q 147 41 146 64 Q 147 87 166 99 Q 186 109 206 99 Q 225 87 226 64 L 226 64 Z M 130 64 Q 131 32 158 16 Q 186 0 214 16 Q 241 32 242 64 Q 241 96 214 112 Q 186 128 158 112 Q 131 96 130 64 L 130 64 Z M 98 256 L 98 488 Q 99 503 114 504 Q 129 503 130 488 L 130 368 Q 132 346 154 344 Q 176 346 178 368 L 178 488 Q 179 503 194 504 Q 209 503 210 488 L 210 256 Q 211 249 218 248 Q 225 249 226 256 L 226 488 Q 226 502 217 511 Q 208 520 194 520 Q 180 520 171 511 Q 162 502 162 488 L 162 368 Q 161 361 154 360 Q 147 361 146 368 L 146 488 Q 146 502 137 511 Q 128 520 114 520 Q 100 520 91 511 Q 82 502 82 488 L 82 256 Q 83 249 90 248 Q 97 249 98 256 L 98 256 Z M 135 152 Q 101 153 85 184 L 17 324 Q 13 330 7 327 Q 0 323 3 317 L 70 177 Q 91 138 135 136 L 179 136 Q 217 137 239 168 L 321 292 Q 324 298 318 303 Q 312 306 307 301 L 225 177 Q 208 153 179 152 L 135 152 L 135 152 Z M 447 422 L 405 381 Q 399 375 391 376 Q 383 378 380 385 L 332 481 Q 326 494 339 502 Q 353 508 360 495 L 389 439 Q 392 432 400 430 Q 408 429 414 435 L 469 489 Q 484 504 504 504 Q 525 503 539 489 Q 553 475 554 454 L 554 352 Q 554 335 542 324 Q 531 312 514 312 Q 497 312 486 324 Q 474 335 474 352 L 474 411 Q 474 421 464 426 Q 454 429 447 422 L 447 422 Z M 458 248 Q 458 234 449 225 L 449 225 Q 440 216 426 216 Q 412 216 403 225 Q 394 234 394 248 Q 394 262 403 271 Q 412 280 426 280 Q 440 280 449 271 Q 458 262 458 248 L 458 248 Z M 457 501 L 415 458 L 403 446 L 395 461 L 375 502 Q 368 514 356 518 Q 344 522 332 517 Q 320 510 316 498 Q 312 486 318 474 L 366 378 Q 373 363 389 360 Q 405 358 417 369 L 442 395 L 458 411 L 458 388 L 458 352 Q 459 328 474 312 Q 490 297 514 296 Q 538 297 554 312 Q 569 328 570 352 L 570 454 Q 569 482 551 501 Q 532 519 504 520 Q 477 520 458 501 L 457 501 Z M 426 200 Q 453 201 468 224 Q 480 248 468 272 Q 453 295 426 296 Q 399 295 384 272 Q 372 248 384 224 Q 399 201 426 200 L 426 200 Z M 290 56 Q 291 49 298 48 L 354 48 Q 361 49 362 56 Q 361 63 354 64 L 298 64 Q 291 63 290 56 L 290 56 Z M 278 113 L 326 137 Q 332 141 329 148 Q 325 154 319 151 L 271 127 Q 264 123 267 116 Q 271 110 278 113 L 278 113 Z"/>
</svg>
