<svg xmlns="http://www.w3.org/2000/svg" viewBox="0 0 514 525">
    <path d="M 510 4 Q 514 10 510 16 L 351 175 L 386 210 Q 403 228 403 250 Q 403 272 386 290 L 178 498 Q 162 514 138 514 Q 119 513 91 505 Q 63 498 39 475 Q 16 451 9 423 Q 1 395 1 376 Q 0 352 16 336 L 224 128 Q 242 111 264 111 Q 286 111 304 128 L 339 163 L 498 4 Q 504 0 510 4 L 510 4 Z M 51 464 Q 71 483 96 490 Q 121 497 139 498 Q 155 498 167 487 L 339 314 L 240 314 Q 223 314 212 302 Q 200 291 200 274 L 200 175 L 27 347 Q 16 359 16 375 Q 17 393 24 418 L 9 423 L 24 418 Q 31 443 50 463 Q 50 463 50 464 Q 50 464 51 464 L 51 464 Z M 355 298 L 375 278 Q 387 266 387 250 Q 387 234 375 222 L 292 139 Q 280 127 264 127 Q 248 127 236 139 L 216 159 L 216 274 Q 218 296 240 298 L 355 298 L 355 298 Z M 496 434 Q 495 398 464 379 Q 432 361 400 379 Q 369 398 368 434 Q 369 470 400 489 Q 432 507 464 489 Q 495 470 496 434 L 496 434 Z M 352 434 Q 353 389 392 365 Q 432 343 472 365 Q 511 389 512 434 Q 511 479 472 503 Q 432 525 392 503 Q 353 479 352 434 L 352 434 Z"/>
</svg>
