<svg xmlns="http://www.w3.org/2000/svg" viewBox="0 0 512 512">
  <path d="M 493.7143 256 Q 493.7143 270.85715 483.42856 281.14285 L 314.2857 450.2857 L 314.2857 450.2857 Q 307.42856 457.14285 297.14285 457.14285 Q 276.57144 454.85715 274.2857 434.2857 L 274.2857 320 L 274.2857 320 Q 273.14285 312 265.14285 310.85715 L 45.714287 310.85715 L 45.714287 310.85715 Q 20.571428 308.57144 18.285715 283.42856 L 18.285715 228.57143 L 18.285715 228.57143 Q 20.571428 203.42857 45.714287 201.14285 L 265.14285 201.14285 L 265.14285 201.14285 Q 273.14285 200 274.2857 192 L 274.2857 77.71429 L 274.2857 77.71429 Q 276.57144 57.142857 297.14285 54.857143 Q 307.42856 54.857143 314.2857 61.714287 L 483.42856 230.85715 L 483.42856 230.85715 Q 493.7143 241.14285 493.7143 256 L 493.7143 256 Z M 297.14285 475.42856 Q 314.2857 475.42856 326.85715 462.85715 L 496 293.7143 L 496 293.7143 Q 512 277.7143 512 256 Q 512 234.28572 496 218.28572 L 326.85715 49.142857 L 326.85715 49.142857 Q 314.2857 36.57143 297.14285 36.57143 Q 280 36.57143 268.57144 49.142857 Q 256 60.57143 256 77.71429 L 256 182.85715 L 256 182.85715 L 45.714287 182.85715 L 45.714287 182.85715 Q 26.285715 182.85715 13.714286 196.57143 Q 0 209.14285 0 228.57143 L 0 283.42856 L 0 283.42856 Q 0 302.85715 13.714286 315.42856 Q 26.285715 329.14285 45.714287 329.14285 L 256 329.14285 L 256 329.14285 L 256 434.2857 L 256 434.2857 Q 256 451.42856 268.57144 462.85715 Q 280 475.42856 297.14285 475.42856 L 297.14285 475.42856 Z" />
</svg>