<svg xmlns="http://www.w3.org/2000/svg" viewBox="0 0 576 448">
    <path d="M 536 16 Q 558 18 560 40 L 560 56 Q 558 78 536 80 L 528 80 L 48 80 L 40 80 Q 18 78 16 56 L 16 40 Q 18 18 40 16 L 536 16 L 536 16 Z M 0 56 Q 0 71 10 82 L 10 82 Q 19 93 33 95 L 33 96 L 59 390 Q 62 415 79 431 Q 97 447 123 448 L 453 448 Q 479 447 497 431 Q 514 415 517 390 L 543 96 L 543 95 Q 557 93 566 82 Q 576 71 576 56 L 576 40 Q 576 23 564 12 Q 553 0 536 0 L 40 0 Q 23 0 12 12 Q 0 23 0 40 L 0 56 L 0 56 Z M 75 388 L 50 96 L 527 96 L 501 388 Q 499 407 486 419 Q 472 432 453 432 L 123 432 Q 104 432 90 419 Q 77 407 75 388 L 75 388 Z M 288 160 Q 300 160 307 170 L 343 218 Q 347 223 354 220 Q 360 215 356 209 L 320 160 Q 308 144 288 144 Q 268 144 256 160 L 220 209 Q 216 215 223 220 Q 229 223 233 218 L 269 170 Q 276 160 288 160 L 288 160 Z M 202 245 Q 196 242 192 247 L 159 291 Q 152 301 152 314 Q 152 330 163 341 Q 174 352 190 352 L 264 352 Q 271 351 272 344 Q 271 337 264 336 L 190 336 Q 170 334 168 314 Q 168 307 172 301 L 205 257 Q 209 250 202 245 L 202 245 Z M 304 344 Q 305 351 312 352 L 386 352 Q 402 352 413 341 Q 424 330 424 314 Q 424 301 417 291 L 384 247 Q 380 242 374 245 Q 367 250 371 257 L 404 301 Q 408 307 408 314 Q 406 334 386 336 L 312 336 Q 305 337 304 344 L 304 344 Z"/>
</svg>
