<svg xmlns="http://www.w3.org/2000/svg" viewBox="0 0 500 446">
    <path d="M 395 418 L 395 418 L 491 251 Q 495 245 497 237 Q 500 226 498 214 Q 496 204 491 195 L 395 28 Q 378 1 346 0 L 154 0 Q 122 1 105 28 L 9 195 Q 3 205 2 217 Q 0 235 9 251 L 105 418 Q 122 445 154 446 L 346 446 Q 378 445 395 418 L 395 418 Z M 477 203 Q 481 210 482 218 L 480 238 Q 478 241 477 243 Q 477 243 477 243 L 456 280 L 385 204 Q 375 194 362 194 Q 349 194 339 204 L 238 312 L 176 253 Q 167 244 154 244 Q 141 244 132 253 L 66 319 L 23 243 Q 17 234 17 223 Q 17 218 19 213 Q 20 208 23 203 L 119 36 Q 131 17 154 16 L 346 16 Q 369 17 381 36 L 477 203 L 477 203 Z M 75 333 L 143 265 Q 154 255 165 264 L 227 324 L 133 424 Q 124 419 119 410 L 75 333 L 75 333 Z M 381 410 Q 369 429 346 430 L 154 430 Q 152 430 150 430 Q 149 430 149 430 L 350 215 Q 362 205 374 215 L 448 294 L 381 410 L 381 410 Z M 186 175 Q 213 174 228 151 Q 240 127 228 103 Q 213 80 186 79 Q 159 80 144 103 Q 132 127 144 151 Q 159 174 186 175 L 186 175 Z M 154 127 Q 154 113 163 104 L 163 104 Q 172 95 186 95 Q 200 95 209 104 Q 218 113 218 127 Q 218 141 209 150 Q 200 159 186 159 Q 172 159 163 150 Q 154 141 154 127 L 154 127 Z"/>
</svg>
