<svg xmlns="http://www.w3.org/2000/svg" viewBox="0 0 512 512">
  <path d="M 366.93333333333334 0 Q 359.46666666666664 1.0666666666666667 358.4 8.533333333333333 Q 359.46666666666664 16 366.93333333333334 17.066666666666666 L 483.2 17.066666666666666 L 483.2 17.066666666666666 L 384 116.26666666666667 L 384 116.26666666666667 L 339.2 70.4 L 339.2 70.4 Q 332.8 66.13333333333334 326.4 70.4 Q 322.1333333333333 76.8 326.4 83.2 L 372.26666666666665 128 L 372.26666666666665 128 L 317.8666666666667 181.33333333333334 L 317.8666666666667 181.33333333333334 Q 315.73333333333335 183.46666666666667 315.73333333333335 186.66666666666666 Q 263.46666666666664 138.66666666666666 187.73333333333332 136.53333333333333 Q 107.73333333333333 138.66666666666666 55.46666666666667 192 Q 2.1333333333333333 244.26666666666668 0 324.26666666666665 Q 2.1333333333333333 404.26666666666665 55.46666666666667 456.53333333333336 Q 107.73333333333333 509.8666666666667 187.73333333333332 512 Q 267.73333333333335 509.8666666666667 320 456.53333333333336 Q 373.3333333333333 404.26666666666665 375.46666666666664 324.26666666666665 Q 373.3333333333333 248.53333333333333 325.3333333333333 196.26666666666668 Q 328.53333333333336 196.26666666666668 330.6666666666667 194.13333333333333 L 384 139.73333333333332 L 384 139.73333333333332 L 428.8 185.6 L 428.8 185.6 Q 435.2 189.86666666666667 441.6 185.6 Q 445.8666666666667 179.2 441.6 172.8 L 395.73333333333335 128 L 395.73333333333335 128 L 494.93333333333334 28.8 L 494.93333333333334 28.8 L 494.93333333333334 145.06666666666666 L 494.93333333333334 145.06666666666666 Q 496 152.53333333333333 503.46666666666664 153.6 Q 510.93333333333334 152.53333333333333 512 145.06666666666666 L 512 8.533333333333333 L 512 8.533333333333333 Q 510.93333333333334 1.0666666666666667 503.46666666666664 0 L 366.93333333333334 0 L 366.93333333333334 0 Z M 17.066666666666666 324.26666666666665 Q 17.066666666666666 278.4 39.46666666666667 238.93333333333334 L 39.46666666666667 238.93333333333334 L 39.46666666666667 238.93333333333334 Q 62.93333333333333 199.46666666666667 102.4 176 Q 142.93333333333334 153.6 187.73333333333332 153.6 Q 232.53333333333333 153.6 273.06666666666666 176 Q 312.53333333333336 199.46666666666667 336 238.93333333333334 Q 358.4 278.4 358.4 324.26666666666665 Q 358.4 370.1333333333333 336 409.6 Q 312.53333333333336 449.06666666666666 273.06666666666666 472.53333333333336 Q 232.53333333333333 494.93333333333334 187.73333333333332 494.93333333333334 Q 142.93333333333334 494.93333333333334 102.4 472.53333333333336 Q 62.93333333333333 449.06666666666666 39.46666666666667 409.6 Q 17.066666666666666 370.1333333333333 17.066666666666666 324.26666666666665 L 17.066666666666666 324.26666666666665 Z" />
</svg>