<svg xmlns="http://www.w3.org/2000/svg" viewBox="0 0 512 512">
  <path d="M 345.0435 230.559 L 402.2857 230.559 L 345.0435 230.559 L 402.2857 230.559 Q 407.85092 229.76398 408.64597 224.19876 Q 407.85092 218.63354 402.2857 217.83852 L 351.40372 217.83852 L 351.40372 217.83852 L 351.40372 58.8323 L 351.40372 58.8323 Q 351.40372 55.652172 349.01865 53.267082 Q 345.8385 51.677017 342.6584 53.267082 L 291.7764 72.347824 L 291.7764 72.347824 Q 287.00623 74.73292 288.59628 80.298134 Q 290.98135 85.06832 296.54657 84.27329 L 338.68323 68.37267 L 338.68323 68.37267 L 338.68323 217.83852 L 338.68323 217.83852 L 299.7267 217.83852 L 299.7267 217.83852 L 316.42236 230.559 L 316.42236 230.559 L 345.0435 230.559 L 345.0435 230.559 Z M 243.27951 103.354034 Q 242.48447 81.8882 228.17392 67.57764 L 228.17392 67.57764 L 228.17392 67.57764 Q 213.86336 53.267082 192.39752 52.47205 L 166.95653 52.47205 L 166.95653 52.47205 Q 137.54037 54.06211 123.22981 77.91304 L 132.77019 85.86336 L 132.77019 85.86336 Q 143.90062 65.98758 166.95653 65.19254 L 192.39752 65.19254 L 192.39752 65.19254 Q 208.29814 65.98758 219.42857 76.32298 Q 229.76398 87.453415 230.559 103.354034 L 230.559 162.98137 L 230.559 162.98137 L 243.27951 173.31677 L 243.27951 173.31677 L 243.27951 103.354034 L 243.27951 103.354034 Z M 268.7205 408.64597 Q 269.51553 430.11182 283.82608 444.42236 L 283.82608 444.42236 L 283.82608 444.42236 Q 298.13666 458.7329 319.60248 459.52795 L 345.0435 459.52795 L 345.0435 459.52795 Q 374.45963 457.9379 389.56522 434.08694 L 379.22983 426.13666 L 379.22983 426.13666 Q 368.09937 445.21738 345.0435 446.80746 L 319.60248 446.80746 L 319.60248 446.80746 Q 303.70187 446.01242 292.57144 435.67703 Q 282.23602 424.54657 281.44098 408.64597 L 281.44098 349.01865 L 281.44098 349.01865 L 268.7205 338.68323 L 268.7205 338.68323 L 268.7205 408.64597 L 268.7205 408.64597 Z M 173.31677 287.80124 Q 173.31677 284.62112 170.93167 282.23602 Q 167.75156 280.64597 164.57143 282.23602 L 113.68944 301.31677 L 113.68944 301.31677 Q 108.91926 303.70187 110.509315 309.2671 Q 112.89441 314.03726 118.459625 313.24225 L 160.59627 297.3416 L 160.59627 297.3416 L 160.59627 446.80746 L 160.59627 446.80746 L 109.71429 446.80746 L 109.71429 446.80746 Q 104.14907 447.60248 103.354034 453.1677 Q 104.14907 458.7329 109.71429 459.52795 L 166.95653 459.52795 L 224.19876 459.52795 Q 229.76398 458.7329 230.559 453.1677 Q 229.76398 447.60248 224.19876 446.80746 L 173.31677 446.80746 L 173.31677 446.80746 L 173.31677 287.80124 L 173.31677 287.80124 Z M 11.925466 54.06211 Q 7.1552796 50.88199 3.1801243 54.857143 Q 0 59.62733 3.9751554 63.602486 L 500.07452 457.9379 L 500.07452 457.9379 Q 504.84473 461.118 508.8199 457.14285 Q 512 452.37268 508.02484 448.39752 L 11.925466 54.06211 L 11.925466 54.06211 Z" />
</svg>