<svg xmlns="http://www.w3.org/2000/svg" viewBox="0 0 384 512">
    <path d="M 64 496 Q 44 495 30 482 L 30 482 Q 17 468 16 448 L 16 64 Q 17 44 30 30 Q 44 17 64 16 L 204 16 Q 206 16 208 16 Q 208 16 208 16 L 208 136 Q 208 153 220 164 Q 231 176 248 176 L 368 176 Q 368 178 368 180 L 368 448 Q 367 468 354 482 Q 340 495 320 496 L 64 496 L 64 496 Z M 359 157 Q 360 159 361 160 L 248 160 Q 226 158 224 136 L 224 23 Q 225 24 227 25 L 359 157 L 359 157 Z M 64 0 Q 37 1 19 19 L 19 19 Q 1 37 0 64 L 0 448 Q 1 475 19 493 Q 37 511 64 512 L 320 512 Q 347 511 365 493 Q 383 475 384 448 L 384 180 Q 384 160 370 146 L 238 14 Q 224 0 204 0 L 64 0 L 64 0 Z M 104 256 Q 97 257 96 264 Q 97 271 104 272 L 280 272 Q 287 271 288 264 Q 287 257 280 256 L 104 256 L 104 256 Z M 104 320 Q 97 321 96 328 Q 97 335 104 336 L 280 336 Q 287 335 288 328 Q 287 321 280 320 L 104 320 L 104 320 Z M 104 384 Q 97 385 96 392 Q 97 399 104 400 L 280 400 Q 287 399 288 392 Q 287 385 280 384 L 104 384 L 104 384 Z"/>
</svg>
