<svg xmlns="http://www.w3.org/2000/svg" viewBox="0 0 512 512">
  <path d="M 56.888888888888886 469.3333333333333 L 284.44444444444446 469.3333333333333 L 56.888888888888886 469.3333333333333 L 284.44444444444446 469.3333333333333 Q 285.3333333333333 469.3333333333333 285.3333333333333 469.3333333333333 Q 285.3333333333333 469.3333333333333 286.22222222222223 469.3333333333333 Q 288 476.44444444444446 291.55555555555554 483.55555555555554 Q 288 483.55555555555554 284.44444444444446 483.55555555555554 L 56.888888888888886 483.55555555555554 L 56.888888888888886 483.55555555555554 Q 32.888888888888886 482.6666666666667 16.88888888888889 466.6666666666667 Q 0.8888888888888888 450.6666666666667 0 426.6666666666667 L 0 85.33333333333333 L 0 85.33333333333333 Q 0.8888888888888888 61.333333333333336 16.88888888888889 45.333333333333336 Q 32.888888888888886 29.333333333333332 56.888888888888886 28.444444444444443 L 181.33333333333334 28.444444444444443 L 181.33333333333334 28.444444444444443 Q 199.11111111111111 28.444444444444443 211.55555555555554 40.888888888888886 L 328.8888888888889 158.22222222222223 L 328.8888888888889 158.22222222222223 Q 339.55555555555554 168.88888888888889 341.3333333333333 184.88888888888889 L 327.1111111111111 184.88888888888889 L 220.44444444444446 184.88888888888889 Q 205.33333333333334 184.88888888888889 195.55555555555554 174.22222222222223 Q 184.88888888888889 164.44444444444446 184.88888888888889 149.33333333333334 L 184.88888888888889 42.666666666666664 L 184.88888888888889 42.666666666666664 Q 183.11111111111111 42.666666666666664 181.33333333333334 42.666666666666664 Q 181.33333333333334 42.666666666666664 181.33333333333334 42.666666666666664 L 56.888888888888886 42.666666666666664 L 56.888888888888886 42.666666666666664 Q 39.111111111111114 43.55555555555556 26.666666666666668 55.111111111111114 Q 15.11111111111111 67.55555555555556 14.222222222222221 85.33333333333333 L 14.222222222222221 426.6666666666667 L 14.222222222222221 426.6666666666667 Q 15.11111111111111 444.44444444444446 26.666666666666668 456.8888888888889 Q 39.111111111111114 468.44444444444446 56.888888888888886 469.3333333333333 L 56.888888888888886 469.3333333333333 Z M 319.1111111111111 168 L 201.77777777777777 50.666666666666664 L 319.1111111111111 168 L 201.77777777777777 50.666666666666664 Q 200 49.77777777777778 199.11111111111111 48.888888888888886 L 199.11111111111111 149.33333333333334 L 199.11111111111111 149.33333333333334 Q 200.88888888888889 168.88888888888889 220.44444444444446 170.66666666666666 L 320.8888888888889 170.66666666666666 L 320.8888888888889 170.66666666666666 Q 320 169.77777777777777 319.1111111111111 168 L 319.1111111111111 168 Z M 412.44444444444446 213.33333333333334 Q 394.6666666666667 214.22222222222223 382.22222222222223 225.77777777777777 L 382.22222222222223 225.77777777777777 L 382.22222222222223 225.77777777777777 Q 370.6666666666667 238.22222222222223 369.77777777777777 256 L 369.77777777777777 312.8888888888889 L 369.77777777777777 312.8888888888889 L 455.1111111111111 312.8888888888889 L 455.1111111111111 312.8888888888889 L 455.1111111111111 256 L 455.1111111111111 256 Q 454.22222222222223 238.22222222222223 442.6666666666667 225.77777777777777 Q 430.22222222222223 214.22222222222223 412.44444444444446 213.33333333333334 L 412.44444444444446 213.33333333333334 Z M 355.55555555555554 256 Q 356.44444444444446 232 372.44444444444446 216 L 372.44444444444446 216 L 372.44444444444446 216 Q 388.44444444444446 200 412.44444444444446 199.11111111111111 Q 436.44444444444446 200 452.44444444444446 216 Q 468.44444444444446 232 469.3333333333333 256 L 469.3333333333333 312.8888888888889 L 469.3333333333333 312.8888888888889 L 483.55555555555554 312.8888888888889 L 483.55555555555554 312.8888888888889 Q 496 312.8888888888889 504 320.8888888888889 Q 512 328.8888888888889 512 341.3333333333333 L 512 455.1111111111111 L 512 455.1111111111111 Q 512 467.55555555555554 504 475.55555555555554 Q 496 483.55555555555554 483.55555555555554 483.55555555555554 L 341.3333333333333 483.55555555555554 L 341.3333333333333 483.55555555555554 Q 328.8888888888889 483.55555555555554 320.8888888888889 475.55555555555554 Q 312.8888888888889 467.55555555555554 312.8888888888889 455.1111111111111 L 312.8888888888889 341.3333333333333 L 312.8888888888889 341.3333333333333 Q 312.8888888888889 328.8888888888889 320.8888888888889 320.8888888888889 Q 328.8888888888889 312.8888888888889 341.3333333333333 312.8888888888889 L 355.55555555555554 312.8888888888889 L 355.55555555555554 312.8888888888889 L 355.55555555555554 256 L 355.55555555555554 256 Z M 341.3333333333333 327.1111111111111 Q 328 328 327.1111111111111 341.3333333333333 L 327.1111111111111 455.1111111111111 L 327.1111111111111 455.1111111111111 Q 328 468.44444444444446 341.3333333333333 469.3333333333333 L 483.55555555555554 469.3333333333333 L 483.55555555555554 469.3333333333333 Q 496.8888888888889 468.44444444444446 497.77777777777777 455.1111111111111 L 497.77777777777777 341.3333333333333 L 497.77777777777777 341.3333333333333 Q 496.8888888888889 328 483.55555555555554 327.1111111111111 L 469.3333333333333 327.1111111111111 L 341.3333333333333 327.1111111111111 Z" />
</svg>