<svg xmlns="http://www.w3.org/2000/svg" viewBox="0 0 576 320">
    <path d="M 80 0 Q 46 1 23 23 L 23 23 Q 1 46 0 80 L 0 240 Q 1 274 23 297 Q 46 319 80 320 L 172 320 Q 166 313 163 304 L 80 304 Q 53 303 35 285 Q 17 267 16 240 L 16 80 Q 17 53 35 35 Q 53 17 80 16 L 279 16 L 299 0 L 80 0 L 80 0 Z M 448 304 L 265 304 L 245 320 L 448 320 Q 482 319 505 297 Q 527 274 528 240 L 528 224 L 544 224 Q 558 224 567 215 Q 576 206 576 192 L 576 128 Q 576 114 567 105 Q 558 96 544 96 L 528 96 L 528 80 Q 527 46 505 23 Q 482 1 448 0 L 372 0 Q 378 7 381 16 L 448 16 Q 475 17 493 35 Q 511 53 512 80 L 512 96 L 512 112 L 512 208 L 512 224 L 512 240 Q 511 267 493 285 Q 475 303 448 304 L 448 304 Z M 544 112 Q 559 113 560 128 L 560 192 Q 559 207 544 208 L 528 208 L 528 112 L 544 112 L 544 112 Z M 284 137 Q 280 145 284 152 Q 289 160 298 160 L 368 160 L 208 288 L 260 183 Q 264 175 260 168 Q 255 160 246 160 L 176 160 L 336 32 L 284 137 L 284 137 Z M 350 39 Q 355 28 346 20 Q 336 12 326 19 L 166 147 Q 158 155 161 165 Q 165 175 176 176 L 228 176 L 246 176 L 238 192 L 194 281 Q 189 292 198 300 Q 208 307 218 300 L 378 172 Q 386 165 383 155 Q 379 144 368 144 L 316 144 L 298 144 L 306 128 L 350 39 L 350 39 Z"/>
</svg>
