<svg xmlns="http://www.w3.org/2000/svg" viewBox="0 0 512 512">
  <path d="M 438.85715 493.7143 Q 461.7143 492.57144 477.7143 477.7143 L 477.7143 477.7143 L 477.7143 477.7143 Q 492.57144 461.7143 493.7143 438.85715 L 493.7143 73.14286 L 493.7143 73.14286 Q 492.57144 50.285713 477.7143 34.285713 Q 461.7143 19.428572 438.85715 18.285715 L 73.14286 18.285715 L 73.14286 18.285715 Q 50.285713 19.428572 34.285713 34.285713 Q 19.428572 50.285713 18.285715 73.14286 L 18.285715 438.85715 L 18.285715 438.85715 Q 19.428572 461.7143 34.285713 477.7143 Q 50.285713 492.57144 73.14286 493.7143 L 438.85715 493.7143 L 438.85715 493.7143 Z M 512 438.85715 Q 510.85715 469.7143 490.2857 490.2857 L 490.2857 490.2857 L 490.2857 490.2857 Q 469.7143 510.85715 438.85715 512 L 73.14286 512 L 73.14286 512 Q 42.285713 510.85715 21.714285 490.2857 Q 1.1428572 469.7143 0 438.85715 L 0 73.14286 L 0 73.14286 Q 1.1428572 42.285713 21.714285 21.714285 Q 42.285713 1.1428572 73.14286 0 L 438.85715 0 L 438.85715 0 Q 469.7143 1.1428572 490.2857 21.714285 Q 510.85715 42.285713 512 73.14286 L 512 438.85715 L 512 438.85715 Z M 365.7143 356.57144 L 365.7143 211.42857 L 365.7143 356.57144 L 365.7143 211.42857 Q 364.57144 202.28572 355.42856 201.14285 Q 350.85715 201.14285 348.57144 204.57143 L 308.57144 244.57143 L 308.57144 244.57143 Q 301.7143 249.14285 294.85715 244.57143 L 201.14285 149.71428 L 201.14285 149.71428 Q 197.71428 146.28572 192 146.28572 Q 186.28572 146.28572 182.85715 149.71428 L 149.71428 182.85715 L 149.71428 182.85715 Q 146.28572 186.28572 146.28572 192 Q 146.28572 197.71428 149.71428 201.14285 L 244.57143 294.85715 L 244.57143 294.85715 Q 249.14285 301.7143 244.57143 308.57144 L 204.57143 348.57144 L 204.57143 348.57144 Q 201.14285 350.85715 201.14285 355.42856 Q 202.28572 364.57144 211.42857 365.7143 L 356.57144 365.7143 L 356.57144 365.7143 Q 364.57144 364.57144 365.7143 356.57144 L 365.7143 356.57144 Z M 356.57144 384 L 211.42857 384 L 356.57144 384 L 211.42857 384 Q 185.14285 381.7143 182.85715 355.42856 Q 182.85715 344 190.85715 334.85715 L 225.14285 301.7143 L 225.14285 301.7143 L 137.14285 213.71428 L 137.14285 213.71428 Q 128 204.57143 128 192 Q 128 179.42857 137.14285 170.28572 L 170.28572 137.14285 L 170.28572 137.14285 Q 179.42857 128 192 128 Q 204.57143 128 213.71428 137.14285 L 301.7143 225.14285 L 301.7143 225.14285 L 334.85715 190.85715 L 334.85715 190.85715 Q 344 182.85715 355.42856 182.85715 Q 381.7143 185.14285 384 211.42857 L 384 356.57144 L 384 356.57144 Q 381.7143 381.7143 356.57144 384 L 356.57144 384 Z" />
</svg>