<svg xmlns="http://www.w3.org/2000/svg" viewBox="0 0 448 512">
    <path d="M 384 16 Q 404 17 418 30 L 418 30 Q 431 44 432 64 L 432 352 Q 431 372 418 386 Q 404 399 384 400 L 334 400 L 315 400 L 133 400 L 114 400 L 64 400 Q 44 399 30 386 Q 17 372 16 352 L 16 64 Q 17 44 30 30 Q 44 17 64 16 L 384 16 L 384 16 Z M 344 416 L 384 416 Q 411 415 429 397 Q 447 379 448 352 L 448 64 Q 447 37 429 19 Q 411 1 384 0 L 64 0 Q 37 1 19 19 Q 1 37 0 64 L 0 352 Q 1 379 19 397 Q 37 415 64 416 L 104 416 L 68 475 Q 61 487 67 500 Q 74 512 88 512 L 360 512 Q 374 512 381 500 Q 387 487 381 475 L 344 416 L 344 416 Z M 325 416 L 367 484 Q 369 488 367 492 Q 365 496 360 496 L 88 496 Q 83 496 81 492 Q 79 488 81 484 L 123 416 L 325 416 L 325 416 Z M 352 208 Q 352 173 335 144 L 335 144 Q 318 115 288 97 Q 258 80 224 80 Q 190 80 160 97 Q 130 115 113 144 Q 96 173 96 208 Q 96 243 113 272 Q 130 301 160 319 Q 190 336 224 336 Q 258 336 288 319 Q 318 301 335 272 Q 352 243 352 208 L 352 208 Z M 224 96 Q 254 96 280 111 L 280 111 Q 306 126 321 152 Q 336 178 336 208 Q 336 238 321 264 Q 306 290 280 305 Q 254 320 224 320 Q 194 320 168 305 Q 142 290 127 264 Q 112 238 112 208 Q 112 178 127 152 Q 142 126 168 111 Q 194 96 224 96 L 224 96 Z"/>
</svg>
