<svg xmlns="http://www.w3.org/2000/svg" viewBox="0 0 513 514">
    <path d="M 483 1 Q 490 4 489 11 Q 477 49 454 76 Q 432 102 406 123 Q 411 122 418 122 Q 450 123 471 134 Q 493 144 503 153 Q 513 162 513 174 Q 513 186 504 194 Q 496 201 481 209 Q 467 218 447 223 Q 442 215 435 209 Q 454 206 470 198 Q 485 189 493 182 Q 497 179 497 174 Q 497 168 494 166 Q 485 158 465 148 Q 446 139 418 138 Q 394 139 386 142 Q 383 144 381 144 Q 381 144 381 144 Q 381 144 381 145 Q 380 145 380 145 Q 377 148 373 147 L 367 141 Q 366 137 369 133 Q 369 133 369 133 Q 369 133 369 133 Q 370 132 372 128 Q 375 120 376 95 Q 375 68 365 49 Q 356 29 348 20 Q 346 17 340 17 Q 335 17 332 20 Q 325 29 316 44 Q 308 59 305 79 Q 298 72 291 66 Q 296 47 304 32 Q 313 18 320 10 Q 328 1 340 1 Q 352 1 361 11 Q 370 21 380 43 Q 391 64 392 96 Q 392 106 391 114 Q 418 93 440 68 Q 462 43 473 7 Q 476 0 483 1 L 483 1 Z M 291 110 L 319 138 L 376 195 L 404 223 L 412 231 Q 449 270 449 321 Q 449 396 379 453 Q 310 510 177 513 Q 82 514 41 473 Q 0 432 1 337 Q 4 205 61 135 Q 118 66 193 65 Q 244 65 284 103 L 291 110 L 291 110 Z M 307 148 L 272 114 Q 238 81 193 81 Q 127 81 74 145 Q 20 209 17 337 Q 17 429 52 462 Q 85 497 177 497 Q 305 494 369 440 Q 433 387 433 321 Q 433 276 400 242 L 366 207 Q 350 196 335 180 Q 335 180 335 180 L 335 179 L 334 179 L 334 179 Q 318 164 307 148 L 307 148 Z M 215 311 L 183 343 Q 177 347 171 343 Q 167 337 171 331 L 203 299 Q 209 295 215 299 Q 219 305 215 311 L 215 311 Z M 311 267 Q 315 273 311 279 L 279 311 Q 273 315 267 311 Q 263 305 267 299 L 299 267 Q 305 263 311 267 L 311 267 Z M 279 375 L 247 407 Q 241 411 235 407 Q 231 401 235 395 L 267 363 Q 273 359 279 363 Q 283 369 279 375 L 279 375 Z M 375 343 L 343 375 Q 337 379 331 375 Q 327 369 331 363 L 363 331 Q 369 327 375 331 Q 379 337 375 343 L 375 343 Z M 151 247 L 119 279 Q 113 283 107 279 Q 103 273 107 267 L 139 235 Q 145 231 151 235 Q 155 241 151 247 L 151 247 Z M 247 203 Q 251 209 247 215 L 215 247 Q 209 251 203 247 Q 199 241 203 235 L 235 203 Q 241 199 247 203 L 247 203 Z M 183 151 L 151 183 Q 145 187 139 183 Q 135 177 139 171 L 171 139 Q 177 135 183 139 Q 187 145 183 151 L 183 151 Z M 119 331 Q 123 337 119 343 L 87 375 Q 81 379 75 375 Q 71 369 75 363 L 107 331 Q 113 327 119 331 L 119 331 Z M 183 407 L 151 439 Q 145 443 139 439 Q 135 433 139 427 L 171 395 Q 177 391 183 395 Q 187 401 183 407 L 183 407 Z"/>
</svg>
