<svg xmlns="http://www.w3.org/2000/svg" viewBox="0 0 512 512">
  <path d="M 156.3743842364532 54.22660098522167 Q 125.26765188834155 55.9080459770115 112.6568144499179 85.33333333333333 L 7.566502463054187 367.81609195402297 L 7.566502463054187 367.81609195402297 Q 0 391.35632183908046 13.451559934318555 410.69293924466336 Q 26.90311986863711 430.0295566502463 52.1247947454844 430.87027914614123 L 296.7750410509031 430.87027914614123 L 296.7750410509031 430.87027914614123 L 296.7750410509031 417.41871921182263 L 296.7750410509031 417.41871921182263 L 249.69458128078819 417.41871921182263 L 249.69458128078819 417.41871921182263 L 249.69458128078819 370.3382594417077 L 249.69458128078819 370.3382594417077 Q 248.85385878489328 364.45320197044333 242.9688013136289 363.6124794745484 Q 237.08374384236453 364.45320197044333 236.24302134646962 370.3382594417077 L 236.24302134646962 417.41871921182263 L 236.24302134646962 417.41871921182263 L 52.1247947454844 417.41871921182263 L 52.1247947454844 417.41871921182263 Q 33.62889983579639 416.5779967159277 24.38095238095238 403.1264367816092 Q 15.133004926108374 389.67487684729065 21.01806239737274 372.0197044334975 L 125.26765188834155 89.53694581280789 L 125.26765188834155 89.53694581280789 Q 133.67487684729065 68.51888341543514 156.3743842364532 67.67816091954023 L 236.24302134646962 67.67816091954023 L 236.24302134646962 67.67816091954023 L 236.24302134646962 114.75862068965517 L 236.24302134646962 114.75862068965517 Q 237.08374384236453 120.64367816091954 242.9688013136289 121.48440065681444 Q 248.85385878489328 120.64367816091954 249.69458128078819 114.75862068965517 L 249.69458128078819 67.67816091954023 L 249.69458128078819 67.67816091954023 L 329.5632183908046 67.67816091954023 L 329.5632183908046 67.67816091954023 Q 352.2627257799672 68.51888341543514 360.66995073891627 89.53694581280789 L 389.25451559934316 166.04269293924466 L 389.25451559934316 166.04269293924466 Q 395.9802955665025 164.36124794745484 402.70607553366176 162.67980295566502 L 373.2807881773399 84.49261083743842 L 373.2807881773399 84.49261083743842 Q 360.66995073891627 55.9080459770115 329.5632183908046 54.22660098522167 L 156.3743842364532 54.22660098522167 L 156.3743842364532 54.22660098522167 Z M 249.69458128078819 195.4679802955665 Q 248.85385878489328 189.58292282430213 242.9688013136289 188.74220032840722 Q 237.08374384236453 189.58292282430213 236.24302134646962 195.4679802955665 L 236.24302134646962 289.6288998357964 L 236.24302134646962 289.6288998357964 Q 237.08374384236453 295.51395730706076 242.9688013136289 296.3546798029557 Q 248.85385878489328 295.51395730706076 249.69458128078819 289.6288998357964 L 249.69458128078819 195.4679802955665 L 249.69458128078819 195.4679802955665 Z M 417.8390804597701 202.1937602627258 Q 434.6535303776683 203.0344827586207 446.42364532019707 213.9638752052545 L 446.42364532019707 213.9638752052545 L 446.42364532019707 213.9638752052545 Q 457.3530377668309 225.73399014778326 458.1937602627258 242.54844006568143 L 458.1937602627258 296.3546798029557 L 458.1937602627258 296.3546798029557 L 377.48440065681444 296.3546798029557 L 377.48440065681444 296.3546798029557 L 377.48440065681444 242.54844006568143 L 377.48440065681444 242.54844006568143 Q 378.32512315270935 225.73399014778326 389.25451559934316 213.9638752052545 Q 401.02463054187194 203.0344827586207 417.8390804597701 202.1937602627258 L 417.8390804597701 202.1937602627258 Z M 364.0328407224959 242.54844006568143 L 364.0328407224959 296.3546798029557 L 364.0328407224959 242.54844006568143 L 364.0328407224959 296.3546798029557 L 350.58128078817737 296.3546798029557 L 350.58128078817737 296.3546798029557 Q 338.8111658456486 296.3546798029557 331.2446633825944 303.92118226600985 Q 323.67816091954023 311.48768472906403 323.67816091954023 323.25779967159275 L 323.67816091954023 430.87027914614123 L 323.67816091954023 430.87027914614123 Q 323.67816091954023 442.64039408866995 331.2446633825944 450.2068965517241 Q 338.8111658456486 457.7733990147783 350.58128078817737 457.7733990147783 L 485.09688013136287 457.7733990147783 L 485.09688013136287 457.7733990147783 Q 496.86699507389164 457.7733990147783 504.4334975369458 450.2068965517241 Q 512 442.64039408866995 512 430.87027914614123 L 512 323.25779967159275 L 512 323.25779967159275 Q 512 311.48768472906403 504.4334975369458 303.92118226600985 Q 496.86699507389164 296.3546798029557 485.09688013136287 296.3546798029557 L 471.6453201970443 296.3546798029557 L 471.6453201970443 296.3546798029557 L 471.6453201970443 242.54844006568143 L 471.6453201970443 242.54844006568143 Q 470.8045977011494 219.84893267651887 455.67159277504106 204.71592775041051 Q 440.53858784893265 189.58292282430213 417.8390804597701 188.74220032840722 Q 395.1395730706075 189.58292282430213 380.00656814449917 204.71592775041051 Q 364.8735632183908 219.84893267651887 364.0328407224959 242.54844006568143 L 364.0328407224959 242.54844006568143 Z M 350.58128078817737 309.8062397372742 L 364.0328407224959 309.8062397372742 L 350.58128078817737 309.8062397372742 L 485.09688013136287 309.8062397372742 Q 497.70771756978655 310.6469622331691 498.54844006568146 323.25779967159275 L 498.54844006568146 430.87027914614123 L 498.54844006568146 430.87027914614123 Q 497.70771756978655 443.48111658456486 485.09688013136287 444.32183908045977 L 350.58128078817737 444.32183908045977 L 350.58128078817737 444.32183908045977 Q 337.9704433497537 443.48111658456486 337.12972085385877 430.87027914614123 L 337.12972085385877 323.25779967159275 L 337.12972085385877 323.25779967159275 Q 337.9704433497537 310.6469622331691 350.58128078817737 309.8062397372742 L 350.58128078817737 309.8062397372742 Z" />
</svg>