<svg xmlns="http://www.w3.org/2000/svg" viewBox="0 0 512 512">
  <path d="M 258.3747680890538 28.02226345083488 Q 172.88311688311688 29.92207792207792 111.139146567718 82.16697588126159 Q 105.43970315398887 85.96660482374769 100.69016697588125 81.21706864564007 Q 96.89053803339517 75.51762523191094 101.64007421150278 69.81818181818181 Q 167.18367346938774 14.723562152133582 258.3747680890538 12.823747680890538 Q 282.1224489795918 12.823747680890538 305.87012987012986 17.573283858998145 Q 312.5194805194805 19.473098330241186 311.569573283859 26.122448979591837 Q 309.66975881261595 32.77179962894249 302.07050092764376 32.77179962894249 Q 281.1725417439703 28.02226345083488 258.3747680890538 28.02226345083488 L 258.3747680890538 28.02226345083488 Z M 493.9517625231911 248.40074211502784 Q 500.6011131725417 249.35064935064935 501.55102040816325 256 Q 500.6011131725417 324.39332096474953 468.30426716141 378.5380333951762 Q 436.0074211502783 433.6326530612245 380.91280148423004 465.92949907235624 Q 326.76808905380335 498.22634508348796 258.3747680890538 499.17625231910944 Q 190.9313543599258 498.22634508348796 136.78664192949907 466.8794063079777 Q 82.64192949907236 435.53246753246754 50.34508348794063 381.38775510204084 Q 46.54545454545455 374.7384044526902 52.244897959183675 370.9387755102041 Q 58.894248608534326 368.08905380333954 62.69387755102041 373.78849721706865 Q 94.04081632653062 424.13358070500925 144.38589981447123 453.5807050092764 Q 195.6808905380334 483.0278293135436 258.3747680890538 483.9777365491651 Q 322.0185528756957 483.0278293135436 373.3135435992579 452.63079777365493 Q 424.60853432282005 422.23376623376623 455.0055658627087 370.9387755102041 Q 485.4025974025974 319.6437847866419 486.35250463821893 256 Q 487.30241187384047 249.35064935064935 493.9517625231911 248.40074211502784 L 493.9517625231911 248.40074211502784 Z M 167.18367346938774 240.80148423005565 Q 169.0834879406308 226.55287569573284 182.3821892393321 225.60296846011133 Q 196.6307977736549 226.55287569573284 197.58070500927644 240.80148423005565 Q 196.6307977736549 255.0500927643785 182.3821892393321 256 Q 169.0834879406308 255.0500927643785 167.18367346938774 240.80148423005565 L 167.18367346938774 240.80148423005565 Z M 355.265306122449 384.2374768089054 Q 349.56586270871986 388.987012987013 344.81632653061223 385.1873840445269 Q 331.5176252319109 372.8385899814471 311.569573283859 364.28942486085344 Q 292.57142857142856 354.79035250463824 265.97402597402595 354.79035250463824 Q 246.02597402597402 354.79035250463824 229.87755102040816 360.48979591836735 Q 223.2282003710575 361.4397031539889 220.37847866419295 354.79035250463824 Q 219.42857142857142 348.1410018552876 226.07792207792207 345.291280148423 Q 244.12615955473098 339.59183673469386 265.97402597402595 339.59183673469386 Q 295.4211502782931 339.59183673469386 318.2189239332096 350.0408163265306 Q 340.06679035250465 359.5398886827458 354.31539888682744 373.78849721706865 Q 359.06493506493507 378.5380333951762 355.265306122449 384.2374768089054 L 355.265306122449 384.2374768089054 Z M 334.3673469387755 225.60296846011133 Q 348.6159554730983 226.55287569573284 349.56586270871986 240.80148423005565 Q 348.6159554730983 255.0500927643785 334.3673469387755 256 Q 321.06864564007424 255.0500927643785 319.16883116883116 240.80148423005565 Q 321.06864564007424 226.55287569573284 334.3673469387755 225.60296846011133 L 334.3673469387755 225.60296846011133 Z M 370.4638218923933 110.66419294990723 Q 315.36920222634507 104.01484230055658 258.3747680890538 104.01484230055658 Q 225.12801484230056 104.01484230055658 192.83116883116884 106.86456400742115 Q 173.8330241187384 107.81447124304268 154.83487940630798 109.71428571428571 Q 101.64007421150278 116.36363636363636 51.29499072356215 128.71243042671614 Q 36.09647495361781 153.4100185528757 26.5974025974026 181.90723562152132 Q 23.74768089053803 190.45640074211502 21.84786641929499 199.00556586270872 Q 30.397031539888683 197.10575139146567 38.94619666048237 194.25602968460112 Q 40.84601113172542 194.25602968460112 42.74582560296846 193.30612244897958 Q 44.6456400742115 193.30612244897958 46.54545454545455 192.35621521335807 Q 61.74397031539889 188.55658627087197 76.94248608534323 184.7569573283859 Q 141.53617810760667 170.50834879406307 209.9294990723562 165.75881261595546 Q 227.97773654916512 164.80890538033395 246.97588126159556 164.80890538033395 Q 252.67532467532467 164.80890538033395 258.3747680890538 164.80890538033395 Q 372.3636363636364 164.80890538033395 477.8033395176252 194.25602968460112 Q 486.35250463821893 197.10575139146567 494.9016697588126 199.00556586270872 Q 493.0018552875696 190.45640074211502 490.152133580705 181.90723562152132 Q 480.6530612244898 153.4100185528757 465.45454545454544 128.71243042671614 Q 446.456400742115 123.96289424860854 426.50834879406307 120.16326530612245 Q 398.961038961039 114.46382189239333 370.4638218923933 110.66419294990723 L 370.4638218923933 110.66419294990723 Z M 54.144712430426715 206.60482374768088 Q 33.246753246753244 225.60296846011133 15.198515769944342 247.4508348794063 Q 15.198515769944342 251.2504638218924 15.198515769944342 256 Q 15.198515769944342 285.44712430426716 21.84786641929499 312.9944341372913 Q 23.74768089053803 322.4935064935065 27.54730983302412 331.9925788497217 Q 32.29684601113173 324.39332096474953 38.94619666048237 315.84415584415586 Q 96.89053803339517 237.00185528756958 180.48237476808904 183.80705009276437 Q 114.93877551020408 190.45640074211502 54.144712430426715 206.60482374768088 L 54.144712430426715 206.60482374768088 Z M 3.7996289424860854 237.9517625231911 Q 14.24860853432282 225.60296846011133 24.697588126159555 214.20408163265307 Q 17.098330241187384 215.15398886827458 11.398886827458256 210.40445269016698 Q 5.699443413729128 204.70500927643783 6.64935064935065 196.15584415584416 Q 17.098330241187384 155.30983302411875 37.996289424860855 120.16326530612245 Q 41.795918367346935 115.41372912801484 47.49536178107606 113.5139146567718 Q 116.83858998144713 97.36549165120594 189.03153988868274 91.66604823747682 Q 278.32282003710577 46.070500927643785 381.8627087198516 32.77179962894249 Q 387.5621521335807 31.821892393320965 391.3617810760668 34.67161410018553 Q 431.2578849721707 58.419294990723564 459.7551020408163 94.51576994434137 Q 465.45454545454544 102.11502782931355 461.65491651205934 110.66419294990723 Q 461.65491651205934 110.66419294990723 461.65491651205934 111.61410018552876 Q 461.65491651205934 111.61410018552876 461.65491651205934 111.61410018552876 Q 463.5547309833024 112.56400742115028 465.45454545454544 112.56400742115028 Q 467.3543599257885 113.5139146567718 469.25417439703153 113.5139146567718 Q 474.95361781076065 115.41372912801484 478.75324675324674 120.16326530612245 Q 499.65120593692023 155.30983302411875 510.100185528757 196.15584415584416 Q 512 204.70500927643783 505.35064935064935 210.40445269016698 Q 498.7012987012987 216.1038961038961 491.1020408163265 214.20408163265307 Q 379.9628942486085 180.0074211502783 258.3747680890538 180.0074211502783 Q 236.52690166975881 180.0074211502783 214.6790352504638 180.9573283858998 Q 108.28942486085343 240.80148423005565 39.896103896103895 340.5417439703154 Q 34.19666048237477 348.1410018552876 25.647495361781075 347.19109461966605 Q 16.148423005565864 345.291280148423 13.2987012987013 336.7421150278293 Q 0 298.74582560296847 0 256 Q 0 251.2504638218924 0 247.4508348794063 Q 0 246.5009276437848 0 246.5009276437848 Q 0 241.7513914656772 3.7996289424860854 237.9517625231911 L 3.7996289424860854 237.9517625231911 Z M 258.3747680890538 88.81632653061224 Q 344.81632653061223 88.81632653061224 427.4582560296846 104.9647495361781 L 429.3580705009276 104.9647495361781 L 429.3580705009276 104.9647495361781 Q 429.3580705009276 104.9647495361781 429.3580705009276 104.9647495361781 Q 438.85714285714283 104.01484230055658 448.3562152133581 104.01484230055658 Q 442.6567717996289 96.41558441558442 435.0575139146568 88.81632653061224 Q 412.2597402597403 65.06864564007421 383.7625231910946 47.970315398886825 Q 302.07050092764376 58.419294990723564 229.87755102040816 89.76623376623377 Q 244.12615955473098 88.81632653061224 258.3747680890538 88.81632653061224 L 258.3747680890538 88.81632653061224 Z" />
</svg>