<svg xmlns="http://www.w3.org/2000/svg" viewBox="0 0 512 512">
  <path d="M 134.4 115.2 Q 116.8 116.8 115.2 134.4 L 115.2 212 L 115.2 212 Q 115.2 222.4 108 229.6 Q 100.8 236.8 90.4 236.8 Q 74.4 235.2 67.2 224 Q 57.6 211.2 44.8 211.2 Q 32 211.2 23.2 224 Q 13.6 236 12.8 256 Q 13.6 276 23.2 288.8 Q 32 300.8 44.8 300.8 Q 57.6 300.8 67.2 288 Q 74.4 276.8 90.4 275.2 Q 100.8 275.2 108 282.4 Q 115.2 289.6 115.2 300 L 115.2 377.6 L 115.2 377.6 Q 116.8 395.2 134.4 396.8 L 219.2 396.8 L 219.2 396.8 Q 223.2 396 224 391.2 Q 224 388.8 220.8 386.4 Q 199.2 371.2 198.4 345.6 Q 199.2 323.2 215.2 308.8 Q 232 295.2 256 294.4 Q 280 295.2 296.8 308.8 Q 312.8 323.2 313.6 345.6 Q 312.8 371.2 291.2 386.4 Q 288 388.8 288 391.2 Q 288.8 396 293.6 396.8 L 377.6 396.8 L 377.6 396.8 Q 395.2 395.2 396.8 377.6 L 396.8 300 L 396.8 300 Q 396.8 289.6 404 282.4 Q 411.2 275.2 421.6 275.2 Q 437.6 276.8 444.8 288 Q 454.4 300.8 467.2 300.8 Q 480 300.8 489.6 288.8 Q 498.4 276 499.2 256 Q 498.4 236 489.6 224 Q 480 211.2 467.2 211.2 Q 454.4 211.2 444.8 224 Q 437.6 235.2 421.6 236.8 Q 411.2 236.8 404 229.6 Q 396.8 222.4 396.8 212 L 396.8 134.4 L 396.8 134.4 Q 395.2 116.8 377.6 115.2 L 293.6 115.2 L 293.6 115.2 Q 288.8 116 288 120.8 Q 288 123.2 291.2 125.6 Q 312.8 140.8 313.6 166.4 Q 312.8 188.8 296.8 203.2 Q 280 216.8 256 217.6 Q 232 216.8 215.2 203.2 Q 199.2 188.8 198.4 166.4 Q 199.2 140.8 220.8 126.4 Q 224 123.2 224 120.8 Q 223.2 116 219.2 115.2 L 134.4 115.2 L 134.4 115.2 Z M 102.4 134.4 Q 102.4 120.8 112 112 L 112 112 L 112 112 Q 120.8 102.4 134.4 102.4 L 219.2 102.4 L 219.2 102.4 Q 235.2 104 236.8 120.8 Q 236 131.2 228 136.8 Q 212 148 211.2 166.4 Q 212 182.4 224 193.6 Q 236.8 204 256 204.8 Q 276 204 288 193.6 Q 300.8 182.4 300.8 166.4 Q 300 148 284 136.8 Q 276 131.2 275.2 120.8 Q 276.8 104 293.6 102.4 L 377.6 102.4 L 377.6 102.4 Q 391.2 102.4 400 112 Q 409.6 120.8 409.6 134.4 L 409.6 212 L 409.6 212 Q 410.4 223.2 421.6 224 Q 428.8 224 435.2 216 Q 447.2 199.2 467.2 198.4 Q 487.2 199.2 499.2 216 Q 512 232 512 256 Q 512 280 499.2 296 Q 487.2 312.8 467.2 313.6 Q 447.2 312.8 435.2 296 Q 428.8 288 421.6 288 Q 410.4 288.8 409.6 300 L 409.6 377.6 L 409.6 377.6 Q 409.6 391.2 400 400 Q 391.2 409.6 377.6 409.6 L 293.6 409.6 L 293.6 409.6 Q 276.8 408 275.2 391.2 Q 276 380.8 284 375.2 Q 300 364 300.8 345.6 Q 300.8 329.6 288 318.4 Q 276 308 256 307.2 Q 236.8 308 224 318.4 Q 212 329.6 211.2 345.6 Q 212 364 228 375.2 Q 236 380.8 236.8 391.2 Q 235.2 408 219.2 409.6 L 134.4 409.6 L 134.4 409.6 Q 120.8 409.6 112 400 Q 102.4 391.2 102.4 377.6 L 102.4 300 L 102.4 300 Q 101.6 288.8 90.4 288 Q 83.2 288 76.8 296 Q 64.8 312.8 44.8 313.6 Q 24.8 312.8 12.8 296 Q 0.8 280 0 256 Q 0 232 12.8 216 Q 24.8 199.2 44.8 198.4 Q 64.8 199.2 76.8 216 Q 83.2 224 90.4 224 Q 101.6 223.2 102.4 212 L 102.4 134.4 L 102.4 134.4 Z" />
</svg>