<svg xmlns="http://www.w3.org/2000/svg" viewBox="0 0 512 512">
  <path d="M 112 104 L 112 48 L 112 104 L 112 48 L 64 48 L 64 48 Q 44 49 30 62 Q 17 76 16 96 L 16 104 L 16 104 L 112 104 L 112 104 Z M 16 120 L 16 200 L 16 120 L 16 200 L 112 200 L 112 200 L 112 120 L 112 120 L 16 120 L 16 120 Z M 0 216 L 0 208 L 0 216 L 0 208 L 0 200 L 0 200 L 0 120 L 0 120 L 0 112 L 0 112 L 0 104 L 0 104 L 0 96 L 0 96 Q 1 69 19 51 Q 37 33 64 32 L 112 32 L 448 32 Q 475 33 493 51 Q 511 69 512 96 L 512 104 L 512 104 L 512 112 L 512 112 L 512 120 L 512 120 L 512 200 L 512 200 L 512 208 L 512 208 L 512 216 L 512 216 L 512 296 L 512 296 L 512 304 L 512 304 L 512 312 L 512 312 L 512 392 L 512 392 L 512 400 L 512 400 L 512 408 L 512 408 L 512 416 L 512 416 Q 511 443 493 461 Q 475 479 448 480 L 400 480 L 64 480 Q 37 479 19 461 Q 1 443 0 416 L 0 408 L 0 408 L 0 400 L 0 400 L 0 392 L 0 392 L 0 312 L 0 312 L 0 304 L 0 304 L 0 296 L 0 296 L 0 216 L 0 216 Z M 16 296 L 112 296 L 16 296 L 112 296 L 112 216 L 112 216 L 16 216 L 16 216 L 16 296 L 16 296 Z M 16 312 L 16 392 L 16 312 L 16 392 L 112 392 L 112 392 L 112 312 L 112 312 L 16 312 L 16 312 Z M 112 408 L 16 408 L 112 408 L 16 408 L 16 416 L 16 416 Q 17 436 30 450 Q 44 463 64 464 L 112 464 L 112 464 L 112 408 L 112 408 Z M 128 464 L 384 464 L 128 464 L 384 464 L 384 400 L 384 400 L 384 304 L 384 304 L 384 208 L 384 208 L 384 112 L 384 112 L 384 48 L 384 48 L 128 48 L 128 48 L 128 112 L 128 112 L 128 208 L 128 208 L 128 304 L 128 304 L 128 400 L 128 400 L 128 464 L 128 464 Z M 400 48 L 400 104 L 400 48 L 400 104 L 496 104 L 496 104 L 496 96 L 496 96 Q 495 76 482 62 Q 468 49 448 48 L 400 48 L 400 48 Z M 496 120 L 400 120 L 496 120 L 400 120 L 400 200 L 400 200 L 496 200 L 496 200 L 496 120 L 496 120 Z M 496 216 L 400 216 L 496 216 L 400 216 L 400 296 L 400 296 L 496 296 L 496 296 L 496 216 L 496 216 Z M 496 312 L 400 312 L 496 312 L 400 312 L 400 392 L 400 392 L 496 392 L 496 392 L 496 312 L 496 312 Z M 496 408 L 400 408 L 496 408 L 400 408 L 400 464 L 400 464 L 448 464 L 448 464 Q 468 463 482 450 Q 495 436 496 416 L 496 408 L 496 408 Z" />
</svg>