<svg xmlns="http://www.w3.org/2000/svg" viewBox="0 0 512 512">
  <path d="M 250.4748201438849 140.431654676259 Q 249.55395683453239 154.24460431654677 235.74100719424462 155.16546762589928 L 162.07194244604315 155.16546762589928 L 162.07194244604315 155.16546762589928 Q 99.45323741007195 157.0071942446043 58.014388489208635 198.44604316546761 Q 16.575539568345324 239.88489208633092 14.733812949640289 302.50359712230215 Q 15.654676258992806 350.3884892086331 33.15107913669065 381.6978417266187 Q 50.64748201438849 413.0071942446043 69.98561151079137 429.58273381294964 Q 90.24460431654676 446.158273381295 99.45323741007195 449.841726618705 Q 99.45323741007195 449.841726618705 99.45323741007195 449.841726618705 Q 99.45323741007195 449.841726618705 99.45323741007195 449.841726618705 Q 103.13669064748201 449.841726618705 103.13669064748201 446.158273381295 Q 104.05755395683454 444.31654676258995 98.53237410071942 439.71223021582733 Q 90.24460431654676 431.42446043165467 81.9568345323741 415.76978417266184 Q 74.58992805755396 401.0359712230216 73.66906474820144 376.1726618705036 Q 74.58992805755396 331.9712230215827 104.05755395683454 303.42446043165467 Q 132.6043165467626 273.9568345323741 176.80575539568346 273.0359712230216 L 235.74100719424462 273.0359712230216 L 235.74100719424462 273.0359712230216 Q 249.55395683453239 273.9568345323741 250.4748201438849 287.76978417266184 L 250.4748201438849 346.705035971223 L 250.4748201438849 346.705035971223 Q 250.4748201438849 355.9136690647482 259.68345323741005 360.51798561151077 Q 267.9712230215827 363.28057553956836 275.33812949640287 357.75539568345323 L 422.67625899280574 225.15107913669064 L 422.67625899280574 225.15107913669064 Q 427.28057553956836 220.54676258992805 427.28057553956836 214.10071942446044 Q 427.28057553956836 207.6546762589928 422.67625899280574 203.0503597122302 L 275.33812949640287 70.44604316546763 L 275.33812949640287 70.44604316546763 Q 267.9712230215827 64.92086330935251 259.68345323741005 67.68345323741008 Q 250.4748201438849 72.28776978417267 250.4748201438849 81.49640287769785 L 250.4748201438849 140.431654676259 L 250.4748201438849 140.431654676259 Z M 235.74100719424462 346.705035971223 L 235.74100719424462 302.50359712230215 L 235.74100719424462 346.705035971223 L 235.74100719424462 302.50359712230215 L 235.74100719424462 287.76978417266184 L 235.74100719424462 287.76978417266184 L 221.0071942446043 287.76978417266184 L 176.80575539568346 287.76978417266184 Q 139.0503597122302 288.6906474820144 114.18705035971223 313.55395683453236 Q 89.32374100719424 338.41726618705036 88.40287769784173 376.1726618705036 Q 89.32374100719424 397.3525179856115 95.76978417266187 409.32374100719426 Q 102.2158273381295 422.2158273381295 108.66187050359713 428.66187050359713 Q 116.94964028776978 436.0287769784173 117.87050359712231 446.158273381295 Q 116.02877697841727 462.7338129496403 99.45323741007195 464.57553956834533 Q 95.76978417266187 464.57553956834533 92.0863309352518 462.7338129496403 Q 82.87769784172662 458.1294964028777 60.776978417266186 440.63309352517985 Q 38.67625899280576 422.2158273381295 20.258992805755394 388.1438848920863 Q 0.920863309352518 354.0719424460432 0 302.50359712230215 Q 1.841726618705036 233.4388489208633 47.884892086330936 188.31654676258992 Q 93.00719424460432 142.27338129496403 162.07194244604315 140.431654676259 L 221.0071942446043 140.431654676259 L 235.74100719424462 140.431654676259 L 235.74100719424462 125.6978417266187 L 235.74100719424462 125.6978417266187 L 235.74100719424462 81.49640287769785 L 235.74100719424462 81.49640287769785 Q 236.66187050359713 63.07913669064748 253.23741007194243 54.79136690647482 Q 270.7338129496403 47.42446043165467 284.54676258992805 59.39568345323741 L 431.8848920863309 192 L 431.8848920863309 192 Q 442.0143884892086 201.20863309352518 442.0143884892086 214.10071942446044 Q 442.0143884892086 226.9928057553957 431.8848920863309 236.20143884892087 L 284.54676258992805 368.80575539568343 L 284.54676258992805 368.80575539568343 Q 270.7338129496403 380.7769784172662 253.23741007194243 373.41007194244605 Q 236.66187050359713 365.1223021582734 235.74100719424462 346.705035971223 L 235.74100719424462 346.705035971223 Z M 349.0071942446043 72.28776978417267 Q 344.40287769784175 66.76258992805755 348.0863309352518 62.15827338129496 Q 353.6115107913669 57.55395683453237 358.2158273381295 61.23741007194245 L 502.7913669064748 192 L 502.7913669064748 192 Q 512 201.20863309352518 512 214.10071942446044 Q 512 226.9928057553957 502.7913669064748 236.20143884892087 L 358.2158273381295 366.9640287769784 L 358.2158273381295 366.9640287769784 Q 353.6115107913669 370.6474820143885 348.0863309352518 366.0431654676259 Q 344.40287769784175 361.43884892086334 349.0071942446043 355.9136690647482 L 492.66187050359713 225.15107913669064 L 492.66187050359713 225.15107913669064 Q 502.7913669064748 214.10071942446044 492.66187050359713 203.0503597122302 L 349.0071942446043 72.28776978417267 L 349.0071942446043 72.28776978417267 Z" />
</svg>