<svg xmlns="http://www.w3.org/2000/svg" viewBox="0 0 512 512">
  <path d="M 32 56 Q 33 32 48 16 L 48 16 L 48 16 Q 64 1 88 0 L 440 0 L 440 0 Q 457 0 468 12 Q 480 23 480 40 L 480 376 L 480 376 Q 478 407 448 415 L 448 496 L 448 496 L 472 496 L 472 496 Q 479 497 480 504 Q 479 511 472 512 L 88 512 L 88 512 Q 64 511 48 496 Q 33 480 32 456 L 32 56 L 32 56 Z M 88 416 Q 71 416 60 428 L 60 428 L 60 428 Q 48 439 48 456 Q 48 473 60 484 Q 71 496 88 496 L 432 496 L 432 496 L 432 416 L 432 416 L 88 416 L 88 416 Z M 48 417 Q 64 401 88 400 L 440 400 L 440 400 Q 462 398 464 376 L 464 40 L 464 40 Q 462 18 440 16 L 88 16 L 88 16 Q 71 16 60 28 Q 48 39 48 56 L 48 417 L 48 417 Z M 272 192 Q 299 191 314 168 Q 326 144 314 120 Q 299 97 272 96 Q 245 97 230 120 Q 218 144 230 168 Q 245 191 272 192 L 272 192 Z M 272 80 Q 308 81 327 112 Q 345 144 327 176 Q 308 207 272 208 Q 236 207 217 176 Q 199 144 217 112 Q 236 81 272 80 L 272 80 Z M 232 256 Q 208 257 192 272 L 192 272 L 192 272 Q 177 288 176 312 Q 177 319 184 320 L 360 320 L 360 320 Q 367 319 368 312 Q 367 288 352 272 Q 336 257 312 256 L 232 256 L 232 256 Z M 160 312 Q 161 281 181 261 L 181 261 L 181 261 Q 201 241 232 240 L 312 240 L 312 240 Q 343 241 363 261 Q 383 281 384 312 Q 382 334 360 336 L 184 336 L 184 336 Q 162 334 160 312 L 160 312 Z" />
</svg>