<svg xmlns="http://www.w3.org/2000/svg" viewBox="0 0 498 512">
    <path d="M 256 4 Q 253 0 249 0 Q 245 0 242 4 Q 231 20 218 48 Q 205 75 194 109 Q 173 168 175 229 Q 133 197 87 179 Q 41 161 11 155 Q 6 155 3 157 Q 0 160 1 165 Q 7 195 25 241 Q 43 287 76 329 Q 36 345 11 360 Q 11 361 11 361 Q 8 362 5 364 Q 1 366 1 371 Q 1 375 5 378 Q 16 384 36 394 Q 55 403 78 412 Q 118 426 159 422 L 141 469 Q 139 474 143 478 Q 147 481 151 479 L 241 438 L 241 504 Q 242 511 249 512 Q 256 511 257 504 L 257 438 L 347 479 Q 351 481 355 478 Q 359 474 357 469 L 339 422 Q 380 426 420 412 Q 443 403 463 394 Q 482 384 493 378 Q 497 375 497 371 Q 497 366 493 364 Q 481 357 462 348 Q 443 339 420 333 Q 453 290 472 243 Q 491 196 497 165 Q 498 160 495 157 Q 492 155 488 155 Q 457 161 411 179 Q 365 197 323 229 Q 325 168 304 109 Q 293 75 280 48 Q 267 20 256 4 L 256 4 Z M 257 421 L 257 328 Q 256 321 249 320 Q 242 321 241 328 L 241 421 L 163 457 L 179 413 Q 181 409 178 405 Q 174 401 169 403 Q 131 414 84 396 Q 49 384 26 371 Q 53 354 92 341 Q 96 339 97 335 Q 98 331 95 328 Q 64 291 46 249 Q 27 206 20 174 Q 54 181 99 201 Q 144 221 180 254 Q 184 258 189 256 Q 194 253 193 247 Q 188 216 193 182 Q 198 148 209 114 Q 229 57 249 23 Q 270 57 289 114 Q 300 147 305 182 Q 310 216 305 247 Q 304 253 309 256 Q 314 258 318 254 Q 355 221 400 201 Q 445 181 479 174 Q 471 207 451 251 Q 432 295 399 332 Q 396 335 397 339 Q 399 344 403 345 Q 444 355 472 371 Q 449 384 415 396 Q 368 414 329 403 Q 324 401 321 405 Q 317 409 319 413 L 336 457 L 257 421 L 257 421 Z"/>
</svg>
