<svg xmlns="http://www.w3.org/2000/svg" viewBox="0 0 512 512">
  <path d="M 350.22222222222223 63.55555555555556 Q 320.8888888888889 60 294.22222222222223 70.66666666666667 L 294.22222222222223 70.66666666666667 L 294.22222222222223 70.66666666666667 Q 268.44444444444446 82.22222222222223 250.66666666666666 105.33333333333333 L 232.88888888888889 130.22222222222223 L 232.88888888888889 130.22222222222223 Q 231.11111111111111 132.88888888888889 227.55555555555554 132.88888888888889 Q 224 132.88888888888889 221.33333333333334 130.22222222222223 L 203.55555555555554 105.33333333333333 L 203.55555555555554 105.33333333333333 Q 186.66666666666666 82.22222222222223 160 70.66666666666667 Q 134.22222222222223 60 104.88888888888889 63.55555555555556 Q 65.77777777777777 68.88888888888889 40 97.33333333333333 Q 15.11111111111111 126.66666666666667 14.222222222222221 166.66666666666666 Q 15.11111111111111 207.55555555555554 43.55555555555556 238.66666666666666 L 220.44444444444446 420.8888888888889 L 220.44444444444446 420.8888888888889 Q 223.11111111111111 424.44444444444446 227.55555555555554 424.44444444444446 Q 232 424.44444444444446 235.55555555555554 420.8888888888889 L 245.33333333333334 411.1111111111111 L 245.33333333333334 411.1111111111111 Q 248.88888888888889 417.3333333333333 252.44444444444446 423.55555555555554 L 245.33333333333334 431.55555555555554 L 245.33333333333334 431.55555555555554 Q 238.22222222222223 438.6666666666667 228.44444444444446 438.6666666666667 Q 217.77777777777777 438.6666666666667 210.66666666666666 431.55555555555554 L 32.888888888888886 248.44444444444446 L 32.888888888888886 248.44444444444446 Q 0.8888888888888888 213.77777777777777 0 166.66666666666666 Q 0.8888888888888888 120.44444444444444 29.333333333333332 88.44444444444444 Q 58.666666666666664 55.55555555555556 103.11111111111111 49.333333333333336 Q 136 44.888888888888886 166.22222222222223 58.22222222222222 Q 195.55555555555554 70.66666666666667 216 97.33333333333333 L 227.55555555555554 113.33333333333333 L 227.55555555555554 113.33333333333333 L 240 97.33333333333333 L 240 97.33333333333333 Q 259.55555555555554 70.66666666666667 288.8888888888889 58.22222222222222 Q 319.1111111111111 44.888888888888886 352 49.333333333333336 Q 396.44444444444446 55.55555555555556 425.77777777777777 88.44444444444444 Q 454.22222222222223 120.44444444444444 455.1111111111111 166.66666666666666 Q 455.1111111111111 182.66666666666666 450.6666666666667 197.77777777777777 Q 444.44444444444446 194.22222222222223 437.3333333333333 192.44444444444446 Q 440.8888888888889 180 440.8888888888889 166.66666666666666 Q 440 126.66666666666667 415.1111111111111 98.22222222222223 Q 389.3333333333333 68.88888888888889 350.22222222222223 63.55555555555556 L 350.22222222222223 63.55555555555556 Z M 497.77777777777777 339.1111111111111 Q 497.77777777777777 308 482.6666666666667 282.22222222222223 L 482.6666666666667 282.22222222222223 L 482.6666666666667 282.22222222222223 Q 467.55555555555554 256.44444444444446 440.8888888888889 240.44444444444446 Q 414.22222222222223 225.33333333333334 384 225.33333333333334 Q 353.77777777777777 225.33333333333334 327.1111111111111 240.44444444444446 Q 300.44444444444446 256.44444444444446 285.3333333333333 282.22222222222223 Q 270.22222222222223 308 270.22222222222223 339.1111111111111 Q 270.22222222222223 370.22222222222223 285.3333333333333 396 Q 300.44444444444446 421.77777777777777 327.1111111111111 437.77777777777777 Q 353.77777777777777 452.8888888888889 384 452.8888888888889 Q 414.22222222222223 452.8888888888889 440.8888888888889 437.77777777777777 Q 467.55555555555554 421.77777777777777 482.6666666666667 396 Q 497.77777777777777 370.22222222222223 497.77777777777777 339.1111111111111 L 497.77777777777777 339.1111111111111 Z M 256 339.1111111111111 Q 256 304.44444444444446 272.8888888888889 275.1111111111111 L 272.8888888888889 275.1111111111111 L 272.8888888888889 275.1111111111111 Q 289.77777777777777 245.77777777777777 320 228 Q 350.22222222222223 211.11111111111111 384 211.11111111111111 Q 417.77777777777777 211.11111111111111 448 228 Q 478.22222222222223 245.77777777777777 495.1111111111111 275.1111111111111 Q 512 304.44444444444446 512 339.1111111111111 Q 512 373.77777777777777 495.1111111111111 403.1111111111111 Q 478.22222222222223 432.44444444444446 448 450.22222222222223 Q 417.77777777777777 467.1111111111111 384 467.1111111111111 Q 350.22222222222223 467.1111111111111 320 450.22222222222223 Q 289.77777777777777 432.44444444444446 272.8888888888889 403.1111111111111 Q 256 373.77777777777777 256 339.1111111111111 L 256 339.1111111111111 Z M 391.1111111111111 275.1111111111111 L 391.1111111111111 332 L 391.1111111111111 275.1111111111111 L 391.1111111111111 332 L 448 332 L 448 332 Q 454.22222222222223 332.8888888888889 455.1111111111111 339.1111111111111 Q 454.22222222222223 345.3333333333333 448 346.22222222222223 L 391.1111111111111 346.22222222222223 L 391.1111111111111 346.22222222222223 L 391.1111111111111 403.1111111111111 L 391.1111111111111 403.1111111111111 Q 390.22222222222223 409.3333333333333 384 410.22222222222223 Q 377.77777777777777 409.3333333333333 376.8888888888889 403.1111111111111 L 376.8888888888889 346.22222222222223 L 376.8888888888889 346.22222222222223 L 320 346.22222222222223 L 320 346.22222222222223 Q 313.77777777777777 345.3333333333333 312.8888888888889 339.1111111111111 Q 313.77777777777777 332.8888888888889 320 332 L 376.8888888888889 332 L 376.8888888888889 332 L 376.8888888888889 275.1111111111111 L 376.8888888888889 275.1111111111111 Q 377.77777777777777 268.8888888888889 384 268 Q 390.22222222222223 268.8888888888889 391.1111111111111 275.1111111111111 L 391.1111111111111 275.1111111111111 Z" />
</svg>