<svg xmlns="http://www.w3.org/2000/svg" viewBox="0 0 644 516">
    <path d="M 15 4 Q 9 0 4 5 Q 0 11 5 16 L 629 512 Q 635 516 640 511 Q 644 505 639 500 L 15 4 L 15 4 Z M 400 401 L 380 386 Q 383 404 371 419 Q 358 432 342 433 Q 325 433 312 421 L 301 410 Q 298 407 295 408 Q 291 408 289 411 Q 286 415 282 419 Q 268 430 252 430 Q 236 429 223 417 L 183 377 L 162 357 Q 144 338 117 338 L 114 338 L 114 175 L 98 163 L 98 370 Q 97 385 82 386 L 34 386 Q 19 385 18 370 L 18 162 Q 19 147 34 146 L 77 146 L 57 130 L 34 130 Q 20 130 11 139 Q 2 148 2 162 L 2 370 Q 2 384 11 393 Q 20 402 34 402 L 82 402 Q 96 402 105 393 Q 114 384 114 370 L 114 354 L 117 354 Q 137 354 151 368 L 172 389 L 187 404 L 187 404 L 212 429 Q 229 445 252 446 Q 274 446 293 431 Q 294 429 296 428 Q 296 428 296 428 L 301 432 Q 319 449 342 449 Q 366 448 383 430 Q 394 416 396 400 Q 398 401 400 401 L 400 401 Z M 213 91 Q 235 82 258 82 L 279 82 L 296 66 L 258 66 Q 227 66 199 79 L 213 91 L 213 91 Z M 270 135 L 282 145 L 319 111 Q 349 83 391 82 Q 428 82 458 106 L 498 141 L 498 120 L 468 94 Q 434 66 391 66 Q 343 67 308 99 L 270 135 L 270 135 Z M 352 200 L 364 210 L 377 198 Q 382 192 378 187 Q 372 182 366 186 L 352 200 L 352 200 Z M 608 402 L 610 402 Q 624 402 633 393 Q 642 384 642 370 L 642 162 Q 642 148 633 139 Q 624 130 610 130 L 546 130 L 538 130 L 530 130 L 530 146 L 530 338 L 527 338 L 546 353 L 546 146 L 610 146 Q 625 147 626 162 L 626 370 Q 625 385 610 386 L 587 386 L 608 402 L 608 402 Z"/>
</svg>
