<svg xmlns="http://www.w3.org/2000/svg" viewBox="0 0 512 512">
  <path d="M 56.88889 42.666668 Q 39.11111 43.555557 26.666666 55.11111 L 26.666666 55.11111 L 26.666666 55.11111 Q 15.111111 67.55556 14.222222 85.333336 L 14.222222 341.33334 L 14.222222 341.33334 Q 15.111111 359.1111 26.666666 371.55554 Q 39.11111 383.1111 56.88889 384 L 206.22223 384 L 206.22223 384 L 206.22223 384 L 206.22223 384 L 305.77777 384 L 305.77777 384 L 305.77777 384 L 305.77777 384 L 455.1111 384 L 455.1111 384 Q 472.8889 383.1111 485.33334 371.55554 Q 496.8889 359.1111 497.77777 341.33334 L 497.77777 85.333336 L 497.77777 85.333336 Q 496.8889 67.55556 485.33334 55.11111 Q 472.8889 43.555557 455.1111 42.666668 L 56.88889 42.666668 L 56.88889 42.666668 Z M 198.22223 398.22223 L 56.88889 398.22223 L 198.22223 398.22223 L 56.88889 398.22223 Q 32.88889 397.33334 16.88889 381.33334 Q 0.8888889 365.33334 0 341.33334 L 0 85.333336 L 0 85.333336 Q 0.8888889 61.333332 16.88889 45.333332 Q 32.88889 29.333334 56.88889 28.444445 L 455.1111 28.444445 L 455.1111 28.444445 Q 479.1111 29.333334 495.1111 45.333332 Q 511.1111 61.333332 512 85.333336 L 512 341.33334 L 512 341.33334 Q 511.1111 365.33334 495.1111 381.33334 Q 479.1111 397.33334 455.1111 398.22223 L 313.77777 398.22223 L 313.77777 398.22223 L 326.22223 469.33334 L 326.22223 469.33334 L 391.1111 469.33334 L 391.1111 469.33334 Q 397.33334 470.22223 398.22223 476.44446 Q 397.33334 482.66666 391.1111 483.55554 L 320 483.55554 L 120.888885 483.55554 Q 114.666664 482.66666 113.77778 476.44446 Q 114.666664 470.22223 120.888885 469.33334 L 185.77777 469.33334 L 185.77777 469.33334 L 198.22223 398.22223 L 198.22223 398.22223 Z M 212.44444 398.22223 L 200.88889 469.33334 L 212.44444 398.22223 L 200.88889 469.33334 L 312 469.33334 L 312 469.33334 L 299.55554 398.22223 L 299.55554 398.22223 L 212.44444 398.22223 L 212.44444 398.22223 Z M 440.8889 99.55556 L 71.111115 99.55556 L 440.8889 99.55556 L 71.111115 99.55556 L 71.111115 327.1111 L 71.111115 327.1111 L 440.8889 327.1111 L 440.8889 327.1111 L 440.8889 99.55556 L 440.8889 99.55556 Z M 71.111115 85.333336 L 440.8889 85.333336 L 71.111115 85.333336 L 440.8889 85.333336 Q 454.22223 86.22222 455.1111 99.55556 L 455.1111 327.1111 L 455.1111 327.1111 Q 454.22223 340.44446 440.8889 341.33334 L 71.111115 341.33334 L 71.111115 341.33334 Q 57.77778 340.44446 56.88889 327.1111 L 56.88889 99.55556 L 56.88889 99.55556 Q 57.77778 86.22222 71.111115 85.333336 L 71.111115 85.333336 Z M 312.8889 142.22223 L 391.1111 142.22223 L 312.8889 142.22223 L 391.1111 142.22223 Q 397.33334 143.11111 398.22223 149.33333 L 398.22223 227.55556 L 398.22223 227.55556 Q 397.33334 233.77777 391.1111 234.66667 Q 384.8889 233.77777 384 227.55556 L 384 166.22223 L 384 166.22223 L 289.77777 261.33334 L 289.77777 261.33334 Q 287.1111 263.1111 284.44446 263.1111 Q 281.77777 263.1111 279.1111 261.33334 L 213.33333 194.66667 L 213.33333 194.66667 L 119.111115 289.77777 L 119.111115 289.77777 Q 113.77778 293.33334 108.44444 289.77777 Q 104.888885 284.44446 108.44444 279.1111 L 208 179.55556 L 208 179.55556 Q 213.33333 176 218.66667 179.55556 L 284.44446 246.22223 L 284.44446 246.22223 L 374.22223 156.44444 L 374.22223 156.44444 L 312.8889 156.44444 L 312.8889 156.44444 Q 306.66666 155.55556 305.77777 149.33333 Q 306.66666 143.11111 312.8889 142.22223 L 312.8889 142.22223 Z" />
</svg>