<svg xmlns="http://www.w3.org/2000/svg" viewBox="0 0 512 512">
  <path d="M 110.85358255451713 53.83177570093458 Q 105.27102803738318 49.84423676012461 98.89096573208722 52.23676012461059 Q 92.51090342679127 55.426791277258566 90.91588785046729 61.80685358255452 L 79.75077881619937 129.595015576324 L 79.75077881619937 129.595015576324 L 11.962616822429906 140.7601246105919 L 11.962616822429906 140.7601246105919 Q 5.582554517133956 142.3551401869159 2.392523364485981 148.73520249221184 Q 0 155.1152647975078 3.987538940809969 160.69781931464175 L 43.862928348909655 217.3208722741433 L 43.862928348909655 217.3208722741433 L 3.987538940809969 273.94392523364485 L 3.987538940809969 273.94392523364485 Q 0 279.52647975077883 2.392523364485981 285.9065420560748 Q 5.582554517133956 292.28660436137073 11.962616822429906 293.8816199376947 L 79.75077881619937 305.04672897196264 L 79.75077881619937 305.04672897196264 L 90.91588785046729 372.8348909657321 L 90.91588785046729 372.8348909657321 Q 92.51090342679127 379.21495327102804 98.89096573208722 382.404984423676 Q 105.27102803738318 384.79750778816197 110.85358255451713 380.809968847352 L 155.51401869158877 349.7071651090343 L 155.51401869158877 349.7071651090343 Q 151.5264797507788 344.92211838006233 147.53894080996884 339.33956386292834 L 115.6386292834891 362.4672897196262 L 115.6386292834891 362.4672897196262 L 103.67601246105919 370.44236760124613 L 103.67601246105919 370.44236760124613 L 101.2834890965732 356.8847352024922 L 101.2834890965732 356.8847352024922 L 92.51090342679127 302.6542056074766 L 92.51090342679127 302.6542056074766 Q 90.91588785046729 294.6791277258567 82.14330218068535 292.28660436137073 L 28.710280373831775 283.5140186915888 L 28.710280373831775 283.5140186915888 L 14.355140186915888 281.1214953271028 L 14.355140186915888 281.1214953271028 L 22.330218068535824 269.9563862928349 L 22.330218068535824 269.9563862928349 L 54.230529595015575 224.49844236760126 L 54.230529595015575 224.49844236760126 Q 58.218068535825545 217.3208722741433 54.230529595015575 210.14330218068537 L 22.330218068535824 165.4828660436137 L 22.330218068535824 165.4828660436137 L 14.355140186915888 153.5202492211838 L 14.355140186915888 153.5202492211838 L 28.710280373831775 151.12772585669782 L 28.710280373831775 151.12772585669782 L 82.14330218068535 142.3551401869159 L 82.14330218068535 142.3551401869159 Q 90.11838006230529 140.7601246105919 92.51090342679127 131.98753894080997 L 101.2834890965732 78.55451713395638 L 101.2834890965732 78.55451713395638 L 103.67601246105919 64.19937694704049 L 103.67601246105919 64.19937694704049 L 115.6386292834891 72.17445482866043 L 115.6386292834891 72.17445482866043 L 160.29906542056074 104.07476635514018 L 160.29906542056074 104.07476635514018 Q 167.47663551401868 108.06230529595015 174.65420560747663 104.07476635514018 L 220.11214953271028 72.17445482866043 L 220.11214953271028 72.17445482866043 L 231.2772585669782 64.19937694704049 L 231.2772585669782 64.19937694704049 L 233.66978193146417 78.55451713395638 L 233.66978193146417 78.55451713395638 L 240.04984423676012 118.42990654205607 L 240.04984423676012 118.42990654205607 Q 245.63239875389408 114.4423676012461 252.01246105919003 112.04984423676012 L 244.0373831775701 61.80685358255452 L 244.0373831775701 61.80685358255452 Q 242.4423676012461 55.426791277258566 236.06230529595015 52.23676012461059 Q 229.6822429906542 49.84423676012461 224.09968847352025 53.83177570093458 L 167.47663551401868 93.70716510903426 L 167.47663551401868 93.70716510903426 L 110.85358255451713 53.83177570093458 L 110.85358255451713 53.83177570093458 Z M 167.47663551401868 140.7601246105919 Q 134.77881619937693 141.5576323987539 113.24610591900311 163.09034267912773 L 113.24610591900311 163.09034267912773 L 113.24610591900311 163.09034267912773 Q 91.71339563862928 184.62305295950156 90.91588785046729 217.3208722741433 Q 90.91588785046729 238.85358255451715 101.2834890965732 256.398753894081 Q 111.65109034267913 273.1464174454829 129.19626168224298 283.5140186915888 Q 129.19626168224298 282.7165109034268 129.19626168224298 282.7165109034268 Q 129.19626168224298 281.9190031152648 129.19626168224298 281.1214953271028 Q 129.19626168224298 274.74143302180687 129.99376947040497 269.1588785046729 Q 105.27102803738318 250.01869158878506 103.67601246105919 217.3208722741433 Q 104.47352024922118 190.20560747663552 122.01869158878505 171.86292834890966 Q 140.3613707165109 154.3177570093458 167.47663551401868 153.5202492211838 Q 186.61682242990653 153.5202492211838 201.76947040498442 163.09034267912773 Q 204.1619937694704 157.50778816199377 207.35202492211837 151.92523364485982 Q 189.8068535825545 140.7601246105919 167.47663551401868 140.7601246105919 L 167.47663551401868 140.7601246105919 Z M 231.2772585669782 204.5607476635514 Q 232.07476635514018 177.44548286604362 249.61993769470405 159.10280373831776 L 249.61993769470405 159.10280373831776 L 249.61993769470405 159.10280373831776 Q 267.9626168224299 141.5576323987539 295.07788161993767 140.7601246105919 Q 314.2180685358255 140.7601246105919 329.37071651090343 151.12772585669782 Q 344.5233644859813 160.69781931464175 352.4984423676012 177.44548286604362 Q 354.0934579439252 180.6355140186916 357.2834890965732 180.6355140186916 Q 360.47352024922117 181.4330218068536 362.8660436137072 179.8380062305296 Q 377.22118380062307 167.0778816199377 397.1588785046729 166.2803738317757 Q 418.69158878504675 167.0778816199377 433.04672897196264 181.4330218068536 Q 447.4018691588785 195.78816199376948 448.1993769470405 217.3208722741433 Q 448.1993769470405 226.09345794392524 445.0093457943925 234.06853582554518 Q 444.21183800623055 237.25856697819316 445.80685358255454 240.44859813084113 Q 447.4018691588785 242.84112149532712 450.5919003115265 242.84112149532712 Q 471.32710280373834 244.4361370716511 484.8847352024922 258.791277258567 Q 498.44236760124613 273.1464174454829 499.2398753894081 293.8816199376947 Q 498.44236760124613 315.4143302180685 484.08722741433024 329.7694704049844 Q 469.73208722741435 344.1246105919003 448.1993769470405 344.92211838006233 Q 447.4018691588785 344.92211838006233 446.6043613707165 344.92211838006233 L 446.6043613707165 344.92211838006233 L 446.6043613707165 344.92211838006233 L 445.80685358255454 344.92211838006233 L 435.4392523364486 344.92211838006233 Q 435.4392523364486 351.3021806853583 433.04672897196264 357.68224299065423 L 445.80685358255454 357.68224299065423 L 445.80685358255454 357.68224299065423 Q 447.4018691588785 357.68224299065423 448.1993769470405 357.68224299065423 Q 475.3146417445483 356.8847352024922 492.85981308411215 338.5420560747664 Q 511.20249221183803 320.9968847352025 512 293.8816199376947 Q 511.20249221183803 269.9563862928349 496.84735202492215 252.41121495327104 Q 482.49221183800626 235.66355140186917 459.3644859813084 230.8785046728972 Q 460.9595015576324 224.49844236760126 460.9595015576324 217.3208722741433 Q 460.1619937694704 190.20560747663552 442.61682242990656 171.86292834890966 Q 424.2741433021807 154.3177570093458 397.1588785046729 153.5202492211838 Q 376.42367601246104 153.5202492211838 360.47352024922117 164.68535825545172 Q 350.1059190031153 147.93769470404985 333.3582554517134 138.36760124610592 Q 315.8130841121495 128 295.07788161993767 128 Q 262.38006230529595 128.797507788162 240.84735202492212 150.33021806853583 Q 219.31464174454828 171.86292834890966 218.5171339563863 204.5607476635514 L 218.5171339563863 205.3582554517134 L 218.5171339563863 205.3582554517134 Q 190.6043613707165 210.94080996884736 173.05919003115264 231.6760124610592 Q 155.51401869158877 252.41121495327104 154.71651090342678 281.1214953271028 Q 155.51401869158877 306.6417445482866 169.07165109034267 326.57943925233644 Q 183.42679127725856 345.7196261682243 206.55451713395638 353.69470404984423 Q 204.9595015576324 346.5171339563863 206.55451713395638 340.13707165109037 Q 189.00934579439252 332.1619937694704 178.6417445482866 317.0093457943925 Q 167.47663551401868 301.05919003115264 167.47663551401868 281.1214953271028 Q 168.27414330218068 255.60124610591902 184.22429906542055 238.05607476635515 Q 200.97196261682242 220.5109034267913 225.69470404984423 217.3208722741433 Q 228.08722741433021 217.3208722741433 230.4797507788162 215.72585669781932 Q 232.07476635514018 213.33333333333334 231.2772585669782 210.94080996884736 Q 231.2772585669782 207.7507788161994 231.2772585669782 204.5607476635514 L 231.2772585669782 204.5607476635514 Z M 330.1682242990654 326.57943925233644 Q 326.9781931464174 332.9595015576324 330.1682242990654 338.5420560747664 Q 334.1557632398754 344.92211838006233 341.3333333333333 344.92211838006233 L 397.1588785046729 344.92211838006233 L 397.1588785046729 344.92211838006233 L 269.55763239875387 447.0031152647975 L 269.55763239875387 447.0031152647975 L 311.02803738317755 363.26479750778816 L 311.02803738317755 363.26479750778816 Q 314.2180685358255 356.8847352024922 311.02803738317755 351.3021806853583 Q 307.0404984423676 344.92211838006233 299.86292834890963 344.92211838006233 L 244.0373831775701 344.92211838006233 L 244.0373831775701 344.92211838006233 L 371.6386292834891 242.84112149532712 L 371.6386292834891 242.84112149532712 L 330.1682242990654 326.57943925233644 L 330.1682242990654 326.57943925233644 Z M 382.803738317757 248.42367601246107 Q 386.791277258567 239.65109034267914 379.613707165109 232.4735202492212 Q 371.6386292834891 226.89096573208724 363.66355140186914 232.4735202492212 L 236.06230529595015 334.5545171339564 L 236.06230529595015 334.5545171339564 Q 229.6822429906542 340.93457943925233 232.07476635514018 348.90965732087227 Q 235.26479750778816 356.8847352024922 244.0373831775701 357.68224299065423 L 285.50778816199374 357.68224299065423 L 299.86292834890963 357.68224299065423 L 293.4828660436137 370.44236760124613 L 293.4828660436137 370.44236760124613 L 258.39252336448595 441.42056074766356 L 258.39252336448595 441.42056074766356 Q 254.404984423676 450.19314641744546 261.58255451713393 456.5732087227414 Q 269.55763239875387 462.1557632398754 277.5327102803738 456.5732087227414 L 405.1339563862928 354.49221183800626 L 405.1339563862928 354.49221183800626 Q 411.5140186915888 348.90965732087227 409.1214953271028 340.93457943925233 Q 405.93146417445485 332.1619937694704 397.1588785046729 332.1619937694704 L 355.6884735202492 332.1619937694704 L 341.3333333333333 332.1619937694704 L 347.71339563862927 319.4018691588785 L 347.71339563862927 319.4018691588785 L 382.803738317757 248.42367601246107 L 382.803738317757 248.42367601246107 Z" />
</svg>