<svg xmlns="http://www.w3.org/2000/svg" viewBox="0 0 512 512">
  <path d="M 263.1111 249.77777 L 263.1111 53.333332 L 263.1111 249.77777 L 263.1111 53.333332 L 328.8889 120 L 328.8889 120 Q 334.22223 123.55556 339.55554 120 Q 343.1111 114.666664 339.55554 109.333336 L 261.33334 31.11111 L 261.33334 31.11111 Q 256 27.555555 250.66667 31.11111 L 172.44444 109.333336 L 172.44444 109.333336 Q 168.88889 114.666664 172.44444 120 Q 177.77777 123.55556 183.11111 120 L 248.88889 53.333332 L 248.88889 53.333332 L 248.88889 249.77777 L 248.88889 249.77777 Q 249.77777 256 256 256.8889 Q 262.22223 256 263.1111 249.77777 L 263.1111 249.77777 Z M 286.22223 329.77777 Q 272.8889 317.33334 262.22223 302.22223 Q 256 296.8889 249.77777 302.22223 Q 239.11111 317.33334 225.77777 329.77777 Q 214.22223 340.44446 200 348.44446 Q 185.77777 356.44446 170.66667 356.44446 Q 155.55556 356.44446 141.33333 348.44446 Q 127.111115 340.44446 115.55556 329.77777 Q 102.22222 317.33334 91.55556 302.22223 Q 88.888885 299.55554 85.333336 299.55554 Q 81.77778 299.55554 79.111115 302.22223 Q 69.333336 316.44446 56.88889 328 Q 35.555557 350.22223 6.2222223 356.44446 Q 0 357.33334 0 364.44446 Q 1.7777778 370.66666 8 369.77777 Q 25.777779 367.1111 40.88889 358.22223 Q 56 348.44446 66.666664 337.77777 Q 79.111115 326.22223 85.333336 318.22223 Q 92.44444 327.1111 105.77778 340.44446 Q 118.22222 352 135.11111 360.8889 Q 151.11111 369.77777 170.66667 370.66666 Q 190.22223 369.77777 206.22223 360.8889 Q 223.11111 352 235.55556 340.44446 Q 248.88889 327.1111 256 318.22223 L 256 318.22223 L 256 318.22223 L 256 318.22223 L 256 318.22223 Q 263.1111 327.1111 276.44446 340.44446 Q 288.8889 352 305.77777 360.8889 Q 321.77777 369.77777 341.33334 370.66666 Q 360.8889 369.77777 376.8889 360.8889 Q 393.77777 352 406.22223 340.44446 Q 419.55554 327.1111 426.66666 318.22223 Q 432.8889 326.22223 445.33334 337.77777 Q 456 348.44446 471.1111 358.22223 Q 486.22223 367.1111 504 369.77777 Q 510.22223 370.66666 512 364.44446 Q 512 357.33334 505.77777 356.44446 Q 476.44446 350.22223 455.1111 328 Q 442.66666 316.44446 432.8889 302.22223 Q 430.22223 299.55554 426.66666 299.55554 Q 423.1111 299.55554 420.44446 302.22223 Q 409.77777 317.33334 396.44446 329.77777 Q 384.8889 340.44446 370.66666 348.44446 Q 356.44446 356.44446 341.33334 356.44446 Q 326.22223 356.44446 312 348.44446 Q 297.77777 340.44446 286.22223 329.77777 L 286.22223 329.77777 Z M 262.22223 416 Q 256 410.66666 249.77777 416 Q 239.11111 431.1111 225.77777 443.55554 Q 214.22223 454.22223 200 462.22223 Q 185.77777 470.22223 170.66667 470.22223 Q 155.55556 470.22223 141.33333 462.22223 Q 127.111115 454.22223 115.55556 443.55554 Q 102.22222 431.1111 91.55556 416 Q 88.888885 413.33334 85.333336 413.33334 Q 81.77778 413.33334 79.111115 416 Q 69.333336 430.22223 56.88889 441.77777 Q 35.555557 464 6.2222223 470.22223 Q 0 471.1111 0 478.22223 Q 1.7777778 484.44446 8 483.55554 Q 25.777779 480.8889 40.88889 472 Q 56 462.22223 66.666664 451.55554 Q 79.111115 440 85.333336 432 Q 92.44444 440.8889 105.77778 454.22223 Q 118.22222 465.77777 135.11111 474.66666 Q 151.11111 483.55554 170.66667 484.44446 Q 190.22223 483.55554 206.22223 474.66666 Q 223.11111 465.77777 235.55556 454.22223 Q 248.88889 440.8889 256 432 L 256 432 L 256 432 L 256 432 L 256 432 Q 263.1111 440.8889 276.44446 454.22223 Q 288.8889 465.77777 305.77777 474.66666 Q 321.77777 483.55554 341.33334 484.44446 Q 360.8889 483.55554 376.8889 474.66666 Q 393.77777 465.77777 406.22223 454.22223 Q 419.55554 440.8889 426.66666 432 Q 432.8889 440 445.33334 451.55554 Q 456 462.22223 471.1111 472 Q 486.22223 480.8889 504 483.55554 Q 510.22223 484.44446 512 478.22223 Q 512 471.1111 505.77777 470.22223 Q 476.44446 464 455.1111 441.77777 Q 442.66666 430.22223 432.8889 416 Q 430.22223 413.33334 426.66666 413.33334 Q 423.1111 413.33334 420.44446 416 Q 409.77777 431.1111 396.44446 443.55554 Q 384.8889 454.22223 370.66666 462.22223 Q 356.44446 470.22223 341.33334 470.22223 Q 326.22223 470.22223 312 462.22223 Q 297.77777 454.22223 286.22223 443.55554 Q 272.8889 431.1111 262.22223 416 L 262.22223 416 Z" />
</svg>