<svg xmlns="http://www.w3.org/2000/svg" viewBox="0 0 512 512">
  <path d="M 337.05329153605015 251.18495297805643 Q 345.0783699059561 254.3949843260188 345.8808777429467 263.22257053291537 L 345.8808777429467 319.39811912225707 L 345.8808777429467 319.39811912225707 Q 346.6833855799373 329.0282131661442 356.31347962382443 332.2382445141066 L 444.58934169278996 349.8934169278997 L 444.58934169278996 349.8934169278997 Q 454.2194357366771 350.69592476489026 459.0344827586207 342.6708463949843 L 490.3322884012539 279.27272727272725 L 490.3322884012539 279.27272727272725 Q 496.7523510971787 264.82758620689657 487.9247648902821 254.3949843260188 Q 458.23197492163007 223.09717868338558 398.846394984326 192.60188087774296 Q 339.4608150470219 162.9090909090909 256 160.50156739811914 Q 172.53918495297805 162.9090909090909 113.15360501567397 192.60188087774296 Q 53.76802507836991 223.09717868338558 24.07523510971787 254.3949843260188 Q 15.247648902821316 264.02507836990594 21.66771159874608 279.27272727272725 L 52.96551724137931 342.6708463949843 L 52.96551724137931 342.6708463949843 Q 57.78056426332289 350.69592476489026 67.41065830721003 349.8934169278997 L 155.68652037617554 331.435736677116 L 155.68652037617554 331.435736677116 Q 165.3166144200627 329.0282131661442 166.1191222570533 319.39811912225707 L 166.1191222570533 263.22257053291537 L 166.1191222570533 263.22257053291537 Q 166.92163009404388 254.3949843260188 174.94670846394985 251.18495297805643 Q 256 224.70219435736678 337.05329153605015 251.18495297805643 L 337.05329153605015 251.18495297805643 Z M 333.0407523510972 263.22257053291537 Q 256 238.3448275862069 178.95924764890282 263.22257053291537 L 178.95924764890282 319.39811912225707 L 178.95924764890282 319.39811912225707 Q 177.35423197492162 339.4608150470219 158.09404388714734 344.2758620689655 L 69.81818181818181 361.9310344827586 L 69.81818181818181 361.9310344827586 Q 51.36050156739812 364.33855799373043 41.73040752351097 348.2884012539185 L 10.432601880877742 284.8902821316614 L 10.432601880877742 284.8902821316614 Q 0 263.22257053291537 15.247648902821316 245.56739811912226 Q 46.54545454545455 212.66457680250784 107.53605015673982 181.36677115987462 Q 169.32915360501568 150.06896551724137 256 147.6614420062696 Q 342.6708463949843 150.06896551724137 404.4639498432602 181.36677115987462 Q 465.45454545454544 212.66457680250784 496.7523510971787 245.56739811912226 Q 512 263.22257053291537 502.36990595611286 284.8902821316614 L 470.26959247648904 348.2884012539185 L 470.26959247648904 348.2884012539185 Q 460.6394984326019 364.33855799373043 442.1818181818182 361.9310344827586 L 353.90595611285266 344.2758620689655 L 353.90595611285266 344.2758620689655 Q 334.6457680250784 339.4608150470219 333.0407523510972 319.39811912225707 L 333.0407523510972 263.22257053291537 L 333.0407523510972 263.22257053291537 Z" />
</svg>