<svg xmlns="http://www.w3.org/2000/svg" viewBox="0 0 320 512">
    <path d="M 256 16 Q 276 17 290 30 L 290 30 Q 303 44 304 64 L 304 352 Q 302 413 262 454 Q 221 494 160 496 Q 99 494 58 454 Q 18 413 16 352 L 16 64 Q 17 44 30 30 Q 44 17 64 16 L 256 16 L 256 16 Z M 64 0 Q 37 1 19 19 L 19 19 Q 1 37 0 64 L 0 352 Q 2 420 47 465 Q 92 510 160 512 Q 228 510 273 465 Q 318 420 320 352 L 320 64 Q 319 37 301 19 Q 283 1 256 0 L 64 0 L 64 0 Z M 160 432 Q 137 431 125 412 Q 115 392 125 372 Q 137 353 160 352 Q 183 353 195 372 Q 205 392 195 412 Q 183 431 160 432 L 160 432 Z M 160 336 Q 128 337 112 364 Q 96 392 112 420 Q 128 447 160 448 Q 192 447 208 420 Q 224 392 208 364 Q 192 337 160 336 L 160 336 Z M 200 256 Q 199 279 180 291 Q 160 301 140 291 Q 121 279 120 256 Q 121 233 140 221 Q 160 211 180 221 Q 199 233 200 256 L 200 256 Z M 104 256 Q 105 288 132 304 Q 160 320 188 304 Q 215 288 216 256 Q 215 224 188 208 Q 160 192 132 208 Q 105 224 104 256 L 104 256 Z M 160 160 Q 137 159 125 140 Q 115 120 125 100 Q 137 81 160 80 Q 183 81 195 100 Q 205 120 195 140 Q 183 159 160 160 L 160 160 Z M 160 64 Q 128 65 112 92 Q 96 120 112 148 Q 128 175 160 176 Q 192 175 208 148 Q 224 120 208 92 Q 192 65 160 64 L 160 64 Z M 160 104 Q 145 105 144 120 Q 145 135 160 136 Q 175 135 176 120 Q 175 105 160 104 L 160 104 Z"/>
</svg>
