<svg xmlns="http://www.w3.org/2000/svg" viewBox="0 0 512 512">
  <path d="M 467.86206 370.7586 L 467.86206 370.7586 L 467.86206 370.7586 L 467.86206 370.7586 L 468.84293 370.7586 L 468.84293 370.7586 Q 496.30652 300.13794 480.61304 226.5747 Q 465.9004 153.01149 412.93488 99.06513 Q 358.00766 46.099617 285.4253 31.386972 Q 211.86208 15.693486 141.24138 44.13793 L 141.24138 44.13793 L 141.24138 44.13793 L 141.24138 44.13793 L 141.24138 44.13793 Q 197.14943 64.735634 246.19157 99.06513 Q 296.21457 133.39464 337.40997 174.59004 Q 378.60538 215.78545 412.93488 265.80844 Q 446.28354 314.8506 467.86206 370.7586 L 467.86206 370.7586 Z M 136.33716 58.850574 Q 125.54789 53.94636 125.54789 44.13793 L 125.54789 44.13793 L 125.54789 44.13793 Q 125.54789 34.329502 135.35632 29.425287 Q 210.88123 0 288.36783 15.693486 Q 365.8544 31.386972 423.72415 87.29502 Q 480.61304 145.16475 496.30652 223.63219 Q 512 301.11877 482.5747 376.64368 Q 477.6705 386.45212 467.86206 386.45212 Q 458.05365 386.45212 453.1494 376.64368 Q 432.55173 322.69733 400.1839 274.63602 Q 366.83524 225.59387 326.6207 185.3793 Q 286.40613 145.16475 237.36398 111.81609 Q 189.30269 78.46743 136.33716 58.850574 L 136.33716 58.850574 Z M 20.597702 469.82376 Q 11.770115 480.61304 20.597702 491.4023 Q 31.386972 501.21072 42.176247 492.38315 L 319.7548 224.61302 L 319.7548 224.61302 Q 322.69733 227.55556 325.63983 230.49808 Q 327.60153 233.44061 330.54407 236.38315 L 52.96552 503.17242 L 52.96552 503.17242 Q 43.15709 512 31.386972 512 Q 18.636015 512 8.827586 503.17242 Q 0 493.36398 0 480.61304 Q 0 468.84293 8.827586 459.0345 L 275.61685 181.45593 L 275.61685 181.45593 Q 281.50192 186.36015 287.38696 192.24521 L 20.597702 469.82376 L 20.597702 469.82376 Z M 421.76245 27.463602 L 484.5364 90.23755 L 421.76245 27.463602 L 484.5364 90.23755 Q 488.45978 96.122604 484.5364 102.00766 Q 478.65134 105.93104 472.7663 102.00766 L 409.99234 39.233715 L 409.99234 39.233715 Q 406.06897 33.34866 409.99234 27.463602 Q 415.87738 23.54023 421.76245 27.463602 L 421.76245 27.463602 Z" />
</svg>