<svg xmlns="http://www.w3.org/2000/svg" viewBox="0 0 512 512">
  <path d="M 64 240.5 Q 44 239.5 30 226.5 L 30 226.5 L 30 226.5 Q 17 212.5 16 192.5 Q 17 152.5 43 124.5 Q 69 96.5 110 79.5 Q 152 62.5 192 55.5 Q 232 48.5 256 48.5 Q 280 48.5 320 55.5 Q 360 62.5 402 79.5 Q 443 96.5 469 124.5 Q 495 152.5 496 192.5 Q 495 212.5 482 226.5 Q 468 239.5 448 240.5 Q 433 241.5 432 256.5 L 432 432.5 L 432 432.5 Q 432 446.5 423 455.5 Q 414 464.5 400 464.5 L 112 464.5 L 112 464.5 Q 98 464.5 89 455.5 Q 80 446.5 80 432.5 L 80 256.5 L 80 256.5 Q 79 241.5 64 240.5 L 64 240.5 Z M 448 272.5 L 448 256.5 L 448 272.5 L 448 256.5 Q 475 255.5 493 237.5 Q 511 219.5 512 192.5 Q 509 129.5 460 94.5 Q 411 59.5 351 45.5 Q 291 31.5 256 32.5 Q 221 31.5 161 45.5 Q 101 59.5 52 94.5 Q 3 129.5 0 192.5 Q 1 219.5 19 237.5 Q 37 255.5 64 256.5 L 64 272.5 L 64 272.5 L 64 432.5 L 64 432.5 Q 65 452.5 78 466.5 Q 92 479.5 112 480.5 L 400 480.5 L 400 480.5 Q 420 479.5 434 466.5 Q 447 452.5 448 432.5 L 448 272.5 L 448 272.5 Z" />
</svg>