<svg xmlns="http://www.w3.org/2000/svg" viewBox="0 0 512 512">
  <path d="M 0 134.8 Q 0.8 140.4 6.4 141.2 L 96 141.2 L 96 141.2 L 96 378 L 96 378 Q 96.8 383.6 102.4 384.4 Q 108 383.6 108.8 378 L 108.8 141.2 L 108.8 141.2 L 198.4 141.2 L 198.4 141.2 Q 204 140.4 204.8 134.8 Q 204 129.2 198.4 128.4 L 6.4 128.4 L 6.4 128.4 Q 0.8 129.2 0 134.8 L 0 134.8 Z M 241.6 130.8 Q 238.4 127.6 234.4 129.2 Q 230.4 130.8 230.4 134.8 L 230.4 378 L 230.4 378 Q 231.2 383.6 236.8 384.4 Q 242.4 383.6 243.2 378 L 243.2 151.6 L 243.2 151.6 L 366.4 292.4 L 366.4 292.4 Q 368 294.8 371.2 294.8 Q 374.4 294.8 376 292.4 L 499.2 151.6 L 499.2 151.6 L 499.2 378 L 499.2 378 Q 500 383.6 505.6 384.4 Q 511.2 383.6 512 378 L 512 134.8 L 512 134.8 Q 512 130.8 508 129.2 Q 504 127.6 500.8 130.8 L 371.2 278.8 L 371.2 278.8 L 241.6 130.8 L 241.6 130.8 Z" />
</svg>