<svg xmlns="http://www.w3.org/2000/svg" viewBox="0 0 512 512">
  <path d="M 256 16 Q 321 17 376 48 L 376 48 L 376 48 Q 431 80 464 136 Q 496 193 496 256 Q 496 319 464 376 Q 431 432 376 464 Q 321 495 256 496 Q 191 495 136 464 Q 81 432 48 376 Q 16 319 16 256 Q 16 193 48 136 Q 81 80 136 48 Q 191 17 256 16 L 256 16 Z M 256 512 Q 326 511 384 478 L 384 478 L 384 478 Q 442 444 478 384 Q 512 323 512 256 Q 512 189 478 128 Q 442 68 384 34 Q 326 1 256 0 Q 186 1 128 34 Q 70 68 34 128 Q 0 189 0 256 Q 0 323 34 384 Q 70 444 128 478 Q 186 511 256 512 L 256 512 Z M 271 216 Q 267 215 264 218 L 238 239 L 238 239 Q 232 244 225 243 L 225 243 L 225 243 Q 222 242 220 240 L 216 235 L 216 235 Q 202 217 179 216 Q 156 216 142 235 L 136 242 L 136 242 Q 135 243 133 244 L 98 261 L 98 261 Q 79 270 73 289 Q 67 308 76 326 L 80 333 L 80 333 Q 88 348 104 355 Q 119 361 137 356 L 160 349 L 160 349 L 209 366 L 209 366 L 237 384 L 237 384 Q 249 392 265 392 Q 290 391 305 372 L 317 357 L 317 357 Q 328 343 328 326 Q 328 309 317 295 L 300 272 L 300 272 Q 293 264 289 254 L 276 221 L 276 221 Q 275 217 271 216 L 271 216 Z M 179 232 Q 194 232 203 244 L 207 249 L 207 249 Q 212 257 221 259 L 222 259 L 222 259 Q 237 261 249 252 L 266 237 L 266 237 L 274 260 L 274 260 Q 279 272 287 282 L 305 305 L 305 305 Q 312 314 312 326 Q 312 338 305 347 L 293 362 L 293 362 Q 282 376 265 376 Q 254 376 245 370 L 217 352 L 217 352 Q 216 351 215 351 L 162 333 L 162 333 Q 160 332 157 333 L 132 341 L 132 341 Q 107 347 94 325 L 90 319 L 90 319 Q 84 307 88 294 Q 93 282 105 275 L 140 259 L 140 259 Q 146 256 149 251 L 155 244 L 155 244 Q 164 232 179 232 L 179 232 Z M 274 143 Q 258 128 238 132 L 199 139 L 199 139 Q 188 143 186 153 Q 185 164 196 170 L 239 189 L 239 189 Q 246 192 255 192 L 285 192 L 285 192 Q 296 191 299 182 Q 303 173 296 165 L 274 143 L 274 143 Z M 241 147 Q 253 145 263 154 L 285 176 L 285 176 L 255 176 L 255 176 Q 250 176 245 174 L 202 155 L 202 155 L 241 147 L 241 147 Z M 256 432 Q 257 439 264 440 L 280 440 L 280 440 Q 287 439 288 432 Q 287 425 280 424 L 264 424 L 264 424 Q 257 425 256 432 L 256 432 Z M 424 310 Q 421 303 414 304 Q 407 307 408 315 L 416 339 L 416 339 Q 419 345 427 344 Q 433 341 432 334 L 424 310 L 424 310 Z M 374 414 L 406 382 L 374 414 L 406 382 Q 410 376 406 370 Q 400 366 394 370 L 362 402 L 362 402 Q 358 408 362 414 Q 368 418 374 414 L 374 414 Z" />
</svg>