<svg xmlns="http://www.w3.org/2000/svg" viewBox="0 0 512 512">
  <path d="M 84 114 Q 152 81 256 80 Q 360 81 428 114 Q 495 148 496 192 Q 496 221 466 246 Q 452 236 435 228 Q 363 193 256 192 Q 149 193 77 228 Q 60 236 46 246 Q 16 221 16 192 Q 17 148 84 114 L 84 114 Z M 512 184 Q 508 158 488 137 L 488 137 L 488 137 Q 467 115 435 100 Q 363 65 256 64 Q 149 65 77 100 Q 45 115 24 137 Q 4 158 1 184 L 0 184 L 0 184 L 0 192 L 0 192 L 0 321 L 0 321 Q 1 349 22 372 Q 42 396 77 412 Q 149 447 256 448 Q 363 447 435 412 Q 470 396 491 372 Q 511 349 512 321 L 512 192 L 512 192 L 512 184 L 512 184 L 512 184 L 512 184 Z M 496 237 L 496 321 L 496 237 L 496 321 Q 495 364 428 398 Q 360 431 256 432 Q 152 431 84 398 Q 17 364 16 321 L 16 237 L 16 237 Q 37 265 77 284 Q 149 319 256 320 Q 363 319 435 284 Q 475 265 496 237 L 496 237 Z M 84 270 Q 71 263 60 256 Q 71 249 84 242 Q 152 209 256 208 Q 360 209 428 242 Q 441 249 452 256 Q 441 263 428 270 Q 360 303 256 304 Q 152 303 84 270 L 84 270 Z" />
</svg>