<svg xmlns="http://www.w3.org/2000/svg" viewBox="0 0 384 512">
    <path d="M 133 10 Q 140 0 152 0 L 232 0 Q 244 0 251 10 L 283 55 Q 289 64 284 73 L 242 135 Q 305 153 344 202 Q 383 252 384 320 Q 382 402 328 456 Q 274 510 192 512 Q 110 510 56 456 Q 2 402 0 320 Q 1 252 40 202 Q 79 153 142 135 L 100 73 Q 95 64 101 55 L 133 10 L 133 10 Z M 265 72 L 119 72 L 158 131 Q 175 128 192 128 Q 209 128 226 131 L 265 72 L 265 72 Z M 265 56 L 238 19 Q 236 16 232 16 L 152 16 Q 148 16 146 19 L 120 56 L 265 56 L 265 56 Z M 192 496 Q 240 496 280 472 L 280 472 Q 320 449 344 408 Q 368 366 368 320 Q 368 274 344 232 Q 320 191 280 168 Q 240 144 192 144 Q 144 144 104 168 Q 64 191 40 232 Q 16 274 16 320 Q 16 366 40 408 Q 64 449 104 472 Q 144 496 192 496 L 192 496 Z"/>
</svg>
