<svg xmlns="http://www.w3.org/2000/svg" viewBox="0 0 512 512">
  <path d="M 455.1111111111111 71.11111111111111 Q 472.8888888888889 72 485.3333333333333 83.55555555555556 L 485.3333333333333 83.55555555555556 L 485.3333333333333 83.55555555555556 Q 496.8888888888889 96 497.77777777777777 113.77777777777777 L 497.77777777777777 398.22222222222223 L 497.77777777777777 398.22222222222223 Q 496.8888888888889 416 485.3333333333333 428.44444444444446 Q 472.8888888888889 440 455.1111111111111 440.8888888888889 L 56.888888888888886 440.8888888888889 L 56.888888888888886 440.8888888888889 Q 39.111111111111114 440 26.666666666666668 428.44444444444446 Q 15.11111111111111 416 14.222222222222221 398.22222222222223 L 14.222222222222221 113.77777777777777 L 14.222222222222221 113.77777777777777 Q 15.11111111111111 96 26.666666666666668 83.55555555555556 Q 39.111111111111114 72 56.888888888888886 71.11111111111111 L 455.1111111111111 71.11111111111111 L 455.1111111111111 71.11111111111111 Z M 56.888888888888886 56.888888888888886 Q 32.888888888888886 57.77777777777778 16.88888888888889 73.77777777777777 L 16.88888888888889 73.77777777777777 L 16.88888888888889 73.77777777777777 Q 0.8888888888888888 89.77777777777777 0 113.77777777777777 L 0 398.22222222222223 L 0 398.22222222222223 Q 0.8888888888888888 422.22222222222223 16.88888888888889 438.22222222222223 Q 32.888888888888886 454.22222222222223 56.888888888888886 455.1111111111111 L 455.1111111111111 455.1111111111111 L 455.1111111111111 455.1111111111111 Q 479.1111111111111 454.22222222222223 495.1111111111111 438.22222222222223 Q 511.1111111111111 422.22222222222223 512 398.22222222222223 L 512 113.77777777777777 L 512 113.77777777777777 Q 511.1111111111111 89.77777777777777 495.1111111111111 73.77777777777777 Q 479.1111111111111 57.77777777777778 455.1111111111111 56.888888888888886 L 56.888888888888886 56.888888888888886 L 56.888888888888886 56.888888888888886 Z M 128 199.11111111111111 Q 128.88888888888889 175.11111111111111 149.33333333333334 161.77777777777777 Q 170.66666666666666 151.11111111111111 192 161.77777777777777 Q 212.44444444444446 175.11111111111111 213.33333333333334 199.11111111111111 Q 212.44444444444446 223.11111111111111 192 236.44444444444446 Q 170.66666666666666 247.11111111111111 149.33333333333334 236.44444444444446 Q 128.88888888888889 223.11111111111111 128 199.11111111111111 L 128 199.11111111111111 Z M 227.55555555555554 199.11111111111111 Q 226.66666666666666 167.11111111111111 199.11111111111111 150.22222222222223 Q 170.66666666666666 134.22222222222223 142.22222222222223 150.22222222222223 Q 114.66666666666667 167.11111111111111 113.77777777777777 199.11111111111111 Q 114.66666666666667 231.11111111111111 142.22222222222223 248 Q 170.66666666666666 264 199.11111111111111 248 Q 226.66666666666666 231.11111111111111 227.55555555555554 199.11111111111111 L 227.55555555555554 199.11111111111111 Z M 85.33333333333333 348.44444444444446 Q 86.22222222222223 327.1111111111111 99.55555555555556 312.8888888888889 L 99.55555555555556 312.8888888888889 L 99.55555555555556 312.8888888888889 Q 113.77777777777777 299.55555555555554 135.11111111111111 298.6666666666667 L 206.22222222222223 298.6666666666667 L 206.22222222222223 298.6666666666667 Q 227.55555555555554 299.55555555555554 241.77777777777777 312.8888888888889 Q 255.11111111111111 327.1111111111111 256 348.44444444444446 Q 256.8888888888889 354.6666666666667 263.1111111111111 355.55555555555554 Q 269.3333333333333 354.6666666666667 270.22222222222223 348.44444444444446 Q 269.3333333333333 320.8888888888889 251.55555555555554 303.1111111111111 Q 233.77777777777777 285.3333333333333 206.22222222222223 284.44444444444446 L 135.11111111111111 284.44444444444446 L 135.11111111111111 284.44444444444446 Q 107.55555555555556 285.3333333333333 89.77777777777777 303.1111111111111 Q 72 320.8888888888889 71.11111111111111 348.44444444444446 Q 72 354.6666666666667 78.22222222222223 355.55555555555554 Q 84.44444444444444 354.6666666666667 85.33333333333333 348.44444444444446 L 85.33333333333333 348.44444444444446 Z M 320 184.88888888888889 Q 313.77777777777777 185.77777777777777 312.8888888888889 192 Q 313.77777777777777 198.22222222222223 320 199.11111111111111 L 448 199.11111111111111 L 448 199.11111111111111 Q 454.22222222222223 198.22222222222223 455.1111111111111 192 Q 454.22222222222223 185.77777777777777 448 184.88888888888889 L 320 184.88888888888889 L 320 184.88888888888889 Z M 320 241.77777777777777 Q 313.77777777777777 242.66666666666666 312.8888888888889 248.88888888888889 Q 313.77777777777777 255.11111111111111 320 256 L 448 256 L 448 256 Q 454.22222222222223 255.11111111111111 455.1111111111111 248.88888888888889 Q 454.22222222222223 242.66666666666666 448 241.77777777777777 L 320 241.77777777777777 L 320 241.77777777777777 Z M 320 298.6666666666667 Q 313.77777777777777 299.55555555555554 312.8888888888889 305.77777777777777 Q 313.77777777777777 312 320 312.8888888888889 L 448 312.8888888888889 L 448 312.8888888888889 Q 454.22222222222223 312 455.1111111111111 305.77777777777777 Q 454.22222222222223 299.55555555555554 448 298.6666666666667 L 320 298.6666666666667 L 320 298.6666666666667 Z" />
</svg>