<svg xmlns="http://www.w3.org/2000/svg" viewBox="0 0 512 512">
  <path d="M 14.222222 142.22223 Q 15.111111 99.55556 43.555557 72 L 43.555557 72 L 43.555557 72 Q 71.111115 43.555557 113.77778 42.666668 Q 145.77777 43.555557 170.66667 60.444443 Q 195.55556 78.22222 207.11111 106.666664 Q 208.88889 111.111115 213.33333 111.111115 Q 217.77777 111.111115 220.44444 106.666664 Q 231.11111 78.22222 256 60.444443 Q 280.8889 43.555557 312.8889 42.666668 Q 355.55554 43.555557 383.1111 72 Q 411.55554 99.55556 412.44446 142.22223 Q 411.55554 184.88889 383.1111 212.44444 Q 355.55554 240.88889 312.8889 241.77777 L 113.77778 241.77777 L 113.77778 241.77777 Q 71.111115 240.88889 43.555557 212.44444 Q 15.111111 184.88889 14.222222 142.22223 L 14.222222 142.22223 Z M 113.77778 28.444445 Q 65.77778 29.333334 32.88889 61.333332 L 32.88889 61.333332 L 32.88889 61.333332 Q 0.8888889 94.22222 0 142.22223 Q 0.8888889 190.22223 32.88889 223.11111 Q 65.77778 255.11111 113.77778 256 L 312.8889 256 L 312.8889 256 Q 360.8889 255.11111 393.77777 223.11111 Q 425.77777 190.22223 426.66666 142.22223 Q 425.77777 94.22222 393.77777 61.333332 Q 360.8889 29.333334 312.8889 28.444445 Q 280 28.444445 254.22223 44.444443 Q 228.44444 60.444443 213.33333 87.111115 Q 198.22223 60.444443 172.44444 44.444443 Q 146.66667 28.444445 113.77778 28.444445 L 113.77778 28.444445 Z M 477.33334 483.55554 Q 491.55554 483.55554 501.33334 472.8889 L 501.33334 472.8889 L 501.33334 472.8889 Q 512 463.1111 512 448.8889 L 512 288 L 512 288 Q 511.1111 272 500.44446 263.1111 Q 488.8889 253.33333 473.77777 255.11111 Q 469.33334 256 465.77777 257.77777 L 398.22223 288 L 398.22223 288 L 398.22223 304 L 398.22223 304 L 471.1111 271.1111 L 471.1111 271.1111 Q 473.77777 269.33334 475.55554 269.33334 Q 484.44446 268.44446 491.55554 273.77777 Q 497.77777 279.1111 497.77777 288 L 497.77777 448.8889 L 497.77777 448.8889 Q 496 467.55554 477.33334 469.33334 Q 472.8889 469.33334 468.44446 467.55554 L 398.22223 436.44446 L 398.22223 436.44446 L 398.22223 451.55554 L 398.22223 451.55554 L 462.22223 480.8889 L 462.22223 480.8889 Q 469.33334 483.55554 477.33334 483.55554 L 477.33334 483.55554 Z M 56.88889 327.1111 L 28.444445 327.1111 L 56.88889 327.1111 L 28.444445 327.1111 Q 15.111111 326.22223 14.222222 312.8889 Q 15.111111 299.55554 28.444445 298.66666 L 56.88889 298.66666 L 312.8889 298.66666 Q 330.66666 299.55554 343.1111 311.1111 Q 354.66666 323.55554 355.55554 341.33334 L 355.55554 426.66666 L 355.55554 426.66666 Q 354.66666 444.44446 343.1111 456.8889 Q 330.66666 468.44446 312.8889 469.33334 L 113.77778 469.33334 L 113.77778 469.33334 Q 96 468.44446 83.55556 456.8889 Q 72 444.44446 71.111115 426.66666 L 71.111115 341.33334 L 71.111115 341.33334 Q 70.22222 328 56.88889 327.1111 L 56.88889 327.1111 Z M 42.666668 341.33334 L 56.88889 341.33334 L 42.666668 341.33334 L 56.88889 341.33334 L 56.88889 355.55554 L 56.88889 355.55554 L 56.88889 426.66666 L 56.88889 426.66666 Q 57.77778 450.66666 73.77778 466.66666 Q 89.77778 482.66666 113.77778 483.55554 L 312.8889 483.55554 L 312.8889 483.55554 Q 336.8889 482.66666 352.8889 466.66666 Q 368.8889 450.66666 369.77777 426.66666 L 369.77777 341.33334 L 369.77777 341.33334 Q 368.8889 317.33334 352.8889 301.33334 Q 336.8889 285.33334 312.8889 284.44446 L 113.77778 284.44446 L 28.444445 284.44446 Q 16 284.44446 8 292.44446 Q 0 300.44446 0 312.8889 Q 0 325.33334 8 333.33334 Q 16 341.33334 28.444445 341.33334 L 42.666668 341.33334 L 42.666668 341.33334 Z M 113.77778 99.55556 Q 137.77777 100.44444 151.11111 120.888885 Q 161.77777 142.22223 151.11111 163.55556 Q 137.77777 184 113.77778 184.88889 Q 89.77778 184 76.44444 163.55556 Q 65.77778 142.22223 76.44444 120.888885 Q 89.77778 100.44444 113.77778 99.55556 L 113.77778 99.55556 Z M 113.77778 199.11111 Q 145.77777 198.22223 162.66667 170.66667 Q 178.66667 142.22223 162.66667 113.77778 Q 145.77777 86.22222 113.77778 85.333336 Q 81.77778 86.22222 64.888885 113.77778 Q 48.88889 142.22223 64.888885 170.66667 Q 81.77778 198.22223 113.77778 199.11111 L 113.77778 199.11111 Z M 270.22223 142.22223 Q 271.1111 118.22222 291.55554 104.888885 Q 312.8889 94.22222 334.22223 104.888885 Q 354.66666 118.22222 355.55554 142.22223 Q 354.66666 166.22223 334.22223 179.55556 Q 312.8889 190.22223 291.55554 179.55556 Q 271.1111 166.22223 270.22223 142.22223 L 270.22223 142.22223 Z M 369.77777 142.22223 Q 368.8889 110.22222 341.33334 93.333336 Q 312.8889 77.333336 284.44446 93.333336 Q 256.8889 110.22222 256 142.22223 Q 256.8889 174.22223 284.44446 191.11111 Q 312.8889 207.11111 341.33334 191.11111 Q 368.8889 174.22223 369.77777 142.22223 L 369.77777 142.22223 Z" />
</svg>