<svg xmlns="http://www.w3.org/2000/svg" viewBox="0 0 482 517">
    <path d="M 222 25 Q 241 17 260 25 L 437 100 Q 463 112 465 142 Q 466 192 448 258 Q 431 324 386 387 Q 342 450 261 491 Q 241 500 222 491 Q 140 450 96 387 Q 51 324 34 258 Q 16 192 17 142 Q 19 112 46 99 L 222 24 L 222 25 Z M 266 10 Q 241 0 216 10 L 39 85 Q 22 92 12 107 Q 1 122 1 142 Q 0 193 18 262 Q 36 331 83 396 Q 129 462 215 505 Q 241 517 267 505 Q 353 462 399 396 Q 446 331 464 262 Q 482 193 481 142 Q 481 122 470 107 Q 460 92 443 85 L 266 10 L 266 10 Z M 241 178 Q 255 178 264 187 L 264 187 Q 273 196 273 210 Q 273 224 264 233 Q 255 242 241 242 Q 227 242 218 233 Q 209 224 209 210 Q 209 196 218 187 Q 227 178 241 178 L 241 178 Z M 289 210 Q 288 190 275 176 L 275 176 Q 261 163 241 162 Q 221 163 207 176 Q 194 190 193 210 Q 193 228 204 241 Q 216 254 233 257 L 233 330 Q 234 337 241 338 Q 248 337 249 330 L 249 257 Q 266 254 278 241 Q 289 228 289 210 L 289 210 Z"/>
</svg>
