<svg xmlns="http://www.w3.org/2000/svg" viewBox="0 0 512 512">
  <path d="M 11.925465838509316 54.06211180124224 Q 7.15527950310559 50.88198757763975 3.1801242236024843 54.857142857142854 Q 0 59.62732919254658 3.9751552795031055 63.60248447204969 L 500.0745341614907 457.9378881987578 L 500.0745341614907 457.9378881987578 Q 504.8447204968944 461.11801242236027 508.8198757763975 457.14285714285717 Q 512 452.3726708074534 508.0248447204969 448.3975155279503 L 11.925465838509316 54.06211180124224 L 11.925465838509316 54.06211180124224 Z M 372.8695652173913 421.3664596273292 L 77.91304347826087 421.3664596273292 L 372.8695652173913 421.3664596273292 L 77.91304347826087 421.3664596273292 Q 62.01242236024845 420.57142857142856 50.88198757763975 410.2360248447205 Q 40.546583850931675 399.1055900621118 39.75155279503105 383.2049689440994 L 39.75155279503105 158.2111801242236 L 39.75155279503105 158.2111801242236 L 27.03105590062112 147.87577639751552 L 27.03105590062112 147.87577639751552 L 27.03105590062112 383.2049689440994 L 27.03105590062112 383.2049689440994 Q 27.82608695652174 404.67080745341616 42.13664596273292 418.98136645962734 Q 56.4472049689441 433.2919254658385 77.91304347826087 434.0869565217391 L 389.5652173913044 434.0869565217391 L 389.5652173913044 434.0869565217391 L 372.8695652173913 421.3664596273292 L 372.8695652173913 421.3664596273292 Z M 434.0869565217391 77.91304347826087 L 123.22981366459628 77.91304347826087 L 434.0869565217391 77.91304347826087 L 123.22981366459628 77.91304347826087 L 139.1304347826087 90.63354037267081 L 139.1304347826087 90.63354037267081 L 434.0869565217391 90.63354037267081 L 434.0869565217391 90.63354037267081 Q 449.9875776397516 91.42857142857143 461.11801242236027 101.7639751552795 Q 471.45341614906835 112.8944099378882 472.24844720496895 128.7950310559006 L 472.24844720496895 353.7888198757764 L 472.24844720496895 353.7888198757764 L 484.96894409937886 364.12422360248445 L 484.96894409937886 364.12422360248445 L 484.96894409937886 128.7950310559006 L 484.96894409937886 128.7950310559006 Q 484.17391304347825 107.32919254658385 469.8633540372671 93.01863354037268 Q 455.5527950310559 78.7080745341615 434.0869565217391 77.91304347826087 L 434.0869565217391 77.91304347826087 Z M 364.9192546583851 268.72049689440996 L 380.8198757763975 281.44099378881987 L 364.9192546583851 268.72049689440996 L 380.8198757763975 281.44099378881987 L 395.9254658385093 281.44099378881987 L 395.9254658385093 281.44099378881987 Q 401.49068322981367 280.64596273291926 402.2857142857143 275.0807453416149 Q 401.49068322981367 269.51552795031057 395.9254658385093 268.72049689440996 L 364.9192546583851 268.72049689440996 L 364.9192546583851 268.72049689440996 Z M 116.07453416149069 268.72049689440996 Q 110.50931677018633 269.51552795031057 109.71428571428571 275.0807453416149 Q 110.50931677018633 280.64596273291926 116.07453416149069 281.44099378881987 L 195.5776397515528 281.44099378881987 L 195.5776397515528 281.44099378881987 L 179.67701863354037 268.72049689440996 L 179.67701863354037 268.72049689440996 L 116.07453416149069 268.72049689440996 L 116.07453416149069 268.72049689440996 Z M 243.27950310559007 345.04347826086956 Q 237.71428571428572 345.83850931677017 236.91925465838509 351.40372670807454 Q 237.71428571428572 356.96894409937886 243.27950310559007 357.7639751552795 L 292.57142857142856 357.7639751552795 L 292.57142857142856 357.7639751552795 L 276.67080745341616 345.04347826086956 L 276.67080745341616 345.04347826086956 L 243.27950310559007 345.04347826086956 L 243.27950310559007 345.04347826086956 Z M 116.07453416149069 345.04347826086956 Q 110.50931677018633 345.83850931677017 109.71428571428571 351.40372670807454 Q 110.50931677018633 356.96894409937886 116.07453416149069 357.7639751552795 L 192.3975155279503 357.7639751552795 L 192.3975155279503 357.7639751552795 Q 197.96273291925465 356.96894409937886 198.75776397515529 351.40372670807454 Q 197.96273291925465 345.83850931677017 192.3975155279503 345.04347826086956 L 116.07453416149069 345.04347826086956 L 116.07453416149069 345.04347826086956 Z" />
</svg>