<svg xmlns="http://www.w3.org/2000/svg" viewBox="0 0 512 512">
  <path d="M 256 16 Q 321 17 376 48 L 376 48 L 376 48 Q 431 80 464 136 Q 496 193 496 256 Q 496 319 464 376 Q 431 432 376 464 Q 321 495 256 496 Q 191 495 136 464 Q 81 432 48 376 Q 16 319 16 256 Q 16 193 48 136 Q 81 80 136 48 Q 191 17 256 16 L 256 16 Z M 256 512 Q 326 511 384 478 L 384 478 L 384 478 Q 442 444 478 384 Q 512 323 512 256 Q 512 189 478 128 Q 442 68 384 34 Q 326 1 256 0 Q 186 1 128 34 Q 70 68 34 128 Q 0 189 0 256 Q 0 323 34 384 Q 70 444 128 478 Q 186 511 256 512 L 256 512 Z M 196 161 Q 200 159 204 161 L 348 249 L 348 249 Q 352 252 352 256 Q 352 260 348 263 L 204 351 L 204 351 Q 200 353 196 351 Q 192 349 192 344 L 192 168 L 192 168 Q 192 163 196 161 L 196 161 Z M 213 148 Q 201 141 188 147 Q 176 154 176 168 L 176 344 L 176 344 Q 176 358 188 365 Q 200 371 213 364 L 357 276 L 357 276 Q 368 269 368 256 Q 368 243 357 235 L 213 147 L 213 148 Z" />
</svg>