<svg xmlns="http://www.w3.org/2000/svg" viewBox="0 0 512 512">
  <path d="M 476.44444444444446 71.11111111111111 Q 496 72.88888888888889 497.77777777777777 92.44444444444444 L 497.77777777777777 106.66666666666667 L 497.77777777777777 106.66666666666667 Q 496 126.22222222222223 476.44444444444446 128 L 469.3333333333333 128 L 35.55555555555556 128 Q 16 126.22222222222223 14.222222222222221 106.66666666666667 L 14.222222222222221 92.44444444444444 L 14.222222222222221 92.44444444444444 Q 16 72.88888888888889 35.55555555555556 71.11111111111111 L 476.44444444444446 71.11111111111111 L 476.44444444444446 71.11111111111111 Z M 0 106.66666666666667 Q 0 120 8.88888888888889 129.77777777777777 L 8.88888888888889 129.77777777777777 L 8.88888888888889 129.77777777777777 Q 16.88888888888889 139.55555555555554 29.333333333333332 141.33333333333334 L 29.333333333333332 142.22222222222223 L 29.333333333333332 142.22222222222223 L 52.44444444444444 403.55555555555554 L 52.44444444444444 403.55555555555554 Q 55.111111111111114 425.77777777777777 70.22222222222223 440 Q 86.22222222222223 454.22222222222223 109.33333333333333 455.1111111111111 L 402.6666666666667 455.1111111111111 L 402.6666666666667 455.1111111111111 Q 425.77777777777777 454.22222222222223 441.77777777777777 440 Q 456.8888888888889 425.77777777777777 459.55555555555554 403.55555555555554 L 482.6666666666667 142.22222222222223 L 482.6666666666667 142.22222222222223 L 482.6666666666667 141.33333333333334 L 482.6666666666667 141.33333333333334 Q 495.1111111111111 139.55555555555554 503.1111111111111 129.77777777777777 Q 512 120 512 106.66666666666667 L 512 92.44444444444444 L 512 92.44444444444444 Q 512 77.33333333333333 501.3333333333333 67.55555555555556 Q 491.55555555555554 56.888888888888886 476.44444444444446 56.888888888888886 L 35.55555555555556 56.888888888888886 L 35.55555555555556 56.888888888888886 Q 20.444444444444443 56.888888888888886 10.666666666666666 67.55555555555556 Q 0 77.33333333333333 0 92.44444444444444 L 0 106.66666666666667 L 0 106.66666666666667 Z M 66.66666666666667 401.77777777777777 L 44.44444444444444 142.22222222222223 L 66.66666666666667 401.77777777777777 L 44.44444444444444 142.22222222222223 L 468.44444444444446 142.22222222222223 L 468.44444444444446 142.22222222222223 L 445.3333333333333 401.77777777777777 L 445.3333333333333 401.77777777777777 Q 443.55555555555554 418.6666666666667 432 429.3333333333333 Q 419.55555555555554 440.8888888888889 402.6666666666667 440.8888888888889 L 109.33333333333333 440.8888888888889 L 109.33333333333333 440.8888888888889 Q 92.44444444444444 440.8888888888889 80 429.3333333333333 Q 68.44444444444444 418.6666666666667 66.66666666666667 401.77777777777777 L 66.66666666666667 401.77777777777777 Z M 256 199.11111111111111 Q 266.6666666666667 199.11111111111111 272.8888888888889 208 L 304.8888888888889 250.66666666666666 L 304.8888888888889 250.66666666666666 Q 308.44444444444446 255.11111111111111 314.6666666666667 252.44444444444446 Q 320 248 316.44444444444446 242.66666666666666 L 284.44444444444446 199.11111111111111 L 284.44444444444446 199.11111111111111 Q 273.77777777777777 184.88888888888889 256 184.88888888888889 Q 238.22222222222223 184.88888888888889 227.55555555555554 199.11111111111111 L 195.55555555555554 242.66666666666666 L 195.55555555555554 242.66666666666666 Q 192 248 198.22222222222223 252.44444444444446 Q 203.55555555555554 255.11111111111111 207.11111111111111 250.66666666666666 L 239.11111111111111 208 L 239.11111111111111 208 Q 245.33333333333334 199.11111111111111 256 199.11111111111111 L 256 199.11111111111111 Z M 179.55555555555554 274.6666666666667 Q 174.22222222222223 272 170.66666666666666 276.44444444444446 L 141.33333333333334 315.55555555555554 L 141.33333333333334 315.55555555555554 Q 135.11111111111111 324.44444444444446 135.11111111111111 336 Q 135.11111111111111 350.22222222222223 144.88888888888889 360 Q 154.66666666666666 369.77777777777777 168.88888888888889 369.77777777777777 L 234.66666666666666 369.77777777777777 L 234.66666666666666 369.77777777777777 Q 240.88888888888889 368.8888888888889 241.77777777777777 362.6666666666667 Q 240.88888888888889 356.44444444444446 234.66666666666666 355.55555555555554 L 168.88888888888889 355.55555555555554 L 168.88888888888889 355.55555555555554 Q 151.11111111111111 353.77777777777777 149.33333333333334 336 Q 149.33333333333334 329.77777777777777 152.88888888888889 324.44444444444446 L 182.22222222222223 285.3333333333333 L 182.22222222222223 285.3333333333333 Q 185.77777777777777 279.1111111111111 179.55555555555554 274.6666666666667 L 179.55555555555554 274.6666666666667 Z M 270.22222222222223 362.6666666666667 Q 271.1111111111111 368.8888888888889 277.3333333333333 369.77777777777777 L 343.1111111111111 369.77777777777777 L 343.1111111111111 369.77777777777777 Q 357.3333333333333 369.77777777777777 367.1111111111111 360 Q 376.8888888888889 350.22222222222223 376.8888888888889 336 Q 376.8888888888889 324.44444444444446 370.6666666666667 315.55555555555554 L 341.3333333333333 276.44444444444446 L 341.3333333333333 276.44444444444446 Q 337.77777777777777 272 332.44444444444446 274.6666666666667 Q 326.22222222222223 279.1111111111111 329.77777777777777 285.3333333333333 L 359.1111111111111 324.44444444444446 L 359.1111111111111 324.44444444444446 Q 362.6666666666667 329.77777777777777 362.6666666666667 336 Q 360.8888888888889 353.77777777777777 343.1111111111111 355.55555555555554 L 277.3333333333333 355.55555555555554 L 277.3333333333333 355.55555555555554 Q 271.1111111111111 356.44444444444446 270.22222222222223 362.6666666666667 L 270.22222222222223 362.6666666666667 Z" />
</svg>