<svg xmlns="http://www.w3.org/2000/svg" viewBox="0 0 640 512">
    <path d="M 400 16 Q 414 16 423 25 L 423 25 Q 432 34 432 48 L 432 144 Q 432 158 423 167 Q 414 176 400 176 L 240 176 Q 226 176 217 167 Q 208 158 208 144 L 208 48 Q 208 34 217 25 Q 226 16 240 16 L 400 16 L 400 16 Z M 240 0 Q 220 1 206 14 L 206 14 Q 193 28 192 48 L 192 144 Q 193 164 206 178 Q 220 191 240 192 L 312 192 L 312 248 L 8 248 Q 1 249 0 256 Q 1 263 8 264 L 152 264 L 152 320 L 80 320 Q 60 321 46 334 Q 33 348 32 368 L 32 464 Q 33 484 46 498 Q 60 511 80 512 L 240 512 Q 260 511 274 498 Q 287 484 288 464 L 288 368 Q 287 348 274 334 Q 260 321 240 320 L 168 320 L 168 264 L 472 264 L 472 320 L 400 320 Q 380 321 366 334 Q 353 348 352 368 L 352 464 Q 353 484 366 498 Q 380 511 400 512 L 560 512 Q 580 511 594 498 Q 607 484 608 464 L 608 368 Q 607 348 594 334 Q 580 321 560 320 L 488 320 L 488 264 L 632 264 Q 639 263 640 256 Q 639 249 632 248 L 328 248 L 328 192 L 400 192 Q 420 191 434 178 Q 447 164 448 144 L 448 48 Q 447 28 434 14 Q 420 1 400 0 L 240 0 L 240 0 Z M 80 336 L 240 336 Q 254 336 263 345 Q 272 354 272 368 L 272 464 Q 272 478 263 487 Q 254 496 240 496 L 80 496 Q 66 496 57 487 Q 48 478 48 464 L 48 368 Q 48 354 57 345 Q 66 336 80 336 L 80 336 Z M 560 336 Q 574 336 583 345 L 583 345 Q 592 354 592 368 L 592 464 Q 592 478 583 487 Q 574 496 560 496 L 400 496 Q 386 496 377 487 Q 368 478 368 464 L 368 368 Q 368 354 377 345 Q 386 336 400 336 L 560 336 L 560 336 Z"/>
</svg>
