<svg xmlns="http://www.w3.org/2000/svg" viewBox="0 0 576 512">
    <path d="M 291 16 Q 290 16 290 17 L 254 99 Q 245 100 235 102 L 276 10 Q 280 0 291 0 L 293 0 Q 296 0 299 1 L 342 19 Q 352 24 352 35 L 352 105 Q 344 103 336 101 L 336 35 Q 336 35 335 34 L 293 16 Q 293 16 293 16 L 291 16 L 291 16 Z M 188 120 Q 179 125 169 130 Q 159 128 148 128 Q 93 130 55 181 Q 18 233 16 312 Q 18 391 56 443 Q 93 494 148 496 Q 184 496 213 472 Q 218 469 223 472 Q 252 496 288 496 Q 323 496 353 472 Q 358 469 363 472 Q 392 496 428 496 Q 483 494 520 443 Q 558 391 560 312 Q 558 233 520 181 Q 483 129 428 128 Q 417 128 407 130 Q 397 124 388 119 Q 407 112 428 112 Q 492 115 533 172 Q 575 228 576 312 Q 575 396 534 453 Q 492 509 428 512 Q 389 511 358 488 Q 327 511 288 512 Q 249 511 218 488 Q 187 511 148 512 Q 84 509 43 453 Q 1 396 0 312 Q 1 228 43 172 Q 84 115 148 112 Q 169 112 188 120 L 188 120 Z M 158 205 Q 153 210 147 206 Q 142 201 146 195 Q 169 164 206 146 Q 243 128 288 128 Q 333 128 370 146 Q 407 164 430 195 Q 434 201 429 206 Q 423 210 418 205 Q 396 177 363 161 Q 329 144 288 144 Q 247 144 213 161 Q 180 177 158 205 L 158 205 Z M 448 327 Q 430 338 392 352 L 392 352 Q 353 365 296 368 L 296 376 Q 294 398 272 400 L 256 400 Q 234 398 232 376 L 232 363 Q 194 357 168 346 Q 141 335 128 327 Q 121 323 116 328 Q 113 331 114 334 Q 116 344 126 361 Q 135 377 156 395 Q 163 385 176 384 L 192 384 Q 214 386 216 408 L 216 423 Q 246 432 288 432 Q 330 432 360 423 L 360 408 Q 362 386 384 384 L 400 384 Q 413 384 420 395 Q 441 377 451 361 Q 460 344 463 334 Q 463 331 461 328 Q 455 323 448 327 L 448 327 Z M 472 317 Q 481 325 478 338 Q 475 351 462 372 Q 449 394 420 414 Q 417 417 412 415 Q 408 412 408 408 Q 407 401 400 400 L 384 400 Q 377 401 376 408 L 376 430 Q 376 435 370 437 Q 337 448 288 448 Q 239 448 206 437 Q 200 435 200 430 L 200 408 Q 199 401 192 400 L 176 400 Q 169 401 168 408 Q 168 412 164 415 Q 160 416 156 414 Q 127 394 114 372 Q 101 351 98 338 Q 95 325 104 316 Q 119 304 136 313 Q 149 321 176 332 Q 203 342 241 349 Q 247 350 248 356 L 248 376 Q 249 383 256 384 L 272 384 Q 279 383 280 376 L 280 360 Q 281 353 288 352 Q 345 351 384 337 Q 423 324 440 313 Q 457 304 472 317 L 472 317 Z M 240 272 L 208 224 L 176 272 L 240 272 L 240 272 Z M 221 215 L 253 263 Q 258 271 254 280 Q 249 288 240 288 L 176 288 Q 167 288 162 280 Q 158 271 163 263 L 195 215 Q 200 208 208 208 Q 216 208 221 215 L 221 215 Z M 368 224 L 336 272 L 400 272 L 368 224 L 368 224 Z M 368 208 Q 376 208 381 215 L 413 263 Q 418 271 414 280 Q 409 288 400 288 L 336 288 Q 327 288 322 280 Q 318 271 323 263 L 355 215 Q 360 208 368 208 L 368 208 Z"/>
</svg>
