<svg xmlns="http://www.w3.org/2000/svg" viewBox="0 0 494 512">
    <path d="M 203 29 Q 206 17 218 16 L 276 16 Q 288 17 291 29 L 304 86 Q 305 90 309 91 Q 336 102 358 120 Q 362 122 366 121 L 422 104 Q 434 101 440 111 L 469 161 Q 475 172 466 181 L 423 221 Q 420 224 421 228 Q 423 242 423 256 Q 423 271 421 285 Q 420 289 423 292 L 466 332 Q 475 340 469 351 L 440 401 Q 434 411 422 408 L 366 391 Q 362 390 358 392 Q 336 410 309 421 Q 305 422 304 426 L 291 484 Q 288 495 276 496 L 218 496 Q 206 495 203 484 L 190 426 Q 189 422 185 421 Q 158 410 136 392 Q 132 390 128 391 L 72 408 Q 60 411 54 401 L 25 351 Q 19 340 28 331 L 71 291 Q 74 288 73 284 Q 71 271 71 256 Q 71 241 73 228 Q 74 223 71 220 L 28 181 Q 19 172 25 161 L 54 111 Q 60 101 72 104 L 128 121 Q 132 122 136 120 Q 158 102 185 91 Q 189 90 190 86 L 203 29 L 203 29 Z M 218 0 Q 194 2 187 25 L 175 78 Q 150 88 129 105 L 77 89 Q 53 83 40 103 L 11 153 Q 0 175 17 193 L 57 229 Q 55 242 55 256 Q 55 270 57 283 L 17 320 Q 0 337 11 359 L 40 409 Q 53 429 77 424 L 129 407 Q 150 424 175 434 L 187 487 Q 194 511 218 512 L 276 512 Q 300 511 307 487 L 319 434 Q 344 424 365 407 L 417 424 Q 441 429 454 409 L 483 359 Q 494 337 477 320 L 437 283 Q 439 270 439 256 Q 439 242 437 229 L 477 193 Q 494 175 483 153 L 454 103 Q 441 83 417 88 L 365 105 Q 344 88 319 78 L 307 25 Q 300 2 276 0 L 218 0 L 218 0 Z M 271 161 Q 271 154 264 152 Q 257 152 255 159 L 223 351 Q 223 358 230 360 Q 237 360 239 353 L 271 161 L 271 161 Z M 173 222 Q 177 216 173 210 Q 167 206 161 210 L 121 250 Q 117 256 121 262 L 161 302 Q 167 306 173 302 Q 177 296 173 290 L 138 256 L 173 222 L 173 222 Z M 333 210 Q 327 206 321 210 Q 317 216 321 222 L 356 256 L 321 290 Q 317 296 321 302 Q 327 306 333 302 L 373 262 Q 377 256 373 250 L 333 210 L 333 210 Z"/>
</svg>
