<svg xmlns="http://www.w3.org/2000/svg" viewBox="0 0 416 512">
    <path d="M 256 16 Q 271 17 272 32 Q 271 47 256 48 L 128 48 Q 113 47 112 32 Q 113 17 128 16 L 256 16 L 256 16 Z M 96 32 Q 97 51 112 60 L 112 64 L 112 85 Q 112 96 105 105 L 27 205 Q 0 240 0 284 L 0 448 Q 1 475 19 493 Q 37 511 64 512 L 320 512 Q 347 511 365 493 Q 383 475 384 448 L 384 284 Q 384 251 368 222 Q 389 216 402 200 Q 416 183 416 160 Q 415 133 397 115 Q 379 97 352 96 Q 315 98 297 128 L 279 105 Q 272 96 272 85 L 272 64 L 272 60 Q 287 51 288 32 Q 288 18 279 9 Q 270 0 256 0 L 128 0 Q 114 0 105 9 Q 96 18 96 32 L 96 32 Z M 128 64 L 256 64 L 256 85 Q 256 101 266 115 L 344 215 Q 368 246 368 284 L 368 448 Q 367 468 354 482 Q 340 495 320 496 L 64 496 Q 44 495 30 482 Q 17 468 16 448 L 16 284 Q 16 246 40 215 L 118 114 Q 128 101 128 85 L 128 64 L 128 64 Z M 359 208 Q 358 206 357 205 L 308 142 Q 320 114 352 112 Q 372 112 386 126 Q 399 140 400 160 Q 400 178 388 192 Q 377 205 359 207 L 359 208 Z M 96 304 L 288 304 Q 303 305 304 320 L 304 384 Q 303 399 288 400 L 96 400 Q 81 399 80 384 L 80 320 Q 81 305 96 304 L 96 304 Z M 64 320 L 64 384 Q 64 398 73 407 Q 82 416 96 416 L 288 416 Q 302 416 311 407 Q 320 398 320 384 L 320 320 Q 320 306 311 297 Q 302 288 288 288 L 96 288 Q 82 288 73 297 Q 64 306 64 320 L 64 320 Z"/>
</svg>
