<svg xmlns="http://www.w3.org/2000/svg" viewBox="0 0 512 512">
  <path d="M 259 8 Q 256 12 256 18 L 256 240 L 256 240 Q 257 255 272 256 L 494 256 L 494 256 Q 510 255 512 239 Q 511 172 479 118 Q 448 64 394 33 Q 340 1 273 0 Q 264 0 259 8 L 259 8 Z M 494 240 L 272 240 L 494 240 L 272 240 L 272 18 L 272 18 Q 272 17 273 16 Q 273 16 273 16 Q 273 16 273 16 Q 273 16 273 16 Q 335 17 386 46 Q 436 76 466 126 Q 495 177 496 239 Q 496 239 496 239 Q 496 239 496 239 Q 496 239 496 239 Q 496 239 496 240 Q 495 240 494 240 L 494 240 Z M 208 288 Q 209 303 224 304 L 445 304 L 445 304 Q 461 306 459 319 Q 442 396 382 445 Q 322 494 240 496 Q 177 495 127 465 Q 76 436 47 385 Q 17 335 16 272 Q 18 190 67 130 Q 116 70 194 53 Q 206 51 208 67 L 208 288 L 208 288 Z M 224 67 Q 224 52 214 44 L 214 44 L 214 44 Q 204 35 190 37 Q 107 56 54 120 Q 2 184 0 272 Q 1 339 33 393 Q 65 447 119 479 Q 173 511 240 512 Q 328 510 392 458 Q 456 405 475 322 Q 477 308 468 298 Q 460 288 445 288 L 240 288 L 224 288 L 224 272 L 224 272 L 224 67 L 224 67 Z" />
</svg>