<svg xmlns="http://www.w3.org/2000/svg" viewBox="0 0 512 512">
  <path d="M 56.88889 99.55556 Q 39.11111 100.44444 26.666666 112 L 26.666666 112 L 26.666666 112 Q 15.111111 124.44444 14.222222 142.22223 L 14.222222 369.77777 L 14.222222 369.77777 Q 15.111111 387.55554 26.666666 400 Q 39.11111 411.55554 56.88889 412.44446 L 455.1111 412.44446 L 455.1111 412.44446 Q 472.8889 411.55554 485.33334 400 Q 496.8889 387.55554 497.77777 369.77777 L 497.77777 142.22223 L 497.77777 142.22223 Q 496.8889 124.44444 485.33334 112 Q 472.8889 100.44444 455.1111 99.55556 L 56.88889 99.55556 L 56.88889 99.55556 Z M 0 142.22223 Q 0.8888889 118.22222 16.88889 102.22222 L 16.88889 102.22222 L 16.88889 102.22222 Q 32.88889 86.22222 56.88889 85.333336 L 455.1111 85.333336 L 455.1111 85.333336 Q 479.1111 86.22222 495.1111 102.22222 Q 511.1111 118.22222 512 142.22223 L 512 369.77777 L 512 369.77777 Q 511.1111 393.77777 495.1111 409.77777 Q 479.1111 425.77777 455.1111 426.66666 L 56.88889 426.66666 L 56.88889 426.66666 Q 32.88889 425.77777 16.88889 409.77777 Q 0.8888889 393.77777 0 369.77777 L 0 142.22223 L 0 142.22223 Z M 234.66667 298.66666 L 419.55554 298.66666 L 234.66667 298.66666 L 419.55554 298.66666 Q 425.77777 299.55554 426.66666 305.77777 Q 425.77777 312 419.55554 312.8889 L 234.66667 312.8889 L 234.66667 312.8889 Q 228.44444 312 227.55556 305.77777 Q 228.44444 299.55554 234.66667 298.66666 L 234.66667 298.66666 Z M 227.55556 220.44444 Q 228.44444 214.22223 234.66667 213.33333 L 419.55554 213.33333 L 419.55554 213.33333 Q 425.77777 214.22223 426.66666 220.44444 Q 425.77777 226.66667 419.55554 227.55556 L 234.66667 227.55556 L 234.66667 227.55556 Q 228.44444 226.66667 227.55556 220.44444 L 227.55556 220.44444 Z M 135.11111 170.66667 L 135.11111 185.77777 L 135.11111 170.66667 L 135.11111 185.77777 Q 137.77777 185.77777 140.44444 185.77777 Q 144 186.66667 151.11111 188.44444 Q 158.22223 189.33333 161.77777 190.22223 Q 168 192.88889 167.11111 199.11111 Q 164.44444 205.33333 158.22223 204.44444 Q 154.66667 203.55556 148.44444 201.77777 Q 141.33333 200.88889 137.77777 200 Q 118.22222 197.33333 106.666664 203.55556 Q 94.22222 208.88889 93.333336 218.66667 Q 91.55556 225.77777 94.22222 229.33333 Q 96 232.88889 100.44444 236.44444 Q 112 243.55556 129.77777 248 L 129.77777 248 L 129.77777 248 L 130.66667 248 L 130.66667 248 Q 148.44444 252.44444 163.55556 262.22223 Q 171.55556 267.55554 175.11111 275.55554 Q 179.55556 284.44446 176.88889 296 Q 173.33333 315.55554 155.55556 322.66666 Q 145.77777 326.22223 135.11111 327.1111 L 135.11111 341.33334 L 135.11111 341.33334 Q 134.22223 347.55554 128 348.44446 Q 121.77778 347.55554 120.888885 341.33334 L 120.888885 326.22223 L 120.888885 326.22223 Q 118.22222 326.22223 116.44444 326.22223 L 116.44444 326.22223 L 116.44444 326.22223 Q 103.111115 322.66666 88 318.22223 Q 88 317.33334 88 317.33334 L 88 317.33334 L 88 317.33334 L 88 317.33334 L 88 317.33334 Q 86.22222 317.33334 84.44444 316.44446 Q 83.55556 316.44446 83.55556 316.44446 Q 77.333336 313.77777 79.111115 306.66666 Q 80.888885 301.33334 88 302.22223 Q 88.888885 303.1111 89.77778 303.1111 Q 91.55556 304 92.44444 304 L 92.44444 304 L 92.44444 304 L 92.44444 304 L 92.44444 304 L 92.44444 304 L 92.44444 304 Q 93.333336 304.8889 95.111115 304.8889 Q 108.44444 309.33334 118.22222 312 Q 137.77777 314.66666 150.22223 309.33334 Q 160.88889 304.8889 163.55556 293.33334 Q 164.44444 286.22223 162.66667 281.77777 Q 160 277.33334 155.55556 273.77777 Q 144.88889 266.66666 126.22222 261.33334 L 124.44444 261.33334 L 124.44444 261.33334 Q 124.44444 261.33334 124.44444 261.33334 Q 106.666664 256.8889 92.44444 248 Q 85.333336 243.55556 80.888885 234.66667 Q 77.333336 226.66667 79.111115 216 Q 82.666664 197.33333 100.44444 190.22223 Q 109.333336 185.77777 120.888885 184.88889 L 120.888885 170.66667 L 120.888885 170.66667 Q 121.77778 164.44444 128 163.55556 Q 134.22223 164.44444 135.11111 170.66667 L 135.11111 170.66667 Z" />
</svg>