<svg xmlns="http://www.w3.org/2000/svg" viewBox="0 0 644 513">
    <path d="M 326 2 Q 322 0 318 2 L 6 210 Q 0 215 3 221 Q 8 227 14 224 L 322 19 L 630 224 Q 636 227 641 221 Q 644 215 638 210 L 326 2 L 326 2 Z M 498 273 Q 520 275 522 297 Q 520 319 498 321 Q 476 319 474 297 Q 476 275 498 273 L 498 273 Z M 498 337 Q 521 336 533 317 Q 543 297 533 277 Q 521 258 498 257 Q 475 258 463 277 Q 453 297 463 317 Q 475 336 498 337 L 498 337 Z M 493 369 L 506 369 Q 530 369 551 382 Q 572 394 583 416 L 611 468 Q 615 477 607 482 Q 599 486 593 478 L 554 413 Q 551 408 545 409 Q 539 411 539 417 L 539 481 Q 538 496 523 497 L 475 497 Q 461 496 459 481 L 459 417 Q 459 411 453 409 Q 448 408 444 413 L 405 478 Q 400 485 391 482 Q 383 477 387 468 L 415 415 Q 427 394 447 381 Q 468 369 493 369 L 493 369 Z M 401 408 L 373 461 Q 368 471 371 481 Q 374 491 385 497 Q 406 505 419 487 L 443 446 L 443 481 Q 444 495 453 504 Q 462 513 475 513 L 523 513 Q 537 513 546 504 Q 555 495 555 481 L 555 446 L 580 487 Q 593 505 614 497 Q 624 491 627 481 Q 631 471 625 461 L 597 408 Q 583 382 559 368 Q 535 353 506 353 L 493 353 Q 464 353 439 368 Q 415 382 401 408 L 401 408 Z M 122 297 Q 124 275 146 273 Q 168 275 170 297 Q 168 319 146 321 Q 124 319 122 297 L 122 297 Z M 186 297 Q 185 274 166 262 Q 146 252 126 262 Q 107 274 106 297 Q 107 320 126 332 Q 146 342 166 332 Q 185 320 186 297 L 186 297 Z M 63 416 Q 75 394 96 382 L 96 382 Q 116 369 141 369 L 154 369 Q 178 369 199 382 Q 220 394 231 416 L 259 468 Q 263 477 255 482 Q 247 486 241 478 L 202 413 Q 199 408 193 409 Q 187 411 187 417 L 187 481 Q 186 496 171 497 L 123 497 Q 108 496 107 481 L 107 417 Q 107 411 101 409 Q 96 408 92 413 L 53 478 Q 48 485 40 482 Q 32 477 35 468 L 63 415 L 63 416 Z M 141 353 Q 112 353 87 368 L 87 368 Q 63 382 49 408 L 21 461 Q 16 471 19 481 Q 22 491 33 497 Q 54 505 67 487 L 91 446 L 91 481 Q 92 495 101 504 Q 110 513 123 513 L 171 513 Q 185 513 194 504 Q 203 495 203 481 L 203 446 L 228 487 Q 241 505 262 497 Q 272 491 275 481 Q 279 471 273 461 L 245 408 Q 231 382 207 368 Q 183 353 154 353 L 141 353 L 141 353 Z M 322 161 Q 344 163 346 185 Q 344 207 322 209 Q 300 207 298 185 Q 300 163 322 161 L 322 161 Z M 322 225 Q 345 224 357 205 Q 367 185 357 165 Q 345 146 322 145 Q 299 146 287 165 Q 277 185 287 205 Q 299 224 322 225 L 322 225 Z M 317 257 L 330 257 Q 354 257 375 270 Q 396 282 407 304 L 407 304 L 407 304 L 427 340 Q 431 346 438 344 Q 444 339 441 333 L 421 296 Q 407 270 383 256 Q 359 241 330 241 L 317 241 Q 288 241 263 256 Q 239 270 225 296 L 205 333 Q 202 339 208 344 Q 215 346 219 340 L 239 304 L 239 304 L 239 304 Q 251 282 272 270 Q 292 257 317 257 L 317 257 Z M 278 297 Q 272 296 269 301 L 237 350 Q 234 357 240 361 Q 246 365 251 359 L 267 333 L 267 393 Q 268 400 275 401 Q 283 400 283 393 L 283 305 Q 283 299 277 297 L 278 297 Z M 369 297 Q 364 299 363 305 L 363 393 Q 364 400 371 401 Q 378 400 379 393 L 379 333 L 396 359 Q 400 364 407 361 Q 412 357 409 350 L 378 301 Q 375 296 369 297 L 369 297 Z"/>
</svg>
