<svg xmlns="http://www.w3.org/2000/svg" viewBox="0 0 640 512">
    <path d="M 160 0 Q 155 0 153 4 L 121 65 L 55 45 Q 50 44 47 47 Q 44 50 45 55 L 65 121 L 4 153 Q 0 155 0 160 Q 0 165 4 167 L 65 200 L 45 265 Q 44 270 47 273 Q 50 276 55 275 L 121 256 L 153 316 Q 155 320 160 320 Q 165 320 167 316 L 200 255 L 265 275 Q 270 276 273 273 Q 276 270 275 265 L 255 200 L 316 167 Q 320 165 320 160 Q 320 155 316 153 L 255 121 L 275 55 Q 276 50 273 47 Q 270 44 265 45 L 200 65 L 167 4 Q 165 0 160 0 L 160 0 Z M 160 25 L 189 78 Q 192 83 198 82 L 256 65 L 238 122 Q 237 128 242 132 L 295 160 L 242 189 Q 237 192 238 198 L 256 256 L 198 238 Q 192 237 189 242 L 160 295 L 131 242 Q 128 237 122 238 L 64 256 L 82 198 Q 83 192 78 189 L 25 160 L 78 131 Q 83 128 82 122 L 64 64 L 122 82 Q 128 83 131 78 L 160 25 L 160 25 Z M 209 161 Q 208 134 185 120 Q 161 107 137 120 Q 113 134 113 161 Q 113 188 137 203 Q 161 216 185 203 Q 208 188 209 161 L 209 161 Z M 161 129 Q 174 130 183 139 L 183 139 Q 192 148 193 161 Q 192 175 183 184 Q 174 193 161 193 Q 147 193 138 184 Q 129 175 129 161 Q 129 148 138 139 Q 147 130 161 129 L 161 129 Z M 496 160 Q 496 143 508 132 L 508 132 Q 519 120 536 120 Q 553 120 564 132 Q 576 143 576 160 L 576 217 Q 557 219 544 232 Q 528 247 528 274 Q 529 293 543 315 Q 557 338 579 358 Q 584 362 590 358 Q 611 338 625 315 Q 639 293 640 274 Q 640 248 624 232 Q 611 219 592 217 L 592 160 Q 591 136 576 120 Q 560 105 536 104 Q 512 105 496 120 Q 481 136 480 160 L 480 216 Q 460 193 428 192 Q 399 193 380 212 Q 361 231 360 260 L 360 281 Q 341 283 328 296 Q 312 311 312 338 Q 313 357 327 379 Q 341 402 363 422 Q 368 426 374 422 Q 395 402 409 379 Q 423 357 424 338 Q 424 312 408 296 Q 395 283 376 281 L 376 260 Q 377 238 391 223 Q 406 209 428 208 Q 450 209 465 223 Q 479 238 480 260 L 480 280 L 480 496 L 8 496 Q 1 497 0 504 Q 1 511 8 512 L 488 512 L 632 512 Q 639 511 640 504 Q 639 497 632 496 L 496 496 L 496 280 L 496 260 L 496 160 L 496 160 Z M 584 232 Q 603 232 613 243 Q 623 253 624 274 Q 624 286 611 307 Q 600 324 584 341 Q 568 324 557 307 Q 544 286 544 274 Q 545 253 555 243 Q 565 232 584 232 L 584 232 Z M 395 371 Q 384 388 368 405 Q 352 388 341 371 Q 328 350 328 338 Q 329 317 339 307 Q 349 296 368 296 Q 387 296 397 307 Q 407 317 408 338 Q 408 350 395 371 L 395 371 Z"/>
</svg>
