<svg xmlns="http://www.w3.org/2000/svg" viewBox="0 0 512 512">
  <path d="M 369.32806 16.189724 L 409.80237 16.189724 L 369.32806 16.189724 L 409.80237 16.189724 Q 416.88538 15.177866 417.89725 8.094862 Q 416.88538 1.0118577 409.80237 0 L 272.18973 0 L 199.33597 0 Q 154.81422 1.0118577 124.458496 30.355732 Q 95.114624 60.711464 94.10277 105.2332 Q 95.114624 149.75494 124.458496 180.11067 Q 154.81422 209.45454 199.33597 210.4664 L 256 210.4664 L 256 210.4664 L 256 315.69962 L 256 315.69962 Q 257.01187 322.78262 264.09485 323.79446 Q 271.17786 322.78262 272.18973 315.69962 L 272.18973 210.4664 L 272.18973 210.4664 L 272.18973 202.37154 L 272.18973 202.37154 L 272.18973 24.284584 L 272.18973 24.284584 L 272.18973 16.189724 L 272.18973 16.189724 L 353.13834 16.189724 L 353.13834 16.189724 L 353.13834 315.69962 L 353.13834 315.69962 Q 354.1502 322.78262 361.23322 323.79446 Q 368.3162 322.78262 369.32806 315.69962 L 369.32806 16.189724 L 369.32806 16.189724 Z M 256 24.284584 L 256 194.27667 L 256 24.284584 L 256 194.27667 L 199.33597 194.27667 L 199.33597 194.27667 Q 161.89723 193.26482 136.60078 167.96838 Q 111.304344 142.67194 110.29249 105.2332 Q 111.304344 67.794464 136.60078 42.498024 Q 161.89723 17.201582 199.33597 16.189724 L 247.90514 16.189724 L 256 16.189724 L 256 24.284584 L 256 24.284584 Z M 172.01581 346.05533 Q 177.0751 340.99603 173.02766 334.9249 Q 167.96838 329.8656 161.89723 333.91306 L 64.758896 414.86166 L 64.758896 414.86166 Q 61.72332 416.88538 61.72332 420.9328 Q 61.72332 424.98022 64.758896 427.00397 L 161.89723 507.95258 L 161.89723 507.95258 Q 167.96838 512 173.02766 506.9407 Q 177.0751 500.86957 172.01581 495.81027 L 92.07905 429.02768 L 92.07905 429.02768 L 442.18182 429.02768 L 442.18182 429.02768 Q 449.26483 428.0158 450.27667 420.9328 Q 449.26483 413.8498 442.18182 412.83795 L 92.07905 412.83795 L 92.07905 412.83795 L 172.01581 346.05533 L 172.01581 346.05533 Z" />
</svg>