<svg xmlns="http://www.w3.org/2000/svg" viewBox="0 0 512 512">
  <path d="M 74.524445 9.102222 Q 75.662224 1.1377778 83.62666 0 L 201.95555 0 L 201.95555 0 Q 205.3689 0 209.92 0 Q 209.92 0 209.92 0 Q 211.05779 0 211.05779 0 L 429.5111 0 L 429.5111 0 Q 437.47556 1.1377778 438.61334 9.102222 Q 437.47556 17.066668 429.5111 18.204445 L 277.0489 18.204445 L 277.0489 18.204445 Q 315.73334 38.684444 338.4889 73.95556 Q 362.38223 109.22667 365.79556 154.73778 L 429.5111 154.73778 L 429.5111 154.73778 Q 437.47556 155.87555 438.61334 163.84 Q 437.47556 171.80444 429.5111 172.94221 L 365.79556 172.94221 L 365.79556 172.94221 Q 360.10666 238.93333 314.59555 282.16888 Q 269.08444 326.54224 201.95555 327.68 L 113.208885 327.68 L 113.208885 327.68 L 361.24445 492.65778 L 361.24445 492.65778 Q 368.0711 498.34668 364.65778 505.17334 Q 358.9689 512 351.00446 508.58667 L 77.937775 326.54224 L 77.937775 326.54224 Q 73.386665 321.99112 74.524445 316.30222 Q 76.8 309.47556 83.62666 309.47556 L 201.95555 309.47556 L 201.95555 309.47556 Q 261.12 308.33777 302.08 269.65332 Q 341.90222 230.96889 347.59113 172.94221 L 83.62666 172.94221 L 83.62666 172.94221 Q 75.662224 171.80444 74.524445 163.84 Q 75.662224 155.87555 83.62666 154.73778 L 347.59113 154.73778 L 347.59113 154.73778 Q 341.90222 96.71111 302.08 58.02667 Q 261.12 19.342222 201.95555 18.204445 L 83.62666 18.204445 L 83.62666 18.204445 Q 75.662224 17.066668 74.524445 9.102222 L 74.524445 9.102222 Z" />
</svg>