<svg xmlns="http://www.w3.org/2000/svg" viewBox="0 0 450 514">
    <path d="M 306 16 Q 341 16 370 33 L 370 33 Q 399 50 417 80 Q 434 110 434 144 Q 434 178 417 208 Q 399 238 370 255 Q 341 272 306 272 Q 271 272 242 255 Q 213 238 195 208 Q 178 178 178 144 Q 178 110 195 80 Q 213 50 242 33 Q 271 16 306 16 L 306 16 Z M 306 288 Q 367 286 408 246 L 408 246 Q 448 205 450 144 Q 448 83 408 42 Q 367 2 306 0 Q 245 2 204 42 Q 164 83 162 144 Q 163 201 199 240 L 4 434 Q 0 440 4 446 L 68 510 Q 74 514 80 510 Q 84 504 80 498 L 21 440 L 74 387 L 132 446 Q 138 450 144 446 Q 148 440 144 434 L 85 376 L 210 251 Q 249 287 306 288 L 306 288 Z"/>
</svg>
