<svg xmlns="http://www.w3.org/2000/svg" viewBox="0 0 640 432">
    <path d="M 448 304 L 448 368 L 64 368 Q 50 368 41 377 Q 32 386 32 400 Q 32 414 41 423 Q 50 432 64 432 L 592 432 Q 612 431 626 418 Q 639 404 640 384 L 640 376 L 640 368 L 640 288 L 640 272 L 640 267 Q 640 240 626 217 Q 612 194 587 181 L 261 18 Q 224 0 183 0 Q 141 0 105 18 Q 69 37 44 70 L 9 117 Q 0 128 0 142 Q 2 175 33 184 L 48 188 L 48 280 Q 50 302 72 304 L 448 304 L 448 304 Z M 448 288 L 72 288 Q 65 287 64 280 L 64 192 L 448 288 L 448 288 Z M 624 368 L 464 368 L 464 288 Q 463 276 452 273 L 37 169 Q 17 163 16 142 Q 16 133 21 126 L 57 79 Q 79 49 112 33 Q 145 16 183 16 Q 220 16 254 33 L 580 196 Q 600 206 612 225 Q 624 244 624 267 L 624 272 L 624 288 L 624 368 L 624 368 Z M 464 384 L 624 384 Q 624 398 615 407 Q 606 416 592 416 L 64 416 Q 49 415 48 400 Q 49 385 64 384 L 448 384 L 464 384 L 464 384 Z"/>
</svg>
