<svg xmlns="http://www.w3.org/2000/svg" viewBox="0 0 512 512">
  <path d="M 256 16 Q 321 17 376 48 L 376 48 L 376 48 Q 431 80 464 136 Q 496 193 496 256 Q 496 319 464 376 Q 431 432 376 464 Q 321 495 256 496 Q 191 495 136 464 Q 81 432 48 376 Q 16 319 16 256 Q 16 193 48 136 Q 81 80 136 48 Q 191 17 256 16 L 256 16 Z M 256 512 Q 326 511 384 478 L 384 478 L 384 478 Q 442 444 478 384 Q 512 323 512 256 Q 512 189 478 128 Q 442 68 384 34 Q 326 1 256 0 Q 186 1 128 34 Q 70 68 34 128 Q 0 189 0 256 Q 0 323 34 384 Q 70 444 128 478 Q 186 511 256 512 L 256 512 Z M 288 176 Q 303 177 304 192 L 304 320 L 304 320 Q 303 335 288 336 L 160 336 L 160 336 Q 145 335 144 320 L 144 192 L 144 192 Q 145 177 160 176 L 288 176 L 288 176 Z M 160 160 Q 146 160 137 169 L 137 169 L 137 169 Q 128 178 128 192 L 128 320 L 128 320 Q 128 334 137 343 Q 146 352 160 352 L 288 352 L 288 352 Q 302 352 311 343 Q 320 334 320 320 L 320 301 L 320 301 L 381 319 L 381 319 Q 383 320 385 320 Q 399 319 400 305 L 400 207 L 400 207 Q 399 193 385 192 Q 383 192 381 193 L 320 211 L 320 211 L 320 192 L 320 192 Q 320 178 311 169 Q 302 160 288 160 L 160 160 L 160 160 Z M 320 228 L 384 208 L 320 228 L 384 208 L 384 304 L 384 304 L 320 285 L 320 285 L 320 228 L 320 228 Z" />
</svg>