<svg xmlns="http://www.w3.org/2000/svg" viewBox="0 0 512 512">
  <path d="M 460.8 64 Q 476.8 64.8 488 75.2 L 488 75.2 L 488 75.2 Q 498.4 86.4 499.2 102.4 L 499.2 358.4 L 499.2 358.4 Q 498.4 374.4 488 385.6 Q 476.8 396 460.8 396.8 L 51.2 396.8 L 51.2 396.8 Q 35.2 396 24 385.6 Q 13.6 374.4 12.8 358.4 L 12.8 102.4 L 12.8 102.4 Q 13.6 86.4 24 75.2 Q 35.2 64.8 51.2 64 L 460.8 64 L 460.8 64 Z M 51.2 51.2 Q 29.6 52 15.2 66.4 L 15.2 66.4 L 15.2 66.4 Q 0.8 80.8 0 102.4 L 0 358.4 L 0 358.4 Q 0.8 380 15.2 394.4 Q 29.6 408.8 51.2 409.6 L 460.8 409.6 L 460.8 409.6 Q 482.4 408.8 496.8 394.4 Q 511.2 380 512 358.4 L 512 102.4 L 512 102.4 Q 511.2 80.8 496.8 66.4 Q 482.4 52 460.8 51.2 L 51.2 51.2 L 51.2 51.2 Z M 76.8 454.4 Q 77.6 460 83.2 460.8 L 428.8 460.8 L 428.8 460.8 Q 434.4 460 435.2 454.4 Q 434.4 448.8 428.8 448 L 83.2 448 L 83.2 448 Q 77.6 448.8 76.8 454.4 L 76.8 454.4 Z M 64 115.2 L 448 115.2 L 64 115.2 L 448 115.2 L 448 345.6 L 448 345.6 L 64 345.6 L 64 345.6 L 64 115.2 L 64 115.2 Z M 51.2 115.2 L 51.2 345.6 L 51.2 115.2 L 51.2 345.6 Q 52 357.6 64 358.4 L 448 358.4 L 448 358.4 Q 460 357.6 460.8 345.6 L 460.8 115.2 L 460.8 115.2 Q 460 103.2 448 102.4 L 64 102.4 L 64 102.4 Q 52 103.2 51.2 115.2 L 51.2 115.2 Z" />
</svg>