<svg xmlns="http://www.w3.org/2000/svg" viewBox="0 0 448 448">
    <path d="M 16 384 Q 17 404 30 418 L 30 418 Q 44 431 64 432 L 384 432 Q 404 431 418 418 Q 431 404 432 384 L 432 64 Q 431 44 418 30 Q 404 17 384 16 L 64 16 Q 44 17 30 30 Q 17 44 16 64 L 16 384 L 16 384 Z M 64 448 Q 37 447 19 429 L 19 429 Q 1 411 0 384 L 0 64 Q 1 37 19 19 Q 37 1 64 0 L 384 0 Q 411 1 429 19 Q 447 37 448 64 L 448 384 Q 447 411 429 429 Q 411 447 384 448 L 64 448 L 64 448 Z M 128 224 Q 128 213 136 205 L 246 103 Q 253 96 263 96 Q 286 98 288 121 L 288 327 Q 286 350 263 352 Q 253 352 246 345 L 136 243 Q 128 235 128 224 L 128 224 Z M 272 327 L 272 121 Q 271 113 263 112 Q 259 112 257 114 L 147 216 Q 144 220 144 224 Q 144 228 147 232 L 257 334 Q 259 336 263 336 Q 271 335 272 327 L 272 327 Z"/>
</svg>
