<svg xmlns="http://www.w3.org/2000/svg" viewBox="0 0 512 512">
  <path d="M 73.14286 18.285715 Q 50.285713 19.428572 34.285713 34.285713 L 34.285713 34.285713 L 34.285713 34.285713 Q 19.428572 50.285713 18.285715 73.14286 L 18.285715 438.85715 L 18.285715 438.85715 Q 19.428572 461.7143 34.285713 477.7143 Q 50.285713 492.57144 73.14286 493.7143 L 438.85715 493.7143 L 438.85715 493.7143 Q 461.7143 492.57144 477.7143 477.7143 Q 492.57144 461.7143 493.7143 438.85715 L 493.7143 73.14286 L 493.7143 73.14286 Q 492.57144 50.285713 477.7143 34.285713 Q 461.7143 19.428572 438.85715 18.285715 L 73.14286 18.285715 L 73.14286 18.285715 Z M 0 73.14286 Q 1.1428572 42.285713 21.714285 21.714285 L 21.714285 21.714285 L 21.714285 21.714285 Q 42.285713 1.1428572 73.14286 0 L 438.85715 0 L 438.85715 0 Q 469.7143 1.1428572 490.2857 21.714285 Q 510.85715 42.285713 512 73.14286 L 512 438.85715 L 512 438.85715 Q 510.85715 469.7143 490.2857 490.2857 Q 469.7143 510.85715 438.85715 512 L 73.14286 512 L 73.14286 512 Q 42.285713 510.85715 21.714285 490.2857 Q 1.1428572 469.7143 0 438.85715 L 0 73.14286 L 0 73.14286 Z M 155.42857 109.71429 L 338.2857 109.71429 L 155.42857 109.71429 L 338.2857 109.71429 Q 344 109.71429 347.42856 115.42857 Q 348.57144 121.14286 344 125.71429 L 216 237.71428 L 216 237.71428 L 283.42856 237.71428 L 283.42856 237.71428 Q 317.7143 237.71428 341.7143 261.7143 Q 364.57144 284.57144 365.7143 320 Q 364.57144 354.2857 341.7143 378.2857 Q 317.7143 401.14285 283.42856 402.2857 L 202.28572 402.2857 L 202.28572 402.2857 Q 169.14285 401.14285 153.14285 372.57144 L 147.42857 361.14285 L 147.42857 361.14285 Q 144 353.14285 152 348.57144 Q 158.85715 345.14285 163.42857 353.14285 L 169.14285 363.42856 L 169.14285 363.42856 Q 179.42857 382.85715 202.28572 384 L 283.42856 384 L 283.42856 384 Q 310.85715 382.85715 329.14285 365.7143 Q 346.2857 347.42856 347.42856 320 Q 346.2857 292.57144 328 274.2857 Q 310.85715 256 283.42856 256 L 192 256 L 192 256 Q 186.28572 256 184 250.28572 Q 181.71428 244.57143 186.28572 240 L 314.2857 128 L 314.2857 128 L 155.42857 128 L 155.42857 128 Q 147.42857 126.85714 146.28572 118.85714 Q 147.42857 110.85714 155.42857 109.71429 L 155.42857 109.71429 Z" />
</svg>