<svg xmlns="http://www.w3.org/2000/svg" viewBox="0 0 512 512">
  <path d="M 158.38132 414.38132 Q 150.41245 411.393 143.43968 416.37354 Q 126.50584 429.32297 92.63813 445.2607 Q 57.77432 462.19455 17.92996 463.19067 L 17.92996 463.19067 L 17.92996 463.19067 L 17.92996 463.19067 L 17.92996 463.19067 L 17.92996 463.19067 L 17.92996 463.19067 L 17.92996 463.19067 L 17.92996 463.19067 L 18.92607 463.19067 L 18.92607 463.19067 Q 18.92607 462.19455 19.922178 461.19846 Q 21.914396 459.20624 24.902723 455.2218 L 12.949416 445.2607 L 12.949416 445.2607 L 24.902723 455.2218 L 24.902723 455.2218 Q 32.871593 446.2568 41.836575 431.3152 Q 59.766537 403.42413 65.74319 361.58755 Q 65.74319 354.61478 61.758755 349.63425 Q 18.92607 301.821 17.92996 240.06226 Q 19.922178 160.37354 86.661476 105.58755 Q 153.40077 50.801556 256.9961 48.809338 Q 360.59143 50.801556 427.33075 105.58755 Q 494.07004 160.37354 496.06226 240.06226 Q 494.07004 319.75098 427.33075 374.53696 Q 360.59143 429.32297 256.9961 431.3152 Q 204.20233 431.3152 158.38132 414.38132 L 158.38132 414.38132 Z M 6.9727626 452.23346 L 6.9727626 452.23346 L 6.9727626 452.23346 L 6.9727626 452.23346 L 6.9727626 452.23346 L 6.9727626 452.23346 L 6.9727626 452.23346 L 6.9727626 452.23346 Q 0 459.20624 2.9883268 469.16733 Q 7.9688716 479.12842 17.92996 479.12842 Q 61.758755 477.1362 99.61089 460.20233 Q 134.4747 443.2685 153.40077 429.32297 Q 201.214 447.25293 256.9961 447.25293 Q 328.71594 446.2568 385.49417 419.36188 Q 443.2685 391.47083 477.1362 344.6537 Q 511.0039 297.83658 512 240.06226 Q 511.0039 182.28793 477.1362 135.47081 Q 443.2685 88.653694 385.49417 60.762646 Q 328.71594 33.867702 256.9961 32.871593 Q 185.27626 33.867702 128.49805 60.762646 Q 70.72373 88.653694 36.85603 135.47081 Q 2.9883268 182.28793 1.9922179 240.06226 Q 2.9883268 308.79376 49.805447 360.59143 Q 44.8249 397.44748 27.89105 423.3463 Q 19.922178 437.29184 12.949416 444.2646 Q 9.961089 448.24902 7.9688716 450.24124 Q 7.9688716 451.23737 6.9727626 451.23737 Q 6.9727626 451.23737 6.9727626 452.23346 L 6.9727626 452.23346 L 6.9727626 452.23346 L 6.9727626 452.23346 L 6.9727626 452.23346 Z M 264.96497 144.43579 Q 263.96887 137.46303 256.9961 136.46692 Q 250.02335 137.46303 249.02724 144.43579 L 249.02724 160.37354 L 249.02724 160.37354 Q 236.07782 161.36964 226.11673 166.35019 Q 206.19455 175.31517 202.21011 195.23735 Q 200.2179 207.19066 204.20233 217.15175 Q 209.18288 226.11673 217.15175 231.09727 Q 233.0895 241.05836 253.01167 246.03891 Q 253.01167 246.03891 253.01167 246.03891 L 255.00389 247.03502 L 255.00389 247.03502 Q 275.92218 252.01556 287.8755 259.98444 Q 292.85602 263.96887 295.84436 268.9494 Q 297.83658 273.92996 296.84045 282.89493 Q 294.84824 294.84824 281.89883 299.8288 Q 267.9533 305.80545 246.03891 302.8171 Q 234.0856 299.8288 219.14397 294.84824 Q 218.14786 294.84824 217.15175 294.84824 L 217.15175 294.84824 L 217.15175 294.84824 L 217.15175 294.84824 L 217.15175 294.84824 L 217.15175 294.84824 L 217.15175 294.84824 Q 216.15564 293.85214 215.15953 293.85214 Q 213.16731 292.85602 212.1712 292.85602 Q 205.19844 290.8638 202.21011 297.83658 Q 200.2179 304.80933 207.19066 307.79767 Q 208.18677 307.79767 209.18288 307.79767 Q 210.17899 308.79376 212.1712 309.7899 L 212.1712 309.7899 L 212.1712 309.7899 L 212.1712 309.7899 L 212.1712 309.7899 Q 212.1712 309.7899 212.1712 309.7899 Q 229.10506 315.76654 244.04669 318.75485 L 244.04669 318.75485 L 244.04669 318.75485 Q 246.03891 318.75485 249.02724 319.75098 Q 249.02724 319.75098 249.02724 319.75098 L 249.02724 335.68872 L 249.02724 335.68872 Q 250.02335 342.66147 256.9961 343.6576 Q 264.96497 342.66147 264.96497 335.68872 L 264.96497 319.75098 L 264.96497 319.75098 Q 277.9144 318.75485 287.8755 314.77042 Q 307.79767 306.80154 311.7821 284.88715 Q 314.77042 271.93774 309.7899 262.97275 Q 305.80545 253.01167 296.84045 247.03502 Q 279.90662 236.07782 259.98444 231.09727 L 258.9883 231.09727 L 258.9883 231.09727 L 258.9883 231.09727 L 258.9883 231.09727 Q 239.06615 226.11673 227.11284 218.14786 Q 221.13618 214.16342 219.14397 210.17899 Q 216.15564 206.19455 218.14786 198.22568 Q 219.14397 187.26848 233.0895 181.29182 Q 247.03502 174.31906 267.9533 177.30739 Q 271.93774 178.3035 279.90662 179.2996 Q 286.87936 181.29182 290.8638 182.28793 Q 297.83658 183.28404 300.8249 176.31128 Q 301.821 169.33852 294.84824 166.35019 Q 290.8638 165.35408 282.89493 164.35797 Q 274.92606 162.36575 270.94162 161.36964 Q 267.9533 161.36964 265.9611 161.36964 Q 264.96497 161.36964 264.96497 161.36964 L 264.96497 144.43579 L 264.96497 144.43579 Z" />
</svg>