<svg xmlns="http://www.w3.org/2000/svg" viewBox="0 0 512 320">
    <path d="M 176 216 L 176 297 Q 175 303 169 304 Q 166 304 164 302 L 17 162 Q 16 161 16 160 Q 16 159 17 158 L 164 18 Q 166 16 169 16 Q 175 17 176 23 L 176 104 Q 177 119 192 120 L 472 120 Q 494 122 496 144 L 496 176 Q 494 198 472 200 L 192 200 Q 177 201 176 216 L 176 216 Z M 6 174 L 153 314 Q 160 320 169 320 Q 190 318 192 297 L 192 232 L 192 216 L 208 216 L 472 216 Q 489 216 500 204 Q 512 193 512 176 L 512 144 Q 512 127 500 116 Q 489 104 472 104 L 208 104 L 192 104 L 192 88 L 192 23 Q 190 2 169 0 Q 160 0 153 6 L 6 147 Q 0 152 0 160 Q 0 168 6 174 L 6 174 Z"/>
</svg>
