<svg xmlns="http://www.w3.org/2000/svg" viewBox="0 0 512 512">
  <path d="M 75 187 Q 80 183 80 176 L 80 112 L 80 112 Q 80 98 89 89 Q 98 80 112 80 L 176 80 L 176 80 Q 183 80 187 75 L 240 23 L 240 23 Q 247 16 256 16 Q 265 16 272 23 L 325 75 L 325 75 Q 329 80 336 80 L 400 80 L 400 80 Q 414 80 423 89 Q 432 98 432 112 L 432 176 L 432 176 Q 432 183 437 187 L 489 240 L 489 240 Q 496 247 496 256 Q 496 265 489 272 L 437 325 L 437 325 Q 432 329 432 336 L 432 400 L 432 400 Q 432 414 423 423 Q 414 432 400 432 L 336 432 L 336 432 Q 329 432 325 437 L 272 489 L 272 489 Q 265 496 256 496 Q 247 496 240 489 L 187 437 L 187 437 Q 183 432 176 432 L 112 432 L 112 432 Q 98 432 89 423 Q 80 414 80 400 L 80 336 L 80 336 Q 80 329 75 325 L 23 272 L 23 272 Q 16 265 16 256 Q 16 247 23 240 L 75 187 L 75 187 Z M 64 112 L 64 176 L 64 112 L 64 176 L 11 229 L 11 229 Q 0 240 0 256 Q 0 272 11 283 L 64 336 L 64 336 L 64 400 L 64 400 Q 65 420 78 434 Q 92 447 112 448 L 176 448 L 176 448 L 229 501 L 229 501 Q 240 512 256 512 Q 272 512 283 501 L 336 448 L 336 448 L 400 448 L 400 448 Q 420 447 434 434 Q 447 420 448 400 L 448 336 L 448 336 L 501 283 L 501 283 Q 512 272 512 256 Q 512 240 501 229 L 448 176 L 448 176 L 448 112 L 448 112 Q 447 92 434 78 Q 420 65 400 64 L 336 64 L 336 64 L 283 11 L 283 11 Q 272 0 256 0 Q 240 0 229 11 L 176 64 L 176 64 L 112 64 L 112 64 Q 92 65 78 78 Q 65 92 64 112 L 64 112 Z M 256 128 Q 249 129 248 136 L 248 296 L 248 296 Q 249 303 256 304 Q 263 303 264 296 L 264 136 L 264 136 Q 263 129 256 128 L 256 128 Z M 272 352 Q 271 337 256 336 Q 241 337 240 352 Q 241 367 256 368 Q 271 367 272 352 L 272 352 Z" />
</svg>