<svg xmlns="http://www.w3.org/2000/svg" viewBox="0 0 512 512">
  <path d="M 5.5652175 185.24223 Q 1.5900621 192.39752 1.5900621 200.34782 Q 1.5900621 213.06833 10.335403 221.81366 Q 19.080746 230.559 31.801243 230.559 L 52.47205 230.559 L 52.47205 230.559 L 52.47205 421.36646 L 52.47205 421.36646 Q 53.267082 437.2671 63.602486 448.39752 Q 74.73292 458.7329 90.63354 459.52795 L 268.7205 459.52795 L 268.7205 459.52795 Q 284.62112 458.7329 295.75156 448.39752 Q 306.08694 437.2671 306.882 421.36646 L 306.882 368.8944 L 306.882 368.8944 L 294.1615 359.35403 L 294.1615 359.35403 L 294.1615 421.36646 L 294.1615 421.36646 Q 294.1615 432.4969 287.00623 439.65216 Q 279.85092 446.80746 268.7205 446.80746 L 90.63354 446.80746 L 90.63354 446.80746 Q 79.503105 446.80746 72.347824 439.65216 Q 65.19254 432.4969 65.19254 421.36646 L 65.19254 230.559 L 65.19254 230.559 L 131.18013 230.559 L 131.18013 230.559 L 115.2795 217.83852 L 115.2795 217.83852 L 58.8323 217.83852 L 31.801243 217.83852 Q 15.900621 216.24844 14.310559 200.34782 Q 14.310559 195.57764 16.695652 191.60248 L 36.57143 155.82608 L 36.57143 155.82608 L 26.236025 147.87578 L 26.236025 147.87578 L 5.5652175 186.03726 L 5.5652175 185.24223 Z M 92.2236 53.267082 L 106.534164 65.19254 L 92.2236 53.267082 L 106.534164 65.19254 L 411.82608 65.19254 L 411.82608 65.19254 Q 426.13666 65.98758 434.08694 78.70808 L 495.30435 191.60248 L 495.30435 191.60248 Q 497.68945 195.57764 497.68945 200.34782 Q 496.09937 216.24844 480.19876 217.83852 L 453.1677 217.83852 L 299.7267 217.83852 L 316.42236 230.559 L 316.42236 230.559 L 446.80746 230.559 L 446.80746 230.559 L 446.80746 333.91306 L 446.80746 333.91306 L 459.52795 343.45343 L 459.52795 343.45343 L 459.52795 230.559 L 459.52795 230.559 L 480.19876 230.559 L 480.19876 230.559 Q 492.91925 230.559 501.66458 221.81366 Q 510.40994 213.06833 510.40994 200.34782 Q 510.40994 192.39752 506.43478 186.03726 L 445.21738 72.347824 L 445.21738 72.347824 Q 433.29193 53.267082 411.82608 52.47205 L 100.96894 52.47205 L 100.96894 52.47205 Q 96.19876 52.47205 92.2236 53.267082 L 92.2236 53.267082 Z M 408.64597 303.70187 L 408.64597 256 L 408.64597 303.70187 L 408.64597 256 Q 407.85092 250.43478 402.2857 249.63976 Q 396.7205 250.43478 395.92548 256 L 395.92548 293.36646 L 395.92548 293.36646 L 408.64597 303.70187 L 408.64597 303.70187 Z M 243.27951 318.80746 L 243.27951 338.68323 L 243.27951 318.80746 L 243.27951 338.68323 Q 242.48447 344.24844 236.91925 345.0435 L 122.434784 345.0435 L 122.434784 345.0435 Q 116.86957 344.24844 116.07453 338.68323 L 116.07453 256 L 116.07453 256 Q 115.2795 250.43478 109.71429 249.63976 Q 104.14907 250.43478 103.354034 256 L 103.354034 338.68323 L 103.354034 338.68323 Q 104.9441 356.17392 122.434784 357.76398 L 236.91925 357.76398 L 236.91925 357.76398 Q 254.40994 356.17392 256 338.68323 L 256 329.14285 L 256 329.14285 L 243.27951 318.80746 L 243.27951 318.80746 Z M 11.925466 54.06211 Q 7.1552796 50.88199 3.1801243 54.857143 Q 0 59.62733 3.9751554 63.602486 L 500.07452 457.9379 L 500.07452 457.9379 Q 504.84473 461.118 508.8199 457.14285 Q 512 452.37268 508.02484 448.39752 L 11.925466 54.06211 L 11.925466 54.06211 Z" />
</svg>