<svg xmlns="http://www.w3.org/2000/svg" viewBox="0 0 632 480">
    <path d="M 560 100 Q 559 64 535 41 L 535 41 Q 512 17 476 16 Q 440 17 417 41 Q 393 64 392 100 L 392 176 Q 393 210 415 233 Q 438 255 472 256 L 480 256 Q 514 255 537 233 Q 559 210 560 176 L 560 100 L 560 100 Z M 385 59 Q 397 33 421 17 L 421 17 Q 445 0 476 0 Q 507 0 531 17 Q 555 33 567 59 L 618 94 Q 632 104 632 120 Q 631 138 616 147 Q 602 155 585 147 L 576 142 L 576 176 Q 575 217 548 244 Q 521 271 480 272 L 472 272 Q 431 271 404 244 Q 377 217 376 176 L 376 142 L 367 147 Q 350 155 336 147 Q 321 138 320 120 Q 320 104 334 94 L 385 59 L 385 59 Z M 576 100 L 576 123 L 593 133 Q 601 137 608 133 Q 616 129 616 120 Q 616 112 609 107 L 575 84 Q 576 92 576 100 L 576 100 Z M 377 84 L 343 107 Q 336 112 336 120 Q 336 129 344 133 Q 351 137 359 133 L 376 123 L 376 100 Q 376 92 377 84 L 377 84 Z M 448 112 Q 463 113 464 128 Q 463 143 448 144 Q 433 143 432 128 Q 433 113 448 112 L 448 112 Z M 496 128 Q 497 113 512 112 Q 527 113 528 128 Q 527 143 512 144 Q 497 143 496 128 L 496 128 Z M 416 328 Q 445 327 458 303 Q 467 304 475 304 Q 460 338 422 344 L 398 449 Q 389 478 359 480 L 344 480 Q 327 480 316 468 Q 304 457 304 440 L 304 416 Q 305 409 312 408 Q 319 409 320 416 L 320 440 Q 322 462 344 464 L 359 464 Q 377 463 382 446 L 406 346 Q 399 366 383 379 Q 366 392 344 392 Q 321 392 304 378 Q 286 399 256 400 Q 226 399 208 378 Q 191 392 168 392 Q 146 392 129 379 Q 113 366 107 346 L 130 446 Q 135 463 153 464 L 168 464 Q 190 462 192 440 L 192 416 Q 193 409 200 408 Q 207 409 208 416 L 208 440 Q 208 457 196 468 Q 185 480 168 480 L 153 480 Q 123 478 114 449 L 90 344 Q 65 341 49 323 Q 33 305 32 280 Q 32 272 34 265 Q 2 247 0 208 Q 2 169 34 152 Q 32 144 32 136 Q 33 109 51 91 Q 69 73 96 72 Q 101 72 106 73 Q 111 51 128 38 Q 145 24 168 24 Q 191 24 208 38 Q 226 17 256 16 Q 286 17 304 38 Q 321 24 344 24 Q 355 24 366 28 Q 361 35 357 42 Q 351 40 344 40 Q 327 40 314 50 Q 302 58 292 48 Q 278 33 256 32 Q 234 33 220 48 Q 210 58 198 50 Q 185 40 168 40 Q 151 40 138 50 Q 126 61 121 77 Q 117 90 103 89 Q 100 88 96 88 Q 76 88 62 102 Q 49 116 48 136 Q 48 142 49 148 Q 52 159 41 166 Q 17 179 16 208 Q 17 237 41 250 Q 52 257 49 268 Q 48 274 48 280 Q 49 300 62 314 Q 76 327 96 328 Q 100 328 103 327 Q 117 326 121 339 Q 126 355 138 366 Q 151 376 168 376 Q 185 376 198 366 Q 210 358 220 368 Q 234 383 256 384 Q 278 383 292 368 Q 302 358 314 366 Q 327 376 344 376 Q 361 376 374 366 Q 386 355 390 339 Q 395 326 408 327 Q 412 328 416 328 L 416 328 Z"/>
</svg>
