<svg xmlns="http://www.w3.org/2000/svg" viewBox="0 0 640 416">
    <path d="M 48 288 Q 47 303 32 304 Q 17 303 16 288 L 16 32 Q 17 17 32 16 Q 47 17 48 32 L 48 288 L 48 288 Z M 32 0 Q 18 0 9 9 L 9 9 Q 0 18 0 32 L 0 288 Q 0 302 9 311 Q 18 320 32 320 Q 46 320 55 311 Q 64 302 64 288 L 321 288 Q 320 280 320 272 L 64 272 L 64 48 L 448 48 L 448 103 Q 456 100 464 99 L 464 32 Q 465 17 480 16 Q 495 17 496 32 L 496 96 Q 504 96 512 97 L 512 32 Q 512 18 503 9 Q 494 0 480 0 Q 466 0 457 9 Q 448 18 448 32 L 64 32 Q 64 18 55 9 Q 46 0 32 0 L 32 0 Z M 496 144 Q 531 144 560 161 L 560 161 Q 589 178 607 208 Q 624 238 624 272 Q 624 306 607 336 Q 589 366 560 383 Q 531 400 496 400 Q 461 400 432 383 Q 403 366 385 336 Q 368 306 368 272 Q 368 238 385 208 Q 403 178 432 161 Q 461 144 496 144 L 496 144 Z M 496 416 Q 535 416 568 397 L 568 397 Q 601 378 621 344 Q 640 310 640 272 Q 640 234 621 200 Q 601 166 568 147 Q 535 128 496 128 Q 457 128 424 147 Q 391 166 371 200 Q 352 234 352 272 Q 352 310 371 344 Q 391 378 424 397 Q 457 416 496 416 L 496 416 Z M 566 226 Q 560 222 554 226 L 480 301 L 438 258 Q 432 254 426 258 Q 422 264 426 270 L 474 318 Q 480 322 486 318 L 566 238 Q 570 232 566 226 L 566 226 Z"/>
</svg>
