<svg xmlns="http://www.w3.org/2000/svg" viewBox="0 0 512 512">
  <path d="M 493.7143 73.14286 Q 492.57144 50.285713 477.7143 34.285713 L 477.7143 34.285713 L 477.7143 34.285713 Q 461.7143 19.428572 438.85715 18.285715 L 73.14286 18.285715 L 73.14286 18.285715 Q 50.285713 19.428572 34.285713 34.285713 Q 19.428572 50.285713 18.285715 73.14286 L 18.285715 438.85715 L 18.285715 438.85715 Q 19.428572 461.7143 34.285713 477.7143 Q 50.285713 492.57144 73.14286 493.7143 L 438.85715 493.7143 L 438.85715 493.7143 Q 461.7143 492.57144 477.7143 477.7143 Q 492.57144 461.7143 493.7143 438.85715 L 493.7143 73.14286 L 493.7143 73.14286 Z M 438.85715 0 Q 469.7143 1.1428572 490.2857 21.714285 L 490.2857 21.714285 L 490.2857 21.714285 Q 510.85715 42.285713 512 73.14286 L 512 438.85715 L 512 438.85715 Q 510.85715 469.7143 490.2857 490.2857 Q 469.7143 510.85715 438.85715 512 L 73.14286 512 L 73.14286 512 Q 42.285713 510.85715 21.714285 490.2857 Q 1.1428572 469.7143 0 438.85715 L 0 73.14286 L 0 73.14286 Q 1.1428572 42.285713 21.714285 21.714285 Q 42.285713 1.1428572 73.14286 0 L 438.85715 0 L 438.85715 0 Z M 365.7143 256 Q 365.7143 268.57144 356.57144 277.7143 L 230.85715 394.2857 L 230.85715 394.2857 Q 222.85715 402.2857 211.42857 402.2857 Q 185.14285 400 182.85715 373.7143 L 182.85715 138.28572 L 182.85715 138.28572 Q 185.14285 112 211.42857 109.71429 Q 222.85715 109.71429 230.85715 117.71429 L 356.57144 234.28572 L 356.57144 234.28572 Q 365.7143 243.42857 365.7143 256 L 365.7143 256 Z M 201.14285 138.28572 L 201.14285 373.7143 L 201.14285 138.28572 L 201.14285 373.7143 Q 202.28572 382.85715 211.42857 384 Q 216 384 219.42857 381.7143 L 344 265.14285 L 344 265.14285 Q 347.42856 260.57144 347.42856 256 Q 347.42856 251.42857 344 246.85715 L 219.42857 131.42857 L 219.42857 131.42857 Q 216 128 211.42857 128 Q 202.28572 129.14285 201.14285 138.28572 L 201.14285 138.28572 Z" />
</svg>