<svg xmlns="http://www.w3.org/2000/svg" viewBox="0 0 384 512">
    <path d="M 64 16 L 320 16 Q 340 17 354 30 Q 367 44 368 64 L 368 388 L 384 417 L 384 416 L 384 64 Q 383 37 365 19 Q 347 1 320 0 L 64 0 Q 37 1 19 19 Q 1 37 0 64 L 0 416 L 0 417 L 16 388 L 16 64 Q 17 44 30 30 Q 44 17 64 16 L 64 16 Z M 131 288 Q 108 289 96 309 L 6 477 Q 0 489 6 500 Q 13 511 27 512 L 357 512 Q 371 511 378 500 Q 384 489 378 477 L 288 309 Q 276 289 253 288 L 131 288 L 131 288 Z M 110 317 Q 117 304 131 304 L 253 304 Q 267 304 274 317 L 364 484 Q 367 494 357 496 L 27 496 Q 17 494 20 484 L 110 317 L 110 317 Z"/>
</svg>
