<svg xmlns="http://www.w3.org/2000/svg" viewBox="0 0 512 512">
  <path d="M 14.004376 0 Q 6.161926 1.1203501 5.0415754 8.962801 Q 6.161926 16.805252 14.004376 17.925602 Q 146.20569 19.045952 253.7593 82.90591 Q 361.3129 145.64551 424.05252 253.19913 Q 487.91248 360.75275 489.03284 492.95404 Q 490.15317 500.7965 497.99564 501.91684 Q 505.83807 500.7965 506.95844 492.95404 Q 505.83807 355.15097 439.73743 244.23633 Q 373.63675 133.32167 262.7221 67.22101 Q 151.80743 1.1203501 14.004376 0 L 14.004376 0 Z M 14.004376 161.33041 Q 6.161926 162.45076 5.0415754 170.29321 Q 6.161926 178.13567 14.004376 179.25601 Q 101.391685 180.37637 171.97374 221.82932 Q 242.5558 264.40262 285.1291 334.98468 Q 326.58206 405.56674 327.7024 492.95404 Q 328.82275 500.7965 336.66522 501.91684 Q 344.50766 500.7965 345.62802 492.95404 Q 344.50766 399.965 300.814 326.02188 Q 256 250.95842 180.93654 206.14442 Q 106.99344 162.45076 14.004376 161.33041 L 14.004376 161.33041 Z M 22.967176 430.21445 Q 24.087528 399.965 49.85558 383.15973 Q 76.74398 369.71555 103.632385 383.15973 Q 129.40044 399.965 130.52078 430.21445 Q 129.40044 460.4639 103.632385 477.26913 Q 76.74398 490.71335 49.85558 477.26913 Q 24.087528 460.4639 22.967176 430.21445 L 22.967176 430.21445 Z M 148.4464 430.21445 Q 147.32603 389.88184 112.595184 368.59518 Q 76.74398 348.4289 40.89278 368.59518 Q 6.161926 389.88184 5.0415754 430.21445 Q 6.161926 470.54706 40.89278 491.8337 Q 76.74398 512 112.595184 491.8337 Q 147.32603 470.54706 148.4464 430.21445 L 148.4464 430.21445 Z" />
</svg>