<svg xmlns="http://www.w3.org/2000/svg" viewBox="0 0 512 512">
  <path d="M 256 16 Q 321 17 376 48 L 376 48 L 376 48 Q 431 80 464 136 Q 496 193 496 256 Q 496 319 464 376 Q 431 432 376 464 Q 321 495 256 496 Q 191 495 136 464 Q 81 432 48 376 Q 16 319 16 256 Q 16 193 48 136 Q 81 80 136 48 Q 191 17 256 16 L 256 16 Z M 256 512 Q 326 511 384 478 L 384 478 L 384 478 Q 442 444 478 384 Q 512 323 512 256 Q 512 189 478 128 Q 442 68 384 34 Q 326 1 256 0 Q 186 1 128 34 Q 70 68 34 128 Q 0 189 0 256 Q 0 323 34 384 Q 70 444 128 478 Q 186 511 256 512 L 256 512 Z M 160 152 L 160 256 L 160 152 L 160 256 L 160 360 L 160 360 Q 162 382 184 384 L 292 384 L 292 384 Q 321 383 340 364 Q 359 345 360 316 Q 360 292 346 274 Q 332 256 309 250 Q 335 230 336 196 Q 335 167 316 148 Q 297 129 268 128 L 184 128 L 184 128 Q 162 130 160 152 L 160 152 Z M 320 196 Q 319 218 305 233 L 305 233 L 305 233 Q 290 247 268 248 L 176 248 L 176 248 L 176 152 L 176 152 Q 177 145 184 144 L 268 144 L 268 144 Q 290 145 305 159 Q 319 174 320 196 L 320 196 Z M 176 360 L 176 264 L 176 360 L 176 264 L 268 264 L 292 264 Q 314 265 329 279 Q 343 294 344 316 Q 343 338 329 353 Q 314 367 292 368 L 184 368 L 184 368 Q 177 367 176 360 L 176 360 Z" />
</svg>