<svg xmlns="http://www.w3.org/2000/svg" viewBox="0 0 512 512">
  <path d="M 110.19131 438.53912 Q 189.21739 497.53043 280.48697 485.28696 L 280.48697 485.28696 L 280.48697 485.28696 Q 372.86957 474.15652 435.2 398.46957 Q 494.1913 319.44348 481.9478 228.17392 Q 470.81738 135.7913 395.13043 73.46087 Q 316.10434 14.469565 224.83478 26.713043 Q 132.45218 37.84348 70.12174 113.53043 L 30.052174 166.95653 L 30.052174 166.95653 L 172.52174 166.95653 L 172.52174 166.95653 Q 180.31305 168.06956 181.42609 175.86087 Q 180.31305 183.65218 172.52174 184.76521 L 12.243478 184.76521 L 12.243478 184.76521 Q 4.4521737 183.65218 3.3391304 175.86087 L 3.3391304 15.582608 L 3.3391304 15.582608 Q 4.4521737 7.791304 12.243478 6.678261 Q 20.034782 7.791304 21.147825 15.582608 L 21.147825 149.14783 L 21.147825 149.14783 L 55.652172 102.4 L 55.652172 102.4 L 55.652172 102.4 L 55.652172 102.4 L 56.765217 102.4 L 56.765217 102.4 Q 100.17391 47.86087 160.27826 24.486956 Q 221.49565 0 286.0522 8.904347 Q 350.6087 17.808695 406.26086 60.104347 Q 460.8 103.51305 484.17392 163.61739 Q 508.66086 224.83478 499.75653 289.3913 Q 490.85217 353.9478 449.66956 409.6 Q 405.14783 464.13913 345.0435 487.51303 Q 283.82608 512 219.26956 503.09564 Q 154.71304 494.1913 99.06087 453.0087 Q 57.87826 419.6174 34.50435 376.2087 Q 31.165216 368.4174 37.84348 363.9652 Q 45.63478 360.6261 50.086956 367.30435 Q 72.347824 408.48697 110.19131 438.53912 L 110.19131 438.53912 Z" />
</svg>