<svg xmlns="http://www.w3.org/2000/svg" viewBox="0 0 512 512">
  <path d="M 399 125 Q 400 119 400 112 Q 399 85 381 67 Q 363 49 336 48 Q 306 49 287 70 Q 282 77 274 76 Q 265 75 261 67 Q 249 44 226 30 Q 204 16 176 16 Q 135 17 108 44 Q 81 71 80 112 Q 80 121 82 130 Q 83 143 71 148 Q 47 156 32 177 Q 16 197 16 224 Q 17 258 39 281 Q 62 303 96 304 L 416 304 L 416 304 Q 450 303 473 281 Q 495 258 496 224 Q 495 190 473 167 Q 450 145 416 144 Q 416 144 415 144 Q 415 144 415 144 Q 407 144 402 138 Q 397 132 399 125 L 399 125 Z M 176 0 Q 234 2 266 46 Q 271 53 275 60 Q 281 54 287 49 Q 308 33 336 32 Q 370 33 393 55 Q 415 78 416 112 Q 416 120 414 128 Q 415 128 415 128 Q 416 128 416 128 Q 423 128 431 129 Q 466 135 489 161 Q 511 187 512 224 Q 511 265 484 292 Q 457 319 416 320 L 96 320 L 96 320 Q 55 319 28 292 Q 1 265 0 224 Q 1 192 19 167 Q 37 143 66 133 Q 64 123 64 112 Q 65 64 97 33 Q 128 1 176 0 L 176 0 Z M 64 368 L 64 424 L 64 368 L 64 424 Q 63 431 56 432 Q 49 431 48 424 L 48 368 L 48 368 Q 49 361 56 360 Q 63 361 64 368 L 64 368 Z M 256 368 L 256 424 L 256 368 L 256 424 Q 255 431 248 432 Q 241 431 240 424 L 240 368 L 240 368 Q 241 361 248 360 Q 255 361 256 368 L 256 368 Z M 448 368 L 448 424 L 448 368 L 448 424 Q 447 431 440 432 Q 433 431 432 424 L 432 368 L 432 368 Q 433 361 440 360 Q 447 361 448 368 L 448 368 Z M 160 448 L 160 504 L 160 448 L 160 504 Q 159 511 152 512 Q 145 511 144 504 L 144 448 L 144 448 Q 145 441 152 440 Q 159 441 160 448 L 160 448 Z M 352 448 L 352 504 L 352 448 L 352 504 Q 351 511 344 512 Q 337 511 336 504 L 336 448 L 336 448 Q 337 441 344 440 Q 351 441 352 448 L 352 448 Z" />
</svg>