<svg xmlns="http://www.w3.org/2000/svg" viewBox="0 0 514 514">
    <path d="M 420 32 L 416 18 Q 399 26 393 43 Q 390 51 382 53 Q 373 55 367 49 L 352 34 Q 331 57 332 86 Q 350 96 365 111 L 403 149 Q 418 164 428 182 Q 457 183 480 162 L 465 147 Q 459 141 461 132 Q 463 124 471 121 Q 488 115 496 98 L 482 94 Q 474 92 471 85 Q 468 78 472 71 Q 480 56 480 40 L 480 34 L 475 34 Q 457 34 443 42 Q 436 46 429 43 Q 422 40 420 32 L 420 32 Z M 491 173 Q 467 196 436 198 Q 448 226 448 258 Q 447 322 403 367 L 301 469 Q 256 513 192 514 Q 128 513 83 469 L 45 431 L 57 420 L 94 458 Q 135 497 192 498 Q 249 497 290 458 L 391 356 Q 431 315 432 258 Q 431 201 391 160 L 354 123 Q 313 83 256 82 Q 199 83 158 123 L 57 224 Q 17 265 16 322 Q 17 379 57 420 L 45 431 Q 1 386 0 322 Q 1 258 45 213 L 147 111 Q 192 67 256 66 Q 288 66 316 78 Q 318 47 341 23 Q 352 13 363 23 L 366 25 L 378 37 Q 381 29 386 22 Q 394 10 410 3 Q 416 0 423 4 Q 429 6 431 12 Q 431 13 431 13 Q 431 13 432 14 L 435 28 Q 442 24 450 22 Q 462 18 475 18 L 480 18 Q 495 19 496 34 L 496 40 Q 496 52 492 64 Q 490 72 486 79 L 500 83 Q 501 83 501 83 Q 501 83 502 83 Q 507 85 510 91 Q 514 98 511 104 Q 504 120 492 128 Q 485 133 477 136 L 489 148 L 491 151 Q 501 162 491 173 L 491 173 Z M 166 220 L 192 247 L 218 220 Q 224 216 230 220 Q 234 226 230 232 L 198 264 Q 192 268 186 264 L 154 232 Q 150 226 154 220 Q 160 216 166 220 L 166 220 Z M 102 316 L 128 343 L 154 316 Q 160 312 166 316 Q 170 322 166 328 L 134 360 Q 128 364 122 360 L 90 328 Q 86 322 90 316 Q 96 312 102 316 L 102 316 Z M 230 316 L 256 343 L 282 316 Q 288 312 294 316 Q 298 322 294 328 L 262 360 Q 256 364 250 360 L 218 328 Q 214 322 218 316 Q 224 312 230 316 L 230 316 Z M 166 412 L 192 439 L 218 412 Q 224 408 230 412 Q 234 418 230 424 L 198 456 Q 192 460 186 456 L 154 424 Q 150 418 154 412 Q 160 408 166 412 L 166 412 Z"/>
</svg>
