<svg xmlns="http://www.w3.org/2000/svg" viewBox="0 0 504 512">
    <path d="M 64 496 L 112 496 L 112 512 L 64 512 Q 37 511 19 493 Q 1 475 0 448 L 0 64 Q 1 37 19 19 Q 37 1 64 0 L 204 0 Q 224 0 238 14 L 370 146 Q 384 160 384 180 L 384 304 L 368 304 L 368 180 Q 368 178 368 176 Q 368 176 368 176 L 248 176 Q 231 176 220 164 Q 208 153 208 136 L 208 16 Q 206 16 204 16 Q 204 16 204 16 L 64 16 Q 44 17 30 30 Q 17 44 16 64 L 16 448 Q 17 468 30 482 Q 44 495 64 496 L 64 496 Z M 361 160 Q 360 159 359 157 L 227 25 Q 225 24 224 23 L 224 136 Q 226 158 248 160 L 361 160 L 361 160 Z M 200 368 L 216 368 Q 230 368 239 377 Q 248 386 248 400 L 248 408 Q 247 415 240 416 Q 233 415 232 408 L 232 400 Q 231 385 216 384 L 200 384 Q 185 385 184 400 L 184 480 Q 185 495 200 496 L 216 496 Q 231 495 232 480 L 232 472 Q 233 465 240 464 Q 247 465 248 472 L 248 480 Q 248 494 239 503 Q 230 512 216 512 L 200 512 Q 186 512 177 503 Q 168 494 168 480 L 168 400 Q 168 386 177 377 Q 186 368 200 368 L 200 368 Z M 333 368 L 368 368 Q 375 369 376 376 Q 375 383 368 384 L 333 384 Q 314 386 312 405 Q 313 418 325 424 L 362 441 Q 383 451 384 475 Q 384 491 373 501 Q 363 512 347 512 L 304 512 Q 297 511 296 504 Q 297 497 304 496 L 347 496 Q 366 494 368 475 Q 367 462 356 456 L 318 439 Q 297 429 296 405 Q 296 389 307 379 Q 317 368 333 368 L 333 368 Z M 432 368 Q 439 369 440 376 L 440 408 Q 440 452 464 490 Q 488 452 488 408 L 488 376 Q 489 369 496 368 Q 503 369 504 376 L 504 408 Q 504 458 476 501 L 471 509 Q 468 512 464 512 Q 460 512 457 508 L 452 501 Q 424 458 424 408 L 424 376 Q 425 369 432 368 L 432 368 Z"/>
</svg>
