<svg xmlns="http://www.w3.org/2000/svg" viewBox="0 0 512 512">
  <path d="M 129.31058020477815 300.5597269624573 L 118.8259385665529 306.67576791808875 L 129.31058020477815 300.5597269624573 L 118.8259385665529 306.67576791808875 L 40.19112627986348 352.10921501706486 L 40.19112627986348 352.10921501706486 Q 31.453924914675767 356.4778156996587 23.590443686006825 349.48805460750856 Q 16.600682593856654 342.49829351535834 20.96928327645051 332.8873720136519 L 61.160409556313994 262.98976109215016 L 61.160409556313994 262.98976109215016 L 65.52901023890784 256 L 65.52901023890784 256 L 61.160409556313994 249.01023890784984 L 61.160409556313994 249.01023890784984 L 20.96928327645051 179.11262798634812 L 20.96928327645051 179.11262798634812 Q 16.600682593856654 169.50170648464163 23.590443686006825 162.51194539249147 Q 31.453924914675767 155.5221843003413 40.19112627986348 159.89078498293514 L 118.8259385665529 205.32423208191128 L 118.8259385665529 205.32423208191128 L 128.4368600682594 211.44027303754265 L 128.4368600682594 211.44027303754265 L 136.30034129692834 202.70307167235495 L 136.30034129692834 202.70307167235495 Q 152.0273037542662 184.35494880546077 172.12286689419795 166.88054607508533 Q 196.58703071672355 145.03754266211604 228.04095563139933 131.0580204778157 Q 260.36860068259386 117.07849829351535 298.8122866894198 116.20477815699658 Q 337.25597269624575 117.07849829351535 369.58361774744026 131.0580204778157 Q 401.03754266211604 145.03754266211604 425.50170648464166 166.88054607508533 Q 449.9658703071672 187.84982935153585 467.4402730375427 209.6928327645051 Q 484.0409556313993 232.40955631399316 492.77815699658703 249.8839590443686 Q 496.2730375426621 256 492.77815699658703 262.1160409556314 Q 484.0409556313993 279.59044368600684 467.4402730375427 302.3071672354949 Q 449.9658703071672 324.15017064846415 425.50170648464166 345.1194539249147 Q 401.03754266211604 366.96245733788396 369.58361774744026 380.9419795221843 Q 337.25597269624575 394.92150170648466 298.8122866894198 395.7952218430034 Q 260.36860068259386 394.92150170648466 228.04095563139933 380.9419795221843 Q 196.58703071672355 366.96245733788396 172.12286689419795 345.1194539249147 Q 152.0273037542662 327.64505119453923 136.30034129692834 309.29692832764505 L 128.4368600682594 300.5597269624573 L 129.31058020477815 300.5597269624573 Z M 125.81569965870307 318.0341296928328 Q 141.54266211604096 338.12969283276453 163.38566552901023 355.60409556313994 Q 188.7235494880546 378.320819112628 222.79863481228668 394.0477815699659 Q 256.8737201365188 408.901023890785 298.8122866894198 409.77474402730377 Q 340.75085324232083 408.901023890785 374.8259385665529 394.0477815699659 Q 408.901023890785 378.320819112628 435.1126279863481 355.60409556313994 Q 460.45051194539246 333.76109215017067 477.9249146757679 310.17064846416383 Q 496.2730375426621 287.4539249146758 505.8839590443686 269.1058020477816 Q 512 256 505.8839590443686 242.89419795221843 Q 496.2730375426621 224.54607508532422 477.9249146757679 201.82935153583617 Q 460.45051194539246 178.23890784982936 435.1126279863481 156.39590443686006 Q 408.901023890785 133.679180887372 374.8259385665529 117.95221843003414 Q 340.75085324232083 103.09897610921502 298.8122866894198 102.22525597269625 Q 256.8737201365188 103.09897610921502 222.79863481228668 117.95221843003414 Q 188.7235494880546 133.679180887372 163.38566552901023 156.39590443686006 Q 141.54266211604096 173.8703071672355 125.81569965870307 193.96587030716722 L 47.18088737201365 147.65870307167236 L 47.18088737201365 147.65870307167236 Q 28.832764505119453 138.92150170648463 13.10580204778157 152.0273037542662 Q 0 167.7542662116041 8.737201365187714 186.1023890784983 L 48.9283276450512 256 L 48.9283276450512 256 L 8.737201365187714 325.8976109215017 L 8.737201365187714 325.8976109215017 Q 0 344.2457337883959 13.979522184300341 359.9726962457338 Q 28.832764505119453 373.07849829351534 47.18088737201365 364.34129692832767 L 125.81569965870307 318.0341296928328 L 125.81569965870307 318.0341296928328 Z M 396.6689419795222 256 Q 396.6689419795222 243.7679180887372 388.80546075085323 235.90443686006827 L 388.80546075085323 235.90443686006827 L 388.80546075085323 235.90443686006827 Q 380.9419795221843 228.04095563139933 368.70989761092153 228.04095563139933 Q 356.4778156996587 228.04095563139933 348.6143344709898 235.90443686006827 Q 340.75085324232083 243.7679180887372 340.75085324232083 256 Q 340.75085324232083 268.2320819112628 348.6143344709898 276.09556313993176 Q 356.4778156996587 283.9590443686007 368.70989761092153 283.9590443686007 Q 380.9419795221843 283.9590443686007 388.80546075085323 276.09556313993176 Q 396.6689419795222 268.2320819112628 396.6689419795222 256 L 396.6689419795222 256 Z M 368.70989761092153 242.02047781569965 Q 381.81569965870307 242.89419795221843 382.68941979522185 256 Q 381.81569965870307 269.1058020477816 368.70989761092153 269.9795221843003 Q 355.60409556313994 269.1058020477816 354.73037542662115 256 Q 355.60409556313994 242.89419795221843 368.70989761092153 242.02047781569965 L 368.70989761092153 242.02047781569965 Z" />
</svg>