<svg xmlns="http://www.w3.org/2000/svg" viewBox="0 0 452 452">
    <path d="M 4 4 Q 10 0 16 4 L 178 167 L 178 42 Q 179 35 186 34 Q 193 35 194 42 L 194 186 Q 193 193 186 194 L 42 194 Q 35 193 34 186 Q 35 179 42 178 L 167 178 L 4 16 Q 0 10 4 4 L 4 4 Z M 448 4 Q 452 10 448 16 L 285 178 L 410 178 Q 417 179 418 186 Q 417 193 410 194 L 266 194 Q 259 193 258 186 L 258 42 Q 259 35 266 34 Q 273 35 274 42 L 274 167 L 436 4 Q 442 0 448 4 L 448 4 Z M 42 274 Q 35 273 34 266 Q 35 259 42 258 L 186 258 Q 193 259 194 266 L 194 410 Q 193 417 186 418 Q 179 417 178 410 L 178 285 L 16 448 Q 10 452 4 448 Q 0 442 4 436 L 167 274 L 42 274 L 42 274 Z M 258 266 Q 259 259 266 258 L 410 258 Q 417 259 418 266 Q 417 273 410 274 L 285 274 L 448 436 Q 452 442 448 448 Q 442 452 436 448 L 274 285 L 274 410 Q 273 417 266 418 Q 259 417 258 410 L 258 266 L 258 266 Z"/>
</svg>
