<svg xmlns="http://www.w3.org/2000/svg" viewBox="0 0 512 512">
  <path d="M 327.1111111111111 42.666666666666664 Q 366.22222222222223 43.55555555555556 397.3333333333333 62.22222222222222 L 397.3333333333333 62.22222222222222 L 397.3333333333333 62.22222222222222 Q 428.44444444444446 81.77777777777777 449.77777777777777 108.44444444444444 Q 471.1111111111111 135.11111111111111 484.44444444444446 169.77777777777777 Q 497.77777777777777 203.55555555555554 497.77777777777777 241.77777777777777 Q 496.8888888888889 293.3333333333333 469.3333333333333 335.1111111111111 Q 441.77777777777777 376.8888888888889 402.6666666666667 404.44444444444446 Q 363.55555555555554 433.77777777777777 314.6666666666667 451.55555555555554 Q 265.77777777777777 469.3333333333333 213.33333333333334 469.3333333333333 Q 189.33333333333334 469.3333333333333 160 465.77777777777777 Q 130.66666666666666 462.22222222222223 102.22222222222223 453.3333333333333 Q 75.55555555555556 445.3333333333333 46.22222222222222 420.44444444444446 Q 16.88888888888889 396.44444444444446 14.222222222222221 348.44444444444446 Q 16 304 47.111111111111114 280.8888888888889 Q 71.11111111111111 263.1111111111111 100.44444444444444 248.88888888888889 Q 102.22222222222223 248 104 247.11111111111111 Q 105.77777777777777 246.22222222222223 107.55555555555556 245.33333333333334 Q 141.33333333333334 230.22222222222223 173.33333333333334 201.77777777777777 Q 183.11111111111111 191.11111111111111 189.33333333333334 178.66666666666666 Q 195.55555555555554 167.11111111111111 201.77777777777777 151.11111111111111 Q 202.66666666666666 151.11111111111111 202.66666666666666 151.11111111111111 L 202.66666666666666 150.22222222222223 L 202.66666666666666 150.22222222222223 Q 207.11111111111111 139.55555555555554 212.44444444444446 126.22222222222223 Q 217.77777777777777 114.66666666666667 225.77777777777777 99.55555555555556 Q 234.66666666666666 85.33333333333333 248.88888888888889 72 Q 280.8888888888889 42.666666666666664 327.1111111111111 42.666666666666664 L 327.1111111111111 42.666666666666664 Z M 327.1111111111111 28.444444444444443 Q 275.55555555555554 28.444444444444443 239.11111111111111 61.333333333333336 Q 223.11111111111111 76.44444444444444 214.22222222222223 92.44444444444444 Q 204.44444444444446 108.44444444444444 200 120.88888888888889 Q 194.66666666666666 131.55555555555554 191.11111111111111 140.44444444444446 Q 190.22222222222223 142.22222222222223 189.33333333333334 144.88888888888889 Q 189.33333333333334 144.88888888888889 189.33333333333334 144.88888888888889 Q 183.11111111111111 160.88888888888889 177.77777777777777 171.55555555555554 Q 171.55555555555554 182.22222222222223 162.66666666666666 191.11111111111111 Q 142.22222222222223 211.55555555555554 118.22222222222223 224 Q 105.77777777777777 230.22222222222223 94.22222222222223 236.44444444444446 Q 64.88888888888889 249.77777777777777 37.333333333333336 270.22222222222223 Q 2.6666666666666665 296.8888888888889 0 348.44444444444446 Q 0.8888888888888888 385.77777777777777 17.77777777777778 409.77777777777777 Q 35.55555555555556 433.77777777777777 57.77777777777778 447.1111111111111 Q 80.88888888888889 461.3333333333333 97.77777777777777 466.6666666666667 Q 127.11111111111111 476.44444444444446 158.22222222222223 480 Q 188.44444444444446 483.55555555555554 213.33333333333334 483.55555555555554 Q 268.44444444444446 482.6666666666667 319.1111111111111 464.8888888888889 Q 370.6666666666667 446.22222222222223 411.55555555555554 416 Q 451.55555555555554 386.6666666666667 480.8888888888889 342.22222222222223 Q 510.22222222222223 297.77777777777777 512 241.77777777777777 Q 512 200.88888888888889 497.77777777777777 164.44444444444446 Q 483.55555555555554 128 461.3333333333333 99.55555555555556 Q 439.1111111111111 71.11111111111111 404.44444444444446 50.666666666666664 Q 370.6666666666667 29.333333333333332 327.1111111111111 28.444444444444443 L 327.1111111111111 28.444444444444443 Z M 341.3333333333333 248.88888888888889 Q 321.77777777777777 247.11111111111111 320 227.55555555555554 Q 321.77777777777777 208 341.3333333333333 206.22222222222223 Q 360.8888888888889 208 362.6666666666667 227.55555555555554 Q 360.8888888888889 247.11111111111111 341.3333333333333 248.88888888888889 L 341.3333333333333 248.88888888888889 Z M 305.77777777777777 227.55555555555554 Q 306.6666666666667 248 323.55555555555554 258.6666666666667 Q 341.3333333333333 267.55555555555554 359.1111111111111 258.6666666666667 Q 376 248 376.8888888888889 227.55555555555554 Q 376 207.11111111111111 359.1111111111111 196.44444444444446 Q 341.3333333333333 187.55555555555554 323.55555555555554 196.44444444444446 Q 306.6666666666667 207.11111111111111 305.77777777777777 227.55555555555554 L 305.77777777777777 227.55555555555554 Z M 108.44444444444444 309.3333333333333 L 108.44444444444444 309.3333333333333 L 108.44444444444444 309.3333333333333 L 108.44444444444444 309.3333333333333 L 106.66666666666667 310.22222222222223 L 106.66666666666667 310.22222222222223 L 106.66666666666667 310.22222222222223 L 106.66666666666667 310.22222222222223 Q 87.11111111111111 317.3333333333333 75.55555555555556 326.22222222222223 Q 70.22222222222223 330.6666666666667 66.66666666666667 337.77777777777777 Q 64 344.8888888888889 64 352.8888888888889 Q 64 372.44444444444446 78.22222222222223 384.8888888888889 Q 92.44444444444444 398.22222222222223 115.55555555555556 405.3333333333333 Q 137.77777777777777 413.3333333333333 163.55555555555554 416 Q 189.33333333333334 419.55555555555554 211.55555555555554 419.55555555555554 Q 255.11111111111111 419.55555555555554 296.8888888888889 404.44444444444446 Q 339.55555555555554 389.3333333333333 373.3333333333333 363.55555555555554 Q 407.1111111111111 337.77777777777777 427.55555555555554 306.6666666666667 Q 447.1111111111111 274.6666666666667 448 240.88888888888889 Q 448 213.33333333333334 438.22222222222223 186.66666666666666 Q 427.55555555555554 160 411.55555555555554 138.66666666666666 Q 394.6666666666667 117.33333333333333 373.3333333333333 104.88888888888889 Q 352 92.44444444444444 329.77777777777777 92.44444444444444 Q 303.1111111111111 93.33333333333333 288.8888888888889 107.55555555555556 Q 274.6666666666667 121.77777777777777 265.77777777777777 144 Q 264 148.44444444444446 262.22222222222223 152 Q 260.44444444444446 156.44444444444446 259.55555555555554 160.88888888888889 L 259.55555555555554 160.88888888888889 L 259.55555555555554 160.88888888888889 L 259.55555555555554 160.88888888888889 L 259.55555555555554 160.88888888888889 Q 251.55555555555554 180.44444444444446 240.88888888888889 201.77777777777777 Q 230.22222222222223 223.11111111111111 212.44444444444446 241.77777777777777 Q 181.33333333333334 271.1111111111111 154.66666666666666 286.22222222222223 Q 128 301.3333333333333 108.44444444444444 309.3333333333333 Q 108.44444444444444 309.3333333333333 108.44444444444444 309.3333333333333 L 108.44444444444444 309.3333333333333 Z M 222.22222222222223 251.55555555555554 Q 241.77777777777777 231.11111111111111 253.33333333333334 208.88888888888889 L 253.33333333333334 208.88888888888889 L 253.33333333333334 208.88888888888889 Q 264.8888888888889 185.77777777777777 272 166.22222222222223 Q 273.77777777777777 163.55555555555554 274.6666666666667 160 Q 276.44444444444446 154.66666666666666 279.1111111111111 150.22222222222223 Q 288 128 298.6666666666667 117.33333333333333 Q 308.44444444444446 107.55555555555556 329.77777777777777 106.66666666666667 Q 367.1111111111111 107.55555555555556 400 147.55555555555554 Q 432 188.44444444444446 433.77777777777777 240.88888888888889 Q 433.77777777777777 270.22222222222223 415.1111111111111 298.6666666666667 Q 397.3333333333333 328 364.44444444444446 352 Q 332.44444444444446 376.8888888888889 292.44444444444446 391.1111111111111 Q 252.44444444444446 405.3333333333333 211.55555555555554 405.3333333333333 Q 189.33333333333334 405.3333333333333 165.33333333333334 402.6666666666667 Q 141.33333333333334 399.1111111111111 120 392 Q 77.33333333333333 376.8888888888889 78.22222222222223 352.8888888888889 Q 78.22222222222223 341.3333333333333 84.44444444444444 337.77777777777777 Q 92.44444444444444 331.55555555555554 112.88888888888889 322.6666666666667 L 113.77777777777777 322.6666666666667 L 113.77777777777777 322.6666666666667 Q 113.77777777777777 322.6666666666667 113.77777777777777 322.6666666666667 Q 134.22222222222223 314.6666666666667 162.66666666666666 298.6666666666667 Q 190.22222222222223 282.6666666666667 222.22222222222223 251.55555555555554 L 222.22222222222223 251.55555555555554 Z" />
</svg>