<svg xmlns="http://www.w3.org/2000/svg" viewBox="0 0 512 512">
  <path d="M 45.714287 9.142858 Q 46.857143 1.1428572 54.857143 0 L 91.42857 0 L 301.7143 0 Q 356.57144 1.1428572 392 37.714287 Q 428.57144 73.14286 429.7143 128 Q 429.7143 165.71428 410.2857 195.42857 Q 392 225.14285 361.14285 241.14285 Q 406.85715 252.57143 436.57144 289.14285 Q 465.14285 325.7143 466.2857 374.85715 Q 465.14285 433.14285 426.2857 472 Q 387.42856 510.85715 329.14285 512 L 128 512 L 54.857143 512 Q 46.857143 510.85715 45.714287 502.85715 Q 46.857143 494.85715 54.857143 493.7143 L 82.28571 493.7143 L 82.28571 493.7143 L 82.28571 246.85715 L 82.28571 246.85715 L 82.28571 18.285715 L 82.28571 18.285715 L 54.857143 18.285715 L 54.857143 18.285715 Q 46.857143 17.142857 45.714287 9.142858 L 45.714287 9.142858 Z M 100.57143 493.7143 L 128 493.7143 L 100.57143 493.7143 L 329.14285 493.7143 Q 379.42856 492.57144 413.7143 459.42856 Q 446.85715 425.14285 448 374.85715 Q 446.85715 324.57144 413.7143 290.2857 Q 379.42856 257.14285 329.14285 256 L 301.7143 256 L 100.57143 256 L 100.57143 493.7143 L 100.57143 493.7143 Z M 100.57143 237.71428 L 301.7143 237.71428 L 100.57143 237.71428 L 301.7143 237.71428 Q 348.57144 236.57143 379.42856 205.71428 Q 410.2857 174.85715 411.42856 128 Q 410.2857 81.14286 379.42856 50.285713 Q 348.57144 19.428572 301.7143 18.285715 L 128 18.285715 L 100.57143 18.285715 L 100.57143 237.71428 L 100.57143 237.71428 Z" />
</svg>