<svg xmlns="http://www.w3.org/2000/svg" viewBox="0 0 512 512">
  <path d="M 98.46154 29.538462 Q 99.69231 20.923077 108.30769 19.692308 L 137.84616 19.692308 L 137.84616 19.692308 Q 146.46153 20.923077 147.6923 29.538462 L 147.6923 49.23077 L 147.6923 49.23077 Q 150.15384 76.30769 177.23077 78.76923 L 196.92308 78.76923 L 196.92308 78.76923 Q 224 76.30769 226.46153 49.23077 L 226.46153 29.538462 L 226.46153 29.538462 Q 227.6923 20.923077 236.3077 19.692308 L 275.69232 19.692308 L 275.69232 19.692308 Q 284.30768 20.923077 285.53845 29.538462 L 285.53845 49.23077 L 285.53845 49.23077 Q 288 76.30769 315.07693 78.76923 L 334.76923 78.76923 L 334.76923 78.76923 Q 361.84616 76.30769 364.30768 49.23077 L 364.30768 29.538462 L 364.30768 29.538462 Q 365.53845 20.923077 374.15384 19.692308 L 403.69232 19.692308 L 403.69232 19.692308 Q 412.30768 20.923077 413.53845 29.538462 L 413.53845 160 L 413.53845 160 Q 413.53845 163.6923 411.07693 166.15384 L 366.76923 220.3077 L 366.76923 220.3077 Q 364.30768 222.76923 364.30768 226.46153 L 372.92307 354.46155 L 372.92307 354.46155 L 392.6154 354.46155 L 392.6154 354.46155 L 384 230.15384 L 384 230.15384 L 427.07693 179.6923 L 427.07693 179.6923 Q 433.23077 171.07692 433.23077 160 L 433.23077 29.538462 L 433.23077 29.538462 Q 430.76923 2.4615386 403.69232 0 L 374.15384 0 L 374.15384 0 Q 347.07693 2.4615386 344.6154 29.538462 L 344.6154 49.23077 L 344.6154 49.23077 Q 343.3846 57.846153 334.76923 59.076923 L 315.07693 59.076923 L 315.07693 59.076923 Q 305.23077 57.846153 305.23077 49.23077 L 305.23077 29.538462 L 305.23077 29.538462 Q 301.53845 2.4615386 275.69232 0 L 236.3077 0 L 236.3077 0 Q 209.23077 2.4615386 206.76923 29.538462 L 206.76923 49.23077 L 206.76923 49.23077 Q 205.53847 57.846153 196.92308 59.076923 L 177.23077 59.076923 L 177.23077 59.076923 Q 168.61539 57.846153 167.38461 49.23077 L 167.38461 29.538462 L 167.38461 29.538462 Q 164.92308 2.4615386 137.84616 0 L 108.30769 0 L 108.30769 0 Q 81.23077 2.4615386 78.76923 29.538462 L 78.76923 160 L 78.76923 160 Q 78.76923 171.07692 86.15385 179.6923 L 128 230.15384 L 128 230.15384 L 120.61539 354.46155 L 120.61539 354.46155 L 140.3077 354.46155 L 140.3077 354.46155 L 147.6923 227.6923 L 147.6923 227.6923 Q 147.6923 222.76923 145.23077 220.3077 L 100.92308 166.15384 L 100.92308 166.15384 Q 98.46154 163.6923 98.46154 160 L 98.46154 29.538462 L 98.46154 29.538462 Z M 104.61539 406.15384 L 65.23077 461.53845 L 104.61539 406.15384 L 65.23077 461.53845 Q 59.076923 468.92307 59.076923 478.76923 L 59.076923 482.46155 L 59.076923 482.46155 Q 61.53846 509.53845 88.61539 512 L 423.3846 512 L 423.3846 512 Q 450.46155 509.53845 452.92307 482.46155 L 452.92307 478.76923 L 452.92307 478.76923 Q 452.92307 468.92307 448 461.53845 L 407.3846 406.15384 L 407.3846 406.15384 Q 398.76923 393.84616 384 393.84616 L 128 393.84616 L 128 393.84616 Q 113.23077 393.84616 104.61539 406.15384 L 104.61539 406.15384 Z M 128 413.53845 L 384 413.53845 L 128 413.53845 L 384 413.53845 Q 388.92307 413.53845 391.3846 417.23077 L 432 473.84616 L 432 473.84616 Q 433.23077 476.30768 433.23077 478.76923 L 433.23077 482.46155 L 433.23077 482.46155 Q 432 491.07693 423.3846 492.30768 L 88.61539 492.30768 L 88.61539 492.30768 Q 80 491.07693 78.76923 482.46155 L 78.76923 478.76923 L 78.76923 478.76923 Q 78.76923 476.30768 81.23077 473.84616 L 120.61539 417.23077 L 120.61539 417.23077 Q 123.07692 413.53845 128 413.53845 L 128 413.53845 Z M 256 157.53847 Q 238.76923 157.53847 227.6923 168.61539 L 227.6923 168.61539 L 227.6923 168.61539 Q 216.61539 179.6923 216.61539 196.92308 L 216.61539 246.15384 L 216.61539 246.15384 Q 217.84616 254.76923 226.46153 256 L 285.53845 256 L 285.53845 256 Q 294.15384 254.76923 295.3846 246.15384 L 295.3846 196.92308 L 295.3846 196.92308 Q 295.3846 179.6923 284.30768 168.61539 Q 273.23077 157.53847 256 157.53847 L 256 157.53847 Z M 236.3077 196.92308 Q 237.53847 178.46153 256 177.23077 Q 274.46155 178.46153 275.69232 196.92308 L 275.69232 236.3077 L 275.69232 236.3077 L 236.3077 236.3077 L 236.3077 236.3077 L 236.3077 196.92308 L 236.3077 196.92308 Z" />
</svg>