<svg xmlns="http://www.w3.org/2000/svg" viewBox="0 0 512 512">
  <path d="M 113.77778 35.555557 Q 112.888885 29.333334 106.666664 28.444445 Q 100.44444 29.333334 99.55556 35.555557 L 99.55556 85.333336 L 99.55556 85.333336 L 56.88889 85.333336 L 56.88889 85.333336 Q 32.88889 86.22222 16.88889 102.22222 Q 0.8888889 118.22222 0 142.22223 L 0 184.88889 L 0 184.88889 L 0 199.11111 L 0 199.11111 L 0 426.66666 L 0 426.66666 Q 0.8888889 450.66666 16.88889 466.66666 Q 32.88889 482.66666 56.88889 483.55554 L 294.22223 483.55554 L 294.22223 483.55554 Q 284.44446 477.33334 276.44446 469.33334 L 56.88889 469.33334 L 56.88889 469.33334 Q 39.11111 468.44446 26.666666 456.8889 Q 15.111111 444.44446 14.222222 426.66666 L 14.222222 199.11111 L 14.222222 199.11111 L 312.8889 199.11111 L 398.22223 199.11111 L 398.22223 184.88889 L 398.22223 184.88889 L 398.22223 142.22223 L 398.22223 142.22223 Q 397.33334 118.22222 381.33334 102.22222 Q 365.33334 86.22222 341.33334 85.333336 L 298.66666 85.333336 L 298.66666 85.333336 L 298.66666 35.555557 L 298.66666 35.555557 Q 297.77777 29.333334 291.55554 28.444445 Q 285.33334 29.333334 284.44446 35.555557 L 284.44446 85.333336 L 284.44446 85.333336 L 113.77778 85.333336 L 113.77778 85.333336 L 113.77778 35.555557 L 113.77778 35.555557 Z M 99.55556 99.55556 L 99.55556 135.11111 L 99.55556 99.55556 L 99.55556 135.11111 Q 100.44444 141.33333 106.666664 142.22223 Q 112.888885 141.33333 113.77778 135.11111 L 113.77778 99.55556 L 113.77778 99.55556 L 284.44446 99.55556 L 284.44446 99.55556 L 284.44446 135.11111 L 284.44446 135.11111 Q 285.33334 141.33333 291.55554 142.22223 Q 297.77777 141.33333 298.66666 135.11111 L 298.66666 99.55556 L 298.66666 99.55556 L 341.33334 99.55556 L 341.33334 99.55556 Q 359.1111 100.44444 371.55554 112 Q 383.1111 124.44444 384 142.22223 L 384 184.88889 L 384 184.88889 L 14.222222 184.88889 L 14.222222 184.88889 L 14.222222 142.22223 L 14.222222 142.22223 Q 15.111111 124.44444 26.666666 112 Q 39.11111 100.44444 56.88889 99.55556 L 99.55556 99.55556 L 99.55556 99.55556 Z M 453.33334 446.22223 Q 424 468.44446 384 469.33334 Q 344 468.44446 314.66666 446.22223 L 317.33334 440 L 317.33334 440 Q 332.44446 413.33334 362.66666 412.44446 L 405.33334 412.44446 L 405.33334 412.44446 Q 435.55554 413.33334 450.66666 440 L 453.33334 446.22223 L 453.33334 446.22223 Z M 464 436.44446 L 463.1111 433.77777 L 464 436.44446 L 463.1111 433.77777 Q 444.44446 400 405.33334 398.22223 L 362.66666 398.22223 L 362.66666 398.22223 Q 323.55554 400 304.8889 433.77777 L 304 436.44446 L 304 436.44446 Q 271.1111 404.44446 270.22223 355.55554 Q 271.1111 307.55554 303.1111 274.66666 Q 336 242.66667 384 241.77777 Q 432 242.66667 464.8889 274.66666 Q 496.8889 307.55554 497.77777 355.55554 Q 496.8889 404.44446 464 436.44446 L 464 436.44446 Z M 512 355.55554 Q 512 320.8889 495.1111 291.55554 L 495.1111 291.55554 L 495.1111 291.55554 Q 478.22223 262.22223 448 244.44444 Q 417.77777 227.55556 384 227.55556 Q 350.22223 227.55556 320 244.44444 Q 289.77777 262.22223 272.8889 291.55554 Q 256 320.8889 256 355.55554 Q 256 390.22223 272.8889 419.55554 Q 289.77777 448.8889 320 466.66666 Q 350.22223 483.55554 384 483.55554 Q 417.77777 483.55554 448 466.66666 Q 478.22223 448.8889 495.1111 419.55554 Q 512 390.22223 512 355.55554 L 512 355.55554 Z M 384 298.66666 Q 396.44446 298.66666 404.44446 306.66666 L 404.44446 306.66666 L 404.44446 306.66666 Q 412.44446 314.66666 412.44446 327.1111 Q 412.44446 339.55554 404.44446 347.55554 Q 396.44446 355.55554 384 355.55554 Q 371.55554 355.55554 363.55554 347.55554 Q 355.55554 339.55554 355.55554 327.1111 Q 355.55554 314.66666 363.55554 306.66666 Q 371.55554 298.66666 384 298.66666 L 384 298.66666 Z M 384 369.77777 Q 408 368.8889 421.33334 348.44446 Q 432 327.1111 421.33334 305.77777 Q 408 285.33334 384 284.44446 Q 360 285.33334 346.66666 305.77777 Q 336 327.1111 346.66666 348.44446 Q 360 368.8889 384 369.77777 L 384 369.77777 Z" />
</svg>