<svg xmlns="http://www.w3.org/2000/svg" viewBox="0 0 512 512">
  <path d="M 70.4 154.4 L 68.8 244 L 70.4 154.4 L 68.8 244 Q 78.4 238.4 90.4 235.2 L 312.8 175.2 L 312.8 175.2 Q 324 172.8 335.2 172.8 L 289.6 96 L 289.6 96 Q 280.8 83.2 268 77.6 Q 254.4 72 239.2 76 L 104 112 L 104 112 Q 88.8 116 80 128 Q 71.2 139.2 70.4 154.4 L 70.4 154.4 Z M 56 254.4 L 57.6 154.4 L 56 254.4 L 57.6 154.4 Q 58.4 135.2 69.6 120 Q 81.6 105.6 100.8 100 L 236 63.2 L 236 63.2 Q 255.2 58.4 272.8 65.6 Q 289.6 72.8 300 89.6 L 352 175.2 L 352 175.2 Q 371.2 180.8 386.4 194.4 Q 400.8 208.8 406.4 229.6 L 423.2 292 L 423.2 292 L 426.4 304 L 426.4 304 L 432.8 328.8 L 432.8 328.8 Q 436 339.2 430.4 348 Q 425.6 356.8 415.2 360 L 390.4 366.4 L 390.4 366.4 Q 380 369.6 371.2 364 Q 362.4 359.2 359.2 348.8 L 352 324 L 352 324 L 129.6 383.2 L 129.6 383.2 L 136.8 408 L 136.8 408 Q 139.2 419.2 133.6 428 Q 128.8 436.8 118.4 440 L 113.6 440.8 L 113.6 440.8 L 505.6 440.8 L 505.6 440.8 Q 511.2 441.6 512 447.2 Q 511.2 452.8 505.6 453.6 L 6.4 453.6 L 6.4 453.6 Q 0.8 452.8 0 447.2 Q 0.8 441.6 6.4 440.8 L 70.4 440.8 L 70.4 440.8 Q 64.8 436 62.4 428 L 55.2 403.2 L 55.2 403.2 L 52 391.2 L 52 391.2 L 36 329.6 L 36 329.6 Q 30.4 308 36 288.8 Q 41.6 268.8 56 254.4 L 56 254.4 Z M 68 400 L 74.4 424.8 L 68 400 L 74.4 424.8 Q 78.4 436 90.4 433.6 L 115.2 427.2 L 115.2 427.2 Q 125.6 423.2 124 411.2 L 117.6 387.2 L 117.6 387.2 L 68 400 L 68 400 Z M 348.8 311.2 L 361.6 308 L 348.8 311.2 L 361.6 308 L 411.2 295.2 L 411.2 295.2 L 394.4 232.8 L 394.4 232.8 Q 386.4 207.2 364.8 194.4 Q 342.4 181.6 316 188 L 93.6 247.2 L 93.6 247.2 Q 67.2 255.2 54.4 277.6 Q 41.6 299.2 48 325.6 L 64.8 388 L 64.8 388 L 114.4 374.4 L 114.4 374.4 L 126.4 371.2 L 126.4 371.2 L 348.8 311.2 L 348.8 311.2 Z M 371.2 345.6 Q 375.2 356 387.2 354.4 L 412 348 L 412 348 Q 422.4 343.2 420.8 332 L 414.4 307.2 L 414.4 307.2 L 364.8 320.8 L 364.8 320.8 L 371.2 345.6 L 371.2 345.6 Z M 122.4 306.4 Q 120 299.2 112.8 296.8 Q 106.4 295.2 100.8 300 Q 96 305.6 97.6 312.8 Q 99.2 320 106.4 321.6 Q 113.6 323.2 119.2 318.4 Q 124 312.8 122.4 306.4 L 122.4 306.4 Z M 84.8 316 Q 81.6 301.6 91.2 291.2 Q 102.4 280.8 116.8 284 Q 130.4 288.8 134.4 302.4 Q 138.4 316.8 128 328 Q 117.6 337.6 103.2 334.4 Q 88.8 330.4 84.8 316 L 84.8 316 Z M 336 262.4 Q 342.4 260 344.8 252.8 Q 346.4 245.6 341.6 240.8 Q 336 235.2 328.8 237.6 Q 321.6 239.2 320 246.4 Q 318.4 253.6 323.2 259.2 Q 328.8 264 336 262.4 L 336 262.4 Z M 325.6 224.8 Q 336 222.4 345.6 227.2 L 345.6 227.2 L 345.6 227.2 Q 354.4 232.8 356.8 243.2 Q 360 253.6 354.4 262.4 Q 349.6 271.2 339.2 274.4 Q 324.8 277.6 313.6 268 Q 304 257.6 307.2 243.2 Q 312 228.8 325.6 224.8 L 325.6 224.8 Z" />
</svg>