<svg xmlns="http://www.w3.org/2000/svg" viewBox="0 0 512 512">
  <path d="M 204.8 51.2 Q 192.8 51.2 183.2 59.2 L 183.2 59.2 L 183.2 59.2 Q 174.4 67.2 168 77.6 Q 154.4 100.8 153.6 122.4 L 153.6 192 L 153.6 192 L 153.6 192.8 L 153.6 192.8 L 16.8 268.8 L 16.8 268.8 Q 0.8 278.4 0 296.8 L 0 335.2 L 0 335.2 Q 0 344.8 7.2 350.4 Q 14.4 356 24 353.6 L 153.6 318.4 L 153.6 318.4 L 153.6 332.8 L 153.6 332.8 L 153.6 368 L 153.6 368 L 110.4 400.8 L 110.4 400.8 Q 102.4 406.4 102.4 416 L 102.4 443.2 L 102.4 443.2 Q 104 459.2 120 460.8 Q 122.4 460.8 124.8 460 L 204.8 435.2 L 204.8 435.2 L 284.8 460 L 284.8 460 Q 287.2 460.8 289.6 460.8 Q 292 460.8 294.4 460 L 294.4 443.2 L 294.4 443.2 Q 293.6 448 289.6 448 Q 288.8 448 288 448 L 286.4 453.6 L 286.4 453.6 L 288 448 L 288 448 L 206.4 422.4 L 206.4 422.4 Q 204.8 422.4 203.2 422.4 L 121.6 448 L 121.6 448 Q 120.8 448 120 448 Q 115.2 448 115.2 443.2 L 115.2 416 L 115.2 416 Q 115.2 412.8 117.6 411.2 L 164 376 L 164 376 Q 166.4 374.4 166.4 371.2 L 166.4 332.8 L 166.4 332.8 L 166.4 309.6 L 166.4 309.6 L 166.4 196.8 L 166.4 196.8 L 166.4 192 L 166.4 192 L 166.4 122.4 L 166.4 122.4 Q 166.4 104.8 178.4 84.8 Q 191.2 64.8 204.8 64 Q 219.2 64.8 231.2 84.8 Q 243.2 104.8 243.2 122.4 L 243.2 192 L 243.2 192 L 243.2 196.8 L 243.2 196.8 L 243.2 196.8 L 243.2 196.8 L 243.2 309.6 L 243.2 309.6 L 243.2 332.8 L 243.2 332.8 L 243.2 371.2 L 243.2 371.2 Q 243.2 374.4 245.6 376 L 272 396 L 272 396 Q 268 385.6 265.6 375.2 L 256 368 L 256 368 L 256 332.8 L 256 332.8 L 256 318.4 L 256 318.4 L 264.8 320.8 L 264.8 320.8 Q 265.6 314.4 267.2 308 L 256 304.8 L 256 304.8 L 256 208 L 256 208 L 312 238.4 L 312 238.4 Q 316.8 233.6 323.2 229.6 L 256 192.8 L 256 192.8 L 256 192 L 256 192 L 256 122.4 L 256 122.4 Q 255.2 100.8 242.4 77.6 Q 236 67.2 226.4 59.2 Q 216.8 51.2 204.8 51.2 L 204.8 51.2 Z M 22.4 280 L 153.6 208 L 22.4 280 L 153.6 208 L 153.6 304.8 L 153.6 304.8 L 20.8 341.6 L 20.8 341.6 Q 13.6 342.4 12.8 335.2 L 12.8 296.8 L 12.8 296.8 Q 12.8 285.6 22.4 280 L 22.4 280 Z M 294.4 345.6 Q 294.4 317.6 308 294.4 L 308 294.4 L 308 294.4 Q 321.6 271.2 345.6 256.8 Q 369.6 243.2 396.8 243.2 Q 424 243.2 448 256.8 Q 472 271.2 485.6 294.4 Q 499.2 317.6 499.2 345.6 Q 499.2 373.6 485.6 396.8 Q 472 420 448 434.4 Q 424 448 396.8 448 Q 369.6 448 345.6 434.4 Q 321.6 420 308 396.8 Q 294.4 373.6 294.4 345.6 L 294.4 345.6 Z M 512 345.6 Q 512 314.4 496.8 288 L 496.8 288 L 496.8 288 Q 481.6 261.6 454.4 245.6 Q 427.2 230.4 396.8 230.4 Q 366.4 230.4 339.2 245.6 Q 312 261.6 296.8 288 Q 281.6 314.4 281.6 345.6 Q 281.6 376.8 296.8 403.2 Q 312 429.6 339.2 445.6 Q 366.4 460.8 396.8 460.8 Q 427.2 460.8 454.4 445.6 Q 481.6 429.6 496.8 403.2 Q 512 376.8 512 345.6 L 512 345.6 Z M 446.4 305.6 Q 449.6 300.8 446.4 296 Q 441.6 292.8 436.8 296 L 396.8 336.8 L 396.8 336.8 L 356.8 296 L 356.8 296 Q 352 292.8 347.2 296 Q 344 300.8 347.2 305.6 L 388 345.6 L 388 345.6 L 347.2 385.6 L 347.2 385.6 Q 344 390.4 347.2 395.2 Q 352 398.4 356.8 395.2 L 396.8 354.4 L 396.8 354.4 L 436.8 395.2 L 436.8 395.2 Q 441.6 398.4 446.4 395.2 Q 449.6 390.4 446.4 385.6 L 405.6 345.6 L 405.6 345.6 L 446.4 305.6 L 446.4 305.6 Z" />
</svg>