<svg xmlns="http://www.w3.org/2000/svg" viewBox="0 0 640 512">
    <path d="M 85 16 L 85 16 Q 81 23 77 33 Q 72 43 72 48 Q 74 68 90 83 Q 95 88 91 94 L 27 173 Q 16 187 16 205 Q 17 226 31 241 Q 45 255 66 256 Q 85 256 99 244 L 139 210 Q 142 207 146 208 Q 150 209 152 213 L 190 320 L 560 320 L 560 216 Q 559 192 544 176 Q 528 161 504 160 L 456 160 L 456 160 L 270 160 Q 253 160 241 148 L 193 99 Q 190 96 191 93 Q 191 89 193 87 Q 213 72 216 48 Q 216 43 212 33 Q 207 23 204 17 Q 204 16 203 16 L 203 16 L 203 16 L 203 16 Q 203 16 203 16 Q 203 16 203 16 Q 203 16 203 16 L 149 62 Q 144 66 139 62 L 85 16 Q 85 16 85 16 Q 85 16 85 16 Q 85 16 85 16 Q 85 16 85 16 Q 85 16 85 16 Q 85 16 85 16 L 85 16 Z M 553 163 Q 575 184 576 216 L 576 328 L 576 472 Q 576 489 564 500 Q 553 512 536 512 L 504 512 Q 487 512 476 500 Q 464 489 464 472 L 464 400 L 288 400 L 288 472 Q 288 489 276 500 Q 265 512 248 512 L 216 512 Q 199 512 188 500 Q 176 489 176 472 L 176 329 L 140 230 L 110 256 Q 91 272 66 272 Q 38 271 19 252 Q 1 233 0 205 Q 0 181 15 163 L 74 89 Q 58 73 56 48 Q 57 37 62 26 Q 67 15 71 8 Q 76 0 85 0 Q 91 0 96 4 L 144 46 L 192 4 Q 197 0 203 0 Q 212 0 217 8 Q 221 15 226 26 Q 231 37 232 48 Q 229 77 210 93 L 252 137 Q 260 144 270 144 L 504 144 Q 504 144 504 144 Q 504 144 504 144 L 528 144 Q 576 145 607 177 Q 639 208 640 256 L 640 264 Q 639 271 632 272 Q 625 271 624 264 L 624 256 Q 623 222 604 197 Q 584 172 553 163 L 553 163 Z M 192 472 Q 194 494 216 496 L 248 496 Q 270 494 272 472 L 272 392 Q 273 385 280 384 L 472 384 Q 479 385 480 392 L 480 472 Q 482 494 504 496 L 536 496 Q 558 494 560 472 L 560 336 L 192 336 L 192 472 L 192 472 Z M 264 208 L 264 232 L 288 232 Q 295 233 296 240 Q 295 247 288 248 L 264 248 L 264 272 Q 263 279 256 280 Q 249 279 248 272 L 248 248 L 224 248 Q 217 247 216 240 Q 217 233 224 232 L 248 232 L 248 208 Q 249 201 256 200 Q 263 201 264 208 L 264 208 Z M 368 200 Q 375 201 376 208 L 376 232 L 400 232 Q 407 233 408 240 Q 407 247 400 248 L 376 248 L 376 272 Q 375 279 368 280 Q 361 279 360 272 L 360 248 L 336 248 Q 329 247 328 240 Q 329 233 336 232 L 360 232 L 360 208 Q 361 201 368 200 L 368 200 Z M 488 208 L 488 232 L 512 232 Q 519 233 520 240 Q 519 247 512 248 L 488 248 L 488 272 Q 487 279 480 280 Q 473 279 472 272 L 472 248 L 448 248 Q 441 247 440 240 Q 441 233 448 232 L 472 232 L 472 208 Q 473 201 480 200 Q 487 201 488 208 L 488 208 Z"/>
</svg>
