<svg xmlns="http://www.w3.org/2000/svg" viewBox="0 0 512 512">
  <path d="M 237.57199 202.21011 L 220.63814 265.9611 L 237.57199 202.21011 L 220.63814 265.9611 Q 214.66148 290.8638 231.59534 310.78598 L 302.31906 387.4864 L 302.31906 387.4864 Q 305.3074 390.4747 306.3035 394.45914 L 328.2179 482.11673 L 328.2179 482.11673 Q 332.20233 496.06226 347.14398 493.07394 Q 361.0895 489.0895 359.0973 474.14786 L 336.18677 382.50583 L 336.18677 382.50583 Q 333.19846 374.53696 328.2179 368.5603 L 279.40857 314.77042 L 279.40857 314.77042 Q 273.43192 307.79767 275.42413 299.8288 L 294.3502 234.0856 L 294.3502 234.0856 Q 298.33463 224.12451 309.29184 223.1284 Q 320.24902 223.1284 324.23346 233.0895 L 335.19067 256.9961 L 335.19067 256.9961 Q 338.179 264.96497 345.15176 269.94553 L 373.04282 291.85992 L 373.04282 291.85992 Q 385.99222 298.83267 395.9533 287.8755 Q 402.92606 275.92218 391.96887 265.9611 L 367.06616 247.03502 L 367.06616 247.03502 Q 364.07782 245.0428 362.0856 241.05836 L 346.14786 201.214 L 346.14786 201.214 Q 334.19455 174.31906 311.28406 159.37743 Q 288.37354 143.43968 259.4864 143.43968 Q 228.60701 143.43968 199.71985 155.39299 L 193.7432 158.38132 L 193.7432 158.38132 Q 146.92607 180.29572 131.98444 230.10117 L 128 242.05447 L 128 242.05447 Q 126.00778 256.9961 138.9572 261.97665 Q 153.89883 264.96497 158.87938 251.01945 L 162.86382 238.07004 L 162.86382 238.07004 Q 173.82101 203.20622 206.69261 187.26848 L 212.66927 185.27626 L 212.66927 185.27626 L 212.66927 185.27626 L 212.66927 185.27626 Q 214.66148 184.28015 215.6576 183.28404 Q 225.61868 180.29572 232.59145 186.27237 Q 239.56421 193.24513 237.57199 202.21011 L 237.57199 202.21011 Z M 339.1751 51.797665 Q 339.1751 36.85603 328.2179 26.894941 L 328.2179 26.894941 L 328.2179 26.894941 Q 318.2568 15.937743 303.3152 15.937743 Q 288.37354 15.937743 278.41245 26.894941 Q 267.45526 36.85603 267.45526 51.797665 Q 267.45526 66.739296 278.41245 76.700386 Q 288.37354 87.657585 303.3152 87.657585 Q 318.2568 87.657585 328.2179 76.700386 Q 339.1751 66.739296 339.1751 51.797665 L 339.1751 51.797665 Z M 213.66537 202.21011 Q 207.68872 205.19844 202.70818 208.18677 Q 184.77821 221.13618 178.80156 243.05058 L 174.81712 256 L 174.81712 256 Q 170.83269 268.9494 159.87549 274.92606 Q 147.92218 280.9027 134.97276 277.9144 Q 122.023346 273.92996 116.04669 262.97275 Q 110.07004 251.01945 113.058365 238.07004 L 117.0428 225.12062 L 117.0428 225.12062 Q 133.97665 169.33852 187.76654 143.43968 L 193.7432 141.44746 L 193.7432 141.44746 Q 224.62257 127.501945 259.4864 127.501945 Q 293.3541 127.501945 320.24902 146.42801 Q 347.14398 164.35797 361.0895 195.23735 L 377.02725 235.08171 L 377.02725 235.08171 L 401.92996 253.01167 L 401.92996 253.01167 Q 412.88715 261.97665 414.87936 273.92996 Q 415.8755 286.87936 408.9027 297.83658 Q 399.93774 308.79376 387.98444 310.78598 Q 375.03503 311.7821 364.07782 304.80933 L 335.19067 282.89493 L 335.19067 282.89493 Q 325.22958 274.92606 320.24902 262.97275 L 319.25293 261.97665 L 319.25293 261.97665 L 310.28793 239.06615 L 310.28793 239.06615 L 302.31906 262.97275 L 302.31906 262.97275 L 290.36575 303.81323 L 290.36575 303.81323 L 340.1712 357.60312 L 340.1712 357.60312 Q 348.14008 366.56808 351.12842 378.5214 L 374.0389 470.16342 L 374.0389 470.16342 Q 377.02725 484.10895 370.05447 495.06616 Q 364.07782 505.02725 351.12842 509.0117 Q 337.1829 512 326.22568 506.02335 Q 316.2646 499.0506 312.28015 486.10117 L 290.36575 398.44357 L 290.36575 398.44357 L 219.64203 321.7432 L 219.64203 321.7432 Q 197.72763 294.84824 205.6965 261.97665 L 216.6537 218.14786 L 216.6537 218.14786 L 218.64592 213.16731 L 218.64592 213.16731 L 220.63814 203.20622 L 220.63814 203.20622 L 221.63425 198.22568 L 221.63425 198.22568 Q 221.63425 199.22179 220.63814 199.22179 Q 219.64203 199.22179 219.64203 199.22179 L 213.66537 202.21011 L 213.66537 202.21011 Z M 303.3152 0 Q 332.20233 0.99610895 348.14008 25.898832 Q 362.0856 51.797665 348.14008 77.696495 Q 332.20233 102.59922 303.3152 103.59533 Q 274.428 102.59922 258.49026 77.696495 Q 244.54475 51.797665 258.49026 25.898832 Q 274.428 0.99610895 303.3152 0 L 303.3152 0 Z M 198.72374 352.62256 L 178.80156 404.42023 L 198.72374 352.62256 L 178.80156 404.42023 L 177.80545 405.41635 L 177.80545 405.41635 L 176.80934 406.41245 L 176.80934 406.41245 L 117.0428 467.1751 L 117.0428 467.1751 Q 107.08171 478.1323 117.0428 489.0895 Q 128 499.0506 138.9572 489.0895 L 200.71596 428.32684 L 200.71596 428.32684 Q 205.6965 423.3463 207.68872 417.36966 L 222.63036 379.51752 L 222.63036 379.51752 Q 226.61479 372.54474 233.58755 375.53308 Q 239.56421 378.5214 237.57199 385.49417 L 222.63036 423.3463 L 222.63036 423.3463 Q 218.64592 432.31128 211.67316 439.28406 L 150.9105 501.04282 L 150.9105 501.04282 Q 140.94942 510.00778 128 510.00778 Q 115.05058 510.00778 105.08949 501.04282 Q 96.12451 491.08173 96.12451 478.1323 Q 96.12451 465.1829 105.08949 455.2218 L 164.85603 396.45135 L 164.85603 396.45135 L 184.77821 346.6459 L 184.77821 346.6459 Q 187.76654 340.66925 194.7393 342.66147 Q 200.71596 345.6498 198.72374 352.62256 L 198.72374 352.62256 Z" />
</svg>