<svg xmlns="http://www.w3.org/2000/svg" viewBox="0 0 512 512">
  <path d="M 51.2 76.8 L 307.2 76.8 L 51.2 76.8 L 307.2 76.8 Q 323.2 77.6 334.4 88 Q 344.8 99.2 345.6 115.2 L 345.6 219.2 L 345.6 219.2 Q 352 220.8 358.4 223.2 L 358.4 115.2 L 358.4 115.2 Q 357.6 93.6 343.2 79.2 Q 328.8 64.8 307.2 64 L 51.2 64 L 51.2 64 Q 29.6 64.8 15.2 79.2 Q 0.8 93.6 0 115.2 L 0 371.2 L 0 371.2 Q 0.8 392.8 15.2 407.2 Q 29.6 421.6 51.2 422.4 L 190.4 422.4 L 190.4 422.4 Q 187.2 416 184.8 409.6 L 51.2 409.6 L 51.2 409.6 Q 35.2 408.8 24 398.4 Q 13.6 387.2 12.8 371.2 L 12.8 115.2 L 12.8 115.2 Q 13.6 99.2 24 88 Q 35.2 77.6 51.2 76.8 L 51.2 76.8 Z M 76.8 121.6 Q 76 116 70.4 115.2 Q 64.8 116 64 121.6 L 64 262.4 L 64 262.4 Q 64.8 268 70.4 268.8 Q 76 268 76.8 262.4 L 76.8 121.6 L 76.8 121.6 Z M 128 121.6 Q 127.2 116 121.6 115.2 Q 116 116 115.2 121.6 L 115.2 262.4 L 115.2 262.4 Q 116 268 121.6 268.8 Q 127.2 268 128 262.4 L 128 121.6 L 128 121.6 Z M 268.8 313.6 Q 269.6 288.8 285.6 272.8 L 285.6 272.8 L 285.6 272.8 Q 301.6 256.8 326.4 256 Q 362.4 257.6 378.4 288 Q 379.2 290.4 382.4 291.2 Q 385.6 292 388 289.6 Q 396.8 281.6 409.6 281.6 Q 423.2 281.6 432 291.2 Q 441.6 300 441.6 313.6 L 441.6 313.6 L 441.6 313.6 Q 442.4 319.2 447.2 320 Q 469.6 323.2 484 339.2 Q 498.4 354.4 499.2 377.6 Q 498.4 402.4 482.4 418.4 Q 466.4 434.4 441.6 435.2 L 275.2 435.2 L 275.2 435.2 Q 250.4 434.4 234.4 418.4 Q 218.4 402.4 217.6 377.6 Q 218.4 356 230.4 340.8 Q 243.2 325.6 264 320.8 Q 268.8 320 268.8 314.4 Q 268.8 314.4 268.8 314.4 Q 268.8 313.6 268.8 313.6 L 268.8 313.6 Z M 326.4 243.2 Q 297.6 244 277.6 262.4 L 277.6 262.4 L 277.6 262.4 Q 258.4 281.6 256 309.6 Q 233.6 316.8 219.2 334.4 Q 205.6 352.8 204.8 377.6 Q 205.6 407.2 225.6 427.2 Q 245.6 447.2 275.2 448 L 441.6 448 L 441.6 448 Q 471.2 447.2 491.2 427.2 Q 511.2 407.2 512 377.6 Q 511.2 351.2 495.2 332 Q 479.2 313.6 454.4 308 Q 452 291.2 439.2 280 Q 427.2 268.8 409.6 268.8 Q 396 268.8 385.6 276 Q 365.6 244.8 326.4 243.2 L 326.4 243.2 Z" />
</svg>