<svg xmlns="http://www.w3.org/2000/svg" viewBox="0 0 512 512">
  <path d="M 453.48572 88.22857 Q 453.48572 83.65714 449.82858 81.828575 Q 446.17142 80 442.51428 81.828575 L 384 118.4 L 384 118.4 Q 378.51428 122.97143 381.25714 128.45714 Q 385.82858 133.94286 391.3143 131.2 L 438.85715 101.02857 L 438.85715 101.02857 L 438.85715 417.37143 L 438.85715 417.37143 L 387.65714 417.37143 L 387.65714 417.37143 Q 381.25714 418.2857 380.34286 424.6857 Q 381.25714 431.08572 387.65714 432 L 446.17142 432 L 504.6857 432 Q 511.08572 431.08572 512 424.6857 Q 511.08572 418.2857 504.6857 417.37143 L 453.48572 417.37143 L 453.48572 417.37143 L 453.48572 88.22857 L 453.48572 88.22857 Z M 14.6285715 88.22857 Q 13.714286 81.828575 7.3142858 80.91428 Q 0.9142857 81.828575 0 88.22857 L 0 249.14285 L 0 249.14285 L 0 424.6857 L 0 424.6857 Q 0.9142857 431.08572 7.3142858 432 Q 13.714286 431.08572 14.6285715 424.6857 L 14.6285715 256.45715 L 14.6285715 256.45715 L 277.94287 256.45715 L 277.94287 256.45715 L 277.94287 424.6857 L 277.94287 424.6857 Q 278.85715 431.08572 285.25714 432 Q 291.65714 431.08572 292.57144 424.6857 L 292.57144 249.14285 L 292.57144 249.14285 L 292.57144 88.22857 L 292.57144 88.22857 Q 291.65714 81.828575 285.25714 80.91428 Q 278.85715 81.828575 277.94287 88.22857 L 277.94287 241.82857 L 277.94287 241.82857 L 14.6285715 241.82857 L 14.6285715 241.82857 L 14.6285715 88.22857 L 14.6285715 88.22857 Z" />
</svg>