<svg xmlns="http://www.w3.org/2000/svg" viewBox="0 0 512 512">
  <path d="M 176 256 L 176 167 L 176 256 L 176 167 Q 175 161 169 160 Q 166 160 164 162 L 17 302 L 17 302 Q 16 303 16 304 Q 16 305 17 306 L 164 446 L 164 446 Q 166 448 169 448 Q 175 447 176 441 L 176 352 L 176 352 Q 177 337 192 336 L 400 336 L 400 336 Q 441 335 468 308 Q 495 281 496 240 L 496 88 L 496 88 Q 494 66 472 64 L 456 64 L 456 64 Q 434 66 432 88 L 432 240 L 432 240 Q 432 254 423 263 Q 414 272 400 272 L 192 272 L 192 272 Q 177 271 176 256 L 176 256 Z M 6 291 L 153 150 L 6 291 L 153 150 Q 160 144 169 144 Q 190 146 192 167 L 192 240 L 192 240 L 192 256 L 192 256 L 208 256 L 400 256 Q 415 255 416 240 L 416 88 L 416 88 Q 417 71 428 60 Q 439 48 456 48 L 472 48 L 472 48 Q 489 48 500 60 Q 512 71 512 88 L 512 240 L 512 240 Q 511 288 479 319 Q 448 351 400 352 L 208 352 L 192 352 L 192 368 L 192 368 L 192 441 L 192 441 Q 190 462 169 464 Q 160 464 153 458 L 6 318 L 6 318 Q 0 312 0 304 Q 0 296 6 291 L 6 291 Z" />
</svg>