<svg xmlns="http://www.w3.org/2000/svg" viewBox="0 0 512 512">
  <path d="M 455.1111 99.55556 Q 472.8889 100.44444 485.33334 112 L 485.33334 112 L 485.33334 112 Q 496.8889 124.44444 497.77777 142.22223 L 497.77777 369.77777 L 497.77777 369.77777 Q 496.8889 387.55554 485.33334 400 Q 472.8889 411.55554 455.1111 412.44446 L 56.88889 412.44446 L 56.88889 412.44446 Q 39.11111 411.55554 26.666666 400 Q 15.111111 387.55554 14.222222 369.77777 L 14.222222 142.22223 L 14.222222 142.22223 Q 15.111111 124.44444 26.666666 112 Q 39.11111 100.44444 56.88889 99.55556 L 455.1111 99.55556 L 455.1111 99.55556 Z M 56.88889 85.333336 Q 32.88889 86.22222 16.88889 102.22222 L 16.88889 102.22222 L 16.88889 102.22222 Q 0.8888889 118.22222 0 142.22223 L 0 369.77777 L 0 369.77777 Q 0.8888889 393.77777 16.88889 409.77777 Q 32.88889 425.77777 56.88889 426.66666 L 455.1111 426.66666 L 455.1111 426.66666 Q 479.1111 425.77777 495.1111 409.77777 Q 511.1111 393.77777 512 369.77777 L 512 142.22223 L 512 142.22223 Q 511.1111 118.22222 495.1111 102.22222 Q 479.1111 86.22222 455.1111 85.333336 L 56.88889 85.333336 L 56.88889 85.333336 Z M 483.55554 184.88889 Q 482.66666 178.66667 476.44446 177.77777 L 469.33334 177.77777 L 469.33334 177.77777 Q 448 176.88889 433.77777 163.55556 Q 420.44446 149.33333 419.55554 128 L 419.55554 120.888885 L 419.55554 120.888885 Q 418.66666 114.666664 412.44446 113.77778 Q 406.22223 114.666664 405.33334 120.888885 L 405.33334 128 L 405.33334 128 Q 406.22223 155.55556 424 173.33333 Q 441.77777 191.11111 469.33334 192 L 476.44446 192 L 476.44446 192 Q 482.66666 191.11111 483.55554 184.88889 L 483.55554 184.88889 Z M 35.555557 192 L 42.666668 192 L 35.555557 192 L 42.666668 192 Q 70.22222 191.11111 88 173.33333 Q 105.77778 155.55556 106.666664 128 L 106.666664 120.888885 L 106.666664 120.888885 Q 105.77778 114.666664 99.55556 113.77778 Q 93.333336 114.666664 92.44444 120.888885 L 92.44444 128 L 92.44444 128 Q 91.55556 149.33333 78.22222 163.55556 Q 64 176.88889 42.666668 177.77777 L 35.555557 177.77777 L 35.555557 177.77777 Q 29.333334 178.66667 28.444445 184.88889 Q 29.333334 191.11111 35.555557 192 L 35.555557 192 Z M 483.55554 327.1111 Q 482.66666 320.8889 476.44446 320 L 469.33334 320 L 469.33334 320 Q 441.77777 320.8889 424 338.66666 Q 406.22223 356.44446 405.33334 384 L 405.33334 391.1111 L 405.33334 391.1111 Q 406.22223 397.33334 412.44446 398.22223 Q 418.66666 397.33334 419.55554 391.1111 L 419.55554 384 L 419.55554 384 Q 420.44446 362.66666 433.77777 348.44446 Q 448 335.1111 469.33334 334.22223 L 476.44446 334.22223 L 476.44446 334.22223 Q 482.66666 333.33334 483.55554 327.1111 L 483.55554 327.1111 Z M 35.555557 320 Q 29.333334 320.8889 28.444445 327.1111 Q 29.333334 333.33334 35.555557 334.22223 L 42.666668 334.22223 L 42.666668 334.22223 Q 64 335.1111 78.22222 348.44446 Q 91.55556 362.66666 92.44444 384 L 92.44444 391.1111 L 92.44444 391.1111 Q 93.333336 397.33334 99.55556 398.22223 Q 105.77778 397.33334 106.666664 391.1111 L 106.666664 384 L 106.666664 384 Q 105.77778 356.44446 88 338.66666 Q 70.22222 320.8889 42.666668 320 L 35.555557 320 L 35.555557 320 Z M 256 156.44444 Q 282.66666 156.44444 305.77777 169.77777 L 305.77777 169.77777 L 305.77777 169.77777 Q 328.8889 183.11111 342.22223 206.22223 Q 355.55554 229.33333 355.55554 256 Q 355.55554 282.66666 342.22223 305.77777 Q 328.8889 328.8889 305.77777 342.22223 Q 282.66666 355.55554 256 355.55554 Q 229.33333 355.55554 206.22223 342.22223 Q 183.11111 328.8889 169.77777 305.77777 Q 156.44444 282.66666 156.44444 256 Q 156.44444 229.33333 169.77777 206.22223 Q 183.11111 183.11111 206.22223 169.77777 Q 229.33333 156.44444 256 156.44444 L 256 156.44444 Z M 256 369.77777 Q 287.1111 369.77777 312.8889 354.66666 L 312.8889 354.66666 L 312.8889 354.66666 Q 338.66666 339.55554 354.66666 312.8889 Q 369.77777 286.22223 369.77777 256 Q 369.77777 225.77777 354.66666 199.11111 Q 338.66666 172.44444 312.8889 157.33333 Q 287.1111 142.22223 256 142.22223 Q 224.88889 142.22223 199.11111 157.33333 Q 173.33333 172.44444 157.33333 199.11111 Q 142.22223 225.77777 142.22223 256 Q 142.22223 286.22223 157.33333 312.8889 Q 173.33333 339.55554 199.11111 354.66666 Q 224.88889 369.77777 256 369.77777 L 256 369.77777 Z M 241.77777 206.22223 Q 235.55556 207.11111 234.66667 213.33333 Q 235.55556 219.55556 241.77777 220.44444 L 248.88889 220.44444 L 248.88889 220.44444 L 248.88889 291.55554 L 248.88889 291.55554 L 234.66667 291.55554 L 234.66667 291.55554 Q 228.44444 292.44446 227.55556 298.66666 Q 228.44444 304.8889 234.66667 305.77777 L 256 305.77777 L 277.33334 305.77777 Q 283.55554 304.8889 284.44446 298.66666 Q 283.55554 292.44446 277.33334 291.55554 L 263.1111 291.55554 L 263.1111 291.55554 L 263.1111 213.33333 L 263.1111 213.33333 Q 262.22223 207.11111 256 206.22223 L 241.77777 206.22223 L 241.77777 206.22223 Z" />
</svg>